0
SECTION
2
HEADER
0
ENDSEC
0
SECTION
2
TABLES
0
TABLE
2
LTYPE
0
LTYPE
72
65
70
64
2
CONTINUOUS
3
______
73
0
40
0
0
ENDTAB
0
TABLE
2
LAYER
0
ENDTAB
0
ENDSEC
0
SECTION
2
ENTITIES
0
CIRCLE
8
0
10
43
20
0
40
2
0
CIRCLE
8
0
10
43
20
0
40
2
0
LINE
8
layer0
10
36.9910474
20
-8.97431
11
36.9744961
21
-8.7007997
0
LINE
8
layer0
10
36.9744961
20
-8.7007997
11
36.9696926
21
-8.4405898
0
LINE
8
layer0
10
36.9696926
20
-8.4405898
11
36.9754134
21
-8.1968738
0
LINE
8
layer0
10
36.9754134
20
-8.1968738
11
36.9904023
21
-7.9677035
0
LINE
8
layer0
10
36.9904023
20
-7.9677035
11
37.0131957
21
-7.7556906
0
LINE
8
layer0
10
37.0131957
20
-7.7556906
11
37.0429497
21
-7.5574181
0
LINE
8
layer0
10
37.0429497
20
-7.5574181
11
37.0778906
21
-7.3765283
0
LINE
8
layer0
10
37.0778906
20
-7.3765283
11
37.1171568
21
-7.210781
0
LINE
8
layer0
10
37.1171568
20
-7.210781
11
37.2028458
21
-6.9281084
0
LINE
8
layer0
10
37.2028458
20
-6.9281084
11
37.2900746
21
-6.7083175
0
LINE
8
layer0
10
37.2900746
20
-6.7083175
11
37.3685809
21
-6.5502549
0
LINE
8
layer0
10
37.3685809
20
-6.5502549
11
37.4167901
21
-6.4688912
0
LINE
8
layer0
10
37.4167901
20
-6.4688912
11
37.5446773
21
-6.3660847
0
LINE
8
layer0
10
37.5446773
20
-6.3660847
11
37.7008094
21
-6.2299963
0
LINE
8
layer0
10
37.7008094
20
-6.2299963
11
37.836163
21
-6.0926367
0
LINE
8
layer0
10
37.836163
20
-6.0926367
11
37.9509494
21
-5.9554863
0
LINE
8
layer0
10
37.9509494
20
-5.9554863
11
38.0454437
21
-5.8200245
0
LINE
8
layer0
10
38.0454437
20
-5.8200245
11
38.1200234
21
-5.6876968
0
LINE
8
layer0
10
38.1200234
20
-5.6876968
11
38.1751248
21
-5.5599254
0
LINE
8
layer0
10
38.1751248
20
-5.5599254
11
38.2112879
21
-5.438085
0
LINE
8
layer0
10
38.2112879
20
-5.438085
11
38.2291394
21
-5.3235294
0
LINE
8
layer0
10
38.2291394
20
-5.3235294
11
38.2293739
21
-5.2175685
0
LINE
8
layer0
10
38.2293739
20
-5.2175685
11
38.2127626
21
-5.1214481
0
LINE
8
layer0
10
38.2127626
20
-5.1214481
11
38.1801432
21
-5.0363844
0
LINE
8
layer0
10
38.1801432
20
-5.0363844
11
38.1254803
21
-4.9553402
0
LINE
8
layer0
10
38.1254803
20
-4.9553402
11
37.9544084
21
-4.7796232
0
LINE
8
layer0
10
37.9544084
20
-4.7796232
11
37.6759911
21
-4.4673739
0
LINE
8
layer0
10
37.6759911
20
-4.4673739
11
37.4168322
21
-4.1389649
0
LINE
8
layer0
10
37.4168322
20
-4.1389649
11
37.2734911
21
-3.939979
0
LINE
8
layer0
10
37.2734911
20
-3.939979
11
37.2031703
21
-3.8720734
0
LINE
8
layer0
10
37.2031703
20
-3.8720734
11
37.1250631
21
-3.8251784
0
LINE
8
layer0
10
37.1250631
20
-3.8251784
11
37.0332876
21
-3.7921283
0
LINE
8
layer0
10
37.0332876
20
-3.7921283
11
36.9288957
21
-3.7739594
0
LINE
8
layer0
10
36.9288957
20
-3.7739594
11
36.8129806
21
-3.7716473
0
LINE
8
layer0
10
36.8129806
20
-3.7716473
11
36.6867115
21
-3.7861036
0
LINE
8
layer0
10
36.6867115
20
-3.7861036
11
36.5513131
21
-3.8181806
0
LINE
8
layer0
10
36.5513131
20
-3.8181806
11
36.4080451
21
-3.8686489
0
LINE
8
layer0
10
36.4080451
20
-3.8686489
11
36.2582325
21
-3.9381849
0
LINE
8
layer0
10
36.2582325
20
-3.9381849
11
36.1032333
21
-4.0274115
0
LINE
8
layer0
10
36.1032333
20
-4.0274115
11
35.9444565
21
-4.1368565
0
LINE
8
layer0
10
35.9444565
20
-4.1368565
11
35.7833236
21
-4.2669851
0
LINE
8
layer0
10
35.7833236
20
-4.2669851
11
35.6598716
21
-4.3750772
0
LINE
8
layer0
10
35.6598716
20
-4.3750772
11
35.5713725
21
-4.4084253
0
LINE
8
layer0
10
35.5713725
20
-4.4084253
11
35.4020788
21
-4.4582917
0
LINE
8
layer0
10
35.4020788
20
-4.4582917
11
35.1704799
21
-4.506029
0
LINE
8
layer0
10
35.1704799
20
-4.506029
11
34.877222
21
-4.5413306
0
LINE
8
layer0
10
34.877222
20
-4.5413306
11
34.7071742
21
-4.5512185
0
LINE
8
layer0
10
34.7071742
20
-4.5512185
11
34.5229651
21
-4.5542175
0
LINE
8
layer0
10
34.5229651
20
-4.5542175
11
34.3225381
21
-4.5490898
0
LINE
8
layer0
10
34.3225381
20
-4.5490898
11
34.1097882
21
-4.5347212
0
LINE
8
layer0
10
34.1097882
20
-4.5347212
11
33.8814967
21
-4.5096874
0
LINE
8
layer0
10
33.8814967
20
-4.5096874
11
33.6404899
21
-4.4730005
0
LINE
8
layer0
10
33.6404899
20
-4.4730005
11
33.3850673
21
-4.4230849
0
LINE
8
layer0
10
33.3850673
20
-4.4230849
11
33.1185863
21
-4.3592905
0
LINE
8
layer0
10
33.1185863
20
-4.3592905
11
32.8707424
21
-4.2890888
0
ARC
8
layer0
10
43.0000793
20
0.0000294
40
11
50
197.0504936
51
202.9495114
0
LINE
8
layer0
10
32.4835653
20
-3.2253286
11
32.6283
21
-3.01224
0
LINE
8
layer0
10
32.6283
20
-3.01224
11
32.79143
21
-2.79208
0
LINE
8
layer0
10
32.79143
20
-2.79208
11
32.95501
21
-2.58966
0
LINE
8
layer0
10
32.95501
20
-2.58966
11
33.11605
21
-2.40664
0
LINE
8
layer0
10
33.11605
20
-2.40664
11
33.27484
21
-2.24072
0
LINE
8
layer0
10
33.27484
20
-2.24072
11
33.42858
21
-2.09296
0
LINE
8
layer0
10
33.42858
20
-2.09296
11
33.57882
21
-1.9602
0
LINE
8
layer0
10
33.57882
20
-1.9602
11
33.72186
21
-1.84409
0
LINE
8
layer0
10
33.72186
20
-1.84409
11
33.85848
21
-1.74236
0
LINE
8
layer0
10
33.85848
20
-1.74236
11
34.10582
21
-1.5809
0
LINE
8
layer0
10
34.10582
20
-1.5809
11
34.31392
21
-1.4686
0
LINE
8
layer0
10
34.31392
20
-1.4686
11
34.47566
21
-1.39798
0
LINE
8
layer0
10
34.47566
20
-1.39798
11
34.56489
21
-1.36664
0
LINE
8
layer0
10
34.56489
20
-1.36664
11
34.72894
21
-1.37009
0
LINE
8
layer0
10
34.72894
20
-1.37009
11
34.93602
21
-1.3662
0
LINE
8
layer0
10
34.93602
20
-1.3662
11
35.128
21
-1.34798
0
LINE
8
layer0
10
35.128
20
-1.34798
11
35.30409
21
-1.3167
0
LINE
8
layer0
10
35.30409
20
-1.3167
11
35.46355
21
-1.27367
0
LINE
8
layer0
10
35.46355
20
-1.27367
11
35.60574
21
-1.22024
0
LINE
8
layer0
10
35.60574
20
-1.22024
11
35.73008
21
-1.15778
0
LINE
8
layer0
10
35.73008
20
-1.15778
11
35.8361
21
-1.08769
0
LINE
8
layer0
10
35.8361
20
-1.08769
11
35.92341
21
-1.01141
0
LINE
8
layer0
10
35.92341
20
-1.01141
11
35.9917
21
-0.93039
0
LINE
8
layer0
10
35.9917
20
-0.93039
11
36.04076
21
-0.84608
0
LINE
8
layer0
10
36.04076
20
-0.84608
11
36.07045
21
-0.75995
0
LINE
8
layer0
10
36.07045
20
-0.75995
11
36.08067
21
-0.66273
0
LINE
8
layer0
10
36.08067
20
-0.66273
11
36.06257
21
-0.41816
0
LINE
8
layer0
10
36.06257
20
-0.41816
11
36.05
21
0
0
LINE
8
layer0
10
36.05
20
0
11
36.06257
21
0.41816
0
LINE
8
layer0
10
36.06257
20
0.41816
11
36.08067
21
0.66273
0
LINE
8
layer0
10
36.08067
20
0.66273
11
36.07045
21
0.75995
0
LINE
8
layer0
10
36.07045
20
0.75995
11
36.04076
21
0.84608
0
LINE
8
layer0
10
36.04076
20
0.84608
11
35.9917
21
0.93039
0
LINE
8
layer0
10
35.9917
20
0.93039
11
35.92341
21
1.01141
0
LINE
8
layer0
10
35.92341
20
1.01141
11
35.8361
21
1.08769
0
LINE
8
layer0
10
35.8361
20
1.08769
11
35.73008
21
1.15778
0
LINE
8
layer0
10
35.73008
20
1.15778
11
35.60574
21
1.22024
0
LINE
8
layer0
10
35.60574
20
1.22024
11
35.46355
21
1.27367
0
LINE
8
layer0
10
35.46355
20
1.27367
11
35.30409
21
1.3167
0
LINE
8
layer0
10
35.30409
20
1.3167
11
35.128
21
1.34798
0
LINE
8
layer0
10
35.128
20
1.34798
11
34.93602
21
1.3662
0
LINE
8
layer0
10
34.93602
20
1.3662
11
34.72894
21
1.37009
0
LINE
8
layer0
10
34.72894
20
1.37009
11
34.56489
21
1.36664
0
LINE
8
layer0
10
34.56489
20
1.36664
11
34.47566
21
1.39798
0
LINE
8
layer0
10
34.47566
20
1.39798
11
34.31392
21
1.4686
0
LINE
8
layer0
10
34.31392
20
1.4686
11
34.10582
21
1.5809
0
LINE
8
layer0
10
34.10582
20
1.5809
11
33.85848
21
1.74236
0
LINE
8
layer0
10
33.85848
20
1.74236
11
33.72186
21
1.84409
0
LINE
8
layer0
10
33.72186
20
1.84409
11
33.57882
21
1.9602
0
LINE
8
layer0
10
33.57882
20
1.9602
11
33.42858
21
2.09296
0
LINE
8
layer0
10
33.42858
20
2.09296
11
33.27484
21
2.24072
0
LINE
8
layer0
10
33.27484
20
2.24072
11
33.11605
21
2.40664
0
LINE
8
layer0
10
33.11605
20
2.40664
11
32.95501
21
2.58966
0
LINE
8
layer0
10
32.95501
20
2.58966
11
32.79143
21
2.79208
0
LINE
8
layer0
10
32.79143
20
2.79208
11
32.6283
21
3.01224
0
LINE
8
layer0
10
32.6283
20
3.01224
11
32.4835653
21
3.2253286
0
ARC
8
layer0
10
43.0000793
20
-0.0000294
40
11
50
157.0504886
51
162.9495064
0
LINE
8
layer0
10
32.8707424
20
4.2890888
11
33.1185863
21
4.3592905
0
LINE
8
layer0
10
33.1185863
20
4.3592905
11
33.3850673
21
4.4230849
0
LINE
8
layer0
10
33.3850673
20
4.4230849
11
33.6404899
21
4.4730005
0
LINE
8
layer0
10
33.6404899
20
4.4730005
11
33.8814967
21
4.5096874
0
LINE
8
layer0
10
33.8814967
20
4.5096874
11
34.1097882
21
4.5347212
0
LINE
8
layer0
10
34.1097882
20
4.5347212
11
34.3225381
21
4.5490898
0
LINE
8
layer0
10
34.3225381
20
4.5490898
11
34.5229651
21
4.5542175
0
LINE
8
layer0
10
34.5229651
20
4.5542175
11
34.7071742
21
4.5512185
0
LINE
8
layer0
10
34.7071742
20
4.5512185
11
34.877222
21
4.5413306
0
LINE
8
layer0
10
34.877222
20
4.5413306
11
35.1704799
21
4.506029
0
LINE
8
layer0
10
35.1704799
20
4.506029
11
35.4020788
21
4.4582917
0
LINE
8
layer0
10
35.4020788
20
4.4582917
11
35.5713725
21
4.4084253
0
LINE
8
layer0
10
35.5713725
20
4.4084253
11
35.6598716
21
4.3750772
0
LINE
8
layer0
10
35.6598716
20
4.3750772
11
35.7833236
21
4.2669851
0
LINE
8
layer0
10
35.7833236
20
4.2669851
11
35.9444565
21
4.1368565
0
LINE
8
layer0
10
35.9444565
20
4.1368565
11
36.1032333
21
4.0274115
0
LINE
8
layer0
10
36.1032333
20
4.0274115
11
36.2582325
21
3.9381849
0
LINE
8
layer0
10
36.2582325
20
3.9381849
11
36.4080451
21
3.8686489
0
LINE
8
layer0
10
36.4080451
20
3.8686489
11
36.5513131
21
3.8181806
0
LINE
8
layer0
10
36.5513131
20
3.8181806
11
36.6867115
21
3.7861036
0
LINE
8
layer0
10
36.6867115
20
3.7861036
11
36.8129806
21
3.7716473
0
LINE
8
layer0
10
36.8129806
20
3.7716473
11
36.9288957
21
3.7739594
0
LINE
8
layer0
10
36.9288957
20
3.7739594
11
37.0332876
21
3.7921283
0
LINE
8
layer0
10
37.0332876
20
3.7921283
11
37.1250631
21
3.8251784
0
LINE
8
layer0
10
37.1250631
20
3.8251784
11
37.2031703
21
3.8720734
0
LINE
8
layer0
10
37.2031703
20
3.8720734
11
37.2734911
21
3.939979
0
LINE
8
layer0
10
37.2734911
20
3.939979
11
37.4168322
21
4.1389649
0
LINE
8
layer0
10
37.4168322
20
4.1389649
11
37.6759911
21
4.4673739
0
LINE
8
layer0
10
37.6759911
20
4.4673739
11
37.9544084
21
4.7796232
0
LINE
8
layer0
10
37.9544084
20
4.7796232
11
38.1254803
21
4.9553402
0
LINE
8
layer0
10
38.1254803
20
4.9553402
11
38.1801432
21
5.0363844
0
LINE
8
layer0
10
38.1801432
20
5.0363844
11
38.2127626
21
5.1214481
0
LINE
8
layer0
10
38.2127626
20
5.1214481
11
38.2293739
21
5.2175685
0
LINE
8
layer0
10
38.2293739
20
5.2175685
11
38.2291394
21
5.3235294
0
LINE
8
layer0
10
38.2291394
20
5.3235294
11
38.2112879
21
5.438085
0
LINE
8
layer0
10
38.2112879
20
5.438085
11
38.1751248
21
5.5599254
0
LINE
8
layer0
10
38.1751248
20
5.5599254
11
38.1200234
21
5.6876968
0
LINE
8
layer0
10
38.1200234
20
5.6876968
11
38.0454437
21
5.8200245
0
LINE
8
layer0
10
38.0454437
20
5.8200245
11
37.9509494
21
5.9554863
0
LINE
8
layer0
10
37.9509494
20
5.9554863
11
37.836163
21
6.0926367
0
LINE
8
layer0
10
37.836163
20
6.0926367
11
37.7008094
21
6.2299963
0
LINE
8
layer0
10
37.7008094
20
6.2299963
11
37.5446773
21
6.3660847
0
LINE
8
layer0
10
37.5446773
20
6.3660847
11
37.4167901
21
6.4688912
0
LINE
8
layer0
10
37.4167901
20
6.4688912
11
37.3685809
21
6.5502549
0
LINE
8
layer0
10
37.3685809
20
6.5502549
11
37.2900746
21
6.7083175
0
LINE
8
layer0
10
37.2900746
20
6.7083175
11
37.2028458
21
6.9281084
0
LINE
8
layer0
10
37.2028458
20
6.9281084
11
37.1171568
21
7.210781
0
LINE
8
layer0
10
37.1171568
20
7.210781
11
37.0778906
21
7.3765283
0
LINE
8
layer0
10
37.0778906
20
7.3765283
11
37.0429497
21
7.5574181
0
LINE
8
layer0
10
37.0429497
20
7.5574181
11
37.0131957
21
7.7556906
0
LINE
8
layer0
10
37.0131957
20
7.7556906
11
36.9904023
21
7.9677035
0
LINE
8
layer0
10
36.9904023
20
7.9677035
11
36.9754134
21
8.1968738
0
LINE
8
layer0
10
36.9754134
20
8.1968738
11
36.9696926
21
8.4405898
0
LINE
8
layer0
10
36.9696926
20
8.4405898
11
36.9744961
21
8.7007997
0
LINE
8
layer0
10
36.9744961
20
8.7007997
11
36.9910474
21
8.97431
0
LINE
8
layer0
10
36.9910474
20
8.97431
11
37.0171449
21
9.230579
0
ARC
8
layer0
10
43.0000424
20
-0.0000731
40
11
50
117.0504921
51
122.9495099
0
LINE
8
layer0
10
37.9975116
20
9.796594
11
38.2324959
21
9.6910606
0
LINE
8
layer0
10
38.2324959
20
9.6910606
11
38.4776384
21
9.5686393
0
LINE
8
layer0
10
38.4776384
20
9.5686393
11
38.7053885
21
9.4426943
0
LINE
8
layer0
10
38.7053885
20
9.4426943
11
38.9135924
21
9.3158819
0
LINE
8
layer0
10
38.9135924
20
9.3158819
11
39.1045653
21
9.188316
0
LINE
8
layer0
10
39.1045653
20
9.188316
11
39.2767771
21
9.0625699
0
LINE
8
layer0
10
39.2767771
20
9.0625699
11
39.4336091
21
8.9376659
0
LINE
8
layer0
10
39.4336091
20
8.9376659
11
39.5727938
21
8.8169613
0
LINE
8
layer0
10
39.5727938
20
8.8169613
11
39.6967021
21
8.7000821
0
LINE
8
layer0
10
39.6967021
20
8.7000821
11
39.8986593
21
8.484537
0
LINE
8
layer0
10
39.8986593
20
8.484537
11
40.0453894
21
8.2990992
0
LINE
8
layer0
10
40.0453894
20
8.2990992
11
40.1430224
21
8.1520794
0
LINE
8
layer0
10
40.1430224
20
8.1520794
11
40.1893809
21
8.0696472
0
LINE
8
layer0
10
40.1893809
20
8.0696472
11
40.2144702
21
7.9074904
0
LINE
8
layer0
10
40.2144702
20
7.9074904
11
40.2542602
21
7.7042319
0
LINE
8
layer0
10
40.2542602
20
7.7042319
11
40.3055404
21
7.5183324
0
LINE
8
layer0
10
40.3055404
20
7.5183324
11
40.3669229
21
7.3503493
0
LINE
8
layer0
10
40.3669229
20
7.3503493
11
40.4369891
21
7.2007839
0
LINE
8
layer0
10
40.4369891
20
7.2007839
11
40.5142984
21
7.0700321
0
LINE
8
layer0
10
40.5142984
20
7.0700321
11
40.5974009
21
6.9584272
0
LINE
8
layer0
10
40.5974009
20
6.9584272
11
40.6848363
21
6.8661889
0
LINE
8
layer0
10
40.6848363
20
6.8661889
11
40.7751186
21
6.7934512
0
LINE
8
layer0
10
40.7751186
20
6.7934512
11
40.8667662
21
6.7402676
0
LINE
8
layer0
10
40.8667662
20
6.7402676
11
40.9583145
21
6.7065933
0
LINE
8
layer0
10
40.9583145
20
6.7065933
11
41.0482916
21
6.6923106
0
LINE
8
layer0
10
41.0482916
20
6.6923106
11
41.1458093
21
6.699128
0
LINE
8
layer0
10
41.1458093
20
6.699128
11
41.3835207
21
6.7594221
0
LINE
8
layer0
10
41.3835207
20
6.7594221
11
41.7931452
21
6.8444139
0
LINE
8
layer0
10
41.7931452
20
6.8444139
11
42.2071351
21
6.9046476
0
LINE
8
layer0
10
42.2071351
20
6.9046476
11
42.4511326
21
6.9292917
0
LINE
8
layer0
10
42.4511326
20
6.9292917
11
42.5451009
21
6.9562385
0
LINE
8
layer0
10
42.5451009
20
6.9562385
11
42.6247668
21
7.0004338
0
LINE
8
layer0
10
42.6247668
20
7.0004338
11
42.6992768
21
7.0633887
0
LINE
8
layer0
10
42.6992768
20
7.0633887
11
42.7672075
21
7.1447102
0
LINE
8
layer0
10
42.7672075
20
7.1447102
11
42.8271674
21
7.2439396
0
LINE
8
layer0
10
42.8271674
20
7.2439396
11
42.8777824
21
7.36052
0
LINE
8
layer0
10
42.8777824
20
7.36052
11
42.917702
21
7.493817
0
LINE
8
layer0
10
42.917702
20
7.493817
11
42.9456293
21
7.6431249
0
LINE
8
layer0
10
42.9456293
20
7.6431249
11
42.9603156
21
7.8076344
0
LINE
8
layer0
10
42.9603156
20
7.8076344
11
42.9605427
21
7.9864809
0
LINE
8
layer0
10
42.9605427
20
7.9864809
11
42.9451489
21
8.1787082
0
LINE
8
layer0
10
42.9451489
20
8.1787082
11
42.9130208
21
8.3833176
0
LINE
8
layer0
10
42.9130208
20
8.3833176
11
42.8811362
21
8.5442763
0
LINE
8
layer0
10
42.8811362
20
8.5442763
11
42.8965054
21
8.6375928
0
LINE
8
layer0
10
42.8965054
20
8.6375928
11
42.9379667
21
8.8091386
0
LINE
8
layer0
10
42.9379667
20
8.8091386
11
43.0124244
21
9.0335778
0
LINE
8
layer0
10
43.0124244
20
9.0335778
11
43.1284813
21
9.3051974
0
LINE
8
layer0
10
43.1284813
20
9.3051974
11
43.204942
21
9.4574071
0
LINE
8
layer0
10
43.204942
20
9.4574071
11
43.2944494
21
9.6184363
0
LINE
8
layer0
10
43.2944494
20
9.6184363
11
43.3991036
21
9.7894473
0
LINE
8
layer0
10
43.3991036
20
9.7894473
11
43.5179221
21
9.9665099
0
LINE
8
layer0
10
43.5179221
20
9.9665099
11
43.6537478
21
10.1516992
0
LINE
8
layer0
10
43.6537478
20
10.1516992
11
43.806023
21
10.3420738
0
LINE
8
layer0
10
43.806023
20
10.3420738
11
43.9769625
21
10.5383185
0
LINE
8
layer0
10
43.9769625
20
10.5383185
11
44.1654505
21
10.7372006
0
LINE
8
layer0
10
44.1654505
20
10.7372006
11
44.3501689
21
10.9167389
0
ARC
8
layer0
10
42.9999857
20
-0.0000832
40
11
50
77.0504932
51
82.949511
0
LINE
8
layer0
10
45.4650008
20
10.7201639
11
45.5771736
21
10.4882757
0
LINE
8
layer0
10
45.5771736
20
10.4882757
11
45.6862728
21
10.236921
0
LINE
8
layer0
10
45.6862728
20
10.236921
11
45.7797837
21
9.9940465
0
LINE
8
layer0
10
45.7797837
20
9.9940465
11
45.8577636
21
9.7630718
0
LINE
8
layer0
10
45.8577636
20
9.7630718
11
45.9220596
21
9.5425956
0
LINE
8
layer0
10
45.9220596
20
9.5425956
11
45.9731535
21
9.3355729
0
LINE
8
layer0
10
45.9731535
20
9.3355729
11
46.013007
21
9.1390812
0
LINE
8
layer0
10
46.013007
20
9.1390812
11
46.0420412
21
8.9571499
0
LINE
8
layer0
10
46.0420412
20
8.9571499
11
46.061832
21
8.7879685
0
LINE
8
layer0
10
46.061832
20
8.7879685
11
46.0779904
21
8.4930358
0
LINE
8
layer0
10
46.0779904
20
8.4930358
11
46.0711951
21
8.2566659
0
LINE
8
layer0
10
46.0711951
20
8.2566659
11
46.0514838
21
8.081285
0
LINE
8
layer0
10
46.0514838
20
8.081285
11
46.03401
21
7.9883395
0
LINE
8
layer0
10
46.03401
20
7.9883395
11
45.9489973
21
7.8479931
0
LINE
8
layer0
10
45.9489973
20
7.8479931
11
45.8488261
21
7.6667115
0
LINE
8
layer0
10
45.8488261
20
7.6667115
11
45.7686151
21
7.491342
0
LINE
8
layer0
10
45.7686151
20
7.491342
11
45.7076594
21
7.3232036
0
LINE
8
layer0
10
45.7076594
20
7.3232036
11
45.6651944
21
7.1635922
0
LINE
8
layer0
10
45.6651944
20
7.1635922
11
45.6403712
21
7.013737
0
LINE
8
layer0
10
45.6403712
20
7.013737
11
45.6322931
21
6.8748254
0
LINE
8
layer0
10
45.6322931
20
6.8748254
11
45.6399828
21
6.7479644
0
LINE
8
layer0
10
45.6399828
20
6.7479644
11
45.6623882
21
6.6342117
0
LINE
8
layer0
10
45.6623882
20
6.6342117
11
45.6984086
21
6.5345608
0
LINE
8
layer0
10
45.6984086
20
6.5345608
11
45.7468932
21
6.4499186
0
LINE
8
layer0
10
45.7468932
20
6.4499186
11
45.806639
21
6.3811413
0
LINE
8
layer0
10
45.806639
20
6.3811413
11
45.885724
21
6.3236806
0
LINE
8
layer0
10
45.885724
20
6.3236806
11
46.1065778
21
6.2170706
0
LINE
8
layer0
10
46.1065778
20
6.2170706
11
46.475
21
6.0188766
0
LINE
8
layer0
10
46.475
20
6.0188766
11
46.8308522
21
5.7989106
0
LINE
8
layer0
10
46.8308522
20
5.7989106
11
47.033606
21
5.6609506
0
LINE
8
layer0
10
47.033606
20
5.6609506
11
47.122911
21
5.6211913
0
LINE
8
layer0
10
47.122911
20
5.6211913
11
47.2123468
21
5.6038386
0
LINE
8
layer0
10
47.2123468
20
5.6038386
11
47.3098914
21
5.6041708
0
LINE
8
layer0
10
47.3098914
20
5.6041708
11
47.4142018
21
5.6228017
0
LINE
8
layer0
10
47.4142018
20
5.6228017
11
47.5239172
21
5.6602744
0
LINE
8
layer0
10
47.5239172
20
5.6602744
11
47.6376269
21
5.7170454
0
LINE
8
layer0
10
47.6376269
20
5.7170454
11
47.7538888
21
5.793497
0
LINE
8
layer0
10
47.7538888
20
5.793497
11
47.8712556
21
5.8899222
0
LINE
8
layer0
10
47.8712556
20
5.8899222
11
47.9882506
21
6.0065036
0
LINE
8
layer0
10
47.9882506
20
6.0065036
11
48.1033849
21
6.143362
0
LINE
8
layer0
10
48.1033849
20
6.143362
11
48.2151539
21
6.3005115
0
LINE
8
layer0
10
48.2151539
20
6.3005115
11
48.3220627
21
6.4779031
0
LINE
8
layer0
10
48.3220627
20
6.4779031
11
48.4011
21
6.6216995
0
LINE
8
layer0
10
48.4011
20
6.6216995
11
48.4728562
21
6.683305
0
LINE
8
layer0
10
48.4728562
20
6.683305
11
48.6148849
21
6.7880659
0
LINE
8
layer0
10
48.6148849
20
6.7880659
11
48.8161896
21
6.9121358
0
LINE
8
layer0
10
48.8161896
20
6.9121358
11
49.079688
21
7.0456085
0
LINE
8
layer0
10
49.079688
20
7.0456085
11
49.2360988
21
7.1130599
0
LINE
8
layer0
10
49.2360988
20
7.1130599
11
49.408173
21
7.1788812
0
LINE
8
layer0
10
49.408173
20
7.1788812
11
49.5982665
21
7.2426129
0
LINE
8
layer0
10
49.5982665
20
7.2426129
11
49.8031004
21
7.3018756
0
LINE
8
layer0
10
49.8031004
20
7.3018756
11
50.0261864
21
7.3564318
0
LINE
8
layer0
10
50.0261864
20
7.3564318
11
50.2652063
21
7.4043865
0
LINE
8
layer0
10
50.2652063
20
7.4043865
11
50.5222972
21
7.444841
0
LINE
8
layer0
10
50.5222972
20
7.444841
11
50.7945264
21
7.4760357
0
LINE
8
layer0
10
50.7945264
20
7.4760357
11
51.0514339
21
7.4948353
0
ARC
8
layer0
10
42.999935
20
-0.000054
40
11
50
37.0504889
51
42.9495067
0
LINE
8
layer0
10
51.7790887
20
6.62765
11
51.7159632
21
6.37791
0
LINE
8
layer0
10
51.7159632
20
6.37791
11
51.6379703
21
6.1152335
0
LINE
8
layer0
10
51.6379703
20
6.1152335
11
51.5534871
21
5.8690733
0
LINE
8
layer0
10
51.5534871
20
5.8690733
11
51.4647555
21
5.6420118
0
LINE
8
layer0
10
51.4647555
20
5.6420118
11
51.3722897
21
5.4317887
0
LINE
8
layer0
10
51.3722897
20
5.4317887
11
51.2783583
21
5.2403575
0
LINE
8
layer0
10
51.2783583
20
5.2403575
11
51.1825854
21
5.0642188
0
LINE
8
layer0
10
51.1825854
20
5.0642188
11
51.0878838
21
4.9061885
0
LINE
8
layer0
10
51.0878838
20
4.9061885
11
50.9942967
21
4.7638668
0
LINE
8
layer0
10
50.9942967
20
4.7638668
11
50.8170957
21
4.5275488
0
LINE
8
layer0
10
50.8170957
20
4.5275488
11
50.6599545
21
4.3508469
0
LINE
8
layer0
10
50.6599545
20
4.3508469
11
50.5321221
21
4.2291675
0
LINE
8
layer0
10
50.5321221
20
4.2291675
11
50.4589922
21
4.1691991
0
LINE
8
layer0
10
50.4589922
20
4.1691991
11
50.3036557
21
4.1163326
0
LINE
8
layer0
10
50.3036557
20
4.1163326
11
50.1103946
21
4.0418517
0
LINE
8
layer0
10
50.1103946
20
4.0418517
11
49.936224
21
3.9590694
0
LINE
8
layer0
10
49.936224
20
3.9590694
11
49.7814519
21
3.8694495
0
LINE
8
layer0
10
49.7814519
20
3.8694495
11
49.6463257
21
3.774476
0
LINE
8
layer0
10
49.6463257
20
3.774476
11
49.5309849
21
3.6756364
0
LINE
8
layer0
10
49.5309849
20
3.6756364
11
49.4355061
21
3.5744164
0
LINE
8
layer0
10
49.4355061
20
3.5744164
11
49.3598521
21
3.4722924
0
LINE
8
layer0
10
49.3598521
20
3.4722924
11
49.3038968
21
3.3707508
0
LINE
8
layer0
10
49.3038968
20
3.3707508
11
49.2674357
21
3.2712604
0
LINE
8
layer0
10
49.2674357
20
3.2712604
11
49.2501701
21
3.1752554
0
LINE
8
layer0
10
49.2501701
20
3.1752554
11
49.2517288
21
3.0841651
0
LINE
8
layer0
10
49.2517288
20
3.0841651
11
49.2753763
21
2.9893127
0
LINE
8
layer0
10
49.2753763
20
2.9893127
11
49.3760326
21
2.7656827
0
LINE
8
layer0
10
49.3760326
20
2.7656827
11
49.5308637
21
2.37704
0
LINE
8
layer0
10
49.5308637
20
2.37704
11
49.6620709
21
1.9797989
0
LINE
8
layer0
10
49.6620709
20
1.9797989
11
49.7287104
21
1.7437877
0
LINE
8
layer0
10
49.7287104
20
1.7437877
11
49.7715652
21
1.6559263
0
LINE
8
layer0
10
49.7715652
20
1.6559263
11
49.8289229
21
1.5851451
0
LINE
8
layer0
10
49.8289229
20
1.5851451
11
49.9038599
21
1.5226992
0
LINE
8
layer0
10
49.9038599
20
1.5226992
11
49.995742
21
1.4699218
0
LINE
8
layer0
10
49.995742
20
1.4699218
11
50.1038759
21
1.4281038
0
LINE
8
layer0
10
50.1038759
20
1.4281038
11
50.2274743
21
1.3985018
0
LINE
8
layer0
10
50.2274743
20
1.3985018
11
50.3656782
21
1.3823353
0
LINE
8
layer0
10
50.3656782
20
1.3823353
11
50.5175672
21
1.3807594
0
LINE
8
layer0
10
50.5175672
20
1.3807594
11
50.6821278
21
1.394863
0
LINE
8
layer0
10
50.6821278
20
1.394863
11
50.8582966
21
1.4256957
0
LINE
8
layer0
10
50.8582966
20
1.4256957
11
51.0449304
21
1.4742355
0
LINE
8
layer0
10
51.0449304
20
1.4742355
11
51.2408524
21
1.5414057
0
LINE
8
layer0
10
51.2408524
20
1.5414057
11
51.393829
21
1.600756
0
LINE
8
layer0
10
51.393829
20
1.600756
11
51.4883967
21
1.6018245
0
LINE
8
layer0
10
51.4883967
20
1.6018245
11
51.6645361
21
1.5907817
0
LINE
8
layer0
10
51.6645361
20
1.5907817
11
51.898495
21
1.5564287
0
LINE
8
layer0
10
51.898495
20
1.5564287
11
52.1861411
21
1.4893011
0
LINE
8
layer0
10
52.1861411
20
1.4893011
11
52.3493156
21
1.440433
0
LINE
8
layer0
10
52.3493156
20
1.440433
11
52.5234412
21
1.3802479
0
LINE
8
layer0
10
52.5234412
20
1.3802479
11
52.7100272
21
1.3068794
0
LINE
8
layer0
10
52.7100272
20
1.3068794
11
52.9050325
21
1.2206126
0
LINE
8
layer0
10
52.9050325
20
1.2206126
11
53.1109942
21
1.1190081
0
LINE
8
layer0
10
53.1109942
20
1.1190081
11
53.3249189
21
1.0021045
0
LINE
8
layer0
10
53.3249189
20
1.0021045
11
53.5478655
21
0.8678396
0
LINE
8
layer0
10
53.5478655
20
0.8678396
11
53.7764567
21
0.7167506
0
LINE
8
layer0
10
53.7764567
20
0.7167506
11
53.9853434
21
0.566015
0
ARC
8
layer0
10
42.9999155
20
0
40
11
50
357.050491
51
362.949509
0
LINE
8
layer0
10
53.9853434
20
-0.566015
11
53.7764567
21
-0.7167506
0
LINE
8
layer0
10
53.7764567
20
-0.7167506
11
53.5478655
21
-0.8678396
0
LINE
8
layer0
10
53.5478655
20
-0.8678396
11
53.3249189
21
-1.0021045
0
LINE
8
layer0
10
53.3249189
20
-1.0021045
11
53.1109942
21
-1.1190081
0
LINE
8
layer0
10
53.1109942
20
-1.1190081
11
52.9050325
21
-1.2206126
0
LINE
8
layer0
10
52.9050325
20
-1.2206126
11
52.7100272
21
-1.3068794
0
LINE
8
layer0
10
52.7100272
20
-1.3068794
11
52.5234412
21
-1.3802479
0
LINE
8
layer0
10
52.5234412
20
-1.3802479
11
52.3493156
21
-1.440433
0
LINE
8
layer0
10
52.3493156
20
-1.440433
11
52.1861411
21
-1.4893011
0
LINE
8
layer0
10
52.1861411
20
-1.4893011
11
51.898495
21
-1.5564287
0
LINE
8
layer0
10
51.898495
20
-1.5564287
11
51.6645361
21
-1.5907817
0
LINE
8
layer0
10
51.6645361
20
-1.5907817
11
51.4883967
21
-1.6018245
0
LINE
8
layer0
10
51.4883967
20
-1.6018245
11
51.393829
21
-1.600756
0
LINE
8
layer0
10
51.393829
20
-1.600756
11
51.2408524
21
-1.5414057
0
LINE
8
layer0
10
51.2408524
20
-1.5414057
11
51.0449304
21
-1.4742355
0
LINE
8
layer0
10
51.0449304
20
-1.4742355
11
50.8582966
21
-1.4256957
0
LINE
8
layer0
10
50.8582966
20
-1.4256957
11
50.6821278
21
-1.394863
0
LINE
8
layer0
10
50.6821278
20
-1.394863
11
50.5175672
21
-1.3807594
0
LINE
8
layer0
10
50.5175672
20
-1.3807594
11
50.3656782
21
-1.3823353
0
LINE
8
layer0
10
50.3656782
20
-1.3823353
11
50.2274743
21
-1.3985018
0
LINE
8
layer0
10
50.2274743
20
-1.3985018
11
50.1038759
21
-1.4281038
0
LINE
8
layer0
10
50.1038759
20
-1.4281038
11
49.995742
21
-1.4699218
0
LINE
8
layer0
10
49.995742
20
-1.4699218
11
49.9038599
21
-1.5226992
0
LINE
8
layer0
10
49.9038599
20
-1.5226992
11
49.8289229
21
-1.5851451
0
LINE
8
layer0
10
49.8289229
20
-1.5851451
11
49.7715652
21
-1.6559263
0
LINE
8
layer0
10
49.7715652
20
-1.6559263
11
49.7287104
21
-1.7437877
0
LINE
8
layer0
10
49.7287104
20
-1.7437877
11
49.6620709
21
-1.9797989
0
LINE
8
layer0
10
49.6620709
20
-1.9797989
11
49.5308637
21
-2.37704
0
LINE
8
layer0
10
49.5308637
20
-2.37704
11
49.3760326
21
-2.7656827
0
LINE
8
layer0
10
49.3760326
20
-2.7656827
11
49.2753763
21
-2.9893127
0
LINE
8
layer0
10
49.2753763
20
-2.9893127
11
49.2517288
21
-3.0841651
0
LINE
8
layer0
10
49.2517288
20
-3.0841651
11
49.2501701
21
-3.1752554
0
LINE
8
layer0
10
49.2501701
20
-3.1752554
11
49.2674357
21
-3.2712604
0
LINE
8
layer0
10
49.2674357
20
-3.2712604
11
49.3038968
21
-3.3707508
0
LINE
8
layer0
10
49.3038968
20
-3.3707508
11
49.3598521
21
-3.4722924
0
LINE
8
layer0
10
49.3598521
20
-3.4722924
11
49.4355061
21
-3.5744164
0
LINE
8
layer0
10
49.4355061
20
-3.5744164
11
49.5309849
21
-3.6756364
0
LINE
8
layer0
10
49.5309849
20
-3.6756364
11
49.6463257
21
-3.774476
0
LINE
8
layer0
10
49.6463257
20
-3.774476
11
49.7814519
21
-3.8694495
0
LINE
8
layer0
10
49.7814519
20
-3.8694495
11
49.936224
21
-3.9590694
0
LINE
8
layer0
10
49.936224
20
-3.9590694
11
50.1103946
21
-4.0418517
0
LINE
8
layer0
10
50.1103946
20
-4.0418517
11
50.3036557
21
-4.1163326
0
LINE
8
layer0
10
50.3036557
20
-4.1163326
11
50.4589922
21
-4.1691991
0
LINE
8
layer0
10
50.4589922
20
-4.1691991
11
50.5321221
21
-4.2291675
0
LINE
8
layer0
10
50.5321221
20
-4.2291675
11
50.6599545
21
-4.3508469
0
LINE
8
layer0
10
50.6599545
20
-4.3508469
11
50.8170957
21
-4.5275488
0
LINE
8
layer0
10
50.8170957
20
-4.5275488
11
50.9942967
21
-4.7638668
0
LINE
8
layer0
10
50.9942967
20
-4.7638668
11
51.0878838
21
-4.9061885
0
LINE
8
layer0
10
51.0878838
20
-4.9061885
11
51.1825854
21
-5.0642188
0
LINE
8
layer0
10
51.1825854
20
-5.0642188
11
51.2783583
21
-5.2403575
0
LINE
8
layer0
10
51.2783583
20
-5.2403575
11
51.3722897
21
-5.4317887
0
LINE
8
layer0
10
51.3722897
20
-5.4317887
11
51.4647555
21
-5.6420118
0
LINE
8
layer0
10
51.4647555
20
-5.6420118
11
51.5534871
21
-5.8690733
0
LINE
8
layer0
10
51.5534871
20
-5.8690733
11
51.6379703
21
-6.1152335
0
LINE
8
layer0
10
51.6379703
20
-6.1152335
11
51.7159632
21
-6.37791
0
LINE
8
layer0
10
51.7159632
20
-6.37791
11
51.7790887
21
-6.62765
0
ARC
8
layer0
10
42.9999349
20
0.0000539
40
11
50
317.050494
51
322.9495118
0
LINE
8
layer0
10
51.0514339
20
-7.4948353
11
50.7945264
21
-7.4760357
0
LINE
8
layer0
10
50.7945264
20
-7.4760357
11
50.5222972
21
-7.444841
0
LINE
8
layer0
10
50.5222972
20
-7.444841
11
50.2652063
21
-7.4043865
0
LINE
8
layer0
10
50.2652063
20
-7.4043865
11
50.0261864
21
-7.3564318
0
LINE
8
layer0
10
50.0261864
20
-7.3564318
11
49.8031004
21
-7.3018756
0
LINE
8
layer0
10
49.8031004
20
-7.3018756
11
49.5982665
21
-7.2426129
0
LINE
8
layer0
10
49.5982665
20
-7.2426129
11
49.408173
21
-7.1788812
0
LINE
8
layer0
10
49.408173
20
-7.1788812
11
49.2360988
21
-7.1130599
0
LINE
8
layer0
10
49.2360988
20
-7.1130599
11
49.079688
21
-7.0456085
0
LINE
8
layer0
10
49.079688
20
-7.0456085
11
48.8161896
21
-6.9121358
0
LINE
8
layer0
10
48.8161896
20
-6.9121358
11
48.6148849
21
-6.7880659
0
LINE
8
layer0
10
48.6148849
20
-6.7880659
11
48.4728562
21
-6.683305
0
LINE
8
layer0
10
48.4728562
20
-6.683305
11
48.4011
21
-6.6216995
0
LINE
8
layer0
10
48.4011
20
-6.6216995
11
48.3220627
21
-6.4779031
0
LINE
8
layer0
10
48.3220627
20
-6.4779031
11
48.2151539
21
-6.3005115
0
LINE
8
layer0
10
48.2151539
20
-6.3005115
11
48.1033849
21
-6.143362
0
LINE
8
layer0
10
48.1033849
20
-6.143362
11
47.9882506
21
-6.0065036
0
LINE
8
layer0
10
47.9882506
20
-6.0065036
11
47.8712556
21
-5.8899222
0
LINE
8
layer0
10
47.8712556
20
-5.8899222
11
47.7538888
21
-5.793497
0
LINE
8
layer0
10
47.7538888
20
-5.793497
11
47.6376269
21
-5.7170454
0
LINE
8
layer0
10
47.6376269
20
-5.7170454
11
47.5239172
21
-5.6602744
0
LINE
8
layer0
10
47.5239172
20
-5.6602744
11
47.4142018
21
-5.6228017
0
LINE
8
layer0
10
47.4142018
20
-5.6228017
11
47.3098914
21
-5.6041708
0
LINE
8
layer0
10
47.3098914
20
-5.6041708
11
47.2123468
21
-5.6038386
0
LINE
8
layer0
10
47.2123468
20
-5.6038386
11
47.122911
21
-5.6211913
0
LINE
8
layer0
10
47.122911
20
-5.6211913
11
47.033606
21
-5.6609506
0
LINE
8
layer0
10
47.033606
20
-5.6609506
11
46.8308522
21
-5.7989106
0
LINE
8
layer0
10
46.8308522
20
-5.7989106
11
46.475
21
-6.0188766
0
LINE
8
layer0
10
46.475
20
-6.0188766
11
46.1065778
21
-6.2170706
0
LINE
8
layer0
10
46.1065778
20
-6.2170706
11
45.885724
21
-6.3236806
0
LINE
8
layer0
10
45.885724
20
-6.3236806
11
45.806639
21
-6.3811413
0
LINE
8
layer0
10
45.806639
20
-6.3811413
11
45.7468932
21
-6.4499186
0
LINE
8
layer0
10
45.7468932
20
-6.4499186
11
45.6984086
21
-6.5345608
0
LINE
8
layer0
10
45.6984086
20
-6.5345608
11
45.6623882
21
-6.6342117
0
LINE
8
layer0
10
45.6623882
20
-6.6342117
11
45.6399828
21
-6.7479644
0
LINE
8
layer0
10
45.6399828
20
-6.7479644
11
45.6322931
21
-6.8748254
0
LINE
8
layer0
10
45.6322931
20
-6.8748254
11
45.6403712
21
-7.013737
0
LINE
8
layer0
10
45.6403712
20
-7.013737
11
45.6651944
21
-7.1635922
0
LINE
8
layer0
10
45.6651944
20
-7.1635922
11
45.7076594
21
-7.3232036
0
LINE
8
layer0
10
45.7076594
20
-7.3232036
11
45.7686151
21
-7.491342
0
LINE
8
layer0
10
45.7686151
20
-7.491342
11
45.8488261
21
-7.6667115
0
LINE
8
layer0
10
45.8488261
20
-7.6667115
11
45.9489973
21
-7.8479931
0
LINE
8
layer0
10
45.9489973
20
-7.8479931
11
46.03401
21
-7.9883395
0
LINE
8
layer0
10
46.03401
20
-7.9883395
11
46.0514838
21
-8.081285
0
LINE
8
layer0
10
46.0514838
20
-8.081285
11
46.0711951
21
-8.2566659
0
LINE
8
layer0
10
46.0711951
20
-8.2566659
11
46.0779904
21
-8.4930358
0
LINE
8
layer0
10
46.0779904
20
-8.4930358
11
46.061832
21
-8.7879685
0
LINE
8
layer0
10
46.061832
20
-8.7879685
11
46.0420412
21
-8.9571499
0
LINE
8
layer0
10
46.0420412
20
-8.9571499
11
46.013007
21
-9.1390812
0
LINE
8
layer0
10
46.013007
20
-9.1390812
11
45.9731535
21
-9.3355729
0
LINE
8
layer0
10
45.9731535
20
-9.3355729
11
45.9220596
21
-9.5425956
0
LINE
8
layer0
10
45.9220596
20
-9.5425956
11
45.8577636
21
-9.7630718
0
LINE
8
layer0
10
45.8577636
20
-9.7630718
11
45.7797837
21
-9.9940465
0
LINE
8
layer0
10
45.7797837
20
-9.9940465
11
45.6862728
21
-10.236921
0
LINE
8
layer0
10
45.6862728
20
-10.236921
11
45.5771736
21
-10.4882757
0
LINE
8
layer0
10
45.5771736
20
-10.4882757
11
45.4650008
21
-10.7201639
0
ARC
8
layer0
10
42.9999857
20
0.0000833
40
11
50
277.050489
51
282.9495068
0
LINE
8
layer0
10
44.3501689
20
-10.9167389
11
44.1654505
21
-10.7372006
0
LINE
8
layer0
10
44.1654505
20
-10.7372006
11
43.9769625
21
-10.5383185
0
LINE
8
layer0
10
43.9769625
20
-10.5383185
11
43.806023
21
-10.3420738
0
LINE
8
layer0
10
43.806023
20
-10.3420738
11
43.6537478
21
-10.1516992
0
LINE
8
layer0
10
43.6537478
20
-10.1516992
11
43.5179221
21
-9.9665099
0
LINE
8
layer0
10
43.5179221
20
-9.9665099
11
43.3991036
21
-9.7894473
0
LINE
8
layer0
10
43.3991036
20
-9.7894473
11
43.2944494
21
-9.6184363
0
LINE
8
layer0
10
43.2944494
20
-9.6184363
11
43.204942
21
-9.4574071
0
LINE
8
layer0
10
43.204942
20
-9.4574071
11
43.1284813
21
-9.3051974
0
LINE
8
layer0
10
43.1284813
20
-9.3051974
11
43.0124244
21
-9.0335778
0
LINE
8
layer0
10
43.0124244
20
-9.0335778
11
42.9379667
21
-8.8091386
0
LINE
8
layer0
10
42.9379667
20
-8.8091386
11
42.8965054
21
-8.6375928
0
LINE
8
layer0
10
42.8965054
20
-8.6375928
11
42.8811362
21
-8.5442763
0
LINE
8
layer0
10
42.8811362
20
-8.5442763
11
42.9130208
21
-8.3833176
0
LINE
8
layer0
10
42.9130208
20
-8.3833176
11
42.9451489
21
-8.1787082
0
LINE
8
layer0
10
42.9451489
20
-8.1787082
11
42.9605427
21
-7.9864809
0
LINE
8
layer0
10
42.9605427
20
-7.9864809
11
42.9603156
21
-7.8076344
0
LINE
8
layer0
10
42.9603156
20
-7.8076344
11
42.9456293
21
-7.6431249
0
LINE
8
layer0
10
42.9456293
20
-7.6431249
11
42.917702
21
-7.493817
0
LINE
8
layer0
10
42.917702
20
-7.493817
11
42.8777824
21
-7.36052
0
LINE
8
layer0
10
42.8777824
20
-7.36052
11
42.8271674
21
-7.2439396
0
LINE
8
layer0
10
42.8271674
20
-7.2439396
11
42.7672075
21
-7.1447102
0
LINE
8
layer0
10
42.7672075
20
-7.1447102
11
42.6992768
21
-7.0633887
0
LINE
8
layer0
10
42.6992768
20
-7.0633887
11
42.6247668
21
-7.0004338
0
LINE
8
layer0
10
42.6247668
20
-7.0004338
11
42.5451009
21
-6.9562385
0
LINE
8
layer0
10
42.5451009
20
-6.9562385
11
42.4511326
21
-6.9292917
0
LINE
8
layer0
10
42.4511326
20
-6.9292917
11
42.2071351
21
-6.9046476
0
LINE
8
layer0
10
42.2071351
20
-6.9046476
11
41.7931452
21
-6.8444139
0
LINE
8
layer0
10
41.7931452
20
-6.8444139
11
41.3835207
21
-6.7594221
0
LINE
8
layer0
10
41.3835207
20
-6.7594221
11
41.1458093
21
-6.699128
0
LINE
8
layer0
10
41.1458093
20
-6.699128
11
41.0482916
21
-6.6923106
0
LINE
8
layer0
10
41.0482916
20
-6.6923106
11
40.9583145
21
-6.7065933
0
LINE
8
layer0
10
40.9583145
20
-6.7065933
11
40.8667662
21
-6.7402676
0
LINE
8
layer0
10
40.8667662
20
-6.7402676
11
40.7751186
21
-6.7934512
0
LINE
8
layer0
10
40.7751186
20
-6.7934512
11
40.6848363
21
-6.8661889
0
LINE
8
layer0
10
40.6848363
20
-6.8661889
11
40.5974009
21
-6.9584272
0
LINE
8
layer0
10
40.5974009
20
-6.9584272
11
40.5142984
21
-7.0700321
0
LINE
8
layer0
10
40.5142984
20
-7.0700321
11
40.4369891
21
-7.2007839
0
LINE
8
layer0
10
40.4369891
20
-7.2007839
11
40.3669229
21
-7.3503493
0
LINE
8
layer0
10
40.3669229
20
-7.3503493
11
40.3055404
21
-7.5183324
0
LINE
8
layer0
10
40.3055404
20
-7.5183324
11
40.2542602
21
-7.7042319
0
LINE
8
layer0
10
40.2542602
20
-7.7042319
11
40.2144702
21
-7.9074904
0
LINE
8
layer0
10
40.2144702
20
-7.9074904
11
40.1893809
21
-8.0696472
0
LINE
8
layer0
10
40.1893809
20
-8.0696472
11
40.1430224
21
-8.1520794
0
LINE
8
layer0
10
40.1430224
20
-8.1520794
11
40.0453894
21
-8.2990992
0
LINE
8
layer0
10
40.0453894
20
-8.2990992
11
39.8986593
21
-8.484537
0
LINE
8
layer0
10
39.8986593
20
-8.484537
11
39.6967021
21
-8.7000821
0
LINE
8
layer0
10
39.6967021
20
-8.7000821
11
39.5727938
21
-8.8169613
0
LINE
8
layer0
10
39.5727938
20
-8.8169613
11
39.4336091
21
-8.9376659
0
LINE
8
layer0
10
39.4336091
20
-8.9376659
11
39.2767771
21
-9.0625699
0
LINE
8
layer0
10
39.2767771
20
-9.0625699
11
39.1045653
21
-9.188316
0
LINE
8
layer0
10
39.1045653
20
-9.188316
11
38.9135924
21
-9.3158819
0
LINE
8
layer0
10
38.9135924
20
-9.3158819
11
38.7053885
21
-9.4426943
0
LINE
8
layer0
10
38.7053885
20
-9.4426943
11
38.4776384
21
-9.5686393
0
LINE
8
layer0
10
38.4776384
20
-9.5686393
11
38.2324959
21
-9.6910606
0
LINE
8
layer0
10
38.2324959
20
-9.6910606
11
37.9975116
21
-9.796594
0
ARC
8
layer0
10
43.0000424
20
0.0000731
40
11
50
237.0504901
51
242.9495079
0
LINE
8
layer0
10
37.0171449
20
-9.230579
11
36.9910474
21
-8.97431
0
LINE
8
layer1
10
36.9910474
20
-8.97431
11
36.9744961
21
-8.7007997
0
LINE
8
layer1
10
36.9744961
20
-8.7007997
11
36.9696926
21
-8.4405898
0
LINE
8
layer1
10
36.9696926
20
-8.4405898
11
36.9754134
21
-8.1968738
0
LINE
8
layer1
10
36.9754134
20
-8.1968738
11
36.9904023
21
-7.9677035
0
LINE
8
layer1
10
36.9904023
20
-7.9677035
11
37.0131957
21
-7.7556906
0
LINE
8
layer1
10
37.0131957
20
-7.7556906
11
37.0429497
21
-7.5574181
0
LINE
8
layer1
10
37.0429497
20
-7.5574181
11
37.0778906
21
-7.3765283
0
LINE
8
layer1
10
37.0778906
20
-7.3765283
11
37.1171568
21
-7.210781
0
LINE
8
layer1
10
37.1171568
20
-7.210781
11
37.2028458
21
-6.9281084
0
LINE
8
layer1
10
37.2028458
20
-6.9281084
11
37.2900746
21
-6.7083175
0
LINE
8
layer1
10
37.2900746
20
-6.7083175
11
37.3685809
21
-6.5502549
0
LINE
8
layer1
10
37.3685809
20
-6.5502549
11
37.4167901
21
-6.4688912
0
LINE
8
layer1
10
37.4167901
20
-6.4688912
11
37.5446773
21
-6.3660847
0
LINE
8
layer1
10
37.5446773
20
-6.3660847
11
37.7008094
21
-6.2299963
0
LINE
8
layer1
10
37.7008094
20
-6.2299963
11
37.836163
21
-6.0926367
0
LINE
8
layer1
10
37.836163
20
-6.0926367
11
37.9509494
21
-5.9554863
0
LINE
8
layer1
10
37.9509494
20
-5.9554863
11
38.0454437
21
-5.8200245
0
LINE
8
layer1
10
38.0454437
20
-5.8200245
11
38.1200234
21
-5.6876968
0
LINE
8
layer1
10
38.1200234
20
-5.6876968
11
38.1751248
21
-5.5599254
0
LINE
8
layer1
10
38.1751248
20
-5.5599254
11
38.2112879
21
-5.438085
0
LINE
8
layer1
10
38.2112879
20
-5.438085
11
38.2291394
21
-5.3235294
0
LINE
8
layer1
10
38.2291394
20
-5.3235294
11
38.2293739
21
-5.2175685
0
LINE
8
layer1
10
38.2293739
20
-5.2175685
11
38.2127626
21
-5.1214481
0
LINE
8
layer1
10
38.2127626
20
-5.1214481
11
38.1801432
21
-5.0363844
0
LINE
8
layer1
10
38.1801432
20
-5.0363844
11
38.1254803
21
-4.9553402
0
LINE
8
layer1
10
38.1254803
20
-4.9553402
11
37.9544084
21
-4.7796232
0
LINE
8
layer1
10
37.9544084
20
-4.7796232
11
37.6759911
21
-4.4673739
0
LINE
8
layer1
10
37.6759911
20
-4.4673739
11
37.4168322
21
-4.1389649
0
LINE
8
layer1
10
37.4168322
20
-4.1389649
11
37.2734911
21
-3.939979
0
LINE
8
layer1
10
37.2734911
20
-3.939979
11
37.2031703
21
-3.8720734
0
LINE
8
layer1
10
37.2031703
20
-3.8720734
11
37.1250631
21
-3.8251784
0
LINE
8
layer1
10
37.1250631
20
-3.8251784
11
37.0332876
21
-3.7921283
0
LINE
8
layer1
10
37.0332876
20
-3.7921283
11
36.9288957
21
-3.7739594
0
LINE
8
layer1
10
36.9288957
20
-3.7739594
11
36.8129806
21
-3.7716473
0
LINE
8
layer1
10
36.8129806
20
-3.7716473
11
36.6867115
21
-3.7861036
0
LINE
8
layer1
10
36.6867115
20
-3.7861036
11
36.5513131
21
-3.8181806
0
LINE
8
layer1
10
36.5513131
20
-3.8181806
11
36.4080451
21
-3.8686489
0
LINE
8
layer1
10
36.4080451
20
-3.8686489
11
36.2582325
21
-3.9381849
0
LINE
8
layer1
10
36.2582325
20
-3.9381849
11
36.1032333
21
-4.0274115
0
LINE
8
layer1
10
36.1032333
20
-4.0274115
11
35.9444565
21
-4.1368565
0
LINE
8
layer1
10
35.9444565
20
-4.1368565
11
35.7833236
21
-4.2669851
0
LINE
8
layer1
10
35.7833236
20
-4.2669851
11
35.6598716
21
-4.3750772
0
LINE
8
layer1
10
35.6598716
20
-4.3750772
11
35.5713725
21
-4.4084253
0
LINE
8
layer1
10
35.5713725
20
-4.4084253
11
35.4020788
21
-4.4582917
0
LINE
8
layer1
10
35.4020788
20
-4.4582917
11
35.1704799
21
-4.506029
0
LINE
8
layer1
10
35.1704799
20
-4.506029
11
34.877222
21
-4.5413306
0
LINE
8
layer1
10
34.877222
20
-4.5413306
11
34.7071742
21
-4.5512185
0
LINE
8
layer1
10
34.7071742
20
-4.5512185
11
34.5229651
21
-4.5542175
0
LINE
8
layer1
10
34.5229651
20
-4.5542175
11
34.3225381
21
-4.5490898
0
LINE
8
layer1
10
34.3225381
20
-4.5490898
11
34.1097882
21
-4.5347212
0
LINE
8
layer1
10
34.1097882
20
-4.5347212
11
33.8814967
21
-4.5096874
0
LINE
8
layer1
10
33.8814967
20
-4.5096874
11
33.6404899
21
-4.4730005
0
LINE
8
layer1
10
33.6404899
20
-4.4730005
11
33.3850673
21
-4.4230849
0
LINE
8
layer1
10
33.3850673
20
-4.4230849
11
33.1185863
21
-4.3592905
0
LINE
8
layer1
10
33.1185863
20
-4.3592905
11
32.8707424
21
-4.2890888
0
ARC
8
layer1
10
43.0000793
20
0.0000294
40
11
50
197.0504936
51
202.9495114
0
LINE
8
layer1
10
32.4835653
20
-3.2253286
11
32.6283
21
-3.01224
0
LINE
8
layer1
10
32.6283
20
-3.01224
11
32.79143
21
-2.79208
0
LINE
8
layer1
10
32.79143
20
-2.79208
11
32.95501
21
-2.58966
0
LINE
8
layer1
10
32.95501
20
-2.58966
11
33.11605
21
-2.40664
0
LINE
8
layer1
10
33.11605
20
-2.40664
11
33.27484
21
-2.24072
0
LINE
8
layer1
10
33.27484
20
-2.24072
11
33.42858
21
-2.09296
0
LINE
8
layer1
10
33.42858
20
-2.09296
11
33.57882
21
-1.9602
0
LINE
8
layer1
10
33.57882
20
-1.9602
11
33.72186
21
-1.84409
0
LINE
8
layer1
10
33.72186
20
-1.84409
11
33.85848
21
-1.74236
0
LINE
8
layer1
10
33.85848
20
-1.74236
11
34.10582
21
-1.5809
0
LINE
8
layer1
10
34.10582
20
-1.5809
11
34.31392
21
-1.4686
0
LINE
8
layer1
10
34.31392
20
-1.4686
11
34.47566
21
-1.39798
0
LINE
8
layer1
10
34.47566
20
-1.39798
11
34.56489
21
-1.36664
0
LINE
8
layer1
10
34.56489
20
-1.36664
11
34.72894
21
-1.37009
0
LINE
8
layer1
10
34.72894
20
-1.37009
11
34.93602
21
-1.3662
0
LINE
8
layer1
10
34.93602
20
-1.3662
11
35.128
21
-1.34798
0
LINE
8
layer1
10
35.128
20
-1.34798
11
35.30409
21
-1.3167
0
LINE
8
layer1
10
35.30409
20
-1.3167
11
35.46355
21
-1.27367
0
LINE
8
layer1
10
35.46355
20
-1.27367
11
35.60574
21
-1.22024
0
LINE
8
layer1
10
35.60574
20
-1.22024
11
35.73008
21
-1.15778
0
LINE
8
layer1
10
35.73008
20
-1.15778
11
35.8361
21
-1.08769
0
LINE
8
layer1
10
35.8361
20
-1.08769
11
35.92341
21
-1.01141
0
LINE
8
layer1
10
35.92341
20
-1.01141
11
35.9917
21
-0.93039
0
LINE
8
layer1
10
35.9917
20
-0.93039
11
36.04076
21
-0.84608
0
LINE
8
layer1
10
36.04076
20
-0.84608
11
36.07045
21
-0.75995
0
LINE
8
layer1
10
36.07045
20
-0.75995
11
36.08067
21
-0.66273
0
LINE
8
layer1
10
36.08067
20
-0.66273
11
36.06257
21
-0.41816
0
LINE
8
layer1
10
36.06257
20
-0.41816
11
36.05
21
0
0
LINE
8
layer1
10
36.05
20
0
11
36.06257
21
0.41816
0
LINE
8
layer1
10
36.06257
20
0.41816
11
36.08067
21
0.66273
0
LINE
8
layer1
10
36.08067
20
0.66273
11
36.07045
21
0.75995
0
LINE
8
layer1
10
36.07045
20
0.75995
11
36.04076
21
0.84608
0
LINE
8
layer1
10
36.04076
20
0.84608
11
35.9917
21
0.93039
0
LINE
8
layer1
10
35.9917
20
0.93039
11
35.92341
21
1.01141
0
LINE
8
layer1
10
35.92341
20
1.01141
11
35.8361
21
1.08769
0
LINE
8
layer1
10
35.8361
20
1.08769
11
35.73008
21
1.15778
0
LINE
8
layer1
10
35.73008
20
1.15778
11
35.60574
21
1.22024
0
LINE
8
layer1
10
35.60574
20
1.22024
11
35.46355
21
1.27367
0
LINE
8
layer1
10
35.46355
20
1.27367
11
35.30409
21
1.3167
0
LINE
8
layer1
10
35.30409
20
1.3167
11
35.128
21
1.34798
0
LINE
8
layer1
10
35.128
20
1.34798
11
34.93602
21
1.3662
0
LINE
8
layer1
10
34.93602
20
1.3662
11
34.72894
21
1.37009
0
LINE
8
layer1
10
34.72894
20
1.37009
11
34.56489
21
1.36664
0
LINE
8
layer1
10
34.56489
20
1.36664
11
34.47566
21
1.39798
0
LINE
8
layer1
10
34.47566
20
1.39798
11
34.31392
21
1.4686
0
LINE
8
layer1
10
34.31392
20
1.4686
11
34.10582
21
1.5809
0
LINE
8
layer1
10
34.10582
20
1.5809
11
33.85848
21
1.74236
0
LINE
8
layer1
10
33.85848
20
1.74236
11
33.72186
21
1.84409
0
LINE
8
layer1
10
33.72186
20
1.84409
11
33.57882
21
1.9602
0
LINE
8
layer1
10
33.57882
20
1.9602
11
33.42858
21
2.09296
0
LINE
8
layer1
10
33.42858
20
2.09296
11
33.27484
21
2.24072
0
LINE
8
layer1
10
33.27484
20
2.24072
11
33.11605
21
2.40664
0
LINE
8
layer1
10
33.11605
20
2.40664
11
32.95501
21
2.58966
0
LINE
8
layer1
10
32.95501
20
2.58966
11
32.79143
21
2.79208
0
LINE
8
layer1
10
32.79143
20
2.79208
11
32.6283
21
3.01224
0
LINE
8
layer1
10
32.6283
20
3.01224
11
32.4835653
21
3.2253286
0
ARC
8
layer1
10
43.0000793
20
-0.0000294
40
11
50
157.0504886
51
162.9495064
0
LINE
8
layer1
10
32.8707424
20
4.2890888
11
33.1185863
21
4.3592905
0
LINE
8
layer1
10
33.1185863
20
4.3592905
11
33.3850673
21
4.4230849
0
LINE
8
layer1
10
33.3850673
20
4.4230849
11
33.6404899
21
4.4730005
0
LINE
8
layer1
10
33.6404899
20
4.4730005
11
33.8814967
21
4.5096874
0
LINE
8
layer1
10
33.8814967
20
4.5096874
11
34.1097882
21
4.5347212
0
LINE
8
layer1
10
34.1097882
20
4.5347212
11
34.3225381
21
4.5490898
0
LINE
8
layer1
10
34.3225381
20
4.5490898
11
34.5229651
21
4.5542175
0
LINE
8
layer1
10
34.5229651
20
4.5542175
11
34.7071742
21
4.5512185
0
LINE
8
layer1
10
34.7071742
20
4.5512185
11
34.877222
21
4.5413306
0
LINE
8
layer1
10
34.877222
20
4.5413306
11
35.1704799
21
4.506029
0
LINE
8
layer1
10
35.1704799
20
4.506029
11
35.4020788
21
4.4582917
0
LINE
8
layer1
10
35.4020788
20
4.4582917
11
35.5713725
21
4.4084253
0
LINE
8
layer1
10
35.5713725
20
4.4084253
11
35.6598716
21
4.3750772
0
LINE
8
layer1
10
35.6598716
20
4.3750772
11
35.7833236
21
4.2669851
0
LINE
8
layer1
10
35.7833236
20
4.2669851
11
35.9444565
21
4.1368565
0
LINE
8
layer1
10
35.9444565
20
4.1368565
11
36.1032333
21
4.0274115
0
LINE
8
layer1
10
36.1032333
20
4.0274115
11
36.2582325
21
3.9381849
0
LINE
8
layer1
10
36.2582325
20
3.9381849
11
36.4080451
21
3.8686489
0
LINE
8
layer1
10
36.4080451
20
3.8686489
11
36.5513131
21
3.8181806
0
LINE
8
layer1
10
36.5513131
20
3.8181806
11
36.6867115
21
3.7861036
0
LINE
8
layer1
10
36.6867115
20
3.7861036
11
36.8129806
21
3.7716473
0
LINE
8
layer1
10
36.8129806
20
3.7716473
11
36.9288957
21
3.7739594
0
LINE
8
layer1
10
36.9288957
20
3.7739594
11
37.0332876
21
3.7921283
0
LINE
8
layer1
10
37.0332876
20
3.7921283
11
37.1250631
21
3.8251784
0
LINE
8
layer1
10
37.1250631
20
3.8251784
11
37.2031703
21
3.8720734
0
LINE
8
layer1
10
37.2031703
20
3.8720734
11
37.2734911
21
3.939979
0
LINE
8
layer1
10
37.2734911
20
3.939979
11
37.4168322
21
4.1389649
0
LINE
8
layer1
10
37.4168322
20
4.1389649
11
37.6759911
21
4.4673739
0
LINE
8
layer1
10
37.6759911
20
4.4673739
11
37.9544084
21
4.7796232
0
LINE
8
layer1
10
37.9544084
20
4.7796232
11
38.1254803
21
4.9553402
0
LINE
8
layer1
10
38.1254803
20
4.9553402
11
38.1801432
21
5.0363844
0
LINE
8
layer1
10
38.1801432
20
5.0363844
11
38.2127626
21
5.1214481
0
LINE
8
layer1
10
38.2127626
20
5.1214481
11
38.2293739
21
5.2175685
0
LINE
8
layer1
10
38.2293739
20
5.2175685
11
38.2291394
21
5.3235294
0
LINE
8
layer1
10
38.2291394
20
5.3235294
11
38.2112879
21
5.438085
0
LINE
8
layer1
10
38.2112879
20
5.438085
11
38.1751248
21
5.5599254
0
LINE
8
layer1
10
38.1751248
20
5.5599254
11
38.1200234
21
5.6876968
0
LINE
8
layer1
10
38.1200234
20
5.6876968
11
38.0454437
21
5.8200245
0
LINE
8
layer1
10
38.0454437
20
5.8200245
11
37.9509494
21
5.9554863
0
LINE
8
layer1
10
37.9509494
20
5.9554863
11
37.836163
21
6.0926367
0
LINE
8
layer1
10
37.836163
20
6.0926367
11
37.7008094
21
6.2299963
0
LINE
8
layer1
10
37.7008094
20
6.2299963
11
37.5446773
21
6.3660847
0
LINE
8
layer1
10
37.5446773
20
6.3660847
11
37.4167901
21
6.4688912
0
LINE
8
layer1
10
37.4167901
20
6.4688912
11
37.3685809
21
6.5502549
0
LINE
8
layer1
10
37.3685809
20
6.5502549
11
37.2900746
21
6.7083175
0
LINE
8
layer1
10
37.2900746
20
6.7083175
11
37.2028458
21
6.9281084
0
LINE
8
layer1
10
37.2028458
20
6.9281084
11
37.1171568
21
7.210781
0
LINE
8
layer1
10
37.1171568
20
7.210781
11
37.0778906
21
7.3765283
0
LINE
8
layer1
10
37.0778906
20
7.3765283
11
37.0429497
21
7.5574181
0
LINE
8
layer1
10
37.0429497
20
7.5574181
11
37.0131957
21
7.7556906
0
LINE
8
layer1
10
37.0131957
20
7.7556906
11
36.9904023
21
7.9677035
0
LINE
8
layer1
10
36.9904023
20
7.9677035
11
36.9754134
21
8.1968738
0
LINE
8
layer1
10
36.9754134
20
8.1968738
11
36.9696926
21
8.4405898
0
LINE
8
layer1
10
36.9696926
20
8.4405898
11
36.9744961
21
8.7007997
0
LINE
8
layer1
10
36.9744961
20
8.7007997
11
36.9910474
21
8.97431
0
LINE
8
layer1
10
36.9910474
20
8.97431
11
37.0171449
21
9.230579
0
ARC
8
layer1
10
43.0000424
20
-0.0000731
40
11
50
117.0504921
51
122.9495099
0
LINE
8
layer1
10
37.9975116
20
9.796594
11
38.2324959
21
9.6910606
0
LINE
8
layer1
10
38.2324959
20
9.6910606
11
38.4776384
21
9.5686393
0
LINE
8
layer1
10
38.4776384
20
9.5686393
11
38.7053885
21
9.4426943
0
LINE
8
layer1
10
38.7053885
20
9.4426943
11
38.9135924
21
9.3158819
0
LINE
8
layer1
10
38.9135924
20
9.3158819
11
39.1045653
21
9.188316
0
LINE
8
layer1
10
39.1045653
20
9.188316
11
39.2767771
21
9.0625699
0
LINE
8
layer1
10
39.2767771
20
9.0625699
11
39.4336091
21
8.9376659
0
LINE
8
layer1
10
39.4336091
20
8.9376659
11
39.5727938
21
8.8169613
0
LINE
8
layer1
10
39.5727938
20
8.8169613
11
39.6967021
21
8.7000821
0
LINE
8
layer1
10
39.6967021
20
8.7000821
11
39.8986593
21
8.484537
0
LINE
8
layer1
10
39.8986593
20
8.484537
11
40.0453894
21
8.2990992
0
LINE
8
layer1
10
40.0453894
20
8.2990992
11
40.1430224
21
8.1520794
0
LINE
8
layer1
10
40.1430224
20
8.1520794
11
40.1893809
21
8.0696472
0
LINE
8
layer1
10
40.1893809
20
8.0696472
11
40.2144702
21
7.9074904
0
LINE
8
layer1
10
40.2144702
20
7.9074904
11
40.2542602
21
7.7042319
0
LINE
8
layer1
10
40.2542602
20
7.7042319
11
40.3055404
21
7.5183324
0
LINE
8
layer1
10
40.3055404
20
7.5183324
11
40.3669229
21
7.3503493
0
LINE
8
layer1
10
40.3669229
20
7.3503493
11
40.4369891
21
7.2007839
0
LINE
8
layer1
10
40.4369891
20
7.2007839
11
40.5142984
21
7.0700321
0
LINE
8
layer1
10
40.5142984
20
7.0700321
11
40.5974009
21
6.9584272
0
LINE
8
layer1
10
40.5974009
20
6.9584272
11
40.6848363
21
6.8661889
0
LINE
8
layer1
10
40.6848363
20
6.8661889
11
40.7751186
21
6.7934512
0
LINE
8
layer1
10
40.7751186
20
6.7934512
11
40.8667662
21
6.7402676
0
LINE
8
layer1
10
40.8667662
20
6.7402676
11
40.9583145
21
6.7065933
0
LINE
8
layer1
10
40.9583145
20
6.7065933
11
41.0482916
21
6.6923106
0
LINE
8
layer1
10
41.0482916
20
6.6923106
11
41.1458093
21
6.699128
0
LINE
8
layer1
10
41.1458093
20
6.699128
11
41.3835207
21
6.7594221
0
LINE
8
layer1
10
41.3835207
20
6.7594221
11
41.7931452
21
6.8444139
0
LINE
8
layer1
10
41.7931452
20
6.8444139
11
42.2071351
21
6.9046476
0
LINE
8
layer1
10
42.2071351
20
6.9046476
11
42.4511326
21
6.9292917
0
LINE
8
layer1
10
42.4511326
20
6.9292917
11
42.5451009
21
6.9562385
0
LINE
8
layer1
10
42.5451009
20
6.9562385
11
42.6247668
21
7.0004338
0
LINE
8
layer1
10
42.6247668
20
7.0004338
11
42.6992768
21
7.0633887
0
LINE
8
layer1
10
42.6992768
20
7.0633887
11
42.7672075
21
7.1447102
0
LINE
8
layer1
10
42.7672075
20
7.1447102
11
42.8271674
21
7.2439396
0
LINE
8
layer1
10
42.8271674
20
7.2439396
11
42.8777824
21
7.36052
0
LINE
8
layer1
10
42.8777824
20
7.36052
11
42.917702
21
7.493817
0
LINE
8
layer1
10
42.917702
20
7.493817
11
42.9456293
21
7.6431249
0
LINE
8
layer1
10
42.9456293
20
7.6431249
11
42.9603156
21
7.8076344
0
LINE
8
layer1
10
42.9603156
20
7.8076344
11
42.9605427
21
7.9864809
0
LINE
8
layer1
10
42.9605427
20
7.9864809
11
42.9451489
21
8.1787082
0
LINE
8
layer1
10
42.9451489
20
8.1787082
11
42.9130208
21
8.3833176
0
LINE
8
layer1
10
42.9130208
20
8.3833176
11
42.8811362
21
8.5442763
0
LINE
8
layer1
10
42.8811362
20
8.5442763
11
42.8965054
21
8.6375928
0
LINE
8
layer1
10
42.8965054
20
8.6375928
11
42.9379667
21
8.8091386
0
LINE
8
layer1
10
42.9379667
20
8.8091386
11
43.0124244
21
9.0335778
0
LINE
8
layer1
10
43.0124244
20
9.0335778
11
43.1284813
21
9.3051974
0
LINE
8
layer1
10
43.1284813
20
9.3051974
11
43.204942
21
9.4574071
0
LINE
8
layer1
10
43.204942
20
9.4574071
11
43.2944494
21
9.6184363
0
LINE
8
layer1
10
43.2944494
20
9.6184363
11
43.3991036
21
9.7894473
0
LINE
8
layer1
10
43.3991036
20
9.7894473
11
43.5179221
21
9.9665099
0
LINE
8
layer1
10
43.5179221
20
9.9665099
11
43.6537478
21
10.1516992
0
LINE
8
layer1
10
43.6537478
20
10.1516992
11
43.806023
21
10.3420738
0
LINE
8
layer1
10
43.806023
20
10.3420738
11
43.9769625
21
10.5383185
0
LINE
8
layer1
10
43.9769625
20
10.5383185
11
44.1654505
21
10.7372006
0
LINE
8
layer1
10
44.1654505
20
10.7372006
11
44.3501689
21
10.9167389
0
ARC
8
layer1
10
42.9999857
20
-0.0000832
40
11
50
77.0504932
51
82.949511
0
LINE
8
layer1
10
45.4650008
20
10.7201639
11
45.5771736
21
10.4882757
0
LINE
8
layer1
10
45.5771736
20
10.4882757
11
45.6862728
21
10.236921
0
LINE
8
layer1
10
45.6862728
20
10.236921
11
45.7797837
21
9.9940465
0
LINE
8
layer1
10
45.7797837
20
9.9940465
11
45.8577636
21
9.7630718
0
LINE
8
layer1
10
45.8577636
20
9.7630718
11
45.9220596
21
9.5425956
0
LINE
8
layer1
10
45.9220596
20
9.5425956
11
45.9731535
21
9.3355729
0
LINE
8
layer1
10
45.9731535
20
9.3355729
11
46.013007
21
9.1390812
0
LINE
8
layer1
10
46.013007
20
9.1390812
11
46.0420412
21
8.9571499
0
LINE
8
layer1
10
46.0420412
20
8.9571499
11
46.061832
21
8.7879685
0
LINE
8
layer1
10
46.061832
20
8.7879685
11
46.0779904
21
8.4930358
0
LINE
8
layer1
10
46.0779904
20
8.4930358
11
46.0711951
21
8.2566659
0
LINE
8
layer1
10
46.0711951
20
8.2566659
11
46.0514838
21
8.081285
0
LINE
8
layer1
10
46.0514838
20
8.081285
11
46.03401
21
7.9883395
0
LINE
8
layer1
10
46.03401
20
7.9883395
11
45.9489973
21
7.8479931
0
LINE
8
layer1
10
45.9489973
20
7.8479931
11
45.8488261
21
7.6667115
0
LINE
8
layer1
10
45.8488261
20
7.6667115
11
45.7686151
21
7.491342
0
LINE
8
layer1
10
45.7686151
20
7.491342
11
45.7076594
21
7.3232036
0
LINE
8
layer1
10
45.7076594
20
7.3232036
11
45.6651944
21
7.1635922
0
LINE
8
layer1
10
45.6651944
20
7.1635922
11
45.6403712
21
7.013737
0
LINE
8
layer1
10
45.6403712
20
7.013737
11
45.6322931
21
6.8748254
0
LINE
8
layer1
10
45.6322931
20
6.8748254
11
45.6399828
21
6.7479644
0
LINE
8
layer1
10
45.6399828
20
6.7479644
11
45.6623882
21
6.6342117
0
LINE
8
layer1
10
45.6623882
20
6.6342117
11
45.6984086
21
6.5345608
0
LINE
8
layer1
10
45.6984086
20
6.5345608
11
45.7468932
21
6.4499186
0
LINE
8
layer1
10
45.7468932
20
6.4499186
11
45.806639
21
6.3811413
0
LINE
8
layer1
10
45.806639
20
6.3811413
11
45.885724
21
6.3236806
0
LINE
8
layer1
10
45.885724
20
6.3236806
11
46.1065778
21
6.2170706
0
LINE
8
layer1
10
46.1065778
20
6.2170706
11
46.475
21
6.0188766
0
LINE
8
layer1
10
46.475
20
6.0188766
11
46.8308522
21
5.7989106
0
LINE
8
layer1
10
46.8308522
20
5.7989106
11
47.033606
21
5.6609506
0
LINE
8
layer1
10
47.033606
20
5.6609506
11
47.122911
21
5.6211913
0
LINE
8
layer1
10
47.122911
20
5.6211913
11
47.2123468
21
5.6038386
0
LINE
8
layer1
10
47.2123468
20
5.6038386
11
47.3098914
21
5.6041708
0
LINE
8
layer1
10
47.3098914
20
5.6041708
11
47.4142018
21
5.6228017
0
LINE
8
layer1
10
47.4142018
20
5.6228017
11
47.5239172
21
5.6602744
0
LINE
8
layer1
10
47.5239172
20
5.6602744
11
47.6376269
21
5.7170454
0
LINE
8
layer1
10
47.6376269
20
5.7170454
11
47.7538888
21
5.793497
0
LINE
8
layer1
10
47.7538888
20
5.793497
11
47.8712556
21
5.8899222
0
LINE
8
layer1
10
47.8712556
20
5.8899222
11
47.9882506
21
6.0065036
0
LINE
8
layer1
10
47.9882506
20
6.0065036
11
48.1033849
21
6.143362
0
LINE
8
layer1
10
48.1033849
20
6.143362
11
48.2151539
21
6.3005115
0
LINE
8
layer1
10
48.2151539
20
6.3005115
11
48.3220627
21
6.4779031
0
LINE
8
layer1
10
48.3220627
20
6.4779031
11
48.4011
21
6.6216995
0
LINE
8
layer1
10
48.4011
20
6.6216995
11
48.4728562
21
6.683305
0
LINE
8
layer1
10
48.4728562
20
6.683305
11
48.6148849
21
6.7880659
0
LINE
8
layer1
10
48.6148849
20
6.7880659
11
48.8161896
21
6.9121358
0
LINE
8
layer1
10
48.8161896
20
6.9121358
11
49.079688
21
7.0456085
0
LINE
8
layer1
10
49.079688
20
7.0456085
11
49.2360988
21
7.1130599
0
LINE
8
layer1
10
49.2360988
20
7.1130599
11
49.408173
21
7.1788812
0
LINE
8
layer1
10
49.408173
20
7.1788812
11
49.5982665
21
7.2426129
0
LINE
8
layer1
10
49.5982665
20
7.2426129
11
49.8031004
21
7.3018756
0
LINE
8
layer1
10
49.8031004
20
7.3018756
11
50.0261864
21
7.3564318
0
LINE
8
layer1
10
50.0261864
20
7.3564318
11
50.2652063
21
7.4043865
0
LINE
8
layer1
10
50.2652063
20
7.4043865
11
50.5222972
21
7.444841
0
LINE
8
layer1
10
50.5222972
20
7.444841
11
50.7945264
21
7.4760357
0
LINE
8
layer1
10
50.7945264
20
7.4760357
11
51.0514339
21
7.4948353
0
ARC
8
layer1
10
42.999935
20
-0.000054
40
11
50
37.0504889
51
42.9495067
0
LINE
8
layer1
10
51.7790887
20
6.62765
11
51.7159632
21
6.37791
0
LINE
8
layer1
10
51.7159632
20
6.37791
11
51.6379703
21
6.1152335
0
LINE
8
layer1
10
51.6379703
20
6.1152335
11
51.5534871
21
5.8690733
0
LINE
8
layer1
10
51.5534871
20
5.8690733
11
51.4647555
21
5.6420118
0
LINE
8
layer1
10
51.4647555
20
5.6420118
11
51.3722897
21
5.4317887
0
LINE
8
layer1
10
51.3722897
20
5.4317887
11
51.2783583
21
5.2403575
0
LINE
8
layer1
10
51.2783583
20
5.2403575
11
51.1825854
21
5.0642188
0
LINE
8
layer1
10
51.1825854
20
5.0642188
11
51.0878838
21
4.9061885
0
LINE
8
layer1
10
51.0878838
20
4.9061885
11
50.9942967
21
4.7638668
0
LINE
8
layer1
10
50.9942967
20
4.7638668
11
50.8170957
21
4.5275488
0
LINE
8
layer1
10
50.8170957
20
4.5275488
11
50.6599545
21
4.3508469
0
LINE
8
layer1
10
50.6599545
20
4.3508469
11
50.5321221
21
4.2291675
0
LINE
8
layer1
10
50.5321221
20
4.2291675
11
50.4589922
21
4.1691991
0
LINE
8
layer1
10
50.4589922
20
4.1691991
11
50.3036557
21
4.1163326
0
LINE
8
layer1
10
50.3036557
20
4.1163326
11
50.1103946
21
4.0418517
0
LINE
8
layer1
10
50.1103946
20
4.0418517
11
49.936224
21
3.9590694
0
LINE
8
layer1
10
49.936224
20
3.9590694
11
49.7814519
21
3.8694495
0
LINE
8
layer1
10
49.7814519
20
3.8694495
11
49.6463257
21
3.774476
0
LINE
8
layer1
10
49.6463257
20
3.774476
11
49.5309849
21
3.6756364
0
LINE
8
layer1
10
49.5309849
20
3.6756364
11
49.4355061
21
3.5744164
0
LINE
8
layer1
10
49.4355061
20
3.5744164
11
49.3598521
21
3.4722924
0
LINE
8
layer1
10
49.3598521
20
3.4722924
11
49.3038968
21
3.3707508
0
LINE
8
layer1
10
49.3038968
20
3.3707508
11
49.2674357
21
3.2712604
0
LINE
8
layer1
10
49.2674357
20
3.2712604
11
49.2501701
21
3.1752554
0
LINE
8
layer1
10
49.2501701
20
3.1752554
11
49.2517288
21
3.0841651
0
LINE
8
layer1
10
49.2517288
20
3.0841651
11
49.2753763
21
2.9893127
0
LINE
8
layer1
10
49.2753763
20
2.9893127
11
49.3760326
21
2.7656827
0
LINE
8
layer1
10
49.3760326
20
2.7656827
11
49.5308637
21
2.37704
0
LINE
8
layer1
10
49.5308637
20
2.37704
11
49.6620709
21
1.9797989
0
LINE
8
layer1
10
49.6620709
20
1.9797989
11
49.7287104
21
1.7437877
0
LINE
8
layer1
10
49.7287104
20
1.7437877
11
49.7715652
21
1.6559263
0
LINE
8
layer1
10
49.7715652
20
1.6559263
11
49.8289229
21
1.5851451
0
LINE
8
layer1
10
49.8289229
20
1.5851451
11
49.9038599
21
1.5226992
0
LINE
8
layer1
10
49.9038599
20
1.5226992
11
49.995742
21
1.4699218
0
LINE
8
layer1
10
49.995742
20
1.4699218
11
50.1038759
21
1.4281038
0
LINE
8
layer1
10
50.1038759
20
1.4281038
11
50.2274743
21
1.3985018
0
LINE
8
layer1
10
50.2274743
20
1.3985018
11
50.3656782
21
1.3823353
0
LINE
8
layer1
10
50.3656782
20
1.3823353
11
50.5175672
21
1.3807594
0
LINE
8
layer1
10
50.5175672
20
1.3807594
11
50.6821278
21
1.394863
0
LINE
8
layer1
10
50.6821278
20
1.394863
11
50.8582966
21
1.4256957
0
LINE
8
layer1
10
50.8582966
20
1.4256957
11
51.0449304
21
1.4742355
0
LINE
8
layer1
10
51.0449304
20
1.4742355
11
51.2408524
21
1.5414057
0
LINE
8
layer1
10
51.2408524
20
1.5414057
11
51.393829
21
1.600756
0
LINE
8
layer1
10
51.393829
20
1.600756
11
51.4883967
21
1.6018245
0
LINE
8
layer1
10
51.4883967
20
1.6018245
11
51.6645361
21
1.5907817
0
LINE
8
layer1
10
51.6645361
20
1.5907817
11
51.898495
21
1.5564287
0
LINE
8
layer1
10
51.898495
20
1.5564287
11
52.1861411
21
1.4893011
0
LINE
8
layer1
10
52.1861411
20
1.4893011
11
52.3493156
21
1.440433
0
LINE
8
layer1
10
52.3493156
20
1.440433
11
52.5234412
21
1.3802479
0
LINE
8
layer1
10
52.5234412
20
1.3802479
11
52.7100272
21
1.3068794
0
LINE
8
layer1
10
52.7100272
20
1.3068794
11
52.9050325
21
1.2206126
0
LINE
8
layer1
10
52.9050325
20
1.2206126
11
53.1109942
21
1.1190081
0
LINE
8
layer1
10
53.1109942
20
1.1190081
11
53.3249189
21
1.0021045
0
LINE
8
layer1
10
53.3249189
20
1.0021045
11
53.5478655
21
0.8678396
0
LINE
8
layer1
10
53.5478655
20
0.8678396
11
53.7764567
21
0.7167506
0
LINE
8
layer1
10
53.7764567
20
0.7167506
11
53.9853434
21
0.566015
0
ARC
8
layer1
10
42.9999155
20
0
40
11
50
357.050491
51
362.949509
0
LINE
8
layer1
10
53.9853434
20
-0.566015
11
53.7764567
21
-0.7167506
0
LINE
8
layer1
10
53.7764567
20
-0.7167506
11
53.5478655
21
-0.8678396
0
LINE
8
layer1
10
53.5478655
20
-0.8678396
11
53.3249189
21
-1.0021045
0
LINE
8
layer1
10
53.3249189
20
-1.0021045
11
53.1109942
21
-1.1190081
0
LINE
8
layer1
10
53.1109942
20
-1.1190081
11
52.9050325
21
-1.2206126
0
LINE
8
layer1
10
52.9050325
20
-1.2206126
11
52.7100272
21
-1.3068794
0
LINE
8
layer1
10
52.7100272
20
-1.3068794
11
52.5234412
21
-1.3802479
0
LINE
8
layer1
10
52.5234412
20
-1.3802479
11
52.3493156
21
-1.440433
0
LINE
8
layer1
10
52.3493156
20
-1.440433
11
52.1861411
21
-1.4893011
0
LINE
8
layer1
10
52.1861411
20
-1.4893011
11
51.898495
21
-1.5564287
0
LINE
8
layer1
10
51.898495
20
-1.5564287
11
51.6645361
21
-1.5907817
0
LINE
8
layer1
10
51.6645361
20
-1.5907817
11
51.4883967
21
-1.6018245
0
LINE
8
layer1
10
51.4883967
20
-1.6018245
11
51.393829
21
-1.600756
0
LINE
8
layer1
10
51.393829
20
-1.600756
11
51.2408524
21
-1.5414057
0
LINE
8
layer1
10
51.2408524
20
-1.5414057
11
51.0449304
21
-1.4742355
0
LINE
8
layer1
10
51.0449304
20
-1.4742355
11
50.8582966
21
-1.4256957
0
LINE
8
layer1
10
50.8582966
20
-1.4256957
11
50.6821278
21
-1.394863
0
LINE
8
layer1
10
50.6821278
20
-1.394863
11
50.5175672
21
-1.3807594
0
LINE
8
layer1
10
50.5175672
20
-1.3807594
11
50.3656782
21
-1.3823353
0
LINE
8
layer1
10
50.3656782
20
-1.3823353
11
50.2274743
21
-1.3985018
0
LINE
8
layer1
10
50.2274743
20
-1.3985018
11
50.1038759
21
-1.4281038
0
LINE
8
layer1
10
50.1038759
20
-1.4281038
11
49.995742
21
-1.4699218
0
LINE
8
layer1
10
49.995742
20
-1.4699218
11
49.9038599
21
-1.5226992
0
LINE
8
layer1
10
49.9038599
20
-1.5226992
11
49.8289229
21
-1.5851451
0
LINE
8
layer1
10
49.8289229
20
-1.5851451
11
49.7715652
21
-1.6559263
0
LINE
8
layer1
10
49.7715652
20
-1.6559263
11
49.7287104
21
-1.7437877
0
LINE
8
layer1
10
49.7287104
20
-1.7437877
11
49.6620709
21
-1.9797989
0
LINE
8
layer1
10
49.6620709
20
-1.9797989
11
49.5308637
21
-2.37704
0
LINE
8
layer1
10
49.5308637
20
-2.37704
11
49.3760326
21
-2.7656827
0
LINE
8
layer1
10
49.3760326
20
-2.7656827
11
49.2753763
21
-2.9893127
0
LINE
8
layer1
10
49.2753763
20
-2.9893127
11
49.2517288
21
-3.0841651
0
LINE
8
layer1
10
49.2517288
20
-3.0841651
11
49.2501701
21
-3.1752554
0
LINE
8
layer1
10
49.2501701
20
-3.1752554
11
49.2674357
21
-3.2712604
0
LINE
8
layer1
10
49.2674357
20
-3.2712604
11
49.3038968
21
-3.3707508
0
LINE
8
layer1
10
49.3038968
20
-3.3707508
11
49.3598521
21
-3.4722924
0
LINE
8
layer1
10
49.3598521
20
-3.4722924
11
49.4355061
21
-3.5744164
0
LINE
8
layer1
10
49.4355061
20
-3.5744164
11
49.5309849
21
-3.6756364
0
LINE
8
layer1
10
49.5309849
20
-3.6756364
11
49.6463257
21
-3.774476
0
LINE
8
layer1
10
49.6463257
20
-3.774476
11
49.7814519
21
-3.8694495
0
LINE
8
layer1
10
49.7814519
20
-3.8694495
11
49.936224
21
-3.9590694
0
LINE
8
layer1
10
49.936224
20
-3.9590694
11
50.1103946
21
-4.0418517
0
LINE
8
layer1
10
50.1103946
20
-4.0418517
11
50.3036557
21
-4.1163326
0
LINE
8
layer1
10
50.3036557
20
-4.1163326
11
50.4589922
21
-4.1691991
0
LINE
8
layer1
10
50.4589922
20
-4.1691991
11
50.5321221
21
-4.2291675
0
LINE
8
layer1
10
50.5321221
20
-4.2291675
11
50.6599545
21
-4.3508469
0
LINE
8
layer1
10
50.6599545
20
-4.3508469
11
50.8170957
21
-4.5275488
0
LINE
8
layer1
10
50.8170957
20
-4.5275488
11
50.9942967
21
-4.7638668
0
LINE
8
layer1
10
50.9942967
20
-4.7638668
11
51.0878838
21
-4.9061885
0
LINE
8
layer1
10
51.0878838
20
-4.9061885
11
51.1825854
21
-5.0642188
0
LINE
8
layer1
10
51.1825854
20
-5.0642188
11
51.2783583
21
-5.2403575
0
LINE
8
layer1
10
51.2783583
20
-5.2403575
11
51.3722897
21
-5.4317887
0
LINE
8
layer1
10
51.3722897
20
-5.4317887
11
51.4647555
21
-5.6420118
0
LINE
8
layer1
10
51.4647555
20
-5.6420118
11
51.5534871
21
-5.8690733
0
LINE
8
layer1
10
51.5534871
20
-5.8690733
11
51.6379703
21
-6.1152335
0
LINE
8
layer1
10
51.6379703
20
-6.1152335
11
51.7159632
21
-6.37791
0
LINE
8
layer1
10
51.7159632
20
-6.37791
11
51.7790887
21
-6.62765
0
ARC
8
layer1
10
42.9999349
20
0.0000539
40
11
50
317.050494
51
322.9495118
0
LINE
8
layer1
10
51.0514339
20
-7.4948353
11
50.7945264
21
-7.4760357
0
LINE
8
layer1
10
50.7945264
20
-7.4760357
11
50.5222972
21
-7.444841
0
LINE
8
layer1
10
50.5222972
20
-7.444841
11
50.2652063
21
-7.4043865
0
LINE
8
layer1
10
50.2652063
20
-7.4043865
11
50.0261864
21
-7.3564318
0
LINE
8
layer1
10
50.0261864
20
-7.3564318
11
49.8031004
21
-7.3018756
0
LINE
8
layer1
10
49.8031004
20
-7.3018756
11
49.5982665
21
-7.2426129
0
LINE
8
layer1
10
49.5982665
20
-7.2426129
11
49.408173
21
-7.1788812
0
LINE
8
layer1
10
49.408173
20
-7.1788812
11
49.2360988
21
-7.1130599
0
LINE
8
layer1
10
49.2360988
20
-7.1130599
11
49.079688
21
-7.0456085
0
LINE
8
layer1
10
49.079688
20
-7.0456085
11
48.8161896
21
-6.9121358
0
LINE
8
layer1
10
48.8161896
20
-6.9121358
11
48.6148849
21
-6.7880659
0
LINE
8
layer1
10
48.6148849
20
-6.7880659
11
48.4728562
21
-6.683305
0
LINE
8
layer1
10
48.4728562
20
-6.683305
11
48.4011
21
-6.6216995
0
LINE
8
layer1
10
48.4011
20
-6.6216995
11
48.3220627
21
-6.4779031
0
LINE
8
layer1
10
48.3220627
20
-6.4779031
11
48.2151539
21
-6.3005115
0
LINE
8
layer1
10
48.2151539
20
-6.3005115
11
48.1033849
21
-6.143362
0
LINE
8
layer1
10
48.1033849
20
-6.143362
11
47.9882506
21
-6.0065036
0
LINE
8
layer1
10
47.9882506
20
-6.0065036
11
47.8712556
21
-5.8899222
0
LINE
8
layer1
10
47.8712556
20
-5.8899222
11
47.7538888
21
-5.793497
0
LINE
8
layer1
10
47.7538888
20
-5.793497
11
47.6376269
21
-5.7170454
0
LINE
8
layer1
10
47.6376269
20
-5.7170454
11
47.5239172
21
-5.6602744
0
LINE
8
layer1
10
47.5239172
20
-5.6602744
11
47.4142018
21
-5.6228017
0
LINE
8
layer1
10
47.4142018
20
-5.6228017
11
47.3098914
21
-5.6041708
0
LINE
8
layer1
10
47.3098914
20
-5.6041708
11
47.2123468
21
-5.6038386
0
LINE
8
layer1
10
47.2123468
20
-5.6038386
11
47.122911
21
-5.6211913
0
LINE
8
layer1
10
47.122911
20
-5.6211913
11
47.033606
21
-5.6609506
0
LINE
8
layer1
10
47.033606
20
-5.6609506
11
46.8308522
21
-5.7989106
0
LINE
8
layer1
10
46.8308522
20
-5.7989106
11
46.475
21
-6.0188766
0
LINE
8
layer1
10
46.475
20
-6.0188766
11
46.1065778
21
-6.2170706
0
LINE
8
layer1
10
46.1065778
20
-6.2170706
11
45.885724
21
-6.3236806
0
LINE
8
layer1
10
45.885724
20
-6.3236806
11
45.806639
21
-6.3811413
0
LINE
8
layer1
10
45.806639
20
-6.3811413
11
45.7468932
21
-6.4499186
0
LINE
8
layer1
10
45.7468932
20
-6.4499186
11
45.6984086
21
-6.5345608
0
LINE
8
layer1
10
45.6984086
20
-6.5345608
11
45.6623882
21
-6.6342117
0
LINE
8
layer1
10
45.6623882
20
-6.6342117
11
45.6399828
21
-6.7479644
0
LINE
8
layer1
10
45.6399828
20
-6.7479644
11
45.6322931
21
-6.8748254
0
LINE
8
layer1
10
45.6322931
20
-6.8748254
11
45.6403712
21
-7.013737
0
LINE
8
layer1
10
45.6403712
20
-7.013737
11
45.6651944
21
-7.1635922
0
LINE
8
layer1
10
45.6651944
20
-7.1635922
11
45.7076594
21
-7.3232036
0
LINE
8
layer1
10
45.7076594
20
-7.3232036
11
45.7686151
21
-7.491342
0
LINE
8
layer1
10
45.7686151
20
-7.491342
11
45.8488261
21
-7.6667115
0
LINE
8
layer1
10
45.8488261
20
-7.6667115
11
45.9489973
21
-7.8479931
0
LINE
8
layer1
10
45.9489973
20
-7.8479931
11
46.03401
21
-7.9883395
0
LINE
8
layer1
10
46.03401
20
-7.9883395
11
46.0514838
21
-8.081285
0
LINE
8
layer1
10
46.0514838
20
-8.081285
11
46.0711951
21
-8.2566659
0
LINE
8
layer1
10
46.0711951
20
-8.2566659
11
46.0779904
21
-8.4930358
0
LINE
8
layer1
10
46.0779904
20
-8.4930358
11
46.061832
21
-8.7879685
0
LINE
8
layer1
10
46.061832
20
-8.7879685
11
46.0420412
21
-8.9571499
0
LINE
8
layer1
10
46.0420412
20
-8.9571499
11
46.013007
21
-9.1390812
0
LINE
8
layer1
10
46.013007
20
-9.1390812
11
45.9731535
21
-9.3355729
0
LINE
8
layer1
10
45.9731535
20
-9.3355729
11
45.9220596
21
-9.5425956
0
LINE
8
layer1
10
45.9220596
20
-9.5425956
11
45.8577636
21
-9.7630718
0
LINE
8
layer1
10
45.8577636
20
-9.7630718
11
45.7797837
21
-9.9940465
0
LINE
8
layer1
10
45.7797837
20
-9.9940465
11
45.6862728
21
-10.236921
0
LINE
8
layer1
10
45.6862728
20
-10.236921
11
45.5771736
21
-10.4882757
0
LINE
8
layer1
10
45.5771736
20
-10.4882757
11
45.4650008
21
-10.7201639
0
ARC
8
layer1
10
42.9999857
20
0.0000833
40
11
50
277.050489
51
282.9495068
0
LINE
8
layer1
10
44.3501689
20
-10.9167389
11
44.1654505
21
-10.7372006
0
LINE
8
layer1
10
44.1654505
20
-10.7372006
11
43.9769625
21
-10.5383185
0
LINE
8
layer1
10
43.9769625
20
-10.5383185
11
43.806023
21
-10.3420738
0
LINE
8
layer1
10
43.806023
20
-10.3420738
11
43.6537478
21
-10.1516992
0
LINE
8
layer1
10
43.6537478
20
-10.1516992
11
43.5179221
21
-9.9665099
0
LINE
8
layer1
10
43.5179221
20
-9.9665099
11
43.3991036
21
-9.7894473
0
LINE
8
layer1
10
43.3991036
20
-9.7894473
11
43.2944494
21
-9.6184363
0
LINE
8
layer1
10
43.2944494
20
-9.6184363
11
43.204942
21
-9.4574071
0
LINE
8
layer1
10
43.204942
20
-9.4574071
11
43.1284813
21
-9.3051974
0
LINE
8
layer1
10
43.1284813
20
-9.3051974
11
43.0124244
21
-9.0335778
0
LINE
8
layer1
10
43.0124244
20
-9.0335778
11
42.9379667
21
-8.8091386
0
LINE
8
layer1
10
42.9379667
20
-8.8091386
11
42.8965054
21
-8.6375928
0
LINE
8
layer1
10
42.8965054
20
-8.6375928
11
42.8811362
21
-8.5442763
0
LINE
8
layer1
10
42.8811362
20
-8.5442763
11
42.9130208
21
-8.3833176
0
LINE
8
layer1
10
42.9130208
20
-8.3833176
11
42.9451489
21
-8.1787082
0
LINE
8
layer1
10
42.9451489
20
-8.1787082
11
42.9605427
21
-7.9864809
0
LINE
8
layer1
10
42.9605427
20
-7.9864809
11
42.9603156
21
-7.8076344
0
LINE
8
layer1
10
42.9603156
20
-7.8076344
11
42.9456293
21
-7.6431249
0
LINE
8
layer1
10
42.9456293
20
-7.6431249
11
42.917702
21
-7.493817
0
LINE
8
layer1
10
42.917702
20
-7.493817
11
42.8777824
21
-7.36052
0
LINE
8
layer1
10
42.8777824
20
-7.36052
11
42.8271674
21
-7.2439396
0
LINE
8
layer1
10
42.8271674
20
-7.2439396
11
42.7672075
21
-7.1447102
0
LINE
8
layer1
10
42.7672075
20
-7.1447102
11
42.6992768
21
-7.0633887
0
LINE
8
layer1
10
42.6992768
20
-7.0633887
11
42.6247668
21
-7.0004338
0
LINE
8
layer1
10
42.6247668
20
-7.0004338
11
42.5451009
21
-6.9562385
0
LINE
8
layer1
10
42.5451009
20
-6.9562385
11
42.4511326
21
-6.9292917
0
LINE
8
layer1
10
42.4511326
20
-6.9292917
11
42.2071351
21
-6.9046476
0
LINE
8
layer1
10
42.2071351
20
-6.9046476
11
41.7931452
21
-6.8444139
0
LINE
8
layer1
10
41.7931452
20
-6.8444139
11
41.3835207
21
-6.7594221
0
LINE
8
layer1
10
41.3835207
20
-6.7594221
11
41.1458093
21
-6.699128
0
LINE
8
layer1
10
41.1458093
20
-6.699128
11
41.0482916
21
-6.6923106
0
LINE
8
layer1
10
41.0482916
20
-6.6923106
11
40.9583145
21
-6.7065933
0
LINE
8
layer1
10
40.9583145
20
-6.7065933
11
40.8667662
21
-6.7402676
0
LINE
8
layer1
10
40.8667662
20
-6.7402676
11
40.7751186
21
-6.7934512
0
LINE
8
layer1
10
40.7751186
20
-6.7934512
11
40.6848363
21
-6.8661889
0
LINE
8
layer1
10
40.6848363
20
-6.8661889
11
40.5974009
21
-6.9584272
0
LINE
8
layer1
10
40.5974009
20
-6.9584272
11
40.5142984
21
-7.0700321
0
LINE
8
layer1
10
40.5142984
20
-7.0700321
11
40.4369891
21
-7.2007839
0
LINE
8
layer1
10
40.4369891
20
-7.2007839
11
40.3669229
21
-7.3503493
0
LINE
8
layer1
10
40.3669229
20
-7.3503493
11
40.3055404
21
-7.5183324
0
LINE
8
layer1
10
40.3055404
20
-7.5183324
11
40.2542602
21
-7.7042319
0
LINE
8
layer1
10
40.2542602
20
-7.7042319
11
40.2144702
21
-7.9074904
0
LINE
8
layer1
10
40.2144702
20
-7.9074904
11
40.1893809
21
-8.0696472
0
LINE
8
layer1
10
40.1893809
20
-8.0696472
11
40.1430224
21
-8.1520794
0
LINE
8
layer1
10
40.1430224
20
-8.1520794
11
40.0453894
21
-8.2990992
0
LINE
8
layer1
10
40.0453894
20
-8.2990992
11
39.8986593
21
-8.484537
0
LINE
8
layer1
10
39.8986593
20
-8.484537
11
39.6967021
21
-8.7000821
0
LINE
8
layer1
10
39.6967021
20
-8.7000821
11
39.5727938
21
-8.8169613
0
LINE
8
layer1
10
39.5727938
20
-8.8169613
11
39.4336091
21
-8.9376659
0
LINE
8
layer1
10
39.4336091
20
-8.9376659
11
39.2767771
21
-9.0625699
0
LINE
8
layer1
10
39.2767771
20
-9.0625699
11
39.1045653
21
-9.188316
0
LINE
8
layer1
10
39.1045653
20
-9.188316
11
38.9135924
21
-9.3158819
0
LINE
8
layer1
10
38.9135924
20
-9.3158819
11
38.7053885
21
-9.4426943
0
LINE
8
layer1
10
38.7053885
20
-9.4426943
11
38.4776384
21
-9.5686393
0
LINE
8
layer1
10
38.4776384
20
-9.5686393
11
38.2324959
21
-9.6910606
0
LINE
8
layer1
10
38.2324959
20
-9.6910606
11
37.9975116
21
-9.796594
0
ARC
8
layer1
10
43.0000424
20
0.0000731
40
11
50
237.0504901
51
242.9495079
0
LINE
8
layer1
10
37.0171449
20
-9.230579
11
36.9910474
21
-8.97431
0
ENDSEC
0
EOF