0
SECTION
2
HEADER
9
$INSUNITS
70
4
9
$ACADVER
1
AC1014
9
$HANDSEED
5
FFFF
0
ENDSEC
0
SECTION
2
TABLES
0
TABLE
2
VPORT
5
8
100
AcDbSymbolTable
0
ENDTAB
0
TABLE
2
LTYPE
5
5
100
AcDbSymbolTable
0
LTYPE
5
14
100
AcDbSymbolTableRecord
100
AcDbLinetypeTableRecord
2
BYBLOCK
70
0
0
LTYPE
5
15
100
AcDbSymbolTableRecord
100
AcDbLinetypeTableRecord
2
BYLAYER
70
0
0
ENDTAB
0
TABLE
2
LAYER
5
2
100
AcDbSymbolTable
70
2
0
LAYER
5
50
100
AcDbSymbolTableRecord
100
AcDbLayerTableRecord
2
0
70
0
6
CONTINUOUS
0
ENDTAB
0
TABLE
2
STYLE
5
3
100
AcDbSymbolTable
70
1
0
STYLE
5
11
100
AcDbSymbolTableRecord
100
AcDbTextStyleTableRecord
2
STANDARD
70
0
0
ENDTAB
0
TABLE
2
VIEW
5
6
100
AcDbSymbolTable
70
0
0
ENDTAB
0
TABLE
2
UCS
5
7
100
AcDbSymbolTable
70
0
0
ENDTAB
0
TABLE
2
APPID
5
9
100
AcDbSymbolTable
70
2
0
APPID
5
12
100
AcDbSymbolTableRecord
100
AcDbRegAppTableRecord
2
ACAD
70
0
0
ENDTAB
0
TABLE
2
DIMSTYLE
5
A
100
AcDbSymbolTable
70
1
0
ENDTAB
0
TABLE
2
BLOCK_RECORD
5
1
100
AcDbSymbolTable
70
1
0
BLOCK_RECORD
5
1F
100
AcDbSymbolTableRecord
100
AcDbBlockTableRecord
2
*MODEL_SPACE
0
BLOCK_RECORD
5
1B
100
AcDbSymbolTableRecord
100
AcDbBlockTableRecord
2
*PAPER_SPACE
0
ENDTAB
0
ENDSEC
0
SECTION
2
BLOCKS
0
BLOCK
5
20
100
AcDbEntity
100
AcDbBlockBegin
2
*MODEL_SPACE
0
ENDBLK
5
21
100
AcDbEntity
100
AcDbBlockEnd
0
BLOCK
5
1C
100
AcDbEntity
100
AcDbBlockBegin
2
*PAPER_SPACE
0
ENDBLK
5
1D
100
AcDbEntity
100
AcDbBlockEnd
0
ENDSEC
0
SECTION
2
ENTITIES
0
ARC
5
100
100
AcDbEntity
8
0
100
AcDbCircle
10
-104.4307650382913
20
-571.40754155182947
30
0
40
2.8575000000000061
210
0
220
-0
230
1
100
AcDbArc
50
41.891214783640365
51
221.89121478363791
0
ARC
5
101
100
AcDbEntity
8
0
100
AcDbCircle
10
-104.4307650382915
20
452.91962651276691
30
0
40
2.8574999999999977
210
0
220
0
230
1
100
AcDbArc
50
138.10878521636127
51
318.10878521636351
0
ARC
5
102
100
AcDbEntity
8
0
100
AcDbCircle
10
-89.982923554263976
20
453.70431545521126
30
0
40
2.8574999999999977
210
0
220
0
230
1
100
AcDbArc
50
-131.89121478364376
51
48.10878521636144
0
ARC
5
103
100
AcDbEntity
8
0
100
AcDbCircle
10
-89.982923554263735
20
-572.19223049427387
30
0
40
2.8574999999999968
210
0
220
0
230
1
100
AcDbArc
50
-48.108785216360126
51
131.89121478363836
0
LINE
5
104
100
AcDbEntity
8
0
100
AcDbLine
10
-106.55792786293183
20
-573.31554694161935
30
0
11
-107.55219639548955
21
-591.62220754805435
31
0
0
LINE
5
105
100
AcDbEntity
8
0
100
AcDbLine
10
-88.074918164474042
20
455.83147827985181
30
0
11
-89.069188269356914
21
474.13816783623463
31
0
0
LINE
5
106
100
AcDbEntity
8
0
100
AcDbLine
10
-102.30360221365092
20
451.01162112297709
30
0
11
-91.890928944054053
21
451.57715263057094
31
0
0
SPLINE
5
107
100
AcDbEntity
8
0
100
AcDbSpline
70
0
71
3
72
65
73
61
74
0
42
0.000000001
43
0.0000000001
44
0.0000000001
40
0.0020636512984466763
40
0.0020636512984466763
40
0.0020636512984466763
40
0.0020636512984466763
40
10.539444221408928
40
10.539444221408928
40
10.539444221408928
40
27.256157177188218
40
27.256157177188218
40
27.256157177188218
40
34.92023052313678
40
34.92023052313678
40
34.92023052313678
40
40.939958444548537
40
40.939958444548537
40
40.939958444548537
40
45.479121902770316
40
45.479121902770316
40
45.479121902770316
40
48.787926457684158
40
48.787926457684158
40
48.787926457684158
40
52.580743579153989
40
52.580743579153989
40
52.580743579153989
40
55.849574991665698
40
55.849574991665698
40
55.849574991665698
40
59.804626065583861
40
59.804626065583861
40
59.804626065583861
40
64.04712939543964
40
64.04712939543964
40
64.04712939543964
40
69.127166123286159
40
69.127166123286159
40
69.127166123286159
40
72.60055330015166
40
72.60055330015166
40
72.60055330015166
40
78.489059953342689
40
78.489059953342689
40
78.489059953342689
40
79.076289973598151
40
79.076289973598151
40
79.076289973598151
40
89.97400012704837
40
89.97400012704837
40
89.97400012704837
40
92.047609528179677
40
92.047609528179677
40
92.047609528179677
40
104.06566587478648
40
104.06566587478648
40
104.06566587478648
40
112.31207607003928
40
112.31207607003928
40
112.31207607003928
40
113.73182166012029
40
113.73182166012029
40
113.73182166012029
40
114.61601732935365
40
114.61601732935365
40
114.61601732935365
40
114.61601732935365
10
-325.54128383032611
20
-59.243957446595573
30
0
10
-325.52885647472868
20
-93.659478759486205
30
0
10
-324.87399808039248
20
-129.10502124083868
30
0
10
-323.30685837681369
20
-164.55940983024988
30
0
10
-320.82071635963729
20
-220.80496660106598
30
0
10
-316.01679090205943
20
-277.09636927211994
30
0
10
-307.98446277364599
20
-329.12373365827216
30
0
10
-304.30462269771846
20
-352.95896267933358
30
0
10
-299.57211202673574
20
-378.19050568858296
30
0
10
-293.70855068287528
20
-401.98463588784648
30
0
10
-289.10303057010049
20
-420.673678053907
30
0
10
-283.78185027871655
20
-438.48065093257492
30
0
10
-277.97558116220375
20
-453.80960668467884
30
0
10
-273.59737587679012
20
-465.368374242122
30
0
10
-268.92864994141644
20
-475.50815985533285
30
0
10
-264.42362042450384
20
-483.44054904673618
30
0
10
-261.12795417889038
20
-489.24350931748108
30
0
10
-258.1003535140182
20
-493.6152398797754
30
0
10
-255.35881233020484
20
-497.02058281289624
30
0
10
-252.21623797484139
20
-500.92405996510092
30
0
10
-249.47403174030546
20
-503.58283865167067
30
0
10
-246.67182308825005
20
-505.85453413596377
30
0
10
-244.26252759603591
20
-507.80770264323246
30
0
10
-241.67782712438606
20
-509.56511726432103
30
0
10
-238.4414653089344
20
-511.34406364945198
30
0
10
-234.52570011382616
20
-513.49646092023954
30
0
10
-229.62136723069517
20
-515.674469719424
30
0
10
-223.14850743436099
20
-517.83350129014218
30
0
10
-216.18884709271185
20
-520.15490587356999
30
0
10
-207.13736149401876
20
-522.54180345473151
30
0
10
-195.06985475713148
20
-524.80689644211077
30
0
10
-180.6200423066586
20
-527.51915254970118
30
0
10
-161.89261423024442
20
-530.03390624671408
30
0
10
-137.77425070356139
20
-532.13406510124219
30
0
10
-121.29313374618398
20
-533.56919413361857
30
0
10
-103.27128390869714
20
-534.7259194062575
30
0
10
-84.824790715889947
20
-535.61794230902683
30
0
10
-53.552061140169954
20
-537.13020757929121
30
0
10
-21.04347224722677
20
-537.88463921851007
30
0
10
7.7111415510082821
20
-538.07454768475282
30
0
10
10.57868903590839
20
-538.09348626443796
30
0
10
13.460370912696881
20
-538.10719660207019
30
0
10
16.354717933876969
20
-538.1155950064292
30
0
10
70.067494584159746
20
-538.27145109909964
30
0
10
128.16675968003727
20
-536.57940800132724
30
0
10
181.22092271451618
20
-532.6095287474534
30
0
10
191.32223335567829
20
-531.85367885259745
30
0
10
200.98279129389837
20
-531.03705971726959
30
0
10
210.22315985840385
20
-530.16701342377632
30
0
10
263.77773479959308
20
-525.12447003366037
30
0
10
303.17865640189882
20
-518.28155144409777
30
0
10
332.62329477618272
20
-511.13357794062483
30
0
10
352.82727444497368
20
-506.22886457646428
30
0
10
368.333335295464
20
-501.20333195340544
30
0
10
380.86299000351607
20
-496.39288730655119
30
0
10
383.03689331415484
20
-495.55827200492439
30
0
10
385.29071498076189
20
-494.6659601032257
30
0
10
387.61869242378896
20
-493.70640137698643
30
0
10
389.06852089135259
20
-493.10880299313271
30
0
10
390.54764994813638
20
-492.48483695049458
30
0
10
392.05323731120131
20
-491.83279814217224
30
0
0
LINE
5
108
100
AcDbEntity
8
0
100
AcDbLine
10
392.05323731120131
20
-491.83279814217229
30
0
11
392.05323731120131
21
373.34485801153608
31
0
0
SPLINE
5
109
100
AcDbEntity
8
0
100
AcDbSpline
70
0
71
3
72
62
73
58
74
0
42
0.000000001
43
0.0000000001
44
0.0000000001
40
106.61664743095079
40
106.61664743095079
40
106.61664743095079
40
106.61664743095079
40
111.8988402210592
40
111.8988402210592
40
111.8988402210592
40
127.15441878524828
40
127.15441878524828
40
127.15441878524828
40
140.64627056141688
40
140.64627056141688
40
140.64627056141688
40
158.57104878896541
40
158.57104878896541
40
158.57104878896541
40
188.13375577923074
40
188.13375577923074
40
188.13375577923074
40
203.55315550057807
40
203.55315550057807
40
203.55315550057807
40
212.2050256575763
40
212.2050256575763
40
212.2050256575763
40
229.5264944200834
40
229.5264944200834
40
229.5264944200834
40
240.9666950267798
40
240.9666950267798
40
240.9666950267798
40
252.47524396712274
40
252.47524396712274
40
252.47524396712274
40
265.25931813502035
40
265.25931813502035
40
265.25931813502035
40
273.11536241441871
40
273.11536241441871
40
273.11536241441871
40
284.71937935921807
40
284.71937935921807
40
284.71937935921807
40
286.70891720805372
40
286.70891720805372
40
286.70891720805372
40
300.78728978076686
40
300.78728978076686
40
300.78728978076686
40
316.85520020231564
40
316.85520020231564
40
316.85520020231564
40
331.64503452849709
40
331.64503452849709
40
331.64503452849709
40
364.71547719846154
40
364.71547719846154
40
364.71547719846154
40
419.39022507340644
40
419.39022507340644
40
419.39022507340644
40
419.39022507340644
10
392.05323731120126
20
373.34485801153608
30
0
10
386.79104931609083
20
375.62420008582001
30
0
10
381.19522593027864
20
377.8467427160839
30
0
10
375.19502940238749
20
380.01812857254663
30
0
10
357.86577369948481
20
386.28933995060697
30
0
10
337.15721484638334
20
392.10290715072489
30
0
10
311.83243200767481
20
397.27684018762028
30
0
10
289.47597140506889
20
401.84433562624133
30
0
10
265.06741961567883
20
405.55938225559225
30
0
10
240.161087135141
20
408.50358583051764
30
0
10
207.07144950928142
20
412.41514645339015
30
0
10
173.09716860441108
20
414.97765058380128
30
0
10
141.50091892842329
20
416.63775356415226
30
0
10
89.384056871318791
20
419.37603291422653
30
0
10
32.554297614783621
20
420.26609349970903
30
0
10
-22.738541856596235
20
419.18453798788926
30
0
10
-51.625018267831628
20
418.61950410505176
30
0
10
-82.262346404608422
20
417.50742492194837
30
0
10
-110.5944827808151
20
415.68561802735996
30
0
10
-126.49822532505323
20
414.6629790201165
30
0
10
-140.50418579754654
20
413.49614182477893
30
0
10
-152.82865839390882
20
412.21435176495419
30
0
10
-177.50285752293618
20
409.64814514390497
30
0
10
-195.406431312781
20
406.60093941733487
30
0
10
-208.35272129194891
20
403.51147356008698
30
0
10
-216.90327531856411
20
401.47099364126171
30
0
10
-223.27820422440939
20
399.43682958085333
30
0
10
-228.34170528622752
20
397.48464893261263
30
0
10
-233.40529018699758
20
395.53243596112816
30
0
10
-237.3204906699803
20
393.59271188397724
30
0
10
-240.58245859072005
20
391.62646380810634
30
0
10
-244.20595969830603
20
389.44229086287055
30
0
10
-247.06844867274626
20
387.23981283727426
30
0
10
-249.97587401781476
20
384.44670110884607
30
0
10
-251.76676001598008
20
382.72622883799727
30
0
10
-253.6320084917196
20
380.71374484556287
30
0
10
-255.69007995073412
20
378.12026149349322
30
0
10
-258.73001903899006
20
374.2894754524329
30
0
10
-262.19952646607646
20
369.1665723360245
30
0
10
-266.05614968187496
20
361.99842469359862
30
0
10
-266.7155520273098
20
360.7728205566749
30
0
10
-267.37730590995824
20
359.50310333368003
30
0
10
-268.03942242926695
20
358.19191973207626
30
0
10
-272.72469295620431
20
348.91371913618741
30
0
10
-277.3860909721659
20
337.56693463740504
30
0
10
-281.66968946037821
20
325.06153272818869
30
0
10
-286.55864068218926
20
310.7888831996338
30
0
10
-290.9786588836011
20
295.00912809147559
30
0
10
-294.82716373064005
20
278.8883473198203
30
0
10
-298.37305905885012
20
264.03515016994726
30
0
10
-301.55083434775162
20
248.47032810408382
30
0
10
-304.37148339098837
20
232.52461053535316
30
0
10
-310.67852581074857
20
196.86958377452922
30
0
10
-315.1891260250033
20
159.3274936686629
30
0
10
-318.32005645866633
20
123.29411312380162
30
0
10
-323.4960579297508
20
63.724335174392969
30
0
10
-325.51939859346425
20
1.363604592409029
30
0
10
-325.54128383027341
20
-59.24395744659553
30
0
0
SPLINE
5
110
100
AcDbEntity
8
0
100
AcDbSpline
70
0
71
3
72
16
73
12
74
0
42
0.000000001
43
0.0000000001
44
0.0000000001
40
-71.375659775499486
40
-71.375659775499486
40
-71.375659775499486
40
-71.375659775499486
40
-69.127166123286159
40
-69.127166123286159
40
-59.804626065583861
40
-59.804626065583861
40
-52.580743579153989
40
-52.580743579153989
40
-45.479121902770316
40
-45.479121902770316
40
-31.959896338267065
40
-31.959896338267065
40
-31.959896338267065
40
-31.959896338267065
10
-107.55219639548946
20
-591.62220754805435
30
0
10
-119.64392169400278
20
-590.89808719853227
30
0
10
-131.45715607694564
20
-590.05039870060318
30
0
10
-189.47868060107555
20
-584.99804851325496
30
0
10
-219.48901681171878
20
-579.29946150396268
30
0
10
-258.07950657390597
20
-566.42754887992862
30
0
10
-271.39402200711191
20
-559.38328982424275
30
0
10
-293.73830185499497
20
-541.26922126871773
30
0
10
-304.15343172933348
20
-529.2099593515353
30
0
10
-333.08872820221205
20
-478.26111825519297
30
0
10
-346.55176199327087
20
-431.60346229584388
30
0
10
-355.99977017987851
20
-385.37065058417318
30
0
0
LINE
5
111
100
AcDbEntity
8
0
100
AcDbLine
10
-355.99977017987851
20
-385.37065058417312
30
0
11
-337.88586550011428
21
-381.8624267529305
31
0
0
ARC
5
112
100
AcDbEntity
8
0
100
AcDbCircle
10
-336.28636358941918
20
-379.49453742112411
30
0
40
2.8574999999999933
210
0
220
0
230
1
100
AcDbArc
50
-124.0389044045139
51
55.961095596768281
0
LINE
5
113
100
AcDbEntity
8
0
100
AcDbLine
10
-334.68686167877706
20
-377.1266480892819
30
0
11
-336.66967050761622
21
-366.88887198049053
31
0
0
ARC
5
114
100
AcDbEntity
8
0
100
AcDbCircle
10
-339.03755983945842
20
-365.28937006984825
30
0
40
2.8575000000000772
210
0
220
0
230
1
100
AcDbArc
50
-34.038904403234554
51
145.96109559548611
0
LINE
5
115
100
AcDbEntity
8
0
100
AcDbLine
10
-341.40544917126482
20
-363.68986815915315
30
0
11
-359.51935385111477
21
-367.19809199041237
31
0
0
SPLINE
5
116
100
AcDbEntity
8
0
100
AcDbSpline
70
0
71
3
72
10
73
6
74
0
42
0.000000001
43
0.0000000001
44
0.0000000001
40
-30.183415364248546
40
-30.183415364248546
40
-30.183415364248546
40
-30.183415364248546
40
-27.256157177188218
40
-27.256157177188218
40
-0.92295759048586623
40
-0.92295759048586623
40
-0.92295759048586623
40
-0.92295759048586623
10
-359.51935385111472
20
-367.19809199041254
30
0
10
-361.34185712363688
20
-357.26275813473598
30
0
10
-362.9850587189336
20
-347.43157031512123
30
0
10
-377.78143898158106
20
-251.59177701812055
30
0
10
-382.34971773453361
20
-156.75617783454419
30
0
10
-382.67276691394244
20
-68.499082528817496
30
0
0
LINE
5
117
100
AcDbEntity
8
0
100
AcDbLine
10
-382.6727669139425
20
-68.499082528817496
30
0
11
-364.35603765794008
21
-68.49908255109402
31
0
0
ARC
5
118
100
AcDbEntity
8
0
100
AcDbCircle
10
-362.33548006547369
20
-66.478524889079324
30
0
40
2.8574999999999884
210
0
220
0
230
1
100
AcDbArc
50
-134.99999901392954
51
44.999999908928423
0
LINE
5
119
100
AcDbEntity
8
0
100
AcDbLine
10
-360.31492243502146
20
-64.457967265050442
30
0
11
-360.31492241844614
21
-54.029947774012626
31
0
0
ARC
5
120
100
AcDbEntity
8
0
100
AcDbCircle
10
-362.33548004247507
20
-52.009390143560445
30
0
40
2.8574999999999946
210
0
220
0
230
1
100
AcDbArc
50
-45.00000009107027
51
135.00000098607006
0
LINE
5
121
100
AcDbEntity
8
0
100
AcDbLine
10
-364.35603770448978
20
-49.988832551094013
30
0
11
-382.67276691396478
21
-49.988832521979774
31
0
0
SPLINE
5
122
100
AcDbEntity
8
0
100
AcDbSpline
70
0
71
3
72
10
73
6
74
0
42
0.000000001
43
0.0000000001
44
0.0000000001
40
-416.67377810627426
40
-416.67377810627426
40
-416.67377810627426
40
-416.67377810627426
40
-364.71547719846154
40
-364.71547719846154
40
-329.82458960167202
40
-329.82458960167202
40
-329.82458960167202
40
-329.82458960167202
10
-382.67276691396489
20
-49.988832516342676
30
0
10
-382.45692955888126
20
8.9779726756013822
30
0
10
-380.3508416926831
20
69.600137018342053
30
0
10
-371.83394805797457
20
167.61971167893864
30
0
10
-366.80786081472877
20
208.9770521418055
30
0
10
-359.51935385111551
20
248.71017695134663
30
0
0
LINE
5
123
100
AcDbEntity
8
0
100
AcDbLine
10
-359.51935385111545
20
248.71017695134663
30
0
11
-341.40544917126505
21
245.20195312009051
31
0
0
ARC
5
124
100
AcDbEntity
8
0
100
AcDbCircle
10
-339.03755983945859
20
246.8014550307856
30
0
40
2.8575000000000323
210
0
220
0
230
1
100
AcDbArc
50
-145.96109559548674
51
34.038904403233133
0
LINE
5
125
100
AcDbEntity
8
0
100
AcDbLine
10
-336.66967050761639
20
248.40095694142781
30
0
11
-334.68686167877718
21
258.63873305021917
31
0
0
ARC
5
126
100
AcDbEntity
8
0
100
AcDbCircle
10
-336.28636358941935
20
261.00662238206144
30
0
40
2.8574999999999977
210
0
220
0
230
1
100
AcDbArc
50
-55.96109559676799
51
124.0389044045139
0
LINE
5
127
100
AcDbEntity
8
0
100
AcDbLine
10
-337.88586550011445
20
263.37451171386783
30
0
11
-355.99977017987874
21
266.88273554511045
31
0
0
SPLINE
5
128
100
AcDbEntity
8
0
100
AcDbSpline
70
0
71
3
72
18
73
14
74
0
42
0.000000001
43
0.0000000001
44
0.0000000001
40
-324.46784585246581
40
-324.46784585246581
40
-324.46784585246581
40
-324.46784585246581
40
-316.85520020231564
40
-316.85520020231564
40
-284.71937935921807
40
-284.71937935921807
40
-265.25931813502035
40
-265.25931813502035
40
-240.9666950267798
40
-240.9666950267798
40
-203.55315550057807
40
-203.55315550057807
40
-202.38836001849282
40
-202.38836001849282
40
-202.38836001849282
40
-202.38836001849282
10
-355.99977017987885
20
266.88273554510988
30
0
10
-354.25420539754469
20
275.42446903202296
30
0
10
-352.39567130310775
20
283.86245826728185
30
0
10
-342.05429297477815
20
327.18086360488098
30
0
10
-330.97460869097205
20
361.95767751698094
30
0
10
-307.54903790591544
20
405.49782665768896
30
0
10
-298.58349633366345
20
416.99958056920082
30
0
10
-278.3152307114741
20
436.47094223984772
30
0
10
-265.25913692524273
20
444.50183399138103
30
0
10
-223.70571158989219
20
460.52232886586154
30
0
10
-185.76621582465077
20
468.11996926460273
30
0
10
-112.03560806325166
20
472.86097882979453
30
0
10
-109.79855110218857
20
472.99976818641983
30
0
10
-107.5521963459143
20
473.1342925119605
30
0
0
LINE
5
129
100
AcDbEntity
8
0
100
AcDbLine
10
-107.55219634591433
20
473.1342925119605
30
0
11
-106.55792786293203
21
454.82763190255685
31
0
0
SPLINE
5
130
100
AcDbEntity
8
0
100
AcDbSpline
70
0
71
3
72
12
73
8
74
0
42
0.000000001
43
0.0000000001
44
0.0000000001
40
-199.22371630122217
40
-199.22371630122217
40
-199.22371630122217
40
-199.22371630122217
40
-188.13375577923074
40
-188.13375577923074
40
-158.57104878896541
40
-158.57104878896541
40
-157.62225947967966
40
-157.62225947967966
40
-157.62225947967966
40
-157.62225947967966
10
-89.069188269356829
20
474.13816783623452
30
0
10
-67.313979253744208
20
475.20480483841686
30
0
10
-45.112805258007725
20
475.90781836278842
30
0
10
32.807875801924965
20
477.43198573944744
30
0
10
90.864887586681263
20
476.5270573422124
30
0
10
146.22086544428834
20
473.61859115511606
30
0
10
147.94953978250095
20
473.52554565487196
30
0
10
149.68508348056903
20
473.42982077893555
30
0
0
LINE
5
131
100
AcDbEntity
8
0
100
AcDbLine
10
149.68508348056903
20
473.42982077893555
30
0
11
148.37072749688136
21
455.28004097532829
31
0
0
ARC
5
132
100
AcDbEntity
8
0
100
AcDbCircle
10
150.24006679154934
20
453.11881982713209
30
0
40
2.8575000000000337
210
0
220
0
230
1
100
AcDbArc
50
130.85803116825605
51
310.85803116821796
0
LINE
5
133
100
AcDbEntity
8
0
100
AcDbLine
10
152.10940608621584
20
450.95759867893469
30
0
11
162.51018909070538
21
450.20440322024876
31
0
0
ARC
5
134
100
AcDbEntity
8
0
100
AcDbCircle
10
164.67141023890278
20
452.0737425149153
30
0
40
2.8575000000000172
210
0
220
0
230
1
100
AcDbArc
50
-139.14196883178161
51
40.858031168256346
0
LINE
5
135
100
AcDbEntity
8
0
100
AcDbLine
10
166.83263138709893
20
453.94308180958325
30
0
11
168.15689328691801
21
472.22965072379651
31
0
0
SPLINE
5
136
100
AcDbEntity
8
0
100
AcDbSpline
70
0
71
3
72
10
73
6
74
0
42
0.000000001
43
0.0000000001
44
0.0000000001
40
-154.29757750804654
40
-154.29757750804654
40
-154.29757750804654
40
-154.29757750804654
40
-127.15441878524828
40
-127.15441878524828
40
-113.20960889464631
40
-113.20960889464631
40
-113.20960889464631
40
-113.20960889464631
10
168.16354623962471
20
472.32152052551362
30
0
10
219.03402739205961
20
469.01878063539448
30
0
10
274.23916458636324
20
463.28778477778724
30
0
10
348.46272319977493
20
448.12367756819293
30
0
10
370.19407445510069
20
442.24730227079499
30
0
10
389.31804218043908
20
435.63977707969309
30
0
0
LINE
5
137
100
AcDbEntity
8
0
100
AcDbLine
10
389.31804218043902
20
435.63977707969309
30
0
11
382.83957991721945
21
418.30129483997433
31
0
0
ARC
5
138
100
AcDbEntity
8
0
100
AcDbCircle
10
384.02510935985117
20
415.70132826506347
30
0
40
2.8575000000000723
210
0
220
0
230
1
100
AcDbArc
50
114.51197664327147
51
294.51197664327088
0
LINE
5
139
100
AcDbEntity
8
0
100
AcDbLine
10
385.21063880248283
20
413.10136169015266
30
0
11
394.97903781322754
21
409.4514341193173
31
0
0
ARC
5
140
100
AcDbEntity
8
0
100
AcDbCircle
10
397.5790043881384
20
410.63696356194896
30
0
40
2.8575000000000426
210
0
220
0
230
1
100
AcDbArc
50
-155.48802335672957
51
24.511976643271929
0
LINE
5
141
100
AcDbEntity
8
0
100
AcDbLine
10
400.17897096304921
20
411.82249300458068
30
0
11
406.66032605735433
21
429.16871740568723
31
0
0
SPLINE
5
142
100
AcDbEntity
8
0
100
AcDbSpline
70
0
71
3
72
10
73
6
74
0
42
0.000000001
43
0.0000000001
44
0.0000000001
40
-108.811677220299
40
-108.811677220299
40
-108.811677220299
40
-108.811677220299
40
-96.643261656870123
40
-96.643261656870123
40
-96.200430685892727
40
-96.200430685892727
40
-96.200430685892727
40
-96.200430685892727
10
406.66032605735404
20
429.16871740568746
30
0
10
421.98612725894486
20
422.99811208593502
30
0
10
435.53113494337538
20
416.2701701427946
30
0
10
448.30826276329105
20
408.71398079101675
30
0
10
448.75614258680821
20
408.4474045793508
30
0
10
449.20323730468704
20
408.17957984063992
30
0
0
LINE
5
143
100
AcDbEntity
8
0
100
AcDbLine
10
449.20323730468704
20
408.17957984064003
30
0
11
449.20323731797652
21
-526.66749486378092
31
0
0
SPLINE
5
144
100
AcDbEntity
8
0
100
AcDbSpline
70
0
71
3
72
8
73
4
74
0
42
0.000000001
43
0.0000000001
44
0.0000000001
40
-119.65307101164424
40
-119.65307101164424
40
-119.65307101164424
40
-119.65307101164424
40
-113.26335594493654
40
-113.26335594493654
40
-113.26335594493654
40
-113.26335594493654
10
449.20323732148336
20
-526.66749486964079
30
0
10
433.60641763718257
20
-536.01051322861099
30
0
10
418.9266105195731
20
-542.7178759542694
30
0
10
406.66032605736228
20
-547.65663244474672
30
0
0
LINE
5
145
100
AcDbEntity
8
0
100
AcDbLine
10
406.66032605736234
20
-547.65663244474661
30
0
11
400.17897096304932
21
-530.31040804364295
31
0
0
ARC
5
146
100
AcDbEntity
8
0
100
AcDbCircle
10
397.57900438813857
20
-529.12487860101135
30
0
40
2.8574999999999484
210
0
220
0
230
1
100
AcDbArc
50
-24.511976643270319
51
155.48802335673014
0
LINE
5
147
100
AcDbEntity
8
0
100
AcDbLine
10
394.97903781322776
20
-527.93934915837974
30
0
11
385.21063880248306
21
-531.58927672921504
31
0
0
ARC
5
148
100
AcDbEntity
8
0
100
AcDbCircle
10
384.02510935985134
20
-534.18924330412585
30
0
40
2.857500000000007
210
0
220
-0
230
1
100
AcDbArc
50
65.488023356728064
51
245.48802335672704
0
LINE
5
149
100
AcDbEntity
8
0
100
AcDbLine
10
382.83957991721957
20
-536.78920987903666
30
0
11
389.3180421804401
21
-554.12769211875559
31
0
0
SPLINE
5
150
100
AcDbEntity
8
0
100
AcDbSpline
70
0
71
3
72
10
73
6
74
0
42
0.000000001
43
0.0000000001
44
0.0000000001
40
-110.20433711471267
40
-110.20433711471267
40
-110.20433711471267
40
-110.20433711471267
40
-89.97400012704837
40
-89.97400012704837
40
-88.837356612952007
40
-88.837356612952007
40
-88.837356612952007
40
-88.837356612952007
10
389.31804218043669
20
-554.12769211875684
30
0
10
348.74684518158455
20
-568.14545297535358
30
0
10
287.45531695335524
20
-581.9701069570358
30
0
10
179.75616671795311
20
-590.02890192665006
30
0
10
173.97892623851416
20
-590.43187500168335
30
0
10
168.16354623962462
20
-590.80943556457601
30
0
0
LINE
5
151
100
AcDbEntity
8
0
100
AcDbLine
10
168.15689328691826
20
-590.71756576285907
30
0
11
166.83263138709918
21
-572.43099684864569
31
0
0
ARC
5
152
100
AcDbEntity
8
0
100
AcDbCircle
10
164.67141023890298
20
-570.56165755397774
30
0
40
2.8575000000000799
210
0
220
0
230
1
100
AcDbArc
50
-40.8580311682556
51
139.14196883178286
0
LINE
5
153
100
AcDbEntity
8
0
100
AcDbLine
10
162.51018909070555
20
-568.69231825931126
30
0
11
152.1094060862161
21
-569.44551371799719
31
0
0
ARC
5
154
100
AcDbEntity
8
0
100
AcDbCircle
10
150.24006679154954
20
-571.60673486619453
30
0
40
2.857499999999964
210
0
220
-0
230
1
100
AcDbArc
50
49.141968831780432
51
229.14196883174483
0
LINE
5
155
100
AcDbEntity
8
0
100
AcDbLine
10
148.37072749688161
20
-573.76795601439073
30
0
11
149.68508351382212
21
-591.91773581616405
31
0
0
SPLINE
5
156
100
AcDbEntity
8
0
100
AcDbSpline
70
0
71
3
72
10
73
6
74
0
42
0.000000001
43
0.0000000001
44
0.0000000001
40
-87.6409609947071
40
-87.6409609947071
40
-87.6409609947071
40
-87.6409609947071
40
-78.489059953342689
40
-78.489059953342689
40
-72.510205900562781
40
-72.510205900562781
40
-72.510205900562781
40
-72.510205900562781
10
149.6850835138217
20
-591.91773581616405
30
0
10
102.3034608742487
20
-594.53109551162061
30
0
10
53.125892586080326
20
-595.52573362069757
30
0
10
-22.581915785100115
20
-595.02572503524914
30
0
10
-56.34561975104414
20
-594.23048800880008
30
0
10
-89.069188269356403
20
-592.62608287529713
30
0
0
LINE
5
157
100
AcDbEntity
8
0
100
AcDbLine
10
-89.069188269356431
20
-592.62608287529713
30
0
11
-88.074918164473814
21
-574.31939331891431
31
0
0
LINE
5
158
100
AcDbEntity
8
0
100
AcDbLine
10
-91.890928944053655
20
-570.06506766963332
30
0
11
-102.30360221365082
21
-569.49953616203948
31
0
0
SPLINE
5
159
100
AcDbEntity
8
0
100
AcDbSpline
70
0
71
3
72
8
73
4
74
0
42
0.000000001
43
0.0000000001
44
0.0000000001
40
-0.932582127858677
40
-0.932582127858677
40
-0.932582127858677
40
-0.932582127858677
40
0
40
0
40
0
40
0
10
168.16354623962513
20
472.32152052551362
30
0
10
165.07411723376595
20
472.52210011871165
30
0
10
161.99433091797982
20
472.71418716466087
30
0
10
158.92594134182877
20
472.8981303066692
30
0
0
LINE
5
160
100
AcDbEntity
8
0
100
AcDbLine
10
168.15689328691826
20
-590.71756576285907
30
0
11
158.92594134182954
21
-591.38604534573165
31
0
0
LINE
5
161
100
AcDbEntity
8
0
100
AcDbLine
10
158.9259413418288
20
472.89813030666915
30
0
11
168.15689328691801
21
472.22965072379651
31
0
0
SPLINE
5
162
100
AcDbEntity
8
0
100
AcDbSpline
70
0
71
3
72
8
73
4
74
0
42
0.000000001
43
0.0000000001
44
0.0000000001
40
-0.93258506212292636
40
-0.93258506212292636
40
-0.93258506212292636
40
-0.93258506212292636
40
0
40
0
40
0
40
0
10
158.92594134183372
20
-591.3860453457313
30
0
10
161.9943309179958
20
-591.20210220372223
30
0
10
165.07411723377388
20
-591.01001515777364
30
0
10
168.16354623962565
20
-590.80943556457612
30
0
0
ARC
5
163
100
AcDbEntity
8
0
100
AcDbCircle
10
334.42278576001229
20
245.34343751005295
30
0
40
2.8575000000000008
210
0
220
0
230
1
100
AcDbArc
50
-134.99999999999881
51
45.000000000001208
0
ARC
5
164
100
AcDbEntity
8
0
100
AcDbCircle
10
354.46038118396973
20
-102.94771249014055
30
0
40
2.8574999999999884
210
0
220
0
230
1
100
AcDbArc
50
-134.99999999996132
51
44.999999999889596
0
ARC
5
165
100
AcDbEntity
8
0
100
AcDbCircle
10
354.46038118399144
20
-88.478577744621631
30
0
40
2.8574999999999879
210
0
220
0
230
1
100
AcDbArc
50
-45.000000000115669
51
135.00000000003666
0
ARC
5
166
100
AcDbEntity
8
0
100
AcDbCircle
10
360.78764549983828
20
-331.27717774460314
30
0
40
2.8574999999999755
210
0
220
0
230
1
100
AcDbArc
50
-45.000000000003205
51
134.99999999999841
0
LINE
5
167
100
AcDbEntity
8
0
100
AcDbLine
10
315.73542466043881
20
243.32287988281234
30
0
11
332.40222813277177
21
243.32287988281234
31
0
0
LINE
5
168
100
AcDbEntity
8
0
100
AcDbLine
10
334.5140772833447
20
-104.96827011738247
30
0
11
352.43982355673052
21
-104.96827011738249
31
0
0
LINE
5
169
100
AcDbEntity
8
0
100
AcDbLine
10
362.80820312707885
20
-347.76687011740131
30
0
11
362.80820312707874
21
-333.29773537184383
31
0
0
LINE
5
170
100
AcDbEntity
8
0
100
AcDbLine
10
336.44334338725281
20
247.36399513729356
30
0
11
336.44334338725275
21
261.83312988281233
31
0
0
LINE
5
171
100
AcDbEntity
8
0
100
AcDbLine
10
336.44334338725275
20
261.83312988281233
30
0
11
358.81891451676978
21
261.83312988281239
31
0
0
SPLINE
5
172
100
AcDbEntity
8
0
100
AcDbSpline
70
0
71
3
72
8
73
4
74
0
42
0.000000001
43
0.0000000001
44
0.0000000001
40
23.066267760750705
40
23.066267760750705
40
23.066267760750705
40
23.066267760750705
40
44.025507151404923
40
44.025507151404923
40
44.025507151404923
40
44.025507151404923
10
358.81891451676995
20
261.83312988281239
30
0
10
364.62363658035156
20
191.36966632663484
30
0
10
369.96754394799655
20
120.18926323755235
30
0
10
374.6733548019846
20
48.473129882812422
30
0
0
SPLINE
5
173
100
AcDbEntity
8
0
100
AcDbSpline
70
0
71
3
72
10
73
6
74
0
42
0.000000001
43
0.0000000001
44
0.0000000001
40
0
40
0
40
0
40
0
40
21.348592372605616
40
21.348592372605616
40
37.064255410523621
40
37.064255410523621
40
37.064255410523621
40
37.064255410523621
10
374.6733548019846
20
48.473129882812351
30
0
10
376.67476619512502
20
-22.660694546206344
30
0
10
378.93037259040045
20
-102.44096370826583
30
0
10
382.58700743254451
20
-235.84108521045835
30
0
10
384.08148292995077
20
-291.64570726709172
30
0
10
385.52703079301324
20
-347.76687011718764
30
0
0
LINE
5
174
100
AcDbEntity
8
0
100
AcDbLine
10
385.52703079301324
20
-347.76687011718764
30
0
11
362.80820312707885
21
-347.76687011740131
31
0
0
LINE
5
175
100
AcDbEntity
8
0
100
AcDbLine
10
358.76708787259781
20
-329.25662011736256
30
0
11
340.58320312707878
21
-329.25662011736256
31
0
0
SPLINE
5
176
100
AcDbEntity
8
0
100
AcDbSpline
70
0
71
3
72
11
73
7
74
0
42
0.000000001
43
0.0000000001
44
0.0000000001
40
-35.227589113095469
40
-35.227589113095469
40
-35.227589113095469
40
-35.227589113095469
40
-21.348592372605616
40
-21.348592372605616
40
-21.348592372605616
40
-14.40134836605276
40
-14.40134836605276
40
-14.40134836605276
40
-14.40134836605276
10
340.58320312707883
20
-329.25662011736256
30
0
10
339.29707225647383
20
-279.77212643894723
30
0
10
337.97205203829668
20
-230.43233380910013
30
0
10
336.60324262165318
20
-180.49588940697973
30
0
10
335.91808711659337
20
-155.50027689203648
30
0
10
335.21706217870332
20
-130.19125496406818
30
0
10
334.51407728334459
20
-104.96827011738246
30
0
0
LINE
5
177
100
AcDbEntity
8
0
100
AcDbLine
10
356.48093881121417
20
-100.92715486290389
30
0
11
356.48093881122793
21
-90.499135371866274
31
0
0
LINE
5
178
100
AcDbEntity
8
0
100
AcDbLine
10
352.43982355674962
20
-86.458020117382389
30
0
11
333.99743836954394
21
-86.458020117382404
31
0
0
SPLINE
5
179
100
AcDbEntity
8
0
100
AcDbSpline
70
0
71
3
72
8
73
4
74
0
42
0.000000001
43
0.0000000001
44
0.0000000001
40
-12.699943396203848
40
-12.699943396203848
40
-12.699943396203848
40
-12.699943396203848
40
-0.083156685855657289
40
-0.083156685855657289
40
-0.083156685855657289
40
-0.083156685855657289
10
333.99743836953718
20
-86.458020117141885
30
0
10
332.72052957858807
20
-40.770974064370932
30
0
10
331.44839165934729
20
4.30966155491737
30
0
10
330.26433887829864
20
46.391302490914903
30
0
0
SPLINE
5
180
100
AcDbEntity
8
0
100
AcDbSpline
70
0
71
3
72
8
73
4
74
0
42
0.000000001
43
0.0000000001
44
0.0000000001
40
-43.944472635919574
40
-43.944472635919574
40
-43.944472635919574
40
-43.944472635919574
40
-24.543241204972595
40
-24.543241204972595
40
-24.543241204972595
40
-24.543241204972595
10
330.26433887829864
20
46.391302490914903
30
0
10
325.9205630753961
20
112.51693115809425
30
0
10
321.03110637183374
20
178.20884500527427
30
0
10
315.73542466043881
20
243.32287988281234
30
0
0
LINE
5
181
100
AcDbEntity
8
0
100
AcDbLine
10
274.95345602321424
20
106.7615600585939
30
0
11
297.43315769807992
21
106.7615600585939
31
0
0
LINE
5
182
100
AcDbEntity
8
0
100
AcDbLine
10
297.43315769807992
20
106.7615600585939
30
0
11
297.43315769807998
21
88.251310058593901
31
0
0
LINE
5
183
100
AcDbEntity
8
0
100
AcDbLine
10
297.43315769807998
20
88.251310058593901
30
0
11
319.65815769808
21
88.251310058593901
31
0
0
SPLINE
5
184
100
AcDbEntity
8
0
100
AcDbSpline
70
0
71
3
72
11
73
7
74
0
42
0.000000001
43
0.0000000001
44
0.0000000001
40
-37.632902067719456
40
-37.632902067719456
40
-37.632902067719456
40
-37.632902067719456
40
-20.620492635507372
40
-20.620492635507372
40
-20.620492635507372
40
-15.277134909195897
40
-15.277134909195897
40
-15.277134909195897
40
-15.277134909195897
10
319.65815769807995
20
88.251310058593916
30
0
10
320.41072988565048
20
31.382280469117827
30
0
10
321.00350000706749
20
-25.485316341976034
30
0
10
321.32274385392242
20
-82.34208115849917
30
0
10
321.42301432532713
20
-100.20007487353283
30
0
10
321.49653151317034
20
-118.10615098444558
30
0
10
321.53904705513042
20
-136.03703994140622
30
0
0
LINE
5
185
100
AcDbEntity
8
0
100
AcDbLine
10
321.53904705513037
20
-136.03703994140622
30
0
11
299.34674168318173
21
-136.03703994140636
31
0
0
LINE
5
186
100
AcDbEntity
8
0
100
AcDbLine
10
299.34674168318173
20
-136.03703994140636
30
0
11
299.34674168318173
21
-154.54728994140601
31
0
0
LINE
5
187
100
AcDbEntity
8
0
100
AcDbLine
10
299.34674168318173
20
-154.54728994140601
30
0
11
321.57174168318181
21
-154.54728994140618
31
0
0
SPLINE
5
188
100
AcDbEntity
8
0
100
AcDbSpline
70
0
71
3
72
8
73
4
74
0
42
0.000000001
43
0.0000000001
44
0.0000000001
40
-13.439247033528094
40
-13.439247033528094
40
-13.439247033528094
40
-13.439247033528094
40
-0.31946211263218904
40
-0.31946211263218904
40
-0.31946211263218904
40
-0.31946211263218904
10
321.57174168318181
20
-154.54728994140618
30
0
10
321.62253401316917
20
-198.60895376053094
30
0
10
321.47761667984287
20
-242.77195495604172
30
0
10
321.07410296312656
20
-286.69184417174955
30
0
0
SPLINE
5
189
100
AcDbEntity
8
0
100
AcDbSpline
70
0
71
3
72
8
73
4
74
0
42
0.000000001
43
0.0000000001
44
0.0000000001
40
-47.025317845925834
40
-47.025317845925834
40
-47.025317845925834
40
-47.025317845925834
40
-25.152654810924645
40
-25.152654810924645
40
-25.152654810924645
40
-25.152654810924645
10
321.07410296312656
20
-286.69184417174955
30
0
10
328.95314623397036
20
-344.94001134721174
30
0
10
338.23282108325986
20
-413.99761755956177
30
0
10
348.07932657555904
20
-483.7884399414055
30
0
0
LINE
5
190
100
AcDbEntity
8
0
100
AcDbLine
10
348.07932657555904
20
-483.7884399414055
30
0
11
328.55260507805298
21
-483.78843994140618
31
0
0
LINE
5
191
100
AcDbEntity
8
0
100
AcDbLine
10
328.55260507805298
20
-483.78843994140618
30
0
11
328.55260507805298
21
-502.83843994140636
31
0
0
LINE
5
192
100
AcDbEntity
8
0
100
AcDbLine
10
328.55260507805298
20
-502.83843994140636
30
0
11
305.88214347359974
21
-502.83843994140636
31
0
0
SPLINE
5
193
100
AcDbEntity
8
0
100
AcDbSpline
70
0
71
3
72
8
73
4
74
0
42
0.000000001
43
0.0000000001
44
0.0000000001
40
23.815681486853158
40
23.815681486853158
40
23.815681486853158
40
23.815681486853158
40
47.423910490606644
40
47.423910490606644
40
47.423910490606644
40
47.423910490606644
10
305.88214347359974
20
-502.83843994140636
30
0
10
295.15143517585409
20
-427.23200373955086
30
0
10
285.03976492529375
20
-351.88085336299287
30
0
10
276.59616201370994
20
-289.47843994140635
30
0
0
SPLINE
5
194
100
AcDbEntity
8
0
100
AcDbSpline
70
0
71
3
72
10
73
6
74
0
42
0.000000001
43
0.0000000001
44
0.0000000001
40
0
40
0
40
0
40
0
40
20.620492635507372
40
20.620492635507372
40
39.540013728018977
40
39.540013728018977
40
39.540013728018977
40
39.540013728018977
10
276.59616201370972
20
-289.47843994140624
30
0
10
277.24758602699438
20
-220.74655143905596
30
0
10
277.25942522685261
20
-151.33413986286649
30
0
10
276.51930312397621
20
-19.519701610354332
30
0
10
275.82746832993172
20
43.602427906937677
30
0
10
274.95345602321424
20
106.7615600585939
30
0
0
ARC
5
195
100
AcDbEntity
8
0
100
AcDbCircle
10
217.43767499315214
20
-368.24901612333451
30
0
40
2.8574999999999755
210
-0
220
0
230
1
100
AcDbArc
50
-44.999999999998373
51
135.00000000000122
0
ARC
5
196
100
AcDbEntity
8
0
100
AcDbCircle
10
227.08946082447414
20
-225.10414112333456
30
0
40
2.8575000000000008
210
-0
220
0
230
1
100
AcDbArc
50
-44.999999999997556
51
135.0000000000008
0
ARC
5
197
100
AcDbEntity
8
0
100
AcDbCircle
10
237.63889069669676
20
-19.957866123334966
30
0
40
2.8575000000000008
210
-0
220
0
230
1
100
AcDbArc
50
-45.00000000001338
51
135.00000000004093
0
ARC
5
198
100
AcDbEntity
8
0
100
AcDbCircle
10
237.63889069669628
20
-34.427000868853241
30
0
40
2.8574999999999946
210
0
220
0
230
1
100
AcDbArc
50
-134.99999999999881
51
44.999999999999396
0
ARC
5
199
100
AcDbEntity
8
0
100
AcDbCircle
10
227.08946082447414
20
-239.57327586885341
30
0
40
2.8575000000000008
210
0
220
0
230
1
100
AcDbArc
50
-135.0000000000004
51
44.999999999997179
0
ARC
5
200
100
AcDbEntity
8
0
100
AcDbCircle
10
245.97515589736443
20
208.3715991311467
30
0
40
2.8575000000000008
210
0
220
0
230
1
100
AcDbArc
50
-134.9999999999996
51
44.999999999996376
0
LINE
5
201
100
AcDbEntity
8
0
100
AcDbLine
10
219.45823262039272
20
-370.26957375057498
30
0
11
219.45823262039272
21
-384.73870849609392
31
0
0
LINE
5
202
100
AcDbEntity
8
0
100
AcDbLine
10
239.65944832393686
20
-21.978423750576006
30
0
11
239.65944832393686
21
-32.406443241612706
31
0
0
LINE
5
203
100
AcDbEntity
8
0
100
AcDbLine
10
235.61833306945576
20
-36.447558496093848
30
0
11
218.97886139264608
21
-36.447558496093819
31
0
0
LINE
5
204
100
AcDbEntity
8
0
100
AcDbLine
10
229.11001845171481
20
-227.12469875057505
30
0
11
229.11001845171481
21
-237.55271824161295
31
0
0
LINE
5
205
100
AcDbEntity
8
0
100
AcDbLine
10
225.06890319723357
20
-241.59383349609396
30
0
11
208.79001845171479
21
-241.59383349609402
31
0
0
LINE
5
206
100
AcDbEntity
8
0
100
AcDbLine
10
243.95459827012388
20
206.35104150390612
30
0
11
227.6757135246051
21
206.35104150390612
31
0
0
LINE
5
207
100
AcDbEntity
8
0
100
AcDbLine
10
198.86530756220998
20
-366.22845849609394
30
0
11
215.41711736591154
21
-366.22845849609399
31
0
0
SPLINE
5
208
100
AcDbEntity
8
0
100
AcDbSpline
70
0
71
3
72
8
73
4
74
0
42
0.000000001
43
0.0000000001
44
0.0000000001
40
-34.896048003576041
40
-34.896048003576041
40
-34.896048003576041
40
-34.896048003576041
40
-22.235570068870803
40
-22.235570068870803
40
-22.235570068870803
40
-22.235570068870803
10
208.79001845171479
20
-241.59383349609399
30
0
10
205.84884520355214
20
-282.84585134223516
30
0
10
202.56350791998312
20
-323.83655748795366
30
0
10
198.86530756221006
20
-366.22845849609377
30
0
0
LINE
5
209
100
AcDbEntity
8
0
100
AcDbLine
10
210.08530219972067
20
-223.08358349609404
30
0
11
225.06890319723357
21
-223.08358349609404
31
0
0
SPLINE
5
210
100
AcDbEntity
8
0
100
AcDbSpline
70
0
71
3
72
8
73
4
74
0
42
0.000000001
43
0.0000000001
44
0.0000000001
40
-42.252838267125888
40
-42.252838267125888
40
-42.252838267125888
40
-42.252838267125888
40
-36.78732488089112
40
-36.78732488089112
40
-36.78732488089112
40
-36.78732488089112
10
213.5820674251737
20
-169.09038007080824
30
0
10
212.47502148968326
20
-187.27226668662681
30
0
10
211.31127543057286
20
-205.22541657977925
30
0
10
210.08530219972289
20
-223.08358349606183
30
0
0
SPLINE
5
211
100
AcDbEntity
8
0
100
AcDbSpline
70
0
71
3
72
8
73
4
74
0
42
0.000000001
43
0.0000000001
44
0.0000000001
40
-13.314103190784106
40
-13.314103190784106
40
-13.314103190784106
40
-13.314103190784106
40
-0.041277976874700029
40
-0.041277976874700029
40
-0.041277976874700029
40
-0.041277976874700029
10
218.97886139264614
20
-36.447558496093777
30
0
10
217.25002894661731
20
-80.688829252672249
30
0
10
215.4473864033634
20
-124.93081138215103
30
0
10
213.58206742517356
20
-169.09038007080821
30
0
0
LINE
5
212
100
AcDbEntity
8
0
100
AcDbLine
10
211.21168192140681
20
-17.93730849610753
30
0
11
235.61833306945476
21
-17.937308496095852
31
0
0
LINE
5
213
100
AcDbEntity
8
0
100
AcDbLine
10
211.21168192140681
20
3.1129415038968444
30
0
11
211.21168192140681
21
-17.93730849610753
31
0
0
LINE
5
214
100
AcDbEntity
8
0
100
AcDbLine
10
221.15675756803299
20
20.338317808937415
30
0
11
211.21168192140681
21
3.1129415038968444
31
0
0
SPLINE
5
215
100
AcDbEntity
8
0
100
AcDbSpline
70
0
71
3
72
11
73
7
74
0
42
0.000000001
43
0.0000000001
44
0.0000000001
40
-37.614169011298159
40
-37.614169011298159
40
-37.614169011298159
40
-37.614169011298159
40
-23.03714933893556
40
-23.03714933893556
40
-23.03714933893556
40
-18.993571153572542
40
-18.993571153572542
40
-18.993571153572542
40
-18.993571153572542
10
227.6757135246051
20
206.35104150390615
30
0
10
226.10529455975725
20
157.80933644510552
30
0
10
224.42842495533884
20
109.28420517054144
30
0
10
222.65504114187141
20
60.745827898412657
30
0
10
222.16311579921233
20
47.281592074009239
30
0
10
221.66358300533858
20
33.811638584165621
30
0
10
221.15675756802722
20
20.338317808940722
30
0
0
LINE
5
216
100
AcDbEntity
8
0
100
AcDbLine
10
247.99571352460507
20
224.8612915039061
30
0
11
247.99571352460509
21
210.3921567583871
31
0
0
LINE
5
217
100
AcDbEntity
8
0
100
AcDbLine
10
272.7417705011635
20
224.8612915039061
30
0
11
247.99571352460507
21
224.8612915039061
31
0
0
SPLINE
5
218
100
AcDbEntity
8
0
100
AcDbSpline
70
0
71
3
72
10
73
6
74
0
42
0.000000001
43
0.0000000001
44
0.0000000001
40
0
40
0
40
0
40
0
40
23.03714933893556
40
23.03714933893556
40
39.608112700447123
40
39.608112700447123
40
39.608112700447123
40
39.608112700447123
10
257.97504289966304
20
-171.37870849609388
30
0
10
261.21652983549347
20
-94.656656162545616
30
0
10
264.26941474578609
20
-17.678380606395478
30
0
10
269.09379301566298
20
114.3671984658976
30
0
10
270.98747026916067
20
169.59878322984332
30
0
10
272.74177050116367
20
224.8612915039061
30
0
0
SPLINE
5
219
100
AcDbEntity
8
0
100
AcDbSpline
70
0
71
3
72
10
73
6
74
0
42
0.000000001
43
0.0000000001
44
0.0000000001
40
20.789827548720805
40
20.789827548720805
40
20.789827548720805
40
20.789827548720805
40
21.070959033551688
40
21.070959033551688
40
42.293968970342611
40
42.293968970342611
40
42.293968970342611
40
42.293968970342611
10
241.85801931146986
20
-384.73870849609392
30
0
10
241.94263184461124
20
-383.78552857199315
30
0
10
242.02703965059297
20
-382.83309329635676
30
0
10
248.46762361338338
20
-310.03878067910853
30
0
10
253.65254961616554
20
-242.43872039426094
30
0
10
257.97504289966309
20
-171.37870849609391
30
0
0
LINE
5
220
100
AcDbEntity
8
0
100
AcDbLine
10
219.45823262039272
20
-384.73870849609392
30
0
11
241.85801931146986
21
-384.73870849609392
31
0
0
ARC
5
221
100
AcDbEntity
8
0
100
AcDbCircle
10
142.27647313155052
20
70.504936533490493
30
0
40
2.8575000000000008
210
0
220
0
230
1
100
AcDbArc
50
-135.0000000000006
51
44.999999999999396
0
ARC
5
222
100
AcDbEntity
8
0
100
AcDbCircle
10
151.92825896287252
20
-72.639938466509363
30
0
40
2.8575000000000008
210
0
220
0
230
1
100
AcDbArc
50
-135.0000000000004
51
44.999999999997179
0
ARC
5
223
100
AcDbEntity
8
0
100
AcDbCircle
10
162.47768883509502
20
-277.78621346650891
30
0
40
2.8575000000000008
210
0
220
0
230
1
100
AcDbArc
50
-135.0000000000403
51
45.000000000013699
0
ARC
5
224
100
AcDbEntity
8
0
100
AcDbCircle
10
162.47768883509451
20
-263.31707872099065
30
0
40
2.8575000000000008
210
0
220
0
230
1
100
AcDbArc
50
-45
51
134.99999999999918
0
ARC
5
225
100
AcDbEntity
8
0
100
AcDbCircle
10
151.92825896287252
20
-58.170803720990527
30
0
40
2.8575000000000008
210
0
220
0
230
1
100
AcDbArc
50
-44.999999999997307
51
135.0000000000004
0
ARC
5
226
100
AcDbEntity
8
0
100
AcDbCircle
10
170.81395403576266
20
-506.11567872099056
30
0
40
2.8575000000000008
210
0
220
0
230
1
100
AcDbArc
50
-44.999999999996788
51
134.9999999999996
0
LINE
5
227
100
AcDbEntity
8
0
100
AcDbLine
10
123.70410570060839
20
68.484378906249958
30
0
11
140.25591550430994
21
68.484378906249958
31
0
0
LINE
5
228
100
AcDbEntity
8
0
100
AcDbLine
10
134.92410033811905
20
-74.660496093749913
30
0
11
149.90770133563194
21
-74.660496093749913
31
0
0
LINE
5
229
100
AcDbEntity
8
0
100
AcDbLine
10
136.05048005980504
20
-279.80677109373636
30
0
11
160.45713120785302
21
-279.80677109374807
31
0
0
LINE
5
230
100
AcDbEntity
8
0
100
AcDbLine
10
172.8345116630033
20
-522.60537109375002
30
0
11
172.83451166300335
21
-508.13623634823102
31
0
0
LINE
5
231
100
AcDbEntity
8
0
100
AcDbLine
10
144.2970307587911
20
72.525494160731029
30
0
11
144.2970307587911
21
86.994628906249943
31
0
0
LINE
5
232
100
AcDbEntity
8
0
100
AcDbLine
10
144.2970307587911
20
86.994628906249943
30
0
11
166.69681744986815
21
86.994628906250014
31
0
0
SPLINE
5
233
100
AcDbEntity
8
0
100
AcDbSpline
70
0
71
3
72
10
73
6
74
0
42
0.000000001
43
0.0000000001
44
0.0000000001
40
20.789827548720805
40
20.789827548720805
40
20.789827548720805
40
20.789827548720805
40
21.070959033551688
40
21.070959033551688
40
42.293968970342611
40
42.293968970342611
40
42.293968970342611
40
42.293968970342611
10
166.69681744986826
20
86.994628906249943
30
0
10
166.78142998300962
20
86.041448982149234
30
0
10
166.86583778899134
20
85.089013706512787
30
0
10
173.30642175178178
20
12.294701089264555
30
0
10
178.49134775456392
20
-55.305359195583002
30
0
10
182.81384103806147
20
-126.36537109375001
30
0
0
SPLINE
5
234
100
AcDbEntity
8
0
100
AcDbSpline
70
0
71
3
72
10
73
6
74
0
42
0.000000001
43
0.0000000001
44
0.0000000001
40
0
40
0
40
0
40
0
40
23.03714933893556
40
23.03714933893556
40
39.608112700447123
40
39.608112700447123
40
39.608112700447123
40
39.608112700447123
10
182.81384103806141
20
-126.36537109375006
30
0
10
186.05532797389188
20
-203.08742342729832
30
0
10
189.10821288418433
20
-280.06569898344844
30
0
10
193.93259115406119
20
-412.11127805574154
30
0
10
195.82626840755893
20
-467.34286281968718
30
0
10
197.58056863956193
20
-522.60537109375002
30
0
0
LINE
5
235
100
AcDbEntity
8
0
100
AcDbLine
10
197.58056863956193
20
-522.60537109375002
30
0
11
172.8345116630033
21
-522.60537109375002
31
0
0
LINE
5
236
100
AcDbEntity
8
0
100
AcDbLine
10
168.79339640852211
20
-504.09512109374998
30
0
11
152.51451166300336
21
-504.09512109374998
31
0
0
SPLINE
5
237
100
AcDbEntity
8
0
100
AcDbSpline
70
0
71
3
72
11
73
7
74
0
42
0.000000001
43
0.0000000001
44
0.0000000001
40
-37.614169011298159
40
-37.614169011298159
40
-37.614169011298159
40
-37.614169011298159
40
-23.03714933893556
40
-23.03714933893556
40
-23.03714933893556
40
-18.993571153572542
40
-18.993571153572542
40
-18.993571153572542
40
-18.993571153572542
10
152.51451166300336
20
-504.09512109374998
30
0
10
150.94409269815552
20
-455.55341603494952
30
0
10
149.26722309373707
20
-407.0282847603853
30
0
10
147.49383928026964
20
-358.48990748825656
30
0
10
147.00191393761057
20
-345.02567166385313
30
0
10
146.50238114373684
20
-331.55571817400948
30
0
10
145.99555570642548
20
-318.08239739878456
30
0
0
LINE
5
238
100
AcDbEntity
8
0
100
AcDbLine
10
145.99555570642548
20
-318.08239739878456
30
0
11
136.05048005980501
21
-300.85702109374074
31
0
0
LINE
5
239
100
AcDbEntity
8
0
100
AcDbLine
10
136.05048005980501
20
-300.85702109374074
30
0
11
136.05048005980504
21
-279.80677109373636
31
0
0
LINE
5
240
100
AcDbEntity
8
0
100
AcDbLine
10
164.49824646233509
20
-275.76565583926788
30
0
11
164.49824646233509
21
-265.33763634823123
31
0
0
LINE
5
241
100
AcDbEntity
8
0
100
AcDbLine
10
160.45713120785399
20
-261.29652109375007
30
0
11
143.81765953104431
21
-261.29652109375007
31
0
0
SPLINE
5
242
100
AcDbEntity
8
0
100
AcDbSpline
70
0
71
3
72
8
73
4
74
0
42
0.000000001
43
0.0000000001
44
0.0000000001
40
-13.314103190784106
40
-13.314103190784106
40
-13.314103190784106
40
-13.314103190784106
40
-0.041277976874700029
40
-0.041277976874700029
40
-0.041277976874700029
40
-0.041277976874700029
10
143.81765953104437
20
-261.29652109375013
30
0
10
142.08882708501559
20
-217.05525033717166
30
0
10
140.28618454176171
20
-172.81326820769291
30
0
10
138.42086556357197
20
-128.65369951903574
30
0
0
SPLINE
5
243
100
AcDbEntity
8
0
100
AcDbSpline
70
0
71
3
72
8
73
4
74
0
42
0.000000001
43
0.0000000001
44
0.0000000001
40
-42.252838267125888
40
-42.252838267125888
40
-42.252838267125888
40
-42.252838267125888
40
-36.78732488089112
40
-36.78732488089112
40
-36.78732488089112
40
-36.78732488089112
10
138.42086556357208
20
-128.65369951903571
30
0
10
137.31381962808166
20
-110.47181290321716
30
0
10
136.15007356897118
20
-92.518663010064699
30
0
10
134.92410033812124
20
-74.660496093782143
30
0
0
LINE
5
244
100
AcDbEntity
8
0
100
AcDbLine
10
153.94881659011318
20
-70.619380839268899
30
0
11
153.94881659011318
21
-60.191361348230998
31
0
0
LINE
5
245
100
AcDbEntity
8
0
100
AcDbLine
10
149.90770133563194
20
-56.150246093749978
30
0
11
133.62881659011319
21
-56.150246093749928
31
0
0
SPLINE
5
246
100
AcDbEntity
8
0
100
AcDbSpline
70
0
71
3
72
8
73
4
74
0
42
0.000000001
43
0.0000000001
44
0.0000000001
40
-34.896048003576041
40
-34.896048003576041
40
-34.896048003576041
40
-34.896048003576041
40
-22.235570068870803
40
-22.235570068870803
40
-22.235570068870803
40
-22.235570068870803
10
133.62881659011322
20
-56.150246093749942
30
0
10
130.68764334195052
20
-14.89822824760877
30
0
10
127.40230605838147
20
26.092477898109632
30
0
10
123.70410570060847
20
68.484378906249873
30
0
0
ARC
5
247
100
AcDbEntity
8
0
100
AcDbCircle
10
102.9830952146154
20
184.12919133149884
30
0
40
2.8575000000000177
210
-0
220
0
230
1
100
AcDbArc
50
-65.488023356729329
51
114.51197664328775
0
ARC
5
248
100
AcDbEntity
8
0
100
AcDbCircle
10
97.918730511500911
20
170.57529630321164
30
0
40
2.8574999999999955
210
0
220
0
230
1
100
AcDbArc
50
-155.48802335671164
51
24.511976643269612
0
LINE
5
249
100
AcDbEntity
8
0
100
AcDbLine
10
100.51869708641175
20
171.76082574584325
30
0
11
104.16862465724707
21
181.52922475658801
31
0
0
LINE
5
250
100
AcDbEntity
8
0
100
AcDbLine
10
78.622379237888921
20
175.6283116597865
30
0
11
95.318763936590457
21
169.38976686057919
31
0
0
ARC
5
251
100
AcDbEntity
8
0
100
AcDbCircle
10
63.35623878226734
20
-72.197630919216138
30
0
40
2.8574999999999955
210
0
220
0
230
1
100
AcDbArc
50
-139.14196883180327
51
40.858031168215554
0
ARC
5
252
100
AcDbEntity
8
0
100
AcDbCircle
10
64.401316094484145
20
-57.76628747186269
30
0
40
2.8574999999999995
210
-0
220
0
230
1
100
AcDbArc
50
-49.14196883177992
51
130.85803116819636
0
LINE
5
253
100
AcDbEntity
8
0
100
AcDbLine
10
42.643187618309838
20
-72.723498850990225
30
0
11
61.195017634069245
21
-74.066970213881845
31
0
0
ARC
5
254
100
AcDbEntity
8
0
100
AcDbCircle
10
60.571257478609084
20
-315.87254588546915
30
0
40
2.8575000000000017
210
-0
220
0
230
1
100
AcDbArc
50
-41.891214783639214
51
138.10878521650903
0
ARC
5
255
100
AcDbEntity
8
0
100
AcDbCircle
10
61.35594642105346
20
-330.32038736949676
30
0
40
2.8575000000000106
210
0
220
0
230
1
100
AcDbArc
50
-131.89121478349051
51
48.108785216359067
0
LINE
5
256
100
AcDbEntity
8
0
100
AcDbLine
10
63.263951810843452
20
-328.19322454485632
30
0
11
62.698420303249584
21
-317.78055127525909
31
0
0
LINE
5
257
100
AcDbEntity
8
0
100
AcDbLine
10
101.79756577198297
20
186.72915790640931
30
0
11
84.117250767470679
21
193.33534476722866
31
0
0
SPLINE
5
258
100
AcDbEntity
8
0
100
AcDbSpline
70
0
71
3
72
8
73
4
74
0
42
0.000000001
43
0.0000000001
44
0.0000000001
40
-3.0848896068389631
40
-3.0848896068389631
40
-3.0848896068389631
40
-3.0848896068389631
40
0
40
0
40
0
40
0
10
84.117250767470679
20
193.33534476722861
30
0
10
87.991691144375679
20
204.99793809939362
30
0
10
91.996484435897727
20
215.4295076773156
30
0
10
96.093004314217225
20
224.86125732422101
30
0
0
LINE
5
259
100
AcDbEntity
8
0
100
AcDbLine
10
96.093004314217239
20
224.86125732422099
30
0
11
153.64618438052517
21
224.86125732418859
31
0
0
LINE
5
260
100
AcDbEntity
8
0
100
AcDbLine
10
135.90984686147635
20
167.71125732419804
30
0
11
153.64618438052517
21
224.86125732418859
31
0
0
SPLINE
5
261
100
AcDbEntity
8
0
100
AcDbSpline
70
0
71
3
72
29
73
25
74
0
42
0.000000001
43
0.0000000001
44
0.0000000001
40
-32.76125030620409
40
-32.76125030620409
40
-32.76125030620409
40
-32.76125030620409
40
-31.614339500914944
40
-31.614339500914944
40
-31.614339500914944
40
-27.185321392552709
40
-27.185321392552709
40
-27.185321392552709
40
-26.492244342579681
40
-26.492244342579681
40
-26.492244342579681
40
-18.410989789436293
40
-18.410989789436293
40
-18.410989789436293
40
-12.167579032265756
40
-12.167579032265756
40
-12.167579032265756
40
-11.189873858561013
40
-11.189873858561013
40
-11.189873858561013
40
-4.9200489023836518
40
-4.9200489023836518
40
-4.9200489023836518
40
-3.8312893266752663
40
-3.8312893266752663
40
-3.8312893266752663
40
-3.8312893266752663
10
96.76565030973542
20
-419.09093926366785
30
0
10
96.46208355856281
20
-404.54959855509372
30
0
10
96.218174532656349
20
-389.88780737341278
30
0
10
96.010932014178323
20
-375.30146582869298
30
0
10
95.211318169051111
20
-319.02227787746369
30
0
10
94.960730502490023
20
-258.87247829871353
30
0
10
94.89524742214968
20
-235.57112101708628
30
0
10
94.885215147329092
20
-232.00125810397913
30
0
10
94.88425577101836
20
-228.42636233640923
30
0
10
94.891942752785496
20
-224.85165490983695
30
0
10
94.981519256105926
20
-183.19554053808699
30
0
10
96.304903052690136
20
-131.18800875168336
30
0
10
99.600257405294315
20
-77.614559551838639
30
0
10
102.14618027883311
20
-36.224816556682562
30
0
10
105.87623986401638
20
6.1326919164159932
30
0
10
111.03335568118197
20
45.255896130250903
30
0
10
111.84094932061157
20
51.382508755864649
30
0
10
112.68309753939242
20
57.428908057890027
30
0
10
113.56003269836748
20
63.377634973948638
30
0
10
119.18749088917366
20
101.5517367487822
30
0
10
125.63946876323122
20
131.70749042024562
30
0
10
132.37724214685136
20
155.73507998632934
30
0
10
133.54726130075804
20
159.90748805260083
30
0
10
134.72610590926763
20
163.89700901357236
30
0
10
135.90984686147635
20
167.71125732419796
30
0
0
LINE
5
262
100
AcDbEntity
8
0
100
AcDbLine
10
96.76565030973542
20
-419.09093926366785
30
0
11
97.958720479619217
21
-476.24093926366788
31
0
0
LINE
5
263
100
AcDbEntity
8
0
100
AcDbLine
10
97.958720479619217
20
-476.24093926366788
30
0
11
41.167854430613744
21
-476.24093926366726
31
0
0
SPLINE
5
264
100
AcDbEntity
8
0
100
AcDbSpline
70
0
71
3
72
10
73
6
74
0
42
0.000000001
43
0.0000000001
44
0.0000000001
40
-34.23774014852961
40
-34.23774014852961
40
-34.23774014852961
40
-34.23774014852961
40
-31.614339500914944
40
-31.614339500914944
40
-30.507971192741337
40
-30.507971192741337
40
-30.507971192741337
40
-30.507971192741337
10
41.167854430613744
20
-476.24093926366726
30
0
10
40.016091912626592
20
-443.83412425024073
30
0
10
39.34375563842309
20
-409.6899935380726
30
0
10
38.665510311990445
20
-361.95308098214917
30
0
10
38.497833169011884
20
-347.56965054691187
30
0
10
38.359572980628514
20
-333.59289839316745
30
0
0
LINE
5
265
100
AcDbEntity
8
0
100
AcDbLine
10
38.359572980628514
20
-333.59289839316745
30
0
11
59.44794103126906
21
-332.4475501941422
31
0
0
LINE
5
266
100
AcDbEntity
8
0
100
AcDbLine
10
58.44409465396366
20
-313.96454049568473
30
0
11
38.190476455605477
21
-315.06455188924218
31
0
0
SPLINE
5
267
100
AcDbEntity
8
0
100
AcDbSpline
70
0
71
3
72
12
73
8
74
0
42
0.000000001
43
0.0000000001
44
0.0000000001
40
-30.011085073598661
40
-30.011085073598661
40
-30.011085073598661
40
-30.011085073598661
40
-27.185321392552709
40
-27.185321392552709
40
-26.492244342579681
40
-26.492244342579681
40
-18.343174329766569
40
-18.343174329766569
40
-18.343174329766569
40
-18.343174329766569
10
38.19047645560623
20
-315.0645518892494
30
0
10
37.901580741564871
20
-280.62413485854756
30
0
10
37.787487068359837
20
-250.68188838674061
30
0
10
37.735168298212542
20
-232.06489069201464
30
0
10
37.734189747022171
20
-228.39561867883506
30
0
10
37.834786885075715
20
-181.61453510340439
30
0
10
39.206209779218852
20
-128.10848617134403
30
0
10
42.643187618309639
20
-72.723498850990865
30
0
0
LINE
5
268
100
AcDbEntity
8
0
100
AcDbLine
10
65.517459930464824
20
-70.32829162454972
30
0
11
66.270655389150733
21
-59.927508620060024
31
0
0
LINE
5
269
100
AcDbEntity
8
0
100
AcDbLine
10
62.531976799818452
20
-55.60506632366458
30
0
11
43.862868896445306
21
-54.253102025931739
31
0
0
SPLINE
5
270
100
AcDbEntity
8
0
100
AcDbSpline
70
0
71
3
72
10
73
6
74
0
42
0.000000001
43
0.0000000001
44
0.0000000001
40
-17.440120908264131
40
-17.440120908264131
40
-17.440120908264131
40
-17.440120908264131
40
-11.189873858561013
40
-11.189873858561013
40
-4.5685296101275394
40
-4.5685296101275394
40
-4.5685296101275394
40
-4.5685296101275394
10
43.862868896445306
20
-54.253102025931774
30
0
10
46.857133368354553
20
-11.534176822029849
30
0
10
51.127697637842004
20
31.734451482234718
30
0
10
63.26434091824197
20
114.06388691860364
30
0
10
70.596421662176283
20
147.93908744407054
30
0
10
78.622379237888467
20
175.62831165978551
30
0
0
ARC
5
271
100
AcDbEntity
8
0
100
AcDbCircle
10
184.74838744264531
20
253.57272022492327
30
0
40
2.8575000000000008
210
0
220
0
230
1
100
AcDbArc
50
134.99999999999639
51
315.0000000000008
0
ARC
5
272
100
AcDbEntity
8
0
100
AcDbCircle
10
184.74838744264537
20
268.04185497044216
30
0
40
2.8575000000000008
210
-0
220
0
230
1
100
AcDbArc
50
44.999999999999197
51
225.00000000000242
0
ARC
5
273
100
AcDbEntity
8
0
100
AcDbCircle
10
199.56044358383929
20
124.89697997044217
30
0
40
2.8575000000000008
210
-0
220
0
230
1
100
AcDbArc
50
44.999999999998593
51
224.9999999999992
0
LINE
5
274
100
AcDbEntity
8
0
100
AcDbLine
10
203.0478298154049
20
251.55216259768275
30
0
11
186.76894506988589
21
251.55216259768275
31
0
0
SPLINE
5
275
100
AcDbEntity
8
0
100
AcDbSpline
70
0
71
3
72
17
73
13
74
0
42
0.000000001
43
0.0000000001
44
0.0000000001
40
7.4296941033693846
40
7.4296941033693846
40
7.4296941033693846
40
7.4296941033693846
40
12.047649375755871
40
12.047649375755871
40
12.047649375755871
40
17.362811562685337
40
17.362811562685337
40
17.362811562685337
40
23.799850168419308
40
23.799850168419308
40
23.799850168419308
40
24.265899405142967
40
24.265899405142967
40
24.265899405142967
40
24.265899405142967
10
217.57450488507416
20
126.91753759768274
30
0
10
215.77211484827069
20
142.2879611205087
30
0
10
213.99845068702223
20
157.79522527014129
30
0
10
212.24535789034383
20
173.54365113991116
30
0
10
210.22759143036154
20
191.66969990227307
30
0
10
208.73498766889426
20
205.64488300151402
30
0
10
207.4805381275273
20
216.97958117335088
30
0
10
205.96131070929701
20
230.70670504096802
30
0
10
204.8054475067284
20
240.60142449902969
30
0
10
203.36591258447788
20
249.60876104541194
30
0
10
203.2616885471769
20
250.260902904343
30
0
10
203.15571021969998
20
250.90859272218108
30
0
10
203.04782981540473
20
251.55216259768267
30
0
0
LINE
5
276
100
AcDbEntity
8
0
100
AcDbLine
10
201.58100121107989
20
126.91753759768268
30
0
11
217.57450488507416
21
126.91753759768274
31
0
0
LINE
5
277
100
AcDbEntity
8
0
100
AcDbLine
10
197.53988595659871
20
108.40728759768271
30
0
11
197.53988595659871
21
122.87642234320165
31
0
0
LINE
5
278
100
AcDbEntity
8
0
100
AcDbLine
10
175.00163970023158
20
108.40728759768271
30
0
11
197.53988595659871
21
108.40728759768271
31
0
0
SPLINE
5
279
100
AcDbEntity
8
0
100
AcDbSpline
70
0
71
3
72
14
73
10
74
0
42
0.000000001
43
0.0000000001
44
0.0000000001
40
-46.825306812573558
40
-46.825306812573558
40
-46.825306812573558
40
-46.825306812573558
40
-34.36975520406741
40
-34.36975520406741
40
-27.632776814252789
40
-27.632776814252789
40
-12.047649375755871
40
-12.047649375755871
40
-6.0984769729565125
40
-6.0984769729565125
40
-6.0984769729565125
40
-6.0984769729565125
10
132.35616417269142
20
305.29607758869554
30
0
10
139.51744656416707
20
295.57624745944673
30
0
10
146.08740470668224
20
284.95913430429687
30
0
10
153.56546510127856
20
267.34667139756181
30
0
10
155.55544174305857
20
261.23983857505687
30
0
10
160.71694157006925
20
239.54506738140765
30
0
10
162.11881302978441
20
222.07088846488523
30
0
10
170.33925213957269
20
148.22483982288358
30
0
10
172.64474578149148
20
128.22503028005372
30
0
10
175.00163970023152
20
108.40728759768271
30
0
0
SPLINE
5
280
100
AcDbEntity
8
0
100
AcDbSpline
70
0
71
3
72
8
73
4
74
0
42
0.000000001
43
0.0000000001
44
0.0000000001
40
46.554291532629819
40
46.554291532629819
40
46.554291532629819
40
46.554291532629819
40
47.438830705373533
40
47.438830705373533
40
47.438830705373533
40
47.438830705373533
10
134.10263002933709
20
307.97848880243748
30
0
10
133.47716041370629
20
307.0441016507479
30
0
10
132.89671876952769
20
306.15034982298562
30
0
10
132.35616417269142
20
305.29607758869554
30
0
0
SPLINE
5
281
100
AcDbEntity
8
0
100
AcDbSpline
70
0
71
3
72
11
73
7
74
0
42
0.000000001
43
0.0000000001
44
0.0000000001
40
-4.6526669412907236
40
-4.6526669412907236
40
-4.6526669412907236
40
-4.6526669412907236
40
-4.638749088648157
40
-4.638749088648157
40
-4.638749088648157
40
-2.6401410758446548
40
-2.6401410758446548
40
-2.6401410758446548
40
-2.6401410758446548
10
121.28784082275267
20
323.83573534108956
30
0
10
121.31822316976226
20
323.80062657648193
30
0
10
121.348605516772
20
323.76551781187402
30
0
10
121.37898786378173
20
323.73040904726611
30
0
10
125.77903697807534
20
318.64586806143183
30
0
10
130.06096307774575
20
313.40654759110612
30
0
10
134.10263002933715
20
307.97848880243754
30
0
0
SPLINE
5
282
100
AcDbEntity
8
0
100
AcDbSpline
70
0
71
3
72
11
73
7
74
0
42
0.000000001
43
0.0000000001
44
0.0000000001
40
-0.65756301382047866
40
-0.65756301382047866
40
-0.65756301382047866
40
-0.65756301382047866
40
0
40
0
40
0
40
0.013928894876434375
40
0.013928894876434375
40
0.013928894876434375
40
0.013928894876434375
10
116.44768699931313
20
328.48790060821221
30
0
10
118.02706288485541
20
326.96681996021175
30
0
10
119.60698488150969
20
325.44824827939169
30
0
10
121.18732642285622
20
323.93216286134162
30
0
10
121.22083122282078
20
323.90002035459099
30
0
10
121.25433602278534
20
323.86787784784042
30
0
10
121.2878408227494
20
323.8357353410903
30
0
0
LINE
5
283
100
AcDbEntity
8
0
100
AcDbLine
10
144.96148089554595
20
358.57407090379115
30
0
11
116.44768699931313
21
328.48790060821221
31
0
0
SPLINE
5
284
100
AcDbEntity
8
0
100
AcDbSpline
70
0
71
3
72
11
73
7
74
0
42
0.000000001
43
0.0000000001
44
0.0000000001
40
-0.20637979245298702
40
-0.20637979245298702
40
-0.20637979245298702
40
-0.20637979245298702
40
0
40
0
40
0
40
0.69122865418538826
40
0.69122865418538826
40
0.69122865418538826
40
0.69122865418538826
10
151.37178945181125
20
352.41478832893046
30
0
10
150.87535999892202
20
352.89103313736246
30
0
10
150.37893054603268
20
353.3672779457948
30
0
10
149.88250109314316
20
353.84352275422714
30
0
10
148.24117228056033
20
355.41811572282171
30
0
10
146.60078405300456
20
356.99495771607292
30
0
10
144.96148089561581
20
358.57407090372374
30
0
0
SPLINE
5
285
100
AcDbEntity
8
0
100
AcDbSpline
70
0
71
3
72
11
73
7
74
0
42
0.000000001
43
0.0000000001
44
0.0000000001
40
3.4284420559307165
40
3.4284420559307165
40
3.4284420559307165
40
3.4284420559307165
40
4.638749088648157
40
4.638749088648157
40
4.638749088648157
40
4.8449652719378609
40
4.8449652719378609
40
4.8449652719378609
40
4.8449652719378609
10
161.62892056414569
20
340.15181854465072
30
0
10
158.67781362562357
20
343.85434689677447
30
0
10
155.69755018880772
20
347.41609236193767
30
0
10
152.72228477618825
20
350.85420374234388
30
0
10
152.27211966806166
20
351.37439860453918
30
0
10
151.82195455993508
20
351.89459346673436
30
0
10
151.37178945180835
20
352.41478832892966
30
0
0
LINE
5
286
100
AcDbEntity
8
0
100
AcDbLine
10
161.7764583584071
20
340.30206769219319
30
0
11
161.62892056414569
21
340.15181854465072
31
0
0
LINE
5
287
100
AcDbEntity
8
0
100
AcDbLine
10
168.14212284138193
20
331.66210994403446
30
0
11
161.7764583584071
21
340.30206769219319
31
0
0
SPLINE
5
288
100
AcDbEntity
8
0
100
AcDbSpline
70
0
71
3
72
14
73
10
74
0
42
0.000000001
43
0.0000000001
44
0.0000000001
40
28.93459412520259
40
28.93459412520259
40
28.93459412520259
40
28.93459412520259
40
34.36975520406741
40
34.36975520406741
40
34.36975520406741
40
35.528188336464119
40
35.528188336464119
40
35.528188336464119
40
46.825306812573558
40
46.825306812573558
40
46.825306812573558
40
46.825306812573558
10
199.06166077996693
20
270.06241259768279
30
0
10
197.14460980383447
20
277.11801438131022
30
0
10
194.74500792332779
20
284.09500780726694
30
0
10
191.85526815636797
20
290.90097509959776
30
0
10
191.23926542246778
20
292.35179586444519
30
0
10
190.60676161282493
20
293.78415780813486
30
0
10
189.95943138677654
20
295.19827534534619
30
0
10
183.64662311815886
20
308.98884547861644
30
0
10
175.96883289245591
20
321.03911143501364
30
0
10
168.14212284138216
20
331.66210994403423
30
0
0
LINE
5
289
100
AcDbEntity
8
0
100
AcDbLine
10
186.76894506988594
20
270.06241259768268
30
0
11
199.06166077996693
21
270.06241259768279
31
0
0
LINE
5
290
100
AcDbEntity
8
0
100
AcDbLine
10
182.72782981540487
20
255.59327785216396
30
0
11
182.7278298154049
21
266.02129734320152
31
0
0
ARC
5
291
100
AcDbEntity
8
0
100
AcDbCircle
10
3.0601696454138505
20
305.77155851937766
30
0
40
2.8574999999999964
210
0
220
0
230
1
100
AcDbArc
50
225.90657300988906
51
284.69780899670474
0
ARC
5
292
100
AcDbEntity
8
0
100
AcDbCircle
10
27.945969641266828
20
231.44883466507622
30
0
40
2.8575000000000039
210
0
220
-0
230
1
100
AcDbArc
50
44.999999999999545
51
224.9999999999996
0
ARC
5
293
100
AcDbEntity
8
0
100
AcDbCircle
10
27.945969641266828
20
216.97969991955739
30
0
40
2.8575000000000008
210
0
220
0
230
1
100
AcDbArc
50
135.0000000000008
51
315.00000000000034
0
ARC
5
294
100
AcDbEntity
8
0
100
AcDbCircle
10
18.824854386785503
20
305.02812081658789
30
0
40
2.8574999999999946
210
0
220
0
230
1
100
AcDbArc
50
-134.9999999999994
51
44.999999999999197
0
ARC
5
295
100
AcDbEntity
8
0
100
AcDbCircle
10
33.741401802069291
20
88.303959665076391
30
0
40
2.8574999999999977
210
0
220
-0
230
1
100
AcDbArc
50
44.999999999999702
51
224.99999999999937
0
LINE
5
296
100
AcDbEntity
8
0
100
AcDbLine
10
25.92541201402625
20
229.42827703783567
30
0
11
25.92541201402625
21
219.00025754679791
31
0
0
LINE
5
297
100
AcDbEntity
8
0
100
AcDbLine
10
29.966527268507402
20
214.95914229231684
30
0
11
46.245412014026272
21
214.95914229231681
31
0
0
LINE
5
298
100
AcDbEntity
8
0
100
AcDbLine
10
3.785177276801619
20
303.00756318934731
30
0
11
16.804296759544968
21
303.00756318934731
31
0
0
LINE
5
299
100
AcDbEntity
8
0
100
AcDbLine
10
20.845412014026081
20
307.04867844382841
30
0
11
20.845412014026131
21
353.80756318934732
31
0
0
LINE
5
300
100
AcDbEntity
8
0
100
AcDbLine
10
20.845412014026131
20
353.80756318934732
30
0
11
46.245412014026144
21
353.80756318934732
31
0
0
LINE
5
301
100
AcDbEntity
8
0
100
AcDbLine
10
46.245412014026144
20
353.80756318934732
30
0
11
46.2454120140263
21
233.46939229231677
31
0
0
LINE
5
302
100
AcDbEntity
8
0
100
AcDbLine
10
46.2454120140263
20
233.46939229231677
30
0
11
29.966527268507409
21
233.46939229231677
31
0
0
LINE
5
303
100
AcDbEntity
8
0
100
AcDbLine
10
46.245412014026272
20
214.95914229231681
30
0
11
46.245412014026371
21
182.44353799275532
31
0
0
SPLINE
5
304
100
AcDbEntity
8
0
100
AcDbSpline
70
0
71
3
72
11
73
7
74
0
42
0.000000001
43
0.0000000001
44
0.0000000001
40
-0.53778622779183538
40
-0.53778622779183538
40
-0.53778622779183538
40
-0.53778622779183538
40
-0.4833758566286403
40
-0.4833758566286403
40
-0.4833758566286403
40
-0.43629153165084117
40
-0.43629153165084117
40
-0.43629153165084117
40
-0.43629153165084117
10
46.24541201402689
20
182.44353799274427
30
0
10
46.922477531370276
20
169.40910576217885
30
0
10
47.815689418402712
20
154.42512237822547
30
0
10
48.949967000244925
20
137.65682629314193
30
0
10
49.931540532422233
20
123.14599060325931
30
0
10
51.093377320108488
20
107.29858512342217
30
0
10
52.440687350358914
20
90.324517292316955
30
0
0
LINE
5
305
100
AcDbEntity
8
0
100
AcDbLine
10
52.440687350358921
20
90.324517292316955
30
0
11
35.761959429309861
21
90.324517292316941
31
0
0
LINE
5
306
100
AcDbEntity
8
0
100
AcDbLine
10
31.720844174828713
20
86.283402037835856
30
0
11
31.720844174828709
21
71.814267292316956
31
0
0
LINE
5
307
100
AcDbEntity
8
0
100
AcDbLine
10
31.720844174828709
20
71.814267292316956
30
0
11
9.3444791205924105
21
71.81426729231697
31
0
0
LINE
5
308
100
AcDbEntity
8
0
100
AcDbLine
10
9.3444791205924105
20
71.81426729231697
30
0
11
9.3316608172554893
21
71.96948974529856
31
0
0
SPLINE
5
309
100
AcDbEntity
8
0
100
AcDbSpline
70
0
71
3
72
8
73
4
74
0
42
0.000000001
43
0.0000000001
44
0.0000000001
40
0.42294905593237719
40
0.42294905593237719
40
0.42294905593237719
40
0.42294905593237719
40
0.42614141616908835
40
0.42614141616908835
40
0.42614141616908835
40
0.42614141616908835
10
9.3316607555521802
20
71.969489740204068
30
0
10
9.2322276862662864
20
73.173799769384928
30
0
10
9.1336223051160115
20
74.373612108563179
30
0
10
9.0359206951202964
20
75.567922496648819
30
0
0
SPLINE
5
310
100
AcDbEntity
8
0
100
AcDbSpline
70
0
71
3
72
35
73
31
74
0
42
0.000000001
43
0.0000000001
44
0.0000000001
40
0.42614141616908841
40
0.42614141616908841
40
0.42614141616908841
40
0.42614141616908841
40
0.4833758566286403
40
0.4833758566286403
40
0.4833758566286403
40
0.55114709347475999
40
0.55114709347475999
40
0.55114709347475999
40
0.61226052255469354
40
0.61226052255469354
40
0.61226052255469354
40
0.66970454298539783
40
0.66970454298539783
40
0.66970454298539783
40
0.6982383803034613
40
0.6982383803034613
40
0.6982383803034613
40
0.73544232348164629
40
0.73544232348164629
40
0.73544232348164629
40
0.77464440606972373
40
0.77464440606972373
40
0.77464440606972373
40
0.8162293532233833
40
0.8162293532233833
40
0.8162293532233833
40
0.86075136732942248
40
0.86075136732942248
40
0.86075136732942248
40
0.90263039007560497
40
0.90263039007560497
40
0.90263039007560497
40
0.90263039007560497
10
9.0359206951202964
20
75.567922496648819
30
0
10
7.2842709546564777
20
96.980194837045261
30
0
10
5.8094646367494107
20
116.79653437149575
30
0
10
4.6013150284406379
20
134.65689824670849
30
0
10
3.1707464303585198
20
155.80533510790809
30
0
10
2.1149471879299142
20
174.20263340593519
30
0
10
1.3852943391247408
20
189.5843496748227
30
0
10
0.72732217123181897
20
203.45497488505359
30
0
10
0.33653773355936778
20
214.88119446700594
30
0
10
0.12673494637454041
20
223.90417651929391
30
0
10
-0.070470737791836768
20
232.3853953473124
30
0
10
-0.10987425717971178
20
238.73152139078729
30
0
10
-0.11330963871287736
20
243.2069058181801
30
0
10
-0.11501607598965791
20
245.42993774090331
30
0
10
-0.10841797694865818
20
247.19632667703445
30
0
10
-0.1101793191551792
20
248.57924259965876
30
0
10
-0.11247585132643678
20
250.38236234244056
30
0
10
-0.12852051100225026
20
251.53132445462631
30
0
10
-0.19700678050959652
20
252.27441616611486
30
0
10
-0.26917129222589153
20
253.05741764810216
30
0
10
-0.39775918399939769
20
253.39525547738614
30
0
10
-0.64975463704932679
20
253.62739745574601
30
0
10
-0.91706741499933742
20
253.87364998277826
30
0
10
-1.32063620107985
20
254.00914679391792
30
0
10
-1.9998017414127389
20
254.38378256811802
30
0
10
-2.726935472166403
20
254.78487816556901
30
0
10
-3.7719024918738597
20
255.46304787657795
30
0
10
-5.3864496241691739
20
256.68192724089118
30
0
10
-6.9051512695425998
20
257.82844941981477
30
0
10
-8.9323301049864767
20
259.45281281704126
30
0
10
-11.698624124688024
20
261.62958773507978
30
0
0
LINE
5
311
100
AcDbEntity
8
0
100
AcDbLine
10
-11.698624124688024
20
261.62958773507978
30
0
11
-9.8426520445407562
21
263.98657047530389
31
0
0
SPLINE
5
312
100
AcDbEntity
8
0
100
AcDbSpline
70
0
71
3
72
14
73
10
74
0
42
0.000000001
43
0.0000000001
44
0.0000000001
40
0.9026303900756053
40
0.9026303900756053
40
0.9026303900756053
40
0.9026303900756053
40
0.9072793969755093
40
0.9072793969755093
40
0.9072793969755093
40
0.95420596107502564
40
0.95420596107502564
40
0.95420596107502564
40
0.97436920053677512
40
0.97436920053677512
40
0.97436920053677512
40
0.97436920053677512
10
-9.8426520445407562
20
263.98657047530389
30
0
10
-10.152514834131878
20
264.23056746193561
30
0
10
-10.470948430667377
20
264.48046975364929
30
0
10
-10.79836164517765
20
264.73686171078793
30
0
10
-14.107633021487231
20
267.3282982419737
30
0
10
-18.414434376818392
20
270.63032083893904
30
0
10
-23.974906985171245
20
274.55339771038103
30
0
10
-26.364191262335694
20
276.23910799928046
30
0
10
-28.982760817917921
20
278.03786657372194
30
0
10
-31.844957792470368
20
279.94387653017623
30
0
0
SPLINE
5
313
100
AcDbEntity
8
0
100
AcDbSpline
70
0
71
3
72
8
73
4
74
0
42
0.000000001
43
0.0000000001
44
0.0000000001
40
0.97436920053677512
40
0.97436920053677512
40
0.97436920053677512
40
0.97436920053677512
40
0.97491979145652219
40
0.97491979145652219
40
0.97491979145652219
40
0.97491979145652219
10
-31.844957792470439
20
279.94387653017628
30
0
10
-31.923124687356683
20
279.99592985887551
30
0
10
-32.001471588082183
20
280.04806140134099
30
0
10
-32.07999862127555
20
280.10027114510882
30
0
0
LINE
5
314
100
AcDbEntity
8
0
100
AcDbLine
10
-32.079998621275557
20
280.10027114510882
30
0
11
-6.0108408107241207
21
307.7094531626139
31
0
0
LINE
5
315
100
AcDbEntity
8
0
100
AcDbLine
10
-6.0108408107241207
20
307.7094531626139
30
0
11
1.0718342543048289
21
303.71928450685806
31
0
0
ARC
5
316
100
AcDbEntity
8
0
100
AcDbCircle
10
-2.5025004885037561
20
-489.06559269868666
30
0
40
2.8575000000000261
210
0
220
0
230
1
100
AcDbArc
50
-114.51197664329027
51
65.488023356731276
0
ARC
5
317
100
AcDbEntity
8
0
100
AcDbCircle
10
-7.5668651916182483
20
-475.51169767039943
30
0
40
2.8575000000000013
210
-0
220
0
230
1
100
AcDbArc
50
-24.511976643273421
51
155.48802335671144
0
LINE
5
318
100
AcDbEntity
8
0
100
AcDbLine
10
-21.368344935648498
20
-498.2717461344165
30
0
11
-3.688029931136299
21
-491.66555927359707
31
0
0
LINE
5
319
100
AcDbEntity
8
0
100
AcDbLine
10
-1.3169710458721873
20
-486.46562612377579
30
0
11
-4.9668986167074927
21
-476.6972271130312
31
0
0
LINE
5
320
100
AcDbEntity
8
0
100
AcDbLine
10
-10.166831766528679
20
-474.32616822776697
30
0
11
-26.863216465230401
21
-480.5647130269744
31
0
0
SPLINE
5
321
100
AcDbEntity
8
0
100
AcDbSpline
70
0
71
3
72
10
73
6
74
0
42
0.000000001
43
0.0000000001
44
0.0000000001
40
-115.83431182268266
40
-115.83431182268266
40
-115.83431182268266
40
-115.83431182268266
40
-83.664670644064927
40
-83.664670644064927
40
-83.276530745205775
40
-83.276530745205775
40
-83.276530745205775
40
-83.276530745205775
10
-26.863216465231403
20
-480.56471302697128
30
0
10
-39.482202681353442
20
-437.02972851987761
30
0
10
-53.131574848595662
20
-368.73702795390147
30
0
10
-61.428211925496825
20
-253.44015520348808
30
0
10
-61.52602149824439
20
-252.06298603106097
30
0
10
-61.622726806749455
20
-250.68329934017814
30
0
0
LINE
5
322
100
AcDbEntity
8
0
100
AcDbLine
10
-61.622726806749455
20
-250.68329934017814
30
0
11
-42.953618903300708
21
-249.33133504352315
31
0
0
ARC
5
323
100
AcDbEntity
8
0
100
AcDbCircle
10
-41.084279608634944
20
-247.17011389532504
30
0
40
2.8575000000000434
210
0
220
0
230
1
100
AcDbArc
50
-130.85803116819744
51
49.141968831781824
0
LINE
5
324
100
AcDbEntity
8
0
100
AcDbLine
10
-39.214940313968427
20
-245.00889274712765
30
0
11
-39.968135772654264
21
-234.60810974263805
31
0
0
ARC
5
325
100
AcDbEntity
8
0
100
AcDbCircle
10
-42.129356920851748
20
-232.7387704479716
30
0
40
2.857500000000015
210
-0
220
0
230
1
100
AcDbArc
50
-40.858031168216009
51
139.14196883180264
0
LINE
5
326
100
AcDbEntity
8
0
100
AcDbLine
10
-44.290578069049829
20
-230.86943115330587
30
0
11
-62.842408084809385
21
-232.21290251619757
31
0
0
SPLINE
5
327
100
AcDbEntity
8
0
100
AcDbSpline
70
0
71
3
72
12
73
8
74
0
42
0.000000001
43
0.0000000001
44
0.0000000001
40
-81.557292415347419
40
-81.557292415347419
40
-81.557292415347419
40
-81.557292415347419
40
-66.912148826632659
40
-66.912148826632659
40
-63.287285880396858
40
-63.287285880396858
40
-61.439159568971711
40
-61.439159568971711
40
-61.439159568971711
40
-61.439159568971711
10
-62.842408084809378
20
-232.21290251619675
30
0
10
-66.119076710006723
20
-179.41120906461066
30
0
10
-67.810295127256381
20
-123.85767957330319
30
0
10
-67.731408180542374
20
-59.961103016061074
30
0
10
-67.622945754254431
20
-37.15609143062499
30
0
10
-67.445387436250783
20
-9.0503220229301906
30
0
10
-67.375537223386388
20
0.54120100281250139
30
0
10
-67.295119247842337
20
10.128150482794469
30
0
0
LINE
5
328
100
AcDbEntity
8
0
100
AcDbLine
10
-67.295119247842337
20
10.128150482794467
30
0
11
-47.041501049155563
21
9.0281391284970667
31
0
0
ARC
5
329
100
AcDbEntity
8
0
100
AcDbCircle
10
-44.914338224510004
20
10.936144518281408
30
0
40
2.8575000000000319
210
0
220
0
230
1
100
AcDbArc
50
-138.10878521651202
51
41.891214783641153
0
LINE
5
330
100
AcDbEntity
8
0
100
AcDbLine
10
-42.787175399869568
20
12.844149908071413
30
0
11
-42.221643892275694
21
23.256823177668426
31
0
0
ARC
5
331
100
AcDbEntity
8
0
100
AcDbCircle
10
-44.129649282065628
20
25.383986002308951
30
0
40
2.8575000000000155
210
-0
220
0
230
1
100
AcDbArc
50
-48.108785216361092
51
131.89121478348918
0
LINE
5
332
100
AcDbEntity
8
0
100
AcDbLine
10
-46.037654671849992
20
27.51114882695445
30
0
11
-67.126022722186661
21
28.656497025963272
31
0
0
SPLINE
5
333
100
AcDbEntity
8
0
100
AcDbSpline
70
0
71
3
72
10
73
6
74
0
42
0.000000001
43
0.0000000001
44
0.0000000001
40
-60.246371138060255
40
-60.246371138060255
40
-60.246371138060255
40
-60.246371138060255
40
-59.794027360306558
40
-59.794027360306558
40
-49.613505957921113
40
-49.613505957921113
40
-49.613505957921113
40
-49.613505957921113
10
-67.126022722558432
20
28.656497019118152
30
0
10
-67.102931446324163
20
30.990799095754795
30
0
10
-67.079180877573634
20
33.320755766015999
30
0
10
-66.505177795607651
20
87.950652333106291
30
0
10
-65.692035978947061
20
132.6363978675744
30
0
10
-64.317741272504918
20
171.3045378964934
30
0
0
LINE
5
334
100
AcDbEntity
8
0
100
AcDbLine
10
-64.317741272504918
20
171.3045378964934
30
0
11
-7.5239664465094336
21
171.30453789649266
31
0
0
LINE
5
335
100
AcDbEntity
8
0
100
AcDbLine
10
-8.7207322955773492
20
114.15453789649251
30
0
11
-7.5239664465094336
21
171.30453789649266
31
0
0
SPLINE
5
336
100
AcDbEntity
8
0
100
AcDbSpline
70
0
71
3
72
26
73
22
74
0
42
0.000000001
43
0.0000000001
44
0.0000000001
40
-118.15155282791035
40
-118.15155282791035
40
-118.15155282791035
40
-118.15155282791035
40
-106.00647778560767
40
-106.00647778560767
40
-106.00647778560767
40
-83.664670644064927
40
-83.664670644064927
40
-83.664670644064927
40
-66.912148826632659
40
-66.912148826632659
40
-66.912148826632659
40
-64.508008903417007
40
-64.508008903417007
40
-64.508008903417007
40
-63.287285880396858
40
-63.287285880396858
40
-63.287285880396858
40
-59.794027360306558
40
-59.794027360306558
40
-59.794027360306558
40
-54.190903248875756
40
-54.190903248875756
40
-54.190903248875756
40
-54.190903248875756
10
30.424396222745429
20
-472.64765869090161
30
0
10
26.281224587622418
20
-459.3044092774478
30
0
10
21.83748201643489
20
-442.69204576572599
30
0
10
17.410265923625232
20
-421.46854286830342
30
0
10
9.2660586811862089
20
-382.42626384157069
30
0
10
1.2218630074066539
20
-327.82013614605347
30
0
10
-4.3266945827402736
20
-250.71282959644117
30
0
10
-8.4855106774187306
20
-192.91851057102627
30
0
10
-10.667591122309972
20
-129.80254322620937
30
0
10
-10.597103310419342
20
-72.709068875534115
30
0
10
-10.586920247312719
20
-64.461026601284857
30
0
10
-10.536005628502423
20
-51.617967180371799
30
0
10
-10.46860809466807
20
-38.520503458238935
30
0
10
-10.434386408795291
20
-31.870151973125061
30
0
10
-10.395934438430814
20
-25.146463698561085
30
0
10
-10.356485984560919
20
-18.902153882929767
30
0
10
-10.243599076567236
20
-1.0332450033620155
30
0
10
-10.095523351625175
20
17.189123409499878
30
0
10
-9.9079160241792863
20
35.044374044209391
30
0
10
-9.6068849719013372
20
63.694560369171072
30
0
10
-9.2268734187211265
20
89.984425413591808
30
0
10
-8.7207322955773492
20
114.15453789649251
30
0
0
LINE
5
337
100
AcDbEntity
8
0
100
AcDbLine
10
30.424396222745429
20
-472.64765869090161
30
0
11
48.169868229629522
21
-529.79765869091068
31
0
0
LINE
5
338
100
AcDbEntity
8
0
100
AcDbLine
10
48.169868229629522
20
-529.79765869091068
30
0
11
-9.3925913890558377
21
-529.79765869088078
31
0
0
SPLINE
5
339
100
AcDbEntity
8
0
100
AcDbSpline
70
0
71
3
72
8
73
4
74
0
42
0.000000001
43
0.0000000001
44
0.0000000001
40
-130.14867424149639
40
-130.14867424149639
40
-130.14867424149639
40
-130.14867424149639
40
-120.56864860590957
40
-120.56864860590957
40
-120.56864860590957
40
-120.56864860590957
10
-9.3925913890558377
20
-529.79765869105472
30
0
10
-13.687696645053578
20
-519.90868983819837
30
0
10
-17.66439247452503
20
-509.42114761527307
30
0
10
-21.36834493564848
20
-498.2717461344165
30
0
0
ARC
5
340
100
AcDbEntity
8
0
100
AcDbCircle
10
-108.46874860657721
20
183.4594147787854
30
0
40
2.857500000000007
210
-0
220
0
230
1
100
AcDbArc
50
-65.48802335672805
51
114.51197664327042
0
ARC
5
341
100
AcDbEntity
8
0
100
AcDbCircle
10
-113.5331133096917
20
169.90551975049817
30
0
40
2.8574999999999937
210
0
220
0
230
1
100
AcDbArc
50
-155.48802335672963
51
24.511976643270255
0
LINE
5
342
100
AcDbEntity
8
0
100
AcDbLine
10
-110.93314673478088
20
171.09104919312981
30
0
11
-107.28321916394549
21
180.85944820387459
31
0
0
LINE
5
343
100
AcDbEntity
8
0
100
AcDbLine
10
-132.38267810104196
20
174.79159492597648
30
0
11
-116.13307988460251
21
168.71999030786654
31
0
0
ARC
5
344
100
AcDbEntity
8
0
100
AcDbCircle
10
-144.34913001237936
20
-315.42045422696714
30
0
40
2.8574999999999977
210
-0
220
0
230
1
100
AcDbArc
50
-41.891214783638098
51
138.10878521639296
0
ARC
5
345
100
AcDbEntity
8
0
100
AcDbCircle
10
-143.56444106993501
20
-329.86829571099463
30
0
40
2.8575000000000128
210
0
220
0
230
1
100
AcDbArc
50
-131.89121478360502
51
48.108785216358648
0
LINE
5
346
100
AcDbEntity
8
0
100
AcDbLine
10
-146.47629283702094
20
-313.5124488371784
30
0
11
-166.2450974851717
21
-314.58612911183371
31
0
0
LINE
5
347
100
AcDbEntity
8
0
100
AcDbLine
10
-109.65427804920886
20
186.05938135369624
30
0
11
-127.33210777259515
21
192.66463959805623
31
0
0
SPLINE
5
348
100
AcDbEntity
8
0
100
AcDbSpline
70
0
71
3
72
8
73
4
74
0
42
0.000000001
43
0.0000000001
44
0.0000000001
40
-3.3143230516789921
40
-3.3143230516789921
40
-3.3143230516789921
40
-3.3143230516789921
40
-0.27219439260006389
40
-0.27219439260006389
40
-0.27219439260006389
40
-0.27219439260006389
10
-127.33210777259515
20
192.6646395980562
30
0
10
-123.68757809074921
20
204.66134994034363
30
0
10
-119.90419872595439
20
215.30530468111971
30
0
10
-116.02750484966961
20
224.86125732421868
30
0
0
LINE
5
349
100
AcDbEntity
8
0
100
AcDbLine
10
-116.02750484966961
20
224.86125732421868
30
0
11
-54.291346707578825
21
224.86125732421868
31
0
0
LINE
5
350
100
AcDbEntity
8
0
100
AcDbLine
10
-54.291346707578825
20
224.86125732421868
30
0
11
-63.069487971807447
21
203.37705502662169
31
0
0
SPLINE
5
351
100
AcDbEntity
8
0
100
AcDbSpline
70
0
71
3
72
29
73
25
74
0
42
0.000000001
43
0.0000000001
44
0.0000000001
40
0.27219439260006389
40
0.27219439260006389
40
0.27219439260006389
40
0.27219439260006389
40
4.5952448220198958
40
4.5952448220198958
40
4.5952448220198958
40
10.523815367779276
40
10.523815367779276
40
10.523815367779276
40
15.258286312355878
40
15.258286312355878
40
15.258286312355878
40
21.980440740442148
40
21.980440740442148
40
21.980440740442148
40
26.069584010313363
40
26.069584010313363
40
26.069584010313363
40
28.895800293861683
40
28.895800293861683
40
28.895800293861683
40
30.658035318556376
40
30.658035318556376
40
30.658035318556376
40
31.407992595528711
40
31.407992595528711
40
31.407992595528711
40
31.407992595528711
10
-63.069487971807447
20
203.37705502662175
30
0
10
-67.601343452277192
20
192.20614555098379
30
0
10
-72.184601779913109
20
178.73016586284257
30
0
10
-76.641449723712398
20
162.0328088436419
30
0
10
-82.753508298537426
20
139.13428831230794
30
0
10
-88.606209396030025
20
110.18824959311324
30
0
10
-93.654672367851148
20
73.300265445534649
30
0
10
-97.684517908200306
20
43.855089906103828
30
0
10
-100.83245080331579
20
11.958731227559056
30
0
10
-103.22370303600465
20
-20.423913491623757
30
0
10
-106.61888002046872
20
-66.40183608117006
30
0
10
-108.4965181199783
20
-113.37116777513029
30
0
10
-109.39817754965659
20
-156.12465674923979
30
0
10
-109.94648378508295
20
-182.12339176951156
30
0
10
-110.17402662637643
20
-208.67685906448654
30
0
10
-110.03727299533786
20
-234.56215424683705
30
0
10
-109.9418001975635
20
-252.63364188124089
30
0
10
-109.71923390612162
20
-277.40378041982171
30
0
10
-109.26088630170057
20
-304.66172854241711
30
0
10
-108.97509210870204
20
-321.65791923120651
30
0
10
-108.5897636422952
20
-340.08980000405609
30
0
10
-108.07036093922356
20
-358.87450140352905
30
0
10
-107.84931787096701
20
-366.86873787759293
30
0
10
-107.6036220687233
20
-374.9291913343917
30
0
10
-107.33122506378533
20
-382.96799670232929
30
0
0
ARC
5
352
100
AcDbEntity
8
0
100
AcDbCircle
10
-120.65763390099875
20
-391.59484157768463
30
0
40
15.875000000000195
210
0
220
-0
230
1
100
AcDbArc
50
32.916983139283893
51
331.24073758759005
0
SPLINE
5
353
100
AcDbEntity
8
0
100
AcDbSpline
70
0
71
3
72
11
73
7
74
0
42
0.000000001
43
0.0000000001
44
0.0000000001
40
31.915557052048918
40
31.915557052048918
40
31.915557052048918
40
31.915557052048918
40
33.460825299962963
40
33.460825299962963
40
33.460825299962963
40
35.784659320271501
40
35.784659320271501
40
35.784659320271501
40
35.784659320271501
10
-106.74083121962602
20
-399.23278816873506
30
0
10
-106.1031604031716
20
-415.65324251446475
30
0
10
-105.34624211937629
20
-431.72932105176824
30
0
10
-104.45215664054594
20
-446.69239199663832
30
0
10
-103.10608654201843
20
-469.21970382300174
30
0
10
-101.49984598701373
20
-488.63571457092587
30
0
10
-99.580306628050437
20
-505.47088493478873
30
0
0
LINE
5
354
100
AcDbEntity
8
0
100
AcDbLine
10
-99.580306628050437
20
-505.47088493478884
30
0
11
-157.07387616341947
21
-505.47088493478924
31
0
0
SPLINE
5
355
100
AcDbEntity
8
0
100
AcDbSpline
70
0
71
3
72
10
73
6
74
0
42
0.000000001
43
0.0000000001
44
0.0000000001
40
-35.512644411381793
40
-35.512644411381793
40
-35.512644411381793
40
-35.512644411381793
40
-33.460825299962963
40
-33.460825299962963
40
-29.801429532795666
40
-29.801429532795666
40
-29.801429532795666
40
-29.801429532795666
10
-157.07387616341944
20
-505.47088493478958
30
0
10
-158.82260120021456
20
-488.95692894402458
30
0
10
-160.27267959817755
20
-470.64792390839335
30
0
10
-163.69003887598836
20
-413.4563124476108
30
0
10
-165.03988974394403
20
-371.29423061433897
30
0
10
-165.87331106800093
20
-333.10346715354063
30
0
0
LINE
5
356
100
AcDbEntity
8
0
100
AcDbLine
10
-165.8733110680009
20
-333.10346715354058
30
0
11
-145.47244645972367
21
-331.99545853563626
31
0
0
LINE
5
357
100
AcDbEntity
8
0
100
AcDbLine
10
-141.65643568014499
20
-327.74113288635419
30
0
11
-142.22196718773884
21
-317.32845961675702
31
0
0
SPLINE
5
358
100
AcDbEntity
8
0
100
AcDbSpline
70
0
71
3
72
14
73
10
74
0
42
0.000000001
43
0.0000000001
44
0.0000000001
40
-29.198298748135144
40
-29.198298748135144
40
-29.198298748135144
40
-29.198298748135144
40
-28.895800293861683
40
-28.895800293861683
40
-26.069584010313363
40
-26.069584010313363
40
-21.980440740442148
40
-21.980440740442148
40
-17.961380620288853
40
-17.961380620288853
40
-17.961380620288853
40
-17.961380620288853
10
-166.24509748517147
20
-314.58612911183377
30
0
10
-166.30075194021543
20
-311.5586693703255
30
0
10
-166.35326325245472
20
-308.56903342670694
30
0
10
-166.86570448215514
20
-278.09413551010613
30
0
10
-167.08998456993589
20
-253.12827387458978
30
0
10
-167.32608441083988
20
-208.43831553204953
30
0
10
-167.09402872956929
20
-181.40440978665211
30
0
10
-165.98648886929789
20
-128.88880173562006
30
0
10
-165.07937064448271
20
-101.30396592362931
30
0
10
-163.69617028207557
20
-73.223541479967551
30
0
0
LINE
5
359
100
AcDbEntity
8
0
100
AcDbLine
10
-163.69617028207557
20
-73.223541479967537
30
0
11
-145.73862871972565
21
-74.523976144175037
31
0
0
ARC
5
360
100
AcDbEntity
8
0
100
AcDbCircle
10
-143.57740757152834
20
-72.65463684950852
30
0
40
2.8574999999999404
210
0
220
0
230
1
100
AcDbArc
50
-139.14196883178073
51
40.858031168215177
0
LINE
5
361
100
AcDbEntity
8
0
100
AcDbLine
10
-141.41618642333083
20
-70.785297554842103
30
0
11
-140.66299096464496
21
-60.384514550352428
31
0
0
ARC
5
362
100
AcDbEntity
8
0
100
AcDbCircle
10
-142.53233025931152
20
-58.223293402155072
30
0
40
2.8574999999999839
210
-0
220
0
230
1
100
AcDbArc
50
-49.141968831780638
51
130.8580311682185
0
LINE
5
363
100
AcDbEntity
8
0
100
AcDbLine
10
-144.40166955397805
20
-56.06207225395768
30
0
11
-162.71854821159934
21
-54.735615407750522
31
0
0
SPLINE
5
364
100
AcDbEntity
8
0
100
AcDbSpline
70
0
71
3
72
10
73
6
74
0
42
0.000000001
43
0.0000000001
44
0.0000000001
40
-17.082206583941716
40
-17.082206583941716
40
-17.082206583941716
40
-17.082206583941716
40
-10.523815367779276
40
-10.523815367779276
40
-4.7466821736131601
40
-4.7466821736131601
40
-4.7466821736131601
40
-4.7466821736131601
10
-162.71854821159928
20
-54.735615407750018
30
0
10
-160.11046988176366
20
-8.6422813104079665
30
0
10
-156.14761408510367
20
38.153202201656029
30
0
10
-145.10543644327959
20
118.83591218287208
30
0
10
-139.03527306410717
20
149.47842379040344
30
0
10
-132.3826781010419
20
174.79159492597645
30
0
0
CIRCLE
5
365
100
AcDbEntity
8
0
100
AcDbCircle
10
-123.27096384135359
20
-357.29238842823668
30
0
40
3.1750000000000256
210
0
220
0
230
1
0
CIRCLE
5
366
100
AcDbEntity
8
0
100
AcDbCircle
10
-123.27096384135359
20
-414.44238842823665
30
0
40
3.1750000000000256
210
0
220
0
230
1
0
CIRCLE
5
367
100
AcDbEntity
8
0
100
AcDbCircle
10
-124.10370757536633
20
-438.46144354908125
30
0
40
10.79500000000003
210
0
220
0
230
1
0
CIRCLE
5
368
100
AcDbEntity
8
0
100
AcDbCircle
10
-123.27096384135743
20
-465.24238842823672
30
0
40
3.1750000000000256
210
0
220
0
230
1
0
ARC
5
369
100
AcDbEntity
8
0
100
AcDbCircle
10
-183.12859009643759
20
258.17141407257941
30
0
40
2.8575000000000008
210
0
220
0
230
1
100
AcDbArc
50
134.99999999999679
51
314.9999999999996
0
ARC
5
370
100
AcDbEntity
8
0
100
AcDbCircle
10
-183.12859009643751
20
272.6405488180983
30
0
40
2.8575000000000008
210
-0
220
0
230
1
100
AcDbArc
50
44.999999999998792
51
225.0000000000004
0
ARC
5
371
100
AcDbEntity
8
0
100
AcDbCircle
10
-168.31653395524364
20
129.49567381809831
30
0
40
2.8575000000000008
210
-0
220
0
230
1
100
AcDbArc
50
44.999999999998394
51
224.99999999999838
0
LINE
5
372
100
AcDbEntity
8
0
100
AcDbLine
10
-168.81531675911606
20
274.66110644533887
30
0
11
-181.1080324691969
21
274.66110644533882
31
0
0
LINE
5
373
100
AcDbEntity
8
0
100
AcDbLine
10
-185.14914772367806
20
270.61999119085772
30
0
11
-185.14914772367806
21
260.1919716998201
31
0
0
LINE
5
374
100
AcDbEntity
8
0
100
AcDbLine
10
-150.30247265400874
20
131.51623144533886
30
0
11
-166.29597632800301
21
131.51623144533883
31
0
0
LINE
5
375
100
AcDbEntity
8
0
100
AcDbLine
10
-181.10803246919704
20
256.15085644533883
30
0
11
-164.82914772367806
21
256.15085644533889
31
0
0
SPLINE
5
376
100
AcDbEntity
8
0
100
AcDbSpline
70
0
71
3
72
17
73
13
74
0
42
0.000000001
43
0.0000000001
44
0.0000000001
40
-24.265899405142967
40
-24.265899405142967
40
-24.265899405142967
40
-24.265899405142967
40
-23.799850168419308
40
-23.799850168419308
40
-23.799850168419308
40
-17.362811562685337
40
-17.362811562685337
40
-17.362811562685337
40
-12.047649375755871
40
-12.047649375755871
40
-12.047649375755871
40
-7.4296941033693846
40
-7.4296941033693846
40
-7.4296941033693846
40
-7.4296941033693846
10
-164.82914772367815
20
256.15085644533889
30
0
10
-164.72126731938289
20
255.50728656983725
30
0
10
-164.615288991906
20
254.85959675199919
30
0
10
-164.51106495460499
20
254.2074548930681
30
0
10
-163.07153003235447
20
245.20011834668583
30
0
10
-161.91566682978589
20
235.30539888862421
30
0
10
-160.3964394115556
20
221.57827502100702
30
0
10
-159.1419898701887
20
210.24357684917021
30
0
10
-157.64938610872136
20
196.26839374992923
30
0
10
-155.63161964873905
20
178.14234498756733
30
0
10
-153.87852685206067
20
162.39391911779745
30
0
10
-152.10486269081227
20
146.88665496816486
30
0
10
-150.3024726540088
20
131.51623144533889
30
0
0
LINE
5
377
100
AcDbEntity
8
0
100
AcDbLine
10
-170.33709158248425
20
127.47511619085782
30
0
11
-170.33709158248413
21
113.00598144533886
31
0
0
LINE
5
378
100
AcDbEntity
8
0
100
AcDbLine
10
-170.33709158248413
20
113.00598144533886
30
0
11
-192.87533783885129
21
113.00598144533886
31
0
0
SPLINE
5
379
100
AcDbEntity
8
0
100
AcDbSpline
70
0
71
3
72
14
73
10
74
0
42
0.000000001
43
0.0000000001
44
0.0000000001
40
6.0984769729565125
40
6.0984769729565125
40
6.0984769729565125
40
6.0984769729565125
40
12.047649375755871
40
12.047649375755871
40
27.632776814252789
40
27.632776814252789
40
34.36975520406741
40
34.36975520406741
40
46.825306812573558
40
46.825306812573558
40
46.825306812573558
40
46.825306812573558
10
-192.87533783885146
20
113.00598144533886
30
0
10
-195.23223175759148
20
132.82372412770985
30
0
10
-197.53772539951024
20
152.82353367053972
30
0
10
-205.75816450929841
20
226.66958231254139
30
0
10
-207.16003596901359
20
244.14376122906384
30
0
10
-212.32153579602431
20
265.838532422713
30
0
10
-214.31151243780442
20
271.94536524521794
30
0
10
-221.78957283240067
20
289.55782815195306
30
0
10
-228.35953097491583
20
300.17494130710287
30
0
10
-235.52081336639148
20
309.89477143635168
30
0
0
SPLINE
5
380
100
AcDbEntity
8
0
100
AcDbSpline
70
0
71
3
72
8
73
4
74
0
42
0.000000001
43
0.0000000001
44
0.0000000001
40
-47.438830705373533
40
-47.438830705373533
40
-47.438830705373533
40
-47.438830705373533
40
-46.554291532629819
40
-46.554291532629819
40
-46.554291532629819
40
-46.554291532629819
10
-235.52081336639148
20
309.89477143635168
30
0
10
-234.98025876955523
20
310.74904367064175
30
0
10
-234.39981712537667
20
311.64279549840415
30
0
10
-233.77434750974587
20
312.57718265009368
30
0
0
SPLINE
5
381
100
AcDbEntity
8
0
100
AcDbSpline
70
0
71
3
72
11
73
7
74
0
42
0.000000001
43
0.0000000001
44
0.0000000001
40
2.6401410758446548
40
2.6401410758446548
40
2.6401410758446548
40
2.6401410758446548
40
4.638749088648157
40
4.638749088648157
40
4.638749088648157
40
4.6526669412907236
40
4.6526669412907236
40
4.6526669412907236
40
4.6526669412907236
10
-233.77434750974587
20
312.57718265009373
30
0
10
-237.81601446133718
20
318.00524143876231
30
0
10
-242.09794056100762
20
323.24456190908802
30
0
10
-246.49798967530108
20
328.32910289492219
30
0
10
-246.52837202231098
20
328.36421165953016
30
0
10
-246.5587543693207
20
328.39932042413807
30
0
10
-246.58913671633024
20
328.43442918874575
30
0
0
SPLINE
5
382
100
AcDbEntity
8
0
100
AcDbSpline
70
0
71
3
72
11
73
7
74
0
42
0.000000001
43
0.0000000001
44
0.0000000001
40
-0.013928894876434375
40
-0.013928894876434375
40
-0.013928894876434375
40
-0.013928894876434375
40
0
40
0
40
0
40
0.65756301382047866
40
0.65756301382047866
40
0.65756301382047866
40
0.65756301382047866
10
-246.58913671633348
20
328.43442918874649
30
0
10
-246.62264151629756
20
328.46657169549655
30
0
10
-246.65614631626212
20
328.49871420224713
30
0
10
-246.68965111622674
20
328.5308567089977
30
0
10
-248.26999265757331
20
330.04694212704771
30
0
10
-249.84991465422758
20
331.56551380786777
30
0
10
-251.42929053976988
20
333.08659445586829
30
0
0
LINE
5
383
100
AcDbEntity
8
0
100
AcDbLine
10
-251.42929053976988
20
333.08659445586835
30
0
11
-222.91549664353704
21
363.17276475144729
31
0
0
SPLINE
5
384
100
AcDbEntity
8
0
100
AcDbSpline
70
0
71
3
72
11
73
7
74
0
42
0.000000001
43
0.0000000001
44
0.0000000001
40
-0.69122865418538826
40
-0.69122865418538826
40
-0.69122865418538826
40
-0.69122865418538826
40
0
40
0
40
0
40
0.20637979245298702
40
0.20637979245298702
40
0.20637979245298702
40
0.20637979245298702
10
-222.91549664346704
20
363.17276475137982
30
0
10
-221.27619348607828
20
361.59365156372894
30
0
10
-219.63580525852251
20
360.01680957047779
30
0
10
-217.99447644593968
20
358.44221660188327
30
0
10
-217.49804699305025
20
357.96597179345093
30
0
10
-217.00161754016079
20
357.48972698501859
30
0
10
-216.5051880872717
20
357.01348217658665
30
0
0
SPLINE
5
385
100
AcDbEntity
8
0
100
AcDbSpline
70
0
71
3
72
11
73
7
74
0
42
0.000000001
43
0.0000000001
44
0.0000000001
40
-4.8449652719378609
40
-4.8449652719378609
40
-4.8449652719378609
40
-4.8449652719378609
40
-4.638749088648157
40
-4.638749088648157
40
-4.638749088648157
40
-3.4284420559307165
40
-3.4284420559307165
40
-3.4284420559307165
40
-3.4284420559307165
10
-216.50518808727455
20
357.01348217658574
30
0
10
-216.05502297914791
20
356.49328731439056
30
0
10
-215.6048578710213
20
355.97309245219526
30
0
10
-215.15469276289465
20
355.45289759000002
30
0
10
-212.17942735027515
20
352.01478620959386
30
0
10
-209.1991639134593
20
348.45304074443055
30
0
10
-206.24805697493713
20
344.7505123923068
30
0
0
LINE
5
386
100
AcDbEntity
8
0
100
AcDbLine
10
-206.2480569749371
20
344.7505123923068
30
0
11
-206.10051918067575
21
344.90076153984938
31
0
0
LINE
5
387
100
AcDbEntity
8
0
100
AcDbLine
10
-206.10051918067575
20
344.90076153984938
30
0
11
-199.73485469770105
21
336.26080379169053
31
0
0
SPLINE
5
388
100
AcDbEntity
8
0
100
AcDbSpline
70
0
71
3
72
14
73
10
74
0
42
0.000000001
43
0.0000000001
44
0.0000000001
40
-46.825306812573558
40
-46.825306812573558
40
-46.825306812573558
40
-46.825306812573558
40
-35.528188336464119
40
-35.528188336464119
40
-35.528188336464119
40
-34.36975520406741
40
-34.36975520406741
40
-34.36975520406741
40
-28.93459412520259
40
-28.93459412520259
40
-28.93459412520259
40
-28.93459412520259
10
-199.73485469770083
20
336.26080379169031
30
0
10
-191.90814464662702
20
325.63780528266977
30
0
10
-184.23035442092407
20
313.58753932627258
30
0
10
-177.91754615230639
20
299.79696919300233
30
0
10
-177.27021592625803
20
298.382851655791
30
0
10
-176.63771211661503
20
296.95048971210127
30
0
10
-176.02170938271499
20
295.49966894725395
30
0
10
-173.13196961575514
20
288.69370165492307
30
0
10
-170.73236773524852
20
281.71670822896635
30
0
10
-168.815316759116
20
274.66110644533893
30
0
0
ARC
5
389
100
AcDbEntity
8
0
100
AcDbCircle
10
-222.54455427063982
20
-464.06903391941046
30
0
40
2.8574999999999635
210
0
220
0
230
1
100
AcDbArc
50
-114.51197664327033
51
65.488023356729116
0
ARC
5
390
100
AcDbEntity
8
0
100
AcDbCircle
10
-227.6089189737543
20
-450.51513889112323
30
0
40
2.857500000000007
210
-0
220
0
230
1
100
AcDbArc
50
-24.511976643272149
51
155.48802335672934
0
LINE
5
391
100
AcDbEntity
8
0
100
AcDbLine
10
-221.35902482800816
20
-461.46906734449965
30
0
11
-225.00895239884352
21
-451.70066833375495
31
0
0
CIRCLE
5
392
100
AcDbEntity
8
0
100
AcDbCircle
10
-235.61397358139857
20
133.83276928761146
30
0
40
3.1750000000000256
210
0
220
0
230
1
0
CIRCLE
5
393
100
AcDbEntity
8
0
100
AcDbCircle
10
-235.61397358139857
20
76.68276928761145
30
0
40
3.1750000000000256
210
0
220
0
230
1
0
CIRCLE
5
394
100
AcDbEntity
8
0
100
AcDbCircle
10
-235.61397358139857
20
184.63276928761147
30
0
40
3.1750000000000256
210
0
220
0
230
1
0
LINE
5
395
100
AcDbEntity
8
0
100
AcDbLine
10
-230.20888554866514
20
-449.32960944849157
30
0
11
-246.48683166288578
21
-455.41180615785146
31
0
0
SPLINE
5
396
100
AcDbEntity
8
0
100
AcDbSpline
70
0
71
3
72
10
73
6
74
0
42
0.000000001
43
0.0000000001
44
0.0000000001
40
4.7565073641359703
40
4.7565073641359703
40
4.7565073641359703
40
4.7565073641359703
40
10.536136549120979
40
10.536136549120979
40
17.092367809564259
40
17.092367809564259
40
17.092367809564259
40
17.092367809564259
10
-246.48683166288578
20
-455.41180615785146
30
0
10
-253.1740859060522
20
-430.08736401013618
30
0
10
-259.28297639896874
20
-399.43112859106691
30
0
10
-270.40421867586355
20
-318.7444675611307
30
0
10
-274.40698358888602
20
-271.96776606839728
30
0
10
-277.04919586289282
20
-225.89245867298644
30
0
0
LINE
5
397
100
AcDbEntity
8
0
100
AcDbLine
10
-277.04919586289282
20
-225.89245867298644
30
0
11
-258.47747521804058
21
-224.54754688666739
31
0
0
ARC
5
398
100
AcDbEntity
8
0
100
AcDbCircle
10
-256.60813592337405
20
-222.38632573846996
30
0
40
2.8575000000000443
210
0
220
0
230
1
100
AcDbArc
50
-130.85803116821805
51
49.141968831783217
0
LINE
5
399
100
AcDbEntity
8
0
100
AcDbLine
10
-254.73879662870758
20
-220.22510459027251
30
0
11
-255.49199208739341
21
-209.82432158578294
31
0
0
ARC
5
400
100
AcDbEntity
8
0
100
AcDbCircle
10
-257.65321323559084
20
-207.95498229111649
30
0
40
2.8574999999999746
210
-0
220
0
230
1
100
AcDbArc
50
-40.858031168216712
51
139.1419688317828
0
LINE
5
401
100
AcDbEntity
8
0
100
AcDbLine
10
-259.8144343837883
20
-206.08564299644999
30
0
11
-278.04006769086192
21
-207.40549211094799
31
0
0
SPLINE
5
402
100
AcDbEntity
8
0
100
AcDbSpline
70
0
71
3
72
14
73
10
74
0
42
0.000000001
43
0.0000000001
44
0.0000000001
40
17.971548412785914
40
17.971548412785914
40
17.971548412785914
40
17.971548412785914
40
21.981147664414458
40
21.981147664414458
40
26.020788126462076
40
26.020788126462076
40
29.220151392926418
40
29.220151392926418
40
29.26880450868525
40
29.26880450868525
40
29.26880450868525
40
29.26880450868525
10
-278.04006769086209
20
-207.40549211094793
30
0
10
-279.43882739200797
20
-179.39275867004184
30
0
10
-280.35616846804891
20
-151.87282147239259
30
0
10
-281.48262791381882
20
-99.726009647366638
30
0
10
-281.72597906382299
20
-73.020778504221497
30
0
10
-281.50250614340672
20
-26.222100589392923
30
0
10
-281.23608898032023
20
2.2484258649845668
30
0
10
-280.690494990319
20
33.074700281162222
30
0
10
-280.68228617240288
20
33.535615033504264
30
0
10
-280.67404121298296
20
33.995689551361529
30
0
0
LINE
5
403
100
AcDbEntity
8
0
100
AcDbLine
10
-280.6740412129829
20
33.995689551361529
30
0
11
-260.55209850108349
21
32.902829696553383
31
0
0
ARC
5
404
100
AcDbEntity
8
0
100
AcDbCircle
10
-258.42493567644192
20
34.810835086342081
30
0
40
2.8574999999999746
210
0
220
0
230
1
100
AcDbArc
50
-138.10878521639361
51
41.891214783638461
0
LINE
5
405
100
AcDbEntity
8
0
100
AcDbLine
10
-256.29777285180137
20
36.718840476132009
30
0
11
-255.73224134420752
21
47.131513745729222
31
0
0
ARC
5
406
100
AcDbEntity
8
0
100
AcDbCircle
10
-257.64024673399751
20
49.258676570369637
30
0
40
2.8574999999999902
210
-0
220
0
230
1
100
AcDbArc
50
-48.108785216358804
51
131.89121478360659
0
LINE
5
407
100
AcDbEntity
8
0
100
AcDbLine
10
-259.54825212378626
20
51.385839395011246
30
0
11
-280.31331264640386
21
52.513628165347583
31
0
0
SPLINE
5
408
100
AcDbEntity
8
0
100
AcDbSpline
70
0
71
3
72
8
73
4
74
0
42
0.000000001
43
0.0000000001
44
0.0000000001
40
29.938200329933458
40
29.938200329933458
40
29.938200329933458
40
29.938200329933458
40
38.963875592592466
40
38.963875592592466
40
38.963875592592466
40
38.963875592592466
10
-280.31331264640386
20
52.513628165347498
30
0
10
-278.6007984364976
20
133.64389703627026
30
0
10
-275.66481199075582
20
186.81091667794112
30
0
10
-271.77919798208211
20
224.86126579416413
30
0
0
LINE
5
409
100
AcDbEntity
8
0
100
AcDbLine
10
-271.77919798208211
20
224.86126579416413
30
0
11
-213.65611229211297
21
224.86126579416421
31
0
0
SPLINE
5
410
100
AcDbEntity
8
0
100
AcDbSpline
70
0
71
3
72
11
73
7
74
0
42
0.000000001
43
0.0000000001
44
0.0000000001
40
-35.784659320271501
40
-35.784659320271501
40
-35.784659320271501
40
-35.784659320271501
40
-33.460825299962963
40
-33.460825299962963
40
-33.460825299962963
40
-31.570528534179815
40
-31.570528534179815
40
-31.570528534179815
40
-31.570528534179815
10
-213.65611229211297
20
224.86126579416373
30
0
10
-215.57565165107627
20
208.02609543030087
30
0
10
-217.18189220608096
20
188.61008468237668
30
0
10
-218.52796230460848
20
166.08277285601332
30
0
10
-219.62167978133016
20
147.77873752010765
30
0
10
-220.5101381304975
20
127.80918028353258
30
0
10
-221.22614006307248
20
107.58110948242529
30
0
0
ARC
5
411
100
AcDbEntity
8
0
100
AcDbCircle
10
-233.90277844253305
20
106.81114878265961
30
0
40
12.70000000325969
210
-0
220
0
230
1
100
AcDbArc
50
3.4757927967051363
51
352.51054435683881
0
SPLINE
5
412
100
AcDbEntity
8
0
100
AcDbSpline
70
0
71
3
72
29
73
25
74
0
42
0.000000001
43
0.0000000001
44
0.0000000001
40
-31.495016041387725
40
-31.495016041387725
40
-31.495016041387725
40
-31.495016041387725
40
-30.658035318556376
40
-30.658035318556376
40
-30.658035318556376
40
-28.895800293861683
40
-28.895800293861683
40
-28.895800293861683
40
-26.069584010313363
40
-26.069584010313363
40
-26.069584010313363
40
-21.980440740442148
40
-21.980440740442148
40
-21.980440740442148
40
-15.258286312355878
40
-15.258286312355878
40
-15.258286312355878
40
-10.523815367779276
40
-10.523815367779276
40
-10.523815367779276
40
-4.5952448220198958
40
-4.5952448220198958
40
-4.5952448220198958
40
-0.27219439260006389
40
-0.27219439260006389
40
-0.27219439260006389
40
-0.27219439260006389
10
-221.31112384353855
20
105.15578340233768
30
0
10
-221.62207575328426
20
96.191099510324122
30
0
10
-221.89947416796082
20
87.186752918735436
30
0
10
-222.14616660328608
20
78.26488226290401
30
0
10
-222.66556930635772
20
59.480180863431045
30
0
10
-223.05089777276459
20
41.048300090581442
30
0
10
-223.33669196576309
20
24.052109401792066
30
0
10
-223.79503957018414
20
-3.2058387208033601
30
0
10
-224.01760586162601
20
-27.975977259384123
30
0
10
-224.1130786594004
20
-46.047464893787975
30
0
10
-224.24983229043897
20
-71.932760076138493
30
0
10
-224.02228944914549
20
-98.486227371113486
30
0
10
-223.47398321371912
20
-124.48496239138524
30
0
10
-222.57232378404083
20
-167.23845136549477
30
0
10
-220.69468568453124
20
-214.20778305945498
30
0
10
-217.29950870006718
20
-260.18570564900125
30
0
10
-214.90825646737832
20
-292.5683503681841
30
0
10
-211.76032357226285
20
-324.46470904672884
30
0
10
-207.73047803191375
20
-353.90988458615965
30
0
10
-202.68201506009262
20
-390.79786873373826
30
0
10
-196.82931396260003
20
-419.743907452933
30
0
10
-190.717255387775
20
-442.64242798426693
30
0
10
-186.26040744397571
20
-459.33978500346763
30
0
10
-181.67714911633979
20
-472.81576469160882
30
0
10
-177.14529363587005
20
-483.98667416724675
30
0
0
LINE
5
413
100
AcDbEntity
8
0
100
AcDbLine
10
-177.14529363587008
20
-483.98667416724669
30
0
11
-168.36715237164142
21
-505.47087646484374
31
0
0
LINE
5
414
100
AcDbEntity
8
0
100
AcDbLine
10
-168.36715237164142
20
-505.47087646484374
30
0
11
-230.06942960730817
21
-505.47087646484374
31
0
0
SPLINE
5
415
100
AcDbEntity
8
0
100
AcDbSpline
70
0
71
3
72
8
73
4
74
0
42
0.000000001
43
0.0000000001
44
0.0000000001
40
0.28346196481764274
40
0.28346196481764274
40
0.28346196481764274
40
0.28346196481764274
40
3.3248425250122202
40
3.3248425250122202
40
3.3248425250122202
40
3.3248425250122202
10
-230.06942960730817
20
-505.47087646484357
30
0
10
-233.95866217048928
20
-495.91518666903431
30
0
10
-237.75631287561566
20
-485.27214074853316
30
0
10
-241.41575589916229
20
-473.27718904692182
30
0
0
LINE
5
416
100
AcDbEntity
8
0
100
AcDbLine
10
-241.41575589916229
20
-473.27718904692182
30
0
11
-223.73008371327143
21
-466.66900049432121
31
0
0
ARC
5
417
100
AcDbEntity
8
0
100
AcDbCircle
10
-414.02380261122124
20
-85.036072861615821
30
0
40
2.8574999999999879
210
0
220
-0
230
1
100
AcDbArc
50
45.000000000001002
51
225.00000000000119
0
ARC
5
418
100
AcDbEntity
8
0
100
AcDbCircle
10
-415.93738659632299
20
-327.83467286161573
30
0
40
2.8575000000000261
210
0
220
-0
230
1
100
AcDbArc
50
45
51
225.00000000000401
0
ARC
5
419
100
AcDbEntity
8
0
100
AcDbCircle
10
-414.02380261122124
20
-99.505207607134309
30
0
40
2.8575000000000008
210
0
220
0
230
1
100
AcDbArc
50
134.99999999999881
51
315.00000000000017
0
ARC
5
420
100
AcDbEntity
8
0
100
AcDbCircle
10
-384.81793921635006
20
248.24619239286548
30
0
40
2.8575000000000008
210
0
220
0
230
1
100
AcDbArc
50
134.99999999999596
51
315
0
LINE
5
421
100
AcDbEntity
8
0
100
AcDbLine
10
-412.00324498398072
20
-83.015515234375229
30
0
11
-393.81936023846174
21
-83.015515234375101
31
0
0
LINE
5
422
100
AcDbEntity
8
0
100
AcDbLine
10
-413.91682896908242
20
-325.81411523437515
30
0
11
-395.73294422356349
21
-325.81411523437515
31
0
0
LINE
5
423
100
AcDbEntity
8
0
100
AcDbLine
10
-386.83849684359046
20
250.26675002010617
30
0
11
-386.83849684359052
21
265.27563476562511
31
0
0
LINE
5
424
100
AcDbEntity
8
0
100
AcDbLine
10
-416.04436023846176
20
-97.484649979893703
30
0
11
-416.04436023846176
21
-87.056630488856428
31
0
0
LINE
5
425
100
AcDbEntity
8
0
100
AcDbLine
10
-393.85205486651307
20
-101.52576523437503
30
0
11
-412.00324498398066
21
-101.52576523437487
31
0
0
SPLINE
5
426
100
AcDbEntity
8
0
100
AcDbSpline
70
0
71
3
72
11
73
7
74
0
42
0.000000001
43
0.0000000001
44
0.0000000001
40
-37.632902067719456
40
-37.632902067719456
40
-37.632902067719456
40
-37.632902067719456
40
-20.620492635507372
40
-20.620492635507372
40
-20.620492635507372
40
-15.277134909195897
40
-15.277134909195897
40
-15.277134909195897
40
-15.277134909195897
10
-395.73294422356344
20
-325.81411523437509
30
0
10
-394.98037203599296
20
-268.94508564489905
30
0
10
-394.38760191457607
20
-212.07748883380526
30
0
10
-394.06835806772108
20
-155.22072401728209
30
0
10
-393.96808759631642
20
-137.36273030224845
30
0
10
-393.89457040847321
20
-119.45665419133569
30
0
10
-393.85205486651307
20
-101.52576523437503
30
0
0
LINE
5
427
100
AcDbEntity
8
0
100
AcDbLine
10
-417.95794422356352
20
-344.32436523437514
30
0
11
-417.95794422356346
21
-329.85523048885648
31
0
0
LINE
5
428
100
AcDbEntity
8
0
100
AcDbLine
10
-440.4376458984292
20
-344.32436523437514
30
0
11
-417.95794422356352
21
-344.32436523437514
31
0
0
SPLINE
5
429
100
AcDbEntity
8
0
100
AcDbSpline
70
0
71
3
72
10
73
6
74
0
42
0.000000001
43
0.0000000001
44
0.0000000001
40
0
40
0
40
0
40
0
40
20.620492635507372
40
20.620492635507372
40
39.540013728018977
40
39.540013728018977
40
39.540013728018977
40
39.540013728018977
10
-438.79493990793378
20
51.915634765625001
30
0
10
-438.14351589464911
20
-16.816253736725315
30
0
10
-438.13167669479094
20
-86.228665312914785
30
0
10
-438.87179879766728
20
-218.04310356542692
30
0
10
-439.56363359171178
20
-281.16523308271894
30
0
10
-440.43764589842931
20
-344.32436523437514
30
0
0
SPLINE
5
430
100
AcDbEntity
8
0
100
AcDbSpline
70
0
71
3
72
8
73
4
74
0
42
0.000000001
43
0.0000000001
44
0.0000000001
40
23.815681486853158
40
23.815681486853158
40
23.815681486853158
40
23.815681486853158
40
47.423910490606644
40
47.423910490606644
40
47.423910490606644
40
47.423910490606644
10
-409.50895844804381
20
265.27563476562511
30
0
10
-420.23966674578946
20
189.66919856376964
30
0
10
-430.35133699634974
20
114.31804818721163
30
0
10
-438.79493990793355
20
51.915634765625107
30
0
0
LINE
5
431
100
AcDbEntity
8
0
100
AcDbLine
10
-386.83849684359052
20
265.27563476562511
30
0
11
-409.50895844804381
21
265.27563476562511
31
0
0
LINE
5
432
100
AcDbEntity
8
0
100
AcDbLine
10
-367.31177534608429
20
246.2256347656251
30
0
11
-382.79738158910948
21
246.2256347656249
31
0
0
SPLINE
5
433
100
AcDbEntity
8
0
100
AcDbSpline
70
0
71
3
72
8
73
4
74
0
42
0.000000001
43
0.0000000001
44
0.0000000001
40
-47.025317845925834
40
-47.025317845925834
40
-47.025317845925834
40
-47.025317845925834
40
-25.152654810924645
40
-25.152654810924645
40
-25.152654810924645
40
-25.152654810924645
10
-394.31699895851693
20
49.129038995968273
30
0
10
-386.43795568767308
20
107.37720617143042
30
0
10
-377.15828083838352
20
176.43481238378047
30
0
10
-367.31177534608429
20
246.22563476562433
30
0
0
SPLINE
5
434
100
AcDbEntity
8
0
100
AcDbSpline
70
0
71
3
72
8
73
4
74
0
42
0.000000001
43
0.0000000001
44
0.0000000001
40
-13.439247033528094
40
-13.439247033528094
40
-13.439247033528094
40
-13.439247033528094
40
-0.31946211263218904
40
-0.31946211263218904
40
-0.31946211263218904
40
-0.31946211263218904
10
-393.81936023846163
20
-83.015515234375101
30
0
10
-393.76856790847432
20
-38.953851415250327
30
0
10
-393.91348524180069
20
5.2091497802604518
30
0
10
-394.31699895851693
20
49.129038995968273
30
0
0
ARC
5
435
100
AcDbEntity
8
0
100
AcDbCircle
10
-447.90584830966054
20
306.16130860380304
30
0
40
2.8575000000000261
210
0
220
0
230
1
100
AcDbArc
50
134.99999999999841
51
314.99999999999841
0
ARC
5
436
100
AcDbEntity
8
0
100
AcDbCircle
10
-467.94344373361804
20
-42.129841396390475
30
0
40
2.8575000000000133
210
0
220
0
230
1
100
AcDbArc
50
135.00000000011124
51
314.99999999996049
0
ARC
5
437
100
AcDbEntity
8
0
100
AcDbCircle
10
-467.94344373363981
20
-27.66070665087156
30
0
40
2.8574999999999879
210
0
220
-0
230
1
100
AcDbArc
50
44.999999999963386
51
225.00000000011568
0
ARC
5
438
100
AcDbEntity
8
0
100
AcDbCircle
10
-474.27070804948676
20
-270.45930665085308
30
0
40
2.8574999999999755
210
0
220
-0
230
1
100
AcDbArc
50
45.000000000001613
51
225.00000000000242
0
LINE
5
439
100
AcDbEntity
8
0
100
AcDbLine
10
-449.92640593690106
20
308.18186623104367
30
0
11
-449.92640593690106
21
322.65100097656244
31
0
0
LINE
5
440
100
AcDbEntity
8
0
100
AcDbLine
10
-469.96400136086254
20
-40.109283769153819
30
0
11
-469.9640013608763
21
-29.681264278116206
31
0
0
LINE
5
441
100
AcDbEntity
8
0
100
AcDbLine
10
-465.92288610639798
20
-25.640149023632315
30
0
11
-447.48050091919231
21
-25.640149023632333
31
0
0
LINE
5
442
100
AcDbEntity
8
0
100
AcDbLine
10
-472.25015042224629
20
-268.4387490236125
30
0
11
-454.06626567672726
21
-268.4387490236125
31
0
0
LINE
5
443
100
AcDbEntity
8
0
100
AcDbLine
10
-429.21848721008712
20
304.1407509765624
30
0
11
-445.88529068242002
21
304.1407509765624
31
0
0
SPLINE
5
444
100
AcDbEntity
8
0
100
AcDbSpline
70
0
71
3
72
8
73
4
74
0
42
0.000000001
43
0.0000000001
44
0.0000000001
40
-43.944472635919574
40
-43.944472635919574
40
-43.944472635919574
40
-43.944472635919574
40
-24.543241204972595
40
-24.543241204972595
40
-24.543241204972595
40
-24.543241204972595
10
-443.7474014279469
20
107.20917358466497
30
0
10
-439.40362562504436
20
173.33480225184431
30
0
10
-434.51416892148211
20
239.0267160990243
30
0
10
-429.21848721008706
20
304.1407509765624
30
0
0
SPLINE
5
445
100
AcDbEntity
8
0
100
AcDbSpline
70
0
71
3
72
8
73
4
74
0
42
0.000000001
43
0.0000000001
44
0.0000000001
40
-12.699943396203848
40
-12.699943396203848
40
-12.699943396203848
40
-12.699943396203848
40
-0.083156685855657289
40
-0.083156685855657289
40
-0.083156685855657289
40
-0.083156685855657289
10
-447.4805009191856
20
-25.640149023391814
30
0
10
-446.20359212823644
20
20.046897029379139
30
0
10
-444.9314542089956
20
65.12753264866744
30
0
10
-443.74740142794701
20
107.20917358466497
30
0
0
LINE
5
446
100
AcDbEntity
8
0
100
AcDbLine
10
-447.99713983299307
20
-44.150399023632403
30
0
11
-465.92288610637888
21
-44.150399023632417
31
0
0
SPLINE
5
447
100
AcDbEntity
8
0
100
AcDbSpline
70
0
71
3
72
11
73
7
74
0
42
0.000000001
43
0.0000000001
44
0.0000000001
40
-35.227589113095469
40
-35.227589113095469
40
-35.227589113095469
40
-35.227589113095469
40
-21.348592372605616
40
-21.348592372605616
40
-21.348592372605616
40
-14.40134836605276
40
-14.40134836605276
40
-14.40134836605276
40
-14.40134836605276
10
-454.06626567672726
20
-268.4387490236125
30
0
10
-452.78013480612231
20
-218.95425534519714
30
0
10
-451.45511458794499
20
-169.61446271535007
30
0
10
-450.08630517130166
20
-119.67801831322966
30
0
10
-449.40114966624179
20
-94.682405798286396
30
0
10
-448.7001247283518
20
-69.373383870318122
30
0
10
-447.99713983299296
20
-44.15039902363241
30
0
0
LINE
5
448
100
AcDbEntity
8
0
100
AcDbLine
10
-476.29126567672722
20
-286.94899902365125
30
0
11
-476.29126567672722
21
-272.47986427809371
31
0
0
LINE
5
449
100
AcDbEntity
8
0
100
AcDbLine
10
-499.01009334266143
20
-286.94899902343758
30
0
11
-476.29126567672722
21
-286.94899902365125
31
0
0
SPLINE
5
450
100
AcDbEntity
8
0
100
AcDbSpline
70
0
71
3
72
10
73
6
74
0
42
0.000000001
43
0.0000000001
44
0.0000000001
40
0
40
0
40
0
40
0
40
21.348592372605616
40
21.348592372605616
40
37.064255410523621
40
37.064255410523621
40
37.064255410523621
40
37.064255410523621
10
-488.15641735163285
20
109.29100097656243
30
0
10
-490.15782874477333
20
38.157176547543727
30
0
10
-492.41343514004882
20
-41.623092614515755
30
0
10
-496.07006998219299
20
-175.02321411670829
30
0
10
-497.56454547959925
20
-230.82783617334167
30
0
10
-499.01009334266155
20
-286.94899902343758
30
0
0
SPLINE
5
451
100
AcDbEntity
8
0
100
AcDbSpline
70
0
71
3
72
8
73
4
74
0
42
0.000000001
43
0.0000000001
44
0.0000000001
40
23.066267760750705
40
23.066267760750705
40
23.066267760750705
40
23.066267760750705
40
44.025507151404923
40
44.025507151404923
40
44.025507151404923
40
44.025507151404923
10
-472.3019770664182
20
322.65100097656244
30
0
10
-478.10669912999981
20
252.1875374203849
30
0
10
-483.4506064976448
20
181.00713433130241
30
0
10
-488.15641735163291
20
109.29100097656249
30
0
0
LINE
5
452
100
AcDbEntity
8
0
100
AcDbLine
10
-449.92640593690106
20
322.65100097656244
30
0
11
-472.3019770664182
21
322.65100097656244
31
0
0
ARC
5
453
100
AcDbEntity
8
0
100
AcDbCircle
10
-314.28266059834328
20
-581.7559389227531
30
0
40
2.8574999999999848
210
0
220
-0
230
1
100
AcDbArc
50
41.891214783638475
51
221.89121478364095
0
ARC
5
454
100
AcDbEntity
8
0
100
AcDbCircle
10
-314.28266059834357
20
461.84639302431555
30
0
40
2.8574999999999795
210
0
220
0
230
1
100
AcDbArc
50
138.10878521635905
51
318.10878521636067
0
LINE
5
455
100
AcDbEntity
8
0
100
AcDbLine
10
-297.79870188155792
20
-580.62767762123758
30
0
11
-312.15549777370279
21
-579.84793353296322
31
0
0
LINE
5
456
100
AcDbEntity
8
0
100
AcDbLine
10
-317.55032413192015
20
484.75351355876546
30
0
11
-316.409823422984
21
463.75439841410554
31
0
0
ARC
5
457
100
AcDbEntity
8
0
100
AcDbCircle
10
-577.45937289663686
20
-52.720205573247803
30
0
40
2.857500000000007
210
0
220
0
230
1
100
AcDbArc
50
-45.000000091070675
51
135.00000125521919
0
ARC
5
458
100
AcDbEntity
8
0
100
AcDbCircle
10
-577.45937291963537
20
-67.189340318766682
30
0
40
2.857499999999995
210
0
220
0
230
1
100
AcDbArc
50
-134.99999874478092
51
44.999999908928423
0
ARC
5
459
100
AcDbEntity
8
0
100
AcDbCircle
10
-560.15665694953987
20
-383.02175300380719
30
0
40
2.8574999999999613
210
0
220
0
230
1
100
AcDbArc
50
-124.03890440401793
51
55.961095596764167
0
ARC
5
460
100
AcDbEntity
8
0
100
AcDbCircle
10
-560.15665694953998
20
263.11220710536952
30
0
40
2.8574999999999786
210
0
220
0
230
1
100
AcDbArc
50
-55.961095596766718
51
124.03890440401793
0
ARC
5
461
100
AcDbEntity
8
0
100
AcDbCircle
10
-562.90785319957899
20
-368.81658565253133
30
0
40
2.8575000000000168
210
0
220
0
230
1
100
AcDbArc
50
-34.038904403230788
51
145.96109559598213
0
ARC
5
462
100
AcDbEntity
8
0
100
AcDbCircle
10
-562.90785319957922
20
248.90703975409369
30
0
40
2.8575000000000199
210
0
220
0
230
1
100
AcDbArc
50
-145.96109559598131
51
34.038904403232188
0
LINE
5
463
100
AcDbEntity
8
0
100
AcDbLine
10
-575.43881528918314
20
-65.1687826947378
30
0
11
-575.43881527260794
21
-54.740763203700013
31
0
0
LINE
5
464
100
AcDbEntity
8
0
100
AcDbLine
10
-561.75615886021455
20
265.48009643718973
30
0
11
-585.37998734846883
21
270.0554588205564
31
0
0
LINE
5
465
100
AcDbEntity
8
0
100
AcDbLine
10
-558.55715503889758
20
-380.6538636719651
30
0
11
-560.53996386773679
21
-370.41608756317339
31
0
0
LINE
5
466
100
AcDbEntity
8
0
100
AcDbLine
10
-587.14167778743138
20
251.54243896020122
30
0
11
-565.27574253139949
21
247.30753784341903
31
0
0
LINE
5
467
100
AcDbEntity
8
0
100
AcDbLine
10
-316.40982342298372
20
-583.66394431254309
30
0
11
-317.45902443453213
21
-602.98203213026045
31
0
0
SPLINE
5
468
100
AcDbEntity
8
0
100
AcDbSpline
70
0
71
3
72
20
73
16
74
0
42
0.000000001
43
0.0000000001
44
0.0000000001
40
-125.33373420996084
40
-125.33373420996084
40
-125.33373420996084
40
-125.33373420996084
40
-118.00716676427975
40
-118.00716676427975
40
-97.922550753708322
40
-97.922550753708322
40
-85.968636393556253
40
-85.968636393556253
40
-73.790394143261182
40
-73.790394143261182
40
-60.219130533273045
40
-60.219130533273045
40
-40.821208393118248
40
-40.821208393118248
40
-37.515507842838204
40
-37.515507842838204
40
-37.515507842838204
40
-37.515507842838204
10
-317.45902443453218
20
-602.98203213026045
30
0
10
-337.24198328313423
20
-602.26356882793857
30
0
10
-356.48430580695248
20
-601.35883521132973
30
0
10
-422.90233301527076
20
-597.20920251446626
30
0
10
-458.21447959413575
20
-592.88528287051645
30
0
10
-499.01297463472724
20
-582.11108653611007
30
0
10
-510.9373494203121
20
-577.200037053811
30
0
10
-530.71551990025102
20
-564.7412043154917
30
0
10
-538.7129819932627
20
-556.98556225640493
30
0
10
-552.9792634261587
20
-536.63463310372936
30
0
10
-559.60112101301866
20
-522.65298710394575
30
0
10
-573.69301261656813
20
-476.64062818410832
30
0
10
-579.1561578399843
20
-443.24924459388006
30
0
10
-583.95521968490857
20
-401.89567551040523
30
0
10
-584.60427991190863
20
-395.91115811790672
30
0
10
-585.21501076583354
20
-389.93305275783325
30
0
0
LINE
5
469
100
AcDbEntity
8
0
100
AcDbLine
10
-585.21501076583343
20
-389.93305275783325
30
0
11
-561.75615886021444
21
-385.3896423356274
31
0
0
LINE
5
470
100
AcDbEntity
8
0
100
AcDbLine
10
-565.27574253139937
20
-367.21708374185664
30
0
11
-586.99482057234854
21
-371.4235421793353
31
0
0
SPLINE
5
471
100
AcDbEntity
8
0
100
AcDbSpline
70
0
71
3
72
14
73
10
74
0
42
0.000000001
43
0.0000000001
44
0.0000000001
40
-34.10613076339915
40
-34.10613076339915
40
-34.10613076339915
40
-34.10613076339915
40
-26.482958199000763
40
-26.482958199000763
40
-20.702571475689751
40
-20.702571475689751
40
-11.292210134732009
40
-11.292210134732009
40
-1.0940877477755251
40
-1.0940877477755251
40
-1.0940877477755251
40
-1.0940877477755251
10
-586.99482057234877
20
-371.42354217933536
30
0
10
-588.24876145331473
20
-357.59392588085126
30
0
10
-589.36120274287578
20
-343.63251194493796
30
0
10
-591.31343527345905
20
-318.20070561699475
30
0
10
-593.87017192796679
20
-284.58903911613629
30
0
10
-597.59603586826665
20
-231.13085627653527
30
0
10
-599.15871757391358
20
-202.73555005340083
30
0
10
-601.3663848619185
20
-137.07978870458021
30
0
10
-601.72946249883796
20
-103.18083566156552
30
0
10
-601.38121063497556
20
-69.209897955461145
30
0
0
LINE
5
472
100
AcDbEntity
8
0
100
AcDbLine
10
-601.38121063497556
20
-69.209897955461145
30
0
11
-579.47993050261016
21
-69.209897990273035
31
0
0
LINE
5
473
100
AcDbEntity
8
0
100
AcDbLine
10
-579.47993056814323
20
-50.699647990273007
30
0
11
-601.36340075719318
21
-50.699647955489453
31
0
0
SPLINE
5
474
100
AcDbEntity
8
0
100
AcDbSpline
70
0
71
3
72
14
73
10
74
0
42
0.000000001
43
0.0000000001
44
0.0000000001
40
0.92585156033409899
40
0.92585156033409899
40
0.92585156033409899
40
0.92585156033409899
40
11.292210134732009
40
11.292210134732009
40
20.702571475689751
40
20.702571475689751
40
26.482958199000763
40
26.482958199000763
40
33.802598083838326
40
33.802598083838326
40
33.802598083838326
40
33.802598083838326
10
-601.36340075752378
20
-50.699647985692231
30
0
10
-601.74129391007102
20
-16.165797166649398
30
0
10
-601.38532612901645
20
18.288225328368341
30
0
10
-599.15871757391358
20
84.507297697365686
30
0
10
-597.59603586826688
20
112.90260392050013
30
0
10
-593.87017192796679
20
166.36078676010118
30
0
10
-591.31343527345916
20
199.97245326095961
30
0
10
-589.40541237096159
20
224.82833910725358
30
0
10
-588.33648720679776
20
238.25296974087075
30
0
10
-587.14167778743308
20
251.54243896019565
30
0
0
LINE
5
475
100
AcDbEntity
8
0
100
AcDbLine
10
-560.53996386773701
20
250.50654166473583
30
0
11
-558.5571550388978
21
260.74431777352737
31
0
0
SPLINE
5
476
100
AcDbEntity
8
0
100
AcDbSpline
70
0
71
3
72
20
73
16
74
0
42
0.000000001
43
0.0000000001
44
0.0000000001
40
37.21151861036234
40
37.21151861036234
40
37.21151861036234
40
37.21151861036234
40
40.821208393118248
40
40.821208393118248
40
60.219130533273045
40
60.219130533273045
40
73.790394143261182
40
73.790394143261182
40
85.968636393556253
40
85.968636393556253
40
97.922550753708322
40
97.922550753708322
40
118.00716676427975
40
118.00716676427975
40
125.32247654084492
40
125.32247654084492
40
125.32247654084492
40
125.32247654084492
10
-585.37998734846769
20
270.05545882056134
30
0
10
-584.72134414253492
20
276.58236325491134
30
0
10
-584.01947652826505
20
283.11372122330692
30
0
10
-579.1561578399843
20
325.02099223784489
30
0
10
-573.69301261656813
20
358.41237582807315
30
0
10
-559.60112101301866
20
404.42473474791058
30
0
10
-552.97926342615881
20
418.40638074769413
30
0
10
-538.7129819932627
20
438.75730990036976
30
0
10
-530.71551990025114
20
446.51295195945659
30
0
10
-510.93734942031222
20
458.97178469777577
30
0
10
-499.0129746347273
20
463.88283418007489
30
0
10
-458.21447959413592
20
474.65703051448133
30
0
10
-422.90233301527081
20
478.98095015843103
30
0
10
-356.51158343890296
20
483.12887861687943
30
0
10
-337.30125051102686
20
484.03630490010937
30
0
10
-317.55032413192043
20
484.75351355876546
30
0
0
LINE
5
477
100
AcDbEntity
8
0
100
AcDbLine
10
-312.15549777370308
20
459.93838763452561
30
0
11
-297.70765628967547
21
460.72307657696996
31
0
0
LINE
5
478
100
AcDbEntity
8
0
100
AcDbLine
10
-297.70765628967547
20
460.72307657696996
30
0
11
-295.94575332905339
21
428.28258543660661
31
0
0
SPLINE
5
479
100
AcDbEntity
8
0
100
AcDbSpline
70
0
71
3
72
59
73
55
74
0
42
0.000000001
43
0.0000000001
44
0.0000000001
40
-127.76172168706287
40
-127.76172168706287
40
-127.76172168706287
40
-127.76172168706287
40
-126.22300578523294
40
-126.22300578523294
40
-126.22300578523294
40
-118.00716676427975
40
-118.00716676427975
40
-118.00716676427975
40
-107.17896905616557
40
-107.17896905616557
40
-107.17896905616557
40
-97.922550753708322
40
-97.922550753708322
40
-97.922550753708322
40
-90.915687859504544
40
-90.915687859504544
40
-90.915687859504544
40
-85.968636393556253
40
-85.968636393556253
40
-85.968636393556253
40
-78.827365724852811
40
-78.827365724852811
40
-78.827365724852811
40
-73.790394143261182
40
-73.790394143261182
40
-73.790394143261182
40
-66.397214016398195
40
-66.397214016398195
40
-66.397214016398195
40
-60.219130533273045
40
-60.219130533273045
40
-60.219130533273045
40
-50.655750447197953
40
-50.655750447197953
40
-50.655750447197953
40
-40.821208393118248
40
-40.821208393118248
40
-40.821208393118248
40
-27.227426373808996
40
-27.227426373808996
40
-27.227426373808996
40
-26.482958199000763
40
-26.482958199000763
40
-26.482958199000763
40
-22.44628098311378
40
-22.44628098311378
40
-22.44628098311378
40
-20.702571475689751
40
-20.702571475689751
40
-20.702571475689751
40
-11.292210134732009
40
-11.292210134732009
40
-11.292210134732009
40
0
40
0
40
0
40
0
10
-295.94575332905333
20
428.28258543660661
30
0
10
-300.07921378507888
20
428.15949552025029
30
0
10
-304.20042390862949
20
428.02865003868772
30
0
10
-308.30017498323042
20
427.88989603595803
30
0
10
-330.19043738634417
20
427.14903117027069
30
0
10
-351.47769936730214
20
426.18195101299995
30
0
10
-370.67313274549645
20
424.98266820794476
30
0
10
-396.02150905633482
20
423.39896487357828
30
0
10
-417.14600498134348
20
421.46938148812836
30
0
10
-434.24108024180271
20
419.16652903269426
30
0
10
-448.85470032783246
20
417.19794975561229
30
0
10
-460.51467397049777
20
414.94035303597508
30
0
10
-469.19852227524501
20
412.64709475572573
30
0
10
-475.78477923629134
20
410.90777506914009
30
0
10
-480.70709473514466
20
409.15166846539984
30
0
10
-484.31215891435505
20
407.55997212050136
30
0
10
-486.85744034798398
20
406.43618764587023
30
0
10
-488.75454382893861
20
405.40165983822203
30
0
10
-490.27388159638548
20
404.44458571769957
30
0
10
-492.44155811084767
20
403.07910455998268
30
0
10
-493.90029892316136
20
401.87032980129231
30
0
10
-495.38305707473899
20
400.34249649008257
30
0
10
-496.42889485604599
20
399.26486572561669
30
0
10
-497.48629851795016
20
398.00629480563055
30
0
10
-498.66342148421353
20
396.32712240158867
30
0
10
-500.39154801930039
20
393.86194036744507
30
0
10
-502.44870241353033
20
390.37186787187795
30
0
10
-504.73236329862851
20
385.23038949750583
30
0
10
-506.64069602597817
20
380.93393221140002
30
0
10
-508.69012458275211
20
375.49800573299649
30
0
10
-510.75715926183886
20
368.74879531968787
30
0
10
-513.95995337884995
20
358.29114232290118
30
0
10
-516.94931155865322
20
345.44818098963935
30
0
10
-519.54915907388272
20
331.1421784504106
30
0
10
-522.22272317910392
20
316.43054068933554
30
0
10
-524.50739618528337
20
300.16276905354619
30
0
10
-526.48745467656317
20
283.10058309837541
30
0
10
-529.22640079512485
20
259.49905405168056
30
0
10
-531.20216279624128
20
236.13507088427909
30
0
10
-533.16641232189397
20
210.75403953680899
30
0
10
-533.27398512666264
20
209.36403857496026
30
0
10
-533.38152628294836
20
207.9681180436628
30
0
10
-533.48916135775039
20
206.56595189102717
30
0
10
-534.07278342352299
20
198.96308537132688
30
0
10
-535.49540335851816
20
180.2812699480063
30
0
10
-536.77635294263359
20
162.87113398668669
30
0
10
-537.32968030791358
20
155.35053771958405
30
0
10
-537.85692937223257
20
148.06157432531234
30
0
10
-538.27624195847181
20
142.04533506878096
30
0
10
-540.55119346721244
20
109.40464403600811
30
0
10
-542.06567214698055
20
81.852915903971848
30
0
10
-543.1004857126859
20
51.077684110834383
30
0
10
-544.33963121079171
20
14.225645063946759
30
0
10
-544.64170267027896
20
-22.348333109472872
30
0
10
-544.10083846316581
20
-59.114126178017571
30
0
0
SPLINE
5
480
100
AcDbEntity
8
0
100
AcDbSpline
70
0
71
3
72
53
73
49
74
0
42
0.000000001
43
0.0000000001
44
0.0000000001
40
0
40
0
40
0
40
0
40
11.292210134732009
40
11.292210134732009
40
11.292210134732009
40
20.702571475689751
40
20.702571475689751
40
20.702571475689751
40
22.44628098311378
40
22.44628098311378
40
22.44628098311378
40
26.482958199000763
40
26.482958199000763
40
26.482958199000763
40
27.227426373808996
40
27.227426373808996
40
27.227426373808996
40
40.821208393118248
40
40.821208393118248
40
40.821208393118248
40
50.655750447197953
40
50.655750447197953
40
50.655750447197953
40
60.219130533273045
40
60.219130533273045
40
60.219130533273045
40
66.397214016398195
40
66.397214016398195
40
66.397214016398195
40
73.790394143261182
40
73.790394143261182
40
73.790394143261182
40
78.827365724852811
40
78.827365724852811
40
78.827365724852811
40
85.968636393556253
40
85.968636393556253
40
85.968636393556253
40
90.915687859504544
40
90.915687859504544
40
90.915687859504544
40
97.922550753708322
40
97.922550753708322
40
97.922550753708322
40
107.17896905616557
40
107.17896905616557
40
107.17896905616557
40
112.91468711464459
40
112.91468711464459
40
112.91468711464459
40
112.91468711464459
10
-544.10083846316581
20
-59.114126178017557
30
0
10
-544.64170267027896
20
-95.879919246562253
30
0
10
-544.33963121079171
20
-132.4538974199819
30
0
10
-543.1004857126859
20
-169.30593646686953
30
0
10
-542.06567214698055
20
-200.08116826000699
30
0
10
-540.55119346721244
20
-227.63289639204328
30
0
10
-538.27624195847181
20
-260.27358742481613
30
0
10
-537.85692937223257
20
-266.28982668134751
30
0
10
-537.32968030791358
20
-273.57879007561922
30
0
10
-536.77635294263359
20
-281.09938634272186
30
0
10
-535.49540335851816
20
-298.50952230404147
30
0
10
-534.07278342352288
20
-317.19133772736205
30
0
10
-533.48916135775028
20
-324.79420424706234
30
0
10
-533.38152628294836
20
-326.19637039969797
30
0
10
-533.27398512666252
20
-327.59229093099543
30
0
10
-533.16641232189386
20
-328.98229189284416
30
0
10
-531.20216279624117
20
-354.36332324031423
30
0
10
-529.22640079512485
20
-377.72730640771567
30
0
10
-526.48745467656295
20
-401.32883545441064
30
0
10
-524.50739618528314
20
-418.3910214095813
30
0
10
-522.22272317910392
20
-434.65879304537066
30
0
10
-519.54915907388249
20
-449.37043080644577
30
0
10
-516.94931155865311
20
-463.67643334567452
30
0
10
-513.95995337884972
20
-476.51939467893635
30
0
10
-510.75715926183875
20
-486.97704767572304
30
0
10
-508.69012458275193
20
-493.72625808903166
30
0
10
-506.64069602597806
20
-499.16218456743525
30
0
10
-504.73236329862834
20
-503.45864185354105
30
0
10
-502.44870241353021
20
-508.60012022791307
30
0
10
-500.39154801930022
20
-512.09019272348019
30
0
10
-498.66342148421336
20
-514.55537475762389
30
0
10
-497.48629851794999
20
-516.23454716166566
30
0
10
-496.42889485604587
20
-517.49311808165191
30
0
10
-495.38305707473882
20
-518.57074884611779
30
0
10
-493.9002989231613
20
-520.09858215732743
30
0
10
-492.4415581108475
20
-521.30735691601785
30
0
10
-490.27388159638542
20
-522.67283807373474
30
0
10
-488.75454382893855
20
-523.62991219425726
30
0
10
-486.85744034798392
20
-524.6644400019054
30
0
10
-484.312158914355
20
-525.78822447653647
30
0
10
-480.70709473514461
20
-527.37992082143501
30
0
10
-475.78477923629123
20
-529.13602742517526
30
0
10
-469.19852227524495
20
-530.8753471117609
30
0
10
-460.51467397049771
20
-533.16860539201025
30
0
10
-448.85470032783235
20
-535.4262021116474
30
0
10
-434.24108024180259
20
-537.39478138872937
30
0
10
-425.18578456605053
20
-538.61460695626101
30
0
10
-414.99989705119845
20
-539.72969911434132
30
0
10
-403.65451592233831
20
-540.74412858390906
30
0
0
SPLINE
5
481
100
AcDbEntity
8
0
100
AcDbSpline
70
0
71
3
72
14
73
10
74
0
42
0.000000001
43
0.0000000001
44
0.0000000001
40
112.91468711464472
40
112.91468711464472
40
112.91468711464472
40
112.91468711464472
40
118.00716676427975
40
118.00716676427975
40
118.00716676427975
40
126.22300578523294
40
126.22300578523294
40
126.22300578523294
40
127.76172168706287
40
127.76172168706287
40
127.76172168706287
40
127.76172168706287
10
-403.65451592233751
20
-540.74412858390917
30
0
10
-393.58147503591113
20
-541.6447937451137
30
0
10
-382.59442324959412
20
-542.46610806436354
30
0
10
-370.67313274549633
20
-543.21092056397981
30
0
10
-351.47769936730197
20
-544.410203369035
30
0
10
-330.190437386344
20
-545.37728352630575
30
0
10
-308.30017498323031
20
-546.11814839199315
30
0
10
-304.20042390862943
20
-546.25690239472283
30
0
10
-300.07921378507876
20
-546.38774787628552
30
0
10
-295.94575332905328
20
-546.51083779264172
30
0
0
LINE
5
482
100
AcDbEntity
8
0
100
AcDbLine
10
-295.94575332905328
20
-546.51083779264172
30
0
11
-297.79870188155792
21
-580.62767762123758
31
0
0
ENDSEC
0
SECTION
2
OBJECTS
0
DICTIONARY
5
C
100
AcDbDictionary
3
ACAD_GROUP
350
D
3
ACAD_MLINESTYLE
350
17
0
DICTIONARY
5
D
100
AcDbDictionary
0
DICTIONARY
5
1A
330
C
100
AcDbDictionary
0
DICTIONARY
5
17
100
AcDbDictionary
0
ENDSEC
0
EOF
