0
SECTION
2
HEADER
0
ENDSEC
0
SECTION
2
TABLES
0
TABLE
2
LTYPE
0
LTYPE
72
65
70
64
2
CONTINUOUS
3
______
73
0
40
0
0
ENDTAB
0
TABLE
2
LAYER
0
ENDTAB
0
ENDSEC
0
SECTION
2
ENTITIES
0
CIRCLE
8
0
10
32
20
0
40
2
0
CIRCLE
8
0
10
32
20
0
40
2
0
LINE
8
layer0
10
16.8389973
20
-9.1035295
11
17.0185722
21
-8.7719383
0
LINE
8
layer0
10
17.0185722
20
-8.7719383
11
17.1985208
21
-8.4705425
0
LINE
8
layer0
10
17.1985208
20
-8.4705425
11
17.3752731
21
-8.2008102
0
LINE
8
layer0
10
17.3752731
20
-8.2008102
11
17.5491549
21
-7.9582226
0
LINE
8
layer0
10
17.5491549
20
-7.9582226
11
17.7162128
21
-7.7446555
0
LINE
8
layer0
10
17.7162128
20
-7.7446555
11
17.8743939
21
-7.5589676
0
LINE
8
layer0
10
17.8743939
20
-7.5589676
11
18.0230699
21
-7.3985183
0
LINE
8
layer0
10
18.0230699
20
-7.3985183
11
18.1588514
21
-7.2637482
0
LINE
8
layer0
10
18.1588514
20
-7.2637482
11
18.2824176
21
-7.1509664
0
LINE
8
layer0
10
18.2824176
20
-7.1509664
11
18.4790115
21
-6.9922951
0
LINE
8
layer0
10
18.4790115
20
-6.9922951
11
18.5993885
21
-6.9103836
0
LINE
8
layer0
10
18.5993885
20
-6.9103836
11
18.7211582
21
-6.8470429
0
LINE
8
layer0
10
18.7211582
20
-6.8470429
11
18.9181654
21
-6.7346024
0
LINE
8
layer0
10
18.9181654
20
-6.7346024
11
19.0826218
21
-6.6188355
0
LINE
8
layer0
10
19.0826218
20
-6.6188355
11
19.214666
21
-6.5022715
0
LINE
8
layer0
10
19.214666
20
-6.5022715
11
19.3145565
21
-6.3873902
0
LINE
8
layer0
10
19.3145565
20
-6.3873902
11
19.3827213
21
-6.2766879
0
LINE
8
layer0
10
19.3827213
20
-6.2766879
11
19.4050731
21
-6.2236684
0
LINE
8
layer0
10
19.4050731
20
-6.2236684
11
19.4197269
21
-6.1726036
0
LINE
8
layer0
10
19.4197269
20
-6.1726036
11
19.4267605
21
-6.1237859
0
LINE
8
layer0
10
19.4267605
20
-6.1237859
11
19.4263004
21
-6.0775202
0
LINE
8
layer0
10
19.4263004
20
-6.0775202
11
19.4184335
21
-6.0340952
0
LINE
8
layer0
10
19.4184335
20
-6.0340952
11
19.4032916
21
-5.9938027
0
LINE
8
layer0
10
19.4032916
20
-5.9938027
11
19.1827215
21
-5.506454
0
LINE
8
layer0
10
19.1827215
20
-5.506454
11
19.1118805
21
-5.3384339
0
LINE
8
layer0
10
19.1118805
20
-5.3384339
11
19.0431645
21
-5.1695336
0
LINE
8
layer0
10
19.0431645
20
-5.1695336
11
18.8545236
21
-4.6689594
0
LINE
8
layer0
10
18.8545236
20
-4.6689594
11
18.8367394
21
-4.6297613
0
LINE
8
layer0
10
18.8367394
20
-4.6297613
11
18.811596
21
-4.5934925
0
LINE
8
layer0
10
18.811596
20
-4.5934925
11
18.7792066
21
-4.5604524
0
LINE
8
layer0
10
18.7792066
20
-4.5604524
11
18.7397137
21
-4.5309066
0
LINE
8
layer0
10
18.7397137
20
-4.5309066
11
18.6932436
21
-4.5051601
0
LINE
8
layer0
10
18.6932436
20
-4.5051601
11
18.6399481
21
-4.4834747
0
LINE
8
layer0
10
18.6399481
20
-4.4834747
11
18.51347
21
-4.4533962
0
LINE
8
layer0
10
18.51347
20
-4.4533962
11
18.3616034
21
-4.4427962
0
LINE
8
layer0
10
18.3616034
20
-4.4427962
11
18.1858108
21
-4.4537423
0
LINE
8
layer0
10
18.1858108
20
-4.4537423
11
17.987663
21
-4.4881709
0
LINE
8
layer0
10
17.987663
20
-4.4881709
11
17.7688505
21
-4.5479686
0
LINE
8
layer0
10
17.7688505
20
-4.5479686
11
17.6379576
21
-4.5892841
0
LINE
8
layer0
10
17.6379576
20
-4.5892841
11
17.4949181
21
-4.6164834
0
LINE
8
layer0
10
17.4949181
20
-4.6164834
11
17.2437076
21
-4.6432987
0
LINE
8
layer0
10
17.2437076
20
-4.6432987
11
17.0765844
21
-4.6509245
0
LINE
8
layer0
10
17.0765844
20
-4.6509245
11
16.8852755
21
-4.6516396
0
LINE
8
layer0
10
16.8852755
20
-4.6516396
11
16.6666909
21
-4.6433146
0
LINE
8
layer0
10
16.6666909
20
-4.6433146
11
16.4235388
21
-4.6238644
0
LINE
8
layer0
10
16.4235388
20
-4.6238644
11
16.1543962
21
-4.5909774
0
LINE
8
layer0
10
16.1543962
20
-4.5909774
11
15.859908
21
-4.542395
0
LINE
8
layer0
10
15.859908
20
-4.542395
11
15.5441956
21
-4.4766483
0
LINE
8
layer0
10
15.5441956
20
-4.4766483
11
15.2038337
21
-4.3907722
0
LINE
8
layer0
10
15.2038337
20
-4.3907722
11
14.8423848
21
-4.2832804
0
LINE
8
layer0
10
14.8423848
20
-4.2832804
11
14.4877554
21
-4.1616986
0
ARC
8
layer0
10
32.0000423
20
0.0000087
40
18
50
189.1319193
51
193.3680821
0
LINE
8
layer0
10
14.2281826
20
-2.8567377
11
14.50929
21
-2.6087
0
LINE
8
layer0
10
14.50929
20
-2.6087
11
14.80209
21
-2.37107
0
LINE
8
layer0
10
14.80209
20
-2.37107
11
15.08368
21
-2.16148
0
LINE
8
layer0
10
15.08368
20
-2.16148
11
15.3502
21
-1.97992
0
LINE
8
layer0
10
15.3502
20
-1.97992
11
15.60368
21
-1.82234
0
LINE
8
layer0
10
15.60368
20
-1.82234
11
15.83975
21
-1.68896
0
LINE
8
layer0
10
15.83975
20
-1.68896
11
16.05695
21
-1.57794
0
LINE
8
layer0
10
16.05695
20
-1.57794
11
16.25571
21
-1.4866
0
LINE
8
layer0
10
16.25571
20
-1.4866
11
16.43273
21
-1.41405
0
LINE
8
layer0
10
16.43273
20
-1.41405
11
16.59005
21
-1.35714
0
LINE
8
layer0
10
16.59005
20
-1.35714
11
16.8324
21
-1.28578
0
LINE
8
layer0
10
16.8324
20
-1.28578
11
16.97496
21
-1.25617
0
LINE
8
layer0
10
16.97496
20
-1.25617
11
17.1117
21
-1.24425
0
LINE
8
layer0
10
17.1117
20
-1.24425
11
17.33674
21
-1.21576
0
LINE
8
layer0
10
17.33674
20
-1.21576
11
17.53298
21
-1.17174
0
LINE
8
layer0
10
17.53298
20
-1.17174
11
17.69958
21
-1.11458
0
LINE
8
layer0
10
17.69958
20
-1.11458
11
17.83583
21
-1.04667
0
LINE
8
layer0
10
17.83583
20
-1.04667
11
17.94117
21
-0.97048
0
LINE
8
layer0
10
17.94117
20
-0.97048
11
17.98211
21
-0.93005
0
LINE
8
layer0
10
17.98211
20
-0.93005
11
18.01519
21
-0.88848
0
LINE
8
layer0
10
18.01519
20
-0.88848
11
18.04037
21
-0.84607
0
LINE
8
layer0
10
18.04037
20
-0.84607
11
18.05765
21
-0.80315
0
LINE
8
layer0
10
18.05765
20
-0.80315
11
18.067
21
-0.76002
0
LINE
8
layer0
10
18.067
20
-0.76002
11
18.06843
21
-0.717
0
LINE
8
layer0
10
18.06843
20
-0.717
11
18.05115
21
-0.18234
0
LINE
8
layer0
10
18.05115
20
-0.18234
11
18.05
21
0
0
LINE
8
layer0
10
18.05
20
0
11
18.05115
21
0.18234
0
LINE
8
layer0
10
18.05115
20
0.18234
11
18.06843
21
0.717
0
LINE
8
layer0
10
18.06843
20
0.717
11
18.067
21
0.76002
0
LINE
8
layer0
10
18.067
20
0.76002
11
18.05765
21
0.80315
0
LINE
8
layer0
10
18.05765
20
0.80315
11
18.04037
21
0.84607
0
LINE
8
layer0
10
18.04037
20
0.84607
11
18.01519
21
0.88848
0
LINE
8
layer0
10
18.01519
20
0.88848
11
17.98211
21
0.93005
0
LINE
8
layer0
10
17.98211
20
0.93005
11
17.94117
21
0.97048
0
LINE
8
layer0
10
17.94117
20
0.97048
11
17.83583
21
1.04667
0
LINE
8
layer0
10
17.83583
20
1.04667
11
17.69958
21
1.11458
0
LINE
8
layer0
10
17.69958
20
1.11458
11
17.53298
21
1.17174
0
LINE
8
layer0
10
17.53298
20
1.17174
11
17.33674
21
1.21576
0
LINE
8
layer0
10
17.33674
20
1.21576
11
17.1117
21
1.24425
0
LINE
8
layer0
10
17.1117
20
1.24425
11
16.97496
21
1.25617
0
LINE
8
layer0
10
16.97496
20
1.25617
11
16.8324
21
1.28578
0
LINE
8
layer0
10
16.8324
20
1.28578
11
16.59005
21
1.35714
0
LINE
8
layer0
10
16.59005
20
1.35714
11
16.43273
21
1.41405
0
LINE
8
layer0
10
16.43273
20
1.41405
11
16.25571
21
1.4866
0
LINE
8
layer0
10
16.25571
20
1.4866
11
16.05695
21
1.57794
0
LINE
8
layer0
10
16.05695
20
1.57794
11
15.83975
21
1.68896
0
LINE
8
layer0
10
15.83975
20
1.68896
11
15.60368
21
1.82234
0
LINE
8
layer0
10
15.60368
20
1.82234
11
15.3502
21
1.97992
0
LINE
8
layer0
10
15.3502
20
1.97992
11
15.08368
21
2.16148
0
LINE
8
layer0
10
15.08368
20
2.16148
11
14.80209
21
2.37107
0
LINE
8
layer0
10
14.80209
20
2.37107
11
14.50929
21
2.6087
0
LINE
8
layer0
10
14.50929
20
2.6087
11
14.2281826
21
2.8567377
0
ARC
8
layer0
10
32.0000424
20
-0.0000086
40
18
50
166.6319179
51
170.8680807
0
LINE
8
layer0
10
14.4877554
20
4.1616986
11
14.8423848
21
4.2832804
0
LINE
8
layer0
10
14.8423848
20
4.2832804
11
15.2038337
21
4.3907722
0
LINE
8
layer0
10
15.2038337
20
4.3907722
11
15.5441956
21
4.4766483
0
LINE
8
layer0
10
15.5441956
20
4.4766483
11
15.859908
21
4.542395
0
LINE
8
layer0
10
15.859908
20
4.542395
11
16.1543962
21
4.5909774
0
LINE
8
layer0
10
16.1543962
20
4.5909774
11
16.4235388
21
4.6238644
0
LINE
8
layer0
10
16.4235388
20
4.6238644
11
16.6666909
21
4.6433146
0
LINE
8
layer0
10
16.6666909
20
4.6433146
11
16.8852755
21
4.6516396
0
LINE
8
layer0
10
16.8852755
20
4.6516396
11
17.0765844
21
4.6509245
0
LINE
8
layer0
10
17.0765844
20
4.6509245
11
17.2437076
21
4.6432987
0
LINE
8
layer0
10
17.2437076
20
4.6432987
11
17.4949181
21
4.6164834
0
LINE
8
layer0
10
17.4949181
20
4.6164834
11
17.6379576
21
4.5892841
0
LINE
8
layer0
10
17.6379576
20
4.5892841
11
17.7688505
21
4.5479686
0
LINE
8
layer0
10
17.7688505
20
4.5479686
11
17.987663
21
4.4881709
0
LINE
8
layer0
10
17.987663
20
4.4881709
11
18.1858108
21
4.4537423
0
LINE
8
layer0
10
18.1858108
20
4.4537423
11
18.3616034
21
4.4427962
0
LINE
8
layer0
10
18.3616034
20
4.4427962
11
18.51347
21
4.4533962
0
LINE
8
layer0
10
18.51347
20
4.4533962
11
18.6399481
21
4.4834747
0
LINE
8
layer0
10
18.6399481
20
4.4834747
11
18.6932436
21
4.5051601
0
LINE
8
layer0
10
18.6932436
20
4.5051601
11
18.7397137
21
4.5309066
0
LINE
8
layer0
10
18.7397137
20
4.5309066
11
18.7792066
21
4.5604524
0
LINE
8
layer0
10
18.7792066
20
4.5604524
11
18.811596
21
4.5934925
0
LINE
8
layer0
10
18.811596
20
4.5934925
11
18.8367394
21
4.6297613
0
LINE
8
layer0
10
18.8367394
20
4.6297613
11
18.8545236
21
4.6689594
0
LINE
8
layer0
10
18.8545236
20
4.6689594
11
19.0431645
21
5.1695336
0
LINE
8
layer0
10
19.0431645
20
5.1695336
11
19.1118805
21
5.3384339
0
LINE
8
layer0
10
19.1118805
20
5.3384339
11
19.1827215
21
5.506454
0
LINE
8
layer0
10
19.1827215
20
5.506454
11
19.4032916
21
5.9938027
0
LINE
8
layer0
10
19.4032916
20
5.9938027
11
19.4184335
21
6.0340952
0
LINE
8
layer0
10
19.4184335
20
6.0340952
11
19.4263004
21
6.0775202
0
LINE
8
layer0
10
19.4263004
20
6.0775202
11
19.4267605
21
6.1237859
0
LINE
8
layer0
10
19.4267605
20
6.1237859
11
19.4197269
21
6.1726036
0
LINE
8
layer0
10
19.4197269
20
6.1726036
11
19.4050731
21
6.2236684
0
LINE
8
layer0
10
19.4050731
20
6.2236684
11
19.3827213
21
6.2766879
0
LINE
8
layer0
10
19.3827213
20
6.2766879
11
19.3145565
21
6.3873902
0
LINE
8
layer0
10
19.3145565
20
6.3873902
11
19.214666
21
6.5022715
0
LINE
8
layer0
10
19.214666
20
6.5022715
11
19.0826218
21
6.6188355
0
LINE
8
layer0
10
19.0826218
20
6.6188355
11
18.9181654
21
6.7346024
0
LINE
8
layer0
10
18.9181654
20
6.7346024
11
18.7211582
21
6.8470429
0
LINE
8
layer0
10
18.7211582
20
6.8470429
11
18.5993885
21
6.9103836
0
LINE
8
layer0
10
18.5993885
20
6.9103836
11
18.4790115
21
6.9922951
0
LINE
8
layer0
10
18.4790115
20
6.9922951
11
18.2824176
21
7.1509664
0
LINE
8
layer0
10
18.2824176
20
7.1509664
11
18.1588514
21
7.2637482
0
LINE
8
layer0
10
18.1588514
20
7.2637482
11
18.0230699
21
7.3985183
0
LINE
8
layer0
10
18.0230699
20
7.3985183
11
17.8743939
21
7.5589676
0
LINE
8
layer0
10
17.8743939
20
7.5589676
11
17.7162128
21
7.7446555
0
LINE
8
layer0
10
17.7162128
20
7.7446555
11
17.5491549
21
7.9582226
0
LINE
8
layer0
10
17.5491549
20
7.9582226
11
17.3752731
21
8.2008102
0
LINE
8
layer0
10
17.3752731
20
8.2008102
11
17.1985208
21
8.4705425
0
LINE
8
layer0
10
17.1985208
20
8.4705425
11
17.0185722
21
8.7719383
0
LINE
8
layer0
10
17.0185722
20
8.7719383
11
16.8389973
21
9.1035295
0
LINE
8
layer0
10
16.8389973
20
9.1035295
11
16.6742078
21
9.4402616
0
ARC
8
layer0
10
32.000036
20
-0.0000238
40
18
50
144.1319192
51
148.3680819
0
LINE
8
layer0
10
17.4134088
20
10.546554
11
17.7875709
21
10.5231702
0
LINE
8
layer0
10
17.7875709
20
10.5231702
11
18.1626415
21
10.4841591
0
LINE
8
layer0
10
18.1626415
20
10.4841591
11
18.5099582
21
10.4332474
0
LINE
8
layer0
10
18.5099582
20
10.4332474
11
18.8267987
21
10.3731716
0
LINE
8
layer0
10
18.8267987
20
10.3731716
11
19.117462
21
10.3053601
0
LINE
8
layer0
10
19.117462
20
10.3053601
11
19.3787026
21
10.2327473
0
LINE
8
layer0
10
19.3787026
20
10.2327473
11
19.6107892
21
10.1576667
0
LINE
8
layer0
10
19.6107892
20
10.1576667
11
19.8159208
21
10.0817093
0
LINE
8
layer0
10
19.8159208
20
10.0817093
11
19.9923935
21
10.0078378
0
LINE
8
layer0
10
19.9923935
20
10.0078378
11
20.143877
21
9.9368372
0
LINE
8
layer0
10
20.143877
20
9.9368372
11
20.3657034
21
9.8159291
0
LINE
8
layer0
10
20.3657034
20
9.8159291
11
20.487446
21
9.7360613
0
LINE
8
layer0
10
20.487446
20
9.7360613
11
20.5925645
21
9.6478003
0
LINE
8
layer0
10
20.5925645
20
9.6478003
11
20.7718373
21
9.5088184
0
LINE
8
layer0
10
20.7718373
20
9.5088184
11
20.9417268
21
9.4011826
0
LINE
8
layer0
10
20.9417268
20
9.4011826
11
21.099949
21
9.3237969
0
LINE
8
layer0
10
21.099949
20
9.3237969
11
21.2443119
21
9.2754732
0
LINE
8
layer0
10
21.2443119
20
9.2754732
11
21.372673
21
9.254861
0
LINE
8
layer0
10
21.372673
20
9.254861
11
21.4302103
21
9.2545004
0
LINE
8
layer0
10
21.4302103
20
9.2545004
11
21.4829958
21
9.2605038
0
LINE
8
layer0
10
21.4829958
20
9.2605038
11
21.5307891
21
9.2726872
0
LINE
8
layer0
10
21.5307891
20
9.2726872
11
21.573357
21
9.2908174
0
LINE
8
layer0
10
21.573357
20
9.2908174
11
21.6104659
21
9.3147035
0
LINE
8
layer0
10
21.6104659
20
9.3147035
11
21.6418968
21
9.3441121
0
LINE
8
layer0
10
21.6418968
20
9.3441121
11
22.0077397
21
9.7343926
0
LINE
8
layer0
10
22.0077397
20
9.7343926
11
22.1358604
21
9.8641396
0
LINE
8
layer0
10
22.1358604
20
9.8641396
11
22.2656074
21
9.9922603
0
LINE
8
layer0
10
22.2656074
20
9.9922603
11
22.6558879
21
10.3581032
0
LINE
8
layer0
10
22.6558879
20
10.3581032
11
22.6852965
21
10.3895341
0
LINE
8
layer0
10
22.6852965
20
10.3895341
11
22.7091826
21
10.426643
0
LINE
8
layer0
10
22.7091826
20
10.426643
11
22.7273128
21
10.4692109
0
LINE
8
layer0
10
22.7273128
20
10.4692109
11
22.7394962
21
10.5170042
0
LINE
8
layer0
10
22.7394962
20
10.5170042
11
22.7454996
21
10.5697897
0
LINE
8
layer0
10
22.7454996
20
10.5697897
11
22.745139
21
10.627327
0
LINE
8
layer0
10
22.745139
20
10.627327
11
22.7245268
21
10.7556881
0
LINE
8
layer0
10
22.7245268
20
10.7556881
11
22.6762031
21
10.900051
0
LINE
8
layer0
10
22.6762031
20
10.900051
11
22.5988174
21
11.0582732
0
LINE
8
layer0
10
22.5988174
20
11.0582732
11
22.4911816
21
11.2281627
0
LINE
8
layer0
10
22.4911816
20
11.2281627
11
22.3521997
21
11.4074355
0
LINE
8
layer0
10
22.3521997
20
11.4074355
11
22.2639387
21
11.512554
0
LINE
8
layer0
10
22.2639387
20
11.512554
11
22.1840709
21
11.6342966
0
LINE
8
layer0
10
22.1840709
20
11.6342966
11
22.0631628
21
11.856123
0
LINE
8
layer0
10
22.0631628
20
11.856123
11
21.9921622
21
12.0076065
0
LINE
8
layer0
10
21.9921622
20
12.0076065
11
21.9182907
21
12.1840792
0
LINE
8
layer0
10
21.9182907
20
12.1840792
11
21.8423333
21
12.3892108
0
LINE
8
layer0
10
21.8423333
20
12.3892108
11
21.7672527
21
12.6212974
0
LINE
8
layer0
10
21.7672527
20
12.6212974
11
21.6946399
21
12.882538
0
LINE
8
layer0
10
21.6946399
20
12.882538
11
21.6268284
21
13.1732013
0
LINE
8
layer0
10
21.6268284
20
13.1732013
11
21.5667526
21
13.4900418
0
LINE
8
layer0
10
21.5667526
20
13.4900418
11
21.5158409
21
13.8373585
0
LINE
8
layer0
10
21.5158409
20
13.8373585
11
21.4768298
21
14.2124291
0
LINE
8
layer0
10
21.4768298
20
14.2124291
11
21.453446
21
14.5865912
0
ARC
8
layer0
10
32.0000239
20
-0.000036
40
18
50
121.6319181
51
125.8680808
0
LINE
8
layer0
10
22.5597384
20
15.3257922
11
22.8964705
21
15.1610027
0
LINE
8
layer0
10
22.8964705
20
15.1610027
11
23.2280617
21
14.9814278
0
LINE
8
layer0
10
23.2280617
20
14.9814278
11
23.5294575
21
14.8014792
0
LINE
8
layer0
10
23.5294575
20
14.8014792
11
23.7991898
21
14.6247269
0
LINE
8
layer0
10
23.7991898
20
14.6247269
11
24.0417774
21
14.4508451
0
LINE
8
layer0
10
24.0417774
20
14.4508451
11
24.2553445
21
14.2837872
0
LINE
8
layer0
10
24.2553445
20
14.2837872
11
24.4410324
21
14.1256061
0
LINE
8
layer0
10
24.4410324
20
14.1256061
11
24.6014817
21
13.9769301
0
LINE
8
layer0
10
24.6014817
20
13.9769301
11
24.7362518
21
13.8411486
0
LINE
8
layer0
10
24.7362518
20
13.8411486
11
24.8490336
21
13.7175824
0
LINE
8
layer0
10
24.8490336
20
13.7175824
11
25.0077049
21
13.5209885
0
LINE
8
layer0
10
25.0077049
20
13.5209885
11
25.0896164
21
13.4006115
0
LINE
8
layer0
10
25.0896164
20
13.4006115
11
25.1529571
21
13.2788418
0
LINE
8
layer0
10
25.1529571
20
13.2788418
11
25.2653976
21
13.0818346
0
LINE
8
layer0
10
25.2653976
20
13.0818346
11
25.3811645
21
12.9173782
0
LINE
8
layer0
10
25.3811645
20
12.9173782
11
25.4977285
21
12.785334
0
LINE
8
layer0
10
25.4977285
20
12.785334
11
25.6126098
21
12.6854435
0
LINE
8
layer0
10
25.6126098
20
12.6854435
11
25.7233121
21
12.6172787
0
LINE
8
layer0
10
25.7233121
20
12.6172787
11
25.7763316
21
12.5949269
0
LINE
8
layer0
10
25.7763316
20
12.5949269
11
25.8273964
21
12.5802731
0
LINE
8
layer0
10
25.8273964
20
12.5802731
11
25.8762141
21
12.5732395
0
LINE
8
layer0
10
25.8762141
20
12.5732395
11
25.9224798
21
12.5736996
0
LINE
8
layer0
10
25.9224798
20
12.5736996
11
25.9659048
21
12.5815665
0
LINE
8
layer0
10
25.9659048
20
12.5815665
11
26.0061973
21
12.5967084
0
LINE
8
layer0
10
26.0061973
20
12.5967084
11
26.493546
21
12.8172785
0
LINE
8
layer0
10
26.493546
20
12.8172785
11
26.6615661
21
12.8881195
0
LINE
8
layer0
10
26.6615661
20
12.8881195
11
26.8304664
21
12.9568355
0
LINE
8
layer0
10
26.8304664
20
12.9568355
11
27.3310406
21
13.1454764
0
LINE
8
layer0
10
27.3310406
20
13.1454764
11
27.3702387
21
13.1632606
0
LINE
8
layer0
10
27.3702387
20
13.1632606
11
27.4065075
21
13.188404
0
LINE
8
layer0
10
27.4065075
20
13.188404
11
27.4395476
21
13.2207934
0
LINE
8
layer0
10
27.4395476
20
13.2207934
11
27.4690934
21
13.2602863
0
LINE
8
layer0
10
27.4690934
20
13.2602863
11
27.4948399
21
13.3067564
0
LINE
8
layer0
10
27.4948399
20
13.3067564
11
27.5165253
21
13.3600519
0
LINE
8
layer0
10
27.5165253
20
13.3600519
11
27.5466038
21
13.48653
0
LINE
8
layer0
10
27.5466038
20
13.48653
11
27.5572038
21
13.6383966
0
LINE
8
layer0
10
27.5572038
20
13.6383966
11
27.5462577
21
13.8141892
0
LINE
8
layer0
10
27.5462577
20
13.8141892
11
27.5118291
21
14.012337
0
LINE
8
layer0
10
27.5118291
20
14.012337
11
27.4520314
21
14.2311495
0
LINE
8
layer0
10
27.4520314
20
14.2311495
11
27.4107159
21
14.3620424
0
LINE
8
layer0
10
27.4107159
20
14.3620424
11
27.3835166
21
14.5050819
0
LINE
8
layer0
10
27.3835166
20
14.5050819
11
27.3567013
21
14.7562924
0
LINE
8
layer0
10
27.3567013
20
14.7562924
11
27.3490755
21
14.9234156
0
LINE
8
layer0
10
27.3490755
20
14.9234156
11
27.3483604
21
15.1147245
0
LINE
8
layer0
10
27.3483604
20
15.1147245
11
27.3566854
21
15.3333091
0
LINE
8
layer0
10
27.3566854
20
15.3333091
11
27.3761356
21
15.5764612
0
LINE
8
layer0
10
27.3761356
20
15.5764612
11
27.4090226
21
15.8456038
0
LINE
8
layer0
10
27.4090226
20
15.8456038
11
27.457605
21
16.140092
0
LINE
8
layer0
10
27.457605
20
16.140092
11
27.5233517
21
16.4558044
0
LINE
8
layer0
10
27.5233517
20
16.4558044
11
27.6092278
21
16.7961663
0
LINE
8
layer0
10
27.6092278
20
16.7961663
11
27.7167196
21
17.1576152
0
LINE
8
layer0
10
27.7167196
20
17.1576152
11
27.8383014
21
17.5122446
0
ARC
8
layer0
10
32.0000087
20
-0.0000423
40
18
50
99.1319193
51
103.3680821
0
LINE
8
layer0
10
29.1432623
20
17.7718174
11
29.3913
21
17.49071
0
LINE
8
layer0
10
29.3913
20
17.49071
11
29.62893
21
17.19791
0
LINE
8
layer0
10
29.62893
20
17.19791
11
29.83852
21
16.91632
0
LINE
8
layer0
10
29.83852
20
16.91632
11
30.02008
21
16.6498
0
LINE
8
layer0
10
30.02008
20
16.6498
11
30.17766
21
16.39632
0
LINE
8
layer0
10
30.17766
20
16.39632
11
30.31104
21
16.16025
0
LINE
8
layer0
10
30.31104
20
16.16025
11
30.42206
21
15.94305
0
LINE
8
layer0
10
30.42206
20
15.94305
11
30.5134
21
15.74429
0
LINE
8
layer0
10
30.5134
20
15.74429
11
30.58595
21
15.56727
0
LINE
8
layer0
10
30.58595
20
15.56727
11
30.64286
21
15.40995
0
LINE
8
layer0
10
30.64286
20
15.40995
11
30.71422
21
15.1676
0
LINE
8
layer0
10
30.71422
20
15.1676
11
30.74383
21
15.02504
0
LINE
8
layer0
10
30.74383
20
15.02504
11
30.75575
21
14.8883
0
LINE
8
layer0
10
30.75575
20
14.8883
11
30.78424
21
14.66326
0
LINE
8
layer0
10
30.78424
20
14.66326
11
30.82826
21
14.46702
0
LINE
8
layer0
10
30.82826
20
14.46702
11
30.88542
21
14.30042
0
LINE
8
layer0
10
30.88542
20
14.30042
11
30.95333
21
14.16417
0
LINE
8
layer0
10
30.95333
20
14.16417
11
31.02952
21
14.05883
0
LINE
8
layer0
10
31.02952
20
14.05883
11
31.06995
21
14.01789
0
LINE
8
layer0
10
31.06995
20
14.01789
11
31.11152
21
13.98481
0
LINE
8
layer0
10
31.11152
20
13.98481
11
31.15393
21
13.95963
0
LINE
8
layer0
10
31.15393
20
13.95963
11
31.19685
21
13.94235
0
LINE
8
layer0
10
31.19685
20
13.94235
11
31.23998
21
13.933
0
LINE
8
layer0
10
31.23998
20
13.933
11
31.283
21
13.93157
0
LINE
8
layer0
10
31.283
20
13.93157
11
31.81766
21
13.94885
0
LINE
8
layer0
10
31.81766
20
13.94885
11
32
21
13.95
0
LINE
8
layer0
10
32
20
13.95
11
32.18234
21
13.94885
0
LINE
8
layer0
10
32.18234
20
13.94885
11
32.717
21
13.93157
0
LINE
8
layer0
10
32.717
20
13.93157
11
32.76002
21
13.933
0
LINE
8
layer0
10
32.76002
20
13.933
11
32.80315
21
13.94235
0
LINE
8
layer0
10
32.80315
20
13.94235
11
32.84607
21
13.95963
0
LINE
8
layer0
10
32.84607
20
13.95963
11
32.88848
21
13.98481
0
LINE
8
layer0
10
32.88848
20
13.98481
11
32.93005
21
14.01789
0
LINE
8
layer0
10
32.93005
20
14.01789
11
32.97048
21
14.05883
0
LINE
8
layer0
10
32.97048
20
14.05883
11
33.04667
21
14.16417
0
LINE
8
layer0
10
33.04667
20
14.16417
11
33.11458
21
14.30042
0
LINE
8
layer0
10
33.11458
20
14.30042
11
33.17174
21
14.46702
0
LINE
8
layer0
10
33.17174
20
14.46702
11
33.21576
21
14.66326
0
LINE
8
layer0
10
33.21576
20
14.66326
11
33.24425
21
14.8883
0
LINE
8
layer0
10
33.24425
20
14.8883
11
33.25617
21
15.02504
0
LINE
8
layer0
10
33.25617
20
15.02504
11
33.28578
21
15.1676
0
LINE
8
layer0
10
33.28578
20
15.1676
11
33.35714
21
15.40995
0
LINE
8
layer0
10
33.35714
20
15.40995
11
33.41405
21
15.56727
0
LINE
8
layer0
10
33.41405
20
15.56727
11
33.4866
21
15.74429
0
LINE
8
layer0
10
33.4866
20
15.74429
11
33.57794
21
15.94305
0
LINE
8
layer0
10
33.57794
20
15.94305
11
33.68896
21
16.16025
0
LINE
8
layer0
10
33.68896
20
16.16025
11
33.82234
21
16.39632
0
LINE
8
layer0
10
33.82234
20
16.39632
11
33.97992
21
16.6498
0
LINE
8
layer0
10
33.97992
20
16.6498
11
34.16148
21
16.91632
0
LINE
8
layer0
10
34.16148
20
16.91632
11
34.37107
21
17.19791
0
LINE
8
layer0
10
34.37107
20
17.19791
11
34.6087
21
17.49071
0
LINE
8
layer0
10
34.6087
20
17.49071
11
34.8567377
21
17.7718174
0
ARC
8
layer0
10
31.9999914
20
-0.0000424
40
18
50
76.6319179
51
80.8680807
0
LINE
8
layer0
10
36.1616986
20
17.5122446
11
36.2832804
21
17.1576152
0
LINE
8
layer0
10
36.2832804
20
17.1576152
11
36.3907722
21
16.7961663
0
LINE
8
layer0
10
36.3907722
20
16.7961663
11
36.4766483
21
16.4558044
0
LINE
8
layer0
10
36.4766483
20
16.4558044
11
36.542395
21
16.140092
0
LINE
8
layer0
10
36.542395
20
16.140092
11
36.5909774
21
15.8456038
0
LINE
8
layer0
10
36.5909774
20
15.8456038
11
36.6238644
21
15.5764612
0
LINE
8
layer0
10
36.6238644
20
15.5764612
11
36.6433146
21
15.3333091
0
LINE
8
layer0
10
36.6433146
20
15.3333091
11
36.6516396
21
15.1147245
0
LINE
8
layer0
10
36.6516396
20
15.1147245
11
36.6509245
21
14.9234156
0
LINE
8
layer0
10
36.6509245
20
14.9234156
11
36.6432987
21
14.7562924
0
LINE
8
layer0
10
36.6432987
20
14.7562924
11
36.6164834
21
14.5050819
0
LINE
8
layer0
10
36.6164834
20
14.5050819
11
36.5892841
21
14.3620424
0
LINE
8
layer0
10
36.5892841
20
14.3620424
11
36.5479686
21
14.2311495
0
LINE
8
layer0
10
36.5479686
20
14.2311495
11
36.4881709
21
14.012337
0
LINE
8
layer0
10
36.4881709
20
14.012337
11
36.4537423
21
13.8141892
0
LINE
8
layer0
10
36.4537423
20
13.8141892
11
36.4427962
21
13.6383966
0
LINE
8
layer0
10
36.4427962
20
13.6383966
11
36.4533962
21
13.48653
0
LINE
8
layer0
10
36.4533962
20
13.48653
11
36.4834747
21
13.3600519
0
LINE
8
layer0
10
36.4834747
20
13.3600519
11
36.5051601
21
13.3067564
0
LINE
8
layer0
10
36.5051601
20
13.3067564
11
36.5309066
21
13.2602863
0
LINE
8
layer0
10
36.5309066
20
13.2602863
11
36.5604524
21
13.2207934
0
LINE
8
layer0
10
36.5604524
20
13.2207934
11
36.5934925
21
13.188404
0
LINE
8
layer0
10
36.5934925
20
13.188404
11
36.6297613
21
13.1632606
0
LINE
8
layer0
10
36.6297613
20
13.1632606
11
36.6689594
21
13.1454764
0
LINE
8
layer0
10
36.6689594
20
13.1454764
11
37.1695336
21
12.9568355
0
LINE
8
layer0
10
37.1695336
20
12.9568355
11
37.3384339
21
12.8881195
0
LINE
8
layer0
10
37.3384339
20
12.8881195
11
37.506454
21
12.8172785
0
LINE
8
layer0
10
37.506454
20
12.8172785
11
37.9938027
21
12.5967084
0
LINE
8
layer0
10
37.9938027
20
12.5967084
11
38.0340952
21
12.5815665
0
LINE
8
layer0
10
38.0340952
20
12.5815665
11
38.0775202
21
12.5736996
0
LINE
8
layer0
10
38.0775202
20
12.5736996
11
38.1237859
21
12.5732395
0
LINE
8
layer0
10
38.1237859
20
12.5732395
11
38.1726036
21
12.5802731
0
LINE
8
layer0
10
38.1726036
20
12.5802731
11
38.2236684
21
12.5949269
0
LINE
8
layer0
10
38.2236684
20
12.5949269
11
38.2766879
21
12.6172787
0
LINE
8
layer0
10
38.2766879
20
12.6172787
11
38.3873902
21
12.6854435
0
LINE
8
layer0
10
38.3873902
20
12.6854435
11
38.5022715
21
12.785334
0
LINE
8
layer0
10
38.5022715
20
12.785334
11
38.6188355
21
12.9173782
0
LINE
8
layer0
10
38.6188355
20
12.9173782
11
38.7346024
21
13.0818346
0
LINE
8
layer0
10
38.7346024
20
13.0818346
11
38.8470429
21
13.2788418
0
LINE
8
layer0
10
38.8470429
20
13.2788418
11
38.9103836
21
13.4006115
0
LINE
8
layer0
10
38.9103836
20
13.4006115
11
38.9922951
21
13.5209885
0
LINE
8
layer0
10
38.9922951
20
13.5209885
11
39.1509664
21
13.7175824
0
LINE
8
layer0
10
39.1509664
20
13.7175824
11
39.2637482
21
13.8411486
0
LINE
8
layer0
10
39.2637482
20
13.8411486
11
39.3985183
21
13.9769301
0
LINE
8
layer0
10
39.3985183
20
13.9769301
11
39.5589676
21
14.1256061
0
LINE
8
layer0
10
39.5589676
20
14.1256061
11
39.7446555
21
14.2837872
0
LINE
8
layer0
10
39.7446555
20
14.2837872
11
39.9582226
21
14.4508451
0
LINE
8
layer0
10
39.9582226
20
14.4508451
11
40.2008102
21
14.6247269
0
LINE
8
layer0
10
40.2008102
20
14.6247269
11
40.4705425
21
14.8014792
0
LINE
8
layer0
10
40.4705425
20
14.8014792
11
40.7719383
21
14.9814278
0
LINE
8
layer0
10
40.7719383
20
14.9814278
11
41.1035295
21
15.1610027
0
LINE
8
layer0
10
41.1035295
20
15.1610027
11
41.4402616
21
15.3257922
0
ARC
8
layer0
10
31.9999762
20
-0.000036
40
18
50
54.1319192
51
58.3680819
0
LINE
8
layer0
10
42.546554
20
14.5865912
11
42.5231702
21
14.2124291
0
LINE
8
layer0
10
42.5231702
20
14.2124291
11
42.4841591
21
13.8373585
0
LINE
8
layer0
10
42.4841591
20
13.8373585
11
42.4332474
21
13.4900418
0
LINE
8
layer0
10
42.4332474
20
13.4900418
11
42.3731716
21
13.1732013
0
LINE
8
layer0
10
42.3731716
20
13.1732013
11
42.3053601
21
12.882538
0
LINE
8
layer0
10
42.3053601
20
12.882538
11
42.2327473
21
12.6212974
0
LINE
8
layer0
10
42.2327473
20
12.6212974
11
42.1576667
21
12.3892108
0
LINE
8
layer0
10
42.1576667
20
12.3892108
11
42.0817093
21
12.1840792
0
LINE
8
layer0
10
42.0817093
20
12.1840792
11
42.0078378
21
12.0076065
0
LINE
8
layer0
10
42.0078378
20
12.0076065
11
41.9368372
21
11.856123
0
LINE
8
layer0
10
41.9368372
20
11.856123
11
41.8159291
21
11.6342966
0
LINE
8
layer0
10
41.8159291
20
11.6342966
11
41.7360613
21
11.512554
0
LINE
8
layer0
10
41.7360613
20
11.512554
11
41.6478003
21
11.4074355
0
LINE
8
layer0
10
41.6478003
20
11.4074355
11
41.5088184
21
11.2281627
0
LINE
8
layer0
10
41.5088184
20
11.2281627
11
41.4011826
21
11.0582732
0
LINE
8
layer0
10
41.4011826
20
11.0582732
11
41.3237969
21
10.900051
0
LINE
8
layer0
10
41.3237969
20
10.900051
11
41.2754732
21
10.7556881
0
LINE
8
layer0
10
41.2754732
20
10.7556881
11
41.254861
21
10.627327
0
LINE
8
layer0
10
41.254861
20
10.627327
11
41.2545004
21
10.5697897
0
LINE
8
layer0
10
41.2545004
20
10.5697897
11
41.2605038
21
10.5170042
0
LINE
8
layer0
10
41.2605038
20
10.5170042
11
41.2726872
21
10.4692109
0
LINE
8
layer0
10
41.2726872
20
10.4692109
11
41.2908174
21
10.426643
0
LINE
8
layer0
10
41.2908174
20
10.426643
11
41.3147035
21
10.3895341
0
LINE
8
layer0
10
41.3147035
20
10.3895341
11
41.3441121
21
10.3581032
0
LINE
8
layer0
10
41.3441121
20
10.3581032
11
41.7343926
21
9.9922603
0
LINE
8
layer0
10
41.7343926
20
9.9922603
11
41.8641396
21
9.8641396
0
LINE
8
layer0
10
41.8641396
20
9.8641396
11
41.9922603
21
9.7343926
0
LINE
8
layer0
10
41.9922603
20
9.7343926
11
42.3581032
21
9.3441121
0
LINE
8
layer0
10
42.3581032
20
9.3441121
11
42.3895341
21
9.3147035
0
LINE
8
layer0
10
42.3895341
20
9.3147035
11
42.426643
21
9.2908174
0
LINE
8
layer0
10
42.426643
20
9.2908174
11
42.4692109
21
9.2726872
0
LINE
8
layer0
10
42.4692109
20
9.2726872
11
42.5170042
21
9.2605038
0
LINE
8
layer0
10
42.5170042
20
9.2605038
11
42.5697897
21
9.2545004
0
LINE
8
layer0
10
42.5697897
20
9.2545004
11
42.627327
21
9.254861
0
LINE
8
layer0
10
42.627327
20
9.254861
11
42.7556881
21
9.2754732
0
LINE
8
layer0
10
42.7556881
20
9.2754732
11
42.900051
21
9.3237969
0
LINE
8
layer0
10
42.900051
20
9.3237969
11
43.0582732
21
9.4011826
0
LINE
8
layer0
10
43.0582732
20
9.4011826
11
43.2281627
21
9.5088184
0
LINE
8
layer0
10
43.2281627
20
9.5088184
11
43.4074355
21
9.6478003
0
LINE
8
layer0
10
43.4074355
20
9.6478003
11
43.512554
21
9.7360613
0
LINE
8
layer0
10
43.512554
20
9.7360613
11
43.6342966
21
9.8159291
0
LINE
8
layer0
10
43.6342966
20
9.8159291
11
43.856123
21
9.9368372
0
LINE
8
layer0
10
43.856123
20
9.9368372
11
44.0076065
21
10.0078378
0
LINE
8
layer0
10
44.0076065
20
10.0078378
11
44.1840792
21
10.0817093
0
LINE
8
layer0
10
44.1840792
20
10.0817093
11
44.3892108
21
10.1576667
0
LINE
8
layer0
10
44.3892108
20
10.1576667
11
44.6212974
21
10.2327473
0
LINE
8
layer0
10
44.6212974
20
10.2327473
11
44.882538
21
10.3053601
0
LINE
8
layer0
10
44.882538
20
10.3053601
11
45.1732013
21
10.3731716
0
LINE
8
layer0
10
45.1732013
20
10.3731716
11
45.4900418
21
10.4332474
0
LINE
8
layer0
10
45.4900418
20
10.4332474
11
45.8373585
21
10.4841591
0
LINE
8
layer0
10
45.8373585
20
10.4841591
11
46.2124291
21
10.5231702
0
LINE
8
layer0
10
46.2124291
20
10.5231702
11
46.5865912
21
10.546554
0
ARC
8
layer0
10
31.999964
20
-0.0000239
40
18
50
31.6319181
51
35.8680808
0
LINE
8
layer0
10
47.3257922
20
9.4402616
11
47.1610027
21
9.1035295
0
LINE
8
layer0
10
47.1610027
20
9.1035295
11
46.9814278
21
8.7719383
0
LINE
8
layer0
10
46.9814278
20
8.7719383
11
46.8014792
21
8.4705425
0
LINE
8
layer0
10
46.8014792
20
8.4705425
11
46.6247269
21
8.2008102
0
LINE
8
layer0
10
46.6247269
20
8.2008102
11
46.4508451
21
7.9582226
0
LINE
8
layer0
10
46.4508451
20
7.9582226
11
46.2837872
21
7.7446555
0
LINE
8
layer0
10
46.2837872
20
7.7446555
11
46.1256061
21
7.5589676
0
LINE
8
layer0
10
46.1256061
20
7.5589676
11
45.9769301
21
7.3985183
0
LINE
8
layer0
10
45.9769301
20
7.3985183
11
45.8411486
21
7.2637482
0
LINE
8
layer0
10
45.8411486
20
7.2637482
11
45.7175824
21
7.1509664
0
LINE
8
layer0
10
45.7175824
20
7.1509664
11
45.5209885
21
6.9922951
0
LINE
8
layer0
10
45.5209885
20
6.9922951
11
45.4006115
21
6.9103836
0
LINE
8
layer0
10
45.4006115
20
6.9103836
11
45.2788418
21
6.8470429
0
LINE
8
layer0
10
45.2788418
20
6.8470429
11
45.0818346
21
6.7346024
0
LINE
8
layer0
10
45.0818346
20
6.7346024
11
44.9173782
21
6.6188355
0
LINE
8
layer0
10
44.9173782
20
6.6188355
11
44.785334
21
6.5022715
0
LINE
8
layer0
10
44.785334
20
6.5022715
11
44.6854435
21
6.3873902
0
LINE
8
layer0
10
44.6854435
20
6.3873902
11
44.6172787
21
6.2766879
0
LINE
8
layer0
10
44.6172787
20
6.2766879
11
44.5949269
21
6.2236684
0
LINE
8
layer0
10
44.5949269
20
6.2236684
11
44.5802731
21
6.1726036
0
LINE
8
layer0
10
44.5802731
20
6.1726036
11
44.5732395
21
6.1237859
0
LINE
8
layer0
10
44.5732395
20
6.1237859
11
44.5736996
21
6.0775202
0
LINE
8
layer0
10
44.5736996
20
6.0775202
11
44.5815665
21
6.0340952
0
LINE
8
layer0
10
44.5815665
20
6.0340952
11
44.5967084
21
5.9938027
0
LINE
8
layer0
10
44.5967084
20
5.9938027
11
44.8172785
21
5.506454
0
LINE
8
layer0
10
44.8172785
20
5.506454
11
44.8881195
21
5.3384339
0
LINE
8
layer0
10
44.8881195
20
5.3384339
11
44.9568355
21
5.1695336
0
LINE
8
layer0
10
44.9568355
20
5.1695336
11
45.1454764
21
4.6689594
0
LINE
8
layer0
10
45.1454764
20
4.6689594
11
45.1632606
21
4.6297613
0
LINE
8
layer0
10
45.1632606
20
4.6297613
11
45.188404
21
4.5934925
0
LINE
8
layer0
10
45.188404
20
4.5934925
11
45.2207934
21
4.5604524
0
LINE
8
layer0
10
45.2207934
20
4.5604524
11
45.2602863
21
4.5309066
0
LINE
8
layer0
10
45.2602863
20
4.5309066
11
45.3067564
21
4.5051601
0
LINE
8
layer0
10
45.3067564
20
4.5051601
11
45.3600519
21
4.4834747
0
LINE
8
layer0
10
45.3600519
20
4.4834747
11
45.48653
21
4.4533962
0
LINE
8
layer0
10
45.48653
20
4.4533962
11
45.6383966
21
4.4427962
0
LINE
8
layer0
10
45.6383966
20
4.4427962
11
45.8141892
21
4.4537423
0
LINE
8
layer0
10
45.8141892
20
4.4537423
11
46.012337
21
4.4881709
0
LINE
8
layer0
10
46.012337
20
4.4881709
11
46.2311495
21
4.5479686
0
LINE
8
layer0
10
46.2311495
20
4.5479686
11
46.3620424
21
4.5892841
0
LINE
8
layer0
10
46.3620424
20
4.5892841
11
46.5050819
21
4.6164834
0
LINE
8
layer0
10
46.5050819
20
4.6164834
11
46.7562924
21
4.6432987
0
LINE
8
layer0
10
46.7562924
20
4.6432987
11
46.9234156
21
4.6509245
0
LINE
8
layer0
10
46.9234156
20
4.6509245
11
47.1147245
21
4.6516396
0
LINE
8
layer0
10
47.1147245
20
4.6516396
11
47.3333091
21
4.6433146
0
LINE
8
layer0
10
47.3333091
20
4.6433146
11
47.5764612
21
4.6238644
0
LINE
8
layer0
10
47.5764612
20
4.6238644
11
47.8456038
21
4.5909774
0
LINE
8
layer0
10
47.8456038
20
4.5909774
11
48.140092
21
4.542395
0
LINE
8
layer0
10
48.140092
20
4.542395
11
48.4558044
21
4.4766483
0
LINE
8
layer0
10
48.4558044
20
4.4766483
11
48.7961663
21
4.3907722
0
LINE
8
layer0
10
48.7961663
20
4.3907722
11
49.1576152
21
4.2832804
0
LINE
8
layer0
10
49.1576152
20
4.2832804
11
49.5122446
21
4.1616986
0
ARC
8
layer0
10
31.9999577
20
-0.0000087
40
18
50
9.1319193
51
13.3680821
0
LINE
8
layer0
10
49.7718174
20
2.8567377
11
49.49071
21
2.6087
0
LINE
8
layer0
10
49.49071
20
2.6087
11
49.19791
21
2.37107
0
LINE
8
layer0
10
49.19791
20
2.37107
11
48.91632
21
2.16148
0
LINE
8
layer0
10
48.91632
20
2.16148
11
48.6498
21
1.97992
0
LINE
8
layer0
10
48.6498
20
1.97992
11
48.39632
21
1.82234
0
LINE
8
layer0
10
48.39632
20
1.82234
11
48.16025
21
1.68896
0
LINE
8
layer0
10
48.16025
20
1.68896
11
47.94305
21
1.57794
0
LINE
8
layer0
10
47.94305
20
1.57794
11
47.74429
21
1.4866
0
LINE
8
layer0
10
47.74429
20
1.4866
11
47.56727
21
1.41405
0
LINE
8
layer0
10
47.56727
20
1.41405
11
47.40995
21
1.35714
0
LINE
8
layer0
10
47.40995
20
1.35714
11
47.1676
21
1.28578
0
LINE
8
layer0
10
47.1676
20
1.28578
11
47.02504
21
1.25617
0
LINE
8
layer0
10
47.02504
20
1.25617
11
46.8883
21
1.24425
0
LINE
8
layer0
10
46.8883
20
1.24425
11
46.66326
21
1.21576
0
LINE
8
layer0
10
46.66326
20
1.21576
11
46.46702
21
1.17174
0
LINE
8
layer0
10
46.46702
20
1.17174
11
46.30042
21
1.11458
0
LINE
8
layer0
10
46.30042
20
1.11458
11
46.16417
21
1.04667
0
LINE
8
layer0
10
46.16417
20
1.04667
11
46.05883
21
0.97048
0
LINE
8
layer0
10
46.05883
20
0.97048
11
46.01789
21
0.93005
0
LINE
8
layer0
10
46.01789
20
0.93005
11
45.98481
21
0.88848
0
LINE
8
layer0
10
45.98481
20
0.88848
11
45.95963
21
0.84607
0
LINE
8
layer0
10
45.95963
20
0.84607
11
45.94235
21
0.80315
0
LINE
8
layer0
10
45.94235
20
0.80315
11
45.933
21
0.76002
0
LINE
8
layer0
10
45.933
20
0.76002
11
45.93157
21
0.717
0
LINE
8
layer0
10
45.93157
20
0.717
11
45.94885
21
0.18234
0
LINE
8
layer0
10
45.94885
20
0.18234
11
45.95
21
0
0
LINE
8
layer0
10
45.95
20
0
11
45.94885
21
-0.18234
0
LINE
8
layer0
10
45.94885
20
-0.18234
11
45.93157
21
-0.717
0
LINE
8
layer0
10
45.93157
20
-0.717
11
45.933
21
-0.76002
0
LINE
8
layer0
10
45.933
20
-0.76002
11
45.94235
21
-0.80315
0
LINE
8
layer0
10
45.94235
20
-0.80315
11
45.95963
21
-0.84607
0
LINE
8
layer0
10
45.95963
20
-0.84607
11
45.98481
21
-0.88848
0
LINE
8
layer0
10
45.98481
20
-0.88848
11
46.01789
21
-0.93005
0
LINE
8
layer0
10
46.01789
20
-0.93005
11
46.05883
21
-0.97048
0
LINE
8
layer0
10
46.05883
20
-0.97048
11
46.16417
21
-1.04667
0
LINE
8
layer0
10
46.16417
20
-1.04667
11
46.30042
21
-1.11458
0
LINE
8
layer0
10
46.30042
20
-1.11458
11
46.46702
21
-1.17174
0
LINE
8
layer0
10
46.46702
20
-1.17174
11
46.66326
21
-1.21576
0
LINE
8
layer0
10
46.66326
20
-1.21576
11
46.8883
21
-1.24425
0
LINE
8
layer0
10
46.8883
20
-1.24425
11
47.02504
21
-1.25617
0
LINE
8
layer0
10
47.02504
20
-1.25617
11
47.1676
21
-1.28578
0
LINE
8
layer0
10
47.1676
20
-1.28578
11
47.40995
21
-1.35714
0
LINE
8
layer0
10
47.40995
20
-1.35714
11
47.56727
21
-1.41405
0
LINE
8
layer0
10
47.56727
20
-1.41405
11
47.74429
21
-1.4866
0
LINE
8
layer0
10
47.74429
20
-1.4866
11
47.94305
21
-1.57794
0
LINE
8
layer0
10
47.94305
20
-1.57794
11
48.16025
21
-1.68896
0
LINE
8
layer0
10
48.16025
20
-1.68896
11
48.39632
21
-1.82234
0
LINE
8
layer0
10
48.39632
20
-1.82234
11
48.6498
21
-1.97992
0
LINE
8
layer0
10
48.6498
20
-1.97992
11
48.91632
21
-2.16148
0
LINE
8
layer0
10
48.91632
20
-2.16148
11
49.19791
21
-2.37107
0
LINE
8
layer0
10
49.19791
20
-2.37107
11
49.49071
21
-2.6087
0
LINE
8
layer0
10
49.49071
20
-2.6087
11
49.7718174
21
-2.8567377
0
ARC
8
layer0
10
31.9999576
20
0.0000086
40
18
50
346.6319179
51
350.8680807
0
LINE
8
layer0
10
49.5122446
20
-4.1616986
11
49.1576152
21
-4.2832804
0
LINE
8
layer0
10
49.1576152
20
-4.2832804
11
48.7961663
21
-4.3907722
0
LINE
8
layer0
10
48.7961663
20
-4.3907722
11
48.4558044
21
-4.4766483
0
LINE
8
layer0
10
48.4558044
20
-4.4766483
11
48.140092
21
-4.542395
0
LINE
8
layer0
10
48.140092
20
-4.542395
11
47.8456038
21
-4.5909774
0
LINE
8
layer0
10
47.8456038
20
-4.5909774
11
47.5764612
21
-4.6238644
0
LINE
8
layer0
10
47.5764612
20
-4.6238644
11
47.3333091
21
-4.6433146
0
LINE
8
layer0
10
47.3333091
20
-4.6433146
11
47.1147245
21
-4.6516396
0
LINE
8
layer0
10
47.1147245
20
-4.6516396
11
46.9234156
21
-4.6509245
0
LINE
8
layer0
10
46.9234156
20
-4.6509245
11
46.7562924
21
-4.6432987
0
LINE
8
layer0
10
46.7562924
20
-4.6432987
11
46.5050819
21
-4.6164834
0
LINE
8
layer0
10
46.5050819
20
-4.6164834
11
46.3620424
21
-4.5892841
0
LINE
8
layer0
10
46.3620424
20
-4.5892841
11
46.2311495
21
-4.5479686
0
LINE
8
layer0
10
46.2311495
20
-4.5479686
11
46.012337
21
-4.4881709
0
LINE
8
layer0
10
46.012337
20
-4.4881709
11
45.8141892
21
-4.4537423
0
LINE
8
layer0
10
45.8141892
20
-4.4537423
11
45.6383966
21
-4.4427962
0
LINE
8
layer0
10
45.6383966
20
-4.4427962
11
45.48653
21
-4.4533962
0
LINE
8
layer0
10
45.48653
20
-4.4533962
11
45.3600519
21
-4.4834747
0
LINE
8
layer0
10
45.3600519
20
-4.4834747
11
45.3067564
21
-4.5051601
0
LINE
8
layer0
10
45.3067564
20
-4.5051601
11
45.2602863
21
-4.5309066
0
LINE
8
layer0
10
45.2602863
20
-4.5309066
11
45.2207934
21
-4.5604524
0
LINE
8
layer0
10
45.2207934
20
-4.5604524
11
45.188404
21
-4.5934925
0
LINE
8
layer0
10
45.188404
20
-4.5934925
11
45.1632606
21
-4.6297613
0
LINE
8
layer0
10
45.1632606
20
-4.6297613
11
45.1454764
21
-4.6689594
0
LINE
8
layer0
10
45.1454764
20
-4.6689594
11
44.9568355
21
-5.1695336
0
LINE
8
layer0
10
44.9568355
20
-5.1695336
11
44.8881195
21
-5.3384339
0
LINE
8
layer0
10
44.8881195
20
-5.3384339
11
44.8172785
21
-5.506454
0
LINE
8
layer0
10
44.8172785
20
-5.506454
11
44.5967084
21
-5.9938027
0
LINE
8
layer0
10
44.5967084
20
-5.9938027
11
44.5815665
21
-6.0340952
0
LINE
8
layer0
10
44.5815665
20
-6.0340952
11
44.5736996
21
-6.0775202
0
LINE
8
layer0
10
44.5736996
20
-6.0775202
11
44.5732395
21
-6.1237859
0
LINE
8
layer0
10
44.5732395
20
-6.1237859
11
44.5802731
21
-6.1726036
0
LINE
8
layer0
10
44.5802731
20
-6.1726036
11
44.5949269
21
-6.2236684
0
LINE
8
layer0
10
44.5949269
20
-6.2236684
11
44.6172787
21
-6.2766879
0
LINE
8
layer0
10
44.6172787
20
-6.2766879
11
44.6854435
21
-6.3873902
0
LINE
8
layer0
10
44.6854435
20
-6.3873902
11
44.785334
21
-6.5022715
0
LINE
8
layer0
10
44.785334
20
-6.5022715
11
44.9173782
21
-6.6188355
0
LINE
8
layer0
10
44.9173782
20
-6.6188355
11
45.0818346
21
-6.7346024
0
LINE
8
layer0
10
45.0818346
20
-6.7346024
11
45.2788418
21
-6.8470429
0
LINE
8
layer0
10
45.2788418
20
-6.8470429
11
45.4006115
21
-6.9103836
0
LINE
8
layer0
10
45.4006115
20
-6.9103836
11
45.5209885
21
-6.9922951
0
LINE
8
layer0
10
45.5209885
20
-6.9922951
11
45.7175824
21
-7.1509664
0
LINE
8
layer0
10
45.7175824
20
-7.1509664
11
45.8411486
21
-7.2637482
0
LINE
8
layer0
10
45.8411486
20
-7.2637482
11
45.9769301
21
-7.3985183
0
LINE
8
layer0
10
45.9769301
20
-7.3985183
11
46.1256061
21
-7.5589676
0
LINE
8
layer0
10
46.1256061
20
-7.5589676
11
46.2837872
21
-7.7446555
0
LINE
8
layer0
10
46.2837872
20
-7.7446555
11
46.4508451
21
-7.9582226
0
LINE
8
layer0
10
46.4508451
20
-7.9582226
11
46.6247269
21
-8.2008102
0
LINE
8
layer0
10
46.6247269
20
-8.2008102
11
46.8014792
21
-8.4705425
0
LINE
8
layer0
10
46.8014792
20
-8.4705425
11
46.9814278
21
-8.7719383
0
LINE
8
layer0
10
46.9814278
20
-8.7719383
11
47.1610027
21
-9.1035295
0
LINE
8
layer0
10
47.1610027
20
-9.1035295
11
47.3257922
21
-9.4402616
0
ARC
8
layer0
10
31.999964
20
0.0000238
40
18
50
324.1319192
51
328.3680819
0
LINE
8
layer0
10
46.5865912
20
-10.546554
11
46.2124291
21
-10.5231702
0
LINE
8
layer0
10
46.2124291
20
-10.5231702
11
45.8373585
21
-10.4841591
0
LINE
8
layer0
10
45.8373585
20
-10.4841591
11
45.4900418
21
-10.4332474
0
LINE
8
layer0
10
45.4900418
20
-10.4332474
11
45.1732013
21
-10.3731716
0
LINE
8
layer0
10
45.1732013
20
-10.3731716
11
44.882538
21
-10.3053601
0
LINE
8
layer0
10
44.882538
20
-10.3053601
11
44.6212974
21
-10.2327473
0
LINE
8
layer0
10
44.6212974
20
-10.2327473
11
44.3892108
21
-10.1576667
0
LINE
8
layer0
10
44.3892108
20
-10.1576667
11
44.1840792
21
-10.0817093
0
LINE
8
layer0
10
44.1840792
20
-10.0817093
11
44.0076065
21
-10.0078378
0
LINE
8
layer0
10
44.0076065
20
-10.0078378
11
43.856123
21
-9.9368372
0
LINE
8
layer0
10
43.856123
20
-9.9368372
11
43.6342966
21
-9.8159291
0
LINE
8
layer0
10
43.6342966
20
-9.8159291
11
43.512554
21
-9.7360613
0
LINE
8
layer0
10
43.512554
20
-9.7360613
11
43.4074355
21
-9.6478003
0
LINE
8
layer0
10
43.4074355
20
-9.6478003
11
43.2281627
21
-9.5088184
0
LINE
8
layer0
10
43.2281627
20
-9.5088184
11
43.0582732
21
-9.4011826
0
LINE
8
layer0
10
43.0582732
20
-9.4011826
11
42.900051
21
-9.3237969
0
LINE
8
layer0
10
42.900051
20
-9.3237969
11
42.7556881
21
-9.2754732
0
LINE
8
layer0
10
42.7556881
20
-9.2754732
11
42.627327
21
-9.254861
0
LINE
8
layer0
10
42.627327
20
-9.254861
11
42.5697897
21
-9.2545004
0
LINE
8
layer0
10
42.5697897
20
-9.2545004
11
42.5170042
21
-9.2605038
0
LINE
8
layer0
10
42.5170042
20
-9.2605038
11
42.4692109
21
-9.2726872
0
LINE
8
layer0
10
42.4692109
20
-9.2726872
11
42.426643
21
-9.2908174
0
LINE
8
layer0
10
42.426643
20
-9.2908174
11
42.3895341
21
-9.3147035
0
LINE
8
layer0
10
42.3895341
20
-9.3147035
11
42.3581032
21
-9.3441121
0
LINE
8
layer0
10
42.3581032
20
-9.3441121
11
41.9922603
21
-9.7343926
0
LINE
8
layer0
10
41.9922603
20
-9.7343926
11
41.8641396
21
-9.8641396
0
LINE
8
layer0
10
41.8641396
20
-9.8641396
11
41.7343926
21
-9.9922603
0
LINE
8
layer0
10
41.7343926
20
-9.9922603
11
41.3441121
21
-10.3581032
0
LINE
8
layer0
10
41.3441121
20
-10.3581032
11
41.3147035
21
-10.3895341
0
LINE
8
layer0
10
41.3147035
20
-10.3895341
11
41.2908174
21
-10.426643
0
LINE
8
layer0
10
41.2908174
20
-10.426643
11
41.2726872
21
-10.4692109
0
LINE
8
layer0
10
41.2726872
20
-10.4692109
11
41.2605038
21
-10.5170042
0
LINE
8
layer0
10
41.2605038
20
-10.5170042
11
41.2545004
21
-10.5697897
0
LINE
8
layer0
10
41.2545004
20
-10.5697897
11
41.254861
21
-10.627327
0
LINE
8
layer0
10
41.254861
20
-10.627327
11
41.2754732
21
-10.7556881
0
LINE
8
layer0
10
41.2754732
20
-10.7556881
11
41.3237969
21
-10.900051
0
LINE
8
layer0
10
41.3237969
20
-10.900051
11
41.4011826
21
-11.0582732
0
LINE
8
layer0
10
41.4011826
20
-11.0582732
11
41.5088184
21
-11.2281627
0
LINE
8
layer0
10
41.5088184
20
-11.2281627
11
41.6478003
21
-11.4074355
0
LINE
8
layer0
10
41.6478003
20
-11.4074355
11
41.7360613
21
-11.512554
0
LINE
8
layer0
10
41.7360613
20
-11.512554
11
41.8159291
21
-11.6342966
0
LINE
8
layer0
10
41.8159291
20
-11.6342966
11
41.9368372
21
-11.856123
0
LINE
8
layer0
10
41.9368372
20
-11.856123
11
42.0078378
21
-12.0076065
0
LINE
8
layer0
10
42.0078378
20
-12.0076065
11
42.0817093
21
-12.1840792
0
LINE
8
layer0
10
42.0817093
20
-12.1840792
11
42.1576667
21
-12.3892108
0
LINE
8
layer0
10
42.1576667
20
-12.3892108
11
42.2327473
21
-12.6212974
0
LINE
8
layer0
10
42.2327473
20
-12.6212974
11
42.3053601
21
-12.882538
0
LINE
8
layer0
10
42.3053601
20
-12.882538
11
42.3731716
21
-13.1732013
0
LINE
8
layer0
10
42.3731716
20
-13.1732013
11
42.4332474
21
-13.4900418
0
LINE
8
layer0
10
42.4332474
20
-13.4900418
11
42.4841591
21
-13.8373585
0
LINE
8
layer0
10
42.4841591
20
-13.8373585
11
42.5231702
21
-14.2124291
0
LINE
8
layer0
10
42.5231702
20
-14.2124291
11
42.546554
21
-14.5865912
0
ARC
8
layer0
10
31.9999761
20
0.000036
40
18
50
301.6319181
51
305.8680808
0
LINE
8
layer0
10
41.4402616
20
-15.3257922
11
41.1035295
21
-15.1610027
0
LINE
8
layer0
10
41.1035295
20
-15.1610027
11
40.7719383
21
-14.9814278
0
LINE
8
layer0
10
40.7719383
20
-14.9814278
11
40.4705425
21
-14.8014792
0
LINE
8
layer0
10
40.4705425
20
-14.8014792
11
40.2008102
21
-14.6247269
0
LINE
8
layer0
10
40.2008102
20
-14.6247269
11
39.9582226
21
-14.4508451
0
LINE
8
layer0
10
39.9582226
20
-14.4508451
11
39.7446555
21
-14.2837872
0
LINE
8
layer0
10
39.7446555
20
-14.2837872
11
39.5589676
21
-14.1256061
0
LINE
8
layer0
10
39.5589676
20
-14.1256061
11
39.3985183
21
-13.9769301
0
LINE
8
layer0
10
39.3985183
20
-13.9769301
11
39.2637482
21
-13.8411486
0
LINE
8
layer0
10
39.2637482
20
-13.8411486
11
39.1509664
21
-13.7175824
0
LINE
8
layer0
10
39.1509664
20
-13.7175824
11
38.9922951
21
-13.5209885
0
LINE
8
layer0
10
38.9922951
20
-13.5209885
11
38.9103836
21
-13.4006115
0
LINE
8
layer0
10
38.9103836
20
-13.4006115
11
38.8470429
21
-13.2788418
0
LINE
8
layer0
10
38.8470429
20
-13.2788418
11
38.7346024
21
-13.0818346
0
LINE
8
layer0
10
38.7346024
20
-13.0818346
11
38.6188355
21
-12.9173782
0
LINE
8
layer0
10
38.6188355
20
-12.9173782
11
38.5022715
21
-12.785334
0
LINE
8
layer0
10
38.5022715
20
-12.785334
11
38.3873902
21
-12.6854435
0
LINE
8
layer0
10
38.3873902
20
-12.6854435
11
38.2766879
21
-12.6172787
0
LINE
8
layer0
10
38.2766879
20
-12.6172787
11
38.2236684
21
-12.5949269
0
LINE
8
layer0
10
38.2236684
20
-12.5949269
11
38.1726036
21
-12.5802731
0
LINE
8
layer0
10
38.1726036
20
-12.5802731
11
38.1237859
21
-12.5732395
0
LINE
8
layer0
10
38.1237859
20
-12.5732395
11
38.0775202
21
-12.5736996
0
LINE
8
layer0
10
38.0775202
20
-12.5736996
11
38.0340952
21
-12.5815665
0
LINE
8
layer0
10
38.0340952
20
-12.5815665
11
37.9938027
21
-12.5967084
0
LINE
8
layer0
10
37.9938027
20
-12.5967084
11
37.506454
21
-12.8172785
0
LINE
8
layer0
10
37.506454
20
-12.8172785
11
37.3384339
21
-12.8881195
0
LINE
8
layer0
10
37.3384339
20
-12.8881195
11
37.1695336
21
-12.9568355
0
LINE
8
layer0
10
37.1695336
20
-12.9568355
11
36.6689594
21
-13.1454764
0
LINE
8
layer0
10
36.6689594
20
-13.1454764
11
36.6297613
21
-13.1632606
0
LINE
8
layer0
10
36.6297613
20
-13.1632606
11
36.5934925
21
-13.188404
0
LINE
8
layer0
10
36.5934925
20
-13.188404
11
36.5604524
21
-13.2207934
0
LINE
8
layer0
10
36.5604524
20
-13.2207934
11
36.5309066
21
-13.2602863
0
LINE
8
layer0
10
36.5309066
20
-13.2602863
11
36.5051601
21
-13.3067564
0
LINE
8
layer0
10
36.5051601
20
-13.3067564
11
36.4834747
21
-13.3600519
0
LINE
8
layer0
10
36.4834747
20
-13.3600519
11
36.4533962
21
-13.48653
0
LINE
8
layer0
10
36.4533962
20
-13.48653
11
36.4427962
21
-13.6383966
0
LINE
8
layer0
10
36.4427962
20
-13.6383966
11
36.4537423
21
-13.8141892
0
LINE
8
layer0
10
36.4537423
20
-13.8141892
11
36.4881709
21
-14.012337
0
LINE
8
layer0
10
36.4881709
20
-14.012337
11
36.5479686
21
-14.2311495
0
LINE
8
layer0
10
36.5479686
20
-14.2311495
11
36.5892841
21
-14.3620424
0
LINE
8
layer0
10
36.5892841
20
-14.3620424
11
36.6164834
21
-14.5050819
0
LINE
8
layer0
10
36.6164834
20
-14.5050819
11
36.6432987
21
-14.7562924
0
LINE
8
layer0
10
36.6432987
20
-14.7562924
11
36.6509245
21
-14.9234156
0
LINE
8
layer0
10
36.6509245
20
-14.9234156
11
36.6516396
21
-15.1147245
0
LINE
8
layer0
10
36.6516396
20
-15.1147245
11
36.6433146
21
-15.3333091
0
LINE
8
layer0
10
36.6433146
20
-15.3333091
11
36.6238644
21
-15.5764612
0
LINE
8
layer0
10
36.6238644
20
-15.5764612
11
36.5909774
21
-15.8456038
0
LINE
8
layer0
10
36.5909774
20
-15.8456038
11
36.542395
21
-16.140092
0
LINE
8
layer0
10
36.542395
20
-16.140092
11
36.4766483
21
-16.4558044
0
LINE
8
layer0
10
36.4766483
20
-16.4558044
11
36.3907722
21
-16.7961663
0
LINE
8
layer0
10
36.3907722
20
-16.7961663
11
36.2832804
21
-17.1576152
0
LINE
8
layer0
10
36.2832804
20
-17.1576152
11
36.1616986
21
-17.5122446
0
ARC
8
layer0
10
31.9999913
20
0.0000423
40
18
50
279.1319193
51
283.3680821
0
LINE
8
layer0
10
34.8567377
20
-17.7718174
11
34.6087
21
-17.49071
0
LINE
8
layer0
10
34.6087
20
-17.49071
11
34.37107
21
-17.19791
0
LINE
8
layer0
10
34.37107
20
-17.19791
11
34.16148
21
-16.91632
0
LINE
8
layer0
10
34.16148
20
-16.91632
11
33.97992
21
-16.6498
0
LINE
8
layer0
10
33.97992
20
-16.6498
11
33.82234
21
-16.39632
0
LINE
8
layer0
10
33.82234
20
-16.39632
11
33.68896
21
-16.16025
0
LINE
8
layer0
10
33.68896
20
-16.16025
11
33.57794
21
-15.94305
0
LINE
8
layer0
10
33.57794
20
-15.94305
11
33.4866
21
-15.74429
0
LINE
8
layer0
10
33.4866
20
-15.74429
11
33.41405
21
-15.56727
0
LINE
8
layer0
10
33.41405
20
-15.56727
11
33.35714
21
-15.40995
0
LINE
8
layer0
10
33.35714
20
-15.40995
11
33.28578
21
-15.1676
0
LINE
8
layer0
10
33.28578
20
-15.1676
11
33.25617
21
-15.02504
0
LINE
8
layer0
10
33.25617
20
-15.02504
11
33.24425
21
-14.8883
0
LINE
8
layer0
10
33.24425
20
-14.8883
11
33.21576
21
-14.66326
0
LINE
8
layer0
10
33.21576
20
-14.66326
11
33.17174
21
-14.46702
0
LINE
8
layer0
10
33.17174
20
-14.46702
11
33.11458
21
-14.30042
0
LINE
8
layer0
10
33.11458
20
-14.30042
11
33.04667
21
-14.16417
0
LINE
8
layer0
10
33.04667
20
-14.16417
11
32.97048
21
-14.05883
0
LINE
8
layer0
10
32.97048
20
-14.05883
11
32.93005
21
-14.01789
0
LINE
8
layer0
10
32.93005
20
-14.01789
11
32.88848
21
-13.98481
0
LINE
8
layer0
10
32.88848
20
-13.98481
11
32.84607
21
-13.95963
0
LINE
8
layer0
10
32.84607
20
-13.95963
11
32.80315
21
-13.94235
0
LINE
8
layer0
10
32.80315
20
-13.94235
11
32.76002
21
-13.933
0
LINE
8
layer0
10
32.76002
20
-13.933
11
32.717
21
-13.93157
0
LINE
8
layer0
10
32.717
20
-13.93157
11
32.18234
21
-13.94885
0
LINE
8
layer0
10
32.18234
20
-13.94885
11
32
21
-13.95
0
LINE
8
layer0
10
32
20
-13.95
11
31.81766
21
-13.94885
0
LINE
8
layer0
10
31.81766
20
-13.94885
11
31.283
21
-13.93157
0
LINE
8
layer0
10
31.283
20
-13.93157
11
31.23998
21
-13.933
0
LINE
8
layer0
10
31.23998
20
-13.933
11
31.19685
21
-13.94235
0
LINE
8
layer0
10
31.19685
20
-13.94235
11
31.15393
21
-13.95963
0
LINE
8
layer0
10
31.15393
20
-13.95963
11
31.11152
21
-13.98481
0
LINE
8
layer0
10
31.11152
20
-13.98481
11
31.06995
21
-14.01789
0
LINE
8
layer0
10
31.06995
20
-14.01789
11
31.02952
21
-14.05883
0
LINE
8
layer0
10
31.02952
20
-14.05883
11
30.95333
21
-14.16417
0
LINE
8
layer0
10
30.95333
20
-14.16417
11
30.88542
21
-14.30042
0
LINE
8
layer0
10
30.88542
20
-14.30042
11
30.82826
21
-14.46702
0
LINE
8
layer0
10
30.82826
20
-14.46702
11
30.78424
21
-14.66326
0
LINE
8
layer0
10
30.78424
20
-14.66326
11
30.75575
21
-14.8883
0
LINE
8
layer0
10
30.75575
20
-14.8883
11
30.74383
21
-15.02504
0
LINE
8
layer0
10
30.74383
20
-15.02504
11
30.71422
21
-15.1676
0
LINE
8
layer0
10
30.71422
20
-15.1676
11
30.64286
21
-15.40995
0
LINE
8
layer0
10
30.64286
20
-15.40995
11
30.58595
21
-15.56727
0
LINE
8
layer0
10
30.58595
20
-15.56727
11
30.5134
21
-15.74429
0
LINE
8
layer0
10
30.5134
20
-15.74429
11
30.42206
21
-15.94305
0
LINE
8
layer0
10
30.42206
20
-15.94305
11
30.31104
21
-16.16025
0
LINE
8
layer0
10
30.31104
20
-16.16025
11
30.17766
21
-16.39632
0
LINE
8
layer0
10
30.17766
20
-16.39632
11
30.02008
21
-16.6498
0
LINE
8
layer0
10
30.02008
20
-16.6498
11
29.83852
21
-16.91632
0
LINE
8
layer0
10
29.83852
20
-16.91632
11
29.62893
21
-17.19791
0
LINE
8
layer0
10
29.62893
20
-17.19791
11
29.3913
21
-17.49071
0
LINE
8
layer0
10
29.3913
20
-17.49071
11
29.1432623
21
-17.7718174
0
ARC
8
layer0
10
32.0000086
20
0.0000424
40
18
50
256.6319179
51
260.8680807
0
LINE
8
layer0
10
27.8383014
20
-17.5122446
11
27.7167196
21
-17.1576152
0
LINE
8
layer0
10
27.7167196
20
-17.1576152
11
27.6092278
21
-16.7961663
0
LINE
8
layer0
10
27.6092278
20
-16.7961663
11
27.5233517
21
-16.4558044
0
LINE
8
layer0
10
27.5233517
20
-16.4558044
11
27.457605
21
-16.140092
0
LINE
8
layer0
10
27.457605
20
-16.140092
11
27.4090226
21
-15.8456038
0
LINE
8
layer0
10
27.4090226
20
-15.8456038
11
27.3761356
21
-15.5764612
0
LINE
8
layer0
10
27.3761356
20
-15.5764612
11
27.3566854
21
-15.3333091
0
LINE
8
layer0
10
27.3566854
20
-15.3333091
11
27.3483604
21
-15.1147245
0
LINE
8
layer0
10
27.3483604
20
-15.1147245
11
27.3490755
21
-14.9234156
0
LINE
8
layer0
10
27.3490755
20
-14.9234156
11
27.3567013
21
-14.7562924
0
LINE
8
layer0
10
27.3567013
20
-14.7562924
11
27.3835166
21
-14.5050819
0
LINE
8
layer0
10
27.3835166
20
-14.5050819
11
27.4107159
21
-14.3620424
0
LINE
8
layer0
10
27.4107159
20
-14.3620424
11
27.4520314
21
-14.2311495
0
LINE
8
layer0
10
27.4520314
20
-14.2311495
11
27.5118291
21
-14.012337
0
LINE
8
layer0
10
27.5118291
20
-14.012337
11
27.5462577
21
-13.8141892
0
LINE
8
layer0
10
27.5462577
20
-13.8141892
11
27.5572038
21
-13.6383966
0
LINE
8
layer0
10
27.5572038
20
-13.6383966
11
27.5466038
21
-13.48653
0
LINE
8
layer0
10
27.5466038
20
-13.48653
11
27.5165253
21
-13.3600519
0
LINE
8
layer0
10
27.5165253
20
-13.3600519
11
27.4948399
21
-13.3067564
0
LINE
8
layer0
10
27.4948399
20
-13.3067564
11
27.4690934
21
-13.2602863
0
LINE
8
layer0
10
27.4690934
20
-13.2602863
11
27.4395476
21
-13.2207934
0
LINE
8
layer0
10
27.4395476
20
-13.2207934
11
27.4065075
21
-13.188404
0
LINE
8
layer0
10
27.4065075
20
-13.188404
11
27.3702387
21
-13.1632606
0
LINE
8
layer0
10
27.3702387
20
-13.1632606
11
27.3310406
21
-13.1454764
0
LINE
8
layer0
10
27.3310406
20
-13.1454764
11
26.8304664
21
-12.9568355
0
LINE
8
layer0
10
26.8304664
20
-12.9568355
11
26.6615661
21
-12.8881195
0
LINE
8
layer0
10
26.6615661
20
-12.8881195
11
26.493546
21
-12.8172785
0
LINE
8
layer0
10
26.493546
20
-12.8172785
11
26.0061973
21
-12.5967084
0
LINE
8
layer0
10
26.0061973
20
-12.5967084
11
25.9659048
21
-12.5815665
0
LINE
8
layer0
10
25.9659048
20
-12.5815665
11
25.9224798
21
-12.5736996
0
LINE
8
layer0
10
25.9224798
20
-12.5736996
11
25.8762141
21
-12.5732395
0
LINE
8
layer0
10
25.8762141
20
-12.5732395
11
25.8273964
21
-12.5802731
0
LINE
8
layer0
10
25.8273964
20
-12.5802731
11
25.7763316
21
-12.5949269
0
LINE
8
layer0
10
25.7763316
20
-12.5949269
11
25.7233121
21
-12.6172787
0
LINE
8
layer0
10
25.7233121
20
-12.6172787
11
25.6126098
21
-12.6854435
0
LINE
8
layer0
10
25.6126098
20
-12.6854435
11
25.4977285
21
-12.785334
0
LINE
8
layer0
10
25.4977285
20
-12.785334
11
25.3811645
21
-12.9173782
0
LINE
8
layer0
10
25.3811645
20
-12.9173782
11
25.2653976
21
-13.0818346
0
LINE
8
layer0
10
25.2653976
20
-13.0818346
11
25.1529571
21
-13.2788418
0
LINE
8
layer0
10
25.1529571
20
-13.2788418
11
25.0896164
21
-13.4006115
0
LINE
8
layer0
10
25.0896164
20
-13.4006115
11
25.0077049
21
-13.5209885
0
LINE
8
layer0
10
25.0077049
20
-13.5209885
11
24.8490336
21
-13.7175824
0
LINE
8
layer0
10
24.8490336
20
-13.7175824
11
24.7362518
21
-13.8411486
0
LINE
8
layer0
10
24.7362518
20
-13.8411486
11
24.6014817
21
-13.9769301
0
LINE
8
layer0
10
24.6014817
20
-13.9769301
11
24.4410324
21
-14.1256061
0
LINE
8
layer0
10
24.4410324
20
-14.1256061
11
24.2553445
21
-14.2837872
0
LINE
8
layer0
10
24.2553445
20
-14.2837872
11
24.0417774
21
-14.4508451
0
LINE
8
layer0
10
24.0417774
20
-14.4508451
11
23.7991898
21
-14.6247269
0
LINE
8
layer0
10
23.7991898
20
-14.6247269
11
23.5294575
21
-14.8014792
0
LINE
8
layer0
10
23.5294575
20
-14.8014792
11
23.2280617
21
-14.9814278
0
LINE
8
layer0
10
23.2280617
20
-14.9814278
11
22.8964705
21
-15.1610027
0
LINE
8
layer0
10
22.8964705
20
-15.1610027
11
22.5597384
21
-15.3257922
0
ARC
8
layer0
10
32.0000238
20
0.000036
40
18
50
234.1319192
51
238.3680819
0
LINE
8
layer0
10
21.453446
20
-14.5865912
11
21.4768298
21
-14.2124291
0
LINE
8
layer0
10
21.4768298
20
-14.2124291
11
21.5158409
21
-13.8373585
0
LINE
8
layer0
10
21.5158409
20
-13.8373585
11
21.5667526
21
-13.4900418
0
LINE
8
layer0
10
21.5667526
20
-13.4900418
11
21.6268284
21
-13.1732013
0
LINE
8
layer0
10
21.6268284
20
-13.1732013
11
21.6946399
21
-12.882538
0
LINE
8
layer0
10
21.6946399
20
-12.882538
11
21.7672527
21
-12.6212974
0
LINE
8
layer0
10
21.7672527
20
-12.6212974
11
21.8423333
21
-12.3892108
0
LINE
8
layer0
10
21.8423333
20
-12.3892108
11
21.9182907
21
-12.1840792
0
LINE
8
layer0
10
21.9182907
20
-12.1840792
11
21.9921622
21
-12.0076065
0
LINE
8
layer0
10
21.9921622
20
-12.0076065
11
22.0631628
21
-11.856123
0
LINE
8
layer0
10
22.0631628
20
-11.856123
11
22.1840709
21
-11.6342966
0
LINE
8
layer0
10
22.1840709
20
-11.6342966
11
22.2639387
21
-11.512554
0
LINE
8
layer0
10
22.2639387
20
-11.512554
11
22.3521997
21
-11.4074355
0
LINE
8
layer0
10
22.3521997
20
-11.4074355
11
22.4911816
21
-11.2281627
0
LINE
8
layer0
10
22.4911816
20
-11.2281627
11
22.5988174
21
-11.0582732
0
LINE
8
layer0
10
22.5988174
20
-11.0582732
11
22.6762031
21
-10.900051
0
LINE
8
layer0
10
22.6762031
20
-10.900051
11
22.7245268
21
-10.7556881
0
LINE
8
layer0
10
22.7245268
20
-10.7556881
11
22.745139
21
-10.627327
0
LINE
8
layer0
10
22.745139
20
-10.627327
11
22.7454996
21
-10.5697897
0
LINE
8
layer0
10
22.7454996
20
-10.5697897
11
22.7394962
21
-10.5170042
0
LINE
8
layer0
10
22.7394962
20
-10.5170042
11
22.7273128
21
-10.4692109
0
LINE
8
layer0
10
22.7273128
20
-10.4692109
11
22.7091826
21
-10.426643
0
LINE
8
layer0
10
22.7091826
20
-10.426643
11
22.6852965
21
-10.3895341
0
LINE
8
layer0
10
22.6852965
20
-10.3895341
11
22.6558879
21
-10.3581032
0
LINE
8
layer0
10
22.6558879
20
-10.3581032
11
22.2656074
21
-9.9922603
0
LINE
8
layer0
10
22.2656074
20
-9.9922603
11
22.1358604
21
-9.8641396
0
LINE
8
layer0
10
22.1358604
20
-9.8641396
11
22.0077397
21
-9.7343926
0
LINE
8
layer0
10
22.0077397
20
-9.7343926
11
21.6418968
21
-9.3441121
0
LINE
8
layer0
10
21.6418968
20
-9.3441121
11
21.6104659
21
-9.3147035
0
LINE
8
layer0
10
21.6104659
20
-9.3147035
11
21.573357
21
-9.2908174
0
LINE
8
layer0
10
21.573357
20
-9.2908174
11
21.5307891
21
-9.2726872
0
LINE
8
layer0
10
21.5307891
20
-9.2726872
11
21.4829958
21
-9.2605038
0
LINE
8
layer0
10
21.4829958
20
-9.2605038
11
21.4302103
21
-9.2545004
0
LINE
8
layer0
10
21.4302103
20
-9.2545004
11
21.372673
21
-9.254861
0
LINE
8
layer0
10
21.372673
20
-9.254861
11
21.2443119
21
-9.2754732
0
LINE
8
layer0
10
21.2443119
20
-9.2754732
11
21.099949
21
-9.3237969
0
LINE
8
layer0
10
21.099949
20
-9.3237969
11
20.9417268
21
-9.4011826
0
LINE
8
layer0
10
20.9417268
20
-9.4011826
11
20.7718373
21
-9.5088184
0
LINE
8
layer0
10
20.7718373
20
-9.5088184
11
20.5925645
21
-9.6478003
0
LINE
8
layer0
10
20.5925645
20
-9.6478003
11
20.487446
21
-9.7360613
0
LINE
8
layer0
10
20.487446
20
-9.7360613
11
20.3657034
21
-9.8159291
0
LINE
8
layer0
10
20.3657034
20
-9.8159291
11
20.143877
21
-9.9368372
0
LINE
8
layer0
10
20.143877
20
-9.9368372
11
19.9923935
21
-10.0078378
0
LINE
8
layer0
10
19.9923935
20
-10.0078378
11
19.8159208
21
-10.0817093
0
LINE
8
layer0
10
19.8159208
20
-10.0817093
11
19.6107892
21
-10.1576667
0
LINE
8
layer0
10
19.6107892
20
-10.1576667
11
19.3787026
21
-10.2327473
0
LINE
8
layer0
10
19.3787026
20
-10.2327473
11
19.117462
21
-10.3053601
0
LINE
8
layer0
10
19.117462
20
-10.3053601
11
18.8267987
21
-10.3731716
0
LINE
8
layer0
10
18.8267987
20
-10.3731716
11
18.5099582
21
-10.4332474
0
LINE
8
layer0
10
18.5099582
20
-10.4332474
11
18.1626415
21
-10.4841591
0
LINE
8
layer0
10
18.1626415
20
-10.4841591
11
17.7875709
21
-10.5231702
0
LINE
8
layer0
10
17.7875709
20
-10.5231702
11
17.4134088
21
-10.546554
0
ARC
8
layer0
10
32.000036
20
0.0000239
40
18
50
211.6319181
51
215.8680808
0
LINE
8
layer0
10
16.6742078
20
-9.4402616
11
16.8389973
21
-9.1035295
0
LINE
8
layer1
10
16.8389973
20
-9.1035295
11
17.0185722
21
-8.7719383
0
LINE
8
layer1
10
17.0185722
20
-8.7719383
11
17.1985208
21
-8.4705425
0
LINE
8
layer1
10
17.1985208
20
-8.4705425
11
17.3752731
21
-8.2008102
0
LINE
8
layer1
10
17.3752731
20
-8.2008102
11
17.5491549
21
-7.9582226
0
LINE
8
layer1
10
17.5491549
20
-7.9582226
11
17.7162128
21
-7.7446555
0
LINE
8
layer1
10
17.7162128
20
-7.7446555
11
17.8743939
21
-7.5589676
0
LINE
8
layer1
10
17.8743939
20
-7.5589676
11
18.0230699
21
-7.3985183
0
LINE
8
layer1
10
18.0230699
20
-7.3985183
11
18.1588514
21
-7.2637482
0
LINE
8
layer1
10
18.1588514
20
-7.2637482
11
18.2824176
21
-7.1509664
0
LINE
8
layer1
10
18.2824176
20
-7.1509664
11
18.4790115
21
-6.9922951
0
LINE
8
layer1
10
18.4790115
20
-6.9922951
11
18.5993885
21
-6.9103836
0
LINE
8
layer1
10
18.5993885
20
-6.9103836
11
18.7211582
21
-6.8470429
0
LINE
8
layer1
10
18.7211582
20
-6.8470429
11
18.9181654
21
-6.7346024
0
LINE
8
layer1
10
18.9181654
20
-6.7346024
11
19.0826218
21
-6.6188355
0
LINE
8
layer1
10
19.0826218
20
-6.6188355
11
19.214666
21
-6.5022715
0
LINE
8
layer1
10
19.214666
20
-6.5022715
11
19.3145565
21
-6.3873902
0
LINE
8
layer1
10
19.3145565
20
-6.3873902
11
19.3827213
21
-6.2766879
0
LINE
8
layer1
10
19.3827213
20
-6.2766879
11
19.4050731
21
-6.2236684
0
LINE
8
layer1
10
19.4050731
20
-6.2236684
11
19.4197269
21
-6.1726036
0
LINE
8
layer1
10
19.4197269
20
-6.1726036
11
19.4267605
21
-6.1237859
0
LINE
8
layer1
10
19.4267605
20
-6.1237859
11
19.4263004
21
-6.0775202
0
LINE
8
layer1
10
19.4263004
20
-6.0775202
11
19.4184335
21
-6.0340952
0
LINE
8
layer1
10
19.4184335
20
-6.0340952
11
19.4032916
21
-5.9938027
0
LINE
8
layer1
10
19.4032916
20
-5.9938027
11
19.1827215
21
-5.506454
0
LINE
8
layer1
10
19.1827215
20
-5.506454
11
19.1118805
21
-5.3384339
0
LINE
8
layer1
10
19.1118805
20
-5.3384339
11
19.0431645
21
-5.1695336
0
LINE
8
layer1
10
19.0431645
20
-5.1695336
11
18.8545236
21
-4.6689594
0
LINE
8
layer1
10
18.8545236
20
-4.6689594
11
18.8367394
21
-4.6297613
0
LINE
8
layer1
10
18.8367394
20
-4.6297613
11
18.811596
21
-4.5934925
0
LINE
8
layer1
10
18.811596
20
-4.5934925
11
18.7792066
21
-4.5604524
0
LINE
8
layer1
10
18.7792066
20
-4.5604524
11
18.7397137
21
-4.5309066
0
LINE
8
layer1
10
18.7397137
20
-4.5309066
11
18.6932436
21
-4.5051601
0
LINE
8
layer1
10
18.6932436
20
-4.5051601
11
18.6399481
21
-4.4834747
0
LINE
8
layer1
10
18.6399481
20
-4.4834747
11
18.51347
21
-4.4533962
0
LINE
8
layer1
10
18.51347
20
-4.4533962
11
18.3616034
21
-4.4427962
0
LINE
8
layer1
10
18.3616034
20
-4.4427962
11
18.1858108
21
-4.4537423
0
LINE
8
layer1
10
18.1858108
20
-4.4537423
11
17.987663
21
-4.4881709
0
LINE
8
layer1
10
17.987663
20
-4.4881709
11
17.7688505
21
-4.5479686
0
LINE
8
layer1
10
17.7688505
20
-4.5479686
11
17.6379576
21
-4.5892841
0
LINE
8
layer1
10
17.6379576
20
-4.5892841
11
17.4949181
21
-4.6164834
0
LINE
8
layer1
10
17.4949181
20
-4.6164834
11
17.2437076
21
-4.6432987
0
LINE
8
layer1
10
17.2437076
20
-4.6432987
11
17.0765844
21
-4.6509245
0
LINE
8
layer1
10
17.0765844
20
-4.6509245
11
16.8852755
21
-4.6516396
0
LINE
8
layer1
10
16.8852755
20
-4.6516396
11
16.6666909
21
-4.6433146
0
LINE
8
layer1
10
16.6666909
20
-4.6433146
11
16.4235388
21
-4.6238644
0
LINE
8
layer1
10
16.4235388
20
-4.6238644
11
16.1543962
21
-4.5909774
0
LINE
8
layer1
10
16.1543962
20
-4.5909774
11
15.859908
21
-4.542395
0
LINE
8
layer1
10
15.859908
20
-4.542395
11
15.5441956
21
-4.4766483
0
LINE
8
layer1
10
15.5441956
20
-4.4766483
11
15.2038337
21
-4.3907722
0
LINE
8
layer1
10
15.2038337
20
-4.3907722
11
14.8423848
21
-4.2832804
0
LINE
8
layer1
10
14.8423848
20
-4.2832804
11
14.4877554
21
-4.1616986
0
ARC
8
layer1
10
32.0000423
20
0.0000087
40
18
50
189.1319193
51
193.3680821
0
LINE
8
layer1
10
14.2281826
20
-2.8567377
11
14.50929
21
-2.6087
0
LINE
8
layer1
10
14.50929
20
-2.6087
11
14.80209
21
-2.37107
0
LINE
8
layer1
10
14.80209
20
-2.37107
11
15.08368
21
-2.16148
0
LINE
8
layer1
10
15.08368
20
-2.16148
11
15.3502
21
-1.97992
0
LINE
8
layer1
10
15.3502
20
-1.97992
11
15.60368
21
-1.82234
0
LINE
8
layer1
10
15.60368
20
-1.82234
11
15.83975
21
-1.68896
0
LINE
8
layer1
10
15.83975
20
-1.68896
11
16.05695
21
-1.57794
0
LINE
8
layer1
10
16.05695
20
-1.57794
11
16.25571
21
-1.4866
0
LINE
8
layer1
10
16.25571
20
-1.4866
11
16.43273
21
-1.41405
0
LINE
8
layer1
10
16.43273
20
-1.41405
11
16.59005
21
-1.35714
0
LINE
8
layer1
10
16.59005
20
-1.35714
11
16.8324
21
-1.28578
0
LINE
8
layer1
10
16.8324
20
-1.28578
11
16.97496
21
-1.25617
0
LINE
8
layer1
10
16.97496
20
-1.25617
11
17.1117
21
-1.24425
0
LINE
8
layer1
10
17.1117
20
-1.24425
11
17.33674
21
-1.21576
0
LINE
8
layer1
10
17.33674
20
-1.21576
11
17.53298
21
-1.17174
0
LINE
8
layer1
10
17.53298
20
-1.17174
11
17.69958
21
-1.11458
0
LINE
8
layer1
10
17.69958
20
-1.11458
11
17.83583
21
-1.04667
0
LINE
8
layer1
10
17.83583
20
-1.04667
11
17.94117
21
-0.97048
0
LINE
8
layer1
10
17.94117
20
-0.97048
11
17.98211
21
-0.93005
0
LINE
8
layer1
10
17.98211
20
-0.93005
11
18.01519
21
-0.88848
0
LINE
8
layer1
10
18.01519
20
-0.88848
11
18.04037
21
-0.84607
0
LINE
8
layer1
10
18.04037
20
-0.84607
11
18.05765
21
-0.80315
0
LINE
8
layer1
10
18.05765
20
-0.80315
11
18.067
21
-0.76002
0
LINE
8
layer1
10
18.067
20
-0.76002
11
18.06843
21
-0.717
0
LINE
8
layer1
10
18.06843
20
-0.717
11
18.05115
21
-0.18234
0
LINE
8
layer1
10
18.05115
20
-0.18234
11
18.05
21
0
0
LINE
8
layer1
10
18.05
20
0
11
18.05115
21
0.18234
0
LINE
8
layer1
10
18.05115
20
0.18234
11
18.06843
21
0.717
0
LINE
8
layer1
10
18.06843
20
0.717
11
18.067
21
0.76002
0
LINE
8
layer1
10
18.067
20
0.76002
11
18.05765
21
0.80315
0
LINE
8
layer1
10
18.05765
20
0.80315
11
18.04037
21
0.84607
0
LINE
8
layer1
10
18.04037
20
0.84607
11
18.01519
21
0.88848
0
LINE
8
layer1
10
18.01519
20
0.88848
11
17.98211
21
0.93005
0
LINE
8
layer1
10
17.98211
20
0.93005
11
17.94117
21
0.97048
0
LINE
8
layer1
10
17.94117
20
0.97048
11
17.83583
21
1.04667
0
LINE
8
layer1
10
17.83583
20
1.04667
11
17.69958
21
1.11458
0
LINE
8
layer1
10
17.69958
20
1.11458
11
17.53298
21
1.17174
0
LINE
8
layer1
10
17.53298
20
1.17174
11
17.33674
21
1.21576
0
LINE
8
layer1
10
17.33674
20
1.21576
11
17.1117
21
1.24425
0
LINE
8
layer1
10
17.1117
20
1.24425
11
16.97496
21
1.25617
0
LINE
8
layer1
10
16.97496
20
1.25617
11
16.8324
21
1.28578
0
LINE
8
layer1
10
16.8324
20
1.28578
11
16.59005
21
1.35714
0
LINE
8
layer1
10
16.59005
20
1.35714
11
16.43273
21
1.41405
0
LINE
8
layer1
10
16.43273
20
1.41405
11
16.25571
21
1.4866
0
LINE
8
layer1
10
16.25571
20
1.4866
11
16.05695
21
1.57794
0
LINE
8
layer1
10
16.05695
20
1.57794
11
15.83975
21
1.68896
0
LINE
8
layer1
10
15.83975
20
1.68896
11
15.60368
21
1.82234
0
LINE
8
layer1
10
15.60368
20
1.82234
11
15.3502
21
1.97992
0
LINE
8
layer1
10
15.3502
20
1.97992
11
15.08368
21
2.16148
0
LINE
8
layer1
10
15.08368
20
2.16148
11
14.80209
21
2.37107
0
LINE
8
layer1
10
14.80209
20
2.37107
11
14.50929
21
2.6087
0
LINE
8
layer1
10
14.50929
20
2.6087
11
14.2281826
21
2.8567377
0
ARC
8
layer1
10
32.0000424
20
-0.0000086
40
18
50
166.6319179
51
170.8680807
0
LINE
8
layer1
10
14.4877554
20
4.1616986
11
14.8423848
21
4.2832804
0
LINE
8
layer1
10
14.8423848
20
4.2832804
11
15.2038337
21
4.3907722
0
LINE
8
layer1
10
15.2038337
20
4.3907722
11
15.5441956
21
4.4766483
0
LINE
8
layer1
10
15.5441956
20
4.4766483
11
15.859908
21
4.542395
0
LINE
8
layer1
10
15.859908
20
4.542395
11
16.1543962
21
4.5909774
0
LINE
8
layer1
10
16.1543962
20
4.5909774
11
16.4235388
21
4.6238644
0
LINE
8
layer1
10
16.4235388
20
4.6238644
11
16.6666909
21
4.6433146
0
LINE
8
layer1
10
16.6666909
20
4.6433146
11
16.8852755
21
4.6516396
0
LINE
8
layer1
10
16.8852755
20
4.6516396
11
17.0765844
21
4.6509245
0
LINE
8
layer1
10
17.0765844
20
4.6509245
11
17.2437076
21
4.6432987
0
LINE
8
layer1
10
17.2437076
20
4.6432987
11
17.4949181
21
4.6164834
0
LINE
8
layer1
10
17.4949181
20
4.6164834
11
17.6379576
21
4.5892841
0
LINE
8
layer1
10
17.6379576
20
4.5892841
11
17.7688505
21
4.5479686
0
LINE
8
layer1
10
17.7688505
20
4.5479686
11
17.987663
21
4.4881709
0
LINE
8
layer1
10
17.987663
20
4.4881709
11
18.1858108
21
4.4537423
0
LINE
8
layer1
10
18.1858108
20
4.4537423
11
18.3616034
21
4.4427962
0
LINE
8
layer1
10
18.3616034
20
4.4427962
11
18.51347
21
4.4533962
0
LINE
8
layer1
10
18.51347
20
4.4533962
11
18.6399481
21
4.4834747
0
LINE
8
layer1
10
18.6399481
20
4.4834747
11
18.6932436
21
4.5051601
0
LINE
8
layer1
10
18.6932436
20
4.5051601
11
18.7397137
21
4.5309066
0
LINE
8
layer1
10
18.7397137
20
4.5309066
11
18.7792066
21
4.5604524
0
LINE
8
layer1
10
18.7792066
20
4.5604524
11
18.811596
21
4.5934925
0
LINE
8
layer1
10
18.811596
20
4.5934925
11
18.8367394
21
4.6297613
0
LINE
8
layer1
10
18.8367394
20
4.6297613
11
18.8545236
21
4.6689594
0
LINE
8
layer1
10
18.8545236
20
4.6689594
11
19.0431645
21
5.1695336
0
LINE
8
layer1
10
19.0431645
20
5.1695336
11
19.1118805
21
5.3384339
0
LINE
8
layer1
10
19.1118805
20
5.3384339
11
19.1827215
21
5.506454
0
LINE
8
layer1
10
19.1827215
20
5.506454
11
19.4032916
21
5.9938027
0
LINE
8
layer1
10
19.4032916
20
5.9938027
11
19.4184335
21
6.0340952
0
LINE
8
layer1
10
19.4184335
20
6.0340952
11
19.4263004
21
6.0775202
0
LINE
8
layer1
10
19.4263004
20
6.0775202
11
19.4267605
21
6.1237859
0
LINE
8
layer1
10
19.4267605
20
6.1237859
11
19.4197269
21
6.1726036
0
LINE
8
layer1
10
19.4197269
20
6.1726036
11
19.4050731
21
6.2236684
0
LINE
8
layer1
10
19.4050731
20
6.2236684
11
19.3827213
21
6.2766879
0
LINE
8
layer1
10
19.3827213
20
6.2766879
11
19.3145565
21
6.3873902
0
LINE
8
layer1
10
19.3145565
20
6.3873902
11
19.214666
21
6.5022715
0
LINE
8
layer1
10
19.214666
20
6.5022715
11
19.0826218
21
6.6188355
0
LINE
8
layer1
10
19.0826218
20
6.6188355
11
18.9181654
21
6.7346024
0
LINE
8
layer1
10
18.9181654
20
6.7346024
11
18.7211582
21
6.8470429
0
LINE
8
layer1
10
18.7211582
20
6.8470429
11
18.5993885
21
6.9103836
0
LINE
8
layer1
10
18.5993885
20
6.9103836
11
18.4790115
21
6.9922951
0
LINE
8
layer1
10
18.4790115
20
6.9922951
11
18.2824176
21
7.1509664
0
LINE
8
layer1
10
18.2824176
20
7.1509664
11
18.1588514
21
7.2637482
0
LINE
8
layer1
10
18.1588514
20
7.2637482
11
18.0230699
21
7.3985183
0
LINE
8
layer1
10
18.0230699
20
7.3985183
11
17.8743939
21
7.5589676
0
LINE
8
layer1
10
17.8743939
20
7.5589676
11
17.7162128
21
7.7446555
0
LINE
8
layer1
10
17.7162128
20
7.7446555
11
17.5491549
21
7.9582226
0
LINE
8
layer1
10
17.5491549
20
7.9582226
11
17.3752731
21
8.2008102
0
LINE
8
layer1
10
17.3752731
20
8.2008102
11
17.1985208
21
8.4705425
0
LINE
8
layer1
10
17.1985208
20
8.4705425
11
17.0185722
21
8.7719383
0
LINE
8
layer1
10
17.0185722
20
8.7719383
11
16.8389973
21
9.1035295
0
LINE
8
layer1
10
16.8389973
20
9.1035295
11
16.6742078
21
9.4402616
0
ARC
8
layer1
10
32.000036
20
-0.0000238
40
18
50
144.1319192
51
148.3680819
0
LINE
8
layer1
10
17.4134088
20
10.546554
11
17.7875709
21
10.5231702
0
LINE
8
layer1
10
17.7875709
20
10.5231702
11
18.1626415
21
10.4841591
0
LINE
8
layer1
10
18.1626415
20
10.4841591
11
18.5099582
21
10.4332474
0
LINE
8
layer1
10
18.5099582
20
10.4332474
11
18.8267987
21
10.3731716
0
LINE
8
layer1
10
18.8267987
20
10.3731716
11
19.117462
21
10.3053601
0
LINE
8
layer1
10
19.117462
20
10.3053601
11
19.3787026
21
10.2327473
0
LINE
8
layer1
10
19.3787026
20
10.2327473
11
19.6107892
21
10.1576667
0
LINE
8
layer1
10
19.6107892
20
10.1576667
11
19.8159208
21
10.0817093
0
LINE
8
layer1
10
19.8159208
20
10.0817093
11
19.9923935
21
10.0078378
0
LINE
8
layer1
10
19.9923935
20
10.0078378
11
20.143877
21
9.9368372
0
LINE
8
layer1
10
20.143877
20
9.9368372
11
20.3657034
21
9.8159291
0
LINE
8
layer1
10
20.3657034
20
9.8159291
11
20.487446
21
9.7360613
0
LINE
8
layer1
10
20.487446
20
9.7360613
11
20.5925645
21
9.6478003
0
LINE
8
layer1
10
20.5925645
20
9.6478003
11
20.7718373
21
9.5088184
0
LINE
8
layer1
10
20.7718373
20
9.5088184
11
20.9417268
21
9.4011826
0
LINE
8
layer1
10
20.9417268
20
9.4011826
11
21.099949
21
9.3237969
0
LINE
8
layer1
10
21.099949
20
9.3237969
11
21.2443119
21
9.2754732
0
LINE
8
layer1
10
21.2443119
20
9.2754732
11
21.372673
21
9.254861
0
LINE
8
layer1
10
21.372673
20
9.254861
11
21.4302103
21
9.2545004
0
LINE
8
layer1
10
21.4302103
20
9.2545004
11
21.4829958
21
9.2605038
0
LINE
8
layer1
10
21.4829958
20
9.2605038
11
21.5307891
21
9.2726872
0
LINE
8
layer1
10
21.5307891
20
9.2726872
11
21.573357
21
9.2908174
0
LINE
8
layer1
10
21.573357
20
9.2908174
11
21.6104659
21
9.3147035
0
LINE
8
layer1
10
21.6104659
20
9.3147035
11
21.6418968
21
9.3441121
0
LINE
8
layer1
10
21.6418968
20
9.3441121
11
22.0077397
21
9.7343926
0
LINE
8
layer1
10
22.0077397
20
9.7343926
11
22.1358604
21
9.8641396
0
LINE
8
layer1
10
22.1358604
20
9.8641396
11
22.2656074
21
9.9922603
0
LINE
8
layer1
10
22.2656074
20
9.9922603
11
22.6558879
21
10.3581032
0
LINE
8
layer1
10
22.6558879
20
10.3581032
11
22.6852965
21
10.3895341
0
LINE
8
layer1
10
22.6852965
20
10.3895341
11
22.7091826
21
10.426643
0
LINE
8
layer1
10
22.7091826
20
10.426643
11
22.7273128
21
10.4692109
0
LINE
8
layer1
10
22.7273128
20
10.4692109
11
22.7394962
21
10.5170042
0
LINE
8
layer1
10
22.7394962
20
10.5170042
11
22.7454996
21
10.5697897
0
LINE
8
layer1
10
22.7454996
20
10.5697897
11
22.745139
21
10.627327
0
LINE
8
layer1
10
22.745139
20
10.627327
11
22.7245268
21
10.7556881
0
LINE
8
layer1
10
22.7245268
20
10.7556881
11
22.6762031
21
10.900051
0
LINE
8
layer1
10
22.6762031
20
10.900051
11
22.5988174
21
11.0582732
0
LINE
8
layer1
10
22.5988174
20
11.0582732
11
22.4911816
21
11.2281627
0
LINE
8
layer1
10
22.4911816
20
11.2281627
11
22.3521997
21
11.4074355
0
LINE
8
layer1
10
22.3521997
20
11.4074355
11
22.2639387
21
11.512554
0
LINE
8
layer1
10
22.2639387
20
11.512554
11
22.1840709
21
11.6342966
0
LINE
8
layer1
10
22.1840709
20
11.6342966
11
22.0631628
21
11.856123
0
LINE
8
layer1
10
22.0631628
20
11.856123
11
21.9921622
21
12.0076065
0
LINE
8
layer1
10
21.9921622
20
12.0076065
11
21.9182907
21
12.1840792
0
LINE
8
layer1
10
21.9182907
20
12.1840792
11
21.8423333
21
12.3892108
0
LINE
8
layer1
10
21.8423333
20
12.3892108
11
21.7672527
21
12.6212974
0
LINE
8
layer1
10
21.7672527
20
12.6212974
11
21.6946399
21
12.882538
0
LINE
8
layer1
10
21.6946399
20
12.882538
11
21.6268284
21
13.1732013
0
LINE
8
layer1
10
21.6268284
20
13.1732013
11
21.5667526
21
13.4900418
0
LINE
8
layer1
10
21.5667526
20
13.4900418
11
21.5158409
21
13.8373585
0
LINE
8
layer1
10
21.5158409
20
13.8373585
11
21.4768298
21
14.2124291
0
LINE
8
layer1
10
21.4768298
20
14.2124291
11
21.453446
21
14.5865912
0
ARC
8
layer1
10
32.0000239
20
-0.000036
40
18
50
121.6319181
51
125.8680808
0
LINE
8
layer1
10
22.5597384
20
15.3257922
11
22.8964705
21
15.1610027
0
LINE
8
layer1
10
22.8964705
20
15.1610027
11
23.2280617
21
14.9814278
0
LINE
8
layer1
10
23.2280617
20
14.9814278
11
23.5294575
21
14.8014792
0
LINE
8
layer1
10
23.5294575
20
14.8014792
11
23.7991898
21
14.6247269
0
LINE
8
layer1
10
23.7991898
20
14.6247269
11
24.0417774
21
14.4508451
0
LINE
8
layer1
10
24.0417774
20
14.4508451
11
24.2553445
21
14.2837872
0
LINE
8
layer1
10
24.2553445
20
14.2837872
11
24.4410324
21
14.1256061
0
LINE
8
layer1
10
24.4410324
20
14.1256061
11
24.6014817
21
13.9769301
0
LINE
8
layer1
10
24.6014817
20
13.9769301
11
24.7362518
21
13.8411486
0
LINE
8
layer1
10
24.7362518
20
13.8411486
11
24.8490336
21
13.7175824
0
LINE
8
layer1
10
24.8490336
20
13.7175824
11
25.0077049
21
13.5209885
0
LINE
8
layer1
10
25.0077049
20
13.5209885
11
25.0896164
21
13.4006115
0
LINE
8
layer1
10
25.0896164
20
13.4006115
11
25.1529571
21
13.2788418
0
LINE
8
layer1
10
25.1529571
20
13.2788418
11
25.2653976
21
13.0818346
0
LINE
8
layer1
10
25.2653976
20
13.0818346
11
25.3811645
21
12.9173782
0
LINE
8
layer1
10
25.3811645
20
12.9173782
11
25.4977285
21
12.785334
0
LINE
8
layer1
10
25.4977285
20
12.785334
11
25.6126098
21
12.6854435
0
LINE
8
layer1
10
25.6126098
20
12.6854435
11
25.7233121
21
12.6172787
0
LINE
8
layer1
10
25.7233121
20
12.6172787
11
25.7763316
21
12.5949269
0
LINE
8
layer1
10
25.7763316
20
12.5949269
11
25.8273964
21
12.5802731
0
LINE
8
layer1
10
25.8273964
20
12.5802731
11
25.8762141
21
12.5732395
0
LINE
8
layer1
10
25.8762141
20
12.5732395
11
25.9224798
21
12.5736996
0
LINE
8
layer1
10
25.9224798
20
12.5736996
11
25.9659048
21
12.5815665
0
LINE
8
layer1
10
25.9659048
20
12.5815665
11
26.0061973
21
12.5967084
0
LINE
8
layer1
10
26.0061973
20
12.5967084
11
26.493546
21
12.8172785
0
LINE
8
layer1
10
26.493546
20
12.8172785
11
26.6615661
21
12.8881195
0
LINE
8
layer1
10
26.6615661
20
12.8881195
11
26.8304664
21
12.9568355
0
LINE
8
layer1
10
26.8304664
20
12.9568355
11
27.3310406
21
13.1454764
0
LINE
8
layer1
10
27.3310406
20
13.1454764
11
27.3702387
21
13.1632606
0
LINE
8
layer1
10
27.3702387
20
13.1632606
11
27.4065075
21
13.188404
0
LINE
8
layer1
10
27.4065075
20
13.188404
11
27.4395476
21
13.2207934
0
LINE
8
layer1
10
27.4395476
20
13.2207934
11
27.4690934
21
13.2602863
0
LINE
8
layer1
10
27.4690934
20
13.2602863
11
27.4948399
21
13.3067564
0
LINE
8
layer1
10
27.4948399
20
13.3067564
11
27.5165253
21
13.3600519
0
LINE
8
layer1
10
27.5165253
20
13.3600519
11
27.5466038
21
13.48653
0
LINE
8
layer1
10
27.5466038
20
13.48653
11
27.5572038
21
13.6383966
0
LINE
8
layer1
10
27.5572038
20
13.6383966
11
27.5462577
21
13.8141892
0
LINE
8
layer1
10
27.5462577
20
13.8141892
11
27.5118291
21
14.012337
0
LINE
8
layer1
10
27.5118291
20
14.012337
11
27.4520314
21
14.2311495
0
LINE
8
layer1
10
27.4520314
20
14.2311495
11
27.4107159
21
14.3620424
0
LINE
8
layer1
10
27.4107159
20
14.3620424
11
27.3835166
21
14.5050819
0
LINE
8
layer1
10
27.3835166
20
14.5050819
11
27.3567013
21
14.7562924
0
LINE
8
layer1
10
27.3567013
20
14.7562924
11
27.3490755
21
14.9234156
0
LINE
8
layer1
10
27.3490755
20
14.9234156
11
27.3483604
21
15.1147245
0
LINE
8
layer1
10
27.3483604
20
15.1147245
11
27.3566854
21
15.3333091
0
LINE
8
layer1
10
27.3566854
20
15.3333091
11
27.3761356
21
15.5764612
0
LINE
8
layer1
10
27.3761356
20
15.5764612
11
27.4090226
21
15.8456038
0
LINE
8
layer1
10
27.4090226
20
15.8456038
11
27.457605
21
16.140092
0
LINE
8
layer1
10
27.457605
20
16.140092
11
27.5233517
21
16.4558044
0
LINE
8
layer1
10
27.5233517
20
16.4558044
11
27.6092278
21
16.7961663
0
LINE
8
layer1
10
27.6092278
20
16.7961663
11
27.7167196
21
17.1576152
0
LINE
8
layer1
10
27.7167196
20
17.1576152
11
27.8383014
21
17.5122446
0
ARC
8
layer1
10
32.0000087
20
-0.0000423
40
18
50
99.1319193
51
103.3680821
0
LINE
8
layer1
10
29.1432623
20
17.7718174
11
29.3913
21
17.49071
0
LINE
8
layer1
10
29.3913
20
17.49071
11
29.62893
21
17.19791
0
LINE
8
layer1
10
29.62893
20
17.19791
11
29.83852
21
16.91632
0
LINE
8
layer1
10
29.83852
20
16.91632
11
30.02008
21
16.6498
0
LINE
8
layer1
10
30.02008
20
16.6498
11
30.17766
21
16.39632
0
LINE
8
layer1
10
30.17766
20
16.39632
11
30.31104
21
16.16025
0
LINE
8
layer1
10
30.31104
20
16.16025
11
30.42206
21
15.94305
0
LINE
8
layer1
10
30.42206
20
15.94305
11
30.5134
21
15.74429
0
LINE
8
layer1
10
30.5134
20
15.74429
11
30.58595
21
15.56727
0
LINE
8
layer1
10
30.58595
20
15.56727
11
30.64286
21
15.40995
0
LINE
8
layer1
10
30.64286
20
15.40995
11
30.71422
21
15.1676
0
LINE
8
layer1
10
30.71422
20
15.1676
11
30.74383
21
15.02504
0
LINE
8
layer1
10
30.74383
20
15.02504
11
30.75575
21
14.8883
0
LINE
8
layer1
10
30.75575
20
14.8883
11
30.78424
21
14.66326
0
LINE
8
layer1
10
30.78424
20
14.66326
11
30.82826
21
14.46702
0
LINE
8
layer1
10
30.82826
20
14.46702
11
30.88542
21
14.30042
0
LINE
8
layer1
10
30.88542
20
14.30042
11
30.95333
21
14.16417
0
LINE
8
layer1
10
30.95333
20
14.16417
11
31.02952
21
14.05883
0
LINE
8
layer1
10
31.02952
20
14.05883
11
31.06995
21
14.01789
0
LINE
8
layer1
10
31.06995
20
14.01789
11
31.11152
21
13.98481
0
LINE
8
layer1
10
31.11152
20
13.98481
11
31.15393
21
13.95963
0
LINE
8
layer1
10
31.15393
20
13.95963
11
31.19685
21
13.94235
0
LINE
8
layer1
10
31.19685
20
13.94235
11
31.23998
21
13.933
0
LINE
8
layer1
10
31.23998
20
13.933
11
31.283
21
13.93157
0
LINE
8
layer1
10
31.283
20
13.93157
11
31.81766
21
13.94885
0
LINE
8
layer1
10
31.81766
20
13.94885
11
32
21
13.95
0
LINE
8
layer1
10
32
20
13.95
11
32.18234
21
13.94885
0
LINE
8
layer1
10
32.18234
20
13.94885
11
32.717
21
13.93157
0
LINE
8
layer1
10
32.717
20
13.93157
11
32.76002
21
13.933
0
LINE
8
layer1
10
32.76002
20
13.933
11
32.80315
21
13.94235
0
LINE
8
layer1
10
32.80315
20
13.94235
11
32.84607
21
13.95963
0
LINE
8
layer1
10
32.84607
20
13.95963
11
32.88848
21
13.98481
0
LINE
8
layer1
10
32.88848
20
13.98481
11
32.93005
21
14.01789
0
LINE
8
layer1
10
32.93005
20
14.01789
11
32.97048
21
14.05883
0
LINE
8
layer1
10
32.97048
20
14.05883
11
33.04667
21
14.16417
0
LINE
8
layer1
10
33.04667
20
14.16417
11
33.11458
21
14.30042
0
LINE
8
layer1
10
33.11458
20
14.30042
11
33.17174
21
14.46702
0
LINE
8
layer1
10
33.17174
20
14.46702
11
33.21576
21
14.66326
0
LINE
8
layer1
10
33.21576
20
14.66326
11
33.24425
21
14.8883
0
LINE
8
layer1
10
33.24425
20
14.8883
11
33.25617
21
15.02504
0
LINE
8
layer1
10
33.25617
20
15.02504
11
33.28578
21
15.1676
0
LINE
8
layer1
10
33.28578
20
15.1676
11
33.35714
21
15.40995
0
LINE
8
layer1
10
33.35714
20
15.40995
11
33.41405
21
15.56727
0
LINE
8
layer1
10
33.41405
20
15.56727
11
33.4866
21
15.74429
0
LINE
8
layer1
10
33.4866
20
15.74429
11
33.57794
21
15.94305
0
LINE
8
layer1
10
33.57794
20
15.94305
11
33.68896
21
16.16025
0
LINE
8
layer1
10
33.68896
20
16.16025
11
33.82234
21
16.39632
0
LINE
8
layer1
10
33.82234
20
16.39632
11
33.97992
21
16.6498
0
LINE
8
layer1
10
33.97992
20
16.6498
11
34.16148
21
16.91632
0
LINE
8
layer1
10
34.16148
20
16.91632
11
34.37107
21
17.19791
0
LINE
8
layer1
10
34.37107
20
17.19791
11
34.6087
21
17.49071
0
LINE
8
layer1
10
34.6087
20
17.49071
11
34.8567377
21
17.7718174
0
ARC
8
layer1
10
31.9999914
20
-0.0000424
40
18
50
76.6319179
51
80.8680807
0
LINE
8
layer1
10
36.1616986
20
17.5122446
11
36.2832804
21
17.1576152
0
LINE
8
layer1
10
36.2832804
20
17.1576152
11
36.3907722
21
16.7961663
0
LINE
8
layer1
10
36.3907722
20
16.7961663
11
36.4766483
21
16.4558044
0
LINE
8
layer1
10
36.4766483
20
16.4558044
11
36.542395
21
16.140092
0
LINE
8
layer1
10
36.542395
20
16.140092
11
36.5909774
21
15.8456038
0
LINE
8
layer1
10
36.5909774
20
15.8456038
11
36.6238644
21
15.5764612
0
LINE
8
layer1
10
36.6238644
20
15.5764612
11
36.6433146
21
15.3333091
0
LINE
8
layer1
10
36.6433146
20
15.3333091
11
36.6516396
21
15.1147245
0
LINE
8
layer1
10
36.6516396
20
15.1147245
11
36.6509245
21
14.9234156
0
LINE
8
layer1
10
36.6509245
20
14.9234156
11
36.6432987
21
14.7562924
0
LINE
8
layer1
10
36.6432987
20
14.7562924
11
36.6164834
21
14.5050819
0
LINE
8
layer1
10
36.6164834
20
14.5050819
11
36.5892841
21
14.3620424
0
LINE
8
layer1
10
36.5892841
20
14.3620424
11
36.5479686
21
14.2311495
0
LINE
8
layer1
10
36.5479686
20
14.2311495
11
36.4881709
21
14.012337
0
LINE
8
layer1
10
36.4881709
20
14.012337
11
36.4537423
21
13.8141892
0
LINE
8
layer1
10
36.4537423
20
13.8141892
11
36.4427962
21
13.6383966
0
LINE
8
layer1
10
36.4427962
20
13.6383966
11
36.4533962
21
13.48653
0
LINE
8
layer1
10
36.4533962
20
13.48653
11
36.4834747
21
13.3600519
0
LINE
8
layer1
10
36.4834747
20
13.3600519
11
36.5051601
21
13.3067564
0
LINE
8
layer1
10
36.5051601
20
13.3067564
11
36.5309066
21
13.2602863
0
LINE
8
layer1
10
36.5309066
20
13.2602863
11
36.5604524
21
13.2207934
0
LINE
8
layer1
10
36.5604524
20
13.2207934
11
36.5934925
21
13.188404
0
LINE
8
layer1
10
36.5934925
20
13.188404
11
36.6297613
21
13.1632606
0
LINE
8
layer1
10
36.6297613
20
13.1632606
11
36.6689594
21
13.1454764
0
LINE
8
layer1
10
36.6689594
20
13.1454764
11
37.1695336
21
12.9568355
0
LINE
8
layer1
10
37.1695336
20
12.9568355
11
37.3384339
21
12.8881195
0
LINE
8
layer1
10
37.3384339
20
12.8881195
11
37.506454
21
12.8172785
0
LINE
8
layer1
10
37.506454
20
12.8172785
11
37.9938027
21
12.5967084
0
LINE
8
layer1
10
37.9938027
20
12.5967084
11
38.0340952
21
12.5815665
0
LINE
8
layer1
10
38.0340952
20
12.5815665
11
38.0775202
21
12.5736996
0
LINE
8
layer1
10
38.0775202
20
12.5736996
11
38.1237859
21
12.5732395
0
LINE
8
layer1
10
38.1237859
20
12.5732395
11
38.1726036
21
12.5802731
0
LINE
8
layer1
10
38.1726036
20
12.5802731
11
38.2236684
21
12.5949269
0
LINE
8
layer1
10
38.2236684
20
12.5949269
11
38.2766879
21
12.6172787
0
LINE
8
layer1
10
38.2766879
20
12.6172787
11
38.3873902
21
12.6854435
0
LINE
8
layer1
10
38.3873902
20
12.6854435
11
38.5022715
21
12.785334
0
LINE
8
layer1
10
38.5022715
20
12.785334
11
38.6188355
21
12.9173782
0
LINE
8
layer1
10
38.6188355
20
12.9173782
11
38.7346024
21
13.0818346
0
LINE
8
layer1
10
38.7346024
20
13.0818346
11
38.8470429
21
13.2788418
0
LINE
8
layer1
10
38.8470429
20
13.2788418
11
38.9103836
21
13.4006115
0
LINE
8
layer1
10
38.9103836
20
13.4006115
11
38.9922951
21
13.5209885
0
LINE
8
layer1
10
38.9922951
20
13.5209885
11
39.1509664
21
13.7175824
0
LINE
8
layer1
10
39.1509664
20
13.7175824
11
39.2637482
21
13.8411486
0
LINE
8
layer1
10
39.2637482
20
13.8411486
11
39.3985183
21
13.9769301
0
LINE
8
layer1
10
39.3985183
20
13.9769301
11
39.5589676
21
14.1256061
0
LINE
8
layer1
10
39.5589676
20
14.1256061
11
39.7446555
21
14.2837872
0
LINE
8
layer1
10
39.7446555
20
14.2837872
11
39.9582226
21
14.4508451
0
LINE
8
layer1
10
39.9582226
20
14.4508451
11
40.2008102
21
14.6247269
0
LINE
8
layer1
10
40.2008102
20
14.6247269
11
40.4705425
21
14.8014792
0
LINE
8
layer1
10
40.4705425
20
14.8014792
11
40.7719383
21
14.9814278
0
LINE
8
layer1
10
40.7719383
20
14.9814278
11
41.1035295
21
15.1610027
0
LINE
8
layer1
10
41.1035295
20
15.1610027
11
41.4402616
21
15.3257922
0
ARC
8
layer1
10
31.9999762
20
-0.000036
40
18
50
54.1319192
51
58.3680819
0
LINE
8
layer1
10
42.546554
20
14.5865912
11
42.5231702
21
14.2124291
0
LINE
8
layer1
10
42.5231702
20
14.2124291
11
42.4841591
21
13.8373585
0
LINE
8
layer1
10
42.4841591
20
13.8373585
11
42.4332474
21
13.4900418
0
LINE
8
layer1
10
42.4332474
20
13.4900418
11
42.3731716
21
13.1732013
0
LINE
8
layer1
10
42.3731716
20
13.1732013
11
42.3053601
21
12.882538
0
LINE
8
layer1
10
42.3053601
20
12.882538
11
42.2327473
21
12.6212974
0
LINE
8
layer1
10
42.2327473
20
12.6212974
11
42.1576667
21
12.3892108
0
LINE
8
layer1
10
42.1576667
20
12.3892108
11
42.0817093
21
12.1840792
0
LINE
8
layer1
10
42.0817093
20
12.1840792
11
42.0078378
21
12.0076065
0
LINE
8
layer1
10
42.0078378
20
12.0076065
11
41.9368372
21
11.856123
0
LINE
8
layer1
10
41.9368372
20
11.856123
11
41.8159291
21
11.6342966
0
LINE
8
layer1
10
41.8159291
20
11.6342966
11
41.7360613
21
11.512554
0
LINE
8
layer1
10
41.7360613
20
11.512554
11
41.6478003
21
11.4074355
0
LINE
8
layer1
10
41.6478003
20
11.4074355
11
41.5088184
21
11.2281627
0
LINE
8
layer1
10
41.5088184
20
11.2281627
11
41.4011826
21
11.0582732
0
LINE
8
layer1
10
41.4011826
20
11.0582732
11
41.3237969
21
10.900051
0
LINE
8
layer1
10
41.3237969
20
10.900051
11
41.2754732
21
10.7556881
0
LINE
8
layer1
10
41.2754732
20
10.7556881
11
41.254861
21
10.627327
0
LINE
8
layer1
10
41.254861
20
10.627327
11
41.2545004
21
10.5697897
0
LINE
8
layer1
10
41.2545004
20
10.5697897
11
41.2605038
21
10.5170042
0
LINE
8
layer1
10
41.2605038
20
10.5170042
11
41.2726872
21
10.4692109
0
LINE
8
layer1
10
41.2726872
20
10.4692109
11
41.2908174
21
10.426643
0
LINE
8
layer1
10
41.2908174
20
10.426643
11
41.3147035
21
10.3895341
0
LINE
8
layer1
10
41.3147035
20
10.3895341
11
41.3441121
21
10.3581032
0
LINE
8
layer1
10
41.3441121
20
10.3581032
11
41.7343926
21
9.9922603
0
LINE
8
layer1
10
41.7343926
20
9.9922603
11
41.8641396
21
9.8641396
0
LINE
8
layer1
10
41.8641396
20
9.8641396
11
41.9922603
21
9.7343926
0
LINE
8
layer1
10
41.9922603
20
9.7343926
11
42.3581032
21
9.3441121
0
LINE
8
layer1
10
42.3581032
20
9.3441121
11
42.3895341
21
9.3147035
0
LINE
8
layer1
10
42.3895341
20
9.3147035
11
42.426643
21
9.2908174
0
LINE
8
layer1
10
42.426643
20
9.2908174
11
42.4692109
21
9.2726872
0
LINE
8
layer1
10
42.4692109
20
9.2726872
11
42.5170042
21
9.2605038
0
LINE
8
layer1
10
42.5170042
20
9.2605038
11
42.5697897
21
9.2545004
0
LINE
8
layer1
10
42.5697897
20
9.2545004
11
42.627327
21
9.254861
0
LINE
8
layer1
10
42.627327
20
9.254861
11
42.7556881
21
9.2754732
0
LINE
8
layer1
10
42.7556881
20
9.2754732
11
42.900051
21
9.3237969
0
LINE
8
layer1
10
42.900051
20
9.3237969
11
43.0582732
21
9.4011826
0
LINE
8
layer1
10
43.0582732
20
9.4011826
11
43.2281627
21
9.5088184
0
LINE
8
layer1
10
43.2281627
20
9.5088184
11
43.4074355
21
9.6478003
0
LINE
8
layer1
10
43.4074355
20
9.6478003
11
43.512554
21
9.7360613
0
LINE
8
layer1
10
43.512554
20
9.7360613
11
43.6342966
21
9.8159291
0
LINE
8
layer1
10
43.6342966
20
9.8159291
11
43.856123
21
9.9368372
0
LINE
8
layer1
10
43.856123
20
9.9368372
11
44.0076065
21
10.0078378
0
LINE
8
layer1
10
44.0076065
20
10.0078378
11
44.1840792
21
10.0817093
0
LINE
8
layer1
10
44.1840792
20
10.0817093
11
44.3892108
21
10.1576667
0
LINE
8
layer1
10
44.3892108
20
10.1576667
11
44.6212974
21
10.2327473
0
LINE
8
layer1
10
44.6212974
20
10.2327473
11
44.882538
21
10.3053601
0
LINE
8
layer1
10
44.882538
20
10.3053601
11
45.1732013
21
10.3731716
0
LINE
8
layer1
10
45.1732013
20
10.3731716
11
45.4900418
21
10.4332474
0
LINE
8
layer1
10
45.4900418
20
10.4332474
11
45.8373585
21
10.4841591
0
LINE
8
layer1
10
45.8373585
20
10.4841591
11
46.2124291
21
10.5231702
0
LINE
8
layer1
10
46.2124291
20
10.5231702
11
46.5865912
21
10.546554
0
ARC
8
layer1
10
31.999964
20
-0.0000239
40
18
50
31.6319181
51
35.8680808
0
LINE
8
layer1
10
47.3257922
20
9.4402616
11
47.1610027
21
9.1035295
0
LINE
8
layer1
10
47.1610027
20
9.1035295
11
46.9814278
21
8.7719383
0
LINE
8
layer1
10
46.9814278
20
8.7719383
11
46.8014792
21
8.4705425
0
LINE
8
layer1
10
46.8014792
20
8.4705425
11
46.6247269
21
8.2008102
0
LINE
8
layer1
10
46.6247269
20
8.2008102
11
46.4508451
21
7.9582226
0
LINE
8
layer1
10
46.4508451
20
7.9582226
11
46.2837872
21
7.7446555
0
LINE
8
layer1
10
46.2837872
20
7.7446555
11
46.1256061
21
7.5589676
0
LINE
8
layer1
10
46.1256061
20
7.5589676
11
45.9769301
21
7.3985183
0
LINE
8
layer1
10
45.9769301
20
7.3985183
11
45.8411486
21
7.2637482
0
LINE
8
layer1
10
45.8411486
20
7.2637482
11
45.7175824
21
7.1509664
0
LINE
8
layer1
10
45.7175824
20
7.1509664
11
45.5209885
21
6.9922951
0
LINE
8
layer1
10
45.5209885
20
6.9922951
11
45.4006115
21
6.9103836
0
LINE
8
layer1
10
45.4006115
20
6.9103836
11
45.2788418
21
6.8470429
0
LINE
8
layer1
10
45.2788418
20
6.8470429
11
45.0818346
21
6.7346024
0
LINE
8
layer1
10
45.0818346
20
6.7346024
11
44.9173782
21
6.6188355
0
LINE
8
layer1
10
44.9173782
20
6.6188355
11
44.785334
21
6.5022715
0
LINE
8
layer1
10
44.785334
20
6.5022715
11
44.6854435
21
6.3873902
0
LINE
8
layer1
10
44.6854435
20
6.3873902
11
44.6172787
21
6.2766879
0
LINE
8
layer1
10
44.6172787
20
6.2766879
11
44.5949269
21
6.2236684
0
LINE
8
layer1
10
44.5949269
20
6.2236684
11
44.5802731
21
6.1726036
0
LINE
8
layer1
10
44.5802731
20
6.1726036
11
44.5732395
21
6.1237859
0
LINE
8
layer1
10
44.5732395
20
6.1237859
11
44.5736996
21
6.0775202
0
LINE
8
layer1
10
44.5736996
20
6.0775202
11
44.5815665
21
6.0340952
0
LINE
8
layer1
10
44.5815665
20
6.0340952
11
44.5967084
21
5.9938027
0
LINE
8
layer1
10
44.5967084
20
5.9938027
11
44.8172785
21
5.506454
0
LINE
8
layer1
10
44.8172785
20
5.506454
11
44.8881195
21
5.3384339
0
LINE
8
layer1
10
44.8881195
20
5.3384339
11
44.9568355
21
5.1695336
0
LINE
8
layer1
10
44.9568355
20
5.1695336
11
45.1454764
21
4.6689594
0
LINE
8
layer1
10
45.1454764
20
4.6689594
11
45.1632606
21
4.6297613
0
LINE
8
layer1
10
45.1632606
20
4.6297613
11
45.188404
21
4.5934925
0
LINE
8
layer1
10
45.188404
20
4.5934925
11
45.2207934
21
4.5604524
0
LINE
8
layer1
10
45.2207934
20
4.5604524
11
45.2602863
21
4.5309066
0
LINE
8
layer1
10
45.2602863
20
4.5309066
11
45.3067564
21
4.5051601
0
LINE
8
layer1
10
45.3067564
20
4.5051601
11
45.3600519
21
4.4834747
0
LINE
8
layer1
10
45.3600519
20
4.4834747
11
45.48653
21
4.4533962
0
LINE
8
layer1
10
45.48653
20
4.4533962
11
45.6383966
21
4.4427962
0
LINE
8
layer1
10
45.6383966
20
4.4427962
11
45.8141892
21
4.4537423
0
LINE
8
layer1
10
45.8141892
20
4.4537423
11
46.012337
21
4.4881709
0
LINE
8
layer1
10
46.012337
20
4.4881709
11
46.2311495
21
4.5479686
0
LINE
8
layer1
10
46.2311495
20
4.5479686
11
46.3620424
21
4.5892841
0
LINE
8
layer1
10
46.3620424
20
4.5892841
11
46.5050819
21
4.6164834
0
LINE
8
layer1
10
46.5050819
20
4.6164834
11
46.7562924
21
4.6432987
0
LINE
8
layer1
10
46.7562924
20
4.6432987
11
46.9234156
21
4.6509245
0
LINE
8
layer1
10
46.9234156
20
4.6509245
11
47.1147245
21
4.6516396
0
LINE
8
layer1
10
47.1147245
20
4.6516396
11
47.3333091
21
4.6433146
0
LINE
8
layer1
10
47.3333091
20
4.6433146
11
47.5764612
21
4.6238644
0
LINE
8
layer1
10
47.5764612
20
4.6238644
11
47.8456038
21
4.5909774
0
LINE
8
layer1
10
47.8456038
20
4.5909774
11
48.140092
21
4.542395
0
LINE
8
layer1
10
48.140092
20
4.542395
11
48.4558044
21
4.4766483
0
LINE
8
layer1
10
48.4558044
20
4.4766483
11
48.7961663
21
4.3907722
0
LINE
8
layer1
10
48.7961663
20
4.3907722
11
49.1576152
21
4.2832804
0
LINE
8
layer1
10
49.1576152
20
4.2832804
11
49.5122446
21
4.1616986
0
ARC
8
layer1
10
31.9999577
20
-0.0000087
40
18
50
9.1319193
51
13.3680821
0
LINE
8
layer1
10
49.7718174
20
2.8567377
11
49.49071
21
2.6087
0
LINE
8
layer1
10
49.49071
20
2.6087
11
49.19791
21
2.37107
0
LINE
8
layer1
10
49.19791
20
2.37107
11
48.91632
21
2.16148
0
LINE
8
layer1
10
48.91632
20
2.16148
11
48.6498
21
1.97992
0
LINE
8
layer1
10
48.6498
20
1.97992
11
48.39632
21
1.82234
0
LINE
8
layer1
10
48.39632
20
1.82234
11
48.16025
21
1.68896
0
LINE
8
layer1
10
48.16025
20
1.68896
11
47.94305
21
1.57794
0
LINE
8
layer1
10
47.94305
20
1.57794
11
47.74429
21
1.4866
0
LINE
8
layer1
10
47.74429
20
1.4866
11
47.56727
21
1.41405
0
LINE
8
layer1
10
47.56727
20
1.41405
11
47.40995
21
1.35714
0
LINE
8
layer1
10
47.40995
20
1.35714
11
47.1676
21
1.28578
0
LINE
8
layer1
10
47.1676
20
1.28578
11
47.02504
21
1.25617
0
LINE
8
layer1
10
47.02504
20
1.25617
11
46.8883
21
1.24425
0
LINE
8
layer1
10
46.8883
20
1.24425
11
46.66326
21
1.21576
0
LINE
8
layer1
10
46.66326
20
1.21576
11
46.46702
21
1.17174
0
LINE
8
layer1
10
46.46702
20
1.17174
11
46.30042
21
1.11458
0
LINE
8
layer1
10
46.30042
20
1.11458
11
46.16417
21
1.04667
0
LINE
8
layer1
10
46.16417
20
1.04667
11
46.05883
21
0.97048
0
LINE
8
layer1
10
46.05883
20
0.97048
11
46.01789
21
0.93005
0
LINE
8
layer1
10
46.01789
20
0.93005
11
45.98481
21
0.88848
0
LINE
8
layer1
10
45.98481
20
0.88848
11
45.95963
21
0.84607
0
LINE
8
layer1
10
45.95963
20
0.84607
11
45.94235
21
0.80315
0
LINE
8
layer1
10
45.94235
20
0.80315
11
45.933
21
0.76002
0
LINE
8
layer1
10
45.933
20
0.76002
11
45.93157
21
0.717
0
LINE
8
layer1
10
45.93157
20
0.717
11
45.94885
21
0.18234
0
LINE
8
layer1
10
45.94885
20
0.18234
11
45.95
21
0
0
LINE
8
layer1
10
45.95
20
0
11
45.94885
21
-0.18234
0
LINE
8
layer1
10
45.94885
20
-0.18234
11
45.93157
21
-0.717
0
LINE
8
layer1
10
45.93157
20
-0.717
11
45.933
21
-0.76002
0
LINE
8
layer1
10
45.933
20
-0.76002
11
45.94235
21
-0.80315
0
LINE
8
layer1
10
45.94235
20
-0.80315
11
45.95963
21
-0.84607
0
LINE
8
layer1
10
45.95963
20
-0.84607
11
45.98481
21
-0.88848
0
LINE
8
layer1
10
45.98481
20
-0.88848
11
46.01789
21
-0.93005
0
LINE
8
layer1
10
46.01789
20
-0.93005
11
46.05883
21
-0.97048
0
LINE
8
layer1
10
46.05883
20
-0.97048
11
46.16417
21
-1.04667
0
LINE
8
layer1
10
46.16417
20
-1.04667
11
46.30042
21
-1.11458
0
LINE
8
layer1
10
46.30042
20
-1.11458
11
46.46702
21
-1.17174
0
LINE
8
layer1
10
46.46702
20
-1.17174
11
46.66326
21
-1.21576
0
LINE
8
layer1
10
46.66326
20
-1.21576
11
46.8883
21
-1.24425
0
LINE
8
layer1
10
46.8883
20
-1.24425
11
47.02504
21
-1.25617
0
LINE
8
layer1
10
47.02504
20
-1.25617
11
47.1676
21
-1.28578
0
LINE
8
layer1
10
47.1676
20
-1.28578
11
47.40995
21
-1.35714
0
LINE
8
layer1
10
47.40995
20
-1.35714
11
47.56727
21
-1.41405
0
LINE
8
layer1
10
47.56727
20
-1.41405
11
47.74429
21
-1.4866
0
LINE
8
layer1
10
47.74429
20
-1.4866
11
47.94305
21
-1.57794
0
LINE
8
layer1
10
47.94305
20
-1.57794
11
48.16025
21
-1.68896
0
LINE
8
layer1
10
48.16025
20
-1.68896
11
48.39632
21
-1.82234
0
LINE
8
layer1
10
48.39632
20
-1.82234
11
48.6498
21
-1.97992
0
LINE
8
layer1
10
48.6498
20
-1.97992
11
48.91632
21
-2.16148
0
LINE
8
layer1
10
48.91632
20
-2.16148
11
49.19791
21
-2.37107
0
LINE
8
layer1
10
49.19791
20
-2.37107
11
49.49071
21
-2.6087
0
LINE
8
layer1
10
49.49071
20
-2.6087
11
49.7718174
21
-2.8567377
0
ARC
8
layer1
10
31.9999576
20
0.0000086
40
18
50
346.6319179
51
350.8680807
0
LINE
8
layer1
10
49.5122446
20
-4.1616986
11
49.1576152
21
-4.2832804
0
LINE
8
layer1
10
49.1576152
20
-4.2832804
11
48.7961663
21
-4.3907722
0
LINE
8
layer1
10
48.7961663
20
-4.3907722
11
48.4558044
21
-4.4766483
0
LINE
8
layer1
10
48.4558044
20
-4.4766483
11
48.140092
21
-4.542395
0
LINE
8
layer1
10
48.140092
20
-4.542395
11
47.8456038
21
-4.5909774
0
LINE
8
layer1
10
47.8456038
20
-4.5909774
11
47.5764612
21
-4.6238644
0
LINE
8
layer1
10
47.5764612
20
-4.6238644
11
47.3333091
21
-4.6433146
0
LINE
8
layer1
10
47.3333091
20
-4.6433146
11
47.1147245
21
-4.6516396
0
LINE
8
layer1
10
47.1147245
20
-4.6516396
11
46.9234156
21
-4.6509245
0
LINE
8
layer1
10
46.9234156
20
-4.6509245
11
46.7562924
21
-4.6432987
0
LINE
8
layer1
10
46.7562924
20
-4.6432987
11
46.5050819
21
-4.6164834
0
LINE
8
layer1
10
46.5050819
20
-4.6164834
11
46.3620424
21
-4.5892841
0
LINE
8
layer1
10
46.3620424
20
-4.5892841
11
46.2311495
21
-4.5479686
0
LINE
8
layer1
10
46.2311495
20
-4.5479686
11
46.012337
21
-4.4881709
0
LINE
8
layer1
10
46.012337
20
-4.4881709
11
45.8141892
21
-4.4537423
0
LINE
8
layer1
10
45.8141892
20
-4.4537423
11
45.6383966
21
-4.4427962
0
LINE
8
layer1
10
45.6383966
20
-4.4427962
11
45.48653
21
-4.4533962
0
LINE
8
layer1
10
45.48653
20
-4.4533962
11
45.3600519
21
-4.4834747
0
LINE
8
layer1
10
45.3600519
20
-4.4834747
11
45.3067564
21
-4.5051601
0
LINE
8
layer1
10
45.3067564
20
-4.5051601
11
45.2602863
21
-4.5309066
0
LINE
8
layer1
10
45.2602863
20
-4.5309066
11
45.2207934
21
-4.5604524
0
LINE
8
layer1
10
45.2207934
20
-4.5604524
11
45.188404
21
-4.5934925
0
LINE
8
layer1
10
45.188404
20
-4.5934925
11
45.1632606
21
-4.6297613
0
LINE
8
layer1
10
45.1632606
20
-4.6297613
11
45.1454764
21
-4.6689594
0
LINE
8
layer1
10
45.1454764
20
-4.6689594
11
44.9568355
21
-5.1695336
0
LINE
8
layer1
10
44.9568355
20
-5.1695336
11
44.8881195
21
-5.3384339
0
LINE
8
layer1
10
44.8881195
20
-5.3384339
11
44.8172785
21
-5.506454
0
LINE
8
layer1
10
44.8172785
20
-5.506454
11
44.5967084
21
-5.9938027
0
LINE
8
layer1
10
44.5967084
20
-5.9938027
11
44.5815665
21
-6.0340952
0
LINE
8
layer1
10
44.5815665
20
-6.0340952
11
44.5736996
21
-6.0775202
0
LINE
8
layer1
10
44.5736996
20
-6.0775202
11
44.5732395
21
-6.1237859
0
LINE
8
layer1
10
44.5732395
20
-6.1237859
11
44.5802731
21
-6.1726036
0
LINE
8
layer1
10
44.5802731
20
-6.1726036
11
44.5949269
21
-6.2236684
0
LINE
8
layer1
10
44.5949269
20
-6.2236684
11
44.6172787
21
-6.2766879
0
LINE
8
layer1
10
44.6172787
20
-6.2766879
11
44.6854435
21
-6.3873902
0
LINE
8
layer1
10
44.6854435
20
-6.3873902
11
44.785334
21
-6.5022715
0
LINE
8
layer1
10
44.785334
20
-6.5022715
11
44.9173782
21
-6.6188355
0
LINE
8
layer1
10
44.9173782
20
-6.6188355
11
45.0818346
21
-6.7346024
0
LINE
8
layer1
10
45.0818346
20
-6.7346024
11
45.2788418
21
-6.8470429
0
LINE
8
layer1
10
45.2788418
20
-6.8470429
11
45.4006115
21
-6.9103836
0
LINE
8
layer1
10
45.4006115
20
-6.9103836
11
45.5209885
21
-6.9922951
0
LINE
8
layer1
10
45.5209885
20
-6.9922951
11
45.7175824
21
-7.1509664
0
LINE
8
layer1
10
45.7175824
20
-7.1509664
11
45.8411486
21
-7.2637482
0
LINE
8
layer1
10
45.8411486
20
-7.2637482
11
45.9769301
21
-7.3985183
0
LINE
8
layer1
10
45.9769301
20
-7.3985183
11
46.1256061
21
-7.5589676
0
LINE
8
layer1
10
46.1256061
20
-7.5589676
11
46.2837872
21
-7.7446555
0
LINE
8
layer1
10
46.2837872
20
-7.7446555
11
46.4508451
21
-7.9582226
0
LINE
8
layer1
10
46.4508451
20
-7.9582226
11
46.6247269
21
-8.2008102
0
LINE
8
layer1
10
46.6247269
20
-8.2008102
11
46.8014792
21
-8.4705425
0
LINE
8
layer1
10
46.8014792
20
-8.4705425
11
46.9814278
21
-8.7719383
0
LINE
8
layer1
10
46.9814278
20
-8.7719383
11
47.1610027
21
-9.1035295
0
LINE
8
layer1
10
47.1610027
20
-9.1035295
11
47.3257922
21
-9.4402616
0
ARC
8
layer1
10
31.999964
20
0.0000238
40
18
50
324.1319192
51
328.3680819
0
LINE
8
layer1
10
46.5865912
20
-10.546554
11
46.2124291
21
-10.5231702
0
LINE
8
layer1
10
46.2124291
20
-10.5231702
11
45.8373585
21
-10.4841591
0
LINE
8
layer1
10
45.8373585
20
-10.4841591
11
45.4900418
21
-10.4332474
0
LINE
8
layer1
10
45.4900418
20
-10.4332474
11
45.1732013
21
-10.3731716
0
LINE
8
layer1
10
45.1732013
20
-10.3731716
11
44.882538
21
-10.3053601
0
LINE
8
layer1
10
44.882538
20
-10.3053601
11
44.6212974
21
-10.2327473
0
LINE
8
layer1
10
44.6212974
20
-10.2327473
11
44.3892108
21
-10.1576667
0
LINE
8
layer1
10
44.3892108
20
-10.1576667
11
44.1840792
21
-10.0817093
0
LINE
8
layer1
10
44.1840792
20
-10.0817093
11
44.0076065
21
-10.0078378
0
LINE
8
layer1
10
44.0076065
20
-10.0078378
11
43.856123
21
-9.9368372
0
LINE
8
layer1
10
43.856123
20
-9.9368372
11
43.6342966
21
-9.8159291
0
LINE
8
layer1
10
43.6342966
20
-9.8159291
11
43.512554
21
-9.7360613
0
LINE
8
layer1
10
43.512554
20
-9.7360613
11
43.4074355
21
-9.6478003
0
LINE
8
layer1
10
43.4074355
20
-9.6478003
11
43.2281627
21
-9.5088184
0
LINE
8
layer1
10
43.2281627
20
-9.5088184
11
43.0582732
21
-9.4011826
0
LINE
8
layer1
10
43.0582732
20
-9.4011826
11
42.900051
21
-9.3237969
0
LINE
8
layer1
10
42.900051
20
-9.3237969
11
42.7556881
21
-9.2754732
0
LINE
8
layer1
10
42.7556881
20
-9.2754732
11
42.627327
21
-9.254861
0
LINE
8
layer1
10
42.627327
20
-9.254861
11
42.5697897
21
-9.2545004
0
LINE
8
layer1
10
42.5697897
20
-9.2545004
11
42.5170042
21
-9.2605038
0
LINE
8
layer1
10
42.5170042
20
-9.2605038
11
42.4692109
21
-9.2726872
0
LINE
8
layer1
10
42.4692109
20
-9.2726872
11
42.426643
21
-9.2908174
0
LINE
8
layer1
10
42.426643
20
-9.2908174
11
42.3895341
21
-9.3147035
0
LINE
8
layer1
10
42.3895341
20
-9.3147035
11
42.3581032
21
-9.3441121
0
LINE
8
layer1
10
42.3581032
20
-9.3441121
11
41.9922603
21
-9.7343926
0
LINE
8
layer1
10
41.9922603
20
-9.7343926
11
41.8641396
21
-9.8641396
0
LINE
8
layer1
10
41.8641396
20
-9.8641396
11
41.7343926
21
-9.9922603
0
LINE
8
layer1
10
41.7343926
20
-9.9922603
11
41.3441121
21
-10.3581032
0
LINE
8
layer1
10
41.3441121
20
-10.3581032
11
41.3147035
21
-10.3895341
0
LINE
8
layer1
10
41.3147035
20
-10.3895341
11
41.2908174
21
-10.426643
0
LINE
8
layer1
10
41.2908174
20
-10.426643
11
41.2726872
21
-10.4692109
0
LINE
8
layer1
10
41.2726872
20
-10.4692109
11
41.2605038
21
-10.5170042
0
LINE
8
layer1
10
41.2605038
20
-10.5170042
11
41.2545004
21
-10.5697897
0
LINE
8
layer1
10
41.2545004
20
-10.5697897
11
41.254861
21
-10.627327
0
LINE
8
layer1
10
41.254861
20
-10.627327
11
41.2754732
21
-10.7556881
0
LINE
8
layer1
10
41.2754732
20
-10.7556881
11
41.3237969
21
-10.900051
0
LINE
8
layer1
10
41.3237969
20
-10.900051
11
41.4011826
21
-11.0582732
0
LINE
8
layer1
10
41.4011826
20
-11.0582732
11
41.5088184
21
-11.2281627
0
LINE
8
layer1
10
41.5088184
20
-11.2281627
11
41.6478003
21
-11.4074355
0
LINE
8
layer1
10
41.6478003
20
-11.4074355
11
41.7360613
21
-11.512554
0
LINE
8
layer1
10
41.7360613
20
-11.512554
11
41.8159291
21
-11.6342966
0
LINE
8
layer1
10
41.8159291
20
-11.6342966
11
41.9368372
21
-11.856123
0
LINE
8
layer1
10
41.9368372
20
-11.856123
11
42.0078378
21
-12.0076065
0
LINE
8
layer1
10
42.0078378
20
-12.0076065
11
42.0817093
21
-12.1840792
0
LINE
8
layer1
10
42.0817093
20
-12.1840792
11
42.1576667
21
-12.3892108
0
LINE
8
layer1
10
42.1576667
20
-12.3892108
11
42.2327473
21
-12.6212974
0
LINE
8
layer1
10
42.2327473
20
-12.6212974
11
42.3053601
21
-12.882538
0
LINE
8
layer1
10
42.3053601
20
-12.882538
11
42.3731716
21
-13.1732013
0
LINE
8
layer1
10
42.3731716
20
-13.1732013
11
42.4332474
21
-13.4900418
0
LINE
8
layer1
10
42.4332474
20
-13.4900418
11
42.4841591
21
-13.8373585
0
LINE
8
layer1
10
42.4841591
20
-13.8373585
11
42.5231702
21
-14.2124291
0
LINE
8
layer1
10
42.5231702
20
-14.2124291
11
42.546554
21
-14.5865912
0
ARC
8
layer1
10
31.9999761
20
0.000036
40
18
50
301.6319181
51
305.8680808
0
LINE
8
layer1
10
41.4402616
20
-15.3257922
11
41.1035295
21
-15.1610027
0
LINE
8
layer1
10
41.1035295
20
-15.1610027
11
40.7719383
21
-14.9814278
0
LINE
8
layer1
10
40.7719383
20
-14.9814278
11
40.4705425
21
-14.8014792
0
LINE
8
layer1
10
40.4705425
20
-14.8014792
11
40.2008102
21
-14.6247269
0
LINE
8
layer1
10
40.2008102
20
-14.6247269
11
39.9582226
21
-14.4508451
0
LINE
8
layer1
10
39.9582226
20
-14.4508451
11
39.7446555
21
-14.2837872
0
LINE
8
layer1
10
39.7446555
20
-14.2837872
11
39.5589676
21
-14.1256061
0
LINE
8
layer1
10
39.5589676
20
-14.1256061
11
39.3985183
21
-13.9769301
0
LINE
8
layer1
10
39.3985183
20
-13.9769301
11
39.2637482
21
-13.8411486
0
LINE
8
layer1
10
39.2637482
20
-13.8411486
11
39.1509664
21
-13.7175824
0
LINE
8
layer1
10
39.1509664
20
-13.7175824
11
38.9922951
21
-13.5209885
0
LINE
8
layer1
10
38.9922951
20
-13.5209885
11
38.9103836
21
-13.4006115
0
LINE
8
layer1
10
38.9103836
20
-13.4006115
11
38.8470429
21
-13.2788418
0
LINE
8
layer1
10
38.8470429
20
-13.2788418
11
38.7346024
21
-13.0818346
0
LINE
8
layer1
10
38.7346024
20
-13.0818346
11
38.6188355
21
-12.9173782
0
LINE
8
layer1
10
38.6188355
20
-12.9173782
11
38.5022715
21
-12.785334
0
LINE
8
layer1
10
38.5022715
20
-12.785334
11
38.3873902
21
-12.6854435
0
LINE
8
layer1
10
38.3873902
20
-12.6854435
11
38.2766879
21
-12.6172787
0
LINE
8
layer1
10
38.2766879
20
-12.6172787
11
38.2236684
21
-12.5949269
0
LINE
8
layer1
10
38.2236684
20
-12.5949269
11
38.1726036
21
-12.5802731
0
LINE
8
layer1
10
38.1726036
20
-12.5802731
11
38.1237859
21
-12.5732395
0
LINE
8
layer1
10
38.1237859
20
-12.5732395
11
38.0775202
21
-12.5736996
0
LINE
8
layer1
10
38.0775202
20
-12.5736996
11
38.0340952
21
-12.5815665
0
LINE
8
layer1
10
38.0340952
20
-12.5815665
11
37.9938027
21
-12.5967084
0
LINE
8
layer1
10
37.9938027
20
-12.5967084
11
37.506454
21
-12.8172785
0
LINE
8
layer1
10
37.506454
20
-12.8172785
11
37.3384339
21
-12.8881195
0
LINE
8
layer1
10
37.3384339
20
-12.8881195
11
37.1695336
21
-12.9568355
0
LINE
8
layer1
10
37.1695336
20
-12.9568355
11
36.6689594
21
-13.1454764
0
LINE
8
layer1
10
36.6689594
20
-13.1454764
11
36.6297613
21
-13.1632606
0
LINE
8
layer1
10
36.6297613
20
-13.1632606
11
36.5934925
21
-13.188404
0
LINE
8
layer1
10
36.5934925
20
-13.188404
11
36.5604524
21
-13.2207934
0
LINE
8
layer1
10
36.5604524
20
-13.2207934
11
36.5309066
21
-13.2602863
0
LINE
8
layer1
10
36.5309066
20
-13.2602863
11
36.5051601
21
-13.3067564
0
LINE
8
layer1
10
36.5051601
20
-13.3067564
11
36.4834747
21
-13.3600519
0
LINE
8
layer1
10
36.4834747
20
-13.3600519
11
36.4533962
21
-13.48653
0
LINE
8
layer1
10
36.4533962
20
-13.48653
11
36.4427962
21
-13.6383966
0
LINE
8
layer1
10
36.4427962
20
-13.6383966
11
36.4537423
21
-13.8141892
0
LINE
8
layer1
10
36.4537423
20
-13.8141892
11
36.4881709
21
-14.012337
0
LINE
8
layer1
10
36.4881709
20
-14.012337
11
36.5479686
21
-14.2311495
0
LINE
8
layer1
10
36.5479686
20
-14.2311495
11
36.5892841
21
-14.3620424
0
LINE
8
layer1
10
36.5892841
20
-14.3620424
11
36.6164834
21
-14.5050819
0
LINE
8
layer1
10
36.6164834
20
-14.5050819
11
36.6432987
21
-14.7562924
0
LINE
8
layer1
10
36.6432987
20
-14.7562924
11
36.6509245
21
-14.9234156
0
LINE
8
layer1
10
36.6509245
20
-14.9234156
11
36.6516396
21
-15.1147245
0
LINE
8
layer1
10
36.6516396
20
-15.1147245
11
36.6433146
21
-15.3333091
0
LINE
8
layer1
10
36.6433146
20
-15.3333091
11
36.6238644
21
-15.5764612
0
LINE
8
layer1
10
36.6238644
20
-15.5764612
11
36.5909774
21
-15.8456038
0
LINE
8
layer1
10
36.5909774
20
-15.8456038
11
36.542395
21
-16.140092
0
LINE
8
layer1
10
36.542395
20
-16.140092
11
36.4766483
21
-16.4558044
0
LINE
8
layer1
10
36.4766483
20
-16.4558044
11
36.3907722
21
-16.7961663
0
LINE
8
layer1
10
36.3907722
20
-16.7961663
11
36.2832804
21
-17.1576152
0
LINE
8
layer1
10
36.2832804
20
-17.1576152
11
36.1616986
21
-17.5122446
0
ARC
8
layer1
10
31.9999913
20
0.0000423
40
18
50
279.1319193
51
283.3680821
0
LINE
8
layer1
10
34.8567377
20
-17.7718174
11
34.6087
21
-17.49071
0
LINE
8
layer1
10
34.6087
20
-17.49071
11
34.37107
21
-17.19791
0
LINE
8
layer1
10
34.37107
20
-17.19791
11
34.16148
21
-16.91632
0
LINE
8
layer1
10
34.16148
20
-16.91632
11
33.97992
21
-16.6498
0
LINE
8
layer1
10
33.97992
20
-16.6498
11
33.82234
21
-16.39632
0
LINE
8
layer1
10
33.82234
20
-16.39632
11
33.68896
21
-16.16025
0
LINE
8
layer1
10
33.68896
20
-16.16025
11
33.57794
21
-15.94305
0
LINE
8
layer1
10
33.57794
20
-15.94305
11
33.4866
21
-15.74429
0
LINE
8
layer1
10
33.4866
20
-15.74429
11
33.41405
21
-15.56727
0
LINE
8
layer1
10
33.41405
20
-15.56727
11
33.35714
21
-15.40995
0
LINE
8
layer1
10
33.35714
20
-15.40995
11
33.28578
21
-15.1676
0
LINE
8
layer1
10
33.28578
20
-15.1676
11
33.25617
21
-15.02504
0
LINE
8
layer1
10
33.25617
20
-15.02504
11
33.24425
21
-14.8883
0
LINE
8
layer1
10
33.24425
20
-14.8883
11
33.21576
21
-14.66326
0
LINE
8
layer1
10
33.21576
20
-14.66326
11
33.17174
21
-14.46702
0
LINE
8
layer1
10
33.17174
20
-14.46702
11
33.11458
21
-14.30042
0
LINE
8
layer1
10
33.11458
20
-14.30042
11
33.04667
21
-14.16417
0
LINE
8
layer1
10
33.04667
20
-14.16417
11
32.97048
21
-14.05883
0
LINE
8
layer1
10
32.97048
20
-14.05883
11
32.93005
21
-14.01789
0
LINE
8
layer1
10
32.93005
20
-14.01789
11
32.88848
21
-13.98481
0
LINE
8
layer1
10
32.88848
20
-13.98481
11
32.84607
21
-13.95963
0
LINE
8
layer1
10
32.84607
20
-13.95963
11
32.80315
21
-13.94235
0
LINE
8
layer1
10
32.80315
20
-13.94235
11
32.76002
21
-13.933
0
LINE
8
layer1
10
32.76002
20
-13.933
11
32.717
21
-13.93157
0
LINE
8
layer1
10
32.717
20
-13.93157
11
32.18234
21
-13.94885
0
LINE
8
layer1
10
32.18234
20
-13.94885
11
32
21
-13.95
0
LINE
8
layer1
10
32
20
-13.95
11
31.81766
21
-13.94885
0
LINE
8
layer1
10
31.81766
20
-13.94885
11
31.283
21
-13.93157
0
LINE
8
layer1
10
31.283
20
-13.93157
11
31.23998
21
-13.933
0
LINE
8
layer1
10
31.23998
20
-13.933
11
31.19685
21
-13.94235
0
LINE
8
layer1
10
31.19685
20
-13.94235
11
31.15393
21
-13.95963
0
LINE
8
layer1
10
31.15393
20
-13.95963
11
31.11152
21
-13.98481
0
LINE
8
layer1
10
31.11152
20
-13.98481
11
31.06995
21
-14.01789
0
LINE
8
layer1
10
31.06995
20
-14.01789
11
31.02952
21
-14.05883
0
LINE
8
layer1
10
31.02952
20
-14.05883
11
30.95333
21
-14.16417
0
LINE
8
layer1
10
30.95333
20
-14.16417
11
30.88542
21
-14.30042
0
LINE
8
layer1
10
30.88542
20
-14.30042
11
30.82826
21
-14.46702
0
LINE
8
layer1
10
30.82826
20
-14.46702
11
30.78424
21
-14.66326
0
LINE
8
layer1
10
30.78424
20
-14.66326
11
30.75575
21
-14.8883
0
LINE
8
layer1
10
30.75575
20
-14.8883
11
30.74383
21
-15.02504
0
LINE
8
layer1
10
30.74383
20
-15.02504
11
30.71422
21
-15.1676
0
LINE
8
layer1
10
30.71422
20
-15.1676
11
30.64286
21
-15.40995
0
LINE
8
layer1
10
30.64286
20
-15.40995
11
30.58595
21
-15.56727
0
LINE
8
layer1
10
30.58595
20
-15.56727
11
30.5134
21
-15.74429
0
LINE
8
layer1
10
30.5134
20
-15.74429
11
30.42206
21
-15.94305
0
LINE
8
layer1
10
30.42206
20
-15.94305
11
30.31104
21
-16.16025
0
LINE
8
layer1
10
30.31104
20
-16.16025
11
30.17766
21
-16.39632
0
LINE
8
layer1
10
30.17766
20
-16.39632
11
30.02008
21
-16.6498
0
LINE
8
layer1
10
30.02008
20
-16.6498
11
29.83852
21
-16.91632
0
LINE
8
layer1
10
29.83852
20
-16.91632
11
29.62893
21
-17.19791
0
LINE
8
layer1
10
29.62893
20
-17.19791
11
29.3913
21
-17.49071
0
LINE
8
layer1
10
29.3913
20
-17.49071
11
29.1432623
21
-17.7718174
0
ARC
8
layer1
10
32.0000086
20
0.0000424
40
18
50
256.6319179
51
260.8680807
0
LINE
8
layer1
10
27.8383014
20
-17.5122446
11
27.7167196
21
-17.1576152
0
LINE
8
layer1
10
27.7167196
20
-17.1576152
11
27.6092278
21
-16.7961663
0
LINE
8
layer1
10
27.6092278
20
-16.7961663
11
27.5233517
21
-16.4558044
0
LINE
8
layer1
10
27.5233517
20
-16.4558044
11
27.457605
21
-16.140092
0
LINE
8
layer1
10
27.457605
20
-16.140092
11
27.4090226
21
-15.8456038
0
LINE
8
layer1
10
27.4090226
20
-15.8456038
11
27.3761356
21
-15.5764612
0
LINE
8
layer1
10
27.3761356
20
-15.5764612
11
27.3566854
21
-15.3333091
0
LINE
8
layer1
10
27.3566854
20
-15.3333091
11
27.3483604
21
-15.1147245
0
LINE
8
layer1
10
27.3483604
20
-15.1147245
11
27.3490755
21
-14.9234156
0
LINE
8
layer1
10
27.3490755
20
-14.9234156
11
27.3567013
21
-14.7562924
0
LINE
8
layer1
10
27.3567013
20
-14.7562924
11
27.3835166
21
-14.5050819
0
LINE
8
layer1
10
27.3835166
20
-14.5050819
11
27.4107159
21
-14.3620424
0
LINE
8
layer1
10
27.4107159
20
-14.3620424
11
27.4520314
21
-14.2311495
0
LINE
8
layer1
10
27.4520314
20
-14.2311495
11
27.5118291
21
-14.012337
0
LINE
8
layer1
10
27.5118291
20
-14.012337
11
27.5462577
21
-13.8141892
0
LINE
8
layer1
10
27.5462577
20
-13.8141892
11
27.5572038
21
-13.6383966
0
LINE
8
layer1
10
27.5572038
20
-13.6383966
11
27.5466038
21
-13.48653
0
LINE
8
layer1
10
27.5466038
20
-13.48653
11
27.5165253
21
-13.3600519
0
LINE
8
layer1
10
27.5165253
20
-13.3600519
11
27.4948399
21
-13.3067564
0
LINE
8
layer1
10
27.4948399
20
-13.3067564
11
27.4690934
21
-13.2602863
0
LINE
8
layer1
10
27.4690934
20
-13.2602863
11
27.4395476
21
-13.2207934
0
LINE
8
layer1
10
27.4395476
20
-13.2207934
11
27.4065075
21
-13.188404
0
LINE
8
layer1
10
27.4065075
20
-13.188404
11
27.3702387
21
-13.1632606
0
LINE
8
layer1
10
27.3702387
20
-13.1632606
11
27.3310406
21
-13.1454764
0
LINE
8
layer1
10
27.3310406
20
-13.1454764
11
26.8304664
21
-12.9568355
0
LINE
8
layer1
10
26.8304664
20
-12.9568355
11
26.6615661
21
-12.8881195
0
LINE
8
layer1
10
26.6615661
20
-12.8881195
11
26.493546
21
-12.8172785
0
LINE
8
layer1
10
26.493546
20
-12.8172785
11
26.0061973
21
-12.5967084
0
LINE
8
layer1
10
26.0061973
20
-12.5967084
11
25.9659048
21
-12.5815665
0
LINE
8
layer1
10
25.9659048
20
-12.5815665
11
25.9224798
21
-12.5736996
0
LINE
8
layer1
10
25.9224798
20
-12.5736996
11
25.8762141
21
-12.5732395
0
LINE
8
layer1
10
25.8762141
20
-12.5732395
11
25.8273964
21
-12.5802731
0
LINE
8
layer1
10
25.8273964
20
-12.5802731
11
25.7763316
21
-12.5949269
0
LINE
8
layer1
10
25.7763316
20
-12.5949269
11
25.7233121
21
-12.6172787
0
LINE
8
layer1
10
25.7233121
20
-12.6172787
11
25.6126098
21
-12.6854435
0
LINE
8
layer1
10
25.6126098
20
-12.6854435
11
25.4977285
21
-12.785334
0
LINE
8
layer1
10
25.4977285
20
-12.785334
11
25.3811645
21
-12.9173782
0
LINE
8
layer1
10
25.3811645
20
-12.9173782
11
25.2653976
21
-13.0818346
0
LINE
8
layer1
10
25.2653976
20
-13.0818346
11
25.1529571
21
-13.2788418
0
LINE
8
layer1
10
25.1529571
20
-13.2788418
11
25.0896164
21
-13.4006115
0
LINE
8
layer1
10
25.0896164
20
-13.4006115
11
25.0077049
21
-13.5209885
0
LINE
8
layer1
10
25.0077049
20
-13.5209885
11
24.8490336
21
-13.7175824
0
LINE
8
layer1
10
24.8490336
20
-13.7175824
11
24.7362518
21
-13.8411486
0
LINE
8
layer1
10
24.7362518
20
-13.8411486
11
24.6014817
21
-13.9769301
0
LINE
8
layer1
10
24.6014817
20
-13.9769301
11
24.4410324
21
-14.1256061
0
LINE
8
layer1
10
24.4410324
20
-14.1256061
11
24.2553445
21
-14.2837872
0
LINE
8
layer1
10
24.2553445
20
-14.2837872
11
24.0417774
21
-14.4508451
0
LINE
8
layer1
10
24.0417774
20
-14.4508451
11
23.7991898
21
-14.6247269
0
LINE
8
layer1
10
23.7991898
20
-14.6247269
11
23.5294575
21
-14.8014792
0
LINE
8
layer1
10
23.5294575
20
-14.8014792
11
23.2280617
21
-14.9814278
0
LINE
8
layer1
10
23.2280617
20
-14.9814278
11
22.8964705
21
-15.1610027
0
LINE
8
layer1
10
22.8964705
20
-15.1610027
11
22.5597384
21
-15.3257922
0
ARC
8
layer1
10
32.0000238
20
0.000036
40
18
50
234.1319192
51
238.3680819
0
LINE
8
layer1
10
21.453446
20
-14.5865912
11
21.4768298
21
-14.2124291
0
LINE
8
layer1
10
21.4768298
20
-14.2124291
11
21.5158409
21
-13.8373585
0
LINE
8
layer1
10
21.5158409
20
-13.8373585
11
21.5667526
21
-13.4900418
0
LINE
8
layer1
10
21.5667526
20
-13.4900418
11
21.6268284
21
-13.1732013
0
LINE
8
layer1
10
21.6268284
20
-13.1732013
11
21.6946399
21
-12.882538
0
LINE
8
layer1
10
21.6946399
20
-12.882538
11
21.7672527
21
-12.6212974
0
LINE
8
layer1
10
21.7672527
20
-12.6212974
11
21.8423333
21
-12.3892108
0
LINE
8
layer1
10
21.8423333
20
-12.3892108
11
21.9182907
21
-12.1840792
0
LINE
8
layer1
10
21.9182907
20
-12.1840792
11
21.9921622
21
-12.0076065
0
LINE
8
layer1
10
21.9921622
20
-12.0076065
11
22.0631628
21
-11.856123
0
LINE
8
layer1
10
22.0631628
20
-11.856123
11
22.1840709
21
-11.6342966
0
LINE
8
layer1
10
22.1840709
20
-11.6342966
11
22.2639387
21
-11.512554
0
LINE
8
layer1
10
22.2639387
20
-11.512554
11
22.3521997
21
-11.4074355
0
LINE
8
layer1
10
22.3521997
20
-11.4074355
11
22.4911816
21
-11.2281627
0
LINE
8
layer1
10
22.4911816
20
-11.2281627
11
22.5988174
21
-11.0582732
0
LINE
8
layer1
10
22.5988174
20
-11.0582732
11
22.6762031
21
-10.900051
0
LINE
8
layer1
10
22.6762031
20
-10.900051
11
22.7245268
21
-10.7556881
0
LINE
8
layer1
10
22.7245268
20
-10.7556881
11
22.745139
21
-10.627327
0
LINE
8
layer1
10
22.745139
20
-10.627327
11
22.7454996
21
-10.5697897
0
LINE
8
layer1
10
22.7454996
20
-10.5697897
11
22.7394962
21
-10.5170042
0
LINE
8
layer1
10
22.7394962
20
-10.5170042
11
22.7273128
21
-10.4692109
0
LINE
8
layer1
10
22.7273128
20
-10.4692109
11
22.7091826
21
-10.426643
0
LINE
8
layer1
10
22.7091826
20
-10.426643
11
22.6852965
21
-10.3895341
0
LINE
8
layer1
10
22.6852965
20
-10.3895341
11
22.6558879
21
-10.3581032
0
LINE
8
layer1
10
22.6558879
20
-10.3581032
11
22.2656074
21
-9.9922603
0
LINE
8
layer1
10
22.2656074
20
-9.9922603
11
22.1358604
21
-9.8641396
0
LINE
8
layer1
10
22.1358604
20
-9.8641396
11
22.0077397
21
-9.7343926
0
LINE
8
layer1
10
22.0077397
20
-9.7343926
11
21.6418968
21
-9.3441121
0
LINE
8
layer1
10
21.6418968
20
-9.3441121
11
21.6104659
21
-9.3147035
0
LINE
8
layer1
10
21.6104659
20
-9.3147035
11
21.573357
21
-9.2908174
0
LINE
8
layer1
10
21.573357
20
-9.2908174
11
21.5307891
21
-9.2726872
0
LINE
8
layer1
10
21.5307891
20
-9.2726872
11
21.4829958
21
-9.2605038
0
LINE
8
layer1
10
21.4829958
20
-9.2605038
11
21.4302103
21
-9.2545004
0
LINE
8
layer1
10
21.4302103
20
-9.2545004
11
21.372673
21
-9.254861
0
LINE
8
layer1
10
21.372673
20
-9.254861
11
21.2443119
21
-9.2754732
0
LINE
8
layer1
10
21.2443119
20
-9.2754732
11
21.099949
21
-9.3237969
0
LINE
8
layer1
10
21.099949
20
-9.3237969
11
20.9417268
21
-9.4011826
0
LINE
8
layer1
10
20.9417268
20
-9.4011826
11
20.7718373
21
-9.5088184
0
LINE
8
layer1
10
20.7718373
20
-9.5088184
11
20.5925645
21
-9.6478003
0
LINE
8
layer1
10
20.5925645
20
-9.6478003
11
20.487446
21
-9.7360613
0
LINE
8
layer1
10
20.487446
20
-9.7360613
11
20.3657034
21
-9.8159291
0
LINE
8
layer1
10
20.3657034
20
-9.8159291
11
20.143877
21
-9.9368372
0
LINE
8
layer1
10
20.143877
20
-9.9368372
11
19.9923935
21
-10.0078378
0
LINE
8
layer1
10
19.9923935
20
-10.0078378
11
19.8159208
21
-10.0817093
0
LINE
8
layer1
10
19.8159208
20
-10.0817093
11
19.6107892
21
-10.1576667
0
LINE
8
layer1
10
19.6107892
20
-10.1576667
11
19.3787026
21
-10.2327473
0
LINE
8
layer1
10
19.3787026
20
-10.2327473
11
19.117462
21
-10.3053601
0
LINE
8
layer1
10
19.117462
20
-10.3053601
11
18.8267987
21
-10.3731716
0
LINE
8
layer1
10
18.8267987
20
-10.3731716
11
18.5099582
21
-10.4332474
0
LINE
8
layer1
10
18.5099582
20
-10.4332474
11
18.1626415
21
-10.4841591
0
LINE
8
layer1
10
18.1626415
20
-10.4841591
11
17.7875709
21
-10.5231702
0
LINE
8
layer1
10
17.7875709
20
-10.5231702
11
17.4134088
21
-10.546554
0
ARC
8
layer1
10
32.000036
20
0.0000239
40
18
50
211.6319181
51
215.8680808
0
LINE
8
layer1
10
16.6742078
20
-9.4402616
11
16.8389973
21
-9.1035295
0
ENDSEC
0
EOF