0
SECTION
2
HEADER
9
$INSUNITS
70
1
0
ENDSEC
0
SECTION
2
TABLES
0
TABLE
2
LTYPE
0
LTYPE
72
65
70
64
2
CONTINUOUS
3
______
73
0
40
0
0
ENDTAB
0
TABLE
2
LAYER
0
ENDTAB
0
ENDSEC
0
SECTION
2
ENTITIES
0
LINE
8
front_outsideCutPath
10
0
20
12.125
11
0
21
10.572125
0
LINE
8
front_outsideCutPath
10
0
20
10.572125
11
0.118
21
10.572125
0
LINE
8
front_outsideCutPath
10
0.118
20
10.572125
11
0.118
21
9.583875
0
LINE
8
front_outsideCutPath
10
0.118
20
9.583875
11
0
21
9.583875
0
LINE
8
front_outsideCutPath
10
0
20
9.583875
11
0
21
8.595625
0
LINE
8
front_outsideCutPath
10
0
20
8.595625
11
0.118
21
8.595625
0
LINE
8
front_outsideCutPath
10
0.118
20
8.595625
11
0.118
21
7.607375
0
LINE
8
front_outsideCutPath
10
0.118
20
7.607375
11
0
21
7.607375
0
LINE
8
front_outsideCutPath
10
0
20
7.607375
11
0
21
6.619125
0
LINE
8
front_outsideCutPath
10
0
20
6.619125
11
0.118
21
6.619125
0
LINE
8
front_outsideCutPath
10
0.118
20
6.619125
11
0.118
21
5.630875
0
LINE
8
front_outsideCutPath
10
0.118
20
5.630875
11
0
21
5.630875
0
LINE
8
front_outsideCutPath
10
0
20
5.630875
11
0
21
4.642625
0
LINE
8
front_outsideCutPath
10
0
20
4.642625
11
0.118
21
4.642625
0
LINE
8
front_outsideCutPath
10
0.118
20
4.642625
11
0.118
21
3.654375
0
LINE
8
front_outsideCutPath
10
0.118
20
3.654375
11
0
21
3.654375
0
LINE
8
front_outsideCutPath
10
0
20
3.654375
11
0
21
2.666125
0
LINE
8
front_outsideCutPath
10
0
20
2.666125
11
0.118
21
2.666125
0
LINE
8
front_outsideCutPath
10
0.118
20
2.666125
11
0.118
21
1.677875
0
LINE
8
front_outsideCutPath
10
0.118
20
1.677875
11
0
21
1.677875
0
LINE
8
front_outsideCutPath
10
0
20
1.677875
11
0
21
0.689625
0
LINE
8
front_outsideCutPath
10
0
20
0.689625
11
0
21
0.125
0
LINE
8
front_outsideCutPath
10
0
20
0.125
11
0.779375
21
0.125
0
LINE
8
front_outsideCutPath
10
0.779375
20
0.125
11
0.779375
21
0.243
0
LINE
8
front_outsideCutPath
10
0.779375
20
0.243
11
1.767625
21
0.243
0
LINE
8
front_outsideCutPath
10
1.767625
20
0.243
11
1.767625
21
0.125
0
LINE
8
front_outsideCutPath
10
1.767625
20
0.125
11
2.755875
21
0.125
0
LINE
8
front_outsideCutPath
10
2.755875
20
0.125
11
2.755875
21
0.243
0
LINE
8
front_outsideCutPath
10
2.755875
20
0.243
11
3.744125
21
0.243
0
LINE
8
front_outsideCutPath
10
3.744125
20
0.243
11
3.744125
21
0.125
0
LINE
8
front_outsideCutPath
10
3.744125
20
0.125
11
4.732375
21
0.125
0
LINE
8
front_outsideCutPath
10
4.732375
20
0.125
11
4.732375
21
0.243
0
LINE
8
front_outsideCutPath
10
4.732375
20
0.243
11
5.720625
21
0.243
0
LINE
8
front_outsideCutPath
10
5.720625
20
0.243
11
5.720625
21
0.125
0
LINE
8
front_outsideCutPath
10
5.720625
20
0.125
11
6.5
21
0.125
0
LINE
8
front_outsideCutPath
10
6.5
20
0.125
11
6.5
21
1.677875
0
LINE
8
front_outsideCutPath
10
6.5
20
1.677875
11
6.382
21
1.677875
0
LINE
8
front_outsideCutPath
10
6.382
20
1.677875
11
6.382
21
2.666125
0
LINE
8
front_outsideCutPath
10
6.382
20
2.666125
11
6.5
21
2.666125
0
LINE
8
front_outsideCutPath
10
6.5
20
2.666125
11
6.5
21
3.654375
0
LINE
8
front_outsideCutPath
10
6.5
20
3.654375
11
6.382
21
3.654375
0
LINE
8
front_outsideCutPath
10
6.382
20
3.654375
11
6.382
21
4.642625
0
LINE
8
front_outsideCutPath
10
6.382
20
4.642625
11
6.5
21
4.642625
0
LINE
8
front_outsideCutPath
10
6.5
20
4.642625
11
6.5
21
5.630875
0
LINE
8
front_outsideCutPath
10
6.5
20
5.630875
11
6.382
21
5.630875
0
LINE
8
front_outsideCutPath
10
6.382
20
5.630875
11
6.382
21
6.619125
0
LINE
8
front_outsideCutPath
10
6.382
20
6.619125
11
6.5
21
6.619125
0
LINE
8
front_outsideCutPath
10
6.5
20
6.619125
11
6.5
21
7.607375
0
LINE
8
front_outsideCutPath
10
6.5
20
7.607375
11
6.382
21
7.607375
0
LINE
8
front_outsideCutPath
10
6.382
20
7.607375
11
6.382
21
8.595625
0
LINE
8
front_outsideCutPath
10
6.382
20
8.595625
11
6.5
21
8.595625
0
LINE
8
front_outsideCutPath
10
6.5
20
8.595625
11
6.5
21
9.583875
0
LINE
8
front_outsideCutPath
10
6.5
20
9.583875
11
6.382
21
9.583875
0
LINE
8
front_outsideCutPath
10
6.382
20
9.583875
11
6.382
21
10.572125
0
LINE
8
front_outsideCutPath
10
6.382
20
10.572125
11
6.5
21
10.572125
0
LINE
8
front_outsideCutPath
10
6.5
20
10.572125
11
6.5
21
11.560375
0
LINE
8
front_outsideCutPath
10
6.5
20
11.560375
11
6.5
21
12.125
0
LINE
8
front_outsideCutPath
10
6.5
20
12.125
11
0
21
12.125
0
LINE
8
front_labelLayer
10
2.1731201
20
6.3297256
11
2.1731201
21
6.2478409
0
LINE
8
front_labelLayer
10
2.1731201
20
6.2478409
11
1.9960205
21
6.2478409
0
LINE
8
front_labelLayer
10
1.9960205
20
6.2478409
11
1.9960205
21
5.6340225
0
LINE
8
front_labelLayer
10
1.9960205
20
5.6340225
11
1.8906494
21
5.6340225
0
LINE
8
front_labelLayer
10
1.8906494
20
5.6340225
11
1.8906494
21
6.2478409
0
LINE
8
front_labelLayer
10
1.8906494
20
6.2478409
11
1.7662353
21
6.2478409
0
LINE
8
front_labelLayer
10
1.7662353
20
6.2478409
11
1.7662353
21
6.2954483
0
LINE
8
front_labelLayer
10
1.7662353
20
6.2954483
11
1.8906494
21
6.3335342
0
LINE
8
front_labelLayer
10
1.8906494
20
6.3335342
11
1.8906494
21
6.3722549
0
LINE
8
front_labelLayer
10
2.2442138
20
6.6064834
11
2.2169189
21
6.5220596
0
LINE
8
front_labelLayer
10
1.9960205
20
6.374794
11
1.9960205
21
6.3297256
0
LINE
8
front_labelLayer
10
1.9960205
20
6.3297256
11
2.1731201
21
6.3297256
0
ARC
8
front_labelLayer
10
2.3176825
20
6.3771635
40
0.4270613
50
167.5775166
51
180.6585632
0
ARC
8
front_labelLayer
10
2.1168637
20
6.4239836
40
0.2208868
50
141.7434178
51
168.2322594
0
ARC
8
front_labelLayer
10
2.0841665
20
6.441049
40
0.1847716
50
98.2551299
51
139.6203345
0
ARC
8
front_labelLayer
10
2.1128763
20
6.308419
40
0.3202867
50
89.669889
51
99.9314118
0
ARC
8
front_labelLayer
10
2.1129569
20
6.2894009
40
0.339304
50
81.5639676
51
89.7019902
0
ARC
8
front_labelLayer
10
2.0891044
20
6.1229826
40
0.5074215
50
75.9738305
51
81.6565602
0
ARC
8
front_labelLayer
10
2.048184
20
5.9532388
40
0.6820237
50
73.296214
51
76.094771
0
ARC
8
front_labelLayer
10
2.0584744
20
6.035542
40
0.511668
50
71.9610866
51
76.5916814
0
ARC
8
front_labelLayer
10
2.0981724
20
6.2039455
40
0.3386494
50
76.5180894
51
83.0217732
0
ARC
8
front_labelLayer
10
2.1119975
20
6.3151334
40
0.2266055
50
83.0759376
51
89.7927057
0
ARC
8
front_labelLayer
10
2.1115424
20
6.3996414
40
0.1421017
50
89.4859378
51
103.4200237
0
ARC
8
front_labelLayer
10
2.0987308
20
6.4488598
40
0.0912598
50
102.7678223
51
144.3380015
0
ARC
8
front_labelLayer
10
2.1245472
20
6.4322507
40
0.1219279
50
145.0694899
51
162.1798596
0
ARC
8
front_labelLayer
10
2.2130319
20
6.4024799
40
0.2152818
50
161.8435744
51
171.7846885
0
ARC
8
front_labelLayer
10
2.3573687
20
6.3808009
40
0.3612362
50
171.6527756
51
178.4384146
0
ARC
8
front_labelLayer
10
2.4938672
20
6.374989
40
0.4978468
50
178.1978799
51
180.0224397
0
LINE
8
front_labelLayer
10
2.7006103
20
6.3348038
11
2.6860107
21
6.2370499
0
LINE
8
front_labelLayer
10
2.4054443
20
6.0072647
11
2.4054443
21
5.6340225
0
LINE
8
front_labelLayer
10
2.4054443
20
5.6340225
11
2.3000732
21
5.6340225
0
LINE
8
front_labelLayer
10
2.3000732
20
5.6340225
11
2.3000732
21
6.3297256
0
LINE
8
front_labelLayer
10
2.3000732
20
6.3297256
11
2.3870361
21
6.3297256
0
LINE
8
front_labelLayer
10
2.3870361
20
6.3297256
11
2.3990967
21
6.2008682
0
LINE
8
front_labelLayer
10
2.3990967
20
6.2008682
11
2.4041748
21
6.2008682
0
ARC
8
front_labelLayer
10
2.6185354
20
5.8586681
40
0.4837541
50
84.9921577
51
90.1278412
0
ARC
8
front_labelLayer
10
2.6301594
20
5.9888617
40
0.353043
50
78.4891492
51
85.0270077
0
ARC
8
front_labelLayer
10
2.5850468
20
5.7836613
40
0.4644942
50
77.4457901
51
81.6355817
0
ARC
8
front_labelLayer
10
2.6053041
20
5.9232897
40
0.3234044
50
81.5877986
51
87.1922206
0
ARC
8
front_labelLayer
10
2.6096921
20
5.9995029
40
0.2470686
50
87.3428279
51
89.9659728
0
ARC
8
front_labelLayer
10
2.6086713
20
6.0639976
40
0.1825775
50
89.6335982
51
137.0879814
0
ARC
8
front_labelLayer
10
2.6534714
20
6.013618
40
0.2497731
50
135.6209304
51
138.8378816
0
ARC
8
front_labelLayer
10
2.6469112
20
6.0200202
40
0.2406209
50
138.9574039
51
174.5423519
0
ARC
8
front_labelLayer
10
2.7252735
20
6.0077575
40
0.3198296
50
173.6906649
51
180.0882877
0
ARC
8
front_labelLayer
10
2.714208
20
6.0261961
40
0.3558524
50
139.414164
51
150.6031818
0
ARC
8
front_labelLayer
10
2.6503924
20
6.0808783
40
0.2718132
50
124.2319528
51
139.4162336
0
ARC
8
front_labelLayer
10
2.6162819
20
6.1323702
40
0.2100542
50
89.6797346
51
124.4406386
0
ARC
8
front_labelLayer
10
2.886952
20
5.9788405
40
0.5442859
50
349.176114
51
0.3861622
0
ARC
8
front_labelLayer
10
3.0702026
20
5.9423082
40
0.3574383
50
330.2506475
51
349.4116802
0
ARC
8
front_labelLayer
10
3.1265874
20
5.9130029
40
0.2939542
50
318.1441712
51
329.7564312
0
ARC
8
front_labelLayer
10
3.1367735
20
5.9048403
40
0.2809217
50
278.8959676
51
317.997927
0
ARC
8
front_labelLayer
10
3.110549
20
6.0304881
40
0.4091647
50
269.7501292
51
279.8032261
0
ARC
8
front_labelLayer
10
3.1062939
20
5.9596892
40
0.338371
50
253.5435656
51
270.4183737
0
ARC
8
front_labelLayer
10
3.0950249
20
5.9161098
40
0.2933885
50
238.8112086
51
253.2431894
0
ARC
8
front_labelLayer
10
3.091396
20
5.908813
40
0.2852679
50
207.7947625
51
238.6757698
0
ARC
8
front_labelLayer
10
3.14361
20
5.9407896
40
0.3463908
50
205.6567746
51
208.4464062
0
ARC
8
front_labelLayer
10
3.1837394
20
5.9575009
40
0.3898061
50
188.9102065
51
205.3170074
0
ARC
8
front_labelLayer
10
3.3191343
20
5.980434
40
0.5271219
50
179.7744727
51
189.0934155
0
ARC
8
front_labelLayer
10
3.3391168
20
5.9862145
40
0.5471127
50
169.2443178
51
180.3880743
0
ARC
8
front_labelLayer
10
3.153325
20
6.0229382
40
0.3577343
50
150.7113023
51
169.469468
0
ARC
8
front_labelLayer
10
3.0940056
20
6.0534002
40
0.2911058
50
138.17578
51
150.2287554
0
ARC
8
front_labelLayer
10
3.0841432
20
6.0609697
40
0.2787104
50
99.1759295
51
137.9833586
0
ARC
8
front_labelLayer
10
3.1112973
20
5.9331739
40
0.4092514
50
89.7325008
51
100.0758275
0
ARC
8
front_labelLayer
10
3.1167263
20
5.9883676
40
0.3540708
50
73.5222562
51
90.5693465
0
ARC
8
front_labelLayer
10
3.1374902
20
6.0638071
40
0.275844
50
41.1445955
51
73.213434
0
ARC
8
front_labelLayer
10
3.0978541
20
6.0297402
40
0.3281068
50
13.5013396
51
41.0704039
0
ARC
8
front_labelLayer
10
2.9447095
20
5.9896645
40
0.4863863
50
1.1277594
51
13.8799272
0
ARC
8
front_labelLayer
10
2.8129735
20
5.9825962
40
0.6182522
50
359.9919011
51
1.5423954
0
ARC
8
front_labelLayer
10
3.434798
20
5.9797705
40
0.5336087
50
179.705972
51
187.9159102
0
ARC
8
front_labelLayer
10
3.2390746
20
5.951657
40
0.3358796
50
187.7639827
51
200.0979257
0
ARC
8
front_labelLayer
10
3.1312607
20
5.9121518
40
0.2210561
50
200.0844273
51
216.9133996
0
ARC
8
front_labelLayer
10
3.0918957
20
5.8840422
40
0.1727031
50
217.3009316
51
261.7098744
0
ARC
8
front_labelLayer
10
3.1101724
20
5.9712665
40
0.2617092
50
260.5036411
51
270.2476676
0
ARC
8
front_labelLayer
10
3.1136602
20
5.9542988
40
0.2447506
50
269.4483403
51
284.7257055
0
ARC
8
front_labelLayer
10
3.1330359
20
5.8824418
40
0.1703294
50
284.5663078
51
322.6332843
0
ARC
8
front_labelLayer
10
3.0877335
20
5.9151702
40
0.2262025
50
323.0089761
51
342.6388793
0
ARC
8
front_labelLayer
10
2.9581773
20
5.9575132
40
0.3624955
50
342.3614431
51
353.7540006
0
ARC
8
front_labelLayer
10
2.767016
20
5.9805576
40
0.5550333
50
353.5362115
51
0.2014257
0
ARC
8
front_labelLayer
10
2.7963121
20
5.9851936
40
0.5257406
50
359.7074096
51
7.8973739
0
ARC
8
front_labelLayer
10
2.9888439
20
6.0127953
40
0.3312435
50
7.7440844
51
20.0691598
0
ARC
8
front_labelLayer
10
3.0961379
20
6.0521692
40
0.2169534
50
20.0256691
51
37.4350754
0
ARC
8
front_labelLayer
10
3.1317366
20
6.0774296
40
0.1733389
50
37.9577333
51
80.4005463
0
ARC
8
front_labelLayer
10
3.1115077
20
5.9871799
40
0.2657433
50
79.3449644
51
90.3177106
0
ARC
8
front_labelLayer
10
3.1077608
20
6.0021637
40
0.2507656
50
89.4805728
51
103.8807884
0
ARC
8
front_labelLayer
10
3.0866897
20
6.0823972
40
0.1678246
50
103.4685141
51
142.311806
0
ARC
8
front_labelLayer
10
3.1276548
20
6.0535878
40
0.2178669
50
142.9025612
51
162.374832
0
ARC
8
front_labelLayer
10
3.2567332
20
6.0105728
40
0.3539156
50
162.0652449
51
173.1673729
0
ARC
8
front_labelLayer
10
3.4580269
20
5.9849017
40
0.5568358
50
173.0088096
51
180.2462126
0
LINE
8
front_labelLayer
10
4.1973877
20
5.6340225
11
4.0920166
21
5.6340225
0
LINE
8
front_labelLayer
10
4.0920166
20
5.6340225
11
4.0920166
21
6.0840713
0
LINE
8
front_labelLayer
10
3.7213135
20
5.9990127
11
3.7213135
21
5.6340225
0
LINE
8
front_labelLayer
10
3.7213135
20
5.6340225
11
3.6159424
21
5.6340225
0
LINE
8
front_labelLayer
10
3.6159424
20
5.6340225
11
3.6159424
21
6.3297256
0
LINE
8
front_labelLayer
10
3.6159424
20
6.3297256
11
3.7016357
21
6.3297256
0
LINE
8
front_labelLayer
10
3.7016357
20
6.3297256
11
3.7187744
21
6.2345108
0
LINE
8
front_labelLayer
10
3.7187744
20
6.2345108
11
3.7238525
21
6.2345108
0
LINE
8
front_labelLayer
10
4.1973877
20
6.0878799
11
4.1973877
21
5.6340225
0
ARC
8
front_labelLayer
10
3.7941447
20
6.0857784
40
0.2978768
50
359.6716498
51
8.6873796
0
ARC
8
front_labelLayer
10
3.9045563
20
6.103287
40
0.1860884
50
8.4931422
51
22.6578332
0
ARC
8
front_labelLayer
10
3.9606477
20
6.1265966
40
0.1253465
50
22.7023291
51
42.3420918
0
ARC
8
front_labelLayer
10
3.9669517
20
6.129433
40
0.1187959
50
43.3789214
51
71.5387832
0
ARC
8
front_labelLayer
10
3.9433776
20
6.0635647
40
0.1887456
50
71.0825348
51
84.3695671
0
ARC
8
front_labelLayer
10
3.9327921
20
5.9735653
40
0.2793546
50
84.019978
51
90.151038
0
ARC
8
front_labelLayer
10
3.929793
20
5.9340122
40
0.3189149
50
89.593501
51
100.3718077
0
ARC
8
front_labelLayer
10
3.9072559
20
6.0522603
40
0.1985434
50
100.1178369
51
118.1602813
0
ARC
8
front_labelLayer
10
3.8845442
20
6.0967965
40
0.1485639
50
118.5440271
51
139.1925459
0
ARC
8
front_labelLayer
10
3.9043424
20
6.0835121
40
0.172255
50
140.1516732
51
160.3149775
0
ARC
8
front_labelLayer
10
4.0239454
20
6.0387146
40
0.2999643
50
159.9537186
51
171.3798797
0
ARC
8
front_labelLayer
10
4.2192944
20
6.0073148
40
0.4978161
50
171.1766607
51
178.3216022
0
ARC
8
front_labelLayer
10
4.3965284
20
5.9992916
40
0.6752149
50
178.0815698
51
180.0236599
0
ARC
8
front_labelLayer
10
3.9041058
20
6.1203502
40
0.2133632
50
116.9442493
51
147.6525106
0
ARC
8
front_labelLayer
10
3.9261037
20
6.0836292
40
0.2560832
50
115.8060545
51
117.6089668
0
ARC
8
front_labelLayer
10
3.9376691
20
6.0567282
40
0.2853391
50
94.3228534
51
115.545271
0
ARC
8
front_labelLayer
10
3.9444973
20
5.9974353
40
0.3449859
50
89.9578777
51
94.7114088
0
ARC
8
front_labelLayer
10
3.9473189
20
5.9264039
40
0.416025
50
80.5584273
51
90.3536699
0
ARC
8
front_labelLayer
10
3.9733158
20
6.0769908
40
0.2632153
50
65.1097507
51
80.7635164
0
ARC
8
front_labelLayer
10
4.0037089
20
6.144316
40
0.1893532
50
46.5584021
51
64.8780162
0
ARC
8
front_labelLayer
10
4.006144
20
6.15133
40
0.1826119
50
19.3848311
51
45.5998593
0
ARC
8
front_labelLayer
10
3.9004878
20
6.1116868
40
0.2954455
50
6.9635335
51
19.8361794
0
ARC
8
front_labelLayer
10
3.7375459
20
6.0897809
40
0.4598457
50
359.7631428
51
7.2114335
0
LINE
8
front_labelLayer
10
4.7337646
20
5.7209854
11
4.7337646
21
5.6403702
0
LINE
8
front_labelLayer
10
4.4214599
20
5.8339737
11
4.4214599
21
6.2478409
0
LINE
8
front_labelLayer
10
4.4214599
20
6.2478409
11
4.3218017
21
6.2478409
0
LINE
8
front_labelLayer
10
4.3218017
20
6.2478409
11
4.3218017
21
6.2986221
0
LINE
8
front_labelLayer
10
4.3218017
20
6.2986221
11
4.4214599
21
6.3424209
0
LINE
8
front_labelLayer
10
4.4214599
20
6.3424209
11
4.4658935
21
6.4909561
0
LINE
8
front_labelLayer
10
4.4658935
20
6.4909561
11
4.526831
21
6.4909561
0
LINE
8
front_labelLayer
10
4.526831
20
6.4909561
11
4.526831
21
6.3297256
0
LINE
8
front_labelLayer
10
4.526831
20
6.3297256
11
4.7286865
21
6.3297256
0
LINE
8
front_labelLayer
10
4.7286865
20
6.3297256
11
4.7286865
21
6.2478409
0
LINE
8
front_labelLayer
10
4.7286865
20
6.2478409
11
4.526831
21
6.2478409
0
LINE
8
front_labelLayer
10
4.526831
20
6.2478409
11
4.526831
21
5.838417
0
ARC
8
front_labelLayer
10
4.6392724
20
6.0543378
40
0.3460485
50
269.8803602
51
278.3029488
0
ARC
8
front_labelLayer
10
4.6423081
20
6.0291312
40
0.3206684
50
278.416605
51
279.0060011
0
ARC
8
front_labelLayer
10
4.603633
20
6.2760711
40
0.5706182
50
278.9600963
51
280.509901
0
ARC
8
front_labelLayer
10
4.6408143
20
6.0765746
40
0.3676867
50
280.483685
51
282.6278254
0
ARC
8
front_labelLayer
10
4.6731891
20
5.9327818
40
0.2202945
50
282.5872313
51
285.5785379
0
ARC
8
front_labelLayer
10
4.6876288
20
5.8793473
40
0.1649455
50
285.7317584
51
286.2425254
0
ARC
8
front_labelLayer
10
4.6894586
20
5.7340805
40
0.1036564
50
287.9895691
51
295.3046609
0
ARC
8
front_labelLayer
10
4.6644636
20
5.8097036
40
0.1833024
50
283.3073154
51
288.1200377
0
ARC
8
front_labelLayer
10
4.6380796
20
5.9197583
40
0.2964752
50
280.0061163
51
283.3737483
0
ARC
8
front_labelLayer
10
4.619987
20
6.018092
40
0.3964576
50
279.1894072
51
280.1118501
0
ARC
8
front_labelLayer
10
4.6095465
20
6.0773991
40
0.4566716
50
275.5260075
51
279.2941991
0
ARC
8
front_labelLayer
10
4.621767
20
5.9497292
40
0.3284182
50
270.8930243
51
275.5487921
0
ARC
8
front_labelLayer
10
4.6232853
20
5.8936384
40
0.2723112
50
270.0063446
51
270.7575551
0
ARC
8
front_labelLayer
10
4.6190633
20
5.896509
40
0.2752147
50
253.7848567
51
270.8852672
0
ARC
8
front_labelLayer
10
4.5864578
20
5.7853108
40
0.1593352
50
190.3817092
51
253.8772331
0
ARC
8
front_labelLayer
10
4.7526563
20
5.8302465
40
0.3312173
50
179.3552442
51
192.8475577
0
ARC
8
front_labelLayer
10
4.7389959
20
5.837089
40
0.2121691
50
179.6413706
51
189.7509426
0
ARC
8
front_labelLayer
10
4.6641072
20
5.8237307
40
0.1361006
50
189.54812
51
205.7872379
0
ARC
8
front_labelLayer
10
4.6333232
20
5.8095354
40
0.1022087
50
206.1293827
51
221.4081871
0
ARC
8
front_labelLayer
10
4.6298712
20
5.8069167
40
0.097888
50
221.5949996
51
262.3502919
0
ARC
8
front_labelLayer
10
4.6380783
20
5.8491167
40
0.1408274
50
261.3263758
51
270.1918428
0
LINE
8
left_outsideCutPath
10
6.743
20
12.125
11
6.743
21
10.572125
0
LINE
8
left_outsideCutPath
10
6.743
20
10.572125
11
6.625
21
10.572125
0
LINE
8
left_outsideCutPath
10
6.625
20
10.572125
11
6.625
21
9.583875
0
LINE
8
left_outsideCutPath
10
6.625
20
9.583875
11
6.743
21
9.583875
0
LINE
8
left_outsideCutPath
10
6.743
20
9.583875
11
6.743
21
8.595625
0
LINE
8
left_outsideCutPath
10
6.743
20
8.595625
11
6.625
21
8.595625
0
LINE
8
left_outsideCutPath
10
6.625
20
8.595625
11
6.625
21
7.607375
0
LINE
8
left_outsideCutPath
10
6.625
20
7.607375
11
6.743
21
7.607375
0
LINE
8
left_outsideCutPath
10
6.743
20
7.607375
11
6.743
21
6.619125
0
LINE
8
left_outsideCutPath
10
6.743
20
6.619125
11
6.625
21
6.619125
0
LINE
8
left_outsideCutPath
10
6.625
20
6.619125
11
6.625
21
5.630875
0
LINE
8
left_outsideCutPath
10
6.625
20
5.630875
11
6.743
21
5.630875
0
LINE
8
left_outsideCutPath
10
6.743
20
5.630875
11
6.743
21
4.642625
0
LINE
8
left_outsideCutPath
10
6.743
20
4.642625
11
6.625
21
4.642625
0
LINE
8
left_outsideCutPath
10
6.625
20
4.642625
11
6.625
21
3.654375
0
LINE
8
left_outsideCutPath
10
6.625
20
3.654375
11
6.743
21
3.654375
0
LINE
8
left_outsideCutPath
10
6.743
20
3.654375
11
6.743
21
2.666125
0
LINE
8
left_outsideCutPath
10
6.743
20
2.666125
11
6.625
21
2.666125
0
LINE
8
left_outsideCutPath
10
6.625
20
2.666125
11
6.625
21
1.677875
0
LINE
8
left_outsideCutPath
10
6.625
20
1.677875
11
6.743
21
1.677875
0
LINE
8
left_outsideCutPath
10
6.743
20
1.677875
11
6.743
21
0.689625
0
LINE
8
left_outsideCutPath
10
6.743
20
0.689625
11
6.743
21
0.125
0
LINE
8
left_outsideCutPath
10
6.743
20
0.125
11
7.630875
21
0.125
0
LINE
8
left_outsideCutPath
10
7.630875
20
0.125
11
7.630875
21
0.243
0
LINE
8
left_outsideCutPath
10
7.630875
20
0.243
11
8.619125
21
0.243
0
LINE
8
left_outsideCutPath
10
8.619125
20
0.243
11
8.619125
21
0.125
0
LINE
8
left_outsideCutPath
10
8.619125
20
0.125
11
9.507
21
0.125
0
LINE
8
left_outsideCutPath
10
9.507
20
0.125
11
9.507
21
1.677875
0
LINE
8
left_outsideCutPath
10
9.507
20
1.677875
11
9.625
21
1.677875
0
LINE
8
left_outsideCutPath
10
9.625
20
1.677875
11
9.625
21
2.666125
0
LINE
8
left_outsideCutPath
10
9.625
20
2.666125
11
9.507
21
2.666125
0
LINE
8
left_outsideCutPath
10
9.507
20
2.666125
11
9.507
21
3.654375
0
LINE
8
left_outsideCutPath
10
9.507
20
3.654375
11
9.625
21
3.654375
0
LINE
8
left_outsideCutPath
10
9.625
20
3.654375
11
9.625
21
4.642625
0
LINE
8
left_outsideCutPath
10
9.625
20
4.642625
11
9.507
21
4.642625
0
LINE
8
left_outsideCutPath
10
9.507
20
4.642625
11
9.507
21
5.630875
0
LINE
8
left_outsideCutPath
10
9.507
20
5.630875
11
9.625
21
5.630875
0
LINE
8
left_outsideCutPath
10
9.625
20
5.630875
11
9.625
21
6.619125
0
LINE
8
left_outsideCutPath
10
9.625
20
6.619125
11
9.507
21
6.619125
0
LINE
8
left_outsideCutPath
10
9.507
20
6.619125
11
9.507
21
7.607375
0
LINE
8
left_outsideCutPath
10
9.507
20
7.607375
11
9.625
21
7.607375
0
LINE
8
left_outsideCutPath
10
9.625
20
7.607375
11
9.625
21
8.595625
0
LINE
8
left_outsideCutPath
10
9.625
20
8.595625
11
9.507
21
8.595625
0
LINE
8
left_outsideCutPath
10
9.507
20
8.595625
11
9.507
21
9.583875
0
LINE
8
left_outsideCutPath
10
9.507
20
9.583875
11
9.625
21
9.583875
0
LINE
8
left_outsideCutPath
10
9.625
20
9.583875
11
9.625
21
10.572125
0
LINE
8
left_outsideCutPath
10
9.625
20
10.572125
11
9.507
21
10.572125
0
LINE
8
left_outsideCutPath
10
9.507
20
10.572125
11
9.507
21
11.560375
0
LINE
8
left_outsideCutPath
10
9.507
20
11.560375
11
9.507
21
12.125
0
LINE
8
left_outsideCutPath
10
9.507
20
12.125
11
6.743
21
12.125
0
LINE
8
left_labelLayer
10
7.7539551
20
6.3542543
11
7.7539551
21
5.898395
0
LINE
8
left_labelLayer
10
7.7539551
20
5.898395
11
7.7053223
21
5.898395
0
LINE
8
left_labelLayer
10
7.7053223
20
5.898395
11
7.7053223
21
6.3542543
0
LINE
8
left_labelLayer
10
7.7053223
20
6.3542543
11
7.7539551
21
6.3542543
0
LINE
8
left_labelLayer
10
8.110791
20
6.0809145
11
8.110791
21
6.0501528
0
LINE
8
left_labelLayer
10
8.110791
20
6.0501528
11
7.8895996
21
6.0501528
0
LINE
8
left_labelLayer
10
8.0970215
20
5.9566958
11
8.0970215
21
5.9133364
0
LINE
8
left_labelLayer
10
7.8907715
20
6.0897036
11
8.0586426
21
6.0897036
0
ARC
8
left_labelLayer
10
7.9911255
20
6.0815087
40
0.1889799
50
256.0084388
51
270.4848373
0
ARC
8
left_labelLayer
10
7.9773628
20
6.0280861
40
0.1338156
50
223.5464263
51
256.1959492
0
ARC
8
left_labelLayer
10
7.9849553
20
6.0336056
40
0.1431266
50
194.0878477
51
223.0539355
0
ARC
8
left_labelLayer
10
8.0545178
20
6.0526284
40
0.2152324
50
181.3576243
51
194.4920842
0
ARC
8
left_labelLayer
10
8.1164643
20
6.0562441
40
0.2772554
50
179.9873789
51
181.801312
0
ARC
8
left_labelLayer
10
8.0945821
20
6.0580172
40
0.2553788
50
168.9541045
51
180.3841173
0
ARC
8
left_labelLayer
10
8.0111692
20
6.0750009
40
0.1702586
50
149.4070255
51
169.185465
0
ARC
8
left_labelLayer
10
7.9879405
20
6.087273
40
0.1440231
50
140.1059854
51
148.9065593
0
ARC
8
left_labelLayer
10
7.9736566
20
6.1004403
40
0.1246224
50
92.4761832
51
140.5387019
0
ARC
8
left_labelLayer
10
7.9800184
20
6.0533911
40
0.1719569
50
89.9638298
51
93.9167829
0
ARC
8
left_labelLayer
10
7.9815362
20
6.0771875
40
0.1481673
50
74.2127383
51
90.5449665
0
ARC
8
left_labelLayer
10
7.9908157
20
6.1113804
40
0.1127401
50
41.2064782
51
74.0230367
0
ARC
8
left_labelLayer
10
7.9732411
20
6.0961712
40
0.1359819
50
11.5994894
51
41.1495168
0
ARC
8
left_labelLayer
10
7.9128558
20
6.0822461
40
0.1979395
50
359.6145447
51
12.0334059
0
ARC
8
left_labelLayer
10
8.0847428
20
6.0540515
40
0.1951822
50
181.1445316
51
190.801126
0
ARC
8
left_labelLayer
10
8.0158962
20
6.040472
40
0.1250113
50
190.6008677
51
206.027334
0
ARC
8
left_labelLayer
10
7.9854205
20
6.026064
40
0.091305
50
206.2945683
51
222.5563797
0
ARC
8
left_labelLayer
10
7.9827256
20
6.0246535
40
0.0883696
50
223.0644554
51
258.140179
0
ARC
8
left_labelLayer
10
7.993473
20
6.0689016
40
0.1338895
50
257.5307156
51
270.4319666
0
ARC
8
left_labelLayer
10
7.993593
20
6.1918712
40
0.2568567
50
270.1983973
51
292.2090381
0
ARC
8
left_labelLayer
10
7.9815265
20
6.2266539
40
0.2936265
50
291.823435
51
293.1624718
0
ARC
8
left_labelLayer
10
7.9806598
20
6.181134
40
0.2919856
50
287.9022439
51
293.4856069
0
ARC
8
left_labelLayer
10
8.0018435
20
6.1157712
40
0.223276
50
281.9939773
51
287.8853219
0
ARC
8
left_labelLayer
10
8.0069865
20
6.0972718
40
0.204115
50
275.9047524
51
281.6609434
0
ARC
8
left_labelLayer
10
7.9967031
20
6.1932629
40
0.3006549
50
271.9119195
51
275.9721616
0
ARC
8
left_labelLayer
10
7.9929479
20
6.2888264
40
0.396291
50
269.9677187
51
271.9935891
0
ARC
8
left_labelLayer
10
7.9786083
20
6.0887606
40
0.0958694
50
89.4425836
51
106.2088194
0
ARC
8
left_labelLayer
10
7.9728407
20
6.1097918
40
0.0740649
50
106.4658361
51
137.9175387
0
ARC
8
left_labelLayer
10
7.9893739
20
6.0952727
40
0.0960668
50
138.0992858
51
160.5869537
0
ARC
8
left_labelLayer
10
8.0318868
20
6.0796327
40
0.1413624
50
160.3354327
51
172.5310045
0
ARC
8
left_labelLayer
10
8.073852
20
6.0729148
40
0.1838487
50
172.1551954
51
174.7605351
0
ARC
8
left_labelLayer
10
7.8929279
20
6.0906461
40
0.1657173
50
359.6741134
51
8.9223883
0
ARC
8
left_labelLayer
10
7.9521382
20
6.1002929
40
0.1057278
50
8.7344572
51
23.2773432
0
ARC
8
left_labelLayer
10
7.9802484
20
6.1120926
40
0.0752433
50
23.4825507
51
39.7068968
0
ARC
8
left_labelLayer
10
7.9871568
20
6.1172617
40
0.0666276
50
40.0824907
51
80.6244918
0
ARC
8
left_labelLayer
10
7.9800497
20
6.0846792
40
0.0999474
50
79.6474298
51
90.2915949
0
LINE
8
left_labelLayer
10
8.3384277
20
6.2194887
11
8.3384277
21
6.1816958
0
LINE
8
left_labelLayer
10
8.3384277
20
6.1816958
11
8.2566895
21
6.1816958
0
LINE
8
left_labelLayer
10
8.2566895
20
6.1816958
11
8.2566895
21
5.898395
0
LINE
8
left_labelLayer
10
8.2566895
20
5.898395
11
8.2080566
21
5.898395
0
LINE
8
left_labelLayer
10
8.2080566
20
5.898395
11
8.2080566
21
6.1816958
0
LINE
8
left_labelLayer
10
8.2080566
20
6.1816958
11
8.1506348
21
6.1816958
0
LINE
8
left_labelLayer
10
8.1506348
20
6.1816958
11
8.1506348
21
6.2036684
0
LINE
8
left_labelLayer
10
8.1506348
20
6.2036684
11
8.2080566
21
6.2212465
0
LINE
8
left_labelLayer
10
8.2080566
20
6.2212465
11
8.2080566
21
6.2391176
0
LINE
8
left_labelLayer
10
8.3712402
20
6.3472231
11
8.3586426
21
6.3082583
0
LINE
8
left_labelLayer
10
8.2566895
20
6.2402895
11
8.2566895
21
6.2194887
0
LINE
8
left_labelLayer
10
8.2566895
20
6.2194887
11
8.3384277
21
6.2194887
0
ARC
8
left_labelLayer
10
8.4051455
20
6.2413835
40
0.1971019
50
167.5774168
51
180.6586871
0
ARC
8
left_labelLayer
10
8.312461
20
6.2629934
40
0.1019454
50
141.7430733
51
168.2325322
0
ARC
8
left_labelLayer
10
8.2973724
20
6.2708688
40
0.0852793
50
98.255247
51
139.6204487
0
ARC
8
left_labelLayer
10
8.3106225
20
6.2096652
40
0.1478144
50
89.6696939
51
99.9319307
0
ARC
8
left_labelLayer
10
8.3106608
20
6.2008791
40
0.1566
50
81.5641191
51
89.7022404
0
ARC
8
left_labelLayer
10
8.2996484
20
6.1240437
40
0.2342198
50
75.9746421
51
81.6567603
0
ARC
8
left_labelLayer
10
8.2807525
20
6.0456766
40
0.3148307
50
73.2966068
51
76.094715
0
ARC
8
left_labelLayer
10
8.2855209
20
6.0837268
40
0.236138
50
71.9614654
51
76.5923814
0
ARC
8
left_labelLayer
10
8.3038322
20
6.1614186
40
0.1563179
50
76.5180827
51
83.0210104
0
ARC
8
left_labelLayer
10
8.3102156
20
6.2127419
40
0.1045992
50
83.0757953
51
89.7917934
0
ARC
8
left_labelLayer
10
8.3100066
20
6.251764
40
0.0655789
50
89.485278
51
103.4207474
0
ARC
8
left_labelLayer
10
8.3040945
20
6.2744734
40
0.0421203
50
102.7680505
51
144.337814
0
ARC
8
left_labelLayer
10
8.316005
20
6.2668096
40
0.0562698
50
145.0682486
51
162.1800483
0
ARC
8
left_labelLayer
10
8.3568322
20
6.2530717
40
0.099344
50
161.8428759
51
171.7856781
0
ARC
8
left_labelLayer
10
8.4234911
20
6.2430587
40
0.1667501
50
171.6529562
51
178.4375487
0
ARC
8
left_labelLayer
10
8.4863321
20
6.2403824
40
0.2296426
50
178.1975677
51
180.0231825
0
LINE
8
left_labelLayer
10
8.5446777
20
5.9385317
11
8.5446777
21
5.9013247
0
LINE
8
left_labelLayer
10
8.4005371
20
5.9906801
11
8.4005371
21
6.1816958
0
LINE
8
left_labelLayer
10
8.4005371
20
6.1816958
11
8.354541
21
6.1816958
0
LINE
8
left_labelLayer
10
8.354541
20
6.1816958
11
8.354541
21
6.2051333
0
LINE
8
left_labelLayer
10
8.354541
20
6.2051333
11
8.4005371
21
6.2253481
0
LINE
8
left_labelLayer
10
8.4005371
20
6.2253481
11
8.4210449
21
6.2939028
0
LINE
8
left_labelLayer
10
8.4210449
20
6.2939028
11
8.4491699
21
6.2939028
0
LINE
8
left_labelLayer
10
8.4491699
20
6.2939028
11
8.4491699
21
6.2194887
0
LINE
8
left_labelLayer
10
8.4491699
20
6.2194887
11
8.542334
21
6.2194887
0
LINE
8
left_labelLayer
10
8.542334
20
6.2194887
11
8.542334
21
6.1816958
0
LINE
8
left_labelLayer
10
8.542334
20
6.1816958
11
8.4491699
21
6.1816958
0
LINE
8
left_labelLayer
10
8.4491699
20
6.1816958
11
8.4491699
21
5.9927309
0
ARC
8
left_labelLayer
10
8.5010659
20
6.0923984
40
0.1597264
50
269.8803717
51
278.3023434
0
ARC
8
left_labelLayer
10
8.5030967
20
6.0766438
40
0.1438439
50
278.40805
51
279.0144792
0
ARC
8
left_labelLayer
10
8.4847121
20
6.1941928
40
0.2628216
50
278.9576966
51
280.5106897
0
ARC
8
left_labelLayer
10
8.5017387
20
6.1028482
40
0.1699038
50
280.4843931
51
282.6259817
0
ARC
8
left_labelLayer
10
8.5167704
20
6.0360708
40
0.1014554
50
282.5855427
51
285.5833049
0
ARC
8
left_labelLayer
10
8.5248291
20
6.0065476
40
0.0708528
50
285.7197002
51
286.2685001
0
ARC
8
left_labelLayer
10
8.5242275
20
5.94458
40
0.047846
50
287.9893772
51
295.3037649
0
ARC
8
left_labelLayer
10
8.512691
20
5.979487
40
0.0846096
50
283.3070929
51
288.119329
0
ARC
8
left_labelLayer
10
8.5004921
20
6.0303784
40
0.1369426
50
280.0080812
51
283.3730597
0
ARC
8
left_labelLayer
10
8.4924845
20
6.0737963
40
0.1810917
50
279.1836686
51
280.1157324
0
ARC
8
left_labelLayer
10
8.4873425
20
6.1030413
40
0.2107829
50
275.5267352
51
279.2947235
0
ARC
8
left_labelLayer
10
8.4929844
20
6.0441535
40
0.1516253
50
270.8935591
51
275.5478601
0
ARC
8
left_labelLayer
10
8.4936788
20
6.019298
40
0.1267624
50
270.0101164
51
270.7549248
0
ARC
8
left_labelLayer
10
8.491738
20
6.0195374
40
0.127017
50
253.7844798
51
270.8855882
0
ARC
8
left_labelLayer
10
8.47669
20
5.9682205
40
0.0735395
50
190.38186
51
253.8772501
0
ARC
8
left_labelLayer
10
8.5534001
20
5.9889603
40
0.1528727
50
179.355399
51
192.8474317
0
ARC
8
left_labelLayer
10
8.547094
20
5.9921184
40
0.0979259
50
179.6416185
51
189.7510054
0
ARC
8
left_labelLayer
10
8.512524
20
5.9859512
40
0.0628113
50
189.5475511
51
205.7877947
0
ARC
8
left_labelLayer
10
8.49832
20
5.9794011
40
0.0471732
50
206.1297026
51
221.4085263
0
ARC
8
left_labelLayer
10
8.4967262
20
5.9781913
40
0.0451779
50
221.5947284
51
262.3510612
0
ARC
8
left_labelLayer
10
8.5005167
20
5.9976939
40
0.0650219
50
261.3279928
51
270.1900884
0
LINE
8
back_outsideCutPath
10
0
20
24.25
11
0
21
22.697125
0
LINE
8
back_outsideCutPath
10
0
20
22.697125
11
0.118
21
22.697125
0
LINE
8
back_outsideCutPath
10
0.118
20
22.697125
11
0.118
21
21.708875
0
LINE
8
back_outsideCutPath
10
0.118
20
21.708875
11
0
21
21.708875
0
LINE
8
back_outsideCutPath
10
0
20
21.708875
11
0
21
20.720625
0
LINE
8
back_outsideCutPath
10
0
20
20.720625
11
0.118
21
20.720625
0
LINE
8
back_outsideCutPath
10
0.118
20
20.720625
11
0.118
21
19.732375
0
LINE
8
back_outsideCutPath
10
0.118
20
19.732375
11
0
21
19.732375
0
LINE
8
back_outsideCutPath
10
0
20
19.732375
11
0
21
18.744125
0
LINE
8
back_outsideCutPath
10
0
20
18.744125
11
0.118
21
18.744125
0
LINE
8
back_outsideCutPath
10
0.118
20
18.744125
11
0.118
21
17.755875
0
LINE
8
back_outsideCutPath
10
0.118
20
17.755875
11
0
21
17.755875
0
LINE
8
back_outsideCutPath
10
0
20
17.755875
11
0
21
16.767625
0
LINE
8
back_outsideCutPath
10
0
20
16.767625
11
0.118
21
16.767625
0
LINE
8
back_outsideCutPath
10
0.118
20
16.767625
11
0.118
21
15.779375
0
LINE
8
back_outsideCutPath
10
0.118
20
15.779375
11
0
21
15.779375
0
LINE
8
back_outsideCutPath
10
0
20
15.779375
11
0
21
14.791125
0
LINE
8
back_outsideCutPath
10
0
20
14.791125
11
0.118
21
14.791125
0
LINE
8
back_outsideCutPath
10
0.118
20
14.791125
11
0.118
21
13.802875
0
LINE
8
back_outsideCutPath
10
0.118
20
13.802875
11
0
21
13.802875
0
LINE
8
back_outsideCutPath
10
0
20
13.802875
11
0
21
12.814625
0
LINE
8
back_outsideCutPath
10
0
20
12.814625
11
0
21
12.25
0
LINE
8
back_outsideCutPath
10
0
20
12.25
11
0.779375
21
12.25
0
LINE
8
back_outsideCutPath
10
0.779375
20
12.25
11
0.779375
21
12.368
0
LINE
8
back_outsideCutPath
10
0.779375
20
12.368
11
1.767625
21
12.368
0
LINE
8
back_outsideCutPath
10
1.767625
20
12.368
11
1.767625
21
12.25
0
LINE
8
back_outsideCutPath
10
1.767625
20
12.25
11
2.755875
21
12.25
0
LINE
8
back_outsideCutPath
10
2.755875
20
12.25
11
2.755875
21
12.368
0
LINE
8
back_outsideCutPath
10
2.755875
20
12.368
11
3.744125
21
12.368
0
LINE
8
back_outsideCutPath
10
3.744125
20
12.368
11
3.744125
21
12.25
0
LINE
8
back_outsideCutPath
10
3.744125
20
12.25
11
4.732375
21
12.25
0
LINE
8
back_outsideCutPath
10
4.732375
20
12.25
11
4.732375
21
12.368
0
LINE
8
back_outsideCutPath
10
4.732375
20
12.368
11
5.720625
21
12.368
0
LINE
8
back_outsideCutPath
10
5.720625
20
12.368
11
5.720625
21
12.25
0
LINE
8
back_outsideCutPath
10
5.720625
20
12.25
11
6.5
21
12.25
0
LINE
8
back_outsideCutPath
10
6.5
20
12.25
11
6.5
21
13.802875
0
LINE
8
back_outsideCutPath
10
6.5
20
13.802875
11
6.382
21
13.802875
0
LINE
8
back_outsideCutPath
10
6.382
20
13.802875
11
6.382
21
14.791125
0
LINE
8
back_outsideCutPath
10
6.382
20
14.791125
11
6.5
21
14.791125
0
LINE
8
back_outsideCutPath
10
6.5
20
14.791125
11
6.5
21
15.779375
0
LINE
8
back_outsideCutPath
10
6.5
20
15.779375
11
6.382
21
15.779375
0
LINE
8
back_outsideCutPath
10
6.382
20
15.779375
11
6.382
21
16.767625
0
LINE
8
back_outsideCutPath
10
6.382
20
16.767625
11
6.5
21
16.767625
0
LINE
8
back_outsideCutPath
10
6.5
20
16.767625
11
6.5
21
17.755875
0
LINE
8
back_outsideCutPath
10
6.5
20
17.755875
11
6.382
21
17.755875
0
LINE
8
back_outsideCutPath
10
6.382
20
17.755875
11
6.382
21
18.744125
0
LINE
8
back_outsideCutPath
10
6.382
20
18.744125
11
6.5
21
18.744125
0
LINE
8
back_outsideCutPath
10
6.5
20
18.744125
11
6.5
21
19.732375
0
LINE
8
back_outsideCutPath
10
6.5
20
19.732375
11
6.382
21
19.732375
0
LINE
8
back_outsideCutPath
10
6.382
20
19.732375
11
6.382
21
20.720625
0
LINE
8
back_outsideCutPath
10
6.382
20
20.720625
11
6.5
21
20.720625
0
LINE
8
back_outsideCutPath
10
6.5
20
20.720625
11
6.5
21
21.708875
0
LINE
8
back_outsideCutPath
10
6.5
20
21.708875
11
6.382
21
21.708875
0
LINE
8
back_outsideCutPath
10
6.382
20
21.708875
11
6.382
21
22.697125
0
LINE
8
back_outsideCutPath
10
6.382
20
22.697125
11
6.5
21
22.697125
0
LINE
8
back_outsideCutPath
10
6.5
20
22.697125
11
6.5
21
23.685375
0
LINE
8
back_outsideCutPath
10
6.5
20
23.685375
11
6.5
21
24.25
0
LINE
8
back_outsideCutPath
10
6.5
20
24.25
11
0
21
24.25
0
LINE
8
back_labelLayer
10
2.0077637
20
17.8520091
11
2.0001465
21
17.8520091
0
LINE
8
back_labelLayer
10
2.0001465
20
17.8520091
11
1.9779297
21
17.7625072
0
LINE
8
back_labelLayer
10
1.9779297
20
17.7625072
11
1.9023926
21
17.7625072
0
LINE
8
back_labelLayer
10
1.9023926
20
17.7625072
11
1.9023926
21
18.7502025
0
LINE
8
back_labelLayer
10
1.9023926
20
18.7502025
11
2.0077637
21
18.7502025
0
LINE
8
back_labelLayer
10
2.0077637
20
18.7502025
11
2.0077637
21
18.5102611
0
LINE
8
back_labelLayer
10
2.0026855
20
18.3655345
11
2.0077637
21
18.3655345
0
ARC
8
back_labelLayer
10
2.2292841
20
18.1475987
40
0.3220529
50
74.2394483
51
90.5623806
0
ARC
8
back_labelLayer
10
2.2505801
20
18.2257242
40
0.2410811
50
38.5630246
51
74.067172
0
ARC
8
back_labelLayer
10
2.195776
20
18.1831106
40
0.310499
50
16.4709711
51
38.4074697
0
ARC
8
back_labelLayer
10
2.0378967
20
18.1336052
40
0.4759435
50
5.1338925
51
16.797267
0
ARC
8
back_labelLayer
10
1.8385724
20
18.1124346
40
0.6763704
50
359.8779249
51
5.4091583
0
ARC
8
back_labelLayer
10
1.8971403
20
18.1073485
40
0.6178119
50
350.6562321
51
0.3380357
0
ARC
8
back_labelLayer
10
2.1125176
20
18.0707147
40
0.3993462
50
335.830585
51
350.8254821
0
ARC
8
back_labelLayer
10
2.2072579
20
18.0298234
40
0.2961723
50
321.3162304
51
335.5436222
0
ARC
8
back_labelLayer
10
2.2434795
20
18.0003089
40
0.2494505
50
274.0640866
51
321.4080776
0
ARC
8
back_labelLayer
10
2.2266081
20
18.1071738
40
0.3573622
50
269.9222362
51
275.5481446
0
ARC
8
back_labelLayer
10
2.2243468
20
18.0694277
40
0.3196208
50
255.7757373
51
270.3184064
0
ARC
8
back_labelLayer
10
2.2152249
20
18.0288967
40
0.2780932
50
245.9801858
51
255.5456197
0
ARC
8
back_labelLayer
10
2.1975588
20
17.9878138
40
0.2333775
50
215.5849764
51
245.8361756
0
ARC
8
back_labelLayer
10
-0.1888459
20
18.5083982
40
2.1966104
50
358.1122129
51
0.0485896
0
ARC
8
back_labelLayer
10
0.4224732
20
18.4878648
40
1.5849467
50
355.7237912
51
358.1260987
0
ARC
8
back_labelLayer
10
0.7540064
20
18.4645211
40
1.2525965
50
355.4674661
51
355.6578333
0
ARC
8
back_labelLayer
10
2.2042763
20
18.2285009
40
0.2395734
50
95.1835305
51
145.1108882
0
ARC
8
back_labelLayer
10
2.2253338
20
18.1097629
40
0.3598741
50
89.8743391
51
96.8146813
0
ARC
8
back_labelLayer
10
2.2086828
20
18.085302
40
0.2961098
50
89.5731651
51
100.7321485
0
ARC
8
back_labelLayer
10
2.1867641
20
18.1960538
40
0.1832158
50
100.447161
51
119.6699758
0
ARC
8
back_labelLayer
10
2.1664372
20
18.2340582
40
0.140137
50
120.1403296
51
142.4248036
0
ARC
8
back_labelLayer
10
2.2000639
20
18.2118127
40
0.1803762
50
143.3380558
51
161.2558849
0
ARC
8
back_labelLayer
10
2.3406953
20
18.1618844
40
0.3295995
50
160.8926576
51
171.2333129
0
ARC
8
back_labelLayer
10
2.5754769
20
18.1240106
40
0.567413
50
171.0669028
51
177.8454933
0
ARC
8
back_labelLayer
10
2.8198787
20
18.1115916
40
0.8121152
50
177.6181693
51
180.0421938
0
ARC
8
back_labelLayer
10
2.7045027
20
18.1082749
40
0.6967443
50
179.7764366
51
185.7073601
0
ARC
8
back_labelLayer
10
2.4297404
20
18.0799642
40
0.4205295
50
185.5921165
51
194.2054718
0
ARC
8
back_labelLayer
10
2.2538194
20
18.0343038
40
0.2387853
50
193.9431464
51
208.021753
0
ARC
8
back_labelLayer
10
2.1826142
20
17.9980791
40
0.1589157
50
208.5534369
51
217.5608441
0
ARC
8
back_labelLayer
10
2.1768221
20
17.9956721
40
0.1528657
50
218.1691206
51
253.8046
0
ARC
8
back_labelLayer
10
2.2051767
20
18.0830953
40
0.2447446
50
253.1383709
51
266.848028
0
ARC
8
back_labelLayer
10
2.2131259
20
18.1768453
40
0.3388012
50
266.3774832
51
270.0510417
0
ARC
8
back_labelLayer
10
2.2156761
20
18.0480832
40
0.2100509
50
269.3866996
51
285.8632944
0
ARC
8
back_labelLayer
10
2.2312811
20
17.9916873
40
0.1515379
50
286.0163285
51
326.8496254
0
ARC
8
back_labelLayer
10
2.1559603
20
18.0415842
40
0.2418855
50
326.7105043
51
343.6662535
0
ARC
8
back_labelLayer
10
2.0149762
20
18.0846662
40
0.3892992
50
343.4169455
51
353.6371282
0
ARC
8
back_labelLayer
10
1.8019954
20
18.1099406
40
0.603771
50
353.4933455
51
0.220389
0
ARC
8
back_labelLayer
10
1.7832535
20
18.1147846
40
0.6225133
50
359.767914
51
6.3096551
0
ARC
8
back_labelLayer
10
2.0177189
20
18.1416925
40
0.3865122
50
6.1648679
51
16.0395152
0
ARC
8
back_labelLayer
10
2.1687834
20
18.1862104
40
0.2290305
50
15.7778991
51
32.0150219
0
ARC
8
back_labelLayer
10
2.215748
20
18.2130919
40
0.1749703
50
32.7042926
51
35.5223716
0
ARC
8
back_labelLayer
10
2.233119
20
18.2254321
40
0.1536623
50
35.5407681
51
79.8011647
0
ARC
8
back_labelLayer
10
2.2124826
20
18.1377036
40
0.2437054
50
78.6780784
51
90.3747363
0
LINE
8
back_labelLayer
10
3.2049316
20
17.7625072
11
3.1268555
21
17.7625072
0
LINE
8
back_labelLayer
10
3.1268555
20
17.7625072
11
3.1059082
21
17.8615306
0
LINE
8
back_labelLayer
10
3.1059082
20
17.8615306
11
3.1008301
21
17.8615306
0
LINE
8
back_labelLayer
10
2.9840332
20
18.1757396
11
3.1020996
21
18.1795482
0
LINE
8
back_labelLayer
10
3.1020996
20
18.1795482
11
3.1020996
21
18.2227122
0
LINE
8
back_labelLayer
10
2.7574219
20
18.3293529
11
2.7250488
21
18.4099681
0
LINE
8
back_labelLayer
10
3.2049316
20
18.2373119
11
3.2049316
21
17.7625072
0
LINE
8
back_labelLayer
10
3.0995605
20
18.041804
11
3.0995605
21
18.1046458
0
LINE
8
back_labelLayer
10
3.0995605
20
18.1046458
11
2.9941895
21
18.1002025
0
ARC
8
back_labelLayer
10
2.7579839
20
18.1322265
40
0.4368292
50
314.7445228
51
321.706977
0
ARC
8
back_labelLayer
10
2.865326
20
18.0231564
40
0.2837994
50
304.8481778
51
314.853432
0
ARC
8
back_labelLayer
10
2.916862
20
17.9497973
40
0.1941484
50
294.3936553
51
304.7371238
0
ARC
8
back_labelLayer
10
2.8992536
20
17.9954261
40
0.2429923
50
281.297966
51
293.731449
0
ARC
8
back_labelLayer
10
2.8759691
20
18.1082835
40
0.3582251
50
272.9335404
51
281.4136318
0
ARC
8
back_labelLayer
10
2.8682525
20
18.2239426
40
0.474131
50
269.9539052
51
273.1495302
0
ARC
8
back_labelLayer
10
2.8655859
20
18.073175
40
0.3233712
50
258.6721802
51
270.4048997
0
ARC
8
back_labelLayer
10
2.8431257
20
17.9657257
40
0.2136052
50
238.3271657
51
258.9182087
0
ARC
8
back_labelLayer
10
2.8276436
20
17.9374834
40
0.1814479
50
227.76892
51
237.8052093
0
ARC
8
back_labelLayer
10
2.8228041
20
17.9307272
40
0.1731951
50
192.0826803
51
227.4521248
0
ARC
8
back_labelLayer
10
2.9120953
20
17.9527383
40
0.2651309
50
179.5455613
51
192.6948628
0
ARC
8
back_labelLayer
10
2.8291455
20
17.9623387
40
0.1823271
50
115.4905503
51
182.3567373
0
ARC
8
back_labelLayer
10
2.9204559
20
17.7948542
40
0.3729479
50
101.3567255
51
117.0797326
0
ARC
8
back_labelLayer
10
2.9937854
20
17.4521872
40
0.7233591
50
92.469503
51
101.7065712
0
ARC
8
back_labelLayer
10
3.0148524
20
17.1471854
40
1.0290158
50
91.7162722
51
92.9096911
0
ARC
8
back_labelLayer
10
2.7994451
20
18.2243308
40
0.3026588
50
359.6935901
51
8.0036186
0
ARC
8
back_labelLayer
10
2.913939
20
18.24101
40
0.1869589
50
7.8273798
51
20.6042192
0
ARC
8
back_labelLayer
10
2.9787247
20
18.2657941
40
0.1175962
50
20.4093294
51
41.4476314
0
ARC
8
back_labelLayer
10
2.9882978
20
18.2710554
40
0.1069646
50
42.7296289
51
71.0378972
0
ARC
8
back_labelLayer
10
2.9657605
20
18.2097708
40
0.1722525
50
70.572098
51
83.9926274
0
ARC
8
back_labelLayer
10
2.9549941
20
18.1223032
40
0.2603713
50
83.650831
51
90.1749069
0
ARC
8
back_labelLayer
10
2.9568854
20
18.0396109
40
0.3430728
50
90.4486098
51
103.7664068
0
ARC
8
back_labelLayer
10
2.9972181
20
17.8695183
40
0.5178787
50
103.6223874
51
112.4322145
0
ARC
8
back_labelLayer
10
3.0664044
20
17.6948303
40
0.7057543
50
112.2123557
51
115.9638952
0
ARC
8
back_labelLayer
10
2.9556394
20
17.9823408
40
0.4858366
50
106.3569609
51
118.334992
0
ARC
8
back_labelLayer
10
2.9763756
20
17.9182644
40
0.5531622
50
104.5165966
51
106.5487544
0
ARC
8
back_labelLayer
10
2.9611545
20
17.9816533
40
0.4879831
50
90.0713418
51
104.6520796
0
ARC
8
back_labelLayer
10
2.9630717
20
18.0246339
40
0.4450094
50
81.5677517
51
90.3250774
0
ARC
8
back_labelLayer
10
2.9888022
20
18.1922461
40
0.2754373
50
68.2272944
51
81.7494926
0
ARC
8
back_labelLayer
10
3.0246411
20
18.2814153
40
0.1793358
50
47.8682497
51
68.2934722
0
ARC
8
back_labelLayer
10
3.0304569
20
18.2930286
40
0.1668581
50
19.2330319
51
46.674021
0
ARC
8
back_labelLayer
10
2.9335611
20
18.256983
40
0.270228
50
6.3378206
51
19.6815203
0
ARC
8
back_labelLayer
10
2.7903182
20
18.2387381
40
0.414616
50
359.8029016
51
6.6585229
0
ARC
8
back_labelLayer
10
2.8909499
20
18.1268827
40
0.2901157
50
269.5790265
51
282.0412501
0
ARC
8
back_labelLayer
10
2.9121116
20
18.033017
40
0.1939038
50
281.7120159
51
306.4594952
0
ARC
8
back_labelLayer
10
2.9214974
20
18.0175828
40
0.1759203
50
306.988122
51
313.856123
0
ARC
8
back_labelLayer
10
2.9203787
20
18.0172668
40
0.1764706
50
314.1891206
51
347.4269778
0
ARC
8
back_labelLayer
10
2.8319814
20
18.0394192
40
0.2675808
50
346.917667
51
0.282461
0
ARC
8
back_labelLayer
10
2.7450202
20
18.0418034
40
0.3545402
50
359.8278784
51
0.0000988
0
ARC
8
back_labelLayer
10
3.0192593
20
17.3268547
40
0.773754
50
91.856727
51
96.4477501
0
ARC
8
back_labelLayer
10
2.9843711
20
17.6287887
40
0.4698127
50
96.3549066
51
102.9949942
0
ARC
8
back_labelLayer
10
2.9369993
20
17.8300667
40
0.2630388
50
102.7993834
51
113.2431467
0
ARC
8
back_labelLayer
10
2.8979528
20
17.9234506
40
0.1618277
50
113.5883737
51
121.6804629
0
ARC
8
back_labelLayer
10
2.8708282
20
17.9647605
40
0.1124366
50
120.9733658
51
172.418113
0
ARC
8
back_labelLayer
10
2.9238714
20
17.9541682
40
0.1664506
50
171.2128997
51
180.2053639
0
ARC
8
back_labelLayer
10
2.9079994
20
17.9523274
40
0.1505827
50
179.5265717
51
192.7791178
0
ARC
8
back_labelLayer
10
2.8570617
20
17.9399785
40
0.0981783
50
192.3263025
51
222.0582998
0
ARC
8
back_labelLayer
10
2.853277
20
17.9377158
40
0.0938566
50
222.580457
51
229.2543545
0
ARC
8
back_labelLayer
10
2.8660762
20
17.9541947
40
0.1147001
50
229.783327
51
254.2728821
0
ARC
8
back_labelLayer
10
2.8831299
20
18.011017
40
0.1740207
50
253.9392519
51
266.4536702
0
ARC
8
back_labelLayer
10
2.8885716
20
18.0737704
40
0.2369956
50
266.0790487
51
270.0596673
0
LINE
8
back_labelLayer
10
3.8860352
20
18.434724
11
3.8536621
21
18.345222
0
LINE
8
back_labelLayer
10
3.8758789
20
17.879304
11
3.8758789
21
17.7859935
0
ARC
8
back_labelLayer
10
3.6966887
20
18.1436132
40
0.3938156
50
256.4243219
51
270.4888698
0
ARC
8
back_labelLayer
10
3.6652188
20
18.0207894
40
0.2670425
50
221.7976429
51
256.8019944
0
ARC
8
back_labelLayer
10
3.6956946
20
18.0433065
40
0.3047904
50
196.0167639
51
221.1348686
0
ARC
8
back_labelLayer
10
3.8488463
20
18.0901184
40
0.4649212
50
183.5912703
51
196.3541055
0
ARC
8
back_labelLayer
10
4.0204891
20
18.1052381
40
0.6371888
50
179.9390962
51
183.9813962
0
ARC
8
back_labelLayer
10
3.9646848
20
18.1096586
40
0.5813961
50
169.8978343
51
180.3688891
0
ARC
8
back_labelLayer
10
3.7622894
20
18.1470983
40
0.3755739
50
153.0875154
51
170.1050525
0
ARC
8
back_labelLayer
10
3.6854946
20
18.1837925
40
0.2904944
50
138.6549823
51
152.6852808
0
ARC
8
back_labelLayer
10
3.6711608
20
18.1942383
40
0.2728379
50
101.4912463
51
138.3133892
0
ARC
8
back_labelLayer
10
3.7040656
20
18.0572954
40
0.4136209
50
89.5891908
51
102.1788505
0
ARC
8
back_labelLayer
10
3.7065949
20
17.9953875
40
0.4755183
50
77.7703504
51
89.9474249
0
ARC
8
back_labelLayer
10
3.6976044
20
17.9457875
40
0.5259
50
74.6793443
51
77.9577786
0
ARC
8
back_labelLayer
10
3.746224
20
18.1219082
40
0.3431922
50
70.0943641
51
74.7389383
0
ARC
8
back_labelLayer
10
3.7924569
20
18.2486086
40
0.2083208
50
63.502941
51
70.1858829
0
ARC
8
back_labelLayer
10
3.8148851
20
18.2955454
40
0.1563106
50
62.9232309
51
63.1845405
0
ARC
8
back_labelLayer
10
3.6805782
20
17.9096348
40
0.4687155
50
68.3292274
51
74.883498
0
ARC
8
back_labelLayer
10
3.6558411
20
17.8219419
40
0.559826
50
74.7798802
51
77.4496077
0
ARC
8
back_labelLayer
10
3.6817892
20
17.9437262
40
0.4353147
50
77.3001733
51
81.7342743
0
ARC
8
back_labelLayer
10
3.7007361
20
18.0757334
40
0.3019549
50
81.6910332
51
87.5079307
0
ARC
8
back_labelLayer
10
3.7043946
20
18.14418
40
0.233415
50
87.6745764
51
89.9760406
0
ARC
8
back_labelLayer
10
3.6992685
20
18.1439264
40
0.233727
50
88.7193723
51
112.5668909
0
ARC
8
back_labelLayer
10
3.6826603
20
18.1988352
40
0.176742
50
114.426492
51
161.6632611
0
ARC
8
back_labelLayer
10
3.8476486
20
18.1342575
40
0.3537936
50
160.1418846
51
175.136679
0
ARC
8
back_labelLayer
10
4.0747073
20
18.1087615
40
0.5822288
50
174.5310247
51
180.1551491
0
ARC
8
back_labelLayer
10
4.002792
20
18.1045498
40
0.5103183
50
179.7041423
51
188.0742158
0
ARC
8
back_labelLayer
10
3.8189867
20
18.0776596
40
0.3245591
50
187.9317209
51
200.3882859
0
ARC
8
back_labelLayer
10
3.7195961
20
18.0408428
40
0.2185688
50
200.4185367
51
216.6388993
0
ARC
8
back_labelLayer
10
3.6779241
20
18.011054
40
0.1673563
50
216.9695207
51
261.3103461
0
ARC
8
back_labelLayer
10
3.6963108
20
18.0967686
40
0.2549186
50
260.1357367
51
270.2694773
0
ARC
8
back_labelLayer
10
3.6954631
20
18.2829435
40
0.4410954
50
270.265856
51
286.2891814
0
ARC
8
back_labelLayer
10
3.6686602
20
18.3829133
40
0.544575
50
286.0458126
51
292.3655613
0
ARC
8
back_labelLayer
10
3.7400584
20
18.0531877
40
0.2997332
50
282.0345882
51
296.9452062
0
ARC
8
back_labelLayer
10
3.7092369
20
18.1920966
40
0.4420171
50
272.5979314
51
282.1877066
0
ARC
8
back_labelLayer
10
3.7004006
20
18.32751
40
0.5776983
50
269.9651106
51
272.8646597
0
LINE
8
back_labelLayer
10
4.1399414
20
18.1186107
11
4.1450195
21
18.1186107
0
LINE
8
back_labelLayer
10
4.2281738
20
18.2201732
11
4.4528809
21
18.4582103
0
LINE
8
back_labelLayer
10
4.4528809
20
18.4582103
11
4.5779297
21
18.4582103
0
LINE
8
back_labelLayer
10
4.5779297
20
18.4582103
11
4.2960938
21
18.1617747
0
LINE
8
back_labelLayer
10
4.2960938
20
18.1617747
11
4.5976074
21
17.7625072
0
LINE
8
back_labelLayer
10
4.5976074
20
17.7625072
11
4.4700195
21
17.7625072
0
LINE
8
back_labelLayer
10
4.4700195
20
17.7625072
11
4.2243652
21
18.0913158
0
LINE
8
back_labelLayer
10
4.2243652
20
18.0913158
11
4.1450195
21
18.0227611
0
LINE
8
back_labelLayer
10
4.1450195
20
18.0227611
11
4.1450195
21
17.7625072
0
LINE
8
back_labelLayer
10
4.1450195
20
17.7625072
11
4.040918
21
17.7625072
0
LINE
8
back_labelLayer
10
4.040918
20
17.7625072
11
4.040918
21
18.7502025
0
LINE
8
back_labelLayer
10
4.040918
20
18.7502025
11
4.1450195
21
18.7502025
0
LINE
8
back_labelLayer
10
4.1450195
20
18.7502025
11
4.1450195
21
18.2265208
0
ARC
8
back_labelLayer
10
4.6542296
20
17.7581693
40
0.6238693
50
142.3236327
51
144.7074565
0
ARC
8
back_labelLayer
10
4.9862193
20
17.5020959
40
1.0431433
50
140.4328883
51
142.33662
0
ARC
8
back_labelLayer
10
5.4195584
20
17.1453778
40
1.6044186
50
139.2800012
51
140.4701173
0
ARC
8
back_labelLayer
10
5.9185189
20
16.7163164
40
2.2624879
50
138.341328
51
139.2879747
0
ARC
8
back_labelLayer
10
3.4423715
20
18.227843
40
0.7026493
50
358.274418
51
359.8921904
0
ARC
8
back_labelLayer
10
2.8990875
20
18.2429665
40
1.246143
50
357.5033283
51
358.3315671
0
ARC
8
back_labelLayer
10
2.0774666
20
18.279246
40
2.0685643
50
356.6328627
51
357.4907493
0
ARC
8
back_labelLayer
10
0.7220974
20
18.3583044
40
3.4262372
50
356.0325623
51
356.6443021
0
ARC
8
back_labelLayer
10
-0.7443783
20
18.4581648
40
4.8961083
50
356.0232404
51
356.0541384
0
LINE
8
right_outsideCutPath
10
6.743
20
24.25
11
6.743
21
22.697125
0
LINE
8
right_outsideCutPath
10
6.743
20
22.697125
11
6.625
21
22.697125
0
LINE
8
right_outsideCutPath
10
6.625
20
22.697125
11
6.625
21
21.708875
0
LINE
8
right_outsideCutPath
10
6.625
20
21.708875
11
6.743
21
21.708875
0
LINE
8
right_outsideCutPath
10
6.743
20
21.708875
11
6.743
21
20.720625
0
LINE
8
right_outsideCutPath
10
6.743
20
20.720625
11
6.625
21
20.720625
0
LINE
8
right_outsideCutPath
10
6.625
20
20.720625
11
6.625
21
19.732375
0
LINE
8
right_outsideCutPath
10
6.625
20
19.732375
11
6.743
21
19.732375
0
LINE
8
right_outsideCutPath
10
6.743
20
19.732375
11
6.743
21
18.744125
0
LINE
8
right_outsideCutPath
10
6.743
20
18.744125
11
6.625
21
18.744125
0
LINE
8
right_outsideCutPath
10
6.625
20
18.744125
11
6.625
21
17.755875
0
LINE
8
right_outsideCutPath
10
6.625
20
17.755875
11
6.743
21
17.755875
0
LINE
8
right_outsideCutPath
10
6.743
20
17.755875
11
6.743
21
16.767625
0
LINE
8
right_outsideCutPath
10
6.743
20
16.767625
11
6.625
21
16.767625
0
LINE
8
right_outsideCutPath
10
6.625
20
16.767625
11
6.625
21
15.779375
0
LINE
8
right_outsideCutPath
10
6.625
20
15.779375
11
6.743
21
15.779375
0
LINE
8
right_outsideCutPath
10
6.743
20
15.779375
11
6.743
21
14.791125
0
LINE
8
right_outsideCutPath
10
6.743
20
14.791125
11
6.625
21
14.791125
0
LINE
8
right_outsideCutPath
10
6.625
20
14.791125
11
6.625
21
13.802875
0
LINE
8
right_outsideCutPath
10
6.625
20
13.802875
11
6.743
21
13.802875
0
LINE
8
right_outsideCutPath
10
6.743
20
13.802875
11
6.743
21
12.814625
0
LINE
8
right_outsideCutPath
10
6.743
20
12.814625
11
6.743
21
12.25
0
LINE
8
right_outsideCutPath
10
6.743
20
12.25
11
7.630875
21
12.25
0
LINE
8
right_outsideCutPath
10
7.630875
20
12.25
11
7.630875
21
12.368
0
LINE
8
right_outsideCutPath
10
7.630875
20
12.368
11
8.619125
21
12.368
0
LINE
8
right_outsideCutPath
10
8.619125
20
12.368
11
8.619125
21
12.25
0
LINE
8
right_outsideCutPath
10
8.619125
20
12.25
11
9.507
21
12.25
0
LINE
8
right_outsideCutPath
10
9.507
20
12.25
11
9.507
21
13.802875
0
LINE
8
right_outsideCutPath
10
9.507
20
13.802875
11
9.625
21
13.802875
0
LINE
8
right_outsideCutPath
10
9.625
20
13.802875
11
9.625
21
14.791125
0
LINE
8
right_outsideCutPath
10
9.625
20
14.791125
11
9.507
21
14.791125
0
LINE
8
right_outsideCutPath
10
9.507
20
14.791125
11
9.507
21
15.779375
0
LINE
8
right_outsideCutPath
10
9.507
20
15.779375
11
9.625
21
15.779375
0
LINE
8
right_outsideCutPath
10
9.625
20
15.779375
11
9.625
21
16.767625
0
LINE
8
right_outsideCutPath
10
9.625
20
16.767625
11
9.507
21
16.767625
0
LINE
8
right_outsideCutPath
10
9.507
20
16.767625
11
9.507
21
17.755875
0
LINE
8
right_outsideCutPath
10
9.507
20
17.755875
11
9.625
21
17.755875
0
LINE
8
right_outsideCutPath
10
9.625
20
17.755875
11
9.625
21
18.744125
0
LINE
8
right_outsideCutPath
10
9.625
20
18.744125
11
9.507
21
18.744125
0
LINE
8
right_outsideCutPath
10
9.507
20
18.744125
11
9.507
21
19.732375
0
LINE
8
right_outsideCutPath
10
9.507
20
19.732375
11
9.625
21
19.732375
0
LINE
8
right_outsideCutPath
10
9.625
20
19.732375
11
9.625
21
20.720625
0
LINE
8
right_outsideCutPath
10
9.625
20
20.720625
11
9.507
21
20.720625
0
LINE
8
right_outsideCutPath
10
9.507
20
20.720625
11
9.507
21
21.708875
0
LINE
8
right_outsideCutPath
10
9.507
20
21.708875
11
9.625
21
21.708875
0
LINE
8
right_outsideCutPath
10
9.625
20
21.708875
11
9.625
21
22.697125
0
LINE
8
right_outsideCutPath
10
9.625
20
22.697125
11
9.507
21
22.697125
0
LINE
8
right_outsideCutPath
10
9.507
20
22.697125
11
9.507
21
23.685375
0
LINE
8
right_outsideCutPath
10
9.507
20
23.685375
11
9.507
21
24.25
0
LINE
8
right_outsideCutPath
10
9.507
20
24.25
11
6.743
21
24.25
0
LINE
8
right_labelLayer
10
7.689209
20
18.4175799
11
7.6824707
21
18.3724627
0
LINE
8
right_labelLayer
10
7.5529785
20
18.266408
11
7.5529785
21
18.0941424
0
LINE
8
right_labelLayer
10
7.5529785
20
18.0941424
11
7.5043457
21
18.0941424
0
LINE
8
right_labelLayer
10
7.5043457
20
18.0941424
11
7.5043457
21
18.4152362
0
LINE
8
right_labelLayer
10
7.5043457
20
18.4152362
11
7.5444824
21
18.4152362
0
LINE
8
right_labelLayer
10
7.5444824
20
18.4152362
11
7.5500488
21
18.3557635
0
LINE
8
right_labelLayer
10
7.5500488
20
18.3557635
11
7.5523926
21
18.3557635
0
ARC
8
right_labelLayer
10
7.6513272
20
18.1978209
40
0.2232751
50
84.9919826
51
90.1275723
0
ARC
8
right_labelLayer
10
7.6566866
20
18.2578739
40
0.1629838
50
78.4897289
51
85.0259445
0
ARC
8
right_labelLayer
10
7.6358736
20
18.1632245
40
0.214364
50
77.4451625
51
81.6353059
0
ARC
8
right_labelLayer
10
7.6452202
20
18.227626
40
0.1492878
50
81.5886856
51
87.1921934
0
ARC
8
right_labelLayer
10
7.6472513
20
18.2630352
40
0.1138222
50
87.3402493
51
89.9682231
0
ARC
8
right_labelLayer
10
7.6467753
20
18.2925929
40
0.0842661
50
89.6334171
51
137.0880899
0
ARC
8
right_labelLayer
10
7.6674414
20
18.2693467
40
0.1152674
50
135.6193018
51
138.8366037
0
ARC
8
right_labelLayer
10
7.6644258
20
18.2722946
40
0.111057
50
138.9575277
51
174.5421034
0
ARC
8
right_labelLayer
10
7.7005761
20
18.2666373
40
0.1475977
50
173.6906831
51
180.0889985
0
ARC
8
right_labelLayer
10
7.6954924
20
18.2751407
40
0.1642486
50
139.414575
51
150.6029788
0
ARC
8
right_labelLayer
10
7.6660309
20
18.3003852
40
0.1254507
50
124.232172
51
139.4166493
0
ARC
8
right_labelLayer
10
7.6502878
20
18.3241501
40
0.096947
50
89.6794926
51
124.4407902
0
LINE
8
right_labelLayer
10
7.7979004
20
18.4152362
11
7.7979004
21
18.0941424
0
LINE
8
right_labelLayer
10
7.7979004
20
18.0941424
11
7.7492676
21
18.0941424
0
LINE
8
right_labelLayer
10
7.7492676
20
18.0941424
11
7.7492676
21
18.4152362
0
LINE
8
right_labelLayer
10
7.7492676
20
18.4152362
11
7.7979004
21
18.4152362
0
ARC
8
right_labelLayer
10
7.7990739
20
18.5025801
40
0.053909
50
170.8469844
51
180.3531007
0
ARC
8
right_labelLayer
10
7.7788868
20
18.5059531
40
0.0334425
50
155.9693326
51
171.0505452
0
ARC
8
right_labelLayer
10
7.7691098
20
18.5102896
40
0.0227469
50
133.7879627
51
155.9171097
0
ARC
8
right_labelLayer
10
7.772718
20
18.5063003
40
0.0281241
50
92.6455308
51
133.4705363
0
ARC
8
right_labelLayer
10
7.773857
20
18.4973131
40
0.0371613
50
89.9692303
51
93.7602927
0
ARC
8
right_labelLayer
10
7.7743207
20
18.5058234
40
0.0286545
50
46.3713121
51
90.8872607
0
ARC
8
right_labelLayer
10
7.7771729
20
18.5087685
40
0.0245548
50
17.7244995
51
46.4470666
0
ARC
8
right_labelLayer
10
7.7638726
20
18.5041887
40
0.0386194
50
4.9425513
51
18.1892706
0
ARC
8
right_labelLayer
10
7.7470104
20
18.5023617
40
0.0555777
50
359.882641
51
5.3212558
0
ARC
8
right_labelLayer
10
7.752276
20
18.5019062
40
0.050313
50
349.8335225
51
0.3891438
0
ARC
8
right_labelLayer
10
7.7705887
20
18.4984891
40
0.0316851
50
332.6326499
51
350.0704301
0
ARC
8
right_labelLayer
10
7.77772
20
18.4949675
40
0.0237335
50
313.6158608
51
332.2687577
0
ARC
8
right_labelLayer
10
7.7742833
20
18.4980978
40
0.0283723
50
269.1794676
51
314.2799418
0
ARC
8
right_labelLayer
10
7.7735552
20
18.5006238
40
0.0308971
50
250.5019874
51
270.5967573
0
ARC
8
right_labelLayer
10
7.7726218
20
18.4971265
40
0.0272903
50
225.1318585
51
249.8983836
0
ARC
8
right_labelLayer
10
7.7711568
20
18.4955068
40
0.0251091
50
197.7940258
51
224.8937693
0
ARC
8
right_labelLayer
10
7.7848575
20
18.5002014
40
0.03959
50
184.9928729
51
198.2037834
0
ARC
8
right_labelLayer
10
7.8026204
20
18.5021303
40
0.0574546
50
179.882701
51
185.3674123
0
LINE
8
right_labelLayer
10
8.0527832
20
18.4152362
11
8.1638184
21
18.4152362
0
LINE
8
right_labelLayer
10
8.1638184
20
18.4152362
11
8.1638184
21
18.3844744
0
LINE
8
right_labelLayer
10
8.1638184
20
18.3844744
11
8.1043457
21
18.3774432
0
LINE
8
right_labelLayer
10
7.9947754
20
18.145119
11
8.0516113
21
18.145119
0
LINE
8
right_labelLayer
10
8.036084
20
18.1014666
11
7.9777832
21
18.1014666
0
ARC
8
right_labelLayer
10
8.0423819
20
18.3284036
40
0.0790215
50
29.4582082
51
38.3589271
0
ARC
8
right_labelLayer
10
8.0101103
20
18.3099787
40
0.116182
50
23.183136
51
29.5430137
0
ARC
8
right_labelLayer
10
7.9792459
20
18.2962913
40
0.1499431
50
21.250036
51
23.3481106
0
ARC
8
right_labelLayer
10
8.0316331
20
18.3171256
40
0.0935679
50
6.8504727
51
20.986395
0
ARC
8
right_labelLayer
10
8.0052928
20
18.3135535
40
0.120147
50
359.8710317
51
7.0434984
0
ARC
8
right_labelLayer
10
8.0139559
20
18.3121238
40
0.1114896
50
342.5651743
51
0.5957729
0
ARC
8
right_labelLayer
10
8.0345183
20
18.3064463
40
0.0901737
50
310.6098701
51
342.092231
0
ARC
8
right_labelLayer
10
8.0229876
20
18.3198588
40
0.1078613
50
284.931914
51
310.6222981
0
ARC
8
right_labelLayer
10
8.008561
20
18.3704091
40
0.1604245
50
272.5331689
51
285.2583934
0
ARC
8
right_labelLayer
10
8.0048537
20
18.4210437
40
0.2111785
50
269.9681614
51
272.9308619
0
ARC
8
right_labelLayer
10
8.0043911
20
18.366187
40
0.1563223
50
263.4840991
51
270.1265355
0
ARC
8
right_labelLayer
10
8.0018543
20
18.3420502
40
0.1320537
50
259.4972784
51
263.3892667
0
ARC
8
right_labelLayer
10
8.0176099
20
18.1353582
40
0.0865574
50
117.3947615
51
128.4085804
0
ARC
8
right_labelLayer
10
7.9953166
20
18.1630158
40
0.0510357
50
128.0871786
51
147.1414954
0
ARC
8
right_labelLayer
10
7.9833195
20
18.1710655
40
0.0365914
50
147.5370972
51
180.258813
0
ARC
8
right_labelLayer
10
7.9719349
20
18.1705888
40
0.0252083
50
179.2921993
51
198.3564967
0
ARC
8
right_labelLayer
10
7.9672141
20
18.1693494
40
0.0203397
50
199.2306881
51
239.5678897
0
ARC
8
right_labelLayer
10
7.9714271
20
18.1752576
40
0.0275754
50
238.2381071
51
239.8293305
0
ARC
8
right_labelLayer
10
7.9742479
20
18.1811772
40
0.034115
50
240.7303239
51
254.5026479
0
ARC
8
right_labelLayer
10
7.9835525
20
18.2132326
40
0.0674922
50
254.1619746
51
262.2141661
0
ARC
8
right_labelLayer
10
7.9909315
20
18.2647443
40
0.1195292
50
262.0547039
51
267.208767
0
ARC
8
right_labelLayer
10
7.9945003
20
18.3301389
40
0.1850203
50
267.091076
51
270.0851972
0
ARC
8
right_labelLayer
10
8.0526757
20
17.9460663
40
0.1990555
50
81.5739671
51
90.3063556
0
ARC
8
right_labelLayer
10
8.063594
20
18.0172622
40
0.1270288
50
68.367258
51
81.7399254
0
ARC
8
right_labelLayer
10
8.0778559
20
18.0537122
40
0.0878886
50
52.1877618
51
68.2498451
0
ARC
8
right_labelLayer
10
8.087837
20
18.0671596
40
0.0711465
50
8.619781
51
51.89865
0
ARC
8
right_labelLayer
10
8.0528532
20
18.0597584
40
0.1068646
50
359.7430631
51
9.7320674
0
ARC
8
right_labelLayer
10
8.054422
20
18.0579562
40
0.1053031
50
340.5272842
51
0.719831
0
ARC
8
right_labelLayer
10
8.0698964
20
18.0541036
40
0.0894426
50
302.9905817
51
339.5495128
0
ARC
8
right_labelLayer
10
8.0548346
20
18.0729756
40
0.1134971
50
303.1770106
51
304.1807319
0
ARC
8
right_labelLayer
10
8.0385242
20
18.100939
40
0.1458369
50
286.253687
51
302.5284221
0
ARC
8
right_labelLayer
10
8.0109756
20
18.1918079
40
0.2407868
50
276.4939409
51
286.4950214
0
ARC
8
right_labelLayer
10
7.9937918
20
18.3354332
40
0.385435
50
269.7542542
51
276.6172841
0
ARC
8
right_labelLayer
10
7.9908551
20
18.222476
40
0.2724773
50
262.5635061
51
270.2699123
0
ARC
8
right_labelLayer
10
7.9775078
20
18.1235522
40
0.1726585
50
251.2100079
51
262.7067332
0
ARC
8
right_labelLayer
10
7.9582771
20
18.0671072
40
0.1130275
50
235.9673332
51
251.2226022
0
ARC
8
right_labelLayer
10
7.9378877
20
18.0380171
40
0.0775111
50
208.9037512
51
236.4229175
0
ARC
8
right_labelLayer
10
7.9397616
20
18.0372328
40
0.0787887
50
182.2085681
51
207.7457122
0
ARC
8
right_labelLayer
10
7.9636248
20
18.0396153
40
0.1027363
50
179.9805477
51
183.0234735
0
ARC
8
right_labelLayer
10
7.9352389
20
18.0409547
40
0.0743616
50
138.3913573
51
181.005127
0
ARC
8
right_labelLayer
10
7.9430938
20
18.0338949
40
0.0849229
50
113.8125671
51
138.3491036
0
ARC
8
right_labelLayer
10
7.9579884
20
18.0017286
40
0.1203663
50
102.2871714
51
114.1170556
0
ARC
8
right_labelLayer
10
7.953308
20
18.1652677
40
0.0504761
50
216.5866018
51
245.4963848
0
ARC
8
right_labelLayer
10
7.9609272
20
18.1716886
40
0.0604241
50
215.4735228
51
217.1692247
0
ARC
8
right_labelLayer
10
7.9484992
20
18.1627042
40
0.0450892
50
182.1773786
51
215.3407253
0
ARC
8
right_labelLayer
10
7.9593518
20
18.1638569
40
0.0559826
50
179.9876157
51
182.9343065
0
ARC
8
right_labelLayer
10
7.9589861
20
18.1643384
40
0.0556189
50
161.7234019
51
180.483611
0
ARC
8
right_labelLayer
10
7.9528678
20
18.1660072
40
0.0492871
50
144.4966304
51
161.3349712
0
ARC
8
right_labelLayer
10
7.9691667
20
18.1538595
40
0.0696117
50
132.7258992
51
144.1479512
0
ARC
8
right_labelLayer
10
7.995303
20
18.1259473
40
0.1078499
50
125.2220198
51
132.8649347
0
ARC
8
right_labelLayer
10
8.021547
20
18.0895022
40
0.1527594
50
121.2348731
51
125.379475
0
ARC
8
right_labelLayer
10
7.9749962
20
18.2988733
40
0.0852588
50
215.1643573
51
247.4744686
0
ARC
8
right_labelLayer
10
7.9908395
20
18.3116702
40
0.1055893
50
212.4710246
51
215.8898927
0
ARC
8
right_labelLayer
10
7.986724
20
18.3087217
40
0.1005344
50
183.0160645
51
212.3125413
0
ARC
8
right_labelLayer
10
8.0088353
20
18.3111807
40
0.1227512
50
179.9759302
51
183.6192272
0
ARC
8
right_labelLayer
10
8.0265886
20
18.3124182
40
0.1405097
50
166.8193718
51
180.4836017
0
ARC
8
right_labelLayer
10
7.9799755
20
18.3241874
40
0.0924448
50
132.3288584
51
167.3340069
0
ARC
8
right_labelLayer
10
7.9862111
20
18.3152246
40
0.1032797
50
106.2189425
51
131.5379992
0
ARC
8
right_labelLayer
10
8.0019876
20
18.2641456
40
0.1567347
50
93.63246
51
106.5413
0
ARC
8
right_labelLayer
10
8.0071435
20
18.2062583
40
0.2148375
50
89.9387792
51
94.0266442
0
ARC
8
right_labelLayer
10
8.0079762
20
18.2347035
40
0.186393
50
82.5848751
51
90.185397
0
ARC
8
right_labelLayer
10
8.013674
20
18.2787663
40
0.1419634
50
74.0088883
51
82.5701661
0
ARC
8
right_labelLayer
10
7.9566031
20
18.0395719
40
0.0488439
50
179.2208047
51
200.9354485
0
ARC
8
right_labelLayer
10
7.9507949
20
18.0382276
40
0.0429466
50
202.0291478
51
236.1455463
0
ARC
8
right_labelLayer
10
7.9595191
20
18.0492994
40
0.0570117
50
235.06301
51
238.5068053
0
ARC
8
right_labelLayer
10
7.9697248
20
18.0675172
40
0.0778818
50
239.1060637
51
254.4862151
0
ARC
8
right_labelLayer
10
7.9832896
20
18.1142819
40
0.126572
50
254.2316026
51
263.4946492
0
ARC
8
right_labelLayer
10
7.9918169
20
18.1865069
40
0.1992982
50
263.4113873
51
270.1459253
0
LINE
8
right_labelLayer
10
7.9923245
20
17.9872091
11
7.9927246
21
17.9872088
0
ARC
8
right_labelLayer
10
7.993892
20
18.3141412
40
0.3269345
50
269.795406
51
275.398779
0
ARC
8
right_labelLayer
10
8.0061266
20
18.1885224
40
0.2007219
50
275.2956759
51
283.3517114
0
ARC
8
right_labelLayer
10
8.0260588
20
18.1064223
40
0.1162389
50
283.1376771
51
295.857176
0
ARC
8
right_labelLayer
10
8.0408196
20
18.0741932
40
0.0808026
50
296.4053422
51
301.7995566
0
ARC
8
right_labelLayer
10
8.0466237
20
18.0661864
40
0.0709427
50
301.2231451
51
318.6235883
0
ARC
8
right_labelLayer
10
8.0596871
20
18.0541191
40
0.0531653
50
319.0763369
51
1.1407295
0
ARC
8
right_labelLayer
10
8.0470458
20
18.0556988
40
0.0657981
50
359.5461578
51
10.9906678
0
ARC
8
right_labelLayer
10
8.0724584
20
18.0608674
40
0.0398668
50
10.6616522
51
30.9356335
0
ARC
8
right_labelLayer
10
8.0805199
20
18.0653407
40
0.0306541
50
31.5097955
51
58.0784694
0
ARC
8
right_labelLayer
10
8.0729654
20
18.0518143
40
0.0461355
50
58.997797
51
73.8582388
0
ARC
8
right_labelLayer
10
8.0577079
20
18.0018752
40
0.0983507
50
73.4083392
51
81.5919503
0
ARC
8
right_labelLayer
10
8.0447747
20
17.9182194
40
0.1829993
50
81.4160251
51
86.5768101
0
ARC
8
right_labelLayer
10
8.0368397
20
17.7919865
40
0.309481
50
86.5058296
51
90.1399053
0
ARC
8
right_labelLayer
10
7.9770876
20
17.9896701
40
0.1117987
50
89.643518
51
100.020358
0
ARC
8
right_labelLayer
10
7.9701107
20
18.0277206
40
0.073115
50
99.8245919
51
116.5869691
0
ARC
8
right_labelLayer
10
7.9632581
20
18.0422762
40
0.0570328
50
116.9752581
51
130.4968019
0
ARC
8
right_labelLayer
10
7.9597035
20
18.046849
40
0.0512477
50
130.7947637
51
169.0409583
0
ARC
8
right_labelLayer
10
7.9855791
20
18.0407558
40
0.077817
50
168.2582954
51
180.3826019
0
ARC
8
right_labelLayer
10
8.0290507
20
18.3116772
40
0.0949226
50
179.5612149
51
191.6533059
0
ARC
8
right_labelLayer
10
7.9960527
20
18.3045473
40
0.0611655
50
191.35569
51
213.3659357
0
ARC
8
right_labelLayer
10
7.9881275
20
18.2999722
40
0.0520331
50
213.9580988
51
227.7971213
0
ARC
8
right_labelLayer
10
7.9950207
20
18.3083326
40
0.0628589
50
228.2618711
51
254.7347212
0
ARC
8
right_labelLayer
10
8.0038306
20
18.3385268
40
0.0943091
50
254.4010273
51
267.4355127
0
ARC
8
right_labelLayer
10
8.0061269
20
18.3692339
40
0.1250915
50
267.014105
51
270.0340357
0
ARC
8
right_labelLayer
10
8.0076322
20
18.3500845
40
0.1059518
50
269.2261048
51
284.3773354
0
ARC
8
right_labelLayer
10
8.0220735
20
18.2997702
40
0.0536483
50
282.7797851
51
346.4829176
0
ARC
8
right_labelLayer
10
7.9788923
20
18.3120003
40
0.0985086
50
345.4369175
51
0.7461287
0
ARC
8
right_labelLayer
10
7.9728368
20
18.314779
40
0.1045664
50
359.180278
51
15.0437065
0
ARC
8
right_labelLayer
10
8.0202144
20
18.3286007
40
0.0552351
50
13.9535637
51
77.6672349
0
ARC
8
right_labelLayer
10
8.0066205
20
18.2798832
40
0.1057709
50
76.1098248
51
90.7032517
0
ARC
8
right_labelLayer
10
8.0045848
20
18.2836033
40
0.1020457
50
89.5859551
51
101.3333943
0
ARC
8
right_labelLayer
10
7.9972922
20
18.3183859
40
0.066509
50
101.061967
51
121.9739024
0
ARC
8
right_labelLayer
10
7.992171
20
18.3276006
40
0.055983
50
122.5217283
51
134.9959563
0
ARC
8
right_labelLayer
10
7.9942778
20
18.3263406
40
0.0583666
50
135.5839204
51
163.0012475
0
ARC
8
right_labelLayer
10
8.0250997
20
18.3162391
40
0.0907973
50
162.5914506
51
175.7344869
0
ARC
8
right_labelLayer
10
8.0620915
20
18.3125948
40
0.1279609
50
175.339198
51
180.0853596
0
LINE
8
right_labelLayer
10
8.4980957
20
18.0941424
11
8.4494629
21
18.0941424
0
LINE
8
right_labelLayer
10
8.4494629
20
18.0941424
11
8.4494629
21
18.3018573
0
LINE
8
right_labelLayer
10
8.2783691
20
18.2620135
11
8.2783691
21
18.0941424
0
LINE
8
right_labelLayer
10
8.2783691
20
18.0941424
11
8.2297363
21
18.0941424
0
LINE
8
right_labelLayer
10
8.2297363
20
18.0941424
11
8.2297363
21
18.5500018
0
LINE
8
right_labelLayer
10
8.2297363
20
18.5500018
11
8.2783691
21
18.5500018
0
LINE
8
right_labelLayer
10
8.2783691
20
18.5500018
11
8.2783691
21
18.4120135
0
LINE
8
right_labelLayer
10
8.2760254
20
18.3707049
11
8.2789551
21
18.3707049
0
LINE
8
right_labelLayer
10
8.4980957
20
18.3036151
11
8.4980957
21
18.0941424
0
ARC
8
right_labelLayer
10
8.3119714
20
18.3026445
40
0.1374937
50
359.6719259
51
8.6868624
0
ARC
8
right_labelLayer
10
8.3629399
20
18.3107251
40
0.0858899
50
8.4934806
51
22.6576781
0
ARC
8
right_labelLayer
10
8.3888298
20
18.3214837
40
0.0578536
50
22.7024079
51
42.3416952
0
ARC
8
right_labelLayer
10
8.3917396
20
18.3227916
40
0.0548309
50
43.3795821
51
71.5383656
0
ARC
8
right_labelLayer
10
8.3808583
20
18.2923839
40
0.0871223
50
71.0832001
51
84.368869
0
ARC
8
right_labelLayer
10
8.3759765
20
18.2508619
40
0.1289253
50
84.0204613
51
90.1518796
0
ARC
8
right_labelLayer
10
8.3745867
20
18.2326128
40
0.1471779
50
89.5919913
51
100.35898
0
ARC
8
right_labelLayer
10
8.3641659
20
18.2873832
40
0.0914272
50
100.1068061
51
118.084519
0
ARC
8
right_labelLayer
10
8.3535652
20
18.308184
40
0.0680864
50
118.4547387
51
139.6709756
0
ARC
8
right_labelLayer
10
8.3642085
20
18.3009084
40
0.0809199
50
140.6209907
51
160.5047563
0
ARC
8
right_labelLayer
10
8.4202867
20
18.2801471
40
0.1407144
50
160.1561346
51
171.5314375
0
ARC
8
right_labelLayer
10
8.5110282
20
18.2657689
40
0.2325854
50
171.3200081
51
178.3410298
0
ARC
8
right_labelLayer
10
8.5920497
20
18.2621393
40
0.3136807
50
178.106793
51
180.0229837
0
ARC
8
right_labelLayer
10
7.8410093
20
18.4114872
40
0.4373602
50
357.8674314
51
0.068954
0
ARC
8
right_labelLayer
10
7.9895407
20
18.4058196
40
0.2887207
50
354.982633
51
357.8945173
0
ARC
8
right_labelLayer
10
8.0875902
20
18.3972811
40
0.1903001
50
351.9721647
51
354.9617417
0
ARC
8
right_labelLayer
10
8.3613313
20
18.3191756
40
0.0971654
50
119.8317059
51
147.9725257
0
ARC
8
right_labelLayer
10
8.3730856
20
18.3011158
40
0.1186855
50
116.6641554
51
120.4172147
0
ARC
8
right_labelLayer
10
8.3752925
20
18.2953336
40
0.1248448
50
96.6650113
51
116.3784143
0
ARC
8
right_labelLayer
10
8.3800282
20
18.262671
40
0.157839
50
89.8932513
51
96.9963385
0
ARC
8
right_labelLayer
10
8.3815393
20
18.2231924
40
0.1973209
50
80.6865145
51
90.353404
0
ARC
8
right_labelLayer
10
8.3938256
20
18.2954636
40
0.1240148
50
65.6025891
51
80.8843541
0
ARC
8
right_labelLayer
10
8.4085772
20
18.3286911
40
0.0876616
50
46.7402617
51
65.4125728
0
ARC
8
right_labelLayer
10
8.4095811
20
18.3318591
40
0.0846789
50
19.2205565
51
45.7658865
0
ARC
8
right_labelLayer
10
8.3607461
20
18.3137571
40
0.1367548
50
6.4738527
51
19.6462944
0
ARC
8
right_labelLayer
10
8.2877875
20
18.3043677
40
0.2103097
50
359.7949557
51
6.7744869
0
LINE
8
right_labelLayer
10
8.7456543
20
18.1342791
11
8.7456543
21
18.0970721
0
LINE
8
right_labelLayer
10
8.6015137
20
18.1864276
11
8.6015137
21
18.3774432
0
LINE
8
right_labelLayer
10
8.6015137
20
18.3774432
11
8.5555176
21
18.3774432
0
LINE
8
right_labelLayer
10
8.5555176
20
18.3774432
11
8.5555176
21
18.4008807
0
LINE
8
right_labelLayer
10
8.5555176
20
18.4008807
11
8.6015137
21
18.4210955
0
LINE
8
right_labelLayer
10
8.6015137
20
18.4210955
11
8.6220215
21
18.4896502
0
LINE
8
right_labelLayer
10
8.6220215
20
18.4896502
11
8.6501465
21
18.4896502
0
LINE
8
right_labelLayer
10
8.6501465
20
18.4896502
11
8.6501465
21
18.4152362
0
LINE
8
right_labelLayer
10
8.6501465
20
18.4152362
11
8.7433105
21
18.4152362
0
LINE
8
right_labelLayer
10
8.7433105
20
18.4152362
11
8.7433105
21
18.3774432
0
LINE
8
right_labelLayer
10
8.7433105
20
18.3774432
11
8.6501465
21
18.3774432
0
LINE
8
right_labelLayer
10
8.6501465
20
18.3774432
11
8.6501465
21
18.1884783
0
ARC
8
right_labelLayer
10
8.7020425
20
18.2881458
40
0.1597264
50
269.8803717
51
278.3023434
0
ARC
8
right_labelLayer
10
8.7040733
20
18.2723913
40
0.1438439
50
278.40805
51
279.0144792
0
ARC
8
right_labelLayer
10
8.6856886
20
18.3899402
40
0.2628216
50
278.9576966
51
280.5106897
0
ARC
8
right_labelLayer
10
8.7027153
20
18.2985957
40
0.1699038
50
280.4843931
51
282.6259817
0
ARC
8
right_labelLayer
10
8.717747
20
18.2318183
40
0.1014554
50
282.5855427
51
285.5833049
0
ARC
8
right_labelLayer
10
8.7258056
20
18.202295
40
0.0708528
50
285.7197002
51
286.2685001
0
ARC
8
right_labelLayer
10
8.7252041
20
18.1403275
40
0.047846
50
287.9893772
51
295.3037649
0
ARC
8
right_labelLayer
10
8.7136675
20
18.1752344
40
0.0846096
50
283.3070929
51
288.119329
0
ARC
8
right_labelLayer
10
8.7014686
20
18.2261259
40
0.1369426
50
280.0080812
51
283.3730597
0
ARC
8
right_labelLayer
10
8.6934611
20
18.2695437
40
0.1810917
50
279.1836686
51
280.1157324
0
ARC
8
right_labelLayer
10
8.6883191
20
18.2987887
40
0.2107829
50
275.5267352
51
279.2947235
0
ARC
8
right_labelLayer
10
8.6939609
20
18.2399009
40
0.1516253
50
270.8935591
51
275.5478601
0
ARC
8
right_labelLayer
10
8.6946554
20
18.2150454
40
0.1267624
50
270.0101164
51
270.7549248
0
ARC
8
right_labelLayer
10
8.6927146
20
18.2152849
40
0.127017
50
253.7844798
51
270.8855882
0
ARC
8
right_labelLayer
10
8.6776666
20
18.163968
40
0.0735395
50
190.38186
51
253.8772501
0
ARC
8
right_labelLayer
10
8.7543767
20
18.1847077
40
0.1528727
50
179.355399
51
192.8474317
0
ARC
8
right_labelLayer
10
8.7480705
20
18.1878658
40
0.0979259
50
179.6416185
51
189.7510054
0
ARC
8
right_labelLayer
10
8.7135005
20
18.1816987
40
0.0628113
50
189.5475511
51
205.7877947
0
ARC
8
right_labelLayer
10
8.6992965
20
18.1751486
40
0.0471732
50
206.1297026
51
221.4085263
0
ARC
8
right_labelLayer
10
8.6977027
20
18.1739388
40
0.0451779
50
221.5947284
51
262.3510612
0
ARC
8
right_labelLayer
10
8.7014933
20
18.1934413
40
0.0650219
50
261.3279928
51
270.1900884
0
LINE
8
bottom_outsideCutPath
10
9.868
20
3.007
11
9.868
21
2.119125
0
LINE
8
bottom_outsideCutPath
10
9.868
20
2.119125
11
9.75
21
2.119125
0
LINE
8
bottom_outsideCutPath
10
9.75
20
2.119125
11
9.75
21
1.130875
0
LINE
8
bottom_outsideCutPath
10
9.75
20
1.130875
11
9.868
21
1.130875
0
LINE
8
bottom_outsideCutPath
10
9.868
20
1.130875
11
9.868
21
0.243
0
LINE
8
bottom_outsideCutPath
10
9.868
20
0.243
11
10.529375
21
0.243
0
LINE
8
bottom_outsideCutPath
10
10.529375
20
0.243
11
10.529375
21
0.125
0
LINE
8
bottom_outsideCutPath
10
10.529375
20
0.125
11
11.517625
21
0.125
0
LINE
8
bottom_outsideCutPath
10
11.517625
20
0.125
11
11.517625
21
0.243
0
LINE
8
bottom_outsideCutPath
10
11.517625
20
0.243
11
12.505875
21
0.243
0
LINE
8
bottom_outsideCutPath
10
12.505875
20
0.243
11
12.505875
21
0.125
0
LINE
8
bottom_outsideCutPath
10
12.505875
20
0.125
11
13.494125
21
0.125
0
LINE
8
bottom_outsideCutPath
10
13.494125
20
0.125
11
13.494125
21
0.243
0
LINE
8
bottom_outsideCutPath
10
13.494125
20
0.243
11
14.482375
21
0.243
0
LINE
8
bottom_outsideCutPath
10
14.482375
20
0.243
11
14.482375
21
0.125
0
LINE
8
bottom_outsideCutPath
10
14.482375
20
0.125
11
15.470625
21
0.125
0
LINE
8
bottom_outsideCutPath
10
15.470625
20
0.125
11
15.470625
21
0.243
0
LINE
8
bottom_outsideCutPath
10
15.470625
20
0.243
11
16.132
21
0.243
0
LINE
8
bottom_outsideCutPath
10
16.132
20
0.243
11
16.132
21
1.130875
0
LINE
8
bottom_outsideCutPath
10
16.132
20
1.130875
11
16.25
21
1.130875
0
LINE
8
bottom_outsideCutPath
10
16.25
20
1.130875
11
16.25
21
2.119125
0
LINE
8
bottom_outsideCutPath
10
16.25
20
2.119125
11
16.132
21
2.119125
0
LINE
8
bottom_outsideCutPath
10
16.132
20
2.119125
11
16.132
21
3.007
0
LINE
8
bottom_outsideCutPath
10
16.132
20
3.007
11
15.470625
21
3.007
0
LINE
8
bottom_outsideCutPath
10
15.470625
20
3.007
11
15.470625
21
3.125
0
LINE
8
bottom_outsideCutPath
10
15.470625
20
3.125
11
14.482375
21
3.125
0
LINE
8
bottom_outsideCutPath
10
14.482375
20
3.125
11
14.482375
21
3.007
0
LINE
8
bottom_outsideCutPath
10
14.482375
20
3.007
11
13.494125
21
3.007
0
LINE
8
bottom_outsideCutPath
10
13.494125
20
3.007
11
13.494125
21
3.125
0
LINE
8
bottom_outsideCutPath
10
13.494125
20
3.125
11
12.505875
21
3.125
0
LINE
8
bottom_outsideCutPath
10
12.505875
20
3.125
11
12.505875
21
3.007
0
LINE
8
bottom_outsideCutPath
10
12.505875
20
3.007
11
11.517625
21
3.007
0
LINE
8
bottom_outsideCutPath
10
11.517625
20
3.007
11
11.517625
21
3.125
0
LINE
8
bottom_outsideCutPath
10
11.517625
20
3.125
11
10.529375
21
3.125
0
LINE
8
bottom_outsideCutPath
10
10.529375
20
3.125
11
10.529375
21
3.007
0
LINE
8
bottom_outsideCutPath
10
10.529375
20
3.007
11
9.868
21
3.007
0
LINE
8
bottom_labelLayer
10
12.0616196
20
1.4413162
11
12.058104
21
1.4413162
0
LINE
8
bottom_labelLayer
10
12.058104
20
1.4413162
11
12.0478501
21
1.4000076
0
LINE
8
bottom_labelLayer
10
12.0478501
20
1.4000076
11
12.0129868
21
1.4000076
0
LINE
8
bottom_labelLayer
10
12.0129868
20
1.4000076
11
12.0129868
21
1.855867
0
LINE
8
bottom_labelLayer
10
12.0129868
20
1.855867
11
12.0616196
21
1.855867
0
LINE
8
bottom_labelLayer
10
12.0616196
20
1.855867
11
12.0616196
21
1.7451248
0
LINE
8
bottom_labelLayer
10
12.0592758
20
1.6783279
11
12.0616196
21
1.6783279
0
ARC
8
bottom_labelLayer
10
12.1638604
20
1.5777492
40
0.1486327
50
74.2389319
51
90.5626419
0
ARC
8
bottom_labelLayer
10
12.173688
20
1.613799
40
0.1112694
50
38.5631963
51
74.0669431
0
ARC
8
bottom_labelLayer
10
12.1483949
20
1.5941326
40
0.1433068
50
16.4708782
51
38.4074478
0
ARC
8
bottom_labelLayer
10
12.0755483
20
1.5712877
40
0.2196448
50
5.133323
51
16.797839
0
ARC
8
bottom_labelLayer
10
11.9835725
20
1.5615125
40
0.31213
50
359.877915
51
5.4098776
0
ARC
8
bottom_labelLayer
10
12.010568
20
1.5591651
40
0.2851386
50
350.656062
51
0.338046
0
ARC
8
bottom_labelLayer
10
12.1099611
20
1.5422589
40
0.1843202
50
335.8309179
51
350.8252764
0
ARC
8
bottom_labelLayer
10
12.1536955
20
1.5233834
40
0.1366931
50
321.3160893
51
335.5436744
0
ARC
8
bottom_labelLayer
10
12.1704116
20
1.5097624
40
0.115131
50
274.0640492
51
321.4080067
0
ARC
8
bottom_labelLayer
10
12.1626218
20
1.5591312
40
0.1649831
50
269.9232786
51
275.5475935
0
ARC
8
bottom_labelLayer
10
12.1615815
20
1.5416598
40
0.1475139
50
255.7752646
51
270.3182584
0
ARC
8
bottom_labelLayer
10
12.1573635
20
1.522936
40
0.1283289
50
245.979474
51
255.5465391
0
ARC
8
bottom_labelLayer
10
12.1492171
20
1.5039956
40
0.1077129
50
215.5851757
51
245.8363402
0
ARC
8
bottom_labelLayer
10
11.0478512
20
1.7442619
40
1.0137688
50
358.1122907
51
0.0487657
0
ARC
8
bottom_labelLayer
10
11.3302298
20
1.7347727
40
0.7312308
50
355.7233406
51
358.1265782
0
ARC
8
bottom_labelLayer
10
11.448764
20
1.7267245
40
0.6124269
50
355.4675201
51
355.6472238
0
ARC
8
bottom_labelLayer
10
12.1523177
20
1.6150816
40
0.1105723
50
95.1835294
51
145.1108874
0
ARC
8
bottom_labelLayer
10
12.1620349
20
1.560301
40
0.1660742
50
89.8737562
51
96.8149993
0
ARC
8
bottom_labelLayer
10
12.1543505
20
1.548996
40
0.1366599
50
89.5727219
51
100.7322112
0
ARC
8
bottom_labelLayer
10
12.1442333
20
1.6001106
40
0.0845563
50
100.4464426
51
119.6703838
0
ARC
8
bottom_labelLayer
10
12.1348508
20
1.6176498
40
0.0646744
50
120.139741
51
142.4256585
0
ARC
8
bottom_labelLayer
10
12.1503674
20
1.607383
40
0.0832435
50
143.3375339
51
161.2568904
0
ARC
8
bottom_labelLayer
10
12.2152611
20
1.5843406
40
0.152103
50
160.892091
51
171.2340976
0
ARC
8
bottom_labelLayer
10
12.3236465
20
1.566855
40
0.2618883
50
171.0670256
51
177.8454752
0
ARC
8
bottom_labelLayer
10
12.4364775
20
1.5611209
40
0.3748581
50
177.6180102
51
180.0418044
0
ARC
8
bottom_labelLayer
10
12.383185
20
1.5595937
40
0.3215679
50
179.7766094
51
185.7076507
0
ARC
8
bottom_labelLayer
10
12.2563664
20
1.5465242
40
0.1940787
50
185.5918632
51
194.2057423
0
ARC
8
bottom_labelLayer
10
12.1751858
20
1.5254531
40
0.1102108
50
193.9433382
51
208.0216622
0
ARC
8
bottom_labelLayer
10
12.142298
20
1.5087188
40
0.0733197
50
208.5517999
51
217.5624069
0
ARC
8
bottom_labelLayer
10
12.1396463
20
1.5076213
40
0.0705526
50
218.1686734
51
253.8046188
0
ARC
8
bottom_labelLayer
10
12.1527304
20
1.5479567
40
0.1129442
50
253.1376206
51
266.8490857
0
ARC
8
bottom_labelLayer
10
12.1563991
20
1.5912265
40
0.1563556
50
266.3782832
51
270.0521736
0
ARC
8
bottom_labelLayer
10
12.1575789
20
1.531817
40
0.0969517
50
269.386922
51
285.8626485
0
ARC
8
bottom_labelLayer
10
12.1647812
20
1.505783
40
0.0699406
50
286.0165361
51
326.8497822
0
ARC
8
bottom_labelLayer
10
12.1300196
20
1.528811
40
0.1116374
50
326.7106388
51
343.6666895
0
ARC
8
bottom_labelLayer
10
12.0649437
20
1.548698
40
0.1796816
50
343.4168758
51
353.6367749
0
ARC
8
bottom_labelLayer
10
11.9666472
20
1.5603608
40
0.2786659
50
353.4935401
51
0.220526
0
ARC
8
bottom_labelLayer
10
11.9579763
20
1.5625948
40
0.287337
50
359.7684136
51
6.3096246
0
ARC
8
bottom_labelLayer
10
12.0662027
20
1.5750131
40
0.1784021
50
6.1654452
51
16.0394298
0
ARC
8
bottom_labelLayer
10
12.1359325
20
1.5955615
40
0.1057105
50
15.778103
51
32.0145935
0
ARC
8
bottom_labelLayer
10
12.1577039
20
1.608029
40
0.0806465
50
32.7040576
51
35.525945
0
ARC
8
bottom_labelLayer
10
12.1656294
20
1.6136647
40
0.0709217
50
35.5409291
51
79.8009301
0
ARC
8
bottom_labelLayer
10
12.1561057
20
1.5731754
40
0.1124791
50
78.6782826
51
90.3749688
0
ARC
8
bottom_labelLayer
10
12.4066169
20
1.5591528
40
0.2511999
50
349.1760627
51
0.3865182
0
ARC
8
bottom_labelLayer
10
12.4911827
20
1.5422937
40
0.1649739
50
330.2509297
51
349.411694
0
ARC
8
bottom_labelLayer
10
12.5172127
20
1.5287655
40
0.1356667
50
318.1437768
51
329.7564189
0
ARC
8
bottom_labelLayer
10
12.5219099
20
1.5250009
40
0.1296566
50
278.895976
51
317.9977956
0
ARC
8
bottom_labelLayer
10
12.5098048
20
1.583002
40
0.1888556
50
269.7506263
51
279.8031712
0
ARC
8
bottom_labelLayer
10
12.5078435
20
1.550321
40
0.1561769
50
253.5438063
51
270.4179916
0
ARC
8
bottom_labelLayer
10
12.5026466
20
1.5302128
40
0.1354222
50
238.8117657
51
253.2424488
0
ARC
8
bottom_labelLayer
10
12.5009652
20
1.5268328
40
0.1316604
50
207.7945732
51
238.6760056
0
ARC
8
bottom_labelLayer
10
12.5250025
20
1.5415625
40
0.1598032
50
205.6568697
51
208.447715
0
ARC
8
bottom_labelLayer
10
12.5435854
20
1.5493046
40
0.1799091
50
188.9100476
51
205.3169733
0
ARC
8
bottom_labelLayer
10
12.6060884
20
1.559891
40
0.2432989
50
179.774766
51
189.0932536
0
ARC
8
bottom_labelLayer
10
12.6152975
20
1.5625578
40
0.2525118
50
169.2442527
51
180.388085
0
ARC
8
bottom_labelLayer
10
12.5295462
20
1.5795084
40
0.165105
50
150.7111875
51
169.4697195
0
ARC
8
bottom_labelLayer
10
12.5021801
20
1.5935599
40
0.1343677
50
138.1762551
51
150.2282238
0
ARC
8
bottom_labelLayer
10
12.4976191
20
1.5970598
40
0.1286358
50
99.1758941
51
137.9832361
0
ARC
8
bottom_labelLayer
10
12.5101522
20
1.5380797
40
0.1888831
50
89.7326282
51
100.0760772
0
ARC
8
bottom_labelLayer
10
12.5126578
20
1.5635523
40
0.1634165
50
73.5222763
51
90.5694517
0
ARC
8
bottom_labelLayer
10
12.5222409
20
1.5983704
40
0.127312
50
41.1443906
51
73.2133649
0
ARC
8
bottom_labelLayer
10
12.5039453
20
1.5826454
40
0.1514361
50
13.5015987
51
41.0702559
0
ARC
8
bottom_labelLayer
10
12.4332677
20
1.5641503
40
0.2244835
50
1.1277192
51
13.880032
0
ARC
8
bottom_labelLayer
10
12.3730604
20
1.5608951
40
0.2847507
50
359.990411
51
1.5441535
0
ARC
8
bottom_labelLayer
10
12.6594495
20
1.5595823
40
0.2462707
50
179.70565
51
187.9159332
0
ARC
8
bottom_labelLayer
10
12.5691237
20
1.5466071
40
0.155019
50
187.7637058
51
200.0978386
0
ARC
8
bottom_labelLayer
10
12.5193696
20
1.5283768
40
0.1020302
50
200.0846685
51
216.9129259
0
ARC
8
bottom_labelLayer
10
12.5011968
20
1.5154008
40
0.0797085
50
217.3008542
51
261.7101286
0
ARC
8
bottom_labelLayer
10
12.5096337
20
1.5556685
40
0.1207988
50
260.50389
51
270.2471198
0
ARC
8
bottom_labelLayer
10
12.5112434
20
1.5478235
40
0.1129579
50
269.4478163
51
284.7257168
0
ARC
8
bottom_labelLayer
10
12.5201848
20
1.5146631
40
0.0786141
50
284.5664145
51
322.6331529
0
ARC
8
bottom_labelLayer
10
12.4992762
20
1.5297678
40
0.104401
50
323.0090927
51
342.6390243
0
ARC
8
bottom_labelLayer
10
12.4394734
20
1.5493136
40
0.1673137
50
342.3613793
51
353.7533932
0
ARC
8
bottom_labelLayer
10
12.3512472
20
1.5599485
40
0.2561749
50
353.5359791
51
0.2010476
0
ARC
8
bottom_labelLayer
10
12.3647458
20
1.5620846
40
0.2426777
50
359.7079079
51
7.8969181
0
ARC
8
bottom_labelLayer
10
12.4536319
20
1.5748251
40
0.1528846
50
7.7441864
51
20.0690199
0
ARC
8
bottom_labelLayer
10
12.5031566
20
1.5929988
40
0.1001309
50
20.0257111
51
37.4353639
0
ARC
8
bottom_labelLayer
10
12.5195853
20
1.6046571
40
0.0800025
50
37.9576635
51
80.4005186
0
ARC
8
bottom_labelLayer
10
12.5102485
20
1.5629958
40
0.1226582
50
79.3454104
51
90.3174835
0
ARC
8
bottom_labelLayer
10
12.5085195
20
1.5699215
40
0.1157353
50
89.4805471
51
103.8810843
0
ARC
8
bottom_labelLayer
10
12.4987946
20
1.6069497
40
0.0774576
50
103.4686169
51
142.3118637
0
ARC
8
bottom_labelLayer
10
12.5176985
20
1.5936552
40
0.1005503
50
142.9025085
51
162.3754683
0
ARC
8
bottom_labelLayer
10
12.5772806
20
1.5737993
40
0.1633502
50
162.0654876
51
173.1673015
0
ARC
8
bottom_labelLayer
10
12.6701736
20
1.5619511
40
0.256994
50
173.00845
51
180.2460558
0
LINE
8
bottom_labelLayer
10
12.8907212
20
1.4401443
11
12.8907212
21
1.4029373
0
LINE
8
bottom_labelLayer
10
12.7465805
20
1.4922927
11
12.7465805
21
1.6833084
0
LINE
8
bottom_labelLayer
10
12.7465805
20
1.6833084
11
12.7005844
21
1.6833084
0
LINE
8
bottom_labelLayer
10
12.7005844
20
1.6833084
11
12.7005844
21
1.7067459
0
LINE
8
bottom_labelLayer
10
12.7005844
20
1.7067459
11
12.7465805
21
1.7269607
0
LINE
8
bottom_labelLayer
10
12.7465805
20
1.7269607
11
12.7670883
21
1.7955154
0
LINE
8
bottom_labelLayer
10
12.7670883
20
1.7955154
11
12.7952133
21
1.7955154
0
LINE
8
bottom_labelLayer
10
12.7952133
20
1.7955154
11
12.7952133
21
1.7211013
0
LINE
8
bottom_labelLayer
10
12.7952133
20
1.7211013
11
12.8883774
21
1.7211013
0
LINE
8
bottom_labelLayer
10
12.8883774
20
1.7211013
11
12.8883774
21
1.6833084
0
LINE
8
bottom_labelLayer
10
12.8883774
20
1.6833084
11
12.7952133
21
1.6833084
0
LINE
8
bottom_labelLayer
10
12.7952133
20
1.6833084
11
12.7952133
21
1.4943435
0
ARC
8
bottom_labelLayer
10
12.8471093
20
1.594011
40
0.1597264
50
269.8803717
51
278.3023434
0
ARC
8
bottom_labelLayer
10
12.8491401
20
1.5782564
40
0.1438439
50
278.40805
51
279.0144792
0
ARC
8
bottom_labelLayer
10
12.8307555
20
1.6958054
40
0.2628216
50
278.9576966
51
280.5106897
0
ARC
8
bottom_labelLayer
10
12.8477821
20
1.6044609
40
0.1699038
50
280.4843931
51
282.6259817
0
ARC
8
bottom_labelLayer
10
12.8628138
20
1.5376834
40
0.1014554
50
282.5855427
51
285.5833049
0
ARC
8
bottom_labelLayer
10
12.8708725
20
1.5081602
40
0.0708528
50
285.7197002
51
286.2685001
0
ARC
8
bottom_labelLayer
10
12.8702709
20
1.4461927
40
0.047846
50
287.9893772
51
295.3037649
0
ARC
8
bottom_labelLayer
10
12.8587344
20
1.4810996
40
0.0846096
50
283.3070929
51
288.119329
0
ARC
8
bottom_labelLayer
10
12.8465355
20
1.531991
40
0.1369426
50
280.0080812
51
283.3730597
0
ARC
8
bottom_labelLayer
10
12.8385279
20
1.5754089
40
0.1810917
50
279.1836686
51
280.1157324
0
ARC
8
bottom_labelLayer
10
12.833386
20
1.6046539
40
0.2107829
50
275.5267352
51
279.2947235
0
ARC
8
bottom_labelLayer
10
12.8390278
20
1.5457661
40
0.1516253
50
270.8935591
51
275.5478601
0
ARC
8
bottom_labelLayer
10
12.8397222
20
1.5209106
40
0.1267624
50
270.0101164
51
270.7549248
0
ARC
8
bottom_labelLayer
10
12.8377814
20
1.52115
40
0.127017
50
253.7844798
51
270.8855882
0
ARC
8
bottom_labelLayer
10
12.8227334
20
1.4698332
40
0.0735395
50
190.38186
51
253.8772501
0
ARC
8
bottom_labelLayer
10
12.8994436
20
1.4905729
40
0.1528727
50
179.355399
51
192.8474317
0
ARC
8
bottom_labelLayer
10
12.8931374
20
1.493731
40
0.0979259
50
179.6416185
51
189.7510054
0
ARC
8
bottom_labelLayer
10
12.8585674
20
1.4875639
40
0.0628113
50
189.5475511
51
205.7877947
0
ARC
8
bottom_labelLayer
10
12.8443634
20
1.4810137
40
0.0471732
50
206.1297026
51
221.4085263
0
ARC
8
bottom_labelLayer
10
12.8427696
20
1.479804
40
0.0451779
50
221.5947284
51
262.3510612
0
ARC
8
bottom_labelLayer
10
12.8465601
20
1.4993065
40
0.0650219
50
261.3279928
51
270.1900884
0
LINE
8
bottom_labelLayer
10
13.1025376
20
1.4401443
11
13.1025376
21
1.4029373
0
LINE
8
bottom_labelLayer
10
12.9583969
20
1.4922927
11
12.9583969
21
1.6833084
0
LINE
8
bottom_labelLayer
10
12.9583969
20
1.6833084
11
12.9124008
21
1.6833084
0
LINE
8
bottom_labelLayer
10
12.9124008
20
1.6833084
11
12.9124008
21
1.7067459
0
LINE
8
bottom_labelLayer
10
12.9124008
20
1.7067459
11
12.9583969
21
1.7269607
0
LINE
8
bottom_labelLayer
10
12.9583969
20
1.7269607
11
12.9789047
21
1.7955154
0
LINE
8
bottom_labelLayer
10
12.9789047
20
1.7955154
11
13.0070297
21
1.7955154
0
LINE
8
bottom_labelLayer
10
13.0070297
20
1.7955154
11
13.0070297
21
1.7211013
0
LINE
8
bottom_labelLayer
10
13.0070297
20
1.7211013
11
13.1001938
21
1.7211013
0
LINE
8
bottom_labelLayer
10
13.1001938
20
1.7211013
11
13.1001938
21
1.6833084
0
LINE
8
bottom_labelLayer
10
13.1001938
20
1.6833084
11
13.0070297
21
1.6833084
0
LINE
8
bottom_labelLayer
10
13.0070297
20
1.6833084
11
13.0070297
21
1.4943435
0
ARC
8
bottom_labelLayer
10
13.0589257
20
1.594011
40
0.1597264
50
269.8803717
51
278.3023434
0
ARC
8
bottom_labelLayer
10
13.0609566
20
1.5782564
40
0.1438439
50
278.40805
51
279.0144792
0
ARC
8
bottom_labelLayer
10
13.0425719
20
1.6958054
40
0.2628216
50
278.9576966
51
280.5106897
0
ARC
8
bottom_labelLayer
10
13.0595985
20
1.6044609
40
0.1699038
50
280.4843931
51
282.6259817
0
ARC
8
bottom_labelLayer
10
13.0746302
20
1.5376834
40
0.1014554
50
282.5855427
51
285.5833049
0
ARC
8
bottom_labelLayer
10
13.0826889
20
1.5081602
40
0.0708528
50
285.7197002
51
286.2685001
0
ARC
8
bottom_labelLayer
10
13.0820874
20
1.4461927
40
0.047846
50
287.9893772
51
295.3037649
0
ARC
8
bottom_labelLayer
10
13.0705508
20
1.4810996
40
0.0846096
50
283.3070929
51
288.119329
0
ARC
8
bottom_labelLayer
10
13.0583519
20
1.531991
40
0.1369426
50
280.0080812
51
283.3730597
0
ARC
8
bottom_labelLayer
10
13.0503443
20
1.5754089
40
0.1810917
50
279.1836686
51
280.1157324
0
ARC
8
bottom_labelLayer
10
13.0452024
20
1.6046539
40
0.2107829
50
275.5267352
51
279.2947235
0
ARC
8
bottom_labelLayer
10
13.0508442
20
1.5457661
40
0.1516253
50
270.8935591
51
275.5478601
0
ARC
8
bottom_labelLayer
10
13.0515386
20
1.5209106
40
0.1267624
50
270.0101164
51
270.7549248
0
ARC
8
bottom_labelLayer
10
13.0495978
20
1.52115
40
0.127017
50
253.7844798
51
270.8855882
0
ARC
8
bottom_labelLayer
10
13.0345498
20
1.4698332
40
0.0735395
50
190.38186
51
253.8772501
0
ARC
8
bottom_labelLayer
10
13.11126
20
1.4905729
40
0.1528727
50
179.355399
51
192.8474317
0
ARC
8
bottom_labelLayer
10
13.1049538
20
1.493731
40
0.0979259
50
179.6416185
51
189.7510054
0
ARC
8
bottom_labelLayer
10
13.0703838
20
1.4875639
40
0.0628113
50
189.5475511
51
205.7877947
0
ARC
8
bottom_labelLayer
10
13.0561798
20
1.4810137
40
0.0471732
50
206.1297026
51
221.4085263
0
ARC
8
bottom_labelLayer
10
13.054586
20
1.479804
40
0.0451779
50
221.5947284
51
262.3510612
0
ARC
8
bottom_labelLayer
10
13.0583765
20
1.4993065
40
0.0650219
50
261.3279928
51
270.1900884
0
ARC
8
bottom_labelLayer
10
13.192652
20
1.5591528
40
0.2511999
50
349.1760627
51
0.3865182
0
ARC
8
bottom_labelLayer
10
13.2772178
20
1.5422937
40
0.1649739
50
330.2509297
51
349.411694
0
ARC
8
bottom_labelLayer
10
13.3032478
20
1.5287655
40
0.1356667
50
318.1437768
51
329.7564189
0
ARC
8
bottom_labelLayer
10
13.3079451
20
1.5250009
40
0.1296566
50
278.895976
51
317.9977956
0
ARC
8
bottom_labelLayer
10
13.29584
20
1.583002
40
0.1888556
50
269.7506263
51
279.8031712
0
ARC
8
bottom_labelLayer
10
13.2938787
20
1.550321
40
0.1561769
50
253.5438063
51
270.4179916
0
ARC
8
bottom_labelLayer
10
13.2886818
20
1.5302128
40
0.1354222
50
238.8117657
51
253.2424488
0
ARC
8
bottom_labelLayer
10
13.2870004
20
1.5268328
40
0.1316604
50
207.7945732
51
238.6760056
0
ARC
8
bottom_labelLayer
10
13.3110377
20
1.5415625
40
0.1598032
50
205.6568697
51
208.447715
0
ARC
8
bottom_labelLayer
10
13.3296206
20
1.5493046
40
0.1799091
50
188.9100476
51
205.3169733
0
ARC
8
bottom_labelLayer
10
13.3921236
20
1.559891
40
0.2432989
50
179.774766
51
189.0932536
0
ARC
8
bottom_labelLayer
10
13.4013327
20
1.5625578
40
0.2525118
50
169.2442527
51
180.388085
0
ARC
8
bottom_labelLayer
10
13.3155814
20
1.5795084
40
0.165105
50
150.7111875
51
169.4697195
0
ARC
8
bottom_labelLayer
10
13.2882152
20
1.5935599
40
0.1343677
50
138.1762551
51
150.2282238
0
ARC
8
bottom_labelLayer
10
13.2836542
20
1.5970598
40
0.1286358
50
99.1758941
51
137.9832361
0
ARC
8
bottom_labelLayer
10
13.2961874
20
1.5380797
40
0.1888831
50
89.7326282
51
100.0760772
0
ARC
8
bottom_labelLayer
10
13.2986929
20
1.5635523
40
0.1634165
50
73.5222763
51
90.5694517
0
ARC
8
bottom_labelLayer
10
13.308276
20
1.5983704
40
0.127312
50
41.1443906
51
73.2133649
0
ARC
8
bottom_labelLayer
10
13.2899805
20
1.5826454
40
0.1514361
50
13.5015987
51
41.0702559
0
ARC
8
bottom_labelLayer
10
13.2193028
20
1.5641503
40
0.2244835
50
1.1277192
51
13.880032
0
ARC
8
bottom_labelLayer
10
13.1590955
20
1.5608951
40
0.2847507
50
359.990411
51
1.5441535
0
ARC
8
bottom_labelLayer
10
13.4454847
20
1.5595823
40
0.2462707
50
179.70565
51
187.9159332
0
ARC
8
bottom_labelLayer
10
13.3551589
20
1.5466071
40
0.155019
50
187.7637058
51
200.0978386
0
ARC
8
bottom_labelLayer
10
13.3054048
20
1.5283768
40
0.1020302
50
200.0846685
51
216.9129259
0
ARC
8
bottom_labelLayer
10
13.2872319
20
1.5154008
40
0.0797085
50
217.3008542
51
261.7101286
0
ARC
8
bottom_labelLayer
10
13.2956689
20
1.5556685
40
0.1207988
50
260.50389
51
270.2471198
0
ARC
8
bottom_labelLayer
10
13.2972785
20
1.5478235
40
0.1129579
50
269.4478163
51
284.7257168
0
ARC
8
bottom_labelLayer
10
13.3062199
20
1.5146631
40
0.0786141
50
284.5664145
51
322.6331529
0
ARC
8
bottom_labelLayer
10
13.2853114
20
1.5297678
40
0.104401
50
323.0090927
51
342.6390243
0
ARC
8
bottom_labelLayer
10
13.2255086
20
1.5493136
40
0.1673137
50
342.3613793
51
353.7533932
0
ARC
8
bottom_labelLayer
10
13.1372824
20
1.5599485
40
0.2561749
50
353.5359791
51
0.2010476
0
ARC
8
bottom_labelLayer
10
13.150781
20
1.5620846
40
0.2426777
50
359.7079079
51
7.8969181
0
ARC
8
bottom_labelLayer
10
13.2396671
20
1.5748251
40
0.1528846
50
7.7441864
51
20.0690199
0
ARC
8
bottom_labelLayer
10
13.2891917
20
1.5929988
40
0.1001309
50
20.0257111
51
37.4353639
0
ARC
8
bottom_labelLayer
10
13.3056204
20
1.6046571
40
0.0800025
50
37.9576635
51
80.4005186
0
ARC
8
bottom_labelLayer
10
13.2962836
20
1.5629958
40
0.1226582
50
79.3454104
51
90.3174835
0
ARC
8
bottom_labelLayer
10
13.2945547
20
1.5699215
40
0.1157353
50
89.4805471
51
103.8810843
0
ARC
8
bottom_labelLayer
10
13.2848297
20
1.6069497
40
0.0774576
50
103.4686169
51
142.3118637
0
ARC
8
bottom_labelLayer
10
13.3037336
20
1.5936552
40
0.1005503
50
142.9025085
51
162.3754683
0
ARC
8
bottom_labelLayer
10
13.3633158
20
1.5737993
40
0.1633502
50
162.0654876
51
173.1673015
0
ARC
8
bottom_labelLayer
10
13.4562088
20
1.5619511
40
0.256994
50
173.00845
51
180.2460558
0
LINE
8
bottom_labelLayer
10
13.9870102
20
1.4000076
11
13.9383774
21
1.4000076
0
LINE
8
bottom_labelLayer
10
13.9383774
20
1.4000076
11
13.9383774
21
1.6088943
0
LINE
8
bottom_labelLayer
10
13.7822251
20
1.5793045
11
13.7822251
21
1.4000076
0
LINE
8
bottom_labelLayer
10
13.7822251
20
1.4000076
11
13.7335922
21
1.4000076
0
LINE
8
bottom_labelLayer
10
13.7335922
20
1.4000076
11
13.7335922
21
1.6088943
0
LINE
8
bottom_labelLayer
10
13.5777329
20
1.5684646
11
13.5777329
21
1.4000076
0
LINE
8
bottom_labelLayer
10
13.5777329
20
1.4000076
11
13.5291001
21
1.4000076
0
LINE
8
bottom_labelLayer
10
13.5291001
20
1.4000076
11
13.5291001
21
1.7211013
0
LINE
8
bottom_labelLayer
10
13.5291001
20
1.7211013
11
13.5686508
21
1.7211013
0
LINE
8
bottom_labelLayer
10
13.5686508
20
1.7211013
11
13.576561
21
1.677156
0
LINE
8
bottom_labelLayer
10
13.576561
20
1.677156
11
13.5789047
21
1.677156
0
LINE
8
bottom_labelLayer
10
13.7722641
20
1.6724685
11
13.7746079
21
1.6724685
0
LINE
8
bottom_labelLayer
10
13.9870102
20
1.6094802
11
13.9870102
21
1.4000076
0
ARC
8
bottom_labelLayer
10
13.7949137
20
1.6096598
40
0.1434658
50
359.694273
51
8.1468836
0
ARC
8
bottom_labelLayer
10
13.8477635
20
1.6174814
40
0.0900411
50
7.9857255
51
20.7956841
0
ARC
8
bottom_labelLayer
10
13.876963
20
1.628668
40
0.0587723
50
20.7070856
51
40.0211709
0
ARC
8
bottom_labelLayer
10
13.8833729
20
1.6328615
40
0.0511748
50
41.0407403
51
73.179247
0
ARC
8
bottom_labelLayer
10
13.8740984
20
1.6048074
40
0.080716
50
72.6401409
51
86.2559135
0
ARC
8
bottom_labelLayer
10
13.8711322
20
1.5728312
40
0.112821
50
85.8131663
51
90.069872
0
ARC
8
bottom_labelLayer
10
13.8700391
20
1.5605081
40
0.1251477
50
89.5625471
51
101.2958459
0
ARC
8
bottom_labelLayer
10
13.8606137
20
1.6056353
40
0.0790494
50
101.0033476
51
121.7836396
0
ARC
8
bottom_labelLayer
10
13.853452
20
1.6184246
40
0.064409
50
122.3605852
51
140.2874426
0
ARC
8
bottom_labelLayer
10
13.866342
20
1.6089756
40
0.080368
50
140.9769541
51
161.1695296
0
ARC
8
bottom_labelLayer
10
13.9149056
20
1.5916932
40
0.1319123
50
160.8730439
51
172.5269449
0
ARC
8
bottom_labelLayer
10
13.9960371
20
1.5804873
40
0.2138127
50
172.3772287
51
180.1831721
0
ARC
8
bottom_labelLayer
10
14.0935595
20
1.5791801
40
0.3113346
50
179.8852203
51
179.9771138
0
ARC
8
bottom_labelLayer
10
13.5901285
20
1.6096598
40
0.1434658
50
359.694273
51
8.1468836
0
ARC
8
bottom_labelLayer
10
13.6429783
20
1.6174814
40
0.0900411
50
7.9857255
51
20.7956841
0
ARC
8
bottom_labelLayer
10
13.6721778
20
1.628668
40
0.0587723
50
20.7070856
51
40.0211709
0
ARC
8
bottom_labelLayer
10
13.6787203
20
1.6329523
40
0.0510152
50
41.0615891
51
72.899069
0
ARC
8
bottom_labelLayer
10
13.6692733
20
1.6048285
40
0.0806772
50
72.3597477
51
85.9564776
0
ARC
8
bottom_labelLayer
10
13.6660742
20
1.5717509
40
0.1139012
50
85.5245146
51
90.0793373
0
ARC
8
bottom_labelLayer
10
13.664984
20
1.5648564
40
0.1207993
50
89.557722
51
101.4826865
0
ARC
8
bottom_labelLayer
10
13.6557122
20
1.6083021
40
0.0763786
50
101.1545985
51
123.0653843
0
ARC
8
bottom_labelLayer
10
13.6494107
20
1.6192797
40
0.0637447
50
123.7020821
51
142.3019949
0
ARC
8
bottom_labelLayer
10
13.6641762
20
1.6092635
40
0.0815601
50
143.0774423
51
161.3908334
0
ARC
8
bottom_labelLayer
10
13.7236804
20
1.5882498
40
0.1446619
50
161.0238325
51
171.4470306
0
ARC
8
bottom_labelLayer
10
13.822176
20
1.5728207
40
0.2443577
50
171.3042528
51
178.3504833
0
ARC
8
bottom_labelLayer
10
13.9159665
20
1.56862
40
0.3382336
50
178.096541
51
180.0263286
0
ARC
8
bottom_labelLayer
10
13.6612951
20
1.6287062
40
0.0955801
50
117.1208383
51
149.5422734
0
ARC
8
bottom_labelLayer
10
13.6710502
20
1.6113689
40
0.1154609
50
93.8343881
51
117.5073561
0
ARC
8
bottom_labelLayer
10
13.6737469
20
1.5874164
40
0.1395443
50
89.9672636
51
94.28149
0
ARC
8
bottom_labelLayer
10
13.6753578
20
1.5677388
40
0.1592292
50
77.5573377
51
90.5509928
0
ARC
8
bottom_labelLayer
10
13.6901324
20
1.6312899
40
0.0939904
50
52.7027508
51
78.0051639
0
ARC
8
bottom_labelLayer
10
13.6953974
20
1.6410849
40
0.0830265
50
22.2094918
51
51.4971205
0
ARC
8
bottom_labelLayer
10
13.8627091
20
1.6219777
40
0.1015438
50
119.404468
51
150.1829647
0
ARC
8
bottom_labelLayer
10
13.8741367
20
1.6045507
40
0.1223443
50
118.2602578
51
120.0597925
0
ARC
8
bottom_labelLayer
10
13.8739389
20
1.6035977
40
0.1230916
50
95.8638687
51
117.9691513
0
ARC
8
bottom_labelLayer
10
13.8781019
20
1.5734889
40
0.1534718
50
89.9190381
51
96.2615327
0
ARC
8
bottom_labelLayer
10
13.8794401
20
1.5579052
40
0.1690592
50
79.9363125
51
90.3800319
0
ARC
8
bottom_labelLayer
10
13.890706
20
1.6189207
40
0.1070148
50
62.9723392
51
80.1668181
0
ARC
8
bottom_labelLayer
10
13.9024836
20
1.6430812
40
0.0801423
50
44.2285471
51
62.6236824
0
ARC
8
bottom_labelLayer
10
13.8989766
20
1.6415292
40
0.0837485
50
19.5613076
51
43.3157606
0
ARC
8
bottom_labelLayer
10
13.8481161
20
1.6224257
40
0.1380731
50
7.5042389
51
19.9646907
0
ARC
8
bottom_labelLayer
10
13.7639475
20
1.610605
40
0.2230657
50
359.7110973
51
7.6909839
0
ENDSEC
0
EOF