0
SECTION
2
HEADER
9
$INSUNITS
70
1
0
ENDSEC
0
SECTION
2
TABLES
0
TABLE
2
LTYPE
0
LTYPE
72
65
70
64
2
CONTINUOUS
3
______
73
0
40
0
0
ENDTAB
0
TABLE
2
LAYER
0
ENDTAB
0
ENDSEC
0
SECTION
2
ENTITIES
0
LINE
8
front_outsideCutPath
10
0
20
12.125
11
0
21
10.572125
0
LINE
8
front_outsideCutPath
10
0
20
10.572125
11
0.118
21
10.572125
0
LINE
8
front_outsideCutPath
10
0.118
20
10.572125
11
0.118
21
9.583875
0
LINE
8
front_outsideCutPath
10
0.118
20
9.583875
11
0
21
9.583875
0
LINE
8
front_outsideCutPath
10
0
20
9.583875
11
0
21
8.595625
0
LINE
8
front_outsideCutPath
10
0
20
8.595625
11
0.118
21
8.595625
0
LINE
8
front_outsideCutPath
10
0.118
20
8.595625
11
0.118
21
7.607375
0
LINE
8
front_outsideCutPath
10
0.118
20
7.607375
11
0
21
7.607375
0
LINE
8
front_outsideCutPath
10
0
20
7.607375
11
0
21
6.619125
0
LINE
8
front_outsideCutPath
10
0
20
6.619125
11
0.118
21
6.619125
0
LINE
8
front_outsideCutPath
10
0.118
20
6.619125
11
0.118
21
5.630875
0
LINE
8
front_outsideCutPath
10
0.118
20
5.630875
11
0
21
5.630875
0
LINE
8
front_outsideCutPath
10
0
20
5.630875
11
0
21
4.642625
0
LINE
8
front_outsideCutPath
10
0
20
4.642625
11
0.118
21
4.642625
0
LINE
8
front_outsideCutPath
10
0.118
20
4.642625
11
0.118
21
3.654375
0
LINE
8
front_outsideCutPath
10
0.118
20
3.654375
11
0
21
3.654375
0
LINE
8
front_outsideCutPath
10
0
20
3.654375
11
0
21
2.666125
0
LINE
8
front_outsideCutPath
10
0
20
2.666125
11
0.118
21
2.666125
0
LINE
8
front_outsideCutPath
10
0.118
20
2.666125
11
0.118
21
1.677875
0
LINE
8
front_outsideCutPath
10
0.118
20
1.677875
11
0
21
1.677875
0
LINE
8
front_outsideCutPath
10
0
20
1.677875
11
0
21
0.689625
0
LINE
8
front_outsideCutPath
10
0
20
0.689625
11
0
21
0.125
0
LINE
8
front_outsideCutPath
10
0
20
0.125
11
0.779375
21
0.125
0
LINE
8
front_outsideCutPath
10
0.779375
20
0.125
11
0.779375
21
0.243
0
LINE
8
front_outsideCutPath
10
0.779375
20
0.243
11
1.767625
21
0.243
0
LINE
8
front_outsideCutPath
10
1.767625
20
0.243
11
1.767625
21
0.125
0
LINE
8
front_outsideCutPath
10
1.767625
20
0.125
11
2.755875
21
0.125
0
LINE
8
front_outsideCutPath
10
2.755875
20
0.125
11
2.755875
21
0.243
0
LINE
8
front_outsideCutPath
10
2.755875
20
0.243
11
3.744125
21
0.243
0
LINE
8
front_outsideCutPath
10
3.744125
20
0.243
11
3.744125
21
0.125
0
LINE
8
front_outsideCutPath
10
3.744125
20
0.125
11
4.732375
21
0.125
0
LINE
8
front_outsideCutPath
10
4.732375
20
0.125
11
4.732375
21
0.243
0
LINE
8
front_outsideCutPath
10
4.732375
20
0.243
11
5.720625
21
0.243
0
LINE
8
front_outsideCutPath
10
5.720625
20
0.243
11
5.720625
21
0.125
0
LINE
8
front_outsideCutPath
10
5.720625
20
0.125
11
6.5
21
0.125
0
LINE
8
front_outsideCutPath
10
6.5
20
0.125
11
6.5
21
1.677875
0
LINE
8
front_outsideCutPath
10
6.5
20
1.677875
11
6.382
21
1.677875
0
LINE
8
front_outsideCutPath
10
6.382
20
1.677875
11
6.382
21
2.666125
0
LINE
8
front_outsideCutPath
10
6.382
20
2.666125
11
6.5
21
2.666125
0
LINE
8
front_outsideCutPath
10
6.5
20
2.666125
11
6.5
21
3.654375
0
LINE
8
front_outsideCutPath
10
6.5
20
3.654375
11
6.382
21
3.654375
0
LINE
8
front_outsideCutPath
10
6.382
20
3.654375
11
6.382
21
4.642625
0
LINE
8
front_outsideCutPath
10
6.382
20
4.642625
11
6.5
21
4.642625
0
LINE
8
front_outsideCutPath
10
6.5
20
4.642625
11
6.5
21
5.630875
0
LINE
8
front_outsideCutPath
10
6.5
20
5.630875
11
6.382
21
5.630875
0
LINE
8
front_outsideCutPath
10
6.382
20
5.630875
11
6.382
21
6.619125
0
LINE
8
front_outsideCutPath
10
6.382
20
6.619125
11
6.5
21
6.619125
0
LINE
8
front_outsideCutPath
10
6.5
20
6.619125
11
6.5
21
7.607375
0
LINE
8
front_outsideCutPath
10
6.5
20
7.607375
11
6.382
21
7.607375
0
LINE
8
front_outsideCutPath
10
6.382
20
7.607375
11
6.382
21
8.595625
0
LINE
8
front_outsideCutPath
10
6.382
20
8.595625
11
6.5
21
8.595625
0
LINE
8
front_outsideCutPath
10
6.5
20
8.595625
11
6.5
21
9.583875
0
LINE
8
front_outsideCutPath
10
6.5
20
9.583875
11
6.382
21
9.583875
0
LINE
8
front_outsideCutPath
10
6.382
20
9.583875
11
6.382
21
10.572125
0
LINE
8
front_outsideCutPath
10
6.382
20
10.572125
11
6.5
21
10.572125
0
LINE
8
front_outsideCutPath
10
6.5
20
10.572125
11
6.5
21
11.560375
0
LINE
8
front_outsideCutPath
10
6.5
20
11.560375
11
6.5
21
12.125
0
LINE
8
front_outsideCutPath
10
6.5
20
12.125
11
0
21
12.125
0
LINE
8
left_outsideCutPath
10
6.743
20
12.125
11
6.743
21
10.572125
0
LINE
8
left_outsideCutPath
10
6.743
20
10.572125
11
6.625
21
10.572125
0
LINE
8
left_outsideCutPath
10
6.625
20
10.572125
11
6.625
21
9.583875
0
LINE
8
left_outsideCutPath
10
6.625
20
9.583875
11
6.743
21
9.583875
0
LINE
8
left_outsideCutPath
10
6.743
20
9.583875
11
6.743
21
8.595625
0
LINE
8
left_outsideCutPath
10
6.743
20
8.595625
11
6.625
21
8.595625
0
LINE
8
left_outsideCutPath
10
6.625
20
8.595625
11
6.625
21
7.607375
0
LINE
8
left_outsideCutPath
10
6.625
20
7.607375
11
6.743
21
7.607375
0
LINE
8
left_outsideCutPath
10
6.743
20
7.607375
11
6.743
21
6.619125
0
LINE
8
left_outsideCutPath
10
6.743
20
6.619125
11
6.625
21
6.619125
0
LINE
8
left_outsideCutPath
10
6.625
20
6.619125
11
6.625
21
5.630875
0
LINE
8
left_outsideCutPath
10
6.625
20
5.630875
11
6.743
21
5.630875
0
LINE
8
left_outsideCutPath
10
6.743
20
5.630875
11
6.743
21
4.642625
0
LINE
8
left_outsideCutPath
10
6.743
20
4.642625
11
6.625
21
4.642625
0
LINE
8
left_outsideCutPath
10
6.625
20
4.642625
11
6.625
21
3.654375
0
LINE
8
left_outsideCutPath
10
6.625
20
3.654375
11
6.743
21
3.654375
0
LINE
8
left_outsideCutPath
10
6.743
20
3.654375
11
6.743
21
2.666125
0
LINE
8
left_outsideCutPath
10
6.743
20
2.666125
11
6.625
21
2.666125
0
LINE
8
left_outsideCutPath
10
6.625
20
2.666125
11
6.625
21
1.677875
0
LINE
8
left_outsideCutPath
10
6.625
20
1.677875
11
6.743
21
1.677875
0
LINE
8
left_outsideCutPath
10
6.743
20
1.677875
11
6.743
21
0.689625
0
LINE
8
left_outsideCutPath
10
6.743
20
0.689625
11
6.743
21
0.125
0
LINE
8
left_outsideCutPath
10
6.743
20
0.125
11
7.630875
21
0.125
0
LINE
8
left_outsideCutPath
10
7.630875
20
0.125
11
7.630875
21
0.243
0
LINE
8
left_outsideCutPath
10
7.630875
20
0.243
11
8.619125
21
0.243
0
LINE
8
left_outsideCutPath
10
8.619125
20
0.243
11
8.619125
21
0.125
0
LINE
8
left_outsideCutPath
10
8.619125
20
0.125
11
9.507
21
0.125
0
LINE
8
left_outsideCutPath
10
9.507
20
0.125
11
9.507
21
1.677875
0
LINE
8
left_outsideCutPath
10
9.507
20
1.677875
11
9.625
21
1.677875
0
LINE
8
left_outsideCutPath
10
9.625
20
1.677875
11
9.625
21
2.666125
0
LINE
8
left_outsideCutPath
10
9.625
20
2.666125
11
9.507
21
2.666125
0
LINE
8
left_outsideCutPath
10
9.507
20
2.666125
11
9.507
21
3.654375
0
LINE
8
left_outsideCutPath
10
9.507
20
3.654375
11
9.625
21
3.654375
0
LINE
8
left_outsideCutPath
10
9.625
20
3.654375
11
9.625
21
4.642625
0
LINE
8
left_outsideCutPath
10
9.625
20
4.642625
11
9.507
21
4.642625
0
LINE
8
left_outsideCutPath
10
9.507
20
4.642625
11
9.507
21
5.630875
0
LINE
8
left_outsideCutPath
10
9.507
20
5.630875
11
9.625
21
5.630875
0
LINE
8
left_outsideCutPath
10
9.625
20
5.630875
11
9.625
21
6.619125
0
LINE
8
left_outsideCutPath
10
9.625
20
6.619125
11
9.507
21
6.619125
0
LINE
8
left_outsideCutPath
10
9.507
20
6.619125
11
9.507
21
7.607375
0
LINE
8
left_outsideCutPath
10
9.507
20
7.607375
11
9.625
21
7.607375
0
LINE
8
left_outsideCutPath
10
9.625
20
7.607375
11
9.625
21
8.595625
0
LINE
8
left_outsideCutPath
10
9.625
20
8.595625
11
9.507
21
8.595625
0
LINE
8
left_outsideCutPath
10
9.507
20
8.595625
11
9.507
21
9.583875
0
LINE
8
left_outsideCutPath
10
9.507
20
9.583875
11
9.625
21
9.583875
0
LINE
8
left_outsideCutPath
10
9.625
20
9.583875
11
9.625
21
10.572125
0
LINE
8
left_outsideCutPath
10
9.625
20
10.572125
11
9.507
21
10.572125
0
LINE
8
left_outsideCutPath
10
9.507
20
10.572125
11
9.507
21
11.560375
0
LINE
8
left_outsideCutPath
10
9.507
20
11.560375
11
9.507
21
12.125
0
LINE
8
left_outsideCutPath
10
9.507
20
12.125
11
6.743
21
12.125
0
LINE
8
back_outsideCutPath
10
0
20
24.25
11
0
21
22.697125
0
LINE
8
back_outsideCutPath
10
0
20
22.697125
11
0.118
21
22.697125
0
LINE
8
back_outsideCutPath
10
0.118
20
22.697125
11
0.118
21
21.708875
0
LINE
8
back_outsideCutPath
10
0.118
20
21.708875
11
0
21
21.708875
0
LINE
8
back_outsideCutPath
10
0
20
21.708875
11
0
21
20.720625
0
LINE
8
back_outsideCutPath
10
0
20
20.720625
11
0.118
21
20.720625
0
LINE
8
back_outsideCutPath
10
0.118
20
20.720625
11
0.118
21
19.732375
0
LINE
8
back_outsideCutPath
10
0.118
20
19.732375
11
0
21
19.732375
0
LINE
8
back_outsideCutPath
10
0
20
19.732375
11
0
21
18.744125
0
LINE
8
back_outsideCutPath
10
0
20
18.744125
11
0.118
21
18.744125
0
LINE
8
back_outsideCutPath
10
0.118
20
18.744125
11
0.118
21
17.755875
0
LINE
8
back_outsideCutPath
10
0.118
20
17.755875
11
0
21
17.755875
0
LINE
8
back_outsideCutPath
10
0
20
17.755875
11
0
21
16.767625
0
LINE
8
back_outsideCutPath
10
0
20
16.767625
11
0.118
21
16.767625
0
LINE
8
back_outsideCutPath
10
0.118
20
16.767625
11
0.118
21
15.779375
0
LINE
8
back_outsideCutPath
10
0.118
20
15.779375
11
0
21
15.779375
0
LINE
8
back_outsideCutPath
10
0
20
15.779375
11
0
21
14.791125
0
LINE
8
back_outsideCutPath
10
0
20
14.791125
11
0.118
21
14.791125
0
LINE
8
back_outsideCutPath
10
0.118
20
14.791125
11
0.118
21
13.802875
0
LINE
8
back_outsideCutPath
10
0.118
20
13.802875
11
0
21
13.802875
0
LINE
8
back_outsideCutPath
10
0
20
13.802875
11
0
21
12.814625
0
LINE
8
back_outsideCutPath
10
0
20
12.814625
11
0
21
12.25
0
LINE
8
back_outsideCutPath
10
0
20
12.25
11
0.779375
21
12.25
0
LINE
8
back_outsideCutPath
10
0.779375
20
12.25
11
0.779375
21
12.368
0
LINE
8
back_outsideCutPath
10
0.779375
20
12.368
11
1.767625
21
12.368
0
LINE
8
back_outsideCutPath
10
1.767625
20
12.368
11
1.767625
21
12.25
0
LINE
8
back_outsideCutPath
10
1.767625
20
12.25
11
2.755875
21
12.25
0
LINE
8
back_outsideCutPath
10
2.755875
20
12.25
11
2.755875
21
12.368
0
LINE
8
back_outsideCutPath
10
2.755875
20
12.368
11
3.744125
21
12.368
0
LINE
8
back_outsideCutPath
10
3.744125
20
12.368
11
3.744125
21
12.25
0
LINE
8
back_outsideCutPath
10
3.744125
20
12.25
11
4.732375
21
12.25
0
LINE
8
back_outsideCutPath
10
4.732375
20
12.25
11
4.732375
21
12.368
0
LINE
8
back_outsideCutPath
10
4.732375
20
12.368
11
5.720625
21
12.368
0
LINE
8
back_outsideCutPath
10
5.720625
20
12.368
11
5.720625
21
12.25
0
LINE
8
back_outsideCutPath
10
5.720625
20
12.25
11
6.5
21
12.25
0
LINE
8
back_outsideCutPath
10
6.5
20
12.25
11
6.5
21
13.802875
0
LINE
8
back_outsideCutPath
10
6.5
20
13.802875
11
6.382
21
13.802875
0
LINE
8
back_outsideCutPath
10
6.382
20
13.802875
11
6.382
21
14.791125
0
LINE
8
back_outsideCutPath
10
6.382
20
14.791125
11
6.5
21
14.791125
0
LINE
8
back_outsideCutPath
10
6.5
20
14.791125
11
6.5
21
15.779375
0
LINE
8
back_outsideCutPath
10
6.5
20
15.779375
11
6.382
21
15.779375
0
LINE
8
back_outsideCutPath
10
6.382
20
15.779375
11
6.382
21
16.767625
0
LINE
8
back_outsideCutPath
10
6.382
20
16.767625
11
6.5
21
16.767625
0
LINE
8
back_outsideCutPath
10
6.5
20
16.767625
11
6.5
21
17.755875
0
LINE
8
back_outsideCutPath
10
6.5
20
17.755875
11
6.382
21
17.755875
0
LINE
8
back_outsideCutPath
10
6.382
20
17.755875
11
6.382
21
18.744125
0
LINE
8
back_outsideCutPath
10
6.382
20
18.744125
11
6.5
21
18.744125
0
LINE
8
back_outsideCutPath
10
6.5
20
18.744125
11
6.5
21
19.732375
0
LINE
8
back_outsideCutPath
10
6.5
20
19.732375
11
6.382
21
19.732375
0
LINE
8
back_outsideCutPath
10
6.382
20
19.732375
11
6.382
21
20.720625
0
LINE
8
back_outsideCutPath
10
6.382
20
20.720625
11
6.5
21
20.720625
0
LINE
8
back_outsideCutPath
10
6.5
20
20.720625
11
6.5
21
21.708875
0
LINE
8
back_outsideCutPath
10
6.5
20
21.708875
11
6.382
21
21.708875
0
LINE
8
back_outsideCutPath
10
6.382
20
21.708875
11
6.382
21
22.697125
0
LINE
8
back_outsideCutPath
10
6.382
20
22.697125
11
6.5
21
22.697125
0
LINE
8
back_outsideCutPath
10
6.5
20
22.697125
11
6.5
21
23.685375
0
LINE
8
back_outsideCutPath
10
6.5
20
23.685375
11
6.5
21
24.25
0
LINE
8
back_outsideCutPath
10
6.5
20
24.25
11
0
21
24.25
0
LINE
8
right_outsideCutPath
10
6.743
20
24.25
11
6.743
21
22.697125
0
LINE
8
right_outsideCutPath
10
6.743
20
22.697125
11
6.625
21
22.697125
0
LINE
8
right_outsideCutPath
10
6.625
20
22.697125
11
6.625
21
21.708875
0
LINE
8
right_outsideCutPath
10
6.625
20
21.708875
11
6.743
21
21.708875
0
LINE
8
right_outsideCutPath
10
6.743
20
21.708875
11
6.743
21
20.720625
0
LINE
8
right_outsideCutPath
10
6.743
20
20.720625
11
6.625
21
20.720625
0
LINE
8
right_outsideCutPath
10
6.625
20
20.720625
11
6.625
21
19.732375
0
LINE
8
right_outsideCutPath
10
6.625
20
19.732375
11
6.743
21
19.732375
0
LINE
8
right_outsideCutPath
10
6.743
20
19.732375
11
6.743
21
18.744125
0
LINE
8
right_outsideCutPath
10
6.743
20
18.744125
11
6.625
21
18.744125
0
LINE
8
right_outsideCutPath
10
6.625
20
18.744125
11
6.625
21
17.755875
0
LINE
8
right_outsideCutPath
10
6.625
20
17.755875
11
6.743
21
17.755875
0
LINE
8
right_outsideCutPath
10
6.743
20
17.755875
11
6.743
21
16.767625
0
LINE
8
right_outsideCutPath
10
6.743
20
16.767625
11
6.625
21
16.767625
0
LINE
8
right_outsideCutPath
10
6.625
20
16.767625
11
6.625
21
15.779375
0
LINE
8
right_outsideCutPath
10
6.625
20
15.779375
11
6.743
21
15.779375
0
LINE
8
right_outsideCutPath
10
6.743
20
15.779375
11
6.743
21
14.791125
0
LINE
8
right_outsideCutPath
10
6.743
20
14.791125
11
6.625
21
14.791125
0
LINE
8
right_outsideCutPath
10
6.625
20
14.791125
11
6.625
21
13.802875
0
LINE
8
right_outsideCutPath
10
6.625
20
13.802875
11
6.743
21
13.802875
0
LINE
8
right_outsideCutPath
10
6.743
20
13.802875
11
6.743
21
12.814625
0
LINE
8
right_outsideCutPath
10
6.743
20
12.814625
11
6.743
21
12.25
0
LINE
8
right_outsideCutPath
10
6.743
20
12.25
11
7.630875
21
12.25
0
LINE
8
right_outsideCutPath
10
7.630875
20
12.25
11
7.630875
21
12.368
0
LINE
8
right_outsideCutPath
10
7.630875
20
12.368
11
8.619125
21
12.368
0
LINE
8
right_outsideCutPath
10
8.619125
20
12.368
11
8.619125
21
12.25
0
LINE
8
right_outsideCutPath
10
8.619125
20
12.25
11
9.507
21
12.25
0
LINE
8
right_outsideCutPath
10
9.507
20
12.25
11
9.507
21
13.802875
0
LINE
8
right_outsideCutPath
10
9.507
20
13.802875
11
9.625
21
13.802875
0
LINE
8
right_outsideCutPath
10
9.625
20
13.802875
11
9.625
21
14.791125
0
LINE
8
right_outsideCutPath
10
9.625
20
14.791125
11
9.507
21
14.791125
0
LINE
8
right_outsideCutPath
10
9.507
20
14.791125
11
9.507
21
15.779375
0
LINE
8
right_outsideCutPath
10
9.507
20
15.779375
11
9.625
21
15.779375
0
LINE
8
right_outsideCutPath
10
9.625
20
15.779375
11
9.625
21
16.767625
0
LINE
8
right_outsideCutPath
10
9.625
20
16.767625
11
9.507
21
16.767625
0
LINE
8
right_outsideCutPath
10
9.507
20
16.767625
11
9.507
21
17.755875
0
LINE
8
right_outsideCutPath
10
9.507
20
17.755875
11
9.625
21
17.755875
0
LINE
8
right_outsideCutPath
10
9.625
20
17.755875
11
9.625
21
18.744125
0
LINE
8
right_outsideCutPath
10
9.625
20
18.744125
11
9.507
21
18.744125
0
LINE
8
right_outsideCutPath
10
9.507
20
18.744125
11
9.507
21
19.732375
0
LINE
8
right_outsideCutPath
10
9.507
20
19.732375
11
9.625
21
19.732375
0
LINE
8
right_outsideCutPath
10
9.625
20
19.732375
11
9.625
21
20.720625
0
LINE
8
right_outsideCutPath
10
9.625
20
20.720625
11
9.507
21
20.720625
0
LINE
8
right_outsideCutPath
10
9.507
20
20.720625
11
9.507
21
21.708875
0
LINE
8
right_outsideCutPath
10
9.507
20
21.708875
11
9.625
21
21.708875
0
LINE
8
right_outsideCutPath
10
9.625
20
21.708875
11
9.625
21
22.697125
0
LINE
8
right_outsideCutPath
10
9.625
20
22.697125
11
9.507
21
22.697125
0
LINE
8
right_outsideCutPath
10
9.507
20
22.697125
11
9.507
21
23.685375
0
LINE
8
right_outsideCutPath
10
9.507
20
23.685375
11
9.507
21
24.25
0
LINE
8
right_outsideCutPath
10
9.507
20
24.25
11
6.743
21
24.25
0
LINE
8
bottom_outsideCutPath
10
9.868
20
3.007
11
9.868
21
2.119125
0
LINE
8
bottom_outsideCutPath
10
9.868
20
2.119125
11
9.75
21
2.119125
0
LINE
8
bottom_outsideCutPath
10
9.75
20
2.119125
11
9.75
21
1.130875
0
LINE
8
bottom_outsideCutPath
10
9.75
20
1.130875
11
9.868
21
1.130875
0
LINE
8
bottom_outsideCutPath
10
9.868
20
1.130875
11
9.868
21
0.243
0
LINE
8
bottom_outsideCutPath
10
9.868
20
0.243
11
10.529375
21
0.243
0
LINE
8
bottom_outsideCutPath
10
10.529375
20
0.243
11
10.529375
21
0.125
0
LINE
8
bottom_outsideCutPath
10
10.529375
20
0.125
11
11.517625
21
0.125
0
LINE
8
bottom_outsideCutPath
10
11.517625
20
0.125
11
11.517625
21
0.243
0
LINE
8
bottom_outsideCutPath
10
11.517625
20
0.243
11
12.505875
21
0.243
0
LINE
8
bottom_outsideCutPath
10
12.505875
20
0.243
11
12.505875
21
0.125
0
LINE
8
bottom_outsideCutPath
10
12.505875
20
0.125
11
13.494125
21
0.125
0
LINE
8
bottom_outsideCutPath
10
13.494125
20
0.125
11
13.494125
21
0.243
0
LINE
8
bottom_outsideCutPath
10
13.494125
20
0.243
11
14.482375
21
0.243
0
LINE
8
bottom_outsideCutPath
10
14.482375
20
0.243
11
14.482375
21
0.125
0
LINE
8
bottom_outsideCutPath
10
14.482375
20
0.125
11
15.470625
21
0.125
0
LINE
8
bottom_outsideCutPath
10
15.470625
20
0.125
11
15.470625
21
0.243
0
LINE
8
bottom_outsideCutPath
10
15.470625
20
0.243
11
16.132
21
0.243
0
LINE
8
bottom_outsideCutPath
10
16.132
20
0.243
11
16.132
21
1.130875
0
LINE
8
bottom_outsideCutPath
10
16.132
20
1.130875
11
16.25
21
1.130875
0
LINE
8
bottom_outsideCutPath
10
16.25
20
1.130875
11
16.25
21
2.119125
0
LINE
8
bottom_outsideCutPath
10
16.25
20
2.119125
11
16.132
21
2.119125
0
LINE
8
bottom_outsideCutPath
10
16.132
20
2.119125
11
16.132
21
3.007
0
LINE
8
bottom_outsideCutPath
10
16.132
20
3.007
11
15.470625
21
3.007
0
LINE
8
bottom_outsideCutPath
10
15.470625
20
3.007
11
15.470625
21
3.125
0
LINE
8
bottom_outsideCutPath
10
15.470625
20
3.125
11
14.482375
21
3.125
0
LINE
8
bottom_outsideCutPath
10
14.482375
20
3.125
11
14.482375
21
3.007
0
LINE
8
bottom_outsideCutPath
10
14.482375
20
3.007
11
13.494125
21
3.007
0
LINE
8
bottom_outsideCutPath
10
13.494125
20
3.007
11
13.494125
21
3.125
0
LINE
8
bottom_outsideCutPath
10
13.494125
20
3.125
11
12.505875
21
3.125
0
LINE
8
bottom_outsideCutPath
10
12.505875
20
3.125
11
12.505875
21
3.007
0
LINE
8
bottom_outsideCutPath
10
12.505875
20
3.007
11
11.517625
21
3.007
0
LINE
8
bottom_outsideCutPath
10
11.517625
20
3.007
11
11.517625
21
3.125
0
LINE
8
bottom_outsideCutPath
10
11.517625
20
3.125
11
10.529375
21
3.125
0
LINE
8
bottom_outsideCutPath
10
10.529375
20
3.125
11
10.529375
21
3.007
0
LINE
8
bottom_outsideCutPath
10
10.529375
20
3.007
11
9.868
21
3.007
0
ENDSEC
0
EOF