0
SECTION
2
HEADER
9
$INSUNITS
70
4
9
$ACADVER
1
AC1014
9
$HANDSEED
5
FFFF
0
ENDSEC
0
SECTION
2
TABLES
0
TABLE
2
VPORT
5
8
100
AcDbSymbolTable
0
ENDTAB
0
TABLE
2
LTYPE
5
5
100
AcDbSymbolTable
0
LTYPE
5
14
100
AcDbSymbolTableRecord
100
AcDbLinetypeTableRecord
2
BYBLOCK
70
0
0
LTYPE
5
15
100
AcDbSymbolTableRecord
100
AcDbLinetypeTableRecord
2
BYLAYER
70
0
0
ENDTAB
0
TABLE
2
LAYER
5
2
100
AcDbSymbolTable
70
2
0
LAYER
5
50
100
AcDbSymbolTableRecord
100
AcDbLayerTableRecord
2
0
70
0
6
CONTINUOUS
0
ENDTAB
0
TABLE
2
STYLE
5
3
100
AcDbSymbolTable
70
1
0
STYLE
5
11
100
AcDbSymbolTableRecord
100
AcDbTextStyleTableRecord
2
STANDARD
70
0
0
ENDTAB
0
TABLE
2
VIEW
5
6
100
AcDbSymbolTable
70
0
0
ENDTAB
0
TABLE
2
UCS
5
7
100
AcDbSymbolTable
70
0
0
ENDTAB
0
TABLE
2
APPID
5
9
100
AcDbSymbolTable
70
2
0
APPID
5
12
100
AcDbSymbolTableRecord
100
AcDbRegAppTableRecord
2
ACAD
70
0
0
ENDTAB
0
TABLE
2
DIMSTYLE
5
A
100
AcDbSymbolTable
70
1
0
ENDTAB
0
TABLE
2
BLOCK_RECORD
5
1
100
AcDbSymbolTable
70
1
0
BLOCK_RECORD
5
1F
100
AcDbSymbolTableRecord
100
AcDbBlockTableRecord
2
*MODEL_SPACE
0
BLOCK_RECORD
5
1B
100
AcDbSymbolTableRecord
100
AcDbBlockTableRecord
2
*PAPER_SPACE
0
ENDTAB
0
ENDSEC
0
SECTION
2
BLOCKS
0
BLOCK
5
20
100
AcDbEntity
100
AcDbBlockBegin
2
*MODEL_SPACE
0
ENDBLK
5
21
100
AcDbEntity
100
AcDbBlockEnd
0
BLOCK
5
1C
100
AcDbEntity
100
AcDbBlockBegin
2
*PAPER_SPACE
0
ENDBLK
5
1D
100
AcDbEntity
100
AcDbBlockEnd
0
ENDSEC
0
SECTION
2
ENTITIES
0
LWPOLYLINE
5
100
100
AcDbEntity
8
0
100
AcDbPolyline
90
27
70
1
43
0.0
10
-68.625000000002387
20
15.462499999999938
10
-68.625000000002373
20
13.962499999999245
10
-66.625000000002373
20
13.962499999999276
10
-66.625000000002402
20
10.96249999999927
10
-68.624999999999787
20
10.962499999999295
10
-68.624999999995808
20
6.7124999999992809
10
-70.87499999999801
20
6.7124999999992809
10
-70.874999999999801
20
8.7124999999992774
10
-72.875000000000028
20
8.7124999999992809
10
-72.875000000000028
20
6.7124999999992809
10
-77.375000000000085
20
6.7124999999992818
10
-77.375000000000085
20
-3.787500000000088
10
30.874999999999932
20
-3.7875000000000894
10
30.874999999999936
20
15.462499999999917
10
23.760267664887763
20
15.462499999999919
42
-0.52851769144083138
10
24.08661770423862
20
7.619999999923178
42
-1.0523731258282512
10
18.040000000000003
20
0.30880020556696197
10
18.039999999999999
20
-0.28750000000008691
10
-12.960000000000004
20
-0.28750000000008691
10
-12.95999999999999
20
0.65405323231129475
42
-0.99351595566838491
10
-20.100757968179323
20
6.919494687803633
42
-0.47605937573500673
10
-26.310000000000002
20
10.896989681073707
10
-26.310000000000002
20
-0.28750000000008713
10
-57.310000000000009
20
-0.28750000000008691
10
-57.310000000000002
20
1.5725013965716812
42
-1.2485276053611418
10
-64.336617704238662
20
7.6199999999231753
42
-0.52851769144083183
10
-64.010267664887778
20
15.462499999999931
0
LWPOLYLINE
5
101
100
AcDbEntity
8
0
100
AcDbPolyline
90
6
70
1
43
0.0
10
-12.960000000000003
20
6.9659467675350744
42
0.29922839113081701
10
-17.999242031820692
20
8.3205053120427195
42
0.46094811201488539
10
-19.079732335112247
20
15.462499999999926
10
18.73973233511223
20
15.462499999999917
42
0.080559893224135856
10
17.593985264042903
20
14.462499999999769
10
-12.960000000000004
20
14.462499999999777
0
CIRCLE
5
102
100
AcDbEntity
8
0
100
AcDbCircle
10
-21.590000000000003
20
11.429999999923178
30
-1.2311941719566932e-16
40
2.7499999999999991
210
4.680316867350381e-50
220
-1.882863928282555e-88
230
1
0
CIRCLE
5
103
100
AcDbEntity
8
0
100
AcDbCircle
10
-61.500000000000021
20
11.429999999923178
30
-1.2311941722798106e-16
40
2.7500000000000036
210
4.680316867350381e-50
220
-1.882863928282555e-88
230
1
0
CIRCLE
5
104
100
AcDbEntity
8
0
100
AcDbCircle
10
-61.500000000000021
20
3.8099999999231771
30
-1.3117010212686613e-16
40
2.7500000000000036
210
4.680316867350381e-50
220
-1.882863928282555e-88
230
1
0
CIRCLE
5
105
100
AcDbEntity
8
0
100
AcDbCircle
10
-16.510000000000005
20
3.8099999999231771
30
-1.3117010209455439e-16
40
2.7499999999999991
210
4.680316867350381e-50
220
-1.882863928282555e-88
230
1
0
CIRCLE
5
106
100
AcDbEntity
8
0
100
AcDbCircle
10
21.25
20
3.8099999999231771
30
-1.3117010209455439e-16
40
2.7499999999999991
210
4.680316867350381e-50
220
-1.882863928282555e-88
230
1
0
CIRCLE
5
107
100
AcDbEntity
8
0
100
AcDbCircle
10
21.25
20
11.429999999923178
30
-1.2311941719566932e-16
40
2.7499999999999991
210
4.680316867350381e-50
220
-1.882863928282555e-88
230
1
0
LWPOLYLINE
5
108
100
AcDbEntity
8
0
100
AcDbPolyline
90
6
70
1
43
0.0
10
-57.309999999999981
20
13.667498603274634
42
0.1316291290280322
10
-58.989732335112265
20
15.462499999999931
10
-24.10026766488776
20
15.462499999999926
42
0.22928076895881677
10
-26.310000000000002
20
11.963010318772643
10
-26.310000000000002
20
14.462499999999778
10
-57.309999999999988
20
14.46249999999978
0
LINE
5
109
100
AcDbEntity
8
0
100
AcDbLine
10
29.374999999999936
20
-2.2875000000000867
30
-4.718717343832007e-17
11
-77.375000000000071
21
-2.2875000000000876
31
-4.718717343832007e-17
0
LINE
5
110
100
AcDbEntity
8
0
100
AcDbLine
10
-77.375000000000071
20
-15.462499999998347
30
-3.8510398062187479e-16
11
-77.375000000000085
21
15.462500000001567
31
-3.8510398062187479e-16
0
LINE
5
111
100
AcDbEntity
8
0
100
AcDbLine
10
29.374999999999936
20
15.46249999999991
30
-1.6284085892913625e-16
11
29.374999999999936
21
-2.2875000000000867
31
-4.718717343832007e-17
0
ENDSEC
0
SECTION
2
OBJECTS
0
DICTIONARY
5
C
100
AcDbDictionary
3
ACAD_GROUP
350
D
3
ACAD_MLINESTYLE
350
17
0
DICTIONARY
5
D
100
AcDbDictionary
0
DICTIONARY
5
1A
330
C
100
AcDbDictionary
0
DICTIONARY
5
17
100
AcDbDictionary
0
ENDSEC
0
EOF
