0
SECTION
2
HEADER
9
$INSUNITS
70
1
9
$ACADVER
1
AC1014
9
$HANDSEED
5
FFFF
0
ENDSEC
0
SECTION
2
TABLES
0
TABLE
2
VPORT
5
8
100
AcDbSymbolTable
0
ENDTAB
0
TABLE
2
LTYPE
5
5
100
AcDbSymbolTable
0
LTYPE
5
14
100
AcDbSymbolTableRecord
100
AcDbLinetypeTableRecord
2
BYBLOCK
70
0
0
LTYPE
5
15
100
AcDbSymbolTableRecord
100
AcDbLinetypeTableRecord
2
BYLAYER
70
0
0
ENDTAB
0
TABLE
2
LAYER
5
2
100
AcDbSymbolTable
70
2
0
LAYER
5
50
100
AcDbSymbolTableRecord
100
AcDbLayerTableRecord
2
0
70
0
6
CONTINUOUS
0
ENDTAB
0
TABLE
2
STYLE
5
3
100
AcDbSymbolTable
70
1
0
STYLE
5
11
100
AcDbSymbolTableRecord
100
AcDbTextStyleTableRecord
2
STANDARD
70
0
0
ENDTAB
0
TABLE
2
VIEW
5
6
100
AcDbSymbolTable
70
0
0
ENDTAB
0
TABLE
2
UCS
5
7
100
AcDbSymbolTable
70
0
0
ENDTAB
0
TABLE
2
APPID
5
9
100
AcDbSymbolTable
70
2
0
APPID
5
12
100
AcDbSymbolTableRecord
100
AcDbRegAppTableRecord
2
ACAD
70
0
0
ENDTAB
0
TABLE
2
DIMSTYLE
5
A
100
AcDbSymbolTable
70
1
0
ENDTAB
0
TABLE
2
BLOCK_RECORD
5
1
100
AcDbSymbolTable
70
1
0
BLOCK_RECORD
5
1F
100
AcDbSymbolTableRecord
100
AcDbBlockTableRecord
2
*MODEL_SPACE
0
BLOCK_RECORD
5
1B
100
AcDbSymbolTableRecord
100
AcDbBlockTableRecord
2
*PAPER_SPACE
0
ENDTAB
0
ENDSEC
0
SECTION
2
BLOCKS
0
BLOCK
5
20
100
AcDbEntity
100
AcDbBlockBegin
2
*MODEL_SPACE
0
ENDBLK
5
21
100
AcDbEntity
100
AcDbBlockEnd
0
BLOCK
5
1C
100
AcDbEntity
100
AcDbBlockBegin
2
*PAPER_SPACE
0
ENDBLK
5
1D
100
AcDbEntity
100
AcDbBlockEnd
0
ENDSEC
0
SECTION
2
ENTITIES
0
SPLINE
5
100
100
AcDbEntity
8
0
100
AcDbSpline
70
4
71
5
72
31
73
25
74
0
42
0.000000001
43
0.0000000001
44
0.0000000001
40
0
40
0
40
0
40
0
40
0
40
0
40
0.050000000000000003
40
0.10000000000000001
40
0.15000000000000002
40
0.20000000000000001
40
0.25
40
0.29999999999999999
40
0.34999999999999998
40
0.39999999999999997
40
0.44999999999999996
40
0.49999999999999994
40
0.54999999999999993
40
0.59999999999999998
40
0.65000000000000002
40
0.70000000000000007
40
0.75000000000000011
40
0.80000000000000016
40
0.8500000000000002
40
0.90000000000000024
40
0.95000000000000029
40
1
40
1
40
1
40
1
40
1
40
1
41
1
41
1
41
1
41
1
41
1
41
1
41
1
41
1
41
1
41
1
41
1
41
1
41
1
41
1
41
1
41
1
41
1
41
1
41
1
41
1
41
1
41
1
41
1
41
1
41
1
10
-20.908629674158373
20
-0.88653399425709667
30
0
10
-20.540433304481123
20
-0.88582827306485046
30
0
10
-19.811661565574028
20
-0.88559480392442391
30
0
10
-18.741366932706015
20
-0.88877851518828388
30
0
10
-17.360220163842531
20
-0.90012016482864121
30
0
10
-15.711455510240803
20
-0.92648568800811437
30
0
10
-14.141879407266234
20
-0.9658266527970526
30
0
10
-12.653027168678534
20
-1.0194908668498568
30
0
10
-11.246012486187459
20
-1.0895158673927829
30
0
10
-9.9210659087559652
20
-1.1787600863907115
30
0
10
-8.6768944703961157
20
-1.2910190269989257
30
0
10
-7.5102526051580085
20
-1.4311708802133394
30
0
10
-6.4173632309514161
20
-1.6054924378235043
30
0
10
-5.3951073499058007
20
-1.8219804231010543
30
0
10
-4.4421473725637153
20
-2.0906043920646886
30
0
10
-3.5602116461462634
20
-2.4237150288872775
30
0
10
-2.7546920883375483
20
-2.8359356155529922
30
0
10
-2.0325585993873805
20
-3.3419718328062893
30
0
10
-1.4007905774850522
20
-3.9548575581621019
30
0
10
-0.86423287427962947
20
-4.6835407448144117
30
0
10
-0.42449618553322516
20
-5.5317538353662759
30
0
10
-0.15009541040352695
20
-6.3065512552248908
30
0
10
0.012559918038810384
20
-6.9414241363626141
30
0
10
0.10189790712674271
20
-7.3884770080429281
30
0
10
0.14179224449494168
20
-7.6179544283032135
30
0
0
SPLINE
5
101
100
AcDbEntity
8
0
100
AcDbSpline
70
4
71
5
72
46
73
40
74
0
42
0.000000001
43
0.0000000001
44
0.0000000001
40
0
40
0
40
0
40
0
40
0
40
0
40
0.028571428571428571
40
0.057142857142857141
40
0.085714285714285715
40
0.11428571428571428
40
0.14285714285714285
40
0.17142857142857143
40
0.20000000000000001
40
0.22857142857142859
40
0.25714285714285717
40
0.28571428571428575
40
0.31428571428571433
40
0.34285714285714292
40
0.3714285714285715
40
0.40000000000000008
40
0.42857142857142866
40
0.45714285714285724
40
0.48571428571428582
40
0.51428571428571435
40
0.54285714285714293
40
0.57142857142857151
40
0.60000000000000009
40
0.62857142857142867
40
0.65714285714285725
40
0.68571428571428583
40
0.71428571428571441
40
0.74285714285714299
40
0.77142857142857157
40
0.80000000000000016
40
0.82857142857142874
40
0.85714285714285732
40
0.8857142857142859
40
0.91428571428571448
40
0.94285714285714306
40
0.97142857142857164
40
1
40
1
40
1
40
1
40
1
40
1
41
1
41
1
41
1
41
1
41
1
41
1
41
1
41
1
41
1
41
1
41
1
41
1
41
1
41
1
41
1
41
1
41
1
41
1
41
1
41
1
41
1
41
1
41
1
41
1
41
1
41
1
41
1
41
1
41
1
41
1
41
1
41
1
41
1
41
1
41
1
41
1
41
1
41
1
41
1
41
1
10
0.14179224449494168
20
-7.6179544283032135
30
0
10
0.17427289775463023
20
-7.8424971284623126
30
0
10
0.23639999647749954
20
-8.2759231963067439
30
0
10
0.32108823909731932
20
-8.879103194633025
30
0
10
0.41697657651197961
20
-9.5891359949022039
30
0
10
0.50863621643341861
20
-10.332581578407568
30
0
10
0.5728336455307359
20
-10.968918923024209
30
0
10
0.611291641437399
20
-11.579170923700337
30
0
10
0.62672153204568559
20
-12.271310203188781
30
0
10
0.62254158780236302
20
-13.138687495485366
30
0
10
0.6026937709880158
20
-14.224899344805232
30
0
10
0.57100282652064893
20
-15.533462151713527
30
0
10
0.53054341756500412
20
-17.03954125942661
30
0
10
0.48300115466769378
20
-18.700651025160404
30
0
10
0.42803181106238336
20
-20.467639685688056
30
0
10
0.36260856298267224
20
-22.295510218030465
30
0
10
0.2812594730007385
20
-24.143596363785644
30
0
10
0.17629756613011993
20
-25.975680420148368
30
0
10
0.038046559961935809
20
-27.760152160926527
30
0
10
-0.14494892100657547
20
-29.470182937014222
30
0
10
-0.38569415107291827
20
-31.08391008874699
30
0
10
-0.6985732870656961
20
-32.584687508626999
30
0
10
-1.0990196537887715
20
-33.96124531999574
30
0
10
-1.6021098917463417
20
-35.20709134379608
30
0
10
-2.2212795115116566
20
-36.320023925077557
30
0
10
-2.966944001205198
20
-37.301647420965885
30
0
10
-3.8451996514516602
20
-38.156910067950946
30
0
10
-4.8562718483962879
20
-38.893706607065589
30
0
10
-5.9958861947972126
20
-39.521887146365465
30
0
10
-7.2568617586272586
20
-40.052237427349361
30
0
10
-8.6306188856415691
20
-40.49546820373714
30
0
10
-10.108636668039727
20
-40.861260381525824
30
0
10
-11.684077398815598
20
-41.157170830747283
30
0
10
-13.35179452562841
20
-41.38876082268424
30
0
10
-15.108050778299566
20
-41.559938690112247
30
0
10
-16.950335119939268
20
-41.673225732131172
30
0
10
-18.491774752537108
20
-41.718687925534233
30
0
10
-19.685558907707616
20
-41.727659448293998
30
0
10
-20.498150215400013
20
-41.722488619849351
30
0
10
-20.908629674158373
20
-41.717115241909369
30
0
0
LINE
5
102
100
AcDbEntity
8
0
100
AcDbLine
10
-20.908629674158373
20
-0.88653399425709667
30
0
11
-20.908629674158373
21
-41.717115241909369
31
0
0
SPLINE
5
103
100
AcDbEntity
8
0
100
AcDbSpline
70
4
71
5
72
31
73
25
74
0
42
0.000000001
43
0.0000000001
44
0.0000000001
40
0
40
0
40
0
40
0
40
0
40
0
40
0.050000000000000003
40
0.10000000000000001
40
0.15000000000000002
40
0.20000000000000001
40
0.25
40
0.29999999999999999
40
0.34999999999999998
40
0.39999999999999997
40
0.44999999999999996
40
0.49999999999999994
40
0.54999999999999993
40
0.59999999999999998
40
0.65000000000000002
40
0.70000000000000007
40
0.75000000000000011
40
0.80000000000000016
40
0.8500000000000002
40
0.90000000000000024
40
0.95000000000000029
40
1
40
1
40
1
40
1
40
1
40
1
41
1
41
1
41
1
41
1
41
1
41
1
41
1
41
1
41
1
41
1
41
1
41
1
41
1
41
1
41
1
41
1
41
1
41
1
41
1
41
1
41
1
41
1
41
1
41
1
41
1
10
-20.908629674158373
20
-0.88653399425709667
30
0
10
-21.276826043835623
20
-0.88582827306485046
30
0
10
-22.005597782742718
20
-0.88559480392442391
30
0
10
-23.075892415610735
20
-0.88877851518828388
30
0
10
-24.457039184474219
20
-0.90012016482864121
30
0
10
-26.105803838075943
20
-0.92648568800811437
30
0
10
-27.675379941050519
20
-0.9658266527970526
30
0
10
-29.164232179638216
20
-1.0194908668498568
30
0
10
-30.571246862129289
20
-1.0895158673927829
30
0
10
-31.896193439560783
20
-1.1787600863907115
30
0
10
-33.140364877920632
20
-1.2910190269989257
30
0
10
-34.307006743158745
20
-1.4311708802133394
30
0
10
-35.39989611736533
20
-1.6054924378235043
30
0
10
-36.422151998410953
20
-1.8219804231010543
30
0
10
-37.375111975753029
20
-2.0906043920646886
30
0
10
-38.257047702170489
20
-2.4237150288872775
30
0
10
-39.062567259979204
20
-2.8359356155529922
30
0
10
-39.784700748929367
20
-3.3419718328062893
30
0
10
-40.416468770831692
20
-3.9548575581621019
30
0
10
-40.953026474037117
20
-4.6835407448144117
30
0
10
-41.392763162783524
20
-5.5317538353662759
30
0
10
-41.667163937913223
20
-6.3065512552248908
30
0
10
-41.829819266355557
20
-6.9414241363626141
30
0
10
-41.919157255443487
20
-7.3884770080429281
30
0
10
-41.95905159281169
20
-7.6179544283032135
30
0
0
SPLINE
5
104
100
AcDbEntity
8
0
100
AcDbSpline
70
4
71
5
72
46
73
40
74
0
42
0.000000001
43
0.0000000001
44
0.0000000001
40
0
40
0
40
0
40
0
40
0
40
0
40
0.028571428571428571
40
0.057142857142857141
40
0.085714285714285715
40
0.11428571428571428
40
0.14285714285714285
40
0.17142857142857143
40
0.20000000000000001
40
0.22857142857142859
40
0.25714285714285717
40
0.28571428571428575
40
0.31428571428571433
40
0.34285714285714292
40
0.3714285714285715
40
0.40000000000000008
40
0.42857142857142866
40
0.45714285714285724
40
0.48571428571428582
40
0.51428571428571435
40
0.54285714285714293
40
0.57142857142857151
40
0.60000000000000009
40
0.62857142857142867
40
0.65714285714285725
40
0.68571428571428583
40
0.71428571428571441
40
0.74285714285714299
40
0.77142857142857157
40
0.80000000000000016
40
0.82857142857142874
40
0.85714285714285732
40
0.8857142857142859
40
0.91428571428571448
40
0.94285714285714306
40
0.97142857142857164
40
1
40
1
40
1
40
1
40
1
40
1
41
1
41
1
41
1
41
1
41
1
41
1
41
1
41
1
41
1
41
1
41
1
41
1
41
1
41
1
41
1
41
1
41
1
41
1
41
1
41
1
41
1
41
1
41
1
41
1
41
1
41
1
41
1
41
1
41
1
41
1
41
1
41
1
41
1
41
1
41
1
41
1
41
1
41
1
41
1
41
1
10
-41.95905159281169
20
-7.6179544283032135
30
0
10
-41.99153224607138
20
-7.8424971284623126
30
0
10
-42.053659344794248
20
-8.2759231963067439
30
0
10
-42.138347587414067
20
-8.879103194633025
30
0
10
-42.234235924828731
20
-9.5891359949022039
30
0
10
-42.325895564750162
20
-10.332581578407568
30
0
10
-42.390092993847482
20
-10.968918923024209
30
0
10
-42.42855098975415
20
-11.579170923700337
30
0
10
-42.443980880362439
20
-12.271310203188781
30
0
10
-42.439800936119113
20
-13.138687495485366
30
0
10
-42.419953119304765
20
-14.224899344805232
30
0
10
-42.388262174837401
20
-15.533462151713527
30
0
10
-42.347802765881752
20
-17.03954125942661
30
0
10
-42.300260502984443
20
-18.700651025160404
30
0
10
-42.245291159379136
20
-20.467639685688056
30
0
10
-42.179867911299418
20
-22.295510218030465
30
0
10
-42.098518821317484
20
-24.143596363785644
30
0
10
-41.99355691444687
20
-25.975680420148368
30
0
10
-41.85530590827868
20
-27.760152160926527
30
0
10
-41.672310427310173
20
-29.470182937014222
30
0
10
-41.431565197243827
20
-31.08391008874699
30
0
10
-41.118686061251047
20
-32.584687508626999
30
0
10
-40.718239694527973
20
-33.96124531999574
30
0
10
-40.215149456570408
20
-35.20709134379608
30
0
10
-39.595979836805093
20
-36.320023925077557
30
0
10
-38.850315347111554
20
-37.301647420965885
30
0
10
-37.972059696865088
20
-38.156910067950946
30
0
10
-36.960987499920464
20
-38.893706607065589
30
0
10
-35.821373153519538
20
-39.521887146365465
30
0
10
-34.560397589689487
20
-40.052237427349361
30
0
10
-33.186640462675179
20
-40.49546820373714
30
0
10
-31.708622680277024
20
-40.861260381525824
30
0
10
-30.13318194950115
20
-41.157170830747283
30
0
10
-28.46546482268834
20
-41.38876082268424
30
0
10
-26.709208570017182
20
-41.559938690112247
30
0
10
-24.866924228377481
20
-41.673225732131172
30
0
10
-23.325484595779642
20
-41.718687925534233
30
0
10
-22.131700440609134
20
-41.727659448293998
30
0
10
-21.319109132916736
20
-41.722488619849351
30
0
10
-20.908629674158373
20
-41.717115241909369
30
0
0
ENDSEC
0
SECTION
2
OBJECTS
0
DICTIONARY
5
C
100
AcDbDictionary
3
ACAD_GROUP
350
D
3
ACAD_MLINESTYLE
350
17
0
DICTIONARY
5
D
100
AcDbDictionary
0
DICTIONARY
5
1A
330
C
100
AcDbDictionary
0
DICTIONARY
5
17
100
AcDbDictionary
0
ENDSEC
0
EOF
