0
SECTION
2
HEADER
9
$INSUNITS
70
1
9
$ACADVER
1
AC1014
9
$HANDSEED
5
FFFF
0
ENDSEC
0
SECTION
2
TABLES
0
TABLE
2
VPORT
5
8
100
AcDbSymbolTable
0
ENDTAB
0
TABLE
2
LTYPE
5
5
100
AcDbSymbolTable
0
LTYPE
5
14
100
AcDbSymbolTableRecord
100
AcDbLinetypeTableRecord
2
BYBLOCK
70
0
0
LTYPE
5
15
100
AcDbSymbolTableRecord
100
AcDbLinetypeTableRecord
2
BYLAYER
70
0
0
ENDTAB
0
TABLE
2
LAYER
5
2
100
AcDbSymbolTable
70
2
0
LAYER
5
50
100
AcDbSymbolTableRecord
100
AcDbLayerTableRecord
2
0
70
0
6
CONTINUOUS
0
ENDTAB
0
TABLE
2
STYLE
5
3
100
AcDbSymbolTable
70
1
0
STYLE
5
11
100
AcDbSymbolTableRecord
100
AcDbTextStyleTableRecord
2
STANDARD
70
0
0
ENDTAB
0
TABLE
2
VIEW
5
6
100
AcDbSymbolTable
70
0
0
ENDTAB
0
TABLE
2
UCS
5
7
100
AcDbSymbolTable
70
0
0
ENDTAB
0
TABLE
2
APPID
5
9
100
AcDbSymbolTable
70
2
0
APPID
5
12
100
AcDbSymbolTableRecord
100
AcDbRegAppTableRecord
2
ACAD
70
0
0
ENDTAB
0
TABLE
2
DIMSTYLE
5
A
100
AcDbSymbolTable
70
1
0
ENDTAB
0
TABLE
2
BLOCK_RECORD
5
1
100
AcDbSymbolTable
70
1
0
BLOCK_RECORD
5
1F
100
AcDbSymbolTableRecord
100
AcDbBlockTableRecord
2
*MODEL_SPACE
0
BLOCK_RECORD
5
1B
100
AcDbSymbolTableRecord
100
AcDbBlockTableRecord
2
*PAPER_SPACE
0
ENDTAB
0
ENDSEC
0
SECTION
2
BLOCKS
0
BLOCK
5
20
100
AcDbEntity
100
AcDbBlockBegin
2
*MODEL_SPACE
0
ENDBLK
5
21
100
AcDbEntity
100
AcDbBlockEnd
0
BLOCK
5
1C
100
AcDbEntity
100
AcDbBlockBegin
2
*PAPER_SPACE
0
ENDBLK
5
1D
100
AcDbEntity
100
AcDbBlockEnd
0
ENDSEC
0
SECTION
2
ENTITIES
0
LINE
5
100
100
AcDbEntity
8
0
100
AcDbLine
10
-21.086483996077721
20
-31.999999999999996
30
0
11
22.25205189575308
21
-31.999999999999996
31
0
0
LINE
5
101
100
AcDbEntity
8
0
100
AcDbLine
10
21.745682322600061
20
0.22997541749104103
30
0
11
22.25205189575308
21
-31.999999999999996
31
0
0
SPLINE
5
102
100
AcDbEntity
8
0
100
AcDbSpline
70
4
71
5
72
26
73
20
74
0
42
0.000000001
43
0.0000000001
44
0.0000000001
40
0
40
0
40
0
40
0
40
0
40
0
40
0.066666666666666666
40
0.13333333333333333
40
0.20000000000000001
40
0.26666666666666666
40
0.33333333333333331
40
0.39999999999999997
40
0.46666666666666662
40
0.53333333333333333
40
0.59999999999999998
40
0.66666666666666663
40
0.73333333333333328
40
0.79999999999999993
40
0.86666666666666659
40
0.93333333333333324
40
1
40
1
40
1
40
1
40
1
40
1
41
1
41
1
41
1
41
1
41
1
41
1
41
1
41
1
41
1
41
1
41
1
41
1
41
1
41
1
41
1
41
1
41
1
41
1
41
1
41
1
10
21.745682322600061
20
0.22997541749104103
30
0
10
21.713562601374722
20
0.59357759361461038
30
0
10
21.651601410585766
20
1.3342041836913265
30
0
10
21.565493755535535
20
2.4854146536899928
30
0
10
21.46445674534106
20
4.1014553651015575
30
0
10
21.359376321796628
20
6.2546259897697452
30
0
10
21.269292247263905
20
8.5278637220165621
30
0
10
21.180604571913211
20
10.890860421614992
30
0
10
21.06984827710291
20
13.284763388325302
30
0
10
20.899446778093157
20
15.623034926421738
30
0
10
20.614032086920208
20
17.816879620464018
30
0
10
20.131605795375837
20
19.802721167105531
30
0
10
19.346535037497087
20
21.555198284468318
30
0
10
18.100729158566033
20
23.14595614193696
30
0
10
16.331942909455215
20
24.563045381615737
30
0
10
14.035518160135689
20
25.746896028926315
30
0
10
11.79889987829468
20
26.443271034399459
30
0
10
9.9126644740593992
20
26.792203877048024
30
0
10
8.5649828055501658
20
26.943200646358978
30
0
10
7.8685935990781193
20
26.998292596346563
30
0
0
LINE
5
103
100
AcDbEntity
8
0
100
AcDbLine
10
0
20
26.99829259634657
30
0
11
7.8685935990781193
21
26.998292596346563
31
0
0
LINE
5
104
100
AcDbEntity
8
0
100
AcDbLine
10
-3.4967654318902565e-15
20
-31.999999999999996
30
0
11
0
21
26.99829259634657
31
0
0
LINE
5
105
100
AcDbEntity
8
0
100
AcDbLine
10
21.086483996077718
20
-31.999999999999996
30
0
11
-22.252051895753088
21
-31.999999999999996
31
0
0
LINE
5
106
100
AcDbEntity
8
0
100
AcDbLine
10
-21.745682322600061
20
0.22997541749104383
30
0
11
-22.252051895753088
21
-31.999999999999996
31
0
0
SPLINE
5
107
100
AcDbEntity
8
0
100
AcDbSpline
70
4
71
5
72
26
73
20
74
0
42
0.000000001
43
0.0000000001
44
0.0000000001
40
0
40
0
40
0
40
0
40
0
40
0
40
0.066666666666666666
40
0.13333333333333333
40
0.20000000000000001
40
0.26666666666666666
40
0.33333333333333331
40
0.39999999999999997
40
0.46666666666666662
40
0.53333333333333333
40
0.59999999999999998
40
0.66666666666666663
40
0.73333333333333328
40
0.79999999999999993
40
0.86666666666666659
40
0.93333333333333324
40
1
40
1
40
1
40
1
40
1
40
1
41
1
41
1
41
1
41
1
41
1
41
1
41
1
41
1
41
1
41
1
41
1
41
1
41
1
41
1
41
1
41
1
41
1
41
1
41
1
41
1
10
-21.745682322600064
20
0.22997541749104361
30
0
10
-21.713562601374726
20
0.59357759361461282
30
0
10
-21.651601410585769
20
1.3342041836913292
30
0
10
-21.565493755535535
20
2.485414653689995
30
0
10
-21.464456745341064
20
4.1014553651015602
30
0
10
-21.359376321796631
20
6.2546259897697478
30
0
10
-21.269292247263909
20
8.5278637220165656
30
0
10
-21.180604571913214
20
10.890860421614995
30
0
10
-21.06984827710291
20
13.284763388325304
30
0
10
-20.899446778093157
20
15.623034926421742
30
0
10
-20.614032086920208
20
17.816879620464022
30
0
10
-20.131605795375837
20
19.802721167105535
30
0
10
-19.346535037497087
20
21.555198284468322
30
0
10
-18.100729158566033
20
23.145956141936963
30
0
10
-16.331942909455215
20
24.563045381615741
30
0
10
-14.035518160135689
20
25.746896028926315
30
0
10
-11.79889987829468
20
26.443271034399459
30
0
10
-9.9126644740593992
20
26.792203877048024
30
0
10
-8.5649828055501658
20
26.943200646358978
30
0
10
-7.8685935990781193
20
26.998292596346563
30
0
0
LINE
5
108
100
AcDbEntity
8
0
100
AcDbLine
10
0
20
26.998292596346573
30
0
11
-7.8685935990781193
21
26.998292596346563
31
0
0
ENDSEC
0
SECTION
2
OBJECTS
0
DICTIONARY
5
C
100
AcDbDictionary
3
ACAD_GROUP
350
D
3
ACAD_MLINESTYLE
350
17
0
DICTIONARY
5
D
100
AcDbDictionary
0
DICTIONARY
5
1A
330
C
100
AcDbDictionary
0
DICTIONARY
5
17
100
AcDbDictionary
0
ENDSEC
0
EOF
