0
SECTION
2
HEADER
9
$INSUNITS
70
4
9
$ACADVER
1
AC1014
9
$HANDSEED
5
FFFF
0
ENDSEC
0
SECTION
2
TABLES
0
TABLE
2
VPORT
5
8
100
AcDbSymbolTable
0
ENDTAB
0
TABLE
2
LTYPE
5
5
100
AcDbSymbolTable
0
LTYPE
5
14
100
AcDbSymbolTableRecord
100
AcDbLinetypeTableRecord
2
BYBLOCK
70
0
0
LTYPE
5
15
100
AcDbSymbolTableRecord
100
AcDbLinetypeTableRecord
2
BYLAYER
70
0
0
ENDTAB
0
TABLE
2
LAYER
5
2
100
AcDbSymbolTable
70
2
0
LAYER
5
50
100
AcDbSymbolTableRecord
100
AcDbLayerTableRecord
2
0
70
0
6
CONTINUOUS
0
ENDTAB
0
TABLE
2
STYLE
5
3
100
AcDbSymbolTable
70
1
0
STYLE
5
11
100
AcDbSymbolTableRecord
100
AcDbTextStyleTableRecord
2
STANDARD
70
0
0
ENDTAB
0
TABLE
2
VIEW
5
6
100
AcDbSymbolTable
70
0
0
ENDTAB
0
TABLE
2
UCS
5
7
100
AcDbSymbolTable
70
0
0
ENDTAB
0
TABLE
2
APPID
5
9
100
AcDbSymbolTable
70
2
0
APPID
5
12
100
AcDbSymbolTableRecord
100
AcDbRegAppTableRecord
2
ACAD
70
0
0
ENDTAB
0
TABLE
2
DIMSTYLE
5
A
100
AcDbSymbolTable
70
1
0
ENDTAB
0
TABLE
2
BLOCK_RECORD
5
1
100
AcDbSymbolTable
70
1
0
BLOCK_RECORD
5
1F
100
AcDbSymbolTableRecord
100
AcDbBlockTableRecord
2
*MODEL_SPACE
0
BLOCK_RECORD
5
1B
100
AcDbSymbolTableRecord
100
AcDbBlockTableRecord
2
*PAPER_SPACE
0
ENDTAB
0
ENDSEC
0
SECTION
2
BLOCKS
0
BLOCK
5
20
100
AcDbEntity
100
AcDbBlockBegin
2
*MODEL_SPACE
0
ENDBLK
5
21
100
AcDbEntity
100
AcDbBlockEnd
0
BLOCK
5
1C
100
AcDbEntity
100
AcDbBlockBegin
2
*PAPER_SPACE
0
ENDBLK
5
1D
100
AcDbEntity
100
AcDbBlockEnd
0
ENDSEC
0
SECTION
2
ENTITIES
0
LWPOLYLINE
5
100
100
AcDbEntity
8
0
100
AcDbPolyline
90
8
70
1
43
0.0
10
-1.150000000000003
20
-16.351891727633511
10
-1.1499999999999981
20
-12.601891727633509
10
-3.7292890441571429
20
-12.601891727633509
10
-9.5326268867344854
20
-23.75
10
-31.562438118751238
20
-23.750000000000007
42
0.19408753925513778
10
-6.2499999999999867
20
-39.00240377207539
10
-6.250000000000008
20
-19.609812991260807
10
-4.5540335368598619
20
-16.351891727633511
0
LWPOLYLINE
5
101
100
AcDbEntity
8
0
100
AcDbPolyline
90
4
70
1
43
0.0
10
1.349999999999997
20
-39.62701098998005
10
1.3499999999999976
20
-41.299999999999997
10
-1.350000000000001
20
-41.299999999999997
10
-1.3499999999999301
20
-39.62701098998005
42
-58.723711844430937
0
LWPOLYLINE
5
102
100
AcDbEntity
8
0
100
AcDbPolyline
90
16
70
1
43
0.0
10
-27.913437624198135
20
-23.75
10
-9.5326268867344854
20
-23.75
10
-3.7292890441571434
20
-12.601891727633509
10
3.7292890441571434
20
-12.601891727633509
10
9.5326268867344872
20
-23.75
10
27.913437624198139
20
-23.75
42
0.60589012727817304
10
3.5430456338609773
20
36.478340527446932
10
3.5430456338609737
20
32.597011471825169
10
2.0322496371952106
20
27.138494379158221
10
0.91827535543155936
20
27.138494379158228
10
0.91827535543155692
20
36.638494379158239
42
0.012529597765794737
10
-0.91827535543154981
20
36.63849437915821
10
-0.91827535543156125
20
27.138494379158228
10
-2.0322496371952115
20
27.138494379158221
10
-3.5430456338609746
20
32.597011471825169
10
-3.5430456338609746
20
36.478340527446953
42
0.60589012727817304
0
LINE
5
103
100
AcDbEntity
8
0
100
AcDbLine
10
-9.5326268867344854
20
-23.75
30
1.1404113197056006e-79
11
-33.974120082993544
21
-23.75
31
-3.7602644300472209e-80
0
LINE
5
104
100
AcDbEntity
8
0
100
AcDbLine
10
9.5326268867344872
20
-23.75
30
-1.0911439386990159e-31
11
48.867786037368681
21
-23.749999999999979
31
1.5159559866944342e-15
0
CIRCLE
5
105
100
AcDbEntity
8
0
100
AcDbCircle
10
1.8488927466117464e-31
20
-29.75
30
2.7755575615628914e-16
40
3.0000000000000022
210
0
220
0
230
1
0
ENDSEC
0
SECTION
2
OBJECTS
0
DICTIONARY
5
C
100
AcDbDictionary
3
ACAD_GROUP
350
D
3
ACAD_MLINESTYLE
350
17
0
DICTIONARY
5
D
100
AcDbDictionary
0
DICTIONARY
5
1A
330
C
100
AcDbDictionary
0
DICTIONARY
5
17
100
AcDbDictionary
0
ENDSEC
0
EOF
