0
SECTION
2
HEADER
9
$INSUNITS
70
4
9
$ACADVER
1
AC1014
9
$HANDSEED
5
FFFF
0
ENDSEC
0
SECTION
2
TABLES
0
TABLE
2
VPORT
5
8
100
AcDbSymbolTable
0
ENDTAB
0
TABLE
2
LTYPE
5
5
100
AcDbSymbolTable
0
LTYPE
5
14
100
AcDbSymbolTableRecord
100
AcDbLinetypeTableRecord
2
BYBLOCK
70
0
0
LTYPE
5
15
100
AcDbSymbolTableRecord
100
AcDbLinetypeTableRecord
2
BYLAYER
70
0
0
ENDTAB
0
TABLE
2
LAYER
5
2
100
AcDbSymbolTable
70
2
0
LAYER
5
50
100
AcDbSymbolTableRecord
100
AcDbLayerTableRecord
2
0
70
0
6
CONTINUOUS
0
ENDTAB
0
TABLE
2
STYLE
5
3
100
AcDbSymbolTable
70
1
0
STYLE
5
11
100
AcDbSymbolTableRecord
100
AcDbTextStyleTableRecord
2
STANDARD
70
0
0
ENDTAB
0
TABLE
2
VIEW
5
6
100
AcDbSymbolTable
70
0
0
ENDTAB
0
TABLE
2
UCS
5
7
100
AcDbSymbolTable
70
0
0
ENDTAB
0
TABLE
2
APPID
5
9
100
AcDbSymbolTable
70
2
0
APPID
5
12
100
AcDbSymbolTableRecord
100
AcDbRegAppTableRecord
2
ACAD
70
0
0
ENDTAB
0
TABLE
2
DIMSTYLE
5
A
100
AcDbSymbolTable
70
1
0
ENDTAB
0
TABLE
2
BLOCK_RECORD
5
1
100
AcDbSymbolTable
70
1
0
BLOCK_RECORD
5
1F
100
AcDbSymbolTableRecord
100
AcDbBlockTableRecord
2
*MODEL_SPACE
0
BLOCK_RECORD
5
1B
100
AcDbSymbolTableRecord
100
AcDbBlockTableRecord
2
*PAPER_SPACE
0
ENDTAB
0
ENDSEC
0
SECTION
2
BLOCKS
0
BLOCK
5
20
100
AcDbEntity
100
AcDbBlockBegin
2
*MODEL_SPACE
0
ENDBLK
5
21
100
AcDbEntity
100
AcDbBlockEnd
0
BLOCK
5
1C
100
AcDbEntity
100
AcDbBlockBegin
2
*PAPER_SPACE
0
ENDBLK
5
1D
100
AcDbEntity
100
AcDbBlockEnd
0
ENDSEC
0
SECTION
2
ENTITIES
0
LWPOLYLINE
5
100
100
AcDbEntity
8
0
100
AcDbPolyline
90
4
70
1
43
0.0
10
17.676659266379765
20
-21.066222185771764
42
-0.3639702342662029
10
-17.676659266379751
20
-21.066222185771764
10
-22.176172534185508
20
-26.428533287604626
42
0.36397023426620256
10
22.176172534185532
20
-26.428533287604608
0
CIRCLE
5
101
100
AcDbEntity
8
0
100
AcDbCircle
10
-31.430896423742052
20
-31.430896423742034
30
0
40
2.1589999999999998
210
0
220
0
230
1
0
CIRCLE
5
102
100
AcDbEntity
8
0
100
AcDbCircle
10
1.3877787792812535e-15
20
3.5176102971206984e-18
30
0
40
1.5000000000000002
210
-2.4651903288156619e-32
220
-0
230
1
0
CIRCLE
5
103
100
AcDbEntity
8
0
100
AcDbCircle
10
31.430896423742038
20
31.430896423746987
30
0
40
2.1589999999999998
210
0
220
0
230
1
0
CIRCLE
5
104
100
AcDbEntity
8
0
100
AcDbCircle
10
31.430896423742048
20
-31.430896423742041
30
0
40
2.1589999999999998
210
0
220
0
230
1
0
CIRCLE
5
105
100
AcDbEntity
8
0
100
AcDbCircle
10
-31.430896423742041
20
31.430896423742034
30
0
40
2.1589999999999998
210
0
220
0
230
1
0
LWPOLYLINE
5
106
100
AcDbEntity
8
0
100
AcDbPolyline
90
24
70
1
43
0.0
10
-41.46550000000002
20
-20.536083579329159
10
-41.465500000000006
20
20.536083579329159
42
-0.09358466928968906
10
-41.115724764571127
20
22.388480317783941
10
-36.49938033203977
20
34.176639033051316
42
-0.20931331328785194
10
-33.616610754161577
20
37.05639923759415
10
-23.213917911402355
20
41.117656942997755
42
-0.093321273227030418
10
-21.366462724709553
20
41.465500000000006
10
21.366462724709557
20
41.465500000000006
42
-0.093321273227021675
10
23.213917911402358
20
41.117656942997741
10
33.616610754161584
20
37.056399237594142
42
-0.20931331328785044
10
36.499380332039777
20
34.176639033051323
10
41.115724764571127
20
22.388480317783941
42
-0.093584669289687492
10
41.465500000000013
20
20.536083579329159
10
41.465500000000006
20
-20.536083579329159
42
-0.09358466928968906
10
41.115724764571127
20
-22.388480317783941
10
36.499380332039763
20
-34.176639033051316
42
-0.20931331328785135
10
33.61661075416157
20
-37.056399237594142
10
23.213917911402358
20
-41.117656942997733
42
-0.093321273227019441
10
21.366462724709553
20
-41.465500000000006
10
-21.366462724709564
20
-41.465500000000006
42
-0.093321273227022022
10
-23.213917911402365
20
-41.117656942997741
10
-33.616610754161584
20
-37.05639923759415
42
-0.20931331328785194
10
-36.499380332039777
20
-34.176639033051323
10
-41.115724764571127
20
-22.388480317783952
42
-0.093584669289688949
0
CIRCLE
5
107
100
AcDbEntity
8
0
100
AcDbCircle
10
0
20
0
30
0
40
27.499999999999851
210
0
220
0
230
1
0
CIRCLE
5
108
100
AcDbEntity
8
0
100
AcDbCircle
10
1.3877787792812535e-15
20
3.5176102971206984e-18
30
0
40
34.499999999999851
210
0
220
0
230
1
0
CIRCLE
5
109
100
AcDbEntity
8
0
100
AcDbCircle
10
2.3096705923026466
20
10.943423886531594
30
0
40
1
210
0
220
-0
230
1
0
CIRCLE
5
110
100
AcDbEntity
8
0
100
AcDbCircle
10
1.3877787792812535e-15
20
3.5176102971206984e-18
30
0
40
35
210
0
220
0
230
1
0
LWPOLYLINE
5
111
100
AcDbEntity
8
0
100
AcDbPolyline
90
4
70
1
43
0.0
10
3.7897041600154617
20
17.801071382913392
10
5.1952263072739138
20
24.403117088114627
42
0.12415928370392873
10
-6.9992696253366562
20
23.94812570352558
10
-5.1056796465382037
20
17.46917385988651
42
-0.12415928370392876
0
CIRCLE
5
112
100
AcDbEntity
8
0
100
AcDbCircle
10
1.3877787792812535e-15
20
3.5176102971206984e-18
30
0
40
18.200000000000458
210
0
220
0
230
1
0
ENDSEC
0
SECTION
2
OBJECTS
0
DICTIONARY
5
C
100
AcDbDictionary
3
ACAD_GROUP
350
D
3
ACAD_MLINESTYLE
350
17
0
DICTIONARY
5
D
100
AcDbDictionary
0
DICTIONARY
5
1A
330
C
100
AcDbDictionary
0
DICTIONARY
5
17
100
AcDbDictionary
0
ENDSEC
0
EOF
