0
SECTION
2
HEADER
9
$INSUNITS
70
1
9
$ACADVER
1
AC1014
9
$HANDSEED
5
FFFF
0
ENDSEC
0
SECTION
2
TABLES
0
TABLE
2
VPORT
5
8
100
AcDbSymbolTable
0
ENDTAB
0
TABLE
2
LTYPE
5
5
100
AcDbSymbolTable
0
LTYPE
5
14
100
AcDbSymbolTableRecord
100
AcDbLinetypeTableRecord
2
BYBLOCK
70
0
0
LTYPE
5
15
100
AcDbSymbolTableRecord
100
AcDbLinetypeTableRecord
2
BYLAYER
70
0
0
ENDTAB
0
TABLE
2
LAYER
5
2
100
AcDbSymbolTable
70
2
0
LAYER
5
50
100
AcDbSymbolTableRecord
100
AcDbLayerTableRecord
2
0
70
0
6
CONTINUOUS
0
ENDTAB
0
TABLE
2
STYLE
5
3
100
AcDbSymbolTable
70
1
0
STYLE
5
11
100
AcDbSymbolTableRecord
100
AcDbTextStyleTableRecord
2
STANDARD
70
0
0
ENDTAB
0
TABLE
2
VIEW
5
6
100
AcDbSymbolTable
70
0
0
ENDTAB
0
TABLE
2
UCS
5
7
100
AcDbSymbolTable
70
0
0
ENDTAB
0
TABLE
2
APPID
5
9
100
AcDbSymbolTable
70
2
0
APPID
5
12
100
AcDbSymbolTableRecord
100
AcDbRegAppTableRecord
2
ACAD
70
0
0
ENDTAB
0
TABLE
2
DIMSTYLE
5
A
100
AcDbSymbolTable
70
1
0
ENDTAB
0
TABLE
2
BLOCK_RECORD
5
1
100
AcDbSymbolTable
70
1
0
BLOCK_RECORD
5
1F
100
AcDbSymbolTableRecord
100
AcDbBlockTableRecord
2
*MODEL_SPACE
0
BLOCK_RECORD
5
1B
100
AcDbSymbolTableRecord
100
AcDbBlockTableRecord
2
*PAPER_SPACE
0
ENDTAB
0
ENDSEC
0
SECTION
2
BLOCKS
0
BLOCK
5
20
100
AcDbEntity
100
AcDbBlockBegin
2
*MODEL_SPACE
0
ENDBLK
5
21
100
AcDbEntity
100
AcDbBlockEnd
0
BLOCK
5
1C
100
AcDbEntity
100
AcDbBlockBegin
2
*PAPER_SPACE
0
ENDBLK
5
1D
100
AcDbEntity
100
AcDbBlockEnd
0
ENDSEC
0
SECTION
2
ENTITIES
0
SPLINE
5
100
100
AcDbEntity
8
0
100
AcDbSpline
70
4
71
5
72
13
73
7
74
0
42
0.000000001
43
0.0000000001
44
0.0000000001
40
-0.77469263818317546
40
-0.77469263818317546
40
-0.77469263818317546
40
-0.77469263818317546
40
-0.77469263818317546
40
-0.77469263818317546
40
-0.69999999999999996
40
-0.68576844814901428
40
-0.68576844814901428
40
-0.68576844814901428
40
-0.68576844814901428
40
-0.68576844814901428
40
-0.68576844814901428
41
1
41
1
41
1
41
1
41
1
41
1
41
1
10
24
20
30.171567108773935
30
0
10
25.220653240787723
20
30.5698379285075
30
0
10
26.738968404926286
20
30.958320539866072
30
0
10
28.351327835416438
20
31.259299722212113
30
0
10
30.074447208678674
20
31.489671771461186
30
0
10
31.919259012920737
20
31.664425759543064
30
0
10
32.217661699907353
20
31.691028706453892
30
0
0
LINE
5
101
100
AcDbEntity
8
0
100
AcDbLine
10
70.200000000000003
20
-20.97384688021258
30
0
11
70.199999999999989
21
-20.974510536085798
31
0
0
LINE
5
102
100
AcDbEntity
8
0
100
AcDbLine
10
71.999999999999986
20
-20.668250056919216
30
0
11
72
21
-20.646921933124311
31
0
0
SPLINE
5
103
100
AcDbEntity
8
0
100
AcDbSpline
70
4
71
5
72
22
73
16
74
0
42
0.000000001
43
0.0000000001
44
0.0000000001
40
0.28392458057197439
40
0.28392458057197439
40
0.28392458057197439
40
0.28392458057197439
40
0.28392458057197439
40
0.28392458057197439
40
0.33333333333333331
40
0.39999999999999997
40
0.46666666666666662
40
0.53333333333333333
40
0.59999999999999998
40
0.66666666666666663
40
0.73333333333333328
40
0.79999999999999993
40
0.86666666666666659
40
0.93333333333333324
40
1
40
1
40
1
40
1
40
1
40
1
41
1
41
1
41
1
41
1
41
1
41
1
41
1
41
1
41
1
41
1
41
1
41
1
41
1
41
1
41
1
41
1
10
23.999999999999996
20
-24.913152862733106
30
0
10
24.710799200812602
20
-24.892093793388653
30
0
10
26.412787123340507
20
-24.836083896398378
30
0
10
29.207813684049594
20
-24.723947688056427
30
0
10
33.249566376705424
20
-24.521036050088707
30
0
10
38.666360787078567
20
-24.186753561510415
30
0
10
44.523101331145384
20
-23.766619068268774
30
0
10
50.295762744622465
20
-23.302949397455862
30
0
10
55.735053460890349
20
-22.822228250851307
30
0
10
60.59182627325135
20
-22.35092353758445
30
0
10
64.638843230917175
20
-21.913164352749899
30
0
10
67.69284362572283
20
-21.528470885248151
30
0
10
69.254025260673728
20
-21.27279460498448
30
0
10
69.921486999820402
20
-21.111535598772601
30
0
10
70.144200718181239
20
-21.017498735383203
30
0
10
70.200000000000003
20
-20.97384688021258
30
0
0
LINE
5
104
100
AcDbEntity
8
0
100
AcDbLine
10
72
20
-20.646921933124311
30
0
11
71.999999999999986
21
31.078764333183429
31
0
0
SPLINE
5
105
100
AcDbEntity
8
0
100
AcDbSpline
70
4
71
5
72
12
73
6
74
0
42
0.000000001
43
0.0000000001
44
0.0000000001
40
0
40
0
40
0
40
0
40
0
40
0
40
0.035119963152253693
40
0.035119963152253693
40
0.035119963152253693
40
0.035119963152253693
40
0.035119963152253693
40
0.035119963152253693
41
1
41
1
41
1
41
1
41
1
41
1
10
70.200000000000003
20
31.224257138620086
30
0
10
70.546532862890601
20
31.201340047615325
30
0
10
70.899823731012205
20
31.175328815035936
30
0
10
71.259872792706076
20
31.14622405288257
30
0
10
71.626629636263388
20
31.114031974822712
30
0
10
71.999999999999986
20
31.078764333183436
30
0
0
SPLINE
5
106
100
AcDbEntity
8
0
100
AcDbSpline
70
4
71
5
72
14
73
8
74
0
42
0.000000001
43
0.0000000001
44
0.0000000001
40
-0.68576844814901439
40
-0.68576844814901439
40
-0.68576844814901439
40
-0.68576844814901439
40
-0.68576844814901439
40
-0.68576844814901439
40
-0.59999999999999998
40
-0.5
40
-0.40704412516912925
40
-0.40704412516912925
40
-0.40704412516912925
40
-0.40704412516912925
40
-0.40704412516912925
40
-0.40704412516912925
41
1
41
1
41
1
41
1
41
1
41
1
41
1
41
1
10
32.217661699907346
20
31.691028706453892
30
0
10
34.016027447671213
20
31.851355106316923
30
0
10
38.159469363235985
20
32.091235629090363
30
0
10
45.243997702755848
20
32.194085372070738
30
0
10
53.667393619706438
20
32.155212487357474
30
0
10
62.055006975354146
20
31.833240745290176
30
0
10
67.602834953955735
20
31.448330465573878
30
0
10
70.199999999999989
20
31.224257138620086
30
0
0
SPLINE
5
107
100
AcDbEntity
8
0
100
AcDbSpline
70
0
71
3
72
12
73
8
74
0
42
0.000000001
43
0.0000000001
44
0.0000000001
40
0
40
0
40
0
40
0
40
2.1113554076724936
40
2.1113554076724936
40
4.523800646300379
40
4.523800646300379
40
6.9988797725400289
40
6.9988797725400289
40
6.9988797725400289
40
6.9988797725400289
10
70.200000000000003
20
-20.974510536085795
30
0
10
70.291621624970986
20
-20.958511365018651
30
0
10
70.426455783815882
20
-20.935149961665275
30
0
10
70.769765818560629
20
-20.876257432519033
30
0
10
70.988378059985109
20
-20.83904871403217
30
0
10
71.465676759218553
20
-20.75825027955781
30
0
10
71.72779264605218
20
-20.714076829236213
30
0
10
72.000000000000057
20
-20.668250056919206
30
0
0
SPLINE
5
108
100
AcDbEntity
8
0
100
AcDbSpline
70
4
71
5
72
26
73
20
74
0
42
0.000000001
43
0.0000000001
44
0.0000000001
40
0
40
0
40
0
40
0
40
0
40
0
40
0.066666666666666666
40
0.13333333333333333
40
0.20000000000000001
40
0.26666666666666666
40
0.33333333333333331
40
0.39999999999999997
40
0.46666666666666662
40
0.53333333333333333
40
0.59999999999999998
40
0.66666666666666663
40
0.73333333333333328
40
0.79999999999999993
40
0.86666666666666659
40
0.93333333333333324
40
1
40
1
40
1
40
1
40
1
40
1
41
1
41
1
41
1
41
1
41
1
41
1
41
1
41
1
41
1
41
1
41
1
41
1
41
1
41
1
41
1
41
1
41
1
41
1
41
1
41
1
10
7.4730441119198083
20
15.430221576021182
30
0
10
7.7222595621213106
20
15.298699831049593
30
0
10
8.2095327648467915
20
14.990576886945247
30
0
10
8.906940457862115
20
14.393141166694724
30
0
10
9.8459833754072452
20
13.378940294426279
30
0
10
11.391960570836973
20
12.018778133044533
30
0
10
13.631822368468709
20
10.856861059185338
30
0
10
16.631125309337687
20
10.077955237597944
30
0
10
20.016390649673419
20
9.6555756534933188
30
0
10
23.211194784223718
20
9.4637767803074535
30
0
10
25.675580434715741
20
9.3913960447983786
30
0
10
27.066995474256419
20
9.4123977201306754
30
0
10
27.61588115659848
20
9.7713170900985258
30
0
10
27.988925232147604
20
10.887291742679581
30
0
10
28.471073048742152
20
12.931063457494945
30
0
10
29.2763503426753
20
16.009974265390071
30
0
10
30.240279364462985
20
19.318675702603397
30
0
10
31.155218980235571
20
22.273858688837052
30
0
10
31.849451600094817
20
24.452732203348834
30
0
10
32.217661699907339
20
25.594370941438367
30
0
0
LINE
5
109
100
AcDbEntity
8
0
100
AcDbLine
10
71.999999999999986
20
26.118506923295364
30
0
11
71.999999999999986
21
31.078764333183436
31
0
0
SPLINE
5
110
100
AcDbEntity
8
0
100
AcDbSpline
70
4
71
5
72
12
73
6
74
0
42
0.000000001
43
0.0000000001
44
0.0000000001
40
-0.035119963152253693
40
-0.035119963152253693
40
-0.035119963152253693
40
-0.035119963152253693
40
-0.035119963152253693
40
-0.035119963152253693
40
0
40
0
40
0
40
0
40
0
40
0
41
1
41
1
41
1
41
1
41
1
41
1
10
71.999999999999986
20
31.078764333183436
30
0
10
71.626629636263388
20
31.114031974822712
30
0
10
71.259872792706076
20
31.14622405288257
30
0
10
70.899823731012205
20
31.175328815035936
30
0
10
70.546532862890601
20
31.201340047615325
30
0
10
70.200000000000003
20
31.224257138620086
30
0
0
SPLINE
5
111
100
AcDbEntity
8
0
100
AcDbSpline
70
4
71
5
72
14
73
8
74
0
42
0.000000001
43
0.0000000001
44
0.0000000001
40
0.40704412516912925
40
0.40704412516912925
40
0.40704412516912925
40
0.40704412516912925
40
0.40704412516912925
40
0.40704412516912925
40
0.5
40
0.59999999999999998
40
0.68576844814901439
40
0.68576844814901439
40
0.68576844814901439
40
0.68576844814901439
40
0.68576844814901439
40
0.68576844814901439
41
1
41
1
41
1
41
1
41
1
41
1
41
1
41
1
10
70.199999999999989
20
31.224257138620086
30
0
10
67.602834953955735
20
31.448330465573878
30
0
10
62.055006975354146
20
31.833240745290176
30
0
10
53.667393619706438
20
32.155212487357474
30
0
10
45.243997702755848
20
32.194085372070738
30
0
10
38.159469363235985
20
32.091235629090363
30
0
10
34.016027447671213
20
31.851355106316923
30
0
10
32.217661699907346
20
31.691028706453892
30
0
0
SPLINE
5
112
100
AcDbEntity
8
0
100
AcDbSpline
70
4
71
5
72
21
73
15
74
0
42
0.000000001
43
0.0000000001
44
0.0000000001
40
-1
40
-1
40
-1
40
-1
40
-1
40
-1
40
-0.89999999999999991
40
-0.79999999999999993
40
-0.69999999999999996
40
-0.59999999999999998
40
-0.5
40
-0.40000000000000002
40
-0.30000000000000004
40
-0.20000000000000001
40
-0.10000000000000001
40
0
40
0
40
0
40
0
40
0
40
0
41
1
41
1
41
1
41
1
41
1
41
1
41
1
41
1
41
1
41
1
41
1
41
1
41
1
41
1
41
1
10
32.217661699907339
20
31.691028706453988
30
0
10
31.741182387868484
20
31.578580034376557
30
0
10
30.829917857424284
20
31.352852755067001
30
0
10
29.588099930742278
20
31.011772098553912
30
0
10
28.186645489552291
20
30.55193590601052
30
0
10
26.887357755188248
20
29.96813289502078
30
0
10
26.080758938980399
20
29.374522743069416
30
0
10
25.806612987383996
20
28.770313935239319
30
0
10
26.085816348895197
20
28.155090520595671
30
0
10
26.89550023945975
20
27.529307710085401
30
0
10
28.195233323238263
20
26.893770303239315
30
0
10
29.594691960958187
20
26.378180980529294
30
0
10
30.833713132091049
20
25.987718375614676
30
0
10
31.742542500186737
20
25.725761506461275
30
0
10
32.217661699907339
20
25.594370941438367
30
0
0
SPLINE
5
113
100
AcDbEntity
8
0
100
AcDbSpline
70
4
71
5
72
15
73
9
74
0
42
0.000000001
43
0.0000000001
44
0.0000000001
40
0
40
0
40
0
40
0
40
0
40
0
40
0.20000000000000001
40
0.40000000000000002
40
0.60000000000000009
40
0.70154766025177617
40
0.70154766025177617
40
0.70154766025177617
40
0.70154766025177617
40
0.70154766025177617
40
0.70154766025177617
41
1
41
1
41
1
41
1
41
1
41
1
41
1
41
1
41
1
10
32.217661699907339
20
25.594370941438367
30
0
10
34.379200990189801
20
25.564198861662931
30
0
10
38.724949492254119
20
25.516611929324785
30
0
10
45.311553416065365
20
25.483487121646146
30
0
10
53.140429977816112
20
25.516513953339757
30
0
10
61.191345624089784
20
25.674490624466507
30
0
10
67.120334526078963
20
25.884930861898361
30
0
10
70.763600575008951
20
26.055660364272835
30
0
10
71.999999999999986
20
26.118506923295364
30
0
0
SPLINE
5
114
100
AcDbEntity
8
0
100
AcDbSpline
70
4
71
5
72
15
73
9
74
0
42
0.000000001
43
0.0000000001
44
0.0000000001
40
0
40
0
40
0
40
0
40
0
40
0
40
0.20000000000000001
40
0.40000000000000002
40
0.60000000000000009
40
0.70154766025177617
40
0.70154766025177617
40
0.70154766025177617
40
0.70154766025177617
40
0.70154766025177617
40
0.70154766025177617
41
1
41
1
41
1
41
1
41
1
41
1
41
1
41
1
41
1
10
32.217661699907339
20
25.594370941438367
30
0
10
34.379200990189801
20
25.564198861662931
30
0
10
38.724949492254119
20
25.516611929324785
30
0
10
45.311553416065365
20
25.483487121646146
30
0
10
53.140429977816112
20
25.516513953339757
30
0
10
61.191345624089784
20
25.674490624466507
30
0
10
67.120334526078963
20
25.884930861898361
30
0
10
70.763600575008951
20
26.055660364272835
30
0
10
71.999999999999986
20
26.118506923295364
30
0
0
SPLINE
5
115
100
AcDbEntity
8
0
100
AcDbSpline
70
4
71
5
72
21
73
15
74
0
42
0.000000001
43
0.0000000001
44
0.0000000001
40
-1
40
-1
40
-1
40
-1
40
-1
40
-1
40
-0.89999999999999991
40
-0.79999999999999993
40
-0.69999999999999996
40
-0.59999999999999998
40
-0.5
40
-0.40000000000000002
40
-0.30000000000000004
40
-0.20000000000000001
40
-0.10000000000000001
40
0
40
0
40
0
40
0
40
0
40
0
41
1
41
1
41
1
41
1
41
1
41
1
41
1
41
1
41
1
41
1
41
1
41
1
41
1
41
1
41
1
10
32.217661699907339
20
31.691028706453988
30
0
10
31.741182387868484
20
31.578580034376557
30
0
10
30.829917857424284
20
31.352852755067001
30
0
10
29.588099930742278
20
31.011772098553912
30
0
10
28.186645489552291
20
30.55193590601052
30
0
10
26.887357755188248
20
29.96813289502078
30
0
10
26.080758938980399
20
29.374522743069416
30
0
10
25.806612987383996
20
28.770313935239319
30
0
10
26.085816348895197
20
28.155090520595671
30
0
10
26.89550023945975
20
27.529307710085401
30
0
10
28.195233323238263
20
26.893770303239315
30
0
10
29.594691960958187
20
26.378180980529294
30
0
10
30.833713132091049
20
25.987718375614676
30
0
10
31.742542500186737
20
25.725761506461275
30
0
10
32.217661699907339
20
25.594370941438367
30
0
0
SPLINE
5
116
100
AcDbEntity
8
0
100
AcDbSpline
70
4
71
5
72
15
73
9
74
0
42
0.000000001
43
0.0000000001
44
0.0000000001
40
0.14066834744036444
40
0.14066834744036444
40
0.14066834744036444
40
0.14066834744036444
40
0.14066834744036444
40
0.14066834744036444
40
0.20000000000000001
40
0.30000000000000004
40
0.40000000000000002
40
0.4027624204171919
40
0.4027624204171919
40
0.4027624204171919
40
0.4027624204171919
40
0.4027624204171919
40
0.4027624204171919
41
1
41
1
41
1
41
1
41
1
41
1
41
1
41
1
41
1
10
-32.149999999999999
20
-7.2638594132222467
30
0
10
-31.87864379517988
20
-7.8253265424650653
30
0
10
-31.10063253721021
20
-9.4225755533773832
30
0
10
-29.603414404586772
20
-12.315845753010628
30
0
10
-27.6385426037806
20
-15.263125986324775
30
0
10
-25.112099813260038
20
-17.520272884291874
30
0
10
-22.852159899007436
20
-18.921094540000535
30
0
10
-21.632830900654064
20
-19.552308537687288
30
0
10
-21.599999999999998
20
-19.569219888605957
30
0
0
SPLINE
5
117
100
AcDbEntity
8
0
100
AcDbSpline
70
4
71
5
72
13
73
7
74
0
42
0.000000001
43
0.0000000001
44
0.0000000001
40
0.077649229006706608
40
0.077649229006706608
40
0.077649229006706608
40
0.077649229006706608
40
0.077649229006706608
40
0.077649229006706608
40
0.20000000000000001
40
0.3867711859636917
40
0.3867711859636917
40
0.3867711859636917
40
0.3867711859636917
40
0.3867711859636917
40
0.3867711859636917
41
1
41
1
41
1
41
1
41
1
41
1
41
1
10
-32.149999999999991
20
8.5160430925329837
30
0
10
-31.393539957471518
20
8.7986197484482034
30
0
10
-29.443061209472475
20
9.4887703800264287
30
0
10
-27.393879417873919
20
10.120231582560917
30
0
10
-25.24735795797989
20
10.698696193496041
30
0
10
-22.998539351950726
20
11.230556240937995
30
0
10
-21.600000000000215
20
11.535972852479418
30
0
0
LINE
5
118
100
AcDbEntity
8
0
100
AcDbLine
10
-32.149999999999991
20
8.5160430925329837
30
0
11
-32.149999999999999
21
-7.2638594132222467
31
0
0
SPLINE
5
119
100
AcDbEntity
8
0
100
AcDbSpline
70
4
71
5
72
16
73
10
74
0
42
0.000000001
43
0.0000000001
44
0.0000000001
40
0
40
0
40
0
40
0
40
0
40
0
40
0.10000000000000001
40
0.20000000000000001
40
0.30000000000000004
40
0.40000000000000002
40
0.42281193526334837
40
0.42281193526334837
40
0.42281193526334837
40
0.42281193526334837
40
0.42281193526334837
40
0.42281193526334837
41
1
41
1
41
1
41
1
41
1
41
1
41
1
41
1
41
1
41
1
10
-21.600000000000001
20
11.535972852479468
30
0
10
-20.762527201049281
20
11.73571383233249
30
0
10
-18.996655129684179
20
12.125113782449423
30
0
10
-16.075012633252992
20
12.678947533851391
30
0
10
-11.727104000949961
20
13.350890473785709
30
0
10
-6.9280589066112377
20
13.939271843069303
30
0
10
-3.4787356492285308
20
14.295308943737785
30
0
10
-1.314101118244777
20
14.491730854675945
30
0
10
-0.20336942277524053
20
14.584955264528659
30
0
10
7.4306265427667954e-16
20
14.601752944317225
30
0
0
SPLINE
5
120
100
AcDbEntity
8
0
100
AcDbSpline
70
4
71
5
72
14
73
8
74
0
42
0.000000001
43
0.0000000001
44
0.0000000001
40
0.4027624204171919
40
0.4027624204171919
40
0.4027624204171919
40
0.4027624204171919
40
0.4027624204171919
40
0.4027624204171919
40
0.5
40
0.59999999999999998
40
0.68687889662224189
40
0.68687889662224189
40
0.68687889662224189
40
0.68687889662224189
40
0.68687889662224189
40
0.68687889662224189
41
1
41
1
41
1
41
1
41
1
41
1
41
1
41
1
10
-21.599999999999998
20
-19.569219888605957
30
0
10
-20.444347770072522
20
-20.164501772772788
30
0
10
-17.966100480479202
20
-21.229461736475479
30
0
10
-14.026966212685345
20
-22.397306115076272
30
0
10
-9.6283034789656519
20
-23.198885268589908
30
0
10
-4.8489857601699109
20
-23.750173009273951
30
0
10
-1.5593152787088762
20
-24.0308096164567
30
0
10
-1.267577469060218e-15
20
-24.145628647588079
30
0
0
LINE
5
121
100
AcDbEntity
8
0
100
AcDbLine
10
1.6688638297687097e-15
20
-24.145628647588079
30
0
11
3.4683414739141854e-17
21
14.601752944317223
31
0
0
LINE
5
122
100
AcDbEntity
8
0
100
AcDbLine
10
24
20
30.171567108773935
30
0
11
23.999999999999996
21
-24.913152862733106
31
0
0
ENDSEC
0
SECTION
2
OBJECTS
0
DICTIONARY
5
C
100
AcDbDictionary
3
ACAD_GROUP
350
D
3
ACAD_MLINESTYLE
350
17
0
DICTIONARY
5
D
100
AcDbDictionary
0
DICTIONARY
5
1A
330
C
100
AcDbDictionary
0
DICTIONARY
5
17
100
AcDbDictionary
0
ENDSEC
0
EOF
