0
SECTION
2
HEADER
9
$INSUNITS
70
4
9
$ACADVER
1
AC1014
9
$HANDSEED
5
FFFF
0
ENDSEC
0
SECTION
2
TABLES
0
TABLE
2
VPORT
5
8
100
AcDbSymbolTable
0
ENDTAB
0
TABLE
2
LTYPE
5
5
100
AcDbSymbolTable
0
LTYPE
5
14
100
AcDbSymbolTableRecord
100
AcDbLinetypeTableRecord
2
BYBLOCK
70
0
0
LTYPE
5
15
100
AcDbSymbolTableRecord
100
AcDbLinetypeTableRecord
2
BYLAYER
70
0
0
ENDTAB
0
TABLE
2
LAYER
5
2
100
AcDbSymbolTable
70
2
0
LAYER
5
50
100
AcDbSymbolTableRecord
100
AcDbLayerTableRecord
2
0
70
0
6
CONTINUOUS
0
ENDTAB
0
TABLE
2
STYLE
5
3
100
AcDbSymbolTable
70
1
0
STYLE
5
11
100
AcDbSymbolTableRecord
100
AcDbTextStyleTableRecord
2
STANDARD
70
0
0
ENDTAB
0
TABLE
2
VIEW
5
6
100
AcDbSymbolTable
70
0
0
ENDTAB
0
TABLE
2
UCS
5
7
100
AcDbSymbolTable
70
0
0
ENDTAB
0
TABLE
2
APPID
5
9
100
AcDbSymbolTable
70
2
0
APPID
5
12
100
AcDbSymbolTableRecord
100
AcDbRegAppTableRecord
2
ACAD
70
0
0
ENDTAB
0
TABLE
2
DIMSTYLE
5
A
100
AcDbSymbolTable
70
1
0
ENDTAB
0
TABLE
2
BLOCK_RECORD
5
1
100
AcDbSymbolTable
70
1
0
BLOCK_RECORD
5
1F
100
AcDbSymbolTableRecord
100
AcDbBlockTableRecord
2
*MODEL_SPACE
0
BLOCK_RECORD
5
1B
100
AcDbSymbolTableRecord
100
AcDbBlockTableRecord
2
*PAPER_SPACE
0
ENDTAB
0
ENDSEC
0
SECTION
2
BLOCKS
0
BLOCK
5
20
100
AcDbEntity
100
AcDbBlockBegin
2
*MODEL_SPACE
0
ENDBLK
5
21
100
AcDbEntity
100
AcDbBlockEnd
0
BLOCK
5
1C
100
AcDbEntity
100
AcDbBlockBegin
2
*PAPER_SPACE
0
ENDBLK
5
1D
100
AcDbEntity
100
AcDbBlockEnd
0
ENDSEC
0
SECTION
2
ENTITIES
0
LWPOLYLINE
5
100
100
AcDbEntity
8
0
100
AcDbPolyline
90
12
70
1
43
0.0
10
-925.41895727645533
20
353.11875169749226
10
-924.86985727645538
20
353.6664416974923
10
-924.66895727645533
20
354.41521169749228
10
-924.86985727645538
20
355.1666216974923
10
-925.41895727645533
20
355.71431169749235
10
-926.16895727645544
20
355.91539169749234
10
-926.91895727645544
20
355.71431169749235
10
-927.46795727645531
20
355.1666216974923
10
-927.66895727645533
20
354.41521169749228
10
-927.46795727645531
20
353.6664416974923
10
-926.91895727645533
20
353.11875169749226
10
-926.16895727645544
20
352.91765169749226
0
LWPOLYLINE
5
101
100
AcDbEntity
8
0
100
AcDbPolyline
90
1
70
1
43
0.0
10
-924.66895727645533
20
354.41521169749228
0
LWPOLYLINE
5
102
100
AcDbEntity
8
0
100
AcDbPolyline
90
12
70
1
43
0.0
10
-630.8811572764555
20
355.09783169749232
10
-631.4291572764555
20
355.64552169749231
10
-632.18015727645547
20
355.84660169749236
10
-632.92915727645538
20
355.64552169749231
10
-633.47915727645545
20
355.09783169749232
10
-633.68015727645547
20
354.34641169749233
10
-633.47915727645545
20
353.59764169749235
10
-632.92915727645538
20
353.04735169749227
10
-632.18015727645547
20
352.84625169749233
10
-631.4291572764555
20
353.04735169749227
10
-630.8811572764555
20
353.59764169749224
10
-630.68015727645547
20
354.34641169749233
0
LWPOLYLINE
5
103
100
AcDbEntity
8
0
100
AcDbPolyline
90
1
70
1
43
0.0
10
-630.68015727645547
20
354.34641169749233
0
LWPOLYLINE
5
104
100
AcDbEntity
8
0
100
AcDbPolyline
90
12
70
1
43
0.0
10
-1296.5671572764554
20
355.91539169749234
10
-1297.3181572764554
20
355.71431169749235
10
-1297.8661572764554
20
355.1666216974923
10
-1298.0671572764554
20
354.41521169749228
10
-1297.8661572764554
20
353.6664416974923
10
-1297.3181572764554
20
353.11875169749226
10
-1296.5671572764554
20
352.91765169749226
10
-1295.8181572764554
20
353.11875169749226
10
-1295.2681572764552
20
353.6664416974923
10
-1295.0661572764552
20
354.41521169749228
10
-1295.2681572764552
20
355.1666216974923
10
-1295.8181572764554
20
355.71431169749235
0
LWPOLYLINE
5
105
100
AcDbEntity
8
0
100
AcDbPolyline
90
1
70
1
43
0.0
10
-1295.0661572764552
20
354.41521169749228
0
LWPOLYLINE
5
106
100
AcDbEntity
8
0
100
AcDbPolyline
90
50
70
1
43
0.0
10
-1296.8761572764556
20
526.25105169749236
10
-1297.0611572764553
20
526.25105169749236
10
-1296.8791572764555
20
526.29005169749234
10
-1297.0611572764556
20
529.88105169749235
10
-1295.0481572764554
20
529.9840516974923
10
-1294.2671572764552
20
530.10205169749236
10
-1293.5341572764555
20
530.36605169749237
10
-1292.8651572764554
20
530.76805169749241
10
-1292.2831572764553
20
531.29805169749238
10
-1291.8151572764555
20
531.9320516974924
10
-1291.4811572764554
20
532.63905169749239
10
-1291.2931572764555
20
533.39605169749234
10
-1291.2561572764553
20
534.18305169749237
10
-1291.6351572764554
20
541.56405169749235
10
-1291.5821572764553
20
541.56705169749227
10
-1009.1751572764554
20
541.56705169749227
10
-1009.1751572764554
20
540.06705169749227
10
-1009.0681572764554
20
538.9890516974923
10
-1008.7561572764554
20
537.96205169749237
10
-1008.2511572764554
20
537.01605169749234
10
-1007.5641572764555
20
536.17805169749226
10
-1006.7261572764555
20
535.49105169749237
10
-1005.7801572764555
20
534.98605169749237
10
-1004.7531572764556
20
534.67405169749236
10
-1003.6751572764554
20
534.56705169749239
10
-999.73165727645539
20
534.56705169749239
10
-999.73165727645539
20
358.56651169749227
10
-1002.7317572764554
20
358.56651169749233
10
-1003.7121572764554
20
358.47126169749231
10
-1004.6451572764554
20
358.18816169749232
10
-1005.5061572764555
20
357.72779169749236
10
-1006.2671572764555
20
357.10337169749232
10
-1006.8921572764555
20
356.34137169749232
10
-1007.3511572764555
20
355.48148169749231
10
-1007.6351572764554
20
354.54750169749229
10
-1007.7321572764554
20
353.56854169749232
10
-1007.7321572764555
20
351.14495169749233
10
-1291.5401572764554
20
351.14495169749233
10
-1290.8651572764554
20
352.5472516974923
10
-1290.5791572764554
20
354.05273169749228
10
-1290.6821572764554
20
355.58202169749228
10
-1291.1801572764555
20
357.05839169749231
10
-1292.0421572764553
20
358.35485169749234
10
-1293.1881572764553
20
359.37349169749234
10
-1294.5531572764553
20
360.06934169749229
10
-1296.0741572764555
20
360.39743169749227
10
-1296.0741572764553
20
510.56705169749227
10
-1296.6861572764556
20
522.51905169749227
10
-1297.0611572764553
20
522.58105169749228
10
-1296.6881572764555
20
522.58105169749228
0
LWPOLYLINE
5
107
100
AcDbEntity
8
0
100
AcDbPolyline
90
1
70
1
43
0.0
10
-1296.6881572764555
20
522.58105169749228
0
LWPOLYLINE
5
108
100
AcDbEntity
8
0
100
AcDbPolyline
90
13
70
1
43
0.0
10
-633.17515727645548
20
540.0850516974923
10
-633.92615727645546
20
540.28605169749233
10
-634.67515727645548
20
540.0850516974923
10
-635.22615727645541
20
539.53605169749233
10
-635.42715727645543
20
538.78605169749233
10
-635.22615727645541
20
538.03605169749233
10
-634.67515727645548
20
537.48705169749235
10
-633.92615727645546
20
537.28605169749233
10
-633.17515727645537
20
537.48705169749223
10
-632.62715727645548
20
538.03605169749233
10
-632.42615727645546
20
538.78605169749233
10
-632.42615727645546
20
538.78605169749233
10
-632.62715727645536
20
539.53605169749244
0
LWPOLYLINE
5
109
100
AcDbEntity
8
0
100
AcDbPolyline
90
12
70
1
43
0.0
10
-924.17225727645541
20
532.84305169749234
10
-923.42225727645541
20
533.04405169749225
10
-922.87315727645534
20
533.59305169749234
10
-922.67225727645541
20
534.34305169749234
10
-922.87315727645534
20
535.09305169749234
10
-923.42225727645541
20
535.64205169749232
10
-924.17225727645541
20
535.84305169749223
10
-924.92225727645541
20
535.64205169749232
10
-925.4712572764555
20
535.09305169749223
10
-925.67225727645541
20
534.34305169749234
10
-925.47125727645539
20
533.59305169749234
10
-924.92225727645541
20
533.04405169749225
0
LWPOLYLINE
5
110
100
AcDbEntity
8
0
100
AcDbPolyline
90
1
70
1
43
0.0
10
-922.67225727645541
20
534.34305169749234
0
LWPOLYLINE
5
111
100
AcDbEntity
8
0
100
AcDbPolyline
90
16
70
1
43
0.0
10
-1002.5510572764554
20
355.8122016974923
10
-1003.1320572764554
20
355.69579169749233
10
-1003.6071572764554
20
355.37829169749227
10
-1003.9301572764555
20
354.90468169749226
10
-1004.0511572764553
20
354.32525169749232
10
-1003.9301572764554
20
353.74581169749234
10
-1003.6071572764554
20
353.27225169749232
10
-1003.1320572764554
20
352.95475169749233
10
-1002.5510572764554
20
352.83825169749235
10
-1001.9702572764554
20
352.95475169749238
10
-1001.4948572764554
20
353.27225169749232
10
-1001.1725572764554
20
353.74581169749234
10
-1001.0510572764554
20
354.32525169749232
10
-1001.1725572764554
20
354.90468169749238
10
-1001.4948572764554
20
355.37829169749239
10
-1001.9702572764554
20
355.69579169749233
0
LWPOLYLINE
5
112
100
AcDbEntity
8
0
100
AcDbPolyline
90
1
70
1
43
0.0
10
-1001.0510572764554
20
354.32525169749232
0
LWPOLYLINE
5
113
100
AcDbEntity
8
0
100
AcDbPolyline
90
40
70
1
43
0.0
10
-922.75285727645542
20
530.83405169749233
10
-921.61735727645532
20
531.59205169749237
10
-920.85865727645546
20
532.72805169749233
10
-920.59225727645537
20
534.06705169749227
10
-920.59225727645537
20
541.56705169749227
10
-637.73115727645541
20
541.56705169749227
10
-637.73115727645541
20
539.0520516974924
10
-637.64415727645553
20
538.17005169749234
10
-637.39015727645551
20
537.33005169749231
10
-636.9771572764555
20
536.55605169749242
10
-636.4141572764554
20
535.87005169749227
10
-635.72815727645548
20
535.30805169749237
10
-634.95615727645543
20
534.89505169749236
10
-634.11415727645544
20
534.63905169749228
10
-633.23315727645547
20
534.55205169749229
10
-630.7651572764554
20
534.55205169749229
10
-630.7651572764554
20
359.7862416974923
10
-631.03215727645545
20
359.7862416974923
10
-631.03215727645545
20
359.7862416974923
10
-632.1111572764554
20
359.68041169749233
10
-633.13815727645544
20
359.36820169749234
10
-634.08315727645549
20
358.86285169749226
10
-634.92115727645546
20
358.1749316974923
10
-635.60915727645545
20
357.3362016974923
10
-636.11515727645542
20
356.39164169749228
10
-636.42715727645543
20
355.36506169749231
10
-636.53315727645554
20
354.28556169749231
10
-636.53315727645554
20
351.14495169749233
10
-921.14005727645531
20
351.14495169749233
10
-920.46805727645528
20
352.54465169749233
10
-920.18035727645542
20
354.04744169749227
10
-920.28165727645546
20
355.57408169749232
10
-920.77675727645544
20
357.04781169749231
10
-921.63355727645535
20
358.3442616974923
10
-922.77445727645545
20
359.36291169749222
10
-924.13575727645537
20
360.06141169749236
10
-925.65415727645529
20
360.39478169749236
10
-928.65415727645541
20
360.39478169749231
10
-928.65415727645541
20
530.56705169749227
10
-924.09225727645537
20
530.56705169749239
0
LWPOLYLINE
5
114
100
AcDbEntity
8
0
100
AcDbPolyline
90
17
70
1
43
0.0
10
-1004.8731572764553
20
540.08805169749235
10
-1005.3481572764554
20
539.77105169749234
10
-1005.6701572764554
20
539.29905169749236
10
-1005.7931572764553
20
538.72105169749238
10
-1005.6701572764554
20
538.1430516974923
10
-1005.3481572764554
20
537.67205169749229
10
-1004.8731572764553
20
537.35505169749229
10
-1004.2931572764553
20
537.2390516974923
10
-1003.7131572764554
20
537.35505169749229
10
-1003.2391572764554
20
537.67205169749229
10
-1002.9161572764554
20
538.1430516974923
10
-1002.7931572764554
20
538.72105169749238
10
-1002.7931572764554
20
538.72105169749238
10
-1002.9161572764554
20
539.29905169749236
10
-1003.2391572764554
20
539.77105169749234
10
-1003.7131572764554
20
540.08805169749235
10
-1004.2931572764553
20
540.20405169749233
0
LWPOLYLINE
5
115
100
AcDbEntity
8
0
100
AcDbPolyline
90
14
70
1
43
0.0
10
-1293.0561572764555
20
534.32705169749238
10
-1293.2571572764555
20
535.07705169749227
10
-1293.8071572764554
20
535.62605169749236
10
-1294.5561572764555
20
535.82705169749238
10
-1295.3071572764554
20
535.62605169749236
10
-1295.8551572764554
20
535.07705169749227
10
-1296.0561572764552
20
534.32705169749238
10
-1295.940157276455
20
533.74305169749232
10
-1295.6171572764556
20
533.26605169749234
10
-1295.1411572764555
20
532.94505169749232
10
-1294.5561572764552
20
532.82705169749238
10
-1293.9741572764556
20
532.94505169749232
10
-1293.4951572764555
20
533.26605169749234
10
-1293.1751572764554
20
533.74305169749232
0
LWPOLYLINE
5
116
100
AcDbEntity
8
0
100
AcDbPolyline
90
5
70
1
43
0.0
10
-946.05385727645535
20
548.56705169749239
10
-946.05385727645535
20
548.56705169749239
10
-946.05385727645535
20
348.94365169749227
10
-980.53165727645535
20
348.94365169749227
10
-980.53165727645535
20
548.56705169749239
0
LWPOLYLINE
5
117
100
AcDbEntity
8
0
100
AcDbPolyline
90
1
70
1
43
0.0
10
-1293.0561572764555
20
534.32705169749238
0
ENDSEC
0
SECTION
2
OBJECTS
0
DICTIONARY
5
C
100
AcDbDictionary
3
ACAD_GROUP
350
D
3
ACAD_MLINESTYLE
350
17
0
DICTIONARY
5
D
100
AcDbDictionary
0
DICTIONARY
5
1A
330
C
100
AcDbDictionary
0
DICTIONARY
5
17
100
AcDbDictionary
0
ENDSEC
0
EOF
