0
SECTION
2
HEADER
9
$INSUNITS
70
4
9
$ACADVER
1
AC1014
9
$HANDSEED
5
FFFF
0
ENDSEC
0
SECTION
2
TABLES
0
TABLE
2
VPORT
5
8
100
AcDbSymbolTable
0
ENDTAB
0
TABLE
2
LTYPE
5
5
100
AcDbSymbolTable
0
LTYPE
5
14
100
AcDbSymbolTableRecord
100
AcDbLinetypeTableRecord
2
BYBLOCK
70
0
0
LTYPE
5
15
100
AcDbSymbolTableRecord
100
AcDbLinetypeTableRecord
2
BYLAYER
70
0
0
ENDTAB
0
TABLE
2
LAYER
5
2
100
AcDbSymbolTable
70
2
0
LAYER
5
50
100
AcDbSymbolTableRecord
100
AcDbLayerTableRecord
2
0
70
0
6
CONTINUOUS
0
ENDTAB
0
TABLE
2
STYLE
5
3
100
AcDbSymbolTable
70
1
0
STYLE
5
11
100
AcDbSymbolTableRecord
100
AcDbTextStyleTableRecord
2
STANDARD
70
0
0
ENDTAB
0
TABLE
2
VIEW
5
6
100
AcDbSymbolTable
70
0
0
ENDTAB
0
TABLE
2
UCS
5
7
100
AcDbSymbolTable
70
0
0
ENDTAB
0
TABLE
2
APPID
5
9
100
AcDbSymbolTable
70
2
0
APPID
5
12
100
AcDbSymbolTableRecord
100
AcDbRegAppTableRecord
2
ACAD
70
0
0
ENDTAB
0
TABLE
2
DIMSTYLE
5
A
100
AcDbSymbolTable
70
1
0
ENDTAB
0
TABLE
2
BLOCK_RECORD
5
1
100
AcDbSymbolTable
70
1
0
BLOCK_RECORD
5
1F
100
AcDbSymbolTableRecord
100
AcDbBlockTableRecord
2
*MODEL_SPACE
0
BLOCK_RECORD
5
1B
100
AcDbSymbolTableRecord
100
AcDbBlockTableRecord
2
*PAPER_SPACE
0
ENDTAB
0
ENDSEC
0
SECTION
2
BLOCKS
0
BLOCK
5
20
100
AcDbEntity
100
AcDbBlockBegin
2
*MODEL_SPACE
0
ENDBLK
5
21
100
AcDbEntity
100
AcDbBlockEnd
0
BLOCK
5
1C
100
AcDbEntity
100
AcDbBlockBegin
2
*PAPER_SPACE
0
ENDBLK
5
1D
100
AcDbEntity
100
AcDbBlockEnd
0
ENDSEC
0
SECTION
2
ENTITIES
0
CIRCLE
5
100
100
AcDbEntity
8
0
100
AcDbCircle
10
31.430896423742038
20
31.430896423746987
30
0
40
2.1589999999999998
210
0
220
0
230
1
0
CIRCLE
5
101
100
AcDbEntity
8
0
100
AcDbCircle
10
-36.960000000000001
20
18.760000000000005
30
0
40
0.89999999999999858
210
0
220
0
230
1
0
CIRCLE
5
102
100
AcDbEntity
8
0
100
AcDbCircle
10
31.430896423742048
20
-31.430896423742041
30
0
40
2.1589999999999998
210
0
220
0
230
1
0
CIRCLE
5
103
100
AcDbEntity
8
0
100
AcDbCircle
10
-31.430896423742041
20
31.430896423742034
30
0
40
2.1589999999999998
210
0
220
0
230
1
0
CIRCLE
5
104
100
AcDbEntity
8
0
100
AcDbCircle
10
-31.430896423742052
20
-31.430896423742034
30
0
40
2.1589999999999998
210
0
220
0
230
1
0
CIRCLE
5
105
100
AcDbEntity
8
0
100
AcDbCircle
10
-18.760000000000009
20
36.960000000000001
30
0
40
0.9000000000000008
210
-2.4651903288156619e-32
220
-0
230
1
0
CIRCLE
5
106
100
AcDbEntity
8
0
100
AcDbCircle
10
-36.960000000000001
20
-18.760000000000005
30
0
40
0.89999999999999858
210
0
220
0
230
1
0
CIRCLE
5
107
100
AcDbEntity
8
0
100
AcDbCircle
10
18.760000000000002
20
-36.960000000000001
30
0
40
0.9000000000000008
210
-2.4651903288156619e-32
220
-0
230
1
0
CIRCLE
5
108
100
AcDbEntity
8
0
100
AcDbCircle
10
36.960000000000001
20
18.760000000000005
30
0
40
0.89999999999999858
210
0
220
0
230
1
0
CIRCLE
5
109
100
AcDbEntity
8
0
100
AcDbCircle
10
18.760000000000002
20
36.960000000000001
30
0
40
0.9000000000000008
210
-2.4651903288156619e-32
220
-0
230
1
0
CIRCLE
5
110
100
AcDbEntity
8
0
100
AcDbCircle
10
36.960000000000001
20
-18.760000000000005
30
0
40
0.89999999999999858
210
0
220
0
230
1
0
CIRCLE
5
111
100
AcDbEntity
8
0
100
AcDbCircle
10
-18.760000000000009
20
-36.960000000000001
30
0
40
0.9000000000000008
210
-2.4651903288156619e-32
220
-0
230
1
0
LWPOLYLINE
5
112
100
AcDbEntity
8
0
100
AcDbPolyline
90
24
70
1
43
0.0
10
-41.46550000000002
20
-20.536083579329159
10
-41.465500000000006
20
20.536083579329159
42
-0.09358466928968906
10
-41.115724764571127
20
22.388480317783941
10
-36.499380332039777
20
34.176639033051316
42
-0.20931331328785194
10
-33.616610754161577
20
37.056399237594157
10
-23.213917911402355
20
41.117656942997755
42
-0.093321273227030418
10
-21.366462724709553
20
41.465500000000006
10
21.366462724709557
20
41.465500000000006
42
-0.093321273227021911
10
23.213917911402362
20
41.117656942997741
10
33.616610754161577
20
37.056399237594135
42
-0.20931331328785033
10
36.49938033203977
20
34.176639033051323
10
41.115724764571119
20
22.388480317783937
42
-0.093584669289687492
10
41.465500000000006
20
20.536083579329159
10
41.465500000000006
20
-20.536083579329159
42
-0.09358466928968906
10
41.115724764571127
20
-22.388480317783941
10
36.499380332039763
20
-34.176639033051316
42
-0.2093133132878516
10
33.61661075416157
20
-37.056399237594142
10
23.213917911402358
20
-41.117656942997733
42
-0.093321273227019441
10
21.366462724709553
20
-41.465500000000006
10
-21.366462724709564
20
-41.465500000000006
42
-0.093321273227022022
10
-23.213917911402365
20
-41.117656942997741
10
-33.616610754161584
20
-37.05639923759415
42
-0.20931331328785194
10
-36.499380332039777
20
-34.176639033051323
10
-41.115724764571127
20
-22.388480317783952
42
-0.093584669289688949
0
CIRCLE
5
113
100
AcDbEntity
8
0
100
AcDbCircle
10
0
20
0
30
0
40
2.5
210
0
220
0
230
1
0
ARC
5
114
100
AcDbEntity
8
0
100
AcDbCircle
10
0
20
105.74999999999997
30
0
40
114.99999999999999
210
0
220
0
230
1
100
AcDbArc
50
270
51
281.40986322437351
0
LINE
5
115
100
AcDbEntity
8
0
100
AcDbLine
10
22.75
20
-6.9772704362169762
30
0
11
22.75
21
-17.162316307195191
31
0
0
ARC
5
116
100
AcDbEntity
8
0
100
AcDbCircle
10
0
20
105.74999999999997
30
0
40
124.99999999999999
210
0
220
0
230
1
100
AcDbArc
50
270
51
281.40986322437351
0
LINE
5
117
100
AcDbEntity
8
0
100
AcDbLine
10
0
20
0
30
0
11
0
21
-28.447708005055581
31
0
0
ARC
5
118
100
AcDbEntity
8
0
100
AcDbCircle
10
0
20
105.74999999999997
30
0
40
114.99999999999997
210
0
220
0
230
1
100
AcDbArc
50
258.59013677562649
51
270
0
LINE
5
119
100
AcDbEntity
8
0
100
AcDbLine
10
-22.75
20
-6.9772704362169762
30
0
11
-22.75
21
-17.162316307195191
31
0
0
ARC
5
120
100
AcDbEntity
8
0
100
AcDbCircle
10
0
20
105.74999999999997
30
0
40
124.99999999999999
210
0
220
0
230
1
100
AcDbArc
50
258.59013677562649
51
270
0
LINE
5
121
100
AcDbEntity
8
0
100
AcDbLine
10
4.75
20
-9.1518602982562722
30
0
11
4.75
21
-19.159717396899772
31
0
0
LINE
5
122
100
AcDbEntity
8
0
100
AcDbLine
10
4.25
20
-9.1508236787784991
30
0
11
4.25
21
-19.177729108366382
31
0
0
LINE
5
123
100
AcDbEntity
8
0
100
AcDbLine
10
-4.75
20
-9.1518602982562722
30
0
11
-4.75
21
-19.159717396899772
31
0
0
LINE
5
124
100
AcDbEntity
8
0
100
AcDbLine
10
-4.25
20
-9.1508236787784991
30
0
11
-4.25
21
-19.177729108366382
31
0
0
CIRCLE
5
125
100
AcDbEntity
8
0
100
AcDbCircle
10
-1.9340165745842034e-16
20
32.5
30
0
40
2.5000000000000004
210
0
220
0
230
1
0
ENDSEC
0
SECTION
2
OBJECTS
0
DICTIONARY
5
C
100
AcDbDictionary
3
ACAD_GROUP
350
D
3
ACAD_MLINESTYLE
350
17
0
DICTIONARY
5
D
100
AcDbDictionary
0
DICTIONARY
5
1A
330
C
100
AcDbDictionary
0
DICTIONARY
5
17
100
AcDbDictionary
0
ENDSEC
0
EOF
