0
SECTION
2
HEADER
9
$INSUNITS
70
4
9
$ACADVER
1
AC1014
9
$HANDSEED
5
FFFF
0
ENDSEC
0
SECTION
2
TABLES
0
TABLE
2
VPORT
5
8
100
AcDbSymbolTable
0
ENDTAB
0
TABLE
2
LTYPE
5
5
100
AcDbSymbolTable
0
LTYPE
5
14
100
AcDbSymbolTableRecord
100
AcDbLinetypeTableRecord
2
BYBLOCK
70
0
0
LTYPE
5
15
100
AcDbSymbolTableRecord
100
AcDbLinetypeTableRecord
2
BYLAYER
70
0
0
ENDTAB
0
TABLE
2
LAYER
5
2
100
AcDbSymbolTable
70
2
0
LAYER
5
50
100
AcDbSymbolTableRecord
100
AcDbLayerTableRecord
2
0
70
0
6
CONTINUOUS
0
ENDTAB
0
TABLE
2
STYLE
5
3
100
AcDbSymbolTable
70
1
0
STYLE
5
11
100
AcDbSymbolTableRecord
100
AcDbTextStyleTableRecord
2
STANDARD
70
0
0
ENDTAB
0
TABLE
2
VIEW
5
6
100
AcDbSymbolTable
70
0
0
ENDTAB
0
TABLE
2
UCS
5
7
100
AcDbSymbolTable
70
0
0
ENDTAB
0
TABLE
2
APPID
5
9
100
AcDbSymbolTable
70
2
0
APPID
5
12
100
AcDbSymbolTableRecord
100
AcDbRegAppTableRecord
2
ACAD
70
0
0
ENDTAB
0
TABLE
2
DIMSTYLE
5
A
100
AcDbSymbolTable
70
1
0
ENDTAB
0
TABLE
2
BLOCK_RECORD
5
1
100
AcDbSymbolTable
70
1
0
BLOCK_RECORD
5
1F
100
AcDbSymbolTableRecord
100
AcDbBlockTableRecord
2
*MODEL_SPACE
0
BLOCK_RECORD
5
1B
100
AcDbSymbolTableRecord
100
AcDbBlockTableRecord
2
*PAPER_SPACE
0
ENDTAB
0
ENDSEC
0
SECTION
2
BLOCKS
0
BLOCK
5
20
100
AcDbEntity
100
AcDbBlockBegin
2
*MODEL_SPACE
0
ENDBLK
5
21
100
AcDbEntity
100
AcDbBlockEnd
0
BLOCK
5
1C
100
AcDbEntity
100
AcDbBlockBegin
2
*PAPER_SPACE
0
ENDBLK
5
1D
100
AcDbEntity
100
AcDbBlockEnd
0
ENDSEC
0
SECTION
2
ENTITIES
0
CIRCLE
5
100
100
AcDbEntity
8
0
100
AcDbCircle
10
0
20
0
30
0
40
25.375
210
0
220
0
230
1
0
CIRCLE
5
101
100
AcDbEntity
8
0
100
AcDbCircle
10
-36.960000000000001
20
18.760000000000005
30
0
40
0.89999999999999991
210
-2.4651903288156624e-32
220
0
230
1
0
CIRCLE
5
102
100
AcDbEntity
8
0
100
AcDbCircle
10
-18.760000000000005
20
-36.960000000000001
30
0
40
0.89999999999999991
210
-2.4651903288156624e-32
220
0
230
1
0
CIRCLE
5
103
100
AcDbEntity
8
0
100
AcDbCircle
10
36.960000000000001
20
-18.760000000000005
30
0
40
0.89999999999999991
210
-2.4651903288156624e-32
220
0
230
1
0
CIRCLE
5
104
100
AcDbEntity
8
0
100
AcDbCircle
10
18.760000000000002
20
36.960000000000001
30
0
40
0.89999999999999991
210
-2.4651903288156624e-32
220
0
230
1
0
CIRCLE
5
105
100
AcDbEntity
8
0
100
AcDbCircle
10
36.960000000000001
20
18.760000000000005
30
0
40
0.89999999999999991
210
-2.4651903288156624e-32
220
0
230
1
0
CIRCLE
5
106
100
AcDbEntity
8
0
100
AcDbCircle
10
18.760000000000002
20
-36.960000000000001
30
0
40
0.89999999999999991
210
-2.4651903288156624e-32
220
0
230
1
0
CIRCLE
5
107
100
AcDbEntity
8
0
100
AcDbCircle
10
-36.960000000000001
20
-18.760000000000005
30
0
40
0.89999999999999991
210
-2.4651903288156624e-32
220
0
230
1
0
CIRCLE
5
108
100
AcDbEntity
8
0
100
AcDbCircle
10
-18.760000000000005
20
36.960000000000001
30
0
40
0.89999999999999991
210
-2.4651903288156624e-32
220
0
230
1
0
LWPOLYLINE
5
109
100
AcDbEntity
8
0
100
AcDbPolyline
90
3
70
1
43
0.0
10
0.72552051094199133
20
39.643361613115033
42
-109.29168840472842
10
-0.72552051094204151
20
39.643361613115033
10
0
20
40.899999999999999
0
CIRCLE
5
110
100
AcDbEntity
8
0
100
AcDbCircle
10
-31.430896423742052
20
-31.430896423742034
30
0
40
2.1589999999999998
210
-0
220
0
230
1
0
CIRCLE
5
111
100
AcDbEntity
8
0
100
AcDbCircle
10
31.430896423742038
20
31.430896423746987
30
0
40
2.1589999999999998
210
-0
220
0
230
1
0
CIRCLE
5
112
100
AcDbEntity
8
0
100
AcDbCircle
10
31.430896423742048
20
-31.430896423742041
30
0
40
2.1589999999999998
210
-0
220
0
230
1
0
CIRCLE
5
113
100
AcDbEntity
8
0
100
AcDbCircle
10
-31.430896423742041
20
31.430896423742034
30
0
40
2.1589999999999998
210
-0
220
0
230
1
0
LWPOLYLINE
5
114
100
AcDbEntity
8
0
100
AcDbPolyline
90
24
70
1
43
0.0
10
-41.115724764571127
20
-22.388480317783944
42
-0.093584669289688838
10
-41.46550000000002
20
-20.536083579329159
10
-41.465500000000006
20
20.536083579329159
42
-0.09358466928968906
10
-41.115724764571127
20
22.388480317783941
10
-36.499380332039777
20
34.176639033051316
42
-0.20931331328785194
10
-33.616610754161577
20
37.056399237594157
10
-23.213917911402358
20
41.117656942997741
42
-0.093321273227030752
10
-21.366462724709553
20
41.465500000000006
10
21.366462724709557
20
41.465500000000006
42
-0.093321273227021911
10
23.213917911402362
20
41.117656942997741
10
33.616610754161584
20
37.056399237594142
42
-0.20931331328785044
10
36.499380332039777
20
34.176639033051323
10
41.115724764571119
20
22.388480317783941
42
-0.093584669289687603
10
41.465500000000006
20
20.536083579329159
10
41.465500000000006
20
-20.536083579329159
42
-0.09358466928968906
10
41.115724764571127
20
-22.388480317783941
10
36.499380332039763
20
-34.176639033051316
42
-0.20931331328785135
10
33.61661075416157
20
-37.056399237594142
10
23.213917911402358
20
-41.117656942997733
42
-0.09332127322701933
10
21.366462724709553
20
-41.465500000000006
10
-21.366462724709564
20
-41.465500000000006
42
-0.093321273227022022
10
-23.213917911402365
20
-41.117656942997741
10
-33.616610754161584
20
-37.05639923759415
42
-0.20931331328785194
10
-36.499380332039777
20
-34.176639033051323
0
CIRCLE
5
115
100
AcDbEntity
8
0
100
AcDbCircle
10
-36.960000000000001
20
18.760000000000005
30
0
40
0.89999999999999991
210
-2.4651903288156624e-32
220
0
230
1
0
CIRCLE
5
116
100
AcDbEntity
8
0
100
AcDbCircle
10
-18.760000000000005
20
-36.960000000000001
30
0
40
0.89999999999999991
210
-2.4651903288156624e-32
220
0
230
1
0
CIRCLE
5
117
100
AcDbEntity
8
0
100
AcDbCircle
10
36.960000000000001
20
-18.760000000000005
30
0
40
0.89999999999999991
210
-2.4651903288156624e-32
220
0
230
1
0
CIRCLE
5
118
100
AcDbEntity
8
0
100
AcDbCircle
10
18.760000000000002
20
36.960000000000001
30
0
40
0.89999999999999991
210
-2.4651903288156624e-32
220
0
230
1
0
CIRCLE
5
119
100
AcDbEntity
8
0
100
AcDbCircle
10
36.960000000000001
20
18.760000000000005
30
0
40
0.89999999999999991
210
-2.4651903288156624e-32
220
0
230
1
0
CIRCLE
5
120
100
AcDbEntity
8
0
100
AcDbCircle
10
18.760000000000002
20
-36.960000000000001
30
0
40
0.89999999999999991
210
-2.4651903288156624e-32
220
0
230
1
0
CIRCLE
5
121
100
AcDbEntity
8
0
100
AcDbCircle
10
-36.960000000000001
20
-18.760000000000005
30
0
40
0.89999999999999991
210
-2.4651903288156624e-32
220
0
230
1
0
CIRCLE
5
122
100
AcDbEntity
8
0
100
AcDbCircle
10
-18.760000000000005
20
36.960000000000001
30
0
40
0.89999999999999991
210
-2.4651903288156624e-32
220
0
230
1
0
LWPOLYLINE
5
123
100
AcDbEntity
8
0
100
AcDbPolyline
90
3
70
1
43
0.0
10
0.72552051094199133
20
39.643361613115033
42
-109.29168840472842
10
-0.72552051094204151
20
39.643361613115033
10
0
20
40.899999999999999
0
CIRCLE
5
124
100
AcDbEntity
8
0
100
AcDbCircle
10
-31.430896423742052
20
-31.430896423742034
30
0
40
2.1589999999999998
210
-0
220
0
230
1
0
CIRCLE
5
125
100
AcDbEntity
8
0
100
AcDbCircle
10
31.430896423742038
20
31.430896423746987
30
0
40
2.1589999999999998
210
-0
220
0
230
1
0
CIRCLE
5
126
100
AcDbEntity
8
0
100
AcDbCircle
10
31.430896423742048
20
-31.430896423742041
30
0
40
2.1589999999999998
210
-0
220
0
230
1
0
CIRCLE
5
127
100
AcDbEntity
8
0
100
AcDbCircle
10
-31.430896423742041
20
31.430896423742034
30
0
40
2.1589999999999998
210
-0
220
0
230
1
0
LWPOLYLINE
5
128
100
AcDbEntity
8
0
100
AcDbPolyline
90
24
70
1
43
0.0
10
-41.115724764571127
20
-22.388480317783944
42
-0.093584669289688838
10
-41.46550000000002
20
-20.536083579329159
10
-41.465500000000006
20
20.536083579329159
42
-0.09358466928968906
10
-41.115724764571127
20
22.388480317783941
10
-36.499380332039777
20
34.176639033051316
42
-0.20931331328785194
10
-33.616610754161577
20
37.056399237594157
10
-23.213917911402358
20
41.117656942997741
42
-0.093321273227030752
10
-21.366462724709553
20
41.465500000000006
10
21.366462724709557
20
41.465500000000006
42
-0.093321273227021911
10
23.213917911402362
20
41.117656942997741
10
33.616610754161584
20
37.056399237594142
42
-0.20931331328785044
10
36.499380332039777
20
34.176639033051323
10
41.115724764571119
20
22.388480317783941
42
-0.093584669289687603
10
41.465500000000006
20
20.536083579329159
10
41.465500000000006
20
-20.536083579329159
42
-0.09358466928968906
10
41.115724764571127
20
-22.388480317783941
10
36.499380332039763
20
-34.176639033051316
42
-0.20931331328785135
10
33.61661075416157
20
-37.056399237594142
10
23.213917911402358
20
-41.117656942997733
42
-0.09332127322701933
10
21.366462724709553
20
-41.465500000000006
10
-21.366462724709564
20
-41.465500000000006
42
-0.093321273227022022
10
-23.213917911402365
20
-41.117656942997741
10
-33.616610754161584
20
-37.05639923759415
42
-0.20931331328785194
10
-36.499380332039777
20
-34.176639033051323
0
ENDSEC
0
SECTION
2
OBJECTS
0
DICTIONARY
5
C
100
AcDbDictionary
3
ACAD_GROUP
350
D
3
ACAD_MLINESTYLE
350
17
0
DICTIONARY
5
D
100
AcDbDictionary
0
DICTIONARY
5
1A
330
C
100
AcDbDictionary
0
DICTIONARY
5
17
100
AcDbDictionary
0
ENDSEC
0
EOF
