0
SECTION
2
HEADER
9
$INSUNITS
70
1
9
$ACADVER
1
AC1014
9
$HANDSEED
5
FFFF
0
ENDSEC
0
SECTION
2
TABLES
0
TABLE
2
VPORT
5
8
100
AcDbSymbolTable
0
ENDTAB
0
TABLE
2
LTYPE
5
5
100
AcDbSymbolTable
0
LTYPE
5
14
100
AcDbSymbolTableRecord
100
AcDbLinetypeTableRecord
2
BYBLOCK
70
0
0
LTYPE
5
15
100
AcDbSymbolTableRecord
100
AcDbLinetypeTableRecord
2
BYLAYER
70
0
0
ENDTAB
0
TABLE
2
LAYER
5
2
100
AcDbSymbolTable
70
2
0
LAYER
5
50
100
AcDbSymbolTableRecord
100
AcDbLayerTableRecord
2
0
70
0
6
CONTINUOUS
0
ENDTAB
0
TABLE
2
STYLE
5
3
100
AcDbSymbolTable
70
1
0
STYLE
5
11
100
AcDbSymbolTableRecord
100
AcDbTextStyleTableRecord
2
STANDARD
70
0
0
ENDTAB
0
TABLE
2
VIEW
5
6
100
AcDbSymbolTable
70
0
0
ENDTAB
0
TABLE
2
UCS
5
7
100
AcDbSymbolTable
70
0
0
ENDTAB
0
TABLE
2
APPID
5
9
100
AcDbSymbolTable
70
2
0
APPID
5
12
100
AcDbSymbolTableRecord
100
AcDbRegAppTableRecord
2
ACAD
70
0
0
ENDTAB
0
TABLE
2
DIMSTYLE
5
A
100
AcDbSymbolTable
70
1
0
ENDTAB
0
TABLE
2
BLOCK_RECORD
5
1
100
AcDbSymbolTable
70
1
0
BLOCK_RECORD
5
1F
100
AcDbSymbolTableRecord
100
AcDbBlockTableRecord
2
*MODEL_SPACE
0
BLOCK_RECORD
5
1B
100
AcDbSymbolTableRecord
100
AcDbBlockTableRecord
2
*PAPER_SPACE
0
ENDTAB
0
ENDSEC
0
SECTION
2
BLOCKS
0
BLOCK
5
20
100
AcDbEntity
100
AcDbBlockBegin
2
*MODEL_SPACE
0
ENDBLK
5
21
100
AcDbEntity
100
AcDbBlockEnd
0
BLOCK
5
1C
100
AcDbEntity
100
AcDbBlockBegin
2
*PAPER_SPACE
0
ENDBLK
5
1D
100
AcDbEntity
100
AcDbBlockEnd
0
ENDSEC
0
SECTION
2
ENTITIES
0
LINE
5
100
100
AcDbEntity
8
0
100
AcDbLine
10
-19.053213435316806
20
-3.9700004053197701e-16
30
0
11
19.053213435317065
21
2.0343366493288684e-15
31
0
0
SPLINE
5
101
100
AcDbEntity
8
0
100
AcDbSpline
70
0
71
3
72
35
73
31
74
0
42
0.000000001
43
0.0000000001
44
0.0000000001
40
0.35347014764405382
40
0.35347014764405382
40
0.35347014764405382
40
0.35347014764405382
40
1.3991823243429411
40
1.3991823243429411
40
1.3991823243429411
40
8.8573385490820566
40
8.8573385490820566
40
8.8573385490820566
40
23.953577518473391
40
23.953577518473391
40
23.953577518473391
40
36.854968256942236
40
36.854968256942236
40
36.854968256942236
40
75.133306138268495
40
75.133306138268495
40
75.133306138268495
40
78.030464624072749
40
78.030464624072749
40
78.030464624072749
40
102.71232665437941
40
102.71232665437941
40
102.71232665437941
40
113.88415732771867
40
113.88415732771867
40
113.88415732771867
40
132.96264036226125
40
132.96264036226125
40
132.96264036226125
40
133.73532333439059
40
133.73532333439059
40
133.73532333439059
40
133.73532333439059
10
19.053213435317055
20
2.0324949072862115e-15
30
0
10
19.028924400254262
20
0.12609678023863768
30
0
10
19.004635365191469
20
0.25219356047727332
30
0
10
18.980346330128672
20
0.37829034071590895
30
0
10
18.807236279608389
20
1.276992983333157
30
0
10
18.665179462992331
20
2.0168333505236413
30
0
10
18.542267013011738
20
2.6566183832382104
30
0
10
18.29347687489884
20
3.9516231339917156
30
0
10
18.122827487426097
20
4.8382561915257485
30
0
10
17.93265362083654
20
5.798222983222594
30
0
10
17.77000612221758
20
6.6192411400639699
30
0
10
17.606956191240783
20
7.4218588906687391
30
0
10
17.439706479443135
20
8.2059709205213505
30
0
10
16.943477731045064
20
10.53242593796492
30
0
10
16.411948458570937
20
12.696291755771437
30
0
10
15.73389296789027
20
14.695073358863565
30
0
10
15.682569578684948
20
14.846365174300317
30
0
10
15.629925373591011
20
14.998087276465233
30
0
10
15.57588138804589
20
15.15010353435831
30
0
10
15.115462601386991
20
16.445180873780746
30
0
10
14.555026017827682
20
17.762028830623279
30
0
10
13.835826210805088
20
19.015578833495059
30
0
10
13.510474016784348
20
19.58266080399429
30
0
10
13.152800811518901
20
20.136096914811677
30
0
10
12.756337539700732
20
20.668466137672407
30
0
10
12.079284867997346
20
21.577609632900945
30
0
10
11.287601268754823
20
22.425981210637552
30
0
10
10.359529798470295
20
23.16475909254072
30
0
10
10.32799897638469
20
23.189858747794563
30
0
10
10.296468154299085
20
23.214958403048406
30
0
10
10.264937332213508
20
23.240058058302218
30
0
0
SPLINE
5
102
100
AcDbEntity
8
0
100
AcDbSpline
70
0
71
3
72
14
73
10
74
0
42
0.000000001
43
0.0000000001
44
0.0000000001
40
-0.30709502240666708
40
-0.30709502240666708
40
-0.30709502240666708
40
-0.30709502240666708
40
0
40
0
40
0
40
3.0962523762960483
40
3.0962523762960483
40
3.0962523762960483
40
3.2171118286843732
40
3.2171118286843732
40
3.2171118286843732
40
3.2171118286843732
10
10.264937332213497
20
23.240058058302242
30
0
10
10.230612536554604
20
23.26117662449964
30
0
10
10.196287740895723
20
23.282295190697027
30
0
10
10.161962945236844
20
23.303413756894415
30
0
10
9.766257821726299
20
23.546874050978978
30
0
10
9.3635231102780434
20
23.77079803481158
30
0
10
8.9547864880564809
20
23.976050297598622
30
0
10
8.9388318182398532
20
23.984062136772916
30
0
10
8.9228681862998904
20
23.992045345261101
30
0
10
8.9068956405743691
20
24.000000000000043
30
0
0
LINE
5
103
100
AcDbEntity
8
0
100
AcDbLine
10
8.9068956405743709
20
24.000000000000046
30
0
11
-1.6094842554078305e-07
21
24
31
0
0
SPLINE
5
104
100
AcDbEntity
8
0
100
AcDbSpline
70
0
71
3
72
14
73
10
74
0
42
0.000000001
43
0.0000000001
44
0.0000000001
40
21.042577145006479
40
21.042577145006479
40
21.042577145006479
40
21.042577145006479
40
22.167186296749421
40
22.167186296749421
40
22.167186296749421
40
24.22250689327408
40
24.22250689327408
40
24.22250689327408
40
24.52807667341893
40
24.52807667341893
40
24.52807667341893
40
24.52807667341893
10
-8.9071695730532756
20
23.999999999999996
30
0
10
-9.0580005487820703
20
23.924887912754436
30
0
10
-9.2080869305028372
20
23.847201051174178
30
0
10
-9.3573751687029887
20
23.766871438726799
30
0
10
-9.6300190804957104
20
23.62016611194089
30
0
10
-9.8982194173730687
20
23.46568377323122
30
0
10
-10.161962945236828
20
23.303413756894425
30
0
10
-10.196287740895892
20
23.282295190696921
30
0
10
-10.230612536554954
20
23.26117662449942
30
0
10
-10.264937332213982
20
23.240058058301944
30
0
0
SPLINE
5
105
100
AcDbEntity
8
0
100
AcDbSpline
70
0
71
3
72
38
73
34
74
0
42
0.000000001
43
0.0000000001
44
0.0000000001
40
-0.30709502240472375
40
-0.30709502240472375
40
-0.30709502240472375
40
-0.30709502240472375
40
0
40
0
40
0
40
2.0472540130299848
40
2.0472540130299848
40
2.0472540130299848
40
9.3968412243584378
40
9.3968412243584378
40
9.3968412243584378
40
12.956297539044003
40
12.956297539044003
40
12.956297539044003
40
22.468920396046293
40
22.468920396046293
40
22.468920396046293
40
24.633880688563032
40
24.633880688563032
40
24.633880688563032
40
37.687875238673143
40
37.687875238673143
40
37.687875238673143
40
38.473508269396085
40
38.473508269396085
40
38.473508269396085
40
44.951496301732121
40
44.951496301732121
40
44.951496301732121
40
50.92489649459165
40
50.92489649459165
40
50.92489649459165
40
51.445436352912672
40
51.445436352912672
40
51.445436352912672
40
51.445436352912672
10
-10.264937332214034
20
23.240058058301813
30
0
10
-10.296468154299456
20
23.214958403048112
30
0
10
-10.327998976384874
20
23.189858747794418
30
0
10
-10.359529798470293
20
23.16475909254072
30
0
10
-10.610088325212951
20
22.965305598271609
30
0
10
-10.851007252511275
20
22.757679510443623
30
0
10
-11.08251557024238
20
22.542855611718849
30
0
10
-11.913624245806503
20
21.771643554638271
30
0
10
-12.622215299215254
20
20.908673496056437
30
0
10
-13.231700671043097
20
19.993282238262847
30
0
10
-13.526788779039203
20
19.550086901960686
30
0
10
-13.800557547297677
20
19.091963688127194
30
0
10
-14.055891215926561
20
18.621237113535575
30
0
10
-14.738268713394435
20
17.363223535904638
30
0
10
-15.28969486350425
20
16.016256414345534
30
0
10
-15.76301458788789
20
14.608855294206014
30
0
10
-15.870747694679016
20
14.288514333618778
30
0
10
-15.974597155440035
20
13.964363610311025
30
0
10
-16.075050105187636
20
13.636578618563977
30
0
10
-16.680748169526375
20
11.660143526121846
30
0
10
-17.164610596354557
20
9.5514055789730303
30
0
10
-17.619734113528349
20
7.3477557922884342
30
0
10
-17.647165880306659
20
7.2149346904812024
30
0
10
-17.674768923974156
20
7.0803101657717864
30
0
10
-17.702458692066479
20
6.9444120885157838
30
0
10
-17.930776468058113
20
5.8238556917566386
30
0
10
-18.165345878467747
20
4.6151797139965813
30
0
10
-18.355269656676068
20
3.6297750969935096
30
0
10
-18.530410727711441
20
2.7210693959315839
30
0
10
-18.701844480375495
20
1.8241356143056531
30
0
10
-18.98034633013831
20
0.3782903407159014
30
0
10
-19.004635365200986
20
0.25219356047787916
30
0
10
-19.028924400263662
20
0.12609678023985688
30
0
10
-19.053213435326338
20
1.8345779838412231e-12
30
0
0
LINE
5
106
100
AcDbEntity
8
0
100
AcDbLine
10
-19.053213435316806
20
-3.9700004053197701e-16
30
0
11
-7.5227815476854749
21
27.274706186950706
31
0
0
LINE
5
107
100
AcDbEntity
8
0
100
AcDbLine
10
-7.5227815476854749
20
27.274706186950706
30
0
11
-6.1411695459904898
21
26.69062718820792
31
0
0
LINE
5
108
100
AcDbEntity
8
0
100
AcDbLine
10
-6.1411695459904898
20
26.69062718820792
30
0
11
-17.424680969443862
21
-2.9309340167684477e-16
31
0
0
LINE
5
109
100
AcDbEntity
8
0
100
AcDbLine
10
-6.1411695459904898
20
26.69062718820792
30
0
11
-7.9127648485718165
21
22.499999999999989
31
0
0
LINE
5
110
100
AcDbEntity
8
0
100
AcDbLine
10
-19.053213435316806
20
-3.9700004053197701e-16
30
0
11
-17.424680969443862
21
-2.9309340167684477e-16
31
0
0
LINE
5
111
100
AcDbEntity
8
0
100
AcDbLine
10
-17.424680969443862
20
-2.9309340167684477e-16
30
0
11
0
21
0
31
0
0
LINE
5
112
100
AcDbEntity
8
0
100
AcDbLine
10
0
20
0
30
0
11
-1.7840200015006703e-17
21
1.5
31
0
0
LINE
5
113
100
AcDbEntity
8
0
100
AcDbLine
10
-1.7840200015006703e-17
20
1.5
30
0
11
-16.790553228052385
21
1.500000000000018
31
0
0
LWPOLYLINE
5
114
100
AcDbEntity
8
0
100
AcDbPolyline
90
4
70
1
43
0.0
10
2.5176711109609849e-14
20
11.249999999999504
10
-12.668722909007837
20
11.250000000000009
10
-12.034595167616374
20
12.749999999999993
10
5.1167200934292364e-14
20
12.749999999999503
0
LINE
5
115
100
AcDbEntity
8
0
100
AcDbLine
10
-12.342509732797627
20
12.021642261292035
30
0
11
-12.668722909007837
21
11.250000000000009
31
0
0
LINE
5
116
100
AcDbEntity
8
0
100
AcDbLine
10
-0.74999999999998757
20
22.499999999999996
30
0
11
-0.74999999999999911
21
1.5000000000000004
31
0
0
LINE
5
117
100
AcDbEntity
8
0
100
AcDbLine
10
1.9313721242387577e-08
20
24
30
0
11
-8.9071695730532845
21
23.999999999999993
31
0
0
LINE
5
118
100
AcDbEntity
8
0
100
AcDbLine
10
0
20
0
30
0
11
1.2868096789356145e-13
21
32.065118096840365
31
0
0
LINE
5
119
100
AcDbEntity
8
0
100
AcDbLine
10
-7.9127648485718165
20
22.499999999999989
30
0
11
9.0295060472284104e-14
21
22.499999999999996
31
0
0
LINE
5
120
100
AcDbEntity
8
0
100
AcDbLine
10
7.5227815476856934
20
27.274706186950642
30
0
11
6.1411695459907039
21
26.69062718820787
31
0
0
LINE
5
121
100
AcDbEntity
8
0
100
AcDbLine
10
1.6094861817024538e-07
20
24
30
0
11
8.9071695730534763
21
23.999999999999918
31
0
0
LINE
5
122
100
AcDbEntity
8
0
100
AcDbLine
10
1.2057181596319553e-14
20
1.5
30
0
11
16.790553228052396
21
1.4999999999998832
31
0
0
LINE
5
123
100
AcDbEntity
8
0
100
AcDbLine
10
6.1411695459907039
20
26.69062718820787
30
0
11
7.9127648485719977
21
22.499999999999925
31
0
0
LINE
5
124
100
AcDbEntity
8
0
100
AcDbLine
10
19.053213435316806
20
-1.5332242753682242e-13
30
0
11
7.5227815476856934
21
27.274706186950642
31
0
0
LINE
5
125
100
AcDbEntity
8
0
100
AcDbLine
10
19.053213435316806
20
-1.5332242753682242e-13
30
0
11
-19.053213435317065
21
1.5495976414562137e-13
31
0
0
LINE
5
126
100
AcDbEntity
8
0
100
AcDbLine
10
5.1167200934292308e-14
20
12.749999999999503
30
0
11
12.034595167616477
21
12.749999999999895
31
0
0
LINE
5
127
100
AcDbEntity
8
0
100
AcDbLine
10
0.75000000000016809
20
22.499999999999989
30
0
11
0.75000000000001121
21
1.4999999999999944
31
0
0
LINE
5
128
100
AcDbEntity
8
0
100
AcDbLine
10
6.6343392624037437e-14
20
11.249999999999504
30
0
11
5.1167200934292308e-14
21
12.749999999999503
31
0
0
LINE
5
129
100
AcDbEntity
8
0
100
AcDbLine
10
6.1411695459907039
20
26.69062718820787
30
0
11
17.424680969443862
21
-1.401475486768939e-13
31
0
0
LINE
5
130
100
AcDbEntity
8
0
100
AcDbLine
10
17.424680969443862
20
-1.401475486768939e-13
30
0
11
0
21
0
31
0
0
LINE
5
131
100
AcDbEntity
8
0
100
AcDbLine
10
7.9127648485719977
20
22.499999999999925
30
0
11
9.0295060472284067e-14
21
22.499999999999996
31
0
0
LINE
5
132
100
AcDbEntity
8
0
100
AcDbLine
10
19.053213435316806
20
-1.5332242753682242e-13
30
0
11
17.424680969443862
21
-1.401475486768939e-13
31
0
0
LINE
5
133
100
AcDbEntity
8
0
100
AcDbLine
10
-8.9068956405741773
20
24.000000000000117
30
0
11
9.6293574692296164e-14
21
23.999999999999993
31
0
0
LINE
5
134
100
AcDbEntity
8
0
100
AcDbLine
10
0
20
0
30
0
11
1.2057181596319553e-14
21
1.5
31
0
0
SPLINE
5
135
100
AcDbEntity
8
0
100
AcDbSpline
70
0
71
3
72
38
73
34
74
0
42
0.000000001
43
0.0000000001
44
0.0000000001
40
-0.30709502239619912
40
-0.30709502239619912
40
-0.30709502239619912
40
-0.30709502239619912
40
0
40
0
40
0
40
2.0472540130299848
40
2.0472540130299848
40
2.0472540130299848
40
9.3968412243584378
40
9.3968412243584378
40
9.3968412243584378
40
12.956297539044003
40
12.956297539044003
40
12.956297539044003
40
22.468920396046293
40
22.468920396046293
40
22.468920396046293
40
24.633880688563032
40
24.633880688563032
40
24.633880688563032
40
37.687875238673143
40
37.687875238673143
40
37.687875238673143
40
38.473508269396135
40
38.473508269396135
40
38.473508269396135
40
44.951496301732121
40
44.951496301732121
40
44.951496301732121
40
50.924896494589142
40
50.924896494589142
40
50.924896494589142
40
51.445436352912822
40
51.445436352912822
40
51.445436352912822
40
51.445436352912822
10
10.264937332216842
20
23.240058058299645
30
0
10
10.296468154301392
20
23.214958403046634
30
0
10
10.327998976385937
20
23.189858747793636
30
0
10
10.359529798470479
20
23.164759092540638
30
0
10
10.610088325213136
20
22.965305598271527
30
0
10
10.851007252511458
20
22.757679510443534
30
0
10
11.08251557024256
20
22.542855611718757
30
0
10
11.913624245806679
20
21.771643554638178
30
0
10
12.622215299215423
20
20.908673496056338
30
0
10
13.231700671043257
20
19.99328223826274
30
0
10
13.526788779039359
20
19.550086901960576
30
0
10
13.800557547297831
20
19.09196368812708
30
0
10
14.055891215926708
20
18.621237113535464
30
0
10
14.738268713394575
20
17.36322353590452
30
0
10
15.28969486350438
20
16.01625641434541
30
0
10
15.763014587888007
20
14.608855294205888
30
0
10
15.870747694679132
20
14.28851433361865
30
0
10
15.974597155440147
20
13.964363610310897
30
0
10
16.075050105187742
20
13.636578618563847
30
0
10
16.680748169526467
20
11.660143526121711
30
0
10
17.164610596354631
20
9.5514055789728936
30
0
10
17.619734113528406
20
7.3477557922882921
30
0
10
17.647165880306719
20
7.2149346904810532
30
0
10
17.67476892397422
20
7.0803101657716283
30
0
10
17.702458692066543
20
6.9444120885156142
30
0
10
17.93077646805817
20
5.8238556917564726
30
0
10
18.165345878467786
20
4.6151797139964286
30
0
10
18.355269656676096
20
3.6297750969933635
30
0
10
18.530410727714042
20
2.7210693959180583
30
0
10
18.701844480367498
20
1.8241356142958041
30
0
10
18.980346330128434
20
0.37829034071574252
30
0
10
19.004635365191227
20
0.25219356047711655
30
0
10
19.028924400254017
20
0.12609678023849064
30
0
10
19.053213435316803
20
-1.3528861684919394e-13
30
0
0
LINE
5
136
100
AcDbEntity
8
0
100
AcDbLine
10
12.668722909007927
20
11.249999999999906
30
0
11
6.6343392624037437e-14
21
11.249999999999504
31
0
0
ENDSEC
0
SECTION
2
OBJECTS
0
DICTIONARY
5
C
100
AcDbDictionary
3
ACAD_GROUP
350
D
3
ACAD_MLINESTYLE
350
17
0
DICTIONARY
5
D
100
AcDbDictionary
0
DICTIONARY
5
1A
330
C
100
AcDbDictionary
0
DICTIONARY
5
17
100
AcDbDictionary
0
ENDSEC
0
EOF
