0
SECTION
2
HEADER
0
ENDSEC
0
SECTION
2
TABLES
0
TABLE
2
LTYPE
0
LTYPE
72
65
70
64
2
CONTINUOUS
3
______
73
0
40
0
0
ENDTAB
0
TABLE
2
LAYER
0
ENDTAB
0
ENDSEC
0
SECTION
2
ENTITIES
0
CIRCLE
8
0
10
19.5
20
0
40
2
0
CIRCLE
8
0
10
19.5
20
0
40
2
0
LINE
8
layer0
10
31.9842648
20
4.478115
11
31.8038025
21
4.26065
0
LINE
8
layer0
10
31.8038025
20
4.26065
11
31.6267065
21
4.0646033
0
LINE
8
layer0
10
31.6267065
20
4.0646033
11
31.4570285
21
3.8919023
0
LINE
8
layer0
10
31.4570285
20
3.8919023
11
31.2944065
21
3.7396509
0
LINE
8
layer0
10
31.2944065
20
3.7396509
11
31.1406247
21
3.6072862
0
LINE
8
layer0
10
31.1406247
20
3.6072862
11
30.9961931
21
3.4931153
0
LINE
8
layer0
10
30.9961931
20
3.4931153
11
30.8642854
21
3.3975348
0
LINE
8
layer0
10
30.8642854
20
3.3975348
11
30.7433587
21
3.317383
0
LINE
8
layer0
10
30.7433587
20
3.317383
11
30.6375911
21
3.2534911
0
LINE
8
layer0
10
30.6375911
20
3.2534911
11
30.4703847
21
3.165755
0
LINE
8
layer0
10
30.4703847
20
3.165755
11
30.3696891
21
3.1229069
0
LINE
8
layer0
10
30.3696891
20
3.1229069
11
30.1910585
21
3.0759455
0
LINE
8
layer0
10
30.1910585
20
3.0759455
11
30.0199997
21
3.0193664
0
LINE
8
layer0
10
30.0199997
20
3.0193664
11
29.8724938
21
2.9547376
0
LINE
8
layer0
10
29.8724938
20
2.9547376
11
29.7488724
21
2.8839297
0
LINE
8
layer0
10
29.7488724
20
2.8839297
11
29.649361
21
2.808833
0
LINE
8
layer0
10
29.649361
20
2.808833
11
29.5740733
21
2.7313361
0
LINE
8
layer0
10
29.5740733
20
2.7313361
11
29.5455112
21
2.6922937
0
LINE
8
layer0
10
29.5455112
20
2.6922937
11
29.5229858
21
2.6533509
0
LINE
8
layer0
10
29.5229858
20
2.6533509
11
29.5064873
21
2.6147607
0
LINE
8
layer0
10
29.5064873
20
2.6147607
11
29.4959828
21
2.5767409
0
LINE
8
layer0
10
29.4959828
20
2.5767409
11
29.4914313
21
2.5395483
0
LINE
8
layer0
10
29.4914313
20
2.5395483
11
29.4976927
21
2.4771101
0
LINE
8
layer0
10
29.4976927
20
2.4771101
11
29.6020884
21
2.0094303
0
LINE
8
layer0
10
29.6020884
20
2.0094303
11
29.6846126
21
1.5374001
0
LINE
8
layer0
10
29.6846126
20
1.5374001
11
29.7027219
21
1.4773186
0
LINE
8
layer0
10
29.7027219
20
1.4773186
11
29.72116
21
1.4446989
0
LINE
8
layer0
10
29.72116
20
1.4446989
11
29.7454145
21
1.413593
0
LINE
8
layer0
10
29.7454145
20
1.413593
11
29.7754248
21
1.384254
0
LINE
8
layer0
10
29.7754248
20
1.384254
11
29.8111384
21
1.3568957
0
LINE
8
layer0
10
29.8111384
20
1.3568957
11
29.8524672
21
1.3317555
0
LINE
8
layer0
10
29.8524672
20
1.3317555
11
29.9516807
21
1.2889689
0
LINE
8
layer0
10
29.9516807
20
1.2889689
11
30.0723556
21
1.25767
0
LINE
8
layer0
10
30.0723556
20
1.25767
11
30.2136639
21
1.2395599
0
LINE
8
layer0
10
30.2136639
20
1.2395599
11
30.3746739
21
1.2362988
0
LINE
8
layer0
10
30.3746739
20
1.2362988
11
30.5543635
21
1.2494879
0
LINE
8
layer0
10
30.5543635
20
1.2494879
11
30.737368
21
1.2744601
0
LINE
8
layer0
10
30.737368
20
1.2744601
11
30.8467959
21
1.2734082
0
LINE
8
layer0
10
30.8467959
20
1.2734082
11
31.0348496
21
1.2563377
0
LINE
8
layer0
10
31.0348496
20
1.2563377
11
31.1570165
21
1.2377848
0
LINE
8
layer0
10
31.1570165
20
1.2377848
11
31.299411
21
1.2100109
0
LINE
8
layer0
10
31.299411
20
1.2100109
11
31.4578549
21
1.172185
0
LINE
8
layer0
10
31.4578549
20
1.172185
11
31.6349836
21
1.1219763
0
LINE
8
layer0
10
31.6349836
20
1.1219763
11
31.8277132
21
1.058537
0
LINE
8
layer0
10
31.8277132
20
1.058537
11
32.0362204
21
0.9801078
0
LINE
8
layer0
10
32.0362204
20
0.9801078
11
32.2590723
21
0.8854859
0
LINE
8
layer0
10
32.2590723
20
0.8854859
11
32.4977115
21
0.7721341
0
LINE
8
layer0
10
32.4977115
20
0.7721341
11
32.7476571
21
0.6402825
0
LINE
8
layer0
10
32.7476571
20
0.6402825
11
32.9907443
21
0.4989441
0
ARC
8
layer0
10
19.4999676
20
0
40
13.5
50
357.8819331
51
362.1180669
0
LINE
8
layer0
10
32.9907443
20
-0.4989441
11
32.7476571
21
-0.6402825
0
LINE
8
layer0
10
32.7476571
20
-0.6402825
11
32.4977115
21
-0.7721341
0
LINE
8
layer0
10
32.4977115
20
-0.7721341
11
32.2590723
21
-0.8854859
0
LINE
8
layer0
10
32.2590723
20
-0.8854859
11
32.0362204
21
-0.9801078
0
LINE
8
layer0
10
32.0362204
20
-0.9801078
11
31.8277132
21
-1.058537
0
LINE
8
layer0
10
31.8277132
20
-1.058537
11
31.6349836
21
-1.1219763
0
LINE
8
layer0
10
31.6349836
20
-1.1219763
11
31.4578549
21
-1.172185
0
LINE
8
layer0
10
31.4578549
20
-1.172185
11
31.299411
21
-1.2100109
0
LINE
8
layer0
10
31.299411
20
-1.2100109
11
31.1570165
21
-1.2377848
0
LINE
8
layer0
10
31.1570165
20
-1.2377848
11
31.0348496
21
-1.2563377
0
LINE
8
layer0
10
31.0348496
20
-1.2563377
11
30.8467959
21
-1.2734082
0
LINE
8
layer0
10
30.8467959
20
-1.2734082
11
30.737368
21
-1.2744601
0
LINE
8
layer0
10
30.737368
20
-1.2744601
11
30.5543635
21
-1.2494879
0
LINE
8
layer0
10
30.5543635
20
-1.2494879
11
30.3746739
21
-1.2362988
0
LINE
8
layer0
10
30.3746739
20
-1.2362988
11
30.2136639
21
-1.2395599
0
LINE
8
layer0
10
30.2136639
20
-1.2395599
11
30.0723556
21
-1.25767
0
LINE
8
layer0
10
30.0723556
20
-1.25767
11
29.9516807
21
-1.2889689
0
LINE
8
layer0
10
29.9516807
20
-1.2889689
11
29.8524672
21
-1.3317555
0
LINE
8
layer0
10
29.8524672
20
-1.3317555
11
29.8111384
21
-1.3568957
0
LINE
8
layer0
10
29.8111384
20
-1.3568957
11
29.7754248
21
-1.384254
0
LINE
8
layer0
10
29.7754248
20
-1.384254
11
29.7454145
21
-1.413593
0
LINE
8
layer0
10
29.7454145
20
-1.413593
11
29.72116
21
-1.4446989
0
LINE
8
layer0
10
29.72116
20
-1.4446989
11
29.7027219
21
-1.4773186
0
LINE
8
layer0
10
29.7027219
20
-1.4773186
11
29.6846126
21
-1.5374001
0
LINE
8
layer0
10
29.6846126
20
-1.5374001
11
29.6020884
21
-2.0094303
0
LINE
8
layer0
10
29.6020884
20
-2.0094303
11
29.4976927
21
-2.4771101
0
LINE
8
layer0
10
29.4976927
20
-2.4771101
11
29.4914313
21
-2.5395483
0
LINE
8
layer0
10
29.4914313
20
-2.5395483
11
29.4959828
21
-2.5767409
0
LINE
8
layer0
10
29.4959828
20
-2.5767409
11
29.5064873
21
-2.6147607
0
LINE
8
layer0
10
29.5064873
20
-2.6147607
11
29.5229858
21
-2.6533509
0
LINE
8
layer0
10
29.5229858
20
-2.6533509
11
29.5455112
21
-2.6922937
0
LINE
8
layer0
10
29.5455112
20
-2.6922937
11
29.5740733
21
-2.7313361
0
LINE
8
layer0
10
29.5740733
20
-2.7313361
11
29.649361
21
-2.808833
0
LINE
8
layer0
10
29.649361
20
-2.808833
11
29.7488724
21
-2.8839297
0
LINE
8
layer0
10
29.7488724
20
-2.8839297
11
29.8724938
21
-2.9547376
0
LINE
8
layer0
10
29.8724938
20
-2.9547376
11
30.0199997
21
-3.0193664
0
LINE
8
layer0
10
30.0199997
20
-3.0193664
11
30.1910585
21
-3.0759455
0
LINE
8
layer0
10
30.1910585
20
-3.0759455
11
30.3696891
21
-3.1229069
0
LINE
8
layer0
10
30.3696891
20
-3.1229069
11
30.4703847
21
-3.165755
0
LINE
8
layer0
10
30.4703847
20
-3.165755
11
30.6375911
21
-3.2534911
0
LINE
8
layer0
10
30.6375911
20
-3.2534911
11
30.7433587
21
-3.317383
0
LINE
8
layer0
10
30.7433587
20
-3.317383
11
30.8642854
21
-3.3975348
0
LINE
8
layer0
10
30.8642854
20
-3.3975348
11
30.9961931
21
-3.4931153
0
LINE
8
layer0
10
30.9961931
20
-3.4931153
11
31.1406247
21
-3.6072862
0
LINE
8
layer0
10
31.1406247
20
-3.6072862
11
31.2944065
21
-3.7396509
0
LINE
8
layer0
10
31.2944065
20
-3.7396509
11
31.4570285
21
-3.8919023
0
LINE
8
layer0
10
31.4570285
20
-3.8919023
11
31.6267065
21
-4.0646033
0
LINE
8
layer0
10
31.6267065
20
-4.0646033
11
31.8038025
21
-4.26065
0
LINE
8
layer0
10
31.8038025
20
-4.26065
11
31.9842648
21
-4.478115
0
LINE
8
layer0
10
31.9842648
20
-4.478115
11
32.1547601
21
-4.7017201
0
ARC
8
layer0
10
19.4999701
20
0.0000125
40
13.5
50
335.3819324
51
339.6180663
0
LINE
8
layer0
10
31.7728849
20
-5.6236486
11
31.4942137
21
-5.6612028
0
LINE
8
layer0
10
31.4942137
20
-5.6612028
11
31.2128367
21
-5.6873677
0
LINE
8
layer0
10
31.2128367
20
-5.6873677
11
30.9489849
21
-5.7007679
0
LINE
8
layer0
10
30.9489849
20
-5.7007679
11
30.7068865
21
-5.7029054
0
LINE
8
layer0
10
30.7068865
20
-5.7029054
11
30.4842373
21
-5.6955723
0
LINE
8
layer0
10
30.4842373
20
-5.6955723
11
30.2819012
21
-5.6804281
0
LINE
8
layer0
10
30.2819012
20
-5.6804281
11
30.0990416
21
-5.6590306
0
LINE
8
layer0
10
30.0990416
20
-5.6590306
11
29.9381832
21
-5.6333434
0
LINE
8
layer0
10
29.9381832
20
-5.6333434
11
29.7959992
21
-5.6045111
0
LINE
8
layer0
10
29.7959992
20
-5.6045111
11
29.6760318
21
-5.5749005
0
LINE
8
layer0
10
29.6760318
20
-5.5749005
11
29.4957602
21
-5.5187066
0
LINE
8
layer0
10
29.4957602
20
-5.5187066
11
29.3942595
21
-5.4778022
0
LINE
8
layer0
10
29.3942595
20
-5.4778022
11
29.2347419
21
-5.3846981
0
LINE
8
layer0
10
29.2347419
20
-5.3846981
11
29.0737776
21
-5.3037487
0
LINE
8
layer0
10
29.0737776
20
-5.3037487
11
28.9237757
21
-5.2451457
0
LINE
8
layer0
10
28.9237757
20
-5.2451457
11
28.7862935
21
-5.2078009
0
LINE
8
layer0
10
28.7862935
20
-5.2078009
11
28.6628269
21
-5.1905371
0
LINE
8
layer0
10
28.6628269
20
-5.1905371
11
28.5547918
21
-5.1920993
0
LINE
8
layer0
10
28.5547918
20
-5.1920993
11
28.5069882
21
-5.19951
0
LINE
8
layer0
10
28.5069882
20
-5.19951
11
28.4635236
21
-5.2111188
0
LINE
8
layer0
10
28.4635236
20
-5.2111188
11
28.4245701
21
-5.22674
0
LINE
8
layer0
10
28.4245701
20
-5.22674
11
28.3902582
21
-5.2461963
0
LINE
8
layer0
10
28.3902582
20
-5.2461963
11
28.3607406
21
-5.269277
0
LINE
8
layer0
10
28.3607406
20
-5.269277
11
28.3210176
21
-5.317855
0
LINE
8
layer0
10
28.3210176
20
-5.317855
11
28.064137
21
-5.7223734
0
LINE
8
layer0
10
28.064137
20
-5.7223734
11
27.7887146
21
-6.1145026
0
LINE
8
layer0
10
27.7887146
20
-6.1145026
11
27.7590358
21
-6.1697919
0
LINE
8
layer0
10
27.7590358
20
-6.1697919
11
27.7490079
21
-6.2058951
0
LINE
8
layer0
10
27.7490079
20
-6.2058951
11
27.7441632
21
-6.2450408
0
LINE
8
layer0
10
27.7441632
20
-6.2450408
11
27.744638
21
-6.2870072
0
LINE
8
layer0
10
27.744638
20
-6.2870072
11
27.750546
21
-6.3316058
0
LINE
8
layer0
10
27.750546
20
-6.3316058
11
27.761993
21
-6.3786064
0
LINE
8
layer0
10
27.761993
20
-6.3786064
11
27.801893
21
-6.4790157
0
LINE
8
layer0
10
27.801893
20
-6.4790157
11
27.8650913
21
-6.5864773
0
LINE
8
layer0
10
27.8650913
20
-6.5864773
11
27.9522056
21
-6.6992032
0
LINE
8
layer0
10
27.9522056
20
-6.6992032
11
28.0637509
21
-6.8153604
0
LINE
8
layer0
10
28.0637509
20
-6.8153604
11
28.2001368
21
-6.933094
0
LINE
8
layer0
10
28.2001368
20
-6.933094
11
28.3471986
21
-7.0448397
0
LINE
8
layer0
10
28.3471986
20
-7.0448397
11
28.4238319
21
-7.1229607
0
LINE
8
layer0
10
28.4238319
20
-7.1229607
11
28.5447353
21
-7.2680055
0
LINE
8
layer0
10
28.5447353
20
-7.2680055
11
28.6180014
21
-7.3675094
0
LINE
8
layer0
10
28.6180014
20
-7.3675094
11
28.6990504
21
-7.4878366
0
LINE
8
layer0
10
28.6990504
20
-7.4878366
11
28.7843402
21
-7.6266203
0
LINE
8
layer0
10
28.7843402
20
-7.6266203
11
28.8740862
21
-7.7873721
0
LINE
8
layer0
10
28.8740862
20
-7.7873721
11
28.9655083
21
-7.9685109
0
LINE
8
layer0
10
28.9655083
20
-7.9685109
11
29.0574873
21
-8.1714056
0
LINE
8
layer0
10
29.0574873
20
-8.1714056
11
29.1481596
21
-8.3958935
0
LINE
8
layer0
10
29.1481596
20
-8.3958935
11
29.2367512
21
-8.6447887
0
LINE
8
layer0
10
29.2367512
20
-8.6447887
11
29.3202563
21
-8.91476
0
LINE
8
layer0
10
29.3202563
20
-8.91476
11
29.3922035
21
-9.18659
0
ARC
8
layer0
10
19.4999771
20
0.0000229
40
13.5
50
312.8819331
51
317.1180669
0
LINE
8
layer0
10
28.68659
20
-9.8922035
11
28.41476
21
-9.8202563
0
LINE
8
layer0
10
28.41476
20
-9.8202563
11
28.1447887
21
-9.7367512
0
LINE
8
layer0
10
28.1447887
20
-9.7367512
11
27.8958935
21
-9.6481596
0
LINE
8
layer0
10
27.8958935
20
-9.6481596
11
27.6714056
21
-9.5574873
0
LINE
8
layer0
10
27.6714056
20
-9.5574873
11
27.4685109
21
-9.4655083
0
LINE
8
layer0
10
27.4685109
20
-9.4655083
11
27.2873721
21
-9.3740862
0
LINE
8
layer0
10
27.2873721
20
-9.3740862
11
27.1266203
21
-9.2843402
0
LINE
8
layer0
10
27.1266203
20
-9.2843402
11
26.9878366
21
-9.1990504
0
LINE
8
layer0
10
26.9878366
20
-9.1990504
11
26.8675094
21
-9.1180014
0
LINE
8
layer0
10
26.8675094
20
-9.1180014
11
26.7680055
21
-9.0447353
0
LINE
8
layer0
10
26.7680055
20
-9.0447353
11
26.6229607
21
-8.9238319
0
LINE
8
layer0
10
26.6229607
20
-8.9238319
11
26.5448397
21
-8.8471986
0
LINE
8
layer0
10
26.5448397
20
-8.8471986
11
26.433094
21
-8.7001368
0
LINE
8
layer0
10
26.433094
20
-8.7001368
11
26.3153604
21
-8.5637509
0
LINE
8
layer0
10
26.3153604
20
-8.5637509
11
26.1992032
21
-8.4522056
0
LINE
8
layer0
10
26.1992032
20
-8.4522056
11
26.0864773
21
-8.3650913
0
LINE
8
layer0
10
26.0864773
20
-8.3650913
11
25.9790157
21
-8.301893
0
LINE
8
layer0
10
25.9790157
20
-8.301893
11
25.8786064
21
-8.261993
0
LINE
8
layer0
10
25.8786064
20
-8.261993
11
25.8316058
21
-8.250546
0
LINE
8
layer0
10
25.8316058
20
-8.250546
11
25.7870072
21
-8.244638
0
LINE
8
layer0
10
25.7870072
20
-8.244638
11
25.7450408
21
-8.2441632
0
LINE
8
layer0
10
25.7450408
20
-8.2441632
11
25.7058951
21
-8.2490079
0
LINE
8
layer0
10
25.7058951
20
-8.2490079
11
25.6697919
21
-8.2590358
0
LINE
8
layer0
10
25.6697919
20
-8.2590358
11
25.6145026
21
-8.2887146
0
LINE
8
layer0
10
25.6145026
20
-8.2887146
11
25.2223734
21
-8.564137
0
LINE
8
layer0
10
25.2223734
20
-8.564137
11
24.817855
21
-8.8210176
0
LINE
8
layer0
10
24.817855
20
-8.8210176
11
24.769277
21
-8.8607406
0
LINE
8
layer0
10
24.769277
20
-8.8607406
11
24.7461963
21
-8.8902582
0
LINE
8
layer0
10
24.7461963
20
-8.8902582
11
24.72674
21
-8.9245701
0
LINE
8
layer0
10
24.72674
20
-8.9245701
11
24.7111188
21
-8.9635236
0
LINE
8
layer0
10
24.7111188
20
-8.9635236
11
24.69951
21
-9.0069882
0
LINE
8
layer0
10
24.69951
20
-9.0069882
11
24.6920993
21
-9.0547918
0
LINE
8
layer0
10
24.6920993
20
-9.0547918
11
24.6905371
21
-9.1628269
0
LINE
8
layer0
10
24.6905371
20
-9.1628269
11
24.7078009
21
-9.2862935
0
LINE
8
layer0
10
24.7078009
20
-9.2862935
11
24.7451457
21
-9.4237757
0
LINE
8
layer0
10
24.7451457
20
-9.4237757
11
24.8037487
21
-9.5737776
0
LINE
8
layer0
10
24.8037487
20
-9.5737776
11
24.8846981
21
-9.7347419
0
LINE
8
layer0
10
24.8846981
20
-9.7347419
11
24.9778022
21
-9.8942595
0
LINE
8
layer0
10
24.9778022
20
-9.8942595
11
25.0187066
21
-9.9957602
0
LINE
8
layer0
10
25.0187066
20
-9.9957602
11
25.0749005
21
-10.1760318
0
LINE
8
layer0
10
25.0749005
20
-10.1760318
11
25.1045111
21
-10.2959992
0
LINE
8
layer0
10
25.1045111
20
-10.2959992
11
25.1333434
21
-10.4381832
0
LINE
8
layer0
10
25.1333434
20
-10.4381832
11
25.1590306
21
-10.5990416
0
LINE
8
layer0
10
25.1590306
20
-10.5990416
11
25.1804281
21
-10.7819012
0
LINE
8
layer0
10
25.1804281
20
-10.7819012
11
25.1955723
21
-10.9842373
0
LINE
8
layer0
10
25.1955723
20
-10.9842373
11
25.2029054
21
-11.2068865
0
LINE
8
layer0
10
25.2029054
20
-11.2068865
11
25.2007679
21
-11.4489849
0
LINE
8
layer0
10
25.2007679
20
-11.4489849
11
25.1873677
21
-11.7128367
0
LINE
8
layer0
10
25.1873677
20
-11.7128367
11
25.1612028
21
-11.9942137
0
LINE
8
layer0
10
25.1612028
20
-11.9942137
11
25.1236486
21
-12.2728849
0
ARC
8
layer0
10
19.4999875
20
0.0000298
40
13.5
50
290.3819337
51
294.6180676
0
LINE
8
layer0
10
24.2017201
20
-12.6547601
11
23.978115
21
-12.4842648
0
LINE
8
layer0
10
23.978115
20
-12.4842648
11
23.76065
21
-12.3038025
0
LINE
8
layer0
10
23.76065
20
-12.3038025
11
23.5646033
21
-12.1267065
0
LINE
8
layer0
10
23.5646033
20
-12.1267065
11
23.3919023
21
-11.9570285
0
LINE
8
layer0
10
23.3919023
20
-11.9570285
11
23.2396509
21
-11.7944065
0
LINE
8
layer0
10
23.2396509
20
-11.7944065
11
23.1072862
21
-11.6406247
0
LINE
8
layer0
10
23.1072862
20
-11.6406247
11
22.9931153
21
-11.4961931
0
LINE
8
layer0
10
22.9931153
20
-11.4961931
11
22.8975348
21
-11.3642854
0
LINE
8
layer0
10
22.8975348
20
-11.3642854
11
22.817383
21
-11.2433587
0
LINE
8
layer0
10
22.817383
20
-11.2433587
11
22.7534911
21
-11.1375911
0
LINE
8
layer0
10
22.7534911
20
-11.1375911
11
22.665755
21
-10.9703847
0
LINE
8
layer0
10
22.665755
20
-10.9703847
11
22.6229069
21
-10.8696891
0
LINE
8
layer0
10
22.6229069
20
-10.8696891
11
22.5759455
21
-10.6910585
0
LINE
8
layer0
10
22.5759455
20
-10.6910585
11
22.5193664
21
-10.5199997
0
LINE
8
layer0
10
22.5193664
20
-10.5199997
11
22.4547376
21
-10.3724938
0
LINE
8
layer0
10
22.4547376
20
-10.3724938
11
22.3839297
21
-10.2488724
0
LINE
8
layer0
10
22.3839297
20
-10.2488724
11
22.308833
21
-10.149361
0
LINE
8
layer0
10
22.308833
20
-10.149361
11
22.2313361
21
-10.0740733
0
LINE
8
layer0
10
22.2313361
20
-10.0740733
11
22.1922937
21
-10.0455112
0
LINE
8
layer0
10
22.1922937
20
-10.0455112
11
22.1533509
21
-10.0229858
0
LINE
8
layer0
10
22.1533509
20
-10.0229858
11
22.1147607
21
-10.0064873
0
LINE
8
layer0
10
22.1147607
20
-10.0064873
11
22.0767409
21
-9.9959828
0
LINE
8
layer0
10
22.0767409
20
-9.9959828
11
22.0395483
21
-9.9914313
0
LINE
8
layer0
10
22.0395483
20
-9.9914313
11
21.9771101
21
-9.9976927
0
LINE
8
layer0
10
21.9771101
20
-9.9976927
11
21.5094303
21
-10.1020884
0
LINE
8
layer0
10
21.5094303
20
-10.1020884
11
21.0374001
21
-10.1846126
0
LINE
8
layer0
10
21.0374001
20
-10.1846126
11
20.9773186
21
-10.2027219
0
LINE
8
layer0
10
20.9773186
20
-10.2027219
11
20.9446989
21
-10.22116
0
LINE
8
layer0
10
20.9446989
20
-10.22116
11
20.913593
21
-10.2454145
0
LINE
8
layer0
10
20.913593
20
-10.2454145
11
20.884254
21
-10.2754248
0
LINE
8
layer0
10
20.884254
20
-10.2754248
11
20.8568957
21
-10.3111384
0
LINE
8
layer0
10
20.8568957
20
-10.3111384
11
20.8317555
21
-10.3524672
0
LINE
8
layer0
10
20.8317555
20
-10.3524672
11
20.7889689
21
-10.4516807
0
LINE
8
layer0
10
20.7889689
20
-10.4516807
11
20.75767
21
-10.5723556
0
LINE
8
layer0
10
20.75767
20
-10.5723556
11
20.7395599
21
-10.7136639
0
LINE
8
layer0
10
20.7395599
20
-10.7136639
11
20.7362988
21
-10.8746739
0
LINE
8
layer0
10
20.7362988
20
-10.8746739
11
20.7494879
21
-11.0543635
0
LINE
8
layer0
10
20.7494879
20
-11.0543635
11
20.7744601
21
-11.237368
0
LINE
8
layer0
10
20.7744601
20
-11.237368
11
20.7734082
21
-11.3467959
0
LINE
8
layer0
10
20.7734082
20
-11.3467959
11
20.7563377
21
-11.5348496
0
LINE
8
layer0
10
20.7563377
20
-11.5348496
11
20.7377848
21
-11.6570165
0
LINE
8
layer0
10
20.7377848
20
-11.6570165
11
20.7100109
21
-11.799411
0
LINE
8
layer0
10
20.7100109
20
-11.799411
11
20.672185
21
-11.9578549
0
LINE
8
layer0
10
20.672185
20
-11.9578549
11
20.6219763
21
-12.1349836
0
LINE
8
layer0
10
20.6219763
20
-12.1349836
11
20.558537
21
-12.3277132
0
LINE
8
layer0
10
20.558537
20
-12.3277132
11
20.4801078
21
-12.5362204
0
LINE
8
layer0
10
20.4801078
20
-12.5362204
11
20.3854859
21
-12.7590723
0
LINE
8
layer0
10
20.3854859
20
-12.7590723
11
20.2721341
21
-12.9977115
0
LINE
8
layer0
10
20.2721341
20
-12.9977115
11
20.1402825
21
-13.2476571
0
LINE
8
layer0
10
20.1402825
20
-13.2476571
11
19.9989441
21
-13.4907443
0
ARC
8
layer0
10
19.5
20
0.0000324
40
13.5
50
267.8819331
51
272.1180669
0
LINE
8
layer0
10
19.0010559
20
-13.4907443
11
18.8597175
21
-13.2476571
0
LINE
8
layer0
10
18.8597175
20
-13.2476571
11
18.7278659
21
-12.9977115
0
LINE
8
layer0
10
18.7278659
20
-12.9977115
11
18.6145141
21
-12.7590723
0
LINE
8
layer0
10
18.6145141
20
-12.7590723
11
18.5198922
21
-12.5362204
0
LINE
8
layer0
10
18.5198922
20
-12.5362204
11
18.441463
21
-12.3277132
0
LINE
8
layer0
10
18.441463
20
-12.3277132
11
18.3780237
21
-12.1349836
0
LINE
8
layer0
10
18.3780237
20
-12.1349836
11
18.327815
21
-11.9578549
0
LINE
8
layer0
10
18.327815
20
-11.9578549
11
18.2899891
21
-11.799411
0
LINE
8
layer0
10
18.2899891
20
-11.799411
11
18.2622152
21
-11.6570165
0
LINE
8
layer0
10
18.2622152
20
-11.6570165
11
18.2436623
21
-11.5348496
0
LINE
8
layer0
10
18.2436623
20
-11.5348496
11
18.2265918
21
-11.3467959
0
LINE
8
layer0
10
18.2265918
20
-11.3467959
11
18.2255399
21
-11.237368
0
LINE
8
layer0
10
18.2255399
20
-11.237368
11
18.2505121
21
-11.0543635
0
LINE
8
layer0
10
18.2505121
20
-11.0543635
11
18.2637012
21
-10.8746739
0
LINE
8
layer0
10
18.2637012
20
-10.8746739
11
18.2604401
21
-10.7136639
0
LINE
8
layer0
10
18.2604401
20
-10.7136639
11
18.24233
21
-10.5723556
0
LINE
8
layer0
10
18.24233
20
-10.5723556
11
18.2110311
21
-10.4516807
0
LINE
8
layer0
10
18.2110311
20
-10.4516807
11
18.1682445
21
-10.3524672
0
LINE
8
layer0
10
18.1682445
20
-10.3524672
11
18.1431043
21
-10.3111384
0
LINE
8
layer0
10
18.1431043
20
-10.3111384
11
18.115746
21
-10.2754248
0
LINE
8
layer0
10
18.115746
20
-10.2754248
11
18.086407
21
-10.2454145
0
LINE
8
layer0
10
18.086407
20
-10.2454145
11
18.0553011
21
-10.22116
0
LINE
8
layer0
10
18.0553011
20
-10.22116
11
18.0226814
21
-10.2027219
0
LINE
8
layer0
10
18.0226814
20
-10.2027219
11
17.9625999
21
-10.1846126
0
LINE
8
layer0
10
17.9625999
20
-10.1846126
11
17.4905697
21
-10.1020884
0
LINE
8
layer0
10
17.4905697
20
-10.1020884
11
17.0228899
21
-9.9976927
0
LINE
8
layer0
10
17.0228899
20
-9.9976927
11
16.9604517
21
-9.9914313
0
LINE
8
layer0
10
16.9604517
20
-9.9914313
11
16.9232591
21
-9.9959828
0
LINE
8
layer0
10
16.9232591
20
-9.9959828
11
16.8852393
21
-10.0064873
0
LINE
8
layer0
10
16.8852393
20
-10.0064873
11
16.8466491
21
-10.0229858
0
LINE
8
layer0
10
16.8466491
20
-10.0229858
11
16.8077063
21
-10.0455112
0
LINE
8
layer0
10
16.8077063
20
-10.0455112
11
16.7686639
21
-10.0740733
0
LINE
8
layer0
10
16.7686639
20
-10.0740733
11
16.691167
21
-10.149361
0
LINE
8
layer0
10
16.691167
20
-10.149361
11
16.6160703
21
-10.2488724
0
LINE
8
layer0
10
16.6160703
20
-10.2488724
11
16.5452624
21
-10.3724938
0
LINE
8
layer0
10
16.5452624
20
-10.3724938
11
16.4806336
21
-10.5199997
0
LINE
8
layer0
10
16.4806336
20
-10.5199997
11
16.4240545
21
-10.6910585
0
LINE
8
layer0
10
16.4240545
20
-10.6910585
11
16.3770931
21
-10.8696891
0
LINE
8
layer0
10
16.3770931
20
-10.8696891
11
16.334245
21
-10.9703847
0
LINE
8
layer0
10
16.334245
20
-10.9703847
11
16.2465089
21
-11.1375911
0
LINE
8
layer0
10
16.2465089
20
-11.1375911
11
16.182617
21
-11.2433587
0
LINE
8
layer0
10
16.182617
20
-11.2433587
11
16.1024652
21
-11.3642854
0
LINE
8
layer0
10
16.1024652
20
-11.3642854
11
16.0068847
21
-11.4961931
0
LINE
8
layer0
10
16.0068847
20
-11.4961931
11
15.8927138
21
-11.6406247
0
LINE
8
layer0
10
15.8927138
20
-11.6406247
11
15.7603491
21
-11.7944065
0
LINE
8
layer0
10
15.7603491
20
-11.7944065
11
15.6080977
21
-11.9570285
0
LINE
8
layer0
10
15.6080977
20
-11.9570285
11
15.4353967
21
-12.1267065
0
LINE
8
layer0
10
15.4353967
20
-12.1267065
11
15.23935
21
-12.3038025
0
LINE
8
layer0
10
15.23935
20
-12.3038025
11
15.021885
21
-12.4842648
0
LINE
8
layer0
10
15.021885
20
-12.4842648
11
14.7982799
21
-12.6547601
0
ARC
8
layer0
10
19.5000125
20
0.0000299
40
13.5
50
245.3819324
51
249.6180663
0
LINE
8
layer0
10
13.8763514
20
-12.2728849
11
13.8387972
21
-11.9942137
0
LINE
8
layer0
10
13.8387972
20
-11.9942137
11
13.8126323
21
-11.7128367
0
LINE
8
layer0
10
13.8126323
20
-11.7128367
11
13.7992321
21
-11.4489849
0
LINE
8
layer0
10
13.7992321
20
-11.4489849
11
13.7970946
21
-11.2068865
0
LINE
8
layer0
10
13.7970946
20
-11.2068865
11
13.8044277
21
-10.9842373
0
LINE
8
layer0
10
13.8044277
20
-10.9842373
11
13.8195719
21
-10.7819012
0
LINE
8
layer0
10
13.8195719
20
-10.7819012
11
13.8409694
21
-10.5990416
0
LINE
8
layer0
10
13.8409694
20
-10.5990416
11
13.8666566
21
-10.4381832
0
LINE
8
layer0
10
13.8666566
20
-10.4381832
11
13.8954889
21
-10.2959992
0
LINE
8
layer0
10
13.8954889
20
-10.2959992
11
13.9250995
21
-10.1760318
0
LINE
8
layer0
10
13.9250995
20
-10.1760318
11
13.9812934
21
-9.9957602
0
LINE
8
layer0
10
13.9812934
20
-9.9957602
11
14.0221978
21
-9.8942595
0
LINE
8
layer0
10
14.0221978
20
-9.8942595
11
14.1153019
21
-9.7347419
0
LINE
8
layer0
10
14.1153019
20
-9.7347419
11
14.1962513
21
-9.5737776
0
LINE
8
layer0
10
14.1962513
20
-9.5737776
11
14.2548543
21
-9.4237757
0
LINE
8
layer0
10
14.2548543
20
-9.4237757
11
14.2921991
21
-9.2862935
0
LINE
8
layer0
10
14.2921991
20
-9.2862935
11
14.3094629
21
-9.1628269
0
LINE
8
layer0
10
14.3094629
20
-9.1628269
11
14.3079007
21
-9.0547918
0
LINE
8
layer0
10
14.3079007
20
-9.0547918
11
14.30049
21
-9.0069882
0
LINE
8
layer0
10
14.30049
20
-9.0069882
11
14.2888812
21
-8.9635236
0
LINE
8
layer0
10
14.2888812
20
-8.9635236
11
14.27326
21
-8.9245701
0
LINE
8
layer0
10
14.27326
20
-8.9245701
11
14.2538037
21
-8.8902582
0
LINE
8
layer0
10
14.2538037
20
-8.8902582
11
14.230723
21
-8.8607406
0
LINE
8
layer0
10
14.230723
20
-8.8607406
11
14.182145
21
-8.8210176
0
LINE
8
layer0
10
14.182145
20
-8.8210176
11
13.7776266
21
-8.564137
0
LINE
8
layer0
10
13.7776266
20
-8.564137
11
13.3854974
21
-8.2887146
0
LINE
8
layer0
10
13.3854974
20
-8.2887146
11
13.3302081
21
-8.2590358
0
LINE
8
layer0
10
13.3302081
20
-8.2590358
11
13.2941049
21
-8.2490079
0
LINE
8
layer0
10
13.2941049
20
-8.2490079
11
13.2549592
21
-8.2441632
0
LINE
8
layer0
10
13.2549592
20
-8.2441632
11
13.2129928
21
-8.244638
0
LINE
8
layer0
10
13.2129928
20
-8.244638
11
13.1683942
21
-8.250546
0
LINE
8
layer0
10
13.1683942
20
-8.250546
11
13.1213936
21
-8.261993
0
LINE
8
layer0
10
13.1213936
20
-8.261993
11
13.0209843
21
-8.301893
0
LINE
8
layer0
10
13.0209843
20
-8.301893
11
12.9135227
21
-8.3650913
0
LINE
8
layer0
10
12.9135227
20
-8.3650913
11
12.8007968
21
-8.4522056
0
LINE
8
layer0
10
12.8007968
20
-8.4522056
11
12.6846396
21
-8.5637509
0
LINE
8
layer0
10
12.6846396
20
-8.5637509
11
12.566906
21
-8.7001368
0
LINE
8
layer0
10
12.566906
20
-8.7001368
11
12.4551603
21
-8.8471986
0
LINE
8
layer0
10
12.4551603
20
-8.8471986
11
12.3770393
21
-8.9238319
0
LINE
8
layer0
10
12.3770393
20
-8.9238319
11
12.2319945
21
-9.0447353
0
LINE
8
layer0
10
12.2319945
20
-9.0447353
11
12.1324906
21
-9.1180014
0
LINE
8
layer0
10
12.1324906
20
-9.1180014
11
12.0121634
21
-9.1990504
0
LINE
8
layer0
10
12.0121634
20
-9.1990504
11
11.8733797
21
-9.2843402
0
LINE
8
layer0
10
11.8733797
20
-9.2843402
11
11.7126279
21
-9.3740862
0
LINE
8
layer0
10
11.7126279
20
-9.3740862
11
11.5314891
21
-9.4655083
0
LINE
8
layer0
10
11.5314891
20
-9.4655083
11
11.3285944
21
-9.5574873
0
LINE
8
layer0
10
11.3285944
20
-9.5574873
11
11.1041065
21
-9.6481596
0
LINE
8
layer0
10
11.1041065
20
-9.6481596
11
10.8552113
21
-9.7367512
0
LINE
8
layer0
10
10.8552113
20
-9.7367512
11
10.58524
21
-9.8202563
0
LINE
8
layer0
10
10.58524
20
-9.8202563
11
10.31341
21
-9.8922035
0
ARC
8
layer0
10
19.5000229
20
0.0000229
40
13.5
50
222.8819331
51
227.1180669
0
LINE
8
layer0
10
9.6077965
20
-9.18659
11
9.6797437
21
-8.91476
0
LINE
8
layer0
10
9.6797437
20
-8.91476
11
9.7632488
21
-8.6447887
0
LINE
8
layer0
10
9.7632488
20
-8.6447887
11
9.8518404
21
-8.3958935
0
LINE
8
layer0
10
9.8518404
20
-8.3958935
11
9.9425127
21
-8.1714056
0
LINE
8
layer0
10
9.9425127
20
-8.1714056
11
10.0344917
21
-7.9685109
0
LINE
8
layer0
10
10.0344917
20
-7.9685109
11
10.1259138
21
-7.7873721
0
LINE
8
layer0
10
10.1259138
20
-7.7873721
11
10.2156598
21
-7.6266203
0
LINE
8
layer0
10
10.2156598
20
-7.6266203
11
10.3009496
21
-7.4878366
0
LINE
8
layer0
10
10.3009496
20
-7.4878366
11
10.3819986
21
-7.3675094
0
LINE
8
layer0
10
10.3819986
20
-7.3675094
11
10.4552647
21
-7.2680055
0
LINE
8
layer0
10
10.4552647
20
-7.2680055
11
10.5761681
21
-7.1229607
0
LINE
8
layer0
10
10.5761681
20
-7.1229607
11
10.6528014
21
-7.0448397
0
LINE
8
layer0
10
10.6528014
20
-7.0448397
11
10.7998632
21
-6.933094
0
LINE
8
layer0
10
10.7998632
20
-6.933094
11
10.9362491
21
-6.8153604
0
LINE
8
layer0
10
10.9362491
20
-6.8153604
11
11.0477944
21
-6.6992032
0
LINE
8
layer0
10
11.0477944
20
-6.6992032
11
11.1349087
21
-6.5864773
0
LINE
8
layer0
10
11.1349087
20
-6.5864773
11
11.198107
21
-6.4790157
0
LINE
8
layer0
10
11.198107
20
-6.4790157
11
11.238007
21
-6.3786064
0
LINE
8
layer0
10
11.238007
20
-6.3786064
11
11.249454
21
-6.3316058
0
LINE
8
layer0
10
11.249454
20
-6.3316058
11
11.255362
21
-6.2870072
0
LINE
8
layer0
10
11.255362
20
-6.2870072
11
11.2558368
21
-6.2450408
0
LINE
8
layer0
10
11.2558368
20
-6.2450408
11
11.2509921
21
-6.2058951
0
LINE
8
layer0
10
11.2509921
20
-6.2058951
11
11.2409642
21
-6.1697919
0
LINE
8
layer0
10
11.2409642
20
-6.1697919
11
11.2112854
21
-6.1145026
0
LINE
8
layer0
10
11.2112854
20
-6.1145026
11
10.935863
21
-5.7223734
0
LINE
8
layer0
10
10.935863
20
-5.7223734
11
10.6789824
21
-5.317855
0
LINE
8
layer0
10
10.6789824
20
-5.317855
11
10.6392594
21
-5.269277
0
LINE
8
layer0
10
10.6392594
20
-5.269277
11
10.6097418
21
-5.2461963
0
LINE
8
layer0
10
10.6097418
20
-5.2461963
11
10.5754299
21
-5.22674
0
LINE
8
layer0
10
10.5754299
20
-5.22674
11
10.5364764
21
-5.2111188
0
LINE
8
layer0
10
10.5364764
20
-5.2111188
11
10.4930118
21
-5.19951
0
LINE
8
layer0
10
10.4930118
20
-5.19951
11
10.4452082
21
-5.1920993
0
LINE
8
layer0
10
10.4452082
20
-5.1920993
11
10.3371731
21
-5.1905371
0
LINE
8
layer0
10
10.3371731
20
-5.1905371
11
10.2137065
21
-5.2078009
0
LINE
8
layer0
10
10.2137065
20
-5.2078009
11
10.0762243
21
-5.2451457
0
LINE
8
layer0
10
10.0762243
20
-5.2451457
11
9.9262224
21
-5.3037487
0
LINE
8
layer0
10
9.9262224
20
-5.3037487
11
9.7652581
21
-5.3846981
0
LINE
8
layer0
10
9.7652581
20
-5.3846981
11
9.6057405
21
-5.4778022
0
LINE
8
layer0
10
9.6057405
20
-5.4778022
11
9.5042398
21
-5.5187066
0
LINE
8
layer0
10
9.5042398
20
-5.5187066
11
9.3239682
21
-5.5749005
0
LINE
8
layer0
10
9.3239682
20
-5.5749005
11
9.2040008
21
-5.6045111
0
LINE
8
layer0
10
9.2040008
20
-5.6045111
11
9.0618168
21
-5.6333434
0
LINE
8
layer0
10
9.0618168
20
-5.6333434
11
8.9009584
21
-5.6590306
0
LINE
8
layer0
10
8.9009584
20
-5.6590306
11
8.7180988
21
-5.6804281
0
LINE
8
layer0
10
8.7180988
20
-5.6804281
11
8.5157627
21
-5.6955723
0
LINE
8
layer0
10
8.5157627
20
-5.6955723
11
8.2931135
21
-5.7029054
0
LINE
8
layer0
10
8.2931135
20
-5.7029054
11
8.0510151
21
-5.7007679
0
LINE
8
layer0
10
8.0510151
20
-5.7007679
11
7.7871633
21
-5.6873677
0
LINE
8
layer0
10
7.7871633
20
-5.6873677
11
7.5057863
21
-5.6612028
0
LINE
8
layer0
10
7.5057863
20
-5.6612028
11
7.2271151
21
-5.6236486
0
ARC
8
layer0
10
19.5000298
20
0.0000125
40
13.5
50
200.3819337
51
204.6180676
0
LINE
8
layer0
10
6.8452399
20
-4.7017201
11
7.0157352
21
-4.478115
0
LINE
8
layer0
10
7.0157352
20
-4.478115
11
7.1961975
21
-4.26065
0
LINE
8
layer0
10
7.1961975
20
-4.26065
11
7.3732935
21
-4.0646033
0
LINE
8
layer0
10
7.3732935
20
-4.0646033
11
7.5429715
21
-3.8919023
0
LINE
8
layer0
10
7.5429715
20
-3.8919023
11
7.7055935
21
-3.7396509
0
LINE
8
layer0
10
7.7055935
20
-3.7396509
11
7.8593753
21
-3.6072862
0
LINE
8
layer0
10
7.8593753
20
-3.6072862
11
8.0038069
21
-3.4931153
0
LINE
8
layer0
10
8.0038069
20
-3.4931153
11
8.1357146
21
-3.3975348
0
LINE
8
layer0
10
8.1357146
20
-3.3975348
11
8.2566413
21
-3.317383
0
LINE
8
layer0
10
8.2566413
20
-3.317383
11
8.3624089
21
-3.2534911
0
LINE
8
layer0
10
8.3624089
20
-3.2534911
11
8.5296153
21
-3.165755
0
LINE
8
layer0
10
8.5296153
20
-3.165755
11
8.6303109
21
-3.1229069
0
LINE
8
layer0
10
8.6303109
20
-3.1229069
11
8.8089415
21
-3.0759455
0
LINE
8
layer0
10
8.8089415
20
-3.0759455
11
8.9800003
21
-3.0193664
0
LINE
8
layer0
10
8.9800003
20
-3.0193664
11
9.1275062
21
-2.9547376
0
LINE
8
layer0
10
9.1275062
20
-2.9547376
11
9.2511276
21
-2.8839297
0
LINE
8
layer0
10
9.2511276
20
-2.8839297
11
9.350639
21
-2.808833
0
LINE
8
layer0
10
9.350639
20
-2.808833
11
9.4259267
21
-2.7313361
0
LINE
8
layer0
10
9.4259267
20
-2.7313361
11
9.4544888
21
-2.6922937
0
LINE
8
layer0
10
9.4544888
20
-2.6922937
11
9.4770142
21
-2.6533509
0
LINE
8
layer0
10
9.4770142
20
-2.6533509
11
9.4935127
21
-2.6147607
0
LINE
8
layer0
10
9.4935127
20
-2.6147607
11
9.5040172
21
-2.5767409
0
LINE
8
layer0
10
9.5040172
20
-2.5767409
11
9.5085687
21
-2.5395483
0
LINE
8
layer0
10
9.5085687
20
-2.5395483
11
9.5023073
21
-2.4771101
0
LINE
8
layer0
10
9.5023073
20
-2.4771101
11
9.3979116
21
-2.0094303
0
LINE
8
layer0
10
9.3979116
20
-2.0094303
11
9.3153874
21
-1.5374001
0
LINE
8
layer0
10
9.3153874
20
-1.5374001
11
9.2972781
21
-1.4773186
0
LINE
8
layer0
10
9.2972781
20
-1.4773186
11
9.27884
21
-1.4446989
0
LINE
8
layer0
10
9.27884
20
-1.4446989
11
9.2545855
21
-1.413593
0
LINE
8
layer0
10
9.2545855
20
-1.413593
11
9.2245752
21
-1.384254
0
LINE
8
layer0
10
9.2245752
20
-1.384254
11
9.1888616
21
-1.3568957
0
LINE
8
layer0
10
9.1888616
20
-1.3568957
11
9.1475328
21
-1.3317555
0
LINE
8
layer0
10
9.1475328
20
-1.3317555
11
9.0483193
21
-1.2889689
0
LINE
8
layer0
10
9.0483193
20
-1.2889689
11
8.9276444
21
-1.25767
0
LINE
8
layer0
10
8.9276444
20
-1.25767
11
8.7863361
21
-1.2395599
0
LINE
8
layer0
10
8.7863361
20
-1.2395599
11
8.6253261
21
-1.2362988
0
LINE
8
layer0
10
8.6253261
20
-1.2362988
11
8.4456365
21
-1.2494879
0
LINE
8
layer0
10
8.4456365
20
-1.2494879
11
8.262632
21
-1.2744601
0
LINE
8
layer0
10
8.262632
20
-1.2744601
11
8.1532041
21
-1.2734082
0
LINE
8
layer0
10
8.1532041
20
-1.2734082
11
7.9651504
21
-1.2563377
0
LINE
8
layer0
10
7.9651504
20
-1.2563377
11
7.8429835
21
-1.2377848
0
LINE
8
layer0
10
7.8429835
20
-1.2377848
11
7.700589
21
-1.2100109
0
LINE
8
layer0
10
7.700589
20
-1.2100109
11
7.5421451
21
-1.172185
0
LINE
8
layer0
10
7.5421451
20
-1.172185
11
7.3650164
21
-1.1219763
0
LINE
8
layer0
10
7.3650164
20
-1.1219763
11
7.1722868
21
-1.058537
0
LINE
8
layer0
10
7.1722868
20
-1.058537
11
6.9637796
21
-0.9801078
0
LINE
8
layer0
10
6.9637796
20
-0.9801078
11
6.7409277
21
-0.8854859
0
LINE
8
layer0
10
6.7409277
20
-0.8854859
11
6.5022885
21
-0.7721341
0
LINE
8
layer0
10
6.5022885
20
-0.7721341
11
6.2523429
21
-0.6402825
0
LINE
8
layer0
10
6.2523429
20
-0.6402825
11
6.0092557
21
-0.4989441
0
ARC
8
layer0
10
19.5000324
20
0
40
13.5
50
177.8819331
51
182.1180669
0
LINE
8
layer0
10
6.0092557
20
0.4989441
11
6.2523429
21
0.6402825
0
LINE
8
layer0
10
6.2523429
20
0.6402825
11
6.5022885
21
0.7721341
0
LINE
8
layer0
10
6.5022885
20
0.7721341
11
6.7409277
21
0.8854859
0
LINE
8
layer0
10
6.7409277
20
0.8854859
11
6.9637796
21
0.9801078
0
LINE
8
layer0
10
6.9637796
20
0.9801078
11
7.1722868
21
1.058537
0
LINE
8
layer0
10
7.1722868
20
1.058537
11
7.3650164
21
1.1219763
0
LINE
8
layer0
10
7.3650164
20
1.1219763
11
7.5421451
21
1.172185
0
LINE
8
layer0
10
7.5421451
20
1.172185
11
7.700589
21
1.2100109
0
LINE
8
layer0
10
7.700589
20
1.2100109
11
7.8429835
21
1.2377848
0
LINE
8
layer0
10
7.8429835
20
1.2377848
11
7.9651504
21
1.2563377
0
LINE
8
layer0
10
7.9651504
20
1.2563377
11
8.1532041
21
1.2734082
0
LINE
8
layer0
10
8.1532041
20
1.2734082
11
8.262632
21
1.2744601
0
LINE
8
layer0
10
8.262632
20
1.2744601
11
8.4456365
21
1.2494879
0
LINE
8
layer0
10
8.4456365
20
1.2494879
11
8.6253261
21
1.2362988
0
LINE
8
layer0
10
8.6253261
20
1.2362988
11
8.7863361
21
1.2395599
0
LINE
8
layer0
10
8.7863361
20
1.2395599
11
8.9276444
21
1.25767
0
LINE
8
layer0
10
8.9276444
20
1.25767
11
9.0483193
21
1.2889689
0
LINE
8
layer0
10
9.0483193
20
1.2889689
11
9.1475328
21
1.3317555
0
LINE
8
layer0
10
9.1475328
20
1.3317555
11
9.1888616
21
1.3568957
0
LINE
8
layer0
10
9.1888616
20
1.3568957
11
9.2245752
21
1.384254
0
LINE
8
layer0
10
9.2245752
20
1.384254
11
9.2545855
21
1.413593
0
LINE
8
layer0
10
9.2545855
20
1.413593
11
9.27884
21
1.4446989
0
LINE
8
layer0
10
9.27884
20
1.4446989
11
9.2972781
21
1.4773186
0
LINE
8
layer0
10
9.2972781
20
1.4773186
11
9.3153874
21
1.5374001
0
LINE
8
layer0
10
9.3153874
20
1.5374001
11
9.3979116
21
2.0094303
0
LINE
8
layer0
10
9.3979116
20
2.0094303
11
9.5023073
21
2.4771101
0
LINE
8
layer0
10
9.5023073
20
2.4771101
11
9.5085687
21
2.5395483
0
LINE
8
layer0
10
9.5085687
20
2.5395483
11
9.5040172
21
2.5767409
0
LINE
8
layer0
10
9.5040172
20
2.5767409
11
9.4935127
21
2.6147607
0
LINE
8
layer0
10
9.4935127
20
2.6147607
11
9.4770142
21
2.6533509
0
LINE
8
layer0
10
9.4770142
20
2.6533509
11
9.4544888
21
2.6922937
0
LINE
8
layer0
10
9.4544888
20
2.6922937
11
9.4259267
21
2.7313361
0
LINE
8
layer0
10
9.4259267
20
2.7313361
11
9.350639
21
2.808833
0
LINE
8
layer0
10
9.350639
20
2.808833
11
9.2511276
21
2.8839297
0
LINE
8
layer0
10
9.2511276
20
2.8839297
11
9.1275062
21
2.9547376
0
LINE
8
layer0
10
9.1275062
20
2.9547376
11
8.9800003
21
3.0193664
0
LINE
8
layer0
10
8.9800003
20
3.0193664
11
8.8089415
21
3.0759455
0
LINE
8
layer0
10
8.8089415
20
3.0759455
11
8.6303109
21
3.1229069
0
LINE
8
layer0
10
8.6303109
20
3.1229069
11
8.5296153
21
3.165755
0
LINE
8
layer0
10
8.5296153
20
3.165755
11
8.3624089
21
3.2534911
0
LINE
8
layer0
10
8.3624089
20
3.2534911
11
8.2566413
21
3.317383
0
LINE
8
layer0
10
8.2566413
20
3.317383
11
8.1357146
21
3.3975348
0
LINE
8
layer0
10
8.1357146
20
3.3975348
11
8.0038069
21
3.4931153
0
LINE
8
layer0
10
8.0038069
20
3.4931153
11
7.8593753
21
3.6072862
0
LINE
8
layer0
10
7.8593753
20
3.6072862
11
7.7055935
21
3.7396509
0
LINE
8
layer0
10
7.7055935
20
3.7396509
11
7.5429715
21
3.8919023
0
LINE
8
layer0
10
7.5429715
20
3.8919023
11
7.3732935
21
4.0646033
0
LINE
8
layer0
10
7.3732935
20
4.0646033
11
7.1961975
21
4.26065
0
LINE
8
layer0
10
7.1961975
20
4.26065
11
7.0157352
21
4.478115
0
LINE
8
layer0
10
7.0157352
20
4.478115
11
6.8452399
21
4.7017201
0
ARC
8
layer0
10
19.5000299
20
-0.0000125
40
13.5
50
155.3819324
51
159.6180663
0
LINE
8
layer0
10
7.2271151
20
5.6236486
11
7.5057863
21
5.6612028
0
LINE
8
layer0
10
7.5057863
20
5.6612028
11
7.7871633
21
5.6873677
0
LINE
8
layer0
10
7.7871633
20
5.6873677
11
8.0510151
21
5.7007679
0
LINE
8
layer0
10
8.0510151
20
5.7007679
11
8.2931135
21
5.7029054
0
LINE
8
layer0
10
8.2931135
20
5.7029054
11
8.5157627
21
5.6955723
0
LINE
8
layer0
10
8.5157627
20
5.6955723
11
8.7180988
21
5.6804281
0
LINE
8
layer0
10
8.7180988
20
5.6804281
11
8.9009584
21
5.6590306
0
LINE
8
layer0
10
8.9009584
20
5.6590306
11
9.0618168
21
5.6333434
0
LINE
8
layer0
10
9.0618168
20
5.6333434
11
9.2040008
21
5.6045111
0
LINE
8
layer0
10
9.2040008
20
5.6045111
11
9.3239682
21
5.5749005
0
LINE
8
layer0
10
9.3239682
20
5.5749005
11
9.5042398
21
5.5187066
0
LINE
8
layer0
10
9.5042398
20
5.5187066
11
9.6057405
21
5.4778022
0
LINE
8
layer0
10
9.6057405
20
5.4778022
11
9.7652581
21
5.3846981
0
LINE
8
layer0
10
9.7652581
20
5.3846981
11
9.9262224
21
5.3037487
0
LINE
8
layer0
10
9.9262224
20
5.3037487
11
10.0762243
21
5.2451457
0
LINE
8
layer0
10
10.0762243
20
5.2451457
11
10.2137065
21
5.2078009
0
LINE
8
layer0
10
10.2137065
20
5.2078009
11
10.3371731
21
5.1905371
0
LINE
8
layer0
10
10.3371731
20
5.1905371
11
10.4452082
21
5.1920993
0
LINE
8
layer0
10
10.4452082
20
5.1920993
11
10.4930118
21
5.19951
0
LINE
8
layer0
10
10.4930118
20
5.19951
11
10.5364764
21
5.2111188
0
LINE
8
layer0
10
10.5364764
20
5.2111188
11
10.5754299
21
5.22674
0
LINE
8
layer0
10
10.5754299
20
5.22674
11
10.6097418
21
5.2461963
0
LINE
8
layer0
10
10.6097418
20
5.2461963
11
10.6392594
21
5.269277
0
LINE
8
layer0
10
10.6392594
20
5.269277
11
10.6789824
21
5.317855
0
LINE
8
layer0
10
10.6789824
20
5.317855
11
10.935863
21
5.7223734
0
LINE
8
layer0
10
10.935863
20
5.7223734
11
11.2112854
21
6.1145026
0
LINE
8
layer0
10
11.2112854
20
6.1145026
11
11.2409642
21
6.1697919
0
LINE
8
layer0
10
11.2409642
20
6.1697919
11
11.2509921
21
6.2058951
0
LINE
8
layer0
10
11.2509921
20
6.2058951
11
11.2558368
21
6.2450408
0
LINE
8
layer0
10
11.2558368
20
6.2450408
11
11.255362
21
6.2870072
0
LINE
8
layer0
10
11.255362
20
6.2870072
11
11.249454
21
6.3316058
0
LINE
8
layer0
10
11.249454
20
6.3316058
11
11.238007
21
6.3786064
0
LINE
8
layer0
10
11.238007
20
6.3786064
11
11.198107
21
6.4790157
0
LINE
8
layer0
10
11.198107
20
6.4790157
11
11.1349087
21
6.5864773
0
LINE
8
layer0
10
11.1349087
20
6.5864773
11
11.0477944
21
6.6992032
0
LINE
8
layer0
10
11.0477944
20
6.6992032
11
10.9362491
21
6.8153604
0
LINE
8
layer0
10
10.9362491
20
6.8153604
11
10.7998632
21
6.933094
0
LINE
8
layer0
10
10.7998632
20
6.933094
11
10.6528014
21
7.0448397
0
LINE
8
layer0
10
10.6528014
20
7.0448397
11
10.5761681
21
7.1229607
0
LINE
8
layer0
10
10.5761681
20
7.1229607
11
10.4552647
21
7.2680055
0
LINE
8
layer0
10
10.4552647
20
7.2680055
11
10.3819986
21
7.3675094
0
LINE
8
layer0
10
10.3819986
20
7.3675094
11
10.3009496
21
7.4878366
0
LINE
8
layer0
10
10.3009496
20
7.4878366
11
10.2156598
21
7.6266203
0
LINE
8
layer0
10
10.2156598
20
7.6266203
11
10.1259138
21
7.7873721
0
LINE
8
layer0
10
10.1259138
20
7.7873721
11
10.0344917
21
7.9685109
0
LINE
8
layer0
10
10.0344917
20
7.9685109
11
9.9425127
21
8.1714056
0
LINE
8
layer0
10
9.9425127
20
8.1714056
11
9.8518404
21
8.3958935
0
LINE
8
layer0
10
9.8518404
20
8.3958935
11
9.7632488
21
8.6447887
0
LINE
8
layer0
10
9.7632488
20
8.6447887
11
9.6797437
21
8.91476
0
LINE
8
layer0
10
9.6797437
20
8.91476
11
9.6077965
21
9.18659
0
ARC
8
layer0
10
19.5000229
20
-0.0000229
40
13.5
50
132.8819331
51
137.1180669
0
LINE
8
layer0
10
10.31341
20
9.8922035
11
10.58524
21
9.8202563
0
LINE
8
layer0
10
10.58524
20
9.8202563
11
10.8552113
21
9.7367512
0
LINE
8
layer0
10
10.8552113
20
9.7367512
11
11.1041065
21
9.6481596
0
LINE
8
layer0
10
11.1041065
20
9.6481596
11
11.3285944
21
9.5574873
0
LINE
8
layer0
10
11.3285944
20
9.5574873
11
11.5314891
21
9.4655083
0
LINE
8
layer0
10
11.5314891
20
9.4655083
11
11.7126279
21
9.3740862
0
LINE
8
layer0
10
11.7126279
20
9.3740862
11
11.8733797
21
9.2843402
0
LINE
8
layer0
10
11.8733797
20
9.2843402
11
12.0121634
21
9.1990504
0
LINE
8
layer0
10
12.0121634
20
9.1990504
11
12.1324906
21
9.1180014
0
LINE
8
layer0
10
12.1324906
20
9.1180014
11
12.2319945
21
9.0447353
0
LINE
8
layer0
10
12.2319945
20
9.0447353
11
12.3770393
21
8.9238319
0
LINE
8
layer0
10
12.3770393
20
8.9238319
11
12.4551603
21
8.8471986
0
LINE
8
layer0
10
12.4551603
20
8.8471986
11
12.566906
21
8.7001368
0
LINE
8
layer0
10
12.566906
20
8.7001368
11
12.6846396
21
8.5637509
0
LINE
8
layer0
10
12.6846396
20
8.5637509
11
12.8007968
21
8.4522056
0
LINE
8
layer0
10
12.8007968
20
8.4522056
11
12.9135227
21
8.3650913
0
LINE
8
layer0
10
12.9135227
20
8.3650913
11
13.0209843
21
8.301893
0
LINE
8
layer0
10
13.0209843
20
8.301893
11
13.1213936
21
8.261993
0
LINE
8
layer0
10
13.1213936
20
8.261993
11
13.1683942
21
8.250546
0
LINE
8
layer0
10
13.1683942
20
8.250546
11
13.2129928
21
8.244638
0
LINE
8
layer0
10
13.2129928
20
8.244638
11
13.2549592
21
8.2441632
0
LINE
8
layer0
10
13.2549592
20
8.2441632
11
13.2941049
21
8.2490079
0
LINE
8
layer0
10
13.2941049
20
8.2490079
11
13.3302081
21
8.2590358
0
LINE
8
layer0
10
13.3302081
20
8.2590358
11
13.3854974
21
8.2887146
0
LINE
8
layer0
10
13.3854974
20
8.2887146
11
13.7776266
21
8.564137
0
LINE
8
layer0
10
13.7776266
20
8.564137
11
14.182145
21
8.8210176
0
LINE
8
layer0
10
14.182145
20
8.8210176
11
14.230723
21
8.8607406
0
LINE
8
layer0
10
14.230723
20
8.8607406
11
14.2538037
21
8.8902582
0
LINE
8
layer0
10
14.2538037
20
8.8902582
11
14.27326
21
8.9245701
0
LINE
8
layer0
10
14.27326
20
8.9245701
11
14.2888812
21
8.9635236
0
LINE
8
layer0
10
14.2888812
20
8.9635236
11
14.30049
21
9.0069882
0
LINE
8
layer0
10
14.30049
20
9.0069882
11
14.3079007
21
9.0547918
0
LINE
8
layer0
10
14.3079007
20
9.0547918
11
14.3094629
21
9.1628269
0
LINE
8
layer0
10
14.3094629
20
9.1628269
11
14.2921991
21
9.2862935
0
LINE
8
layer0
10
14.2921991
20
9.2862935
11
14.2548543
21
9.4237757
0
LINE
8
layer0
10
14.2548543
20
9.4237757
11
14.1962513
21
9.5737776
0
LINE
8
layer0
10
14.1962513
20
9.5737776
11
14.1153019
21
9.7347419
0
LINE
8
layer0
10
14.1153019
20
9.7347419
11
14.0221978
21
9.8942595
0
LINE
8
layer0
10
14.0221978
20
9.8942595
11
13.9812934
21
9.9957602
0
LINE
8
layer0
10
13.9812934
20
9.9957602
11
13.9250995
21
10.1760318
0
LINE
8
layer0
10
13.9250995
20
10.1760318
11
13.8954889
21
10.2959992
0
LINE
8
layer0
10
13.8954889
20
10.2959992
11
13.8666566
21
10.4381832
0
LINE
8
layer0
10
13.8666566
20
10.4381832
11
13.8409694
21
10.5990416
0
LINE
8
layer0
10
13.8409694
20
10.5990416
11
13.8195719
21
10.7819012
0
LINE
8
layer0
10
13.8195719
20
10.7819012
11
13.8044277
21
10.9842373
0
LINE
8
layer0
10
13.8044277
20
10.9842373
11
13.7970946
21
11.2068865
0
LINE
8
layer0
10
13.7970946
20
11.2068865
11
13.7992321
21
11.4489849
0
LINE
8
layer0
10
13.7992321
20
11.4489849
11
13.8126323
21
11.7128367
0
LINE
8
layer0
10
13.8126323
20
11.7128367
11
13.8387972
21
11.9942137
0
LINE
8
layer0
10
13.8387972
20
11.9942137
11
13.8763514
21
12.2728849
0
ARC
8
layer0
10
19.5000125
20
-0.0000298
40
13.5
50
110.3819337
51
114.6180676
0
LINE
8
layer0
10
14.7982799
20
12.6547601
11
15.021885
21
12.4842648
0
LINE
8
layer0
10
15.021885
20
12.4842648
11
15.23935
21
12.3038025
0
LINE
8
layer0
10
15.23935
20
12.3038025
11
15.4353967
21
12.1267065
0
LINE
8
layer0
10
15.4353967
20
12.1267065
11
15.6080977
21
11.9570285
0
LINE
8
layer0
10
15.6080977
20
11.9570285
11
15.7603491
21
11.7944065
0
LINE
8
layer0
10
15.7603491
20
11.7944065
11
15.8927138
21
11.6406247
0
LINE
8
layer0
10
15.8927138
20
11.6406247
11
16.0068847
21
11.4961931
0
LINE
8
layer0
10
16.0068847
20
11.4961931
11
16.1024652
21
11.3642854
0
LINE
8
layer0
10
16.1024652
20
11.3642854
11
16.182617
21
11.2433587
0
LINE
8
layer0
10
16.182617
20
11.2433587
11
16.2465089
21
11.1375911
0
LINE
8
layer0
10
16.2465089
20
11.1375911
11
16.334245
21
10.9703847
0
LINE
8
layer0
10
16.334245
20
10.9703847
11
16.3770931
21
10.8696891
0
LINE
8
layer0
10
16.3770931
20
10.8696891
11
16.4240545
21
10.6910585
0
LINE
8
layer0
10
16.4240545
20
10.6910585
11
16.4806336
21
10.5199997
0
LINE
8
layer0
10
16.4806336
20
10.5199997
11
16.5452624
21
10.3724938
0
LINE
8
layer0
10
16.5452624
20
10.3724938
11
16.6160703
21
10.2488724
0
LINE
8
layer0
10
16.6160703
20
10.2488724
11
16.691167
21
10.149361
0
LINE
8
layer0
10
16.691167
20
10.149361
11
16.7686639
21
10.0740733
0
LINE
8
layer0
10
16.7686639
20
10.0740733
11
16.8077063
21
10.0455112
0
LINE
8
layer0
10
16.8077063
20
10.0455112
11
16.8466491
21
10.0229858
0
LINE
8
layer0
10
16.8466491
20
10.0229858
11
16.8852393
21
10.0064873
0
LINE
8
layer0
10
16.8852393
20
10.0064873
11
16.9232591
21
9.9959828
0
LINE
8
layer0
10
16.9232591
20
9.9959828
11
16.9604517
21
9.9914313
0
LINE
8
layer0
10
16.9604517
20
9.9914313
11
17.0228899
21
9.9976927
0
LINE
8
layer0
10
17.0228899
20
9.9976927
11
17.4905697
21
10.1020884
0
LINE
8
layer0
10
17.4905697
20
10.1020884
11
17.9625999
21
10.1846126
0
LINE
8
layer0
10
17.9625999
20
10.1846126
11
18.0226814
21
10.2027219
0
LINE
8
layer0
10
18.0226814
20
10.2027219
11
18.0553011
21
10.22116
0
LINE
8
layer0
10
18.0553011
20
10.22116
11
18.086407
21
10.2454145
0
LINE
8
layer0
10
18.086407
20
10.2454145
11
18.115746
21
10.2754248
0
LINE
8
layer0
10
18.115746
20
10.2754248
11
18.1431043
21
10.3111384
0
LINE
8
layer0
10
18.1431043
20
10.3111384
11
18.1682445
21
10.3524672
0
LINE
8
layer0
10
18.1682445
20
10.3524672
11
18.2110311
21
10.4516807
0
LINE
8
layer0
10
18.2110311
20
10.4516807
11
18.24233
21
10.5723556
0
LINE
8
layer0
10
18.24233
20
10.5723556
11
18.2604401
21
10.7136639
0
LINE
8
layer0
10
18.2604401
20
10.7136639
11
18.2637012
21
10.8746739
0
LINE
8
layer0
10
18.2637012
20
10.8746739
11
18.2505121
21
11.0543635
0
LINE
8
layer0
10
18.2505121
20
11.0543635
11
18.2255399
21
11.237368
0
LINE
8
layer0
10
18.2255399
20
11.237368
11
18.2265918
21
11.3467959
0
LINE
8
layer0
10
18.2265918
20
11.3467959
11
18.2436623
21
11.5348496
0
LINE
8
layer0
10
18.2436623
20
11.5348496
11
18.2622152
21
11.6570165
0
LINE
8
layer0
10
18.2622152
20
11.6570165
11
18.2899891
21
11.799411
0
LINE
8
layer0
10
18.2899891
20
11.799411
11
18.327815
21
11.9578549
0
LINE
8
layer0
10
18.327815
20
11.9578549
11
18.3780237
21
12.1349836
0
LINE
8
layer0
10
18.3780237
20
12.1349836
11
18.441463
21
12.3277132
0
LINE
8
layer0
10
18.441463
20
12.3277132
11
18.5198922
21
12.5362204
0
LINE
8
layer0
10
18.5198922
20
12.5362204
11
18.6145141
21
12.7590723
0
LINE
8
layer0
10
18.6145141
20
12.7590723
11
18.7278659
21
12.9977115
0
LINE
8
layer0
10
18.7278659
20
12.9977115
11
18.8597175
21
13.2476571
0
LINE
8
layer0
10
18.8597175
20
13.2476571
11
19.0010559
21
13.4907443
0
ARC
8
layer0
10
19.5
20
-0.0000324
40
13.5
50
87.8819331
51
92.1180669
0
LINE
8
layer0
10
19.9989441
20
13.4907443
11
20.1402825
21
13.2476571
0
LINE
8
layer0
10
20.1402825
20
13.2476571
11
20.2721341
21
12.9977115
0
LINE
8
layer0
10
20.2721341
20
12.9977115
11
20.3854859
21
12.7590723
0
LINE
8
layer0
10
20.3854859
20
12.7590723
11
20.4801078
21
12.5362204
0
LINE
8
layer0
10
20.4801078
20
12.5362204
11
20.558537
21
12.3277132
0
LINE
8
layer0
10
20.558537
20
12.3277132
11
20.6219763
21
12.1349836
0
LINE
8
layer0
10
20.6219763
20
12.1349836
11
20.672185
21
11.9578549
0
LINE
8
layer0
10
20.672185
20
11.9578549
11
20.7100109
21
11.799411
0
LINE
8
layer0
10
20.7100109
20
11.799411
11
20.7377848
21
11.6570165
0
LINE
8
layer0
10
20.7377848
20
11.6570165
11
20.7563377
21
11.5348496
0
LINE
8
layer0
10
20.7563377
20
11.5348496
11
20.7734082
21
11.3467959
0
LINE
8
layer0
10
20.7734082
20
11.3467959
11
20.7744601
21
11.237368
0
LINE
8
layer0
10
20.7744601
20
11.237368
11
20.7494879
21
11.0543635
0
LINE
8
layer0
10
20.7494879
20
11.0543635
11
20.7362988
21
10.8746739
0
LINE
8
layer0
10
20.7362988
20
10.8746739
11
20.7395599
21
10.7136639
0
LINE
8
layer0
10
20.7395599
20
10.7136639
11
20.75767
21
10.5723556
0
LINE
8
layer0
10
20.75767
20
10.5723556
11
20.7889689
21
10.4516807
0
LINE
8
layer0
10
20.7889689
20
10.4516807
11
20.8317555
21
10.3524672
0
LINE
8
layer0
10
20.8317555
20
10.3524672
11
20.8568957
21
10.3111384
0
LINE
8
layer0
10
20.8568957
20
10.3111384
11
20.884254
21
10.2754248
0
LINE
8
layer0
10
20.884254
20
10.2754248
11
20.913593
21
10.2454145
0
LINE
8
layer0
10
20.913593
20
10.2454145
11
20.9446989
21
10.22116
0
LINE
8
layer0
10
20.9446989
20
10.22116
11
20.9773186
21
10.2027219
0
LINE
8
layer0
10
20.9773186
20
10.2027219
11
21.0374001
21
10.1846126
0
LINE
8
layer0
10
21.0374001
20
10.1846126
11
21.5094303
21
10.1020884
0
LINE
8
layer0
10
21.5094303
20
10.1020884
11
21.9771101
21
9.9976927
0
LINE
8
layer0
10
21.9771101
20
9.9976927
11
22.0395483
21
9.9914313
0
LINE
8
layer0
10
22.0395483
20
9.9914313
11
22.0767409
21
9.9959828
0
LINE
8
layer0
10
22.0767409
20
9.9959828
11
22.1147607
21
10.0064873
0
LINE
8
layer0
10
22.1147607
20
10.0064873
11
22.1533509
21
10.0229858
0
LINE
8
layer0
10
22.1533509
20
10.0229858
11
22.1922937
21
10.0455112
0
LINE
8
layer0
10
22.1922937
20
10.0455112
11
22.2313361
21
10.0740733
0
LINE
8
layer0
10
22.2313361
20
10.0740733
11
22.308833
21
10.149361
0
LINE
8
layer0
10
22.308833
20
10.149361
11
22.3839297
21
10.2488724
0
LINE
8
layer0
10
22.3839297
20
10.2488724
11
22.4547376
21
10.3724938
0
LINE
8
layer0
10
22.4547376
20
10.3724938
11
22.5193664
21
10.5199997
0
LINE
8
layer0
10
22.5193664
20
10.5199997
11
22.5759455
21
10.6910585
0
LINE
8
layer0
10
22.5759455
20
10.6910585
11
22.6229069
21
10.8696891
0
LINE
8
layer0
10
22.6229069
20
10.8696891
11
22.665755
21
10.9703847
0
LINE
8
layer0
10
22.665755
20
10.9703847
11
22.7534911
21
11.1375911
0
LINE
8
layer0
10
22.7534911
20
11.1375911
11
22.817383
21
11.2433587
0
LINE
8
layer0
10
22.817383
20
11.2433587
11
22.8975348
21
11.3642854
0
LINE
8
layer0
10
22.8975348
20
11.3642854
11
22.9931153
21
11.4961931
0
LINE
8
layer0
10
22.9931153
20
11.4961931
11
23.1072862
21
11.6406247
0
LINE
8
layer0
10
23.1072862
20
11.6406247
11
23.2396509
21
11.7944065
0
LINE
8
layer0
10
23.2396509
20
11.7944065
11
23.3919023
21
11.9570285
0
LINE
8
layer0
10
23.3919023
20
11.9570285
11
23.5646033
21
12.1267065
0
LINE
8
layer0
10
23.5646033
20
12.1267065
11
23.76065
21
12.3038025
0
LINE
8
layer0
10
23.76065
20
12.3038025
11
23.978115
21
12.4842648
0
LINE
8
layer0
10
23.978115
20
12.4842648
11
24.2017201
21
12.6547601
0
ARC
8
layer0
10
19.4999875
20
-0.0000299
40
13.5
50
65.3819324
51
69.6180663
0
LINE
8
layer0
10
25.1236486
20
12.2728849
11
25.1612028
21
11.9942137
0
LINE
8
layer0
10
25.1612028
20
11.9942137
11
25.1873677
21
11.7128367
0
LINE
8
layer0
10
25.1873677
20
11.7128367
11
25.2007679
21
11.4489849
0
LINE
8
layer0
10
25.2007679
20
11.4489849
11
25.2029054
21
11.2068865
0
LINE
8
layer0
10
25.2029054
20
11.2068865
11
25.1955723
21
10.9842373
0
LINE
8
layer0
10
25.1955723
20
10.9842373
11
25.1804281
21
10.7819012
0
LINE
8
layer0
10
25.1804281
20
10.7819012
11
25.1590306
21
10.5990416
0
LINE
8
layer0
10
25.1590306
20
10.5990416
11
25.1333434
21
10.4381832
0
LINE
8
layer0
10
25.1333434
20
10.4381832
11
25.1045111
21
10.2959992
0
LINE
8
layer0
10
25.1045111
20
10.2959992
11
25.0749005
21
10.1760318
0
LINE
8
layer0
10
25.0749005
20
10.1760318
11
25.0187066
21
9.9957602
0
LINE
8
layer0
10
25.0187066
20
9.9957602
11
24.9778022
21
9.8942595
0
LINE
8
layer0
10
24.9778022
20
9.8942595
11
24.8846981
21
9.7347419
0
LINE
8
layer0
10
24.8846981
20
9.7347419
11
24.8037487
21
9.5737776
0
LINE
8
layer0
10
24.8037487
20
9.5737776
11
24.7451457
21
9.4237757
0
LINE
8
layer0
10
24.7451457
20
9.4237757
11
24.7078009
21
9.2862935
0
LINE
8
layer0
10
24.7078009
20
9.2862935
11
24.6905371
21
9.1628269
0
LINE
8
layer0
10
24.6905371
20
9.1628269
11
24.6920993
21
9.0547918
0
LINE
8
layer0
10
24.6920993
20
9.0547918
11
24.69951
21
9.0069882
0
LINE
8
layer0
10
24.69951
20
9.0069882
11
24.7111188
21
8.9635236
0
LINE
8
layer0
10
24.7111188
20
8.9635236
11
24.72674
21
8.9245701
0
LINE
8
layer0
10
24.72674
20
8.9245701
11
24.7461963
21
8.8902582
0
LINE
8
layer0
10
24.7461963
20
8.8902582
11
24.769277
21
8.8607406
0
LINE
8
layer0
10
24.769277
20
8.8607406
11
24.817855
21
8.8210176
0
LINE
8
layer0
10
24.817855
20
8.8210176
11
25.2223734
21
8.564137
0
LINE
8
layer0
10
25.2223734
20
8.564137
11
25.6145026
21
8.2887146
0
LINE
8
layer0
10
25.6145026
20
8.2887146
11
25.6697919
21
8.2590358
0
LINE
8
layer0
10
25.6697919
20
8.2590358
11
25.7058951
21
8.2490079
0
LINE
8
layer0
10
25.7058951
20
8.2490079
11
25.7450408
21
8.2441632
0
LINE
8
layer0
10
25.7450408
20
8.2441632
11
25.7870072
21
8.244638
0
LINE
8
layer0
10
25.7870072
20
8.244638
11
25.8316058
21
8.250546
0
LINE
8
layer0
10
25.8316058
20
8.250546
11
25.8786064
21
8.261993
0
LINE
8
layer0
10
25.8786064
20
8.261993
11
25.9790157
21
8.301893
0
LINE
8
layer0
10
25.9790157
20
8.301893
11
26.0864773
21
8.3650913
0
LINE
8
layer0
10
26.0864773
20
8.3650913
11
26.1992032
21
8.4522056
0
LINE
8
layer0
10
26.1992032
20
8.4522056
11
26.3153604
21
8.5637509
0
LINE
8
layer0
10
26.3153604
20
8.5637509
11
26.433094
21
8.7001368
0
LINE
8
layer0
10
26.433094
20
8.7001368
11
26.5448397
21
8.8471986
0
LINE
8
layer0
10
26.5448397
20
8.8471986
11
26.6229607
21
8.9238319
0
LINE
8
layer0
10
26.6229607
20
8.9238319
11
26.7680055
21
9.0447353
0
LINE
8
layer0
10
26.7680055
20
9.0447353
11
26.8675094
21
9.1180014
0
LINE
8
layer0
10
26.8675094
20
9.1180014
11
26.9878366
21
9.1990504
0
LINE
8
layer0
10
26.9878366
20
9.1990504
11
27.1266203
21
9.2843402
0
LINE
8
layer0
10
27.1266203
20
9.2843402
11
27.2873721
21
9.3740862
0
LINE
8
layer0
10
27.2873721
20
9.3740862
11
27.4685109
21
9.4655083
0
LINE
8
layer0
10
27.4685109
20
9.4655083
11
27.6714056
21
9.5574873
0
LINE
8
layer0
10
27.6714056
20
9.5574873
11
27.8958935
21
9.6481596
0
LINE
8
layer0
10
27.8958935
20
9.6481596
11
28.1447887
21
9.7367512
0
LINE
8
layer0
10
28.1447887
20
9.7367512
11
28.41476
21
9.8202563
0
LINE
8
layer0
10
28.41476
20
9.8202563
11
28.68659
21
9.8922035
0
ARC
8
layer0
10
19.4999771
20
-0.0000229
40
13.5
50
42.8819331
51
47.1180669
0
LINE
8
layer0
10
29.3922035
20
9.18659
11
29.3202563
21
8.91476
0
LINE
8
layer0
10
29.3202563
20
8.91476
11
29.2367512
21
8.6447887
0
LINE
8
layer0
10
29.2367512
20
8.6447887
11
29.1481596
21
8.3958935
0
LINE
8
layer0
10
29.1481596
20
8.3958935
11
29.0574873
21
8.1714056
0
LINE
8
layer0
10
29.0574873
20
8.1714056
11
28.9655083
21
7.9685109
0
LINE
8
layer0
10
28.9655083
20
7.9685109
11
28.8740862
21
7.7873721
0
LINE
8
layer0
10
28.8740862
20
7.7873721
11
28.7843402
21
7.6266203
0
LINE
8
layer0
10
28.7843402
20
7.6266203
11
28.6990504
21
7.4878366
0
LINE
8
layer0
10
28.6990504
20
7.4878366
11
28.6180014
21
7.3675094
0
LINE
8
layer0
10
28.6180014
20
7.3675094
11
28.5447353
21
7.2680055
0
LINE
8
layer0
10
28.5447353
20
7.2680055
11
28.4238319
21
7.1229607
0
LINE
8
layer0
10
28.4238319
20
7.1229607
11
28.3471986
21
7.0448397
0
LINE
8
layer0
10
28.3471986
20
7.0448397
11
28.2001368
21
6.933094
0
LINE
8
layer0
10
28.2001368
20
6.933094
11
28.0637509
21
6.8153604
0
LINE
8
layer0
10
28.0637509
20
6.8153604
11
27.9522056
21
6.6992032
0
LINE
8
layer0
10
27.9522056
20
6.6992032
11
27.8650913
21
6.5864773
0
LINE
8
layer0
10
27.8650913
20
6.5864773
11
27.801893
21
6.4790157
0
LINE
8
layer0
10
27.801893
20
6.4790157
11
27.761993
21
6.3786064
0
LINE
8
layer0
10
27.761993
20
6.3786064
11
27.750546
21
6.3316058
0
LINE
8
layer0
10
27.750546
20
6.3316058
11
27.744638
21
6.2870072
0
LINE
8
layer0
10
27.744638
20
6.2870072
11
27.7441632
21
6.2450408
0
LINE
8
layer0
10
27.7441632
20
6.2450408
11
27.7490079
21
6.2058951
0
LINE
8
layer0
10
27.7490079
20
6.2058951
11
27.7590358
21
6.1697919
0
LINE
8
layer0
10
27.7590358
20
6.1697919
11
27.7887146
21
6.1145026
0
LINE
8
layer0
10
27.7887146
20
6.1145026
11
28.064137
21
5.7223734
0
LINE
8
layer0
10
28.064137
20
5.7223734
11
28.3210176
21
5.317855
0
LINE
8
layer0
10
28.3210176
20
5.317855
11
28.3607406
21
5.269277
0
LINE
8
layer0
10
28.3607406
20
5.269277
11
28.3902582
21
5.2461963
0
LINE
8
layer0
10
28.3902582
20
5.2461963
11
28.4245701
21
5.22674
0
LINE
8
layer0
10
28.4245701
20
5.22674
11
28.4635236
21
5.2111188
0
LINE
8
layer0
10
28.4635236
20
5.2111188
11
28.5069882
21
5.19951
0
LINE
8
layer0
10
28.5069882
20
5.19951
11
28.5547918
21
5.1920993
0
LINE
8
layer0
10
28.5547918
20
5.1920993
11
28.6628269
21
5.1905371
0
LINE
8
layer0
10
28.6628269
20
5.1905371
11
28.7862935
21
5.2078009
0
LINE
8
layer0
10
28.7862935
20
5.2078009
11
28.9237757
21
5.2451457
0
LINE
8
layer0
10
28.9237757
20
5.2451457
11
29.0737776
21
5.3037487
0
LINE
8
layer0
10
29.0737776
20
5.3037487
11
29.2347419
21
5.3846981
0
LINE
8
layer0
10
29.2347419
20
5.3846981
11
29.3942595
21
5.4778022
0
LINE
8
layer0
10
29.3942595
20
5.4778022
11
29.4957602
21
5.5187066
0
LINE
8
layer0
10
29.4957602
20
5.5187066
11
29.6760318
21
5.5749005
0
LINE
8
layer0
10
29.6760318
20
5.5749005
11
29.7959992
21
5.6045111
0
LINE
8
layer0
10
29.7959992
20
5.6045111
11
29.9381832
21
5.6333434
0
LINE
8
layer0
10
29.9381832
20
5.6333434
11
30.0990416
21
5.6590306
0
LINE
8
layer0
10
30.0990416
20
5.6590306
11
30.2819012
21
5.6804281
0
LINE
8
layer0
10
30.2819012
20
5.6804281
11
30.4842373
21
5.6955723
0
LINE
8
layer0
10
30.4842373
20
5.6955723
11
30.7068865
21
5.7029054
0
LINE
8
layer0
10
30.7068865
20
5.7029054
11
30.9489849
21
5.7007679
0
LINE
8
layer0
10
30.9489849
20
5.7007679
11
31.2128367
21
5.6873677
0
LINE
8
layer0
10
31.2128367
20
5.6873677
11
31.4942137
21
5.6612028
0
LINE
8
layer0
10
31.4942137
20
5.6612028
11
31.7728849
21
5.6236486
0
ARC
8
layer0
10
19.4999702
20
-0.0000125
40
13.5
50
20.3819337
51
24.6180676
0
LINE
8
layer0
10
32.1547601
20
4.7017201
11
31.9842648
21
4.478115
0
LINE
8
layer1
10
31.9842648
20
4.478115
11
31.8038025
21
4.26065
0
LINE
8
layer1
10
31.8038025
20
4.26065
11
31.6267065
21
4.0646033
0
LINE
8
layer1
10
31.6267065
20
4.0646033
11
31.4570285
21
3.8919023
0
LINE
8
layer1
10
31.4570285
20
3.8919023
11
31.2944065
21
3.7396509
0
LINE
8
layer1
10
31.2944065
20
3.7396509
11
31.1406247
21
3.6072862
0
LINE
8
layer1
10
31.1406247
20
3.6072862
11
30.9961931
21
3.4931153
0
LINE
8
layer1
10
30.9961931
20
3.4931153
11
30.8642854
21
3.3975348
0
LINE
8
layer1
10
30.8642854
20
3.3975348
11
30.7433587
21
3.317383
0
LINE
8
layer1
10
30.7433587
20
3.317383
11
30.6375911
21
3.2534911
0
LINE
8
layer1
10
30.6375911
20
3.2534911
11
30.4703847
21
3.165755
0
LINE
8
layer1
10
30.4703847
20
3.165755
11
30.3696891
21
3.1229069
0
LINE
8
layer1
10
30.3696891
20
3.1229069
11
30.1910585
21
3.0759455
0
LINE
8
layer1
10
30.1910585
20
3.0759455
11
30.0199997
21
3.0193664
0
LINE
8
layer1
10
30.0199997
20
3.0193664
11
29.8724938
21
2.9547376
0
LINE
8
layer1
10
29.8724938
20
2.9547376
11
29.7488724
21
2.8839297
0
LINE
8
layer1
10
29.7488724
20
2.8839297
11
29.649361
21
2.808833
0
LINE
8
layer1
10
29.649361
20
2.808833
11
29.5740733
21
2.7313361
0
LINE
8
layer1
10
29.5740733
20
2.7313361
11
29.5455112
21
2.6922937
0
LINE
8
layer1
10
29.5455112
20
2.6922937
11
29.5229858
21
2.6533509
0
LINE
8
layer1
10
29.5229858
20
2.6533509
11
29.5064873
21
2.6147607
0
LINE
8
layer1
10
29.5064873
20
2.6147607
11
29.4959828
21
2.5767409
0
LINE
8
layer1
10
29.4959828
20
2.5767409
11
29.4914313
21
2.5395483
0
LINE
8
layer1
10
29.4914313
20
2.5395483
11
29.4976927
21
2.4771101
0
LINE
8
layer1
10
29.4976927
20
2.4771101
11
29.6020884
21
2.0094303
0
LINE
8
layer1
10
29.6020884
20
2.0094303
11
29.6846126
21
1.5374001
0
LINE
8
layer1
10
29.6846126
20
1.5374001
11
29.7027219
21
1.4773186
0
LINE
8
layer1
10
29.7027219
20
1.4773186
11
29.72116
21
1.4446989
0
LINE
8
layer1
10
29.72116
20
1.4446989
11
29.7454145
21
1.413593
0
LINE
8
layer1
10
29.7454145
20
1.413593
11
29.7754248
21
1.384254
0
LINE
8
layer1
10
29.7754248
20
1.384254
11
29.8111384
21
1.3568957
0
LINE
8
layer1
10
29.8111384
20
1.3568957
11
29.8524672
21
1.3317555
0
LINE
8
layer1
10
29.8524672
20
1.3317555
11
29.9516807
21
1.2889689
0
LINE
8
layer1
10
29.9516807
20
1.2889689
11
30.0723556
21
1.25767
0
LINE
8
layer1
10
30.0723556
20
1.25767
11
30.2136639
21
1.2395599
0
LINE
8
layer1
10
30.2136639
20
1.2395599
11
30.3746739
21
1.2362988
0
LINE
8
layer1
10
30.3746739
20
1.2362988
11
30.5543635
21
1.2494879
0
LINE
8
layer1
10
30.5543635
20
1.2494879
11
30.737368
21
1.2744601
0
LINE
8
layer1
10
30.737368
20
1.2744601
11
30.8467959
21
1.2734082
0
LINE
8
layer1
10
30.8467959
20
1.2734082
11
31.0348496
21
1.2563377
0
LINE
8
layer1
10
31.0348496
20
1.2563377
11
31.1570165
21
1.2377848
0
LINE
8
layer1
10
31.1570165
20
1.2377848
11
31.299411
21
1.2100109
0
LINE
8
layer1
10
31.299411
20
1.2100109
11
31.4578549
21
1.172185
0
LINE
8
layer1
10
31.4578549
20
1.172185
11
31.6349836
21
1.1219763
0
LINE
8
layer1
10
31.6349836
20
1.1219763
11
31.8277132
21
1.058537
0
LINE
8
layer1
10
31.8277132
20
1.058537
11
32.0362204
21
0.9801078
0
LINE
8
layer1
10
32.0362204
20
0.9801078
11
32.2590723
21
0.8854859
0
LINE
8
layer1
10
32.2590723
20
0.8854859
11
32.4977115
21
0.7721341
0
LINE
8
layer1
10
32.4977115
20
0.7721341
11
32.7476571
21
0.6402825
0
LINE
8
layer1
10
32.7476571
20
0.6402825
11
32.9907443
21
0.4989441
0
ARC
8
layer1
10
19.4999676
20
0
40
13.5
50
357.8819331
51
362.1180669
0
LINE
8
layer1
10
32.9907443
20
-0.4989441
11
32.7476571
21
-0.6402825
0
LINE
8
layer1
10
32.7476571
20
-0.6402825
11
32.4977115
21
-0.7721341
0
LINE
8
layer1
10
32.4977115
20
-0.7721341
11
32.2590723
21
-0.8854859
0
LINE
8
layer1
10
32.2590723
20
-0.8854859
11
32.0362204
21
-0.9801078
0
LINE
8
layer1
10
32.0362204
20
-0.9801078
11
31.8277132
21
-1.058537
0
LINE
8
layer1
10
31.8277132
20
-1.058537
11
31.6349836
21
-1.1219763
0
LINE
8
layer1
10
31.6349836
20
-1.1219763
11
31.4578549
21
-1.172185
0
LINE
8
layer1
10
31.4578549
20
-1.172185
11
31.299411
21
-1.2100109
0
LINE
8
layer1
10
31.299411
20
-1.2100109
11
31.1570165
21
-1.2377848
0
LINE
8
layer1
10
31.1570165
20
-1.2377848
11
31.0348496
21
-1.2563377
0
LINE
8
layer1
10
31.0348496
20
-1.2563377
11
30.8467959
21
-1.2734082
0
LINE
8
layer1
10
30.8467959
20
-1.2734082
11
30.737368
21
-1.2744601
0
LINE
8
layer1
10
30.737368
20
-1.2744601
11
30.5543635
21
-1.2494879
0
LINE
8
layer1
10
30.5543635
20
-1.2494879
11
30.3746739
21
-1.2362988
0
LINE
8
layer1
10
30.3746739
20
-1.2362988
11
30.2136639
21
-1.2395599
0
LINE
8
layer1
10
30.2136639
20
-1.2395599
11
30.0723556
21
-1.25767
0
LINE
8
layer1
10
30.0723556
20
-1.25767
11
29.9516807
21
-1.2889689
0
LINE
8
layer1
10
29.9516807
20
-1.2889689
11
29.8524672
21
-1.3317555
0
LINE
8
layer1
10
29.8524672
20
-1.3317555
11
29.8111384
21
-1.3568957
0
LINE
8
layer1
10
29.8111384
20
-1.3568957
11
29.7754248
21
-1.384254
0
LINE
8
layer1
10
29.7754248
20
-1.384254
11
29.7454145
21
-1.413593
0
LINE
8
layer1
10
29.7454145
20
-1.413593
11
29.72116
21
-1.4446989
0
LINE
8
layer1
10
29.72116
20
-1.4446989
11
29.7027219
21
-1.4773186
0
LINE
8
layer1
10
29.7027219
20
-1.4773186
11
29.6846126
21
-1.5374001
0
LINE
8
layer1
10
29.6846126
20
-1.5374001
11
29.6020884
21
-2.0094303
0
LINE
8
layer1
10
29.6020884
20
-2.0094303
11
29.4976927
21
-2.4771101
0
LINE
8
layer1
10
29.4976927
20
-2.4771101
11
29.4914313
21
-2.5395483
0
LINE
8
layer1
10
29.4914313
20
-2.5395483
11
29.4959828
21
-2.5767409
0
LINE
8
layer1
10
29.4959828
20
-2.5767409
11
29.5064873
21
-2.6147607
0
LINE
8
layer1
10
29.5064873
20
-2.6147607
11
29.5229858
21
-2.6533509
0
LINE
8
layer1
10
29.5229858
20
-2.6533509
11
29.5455112
21
-2.6922937
0
LINE
8
layer1
10
29.5455112
20
-2.6922937
11
29.5740733
21
-2.7313361
0
LINE
8
layer1
10
29.5740733
20
-2.7313361
11
29.649361
21
-2.808833
0
LINE
8
layer1
10
29.649361
20
-2.808833
11
29.7488724
21
-2.8839297
0
LINE
8
layer1
10
29.7488724
20
-2.8839297
11
29.8724938
21
-2.9547376
0
LINE
8
layer1
10
29.8724938
20
-2.9547376
11
30.0199997
21
-3.0193664
0
LINE
8
layer1
10
30.0199997
20
-3.0193664
11
30.1910585
21
-3.0759455
0
LINE
8
layer1
10
30.1910585
20
-3.0759455
11
30.3696891
21
-3.1229069
0
LINE
8
layer1
10
30.3696891
20
-3.1229069
11
30.4703847
21
-3.165755
0
LINE
8
layer1
10
30.4703847
20
-3.165755
11
30.6375911
21
-3.2534911
0
LINE
8
layer1
10
30.6375911
20
-3.2534911
11
30.7433587
21
-3.317383
0
LINE
8
layer1
10
30.7433587
20
-3.317383
11
30.8642854
21
-3.3975348
0
LINE
8
layer1
10
30.8642854
20
-3.3975348
11
30.9961931
21
-3.4931153
0
LINE
8
layer1
10
30.9961931
20
-3.4931153
11
31.1406247
21
-3.6072862
0
LINE
8
layer1
10
31.1406247
20
-3.6072862
11
31.2944065
21
-3.7396509
0
LINE
8
layer1
10
31.2944065
20
-3.7396509
11
31.4570285
21
-3.8919023
0
LINE
8
layer1
10
31.4570285
20
-3.8919023
11
31.6267065
21
-4.0646033
0
LINE
8
layer1
10
31.6267065
20
-4.0646033
11
31.8038025
21
-4.26065
0
LINE
8
layer1
10
31.8038025
20
-4.26065
11
31.9842648
21
-4.478115
0
LINE
8
layer1
10
31.9842648
20
-4.478115
11
32.1547601
21
-4.7017201
0
ARC
8
layer1
10
19.4999701
20
0.0000125
40
13.5
50
335.3819324
51
339.6180663
0
LINE
8
layer1
10
31.7728849
20
-5.6236486
11
31.4942137
21
-5.6612028
0
LINE
8
layer1
10
31.4942137
20
-5.6612028
11
31.2128367
21
-5.6873677
0
LINE
8
layer1
10
31.2128367
20
-5.6873677
11
30.9489849
21
-5.7007679
0
LINE
8
layer1
10
30.9489849
20
-5.7007679
11
30.7068865
21
-5.7029054
0
LINE
8
layer1
10
30.7068865
20
-5.7029054
11
30.4842373
21
-5.6955723
0
LINE
8
layer1
10
30.4842373
20
-5.6955723
11
30.2819012
21
-5.6804281
0
LINE
8
layer1
10
30.2819012
20
-5.6804281
11
30.0990416
21
-5.6590306
0
LINE
8
layer1
10
30.0990416
20
-5.6590306
11
29.9381832
21
-5.6333434
0
LINE
8
layer1
10
29.9381832
20
-5.6333434
11
29.7959992
21
-5.6045111
0
LINE
8
layer1
10
29.7959992
20
-5.6045111
11
29.6760318
21
-5.5749005
0
LINE
8
layer1
10
29.6760318
20
-5.5749005
11
29.4957602
21
-5.5187066
0
LINE
8
layer1
10
29.4957602
20
-5.5187066
11
29.3942595
21
-5.4778022
0
LINE
8
layer1
10
29.3942595
20
-5.4778022
11
29.2347419
21
-5.3846981
0
LINE
8
layer1
10
29.2347419
20
-5.3846981
11
29.0737776
21
-5.3037487
0
LINE
8
layer1
10
29.0737776
20
-5.3037487
11
28.9237757
21
-5.2451457
0
LINE
8
layer1
10
28.9237757
20
-5.2451457
11
28.7862935
21
-5.2078009
0
LINE
8
layer1
10
28.7862935
20
-5.2078009
11
28.6628269
21
-5.1905371
0
LINE
8
layer1
10
28.6628269
20
-5.1905371
11
28.5547918
21
-5.1920993
0
LINE
8
layer1
10
28.5547918
20
-5.1920993
11
28.5069882
21
-5.19951
0
LINE
8
layer1
10
28.5069882
20
-5.19951
11
28.4635236
21
-5.2111188
0
LINE
8
layer1
10
28.4635236
20
-5.2111188
11
28.4245701
21
-5.22674
0
LINE
8
layer1
10
28.4245701
20
-5.22674
11
28.3902582
21
-5.2461963
0
LINE
8
layer1
10
28.3902582
20
-5.2461963
11
28.3607406
21
-5.269277
0
LINE
8
layer1
10
28.3607406
20
-5.269277
11
28.3210176
21
-5.317855
0
LINE
8
layer1
10
28.3210176
20
-5.317855
11
28.064137
21
-5.7223734
0
LINE
8
layer1
10
28.064137
20
-5.7223734
11
27.7887146
21
-6.1145026
0
LINE
8
layer1
10
27.7887146
20
-6.1145026
11
27.7590358
21
-6.1697919
0
LINE
8
layer1
10
27.7590358
20
-6.1697919
11
27.7490079
21
-6.2058951
0
LINE
8
layer1
10
27.7490079
20
-6.2058951
11
27.7441632
21
-6.2450408
0
LINE
8
layer1
10
27.7441632
20
-6.2450408
11
27.744638
21
-6.2870072
0
LINE
8
layer1
10
27.744638
20
-6.2870072
11
27.750546
21
-6.3316058
0
LINE
8
layer1
10
27.750546
20
-6.3316058
11
27.761993
21
-6.3786064
0
LINE
8
layer1
10
27.761993
20
-6.3786064
11
27.801893
21
-6.4790157
0
LINE
8
layer1
10
27.801893
20
-6.4790157
11
27.8650913
21
-6.5864773
0
LINE
8
layer1
10
27.8650913
20
-6.5864773
11
27.9522056
21
-6.6992032
0
LINE
8
layer1
10
27.9522056
20
-6.6992032
11
28.0637509
21
-6.8153604
0
LINE
8
layer1
10
28.0637509
20
-6.8153604
11
28.2001368
21
-6.933094
0
LINE
8
layer1
10
28.2001368
20
-6.933094
11
28.3471986
21
-7.0448397
0
LINE
8
layer1
10
28.3471986
20
-7.0448397
11
28.4238319
21
-7.1229607
0
LINE
8
layer1
10
28.4238319
20
-7.1229607
11
28.5447353
21
-7.2680055
0
LINE
8
layer1
10
28.5447353
20
-7.2680055
11
28.6180014
21
-7.3675094
0
LINE
8
layer1
10
28.6180014
20
-7.3675094
11
28.6990504
21
-7.4878366
0
LINE
8
layer1
10
28.6990504
20
-7.4878366
11
28.7843402
21
-7.6266203
0
LINE
8
layer1
10
28.7843402
20
-7.6266203
11
28.8740862
21
-7.7873721
0
LINE
8
layer1
10
28.8740862
20
-7.7873721
11
28.9655083
21
-7.9685109
0
LINE
8
layer1
10
28.9655083
20
-7.9685109
11
29.0574873
21
-8.1714056
0
LINE
8
layer1
10
29.0574873
20
-8.1714056
11
29.1481596
21
-8.3958935
0
LINE
8
layer1
10
29.1481596
20
-8.3958935
11
29.2367512
21
-8.6447887
0
LINE
8
layer1
10
29.2367512
20
-8.6447887
11
29.3202563
21
-8.91476
0
LINE
8
layer1
10
29.3202563
20
-8.91476
11
29.3922035
21
-9.18659
0
ARC
8
layer1
10
19.4999771
20
0.0000229
40
13.5
50
312.8819331
51
317.1180669
0
LINE
8
layer1
10
28.68659
20
-9.8922035
11
28.41476
21
-9.8202563
0
LINE
8
layer1
10
28.41476
20
-9.8202563
11
28.1447887
21
-9.7367512
0
LINE
8
layer1
10
28.1447887
20
-9.7367512
11
27.8958935
21
-9.6481596
0
LINE
8
layer1
10
27.8958935
20
-9.6481596
11
27.6714056
21
-9.5574873
0
LINE
8
layer1
10
27.6714056
20
-9.5574873
11
27.4685109
21
-9.4655083
0
LINE
8
layer1
10
27.4685109
20
-9.4655083
11
27.2873721
21
-9.3740862
0
LINE
8
layer1
10
27.2873721
20
-9.3740862
11
27.1266203
21
-9.2843402
0
LINE
8
layer1
10
27.1266203
20
-9.2843402
11
26.9878366
21
-9.1990504
0
LINE
8
layer1
10
26.9878366
20
-9.1990504
11
26.8675094
21
-9.1180014
0
LINE
8
layer1
10
26.8675094
20
-9.1180014
11
26.7680055
21
-9.0447353
0
LINE
8
layer1
10
26.7680055
20
-9.0447353
11
26.6229607
21
-8.9238319
0
LINE
8
layer1
10
26.6229607
20
-8.9238319
11
26.5448397
21
-8.8471986
0
LINE
8
layer1
10
26.5448397
20
-8.8471986
11
26.433094
21
-8.7001368
0
LINE
8
layer1
10
26.433094
20
-8.7001368
11
26.3153604
21
-8.5637509
0
LINE
8
layer1
10
26.3153604
20
-8.5637509
11
26.1992032
21
-8.4522056
0
LINE
8
layer1
10
26.1992032
20
-8.4522056
11
26.0864773
21
-8.3650913
0
LINE
8
layer1
10
26.0864773
20
-8.3650913
11
25.9790157
21
-8.301893
0
LINE
8
layer1
10
25.9790157
20
-8.301893
11
25.8786064
21
-8.261993
0
LINE
8
layer1
10
25.8786064
20
-8.261993
11
25.8316058
21
-8.250546
0
LINE
8
layer1
10
25.8316058
20
-8.250546
11
25.7870072
21
-8.244638
0
LINE
8
layer1
10
25.7870072
20
-8.244638
11
25.7450408
21
-8.2441632
0
LINE
8
layer1
10
25.7450408
20
-8.2441632
11
25.7058951
21
-8.2490079
0
LINE
8
layer1
10
25.7058951
20
-8.2490079
11
25.6697919
21
-8.2590358
0
LINE
8
layer1
10
25.6697919
20
-8.2590358
11
25.6145026
21
-8.2887146
0
LINE
8
layer1
10
25.6145026
20
-8.2887146
11
25.2223734
21
-8.564137
0
LINE
8
layer1
10
25.2223734
20
-8.564137
11
24.817855
21
-8.8210176
0
LINE
8
layer1
10
24.817855
20
-8.8210176
11
24.769277
21
-8.8607406
0
LINE
8
layer1
10
24.769277
20
-8.8607406
11
24.7461963
21
-8.8902582
0
LINE
8
layer1
10
24.7461963
20
-8.8902582
11
24.72674
21
-8.9245701
0
LINE
8
layer1
10
24.72674
20
-8.9245701
11
24.7111188
21
-8.9635236
0
LINE
8
layer1
10
24.7111188
20
-8.9635236
11
24.69951
21
-9.0069882
0
LINE
8
layer1
10
24.69951
20
-9.0069882
11
24.6920993
21
-9.0547918
0
LINE
8
layer1
10
24.6920993
20
-9.0547918
11
24.6905371
21
-9.1628269
0
LINE
8
layer1
10
24.6905371
20
-9.1628269
11
24.7078009
21
-9.2862935
0
LINE
8
layer1
10
24.7078009
20
-9.2862935
11
24.7451457
21
-9.4237757
0
LINE
8
layer1
10
24.7451457
20
-9.4237757
11
24.8037487
21
-9.5737776
0
LINE
8
layer1
10
24.8037487
20
-9.5737776
11
24.8846981
21
-9.7347419
0
LINE
8
layer1
10
24.8846981
20
-9.7347419
11
24.9778022
21
-9.8942595
0
LINE
8
layer1
10
24.9778022
20
-9.8942595
11
25.0187066
21
-9.9957602
0
LINE
8
layer1
10
25.0187066
20
-9.9957602
11
25.0749005
21
-10.1760318
0
LINE
8
layer1
10
25.0749005
20
-10.1760318
11
25.1045111
21
-10.2959992
0
LINE
8
layer1
10
25.1045111
20
-10.2959992
11
25.1333434
21
-10.4381832
0
LINE
8
layer1
10
25.1333434
20
-10.4381832
11
25.1590306
21
-10.5990416
0
LINE
8
layer1
10
25.1590306
20
-10.5990416
11
25.1804281
21
-10.7819012
0
LINE
8
layer1
10
25.1804281
20
-10.7819012
11
25.1955723
21
-10.9842373
0
LINE
8
layer1
10
25.1955723
20
-10.9842373
11
25.2029054
21
-11.2068865
0
LINE
8
layer1
10
25.2029054
20
-11.2068865
11
25.2007679
21
-11.4489849
0
LINE
8
layer1
10
25.2007679
20
-11.4489849
11
25.1873677
21
-11.7128367
0
LINE
8
layer1
10
25.1873677
20
-11.7128367
11
25.1612028
21
-11.9942137
0
LINE
8
layer1
10
25.1612028
20
-11.9942137
11
25.1236486
21
-12.2728849
0
ARC
8
layer1
10
19.4999875
20
0.0000298
40
13.5
50
290.3819337
51
294.6180676
0
LINE
8
layer1
10
24.2017201
20
-12.6547601
11
23.978115
21
-12.4842648
0
LINE
8
layer1
10
23.978115
20
-12.4842648
11
23.76065
21
-12.3038025
0
LINE
8
layer1
10
23.76065
20
-12.3038025
11
23.5646033
21
-12.1267065
0
LINE
8
layer1
10
23.5646033
20
-12.1267065
11
23.3919023
21
-11.9570285
0
LINE
8
layer1
10
23.3919023
20
-11.9570285
11
23.2396509
21
-11.7944065
0
LINE
8
layer1
10
23.2396509
20
-11.7944065
11
23.1072862
21
-11.6406247
0
LINE
8
layer1
10
23.1072862
20
-11.6406247
11
22.9931153
21
-11.4961931
0
LINE
8
layer1
10
22.9931153
20
-11.4961931
11
22.8975348
21
-11.3642854
0
LINE
8
layer1
10
22.8975348
20
-11.3642854
11
22.817383
21
-11.2433587
0
LINE
8
layer1
10
22.817383
20
-11.2433587
11
22.7534911
21
-11.1375911
0
LINE
8
layer1
10
22.7534911
20
-11.1375911
11
22.665755
21
-10.9703847
0
LINE
8
layer1
10
22.665755
20
-10.9703847
11
22.6229069
21
-10.8696891
0
LINE
8
layer1
10
22.6229069
20
-10.8696891
11
22.5759455
21
-10.6910585
0
LINE
8
layer1
10
22.5759455
20
-10.6910585
11
22.5193664
21
-10.5199997
0
LINE
8
layer1
10
22.5193664
20
-10.5199997
11
22.4547376
21
-10.3724938
0
LINE
8
layer1
10
22.4547376
20
-10.3724938
11
22.3839297
21
-10.2488724
0
LINE
8
layer1
10
22.3839297
20
-10.2488724
11
22.308833
21
-10.149361
0
LINE
8
layer1
10
22.308833
20
-10.149361
11
22.2313361
21
-10.0740733
0
LINE
8
layer1
10
22.2313361
20
-10.0740733
11
22.1922937
21
-10.0455112
0
LINE
8
layer1
10
22.1922937
20
-10.0455112
11
22.1533509
21
-10.0229858
0
LINE
8
layer1
10
22.1533509
20
-10.0229858
11
22.1147607
21
-10.0064873
0
LINE
8
layer1
10
22.1147607
20
-10.0064873
11
22.0767409
21
-9.9959828
0
LINE
8
layer1
10
22.0767409
20
-9.9959828
11
22.0395483
21
-9.9914313
0
LINE
8
layer1
10
22.0395483
20
-9.9914313
11
21.9771101
21
-9.9976927
0
LINE
8
layer1
10
21.9771101
20
-9.9976927
11
21.5094303
21
-10.1020884
0
LINE
8
layer1
10
21.5094303
20
-10.1020884
11
21.0374001
21
-10.1846126
0
LINE
8
layer1
10
21.0374001
20
-10.1846126
11
20.9773186
21
-10.2027219
0
LINE
8
layer1
10
20.9773186
20
-10.2027219
11
20.9446989
21
-10.22116
0
LINE
8
layer1
10
20.9446989
20
-10.22116
11
20.913593
21
-10.2454145
0
LINE
8
layer1
10
20.913593
20
-10.2454145
11
20.884254
21
-10.2754248
0
LINE
8
layer1
10
20.884254
20
-10.2754248
11
20.8568957
21
-10.3111384
0
LINE
8
layer1
10
20.8568957
20
-10.3111384
11
20.8317555
21
-10.3524672
0
LINE
8
layer1
10
20.8317555
20
-10.3524672
11
20.7889689
21
-10.4516807
0
LINE
8
layer1
10
20.7889689
20
-10.4516807
11
20.75767
21
-10.5723556
0
LINE
8
layer1
10
20.75767
20
-10.5723556
11
20.7395599
21
-10.7136639
0
LINE
8
layer1
10
20.7395599
20
-10.7136639
11
20.7362988
21
-10.8746739
0
LINE
8
layer1
10
20.7362988
20
-10.8746739
11
20.7494879
21
-11.0543635
0
LINE
8
layer1
10
20.7494879
20
-11.0543635
11
20.7744601
21
-11.237368
0
LINE
8
layer1
10
20.7744601
20
-11.237368
11
20.7734082
21
-11.3467959
0
LINE
8
layer1
10
20.7734082
20
-11.3467959
11
20.7563377
21
-11.5348496
0
LINE
8
layer1
10
20.7563377
20
-11.5348496
11
20.7377848
21
-11.6570165
0
LINE
8
layer1
10
20.7377848
20
-11.6570165
11
20.7100109
21
-11.799411
0
LINE
8
layer1
10
20.7100109
20
-11.799411
11
20.672185
21
-11.9578549
0
LINE
8
layer1
10
20.672185
20
-11.9578549
11
20.6219763
21
-12.1349836
0
LINE
8
layer1
10
20.6219763
20
-12.1349836
11
20.558537
21
-12.3277132
0
LINE
8
layer1
10
20.558537
20
-12.3277132
11
20.4801078
21
-12.5362204
0
LINE
8
layer1
10
20.4801078
20
-12.5362204
11
20.3854859
21
-12.7590723
0
LINE
8
layer1
10
20.3854859
20
-12.7590723
11
20.2721341
21
-12.9977115
0
LINE
8
layer1
10
20.2721341
20
-12.9977115
11
20.1402825
21
-13.2476571
0
LINE
8
layer1
10
20.1402825
20
-13.2476571
11
19.9989441
21
-13.4907443
0
ARC
8
layer1
10
19.5
20
0.0000324
40
13.5
50
267.8819331
51
272.1180669
0
LINE
8
layer1
10
19.0010559
20
-13.4907443
11
18.8597175
21
-13.2476571
0
LINE
8
layer1
10
18.8597175
20
-13.2476571
11
18.7278659
21
-12.9977115
0
LINE
8
layer1
10
18.7278659
20
-12.9977115
11
18.6145141
21
-12.7590723
0
LINE
8
layer1
10
18.6145141
20
-12.7590723
11
18.5198922
21
-12.5362204
0
LINE
8
layer1
10
18.5198922
20
-12.5362204
11
18.441463
21
-12.3277132
0
LINE
8
layer1
10
18.441463
20
-12.3277132
11
18.3780237
21
-12.1349836
0
LINE
8
layer1
10
18.3780237
20
-12.1349836
11
18.327815
21
-11.9578549
0
LINE
8
layer1
10
18.327815
20
-11.9578549
11
18.2899891
21
-11.799411
0
LINE
8
layer1
10
18.2899891
20
-11.799411
11
18.2622152
21
-11.6570165
0
LINE
8
layer1
10
18.2622152
20
-11.6570165
11
18.2436623
21
-11.5348496
0
LINE
8
layer1
10
18.2436623
20
-11.5348496
11
18.2265918
21
-11.3467959
0
LINE
8
layer1
10
18.2265918
20
-11.3467959
11
18.2255399
21
-11.237368
0
LINE
8
layer1
10
18.2255399
20
-11.237368
11
18.2505121
21
-11.0543635
0
LINE
8
layer1
10
18.2505121
20
-11.0543635
11
18.2637012
21
-10.8746739
0
LINE
8
layer1
10
18.2637012
20
-10.8746739
11
18.2604401
21
-10.7136639
0
LINE
8
layer1
10
18.2604401
20
-10.7136639
11
18.24233
21
-10.5723556
0
LINE
8
layer1
10
18.24233
20
-10.5723556
11
18.2110311
21
-10.4516807
0
LINE
8
layer1
10
18.2110311
20
-10.4516807
11
18.1682445
21
-10.3524672
0
LINE
8
layer1
10
18.1682445
20
-10.3524672
11
18.1431043
21
-10.3111384
0
LINE
8
layer1
10
18.1431043
20
-10.3111384
11
18.115746
21
-10.2754248
0
LINE
8
layer1
10
18.115746
20
-10.2754248
11
18.086407
21
-10.2454145
0
LINE
8
layer1
10
18.086407
20
-10.2454145
11
18.0553011
21
-10.22116
0
LINE
8
layer1
10
18.0553011
20
-10.22116
11
18.0226814
21
-10.2027219
0
LINE
8
layer1
10
18.0226814
20
-10.2027219
11
17.9625999
21
-10.1846126
0
LINE
8
layer1
10
17.9625999
20
-10.1846126
11
17.4905697
21
-10.1020884
0
LINE
8
layer1
10
17.4905697
20
-10.1020884
11
17.0228899
21
-9.9976927
0
LINE
8
layer1
10
17.0228899
20
-9.9976927
11
16.9604517
21
-9.9914313
0
LINE
8
layer1
10
16.9604517
20
-9.9914313
11
16.9232591
21
-9.9959828
0
LINE
8
layer1
10
16.9232591
20
-9.9959828
11
16.8852393
21
-10.0064873
0
LINE
8
layer1
10
16.8852393
20
-10.0064873
11
16.8466491
21
-10.0229858
0
LINE
8
layer1
10
16.8466491
20
-10.0229858
11
16.8077063
21
-10.0455112
0
LINE
8
layer1
10
16.8077063
20
-10.0455112
11
16.7686639
21
-10.0740733
0
LINE
8
layer1
10
16.7686639
20
-10.0740733
11
16.691167
21
-10.149361
0
LINE
8
layer1
10
16.691167
20
-10.149361
11
16.6160703
21
-10.2488724
0
LINE
8
layer1
10
16.6160703
20
-10.2488724
11
16.5452624
21
-10.3724938
0
LINE
8
layer1
10
16.5452624
20
-10.3724938
11
16.4806336
21
-10.5199997
0
LINE
8
layer1
10
16.4806336
20
-10.5199997
11
16.4240545
21
-10.6910585
0
LINE
8
layer1
10
16.4240545
20
-10.6910585
11
16.3770931
21
-10.8696891
0
LINE
8
layer1
10
16.3770931
20
-10.8696891
11
16.334245
21
-10.9703847
0
LINE
8
layer1
10
16.334245
20
-10.9703847
11
16.2465089
21
-11.1375911
0
LINE
8
layer1
10
16.2465089
20
-11.1375911
11
16.182617
21
-11.2433587
0
LINE
8
layer1
10
16.182617
20
-11.2433587
11
16.1024652
21
-11.3642854
0
LINE
8
layer1
10
16.1024652
20
-11.3642854
11
16.0068847
21
-11.4961931
0
LINE
8
layer1
10
16.0068847
20
-11.4961931
11
15.8927138
21
-11.6406247
0
LINE
8
layer1
10
15.8927138
20
-11.6406247
11
15.7603491
21
-11.7944065
0
LINE
8
layer1
10
15.7603491
20
-11.7944065
11
15.6080977
21
-11.9570285
0
LINE
8
layer1
10
15.6080977
20
-11.9570285
11
15.4353967
21
-12.1267065
0
LINE
8
layer1
10
15.4353967
20
-12.1267065
11
15.23935
21
-12.3038025
0
LINE
8
layer1
10
15.23935
20
-12.3038025
11
15.021885
21
-12.4842648
0
LINE
8
layer1
10
15.021885
20
-12.4842648
11
14.7982799
21
-12.6547601
0
ARC
8
layer1
10
19.5000125
20
0.0000299
40
13.5
50
245.3819324
51
249.6180663
0
LINE
8
layer1
10
13.8763514
20
-12.2728849
11
13.8387972
21
-11.9942137
0
LINE
8
layer1
10
13.8387972
20
-11.9942137
11
13.8126323
21
-11.7128367
0
LINE
8
layer1
10
13.8126323
20
-11.7128367
11
13.7992321
21
-11.4489849
0
LINE
8
layer1
10
13.7992321
20
-11.4489849
11
13.7970946
21
-11.2068865
0
LINE
8
layer1
10
13.7970946
20
-11.2068865
11
13.8044277
21
-10.9842373
0
LINE
8
layer1
10
13.8044277
20
-10.9842373
11
13.8195719
21
-10.7819012
0
LINE
8
layer1
10
13.8195719
20
-10.7819012
11
13.8409694
21
-10.5990416
0
LINE
8
layer1
10
13.8409694
20
-10.5990416
11
13.8666566
21
-10.4381832
0
LINE
8
layer1
10
13.8666566
20
-10.4381832
11
13.8954889
21
-10.2959992
0
LINE
8
layer1
10
13.8954889
20
-10.2959992
11
13.9250995
21
-10.1760318
0
LINE
8
layer1
10
13.9250995
20
-10.1760318
11
13.9812934
21
-9.9957602
0
LINE
8
layer1
10
13.9812934
20
-9.9957602
11
14.0221978
21
-9.8942595
0
LINE
8
layer1
10
14.0221978
20
-9.8942595
11
14.1153019
21
-9.7347419
0
LINE
8
layer1
10
14.1153019
20
-9.7347419
11
14.1962513
21
-9.5737776
0
LINE
8
layer1
10
14.1962513
20
-9.5737776
11
14.2548543
21
-9.4237757
0
LINE
8
layer1
10
14.2548543
20
-9.4237757
11
14.2921991
21
-9.2862935
0
LINE
8
layer1
10
14.2921991
20
-9.2862935
11
14.3094629
21
-9.1628269
0
LINE
8
layer1
10
14.3094629
20
-9.1628269
11
14.3079007
21
-9.0547918
0
LINE
8
layer1
10
14.3079007
20
-9.0547918
11
14.30049
21
-9.0069882
0
LINE
8
layer1
10
14.30049
20
-9.0069882
11
14.2888812
21
-8.9635236
0
LINE
8
layer1
10
14.2888812
20
-8.9635236
11
14.27326
21
-8.9245701
0
LINE
8
layer1
10
14.27326
20
-8.9245701
11
14.2538037
21
-8.8902582
0
LINE
8
layer1
10
14.2538037
20
-8.8902582
11
14.230723
21
-8.8607406
0
LINE
8
layer1
10
14.230723
20
-8.8607406
11
14.182145
21
-8.8210176
0
LINE
8
layer1
10
14.182145
20
-8.8210176
11
13.7776266
21
-8.564137
0
LINE
8
layer1
10
13.7776266
20
-8.564137
11
13.3854974
21
-8.2887146
0
LINE
8
layer1
10
13.3854974
20
-8.2887146
11
13.3302081
21
-8.2590358
0
LINE
8
layer1
10
13.3302081
20
-8.2590358
11
13.2941049
21
-8.2490079
0
LINE
8
layer1
10
13.2941049
20
-8.2490079
11
13.2549592
21
-8.2441632
0
LINE
8
layer1
10
13.2549592
20
-8.2441632
11
13.2129928
21
-8.244638
0
LINE
8
layer1
10
13.2129928
20
-8.244638
11
13.1683942
21
-8.250546
0
LINE
8
layer1
10
13.1683942
20
-8.250546
11
13.1213936
21
-8.261993
0
LINE
8
layer1
10
13.1213936
20
-8.261993
11
13.0209843
21
-8.301893
0
LINE
8
layer1
10
13.0209843
20
-8.301893
11
12.9135227
21
-8.3650913
0
LINE
8
layer1
10
12.9135227
20
-8.3650913
11
12.8007968
21
-8.4522056
0
LINE
8
layer1
10
12.8007968
20
-8.4522056
11
12.6846396
21
-8.5637509
0
LINE
8
layer1
10
12.6846396
20
-8.5637509
11
12.566906
21
-8.7001368
0
LINE
8
layer1
10
12.566906
20
-8.7001368
11
12.4551603
21
-8.8471986
0
LINE
8
layer1
10
12.4551603
20
-8.8471986
11
12.3770393
21
-8.9238319
0
LINE
8
layer1
10
12.3770393
20
-8.9238319
11
12.2319945
21
-9.0447353
0
LINE
8
layer1
10
12.2319945
20
-9.0447353
11
12.1324906
21
-9.1180014
0
LINE
8
layer1
10
12.1324906
20
-9.1180014
11
12.0121634
21
-9.1990504
0
LINE
8
layer1
10
12.0121634
20
-9.1990504
11
11.8733797
21
-9.2843402
0
LINE
8
layer1
10
11.8733797
20
-9.2843402
11
11.7126279
21
-9.3740862
0
LINE
8
layer1
10
11.7126279
20
-9.3740862
11
11.5314891
21
-9.4655083
0
LINE
8
layer1
10
11.5314891
20
-9.4655083
11
11.3285944
21
-9.5574873
0
LINE
8
layer1
10
11.3285944
20
-9.5574873
11
11.1041065
21
-9.6481596
0
LINE
8
layer1
10
11.1041065
20
-9.6481596
11
10.8552113
21
-9.7367512
0
LINE
8
layer1
10
10.8552113
20
-9.7367512
11
10.58524
21
-9.8202563
0
LINE
8
layer1
10
10.58524
20
-9.8202563
11
10.31341
21
-9.8922035
0
ARC
8
layer1
10
19.5000229
20
0.0000229
40
13.5
50
222.8819331
51
227.1180669
0
LINE
8
layer1
10
9.6077965
20
-9.18659
11
9.6797437
21
-8.91476
0
LINE
8
layer1
10
9.6797437
20
-8.91476
11
9.7632488
21
-8.6447887
0
LINE
8
layer1
10
9.7632488
20
-8.6447887
11
9.8518404
21
-8.3958935
0
LINE
8
layer1
10
9.8518404
20
-8.3958935
11
9.9425127
21
-8.1714056
0
LINE
8
layer1
10
9.9425127
20
-8.1714056
11
10.0344917
21
-7.9685109
0
LINE
8
layer1
10
10.0344917
20
-7.9685109
11
10.1259138
21
-7.7873721
0
LINE
8
layer1
10
10.1259138
20
-7.7873721
11
10.2156598
21
-7.6266203
0
LINE
8
layer1
10
10.2156598
20
-7.6266203
11
10.3009496
21
-7.4878366
0
LINE
8
layer1
10
10.3009496
20
-7.4878366
11
10.3819986
21
-7.3675094
0
LINE
8
layer1
10
10.3819986
20
-7.3675094
11
10.4552647
21
-7.2680055
0
LINE
8
layer1
10
10.4552647
20
-7.2680055
11
10.5761681
21
-7.1229607
0
LINE
8
layer1
10
10.5761681
20
-7.1229607
11
10.6528014
21
-7.0448397
0
LINE
8
layer1
10
10.6528014
20
-7.0448397
11
10.7998632
21
-6.933094
0
LINE
8
layer1
10
10.7998632
20
-6.933094
11
10.9362491
21
-6.8153604
0
LINE
8
layer1
10
10.9362491
20
-6.8153604
11
11.0477944
21
-6.6992032
0
LINE
8
layer1
10
11.0477944
20
-6.6992032
11
11.1349087
21
-6.5864773
0
LINE
8
layer1
10
11.1349087
20
-6.5864773
11
11.198107
21
-6.4790157
0
LINE
8
layer1
10
11.198107
20
-6.4790157
11
11.238007
21
-6.3786064
0
LINE
8
layer1
10
11.238007
20
-6.3786064
11
11.249454
21
-6.3316058
0
LINE
8
layer1
10
11.249454
20
-6.3316058
11
11.255362
21
-6.2870072
0
LINE
8
layer1
10
11.255362
20
-6.2870072
11
11.2558368
21
-6.2450408
0
LINE
8
layer1
10
11.2558368
20
-6.2450408
11
11.2509921
21
-6.2058951
0
LINE
8
layer1
10
11.2509921
20
-6.2058951
11
11.2409642
21
-6.1697919
0
LINE
8
layer1
10
11.2409642
20
-6.1697919
11
11.2112854
21
-6.1145026
0
LINE
8
layer1
10
11.2112854
20
-6.1145026
11
10.935863
21
-5.7223734
0
LINE
8
layer1
10
10.935863
20
-5.7223734
11
10.6789824
21
-5.317855
0
LINE
8
layer1
10
10.6789824
20
-5.317855
11
10.6392594
21
-5.269277
0
LINE
8
layer1
10
10.6392594
20
-5.269277
11
10.6097418
21
-5.2461963
0
LINE
8
layer1
10
10.6097418
20
-5.2461963
11
10.5754299
21
-5.22674
0
LINE
8
layer1
10
10.5754299
20
-5.22674
11
10.5364764
21
-5.2111188
0
LINE
8
layer1
10
10.5364764
20
-5.2111188
11
10.4930118
21
-5.19951
0
LINE
8
layer1
10
10.4930118
20
-5.19951
11
10.4452082
21
-5.1920993
0
LINE
8
layer1
10
10.4452082
20
-5.1920993
11
10.3371731
21
-5.1905371
0
LINE
8
layer1
10
10.3371731
20
-5.1905371
11
10.2137065
21
-5.2078009
0
LINE
8
layer1
10
10.2137065
20
-5.2078009
11
10.0762243
21
-5.2451457
0
LINE
8
layer1
10
10.0762243
20
-5.2451457
11
9.9262224
21
-5.3037487
0
LINE
8
layer1
10
9.9262224
20
-5.3037487
11
9.7652581
21
-5.3846981
0
LINE
8
layer1
10
9.7652581
20
-5.3846981
11
9.6057405
21
-5.4778022
0
LINE
8
layer1
10
9.6057405
20
-5.4778022
11
9.5042398
21
-5.5187066
0
LINE
8
layer1
10
9.5042398
20
-5.5187066
11
9.3239682
21
-5.5749005
0
LINE
8
layer1
10
9.3239682
20
-5.5749005
11
9.2040008
21
-5.6045111
0
LINE
8
layer1
10
9.2040008
20
-5.6045111
11
9.0618168
21
-5.6333434
0
LINE
8
layer1
10
9.0618168
20
-5.6333434
11
8.9009584
21
-5.6590306
0
LINE
8
layer1
10
8.9009584
20
-5.6590306
11
8.7180988
21
-5.6804281
0
LINE
8
layer1
10
8.7180988
20
-5.6804281
11
8.5157627
21
-5.6955723
0
LINE
8
layer1
10
8.5157627
20
-5.6955723
11
8.2931135
21
-5.7029054
0
LINE
8
layer1
10
8.2931135
20
-5.7029054
11
8.0510151
21
-5.7007679
0
LINE
8
layer1
10
8.0510151
20
-5.7007679
11
7.7871633
21
-5.6873677
0
LINE
8
layer1
10
7.7871633
20
-5.6873677
11
7.5057863
21
-5.6612028
0
LINE
8
layer1
10
7.5057863
20
-5.6612028
11
7.2271151
21
-5.6236486
0
ARC
8
layer1
10
19.5000298
20
0.0000125
40
13.5
50
200.3819337
51
204.6180676
0
LINE
8
layer1
10
6.8452399
20
-4.7017201
11
7.0157352
21
-4.478115
0
LINE
8
layer1
10
7.0157352
20
-4.478115
11
7.1961975
21
-4.26065
0
LINE
8
layer1
10
7.1961975
20
-4.26065
11
7.3732935
21
-4.0646033
0
LINE
8
layer1
10
7.3732935
20
-4.0646033
11
7.5429715
21
-3.8919023
0
LINE
8
layer1
10
7.5429715
20
-3.8919023
11
7.7055935
21
-3.7396509
0
LINE
8
layer1
10
7.7055935
20
-3.7396509
11
7.8593753
21
-3.6072862
0
LINE
8
layer1
10
7.8593753
20
-3.6072862
11
8.0038069
21
-3.4931153
0
LINE
8
layer1
10
8.0038069
20
-3.4931153
11
8.1357146
21
-3.3975348
0
LINE
8
layer1
10
8.1357146
20
-3.3975348
11
8.2566413
21
-3.317383
0
LINE
8
layer1
10
8.2566413
20
-3.317383
11
8.3624089
21
-3.2534911
0
LINE
8
layer1
10
8.3624089
20
-3.2534911
11
8.5296153
21
-3.165755
0
LINE
8
layer1
10
8.5296153
20
-3.165755
11
8.6303109
21
-3.1229069
0
LINE
8
layer1
10
8.6303109
20
-3.1229069
11
8.8089415
21
-3.0759455
0
LINE
8
layer1
10
8.8089415
20
-3.0759455
11
8.9800003
21
-3.0193664
0
LINE
8
layer1
10
8.9800003
20
-3.0193664
11
9.1275062
21
-2.9547376
0
LINE
8
layer1
10
9.1275062
20
-2.9547376
11
9.2511276
21
-2.8839297
0
LINE
8
layer1
10
9.2511276
20
-2.8839297
11
9.350639
21
-2.808833
0
LINE
8
layer1
10
9.350639
20
-2.808833
11
9.4259267
21
-2.7313361
0
LINE
8
layer1
10
9.4259267
20
-2.7313361
11
9.4544888
21
-2.6922937
0
LINE
8
layer1
10
9.4544888
20
-2.6922937
11
9.4770142
21
-2.6533509
0
LINE
8
layer1
10
9.4770142
20
-2.6533509
11
9.4935127
21
-2.6147607
0
LINE
8
layer1
10
9.4935127
20
-2.6147607
11
9.5040172
21
-2.5767409
0
LINE
8
layer1
10
9.5040172
20
-2.5767409
11
9.5085687
21
-2.5395483
0
LINE
8
layer1
10
9.5085687
20
-2.5395483
11
9.5023073
21
-2.4771101
0
LINE
8
layer1
10
9.5023073
20
-2.4771101
11
9.3979116
21
-2.0094303
0
LINE
8
layer1
10
9.3979116
20
-2.0094303
11
9.3153874
21
-1.5374001
0
LINE
8
layer1
10
9.3153874
20
-1.5374001
11
9.2972781
21
-1.4773186
0
LINE
8
layer1
10
9.2972781
20
-1.4773186
11
9.27884
21
-1.4446989
0
LINE
8
layer1
10
9.27884
20
-1.4446989
11
9.2545855
21
-1.413593
0
LINE
8
layer1
10
9.2545855
20
-1.413593
11
9.2245752
21
-1.384254
0
LINE
8
layer1
10
9.2245752
20
-1.384254
11
9.1888616
21
-1.3568957
0
LINE
8
layer1
10
9.1888616
20
-1.3568957
11
9.1475328
21
-1.3317555
0
LINE
8
layer1
10
9.1475328
20
-1.3317555
11
9.0483193
21
-1.2889689
0
LINE
8
layer1
10
9.0483193
20
-1.2889689
11
8.9276444
21
-1.25767
0
LINE
8
layer1
10
8.9276444
20
-1.25767
11
8.7863361
21
-1.2395599
0
LINE
8
layer1
10
8.7863361
20
-1.2395599
11
8.6253261
21
-1.2362988
0
LINE
8
layer1
10
8.6253261
20
-1.2362988
11
8.4456365
21
-1.2494879
0
LINE
8
layer1
10
8.4456365
20
-1.2494879
11
8.262632
21
-1.2744601
0
LINE
8
layer1
10
8.262632
20
-1.2744601
11
8.1532041
21
-1.2734082
0
LINE
8
layer1
10
8.1532041
20
-1.2734082
11
7.9651504
21
-1.2563377
0
LINE
8
layer1
10
7.9651504
20
-1.2563377
11
7.8429835
21
-1.2377848
0
LINE
8
layer1
10
7.8429835
20
-1.2377848
11
7.700589
21
-1.2100109
0
LINE
8
layer1
10
7.700589
20
-1.2100109
11
7.5421451
21
-1.172185
0
LINE
8
layer1
10
7.5421451
20
-1.172185
11
7.3650164
21
-1.1219763
0
LINE
8
layer1
10
7.3650164
20
-1.1219763
11
7.1722868
21
-1.058537
0
LINE
8
layer1
10
7.1722868
20
-1.058537
11
6.9637796
21
-0.9801078
0
LINE
8
layer1
10
6.9637796
20
-0.9801078
11
6.7409277
21
-0.8854859
0
LINE
8
layer1
10
6.7409277
20
-0.8854859
11
6.5022885
21
-0.7721341
0
LINE
8
layer1
10
6.5022885
20
-0.7721341
11
6.2523429
21
-0.6402825
0
LINE
8
layer1
10
6.2523429
20
-0.6402825
11
6.0092557
21
-0.4989441
0
ARC
8
layer1
10
19.5000324
20
0
40
13.5
50
177.8819331
51
182.1180669
0
LINE
8
layer1
10
6.0092557
20
0.4989441
11
6.2523429
21
0.6402825
0
LINE
8
layer1
10
6.2523429
20
0.6402825
11
6.5022885
21
0.7721341
0
LINE
8
layer1
10
6.5022885
20
0.7721341
11
6.7409277
21
0.8854859
0
LINE
8
layer1
10
6.7409277
20
0.8854859
11
6.9637796
21
0.9801078
0
LINE
8
layer1
10
6.9637796
20
0.9801078
11
7.1722868
21
1.058537
0
LINE
8
layer1
10
7.1722868
20
1.058537
11
7.3650164
21
1.1219763
0
LINE
8
layer1
10
7.3650164
20
1.1219763
11
7.5421451
21
1.172185
0
LINE
8
layer1
10
7.5421451
20
1.172185
11
7.700589
21
1.2100109
0
LINE
8
layer1
10
7.700589
20
1.2100109
11
7.8429835
21
1.2377848
0
LINE
8
layer1
10
7.8429835
20
1.2377848
11
7.9651504
21
1.2563377
0
LINE
8
layer1
10
7.9651504
20
1.2563377
11
8.1532041
21
1.2734082
0
LINE
8
layer1
10
8.1532041
20
1.2734082
11
8.262632
21
1.2744601
0
LINE
8
layer1
10
8.262632
20
1.2744601
11
8.4456365
21
1.2494879
0
LINE
8
layer1
10
8.4456365
20
1.2494879
11
8.6253261
21
1.2362988
0
LINE
8
layer1
10
8.6253261
20
1.2362988
11
8.7863361
21
1.2395599
0
LINE
8
layer1
10
8.7863361
20
1.2395599
11
8.9276444
21
1.25767
0
LINE
8
layer1
10
8.9276444
20
1.25767
11
9.0483193
21
1.2889689
0
LINE
8
layer1
10
9.0483193
20
1.2889689
11
9.1475328
21
1.3317555
0
LINE
8
layer1
10
9.1475328
20
1.3317555
11
9.1888616
21
1.3568957
0
LINE
8
layer1
10
9.1888616
20
1.3568957
11
9.2245752
21
1.384254
0
LINE
8
layer1
10
9.2245752
20
1.384254
11
9.2545855
21
1.413593
0
LINE
8
layer1
10
9.2545855
20
1.413593
11
9.27884
21
1.4446989
0
LINE
8
layer1
10
9.27884
20
1.4446989
11
9.2972781
21
1.4773186
0
LINE
8
layer1
10
9.2972781
20
1.4773186
11
9.3153874
21
1.5374001
0
LINE
8
layer1
10
9.3153874
20
1.5374001
11
9.3979116
21
2.0094303
0
LINE
8
layer1
10
9.3979116
20
2.0094303
11
9.5023073
21
2.4771101
0
LINE
8
layer1
10
9.5023073
20
2.4771101
11
9.5085687
21
2.5395483
0
LINE
8
layer1
10
9.5085687
20
2.5395483
11
9.5040172
21
2.5767409
0
LINE
8
layer1
10
9.5040172
20
2.5767409
11
9.4935127
21
2.6147607
0
LINE
8
layer1
10
9.4935127
20
2.6147607
11
9.4770142
21
2.6533509
0
LINE
8
layer1
10
9.4770142
20
2.6533509
11
9.4544888
21
2.6922937
0
LINE
8
layer1
10
9.4544888
20
2.6922937
11
9.4259267
21
2.7313361
0
LINE
8
layer1
10
9.4259267
20
2.7313361
11
9.350639
21
2.808833
0
LINE
8
layer1
10
9.350639
20
2.808833
11
9.2511276
21
2.8839297
0
LINE
8
layer1
10
9.2511276
20
2.8839297
11
9.1275062
21
2.9547376
0
LINE
8
layer1
10
9.1275062
20
2.9547376
11
8.9800003
21
3.0193664
0
LINE
8
layer1
10
8.9800003
20
3.0193664
11
8.8089415
21
3.0759455
0
LINE
8
layer1
10
8.8089415
20
3.0759455
11
8.6303109
21
3.1229069
0
LINE
8
layer1
10
8.6303109
20
3.1229069
11
8.5296153
21
3.165755
0
LINE
8
layer1
10
8.5296153
20
3.165755
11
8.3624089
21
3.2534911
0
LINE
8
layer1
10
8.3624089
20
3.2534911
11
8.2566413
21
3.317383
0
LINE
8
layer1
10
8.2566413
20
3.317383
11
8.1357146
21
3.3975348
0
LINE
8
layer1
10
8.1357146
20
3.3975348
11
8.0038069
21
3.4931153
0
LINE
8
layer1
10
8.0038069
20
3.4931153
11
7.8593753
21
3.6072862
0
LINE
8
layer1
10
7.8593753
20
3.6072862
11
7.7055935
21
3.7396509
0
LINE
8
layer1
10
7.7055935
20
3.7396509
11
7.5429715
21
3.8919023
0
LINE
8
layer1
10
7.5429715
20
3.8919023
11
7.3732935
21
4.0646033
0
LINE
8
layer1
10
7.3732935
20
4.0646033
11
7.1961975
21
4.26065
0
LINE
8
layer1
10
7.1961975
20
4.26065
11
7.0157352
21
4.478115
0
LINE
8
layer1
10
7.0157352
20
4.478115
11
6.8452399
21
4.7017201
0
ARC
8
layer1
10
19.5000299
20
-0.0000125
40
13.5
50
155.3819324
51
159.6180663
0
LINE
8
layer1
10
7.2271151
20
5.6236486
11
7.5057863
21
5.6612028
0
LINE
8
layer1
10
7.5057863
20
5.6612028
11
7.7871633
21
5.6873677
0
LINE
8
layer1
10
7.7871633
20
5.6873677
11
8.0510151
21
5.7007679
0
LINE
8
layer1
10
8.0510151
20
5.7007679
11
8.2931135
21
5.7029054
0
LINE
8
layer1
10
8.2931135
20
5.7029054
11
8.5157627
21
5.6955723
0
LINE
8
layer1
10
8.5157627
20
5.6955723
11
8.7180988
21
5.6804281
0
LINE
8
layer1
10
8.7180988
20
5.6804281
11
8.9009584
21
5.6590306
0
LINE
8
layer1
10
8.9009584
20
5.6590306
11
9.0618168
21
5.6333434
0
LINE
8
layer1
10
9.0618168
20
5.6333434
11
9.2040008
21
5.6045111
0
LINE
8
layer1
10
9.2040008
20
5.6045111
11
9.3239682
21
5.5749005
0
LINE
8
layer1
10
9.3239682
20
5.5749005
11
9.5042398
21
5.5187066
0
LINE
8
layer1
10
9.5042398
20
5.5187066
11
9.6057405
21
5.4778022
0
LINE
8
layer1
10
9.6057405
20
5.4778022
11
9.7652581
21
5.3846981
0
LINE
8
layer1
10
9.7652581
20
5.3846981
11
9.9262224
21
5.3037487
0
LINE
8
layer1
10
9.9262224
20
5.3037487
11
10.0762243
21
5.2451457
0
LINE
8
layer1
10
10.0762243
20
5.2451457
11
10.2137065
21
5.2078009
0
LINE
8
layer1
10
10.2137065
20
5.2078009
11
10.3371731
21
5.1905371
0
LINE
8
layer1
10
10.3371731
20
5.1905371
11
10.4452082
21
5.1920993
0
LINE
8
layer1
10
10.4452082
20
5.1920993
11
10.4930118
21
5.19951
0
LINE
8
layer1
10
10.4930118
20
5.19951
11
10.5364764
21
5.2111188
0
LINE
8
layer1
10
10.5364764
20
5.2111188
11
10.5754299
21
5.22674
0
LINE
8
layer1
10
10.5754299
20
5.22674
11
10.6097418
21
5.2461963
0
LINE
8
layer1
10
10.6097418
20
5.2461963
11
10.6392594
21
5.269277
0
LINE
8
layer1
10
10.6392594
20
5.269277
11
10.6789824
21
5.317855
0
LINE
8
layer1
10
10.6789824
20
5.317855
11
10.935863
21
5.7223734
0
LINE
8
layer1
10
10.935863
20
5.7223734
11
11.2112854
21
6.1145026
0
LINE
8
layer1
10
11.2112854
20
6.1145026
11
11.2409642
21
6.1697919
0
LINE
8
layer1
10
11.2409642
20
6.1697919
11
11.2509921
21
6.2058951
0
LINE
8
layer1
10
11.2509921
20
6.2058951
11
11.2558368
21
6.2450408
0
LINE
8
layer1
10
11.2558368
20
6.2450408
11
11.255362
21
6.2870072
0
LINE
8
layer1
10
11.255362
20
6.2870072
11
11.249454
21
6.3316058
0
LINE
8
layer1
10
11.249454
20
6.3316058
11
11.238007
21
6.3786064
0
LINE
8
layer1
10
11.238007
20
6.3786064
11
11.198107
21
6.4790157
0
LINE
8
layer1
10
11.198107
20
6.4790157
11
11.1349087
21
6.5864773
0
LINE
8
layer1
10
11.1349087
20
6.5864773
11
11.0477944
21
6.6992032
0
LINE
8
layer1
10
11.0477944
20
6.6992032
11
10.9362491
21
6.8153604
0
LINE
8
layer1
10
10.9362491
20
6.8153604
11
10.7998632
21
6.933094
0
LINE
8
layer1
10
10.7998632
20
6.933094
11
10.6528014
21
7.0448397
0
LINE
8
layer1
10
10.6528014
20
7.0448397
11
10.5761681
21
7.1229607
0
LINE
8
layer1
10
10.5761681
20
7.1229607
11
10.4552647
21
7.2680055
0
LINE
8
layer1
10
10.4552647
20
7.2680055
11
10.3819986
21
7.3675094
0
LINE
8
layer1
10
10.3819986
20
7.3675094
11
10.3009496
21
7.4878366
0
LINE
8
layer1
10
10.3009496
20
7.4878366
11
10.2156598
21
7.6266203
0
LINE
8
layer1
10
10.2156598
20
7.6266203
11
10.1259138
21
7.7873721
0
LINE
8
layer1
10
10.1259138
20
7.7873721
11
10.0344917
21
7.9685109
0
LINE
8
layer1
10
10.0344917
20
7.9685109
11
9.9425127
21
8.1714056
0
LINE
8
layer1
10
9.9425127
20
8.1714056
11
9.8518404
21
8.3958935
0
LINE
8
layer1
10
9.8518404
20
8.3958935
11
9.7632488
21
8.6447887
0
LINE
8
layer1
10
9.7632488
20
8.6447887
11
9.6797437
21
8.91476
0
LINE
8
layer1
10
9.6797437
20
8.91476
11
9.6077965
21
9.18659
0
ARC
8
layer1
10
19.5000229
20
-0.0000229
40
13.5
50
132.8819331
51
137.1180669
0
LINE
8
layer1
10
10.31341
20
9.8922035
11
10.58524
21
9.8202563
0
LINE
8
layer1
10
10.58524
20
9.8202563
11
10.8552113
21
9.7367512
0
LINE
8
layer1
10
10.8552113
20
9.7367512
11
11.1041065
21
9.6481596
0
LINE
8
layer1
10
11.1041065
20
9.6481596
11
11.3285944
21
9.5574873
0
LINE
8
layer1
10
11.3285944
20
9.5574873
11
11.5314891
21
9.4655083
0
LINE
8
layer1
10
11.5314891
20
9.4655083
11
11.7126279
21
9.3740862
0
LINE
8
layer1
10
11.7126279
20
9.3740862
11
11.8733797
21
9.2843402
0
LINE
8
layer1
10
11.8733797
20
9.2843402
11
12.0121634
21
9.1990504
0
LINE
8
layer1
10
12.0121634
20
9.1990504
11
12.1324906
21
9.1180014
0
LINE
8
layer1
10
12.1324906
20
9.1180014
11
12.2319945
21
9.0447353
0
LINE
8
layer1
10
12.2319945
20
9.0447353
11
12.3770393
21
8.9238319
0
LINE
8
layer1
10
12.3770393
20
8.9238319
11
12.4551603
21
8.8471986
0
LINE
8
layer1
10
12.4551603
20
8.8471986
11
12.566906
21
8.7001368
0
LINE
8
layer1
10
12.566906
20
8.7001368
11
12.6846396
21
8.5637509
0
LINE
8
layer1
10
12.6846396
20
8.5637509
11
12.8007968
21
8.4522056
0
LINE
8
layer1
10
12.8007968
20
8.4522056
11
12.9135227
21
8.3650913
0
LINE
8
layer1
10
12.9135227
20
8.3650913
11
13.0209843
21
8.301893
0
LINE
8
layer1
10
13.0209843
20
8.301893
11
13.1213936
21
8.261993
0
LINE
8
layer1
10
13.1213936
20
8.261993
11
13.1683942
21
8.250546
0
LINE
8
layer1
10
13.1683942
20
8.250546
11
13.2129928
21
8.244638
0
LINE
8
layer1
10
13.2129928
20
8.244638
11
13.2549592
21
8.2441632
0
LINE
8
layer1
10
13.2549592
20
8.2441632
11
13.2941049
21
8.2490079
0
LINE
8
layer1
10
13.2941049
20
8.2490079
11
13.3302081
21
8.2590358
0
LINE
8
layer1
10
13.3302081
20
8.2590358
11
13.3854974
21
8.2887146
0
LINE
8
layer1
10
13.3854974
20
8.2887146
11
13.7776266
21
8.564137
0
LINE
8
layer1
10
13.7776266
20
8.564137
11
14.182145
21
8.8210176
0
LINE
8
layer1
10
14.182145
20
8.8210176
11
14.230723
21
8.8607406
0
LINE
8
layer1
10
14.230723
20
8.8607406
11
14.2538037
21
8.8902582
0
LINE
8
layer1
10
14.2538037
20
8.8902582
11
14.27326
21
8.9245701
0
LINE
8
layer1
10
14.27326
20
8.9245701
11
14.2888812
21
8.9635236
0
LINE
8
layer1
10
14.2888812
20
8.9635236
11
14.30049
21
9.0069882
0
LINE
8
layer1
10
14.30049
20
9.0069882
11
14.3079007
21
9.0547918
0
LINE
8
layer1
10
14.3079007
20
9.0547918
11
14.3094629
21
9.1628269
0
LINE
8
layer1
10
14.3094629
20
9.1628269
11
14.2921991
21
9.2862935
0
LINE
8
layer1
10
14.2921991
20
9.2862935
11
14.2548543
21
9.4237757
0
LINE
8
layer1
10
14.2548543
20
9.4237757
11
14.1962513
21
9.5737776
0
LINE
8
layer1
10
14.1962513
20
9.5737776
11
14.1153019
21
9.7347419
0
LINE
8
layer1
10
14.1153019
20
9.7347419
11
14.0221978
21
9.8942595
0
LINE
8
layer1
10
14.0221978
20
9.8942595
11
13.9812934
21
9.9957602
0
LINE
8
layer1
10
13.9812934
20
9.9957602
11
13.9250995
21
10.1760318
0
LINE
8
layer1
10
13.9250995
20
10.1760318
11
13.8954889
21
10.2959992
0
LINE
8
layer1
10
13.8954889
20
10.2959992
11
13.8666566
21
10.4381832
0
LINE
8
layer1
10
13.8666566
20
10.4381832
11
13.8409694
21
10.5990416
0
LINE
8
layer1
10
13.8409694
20
10.5990416
11
13.8195719
21
10.7819012
0
LINE
8
layer1
10
13.8195719
20
10.7819012
11
13.8044277
21
10.9842373
0
LINE
8
layer1
10
13.8044277
20
10.9842373
11
13.7970946
21
11.2068865
0
LINE
8
layer1
10
13.7970946
20
11.2068865
11
13.7992321
21
11.4489849
0
LINE
8
layer1
10
13.7992321
20
11.4489849
11
13.8126323
21
11.7128367
0
LINE
8
layer1
10
13.8126323
20
11.7128367
11
13.8387972
21
11.9942137
0
LINE
8
layer1
10
13.8387972
20
11.9942137
11
13.8763514
21
12.2728849
0
ARC
8
layer1
10
19.5000125
20
-0.0000298
40
13.5
50
110.3819337
51
114.6180676
0
LINE
8
layer1
10
14.7982799
20
12.6547601
11
15.021885
21
12.4842648
0
LINE
8
layer1
10
15.021885
20
12.4842648
11
15.23935
21
12.3038025
0
LINE
8
layer1
10
15.23935
20
12.3038025
11
15.4353967
21
12.1267065
0
LINE
8
layer1
10
15.4353967
20
12.1267065
11
15.6080977
21
11.9570285
0
LINE
8
layer1
10
15.6080977
20
11.9570285
11
15.7603491
21
11.7944065
0
LINE
8
layer1
10
15.7603491
20
11.7944065
11
15.8927138
21
11.6406247
0
LINE
8
layer1
10
15.8927138
20
11.6406247
11
16.0068847
21
11.4961931
0
LINE
8
layer1
10
16.0068847
20
11.4961931
11
16.1024652
21
11.3642854
0
LINE
8
layer1
10
16.1024652
20
11.3642854
11
16.182617
21
11.2433587
0
LINE
8
layer1
10
16.182617
20
11.2433587
11
16.2465089
21
11.1375911
0
LINE
8
layer1
10
16.2465089
20
11.1375911
11
16.334245
21
10.9703847
0
LINE
8
layer1
10
16.334245
20
10.9703847
11
16.3770931
21
10.8696891
0
LINE
8
layer1
10
16.3770931
20
10.8696891
11
16.4240545
21
10.6910585
0
LINE
8
layer1
10
16.4240545
20
10.6910585
11
16.4806336
21
10.5199997
0
LINE
8
layer1
10
16.4806336
20
10.5199997
11
16.5452624
21
10.3724938
0
LINE
8
layer1
10
16.5452624
20
10.3724938
11
16.6160703
21
10.2488724
0
LINE
8
layer1
10
16.6160703
20
10.2488724
11
16.691167
21
10.149361
0
LINE
8
layer1
10
16.691167
20
10.149361
11
16.7686639
21
10.0740733
0
LINE
8
layer1
10
16.7686639
20
10.0740733
11
16.8077063
21
10.0455112
0
LINE
8
layer1
10
16.8077063
20
10.0455112
11
16.8466491
21
10.0229858
0
LINE
8
layer1
10
16.8466491
20
10.0229858
11
16.8852393
21
10.0064873
0
LINE
8
layer1
10
16.8852393
20
10.0064873
11
16.9232591
21
9.9959828
0
LINE
8
layer1
10
16.9232591
20
9.9959828
11
16.9604517
21
9.9914313
0
LINE
8
layer1
10
16.9604517
20
9.9914313
11
17.0228899
21
9.9976927
0
LINE
8
layer1
10
17.0228899
20
9.9976927
11
17.4905697
21
10.1020884
0
LINE
8
layer1
10
17.4905697
20
10.1020884
11
17.9625999
21
10.1846126
0
LINE
8
layer1
10
17.9625999
20
10.1846126
11
18.0226814
21
10.2027219
0
LINE
8
layer1
10
18.0226814
20
10.2027219
11
18.0553011
21
10.22116
0
LINE
8
layer1
10
18.0553011
20
10.22116
11
18.086407
21
10.2454145
0
LINE
8
layer1
10
18.086407
20
10.2454145
11
18.115746
21
10.2754248
0
LINE
8
layer1
10
18.115746
20
10.2754248
11
18.1431043
21
10.3111384
0
LINE
8
layer1
10
18.1431043
20
10.3111384
11
18.1682445
21
10.3524672
0
LINE
8
layer1
10
18.1682445
20
10.3524672
11
18.2110311
21
10.4516807
0
LINE
8
layer1
10
18.2110311
20
10.4516807
11
18.24233
21
10.5723556
0
LINE
8
layer1
10
18.24233
20
10.5723556
11
18.2604401
21
10.7136639
0
LINE
8
layer1
10
18.2604401
20
10.7136639
11
18.2637012
21
10.8746739
0
LINE
8
layer1
10
18.2637012
20
10.8746739
11
18.2505121
21
11.0543635
0
LINE
8
layer1
10
18.2505121
20
11.0543635
11
18.2255399
21
11.237368
0
LINE
8
layer1
10
18.2255399
20
11.237368
11
18.2265918
21
11.3467959
0
LINE
8
layer1
10
18.2265918
20
11.3467959
11
18.2436623
21
11.5348496
0
LINE
8
layer1
10
18.2436623
20
11.5348496
11
18.2622152
21
11.6570165
0
LINE
8
layer1
10
18.2622152
20
11.6570165
11
18.2899891
21
11.799411
0
LINE
8
layer1
10
18.2899891
20
11.799411
11
18.327815
21
11.9578549
0
LINE
8
layer1
10
18.327815
20
11.9578549
11
18.3780237
21
12.1349836
0
LINE
8
layer1
10
18.3780237
20
12.1349836
11
18.441463
21
12.3277132
0
LINE
8
layer1
10
18.441463
20
12.3277132
11
18.5198922
21
12.5362204
0
LINE
8
layer1
10
18.5198922
20
12.5362204
11
18.6145141
21
12.7590723
0
LINE
8
layer1
10
18.6145141
20
12.7590723
11
18.7278659
21
12.9977115
0
LINE
8
layer1
10
18.7278659
20
12.9977115
11
18.8597175
21
13.2476571
0
LINE
8
layer1
10
18.8597175
20
13.2476571
11
19.0010559
21
13.4907443
0
ARC
8
layer1
10
19.5
20
-0.0000324
40
13.5
50
87.8819331
51
92.1180669
0
LINE
8
layer1
10
19.9989441
20
13.4907443
11
20.1402825
21
13.2476571
0
LINE
8
layer1
10
20.1402825
20
13.2476571
11
20.2721341
21
12.9977115
0
LINE
8
layer1
10
20.2721341
20
12.9977115
11
20.3854859
21
12.7590723
0
LINE
8
layer1
10
20.3854859
20
12.7590723
11
20.4801078
21
12.5362204
0
LINE
8
layer1
10
20.4801078
20
12.5362204
11
20.558537
21
12.3277132
0
LINE
8
layer1
10
20.558537
20
12.3277132
11
20.6219763
21
12.1349836
0
LINE
8
layer1
10
20.6219763
20
12.1349836
11
20.672185
21
11.9578549
0
LINE
8
layer1
10
20.672185
20
11.9578549
11
20.7100109
21
11.799411
0
LINE
8
layer1
10
20.7100109
20
11.799411
11
20.7377848
21
11.6570165
0
LINE
8
layer1
10
20.7377848
20
11.6570165
11
20.7563377
21
11.5348496
0
LINE
8
layer1
10
20.7563377
20
11.5348496
11
20.7734082
21
11.3467959
0
LINE
8
layer1
10
20.7734082
20
11.3467959
11
20.7744601
21
11.237368
0
LINE
8
layer1
10
20.7744601
20
11.237368
11
20.7494879
21
11.0543635
0
LINE
8
layer1
10
20.7494879
20
11.0543635
11
20.7362988
21
10.8746739
0
LINE
8
layer1
10
20.7362988
20
10.8746739
11
20.7395599
21
10.7136639
0
LINE
8
layer1
10
20.7395599
20
10.7136639
11
20.75767
21
10.5723556
0
LINE
8
layer1
10
20.75767
20
10.5723556
11
20.7889689
21
10.4516807
0
LINE
8
layer1
10
20.7889689
20
10.4516807
11
20.8317555
21
10.3524672
0
LINE
8
layer1
10
20.8317555
20
10.3524672
11
20.8568957
21
10.3111384
0
LINE
8
layer1
10
20.8568957
20
10.3111384
11
20.884254
21
10.2754248
0
LINE
8
layer1
10
20.884254
20
10.2754248
11
20.913593
21
10.2454145
0
LINE
8
layer1
10
20.913593
20
10.2454145
11
20.9446989
21
10.22116
0
LINE
8
layer1
10
20.9446989
20
10.22116
11
20.9773186
21
10.2027219
0
LINE
8
layer1
10
20.9773186
20
10.2027219
11
21.0374001
21
10.1846126
0
LINE
8
layer1
10
21.0374001
20
10.1846126
11
21.5094303
21
10.1020884
0
LINE
8
layer1
10
21.5094303
20
10.1020884
11
21.9771101
21
9.9976927
0
LINE
8
layer1
10
21.9771101
20
9.9976927
11
22.0395483
21
9.9914313
0
LINE
8
layer1
10
22.0395483
20
9.9914313
11
22.0767409
21
9.9959828
0
LINE
8
layer1
10
22.0767409
20
9.9959828
11
22.1147607
21
10.0064873
0
LINE
8
layer1
10
22.1147607
20
10.0064873
11
22.1533509
21
10.0229858
0
LINE
8
layer1
10
22.1533509
20
10.0229858
11
22.1922937
21
10.0455112
0
LINE
8
layer1
10
22.1922937
20
10.0455112
11
22.2313361
21
10.0740733
0
LINE
8
layer1
10
22.2313361
20
10.0740733
11
22.308833
21
10.149361
0
LINE
8
layer1
10
22.308833
20
10.149361
11
22.3839297
21
10.2488724
0
LINE
8
layer1
10
22.3839297
20
10.2488724
11
22.4547376
21
10.3724938
0
LINE
8
layer1
10
22.4547376
20
10.3724938
11
22.5193664
21
10.5199997
0
LINE
8
layer1
10
22.5193664
20
10.5199997
11
22.5759455
21
10.6910585
0
LINE
8
layer1
10
22.5759455
20
10.6910585
11
22.6229069
21
10.8696891
0
LINE
8
layer1
10
22.6229069
20
10.8696891
11
22.665755
21
10.9703847
0
LINE
8
layer1
10
22.665755
20
10.9703847
11
22.7534911
21
11.1375911
0
LINE
8
layer1
10
22.7534911
20
11.1375911
11
22.817383
21
11.2433587
0
LINE
8
layer1
10
22.817383
20
11.2433587
11
22.8975348
21
11.3642854
0
LINE
8
layer1
10
22.8975348
20
11.3642854
11
22.9931153
21
11.4961931
0
LINE
8
layer1
10
22.9931153
20
11.4961931
11
23.1072862
21
11.6406247
0
LINE
8
layer1
10
23.1072862
20
11.6406247
11
23.2396509
21
11.7944065
0
LINE
8
layer1
10
23.2396509
20
11.7944065
11
23.3919023
21
11.9570285
0
LINE
8
layer1
10
23.3919023
20
11.9570285
11
23.5646033
21
12.1267065
0
LINE
8
layer1
10
23.5646033
20
12.1267065
11
23.76065
21
12.3038025
0
LINE
8
layer1
10
23.76065
20
12.3038025
11
23.978115
21
12.4842648
0
LINE
8
layer1
10
23.978115
20
12.4842648
11
24.2017201
21
12.6547601
0
ARC
8
layer1
10
19.4999875
20
-0.0000299
40
13.5
50
65.3819324
51
69.6180663
0
LINE
8
layer1
10
25.1236486
20
12.2728849
11
25.1612028
21
11.9942137
0
LINE
8
layer1
10
25.1612028
20
11.9942137
11
25.1873677
21
11.7128367
0
LINE
8
layer1
10
25.1873677
20
11.7128367
11
25.2007679
21
11.4489849
0
LINE
8
layer1
10
25.2007679
20
11.4489849
11
25.2029054
21
11.2068865
0
LINE
8
layer1
10
25.2029054
20
11.2068865
11
25.1955723
21
10.9842373
0
LINE
8
layer1
10
25.1955723
20
10.9842373
11
25.1804281
21
10.7819012
0
LINE
8
layer1
10
25.1804281
20
10.7819012
11
25.1590306
21
10.5990416
0
LINE
8
layer1
10
25.1590306
20
10.5990416
11
25.1333434
21
10.4381832
0
LINE
8
layer1
10
25.1333434
20
10.4381832
11
25.1045111
21
10.2959992
0
LINE
8
layer1
10
25.1045111
20
10.2959992
11
25.0749005
21
10.1760318
0
LINE
8
layer1
10
25.0749005
20
10.1760318
11
25.0187066
21
9.9957602
0
LINE
8
layer1
10
25.0187066
20
9.9957602
11
24.9778022
21
9.8942595
0
LINE
8
layer1
10
24.9778022
20
9.8942595
11
24.8846981
21
9.7347419
0
LINE
8
layer1
10
24.8846981
20
9.7347419
11
24.8037487
21
9.5737776
0
LINE
8
layer1
10
24.8037487
20
9.5737776
11
24.7451457
21
9.4237757
0
LINE
8
layer1
10
24.7451457
20
9.4237757
11
24.7078009
21
9.2862935
0
LINE
8
layer1
10
24.7078009
20
9.2862935
11
24.6905371
21
9.1628269
0
LINE
8
layer1
10
24.6905371
20
9.1628269
11
24.6920993
21
9.0547918
0
LINE
8
layer1
10
24.6920993
20
9.0547918
11
24.69951
21
9.0069882
0
LINE
8
layer1
10
24.69951
20
9.0069882
11
24.7111188
21
8.9635236
0
LINE
8
layer1
10
24.7111188
20
8.9635236
11
24.72674
21
8.9245701
0
LINE
8
layer1
10
24.72674
20
8.9245701
11
24.7461963
21
8.8902582
0
LINE
8
layer1
10
24.7461963
20
8.8902582
11
24.769277
21
8.8607406
0
LINE
8
layer1
10
24.769277
20
8.8607406
11
24.817855
21
8.8210176
0
LINE
8
layer1
10
24.817855
20
8.8210176
11
25.2223734
21
8.564137
0
LINE
8
layer1
10
25.2223734
20
8.564137
11
25.6145026
21
8.2887146
0
LINE
8
layer1
10
25.6145026
20
8.2887146
11
25.6697919
21
8.2590358
0
LINE
8
layer1
10
25.6697919
20
8.2590358
11
25.7058951
21
8.2490079
0
LINE
8
layer1
10
25.7058951
20
8.2490079
11
25.7450408
21
8.2441632
0
LINE
8
layer1
10
25.7450408
20
8.2441632
11
25.7870072
21
8.244638
0
LINE
8
layer1
10
25.7870072
20
8.244638
11
25.8316058
21
8.250546
0
LINE
8
layer1
10
25.8316058
20
8.250546
11
25.8786064
21
8.261993
0
LINE
8
layer1
10
25.8786064
20
8.261993
11
25.9790157
21
8.301893
0
LINE
8
layer1
10
25.9790157
20
8.301893
11
26.0864773
21
8.3650913
0
LINE
8
layer1
10
26.0864773
20
8.3650913
11
26.1992032
21
8.4522056
0
LINE
8
layer1
10
26.1992032
20
8.4522056
11
26.3153604
21
8.5637509
0
LINE
8
layer1
10
26.3153604
20
8.5637509
11
26.433094
21
8.7001368
0
LINE
8
layer1
10
26.433094
20
8.7001368
11
26.5448397
21
8.8471986
0
LINE
8
layer1
10
26.5448397
20
8.8471986
11
26.6229607
21
8.9238319
0
LINE
8
layer1
10
26.6229607
20
8.9238319
11
26.7680055
21
9.0447353
0
LINE
8
layer1
10
26.7680055
20
9.0447353
11
26.8675094
21
9.1180014
0
LINE
8
layer1
10
26.8675094
20
9.1180014
11
26.9878366
21
9.1990504
0
LINE
8
layer1
10
26.9878366
20
9.1990504
11
27.1266203
21
9.2843402
0
LINE
8
layer1
10
27.1266203
20
9.2843402
11
27.2873721
21
9.3740862
0
LINE
8
layer1
10
27.2873721
20
9.3740862
11
27.4685109
21
9.4655083
0
LINE
8
layer1
10
27.4685109
20
9.4655083
11
27.6714056
21
9.5574873
0
LINE
8
layer1
10
27.6714056
20
9.5574873
11
27.8958935
21
9.6481596
0
LINE
8
layer1
10
27.8958935
20
9.6481596
11
28.1447887
21
9.7367512
0
LINE
8
layer1
10
28.1447887
20
9.7367512
11
28.41476
21
9.8202563
0
LINE
8
layer1
10
28.41476
20
9.8202563
11
28.68659
21
9.8922035
0
ARC
8
layer1
10
19.4999771
20
-0.0000229
40
13.5
50
42.8819331
51
47.1180669
0
LINE
8
layer1
10
29.3922035
20
9.18659
11
29.3202563
21
8.91476
0
LINE
8
layer1
10
29.3202563
20
8.91476
11
29.2367512
21
8.6447887
0
LINE
8
layer1
10
29.2367512
20
8.6447887
11
29.1481596
21
8.3958935
0
LINE
8
layer1
10
29.1481596
20
8.3958935
11
29.0574873
21
8.1714056
0
LINE
8
layer1
10
29.0574873
20
8.1714056
11
28.9655083
21
7.9685109
0
LINE
8
layer1
10
28.9655083
20
7.9685109
11
28.8740862
21
7.7873721
0
LINE
8
layer1
10
28.8740862
20
7.7873721
11
28.7843402
21
7.6266203
0
LINE
8
layer1
10
28.7843402
20
7.6266203
11
28.6990504
21
7.4878366
0
LINE
8
layer1
10
28.6990504
20
7.4878366
11
28.6180014
21
7.3675094
0
LINE
8
layer1
10
28.6180014
20
7.3675094
11
28.5447353
21
7.2680055
0
LINE
8
layer1
10
28.5447353
20
7.2680055
11
28.4238319
21
7.1229607
0
LINE
8
layer1
10
28.4238319
20
7.1229607
11
28.3471986
21
7.0448397
0
LINE
8
layer1
10
28.3471986
20
7.0448397
11
28.2001368
21
6.933094
0
LINE
8
layer1
10
28.2001368
20
6.933094
11
28.0637509
21
6.8153604
0
LINE
8
layer1
10
28.0637509
20
6.8153604
11
27.9522056
21
6.6992032
0
LINE
8
layer1
10
27.9522056
20
6.6992032
11
27.8650913
21
6.5864773
0
LINE
8
layer1
10
27.8650913
20
6.5864773
11
27.801893
21
6.4790157
0
LINE
8
layer1
10
27.801893
20
6.4790157
11
27.761993
21
6.3786064
0
LINE
8
layer1
10
27.761993
20
6.3786064
11
27.750546
21
6.3316058
0
LINE
8
layer1
10
27.750546
20
6.3316058
11
27.744638
21
6.2870072
0
LINE
8
layer1
10
27.744638
20
6.2870072
11
27.7441632
21
6.2450408
0
LINE
8
layer1
10
27.7441632
20
6.2450408
11
27.7490079
21
6.2058951
0
LINE
8
layer1
10
27.7490079
20
6.2058951
11
27.7590358
21
6.1697919
0
LINE
8
layer1
10
27.7590358
20
6.1697919
11
27.7887146
21
6.1145026
0
LINE
8
layer1
10
27.7887146
20
6.1145026
11
28.064137
21
5.7223734
0
LINE
8
layer1
10
28.064137
20
5.7223734
11
28.3210176
21
5.317855
0
LINE
8
layer1
10
28.3210176
20
5.317855
11
28.3607406
21
5.269277
0
LINE
8
layer1
10
28.3607406
20
5.269277
11
28.3902582
21
5.2461963
0
LINE
8
layer1
10
28.3902582
20
5.2461963
11
28.4245701
21
5.22674
0
LINE
8
layer1
10
28.4245701
20
5.22674
11
28.4635236
21
5.2111188
0
LINE
8
layer1
10
28.4635236
20
5.2111188
11
28.5069882
21
5.19951
0
LINE
8
layer1
10
28.5069882
20
5.19951
11
28.5547918
21
5.1920993
0
LINE
8
layer1
10
28.5547918
20
5.1920993
11
28.6628269
21
5.1905371
0
LINE
8
layer1
10
28.6628269
20
5.1905371
11
28.7862935
21
5.2078009
0
LINE
8
layer1
10
28.7862935
20
5.2078009
11
28.9237757
21
5.2451457
0
LINE
8
layer1
10
28.9237757
20
5.2451457
11
29.0737776
21
5.3037487
0
LINE
8
layer1
10
29.0737776
20
5.3037487
11
29.2347419
21
5.3846981
0
LINE
8
layer1
10
29.2347419
20
5.3846981
11
29.3942595
21
5.4778022
0
LINE
8
layer1
10
29.3942595
20
5.4778022
11
29.4957602
21
5.5187066
0
LINE
8
layer1
10
29.4957602
20
5.5187066
11
29.6760318
21
5.5749005
0
LINE
8
layer1
10
29.6760318
20
5.5749005
11
29.7959992
21
5.6045111
0
LINE
8
layer1
10
29.7959992
20
5.6045111
11
29.9381832
21
5.6333434
0
LINE
8
layer1
10
29.9381832
20
5.6333434
11
30.0990416
21
5.6590306
0
LINE
8
layer1
10
30.0990416
20
5.6590306
11
30.2819012
21
5.6804281
0
LINE
8
layer1
10
30.2819012
20
5.6804281
11
30.4842373
21
5.6955723
0
LINE
8
layer1
10
30.4842373
20
5.6955723
11
30.7068865
21
5.7029054
0
LINE
8
layer1
10
30.7068865
20
5.7029054
11
30.9489849
21
5.7007679
0
LINE
8
layer1
10
30.9489849
20
5.7007679
11
31.2128367
21
5.6873677
0
LINE
8
layer1
10
31.2128367
20
5.6873677
11
31.4942137
21
5.6612028
0
LINE
8
layer1
10
31.4942137
20
5.6612028
11
31.7728849
21
5.6236486
0
ARC
8
layer1
10
19.4999702
20
-0.0000125
40
13.5
50
20.3819337
51
24.6180676
0
LINE
8
layer1
10
32.1547601
20
4.7017201
11
31.9842648
21
4.478115
0
ENDSEC
0
EOF