999
"DXF R12 Output" (www.mydxf.blogspot.com)
 0 
SECTION
 2 
HEADER
 9 
$ACADVER
 1 
AC1009
 9 
$EXTMIN
 10 
 0 
 20 
 0 
 9 
$EXTMAX
 10 
 8.5 
 20 
 11 
 0 
ENDSEC
 0 
SECTION
 2 
ENTITIES
0
LINE
8
Layer 1
10
0.846666
20
70.462300
11
-0.846666
21
68.768900
0
LINE
8
Layer 1
10
0.000000
20
71.026700
11
0.000000
21
68.204500
0
LINE
8
Layer 1
10
2.257780
20
68.486700
11
1.128890
21
67.357810
0
LINE
8
Layer 1
10
1.693330
20
69.051200
11
0.564440
21
67.922310
0
LINE
8
Layer 1
10
1.128890
20
69.615600
11
0.000000
21
68.486710
0
LINE
8
OUTLINE
10
-38.560000
20
-230.117000
11
-38.738632
21
-229.450335
0
LINE
8
OUTLINE
10
-38.738632
20
-229.450335
11
-39.226665
21
-228.962302
0
LINE
8
OUTLINE
10
-39.226665
20
-228.962302
11
-39.893330
21
-228.783670
0
LINE
8
OUTLINE
10
-39.893330
20
-228.783670
11
-40.559995
21
-228.962302
0
LINE
8
OUTLINE
10
-40.559995
20
-228.962302
11
-41.048028
21
-229.450335
0
LINE
8
OUTLINE
10
-41.048028
20
-229.450335
11
-41.226660
21
-230.117000
0
LINE
8
OUTLINE
10
-41.226660
20
-230.117000
11
-41.048028
21
-230.783665
0
LINE
8
OUTLINE
10
-41.048028
20
-230.783665
11
-40.559995
21
-231.271698
0
LINE
8
OUTLINE
10
-40.559995
20
-231.271698
11
-39.893330
21
-231.450330
0
LINE
8
OUTLINE
10
-39.893330
20
-231.450330
11
-39.226665
21
-231.271698
0
LINE
8
OUTLINE
10
-39.226665
20
-231.271698
11
-38.738632
21
-230.783665
0
LINE
8
OUTLINE
10
-38.738632
20
-230.783665
11
-38.560000
21
-230.117000
0
LINE
8
OUTLINE
10
-38.560000
20
-230.117000
11
-38.560000
21
-230.117000
0
LINE
8
OUTLINE
10
-38.560000
20
-263.184000
11
-38.738632
21
-262.517335
0
LINE
8
OUTLINE
10
-38.738632
20
-262.517335
11
-39.226665
21
-262.029302
0
LINE
8
OUTLINE
10
-39.226665
20
-262.029302
11
-39.893330
21
-261.850670
0
LINE
8
OUTLINE
10
-39.893330
20
-261.850670
11
-40.559995
21
-262.029302
0
LINE
8
OUTLINE
10
-40.559995
20
-262.029302
11
-41.048028
21
-262.517335
0
LINE
8
OUTLINE
10
-41.048028
20
-262.517335
11
-41.226660
21
-263.184000
0
LINE
8
OUTLINE
10
-41.226660
20
-263.184000
11
-41.048028
21
-263.850665
0
LINE
8
OUTLINE
10
-41.048028
20
-263.850665
11
-40.559995
21
-264.338698
0
LINE
8
OUTLINE
10
-40.559995
20
-264.338698
11
-39.893330
21
-264.517330
0
LINE
8
OUTLINE
10
-39.893330
20
-264.517330
11
-39.226665
21
-264.338698
0
LINE
8
OUTLINE
10
-39.226665
20
-264.338698
11
-38.738632
21
-263.850665
0
LINE
8
OUTLINE
10
-38.738632
20
-263.850665
11
-38.560000
21
-263.184000
0
LINE
8
OUTLINE
10
-38.560000
20
-263.184000
11
-38.560000
21
-263.184000
0
LINE
8
OUTLINE
10
41.440000
20
-230.117000
11
41.261368
21
-229.450335
0
LINE
8
OUTLINE
10
41.261368
20
-229.450335
11
40.773335
21
-228.962302
0
LINE
8
OUTLINE
10
40.773335
20
-228.962302
11
40.106670
21
-228.783670
0
LINE
8
OUTLINE
10
40.106670
20
-228.783670
11
39.440005
21
-228.962302
0
LINE
8
OUTLINE
10
39.440005
20
-228.962302
11
38.951972
21
-229.450335
0
LINE
8
OUTLINE
10
38.951972
20
-229.450335
11
38.773340
21
-230.117000
0
LINE
8
OUTLINE
10
38.773340
20
-230.117000
11
38.951972
21
-230.783665
0
LINE
8
OUTLINE
10
38.951972
20
-230.783665
11
39.440005
21
-231.271698
0
LINE
8
OUTLINE
10
39.440005
20
-231.271698
11
40.106670
21
-231.450330
0
LINE
8
OUTLINE
10
40.106670
20
-231.450330
11
40.773335
21
-231.271698
0
LINE
8
OUTLINE
10
40.773335
20
-231.271698
11
41.261368
21
-230.783665
0
LINE
8
OUTLINE
10
41.261368
20
-230.783665
11
41.440000
21
-230.117000
0
LINE
8
OUTLINE
10
41.440000
20
-230.117000
11
41.440000
21
-230.117000
0
LINE
8
OUTLINE
10
41.440000
20
-263.184000
11
41.261368
21
-262.517335
0
LINE
8
OUTLINE
10
41.261368
20
-262.517335
11
40.773335
21
-262.029302
0
LINE
8
OUTLINE
10
40.773335
20
-262.029302
11
40.106670
21
-261.850670
0
LINE
8
OUTLINE
10
40.106670
20
-261.850670
11
39.440005
21
-262.029302
0
LINE
8
OUTLINE
10
39.440005
20
-262.029302
11
38.951972
21
-262.517335
0
LINE
8
OUTLINE
10
38.951972
20
-262.517335
11
38.773340
21
-263.184000
0
LINE
8
OUTLINE
10
38.773340
20
-263.184000
11
38.951972
21
-263.850665
0
LINE
8
OUTLINE
10
38.951972
20
-263.850665
11
39.440005
21
-264.338698
0
LINE
8
OUTLINE
10
39.440005
20
-264.338698
11
40.106670
21
-264.517330
0
LINE
8
OUTLINE
10
40.106670
20
-264.517330
11
40.773335
21
-264.338698
0
LINE
8
OUTLINE
10
40.773335
20
-264.338698
11
41.261368
21
-263.850665
0
LINE
8
OUTLINE
10
41.261368
20
-263.850665
11
41.440000
21
-263.184000
0
LINE
8
OUTLINE
10
41.440000
20
-263.184000
11
41.440000
21
-263.184000
0
LINE
8
OUTLINE
10
51.280000
20
-217.984000
11
51.054923
21
-217.144000
0
LINE
8
OUTLINE
10
51.054923
20
-217.144000
11
50.440000
21
-216.529077
0
LINE
8
OUTLINE
10
50.440000
20
-216.529077
11
49.600000
21
-216.304000
0
LINE
8
OUTLINE
10
49.600000
20
-216.304000
11
48.760000
21
-216.529077
0
LINE
8
OUTLINE
10
48.760000
20
-216.529077
11
48.145077
21
-217.144000
0
LINE
8
OUTLINE
10
48.145077
20
-217.144000
11
47.920000
21
-217.984000
0
LINE
8
OUTLINE
10
47.920000
20
-217.984000
11
48.145077
21
-218.824000
0
LINE
8
OUTLINE
10
48.145077
20
-218.824000
11
48.760000
21
-219.438923
0
LINE
8
OUTLINE
10
48.760000
20
-219.438923
11
49.600000
21
-219.664000
0
LINE
8
OUTLINE
10
49.600000
20
-219.664000
11
50.440000
21
-219.438923
0
LINE
8
OUTLINE
10
50.440000
20
-219.438923
11
51.054923
21
-218.824000
0
LINE
8
OUTLINE
10
51.054923
20
-218.824000
11
51.280000
21
-217.984000
0
LINE
8
OUTLINE
10
51.280000
20
-217.984000
11
51.280000
21
-217.984000
0
LINE
8
OUTLINE
10
51.280000
20
-276.384000
11
51.054923
21
-275.544000
0
LINE
8
OUTLINE
10
51.054923
20
-275.544000
11
50.440000
21
-274.929077
0
LINE
8
OUTLINE
10
50.440000
20
-274.929077
11
49.600000
21
-274.704000
0
LINE
8
OUTLINE
10
49.600000
20
-274.704000
11
48.760000
21
-274.929077
0
LINE
8
OUTLINE
10
48.760000
20
-274.929077
11
48.145077
21
-275.544000
0
LINE
8
OUTLINE
10
48.145077
20
-275.544000
11
47.920000
21
-276.384000
0
LINE
8
OUTLINE
10
47.920000
20
-276.384000
11
48.145077
21
-277.224000
0
LINE
8
OUTLINE
10
48.145077
20
-277.224000
11
48.760000
21
-277.838923
0
LINE
8
OUTLINE
10
48.760000
20
-277.838923
11
49.600000
21
-278.064000
0
LINE
8
OUTLINE
10
49.600000
20
-278.064000
11
50.440000
21
-277.838923
0
LINE
8
OUTLINE
10
50.440000
20
-277.838923
11
51.054923
21
-277.224000
0
LINE
8
OUTLINE
10
51.054923
20
-277.224000
11
51.280000
21
-276.384000
0
LINE
8
OUTLINE
10
51.280000
20
-276.384000
11
51.280000
21
-276.384000
0
LINE
8
OUTLINE
10
-47.920000
20
-217.984000
11
-48.145077
21
-217.144000
0
LINE
8
OUTLINE
10
-48.145077
20
-217.144000
11
-48.760000
21
-216.529077
0
LINE
8
OUTLINE
10
-48.760000
20
-216.529077
11
-49.600000
21
-216.304000
0
LINE
8
OUTLINE
10
-49.600000
20
-216.304000
11
-50.440000
21
-216.529077
0
LINE
8
OUTLINE
10
-50.440000
20
-216.529077
11
-51.054923
21
-217.144000
0
LINE
8
OUTLINE
10
-51.054923
20
-217.144000
11
-51.280000
21
-217.984000
0
LINE
8
OUTLINE
10
-51.280000
20
-217.984000
11
-51.054923
21
-218.824000
0
LINE
8
OUTLINE
10
-51.054923
20
-218.824000
11
-50.440000
21
-219.438923
0
LINE
8
OUTLINE
10
-50.440000
20
-219.438923
11
-49.600000
21
-219.664000
0
LINE
8
OUTLINE
10
-49.600000
20
-219.664000
11
-48.760000
21
-219.438923
0
LINE
8
OUTLINE
10
-48.760000
20
-219.438923
11
-48.145077
21
-218.824000
0
LINE
8
OUTLINE
10
-48.145077
20
-218.824000
11
-47.920000
21
-217.984000
0
LINE
8
OUTLINE
10
-47.920000
20
-217.984000
11
-47.920000
21
-217.984000
0
LINE
8
OUTLINE
10
-47.920000
20
-276.384000
11
-48.145077
21
-275.544000
0
LINE
8
OUTLINE
10
-48.145077
20
-275.544000
11
-48.760000
21
-274.929077
0
LINE
8
OUTLINE
10
-48.760000
20
-274.929077
11
-49.600000
21
-274.704000
0
LINE
8
OUTLINE
10
-49.600000
20
-274.704000
11
-50.440000
21
-274.929077
0
LINE
8
OUTLINE
10
-50.440000
20
-274.929077
11
-51.054923
21
-275.544000
0
LINE
8
OUTLINE
10
-51.054923
20
-275.544000
11
-51.280000
21
-276.384000
0
LINE
8
OUTLINE
10
-51.280000
20
-276.384000
11
-51.054923
21
-277.224000
0
LINE
8
OUTLINE
10
-51.054923
20
-277.224000
11
-50.440000
21
-277.838923
0
LINE
8
OUTLINE
10
-50.440000
20
-277.838923
11
-49.600000
21
-278.064000
0
LINE
8
OUTLINE
10
-49.600000
20
-278.064000
11
-48.760000
21
-277.838923
0
LINE
8
OUTLINE
10
-48.760000
20
-277.838923
11
-48.145077
21
-277.224000
0
LINE
8
OUTLINE
10
-48.145077
20
-277.224000
11
-47.920000
21
-276.384000
0
LINE
8
OUTLINE
10
-47.920000
20
-276.384000
11
-47.920000
21
-276.384000
0
LINE
8
OUTLINE
10
69.066600
20
-247.184000
11
68.929509
21
-246.139069
0
LINE
8
OUTLINE
10
68.929509
20
-246.139069
11
68.532813
21
-245.181328
0
LINE
8
OUTLINE
10
68.532813
20
-245.181328
11
67.903468
21
-244.357580
0
LINE
8
OUTLINE
10
67.903468
20
-244.357580
11
67.068430
21
-243.714628
0
LINE
8
OUTLINE
10
67.068430
20
-243.714628
11
66.094523
21
-243.311914
0
LINE
8
OUTLINE
10
66.094523
20
-243.311914
11
65.066605
21
-243.177675
0
LINE
8
OUTLINE
10
65.066605
20
-243.177675
11
64.038687
21
-243.311914
0
LINE
8
OUTLINE
10
64.038687
20
-243.311914
11
63.064780
21
-243.714628
0
LINE
8
OUTLINE
10
63.064780
20
-243.714628
11
62.229742
21
-244.357580
0
LINE
8
OUTLINE
10
62.229742
20
-244.357580
11
61.600397
21
-245.181328
0
LINE
8
OUTLINE
10
61.600397
20
-245.181328
11
61.203701
21
-246.139069
0
LINE
8
OUTLINE
10
61.203701
20
-246.139069
11
61.066610
21
-247.184000
0
LINE
8
OUTLINE
10
61.066610
20
-247.184000
11
61.203701
21
-248.228931
0
LINE
8
OUTLINE
10
61.203701
20
-248.228931
11
61.600397
21
-249.186672
0
LINE
8
OUTLINE
10
61.600397
20
-249.186672
11
62.229742
21
-250.010420
0
LINE
8
OUTLINE
10
62.229742
20
-250.010420
11
63.064780
21
-250.653372
0
LINE
8
OUTLINE
10
63.064780
20
-250.653372
11
64.038687
21
-251.056086
0
LINE
8
OUTLINE
10
64.038687
20
-251.056086
11
65.066605
21
-251.190325
0
LINE
8
OUTLINE
10
65.066605
20
-251.190325
11
66.094523
21
-251.056086
0
LINE
8
OUTLINE
10
66.094523
20
-251.056086
11
67.068430
21
-250.653372
0
LINE
8
OUTLINE
10
67.068430
20
-250.653372
11
67.903468
21
-250.010420
0
LINE
8
OUTLINE
10
67.903468
20
-250.010420
11
68.532813
21
-249.186672
0
LINE
8
OUTLINE
10
68.532813
20
-249.186672
11
68.929509
21
-248.228931
0
LINE
8
OUTLINE
10
68.929509
20
-248.228931
11
69.066600
21
-247.184000
0
LINE
8
OUTLINE
10
69.066600
20
-247.184000
11
69.066600
21
-247.184000
0
LINE
8
OUTLINE
10
79.599900
20
-218.918000
11
79.367678
21
-218.051335
0
LINE
8
OUTLINE
10
79.367678
20
-218.051335
11
78.733235
21
-217.416892
0
LINE
8
OUTLINE
10
78.733235
20
-217.416892
11
77.866570
21
-217.184670
0
LINE
8
OUTLINE
10
77.866570
20
-217.184670
11
76.999905
21
-217.416892
0
LINE
8
OUTLINE
10
76.999905
20
-217.416892
11
76.365462
21
-218.051335
0
LINE
8
OUTLINE
10
76.365462
20
-218.051335
11
76.133240
21
-218.918000
0
LINE
8
OUTLINE
10
76.133240
20
-218.918000
11
76.365462
21
-219.784665
0
LINE
8
OUTLINE
10
76.365462
20
-219.784665
11
76.999905
21
-220.419108
0
LINE
8
OUTLINE
10
76.999905
20
-220.419108
11
77.866570
21
-220.651330
0
LINE
8
OUTLINE
10
77.866570
20
-220.651330
11
78.733235
21
-220.419108
0
LINE
8
OUTLINE
10
78.733235
20
-220.419108
11
79.367678
21
-219.784665
0
LINE
8
OUTLINE
10
79.367678
20
-219.784665
11
79.599900
21
-218.918000
0
LINE
8
OUTLINE
10
79.599900
20
-218.918000
11
79.599900
21
-218.918000
0
LINE
8
OUTLINE
10
79.599900
20
-275.451000
11
79.367678
21
-274.584335
0
LINE
8
OUTLINE
10
79.367678
20
-274.584335
11
78.733235
21
-273.949892
0
LINE
8
OUTLINE
10
78.733235
20
-273.949892
11
77.866570
21
-273.717670
0
LINE
8
OUTLINE
10
77.866570
20
-273.717670
11
76.999905
21
-273.949892
0
LINE
8
OUTLINE
10
76.999905
20
-273.949892
11
76.365462
21
-274.584335
0
LINE
8
OUTLINE
10
76.365462
20
-274.584335
11
76.133240
21
-275.451000
0
LINE
8
OUTLINE
10
76.133240
20
-275.451000
11
76.365462
21
-276.317665
0
LINE
8
OUTLINE
10
76.365462
20
-276.317665
11
76.999905
21
-276.952108
0
LINE
8
OUTLINE
10
76.999905
20
-276.952108
11
77.866570
21
-277.184330
0
LINE
8
OUTLINE
10
77.866570
20
-277.184330
11
78.733235
21
-276.952108
0
LINE
8
OUTLINE
10
78.733235
20
-276.952108
11
79.367678
21
-276.317665
0
LINE
8
OUTLINE
10
79.367678
20
-276.317665
11
79.599900
21
-275.451000
0
LINE
8
OUTLINE
10
79.599900
20
-275.451000
11
79.599900
21
-275.451000
0
LINE
8
OUTLINE
10
-76.133300
20
-275.451000
11
-76.365522
21
-274.584335
0
LINE
8
OUTLINE
10
-76.365522
20
-274.584335
11
-76.999965
21
-273.949892
0
LINE
8
OUTLINE
10
-76.999965
20
-273.949892
11
-77.866630
21
-273.717670
0
LINE
8
OUTLINE
10
-77.866630
20
-273.717670
11
-78.733295
21
-273.949892
0
LINE
8
OUTLINE
10
-78.733295
20
-273.949892
11
-79.367738
21
-274.584335
0
LINE
8
OUTLINE
10
-79.367738
20
-274.584335
11
-79.599960
21
-275.451000
0
LINE
8
OUTLINE
10
-79.599960
20
-275.451000
11
-79.367738
21
-276.317665
0
LINE
8
OUTLINE
10
-79.367738
20
-276.317665
11
-78.733295
21
-276.952108
0
LINE
8
OUTLINE
10
-78.733295
20
-276.952108
11
-77.866630
21
-277.184330
0
LINE
8
OUTLINE
10
-77.866630
20
-277.184330
11
-76.999965
21
-276.952108
0
LINE
8
OUTLINE
10
-76.999965
20
-276.952108
11
-76.365522
21
-276.317665
0
LINE
8
OUTLINE
10
-76.365522
20
-276.317665
11
-76.133300
21
-275.451000
0
LINE
8
OUTLINE
10
-76.133300
20
-275.451000
11
-76.133300
21
-275.451000
0
LINE
8
OUTLINE
10
-76.133300
20
-218.918000
11
-76.365522
21
-218.051335
0
LINE
8
OUTLINE
10
-76.365522
20
-218.051335
11
-76.999965
21
-217.416892
0
LINE
8
OUTLINE
10
-76.999965
20
-217.416892
11
-77.866630
21
-217.184670
0
LINE
8
OUTLINE
10
-77.866630
20
-217.184670
11
-78.733295
21
-217.416892
0
LINE
8
OUTLINE
10
-78.733295
20
-217.416892
11
-79.367738
21
-218.051335
0
LINE
8
OUTLINE
10
-79.367738
20
-218.051335
11
-79.599960
21
-218.918000
0
LINE
8
OUTLINE
10
-79.599960
20
-218.918000
11
-79.367738
21
-219.784665
0
LINE
8
OUTLINE
10
-79.367738
20
-219.784665
11
-78.733295
21
-220.419108
0
LINE
8
OUTLINE
10
-78.733295
20
-220.419108
11
-77.866630
21
-220.651330
0
LINE
8
OUTLINE
10
-77.866630
20
-220.651330
11
-76.999965
21
-220.419108
0
LINE
8
OUTLINE
10
-76.999965
20
-220.419108
11
-76.365522
21
-219.784665
0
LINE
8
OUTLINE
10
-76.365522
20
-219.784665
11
-76.133300
21
-218.918000
0
LINE
8
OUTLINE
10
-76.133300
20
-218.918000
11
-76.133300
21
-218.918000
0
LINE
8
OUTLINE
10
-61.066600
20
-247.184000
11
-61.203691
21
-246.139069
0
LINE
8
OUTLINE
10
-61.203691
20
-246.139069
11
-61.600387
21
-245.181328
0
LINE
8
OUTLINE
10
-61.600387
20
-245.181328
11
-62.229732
21
-244.357580
0
LINE
8
OUTLINE
10
-62.229732
20
-244.357580
11
-63.064770
21
-243.714628
0
LINE
8
OUTLINE
10
-63.064770
20
-243.714628
11
-64.038677
21
-243.311914
0
LINE
8
OUTLINE
10
-64.038677
20
-243.311914
11
-65.066595
21
-243.177675
0
LINE
8
OUTLINE
10
-65.066595
20
-243.177675
11
-66.094513
21
-243.311914
0
LINE
8
OUTLINE
10
-66.094513
20
-243.311914
11
-67.068420
21
-243.714628
0
LINE
8
OUTLINE
10
-67.068420
20
-243.714628
11
-67.903458
21
-244.357580
0
LINE
8
OUTLINE
10
-67.903458
20
-244.357580
11
-68.532803
21
-245.181328
0
LINE
8
OUTLINE
10
-68.532803
20
-245.181328
11
-68.929499
21
-246.139069
0
LINE
8
OUTLINE
10
-68.929499
20
-246.139069
11
-69.066590
21
-247.184000
0
LINE
8
OUTLINE
10
-69.066590
20
-247.184000
11
-68.929499
21
-248.228931
0
LINE
8
OUTLINE
10
-68.929499
20
-248.228931
11
-68.532803
21
-249.186672
0
LINE
8
OUTLINE
10
-68.532803
20
-249.186672
11
-67.903458
21
-250.010420
0
LINE
8
OUTLINE
10
-67.903458
20
-250.010420
11
-67.068420
21
-250.653372
0
LINE
8
OUTLINE
10
-67.068420
20
-250.653372
11
-66.094513
21
-251.056086
0
LINE
8
OUTLINE
10
-66.094513
20
-251.056086
11
-65.066595
21
-251.190325
0
LINE
8
OUTLINE
10
-65.066595
20
-251.190325
11
-64.038677
21
-251.056086
0
LINE
8
OUTLINE
10
-64.038677
20
-251.056086
11
-63.064770
21
-250.653372
0
LINE
8
OUTLINE
10
-63.064770
20
-250.653372
11
-62.229732
21
-250.010420
0
LINE
8
OUTLINE
10
-62.229732
20
-250.010420
11
-61.600387
21
-249.186672
0
LINE
8
OUTLINE
10
-61.600387
20
-249.186672
11
-61.203691
21
-248.228931
0
LINE
8
OUTLINE
10
-61.203691
20
-248.228931
11
-61.066600
21
-247.184000
0
LINE
8
OUTLINE
10
-61.066600
20
-247.184000
11
-61.066600
21
-247.184000
0
LINE
8
OUTLINE
10
38.400000
20
-260.251000
11
-38.400000
21
-260.251000
0
LINE
8
OUTLINE
10
-38.400000
20
-260.251000
11
-38.400000
21
-234.118000
0
LINE
8
OUTLINE
10
-38.400000
20
-234.118000
11
38.400000
21
-234.118000
0
LINE
8
OUTLINE
10
38.400000
20
-234.118000
11
38.400000
21
-260.251000
0
LINE
8
OUTLINE
10
-84.266600
20
-281.851000
11
84.266600
21
-281.851000
0
LINE
8
OUTLINE
10
84.266600
20
-281.851000
11
84.266600
21
-212.518000
0
LINE
8
OUTLINE
10
84.266600
20
-212.518000
11
-84.266600
21
-212.518000
0
LINE
8
OUTLINE
10
-84.266600
20
-212.518000
11
-84.266600
21
-281.851000
0
LINE
8
OUTLINE
10
-38.560000
20
-230.117000
11
-38.738632
21
-229.450335
0
LINE
8
OUTLINE
10
-38.738632
20
-229.450335
11
-39.226665
21
-228.962302
0
LINE
8
OUTLINE
10
-39.226665
20
-228.962302
11
-39.893330
21
-228.783670
0
LINE
8
OUTLINE
10
-39.893330
20
-228.783670
11
-40.559995
21
-228.962302
0
LINE
8
OUTLINE
10
-40.559995
20
-228.962302
11
-41.048028
21
-229.450335
0
LINE
8
OUTLINE
10
-41.048028
20
-229.450335
11
-41.226660
21
-230.117000
0
LINE
8
OUTLINE
10
-41.226660
20
-230.117000
11
-41.048028
21
-230.783665
0
LINE
8
OUTLINE
10
-41.048028
20
-230.783665
11
-40.559995
21
-231.271698
0
LINE
8
OUTLINE
10
-40.559995
20
-231.271698
11
-39.893330
21
-231.450330
0
LINE
8
OUTLINE
10
-39.893330
20
-231.450330
11
-39.226665
21
-231.271698
0
LINE
8
OUTLINE
10
-39.226665
20
-231.271698
11
-38.738632
21
-230.783665
0
LINE
8
OUTLINE
10
-38.738632
20
-230.783665
11
-38.560000
21
-230.117000
0
LINE
8
OUTLINE
10
-38.560000
20
-230.117000
11
-38.560000
21
-230.117000
0
LINE
8
OUTLINE
10
-38.560000
20
-263.184000
11
-38.738632
21
-262.517335
0
LINE
8
OUTLINE
10
-38.738632
20
-262.517335
11
-39.226665
21
-262.029302
0
LINE
8
OUTLINE
10
-39.226665
20
-262.029302
11
-39.893330
21
-261.850670
0
LINE
8
OUTLINE
10
-39.893330
20
-261.850670
11
-40.559995
21
-262.029302
0
LINE
8
OUTLINE
10
-40.559995
20
-262.029302
11
-41.048028
21
-262.517335
0
LINE
8
OUTLINE
10
-41.048028
20
-262.517335
11
-41.226660
21
-263.184000
0
LINE
8
OUTLINE
10
-41.226660
20
-263.184000
11
-41.048028
21
-263.850665
0
LINE
8
OUTLINE
10
-41.048028
20
-263.850665
11
-40.559995
21
-264.338698
0
LINE
8
OUTLINE
10
-40.559995
20
-264.338698
11
-39.893330
21
-264.517330
0
LINE
8
OUTLINE
10
-39.893330
20
-264.517330
11
-39.226665
21
-264.338698
0
LINE
8
OUTLINE
10
-39.226665
20
-264.338698
11
-38.738632
21
-263.850665
0
LINE
8
OUTLINE
10
-38.738632
20
-263.850665
11
-38.560000
21
-263.184000
0
LINE
8
OUTLINE
10
-38.560000
20
-263.184000
11
-38.560000
21
-263.184000
0
LINE
8
OUTLINE
10
41.440000
20
-230.117000
11
41.261368
21
-229.450335
0
LINE
8
OUTLINE
10
41.261368
20
-229.450335
11
40.773335
21
-228.962302
0
LINE
8
OUTLINE
10
40.773335
20
-228.962302
11
40.106670
21
-228.783670
0
LINE
8
OUTLINE
10
40.106670
20
-228.783670
11
39.440005
21
-228.962302
0
LINE
8
OUTLINE
10
39.440005
20
-228.962302
11
38.951972
21
-229.450335
0
LINE
8
OUTLINE
10
38.951972
20
-229.450335
11
38.773340
21
-230.117000
0
LINE
8
OUTLINE
10
38.773340
20
-230.117000
11
38.951972
21
-230.783665
0
LINE
8
OUTLINE
10
38.951972
20
-230.783665
11
39.440005
21
-231.271698
0
LINE
8
OUTLINE
10
39.440005
20
-231.271698
11
40.106670
21
-231.450330
0
LINE
8
OUTLINE
10
40.106670
20
-231.450330
11
40.773335
21
-231.271698
0
LINE
8
OUTLINE
10
40.773335
20
-231.271698
11
41.261368
21
-230.783665
0
LINE
8
OUTLINE
10
41.261368
20
-230.783665
11
41.440000
21
-230.117000
0
LINE
8
OUTLINE
10
41.440000
20
-230.117000
11
41.440000
21
-230.117000
0
LINE
8
OUTLINE
10
41.440000
20
-263.184000
11
41.261368
21
-262.517335
0
LINE
8
OUTLINE
10
41.261368
20
-262.517335
11
40.773335
21
-262.029302
0
LINE
8
OUTLINE
10
40.773335
20
-262.029302
11
40.106670
21
-261.850670
0
LINE
8
OUTLINE
10
40.106670
20
-261.850670
11
39.440005
21
-262.029302
0
LINE
8
OUTLINE
10
39.440005
20
-262.029302
11
38.951972
21
-262.517335
0
LINE
8
OUTLINE
10
38.951972
20
-262.517335
11
38.773340
21
-263.184000
0
LINE
8
OUTLINE
10
38.773340
20
-263.184000
11
38.951972
21
-263.850665
0
LINE
8
OUTLINE
10
38.951972
20
-263.850665
11
39.440005
21
-264.338698
0
LINE
8
OUTLINE
10
39.440005
20
-264.338698
11
40.106670
21
-264.517330
0
LINE
8
OUTLINE
10
40.106670
20
-264.517330
11
40.773335
21
-264.338698
0
LINE
8
OUTLINE
10
40.773335
20
-264.338698
11
41.261368
21
-263.850665
0
LINE
8
OUTLINE
10
41.261368
20
-263.850665
11
41.440000
21
-263.184000
0
LINE
8
OUTLINE
10
41.440000
20
-263.184000
11
41.440000
21
-263.184000
0
LINE
8
OUTLINE
10
51.280000
20
-217.984000
11
51.054923
21
-217.144000
0
LINE
8
OUTLINE
10
51.054923
20
-217.144000
11
50.440000
21
-216.529077
0
LINE
8
OUTLINE
10
50.440000
20
-216.529077
11
49.600000
21
-216.304000
0
LINE
8
OUTLINE
10
49.600000
20
-216.304000
11
48.760000
21
-216.529077
0
LINE
8
OUTLINE
10
48.760000
20
-216.529077
11
48.145077
21
-217.144000
0
LINE
8
OUTLINE
10
48.145077
20
-217.144000
11
47.920000
21
-217.984000
0
LINE
8
OUTLINE
10
47.920000
20
-217.984000
11
48.145077
21
-218.824000
0
LINE
8
OUTLINE
10
48.145077
20
-218.824000
11
48.760000
21
-219.438923
0
LINE
8
OUTLINE
10
48.760000
20
-219.438923
11
49.600000
21
-219.664000
0
LINE
8
OUTLINE
10
49.600000
20
-219.664000
11
50.440000
21
-219.438923
0
LINE
8
OUTLINE
10
50.440000
20
-219.438923
11
51.054923
21
-218.824000
0
LINE
8
OUTLINE
10
51.054923
20
-218.824000
11
51.280000
21
-217.984000
0
LINE
8
OUTLINE
10
51.280000
20
-217.984000
11
51.280000
21
-217.984000
0
LINE
8
OUTLINE
10
51.280000
20
-276.384000
11
51.054923
21
-275.544000
0
LINE
8
OUTLINE
10
51.054923
20
-275.544000
11
50.440000
21
-274.929077
0
LINE
8
OUTLINE
10
50.440000
20
-274.929077
11
49.600000
21
-274.704000
0
LINE
8
OUTLINE
10
49.600000
20
-274.704000
11
48.760000
21
-274.929077
0
LINE
8
OUTLINE
10
48.760000
20
-274.929077
11
48.145077
21
-275.544000
0
LINE
8
OUTLINE
10
48.145077
20
-275.544000
11
47.920000
21
-276.384000
0
LINE
8
OUTLINE
10
47.920000
20
-276.384000
11
48.145077
21
-277.224000
0
LINE
8
OUTLINE
10
48.145077
20
-277.224000
11
48.760000
21
-277.838923
0
LINE
8
OUTLINE
10
48.760000
20
-277.838923
11
49.600000
21
-278.064000
0
LINE
8
OUTLINE
10
49.600000
20
-278.064000
11
50.440000
21
-277.838923
0
LINE
8
OUTLINE
10
50.440000
20
-277.838923
11
51.054923
21
-277.224000
0
LINE
8
OUTLINE
10
51.054923
20
-277.224000
11
51.280000
21
-276.384000
0
LINE
8
OUTLINE
10
51.280000
20
-276.384000
11
51.280000
21
-276.384000
0
LINE
8
OUTLINE
10
-47.920000
20
-217.984000
11
-48.145077
21
-217.144000
0
LINE
8
OUTLINE
10
-48.145077
20
-217.144000
11
-48.760000
21
-216.529077
0
LINE
8
OUTLINE
10
-48.760000
20
-216.529077
11
-49.600000
21
-216.304000
0
LINE
8
OUTLINE
10
-49.600000
20
-216.304000
11
-50.440000
21
-216.529077
0
LINE
8
OUTLINE
10
-50.440000
20
-216.529077
11
-51.054923
21
-217.144000
0
LINE
8
OUTLINE
10
-51.054923
20
-217.144000
11
-51.280000
21
-217.984000
0
LINE
8
OUTLINE
10
-51.280000
20
-217.984000
11
-51.054923
21
-218.824000
0
LINE
8
OUTLINE
10
-51.054923
20
-218.824000
11
-50.440000
21
-219.438923
0
LINE
8
OUTLINE
10
-50.440000
20
-219.438923
11
-49.600000
21
-219.664000
0
LINE
8
OUTLINE
10
-49.600000
20
-219.664000
11
-48.760000
21
-219.438923
0
LINE
8
OUTLINE
10
-48.760000
20
-219.438923
11
-48.145077
21
-218.824000
0
LINE
8
OUTLINE
10
-48.145077
20
-218.824000
11
-47.920000
21
-217.984000
0
LINE
8
OUTLINE
10
-47.920000
20
-217.984000
11
-47.920000
21
-217.984000
0
LINE
8
OUTLINE
10
-47.920000
20
-276.384000
11
-48.145077
21
-275.544000
0
LINE
8
OUTLINE
10
-48.145077
20
-275.544000
11
-48.760000
21
-274.929077
0
LINE
8
OUTLINE
10
-48.760000
20
-274.929077
11
-49.600000
21
-274.704000
0
LINE
8
OUTLINE
10
-49.600000
20
-274.704000
11
-50.440000
21
-274.929077
0
LINE
8
OUTLINE
10
-50.440000
20
-274.929077
11
-51.054923
21
-275.544000
0
LINE
8
OUTLINE
10
-51.054923
20
-275.544000
11
-51.280000
21
-276.384000
0
LINE
8
OUTLINE
10
-51.280000
20
-276.384000
11
-51.054923
21
-277.224000
0
LINE
8
OUTLINE
10
-51.054923
20
-277.224000
11
-50.440000
21
-277.838923
0
LINE
8
OUTLINE
10
-50.440000
20
-277.838923
11
-49.600000
21
-278.064000
0
LINE
8
OUTLINE
10
-49.600000
20
-278.064000
11
-48.760000
21
-277.838923
0
LINE
8
OUTLINE
10
-48.760000
20
-277.838923
11
-48.145077
21
-277.224000
0
LINE
8
OUTLINE
10
-48.145077
20
-277.224000
11
-47.920000
21
-276.384000
0
LINE
8
OUTLINE
10
-47.920000
20
-276.384000
11
-47.920000
21
-276.384000
0
LINE
8
OUTLINE
10
-38.400000
20
-234.118000
11
-38.400000
21
-260.251000
0
LINE
8
OUTLINE
10
-38.400000
20
-260.251000
11
38.400000
21
-260.251000
0
LINE
8
OUTLINE
10
38.400000
20
-260.251000
11
38.400000
21
-234.118000
0
LINE
8
OUTLINE
10
38.400000
20
-234.118000
11
-38.400000
21
-234.118000
0
LINE
8
OUTLINE
10
-61.066600
20
-247.184000
11
-61.203691
21
-246.139069
0
LINE
8
OUTLINE
10
-61.203691
20
-246.139069
11
-61.600387
21
-245.181328
0
LINE
8
OUTLINE
10
-61.600387
20
-245.181328
11
-62.229732
21
-244.357580
0
LINE
8
OUTLINE
10
-62.229732
20
-244.357580
11
-63.064770
21
-243.714628
0
LINE
8
OUTLINE
10
-63.064770
20
-243.714628
11
-64.038677
21
-243.311914
0
LINE
8
OUTLINE
10
-64.038677
20
-243.311914
11
-65.066595
21
-243.177675
0
LINE
8
OUTLINE
10
-65.066595
20
-243.177675
11
-66.094513
21
-243.311914
0
LINE
8
OUTLINE
10
-66.094513
20
-243.311914
11
-67.068420
21
-243.714628
0
LINE
8
OUTLINE
10
-67.068420
20
-243.714628
11
-67.903458
21
-244.357580
0
LINE
8
OUTLINE
10
-67.903458
20
-244.357580
11
-68.532803
21
-245.181328
0
LINE
8
OUTLINE
10
-68.532803
20
-245.181328
11
-68.929499
21
-246.139069
0
LINE
8
OUTLINE
10
-68.929499
20
-246.139069
11
-69.066590
21
-247.184000
0
LINE
8
OUTLINE
10
-69.066590
20
-247.184000
11
-68.929499
21
-248.228931
0
LINE
8
OUTLINE
10
-68.929499
20
-248.228931
11
-68.532803
21
-249.186672
0
LINE
8
OUTLINE
10
-68.532803
20
-249.186672
11
-67.903458
21
-250.010420
0
LINE
8
OUTLINE
10
-67.903458
20
-250.010420
11
-67.068420
21
-250.653372
0
LINE
8
OUTLINE
10
-67.068420
20
-250.653372
11
-66.094513
21
-251.056086
0
LINE
8
OUTLINE
10
-66.094513
20
-251.056086
11
-65.066595
21
-251.190325
0
LINE
8
OUTLINE
10
-65.066595
20
-251.190325
11
-64.038677
21
-251.056086
0
LINE
8
OUTLINE
10
-64.038677
20
-251.056086
11
-63.064770
21
-250.653372
0
LINE
8
OUTLINE
10
-63.064770
20
-250.653372
11
-62.229732
21
-250.010420
0
LINE
8
OUTLINE
10
-62.229732
20
-250.010420
11
-61.600387
21
-249.186672
0
LINE
8
OUTLINE
10
-61.600387
20
-249.186672
11
-61.203691
21
-248.228931
0
LINE
8
OUTLINE
10
-61.203691
20
-248.228931
11
-61.066600
21
-247.184000
0
LINE
8
OUTLINE
10
-61.066600
20
-247.184000
11
-61.066600
21
-247.184000
0
LINE
8
OUTLINE
10
-76.133300
20
-218.918000
11
-76.365522
21
-218.051335
0
LINE
8
OUTLINE
10
-76.365522
20
-218.051335
11
-76.999965
21
-217.416892
0
LINE
8
OUTLINE
10
-76.999965
20
-217.416892
11
-77.866630
21
-217.184670
0
LINE
8
OUTLINE
10
-77.866630
20
-217.184670
11
-78.733295
21
-217.416892
0
LINE
8
OUTLINE
10
-78.733295
20
-217.416892
11
-79.367738
21
-218.051335
0
LINE
8
OUTLINE
10
-79.367738
20
-218.051335
11
-79.599960
21
-218.918000
0
LINE
8
OUTLINE
10
-79.599960
20
-218.918000
11
-79.367738
21
-219.784665
0
LINE
8
OUTLINE
10
-79.367738
20
-219.784665
11
-78.733295
21
-220.419108
0
LINE
8
OUTLINE
10
-78.733295
20
-220.419108
11
-77.866630
21
-220.651330
0
LINE
8
OUTLINE
10
-77.866630
20
-220.651330
11
-76.999965
21
-220.419108
0
LINE
8
OUTLINE
10
-76.999965
20
-220.419108
11
-76.365522
21
-219.784665
0
LINE
8
OUTLINE
10
-76.365522
20
-219.784665
11
-76.133300
21
-218.918000
0
LINE
8
OUTLINE
10
-76.133300
20
-218.918000
11
-76.133300
21
-218.918000
0
LINE
8
OUTLINE
10
-76.133300
20
-275.451000
11
-76.365522
21
-274.584335
0
LINE
8
OUTLINE
10
-76.365522
20
-274.584335
11
-76.999965
21
-273.949892
0
LINE
8
OUTLINE
10
-76.999965
20
-273.949892
11
-77.866630
21
-273.717670
0
LINE
8
OUTLINE
10
-77.866630
20
-273.717670
11
-78.733295
21
-273.949892
0
LINE
8
OUTLINE
10
-78.733295
20
-273.949892
11
-79.367738
21
-274.584335
0
LINE
8
OUTLINE
10
-79.367738
20
-274.584335
11
-79.599960
21
-275.451000
0
LINE
8
OUTLINE
10
-79.599960
20
-275.451000
11
-79.367738
21
-276.317665
0
LINE
8
OUTLINE
10
-79.367738
20
-276.317665
11
-78.733295
21
-276.952108
0
LINE
8
OUTLINE
10
-78.733295
20
-276.952108
11
-77.866630
21
-277.184330
0
LINE
8
OUTLINE
10
-77.866630
20
-277.184330
11
-76.999965
21
-276.952108
0
LINE
8
OUTLINE
10
-76.999965
20
-276.952108
11
-76.365522
21
-276.317665
0
LINE
8
OUTLINE
10
-76.365522
20
-276.317665
11
-76.133300
21
-275.451000
0
LINE
8
OUTLINE
10
-76.133300
20
-275.451000
11
-76.133300
21
-275.451000
0
LINE
8
OUTLINE
10
79.599900
20
-275.451000
11
79.367678
21
-274.584335
0
LINE
8
OUTLINE
10
79.367678
20
-274.584335
11
78.733235
21
-273.949892
0
LINE
8
OUTLINE
10
78.733235
20
-273.949892
11
77.866570
21
-273.717670
0
LINE
8
OUTLINE
10
77.866570
20
-273.717670
11
76.999905
21
-273.949892
0
LINE
8
OUTLINE
10
76.999905
20
-273.949892
11
76.365462
21
-274.584335
0
LINE
8
OUTLINE
10
76.365462
20
-274.584335
11
76.133240
21
-275.451000
0
LINE
8
OUTLINE
10
76.133240
20
-275.451000
11
76.365462
21
-276.317665
0
LINE
8
OUTLINE
10
76.365462
20
-276.317665
11
76.999905
21
-276.952108
0
LINE
8
OUTLINE
10
76.999905
20
-276.952108
11
77.866570
21
-277.184330
0
LINE
8
OUTLINE
10
77.866570
20
-277.184330
11
78.733235
21
-276.952108
0
LINE
8
OUTLINE
10
78.733235
20
-276.952108
11
79.367678
21
-276.317665
0
LINE
8
OUTLINE
10
79.367678
20
-276.317665
11
79.599900
21
-275.451000
0
LINE
8
OUTLINE
10
79.599900
20
-275.451000
11
79.599900
21
-275.451000
0
LINE
8
OUTLINE
10
79.599900
20
-218.918000
11
79.367678
21
-218.051335
0
LINE
8
OUTLINE
10
79.367678
20
-218.051335
11
78.733235
21
-217.416892
0
LINE
8
OUTLINE
10
78.733235
20
-217.416892
11
77.866570
21
-217.184670
0
LINE
8
OUTLINE
10
77.866570
20
-217.184670
11
76.999905
21
-217.416892
0
LINE
8
OUTLINE
10
76.999905
20
-217.416892
11
76.365462
21
-218.051335
0
LINE
8
OUTLINE
10
76.365462
20
-218.051335
11
76.133240
21
-218.918000
0
LINE
8
OUTLINE
10
76.133240
20
-218.918000
11
76.365462
21
-219.784665
0
LINE
8
OUTLINE
10
76.365462
20
-219.784665
11
76.999905
21
-220.419108
0
LINE
8
OUTLINE
10
76.999905
20
-220.419108
11
77.866570
21
-220.651330
0
LINE
8
OUTLINE
10
77.866570
20
-220.651330
11
78.733235
21
-220.419108
0
LINE
8
OUTLINE
10
78.733235
20
-220.419108
11
79.367678
21
-219.784665
0
LINE
8
OUTLINE
10
79.367678
20
-219.784665
11
79.599900
21
-218.918000
0
LINE
8
OUTLINE
10
79.599900
20
-218.918000
11
79.599900
21
-218.918000
0
LINE
8
OUTLINE
10
69.066600
20
-247.184000
11
68.929509
21
-246.139069
0
LINE
8
OUTLINE
10
68.929509
20
-246.139069
11
68.532813
21
-245.181328
0
LINE
8
OUTLINE
10
68.532813
20
-245.181328
11
67.903468
21
-244.357580
0
LINE
8
OUTLINE
10
67.903468
20
-244.357580
11
67.068430
21
-243.714628
0
LINE
8
OUTLINE
10
67.068430
20
-243.714628
11
66.094523
21
-243.311914
0
LINE
8
OUTLINE
10
66.094523
20
-243.311914
11
65.066605
21
-243.177675
0
LINE
8
OUTLINE
10
65.066605
20
-243.177675
11
64.038687
21
-243.311914
0
LINE
8
OUTLINE
10
64.038687
20
-243.311914
11
63.064780
21
-243.714628
0
LINE
8
OUTLINE
10
63.064780
20
-243.714628
11
62.229742
21
-244.357580
0
LINE
8
OUTLINE
10
62.229742
20
-244.357580
11
61.600397
21
-245.181328
0
LINE
8
OUTLINE
10
61.600397
20
-245.181328
11
61.203701
21
-246.139069
0
LINE
8
OUTLINE
10
61.203701
20
-246.139069
11
61.066610
21
-247.184000
0
LINE
8
OUTLINE
10
61.066610
20
-247.184000
11
61.203701
21
-248.228931
0
LINE
8
OUTLINE
10
61.203701
20
-248.228931
11
61.600397
21
-249.186672
0
LINE
8
OUTLINE
10
61.600397
20
-249.186672
11
62.229742
21
-250.010420
0
LINE
8
OUTLINE
10
62.229742
20
-250.010420
11
63.064780
21
-250.653372
0
LINE
8
OUTLINE
10
63.064780
20
-250.653372
11
64.038687
21
-251.056086
0
LINE
8
OUTLINE
10
64.038687
20
-251.056086
11
65.066605
21
-251.190325
0
LINE
8
OUTLINE
10
65.066605
20
-251.190325
11
66.094523
21
-251.056086
0
LINE
8
OUTLINE
10
66.094523
20
-251.056086
11
67.068430
21
-250.653372
0
LINE
8
OUTLINE
10
67.068430
20
-250.653372
11
67.903468
21
-250.010420
0
LINE
8
OUTLINE
10
67.903468
20
-250.010420
11
68.532813
21
-249.186672
0
LINE
8
OUTLINE
10
68.532813
20
-249.186672
11
68.929509
21
-248.228931
0
LINE
8
OUTLINE
10
68.929509
20
-248.228931
11
69.066600
21
-247.184000
0
LINE
8
OUTLINE
10
69.066600
20
-247.184000
11
69.066600
21
-247.184000
0
LINE
8
OUTLINE
10
84.266600
20
-212.518000
11
84.266600
21
-281.851000
0
LINE
8
OUTLINE
10
84.266600
20
-281.851000
11
-84.266600
21
-281.851000
0
LINE
8
OUTLINE
10
-84.266600
20
-281.851000
11
-84.266600
21
-212.518000
0
LINE
8
OUTLINE
10
-84.266600
20
-212.518000
11
84.266600
21
-212.518000
 0 
ENDSEC
 0 
EOF