0
SECTION
2
HEADER
9
$INSUNITS
70
1
9
$ACADVER
1
AC1014
9
$HANDSEED
5
FFFF
0
ENDSEC
0
SECTION
2
TABLES
0
TABLE
2
VPORT
5
8
100
AcDbSymbolTable
0
ENDTAB
0
TABLE
2
LTYPE
5
5
100
AcDbSymbolTable
0
LTYPE
5
14
100
AcDbSymbolTableRecord
100
AcDbLinetypeTableRecord
2
BYBLOCK
70
0
0
LTYPE
5
15
100
AcDbSymbolTableRecord
100
AcDbLinetypeTableRecord
2
BYLAYER
70
0
0
ENDTAB
0
TABLE
2
LAYER
5
2
100
AcDbSymbolTable
70
2
0
LAYER
5
50
100
AcDbSymbolTableRecord
100
AcDbLayerTableRecord
2
0
70
0
6
CONTINUOUS
0
ENDTAB
0
TABLE
2
STYLE
5
3
100
AcDbSymbolTable
70
1
0
STYLE
5
11
100
AcDbSymbolTableRecord
100
AcDbTextStyleTableRecord
2
STANDARD
70
0
0
ENDTAB
0
TABLE
2
VIEW
5
6
100
AcDbSymbolTable
70
0
0
ENDTAB
0
TABLE
2
UCS
5
7
100
AcDbSymbolTable
70
0
0
ENDTAB
0
TABLE
2
APPID
5
9
100
AcDbSymbolTable
70
2
0
APPID
5
12
100
AcDbSymbolTableRecord
100
AcDbRegAppTableRecord
2
ACAD
70
0
0
ENDTAB
0
TABLE
2
DIMSTYLE
5
A
100
AcDbSymbolTable
70
1
0
ENDTAB
0
TABLE
2
BLOCK_RECORD
5
1
100
AcDbSymbolTable
70
1
0
BLOCK_RECORD
5
1F
100
AcDbSymbolTableRecord
100
AcDbBlockTableRecord
2
*MODEL_SPACE
0
BLOCK_RECORD
5
1B
100
AcDbSymbolTableRecord
100
AcDbBlockTableRecord
2
*PAPER_SPACE
0
ENDTAB
0
ENDSEC
0
SECTION
2
BLOCKS
0
BLOCK
5
20
100
AcDbEntity
100
AcDbBlockBegin
2
*MODEL_SPACE
0
ENDBLK
5
21
100
AcDbEntity
100
AcDbBlockEnd
0
BLOCK
5
1C
100
AcDbEntity
100
AcDbBlockBegin
2
*PAPER_SPACE
0
ENDBLK
5
1D
100
AcDbEntity
100
AcDbBlockEnd
0
ENDSEC
0
SECTION
2
ENTITIES
0
LINE
5
100
100
AcDbEntity
8
0
100
AcDbLine
10
0
20
0
30
0
11
20.908629674158373
21
0
31
0
0
LINE
5
101
100
AcDbEntity
8
0
100
AcDbLine
10
20.908629674158373
20
0
30
0
11
22.334254103102989
21
17.390787701660997
31
0
0
LINE
5
102
100
AcDbEntity
8
0
100
AcDbLine
10
22.334254103102989
20
17.390787701660997
30
0
11
22.571628137670427
21
32.014102033583235
31
0
0
LINE
5
103
100
AcDbEntity
8
0
100
AcDbLine
10
22.571628137670427
20
32.014102033583235
30
0
11
23.251054417348044
21
32.014102033583235
31
0
0
LINE
5
104
100
AcDbEntity
8
0
100
AcDbLine
10
23.652289141763887
20
32.4134192020394
30
0
11
23.55242616270457
21
66.143753478727604
31
0
0
ARC
5
105
100
AcDbEntity
8
0
100
AcDbCircle
10
23.251054417348044
20
32.415341362134768
30
0
40
0.40123932855153482
210
0
220
0
230
1
100
AcDbArc
50
270
51
359.72552022091628
0
LINE
5
106
100
AcDbEntity
8
0
100
AcDbLine
10
23.198844988643891
20
66.474097397684474
30
0
11
22.731769739501281
21
66.474097397684474
31
0
0
SPLINE
5
107
100
AcDbEntity
8
0
100
AcDbSpline
70
4
71
5
72
21
73
15
74
0
42
0.000000001
43
0.0000000001
44
0.0000000001
40
0
40
0
40
0
40
0
40
0
40
0
40
0.10000000000000001
40
0.20000000000000001
40
0.30000000000000004
40
0.40000000000000002
40
0.5
40
0.59999999999999998
40
0.69999999999999996
40
0.79999999999999993
40
0.89999999999999991
40
1
40
1
40
1
40
1
40
1
40
1
41
1
41
1
41
1
41
1
41
1
41
1
41
1
41
1
41
1
41
1
41
1
41
1
41
1
41
1
41
1
10
22.731769739501281
20
66.474097397684474
30
0
10
22.717485666750328
20
67.325010835146671
30
0
10
22.682571496313251
20
69.039369846834148
30
0
10
22.611161627891864
20
71.648505837019783
30
0
10
22.477249467893348
20
75.203776654268481
30
0
10
22.241186001418395
20
79.78348121516477
30
0
10
21.931094295485643
20
84.509376821681371
30
0
10
21.542166280696339
20
89.390958454330914
30
0
10
21.074030267476449
20
94.428960126055813
30
0
10
20.531925093599952
20
99.613036174458045
30
0
10
19.922404285474851
20
104.93024468863523
30
0
10
19.38573041775479
20
109.28088975228046
30
0
10
18.957457719226738
20
112.59475883680766
30
0
10
18.660678963631721
20
114.82624830823723
30
0
10
18.509473494814273
20
115.9475542634729
30
0
0
SPLINE
5
108
100
AcDbEntity
8
0
100
AcDbSpline
70
4
71
5
72
21
73
15
74
0
42
0.000000001
43
0.0000000001
44
0.0000000001
40
0
40
0
40
0
40
0
40
0
40
0
40
0.10000000000000001
40
0.20000000000000001
40
0.30000000000000004
40
0.40000000000000002
40
0.5
40
0.59999999999999998
40
0.69999999999999996
40
0.79999999999999993
40
0.89999999999999991
40
1
40
1
40
1
40
1
40
1
40
1
41
1
41
1
41
1
41
1
41
1
41
1
41
1
41
1
41
1
41
1
41
1
41
1
41
1
41
1
41
1
10
14.208701699976338
20
142.80709132180041
30
0
10
14.309463703650627
20
142.19349211512105
30
0
10
14.509745164532465
20
140.97273188252285
30
0
10
14.806439962661855
20
139.16090480020151
30
0
10
15.194453467564566
20
136.78440839354008
30
0
10
15.665940397319329
20
133.88389252509336
30
0
10
16.122548293670093
20
131.0604714849521
30
0
10
16.562822190081089
20
128.32168409581973
30
0
10
16.985590070966904
20
125.67360308684599
30
0
10
17.390909838537599
20
123.11592844113964
30
0
10
17.779835240888563
20
120.64320022547587
30
0
10
18.078804002935609
20
118.72808386756871
30
0
10
18.296599532630331
20
117.32506866059931
30
0
10
18.438984216151354
20
116.40429714271738
30
0
10
18.509473494814273
20
115.9475542634729
30
0
0
LINE
5
109
100
AcDbEntity
8
0
100
AcDbLine
10
14.208701699976338
20
142.80709132180041
30
0
11
0
21
142.80709132180041
31
0
0
ARC
5
110
100
AcDbEntity
8
0
100
AcDbCircle
10
23.198844988643891
20
66.119698938979255
30
0
40
0.35439845870521808
210
0
220
-0
230
1
100
AcDbArc
50
3.8919018940725323
51
90
0
LINE
5
111
100
AcDbEntity
8
0
100
AcDbLine
10
0
20
6.919277947498415
30
0
11
0
21
93.064394049220013
31
0
0
LINE
5
112
100
AcDbEntity
8
0
100
AcDbLine
10
0
20
0
30
0
11
-20.908629674158373
21
0
31
0
0
LINE
5
113
100
AcDbEntity
8
0
100
AcDbLine
10
-20.908629674158373
20
0
30
0
11
-22.334254103102989
21
17.390787701660997
31
0
0
LINE
5
114
100
AcDbEntity
8
0
100
AcDbLine
10
-22.334254103102989
20
17.390787701660997
30
0
11
-22.571628137670427
21
32.014102033583235
31
0
0
LINE
5
115
100
AcDbEntity
8
0
100
AcDbLine
10
-22.571628137670427
20
32.014102033583235
30
0
11
-23.251054417348044
21
32.014102033583235
31
0
0
ARC
5
116
100
AcDbEntity
8
0
100
AcDbCircle
10
-23.251054417348044
20
32.415341362134768
30
0
40
0.40123932855153882
210
0
220
0
230
1
100
AcDbArc
50
180.27447977908375
51
270
0
LINE
5
117
100
AcDbEntity
8
0
100
AcDbLine
10
-23.652289141763887
20
32.4134192020394
30
0
11
-23.55242616270457
21
66.143753478727604
31
0
0
ARC
5
118
100
AcDbEntity
8
0
100
AcDbCircle
10
-23.198844988643891
20
66.119698938979255
30
0
40
0.35439845870521686
210
0
220
-0
230
1
100
AcDbArc
50
90
51
176.1080981059275
0
LINE
5
119
100
AcDbEntity
8
0
100
AcDbLine
10
-23.198844988643891
20
66.474097397684474
30
0
11
-22.731769739501281
21
66.474097397684474
31
0
0
SPLINE
5
120
100
AcDbEntity
8
0
100
AcDbSpline
70
4
71
5
72
21
73
15
74
0
42
0.000000001
43
0.0000000001
44
0.0000000001
40
0
40
0
40
0
40
0
40
0
40
0
40
0.10000000000000001
40
0.20000000000000001
40
0.30000000000000004
40
0.40000000000000002
40
0.5
40
0.59999999999999998
40
0.69999999999999996
40
0.79999999999999993
40
0.89999999999999991
40
1
40
1
40
1
40
1
40
1
40
1
41
1
41
1
41
1
41
1
41
1
41
1
41
1
41
1
41
1
41
1
41
1
41
1
41
1
41
1
41
1
10
-14.208701699976338
20
142.80709132180041
30
0
10
-14.309463703650627
20
142.19349211512105
30
0
10
-14.509745164532465
20
140.97273188252285
30
0
10
-14.806439962661855
20
139.16090480020151
30
0
10
-15.194453467564566
20
136.78440839354008
30
0
10
-15.665940397319329
20
133.88389252509336
30
0
10
-16.122548293670093
20
131.0604714849521
30
0
10
-16.562822190081089
20
128.32168409581973
30
0
10
-16.985590070966904
20
125.67360308684599
30
0
10
-17.390909838537599
20
123.11592844113964
30
0
10
-17.779835240888563
20
120.64320022547587
30
0
10
-18.078804002935609
20
118.72808386756871
30
0
10
-18.296599532630331
20
117.32506866059931
30
0
10
-18.438984216151354
20
116.40429714271738
30
0
10
-18.509473494814273
20
115.9475542634729
30
0
0
LINE
5
121
100
AcDbEntity
8
0
100
AcDbLine
10
-14.208701699976338
20
142.80709132180041
30
0
11
0
21
142.80709132180041
31
0
0
SPLINE
5
122
100
AcDbEntity
8
0
100
AcDbSpline
70
4
71
5
72
21
73
15
74
0
42
0.000000001
43
0.0000000001
44
0.0000000001
40
0
40
0
40
0
40
0
40
0
40
0
40
0.10000000000000001
40
0.20000000000000001
40
0.30000000000000004
40
0.40000000000000002
40
0.5
40
0.59999999999999998
40
0.69999999999999996
40
0.79999999999999993
40
0.89999999999999991
40
1
40
1
40
1
40
1
40
1
40
1
41
1
41
1
41
1
41
1
41
1
41
1
41
1
41
1
41
1
41
1
41
1
41
1
41
1
41
1
41
1
10
-22.731769739501281
20
66.474097397684474
30
0
10
-22.717485666750328
20
67.325010835146671
30
0
10
-22.682571496313251
20
69.039369846834148
30
0
10
-22.611161627891864
20
71.648505837019783
30
0
10
-22.477249467893348
20
75.203776654268481
30
0
10
-22.241186001418395
20
79.78348121516477
30
0
10
-21.931094295485643
20
84.509376821681371
30
0
10
-21.542166280696339
20
89.390958454330914
30
0
10
-21.074030267476449
20
94.428960126055813
30
0
10
-20.531925093599952
20
99.613036174458045
30
0
10
-19.922404285474851
20
104.93024468863523
30
0
10
-19.38573041775479
20
109.28088975228046
30
0
10
-18.957457719226738
20
112.59475883680766
30
0
10
-18.660678963631721
20
114.82624830823723
30
0
10
-18.509473494814273
20
115.9475542634729
30
0
0
LINE
5
123
100
AcDbEntity
8
0
100
AcDbLine
10
0
20
142.80709132180041
30
0
11
0
21
0
31
0
0
SPLINE
5
124
100
AcDbEntity
8
0
100
AcDbSpline
70
4
71
5
72
21
73
15
74
0
42
0.000000001
43
0.0000000001
44
0.0000000001
40
0
40
0
40
0
40
0
40
0
40
0
40
0.10000000000000001
40
0.20000000000000001
40
0.30000000000000004
40
0.40000000000000002
40
0.5
40
0.59999999999999998
40
0.69999999999999996
40
0.79999999999999993
40
0.89999999999999991
40
1
40
1
40
1
40
1
40
1
40
1
41
1
41
1
41
1
41
1
41
1
41
1
41
1
41
1
41
1
41
1
41
1
41
1
41
1
41
1
41
1
10
20.908629674158373
20
0
30
0
10
20.884766278497395
20
-0.58321200757180158
30
0
10
20.831254511030011
20
-1.7599870131323347
30
0
10
20.733631321183218
20
-3.5562035845647708
30
0
10
20.568190215992463
20
-6.0142794735268605
30
0
10
20.298826143244831
20
-9.1988170292761655
30
0
10
19.962152767728146
20
-12.503790336234612
30
0
10
19.554028056965517
20
-15.936610684844911
30
0
10
19.074610458559302
20
-19.496994566651399
30
0
10
18.528894350115532
20
-23.176005599988919
30
0
10
17.9229107664091
20
-26.962852524599171
30
0
10
17.394332801851263
20
-30.070684964967217
30
0
10
16.97491045484221
20
-32.442693018896371
30
0
10
16.685246491071332
20
-34.042012397798487
30
0
10
16.537902075731957
20
-34.846167555154153
30
0
0
SPLINE
5
125
100
AcDbEntity
8
0
100
AcDbSpline
70
4
71
5
72
21
73
15
74
0
42
0.000000001
43
0.0000000001
44
0.0000000001
40
0
40
0
40
0
40
0
40
0
40
0
40
0.10000000000000001
40
0.20000000000000001
40
0.30000000000000004
40
0.40000000000000002
40
0.5
40
0.59999999999999998
40
0.69999999999999996
40
0.79999999999999993
40
0.89999999999999991
40
1
40
1
40
1
40
1
40
1
40
1
41
1
41
1
41
1
41
1
41
1
41
1
41
1
41
1
41
1
41
1
41
1
41
1
41
1
41
1
41
1
10
16.537902075731957
20
-34.846167555154153
30
0
10
16.523360336612779
20
-34.977714994296058
30
0
10
16.485853096870841
20
-35.236444659275925
30
0
10
16.404319936093522
20
-35.611442990001571
30
0
10
16.244241686213666
20
-36.084822071243366
30
0
10
15.953203967592021
20
-36.629420646445176
30
0
10
15.564820077885168
20
-37.123574203581164
30
0
10
15.074052644091823
20
-37.564672363938257
30
0
10
14.482957747522965
20
-37.953780593749912
30
0
10
13.799480033754524
20
-38.295015827299963
30
0
10
13.032590118783613
20
-38.59302665919261
30
0
10
12.358687290889533
20
-38.80014061836517
30
0
10
11.821602212899748
20
-38.93907085886174
30
0
10
11.449706612180179
20
-39.024519677492499
30
0
10
11.260298879857148
20
-39.065451141809781
30
0
0
SPLINE
5
126
100
AcDbEntity
8
0
100
AcDbSpline
70
4
71
5
72
21
73
15
74
0
42
0.000000001
43
0.0000000001
44
0.0000000001
40
0
40
0
40
0
40
0
40
0
40
0
40
0.10000000000000001
40
0.20000000000000001
40
0.30000000000000004
40
0.40000000000000002
40
0.5
40
0.59999999999999998
40
0.69999999999999996
40
0.79999999999999993
40
0.89999999999999991
40
1
40
1
40
1
40
1
40
1
40
1
41
1
41
1
41
1
41
1
41
1
41
1
41
1
41
1
41
1
41
1
41
1
41
1
41
1
41
1
41
1
10
11.260298879857148
20
-39.065451141809781
30
0
10
11.088975011620892
20
-39.037282326057799
30
0
10
10.750748526613
20
-38.985221701470408
30
0
10
10.256671966325849
20
-38.919961217326119
30
0
10
9.6248709940132464
20
-38.859035182118852
30
0
10
8.8834377612253608
20
-38.829619233222523
30
0
10
8.1956204480528037
20
-38.852069969812874
30
0
10
7.5676951464652662
20
-38.932458724647645
30
0
10
7.00553200728951
20
-39.076464133281846
30
0
10
6.5119945514253317
20
-39.286856293467203
30
0
10
6.0846453282143314
20
-39.561277277045299
30
0
10
5.7925463823566705
20
-39.828970396336331
30
0
10
5.5999041941017813
20
-40.055309904997053
30
0
10
5.4830341057378087
20
-40.217383863775417
30
0
10
5.4274885338439933
20
-40.301216045626127
30
0
0
LINE
5
127
100
AcDbEntity
8
0
100
AcDbLine
10
5.4274885338439933
20
-40.301216045626127
30
0
11
0
21
-40.301216045626127
31
0
0
LINE
5
128
100
AcDbEntity
8
0
100
AcDbLine
10
0
20
-40.301216045626127
30
0
11
0
21
0
31
0
0
SPLINE
5
129
100
AcDbEntity
8
0
100
AcDbSpline
70
4
71
5
72
21
73
15
74
0
42
0.000000001
43
0.0000000001
44
0.0000000001
40
0
40
0
40
0
40
0
40
0
40
0
40
0.10000000000000001
40
0.20000000000000001
40
0.30000000000000004
40
0.40000000000000002
40
0.5
40
0.59999999999999998
40
0.69999999999999996
40
0.79999999999999993
40
0.89999999999999991
40
1
40
1
40
1
40
1
40
1
40
1
41
1
41
1
41
1
41
1
41
1
41
1
41
1
41
1
41
1
41
1
41
1
41
1
41
1
41
1
41
1
10
-20.908629674158373
20
0
30
0
10
-20.884766278497395
20
-0.58321200757180158
30
0
10
-20.831254511030011
20
-1.7599870131323347
30
0
10
-20.733631321183218
20
-3.5562035845647708
30
0
10
-20.568190215992463
20
-6.0142794735268605
30
0
10
-20.298826143244831
20
-9.1988170292761655
30
0
10
-19.962152767728146
20
-12.503790336234612
30
0
10
-19.554028056965517
20
-15.936610684844911
30
0
10
-19.074610458559302
20
-19.496994566651399
30
0
10
-18.528894350115532
20
-23.176005599988919
30
0
10
-17.9229107664091
20
-26.962852524599171
30
0
10
-17.394332801851263
20
-30.070684964967217
30
0
10
-16.97491045484221
20
-32.442693018896371
30
0
10
-16.685246491071332
20
-34.042012397798487
30
0
10
-16.537902075731957
20
-34.846167555154153
30
0
0
SPLINE
5
130
100
AcDbEntity
8
0
100
AcDbSpline
70
4
71
5
72
21
73
15
74
0
42
0.000000001
43
0.0000000001
44
0.0000000001
40
0
40
0
40
0
40
0
40
0
40
0
40
0.10000000000000001
40
0.20000000000000001
40
0.30000000000000004
40
0.40000000000000002
40
0.5
40
0.59999999999999998
40
0.69999999999999996
40
0.79999999999999993
40
0.89999999999999991
40
1
40
1
40
1
40
1
40
1
40
1
41
1
41
1
41
1
41
1
41
1
41
1
41
1
41
1
41
1
41
1
41
1
41
1
41
1
41
1
41
1
10
-16.537902075731957
20
-34.846167555154153
30
0
10
-16.523360336612779
20
-34.977714994296058
30
0
10
-16.485853096870841
20
-35.236444659275925
30
0
10
-16.404319936093522
20
-35.611442990001571
30
0
10
-16.244241686213666
20
-36.084822071243366
30
0
10
-15.953203967592021
20
-36.629420646445176
30
0
10
-15.564820077885168
20
-37.123574203581164
30
0
10
-15.074052644091823
20
-37.564672363938257
30
0
10
-14.482957747522965
20
-37.953780593749912
30
0
10
-13.799480033754524
20
-38.295015827299963
30
0
10
-13.032590118783613
20
-38.59302665919261
30
0
10
-12.358687290889533
20
-38.80014061836517
30
0
10
-11.821602212899748
20
-38.93907085886174
30
0
10
-11.449706612180179
20
-39.024519677492499
30
0
10
-11.260298879857148
20
-39.065451141809781
30
0
0
SPLINE
5
131
100
AcDbEntity
8
0
100
AcDbSpline
70
4
71
5
72
21
73
15
74
0
42
0.000000001
43
0.0000000001
44
0.0000000001
40
0
40
0
40
0
40
0
40
0
40
0
40
0.10000000000000001
40
0.20000000000000001
40
0.30000000000000004
40
0.40000000000000002
40
0.5
40
0.59999999999999998
40
0.69999999999999996
40
0.79999999999999993
40
0.89999999999999991
40
1
40
1
40
1
40
1
40
1
40
1
41
1
41
1
41
1
41
1
41
1
41
1
41
1
41
1
41
1
41
1
41
1
41
1
41
1
41
1
41
1
10
-11.260298879857148
20
-39.065451141809781
30
0
10
-11.088975011620892
20
-39.037282326057799
30
0
10
-10.750748526613
20
-38.985221701470408
30
0
10
-10.256671966325849
20
-38.919961217326119
30
0
10
-9.6248709940132464
20
-38.859035182118852
30
0
10
-8.8834377612253608
20
-38.829619233222523
30
0
10
-8.1956204480528037
20
-38.852069969812874
30
0
10
-7.5676951464652662
20
-38.932458724647645
30
0
10
-7.00553200728951
20
-39.076464133281846
30
0
10
-6.5119945514253317
20
-39.286856293467203
30
0
10
-6.0846453282143314
20
-39.561277277045299
30
0
10
-5.7925463823566705
20
-39.828970396336331
30
0
10
-5.5999041941017813
20
-40.055309904997053
30
0
10
-5.4830341057378087
20
-40.217383863775417
30
0
10
-5.4274885338439933
20
-40.301216045626127
30
0
0
ENDSEC
0
SECTION
2
OBJECTS
0
DICTIONARY
5
C
100
AcDbDictionary
3
ACAD_GROUP
350
D
3
ACAD_MLINESTYLE
350
17
0
DICTIONARY
5
D
100
AcDbDictionary
0
DICTIONARY
5
1A
330
C
100
AcDbDictionary
0
DICTIONARY
5
17
100
AcDbDictionary
0
ENDSEC
0
EOF
