0
SECTION
2
HEADER
9
$INSUNITS
70
4
9
$ACADVER
1
AC1014
9
$HANDSEED
5
FFFF
0
ENDSEC
0
SECTION
2
TABLES
0
TABLE
2
VPORT
5
8
100
AcDbSymbolTable
0
ENDTAB
0
TABLE
2
LTYPE
5
5
100
AcDbSymbolTable
0
LTYPE
5
14
100
AcDbSymbolTableRecord
100
AcDbLinetypeTableRecord
2
BYBLOCK
70
0
0
LTYPE
5
15
100
AcDbSymbolTableRecord
100
AcDbLinetypeTableRecord
2
BYLAYER
70
0
0
ENDTAB
0
TABLE
2
LAYER
5
2
100
AcDbSymbolTable
70
2
0
LAYER
5
50
100
AcDbSymbolTableRecord
100
AcDbLayerTableRecord
2
0
70
0
6
CONTINUOUS
0
ENDTAB
0
TABLE
2
STYLE
5
3
100
AcDbSymbolTable
70
1
0
STYLE
5
11
100
AcDbSymbolTableRecord
100
AcDbTextStyleTableRecord
2
STANDARD
70
0
0
ENDTAB
0
TABLE
2
VIEW
5
6
100
AcDbSymbolTable
70
0
0
ENDTAB
0
TABLE
2
UCS
5
7
100
AcDbSymbolTable
70
0
0
ENDTAB
0
TABLE
2
APPID
5
9
100
AcDbSymbolTable
70
2
0
APPID
5
12
100
AcDbSymbolTableRecord
100
AcDbRegAppTableRecord
2
ACAD
70
0
0
ENDTAB
0
TABLE
2
DIMSTYLE
5
A
100
AcDbSymbolTable
70
1
0
ENDTAB
0
TABLE
2
BLOCK_RECORD
5
1
100
AcDbSymbolTable
70
1
0
BLOCK_RECORD
5
1F
100
AcDbSymbolTableRecord
100
AcDbBlockTableRecord
2
*MODEL_SPACE
0
BLOCK_RECORD
5
1B
100
AcDbSymbolTableRecord
100
AcDbBlockTableRecord
2
*PAPER_SPACE
0
ENDTAB
0
ENDSEC
0
SECTION
2
BLOCKS
0
BLOCK
5
20
100
AcDbEntity
100
AcDbBlockBegin
2
*MODEL_SPACE
0
ENDBLK
5
21
100
AcDbEntity
100
AcDbBlockEnd
0
BLOCK
5
1C
100
AcDbEntity
100
AcDbBlockBegin
2
*PAPER_SPACE
0
ENDBLK
5
1D
100
AcDbEntity
100
AcDbBlockEnd
0
ENDSEC
0
SECTION
2
ENTITIES
0
LWPOLYLINE
5
100
100
AcDbEntity
8
0
100
AcDbPolyline
90
8
70
1
43
0.0
10
14.499999999999977
20
-29.999999999999996
10
-14.500000000000021
20
-29.999999999999993
42
-0.41421356237309548
10
-17.500000000000021
20
-26.999999999999989
10
-17.500000000000018
20
-22.499999999999986
42
-0.4142135623730952
10
-10.000000000000009
20
-14.999999999999991
10
9.9999999999999805
20
-15.000000000000009
42
-0.41421356237309481
10
17.499999999999979
20
-22.500000000000007
10
17.499999999999972
20
-27
42
-0.41421356237309503
0
LWPOLYLINE
5
101
100
AcDbEntity
8
0
100
AcDbPolyline
90
8
70
1
43
0.0
10
-17.499999999999996
20
22.5
10
-17.499999999999996
20
27
42
-0.41421356237309531
10
-14.499999999999996
20
30
10
14.499999999999996
20
29.999999999999993
42
-0.4142135623730957
10
17.5
20
26.999999999999989
10
17.499999999999996
20
22.5
42
-0.41421356237309498
10
9.9999999999999964
20
15
10
-9.9999999999999982
20
15
42
-0.41421356237309503
0
CIRCLE
5
102
100
AcDbEntity
8
0
100
AcDbCircle
10
-24.169999999999959
20
-29.370000000000008
30
0
40
1.5000000000000002
210
-2.4651903288156619e-32
220
-0
230
1
0
CIRCLE
5
103
100
AcDbEntity
8
0
100
AcDbCircle
10
-24.16999999999998
20
45.559999999999988
30
0
40
1.5000000000000002
210
-2.4651903288156619e-32
220
-0
230
1
0
CIRCLE
5
104
100
AcDbEntity
8
0
100
AcDbCircle
10
19.050000000000011
20
-5.240000000000002
30
0
40
1.5000000000000002
210
-2.4651903288156619e-32
220
-0
230
1
0
CIRCLE
5
105
100
AcDbEntity
8
0
100
AcDbCircle
10
-8.8299999999999859
20
-5.3000000000000158
30
0
40
1.5000000000000002
210
-2.4651903288156619e-32
220
-0
230
1
0
CIRCLE
5
106
100
AcDbEntity
8
0
100
AcDbCircle
10
24.13000000000002
20
46.829999999999998
30
0
40
1.5000000000000002
210
-2.4651903288156619e-32
220
-0
230
1
0
CIRCLE
5
107
100
AcDbEntity
8
0
100
AcDbCircle
10
24.130000000000024
20
-35.719999999999999
30
0
40
1.5000000000000002
210
-2.4651903288156619e-32
220
-0
230
1
0
CIRCLE
5
108
100
AcDbEntity
8
0
100
AcDbCircle
10
31.430896423742041
20
31.430896423742034
30
0
40
2.1589999999999998
210
0
220
-0
230
1
0
CIRCLE
5
109
100
AcDbEntity
8
0
100
AcDbCircle
10
-31.430896423742048
20
-31.430896423742041
30
0
40
2.1589999999999998
210
0
220
-0
230
1
0
CIRCLE
5
110
100
AcDbEntity
8
0
100
AcDbCircle
10
-31.430896423742038
20
31.430896423746987
30
0
40
2.1589999999999998
210
0
220
-0
230
1
0
CIRCLE
5
111
100
AcDbEntity
8
0
100
AcDbCircle
10
31.430896423742052
20
-31.430896423742034
30
0
40
2.1589999999999998
210
0
220
-0
230
1
0
ARC
5
112
100
AcDbEntity
8
0
100
AcDbCircle
10
31.769155567468697
20
32.324242294596466
30
0
40
5.0799999999999654
210
0
220
-0
230
1
100
AcDbArc
50
21.385738711882841
51
68.674104579841668
0
LINE
5
113
100
AcDbEntity
8
0
100
AcDbLine
10
33.616610754161577
20
37.05639923759415
30
0
11
30.045310876619777
21
38.450650645879179
31
-1.2325951644078309e-31
0
LINE
5
114
100
AcDbEntity
8
0
100
AcDbLine
10
27.500000000000007
20
42.176758475011233
30
0
11
27.500000000000007
21
49.5
31
0
0
LINE
5
115
100
AcDbEntity
8
0
100
AcDbLine
10
24.500000000000007
20
52.5
30
0
11
-24.499999999999989
21
52.5
31
0
0
LINE
5
116
100
AcDbEntity
8
0
100
AcDbLine
10
-27.499999999999986
20
49.499999999999993
30
0
11
-27.499999999999986
21
42.176758475011241
31
0
0
LINE
5
117
100
AcDbEntity
8
0
100
AcDbLine
10
-30.045310876619745
20
38.450650645879179
30
0
11
-33.616610754161584
21
37.056399237594142
31
0
0
ARC
5
118
100
AcDbEntity
8
0
100
AcDbCircle
10
-31.769155567468697
20
32.324242294596445
30
0
40
5.0799999999999779
210
0
220
0
230
1
100
AcDbArc
50
111.32589542015836
51
158.61426128811689
0
LINE
5
119
100
AcDbEntity
8
0
100
AcDbLine
10
-36.499380332039777
20
34.176639033051323
30
0
11
-41.115724764571127
21
22.388480317783941
31
0
0
ARC
5
120
100
AcDbEntity
8
0
100
AcDbCircle
10
-36.385500000000285
20
20.536083579329162
30
0
40
5.079999999999723
210
0
220
0
230
1
100
AcDbArc
50
158.61426128811698
51
180
0
LINE
5
121
100
AcDbEntity
8
0
100
AcDbLine
10
-41.465500000000013
20
20.536083579329155
30
0
11
-41.465499999999992
21
-20.536083579329162
31
0
0
ARC
5
122
100
AcDbEntity
8
0
100
AcDbCircle
10
-36.385500000000278
20
-20.536083579329162
30
0
40
5.0799999999997159
210
0
220
0
230
1
100
AcDbArc
50
180
51
201.38573871188302
0
LINE
5
123
100
AcDbEntity
8
0
100
AcDbLine
10
-41.115724764571112
20
-22.388480317783937
30
0
11
-36.499380332039777
21
-34.176639033051323
31
0
0
ARC
5
124
100
AcDbEntity
8
0
100
AcDbCircle
10
-31.769155567468697
20
-32.324242294596445
30
0
40
5.0799999999999779
210
0
220
0
230
1
100
AcDbArc
50
201.38573871188308
51
248.67410457984178
0
LINE
5
125
100
AcDbEntity
8
0
100
AcDbLine
10
-33.61661075416157
20
-37.056399237594142
30
0
11
-23.213917911402362
21
-41.117656942997741
31
0
0
ARC
5
126
100
AcDbEntity
8
0
100
AcDbCircle
10
-21.36646272470955
20
-36.385500000000263
30
0
40
5.0799999999997478
210
0
220
0
230
1
100
AcDbArc
50
248.67410457984153
51
270
0
LINE
5
127
100
AcDbEntity
8
0
100
AcDbLine
10
-21.36646272470955
20
-41.465500000000013
30
0
11
21.366462724709567
21
-41.465500000000006
31
0
0
ARC
5
128
100
AcDbEntity
8
0
100
AcDbCircle
10
21.366462724709557
20
-36.385500000000263
30
0
40
5.0799999999997425
210
-0
220
0
230
1
100
AcDbArc
50
270.00000000000011
51
291.32589542015842
0
LINE
5
129
100
AcDbEntity
8
0
100
AcDbLine
10
23.213917911402362
20
-41.117656942997741
30
0
11
33.616610754161584
21
-37.056399237594164
31
0
0
ARC
5
130
100
AcDbEntity
8
0
100
AcDbCircle
10
31.769155567468697
20
-32.324242294596466
30
0
40
5.0799999999999779
210
-0
220
0
230
1
100
AcDbArc
50
291.32589542015836
51
338.61426128811701
0
LINE
5
131
100
AcDbEntity
8
0
100
AcDbLine
10
36.499380332039777
20
-34.17663903305133
30
0
11
41.115724764571141
21
-22.388480317783941
31
0
0
ARC
5
132
100
AcDbEntity
8
0
100
AcDbCircle
10
36.385500000000285
20
-20.536083579329162
30
0
40
5.0799999999997389
210
-0
220
0
230
1
100
AcDbArc
50
-21.385738711882979
51
0
0
LINE
5
133
100
AcDbEntity
8
0
100
AcDbLine
10
41.465500000000013
20
-20.536083579329159
30
0
11
41.465499999999992
21
20.536083579329159
31
0
0
ARC
5
134
100
AcDbEntity
8
0
100
AcDbCircle
10
36.385500000000285
20
20.536083579329162
30
0
40
5.0799999999997114
210
-0
220
0
230
1
100
AcDbArc
50
0
51
21.385738711883032
0
LINE
5
135
100
AcDbEntity
8
0
100
AcDbLine
10
41.115724764571119
20
22.388480317783937
30
0
11
36.49938033203977
21
34.176639033051316
31
0
0
ARC
5
136
100
AcDbEntity
8
0
100
AcDbCircle
10
-24.499999999999996
20
49.499999999999993
30
-2.3263744036642471e-46
40
3.0000000000000071
210
-2.4651903288156602e-32
220
-4.5615184385573894e-48
230
1
100
AcDbArc
50
89.999999999999872
51
180
0
ARC
5
137
100
AcDbEntity
8
0
100
AcDbCircle
10
-31.499999999999986
20
42.176758475011241
30
0
40
4.0000000000000053
210
-2.2963912461251692e-32
220
-8.9652138959757365e-33
230
1
100
AcDbArc
50
-68.674104579841526
51
0
0
ARC
5
138
100
AcDbEntity
8
0
100
AcDbCircle
10
31.500000000000007
20
42.176758475011233
30
0
40
3.9999999999999991
210
0
220
0
230
1
100
AcDbArc
50
180
51
248.67410457984164
0
ARC
5
139
100
AcDbEntity
8
0
100
AcDbCircle
10
24.500000000000021
20
49.500000000000014
30
-2.1253071053552735e-77
40
2.9999999999999893
210
-4.0856873806653642e-78
220
1.0128605595477088e-63
230
1
100
AcDbArc
50
0
51
90.00000000000027
0
CIRCLE
5
140
100
AcDbEntity
8
0
100
AcDbCircle
10
-36.959999999999994
20
-18.760000000000005
30
0
40
1.5000000000000002
210
-2.4651903288156619e-32
220
-0
230
1
0
CIRCLE
5
141
100
AcDbEntity
8
0
100
AcDbCircle
10
36.960000000000008
20
18.760000000000005
30
0
40
1.5000000000000002
210
-2.4651903288156619e-32
220
-0
230
1
0
CIRCLE
5
142
100
AcDbEntity
8
0
100
AcDbCircle
10
36.960000000000008
20
-18.760000000000005
30
0
40
1.5000000000000002
210
-2.4651903288156619e-32
220
-0
230
1
0
CIRCLE
5
143
100
AcDbEntity
8
0
100
AcDbCircle
10
-36.959999999999994
20
18.760000000000005
30
0
40
1.5000000000000002
210
-2.4651903288156619e-32
220
-0
230
1
0
CIRCLE
5
144
100
AcDbEntity
8
0
100
AcDbCircle
10
-18.760000000000002
20
-36.960000000000001
30
0
40
1.5000000000000002
210
-2.4651903288156619e-32
220
-0
230
1
0
CIRCLE
5
145
100
AcDbEntity
8
0
100
AcDbCircle
10
18.760000000000005
20
36.960000000000001
30
0
40
1.5000000000000002
210
-2.4651903288156619e-32
220
-0
230
1
0
CIRCLE
5
146
100
AcDbEntity
8
0
100
AcDbCircle
10
-18.760000000000002
20
36.960000000000001
30
0
40
1.5000000000000002
210
-2.4651903288156619e-32
220
-0
230
1
0
CIRCLE
5
147
100
AcDbEntity
8
0
100
AcDbCircle
10
18.760000000000005
20
-36.960000000000001
30
0
40
1.5000000000000002
210
-2.4651903288156619e-32
220
-0
230
1
0
LWPOLYLINE
5
148
100
AcDbEntity
8
0
100
AcDbPolyline
90
8
70
1
43
0.0
10
-33.749999999999993
20
-11
10
-33.749999999999993
20
11
42
-0.41421356237309465
10
-32.249999999999993
20
12.499999999999998
10
-27.749999999999993
20
12.5
42
-0.41421356237309503
10
-26.249999999999996
20
11
10
-26.25
20
-11
42
-0.41421356237309465
10
-27.75
20
-12.499999999999998
10
-32.25
20
-12.5
42
-0.41421356237309503
0
LWPOLYLINE
5
149
100
AcDbEntity
8
0
100
AcDbPolyline
90
8
70
1
43
0.0
10
26.250000000000004
20
-10.999999999999993
10
26.250000000000007
20
11.000000000000011
42
-0.41421356237309503
10
27.750000000000007
20
12.500000000000009
10
32.250000000000007
20
12.500000000000009
42
-0.41421356237309503
10
33.750000000000007
20
11.000000000000011
10
33.75
20
-10.999999999999993
42
-0.41421356237309503
10
32.25
20
-12.499999999999991
10
27.750000000000004
20
-12.499999999999991
42
-0.41421356237309503
0
ENDSEC
0
SECTION
2
OBJECTS
0
DICTIONARY
5
C
100
AcDbDictionary
3
ACAD_GROUP
350
D
3
ACAD_MLINESTYLE
350
17
0
DICTIONARY
5
D
100
AcDbDictionary
0
DICTIONARY
5
1A
330
C
100
AcDbDictionary
0
DICTIONARY
5
17
100
AcDbDictionary
0
ENDSEC
0
EOF
