0
SECTION
2
HEADER
9
$INSUNITS
70
4
9
$ACADVER
1
AC1014
9
$HANDSEED
5
FFFF
0
ENDSEC
0
SECTION
2
TABLES
0
TABLE
2
VPORT
5
8
100
AcDbSymbolTable
0
ENDTAB
0
TABLE
2
LTYPE
5
5
100
AcDbSymbolTable
0
LTYPE
5
14
100
AcDbSymbolTableRecord
100
AcDbLinetypeTableRecord
2
BYBLOCK
70
0
0
LTYPE
5
15
100
AcDbSymbolTableRecord
100
AcDbLinetypeTableRecord
2
BYLAYER
70
0
0
ENDTAB
0
TABLE
2
LAYER
5
2
100
AcDbSymbolTable
70
2
0
LAYER
5
50
100
AcDbSymbolTableRecord
100
AcDbLayerTableRecord
2
0
70
0
6
CONTINUOUS
0
ENDTAB
0
TABLE
2
STYLE
5
3
100
AcDbSymbolTable
70
1
0
STYLE
5
11
100
AcDbSymbolTableRecord
100
AcDbTextStyleTableRecord
2
STANDARD
70
0
0
ENDTAB
0
TABLE
2
VIEW
5
6
100
AcDbSymbolTable
70
0
0
ENDTAB
0
TABLE
2
UCS
5
7
100
AcDbSymbolTable
70
0
0
ENDTAB
0
TABLE
2
APPID
5
9
100
AcDbSymbolTable
70
2
0
APPID
5
12
100
AcDbSymbolTableRecord
100
AcDbRegAppTableRecord
2
ACAD
70
0
0
ENDTAB
0
TABLE
2
DIMSTYLE
5
A
100
AcDbSymbolTable
70
1
0
ENDTAB
0
TABLE
2
BLOCK_RECORD
5
1
100
AcDbSymbolTable
70
1
0
BLOCK_RECORD
5
1F
100
AcDbSymbolTableRecord
100
AcDbBlockTableRecord
2
*MODEL_SPACE
0
BLOCK_RECORD
5
1B
100
AcDbSymbolTableRecord
100
AcDbBlockTableRecord
2
*PAPER_SPACE
0
ENDTAB
0
ENDSEC
0
SECTION
2
BLOCKS
0
BLOCK
5
20
100
AcDbEntity
100
AcDbBlockBegin
2
*MODEL_SPACE
0
ENDBLK
5
21
100
AcDbEntity
100
AcDbBlockEnd
0
BLOCK
5
1C
100
AcDbEntity
100
AcDbBlockBegin
2
*PAPER_SPACE
0
ENDBLK
5
1D
100
AcDbEntity
100
AcDbBlockEnd
0
ENDSEC
0
SECTION
2
ENTITIES
0
LWPOLYLINE
5
100
100
AcDbEntity
8
0
100
AcDbPolyline
90
8
70
1
43
0.0
10
14.499999999999975
20
-32.500000000000007
10
-14.50000000000002
20
-32.5
42
-0.41421356237309481
10
-17.500000000000018
20
-29.499999999999996
10
-17.500000000000007
20
-19.999999999999993
42
-0.4142135623730952
10
-10
20
-12.499999999999996
10
9.9999999999999893
20
-12.500000000000009
42
-0.41421356237309476
10
17.499999999999982
20
-20.000000000000007
10
17.499999999999979
20
-29.500000000000011
42
-0.41421356237309548
0
LWPOLYLINE
5
101
100
AcDbEntity
8
0
100
AcDbPolyline
90
8
70
1
43
0.0
10
-17.499999999999996
20
20
10
-17.499999999999996
20
29.5
42
-0.41421356237309481
10
-14.5
20
32.5
10
14.500000000000004
20
32.5
42
-0.41421356237309481
10
17.500000000000004
20
29.5
10
17.499999999999996
20
20
42
-0.41421356237309498
10
9.9999999999999964
20
12.500000000000004
10
-9.9999999999999982
20
12.5
42
-0.41421356237309503
0
CIRCLE
5
102
100
AcDbEntity
8
0
100
AcDbCircle
10
-24.169999999999959
20
-29.370000000000008
30
0
40
1.5000000000000002
210
-2.4651903288156619e-32
220
-0
230
1
0
CIRCLE
5
103
100
AcDbEntity
8
0
100
AcDbCircle
10
-24.16999999999998
20
45.559999999999988
30
0
40
1.5000000000000002
210
-2.4651903288156619e-32
220
-0
230
1
0
CIRCLE
5
104
100
AcDbEntity
8
0
100
AcDbCircle
10
19.050000000000011
20
-5.240000000000002
30
0
40
1.5000000000000002
210
-2.4651903288156619e-32
220
-0
230
1
0
CIRCLE
5
105
100
AcDbEntity
8
0
100
AcDbCircle
10
-8.8299999999999859
20
-5.3000000000000158
30
0
40
1.5000000000000002
210
-2.4651903288156619e-32
220
-0
230
1
0
CIRCLE
5
106
100
AcDbEntity
8
0
100
AcDbCircle
10
24.13000000000002
20
46.829999999999998
30
0
40
1.5000000000000002
210
-2.4651903288156619e-32
220
-0
230
1
0
CIRCLE
5
107
100
AcDbEntity
8
0
100
AcDbCircle
10
24.130000000000024
20
-35.719999999999999
30
0
40
1.5000000000000002
210
-2.4651903288156619e-32
220
-0
230
1
0
CIRCLE
5
108
100
AcDbEntity
8
0
100
AcDbCircle
10
31.430896423742041
20
31.430896423742034
30
0
40
2.1589999999999998
210
0
220
-0
230
1
0
CIRCLE
5
109
100
AcDbEntity
8
0
100
AcDbCircle
10
-31.430896423742048
20
-31.430896423742041
30
0
40
2.1589999999999998
210
0
220
-0
230
1
0
CIRCLE
5
110
100
AcDbEntity
8
0
100
AcDbCircle
10
-31.430896423742038
20
31.430896423746987
30
0
40
2.1589999999999998
210
0
220
-0
230
1
0
CIRCLE
5
111
100
AcDbEntity
8
0
100
AcDbCircle
10
31.430896423742052
20
-31.430896423742034
30
0
40
2.1589999999999998
210
0
220
-0
230
1
0
LWPOLYLINE
5
112
100
AcDbEntity
8
0
100
AcDbPolyline
90
28
70
1
43
0.0
10
36.49938033203977
20
34.176639033051316
42
0.20931331328785199
10
33.616610754161577
20
37.05639923759415
10
30.045310876619777
20
38.450650645879172
42
-0.3089498520693465
10
27.500000000000007
20
42.176758475011233
10
27.500000000000007
20
49.5
42
0.41421356237309725
10
24.500000000000007
20
52.5
10
-24.499999999999989
20
52.5
42
0.41421356237309592
10
-27.499999999999986
20
49.499999999999993
10
-27.499999999999982
20
42.176758475011241
42
-0.30894985206934616
10
-30.045310876619745
20
38.450650645879179
10
-33.616610754161584
20
37.056399237594142
42
0.20931331328785052
10
-36.499380332039777
20
34.176639033051323
10
-41.115724764571127
20
22.388480317783941
42
0.093584669289688879
10
-41.465500000000006
20
20.536083579329151
10
-41.465499999999992
20
-20.536083579329162
42
0.093584669289688338
10
-41.115724764571112
20
-22.388480317783937
10
-36.499380332039777
20
-34.176639033051323
42
0.2093133132878513
10
-33.61661075416157
20
-37.056399237594142
10
-23.213917911402362
20
-41.117656942997741
42
0.093321273227025853
10
-21.36646272470955
20
-41.465500000000013
10
21.366462724709567
20
-41.465500000000006
42
0.09332127322702484
10
23.213917911402362
20
-41.117656942997741
10
33.616610754161584
20
-37.056399237594164
42
0.20931331328785119
10
36.499380332039777
20
-34.17663903305133
10
41.115724764571141
20
-22.388480317783941
42
0.093584669289688033
10
41.46550000000002
20
-20.536083579329159
10
41.465499999999992
20
20.536083579329159
42
0.093584669289688338
10
41.115724764571119
20
22.388480317783937
0
CIRCLE
5
113
100
AcDbEntity
8
0
100
AcDbCircle
10
-36.959999999999994
20
-18.760000000000005
30
0
40
1.5000000000000002
210
-2.4651903288156619e-32
220
-0
230
1
0
CIRCLE
5
114
100
AcDbEntity
8
0
100
AcDbCircle
10
36.960000000000008
20
18.760000000000005
30
0
40
1.5000000000000002
210
-2.4651903288156619e-32
220
-0
230
1
0
CIRCLE
5
115
100
AcDbEntity
8
0
100
AcDbCircle
10
36.960000000000008
20
-18.760000000000005
30
0
40
1.5000000000000002
210
-2.4651903288156619e-32
220
-0
230
1
0
CIRCLE
5
116
100
AcDbEntity
8
0
100
AcDbCircle
10
-36.959999999999994
20
18.760000000000005
30
0
40
1.5000000000000002
210
-2.4651903288156619e-32
220
-0
230
1
0
ENDSEC
0
SECTION
2
OBJECTS
0
DICTIONARY
5
C
100
AcDbDictionary
3
ACAD_GROUP
350
D
3
ACAD_MLINESTYLE
350
17
0
DICTIONARY
5
D
100
AcDbDictionary
0
DICTIONARY
5
1A
330
C
100
AcDbDictionary
0
DICTIONARY
5
17
100
AcDbDictionary
0
ENDSEC
0
EOF
