999
"DXF R12 Output" (www.mydxf.blogspot.com)
 0 
SECTION
 2 
HEADER
 9 
$ACADVER
 1 
AC1009
 9 
$EXTMIN
 10 
 0 
 20 
 0 
 9 
$EXTMAX
 10 
 8.5 
 20 
 11 
 0 
ENDSEC
 0 
SECTION
 2 
ENTITIES
0
LINE
8
Layer 1
10
0.793749
20
297.794000
11
-0.793749
21
296.206000
0
LINE
8
Layer 1
10
0.000000
20
298.323000
11
0.000000
21
295.677000
0
LINE
8
Layer 1
10
2.116660
20
295.942000
11
1.058330
21
294.883670
0
LINE
8
Layer 1
10
1.587500
20
296.471000
11
0.529170
21
295.412670
0
LINE
8
Layer 1
10
1.058330
20
297.000000
11
0.000000
21
295.941670
0
LINE
8
0
10
27.964700
20
-32.842200
11
32.731890
21
-27.921250
0
LINE
8
0
10
32.731890
20
-27.921250
11
33.225132
21
-27.583532
0
LINE
8
0
10
33.225132
20
-27.583532
11
33.789969
21
-27.464990
0
LINE
8
0
10
33.789969
20
-27.464990
11
34.358089
21
-27.566642
0
LINE
8
0
10
34.358089
20
-27.566642
11
34.861180
21
-27.889506
0
LINE
8
0
10
34.861180
20
-27.889506
11
35.199850
21
-28.382094
0
LINE
8
0
10
35.199850
20
-28.382094
11
35.319484
21
-28.946701
0
LINE
8
0
10
35.319484
20
-28.946701
11
35.218931
21
-29.515016
0
LINE
8
0
10
35.218931
20
-29.515016
11
34.897040
21
-30.018730
0
LINE
8
0
10
34.897040
20
-30.018730
11
30.129850
21
-34.939680
0
LINE
8
0
10
30.129850
20
-34.939680
11
29.460284
21
-35.342025
0
LINE
8
0
10
29.460284
20
-35.342025
11
28.679241
21
-35.355179
0
LINE
8
0
10
28.679241
20
-35.355179
11
27.996506
21
-34.975610
0
LINE
8
0
10
27.996506
20
-34.975610
11
27.595456
21
-34.305267
0
LINE
8
0
10
27.595456
20
-34.305267
11
27.583812
21
-33.524200
0
LINE
8
0
10
27.583812
20
-33.524200
11
27.964700
21
-32.842200
0
LINE
8
0
10
27.964700
20
-32.842200
11
27.964700
21
-32.842200
0
LINE
8
0
10
-32.837500
20
-32.166300
11
-34.940070
21
-30.129410
0
LINE
8
0
10
-34.940070
20
-30.129410
11
-35.277761
21
-29.636167
0
LINE
8
0
10
-35.277761
20
-29.636167
11
-35.396284
21
-29.071340
0
LINE
8
0
10
-35.396284
20
-29.071340
11
-35.294624
21
-28.503235
0
LINE
8
0
10
-35.294624
20
-28.503235
11
-34.971763
21
-28.000160
0
LINE
8
0
10
-34.971763
20
-28.000160
11
-34.479187
21
-27.661498
0
LINE
8
0
10
-34.479187
20
-27.661498
11
-33.914594
21
-27.541861
0
LINE
8
0
10
-33.914594
20
-27.541861
11
-33.346290
21
-27.642402
0
LINE
8
0
10
-33.346290
20
-27.642402
11
-32.842580
21
-27.964270
0
LINE
8
0
10
-32.842580
20
-27.964270
11
-30.740010
21
-30.001140
0
LINE
8
0
10
-30.740010
20
-30.001140
11
-30.326275
21
-30.290234
0
LINE
8
0
10
-30.326275
20
-30.290234
11
-30.024197
21
-30.694586
0
LINE
8
0
10
-30.024197
20
-30.694586
11
-27.921627
21
-32.731456
0
LINE
8
0
10
-27.921627
20
-32.731456
11
-27.520846
21
-33.400868
0
LINE
8
0
10
-27.520846
20
-33.400868
11
-27.508462
21
-34.180985
0
LINE
8
0
10
-27.508462
20
-34.180985
11
-27.887795
21
-34.862778
0
LINE
8
0
10
-27.887795
20
-34.862778
11
-28.557204
21
-35.263562
0
LINE
8
0
10
-28.557204
20
-35.263562
11
-29.337321
21
-35.275946
0
LINE
8
0
10
-29.337321
20
-35.275946
11
-30.019114
21
-34.896613
0
LINE
8
0
10
-30.019114
20
-34.896613
11
-32.121687
21
-32.859746
0
LINE
8
0
10
-32.121687
20
-32.859746
11
-32.535424
21
-32.570653
0
LINE
8
0
10
-32.535424
20
-32.570653
11
-32.837503
21
-32.166300
0
LINE
8
0
10
-32.837503
20
-32.166300
11
-32.837500
21
-32.166300
0
LINE
8
0
10
32.837500
20
32.167100
11
34.940070
21
30.130210
0
LINE
8
0
10
34.940070
20
30.130210
11
35.277761
21
29.636967
0
LINE
8
0
10
35.277761
20
29.636967
11
35.396284
21
29.072140
0
LINE
8
0
10
35.396284
20
29.072140
11
35.294624
21
28.504035
0
LINE
8
0
10
35.294624
20
28.504035
11
34.971763
21
28.000960
0
LINE
8
0
10
34.971763
20
28.000960
11
34.479187
21
27.662298
0
LINE
8
0
10
34.479187
20
27.662298
11
33.914594
21
27.542661
0
LINE
8
0
10
33.914594
20
27.542661
11
33.346290
21
27.643202
0
LINE
8
0
10
33.346290
20
27.643202
11
32.842580
21
27.965070
0
LINE
8
0
10
32.842580
20
27.965070
11
30.740010
21
30.001940
0
LINE
8
0
10
30.740010
20
30.001940
11
30.326273
21
30.291033
0
LINE
8
0
10
30.326273
20
30.291033
11
30.024194
21
30.695386
0
LINE
8
0
10
30.024194
20
30.695386
11
27.921624
21
32.732266
0
LINE
8
0
10
27.921624
20
32.732266
11
27.520842
21
33.401676
0
LINE
8
0
10
27.520842
20
33.401676
11
27.508460
21
34.181793
0
LINE
8
0
10
27.508460
20
34.181793
11
27.887794
21
34.863586
0
LINE
8
0
10
27.887794
20
34.863586
11
28.557204
21
35.264368
0
LINE
8
0
10
28.557204
20
35.264368
11
29.337321
21
35.276750
0
LINE
8
0
10
29.337321
20
35.276750
11
30.019114
21
34.897416
0
LINE
8
0
10
30.019114
20
34.897416
11
32.121684
21
32.860546
0
LINE
8
0
10
32.121684
20
32.860546
11
32.535418
21
32.571456
0
LINE
8
0
10
32.535418
20
32.571456
11
32.837497
21
32.167108
0
LINE
8
0
10
32.837497
20
32.167108
11
32.837500
21
32.167100
0
LINE
8
0
10
40.004900
20
0.000370
11
39.916238
21
2.666253
0
LINE
8
0
10
39.916238
20
2.666253
11
39.653077
21
5.299403
0
LINE
8
0
10
39.653077
20
5.299403
11
39.219622
21
7.892533
0
LINE
8
0
10
39.219622
20
7.892533
11
38.620083
21
10.438355
0
LINE
8
0
10
38.620083
20
10.438355
11
37.858665
21
12.929582
0
LINE
8
0
10
37.858665
20
12.929582
11
36.939576
21
15.358927
0
LINE
8
0
10
36.939576
20
15.358927
11
35.867024
21
17.719102
0
LINE
8
0
10
35.867024
20
17.719102
11
34.645216
21
20.002820
0
LINE
8
0
10
34.645216
20
20.002820
11
33.278359
21
22.202794
0
LINE
8
0
10
33.278359
20
22.202794
11
31.770660
21
24.311736
0
LINE
8
0
10
31.770660
20
24.311736
11
30.126327
21
26.322359
0
LINE
8
0
10
30.126327
20
26.322359
11
28.349566
21
28.227376
0
LINE
8
0
10
28.349566
20
28.227376
11
26.444586
21
30.019498
0
LINE
8
0
10
26.444586
20
30.019498
11
24.415594
21
31.691440
0
LINE
8
0
10
24.415594
20
31.691440
11
22.266796
21
33.235913
0
LINE
8
0
10
22.266796
20
33.235913
11
20.002400
21
34.645630
0
LINE
8
0
10
20.002400
20
34.645630
11
17.649351
21
35.901796
0
LINE
8
0
10
17.649351
20
35.901796
11
15.237400
21
36.990473
0
LINE
8
0
10
15.237400
20
36.990473
11
12.774959
21
37.911661
0
LINE
8
0
10
12.774959
20
37.911661
11
10.270446
21
38.665360
0
LINE
8
0
10
10.270446
20
38.665360
11
7.732273
21
39.251571
0
LINE
8
0
10
7.732273
20
39.251571
11
5.168857
21
39.670293
0
LINE
8
0
10
5.168857
20
39.670293
11
2.588611
21
39.921526
0
LINE
8
0
10
2.588611
20
39.921526
11
-0.000050
21
40.005270
0
LINE
8
0
10
-0.000050
20
40.005270
11
-2.588711
21
39.921526
0
LINE
8
0
10
-2.588711
20
39.921526
11
-5.168957
21
39.670293
0
LINE
8
0
10
-5.168957
20
39.670293
11
-7.732373
21
39.251571
0
LINE
8
0
10
-7.732373
20
39.251571
11
-10.270546
21
38.665360
0
LINE
8
0
10
-10.270546
20
38.665360
11
-12.775059
21
37.911661
0
LINE
8
0
10
-12.775059
20
37.911661
11
-15.237500
21
36.990473
0
LINE
8
0
10
-15.237500
20
36.990473
11
-17.649451
21
35.901796
0
LINE
8
0
10
-17.649451
20
35.901796
11
-20.002500
21
34.645630
0
LINE
8
0
10
-20.002500
20
34.645630
11
-22.266896
21
33.235913
0
LINE
8
0
10
-22.266896
20
33.235913
11
-24.415694
21
31.691440
0
LINE
8
0
10
-24.415694
20
31.691440
11
-26.444686
21
30.019498
0
LINE
8
0
10
-26.444686
20
30.019498
11
-28.349666
21
28.227376
0
LINE
8
0
10
-28.349666
20
28.227376
11
-30.126425
21
26.322359
0
LINE
8
0
10
-30.126425
20
26.322359
11
-31.770757
21
24.311736
0
LINE
8
0
10
-31.770757
20
24.311736
11
-33.278455
21
22.202794
0
LINE
8
0
10
-33.278455
20
22.202794
11
-34.645310
21
20.002820
0
LINE
8
0
10
-34.645310
20
20.002820
11
-35.867115
21
17.719102
0
LINE
8
0
10
-35.867115
20
17.719102
11
-36.939664
21
15.358927
0
LINE
8
0
10
-36.939664
20
15.358927
11
-37.858749
21
12.929582
0
LINE
8
0
10
-37.858749
20
12.929582
11
-38.620161
21
10.438355
0
LINE
8
0
10
-38.620161
20
10.438355
11
-39.219695
21
7.892533
0
LINE
8
0
10
-39.219695
20
7.892533
11
-39.653143
21
5.299403
0
LINE
8
0
10
-39.653143
20
5.299403
11
-39.916297
21
2.666253
0
LINE
8
0
10
-39.916297
20
2.666253
11
-40.004950
21
0.000370
0
LINE
8
0
10
-40.004950
20
0.000370
11
-39.916293
21
-2.665513
0
LINE
8
0
10
-39.916293
20
-2.665513
11
-39.653135
21
-5.298663
0
LINE
8
0
10
-39.653135
20
-5.298663
11
-39.219684
21
-7.891792
0
LINE
8
0
10
-39.219684
20
-7.891792
11
-38.620147
21
-10.437614
0
LINE
8
0
10
-38.620147
20
-10.437614
11
-37.858732
21
-12.928842
0
LINE
8
0
10
-37.858732
20
-12.928842
11
-36.939645
21
-15.358186
0
LINE
8
0
10
-36.939645
20
-15.358186
11
-35.867095
21
-17.718362
0
LINE
8
0
10
-35.867095
20
-17.718362
11
-34.645288
21
-20.002080
0
LINE
8
0
10
-34.645288
20
-20.002080
11
-33.278432
21
-22.202054
0
LINE
8
0
10
-33.278432
20
-22.202054
11
-31.770734
21
-24.310996
0
LINE
8
0
10
-31.770734
20
-24.310996
11
-30.126401
21
-26.321619
0
LINE
8
0
10
-30.126401
20
-26.321619
11
-28.349641
21
-28.226635
0
LINE
8
0
10
-28.349641
20
-28.226635
11
-26.444661
21
-30.018758
0
LINE
8
0
10
-26.444661
20
-30.018758
11
-24.415669
21
-31.690699
0
LINE
8
0
10
-24.415669
20
-31.690699
11
-22.266871
21
-33.235172
0
LINE
8
0
10
-22.266871
20
-33.235172
11
-20.002475
21
-34.644889
0
LINE
8
0
10
-20.002475
20
-34.644889
11
-17.649426
21
-35.901055
0
LINE
8
0
10
-17.649426
20
-35.901055
11
-15.237475
21
-36.989732
0
LINE
8
0
10
-15.237475
20
-36.989732
11
-12.775034
21
-37.910920
0
LINE
8
0
10
-12.775034
20
-37.910920
11
-10.270521
21
-38.664620
0
LINE
8
0
10
-10.270521
20
-38.664620
11
-7.732348
21
-39.250830
0
LINE
8
0
10
-7.732348
20
-39.250830
11
-5.168932
21
-39.669552
0
LINE
8
0
10
-5.168932
20
-39.669552
11
-2.588686
21
-39.920785
0
LINE
8
0
10
-2.588686
20
-39.920785
11
-0.000025
21
-40.004530
0
LINE
8
0
10
-0.000025
20
-40.004530
11
2.588636
21
-39.920785
0
LINE
8
0
10
2.588636
20
-39.920785
11
5.168882
21
-39.669552
0
LINE
8
0
10
5.168882
20
-39.669552
11
7.732298
21
-39.250830
0
LINE
8
0
10
7.732298
20
-39.250830
11
10.270471
21
-38.664620
0
LINE
8
0
10
10.270471
20
-38.664620
11
12.774984
21
-37.910920
0
LINE
8
0
10
12.774984
20
-37.910920
11
15.237425
21
-36.989732
0
LINE
8
0
10
15.237425
20
-36.989732
11
17.649376
21
-35.901055
0
LINE
8
0
10
17.649376
20
-35.901055
11
20.002425
21
-34.644889
0
LINE
8
0
10
20.002425
20
-34.644889
11
22.266821
21
-33.235172
0
LINE
8
0
10
22.266821
20
-33.235172
11
24.415619
21
-31.690699
0
LINE
8
0
10
24.415619
20
-31.690699
11
26.444611
21
-30.018758
0
LINE
8
0
10
26.444611
20
-30.018758
11
28.349591
21
-28.226635
0
LINE
8
0
10
28.349591
20
-28.226635
11
30.126350
21
-26.321619
0
LINE
8
0
10
30.126350
20
-26.321619
11
31.770682
21
-24.310996
0
LINE
8
0
10
31.770682
20
-24.310996
11
33.278380
21
-22.202054
0
LINE
8
0
10
33.278380
20
-22.202054
11
34.645235
21
-20.002080
0
LINE
8
0
10
34.645235
20
-20.002080
11
35.867040
21
-17.718362
0
LINE
8
0
10
35.867040
20
-17.718362
11
36.939589
21
-15.358186
0
LINE
8
0
10
36.939589
20
-15.358186
11
37.858674
21
-12.928842
0
LINE
8
0
10
37.858674
20
-12.928842
11
38.620086
21
-10.437614
0
LINE
8
0
10
38.620086
20
-10.437614
11
39.219620
21
-7.891792
0
LINE
8
0
10
39.219620
20
-7.891792
11
39.653068
21
-5.298663
0
LINE
8
0
10
39.653068
20
-5.298663
11
39.916222
21
-2.665513
0
LINE
8
0
10
39.916222
20
-2.665513
11
40.004875
21
0.000370
0
LINE
8
0
10
40.004875
20
0.000370
11
40.004900
21
0.000370
0
LINE
8
0
10
-27.964700
20
32.843000
11
-27.585366
21
33.524793
0
LINE
8
0
10
-27.585366
20
33.524793
11
-27.597748
21
34.304910
0
LINE
8
0
10
-27.597748
20
34.304910
11
-27.998530
21
34.974320
0
LINE
8
0
10
-27.998530
20
34.974320
11
-28.680323
21
35.353654
0
LINE
8
0
10
-28.680323
20
35.353654
11
-29.460440
21
35.341272
0
LINE
8
0
10
-29.460440
20
35.341272
11
-30.129850
21
34.940490
0
LINE
8
0
10
-30.129850
20
34.940490
11
-32.166720
21
32.837920
0
LINE
8
0
10
-32.166720
20
32.837920
11
-32.571074
21
32.535837
0
LINE
8
0
10
-32.571074
20
32.535837
11
-32.860166
21
32.122096
0
LINE
8
0
10
-32.860166
20
32.122096
11
-34.897036
21
30.019536
0
LINE
8
0
10
-34.897036
20
30.019536
11
-35.218927
21
29.515822
0
LINE
8
0
10
-35.218927
20
29.515822
11
-35.319480
21
28.947507
0
LINE
8
0
10
-35.319480
20
28.947507
11
-35.199846
21
28.382900
0
LINE
8
0
10
-35.199846
20
28.382900
11
-34.861176
21
27.890312
0
LINE
8
0
10
-34.861176
20
27.890312
11
-34.358085
21
27.567448
0
LINE
8
0
10
-34.358085
20
27.567448
11
-33.789965
21
27.465796
0
LINE
8
0
10
-33.789965
20
27.465796
11
-33.225128
21
27.584338
0
LINE
8
0
10
-33.225128
20
27.584338
11
-32.731886
21
27.922056
0
LINE
8
0
10
-32.731886
20
27.922056
11
-30.695016
21
30.024616
0
LINE
8
0
10
-30.695016
20
30.024616
11
-30.290665
21
30.326689
0
LINE
8
0
10
-30.290665
20
30.326689
11
-30.001570
21
30.740419
0
LINE
8
0
10
-30.001570
20
30.740419
11
-27.964700
21
32.843000
0
LINE
8
0
10
-34.897000
20
30.019500
11
-35.218891
21
29.515786
0
LINE
8
0
10
-35.218891
20
29.515786
11
-35.319444
21
28.947471
0
LINE
8
0
10
-35.319444
20
28.947471
11
-35.199810
21
28.382864
0
LINE
8
0
10
-35.199810
20
28.382864
11
-34.861140
21
27.890276
0
LINE
8
0
10
-34.861140
20
27.890276
11
-34.358049
21
27.567412
0
LINE
8
0
10
-34.358049
20
27.567412
11
-33.789929
21
27.465760
0
LINE
8
0
10
-33.789929
20
27.465760
11
-33.225092
21
27.584302
0
LINE
8
0
10
-33.225092
20
27.584302
11
-32.731850
21
27.922020
0
LINE
8
0
10
-32.731850
20
27.922020
11
-30.694980
21
30.024580
0
LINE
8
0
10
-30.694980
20
30.024580
11
-30.290629
21
30.326653
0
LINE
8
0
10
-30.290629
20
30.326653
11
-30.001534
21
30.740383
0
LINE
8
0
10
-30.001534
20
30.740383
11
-27.964664
21
32.842973
0
LINE
8
0
10
-27.964664
20
32.842973
11
-27.641520
21
33.346776
0
LINE
8
0
10
-27.641520
20
33.346776
11
-27.540169
21
33.915639
0
LINE
8
0
10
-27.540169
20
33.915639
11
-27.659523
21
34.481000
0
LINE
8
0
10
-27.659523
20
34.481000
11
-27.998494
21
34.974293
0
LINE
8
0
10
-27.998494
20
34.974293
11
-28.502297
21
35.297437
0
LINE
8
0
10
-28.502297
20
35.297437
11
-29.071160
21
35.398788
0
LINE
8
0
10
-29.071160
20
35.398788
11
-29.636521
21
35.279434
0
LINE
8
0
10
-29.636521
20
35.279434
11
-30.129814
21
34.940463
0
LINE
8
0
10
-30.129814
20
34.940463
11
-32.166684
21
32.837893
0
LINE
8
0
10
-32.166684
20
32.837893
11
-32.571038
21
32.535810
0
LINE
8
0
10
-32.571038
20
32.535810
11
-32.860130
21
32.122069
0
LINE
8
0
10
-32.860130
20
32.122069
11
-34.897000
21
30.019500
0
LINE
8
0
10
27.921600
20
32.732300
11
30.024170
21
30.695420
0
LINE
8
0
10
30.024170
20
30.695420
11
30.326249
21
30.291067
0
LINE
8
0
10
30.326249
20
30.291067
11
30.739986
21
30.001974
0
LINE
8
0
10
30.739986
20
30.001974
11
32.842556
21
27.965104
0
LINE
8
0
10
32.842556
20
27.965104
11
33.346266
21
27.643236
0
LINE
8
0
10
33.346266
20
27.643236
11
33.914570
21
27.542695
0
LINE
8
0
10
33.914570
20
27.542695
11
34.479163
21
27.662332
0
LINE
8
0
10
34.479163
20
27.662332
11
34.971739
21
28.000994
0
LINE
8
0
10
34.971739
20
28.000994
11
35.294600
21
28.504069
0
LINE
8
0
10
35.294600
20
28.504069
11
35.396260
21
29.072174
0
LINE
8
0
10
35.396260
20
29.072174
11
35.277737
21
29.637001
0
LINE
8
0
10
35.277737
20
29.637001
11
34.940046
21
30.130244
0
LINE
8
0
10
34.940046
20
30.130244
11
32.837476
21
32.167134
0
LINE
8
0
10
32.837476
20
32.167134
11
32.535397
21
32.571482
0
LINE
8
0
10
32.535397
20
32.571482
11
32.121663
21
32.860572
0
LINE
8
0
10
32.121663
20
32.860572
11
30.019093
21
34.897442
0
LINE
8
0
10
30.019093
20
34.897442
11
29.337300
21
35.276776
0
LINE
8
0
10
29.337300
20
35.276776
11
28.557183
21
35.264394
0
LINE
8
0
10
28.557183
20
35.264394
11
27.887773
21
34.863612
0
LINE
8
0
10
27.887773
20
34.863612
11
27.508439
21
34.181819
0
LINE
8
0
10
27.508439
20
34.181819
11
27.520821
21
33.401702
0
LINE
8
0
10
27.520821
20
33.401702
11
27.921603
21
32.732292
0
LINE
8
0
10
27.921603
20
32.732292
11
27.921600
21
32.732300
0
LINE
8
0
10
-27.921600
20
-32.731500
11
-30.024170
21
-30.694630
0
LINE
8
0
10
-30.024170
20
-30.694630
11
-30.326248
21
-30.290278
0
LINE
8
0
10
-30.326248
20
-30.290278
11
-30.739983
21
-30.001184
0
LINE
8
0
10
-30.739983
20
-30.001184
11
-32.842553
21
-27.964314
0
LINE
8
0
10
-32.842553
20
-27.964314
11
-33.524556
21
-27.583392
0
LINE
8
0
10
-33.524556
20
-27.583392
11
-34.305641
21
-27.595018
0
LINE
8
0
10
-34.305641
20
-27.595018
11
-34.976004
21
-27.996070
0
LINE
8
0
10
-34.976004
20
-27.996070
11
-35.355581
21
-28.678822
0
LINE
8
0
10
-35.355581
20
-28.678822
11
-35.342415
21
-29.459883
0
LINE
8
0
10
-35.342415
20
-29.459883
11
-34.940043
21
-30.129454
0
LINE
8
0
10
-34.940043
20
-30.129454
11
-32.837473
21
-32.166344
0
LINE
8
0
10
-32.837473
20
-32.166344
11
-32.535394
21
-32.570697
0
LINE
8
0
10
-32.535394
20
-32.570697
11
-32.121657
21
-32.859790
0
LINE
8
0
10
-32.121657
20
-32.859790
11
-30.019087
21
-34.896660
0
LINE
8
0
10
-30.019087
20
-34.896660
11
-29.337291
21
-35.275991
0
LINE
8
0
10
-29.337291
20
-35.275991
11
-28.557174
21
-35.263606
0
LINE
8
0
10
-28.557174
20
-35.263606
11
-27.887765
21
-34.862822
0
LINE
8
0
10
-27.887765
20
-34.862822
11
-27.508432
21
-34.181029
0
LINE
8
0
10
-27.508432
20
-34.181029
11
-27.520816
21
-33.400912
0
LINE
8
0
10
-27.520816
20
-33.400912
11
-27.921600
21
-32.731503
0
LINE
8
0
10
-27.921600
20
-32.731503
11
-27.921600
21
-32.731500
0
LINE
8
0
10
30.129800
20
-34.939700
11
34.896990
21
-30.018750
0
LINE
8
0
10
34.896990
20
-30.018750
11
35.218881
21
-29.515036
0
LINE
8
0
10
35.218881
20
-29.515036
11
35.319434
21
-28.946721
0
LINE
8
0
10
35.319434
20
-28.946721
11
35.199800
21
-28.382114
0
LINE
8
0
10
35.199800
20
-28.382114
11
34.861130
21
-27.889526
0
LINE
8
0
10
34.861130
20
-27.889526
11
34.358039
21
-27.566662
0
LINE
8
0
10
34.358039
20
-27.566662
11
33.789919
21
-27.465010
0
LINE
8
0
10
33.789919
20
-27.465010
11
33.225082
21
-27.583552
0
LINE
8
0
10
33.225082
20
-27.583552
11
32.731840
21
-27.921270
0
LINE
8
0
10
32.731840
20
-27.921270
11
27.964650
21
-32.842220
0
LINE
8
0
10
27.964650
20
-32.842220
11
27.642759
21
-33.345934
0
LINE
8
0
10
27.642759
20
-33.345934
11
27.542206
21
-33.914249
0
LINE
8
0
10
27.542206
20
-33.914249
11
27.661840
21
-34.478856
0
LINE
8
0
10
27.661840
20
-34.478856
11
28.000510
21
-34.971444
0
LINE
8
0
10
28.000510
20
-34.971444
11
28.503601
21
-35.294308
0
LINE
8
0
10
28.503601
20
-35.294308
11
29.071721
21
-35.395960
0
LINE
8
0
10
29.071721
20
-35.395960
11
29.636558
21
-35.277418
0
LINE
8
0
10
29.636558
20
-35.277418
11
30.129800
21
-34.939700
0
LINE
8
0
10
30.129800
20
-34.939700
11
30.129800
21
-34.939700
0
LINE
8
0
10
40.004900
20
0.000370
11
39.916238
21
2.666253
0
LINE
8
0
10
39.916238
20
2.666253
11
39.653077
21
5.299403
0
LINE
8
0
10
39.653077
20
5.299403
11
39.219622
21
7.892533
0
LINE
8
0
10
39.219622
20
7.892533
11
38.620083
21
10.438355
0
LINE
8
0
10
38.620083
20
10.438355
11
37.858665
21
12.929582
0
LINE
8
0
10
37.858665
20
12.929582
11
36.939576
21
15.358927
0
LINE
8
0
10
36.939576
20
15.358927
11
35.867024
21
17.719102
0
LINE
8
0
10
35.867024
20
17.719102
11
34.645216
21
20.002820
0
LINE
8
0
10
34.645216
20
20.002820
11
33.278359
21
22.202794
0
LINE
8
0
10
33.278359
20
22.202794
11
31.770660
21
24.311736
0
LINE
8
0
10
31.770660
20
24.311736
11
30.126327
21
26.322359
0
LINE
8
0
10
30.126327
20
26.322359
11
28.349566
21
28.227376
0
LINE
8
0
10
28.349566
20
28.227376
11
26.444586
21
30.019498
0
LINE
8
0
10
26.444586
20
30.019498
11
24.415594
21
31.691440
0
LINE
8
0
10
24.415594
20
31.691440
11
22.266796
21
33.235913
0
LINE
8
0
10
22.266796
20
33.235913
11
20.002400
21
34.645630
0
LINE
8
0
10
20.002400
20
34.645630
11
17.649351
21
35.901796
0
LINE
8
0
10
17.649351
20
35.901796
11
15.237400
21
36.990473
0
LINE
8
0
10
15.237400
20
36.990473
11
12.774959
21
37.911661
0
LINE
8
0
10
12.774959
20
37.911661
11
10.270446
21
38.665360
0
LINE
8
0
10
10.270446
20
38.665360
11
7.732273
21
39.251571
0
LINE
8
0
10
7.732273
20
39.251571
11
5.168857
21
39.670293
0
LINE
8
0
10
5.168857
20
39.670293
11
2.588611
21
39.921526
0
LINE
8
0
10
2.588611
20
39.921526
11
-0.000050
21
40.005270
0
LINE
8
0
10
-0.000050
20
40.005270
11
-2.588711
21
39.921526
0
LINE
8
0
10
-2.588711
20
39.921526
11
-5.168957
21
39.670293
0
LINE
8
0
10
-5.168957
20
39.670293
11
-7.732373
21
39.251571
0
LINE
8
0
10
-7.732373
20
39.251571
11
-10.270546
21
38.665360
0
LINE
8
0
10
-10.270546
20
38.665360
11
-12.775059
21
37.911661
0
LINE
8
0
10
-12.775059
20
37.911661
11
-15.237500
21
36.990473
0
LINE
8
0
10
-15.237500
20
36.990473
11
-17.649451
21
35.901796
0
LINE
8
0
10
-17.649451
20
35.901796
11
-20.002500
21
34.645630
0
LINE
8
0
10
-20.002500
20
34.645630
11
-22.266896
21
33.235913
0
LINE
8
0
10
-22.266896
20
33.235913
11
-24.415694
21
31.691440
0
LINE
8
0
10
-24.415694
20
31.691440
11
-26.444686
21
30.019498
0
LINE
8
0
10
-26.444686
20
30.019498
11
-28.349666
21
28.227376
0
LINE
8
0
10
-28.349666
20
28.227376
11
-30.126425
21
26.322359
0
LINE
8
0
10
-30.126425
20
26.322359
11
-31.770757
21
24.311736
0
LINE
8
0
10
-31.770757
20
24.311736
11
-33.278455
21
22.202794
0
LINE
8
0
10
-33.278455
20
22.202794
11
-34.645310
21
20.002820
0
LINE
8
0
10
-34.645310
20
20.002820
11
-35.867115
21
17.719102
0
LINE
8
0
10
-35.867115
20
17.719102
11
-36.939664
21
15.358927
0
LINE
8
0
10
-36.939664
20
15.358927
11
-37.858749
21
12.929582
0
LINE
8
0
10
-37.858749
20
12.929582
11
-38.620161
21
10.438355
0
LINE
8
0
10
-38.620161
20
10.438355
11
-39.219695
21
7.892533
0
LINE
8
0
10
-39.219695
20
7.892533
11
-39.653143
21
5.299403
0
LINE
8
0
10
-39.653143
20
5.299403
11
-39.916297
21
2.666253
0
LINE
8
0
10
-39.916297
20
2.666253
11
-40.004950
21
0.000370
0
LINE
8
0
10
-40.004950
20
0.000370
11
-39.916293
21
-2.665513
0
LINE
8
0
10
-39.916293
20
-2.665513
11
-39.653135
21
-5.298663
0
LINE
8
0
10
-39.653135
20
-5.298663
11
-39.219684
21
-7.891792
0
LINE
8
0
10
-39.219684
20
-7.891792
11
-38.620147
21
-10.437614
0
LINE
8
0
10
-38.620147
20
-10.437614
11
-37.858732
21
-12.928842
0
LINE
8
0
10
-37.858732
20
-12.928842
11
-36.939645
21
-15.358186
0
LINE
8
0
10
-36.939645
20
-15.358186
11
-35.867095
21
-17.718362
0
LINE
8
0
10
-35.867095
20
-17.718362
11
-34.645288
21
-20.002080
0
LINE
8
0
10
-34.645288
20
-20.002080
11
-33.278432
21
-22.202054
0
LINE
8
0
10
-33.278432
20
-22.202054
11
-31.770734
21
-24.310996
0
LINE
8
0
10
-31.770734
20
-24.310996
11
-30.126401
21
-26.321619
0
LINE
8
0
10
-30.126401
20
-26.321619
11
-28.349641
21
-28.226635
0
LINE
8
0
10
-28.349641
20
-28.226635
11
-26.444661
21
-30.018758
0
LINE
8
0
10
-26.444661
20
-30.018758
11
-24.415669
21
-31.690699
0
LINE
8
0
10
-24.415669
20
-31.690699
11
-22.266871
21
-33.235172
0
LINE
8
0
10
-22.266871
20
-33.235172
11
-20.002475
21
-34.644889
0
LINE
8
0
10
-20.002475
20
-34.644889
11
-17.649426
21
-35.901055
0
LINE
8
0
10
-17.649426
20
-35.901055
11
-15.237475
21
-36.989732
0
LINE
8
0
10
-15.237475
20
-36.989732
11
-12.775034
21
-37.910920
0
LINE
8
0
10
-12.775034
20
-37.910920
11
-10.270521
21
-38.664620
0
LINE
8
0
10
-10.270521
20
-38.664620
11
-7.732348
21
-39.250830
0
LINE
8
0
10
-7.732348
20
-39.250830
11
-5.168932
21
-39.669552
0
LINE
8
0
10
-5.168932
20
-39.669552
11
-2.588686
21
-39.920785
0
LINE
8
0
10
-2.588686
20
-39.920785
11
-0.000025
21
-40.004530
0
LINE
8
0
10
-0.000025
20
-40.004530
11
2.588636
21
-39.920785
0
LINE
8
0
10
2.588636
20
-39.920785
11
5.168882
21
-39.669552
0
LINE
8
0
10
5.168882
20
-39.669552
11
7.732298
21
-39.250830
0
LINE
8
0
10
7.732298
20
-39.250830
11
10.270471
21
-38.664620
0
LINE
8
0
10
10.270471
20
-38.664620
11
12.774984
21
-37.910920
0
LINE
8
0
10
12.774984
20
-37.910920
11
15.237425
21
-36.989732
0
LINE
8
0
10
15.237425
20
-36.989732
11
17.649376
21
-35.901055
0
LINE
8
0
10
17.649376
20
-35.901055
11
20.002425
21
-34.644889
0
LINE
8
0
10
20.002425
20
-34.644889
11
22.266821
21
-33.235172
0
LINE
8
0
10
22.266821
20
-33.235172
11
24.415619
21
-31.690699
0
LINE
8
0
10
24.415619
20
-31.690699
11
26.444611
21
-30.018758
0
LINE
8
0
10
26.444611
20
-30.018758
11
28.349591
21
-28.226635
0
LINE
8
0
10
28.349591
20
-28.226635
11
30.126350
21
-26.321619
0
LINE
8
0
10
30.126350
20
-26.321619
11
31.770682
21
-24.310996
0
LINE
8
0
10
31.770682
20
-24.310996
11
33.278380
21
-22.202054
0
LINE
8
0
10
33.278380
20
-22.202054
11
34.645235
21
-20.002080
0
LINE
8
0
10
34.645235
20
-20.002080
11
35.867040
21
-17.718362
0
LINE
8
0
10
35.867040
20
-17.718362
11
36.939589
21
-15.358186
0
LINE
8
0
10
36.939589
20
-15.358186
11
37.858674
21
-12.928842
0
LINE
8
0
10
37.858674
20
-12.928842
11
38.620086
21
-10.437614
0
LINE
8
0
10
38.620086
20
-10.437614
11
39.219620
21
-7.891792
0
LINE
8
0
10
39.219620
20
-7.891792
11
39.653068
21
-5.298663
0
LINE
8
0
10
39.653068
20
-5.298663
11
39.916222
21
-2.665513
0
LINE
8
0
10
39.916222
20
-2.665513
11
40.004875
21
0.000370
0
LINE
8
0
10
40.004875
20
0.000370
11
40.004900
21
0.000370
 0 
ENDSEC
 0 
EOF