999
"DXF R12 Output" (www.mydxf.blogspot.com)
 0 
SECTION
 2 
HEADER
 9 
$ACADVER
 1 
AC1009
 9 
$EXTMIN
 10 
 0 
 20 
 0 
 9 
$EXTMAX
 10 
 8.5 
 20 
 11 
 0 
ENDSEC
 0 
SECTION
 2 
ENTITIES
0
LINE
8
Layer 1
10
0.793749
20
297.794000
11
-0.793749
21
296.206000
0
LINE
8
Layer 1
10
0.000000
20
298.323000
11
0.000000
21
295.677000
0
LINE
8
Layer 1
10
2.116660
20
295.942000
11
1.058330
21
294.883670
0
LINE
8
Layer 1
10
1.587500
20
296.471000
11
0.529170
21
295.412670
0
LINE
8
Layer 1
10
1.058330
20
297.000000
11
0.000000
21
295.941670
0
LINE
8
0
10
-29.271900
20
31.431200
11
-29.561151
21
32.510700
0
LINE
8
0
10
-29.561151
20
32.510700
11
-30.351400
21
33.300949
0
LINE
8
0
10
-30.351400
20
33.300949
11
-31.430900
21
33.590200
0
LINE
8
0
10
-31.430900
20
33.590200
11
-32.510400
21
33.300949
0
LINE
8
0
10
-32.510400
20
33.300949
11
-33.300649
21
32.510700
0
LINE
8
0
10
-33.300649
20
32.510700
11
-33.589900
21
31.431200
0
LINE
8
0
10
-33.589900
20
31.431200
11
-33.300649
21
30.351700
0
LINE
8
0
10
-33.300649
20
30.351700
11
-32.510400
21
29.561451
0
LINE
8
0
10
-32.510400
20
29.561451
11
-31.430900
21
29.272200
0
LINE
8
0
10
-31.430900
20
29.272200
11
-30.351400
21
29.561451
0
LINE
8
0
10
-30.351400
20
29.561451
11
-29.561151
21
30.351700
0
LINE
8
0
10
-29.561151
20
30.351700
11
-29.271900
21
31.431200
0
LINE
8
0
10
-29.271900
20
31.431200
11
-29.271900
21
31.431200
0
LINE
8
0
10
33.589900
20
31.431200
11
33.300649
21
32.510700
0
LINE
8
0
10
33.300649
20
32.510700
11
32.510400
21
33.300949
0
LINE
8
0
10
32.510400
20
33.300949
11
31.430900
21
33.590200
0
LINE
8
0
10
31.430900
20
33.590200
11
30.351400
21
33.300949
0
LINE
8
0
10
30.351400
20
33.300949
11
29.561151
21
32.510700
0
LINE
8
0
10
29.561151
20
32.510700
11
29.271900
21
31.431200
0
LINE
8
0
10
29.271900
20
31.431200
11
29.561151
21
30.351700
0
LINE
8
0
10
29.561151
20
30.351700
11
30.351400
21
29.561451
0
LINE
8
0
10
30.351400
20
29.561451
11
31.430900
21
29.272200
0
LINE
8
0
10
31.430900
20
29.272200
11
32.510400
21
29.561451
0
LINE
8
0
10
32.510400
20
29.561451
11
33.300649
21
30.351700
0
LINE
8
0
10
33.300649
20
30.351700
11
33.589900
21
31.431200
0
LINE
8
0
10
33.589900
20
31.431200
11
33.589900
21
31.431200
0
LINE
8
0
10
-28.989400
20
-27.105100
11
-31.582462
21
-24.038527
0
LINE
8
0
10
-31.582462
20
-24.038527
11
-33.814898
21
-20.789766
0
LINE
8
0
10
-33.814898
20
-20.789766
11
-35.687394
21
-17.386126
0
LINE
8
0
10
-35.687394
20
-17.386126
11
-37.200638
21
-13.854913
0
LINE
8
0
10
-37.200638
20
-13.854913
11
-38.355318
21
-10.223433
0
LINE
8
0
10
-38.355318
20
-10.223433
11
-39.152123
21
-6.518993
0
LINE
8
0
10
-39.152123
20
-6.518993
11
-39.591739
21
-2.768901
0
LINE
8
0
10
-39.591739
20
-2.768901
11
-39.674854
21
0.999538
0
LINE
8
0
10
-39.674854
20
0.999538
11
-39.402156
21
4.759015
0
LINE
8
0
10
-39.402156
20
4.759015
11
-38.774332
21
8.482225
0
LINE
8
0
10
-38.774332
20
8.482225
11
-37.792071
21
12.141861
0
LINE
8
0
10
-37.792071
20
12.141861
11
-36.456059
21
15.710615
0
LINE
8
0
10
-36.456059
20
15.710615
11
-34.766986
21
19.161182
0
LINE
8
0
10
-34.766986
20
19.161182
11
-32.725538
21
22.466253
0
LINE
8
0
10
-32.725538
20
22.466253
11
-30.332402
21
25.598523
0
LINE
8
0
10
-30.332402
20
25.598523
11
-27.588268
21
28.530684
0
LINE
8
0
10
-27.588268
20
28.530684
11
-24.565651
21
31.174854
0
LINE
8
0
10
-24.565651
20
31.174854
11
-21.354820
21
33.461505
0
LINE
8
0
10
-21.354820
20
33.461505
11
-17.983089
21
35.390867
0
LINE
8
0
10
-17.983089
20
35.390867
11
-14.477773
21
36.963170
0
LINE
8
0
10
-14.477773
20
36.963170
11
-10.866186
21
38.178642
0
LINE
8
0
10
-10.866186
20
38.178642
11
-7.175642
21
39.037513
0
LINE
8
0
10
-7.175642
20
39.037513
11
-3.433457
21
39.540012
0
LINE
8
0
10
-3.433457
20
39.540012
11
0.333055
21
39.686369
0
LINE
8
0
10
0.333055
20
39.686369
11
4.096580
21
39.476812
0
LINE
8
0
10
4.096580
20
39.476812
11
7.829804
21
38.911571
0
LINE
8
0
10
7.829804
20
38.911571
11
11.505411
21
37.990875
0
LINE
8
0
10
11.505411
20
37.990875
11
15.096088
21
36.714954
0
LINE
8
0
10
15.096088
20
36.714954
11
18.574519
21
35.084036
0
LINE
8
0
10
18.574519
20
35.084036
11
21.913391
21
33.098351
0
LINE
8
0
10
21.913391
20
33.098351
11
25.085388
21
30.758128
0
LINE
8
0
10
25.085388
20
30.758128
11
28.063196
21
28.063596
0
LINE
8
0
10
28.063196
20
28.063596
11
30.757728
21
25.085788
0
LINE
8
0
10
30.757728
20
25.085788
11
33.097951
21
21.913791
0
LINE
8
0
10
33.097951
20
21.913791
11
35.083636
21
18.574919
0
LINE
8
0
10
35.083636
20
18.574919
11
36.714554
21
15.096488
0
LINE
8
0
10
36.714554
20
15.096488
11
37.990475
21
11.505811
0
LINE
8
0
10
37.990475
20
11.505811
11
38.911171
21
7.830204
0
LINE
8
0
10
38.911171
20
7.830204
11
39.476412
21
4.096980
0
LINE
8
0
10
39.476412
20
4.096980
11
39.685969
21
0.333455
0
LINE
8
0
10
39.685969
20
0.333455
11
39.539612
21
-3.433057
0
LINE
8
0
10
39.539612
20
-3.433057
11
39.037113
21
-7.175242
0
LINE
8
0
10
39.037113
20
-7.175242
11
38.178242
21
-10.865786
0
LINE
8
0
10
38.178242
20
-10.865786
11
36.962770
21
-14.477373
0
LINE
8
0
10
36.962770
20
-14.477373
11
35.390467
21
-17.982689
0
LINE
8
0
10
35.390467
20
-17.982689
11
33.461105
21
-21.354420
0
LINE
8
0
10
33.461105
20
-21.354420
11
31.174454
21
-24.565251
0
LINE
8
0
10
31.174454
20
-24.565251
11
28.530284
21
-27.587868
0
LINE
8
0
10
28.530284
20
-27.587868
11
25.598123
21
-30.332002
0
LINE
8
0
10
25.598123
20
-30.332002
11
22.465853
21
-32.725138
0
LINE
8
0
10
22.465853
20
-32.725138
11
19.160782
21
-34.766586
0
LINE
8
0
10
19.160782
20
-34.766586
11
15.710215
21
-36.455659
0
LINE
8
0
10
15.710215
20
-36.455659
11
12.141461
21
-37.791671
0
LINE
8
0
10
12.141461
20
-37.791671
11
8.481825
21
-38.773932
0
LINE
8
0
10
8.481825
20
-38.773932
11
4.758615
21
-39.401756
0
LINE
8
0
10
4.758615
20
-39.401756
11
0.999138
21
-39.674454
0
LINE
8
0
10
0.999138
20
-39.674454
11
-2.769301
21
-39.591339
0
LINE
8
0
10
-2.769301
20
-39.591339
11
-6.519393
21
-39.151723
0
LINE
8
0
10
-6.519393
20
-39.151723
11
-10.223833
21
-38.354918
0
LINE
8
0
10
-10.223833
20
-38.354918
11
-13.855313
21
-37.200238
0
LINE
8
0
10
-13.855313
20
-37.200238
11
-17.386526
21
-35.686994
0
LINE
8
0
10
-17.386526
20
-35.686994
11
-20.790166
21
-33.814498
0
LINE
8
0
10
-20.790166
20
-33.814498
11
-24.038927
21
-31.582062
0
LINE
8
0
10
-24.038927
20
-31.582062
11
-27.105500
21
-28.989000
0
LINE
8
0
10
-27.105500
20
-28.989000
11
-27.789101
21
-28.768617
0
LINE
8
0
10
-27.789101
20
-28.768617
11
-28.356262
21
-28.355862
0
LINE
8
0
10
-28.356262
20
-28.355862
11
-28.769017
21
-27.788701
0
LINE
8
0
10
-28.769017
20
-27.788701
11
-28.989400
21
-27.105100
0
LINE
8
0
10
-28.989400
20
-27.105100
11
-28.989400
21
-27.105100
0
LINE
8
0
10
33.589900
20
-31.430500
11
33.300649
21
-30.351000
0
LINE
8
0
10
33.300649
20
-30.351000
11
32.510400
21
-29.560751
0
LINE
8
0
10
32.510400
20
-29.560751
11
31.430900
21
-29.271500
0
LINE
8
0
10
31.430900
20
-29.271500
11
30.351400
21
-29.560751
0
LINE
8
0
10
30.351400
20
-29.560751
11
29.561151
21
-30.351000
0
LINE
8
0
10
29.561151
20
-30.351000
11
29.271900
21
-31.430500
0
LINE
8
0
10
29.271900
20
-31.430500
11
29.561151
21
-32.510000
0
LINE
8
0
10
29.561151
20
-32.510000
11
30.351400
21
-33.300249
0
LINE
8
0
10
30.351400
20
-33.300249
11
31.430900
21
-33.589500
0
LINE
8
0
10
31.430900
20
-33.589500
11
32.510400
21
-33.300249
0
LINE
8
0
10
32.510400
20
-33.300249
11
33.300649
21
-32.510000
0
LINE
8
0
10
33.300649
20
-32.510000
11
33.589900
21
-31.430500
0
LINE
8
0
10
33.589900
20
-31.430500
11
33.589900
21
-31.430500
 0 
ENDSEC
 0 
EOF