0
SECTION
2
HEADER
9
$INSUNITS
70
1
9
$ACADVER
1
AC1014
9
$HANDSEED
5
FFFF
0
ENDSEC
0
SECTION
2
TABLES
0
TABLE
2
VPORT
5
8
100
AcDbSymbolTable
0
ENDTAB
0
TABLE
2
LTYPE
5
5
100
AcDbSymbolTable
0
LTYPE
5
14
100
AcDbSymbolTableRecord
100
AcDbLinetypeTableRecord
2
BYBLOCK
70
0
0
LTYPE
5
15
100
AcDbSymbolTableRecord
100
AcDbLinetypeTableRecord
2
BYLAYER
70
0
0
ENDTAB
0
TABLE
2
LAYER
5
2
100
AcDbSymbolTable
70
2
0
LAYER
5
50
100
AcDbSymbolTableRecord
100
AcDbLayerTableRecord
2
0
70
0
6
CONTINUOUS
0
ENDTAB
0
TABLE
2
STYLE
5
3
100
AcDbSymbolTable
70
1
0
STYLE
5
11
100
AcDbSymbolTableRecord
100
AcDbTextStyleTableRecord
2
STANDARD
70
0
0
ENDTAB
0
TABLE
2
VIEW
5
6
100
AcDbSymbolTable
70
0
0
ENDTAB
0
TABLE
2
UCS
5
7
100
AcDbSymbolTable
70
0
0
ENDTAB
0
TABLE
2
APPID
5
9
100
AcDbSymbolTable
70
2
0
APPID
5
12
100
AcDbSymbolTableRecord
100
AcDbRegAppTableRecord
2
ACAD
70
0
0
ENDTAB
0
TABLE
2
DIMSTYLE
5
A
100
AcDbSymbolTable
70
1
0
ENDTAB
0
TABLE
2
BLOCK_RECORD
5
1
100
AcDbSymbolTable
70
1
0
BLOCK_RECORD
5
1F
100
AcDbSymbolTableRecord
100
AcDbBlockTableRecord
2
*MODEL_SPACE
0
BLOCK_RECORD
5
1B
100
AcDbSymbolTableRecord
100
AcDbBlockTableRecord
2
*PAPER_SPACE
0
ENDTAB
0
ENDSEC
0
SECTION
2
BLOCKS
0
BLOCK
5
20
100
AcDbEntity
100
AcDbBlockBegin
2
*MODEL_SPACE
0
ENDBLK
5
21
100
AcDbEntity
100
AcDbBlockEnd
0
BLOCK
5
1C
100
AcDbEntity
100
AcDbBlockBegin
2
*PAPER_SPACE
0
ENDBLK
5
1D
100
AcDbEntity
100
AcDbBlockEnd
0
ENDSEC
0
SECTION
2
ENTITIES
0
SPLINE
5
100
100
AcDbEntity
8
0
100
AcDbSpline
70
0
71
3
72
14
73
10
74
0
42
0.000000001
43
0.0000000001
44
0.0000000001
40
-0.50281364657871686
40
-0.50281364657871686
40
-0.50281364657871686
40
-0.50281364657871686
40
0
40
0
40
0
40
19.952688382399099
40
19.952688382399099
40
19.952688382399099
40
24.283954505863022
40
24.283954505863022
40
24.283954505863022
40
24.283954505863022
10
20.616183774818225
20
-8.2356160792841919
30
0
10
20.604335170575663
20
-8.1707025334745946
30
0
10
20.5924865663331
20
-8.1057889876650009
30
0
10
20.580637962090538
20
-8.0408754418554089
30
0
10
20.108153995222903
20
-5.4523334499315377
30
0
10
19.67376551569609
20
-3.2136576917292423
30
0
10
19.272504644492223
20
-1.1360585502865856
30
0
10
19.185375411151952
20
-0.68493153199744938
30
0
10
19.116347740207342
20
-0.32728071280367271
30
0
10
19.053247645413045
20
3.1033793208026025e-15
30
0
0
LINE
5
101
100
AcDbEntity
8
0
100
AcDbLine
10
19.053247645413045
20
3.1310762401030898e-15
30
0
11
-19.053247645413041
21
2.7974123455122052e-15
31
0
0
LINE
5
102
100
AcDbEntity
8
0
100
AcDbLine
10
-20.598185281058292
20
-24
30
0
11
20.598185281058296
21
-24
31
0
0
LINE
5
103
100
AcDbEntity
8
0
100
AcDbLine
10
20.598185281058296
20
-24
30
0
11
20.598029089406396
21
-23.982325976515813
31
0
0
SPLINE
5
104
100
AcDbEntity
8
0
100
AcDbSpline
70
0
71
3
72
14
73
10
74
0
42
0.000000001
43
0.0000000001
44
0.0000000001
40
12.082740777001581
40
12.082740777001581
40
12.082740777001581
40
12.082740777001581
40
25.720911304780639
40
25.720911304780639
40
25.720911304780639
40
51.940101275816396
40
51.940101275816396
40
51.940101275816396
40
52.446955131958639
40
52.446955131958639
40
52.446955131958639
40
52.446955131958639
10
20.598029089406396
20
-23.98232597651581
30
0
10
20.582370217154676
20
-22.210430535573163
30
0
10
20.569240391790299
20
-20.444669225877568
30
0
10
20.562002680264854
20
-18.675547969672412
30
0
10
20.548088446274786
20
-15.274477475344508
30
0
10
20.555938758792923
20
-11.826857707871682
30
0
10
20.612863387576958
20
-8.4335463591737554
30
0
10
20.613970183324042
20
-8.3675695992105439
30
0
10
20.61507697907113
20
-8.3015928392473288
30
0
10
20.616183774818211
20
-8.2356160792841315
30
0
0
LINE
5
105
100
AcDbEntity
8
0
100
AcDbLine
10
-19.053247645413041
20
2.7974123455122052e-15
30
0
11
-19.053247645413041
21
-24
31
0
0
LINE
5
106
100
AcDbEntity
8
0
100
AcDbLine
10
19.053247645413045
20
3.1310762401030898e-15
30
0
11
19.053247645413041
21
-24
31
0
0
SPLINE
5
107
100
AcDbEntity
8
0
100
AcDbSpline
70
0
71
3
72
14
73
10
74
0
42
0.000000001
43
0.0000000001
44
0.0000000001
40
-52.446955131958639
40
-52.446955131958639
40
-52.446955131958639
40
-52.446955131958639
40
-51.940101275816396
40
-51.940101275816396
40
-51.940101275816396
40
-25.720911304780639
40
-25.720911304780639
40
-25.720911304780639
40
-12.082740777001581
40
-12.082740777001581
40
-12.082740777001581
40
-12.082740777001581
10
-20.616183774818211
20
-8.2356160792841315
30
0
10
-20.61507697907113
20
-8.3015928392473288
30
0
10
-20.613970183324042
20
-8.3675695992105439
30
0
10
-20.612863387576958
20
-8.4335463591737554
30
0
10
-20.555938758792923
20
-11.826857707871682
30
0
10
-20.548088446274786
20
-15.274477475344508
30
0
10
-20.562002680264854
20
-18.675547969672412
30
0
10
-20.569240391790299
20
-20.444669225877568
30
0
10
-20.582370217154676
20
-22.210430535573163
30
0
10
-20.598029089406396
20
-23.98232597651581
30
0
0
LINE
5
108
100
AcDbEntity
8
0
100
AcDbLine
10
-20.598029089406396
20
-23.982325976515813
30
0
11
-20.598185281058292
21
-24
31
0
0
SPLINE
5
109
100
AcDbEntity
8
0
100
AcDbSpline
70
0
71
3
72
11
73
7
74
0
42
0.000000001
43
0.0000000001
44
0.0000000001
40
-24.283954505863022
40
-24.283954505863022
40
-24.283954505863022
40
-24.283954505863022
40
-19.952688382399099
40
-19.952688382399099
40
-19.952688382399099
40
0
40
0
40
0
40
0
10
-19.053247645413045
20
3.1033793208026025e-15
30
0
10
-19.116347740207342
20
-0.32728071280367271
30
0
10
-19.185375411151952
20
-0.68493153199744938
30
0
10
-19.272504644492223
20
-1.1360585502865856
30
0
10
-19.67376551569609
20
-3.2136576917292423
30
0
10
-20.108153995222903
20
-5.4523334499315377
30
0
10
-20.580637962090538
20
-8.0408754418554089
30
0
0
LINE
5
110
100
AcDbEntity
8
0
100
AcDbLine
10
-20.580637962090538
20
-8.0408754418554089
30
0
11
-20.616183774818211
21
-8.2356160792841315
31
0
0
LINE
5
111
100
AcDbEntity
8
0
100
AcDbLine
10
-19.053247645413041
20
-24
30
0
11
-16.553247645413041
21
-24
31
0
0
LINE
5
112
100
AcDbEntity
8
0
100
AcDbLine
10
-16.553247645413041
20
-24
30
0
11
-16.553247645413038
21
3.1470888887012311e-15
31
0
0
LINE
5
113
100
AcDbEntity
8
0
100
AcDbLine
10
-16.553247645413038
20
3.1470888887012311e-15
30
0
11
-19.053247645413038
21
3.1470888887012311e-15
31
0
0
LINE
5
114
100
AcDbEntity
8
0
100
AcDbLine
10
-19.053247645413038
20
3.1470888887012311e-15
30
0
11
-19.053247645413041
21
-24
31
0
0
LWPOLYLINE
5
115
100
AcDbEntity
8
0
100
AcDbPolyline
90
4
70
1
43
0.0
10
16.553247645413041
20
-24
10
19.053247645413041
20
-24
10
19.053247645413041
20
2.7974123455122052e-15
10
16.553247645413041
20
2.7974123455122052e-15
0
LINE
5
116
100
AcDbEntity
8
0
100
AcDbLine
10
-16.553247645413041
20
-24
30
0
11
16.553247645413045
21
-24
31
0
0
LINE
5
117
100
AcDbEntity
8
0
100
AcDbLine
10
16.553247645413045
20
-24
30
0
11
16.553247645413045
21
-21.500000000000004
31
0
0
LINE
5
118
100
AcDbEntity
8
0
100
AcDbLine
10
16.553247645413045
20
-21.500000000000004
30
0
11
-16.553247645413041
21
-21.499999999999996
31
0
0
LINE
5
119
100
AcDbEntity
8
0
100
AcDbLine
10
-16.553247645413041
20
-21.499999999999996
30
0
11
-16.553247645413041
21
-24
31
0
0
LINE
5
120
100
AcDbEntity
8
0
100
AcDbLine
10
-16.553247645413038
20
3.1470888887012311e-15
30
0
11
16.553247645413045
21
3.1470888887012311e-15
31
0
0
LINE
5
121
100
AcDbEntity
8
0
100
AcDbLine
10
16.553247645413045
20
3.1470888887012311e-15
30
0
11
16.553247645413045
21
-2.499999999999996
31
0
0
LINE
5
122
100
AcDbEntity
8
0
100
AcDbLine
10
16.553247645413045
20
-2.499999999999996
30
0
11
-16.553247645413038
21
-2.499999999999996
31
0
0
LINE
5
123
100
AcDbEntity
8
0
100
AcDbLine
10
-16.553247645413038
20
-2.499999999999996
30
0
11
-16.553247645413038
21
3.1470888887012311e-15
31
0
0
LWPOLYLINE
5
124
100
AcDbEntity
8
0
100
AcDbPolyline
90
4
70
1
43
0.0
10
14.053247645413041
20
-5.9999999999999964
10
-13.053247645413039
20
-5.9999999999999964
10
-13.053247645413036
20
-18.000000000000007
10
14.053247645413045
20
-18.000000000000007
0
LINE
5
125
100
AcDbEntity
8
0
100
AcDbLine
10
-11.553247645413036
20
-7.4999999999999956
30
0
11
-14.553247645413034
21
-7.4999999999999956
31
0
0
LINE
5
126
100
AcDbEntity
8
0
100
AcDbLine
10
-14.553247645413034
20
-7.4999999999999956
30
0
11
-14.553247645413034
21
-4.4999999999999964
31
0
0
LINE
5
127
100
AcDbEntity
8
0
100
AcDbLine
10
-14.553247645413034
20
-4.4999999999999964
30
0
11
-11.553247645413036
21
-4.4999999999999964
31
0
0
LINE
5
128
100
AcDbEntity
8
0
100
AcDbLine
10
-11.553247645413036
20
-4.4999999999999964
30
0
11
-11.553247645413036
21
-7.4999999999999956
31
0
0
LINE
5
129
100
AcDbEntity
8
0
100
AcDbLine
10
-11.553247645413036
20
-7.4999999999999956
30
0
11
-14.553247645413034
21
-4.4999999999999964
31
0
0
LINE
5
130
100
AcDbEntity
8
0
100
AcDbLine
10
-14.553247645413034
20
-7.4999999999999956
30
0
11
-11.553247645413036
21
-4.4999999999999964
31
0
0
LINE
5
131
100
AcDbEntity
8
0
100
AcDbLine
10
15.553247645413041
20
-7.4999999999999956
30
0
11
12.553247645413039
21
-7.4999999999999902
31
0
0
LINE
5
132
100
AcDbEntity
8
0
100
AcDbLine
10
12.553247645413039
20
-7.4999999999999902
30
0
11
12.553247645413039
21
-4.4999999999999929
31
0
0
LINE
5
133
100
AcDbEntity
8
0
100
AcDbLine
10
12.553247645413039
20
-4.4999999999999929
30
0
11
15.553247645413041
21
-4.4999999999999938
31
0
0
LINE
5
134
100
AcDbEntity
8
0
100
AcDbLine
10
15.553247645413041
20
-4.4999999999999938
30
0
11
15.553247645413041
21
-7.4999999999999956
31
0
0
LINE
5
135
100
AcDbEntity
8
0
100
AcDbLine
10
15.553247645413041
20
-7.4999999999999956
30
0
11
12.553247645413039
21
-4.4999999999999929
31
0
0
LINE
5
136
100
AcDbEntity
8
0
100
AcDbLine
10
12.553247645413039
20
-7.4999999999999902
30
0
11
15.553247645413041
21
-4.4999999999999938
31
0
0
LINE
5
137
100
AcDbEntity
8
0
100
AcDbLine
10
15.553247645413041
20
-19.500000000000004
30
0
11
12.553247645413045
21
-19.500000000000004
31
0
0
LINE
5
138
100
AcDbEntity
8
0
100
AcDbLine
10
12.553247645413045
20
-19.500000000000004
30
0
11
12.553247645413045
21
-16.500000000000007
31
0
0
LINE
5
139
100
AcDbEntity
8
0
100
AcDbLine
10
12.553247645413045
20
-16.500000000000007
30
0
11
15.553247645413041
21
-16.500000000000007
31
0
0
LINE
5
140
100
AcDbEntity
8
0
100
AcDbLine
10
15.553247645413041
20
-16.500000000000007
30
0
11
15.553247645413041
21
-19.500000000000004
31
0
0
LINE
5
141
100
AcDbEntity
8
0
100
AcDbLine
10
15.553247645413041
20
-19.500000000000004
30
0
11
12.553247645413045
21
-16.500000000000007
31
0
0
LINE
5
142
100
AcDbEntity
8
0
100
AcDbLine
10
12.553247645413045
20
-19.500000000000004
30
0
11
15.553247645413041
21
-16.500000000000007
31
0
0
LINE
5
143
100
AcDbEntity
8
0
100
AcDbLine
10
-11.553247645413038
20
-19.500000000000004
30
0
11
-14.553247645413036
21
-19.500000000000004
31
0
0
LINE
5
144
100
AcDbEntity
8
0
100
AcDbLine
10
-14.553247645413036
20
-19.500000000000004
30
0
11
-14.553247645413036
21
-16.500000000000007
31
0
0
LINE
5
145
100
AcDbEntity
8
0
100
AcDbLine
10
-14.553247645413036
20
-16.500000000000007
30
0
11
-11.553247645413036
21
-16.500000000000007
31
0
0
LINE
5
146
100
AcDbEntity
8
0
100
AcDbLine
10
-11.553247645413036
20
-16.500000000000007
30
0
11
-11.553247645413038
21
-19.500000000000004
31
0
0
LINE
5
147
100
AcDbEntity
8
0
100
AcDbLine
10
-11.553247645413038
20
-19.500000000000004
30
0
11
-14.553247645413036
21
-16.500000000000007
31
0
0
LINE
5
148
100
AcDbEntity
8
0
100
AcDbLine
10
-14.553247645413036
20
-19.500000000000004
30
0
11
-11.553247645413036
21
-16.500000000000007
31
0
0
ENDSEC
0
SECTION
2
OBJECTS
0
DICTIONARY
5
C
100
AcDbDictionary
3
ACAD_GROUP
350
D
3
ACAD_MLINESTYLE
350
17
0
DICTIONARY
5
D
100
AcDbDictionary
0
DICTIONARY
5
1A
330
C
100
AcDbDictionary
0
DICTIONARY
5
17
100
AcDbDictionary
0
ENDSEC
0
EOF
