0
SECTION
2
HEADER
0
ENDSEC
0
SECTION
2
TABLES
0
TABLE
2
LTYPE
0
LTYPE
72
65
70
64
2
CONTINUOUS
3
______
73
0
40
0
0
ENDTAB
0
TABLE
2
LAYER
0
ENDTAB
0
ENDSEC
0
SECTION
2
ENTITIES
0
CIRCLE
8
0
10
4
20
0
40
2
0
CIRCLE
8
0
10
4
20
0
40
2
0
LINE
8
layer0
10
1.8095317
20
-4.3942797
11
1.7819969
21
-4.268641
0
LINE
8
layer0
10
1.7819969
20
-4.268641
11
1.7606847
21
-4.1473298
0
LINE
8
layer0
10
1.7606847
20
-4.1473298
11
1.7455173
21
-4.033026
0
LINE
8
layer0
10
1.7455173
20
-4.033026
11
1.735632
21
-3.9234103
0
LINE
8
layer0
10
1.735632
20
-3.9234103
11
1.7307246
21
-3.8215869
0
LINE
8
layer0
10
1.7307246
20
-3.8215869
11
1.7301165
21
-3.7255476
0
LINE
8
layer0
10
1.7301165
20
-3.7255476
11
1.7333197
21
-3.6357946
0
LINE
8
layer0
10
1.7333197
20
-3.6357946
11
1.7397897
21
-3.5526317
0
LINE
8
layer0
10
1.7397897
20
-3.5526317
11
1.7597797
21
-3.4099588
0
LINE
8
layer0
10
1.7597797
20
-3.4099588
11
1.7865154
21
-3.2918791
0
LINE
8
layer0
10
1.7865154
20
-3.2918791
11
1.8139723
21
-3.2048554
0
LINE
8
layer0
10
1.8139723
20
-3.2048554
11
1.8398595
21
-3.1416189
0
LINE
8
layer0
10
1.8398595
20
-3.1416189
11
1.9110934
21
-3.0788561
0
LINE
8
layer0
10
1.9110934
20
-3.0788561
11
1.9826314
21
-3.0068938
0
LINE
8
layer0
10
1.9826314
20
-3.0068938
11
2.044574
21
-2.9346134
0
LINE
8
layer0
10
2.044574
20
-2.9346134
11
2.0970484
21
-2.8626935
0
LINE
8
layer0
10
2.0970484
20
-2.8626935
11
2.140196
21
-2.791799
0
LINE
8
layer0
10
2.140196
20
-2.791799
11
2.1742008
21
-2.7225662
0
LINE
8
layer0
10
2.1742008
20
-2.7225662
11
2.1992889
21
-2.6556314
0
LINE
8
layer0
10
2.1992889
20
-2.6556314
11
2.2157292
21
-2.5916312
0
LINE
8
layer0
10
2.2157292
20
-2.5916312
11
2.2238255
21
-2.5311524
0
LINE
8
layer0
10
2.2238255
20
-2.5311524
11
2.2238963
21
-2.4747677
0
LINE
8
layer0
10
2.2238963
20
-2.4747677
11
2.2163231
21
-2.4230428
0
LINE
8
layer0
10
2.2163231
20
-2.4230428
11
2.2015022
21
-2.3765152
0
LINE
8
layer0
10
2.2015022
20
-2.3765152
11
2.1798576
21
-2.3356939
0
LINE
8
layer0
10
2.1798576
20
-2.3356939
11
2.1479388
21
-2.2971707
0
LINE
8
layer0
10
2.1479388
20
-2.2971707
11
1.9863013
21
-2.1558272
0
LINE
8
layer0
10
1.9863013
20
-2.1558272
11
1.914035
21
-2.085965
0
LINE
8
layer0
10
1.914035
20
-2.085965
11
1.8441728
21
-2.0136987
0
LINE
8
layer0
10
1.8441728
20
-2.0136987
11
1.7028293
21
-1.8520612
0
LINE
8
layer0
10
1.7028293
20
-1.8520612
11
1.6643061
21
-1.8201424
0
LINE
8
layer0
10
1.6643061
20
-1.8201424
11
1.6234848
21
-1.7984978
0
LINE
8
layer0
10
1.6234848
20
-1.7984978
11
1.5769572
21
-1.7836769
0
LINE
8
layer0
10
1.5769572
20
-1.7836769
11
1.5252323
21
-1.7761037
0
LINE
8
layer0
10
1.5252323
20
-1.7761037
11
1.4688476
21
-1.7761745
0
LINE
8
layer0
10
1.4688476
20
-1.7761745
11
1.4083688
21
-1.7842708
0
LINE
8
layer0
10
1.4083688
20
-1.7842708
11
1.3443686
21
-1.8007111
0
LINE
8
layer0
10
1.3443686
20
-1.8007111
11
1.2774338
21
-1.8257992
0
LINE
8
layer0
10
1.2774338
20
-1.8257992
11
1.208201
21
-1.859804
0
LINE
8
layer0
10
1.208201
20
-1.859804
11
1.1373065
21
-1.9029516
0
LINE
8
layer0
10
1.1373065
20
-1.9029516
11
1.0653866
21
-1.955426
0
LINE
8
layer0
10
1.0653866
20
-1.955426
11
0.9931062
21
-2.0173686
0
LINE
8
layer0
10
0.9931062
20
-2.0173686
11
0.9211439
21
-2.0889066
0
LINE
8
layer0
10
0.9211439
20
-2.0889066
11
0.8583811
21
-2.1601405
0
LINE
8
layer0
10
0.8583811
20
-2.1601405
11
0.7951446
21
-2.1860277
0
LINE
8
layer0
10
0.7951446
20
-2.1860277
11
0.7081209
21
-2.2134846
0
LINE
8
layer0
10
0.7081209
20
-2.2134846
11
0.5900412
21
-2.2402203
0
LINE
8
layer0
10
0.5900412
20
-2.2402203
11
0.4473683
21
-2.2602103
0
LINE
8
layer0
10
0.4473683
20
-2.2602103
11
0.3642054
21
-2.2666803
0
LINE
8
layer0
10
0.3642054
20
-2.2666803
11
0.2744524
21
-2.2698835
0
LINE
8
layer0
10
0.2744524
20
-2.2698835
11
0.1784131
21
-2.2692754
0
LINE
8
layer0
10
0.1784131
20
-2.2692754
11
0.0765897
21
-2.264368
0
LINE
8
layer0
10
0.0765897
20
-2.264368
11
-0.033026
21
-2.2544827
0
LINE
8
layer0
10
-0.033026
20
-2.2544827
11
-0.1473298
21
-2.2393153
0
LINE
8
layer0
10
-0.1473298
20
-2.2393153
11
-0.268641
21
-2.2180031
0
LINE
8
layer0
10
-0.268641
20
-2.2180031
11
-0.3942797
21
-2.1904683
0
LINE
8
layer0
10
-0.3942797
20
-2.1904683
11
-0.5091519
21
-2.1603431
0
ARC
8
layer0
10
4.0000433
20
0.0000178
40
5
50
199.4008604
51
205.5991376
0
LINE
8
layer0
10
-0.7160451
20
-1.6608586
11
-0.65612
21
-1.55833
0
LINE
8
layer0
10
-0.65612
20
-1.55833
11
-0.58675
21
-1.45002
0
LINE
8
layer0
10
-0.58675
20
-1.45002
11
-0.51604
21
-1.34917
0
LINE
8
layer0
10
-0.51604
20
-1.34917
11
-0.44594
21
-1.25762
0
LINE
8
layer0
10
-0.44594
20
-1.25762
11
-0.37542
21
-1.17312
0
LINE
8
layer0
10
-0.37542
20
-1.17312
11
-0.30689
21
-1.09765
0
LINE
8
layer0
10
-0.30689
20
-1.09765
11
-0.23941
21
-1.02931
0
LINE
8
layer0
10
-0.23941
20
-1.02931
11
-0.17368
21
-0.96811
0
LINE
8
layer0
10
-0.17368
20
-0.96811
11
-0.1103
21
-0.91388
0
LINE
8
layer0
10
-0.1103
20
-0.91388
11
0.00472
21
-0.82713
0
LINE
8
layer0
10
0.00472
20
-0.82713
11
0.10712
21
-0.76254
0
LINE
8
layer0
10
0.10712
20
-0.76254
11
0.18807
21
-0.72042
0
LINE
8
layer0
10
0.18807
20
-0.72042
11
0.25109
21
-0.69401
0
LINE
8
layer0
10
0.25109
20
-0.69401
11
0.34584
21
-0.7
0
LINE
8
layer0
10
0.34584
20
-0.7
11
0.44731
21
-0.6997
0
LINE
8
layer0
10
0.44731
20
-0.6997
11
0.54222
21
-0.69239
0
LINE
8
layer0
10
0.54222
20
-0.69239
11
0.63018
21
-0.67864
0
LINE
8
layer0
10
0.63018
20
-0.67864
11
0.71082
21
-0.65902
0
LINE
8
layer0
10
0.71082
20
-0.65902
11
0.78382
21
-0.63411
0
LINE
8
layer0
10
0.78382
20
-0.63411
11
0.84889
21
-0.60452
0
LINE
8
layer0
10
0.84889
20
-0.60452
11
0.90577
21
-0.57089
0
LINE
8
layer0
10
0.90577
20
-0.57089
11
0.95426
21
-0.53385
0
LINE
8
layer0
10
0.95426
20
-0.53385
11
0.99418
21
-0.49403
0
LINE
8
layer0
10
0.99418
20
-0.49403
11
1.0254
21
-0.4521
0
LINE
8
layer0
10
1.0254
20
-0.4521
11
1.04782
21
-0.40872
0
LINE
8
layer0
10
1.04782
20
-0.40872
11
1.06138
21
-0.36455
0
LINE
8
layer0
10
1.06138
20
-0.36455
11
1.06605
21
-0.31474
0
LINE
8
layer0
10
1.06605
20
-0.31474
11
1.0517
21
-0.1005
0
LINE
8
layer0
10
1.0517
20
-0.1005
11
1.05
21
0
0
LINE
8
layer0
10
1.05
20
0
11
1.0517
21
0.1005
0
LINE
8
layer0
10
1.0517
20
0.1005
11
1.06605
21
0.31474
0
LINE
8
layer0
10
1.06605
20
0.31474
11
1.06138
21
0.36455
0
LINE
8
layer0
10
1.06138
20
0.36455
11
1.04782
21
0.40872
0
LINE
8
layer0
10
1.04782
20
0.40872
11
1.0254
21
0.4521
0
LINE
8
layer0
10
1.0254
20
0.4521
11
0.99418
21
0.49403
0
LINE
8
layer0
10
0.99418
20
0.49403
11
0.95426
21
0.53385
0
LINE
8
layer0
10
0.95426
20
0.53385
11
0.90577
21
0.57089
0
LINE
8
layer0
10
0.90577
20
0.57089
11
0.84889
21
0.60452
0
LINE
8
layer0
10
0.84889
20
0.60452
11
0.78382
21
0.63411
0
LINE
8
layer0
10
0.78382
20
0.63411
11
0.71082
21
0.65902
0
LINE
8
layer0
10
0.71082
20
0.65902
11
0.63018
21
0.67864
0
LINE
8
layer0
10
0.63018
20
0.67864
11
0.54222
21
0.69239
0
LINE
8
layer0
10
0.54222
20
0.69239
11
0.44731
21
0.6997
0
LINE
8
layer0
10
0.44731
20
0.6997
11
0.34584
21
0.7
0
LINE
8
layer0
10
0.34584
20
0.7
11
0.25109
21
0.69401
0
LINE
8
layer0
10
0.25109
20
0.69401
11
0.18807
21
0.72042
0
LINE
8
layer0
10
0.18807
20
0.72042
11
0.10712
21
0.76254
0
LINE
8
layer0
10
0.10712
20
0.76254
11
0.00472
21
0.82713
0
LINE
8
layer0
10
0.00472
20
0.82713
11
-0.1103
21
0.91388
0
LINE
8
layer0
10
-0.1103
20
0.91388
11
-0.17368
21
0.96811
0
LINE
8
layer0
10
-0.17368
20
0.96811
11
-0.23941
21
1.02931
0
LINE
8
layer0
10
-0.23941
20
1.02931
11
-0.30689
21
1.09765
0
LINE
8
layer0
10
-0.30689
20
1.09765
11
-0.37542
21
1.17312
0
LINE
8
layer0
10
-0.37542
20
1.17312
11
-0.44594
21
1.25762
0
LINE
8
layer0
10
-0.44594
20
1.25762
11
-0.51604
21
1.34917
0
LINE
8
layer0
10
-0.51604
20
1.34917
11
-0.58675
21
1.45002
0
LINE
8
layer0
10
-0.58675
20
1.45002
11
-0.65612
21
1.55833
0
LINE
8
layer0
10
-0.65612
20
1.55833
11
-0.7160451
21
1.6608586
0
ARC
8
layer0
10
4.0000433
20
-0.0000179
40
5
50
154.4008624
51
160.5991396
0
LINE
8
layer0
10
-0.5091519
20
2.1603431
11
-0.3942797
21
2.1904683
0
LINE
8
layer0
10
-0.3942797
20
2.1904683
11
-0.268641
21
2.2180031
0
LINE
8
layer0
10
-0.268641
20
2.2180031
11
-0.1473298
21
2.2393153
0
LINE
8
layer0
10
-0.1473298
20
2.2393153
11
-0.033026
21
2.2544827
0
LINE
8
layer0
10
-0.033026
20
2.2544827
11
0.0765897
21
2.264368
0
LINE
8
layer0
10
0.0765897
20
2.264368
11
0.1784131
21
2.2692754
0
LINE
8
layer0
10
0.1784131
20
2.2692754
11
0.2744524
21
2.2698835
0
LINE
8
layer0
10
0.2744524
20
2.2698835
11
0.3642054
21
2.2666803
0
LINE
8
layer0
10
0.3642054
20
2.2666803
11
0.4473683
21
2.2602103
0
LINE
8
layer0
10
0.4473683
20
2.2602103
11
0.5900412
21
2.2402203
0
LINE
8
layer0
10
0.5900412
20
2.2402203
11
0.7081209
21
2.2134846
0
LINE
8
layer0
10
0.7081209
20
2.2134846
11
0.7951446
21
2.1860277
0
LINE
8
layer0
10
0.7951446
20
2.1860277
11
0.8583811
21
2.1601405
0
LINE
8
layer0
10
0.8583811
20
2.1601405
11
0.9211439
21
2.0889066
0
LINE
8
layer0
10
0.9211439
20
2.0889066
11
0.9931062
21
2.0173686
0
LINE
8
layer0
10
0.9931062
20
2.0173686
11
1.0653866
21
1.955426
0
LINE
8
layer0
10
1.0653866
20
1.955426
11
1.1373065
21
1.9029516
0
LINE
8
layer0
10
1.1373065
20
1.9029516
11
1.208201
21
1.859804
0
LINE
8
layer0
10
1.208201
20
1.859804
11
1.2774338
21
1.8257992
0
LINE
8
layer0
10
1.2774338
20
1.8257992
11
1.3443686
21
1.8007111
0
LINE
8
layer0
10
1.3443686
20
1.8007111
11
1.4083688
21
1.7842708
0
LINE
8
layer0
10
1.4083688
20
1.7842708
11
1.4688476
21
1.7761745
0
LINE
8
layer0
10
1.4688476
20
1.7761745
11
1.5252323
21
1.7761037
0
LINE
8
layer0
10
1.5252323
20
1.7761037
11
1.5769572
21
1.7836769
0
LINE
8
layer0
10
1.5769572
20
1.7836769
11
1.6234848
21
1.7984978
0
LINE
8
layer0
10
1.6234848
20
1.7984978
11
1.6643061
21
1.8201424
0
LINE
8
layer0
10
1.6643061
20
1.8201424
11
1.7028293
21
1.8520612
0
LINE
8
layer0
10
1.7028293
20
1.8520612
11
1.8441728
21
2.0136987
0
LINE
8
layer0
10
1.8441728
20
2.0136987
11
1.914035
21
2.085965
0
LINE
8
layer0
10
1.914035
20
2.085965
11
1.9863013
21
2.1558272
0
LINE
8
layer0
10
1.9863013
20
2.1558272
11
2.1479388
21
2.2971707
0
LINE
8
layer0
10
2.1479388
20
2.2971707
11
2.1798576
21
2.3356939
0
LINE
8
layer0
10
2.1798576
20
2.3356939
11
2.2015022
21
2.3765152
0
LINE
8
layer0
10
2.2015022
20
2.3765152
11
2.2163231
21
2.4230428
0
LINE
8
layer0
10
2.2163231
20
2.4230428
11
2.2238963
21
2.4747677
0
LINE
8
layer0
10
2.2238963
20
2.4747677
11
2.2238255
21
2.5311524
0
LINE
8
layer0
10
2.2238255
20
2.5311524
11
2.2157292
21
2.5916312
0
LINE
8
layer0
10
2.2157292
20
2.5916312
11
2.1992889
21
2.6556314
0
LINE
8
layer0
10
2.1992889
20
2.6556314
11
2.1742008
21
2.7225662
0
LINE
8
layer0
10
2.1742008
20
2.7225662
11
2.140196
21
2.791799
0
LINE
8
layer0
10
2.140196
20
2.791799
11
2.0970484
21
2.8626935
0
LINE
8
layer0
10
2.0970484
20
2.8626935
11
2.044574
21
2.9346134
0
LINE
8
layer0
10
2.044574
20
2.9346134
11
1.9826314
21
3.0068938
0
LINE
8
layer0
10
1.9826314
20
3.0068938
11
1.9110934
21
3.0788561
0
LINE
8
layer0
10
1.9110934
20
3.0788561
11
1.8398595
21
3.1416189
0
LINE
8
layer0
10
1.8398595
20
3.1416189
11
1.8139723
21
3.2048554
0
LINE
8
layer0
10
1.8139723
20
3.2048554
11
1.7865154
21
3.2918791
0
LINE
8
layer0
10
1.7865154
20
3.2918791
11
1.7597797
21
3.4099588
0
LINE
8
layer0
10
1.7597797
20
3.4099588
11
1.7397897
21
3.5526317
0
LINE
8
layer0
10
1.7397897
20
3.5526317
11
1.7333197
21
3.6357946
0
LINE
8
layer0
10
1.7333197
20
3.6357946
11
1.7301165
21
3.7255476
0
LINE
8
layer0
10
1.7301165
20
3.7255476
11
1.7307246
21
3.8215869
0
LINE
8
layer0
10
1.7307246
20
3.8215869
11
1.735632
21
3.9234103
0
LINE
8
layer0
10
1.735632
20
3.9234103
11
1.7455173
21
4.033026
0
LINE
8
layer0
10
1.7455173
20
4.033026
11
1.7606847
21
4.1473298
0
LINE
8
layer0
10
1.7606847
20
4.1473298
11
1.7819969
21
4.268641
0
LINE
8
layer0
10
1.7819969
20
4.268641
11
1.8095317
21
4.3942797
0
LINE
8
layer0
10
1.8095317
20
4.3942797
11
1.8396569
21
4.5091519
0
ARC
8
layer0
10
4.0000178
20
-0.0000433
40
5
50
109.4008604
51
115.5991376
0
LINE
8
layer0
10
2.3391414
20
4.7160451
11
2.44167
21
4.65612
0
LINE
8
layer0
10
2.44167
20
4.65612
11
2.54998
21
4.58675
0
LINE
8
layer0
10
2.54998
20
4.58675
11
2.65083
21
4.51604
0
LINE
8
layer0
10
2.65083
20
4.51604
11
2.74238
21
4.44594
0
LINE
8
layer0
10
2.74238
20
4.44594
11
2.82688
21
4.37542
0
LINE
8
layer0
10
2.82688
20
4.37542
11
2.90235
21
4.30689
0
LINE
8
layer0
10
2.90235
20
4.30689
11
2.97069
21
4.23941
0
LINE
8
layer0
10
2.97069
20
4.23941
11
3.03189
21
4.17368
0
LINE
8
layer0
10
3.03189
20
4.17368
11
3.08612
21
4.1103
0
LINE
8
layer0
10
3.08612
20
4.1103
11
3.17287
21
3.99528
0
LINE
8
layer0
10
3.17287
20
3.99528
11
3.23746
21
3.89288
0
LINE
8
layer0
10
3.23746
20
3.89288
11
3.27958
21
3.81193
0
LINE
8
layer0
10
3.27958
20
3.81193
11
3.30599
21
3.74891
0
LINE
8
layer0
10
3.30599
20
3.74891
11
3.3
21
3.65416
0
LINE
8
layer0
10
3.3
20
3.65416
11
3.3003
21
3.55269
0
LINE
8
layer0
10
3.3003
20
3.55269
11
3.30761
21
3.45778
0
LINE
8
layer0
10
3.30761
20
3.45778
11
3.32136
21
3.36982
0
LINE
8
layer0
10
3.32136
20
3.36982
11
3.34098
21
3.28918
0
LINE
8
layer0
10
3.34098
20
3.28918
11
3.36589
21
3.21618
0
LINE
8
layer0
10
3.36589
20
3.21618
11
3.39548
21
3.15111
0
LINE
8
layer0
10
3.39548
20
3.15111
11
3.42911
21
3.09423
0
LINE
8
layer0
10
3.42911
20
3.09423
11
3.46615
21
3.04574
0
LINE
8
layer0
10
3.46615
20
3.04574
11
3.50597
21
3.00582
0
LINE
8
layer0
10
3.50597
20
3.00582
11
3.5479
21
2.9746
0
LINE
8
layer0
10
3.5479
20
2.9746
11
3.59128
21
2.95218
0
LINE
8
layer0
10
3.59128
20
2.95218
11
3.63545
21
2.93862
0
LINE
8
layer0
10
3.63545
20
2.93862
11
3.68526
21
2.93395
0
LINE
8
layer0
10
3.68526
20
2.93395
11
3.8995
21
2.9483
0
LINE
8
layer0
10
3.8995
20
2.9483
11
4
21
2.95
0
LINE
8
layer0
10
4
20
2.95
11
4.1005
21
2.9483
0
LINE
8
layer0
10
4.1005
20
2.9483
11
4.31474
21
2.93395
0
LINE
8
layer0
10
4.31474
20
2.93395
11
4.36455
21
2.93862
0
LINE
8
layer0
10
4.36455
20
2.93862
11
4.40872
21
2.95218
0
LINE
8
layer0
10
4.40872
20
2.95218
11
4.4521
21
2.9746
0
LINE
8
layer0
10
4.4521
20
2.9746
11
4.49403
21
3.00582
0
LINE
8
layer0
10
4.49403
20
3.00582
11
4.53385
21
3.04574
0
LINE
8
layer0
10
4.53385
20
3.04574
11
4.57089
21
3.09423
0
LINE
8
layer0
10
4.57089
20
3.09423
11
4.60452
21
3.15111
0
LINE
8
layer0
10
4.60452
20
3.15111
11
4.63411
21
3.21618
0
LINE
8
layer0
10
4.63411
20
3.21618
11
4.65902
21
3.28918
0
LINE
8
layer0
10
4.65902
20
3.28918
11
4.67864
21
3.36982
0
LINE
8
layer0
10
4.67864
20
3.36982
11
4.69239
21
3.45778
0
LINE
8
layer0
10
4.69239
20
3.45778
11
4.6997
21
3.55269
0
LINE
8
layer0
10
4.6997
20
3.55269
11
4.7
21
3.65416
0
LINE
8
layer0
10
4.7
20
3.65416
11
4.69401
21
3.74891
0
LINE
8
layer0
10
4.69401
20
3.74891
11
4.72042
21
3.81193
0
LINE
8
layer0
10
4.72042
20
3.81193
11
4.76254
21
3.89288
0
LINE
8
layer0
10
4.76254
20
3.89288
11
4.82713
21
3.99528
0
LINE
8
layer0
10
4.82713
20
3.99528
11
4.91388
21
4.1103
0
LINE
8
layer0
10
4.91388
20
4.1103
11
4.96811
21
4.17368
0
LINE
8
layer0
10
4.96811
20
4.17368
11
5.02931
21
4.23941
0
LINE
8
layer0
10
5.02931
20
4.23941
11
5.09765
21
4.30689
0
LINE
8
layer0
10
5.09765
20
4.30689
11
5.17312
21
4.37542
0
LINE
8
layer0
10
5.17312
20
4.37542
11
5.25762
21
4.44594
0
LINE
8
layer0
10
5.25762
20
4.44594
11
5.34917
21
4.51604
0
LINE
8
layer0
10
5.34917
20
4.51604
11
5.45002
21
4.58675
0
LINE
8
layer0
10
5.45002
20
4.58675
11
5.55833
21
4.65612
0
LINE
8
layer0
10
5.55833
20
4.65612
11
5.6608586
21
4.7160451
0
ARC
8
layer0
10
3.9999821
20
-0.0000433
40
5
50
64.4008624
51
70.5991396
0
LINE
8
layer0
10
6.1603431
20
4.5091519
11
6.1904683
21
4.3942797
0
LINE
8
layer0
10
6.1904683
20
4.3942797
11
6.2180031
21
4.268641
0
LINE
8
layer0
10
6.2180031
20
4.268641
11
6.2393153
21
4.1473298
0
LINE
8
layer0
10
6.2393153
20
4.1473298
11
6.2544827
21
4.033026
0
LINE
8
layer0
10
6.2544827
20
4.033026
11
6.264368
21
3.9234103
0
LINE
8
layer0
10
6.264368
20
3.9234103
11
6.2692754
21
3.8215869
0
LINE
8
layer0
10
6.2692754
20
3.8215869
11
6.2698835
21
3.7255476
0
LINE
8
layer0
10
6.2698835
20
3.7255476
11
6.2666803
21
3.6357946
0
LINE
8
layer0
10
6.2666803
20
3.6357946
11
6.2602103
21
3.5526317
0
LINE
8
layer0
10
6.2602103
20
3.5526317
11
6.2402203
21
3.4099588
0
LINE
8
layer0
10
6.2402203
20
3.4099588
11
6.2134846
21
3.2918791
0
LINE
8
layer0
10
6.2134846
20
3.2918791
11
6.1860277
21
3.2048554
0
LINE
8
layer0
10
6.1860277
20
3.2048554
11
6.1601405
21
3.1416189
0
LINE
8
layer0
10
6.1601405
20
3.1416189
11
6.0889066
21
3.0788561
0
LINE
8
layer0
10
6.0889066
20
3.0788561
11
6.0173686
21
3.0068938
0
LINE
8
layer0
10
6.0173686
20
3.0068938
11
5.955426
21
2.9346134
0
LINE
8
layer0
10
5.955426
20
2.9346134
11
5.9029516
21
2.8626935
0
LINE
8
layer0
10
5.9029516
20
2.8626935
11
5.859804
21
2.791799
0
LINE
8
layer0
10
5.859804
20
2.791799
11
5.8257992
21
2.7225662
0
LINE
8
layer0
10
5.8257992
20
2.7225662
11
5.8007111
21
2.6556314
0
LINE
8
layer0
10
5.8007111
20
2.6556314
11
5.7842708
21
2.5916312
0
LINE
8
layer0
10
5.7842708
20
2.5916312
11
5.7761745
21
2.5311524
0
LINE
8
layer0
10
5.7761745
20
2.5311524
11
5.7761037
21
2.4747677
0
LINE
8
layer0
10
5.7761037
20
2.4747677
11
5.7836769
21
2.4230428
0
LINE
8
layer0
10
5.7836769
20
2.4230428
11
5.7984978
21
2.3765152
0
LINE
8
layer0
10
5.7984978
20
2.3765152
11
5.8201424
21
2.3356939
0
LINE
8
layer0
10
5.8201424
20
2.3356939
11
5.8520612
21
2.2971707
0
LINE
8
layer0
10
5.8520612
20
2.2971707
11
6.0136987
21
2.1558272
0
LINE
8
layer0
10
6.0136987
20
2.1558272
11
6.085965
21
2.085965
0
LINE
8
layer0
10
6.085965
20
2.085965
11
6.1558272
21
2.0136987
0
LINE
8
layer0
10
6.1558272
20
2.0136987
11
6.2971707
21
1.8520612
0
LINE
8
layer0
10
6.2971707
20
1.8520612
11
6.3356939
21
1.8201424
0
LINE
8
layer0
10
6.3356939
20
1.8201424
11
6.3765152
21
1.7984978
0
LINE
8
layer0
10
6.3765152
20
1.7984978
11
6.4230428
21
1.7836769
0
LINE
8
layer0
10
6.4230428
20
1.7836769
11
6.4747677
21
1.7761037
0
LINE
8
layer0
10
6.4747677
20
1.7761037
11
6.5311524
21
1.7761745
0
LINE
8
layer0
10
6.5311524
20
1.7761745
11
6.5916312
21
1.7842708
0
LINE
8
layer0
10
6.5916312
20
1.7842708
11
6.6556314
21
1.8007111
0
LINE
8
layer0
10
6.6556314
20
1.8007111
11
6.7225662
21
1.8257992
0
LINE
8
layer0
10
6.7225662
20
1.8257992
11
6.791799
21
1.859804
0
LINE
8
layer0
10
6.791799
20
1.859804
11
6.8626935
21
1.9029516
0
LINE
8
layer0
10
6.8626935
20
1.9029516
11
6.9346134
21
1.955426
0
LINE
8
layer0
10
6.9346134
20
1.955426
11
7.0068938
21
2.0173686
0
LINE
8
layer0
10
7.0068938
20
2.0173686
11
7.0788561
21
2.0889066
0
LINE
8
layer0
10
7.0788561
20
2.0889066
11
7.1416189
21
2.1601405
0
LINE
8
layer0
10
7.1416189
20
2.1601405
11
7.2048554
21
2.1860277
0
LINE
8
layer0
10
7.2048554
20
2.1860277
11
7.2918791
21
2.2134846
0
LINE
8
layer0
10
7.2918791
20
2.2134846
11
7.4099588
21
2.2402203
0
LINE
8
layer0
10
7.4099588
20
2.2402203
11
7.5526317
21
2.2602103
0
LINE
8
layer0
10
7.5526317
20
2.2602103
11
7.6357946
21
2.2666803
0
LINE
8
layer0
10
7.6357946
20
2.2666803
11
7.7255476
21
2.2698835
0
LINE
8
layer0
10
7.7255476
20
2.2698835
11
7.8215869
21
2.2692754
0
LINE
8
layer0
10
7.8215869
20
2.2692754
11
7.9234103
21
2.264368
0
LINE
8
layer0
10
7.9234103
20
2.264368
11
8.033026
21
2.2544827
0
LINE
8
layer0
10
8.033026
20
2.2544827
11
8.1473298
21
2.2393153
0
LINE
8
layer0
10
8.1473298
20
2.2393153
11
8.268641
21
2.2180031
0
LINE
8
layer0
10
8.268641
20
2.2180031
11
8.3942797
21
2.1904683
0
LINE
8
layer0
10
8.3942797
20
2.1904683
11
8.5091519
21
2.1603431
0
ARC
8
layer0
10
3.9999567
20
-0.0000178
40
5
50
19.4008604
51
25.5991376
0
LINE
8
layer0
10
8.7160451
20
1.6608586
11
8.65612
21
1.55833
0
LINE
8
layer0
10
8.65612
20
1.55833
11
8.58675
21
1.45002
0
LINE
8
layer0
10
8.58675
20
1.45002
11
8.51604
21
1.34917
0
LINE
8
layer0
10
8.51604
20
1.34917
11
8.44594
21
1.25762
0
LINE
8
layer0
10
8.44594
20
1.25762
11
8.37542
21
1.17312
0
LINE
8
layer0
10
8.37542
20
1.17312
11
8.30689
21
1.09765
0
LINE
8
layer0
10
8.30689
20
1.09765
11
8.23941
21
1.02931
0
LINE
8
layer0
10
8.23941
20
1.02931
11
8.17368
21
0.96811
0
LINE
8
layer0
10
8.17368
20
0.96811
11
8.1103
21
0.91388
0
LINE
8
layer0
10
8.1103
20
0.91388
11
7.99528
21
0.82713
0
LINE
8
layer0
10
7.99528
20
0.82713
11
7.89288
21
0.76254
0
LINE
8
layer0
10
7.89288
20
0.76254
11
7.81193
21
0.72042
0
LINE
8
layer0
10
7.81193
20
0.72042
11
7.74891
21
0.69401
0
LINE
8
layer0
10
7.74891
20
0.69401
11
7.65416
21
0.7
0
LINE
8
layer0
10
7.65416
20
0.7
11
7.55269
21
0.6997
0
LINE
8
layer0
10
7.55269
20
0.6997
11
7.45778
21
0.69239
0
LINE
8
layer0
10
7.45778
20
0.69239
11
7.36982
21
0.67864
0
LINE
8
layer0
10
7.36982
20
0.67864
11
7.28918
21
0.65902
0
LINE
8
layer0
10
7.28918
20
0.65902
11
7.21618
21
0.63411
0
LINE
8
layer0
10
7.21618
20
0.63411
11
7.15111
21
0.60452
0
LINE
8
layer0
10
7.15111
20
0.60452
11
7.09423
21
0.57089
0
LINE
8
layer0
10
7.09423
20
0.57089
11
7.04574
21
0.53385
0
LINE
8
layer0
10
7.04574
20
0.53385
11
7.00582
21
0.49403
0
LINE
8
layer0
10
7.00582
20
0.49403
11
6.9746
21
0.4521
0
LINE
8
layer0
10
6.9746
20
0.4521
11
6.95218
21
0.40872
0
LINE
8
layer0
10
6.95218
20
0.40872
11
6.93862
21
0.36455
0
LINE
8
layer0
10
6.93862
20
0.36455
11
6.93395
21
0.31474
0
LINE
8
layer0
10
6.93395
20
0.31474
11
6.9483
21
0.1005
0
LINE
8
layer0
10
6.9483
20
0.1005
11
6.95
21
0
0
LINE
8
layer0
10
6.95
20
0
11
6.9483
21
-0.1005
0
LINE
8
layer0
10
6.9483
20
-0.1005
11
6.93395
21
-0.31474
0
LINE
8
layer0
10
6.93395
20
-0.31474
11
6.93862
21
-0.36455
0
LINE
8
layer0
10
6.93862
20
-0.36455
11
6.95218
21
-0.40872
0
LINE
8
layer0
10
6.95218
20
-0.40872
11
6.9746
21
-0.4521
0
LINE
8
layer0
10
6.9746
20
-0.4521
11
7.00582
21
-0.49403
0
LINE
8
layer0
10
7.00582
20
-0.49403
11
7.04574
21
-0.53385
0
LINE
8
layer0
10
7.04574
20
-0.53385
11
7.09423
21
-0.57089
0
LINE
8
layer0
10
7.09423
20
-0.57089
11
7.15111
21
-0.60452
0
LINE
8
layer0
10
7.15111
20
-0.60452
11
7.21618
21
-0.63411
0
LINE
8
layer0
10
7.21618
20
-0.63411
11
7.28918
21
-0.65902
0
LINE
8
layer0
10
7.28918
20
-0.65902
11
7.36982
21
-0.67864
0
LINE
8
layer0
10
7.36982
20
-0.67864
11
7.45778
21
-0.69239
0
LINE
8
layer0
10
7.45778
20
-0.69239
11
7.55269
21
-0.6997
0
LINE
8
layer0
10
7.55269
20
-0.6997
11
7.65416
21
-0.7
0
LINE
8
layer0
10
7.65416
20
-0.7
11
7.74891
21
-0.69401
0
LINE
8
layer0
10
7.74891
20
-0.69401
11
7.81193
21
-0.72042
0
LINE
8
layer0
10
7.81193
20
-0.72042
11
7.89288
21
-0.76254
0
LINE
8
layer0
10
7.89288
20
-0.76254
11
7.99528
21
-0.82713
0
LINE
8
layer0
10
7.99528
20
-0.82713
11
8.1103
21
-0.91388
0
LINE
8
layer0
10
8.1103
20
-0.91388
11
8.17368
21
-0.96811
0
LINE
8
layer0
10
8.17368
20
-0.96811
11
8.23941
21
-1.02931
0
LINE
8
layer0
10
8.23941
20
-1.02931
11
8.30689
21
-1.09765
0
LINE
8
layer0
10
8.30689
20
-1.09765
11
8.37542
21
-1.17312
0
LINE
8
layer0
10
8.37542
20
-1.17312
11
8.44594
21
-1.25762
0
LINE
8
layer0
10
8.44594
20
-1.25762
11
8.51604
21
-1.34917
0
LINE
8
layer0
10
8.51604
20
-1.34917
11
8.58675
21
-1.45002
0
LINE
8
layer0
10
8.58675
20
-1.45002
11
8.65612
21
-1.55833
0
LINE
8
layer0
10
8.65612
20
-1.55833
11
8.7160451
21
-1.6608586
0
ARC
8
layer0
10
3.9999567
20
0.0000179
40
5
50
334.4008624
51
340.5991396
0
LINE
8
layer0
10
8.5091519
20
-2.1603431
11
8.3942797
21
-2.1904683
0
LINE
8
layer0
10
8.3942797
20
-2.1904683
11
8.268641
21
-2.2180031
0
LINE
8
layer0
10
8.268641
20
-2.2180031
11
8.1473298
21
-2.2393153
0
LINE
8
layer0
10
8.1473298
20
-2.2393153
11
8.033026
21
-2.2544827
0
LINE
8
layer0
10
8.033026
20
-2.2544827
11
7.9234103
21
-2.264368
0
LINE
8
layer0
10
7.9234103
20
-2.264368
11
7.8215869
21
-2.2692754
0
LINE
8
layer0
10
7.8215869
20
-2.2692754
11
7.7255476
21
-2.2698835
0
LINE
8
layer0
10
7.7255476
20
-2.2698835
11
7.6357946
21
-2.2666803
0
LINE
8
layer0
10
7.6357946
20
-2.2666803
11
7.5526317
21
-2.2602103
0
LINE
8
layer0
10
7.5526317
20
-2.2602103
11
7.4099588
21
-2.2402203
0
LINE
8
layer0
10
7.4099588
20
-2.2402203
11
7.2918791
21
-2.2134846
0
LINE
8
layer0
10
7.2918791
20
-2.2134846
11
7.2048554
21
-2.1860277
0
LINE
8
layer0
10
7.2048554
20
-2.1860277
11
7.1416189
21
-2.1601405
0
LINE
8
layer0
10
7.1416189
20
-2.1601405
11
7.0788561
21
-2.0889066
0
LINE
8
layer0
10
7.0788561
20
-2.0889066
11
7.0068938
21
-2.0173686
0
LINE
8
layer0
10
7.0068938
20
-2.0173686
11
6.9346134
21
-1.955426
0
LINE
8
layer0
10
6.9346134
20
-1.955426
11
6.8626935
21
-1.9029516
0
LINE
8
layer0
10
6.8626935
20
-1.9029516
11
6.791799
21
-1.859804
0
LINE
8
layer0
10
6.791799
20
-1.859804
11
6.7225662
21
-1.8257992
0
LINE
8
layer0
10
6.7225662
20
-1.8257992
11
6.6556314
21
-1.8007111
0
LINE
8
layer0
10
6.6556314
20
-1.8007111
11
6.5916312
21
-1.7842708
0
LINE
8
layer0
10
6.5916312
20
-1.7842708
11
6.5311524
21
-1.7761745
0
LINE
8
layer0
10
6.5311524
20
-1.7761745
11
6.4747677
21
-1.7761037
0
LINE
8
layer0
10
6.4747677
20
-1.7761037
11
6.4230428
21
-1.7836769
0
LINE
8
layer0
10
6.4230428
20
-1.7836769
11
6.3765152
21
-1.7984978
0
LINE
8
layer0
10
6.3765152
20
-1.7984978
11
6.3356939
21
-1.8201424
0
LINE
8
layer0
10
6.3356939
20
-1.8201424
11
6.2971707
21
-1.8520612
0
LINE
8
layer0
10
6.2971707
20
-1.8520612
11
6.1558272
21
-2.0136987
0
LINE
8
layer0
10
6.1558272
20
-2.0136987
11
6.085965
21
-2.085965
0
LINE
8
layer0
10
6.085965
20
-2.085965
11
6.0136987
21
-2.1558272
0
LINE
8
layer0
10
6.0136987
20
-2.1558272
11
5.8520612
21
-2.2971707
0
LINE
8
layer0
10
5.8520612
20
-2.2971707
11
5.8201424
21
-2.3356939
0
LINE
8
layer0
10
5.8201424
20
-2.3356939
11
5.7984978
21
-2.3765152
0
LINE
8
layer0
10
5.7984978
20
-2.3765152
11
5.7836769
21
-2.4230428
0
LINE
8
layer0
10
5.7836769
20
-2.4230428
11
5.7761037
21
-2.4747677
0
LINE
8
layer0
10
5.7761037
20
-2.4747677
11
5.7761745
21
-2.5311524
0
LINE
8
layer0
10
5.7761745
20
-2.5311524
11
5.7842708
21
-2.5916312
0
LINE
8
layer0
10
5.7842708
20
-2.5916312
11
5.8007111
21
-2.6556314
0
LINE
8
layer0
10
5.8007111
20
-2.6556314
11
5.8257992
21
-2.7225662
0
LINE
8
layer0
10
5.8257992
20
-2.7225662
11
5.859804
21
-2.791799
0
LINE
8
layer0
10
5.859804
20
-2.791799
11
5.9029516
21
-2.8626935
0
LINE
8
layer0
10
5.9029516
20
-2.8626935
11
5.955426
21
-2.9346134
0
LINE
8
layer0
10
5.955426
20
-2.9346134
11
6.0173686
21
-3.0068938
0
LINE
8
layer0
10
6.0173686
20
-3.0068938
11
6.0889066
21
-3.0788561
0
LINE
8
layer0
10
6.0889066
20
-3.0788561
11
6.1601405
21
-3.1416189
0
LINE
8
layer0
10
6.1601405
20
-3.1416189
11
6.1860277
21
-3.2048554
0
LINE
8
layer0
10
6.1860277
20
-3.2048554
11
6.2134846
21
-3.2918791
0
LINE
8
layer0
10
6.2134846
20
-3.2918791
11
6.2402203
21
-3.4099588
0
LINE
8
layer0
10
6.2402203
20
-3.4099588
11
6.2602103
21
-3.5526317
0
LINE
8
layer0
10
6.2602103
20
-3.5526317
11
6.2666803
21
-3.6357946
0
LINE
8
layer0
10
6.2666803
20
-3.6357946
11
6.2698835
21
-3.7255476
0
LINE
8
layer0
10
6.2698835
20
-3.7255476
11
6.2692754
21
-3.8215869
0
LINE
8
layer0
10
6.2692754
20
-3.8215869
11
6.264368
21
-3.9234103
0
LINE
8
layer0
10
6.264368
20
-3.9234103
11
6.2544827
21
-4.033026
0
LINE
8
layer0
10
6.2544827
20
-4.033026
11
6.2393153
21
-4.1473298
0
LINE
8
layer0
10
6.2393153
20
-4.1473298
11
6.2180031
21
-4.268641
0
LINE
8
layer0
10
6.2180031
20
-4.268641
11
6.1904683
21
-4.3942797
0
LINE
8
layer0
10
6.1904683
20
-4.3942797
11
6.1603431
21
-4.5091519
0
ARC
8
layer0
10
3.9999822
20
0.0000433
40
5
50
289.4008604
51
295.5991376
0
LINE
8
layer0
10
5.6608586
20
-4.7160451
11
5.55833
21
-4.65612
0
LINE
8
layer0
10
5.55833
20
-4.65612
11
5.45002
21
-4.58675
0
LINE
8
layer0
10
5.45002
20
-4.58675
11
5.34917
21
-4.51604
0
LINE
8
layer0
10
5.34917
20
-4.51604
11
5.25762
21
-4.44594
0
LINE
8
layer0
10
5.25762
20
-4.44594
11
5.17312
21
-4.37542
0
LINE
8
layer0
10
5.17312
20
-4.37542
11
5.09765
21
-4.30689
0
LINE
8
layer0
10
5.09765
20
-4.30689
11
5.02931
21
-4.23941
0
LINE
8
layer0
10
5.02931
20
-4.23941
11
4.96811
21
-4.17368
0
LINE
8
layer0
10
4.96811
20
-4.17368
11
4.91388
21
-4.1103
0
LINE
8
layer0
10
4.91388
20
-4.1103
11
4.82713
21
-3.99528
0
LINE
8
layer0
10
4.82713
20
-3.99528
11
4.76254
21
-3.89288
0
LINE
8
layer0
10
4.76254
20
-3.89288
11
4.72042
21
-3.81193
0
LINE
8
layer0
10
4.72042
20
-3.81193
11
4.69401
21
-3.74891
0
LINE
8
layer0
10
4.69401
20
-3.74891
11
4.7
21
-3.65416
0
LINE
8
layer0
10
4.7
20
-3.65416
11
4.6997
21
-3.55269
0
LINE
8
layer0
10
4.6997
20
-3.55269
11
4.69239
21
-3.45778
0
LINE
8
layer0
10
4.69239
20
-3.45778
11
4.67864
21
-3.36982
0
LINE
8
layer0
10
4.67864
20
-3.36982
11
4.65902
21
-3.28918
0
LINE
8
layer0
10
4.65902
20
-3.28918
11
4.63411
21
-3.21618
0
LINE
8
layer0
10
4.63411
20
-3.21618
11
4.60452
21
-3.15111
0
LINE
8
layer0
10
4.60452
20
-3.15111
11
4.57089
21
-3.09423
0
LINE
8
layer0
10
4.57089
20
-3.09423
11
4.53385
21
-3.04574
0
LINE
8
layer0
10
4.53385
20
-3.04574
11
4.49403
21
-3.00582
0
LINE
8
layer0
10
4.49403
20
-3.00582
11
4.4521
21
-2.9746
0
LINE
8
layer0
10
4.4521
20
-2.9746
11
4.40872
21
-2.95218
0
LINE
8
layer0
10
4.40872
20
-2.95218
11
4.36455
21
-2.93862
0
LINE
8
layer0
10
4.36455
20
-2.93862
11
4.31474
21
-2.93395
0
LINE
8
layer0
10
4.31474
20
-2.93395
11
4.1005
21
-2.9483
0
LINE
8
layer0
10
4.1005
20
-2.9483
11
4
21
-2.95
0
LINE
8
layer0
10
4
20
-2.95
11
3.8995
21
-2.9483
0
LINE
8
layer0
10
3.8995
20
-2.9483
11
3.68526
21
-2.93395
0
LINE
8
layer0
10
3.68526
20
-2.93395
11
3.63545
21
-2.93862
0
LINE
8
layer0
10
3.63545
20
-2.93862
11
3.59128
21
-2.95218
0
LINE
8
layer0
10
3.59128
20
-2.95218
11
3.5479
21
-2.9746
0
LINE
8
layer0
10
3.5479
20
-2.9746
11
3.50597
21
-3.00582
0
LINE
8
layer0
10
3.50597
20
-3.00582
11
3.46615
21
-3.04574
0
LINE
8
layer0
10
3.46615
20
-3.04574
11
3.42911
21
-3.09423
0
LINE
8
layer0
10
3.42911
20
-3.09423
11
3.39548
21
-3.15111
0
LINE
8
layer0
10
3.39548
20
-3.15111
11
3.36589
21
-3.21618
0
LINE
8
layer0
10
3.36589
20
-3.21618
11
3.34098
21
-3.28918
0
LINE
8
layer0
10
3.34098
20
-3.28918
11
3.32136
21
-3.36982
0
LINE
8
layer0
10
3.32136
20
-3.36982
11
3.30761
21
-3.45778
0
LINE
8
layer0
10
3.30761
20
-3.45778
11
3.3003
21
-3.55269
0
LINE
8
layer0
10
3.3003
20
-3.55269
11
3.3
21
-3.65416
0
LINE
8
layer0
10
3.3
20
-3.65416
11
3.30599
21
-3.74891
0
LINE
8
layer0
10
3.30599
20
-3.74891
11
3.27958
21
-3.81193
0
LINE
8
layer0
10
3.27958
20
-3.81193
11
3.23746
21
-3.89288
0
LINE
8
layer0
10
3.23746
20
-3.89288
11
3.17287
21
-3.99528
0
LINE
8
layer0
10
3.17287
20
-3.99528
11
3.08612
21
-4.1103
0
LINE
8
layer0
10
3.08612
20
-4.1103
11
3.03189
21
-4.17368
0
LINE
8
layer0
10
3.03189
20
-4.17368
11
2.97069
21
-4.23941
0
LINE
8
layer0
10
2.97069
20
-4.23941
11
2.90235
21
-4.30689
0
LINE
8
layer0
10
2.90235
20
-4.30689
11
2.82688
21
-4.37542
0
LINE
8
layer0
10
2.82688
20
-4.37542
11
2.74238
21
-4.44594
0
LINE
8
layer0
10
2.74238
20
-4.44594
11
2.65083
21
-4.51604
0
LINE
8
layer0
10
2.65083
20
-4.51604
11
2.54998
21
-4.58675
0
LINE
8
layer0
10
2.54998
20
-4.58675
11
2.44167
21
-4.65612
0
LINE
8
layer0
10
2.44167
20
-4.65612
11
2.3391414
21
-4.7160451
0
ARC
8
layer0
10
4.0000179
20
0.0000433
40
5
50
244.4008624
51
250.5991396
0
LINE
8
layer0
10
1.8396569
20
-4.5091519
11
1.8095317
21
-4.3942797
0
LINE
8
layer1
10
1.8095317
20
-4.3942797
11
1.7819969
21
-4.268641
0
LINE
8
layer1
10
1.7819969
20
-4.268641
11
1.7606847
21
-4.1473298
0
LINE
8
layer1
10
1.7606847
20
-4.1473298
11
1.7455173
21
-4.033026
0
LINE
8
layer1
10
1.7455173
20
-4.033026
11
1.735632
21
-3.9234103
0
LINE
8
layer1
10
1.735632
20
-3.9234103
11
1.7307246
21
-3.8215869
0
LINE
8
layer1
10
1.7307246
20
-3.8215869
11
1.7301165
21
-3.7255476
0
LINE
8
layer1
10
1.7301165
20
-3.7255476
11
1.7333197
21
-3.6357946
0
LINE
8
layer1
10
1.7333197
20
-3.6357946
11
1.7397897
21
-3.5526317
0
LINE
8
layer1
10
1.7397897
20
-3.5526317
11
1.7597797
21
-3.4099588
0
LINE
8
layer1
10
1.7597797
20
-3.4099588
11
1.7865154
21
-3.2918791
0
LINE
8
layer1
10
1.7865154
20
-3.2918791
11
1.8139723
21
-3.2048554
0
LINE
8
layer1
10
1.8139723
20
-3.2048554
11
1.8398595
21
-3.1416189
0
LINE
8
layer1
10
1.8398595
20
-3.1416189
11
1.9110934
21
-3.0788561
0
LINE
8
layer1
10
1.9110934
20
-3.0788561
11
1.9826314
21
-3.0068938
0
LINE
8
layer1
10
1.9826314
20
-3.0068938
11
2.044574
21
-2.9346134
0
LINE
8
layer1
10
2.044574
20
-2.9346134
11
2.0970484
21
-2.8626935
0
LINE
8
layer1
10
2.0970484
20
-2.8626935
11
2.140196
21
-2.791799
0
LINE
8
layer1
10
2.140196
20
-2.791799
11
2.1742008
21
-2.7225662
0
LINE
8
layer1
10
2.1742008
20
-2.7225662
11
2.1992889
21
-2.6556314
0
LINE
8
layer1
10
2.1992889
20
-2.6556314
11
2.2157292
21
-2.5916312
0
LINE
8
layer1
10
2.2157292
20
-2.5916312
11
2.2238255
21
-2.5311524
0
LINE
8
layer1
10
2.2238255
20
-2.5311524
11
2.2238963
21
-2.4747677
0
LINE
8
layer1
10
2.2238963
20
-2.4747677
11
2.2163231
21
-2.4230428
0
LINE
8
layer1
10
2.2163231
20
-2.4230428
11
2.2015022
21
-2.3765152
0
LINE
8
layer1
10
2.2015022
20
-2.3765152
11
2.1798576
21
-2.3356939
0
LINE
8
layer1
10
2.1798576
20
-2.3356939
11
2.1479388
21
-2.2971707
0
LINE
8
layer1
10
2.1479388
20
-2.2971707
11
1.9863013
21
-2.1558272
0
LINE
8
layer1
10
1.9863013
20
-2.1558272
11
1.914035
21
-2.085965
0
LINE
8
layer1
10
1.914035
20
-2.085965
11
1.8441728
21
-2.0136987
0
LINE
8
layer1
10
1.8441728
20
-2.0136987
11
1.7028293
21
-1.8520612
0
LINE
8
layer1
10
1.7028293
20
-1.8520612
11
1.6643061
21
-1.8201424
0
LINE
8
layer1
10
1.6643061
20
-1.8201424
11
1.6234848
21
-1.7984978
0
LINE
8
layer1
10
1.6234848
20
-1.7984978
11
1.5769572
21
-1.7836769
0
LINE
8
layer1
10
1.5769572
20
-1.7836769
11
1.5252323
21
-1.7761037
0
LINE
8
layer1
10
1.5252323
20
-1.7761037
11
1.4688476
21
-1.7761745
0
LINE
8
layer1
10
1.4688476
20
-1.7761745
11
1.4083688
21
-1.7842708
0
LINE
8
layer1
10
1.4083688
20
-1.7842708
11
1.3443686
21
-1.8007111
0
LINE
8
layer1
10
1.3443686
20
-1.8007111
11
1.2774338
21
-1.8257992
0
LINE
8
layer1
10
1.2774338
20
-1.8257992
11
1.208201
21
-1.859804
0
LINE
8
layer1
10
1.208201
20
-1.859804
11
1.1373065
21
-1.9029516
0
LINE
8
layer1
10
1.1373065
20
-1.9029516
11
1.0653866
21
-1.955426
0
LINE
8
layer1
10
1.0653866
20
-1.955426
11
0.9931062
21
-2.0173686
0
LINE
8
layer1
10
0.9931062
20
-2.0173686
11
0.9211439
21
-2.0889066
0
LINE
8
layer1
10
0.9211439
20
-2.0889066
11
0.8583811
21
-2.1601405
0
LINE
8
layer1
10
0.8583811
20
-2.1601405
11
0.7951446
21
-2.1860277
0
LINE
8
layer1
10
0.7951446
20
-2.1860277
11
0.7081209
21
-2.2134846
0
LINE
8
layer1
10
0.7081209
20
-2.2134846
11
0.5900412
21
-2.2402203
0
LINE
8
layer1
10
0.5900412
20
-2.2402203
11
0.4473683
21
-2.2602103
0
LINE
8
layer1
10
0.4473683
20
-2.2602103
11
0.3642054
21
-2.2666803
0
LINE
8
layer1
10
0.3642054
20
-2.2666803
11
0.2744524
21
-2.2698835
0
LINE
8
layer1
10
0.2744524
20
-2.2698835
11
0.1784131
21
-2.2692754
0
LINE
8
layer1
10
0.1784131
20
-2.2692754
11
0.0765897
21
-2.264368
0
LINE
8
layer1
10
0.0765897
20
-2.264368
11
-0.033026
21
-2.2544827
0
LINE
8
layer1
10
-0.033026
20
-2.2544827
11
-0.1473298
21
-2.2393153
0
LINE
8
layer1
10
-0.1473298
20
-2.2393153
11
-0.268641
21
-2.2180031
0
LINE
8
layer1
10
-0.268641
20
-2.2180031
11
-0.3942797
21
-2.1904683
0
LINE
8
layer1
10
-0.3942797
20
-2.1904683
11
-0.5091519
21
-2.1603431
0
ARC
8
layer1
10
4.0000433
20
0.0000178
40
5
50
199.4008604
51
205.5991376
0
LINE
8
layer1
10
-0.7160451
20
-1.6608586
11
-0.65612
21
-1.55833
0
LINE
8
layer1
10
-0.65612
20
-1.55833
11
-0.58675
21
-1.45002
0
LINE
8
layer1
10
-0.58675
20
-1.45002
11
-0.51604
21
-1.34917
0
LINE
8
layer1
10
-0.51604
20
-1.34917
11
-0.44594
21
-1.25762
0
LINE
8
layer1
10
-0.44594
20
-1.25762
11
-0.37542
21
-1.17312
0
LINE
8
layer1
10
-0.37542
20
-1.17312
11
-0.30689
21
-1.09765
0
LINE
8
layer1
10
-0.30689
20
-1.09765
11
-0.23941
21
-1.02931
0
LINE
8
layer1
10
-0.23941
20
-1.02931
11
-0.17368
21
-0.96811
0
LINE
8
layer1
10
-0.17368
20
-0.96811
11
-0.1103
21
-0.91388
0
LINE
8
layer1
10
-0.1103
20
-0.91388
11
0.00472
21
-0.82713
0
LINE
8
layer1
10
0.00472
20
-0.82713
11
0.10712
21
-0.76254
0
LINE
8
layer1
10
0.10712
20
-0.76254
11
0.18807
21
-0.72042
0
LINE
8
layer1
10
0.18807
20
-0.72042
11
0.25109
21
-0.69401
0
LINE
8
layer1
10
0.25109
20
-0.69401
11
0.34584
21
-0.7
0
LINE
8
layer1
10
0.34584
20
-0.7
11
0.44731
21
-0.6997
0
LINE
8
layer1
10
0.44731
20
-0.6997
11
0.54222
21
-0.69239
0
LINE
8
layer1
10
0.54222
20
-0.69239
11
0.63018
21
-0.67864
0
LINE
8
layer1
10
0.63018
20
-0.67864
11
0.71082
21
-0.65902
0
LINE
8
layer1
10
0.71082
20
-0.65902
11
0.78382
21
-0.63411
0
LINE
8
layer1
10
0.78382
20
-0.63411
11
0.84889
21
-0.60452
0
LINE
8
layer1
10
0.84889
20
-0.60452
11
0.90577
21
-0.57089
0
LINE
8
layer1
10
0.90577
20
-0.57089
11
0.95426
21
-0.53385
0
LINE
8
layer1
10
0.95426
20
-0.53385
11
0.99418
21
-0.49403
0
LINE
8
layer1
10
0.99418
20
-0.49403
11
1.0254
21
-0.4521
0
LINE
8
layer1
10
1.0254
20
-0.4521
11
1.04782
21
-0.40872
0
LINE
8
layer1
10
1.04782
20
-0.40872
11
1.06138
21
-0.36455
0
LINE
8
layer1
10
1.06138
20
-0.36455
11
1.06605
21
-0.31474
0
LINE
8
layer1
10
1.06605
20
-0.31474
11
1.0517
21
-0.1005
0
LINE
8
layer1
10
1.0517
20
-0.1005
11
1.05
21
0
0
LINE
8
layer1
10
1.05
20
0
11
1.0517
21
0.1005
0
LINE
8
layer1
10
1.0517
20
0.1005
11
1.06605
21
0.31474
0
LINE
8
layer1
10
1.06605
20
0.31474
11
1.06138
21
0.36455
0
LINE
8
layer1
10
1.06138
20
0.36455
11
1.04782
21
0.40872
0
LINE
8
layer1
10
1.04782
20
0.40872
11
1.0254
21
0.4521
0
LINE
8
layer1
10
1.0254
20
0.4521
11
0.99418
21
0.49403
0
LINE
8
layer1
10
0.99418
20
0.49403
11
0.95426
21
0.53385
0
LINE
8
layer1
10
0.95426
20
0.53385
11
0.90577
21
0.57089
0
LINE
8
layer1
10
0.90577
20
0.57089
11
0.84889
21
0.60452
0
LINE
8
layer1
10
0.84889
20
0.60452
11
0.78382
21
0.63411
0
LINE
8
layer1
10
0.78382
20
0.63411
11
0.71082
21
0.65902
0
LINE
8
layer1
10
0.71082
20
0.65902
11
0.63018
21
0.67864
0
LINE
8
layer1
10
0.63018
20
0.67864
11
0.54222
21
0.69239
0
LINE
8
layer1
10
0.54222
20
0.69239
11
0.44731
21
0.6997
0
LINE
8
layer1
10
0.44731
20
0.6997
11
0.34584
21
0.7
0
LINE
8
layer1
10
0.34584
20
0.7
11
0.25109
21
0.69401
0
LINE
8
layer1
10
0.25109
20
0.69401
11
0.18807
21
0.72042
0
LINE
8
layer1
10
0.18807
20
0.72042
11
0.10712
21
0.76254
0
LINE
8
layer1
10
0.10712
20
0.76254
11
0.00472
21
0.82713
0
LINE
8
layer1
10
0.00472
20
0.82713
11
-0.1103
21
0.91388
0
LINE
8
layer1
10
-0.1103
20
0.91388
11
-0.17368
21
0.96811
0
LINE
8
layer1
10
-0.17368
20
0.96811
11
-0.23941
21
1.02931
0
LINE
8
layer1
10
-0.23941
20
1.02931
11
-0.30689
21
1.09765
0
LINE
8
layer1
10
-0.30689
20
1.09765
11
-0.37542
21
1.17312
0
LINE
8
layer1
10
-0.37542
20
1.17312
11
-0.44594
21
1.25762
0
LINE
8
layer1
10
-0.44594
20
1.25762
11
-0.51604
21
1.34917
0
LINE
8
layer1
10
-0.51604
20
1.34917
11
-0.58675
21
1.45002
0
LINE
8
layer1
10
-0.58675
20
1.45002
11
-0.65612
21
1.55833
0
LINE
8
layer1
10
-0.65612
20
1.55833
11
-0.7160451
21
1.6608586
0
ARC
8
layer1
10
4.0000433
20
-0.0000179
40
5
50
154.4008624
51
160.5991396
0
LINE
8
layer1
10
-0.5091519
20
2.1603431
11
-0.3942797
21
2.1904683
0
LINE
8
layer1
10
-0.3942797
20
2.1904683
11
-0.268641
21
2.2180031
0
LINE
8
layer1
10
-0.268641
20
2.2180031
11
-0.1473298
21
2.2393153
0
LINE
8
layer1
10
-0.1473298
20
2.2393153
11
-0.033026
21
2.2544827
0
LINE
8
layer1
10
-0.033026
20
2.2544827
11
0.0765897
21
2.264368
0
LINE
8
layer1
10
0.0765897
20
2.264368
11
0.1784131
21
2.2692754
0
LINE
8
layer1
10
0.1784131
20
2.2692754
11
0.2744524
21
2.2698835
0
LINE
8
layer1
10
0.2744524
20
2.2698835
11
0.3642054
21
2.2666803
0
LINE
8
layer1
10
0.3642054
20
2.2666803
11
0.4473683
21
2.2602103
0
LINE
8
layer1
10
0.4473683
20
2.2602103
11
0.5900412
21
2.2402203
0
LINE
8
layer1
10
0.5900412
20
2.2402203
11
0.7081209
21
2.2134846
0
LINE
8
layer1
10
0.7081209
20
2.2134846
11
0.7951446
21
2.1860277
0
LINE
8
layer1
10
0.7951446
20
2.1860277
11
0.8583811
21
2.1601405
0
LINE
8
layer1
10
0.8583811
20
2.1601405
11
0.9211439
21
2.0889066
0
LINE
8
layer1
10
0.9211439
20
2.0889066
11
0.9931062
21
2.0173686
0
LINE
8
layer1
10
0.9931062
20
2.0173686
11
1.0653866
21
1.955426
0
LINE
8
layer1
10
1.0653866
20
1.955426
11
1.1373065
21
1.9029516
0
LINE
8
layer1
10
1.1373065
20
1.9029516
11
1.208201
21
1.859804
0
LINE
8
layer1
10
1.208201
20
1.859804
11
1.2774338
21
1.8257992
0
LINE
8
layer1
10
1.2774338
20
1.8257992
11
1.3443686
21
1.8007111
0
LINE
8
layer1
10
1.3443686
20
1.8007111
11
1.4083688
21
1.7842708
0
LINE
8
layer1
10
1.4083688
20
1.7842708
11
1.4688476
21
1.7761745
0
LINE
8
layer1
10
1.4688476
20
1.7761745
11
1.5252323
21
1.7761037
0
LINE
8
layer1
10
1.5252323
20
1.7761037
11
1.5769572
21
1.7836769
0
LINE
8
layer1
10
1.5769572
20
1.7836769
11
1.6234848
21
1.7984978
0
LINE
8
layer1
10
1.6234848
20
1.7984978
11
1.6643061
21
1.8201424
0
LINE
8
layer1
10
1.6643061
20
1.8201424
11
1.7028293
21
1.8520612
0
LINE
8
layer1
10
1.7028293
20
1.8520612
11
1.8441728
21
2.0136987
0
LINE
8
layer1
10
1.8441728
20
2.0136987
11
1.914035
21
2.085965
0
LINE
8
layer1
10
1.914035
20
2.085965
11
1.9863013
21
2.1558272
0
LINE
8
layer1
10
1.9863013
20
2.1558272
11
2.1479388
21
2.2971707
0
LINE
8
layer1
10
2.1479388
20
2.2971707
11
2.1798576
21
2.3356939
0
LINE
8
layer1
10
2.1798576
20
2.3356939
11
2.2015022
21
2.3765152
0
LINE
8
layer1
10
2.2015022
20
2.3765152
11
2.2163231
21
2.4230428
0
LINE
8
layer1
10
2.2163231
20
2.4230428
11
2.2238963
21
2.4747677
0
LINE
8
layer1
10
2.2238963
20
2.4747677
11
2.2238255
21
2.5311524
0
LINE
8
layer1
10
2.2238255
20
2.5311524
11
2.2157292
21
2.5916312
0
LINE
8
layer1
10
2.2157292
20
2.5916312
11
2.1992889
21
2.6556314
0
LINE
8
layer1
10
2.1992889
20
2.6556314
11
2.1742008
21
2.7225662
0
LINE
8
layer1
10
2.1742008
20
2.7225662
11
2.140196
21
2.791799
0
LINE
8
layer1
10
2.140196
20
2.791799
11
2.0970484
21
2.8626935
0
LINE
8
layer1
10
2.0970484
20
2.8626935
11
2.044574
21
2.9346134
0
LINE
8
layer1
10
2.044574
20
2.9346134
11
1.9826314
21
3.0068938
0
LINE
8
layer1
10
1.9826314
20
3.0068938
11
1.9110934
21
3.0788561
0
LINE
8
layer1
10
1.9110934
20
3.0788561
11
1.8398595
21
3.1416189
0
LINE
8
layer1
10
1.8398595
20
3.1416189
11
1.8139723
21
3.2048554
0
LINE
8
layer1
10
1.8139723
20
3.2048554
11
1.7865154
21
3.2918791
0
LINE
8
layer1
10
1.7865154
20
3.2918791
11
1.7597797
21
3.4099588
0
LINE
8
layer1
10
1.7597797
20
3.4099588
11
1.7397897
21
3.5526317
0
LINE
8
layer1
10
1.7397897
20
3.5526317
11
1.7333197
21
3.6357946
0
LINE
8
layer1
10
1.7333197
20
3.6357946
11
1.7301165
21
3.7255476
0
LINE
8
layer1
10
1.7301165
20
3.7255476
11
1.7307246
21
3.8215869
0
LINE
8
layer1
10
1.7307246
20
3.8215869
11
1.735632
21
3.9234103
0
LINE
8
layer1
10
1.735632
20
3.9234103
11
1.7455173
21
4.033026
0
LINE
8
layer1
10
1.7455173
20
4.033026
11
1.7606847
21
4.1473298
0
LINE
8
layer1
10
1.7606847
20
4.1473298
11
1.7819969
21
4.268641
0
LINE
8
layer1
10
1.7819969
20
4.268641
11
1.8095317
21
4.3942797
0
LINE
8
layer1
10
1.8095317
20
4.3942797
11
1.8396569
21
4.5091519
0
ARC
8
layer1
10
4.0000178
20
-0.0000433
40
5
50
109.4008604
51
115.5991376
0
LINE
8
layer1
10
2.3391414
20
4.7160451
11
2.44167
21
4.65612
0
LINE
8
layer1
10
2.44167
20
4.65612
11
2.54998
21
4.58675
0
LINE
8
layer1
10
2.54998
20
4.58675
11
2.65083
21
4.51604
0
LINE
8
layer1
10
2.65083
20
4.51604
11
2.74238
21
4.44594
0
LINE
8
layer1
10
2.74238
20
4.44594
11
2.82688
21
4.37542
0
LINE
8
layer1
10
2.82688
20
4.37542
11
2.90235
21
4.30689
0
LINE
8
layer1
10
2.90235
20
4.30689
11
2.97069
21
4.23941
0
LINE
8
layer1
10
2.97069
20
4.23941
11
3.03189
21
4.17368
0
LINE
8
layer1
10
3.03189
20
4.17368
11
3.08612
21
4.1103
0
LINE
8
layer1
10
3.08612
20
4.1103
11
3.17287
21
3.99528
0
LINE
8
layer1
10
3.17287
20
3.99528
11
3.23746
21
3.89288
0
LINE
8
layer1
10
3.23746
20
3.89288
11
3.27958
21
3.81193
0
LINE
8
layer1
10
3.27958
20
3.81193
11
3.30599
21
3.74891
0
LINE
8
layer1
10
3.30599
20
3.74891
11
3.3
21
3.65416
0
LINE
8
layer1
10
3.3
20
3.65416
11
3.3003
21
3.55269
0
LINE
8
layer1
10
3.3003
20
3.55269
11
3.30761
21
3.45778
0
LINE
8
layer1
10
3.30761
20
3.45778
11
3.32136
21
3.36982
0
LINE
8
layer1
10
3.32136
20
3.36982
11
3.34098
21
3.28918
0
LINE
8
layer1
10
3.34098
20
3.28918
11
3.36589
21
3.21618
0
LINE
8
layer1
10
3.36589
20
3.21618
11
3.39548
21
3.15111
0
LINE
8
layer1
10
3.39548
20
3.15111
11
3.42911
21
3.09423
0
LINE
8
layer1
10
3.42911
20
3.09423
11
3.46615
21
3.04574
0
LINE
8
layer1
10
3.46615
20
3.04574
11
3.50597
21
3.00582
0
LINE
8
layer1
10
3.50597
20
3.00582
11
3.5479
21
2.9746
0
LINE
8
layer1
10
3.5479
20
2.9746
11
3.59128
21
2.95218
0
LINE
8
layer1
10
3.59128
20
2.95218
11
3.63545
21
2.93862
0
LINE
8
layer1
10
3.63545
20
2.93862
11
3.68526
21
2.93395
0
LINE
8
layer1
10
3.68526
20
2.93395
11
3.8995
21
2.9483
0
LINE
8
layer1
10
3.8995
20
2.9483
11
4
21
2.95
0
LINE
8
layer1
10
4
20
2.95
11
4.1005
21
2.9483
0
LINE
8
layer1
10
4.1005
20
2.9483
11
4.31474
21
2.93395
0
LINE
8
layer1
10
4.31474
20
2.93395
11
4.36455
21
2.93862
0
LINE
8
layer1
10
4.36455
20
2.93862
11
4.40872
21
2.95218
0
LINE
8
layer1
10
4.40872
20
2.95218
11
4.4521
21
2.9746
0
LINE
8
layer1
10
4.4521
20
2.9746
11
4.49403
21
3.00582
0
LINE
8
layer1
10
4.49403
20
3.00582
11
4.53385
21
3.04574
0
LINE
8
layer1
10
4.53385
20
3.04574
11
4.57089
21
3.09423
0
LINE
8
layer1
10
4.57089
20
3.09423
11
4.60452
21
3.15111
0
LINE
8
layer1
10
4.60452
20
3.15111
11
4.63411
21
3.21618
0
LINE
8
layer1
10
4.63411
20
3.21618
11
4.65902
21
3.28918
0
LINE
8
layer1
10
4.65902
20
3.28918
11
4.67864
21
3.36982
0
LINE
8
layer1
10
4.67864
20
3.36982
11
4.69239
21
3.45778
0
LINE
8
layer1
10
4.69239
20
3.45778
11
4.6997
21
3.55269
0
LINE
8
layer1
10
4.6997
20
3.55269
11
4.7
21
3.65416
0
LINE
8
layer1
10
4.7
20
3.65416
11
4.69401
21
3.74891
0
LINE
8
layer1
10
4.69401
20
3.74891
11
4.72042
21
3.81193
0
LINE
8
layer1
10
4.72042
20
3.81193
11
4.76254
21
3.89288
0
LINE
8
layer1
10
4.76254
20
3.89288
11
4.82713
21
3.99528
0
LINE
8
layer1
10
4.82713
20
3.99528
11
4.91388
21
4.1103
0
LINE
8
layer1
10
4.91388
20
4.1103
11
4.96811
21
4.17368
0
LINE
8
layer1
10
4.96811
20
4.17368
11
5.02931
21
4.23941
0
LINE
8
layer1
10
5.02931
20
4.23941
11
5.09765
21
4.30689
0
LINE
8
layer1
10
5.09765
20
4.30689
11
5.17312
21
4.37542
0
LINE
8
layer1
10
5.17312
20
4.37542
11
5.25762
21
4.44594
0
LINE
8
layer1
10
5.25762
20
4.44594
11
5.34917
21
4.51604
0
LINE
8
layer1
10
5.34917
20
4.51604
11
5.45002
21
4.58675
0
LINE
8
layer1
10
5.45002
20
4.58675
11
5.55833
21
4.65612
0
LINE
8
layer1
10
5.55833
20
4.65612
11
5.6608586
21
4.7160451
0
ARC
8
layer1
10
3.9999821
20
-0.0000433
40
5
50
64.4008624
51
70.5991396
0
LINE
8
layer1
10
6.1603431
20
4.5091519
11
6.1904683
21
4.3942797
0
LINE
8
layer1
10
6.1904683
20
4.3942797
11
6.2180031
21
4.268641
0
LINE
8
layer1
10
6.2180031
20
4.268641
11
6.2393153
21
4.1473298
0
LINE
8
layer1
10
6.2393153
20
4.1473298
11
6.2544827
21
4.033026
0
LINE
8
layer1
10
6.2544827
20
4.033026
11
6.264368
21
3.9234103
0
LINE
8
layer1
10
6.264368
20
3.9234103
11
6.2692754
21
3.8215869
0
LINE
8
layer1
10
6.2692754
20
3.8215869
11
6.2698835
21
3.7255476
0
LINE
8
layer1
10
6.2698835
20
3.7255476
11
6.2666803
21
3.6357946
0
LINE
8
layer1
10
6.2666803
20
3.6357946
11
6.2602103
21
3.5526317
0
LINE
8
layer1
10
6.2602103
20
3.5526317
11
6.2402203
21
3.4099588
0
LINE
8
layer1
10
6.2402203
20
3.4099588
11
6.2134846
21
3.2918791
0
LINE
8
layer1
10
6.2134846
20
3.2918791
11
6.1860277
21
3.2048554
0
LINE
8
layer1
10
6.1860277
20
3.2048554
11
6.1601405
21
3.1416189
0
LINE
8
layer1
10
6.1601405
20
3.1416189
11
6.0889066
21
3.0788561
0
LINE
8
layer1
10
6.0889066
20
3.0788561
11
6.0173686
21
3.0068938
0
LINE
8
layer1
10
6.0173686
20
3.0068938
11
5.955426
21
2.9346134
0
LINE
8
layer1
10
5.955426
20
2.9346134
11
5.9029516
21
2.8626935
0
LINE
8
layer1
10
5.9029516
20
2.8626935
11
5.859804
21
2.791799
0
LINE
8
layer1
10
5.859804
20
2.791799
11
5.8257992
21
2.7225662
0
LINE
8
layer1
10
5.8257992
20
2.7225662
11
5.8007111
21
2.6556314
0
LINE
8
layer1
10
5.8007111
20
2.6556314
11
5.7842708
21
2.5916312
0
LINE
8
layer1
10
5.7842708
20
2.5916312
11
5.7761745
21
2.5311524
0
LINE
8
layer1
10
5.7761745
20
2.5311524
11
5.7761037
21
2.4747677
0
LINE
8
layer1
10
5.7761037
20
2.4747677
11
5.7836769
21
2.4230428
0
LINE
8
layer1
10
5.7836769
20
2.4230428
11
5.7984978
21
2.3765152
0
LINE
8
layer1
10
5.7984978
20
2.3765152
11
5.8201424
21
2.3356939
0
LINE
8
layer1
10
5.8201424
20
2.3356939
11
5.8520612
21
2.2971707
0
LINE
8
layer1
10
5.8520612
20
2.2971707
11
6.0136987
21
2.1558272
0
LINE
8
layer1
10
6.0136987
20
2.1558272
11
6.085965
21
2.085965
0
LINE
8
layer1
10
6.085965
20
2.085965
11
6.1558272
21
2.0136987
0
LINE
8
layer1
10
6.1558272
20
2.0136987
11
6.2971707
21
1.8520612
0
LINE
8
layer1
10
6.2971707
20
1.8520612
11
6.3356939
21
1.8201424
0
LINE
8
layer1
10
6.3356939
20
1.8201424
11
6.3765152
21
1.7984978
0
LINE
8
layer1
10
6.3765152
20
1.7984978
11
6.4230428
21
1.7836769
0
LINE
8
layer1
10
6.4230428
20
1.7836769
11
6.4747677
21
1.7761037
0
LINE
8
layer1
10
6.4747677
20
1.7761037
11
6.5311524
21
1.7761745
0
LINE
8
layer1
10
6.5311524
20
1.7761745
11
6.5916312
21
1.7842708
0
LINE
8
layer1
10
6.5916312
20
1.7842708
11
6.6556314
21
1.8007111
0
LINE
8
layer1
10
6.6556314
20
1.8007111
11
6.7225662
21
1.8257992
0
LINE
8
layer1
10
6.7225662
20
1.8257992
11
6.791799
21
1.859804
0
LINE
8
layer1
10
6.791799
20
1.859804
11
6.8626935
21
1.9029516
0
LINE
8
layer1
10
6.8626935
20
1.9029516
11
6.9346134
21
1.955426
0
LINE
8
layer1
10
6.9346134
20
1.955426
11
7.0068938
21
2.0173686
0
LINE
8
layer1
10
7.0068938
20
2.0173686
11
7.0788561
21
2.0889066
0
LINE
8
layer1
10
7.0788561
20
2.0889066
11
7.1416189
21
2.1601405
0
LINE
8
layer1
10
7.1416189
20
2.1601405
11
7.2048554
21
2.1860277
0
LINE
8
layer1
10
7.2048554
20
2.1860277
11
7.2918791
21
2.2134846
0
LINE
8
layer1
10
7.2918791
20
2.2134846
11
7.4099588
21
2.2402203
0
LINE
8
layer1
10
7.4099588
20
2.2402203
11
7.5526317
21
2.2602103
0
LINE
8
layer1
10
7.5526317
20
2.2602103
11
7.6357946
21
2.2666803
0
LINE
8
layer1
10
7.6357946
20
2.2666803
11
7.7255476
21
2.2698835
0
LINE
8
layer1
10
7.7255476
20
2.2698835
11
7.8215869
21
2.2692754
0
LINE
8
layer1
10
7.8215869
20
2.2692754
11
7.9234103
21
2.264368
0
LINE
8
layer1
10
7.9234103
20
2.264368
11
8.033026
21
2.2544827
0
LINE
8
layer1
10
8.033026
20
2.2544827
11
8.1473298
21
2.2393153
0
LINE
8
layer1
10
8.1473298
20
2.2393153
11
8.268641
21
2.2180031
0
LINE
8
layer1
10
8.268641
20
2.2180031
11
8.3942797
21
2.1904683
0
LINE
8
layer1
10
8.3942797
20
2.1904683
11
8.5091519
21
2.1603431
0
ARC
8
layer1
10
3.9999567
20
-0.0000178
40
5
50
19.4008604
51
25.5991376
0
LINE
8
layer1
10
8.7160451
20
1.6608586
11
8.65612
21
1.55833
0
LINE
8
layer1
10
8.65612
20
1.55833
11
8.58675
21
1.45002
0
LINE
8
layer1
10
8.58675
20
1.45002
11
8.51604
21
1.34917
0
LINE
8
layer1
10
8.51604
20
1.34917
11
8.44594
21
1.25762
0
LINE
8
layer1
10
8.44594
20
1.25762
11
8.37542
21
1.17312
0
LINE
8
layer1
10
8.37542
20
1.17312
11
8.30689
21
1.09765
0
LINE
8
layer1
10
8.30689
20
1.09765
11
8.23941
21
1.02931
0
LINE
8
layer1
10
8.23941
20
1.02931
11
8.17368
21
0.96811
0
LINE
8
layer1
10
8.17368
20
0.96811
11
8.1103
21
0.91388
0
LINE
8
layer1
10
8.1103
20
0.91388
11
7.99528
21
0.82713
0
LINE
8
layer1
10
7.99528
20
0.82713
11
7.89288
21
0.76254
0
LINE
8
layer1
10
7.89288
20
0.76254
11
7.81193
21
0.72042
0
LINE
8
layer1
10
7.81193
20
0.72042
11
7.74891
21
0.69401
0
LINE
8
layer1
10
7.74891
20
0.69401
11
7.65416
21
0.7
0
LINE
8
layer1
10
7.65416
20
0.7
11
7.55269
21
0.6997
0
LINE
8
layer1
10
7.55269
20
0.6997
11
7.45778
21
0.69239
0
LINE
8
layer1
10
7.45778
20
0.69239
11
7.36982
21
0.67864
0
LINE
8
layer1
10
7.36982
20
0.67864
11
7.28918
21
0.65902
0
LINE
8
layer1
10
7.28918
20
0.65902
11
7.21618
21
0.63411
0
LINE
8
layer1
10
7.21618
20
0.63411
11
7.15111
21
0.60452
0
LINE
8
layer1
10
7.15111
20
0.60452
11
7.09423
21
0.57089
0
LINE
8
layer1
10
7.09423
20
0.57089
11
7.04574
21
0.53385
0
LINE
8
layer1
10
7.04574
20
0.53385
11
7.00582
21
0.49403
0
LINE
8
layer1
10
7.00582
20
0.49403
11
6.9746
21
0.4521
0
LINE
8
layer1
10
6.9746
20
0.4521
11
6.95218
21
0.40872
0
LINE
8
layer1
10
6.95218
20
0.40872
11
6.93862
21
0.36455
0
LINE
8
layer1
10
6.93862
20
0.36455
11
6.93395
21
0.31474
0
LINE
8
layer1
10
6.93395
20
0.31474
11
6.9483
21
0.1005
0
LINE
8
layer1
10
6.9483
20
0.1005
11
6.95
21
0
0
LINE
8
layer1
10
6.95
20
0
11
6.9483
21
-0.1005
0
LINE
8
layer1
10
6.9483
20
-0.1005
11
6.93395
21
-0.31474
0
LINE
8
layer1
10
6.93395
20
-0.31474
11
6.93862
21
-0.36455
0
LINE
8
layer1
10
6.93862
20
-0.36455
11
6.95218
21
-0.40872
0
LINE
8
layer1
10
6.95218
20
-0.40872
11
6.9746
21
-0.4521
0
LINE
8
layer1
10
6.9746
20
-0.4521
11
7.00582
21
-0.49403
0
LINE
8
layer1
10
7.00582
20
-0.49403
11
7.04574
21
-0.53385
0
LINE
8
layer1
10
7.04574
20
-0.53385
11
7.09423
21
-0.57089
0
LINE
8
layer1
10
7.09423
20
-0.57089
11
7.15111
21
-0.60452
0
LINE
8
layer1
10
7.15111
20
-0.60452
11
7.21618
21
-0.63411
0
LINE
8
layer1
10
7.21618
20
-0.63411
11
7.28918
21
-0.65902
0
LINE
8
layer1
10
7.28918
20
-0.65902
11
7.36982
21
-0.67864
0
LINE
8
layer1
10
7.36982
20
-0.67864
11
7.45778
21
-0.69239
0
LINE
8
layer1
10
7.45778
20
-0.69239
11
7.55269
21
-0.6997
0
LINE
8
layer1
10
7.55269
20
-0.6997
11
7.65416
21
-0.7
0
LINE
8
layer1
10
7.65416
20
-0.7
11
7.74891
21
-0.69401
0
LINE
8
layer1
10
7.74891
20
-0.69401
11
7.81193
21
-0.72042
0
LINE
8
layer1
10
7.81193
20
-0.72042
11
7.89288
21
-0.76254
0
LINE
8
layer1
10
7.89288
20
-0.76254
11
7.99528
21
-0.82713
0
LINE
8
layer1
10
7.99528
20
-0.82713
11
8.1103
21
-0.91388
0
LINE
8
layer1
10
8.1103
20
-0.91388
11
8.17368
21
-0.96811
0
LINE
8
layer1
10
8.17368
20
-0.96811
11
8.23941
21
-1.02931
0
LINE
8
layer1
10
8.23941
20
-1.02931
11
8.30689
21
-1.09765
0
LINE
8
layer1
10
8.30689
20
-1.09765
11
8.37542
21
-1.17312
0
LINE
8
layer1
10
8.37542
20
-1.17312
11
8.44594
21
-1.25762
0
LINE
8
layer1
10
8.44594
20
-1.25762
11
8.51604
21
-1.34917
0
LINE
8
layer1
10
8.51604
20
-1.34917
11
8.58675
21
-1.45002
0
LINE
8
layer1
10
8.58675
20
-1.45002
11
8.65612
21
-1.55833
0
LINE
8
layer1
10
8.65612
20
-1.55833
11
8.7160451
21
-1.6608586
0
ARC
8
layer1
10
3.9999567
20
0.0000179
40
5
50
334.4008624
51
340.5991396
0
LINE
8
layer1
10
8.5091519
20
-2.1603431
11
8.3942797
21
-2.1904683
0
LINE
8
layer1
10
8.3942797
20
-2.1904683
11
8.268641
21
-2.2180031
0
LINE
8
layer1
10
8.268641
20
-2.2180031
11
8.1473298
21
-2.2393153
0
LINE
8
layer1
10
8.1473298
20
-2.2393153
11
8.033026
21
-2.2544827
0
LINE
8
layer1
10
8.033026
20
-2.2544827
11
7.9234103
21
-2.264368
0
LINE
8
layer1
10
7.9234103
20
-2.264368
11
7.8215869
21
-2.2692754
0
LINE
8
layer1
10
7.8215869
20
-2.2692754
11
7.7255476
21
-2.2698835
0
LINE
8
layer1
10
7.7255476
20
-2.2698835
11
7.6357946
21
-2.2666803
0
LINE
8
layer1
10
7.6357946
20
-2.2666803
11
7.5526317
21
-2.2602103
0
LINE
8
layer1
10
7.5526317
20
-2.2602103
11
7.4099588
21
-2.2402203
0
LINE
8
layer1
10
7.4099588
20
-2.2402203
11
7.2918791
21
-2.2134846
0
LINE
8
layer1
10
7.2918791
20
-2.2134846
11
7.2048554
21
-2.1860277
0
LINE
8
layer1
10
7.2048554
20
-2.1860277
11
7.1416189
21
-2.1601405
0
LINE
8
layer1
10
7.1416189
20
-2.1601405
11
7.0788561
21
-2.0889066
0
LINE
8
layer1
10
7.0788561
20
-2.0889066
11
7.0068938
21
-2.0173686
0
LINE
8
layer1
10
7.0068938
20
-2.0173686
11
6.9346134
21
-1.955426
0
LINE
8
layer1
10
6.9346134
20
-1.955426
11
6.8626935
21
-1.9029516
0
LINE
8
layer1
10
6.8626935
20
-1.9029516
11
6.791799
21
-1.859804
0
LINE
8
layer1
10
6.791799
20
-1.859804
11
6.7225662
21
-1.8257992
0
LINE
8
layer1
10
6.7225662
20
-1.8257992
11
6.6556314
21
-1.8007111
0
LINE
8
layer1
10
6.6556314
20
-1.8007111
11
6.5916312
21
-1.7842708
0
LINE
8
layer1
10
6.5916312
20
-1.7842708
11
6.5311524
21
-1.7761745
0
LINE
8
layer1
10
6.5311524
20
-1.7761745
11
6.4747677
21
-1.7761037
0
LINE
8
layer1
10
6.4747677
20
-1.7761037
11
6.4230428
21
-1.7836769
0
LINE
8
layer1
10
6.4230428
20
-1.7836769
11
6.3765152
21
-1.7984978
0
LINE
8
layer1
10
6.3765152
20
-1.7984978
11
6.3356939
21
-1.8201424
0
LINE
8
layer1
10
6.3356939
20
-1.8201424
11
6.2971707
21
-1.8520612
0
LINE
8
layer1
10
6.2971707
20
-1.8520612
11
6.1558272
21
-2.0136987
0
LINE
8
layer1
10
6.1558272
20
-2.0136987
11
6.085965
21
-2.085965
0
LINE
8
layer1
10
6.085965
20
-2.085965
11
6.0136987
21
-2.1558272
0
LINE
8
layer1
10
6.0136987
20
-2.1558272
11
5.8520612
21
-2.2971707
0
LINE
8
layer1
10
5.8520612
20
-2.2971707
11
5.8201424
21
-2.3356939
0
LINE
8
layer1
10
5.8201424
20
-2.3356939
11
5.7984978
21
-2.3765152
0
LINE
8
layer1
10
5.7984978
20
-2.3765152
11
5.7836769
21
-2.4230428
0
LINE
8
layer1
10
5.7836769
20
-2.4230428
11
5.7761037
21
-2.4747677
0
LINE
8
layer1
10
5.7761037
20
-2.4747677
11
5.7761745
21
-2.5311524
0
LINE
8
layer1
10
5.7761745
20
-2.5311524
11
5.7842708
21
-2.5916312
0
LINE
8
layer1
10
5.7842708
20
-2.5916312
11
5.8007111
21
-2.6556314
0
LINE
8
layer1
10
5.8007111
20
-2.6556314
11
5.8257992
21
-2.7225662
0
LINE
8
layer1
10
5.8257992
20
-2.7225662
11
5.859804
21
-2.791799
0
LINE
8
layer1
10
5.859804
20
-2.791799
11
5.9029516
21
-2.8626935
0
LINE
8
layer1
10
5.9029516
20
-2.8626935
11
5.955426
21
-2.9346134
0
LINE
8
layer1
10
5.955426
20
-2.9346134
11
6.0173686
21
-3.0068938
0
LINE
8
layer1
10
6.0173686
20
-3.0068938
11
6.0889066
21
-3.0788561
0
LINE
8
layer1
10
6.0889066
20
-3.0788561
11
6.1601405
21
-3.1416189
0
LINE
8
layer1
10
6.1601405
20
-3.1416189
11
6.1860277
21
-3.2048554
0
LINE
8
layer1
10
6.1860277
20
-3.2048554
11
6.2134846
21
-3.2918791
0
LINE
8
layer1
10
6.2134846
20
-3.2918791
11
6.2402203
21
-3.4099588
0
LINE
8
layer1
10
6.2402203
20
-3.4099588
11
6.2602103
21
-3.5526317
0
LINE
8
layer1
10
6.2602103
20
-3.5526317
11
6.2666803
21
-3.6357946
0
LINE
8
layer1
10
6.2666803
20
-3.6357946
11
6.2698835
21
-3.7255476
0
LINE
8
layer1
10
6.2698835
20
-3.7255476
11
6.2692754
21
-3.8215869
0
LINE
8
layer1
10
6.2692754
20
-3.8215869
11
6.264368
21
-3.9234103
0
LINE
8
layer1
10
6.264368
20
-3.9234103
11
6.2544827
21
-4.033026
0
LINE
8
layer1
10
6.2544827
20
-4.033026
11
6.2393153
21
-4.1473298
0
LINE
8
layer1
10
6.2393153
20
-4.1473298
11
6.2180031
21
-4.268641
0
LINE
8
layer1
10
6.2180031
20
-4.268641
11
6.1904683
21
-4.3942797
0
LINE
8
layer1
10
6.1904683
20
-4.3942797
11
6.1603431
21
-4.5091519
0
ARC
8
layer1
10
3.9999822
20
0.0000433
40
5
50
289.4008604
51
295.5991376
0
LINE
8
layer1
10
5.6608586
20
-4.7160451
11
5.55833
21
-4.65612
0
LINE
8
layer1
10
5.55833
20
-4.65612
11
5.45002
21
-4.58675
0
LINE
8
layer1
10
5.45002
20
-4.58675
11
5.34917
21
-4.51604
0
LINE
8
layer1
10
5.34917
20
-4.51604
11
5.25762
21
-4.44594
0
LINE
8
layer1
10
5.25762
20
-4.44594
11
5.17312
21
-4.37542
0
LINE
8
layer1
10
5.17312
20
-4.37542
11
5.09765
21
-4.30689
0
LINE
8
layer1
10
5.09765
20
-4.30689
11
5.02931
21
-4.23941
0
LINE
8
layer1
10
5.02931
20
-4.23941
11
4.96811
21
-4.17368
0
LINE
8
layer1
10
4.96811
20
-4.17368
11
4.91388
21
-4.1103
0
LINE
8
layer1
10
4.91388
20
-4.1103
11
4.82713
21
-3.99528
0
LINE
8
layer1
10
4.82713
20
-3.99528
11
4.76254
21
-3.89288
0
LINE
8
layer1
10
4.76254
20
-3.89288
11
4.72042
21
-3.81193
0
LINE
8
layer1
10
4.72042
20
-3.81193
11
4.69401
21
-3.74891
0
LINE
8
layer1
10
4.69401
20
-3.74891
11
4.7
21
-3.65416
0
LINE
8
layer1
10
4.7
20
-3.65416
11
4.6997
21
-3.55269
0
LINE
8
layer1
10
4.6997
20
-3.55269
11
4.69239
21
-3.45778
0
LINE
8
layer1
10
4.69239
20
-3.45778
11
4.67864
21
-3.36982
0
LINE
8
layer1
10
4.67864
20
-3.36982
11
4.65902
21
-3.28918
0
LINE
8
layer1
10
4.65902
20
-3.28918
11
4.63411
21
-3.21618
0
LINE
8
layer1
10
4.63411
20
-3.21618
11
4.60452
21
-3.15111
0
LINE
8
layer1
10
4.60452
20
-3.15111
11
4.57089
21
-3.09423
0
LINE
8
layer1
10
4.57089
20
-3.09423
11
4.53385
21
-3.04574
0
LINE
8
layer1
10
4.53385
20
-3.04574
11
4.49403
21
-3.00582
0
LINE
8
layer1
10
4.49403
20
-3.00582
11
4.4521
21
-2.9746
0
LINE
8
layer1
10
4.4521
20
-2.9746
11
4.40872
21
-2.95218
0
LINE
8
layer1
10
4.40872
20
-2.95218
11
4.36455
21
-2.93862
0
LINE
8
layer1
10
4.36455
20
-2.93862
11
4.31474
21
-2.93395
0
LINE
8
layer1
10
4.31474
20
-2.93395
11
4.1005
21
-2.9483
0
LINE
8
layer1
10
4.1005
20
-2.9483
11
4
21
-2.95
0
LINE
8
layer1
10
4
20
-2.95
11
3.8995
21
-2.9483
0
LINE
8
layer1
10
3.8995
20
-2.9483
11
3.68526
21
-2.93395
0
LINE
8
layer1
10
3.68526
20
-2.93395
11
3.63545
21
-2.93862
0
LINE
8
layer1
10
3.63545
20
-2.93862
11
3.59128
21
-2.95218
0
LINE
8
layer1
10
3.59128
20
-2.95218
11
3.5479
21
-2.9746
0
LINE
8
layer1
10
3.5479
20
-2.9746
11
3.50597
21
-3.00582
0
LINE
8
layer1
10
3.50597
20
-3.00582
11
3.46615
21
-3.04574
0
LINE
8
layer1
10
3.46615
20
-3.04574
11
3.42911
21
-3.09423
0
LINE
8
layer1
10
3.42911
20
-3.09423
11
3.39548
21
-3.15111
0
LINE
8
layer1
10
3.39548
20
-3.15111
11
3.36589
21
-3.21618
0
LINE
8
layer1
10
3.36589
20
-3.21618
11
3.34098
21
-3.28918
0
LINE
8
layer1
10
3.34098
20
-3.28918
11
3.32136
21
-3.36982
0
LINE
8
layer1
10
3.32136
20
-3.36982
11
3.30761
21
-3.45778
0
LINE
8
layer1
10
3.30761
20
-3.45778
11
3.3003
21
-3.55269
0
LINE
8
layer1
10
3.3003
20
-3.55269
11
3.3
21
-3.65416
0
LINE
8
layer1
10
3.3
20
-3.65416
11
3.30599
21
-3.74891
0
LINE
8
layer1
10
3.30599
20
-3.74891
11
3.27958
21
-3.81193
0
LINE
8
layer1
10
3.27958
20
-3.81193
11
3.23746
21
-3.89288
0
LINE
8
layer1
10
3.23746
20
-3.89288
11
3.17287
21
-3.99528
0
LINE
8
layer1
10
3.17287
20
-3.99528
11
3.08612
21
-4.1103
0
LINE
8
layer1
10
3.08612
20
-4.1103
11
3.03189
21
-4.17368
0
LINE
8
layer1
10
3.03189
20
-4.17368
11
2.97069
21
-4.23941
0
LINE
8
layer1
10
2.97069
20
-4.23941
11
2.90235
21
-4.30689
0
LINE
8
layer1
10
2.90235
20
-4.30689
11
2.82688
21
-4.37542
0
LINE
8
layer1
10
2.82688
20
-4.37542
11
2.74238
21
-4.44594
0
LINE
8
layer1
10
2.74238
20
-4.44594
11
2.65083
21
-4.51604
0
LINE
8
layer1
10
2.65083
20
-4.51604
11
2.54998
21
-4.58675
0
LINE
8
layer1
10
2.54998
20
-4.58675
11
2.44167
21
-4.65612
0
LINE
8
layer1
10
2.44167
20
-4.65612
11
2.3391414
21
-4.7160451
0
ARC
8
layer1
10
4.0000179
20
0.0000433
40
5
50
244.4008624
51
250.5991396
0
LINE
8
layer1
10
1.8396569
20
-4.5091519
11
1.8095317
21
-4.3942797
0
ENDSEC
0
EOF