0
SECTION
2
HEADER
9
$INSUNITS
70
4
9
$ACADVER
1
AC1014
9
$HANDSEED
5
FFFF
0
ENDSEC
0
SECTION
2
TABLES
0
TABLE
2
VPORT
5
8
100
AcDbSymbolTable
0
ENDTAB
0
TABLE
2
LTYPE
5
5
100
AcDbSymbolTable
0
LTYPE
5
14
100
AcDbSymbolTableRecord
100
AcDbLinetypeTableRecord
2
BYBLOCK
70
0
0
LTYPE
5
15
100
AcDbSymbolTableRecord
100
AcDbLinetypeTableRecord
2
BYLAYER
70
0
0
ENDTAB
0
TABLE
2
LAYER
5
2
100
AcDbSymbolTable
70
2
0
LAYER
5
50
100
AcDbSymbolTableRecord
100
AcDbLayerTableRecord
2
0
70
0
6
CONTINUOUS
0
ENDTAB
0
TABLE
2
STYLE
5
3
100
AcDbSymbolTable
70
1
0
STYLE
5
11
100
AcDbSymbolTableRecord
100
AcDbTextStyleTableRecord
2
STANDARD
70
0
0
ENDTAB
0
TABLE
2
VIEW
5
6
100
AcDbSymbolTable
70
0
0
ENDTAB
0
TABLE
2
UCS
5
7
100
AcDbSymbolTable
70
0
0
ENDTAB
0
TABLE
2
APPID
5
9
100
AcDbSymbolTable
70
2
0
APPID
5
12
100
AcDbSymbolTableRecord
100
AcDbRegAppTableRecord
2
ACAD
70
0
0
ENDTAB
0
TABLE
2
DIMSTYLE
5
A
100
AcDbSymbolTable
70
1
0
ENDTAB
0
TABLE
2
BLOCK_RECORD
5
1
100
AcDbSymbolTable
70
1
0
BLOCK_RECORD
5
1F
100
AcDbSymbolTableRecord
100
AcDbBlockTableRecord
2
*MODEL_SPACE
0
BLOCK_RECORD
5
1B
100
AcDbSymbolTableRecord
100
AcDbBlockTableRecord
2
*PAPER_SPACE
0
ENDTAB
0
ENDSEC
0
SECTION
2
BLOCKS
0
BLOCK
5
20
100
AcDbEntity
100
AcDbBlockBegin
2
*MODEL_SPACE
0
ENDBLK
5
21
100
AcDbEntity
100
AcDbBlockEnd
0
BLOCK
5
1C
100
AcDbEntity
100
AcDbBlockBegin
2
*PAPER_SPACE
0
ENDBLK
5
1D
100
AcDbEntity
100
AcDbBlockEnd
0
ENDSEC
0
SECTION
2
ENTITIES
0
LWPOLYLINE
5
100
100
AcDbEntity
8
0
100
AcDbPolyline
90
16
70
1
43
0.0
10
-22.777580917177502
20
-29.157877281472871
42
16.341146876798692
10
-29.157877281472842
20
-22.777580917177531
10
-41.277580917177488
20
-22.777580917177556
10
-41.277580917177488
20
29.171572875253808
42
-0.1989123673796557
10
-40.69179447955058
20
30.585786437626908
10
-30.585786437626858
20
40.691794479550651
42
-0.19891236737966261
10
-29.171572875253752
20
41.277580917177552
10
29.171572875253794
20
41.277580917177502
42
-0.19891236737965706
10
30.585786437626883
20
40.691794479550595
10
40.691794479550587
20
30.585786437626901
42
-0.19891236737965487
10
41.277580917177488
20
29.171572875253808
10
41.277580917177488
20
-29.171572875253808
42
-0.1989123673796557
10
40.69179447955058
20
-30.585786437626908
10
30.585786437626904
20
-40.691794479550587
42
-0.19891236737966145
10
29.171572875253815
20
-41.277580917177502
10
-22.777580917177467
20
-41.277580917177552
0
CIRCLE
5
101
100
AcDbEntity
8
0
100
AcDbCircle
10
-31.430896423742038
20
31.430896423746987
30
-9.0518707386200457e-32
40
2.1589999999999998
210
-0
220
0
230
1
0
CIRCLE
5
102
100
AcDbEntity
8
0
100
AcDbCircle
10
18.760000000000005
20
-36.960000000000008
30
-9.0518707386199647e-32
40
0.9000000000000008
210
-0
220
0
230
1
0
CIRCLE
5
103
100
AcDbEntity
8
0
100
AcDbCircle
10
36.960000000000001
20
-18.760000000000012
30
-9.0518707386199866e-32
40
0.89999999999999858
210
-0
220
0
230
1
0
CIRCLE
5
104
100
AcDbEntity
8
0
100
AcDbCircle
10
36.960000000000001
20
18.759999999999994
30
-9.0518707386200304e-32
40
0.89999999999999858
210
-0
220
0
230
1
0
CIRCLE
5
105
100
AcDbEntity
8
0
100
AcDbCircle
10
31.430896423742052
20
-31.430896423742034
30
-9.0518707386199713e-32
40
2.1589999999999998
210
-0
220
0
230
1
0
CIRCLE
5
106
100
AcDbEntity
8
0
100
AcDbCircle
10
31.430896423742041
20
31.430896423742034
30
-9.0518707386200457e-32
40
2.1589999999999998
210
-0
220
0
230
1
0
CIRCLE
5
107
100
AcDbEntity
8
0
100
AcDbCircle
10
18.760000000000005
20
36.959999999999994
30
-9.0518707386200523e-32
40
0.9000000000000008
210
-0
220
0
230
1
0
CIRCLE
5
108
100
AcDbEntity
8
0
100
AcDbCircle
10
-36.960000000000001
20
-18.760000000000012
30
-9.0518707386199866e-32
40
0.89999999999999858
210
-0
220
0
230
1
0
CIRCLE
5
109
100
AcDbEntity
8
0
100
AcDbCircle
10
-18.760000000000005
20
-36.960000000000008
30
-9.0518707386199647e-32
40
0.9000000000000008
210
-0
220
0
230
1
0
CIRCLE
5
110
100
AcDbEntity
8
0
100
AcDbCircle
10
-36.960000000000001
20
18.759999999999994
30
-9.0518707386200304e-32
40
0.89999999999999858
210
-0
220
0
230
1
0
CIRCLE
5
111
100
AcDbEntity
8
0
100
AcDbCircle
10
-18.760000000000005
20
36.959999999999994
30
-9.0518707386200523e-32
40
0.9000000000000008
210
-0
220
0
230
1
0
CIRCLE
5
112
100
AcDbEntity
8
0
100
AcDbCircle
10
-6.4721789755098788e-61
20
-6.2172661990312394e-92
30
0
40
25
210
-1.6931694608995631e-110
220
2.4381255512333837e-173
230
1
0
LWPOLYLINE
5
113
100
AcDbEntity
8
0
100
AcDbPolyline
90
6
70
1
43
0.0
10
3.9999999999999938
20
-14.464438192828856
10
3.9999999999999902
20
-17.464438192828847
10
-6.6613381477509392e-15
20
-18.96443819282884
10
-4.0000000000000036
20
-17.464438192828844
10
-4
20
-14.464438192828839
10
0
20
-12.964438192828849
0
CIRCLE
5
114
100
AcDbEntity
8
0
100
AcDbCircle
10
-21.999999999999996
20
-1.4715421489113993e-172
30
-9.0518707386200085e-32
40
2.5
210
-0
220
0
230
1
0
CIRCLE
5
115
100
AcDbEntity
8
0
100
AcDbCircle
10
0
20
22
30
0
40
2.5
210
-0
220
0
230
1
0
LWPOLYLINE
5
116
100
AcDbEntity
8
0
100
AcDbPolyline
90
4
70
1
43
0.0
10
8.5000000000000107
20
4.2500000000000027
10
16.000000000000011
20
4.2499999999999494
10
16.000000000000011
20
1.7500000000000471
10
8.5000000000000071
20
1.7500000000000029
0
ENDSEC
0
SECTION
2
OBJECTS
0
DICTIONARY
5
C
100
AcDbDictionary
3
ACAD_GROUP
350
D
3
ACAD_MLINESTYLE
350
17
0
DICTIONARY
5
D
100
AcDbDictionary
0
DICTIONARY
5
1A
330
C
100
AcDbDictionary
0
DICTIONARY
5
17
100
AcDbDictionary
0
ENDSEC
0
EOF
