999
"DXF R12 Output" (www.mydxf.blogspot.com)
 0 
SECTION
 2 
HEADER
 9 
$ACADVER
 1 
AC1009
 9 
$EXTMIN
 10 
 0 
 20 
 0 
 9 
$EXTMAX
 10 
 8.5 
 20 
 11 
 0 
ENDSEC
 0 
SECTION
 2 
ENTITIES
0
LINE
8
Layer 1
10
0.793749
20
96.308300
11
-0.793749
21
94.720900
0
LINE
8
Layer 1
10
0.000000
20
96.837500
11
0.000000
21
94.191700
0
LINE
8
Layer 1
10
2.116660
20
94.456300
11
1.058330
21
93.397970
0
LINE
8
Layer 1
10
1.587500
20
94.985400
11
0.529170
21
93.927070
0
LINE
8
Layer 1
10
1.058330
20
95.514600
11
0.000000
21
94.456270
0
LINE
8
0
10
237.219000
20
85.354900
11
237.388333
21
86.193628
0
LINE
8
0
10
237.388000
20
86.193600
11
237.851020
21
86.878870
0
LINE
8
0
10
237.851000
20
86.878900
11
238.536270
21
87.339274
0
LINE
8
0
10
238.536000
20
87.339200
11
239.377374
21
87.508533
0
LINE
8
0
10
239.378000
20
87.508600
11
240.216728
21
87.339267
0
LINE
8
0
10
240.216000
20
87.339200
11
240.901270
21
86.878826
0
LINE
8
0
10
240.902000
20
86.878900
11
241.365020
21
86.193630
0
LINE
8
0
10
241.365000
20
86.193600
11
241.536979
21
85.354872
0
LINE
8
0
10
241.537000
20
85.354900
11
241.365021
21
84.516172
0
LINE
8
0
10
241.365000
20
84.516100
11
240.901980
21
83.830830
0
LINE
8
0
10
240.902000
20
83.830900
11
240.216730
21
83.370526
0
LINE
8
0
10
240.216000
20
83.370500
11
239.377272
21
83.201167
0
LINE
8
0
10
239.378000
20
83.201200
11
238.536626
21
83.370533
0
LINE
8
0
10
238.536000
20
83.370500
11
237.850730
21
83.830874
0
LINE
8
0
10
237.851000
20
83.830900
11
237.387980
21
84.516170
0
LINE
8
0
10
237.388000
20
84.516100
11
237.218667
21
85.354828
0
LINE
8
0
10
237.219000
20
85.354900
11
237.219000
21
85.354900
0
LINE
8
0
10
46.053100
20
8.107220
11
46.224285
21
8.945948
0
LINE
8
0
10
46.224200
20
8.945950
11
46.687220
21
9.631220
0
LINE
8
0
10
46.687300
20
9.631220
11
47.372835
21
10.094240
0
LINE
8
0
10
47.372800
20
10.094200
11
48.212057
21
10.263533
0
LINE
8
0
10
48.212100
20
10.263600
11
49.051357
21
10.094267
0
LINE
8
0
10
49.051300
20
10.094200
11
49.737099
21
9.631180
0
LINE
8
0
10
49.737100
20
9.631220
11
50.200120
21
8.945950
0
LINE
8
0
10
50.200100
20
8.945950
11
50.371021
21
8.107222
0
LINE
8
0
10
50.371000
20
8.107220
11
50.200079
21
7.268492
0
LINE
8
0
10
50.200100
20
7.268500
11
49.737080
21
6.583230
0
LINE
8
0
10
49.737100
20
6.583230
11
49.051301
21
6.122856
0
LINE
8
0
10
49.051300
20
6.122850
11
48.212043
21
5.953517
0
LINE
8
0
10
48.212100
20
5.953520
11
47.372843
21
6.122853
0
LINE
8
0
10
47.372800
20
6.122850
11
46.687265
21
6.583224
0
LINE
8
0
10
46.687300
20
6.583230
11
46.224280
21
7.268500
0
LINE
8
0
10
46.224200
20
7.268500
11
46.053015
21
8.107228
0
LINE
8
0
10
46.053100
20
8.107220
11
46.053100
21
8.107220
0
LINE
8
0
10
330.945000
20
85.354900
11
331.114333
21
86.193628
0
LINE
8
0
10
331.114000
20
86.193600
11
331.577020
21
86.878870
0
LINE
8
0
10
331.577000
20
86.878900
11
332.262270
21
87.339274
0
LINE
8
0
10
332.262000
20
87.339200
11
333.103374
21
87.508533
0
LINE
8
0
10
333.104000
20
87.508600
11
333.942728
21
87.339267
0
LINE
8
0
10
333.942000
20
87.339200
11
334.627270
21
86.878826
0
LINE
8
0
10
334.628000
20
86.878900
11
335.091020
21
86.193630
0
LINE
8
0
10
335.091000
20
86.193600
11
335.262979
21
85.354872
0
LINE
8
0
10
335.263000
20
85.354900
11
335.091021
21
84.516172
0
LINE
8
0
10
335.091000
20
84.516100
11
334.627980
21
83.830830
0
LINE
8
0
10
334.628000
20
83.830900
11
333.942730
21
83.370526
0
LINE
8
0
10
333.942000
20
83.370500
11
333.103272
21
83.201167
0
LINE
8
0
10
333.104000
20
83.201200
11
332.262626
21
83.370533
0
LINE
8
0
10
332.262000
20
83.370500
11
331.576730
21
83.830874
0
LINE
8
0
10
331.577000
20
83.830900
11
331.113980
21
84.516170
0
LINE
8
0
10
331.114000
20
84.516100
11
330.944667
21
85.354828
0
LINE
8
0
10
330.945000
20
85.354900
11
330.945000
21
85.354900
0
LINE
8
0
10
6.937100
20
8.107220
11
7.108285
21
8.945948
0
LINE
8
0
10
7.108290
20
8.945950
11
7.571310
21
9.631220
0
LINE
8
0
10
7.571310
20
9.631220
11
8.256845
21
10.094240
0
LINE
8
0
10
8.256840
20
10.094200
11
9.096097
21
10.263533
0
LINE
8
0
10
9.096100
20
10.263600
11
9.935357
21
10.094267
0
LINE
8
0
10
9.935360
20
10.094200
11
10.621159
21
9.631180
0
LINE
8
0
10
10.621200
20
9.631220
11
11.084220
21
8.945950
0
LINE
8
0
10
11.084200
20
8.945950
11
11.255121
21
8.107222
0
LINE
8
0
10
11.255100
20
8.107220
11
11.084179
21
7.268492
0
LINE
8
0
10
11.084200
20
7.268500
11
10.621180
21
6.583230
0
LINE
8
0
10
10.621200
20
6.583230
11
9.935401
21
6.122856
0
LINE
8
0
10
9.935360
20
6.122850
11
9.096103
21
5.953517
0
LINE
8
0
10
9.096100
20
5.953520
11
8.256843
21
6.122853
0
LINE
8
0
10
8.256840
20
6.122850
11
7.571305
21
6.583224
0
LINE
8
0
10
7.571310
20
6.583230
11
7.108290
21
7.268500
0
LINE
8
0
10
7.108290
20
7.268500
11
6.937105
21
8.107228
0
LINE
8
0
10
6.937100
20
8.107220
11
6.937100
21
8.107220
0
LINE
8
0
10
46.053100
20
85.323100
11
46.224285
21
86.161828
0
LINE
8
0
10
46.224200
20
86.161900
11
46.687220
21
86.847170
0
LINE
8
0
10
46.687300
20
86.847100
11
47.372835
21
87.310120
0
LINE
8
0
10
47.372800
20
87.310100
11
48.212057
21
87.479433
0
LINE
8
0
10
48.212100
20
87.479500
11
49.051357
21
87.310167
0
LINE
8
0
10
49.051300
20
87.310100
11
49.737099
21
86.847080
0
LINE
8
0
10
49.737100
20
86.847100
11
50.200120
21
86.161830
0
LINE
8
0
10
50.200100
20
86.161900
11
50.371021
21
85.323172
0
LINE
8
0
10
50.371000
20
85.323100
11
50.200079
21
84.484372
0
LINE
8
0
10
50.200100
20
84.484400
11
49.737080
21
83.799130
0
LINE
8
0
10
49.737100
20
83.799100
11
49.051301
21
83.338726
0
LINE
8
0
10
49.051300
20
83.338800
11
48.212043
21
83.169467
0
LINE
8
0
10
48.212100
20
83.169400
11
47.372843
21
83.338733
0
LINE
8
0
10
47.372800
20
83.338800
11
46.687265
21
83.799174
0
LINE
8
0
10
46.687300
20
83.799100
11
46.224280
21
84.484370
0
LINE
8
0
10
46.224200
20
84.484400
11
46.053015
21
85.323128
0
LINE
8
0
10
46.053100
20
85.323100
11
46.053100
21
85.323100
0
LINE
8
0
10
6.937100
20
85.323100
11
7.108285
21
86.161828
0
LINE
8
0
10
7.108290
20
86.161900
11
7.571310
21
86.847170
0
LINE
8
0
10
7.571310
20
86.847100
11
8.256845
21
87.310120
0
LINE
8
0
10
8.256840
20
87.310100
11
9.096097
21
87.479433
0
LINE
8
0
10
9.096100
20
87.479500
11
9.935357
21
87.310167
0
LINE
8
0
10
9.935360
20
87.310100
11
10.621159
21
86.847080
0
LINE
8
0
10
10.621200
20
86.847100
11
11.084220
21
86.161830
0
LINE
8
0
10
11.084200
20
86.161900
11
11.255121
21
85.323172
0
LINE
8
0
10
11.255100
20
85.323100
11
11.084179
21
84.484372
0
LINE
8
0
10
11.084200
20
84.484400
11
10.621180
21
83.799130
0
LINE
8
0
10
10.621200
20
83.799100
11
9.935401
21
83.338726
0
LINE
8
0
10
9.935360
20
83.338800
11
9.096103
21
83.169467
0
LINE
8
0
10
9.096100
20
83.169400
11
8.256843
21
83.338733
0
LINE
8
0
10
8.256840
20
83.338800
11
7.571305
21
83.799174
0
LINE
8
0
10
7.571310
20
83.799100
11
7.108290
21
84.484370
0
LINE
8
0
10
7.108290
20
84.484400
11
6.937105
21
85.323128
0
LINE
8
0
10
6.937100
20
85.323100
11
6.937100
21
85.323100
0
LINE
8
0
10
330.945000
20
8.138970
11
331.114333
21
8.977698
0
LINE
8
0
10
331.114000
20
8.977700
11
331.577020
21
9.662970
0
LINE
8
0
10
331.577000
20
9.662970
11
332.262270
21
10.125990
0
LINE
8
0
10
332.262000
20
10.126000
11
333.103374
21
10.295333
0
LINE
8
0
10
333.104000
20
10.295300
11
333.942728
21
10.125967
0
LINE
8
0
10
333.942000
20
10.126000
11
334.627270
21
9.662980
0
LINE
8
0
10
334.628000
20
9.662970
11
335.091020
21
8.977700
0
LINE
8
0
10
335.091000
20
8.977700
11
335.262979
21
8.138972
0
LINE
8
0
10
335.263000
20
8.138970
11
335.091021
21
7.300242
0
LINE
8
0
10
335.091000
20
7.300250
11
334.627980
21
6.617626
0
LINE
8
0
10
334.628000
20
6.617620
11
333.942730
21
6.154600
0
LINE
8
0
10
333.942000
20
6.154600
11
333.103272
21
5.985267
0
LINE
8
0
10
333.104000
20
5.985270
11
332.262626
21
6.154603
0
LINE
8
0
10
332.262000
20
6.154600
11
331.576730
21
6.617620
0
LINE
8
0
10
331.577000
20
6.617620
11
331.113980
21
7.300244
0
LINE
8
0
10
331.114000
20
7.300250
11
330.944667
21
8.138978
0
LINE
8
0
10
330.945000
20
8.138970
11
330.945000
21
8.138970
0
LINE
8
0
10
237.219000
20
8.138970
11
237.388333
21
8.977698
0
LINE
8
0
10
237.388000
20
8.977700
11
237.851020
21
9.662970
0
LINE
8
0
10
237.851000
20
9.662970
11
238.536270
21
10.125990
0
LINE
8
0
10
238.536000
20
10.126000
11
239.377374
21
10.295333
0
LINE
8
0
10
239.378000
20
10.295300
11
240.216728
21
10.125967
0
LINE
8
0
10
240.216000
20
10.126000
11
240.901270
21
9.662980
0
LINE
8
0
10
240.902000
20
9.662970
11
241.365020
21
8.977700
0
LINE
8
0
10
241.365000
20
8.977700
11
241.536979
21
8.138972
0
LINE
8
0
10
241.537000
20
8.138970
11
241.365021
21
7.300242
0
LINE
8
0
10
241.365000
20
7.300250
11
240.901980
21
6.617626
0
LINE
8
0
10
240.902000
20
6.617620
11
240.216730
21
6.154600
0
LINE
8
0
10
240.216000
20
6.154600
11
239.377272
21
5.985267
0
LINE
8
0
10
239.378000
20
5.985270
11
238.536626
21
6.154603
0
LINE
8
0
10
238.536000
20
6.154600
11
237.850730
21
6.617620
0
LINE
8
0
10
237.851000
20
6.617620
11
237.387980
21
7.300244
0
LINE
8
0
10
237.388000
20
7.300250
11
237.218667
21
8.138978
0
LINE
8
0
10
237.219000
20
8.138970
11
237.219000
21
8.138970
0
LINE
8
0
10
237.219000
20
85.354900
11
237.388333
21
86.193628
0
LINE
8
0
10
237.388000
20
86.193600
11
237.851020
21
86.878870
0
LINE
8
0
10
237.851000
20
86.878900
11
238.536270
21
87.339274
0
LINE
8
0
10
238.536000
20
87.339200
11
239.377374
21
87.508533
0
LINE
8
0
10
239.378000
20
87.508600
11
240.216728
21
87.339267
0
LINE
8
0
10
240.216000
20
87.339200
11
240.901270
21
86.878826
0
LINE
8
0
10
240.902000
20
86.878900
11
241.365020
21
86.193630
0
LINE
8
0
10
241.365000
20
86.193600
11
241.536979
21
85.354872
0
LINE
8
0
10
241.537000
20
85.354900
11
241.365021
21
84.516172
0
LINE
8
0
10
241.365000
20
84.516100
11
240.901980
21
83.830830
0
LINE
8
0
10
240.902000
20
83.830900
11
240.216730
21
83.370526
0
LINE
8
0
10
240.216000
20
83.370500
11
239.377272
21
83.201167
0
LINE
8
0
10
239.378000
20
83.201200
11
238.536626
21
83.370533
0
LINE
8
0
10
238.536000
20
83.370500
11
237.850730
21
83.830874
0
LINE
8
0
10
237.851000
20
83.830900
11
237.387980
21
84.516170
0
LINE
8
0
10
237.388000
20
84.516100
11
237.218667
21
85.354828
0
LINE
8
0
10
237.219000
20
85.354900
11
237.219000
21
85.354900
0
LINE
8
0
10
237.219000
20
8.138970
11
237.388333
21
8.977698
0
LINE
8
0
10
237.388000
20
8.977700
11
237.851020
21
9.662970
0
LINE
8
0
10
237.851000
20
9.662970
11
238.536270
21
10.125990
0
LINE
8
0
10
238.536000
20
10.126000
11
239.377374
21
10.295333
0
LINE
8
0
10
239.378000
20
10.295300
11
240.216728
21
10.125967
0
LINE
8
0
10
240.216000
20
10.126000
11
240.901270
21
9.662980
0
LINE
8
0
10
240.902000
20
9.662970
11
241.365020
21
8.977700
0
LINE
8
0
10
241.365000
20
8.977700
11
241.536979
21
8.138972
0
LINE
8
0
10
241.537000
20
8.138970
11
241.365021
21
7.300242
0
LINE
8
0
10
241.365000
20
7.300250
11
240.901980
21
6.617626
0
LINE
8
0
10
240.902000
20
6.617620
11
240.216730
21
6.154600
0
LINE
8
0
10
240.216000
20
6.154600
11
239.377272
21
5.985267
0
LINE
8
0
10
239.378000
20
5.985270
11
238.536626
21
6.154603
0
LINE
8
0
10
238.536000
20
6.154600
11
237.850730
21
6.617620
0
LINE
8
0
10
237.851000
20
6.617620
11
237.387980
21
7.300244
0
LINE
8
0
10
237.388000
20
7.300250
11
237.218667
21
8.138978
0
LINE
8
0
10
237.219000
20
8.138970
11
237.219000
21
8.138970
0
LINE
8
0
10
330.945000
20
85.354900
11
331.114333
21
86.193628
0
LINE
8
0
10
331.114000
20
86.193600
11
331.577020
21
86.878870
0
LINE
8
0
10
331.577000
20
86.878900
11
332.262270
21
87.339274
0
LINE
8
0
10
332.262000
20
87.339200
11
333.103374
21
87.508533
0
LINE
8
0
10
333.104000
20
87.508600
11
333.942728
21
87.339267
0
LINE
8
0
10
333.942000
20
87.339200
11
334.627270
21
86.878826
0
LINE
8
0
10
334.628000
20
86.878900
11
335.091020
21
86.193630
0
LINE
8
0
10
335.091000
20
86.193600
11
335.262979
21
85.354872
0
LINE
8
0
10
335.263000
20
85.354900
11
335.091021
21
84.516172
0
LINE
8
0
10
335.091000
20
84.516100
11
334.627980
21
83.830830
0
LINE
8
0
10
334.628000
20
83.830900
11
333.942730
21
83.370526
0
LINE
8
0
10
333.942000
20
83.370500
11
333.103272
21
83.201167
0
LINE
8
0
10
333.104000
20
83.201200
11
332.262626
21
83.370533
0
LINE
8
0
10
332.262000
20
83.370500
11
331.576730
21
83.830874
0
LINE
8
0
10
331.577000
20
83.830900
11
331.113980
21
84.516170
0
LINE
8
0
10
331.114000
20
84.516100
11
330.944667
21
85.354828
0
LINE
8
0
10
330.945000
20
85.354900
11
330.945000
21
85.354900
0
LINE
8
0
10
330.945000
20
8.138970
11
331.114333
21
8.977698
0
LINE
8
0
10
331.114000
20
8.977700
11
331.577020
21
9.662970
0
LINE
8
0
10
331.577000
20
9.662970
11
332.262270
21
10.125990
0
LINE
8
0
10
332.262000
20
10.126000
11
333.103374
21
10.295333
0
LINE
8
0
10
333.104000
20
10.295300
11
333.942728
21
10.125967
0
LINE
8
0
10
333.942000
20
10.126000
11
334.627270
21
9.662980
0
LINE
8
0
10
334.628000
20
9.662970
11
335.091020
21
8.977700
0
LINE
8
0
10
335.091000
20
8.977700
11
335.262979
21
8.138972
0
LINE
8
0
10
335.263000
20
8.138970
11
335.091021
21
7.300242
0
LINE
8
0
10
335.091000
20
7.300250
11
334.627980
21
6.617626
0
LINE
8
0
10
334.628000
20
6.617620
11
333.942730
21
6.154600
0
LINE
8
0
10
333.942000
20
6.154600
11
333.103272
21
5.985267
0
LINE
8
0
10
333.104000
20
5.985270
11
332.262626
21
6.154603
0
LINE
8
0
10
332.262000
20
6.154600
11
331.576730
21
6.617620
0
LINE
8
0
10
331.577000
20
6.617620
11
331.113980
21
7.300244
0
LINE
8
0
10
331.114000
20
7.300250
11
330.944667
21
8.138978
0
LINE
8
0
10
330.945000
20
8.138970
11
330.945000
21
8.138970
0
LINE
8
0
10
6.937100
20
8.107220
11
7.108285
21
8.945948
0
LINE
8
0
10
7.108290
20
8.945950
11
7.571310
21
9.631220
0
LINE
8
0
10
7.571310
20
9.631220
11
8.256845
21
10.094240
0
LINE
8
0
10
8.256840
20
10.094200
11
9.096097
21
10.263533
0
LINE
8
0
10
9.096100
20
10.263600
11
9.935357
21
10.094267
0
LINE
8
0
10
9.935360
20
10.094200
11
10.621159
21
9.631180
0
LINE
8
0
10
10.621200
20
9.631220
11
11.084220
21
8.945950
0
LINE
8
0
10
11.084200
20
8.945950
11
11.255121
21
8.107222
0
LINE
8
0
10
11.255100
20
8.107220
11
11.084179
21
7.268492
0
LINE
8
0
10
11.084200
20
7.268500
11
10.621180
21
6.583230
0
LINE
8
0
10
10.621200
20
6.583230
11
9.935401
21
6.122856
0
LINE
8
0
10
9.935360
20
6.122850
11
9.096103
21
5.953517
0
LINE
8
0
10
9.096100
20
5.953520
11
8.256843
21
6.122853
0
LINE
8
0
10
8.256840
20
6.122850
11
7.571305
21
6.583224
0
LINE
8
0
10
7.571310
20
6.583230
11
7.108290
21
7.268500
0
LINE
8
0
10
7.108290
20
7.268500
11
6.937105
21
8.107228
0
LINE
8
0
10
6.937100
20
8.107220
11
6.937100
21
8.107220
0
LINE
8
0
10
46.053100
20
8.107220
11
46.224285
21
8.945948
0
LINE
8
0
10
46.224200
20
8.945950
11
46.687220
21
9.631220
0
LINE
8
0
10
46.687300
20
9.631220
11
47.372835
21
10.094240
0
LINE
8
0
10
47.372800
20
10.094200
11
48.212057
21
10.263533
0
LINE
8
0
10
48.212100
20
10.263600
11
49.051357
21
10.094267
0
LINE
8
0
10
49.051300
20
10.094200
11
49.737099
21
9.631180
0
LINE
8
0
10
49.737100
20
9.631220
11
50.200120
21
8.945950
0
LINE
8
0
10
50.200100
20
8.945950
11
50.371021
21
8.107222
0
LINE
8
0
10
50.371000
20
8.107220
11
50.200079
21
7.268492
0
LINE
8
0
10
50.200100
20
7.268500
11
49.737080
21
6.583230
0
LINE
8
0
10
49.737100
20
6.583230
11
49.051301
21
6.122856
0
LINE
8
0
10
49.051300
20
6.122850
11
48.212043
21
5.953517
0
LINE
8
0
10
48.212100
20
5.953520
11
47.372843
21
6.122853
0
LINE
8
0
10
47.372800
20
6.122850
11
46.687265
21
6.583224
0
LINE
8
0
10
46.687300
20
6.583230
11
46.224280
21
7.268500
0
LINE
8
0
10
46.224200
20
7.268500
11
46.053015
21
8.107228
0
LINE
8
0
10
46.053100
20
8.107220
11
46.053100
21
8.107220
0
LINE
8
0
10
46.053100
20
85.323100
11
46.224285
21
86.161828
0
LINE
8
0
10
46.224200
20
86.161900
11
46.687220
21
86.847170
0
LINE
8
0
10
46.687300
20
86.847100
11
47.372835
21
87.310120
0
LINE
8
0
10
47.372800
20
87.310100
11
48.212057
21
87.479433
0
LINE
8
0
10
48.212100
20
87.479500
11
49.051357
21
87.310167
0
LINE
8
0
10
49.051300
20
87.310100
11
49.737099
21
86.847080
0
LINE
8
0
10
49.737100
20
86.847100
11
50.200120
21
86.161830
0
LINE
8
0
10
50.200100
20
86.161900
11
50.371021
21
85.323172
0
LINE
8
0
10
50.371000
20
85.323100
11
50.200079
21
84.484372
0
LINE
8
0
10
50.200100
20
84.484400
11
49.737080
21
83.799130
0
LINE
8
0
10
49.737100
20
83.799100
11
49.051301
21
83.338726
0
LINE
8
0
10
49.051300
20
83.338800
11
48.212043
21
83.169467
0
LINE
8
0
10
48.212100
20
83.169400
11
47.372843
21
83.338733
0
LINE
8
0
10
47.372800
20
83.338800
11
46.687265
21
83.799174
0
LINE
8
0
10
46.687300
20
83.799100
11
46.224280
21
84.484370
0
LINE
8
0
10
46.224200
20
84.484400
11
46.053015
21
85.323128
0
LINE
8
0
10
46.053100
20
85.323100
11
46.053100
21
85.323100
0
LINE
8
0
10
6.937100
20
85.323100
11
7.108285
21
86.161828
0
LINE
8
0
10
7.108290
20
86.161900
11
7.571310
21
86.847170
0
LINE
8
0
10
7.571310
20
86.847100
11
8.256845
21
87.310120
0
LINE
8
0
10
8.256840
20
87.310100
11
9.096097
21
87.479433
0
LINE
8
0
10
9.096100
20
87.479500
11
9.935357
21
87.310167
0
LINE
8
0
10
9.935360
20
87.310100
11
10.621159
21
86.847080
0
LINE
8
0
10
10.621200
20
86.847100
11
11.084220
21
86.161830
0
LINE
8
0
10
11.084200
20
86.161900
11
11.255121
21
85.323172
0
LINE
8
0
10
11.255100
20
85.323100
11
11.084179
21
84.484372
0
LINE
8
0
10
11.084200
20
84.484400
11
10.621180
21
83.799130
0
LINE
8
0
10
10.621200
20
83.799100
11
9.935401
21
83.338726
0
LINE
8
0
10
9.935360
20
83.338800
11
9.096103
21
83.169467
0
LINE
8
0
10
9.096100
20
83.169400
11
8.256843
21
83.338733
0
LINE
8
0
10
8.256840
20
83.338800
11
7.571305
21
83.799174
0
LINE
8
0
10
7.571310
20
83.799100
11
7.108290
21
84.484370
0
LINE
8
0
10
7.108290
20
84.484400
11
6.937105
21
85.323128
0
LINE
8
0
10
6.937100
20
85.323100
11
6.937100
21
85.323100
0
LINE
8
0
10
314.845000
20
89.961300
11
246.662000
21
89.961300
0
LINE
8
0
10
246.662000
20
89.961300
11
246.662000
21
70.006400
0
LINE
8
0
10
246.662000
20
70.006400
11
232.771000
21
70.006400
0
LINE
8
0
10
232.771000
20
70.006400
11
232.771000
21
93.382300
0
LINE
8
0
10
232.771000
20
93.382300
11
83.866200
21
93.382300
0
LINE
8
0
10
83.866200
20
93.382300
11
83.866200
21
69.792100
0
LINE
8
0
10
83.866200
20
69.792100
11
48.521100
21
69.792100
0
LINE
8
0
10
48.521100
20
69.792100
11
48.521100
21
79.856800
0
LINE
8
0
10
48.521100
20
79.856800
11
5.132120
21
79.856800
0
LINE
8
0
10
5.132120
20
79.856800
11
5.132120
21
23.725600
0
LINE
8
0
10
5.132120
20
23.725600
11
80.288000
21
23.725600
0
LINE
8
0
10
80.288000
20
23.725600
11
80.288000
21
4.858150
0
LINE
8
0
10
80.288000
20
4.858150
11
232.459000
21
4.858150
0
LINE
8
0
10
232.459000
20
4.858150
11
232.459000
21
23.937200
0
LINE
8
0
10
232.459000
20
23.937200
11
257.769000
21
23.937200
0
LINE
8
0
10
257.769000
20
23.937200
11
257.769000
21
5.778890
0
LINE
8
0
10
257.769000
20
5.778890
11
314.845000
21
5.778890
0
LINE
8
0
10
314.845000
20
5.778890
11
314.845000
21
89.961300
0
LINE
8
Layer 2
10
343.031000
20
0.132693
11
0.132294
21
0.132693
0
LINE
8
Layer 2
10
0.132294
20
0.132693
11
0.132294
21
95.382600
0
LINE
8
Layer 2
10
0.132294
20
95.382600
11
343.031000
21
95.382600
0
LINE
8
Layer 2
10
343.031000
20
95.382600
11
343.031000
21
0.132693
 0 
ENDSEC
 0 
EOF