<?xml version="1.0" encoding="UTF-8" standalone="no"?>
<svg
   viewBox="0 0 1296.9959 361.00001"
   width="1296.996"
   height="361"
   version="1.1"
   id="svg618"
   sodipodi:docname="Cutout Switch Panel.svg"
   inkscape:version="1.2 (dc2aedaf03, 2022-05-15)"
   xmlns:inkscape="http://www.inkscape.org/namespaces/inkscape"
   xmlns:sodipodi="http://sodipodi.sourceforge.net/DTD/sodipodi-0.dtd"
   xmlns="http://www.w3.org/2000/svg"
   xmlns:svg="http://www.w3.org/2000/svg">
  <sodipodi:namedview
     id="namedview620"
     pagecolor="#ffffff"
     bordercolor="#666666"
     borderopacity="1.0"
     inkscape:showpageshadow="2"
     inkscape:pageopacity="0.0"
     inkscape:pagecheckerboard="0"
     inkscape:deskcolor="#d1d1d1"
     showgrid="false"
     inkscape:zoom="0.84096523"
     inkscape:cx="630.2282"
     inkscape:cy="243.76751"
     inkscape:window-width="1920"
     inkscape:window-height="1017"
     inkscape:window-x="-8"
     inkscape:window-y="-8"
     inkscape:window-maximized="1"
     inkscape:current-layer="g604" />
  <desc
     id="desc2">Cutout Switch Panel.dxf - scale = 1.000000, origin = (0.000000, 0.000000), method = manual</desc>
  <defs
     id="defs14">
    <marker
       id="DistanceX"
       orient="auto"
       refX="0"
       refY="0"
       style="overflow:visible">
      <path
         d="M 3,-3 -3,3 M 0,-5 V 5"
         style="stroke:#000000;stroke-width:0.5"
         id="path4" />
    </marker>
    <pattern
       id="Hatch"
       patternUnits="userSpaceOnUse"
       width="8"
       height="8"
       x="0"
       y="0">
      <path
         d="M8 4 l-4,4"
         stroke="#000000"
         stroke-width="0.25"
         linecap="square"
         id="path7" />
      <path
         d="M6 2 l-4,4"
         stroke="#000000"
         stroke-width="0.25"
         linecap="square"
         id="path9" />
      <path
         d="M4 0 l-4,4"
         stroke="#000000"
         stroke-width="0.25"
         linecap="square"
         id="path11" />
    </pattern>
  </defs>
  <g
     inkscape:groupmode="layer"
     inkscape:label="0"
     id="g604"
     transform="translate(-8.3535334,-192.59414)">
    <path
       style="fill:none;stroke:#000000"
       d="m 904.92953,230.99414 0.64,-3.17"
       id="path16" />
    <path
       style="fill:none;stroke:#000000"
       d="m 905.56953,227.82414 1.75,-2.59"
       id="path18" />
    <path
       style="fill:none;stroke:#000000"
       d="m 907.31953,225.23414 2.59,-1.74"
       id="path20" />
    <path
       style="fill:none;stroke:#000000"
       d="m 909.90953,223.49414 3.18,-0.64"
       id="path22" />
    <path
       style="fill:none;stroke:#000000"
       d="m 913.08953,222.85414 3.17,0.64"
       id="path24" />
    <path
       style="fill:none;stroke:#000000"
       d="m 916.25953,223.49414 2.59,1.74"
       id="path26" />
    <path
       style="fill:none;stroke:#000000"
       d="m 918.84953,225.23414 1.75,2.59"
       id="path28" />
    <path
       style="fill:none;stroke:#000000"
       d="m 920.59953,227.82414 0.65,3.17"
       id="path30" />
    <path
       style="fill:none;stroke:#000000"
       d="m 921.24953,230.99414 -0.65,3.17"
       id="path32" />
    <path
       style="fill:none;stroke:#000000"
       d="m 920.59953,234.16414 -1.75,2.59"
       id="path34" />
    <path
       style="fill:none;stroke:#000000"
       d="m 918.84953,236.75414 -2.59,1.74"
       id="path36" />
    <path
       style="fill:none;stroke:#000000"
       d="m 916.25953,238.49414 -3.17,0.64"
       id="path38" />
    <path
       style="fill:none;stroke:#000000"
       d="m 913.08953,239.13414 -3.18,-0.64"
       id="path40" />
    <path
       style="fill:none;stroke:#000000"
       d="m 909.90953,238.49414 -2.59,-1.74"
       id="path42" />
    <path
       style="fill:none;stroke:#000000"
       d="m 907.31953,236.75414 -1.75,-2.59"
       id="path44" />
    <path
       style="fill:none;stroke:#000000"
       d="m 905.56953,234.16414 -0.64,-3.17"
       id="path46" />
    <path
       style="fill:none;stroke:#000000"
       d="m 904.92953,230.99414 v 0"
       id="path48" />
    <path
       style="fill:none;stroke:#000000"
       d="m 182.41253,522.95414 0.647,-3.17"
       id="path50" />
    <path
       style="fill:none;stroke:#000000"
       d="m 183.05953,519.78414 1.75,-2.59"
       id="path52" />
    <path
       style="fill:none;stroke:#000000"
       d="m 184.80953,517.19414 2.591,-1.75"
       id="path54" />
    <path
       style="fill:none;stroke:#000000"
       d="m 187.40053,515.44414 3.172,-0.64"
       id="path56" />
    <path
       style="fill:none;stroke:#000000"
       d="m 190.57253,514.80414 3.172,0.64"
       id="path58" />
    <path
       style="fill:none;stroke:#000000"
       d="m 193.74453,515.44414 2.592,1.75"
       id="path60" />
    <path
       style="fill:none;stroke:#000000"
       d="m 196.33653,517.19414 1.75,2.59"
       id="path62" />
    <path
       style="fill:none;stroke:#000000"
       d="m 198.08653,519.78414 0.646,3.17"
       id="path64" />
    <path
       style="fill:none;stroke:#000000"
       d="m 198.73253,522.95414 -0.646,3.17"
       id="path66" />
    <path
       style="fill:none;stroke:#000000"
       d="m 198.08653,526.12414 -1.75,2.59"
       id="path68" />
    <path
       style="fill:none;stroke:#000000"
       d="m 196.33653,528.71414 -2.592,1.74"
       id="path70" />
    <path
       style="fill:none;stroke:#000000"
       d="m 193.74453,530.45414 -3.172,0.64"
       id="path72" />
    <path
       style="fill:none;stroke:#000000"
       d="m 190.57253,531.09414 -3.172,-0.64"
       id="path74" />
    <path
       style="fill:none;stroke:#000000"
       d="m 187.40053,530.45414 -2.591,-1.74"
       id="path76" />
    <path
       style="fill:none;stroke:#000000"
       d="m 184.80953,528.71414 -1.75,-2.59"
       id="path78" />
    <path
       style="fill:none;stroke:#000000"
       d="m 183.05953,526.12414 -0.647,-3.17"
       id="path80" />
    <path
       style="fill:none;stroke:#000000"
       d="m 182.41253,522.95414 v 0"
       id="path82" />
    <path
       style="fill:none;stroke:#000000"
       d="m 1259.1695,230.99414 0.64,-3.17"
       id="path84" />
    <path
       style="fill:none;stroke:#000000"
       d="m 1259.8095,227.82414 1.75,-2.59"
       id="path86" />
    <path
       style="fill:none;stroke:#000000"
       d="m 1261.5595,225.23414 2.59,-1.74"
       id="path88" />
    <path
       style="fill:none;stroke:#000000"
       d="m 1264.1495,223.49414 3.18,-0.64"
       id="path90" />
    <path
       style="fill:none;stroke:#000000"
       d="m 1267.3295,222.85414 3.17,0.64"
       id="path92" />
    <path
       style="fill:none;stroke:#000000"
       d="m 1270.4995,223.49414 2.59,1.74"
       id="path94" />
    <path
       style="fill:none;stroke:#000000"
       d="m 1273.0895,225.23414 1.75,2.59"
       id="path96" />
    <path
       style="fill:none;stroke:#000000"
       d="m 1274.8395,227.82414 0.65,3.17"
       id="path98" />
    <path
       style="fill:none;stroke:#000000"
       d="m 1275.4895,230.99414 -0.65,3.17"
       id="path100" />
    <path
       style="fill:none;stroke:#000000"
       d="m 1274.8395,234.16414 -1.75,2.59"
       id="path102" />
    <path
       style="fill:none;stroke:#000000"
       d="m 1273.0895,236.75414 -2.59,1.74"
       id="path104" />
    <path
       style="fill:none;stroke:#000000"
       d="m 1270.4995,238.49414 -3.17,0.64"
       id="path106" />
    <path
       style="fill:none;stroke:#000000"
       d="m 1267.3295,239.13414 -3.18,-0.64"
       id="path108" />
    <path
       style="fill:none;stroke:#000000"
       d="m 1264.1495,238.49414 -2.59,-1.74"
       id="path110" />
    <path
       style="fill:none;stroke:#000000"
       d="m 1261.5595,236.75414 -1.75,-2.59"
       id="path112" />
    <path
       style="fill:none;stroke:#000000"
       d="m 1259.8095,234.16414 -0.64,-3.17"
       id="path114" />
    <path
       style="fill:none;stroke:#000000"
       d="m 1259.1695,230.99414 v 0"
       id="path116" />
    <path
       style="fill:none;stroke:#000000"
       d="m 34.572533,522.95414 0.647,-3.17"
       id="path118" />
    <path
       style="fill:none;stroke:#000000"
       d="m 35.219533,519.78414 1.75,-2.59"
       id="path120" />
    <path
       style="fill:none;stroke:#000000"
       d="m 36.969533,517.19414 2.591,-1.75"
       id="path122" />
    <path
       style="fill:none;stroke:#000000"
       d="m 39.560533,515.44414 3.172,-0.64"
       id="path124" />
    <path
       style="fill:none;stroke:#000000"
       d="m 42.732533,514.80414 3.172,0.64"
       id="path126" />
    <path
       style="fill:none;stroke:#000000"
       d="m 45.904533,515.44414 2.592,1.75"
       id="path128" />
    <path
       style="fill:none;stroke:#000000"
       d="m 48.496533,517.19414 1.75,2.59"
       id="path130" />
    <path
       style="fill:none;stroke:#000000"
       d="m 50.246533,519.78414 0.646,3.17"
       id="path132" />
    <path
       style="fill:none;stroke:#000000"
       d="m 50.892533,522.95414 -0.646,3.17"
       id="path134" />
    <path
       style="fill:none;stroke:#000000"
       d="m 50.246533,526.12414 -1.75,2.59"
       id="path136" />
    <path
       style="fill:none;stroke:#000000"
       d="m 48.496533,528.71414 -2.592,1.74"
       id="path138" />
    <path
       style="fill:none;stroke:#000000"
       d="m 45.904533,530.45414 -3.172,0.64"
       id="path140" />
    <path
       style="fill:none;stroke:#000000"
       d="m 42.732533,531.09414 -3.172,-0.64"
       id="path142" />
    <path
       style="fill:none;stroke:#000000"
       d="m 39.560533,530.45414 -2.591,-1.74"
       id="path144" />
    <path
       style="fill:none;stroke:#000000"
       d="m 36.969533,528.71414 -1.75,-2.59"
       id="path146" />
    <path
       style="fill:none;stroke:#000000"
       d="m 35.219533,526.12414 -0.647,-3.17"
       id="path148" />
    <path
       style="fill:none;stroke:#000000"
       d="m 34.572533,522.95414 v 0"
       id="path150" />
    <path
       style="fill:none;stroke:#000000"
       d="m 182.41253,231.11414 0.647,-3.17"
       id="path152" />
    <path
       style="fill:none;stroke:#000000"
       d="m 183.05953,227.94414 1.75,-2.59"
       id="path154" />
    <path
       style="fill:none;stroke:#000000"
       d="m 184.80953,225.35414 2.591,-1.75"
       id="path156" />
    <path
       style="fill:none;stroke:#000000"
       d="m 187.40053,223.60414 3.172,-0.64"
       id="path158" />
    <path
       style="fill:none;stroke:#000000"
       d="m 190.57253,222.96414 3.172,0.64"
       id="path160" />
    <path
       style="fill:none;stroke:#000000"
       d="m 193.74453,223.60414 2.592,1.75"
       id="path162" />
    <path
       style="fill:none;stroke:#000000"
       d="m 196.33653,225.35414 1.75,2.59"
       id="path164" />
    <path
       style="fill:none;stroke:#000000"
       d="m 198.08653,227.94414 0.646,3.17"
       id="path166" />
    <path
       style="fill:none;stroke:#000000"
       d="m 198.73253,231.11414 -0.646,3.17"
       id="path168" />
    <path
       style="fill:none;stroke:#000000"
       d="m 198.08653,234.28414 -1.75,2.59"
       id="path170" />
    <path
       style="fill:none;stroke:#000000"
       d="m 196.33653,236.87414 -2.592,1.74"
       id="path172" />
    <path
       style="fill:none;stroke:#000000"
       d="m 193.74453,238.61414 -3.172,0.64"
       id="path174" />
    <path
       style="fill:none;stroke:#000000"
       d="m 190.57253,239.25414 -3.172,-0.64"
       id="path176" />
    <path
       style="fill:none;stroke:#000000"
       d="m 187.40053,238.61414 -2.591,-1.74"
       id="path178" />
    <path
       style="fill:none;stroke:#000000"
       d="m 184.80953,236.87414 -1.75,-2.59"
       id="path180" />
    <path
       style="fill:none;stroke:#000000"
       d="m 183.05953,234.28414 -0.647,-3.17"
       id="path182" />
    <path
       style="fill:none;stroke:#000000"
       d="m 182.41253,231.11414 v 0"
       id="path184" />
    <path
       style="fill:none;stroke:#000000"
       d="m 34.572533,231.11414 0.647,-3.17"
       id="path186" />
    <path
       style="fill:none;stroke:#000000"
       d="m 35.219533,227.94414 1.75,-2.59"
       id="path188" />
    <path
       style="fill:none;stroke:#000000"
       d="m 36.969533,225.35414 2.591,-1.75"
       id="path190" />
    <path
       style="fill:none;stroke:#000000"
       d="m 39.560533,223.60414 3.172,-0.64"
       id="path192" />
    <path
       style="fill:none;stroke:#000000"
       d="m 42.732533,222.96414 3.172,0.64"
       id="path194" />
    <path
       style="fill:none;stroke:#000000"
       d="m 45.904533,223.60414 2.592,1.75"
       id="path196" />
    <path
       style="fill:none;stroke:#000000"
       d="m 48.496533,225.35414 1.75,2.59"
       id="path198" />
    <path
       style="fill:none;stroke:#000000"
       d="m 50.246533,227.94414 0.646,3.17"
       id="path200" />
    <path
       style="fill:none;stroke:#000000"
       d="m 50.892533,231.11414 -0.646,3.17"
       id="path202" />
    <path
       style="fill:none;stroke:#000000"
       d="m 50.246533,234.28414 -1.75,2.59"
       id="path204" />
    <path
       style="fill:none;stroke:#000000"
       d="m 48.496533,236.87414 -2.592,1.74"
       id="path206" />
    <path
       style="fill:none;stroke:#000000"
       d="m 45.904533,238.61414 -3.172,0.64"
       id="path208" />
    <path
       style="fill:none;stroke:#000000"
       d="m 42.732533,239.25414 -3.172,-0.64"
       id="path210" />
    <path
       style="fill:none;stroke:#000000"
       d="m 39.560533,238.61414 -2.591,-1.74"
       id="path212" />
    <path
       style="fill:none;stroke:#000000"
       d="m 36.969533,236.87414 -1.75,-2.59"
       id="path214" />
    <path
       style="fill:none;stroke:#000000"
       d="m 35.219533,234.28414 -0.647,-3.17"
       id="path216" />
    <path
       style="fill:none;stroke:#000000"
       d="m 34.572533,231.11414 v 0"
       id="path218" />
    <path
       style="fill:none;stroke:#000000"
       d="m 1259.1695,522.83414 0.64,-3.17"
       id="path220" />
    <path
       style="fill:none;stroke:#000000"
       d="m 1259.8095,519.66414 1.75,-2.59"
       id="path222" />
    <path
       style="fill:none;stroke:#000000"
       d="m 1261.5595,517.07414 2.59,-1.75"
       id="path224" />
    <path
       style="fill:none;stroke:#000000"
       d="m 1264.1495,515.32414 3.18,-0.64"
       id="path226" />
    <path
       style="fill:none;stroke:#000000"
       d="m 1267.3295,514.68414 3.17,0.64"
       id="path228" />
    <path
       style="fill:none;stroke:#000000"
       d="m 1270.4995,515.32414 2.59,1.75"
       id="path230" />
    <path
       style="fill:none;stroke:#000000"
       d="m 1273.0895,517.07414 1.75,2.59"
       id="path232" />
    <path
       style="fill:none;stroke:#000000"
       d="m 1274.8395,519.66414 0.65,3.17"
       id="path234" />
    <path
       style="fill:none;stroke:#000000"
       d="m 1275.4895,522.83414 -0.65,3.17"
       id="path236" />
    <path
       style="fill:none;stroke:#000000"
       d="m 1274.8395,526.00414 -1.75,2.58"
       id="path238" />
    <path
       style="fill:none;stroke:#000000"
       d="m 1273.0895,528.58414 -2.59,1.75"
       id="path240" />
    <path
       style="fill:none;stroke:#000000"
       d="m 1270.4995,530.33414 -3.17,0.64"
       id="path242" />
    <path
       style="fill:none;stroke:#000000"
       d="m 1267.3295,530.97414 -3.18,-0.64"
       id="path244" />
    <path
       style="fill:none;stroke:#000000"
       d="m 1264.1495,530.33414 -2.59,-1.75"
       id="path246" />
    <path
       style="fill:none;stroke:#000000"
       d="m 1261.5595,528.58414 -1.75,-2.58"
       id="path248" />
    <path
       style="fill:none;stroke:#000000"
       d="m 1259.8095,526.00414 -0.64,-3.17"
       id="path250" />
    <path
       style="fill:none;stroke:#000000"
       d="m 1259.1695,522.83414 v 0"
       id="path252" />
    <path
       style="fill:none;stroke:#000000"
       d="m 904.92953,522.83414 0.64,-3.17"
       id="path254" />
    <path
       style="fill:none;stroke:#000000"
       d="m 905.56953,519.66414 1.75,-2.59"
       id="path256" />
    <path
       style="fill:none;stroke:#000000"
       d="m 907.31953,517.07414 2.59,-1.75"
       id="path258" />
    <path
       style="fill:none;stroke:#000000"
       d="m 909.90953,515.32414 3.18,-0.64"
       id="path260" />
    <path
       style="fill:none;stroke:#000000"
       d="m 913.08953,514.68414 3.17,0.64"
       id="path262" />
    <path
       style="fill:none;stroke:#000000"
       d="m 916.25953,515.32414 2.59,1.75"
       id="path264" />
    <path
       style="fill:none;stroke:#000000"
       d="m 918.84953,517.07414 1.75,2.59"
       id="path266" />
    <path
       style="fill:none;stroke:#000000"
       d="m 920.59953,519.66414 0.65,3.17"
       id="path268" />
    <path
       style="fill:none;stroke:#000000"
       d="m 921.24953,522.83414 -0.65,3.17"
       id="path270" />
    <path
       style="fill:none;stroke:#000000"
       d="m 920.59953,526.00414 -1.75,2.58"
       id="path272" />
    <path
       style="fill:none;stroke:#000000"
       d="m 918.84953,528.58414 -2.59,1.75"
       id="path274" />
    <path
       style="fill:none;stroke:#000000"
       d="m 916.25953,530.33414 -3.17,0.64"
       id="path276" />
    <path
       style="fill:none;stroke:#000000"
       d="m 913.08953,530.97414 -3.18,-0.64"
       id="path278" />
    <path
       style="fill:none;stroke:#000000"
       d="m 909.90953,530.33414 -2.59,-1.75"
       id="path280" />
    <path
       style="fill:none;stroke:#000000"
       d="m 907.31953,528.58414 -1.75,-2.58"
       id="path282" />
    <path
       style="fill:none;stroke:#000000"
       d="m 905.56953,526.00414 -0.64,-3.17"
       id="path284" />
    <path
       style="fill:none;stroke:#000000"
       d="m 904.92953,522.83414 v 0"
       id="path286" />
    <path
       style="fill:none;stroke:#000000"
       d="m 904.92953,230.99414 0.64,-3.17"
       id="path296" />
    <path
       style="fill:none;stroke:#000000"
       d="m 905.56953,227.82414 1.75,-2.59"
       id="path298" />
    <path
       style="fill:none;stroke:#000000"
       d="m 907.31953,225.23414 2.59,-1.74"
       id="path300" />
    <path
       style="fill:none;stroke:#000000"
       d="m 909.90953,223.49414 3.18,-0.64"
       id="path302" />
    <path
       style="fill:none;stroke:#000000"
       d="m 913.08953,222.85414 3.17,0.64"
       id="path304" />
    <path
       style="fill:none;stroke:#000000"
       d="m 916.25953,223.49414 2.59,1.74"
       id="path306" />
    <path
       style="fill:none;stroke:#000000"
       d="m 918.84953,225.23414 1.75,2.59"
       id="path308" />
    <path
       style="fill:none;stroke:#000000"
       d="m 920.59953,227.82414 0.65,3.17"
       id="path310" />
    <path
       style="fill:none;stroke:#000000"
       d="m 921.24953,230.99414 -0.65,3.17"
       id="path312" />
    <path
       style="fill:none;stroke:#000000"
       d="m 920.59953,234.16414 -1.75,2.59"
       id="path314" />
    <path
       style="fill:none;stroke:#000000"
       d="m 918.84953,236.75414 -2.59,1.74"
       id="path316" />
    <path
       style="fill:none;stroke:#000000"
       d="m 916.25953,238.49414 -3.17,0.64"
       id="path318" />
    <path
       style="fill:none;stroke:#000000"
       d="m 913.08953,239.13414 -3.18,-0.64"
       id="path320" />
    <path
       style="fill:none;stroke:#000000"
       d="m 909.90953,238.49414 -2.59,-1.74"
       id="path322" />
    <path
       style="fill:none;stroke:#000000"
       d="m 907.31953,236.75414 -1.75,-2.59"
       id="path324" />
    <path
       style="fill:none;stroke:#000000"
       d="m 905.56953,234.16414 -0.64,-3.17"
       id="path326" />
    <path
       style="fill:none;stroke:#000000"
       d="m 904.92953,230.99414 v 0"
       id="path328" />
    <path
       style="fill:none;stroke:#000000"
       d="m 904.92953,522.83414 0.64,-3.17"
       id="path330" />
    <path
       style="fill:none;stroke:#000000"
       d="m 905.56953,519.66414 1.75,-2.59"
       id="path332" />
    <path
       style="fill:none;stroke:#000000"
       d="m 907.31953,517.07414 2.59,-1.75"
       id="path334" />
    <path
       style="fill:none;stroke:#000000"
       d="m 909.90953,515.32414 3.18,-0.64"
       id="path336" />
    <path
       style="fill:none;stroke:#000000"
       d="m 913.08953,514.68414 3.17,0.64"
       id="path338" />
    <path
       style="fill:none;stroke:#000000"
       d="m 916.25953,515.32414 2.59,1.75"
       id="path340" />
    <path
       style="fill:none;stroke:#000000"
       d="m 918.84953,517.07414 1.75,2.59"
       id="path342" />
    <path
       style="fill:none;stroke:#000000"
       d="m 920.59953,519.66414 0.65,3.17"
       id="path344" />
    <path
       style="fill:none;stroke:#000000"
       d="m 921.24953,522.83414 -0.65,3.17"
       id="path346" />
    <path
       style="fill:none;stroke:#000000"
       d="m 920.59953,526.00414 -1.75,2.58"
       id="path348" />
    <path
       style="fill:none;stroke:#000000"
       d="m 918.84953,528.58414 -2.59,1.75"
       id="path350" />
    <path
       style="fill:none;stroke:#000000"
       d="m 916.25953,530.33414 -3.17,0.64"
       id="path352" />
    <path
       style="fill:none;stroke:#000000"
       d="m 913.08953,530.97414 -3.18,-0.64"
       id="path354" />
    <path
       style="fill:none;stroke:#000000"
       d="m 909.90953,530.33414 -2.59,-1.75"
       id="path356" />
    <path
       style="fill:none;stroke:#000000"
       d="m 907.31953,528.58414 -1.75,-2.58"
       id="path358" />
    <path
       style="fill:none;stroke:#000000"
       d="m 905.56953,526.00414 -0.64,-3.17"
       id="path360" />
    <path
       style="fill:none;stroke:#000000"
       d="m 904.92953,522.83414 v 0"
       id="path362" />
    <path
       style="fill:none;stroke:#000000"
       d="m 1259.1695,230.99414 0.64,-3.17"
       id="path364" />
    <path
       style="fill:none;stroke:#000000"
       d="m 1259.8095,227.82414 1.75,-2.59"
       id="path366" />
    <path
       style="fill:none;stroke:#000000"
       d="m 1261.5595,225.23414 2.59,-1.74"
       id="path368" />
    <path
       style="fill:none;stroke:#000000"
       d="m 1264.1495,223.49414 3.18,-0.64"
       id="path370" />
    <path
       style="fill:none;stroke:#000000"
       d="m 1267.3295,222.85414 3.17,0.64"
       id="path372" />
    <path
       style="fill:none;stroke:#000000"
       d="m 1270.4995,223.49414 2.59,1.74"
       id="path374" />
    <path
       style="fill:none;stroke:#000000"
       d="m 1273.0895,225.23414 1.75,2.59"
       id="path376" />
    <path
       style="fill:none;stroke:#000000"
       d="m 1274.8395,227.82414 0.65,3.17"
       id="path378" />
    <path
       style="fill:none;stroke:#000000"
       d="m 1275.4895,230.99414 -0.65,3.17"
       id="path380" />
    <path
       style="fill:none;stroke:#000000"
       d="m 1274.8395,234.16414 -1.75,2.59"
       id="path382" />
    <path
       style="fill:none;stroke:#000000"
       d="m 1273.0895,236.75414 -2.59,1.74"
       id="path384" />
    <path
       style="fill:none;stroke:#000000"
       d="m 1270.4995,238.49414 -3.17,0.64"
       id="path386" />
    <path
       style="fill:none;stroke:#000000"
       d="m 1267.3295,239.13414 -3.18,-0.64"
       id="path388" />
    <path
       style="fill:none;stroke:#000000"
       d="m 1264.1495,238.49414 -2.59,-1.74"
       id="path390" />
    <path
       style="fill:none;stroke:#000000"
       d="m 1261.5595,236.75414 -1.75,-2.59"
       id="path392" />
    <path
       style="fill:none;stroke:#000000"
       d="m 1259.8095,234.16414 -0.64,-3.17"
       id="path394" />
    <path
       style="fill:none;stroke:#000000"
       d="m 1259.1695,230.99414 v 0"
       id="path396" />
    <path
       style="fill:none;stroke:#000000"
       d="m 1259.1695,522.83414 0.64,-3.17"
       id="path398" />
    <path
       style="fill:none;stroke:#000000"
       d="m 1259.8095,519.66414 1.75,-2.59"
       id="path400" />
    <path
       style="fill:none;stroke:#000000"
       d="m 1261.5595,517.07414 2.59,-1.75"
       id="path402" />
    <path
       style="fill:none;stroke:#000000"
       d="m 1264.1495,515.32414 3.18,-0.64"
       id="path404" />
    <path
       style="fill:none;stroke:#000000"
       d="m 1267.3295,514.68414 3.17,0.64"
       id="path406" />
    <path
       style="fill:none;stroke:#000000"
       d="m 1270.4995,515.32414 2.59,1.75"
       id="path408" />
    <path
       style="fill:none;stroke:#000000"
       d="m 1273.0895,517.07414 1.75,2.59"
       id="path410" />
    <path
       style="fill:none;stroke:#000000"
       d="m 1274.8395,519.66414 0.65,3.17"
       id="path412" />
    <path
       style="fill:none;stroke:#000000"
       d="m 1275.4895,522.83414 -0.65,3.17"
       id="path414" />
    <path
       style="fill:none;stroke:#000000"
       d="m 1274.8395,526.00414 -1.75,2.58"
       id="path416" />
    <path
       style="fill:none;stroke:#000000"
       d="m 1273.0895,528.58414 -2.59,1.75"
       id="path418" />
    <path
       style="fill:none;stroke:#000000"
       d="m 1270.4995,530.33414 -3.17,0.64"
       id="path420" />
    <path
       style="fill:none;stroke:#000000"
       d="m 1267.3295,530.97414 -3.18,-0.64"
       id="path422" />
    <path
       style="fill:none;stroke:#000000"
       d="m 1264.1495,530.33414 -2.59,-1.75"
       id="path424" />
    <path
       style="fill:none;stroke:#000000"
       d="m 1261.5595,528.58414 -1.75,-2.58"
       id="path426" />
    <path
       style="fill:none;stroke:#000000"
       d="m 1259.8095,526.00414 -0.64,-3.17"
       id="path428" />
    <path
       style="fill:none;stroke:#000000"
       d="m 1259.1695,522.83414 v 0"
       id="path430" />
    <path
       style="fill:none;stroke:#000000"
       d="m 34.572533,522.95414 0.647,-3.17"
       id="path432" />
    <path
       style="fill:none;stroke:#000000"
       d="m 35.219533,519.78414 1.75,-2.59"
       id="path434" />
    <path
       style="fill:none;stroke:#000000"
       d="m 36.969533,517.19414 2.591,-1.75"
       id="path436" />
    <path
       style="fill:none;stroke:#000000"
       d="m 39.560533,515.44414 3.172,-0.64"
       id="path438" />
    <path
       style="fill:none;stroke:#000000"
       d="m 42.732533,514.80414 3.172,0.64"
       id="path440" />
    <path
       style="fill:none;stroke:#000000"
       d="m 45.904533,515.44414 2.592,1.75"
       id="path442" />
    <path
       style="fill:none;stroke:#000000"
       d="m 48.496533,517.19414 1.75,2.59"
       id="path444" />
    <path
       style="fill:none;stroke:#000000"
       d="m 50.246533,519.78414 0.646,3.17"
       id="path446" />
    <path
       style="fill:none;stroke:#000000"
       d="m 50.892533,522.95414 -0.646,3.17"
       id="path448" />
    <path
       style="fill:none;stroke:#000000"
       d="m 50.246533,526.12414 -1.75,2.59"
       id="path450" />
    <path
       style="fill:none;stroke:#000000"
       d="m 48.496533,528.71414 -2.592,1.74"
       id="path452" />
    <path
       style="fill:none;stroke:#000000"
       d="m 45.904533,530.45414 -3.172,0.64"
       id="path454" />
    <path
       style="fill:none;stroke:#000000"
       d="m 42.732533,531.09414 -3.172,-0.64"
       id="path456" />
    <path
       style="fill:none;stroke:#000000"
       d="m 39.560533,530.45414 -2.591,-1.74"
       id="path458" />
    <path
       style="fill:none;stroke:#000000"
       d="m 36.969533,528.71414 -1.75,-2.59"
       id="path460" />
    <path
       style="fill:none;stroke:#000000"
       d="m 35.219533,526.12414 -0.647,-3.17"
       id="path462" />
    <path
       style="fill:none;stroke:#000000"
       d="m 34.572533,522.95414 v 0"
       id="path464" />
    <path
       style="fill:none;stroke:#000000"
       d="m 182.41253,522.95414 0.647,-3.17"
       id="path466" />
    <path
       style="fill:none;stroke:#000000"
       d="m 183.05953,519.78414 1.75,-2.59"
       id="path468" />
    <path
       style="fill:none;stroke:#000000"
       d="m 184.80953,517.19414 2.591,-1.75"
       id="path470" />
    <path
       style="fill:none;stroke:#000000"
       d="m 187.40053,515.44414 3.172,-0.64"
       id="path472" />
    <path
       style="fill:none;stroke:#000000"
       d="m 190.57253,514.80414 3.172,0.64"
       id="path474" />
    <path
       style="fill:none;stroke:#000000"
       d="m 193.74453,515.44414 2.592,1.75"
       id="path476" />
    <path
       style="fill:none;stroke:#000000"
       d="m 196.33653,517.19414 1.75,2.59"
       id="path478" />
    <path
       style="fill:none;stroke:#000000"
       d="m 198.08653,519.78414 0.646,3.17"
       id="path480" />
    <path
       style="fill:none;stroke:#000000"
       d="m 198.73253,522.95414 -0.646,3.17"
       id="path482" />
    <path
       style="fill:none;stroke:#000000"
       d="m 198.08653,526.12414 -1.75,2.59"
       id="path484" />
    <path
       style="fill:none;stroke:#000000"
       d="m 196.33653,528.71414 -2.592,1.74"
       id="path486" />
    <path
       style="fill:none;stroke:#000000"
       d="m 193.74453,530.45414 -3.172,0.64"
       id="path488" />
    <path
       style="fill:none;stroke:#000000"
       d="m 190.57253,531.09414 -3.172,-0.64"
       id="path490" />
    <path
       style="fill:none;stroke:#000000"
       d="m 187.40053,530.45414 -2.591,-1.74"
       id="path492" />
    <path
       style="fill:none;stroke:#000000"
       d="m 184.80953,528.71414 -1.75,-2.59"
       id="path494" />
    <path
       style="fill:none;stroke:#000000"
       d="m 183.05953,526.12414 -0.647,-3.17"
       id="path496" />
    <path
       style="fill:none;stroke:#000000"
       d="m 182.41253,522.95414 v 0"
       id="path498" />
    <path
       style="fill:none;stroke:#000000"
       d="m 182.41253,231.11414 0.647,-3.17"
       id="path500" />
    <path
       style="fill:none;stroke:#000000"
       d="m 183.05953,227.94414 1.75,-2.59"
       id="path502" />
    <path
       style="fill:none;stroke:#000000"
       d="m 184.80953,225.35414 2.591,-1.75"
       id="path504" />
    <path
       style="fill:none;stroke:#000000"
       d="m 187.40053,223.60414 3.172,-0.64"
       id="path506" />
    <path
       style="fill:none;stroke:#000000"
       d="m 190.57253,222.96414 3.172,0.64"
       id="path508" />
    <path
       style="fill:none;stroke:#000000"
       d="m 193.74453,223.60414 2.592,1.75"
       id="path510" />
    <path
       style="fill:none;stroke:#000000"
       d="m 196.33653,225.35414 1.75,2.59"
       id="path512" />
    <path
       style="fill:none;stroke:#000000"
       d="m 198.08653,227.94414 0.646,3.17"
       id="path514" />
    <path
       style="fill:none;stroke:#000000"
       d="m 198.73253,231.11414 -0.646,3.17"
       id="path516" />
    <path
       style="fill:none;stroke:#000000"
       d="m 198.08653,234.28414 -1.75,2.59"
       id="path518" />
    <path
       style="fill:none;stroke:#000000"
       d="m 196.33653,236.87414 -2.592,1.74"
       id="path520" />
    <path
       style="fill:none;stroke:#000000"
       d="m 193.74453,238.61414 -3.172,0.64"
       id="path522" />
    <path
       style="fill:none;stroke:#000000"
       d="m 190.57253,239.25414 -3.172,-0.64"
       id="path524" />
    <path
       style="fill:none;stroke:#000000"
       d="m 187.40053,238.61414 -2.591,-1.74"
       id="path526" />
    <path
       style="fill:none;stroke:#000000"
       d="m 184.80953,236.87414 -1.75,-2.59"
       id="path528" />
    <path
       style="fill:none;stroke:#000000"
       d="m 183.05953,234.28414 -0.647,-3.17"
       id="path530" />
    <path
       style="fill:none;stroke:#000000"
       d="m 182.41253,231.11414 v 0"
       id="path532" />
    <path
       style="fill:none;stroke:#000000"
       d="m 34.572533,231.11414 0.647,-3.17"
       id="path534" />
    <path
       style="fill:none;stroke:#000000"
       d="m 35.219533,227.94414 1.75,-2.59"
       id="path536" />
    <path
       style="fill:none;stroke:#000000"
       d="m 36.969533,225.35414 2.591,-1.75"
       id="path538" />
    <path
       style="fill:none;stroke:#000000"
       d="m 39.560533,223.60414 3.172,-0.64"
       id="path540" />
    <path
       style="fill:none;stroke:#000000"
       d="m 42.732533,222.96414 3.172,0.64"
       id="path542" />
    <path
       style="fill:none;stroke:#000000"
       d="m 45.904533,223.60414 2.592,1.75"
       id="path544" />
    <path
       style="fill:none;stroke:#000000"
       d="m 48.496533,225.35414 1.75,2.59"
       id="path546" />
    <path
       style="fill:none;stroke:#000000"
       d="m 50.246533,227.94414 0.646,3.17"
       id="path548" />
    <path
       style="fill:none;stroke:#000000"
       d="m 50.892533,231.11414 -0.646,3.17"
       id="path550" />
    <path
       style="fill:none;stroke:#000000"
       d="m 50.246533,234.28414 -1.75,2.59"
       id="path552" />
    <path
       style="fill:none;stroke:#000000"
       d="m 48.496533,236.87414 -2.592,1.74"
       id="path554" />
    <path
       style="fill:none;stroke:#000000"
       d="m 45.904533,238.61414 -3.172,0.64"
       id="path556" />
    <path
       style="fill:none;stroke:#000000"
       d="m 42.732533,239.25414 -3.172,-0.64"
       id="path558" />
    <path
       style="fill:none;stroke:#000000"
       d="m 39.560533,238.61414 -2.591,-1.74"
       id="path560" />
    <path
       style="fill:none;stroke:#000000"
       d="m 36.969533,236.87414 -1.75,-2.59"
       id="path562" />
    <path
       style="fill:none;stroke:#000000"
       d="m 35.219533,234.28414 -0.647,-3.17"
       id="path564" />
    <path
       style="fill:none;stroke:#000000"
       d="m 34.572533,231.11414 v 0"
       id="path566" />
    <path
       style="fill:none;stroke:#000000"
       d="M 1198.3195,213.58414 H 940.61953"
       id="path568" />
    <path
       style="fill:none;stroke:#000000"
       d="m 940.61953,213.58414 v 75.42"
       id="path570" />
    <path
       style="fill:none;stroke:#000000"
       d="m 940.61953,289.00414 h -52.5"
       id="path572" />
    <path
       style="fill:none;stroke:#000000"
       d="m 888.11953,289.00414 v -88.35"
       id="path574" />
    <path
       style="fill:none;stroke:#000000"
       d="m 888.11953,200.65414 h -562.791"
       id="path576" />
    <path
       style="fill:none;stroke:#000000"
       d="m 325.32853,200.65414 v 89.16"
       id="path578" />
    <path
       style="fill:none;stroke:#000000"
       d="m 325.32853,289.81414 h -133.588"
       id="path580" />
    <path
       style="fill:none;stroke:#000000"
       d="m 191.74053,289.81414 v -38.04"
       id="path582" />
    <path
       style="fill:none;stroke:#000000"
       d="M 191.74053,251.77414 H 27.750533"
       id="path584" />
    <path
       style="fill:none;stroke:#000000"
       d="m 27.750533,251.77414 v 212.15"
       id="path586" />
    <path
       style="fill:none;stroke:#000000"
       d="M 27.750533,463.92414 H 311.80453"
       id="path588" />
    <path
       style="fill:none;stroke:#000000"
       d="m 311.80453,463.92414 v 71.31"
       id="path590" />
    <path
       style="fill:none;stroke:#000000"
       d="m 311.80453,535.23414 h 575.135"
       id="path592" />
    <path
       style="fill:none;stroke:#000000"
       d="m 886.93953,535.23414 v -72.11"
       id="path594" />
    <path
       style="fill:none;stroke:#000000"
       d="m 886.93953,463.12414 h 95.66"
       id="path596" />
    <path
       style="fill:none;stroke:#000000"
       d="m 982.59953,463.12414 v 68.63"
       id="path598" />
    <path
       style="fill:none;stroke:#000000"
       d="M 982.59953,531.75414 H 1198.3195"
       id="path600" />
    <path
       style="fill:none;stroke:#000000"
       d="m 1198.3195,531.75414 v -318.17"
       id="path602" />
  </g>
  <g
     inkscape:groupmode="layer"
     inkscape:label="Layer 1"
     id="g616"
     transform="translate(-8.3535334,-192.59414)" />
  <g
     inkscape:groupmode="layer"
     id="layer1"
     inkscape:label="Layer 2"
     transform="translate(-8.3535334,-192.59414)"
     style="display:none">
    <path
       style="fill:none;stroke:#000000"
       d="M 1304.8495,553.09414 H 8.8535334"
       id="path288" />
    <path
       style="fill:none;stroke:#000000"
       d="m 8.8535334,553.09414 v -360"
       id="path290" />
    <path
       style="fill:none;stroke:#000000"
       d="M 8.8535334,193.09414 H 1304.8495"
       id="path292" />
    <path
       style="fill:none;stroke:#000000"
       d="m 1304.8495,193.09414 v 360"
       id="path294" />
  </g>
</svg>
