0
SECTION
2
HEADER
9
$INSUNITS
70
4
9
$ACADVER
1
AC1014
9
$HANDSEED
5
FFFF
0
ENDSEC
0
SECTION
2
TABLES
0
TABLE
2
VPORT
5
8
100
AcDbSymbolTable
0
ENDTAB
0
TABLE
2
LTYPE
5
5
100
AcDbSymbolTable
0
LTYPE
5
14
100
AcDbSymbolTableRecord
100
AcDbLinetypeTableRecord
2
BYBLOCK
70
0
0
LTYPE
5
15
100
AcDbSymbolTableRecord
100
AcDbLinetypeTableRecord
2
BYLAYER
70
0
0
ENDTAB
0
TABLE
2
LAYER
5
2
100
AcDbSymbolTable
70
2
0
LAYER
5
50
100
AcDbSymbolTableRecord
100
AcDbLayerTableRecord
2
0
70
0
6
CONTINUOUS
0
ENDTAB
0
TABLE
2
STYLE
5
3
100
AcDbSymbolTable
70
1
0
STYLE
5
11
100
AcDbSymbolTableRecord
100
AcDbTextStyleTableRecord
2
STANDARD
70
0
0
ENDTAB
0
TABLE
2
VIEW
5
6
100
AcDbSymbolTable
70
0
0
ENDTAB
0
TABLE
2
UCS
5
7
100
AcDbSymbolTable
70
0
0
ENDTAB
0
TABLE
2
APPID
5
9
100
AcDbSymbolTable
70
2
0
APPID
5
12
100
AcDbSymbolTableRecord
100
AcDbRegAppTableRecord
2
ACAD
70
0
0
ENDTAB
0
TABLE
2
DIMSTYLE
5
A
100
AcDbSymbolTable
70
1
0
ENDTAB
0
TABLE
2
BLOCK_RECORD
5
1
100
AcDbSymbolTable
70
1
0
BLOCK_RECORD
5
1F
100
AcDbSymbolTableRecord
100
AcDbBlockTableRecord
2
*MODEL_SPACE
0
BLOCK_RECORD
5
1B
100
AcDbSymbolTableRecord
100
AcDbBlockTableRecord
2
*PAPER_SPACE
0
ENDTAB
0
ENDSEC
0
SECTION
2
BLOCKS
0
BLOCK
5
20
100
AcDbEntity
100
AcDbBlockBegin
2
*MODEL_SPACE
0
ENDBLK
5
21
100
AcDbEntity
100
AcDbBlockEnd
0
BLOCK
5
1C
100
AcDbEntity
100
AcDbBlockBegin
2
*PAPER_SPACE
0
ENDBLK
5
1D
100
AcDbEntity
100
AcDbBlockEnd
0
ENDSEC
0
SECTION
2
ENTITIES
0
CIRCLE
5
100
100
AcDbEntity
8
0
100
AcDbCircle
10
-272.58953425856129
20
-177.50536990216645
30
0
40
5.9181999999999846
210
-8.0218809967005258e-50
220
1.6400254940674463e-83
230
1
0
CIRCLE
5
101
100
AcDbEntity
8
0
100
AcDbCircle
10
-292.90953425856128
20
-177.50536990216645
30
0
40
5.9181999999999846
210
-8.0218809967005258e-50
220
1.6400254940674463e-83
230
1
0
CIRCLE
5
102
100
AcDbEntity
8
0
100
AcDbCircle
10
-313.22953425856133
20
-177.50536990216645
30
0
40
5.9181999999999846
210
-8.0218809967005258e-50
220
1.6400254940674463e-83
230
1
0
CIRCLE
5
103
100
AcDbEntity
8
0
100
AcDbCircle
10
-333.54953425856132
20
-177.50536990216645
30
0
40
5.9181999999999846
210
-8.0218809967005258e-50
220
1.6400254940674463e-83
230
1
0
CIRCLE
5
104
100
AcDbEntity
8
0
100
AcDbCircle
10
-353.86953425856132
20
-177.50536990216645
30
0
40
5.9181999999999846
210
-8.0218809967005258e-50
220
1.6400254940674463e-83
230
1
0
CIRCLE
5
105
100
AcDbEntity
8
0
100
AcDbCircle
10
-374.18953425856131
20
-177.50536990216645
30
0
40
5.9181999999999846
210
-8.0218809967005258e-50
220
1.6400254940674463e-83
230
1
0
LWPOLYLINE
5
106
100
AcDbEntity
8
0
100
AcDbPolyline
90
4
70
1
43
0.0
10
-407.91850109185367
20
-139.56962797267283
10
-386.86850109185372
20
-139.56962797267283
10
-386.86850109185355
20
-175.63762797267282
10
-407.91850109185395
20
-175.6376279726727
0
CIRCLE
5
107
100
AcDbEntity
8
0
100
AcDbCircle
10
-232.72504813687223
20
-119.00703631382811
30
0
40
2.1590000000000131
210
-8.0218809967005267e-50
220
-4.9303806576313238e-32
230
1
0
LWPOLYLINE
5
108
100
AcDbEntity
8
0
100
AcDbPolyline
90
4
70
1
43
0.0
10
-242.63001144910729
20
-139.35625357233943
10
-221.5800114491073
20
-139.35625357233943
10
-221.58001144910736
20
-175.42425357233947
10
-242.63001144910731
20
-175.42425357233935
0
CIRCLE
5
109
100
AcDbEntity
8
0
100
AcDbCircle
10
-423.89041576056638
20
-196.25471060007408
30
0
40
2.1589999999999772
210
-9.62964972193619e-35
220
1.9687241744686325e-68
230
1
0
CIRCLE
5
110
100
AcDbEntity
8
0
100
AcDbCircle
10
-252.84639251238639
20
-136.85162880328849
30
-5.5511151231257827e-16
40
5.9181999999999846
210
-8.0218809967005258e-50
220
1.6400254940674463e-83
230
1
0
CIRCLE
5
111
100
AcDbEntity
8
0
100
AcDbCircle
10
-138.99904813687223
20
-119.00703631382811
30
0
40
2.1590000000000131
210
-8.0218809967005267e-50
220
-4.9303806576313238e-32
230
1
0
CIRCLE
5
112
100
AcDbEntity
8
0
100
AcDbCircle
10
-463.00641576056643
20
-196.25471060007408
30
0
40
2.1589999999999772
210
-9.62964972193619e-35
220
1.9687241744686325e-68
230
1
0
CIRCLE
5
113
100
AcDbEntity
8
0
100
AcDbCircle
10
-423.89041576056638
20
-119.03871060007404
30
0
40
2.1589999999999772
210
-9.62964972193619e-35
220
1.9687241744686325e-68
230
1
0
CIRCLE
5
114
100
AcDbEntity
8
0
100
AcDbCircle
10
-463.00641576056643
20
-119.03871060007404
30
0
40
2.1589999999999772
210
-9.62964972193619e-35
220
1.9687241744686325e-68
230
1
0
CIRCLE
5
115
100
AcDbEntity
8
0
100
AcDbCircle
10
-313.72172584600196
20
-136.85162880328849
30
-5.5511151231257827e-16
40
5.9181999999999846
210
-8.0218809967005258e-50
220
1.6400254940674463e-83
230
1
0
CIRCLE
5
116
100
AcDbEntity
8
0
100
AcDbCircle
10
-191.97105917933524
20
-136.85162880328849
30
0
40
5.9181999999999846
210
-8.0218809967005258e-50
220
1.6400254940674463e-83
230
1
0
CIRCLE
5
117
100
AcDbEntity
8
0
100
AcDbCircle
10
-354.30528140155752
20
-136.85162880328849
30
-5.5511151231257827e-16
40
5.9181999999999846
210
-8.0218809967005258e-50
220
1.6400254940674463e-83
230
1
0
CIRCLE
5
118
100
AcDbEntity
8
0
100
AcDbCircle
10
-138.99904813687223
20
-196.22303631382812
30
0
40
2.1590000000000131
210
-8.0218809967005267e-50
220
-4.9303806576313238e-32
230
1
0
CIRCLE
5
119
100
AcDbEntity
8
0
100
AcDbCircle
10
-374.59705917933525
20
-136.85162880328849
30
-5.5511151231257827e-16
40
5.9181999999999846
210
-8.0218809967005258e-50
220
1.6400254940674463e-83
230
1
0
CIRCLE
5
120
100
AcDbEntity
8
0
100
AcDbCircle
10
-232.72504813687223
20
-196.22303631382812
30
0
40
2.1590000000000131
210
-8.0218809967005267e-50
220
-4.9303806576313238e-32
230
1
0
CIRCLE
5
121
100
AcDbEntity
8
0
100
AcDbCircle
10
-334.01350362377968
20
-136.85162880328849
30
-5.5511151231257827e-16
40
5.9181999999999846
210
-8.0218809967005258e-50
220
1.6400254940674463e-83
230
1
0
CIRCLE
5
122
100
AcDbEntity
8
0
100
AcDbCircle
10
-293.42994806822412
20
-136.85162880328849
30
-5.5511151231257827e-16
40
5.9181999999999846
210
-8.0218809967005258e-50
220
1.6400254940674463e-83
230
1
0
CIRCLE
5
123
100
AcDbEntity
8
0
100
AcDbCircle
10
-273.13817029044634
20
-136.85162880328849
30
-5.5511151231257827e-16
40
5.9181999999999846
210
-8.0218809967005258e-50
220
1.6400254940674463e-83
230
1
0
CIRCLE
5
124
100
AcDbEntity
8
0
100
AcDbCircle
10
-212.26283695711302
20
-136.85162880328849
30
0
40
5.9181999999999846
210
-8.0218809967005258e-50
220
1.6400254940674463e-83
230
1
0
CIRCLE
5
125
100
AcDbEntity
8
0
100
AcDbCircle
10
-252.26953425856129
20
-177.50536990216645
30
0
40
5.9181999999999846
210
-8.0218809967005258e-50
220
1.6400254940674463e-83
230
1
0
LWPOLYLINE
5
126
100
AcDbEntity
8
0
100
AcDbPolyline
90
4
70
1
43
0.0
10
-471.30199705220559
20
-204.23002821059814
10
-128.40199705220499
20
-204.23002821059799
10
-128.40199705220499
20
-108.98002821059805
10
-471.30199705220497
20
-108.98002821059805
0
CIRCLE
5
127
100
AcDbEntity
8
0
100
AcDbCircle
10
-252.26953425856129
20
-177.50536990216645
30
0
40
5.9181999999999846
210
0
220
0
230
1
0
CIRCLE
5
128
100
AcDbEntity
8
0
100
AcDbCircle
10
-212.26283695711302
20
-136.85162880328849
30
0
40
5.9181999999999846
210
0
220
0
230
1
0
CIRCLE
5
129
100
AcDbEntity
8
0
100
AcDbCircle
10
-273.13817029044634
20
-136.85162880328849
30
0
40
5.9181999999999846
210
0
220
0
230
1
0
CIRCLE
5
130
100
AcDbEntity
8
0
100
AcDbCircle
10
-293.42994806822412
20
-136.85162880328849
30
0
40
5.9181999999999846
210
0
220
0
230
1
0
CIRCLE
5
131
100
AcDbEntity
8
0
100
AcDbCircle
10
-334.01350362377968
20
-136.85162880328849
30
0
40
5.9181999999999846
210
0
220
0
230
1
0
CIRCLE
5
132
100
AcDbEntity
8
0
100
AcDbCircle
10
-232.72504813687223
20
-196.22303631382812
30
0
40
2.1590000000000131
210
0
220
0
230
1
0
CIRCLE
5
133
100
AcDbEntity
8
0
100
AcDbCircle
10
-374.59705917933525
20
-136.85162880328849
30
0
40
5.9181999999999846
210
0
220
0
230
1
0
CIRCLE
5
134
100
AcDbEntity
8
0
100
AcDbCircle
10
-138.99904813687223
20
-196.22303631382812
30
0
40
2.1590000000000131
210
0
220
0
230
1
0
CIRCLE
5
135
100
AcDbEntity
8
0
100
AcDbCircle
10
-354.30528140155752
20
-136.85162880328849
30
0
40
5.9181999999999846
210
0
220
0
230
1
0
CIRCLE
5
136
100
AcDbEntity
8
0
100
AcDbCircle
10
-191.97105917933524
20
-136.85162880328849
30
0
40
5.9181999999999846
210
0
220
0
230
1
0
CIRCLE
5
137
100
AcDbEntity
8
0
100
AcDbCircle
10
-313.72172584600196
20
-136.85162880328849
30
0
40
5.9181999999999846
210
0
220
0
230
1
0
CIRCLE
5
138
100
AcDbEntity
8
0
100
AcDbCircle
10
-463.00641576056643
20
-119.03871060007404
30
0
40
2.1589999999999776
210
0
220
0
230
1
0
CIRCLE
5
139
100
AcDbEntity
8
0
100
AcDbCircle
10
-423.89041576056638
20
-119.03871060007404
30
0
40
2.1589999999999776
210
0
220
0
230
1
0
CIRCLE
5
140
100
AcDbEntity
8
0
100
AcDbCircle
10
-463.00641576056643
20
-196.25471060007408
30
0
40
2.1589999999999776
210
0
220
0
230
1
0
CIRCLE
5
141
100
AcDbEntity
8
0
100
AcDbCircle
10
-138.99904813687223
20
-119.00703631382811
30
0
40
2.1590000000000131
210
0
220
0
230
1
0
CIRCLE
5
142
100
AcDbEntity
8
0
100
AcDbCircle
10
-252.84639251238639
20
-136.85162880328849
30
0
40
5.9181999999999846
210
0
220
0
230
1
0
CIRCLE
5
143
100
AcDbEntity
8
0
100
AcDbCircle
10
-423.89041576056638
20
-196.25471060007408
30
0
40
2.1589999999999776
210
0
220
0
230
1
0
LWPOLYLINE
5
144
100
AcDbEntity
8
0
100
AcDbPolyline
90
4
70
1
43
0.0
10
-221.58001144910736
20
-175.42425357233947
10
-221.5800114491073
20
-139.35625357233943
10
-242.63001144910729
20
-139.35625357233943
10
-242.63001144910731
20
-175.42425357233935
0
CIRCLE
5
145
100
AcDbEntity
8
0
100
AcDbCircle
10
-232.72504813687223
20
-119.00703631382811
30
0
40
2.1590000000000131
210
0
220
0
230
1
0
LWPOLYLINE
5
146
100
AcDbEntity
8
0
100
AcDbPolyline
90
4
70
1
43
0.0
10
-386.86850109185355
20
-175.63762797267282
10
-386.86850109185372
20
-139.56962797267283
10
-407.91850109185367
20
-139.56962797267283
10
-407.91850109185395
20
-175.6376279726727
0
CIRCLE
5
147
100
AcDbEntity
8
0
100
AcDbCircle
10
-374.18953425856131
20
-177.50536990216645
30
0
40
5.9181999999999846
210
0
220
0
230
1
0
CIRCLE
5
148
100
AcDbEntity
8
0
100
AcDbCircle
10
-353.86953425856132
20
-177.50536990216645
30
0
40
5.9181999999999846
210
0
220
0
230
1
0
CIRCLE
5
149
100
AcDbEntity
8
0
100
AcDbCircle
10
-333.54953425856132
20
-177.50536990216645
30
0
40
5.9181999999999846
210
0
220
0
230
1
0
CIRCLE
5
150
100
AcDbEntity
8
0
100
AcDbCircle
10
-313.22953425856133
20
-177.50536990216645
30
0
40
5.9181999999999846
210
0
220
0
230
1
0
CIRCLE
5
151
100
AcDbEntity
8
0
100
AcDbCircle
10
-292.90953425856128
20
-177.50536990216645
30
0
40
5.9181999999999846
210
0
220
0
230
1
0
CIRCLE
5
152
100
AcDbEntity
8
0
100
AcDbCircle
10
-272.58953425856129
20
-177.50536990216645
30
0
40
5.9181999999999846
210
0
220
0
230
1
0
LWPOLYLINE
5
153
100
AcDbEntity
8
0
100
AcDbPolyline
90
4
70
1
43
0.0
10
-128.40199705220499
20
-108.98002821059805
10
-128.40199705220499
20
-204.23002821059799
10
-471.30199705220559
20
-204.23002821059814
10
-471.30199705220497
20
-108.98002821059805
0
LWPOLYLINE
5
154
100
AcDbEntity
8
0
100
AcDbPolyline
90
4
70
1
43
0.0
10
-447.88037156923821
20
-166.97285309885885
42
0.59348347127426337
10
-439.6203715692385
20
-152.66611342833986
10
-447.42815614618473
20
-148.15828690106534
42
0.59348347127424772
10
-455.68815614618507
20
-162.46502657158385
0
LWPOLYLINE
5
155
100
AcDbEntity
8
0
100
AcDbPolyline
90
4
70
1
43
0.0
10
-455.68815614618507
20
-162.46502657158385
10
-447.88037156923821
20
-166.97285309885882
42
0.59348347127425882
10
-439.6203715692385
20
-152.66611342833988
10
-447.42815614618473
20
-148.15828690106537
42
0.59348347127425161
0
ENDSEC
0
SECTION
2
OBJECTS
0
DICTIONARY
5
C
100
AcDbDictionary
3
ACAD_GROUP
350
D
3
ACAD_MLINESTYLE
350
17
0
DICTIONARY
5
D
100
AcDbDictionary
0
DICTIONARY
5
1A
330
C
100
AcDbDictionary
0
DICTIONARY
5
17
100
AcDbDictionary
0
ENDSEC
0
EOF
