0
SECTION
2
HEADER
9
$INSUNITS
70
4
9
$ACADVER
1
AC1014
9
$HANDSEED
5
FFFF
0
ENDSEC
0
SECTION
2
TABLES
0
TABLE
2
VPORT
5
8
100
AcDbSymbolTable
0
ENDTAB
0
TABLE
2
LTYPE
5
5
100
AcDbSymbolTable
0
LTYPE
5
14
100
AcDbSymbolTableRecord
100
AcDbLinetypeTableRecord
2
BYBLOCK
70
0
0
LTYPE
5
15
100
AcDbSymbolTableRecord
100
AcDbLinetypeTableRecord
2
BYLAYER
70
0
0
ENDTAB
0
TABLE
2
LAYER
5
2
100
AcDbSymbolTable
70
2
0
LAYER
5
50
100
AcDbSymbolTableRecord
100
AcDbLayerTableRecord
2
0
70
0
6
CONTINUOUS
0
ENDTAB
0
TABLE
2
STYLE
5
3
100
AcDbSymbolTable
70
1
0
STYLE
5
11
100
AcDbSymbolTableRecord
100
AcDbTextStyleTableRecord
2
STANDARD
70
0
0
ENDTAB
0
TABLE
2
VIEW
5
6
100
AcDbSymbolTable
70
0
0
ENDTAB
0
TABLE
2
UCS
5
7
100
AcDbSymbolTable
70
0
0
ENDTAB
0
TABLE
2
APPID
5
9
100
AcDbSymbolTable
70
2
0
APPID
5
12
100
AcDbSymbolTableRecord
100
AcDbRegAppTableRecord
2
ACAD
70
0
0
ENDTAB
0
TABLE
2
DIMSTYLE
5
A
100
AcDbSymbolTable
70
1
0
ENDTAB
0
TABLE
2
BLOCK_RECORD
5
1
100
AcDbSymbolTable
70
1
0
BLOCK_RECORD
5
1F
100
AcDbSymbolTableRecord
100
AcDbBlockTableRecord
2
*MODEL_SPACE
0
BLOCK_RECORD
5
1B
100
AcDbSymbolTableRecord
100
AcDbBlockTableRecord
2
*PAPER_SPACE
0
ENDTAB
0
ENDSEC
0
SECTION
2
BLOCKS
0
BLOCK
5
20
100
AcDbEntity
100
AcDbBlockBegin
2
*MODEL_SPACE
0
ENDBLK
5
21
100
AcDbEntity
100
AcDbBlockEnd
0
BLOCK
5
1C
100
AcDbEntity
100
AcDbBlockBegin
2
*PAPER_SPACE
0
ENDBLK
5
1D
100
AcDbEntity
100
AcDbBlockEnd
0
ENDSEC
0
SECTION
2
ENTITIES
0
LWPOLYLINE
5
100
100
AcDbEntity
8
0
100
AcDbPolyline
90
8
70
1
43
0.0
10
-73.875
20
-9.0739999999999945
42
0.41421356237309892
10
-75.375
20
-10.573999999999998
10
-75.375
20
-13.573999999999998
42
0.41421356237309592
10
-73.875
20
-15.073999999999996
10
-66.875
20
-15.073999999999996
42
0.41421356237309892
10
-65.375
20
-13.573999999999993
10
-65.375
20
-10.573999999999998
42
0.41421356237309204
10
-66.875
20
-9.0739999999999963
0
LWPOLYLINE
5
101
100
AcDbEntity
8
0
100
AcDbPolyline
90
8
70
1
43
0.0
10
-60.775000000000006
20
-13.573999999999998
42
0.41421356237309115
10
-59.275000000000006
20
-15.073999999999998
10
-52.274999999999999
20
-15.073999999999996
42
0.41421356237309548
10
-50.774999999999999
20
-13.573999999999993
10
-50.774999999999999
20
-10.573999999999998
42
0.41421356237309204
10
-52.274999999999999
20
-9.0739999999999963
10
-59.274999999999991
20
-9.0739999999999945
42
0.41421356237309548
10
-60.774999999999999
20
-10.573999999999998
0
CIRCLE
5
102
100
AcDbEntity
8
0
100
AcDbCircle
10
-69.374999999999943
20
-2.0739999999999981
30
0
40
1.3999999999999968
210
0
220
0
230
1
0
CIRCLE
5
103
100
AcDbEntity
8
0
100
AcDbCircle
10
45.375000000000021
20
8.5740000000000052
30
0
40
1.3999999999999968
210
0
220
0
230
1
0
LWPOLYLINE
5
104
100
AcDbEntity
8
0
100
AcDbPolyline
90
8
70
1
43
0.0
10
-46.175000000000011
20
-13.573999999999998
42
0.41421356237309115
10
-44.675000000000011
20
-15.073999999999998
10
-37.675000000000004
20
-15.073999999999996
42
0.41421356237309503
10
-36.175000000000004
20
-13.573999999999993
10
-36.175000000000004
20
-10.573999999999998
42
0.41421356237309592
10
-37.675000000000004
20
-9.0739999999999963
10
-44.674999999999997
20
-9.0739999999999945
42
0.41421356237309892
10
-46.174999999999997
20
-10.573999999999998
0
LWPOLYLINE
5
105
100
AcDbEntity
8
0
100
AcDbPolyline
90
8
70
1
43
0.0
10
-64.375
20
10.073999999999998
42
0.41421356237309892
10
-65.875
20
11.574000000000005
10
-72.875
20
11.574000000000007
42
0.41421356237309892
10
-74.375
20
10.074000000000003
10
-74.375
20
7.0740000000000052
42
0.4142135623730937
10
-72.875
20
5.5740000000000052
10
-65.875
20
5.5740000000000052
42
0.41421356237309892
10
-64.375
20
7.0740000000000087
0
CIRCLE
5
106
100
AcDbEntity
8
0
100
AcDbCircle
10
62
20
3.0000000000000004
30
0
40
5
210
0
220
0
230
1
0
LWPOLYLINE
5
107
100
AcDbEntity
8
0
100
AcDbPolyline
90
4
70
1
43
0.0
10
-59.5
20
17
10
35.5
20
17
10
35.500000000000007
20
-2.9999999999999982
10
-59.499999999999993
20
-2.9999999999999982
0
LWPOLYLINE
5
108
100
AcDbEntity
8
0
100
AcDbPolyline
90
8
70
1
43
0.0
10
73.849926785656507
20
-15.923999999999998
42
0.41421356237309892
10
75.349926785656507
20
-14.423999999999994
10
75.349926785656507
20
-11.42400000000001
42
0.4142135623730942
10
73.849926785656493
20
-9.9239999999999977
10
66.849926785656507
20
-9.9239999999999977
42
0.41421356237309892
10
65.349926785656507
20
-11.424000000000001
10
65.349926785656507
20
-14.423999999999999
42
0.4142135623730937
10
66.849926785656507
20
-15.923999999999998
0
LWPOLYLINE
5
109
100
AcDbEntity
8
0
100
AcDbPolyline
90
8
70
1
43
0.0
10
55.849926785656507
20
-11.42400000000001
42
0.41421356237309503
10
54.349926785656493
20
-9.9239999999999977
10
47.349926785656507
20
-9.9239999999999977
42
0.41421356237309548
10
45.849926785656514
20
-11.424000000000001
10
45.849926785656514
20
-14.423999999999999
42
0.4142135623730942
10
47.3499267856565
20
-15.923999999999998
10
54.3499267856565
20
-15.923999999999998
42
0.41421356237309548
10
55.849926785656514
20
-14.423999999999994
0
LWPOLYLINE
5
110
100
AcDbEntity
8
0
100
AcDbPolyline
90
8
70
1
43
0.0
10
26.824999999999989
20
-13.573999999999998
42
0.41421356237309331
10
28.324999999999989
20
-15.073999999999996
10
35.324999999999989
20
-15.073999999999996
42
0.4142135623730942
10
36.824999999999989
20
-13.573999999999993
10
36.824999999999989
20
-10.573999999999998
42
0.41421356237309503
10
35.324999999999989
20
-9.0739999999999963
10
28.324999999999996
20
-9.0739999999999945
42
0.4142135623730942
10
26.824999999999992
20
-10.573999999999998
0
LWPOLYLINE
5
111
100
AcDbEntity
8
0
100
AcDbPolyline
90
8
70
1
43
0.0
10
12.22499999999998
20
-13.573999999999998
42
0.41421356237309503
10
13.724999999999978
20
-15.073999999999996
10
20.72499999999998
20
-15.073999999999996
42
0.4142135623730942
10
22.224999999999984
20
-13.573999999999993
10
22.224999999999984
20
-10.573999999999998
42
0.41421356237309503
10
20.72499999999998
20
-9.0739999999999963
10
13.724999999999987
20
-9.0739999999999945
42
0.41421356237309503
10
12.224999999999984
20
-10.573999999999998
0
LWPOLYLINE
5
112
100
AcDbEntity
8
0
100
AcDbPolyline
90
8
70
1
43
0.0
10
-2.3750000000000115
20
-13.573999999999998
42
0.41421356237309515
10
-0.87500000000001243
20
-15.073999999999996
10
6.1249999999999893
20
-15.073999999999996
42
0.41421356237309503
10
7.6249999999999929
20
-13.573999999999993
10
7.624999999999992
20
-10.573999999999998
42
0.41421356237309592
10
6.1249999999999893
20
-9.0739999999999963
10
-0.87500000000000355
20
-9.0739999999999945
42
0.41421356237309498
10
-2.3750000000000071
20
-10.573999999999998
0
LWPOLYLINE
5
113
100
AcDbEntity
8
0
100
AcDbPolyline
90
8
70
1
43
0.0
10
-16.975000000000012
20
-13.573999999999998
42
0.41421356237309503
10
-15.475000000000012
20
-15.073999999999996
10
-8.4750000000000103
20
-15.073999999999996
42
0.41421356237309503
10
-6.9750000000000068
20
-13.573999999999993
10
-6.9750000000000076
20
-10.573999999999998
42
0.41421356237309592
10
-8.4750000000000103
20
-9.0739999999999963
10
-15.475000000000003
20
-9.0739999999999945
42
0.41421356237309503
10
-16.975000000000009
20
-10.573999999999998
0
LWPOLYLINE
5
114
100
AcDbEntity
8
0
100
AcDbPolyline
90
8
70
1
43
0.0
10
-31.57500000000001
20
-13.573999999999998
42
0.41421356237309331
10
-30.07500000000001
20
-15.073999999999996
10
-23.07500000000001
20
-15.073999999999996
42
0.4142135623730942
10
-21.575000000000006
20
-13.573999999999993
10
-21.575000000000006
20
-10.573999999999998
42
0.41421356237309503
10
-23.07500000000001
20
-9.0739999999999963
10
-30.075000000000003
20
-9.0739999999999945
42
0.4142135623730942
10
-31.575000000000006
20
-10.573999999999998
0
LWPOLYLINE
5
115
100
AcDbEntity
8
0
100
AcDbPolyline
90
4
70
1
43
0.0
10
-79.374999999999972
20
-20.573999999999998
10
79.375000000000028
20
-20.573999999999998
10
79.375000000000028
20
20.574000000000009
10
-79.374999999999929
20
20.574000000000009
0
LWPOLYLINE
5
116
100
AcDbEntity
8
0
100
AcDbPolyline
90
8
70
1
43
0.0
10
-30.07500000000001
20
-15.073999999999996
10
-23.07500000000001
20
-15.073999999999996
42
0.41421356237309503
10
-21.575000000000006
20
-13.573999999999993
10
-21.575000000000006
20
-10.573999999999998
42
0.41421356237309503
10
-23.07500000000001
20
-9.0739999999999963
10
-30.075000000000003
20
-9.0739999999999945
42
0.41421356237309503
10
-31.575000000000006
20
-10.573999999999998
10
-31.575000000000006
20
-13.573999999999998
42
0.41421356237309503
0
LWPOLYLINE
5
117
100
AcDbEntity
8
0
100
AcDbPolyline
90
8
70
1
43
0.0
10
-15.475000000000012
20
-15.073999999999996
10
-8.4750000000000103
20
-15.073999999999996
42
0.41421356237309503
10
-6.9750000000000068
20
-13.573999999999993
10
-6.9750000000000068
20
-10.573999999999998
42
0.41421356237309503
10
-8.4750000000000103
20
-9.0739999999999963
10
-15.475000000000003
20
-9.0739999999999945
42
0.41421356237309503
10
-16.975000000000009
20
-10.573999999999998
10
-16.975000000000009
20
-13.573999999999998
42
0.41421356237309503
0
LWPOLYLINE
5
118
100
AcDbEntity
8
0
100
AcDbPolyline
90
8
70
1
43
0.0
10
-0.87500000000001243
20
-15.073999999999996
10
6.1249999999999893
20
-15.073999999999996
42
0.41421356237309503
10
7.6249999999999929
20
-13.573999999999993
10
7.6249999999999929
20
-10.573999999999998
42
0.41421356237309503
10
6.1249999999999893
20
-9.0739999999999963
10
-0.87500000000000355
20
-9.0739999999999945
42
0.41421356237309503
10
-2.3750000000000071
20
-10.573999999999998
10
-2.3750000000000071
20
-13.573999999999998
42
0.41421356237309503
0
LWPOLYLINE
5
119
100
AcDbEntity
8
0
100
AcDbPolyline
90
8
70
1
43
0.0
10
13.724999999999978
20
-15.073999999999996
10
20.72499999999998
20
-15.073999999999996
42
0.41421356237309503
10
22.224999999999984
20
-13.573999999999993
10
22.224999999999984
20
-10.573999999999998
42
0.41421356237309503
10
20.72499999999998
20
-9.0739999999999963
10
13.724999999999987
20
-9.0739999999999945
42
0.41421356237309503
10
12.224999999999984
20
-10.573999999999998
10
12.224999999999984
20
-13.573999999999998
42
0.41421356237309503
0
LWPOLYLINE
5
120
100
AcDbEntity
8
0
100
AcDbPolyline
90
8
70
1
43
0.0
10
28.324999999999989
20
-15.073999999999996
10
35.324999999999989
20
-15.073999999999996
42
0.41421356237309503
10
36.824999999999989
20
-13.573999999999993
10
36.824999999999989
20
-10.573999999999998
42
0.41421356237309503
10
35.324999999999989
20
-9.0739999999999963
10
28.324999999999996
20
-9.0739999999999945
42
0.41421356237309503
10
26.824999999999992
20
-10.573999999999998
10
26.824999999999992
20
-13.573999999999998
42
0.41421356237309503
0
LWPOLYLINE
5
121
100
AcDbEntity
8
0
100
AcDbPolyline
90
8
70
1
43
0.0
10
54.349926785656493
20
-9.9239999999999977
10
47.349926785656507
20
-9.9239999999999977
42
0.41421356237309503
10
45.849926785656507
20
-11.424000000000001
10
45.849926785656507
20
-14.423999999999999
42
0.41421356237309503
10
47.349926785656507
20
-15.923999999999998
10
54.3499267856565
20
-15.923999999999998
42
0.41421356237309503
10
55.849926785656507
20
-14.423999999999994
10
55.849926785656507
20
-11.42400000000001
42
0.41421356237309503
0
LWPOLYLINE
5
122
100
AcDbEntity
8
0
100
AcDbPolyline
90
8
70
1
43
0.0
10
75.349926785656507
20
-14.423999999999994
10
75.349926785656507
20
-11.42400000000001
42
0.41421356237309503
10
73.849926785656493
20
-9.9239999999999977
10
66.849926785656507
20
-9.9239999999999977
42
0.41421356237309503
10
65.349926785656507
20
-11.424000000000001
10
65.349926785656507
20
-14.423999999999999
42
0.41421356237309503
10
66.849926785656507
20
-15.923999999999998
10
73.849926785656507
20
-15.923999999999998
42
0.41421356237309503
0
LWPOLYLINE
5
123
100
AcDbEntity
8
0
100
AcDbPolyline
90
4
70
1
43
0.0
10
-59.5
20
17
10
-59.5
20
-2.9999999999999982
10
35.5
20
-2.9999999999999991
10
35.5
20
17
0
CIRCLE
5
124
100
AcDbEntity
8
0
100
AcDbCircle
10
62
20
3.0000000000000004
30
0
40
5
210
0
220
-0
230
1
0
LWPOLYLINE
5
125
100
AcDbEntity
8
0
100
AcDbPolyline
90
8
70
1
43
0.0
10
-65.875
20
11.574000000000007
10
-72.875
20
11.574000000000007
42
0.41421356237309503
10
-74.375
20
10.074000000000003
10
-74.375
20
7.0740000000000052
42
0.41421356237309503
10
-72.875
20
5.5740000000000052
10
-65.875
20
5.5740000000000052
42
0.41421356237309503
10
-64.375
20
7.0740000000000087
10
-64.375
20
10.073999999999998
42
0.41421356237309503
0
LWPOLYLINE
5
126
100
AcDbEntity
8
0
100
AcDbPolyline
90
8
70
1
43
0.0
10
-44.675000000000011
20
-15.073999999999996
10
-37.675000000000004
20
-15.073999999999996
42
0.41421356237309503
10
-36.175000000000004
20
-13.573999999999993
10
-36.175000000000004
20
-10.573999999999998
42
0.41421356237309503
10
-37.675000000000004
20
-9.0739999999999963
10
-44.674999999999997
20
-9.0739999999999945
42
0.41421356237309503
10
-46.174999999999997
20
-10.573999999999998
10
-46.174999999999997
20
-13.573999999999998
42
0.41421356237309503
0
CIRCLE
5
127
100
AcDbEntity
8
0
100
AcDbCircle
10
45.375000000000021
20
8.5740000000000052
30
0
40
1.3999999999999968
210
0
220
-0
230
1
0
CIRCLE
5
128
100
AcDbEntity
8
0
100
AcDbCircle
10
-69.374999999999943
20
-2.0739999999999981
30
0
40
1.3999999999999968
210
0
220
-0
230
1
0
LWPOLYLINE
5
129
100
AcDbEntity
8
0
100
AcDbPolyline
90
8
70
1
43
0.0
10
-59.275000000000006
20
-15.073999999999996
10
-52.274999999999999
20
-15.073999999999996
42
0.41421356237309503
10
-50.774999999999999
20
-13.573999999999993
10
-50.774999999999999
20
-10.573999999999998
42
0.41421356237309503
10
-52.274999999999999
20
-9.0739999999999963
10
-59.274999999999991
20
-9.0739999999999945
42
0.41421356237309503
10
-60.774999999999999
20
-10.573999999999998
10
-60.774999999999999
20
-13.573999999999998
42
0.41421356237309503
0
LWPOLYLINE
5
130
100
AcDbEntity
8
0
100
AcDbPolyline
90
8
70
1
43
0.0
10
-75.375
20
-10.573999999999998
10
-75.375
20
-13.573999999999998
42
0.41421356237309503
10
-73.875
20
-15.073999999999996
10
-66.875
20
-15.073999999999996
42
0.41421356237309503
10
-65.375
20
-13.573999999999993
10
-65.375
20
-10.573999999999998
42
0.41421356237309503
10
-66.875
20
-9.0739999999999963
10
-73.875
20
-9.0739999999999945
42
0.41421356237309503
0
LWPOLYLINE
5
131
100
AcDbEntity
8
0
100
AcDbPolyline
90
4
70
1
43
0.0
10
-79.374999999999943
20
20.574000000000009
10
-79.374999999999972
20
-20.573999999999998
10
79.375000000000028
20
-20.573999999999998
10
79.375000000000028
20
20.574000000000009
0
ENDSEC
0
SECTION
2
OBJECTS
0
DICTIONARY
5
C
100
AcDbDictionary
3
ACAD_GROUP
350
D
3
ACAD_MLINESTYLE
350
17
0
DICTIONARY
5
D
100
AcDbDictionary
0
DICTIONARY
5
1A
330
C
100
AcDbDictionary
0
DICTIONARY
5
17
100
AcDbDictionary
0
ENDSEC
0
EOF
