<?xml version="1.0" encoding="UTF-8" standalone="no"?>
<svg
   viewBox="0 0 598.16533 246.6693"
   width="598.16534"
   height="246.6693"
   version="1.1"
   id="svg84"
   sodipodi:docname="Source_Outline with Text_TWO-HOLE.svg"
   inkscape:version="1.2 (dc2aedaf03, 2022-05-15)"
   xml:space="preserve"
   xmlns:inkscape="http://www.inkscape.org/namespaces/inkscape"
   xmlns:sodipodi="http://sodipodi.sourceforge.net/DTD/sodipodi-0.dtd"
   xmlns="http://www.w3.org/2000/svg"
   xmlns:svg="http://www.w3.org/2000/svg"><sodipodi:namedview
     id="namedview86"
     pagecolor="#ffffff"
     bordercolor="#999999"
     borderopacity="1"
     inkscape:pageshadow="0"
     inkscape:pageopacity="0"
     inkscape:pagecheckerboard="0"
     showgrid="false"
     inkscape:snap-bbox="true"
     inkscape:snap-midpoints="false"
     inkscape:snap-bbox-edge-midpoints="true"
     inkscape:snap-bbox-midpoints="true"
     inkscape:zoom="0.91045177"
     inkscape:cx="234.49897"
     inkscape:cy="149.92557"
     inkscape:window-width="958"
     inkscape:window-height="1008"
     inkscape:window-x="-7"
     inkscape:window-y="0"
     inkscape:window-maximized="0"
     inkscape:current-layer="layer1"
     inkscape:showpageshadow="2"
     inkscape:deskcolor="#d1d1d1" /><desc
     id="desc2">DXF One Knob.dxf - scale = 1.0, origin = (0.0, 0.0), method = manual</desc><defs
     id="defs16"><marker
       id="DistanceX"
       orient="auto"
       refX="0"
       refY="0"
       style="overflow:visible"><path
         d="M 3,-3 -3,3 M 0,-5 V 5"
         style="stroke:#000000;stroke-width:0.5"
         id="path4" /></marker><pattern
       id="Hatch"
       patternUnits="userSpaceOnUse"
       width="8"
       height="8"
       x="0"
       y="0"><path
         d="M8 4 l-4,4"
         stroke="#000000"
         stroke-width="0.25"
         linecap="square"
         id="path7" /><path
         d="M6 2 l-4,4"
         stroke="#000000"
         stroke-width="0.25"
         linecap="square"
         id="path9" /><path
         d="M4 0 l-4,4"
         stroke="#000000"
         stroke-width="0.25"
         linecap="square"
         id="path11" /></pattern><symbol
       id="*MODEL_SPACE" /><symbol
       id="*PAPER_SPACE" /><marker
       id="DistanceX-8"
       orient="auto"
       refX="0.0"
       refY="0.0"
       style="overflow:visible"><path
         d="M 3,-3 L -3,3 M 0,-5 L  0,5"
         style="stroke:#000000; stroke-width:0.5"
         id="path191" /></marker><pattern
       id="Hatch-0"
       patternUnits="userSpaceOnUse"
       width="8"
       height="8"
       x="0"
       y="0"><path
         d="M8 4 l-4,4"
         stroke="#000000"
         stroke-width="0.25"
         linecap="square"
         id="path194" /><path
         d="M6 2 l-4,4"
         stroke="#000000"
         stroke-width="0.25"
         linecap="square"
         id="path196" /><path
         d="M4 0 l-4,4"
         stroke="#000000"
         stroke-width="0.25"
         linecap="square"
         id="path198" /></pattern><symbol
       id="*MODEL_SPACE-3" /><symbol
       id="*PAPER_SPACE-8" /></defs><g
     inkscape:groupmode="layer"
     inkscape:label="OUTLINE"
     id="g82"
     transform="translate(299.08268,-999.18504)"><g
       inkscape:label="0"
       id="g273"
       transform="translate(0,3.6264648e-5)"
       style="display:inline"><path
         d="m -136.62992,1062.0472 a 4.72441,4.72441 0 0 0 -9.44882,0 4.72441,4.72441 0 0 0 9.44882,0 z"
         style="fill:none;stroke:#000000"
         id="path205" /><path
         d="m -136.62992,1179.2126 a 4.72441,4.72441 0 0 0 -9.44882,0 4.72441,4.72441 0 0 0 9.44882,0 z"
         style="fill:none;stroke:#000000"
         id="path207" /><path
         d="m 146.83465,1062.0472 a 4.72441,4.72441 0 0 0 -9.44882,0 4.72441,4.72441 0 0 0 9.44882,0 z"
         style="fill:none;stroke:#000000"
         id="path209" /><path
         d="m 146.83465,1179.2126 a 4.72441,4.72441 0 0 0 -9.44882,0 4.72441,4.72441 0 0 0 9.44882,0 z"
         style="fill:none;stroke:#000000"
         id="path211" /><path
         d="m 181.70079,1019.0551 a 5.952756,5.952756 0 0 0 -11.90551,0 5.952756,5.952756 0 0 0 11.90551,0 z"
         style="fill:none;stroke:#000000"
         id="path213" /><path
         d="m 181.70079,1225.9843 a 5.952756,5.952756 0 0 0 -11.90551,0 5.952756,5.952756 0 0 0 11.90551,0 z"
         style="fill:none;stroke:#000000"
         id="path215" /><path
         d="m -169.79528,1019.0551 a 5.952756,5.952756 0 0 0 -11.90551,0 5.952756,5.952756 0 0 0 11.90551,0 z"
         style="fill:none;stroke:#000000"
         id="path217" /><path
         d="m -169.79528,1225.9843 a 5.952756,5.952756 0 0 0 -11.90551,0 5.952756,5.952756 0 0 0 11.90551,0 z"
         style="fill:none;stroke:#000000"
         id="path219" /><path
         d="m 282.04724,1022.3622 a 6.141732,6.141732 0 0 0 -12.28346,0 6.141732,6.141732 0 0 0 12.28346,0 z"
         style="fill:none;stroke:#000000"
         id="path221" /><path
         d="m 282.04724,1222.6772 a 6.141732,6.141732 0 0 0 -12.28346,0 6.141732,6.141732 0 0 0 12.28346,0 z"
         style="fill:none;stroke:#000000"
         id="path223" /><path
         d="m -269.76378,1222.6772 a 6.141732,6.141732 0 0 0 -12.28346,0 6.141732,6.141732 0 0 0 12.28346,0 z"
         style="fill:none;stroke:#000000"
         id="path225" /><path
         d="m -269.76378,1022.3622 a 6.141732,6.141732 0 0 0 -12.28346,0 6.141732,6.141732 0 0 0 12.28346,0 z"
         style="fill:none;stroke:#000000"
         id="path227" /><path
         d="m -216.37795,1122.5197 a 14.17323,14.17323 0 0 0 -28.34646,0 14.17323,14.17323 0 0 0 28.34646,0 z"
         style="fill:none;stroke:#000000"
         id="path229" /><path
         d="m 136.06299,1168.8189 h -272.12598 v -92.5984 h 272.12598 z"
         style="fill:none;stroke:#000000"
         id="path231" /><path
         d="M -298.58268,1245.3543 H 298.58268 V 999.68504 h -597.16536 z"
         style="fill:none;stroke:#000000"
         id="path233" /><path
         d="m -136.62992,1062.0472 a 4.72441,4.72441 0 0 0 -9.44882,0 4.72441,4.72441 0 0 0 9.44882,0 z"
         style="fill:none;stroke:#000000"
         id="path235" /><path
         d="m -136.62992,1179.2126 a 4.72441,4.72441 0 0 0 -9.44882,0 4.72441,4.72441 0 0 0 9.44882,0 z"
         style="fill:none;stroke:#000000"
         id="path237" /><path
         d="m 146.83465,1062.0472 a 4.72441,4.72441 0 0 0 -9.44882,0 4.72441,4.72441 0 0 0 9.44882,0 z"
         style="fill:none;stroke:#000000"
         id="path239" /><path
         d="m 146.83465,1179.2126 a 4.72441,4.72441 0 0 0 -9.44882,0 4.72441,4.72441 0 0 0 9.44882,0 z"
         style="fill:none;stroke:#000000"
         id="path241" /><path
         d="m 181.70079,1019.0551 a 5.952756,5.952756 0 0 0 -11.90551,0 5.952756,5.952756 0 0 0 11.90551,0 z"
         style="fill:none;stroke:#000000"
         id="path243" /><path
         d="m 181.70079,1225.9843 a 5.952756,5.952756 0 0 0 -11.90551,0 5.952756,5.952756 0 0 0 11.90551,0 z"
         style="fill:none;stroke:#000000"
         id="path245" /><path
         d="m -169.79528,1019.0551 a 5.952756,5.952756 0 0 0 -11.90551,0 5.952756,5.952756 0 0 0 11.90551,0 z"
         style="fill:none;stroke:#000000"
         id="path247" /><path
         d="m -169.79528,1225.9843 a 5.952756,5.952756 0 0 0 -11.90551,0 5.952756,5.952756 0 0 0 11.90551,0 z"
         style="fill:none;stroke:#000000"
         id="path249" /><path
         d="m -136.06299,1076.2205 v 92.5984 h 272.12598 v -92.5984 z"
         style="fill:none;stroke:#000000"
         id="path251" /><path
         d="m -216.37795,1122.5197 a 14.17323,14.17323 0 0 0 -28.34646,0 14.17323,14.17323 0 0 0 28.34646,0 z"
         style="fill:none;stroke:#000000"
         id="path253" /><path
         d="m -269.76378,1022.3622 a 6.141732,6.141732 0 0 0 -12.28346,0 6.141732,6.141732 0 0 0 12.28346,0 z"
         style="fill:none;stroke:#000000"
         id="path255" /><path
         d="m -269.76378,1222.6772 a 6.141732,6.141732 0 0 0 -12.28346,0 6.141732,6.141732 0 0 0 12.28346,0 z"
         style="fill:none;stroke:#000000"
         id="path257" /><path
         d="m 282.04724,1222.6772 a 6.141732,6.141732 0 0 0 -12.28346,0 6.141732,6.141732 0 0 0 12.28346,0 z"
         style="fill:none;stroke:#000000"
         id="path259" /><path
         d="m 282.04724,1022.3622 a 6.141732,6.141732 0 0 0 -12.28346,0 6.141732,6.141732 0 0 0 12.28346,0 z"
         style="fill:none;stroke:#000000"
         id="path261" /><path
         d="M 298.58268,999.68504 V 1245.3543 H -298.58268 V 999.68504 Z"
         style="fill:none;stroke:#000000"
         id="path263" /><path
         d="m 244.72441,1175.4331 a 14.17323,14.17323 0 0 0 -28.34646,0 14.17323,14.17323 0 0 0 28.34646,0 z"
         style="fill:none;stroke:#000000"
         id="path265" /><path
         d="m 244.72441,1069.6063 a 14.17323,14.17323 0 0 0 -28.34646,0 14.17323,14.17323 0 0 0 28.34646,0 z"
         style="fill:none;stroke:#000000"
         id="path267" /><path
         d="m 244.72441,1069.6063 a 14.17323,14.17323 0 0 0 -28.34646,0 14.17323,14.17323 0 0 0 28.34646,0 z"
         style="fill:none;stroke:#000000"
         id="path269" /><path
         d="m 244.72441,1175.4331 a 14.17323,14.17323 0 0 0 -28.34646,0 14.17323,14.17323 0 0 0 28.34646,0 z"
         style="fill:none;stroke:#000000"
         id="path271" /></g></g><g
     inkscape:groupmode="layer"
     id="layer1"
     inkscape:label="TEXT"><text
       xml:space="preserve"
       style="font-style:normal;font-weight:normal;font-size:18.6667px;line-height:1.25;font-family:sans-serif;text-align:center;text-anchor:middle;fill:#000000;fill-opacity:1;stroke:none"
       x="-233.88419"
       y="1071.6766"
       id="text2583"
       transform="translate(299.08268,-999.18504)"><tspan
         sodipodi:role="line"
         id="tspan2581"
         x="-233.88419"
         y="1071.6766"
         style="font-style:normal;font-variant:normal;font-weight:bold;font-stretch:normal;font-size:18.6667px;font-family:Arial;-inkscape-font-specification:'Arial Bold';text-align:center;text-anchor:middle">ADJUST</tspan></text><text
       xml:space="preserve"
       style="font-style:normal;font-weight:normal;font-size:18.6667px;line-height:1.25;font-family:sans-serif;text-align:center;text-anchor:middle;fill:#000000;fill-opacity:1;stroke:none"
       x="529.82526"
       y="35.981949"
       id="text7723"><tspan
         sodipodi:role="line"
         id="tspan7721"
         x="529.82526"
         y="35.981949"
         style="font-style:normal;font-variant:normal;font-weight:bold;font-stretch:normal;font-size:18.6667px;font-family:Arial;-inkscape-font-specification:'Arial Bold';text-align:center;text-anchor:middle">INDEX</tspan></text><text
       xml:space="preserve"
       style="font-style:normal;font-weight:normal;font-size:16px;line-height:1.25;font-family:sans-serif;text-align:center;text-anchor:middle;fill:#000000;fill-opacity:1;stroke:none"
       x="530.03162"
       y="135.36522"
       id="text9185"><tspan
         sodipodi:role="line"
         x="530.03162"
         y="135.36522"
         style="font-style:normal;font-variant:normal;font-weight:bold;font-stretch:normal;font-size:16px;font-family:Arial;-inkscape-font-specification:'Arial Bold';text-align:center;text-anchor:middle"
         id="tspan9587">PRESET</tspan></text><text
       xml:space="preserve"
       style="font-style:normal;font-weight:normal;font-size:16px;line-height:1.25;font-family:sans-serif;text-align:center;text-anchor:middle;fill:#000000;fill-opacity:1;stroke:none"
       x="-228.91055"
       y="1177.37"
       id="text9185-4"
       transform="translate(299.08268,-999.18504)"><tspan
         sodipodi:role="line"
         id="tspan9183-7"
         x="-228.91055"
         y="1177.37"
         style="font-style:normal;font-variant:normal;font-weight:bold;font-stretch:normal;font-size:16px;font-family:Arial;-inkscape-font-specification:'Arial Bold';text-align:center;text-anchor:middle">PUSH TO </tspan><tspan
         sodipodi:role="line"
         x="-228.91055"
         y="1197.5552"
         style="font-style:normal;font-variant:normal;font-weight:bold;font-stretch:normal;font-size:16px;font-family:Arial;-inkscape-font-specification:'Arial Bold';text-align:center;text-anchor:middle"
         id="tspan9587-0">SWAP</tspan></text><text
       xml:space="preserve"
       style="font-style:normal;font-weight:normal;font-size:18.6667px;line-height:1.25;font-family:sans-serif;text-align:center;text-anchor:middle;fill:#000000;fill-opacity:1;stroke:none"
       x="-0.10937567"
       y="1024.4712"
       id="text12941"
       transform="translate(299.08268,-999.18504)"><tspan
         sodipodi:role="line"
         id="tspan12939"
         x="-0.10937624"
         y="1024.4712"
         style="font-style:italic;font-variant:normal;font-weight:bold;font-stretch:normal;font-size:18.6667px;font-family:Arial;-inkscape-font-specification:'Arial Bold Italic';text-align:center;text-anchor:middle">CaptainBobSim Multi-Radio</tspan></text></g></svg>
