0
SECTION
2
HEADER
9
$INSUNITS
70
1
9
$ACADVER
1
AC1014
9
$HANDSEED
5
FFFF
0
ENDSEC
0
SECTION
2
TABLES
0
TABLE
2
VPORT
5
8
100
AcDbSymbolTable
0
ENDTAB
0
TABLE
2
LTYPE
5
5
100
AcDbSymbolTable
0
LTYPE
5
14
100
AcDbSymbolTableRecord
100
AcDbLinetypeTableRecord
2
BYBLOCK
70
0
0
LTYPE
5
15
100
AcDbSymbolTableRecord
100
AcDbLinetypeTableRecord
2
BYLAYER
70
0
0
ENDTAB
0
TABLE
2
LAYER
5
2
100
AcDbSymbolTable
70
2
0
LAYER
5
50
100
AcDbSymbolTableRecord
100
AcDbLayerTableRecord
2
0
70
0
6
CONTINUOUS
0
ENDTAB
0
TABLE
2
STYLE
5
3
100
AcDbSymbolTable
70
1
0
STYLE
5
11
100
AcDbSymbolTableRecord
100
AcDbTextStyleTableRecord
2
STANDARD
70
0
0
ENDTAB
0
TABLE
2
VIEW
5
6
100
AcDbSymbolTable
70
0
0
ENDTAB
0
TABLE
2
UCS
5
7
100
AcDbSymbolTable
70
0
0
ENDTAB
0
TABLE
2
APPID
5
9
100
AcDbSymbolTable
70
2
0
APPID
5
12
100
AcDbSymbolTableRecord
100
AcDbRegAppTableRecord
2
ACAD
70
0
0
ENDTAB
0
TABLE
2
DIMSTYLE
5
A
100
AcDbSymbolTable
70
1
0
ENDTAB
0
TABLE
2
BLOCK_RECORD
5
1
100
AcDbSymbolTable
70
1
0
BLOCK_RECORD
5
1F
100
AcDbSymbolTableRecord
100
AcDbBlockTableRecord
2
*MODEL_SPACE
0
BLOCK_RECORD
5
1B
100
AcDbSymbolTableRecord
100
AcDbBlockTableRecord
2
*PAPER_SPACE
0
ENDTAB
0
ENDSEC
0
SECTION
2
BLOCKS
0
BLOCK
5
20
100
AcDbEntity
100
AcDbBlockBegin
2
*MODEL_SPACE
0
ENDBLK
5
21
100
AcDbEntity
100
AcDbBlockEnd
0
BLOCK
5
1C
100
AcDbEntity
100
AcDbBlockBegin
2
*PAPER_SPACE
0
ENDBLK
5
1D
100
AcDbEntity
100
AcDbBlockEnd
0
ENDSEC
0
SECTION
2
ENTITIES
0
LINE
5
100
100
AcDbEntity
8
0
100
AcDbLine
10
6.919277947498415
20
31.999999999999996
30
0
11
93.064394049220013
21
31.999999999999996
31
0
0
SPLINE
5
101
100
AcDbEntity
8
0
100
AcDbSpline
70
4
71
5
72
21
73
15
74
0
42
0.000000001
43
0.0000000001
44
0.0000000001
40
0
40
0
40
0
40
0
40
0
40
0
40
0.10000000000000001
40
0.20000000000000001
40
0.30000000000000004
40
0.40000000000000002
40
0.5
40
0.59999999999999998
40
0.69999999999999996
40
0.79999999999999993
40
0.89999999999999991
40
1
40
1
40
1
40
1
40
1
40
1
41
1
41
1
41
1
41
1
41
1
41
1
41
1
41
1
41
1
41
1
41
1
41
1
41
1
41
1
41
1
10
-7.7643789883957848e-32
20
14.538862922632312
30
0
10
-0.8565931184532164
20
14.467762797648966
30
0
10
-2.5571639480253561
20
14.319813313216628
30
0
10
-5.0701764486116669
20
14.080642512578242
30
0
10
-8.3439057007233277
20
13.72667773716039
30
0
10
-12.298562821576137
20
13.221556705294669
30
0
10
-16.101604691692039
20
12.647339876369653
30
0
10
-19.737407691293292
20
11.996907079717566
30
0
10
-23.192633731214254
20
11.264179732232353
30
0
10
-26.465570666953404
20
10.448377556282802
30
0
10
-29.566179910583475
20
9.5540402779443578
30
0
10
-31.918267412387866
20
8.7800546205422076
30
0
10
-33.614412914164305
20
8.1686120590051559
30
0
10
-34.715473435005052
20
7.7474470344252051
30
0
10
-35.258578203049417
20
7.533480493736322
30
0
0
LINE
5
102
100
AcDbEntity
8
0
100
AcDbLine
10
-35.258578203049417
20
7.533480493736322
30
0
11
-35.258578203049417
21
-3.0909271440716242
31
0
0
SPLINE
5
103
100
AcDbEntity
8
0
100
AcDbSpline
70
4
71
5
72
21
73
15
74
0
42
0.000000001
43
0.0000000001
44
0.0000000001
40
0
40
0
40
0
40
0
40
0
40
0
40
0.10000000000000001
40
0.20000000000000001
40
0.30000000000000004
40
0.40000000000000002
40
0.5
40
0.59999999999999998
40
0.69999999999999996
40
0.79999999999999993
40
0.89999999999999991
40
1
40
1
40
1
40
1
40
1
40
1
41
1
41
1
41
1
41
1
41
1
41
1
41
1
41
1
41
1
41
1
41
1
41
1
41
1
41
1
41
1
10
-35.258578203049417
20
-3.0909271440716242
30
0
10
-35.217235010255067
20
-3.1389379752775528
30
0
10
-35.134688430770041
20
-3.2354078178798944
30
0
10
-35.011287975024338
20
-3.3814571068737562
30
0
10
-34.847606702901707
20
-3.5789229157580613
30
0
10
-34.644521347794054
20
-3.830615812375981
30
0
10
-34.443082492533698
20
-4.0875869378940228
30
0
10
-34.243416386411212
20
-4.3502410130682714
30
0
10
-34.045576856373209
20
-4.6187505923972525
30
0
10
-33.849474766591356
20
-4.8928299307638801
30
0
10
-33.654971852586804
20
-5.1720357900133314
30
0
10
-33.500540349691576
20
-5.399153833280276
30
0
10
-33.385332919658538
20
-5.5714677255102805
30
0
10
-33.308797345293975
20
-5.6872072091575854
30
0
10
-33.270596906016571
20
-5.7452928499757938
30
0
0
SPLINE
5
104
100
AcDbEntity
8
0
100
AcDbSpline
70
4
71
5
72
21
73
15
74
0
42
0.000000001
43
0.0000000001
44
0.0000000001
40
0
40
0
40
0
40
0
40
0
40
0
40
0.10000000000000001
40
0.20000000000000001
40
0.30000000000000004
40
0.40000000000000002
40
0.5
40
0.59999999999999998
40
0.69999999999999996
40
0.79999999999999993
40
0.89999999999999991
40
1
40
1
40
1
40
1
40
1
40
1
41
1
41
1
41
1
41
1
41
1
41
1
41
1
41
1
41
1
41
1
41
1
41
1
41
1
41
1
41
1
10
-33.270596906016571
20
-5.7452928499757938
30
0
10
-33.194881345264569
20
-5.9552855635554387
30
0
10
-33.03989228614391
20
-6.3717962216657691
30
0
10
-32.796735388057492
20
-6.9861383933606591
30
0
10
-32.450824025476557
20
-7.7840664227643606
30
0
10
-31.979775376334061
20
-8.7437206974509305
30
0
10
-31.466481785489147
20
-9.6621175270407509
30
0
10
-30.907286598646397
20
-10.535685733361293
30
0
10
-30.299825846548078
20
-11.362116606119159
30
0
10
-29.645511536600843
20
-12.142789146344159
30
0
10
-28.947676304490344
20
-12.880958087699275
30
0
10
-28.357343834488447
20
-13.440178475131598
30
0
10
-27.897689507281804
20
-13.843083953228444
30
0
10
-27.583861922805852
20
-14.104469015834974
30
0
10
-27.4251002684531
20
-14.233356879723386
30
0
0
SPLINE
5
105
100
AcDbEntity
8
0
100
AcDbSpline
70
4
71
5
72
26
73
20
74
0
42
0.000000001
43
0.0000000001
44
0.0000000001
40
0
40
0
40
0
40
0
40
0
40
0
40
0.066666666666666666
40
0.13333333333333333
40
0.20000000000000001
40
0.26666666666666666
40
0.33333333333333331
40
0.39999999999999997
40
0.46666666666666662
40
0.53333333333333333
40
0.59999999999999998
40
0.66666666666666663
40
0.73333333333333328
40
0.79999999999999993
40
0.86666666666666659
40
0.93333333333333324
40
1
40
1
40
1
40
1
40
1
40
1
41
1
41
1
41
1
41
1
41
1
41
1
41
1
41
1
41
1
41
1
41
1
41
1
41
1
41
1
41
1
41
1
41
1
41
1
41
1
41
1
10
-27.4251002684531
20
-14.233356879723386
30
0
10
-27.076793631678076
20
-14.501049396730231
30
0
10
-26.382606500834989
20
-15.024446991731898
30
0
10
-25.348604181596496
20
-15.773581345036963
30
0
10
-23.985397496422635
20
-16.701557303329967
30
0
10
-22.311603812209224
20
-17.748697503785159
30
0
10
-20.672295878247823
20
-18.68869313016944
30
0
10
-19.069103417563564
20
-19.525617405147187
30
0
10
-17.498497927835476
20
-20.260261419840404
30
0
10
-15.948836255519957
20
-20.888351812384201
30
0
10
-14.399973584320643
20
-21.403677000059801
30
0
10
-12.822671388563247
20
-21.802206896709361
30
0
10
-11.178230783973715
20
-22.085611300193843
30
0
10
-9.4167676202723367
20
-22.267159426647225
30
0
10
-7.4808008554851551
20
-22.369988844877678
30
0
10
-5.3123844050810209
20
-22.420714125756874
30
0
10
-3.3501811859611972
20
-22.440022403013021
30
0
10
-1.7333971326306545
20
-22.451222297596519
30
0
10
-0.58890514783864534
20
-22.458322165110371
30
0
10
0
20
-22.461780368969482
30
0
0
LINE
5
106
100
AcDbEntity
8
0
100
AcDbLine
10
0
20
-22.461780368969482
30
0
11
29.679547693633573
21
-23.017725720102352
31
0
0
LINE
5
107
100
AcDbEntity
8
0
100
AcDbLine
10
29.679547693633573
20
-23.017725720102352
30
0
11
55.576595405064992
21
-20.866085580399702
31
0
0
LINE
5
108
100
AcDbEntity
8
0
100
AcDbLine
10
55.576595405064992
20
-20.866085580399702
30
0
11
64.249806959276711
21
-20.145477180240746
31
0
0
LINE
5
109
100
AcDbEntity
8
0
100
AcDbLine
10
64.249806959276711
20
-20.145477180240746
30
0
11
147.50164472193077
21
-8.5634054025457029
31
0
0
LINE
5
110
100
AcDbEntity
8
0
100
AcDbLine
10
147.50164472193077
20
-8.5634054025457029
30
0
11
147.50164472193077
21
17.588127262629946
31
0
0
LINE
5
111
100
AcDbEntity
8
0
100
AcDbLine
10
147.50164472193077
20
17.588127262629946
30
0
11
111.44282308749042
21
18.263566607660689
31
0
0
SPLINE
5
112
100
AcDbEntity
8
0
100
AcDbSpline
70
4
71
5
72
21
73
15
74
0
42
0.000000001
43
0.0000000001
44
0.0000000001
40
0
40
0
40
0
40
0
40
0
40
0
40
0.10000000000000001
40
0.20000000000000001
40
0.30000000000000004
40
0.40000000000000002
40
0.5
40
0.59999999999999998
40
0.69999999999999996
40
0.79999999999999993
40
0.89999999999999991
40
1
40
1
40
1
40
1
40
1
40
1
41
1
41
1
41
1
41
1
41
1
41
1
41
1
41
1
41
1
41
1
41
1
41
1
41
1
41
1
41
1
10
111.44282308749042
20
18.263566607660689
30
0
10
110.75583857608966
20
18.584397716631955
30
0
10
109.38443125732049
20
19.21725606801056
30
0
10
107.33500494101479
20
20.140133542768019
30
0
10
104.61806259092981
20
21.316934366251296
30
0
10
101.24974444224932
20
22.692189024702937
30
0
10
97.911955441136243
20
23.962523466547772
30
0
10
94.60748275792163
20
25.118358959964951
30
0
10
91.338345514588454
20
26.152756342383178
30
0
10
88.103885004582111
20
27.067979405561214
30
0
10
84.901785033829128
20
27.871988266372778
30
0
10
82.364023536209558
20
28.432994173443117
30
0
10
80.473323870122172
20
28.810372154505384
30
0
10
79.218376359248737
20
29.042990431807819
30
0
10
78.59228232601069
20
29.154557847746833
30
0
0
SPLINE
5
113
100
AcDbEntity
8
0
100
AcDbSpline
70
4
71
5
72
21
73
15
74
0
42
0.000000001
43
0.0000000001
44
0.0000000001
40
0
40
0
40
0
40
0
40
0
40
0
40
0.10000000000000001
40
0.20000000000000001
40
0.30000000000000004
40
0.40000000000000002
40
0.5
40
0.59999999999999998
40
0.69999999999999996
40
0.79999999999999993
40
0.89999999999999991
40
1
40
1
40
1
40
1
40
1
40
1
41
1
41
1
41
1
41
1
41
1
41
1
41
1
41
1
41
1
41
1
41
1
41
1
41
1
41
1
41
1
10
78.59228232601069
20
29.154557847746833
30
0
10
78.282060190067511
20
29.213841242726314
30
0
10
77.66086225904921
20
29.331605104508075
30
0
10
76.726804433844038
20
29.505842164552107
30
0
10
75.476797328942965
20
29.733261074594413
30
0
10
73.906110862185329
20
30.008822532267658
30
0
10
72.326529633109871
20
30.274907749301445
30
0
10
70.737349000685867
20
30.530766020086705
30
0
10
69.138223448183652
20
30.776029240390301
30
0
10
67.529592282149565
20
31.011165435597459
30
0
10
65.912191917594924
20
31.236959162464164
30
0
10
64.611841434702427
20
31.410743591080561
30
0
10
63.633192901705385
20
31.537474909869509
30
0
10
62.979280404781548
20
31.620385552670985
30
0
10
62.65195410647398
20
31.661446632915251
30
0
0
SPLINE
5
114
100
AcDbEntity
8
0
100
AcDbSpline
70
4
71
5
72
21
73
15
74
0
42
0.000000001
43
0.0000000001
44
0.0000000001
40
0
40
0
40
0
40
0
40
0
40
0
40
0.10000000000000001
40
0.20000000000000001
40
0.30000000000000004
40
0.40000000000000002
40
0.5
40
0.59999999999999998
40
0.69999999999999996
40
0.79999999999999993
40
0.89999999999999991
40
1
40
1
40
1
40
1
40
1
40
1
41
1
41
1
41
1
41
1
41
1
41
1
41
1
41
1
41
1
41
1
41
1
41
1
41
1
41
1
41
1
10
-7.7643789883957848e-32
20
14.538862922632312
30
0
10
0.096830695805173325
20
14.548883696361141
30
0
10
0.29348412149151165
20
14.568973829561875
30
0
10
0.59744072053706132
20
14.599254792410195
30
0
10
1.0209613700878004
20
14.639925681511476
30
0
10
1.5826601249922214
20
14.69128875869346
30
0
10
2.1789235314777731
20
14.743213109323925
30
0
10
2.8115222040307213
20
14.795727485288204
30
0
10
3.4796950522216425
20
14.848819527721684
30
0
10
4.1806102633175906
20
14.902443252613958
30
0
10
4.9110786453449915
20
14.956546872699915
30
0
10
5.5168463906733605
20
15.000177156768414
30
0
10
5.9823860063528276
20
15.033081963712307
30
0
10
6.2976477365423156
20
15.055098101922219
30
0
10
6.4565041725381835
20
15.066126072295509
30
0
0
SPLINE
5
115
100
AcDbEntity
8
0
100
AcDbSpline
70
4
71
5
72
26
73
20
74
0
42
0.000000001
43
0.0000000001
44
0.0000000001
40
0
40
0
40
0
40
0
40
0
40
0
40
0.066666666666666666
40
0.13333333333333333
40
0.20000000000000001
40
0.26666666666666666
40
0.33333333333333331
40
0.39999999999999997
40
0.46666666666666662
40
0.53333333333333333
40
0.59999999999999998
40
0.66666666666666663
40
0.73333333333333328
40
0.79999999999999993
40
0.86666666666666659
40
0.93333333333333324
40
1
40
1
40
1
40
1
40
1
40
1
41
1
41
1
41
1
41
1
41
1
41
1
41
1
41
1
41
1
41
1
41
1
41
1
41
1
41
1
41
1
41
1
41
1
41
1
41
1
41
1
10
6.4565041725381835
20
15.066126072295509
30
0
10
6.678949008325656
20
15.303037566737112
30
0
10
7.1289756461526839
20
15.780220267694425
30
0
10
7.8194263618062907
20
16.506074399760614
30
0
10
8.7710740485378054
20
17.494178534304265
30
0
10
10.014253594461739
20
18.762383708947798
30
0
10
11.31434054852307
20
20.059656129095487
30
0
10
12.676009193543877
20
21.376907236920921
30
0
10
14.105234145313
20
22.696856284078621
30
0
10
15.608904258578812
20
23.994805046985242
30
0
10
17.194186755472106
20
25.24284490436677
30
0
10
18.867658689261528
20
26.41324552592339
30
0
10
20.634427227439463
20
27.481872771393419
30
0
10
22.496472459567848
20
28.432959449609047
30
0
10
24.452592629911386
20
29.259885856359478
30
0
10
26.500233615779141
20
29.961244397943233
30
0
10
28.209234702551086
20
30.423198595211993
30
0
10
29.529839156047185
20
30.714969935142523
30
0
10
30.427384694484786
20
30.885353202548803
30
0
10
30.880443169844245
20
30.964511969837755
30
0
0
SPLINE
5
116
100
AcDbEntity
8
0
100
AcDbSpline
70
4
71
5
72
21
73
15
74
0
42
0.000000001
43
0.0000000001
44
0.0000000001
40
0
40
0
40
0
40
0
40
0
40
0
40
0.10000000000000001
40
0.20000000000000001
40
0.30000000000000004
40
0.40000000000000002
40
0.5
40
0.59999999999999998
40
0.69999999999999996
40
0.79999999999999993
40
0.89999999999999991
40
1
40
1
40
1
40
1
40
1
40
1
41
1
41
1
41
1
41
1
41
1
41
1
41
1
41
1
41
1
41
1
41
1
41
1
41
1
41
1
41
1
10
30.880443169844245
20
30.964511969837755
30
0
10
31.441358907450688
20
31.032173284556471
30
0
10
32.601066572080263
20
31.162075559897641
30
0
10
34.454251492208321
20
31.34066892211214
30
0
10
37.132675838133856
20
31.546408459429664
30
0
10
40.71656865615742
20
31.749640598472293
30
0
10
44.395701170627568
20
31.898237541371056
30
0
10
48.026196393151224
20
31.99117659290058
30
0
10
51.482880498984805
20
32.027800114090496
30
0
10
54.692744946100774
20
32.010126206067461
30
0
10
57.6329246567322
20
31.942396447880558
30
0
10
59.76960648790525
20
31.851432069171782
30
0
10
61.255435946942541
20
31.763847652443015
30
0
10
62.194953333519365
20
31.696991378210178
30
0
10
62.65195410647398
20
31.661446632915251
30
0
0
ENDSEC
0
SECTION
2
OBJECTS
0
DICTIONARY
5
C
100
AcDbDictionary
3
ACAD_GROUP
350
D
3
ACAD_MLINESTYLE
350
17
0
DICTIONARY
5
D
100
AcDbDictionary
0
DICTIONARY
5
1A
330
C
100
AcDbDictionary
0
DICTIONARY
5
17
100
AcDbDictionary
0
ENDSEC
0
EOF
