0
SECTION
2
HEADER
9
$INSUNITS
70
4
9
$ACADVER
1
AC1014
9
$HANDSEED
5
FFFF
0
ENDSEC
0
SECTION
2
TABLES
0
TABLE
2
VPORT
5
8
100
AcDbSymbolTable
0
ENDTAB
0
TABLE
2
LTYPE
5
5
100
AcDbSymbolTable
0
LTYPE
5
14
100
AcDbSymbolTableRecord
100
AcDbLinetypeTableRecord
2
BYBLOCK
70
0
0
LTYPE
5
15
100
AcDbSymbolTableRecord
100
AcDbLinetypeTableRecord
2
BYLAYER
70
0
0
ENDTAB
0
TABLE
2
LAYER
5
2
100
AcDbSymbolTable
70
2
0
LAYER
5
50
100
AcDbSymbolTableRecord
100
AcDbLayerTableRecord
2
0
70
0
6
CONTINUOUS
0
ENDTAB
0
TABLE
2
STYLE
5
3
100
AcDbSymbolTable
70
1
0
STYLE
5
11
100
AcDbSymbolTableRecord
100
AcDbTextStyleTableRecord
2
STANDARD
70
0
0
ENDTAB
0
TABLE
2
VIEW
5
6
100
AcDbSymbolTable
70
0
0
ENDTAB
0
TABLE
2
UCS
5
7
100
AcDbSymbolTable
70
0
0
ENDTAB
0
TABLE
2
APPID
5
9
100
AcDbSymbolTable
70
2
0
APPID
5
12
100
AcDbSymbolTableRecord
100
AcDbRegAppTableRecord
2
ACAD
70
0
0
ENDTAB
0
TABLE
2
DIMSTYLE
5
A
100
AcDbSymbolTable
70
1
0
ENDTAB
0
TABLE
2
BLOCK_RECORD
5
1
100
AcDbSymbolTable
70
1
0
BLOCK_RECORD
5
1F
100
AcDbSymbolTableRecord
100
AcDbBlockTableRecord
2
*MODEL_SPACE
0
BLOCK_RECORD
5
1B
100
AcDbSymbolTableRecord
100
AcDbBlockTableRecord
2
*PAPER_SPACE
0
ENDTAB
0
ENDSEC
0
SECTION
2
BLOCKS
0
BLOCK
5
20
100
AcDbEntity
100
AcDbBlockBegin
2
*MODEL_SPACE
0
ENDBLK
5
21
100
AcDbEntity
100
AcDbBlockEnd
0
BLOCK
5
1C
100
AcDbEntity
100
AcDbBlockBegin
2
*PAPER_SPACE
0
ENDBLK
5
1D
100
AcDbEntity
100
AcDbBlockEnd
0
ENDSEC
0
SECTION
2
ENTITIES
0
LWPOLYLINE
5
100
100
AcDbEntity
8
0
100
AcDbPolyline
90
4
70
1
43
0.0
10
-43.099999999999987
20
0.5499999999999966
10
-43.099999999999987
20
13.449999999999998
10
19.300000000000026
20
13.449999999999998
10
19.300000000000026
20
0.54999999999999716
0
LWPOLYLINE
5
101
100
AcDbEntity
8
0
100
AcDbPolyline
90
8
70
1
43
0.0
10
33.077687842011905
20
-16.64980116107705
42
0.41421356237308943
10
34.577687842011919
20
-15.149801161077052
10
34.577687842011919
20
-12.149801161077058
42
0.41421356237309287
10
33.077687842011912
20
-10.649801161077058
10
26.077687842011919
20
-10.649801161077054
42
0.4142135623730942
10
24.577687842011919
20
-12.149801161077058
10
24.577687842011922
20
-15.149801161077052
42
0.41421356237309331
10
26.077687842011919
20
-16.64980116107705
0
LWPOLYLINE
5
102
100
AcDbEntity
8
0
100
AcDbPolyline
90
8
70
1
43
0.0
10
17.077687842011905
20
-16.64980116107705
42
0.41421356237309204
10
18.577687842011915
20
-15.149801161077052
10
18.577687842011915
20
-12.149801161077058
42
0.4142135623730937
10
17.077687842011915
20
-10.649801161077058
10
10.077687842011922
20
-10.649801161077054
42
0.41421356237309503
10
8.5776878420119207
20
-12.149801161077058
10
8.5776878420119225
20
-15.149801161077052
42
0.41421356237309548
10
10.077687842011924
20
-16.64980116107705
0
LWPOLYLINE
5
103
100
AcDbEntity
8
0
100
AcDbPolyline
90
8
70
1
43
0.0
10
38.827687842011919
20
-13.64980116107705
42
0.41421356237309465
10
40.327687842011919
20
-15.149801161077047
10
47.327687842011912
20
-15.149801161077042
42
0.41421356237309243
10
48.827687842011912
20
-13.64980116107705
10
48.827687842011912
20
-10.649801161077058
42
0.41421356237309204
10
47.327687842011912
20
-9.1498011610770558
10
40.327687842011919
20
-9.1498011610770575
42
0.4142135623730942
10
38.827687842011919
20
-10.649801161077058
0
LWPOLYLINE
5
104
100
AcDbEntity
8
0
100
AcDbPolyline
90
8
70
1
43
0.0
10
-37.922312157988088
20
-16.64980116107705
42
0.41421356237309076
10
-36.422312157988081
20
-15.149801161077052
10
-36.422312157988088
20
-12.149801161077058
42
0.41421356237309764
10
-37.922312157988088
20
-10.649801161077058
10
-44.922312157988088
20
-10.649801161077054
42
0.41421356237309892
10
-46.422312157988088
20
-12.149801161077058
10
-46.422312157988088
20
-15.149801161077052
42
0.41421356237309115
10
-44.922312157988088
20
-16.64980116107705
0
LWPOLYLINE
5
105
100
AcDbEntity
8
0
100
AcDbPolyline
90
8
70
1
43
0.0
10
-19.422312157988095
20
-16.64980116107705
42
0.41421356237309243
10
-17.922312157988081
20
-15.149801161077052
10
-17.922312157988085
20
-12.149801161077058
42
0.41421356237309331
10
-19.422312157988088
20
-10.649801161077058
10
-26.422312157988081
20
-10.649801161077054
42
0.4142135623730942
10
-27.922312157988081
20
-12.149801161077058
10
-27.922312157988078
20
-15.149801161077052
42
0.41421356237309331
10
-26.422312157988081
20
-16.64980116107705
0
LWPOLYLINE
5
106
100
AcDbEntity
8
0
100
AcDbPolyline
90
8
70
1
43
0.0
10
-9.4223121579880775
20
-15.149801161077052
42
0.41421356237309481
10
-7.9223121579880784
20
-16.64980116107705
10
-0.92231215798809441
20
-16.64980116107705
42
0.41421356237309176
10
0.57768784201191803
20
-15.149801161077052
10
0.57768784201191581
20
-12.149801161077058
42
0.41421356237309365
10
-0.92231215798808552
20
-10.649801161077058
10
-7.9223121579880784
20
-10.649801161077054
42
0.41421356237309503
10
-9.4223121579880775
20
-12.149801161077058
0
CIRCLE
5
107
100
AcDbEntity
8
0
100
AcDbCircle
10
-69.922312157978439
20
2.1251988389230951
30
0
40
2.0000000000000018
210
0
220
0
230
1
0
LWPOLYLINE
5
108
100
AcDbEntity
8
0
100
AcDbPolyline
90
8
70
1
43
0.0
10
-65.922312157988102
20
-16.649801161077043
42
0.41421356237309243
10
-64.422312157988102
20
-15.149801161077052
10
-64.422312157988102
20
-12.149801161077058
42
0.4142135623730937
10
-65.922312157988102
20
-10.649801161077058
10
-72.922312157988088
20
-10.649801161077054
42
0.41421356237309892
10
-74.422312157988102
20
-12.149801161077058
10
-74.422312157988102
20
-15.149801161077052
42
0.41421356237309115
10
-72.922312157988088
20
-16.64980116107705
0
LWPOLYLINE
5
109
100
AcDbEntity
8
0
100
AcDbPolyline
90
8
70
1
43
0.0
10
48.827687842011912
20
2.3501988389229438
42
0.41421356237309181
10
47.327687842011912
20
3.8501988389229478
10
40.327687842011919
20
3.8501988389229425
42
0.41421356237309459
10
38.827687842011919
20
2.3501988389229425
10
38.827687842011919
20
-0.64980116107705022
42
0.41421356237309431
10
40.327687842011919
20
-2.14980116107705
10
47.327687842011912
20
-2.1498011610770402
42
0.41421356237309231
10
48.827687842011912
20
-0.64980116107705133
0
CIRCLE
5
110
100
AcDbEntity
8
0
100
AcDbCircle
10
-13.5
20
-14.149801161076905
30
0
40
1.5000000000000013
210
0
220
0
230
1
0
LWPOLYLINE
5
111
100
AcDbEntity
8
0
100
AcDbPolyline
90
8
70
1
43
0.0
10
56.577687842011883
20
10.875198838923104
42
0.41421356237309243
10
58.077687842011883
20
12.375198838923094
10
58.077687842011883
20
15.37519883892309
42
0.41421356237309204
10
56.577687842011883
20
16.87519883892309
10
49.57768784201189
20
16.87519883892309
42
0.41421356237309892
10
48.077687842011883
20
15.375198838923087
10
48.077687842011883
20
12.375198838923094
42
0.41421356237309115
10
49.57768784201189
20
10.875198838923094
0
LWPOLYLINE
5
112
100
AcDbEntity
8
0
100
AcDbPolyline
90
8
70
1
43
0.0
10
72.077687842011912
20
10.875198838923108
42
0.41421356237309243
10
73.577687842011912
20
12.375198838923097
10
73.577687842011912
20
15.375198838923092
42
0.4142135623730937
10
72.077687842011912
20
16.87519883892309
10
65.077687842011912
20
16.875198838923097
42
0.41421356237309892
10
63.577687842011912
20
15.375198838923092
10
63.577687842011912
20
12.375198838923097
42
0.41421356237309115
10
65.077687842011912
20
10.875198838923099
0
CIRCLE
5
113
100
AcDbEntity
8
0
100
AcDbCircle
10
43.827687842011912
20
11.125198838923094
30
0
40
1.5000000000000036
210
0
220
0
230
1
0
CIRCLE
5
114
100
AcDbEntity
8
0
100
AcDbCircle
10
64.327687842011926
20
-6.1498011610769021
30
0
40
3.75
210
0
220
-3.2311742677852644e-27
230
1
0
LINE
5
115
100
AcDbEntity
8
0
100
AcDbLine
10
-79.422312157988074
20
-20.649801161076908
30
0
11
79.327687842011926
21
-20.649801161076915
31
-5.7221241587140916e-27
0
LINE
5
116
100
AcDbEntity
8
0
100
AcDbLine
10
79.327687842011926
20
-20.649801161076915
30
-5.7221241587140916e-27
11
79.327687842011926
21
20.625198838923097
31
0
0
LINE
5
117
100
AcDbEntity
8
0
100
AcDbLine
10
-79.422312157988102
20
20.625198838923097
30
0
11
-79.422312157988074
21
-20.649801161076908
31
0
0
LWPOLYLINE
5
118
100
AcDbEntity
8
0
100
AcDbPolyline
90
4
70
1
43
0.0
10
-43.099999999999987
20
13.449999999999998
10
-43.099999999999987
20
0.54999999999999716
10
19.300000000000026
20
0.54999999999999738
10
19.300000000000022
20
13.449999999999998
0
CIRCLE
5
119
100
AcDbEntity
8
0
100
AcDbCircle
10
64.327687842011926
20
-6.1498011610769012
30
0
40
3.75
210
0
220
-0
230
1
0
CIRCLE
5
120
100
AcDbEntity
8
0
100
AcDbCircle
10
43.827687842011912
20
11.125198838923094
30
0
40
1.5000000000000036
210
0
220
-0
230
1
0
LWPOLYLINE
5
121
100
AcDbEntity
8
0
100
AcDbPolyline
90
8
70
1
43
0.0
10
73.577687842011912
20
12.375198838923097
10
73.577687842011912
20
15.375198838923092
42
0.41421356237309503
10
72.077687842011912
20
16.875198838923094
10
65.077687842011912
20
16.875198838923094
42
0.41421356237309503
10
63.577687842011912
20
15.375198838923092
10
63.577687842011912
20
12.375198838923097
42
0.41421356237309503
10
65.077687842011912
20
10.875198838923099
10
72.077687842011912
20
10.875198838923099
42
0.41421356237309243
0
LWPOLYLINE
5
122
100
AcDbEntity
8
0
100
AcDbPolyline
90
8
70
1
43
0.0
10
58.077687842011883
20
12.375198838923094
10
58.077687842011883
20
15.37519883892309
42
0.41421356237309503
10
56.577687842011883
20
16.87519883892309
10
49.57768784201189
20
16.87519883892309
42
0.41421356237309503
10
48.077687842011883
20
15.375198838923087
10
48.077687842011883
20
12.375198838923094
42
0.41421356237309503
10
49.57768784201189
20
10.875198838923094
10
56.577687842011883
20
10.875198838923094
42
0.41421356237309243
0
CIRCLE
5
123
100
AcDbEntity
8
0
100
AcDbCircle
10
-13.5
20
-14.149801161076905
30
0
40
1.5000000000000013
210
0
220
-0
230
1
0
LWPOLYLINE
5
124
100
AcDbEntity
8
0
100
AcDbPolyline
90
8
70
1
43
0.0
10
47.327687842011912
20
3.8501988389229451
10
40.327687842011919
20
3.8501988389229451
42
0.41421356237309503
10
38.827687842011919
20
2.3501988389229442
10
38.827687842011919
20
-0.64980116107704955
42
0.41421356237309503
10
40.327687842011919
20
-2.1498011610770487
10
47.327687842011912
20
-2.1498011610770487
42
0.41421356237309243
10
48.827687842011912
20
-0.64980116107704955
10
48.827687842011912
20
2.3501988389229442
42
0.41421356237309503
0
LWPOLYLINE
5
125
100
AcDbEntity
8
0
100
AcDbPolyline
90
8
70
1
43
0.0
10
-64.422312157988102
20
-15.149801161077052
10
-64.422312157988102
20
-12.149801161077058
42
0.41421356237309503
10
-65.922312157988102
20
-10.649801161077058
10
-72.922312157988088
20
-10.649801161077058
42
0.41421356237309503
10
-74.422312157988102
20
-12.149801161077058
10
-74.422312157988102
20
-15.149801161077052
42
0.41421356237309503
10
-72.922312157988088
20
-16.64980116107705
10
-65.922312157988102
20
-16.64980116107705
42
0.41421356237309243
0
CIRCLE
5
126
100
AcDbEntity
8
0
100
AcDbCircle
10
-69.922312157978439
20
2.1251988389230956
30
0
40
2.0000000000000018
210
0
220
-0
230
1
0
LWPOLYLINE
5
127
100
AcDbEntity
8
0
100
AcDbPolyline
90
8
70
1
43
0.0
10
-7.9223121579880784
20
-16.64980116107705
10
-0.92231215798809441
20
-16.64980116107705
42
0.41421356237309243
10
0.57768784201191803
20
-15.149801161077052
10
0.57768784201191803
20
-12.149801161077058
42
0.41421356237309503
10
-0.92231215798808552
20
-10.649801161077058
10
-7.9223121579880784
20
-10.649801161077058
42
0.41421356237309503
10
-9.4223121579880811
20
-12.149801161077058
10
-9.4223121579880811
20
-15.149801161077052
42
0.41421356237309503
0
LWPOLYLINE
5
128
100
AcDbEntity
8
0
100
AcDbPolyline
90
8
70
1
43
0.0
10
-17.922312157988081
20
-15.149801161077052
10
-17.922312157988081
20
-12.149801161077058
42
0.41421356237309503
10
-19.422312157988088
20
-10.649801161077058
10
-26.422312157988081
20
-10.649801161077058
42
0.41421356237309503
10
-27.922312157988081
20
-12.149801161077058
10
-27.922312157988081
20
-15.149801161077052
42
0.41421356237309503
10
-26.422312157988081
20
-16.64980116107705
10
-19.422312157988095
20
-16.64980116107705
42
0.41421356237309243
0
LWPOLYLINE
5
129
100
AcDbEntity
8
0
100
AcDbPolyline
90
8
70
1
43
0.0
10
-36.422312157988081
20
-15.149801161077052
10
-36.422312157988081
20
-12.149801161077058
42
0.41421356237309503
10
-37.922312157988088
20
-10.649801161077058
10
-44.922312157988088
20
-10.649801161077058
42
0.41421356237309503
10
-46.422312157988088
20
-12.149801161077058
10
-46.422312157988088
20
-15.149801161077052
42
0.41421356237309503
10
-44.922312157988088
20
-16.64980116107705
10
-37.922312157988088
20
-16.64980116107705
42
0.41421356237309076
0
LWPOLYLINE
5
130
100
AcDbEntity
8
0
100
AcDbPolyline
90
8
70
1
43
0.0
10
40.327687842011919
20
-15.14980116107705
10
47.327687842011912
20
-15.14980116107705
42
0.41421356237309243
10
48.827687842011912
20
-13.64980116107705
10
48.827687842011912
20
-10.649801161077058
42
0.41421356237309503
10
47.327687842011912
20
-9.149801161077054
10
40.327687842011919
20
-9.149801161077054
42
0.41421356237309503
10
38.827687842011919
20
-10.649801161077058
10
38.827687842011919
20
-13.64980116107705
42
0.41421356237309503
0
LWPOLYLINE
5
131
100
AcDbEntity
8
0
100
AcDbPolyline
90
8
70
1
43
0.0
10
18.577687842011919
20
-15.149801161077052
10
18.577687842011919
20
-12.149801161077058
42
0.41421356237309503
10
17.077687842011915
20
-10.649801161077058
10
10.077687842011922
20
-10.649801161077058
42
0.41421356237309503
10
8.5776878420119189
20
-12.149801161077058
10
8.5776878420119189
20
-15.149801161077052
42
0.41421356237309503
10
10.077687842011922
20
-16.64980116107705
10
17.077687842011905
20
-16.64980116107705
42
0.41421356237309243
0
LWPOLYLINE
5
132
100
AcDbEntity
8
0
100
AcDbPolyline
90
8
70
1
43
0.0
10
34.577687842011919
20
-15.149801161077052
10
34.577687842011919
20
-12.149801161077058
42
0.41421356237309503
10
33.077687842011912
20
-10.649801161077058
10
26.077687842011919
20
-10.649801161077058
42
0.41421356237309503
10
24.577687842011919
20
-12.149801161077058
10
24.577687842011919
20
-15.149801161077052
42
0.41421356237309503
10
26.077687842011919
20
-16.64980116107705
10
33.077687842011905
20
-16.64980116107705
42
0.41421356237309243
0
LINE
5
133
100
AcDbEntity
8
0
100
AcDbLine
10
-79.422312157988102
20
20.625198838923097
30
0
11
-79.422312157988074
21
-20.649801161076901
31
1.6410119168394452e-16
0
LINE
5
134
100
AcDbEntity
8
0
100
AcDbLine
10
79.327687842011926
20
-20.649801161076912
30
0
11
79.327687842011926
21
20.625198838923097
31
0
0
LINE
5
135
100
AcDbEntity
8
0
100
AcDbLine
10
-79.422312157988074
20
-20.649801161076901
30
1.6410119168394452e-16
11
79.327687842011926
21
-20.649801161076912
31
0
0
LINE
5
136
100
AcDbEntity
8
0
100
AcDbLine
10
79.327687842011926
20
25.625198838923097
30
5.5511151231257827e-16
11
-79.422312157988102
21
25.625198838923097
31
5.5511151231257827e-16
0
LINE
5
137
100
AcDbEntity
8
0
100
AcDbLine
10
-79.422312157988102
20
25.625198838923097
30
5.5511151231257827e-16
11
-79.422312157988102
21
20.625198838923101
31
-3.8960797299877427e-17
0
LINE
5
138
100
AcDbEntity
8
0
100
AcDbLine
10
79.327687842011926
20
20.625198838923097
30
0
11
79.327687842011926
21
25.625198838923097
31
5.5511151231257827e-16
0
ENDSEC
0
SECTION
2
OBJECTS
0
DICTIONARY
5
C
100
AcDbDictionary
3
ACAD_GROUP
350
D
3
ACAD_MLINESTYLE
350
17
0
DICTIONARY
5
D
100
AcDbDictionary
0
DICTIONARY
5
1A
330
C
100
AcDbDictionary
0
DICTIONARY
5
17
100
AcDbDictionary
0
ENDSEC
0
EOF
