<?xml version="1.0" encoding="UTF-8"?>
<svg viewBox="-33.55 -33.55 67.1 67.1" height="67.1mm" width="67.1mm" xmlns:svgjs="http://svgjs.com/svgjs" xmlns:xlink="http://www.w3.org/1999/xlink" version="1.1" xmlns="http://www.w3.org/2000/svg" id="SvgjsSvg1525">
  <defs id="SvgjsDefs1526">
  </defs>
  <defs id="SvgjsDefs1526">
  </defs>
  <g id="SvgjsG1527">
    <g transform="matrix(1,0,0,1,21.5,0)" id="SvgjsG1528">
      <g fill="none" stroke-width="0.04" stroke="blue" id="SvgjsG1529">
      </g>
      <g fill="none" stroke-width="0.1" stroke="black" id="SvgjsG1530">
        <circle cy="0" cx="0" r="0.5" id="SvgjsCircle1531">
        </circle>
        <path d="M6.702308437495585 -3.064774163160392  L6.611940717856028 -2.9234202649221537 L6.522296157218346 -2.7953452913790104 L6.4332551640569795 -2.6788615820594766 L6.34712680299938 -2.575465205326384 L6.263090626120604 -2.4827601926485396 L6.183316141912595 -2.4018477401498908 L6.108555556004246 -2.3320996068799578 L6.0385468495036445 -2.272029910575476 L5.973179799020804 -2.2205815557798774 L5.867129180912504 -2.1470760451099453 L5.7694936356597575 -2.092288297362856 L5.64002449682993 -2.064362841401265 L5.517549616825358 -2.02824311039637 L5.408059091793756 -1.9859513921964185 L5.311820752180936 -1.9385321325167517 L5.229053881341843 -1.887017811289497 L5.159914719809086 -1.8324459683432723 L5.104494072136305 -1.775868912821362 L5.062819700054803 -1.7183440137635404 L5.0348513993686685 -1.6609118881130829 L5.02597751325321 -1.6325645047204327 L5.020493239321185 -1.6046303152845727 L5.018365073379592 -1.5772452516599427 L5.019576400123535 -1.5505185106031023 L5.025734121993201 -1.5182649191538413 L5.073762201845857 -1.3489384721773958 L5.097444541486773 -1.256407237509678 L5.119476280038065 -1.1634691662126713 L5.1556394508817736 -0.9912182818186319 L5.165176050276084 -0.959797508881092 L5.176524009593954 -0.9355692233594133 L5.1911348805847854 -0.9123099617871004 L5.208972629107334 -0.8901241346074278 L5.2300037509686 -0.8691476736748347 L5.281458490947916 -0.8312915693630993 L5.345092468384443 -0.7997228472539063 L5.420457683518951 -0.7753816117115295 L5.507038170664984 -0.7591912150037433 L5.604264493940332 -0.7520412316221162 L5.711516140423665 -0.7547777488638361 L5.828119126997892 -0.7682130762498851 L5.953350923455058 -0.7931475575180321 L6.0809677590433 -0.8285881031465007 L6.192880876827442 -0.8254494620659517 L6.320943749736911 -0.8096477443690356 L6.402732641103164 -0.794470071652859 L6.492638051932634 -0.7738156652565383 L6.59124883694388 -0.7467997370017913 L6.699487526262251 -0.7122283697357852 L6.816980033008427 -0.6691957163374671 L6.94129360145975 -0.6176686166820593 L7.074268164271025 -0.5559068271585184 L7.213163888619087 -0.48416197467538047 L7.358870962468499 -0.4009952870520186 L7.493275795902742 -0.3168725644052621 A7.5 7.5 0 0 1 7.493275795902742 0.316872564405263 L7.358870962468499 0.40099528705201926 L7.213163888619087 0.48416197467538113 L7.074268164271026 0.555906827158519 L6.94129360145975 0.61766861668206 L6.816980033008428 0.6691957163374678 L6.699487526262251 0.7122283697357858 L6.59124883694388 0.7467997370017919 L6.492638051932634 0.773815665256539 L6.402732641103164 0.7944700716528597 L6.320943749736911 0.8096477443690363 L6.192880876827442 0.8254494620659524 L6.0809677590433 0.8285881031465013 L5.953350923455058 0.7931475575180328 L5.828119126997892 0.7682130762498858 L5.711516140423665 0.7547777488638368 L5.604264493940332 0.7520412316221169 L5.507038170664984 0.759191215003744 L5.420457683518951 0.7753816117115302 L5.345092468384443 0.799722847253907 L5.281458490947916 0.8312915693630998 L5.2300037509686 0.8691476736748351 L5.208972629107334 0.8901241346074285 L5.1911348805847854 0.9123099617871011 L5.176524009593954 0.935569223359414 L5.165176050276084 0.9597975088810925 L5.1556394508817736 0.9912182818186324 L5.119476280038065 1.163469166212672 L5.097444541486773 1.2564072375096786 L5.073762201845857 1.3489384721773965 L5.025734121993201 1.5182649191538418 L5.019576400123535 1.5505185106031028 L5.018365073379592 1.5772452516599433 L5.020493239321185 1.6046303152845733 L5.02597751325321 1.6325645047204334 L5.0348513993686685 1.6609118881130833 L5.062819700054803 1.7183440137635408 L5.104494072136305 1.7758689128213625 L5.159914719809086 1.832445968343273 L5.229053881341843 1.8870178112894975 L5.311820752180936 1.9385321325167526 L5.408059091793756 1.9859513921964191 L5.517549616825358 2.0282431103963705 L5.64002449682993 2.0643628414012656 L5.7694936356597575 2.0922882973628565 L5.867129180912504 2.1470760451099458 L5.973179799020804 2.2205815557798783 L6.0385468495036445 2.272029910575477 L6.108555556004246 2.332099606879958 L6.183316141912595 2.4018477401498917 L6.263090626120604 2.4827601926485405 L6.347126802999379 2.5754652053263842 L6.4332551640569795 2.6788615820594774 L6.522296157218345 2.795345291379011 L6.611940717856028 2.9234202649221546 L6.702308437495585 3.0647741631603926 L6.782224228627491 3.201722175353892 A7.5 7.5 0 0 1 6.487708182099378 3.7628756183875414 L6.329604833948754 3.7749015495178906 L6.161938140547792 3.7808285406591002 L6.005610589062558 3.7798073909975467 L5.859165326424233 3.7726983790555026 L5.725145290970481 3.7605519640710385 L5.601112571714252 3.7440539958959675 L5.489205856590745 3.724364394318829 L5.389335414933891 3.7024590939724575 L5.300129545918931 3.6789665348678007 L5.220655663018284 3.6543965035960637 L5.099918196166281 3.608874445226942 L4.999365452435814 3.559644954794122 L4.902836399172834 3.4689574094742013 L4.803536781624661 3.3886809050984708 L4.706533672513642 3.3225964037173177 L4.612838778846672 3.2703310126756815 L4.523426382093238 3.231478683185591 L4.439239115531103 3.2055786088846165 L4.361194595472886 3.1921077407283893 L4.290178790039479 3.1904882720980807 L4.227025271599405 3.2000959777887883 L4.198654890558253 3.2088960618554254 L4.172550080663523 3.22025102114025 L4.1488036790873695 3.234056064138517 L4.127496114429678 3.25023548589451 L4.104449913764144 3.2736253199017007 L3.992380038850914 3.4093400399468488 L3.929681427898281 3.4813939557641755 L3.865710348673757 3.5523205630624926 L3.7444936724178755 3.679931924223938 L3.7240522891559777 3.7056294250818076 L3.7105591767091926 3.728731847389834 L3.699717100431507 3.7539691250161717 L3.691591518707847 3.7812522905519397 L3.686275268710366 3.810476552492394 L3.6843499294706885 3.8743276916271987 L3.69451759978392 3.944630506509687 L3.7172974775043484 4.020482260418494 L3.753156364733895 4.100933798046179 L3.8025028904764193 4.185011146940767 L3.865680879411149 4.271723002613237 L3.942975983119252 4.360053243430035 L4.034636427644491 4.448952591624697 L4.136298050282255 4.533846663753773 L4.197288896222076 4.627732305422482 L4.257032340969089 4.742102382408381 L4.2910027470612535 4.818035221219619 L4.3250765982700745 4.9037589639272205 L4.358860235806651 5.000260845436324 L4.391895141958997 5.108978315400934 L4.423223313593162 5.230118086170324 L4.4514354976980135 5.36169687613297 L4.476144702736493 5.506217491224264 L4.496001611155772 5.661282152859431 L4.510327821065132 5.828440787125306 L4.51744682523607 5.986840949674477 A7.5 7.5 0 0 1 3.99588480913631 6.346849215764331 L3.850302517978717 6.28402335948449 L3.6990866238816684 6.211352851901083 L3.5611400033533034 6.137799633176113 L3.434772885701636 6.063448408731524 L3.3217487582513945 5.990411076399959 L3.2195902277104094 5.918161972338339 L3.1296519665944493 5.848722052353957 L3.0514009829062774 5.782913763728334 L2.983330645249892 5.720656101297548 L2.9243782796232725 5.661967064101276 L2.838625717440322 5.5655497846382085 L2.7724687695602563 5.4752300456705045 L2.729141141423887 5.350070924388528 L2.678522048474873 5.2328427766209415 L2.623341060110206 5.129248264106531 L2.564667290252827 5.039427370486375 L2.503552122581328 4.963473328589418 L2.4410443648059306 4.901416178172306 L2.378199598830915 4.853219219870506 L2.3160708305921913 4.818782561247186 L2.255686243683578 4.797940858728531 L2.2264759158589134 4.792548572722056 L2.198084341941822 4.7904713797819705 L2.17064242420628 4.791659635224093 L2.144256560487853 4.796083682673271 L2.112980365386744 4.806084248657123 L1.9506776441582094 4.874172197530712 L1.8616756569733115 4.908835274098428 L1.7720708414804414 4.941908823053578 L1.605434848532247 4.998570873441552 L1.5753926784380463 5.01182529594995 L1.552708889740343 5.0260109129727635 L1.5313803602574136 5.043318848438781 L1.5115063957270842 5.063700745648 L1.49321789842333 5.087106959916236 L1.4618399912747961 5.142749586049247 L1.4381716690847062 5.209724789107589 L1.4230921813943196 5.287474518695514 L1.417455955402804 5.375375273280286 L1.42207744169125 5.4727545424523525 L1.4377217640602464 5.578894352974206 L1.465114069692303 5.693027722731522 L1.504961775525581 5.814340918797838 L1.5555264293803353 5.936755398254106 L1.565900308221789 6.048230864782767 L1.5656500764025352 6.177264701756007 L1.5604416274560817 6.260286726301137 L1.5507747146956017 6.352026239040639 L1.5358419796377452 6.453174450708922 L1.5145694088487018 6.564791075958144 L1.4860126686622657 6.68661394322831 L1.4498456044296226 6.816232031336382 L1.4045624402491015 6.955681620944239 L1.3500827180328085 7.102212525422564 L1.2850854561712814 7.256881867085687 L1.2177767953189906 7.400446611679409 A7.5 7.5 0 0 1 0.5886523820323678 7.476836145634211 L0.48894229631521047 7.3535511484842475 L0.38881894051063315 7.218931079689027 L0.30085515926519235 7.089695947898155 L0.2235153703653231 6.965135480441888 L0.15737961642904963 6.8479392034051125 L0.10049856280649316 6.736490362501369 L0.05313252744620234 6.633207972936411 L0.014427359063091338 6.538572581879815 L-0.016913353214138893 6.451812296299626 L-0.041838925054694664 6.372449204320915 L-0.07296170400288227 6.247224740534712 L-0.08956709655087547 6.136505916758775 L-0.06976746210911366 6.005547665869522 L-0.060109806290549406 5.878223430611302 L-0.06082737447751929 5.760851161331472 L-0.07103856694656019 5.654051649402062 L-0.08985575714019634 5.5583960507514005 L-0.11636423212265512 5.474398369508973 L-0.1496122654911251 5.40251666337223 L-0.18862104446449762 5.343151838239778 L-0.23240331869404646 5.29663531038904 L-0.25576185922020495 5.278285962049444 L-0.2799360297308093 5.263252476754136 L-0.30478685098348574 5.2515517296383525 L-0.33020633036888586 5.2432069068256615 L-0.36254752052691674 5.237527195639157 L-0.5379014905971246 5.222390244802987 L-0.6328175713404467 5.211721589014783 L-0.7275287397273348 5.1993653281406145 L-0.9014097515648224 5.172097474862963 L-0.934170409370142 5.169872390558322 L-0.9608482916974077 5.171891448391214 L-0.9877771653176857 5.17730500226488 L-1.014846626888023 5.186116384125408 L-1.0419176971660455 5.1983424691080335 L-1.0955598718404798 5.233029527158515 L-1.1476420591543446 5.2813339065107385 L-1.1971263833532064 5.343170085715003 L-1.242966531115014 5.418383053700421 L-1.2841288110943823 5.506755826130057 L-1.3196020810113338 5.608008240034118 L-1.348387820562558 5.7217981591767595 L-1.3694814826107318 5.847733811878437 L-1.3815975503669746 5.979625016672866 L-1.4242171692476715 6.083152622104771 L-1.4844037525390228 6.197290122041091 L-1.5275978636390755 6.268381987020681 L-1.5787909671543572 6.345120853004441 L-1.6390191651638584 6.427743558506792 L-1.7097259232887903 6.516689315322182 L-1.7916255702651416 6.611287128326231 L-1.8838864442799537 6.709250572661468 L-1.988788150487005 6.811682916356462 L-2.105123855530944 6.916111599350789 L-2.2345544997728006 7.022858766203769 L-2.360871222604358 7.118699139998348 A7.5 7.5 0 0 1 -2.9534332117649598 6.893970020182736 L-2.984428713040677 6.738468989264429 L-3.010522476355195 6.572739194670682 L-3.0283519761128623 6.417428361055021 L-3.0389468226694683 6.271193952564946 L-3.0430432988872087 6.136686985523839 L-3.041616111697416 6.011569994124887 L-3.0355589334236006 5.898105885740962 L-3.0258513988729243 5.796323219864362 L-3.013282706284813 5.704936046986406 L-2.9984713362163373 5.623080028168639 L-2.967834478342878 5.497735795594333 L-2.9310842202427274 5.391982235230759 L-2.8526931808619813 5.285225811794947 L-2.784971228836502 5.17697393692038 L-2.7310609906217738 5.072712483277957 L-2.6904703445660285 4.973400834148677 L-2.6626787657801647 4.879957223620245 L-2.6471151858129587 4.79326186804335 L-2.643149762812404 4.714162646679125 L-2.650102111364374 4.643469421051687 L-2.667252081522472 4.581934443814539 L-2.6794076746165105 4.554831647712804 L-2.693826430586985 4.530285860370291 L-2.7103931316926686 4.508376610851539 L-2.7290229303557823 4.489174616117349 L-2.7550201386591224 4.469115781145379 L-2.9032538762723443 4.37422162361598 L-2.9823399203385685 4.320665295941696 L-3.0604602543353505 4.265709895695394 L-3.2017522407435166 4.160758875324773 L-3.2297263143654824 4.143564024206114 L-3.2542867089844685 4.132953981031853 L-3.280646846323797 4.125232973361107 L-3.308710517510754 4.120455258477358 L-3.3383625048041123 4.11870036544515 L-3.4019801712448183 4.1244854684381025 L-3.4705448222272506 4.143053072905491 L-3.543097720611382 4.17480977827714 L-3.6186403647249183 4.22010457511227 L-3.696156628688077 4.279225713643205 L-3.7746209922522476 4.352395023127917 L-3.8529903109613355 4.43977359249749 L-3.9301930371219096 4.541481361489715 L-4.002214181380639 4.652634606065225 L-4.0880636569200055 4.724497423638819 L-4.194398570778363 4.7975910608087915 L-4.265683093724461 4.840466476705867 L-4.346674664922971 4.884624746540595 L-4.43840077154861 4.929794079757968 L-4.542343650831816 4.975692567165689 L-4.6588239824735425 5.021394106971626 L-4.786042811897794 5.0652606630243096 L-4.926531343441945 5.107209745309478 L-5.078071923285192 5.145612854047867 L-5.242284949119924 5.179983356607502 L-5.39867209501157 5.206143484968314 A7.5 7.5 0 0 1 -5.81892284947556 4.731778444452557 L-5.774103070503854 4.579684791958718 L-5.720189474616894 4.420811970247333 L-5.663800169361071 4.275005275089786 L-5.605222921910037 4.140597466235314 L-5.546341667075651 4.019593734354318 L-5.48693319045922 3.909471387366456 L-5.428840425096919 3.8118188200035816 L-5.372944066789541 3.726206061445215 L-5.319345305338859 3.6511277012410064 L-5.26819009974768 3.5855309830233684 L-5.182812139977223 3.4887818347819803 L-5.10112527247105 3.4122204040415025 L-4.982101270559013 3.354122418113906 L-4.87182930539766 3.2897421035802394 L-4.775641446667429 3.2224765081179774 L-4.693547789927955 3.1534038237692306 L-4.625514157937602 3.0835790064175104 L-4.571443951629745 3.014046837676517 L-4.531173502881066 2.9458507794504007 L-4.50447672174326 2.8800241193734974 L-4.491065536346232 2.8175676144581043 L-4.489233482121083 2.7879202945570385 L-4.490593660323438 2.759485349238684 L-4.495081009709209 2.7323867423466304 L-4.502653265289728 2.7067265212754226 L-4.516350844616406 2.6768837998748967 L-4.603505786895647 2.523971543543685 L-4.648644134679352 2.439796653229784 L-4.692277207219447 2.354831733523409 L-4.768611876865204 2.1962405600298216 L-4.7853908431611565 2.168015075268009 L-4.802207259649495 2.1472065641129374 L-4.821959870917527 2.128119784706919 L-4.844588702856072 2.110847489981055 L-4.870028694221043 2.095513643778938 L-4.929047811722447 2.071071494336725 L-4.998387591126988 2.0556487094996894 L-5.077388069033796 2.0500508625478675 L-5.165327300120202 2.0550509961392542 L-5.2614395061654395 2.071376560421008 L-5.364919723282368 2.099700558469194 L-5.4749191546857405 2.1406504008490432 L-5.590544730789037 2.194830261967184 L-5.705971775349456 2.259781677533337 L-5.815384027299759 2.283516801783344 L-5.943507224434803 2.29882170478515 L-6.026551734091625 2.303658430522465 L-6.1187875800660265 2.3051199767538653 L-6.220998249699285 2.302488187795633 L-6.334365189144472 2.2948246154673146 L-6.458741965212622 2.2811602100688577 L-6.591774449378312 2.2608805784966277 L-6.73566557675314 2.2327363701616836 L-6.887694910815571 2.1963162152397997 L-7.0490710930059315 2.150436185579136 L-7.1997022515033064 2.1009230983624407 A7.5 7.5 0 0 1 -7.3513673879936015 1.4855934512102422 L-7.241 1.371749999999999 L-7.11943 1.2561299999999989 L-7.00174 1.1532299999999989 L-6.88741 1.0614399999999988 L-6.77904 0.9816599999999989 L-6.67526 0.9117599999999989 L-6.57844 0.8522899999999989 L-6.48916 0.802459999999999 L-6.40681 0.760889999999999 L-6.33103 0.726579999999999 L-6.21047 0.680589999999999 L-6.10256 0.650759999999999 L-5.97017 0.654629999999999 L-5.84261 0.6488699999999991 L-5.72618 0.6340099999999991 L-5.62139 0.6109999999999991 L-5.5287 0.5807899999999991 L-5.44851 0.5443499999999991 L-5.38116 0.5026799999999991 L-5.32693 0.45679999999999915 L-5.28603 0.40772999999999915 L-5.27063 0.38232999999999917 L-5.25862 0.35651999999999917 L-5.25 0.3304399999999992 L-5.24478 0.3041999999999992 L-5.24304 0.27140999999999915 L-5.24915 0.09550999999999915 L-5.25 -8.442643910802342e-16 L-5.24915 -0.09551000000000084 L-5.24304 -0.2714100000000008 L-5.24478 -0.30420000000000086 L-5.25 -0.33044000000000084 L-5.25862 -0.35652000000000084 L-5.27063 -0.38233000000000084 L-5.28603 -0.4077300000000008 L-5.32693 -0.4568000000000008 L-5.38116 -0.5026800000000009 L-5.44851 -0.5443500000000009 L-5.5287 -0.5807900000000009 L-5.62139 -0.6110000000000009 L-5.72618 -0.6340100000000009 L-5.84261 -0.6488700000000008 L-5.97017 -0.654630000000001 L-6.10256 -0.650760000000001 L-6.21047 -0.680590000000001 L-6.33103 -0.726580000000001 L-6.40681 -0.760890000000001 L-6.48916 -0.802460000000001 L-6.57844 -0.8522900000000011 L-6.67526 -0.9117600000000011 L-6.77904 -0.9816600000000011 L-6.88741 -1.061440000000001 L-7.00174 -1.153230000000001 L-7.11943 -1.256130000000001 L-7.241 -1.3717500000000011 L-7.3513673879936015 -1.4855934512102444 A7.5 7.5 0 0 1 -7.199702251503306 -2.1009230983624447 L-7.049071093005931 -2.15043618557914 L-6.88769491081557 -2.1963162152398032 L-6.7356655767531395 -2.232736370161687 L-6.591774449378311 -2.2608805784966317 L-6.458741965212621 -2.2811602100688617 L-6.334365189144471 -2.294824615467318 L-6.220998249699284 -2.302488187795637 L-6.118787580066025 -2.305119976753869 L-6.0265517340916235 -2.3036584305224683 L-5.943507224434802 -2.298821704785153 L-5.815384027299758 -2.283516801783347 L-5.705971775349455 -2.2597816775333395 L-5.590544730789035 -2.1948302619671876 L-5.47491915468574 -2.1406504008490463 L-5.364919723282366 -2.0997005584691975 L-5.261439506165439 -2.071376560421011 L-5.1653273001202 -2.0550509961392573 L-5.077388069033795 -2.05005086254787 L-4.9983875911269875 -2.0556487094996925 L-4.929047811722445 -2.071071494336728 L-4.870028694221043 -2.095513643778941 L-4.844588702856071 -2.1108474899810576 L-4.821959870917525 -2.1281197847069215 L-4.802207259649494 -2.14720656411294 L-4.7853908431611565 -2.1680150752680123 L-4.7686118768652035 -2.1962405600298243 L-4.692277207219446 -2.3548317335234117 L-4.648644134679351 -2.4397966532297866 L-4.603505786895646 -2.523971543543688 L-4.516350844616405 -2.6768837998748993 L-4.502653265289727 -2.706726521275425 L-4.495081009709208 -2.732386742346633 L-4.490593660323436 -2.7594853492386857 L-4.489233482121082 -2.787920294557041 L-4.49106553634623 -2.817567614458107 L-4.504476721743258 -2.8800241193735 L-4.531173502881065 -2.945850779450403 L-4.571443951629744 -3.0140468376765197 L-4.6255141579376 -3.0835790064175126 L-4.693547789927954 -3.1534038237692332 L-4.775641446667427 -3.22247650811798 L-4.871829305397659 -3.2897421035802425 L-4.982101270559011 -3.3541224181139087 L-5.101125272471049 -3.412220404041505 L-5.18281213997722 -3.4887818347819834 L-5.268190099747679 -3.5855309830233715 L-5.3193453053388575 -3.6511277012410095 L-5.37294406678954 -3.7262060614452177 L-5.428840425096916 -3.8118188200035847 L-5.486933190459217 -3.909471387366459 L-5.546341667075648 -4.019593734354321 L-5.605222921910035 -4.1405974662353175 L-5.6638001693610684 -4.275005275089789 L-5.720189474616891 -4.420811970247336 L-5.774103070503851 -4.579684791958721 L-5.818922849475557 -4.73177844445256 A7.5 7.5 0 0 1 -5.398672095011569 -5.206143484968314 L-5.242284949119922 -5.179983356607503 L-5.078071923285191 -5.145612854047868 L-4.926531343441944 -5.107209745309479 L-4.786042811897793 -5.0652606630243096 L-4.658823982473541 -5.021394106971626 L-4.542343650831815 -4.975692567165689 L-4.438400771548609 -4.929794079757968 L-4.346674664922971 -4.884624746540595 L-4.26568309372446 -4.840466476705867 L-4.194398570778362 -4.797591060808792 L-4.088063656920005 -4.724497423638819 L-4.002214181380638 -4.652634606065225 L-3.9301930371219087 -4.541481361489715 L-3.852990310961335 -4.43977359249749 L-3.7746209922522467 -4.352395023127917 L-3.696156628688076 -4.279225713643205 L-3.618640364724918 -4.22010457511227 L-3.543097720611381 -4.17480977827714 L-3.4705448222272497 -4.143053072905491 L-3.401980171244818 -4.124485468438103 L-3.3383625048041123 -4.11870036544515 L-3.3087105175107534 -4.120455258477358 L-3.2806468463237968 -4.125232973361107 L-3.254286708984468 -4.132953981031853 L-3.2297263143654815 -4.143564024206114 L-3.201752240743516 -4.160758875324773 L-3.0604602543353496 -4.265709895695394 L-2.982339920338568 -4.320665295941696 L-2.9032538762723434 -4.37422162361598 L-2.755020138659122 -4.469115781145379 L-2.7290229303557814 -4.489174616117349 L-2.710393131692668 -4.508376610851539 L-2.6938264305869843 -4.530285860370291 L-2.67940767461651 -4.554831647712804 L-2.667252081522471 -4.581934443814539 L-2.6501021113643737 -4.6434694210516865 L-2.643149762812403 -4.714162646679125 L-2.647115185812958 -4.79326186804335 L-2.6626787657801643 -4.879957223620245 L-2.6904703445660276 -4.973400834148677 L-2.731060990621773 -5.072712483277957 L-2.7849712288365014 -5.17697393692038 L-2.8526931808619804 -5.285225811794947 L-2.9310842202427265 -5.391982235230759 L-2.9678344783428776 -5.497735795594333 L-2.9984713362163364 -5.623080028168638 L-3.013282706284812 -5.704936046986406 L-3.025851398872924 -5.796323219864362 L-3.0355589334235997 -5.898105885740962 L-3.041616111697415 -6.011569994124887 L-3.043043298887208 -6.136686985523839 L-3.0389468226694674 -6.271193952564946 L-3.0283519761128614 -6.41742836105502 L-3.0105224763551943 -6.572739194670681 L-2.984428713040676 -6.738468989264428 L-2.953433211764959 -6.893970020182736 A7.5 7.5 0 0 1 -2.360871222604354 -7.11869913999835 L-2.2345544997727966 -7.02285876620377 L-2.10512385553094 -6.916111599350791 L-1.9887881504870015 -6.811682916356463 L-1.8838864442799501 -6.709250572661468 L-1.791625570265138 -6.611287128326233 L-1.7097259232887867 -6.516689315322184 L-1.639019165163855 -6.427743558506793 L-1.5787909671543539 -6.345120853004443 L-1.527597863639072 -6.268381987020682 L-1.4844037525390195 -6.197290122041092 L-1.4242171692476682 -6.083152622104771 L-1.3815975503669713 -5.979625016672868 L-1.3694814826107287 -5.847733811878438 L-1.3483878205625548 -5.72179815917676 L-1.3196020810113307 -5.608008240034119 L-1.2841288110943792 -5.506755826130058 L-1.242966531115011 -5.418383053700422 L-1.1971263833532035 -5.343170085715004 L-1.1476420591543417 -5.281333906510739 L-1.0955598718404769 -5.233029527158516 L-1.0419176971660427 -5.198342469108034 L-1.01484662688802 -5.18611638412541 L-0.9877771653176828 -5.177305002264881 L-0.9608482916974048 -5.171891448391215 L-0.9341704093701392 -5.169872390558323 L-0.9014097515648195 -5.172097474862964 L-0.7275287397273319 -5.1993653281406145 L-0.6328175713404438 -5.211721589014784 L-0.5379014905971217 -5.222390244802987 L-0.36254752052691386 -5.237527195639158 L-0.330206330368883 -5.243206906825662 L-0.3047868509834828 -5.251551729638353 L-0.2799360297308064 -5.263252476754137 L-0.255761859220202 -5.278285962049444 L-0.23240331869404351 -5.296635310389039 L-0.18862104446449468 -5.343151838239779 L-0.14961226549112216 -5.402516663372231 L-0.11636423212265212 -5.4743983695089735 L-0.08985575714019334 -5.5583960507514 L-0.07103856694655708 -5.654051649402063 L-0.06082737447751618 -5.760851161331473 L-0.0601098062905463 -5.878223430611303 L-0.06976746210911033 -6.005547665869521 L-0.08956709655087203 -6.136505916758775 L-0.07296170400287894 -6.247224740534712 L-0.04183892505469111 -6.372449204320916 L-0.01691335321413523 -6.451812296299627 L0.014427359063095002 -6.538572581879815 L0.053132527446206 -6.633207972936412 L0.10049856280649694 -6.736490362501369 L0.1573796164290534 -6.8479392034051125 L0.22351537036532676 -6.965135480441888 L0.30085515926519635 -7.0896959478981545 L0.3888189405106369 -7.218931079689027 L0.4889422963152146 -7.353551148484248 L0.588652382032372 -7.476836145634211 A7.5 7.5 0 0 1 1.2177767953189977 -7.400446611679407 L1.285085456171289 -7.256881867085686 L1.3500827180328157 -7.102212525422562 L1.4045624402491086 -6.9556816209442385 L1.4498456044296297 -6.81623203133638 L1.4860126686622723 -6.686613943228309 L1.5145694088487083 -6.564791075958143 L1.5358419796377516 -6.4531744507089215 L1.5507747146956081 -6.352026239040638 L1.5604416274560882 -6.260286726301136 L1.5656500764025412 -6.177264701756006 L1.5659003082217953 -6.0482308647827665 L1.5555264293803412 -5.936755398254104 L1.504961775525587 -5.814340918797837 L1.465114069692309 -5.69302772273152 L1.437721764060252 -5.578894352974205 L1.4220774416912558 -5.472754542452352 L1.4174559554028092 -5.3753752732802855 L1.423092181394325 -5.287474518695513 L1.4381716690847115 -5.209724789107588 L1.4618399912748015 -5.142749586049245 L1.493217898423335 -5.087106959916235 L1.5115063957270893 -5.063700745647999 L1.531380360257419 -5.043318848438779 L1.552708889740348 -5.026010912972763 L1.5753926784380514 -5.011825295949948 L1.6054348485322518 -4.99857087344155 L1.7720708414804462 -4.941908823053576 L1.8616756569733164 -4.9088352740984265 L1.9506776441582143 -4.874172197530711 L2.1129803653867487 -4.806084248657121 L2.1442565604878574 -4.796083682673269 L2.1706424242062847 -4.79165963522409 L2.198084341941827 -4.790471379781969 L2.2264759158589182 -4.792548572722053 L2.2556862436835834 -4.797940858728528 L2.316070830592196 -4.818782561247184 L2.37819959883092 -4.853219219870503 L2.4410443648059355 -4.901416178172303 L2.503552122581333 -4.963473328589416 L2.564667290252832 -5.039427370486372 L2.623341060110211 -5.129248264106528 L2.678522048474879 -5.232842776620938 L2.729141141423893 -5.350070924388525 L2.7724687695602617 -5.475230045670503 L2.8386257174403275 -5.565549784638206 L2.9243782796232782 -5.661967064101273 L2.9833306452498984 -5.720656101297545 L3.0514009829062836 -5.782913763728331 L3.129651966594455 -5.8487220523539545 L3.219590227710415 -5.9181619723383365 L3.3217487582514003 -5.9904110763999565 L3.4347728857016424 -6.063448408731521 L3.5611400033533096 -6.13779963317611 L3.6990866238816746 -6.211352851901079 L3.850302517978724 -6.284023359484487 L3.9958848091363164 -6.346849215764327 A7.5 7.5 0 0 1 4.517446825236073 -5.986840949674473 L4.510327821065134 -5.828440787125304 L4.4960016111557755 -5.661282152859427 L4.476144702736496 -5.5062174912242625 L4.451435497698016 -5.361696876132966 L4.423223313593165 -5.230118086170322 L4.391895141958999 -5.108978315400932 L4.358860235806653 -5.000260845436323 L4.325076598270076 -4.903758963927219 L4.291002747061256 -4.818035221219616 L4.257032340969092 -4.742102382408378 L4.197288896222077 -4.627732305422479 L4.1362980502822575 -4.5338466637537715 L4.034636427644493 -4.448952591624695 L3.942975983119254 -4.360053243430032 L3.865680879411151 -4.271723002613235 L3.8025028904764224 -4.185011146940765 L3.753156364733897 -4.100933798046176 L3.7172974775043506 -4.020482260418492 L3.694517599783922 -3.9446305065096854 L3.6843499294706903 -3.8743276916271965 L3.6862752687103684 -3.8104765524923923 L3.691591518707849 -3.7812522905519375 L3.699717100431509 -3.7539691250161695 L3.7105591767091943 -3.7287318473898314 L3.72405228915598 -3.705629425081806 L3.7444936724178772 -3.6799319242239354 L3.8657103486737587 -3.5523205630624903 L3.9296814278982826 -3.481393955764173 L3.9923800388509156 -3.4093400399468465 L4.104449913764145 -3.273625319901698 L4.12749611442968 -3.2502354858945073 L4.148803679087371 -3.2340560641385143 L4.172550080663525 -3.220251021140247 L4.198654890558255 -3.208896061855423 L4.227025271599407 -3.2000959777887856 L4.29017879003948 -3.1904882720980785 L4.361194595472887 -3.1921077407283867 L4.4392391155311035 -3.205578608884614 L4.523426382093239 -3.231478683185588 L4.612838778846673 -3.270331012675679 L4.706533672513643 -3.322596403717315 L4.803536781624663 -3.3886809050984676 L4.902836399172836 -3.4689574094741986 L4.999365452435817 -3.5596449547941194 L5.099918196166283 -3.608874445226939 L5.2206556630182845 -3.6543965035960606 L5.300129545918933 -3.6789665348677976 L5.389335414933893 -3.7024590939724544 L5.489205856590748 -3.7243643943188265 L5.601112571714253 -3.744053995895965 L5.725145290970482 -3.7605519640710345 L5.859165326424234 -3.772698379055499 L6.0056105890625595 -3.7798073909975436 L6.161938140547794 -3.7808285406590962 L6.329604833948755 -3.774901549517887 L6.487708182099379 -3.762875618387538 A7.5 7.5 0 0 1 6.782224228627491 -3.201722175353891 Z" id="SvgjsPath1532">
        </path>
      </g>
    </g>
  </g>
</svg>
