0
SECTION
2
HEADER
9
$INSUNITS
70
4
9
$ACADVER
1
AC1014
9
$HANDSEED
5
FFFF
0
ENDSEC
0
SECTION
2
TABLES
0
TABLE
2
VPORT
5
8
100
AcDbSymbolTable
0
ENDTAB
0
TABLE
2
LTYPE
5
5
100
AcDbSymbolTable
0
LTYPE
5
14
100
AcDbSymbolTableRecord
100
AcDbLinetypeTableRecord
2
BYBLOCK
70
0
0
LTYPE
5
15
100
AcDbSymbolTableRecord
100
AcDbLinetypeTableRecord
2
BYLAYER
70
0
0
ENDTAB
0
TABLE
2
LAYER
5
2
100
AcDbSymbolTable
70
2
0
LAYER
5
50
100
AcDbSymbolTableRecord
100
AcDbLayerTableRecord
2
0
70
0
6
CONTINUOUS
0
ENDTAB
0
TABLE
2
STYLE
5
3
100
AcDbSymbolTable
70
1
0
STYLE
5
11
100
AcDbSymbolTableRecord
100
AcDbTextStyleTableRecord
2
STANDARD
70
0
0
ENDTAB
0
TABLE
2
VIEW
5
6
100
AcDbSymbolTable
70
0
0
ENDTAB
0
TABLE
2
UCS
5
7
100
AcDbSymbolTable
70
0
0
ENDTAB
0
TABLE
2
APPID
5
9
100
AcDbSymbolTable
70
2
0
APPID
5
12
100
AcDbSymbolTableRecord
100
AcDbRegAppTableRecord
2
ACAD
70
0
0
ENDTAB
0
TABLE
2
DIMSTYLE
5
A
100
AcDbSymbolTable
70
1
0
ENDTAB
0
TABLE
2
BLOCK_RECORD
5
1
100
AcDbSymbolTable
70
1
0
BLOCK_RECORD
5
1F
100
AcDbSymbolTableRecord
100
AcDbBlockTableRecord
2
*MODEL_SPACE
0
BLOCK_RECORD
5
1B
100
AcDbSymbolTableRecord
100
AcDbBlockTableRecord
2
*PAPER_SPACE
0
ENDTAB
0
ENDSEC
0
SECTION
2
BLOCKS
0
BLOCK
5
20
100
AcDbEntity
100
AcDbBlockBegin
2
*MODEL_SPACE
0
ENDBLK
5
21
100
AcDbEntity
100
AcDbBlockEnd
0
BLOCK
5
1C
100
AcDbEntity
100
AcDbBlockBegin
2
*PAPER_SPACE
0
ENDBLK
5
1D
100
AcDbEntity
100
AcDbBlockEnd
0
ENDSEC
0
SECTION
2
ENTITIES
0
CIRCLE
5
100
100
AcDbEntity
8
0
100
AcDbCircle
10
-30.902372697980507
20
-30.902418855447603
30
0
40
3.25
210
0
220
-0
230
1
0
CIRCLE
5
101
100
AcDbEntity
8
0
100
AcDbCircle
10
31.430896423742048
20
-31.430896423742034
30
0
40
2.1589999999999998
210
0
220
-0
230
1
0
CIRCLE
5
102
100
AcDbEntity
8
0
100
AcDbCircle
10
31.430896423742038
20
31.430896423742034
30
0
40
2.1589999999999998
210
0
220
-0
230
1
0
CIRCLE
5
103
100
AcDbEntity
8
0
100
AcDbCircle
10
36.960000000000001
20
18.760000000000005
30
0
40
1.0000000000000009
210
0
220
-0
230
1
0
CIRCLE
5
104
100
AcDbEntity
8
0
100
AcDbCircle
10
18.760000000000005
20
-36.960000000000001
30
0
40
1.0000000000000009
210
0
220
-0
230
1
0
CIRCLE
5
105
100
AcDbEntity
8
0
100
AcDbCircle
10
-18.760000000000002
20
36.960000000000001
30
0
40
1.0000000000000009
210
0
220
-0
230
1
0
CIRCLE
5
106
100
AcDbEntity
8
0
100
AcDbCircle
10
-36.960000000000001
20
18.760000000000005
30
0
40
1.0000000000000009
210
0
220
-0
230
1
0
CIRCLE
5
107
100
AcDbEntity
8
0
100
AcDbCircle
10
36.960000000000001
20
-18.760000000000005
30
0
40
1.0000000000000009
210
0
220
-0
230
1
0
CIRCLE
5
108
100
AcDbEntity
8
0
100
AcDbCircle
10
18.760000000000005
20
36.960000000000001
30
0
40
1.0000000000000009
210
0
220
-0
230
1
0
CIRCLE
5
109
100
AcDbEntity
8
0
100
AcDbCircle
10
-2.1744591058444515e-15
20
0
30
0
40
5.5
210
0
220
-0
230
1
0
LWPOLYLINE
5
110
100
AcDbEntity
8
0
100
AcDbPolyline
90
4
70
1
43
0.0
10
20.421937652119396
20
4.8933079335912772
10
29.174196645884862
20
6.9904399051304065
42
-0.11813324559289193
10
29.174196645884862
20
-6.9904399051303905
10
20.421937652119404
20
-4.8933079335912781
42
0.11813324559289204
0
CIRCLE
5
111
100
AcDbEntity
8
0
100
AcDbCircle
10
-31.430896423742041
20
31.430896423746987
30
0
40
2.1589999999999998
210
0
220
-0
230
1
0
ARC
5
112
100
AcDbEntity
8
0
100
AcDbCircle
10
-36.38550000000081
20
20.536083579329269
30
0
40
5.0799999999991909
210
0
220
0
230
1
100
AcDbArc
50
158.61426128811604
51
173.87147365891536
0
SPLINE
5
113
100
AcDbEntity
8
0
100
AcDbSpline
70
0
71
3
72
8
73
4
74
0
42
0.000000001
43
0.0000000001
44
0.0000000001
40
1.1471287715189233
40
1.1471287715189233
40
1.1471287715189233
40
1.1471287715189233
40
1.2065754413030467
40
1.2065754413030467
40
1.2065754413030467
40
1.2065754413030467
10
-41.436467364599082
20
21.078419897267601
30
0
10
-41.456172658109864
20
20.894897623098135
30
0
10
-41.465500000000006
20
20.713319305560205
30
0
10
-41.465500000000006
20
20.536083579329162
30
0
0
LINE
5
114
100
AcDbEntity
8
0
100
AcDbLine
10
-41.465499999999992
20
20.536083579329162
30
0
11
-41.465500000000013
21
-28.901799786779318
31
0
0
ARC
5
115
100
AcDbEntity
8
0
100
AcDbCircle
10
-28.901799786779332
20
-28.901799786779321
30
0
40
12.563700213220681
210
0
220
0
230
1
100
AcDbArc
50
180
51
270.00000000000006
0
LINE
5
116
100
AcDbEntity
8
0
100
AcDbLine
10
-28.901799786779318
20
-41.465500000000006
30
0
11
21.366462724709557
21
-41.465500000000006
31
0
0
SPLINE
5
117
100
AcDbEntity
8
0
100
AcDbSpline
70
0
71
3
72
8
73
4
74
0
42
0.000000001
43
0.0000000001
44
0.0000000001
40
0
40
0
40
0
40
0
40
0.058159160845002014
40
0.058159160845002014
40
0.058159160845002014
40
0.058159160845002014
10
21.366462724709557
20
-41.465500000000006
30
0
10
21.539859840927917
20
-41.465500000000006
30
0
10
21.722643965950432
20
-41.456455349389742
30
0
10
21.908799042647907
20
-41.436467364599096
30
0
0
ARC
5
118
100
AcDbEntity
8
0
100
AcDbCircle
10
21.366462724709425
20
-36.385499999999688
30
0
40
5.0800000000003287
210
0
220
0
230
1
100
AcDbArc
50
276.12852634108498
51
291.32589542015745
0
LINE
5
119
100
AcDbEntity
8
0
100
AcDbLine
10
23.213917911402365
20
-41.117656942997741
30
0
11
33.616610754161584
21
-37.056399237594164
31
0
0
ARC
5
120
100
AcDbEntity
8
0
100
AcDbCircle
10
31.769155567468715
20
-32.32424229459648
30
0
40
5.0799999999999548
210
0
220
0
230
1
100
AcDbArc
50
291.32589542015819
51
338.61426128811718
0
LINE
5
121
100
AcDbEntity
8
0
100
AcDbLine
10
36.499380332039777
20
-34.176639033051323
30
0
11
41.115724764571127
21
-22.388480317783941
31
0
0
ARC
5
122
100
AcDbEntity
8
0
100
AcDbCircle
10
36.385500000000391
20
-20.536083579329141
30
0
40
5.079999999999627
210
0
220
0
230
1
100
AcDbArc
50
338.61426128811632
51
360
0
LINE
5
123
100
AcDbEntity
8
0
100
AcDbLine
10
41.46550000000002
20
-20.536083579329162
30
0
11
41.465499999999992
21
20.536083579329166
31
0
0
ARC
5
124
100
AcDbEntity
8
0
100
AcDbCircle
10
36.385500000000164
20
20.536083579329127
30
0
40
5.0799999999998313
210
0
220
-0
230
1
100
AcDbArc
50
0
51
21.385738711882983
0
LINE
5
125
100
AcDbEntity
8
0
100
AcDbLine
10
41.115724764571112
20
22.388480317783941
30
0
11
36.49938033203977
21
34.176639033051316
31
0
0
ARC
5
126
100
AcDbEntity
8
0
100
AcDbCircle
10
31.769155567468694
20
32.324242294596466
30
0
40
5.0799999999999699
210
0
220
-0
230
1
100
AcDbArc
50
21.385738711882823
51
68.674104579841625
0
LINE
5
127
100
AcDbEntity
8
0
100
AcDbLine
10
33.616610754161577
20
37.05639923759415
30
0
11
26.525119646106031
21
40.861751564316677
31
0
0
ARC
5
128
100
AcDbEntity
8
0
100
AcDbCircle
10
24.123126321187598
20
36.38549999999988
30
0
40
5.0800000000001235
210
0
220
-0
230
1
100
AcDbArc
50
61.781628033280079
51
89.999999999999844
0
LINE
5
129
100
AcDbEntity
8
0
100
AcDbLine
10
24.123126321187613
20
41.465499999999992
30
0
11
-24.133110614813159
21
41.465499999999992
31
0
0
ARC
5
130
100
AcDbEntity
8
0
100
AcDbCircle
10
-24.133110614813202
20
36.385500000000135
30
0
40
5.079999999999858
210
0
220
-0
230
1
100
AcDbArc
50
89.999999999999517
51
118.00643755650317
0
LINE
5
131
100
AcDbEntity
8
0
100
AcDbLine
10
-26.518530099863611
20
40.870605782514133
30
0
11
-34.154575052519121
21
36.809348077110549
31
0
0
ARC
5
132
100
AcDbEntity
8
0
100
AcDbCircle
10
-31.769155567468669
20
32.324242294596409
30
0
40
5.0800000000000098
210
0
220
0
230
1
100
AcDbArc
50
118.00643755650285
51
158.61426128811661
0
LINE
5
133
100
AcDbEntity
8
0
100
AcDbLine
10
-36.49938033203977
20
34.176639033051323
30
0
11
-41.115724764571127
21
22.388480317783927
31
0
0
CIRCLE
5
134
100
AcDbEntity
8
0
100
AcDbCircle
10
-30.902372697980507
20
-30.902418855447603
30
0
40
3.25
210
0
220
-0
230
1
0
CIRCLE
5
135
100
AcDbEntity
8
0
100
AcDbCircle
10
-2.1744591058444515e-15
20
0
30
0
40
5.5
210
0
220
-0
230
1
0
LINE
5
136
100
AcDbEntity
8
0
100
AcDbLine
10
-28.901799786779321
20
-41.465500000000006
30
0
11
-17.85324274809733
21
-41.465500000000006
31
0
0
ARC
5
137
100
AcDbEntity
8
0
100
AcDbCircle
10
-28.901799786779328
20
-28.901799786779318
30
0
40
12.563700213220685
210
0
220
0
230
1
100
AcDbArc
50
180
51
270
0
LINE
5
138
100
AcDbEntity
8
0
100
AcDbLine
10
-41.46550000000002
20
-17.85324274809739
30
0
11
-41.465500000000013
21
-28.901799786779318
31
0
0
LINE
5
139
100
AcDbEntity
8
0
100
AcDbLine
10
21.366462724709564
20
-41.465500000000006
30
0
11
-17.85324274809733
21
-41.465500000000006
31
0
0
LWPOLYLINE
5
140
100
AcDbEntity
8
0
100
AcDbPolyline
90
4
70
1
43
0.0
10
20.421937652119404
20
4.8933079335912772
10
29.174196645884862
20
6.990439905130426
42
-0.11813324559289216
10
29.174196645884862
20
-6.9904399051303976
10
20.421937652119411
20
-4.8933079335912897
42
0.11813324559289204
0
LINE
5
141
100
AcDbEntity
8
0
100
AcDbLine
10
-41.46550000000002
20
-17.85324274809739
30
0
11
-41.46550000000002
21
20.536083579329159
31
0
0
SPLINE
5
142
100
AcDbEntity
8
0
100
AcDbSpline
70
0
71
3
72
8
73
4
74
0
42
0.000000001
43
0.0000000001
44
0.0000000001
40
-1.2065754413030467
40
-1.2065754413030467
40
-1.2065754413030467
40
-1.2065754413030467
40
-1.1471287715189233
40
-1.1471287715189233
40
-1.1471287715189233
40
-1.1471287715189233
10
-41.465500000000006
20
20.536083579329162
30
0
10
-41.465500000000006
20
20.713319305560205
30
0
10
-41.456172658109864
20
20.894897623098135
30
0
10
-41.436467364599082
20
21.078419897267601
30
0
0
ARC
5
143
100
AcDbEntity
8
0
100
AcDbCircle
10
-36.385500000000476
20
20.536083579329201
30
0
40
5.0799999999995249
210
0
220
0
230
1
100
AcDbArc
50
158.61426128811661
51
173.87147365891505
0
LINE
5
144
100
AcDbEntity
8
0
100
AcDbLine
10
-41.115724764571127
20
22.388480317783937
30
0
11
-36.49938033203977
21
34.176639033051323
31
0
0
ARC
5
145
100
AcDbEntity
8
0
100
AcDbCircle
10
-31.769155567468683
20
32.324242294596417
30
0
40
5.0799999999999965
210
0
220
0
230
1
100
AcDbArc
50
118.00643755650273
51
158.61426128811661
0
LINE
5
146
100
AcDbEntity
8
0
100
AcDbLine
10
-34.154575052519121
20
36.809348077110549
30
0
11
-26.518530099863611
21
40.870605782514119
31
0
0
ARC
5
147
100
AcDbEntity
8
0
100
AcDbCircle
10
-24.133110614813202
20
36.385500000000135
30
0
40
5.079999999999858
210
0
220
-0
230
1
100
AcDbArc
50
89.999999999999474
51
118.00643755650324
0
LINE
5
148
100
AcDbEntity
8
0
100
AcDbLine
10
-24.133110614813155
20
41.465499999999992
30
0
11
24.123126321187613
21
41.465500000000006
31
0
0
ARC
5
149
100
AcDbEntity
8
0
100
AcDbCircle
10
24.123126321187598
20
36.38549999999988
30
0
40
5.0800000000001235
210
0
220
-0
230
1
100
AcDbArc
50
61.781628033280079
51
89.999999999999844
0
LINE
5
150
100
AcDbEntity
8
0
100
AcDbLine
10
26.525119646106031
20
40.861751564316677
30
0
11
33.616610754161577
21
37.05639923759415
31
0
0
ARC
5
151
100
AcDbEntity
8
0
100
AcDbCircle
10
31.769155567468694
20
32.324242294596466
30
0
40
5.0799999999999699
210
0
220
-0
230
1
100
AcDbArc
50
21.385738711882823
51
68.674104579841625
0
LINE
5
152
100
AcDbEntity
8
0
100
AcDbLine
10
36.49938033203977
20
34.176639033051316
30
0
11
41.115724764571112
21
22.388480317783941
31
0
0
ARC
5
153
100
AcDbEntity
8
0
100
AcDbCircle
10
36.385500000000128
20
20.536083579329123
30
0
40
5.0799999999998668
210
0
220
-0
230
1
100
AcDbArc
50
0
51
21.38573871188288
0
LINE
5
154
100
AcDbEntity
8
0
100
AcDbLine
10
41.465499999999992
20
20.536083579329166
30
0
11
41.46550000000002
21
-20.536083579329159
31
0
0
ARC
5
155
100
AcDbEntity
8
0
100
AcDbCircle
10
36.385500000000391
20
-20.536083579329141
30
0
40
5.079999999999627
210
0
220
0
230
1
100
AcDbArc
50
338.61426128811632
51
360
0
LINE
5
156
100
AcDbEntity
8
0
100
AcDbLine
10
41.115724764571127
20
-22.388480317783941
30
0
11
36.499380332039777
21
-34.176639033051323
31
0
0
ARC
5
157
100
AcDbEntity
8
0
100
AcDbCircle
10
31.769155567468697
20
-32.324242294596466
30
0
40
5.0799999999999779
210
0
220
0
230
1
100
AcDbArc
50
291.32589542015836
51
338.61426128811712
0
LINE
5
158
100
AcDbEntity
8
0
100
AcDbLine
10
33.616610754161584
20
-37.056399237594164
30
0
11
23.213917911402365
21
-41.117656942997741
31
0
0
ARC
5
159
100
AcDbEntity
8
0
100
AcDbCircle
10
21.366462724709425
20
-36.385499999999688
30
0
40
5.0800000000003287
210
0
220
0
230
1
100
AcDbArc
50
276.12852634108498
51
291.32589542015745
0
SPLINE
5
160
100
AcDbEntity
8
0
100
AcDbSpline
70
0
71
3
72
8
73
4
74
0
42
0.000000001
43
0.0000000001
44
0.0000000001
40
-0.058159160845002014
40
-0.058159160845002014
40
-0.058159160845002014
40
-0.058159160845002014
40
0
40
0
40
0
40
0
10
21.908799042647907
20
-41.436467364599096
30
0
10
21.722643965950432
20
-41.456455349389742
30
0
10
21.539859840927917
20
-41.465500000000006
30
0
10
21.366462724709557
20
-41.465500000000006
30
0
0
CIRCLE
5
161
100
AcDbEntity
8
0
100
AcDbCircle
10
-31.430896423742041
20
31.430896423746987
30
0
40
2.1589999999999998
210
0
220
-0
230
1
0
CIRCLE
5
162
100
AcDbEntity
8
0
100
AcDbCircle
10
18.760000000000005
20
36.960000000000001
30
0
40
1.0000000000000009
210
0
220
-0
230
1
0
CIRCLE
5
163
100
AcDbEntity
8
0
100
AcDbCircle
10
36.960000000000001
20
-18.760000000000005
30
0
40
1.0000000000000009
210
0
220
-0
230
1
0
CIRCLE
5
164
100
AcDbEntity
8
0
100
AcDbCircle
10
-36.960000000000001
20
18.760000000000005
30
0
40
1.0000000000000009
210
0
220
-0
230
1
0
CIRCLE
5
165
100
AcDbEntity
8
0
100
AcDbCircle
10
-18.760000000000002
20
36.960000000000001
30
0
40
1.0000000000000009
210
0
220
-0
230
1
0
CIRCLE
5
166
100
AcDbEntity
8
0
100
AcDbCircle
10
18.760000000000005
20
-36.960000000000001
30
0
40
1.0000000000000009
210
0
220
-0
230
1
0
CIRCLE
5
167
100
AcDbEntity
8
0
100
AcDbCircle
10
36.960000000000001
20
18.760000000000005
30
0
40
1.0000000000000009
210
0
220
-0
230
1
0
CIRCLE
5
168
100
AcDbEntity
8
0
100
AcDbCircle
10
31.430896423742038
20
31.430896423742034
30
0
40
2.1589999999999998
210
0
220
-0
230
1
0
CIRCLE
5
169
100
AcDbEntity
8
0
100
AcDbCircle
10
31.430896423742048
20
-31.430896423742034
30
0
40
2.1589999999999998
210
0
220
-0
230
1
0
ENDSEC
0
SECTION
2
OBJECTS
0
DICTIONARY
5
C
100
AcDbDictionary
3
ACAD_GROUP
350
D
3
ACAD_MLINESTYLE
350
17
0
DICTIONARY
5
D
100
AcDbDictionary
0
DICTIONARY
5
1A
330
C
100
AcDbDictionary
0
DICTIONARY
5
17
100
AcDbDictionary
0
ENDSEC
0
EOF
