0
SECTION
2
HEADER
9
$INSUNITS
70
1
9
$ACADVER
1
AC1014
9
$HANDSEED
5
FFFF
0
ENDSEC
0
SECTION
2
TABLES
0
TABLE
2
VPORT
5
8
100
AcDbSymbolTable
0
ENDTAB
0
TABLE
2
LTYPE
5
5
100
AcDbSymbolTable
0
LTYPE
5
14
100
AcDbSymbolTableRecord
100
AcDbLinetypeTableRecord
2
BYBLOCK
70
0
0
LTYPE
5
15
100
AcDbSymbolTableRecord
100
AcDbLinetypeTableRecord
2
BYLAYER
70
0
0
ENDTAB
0
TABLE
2
LAYER
5
2
100
AcDbSymbolTable
70
2
0
LAYER
5
50
100
AcDbSymbolTableRecord
100
AcDbLayerTableRecord
2
0
70
0
6
CONTINUOUS
0
ENDTAB
0
TABLE
2
STYLE
5
3
100
AcDbSymbolTable
70
1
0
STYLE
5
11
100
AcDbSymbolTableRecord
100
AcDbTextStyleTableRecord
2
STANDARD
70
0
0
ENDTAB
0
TABLE
2
VIEW
5
6
100
AcDbSymbolTable
70
0
0
ENDTAB
0
TABLE
2
UCS
5
7
100
AcDbSymbolTable
70
0
0
ENDTAB
0
TABLE
2
APPID
5
9
100
AcDbSymbolTable
70
2
0
APPID
5
12
100
AcDbSymbolTableRecord
100
AcDbRegAppTableRecord
2
ACAD
70
0
0
ENDTAB
0
TABLE
2
DIMSTYLE
5
A
100
AcDbSymbolTable
70
1
0
ENDTAB
0
TABLE
2
BLOCK_RECORD
5
1
100
AcDbSymbolTable
70
1
0
BLOCK_RECORD
5
1F
100
AcDbSymbolTableRecord
100
AcDbBlockTableRecord
2
*MODEL_SPACE
0
BLOCK_RECORD
5
1B
100
AcDbSymbolTableRecord
100
AcDbBlockTableRecord
2
*PAPER_SPACE
0
ENDTAB
0
ENDSEC
0
SECTION
2
BLOCKS
0
BLOCK
5
20
100
AcDbEntity
100
AcDbBlockBegin
2
*MODEL_SPACE
0
ENDBLK
5
21
100
AcDbEntity
100
AcDbBlockEnd
0
BLOCK
5
1C
100
AcDbEntity
100
AcDbBlockBegin
2
*PAPER_SPACE
0
ENDBLK
5
1D
100
AcDbEntity
100
AcDbBlockEnd
0
ENDSEC
0
SECTION
2
ENTITIES
0
SPLINE
5
100
100
AcDbEntity
8
0
100
AcDbSpline
70
0
71
3
72
10
73
6
74
0
42
0.000000001
43
0.0000000001
44
0.0000000001
40
-44.238093566786965
40
-44.238093566786965
40
-44.238093566786965
40
-44.238093566786965
40
-32.434565743994135
40
-32.434565743994135
40
-0
40
-0
40
-0
40
-0
10
4.7687795630221155
20
-24
30
0
10
4.5259428477014643
20
-22.333500844495671
30
0
10
4.2286277027388168
20
-20.285751443591096
30
0
10
2.9682440383683999
20
-12.01049793882383
30
0
10
2.0298321238227879
20
-6.5374951609671754
30
0
10
1.030349269600034
20
-2.4000000000000012
30
0
0
SPLINE
5
101
100
AcDbEntity
8
0
100
AcDbSpline
70
0
71
3
72
10
73
6
74
0
42
0.000000001
43
0.0000000001
44
0.0000000001
40
-6.7073172848778473
40
-6.7073172848778473
40
-6.7073172848778473
40
-6.7073172848778473
40
-3.3245659254520117
40
-3.3245659254520117
40
-0.16821445518602224
40
-0.16821445518602224
40
-0.16821445518602224
40
-0.16821445518602224
10
1.030349269600034
20
-2.3999999999999955
30
2.7974123455122052e-15
10
0.87176700979664024
20
-1.9866148892584634
30
2.7974123455122052e-15
10
0.71661978324787345
20
-1.5756697514485205
30
-5.0353422219219697e-14
10
0.41800526090330042
20
-0.77279979773143981
30
-5.0353422219219697e-14
10
0.2772205880087748
20
-0.38890142882222689
30
4.1163922664212098e-12
10
0.13619233097615879
20
-8.3922370365366157e-15
30
4.1163922664212098e-12
0
LINE
5
102
100
AcDbEntity
8
0
100
AcDbLine
10
0.13619233097615882
20
-5.7159756555894213e-15
30
4.1149935602484524e-12
11
-33.398072999849248
21
-2.7974123455122052e-15
31
2.7974123455122052e-14
0
SPLINE
5
103
100
AcDbEntity
8
0
100
AcDbSpline
70
0
71
3
72
10
73
6
74
0
42
0.000000001
43
0.0000000001
44
0.0000000001
40
-7.3035911522121859
40
-7.3035911522121859
40
-7.3035911522121859
40
-7.3035911522121859
40
-4.5154207130291084
40
-4.5154207130291084
40
-0
40
-0
40
-0
40
-0
10
-33.398072999849262
20
-2.7974123455122052e-15
30
2.9372829627878156e-14
10
-33.614586636646258
20
-0.29489147094892193
30
2.9372829627878156e-14
10
-33.824827644651741
20
-0.59425388305451254
30
1.3287708641182976e-12
10
-34.36099967363419
20
-1.3892217072778286
30
1.3273721579455414e-12
10
-34.677659245651782
20
-1.8911535477912023
30
-1.3987061727561026e-15
10
-34.981337193979897
20
-2.3999999999999986
30
-2.7974123455122052e-15
0
SPLINE
5
104
100
AcDbEntity
8
0
100
AcDbSpline
70
0
71
3
72
10
73
6
74
0
42
0.000000001
43
0.0000000001
44
0.0000000001
40
-66.154540055491452
40
-66.154540055491452
40
-66.154540055491452
40
-66.154540055491452
40
-32.101621676115045
40
-32.101621676115045
40
-24.324027826474083
40
-24.324027826474083
40
-24.324027826474083
40
-24.324027826474083
10
-34.981337193979897
20
-2.3999999999999955
30
-2.7974123455122052e-15
10
-36.257998178823044
20
-5.4072416745062952
30
-2.7974123455122052e-15
10
-37.102845352831416
20
-8.8190454699475254
30
-2.7974123455122052e-15
10
-37.956195959702193
20
-13.364823702800466
30
-2.7974123455122052e-15
10
-38.107289877730594
20
-14.226659140095544
30
-1.8309063801377382e-12
10
-38.254399450667918
20
-15.106653246412433
30
-1.8309063801377382e-12
0
LINE
5
105
100
AcDbEntity
8
0
100
AcDbLine
10
-38.254399450667918
20
-15.106653246412437
30
-1.8309063801377382e-12
11
-38.25439945066713
21
-24
31
-1.3899277210863478e-15
0
LINE
5
106
100
AcDbEntity
8
0
100
AcDbLine
10
-38.25439945066713
20
-24
30
-1.3899277210863478e-15
11
4.7687795630221155
21
-24
31
0
0
SPLINE
5
107
100
AcDbEntity
8
0
100
AcDbSpline
70
0
71
3
72
11
73
7
74
0
42
0.000000001
43
0.0000000001
44
0.0000000001
40
-7.3035911522121859
40
-7.3035911522121859
40
-7.3035911522121859
40
-7.3035911522121859
40
-4.5154207130291084
40
-4.5154207130291084
40
-4.5154207130291084
40
-0.065884641749302933
40
-0.065884641749302933
40
-0.065884641749302933
40
-0.065884641749302933
10
-33.095798215741489
20
-0.22193457345037659
30
2.9372829627878156e-14
10
-33.309196872475518
20
-0.5125834430263051
30
2.9372829627878156e-14
10
-33.516569707931261
20
-0.80785236192602961
30
1.3287708641182976e-12
10
-33.718616677224723
20
-1.1074219606515898
30
1.3282369033416457e-12
10
-34.041052990287987
20
-1.5854895963933255
30
1.3273847754720682e-12
10
-34.349684718850163
20
-2.0741781882109827
30
3.7094856183000129e-14
10
-34.646161311464517
20
-2.5701408874342677
30
-1.8966496936658779e-15
0
SPLINE
5
108
100
AcDbEntity
8
0
100
AcDbSpline
70
0
71
3
72
11
73
7
74
0
42
0.000000001
43
0.0000000001
44
0.0000000001
40
-66.064316462493352
40
-66.064316462493352
40
-66.064316462493352
40
-66.064316462493352
40
-32.101621676115045
40
-32.101621676115045
40
-32.101621676115045
40
-24.414649013013079
40
-24.414649013013079
40
-24.414649013013079
40
-24.414649013013079
10
-34.646161311464539
20
-2.5701408874342575
30
-2.7974123455122052e-15
10
-35.900662040175035
20
-5.5325937836463117
30
-2.7974123455122052e-15
10
-36.738577919553705
20
-8.911111050151602
30
-2.7974123455122052e-15
10
-37.428969405195417
20
-12.588809949418192
30
-2.7974123455122052e-15
10
-37.585228025021777
20
-13.421195872605155
30
-2.7974123455122052e-15
10
-37.734230233884652
20
-14.270379549421541
30
-1.788553881055922e-12
10
-37.879399450667925
20
-15.137798939589654
30
-1.8301676162534123e-12
0
LINE
5
109
100
AcDbEntity
8
0
100
AcDbLine
10
-37.879399450667925
20
-15.137798939589624
30
-1.8301664857807492e-12
11
-37.87939945066713
21
-24.000000000000082
31
-1.3899277210863478e-15
0
LINE
5
110
100
AcDbEntity
8
0
100
AcDbLine
10
-31.886699079310397
20
-1.1096728672518719
30
2.9372829627878156e-14
11
-31.071961008485438
21
-2.9998591576355823e-15
31
6.9935308637805126e-14
0
LINE
5
111
100
AcDbEntity
8
0
100
AcDbLine
10
-33.095798215741489
20
-0.22193457345037659
30
2.9372829627878156e-14
11
-32.932850601576497
21
-2.8379017079368798e-15
31
6.9935308637805126e-14
0
LINE
5
112
100
AcDbEntity
8
0
100
AcDbLine
10
-31.071961008485438
20
-2.9998591576355823e-15
30
6.9935308637805126e-14
11
-32.932850601576497
21
-2.8379017079368798e-15
31
6.9935308637805126e-14
0
LINE
5
113
100
AcDbEntity
8
0
100
AcDbLine
10
-36.379399450667123
20
-24.00000000000038
30
-1.3899277210863478e-15
11
-37.87939945066713
21
-24.000000000000082
31
-1.3899277210863478e-15
0
SPLINE
5
114
100
AcDbEntity
8
0
100
AcDbSpline
70
0
71
3
72
11
73
7
74
0
42
0.000000001
43
0.0000000001
44
0.0000000001
40
-7.3035911522121859
40
-7.3035911522121859
40
-7.3035911522121859
40
-7.3035911522121859
40
-4.5154207130291084
40
-4.5154207130291084
40
-4.5154207130291084
40
-0.34503337730240363
40
-0.34503337730240363
40
-0.34503337730240363
40
-0.34503337730240363
10
-31.886699079310397
20
-1.1096728672518719
30
2.9372829627878156e-14
10
-32.08763781579254
20
-1.3833513313358379
30
2.9372829627878156e-14
10
-32.283537961049362
20
-1.6622462774120985
30
1.3287708641182976e-12
10
-32.475030919932863
20
-1.9461677292017634
30
1.3282369033416457e-12
10
-32.761441988935594
20
-2.3708217060059571
30
1.327438235071791e-12
10
-33.037810730571451
20
-2.8064842885063261
30
1.9391641799892338e-13
10
-33.3051086286968
20
-3.25050708331674
30
1.9589447084969489e-14
0
SPLINE
5
115
100
AcDbEntity
8
0
100
AcDbSpline
70
0
71
3
72
14
73
10
74
0
42
0.000000001
43
0.0000000001
44
0.0000000001
40
-65.680026522869312
40
-65.680026522869312
40
-65.680026522869312
40
-65.680026522869312
40
-43.338511981922359
40
-43.338511981922359
40
-43.338511981922359
40
-32.101621676115045
40
-32.101621676115045
40
-32.101621676115045
40
-24.780608222118367
40
-24.780608222118367
40
-24.780608222118367
40
-24.780608222118367
10
-33.305108628696807
20
-3.2505070833167307
30
-2.7974123455122052e-15
10
-34.081567685474404
20
-5.1037303976814412
30
-2.7974123455122052e-15
10
-34.701085461580853
20
-7.1595970530944291
30
-2.7974123455122052e-15
10
-35.225676753381109
20
-9.3849417501839287
30
-2.7974123455122052e-15
10
-35.489525240041999
20
-10.504201333412919
30
-2.7974123455122052e-15
10
-35.729545992090493
20
-11.666060024741777
30
-2.7974123455122052e-15
10
-35.954720912156127
20
-12.865561427772613
30
-2.7974123455122052e-15
10
-36.101418022998537
20
-13.647013421737
30
-2.7974123455122052e-15
10
-36.242037064951283
20
-14.445694665212438
30
-1.6225698315567117e-12
10
-36.379399450667918
20
-15.262729533684702
30
-1.8127458266604463e-12
0
LINE
5
116
100
AcDbEntity
8
0
100
AcDbLine
10
-36.379399450667904
20
-15.262729533684649
30
-1.8127180369841152e-12
11
-36.379399450667123
21
-24.00000000000038
31
-1.3899277210863478e-15
0
ENDSEC
0
SECTION
2
OBJECTS
0
DICTIONARY
5
C
100
AcDbDictionary
3
ACAD_GROUP
350
D
3
ACAD_MLINESTYLE
350
17
0
DICTIONARY
5
D
100
AcDbDictionary
0
DICTIONARY
5
1A
330
C
100
AcDbDictionary
0
DICTIONARY
5
17
100
AcDbDictionary
0
ENDSEC
0
EOF
