0
SECTION
2
HEADER
9
$INSUNITS
70
1
9
$ACADVER
1
AC1014
9
$HANDSEED
5
FFFF
0
ENDSEC
0
SECTION
2
TABLES
0
TABLE
2
VPORT
5
8
100
AcDbSymbolTable
0
ENDTAB
0
TABLE
2
LTYPE
5
5
100
AcDbSymbolTable
0
LTYPE
5
14
100
AcDbSymbolTableRecord
100
AcDbLinetypeTableRecord
2
BYBLOCK
70
0
0
LTYPE
5
15
100
AcDbSymbolTableRecord
100
AcDbLinetypeTableRecord
2
BYLAYER
70
0
0
ENDTAB
0
TABLE
2
LAYER
5
2
100
AcDbSymbolTable
70
2
0
LAYER
5
50
100
AcDbSymbolTableRecord
100
AcDbLayerTableRecord
2
0
70
0
6
CONTINUOUS
0
ENDTAB
0
TABLE
2
STYLE
5
3
100
AcDbSymbolTable
70
1
0
STYLE
5
11
100
AcDbSymbolTableRecord
100
AcDbTextStyleTableRecord
2
STANDARD
70
0
0
ENDTAB
0
TABLE
2
VIEW
5
6
100
AcDbSymbolTable
70
0
0
ENDTAB
0
TABLE
2
UCS
5
7
100
AcDbSymbolTable
70
0
0
ENDTAB
0
TABLE
2
APPID
5
9
100
AcDbSymbolTable
70
2
0
APPID
5
12
100
AcDbSymbolTableRecord
100
AcDbRegAppTableRecord
2
ACAD
70
0
0
ENDTAB
0
TABLE
2
DIMSTYLE
5
A
100
AcDbSymbolTable
70
1
0
ENDTAB
0
TABLE
2
BLOCK_RECORD
5
1
100
AcDbSymbolTable
70
1
0
BLOCK_RECORD
5
1F
100
AcDbSymbolTableRecord
100
AcDbBlockTableRecord
2
*MODEL_SPACE
0
BLOCK_RECORD
5
1B
100
AcDbSymbolTableRecord
100
AcDbBlockTableRecord
2
*PAPER_SPACE
0
ENDTAB
0
ENDSEC
0
SECTION
2
BLOCKS
0
BLOCK
5
20
100
AcDbEntity
100
AcDbBlockBegin
2
*MODEL_SPACE
0
ENDBLK
5
21
100
AcDbEntity
100
AcDbBlockEnd
0
BLOCK
5
1C
100
AcDbEntity
100
AcDbBlockBegin
2
*PAPER_SPACE
0
ENDBLK
5
1D
100
AcDbEntity
100
AcDbBlockEnd
0
ENDSEC
0
SECTION
2
ENTITIES
0
SPLINE
5
100
100
AcDbEntity
8
0
100
AcDbSpline
70
0
71
3
72
10
73
6
74
0
42
0.000000001
43
0.0000000001
44
0.0000000001
40
-54.089156052784539
40
-54.089156052784539
40
-54.089156052784539
40
-54.089156052784539
40
-26.927727951326844
40
-26.927727951326844
40
-0
40
-0
40
-0
40
-0
10
-9.9327774449518884
20
24
30
2.0630916048152513e-14
10
-9.7005703694044332
20
20.515916362269909
30
2.0630916048152513e-14
10
-9.4314886679509744
20
16.792774493190912
30
-3.4967654318902565e-16
10
-8.8674687852163991
20
9.8874829568698903
30
-3.4967654318902565e-16
10
-8.5082722043138421
20
5.9086169784069069
30
1.7483827159451283e-15
10
-8.0869542420479323
20
2.3999999999999955
30
1.7483827159451283e-15
0
SPLINE
5
101
100
AcDbEntity
8
0
100
AcDbSpline
70
0
71
3
72
10
73
6
74
0
42
0.000000001
43
0.0000000001
44
0.0000000001
40
-6.5470502972349163
40
-6.5470502972349163
40
-6.5470502972349163
40
-6.5470502972349163
40
-3.2575749964236826
40
-3.2575749964236826
40
-0.24347451728948177
40
-0.24347451728948177
40
-0.24347451728948177
40
-0.24347451728948177
10
-8.0869542420479359
20
2.4000000000000012
30
1.7483827159451283e-15
10
-7.9806374893755736
20
1.9813753840960093
30
1.7483827159451283e-15
10
-7.872091098911481
20
1.5632534802613343
30
-2.1015560245660441e-13
10
-7.6594729084717414
20
0.76359839463857004
30
-2.1015560245660441e-13
10
-7.5555896193657022
20
0.38119272069713767
30
4.1296799750623929e-13
10
-7.449589474791769
20
-8.3922370365366157e-15
30
4.1296799750623929e-13
0
LINE
5
102
100
AcDbEntity
8
0
100
AcDbLine
10
-7.4495894747915035
20
-2.7617423055611927e-15
30
-8.5006367649252172e-13
11
27.485878377249371
21
0
31
2.0980592591341539e-15
0
SPLINE
5
103
100
AcDbEntity
8
0
100
AcDbSpline
70
0
71
3
72
10
73
6
74
0
42
0.000000001
43
0.0000000001
44
0.0000000001
40
-6.3068493699368533
40
-6.3068493699368533
40
-6.3068493699368533
40
-6.3068493699368533
40
-3.2936537518916511
40
-3.2936537518916511
40
-0
40
-0
40
-0
40
-0
10
27.485878377249364
20
0
30
2.0980592591341539e-15
10
27.59179210787519
20
0.38088196293242821
30
2.0980592591341539e-15
10
27.695592177207327
20
0.76297399500048479
30
6.119339505807949e-14
10
27.908217155069707
20
1.5626261954408827
30
6.119339505807949e-14
10
28.016846665712944
20
1.9810614606958441
30
1.7483827159451283e-15
10
28.123243144505622
20
2.4000000000000012
30
1.7483827159451283e-15
0
SPLINE
5
104
100
AcDbEntity
8
0
100
AcDbSpline
70
0
71
3
72
10
73
6
74
0
42
0.000000001
43
0.0000000001
44
0.0000000001
40
-54.112495057192532
40
-54.112495057192532
40
-54.112495057192532
40
-54.112495057192532
40
-27.887167352122621
40
-27.887167352122621
40
-1.6032354370008712
40
-1.6032354370008712
40
-1.6032354370008712
40
-1.6032354370008712
10
28.123243144505615
20
2.3999999999999955
30
1.7483827159451283e-15
10
28.545933057247726
20
5.9200421944325061
30
1.7483827159451283e-15
10
28.906233627901262
20
9.9147447868132019
30
-3.4967654318902565e-15
10
29.469652800816473
20
16.818824448980454
30
-3.4967654318902565e-15
10
29.737631533485839
20
20.527503537557067
30
1.7483827159451283e-15
10
29.969066347409576
20
24
30
1.7483827159451283e-15
0
LINE
5
105
100
AcDbEntity
8
0
100
AcDbLine
10
29.969066347409576
20
24
30
-3.1470888887012311e-15
11
-9.9327774449518937
21
23.999999999999996
31
3.1470888887012311e-15
0
SPLINE
5
106
100
AcDbEntity
8
0
100
AcDbSpline
70
0
71
3
72
11
73
7
74
0
42
0.000000001
43
0.0000000001
44
0.0000000001
40
-6.3068493699368533
40
-6.3068493699368533
40
-6.3068493699368533
40
-6.3068493699368533
40
-3.2936537518916511
40
-3.2936537518916511
40
-3.2936537518916511
40
-0.061795837610470097
40
-0.061795837610470097
40
-0.061795837610470097
40
-0.061795837610470097
10
27.124586861810748
20
0.10046611803024685
30
2.0980592591341539e-15
10
27.230100662575932
20
0.4799098720594856
30
2.0980592591341539e-15
10
27.333530689047201
20
0.86063817253240715
30
6.119339505807949e-14
10
27.434769606686668
20
1.241383295116276
30
6.119339505807949e-14
10
27.543355409253383
20
1.6497590035208809
30
6.119339505807949e-14
10
27.649646851567251
20
2.0590009804417098
30
3.9580828043058104e-15
10
27.753808821122853
20
2.4687995102824543
30
1.8103743091728173e-15
0
SPLINE
5
107
100
AcDbEntity
8
0
100
AcDbSpline
70
0
71
3
72
11
73
7
74
0
42
0.000000001
43
0.0000000001
44
0.0000000001
40
-54.052545710956998
40
-54.052545710956998
40
-54.052545710956998
40
-54.052545710956998
40
-27.887167352122621
40
-27.887167352122621
40
-27.887167352122621
40
-1.6032354370008712
40
-1.6032354370008712
40
-1.6032354370008712
40
-1.6032354370008712
10
27.753808821122863
20
2.4687995102824511
30
1.74830061583892e-15
10
28.174257483617218
20
5.9746970086764506
30
1.7244300385952731e-15
10
28.533319867423334
20
9.955585213754544
30
-3.4967654318902565e-15
10
28.813871288314097
20
13.393433005021572
30
-3.4967654318902565e-15
10
29.09569261332117
20
16.846842068612638
30
-3.4967654318902565e-15
10
29.363560791120392
20
20.553928960398437
30
1.7483827159451283e-15
10
29.594896448772989
20
24.024937661363637
30
1.7483827159451283e-15
0
SPLINE
5
108
100
AcDbEntity
8
0
100
AcDbSpline
70
0
71
3
72
11
73
7
74
0
42
0.000000001
43
0.0000000001
44
0.0000000001
40
-6.3068493699368533
40
-6.3068493699368533
40
-6.3068493699368533
40
-6.3068493699368533
40
-3.2936537518916511
40
-3.2936537518916511
40
-3.2936537518916511
40
-0.31261714055524681
40
-0.31261714055524681
40
-0.31261714055524681
40
-0.31261714055524681
10
25.679420800056278
20
0.50233059015123427
30
2.0980592591341539e-15
10
25.783334881378895
20
0.87602150856771543
30
2.0980592591341539e-15
10
25.885284736406675
20
1.2512948826600971
30
6.119339505807949e-14
10
25.985139731566736
20
1.6268352702828142
30
6.119339505807949e-14
10
26.083929717069353
20
1.9983703085593245
30
6.119339505807949e-14
10
26.180858202194976
20
2.3708728609883369
30
1.2497298100506653e-14
10
26.276045609494528
20
2.7440947565981211
30
3.2533175842551767e-15
0
SPLINE
5
109
100
AcDbEntity
8
0
100
AcDbSpline
70
0
71
3
72
14
73
10
74
0
42
0.000000001
43
0.0000000001
44
0.0000000001
40
-53.810050068291979
40
-53.810050068291979
40
-53.810050068291979
40
-53.810050068291979
40
-33.054673281328832
40
-33.054673281328832
40
-33.054673281328832
40
-27.887167352122621
40
-27.887167352122621
40
-27.887167352122621
40
-1.6032354370008712
40
-1.6032354370008712
40
-1.6032354370008712
40
-1.6032354370008712
10
26.276045609494041
20
2.7440947565982245
30
1.7463059955176066e-15
10
26.605569441297025
20
5.5061227385477141
30
1.651665882768764e-15
10
26.898389891620415
20
8.573871712092421
30
-1.6525184936439978e-15
10
27.144127998687157
20
11.429524309551963
30
-2.9660788560548057e-15
10
27.2053098860763
20
12.140501608619559
30
-3.2931184964718212e-15
10
27.263592384327545
20
12.838424033680633
30
-3.4967654318902565e-15
10
27.318841218913938
20
13.515437478666417
30
-3.4967654318902565e-15
10
27.599851863339971
20
16.95891254714137
30
-3.4967654318902565e-15
10
27.867277821658611
20
20.659630651763926
30
1.7483827159451283e-15
10
28.098216854226646
20
24.124688306818175
30
1.7483827159451283e-15
0
LINE
5
110
100
AcDbEntity
8
0
100
AcDbLine
10
25.679420800056278
20
0.50233059015123427
30
2.0980592591341539e-15
11
25.539735249181742
21
-1.5384782686250986e-16
31
3.4967654318902565e-16
0
LINE
5
111
100
AcDbEntity
8
0
100
AcDbLine
10
27.124586861810748
20
0.10046611803024685
30
2.0980592591341539e-15
11
27.096649751635844
21
-3.076956537250223e-17
31
3.4967654318902565e-16
0
LINE
5
112
100
AcDbEntity
8
0
100
AcDbLine
10
29.593234046576253
20
24
30
-2.9388457730963511e-17
11
28.089897660489928
21
24
31
-3.0368595211252917e-16
0
ENDSEC
0
SECTION
2
OBJECTS
0
DICTIONARY
5
C
100
AcDbDictionary
3
ACAD_GROUP
350
D
3
ACAD_MLINESTYLE
350
17
0
DICTIONARY
5
D
100
AcDbDictionary
0
DICTIONARY
5
1A
330
C
100
AcDbDictionary
0
DICTIONARY
5
17
100
AcDbDictionary
0
ENDSEC
0
EOF
