0
SECTION
2
HEADER
9
$INSUNITS
70
4
9
$ACADVER
1
AC1014
9
$HANDSEED
5
FFFF
0
ENDSEC
0
SECTION
2
TABLES
0
TABLE
2
VPORT
5
8
100
AcDbSymbolTable
0
ENDTAB
0
TABLE
2
LTYPE
5
5
100
AcDbSymbolTable
0
LTYPE
5
14
100
AcDbSymbolTableRecord
100
AcDbLinetypeTableRecord
2
BYBLOCK
70
0
0
LTYPE
5
15
100
AcDbSymbolTableRecord
100
AcDbLinetypeTableRecord
2
BYLAYER
70
0
0
ENDTAB
0
TABLE
2
LAYER
5
2
100
AcDbSymbolTable
70
2
0
LAYER
5
50
100
AcDbSymbolTableRecord
100
AcDbLayerTableRecord
2
0
70
0
6
CONTINUOUS
0
ENDTAB
0
TABLE
2
STYLE
5
3
100
AcDbSymbolTable
70
1
0
STYLE
5
11
100
AcDbSymbolTableRecord
100
AcDbTextStyleTableRecord
2
STANDARD
70
0
0
ENDTAB
0
TABLE
2
VIEW
5
6
100
AcDbSymbolTable
70
0
0
ENDTAB
0
TABLE
2
UCS
5
7
100
AcDbSymbolTable
70
0
0
ENDTAB
0
TABLE
2
APPID
5
9
100
AcDbSymbolTable
70
2
0
APPID
5
12
100
AcDbSymbolTableRecord
100
AcDbRegAppTableRecord
2
ACAD
70
0
0
ENDTAB
0
TABLE
2
DIMSTYLE
5
A
100
AcDbSymbolTable
70
1
0
ENDTAB
0
TABLE
2
BLOCK_RECORD
5
1
100
AcDbSymbolTable
70
1
0
BLOCK_RECORD
5
1F
100
AcDbSymbolTableRecord
100
AcDbBlockTableRecord
2
*MODEL_SPACE
0
BLOCK_RECORD
5
1B
100
AcDbSymbolTableRecord
100
AcDbBlockTableRecord
2
*PAPER_SPACE
0
ENDTAB
0
ENDSEC
0
SECTION
2
BLOCKS
0
BLOCK
5
20
100
AcDbEntity
100
AcDbBlockBegin
2
*MODEL_SPACE
0
ENDBLK
5
21
100
AcDbEntity
100
AcDbBlockEnd
0
BLOCK
5
1C
100
AcDbEntity
100
AcDbBlockBegin
2
*PAPER_SPACE
0
ENDBLK
5
1D
100
AcDbEntity
100
AcDbBlockEnd
0
ENDSEC
0
SECTION
2
ENTITIES
0
CIRCLE
5
100
100
AcDbEntity
8
0
100
AcDbCircle
10
-2.5075260132319985e-15
20
0
30
0
40
2.7000000000000002
210
0
220
0
230
1
0
LWPOLYLINE
5
101
100
AcDbEntity
8
0
100
AcDbPolyline
90
12
70
1
43
0.0
10
-15.82656918592583
20
12.072895273179265
10
-16.200254470943399
20
11.566626455052901
10
-12.284600367097031
20
5.9894089926367267
10
-10.359431003998687
20
6.4064602617884878
10
-3.6580315913616488
20
0.55570214737769574
42
0.61094740113304447
10
1.6828147569483054
20
-3.2951683559109712
10
4.2991726993553057
20
-4.5744834092523199
42
3.9343239842690978
10
5.6381596389940043
20
-2.7604239249842961
10
3.6447233856685046
20
-0.63717457730287974
42
0.61094740113304447
10
-1.6088806461810146
20
3.3318918149219927
10
-9.1744768028273569
20
8.0118361944604803
10
-9.3431973217541042
20
9.9744217911177753
0
LWPOLYLINE
5
102
100
AcDbEntity
8
0
100
AcDbPolyline
90
17
70
1
43
0.0
10
2.2267374381178811
20
-3.5611290880399449
10
1.6828147569483645
20
-3.2951683559110818
42
-0.56033084014960211
10
-3.7000000000000033
20
-3.3306690738754696e-15
42
-0.0377079110815094
10
-3.6580315913616497
20
0.55570214737769441
10
-4.0942492348587214
20
0.93654855872975951
10
-10.359431003998687
20
6.4064602617884878
10
-12.284600367097031
20
5.9894089926367267
10
-16.200254470943399
20
11.566626455052901
10
-15.82656918592583
20
12.072895273179265
10
-9.343197321754106
20
9.9744217911177753
10
-9.1744768028273569
20
8.0118361944604803
10
-2.1013518934371329
20
3.6365258448068527
10
-1.6088806461809613
20
3.3318918149218812
42
-0.61094740113305179
10
3.6447233856685033
20
-0.63717457730287974
10
4.0591449654053813
20
-1.0785833995682133
10
5.6381596389940061
20
-2.7604239249842957
42
-3.9343239842690942
10
4.2991726993553057
20
-4.5744834092523199
0
CIRCLE
5
103
100
AcDbEntity
8
0
100
AcDbCircle
10
7.9380946260698693e-14
20
-6.8868521996279242e-15
30
-2.7755575615628914e-16
40
2.7000000000000002
210
0
220
-0
230
1
0
ENDSEC
0
SECTION
2
OBJECTS
0
DICTIONARY
5
C
100
AcDbDictionary
3
ACAD_GROUP
350
D
3
ACAD_MLINESTYLE
350
17
0
DICTIONARY
5
D
100
AcDbDictionary
0
DICTIONARY
5
1A
330
C
100
AcDbDictionary
0
DICTIONARY
5
17
100
AcDbDictionary
0
ENDSEC
0
EOF
