0
SECTION
2
HEADER
9
$INSUNITS
70
1
9
$ACADVER
1
AC1014
9
$HANDSEED
5
FFFF
0
ENDSEC
0
SECTION
2
TABLES
0
TABLE
2
VPORT
5
8
100
AcDbSymbolTable
0
ENDTAB
0
TABLE
2
LTYPE
5
5
100
AcDbSymbolTable
0
LTYPE
5
14
100
AcDbSymbolTableRecord
100
AcDbLinetypeTableRecord
2
BYBLOCK
70
0
0
LTYPE
5
15
100
AcDbSymbolTableRecord
100
AcDbLinetypeTableRecord
2
BYLAYER
70
0
0
ENDTAB
0
TABLE
2
LAYER
5
2
100
AcDbSymbolTable
70
2
0
LAYER
5
50
100
AcDbSymbolTableRecord
100
AcDbLayerTableRecord
2
0
70
0
6
CONTINUOUS
0
ENDTAB
0
TABLE
2
STYLE
5
3
100
AcDbSymbolTable
70
1
0
STYLE
5
11
100
AcDbSymbolTableRecord
100
AcDbTextStyleTableRecord
2
STANDARD
70
0
0
ENDTAB
0
TABLE
2
VIEW
5
6
100
AcDbSymbolTable
70
0
0
ENDTAB
0
TABLE
2
UCS
5
7
100
AcDbSymbolTable
70
0
0
ENDTAB
0
TABLE
2
APPID
5
9
100
AcDbSymbolTable
70
2
0
APPID
5
12
100
AcDbSymbolTableRecord
100
AcDbRegAppTableRecord
2
ACAD
70
0
0
ENDTAB
0
TABLE
2
DIMSTYLE
5
A
100
AcDbSymbolTable
70
1
0
ENDTAB
0
TABLE
2
BLOCK_RECORD
5
1
100
AcDbSymbolTable
70
1
0
BLOCK_RECORD
5
1F
100
AcDbSymbolTableRecord
100
AcDbBlockTableRecord
2
*MODEL_SPACE
0
BLOCK_RECORD
5
1B
100
AcDbSymbolTableRecord
100
AcDbBlockTableRecord
2
*PAPER_SPACE
0
ENDTAB
0
ENDSEC
0
SECTION
2
BLOCKS
0
BLOCK
5
20
100
AcDbEntity
100
AcDbBlockBegin
2
*MODEL_SPACE
0
ENDBLK
5
21
100
AcDbEntity
100
AcDbBlockEnd
0
BLOCK
5
1C
100
AcDbEntity
100
AcDbBlockBegin
2
*PAPER_SPACE
0
ENDBLK
5
1D
100
AcDbEntity
100
AcDbBlockEnd
0
ENDSEC
0
SECTION
2
ENTITIES
0
SPLINE
5
100
100
AcDbEntity
8
0
100
AcDbSpline
70
4
71
5
72
14
73
8
74
0
42
0.000000001
43
0.0000000001
44
0.0000000001
40
-0.98449529677404546
40
-0.98449529677404546
40
-0.98449529677404546
40
-0.98449529677404546
40
-0.98449529677404546
40
-0.98449529677404546
40
-0.89999999999999991
40
-0.79999999999999993
40
-0.73959791058435931
40
-0.73959791058435931
40
-0.73959791058435931
40
-0.73959791058435931
40
-0.73959791058435931
40
-0.73959791058435931
41
1
41
1
41
1
41
1
41
1
41
1
41
1
41
1
10
8.399999999999995
20
16.762189771535635
30
0
10
9.7311183940076269
20
18.614770866274178
30
0
10
12.544728193004117
20
22.278762174396206
30
0
10
16.031481273546582
20
26.051618826114961
30
0
10
19.399821819387306
20
28.518911284117703
30
0
10
23.165695292614128
20
30.041352368545077
30
0
10
25.917925995405152
20
30.735333666458391
30
0
10
26.999999999999996
20
30.958887899590721
30
0
0
SPLINE
5
101
100
AcDbEntity
8
0
100
AcDbSpline
70
4
71
5
72
14
73
8
74
0
42
0.000000001
43
0.0000000001
44
0.0000000001
40
0.09233862849958932
40
0.09233862849958932
40
0.09233862849958932
40
0.09233862849958932
40
0.09233862849958932
40
0.09233862849958932
40
0.13333333333333333
40
0.20000000000000001
40
0.24238668887494266
40
0.24238668887494266
40
0.24238668887494266
40
0.24238668887494266
40
0.24238668887494266
40
0.24238668887494266
41
1
41
1
41
1
41
1
41
1
41
1
41
1
41
1
10
12.39880817283057
20
-24.898430407206359
30
0
10
12.799743995738472
20
-24.917073703364942
30
0
10
13.879577402047259
20
-24.961046364519834
30
0
10
15.483182591154398
20
-25.00400283854718
30
0
10
17.224984220896616
20
-25.021147190682573
30
0
10
19.104467422623063
20
-25.012171218061873
30
0
10
20.541576469453261
20
-24.991861696428806
30
0
10
21.11075565689487
20
-24.981890385092857
30
0
0
SPLINE
5
102
100
AcDbEntity
8
0
100
AcDbSpline
70
4
71
5
72
13
73
7
74
0
42
0.000000001
43
0.0000000001
44
0.0000000001
40
0.24238668887494266
40
0.24238668887494266
40
0.24238668887494266
40
0.24238668887494266
40
0.24238668887494266
40
0.24238668887494266
40
0.26666666666666666
40
0.32438901744980531
40
0.32438901744980531
40
0.32438901744980531
40
0.32438901744980531
40
0.32438901744980531
40
0.32438901744980531
41
1
41
1
41
1
41
1
41
1
41
1
41
1
10
21.110755656894881
20
-24.981890385092857
30
0
10
21.43679334460781
20
-24.976178610377318
30
0
10
22.549694728334782
20
-24.954585664044956
30
0
10
23.701994876507435
20
-24.925228505457699
30
0
10
24.892509388653352
20
-24.888163646757906
30
0
10
26.119341601599825
20
-24.843523719199951
30
0
10
26.999999999999996
20
-24.808423769568737
30
0
0
LINE
5
103
100
AcDbEntity
8
0
100
AcDbLine
10
3.3656367281943717e-15
20
-24.145628647588083
30
0
11
6.993530863780516e-16
21
14.601752944317225
31
0
0
SPLINE
5
104
100
AcDbEntity
8
0
100
AcDbSpline
70
4
71
5
72
15
73
9
74
0
42
0.000000001
43
0.0000000001
44
0.0000000001
40
0.42281193526313243
40
0.42281193526313243
40
0.42281193526313243
40
0.42281193526313243
40
0.42281193526313243
40
0.42281193526313243
40
0.5
40
0.59999999999999998
40
0.69999999999999996
40
0.72059795724214359
40
0.72059795724214359
40
0.72059795724214359
40
0.72059795724214359
40
0.72059795724214359
40
0.72059795724214359
41
1
41
1
41
1
41
1
41
1
41
1
41
1
41
1
41
1
10
-9.6246064486544886e-12
20
14.601752944316431
30
0
10
0.68813504813355508
20
14.658590752243834
30
0
10
2.1903596066806919
20
14.775437700477408
30
0
10
4.2295847588122122
20
14.909455831573256
30
0
10
5.7898603070039973
20
14.975671852451386
30
0
10
6.6509997392433933
20
14.976433332585598
30
0
10
6.9516060494980074
20
14.972909559101449
30
0
10
7.0470403011088445
20
14.974640040986746
30
0
10
7.0615024603628127
20
14.975068385041014
30
0
0
SPLINE
5
105
100
AcDbEntity
8
0
100
AcDbSpline
70
4
71
5
72
12
73
6
74
0
42
0.000000001
43
0.0000000001
44
0.0000000001
40
0.90263039007560564
40
0.90263039007560564
40
0.90263039007560564
40
0.90263039007560564
40
0.90263039007560564
40
0.90263039007560564
40
1
40
1
40
1
40
1
40
1
40
1
41
1
41
1
41
1
41
1
41
1
41
1
10
7.4730441119198083
20
15.430221576021182
30
0
10
7.5926457080660912
20
15.582213946672152
30
0
10
7.7468979357188932
20
15.781528617428561
30
0
10
7.9362209083950708
20
16.039575920292325
30
0
10
8.1535192346963239
20
16.366543907122093
30
0
10
8.3999999999999986
20
16.762189771535635
30
0
0
SPLINE
5
106
100
AcDbEntity
8
0
100
AcDbSpline
70
4
71
5
72
13
73
7
74
0
42
0.000000001
43
0.0000000001
44
0.0000000001
40
0.68687889662217039
40
0.68687889662217039
40
0.68687889662217039
40
0.68687889662217039
40
0.68687889662217039
40
0.68687889662217039
40
0.69999999999999996
40
0.70028163718282077
40
0.70028163718282077
40
0.70028163718282077
40
0.70028163718282077
40
0.70028163718282077
40
0.70028163718282077
41
1
41
1
41
1
41
1
41
1
41
1
41
1
10
-6.4177010162839848e-12
20
-24.145628647587607
30
0
10
0.23549950293419636
20
-24.162969479893157
30
0
10
0.47675206688756683
20
-24.18031795932399
30
0
10
0.71871206524459674
20
-24.197301488832803
30
0
10
0.96137377900901955
20
-24.213927349355941
30
0
10
1.20473165214867
20
-24.230202474469486
30
0
10
1.2098457364500896
20
-24.230544315417685
30
0
0
LINE
5
107
100
AcDbEntity
8
0
100
AcDbLine
10
26.999999999999993
20
-24.808423769568737
30
0
11
26.999999999999996
21
27.660380761784523
31
0
0
LINE
5
108
100
AcDbEntity
8
0
100
AcDbLine
10
26.999999999999996
20
27.660380761784523
30
0
11
26.999999999999996
21
30.958887899590728
31
0
0
SPLINE
5
109
100
AcDbEntity
8
0
100
AcDbSpline
70
0
71
3
72
12
73
8
74
0
42
0.000000001
43
0.0000000001
44
0.0000000001
40
0
40
0
40
0
40
0
40
5.0004666236605919
40
5.0004666236605919
40
6.5177732954762391
40
6.5177732954762391
40
7.0214519148719932
40
7.0214519148719932
40
7.0214519148719932
40
7.0214519148719932
10
7.473044111919811
20
15.430221576021186
30
0
10
7.3792030984322032
20
15.310966327229808
30
0
10
7.2850489872379738
20
15.20127911797856
30
0
10
7.157673051591976
20
15.068237232017076
30
0
10
7.1277110877674721
20
15.037965066740469
30
0
10
7.084424170325013
20
14.996439503599792
30
0
10
7.0733646208039831
20
14.985998664305292
30
0
10
7.0615024603628189
20
14.975068385041016
30
0
0
SPLINE
5
110
100
AcDbEntity
8
0
100
AcDbSpline
70
0
71
3
72
10
73
6
74
0
42
0.000000001
43
0.0000000001
44
0.0000000001
40
0
40
0
40
0
40
0
40
10.000873015562467
40
10.000873015562467
40
18.449180923906674
40
18.449180923906674
40
18.449180923906674
40
18.449180923906674
10
1.2098457364500856
20
-24.230544315417685
30
0
10
2.5113099364165183
20
-24.317538140693191
30
0
10
3.8125149965646457
20
-24.391472101180252
30
0
10
6.2095967050185594
20
-24.509802999988352
30
0
10
7.3062382296667545
20
-24.556972874717175
30
0
10
8.3999999999999968
20
-24.5985427116422
30
0
0
SPLINE
5
111
100
AcDbEntity
8
0
100
AcDbSpline
70
0
71
3
72
12
73
8
74
0
42
0.000000001
43
0.0000000001
44
0.0000000001
40
0
40
0
40
0
40
0
40
4.3318259359169859
40
4.3318259359169859
40
9.0959489277721168
40
9.0959489277721168
40
10.49882892594932
40
10.49882892594932
40
10.49882892594932
40
10.49882892594932
10
8.4000000000000004
20
-24.598542711642203
30
0
10
8.9209750936200596
20
-24.655774871495442
30
0
10
9.4640466147797699
20
-24.706628880034369
30
0
10
10.618468386243721
20
-24.7984990389389
30
0
10
11.234092649745335
20
-24.838406814420818
30
0
10
12.033998364605761
20
-24.880885900441204
30
0
10
12.216291790774019
20
-24.889943495411359
30
0
10
12.39880817283057
20
-24.898430407206355
30
0
0
LINE
5
112
100
AcDbEntity
8
0
100
AcDbLine
10
26.999999999999996
20
30.958887899590721
30
0
11
26.999999999999996
21
29.959761839278951
31
0
0
LINE
5
113
100
AcDbEntity
8
0
100
AcDbLine
10
26.999999999999996
20
27.537714918798518
30
0
11
26.999999999999996
21
-24.808423769568734
31
0
0
SPLINE
5
114
100
AcDbEntity
8
0
100
AcDbSpline
70
4
71
5
72
13
73
7
74
0
42
0.000000001
43
0.0000000001
44
0.0000000001
40
-0.73959791058440238
40
-0.73959791058440238
40
-0.73959791058440238
40
-0.73959791058440238
40
-0.73959791058440238
40
-0.73959791058440238
40
-0.69999999999999996
40
-0.68576844814901428
40
-0.68576844814901428
40
-0.68576844814901428
40
-0.68576844814901428
40
-0.68576844814901428
40
-0.68576844814901428
41
1
41
1
41
1
41
1
41
1
41
1
41
1
10
26.999999999996138
20
30.958887899589921
30
0
10
27.709377276414536
20
31.105443765785679
30
0
10
28.700391149017722
20
31.282601921539921
30
0
10
29.730371093926681
20
31.432473675638416
30
0
10
30.802518700991438
20
31.558639997161936
30
0
10
31.91925901292073
20
31.664425759543064
30
0
10
32.217661699907346
20
31.691028706453892
30
0
0
LINE
5
115
100
AcDbEntity
8
0
100
AcDbLine
10
70.200000000000003
20
-20.97384688021258
30
0
11
70.199999999999989
21
-20.974510536085798
31
0
0
LINE
5
116
100
AcDbEntity
8
0
100
AcDbLine
10
71.999999999999986
20
-20.668250056919216
30
0
11
72
21
-20.646921933124311
31
0
0
SPLINE
5
117
100
AcDbEntity
8
0
100
AcDbSpline
70
4
71
5
72
22
73
16
74
0
42
0.000000001
43
0.0000000001
44
0.0000000001
40
0.32438901744971127
40
0.32438901744971127
40
0.32438901744971127
40
0.32438901744971127
40
0.32438901744971127
40
0.32438901744971127
40
0.33333333333333331
40
0.39999999999999997
40
0.46666666666666662
40
0.53333333333333333
40
0.59999999999999998
40
0.66666666666666663
40
0.73333333333333328
40
0.79999999999999993
40
0.86666666666666659
40
0.93333333333333324
40
1
40
1
40
1
40
1
40
1
40
1
41
1
41
1
41
1
41
1
41
1
41
1
41
1
41
1
41
1
41
1
41
1
41
1
41
1
41
1
41
1
41
1
10
26.99999999999282
20
-24.808423769569021
30
0
10
27.136461644295007
20
-24.802984887875169
30
0
10
28.293509661315195
20
-24.756260750426723
30
0
10
30.525414034140773
20
-24.656504254373292
30
0
10
33.943032309282103
20
-24.478240717623795
30
0
10
38.666360787078567
20
-24.186753561510415
30
0
10
44.523101331145384
20
-23.766619068268774
30
0
10
50.295762744622465
20
-23.302949397455862
30
0
10
55.735053460890349
20
-22.822228250851307
30
0
10
60.59182627325135
20
-22.35092353758445
30
0
10
64.638843230917175
20
-21.913164352749899
30
0
10
67.69284362572283
20
-21.528470885248151
30
0
10
69.254025260673728
20
-21.27279460498448
30
0
10
69.921486999820402
20
-21.111535598772601
30
0
10
70.144200718181239
20
-21.017498735383203
30
0
10
70.200000000000003
20
-20.97384688021258
30
0
0
LINE
5
118
100
AcDbEntity
8
0
100
AcDbLine
10
72
20
-20.646921933124311
30
0
11
71.999999999999986
21
31.078764333183429
31
0
0
SPLINE
5
119
100
AcDbEntity
8
0
100
AcDbSpline
70
4
71
5
72
15
73
9
74
0
42
0.000000001
43
0.0000000001
44
0.0000000001
40
0.30172017398604201
40
0.30172017398604201
40
0.30172017398604201
40
0.30172017398604201
40
0.30172017398604201
40
0.30172017398604201
40
0.40000000000000002
40
0.5
40
0.59999999999999998
40
0.69899471584674333
40
0.69899471584674333
40
0.69899471584674333
40
0.69899471584674333
40
0.69899471584674333
40
0.69899471584674333
41
1
41
1
41
1
41
1
41
1
41
1
41
1
41
1
41
1
10
26.999999999999993
20
27.537714918798518
30
0
10
26.795007456524136
20
27.661631058177626
30
0
10
26.429249474096867
20
27.910680443753254
30
0
10
26.028062749954866
20
28.282368205817271
30
0
10
25.808112717848086
20
28.771155770322938
30
0
10
26.02483016640149
20
29.251251319687714
30
0
10
26.425966914063704
20
29.60784024711954
30
0
10
26.793168580531688
20
29.843171508616699
30
0
10
26.999999999999954
20
29.959761839278926
30
0
0
SPLINE
5
120
100
AcDbEntity
8
0
100
AcDbSpline
70
4
71
5
72
12
73
6
74
0
42
0.000000001
43
0.0000000001
44
0.0000000001
40
0
40
0
40
0
40
0
40
0
40
0
40
0.035119963152253693
40
0.035119963152253693
40
0.035119963152253693
40
0.035119963152253693
40
0.035119963152253693
40
0.035119963152253693
41
1
41
1
41
1
41
1
41
1
41
1
10
70.200000000000003
20
31.224257138620086
30
0
10
70.546532862890601
20
31.201340047615325
30
0
10
70.899823731012205
20
31.175328815035936
30
0
10
71.259872792706076
20
31.14622405288257
30
0
10
71.626629636263388
20
31.114031974822712
30
0
10
71.999999999999986
20
31.078764333183436
30
0
0
SPLINE
5
121
100
AcDbEntity
8
0
100
AcDbSpline
70
4
71
5
72
14
73
8
74
0
42
0.000000001
43
0.0000000001
44
0.0000000001
40
-0.68576844814901439
40
-0.68576844814901439
40
-0.68576844814901439
40
-0.68576844814901439
40
-0.68576844814901439
40
-0.68576844814901439
40
-0.59999999999999998
40
-0.5
40
-0.40704412516912925
40
-0.40704412516912925
40
-0.40704412516912925
40
-0.40704412516912925
40
-0.40704412516912925
40
-0.40704412516912925
41
1
41
1
41
1
41
1
41
1
41
1
41
1
41
1
10
32.217661699907346
20
31.691028706453892
30
0
10
34.016027447671213
20
31.851355106316923
30
0
10
38.159469363235985
20
32.091235629090363
30
0
10
45.243997702755848
20
32.194085372070738
30
0
10
53.667393619706438
20
32.155212487357474
30
0
10
62.055006975354146
20
31.833240745290176
30
0
10
67.602834953955735
20
31.448330465573878
30
0
10
70.199999999999989
20
31.224257138620086
30
0
0
SPLINE
5
122
100
AcDbEntity
8
0
100
AcDbSpline
70
0
71
3
72
12
73
8
74
0
42
0.000000001
43
0.0000000001
44
0.0000000001
40
0
40
0
40
0
40
0
40
2.1113554076724936
40
2.1113554076724936
40
4.523800646300379
40
4.523800646300379
40
6.9988797725400289
40
6.9988797725400289
40
6.9988797725400289
40
6.9988797725400289
10
70.200000000000003
20
-20.974510536085795
30
0
10
70.291621624970986
20
-20.958511365018651
30
0
10
70.426455783815882
20
-20.935149961665275
30
0
10
70.769765818560629
20
-20.876257432519033
30
0
10
70.988378059985109
20
-20.83904871403217
30
0
10
71.465676759218553
20
-20.75825027955781
30
0
10
71.72779264605218
20
-20.714076829236213
30
0
10
72.000000000000057
20
-20.668250056919206
30
0
0
SPLINE
5
123
100
AcDbEntity
8
0
100
AcDbSpline
70
4
71
5
72
26
73
20
74
0
42
0.000000001
43
0.0000000001
44
0.0000000001
40
0
40
0
40
0
40
0
40
0
40
0
40
0.066666666666666666
40
0.13333333333333333
40
0.20000000000000001
40
0.26666666666666666
40
0.33333333333333331
40
0.39999999999999997
40
0.46666666666666662
40
0.53333333333333333
40
0.59999999999999998
40
0.66666666666666663
40
0.73333333333333328
40
0.79999999999999993
40
0.86666666666666659
40
0.93333333333333324
40
1
40
1
40
1
40
1
40
1
40
1
41
1
41
1
41
1
41
1
41
1
41
1
41
1
41
1
41
1
41
1
41
1
41
1
41
1
41
1
41
1
41
1
41
1
41
1
41
1
41
1
10
7.4730441119198083
20
15.430221576021182
30
0
10
7.7222595621213106
20
15.298699831049593
30
0
10
8.2095327648467915
20
14.990576886945247
30
0
10
8.906940457862115
20
14.393141166694724
30
0
10
9.8459833754072452
20
13.378940294426279
30
0
10
11.391960570836973
20
12.018778133044533
30
0
10
13.631822368468709
20
10.856861059185338
30
0
10
16.631125309337687
20
10.077955237597944
30
0
10
20.016390649673419
20
9.6555756534933188
30
0
10
23.211194784223718
20
9.4637767803074535
30
0
10
25.675580434715741
20
9.3913960447983786
30
0
10
27.066995474256419
20
9.4123977201306754
30
0
10
27.61588115659848
20
9.7713170900985258
30
0
10
27.988925232147604
20
10.887291742679581
30
0
10
28.471073048742152
20
12.931063457494945
30
0
10
29.2763503426753
20
16.009974265390071
30
0
10
30.240279364462985
20
19.318675702603397
30
0
10
31.155218980235571
20
22.273858688837052
30
0
10
31.849451600094817
20
24.452732203348834
30
0
10
32.217661699907339
20
25.594370941438367
30
0
0
LINE
5
124
100
AcDbEntity
8
0
100
AcDbLine
10
71.999999999999986
20
26.118506923295364
30
0
11
71.999999999999986
21
31.078764333183436
31
0
0
SPLINE
5
125
100
AcDbEntity
8
0
100
AcDbSpline
70
4
71
5
72
12
73
6
74
0
42
0.000000001
43
0.0000000001
44
0.0000000001
40
-0.035119963152253693
40
-0.035119963152253693
40
-0.035119963152253693
40
-0.035119963152253693
40
-0.035119963152253693
40
-0.035119963152253693
40
0
40
0
40
0
40
0
40
0
40
0
41
1
41
1
41
1
41
1
41
1
41
1
10
71.999999999999986
20
31.078764333183436
30
0
10
71.626629636263388
20
31.114031974822712
30
0
10
71.259872792706076
20
31.14622405288257
30
0
10
70.899823731012205
20
31.175328815035936
30
0
10
70.546532862890601
20
31.201340047615325
30
0
10
70.200000000000003
20
31.224257138620086
30
0
0
SPLINE
5
126
100
AcDbEntity
8
0
100
AcDbSpline
70
4
71
5
72
14
73
8
74
0
42
0.000000001
43
0.0000000001
44
0.0000000001
40
0.40704412516912925
40
0.40704412516912925
40
0.40704412516912925
40
0.40704412516912925
40
0.40704412516912925
40
0.40704412516912925
40
0.5
40
0.59999999999999998
40
0.68576844814901439
40
0.68576844814901439
40
0.68576844814901439
40
0.68576844814901439
40
0.68576844814901439
40
0.68576844814901439
41
1
41
1
41
1
41
1
41
1
41
1
41
1
41
1
10
70.199999999999989
20
31.224257138620086
30
0
10
67.602834953955735
20
31.448330465573878
30
0
10
62.055006975354146
20
31.833240745290176
30
0
10
53.667393619706438
20
32.155212487357474
30
0
10
45.243997702755848
20
32.194085372070738
30
0
10
38.159469363235985
20
32.091235629090363
30
0
10
34.016027447671213
20
31.851355106316923
30
0
10
32.217661699907346
20
31.691028706453892
30
0
0
SPLINE
5
127
100
AcDbEntity
8
0
100
AcDbSpline
70
4
71
5
72
21
73
15
74
0
42
0.000000001
43
0.0000000001
44
0.0000000001
40
-1
40
-1
40
-1
40
-1
40
-1
40
-1
40
-0.89999999999999991
40
-0.79999999999999993
40
-0.69999999999999996
40
-0.59999999999999998
40
-0.5
40
-0.40000000000000002
40
-0.30000000000000004
40
-0.20000000000000001
40
-0.10000000000000001
40
0
40
0
40
0
40
0
40
0
40
0
41
1
41
1
41
1
41
1
41
1
41
1
41
1
41
1
41
1
41
1
41
1
41
1
41
1
41
1
41
1
10
32.217661699907339
20
31.691028706453988
30
0
10
31.741182387868484
20
31.578580034376557
30
0
10
30.829917857424284
20
31.352852755067001
30
0
10
29.588099930742278
20
31.011772098553912
30
0
10
28.186645489552291
20
30.55193590601052
30
0
10
26.887357755188248
20
29.96813289502078
30
0
10
26.080758938980399
20
29.374522743069416
30
0
10
25.806612987383996
20
28.770313935239319
30
0
10
26.085816348895197
20
28.155090520595671
30
0
10
26.89550023945975
20
27.529307710085401
30
0
10
28.195233323238263
20
26.893770303239315
30
0
10
29.594691960958187
20
26.378180980529294
30
0
10
30.833713132091049
20
25.987718375614676
30
0
10
31.742542500186737
20
25.725761506461275
30
0
10
32.217661699907339
20
25.594370941438367
30
0
0
SPLINE
5
128
100
AcDbEntity
8
0
100
AcDbSpline
70
4
71
5
72
15
73
9
74
0
42
0.000000001
43
0.0000000001
44
0.0000000001
40
0
40
0
40
0
40
0
40
0
40
0
40
0.20000000000000001
40
0.40000000000000002
40
0.60000000000000009
40
0.70154766025177617
40
0.70154766025177617
40
0.70154766025177617
40
0.70154766025177617
40
0.70154766025177617
40
0.70154766025177617
41
1
41
1
41
1
41
1
41
1
41
1
41
1
41
1
41
1
10
32.217661699907339
20
25.594370941438367
30
0
10
34.379200990189801
20
25.564198861662931
30
0
10
38.724949492254119
20
25.516611929324785
30
0
10
45.311553416065365
20
25.483487121646146
30
0
10
53.140429977816112
20
25.516513953339757
30
0
10
61.191345624089784
20
25.674490624466507
30
0
10
67.120334526078963
20
25.884930861898361
30
0
10
70.763600575008951
20
26.055660364272835
30
0
10
71.999999999999986
20
26.118506923295364
30
0
0
SPLINE
5
129
100
AcDbEntity
8
0
100
AcDbSpline
70
4
71
5
72
15
73
9
74
0
42
0.000000001
43
0.0000000001
44
0.0000000001
40
0
40
0
40
0
40
0
40
0
40
0
40
0.20000000000000001
40
0.40000000000000002
40
0.60000000000000009
40
0.70154766025177617
40
0.70154766025177617
40
0.70154766025177617
40
0.70154766025177617
40
0.70154766025177617
40
0.70154766025177617
41
1
41
1
41
1
41
1
41
1
41
1
41
1
41
1
41
1
10
32.217661699907339
20
25.594370941438367
30
0
10
34.379200990189801
20
25.564198861662931
30
0
10
38.724949492254119
20
25.516611929324785
30
0
10
45.311553416065365
20
25.483487121646146
30
0
10
53.140429977816112
20
25.516513953339757
30
0
10
61.191345624089784
20
25.674490624466507
30
0
10
67.120334526078963
20
25.884930861898361
30
0
10
70.763600575008951
20
26.055660364272835
30
0
10
71.999999999999986
20
26.118506923295364
30
0
0
SPLINE
5
130
100
AcDbEntity
8
0
100
AcDbSpline
70
4
71
5
72
21
73
15
74
0
42
0.000000001
43
0.0000000001
44
0.0000000001
40
-1
40
-1
40
-1
40
-1
40
-1
40
-1
40
-0.89999999999999991
40
-0.79999999999999993
40
-0.69999999999999996
40
-0.59999999999999998
40
-0.5
40
-0.40000000000000002
40
-0.30000000000000004
40
-0.20000000000000001
40
-0.10000000000000001
40
0
40
0
40
0
40
0
40
0
40
0
41
1
41
1
41
1
41
1
41
1
41
1
41
1
41
1
41
1
41
1
41
1
41
1
41
1
41
1
41
1
10
32.217661699907339
20
31.691028706453988
30
0
10
31.741182387868484
20
31.578580034376557
30
0
10
30.829917857424284
20
31.352852755067001
30
0
10
29.588099930742278
20
31.011772098553912
30
0
10
28.186645489552291
20
30.55193590601052
30
0
10
26.887357755188248
20
29.96813289502078
30
0
10
26.080758938980399
20
29.374522743069416
30
0
10
25.806612987383996
20
28.770313935239319
30
0
10
26.085816348895197
20
28.155090520595671
30
0
10
26.89550023945975
20
27.529307710085401
30
0
10
28.195233323238263
20
26.893770303239315
30
0
10
29.594691960958187
20
26.378180980529294
30
0
10
30.833713132091049
20
25.987718375614676
30
0
10
31.742542500186737
20
25.725761506461275
30
0
10
32.217661699907339
20
25.594370941438367
30
0
0
ENDSEC
0
SECTION
2
OBJECTS
0
DICTIONARY
5
C
100
AcDbDictionary
3
ACAD_GROUP
350
D
3
ACAD_MLINESTYLE
350
17
0
DICTIONARY
5
D
100
AcDbDictionary
0
DICTIONARY
5
1A
330
C
100
AcDbDictionary
0
DICTIONARY
5
17
100
AcDbDictionary
0
ENDSEC
0
EOF
