<svg width="16.25in" height="24.125in" viewBox="0 0 16.25 24.125" xmlns="http://www.w3.org/2000/svg" version="1.1" preserveAspectRatio="xMidYMid meet"><g id="svgGroup" stroke-linecap="round" fill-rule="evenodd" font-size="9pt" stroke="#000" stroke-width="0.25mm" fill="none" style="stroke:#000;stroke-width:0.25mm;fill:none"><path d="M 0 12.125 L 0 13.678 L 0.118 13.678 L 0.118 14.666 L 0 14.666 L 0 15.654 L 0.118 15.654 L 0.118 16.643 L 0 16.643 L 0 17.631 L 0.118 17.631 L 0.118 18.619 L 0 18.619 L 0 19.607 L 0.118 19.607 L 0.118 20.596 L 0 20.596 L 0 21.584 L 0.118 21.584 L 0.118 22.572 L 0 22.572 L 0 23.56 L 0 24.125 L 0.779 24.125 L 0.779 24.007 L 1.768 24.007 L 1.768 24.125 L 2.756 24.125 L 2.756 24.007 L 3.744 24.007 L 3.744 24.125 L 4.732 24.125 L 4.732 24.007 L 5.721 24.007 L 5.721 24.125 L 6.5 24.125 L 6.5 22.572 L 6.382 22.572 L 6.382 21.584 L 6.5 21.584 L 6.5 20.596 L 6.382 20.596 L 6.382 19.607 L 6.5 19.607 L 6.5 18.619 L 6.382 18.619 L 6.382 17.631 L 6.5 17.631 L 6.5 16.643 L 6.382 16.643 L 6.382 15.654 L 6.5 15.654 L 6.5 14.666 L 6.382 14.666 L 6.382 13.678 L 6.5 13.678 L 6.5 12.69 L 6.5 12.125 L 0 12.125 Z" id="front_outsideCutPath" stroke="#FF0000" stroke-width="0.1" style="stroke:#FF0000;stroke-width:0.1" vector-effect="non-scaling-stroke"/><path d="M 6.743 12.125 L 6.743 13.678 L 6.625 13.678 L 6.625 14.666 L 6.743 14.666 L 6.743 15.654 L 6.625 15.654 L 6.625 16.643 L 6.743 16.643 L 6.743 17.631 L 6.625 17.631 L 6.625 18.619 L 6.743 18.619 L 6.743 19.607 L 6.625 19.607 L 6.625 20.596 L 6.743 20.596 L 6.743 21.584 L 6.625 21.584 L 6.625 22.572 L 6.743 22.572 L 6.743 23.56 L 6.743 24.125 L 7.631 24.125 L 7.631 24.007 L 8.619 24.007 L 8.619 24.125 L 9.507 24.125 L 9.507 22.572 L 9.625 22.572 L 9.625 21.584 L 9.507 21.584 L 9.507 20.596 L 9.625 20.596 L 9.625 19.607 L 9.507 19.607 L 9.507 18.619 L 9.625 18.619 L 9.625 17.631 L 9.507 17.631 L 9.507 16.643 L 9.625 16.643 L 9.625 15.654 L 9.507 15.654 L 9.507 14.666 L 9.625 14.666 L 9.625 13.678 L 9.507 13.678 L 9.507 12.69 L 9.507 12.125 L 6.743 12.125 Z" id="left_outsideCutPath" stroke="#FF0000" stroke-width="0.1" style="stroke:#FF0000;stroke-width:0.1" vector-effect="non-scaling-stroke"/><path d="M 0 0 L 0 1.553 L 0.118 1.553 L 0.118 2.541 L 0 2.541 L 0 3.529 L 0.118 3.529 L 0.118 4.518 L 0 4.518 L 0 5.506 L 0.118 5.506 L 0.118 6.494 L 0 6.494 L 0 7.482 L 0.118 7.482 L 0.118 8.471 L 0 8.471 L 0 9.459 L 0.118 9.459 L 0.118 10.447 L 0 10.447 L 0 11.435 L 0 12 L 0.779 12 L 0.779 11.882 L 1.768 11.882 L 1.768 12 L 2.756 12 L 2.756 11.882 L 3.744 11.882 L 3.744 12 L 4.732 12 L 4.732 11.882 L 5.721 11.882 L 5.721 12 L 6.5 12 L 6.5 10.447 L 6.382 10.447 L 6.382 9.459 L 6.5 9.459 L 6.5 8.471 L 6.382 8.471 L 6.382 7.482 L 6.5 7.482 L 6.5 6.494 L 6.382 6.494 L 6.382 5.506 L 6.5 5.506 L 6.5 4.518 L 6.382 4.518 L 6.382 3.529 L 6.5 3.529 L 6.5 2.541 L 6.382 2.541 L 6.382 1.553 L 6.5 1.553 L 6.5 0.565 L 6.5 0 L 0 0 Z" id="back_outsideCutPath" stroke="#FF0000" stroke-width="0.1" style="stroke:#FF0000;stroke-width:0.1" vector-effect="non-scaling-stroke"/><path d="M 6.743 0 L 6.743 1.553 L 6.625 1.553 L 6.625 2.541 L 6.743 2.541 L 6.743 3.529 L 6.625 3.529 L 6.625 4.518 L 6.743 4.518 L 6.743 5.506 L 6.625 5.506 L 6.625 6.494 L 6.743 6.494 L 6.743 7.482 L 6.625 7.482 L 6.625 8.471 L 6.743 8.471 L 6.743 9.459 L 6.625 9.459 L 6.625 10.447 L 6.743 10.447 L 6.743 11.435 L 6.743 12 L 7.631 12 L 7.631 11.882 L 8.619 11.882 L 8.619 12 L 9.507 12 L 9.507 10.447 L 9.625 10.447 L 9.625 9.459 L 9.507 9.459 L 9.507 8.471 L 9.625 8.471 L 9.625 7.482 L 9.507 7.482 L 9.507 6.494 L 9.625 6.494 L 9.625 5.506 L 9.507 5.506 L 9.507 4.518 L 9.625 4.518 L 9.625 3.529 L 9.507 3.529 L 9.507 2.541 L 9.625 2.541 L 9.625 1.553 L 9.507 1.553 L 9.507 0.565 L 9.507 0 L 6.743 0 Z" id="right_outsideCutPath" stroke="#FF0000" stroke-width="0.1" style="stroke:#FF0000;stroke-width:0.1" vector-effect="non-scaling-stroke"/><path d="M 9.868 21.243 L 9.868 22.131 L 9.75 22.131 L 9.75 23.119 L 9.868 23.119 L 9.868 24.007 L 10.529 24.007 L 10.529 24.125 L 11.518 24.125 L 11.518 24.007 L 12.506 24.007 L 12.506 24.125 L 13.494 24.125 L 13.494 24.007 L 14.482 24.007 L 14.482 24.125 L 15.471 24.125 L 15.471 24.007 L 16.132 24.007 L 16.132 23.119 L 16.25 23.119 L 16.25 22.131 L 16.132 22.131 L 16.132 21.243 L 15.471 21.243 L 15.471 21.125 L 14.482 21.125 L 14.482 21.243 L 13.494 21.243 L 13.494 21.125 L 12.506 21.125 L 12.506 21.243 L 11.518 21.243 L 11.518 21.125 L 10.529 21.125 L 10.529 21.243 L 9.868 21.243 Z" id="bottom_outsideCutPath" stroke="#FF0000" stroke-width="0.1" style="stroke:#FF0000;stroke-width:0.1" vector-effect="non-scaling-stroke"/></g></svg>