<svg width="16.25in" height="24.125in" viewBox="0 0 16.25 24.125" xmlns="http://www.w3.org/2000/svg" version="1.1" preserveAspectRatio="xMidYMid meet"><g id="svgGroup" stroke-linecap="round" fill-rule="evenodd" font-size="9pt" stroke="#000" stroke-width="0.25mm" fill="none" style="stroke:#000;stroke-width:0.25mm;fill:none"><path d="M 0 12.125 L 0 13.678 L 0.118 13.678 L 0.118 14.666 L 0 14.666 L 0 15.654 L 0.118 15.654 L 0.118 16.643 L 0 16.643 L 0 17.631 L 0.118 17.631 L 0.118 18.619 L 0 18.619 L 0 19.607 L 0.118 19.607 L 0.118 20.596 L 0 20.596 L 0 21.584 L 0.118 21.584 L 0.118 22.572 L 0 22.572 L 0 23.56 L 0 24.125 L 0.779 24.125 L 0.779 24.007 L 1.768 24.007 L 1.768 24.125 L 2.756 24.125 L 2.756 24.007 L 3.744 24.007 L 3.744 24.125 L 4.732 24.125 L 4.732 24.007 L 5.721 24.007 L 5.721 24.125 L 6.5 24.125 L 6.5 22.572 L 6.382 22.572 L 6.382 21.584 L 6.5 21.584 L 6.5 20.596 L 6.382 20.596 L 6.382 19.607 L 6.5 19.607 L 6.5 18.619 L 6.382 18.619 L 6.382 17.631 L 6.5 17.631 L 6.5 16.643 L 6.382 16.643 L 6.382 15.654 L 6.5 15.654 L 6.5 14.666 L 6.382 14.666 L 6.382 13.678 L 6.5 13.678 L 6.5 12.69 L 6.5 12.125 L 0 12.125 Z" id="front_outsideCutPath" stroke="#FF0000" stroke-width="0.1" style="stroke:#FF0000;stroke-width:0.1" vector-effect="non-scaling-stroke"/><path d="M 4.197 18.616 L 4.092 18.616 L 4.092 18.166 Q 4.092 18.112 4.076 18.075 A 0.125 0.125 0 0 0 4.053 18.039 Q 4.022 18.005 3.962 17.999 A 0.279 0.279 0 0 0 3.932 17.997 A 0.319 0.319 0 0 0 3.872 18.002 Q 3.808 18.015 3.772 18.056 A 0.172 0.172 0 0 0 3.742 18.108 Q 3.724 18.156 3.722 18.228 A 0.675 0.675 0 0 0 3.721 18.251 L 3.721 18.616 L 3.616 18.616 L 3.616 17.92 L 3.702 17.92 L 3.719 18.015 L 3.724 18.015 A 0.213 0.213 0 0 1 3.807 17.939 A 0.256 0.256 0 0 1 3.815 17.936 A 0.285 0.285 0 0 1 3.916 17.909 A 0.345 0.345 0 0 1 3.945 17.908 A 0.416 0.416 0 0 1 4.016 17.913 Q 4.054 17.92 4.084 17.934 A 0.189 0.189 0 0 1 4.134 17.968 A 0.183 0.183 0 0 1 4.178 18.038 Q 4.197 18.089 4.197 18.162 L 4.197 18.616 Z M 2.173 17.92 L 2.173 18.002 L 1.996 18.002 L 1.996 18.616 L 1.891 18.616 L 1.891 18.002 L 1.766 18.002 L 1.766 17.955 L 1.891 17.916 L 1.891 17.878 A 0.427 0.427 0 0 1 1.901 17.781 Q 1.931 17.649 2.058 17.626 A 0.32 0.32 0 0 1 2.115 17.621 A 0.339 0.339 0 0 1 2.163 17.625 Q 2.2 17.63 2.244 17.644 L 2.217 17.728 A 0.512 0.512 0 0 0 2.177 17.717 Q 2.157 17.712 2.139 17.71 A 0.227 0.227 0 0 0 2.113 17.708 A 0.142 0.142 0 0 0 2.079 17.712 A 0.091 0.091 0 0 0 2.025 17.748 A 0.122 0.122 0 0 0 2.008 17.78 Q 1.996 17.817 1.996 17.875 L 1.996 17.92 L 2.173 17.92 Z M 4.734 18.529 L 4.734 18.61 A 0.104 0.104 0 0 1 4.721 18.615 Q 4.708 18.619 4.69 18.622 A 0.396 0.396 0 0 1 4.683 18.623 Q 4.65 18.629 4.623 18.629 Q 4.462 18.629 4.43 18.493 A 0.331 0.331 0 0 1 4.421 18.416 L 4.421 18.002 L 4.322 18.002 L 4.322 17.951 L 4.421 17.908 L 4.466 17.759 L 4.527 17.759 L 4.527 17.92 L 4.729 17.92 L 4.729 18.002 L 4.527 18.002 L 4.527 18.412 Q 4.527 18.456 4.542 18.485 A 0.102 0.102 0 0 0 4.557 18.508 Q 4.586 18.542 4.639 18.542 Q 4.666 18.542 4.693 18.538 A 0.571 0.571 0 0 0 4.708 18.535 Q 4.723 18.532 4.734 18.529 Z M 2.701 17.915 L 2.686 18.013 Q 2.65 18.005 2.621 18.004 A 0.247 0.247 0 0 0 2.61 18.003 A 0.183 0.183 0 0 0 2.475 18.062 A 0.25 0.25 0 0 0 2.465 18.072 Q 2.405 18.141 2.405 18.243 L 2.405 18.616 L 2.3 18.616 L 2.3 17.92 L 2.387 17.92 L 2.399 18.049 L 2.404 18.049 A 0.356 0.356 0 0 1 2.444 17.992 A 0.272 0.272 0 0 1 2.497 17.944 A 0.21 0.21 0 0 1 2.617 17.908 A 0.484 0.484 0 0 1 2.661 17.909 A 0.353 0.353 0 0 1 2.701 17.915 Z M 3.422 18.373 A 0.544 0.544 0 0 0 3.431 18.267 A 0.618 0.618 0 0 0 3.431 18.251 Q 3.429 18.193 3.417 18.144 A 0.328 0.328 0 0 0 3.345 18.005 A 0.276 0.276 0 0 0 3.217 17.922 A 0.354 0.354 0 0 0 3.113 17.908 A 0.409 0.409 0 0 0 3.04 17.914 A 0.279 0.279 0 0 0 2.877 18.002 Q 2.792 18.097 2.792 18.267 A 0.527 0.527 0 0 0 2.799 18.353 A 0.39 0.39 0 0 0 2.831 18.459 A 0.346 0.346 0 0 0 2.839 18.474 A 0.285 0.285 0 0 0 2.943 18.585 Q 3.015 18.629 3.109 18.629 A 0.409 0.409 0 0 0 3.18 18.623 A 0.281 0.281 0 0 0 3.346 18.533 Q 3.402 18.47 3.422 18.373 Z M 2.901 18.267 A 0.534 0.534 0 0 0 2.906 18.344 Q 2.912 18.382 2.924 18.414 A 0.221 0.221 0 0 0 2.955 18.471 A 0.173 0.173 0 0 0 3.067 18.537 A 0.262 0.262 0 0 0 3.111 18.54 A 0.245 0.245 0 0 0 3.176 18.532 A 0.17 0.17 0 0 0 3.268 18.471 Q 3.308 18.419 3.319 18.332 A 0.555 0.555 0 0 0 3.322 18.267 A 0.526 0.526 0 0 0 3.317 18.193 Q 3.312 18.154 3.3 18.124 A 0.217 0.217 0 0 0 3.268 18.066 A 0.173 0.173 0 0 0 3.161 18.002 A 0.266 0.266 0 0 0 3.11 17.997 A 0.251 0.251 0 0 0 3.048 18.004 A 0.168 0.168 0 0 0 2.954 18.065 Q 2.901 18.133 2.901 18.267 Z" id="front_labelLayer" stroke="#777777" fill="#777777" style="stroke:#777777;fill:#777777" vector-effect="non-scaling-stroke"/><path d="M 6.743 12.125 L 6.743 13.678 L 6.625 13.678 L 6.625 14.666 L 6.743 14.666 L 6.743 15.654 L 6.625 15.654 L 6.625 16.643 L 6.743 16.643 L 6.743 17.631 L 6.625 17.631 L 6.625 18.619 L 6.743 18.619 L 6.743 19.607 L 6.625 19.607 L 6.625 20.596 L 6.743 20.596 L 6.743 21.584 L 6.625 21.584 L 6.625 22.572 L 6.743 22.572 L 6.743 23.56 L 6.743 24.125 L 7.631 24.125 L 7.631 24.007 L 8.619 24.007 L 8.619 24.125 L 9.507 24.125 L 9.507 22.572 L 9.625 22.572 L 9.625 21.584 L 9.507 21.584 L 9.507 20.596 L 9.625 20.596 L 9.625 19.607 L 9.507 19.607 L 9.507 18.619 L 9.625 18.619 L 9.625 17.631 L 9.507 17.631 L 9.507 16.643 L 9.625 16.643 L 9.625 15.654 L 9.507 15.654 L 9.507 14.666 L 9.625 14.666 L 9.625 13.678 L 9.507 13.678 L 9.507 12.69 L 9.507 12.125 L 6.743 12.125 Z" id="left_outsideCutPath" stroke="#FF0000" stroke-width="0.1" style="stroke:#FF0000;stroke-width:0.1" vector-effect="non-scaling-stroke"/><path d="M 8.338 18.031 L 8.338 18.068 L 8.257 18.068 L 8.257 18.352 L 8.208 18.352 L 8.208 18.068 L 8.151 18.068 L 8.151 18.046 L 8.208 18.029 L 8.208 18.011 A 0.197 0.197 0 0 1 8.213 17.966 Q 8.227 17.905 8.285 17.895 A 0.148 0.148 0 0 1 8.311 17.893 A 0.157 0.157 0 0 1 8.334 17.894 Q 8.344 17.896 8.356 17.899 A 0.315 0.315 0 0 1 8.371 17.903 L 8.359 17.942 A 0.236 0.236 0 0 0 8.34 17.937 Q 8.331 17.934 8.323 17.933 A 0.105 0.105 0 0 0 8.311 17.933 A 0.066 0.066 0 0 0 8.295 17.934 A 0.042 0.042 0 0 0 8.27 17.951 A 0.056 0.056 0 0 0 8.262 17.966 Q 8.257 17.983 8.257 18.01 L 8.257 18.031 L 8.338 18.031 Z M 8.111 18.169 L 8.111 18.2 L 7.89 18.2 A 0.195 0.195 0 0 0 7.893 18.233 Q 7.9 18.266 7.918 18.286 A 0.088 0.088 0 0 0 7.965 18.312 A 0.134 0.134 0 0 0 7.994 18.315 A 0.257 0.257 0 0 0 8.091 18.296 A 0.294 0.294 0 0 0 8.097 18.293 L 8.097 18.337 A 0.292 0.292 0 0 1 8.07 18.347 A 0.223 0.223 0 0 1 8.048 18.353 Q 8.03 18.356 8.007 18.357 A 0.396 0.396 0 0 1 7.993 18.357 A 0.189 0.189 0 0 1 7.945 18.352 A 0.134 0.134 0 0 1 7.88 18.314 A 0.143 0.143 0 0 1 7.846 18.251 Q 7.839 18.225 7.839 18.194 Q 7.839 18.116 7.877 18.07 A 0.125 0.125 0 0 1 7.968 18.025 A 0.172 0.172 0 0 1 7.98 18.025 A 0.148 0.148 0 0 1 8.022 18.03 A 0.113 0.113 0 0 1 8.076 18.064 A 0.136 0.136 0 0 1 8.106 18.126 A 0.198 0.198 0 0 1 8.111 18.169 Z M 8.545 18.311 L 8.545 18.349 Q 8.537 18.352 8.521 18.355 A 0.211 0.211 0 0 1 8.508 18.357 Q 8.5 18.357 8.494 18.357 Q 8.401 18.357 8.401 18.259 L 8.401 18.068 L 8.355 18.068 L 8.355 18.045 L 8.401 18.025 L 8.421 17.956 L 8.449 17.956 L 8.449 18.031 L 8.542 18.031 L 8.542 18.068 L 8.449 18.068 L 8.449 18.257 A 0.098 0.098 0 0 0 8.451 18.274 Q 8.452 18.284 8.456 18.291 A 0.047 0.047 0 0 0 8.463 18.302 A 0.045 0.045 0 0 0 8.491 18.317 A 0.065 0.065 0 0 0 8.501 18.317 A 0.16 0.16 0 0 0 8.524 18.316 A 0.144 0.144 0 0 0 8.526 18.315 A 0.263 0.263 0 0 0 8.533 18.314 Q 8.536 18.314 8.539 18.313 A 0.101 0.101 0 0 0 8.544 18.312 Z M 7.754 17.896 L 7.754 18.352 L 7.705 18.352 L 7.705 17.896 L 7.754 17.896 Z M 7.891 18.16 L 8.059 18.16 A 0.166 0.166 0 0 0 8.057 18.134 Q 8.052 18.107 8.038 18.09 A 0.067 0.067 0 0 0 7.998 18.067 A 0.1 0.1 0 0 0 7.98 18.065 A 0.096 0.096 0 0 0 7.952 18.069 A 0.074 0.074 0 0 0 7.918 18.091 A 0.096 0.096 0 0 0 7.899 18.123 Q 7.893 18.139 7.891 18.16 Z" id="left_labelLayer" stroke="#777777" fill="#777777" style="stroke:#777777;fill:#777777" vector-effect="non-scaling-stroke"/><path d="M 0 0 L 0 1.553 L 0.118 1.553 L 0.118 2.541 L 0 2.541 L 0 3.529 L 0.118 3.529 L 0.118 4.518 L 0 4.518 L 0 5.506 L 0.118 5.506 L 0.118 6.494 L 0 6.494 L 0 7.482 L 0.118 7.482 L 0.118 8.471 L 0 8.471 L 0 9.459 L 0.118 9.459 L 0.118 10.447 L 0 10.447 L 0 11.435 L 0 12 L 0.779 12 L 0.779 11.882 L 1.768 11.882 L 1.768 12 L 2.756 12 L 2.756 11.882 L 3.744 11.882 L 3.744 12 L 4.732 12 L 4.732 11.882 L 5.721 11.882 L 5.721 12 L 6.5 12 L 6.5 10.447 L 6.382 10.447 L 6.382 9.459 L 6.5 9.459 L 6.5 8.471 L 6.382 8.471 L 6.382 7.482 L 6.5 7.482 L 6.5 6.494 L 6.382 6.494 L 6.382 5.506 L 6.5 5.506 L 6.5 4.518 L 6.382 4.518 L 6.382 3.529 L 6.5 3.529 L 6.5 2.541 L 6.382 2.541 L 6.382 1.553 L 6.5 1.553 L 6.5 0.565 L 6.5 0 L 0 0 Z" id="back_outsideCutPath" stroke="#FF0000" stroke-width="0.1" style="stroke:#FF0000;stroke-width:0.1" vector-effect="non-scaling-stroke"/><path d="M 4.14 6.131 L 4.145 6.131 A 0.624 0.624 0 0 1 4.16 6.111 Q 4.186 6.077 4.228 6.03 L 4.453 5.792 L 4.578 5.792 L 4.296 6.088 L 4.598 6.487 L 4.47 6.487 L 4.224 6.159 L 4.145 6.227 L 4.145 6.487 L 4.041 6.487 L 4.041 5.5 L 4.145 5.5 L 4.145 6.023 Q 4.145 6.058 4.14 6.129 A 4.896 4.896 0 0 1 4.14 6.131 Z M 2.008 6.398 L 2 6.398 L 1.978 6.487 L 1.902 6.487 L 1.902 5.5 L 2.008 5.5 L 2.008 5.74 A 2.197 2.197 0 0 1 2.007 5.814 Q 2.005 5.851 2.003 5.884 L 2.008 5.884 A 0.24 0.24 0 0 1 2.183 5.783 A 0.36 0.36 0 0 1 2.226 5.78 A 0.322 0.322 0 0 1 2.317 5.792 A 0.241 0.241 0 0 1 2.439 5.874 Q 2.5 5.949 2.512 6.074 A 0.676 0.676 0 0 1 2.515 6.139 Q 2.515 6.26 2.477 6.343 A 0.296 0.296 0 0 1 2.438 6.405 A 0.249 0.249 0 0 1 2.261 6.499 A 0.357 0.357 0 0 1 2.226 6.5 A 0.32 0.32 0 0 1 2.146 6.49 A 0.278 0.278 0 0 1 2.102 6.475 Q 2.046 6.45 2.008 6.398 Z M 3.205 6.487 L 3.127 6.487 L 3.106 6.388 L 3.101 6.388 A 0.437 0.437 0 0 1 3.065 6.428 Q 3.046 6.447 3.027 6.46 A 0.194 0.194 0 0 1 2.997 6.477 A 0.243 0.243 0 0 1 2.947 6.493 Q 2.923 6.498 2.894 6.499 A 0.474 0.474 0 0 1 2.868 6.5 A 0.323 0.323 0 0 1 2.802 6.494 Q 2.762 6.486 2.731 6.466 A 0.181 0.181 0 0 1 2.706 6.447 A 0.173 0.173 0 0 1 2.653 6.356 A 0.265 0.265 0 0 1 2.647 6.295 Q 2.647 6.084 2.984 6.074 L 3.102 6.07 L 3.102 6.027 A 0.303 0.303 0 0 0 3.099 5.984 Q 3.096 5.961 3.089 5.943 A 0.118 0.118 0 0 0 3.067 5.906 Q 3.039 5.875 2.984 5.869 A 0.26 0.26 0 0 0 2.954 5.867 Q 2.884 5.867 2.8 5.902 A 0.706 0.706 0 0 0 2.757 5.921 L 2.725 5.84 A 0.486 0.486 0 0 1 2.819 5.801 A 0.553 0.553 0 0 1 2.838 5.796 A 0.488 0.488 0 0 1 2.961 5.78 Q 3.085 5.78 3.145 5.836 A 0.167 0.167 0 0 1 3.188 5.902 Q 3.198 5.929 3.202 5.963 A 0.415 0.415 0 0 1 3.205 6.013 L 3.205 6.487 Z M 3.886 5.815 L 3.854 5.905 A 0.469 0.469 0 0 0 3.803 5.888 A 0.56 0.56 0 0 0 3.777 5.882 Q 3.742 5.874 3.714 5.873 A 0.233 0.233 0 0 0 3.704 5.872 A 0.234 0.234 0 0 0 3.61 5.89 Q 3.51 5.934 3.495 6.086 A 0.582 0.582 0 0 0 3.492 6.143 A 0.51 0.51 0 0 0 3.498 6.217 Q 3.503 6.255 3.515 6.285 A 0.219 0.219 0 0 0 3.544 6.34 Q 3.596 6.408 3.698 6.408 A 0.441 0.441 0 0 0 3.819 6.39 A 0.545 0.545 0 0 0 3.876 6.371 L 3.876 6.464 A 0.3 0.3 0 0 1 3.803 6.49 Q 3.756 6.5 3.7 6.5 A 0.394 0.394 0 0 1 3.604 6.489 A 0.267 0.267 0 0 1 3.466 6.407 A 0.305 0.305 0 0 1 3.403 6.291 Q 3.383 6.226 3.383 6.144 A 0.581 0.581 0 0 1 3.392 6.038 Q 3.403 5.979 3.427 5.933 A 0.29 0.29 0 0 1 3.467 5.874 A 0.273 0.273 0 0 1 3.617 5.788 A 0.414 0.414 0 0 1 3.707 5.779 Q 3.757 5.779 3.807 5.79 A 0.526 0.526 0 0 1 3.837 5.797 Q 3.851 5.801 3.863 5.805 A 0.208 0.208 0 0 1 3.885 5.815 Z M 2.211 5.869 A 0.296 0.296 0 0 0 2.154 5.874 Q 2.089 5.886 2.055 5.93 A 0.18 0.18 0 0 0 2.029 5.98 Q 2.012 6.03 2.008 6.105 A 0.812 0.812 0 0 0 2.008 6.139 Q 2.008 6.286 2.057 6.349 Q 2.106 6.412 2.213 6.412 A 0.21 0.21 0 0 0 2.273 6.404 A 0.152 0.152 0 0 0 2.358 6.341 A 0.242 0.242 0 0 0 2.388 6.276 Q 2.397 6.246 2.402 6.208 A 0.604 0.604 0 0 0 2.406 6.138 Q 2.406 6.009 2.363 5.942 A 0.175 0.175 0 0 0 2.358 5.935 A 0.154 0.154 0 0 0 2.26 5.873 A 0.244 0.244 0 0 0 2.211 5.869 Z M 3.1 6.208 L 3.1 6.145 L 2.994 6.15 Q 2.869 6.154 2.813 6.189 A 0.112 0.112 0 0 0 2.759 6.27 A 0.166 0.166 0 0 0 2.757 6.296 A 0.151 0.151 0 0 0 2.761 6.331 Q 2.769 6.363 2.792 6.383 A 0.115 0.115 0 0 0 2.835 6.406 Q 2.852 6.411 2.872 6.413 A 0.237 0.237 0 0 0 2.889 6.413 A 0.29 0.29 0 0 0 2.951 6.407 Q 2.995 6.397 3.027 6.373 A 0.176 0.176 0 0 0 3.043 6.359 A 0.176 0.176 0 0 0 3.093 6.271 Q 3.099 6.243 3.1 6.209 A 0.355 0.355 0 0 0 3.1 6.208 Z" id="back_labelLayer" stroke="#777777" fill="#777777" style="stroke:#777777;fill:#777777" vector-effect="non-scaling-stroke"/><path d="M 6.743 0 L 6.743 1.553 L 6.625 1.553 L 6.625 2.541 L 6.743 2.541 L 6.743 3.529 L 6.625 3.529 L 6.625 4.518 L 6.743 4.518 L 6.743 5.506 L 6.625 5.506 L 6.625 6.494 L 6.743 6.494 L 6.743 7.482 L 6.625 7.482 L 6.625 8.471 L 6.743 8.471 L 6.743 9.459 L 6.625 9.459 L 6.625 10.447 L 6.743 10.447 L 6.743 11.435 L 6.743 12 L 7.631 12 L 7.631 11.882 L 8.619 11.882 L 8.619 12 L 9.507 12 L 9.507 10.447 L 9.625 10.447 L 9.625 9.459 L 9.507 9.459 L 9.507 8.471 L 9.625 8.471 L 9.625 7.482 L 9.507 7.482 L 9.507 6.494 L 9.625 6.494 L 9.625 5.506 L 9.507 5.506 L 9.507 4.518 L 9.625 4.518 L 9.625 3.529 L 9.507 3.529 L 9.507 2.541 L 9.625 2.541 L 9.625 1.553 L 9.507 1.553 L 9.507 0.565 L 9.507 0 L 6.743 0 Z" id="right_outsideCutPath" stroke="#FF0000" stroke-width="0.1" style="stroke:#FF0000;stroke-width:0.1" vector-effect="non-scaling-stroke"/><path d="M 8.498 6.156 L 8.449 6.156 L 8.449 5.948 Q 8.449 5.923 8.442 5.906 A 0.058 0.058 0 0 0 8.432 5.89 Q 8.417 5.874 8.389 5.871 A 0.129 0.129 0 0 0 8.376 5.87 A 0.147 0.147 0 0 0 8.348 5.873 Q 8.318 5.878 8.302 5.898 Q 8.28 5.923 8.279 5.977 A 0.314 0.314 0 0 0 8.278 5.988 L 8.278 6.156 L 8.23 6.156 L 8.23 5.7 L 8.278 5.7 L 8.278 5.838 A 0.437 0.437 0 0 1 8.278 5.855 Q 8.278 5.863 8.277 5.869 A 0.19 0.19 0 0 1 8.276 5.879 L 8.279 5.879 A 0.097 0.097 0 0 1 8.313 5.847 A 0.119 0.119 0 0 1 8.32 5.843 A 0.125 0.125 0 0 1 8.361 5.831 A 0.158 0.158 0 0 1 8.38 5.829 Q 8.419 5.829 8.445 5.842 A 0.088 0.088 0 0 1 8.469 5.857 A 0.085 0.085 0 0 1 8.49 5.89 Q 8.495 5.904 8.497 5.921 A 0.21 0.21 0 0 1 8.498 5.946 L 8.498 6.156 Z M 8.053 5.835 L 8.164 5.835 L 8.164 5.866 L 8.104 5.873 A 0.079 0.079 0 0 1 8.111 5.883 Q 8.114 5.888 8.117 5.894 A 0.15 0.15 0 0 1 8.119 5.899 A 0.094 0.094 0 0 1 8.125 5.922 A 0.12 0.12 0 0 1 8.125 5.937 A 0.111 0.111 0 0 1 8.12 5.971 A 0.09 0.09 0 0 1 8.093 6.012 A 0.108 0.108 0 0 1 8.051 6.034 Q 8.035 6.039 8.016 6.04 A 0.211 0.211 0 0 1 8.005 6.04 A 0.156 0.156 0 0 1 7.987 6.039 A 0.132 0.132 0 0 1 7.978 6.038 A 0.087 0.087 0 0 0 7.964 6.047 Q 7.957 6.053 7.952 6.059 A 0.037 0.037 0 0 0 7.947 6.079 A 0.025 0.025 0 0 0 7.948 6.087 A 0.02 0.02 0 0 0 7.957 6.098 Q 7.966 6.104 7.985 6.105 A 0.185 0.185 0 0 0 7.995 6.105 L 8.052 6.105 Q 8.086 6.105 8.11 6.115 A 0.088 0.088 0 0 1 8.132 6.127 A 0.071 0.071 0 0 1 8.158 6.172 A 0.107 0.107 0 0 1 8.16 6.191 Q 8.16 6.243 8.119 6.271 A 0.113 0.113 0 0 1 8.117 6.272 A 0.146 0.146 0 0 1 8.079 6.289 Q 8.061 6.295 8.038 6.297 A 0.385 0.385 0 0 1 7.992 6.3 A 0.272 0.272 0 0 1 7.956 6.298 Q 7.937 6.295 7.922 6.29 A 0.113 0.113 0 0 1 7.895 6.277 Q 7.863 6.255 7.861 6.216 A 0.103 0.103 0 0 1 7.861 6.21 A 0.074 0.074 0 0 1 7.88 6.16 A 0.085 0.085 0 0 1 7.909 6.138 A 0.12 0.12 0 0 1 7.932 6.131 Q 7.92 6.125 7.912 6.113 A 0.045 0.045 0 0 1 7.903 6.089 A 0.056 0.056 0 0 1 7.903 6.086 Q 7.903 6.069 7.913 6.055 Q 7.92 6.045 7.933 6.036 A 0.153 0.153 0 0 1 7.942 6.03 A 0.085 0.085 0 0 1 7.905 6 A 0.106 0.106 0 0 1 7.902 5.995 A 0.101 0.101 0 0 1 7.886 5.947 A 0.123 0.123 0 0 1 7.886 5.939 A 0.141 0.141 0 0 1 7.89 5.906 A 0.092 0.092 0 0 1 7.918 5.857 A 0.103 0.103 0 0 1 7.957 5.836 Q 7.973 5.831 7.992 5.829 A 0.215 0.215 0 0 1 8.007 5.829 A 0.186 0.186 0 0 1 8.032 5.83 A 0.142 0.142 0 0 1 8.053 5.835 Z M 8.746 6.116 L 8.746 6.153 Q 8.738 6.157 8.722 6.159 A 0.211 0.211 0 0 1 8.709 6.161 Q 8.701 6.162 8.695 6.162 Q 8.602 6.162 8.602 6.064 L 8.602 5.873 L 8.556 5.873 L 8.556 5.849 L 8.602 5.829 L 8.622 5.76 L 8.65 5.76 L 8.65 5.835 L 8.743 5.835 L 8.743 5.873 L 8.65 5.873 L 8.65 6.062 A 0.098 0.098 0 0 0 8.652 6.079 Q 8.653 6.088 8.657 6.096 A 0.047 0.047 0 0 0 8.664 6.106 A 0.045 0.045 0 0 0 8.692 6.121 A 0.065 0.065 0 0 0 8.702 6.122 A 0.16 0.16 0 0 0 8.725 6.12 A 0.144 0.144 0 0 0 8.727 6.12 A 0.263 0.263 0 0 0 8.734 6.118 Q 8.737 6.118 8.74 6.117 A 0.101 0.101 0 0 0 8.745 6.116 Z M 7.689 5.832 L 7.682 5.878 A 0.214 0.214 0 0 0 7.667 5.875 Q 7.659 5.874 7.653 5.873 A 0.114 0.114 0 0 0 7.647 5.873 A 0.084 0.084 0 0 0 7.585 5.9 A 0.115 0.115 0 0 0 7.581 5.905 A 0.111 0.111 0 0 0 7.554 5.967 A 0.148 0.148 0 0 0 7.553 5.984 L 7.553 6.156 L 7.504 6.156 L 7.504 5.835 L 7.544 5.835 L 7.55 5.894 L 7.552 5.894 A 0.164 0.164 0 0 1 7.571 5.868 A 0.125 0.125 0 0 1 7.595 5.846 A 0.097 0.097 0 0 1 7.651 5.829 A 0.223 0.223 0 0 1 7.671 5.83 A 0.163 0.163 0 0 1 7.689 5.832 Z M 7.798 5.835 L 7.798 6.156 L 7.749 6.156 L 7.749 5.835 L 7.798 5.835 Z M 8.036 6.149 L 7.978 6.149 A 0.112 0.112 0 0 0 7.958 6.15 Q 7.939 6.154 7.926 6.164 A 0.051 0.051 0 0 0 7.909 6.193 A 0.078 0.078 0 0 0 7.908 6.21 Q 7.908 6.234 7.927 6.247 A 0.057 0.057 0 0 0 7.93 6.249 A 0.078 0.078 0 0 0 7.949 6.258 Q 7.958 6.26 7.969 6.261 A 0.199 0.199 0 0 0 7.992 6.263 A 0.327 0.327 0 0 0 8.025 6.261 Q 8.057 6.258 8.077 6.248 A 0.081 0.081 0 0 0 8.083 6.244 A 0.071 0.071 0 0 0 8.1 6.231 A 0.053 0.053 0 0 0 8.113 6.195 Q 8.113 6.179 8.107 6.169 A 0.031 0.031 0 0 0 8.097 6.159 Q 8.084 6.151 8.056 6.149 A 0.309 0.309 0 0 0 8.036 6.149 Z M 7.934 5.938 A 0.095 0.095 0 0 0 7.936 5.957 Q 7.939 5.97 7.945 5.979 A 0.052 0.052 0 0 0 7.953 5.989 A 0.063 0.063 0 0 0 7.978 6.002 Q 7.988 6.005 8 6.006 A 0.125 0.125 0 0 0 8.006 6.006 A 0.106 0.106 0 0 0 8.034 6.003 Q 8.066 5.994 8.074 5.963 A 0.099 0.099 0 0 0 8.077 5.937 Q 8.077 5.879 8.032 5.867 A 0.106 0.106 0 0 0 8.005 5.864 Q 7.971 5.864 7.953 5.883 A 0.058 0.058 0 0 0 7.938 5.907 Q 7.935 5.916 7.935 5.927 A 0.128 0.128 0 0 0 7.934 5.938 Z M 7.745 5.748 Q 7.745 5.731 7.753 5.723 A 0.028 0.028 0 0 1 7.771 5.716 A 0.037 0.037 0 0 1 7.774 5.716 Q 7.786 5.716 7.794 5.723 A 0.025 0.025 0 0 1 7.801 5.734 Q 7.802 5.738 7.802 5.742 A 0.056 0.056 0 0 1 7.803 5.748 A 0.05 0.05 0 0 1 7.802 5.757 Q 7.801 5.762 7.799 5.766 A 0.024 0.024 0 0 1 7.794 5.772 Q 7.786 5.78 7.774 5.78 A 0.031 0.031 0 0 1 7.763 5.779 A 0.027 0.027 0 0 1 7.753 5.772 A 0.025 0.025 0 0 1 7.747 5.762 Q 7.746 5.758 7.745 5.753 A 0.057 0.057 0 0 1 7.745 5.748 Z" id="right_labelLayer" stroke="#777777" fill="#777777" style="stroke:#777777;fill:#777777" vector-effect="non-scaling-stroke"/><path d="M 9.868 21.243 L 9.868 22.131 L 9.75 22.131 L 9.75 23.119 L 9.868 23.119 L 9.868 24.007 L 10.529 24.007 L 10.529 24.125 L 11.518 24.125 L 11.518 24.007 L 12.506 24.007 L 12.506 24.125 L 13.494 24.125 L 13.494 24.007 L 14.482 24.007 L 14.482 24.125 L 15.471 24.125 L 15.471 24.007 L 16.132 24.007 L 16.132 23.119 L 16.25 23.119 L 16.25 22.131 L 16.132 22.131 L 16.132 21.243 L 15.471 21.243 L 15.471 21.125 L 14.482 21.125 L 14.482 21.243 L 13.494 21.243 L 13.494 21.125 L 12.506 21.125 L 12.506 21.243 L 11.518 21.243 L 11.518 21.125 L 10.529 21.125 L 10.529 21.243 L 9.868 21.243 Z" id="bottom_outsideCutPath" stroke="#FF0000" stroke-width="0.1" style="stroke:#FF0000;stroke-width:0.1" vector-effect="non-scaling-stroke"/><path d="M 13.987 22.85 L 13.938 22.85 L 13.938 22.641 A 0.143 0.143 0 0 0 13.937 22.62 Q 13.935 22.609 13.932 22.601 A 0.059 0.059 0 0 0 13.922 22.584 Q 13.906 22.564 13.871 22.564 A 0.125 0.125 0 0 0 13.846 22.567 Q 13.83 22.57 13.819 22.577 A 0.064 0.064 0 0 0 13.804 22.59 Q 13.789 22.609 13.784 22.641 A 0.214 0.214 0 0 0 13.782 22.67 L 13.782 22.85 L 13.734 22.85 L 13.734 22.641 A 0.143 0.143 0 0 0 13.732 22.62 Q 13.731 22.609 13.727 22.601 A 0.059 0.059 0 0 0 13.717 22.584 A 0.051 0.051 0 0 0 13.694 22.568 Q 13.685 22.566 13.675 22.565 A 0.114 0.114 0 0 0 13.666 22.564 Q 13.634 22.564 13.614 22.578 A 0.064 0.064 0 0 0 13.599 22.592 Q 13.578 22.619 13.578 22.682 L 13.578 22.85 L 13.529 22.85 L 13.529 22.529 L 13.569 22.529 L 13.577 22.573 L 13.579 22.573 A 0.096 0.096 0 0 1 13.618 22.536 A 0.115 0.115 0 0 1 13.663 22.523 A 0.14 0.14 0 0 1 13.674 22.523 Q 13.72 22.523 13.747 22.544 A 0.083 0.083 0 0 1 13.772 22.578 L 13.775 22.578 A 0.102 0.102 0 0 1 13.813 22.54 A 0.122 0.122 0 0 1 13.816 22.538 A 0.123 0.123 0 0 1 13.861 22.524 A 0.153 0.153 0 0 1 13.878 22.523 Q 13.933 22.523 13.96 22.551 A 0.084 0.084 0 0 1 13.978 22.58 Q 13.983 22.593 13.985 22.61 A 0.223 0.223 0 0 1 13.987 22.641 L 13.987 22.85 Z M 12.062 22.809 L 12.058 22.809 L 12.048 22.85 L 12.013 22.85 L 12.013 22.394 L 12.062 22.394 L 12.062 22.505 A 1.014 1.014 0 0 1 12.061 22.539 Q 12.061 22.555 12.059 22.57 A 0.612 0.612 0 0 1 12.059 22.572 L 12.062 22.572 Q 12.096 22.524 12.162 22.524 A 0.149 0.149 0 0 1 12.204 22.529 A 0.111 0.111 0 0 1 12.261 22.567 A 0.143 0.143 0 0 1 12.286 22.615 Q 12.292 22.635 12.294 22.659 A 0.312 0.312 0 0 1 12.296 22.689 Q 12.296 22.768 12.26 22.812 A 0.115 0.115 0 0 1 12.179 22.855 A 0.165 0.165 0 0 1 12.162 22.856 A 0.148 0.148 0 0 1 12.125 22.851 A 0.128 0.128 0 0 1 12.105 22.844 A 0.108 0.108 0 0 1 12.062 22.809 Z M 12.891 22.81 L 12.891 22.847 Q 12.883 22.851 12.867 22.853 A 0.211 0.211 0 0 1 12.854 22.855 Q 12.846 22.856 12.84 22.856 Q 12.747 22.856 12.747 22.758 L 12.747 22.567 L 12.701 22.567 L 12.701 22.543 L 12.747 22.523 L 12.767 22.454 L 12.795 22.454 L 12.795 22.529 L 12.888 22.529 L 12.888 22.567 L 12.795 22.567 L 12.795 22.756 A 0.098 0.098 0 0 0 12.797 22.773 Q 12.798 22.782 12.802 22.79 A 0.047 0.047 0 0 0 12.809 22.8 A 0.045 0.045 0 0 0 12.837 22.815 A 0.065 0.065 0 0 0 12.847 22.816 A 0.16 0.16 0 0 0 12.87 22.814 A 0.144 0.144 0 0 0 12.872 22.814 A 0.263 0.263 0 0 0 12.879 22.813 Q 12.882 22.812 12.885 22.811 A 0.101 0.101 0 0 0 12.89 22.81 Z M 13.103 22.81 L 13.103 22.847 Q 13.095 22.851 13.079 22.853 A 0.211 0.211 0 0 1 13.066 22.855 Q 13.058 22.856 13.052 22.856 Q 12.958 22.856 12.958 22.758 L 12.958 22.567 L 12.912 22.567 L 12.912 22.543 L 12.958 22.523 L 12.979 22.454 L 13.007 22.454 L 13.007 22.529 L 13.1 22.529 L 13.1 22.567 L 13.007 22.567 L 13.007 22.756 A 0.098 0.098 0 0 0 13.008 22.773 Q 13.01 22.782 13.014 22.79 A 0.047 0.047 0 0 0 13.021 22.8 A 0.045 0.045 0 0 0 13.049 22.815 A 0.065 0.065 0 0 0 13.059 22.816 A 0.16 0.16 0 0 0 13.082 22.814 A 0.144 0.144 0 0 0 13.083 22.814 A 0.263 0.263 0 0 0 13.091 22.813 Q 13.094 22.812 13.097 22.811 A 0.101 0.101 0 0 0 13.102 22.81 Z M 12.658 22.689 Q 12.658 22.768 12.618 22.812 A 0.13 0.13 0 0 1 12.542 22.853 A 0.189 0.189 0 0 1 12.509 22.856 A 0.156 0.156 0 0 1 12.464 22.849 A 0.135 0.135 0 0 1 12.433 22.836 A 0.132 0.132 0 0 1 12.384 22.785 A 0.16 0.16 0 0 1 12.381 22.778 A 0.18 0.18 0 0 1 12.366 22.729 A 0.243 0.243 0 0 1 12.363 22.689 Q 12.363 22.629 12.386 22.59 A 0.134 0.134 0 0 1 12.402 22.567 Q 12.441 22.523 12.511 22.523 A 0.163 0.163 0 0 1 12.559 22.53 A 0.127 0.127 0 0 1 12.618 22.568 A 0.151 0.151 0 0 1 12.651 22.632 Q 12.657 22.655 12.658 22.681 A 0.285 0.285 0 0 1 12.658 22.689 Z M 13.444 22.689 Q 13.444 22.768 13.404 22.812 A 0.13 0.13 0 0 1 13.328 22.853 A 0.189 0.189 0 0 1 13.295 22.856 A 0.156 0.156 0 0 1 13.25 22.849 A 0.135 0.135 0 0 1 13.219 22.836 A 0.132 0.132 0 0 1 13.171 22.785 A 0.16 0.16 0 0 1 13.167 22.778 A 0.18 0.18 0 0 1 13.152 22.729 A 0.243 0.243 0 0 1 13.149 22.689 Q 13.149 22.629 13.172 22.59 A 0.134 0.134 0 0 1 13.188 22.567 Q 13.227 22.523 13.297 22.523 A 0.163 0.163 0 0 1 13.345 22.53 A 0.127 0.127 0 0 1 13.404 22.568 A 0.151 0.151 0 0 1 13.437 22.632 Q 13.443 22.655 13.444 22.681 A 0.285 0.285 0 0 1 13.444 22.689 Z M 12.413 22.689 A 0.246 0.246 0 0 0 12.416 22.724 Q 12.421 22.761 12.438 22.783 Q 12.462 22.815 12.51 22.815 A 0.113 0.113 0 0 0 12.54 22.811 A 0.079 0.079 0 0 0 12.583 22.783 Q 12.601 22.759 12.606 22.719 A 0.256 0.256 0 0 0 12.607 22.689 Q 12.607 22.65 12.597 22.623 A 0.1 0.1 0 0 0 12.583 22.596 A 0.08 0.08 0 0 0 12.533 22.566 A 0.123 0.123 0 0 0 12.51 22.564 A 0.116 0.116 0 0 0 12.481 22.568 A 0.077 0.077 0 0 0 12.437 22.596 A 0.101 0.101 0 0 0 12.422 22.626 Q 12.417 22.64 12.415 22.657 A 0.257 0.257 0 0 0 12.413 22.689 Z M 13.199 22.689 A 0.246 0.246 0 0 0 13.202 22.724 Q 13.207 22.761 13.224 22.783 Q 13.248 22.815 13.296 22.815 A 0.113 0.113 0 0 0 13.326 22.811 A 0.079 0.079 0 0 0 13.369 22.783 Q 13.387 22.759 13.392 22.719 A 0.256 0.256 0 0 0 13.393 22.689 Q 13.393 22.65 13.383 22.623 A 0.1 0.1 0 0 0 13.369 22.596 A 0.08 0.08 0 0 0 13.319 22.566 A 0.123 0.123 0 0 0 13.296 22.564 A 0.116 0.116 0 0 0 13.267 22.568 A 0.077 0.077 0 0 0 13.224 22.596 A 0.101 0.101 0 0 0 13.208 22.626 Q 13.203 22.64 13.201 22.657 A 0.257 0.257 0 0 0 13.199 22.689 Z M 12.155 22.564 A 0.137 0.137 0 0 0 12.129 22.567 Q 12.114 22.57 12.102 22.576 A 0.065 0.065 0 0 0 12.084 22.593 Q 12.064 22.618 12.062 22.673 A 0.375 0.375 0 0 0 12.062 22.689 A 0.322 0.322 0 0 0 12.063 22.722 Q 12.068 22.765 12.084 22.786 A 0.071 0.071 0 0 0 12.12 22.81 Q 12.132 22.814 12.147 22.815 A 0.156 0.156 0 0 0 12.157 22.815 A 0.097 0.097 0 0 0 12.184 22.811 A 0.07 0.07 0 0 0 12.223 22.782 A 0.112 0.112 0 0 0 12.237 22.753 Q 12.245 22.726 12.245 22.689 A 0.287 0.287 0 0 0 12.244 22.656 Q 12.239 22.62 12.226 22.598 A 0.081 0.081 0 0 0 12.223 22.595 A 0.071 0.071 0 0 0 12.178 22.567 A 0.112 0.112 0 0 0 12.155 22.564 Z" id="bottom_labelLayer" stroke="#777777" fill="#777777" style="stroke:#777777;fill:#777777" vector-effect="non-scaling-stroke"/></g></svg>