999
"DXF R12 Output" (www.mydxf.blogspot.com)
 0 
SECTION
 2 
HEADER
 9 
$ACADVER
 1 
AC1009
 9 
$EXTMIN
 10 
 0 
 20 
 0 
 9 
$EXTMAX
 10 
 8.5 
 20 
 11 
 0 
ENDSEC
 0 
SECTION
 2 
ENTITIES
0
LINE
8
Layer 1
10
0.793749
20
610.394000
11
-0.793749
21
608.806000
0
LINE
8
Layer 1
10
0.000000
20
610.923000
11
0.000000
21
608.277000
0
LINE
8
Layer 1
10
2.116660
20
608.542000
11
1.058330
21
607.483670
0
LINE
8
Layer 1
10
1.587500
20
609.071000
11
0.529170
21
608.012670
0
LINE
8
Layer 1
10
1.058330
20
609.600000
11
0.000000
21
608.541670
0
LINE
8
Layer 1
10
0.793749
20
610.394000
11
-0.793749
21
608.806000
0
LINE
8
Layer 1
10
0.000000
20
610.923000
11
0.000000
21
608.277000
0
LINE
8
Layer 1
10
2.116660
20
608.542000
11
1.058330
21
607.483670
0
LINE
8
Layer 1
10
1.587500
20
609.071000
11
0.529170
21
608.012670
0
LINE
8
Layer 1
10
1.058330
20
609.600000
11
0.000000
21
608.541670
0
LINE
8
0
10
126.731000
20
544.964000
11
126.707187
21
545.665939
0
LINE
8
0
10
126.707000
20
545.666000
11
126.475490
21
546.312376
0
LINE
8
0
10
126.475000
20
546.312000
11
126.059605
21
546.858628
0
LINE
8
0
10
126.060000
20
546.859000
11
125.484532
21
547.261695
0
LINE
8
0
10
125.485000
20
547.261000
11
124.813488
21
547.466846
0
LINE
8
0
10
124.813000
20
547.467000
11
124.126672
21
547.458269
0
LINE
8
0
10
124.127000
20
547.458000
11
123.474803
21
547.242894
0
LINE
8
0
10
123.475000
20
547.243000
11
122.907205
21
546.829986
0
LINE
8
0
10
122.907000
20
546.830000
11
122.493721
21
546.261940
0
LINE
8
0
10
122.493000
20
546.262000
11
122.277894
21
545.610067
0
LINE
8
0
10
122.278000
20
545.610000
11
122.269269
21
544.923407
0
LINE
8
0
10
122.270000
20
544.924000
11
122.476110
21
544.252488
0
LINE
8
0
10
122.476000
20
544.252000
11
122.878695
21
543.676532
0
LINE
8
0
10
122.878000
20
543.677000
11
123.424628
21
543.261605
0
LINE
8
0
10
123.425000
20
543.261000
11
124.071376
21
543.029490
0
LINE
8
0
10
124.071000
20
543.030000
11
124.772939
21
543.006452
0
LINE
8
0
10
124.773000
20
543.006000
11
122.066850
21
540.700160
0
LINE
8
0
10
122.067000
20
540.700000
11
119.182780
21
538.657680
0
LINE
8
0
10
119.183000
20
538.658000
11
116.140560
21
536.886620
0
LINE
8
0
10
116.141000
20
536.887000
11
112.959650
21
535.395280
0
LINE
8
0
10
112.959000
20
535.395000
11
109.658060
21
534.190620
0
LINE
8
0
10
109.658000
20
534.191000
11
106.257050
21
533.282157
0
LINE
8
0
10
106.257000
20
533.282000
11
102.775090
21
532.676899
0
LINE
8
0
10
102.775000
20
532.677000
11
99.231970
21
532.383313
0
LINE
8
0
10
99.232400
20
532.383000
11
99.232665
21
530.539120
0
LINE
8
0
10
99.232600
20
530.539000
11
96.232800
21
530.539000
0
LINE
8
0
10
96.232800
20
530.539000
11
96.232800
21
532.383000
0
LINE
8
0
10
96.232800
20
532.383000
11
92.770470
21
532.665045
0
LINE
8
0
10
92.770500
20
532.665000
11
89.393100
21
533.238351
0
LINE
8
0
10
89.393100
20
533.238000
11
86.113860
21
534.090222
0
LINE
8
0
10
86.113800
20
534.091000
11
82.946740
21
535.210720
0
LINE
8
0
10
82.946800
20
535.210000
11
79.905420
21
536.584510
0
LINE
8
0
10
79.905400
20
536.585000
11
77.003720
21
538.203190
0
LINE
8
0
10
77.003700
20
538.203000
11
74.255480
21
540.052170
0
LINE
8
0
10
74.255500
20
540.052000
11
71.673960
21
542.120510
0
LINE
8
0
10
71.673900
20
542.121000
11
69.273340
21
544.396680
0
LINE
8
0
10
69.273400
20
544.396000
11
67.067310
21
546.867210
0
LINE
8
0
10
67.067300
20
546.868000
11
65.069430
21
549.522560
0
LINE
8
0
10
65.069400
20
549.522000
11
63.293520
21
552.347750
0
LINE
8
0
10
63.293500
20
552.348000
11
61.753360
21
555.333290
0
LINE
8
0
10
61.753400
20
555.333000
11
60.462760
21
558.465660
0
LINE
8
0
10
60.462800
20
558.466000
11
59.435160
21
561.734130
0
LINE
8
0
10
59.435100
20
561.734000
11
58.684478
21
565.125690
0
LINE
8
0
10
58.684500
20
565.126000
11
58.231005
21
568.569810
0
LINE
8
0
10
58.231000
20
568.570000
11
58.079923
21
571.992380
0
LINE
8
0
10
58.079900
20
571.992000
11
58.222246
21
575.377340
0
LINE
8
0
10
58.222300
20
575.377000
11
58.649866
21
578.708890
0
LINE
8
0
10
58.649800
20
578.709000
11
59.353062
21
581.971570
0
LINE
8
0
10
59.353100
20
581.972000
11
60.323590
21
585.149380
0
LINE
8
0
10
60.323600
20
585.149000
11
61.552320
21
588.225310
0
LINE
8
0
10
61.552300
20
588.225000
11
63.030790
21
591.184100
0
LINE
8
0
10
63.030800
20
591.185000
11
64.749800
21
594.011010
0
LINE
8
0
10
64.749800
20
594.011000
11
66.700840
21
596.688050
0
LINE
8
0
10
66.700800
20
596.688000
11
68.874880
21
599.200220
0
LINE
8
0
10
68.874900
20
599.200000
11
71.263290
21
601.531240
0
LINE
8
0
10
71.263300
20
601.531000
11
73.857270
21
603.665390
0
LINE
8
0
10
73.857300
20
603.665000
11
76.647860
21
605.586670
0
LINE
8
0
10
76.647800
20
605.587000
11
79.626000
21
607.280000
0
LINE
8
0
10
79.626000
20
607.280000
11
82.783530
21
608.728330
0
LINE
8
0
10
82.783500
20
608.728000
11
83.598945
21
605.684770
0
LINE
8
0
10
83.599000
20
605.685000
11
97.732700
21
609.472000
0
LINE
8
0
10
97.732700
20
609.472000
11
111.867000
21
605.685000
0
LINE
8
0
10
111.867000
20
605.685000
11
112.682000
21
608.728000
0
LINE
8
0
10
112.682000
20
608.728000
11
117.056090
21
606.627210
0
LINE
8
0
10
117.056000
20
606.627000
11
121.097240
21
604.039380
0
LINE
8
0
10
121.097000
20
604.040000
11
124.771260
21
601.005230
0
LINE
8
0
10
124.772000
20
601.005000
11
128.045420
21
597.563830
0
LINE
8
0
10
128.045000
20
597.564000
11
130.883980
21
593.756120
0
LINE
8
0
10
130.884000
20
593.756000
11
133.254400
21
589.621890
0
LINE
8
0
10
133.254000
20
589.622000
11
135.121960
21
585.201880
0
LINE
8
0
10
135.122000
20
585.202000
11
136.453650
21
580.536080
0
LINE
8
0
10
136.454000
20
580.536000
11
137.206474
21
575.742290
0
LINE
8
0
10
137.206000
20
575.742000
11
137.368719
21
570.946170
0
LINE
8
0
10
137.369000
20
570.946000
11
136.955457
21
566.198590
0
LINE
8
0
10
136.956000
20
566.199000
11
135.980218
21
561.550540
0
LINE
8
0
10
135.980000
20
561.550000
11
134.455740
21
557.051560
0
LINE
8
0
10
134.456000
20
557.052000
11
132.397280
21
552.754380
0
LINE
8
0
10
132.397000
20
552.754000
11
129.817580
21
548.707470
0
LINE
8
0
10
129.817000
20
548.708000
11
126.730640
21
544.963620
0
LINE
8
0
10
126.731000
20
544.963000
11
126.730735
21
544.963265
0
LINE
8
0
10
127.899000
20
465.394000
11
127.083555
21
462.348650
0
LINE
8
0
10
127.083000
20
462.349000
11
123.925730
21
463.798910
0
LINE
8
0
10
123.926000
20
463.799000
11
120.947590
21
465.492330
0
LINE
8
0
10
120.948000
20
465.492000
11
118.157440
21
467.412870
0
LINE
8
0
10
118.157000
20
467.413000
11
115.563290
21
469.548180
0
LINE
8
0
10
115.563000
20
469.548000
11
113.174610
21
471.878980
0
LINE
8
0
10
113.175000
20
471.879000
11
111.000920
21
474.389890
0
LINE
8
0
10
111.001000
20
474.390000
11
109.049960
21
477.067580
0
LINE
8
0
10
109.050000
20
477.067000
11
107.330740
21
479.892750
0
LINE
8
0
10
107.330000
20
479.893000
11
105.851770
21
482.852630
0
LINE
8
0
10
105.852000
20
482.853000
11
104.623010
21
485.929310
0
LINE
8
0
10
104.623000
20
485.929000
11
103.652510
21
489.106380
0
LINE
8
0
10
103.653000
20
489.107000
11
102.949738
21
492.369570
0
LINE
8
0
10
102.950000
20
492.369000
11
102.522698
21
495.700890
0
LINE
8
0
10
102.522000
20
495.701000
11
102.379390
21
499.086340
0
LINE
8
0
10
102.380000
20
499.086000
11
102.531077
21
502.508380
0
LINE
8
0
10
102.531000
20
502.509000
11
102.984495
21
505.953080
0
LINE
8
0
10
102.984000
20
505.953000
11
103.734622
21
509.344420
0
LINE
8
0
10
103.735000
20
509.344000
11
104.762640
21
512.612130
0
LINE
8
0
10
104.762000
20
512.612000
11
106.052900
21
515.744660
0
LINE
8
0
10
106.053000
20
515.745000
11
107.593140
21
518.730290
0
LINE
8
0
10
107.593000
20
518.730000
11
109.368880
21
521.555750
0
LINE
8
0
10
109.369000
20
521.556000
11
111.366870
21
524.210560
0
LINE
8
0
10
111.367000
20
524.211000
11
113.573090
21
526.682210
0
LINE
8
0
10
113.573000
20
526.682000
11
115.973560
21
528.957680
0
LINE
8
0
10
115.974000
20
528.957000
11
118.555270
21
531.025510
0
LINE
8
0
10
118.555000
20
531.026000
11
121.303490
21
532.875170
0
LINE
8
0
10
121.304000
20
532.875000
11
124.205680
21
534.493190
0
LINE
8
0
10
124.205000
20
534.493000
11
127.246380
21
535.867770
0
LINE
8
0
10
127.247000
20
535.868000
11
130.414060
21
536.987450
0
LINE
8
0
10
130.414000
20
536.988000
11
133.693240
21
537.840222
0
LINE
8
0
10
133.693000
20
537.840000
11
137.070400
21
538.413351
0
LINE
8
0
10
137.070000
20
538.413000
11
140.532330
21
538.695045
0
LINE
8
0
10
140.533000
20
538.695000
11
140.533000
21
540.539000
0
LINE
8
0
10
140.533000
20
540.539000
11
143.533000
21
540.539000
0
LINE
8
0
10
143.533000
20
540.539000
11
143.533000
21
538.695000
0
LINE
8
0
10
143.533000
20
538.695000
11
146.995330
21
538.412955
0
LINE
8
0
10
146.995000
20
538.413000
11
150.372400
21
537.839649
0
LINE
8
0
10
150.372000
20
537.840000
11
153.651240
21
536.987778
0
LINE
8
0
10
153.652000
20
536.988000
11
156.819060
21
535.868280
0
LINE
8
0
10
156.819000
20
535.868000
11
159.860380
21
534.493230
0
LINE
8
0
10
159.860000
20
534.493000
11
162.761420
21
532.875070
0
LINE
8
0
10
162.761000
20
532.875000
11
165.509490
21
531.025830
0
LINE
8
0
10
165.510000
20
531.026000
11
168.091270
21
528.957490
0
LINE
8
0
10
168.091000
20
528.957000
11
170.491560
21
526.681060
0
LINE
8
0
10
170.492000
20
526.682000
11
172.698090
21
524.210790
0
LINE
8
0
10
172.698000
20
524.210000
11
174.695870
21
521.555700
0
LINE
8
0
10
174.696000
20
521.556000
11
176.471880
21
518.729990
0
LINE
8
0
10
176.472000
20
518.730000
11
178.012140
21
515.744710
0
LINE
8
0
10
178.012000
20
515.745000
11
179.302900
21
512.612340
0
LINE
8
0
10
179.303000
20
512.612000
11
180.330380
21
509.343870
0
LINE
8
0
10
180.330000
20
509.344000
11
181.080622
21
505.952580
0
LINE
8
0
10
181.081000
20
505.953000
11
181.534495
21
502.508920
0
LINE
8
0
10
181.534000
20
502.508000
11
181.685077
21
499.085620
0
LINE
8
0
10
181.685000
20
499.086000
11
181.542390
21
495.700930
0
LINE
8
0
10
181.543000
20
495.701000
11
181.115698
21
492.369110
0
LINE
8
0
10
181.115000
20
492.369000
11
180.411738
21
489.106430
0
LINE
8
0
10
180.412000
20
489.107000
11
179.441510
21
485.929620
0
LINE
8
0
10
179.442000
20
485.929000
11
178.213280
21
482.852690
0
LINE
8
0
10
178.213000
20
482.853000
11
176.734510
21
479.893370
0
LINE
8
0
10
176.734000
20
479.893000
11
175.015000
21
477.067250
0
LINE
8
0
10
175.015000
20
477.067000
11
173.063960
21
474.389420
0
LINE
8
0
10
173.064000
20
474.390000
11
170.889920
21
471.879110
0
LINE
8
0
10
170.890000
20
471.879000
11
168.501610
21
469.548020
0
LINE
8
0
10
168.502000
20
469.548000
11
165.908030
21
467.412820
0
LINE
8
0
10
165.908000
20
467.413000
11
163.117440
21
465.492130
0
LINE
8
0
10
163.117000
20
465.492000
11
160.138850
21
463.798670
0
LINE
8
0
10
160.139000
20
463.799000
11
156.981470
21
462.349090
0
LINE
8
0
10
156.982000
20
462.349000
11
156.167084
21
465.394350
0
LINE
8
0
10
156.167000
20
465.394000
11
142.033000
21
461.605170
0
LINE
8
0
10
142.033000
20
461.605000
11
127.899000
21
465.393830
0
LINE
8
0
10
196.867000
20
605.685000
11
197.682000
21
608.728000
0
LINE
8
0
10
197.682000
20
608.728000
11
200.839270
21
607.279670
0
LINE
8
0
10
200.839000
20
607.280000
11
203.817410
21
605.587200
0
LINE
8
0
10
203.818000
20
605.587000
11
206.608560
21
603.665330
0
LINE
8
0
10
206.608000
20
603.666000
11
209.201710
21
601.531610
0
LINE
8
0
10
209.202000
20
601.531000
11
211.590390
21
599.199760
0
LINE
8
0
10
211.590000
20
599.200000
11
213.764080
21
596.687780
0
LINE
8
0
10
213.765000
20
596.688000
11
215.716040
21
594.010950
0
LINE
8
0
10
215.716000
20
594.011000
11
217.435000
21
591.184720
0
LINE
8
0
10
217.435000
20
591.185000
11
218.913490
21
588.225900
0
LINE
8
0
10
218.913000
20
588.225000
11
220.141720
21
585.148690
0
LINE
8
0
10
220.142000
20
585.149000
11
221.112490
21
581.971620
0
LINE
8
0
10
221.112000
20
581.972000
11
221.815526
21
578.709430
0
LINE
8
0
10
221.816000
20
578.709000
11
222.243302
21
575.377110
0
LINE
8
0
10
222.243000
20
575.377000
11
222.385610
21
571.991930
0
LINE
8
0
10
222.386000
20
571.992000
11
222.234923
21
568.569620
0
LINE
8
0
10
222.235000
20
568.570000
11
221.781505
21
565.125920
0
LINE
8
0
10
221.781000
20
565.126000
11
221.030113
21
561.734580
0
LINE
8
0
10
221.030000
20
561.734000
11
220.002620
21
558.465870
0
LINE
8
0
10
220.003000
20
558.466000
11
218.712100
21
555.333340
0
LINE
8
0
10
218.712000
20
555.334000
11
217.171860
21
552.348710
0
LINE
8
0
10
217.172000
20
552.348000
11
215.396120
21
549.521990
0
LINE
8
0
10
215.396000
20
549.522000
11
213.398130
21
546.867700
0
LINE
8
0
10
213.398000
20
546.868000
11
211.191910
21
544.396790
0
LINE
8
0
10
211.192000
20
544.397000
11
208.791440
21
542.121320
0
LINE
8
0
10
208.791000
20
542.121000
11
206.209460
21
540.052490
0
LINE
8
0
10
206.210000
20
540.053000
11
203.461780
21
538.203560
0
LINE
8
0
10
203.462000
20
538.203000
11
200.560320
21
536.585070
0
LINE
8
0
10
200.560000
20
536.585000
11
197.518620
21
535.210230
0
LINE
8
0
10
197.519000
20
535.210000
11
194.351940
21
534.090550
0
LINE
8
0
10
194.352000
20
534.091000
11
191.072760
21
533.238514
0
LINE
8
0
10
191.072000
20
533.238000
11
187.694600
21
532.664913
0
LINE
8
0
10
187.695000
20
532.665000
11
184.232670
21
532.382955
0
LINE
8
0
10
184.233000
20
532.383000
11
184.233000
21
530.539000
0
LINE
8
0
10
184.233000
20
530.539000
11
181.233000
21
530.539000
0
LINE
8
0
10
181.233000
20
530.539000
11
181.233000
21
532.383000
0
LINE
8
0
10
181.233000
20
532.383000
11
177.770670
21
532.665045
0
LINE
8
0
10
177.770000
20
532.665000
11
174.392600
21
533.238351
0
LINE
8
0
10
174.393000
20
533.238000
11
171.113760
21
534.090222
0
LINE
8
0
10
171.114000
20
534.091000
11
167.946940
21
535.210720
0
LINE
8
0
10
167.947000
20
535.210000
11
164.905620
21
536.584770
0
LINE
8
0
10
164.905000
20
536.585000
11
162.003320
21
538.202930
0
LINE
8
0
10
162.004000
20
538.203000
11
159.255780
21
540.052170
0
LINE
8
0
10
159.255000
20
540.052000
11
156.673730
21
542.120510
0
LINE
8
0
10
156.674000
20
542.121000
11
154.273170
21
544.396940
0
LINE
8
0
10
154.273000
20
544.397000
11
152.067170
21
546.868210
0
LINE
8
0
10
152.067000
20
546.868000
11
150.069130
21
549.522300
0
LINE
8
0
10
150.070000
20
549.522000
11
148.294120
21
552.348010
0
LINE
8
0
10
148.294000
20
552.348000
11
146.753860
21
555.333290
0
LINE
8
0
10
146.754000
20
555.334000
11
145.463100
21
558.466660
0
LINE
8
0
10
145.463000
20
558.466000
11
144.435620
21
561.734130
0
LINE
8
0
10
144.435000
20
561.734000
11
143.684113
21
565.125420
0
LINE
8
0
10
143.684000
20
565.126000
11
143.230505
21
568.569810
0
LINE
8
0
10
143.231000
20
568.570000
11
143.080188
21
571.992650
0
LINE
8
0
10
143.080000
20
571.992000
11
143.222346
21
575.377070
0
LINE
8
0
10
143.222000
20
575.377000
11
143.649566
21
578.708890
0
LINE
8
0
10
143.650000
20
578.709000
11
144.353262
21
581.971570
0
LINE
8
0
10
144.353000
20
581.972000
11
145.323490
21
585.149380
0
LINE
8
0
10
145.324000
20
585.149000
11
146.552720
21
588.225310
0
LINE
8
0
10
146.553000
20
588.225000
11
148.031490
21
591.184100
0
LINE
8
0
10
148.031000
20
591.185000
11
149.750000
21
594.011010
0
LINE
8
0
10
149.750000
20
594.011000
11
151.701040
21
596.688050
0
LINE
8
0
10
151.701000
20
596.688000
11
153.875080
21
599.200220
0
LINE
8
0
10
153.875000
20
599.200000
11
156.263390
21
601.531240
0
LINE
8
0
10
156.264000
20
601.531000
11
158.857970
21
603.665390
0
LINE
8
0
10
158.857000
20
603.665000
11
161.647560
21
605.586670
0
LINE
8
0
10
161.648000
20
605.587000
11
164.626000
21
607.280000
0
LINE
8
0
10
164.626000
20
607.280000
11
167.783530
21
608.728060
0
LINE
8
0
10
167.784000
20
608.728000
11
168.599445
21
605.684770
0
LINE
8
0
10
168.599000
20
605.685000
11
182.733000
21
609.472000
0
LINE
8
0
10
182.733000
20
609.472000
11
196.867000
21
605.685000
0
LINE
8
0
10
280.198000
20
605.685000
11
281.015561
21
608.728230
0
LINE
8
0
10
281.016000
20
608.728000
11
284.172480
21
607.279670
0
LINE
8
0
10
284.172000
20
607.280000
11
287.151200
21
605.587200
0
LINE
8
0
10
287.152000
20
605.587000
11
289.940700
21
603.665330
0
LINE
8
0
10
289.940000
20
603.666000
11
292.535560
21
601.531610
0
LINE
8
0
10
292.536000
20
601.531000
11
294.922540
21
599.199760
0
LINE
8
0
10
294.922000
20
599.200000
11
297.096870
21
596.687780
0
LINE
8
0
10
297.097000
20
596.688000
11
299.046980
21
594.010950
0
LINE
8
0
10
299.047000
20
594.011000
11
300.766790
21
591.184720
0
LINE
8
0
10
300.767000
20
591.185000
11
302.246020
21
588.225900
0
LINE
8
0
10
302.246000
20
588.225000
11
303.473670
21
585.148690
0
LINE
8
0
10
303.474000
20
585.149000
11
304.445020
21
581.971620
0
LINE
8
0
10
304.445000
20
581.972000
11
305.148791
21
578.709430
0
LINE
8
0
10
305.149000
20
578.709000
11
305.577624
21
575.377110
0
LINE
8
0
10
305.577000
20
575.377000
11
305.717229
21
571.991930
0
LINE
8
0
10
305.717000
20
571.992000
11
305.566188
21
568.569620
0
LINE
8
0
10
305.567000
20
568.570000
11
305.114563
21
565.125920
0
LINE
8
0
10
305.114000
20
565.126000
11
304.362584
21
561.734580
0
LINE
8
0
10
304.363000
20
561.734000
11
303.336420
21
558.465870
0
LINE
8
0
10
303.336000
20
558.466000
11
302.044830
21
555.333340
0
LINE
8
0
10
302.045000
20
555.334000
11
300.505130
21
552.348710
0
LINE
8
0
10
300.505000
20
552.348000
11
298.729650
21
549.521990
0
LINE
8
0
10
298.730000
20
549.522000
11
296.732400
21
546.867700
0
LINE
8
0
10
296.732000
20
546.868000
11
294.525380
21
544.396790
0
LINE
8
0
10
294.526000
20
544.397000
11
292.123590
21
542.121320
0
LINE
8
0
10
292.123000
20
542.121000
11
289.543320
21
540.052490
0
LINE
8
0
10
289.543000
20
540.053000
11
286.793980
21
538.203560
0
LINE
8
0
10
286.794000
20
538.203000
11
283.891520
21
536.585070
0
LINE
8
0
10
283.892000
20
536.585000
11
280.851940
21
535.210230
0
LINE
8
0
10
280.852000
20
535.210000
11
277.684940
21
534.090550
0
LINE
8
0
10
277.685000
20
534.091000
11
274.404170
21
533.238514
0
LINE
8
0
10
274.404000
20
533.238000
11
271.027920
21
532.664913
0
LINE
8
0
10
271.028000
20
532.665000
11
267.564610
21
532.382955
0
LINE
8
0
10
267.565000
20
532.383000
11
267.565000
21
530.539000
0
LINE
8
0
10
267.565000
20
530.539000
11
264.564000
21
530.539000
0
LINE
8
0
10
264.564000
20
530.539000
11
264.564000
21
532.383000
0
LINE
8
0
10
264.564000
20
532.383000
11
261.103250
21
532.665045
0
LINE
8
0
10
261.103000
20
532.665000
11
257.724280
21
533.238351
0
LINE
8
0
10
257.725000
20
533.238000
11
254.446820
21
534.090222
0
LINE
8
0
10
254.447000
20
534.091000
11
251.279940
21
535.210720
0
LINE
8
0
10
251.280000
20
535.210000
11
248.238880
21
536.584770
0
LINE
8
0
10
248.238000
20
536.585000
11
245.336320
21
538.202930
0
LINE
8
0
10
245.337000
20
538.203000
11
242.588510
21
540.052170
0
LINE
8
0
10
242.588000
20
540.052000
11
240.006730
21
542.120510
0
LINE
8
0
10
240.007000
20
542.121000
11
237.606440
21
544.396940
0
LINE
8
0
10
237.606000
20
544.397000
11
235.399910
21
546.868210
0
LINE
8
0
10
235.400000
20
546.868000
11
233.402130
21
549.522300
0
LINE
8
0
10
233.402000
20
549.522000
11
231.626120
21
552.348010
0
LINE
8
0
10
231.627000
20
552.348000
11
230.086860
21
555.333290
0
LINE
8
0
10
230.086000
20
555.334000
11
228.795360
21
558.466660
0
LINE
8
0
10
228.796000
20
558.466000
11
227.768360
21
561.734130
0
LINE
8
0
10
227.768000
20
561.734000
11
227.017378
21
565.125420
0
LINE
8
0
10
227.018000
20
565.126000
11
226.564505
21
568.569810
0
LINE
8
0
10
226.564000
20
568.570000
11
226.412923
21
571.992650
0
LINE
8
0
10
226.413000
20
571.992000
11
226.555610
21
575.377070
0
LINE
8
0
10
226.556000
20
575.377000
11
226.983302
21
578.708890
0
LINE
8
0
10
226.983000
20
578.709000
11
227.686262
21
581.971570
0
LINE
8
0
10
227.686000
20
581.972000
11
228.656490
21
585.149380
0
LINE
8
0
10
228.657000
20
585.149000
11
229.885990
21
588.225310
0
LINE
8
0
10
229.886000
20
588.225000
11
231.364230
21
591.184100
0
LINE
8
0
10
231.364000
20
591.185000
11
233.083260
21
594.011010
0
LINE
8
0
10
233.083000
20
594.011000
11
235.034040
21
596.688050
0
LINE
8
0
10
235.034000
20
596.688000
11
237.208080
21
599.200220
0
LINE
8
0
10
237.208000
20
599.200000
11
239.596390
21
601.531240
0
LINE
8
0
10
239.597000
20
601.531000
11
242.190710
21
603.665390
0
LINE
8
0
10
242.190000
20
603.665000
11
244.980560
21
605.586670
0
LINE
8
0
10
244.981000
20
605.587000
11
247.959000
21
607.280000
0
LINE
8
0
10
247.959000
20
607.280000
11
251.115210
21
608.728060
0
LINE
8
0
10
251.115000
20
608.728000
11
251.932561
21
605.684770
0
LINE
8
0
10
251.933000
20
605.685000
11
266.067000
21
609.472240
0
LINE
8
0
10
266.067000
20
609.472000
11
280.198400
21
605.685020
0
LINE
8
0
10
294.565000
20
465.394000
11
293.750084
21
462.348650
0
LINE
8
0
10
293.750000
20
462.349000
11
290.593520
21
463.798910
0
LINE
8
0
10
290.594000
20
463.799000
11
287.614800
21
465.492330
0
LINE
8
0
10
287.615000
20
465.492000
11
284.823650
21
467.412870
0
LINE
8
0
10
284.823000
20
467.413000
11
282.230090
21
469.548180
0
LINE
8
0
10
282.230000
20
469.548000
11
279.840820
21
471.878980
0
LINE
8
0
10
279.841000
20
471.879000
11
277.666130
21
474.389890
0
LINE
8
0
10
277.666000
20
474.390000
11
275.716020
21
477.067580
0
LINE
8
0
10
275.716000
20
477.067000
11
273.996210
21
479.892750
0
LINE
8
0
10
273.997000
20
479.893000
11
272.520630
21
482.852630
0
LINE
8
0
10
272.520000
20
482.853000
11
271.289690
21
485.929310
0
LINE
8
0
10
271.290000
20
485.929000
11
270.318980
21
489.106380
0
LINE
8
0
10
270.319000
20
489.107000
11
269.615209
21
492.369570
0
LINE
8
0
10
269.615000
20
492.369000
11
269.189021
21
495.700890
0
LINE
8
0
10
269.189000
20
495.701000
11
269.046125
21
499.086340
0
LINE
8
0
10
269.046000
20
499.086000
11
269.196812
21
502.508380
0
LINE
8
0
10
269.197000
20
502.509000
11
269.652083
21
505.953080
0
LINE
8
0
10
269.652000
20
505.953000
11
270.400770
21
509.344420
0
LINE
8
0
10
270.401000
20
509.344000
11
271.430230
21
512.612130
0
LINE
8
0
10
271.430000
20
512.612000
11
272.721170
21
515.744660
0
LINE
8
0
10
272.721000
20
515.745000
11
274.260870
21
518.730290
0
LINE
8
0
10
274.261000
20
518.730000
11
276.036350
21
521.555750
0
LINE
8
0
10
276.037000
20
521.556000
11
278.034600
21
524.210560
0
LINE
8
0
10
278.034000
20
524.211000
11
280.240620
21
526.682210
0
LINE
8
0
10
280.241000
20
526.682000
11
282.640770
21
528.957680
0
LINE
8
0
10
282.641000
20
528.957000
11
285.223330
21
531.025510
0
LINE
8
0
10
285.223000
20
531.026000
11
287.969370
21
532.875170
0
LINE
8
0
10
287.969000
20
532.875000
11
290.871480
21
534.493190
0
LINE
8
0
10
290.872000
20
534.493000
11
293.914700
21
535.867510
0
LINE
8
0
10
293.914000
20
535.868000
11
297.081060
21
536.987720
0
LINE
8
0
10
297.081000
20
536.988000
11
300.359180
21
537.840222
0
LINE
8
0
10
300.360000
20
537.840000
11
303.738720
21
538.413351
0
LINE
8
0
10
303.738000
20
538.413000
11
307.198750
21
538.695045
0
LINE
8
0
10
307.199000
20
538.695000
11
307.199000
21
540.539000
0
LINE
8
0
10
307.199000
20
540.539000
11
310.199000
21
540.539000
0
LINE
8
0
10
310.199000
20
540.539000
11
310.199000
21
538.695000
0
LINE
8
0
10
310.199000
20
538.695000
11
313.659750
21
538.412955
0
LINE
8
0
10
313.660000
20
538.413000
11
317.038720
21
537.839649
0
LINE
8
0
10
317.039000
20
537.840000
11
320.317180
21
536.987778
0
LINE
8
0
10
320.317000
20
536.988000
11
323.484060
21
535.868280
0
LINE
8
0
10
323.484000
20
535.868000
11
326.526700
21
534.493490
0
LINE
8
0
10
326.527000
20
534.493000
11
329.426830
21
532.874810
0
LINE
8
0
10
329.427000
20
532.875000
11
332.176020
21
531.025830
0
LINE
8
0
10
332.176000
20
531.026000
11
334.758330
21
528.957490
0
LINE
8
0
10
334.758000
20
528.957000
11
337.157770
21
526.681320
0
LINE
8
0
10
337.158000
20
526.682000
11
339.364620
21
524.210790
0
LINE
8
0
10
339.364000
20
524.211000
11
341.361600
21
521.556440
0
LINE
8
0
10
341.362000
20
521.556000
11
343.137350
21
518.730250
0
LINE
8
0
10
343.137000
20
518.730000
11
344.676870
21
515.744710
0
LINE
8
0
10
344.677000
20
515.745000
11
345.968170
21
512.612340
0
LINE
8
0
10
345.968000
20
512.612000
11
346.994580
21
509.343870
0
LINE
8
0
10
346.995000
20
509.344000
11
347.746416
21
505.952580
0
LINE
8
0
10
347.746000
20
505.953000
11
348.201083
21
502.508920
0
LINE
8
0
10
348.202000
20
502.509000
11
348.352812
21
499.086620
0
LINE
8
0
10
348.352000
20
499.086000
11
348.209125
21
495.700660
0
LINE
8
0
10
348.209000
20
495.701000
11
347.780376
21
492.369110
0
LINE
8
0
10
347.781000
20
492.369000
11
347.077209
21
489.106430
0
LINE
8
0
10
347.077000
20
489.107000
11
346.108626
21
485.929620
0
LINE
8
0
10
346.109000
20
485.929000
11
344.878690
21
482.852690
0
LINE
8
0
10
344.878000
20
482.853000
11
343.398980
21
479.893370
0
LINE
8
0
10
343.399000
20
479.893000
11
341.681860
21
477.067250
0
LINE
8
0
10
341.682000
20
477.067000
11
339.729380
21
474.389420
0
LINE
8
0
10
339.730000
20
474.390000
11
337.557770
21
471.879110
0
LINE
8
0
10
337.557000
20
471.879000
11
335.167820
21
469.548020
0
LINE
8
0
10
335.168000
20
469.548000
11
332.575090
21
467.412820
0
LINE
8
0
10
332.575000
20
467.413000
11
329.783650
21
465.492130
0
LINE
8
0
10
329.784000
20
465.492000
11
326.804800
21
463.798670
0
LINE
8
0
10
326.805000
20
463.799000
11
323.648520
21
462.349090
0
LINE
8
0
10
323.648000
20
462.349000
11
322.833084
21
465.394350
0
LINE
8
0
10
322.833000
20
465.394000
11
308.699000
21
461.605170
0
LINE
8
0
10
308.699000
20
461.605000
11
294.565000
21
465.393830
0
LINE
8
0
10
377.898000
20
465.394000
11
377.083084
21
462.348650
0
LINE
8
0
10
377.083000
20
462.349000
11
373.923880
21
463.798910
0
LINE
8
0
10
373.924000
20
463.799000
11
370.947440
21
465.492330
0
LINE
8
0
10
370.948000
20
465.492000
11
368.156650
21
467.412870
0
LINE
8
0
10
368.156000
20
467.413000
11
365.563090
21
469.548180
0
LINE
8
0
10
365.563000
20
469.548000
11
363.173820
21
471.878980
0
LINE
8
0
10
363.174000
20
471.879000
11
360.999130
21
474.389890
0
LINE
8
0
10
360.999000
20
474.390000
11
359.049020
21
477.067580
0
LINE
8
0
10
359.049000
20
477.067000
11
357.329210
21
479.892750
0
LINE
8
0
10
357.330000
20
479.893000
11
355.850980
21
482.852630
0
LINE
8
0
10
355.851000
20
482.853000
11
354.623330
21
485.929310
0
LINE
8
0
10
354.623000
20
485.929000
11
353.651980
21
489.106380
0
LINE
8
0
10
353.652000
20
489.107000
11
352.948209
21
492.369570
0
LINE
8
0
10
352.948000
20
492.369000
11
352.522021
21
495.700890
0
LINE
8
0
10
352.522000
20
495.701000
11
352.379125
21
499.086340
0
LINE
8
0
10
352.379000
20
499.086000
11
352.529812
21
502.508380
0
LINE
8
0
10
352.530000
20
502.509000
11
352.985083
21
505.953080
0
LINE
8
0
10
352.985000
20
505.953000
11
353.733770
21
509.344420
0
LINE
8
0
10
353.734000
20
509.344000
11
354.763230
21
512.612130
0
LINE
8
0
10
354.763000
20
512.612000
11
356.051520
21
515.744660
0
LINE
8
0
10
356.052000
20
515.745000
11
357.594520
21
518.730290
0
LINE
8
0
10
357.594000
20
518.730000
11
359.369350
21
521.555750
0
LINE
8
0
10
359.370000
20
521.556000
11
361.367600
21
524.210560
0
LINE
8
0
10
361.367000
20
524.211000
11
363.573620
21
526.682210
0
LINE
8
0
10
363.574000
20
526.682000
11
365.973770
21
528.957680
0
LINE
8
0
10
365.974000
20
528.957000
11
368.556330
21
531.025510
0
LINE
8
0
10
368.556000
20
531.026000
11
371.302370
21
532.875170
0
LINE
8
0
10
371.302000
20
532.875000
11
374.204480
21
534.493190
0
LINE
8
0
10
374.205000
20
534.493000
11
377.247700
21
535.867770
0
LINE
8
0
10
377.247000
20
535.868000
11
380.414060
21
536.987450
0
LINE
8
0
10
380.415000
20
536.988000
11
383.693180
21
537.840222
0
LINE
8
0
10
383.693000
20
537.840000
11
387.071720
21
538.413351
0
LINE
8
0
10
387.071000
20
538.413000
11
390.531750
21
538.695045
0
LINE
8
0
10
390.532000
20
538.695000
11
390.532000
21
540.539000
0
LINE
8
0
10
390.532000
20
540.539000
11
393.533000
21
540.539000
0
LINE
8
0
10
393.533000
20
540.539000
11
393.533000
21
538.695000
0
LINE
8
0
10
393.533000
20
538.695000
11
396.993750
21
538.412955
0
LINE
8
0
10
396.993000
20
538.413000
11
400.371720
21
537.839649
0
LINE
8
0
10
400.372000
20
537.840000
11
403.650180
21
536.987778
0
LINE
8
0
10
403.650000
20
536.988000
11
406.817060
21
535.868280
0
LINE
8
0
10
406.817000
20
535.868000
11
409.859700
21
534.493490
0
LINE
8
0
10
409.860000
20
534.493000
11
412.762480
21
532.874810
0
LINE
8
0
10
412.762000
20
532.875000
11
415.508370
21
531.025830
0
LINE
8
0
10
415.509000
20
531.026000
11
418.091330
21
528.957490
0
LINE
8
0
10
418.091000
20
528.957000
11
420.490770
21
526.681320
0
LINE
8
0
10
420.491000
20
526.682000
11
422.697620
21
524.210790
0
LINE
8
0
10
422.698000
20
524.211000
11
424.695600
21
521.556440
0
LINE
8
0
10
424.695000
20
521.556000
11
426.470350
21
518.730250
0
LINE
8
0
10
426.470000
20
518.730000
11
428.012520
21
515.744710
0
LINE
8
0
10
428.013000
20
515.745000
11
429.301520
21
512.612340
0
LINE
8
0
10
429.302000
20
512.612000
11
430.331230
21
509.343870
0
LINE
8
0
10
430.331000
20
509.344000
11
431.079770
21
505.952580
0
LINE
8
0
10
431.080000
20
505.953000
11
431.535083
21
502.508920
0
LINE
8
0
10
431.535000
20
502.509000
11
431.685812
21
499.086620
0
LINE
8
0
10
431.685000
20
499.086000
11
431.542125
21
495.700660
0
LINE
8
0
10
431.543000
20
495.701000
11
431.117021
21
492.369110
0
LINE
8
0
10
431.117000
20
492.369000
11
430.413209
21
489.106430
0
LINE
8
0
10
430.413000
20
489.107000
11
429.441980
21
485.929620
0
LINE
8
0
10
429.442000
20
485.929000
11
428.214330
21
482.852690
0
LINE
8
0
10
428.214000
20
482.853000
11
426.734980
21
479.893370
0
LINE
8
0
10
426.735000
20
479.893000
11
425.015210
21
477.067250
0
LINE
8
0
10
425.015000
20
477.067000
11
423.065020
21
474.389420
0
LINE
8
0
10
423.065000
20
474.390000
11
420.890130
21
471.879110
0
LINE
8
0
10
420.890000
20
471.879000
11
418.500820
21
469.548020
0
LINE
8
0
10
418.501000
20
469.548000
11
415.908090
21
467.412820
0
LINE
8
0
10
415.908000
20
467.413000
11
413.116650
21
465.492130
0
LINE
8
0
10
413.117000
20
465.492000
11
410.137800
21
463.798670
0
LINE
8
0
10
410.138000
20
463.799000
11
406.981520
21
462.349090
0
LINE
8
0
10
406.981000
20
462.349000
11
406.166084
21
465.394350
0
LINE
8
0
10
406.166000
20
465.394000
11
392.032000
21
461.605170
0
LINE
8
0
10
392.032000
20
461.605000
11
377.898000
21
465.393830
0
LINE
8
0
10
363.531000
20
605.685000
11
364.348561
21
608.728230
0
LINE
8
0
10
364.349000
20
608.728000
11
367.505480
21
607.279670
0
LINE
8
0
10
367.506000
20
607.280000
11
370.485200
21
605.587200
0
LINE
8
0
10
370.485000
20
605.587000
11
373.273700
21
603.665330
0
LINE
8
0
10
373.273000
20
603.666000
11
375.868560
21
601.531610
0
LINE
8
0
10
375.869000
20
601.531000
11
378.255540
21
599.199760
0
LINE
8
0
10
378.256000
20
599.200000
11
380.430870
21
596.687780
0
LINE
8
0
10
380.430000
20
596.688000
11
382.379980
21
594.010950
0
LINE
8
0
10
382.380000
20
594.011000
11
384.099790
21
591.184720
0
LINE
8
0
10
384.100000
20
591.185000
11
385.579020
21
588.225900
0
LINE
8
0
10
385.579000
20
588.225000
11
386.806670
21
585.148690
0
LINE
8
0
10
386.807000
20
585.149000
11
387.778020
21
581.971620
0
LINE
8
0
10
387.778000
20
581.972000
11
388.481791
21
578.709430
0
LINE
8
0
10
388.482000
20
578.709000
11
388.907979
21
575.377110
0
LINE
8
0
10
388.908000
20
575.377000
11
389.050875
21
571.991930
0
LINE
8
0
10
389.051000
20
571.992000
11
388.900188
21
568.569620
0
LINE
8
0
10
388.900000
20
568.570000
11
388.447563
21
565.125920
0
LINE
8
0
10
388.447000
20
565.126000
11
387.695584
21
561.734580
0
LINE
8
0
10
387.696000
20
561.734000
11
386.669420
21
558.465870
0
LINE
8
0
10
386.669000
20
558.466000
11
385.377830
21
555.333340
0
LINE
8
0
10
385.378000
20
555.334000
11
383.838130
21
552.348710
0
LINE
8
0
10
383.838000
20
552.348000
11
382.062650
21
549.521990
0
LINE
8
0
10
382.063000
20
549.522000
11
380.062750
21
546.867700
0
LINE
8
0
10
380.063000
20
546.868000
11
377.859020
21
544.396790
0
LINE
8
0
10
377.859000
20
544.397000
11
375.456590
21
542.121320
0
LINE
8
0
10
375.456000
20
542.121000
11
372.876320
21
540.052490
0
LINE
8
0
10
372.877000
20
540.053000
11
370.127980
21
538.203560
0
LINE
8
0
10
370.128000
20
538.203000
11
367.225520
21
536.585070
0
LINE
8
0
10
367.225000
20
536.585000
11
364.184940
21
535.210230
0
LINE
8
0
10
364.185000
20
535.210000
11
361.017940
21
534.090550
0
LINE
8
0
10
361.018000
20
534.091000
11
357.737170
21
533.238514
0
LINE
8
0
10
357.737000
20
533.238000
11
354.360920
21
532.664913
0
LINE
8
0
10
354.361000
20
532.665000
11
350.897610
21
532.382955
0
LINE
8
0
10
350.898000
20
532.383000
11
350.898000
21
530.539000
0
LINE
8
0
10
350.898000
20
530.539000
11
347.897000
21
530.539000
0
LINE
8
0
10
347.897000
20
530.539000
11
347.897000
21
532.383000
0
LINE
8
0
10
347.897000
20
532.383000
11
344.436250
21
532.665045
0
LINE
8
0
10
344.437000
20
532.665000
11
341.058280
21
533.238351
0
LINE
8
0
10
341.058000
20
533.238000
11
337.779820
21
534.090222
0
LINE
8
0
10
337.780000
20
534.091000
11
334.612940
21
535.210720
0
LINE
8
0
10
334.613000
20
535.210000
11
331.572940
21
536.584770
0
LINE
8
0
10
331.573000
20
536.585000
11
328.670520
21
538.202930
0
LINE
8
0
10
328.670000
20
538.203000
11
325.920980
21
540.052170
0
LINE
8
0
10
325.921000
20
540.052000
11
323.338670
21
542.120510
0
LINE
8
0
10
323.339000
20
542.121000
11
320.939230
21
544.396940
0
LINE
8
0
10
320.939000
20
544.397000
11
318.732380
21
546.868210
0
LINE
8
0
10
318.732000
20
546.868000
11
316.734400
21
549.522300
0
LINE
8
0
10
316.735000
20
549.522000
11
314.959650
21
552.348010
0
LINE
8
0
10
314.959000
20
552.348000
11
313.419130
21
555.333290
0
LINE
8
0
10
313.419000
20
555.334000
11
312.127830
21
558.466660
0
LINE
8
0
10
312.128000
20
558.466000
11
311.101420
21
561.734130
0
LINE
8
0
10
311.102000
20
561.734000
11
310.350584
21
565.125420
0
LINE
8
0
10
310.350000
20
565.126000
11
309.897563
21
568.569810
0
LINE
8
0
10
309.898000
20
568.570000
11
309.747188
21
571.992650
0
LINE
8
0
10
309.747000
20
571.992000
11
309.887229
21
575.377070
0
LINE
8
0
10
309.887000
20
575.377000
11
310.315624
21
578.708890
0
LINE
8
0
10
310.316000
20
578.709000
11
311.019791
21
581.971570
0
LINE
8
0
10
311.020000
20
581.972000
11
311.991020
21
585.149380
0
LINE
8
0
10
311.991000
20
585.149000
11
313.218670
21
588.225310
0
LINE
8
0
10
313.218000
20
588.225000
11
314.697020
21
591.184100
0
LINE
8
0
10
314.697000
20
591.185000
11
316.414140
21
594.011010
0
LINE
8
0
10
316.415000
20
594.011000
11
318.367620
21
596.688050
0
LINE
8
0
10
318.367000
20
596.688000
11
320.541870
21
599.200220
0
LINE
8
0
10
320.542000
20
599.200000
11
322.928540
21
601.531240
0
LINE
8
0
10
322.929000
20
601.531000
11
325.524560
21
603.665390
0
LINE
8
0
10
325.524000
20
603.665000
11
328.312700
21
605.586670
0
LINE
8
0
10
328.313000
20
605.587000
11
331.292200
21
607.280070
0
LINE
8
0
10
331.292000
20
607.280000
11
334.448480
21
608.728060
0
LINE
8
0
10
334.449000
20
608.728000
11
335.266561
21
605.684770
0
LINE
8
0
10
335.266000
20
605.685000
11
349.397400
21
609.472240
0
LINE
8
0
10
349.397000
20
609.472000
11
363.531000
21
605.685020
0
LINE
8
0
10
446.867000
20
605.685000
11
447.681916
21
608.728230
0
LINE
8
0
10
447.682000
20
608.728000
11
450.838480
21
607.279670
0
LINE
8
0
10
450.839000
20
607.280000
11
453.818200
21
605.587200
0
LINE
8
0
10
453.818000
20
605.587000
11
456.609350
21
603.665330
0
LINE
8
0
10
456.609000
20
603.666000
11
459.201910
21
601.531610
0
LINE
8
0
10
459.202000
20
601.531000
11
461.591180
21
599.199760
0
LINE
8
0
10
461.591000
20
599.200000
11
463.763230
21
596.687780
0
LINE
8
0
10
463.763000
20
596.688000
11
465.715620
21
594.010950
0
LINE
8
0
10
465.716000
20
594.011000
11
467.433140
21
591.184720
0
LINE
8
0
10
467.433000
20
591.185000
11
468.912020
21
588.225900
0
LINE
8
0
10
468.912000
20
588.225000
11
470.142310
21
585.148690
0
LINE
8
0
10
470.143000
20
585.149000
11
471.111374
21
581.971620
0
LINE
8
0
10
471.111000
20
581.972000
11
471.814791
21
578.709430
0
LINE
8
0
10
471.815000
20
578.709000
11
472.243624
21
575.377110
0
LINE
8
0
10
472.243000
20
575.377000
11
472.385875
21
571.991930
0
LINE
8
0
10
472.386000
20
571.992000
11
472.235188
21
568.569620
0
LINE
8
0
10
472.235000
20
568.570000
11
471.779917
21
565.125920
0
LINE
8
0
10
471.780000
20
565.126000
11
471.028584
21
561.734580
0
LINE
8
0
10
471.029000
20
561.734000
11
470.002420
21
558.465870
0
LINE
8
0
10
470.002000
20
558.466000
11
468.710830
21
555.333340
0
LINE
8
0
10
468.711000
20
555.334000
11
467.171130
21
552.348710
0
LINE
8
0
10
467.171000
20
552.348000
11
465.395650
21
549.521990
0
LINE
8
0
10
465.396000
20
549.522000
11
463.398400
21
546.867700
0
LINE
8
0
10
463.398000
20
546.868000
11
461.191380
21
544.396790
0
LINE
8
0
10
461.192000
20
544.397000
11
458.792230
21
542.121320
0
LINE
8
0
10
458.792000
20
542.121000
11
456.209670
21
540.052490
0
LINE
8
0
10
456.210000
20
540.053000
11
453.460980
21
538.203560
0
LINE
8
0
10
453.461000
20
538.203000
11
450.561170
21
536.585070
0
LINE
8
0
10
450.561000
20
536.585000
11
447.518300
21
535.210230
0
LINE
8
0
10
447.518000
20
535.210000
11
444.350940
21
534.090550
0
LINE
8
0
10
444.351000
20
534.091000
11
441.072820
21
533.238514
0
LINE
8
0
10
441.073000
20
533.238000
11
437.694280
21
532.664913
0
LINE
8
0
10
437.694000
20
532.665000
11
434.233250
21
532.382955
0
LINE
8
0
10
434.233000
20
532.383000
11
434.233000
21
530.539000
0
LINE
8
0
10
434.233000
20
530.539000
11
431.233000
21
530.539000
0
LINE
8
0
10
431.233000
20
530.539000
11
431.233000
21
532.383000
0
LINE
8
0
10
431.233000
20
532.383000
11
427.769610
21
532.665045
0
LINE
8
0
10
427.770000
20
532.665000
11
424.393920
21
533.238087
0
LINE
8
0
10
424.394000
20
533.238000
11
421.113170
21
534.090486
0
LINE
8
0
10
421.113000
20
534.091000
11
417.945940
21
535.210450
0
LINE
8
0
10
417.946000
20
535.210000
11
414.905940
21
536.584770
0
LINE
8
0
10
414.906000
20
536.585000
11
412.003520
21
538.202930
0
LINE
8
0
10
412.003000
20
538.203000
11
409.253980
21
540.052170
0
LINE
8
0
10
409.254000
20
540.052000
11
406.674320
21
542.120510
0
LINE
8
0
10
406.674000
20
542.120000
11
404.271590
21
544.395680
0
LINE
8
0
10
404.272000
20
544.396000
11
402.065380
21
546.867210
0
LINE
8
0
10
402.065000
20
546.867000
11
400.067400
21
549.521560
0
LINE
8
0
10
400.068000
20
549.522000
11
398.292650
21
552.347750
0
LINE
8
0
10
398.292000
20
552.348000
11
396.752130
21
555.333290
0
LINE
8
0
10
396.753000
20
555.333000
11
395.461830
21
558.465660
0
LINE
8
0
10
395.461000
20
558.466000
11
394.434420
21
561.734130
0
LINE
8
0
10
394.435000
20
561.734000
11
393.683584
21
565.125420
0
LINE
8
0
10
393.683000
20
565.125000
11
393.230563
21
568.569080
0
LINE
8
0
10
393.231000
20
568.569000
11
393.077542
21
571.991380
0
LINE
8
0
10
393.077000
20
571.992000
11
393.219875
21
575.377340
0
LINE
8
0
10
393.220000
20
575.377000
11
393.648624
21
578.708890
0
LINE
8
0
10
393.649000
20
578.709000
11
394.352791
21
581.971570
0
LINE
8
0
10
394.353000
20
581.971000
11
395.321374
21
585.148380
0
LINE
8
0
10
395.321000
20
585.149000
11
396.551310
21
588.225310
0
LINE
8
0
10
396.551000
20
588.225000
11
398.030020
21
591.184100
0
LINE
8
0
10
398.030000
20
591.184000
11
399.747140
21
594.010280
0
LINE
8
0
10
399.748000
20
594.011000
11
401.700620
21
596.688050
0
LINE
8
0
10
401.700000
20
596.688000
11
403.874870
21
599.200220
0
LINE
8
0
10
403.875000
20
599.200000
11
406.261540
21
601.531240
0
LINE
8
0
10
406.262000
20
601.531000
11
408.857560
21
603.665390
0
LINE
8
0
10
408.857000
20
603.665000
11
411.645700
21
605.586670
0
LINE
8
0
10
411.646000
20
605.587000
11
414.625200
21
607.279800
0
LINE
8
0
10
414.625000
20
607.280000
11
417.781480
21
608.728330
0
LINE
8
0
10
417.782000
20
608.728000
11
418.596916
21
605.684770
0
LINE
8
0
10
418.596000
20
605.685000
11
432.730000
21
609.472240
0
LINE
8
0
10
432.731000
20
609.472000
11
446.867700
21
605.685020
0
LINE
8
0
10
459.898000
20
465.394000
11
459.083084
21
462.348650
0
LINE
8
0
10
459.083000
20
462.349000
11
455.926520
21
463.798910
0
LINE
8
0
10
455.927000
20
463.799000
11
452.947800
21
465.492330
0
LINE
8
0
10
452.947000
20
465.492000
11
450.155650
21
467.412870
0
LINE
8
0
10
450.156000
20
467.413000
11
447.563090
21
469.548180
0
LINE
8
0
10
447.563000
20
469.548000
11
445.173820
21
471.878980
0
LINE
8
0
10
445.174000
20
471.879000
11
442.999130
21
474.389890
0
LINE
8
0
10
442.999000
20
474.390000
11
441.049020
21
477.067580
0
LINE
8
0
10
441.049000
20
477.067000
11
439.329210
21
479.892750
0
LINE
8
0
10
439.329000
20
479.893000
11
437.852630
21
482.852630
0
LINE
8
0
10
437.853000
20
482.853000
11
436.622690
21
485.929310
0
LINE
8
0
10
436.623000
20
485.929000
11
435.651980
21
489.106380
0
LINE
8
0
10
435.652000
20
489.107000
11
434.950855
21
492.369570
0
LINE
8
0
10
434.950000
20
492.369000
11
434.521376
21
495.700890
0
LINE
8
0
10
434.522000
20
495.701000
11
434.379125
21
499.086340
0
LINE
8
0
10
434.379000
20
499.086000
11
434.529812
21
502.508380
0
LINE
8
0
10
434.530000
20
502.509000
11
434.985083
21
505.953080
0
LINE
8
0
10
434.985000
20
505.953000
11
435.733770
21
509.344420
0
LINE
8
0
10
435.734000
20
509.344000
11
436.763230
21
512.612130
0
LINE
8
0
10
436.763000
20
512.612000
11
438.054170
21
515.744660
0
LINE
8
0
10
438.054000
20
515.745000
11
439.593870
21
518.730290
0
LINE
8
0
10
439.594000
20
518.730000
11
441.369350
21
521.555750
0
LINE
8
0
10
441.369000
20
521.556000
11
443.366600
21
524.210560
0
LINE
8
0
10
443.367000
20
524.211000
11
445.573620
21
526.682210
0
LINE
8
0
10
445.573000
20
526.682000
11
447.972770
21
528.957680
0
LINE
8
0
10
447.973000
20
528.957000
11
450.555330
21
531.025510
0
LINE
8
0
10
450.555000
20
531.026000
11
453.304020
21
532.875170
0
LINE
8
0
10
453.304000
20
532.875000
11
456.203830
21
534.493190
0
LINE
8
0
10
456.204000
20
534.493000
11
459.246700
21
535.867510
0
LINE
8
0
10
459.247000
20
535.868000
11
462.414060
21
536.987720
0
LINE
8
0
10
462.414000
20
536.988000
11
465.692180
21
537.840222
0
LINE
8
0
10
465.692000
20
537.840000
11
469.070720
21
538.413351
0
LINE
8
0
10
469.071000
20
538.413000
11
472.531750
21
538.695045
0
LINE
8
0
10
472.532000
20
538.695000
11
472.532000
21
540.539000
0
LINE
8
0
10
472.532000
20
540.539000
11
475.532000
21
540.539000
0
LINE
8
0
10
475.532000
20
540.539000
11
475.532000
21
538.695000
0
LINE
8
0
10
475.532000
20
538.695000
11
478.995390
21
538.412955
0
LINE
8
0
10
478.996000
20
538.413000
11
482.372080
21
537.839649
0
LINE
8
0
10
482.372000
20
537.840000
11
485.652830
21
536.987778
0
LINE
8
0
10
485.652000
20
536.988000
11
488.819060
21
535.868280
0
LINE
8
0
10
488.819000
20
535.868000
11
491.859060
21
534.493490
0
LINE
8
0
10
491.860000
20
534.493000
11
494.762480
21
532.874810
0
LINE
8
0
10
494.762000
20
532.875000
11
497.508370
21
531.025830
0
LINE
8
0
10
497.508000
20
531.026000
11
500.090330
21
528.957490
0
LINE
8
0
10
500.091000
20
528.957000
11
502.490770
21
526.681320
0
LINE
8
0
10
502.490000
20
526.682000
11
504.696620
21
524.210790
0
LINE
8
0
10
504.697000
20
524.211000
11
506.694600
21
521.556440
0
LINE
8
0
10
506.695000
20
521.556000
11
508.473000
21
518.730250
0
LINE
8
0
10
508.473000
20
518.730000
11
510.012870
21
515.744710
0
LINE
8
0
10
510.013000
20
515.745000
11
511.301520
21
512.612340
0
LINE
8
0
10
511.301000
20
512.612000
11
512.330230
21
509.343870
0
LINE
8
0
10
512.330000
20
509.344000
11
513.081416
21
505.952580
0
LINE
8
0
10
513.082000
20
505.953000
11
513.534437
21
502.508920
0
LINE
8
0
10
513.534000
20
502.509000
11
513.684812
21
499.086620
0
LINE
8
0
10
513.685000
20
499.086000
11
513.542125
21
495.700660
0
LINE
8
0
10
513.542000
20
495.701000
11
513.116021
21
492.369110
0
LINE
8
0
10
513.116000
20
492.369000
11
512.412209
21
489.106430
0
LINE
8
0
10
512.412000
20
489.107000
11
511.440980
21
485.929620
0
LINE
8
0
10
511.441000
20
485.929000
11
510.213330
21
482.852690
0
LINE
8
0
10
510.214000
20
482.853000
11
508.734980
21
479.893370
0
LINE
8
0
10
508.735000
20
479.893000
11
507.015210
21
477.067250
0
LINE
8
0
10
507.015000
20
477.067000
11
505.065020
21
474.389420
0
LINE
8
0
10
505.065000
20
474.390000
11
502.890130
21
471.879110
0
LINE
8
0
10
502.890000
20
471.879000
11
500.500820
21
469.548020
0
LINE
8
0
10
500.501000
20
469.548000
11
497.908090
21
467.412820
0
LINE
8
0
10
497.908000
20
467.413000
11
495.116650
21
465.492130
0
LINE
8
0
10
495.117000
20
465.492000
11
492.140440
21
463.798670
0
LINE
8
0
10
492.140000
20
463.799000
11
488.980880
21
462.349090
0
LINE
8
0
10
488.981000
20
462.349000
11
488.166084
21
465.394350
0
LINE
8
0
10
488.166000
20
465.394000
11
474.032000
21
461.605170
0
LINE
8
0
10
474.032000
20
461.605000
11
459.898000
21
465.393830
0
LINE
8
0
10
226.533000
20
528.824000
11
226.295669
21
529.990020
0
LINE
8
0
10
226.295000
20
529.990000
11
225.651799
21
530.941705
0
LINE
8
0
10
225.652000
20
530.941000
11
224.698972
21
531.582614
0
LINE
8
0
10
224.699000
20
531.583000
11
223.532720
21
531.818214
0
LINE
8
0
10
223.533000
20
531.818000
11
222.366450
21
531.582786
0
LINE
8
0
10
222.366000
20
531.583000
11
221.412972
21
530.941386
0
LINE
8
0
10
221.413000
20
530.941000
11
220.769799
21
529.989295
0
LINE
8
0
10
220.770000
20
529.990000
11
220.532669
21
528.823980
0
LINE
8
0
10
220.533000
20
528.824000
11
220.770331
21
527.657980
0
LINE
8
0
10
220.770000
20
527.658000
11
221.413201
21
526.706295
0
LINE
8
0
10
221.413000
20
526.706000
11
222.366028
21
526.064386
0
LINE
8
0
10
222.366000
20
526.064000
11
223.532550
21
525.828786
0
LINE
8
0
10
223.533000
20
525.829000
11
224.699280
21
526.064214
0
LINE
8
0
10
224.699000
20
526.064000
11
225.652028
21
526.705614
0
LINE
8
0
10
225.652000
20
526.706000
11
226.295201
21
527.657705
0
LINE
8
0
10
226.295000
20
527.658000
11
226.532331
21
528.824020
0
LINE
8
0
10
226.533000
20
528.824000
11
226.533000
21
528.824000
0
LINE
8
0
10
209.399000
20
465.394000
11
208.583555
21
462.348650
0
LINE
8
0
10
208.583000
20
462.349000
11
205.425470
21
463.798910
0
LINE
8
0
10
205.426000
20
463.799000
11
202.447850
21
465.492330
0
LINE
8
0
10
202.448000
20
465.492000
11
199.657440
21
467.412870
0
LINE
8
0
10
199.657000
20
467.413000
11
197.063030
21
469.548180
0
LINE
8
0
10
197.063000
20
469.548000
11
194.674610
21
471.878980
0
LINE
8
0
10
194.675000
20
471.879000
11
192.500920
21
474.389890
0
LINE
8
0
10
192.501000
20
474.390000
11
190.549960
21
477.067580
0
LINE
8
0
10
190.550000
20
477.067000
11
188.831000
21
479.892750
0
LINE
8
0
10
188.831000
20
479.893000
11
187.352510
21
482.852630
0
LINE
8
0
10
187.352000
20
482.853000
11
186.123280
21
485.929310
0
LINE
8
0
10
186.123000
20
485.929000
11
185.152510
21
489.106380
0
LINE
8
0
10
185.153000
20
489.107000
11
184.449738
21
492.369570
0
LINE
8
0
10
184.450000
20
492.369000
11
184.022698
21
495.700890
0
LINE
8
0
10
184.022000
20
495.701000
11
183.879390
21
499.086340
0
LINE
8
0
10
183.880000
20
499.086000
11
184.031077
21
502.508380
0
LINE
8
0
10
184.031000
20
502.509000
11
184.484495
21
505.953080
0
LINE
8
0
10
184.484000
20
505.953000
11
185.234622
21
509.344420
0
LINE
8
0
10
185.235000
20
509.344000
11
186.262640
21
512.612130
0
LINE
8
0
10
186.262000
20
512.612000
11
187.552640
21
515.744660
0
LINE
8
0
10
187.553000
20
515.745000
11
189.093140
21
518.730290
0
LINE
8
0
10
189.093000
20
518.730000
11
190.868880
21
521.555750
0
LINE
8
0
10
190.869000
20
521.556000
11
192.866870
21
524.210560
0
LINE
8
0
10
192.867000
20
524.211000
11
195.073090
21
526.682210
0
LINE
8
0
10
195.073000
20
526.682000
11
197.473830
21
528.957680
0
LINE
8
0
10
197.474000
20
528.957000
11
200.055270
21
531.025510
0
LINE
8
0
10
200.055000
20
531.026000
11
202.803490
21
532.875170
0
LINE
8
0
10
202.804000
20
532.875000
11
205.705680
21
534.493190
0
LINE
8
0
10
205.705000
20
534.493000
11
208.746120
21
535.867510
0
LINE
8
0
10
208.746000
20
535.868000
11
211.913060
21
536.987720
0
LINE
8
0
10
211.914000
20
536.988000
11
215.193240
21
537.840222
0
LINE
8
0
10
215.193000
20
537.840000
11
218.570670
21
538.413351
0
LINE
8
0
10
218.570000
20
538.413000
11
222.032070
21
538.695045
0
LINE
8
0
10
222.032000
20
538.695000
11
222.032000
21
540.539000
0
LINE
8
0
10
222.032000
20
540.539000
11
225.033000
21
540.539000
0
LINE
8
0
10
225.033000
20
540.539000
11
225.033000
21
538.695000
0
LINE
8
0
10
225.033000
20
538.695000
11
228.495070
21
538.412955
0
LINE
8
0
10
228.495000
20
538.413000
11
231.872670
21
537.839649
0
LINE
8
0
10
231.872000
20
537.840000
11
235.151240
21
536.987778
0
LINE
8
0
10
235.152000
20
536.988000
11
238.319060
21
535.868280
0
LINE
8
0
10
238.319000
20
535.868000
11
241.360120
21
534.493490
0
LINE
8
0
10
241.360000
20
534.493000
11
244.261680
21
532.874810
0
LINE
8
0
10
244.261000
20
532.875000
11
247.009490
21
531.025830
0
LINE
8
0
10
247.010000
20
531.026000
11
249.591270
21
528.957490
0
LINE
8
0
10
249.591000
20
528.957000
11
251.991030
21
526.681320
0
LINE
8
0
10
251.991000
20
526.682000
11
254.197620
21
524.210790
0
LINE
8
0
10
254.198000
20
524.211000
11
256.195600
21
521.556440
0
LINE
8
0
10
256.195000
20
521.556000
11
257.970350
21
518.730250
0
LINE
8
0
10
257.971000
20
518.730000
11
259.510870
21
515.744710
0
LINE
8
0
10
259.511000
20
515.745000
11
260.802170
21
512.612340
0
LINE
8
0
10
260.802000
20
512.612000
11
261.831230
21
509.343870
0
LINE
8
0
10
261.831000
20
509.344000
11
262.579770
21
505.952580
0
LINE
8
0
10
262.580000
20
505.953000
11
263.035083
21
502.508920
0
LINE
8
0
10
263.035000
20
502.509000
11
263.185812
21
499.086620
0
LINE
8
0
10
263.186000
20
499.086000
11
263.043125
21
495.700660
0
LINE
8
0
10
263.043000
20
495.701000
11
262.617021
21
492.369110
0
LINE
8
0
10
262.617000
20
492.369000
11
261.913209
21
489.106430
0
LINE
8
0
10
261.913000
20
489.107000
11
260.941980
21
485.929620
0
LINE
8
0
10
260.942000
20
485.929000
11
259.711690
21
482.852690
0
LINE
8
0
10
259.712000
20
482.853000
11
258.235630
21
479.893370
0
LINE
8
0
10
258.235000
20
479.893000
11
256.515210
21
477.067250
0
LINE
8
0
10
256.516000
20
477.067000
11
254.566020
21
474.389420
0
LINE
8
0
10
254.566000
20
474.390000
11
252.391130
21
471.879110
0
LINE
8
0
10
252.391000
20
471.879000
11
250.001820
21
469.548020
0
LINE
8
0
10
250.002000
20
469.548000
11
247.408560
21
467.412820
0
LINE
8
0
10
247.408000
20
467.413000
11
244.617440
21
465.492130
0
LINE
8
0
10
244.618000
20
465.492000
11
241.639850
21
463.798670
0
LINE
8
0
10
241.639000
20
463.799000
11
238.481470
21
462.349090
0
LINE
8
0
10
238.482000
20
462.349000
11
237.666555
21
465.394350
0
LINE
8
0
10
237.666000
20
465.394000
11
223.532200
21
461.605170
0
LINE
8
0
10
223.533000
20
461.605000
11
209.399000
21
465.393830
0
LINE
8
Layer 1
10
28.544900
20
553.288000
11
28.544900
21
554.451000
0
LINE
8
Layer 1
10
28.544900
20
554.451000
11
31.269064
21
554.712577
0
LINE
8
Layer 1
10
31.269064
20
554.712577
11
33.904699
21
555.233624
0
LINE
8
Layer 1
10
33.904699
20
555.233624
11
36.439203
21
556.000639
0
LINE
8
Layer 1
10
36.439203
20
556.000639
11
38.859974
21
557.000116
0
LINE
8
Layer 1
10
38.859974
20
557.000116
11
41.154410
21
558.218552
0
LINE
8
Layer 1
10
41.154410
20
558.218552
11
43.309907
21
559.642443
0
LINE
8
Layer 1
10
43.309907
20
559.642443
11
45.313865
21
561.258284
0
LINE
8
Layer 1
10
45.313865
20
561.258284
11
47.153681
21
563.052573
0
LINE
8
Layer 1
10
47.153681
20
563.052573
11
48.816751
21
565.011804
0
LINE
8
Layer 1
10
48.816751
20
565.011804
11
50.290475
21
567.122475
0
LINE
8
Layer 1
10
50.290475
20
567.122475
11
51.562250
21
569.371080
0
LINE
8
Layer 1
10
51.562250
20
569.371080
11
52.619473
21
571.744116
0
LINE
8
Layer 1
10
52.619473
20
571.744116
11
53.449542
21
574.228079
0
LINE
8
Layer 1
10
53.449542
20
574.228079
11
54.039856
21
576.809465
0
LINE
8
Layer 1
10
54.039856
20
576.809465
11
54.377811
21
579.474769
0
LINE
8
Layer 1
10
54.377811
20
579.474769
11
54.450805
21
582.210489
0
LINE
8
Layer 1
10
54.450805
20
582.210489
11
54.251995
21
584.939951
0
LINE
8
Layer 1
10
54.251995
20
584.939951
11
53.791745
21
587.586880
0
LINE
8
Layer 1
10
53.791745
20
587.586880
11
53.083266
21
590.138366
0
LINE
8
Layer 1
10
53.083266
20
590.138366
11
52.139768
21
592.581499
0
LINE
8
Layer 1
10
52.139768
20
592.581499
11
50.974462
21
594.903370
0
LINE
8
Layer 1
10
50.974462
20
594.903370
11
49.600558
21
597.091068
0
LINE
8
Layer 1
10
49.600558
20
597.091068
11
48.031266
21
599.131684
0
LINE
8
Layer 1
10
48.031266
20
599.131684
11
46.279796
21
601.012308
0
LINE
8
Layer 1
10
46.279796
20
601.012308
11
44.359360
21
602.720030
0
LINE
8
Layer 1
10
44.359360
20
602.720030
11
42.283167
21
604.241941
0
LINE
8
Layer 1
10
42.283167
20
604.241941
11
40.064427
21
605.565131
0
LINE
8
Layer 1
10
40.064427
20
605.565131
11
37.716352
21
606.676690
0
LINE
8
Layer 1
10
37.716352
20
606.676690
11
35.252151
21
607.563709
0
LINE
8
Layer 1
10
35.252151
20
607.563709
11
32.685036
21
608.213277
0
LINE
8
Layer 1
10
32.685036
20
608.213277
11
30.028215
21
608.612485
0
LINE
8
Layer 1
10
30.028215
20
608.612485
11
27.294900
21
608.748423
0
LINE
8
Layer 1
10
27.294900
20
608.748423
11
24.561585
21
608.612485
0
LINE
8
Layer 1
10
24.561585
20
608.612485
11
21.904764
21
608.213277
0
LINE
8
Layer 1
10
21.904764
20
608.213277
11
19.337649
21
607.563709
0
LINE
8
Layer 1
10
19.337649
20
607.563709
11
16.873448
21
606.676690
0
LINE
8
Layer 1
10
16.873448
20
606.676690
11
14.525373
21
605.565131
0
LINE
8
Layer 1
10
14.525373
20
605.565131
11
12.306633
21
604.241941
0
LINE
8
Layer 1
10
12.306633
20
604.241941
11
10.230440
21
602.720030
0
LINE
8
Layer 1
10
10.230440
20
602.720030
11
8.310004
21
601.012308
0
LINE
8
Layer 1
10
8.310004
20
601.012308
11
6.558534
21
599.131684
0
LINE
8
Layer 1
10
6.558534
20
599.131684
11
4.989242
21
597.091068
0
LINE
8
Layer 1
10
4.989242
20
597.091068
11
3.615338
21
594.903370
0
LINE
8
Layer 1
10
3.615338
20
594.903370
11
2.450032
21
592.581499
0
LINE
8
Layer 1
10
2.450032
20
592.581499
11
1.506534
21
590.138366
0
LINE
8
Layer 1
10
1.506534
20
590.138366
11
0.798055
21
587.586880
0
LINE
8
Layer 1
10
0.798055
20
587.586880
11
0.337805
21
584.939951
0
LINE
8
Layer 1
10
0.337805
20
584.939951
11
0.138995
21
582.210489
0
LINE
8
Layer 1
10
0.138995
20
582.210489
11
0.211989
21
579.474769
0
LINE
8
Layer 1
10
0.211989
20
579.474769
11
0.549944
21
576.809465
0
LINE
8
Layer 1
10
0.549944
20
576.809465
11
1.140258
21
574.228079
0
LINE
8
Layer 1
10
1.140258
20
574.228079
11
1.970327
21
571.744116
0
LINE
8
Layer 1
10
1.970327
20
571.744116
11
3.027550
21
569.371080
0
LINE
8
Layer 1
10
3.027550
20
569.371080
11
4.299325
21
567.122475
0
LINE
8
Layer 1
10
4.299325
20
567.122475
11
5.773049
21
565.011804
0
LINE
8
Layer 1
10
5.773049
20
565.011804
11
7.436119
21
563.052573
0
LINE
8
Layer 1
10
7.436119
20
563.052573
11
9.275935
21
561.258284
0
LINE
8
Layer 1
10
9.275935
20
561.258284
11
11.279893
21
559.642443
0
LINE
8
Layer 1
10
11.279893
20
559.642443
11
13.435390
21
558.218552
0
LINE
8
Layer 1
10
13.435390
20
558.218552
11
15.729826
21
557.000116
0
LINE
8
Layer 1
10
15.729826
20
557.000116
11
18.150597
21
556.000639
0
LINE
8
Layer 1
10
18.150597
20
556.000639
11
20.685101
21
555.233624
0
LINE
8
Layer 1
10
20.685101
20
555.233624
11
23.320736
21
554.712577
0
LINE
8
Layer 1
10
23.320736
20
554.712577
11
26.044900
21
554.451000
0
LINE
8
Layer 1
10
26.044900
20
554.451000
11
26.044900
21
553.288000
0
LINE
8
Layer 1
10
26.044900
20
553.288000
11
28.544900
21
553.288000
0
LINE
8
Layer 1
10
28.544900
20
553.288000
11
28.544900
21
553.288000
0
LINE
8
Layer 1
10
76.045200
20
458.190000
11
76.045200
21
459.353000
0
LINE
8
Layer 1
10
76.045200
20
459.353000
11
78.769364
21
459.614577
0
LINE
8
Layer 1
10
78.769364
20
459.614577
11
81.404999
21
460.135624
0
LINE
8
Layer 1
10
81.404999
20
460.135624
11
83.939503
21
460.902639
0
LINE
8
Layer 1
10
83.939503
20
460.902639
11
86.360274
21
461.902116
0
LINE
8
Layer 1
10
86.360274
20
461.902116
11
88.654710
21
463.120552
0
LINE
8
Layer 1
10
88.654710
20
463.120552
11
90.810207
21
464.544443
0
LINE
8
Layer 1
10
90.810207
20
464.544443
11
92.814165
21
466.160284
0
LINE
8
Layer 1
10
92.814165
20
466.160284
11
94.653981
21
467.954573
0
LINE
8
Layer 1
10
94.653981
20
467.954573
11
96.317051
21
469.913804
0
LINE
8
Layer 1
10
96.317051
20
469.913804
11
97.790775
21
472.024475
0
LINE
8
Layer 1
10
97.790775
20
472.024475
11
99.062550
21
474.273080
0
LINE
8
Layer 1
10
99.062550
20
474.273080
11
100.119773
21
476.646116
0
LINE
8
Layer 1
10
100.119773
20
476.646116
11
100.949842
21
479.130079
0
LINE
8
Layer 1
10
100.949842
20
479.130079
11
101.540156
21
481.711465
0
LINE
8
Layer 1
10
101.540156
20
481.711465
11
101.878111
21
484.376769
0
LINE
8
Layer 1
10
101.878111
20
484.376769
11
101.951105
21
487.112489
0
LINE
8
Layer 1
10
101.951105
20
487.112489
11
101.752295
21
489.841951
0
LINE
8
Layer 1
10
101.752295
20
489.841951
11
101.292045
21
492.488880
0
LINE
8
Layer 1
10
101.292045
20
492.488880
11
100.583566
21
495.040366
0
LINE
8
Layer 1
10
100.583566
20
495.040366
11
99.640068
21
497.483499
0
LINE
8
Layer 1
10
99.640068
20
497.483499
11
98.474762
21
499.805370
0
LINE
8
Layer 1
10
98.474762
20
499.805370
11
97.100858
21
501.993068
0
LINE
8
Layer 1
10
97.100858
20
501.993068
11
95.531566
21
504.033684
0
LINE
8
Layer 1
10
95.531566
20
504.033684
11
93.780096
21
505.914308
0
LINE
8
Layer 1
10
93.780096
20
505.914308
11
91.859660
21
507.622030
0
LINE
8
Layer 1
10
91.859660
20
507.622030
11
89.783467
21
509.143941
0
LINE
8
Layer 1
10
89.783467
20
509.143941
11
87.564727
21
510.467131
0
LINE
8
Layer 1
10
87.564727
20
510.467131
11
85.216652
21
511.578690
0
LINE
8
Layer 1
10
85.216652
20
511.578690
11
82.752451
21
512.465709
0
LINE
8
Layer 1
10
82.752451
20
512.465709
11
80.185336
21
513.115277
0
LINE
8
Layer 1
10
80.185336
20
513.115277
11
77.528515
21
513.514485
0
LINE
8
Layer 1
10
77.528515
20
513.514485
11
74.795200
21
513.650423
0
LINE
8
Layer 1
10
74.795200
20
513.650423
11
72.061885
21
513.514485
0
LINE
8
Layer 1
10
72.061885
20
513.514485
11
69.405064
21
513.115277
0
LINE
8
Layer 1
10
69.405064
20
513.115277
11
66.837949
21
512.465709
0
LINE
8
Layer 1
10
66.837949
20
512.465709
11
64.373748
21
511.578690
0
LINE
8
Layer 1
10
64.373748
20
511.578690
11
62.025673
21
510.467131
0
LINE
8
Layer 1
10
62.025673
20
510.467131
11
59.806933
21
509.143941
0
LINE
8
Layer 1
10
59.806933
20
509.143941
11
57.730740
21
507.622030
0
LINE
8
Layer 1
10
57.730740
20
507.622030
11
55.810304
21
505.914308
0
LINE
8
Layer 1
10
55.810304
20
505.914308
11
54.058834
21
504.033684
0
LINE
8
Layer 1
10
54.058834
20
504.033684
11
52.489542
21
501.993068
0
LINE
8
Layer 1
10
52.489542
20
501.993068
11
51.115638
21
499.805370
0
LINE
8
Layer 1
10
51.115638
20
499.805370
11
49.950332
21
497.483499
0
LINE
8
Layer 1
10
49.950332
20
497.483499
11
49.006834
21
495.040366
0
LINE
8
Layer 1
10
49.006834
20
495.040366
11
48.298355
21
492.488880
0
LINE
8
Layer 1
10
48.298355
20
492.488880
11
47.838105
21
489.841951
0
LINE
8
Layer 1
10
47.838105
20
489.841951
11
47.639295
21
487.112489
0
LINE
8
Layer 1
10
47.639295
20
487.112489
11
47.712289
21
484.376769
0
LINE
8
Layer 1
10
47.712289
20
484.376769
11
48.050244
21
481.711465
0
LINE
8
Layer 1
10
48.050244
20
481.711465
11
48.640558
21
479.130079
0
LINE
8
Layer 1
10
48.640558
20
479.130079
11
49.470627
21
476.646116
0
LINE
8
Layer 1
10
49.470627
20
476.646116
11
50.527850
21
474.273080
0
LINE
8
Layer 1
10
50.527850
20
474.273080
11
51.799625
21
472.024475
0
LINE
8
Layer 1
10
51.799625
20
472.024475
11
53.273349
21
469.913804
0
LINE
8
Layer 1
10
53.273349
20
469.913804
11
54.936419
21
467.954573
0
LINE
8
Layer 1
10
54.936419
20
467.954573
11
56.776235
21
466.160284
0
LINE
8
Layer 1
10
56.776235
20
466.160284
11
58.780193
21
464.544443
0
LINE
8
Layer 1
10
58.780193
20
464.544443
11
60.935690
21
463.120552
0
LINE
8
Layer 1
10
60.935690
20
463.120552
11
63.230126
21
461.902116
0
LINE
8
Layer 1
10
63.230126
20
461.902116
11
65.650897
21
460.902639
0
LINE
8
Layer 1
10
65.650897
20
460.902639
11
68.185401
21
460.135624
0
LINE
8
Layer 1
10
68.185401
20
460.135624
11
70.821036
21
459.614577
0
LINE
8
Layer 1
10
70.821036
20
459.614577
11
73.545200
21
459.353000
0
LINE
8
Layer 1
10
73.545200
20
459.353000
11
73.545200
21
458.190000
0
LINE
8
Layer 1
10
73.545200
20
458.190000
11
76.045200
21
458.190000
0
LINE
8
Layer 1
10
76.045200
20
458.190000
11
76.045200
21
458.190000
0
LINE
8
Layer 1
10
30.659400
20
493.926000
11
30.659400
21
495.089000
0
LINE
8
Layer 1
10
30.659400
20
495.089000
11
33.383564
21
495.350577
0
LINE
8
Layer 1
10
33.383564
20
495.350577
11
36.019199
21
495.871624
0
LINE
8
Layer 1
10
36.019199
20
495.871624
11
38.553703
21
496.638639
0
LINE
8
Layer 1
10
38.553703
20
496.638639
11
40.974474
21
497.638116
0
LINE
8
Layer 1
10
40.974474
20
497.638116
11
43.268910
21
498.856552
0
LINE
8
Layer 1
10
43.268910
20
498.856552
11
45.424407
21
500.280443
0
LINE
8
Layer 1
10
45.424407
20
500.280443
11
47.428365
21
501.896284
0
LINE
8
Layer 1
10
47.428365
20
501.896284
11
49.268181
21
503.690573
0
LINE
8
Layer 1
10
49.268181
20
503.690573
11
50.931251
21
505.649804
0
LINE
8
Layer 1
10
50.931251
20
505.649804
11
52.404975
21
507.760475
0
LINE
8
Layer 1
10
52.404975
20
507.760475
11
53.676750
21
510.009080
0
LINE
8
Layer 1
10
53.676750
20
510.009080
11
54.733973
21
512.382116
0
LINE
8
Layer 1
10
54.733973
20
512.382116
11
55.564042
21
514.866079
0
LINE
8
Layer 1
10
55.564042
20
514.866079
11
56.154356
21
517.447465
0
LINE
8
Layer 1
10
56.154356
20
517.447465
11
56.492311
21
520.112769
0
LINE
8
Layer 1
10
56.492311
20
520.112769
11
56.565305
21
522.848489
0
LINE
8
Layer 1
10
56.565305
20
522.848489
11
56.366495
21
525.577951
0
LINE
8
Layer 1
10
56.366495
20
525.577951
11
55.906245
21
528.224880
0
LINE
8
Layer 1
10
55.906245
20
528.224880
11
55.197766
21
530.776366
0
LINE
8
Layer 1
10
55.197766
20
530.776366
11
54.254268
21
533.219499
0
LINE
8
Layer 1
10
54.254268
20
533.219499
11
53.088962
21
535.541370
0
LINE
8
Layer 1
10
53.088962
20
535.541370
11
51.715058
21
537.729068
0
LINE
8
Layer 1
10
51.715058
20
537.729068
11
50.145766
21
539.769684
0
LINE
8
Layer 1
10
50.145766
20
539.769684
11
48.394296
21
541.650308
0
LINE
8
Layer 1
10
48.394296
20
541.650308
11
46.473860
21
543.358030
0
LINE
8
Layer 1
10
46.473860
20
543.358030
11
44.397667
21
544.879941
0
LINE
8
Layer 1
10
44.397667
20
544.879941
11
42.178927
21
546.203131
0
LINE
8
Layer 1
10
42.178927
20
546.203131
11
39.830852
21
547.314690
0
LINE
8
Layer 1
10
39.830852
20
547.314690
11
37.366651
21
548.201709
0
LINE
8
Layer 1
10
37.366651
20
548.201709
11
34.799536
21
548.851277
0
LINE
8
Layer 1
10
34.799536
20
548.851277
11
32.142715
21
549.250485
0
LINE
8
Layer 1
10
32.142715
20
549.250485
11
29.409400
21
549.386423
0
LINE
8
Layer 1
10
29.409400
20
549.386423
11
26.676085
21
549.250485
0
LINE
8
Layer 1
10
26.676085
20
549.250485
11
24.019264
21
548.851277
0
LINE
8
Layer 1
10
24.019264
20
548.851277
11
21.452149
21
548.201709
0
LINE
8
Layer 1
10
21.452149
20
548.201709
11
18.987948
21
547.314690
0
LINE
8
Layer 1
10
18.987948
20
547.314690
11
16.639873
21
546.203131
0
LINE
8
Layer 1
10
16.639873
20
546.203131
11
14.421133
21
544.879941
0
LINE
8
Layer 1
10
14.421133
20
544.879941
11
12.344940
21
543.358030
0
LINE
8
Layer 1
10
12.344940
20
543.358030
11
10.424504
21
541.650308
0
LINE
8
Layer 1
10
10.424504
20
541.650308
11
8.673034
21
539.769684
0
LINE
8
Layer 1
10
8.673034
20
539.769684
11
7.103742
21
537.729068
0
LINE
8
Layer 1
10
7.103742
20
537.729068
11
5.729838
21
535.541370
0
LINE
8
Layer 1
10
5.729838
20
535.541370
11
4.564532
21
533.219499
0
LINE
8
Layer 1
10
4.564532
20
533.219499
11
3.621034
21
530.776366
0
LINE
8
Layer 1
10
3.621034
20
530.776366
11
2.912555
21
528.224880
0
LINE
8
Layer 1
10
2.912555
20
528.224880
11
2.452305
21
525.577951
0
LINE
8
Layer 1
10
2.452305
20
525.577951
11
2.253495
21
522.848489
0
LINE
8
Layer 1
10
2.253495
20
522.848489
11
2.326489
21
520.112769
0
LINE
8
Layer 1
10
2.326489
20
520.112769
11
2.664444
21
517.447465
0
LINE
8
Layer 1
10
2.664444
20
517.447465
11
3.254758
21
514.866079
0
LINE
8
Layer 1
10
3.254758
20
514.866079
11
4.084827
21
512.382116
0
LINE
8
Layer 1
10
4.084827
20
512.382116
11
5.142050
21
510.009080
0
LINE
8
Layer 1
10
5.142050
20
510.009080
11
6.413825
21
507.760475
0
LINE
8
Layer 1
10
6.413825
20
507.760475
11
7.887549
21
505.649804
0
LINE
8
Layer 1
10
7.887549
20
505.649804
11
9.550619
21
503.690573
0
LINE
8
Layer 1
10
9.550619
20
503.690573
11
11.390435
21
501.896284
0
LINE
8
Layer 1
10
11.390435
20
501.896284
11
13.394393
21
500.280443
0
LINE
8
Layer 1
10
13.394393
20
500.280443
11
15.549890
21
498.856552
0
LINE
8
Layer 1
10
15.549890
20
498.856552
11
17.844326
21
497.638116
0
LINE
8
Layer 1
10
17.844326
20
497.638116
11
20.265097
21
496.638639
0
LINE
8
Layer 1
10
20.265097
20
496.638639
11
22.799601
21
495.871624
0
LINE
8
Layer 1
10
22.799601
20
495.871624
11
25.435236
21
495.350577
0
LINE
8
Layer 1
10
25.435236
20
495.350577
11
28.159400
21
495.089000
0
LINE
8
Layer 1
10
28.159400
20
495.089000
11
28.159400
21
493.926000
0
LINE
8
Layer 1
10
28.159400
20
493.926000
11
30.659400
21
493.926000
0
LINE
8
Layer 1
10
30.659400
20
493.926000
11
30.659400
21
493.926000
0
LINE
8
Layer 1
10
501.176000
20
534.769000
11
501.176000
21
535.932000
0
LINE
8
Layer 1
10
501.176000
20
535.932000
11
503.900164
21
536.193576
0
LINE
8
Layer 1
10
503.900164
20
536.193576
11
506.535799
21
536.714623
0
LINE
8
Layer 1
10
506.535799
20
536.714623
11
509.070304
21
537.481637
0
LINE
8
Layer 1
10
509.070304
20
537.481637
11
511.491075
21
538.481114
0
LINE
8
Layer 1
10
511.491075
20
538.481114
11
513.785511
21
539.699550
0
LINE
8
Layer 1
10
513.785511
20
539.699550
11
515.941009
21
541.123440
0
LINE
8
Layer 1
10
515.941009
20
541.123440
11
517.944967
21
542.739282
0
LINE
8
Layer 1
10
517.944967
20
542.739282
11
519.784783
21
544.533570
0
LINE
8
Layer 1
10
519.784783
20
544.533570
11
521.447854
21
546.492802
0
LINE
8
Layer 1
10
521.447854
20
546.492802
11
522.921578
21
548.603472
0
LINE
8
Layer 1
10
522.921578
20
548.603472
11
524.193353
21
550.852077
0
LINE
8
Layer 1
10
524.193353
20
550.852077
11
525.250577
21
553.225113
0
LINE
8
Layer 1
10
525.250577
20
553.225113
11
526.080647
21
555.709076
0
LINE
8
Layer 1
10
526.080647
20
555.709076
11
526.670960
21
558.290462
0
LINE
8
Layer 1
10
526.670960
20
558.290462
11
527.008915
21
560.955767
0
LINE
8
Layer 1
10
527.008915
20
560.955767
11
527.081910
21
563.691487
0
LINE
8
Layer 1
10
527.081910
20
563.691487
11
526.883100
21
566.420949
0
LINE
8
Layer 1
10
526.883100
20
566.420949
11
526.422851
21
569.067878
0
LINE
8
Layer 1
10
526.422851
20
569.067878
11
525.714372
21
571.619364
0
LINE
8
Layer 1
10
525.714372
20
571.619364
11
524.770874
21
574.062498
0
LINE
8
Layer 1
10
524.770874
20
574.062498
11
523.605568
21
576.384368
0
LINE
8
Layer 1
10
523.605568
20
576.384368
11
522.231664
21
578.572067
0
LINE
8
Layer 1
10
522.231664
20
578.572067
11
520.662372
21
580.612683
0
LINE
8
Layer 1
10
520.662372
20
580.612683
11
518.910902
21
582.493307
0
LINE
8
Layer 1
10
518.910902
20
582.493307
11
516.990466
21
584.201030
0
LINE
8
Layer 1
10
516.990466
20
584.201030
11
514.914272
21
585.722941
0
LINE
8
Layer 1
10
514.914272
20
585.722941
11
512.695533
21
587.046131
0
LINE
8
Layer 1
10
512.695533
20
587.046131
11
510.347458
21
588.157690
0
LINE
8
Layer 1
10
510.347458
20
588.157690
11
507.883257
21
589.044709
0
LINE
8
Layer 1
10
507.883257
20
589.044709
11
505.316141
21
589.694277
0
LINE
8
Layer 1
10
505.316141
20
589.694277
11
502.659320
21
590.093485
0
LINE
8
Layer 1
10
502.659320
20
590.093485
11
499.926005
21
590.229424
0
LINE
8
Layer 1
10
499.926005
20
590.229424
11
497.192690
21
590.093485
0
LINE
8
Layer 1
10
497.192690
20
590.093485
11
494.535869
21
589.694277
0
LINE
8
Layer 1
10
494.535869
20
589.694277
11
491.968753
21
589.044709
0
LINE
8
Layer 1
10
491.968753
20
589.044709
11
489.504552
21
588.157690
0
LINE
8
Layer 1
10
489.504552
20
588.157690
11
487.156477
21
587.046131
0
LINE
8
Layer 1
10
487.156477
20
587.046131
11
484.937738
21
585.722941
0
LINE
8
Layer 1
10
484.937738
20
585.722941
11
482.861544
21
584.201030
0
LINE
8
Layer 1
10
482.861544
20
584.201030
11
480.941108
21
582.493307
0
LINE
8
Layer 1
10
480.941108
20
582.493307
11
479.189638
21
580.612683
0
LINE
8
Layer 1
10
479.189638
20
580.612683
11
477.620346
21
578.572067
0
LINE
8
Layer 1
10
477.620346
20
578.572067
11
476.246442
21
576.384368
0
LINE
8
Layer 1
10
476.246442
20
576.384368
11
475.081136
21
574.062498
0
LINE
8
Layer 1
10
475.081136
20
574.062498
11
474.137638
21
571.619364
0
LINE
8
Layer 1
10
474.137638
20
571.619364
11
473.429159
21
569.067878
0
LINE
8
Layer 1
10
473.429159
20
569.067878
11
472.968910
21
566.420949
0
LINE
8
Layer 1
10
472.968910
20
566.420949
11
472.770100
21
563.691487
0
LINE
8
Layer 1
10
472.770100
20
563.691487
11
472.843095
21
560.955767
0
LINE
8
Layer 1
10
472.843095
20
560.955767
11
473.181050
21
558.290462
0
LINE
8
Layer 1
10
473.181050
20
558.290462
11
473.771363
21
555.709076
0
LINE
8
Layer 1
10
473.771363
20
555.709076
11
474.601433
21
553.225113
0
LINE
8
Layer 1
10
474.601433
20
553.225113
11
475.658657
21
550.852077
0
LINE
8
Layer 1
10
475.658657
20
550.852077
11
476.930432
21
548.603472
0
LINE
8
Layer 1
10
476.930432
20
548.603472
11
478.404156
21
546.492802
0
LINE
8
Layer 1
10
478.404156
20
546.492802
11
480.067227
21
544.533570
0
LINE
8
Layer 1
10
480.067227
20
544.533570
11
481.907043
21
542.739282
0
LINE
8
Layer 1
10
481.907043
20
542.739282
11
483.911001
21
541.123440
0
LINE
8
Layer 1
10
483.911001
20
541.123440
11
486.066499
21
539.699550
0
LINE
8
Layer 1
10
486.066499
20
539.699550
11
488.360935
21
538.481114
0
LINE
8
Layer 1
10
488.360935
20
538.481114
11
490.781706
21
537.481637
0
LINE
8
Layer 1
10
490.781706
20
537.481637
11
493.316211
21
536.714623
0
LINE
8
Layer 1
10
493.316211
20
536.714623
11
495.951846
21
536.193576
0
LINE
8
Layer 1
10
495.951846
20
536.193576
11
498.676010
21
535.932000
0
LINE
8
Layer 1
10
498.676010
20
535.932000
11
498.676000
21
534.769000
0
LINE
8
Layer 1
10
498.676000
20
534.769000
11
501.175990
21
534.769000
0
LINE
8
Layer 1
10
501.175990
20
534.769000
11
501.176000
21
534.769000
 0 
ENDSEC
 0 
EOF