0
SECTION
2
HEADER
9
$INSUNITS
70
4
9
$ACADVER
1
AC1014
9
$HANDSEED
5
FFFF
0
ENDSEC
0
SECTION
2
TABLES
0
TABLE
2
VPORT
5
8
100
AcDbSymbolTable
0
ENDTAB
0
TABLE
2
LTYPE
5
5
100
AcDbSymbolTable
0
LTYPE
5
14
100
AcDbSymbolTableRecord
100
AcDbLinetypeTableRecord
2
BYBLOCK
70
0
0
LTYPE
5
15
100
AcDbSymbolTableRecord
100
AcDbLinetypeTableRecord
2
BYLAYER
70
0
0
ENDTAB
0
TABLE
2
LAYER
5
2
100
AcDbSymbolTable
70
2
0
LAYER
5
50
100
AcDbSymbolTableRecord
100
AcDbLayerTableRecord
2
0
70
0
6
CONTINUOUS
0
ENDTAB
0
TABLE
2
STYLE
5
3
100
AcDbSymbolTable
70
1
0
STYLE
5
11
100
AcDbSymbolTableRecord
100
AcDbTextStyleTableRecord
2
STANDARD
70
0
0
ENDTAB
0
TABLE
2
VIEW
5
6
100
AcDbSymbolTable
70
0
0
ENDTAB
0
TABLE
2
UCS
5
7
100
AcDbSymbolTable
70
0
0
ENDTAB
0
TABLE
2
APPID
5
9
100
AcDbSymbolTable
70
2
0
APPID
5
12
100
AcDbSymbolTableRecord
100
AcDbRegAppTableRecord
2
ACAD
70
0
0
ENDTAB
0
TABLE
2
DIMSTYLE
5
A
100
AcDbSymbolTable
70
1
0
ENDTAB
0
TABLE
2
BLOCK_RECORD
5
1
100
AcDbSymbolTable
70
1
0
BLOCK_RECORD
5
1F
100
AcDbSymbolTableRecord
100
AcDbBlockTableRecord
2
*MODEL_SPACE
0
BLOCK_RECORD
5
1B
100
AcDbSymbolTableRecord
100
AcDbBlockTableRecord
2
*PAPER_SPACE
0
ENDTAB
0
ENDSEC
0
SECTION
2
BLOCKS
0
BLOCK
5
20
100
AcDbEntity
100
AcDbBlockBegin
2
*MODEL_SPACE
0
ENDBLK
5
21
100
AcDbEntity
100
AcDbBlockEnd
0
BLOCK
5
1C
100
AcDbEntity
100
AcDbBlockBegin
2
*PAPER_SPACE
0
ENDBLK
5
1D
100
AcDbEntity
100
AcDbBlockEnd
0
ENDSEC
0
SECTION
2
ENTITIES
0
LWPOLYLINE
5
100
100
AcDbEntity
8
0
100
AcDbPolyline
90
3
70
1
43
0.0
10
-155.60121675555411
20
-22.423340440660425
42
193.98221385311879
10
-155.60121675555411
20
-21.849478335132495
10
-156.09819591721052
20
-22.136409387896457
0
LWPOLYLINE
5
101
100
AcDbEntity
8
0
100
AcDbPolyline
90
3
70
1
43
0.0
10
-95.601216755554091
20
-22.423340440660425
42
193.98221385311879
10
-95.601216755554091
20
-21.849478335132495
10
-96.098195917210518
20
-22.136409387896457
0
LWPOLYLINE
5
102
100
AcDbEntity
8
0
100
AcDbPolyline
90
3
70
1
43
0.0
10
-127.06629451127954
20
29.153436499136966
42
193.98221385311879
10
-127.06629451127954
20
29.727298604664895
10
-127.56327367293596
20
29.440367551900934
0
LWPOLYLINE
5
103
100
AcDbEntity
8
0
100
AcDbPolyline
90
3
70
1
43
0.0
10
-155.60121675555411
20
81.576659559339575
42
193.98221385311879
10
-155.60121675555411
20
82.150521664867497
10
-156.09819591721052
20
81.863590612103536
0
LWPOLYLINE
5
104
100
AcDbEntity
8
0
100
AcDbPolyline
90
11
70
1
43
0.0
10
-15.287260590050266
20
46.273525402237574
42
2.2594244950753115
10
-17.642525402237649
20
43.918260590050188
42
-0.17974525693063004
10
-43.050000000000281
20
33.55083367226591
10
-43.050000000000011
20
31.465499999999984
10
-45.550000000000004
20
31.465499999999984
10
-45.549999999999713
20
33.550833672265917
42
-0.80704000972534695
10
-59.417275284828705
20
109.3154470613847
10
-58.603198081390801
20
106.27726957687075
10
-44.300000000000011
20
110.10979995196169
10
-29.996801918609236
20
106.27726957687075
10
-29.182724715171318
20
109.31544706138473
42
-0.52065103158389636
0
LWPOLYLINE
5
105
100
AcDbEntity
8
0
100
AcDbPolyline
90
9
70
1
43
0.0
10
-14.303198081390786
20
-33.346269576870768
10
-15.1172752848287
20
-36.384447061384726
42
-0.80704000972534651
10
-1.2499999999997315
20
39.380166327734081
10
-1.2500000000000011
20
41.465500000000006
10
1.2499999999999976
20
41.465500000000006
10
1.2499999999997002
20
39.380166327734088
42
-0.80704000972534673
10
15.1172752848287
20
-36.384447061384726
10
14.303198081390786
20
-33.346269576870768
10
0
20
-37.178799951961707
0
LWPOLYLINE
5
106
100
AcDbEntity
8
0
100
AcDbPolyline
90
9
70
1
43
0.0
10
69.030135251942554
20
-33.346269576870768
10
68.216058048504649
20
-36.384447061384734
42
-0.80704000972534651
10
82.083333333333599
20
39.380166327734081
10
82.083333333333343
20
41.465500000000006
10
84.583333333333343
20
41.465500000000006
10
84.583333333333059
20
39.380166327734088
42
-0.80704000972534651
10
98.45060861816205
20
-36.384447061384726
10
97.636531414724118
20
-33.346269576870768
10
83.333333333333343
20
-37.178799951961707
0
LWPOLYLINE
5
107
100
AcDbEntity
8
0
100
AcDbPolyline
90
9
70
1
43
0.0
10
55.003198081390764
20
106.27726957687079
10
55.817275284828696
20
109.31544706138475
42
-0.8070400097253464
10
41.949999999999719
20
33.550833672265945
10
41.949999999999996
20
31.46550000000002
10
39.449999999999996
20
31.46550000000002
10
39.450000000000287
20
33.550833672265945
42
-0.80704000972534673
10
25.582724715171281
20
109.31544706138475
10
26.396801918609192
20
106.27726957687079
10
40.699999999999989
20
110.10979995196173
0
LWPOLYLINE
5
108
100
AcDbEntity
8
0
100
AcDbPolyline
90
9
70
1
43
0.0
10
138.33653141472411
20
106.27726957687079
10
139.15060861816204
20
109.31544706138475
42
-0.8070400097253464
10
125.28333333333306
20
33.550833672265945
10
125.28333333333333
20
31.46550000000002
10
122.78333333333333
20
31.46550000000002
10
122.78333333333364
20
33.550833672265938
42
-0.80704000972534673
10
108.9160580485046
20
109.31544706138475
10
109.73013525194254
20
106.27726957687079
10
124.03333333333333
20
110.10979995196173
0
LWPOLYLINE
5
109
100
AcDbEntity
8
0
100
AcDbPolyline
90
9
70
1
43
0.0
10
152.36346858527588
20
-33.346269576870768
10
151.54939138183798
20
-36.384447061384734
42
-0.80704000972534617
10
165.41666666666691
20
39.380166327734081
10
165.41666666666669
20
41.465500000000006
10
167.91666666666669
20
41.465500000000006
10
167.91666666666634
20
39.380166327734095
42
-0.80704000972534673
10
181.78394195149539
20
-36.384447061384726
10
180.96986474805746
20
-33.346269576870768
10
166.66666666666669
20
-37.178799951961707
0
LWPOLYLINE
5
110
100
AcDbEntity
8
0
100
AcDbPolyline
90
9
70
1
43
0.0
10
235.69680191860922
20
-33.346269576870768
10
234.88272471517126
20
-36.384447061384734
42
-0.80704000972534617
10
248.75000000000026
20
39.380166327734081
10
248.75
20
41.465500000000006
10
251.25
20
41.465500000000006
10
251.24999999999969
20
39.380166327734095
42
-0.80704000972534673
10
265.11727528482874
20
-36.384447061384726
10
264.3031980813908
20
-33.346269576870768
10
250
20
-37.178799951961707
0
LWPOLYLINE
5
111
100
AcDbEntity
8
0
100
AcDbPolyline
90
9
70
1
43
0.0
10
221.66986474805748
20
106.27726957687079
10
222.48394195149535
20
109.31544706138475
42
-0.80704000972534595
10
208.61666666666639
20
33.550833672265945
10
208.61666666666667
20
31.46550000000002
10
206.11666666666667
20
31.46550000000002
10
206.11666666666696
20
33.550833672265938
42
-0.80704000972534673
10
192.24939138183794
20
109.31544706138475
10
193.06346858527587
20
106.27726957687079
10
207.36666666666665
20
110.10979995196173
0
LWPOLYLINE
5
112
100
AcDbEntity
8
0
100
AcDbPolyline
90
9
70
1
43
0.0
10
305.00319808139074
20
106.27726957687079
10
305.81727528482872
20
109.31544706138475
42
-0.80704000972534617
10
291.94999999999976
20
33.550833672265945
10
291.94999999999999
20
31.46550000000002
10
289.44999999999999
20
31.46550000000002
10
289.45000000000027
20
33.550833672265938
42
-0.80704000972534617
10
275.58272471517125
20
109.31544706138475
10
276.39680191860919
20
106.27726957687079
10
290.69999999999999
20
110.10979995196173
0
LWPOLYLINE
5
113
100
AcDbEntity
8
0
100
AcDbPolyline
90
9
70
1
43
0.0
10
317.6968019186092
20
-33.346269576870753
10
316.88272471517132
20
-36.384447061384712
42
-0.80704000972534706
10
330.7500000000004
20
39.380166327734081
10
330.75
20
41.465500000000006
10
333.25
20
41.465500000000006
10
333.24999999999966
20
39.380166327734088
42
-0.80704000972534784
10
347.11727528482868
20
-36.384447061384748
10
346.30319808139075
20
-33.346269576870753
10
332
20
-37.1787999519617
0
ENDSEC
0
SECTION
2
OBJECTS
0
DICTIONARY
5
C
100
AcDbDictionary
3
ACAD_GROUP
350
D
3
ACAD_MLINESTYLE
350
17
0
DICTIONARY
5
D
100
AcDbDictionary
0
DICTIONARY
5
1A
330
C
100
AcDbDictionary
0
DICTIONARY
5
17
100
AcDbDictionary
0
ENDSEC
0
EOF
