0
SECTION
2
HEADER
9
$INSUNITS
70
4
9
$ACADVER
1
AC1014
9
$HANDSEED
5
FFFF
0
ENDSEC
0
SECTION
2
TABLES
0
TABLE
2
VPORT
5
8
100
AcDbSymbolTable
0
ENDTAB
0
TABLE
2
LTYPE
5
5
100
AcDbSymbolTable
0
LTYPE
5
14
100
AcDbSymbolTableRecord
100
AcDbLinetypeTableRecord
2
BYBLOCK
70
0
0
LTYPE
5
15
100
AcDbSymbolTableRecord
100
AcDbLinetypeTableRecord
2
BYLAYER
70
0
0
ENDTAB
0
TABLE
2
LAYER
5
2
100
AcDbSymbolTable
70
2
0
LAYER
5
50
100
AcDbSymbolTableRecord
100
AcDbLayerTableRecord
2
0
70
0
6
CONTINUOUS
0
ENDTAB
0
TABLE
2
STYLE
5
3
100
AcDbSymbolTable
70
1
0
STYLE
5
11
100
AcDbSymbolTableRecord
100
AcDbTextStyleTableRecord
2
STANDARD
70
0
0
ENDTAB
0
TABLE
2
VIEW
5
6
100
AcDbSymbolTable
70
0
0
ENDTAB
0
TABLE
2
UCS
5
7
100
AcDbSymbolTable
70
0
0
ENDTAB
0
TABLE
2
APPID
5
9
100
AcDbSymbolTable
70
2
0
APPID
5
12
100
AcDbSymbolTableRecord
100
AcDbRegAppTableRecord
2
ACAD
70
0
0
ENDTAB
0
TABLE
2
DIMSTYLE
5
A
100
AcDbSymbolTable
70
1
0
ENDTAB
0
TABLE
2
BLOCK_RECORD
5
1
100
AcDbSymbolTable
70
1
0
BLOCK_RECORD
5
1F
100
AcDbSymbolTableRecord
100
AcDbBlockTableRecord
2
*MODEL_SPACE
0
BLOCK_RECORD
5
1B
100
AcDbSymbolTableRecord
100
AcDbBlockTableRecord
2
*PAPER_SPACE
0
ENDTAB
0
ENDSEC
0
SECTION
2
BLOCKS
0
BLOCK
5
20
100
AcDbEntity
100
AcDbBlockBegin
2
*MODEL_SPACE
0
ENDBLK
5
21
100
AcDbEntity
100
AcDbBlockEnd
0
BLOCK
5
1C
100
AcDbEntity
100
AcDbBlockBegin
2
*PAPER_SPACE
0
ENDBLK
5
1D
100
AcDbEntity
100
AcDbBlockEnd
0
ENDSEC
0
SECTION
2
ENTITIES
0
LWPOLYLINE
5
100
100
AcDbEntity
8
0
100
AcDbPolyline
90
3
70
1
43
0.0
10
-155.84936752685218
20
-22.568745660646705
42
129.89349991940273
10
-155.84936752685215
20
-21.704073115146201
10
-156.59819591721055
20
-22.136409387896457
0
LWPOLYLINE
5
101
100
AcDbEntity
8
0
100
AcDbPolyline
90
3
70
1
43
0.0
10
-95.849367526852163
20
-22.568745660646705
42
129.89349991940273
10
-95.849367526852163
20
-21.704073115146201
10
-96.598195917210546
20
-22.136409387896457
0
LWPOLYLINE
5
102
100
AcDbEntity
8
0
100
AcDbPolyline
90
3
70
1
43
0.0
10
-127.31444528257761
20
29.008031279150686
42
129.89349991940273
10
-127.31444528257759
20
29.87270382465119
10
-128.06327367293599
20
29.440367551900934
0
LWPOLYLINE
5
103
100
AcDbEntity
8
0
100
AcDbPolyline
90
3
70
1
43
0.0
10
-155.84936752685218
20
81.431254339353302
42
129.89349991940273
10
-155.84936752685215
20
82.295926884853799
10
-156.59819591721055
20
81.863590612103536
0
LWPOLYLINE
5
104
100
AcDbEntity
8
0
100
AcDbPolyline
90
11
70
1
43
0.0
10
-15.301629150283009
20
45.889975831853398
42
2.907366422503459
10
-17.258975831853508
20
43.932629150282992
42
-0.18007033430506736
10
-42.800000000000004
20
33.309383425205873
10
-42.800000000000011
20
31.465499999999984
10
-45.800000000000011
20
31.465499999999984
10
-45.799999999999997
20
33.30938342520588
42
-0.80748816803359358
10
-59.249388493957497
20
109.65481085422277
10
-58.433962599587915
20
106.61159998662804
10
-44.300000000000011
20
110.3987838510392
10
-30.166037400412122
20
106.61159998662804
10
-29.350611506042505
20
109.65481085422283
42
-0.5252873761451704
0
LWPOLYLINE
5
105
100
AcDbEntity
8
0
100
AcDbPolyline
90
9
70
1
43
0.0
10
-14.133962599587894
20
-33.680599986628046
10
-14.949388493957494
20
-36.723810854222791
42
-0.80748816803359325
10
-1.5000000000000084
20
39.621616574794118
10
-1.5000000000000009
20
41.465500000000006
10
1.4999999999999973
20
41.465500000000006
10
1.4999999999999836
20
39.621616574794118
42
-0.80748816803359358
10
14.949388493957477
20
-36.723810854222791
10
14.133962599587896
20
-33.680599986628053
10
0
20
-37.467783851039215
0
LWPOLYLINE
5
106
100
AcDbEntity
8
0
100
AcDbPolyline
90
9
70
1
43
0.0
10
54.833962599587878
20
106.61159998662808
10
55.649388493957474
20
109.65481085422282
42
-0.80748816803359325
10
42.199999999999996
20
33.309383425205908
10
42.199999999999989
20
31.46550000000002
10
39.199999999999989
20
31.46550000000002
10
39.200000000000003
20
33.309383425205908
42
-0.80748816803359358
10
25.750611506042507
20
109.65481085422282
10
26.566037400412085
20
106.61159998662808
10
40.699999999999989
20
110.39878385103924
0
LWPOLYLINE
5
107
100
AcDbEntity
8
0
100
AcDbPolyline
90
9
70
1
43
0.0
10
138.16729593292121
20
106.61159998662808
10
138.98272182729079
20
109.65481085422282
42
-0.80748816803359302
10
125.53333333333335
20
33.309383425205908
10
125.53333333333333
20
31.46550000000002
10
122.53333333333333
20
31.46550000000002
10
122.53333333333333
20
33.309383425205901
42
-0.80748816803359336
10
109.08394483937583
20
109.65481085422282
10
109.89937073374541
20
106.61159998662808
10
124.03333333333333
20
110.39878385103924
0
LWPOLYLINE
5
108
100
AcDbEntity
8
0
100
AcDbPolyline
90
9
70
1
43
0.0
10
152.53270406707878
20
-33.680599986628046
10
151.71727817270917
20
-36.723810854222791
42
-0.80748816803359302
10
165.16666666666666
20
39.621616574794118
10
165.16666666666669
20
41.465500000000006
10
168.16666666666666
20
41.465500000000006
10
168.16666666666666
20
39.621616574794118
42
-0.80748816803359358
10
181.61605516062417
20
-36.723810854222791
10
180.80062926625459
20
-33.680599986628053
10
166.66666666666669
20
-37.467783851039215
0
LWPOLYLINE
5
109
100
AcDbEntity
8
0
100
AcDbPolyline
90
9
70
1
43
0.0
10
235.8660374004121
20
-33.680599986628046
10
235.05061150604249
20
-36.723810854222791
42
-0.80748816803359302
10
248.49999999999997
20
39.621616574794118
10
248.5
20
41.465500000000006
10
251.5
20
41.465500000000006
10
251.5
20
39.621616574794118
42
-0.80748816803359358
10
264.94938849395749
20
-36.723810854222791
10
264.1339625995879
20
-33.680599986628053
10
250
20
-37.467783851039215
0
LWPOLYLINE
5
110
100
AcDbEntity
8
0
100
AcDbPolyline
90
9
70
1
43
0.0
10
221.50062926625455
20
106.61159998662808
10
222.31605516062416
20
109.65481085422282
42
-0.8074881680335928
10
208.86666666666667
20
33.309383425205908
10
208.86666666666667
20
31.46550000000002
10
205.86666666666667
20
31.46550000000002
10
205.86666666666667
20
33.309383425205908
42
-0.80748816803359358
10
192.41727817270916
20
109.65481085422282
10
193.23270406707877
20
106.61159998662808
10
207.36666666666665
20
110.39878385103924
0
LWPOLYLINE
5
111
100
AcDbEntity
8
0
100
AcDbPolyline
90
9
70
1
43
0.0
10
304.83396259958789
20
106.61159998662808
10
305.64938849395747
20
109.65481085422282
42
-0.80748816803359325
10
292.20000000000005
20
33.309383425205908
10
292.19999999999999
20
31.46550000000002
10
289.19999999999999
20
31.46550000000002
10
289.19999999999999
20
33.309383425205901
42
-0.80748816803359325
10
275.7506115060425
20
109.65481085422282
10
276.56603740041209
20
106.61159998662808
10
290.69999999999999
20
110.39878385103924
0
LWPOLYLINE
5
112
100
AcDbEntity
8
0
100
AcDbPolyline
90
9
70
1
43
0.0
10
317.8660374004121
20
-33.680599986628046
10
317.05061150604257
20
-36.723810854222791
42
-0.80748816803359413
10
330.50000000000011
20
39.621616574794118
10
330.50000000000006
20
41.465500000000006
10
333.5
20
41.465500000000006
10
333.5
20
39.621616574794125
42
-0.80748816803359325
10
346.94938849395754
20
-36.723810854222776
10
346.1339625995879
20
-33.680599986628053
10
332
20
-37.467783851039215
0
CIRCLE
5
113
100
AcDbEntity
8
0
100
AcDbCircle
10
81.5
20
29.75
30
0
40
3.0000000000000022
210
0
220
0
230
1
0
LWPOLYLINE
5
114
100
AcDbEntity
8
0
100
AcDbPolyline
90
9
70
1
43
0.0
10
67.366037400412111
20
-33.680599986628046
10
66.550611506042515
20
-36.723810854222791
42
-0.80748816803359325
10
79.999999999999986
20
39.621616574794118
10
80
20
41.465500000000006
10
83
20
41.465500000000006
10
82.999999999999986
20
39.621616574794118
42
-0.80748816803359358
10
96.449388493957485
20
-36.723810854222791
10
95.633962599587903
20
-33.680599986628053
10
81.5
20
-37.467783851039215
0
ENDSEC
0
SECTION
2
OBJECTS
0
DICTIONARY
5
C
100
AcDbDictionary
3
ACAD_GROUP
350
D
3
ACAD_MLINESTYLE
350
17
0
DICTIONARY
5
D
100
AcDbDictionary
0
DICTIONARY
5
1A
330
C
100
AcDbDictionary
0
DICTIONARY
5
17
100
AcDbDictionary
0
ENDSEC
0
EOF
