999
"DXF R12 Output" (www.mydxf.blogspot.com)
 0 
SECTION
 2 
HEADER
 9 
$ACADVER
 1 
AC1009
 9 
$EXTMIN
 10 
 0 
 20 
 0 
 9 
$EXTMAX
 10 
 8.5 
 20 
 11 
 0 
ENDSEC
 0 
SECTION
 2 
ENTITIES
0
LINE
8
Layer 1
10
0.793749
20
161.678000
11
-0.793749
21
160.090000
0
LINE
8
Layer 1
10
0.000000
20
162.207000
11
0.000000
21
159.561000
0
LINE
8
Layer 1
10
2.116660
20
159.826000
11
1.058330
21
158.767670
0
LINE
8
Layer 1
10
1.587500
20
160.355000
11
0.529170
21
159.296670
0
LINE
8
Layer 1
10
1.058330
20
160.884000
11
0.000000
21
159.825670
0
LINE
8
0
10
1.013830
20
27.779700
11
1.201264
21
24.926395
0
LINE
8
0
10
1.201264
20
24.926395
11
1.665132
21
22.158987
0
LINE
8
0
10
1.665132
20
22.158987
11
2.391369
21
19.491222
0
LINE
8
0
10
2.391369
20
19.491222
11
3.365905
21
16.936847
0
LINE
8
0
10
3.365905
20
16.936847
11
4.574674
21
14.509607
0
LINE
8
0
10
4.574674
20
14.509607
11
6.003608
21
12.223250
0
LINE
8
0
10
6.003608
20
12.223250
11
7.638640
21
10.091520
0
LINE
8
0
10
7.638640
20
10.091520
11
9.465701
21
8.128166
0
LINE
8
0
10
9.465701
20
8.128166
11
11.470726
21
6.346933
0
LINE
8
0
10
11.470726
20
6.346933
11
13.639645
21
4.761566
0
LINE
8
0
10
13.639645
20
4.761566
11
15.958392
21
3.385814
0
LINE
8
0
10
15.958392
20
3.385814
11
18.412899
21
2.233421
0
LINE
8
0
10
18.412899
20
2.233421
11
20.989099
21
1.318134
0
LINE
8
0
10
20.989099
20
1.318134
11
23.672924
21
0.653700
0
LINE
8
0
10
23.672924
20
0.653700
11
26.450306
21
0.253865
0
LINE
8
0
10
26.450306
20
0.253865
11
29.307179
21
0.132374
0
LINE
8
0
10
29.307179
20
0.132374
11
32.161842
21
0.297836
0
LINE
8
0
10
32.161842
20
0.297836
11
34.932740
21
0.740386
0
LINE
8
0
10
34.932740
20
0.740386
11
37.606016
21
1.446063
0
LINE
8
0
10
37.606016
20
1.446063
11
40.167818
21
2.400906
0
LINE
8
0
10
40.167818
20
2.400906
11
42.604292
21
3.590953
0
LINE
8
0
10
42.604292
20
3.590953
11
44.901582
21
5.002243
0
LINE
8
0
10
44.901582
20
5.002243
11
47.045835
21
6.620815
0
LINE
8
0
10
47.045835
20
6.620815
11
49.023197
21
8.432708
0
LINE
8
0
10
49.023197
20
8.432708
11
50.819814
21
10.423960
0
LINE
8
0
10
50.819814
20
10.423960
11
52.421830
21
12.580610
0
LINE
8
0
10
52.421830
20
12.580610
11
53.815393
21
14.888697
0
LINE
8
0
10
53.815393
20
14.888697
11
54.986647
21
17.334260
0
LINE
8
0
10
54.986647
20
17.334260
11
55.921740
21
19.903337
0
LINE
8
0
10
55.921740
20
19.903337
11
56.606816
21
22.581967
0
LINE
8
0
10
56.606816
20
22.581967
11
57.028021
21
25.356189
0
LINE
8
0
10
57.028021
20
25.356189
11
57.171502
21
28.212042
0
LINE
8
0
10
57.171502
20
28.212042
11
57.028021
21
31.067895
0
LINE
8
0
10
57.028021
20
31.067895
11
56.606816
21
33.842117
0
LINE
8
0
10
56.606816
20
33.842117
11
55.921740
21
36.520747
0
LINE
8
0
10
55.921740
20
36.520747
11
54.986647
21
39.089824
0
LINE
8
0
10
54.986647
20
39.089824
11
53.815393
21
41.535387
0
LINE
8
0
10
53.815393
20
41.535387
11
52.421830
21
43.843474
0
LINE
8
0
10
52.421830
20
43.843474
11
50.819814
21
46.000124
0
LINE
8
0
10
50.819814
20
46.000124
11
49.023197
21
47.991376
0
LINE
8
0
10
49.023197
20
47.991376
11
47.045835
21
49.803269
0
LINE
8
0
10
47.045835
20
49.803269
11
44.901582
21
51.421841
0
LINE
8
0
10
44.901582
20
51.421841
11
42.604292
21
52.833131
0
LINE
8
0
10
42.604292
20
52.833131
11
40.167818
21
54.023178
0
LINE
8
0
10
40.167818
20
54.023178
11
37.606016
21
54.978021
0
LINE
8
0
10
37.606016
20
54.978021
11
34.932740
21
55.683698
0
LINE
8
0
10
34.932740
20
55.683698
11
32.161842
21
56.126248
0
LINE
8
0
10
32.161842
20
56.126248
11
29.307179
21
56.291710
0
LINE
8
0
10
29.307179
20
56.291710
11
26.450306
21
56.170219
0
LINE
8
0
10
26.450306
20
56.170219
11
23.672924
21
55.770384
0
LINE
8
0
10
23.672924
20
55.770384
11
20.989099
21
55.105950
0
LINE
8
0
10
20.989099
20
55.105950
11
18.412899
21
54.190663
0
LINE
8
0
10
18.412899
20
54.190663
11
15.958392
21
53.038270
0
LINE
8
0
10
15.958392
20
53.038270
11
13.639645
21
51.662518
0
LINE
8
0
10
13.639645
20
51.662518
11
11.470726
21
50.077151
0
LINE
8
0
10
11.470726
20
50.077151
11
9.465701
21
48.295918
0
LINE
8
0
10
9.465701
20
48.295918
11
7.638640
21
46.332564
0
LINE
8
0
10
7.638640
20
46.332564
11
6.003608
21
44.200834
0
LINE
8
0
10
6.003608
20
44.200834
11
4.574674
21
41.914477
0
LINE
8
0
10
4.574674
20
41.914477
11
3.365905
21
39.487237
0
LINE
8
0
10
3.365905
20
39.487237
11
2.391369
21
36.932862
0
LINE
8
0
10
2.391369
20
36.932862
11
1.665132
21
34.265097
0
LINE
8
0
10
1.665132
20
34.265097
11
1.201264
21
31.497689
0
LINE
8
0
10
1.201264
20
31.497689
11
1.013830
21
28.644384
0
LINE
8
0
10
1.013830
20
28.644384
11
0.265002
21
28.212029
0
LINE
8
0
10
0.265002
20
28.212029
11
1.013830
21
27.779700
0
LINE
8
0
10
61.013800
20
27.779700
11
61.201234
21
24.926395
0
LINE
8
0
10
61.201234
20
24.926395
11
61.665102
21
22.158987
0
LINE
8
0
10
61.665102
20
22.158987
11
62.391339
21
19.491222
0
LINE
8
0
10
62.391339
20
19.491222
11
63.365875
21
16.936847
0
LINE
8
0
10
63.365875
20
16.936847
11
64.574644
21
14.509607
0
LINE
8
0
10
64.574644
20
14.509607
11
66.003578
21
12.223250
0
LINE
8
0
10
66.003578
20
12.223250
11
67.638610
21
10.091520
0
LINE
8
0
10
67.638610
20
10.091520
11
69.465671
21
8.128166
0
LINE
8
0
10
69.465671
20
8.128166
11
71.470696
21
6.346933
0
LINE
8
0
10
71.470696
20
6.346933
11
73.639615
21
4.761566
0
LINE
8
0
10
73.639615
20
4.761566
11
75.958362
21
3.385814
0
LINE
8
0
10
75.958362
20
3.385814
11
78.412869
21
2.233421
0
LINE
8
0
10
78.412869
20
2.233421
11
80.989069
21
1.318134
0
LINE
8
0
10
80.989069
20
1.318134
11
83.672894
21
0.653700
0
LINE
8
0
10
83.672894
20
0.653700
11
86.450276
21
0.253865
0
LINE
8
0
10
86.450276
20
0.253865
11
89.307149
21
0.132374
0
LINE
8
0
10
89.307149
20
0.132374
11
92.161812
21
0.297836
0
LINE
8
0
10
92.161812
20
0.297836
11
94.932710
21
0.740386
0
LINE
8
0
10
94.932710
20
0.740386
11
97.605986
21
1.446063
0
LINE
8
0
10
97.605986
20
1.446063
11
100.167788
21
2.400906
0
LINE
8
0
10
100.167788
20
2.400906
11
102.604262
21
3.590953
0
LINE
8
0
10
102.604262
20
3.590953
11
104.901552
21
5.002243
0
LINE
8
0
10
104.901552
20
5.002243
11
107.045805
21
6.620815
0
LINE
8
0
10
107.045805
20
6.620815
11
109.023167
21
8.432708
0
LINE
8
0
10
109.023167
20
8.432708
11
110.819784
21
10.423960
0
LINE
8
0
10
110.819784
20
10.423960
11
112.421800
21
12.580610
0
LINE
8
0
10
112.421800
20
12.580610
11
113.815363
21
14.888697
0
LINE
8
0
10
113.815363
20
14.888697
11
114.986617
21
17.334260
0
LINE
8
0
10
114.986617
20
17.334260
11
115.921710
21
19.903337
0
LINE
8
0
10
115.921710
20
19.903337
11
116.606786
21
22.581967
0
LINE
8
0
10
116.606786
20
22.581967
11
117.027991
21
25.356189
0
LINE
8
0
10
117.027991
20
25.356189
11
117.171472
21
28.212042
0
LINE
8
0
10
117.171472
20
28.212042
11
117.027991
21
31.067895
0
LINE
8
0
10
117.027991
20
31.067895
11
116.606786
21
33.842117
0
LINE
8
0
10
116.606786
20
33.842117
11
115.921710
21
36.520747
0
LINE
8
0
10
115.921710
20
36.520747
11
114.986617
21
39.089824
0
LINE
8
0
10
114.986617
20
39.089824
11
113.815363
21
41.535387
0
LINE
8
0
10
113.815363
20
41.535387
11
112.421800
21
43.843474
0
LINE
8
0
10
112.421800
20
43.843474
11
110.819784
21
46.000124
0
LINE
8
0
10
110.819784
20
46.000124
11
109.023167
21
47.991376
0
LINE
8
0
10
109.023167
20
47.991376
11
107.045805
21
49.803269
0
LINE
8
0
10
107.045805
20
49.803269
11
104.901552
21
51.421841
0
LINE
8
0
10
104.901552
20
51.421841
11
102.604262
21
52.833131
0
LINE
8
0
10
102.604262
20
52.833131
11
100.167788
21
54.023178
0
LINE
8
0
10
100.167788
20
54.023178
11
97.605986
21
54.978021
0
LINE
8
0
10
97.605986
20
54.978021
11
94.932710
21
55.683698
0
LINE
8
0
10
94.932710
20
55.683698
11
92.161812
21
56.126248
0
LINE
8
0
10
92.161812
20
56.126248
11
89.307149
21
56.291710
0
LINE
8
0
10
89.307149
20
56.291710
11
86.450276
21
56.170219
0
LINE
8
0
10
86.450276
20
56.170219
11
83.672894
21
55.770384
0
LINE
8
0
10
83.672894
20
55.770384
11
80.989069
21
55.105950
0
LINE
8
0
10
80.989069
20
55.105950
11
78.412869
21
54.190663
0
LINE
8
0
10
78.412869
20
54.190663
11
75.958362
21
53.038270
0
LINE
8
0
10
75.958362
20
53.038270
11
73.639615
21
51.662518
0
LINE
8
0
10
73.639615
20
51.662518
11
71.470696
21
50.077151
0
LINE
8
0
10
71.470696
20
50.077151
11
69.465671
21
48.295918
0
LINE
8
0
10
69.465671
20
48.295918
11
67.638610
21
46.332564
0
LINE
8
0
10
67.638610
20
46.332564
11
66.003578
21
44.200834
0
LINE
8
0
10
66.003578
20
44.200834
11
64.574644
21
41.914477
0
LINE
8
0
10
64.574644
20
41.914477
11
63.365875
21
39.487237
0
LINE
8
0
10
63.365875
20
39.487237
11
62.391339
21
36.932862
0
LINE
8
0
10
62.391339
20
36.932862
11
61.665102
21
34.265097
0
LINE
8
0
10
61.665102
20
34.265097
11
61.201234
21
31.497689
0
LINE
8
0
10
61.201234
20
31.497689
11
61.013800
21
28.644384
0
LINE
8
0
10
61.013800
20
28.644384
11
60.264975
21
28.212029
0
LINE
8
0
10
60.264975
20
28.212029
11
61.013800
21
27.779700
0
LINE
8
0
10
29.548700
20
79.356400
11
29.736132
21
76.503094
0
LINE
8
0
10
29.736132
20
76.503094
11
30.200000
21
73.735686
0
LINE
8
0
10
30.200000
20
73.735686
11
30.926235
21
71.067920
0
LINE
8
0
10
30.926235
20
71.067920
11
31.900771
21
68.513544
0
LINE
8
0
10
31.900771
20
68.513544
11
33.109539
21
66.086303
0
LINE
8
0
10
33.109539
20
66.086303
11
34.538472
21
63.799945
0
LINE
8
0
10
34.538472
20
63.799945
11
36.173503
21
61.668215
0
LINE
8
0
10
36.173503
20
61.668215
11
38.000564
21
59.704860
0
LINE
8
0
10
38.000564
20
59.704860
11
40.005588
21
57.923625
0
LINE
8
0
10
40.005588
20
57.923625
11
42.174508
21
56.338258
0
LINE
8
0
10
42.174508
20
56.338258
11
44.493254
21
54.962504
0
LINE
8
0
10
44.493254
20
54.962504
11
46.947762
21
53.810111
0
LINE
8
0
10
46.947762
20
53.810111
11
49.523961
21
52.894823
0
LINE
8
0
10
49.523961
20
52.894823
11
52.207787
21
52.230388
0
LINE
8
0
10
52.207787
20
52.230388
11
54.985169
21
51.830552
0
LINE
8
0
10
54.985169
20
51.830552
11
57.842042
21
51.709061
0
LINE
8
0
10
57.842042
20
51.709061
11
60.696706
21
51.874522
0
LINE
8
0
10
60.696706
20
51.874522
11
63.467604
21
52.317072
0
LINE
8
0
10
63.467604
20
52.317072
11
66.140881
21
53.022748
0
LINE
8
0
10
66.140881
20
53.022748
11
68.702684
21
53.977590
0
LINE
8
0
10
68.702684
20
53.977590
11
71.139158
21
55.167637
0
LINE
8
0
10
71.139158
20
55.167637
11
73.436449
21
56.578927
0
LINE
8
0
10
73.436449
20
56.578927
11
75.580703
21
58.197499
0
LINE
8
0
10
75.580703
20
58.197499
11
77.558065
21
60.009392
0
LINE
8
0
10
77.558065
20
60.009392
11
79.354682
21
62.000644
0
LINE
8
0
10
79.354682
20
62.000644
11
80.956699
21
64.157295
0
LINE
8
0
10
80.956699
20
64.157295
11
82.350262
21
66.465382
0
LINE
8
0
10
82.350262
20
66.465382
11
83.521517
21
68.910945
0
LINE
8
0
10
83.521517
20
68.910945
11
84.456610
21
71.480022
0
LINE
8
0
10
84.456610
20
71.480022
11
85.141686
21
74.158653
0
LINE
8
0
10
85.141686
20
74.158653
11
85.562891
21
76.932875
0
LINE
8
0
10
85.562891
20
76.932875
11
85.706372
21
79.788728
0
LINE
8
0
10
85.706372
20
79.788728
11
85.562891
21
82.644582
0
LINE
8
0
10
85.562891
20
82.644582
11
85.141686
21
85.418804
0
LINE
8
0
10
85.141686
20
85.418804
11
84.456610
21
88.097435
0
LINE
8
0
10
84.456610
20
88.097435
11
83.521517
21
90.666512
0
LINE
8
0
10
83.521517
20
90.666512
11
82.350262
21
93.112075
0
LINE
8
0
10
82.350262
20
93.112075
11
80.956699
21
95.420162
0
LINE
8
0
10
80.956699
20
95.420162
11
79.354682
21
97.576813
0
LINE
8
0
10
79.354682
20
97.576813
11
77.558065
21
99.568065
0
LINE
8
0
10
77.558065
20
99.568065
11
75.580703
21
101.379958
0
LINE
8
0
10
75.580703
20
101.379958
11
73.436449
21
102.998530
0
LINE
8
0
10
73.436449
20
102.998530
11
71.139158
21
104.409820
0
LINE
8
0
10
71.139158
20
104.409820
11
68.702684
21
105.599867
0
LINE
8
0
10
68.702684
20
105.599867
11
66.140881
21
106.554709
0
LINE
8
0
10
66.140881
20
106.554709
11
63.467604
21
107.260385
0
LINE
8
0
10
63.467604
20
107.260385
11
60.696706
21
107.702935
0
LINE
8
0
10
60.696706
20
107.702935
11
57.842042
21
107.868396
0
LINE
8
0
10
57.842042
20
107.868396
11
54.985169
21
107.746905
0
LINE
8
0
10
54.985169
20
107.746905
11
52.207787
21
107.347069
0
LINE
8
0
10
52.207787
20
107.347069
11
49.523961
21
106.682634
0
LINE
8
0
10
49.523961
20
106.682634
11
46.947762
21
105.767346
0
LINE
8
0
10
46.947762
20
105.767346
11
44.493254
21
104.614953
0
LINE
8
0
10
44.493254
20
104.614953
11
42.174508
21
103.239199
0
LINE
8
0
10
42.174508
20
103.239199
11
40.005588
21
101.653832
0
LINE
8
0
10
40.005588
20
101.653832
11
38.000564
21
99.872597
0
LINE
8
0
10
38.000564
20
99.872597
11
36.173503
21
97.909242
0
LINE
8
0
10
36.173503
20
97.909242
11
34.538472
21
95.777512
0
LINE
8
0
10
34.538472
20
95.777512
11
33.109539
21
93.491154
0
LINE
8
0
10
33.109539
20
93.491154
11
31.900771
21
91.063913
0
LINE
8
0
10
31.900771
20
91.063913
11
30.926235
21
88.509537
0
LINE
8
0
10
30.926235
20
88.509537
11
30.200000
21
85.841771
0
LINE
8
0
10
30.200000
20
85.841771
11
29.736132
21
83.074363
0
LINE
8
0
10
29.736132
20
83.074363
11
29.548700
21
80.221057
0
LINE
8
0
10
29.548700
20
80.221057
11
28.799872
21
79.788728
0
LINE
8
0
10
28.799872
20
79.788728
11
29.548700
21
79.356400
0
LINE
8
0
10
1.013830
20
131.780000
11
1.201263
21
128.926695
0
LINE
8
0
10
1.201263
20
128.926695
11
1.665131
21
126.159286
0
LINE
8
0
10
1.665131
20
126.159286
11
2.391367
21
123.491521
0
LINE
8
0
10
2.391367
20
123.491521
11
3.365903
21
120.937145
0
LINE
8
0
10
3.365903
20
120.937145
11
4.574671
21
118.509905
0
LINE
8
0
10
4.574671
20
118.509905
11
6.003605
21
116.223547
0
LINE
8
0
10
6.003605
20
116.223547
11
7.638636
21
114.091818
0
LINE
8
0
10
7.638636
20
114.091818
11
9.465698
21
112.128463
0
LINE
8
0
10
9.465698
20
112.128463
11
11.470722
21
110.347229
0
LINE
8
0
10
11.470722
20
110.347229
11
13.639641
21
108.761862
0
LINE
8
0
10
13.639641
20
108.761862
11
15.958388
21
107.386109
0
LINE
8
0
10
15.958388
20
107.386109
11
18.412895
21
106.233716
0
LINE
8
0
10
18.412895
20
106.233716
11
20.989095
21
105.318429
0
LINE
8
0
10
20.989095
20
105.318429
11
23.672920
21
104.653994
0
LINE
8
0
10
23.672920
20
104.653994
11
26.450303
21
104.254158
0
LINE
8
0
10
26.450303
20
104.254158
11
29.307176
21
104.132667
0
LINE
8
0
10
29.307176
20
104.132667
11
32.161839
21
104.298129
0
LINE
8
0
10
32.161839
20
104.298129
11
34.932737
21
104.740679
0
LINE
8
0
10
34.932737
20
104.740679
11
37.606014
21
105.446355
0
LINE
8
0
10
37.606014
20
105.446355
11
40.167816
21
106.401198
0
LINE
8
0
10
40.167816
20
106.401198
11
42.604290
21
107.591245
0
LINE
8
0
10
42.604290
20
107.591245
11
44.901580
21
109.002535
0
LINE
8
0
10
44.901580
20
109.002535
11
47.045834
21
110.621107
0
LINE
8
0
10
47.045834
20
110.621107
11
49.023196
21
112.433000
0
LINE
8
0
10
49.023196
20
112.433000
11
50.819813
21
114.424252
0
LINE
8
0
10
50.819813
20
114.424252
11
52.421830
21
116.580902
0
LINE
8
0
10
52.421830
20
116.580902
11
53.815392
21
118.888989
0
LINE
8
0
10
53.815392
20
118.888989
11
54.986647
21
121.334552
0
LINE
8
0
10
54.986647
20
121.334552
11
55.921740
21
123.903629
0
LINE
8
0
10
55.921740
20
123.903629
11
56.606816
21
126.582260
0
LINE
8
0
10
56.606816
20
126.582260
11
57.028021
21
129.356482
0
LINE
8
0
10
57.028021
20
129.356482
11
57.171502
21
132.212335
0
LINE
8
0
10
57.171502
20
132.212335
11
57.028021
21
135.068188
0
LINE
8
0
10
57.028021
20
135.068188
11
56.606816
21
137.842410
0
LINE
8
0
10
56.606816
20
137.842410
11
55.921740
21
140.521041
0
LINE
8
0
10
55.921740
20
140.521041
11
54.986647
21
143.090118
0
LINE
8
0
10
54.986647
20
143.090118
11
53.815392
21
145.535681
0
LINE
8
0
10
53.815392
20
145.535681
11
52.421830
21
147.843768
0
LINE
8
0
10
52.421830
20
147.843768
11
50.819813
21
150.000418
0
LINE
8
0
10
50.819813
20
150.000418
11
49.023196
21
151.991670
0
LINE
8
0
10
49.023196
20
151.991670
11
47.045834
21
153.803563
0
LINE
8
0
10
47.045834
20
153.803563
11
44.901580
21
155.422135
0
LINE
8
0
10
44.901580
20
155.422135
11
42.604290
21
156.833425
0
LINE
8
0
10
42.604290
20
156.833425
11
40.167816
21
158.023472
0
LINE
8
0
10
40.167816
20
158.023472
11
37.606014
21
158.978315
0
LINE
8
0
10
37.606014
20
158.978315
11
34.932737
21
159.683991
0
LINE
8
0
10
34.932737
20
159.683991
11
32.161839
21
160.126541
0
LINE
8
0
10
32.161839
20
160.126541
11
29.307176
21
160.292003
0
LINE
8
0
10
29.307176
20
160.292003
11
26.450303
21
160.170512
0
LINE
8
0
10
26.450303
20
160.170512
11
23.672920
21
159.770676
0
LINE
8
0
10
23.672920
20
159.770676
11
20.989095
21
159.106241
0
LINE
8
0
10
20.989095
20
159.106241
11
18.412895
21
158.190954
0
LINE
8
0
10
18.412895
20
158.190954
11
15.958388
21
157.038561
0
LINE
8
0
10
15.958388
20
157.038561
11
13.639641
21
155.662808
0
LINE
8
0
10
13.639641
20
155.662808
11
11.470722
21
154.077441
0
LINE
8
0
10
11.470722
20
154.077441
11
9.465698
21
152.296207
0
LINE
8
0
10
9.465698
20
152.296207
11
7.638636
21
150.332852
0
LINE
8
0
10
7.638636
20
150.332852
11
6.003605
21
148.201123
0
LINE
8
0
10
6.003605
20
148.201123
11
4.574671
21
145.914765
0
LINE
8
0
10
4.574671
20
145.914765
11
3.365903
21
143.487525
0
LINE
8
0
10
3.365903
20
143.487525
11
2.391367
21
140.933149
0
LINE
8
0
10
2.391367
20
140.933149
11
1.665131
21
138.265384
0
LINE
8
0
10
1.665131
20
138.265384
11
1.201263
21
135.497975
0
LINE
8
0
10
1.201263
20
135.497975
11
1.013830
21
132.644670
0
LINE
8
0
10
1.013830
20
132.644670
11
0.265002
21
132.212333
0
LINE
8
0
10
0.265002
20
132.212333
11
1.013830
21
131.780000
0
LINE
8
0
10
141.561000
20
96.238300
11
141.537356
21
96.940245
0
LINE
8
0
10
141.537356
20
96.940245
11
141.305834
21
97.586616
0
LINE
8
0
10
141.305834
20
97.586616
11
140.890388
21
98.133244
0
LINE
8
0
10
140.890388
20
98.133244
11
140.314969
21
98.535960
0
LINE
8
0
10
140.314969
20
98.535960
11
139.643500
21
98.741910
0
LINE
8
0
10
139.643500
20
98.741910
11
138.956971
21
98.733209
0
LINE
8
0
10
138.956971
20
98.733209
11
138.304940
21
98.518143
0
LINE
8
0
10
138.304940
20
98.518143
11
137.736965
21
98.104995
0
LINE
8
0
10
137.736965
20
98.104995
11
137.323817
21
97.537020
0
LINE
8
0
10
137.323817
20
97.537020
11
137.108751
21
96.884989
0
LINE
8
0
10
137.108751
20
96.884989
11
137.100050
21
96.198460
0
LINE
8
0
10
137.100050
20
96.198460
11
137.306000
21
95.526991
0
LINE
8
0
10
137.306000
20
95.526991
11
137.708716
21
94.951572
0
LINE
8
0
10
137.708716
20
94.951572
11
138.255344
21
94.536126
0
LINE
8
0
10
138.255344
20
94.536126
11
138.901715
21
94.304604
0
LINE
8
0
10
138.901715
20
94.304604
11
139.603660
21
94.280960
0
LINE
8
0
10
139.603660
20
94.280960
11
136.897422
21
91.975248
0
LINE
8
0
10
136.897422
20
91.975248
11
134.013396
21
89.932765
0
LINE
8
0
10
134.013396
20
89.932765
11
130.970992
21
88.161583
0
LINE
8
0
10
130.970992
20
88.161583
11
127.789620
21
86.669775
0
LINE
8
0
10
127.789620
20
86.669775
11
124.488691
21
85.465416
0
LINE
8
0
10
124.488691
20
85.465416
11
121.087614
21
84.556578
0
LINE
8
0
10
121.087614
20
84.556578
11
117.605800
21
83.951335
0
LINE
8
0
10
117.605800
20
83.951335
11
114.062660
21
83.657760
0
LINE
8
0
10
114.062660
20
83.657760
11
114.063000
21
81.813800
0
LINE
8
0
10
114.063000
20
81.813800
11
111.063000
21
81.813800
0
LINE
8
0
10
111.063000
20
81.813800
11
111.063000
21
83.657700
0
LINE
8
0
10
111.063000
20
83.657700
11
107.600811
21
83.939791
0
LINE
8
0
10
107.600811
20
83.939791
11
104.223253
21
84.513012
0
LINE
8
0
10
104.223253
20
84.513012
11
100.944061
21
85.365388
0
LINE
8
0
10
100.944061
20
85.365388
11
97.776969
21
86.484943
0
LINE
8
0
10
97.776969
20
86.484943
11
94.735709
21
87.859701
0
LINE
8
0
10
94.735709
20
87.859701
11
91.834016
21
89.477686
0
LINE
8
0
10
91.834016
20
89.477686
11
89.085624
21
91.326922
0
LINE
8
0
10
89.085624
20
91.326922
11
86.504265
21
93.395433
0
LINE
8
0
10
86.504265
20
93.395433
11
84.103673
21
95.671244
0
LINE
8
0
10
84.103673
20
95.671244
11
81.897583
21
98.142378
0
LINE
8
0
10
81.897583
20
98.142378
11
79.899728
21
100.796859
0
LINE
8
0
10
79.899728
20
100.796859
11
78.123841
21
103.622712
0
LINE
8
0
10
78.123841
20
103.622712
11
76.583657
21
106.607961
0
LINE
8
0
10
76.583657
20
106.607961
11
75.292908
21
109.740629
0
LINE
8
0
10
75.292908
20
109.740629
11
74.265329
21
113.008741
0
LINE
8
0
10
74.265329
20
113.008741
11
73.514653
21
116.400322
0
LINE
8
0
10
73.514653
20
116.400322
11
73.061157
21
119.844254
0
LINE
8
0
10
73.061157
20
119.844254
11
72.910087
21
123.266776
0
LINE
8
0
10
72.910087
20
123.266776
11
73.052628
21
126.651938
0
LINE
8
0
10
73.052628
20
126.651938
11
73.479965
21
129.983794
0
LINE
8
0
10
73.479965
20
129.983794
11
74.183285
21
133.246394
0
LINE
8
0
10
74.183285
20
133.246394
11
75.153773
21
136.423791
0
LINE
8
0
10
75.153773
20
136.423791
11
76.382614
21
139.500036
0
LINE
8
0
10
76.382614
20
139.500036
11
77.860994
21
142.459183
0
LINE
8
0
10
77.860994
20
142.459183
11
79.580099
21
145.285281
0
LINE
8
0
10
79.580099
20
145.285281
11
81.531113
21
147.962384
0
LINE
8
0
10
81.531113
20
147.962384
11
83.705223
21
150.474543
0
LINE
8
0
10
83.705223
20
150.474543
11
86.093614
21
152.805810
0
LINE
8
0
10
86.093614
20
152.805810
11
88.687472
21
154.940238
0
LINE
8
0
10
88.687472
20
154.940238
11
91.477981
21
156.861877
0
LINE
8
0
10
91.477981
20
156.861877
11
94.456329
21
158.554781
0
LINE
8
0
10
94.456329
20
158.554781
11
97.613700
21
160.003000
0
LINE
8
0
10
97.613700
20
160.003000
11
98.429126
21
156.959790
0
LINE
8
0
10
98.429126
20
156.959790
11
112.563026
21
160.746970
0
LINE
8
0
10
112.563026
20
160.746970
11
126.696926
21
156.959790
0
LINE
8
0
10
126.696926
20
156.959790
11
127.512352
21
160.003000
0
LINE
8
0
10
127.512352
20
160.003000
11
131.886396
21
157.902320
0
LINE
8
0
10
131.886396
20
157.902320
11
135.927508
21
155.314553
0
LINE
8
0
10
135.927508
20
155.314553
11
139.601789
21
152.279902
0
LINE
8
0
10
139.601789
20
152.279902
11
142.875339
21
148.838570
0
LINE
8
0
10
142.875339
20
148.838570
11
145.714260
21
145.030759
0
LINE
8
0
10
145.714260
20
145.030759
11
148.084653
21
140.896671
0
LINE
8
0
10
148.084653
20
140.896671
11
149.952620
21
136.476510
0
LINE
8
0
10
149.952620
20
136.476510
11
151.284260
21
131.810478
0
LINE
8
0
10
151.284260
20
131.810478
11
152.036820
21
127.016860
0
LINE
8
0
10
152.036820
20
127.016860
11
152.199386
21
122.220956
0
LINE
8
0
10
152.199386
20
122.220956
11
151.785824
21
117.473493
0
LINE
8
0
10
151.785824
20
117.473493
11
150.809997
21
112.825196
0
LINE
8
0
10
150.809997
20
112.825196
11
149.285772
21
108.326792
0
LINE
8
0
10
149.285772
20
108.326792
11
147.227013
21
104.029007
0
LINE
8
0
10
147.227013
20
104.029007
11
144.647584
21
99.982568
0
LINE
8
0
10
144.647584
20
99.982568
11
141.561352
21
96.238200
0
LINE
8
0
10
141.561352
20
96.238200
11
141.561000
21
96.238300
0
LINE
8
0
10
142.729000
20
16.667800
11
141.913575
21
13.624590
0
LINE
8
0
10
141.913575
20
13.624590
11
138.756199
21
15.072811
0
LINE
8
0
10
138.756199
20
15.072811
11
135.777847
21
16.765716
0
LINE
8
0
10
135.777847
20
16.765716
11
132.987333
21
18.687358
0
LINE
8
0
10
132.987333
20
18.687358
11
130.393472
21
20.821789
0
LINE
8
0
10
130.393472
20
20.821789
11
128.005078
21
23.153060
0
LINE
8
0
10
128.005078
20
23.153060
11
125.830966
21
25.665223
0
LINE
8
0
10
125.830966
20
25.665223
11
123.879950
21
28.342331
0
LINE
8
0
10
123.879950
20
28.342331
11
122.160845
21
31.168434
0
LINE
8
0
10
122.160845
20
31.168434
11
120.682465
21
34.127585
0
LINE
8
0
10
120.682465
20
34.127585
11
119.453625
21
37.203836
0
LINE
8
0
10
119.453625
20
37.203836
11
118.483139
21
40.381238
0
LINE
8
0
10
118.483139
20
40.381238
11
117.779821
21
43.643843
0
LINE
8
0
10
117.779821
20
43.643843
11
117.352487
21
46.975704
0
LINE
8
0
10
117.352487
20
46.975704
11
117.209950
21
50.360871
0
LINE
8
0
10
117.209950
20
50.360871
11
117.361025
21
53.783397
0
LINE
8
0
10
117.361025
20
53.783397
11
117.814527
21
57.227334
0
LINE
8
0
10
117.814527
20
57.227334
11
118.565209
21
60.618918
0
LINE
8
0
10
118.565209
20
60.618918
11
119.592796
21
63.887033
0
LINE
8
0
10
119.592796
20
63.887033
11
120.883552
21
67.019704
0
LINE
8
0
10
120.883552
20
67.019704
11
122.423745
21
70.004954
0
LINE
8
0
10
122.423745
20
70.004954
11
124.199640
21
72.830807
0
LINE
8
0
10
124.199640
20
72.830807
11
126.197504
21
75.485287
0
LINE
8
0
10
126.197504
20
75.485287
11
128.403603
21
77.956419
0
LINE
8
0
10
128.403603
20
77.956419
11
130.804203
21
80.232227
0
LINE
8
0
10
130.804203
20
80.232227
11
133.385571
21
82.300735
0
LINE
8
0
10
133.385571
20
82.300735
11
136.133972
21
84.149966
0
LINE
8
0
10
136.133972
20
84.149966
11
139.035673
21
85.767945
0
LINE
8
0
10
139.035673
20
85.767945
11
142.076941
21
87.142696
0
LINE
8
0
10
142.076941
20
87.142696
11
145.244041
21
88.262243
0
LINE
8
0
10
145.244041
20
88.262243
11
148.523240
21
89.114610
0
LINE
8
0
10
148.523240
20
89.114610
11
151.900805
21
89.687821
0
LINE
8
0
10
151.900805
20
89.687821
11
155.363000
21
89.969900
0
LINE
8
0
10
155.363000
20
89.969900
11
155.363000
21
91.813800
0
LINE
8
0
10
155.363000
20
91.813800
11
158.363000
21
91.813800
0
LINE
8
0
10
158.363000
20
91.813800
11
158.363000
21
89.969900
0
LINE
8
0
10
158.363000
20
89.969900
11
161.825179
21
89.687787
0
LINE
8
0
10
161.825179
20
89.687787
11
165.202725
21
89.114544
0
LINE
8
0
10
165.202725
20
89.114544
11
168.481903
21
88.262149
0
LINE
8
0
10
168.481903
20
88.262149
11
171.648982
21
87.142577
0
LINE
8
0
10
171.648982
20
87.142577
11
174.690226
21
85.767804
0
LINE
8
0
10
174.690226
20
85.767804
11
177.591903
21
84.149806
0
LINE
8
0
10
177.591903
20
84.149806
11
180.340279
21
82.300558
0
LINE
8
0
10
180.340279
20
82.300558
11
182.921621
21
80.232038
0
LINE
8
0
10
182.921621
20
80.232038
11
185.322195
21
77.956219
0
LINE
8
0
10
185.322195
20
77.956219
11
187.528268
21
75.485080
0
LINE
8
0
10
187.528268
20
75.485080
11
189.526106
21
72.830594
0
LINE
8
0
10
189.526106
20
72.830594
11
191.301975
21
70.004739
0
LINE
8
0
10
191.301975
20
70.004739
11
192.842143
21
67.019490
0
LINE
8
0
10
192.842143
20
67.019490
11
194.132875
21
63.886824
0
LINE
8
0
10
194.132875
20
63.886824
11
195.160438
21
60.618715
0
LINE
8
0
10
195.160438
20
60.618715
11
195.911099
21
57.227140
0
LINE
8
0
10
195.911099
20
57.227140
11
196.364581
21
53.783214
0
LINE
8
0
10
196.364581
20
53.783214
11
196.515639
21
50.360700
0
LINE
8
0
10
196.515639
20
50.360700
11
196.373087
21
46.975546
0
LINE
8
0
10
196.373087
20
46.975546
11
195.945740
21
43.643699
0
LINE
8
0
10
195.945740
20
43.643699
11
195.242412
21
40.381108
0
LINE
8
0
10
195.242412
20
40.381108
11
194.271918
21
37.203721
0
LINE
8
0
10
194.271918
20
37.203721
11
193.043072
21
34.127486
0
LINE
8
0
10
193.043072
20
34.127486
11
191.564688
21
31.168350
0
LINE
8
0
10
191.564688
20
31.168350
11
189.845582
21
28.342261
0
LINE
8
0
10
189.845582
20
28.342261
11
187.894566
21
25.665168
0
LINE
8
0
10
187.894566
20
25.665168
11
185.720457
21
23.153019
0
LINE
8
0
10
185.720457
20
23.153019
11
183.332067
21
20.821760
0
LINE
8
0
10
183.332067
20
20.821760
11
180.738212
21
18.687341
0
LINE
8
0
10
180.738212
20
18.687341
11
177.947707
21
16.765710
0
LINE
8
0
10
177.947707
20
16.765710
11
174.969364
21
15.072813
0
LINE
8
0
10
174.969364
20
15.072813
11
171.812000
21
13.624600
0
LINE
8
0
10
171.812000
20
13.624600
11
170.997000
21
16.667800
0
LINE
8
0
10
170.997000
20
16.667800
11
156.863000
21
12.880600
0
LINE
8
0
10
156.863000
20
12.880600
11
142.729000
21
16.667800
0
LINE
8
0
10
211.697000
20
156.960000
11
212.512426
21
160.003210
0
LINE
8
0
10
212.512426
20
160.003210
11
215.669799
21
158.554989
0
LINE
8
0
10
215.669799
20
158.554989
11
218.648149
21
156.862083
0
LINE
8
0
10
218.648149
20
156.862083
11
221.438660
21
154.940441
0
LINE
8
0
10
221.438660
20
154.940441
11
224.032518
21
152.806011
0
LINE
8
0
10
224.032518
20
152.806011
11
226.420910
21
150.474740
0
LINE
8
0
10
226.420910
20
150.474740
11
228.595020
21
147.962578
0
LINE
8
0
10
228.595020
20
147.962578
11
230.546034
21
145.285472
0
LINE
8
0
10
230.546034
20
145.285472
11
232.265138
21
142.459370
0
LINE
8
0
10
232.265138
20
142.459370
11
233.743517
21
139.500221
0
LINE
8
0
10
233.743517
20
139.500221
11
234.972356
21
136.423972
0
LINE
8
0
10
234.972356
20
136.423972
11
235.942841
21
133.246572
0
LINE
8
0
10
235.942841
20
133.246572
11
236.646159
21
129.983968
0
LINE
8
0
10
236.646159
20
129.983968
11
237.073493
21
126.652110
0
LINE
8
0
10
237.073493
20
126.652110
11
237.216031
21
123.266944
0
LINE
8
0
10
237.216031
20
123.266944
11
237.064956
21
119.844420
0
LINE
8
0
10
237.064956
20
119.844420
11
236.611456
21
116.400485
0
LINE
8
0
10
236.611456
20
116.400485
11
235.860775
21
113.008903
0
LINE
8
0
10
235.860775
20
113.008903
11
234.833190
21
109.740790
0
LINE
8
0
10
234.833190
20
109.740790
11
233.542436
21
106.608121
0
LINE
8
0
10
233.542436
20
106.608121
11
232.002246
21
103.622872
0
LINE
8
0
10
232.002246
20
103.622872
11
230.226353
21
100.797020
0
LINE
8
0
10
230.226353
20
100.797020
11
228.228492
21
98.142540
0
LINE
8
0
10
228.228492
20
98.142540
11
226.022396
21
95.671408
0
LINE
8
0
10
226.022396
20
95.671408
11
223.621799
21
93.395600
0
LINE
8
0
10
223.621799
20
93.395600
11
221.040435
21
91.327092
0
LINE
8
0
10
221.040435
20
91.327092
11
218.292036
21
89.477859
0
LINE
8
0
10
218.292036
20
89.477859
11
215.390338
21
87.859879
0
LINE
8
0
10
215.390338
20
87.859879
11
212.349074
21
86.485126
0
LINE
8
0
10
212.349074
20
86.485126
11
209.181976
21
85.365577
0
LINE
8
0
10
209.181976
20
85.365577
11
205.902780
21
84.513207
0
LINE
8
0
10
205.902780
20
84.513207
11
202.525219
21
83.939993
0
LINE
8
0
10
202.525219
20
83.939993
11
199.063026
21
83.657910
0
LINE
8
0
10
199.063026
20
83.657910
11
199.063000
21
81.813800
0
LINE
8
0
10
199.063000
20
81.813800
11
196.063000
21
81.813800
0
LINE
8
0
10
196.063000
20
81.813800
11
196.063000
21
83.657700
0
LINE
8
0
10
196.063000
20
83.657700
11
192.600821
21
83.939813
0
LINE
8
0
10
192.600821
20
83.939813
11
189.223275
21
84.513056
0
LINE
8
0
10
189.223275
20
84.513056
11
185.944097
21
85.365451
0
LINE
8
0
10
185.944097
20
85.365451
11
182.777018
21
86.485023
0
LINE
8
0
10
182.777018
20
86.485023
11
179.735774
21
87.859796
0
LINE
8
0
10
179.735774
20
87.859796
11
176.834097
21
89.477794
0
LINE
8
0
10
176.834097
20
89.477794
11
174.085721
21
91.327042
0
LINE
8
0
10
174.085721
20
91.327042
11
171.504379
21
93.395562
0
LINE
8
0
10
171.504379
20
93.395562
11
169.103805
21
95.671381
0
LINE
8
0
10
169.103805
20
95.671381
11
166.897732
21
98.142520
0
LINE
8
0
10
166.897732
20
98.142520
11
164.899894
21
100.797006
0
LINE
8
0
10
164.899894
20
100.797006
11
163.124025
21
103.622861
0
LINE
8
0
10
163.124025
20
103.622861
11
161.583857
21
106.608110
0
LINE
8
0
10
161.583857
20
106.608110
11
160.293125
21
109.740776
0
LINE
8
0
10
160.293125
20
109.740776
11
159.265562
21
113.008885
0
LINE
8
0
10
159.265562
20
113.008885
11
158.514901
21
116.400460
0
LINE
8
0
10
158.514901
20
116.400460
11
158.061419
21
119.844386
0
LINE
8
0
10
158.061419
20
119.844386
11
157.910361
21
123.266900
0
LINE
8
0
10
157.910361
20
123.266900
11
158.052913
21
126.652054
0
LINE
8
0
10
158.052913
20
126.652054
11
158.480260
21
129.983901
0
LINE
8
0
10
158.480260
20
129.983901
11
159.183588
21
133.246492
0
LINE
8
0
10
159.183588
20
133.246492
11
160.154082
21
136.423879
0
LINE
8
0
10
160.154082
20
136.423879
11
161.382928
21
139.500114
0
LINE
8
0
10
161.382928
20
139.500114
11
162.861312
21
142.459250
0
LINE
8
0
10
162.861312
20
142.459250
11
164.580418
21
145.285339
0
LINE
8
0
10
164.580418
20
145.285339
11
166.531434
21
147.962432
0
LINE
8
0
10
166.531434
20
147.962432
11
168.705543
21
150.474581
0
LINE
8
0
10
168.705543
20
150.474581
11
171.093933
21
152.805840
0
LINE
8
0
10
171.093933
20
152.805840
11
173.687788
21
154.940259
0
LINE
8
0
10
173.687788
20
154.940259
11
176.478293
21
156.861890
0
LINE
8
0
10
176.478293
20
156.861890
11
179.456636
21
158.554787
0
LINE
8
0
10
179.456636
20
158.554787
11
182.614000
21
160.003000
0
LINE
8
0
10
182.614000
20
160.003000
11
183.429425
21
156.959790
0
LINE
8
0
10
183.429425
20
156.959790
11
197.563325
21
160.746970
0
LINE
8
0
10
197.563325
20
160.746970
11
211.697000
21
156.960000
0
LINE
8
0
10
295.030000
20
156.960000
11
295.845426
21
160.003210
0
LINE
8
0
10
295.845426
20
160.003210
11
299.002799
21
158.554989
0
LINE
8
0
10
299.002799
20
158.554989
11
301.981149
21
156.862083
0
LINE
8
0
10
301.981149
20
156.862083
11
304.771660
21
154.940441
0
LINE
8
0
10
304.771660
20
154.940441
11
307.365518
21
152.806011
0
LINE
8
0
10
307.365518
20
152.806011
11
309.753910
21
150.474740
0
LINE
8
0
10
309.753910
20
150.474740
11
311.928020
21
147.962578
0
LINE
8
0
10
311.928020
20
147.962578
11
313.879034
21
145.285472
0
LINE
8
0
10
313.879034
20
145.285472
11
315.598138
21
142.459370
0
LINE
8
0
10
315.598138
20
142.459370
11
317.076517
21
139.500221
0
LINE
8
0
10
317.076517
20
139.500221
11
318.305356
21
136.423972
0
LINE
8
0
10
318.305356
20
136.423972
11
319.275841
21
133.246572
0
LINE
8
0
10
319.275841
20
133.246572
11
319.979159
21
129.983968
0
LINE
8
0
10
319.979159
20
129.983968
11
320.406493
21
126.652110
0
LINE
8
0
10
320.406493
20
126.652110
11
320.549031
21
123.266944
0
LINE
8
0
10
320.549031
20
123.266944
11
320.397956
21
119.844420
0
LINE
8
0
10
320.397956
20
119.844420
11
319.944456
21
116.400485
0
LINE
8
0
10
319.944456
20
116.400485
11
319.193775
21
113.008903
0
LINE
8
0
10
319.193775
20
113.008903
11
318.166190
21
109.740790
0
LINE
8
0
10
318.166190
20
109.740790
11
316.875436
21
106.608121
0
LINE
8
0
10
316.875436
20
106.608121
11
315.335246
21
103.622872
0
LINE
8
0
10
315.335246
20
103.622872
11
313.559353
21
100.797020
0
LINE
8
0
10
313.559353
20
100.797020
11
311.561492
21
98.142540
0
LINE
8
0
10
311.561492
20
98.142540
11
309.355396
21
95.671408
0
LINE
8
0
10
309.355396
20
95.671408
11
306.954799
21
93.395600
0
LINE
8
0
10
306.954799
20
93.395600
11
304.373435
21
91.327092
0
LINE
8
0
10
304.373435
20
91.327092
11
301.625036
21
89.477859
0
LINE
8
0
10
301.625036
20
89.477859
11
298.723338
21
87.859879
0
LINE
8
0
10
298.723338
20
87.859879
11
295.682074
21
86.485126
0
LINE
8
0
10
295.682074
20
86.485126
11
292.514976
21
85.365577
0
LINE
8
0
10
292.514976
20
85.365577
11
289.235780
21
84.513207
0
LINE
8
0
10
289.235780
20
84.513207
11
285.858219
21
83.939993
0
LINE
8
0
10
285.858219
20
83.939993
11
282.396026
21
83.657910
0
LINE
8
0
10
282.396026
20
83.657910
11
282.396000
21
81.813800
0
LINE
8
0
10
282.396000
20
81.813800
11
279.396000
21
81.813800
0
LINE
8
0
10
279.396000
20
81.813800
11
279.396000
21
83.657700
0
LINE
8
0
10
279.396000
20
83.657700
11
275.933821
21
83.939813
0
LINE
8
0
10
275.933821
20
83.939813
11
272.556275
21
84.513056
0
LINE
8
0
10
272.556275
20
84.513056
11
269.277097
21
85.365451
0
LINE
8
0
10
269.277097
20
85.365451
11
266.110018
21
86.485023
0
LINE
8
0
10
266.110018
20
86.485023
11
263.068774
21
87.859796
0
LINE
8
0
10
263.068774
20
87.859796
11
260.167097
21
89.477794
0
LINE
8
0
10
260.167097
20
89.477794
11
257.418721
21
91.327042
0
LINE
8
0
10
257.418721
20
91.327042
11
254.837379
21
93.395562
0
LINE
8
0
10
254.837379
20
93.395562
11
252.436805
21
95.671381
0
LINE
8
0
10
252.436805
20
95.671381
11
250.230732
21
98.142520
0
LINE
8
0
10
250.230732
20
98.142520
11
248.232894
21
100.797006
0
LINE
8
0
10
248.232894
20
100.797006
11
246.457025
21
103.622861
0
LINE
8
0
10
246.457025
20
103.622861
11
244.916857
21
106.608110
0
LINE
8
0
10
244.916857
20
106.608110
11
243.626125
21
109.740776
0
LINE
8
0
10
243.626125
20
109.740776
11
242.598562
21
113.008885
0
LINE
8
0
10
242.598562
20
113.008885
11
241.847901
21
116.400460
0
LINE
8
0
10
241.847901
20
116.400460
11
241.394419
21
119.844386
0
LINE
8
0
10
241.394419
20
119.844386
11
241.243361
21
123.266900
0
LINE
8
0
10
241.243361
20
123.266900
11
241.385913
21
126.652054
0
LINE
8
0
10
241.385913
20
126.652054
11
241.813260
21
129.983901
0
LINE
8
0
10
241.813260
20
129.983901
11
242.516588
21
133.246492
0
LINE
8
0
10
242.516588
20
133.246492
11
243.487082
21
136.423879
0
LINE
8
0
10
243.487082
20
136.423879
11
244.715928
21
139.500114
0
LINE
8
0
10
244.715928
20
139.500114
11
246.194312
21
142.459250
0
LINE
8
0
10
246.194312
20
142.459250
11
247.913418
21
145.285339
0
LINE
8
0
10
247.913418
20
145.285339
11
249.864434
21
147.962432
0
LINE
8
0
10
249.864434
20
147.962432
11
252.038543
21
150.474581
0
LINE
8
0
10
252.038543
20
150.474581
11
254.426933
21
152.805840
0
LINE
8
0
10
254.426933
20
152.805840
11
257.020788
21
154.940259
0
LINE
8
0
10
257.020788
20
154.940259
11
259.811293
21
156.861890
0
LINE
8
0
10
259.811293
20
156.861890
11
262.789636
21
158.554787
0
LINE
8
0
10
262.789636
20
158.554787
11
265.947000
21
160.003000
0
LINE
8
0
10
265.947000
20
160.003000
11
266.762424
21
156.959790
0
LINE
8
0
10
266.762424
20
156.959790
11
280.896324
21
160.746970
0
LINE
8
0
10
280.896324
20
160.746970
11
295.030000
21
156.960000
0
LINE
8
0
10
309.396000
20
16.667800
11
308.580574
21
13.624590
0
LINE
8
0
10
308.580574
20
13.624590
11
305.423201
21
15.072811
0
LINE
8
0
10
305.423201
20
15.072811
11
302.444851
21
16.765717
0
LINE
8
0
10
302.444851
20
16.765717
11
299.654340
21
18.687359
0
LINE
8
0
10
299.654340
20
18.687359
11
297.060482
21
20.821789
0
LINE
8
0
10
297.060482
20
20.821789
11
294.672090
21
23.153060
0
LINE
8
0
10
294.672090
20
23.153060
11
292.497980
21
25.665222
0
LINE
8
0
10
292.497980
20
25.665222
11
290.546966
21
28.342328
0
LINE
8
0
10
290.546966
20
28.342328
11
288.827862
21
31.168430
0
LINE
8
0
10
288.827862
20
31.168430
11
287.349483
21
34.127579
0
LINE
8
0
10
287.349483
20
34.127579
11
286.120644
21
37.203828
0
LINE
8
0
10
286.120644
20
37.203828
11
285.150159
21
40.381228
0
LINE
8
0
10
285.150159
20
40.381228
11
284.446841
21
43.643832
0
LINE
8
0
10
284.446841
20
43.643832
11
284.019507
21
46.975690
0
LINE
8
0
10
284.019507
20
46.975690
11
283.876969
21
50.360856
0
LINE
8
0
10
283.876969
20
50.360856
11
284.028044
21
53.783380
0
LINE
8
0
10
284.028044
20
53.783380
11
284.481544
21
57.227315
0
LINE
8
0
10
284.481544
20
57.227315
11
285.232225
21
60.618897
0
LINE
8
0
10
285.232225
20
60.618897
11
286.259810
21
63.887010
0
LINE
8
0
10
286.259810
20
63.887010
11
287.550564
21
67.019679
0
LINE
8
0
10
287.550564
20
67.019679
11
289.090754
21
70.004928
0
LINE
8
0
10
289.090754
20
70.004928
11
290.866647
21
72.830780
0
LINE
8
0
10
290.866647
20
72.830780
11
292.864508
21
75.485260
0
LINE
8
0
10
292.864508
20
75.485260
11
295.070604
21
77.956392
0
LINE
8
0
10
295.070604
20
77.956392
11
297.471201
21
80.232200
0
LINE
8
0
10
297.471201
20
80.232200
11
300.052565
21
82.300708
0
LINE
8
0
10
300.052565
20
82.300708
11
302.800964
21
84.149941
0
LINE
8
0
10
302.800964
20
84.149941
11
305.702662
21
85.767921
0
LINE
8
0
10
305.702662
20
85.767921
11
308.743926
21
87.142674
0
LINE
8
0
10
308.743926
20
87.142674
11
311.911024
21
88.262223
0
LINE
8
0
10
311.911024
20
88.262223
11
315.190220
21
89.114593
0
LINE
8
0
10
315.190220
20
89.114593
11
318.567781
21
89.687807
0
LINE
8
0
10
318.567781
20
89.687807
11
322.029974
21
89.969890
0
LINE
8
0
10
322.029974
20
89.969890
11
322.029000
21
91.813800
0
LINE
8
0
10
322.029000
20
91.813800
11
325.029000
21
91.813800
0
LINE
8
0
10
325.029000
20
91.813800
11
325.029000
21
89.969900
0
LINE
8
0
10
325.029000
20
89.969900
11
328.491193
21
89.687817
0
LINE
8
0
10
328.491193
20
89.687817
11
331.868754
21
89.114603
0
LINE
8
0
10
331.868754
20
89.114603
11
335.147950
21
88.262233
0
LINE
8
0
10
335.147950
20
88.262233
11
338.315048
21
87.142684
0
LINE
8
0
10
338.315048
20
87.142684
11
341.356312
21
85.767931
0
LINE
8
0
10
341.356312
20
85.767931
11
344.258010
21
84.149951
0
LINE
8
0
10
344.258010
20
84.149951
11
347.006409
21
82.300718
0
LINE
8
0
10
347.006409
20
82.300718
11
349.587773
21
80.232210
0
LINE
8
0
10
349.587773
20
80.232210
11
351.988370
21
77.956402
0
LINE
8
0
10
351.988370
20
77.956402
11
354.194466
21
75.485270
0
LINE
8
0
10
354.194466
20
75.485270
11
356.192327
21
72.830790
0
LINE
8
0
10
356.192327
20
72.830790
11
357.968220
21
70.004938
0
LINE
8
0
10
357.968220
20
70.004938
11
359.508410
21
67.019689
0
LINE
8
0
10
359.508410
20
67.019689
11
360.799164
21
63.887020
0
LINE
8
0
10
360.799164
20
63.887020
11
361.826749
21
60.618907
0
LINE
8
0
10
361.826749
20
60.618907
11
362.577430
21
57.227325
0
LINE
8
0
10
362.577430
20
57.227325
11
363.030930
21
53.783390
0
LINE
8
0
10
363.030930
20
53.783390
11
363.182005
21
50.360866
0
LINE
8
0
10
363.182005
20
50.360866
11
363.039467
21
46.975700
0
LINE
8
0
10
363.039467
20
46.975700
11
362.612133
21
43.643842
0
LINE
8
0
10
362.612133
20
43.643842
11
361.908815
21
40.381238
0
LINE
8
0
10
361.908815
20
40.381238
11
360.938330
21
37.203838
0
LINE
8
0
10
360.938330
20
37.203838
11
359.709491
21
34.127589
0
LINE
8
0
10
359.709491
20
34.127589
11
358.231112
21
31.168440
0
LINE
8
0
10
358.231112
20
31.168440
11
356.512008
21
28.342338
0
LINE
8
0
10
356.512008
20
28.342338
11
354.560994
21
25.665232
0
LINE
8
0
10
354.560994
20
25.665232
11
352.386884
21
23.153070
0
LINE
8
0
10
352.386884
20
23.153070
11
349.998492
21
20.821799
0
LINE
8
0
10
349.998492
20
20.821799
11
347.404634
21
18.687369
0
LINE
8
0
10
347.404634
20
18.687369
11
344.614123
21
16.765727
0
LINE
8
0
10
344.614123
20
16.765727
11
341.635773
21
15.072821
0
LINE
8
0
10
341.635773
20
15.072821
11
338.478400
21
13.624600
0
LINE
8
0
10
338.478400
20
13.624600
11
337.662974
21
16.667810
0
LINE
8
0
10
337.662974
20
16.667810
11
323.529074
21
12.880620
0
LINE
8
0
10
323.529074
20
12.880620
11
309.396000
21
16.667800
0
LINE
8
0
10
392.729000
20
16.667800
11
391.913574
21
13.624590
0
LINE
8
0
10
391.913574
20
13.624590
11
388.756198
21
15.072811
0
LINE
8
0
10
388.756198
20
15.072811
11
385.777846
21
16.765716
0
LINE
8
0
10
385.777846
20
16.765716
11
382.987332
21
18.687358
0
LINE
8
0
10
382.987332
20
18.687358
11
380.393471
21
20.821789
0
LINE
8
0
10
380.393471
20
20.821789
11
378.005077
21
23.153060
0
LINE
8
0
10
378.005077
20
23.153060
11
375.830965
21
25.665223
0
LINE
8
0
10
375.830965
20
25.665223
11
373.879949
21
28.342331
0
LINE
8
0
10
373.879949
20
28.342331
11
372.160844
21
31.168434
0
LINE
8
0
10
372.160844
20
31.168434
11
370.682464
21
34.127585
0
LINE
8
0
10
370.682464
20
34.127585
11
369.453624
21
37.203836
0
LINE
8
0
10
369.453624
20
37.203836
11
368.483138
21
40.381238
0
LINE
8
0
10
368.483138
20
40.381238
11
367.779820
21
43.643843
0
LINE
8
0
10
367.779820
20
43.643843
11
367.352486
21
46.975704
0
LINE
8
0
10
367.352486
20
46.975704
11
367.209949
21
50.360871
0
LINE
8
0
10
367.209949
20
50.360871
11
367.361024
21
53.783398
0
LINE
8
0
10
367.361024
20
53.783398
11
367.814526
21
57.227335
0
LINE
8
0
10
367.814526
20
57.227335
11
368.565209
21
60.618919
0
LINE
8
0
10
368.565209
20
60.618919
11
369.592795
21
63.887034
0
LINE
8
0
10
369.592795
20
63.887034
11
370.883552
21
67.019704
0
LINE
8
0
10
370.883552
20
67.019704
11
372.423744
21
70.004954
0
LINE
8
0
10
372.423744
20
70.004954
11
374.199639
21
72.830807
0
LINE
8
0
10
374.199639
20
72.830807
11
376.197503
21
75.485288
0
LINE
8
0
10
376.197503
20
75.485288
11
378.403602
21
77.956420
0
LINE
8
0
10
378.403602
20
77.956420
11
380.804203
21
80.232228
0
LINE
8
0
10
380.804203
20
80.232228
11
383.385570
21
82.300735
0
LINE
8
0
10
383.385570
20
82.300735
11
386.133972
21
84.149966
0
LINE
8
0
10
386.133972
20
84.149966
11
389.035673
21
85.767945
0
LINE
8
0
10
389.035673
20
85.767945
11
392.076941
21
87.142696
0
LINE
8
0
10
392.076941
20
87.142696
11
395.244041
21
88.262243
0
LINE
8
0
10
395.244041
20
88.262243
11
398.523240
21
89.114610
0
LINE
8
0
10
398.523240
20
89.114610
11
401.900805
21
89.687821
0
LINE
8
0
10
401.900805
20
89.687821
11
405.363000
21
89.969900
0
LINE
8
0
10
405.363000
20
89.969900
11
405.363000
21
91.813800
0
LINE
8
0
10
405.363000
20
91.813800
11
408.363000
21
91.813800
0
LINE
8
0
10
408.363000
20
91.813800
11
408.363000
21
89.969900
0
LINE
8
0
10
408.363000
20
89.969900
11
411.825193
21
89.687817
0
LINE
8
0
10
411.825193
20
89.687817
11
415.202754
21
89.114603
0
LINE
8
0
10
415.202754
20
89.114603
11
418.481950
21
88.262233
0
LINE
8
0
10
418.481950
20
88.262233
11
421.649048
21
87.142684
0
LINE
8
0
10
421.649048
20
87.142684
11
424.690312
21
85.767931
0
LINE
8
0
10
424.690312
20
85.767931
11
427.592010
21
84.149951
0
LINE
8
0
10
427.592010
20
84.149951
11
430.340409
21
82.300718
0
LINE
8
0
10
430.340409
20
82.300718
11
432.921773
21
80.232210
0
LINE
8
0
10
432.921773
20
80.232210
11
435.322370
21
77.956402
0
LINE
8
0
10
435.322370
20
77.956402
11
437.528466
21
75.485270
0
LINE
8
0
10
437.528466
20
75.485270
11
439.526327
21
72.830790
0
LINE
8
0
10
439.526327
20
72.830790
11
441.302220
21
70.004938
0
LINE
8
0
10
441.302220
20
70.004938
11
442.842410
21
67.019689
0
LINE
8
0
10
442.842410
20
67.019689
11
444.133164
21
63.887020
0
LINE
8
0
10
444.133164
20
63.887020
11
445.160749
21
60.618907
0
LINE
8
0
10
445.160749
20
60.618907
11
445.911430
21
57.227325
0
LINE
8
0
10
445.911430
20
57.227325
11
446.364930
21
53.783390
0
LINE
8
0
10
446.364930
20
53.783390
11
446.516005
21
50.360866
0
LINE
8
0
10
446.516005
20
50.360866
11
446.373467
21
46.975700
0
LINE
8
0
10
446.373467
20
46.975700
11
445.946133
21
43.643842
0
LINE
8
0
10
445.946133
20
43.643842
11
445.242815
21
40.381238
0
LINE
8
0
10
445.242815
20
40.381238
11
444.272330
21
37.203838
0
LINE
8
0
10
444.272330
20
37.203838
11
443.043491
21
34.127589
0
LINE
8
0
10
443.043491
20
34.127589
11
441.565112
21
31.168440
0
LINE
8
0
10
441.565112
20
31.168440
11
439.846008
21
28.342338
0
LINE
8
0
10
439.846008
20
28.342338
11
437.894994
21
25.665232
0
LINE
8
0
10
437.894994
20
25.665232
11
435.720884
21
23.153070
0
LINE
8
0
10
435.720884
20
23.153070
11
433.332492
21
20.821799
0
LINE
8
0
10
433.332492
20
20.821799
11
430.738634
21
18.687369
0
LINE
8
0
10
430.738634
20
18.687369
11
427.948123
21
16.765727
0
LINE
8
0
10
427.948123
20
16.765727
11
424.969773
21
15.072821
0
LINE
8
0
10
424.969773
20
15.072821
11
421.812400
21
13.624600
0
LINE
8
0
10
421.812400
20
13.624600
11
420.996979
21
16.667810
0
LINE
8
0
10
420.996979
20
16.667810
11
406.863079
21
12.880620
0
LINE
8
0
10
406.863079
20
12.880620
11
392.729000
21
16.667800
0
LINE
8
0
10
378.363000
20
156.960000
11
379.178426
21
160.003210
0
LINE
8
0
10
379.178426
20
160.003210
11
382.335799
21
158.554989
0
LINE
8
0
10
382.335799
20
158.554989
11
385.314149
21
156.862083
0
LINE
8
0
10
385.314149
20
156.862083
11
388.104660
21
154.940441
0
LINE
8
0
10
388.104660
20
154.940441
11
390.698518
21
152.806011
0
LINE
8
0
10
390.698518
20
152.806011
11
393.086910
21
150.474740
0
LINE
8
0
10
393.086910
20
150.474740
11
395.261020
21
147.962578
0
LINE
8
0
10
395.261020
20
147.962578
11
397.212034
21
145.285472
0
LINE
8
0
10
397.212034
20
145.285472
11
398.931138
21
142.459370
0
LINE
8
0
10
398.931138
20
142.459370
11
400.409517
21
139.500221
0
LINE
8
0
10
400.409517
20
139.500221
11
401.638356
21
136.423972
0
LINE
8
0
10
401.638356
20
136.423972
11
402.608841
21
133.246572
0
LINE
8
0
10
402.608841
20
133.246572
11
403.312159
21
129.983968
0
LINE
8
0
10
403.312159
20
129.983968
11
403.739493
21
126.652110
0
LINE
8
0
10
403.739493
20
126.652110
11
403.882031
21
123.266944
0
LINE
8
0
10
403.882031
20
123.266944
11
403.730956
21
119.844420
0
LINE
8
0
10
403.730956
20
119.844420
11
403.277456
21
116.400485
0
LINE
8
0
10
403.277456
20
116.400485
11
402.526775
21
113.008903
0
LINE
8
0
10
402.526775
20
113.008903
11
401.499190
21
109.740790
0
LINE
8
0
10
401.499190
20
109.740790
11
400.208436
21
106.608121
0
LINE
8
0
10
400.208436
20
106.608121
11
398.668246
21
103.622872
0
LINE
8
0
10
398.668246
20
103.622872
11
396.892353
21
100.797020
0
LINE
8
0
10
396.892353
20
100.797020
11
394.894492
21
98.142540
0
LINE
8
0
10
394.894492
20
98.142540
11
392.688396
21
95.671408
0
LINE
8
0
10
392.688396
20
95.671408
11
390.287799
21
93.395600
0
LINE
8
0
10
390.287799
20
93.395600
11
387.706435
21
91.327092
0
LINE
8
0
10
387.706435
20
91.327092
11
384.958036
21
89.477859
0
LINE
8
0
10
384.958036
20
89.477859
11
382.056338
21
87.859879
0
LINE
8
0
10
382.056338
20
87.859879
11
379.015074
21
86.485126
0
LINE
8
0
10
379.015074
20
86.485126
11
375.847976
21
85.365577
0
LINE
8
0
10
375.847976
20
85.365577
11
372.568780
21
84.513207
0
LINE
8
0
10
372.568780
20
84.513207
11
369.191219
21
83.939993
0
LINE
8
0
10
369.191219
20
83.939993
11
365.729026
21
83.657910
0
LINE
8
0
10
365.729026
20
83.657910
11
365.729000
21
81.813800
0
LINE
8
0
10
365.729000
20
81.813800
11
362.729000
21
81.813800
0
LINE
8
0
10
362.729000
20
81.813800
11
362.729000
21
83.657700
0
LINE
8
0
10
362.729000
20
83.657700
11
359.266821
21
83.939813
0
LINE
8
0
10
359.266821
20
83.939813
11
355.889275
21
84.513056
0
LINE
8
0
10
355.889275
20
84.513056
11
352.610097
21
85.365451
0
LINE
8
0
10
352.610097
20
85.365451
11
349.443018
21
86.485023
0
LINE
8
0
10
349.443018
20
86.485023
11
346.401774
21
87.859796
0
LINE
8
0
10
346.401774
20
87.859796
11
343.500097
21
89.477794
0
LINE
8
0
10
343.500097
20
89.477794
11
340.751721
21
91.327042
0
LINE
8
0
10
340.751721
20
91.327042
11
338.170379
21
93.395562
0
LINE
8
0
10
338.170379
20
93.395562
11
335.769805
21
95.671381
0
LINE
8
0
10
335.769805
20
95.671381
11
333.563732
21
98.142520
0
LINE
8
0
10
333.563732
20
98.142520
11
331.565894
21
100.797006
0
LINE
8
0
10
331.565894
20
100.797006
11
329.790025
21
103.622861
0
LINE
8
0
10
329.790025
20
103.622861
11
328.249857
21
106.608110
0
LINE
8
0
10
328.249857
20
106.608110
11
326.959125
21
109.740776
0
LINE
8
0
10
326.959125
20
109.740776
11
325.931562
21
113.008885
0
LINE
8
0
10
325.931562
20
113.008885
11
325.180901
21
116.400460
0
LINE
8
0
10
325.180901
20
116.400460
11
324.727419
21
119.844386
0
LINE
8
0
10
324.727419
20
119.844386
11
324.576361
21
123.266900
0
LINE
8
0
10
324.576361
20
123.266900
11
324.718913
21
126.652054
0
LINE
8
0
10
324.718913
20
126.652054
11
325.146260
21
129.983901
0
LINE
8
0
10
325.146260
20
129.983901
11
325.849588
21
133.246492
0
LINE
8
0
10
325.849588
20
133.246492
11
326.820082
21
136.423879
0
LINE
8
0
10
326.820082
20
136.423879
11
328.048928
21
139.500114
0
LINE
8
0
10
328.048928
20
139.500114
11
329.527312
21
142.459250
0
LINE
8
0
10
329.527312
20
142.459250
11
331.246418
21
145.285339
0
LINE
8
0
10
331.246418
20
145.285339
11
333.197434
21
147.962432
0
LINE
8
0
10
333.197434
20
147.962432
11
335.371543
21
150.474581
0
LINE
8
0
10
335.371543
20
150.474581
11
337.759933
21
152.805840
0
LINE
8
0
10
337.759933
20
152.805840
11
340.353788
21
154.940259
0
LINE
8
0
10
340.353788
20
154.940259
11
343.144293
21
156.861890
0
LINE
8
0
10
343.144293
20
156.861890
11
346.122636
21
158.554787
0
LINE
8
0
10
346.122636
20
158.554787
11
349.280000
21
160.003000
0
LINE
8
0
10
349.280000
20
160.003000
11
350.095424
21
156.959790
0
LINE
8
0
10
350.095424
20
156.959790
11
364.229324
21
160.746970
0
LINE
8
0
10
364.229324
20
160.746970
11
378.363000
21
156.960000
0
LINE
8
0
10
461.697000
20
156.960000
11
462.512418
21
160.003210
0
LINE
8
0
10
462.512418
20
160.003210
11
465.669791
21
158.554989
0
LINE
8
0
10
465.669791
20
158.554989
11
468.648141
21
156.862083
0
LINE
8
0
10
468.648141
20
156.862083
11
471.438652
21
154.940441
0
LINE
8
0
10
471.438652
20
154.940441
11
474.032510
21
152.806011
0
LINE
8
0
10
474.032510
20
152.806011
11
476.420902
21
150.474740
0
LINE
8
0
10
476.420902
20
150.474740
11
478.595012
21
147.962578
0
LINE
8
0
10
478.595012
20
147.962578
11
480.546026
21
145.285472
0
LINE
8
0
10
480.546026
20
145.285472
11
482.265130
21
142.459370
0
LINE
8
0
10
482.265130
20
142.459370
11
483.743509
21
139.500221
0
LINE
8
0
10
483.743509
20
139.500221
11
484.972348
21
136.423972
0
LINE
8
0
10
484.972348
20
136.423972
11
485.942833
21
133.246572
0
LINE
8
0
10
485.942833
20
133.246572
11
486.646151
21
129.983968
0
LINE
8
0
10
486.646151
20
129.983968
11
487.073485
21
126.652110
0
LINE
8
0
10
487.073485
20
126.652110
11
487.216023
21
123.266944
0
LINE
8
0
10
487.216023
20
123.266944
11
487.064948
21
119.844420
0
LINE
8
0
10
487.064948
20
119.844420
11
486.611448
21
116.400485
0
LINE
8
0
10
486.611448
20
116.400485
11
485.860767
21
113.008903
0
LINE
8
0
10
485.860767
20
113.008903
11
484.833182
21
109.740790
0
LINE
8
0
10
484.833182
20
109.740790
11
483.542428
21
106.608121
0
LINE
8
0
10
483.542428
20
106.608121
11
482.002238
21
103.622872
0
LINE
8
0
10
482.002238
20
103.622872
11
480.226345
21
100.797020
0
LINE
8
0
10
480.226345
20
100.797020
11
478.228484
21
98.142540
0
LINE
8
0
10
478.228484
20
98.142540
11
476.022388
21
95.671408
0
LINE
8
0
10
476.022388
20
95.671408
11
473.621791
21
93.395600
0
LINE
8
0
10
473.621791
20
93.395600
11
471.040427
21
91.327092
0
LINE
8
0
10
471.040427
20
91.327092
11
468.292028
21
89.477859
0
LINE
8
0
10
468.292028
20
89.477859
11
465.390330
21
87.859879
0
LINE
8
0
10
465.390330
20
87.859879
11
462.349066
21
86.485126
0
LINE
8
0
10
462.349066
20
86.485126
11
459.181968
21
85.365577
0
LINE
8
0
10
459.181968
20
85.365577
11
455.902772
21
84.513207
0
LINE
8
0
10
455.902772
20
84.513207
11
452.525211
21
83.939993
0
LINE
8
0
10
452.525211
20
83.939993
11
449.063018
21
83.657910
0
LINE
8
0
10
449.063018
20
83.657910
11
449.063000
21
81.813800
0
LINE
8
0
10
449.063000
20
81.813800
11
446.063000
21
81.813800
0
LINE
8
0
10
446.063000
20
81.813800
11
446.063000
21
83.657700
0
LINE
8
0
10
446.063000
20
83.657700
11
442.600786
21
83.939737
0
LINE
8
0
10
442.600786
20
83.939737
11
439.223202
21
84.512909
0
LINE
8
0
10
439.223202
20
84.512909
11
435.943979
21
85.365241
0
LINE
8
0
10
435.943979
20
85.365241
11
432.776854
21
86.484756
0
LINE
8
0
10
432.776854
20
86.484756
11
429.735559
21
87.859478
0
LINE
8
0
10
429.735559
20
87.859478
11
426.833829
21
89.477432
0
LINE
8
0
10
426.833829
20
89.477432
11
424.085397
21
91.326642
0
LINE
8
0
10
424.085397
20
91.326642
11
421.503999
21
93.395131
0
LINE
8
0
10
421.503999
20
93.395131
11
419.103367
21
95.670924
0
LINE
8
0
10
419.103367
20
95.670924
11
416.897236
21
98.142044
0
LINE
8
0
10
416.897236
20
98.142044
11
414.899340
21
100.796517
0
LINE
8
0
10
414.899340
20
100.796517
11
413.123413
21
103.622365
0
LINE
8
0
10
413.123413
20
103.622365
11
411.583188
21
106.607613
0
LINE
8
0
10
411.583188
20
106.607613
11
410.292401
21
109.740286
0
LINE
8
0
10
410.292401
20
109.740286
11
409.264785
21
113.008406
0
LINE
8
0
10
409.264785
20
113.008406
11
408.514073
21
116.399999
0
LINE
8
0
10
408.514073
20
116.399999
11
408.060545
21
119.843947
0
LINE
8
0
10
408.060545
20
119.843947
11
407.909446
21
123.266486
0
LINE
8
0
10
407.909446
20
123.266486
11
408.051962
21
126.651668
0
LINE
8
0
10
408.051962
20
126.651668
11
408.479278
21
129.983544
0
LINE
8
0
10
408.479278
20
129.983544
11
409.182579
21
133.246167
0
LINE
8
0
10
409.182579
20
133.246167
11
410.153052
21
136.423586
0
LINE
8
0
10
410.153052
20
136.423586
11
411.381881
21
139.499855
0
LINE
8
0
10
411.381881
20
139.499855
11
412.860253
21
142.459024
0
LINE
8
0
10
412.860253
20
142.459024
11
414.579352
21
145.285146
0
LINE
8
0
10
414.579352
20
145.285146
11
416.530364
21
147.962272
0
LINE
8
0
10
416.530364
20
147.962272
11
418.704475
21
150.474453
0
LINE
8
0
10
418.704475
20
150.474453
11
421.092870
21
152.805742
0
LINE
8
0
10
421.092870
20
152.805742
11
423.686734
21
154.940189
0
LINE
8
0
10
423.686734
20
154.940189
11
426.477254
21
156.861847
0
LINE
8
0
10
426.477254
20
156.861847
11
429.455614
21
158.554767
0
LINE
8
0
10
429.455614
20
158.554767
11
432.613000
21
160.003000
0
LINE
8
0
10
432.613000
20
160.003000
11
433.428445
21
156.959790
0
LINE
8
0
10
433.428445
20
156.959790
11
447.562345
21
160.746970
0
LINE
8
0
10
447.562345
20
160.746970
11
461.697000
21
156.960000
0
LINE
8
0
10
474.729000
20
16.667800
11
473.913582
21
13.624590
0
LINE
8
0
10
473.913582
20
13.624590
11
470.756209
21
15.072811
0
LINE
8
0
10
470.756209
20
15.072811
11
467.777859
21
16.765717
0
LINE
8
0
10
467.777859
20
16.765717
11
464.987348
21
18.687359
0
LINE
8
0
10
464.987348
20
18.687359
11
462.393490
21
20.821789
0
LINE
8
0
10
462.393490
20
20.821789
11
460.005098
21
23.153060
0
LINE
8
0
10
460.005098
20
23.153060
11
457.830988
21
25.665222
0
LINE
8
0
10
457.830988
20
25.665222
11
455.879974
21
28.342328
0
LINE
8
0
10
455.879974
20
28.342328
11
454.160870
21
31.168430
0
LINE
8
0
10
454.160870
20
31.168430
11
452.682491
21
34.127579
0
LINE
8
0
10
452.682491
20
34.127579
11
451.453652
21
37.203828
0
LINE
8
0
10
451.453652
20
37.203828
11
450.483167
21
40.381228
0
LINE
8
0
10
450.483167
20
40.381228
11
449.779849
21
43.643832
0
LINE
8
0
10
449.779849
20
43.643832
11
449.352515
21
46.975690
0
LINE
8
0
10
449.352515
20
46.975690
11
449.209977
21
50.360856
0
LINE
8
0
10
449.209977
20
50.360856
11
449.361052
21
53.783380
0
LINE
8
0
10
449.361052
20
53.783380
11
449.814552
21
57.227315
0
LINE
8
0
10
449.814552
20
57.227315
11
450.565233
21
60.618897
0
LINE
8
0
10
450.565233
20
60.618897
11
451.592818
21
63.887010
0
LINE
8
0
10
451.592818
20
63.887010
11
452.883572
21
67.019679
0
LINE
8
0
10
452.883572
20
67.019679
11
454.423762
21
70.004928
0
LINE
8
0
10
454.423762
20
70.004928
11
456.199655
21
72.830780
0
LINE
8
0
10
456.199655
20
72.830780
11
458.197516
21
75.485260
0
LINE
8
0
10
458.197516
20
75.485260
11
460.403612
21
77.956392
0
LINE
8
0
10
460.403612
20
77.956392
11
462.804209
21
80.232200
0
LINE
8
0
10
462.804209
20
80.232200
11
465.385573
21
82.300708
0
LINE
8
0
10
465.385573
20
82.300708
11
468.133972
21
84.149941
0
LINE
8
0
10
468.133972
20
84.149941
11
471.035670
21
85.767921
0
LINE
8
0
10
471.035670
20
85.767921
11
474.076934
21
87.142674
0
LINE
8
0
10
474.076934
20
87.142674
11
477.244032
21
88.262223
0
LINE
8
0
10
477.244032
20
88.262223
11
480.523228
21
89.114593
0
LINE
8
0
10
480.523228
20
89.114593
11
483.900789
21
89.687807
0
LINE
8
0
10
483.900789
20
89.687807
11
487.362982
21
89.969890
0
LINE
8
0
10
487.362982
20
89.969890
11
487.363000
21
91.813800
0
LINE
8
0
10
487.363000
20
91.813800
11
490.363000
21
91.813800
0
LINE
8
0
10
490.363000
20
91.813800
11
490.363000
21
89.969900
0
LINE
8
0
10
490.363000
20
89.969900
11
493.825193
21
89.687817
0
LINE
8
0
10
493.825193
20
89.687817
11
497.202754
21
89.114603
0
LINE
8
0
10
497.202754
20
89.114603
11
500.481950
21
88.262233
0
LINE
8
0
10
500.481950
20
88.262233
11
503.649048
21
87.142684
0
LINE
8
0
10
503.649048
20
87.142684
11
506.690312
21
85.767931
0
LINE
8
0
10
506.690312
20
85.767931
11
509.592010
21
84.149951
0
LINE
8
0
10
509.592010
20
84.149951
11
512.340409
21
82.300718
0
LINE
8
0
10
512.340409
20
82.300718
11
514.921773
21
80.232210
0
LINE
8
0
10
514.921773
20
80.232210
11
517.322370
21
77.956402
0
LINE
8
0
10
517.322370
20
77.956402
11
519.528466
21
75.485270
0
LINE
8
0
10
519.528466
20
75.485270
11
521.526327
21
72.830790
0
LINE
8
0
10
521.526327
20
72.830790
11
523.302220
21
70.004938
0
LINE
8
0
10
523.302220
20
70.004938
11
524.842410
21
67.019689
0
LINE
8
0
10
524.842410
20
67.019689
11
526.133164
21
63.887020
0
LINE
8
0
10
526.133164
20
63.887020
11
527.160749
21
60.618907
0
LINE
8
0
10
527.160749
20
60.618907
11
527.911430
21
57.227325
0
LINE
8
0
10
527.911430
20
57.227325
11
528.364930
21
53.783390
0
LINE
8
0
10
528.364930
20
53.783390
11
528.516005
21
50.360866
0
LINE
8
0
10
528.516005
20
50.360866
11
528.373467
21
46.975700
0
LINE
8
0
10
528.373467
20
46.975700
11
527.946133
21
43.643842
0
LINE
8
0
10
527.946133
20
43.643842
11
527.242815
21
40.381238
0
LINE
8
0
10
527.242815
20
40.381238
11
526.272330
21
37.203838
0
LINE
8
0
10
526.272330
20
37.203838
11
525.043491
21
34.127589
0
LINE
8
0
10
525.043491
20
34.127589
11
523.565112
21
31.168440
0
LINE
8
0
10
523.565112
20
31.168440
11
521.846008
21
28.342338
0
LINE
8
0
10
521.846008
20
28.342338
11
519.894994
21
25.665232
0
LINE
8
0
10
519.894994
20
25.665232
11
517.720884
21
23.153070
0
LINE
8
0
10
517.720884
20
23.153070
11
515.332492
21
20.821799
0
LINE
8
0
10
515.332492
20
20.821799
11
512.738634
21
18.687369
0
LINE
8
0
10
512.738634
20
18.687369
11
509.948123
21
16.765727
0
LINE
8
0
10
509.948123
20
16.765727
11
506.969773
21
15.072821
0
LINE
8
0
10
506.969773
20
15.072821
11
503.812400
21
13.624600
0
LINE
8
0
10
503.812400
20
13.624600
11
502.996982
21
16.667810
0
LINE
8
0
10
502.996982
20
16.667810
11
488.863082
21
12.880620
0
LINE
8
0
10
488.863082
20
12.880620
11
474.729000
21
16.667800
0
LINE
8
0
10
241.363000
20
80.098300
11
241.125671
21
81.264276
0
LINE
8
0
10
241.125671
20
81.264276
11
240.482388
21
82.216079
0
LINE
8
0
10
240.482388
20
82.216079
11
239.529413
21
82.857623
0
LINE
8
0
10
239.529413
20
82.857623
11
238.363005
21
83.092823
0
LINE
8
0
10
238.363005
20
83.092823
11
237.196597
21
82.857623
0
LINE
8
0
10
237.196597
20
82.857623
11
236.243622
21
82.216079
0
LINE
8
0
10
236.243622
20
82.216079
11
235.600339
21
81.264276
0
LINE
8
0
10
235.600339
20
81.264276
11
235.363010
21
80.098300
0
LINE
8
0
10
235.363010
20
80.098300
11
235.600339
21
78.932324
0
LINE
8
0
10
235.600339
20
78.932324
11
236.243622
21
77.980521
0
LINE
8
0
10
236.243622
20
77.980521
11
237.196597
21
77.338977
0
LINE
8
0
10
237.196597
20
77.338977
11
238.363005
21
77.103777
0
LINE
8
0
10
238.363005
20
77.103777
11
239.529413
21
77.338977
0
LINE
8
0
10
239.529413
20
77.338977
11
240.482388
21
77.980521
0
LINE
8
0
10
240.482388
20
77.980521
11
241.125671
21
78.932324
0
LINE
8
0
10
241.125671
20
78.932324
11
241.363000
21
80.098300
0
LINE
8
0
10
241.363000
20
80.098300
11
241.363000
21
80.098300
0
LINE
8
0
10
224.229000
20
16.667800
11
223.413576
21
13.624590
0
LINE
8
0
10
223.413576
20
13.624590
11
220.256203
21
15.072811
0
LINE
8
0
10
220.256203
20
15.072811
11
217.277853
21
16.765717
0
LINE
8
0
10
217.277853
20
16.765717
11
214.487342
21
18.687359
0
LINE
8
0
10
214.487342
20
18.687359
11
211.893484
21
20.821789
0
LINE
8
0
10
211.893484
20
20.821789
11
209.505092
21
23.153060
0
LINE
8
0
10
209.505092
20
23.153060
11
207.330982
21
25.665222
0
LINE
8
0
10
207.330982
20
25.665222
11
205.379968
21
28.342328
0
LINE
8
0
10
205.379968
20
28.342328
11
203.660864
21
31.168430
0
LINE
8
0
10
203.660864
20
31.168430
11
202.182485
21
34.127579
0
LINE
8
0
10
202.182485
20
34.127579
11
200.953646
21
37.203828
0
LINE
8
0
10
200.953646
20
37.203828
11
199.983161
21
40.381228
0
LINE
8
0
10
199.983161
20
40.381228
11
199.279843
21
43.643832
0
LINE
8
0
10
199.279843
20
43.643832
11
198.852509
21
46.975690
0
LINE
8
0
10
198.852509
20
46.975690
11
198.709971
21
50.360856
0
LINE
8
0
10
198.709971
20
50.360856
11
198.861046
21
53.783380
0
LINE
8
0
10
198.861046
20
53.783380
11
199.314546
21
57.227315
0
LINE
8
0
10
199.314546
20
57.227315
11
200.065227
21
60.618897
0
LINE
8
0
10
200.065227
20
60.618897
11
201.092812
21
63.887010
0
LINE
8
0
10
201.092812
20
63.887010
11
202.383566
21
67.019679
0
LINE
8
0
10
202.383566
20
67.019679
11
203.923756
21
70.004928
0
LINE
8
0
10
203.923756
20
70.004928
11
205.699649
21
72.830780
0
LINE
8
0
10
205.699649
20
72.830780
11
207.697510
21
75.485260
0
LINE
8
0
10
207.697510
20
75.485260
11
209.903606
21
77.956392
0
LINE
8
0
10
209.903606
20
77.956392
11
212.304203
21
80.232200
0
LINE
8
0
10
212.304203
20
80.232200
11
214.885567
21
82.300708
0
LINE
8
0
10
214.885567
20
82.300708
11
217.633966
21
84.149941
0
LINE
8
0
10
217.633966
20
84.149941
11
220.535664
21
85.767921
0
LINE
8
0
10
220.535664
20
85.767921
11
223.576928
21
87.142674
0
LINE
8
0
10
223.576928
20
87.142674
11
226.744026
21
88.262223
0
LINE
8
0
10
226.744026
20
88.262223
11
230.023222
21
89.114593
0
LINE
8
0
10
230.023222
20
89.114593
11
233.400783
21
89.687807
0
LINE
8
0
10
233.400783
20
89.687807
11
236.862976
21
89.969890
0
LINE
8
0
10
236.862976
20
89.969890
11
236.863000
21
91.813800
0
LINE
8
0
10
236.863000
20
91.813800
11
239.863000
21
91.813800
0
LINE
8
0
10
239.863000
20
91.813800
11
239.863000
21
89.969900
0
LINE
8
0
10
239.863000
20
89.969900
11
243.325193
21
89.687817
0
LINE
8
0
10
243.325193
20
89.687817
11
246.702754
21
89.114603
0
LINE
8
0
10
246.702754
20
89.114603
11
249.981950
21
88.262233
0
LINE
8
0
10
249.981950
20
88.262233
11
253.149048
21
87.142684
0
LINE
8
0
10
253.149048
20
87.142684
11
256.190312
21
85.767931
0
LINE
8
0
10
256.190312
20
85.767931
11
259.092010
21
84.149951
0
LINE
8
0
10
259.092010
20
84.149951
11
261.840409
21
82.300718
0
LINE
8
0
10
261.840409
20
82.300718
11
264.421773
21
80.232210
0
LINE
8
0
10
264.421773
20
80.232210
11
266.822370
21
77.956402
0
LINE
8
0
10
266.822370
20
77.956402
11
269.028466
21
75.485270
0
LINE
8
0
10
269.028466
20
75.485270
11
271.026327
21
72.830790
0
LINE
8
0
10
271.026327
20
72.830790
11
272.802220
21
70.004938
0
LINE
8
0
10
272.802220
20
70.004938
11
274.342410
21
67.019689
0
LINE
8
0
10
274.342410
20
67.019689
11
275.633164
21
63.887020
0
LINE
8
0
10
275.633164
20
63.887020
11
276.660749
21
60.618907
0
LINE
8
0
10
276.660749
20
60.618907
11
277.411430
21
57.227325
0
LINE
8
0
10
277.411430
20
57.227325
11
277.864930
21
53.783390
0
LINE
8
0
10
277.864930
20
53.783390
11
278.016005
21
50.360866
0
LINE
8
0
10
278.016005
20
50.360866
11
277.873467
21
46.975700
0
LINE
8
0
10
277.873467
20
46.975700
11
277.446133
21
43.643842
0
LINE
8
0
10
277.446133
20
43.643842
11
276.742815
21
40.381238
0
LINE
8
0
10
276.742815
20
40.381238
11
275.772330
21
37.203838
0
LINE
8
0
10
275.772330
20
37.203838
11
274.543491
21
34.127589
0
LINE
8
0
10
274.543491
20
34.127589
11
273.065112
21
31.168440
0
LINE
8
0
10
273.065112
20
31.168440
11
271.346008
21
28.342338
0
LINE
8
0
10
271.346008
20
28.342338
11
269.394994
21
25.665232
0
LINE
8
0
10
269.394994
20
25.665232
11
267.220884
21
23.153070
0
LINE
8
0
10
267.220884
20
23.153070
11
264.832492
21
20.821799
0
LINE
8
0
10
264.832492
20
20.821799
11
262.238634
21
18.687369
0
LINE
8
0
10
262.238634
20
18.687369
11
259.448123
21
16.765727
0
LINE
8
0
10
259.448123
20
16.765727
11
256.469773
21
15.072821
0
LINE
8
0
10
256.469773
20
15.072821
11
253.312400
21
13.624600
0
LINE
8
0
10
253.312400
20
13.624600
11
252.496976
21
16.667810
0
LINE
8
0
10
252.496976
20
16.667810
11
238.363076
21
12.880620
0
LINE
8
0
10
238.363076
20
12.880620
11
224.229000
21
16.667800
 0 
ENDSEC
 0 
EOF