0
SECTION
2
HEADER
9
$INSUNITS
70
4
9
$ACADVER
1
AC1014
9
$HANDSEED
5
FFFF
0
ENDSEC
0
SECTION
2
TABLES
0
TABLE
2
VPORT
5
8
100
AcDbSymbolTable
0
ENDTAB
0
TABLE
2
LTYPE
5
5
100
AcDbSymbolTable
0
LTYPE
5
14
100
AcDbSymbolTableRecord
100
AcDbLinetypeTableRecord
2
BYBLOCK
70
0
0
LTYPE
5
15
100
AcDbSymbolTableRecord
100
AcDbLinetypeTableRecord
2
BYLAYER
70
0
0
ENDTAB
0
TABLE
2
LAYER
5
2
100
AcDbSymbolTable
70
2
0
LAYER
5
50
100
AcDbSymbolTableRecord
100
AcDbLayerTableRecord
2
0
70
0
6
CONTINUOUS
0
ENDTAB
0
TABLE
2
STYLE
5
3
100
AcDbSymbolTable
70
1
0
STYLE
5
11
100
AcDbSymbolTableRecord
100
AcDbTextStyleTableRecord
2
STANDARD
70
0
0
ENDTAB
0
TABLE
2
VIEW
5
6
100
AcDbSymbolTable
70
0
0
ENDTAB
0
TABLE
2
UCS
5
7
100
AcDbSymbolTable
70
0
0
ENDTAB
0
TABLE
2
APPID
5
9
100
AcDbSymbolTable
70
2
0
APPID
5
12
100
AcDbSymbolTableRecord
100
AcDbRegAppTableRecord
2
ACAD
70
0
0
ENDTAB
0
TABLE
2
DIMSTYLE
5
A
100
AcDbSymbolTable
70
1
0
ENDTAB
0
TABLE
2
BLOCK_RECORD
5
1
100
AcDbSymbolTable
70
1
0
BLOCK_RECORD
5
1F
100
AcDbSymbolTableRecord
100
AcDbBlockTableRecord
2
*MODEL_SPACE
0
BLOCK_RECORD
5
1B
100
AcDbSymbolTableRecord
100
AcDbBlockTableRecord
2
*PAPER_SPACE
0
ENDTAB
0
ENDSEC
0
SECTION
2
BLOCKS
0
BLOCK
5
20
100
AcDbEntity
100
AcDbBlockBegin
2
*MODEL_SPACE
0
ENDBLK
5
21
100
AcDbEntity
100
AcDbBlockEnd
0
BLOCK
5
1C
100
AcDbEntity
100
AcDbBlockBegin
2
*PAPER_SPACE
0
ENDBLK
5
1D
100
AcDbEntity
100
AcDbBlockEnd
0
ENDSEC
0
SECTION
2
ENTITIES
0
LWPOLYLINE
5
100
100
AcDbEntity
8
0
100
AcDbPolyline
90
3
70
1
43
0.0
10
-155.60121675555411
20
-22.423340440660425
42
193.98221385311879
10
-155.60121675555411
20
-21.849478335132495
10
-156.09819591721052
20
-22.136409387896457
0
LWPOLYLINE
5
101
100
AcDbEntity
8
0
100
AcDbPolyline
90
3
70
1
43
0.0
10
-95.601216755554091
20
-22.423340440660425
42
193.98221385311879
10
-95.601216755554091
20
-21.849478335132495
10
-96.098195917210518
20
-22.136409387896457
0
LWPOLYLINE
5
102
100
AcDbEntity
8
0
100
AcDbPolyline
90
3
70
1
43
0.0
10
-127.06629451127954
20
29.153436499136966
42
193.98221385311879
10
-127.06629451127954
20
29.727298604664895
10
-127.56327367293596
20
29.440367551900934
0
LWPOLYLINE
5
103
100
AcDbEntity
8
0
100
AcDbPolyline
90
3
70
1
43
0.0
10
-155.60121675555411
20
81.576659559339575
42
193.98221385311879
10
-155.60121675555411
20
82.150521664867497
10
-156.09819591721052
20
81.863590612103536
0
LWPOLYLINE
5
104
100
AcDbEntity
8
0
100
AcDbPolyline
90
11
70
1
43
0.0
10
-15.297961965255556
20
46.409842600081859
42
2.0857611460043719
10
-17.778842600081891
20
43.928961965255446
42
-0.17812765094979022
10
-42.900000000000027
20
33.655944303031205
10
-42.90000000000002
20
31.465499999999984
10
-45.70000000000001
20
31.465499999999984
10
-45.700000000000003
20
33.655944303031205
42
-0.80793920654984319
10
-59.158085466337589
20
109.31406331626033
10
-58.433962599587915
20
106.61159998662804
10
-44.300000000000011
20
110.3987838510392
10
-30.166037400412122
20
106.61159998662804
10
-29.441914533662462
20
109.31406331626029
42
-0.52182956294542093
0
LWPOLYLINE
5
105
100
AcDbEntity
8
0
100
AcDbPolyline
90
9
70
1
43
0.0
10
-14.133962599587894
20
-33.680599986628046
10
-14.858085466337563
20
-36.383063316260341
42
-0.80793920654984341
10
-1.3999999999999866
20
39.275055696968778
10
-1.3999999999999921
20
41.465500000000006
10
1.4000000000000032
20
41.465500000000006
10
1.4000000000000012
20
39.275055696968785
42
-0.80793920654984297
10
14.858085466337572
20
-36.383063316260333
10
14.133962599587896
20
-33.680599986628053
10
0
20
-37.467783851039215
0
LWPOLYLINE
5
106
100
AcDbEntity
8
0
100
AcDbPolyline
90
9
70
1
43
0.0
10
54.833962599587878
20
106.61159998662808
10
55.558085466337545
20
109.31406331626037
42
-0.80793920654984341
10
42.099999999999973
20
33.655944303031248
10
42.09999999999998
20
31.46550000000002
10
39.29999999999999
20
31.46550000000002
10
39.299999999999997
20
33.655944303031241
42
-0.80793920654984319
10
25.841914533662411
20
109.31406331626036
10
26.566037400412085
20
106.61159998662808
10
40.699999999999974
20
110.39878385103924
0
LWPOLYLINE
5
107
100
AcDbEntity
8
0
100
AcDbPolyline
90
9
70
1
43
0.0
10
138.16729593292121
20
106.61159998662808
10
138.89141879967087
20
109.31406331626037
42
-0.80793920654984341
10
125.43333333333331
20
33.655944303031248
10
125.43333333333334
20
31.46550000000002
10
122.63333333333333
20
31.46550000000002
10
122.63333333333333
20
33.655944303031234
42
-0.80793920654984286
10
109.17524786699573
20
109.31406331626036
10
109.89937073374541
20
106.61159998662808
10
124.03333333333333
20
110.39878385103924
0
LWPOLYLINE
5
108
100
AcDbEntity
8
0
100
AcDbPolyline
90
9
70
1
43
0.0
10
152.53270406707878
20
-33.680599986628046
10
151.80858120032912
20
-36.383063316260333
42
-0.80793920654984297
10
165.26666666666668
20
39.275055696968778
10
165.26666666666668
20
41.465500000000006
10
168.06666666666669
20
41.465500000000006
10
168.06666666666669
20
39.275055696968792
42
-0.80793920654984286
10
181.52475213300426
20
-36.383063316260333
10
180.80062926625459
20
-33.680599986628053
10
166.66666666666669
20
-37.467783851039215
0
LWPOLYLINE
5
109
100
AcDbEntity
8
0
100
AcDbPolyline
90
9
70
1
43
0.0
10
235.8660374004121
20
-33.680599986628046
10
235.14191453366243
20
-36.383063316260333
42
-0.80793920654984319
10
248.59999999999999
20
39.275055696968778
10
248.59999999999999
20
41.465500000000006
10
251.40000000000001
20
41.465500000000006
10
251.40000000000001
20
39.275055696968792
42
-0.80793920654984286
10
264.85808546633757
20
-36.383063316260333
10
264.1339625995879
20
-33.680599986628053
10
250
20
-37.467783851039215
0
LWPOLYLINE
5
110
100
AcDbEntity
8
0
100
AcDbPolyline
90
9
70
1
43
0.0
10
221.50062926625455
20
106.61159998662808
10
222.22475213300424
20
109.31406331626035
42
-0.80793920654984286
10
208.76666666666665
20
33.655944303031248
10
208.76666666666665
20
31.46550000000002
10
205.96666666666667
20
31.46550000000002
10
205.96666666666667
20
33.655944303031227
42
-0.80793920654984341
10
192.50858120032905
20
109.31406331626036
10
193.23270406707877
20
106.61159998662808
10
207.36666666666665
20
110.39878385103924
0
LWPOLYLINE
5
111
100
AcDbEntity
8
0
100
AcDbPolyline
90
9
70
1
43
0.0
10
304.83396259958789
20
106.61159998662808
10
305.55808546633756
20
109.31406331626036
42
-0.80793920654984319
10
292.10000000000002
20
33.655944303031248
10
292.09999999999997
20
31.46550000000002
10
289.30000000000001
20
31.46550000000002
10
289.30000000000001
20
33.655944303031234
42
-0.80793920654984286
10
275.84191453366242
20
109.31406331626036
10
276.56603740041209
20
106.61159998662808
10
290.69999999999999
20
110.39878385103924
0
LWPOLYLINE
5
112
100
AcDbEntity
8
0
100
AcDbPolyline
90
9
70
1
43
0.0
10
317.8660374004121
20
-33.680599986628046
10
317.14191453366243
20
-36.383063316260333
42
-0.80793920654984319
10
330.60000000000002
20
39.275055696968778
10
330.60000000000002
20
41.465500000000006
10
333.40000000000003
20
41.465500000000006
10
333.40000000000003
20
39.275055696968764
42
-0.80793920654984397
10
346.85808546633751
20
-36.383063316260348
10
346.1339625995879
20
-33.680599986628053
10
332
20
-37.467783851039215
0
CIRCLE
5
113
100
AcDbEntity
8
0
100
AcDbCircle
10
81.5
20
29.75
30
0
40
3.0000000000000022
210
0
220
0
230
1
0
LWPOLYLINE
5
114
100
AcDbEntity
8
0
100
AcDbPolyline
90
9
70
1
43
0.0
10
67.366037400412111
20
-33.680599986628046
10
66.641914533662444
20
-36.383063316260348
42
-0.80793920654984341
10
80.100000000000023
20
39.275055696968778
10
80.100000000000023
20
41.465500000000006
10
82.900000000000006
20
41.465500000000006
10
82.900000000000006
20
39.275055696968785
42
-0.80793920654984297
10
96.35808546633757
20
-36.383063316260333
10
95.633962599587903
20
-33.680599986628053
10
81.5
20
-37.467783851039215
0
ENDSEC
0
SECTION
2
OBJECTS
0
DICTIONARY
5
C
100
AcDbDictionary
3
ACAD_GROUP
350
D
3
ACAD_MLINESTYLE
350
17
0
DICTIONARY
5
D
100
AcDbDictionary
0
DICTIONARY
5
1A
330
C
100
AcDbDictionary
0
DICTIONARY
5
17
100
AcDbDictionary
0
ENDSEC
0
EOF
