999
VISION3D DXF
0
SECTION
2
HEADER
9
$ACADVER
1
AC1006
9
$INSBASE
10
0.0
20
0.0
30
0.0
9
$EXTMIN
10
-34
20
-34
9
$EXTMAX
10
34
20
34
9
$LINMIN
10
0.0
20
0.0
9
$LINMAX
10
1000.0
20
1000.0
0
ENDSEC
0
SECTION
2
TABLES
0
TABLE
2
LTYPE
70
1
0
LTYPE
2
CONTINUOUS
70
64
3
Solid line
72
65
73
0
40
0.000000
0
ENDTAB
0
TABLE
2
LAYER
70
6
0
LAYER
2
1
70
64
62
7
6
CONTINUOUS
0
ENDTAB
0
TABLE
2
STYLE
70
0
0
ENDTAB
0
ENDSEC
0
SECTION
2
BLOCKS
0
ENDSEC
0
SECTION
2
ENTITIES
0
LINE
8
1
62
1
10
27.53758577492745
20
1.855092905628582
30
0.0
11
28.127028420606873
21
1.8948012111863783
31
0.0
0
LINE
8
1
62
1
10
28.127028420606873
20
1.8948012111863783
30
0.0
11
28.138279651864924
21
1.8953463964544484
31
0.0
0
LINE
8
1
62
1
10
28.138279651864924
20
1.8953463964544484
30
0.0
11
28.172063450945156
21
1.89613333437668
31
0.0
0
LINE
8
1
62
1
10
28.172063450945156
20
1.89613333437668
30
0.0
11
28.228384478129502
21
1.8958882057110868
31
0.0
0
LINE
8
1
62
1
10
28.228384478129502
20
1.8958882057110868
30
0.0
11
28.3071933831675
21
1.8933376298470561
31
0.0
0
LINE
8
1
62
1
10
28.3071933831675
20
1.8933376298470561
30
0.0
11
28.408386848183635
21
1.887210700134149
31
0.0
0
LINE
8
1
62
1
10
28.408386848183635
20
1.887210700134149
30
0.0
11
28.531807702477437
21
1.8762410167291532
31
0.0
0
LINE
8
1
62
1
10
28.531807702477437
20
1.8762410167291532
30
0.0
11
28.677245109098852
21
1.8591687145240077
31
0.0
0
LINE
8
1
62
1
10
28.677245109098852
20
1.8591687145240077
30
0.0
11
28.84443482300098
21
1.834742483722187
31
0.0
0
LINE
8
1
62
1
10
28.84443482300098
20
1.834742483722187
30
0.0
11
29.03305952049237
21
1.8017215806387266
31
0.0
0
LINE
8
1
62
1
10
29.03305952049237
20
1.8017215806387266
30
0.0
11
29.242749199630868
21
1.7588778263092062
31
0.0
0
LINE
8
1
62
1
10
29.242749199630868
20
1.7588778263092062
30
0.0
11
29.473081651121976
21
1.7049975905057795
31
0.0
0
LINE
8
1
62
1
10
29.473081651121976
20
1.7049975905057795
30
0.0
11
29.723582999205153
21
1.638883758773598
31
0.0
0
LINE
8
1
62
1
10
29.723582999205153
20
1.638883758773598
30
0.0
11
29.993728311933435
21
1.5593576801188738
31
0.0
0
LINE
8
1
62
1
10
29.993728311933435
20
1.5593576801188738
30
0.0
11
30.282942280173398
21
1.4652610930001315
31
0.0
0
LINE
8
1
62
1
10
30.282942280173398
20
1.4652610930001315
30
0.0
11
30.590599964575667
21
1.3554580272971792
31
0.0
0
LINE
8
1
62
1
10
30.590599964575667
20
1.3554580272971792
30
0.0
11
30.91602760968939
21
1.2288366799576091
31
0.0
0
LINE
8
1
62
1
10
30.91602760968939
20
1.2288366799576091
30
0.0
11
31.25850352431867
21
1.0843112620485085
31
0.0
0
LINE
8
1
62
1
10
31.25850352431867
20
1.0843112620485085
30
0.0
11
31.617259027144147
21
0.9208238149714028
31
0.0
0
LINE
8
1
62
1
10
31.617259027144147
20
0.9208238149714028
30
0.0
11
31.99147945655935
21
0.7373459936309488
31
0.0
0
LINE
8
1
62
1
10
31.99147945655935
20
0.7373459936309488
30
0.0
11
31.99147945655935
21
-0.7373459936309488
31
0.0
0
LINE
8
1
62
1
10
31.99147945655935
20
-0.7373459936309488
30
0.0
11
31.617259027144147
21
-0.9208238149714028
31
0.0
0
LINE
8
1
62
1
10
31.617259027144147
20
-0.9208238149714028
30
0.0
11
31.25850352431867
21
-1.0843112620485085
31
0.0
0
LINE
8
1
62
1
10
31.25850352431867
20
-1.0843112620485085
30
0.0
11
30.91602760968939
21
-1.2288366799576091
31
0.0
0
LINE
8
1
62
1
10
30.91602760968939
20
-1.2288366799576091
30
0.0
11
30.590599964575667
21
-1.3554580272971792
31
0.0
0
LINE
8
1
62
1
10
30.590599964575667
20
-1.3554580272971792
30
0.0
11
30.282942280173398
21
-1.4652610930001315
31
0.0
0
LINE
8
1
62
1
10
30.282942280173398
20
-1.4652610930001315
30
0.0
11
29.993728311933435
21
-1.5593576801188738
31
0.0
0
LINE
8
1
62
1
10
29.993728311933435
20
-1.5593576801188738
30
0.0
11
29.723582999205153
21
-1.638883758773598
31
0.0
0
LINE
8
1
62
1
10
29.723582999205153
20
-1.638883758773598
30
0.0
11
29.473081651121976
21
-1.7049975905057795
31
0.0
0
LINE
8
1
62
1
10
29.473081651121976
20
-1.7049975905057795
30
0.0
11
29.242749199630868
21
-1.7588778263092062
31
0.0
0
LINE
8
1
62
1
10
29.242749199630868
20
-1.7588778263092062
30
0.0
11
29.03305952049237
21
-1.8017215806387266
31
0.0
0
LINE
8
1
62
1
10
29.03305952049237
20
-1.8017215806387266
30
0.0
11
28.84443482300098
21
-1.834742483722187
31
0.0
0
LINE
8
1
62
1
10
28.84443482300098
20
-1.834742483722187
30
0.0
11
28.677245109098852
21
-1.8591687145240077
31
0.0
0
LINE
8
1
62
1
10
28.677245109098852
20
-1.8591687145240077
30
0.0
11
28.531807702477437
21
-1.8762410167291532
31
0.0
0
LINE
8
1
62
1
10
28.531807702477437
20
-1.8762410167291532
30
0.0
11
28.408386848183635
21
-1.887210700134149
31
0.0
0
LINE
8
1
62
1
10
28.408386848183635
20
-1.887210700134149
30
0.0
11
28.3071933831675
21
-1.8933376298470561
31
0.0
0
LINE
8
1
62
1
10
28.3071933831675
20
-1.8933376298470561
30
0.0
11
28.228384478129502
21
-1.8958882057110868
31
0.0
0
LINE
8
1
62
1
10
28.228384478129502
20
-1.8958882057110868
30
0.0
11
28.172063450945156
21
-1.89613333437668
31
0.0
0
LINE
8
1
62
1
10
28.172063450945156
20
-1.89613333437668
30
0.0
11
28.138279651864924
21
-1.8953463964544484
31
0.0
0
LINE
8
1
62
1
10
28.138279651864924
20
-1.8953463964544484
30
0.0
11
28.127028420606873
21
-1.8948012111863783
31
0.0
0
LINE
8
1
62
1
10
28.127028420606873
20
-1.8948012111863783
30
0.0
11
27.53758577492745
21
-1.855092905628582
31
0.0
0
LINE
8
1
62
1
10
27.53758577492745
20
-1.855092905628582
30
0.0
11
27.321518958379926
21
-3.910831344725341
31
0.0
0
LINE
8
1
62
1
10
27.321518958379926
20
-3.910831344725341
30
0.0
11
27.90633668896947
21
-3.99454277801808
31
0.0
0
LINE
8
1
62
1
10
27.90633668896947
20
-3.99454277801808
30
0.0
11
27.917455404220732
21
-3.996348768870806
31
0.0
0
LINE
8
1
62
1
10
27.917455404220732
20
-3.996348768870806
30
0.0
11
27.950664559828713
21
-4.002603074219266
31
0.0
0
LINE
8
1
62
1
10
27.950664559828713
20
-4.002603074219266
30
0.0
11
28.005703872324613
21
-4.014552646225878
31
0.0
0
LINE
8
1
62
1
10
28.005703872324613
20
-4.014552646225878
30
0.0
11
28.082260319163538
21
-4.033432778585715
31
0.0
0
LINE
8
1
62
1
10
28.082260319163538
20
-4.033432778585715
30
0.0
11
28.17996860386288
21
-4.060465124595472
31
0.0
0
LINE
8
1
62
1
10
28.17996860386288
20
-4.060465124595472
30
0.0
11
28.29841169094641
21
-4.096855732597275
31
0.0
0
LINE
8
1
62
1
10
28.29841169094641
20
-4.096855732597275
30
0.0
11
28.437121410072464
21
-4.143793101157049
31
0.0
0
LINE
8
1
62
1
10
28.437121410072464
20
-4.143793101157049
30
0.0
11
28.595579128646893
21
-4.2024462563155485
31
0.0
0
LINE
8
1
62
1
10
28.595579128646893
20
-4.2024462563155485
30
0.0
11
28.773216492144826
21
-4.273962853226123
31
0.0
0
LINE
8
1
62
1
10
28.773216492144826
20
-4.273962853226123
30
0.0
11
28.969416231289163
21
-4.3594673044666905
31
0.0
0
LINE
8
1
62
1
10
28.969416231289163
20
-4.3594673044666905
30
0.0
11
29.183513035158775
21
-4.4600589372845
31
0.0
0
LINE
8
1
62
1
10
29.183513035158775
20
-4.4600589372845
30
0.0
11
29.414794489225034
21
-4.576810182000753
31
0.0
0
LINE
8
1
62
1
10
29.414794489225034
20
-4.576810182000753
30
0.0
11
29.66250207724248
21
-4.710764793768469
31
0.0
0
LINE
8
1
62
1
10
29.66250207724248
20
-4.710764793768469
30
0.0
11
29.925832245847065
21
-4.86293610984079
31
0.0
0
LINE
8
1
62
1
10
29.925832245847065
20
-4.86293610984079
30
0.0
11
30.203937530645188
21
-5.0343053444685015
31
0.0
0
LINE
8
1
62
1
10
30.203937530645188
20
-5.0343053444685015
30
0.0
11
30.495927742506634
21
-5.225819923504819
31
0.0
0
LINE
8
1
62
1
10
30.495927742506634
20
-5.225819923504819
30
0.0
11
30.800871212706756
21
-5.438391860752589
31
0.0
0
LINE
8
1
62
1
10
30.800871212706756
20
-5.438391860752589
30
0.0
11
31.117796095496267
21
-5.672896178043777
31
0.0
0
LINE
8
1
62
1
10
31.117796095496267
20
-5.672896178043777
30
0.0
11
31.445691726611873
21
-5.93016937099407
31
0.0
0
LINE
8
1
62
1
10
31.445691726611873
20
-5.93016937099407
30
0.0
11
31.13908602210485
21
-7.372635800155664
31
0.0
0
LINE
8
1
62
1
10
31.13908602210485
20
-7.372635800155664
30
0.0
11
30.73489602286434
21
-7.474299388669431
31
0.0
0
LINE
8
1
62
1
10
30.73489602286434
20
-7.474299388669431
30
0.0
11
30.349989236976267
21
-7.559624779595376
31
0.0
0
LINE
8
1
62
1
10
30.349989236976267
20
-7.559624779595376
30
0.0
11
29.984948718768894
21
-7.629787223893281
31
0.0
0
LINE
8
1
62
1
10
29.984948718768894
20
-7.629787223893281
30
0.0
11
29.640306390069465
21
-7.685981379060729
31
0.0
0
LINE
8
1
62
1
10
29.640306390069465
20
-7.685981379060729
30
0.0
11
29.316542423176795
21
-7.729419354974136
31
0.0
0
LINE
8
1
62
1
10
29.316542423176795
20
-7.729419354974136
30
0.0
11
29.014084693516132
21
-7.761328740756688
31
0.0
0
LINE
8
1
62
1
10
29.014084693516132
20
-7.761328740756688
30
0.0
11
28.73330830254427
21
-7.782950615052746
31
0.0
0
LINE
8
1
62
1
10
28.73330830254427
20
-7.782950615052746
30
0.0
11
28.47453517139425
21
-7.795537542104797
31
0.0
0
LINE
8
1
62
1
10
28.47453517139425
20
-7.795537542104797
30
0.0
11
28.238033705669537
21
-7.800351556043174
31
0.0
0
LINE
8
1
62
1
10
28.238033705669537
20
-7.800351556043174
30
0.0
11
28.02401853171794
21
-7.798662135810304
31
0.0
0
LINE
8
1
62
1
10
28.02401853171794
20
-7.798662135810304
30
0.0
11
27.832650304635184
21
-7.791744173150031
31
0.0
0
LINE
8
1
62
1
10
27.832650304635184
20
-7.791744173150031
30
0.0
11
27.664035588168133
21
-7.780875936099073
31
0.0
0
LINE
8
1
62
1
10
27.664035588168133
20
-7.780875936099073
30
0.0
11
27.51822680660683
21
-7.76733703042123
31
0.0
0
LINE
8
1
62
1
10
27.51822680660683
20
-7.76733703042123
30
0.0
11
27.395222268674363
21
-7.752406361426241
31
0.0
0
LINE
8
1
62
1
10
27.395222268674363
20
-7.752406361426241
30
0.0
11
27.29496626334276
21
-7.737360098613572
31
0.0
0
LINE
8
1
62
1
10
27.29496626334276
20
-7.737360098613572
30
0.0
11
27.217349227422933
21
-7.723469645577517
31
0.0
0
LINE
8
1
62
1
10
27.217349227422933
20
-7.723469645577517
30
0.0
11
27.162207984696366
21
-7.711999617603148
31
0.0
0
LINE
8
1
62
1
10
27.162207984696366
20
-7.711999617603148
30
0.0
11
27.129326056276348
21
-7.7042058293735725
31
0.0
0
LINE
8
1
62
1
10
27.129326056276348
20
-7.7042058293735725
30
0.0
11
27.118434041806875
21
-7.701333295197011
31
0.0
0
LINE
8
1
62
1
10
27.118434041806875
20
-7.701333295197011
30
0.0
11
26.55012795311339
21
-7.539940694283145
31
0.0
0
LINE
8
1
62
1
10
26.55012795311339
20
-7.539940694283145
30
0.0
11
25.911370660157576
21
-9.505833499063892
31
0.0
0
LINE
8
1
62
1
10
25.911370660157576
20
-9.505833499063892
30
0.0
11
26.466004134563658
21
-9.70930607988025
31
0.0
0
LINE
8
1
62
1
10
26.466004134563658
20
-9.70930607988025
30
0.0
11
26.476504392598127
21
-9.713384316387401
31
0.0
0
LINE
8
1
62
1
10
26.476504392598127
20
-9.713384316387401
30
0.0
11
26.50768750527858
21
-9.72640652185134
31
0.0
0
LINE
8
1
62
1
10
26.50768750527858
20
-9.72640652185134
30
0.0
11
26.55903962102204
21
-9.749538283561872
31
0.0
0
LINE
8
1
62
1
10
26.55903962102204
20
-9.749538283561872
30
0.0
11
26.629997725576445
21
-9.783922820036466
31
0.0
0
LINE
8
1
62
1
10
26.629997725576445
20
-9.783922820036466
30
0.0
11
26.719950509061256
21
-9.83067913910686
31
0.0
0
LINE
8
1
62
1
10
26.719950509061256
20
-9.83067913910686
30
0.0
11
26.828239297675974
21
-9.890900227514278
31
0.0
0
LINE
8
1
62
1
10
26.828239297675974
20
-9.890900227514278
30
0.0
11
26.954159048977793
21
-9.965651274192133
31
0.0
0
LINE
8
1
62
1
10
26.954159048977793
20
-9.965651274192133
30
0.0
11
27.096959409558323
21
-10.055967929377822
31
0.0
0
LINE
8
1
62
1
10
27.096959409558323
20
-10.055967929377822
30
0.0
11
27.25584583387929
21
-10.16285460165581
31
0.0
0
LINE
8
1
62
1
10
27.25584583387929
20
-10.16285460165581
30
0.0
11
27.42998076295805
21
-10.287282794992334
31
0.0
0
LINE
8
1
62
1
10
27.42998076295805
20
-10.287282794992334
30
0.0
11
27.618484861526618
21
-10.430189487778181
31
0.0
0
LINE
8
1
62
1
10
27.618484861526618
20
-10.430189487778181
30
0.0
11
27.820438312221725
21
-10.592475555849775
31
0.0
0
LINE
8
1
62
1
10
27.820438312221725
20
-10.592475555849775
30
0.0
11
28.03488216529908
21
-10.775004241410691
31
0.0
0
LINE
8
1
62
1
10
28.03488216529908
20
-10.775004241410691
30
0.0
11
28.260819742301926
21
-10.978599669725241
31
0.0
0
LINE
8
1
62
1
10
28.260819742301926
20
-10.978599669725241
30
0.0
11
28.49721809205301
21
-11.204045415403659
31
0.0
0
LINE
8
1
62
1
10
28.49721809205301
20
-11.204045415403659
30
0.0
11
28.743009497279346
21
-11.452083120043927
31
0.0
0
LINE
8
1
62
1
10
28.743009497279346
20
-11.452083120043927
30
0.0
11
28.997093030121448
21
-11.723411162939314
31
0.0
0
LINE
8
1
62
1
10
28.997093030121448
20
-11.723411162939314
30
0.0
11
29.258336154722773
21
-12.018683386502392
31
0.0
0
LINE
8
1
62
1
10
29.258336154722773
20
-12.018683386502392
30
0.0
11
29.525576375041222
21
-12.33850787799685
31
0.0
0
LINE
8
1
62
1
10
29.525576375041222
20
-12.33850787799685
30
0.0
11
28.925765106571536
21
-13.685706044381899
31
0.0
0
LINE
8
1
62
1
10
28.925765106571536
20
-13.685706044381899
30
0.0
11
28.509270579991334
21
-13.701112213414905
31
0.0
0
LINE
8
1
62
1
10
28.509270579991334
20
-13.701112213414905
30
0.0
11
28.115034784571655
21
-13.704546419169576
31
0.0
0
LINE
8
1
62
1
10
28.115034784571655
20
-13.704546419169576
30
0.0
11
27.743383685090606
21
-13.697279454363704
31
0.0
0
LINE
8
1
62
1
10
27.743383685090606
20
-13.697279454363704
30
0.0
11
27.394589196347006
21
-13.680590463128738
31
0.0
0
LINE
8
1
62
1
10
27.394589196347006
20
-13.680590463128738
30
0.0
11
27.06886898590902
21
-13.655764901266648
31
0.0
0
LINE
8
1
62
1
10
27.06886898590902
20
-13.655764901266648
30
0.0
11
26.766386348967046
21
-13.624092492436093
31
0.0
0
LINE
8
1
62
1
10
26.766386348967046
20
-13.624092492436093
30
0.0
11
26.487250155351678
21
-13.586865182713481
31
0.0
0
LINE
8
1
62
1
10
26.487250155351678
20
-13.586865182713481
30
0.0
11
26.23151486869732
21
-13.545375095974451
31
0.0
0
LINE
8
1
62
1
10
26.23151486869732
20
-13.545375095974451
30
0.0
11
25.99918063765112
21
-13.500912492538468
31
0.0
0
LINE
8
1
62
1
10
25.99918063765112
20
-13.500912492538468
30
0.0
11
25.790193458946852
21
-13.454763733514124
31
0.0
0
LINE
8
1
62
1
10
25.790193458946852
20
-13.454763733514124
30
0.0
11
25.604445412082885
21
-13.408209253274439
31
0.0
0
LINE
8
1
62
1
10
25.604445412082885
20
-13.408209253274439
30
0.0
11
25.4417749652637
21
-13.362521542481415
31
0.0
0
LINE
8
1
62
1
10
25.4417749652637
20
-13.362521542481415
30
0.0
11
25.30196735218489
21
-13.318963144065584
31
0.0
0
LINE
8
1
62
1
10
25.30196735218489
20
-13.318963144065584
30
0.0
11
25.18475501916267
21
-13.278784664550988
31
0.0
0
LINE
8
1
62
1
10
25.18475501916267
20
-13.278784664550988
30
0.0
11
25.089818142030275
21
-13.243222803097638
31
0.0
0
LINE
8
1
62
1
10
25.089818142030275
20
-13.243222803097638
30
0.0
11
25.01678521214618
21
-13.213498400612963
31
0.0
0
LINE
8
1
62
1
10
25.01678521214618
20
-13.213498400612963
30
0.0
11
24.965233690781588
21
-13.19081451126041
31
0.0
0
LINE
8
1
62
1
10
24.965233690781588
20
-13.19081451126041
30
0.0
11
24.93469073107873
21
-13.17635449866787
31
0.0
0
LINE
8
1
62
1
10
24.93469073107873
20
-13.17635449866787
30
0.0
11
24.92463396669584
21
-13.17128015911028
31
0.0
0
LINE
8
1
62
1
10
24.92463396669584
20
-13.17128015911028
30
0.0
11
24.40230213809937
21
-12.895256893947904
31
0.0
0
LINE
8
1
62
1
10
24.40230213809937
20
-12.895256893947904
30
0.0
11
23.368771127534988
21
-14.685385115443427
31
0.0
0
LINE
8
1
62
1
10
23.368771127534988
20
-14.685385115443427
30
0.0
11
23.86898020149937
21
-14.99972611563196
31
0.0
0
LINE
8
1
62
1
10
23.86898020149937
20
-14.99972611563196
30
0.0
11
23.878403090655112
21
-15.005898359288624
31
0.0
0
LINE
8
1
62
1
10
23.878403090655112
20
-15.005898359288624
30
0.0
11
23.906197308750723
21
-15.025119332001792
31
0.0
0
LINE
8
1
62
1
10
23.906197308750723
20
-15.025119332001792
30
0.0
11
23.951617893868967
21
-15.058422314430986
31
0.0
0
LINE
8
1
62
1
10
23.951617893868967
20
-15.058422314430986
30
0.0
11
24.013876446475056
21
-15.106808485781084
31
0.0
0
LINE
8
1
62
1
10
24.013876446475056
20
-15.106808485781084
30
0.0
11
24.09214236046572
21
-15.171245302407025
31
0.0
0
LINE
8
1
62
1
10
24.09214236046572
20
-15.171245302407025
30
0.0
11
24.185544110921903
21
-15.252664920683813
31
0.0
0
LINE
8
1
62
1
10
24.185544110921903
20
-15.252664920683813
30
0.0
11
24.293170597037577
21
-15.351962666044612
31
0.0
0
LINE
8
1
62
1
10
24.293170597037577
20
-15.351962666044612
30
0.0
11
24.414072538634684
21
-15.46999555003848
31
0.0
0
LINE
8
1
62
1
10
24.414072538634684
20
-15.46999555003848
30
0.0
11
24.54726392461422
21
-15.607580837206175
31
0.0
0
LINE
8
1
62
1
10
24.54726392461422
20
-15.607580837206175
30
0.0
11
24.69172351163456
21
-15.765494663517131
31
0.0
0
LINE
8
1
62
1
10
24.69172351163456
20
-15.765494663517131
30
0.0
11
24.846396371251615
21
-15.944470708053881
31
0.0
0
LINE
8
1
62
1
10
24.846396371251615
20
-15.944470708053881
30
0.0
11
25.010195483700013
21
-16.145198919571133
31
0.0
0
LINE
8
1
62
1
10
25.010195483700013
20
-16.145198919571133
30
0.0
11
25.18200337644203
21
-16.368324299496425
31
0.0
0
LINE
8
1
62
1
10
25.18200337644203
20
-16.368324299496425
30
0.0
11
25.36067380555933
21
-16.614445742876605
31
0.0
0
LINE
8
1
62
1
10
25.36067380555933
20
-16.614445742876605
30
0.0
11
25.545033478014112
21
-16.88411493871087
31
0.0
0
LINE
8
1
62
1
10
25.545033478014112
20
-16.88411493871087
30
0.0
11
25.73388381275893
21
-17.177835331045348
31
0.0
0
LINE
8
1
62
1
10
25.73388381275893
20
-17.177835331045348
30
0.0
11
25.926002738629744
21
-17.49606114213742
31
0.0
0
LINE
8
1
62
1
10
25.926002738629744
20
-17.49606114213742
30
0.0
11
26.12014652691422
21
-17.839196458929358
31
0.0
0
LINE
8
1
62
1
10
26.12014652691422
20
-17.839196458929358
30
0.0
11
26.315051656446737
21
-18.20759438400149
31
0.0
0
LINE
8
1
62
1
10
26.315051656446737
20
-18.20759438400149
30
0.0
11
25.448249454660314
21
-19.400645263164925
31
0.0
0
LINE
8
1
62
1
10
25.448249454660314
20
-19.400645263164925
30
0.0
11
25.03765321011445
21
-19.32912068920343
31
0.0
0
LINE
8
1
62
1
10
25.03765321011445
20
-19.32912068920343
30
0.0
11
24.65131840117624
21
-19.250513618516194
31
0.0
0
LINE
8
1
62
1
10
24.65131840117624
20
-19.250513618516194
30
0.0
11
24.28929965684867
21
-19.166134845839334
31
0.0
0
LINE
8
1
62
1
10
24.28929965684867
20
-19.166134845839334
30
0.0
11
23.95159700092065
21
-19.077292097201585
31
0.0
0
LINE
8
1
62
1
10
23.95159700092065
20
-19.077292097201585
30
0.0
11
23.638156083112474
21
-18.985287993743636
31
0.0
0
LINE
8
1
62
1
10
23.638156083112474
20
-18.985287993743636
30
0.0
11
23.348868481596277
21
-18.891418026546948
31
0.0
0
LINE
8
1
62
1
10
23.348868481596277
20
-18.891418026546948
30
0.0
11
23.08357207644246
21
-18.796968544876997
31
0.0
0
LINE
8
1
62
1
10
23.08357207644246
20
-18.796968544876997
30
0.0
11
22.84205149346462
21
-18.703214760228903
31
0.0
0
LINE
8
1
62
1
10
22.84205149346462
20
-18.703214760228903
30
0.0
11
22.624038617856975
21
-18.61141876854396
31
0.0
0
LINE
8
1
62
1
10
22.624038617856975
20
-18.61141876854396
30
0.0
11
22.429213176941165
21
-18.522827592943816
31
0.0
0
LINE
8
1
62
1
10
22.429213176941165
20
-18.522827592943816
30
0.0
11
22.25720339126196
21
-18.438671249304374
31
0.0
0
LINE
8
1
62
1
10
22.25720339126196
20
-18.438671249304374
30
0.0
11
22.107586693196044
21
-18.3601608369649
31
0.0
0
LINE
8
1
62
1
10
22.107586693196044
20
-18.3601608369649
30
0.0
11
21.97989051216264
21
-18.28848665683824
31
0.0
0
LINE
8
1
62
1
10
21.97989051216264
20
-18.28848665683824
30
0.0
11
21.873593125450906
21
-18.22481635915656
31
0.0
0
LINE
8
1
62
1
10
21.873593125450906
20
-18.22481635915656
30
0.0
11
21.78812457360609
21
-18.170293123052787
31
0.0
0
LINE
8
1
62
1
10
21.78812457360609
20
-18.170293123052787
30
0.0
11
21.722867639244537
21
-18.126033870141576
31
0.0
0
LINE
8
1
62
1
10
21.722867639244537
20
-18.126033870141576
30
0.0
11
21.677158888097196
21
-18.093127514224925
31
0.0
0
LINE
8
1
62
1
10
21.677158888097196
20
-18.093127514224925
30
0.0
11
21.6502897710119
21
-18.07263324920655
31
0.0
0
LINE
8
1
62
1
10
21.6502897710119
20
-18.07263324920655
30
0.0
11
21.64150778557683
21
-18.065578877255984
31
0.0
0
LINE
8
1
62
1
10
21.64150778557683
20
-18.065578877255984
30
0.0
11
21.18797862441324
21
-17.68698848903927
31
0.0
0
LINE
8
1
62
1
10
21.18797862441324
20
-17.68698848903927
30
0.0
11
19.804844160833976
21
-19.22311493398196
31
0.0
0
LINE
8
1
62
1
10
19.804844160833976
20
-19.22311493398196
30
0.0
11
20.22876729755497
21
-19.63458614345896
31
0.0
0
LINE
8
1
62
1
10
20.22876729755497
20
-19.63458614345896
30
0.0
11
20.236700992359847
21
-19.64258263759963
31
0.0
0
LINE
8
1
62
1
10
20.236700992359847
20
-19.64258263759963
30
0.0
11
20.259891575168385
21
-19.667162328822
31
0.0
0
LINE
8
1
62
1
10
20.259891575168385
20
-19.667162328822
30
0.0
11
20.29739553213959
21
-19.709181031832266
31
0.0
0
LINE
8
1
62
1
10
20.29739553213959
20
-19.709181031832266
30
0.0
11
20.3482335352988
21
-19.769454130187256
31
0.0
0
LINE
8
1
62
1
10
20.3482335352988
20
-19.769454130187256
30
0.0
11
20.41139198379239
21
-19.84875524628004
31
0.0
0
LINE
8
1
62
1
10
20.41139198379239
20
-19.84875524628004
30
0.0
11
20.48582459140378
21
-19.947814966412828
31
0.0
0
LINE
8
1
62
1
10
20.48582459140378
20
-19.947814966412828
30
0.0
11
20.570454018440888
21
-20.06731962250085
31
0.0
0
LINE
8
1
62
1
10
20.570454018440888
20
-20.06731962250085
30
0.0
11
20.664173546054894
21
-20.207910131887747
31
0.0
0
LINE
8
1
62
1
10
20.664173546054894
20
-20.207910131887747
30
0.0
11
20.7658487910025
21
-20.370180896688467
31
0.0
0
LINE
8
1
62
1
10
20.7658487910025
20
-20.370180896688467
30
0.0
11
20.87431945881763
21
-20.55467876400946
31
0.0
0
LINE
8
1
62
1
10
20.87431945881763
20
-20.55467876400946
30
0.0
11
20.98840113331518
21
-20.761902048328505
31
0.0
0
LINE
8
1
62
1
10
20.98840113331518
20
-20.761902048328505
30
0.0
11
21.10688710030753
21
-20.99229961724729
31
0.0
0
LINE
8
1
62
1
10
21.10688710030753
20
-20.99229961724729
30
0.0
11
21.228550203375644
21
-21.246270041759864
31
0.0
0
LINE
8
1
62
1
10
21.228550203375644
20
-21.246270041759864
30
0.0
11
21.352144729499127
21
-21.52416081210824
31
0.0
0
LINE
8
1
62
1
10
21.352144729499127
20
-21.52416081210824
30
0.0
11
21.476408322315475
21
-21.82626762022402
31
0.0
0
LINE
8
1
62
1
10
21.476408322315475
20
-21.82626762022402
30
0.0
11
21.600063920745978
21
-22.152833709680877
31
0.0
0
LINE
8
1
62
1
10
21.600063920745978
20
-22.152833709680877
30
0.0
11
21.72182172069607
21
-22.504049294008052
31
0.0
0
LINE
8
1
62
1
10
21.72182172069607
20
-22.504049294008052
30
0.0
11
21.840381157510397
21
-22.88005104413911
31
0.0
0
LINE
8
1
62
1
10
21.840381157510397
20
-22.88005104413911
30
0.0
11
21.95443290683784
21
-23.280921645693887
31
0.0
0
LINE
8
1
62
1
10
21.95443290683784
20
-23.280921645693887
30
0.0
11
20.85852318733119
21
-24.26768318932299
31
0.0
0
LINE
8
1
62
1
10
20.85852318733119
20
-24.26768318932299
30
0.0
11
20.471770250965697
21
-24.11235383946209
31
0.0
0
LINE
8
1
62
1
10
20.471770250965697
20
-24.11235383946209
30
0.0
11
20.110221113499648
21
-23.955140998520562
31
0.0
0
LINE
8
1
62
1
10
20.110221113499648
20
-23.955140998520562
30
0.0
11
19.773656680611346
21
-23.79733817523296
31
0.0
0
LINE
8
1
62
1
10
19.773656680611346
20
-23.79733817523296
30
0.0
11
19.461805084040087
21
-23.640224523622706
31
0.0
0
LINE
8
1
62
1
10
19.461805084040087
20
-23.640224523622706
30
0.0
11
19.174342331026335
21
-23.485062899374682
31
0.0
0
LINE
8
1
62
1
10
19.174342331026335
20
-23.485062899374682
30
0.0
11
18.9108930212781
21
-23.33309794181643
31
0.0
0
LINE
8
1
62
1
10
18.9108930212781
20
-23.33309794181643
30
0.0
11
18.671031130524455
21
-23.185554183767017
31
0.0
0
LINE
8
1
62
1
10
18.671031130524455
20
-23.185554183767017
30
0.0
11
18.454280859643593
21
-23.043634191479555
31
0.0
0
LINE
8
1
62
1
10
18.454280859643593
20
-23.043634191479555
30
0.0
11
18.26011754828041
21
-22.90851673686832
31
0.0
0
LINE
8
1
62
1
10
18.26011754828041
20
-22.90851673686832
30
0.0
11
18.08796865179726
21
-22.78135500417373
31
0.0
0
LINE
8
1
62
1
10
18.08796865179726
20
-22.78135500417373
30
0.0
11
17.937214780331526
21
-22.66327483317852
31
0.0
0
LINE
8
1
62
1
10
17.937214780331526
20
-22.66327483317852
30
0.0
11
17.80719079866494
21
-22.555373001046586
31
0.0
0
LINE
8
1
62
1
10
17.80719079866494
20
-22.555373001046586
30
0.0
11
17.697186985542356
21
-22.458715544811504
31
0.0
0
LINE
8
1
62
1
10
17.697186985542356
20
-22.458715544811504
30
0.0
11
17.606450251011868
21
-22.374336126495415
31
0.0
0
LINE
8
1
62
1
10
17.606450251011868
20
-22.374336126495415
30
0.0
11
17.53418541029386
21
-22.303234442790462
31
0.0
0
LINE
8
1
62
1
10
17.53418541029386
20
-22.303234442790462
30
0.0
11
17.47955651262396
21
-22.2463746811844
31
0.0
0
LINE
8
1
62
1
10
17.47955651262396
20
-22.2463746811844
30
0.0
11
17.441688223453934
21
-22.204684024359423
31
0.0
0
LINE
8
1
62
1
10
17.441688223453934
20
-22.204684024359423
30
0.0
11
17.419667258335153
21
-22.179051204638913
31
0.0
0
LINE
8
1
62
1
10
17.419667258335153
20
-22.179051204638913
30
0.0
11
17.41254386675206
21
-22.17032511020024
31
0.0
0
LINE
8
1
62
1
10
17.41254386675206
20
-22.17032511020024
30
0.0
11
17.047638773638567
21
-21.7057138155725
31
0.0
0
LINE
8
1
62
1
10
17.047638773638567
20
-21.7057138155725
30
0.0
11
15.375350470118367
21
-22.920702387165864
31
0.0
0
LINE
8
1
62
1
10
15.375350470118367
20
-22.920702387165864
30
0.0
11
15.704460194312366
21
-23.411320539619258
31
0.0
0
LINE
8
1
62
1
10
15.704460194312366
20
-23.411320539619258
30
0.0
11
15.71055795423331
21
-23.42079179907855
31
0.0
0
LINE
8
1
62
1
10
15.71055795423331
20
-23.42079179907855
30
0.0
11
15.728131362005279
21
-23.449655958357262
31
0.0
0
LINE
8
1
62
1
10
15.728131362005279
20
-23.449655958357262
30
0.0
11
15.756079587945852
21
-23.498553962998937
31
0.0
0
LINE
8
1
62
1
10
15.756079587945852
20
-23.498553962998937
30
0.0
11
15.793275176972323
21
-23.568079764738297
31
0.0
0
LINE
8
1
62
1
10
15.793275176972323
20
-23.568079764738297
30
0.0
11
15.838565832701809
21
-23.658779340995693
31
0.0
0
LINE
8
1
62
1
10
15.838565832701809
20
-23.658779340995693
30
0.0
11
15.890776235348511
21
-23.7711497778734
31
0.0
0
LINE
8
1
62
1
10
15.890776235348511
20
-23.7711497778734
30
0.0
11
15.948709891248479
21
-23.905638417770643
31
0.0
0
LINE
8
1
62
1
10
15.948709891248479
20
-23.905638417770643
30
0.0
11
16.011151011806465
21
-24.06264207266225
31
0.0
0
LINE
8
1
62
1
10
16.011151011806465
20
-24.06264207266225
30
0.0
11
16.07686641962598
21
-24.242506304012682
31
0.0
0
LINE
8
1
62
1
10
16.07686641962598
20
-24.242506304012682
30
0.0
11
16.144607479552363
21
-24.44552477022279
31
0.0
0
LINE
8
1
62
1
10
16.144607479552363
20
-24.44552477022279
30
0.0
11
16.213112052330256
21
-24.67193864243175
31
0.0
0
LINE
8
1
62
1
10
16.213112052330256
20
-24.67193864243175
30
0.0
11
16.28110646855024
21
-24.921936089420115
31
0.0
0
LINE
8
1
62
1
10
16.28110646855024
20
-24.921936089420115
30
0.0
11
16.347307520536035
21
-25.195651832283463
31
0.0
0
LINE
8
1
62
1
10
16.347307520536035
20
-25.195651832283463
30
0.0
11
16.410424469801768
21
-25.493166769467948
31
0.0
0
LINE
8
1
62
1
10
16.410424469801768
20
-25.493166769467948
30
0.0
11
16.469161067690735
21
-25.814507672681284
31
0.0
0
LINE
8
1
62
1
10
16.469161067690735
20
-25.814507672681284
30
0.0
11
16.522217586790113
21
-26.1596469541133
31
0.0
0
LINE
8
1
62
1
10
16.522217586790113
20
-26.1596469541133
30
0.0
11
16.56829286070291
21
-26.528502505321118
31
0.0
0
LINE
8
1
62
1
10
16.56829286070291
20
-26.528502505321118
30
0.0
11
16.60608632974701
21
-26.920937608053993
31
0.0
0
LINE
8
1
62
1
10
16.60608632974701
20
-26.920937608053993
30
0.0
11
16.63430009014276
21
-27.336760917212906
31
0.0
0
LINE
8
1
62
1
10
16.63430009014276
20
-27.336760917212906
30
0.0
11
15.357179366416595
21
-28.074106910843856
31
0.0
0
LINE
8
1
62
1
10
15.357179366416595
20
-28.074106910843856
30
0.0
11
15.01117269739714
21
-27.8417614230254
31
0.0
0
LINE
8
1
62
1
10
15.01117269739714
20
-27.8417614230254
30
0.0
11
14.690210663615762
21
-27.612813767369627
31
0.0
0
LINE
8
1
62
1
10
14.690210663615762
20
-27.612813767369627
30
0.0
11
14.393810022899277
21
-27.388483634070905
31
0.0
0
LINE
8
1
62
1
10
14.393810022899277
20
-27.388483634070905
30
0.0
11
14.121438896884937
21
-27.169965699978466
31
0.0
0
LINE
8
1
62
1
10
14.121438896884937
20
-27.169965699978466
30
0.0
11
13.872517810371631
21
-26.958427862468078
31
0.0
0
LINE
8
1
62
1
10
13.872517810371631
20
-26.958427862468078
30
0.0
11
13.646420791397405
21
-26.755009512402335
31
0.0
0
LINE
8
1
62
1
10
13.646420791397405
20
-26.755009512402335
30
0.0
11
13.442476530654915
21
-26.560819848193713
31
0.0
0
LINE
8
1
62
1
10
13.442476530654915
20
-26.560819848193713
30
0.0
11
13.259969598791729
21
-26.37693623293753
31
0.0
0
LINE
8
1
62
1
10
13.259969598791729
20
-26.37693623293753
30
0.0
11
13.09814172007851
21
-26.204402596531995
31
0.0
0
LINE
8
1
62
1
10
13.09814172007851
20
-26.204402596531995
30
0.0
11
12.956193100866395
21
-26.044227884651406
31
0.0
0
LINE
8
1
62
1
10
12.956193100866395
20
-26.044227884651406
30
0.0
11
12.833283811194521
21
-25.897384556384438
31
0.0
0
LINE
8
1
62
1
10
12.833283811194521
20
-25.897384556384438
30
0.0
11
12.728535217850377
21
-25.76480713229465
31
0.0
0
LINE
8
1
62
1
10
12.728535217850377
20
-25.76480713229465
30
0.0
11
12.64103146712893
21
-25.647390794602554
31
0.0
0
LINE
8
1
62
1
10
12.64103146712893
20
-25.647390794602554
30
0.0
11
12.569821015481828
21
-25.545990041129844
31
0.0
0
LINE
8
1
62
1
10
12.569821015481828
20
-25.545990041129844
30
0.0
11
12.513918206195184
21
-25.461417394585354
31
0.0
0
LINE
8
1
62
1
10
12.513918206195184
20
-25.461417394585354
30
0.0
11
12.472304890183654
21
-25.39444216871003
31
0.0
0
LINE
8
1
62
1
10
12.472304890183654
20
-25.39444216871003
30
0.0
11
12.44393208893988
21
-25.345789292733944
31
0.0
0
LINE
8
1
62
1
10
12.44393208893988
20
-25.345789292733944
30
0.0
11
12.42772169763162
21
-25.316138195533
31
0.0
0
LINE
8
1
62
1
10
12.42772169763162
20
-25.316138195533
30
0.0
11
12.42256822629451
21
-25.306121750805637
31
0.0
0
LINE
8
1
62
1
10
12.42256822629451
20
-25.306121750805637
30
0.0
11
12.162235304809085
21
-24.77579529279445
31
0.0
0
LINE
8
1
62
1
10
12.162235304809085
20
-24.77579529279445
30
0.0
11
10.273880184741364
21
-25.616545160297843
31
0.0
0
LINE
8
1
62
1
10
10.273880184741364
20
-25.616545160297843
30
0.0
11
10.493792822217419
21
-26.16486788821832
31
0.0
0
LINE
8
1
62
1
10
10.493792822217419
20
-26.16486788821832
30
0.0
11
10.497788145885586
21
-26.175399973509723
31
0.0
0
LINE
8
1
62
1
10
10.497788145885586
20
-26.175399973509723
30
0.0
11
10.508976336374783
21
-26.207287098578693
31
0.0
0
LINE
8
1
62
1
10
10.508976336374783
20
-26.207287098578693
30
0.0
11
10.526147359700657
21
-26.26092732741028
31
0.0
0
LINE
8
1
62
1
10
10.526147359700657
20
-26.26092732741028
30
0.0
11
10.548074908869689
21
-26.33666722137618
31
0.0
0
LINE
8
1
62
1
10
10.548074908869689
20
-26.33666722137618
30
0.0
11
10.573518352851018
21
-26.43480125109089
31
0.0
0
LINE
8
1
62
1
10
10.573518352851018
20
-26.43480125109089
30
0.0
11
10.60122470540406
21
-26.55557127740878
31
0.0
0
LINE
8
1
62
1
10
10.60122470540406
20
-26.55557127740878
30
0.0
11
10.629930611407532
21
-26.699166102203638
31
0.0
0
LINE
8
1
62
1
10
10.629930611407532
20
-26.699166102203638
30
0.0
11
10.658364348315374
21
-26.865721089494066
31
0.0
0
LINE
8
1
62
1
10
10.658364348315374
20
-26.865721089494066
30
0.0
11
10.685247840347571
21
-27.055317857399857
31
0.0
0
LINE
8
1
62
1
10
10.685247840347571
20
-27.055317857399857
30
0.0
11
10.70929868300876
21
-27.267984041335012
31
0.0
0
LINE
8
1
62
1
10
10.70929868300876
20
-27.267984041335012
30
0.0
11
10.729232175515188
21
-27.503693128764056
31
0.0
0
LINE
8
1
62
1
10
10.729232175515188
20
-27.503693128764056
30
0.0
11
10.743763358700589
21
-27.76236436576777
31
0.0
0
LINE
8
1
62
1
10
10.743763358700589
20
-27.76236436576777
30
0.0
11
10.751609055964385
21
-28.043862735584906
31
0.0
0
LINE
8
1
62
1
10
10.751609055964385
20
-28.043862735584906
30
0.0
11
10.751489914820738
21
-28.347999009215474
31
0.0
0
LINE
8
1
62
1
10
10.751489914820738
20
-28.347999009215474
30
0.0
11
10.742132446605106
21
-28.674529868091213
31
0.0
0
LINE
8
1
62
1
10
10.742132446605106
20
-28.674529868091213
30
0.0
11
10.722271061895295
21
-29.02315809873778
31
0.0
0
LINE
8
1
62
1
10
10.722271061895295
20
-29.02315809873778
30
0.0
11
10.690650099207115
21
-29.393532859273154
31
0.0
0
LINE
8
1
62
1
10
10.690650099207115
20
-29.393532859273154
30
0.0
11
10.646025844530577
21
-29.785250017505874
31
0.0
0
LINE
8
1
62
1
10
10.646025844530577
20
-29.785250017505874
30
0.0
11
10.58716853928069
21
-30.197852560317063
31
0.0
0
LINE
8
1
62
1
10
10.58716853928069
20
-30.197852560317063
30
0.0
11
9.184653115267007
21
-30.653557445849557
31
0.0
0
LINE
8
1
62
1
10
9.184653115267007
20
-30.653557445849557
30
0.0
11
8.894514865353942
21
-30.354350432808545
31
0.0
0
LINE
8
1
62
1
10
8.894514865353942
20
-30.354350432808545
30
0.0
11
8.628167516280199
21
-30.06367407360343
31
0.0
0
LINE
8
1
62
1
10
8.628167516280199
20
-30.06367407360343
30
0.0
11
8.384884798022917
21
-29.782620933574165
31
0.0
0
LINE
8
1
62
1
10
8.384884798022917
20
-29.782620933574165
30
0.0
11
8.163898067753987
21
-29.51224899928475
31
0.0
0
LINE
8
1
62
1
10
8.163898067753987
20
-29.51224899928475
30
0.0
11
7.9643976936776655
21
-29.253580167082376
31
0.0
0
LINE
8
1
62
1
10
7.9643976936776655
20
-29.253580167082376
30
0.0
11
7.785534490140486
21
-29.007598782516556
31
0.0
0
LINE
8
1
62
1
10
7.785534490140486
20
-29.007598782516556
30
0.0
11
7.626421202236735
21
-28.77525023230004
31
0.0
0
LINE
8
1
62
1
10
7.626421202236735
20
-28.77525023230004
30
0.0
11
7.486134038079068
21
-28.557439590433308
31
0.0
0
LINE
8
1
62
1
10
7.486134038079068
20
-28.557439590433308
30
0.0
11
7.363714246851904
21
-28.355030320052638
31
0.0
0
LINE
8
1
62
1
10
7.363714246851904
20
-28.355030320052638
30
0.0
11
7.258169740715439
21
-28.168843032498774
31
0.0
0
LINE
8
1
62
1
10
7.258169740715439
20
-28.168843032498774
30
0.0
11
7.168476758580289
21
-27.999654305037783
31
0.0
0
LINE
8
1
62
1
10
7.168476758580289
20
-27.999654305037783
30
0.0
11
7.093581569727244
21
-27.848195558599926
31
0.0
0
LINE
8
1
62
1
10
7.093581569727244
20
-27.848195558599926
30
0.0
11
7.032402215203045
21
-27.715151996834063
31
0.0
0
LINE
8
1
62
1
10
7.032402215203045
20
-27.715151996834063
30
0.0
11
6.98383028488197
21
-27.601161607706285
31
0.0
0
LINE
8
1
62
1
10
6.98383028488197
20
-27.601161607706285
30
0.0
11
6.946732728043956
21
-27.50681422880083
31
0.0
0
LINE
8
1
62
1
10
6.946732728043956
20
-27.50681422880083
30
0.0
11
6.919953695283342
21
-27.432650677409786
31
0.0
0
LINE
8
1
62
1
10
6.919953695283342
20
-27.432650677409786
30
0.0
11
6.902316409527981
21
-27.379161946425153
31
0.0
0
LINE
8
1
62
1
10
6.902316409527981
20
-27.379161946425153
30
0.0
11
6.8926250639165
21
-27.346788466973205
31
0.0
0
LINE
8
1
62
1
10
6.8926250639165
20
-27.346788466973205
30
0.0
11
6.889666744251905
21
-27.335919438655974
31
0.0
0
LINE
8
1
62
1
10
6.889666744251905
20
-27.335919438655974
30
0.0
11
6.745283792279413
21
-26.76305562826511
31
0.0
0
LINE
8
1
62
1
10
6.745283792279413
20
-26.76305562826511
30
0.0
11
4.723392035744338
21
-27.192821988103166
31
0.0
0
LINE
8
1
62
1
10
4.723392035744338
20
-27.192821988103166
30
0.0
11
4.8244963489868296
21
-27.774884957136237
31
0.0
0
LINE
8
1
62
1
10
4.8244963489868296
20
-27.774884957136237
30
0.0
11
4.826214621586231
21
-27.78601756559396
31
0.0
0
LINE
8
1
62
1
10
4.826214621586231
20
-27.78601756559396
30
0.0
11
4.830528617181385
21
-27.81953403607627
31
0.0
0
LINE
8
1
62
1
10
4.830528617181385
20
-27.81953403607627
30
0.0
11
4.836171981777506
21
-27.87557215370345
31
0.0
0
LINE
8
1
62
1
10
4.836171981777506
20
-27.87557215370345
30
0.0
11
4.841873151970359
21
-27.954215943089256
31
0.0
0
LINE
8
1
62
1
10
4.841873151970359
20
-27.954215943089256
30
0.0
11
4.846357383610355
21
-28.055495498263426
31
0.0
0
LINE
8
1
62
1
10
4.846357383610355
20
-28.055495498263426
30
0.0
11
4.84834878551334
21
-28.179386884352525
31
0.0
0
LINE
8
1
62
1
10
4.84834878551334
20
-28.179386884352525
30
0.0
11
4.846572355781748
21
-28.325812111157042
31
0.0
0
LINE
8
1
62
1
10
4.846572355781748
20
-28.325812111157042
30
0.0
11
4.839756018296367
21
-28.4946391786822
31
0.0
0
LINE
8
1
62
1
10
4.839756018296367
20
-28.4946391786822
30
0.0
11
4.826632656938133
21
-28.685682194599632
31
0.0
0
LINE
8
1
62
1
10
4.826632656938133
20
-28.685682194599632
30
0.0
11
4.80594214510108
21
-28.898701563536296
31
0.0
0
LINE
8
1
62
1
10
4.80594214510108
20
-28.898701563536296
30
0.0
11
4.776433368062004
21
-29.13340424800709
31
0.0
0
LINE
8
1
62
1
10
4.776433368062004
20
-29.13340424800709
30
0.0
11
4.7368662357792655
21
-29.389444100726774
31
0.0
0
LINE
8
1
62
1
10
4.7368662357792655
20
-29.389444100726774
30
0.0
11
4.68601368370281
21
-29.66642226795764
31
0.0
0
LINE
8
1
62
1
10
4.68601368370281
20
-29.66642226795764
30
0.0
11
4.622663659189456
21
-29.963887663468885
31
0.0
0
LINE
8
1
62
1
10
4.622663659189456
20
-29.963887663468885
30
0.0
11
4.545621091132363
21
-30.281337512605248
31
0.0
0
LINE
8
1
62
1
10
4.545621091132363
20
-30.281337512605248
30
0.0
11
4.453709840430678
21
-30.61821796588326
31
0.0
0
LINE
8
1
62
1
10
4.453709840430678
20
-30.61821796588326
30
0.0
11
4.34577462894521
21
-30.973924781455512
31
0.0
0
LINE
8
1
62
1
10
4.34577462894521
20
-30.973924781455512
30
0.0
11
4.220682944608328
21
-31.34780407570583
31
0.0
0
LINE
8
1
62
1
10
4.220682944608328
20
-31.34780407570583
30
0.0
11
4.07732692038091
21
-31.73915314116178
31
0.0
0
LINE
8
1
62
1
10
4.07732692038091
20
-31.73915314116178
30
0.0
11
2.6107134501247975
21
-31.89330042838339
31
0.0
0
LINE
8
1
62
1
10
2.6107134501247975
20
-31.89330042838339
30
0.0
11
2.3891240530771154
21
-31.540308672344267
31
0.0
0
LINE
8
1
62
1
10
2.3891240530771154
20
-31.540308672344267
30
0.0
11
2.1890320459419104
21
-31.200607561307
31
0.0
0
LINE
8
1
62
1
10
2.1890320459419104
20
-31.200607561307
30
0.0
11
2.009499872331677
21
-30.875114785409053
31
0.0
0
LINE
8
1
62
1
10
2.009499872331677
20
-30.875114785409053
30
0.0
11
1.8495557183328946
21
-30.564705401839607
31
0.0
0
LINE
8
1
62
1
10
1.8495557183328946
20
-30.564705401839607
30
0.0
11
1.7081951803496935
21
-30.27021064414326
31
0.0
0
LINE
8
1
62
1
10
1.7081951803496935
20
-30.27021064414326
30
0.0
11
1.584382972525013
21
-29.99241679193252
31
0.0
0
LINE
8
1
62
1
10
1.584382972525013
20
-29.99241679193252
30
0.0
11
1.4770546716516635
21
-29.732064102284617
31
0.0
0
LINE
8
1
62
1
10
1.4770546716516635
20
-29.732064102284617
30
0.0
11
1.3851184974457054
21
-29.489845804028334
31
0.0
0
LINE
8
1
62
1
10
1.3851184974457054
20
-29.489845804028334
30
0.0
11
1.3074571260165548
21
-29.266407156055603
31
0.0
0
LINE
8
1
62
1
10
1.3074571260165548
20
-29.266407156055603
30
0.0
11
1.242929534332633
21
-29.0623445707203
31
0.0
0
LINE
8
1
62
1
10
1.242929534332633
20
-29.0623445707203
30
0.0
11
1.1903728734481966
21
-28.87820480331292
31
0.0
0
LINE
8
1
62
1
10
1.1903728734481966
20
-28.87820480331292
30
0.0
11
1.1486043682261189
21
-28.714484208526027
31
0.0
0
LINE
8
1
62
1
10
1.1486043682261189
20
-28.714484208526027
30
0.0
11
1.1164232412629886
21
-28.571628064749397
31
0.0
0
LINE
8
1
62
1
10
1.1164232412629886
20
-28.571628064749397
30
0.0
11
1.0926126586969505
21
-28.450029966958013
31
0.0
0
LINE
8
1
62
1
10
1.0926126586969505
20
-28.450029966958013
30
0.0
11
1.0759416955552163
21
-28.350031288878725
31
0.0
0
LINE
8
1
62
1
10
1.0759416955552163
20
-28.350031288878725
30
0.0
11
1.0651673182772115
21
-28.271920715043954
31
0.0
0
LINE
8
1
62
1
10
1.0651673182772115
20
-28.271920715043954
30
0.0
11
1.059036382030861
21
-28.215933843262203
31
0.0
0
LINE
8
1
62
1
10
1.059036382030861
20
-28.215933843262203
30
0.0
11
1.0562876404236166
21
-28.182252857956495
31
0.0
0
LINE
8
1
62
1
10
1.0562876404236166
20
-28.182252857956495
30
0.0
11
1.055653765196471
21
-28.17100627474224
31
0.0
0
LINE
8
1
62
1
10
1.055653765196471
20
-28.17100627474224
30
0.0
11
1.033531010564383
21
-27.580642009391333
31
0.0
0
LINE
8
1
62
1
10
1.033531010564383
20
-27.580642009391333
30
0.0
11
-1.0335310105643793
21
-27.580642009391333
31
0.0
0
LINE
8
1
62
1
10
-1.0335310105643793
20
-27.580642009391333
30
0.0
11
-1.0556537651964675
21
-28.17100627474224
31
0.0
0
LINE
8
1
62
1
10
-1.0556537651964675
20
-28.17100627474224
30
0.0
11
-1.056287640423613
21
-28.182252857956495
31
0.0
0
LINE
8
1
62
1
10
-1.056287640423613
20
-28.182252857956495
30
0.0
11
-1.0590363820308575
21
-28.215933843262203
31
0.0
0
LINE
8
1
62
1
10
-1.0590363820308575
20
-28.215933843262203
30
0.0
11
-1.065167318277208
21
-28.271920715043954
31
0.0
0
LINE
8
1
62
1
10
-1.065167318277208
20
-28.271920715043954
30
0.0
11
-1.0759416955552128
21
-28.350031288878725
31
0.0
0
LINE
8
1
62
1
10
-1.0759416955552128
20
-28.350031288878725
30
0.0
11
-1.092612658696947
21
-28.450029966958013
31
0.0
0
LINE
8
1
62
1
10
-1.092612658696947
20
-28.450029966958013
30
0.0
11
-1.116423241262985
21
-28.571628064749397
31
0.0
0
LINE
8
1
62
1
10
-1.116423241262985
20
-28.571628064749397
30
0.0
11
-1.1486043682261153
21
-28.714484208526027
31
0.0
0
LINE
8
1
62
1
10
-1.1486043682261153
20
-28.714484208526027
30
0.0
11
-1.190372873448193
21
-28.87820480331292
31
0.0
0
LINE
8
1
62
1
10
-1.190372873448193
20
-28.87820480331292
30
0.0
11
-1.2429295343326292
21
-29.0623445707203
31
0.0
0
LINE
8
1
62
1
10
-1.2429295343326292
20
-29.0623445707203
30
0.0
11
-1.3074571260165513
21
-29.266407156055603
31
0.0
0
LINE
8
1
62
1
10
-1.3074571260165513
20
-29.266407156055603
30
0.0
11
-1.3851184974457016
21
-29.489845804028334
31
0.0
0
LINE
8
1
62
1
10
-1.3851184974457016
20
-29.489845804028334
30
0.0
11
-1.4770546716516595
21
-29.732064102284617
31
0.0
0
LINE
8
1
62
1
10
-1.4770546716516595
20
-29.732064102284617
30
0.0
11
-1.5843829725250094
21
-29.99241679193252
31
0.0
0
LINE
8
1
62
1
10
-1.5843829725250094
20
-29.99241679193252
30
0.0
11
-1.7081951803496898
21
-30.27021064414326
31
0.0
0
LINE
8
1
62
1
10
-1.7081951803496898
20
-30.27021064414326
30
0.0
11
-1.8495557183328908
21
-30.564705401839607
31
0.0
0
LINE
8
1
62
1
10
-1.8495557183328908
20
-30.564705401839607
30
0.0
11
-2.009499872331673
21
-30.875114785409053
31
0.0
0
LINE
8
1
62
1
10
-2.009499872331673
20
-30.875114785409053
30
0.0
11
-2.1890320459419064
21
-31.200607561307
31
0.0
0
LINE
8
1
62
1
10
-2.1890320459419064
20
-31.200607561307
30
0.0
11
-2.3891240530771114
21
-31.540308672344267
31
0.0
0
LINE
8
1
62
1
10
-2.3891240530771114
20
-31.540308672344267
30
0.0
11
-2.6107134501247935
21
-31.89330042838339
31
0.0
0
LINE
8
1
62
1
10
-2.6107134501247935
20
-31.89330042838339
30
0.0
11
-4.077326920380907
21
-31.73915314116178
31
0.0
0
LINE
8
1
62
1
10
-4.077326920380907
20
-31.73915314116178
30
0.0
11
-4.220682944608325
21
-31.34780407570583
31
0.0
0
LINE
8
1
62
1
10
-4.220682944608325
20
-31.34780407570583
30
0.0
11
-4.345774628945207
21
-30.973924781455512
31
0.0
0
LINE
8
1
62
1
10
-4.345774628945207
20
-30.973924781455512
30
0.0
11
-4.453709840430674
21
-30.61821796588326
31
0.0
0
LINE
8
1
62
1
10
-4.453709840430674
20
-30.61821796588326
30
0.0
11
-4.545621091132359
21
-30.281337512605248
31
0.0
0
LINE
8
1
62
1
10
-4.545621091132359
20
-30.281337512605248
30
0.0
11
-4.6226636591894525
21
-29.963887663468885
31
0.0
0
LINE
8
1
62
1
10
-4.6226636591894525
20
-29.963887663468885
30
0.0
11
-4.686013683702806
21
-29.66642226795764
31
0.0
0
LINE
8
1
62
1
10
-4.686013683702806
20
-29.66642226795764
30
0.0
11
-4.736866235779262
21
-29.389444100726774
31
0.0
0
LINE
8
1
62
1
10
-4.736866235779262
20
-29.389444100726774
30
0.0
11
-4.776433368062001
21
-29.13340424800709
31
0.0
0
LINE
8
1
62
1
10
-4.776433368062001
20
-29.13340424800709
30
0.0
11
-4.805942145101078
21
-28.898701563536296
31
0.0
0
LINE
8
1
62
1
10
-4.805942145101078
20
-28.898701563536296
30
0.0
11
-4.82663265693813
21
-28.685682194599632
31
0.0
0
LINE
8
1
62
1
10
-4.82663265693813
20
-28.685682194599632
30
0.0
11
-4.839756018296364
21
-28.4946391786822
31
0.0
0
LINE
8
1
62
1
10
-4.839756018296364
20
-28.4946391786822
30
0.0
11
-4.8465723557817455
21
-28.325812111157042
31
0.0
0
LINE
8
1
62
1
10
-4.8465723557817455
20
-28.325812111157042
30
0.0
11
-4.848348785513338
21
-28.179386884352525
31
0.0
0
LINE
8
1
62
1
10
-4.848348785513338
20
-28.179386884352525
30
0.0
11
-4.846357383610353
21
-28.055495498263426
31
0.0
0
LINE
8
1
62
1
10
-4.846357383610353
20
-28.055495498263426
30
0.0
11
-4.841873151970355
21
-27.954215943089256
31
0.0
0
LINE
8
1
62
1
10
-4.841873151970355
20
-27.954215943089256
30
0.0
11
-4.836171981777503
21
-27.87557215370345
31
0.0
0
LINE
8
1
62
1
10
-4.836171981777503
20
-27.87557215370345
30
0.0
11
-4.830528617181383
21
-27.81953403607627
31
0.0
0
LINE
8
1
62
1
10
-4.830528617181383
20
-27.81953403607627
30
0.0
11
-4.826214621586228
21
-27.78601756559396
31
0.0
0
LINE
8
1
62
1
10
-4.826214621586228
20
-27.78601756559396
30
0.0
11
-4.824496348986827
21
-27.774884957136237
31
0.0
0
LINE
8
1
62
1
10
-4.824496348986827
20
-27.774884957136237
30
0.0
11
-4.723392035744334
21
-27.192821988103166
31
0.0
0
LINE
8
1
62
1
10
-4.723392035744334
20
-27.192821988103166
30
0.0
11
-6.74528379227941
21
-26.76305562826511
31
0.0
0
LINE
8
1
62
1
10
-6.74528379227941
20
-26.76305562826511
30
0.0
11
-6.889666744251902
21
-27.335919438655974
31
0.0
0
LINE
8
1
62
1
10
-6.889666744251902
20
-27.335919438655974
30
0.0
11
-6.892625063916497
21
-27.346788466973205
31
0.0
0
LINE
8
1
62
1
10
-6.892625063916497
20
-27.346788466973205
30
0.0
11
-6.902316409527978
21
-27.379161946425153
31
0.0
0
LINE
8
1
62
1
10
-6.902316409527978
20
-27.379161946425153
30
0.0
11
-6.919953695283339
21
-27.432650677409786
31
0.0
0
LINE
8
1
62
1
10
-6.919953695283339
20
-27.432650677409786
30
0.0
11
-6.946732728043953
21
-27.50681422880083
31
0.0
0
LINE
8
1
62
1
10
-6.946732728043953
20
-27.50681422880083
30
0.0
11
-6.983830284881967
21
-27.601161607706285
31
0.0
0
LINE
8
1
62
1
10
-6.983830284881967
20
-27.601161607706285
30
0.0
11
-7.032402215203041
21
-27.715151996834063
31
0.0
0
LINE
8
1
62
1
10
-7.032402215203041
20
-27.715151996834063
30
0.0
11
-7.093581569727242
21
-27.848195558599926
31
0.0
0
LINE
8
1
62
1
10
-7.093581569727242
20
-27.848195558599926
30
0.0
11
-7.168476758580286
21
-27.999654305037783
31
0.0
0
LINE
8
1
62
1
10
-7.168476758580286
20
-27.999654305037783
30
0.0
11
-7.258169740715435
21
-28.168843032498774
31
0.0
0
LINE
8
1
62
1
10
-7.258169740715435
20
-28.168843032498774
30
0.0
11
-7.363714246851901
21
-28.355030320052638
31
0.0
0
LINE
8
1
62
1
10
-7.363714246851901
20
-28.355030320052638
30
0.0
11
-7.486134038079064
21
-28.557439590433308
31
0.0
0
LINE
8
1
62
1
10
-7.486134038079064
20
-28.557439590433308
30
0.0
11
-7.626421202236732
21
-28.77525023230004
31
0.0
0
LINE
8
1
62
1
10
-7.626421202236732
20
-28.77525023230004
30
0.0
11
-7.785534490140483
21
-29.007598782516556
31
0.0
0
LINE
8
1
62
1
10
-7.785534490140483
20
-29.007598782516556
30
0.0
11
-7.964397693677662
21
-29.253580167082376
31
0.0
0
LINE
8
1
62
1
10
-7.964397693677662
20
-29.253580167082376
30
0.0
11
-8.163898067753985
21
-29.51224899928475
31
0.0
0
LINE
8
1
62
1
10
-8.163898067753985
20
-29.51224899928475
30
0.0
11
-8.384884798022913
21
-29.782620933574165
31
0.0
0
LINE
8
1
62
1
10
-8.384884798022913
20
-29.782620933574165
30
0.0
11
-8.628167516280197
21
-30.06367407360343
31
0.0
0
LINE
8
1
62
1
10
-8.628167516280197
20
-30.06367407360343
30
0.0
11
-8.894514865353939
21
-30.354350432808545
31
0.0
0
LINE
8
1
62
1
10
-8.894514865353939
20
-30.354350432808545
30
0.0
11
-9.184653115267004
21
-30.653557445849557
31
0.0
0
LINE
8
1
62
1
10
-9.184653115267004
20
-30.653557445849557
30
0.0
11
-10.587168539280686
21
-30.197852560317063
31
0.0
0
LINE
8
1
62
1
10
-10.587168539280686
20
-30.197852560317063
30
0.0
11
-10.646025844530573
21
-29.785250017505874
31
0.0
0
LINE
8
1
62
1
10
-10.646025844530573
20
-29.785250017505874
30
0.0
11
-10.690650099207112
21
-29.393532859273154
31
0.0
0
LINE
8
1
62
1
10
-10.690650099207112
20
-29.393532859273154
30
0.0
11
-10.722271061895292
21
-29.02315809873778
31
0.0
0
LINE
8
1
62
1
10
-10.722271061895292
20
-29.02315809873778
30
0.0
11
-10.742132446605103
21
-28.674529868091213
31
0.0
0
LINE
8
1
62
1
10
-10.742132446605103
20
-28.674529868091213
30
0.0
11
-10.751489914820734
21
-28.347999009215474
31
0.0
0
LINE
8
1
62
1
10
-10.751489914820734
20
-28.347999009215474
30
0.0
11
-10.751609055964384
21
-28.043862735584906
31
0.0
0
LINE
8
1
62
1
10
-10.751609055964384
20
-28.043862735584906
30
0.0
11
-10.743763358700585
21
-27.76236436576777
31
0.0
0
LINE
8
1
62
1
10
-10.743763358700585
20
-27.76236436576777
30
0.0
11
-10.729232175515184
21
-27.503693128764056
31
0.0
0
LINE
8
1
62
1
10
-10.729232175515184
20
-27.503693128764056
30
0.0
11
-10.709298683008756
21
-27.267984041335012
31
0.0
0
LINE
8
1
62
1
10
-10.709298683008756
20
-27.267984041335012
30
0.0
11
-10.68524784034757
21
-27.055317857399853
31
0.0
0
LINE
8
1
62
1
10
-10.68524784034757
20
-27.055317857399853
30
0.0
11
-10.658364348315372
21
-26.865721089494066
31
0.0
0
LINE
8
1
62
1
10
-10.658364348315372
20
-26.865721089494066
30
0.0
11
-10.629930611407529
21
-26.699166102203638
31
0.0
0
LINE
8
1
62
1
10
-10.629930611407529
20
-26.699166102203638
30
0.0
11
-10.601224705404057
21
-26.55557127740878
31
0.0
0
LINE
8
1
62
1
10
-10.601224705404057
20
-26.55557127740878
30
0.0
11
-10.573518352851014
21
-26.43480125109089
31
0.0
0
LINE
8
1
62
1
10
-10.573518352851014
20
-26.43480125109089
30
0.0
11
-10.548074908869685
21
-26.33666722137618
31
0.0
0
LINE
8
1
62
1
10
-10.548074908869685
20
-26.33666722137618
30
0.0
11
-10.526147359700653
21
-26.26092732741028
31
0.0
0
LINE
8
1
62
1
10
-10.526147359700653
20
-26.26092732741028
30
0.0
11
-10.50897633637478
21
-26.207287098578693
31
0.0
0
LINE
8
1
62
1
10
-10.50897633637478
20
-26.207287098578693
30
0.0
11
-10.497788145885583
21
-26.175399973509723
31
0.0
0
LINE
8
1
62
1
10
-10.497788145885583
20
-26.175399973509723
30
0.0
11
-10.493792822217415
21
-26.16486788821832
31
0.0
0
LINE
8
1
62
1
10
-10.493792822217415
20
-26.16486788821832
30
0.0
11
-10.27388018474136
21
-25.616545160297843
31
0.0
0
LINE
8
1
62
1
10
-10.27388018474136
20
-25.616545160297843
30
0.0
11
-12.162235304809089
21
-24.77579529279445
31
0.0
0
LINE
8
1
62
1
10
-12.162235304809089
20
-24.77579529279445
30
0.0
11
-12.422568226294514
21
-25.306121750805637
31
0.0
0
LINE
8
1
62
1
10
-12.422568226294514
20
-25.306121750805637
30
0.0
11
-12.427721697631624
21
-25.316138195533
31
0.0
0
LINE
8
1
62
1
10
-12.427721697631624
20
-25.316138195533
30
0.0
11
-12.443932088939883
21
-25.345789292733944
31
0.0
0
LINE
8
1
62
1
10
-12.443932088939883
20
-25.345789292733944
30
0.0
11
-12.472304890183658
21
-25.39444216871003
31
0.0
0
LINE
8
1
62
1
10
-12.472304890183658
20
-25.39444216871003
30
0.0
11
-12.513918206195186
21
-25.461417394585354
31
0.0
0
LINE
8
1
62
1
10
-12.513918206195186
20
-25.461417394585354
30
0.0
11
-12.569821015481832
21
-25.545990041129844
31
0.0
0
LINE
8
1
62
1
10
-12.569821015481832
20
-25.545990041129844
30
0.0
11
-12.641031467128933
21
-25.647390794602554
31
0.0
0
LINE
8
1
62
1
10
-12.641031467128933
20
-25.647390794602554
30
0.0
11
-12.72853521785038
21
-25.76480713229465
31
0.0
0
LINE
8
1
62
1
10
-12.72853521785038
20
-25.76480713229465
30
0.0
11
-12.833283811194523
21
-25.897384556384438
31
0.0
0
LINE
8
1
62
1
10
-12.833283811194523
20
-25.897384556384438
30
0.0
11
-12.956193100866399
21
-26.044227884651406
31
0.0
0
LINE
8
1
62
1
10
-12.956193100866399
20
-26.044227884651406
30
0.0
11
-13.098141720078512
21
-26.204402596531995
31
0.0
0
LINE
8
1
62
1
10
-13.098141720078512
20
-26.204402596531995
30
0.0
11
-13.259969598791733
21
-26.37693623293753
31
0.0
0
LINE
8
1
62
1
10
-13.259969598791733
20
-26.37693623293753
30
0.0
11
-13.442476530654918
21
-26.560819848193713
31
0.0
0
LINE
8
1
62
1
10
-13.442476530654918
20
-26.560819848193713
30
0.0
11
-13.646420791397409
21
-26.755009512402335
31
0.0
0
LINE
8
1
62
1
10
-13.646420791397409
20
-26.755009512402335
30
0.0
11
-13.872517810371635
21
-26.958427862468078
31
0.0
0
LINE
8
1
62
1
10
-13.872517810371635
20
-26.958427862468078
30
0.0
11
-14.12143889688494
21
-27.169965699978466
31
0.0
0
LINE
8
1
62
1
10
-14.12143889688494
20
-27.169965699978466
30
0.0
11
-14.393810022899281
21
-27.388483634070905
31
0.0
0
LINE
8
1
62
1
10
-14.393810022899281
20
-27.388483634070905
30
0.0
11
-14.690210663615765
21
-27.612813767369627
31
0.0
0
LINE
8
1
62
1
10
-14.690210663615765
20
-27.612813767369627
30
0.0
11
-15.011172697397143
21
-27.8417614230254
31
0.0
0
LINE
8
1
62
1
10
-15.011172697397143
20
-27.8417614230254
30
0.0
11
-15.357179366416599
21
-28.074106910843856
31
0.0
0
LINE
8
1
62
1
10
-15.357179366416599
20
-28.074106910843856
30
0.0
11
-16.63430009014274
21
-27.33676091721292
31
0.0
0
LINE
8
1
62
1
10
-16.63430009014274
20
-27.33676091721292
30
0.0
11
-16.606086329746994
21
-26.920937608054007
31
0.0
0
LINE
8
1
62
1
10
-16.606086329746994
20
-26.920937608054007
30
0.0
11
-16.568292860702893
21
-26.528502505321132
31
0.0
0
LINE
8
1
62
1
10
-16.568292860702893
20
-26.528502505321132
30
0.0
11
-16.522217586790095
21
-26.159646954113313
31
0.0
0
LINE
8
1
62
1
10
-16.522217586790095
20
-26.159646954113313
30
0.0
11
-16.469161067690717
21
-25.814507672681298
31
0.0
0
LINE
8
1
62
1
10
-16.469161067690717
20
-25.814507672681298
30
0.0
11
-16.410424469801754
21
-25.493166769467962
31
0.0
0
LINE
8
1
62
1
10
-16.410424469801754
20
-25.493166769467962
30
0.0
11
-16.347307520536017
21
-25.195651832283477
31
0.0
0
LINE
8
1
62
1
10
-16.347307520536017
20
-25.195651832283477
30
0.0
11
-16.281106468550227
21
-24.92193608942013
31
0.0
0
LINE
8
1
62
1
10
-16.281106468550227
20
-24.92193608942013
30
0.0
11
-16.21311205233024
21
-24.671938642431762
31
0.0
0
LINE
8
1
62
1
10
-16.21311205233024
20
-24.671938642431762
30
0.0
11
-16.14460747955235
21
-24.4455247702228
31
0.0
0
LINE
8
1
62
1
10
-16.14460747955235
20
-24.4455247702228
30
0.0
11
-16.07686641962596
21
-24.242506304012693
31
0.0
0
LINE
8
1
62
1
10
-16.07686641962596
20
-24.242506304012693
30
0.0
11
-16.011151011806447
21
-24.062642072662264
31
0.0
0
LINE
8
1
62
1
10
-16.011151011806447
20
-24.062642072662264
30
0.0
11
-15.94870989124846
21
-23.905638417770653
31
0.0
0
LINE
8
1
62
1
10
-15.94870989124846
20
-23.905638417770653
30
0.0
11
-15.890776235348495
21
-23.771149777873415
31
0.0
0
LINE
8
1
62
1
10
-15.890776235348495
20
-23.771149777873415
30
0.0
11
-15.838565832701793
21
-23.658779340995707
31
0.0
0
LINE
8
1
62
1
10
-15.838565832701793
20
-23.658779340995707
30
0.0
11
-15.793275176972307
21
-23.568079764738307
31
0.0
0
LINE
8
1
62
1
10
-15.793275176972307
20
-23.568079764738307
30
0.0
11
-15.756079587945838
21
-23.498553962998947
31
0.0
0
LINE
8
1
62
1
10
-15.756079587945838
20
-23.498553962998947
30
0.0
11
-15.728131362005263
21
-23.449655958357276
31
0.0
0
LINE
8
1
62
1
10
-15.728131362005263
20
-23.449655958357276
30
0.0
11
-15.710557954233295
21
-23.420791799078565
31
0.0
0
LINE
8
1
62
1
10
-15.710557954233295
20
-23.420791799078565
30
0.0
11
-15.70446019431235
21
-23.41132053961927
31
0.0
0
LINE
8
1
62
1
10
-15.70446019431235
20
-23.41132053961927
30
0.0
11
-15.375350470118352
21
-22.920702387165875
31
0.0
0
LINE
8
1
62
1
10
-15.375350470118352
20
-22.920702387165875
30
0.0
11
-17.047638773638567
21
-21.7057138155725
31
0.0
0
LINE
8
1
62
1
10
-17.047638773638567
20
-21.7057138155725
30
0.0
11
-17.412543866752056
21
-22.170325110200242
31
0.0
0
LINE
8
1
62
1
10
-17.412543866752056
20
-22.170325110200242
30
0.0
11
-17.41966725833515
21
-22.179051204638917
31
0.0
0
LINE
8
1
62
1
10
-17.41966725833515
20
-22.179051204638917
30
0.0
11
-17.44168822345393
21
-22.204684024359427
31
0.0
0
LINE
8
1
62
1
10
-17.44168822345393
20
-22.204684024359427
30
0.0
11
-17.47955651262396
21
-22.246374681184403
31
0.0
0
LINE
8
1
62
1
10
-17.47955651262396
20
-22.246374681184403
30
0.0
11
-17.534185410293855
21
-22.303234442790465
31
0.0
0
LINE
8
1
62
1
10
-17.534185410293855
20
-22.303234442790465
30
0.0
11
-17.606450251011864
21
-22.374336126495418
31
0.0
0
LINE
8
1
62
1
10
-17.606450251011864
20
-22.374336126495418
30
0.0
11
-17.697186985542352
21
-22.458715544811508
31
0.0
0
LINE
8
1
62
1
10
-17.697186985542352
20
-22.458715544811508
30
0.0
11
-17.807190798664937
21
-22.55537300104659
31
0.0
0
LINE
8
1
62
1
10
-17.807190798664937
20
-22.55537300104659
30
0.0
11
-17.937214780331523
21
-22.663274833178523
31
0.0
0
LINE
8
1
62
1
10
-17.937214780331523
20
-22.663274833178523
30
0.0
11
-18.087968651797258
21
-22.781355004173733
31
0.0
0
LINE
8
1
62
1
10
-18.087968651797258
20
-22.781355004173733
30
0.0
11
-18.260117548280405
21
-22.908516736868325
31
0.0
0
LINE
8
1
62
1
10
-18.260117548280405
20
-22.908516736868325
30
0.0
11
-18.45428085964359
21
-23.04363419147956
31
0.0
0
LINE
8
1
62
1
10
-18.45428085964359
20
-23.04363419147956
30
0.0
11
-18.67103113052445
21
-23.185554183767017
31
0.0
0
LINE
8
1
62
1
10
-18.67103113052445
20
-23.185554183767017
30
0.0
11
-18.910893021278095
21
-23.333097941816433
31
0.0
0
LINE
8
1
62
1
10
-18.910893021278095
20
-23.333097941816433
30
0.0
11
-19.17434233102633
21
-23.485062899374682
31
0.0
0
LINE
8
1
62
1
10
-19.17434233102633
20
-23.485062899374682
30
0.0
11
-19.461805084040083
21
-23.64022452362271
31
0.0
0
LINE
8
1
62
1
10
-19.461805084040083
20
-23.64022452362271
30
0.0
11
-19.773656680611342
21
-23.797338175232962
31
0.0
0
LINE
8
1
62
1
10
-19.773656680611342
20
-23.797338175232962
30
0.0
11
-20.110221113499644
21
-23.955140998520566
31
0.0
0
LINE
8
1
62
1
10
-20.110221113499644
20
-23.955140998520566
30
0.0
11
-20.471770250965694
21
-24.112353839462095
31
0.0
0
LINE
8
1
62
1
10
-20.471770250965694
20
-24.112353839462095
30
0.0
11
-20.858523187331187
21
-24.267683189322995
31
0.0
0
LINE
8
1
62
1
10
-20.858523187331187
20
-24.267683189322995
30
0.0
11
-21.954432906837823
21
-23.280921645693905
31
0.0
0
LINE
8
1
62
1
10
-21.954432906837823
20
-23.280921645693905
30
0.0
11
-21.840381157510382
21
-22.880051044139126
31
0.0
0
LINE
8
1
62
1
10
-21.840381157510382
20
-22.880051044139126
30
0.0
11
-21.721821720696052
21
-22.50404929400807
31
0.0
0
LINE
8
1
62
1
10
-21.721821720696052
20
-22.50404929400807
30
0.0
11
-21.600063920745967
21
-22.152833709680895
31
0.0
0
LINE
8
1
62
1
10
-21.600063920745967
20
-22.152833709680895
30
0.0
11
-21.47640832231546
21
-21.826267620224037
31
0.0
0
LINE
8
1
62
1
10
-21.47640832231546
20
-21.826267620224037
30
0.0
11
-21.352144729499116
21
-21.524160812108256
31
0.0
0
LINE
8
1
62
1
10
-21.352144729499116
20
-21.524160812108256
30
0.0
11
-21.228550203375633
21
-21.24627004175988
31
0.0
0
LINE
8
1
62
1
10
-21.228550203375633
20
-21.24627004175988
30
0.0
11
-21.106887100307517
21
-20.992299617247305
31
0.0
0
LINE
8
1
62
1
10
-21.106887100307517
20
-20.992299617247305
30
0.0
11
-20.98840113331517
21
-20.761902048328523
31
0.0
0
LINE
8
1
62
1
10
-20.98840113331517
20
-20.761902048328523
30
0.0
11
-20.87431945881762
21
-20.554678764009477
31
0.0
0
LINE
8
1
62
1
10
-20.87431945881762
20
-20.554678764009477
30
0.0
11
-20.765848791002487
21
-20.370180896688485
31
0.0
0
LINE
8
1
62
1
10
-20.765848791002487
20
-20.370180896688485
30
0.0
11
-20.66417354605488
21
-20.207910131887765
31
0.0
0
LINE
8
1
62
1
10
-20.66417354605488
20
-20.207910131887765
30
0.0
11
-20.570454018440877
21
-20.067319622500865
31
0.0
0
LINE
8
1
62
1
10
-20.570454018440877
20
-20.067319622500865
30
0.0
11
-20.48582459140377
21
-19.947814966412842
31
0.0
0
LINE
8
1
62
1
10
-20.48582459140377
20
-19.947814966412842
30
0.0
11
-20.41139198379238
21
-19.848755246280056
31
0.0
0
LINE
8
1
62
1
10
-20.41139198379238
20
-19.848755246280056
30
0.0
11
-20.34823353529879
21
-19.769454130187274
31
0.0
0
LINE
8
1
62
1
10
-20.34823353529879
20
-19.769454130187274
30
0.0
11
-20.29739553213958
21
-19.70918103183228
31
0.0
0
LINE
8
1
62
1
10
-20.29739553213958
20
-19.70918103183228
30
0.0
11
-20.259891575168375
21
-19.667162328822016
31
0.0
0
LINE
8
1
62
1
10
-20.259891575168375
20
-19.667162328822016
30
0.0
11
-20.236700992359836
21
-19.642582637599645
31
0.0
0
LINE
8
1
62
1
10
-20.236700992359836
20
-19.642582637599645
30
0.0
11
-20.22876729755496
21
-19.634586143458975
31
0.0
0
LINE
8
1
62
1
10
-20.22876729755496
20
-19.634586143458975
30
0.0
11
-19.804844160833962
21
-19.22311493398198
31
0.0
0
LINE
8
1
62
1
10
-19.804844160833962
20
-19.22311493398198
30
0.0
11
-21.187978624413244
21
-17.68698848903927
31
0.0
0
LINE
8
1
62
1
10
-21.187978624413244
20
-17.68698848903927
30
0.0
11
-21.641507785576835
21
-18.06557887725598
31
0.0
0
LINE
8
1
62
1
10
-21.641507785576835
20
-18.06557887725598
30
0.0
11
-21.650289771011902
21
-18.072633249206547
31
0.0
0
LINE
8
1
62
1
10
-21.650289771011902
20
-18.072633249206547
30
0.0
11
-21.6771588880972
21
-18.09312751422492
31
0.0
0
LINE
8
1
62
1
10
-21.6771588880972
20
-18.09312751422492
30
0.0
11
-21.72286763924454
21
-18.126033870141573
31
0.0
0
LINE
8
1
62
1
10
-21.72286763924454
20
-18.126033870141573
30
0.0
11
-21.788124573606094
21
-18.170293123052783
31
0.0
0
LINE
8
1
62
1
10
-21.788124573606094
20
-18.170293123052783
30
0.0
11
-21.87359312545091
21
-18.224816359156556
31
0.0
0
LINE
8
1
62
1
10
-21.87359312545091
20
-18.224816359156556
30
0.0
11
-21.979890512162644
21
-18.288486656838238
31
0.0
0
LINE
8
1
62
1
10
-21.979890512162644
20
-18.288486656838238
30
0.0
11
-22.107586693196048
21
-18.360160836964898
31
0.0
0
LINE
8
1
62
1
10
-22.107586693196048
20
-18.360160836964898
30
0.0
11
-22.257203391261964
21
-18.43867124930437
31
0.0
0
LINE
8
1
62
1
10
-22.257203391261964
20
-18.43867124930437
30
0.0
11
-22.42921317694117
21
-18.522827592943813
31
0.0
0
LINE
8
1
62
1
10
-22.42921317694117
20
-18.522827592943813
30
0.0
11
-22.62403861785698
21
-18.611418768543956
31
0.0
0
LINE
8
1
62
1
10
-22.62403861785698
20
-18.611418768543956
30
0.0
11
-22.842051493464623
21
-18.7032147602289
31
0.0
0
LINE
8
1
62
1
10
-22.842051493464623
20
-18.7032147602289
30
0.0
11
-23.083572076442465
21
-18.796968544876993
31
0.0
0
LINE
8
1
62
1
10
-23.083572076442465
20
-18.796968544876993
30
0.0
11
-23.34886848159628
21
-18.891418026546944
31
0.0
0
LINE
8
1
62
1
10
-23.34886848159628
20
-18.891418026546944
30
0.0
11
-23.638156083112477
21
-18.985287993743633
31
0.0
0
LINE
8
1
62
1
10
-23.638156083112477
20
-18.985287993743633
30
0.0
11
-23.951597000920653
21
-19.077292097201582
31
0.0
0
LINE
8
1
62
1
10
-23.951597000920653
20
-19.077292097201582
30
0.0
11
-24.289299656848673
21
-19.16613484583933
31
0.0
0
LINE
8
1
62
1
10
-24.289299656848673
20
-19.16613484583933
30
0.0
11
-24.651318401176244
21
-19.25051361851619
31
0.0
0
LINE
8
1
62
1
10
-24.651318401176244
20
-19.25051361851619
30
0.0
11
-25.037653210114453
21
-19.329120689203428
31
0.0
0
LINE
8
1
62
1
10
-25.037653210114453
20
-19.329120689203428
30
0.0
11
-25.448249454660314
21
-19.40064526316492
31
0.0
0
LINE
8
1
62
1
10
-25.448249454660314
20
-19.40064526316492
30
0.0
11
-26.315051656446727
21
-18.2075943840015
31
0.0
0
LINE
8
1
62
1
10
-26.315051656446727
20
-18.2075943840015
30
0.0
11
-26.120146526914205
21
-17.83919645892937
31
0.0
0
LINE
8
1
62
1
10
-26.120146526914205
20
-17.83919645892937
30
0.0
11
-25.926002738629734
21
-17.49606114213743
31
0.0
0
LINE
8
1
62
1
10
-25.926002738629734
20
-17.49606114213743
30
0.0
11
-25.73388381275892
21
-17.177835331045358
31
0.0
0
LINE
8
1
62
1
10
-25.73388381275892
20
-17.177835331045358
30
0.0
11
-25.5450334780141
21
-16.88411493871088
31
0.0
0
LINE
8
1
62
1
10
-25.5450334780141
20
-16.88411493871088
30
0.0
11
-25.36067380555932
21
-16.614445742876615
31
0.0
0
LINE
8
1
62
1
10
-25.36067380555932
20
-16.614445742876615
30
0.0
11
-25.182003376442022
21
-16.368324299496436
31
0.0
0
LINE
8
1
62
1
10
-25.182003376442022
20
-16.368324299496436
30
0.0
11
-25.010195483700002
21
-16.145198919571143
31
0.0
0
LINE
8
1
62
1
10
-25.010195483700002
20
-16.145198919571143
30
0.0
11
-24.846396371251604
21
-15.94447070805389
31
0.0
0
LINE
8
1
62
1
10
-24.846396371251604
20
-15.94447070805389
30
0.0
11
-24.69172351163455
21
-15.765494663517142
31
0.0
0
LINE
8
1
62
1
10
-24.69172351163455
20
-15.765494663517142
30
0.0
11
-24.54726392461421
21
-15.607580837206186
31
0.0
0
LINE
8
1
62
1
10
-24.54726392461421
20
-15.607580837206186
30
0.0
11
-24.414072538634674
21
-15.469995550038488
31
0.0
0
LINE
8
1
62
1
10
-24.414072538634674
20
-15.469995550038488
30
0.0
11
-24.29317059703757
21
-15.35196266604462
31
0.0
0
LINE
8
1
62
1
10
-24.29317059703757
20
-15.35196266604462
30
0.0
11
-24.185544110921896
21
-15.252664920683824
31
0.0
0
LINE
8
1
62
1
10
-24.185544110921896
20
-15.252664920683824
30
0.0
11
-24.092142360465708
21
-15.171245302407035
31
0.0
0
LINE
8
1
62
1
10
-24.092142360465708
20
-15.171245302407035
30
0.0
11
-24.01387644647505
21
-15.106808485781093
31
0.0
0
LINE
8
1
62
1
10
-24.01387644647505
20
-15.106808485781093
30
0.0
11
-23.951617893868956
21
-15.058422314430997
31
0.0
0
LINE
8
1
62
1
10
-23.951617893868956
20
-15.058422314430997
30
0.0
11
-23.906197308750716
21
-15.0251193320018
31
0.0
0
LINE
8
1
62
1
10
-23.906197308750716
20
-15.0251193320018
30
0.0
11
-23.878403090655105
21
-15.005898359288635
31
0.0
0
LINE
8
1
62
1
10
-23.878403090655105
20
-15.005898359288635
30
0.0
11
-23.868980201499358
21
-14.999726115631969
31
0.0
0
LINE
8
1
62
1
10
-23.868980201499358
20
-14.999726115631969
30
0.0
11
-23.368771127534977
21
-14.685385115443436
31
0.0
0
LINE
8
1
62
1
10
-23.368771127534977
20
-14.685385115443436
30
0.0
11
-24.40230213809938
21
-12.895256893947892
31
0.0
0
LINE
8
1
62
1
10
-24.40230213809938
20
-12.895256893947892
30
0.0
11
-24.924633966695847
21
-13.171280159110268
31
0.0
0
LINE
8
1
62
1
10
-24.924633966695847
20
-13.171280159110268
30
0.0
11
-24.93469073107874
21
-13.176354498667857
31
0.0
0
LINE
8
1
62
1
10
-24.93469073107874
20
-13.176354498667857
30
0.0
11
-24.9652336907816
21
-13.190814511260397
31
0.0
0
LINE
8
1
62
1
10
-24.9652336907816
20
-13.190814511260397
30
0.0
11
-25.016785212146186
21
-13.21349840061295
31
0.0
0
LINE
8
1
62
1
10
-25.016785212146186
20
-13.21349840061295
30
0.0
11
-25.089818142030285
21
-13.243222803097625
31
0.0
0
LINE
8
1
62
1
10
-25.089818142030285
20
-13.243222803097625
30
0.0
11
-25.18475501916268
21
-13.278784664550976
31
0.0
0
LINE
8
1
62
1
10
-25.18475501916268
20
-13.278784664550976
30
0.0
11
-25.3019673521849
21
-13.318963144065572
31
0.0
0
LINE
8
1
62
1
10
-25.3019673521849
20
-13.318963144065572
30
0.0
11
-25.44177496526371
21
-13.362521542481403
31
0.0
0
LINE
8
1
62
1
10
-25.44177496526371
20
-13.362521542481403
30
0.0
11
-25.604445412082896
21
-13.408209253274427
31
0.0
0
LINE
8
1
62
1
10
-25.604445412082896
20
-13.408209253274427
30
0.0
11
-25.79019345894686
21
-13.45476373351411
31
0.0
0
LINE
8
1
62
1
10
-25.79019345894686
20
-13.45476373351411
30
0.0
11
-25.99918063765113
21
-13.500912492538456
31
0.0
0
LINE
8
1
62
1
10
-25.99918063765113
20
-13.500912492538456
30
0.0
11
-26.23151486869733
21
-13.545375095974435
31
0.0
0
LINE
8
1
62
1
10
-26.23151486869733
20
-13.545375095974435
30
0.0
11
-26.48725015535169
21
-13.586865182713469
31
0.0
0
LINE
8
1
62
1
10
-26.48725015535169
20
-13.586865182713469
30
0.0
11
-26.766386348967057
21
-13.624092492436079
31
0.0
0
LINE
8
1
62
1
10
-26.766386348967057
20
-13.624092492436079
30
0.0
11
-27.06886898590903
21
-13.655764901266636
31
0.0
0
LINE
8
1
62
1
10
-27.06886898590903
20
-13.655764901266636
30
0.0
11
-27.394589196347017
21
-13.680590463128723
31
0.0
0
LINE
8
1
62
1
10
-27.394589196347017
20
-13.680590463128723
30
0.0
11
-27.743383685090617
21
-13.69727945436369
31
0.0
0
LINE
8
1
62
1
10
-27.743383685090617
20
-13.69727945436369
30
0.0
11
-28.115034784571666
21
-13.70454641916956
31
0.0
0
LINE
8
1
62
1
10
-28.115034784571666
20
-13.70454641916956
30
0.0
11
-28.509270579991345
21
-13.701112213414893
31
0.0
0
LINE
8
1
62
1
10
-28.509270579991345
20
-13.701112213414893
30
0.0
11
-28.925765106571546
21
-13.685706044381883
31
0.0
0
LINE
8
1
62
1
10
-28.925765106571546
20
-13.685706044381883
30
0.0
11
-29.52557637504122
21
-12.338507877996857
31
0.0
0
LINE
8
1
62
1
10
-29.52557637504122
20
-12.338507877996857
30
0.0
11
-29.25833615472277
21
-12.0186833865024
31
0.0
0
LINE
8
1
62
1
10
-29.25833615472277
20
-12.0186833865024
30
0.0
11
-28.997093030121444
21
-11.723411162939318
31
0.0
0
LINE
8
1
62
1
10
-28.997093030121444
20
-11.723411162939318
30
0.0
11
-28.743009497279342
21
-11.452083120043934
31
0.0
0
LINE
8
1
62
1
10
-28.743009497279342
20
-11.452083120043934
30
0.0
11
-28.497218092053007
21
-11.204045415403664
31
0.0
0
LINE
8
1
62
1
10
-28.497218092053007
20
-11.204045415403664
30
0.0
11
-28.260819742301923
21
-10.978599669725249
31
0.0
0
LINE
8
1
62
1
10
-28.260819742301923
20
-10.978599669725249
30
0.0
11
-28.034882165299077
21
-10.775004241410695
31
0.0
0
LINE
8
1
62
1
10
-28.034882165299077
20
-10.775004241410695
30
0.0
11
-27.82043831222172
21
-10.592475555849783
31
0.0
0
LINE
8
1
62
1
10
-27.82043831222172
20
-10.592475555849783
30
0.0
11
-27.618484861526614
21
-10.430189487778186
31
0.0
0
LINE
8
1
62
1
10
-27.618484861526614
20
-10.430189487778186
30
0.0
11
-27.429980762958046
21
-10.287282794992342
31
0.0
0
LINE
8
1
62
1
10
-27.429980762958046
20
-10.287282794992342
30
0.0
11
-27.255845833879288
21
-10.162854601655818
31
0.0
0
LINE
8
1
62
1
10
-27.255845833879288
20
-10.162854601655818
30
0.0
11
-27.09695940955832
21
-10.055967929377829
31
0.0
0
LINE
8
1
62
1
10
-27.09695940955832
20
-10.055967929377829
30
0.0
11
-26.95415904897779
21
-9.965651274192139
31
0.0
0
LINE
8
1
62
1
10
-26.95415904897779
20
-9.965651274192139
30
0.0
11
-26.828239297675974
21
-9.890900227514283
31
0.0
0
LINE
8
1
62
1
10
-26.828239297675974
20
-9.890900227514283
30
0.0
11
-26.719950509061256
21
-9.830679139106865
31
0.0
0
LINE
8
1
62
1
10
-26.719950509061256
20
-9.830679139106865
30
0.0
11
-26.62999772557644
21
-9.783922820036471
31
0.0
0
LINE
8
1
62
1
10
-26.62999772557644
20
-9.783922820036471
30
0.0
11
-26.559039621022038
21
-9.74953828356188
31
0.0
0
LINE
8
1
62
1
10
-26.559039621022038
20
-9.74953828356188
30
0.0
11
-26.507687505278575
21
-9.726406521851345
31
0.0
0
LINE
8
1
62
1
10
-26.507687505278575
20
-9.726406521851345
30
0.0
11
-26.476504392598123
21
-9.713384316387408
31
0.0
0
LINE
8
1
62
1
10
-26.476504392598123
20
-9.713384316387408
30
0.0
11
-26.466004134563654
21
-9.709306079880257
31
0.0
0
LINE
8
1
62
1
10
-26.466004134563654
20
-9.709306079880257
30
0.0
11
-25.911370660157573
21
-9.505833499063899
31
0.0
0
LINE
8
1
62
1
10
-25.911370660157573
20
-9.505833499063899
30
0.0
11
-26.550127953113392
21
-7.539940694283135
31
0.0
0
LINE
8
1
62
1
10
-26.550127953113392
20
-7.539940694283135
30
0.0
11
-27.11843404180688
21
-7.701333295197
31
0.0
0
LINE
8
1
62
1
10
-27.11843404180688
20
-7.701333295197
30
0.0
11
-27.12932605627635
21
-7.704205829373561
31
0.0
0
LINE
8
1
62
1
10
-27.12932605627635
20
-7.704205829373561
30
0.0
11
-27.16220798469637
21
-7.711999617603137
31
0.0
0
LINE
8
1
62
1
10
-27.16220798469637
20
-7.711999617603137
30
0.0
11
-27.217349227422936
21
-7.723469645577507
31
0.0
0
LINE
8
1
62
1
10
-27.217349227422936
20
-7.723469645577507
30
0.0
11
-27.29496626334276
21
-7.7373600986135616
31
0.0
0
LINE
8
1
62
1
10
-27.29496626334276
20
-7.7373600986135616
30
0.0
11
-27.395222268674367
21
-7.752406361426229
31
0.0
0
LINE
8
1
62
1
10
-27.395222268674367
20
-7.752406361426229
30
0.0
11
-27.518226806606833
21
-7.767337030421219
31
0.0
0
LINE
8
1
62
1
10
-27.518226806606833
20
-7.767337030421219
30
0.0
11
-27.664035588168137
21
-7.780875936099061
31
0.0
0
LINE
8
1
62
1
10
-27.664035588168137
20
-7.780875936099061
30
0.0
11
-27.832650304635187
21
-7.79174417315002
31
0.0
0
LINE
8
1
62
1
10
-27.832650304635187
20
-7.79174417315002
30
0.0
11
-28.024018531717942
21
-7.798662135810292
31
0.0
0
LINE
8
1
62
1
10
-28.024018531717942
20
-7.798662135810292
30
0.0
11
-28.23803370566954
21
-7.8003515560431635
31
0.0
0
LINE
8
1
62
1
10
-28.23803370566954
20
-7.8003515560431635
30
0.0
11
-28.474535171394255
21
-7.795537542104785
31
0.0
0
LINE
8
1
62
1
10
-28.474535171394255
20
-7.795537542104785
30
0.0
11
-28.733308302544273
21
-7.782950615052733
31
0.0
0
LINE
8
1
62
1
10
-28.733308302544273
20
-7.782950615052733
30
0.0
11
-29.014084693516136
21
-7.761328740756677
31
0.0
0
LINE
8
1
62
1
10
-29.014084693516136
20
-7.761328740756677
30
0.0
11
-29.3165424231768
21
-7.729419354974124
31
0.0
0
LINE
8
1
62
1
10
-29.3165424231768
20
-7.729419354974124
30
0.0
11
-29.64030639006947
21
-7.685981379060716
31
0.0
0
LINE
8
1
62
1
10
-29.64030639006947
20
-7.685981379060716
30
0.0
11
-29.984948718768898
21
-7.629787223893269
31
0.0
0
LINE
8
1
62
1
10
-29.984948718768898
20
-7.629787223893269
30
0.0
11
-30.34998923697627
21
-7.5596247795953655
31
0.0
0
LINE
8
1
62
1
10
-30.34998923697627
20
-7.5596247795953655
30
0.0
11
-30.73489602286434
21
-7.474299388669419
31
0.0
0
LINE
8
1
62
1
10
-30.73489602286434
20
-7.474299388669419
30
0.0
11
-31.139086022104852
21
-7.372635800155652
31
0.0
0
LINE
8
1
62
1
10
-31.139086022104852
20
-7.372635800155652
30
0.0
11
-31.445691726611873
21
-5.930169370994081
31
0.0
0
LINE
8
1
62
1
10
-31.445691726611873
20
-5.930169370994081
30
0.0
11
-31.117796095496267
21
-5.672896178043787
31
0.0
0
LINE
8
1
62
1
10
-31.117796095496267
20
-5.672896178043787
30
0.0
11
-30.800871212706756
21
-5.438391860752601
31
0.0
0
LINE
8
1
62
1
10
-30.800871212706756
20
-5.438391860752601
30
0.0
11
-30.495927742506634
21
-5.22581992350483
31
0.0
0
LINE
8
1
62
1
10
-30.495927742506634
20
-5.22581992350483
30
0.0
11
-30.203937530645188
21
-5.034305344468513
31
0.0
0
LINE
8
1
62
1
10
-30.203937530645188
20
-5.034305344468513
30
0.0
11
-29.925832245847065
21
-4.862936109840801
31
0.0
0
LINE
8
1
62
1
10
-29.925832245847065
20
-4.862936109840801
30
0.0
11
-29.66250207724248
21
-4.71076479376848
31
0.0
0
LINE
8
1
62
1
10
-29.66250207724248
20
-4.71076479376848
30
0.0
11
-29.414794489225034
21
-4.576810182000764
31
0.0
0
LINE
8
1
62
1
10
-29.414794489225034
20
-4.576810182000764
30
0.0
11
-29.183513035158775
21
-4.4600589372845105
31
0.0
0
LINE
8
1
62
1
10
-29.183513035158775
20
-4.4600589372845105
30
0.0
11
-28.969416231289163
21
-4.3594673044667
31
0.0
0
LINE
8
1
62
1
10
-28.969416231289163
20
-4.3594673044667
30
0.0
11
-28.773216492144826
21
-4.2739628532261325
31
0.0
0
LINE
8
1
62
1
10
-28.773216492144826
20
-4.2739628532261325
30
0.0
11
-28.595579128646893
21
-4.202446256315559
31
0.0
0
LINE
8
1
62
1
10
-28.595579128646893
20
-4.202446256315559
30
0.0
11
-28.437121410072464
21
-4.143793101157059
31
0.0
0
LINE
8
1
62
1
10
-28.437121410072464
20
-4.143793101157059
30
0.0
11
-28.29841169094641
21
-4.096855732597285
31
0.0
0
LINE
8
1
62
1
10
-28.29841169094641
20
-4.096855732597285
30
0.0
11
-28.17996860386288
21
-4.060465124595483
31
0.0
0
LINE
8
1
62
1
10
-28.17996860386288
20
-4.060465124595483
30
0.0
11
-28.082260319163538
21
-4.033432778585726
31
0.0
0
LINE
8
1
62
1
10
-28.082260319163538
20
-4.033432778585726
30
0.0
11
-28.005703872324613
21
-4.014552646225888
31
0.0
0
LINE
8
1
62
1
10
-28.005703872324613
20
-4.014552646225888
30
0.0
11
-27.950664559828713
21
-4.002603074219276
31
0.0
0
LINE
8
1
62
1
10
-27.950664559828713
20
-4.002603074219276
30
0.0
11
-27.917455404220732
21
-3.996348768870816
31
0.0
0
LINE
8
1
62
1
10
-27.917455404220732
20
-3.996348768870816
30
0.0
11
-27.90633668896947
21
-3.9945427780180904
31
0.0
0
LINE
8
1
62
1
10
-27.90633668896947
20
-3.9945427780180904
30
0.0
11
-27.321518958379926
21
-3.910831344725351
31
0.0
0
LINE
8
1
62
1
10
-27.321518958379926
20
-3.910831344725351
30
0.0
11
-27.53758577492745
21
-1.8550929056285879
31
0.0
0
LINE
8
1
62
1
10
-27.53758577492745
20
-1.8550929056285879
30
0.0
11
-28.127028420606873
21
-1.8948012111863843
31
0.0
0
LINE
8
1
62
1
10
-28.127028420606873
20
-1.8948012111863843
30
0.0
11
-28.138279651864924
21
-1.8953463964544544
31
0.0
0
LINE
8
1
62
1
10
-28.138279651864924
20
-1.8953463964544544
30
0.0
11
-28.172063450945156
21
-1.896133334376686
31
0.0
0
LINE
8
1
62
1
10
-28.172063450945156
20
-1.896133334376686
30
0.0
11
-28.228384478129502
21
-1.8958882057110928
31
0.0
0
LINE
8
1
62
1
10
-28.228384478129502
20
-1.8958882057110928
30
0.0
11
-28.3071933831675
21
-1.8933376298470619
31
0.0
0
LINE
8
1
62
1
10
-28.3071933831675
20
-1.8933376298470619
30
0.0
11
-28.408386848183635
21
-1.887210700134155
31
0.0
0
LINE
8
1
62
1
10
-28.408386848183635
20
-1.887210700134155
30
0.0
11
-28.531807702477437
21
-1.876241016729159
31
0.0
0
LINE
8
1
62
1
10
-28.531807702477437
20
-1.876241016729159
30
0.0
11
-28.677245109098852
21
-1.8591687145240137
31
0.0
0
LINE
8
1
62
1
10
-28.677245109098852
20
-1.8591687145240137
30
0.0
11
-28.84443482300098
21
-1.8347424837221928
31
0.0
0
LINE
8
1
62
1
10
-28.84443482300098
20
-1.8347424837221928
30
0.0
11
-29.03305952049237
21
-1.8017215806387328
31
0.0
0
LINE
8
1
62
1
10
-29.03305952049237
20
-1.8017215806387328
30
0.0
11
-29.242749199630868
21
-1.7588778263092124
31
0.0
0
LINE
8
1
62
1
10
-29.242749199630868
20
-1.7588778263092124
30
0.0
11
-29.473081651121976
21
-1.7049975905057855
31
0.0
0
LINE
8
1
62
1
10
-29.473081651121976
20
-1.7049975905057855
30
0.0
11
-29.723582999205153
21
-1.6388837587736043
31
0.0
0
LINE
8
1
62
1
10
-29.723582999205153
20
-1.6388837587736043
30
0.0
11
-29.993728311933435
21
-1.55935768011888
31
0.0
0
LINE
8
1
62
1
10
-29.993728311933435
20
-1.55935768011888
30
0.0
11
-30.282942280173398
21
-1.4652610930001377
31
0.0
0
LINE
8
1
62
1
10
-30.282942280173398
20
-1.4652610930001377
30
0.0
11
-30.590599964575667
21
-1.355458027297186
31
0.0
0
LINE
8
1
62
1
10
-30.590599964575667
20
-1.355458027297186
30
0.0
11
-30.91602760968939
21
-1.2288366799576154
31
0.0
0
LINE
8
1
62
1
10
-30.91602760968939
20
-1.2288366799576154
30
0.0
11
-31.25850352431867
21
-1.0843112620485151
31
0.0
0
LINE
8
1
62
1
10
-31.25850352431867
20
-1.0843112620485151
30
0.0
11
-31.617259027144147
21
-0.9208238149714094
31
0.0
0
LINE
8
1
62
1
10
-31.617259027144147
20
-0.9208238149714094
30
0.0
11
-31.99147945655935
21
-0.7373459936309554
31
0.0
0
LINE
8
1
62
1
10
-31.99147945655935
20
-0.7373459936309554
30
0.0
11
-31.99147945655935
21
0.737345993630919
31
0.0
0
LINE
8
1
62
1
10
-31.99147945655935
20
0.737345993630919
30
0.0
11
-31.61725902714415
21
0.9208238149713734
31
0.0
0
LINE
8
1
62
1
10
-31.61725902714415
20
0.9208238149713734
30
0.0
11
-31.258503524318673
21
1.084311262048479
31
0.0
0
LINE
8
1
62
1
10
-31.258503524318673
20
1.084311262048479
30
0.0
11
-30.916027609689387
21
1.2288366799575803
31
0.0
0
LINE
8
1
62
1
10
-30.916027609689387
20
1.2288366799575803
30
0.0
11
-30.59059996457567
21
1.3554580272971506
31
0.0
0
LINE
8
1
62
1
10
-30.59059996457567
20
1.3554580272971506
30
0.0
11
-30.2829422801734
21
1.465261093000103
31
0.0
0
LINE
8
1
62
1
10
-30.2829422801734
20
1.465261093000103
30
0.0
11
-29.993728311933438
21
1.5593576801188456
31
0.0
0
LINE
8
1
62
1
10
-29.993728311933438
20
1.5593576801188456
30
0.0
11
-29.723582999205156
21
1.6388837587735703
31
0.0
0
LINE
8
1
62
1
10
-29.723582999205156
20
1.6388837587735703
30
0.0
11
-29.47308165112198
21
1.704997590505752
31
0.0
0
LINE
8
1
62
1
10
-29.47308165112198
20
1.704997590505752
30
0.0
11
-29.24274919963087
21
1.758877826309179
31
0.0
0
LINE
8
1
62
1
10
-29.24274919963087
20
1.758877826309179
30
0.0
11
-29.033059520492372
21
1.8017215806386995
31
0.0
0
LINE
8
1
62
1
10
-29.033059520492372
20
1.8017215806386995
30
0.0
11
-28.84443482300098
21
1.83474248372216
31
0.0
0
LINE
8
1
62
1
10
-28.84443482300098
20
1.83474248372216
30
0.0
11
-28.677245109098852
21
1.859168714523981
31
0.0
0
LINE
8
1
62
1
10
-28.677245109098852
20
1.859168714523981
30
0.0
11
-28.53180770247744
21
1.8762410167291266
31
0.0
0
LINE
8
1
62
1
10
-28.53180770247744
20
1.8762410167291266
30
0.0
11
-28.40838684818364
21
1.8872107001341225
31
0.0
0
LINE
8
1
62
1
10
-28.40838684818364
20
1.8872107001341225
30
0.0
11
-28.307193383167505
21
1.8933376298470297
31
0.0
0
LINE
8
1
62
1
10
-28.307193383167505
20
1.8933376298470297
30
0.0
11
-28.228384478129506
21
1.8958882057110604
31
0.0
0
LINE
8
1
62
1
10
-28.228384478129506
20
1.8958882057110604
30
0.0
11
-28.17206345094516
21
1.8961333343766538
31
0.0
0
LINE
8
1
62
1
10
-28.17206345094516
20
1.8961333343766538
30
0.0
11
-28.138279651864927
21
1.8953463964544222
31
0.0
0
LINE
8
1
62
1
10
-28.138279651864927
20
1.8953463964544222
30
0.0
11
-28.127028420606877
21
1.8948012111863521
31
0.0
0
LINE
8
1
62
1
10
-28.127028420606877
20
1.8948012111863521
30
0.0
11
-27.537585774927454
21
1.8550929056285566
31
0.0
0
LINE
8
1
62
1
10
-27.537585774927454
20
1.8550929056285566
30
0.0
11
-27.321518958379926
21
3.9108313447253438
31
0.0
0
LINE
8
1
62
1
10
-27.321518958379926
20
3.9108313447253438
30
0.0
11
-27.90633668896947
21
3.9945427780180833
31
0.0
0
LINE
8
1
62
1
10
-27.90633668896947
20
3.9945427780180833
30
0.0
11
-27.917455404220732
21
3.996348768870809
31
0.0
0
LINE
8
1
62
1
10
-27.917455404220732
20
3.996348768870809
30
0.0
11
-27.950664559828713
21
4.002603074219269
31
0.0
0
LINE
8
1
62
1
10
-27.950664559828713
20
4.002603074219269
30
0.0
11
-28.005703872324613
21
4.014552646225881
31
0.0
0
LINE
8
1
62
1
10
-28.005703872324613
20
4.014552646225881
30
0.0
11
-28.082260319163538
21
4.033432778585719
31
0.0
0
LINE
8
1
62
1
10
-28.082260319163538
20
4.033432778585719
30
0.0
11
-28.17996860386288
21
4.060465124595476
31
0.0
0
LINE
8
1
62
1
10
-28.17996860386288
20
4.060465124595476
30
0.0
11
-28.29841169094641
21
4.096855732597278
31
0.0
0
LINE
8
1
62
1
10
-28.29841169094641
20
4.096855732597278
30
0.0
11
-28.437121410072464
21
4.143793101157052
31
0.0
0
LINE
8
1
62
1
10
-28.437121410072464
20
4.143793101157052
30
0.0
11
-28.595579128646893
21
4.202446256315552
31
0.0
0
LINE
8
1
62
1
10
-28.595579128646893
20
4.202446256315552
30
0.0
11
-28.773216492144826
21
4.273962853226125
31
0.0
0
LINE
8
1
62
1
10
-28.773216492144826
20
4.273962853226125
30
0.0
11
-28.969416231289163
21
4.359467304466693
31
0.0
0
LINE
8
1
62
1
10
-28.969416231289163
20
4.359467304466693
30
0.0
11
-29.183513035158775
21
4.460058937284503
31
0.0
0
LINE
8
1
62
1
10
-29.183513035158775
20
4.460058937284503
30
0.0
11
-29.414794489225034
21
4.576810182000757
31
0.0
0
LINE
8
1
62
1
10
-29.414794489225034
20
4.576810182000757
30
0.0
11
-29.66250207724248
21
4.710764793768472
31
0.0
0
LINE
8
1
62
1
10
-29.66250207724248
20
4.710764793768472
30
0.0
11
-29.925832245847065
21
4.862936109840794
31
0.0
0
LINE
8
1
62
1
10
-29.925832245847065
20
4.862936109840794
30
0.0
11
-30.203937530645188
21
5.034305344468505
31
0.0
0
LINE
8
1
62
1
10
-30.203937530645188
20
5.034305344468505
30
0.0
11
-30.495927742506634
21
5.225819923504822
31
0.0
0
LINE
8
1
62
1
10
-30.495927742506634
20
5.225819923504822
30
0.0
11
-30.800871212706756
21
5.438391860752593
31
0.0
0
LINE
8
1
62
1
10
-30.800871212706756
20
5.438391860752593
30
0.0
11
-31.117796095496267
21
5.67289617804378
31
0.0
0
LINE
8
1
62
1
10
-31.117796095496267
20
5.67289617804378
30
0.0
11
-31.445691726611873
21
5.930169370994074
31
0.0
0
LINE
8
1
62
1
10
-31.445691726611873
20
5.930169370994074
30
0.0
11
-31.139086022104856
21
7.372635800155645
31
0.0
0
LINE
8
1
62
1
10
-31.139086022104856
20
7.372635800155645
30
0.0
11
-30.734896022864344
21
7.474299388669412
31
0.0
0
LINE
8
1
62
1
10
-30.734896022864344
20
7.474299388669412
30
0.0
11
-30.349989236976274
21
7.559624779595358
31
0.0
0
LINE
8
1
62
1
10
-30.349989236976274
20
7.559624779595358
30
0.0
11
-29.9849487187689
21
7.629787223893262
31
0.0
0
LINE
8
1
62
1
10
-29.9849487187689
20
7.629787223893262
30
0.0
11
-29.640306390069473
21
7.685981379060711
31
0.0
0
LINE
8
1
62
1
10
-29.640306390069473
20
7.685981379060711
30
0.0
11
-29.316542423176802
21
7.729419354974117
31
0.0
0
LINE
8
1
62
1
10
-29.316542423176802
20
7.729419354974117
30
0.0
11
-29.01408469351614
21
7.76132874075667
31
0.0
0
LINE
8
1
62
1
10
-29.01408469351614
20
7.76132874075667
30
0.0
11
-28.733308302544277
21
7.782950615052726
31
0.0
0
LINE
8
1
62
1
10
-28.733308302544277
20
7.782950615052726
30
0.0
11
-28.47453517139426
21
7.795537542104779
31
0.0
0
LINE
8
1
62
1
10
-28.47453517139426
20
7.795537542104779
30
0.0
11
-28.238033705669544
21
7.800351556043156
31
0.0
0
LINE
8
1
62
1
10
-28.238033705669544
20
7.800351556043156
30
0.0
11
-28.024018531717946
21
7.798662135810286
31
0.0
0
LINE
8
1
62
1
10
-28.024018531717946
20
7.798662135810286
30
0.0
11
-27.83265030463519
21
7.791744173150013
31
0.0
0
LINE
8
1
62
1
10
-27.83265030463519
20
7.791744173150013
30
0.0
11
-27.66403558816814
21
7.780875936099055
31
0.0
0
LINE
8
1
62
1
10
-27.66403558816814
20
7.780875936099055
30
0.0
11
-27.518226806606837
21
7.767337030421213
31
0.0
0
LINE
8
1
62
1
10
-27.518226806606837
20
7.767337030421213
30
0.0
11
-27.39522226867437
21
7.752406361426223
31
0.0
0
LINE
8
1
62
1
10
-27.39522226867437
20
7.752406361426223
30
0.0
11
-27.294966263342765
21
7.737360098613555
31
0.0
0
LINE
8
1
62
1
10
-27.294966263342765
20
7.737360098613555
30
0.0
11
-27.21734922742294
21
7.7234696455775005
31
0.0
0
LINE
8
1
62
1
10
-27.21734922742294
20
7.7234696455775005
30
0.0
11
-27.162207984696373
21
7.711999617603131
31
0.0
0
LINE
8
1
62
1
10
-27.162207984696373
20
7.711999617603131
30
0.0
11
-27.129326056276355
21
7.704205829373555
31
0.0
0
LINE
8
1
62
1
10
-27.129326056276355
20
7.704205829373555
30
0.0
11
-27.118434041806882
21
7.701333295196994
31
0.0
0
LINE
8
1
62
1
10
-27.118434041806882
20
7.701333295196994
30
0.0
11
-26.550127953113396
21
7.539940694283128
31
0.0
0
LINE
8
1
62
1
10
-26.550127953113396
20
7.539940694283128
30
0.0
11
-25.911370660157573
21
9.505833499063902
31
0.0
0
LINE
8
1
62
1
10
-25.911370660157573
20
9.505833499063902
30
0.0
11
-26.466004134563654
21
9.70930607988026
31
0.0
0
LINE
8
1
62
1
10
-26.466004134563654
20
9.70930607988026
30
0.0
11
-26.476504392598123
21
9.713384316387412
31
0.0
0
LINE
8
1
62
1
10
-26.476504392598123
20
9.713384316387412
30
0.0
11
-26.507687505278575
21
9.72640652185135
31
0.0
0
LINE
8
1
62
1
10
-26.507687505278575
20
9.72640652185135
30
0.0
11
-26.559039621022038
21
9.749538283561883
31
0.0
0
LINE
8
1
62
1
10
-26.559039621022038
20
9.749538283561883
30
0.0
11
-26.62999772557644
21
9.783922820036477
31
0.0
0
LINE
8
1
62
1
10
-26.62999772557644
20
9.783922820036477
30
0.0
11
-26.719950509061256
21
9.83067913910687
31
0.0
0
LINE
8
1
62
1
10
-26.719950509061256
20
9.83067913910687
30
0.0
11
-26.828239297675974
21
9.890900227514289
31
0.0
0
LINE
8
1
62
1
10
-26.828239297675974
20
9.890900227514289
30
0.0
11
-26.95415904897779
21
9.965651274192144
31
0.0
0
LINE
8
1
62
1
10
-26.95415904897779
20
9.965651274192144
30
0.0
11
-27.09695940955832
21
10.055967929377834
31
0.0
0
LINE
8
1
62
1
10
-27.09695940955832
20
10.055967929377834
30
0.0
11
-27.255845833879288
21
10.162854601655821
31
0.0
0
LINE
8
1
62
1
10
-27.255845833879288
20
10.162854601655821
30
0.0
11
-27.429980762958046
21
10.287282794992345
31
0.0
0
LINE
8
1
62
1
10
-27.429980762958046
20
10.287282794992345
30
0.0
11
-27.618484861526614
21
10.430189487778192
31
0.0
0
LINE
8
1
62
1
10
-27.618484861526614
20
10.430189487778192
30
0.0
11
-27.82043831222172
21
10.592475555849786
31
0.0
0
LINE
8
1
62
1
10
-27.82043831222172
20
10.592475555849786
30
0.0
11
-28.034882165299077
21
10.775004241410702
31
0.0
0
LINE
8
1
62
1
10
-28.034882165299077
20
10.775004241410702
30
0.0
11
-28.260819742301923
21
10.978599669725254
31
0.0
0
LINE
8
1
62
1
10
-28.260819742301923
20
10.978599669725254
30
0.0
11
-28.497218092053007
21
11.20404541540367
31
0.0
0
LINE
8
1
62
1
10
-28.497218092053007
20
11.20404541540367
30
0.0
11
-28.743009497279342
21
11.45208312004394
31
0.0
0
LINE
8
1
62
1
10
-28.743009497279342
20
11.45208312004394
30
0.0
11
-28.997093030121444
21
11.723411162939325
31
0.0
0
LINE
8
1
62
1
10
-28.997093030121444
20
11.723411162939325
30
0.0
11
-29.25833615472277
21
12.018683386502405
31
0.0
0
LINE
8
1
62
1
10
-29.25833615472277
20
12.018683386502405
30
0.0
11
-29.52557637504122
21
12.33850787799686
31
0.0
0
LINE
8
1
62
1
10
-29.52557637504122
20
12.33850787799686
30
0.0
11
-28.925765106571543
21
13.685706044381888
31
0.0
0
LINE
8
1
62
1
10
-28.925765106571543
20
13.685706044381888
30
0.0
11
-28.50927057999134
21
13.701112213414898
31
0.0
0
LINE
8
1
62
1
10
-28.50927057999134
20
13.701112213414898
30
0.0
11
-28.115034784571662
21
13.704546419169565
31
0.0
0
LINE
8
1
62
1
10
-28.115034784571662
20
13.704546419169565
30
0.0
11
-27.743383685090613
21
13.697279454363695
31
0.0
0
LINE
8
1
62
1
10
-27.743383685090613
20
13.697279454363695
30
0.0
11
-27.394589196347013
21
13.680590463128729
31
0.0
0
LINE
8
1
62
1
10
-27.394589196347013
20
13.680590463128729
30
0.0
11
-27.068868985909027
21
13.65576490126664
31
0.0
0
LINE
8
1
62
1
10
-27.068868985909027
20
13.65576490126664
30
0.0
11
-26.766386348967053
21
13.624092492436084
31
0.0
0
LINE
8
1
62
1
10
-26.766386348967053
20
13.624092492436084
30
0.0
11
-26.487250155351685
21
13.586865182713472
31
0.0
0
LINE
8
1
62
1
10
-26.487250155351685
20
13.586865182713472
30
0.0
11
-26.231514868697328
21
13.545375095974443
31
0.0
0
LINE
8
1
62
1
10
-26.231514868697328
20
13.545375095974443
30
0.0
11
-25.999180637651126
21
13.500912492538461
31
0.0
0
LINE
8
1
62
1
10
-25.999180637651126
20
13.500912492538461
30
0.0
11
-25.790193458946856
21
13.454763733514115
31
0.0
0
LINE
8
1
62
1
10
-25.790193458946856
20
13.454763733514115
30
0.0
11
-25.604445412082892
21
13.40820925327443
31
0.0
0
LINE
8
1
62
1
10
-25.604445412082892
20
13.40820925327443
30
0.0
11
-25.441774965263708
21
13.362521542481407
31
0.0
0
LINE
8
1
62
1
10
-25.441774965263708
20
13.362521542481407
30
0.0
11
-25.301967352184896
21
13.318963144065577
31
0.0
0
LINE
8
1
62
1
10
-25.301967352184896
20
13.318963144065577
30
0.0
11
-25.184755019162676
21
13.27878466455098
31
0.0
0
LINE
8
1
62
1
10
-25.184755019162676
20
13.27878466455098
30
0.0
11
-25.089818142030282
21
13.24322280309763
31
0.0
0
LINE
8
1
62
1
10
-25.089818142030282
20
13.24322280309763
30
0.0
11
-25.016785212146186
21
13.213498400612956
31
0.0
0
LINE
8
1
62
1
10
-25.016785212146186
20
13.213498400612956
30
0.0
11
-24.965233690781595
21
13.190814511260402
31
0.0
0
LINE
8
1
62
1
10
-24.965233690781595
20
13.190814511260402
30
0.0
11
-24.934690731078735
21
13.17635449866786
31
0.0
0
LINE
8
1
62
1
10
-24.934690731078735
20
13.17635449866786
30
0.0
11
-24.924633966695847
21
13.171280159110273
31
0.0
0
LINE
8
1
62
1
10
-24.924633966695847
20
13.171280159110273
30
0.0
11
-24.402302138099376
21
12.895256893947895
31
0.0
0
LINE
8
1
62
1
10
-24.402302138099376
20
12.895256893947895
30
0.0
11
-23.368771127534984
21
14.685385115443433
31
0.0
0
LINE
8
1
62
1
10
-23.368771127534984
20
14.685385115443433
30
0.0
11
-23.868980201499365
21
14.999726115631965
31
0.0
0
LINE
8
1
62
1
10
-23.868980201499365
20
14.999726115631965
30
0.0
11
-23.87840309065511
21
15.005898359288631
31
0.0
0
LINE
8
1
62
1
10
-23.87840309065511
20
15.005898359288631
30
0.0
11
-23.90619730875072
21
15.025119332001797
31
0.0
0
LINE
8
1
62
1
10
-23.90619730875072
20
15.025119332001797
30
0.0
11
-23.951617893868963
21
15.058422314430993
31
0.0
0
LINE
8
1
62
1
10
-23.951617893868963
20
15.058422314430993
30
0.0
11
-24.013876446475052
21
15.106808485781091
31
0.0
0
LINE
8
1
62
1
10
-24.013876446475052
20
15.106808485781091
30
0.0
11
-24.092142360465715
21
15.171245302407032
31
0.0
0
LINE
8
1
62
1
10
-24.092142360465715
20
15.171245302407032
30
0.0
11
-24.1855441109219
21
15.25266492068382
31
0.0
0
LINE
8
1
62
1
10
-24.1855441109219
20
15.25266492068382
30
0.0
11
-24.293170597037577
21
15.351962666044619
31
0.0
0
LINE
8
1
62
1
10
-24.293170597037577
20
15.351962666044619
30
0.0
11
-24.41407253863468
21
15.469995550038485
31
0.0
0
LINE
8
1
62
1
10
-24.41407253863468
20
15.469995550038485
30
0.0
11
-24.547263924614217
21
15.607580837206182
31
0.0
0
LINE
8
1
62
1
10
-24.547263924614217
20
15.607580837206182
30
0.0
11
-24.691723511634557
21
15.765494663517138
31
0.0
0
LINE
8
1
62
1
10
-24.691723511634557
20
15.765494663517138
30
0.0
11
-24.84639637125161
21
15.944470708053887
31
0.0
0
LINE
8
1
62
1
10
-24.84639637125161
20
15.944470708053887
30
0.0
11
-25.01019548370001
21
16.14519891957114
31
0.0
0
LINE
8
1
62
1
10
-25.01019548370001
20
16.14519891957114
30
0.0
11
-25.182003376442026
21
16.368324299496432
31
0.0
0
LINE
8
1
62
1
10
-25.182003376442026
20
16.368324299496432
30
0.0
11
-25.360673805559326
21
16.61444574287661
31
0.0
0
LINE
8
1
62
1
10
-25.360673805559326
20
16.61444574287661
30
0.0
11
-25.54503347801411
21
16.884114938710876
31
0.0
0
LINE
8
1
62
1
10
-25.54503347801411
20
16.884114938710876
30
0.0
11
-25.733883812758926
21
17.177835331045355
31
0.0
0
LINE
8
1
62
1
10
-25.733883812758926
20
17.177835331045355
30
0.0
11
-25.92600273862974
21
17.496061142137428
31
0.0
0
LINE
8
1
62
1
10
-25.92600273862974
20
17.496061142137428
30
0.0
11
-26.120146526914212
21
17.839196458929365
31
0.0
0
LINE
8
1
62
1
10
-26.120146526914212
20
17.839196458929365
30
0.0
11
-26.315051656446734
21
18.207594384001496
31
0.0
0
LINE
8
1
62
1
10
-26.315051656446734
20
18.207594384001496
30
0.0
11
-25.448249454660317
21
19.400645263164915
31
0.0
0
LINE
8
1
62
1
10
-25.448249454660317
20
19.400645263164915
30
0.0
11
-25.037653210114456
21
19.32912068920342
31
0.0
0
LINE
8
1
62
1
10
-25.037653210114456
20
19.32912068920342
30
0.0
11
-24.651318401176244
21
19.250513618516184
31
0.0
0
LINE
8
1
62
1
10
-24.651318401176244
20
19.250513618516184
30
0.0
11
-24.289299656848677
21
19.166134845839323
31
0.0
0
LINE
8
1
62
1
10
-24.289299656848677
20
19.166134845839323
30
0.0
11
-23.951597000920657
21
19.077292097201575
31
0.0
0
LINE
8
1
62
1
10
-23.951597000920657
20
19.077292097201575
30
0.0
11
-23.63815608311248
21
18.985287993743626
31
0.0
0
LINE
8
1
62
1
10
-23.63815608311248
20
18.985287993743626
30
0.0
11
-23.34886848159628
21
18.891418026546937
31
0.0
0
LINE
8
1
62
1
10
-23.34886848159628
20
18.891418026546937
30
0.0
11
-23.08357207644247
21
18.796968544876986
31
0.0
0
LINE
8
1
62
1
10
-23.08357207644247
20
18.796968544876986
30
0.0
11
-22.842051493464627
21
18.703214760228892
31
0.0
0
LINE
8
1
62
1
10
-22.842051493464627
20
18.703214760228892
30
0.0
11
-22.62403861785698
21
18.61141876854395
31
0.0
0
LINE
8
1
62
1
10
-22.62403861785698
20
18.61141876854395
30
0.0
11
-22.429213176941172
21
18.522827592943806
31
0.0
0
LINE
8
1
62
1
10
-22.429213176941172
20
18.522827592943806
30
0.0
11
-22.257203391261964
21
18.438671249304363
31
0.0
0
LINE
8
1
62
1
10
-22.257203391261964
20
18.438671249304363
30
0.0
11
-22.10758669319605
21
18.36016083696489
31
0.0
0
LINE
8
1
62
1
10
-22.10758669319605
20
18.36016083696489
30
0.0
11
-21.979890512162648
21
18.28848665683823
31
0.0
0
LINE
8
1
62
1
10
-21.979890512162648
20
18.28848665683823
30
0.0
11
-21.873593125450913
21
18.22481635915655
31
0.0
0
LINE
8
1
62
1
10
-21.873593125450913
20
18.22481635915655
30
0.0
11
-21.788124573606098
21
18.170293123052776
31
0.0
0
LINE
8
1
62
1
10
-21.788124573606098
20
18.170293123052776
30
0.0
11
-21.722867639244544
21
18.126033870141566
31
0.0
0
LINE
8
1
62
1
10
-21.722867639244544
20
18.126033870141566
30
0.0
11
-21.677158888097203
21
18.093127514224918
31
0.0
0
LINE
8
1
62
1
10
-21.677158888097203
20
18.093127514224918
30
0.0
11
-21.650289771011906
21
18.072633249206543
31
0.0
0
LINE
8
1
62
1
10
-21.650289771011906
20
18.072633249206543
30
0.0
11
-21.641507785576835
21
18.065578877255973
31
0.0
0
LINE
8
1
62
1
10
-21.641507785576835
20
18.065578877255973
30
0.0
11
-21.187978624413248
21
17.686988489039262
31
0.0
0
LINE
8
1
62
1
10
-21.187978624413248
20
17.686988489039262
30
0.0
11
-19.804844160833976
21
19.223114933981964
31
0.0
0
LINE
8
1
62
1
10
-19.804844160833976
20
19.223114933981964
30
0.0
11
-20.22876729755497
21
19.634586143458964
31
0.0
0
LINE
8
1
62
1
10
-20.22876729755497
20
19.634586143458964
30
0.0
11
-20.236700992359847
21
19.64258263759963
31
0.0
0
LINE
8
1
62
1
10
-20.236700992359847
20
19.64258263759963
30
0.0
11
-20.259891575168385
21
19.667162328822002
31
0.0
0
LINE
8
1
62
1
10
-20.259891575168385
20
19.667162328822002
30
0.0
11
-20.29739553213959
21
19.709181031832266
31
0.0
0
LINE
8
1
62
1
10
-20.29739553213959
20
19.709181031832266
30
0.0
11
-20.3482335352988
21
19.76945413018726
31
0.0
0
LINE
8
1
62
1
10
-20.3482335352988
20
19.76945413018726
30
0.0
11
-20.41139198379239
21
19.848755246280042
31
0.0
0
LINE
8
1
62
1
10
-20.41139198379239
20
19.848755246280042
30
0.0
11
-20.48582459140378
21
19.94781496641283
31
0.0
0
LINE
8
1
62
1
10
-20.48582459140378
20
19.94781496641283
30
0.0
11
-20.570454018440888
21
20.067319622500854
31
0.0
0
LINE
8
1
62
1
10
-20.570454018440888
20
20.067319622500854
30
0.0
11
-20.664173546054894
21
20.20791013188775
31
0.0
0
LINE
8
1
62
1
10
-20.664173546054894
20
20.20791013188775
30
0.0
11
-20.7658487910025
21
20.37018089668847
31
0.0
0
LINE
8
1
62
1
10
-20.7658487910025
20
20.37018089668847
30
0.0
11
-20.87431945881763
21
20.554678764009463
31
0.0
0
LINE
8
1
62
1
10
-20.87431945881763
20
20.554678764009463
30
0.0
11
-20.98840113331518
21
20.76190204832851
31
0.0
0
LINE
8
1
62
1
10
-20.98840113331518
20
20.76190204832851
30
0.0
11
-21.10688710030753
21
20.99229961724729
31
0.0
0
LINE
8
1
62
1
10
-21.10688710030753
20
20.99229961724729
30
0.0
11
-21.228550203375644
21
21.246270041759868
31
0.0
0
LINE
8
1
62
1
10
-21.228550203375644
20
21.246270041759868
30
0.0
11
-21.352144729499127
21
21.524160812108242
31
0.0
0
LINE
8
1
62
1
10
-21.352144729499127
20
21.524160812108242
30
0.0
11
-21.476408322315475
21
21.826267620224023
31
0.0
0
LINE
8
1
62
1
10
-21.476408322315475
20
21.826267620224023
30
0.0
11
-21.600063920745978
21
22.152833709680884
31
0.0
0
LINE
8
1
62
1
10
-21.600063920745978
20
22.152833709680884
30
0.0
11
-21.72182172069607
21
22.504049294008055
31
0.0
0
LINE
8
1
62
1
10
-21.72182172069607
20
22.504049294008055
30
0.0
11
-21.840381157510397
21
22.880051044139112
31
0.0
0
LINE
8
1
62
1
10
-21.840381157510397
20
22.880051044139112
30
0.0
11
-21.95443290683784
21
23.28092164569389
31
0.0
0
LINE
8
1
62
1
10
-21.95443290683784
20
23.28092164569389
30
0.0
11
-20.858523187331194
21
24.26768318932299
31
0.0
0
LINE
8
1
62
1
10
-20.858523187331194
20
24.26768318932299
30
0.0
11
-20.4717702509657
21
24.11235383946209
31
0.0
0
LINE
8
1
62
1
10
-20.4717702509657
20
24.11235383946209
30
0.0
11
-20.11022111349965
21
23.955140998520562
31
0.0
0
LINE
8
1
62
1
10
-20.11022111349965
20
23.955140998520562
30
0.0
11
-19.77365668061135
21
23.79733817523296
31
0.0
0
LINE
8
1
62
1
10
-19.77365668061135
20
23.79733817523296
30
0.0
11
-19.46180508404009
21
23.640224523622706
31
0.0
0
LINE
8
1
62
1
10
-19.46180508404009
20
23.640224523622706
30
0.0
11
-19.174342331026338
21
23.485062899374682
31
0.0
0
LINE
8
1
62
1
10
-19.174342331026338
20
23.485062899374682
30
0.0
11
-18.910893021278103
21
23.33309794181643
31
0.0
0
LINE
8
1
62
1
10
-18.910893021278103
20
23.33309794181643
30
0.0
11
-18.671031130524455
21
23.185554183767017
31
0.0
0
LINE
8
1
62
1
10
-18.671031130524455
20
23.185554183767017
30
0.0
11
-18.454280859643596
21
23.043634191479555
31
0.0
0
LINE
8
1
62
1
10
-18.454280859643596
20
23.043634191479555
30
0.0
11
-18.260117548280412
21
22.90851673686832
31
0.0
0
LINE
8
1
62
1
10
-18.260117548280412
20
22.90851673686832
30
0.0
11
-18.08796865179726
21
22.78135500417373
31
0.0
0
LINE
8
1
62
1
10
-18.08796865179726
20
22.78135500417373
30
0.0
11
-17.93721478033153
21
22.66327483317852
31
0.0
0
LINE
8
1
62
1
10
-17.93721478033153
20
22.66327483317852
30
0.0
11
-17.80719079866494
21
22.555373001046586
31
0.0
0
LINE
8
1
62
1
10
-17.80719079866494
20
22.555373001046586
30
0.0
11
-17.69718698554236
21
22.458715544811504
31
0.0
0
LINE
8
1
62
1
10
-17.69718698554236
20
22.458715544811504
30
0.0
11
-17.60645025101187
21
22.374336126495415
31
0.0
0
LINE
8
1
62
1
10
-17.60645025101187
20
22.374336126495415
30
0.0
11
-17.53418541029386
21
22.303234442790462
31
0.0
0
LINE
8
1
62
1
10
-17.53418541029386
20
22.303234442790462
30
0.0
11
-17.479556512623965
21
22.2463746811844
31
0.0
0
LINE
8
1
62
1
10
-17.479556512623965
20
22.2463746811844
30
0.0
11
-17.441688223453937
21
22.204684024359423
31
0.0
0
LINE
8
1
62
1
10
-17.441688223453937
20
22.204684024359423
30
0.0
11
-17.419667258335153
21
22.179051204638913
31
0.0
0
LINE
8
1
62
1
10
-17.419667258335153
20
22.179051204638913
30
0.0
11
-17.412543866752063
21
22.17032511020024
31
0.0
0
LINE
8
1
62
1
10
-17.412543866752063
20
22.17032511020024
30
0.0
11
-17.04763877363857
21
21.7057138155725
31
0.0
0
LINE
8
1
62
1
10
-17.04763877363857
20
21.7057138155725
30
0.0
11
-15.375350470118388
21
22.920702387165854
31
0.0
0
LINE
8
1
62
1
10
-15.375350470118388
20
22.920702387165854
30
0.0
11
-15.704460194312388
21
23.411320539619243
31
0.0
0
LINE
8
1
62
1
10
-15.704460194312388
20
23.411320539619243
30
0.0
11
-15.710557954233332
21
23.42079179907854
31
0.0
0
LINE
8
1
62
1
10
-15.710557954233332
20
23.42079179907854
30
0.0
11
-15.7281313620053
21
23.44965595835725
31
0.0
0
LINE
8
1
62
1
10
-15.7281313620053
20
23.44965595835725
30
0.0
11
-15.756079587945875
21
23.498553962998923
31
0.0
0
LINE
8
1
62
1
10
-15.756079587945875
20
23.498553962998923
30
0.0
11
-15.793275176972344
21
23.568079764738282
31
0.0
0
LINE
8
1
62
1
10
-15.793275176972344
20
23.568079764738282
30
0.0
11
-15.838565832701832
21
23.658779340995682
31
0.0
0
LINE
8
1
62
1
10
-15.838565832701832
20
23.658779340995682
30
0.0
11
-15.890776235348534
21
23.77114977787339
31
0.0
0
LINE
8
1
62
1
10
-15.890776235348534
20
23.77114977787339
30
0.0
11
-15.9487098912485
21
23.90563841777063
31
0.0
0
LINE
8
1
62
1
10
-15.9487098912485
20
23.90563841777063
30
0.0
11
-16.011151011806486
21
24.06264207266224
31
0.0
0
LINE
8
1
62
1
10
-16.011151011806486
20
24.06264207266224
30
0.0
11
-16.076866419626
21
24.242506304012668
31
0.0
0
LINE
8
1
62
1
10
-16.076866419626
20
24.242506304012668
30
0.0
11
-16.144607479552388
21
24.445524770222775
31
0.0
0
LINE
8
1
62
1
10
-16.144607479552388
20
24.445524770222775
30
0.0
11
-16.213112052330278
21
24.671938642431737
31
0.0
0
LINE
8
1
62
1
10
-16.213112052330278
20
24.671938642431737
30
0.0
11
-16.281106468550266
21
24.921936089420104
31
0.0
0
LINE
8
1
62
1
10
-16.281106468550266
20
24.921936089420104
30
0.0
11
-16.347307520536056
21
25.19565183228345
31
0.0
0
LINE
8
1
62
1
10
-16.347307520536056
20
25.19565183228345
30
0.0
11
-16.410424469801793
21
25.493166769467933
31
0.0
0
LINE
8
1
62
1
10
-16.410424469801793
20
25.493166769467933
30
0.0
11
-16.46916106769076
21
25.814507672681273
31
0.0
0
LINE
8
1
62
1
10
-16.46916106769076
20
25.814507672681273
30
0.0
11
-16.522217586790138
21
26.159646954113285
31
0.0
0
LINE
8
1
62
1
10
-16.522217586790138
20
26.159646954113285
30
0.0
11
-16.568292860702936
21
26.528502505321104
31
0.0
0
LINE
8
1
62
1
10
-16.568292860702936
20
26.528502505321104
30
0.0
11
-16.60608632974704
21
26.92093760805398
31
0.0
0
LINE
8
1
62
1
10
-16.60608632974704
20
26.92093760805398
30
0.0
11
-16.634300090142784
21
27.336760917212896
31
0.0
0
LINE
8
1
62
1
10
-16.634300090142784
20
27.336760917212896
30
0.0
11
-15.357179366416592
21
28.07410691084386
31
0.0
0
LINE
8
1
62
1
10
-15.357179366416592
20
28.07410691084386
30
0.0
11
-15.011172697397136
21
27.8417614230254
31
0.0
0
LINE
8
1
62
1
10
-15.011172697397136
20
27.8417614230254
30
0.0
11
-14.690210663615758
21
27.612813767369627
31
0.0
0
LINE
8
1
62
1
10
-14.690210663615758
20
27.612813767369627
30
0.0
11
-14.393810022899274
21
27.38848363407091
31
0.0
0
LINE
8
1
62
1
10
-14.393810022899274
20
27.38848363407091
30
0.0
11
-14.121438896884934
21
27.16996569997847
31
0.0
0
LINE
8
1
62
1
10
-14.121438896884934
20
27.16996569997847
30
0.0
11
-13.87251781037163
21
26.95842786246808
31
0.0
0
LINE
8
1
62
1
10
-13.87251781037163
20
26.95842786246808
30
0.0
11
-13.646420791397402
21
26.75500951240234
31
0.0
0
LINE
8
1
62
1
10
-13.646420791397402
20
26.75500951240234
30
0.0
11
-13.442476530654911
21
26.560819848193717
31
0.0
0
LINE
8
1
62
1
10
-13.442476530654911
20
26.560819848193717
30
0.0
11
-13.259969598791725
21
26.376936232937535
31
0.0
0
LINE
8
1
62
1
10
-13.259969598791725
20
26.376936232937535
30
0.0
11
-13.098141720078507
21
26.204402596532
31
0.0
0
LINE
8
1
62
1
10
-13.098141720078507
20
26.204402596532
30
0.0
11
-12.956193100866392
21
26.04422788465141
31
0.0
0
LINE
8
1
62
1
10
-12.956193100866392
20
26.04422788465141
30
0.0
11
-12.833283811194518
21
25.89738455638444
31
0.0
0
LINE
8
1
62
1
10
-12.833283811194518
20
25.89738455638444
30
0.0
11
-12.728535217850373
21
25.764807132294653
31
0.0
0
LINE
8
1
62
1
10
-12.728535217850373
20
25.764807132294653
30
0.0
11
-12.641031467128926
21
25.647390794602558
31
0.0
0
LINE
8
1
62
1
10
-12.641031467128926
20
25.647390794602558
30
0.0
11
-12.569821015481827
21
25.545990041129848
31
0.0
0
LINE
8
1
62
1
10
-12.569821015481827
20
25.545990041129848
30
0.0
11
-12.51391820619518
21
25.461417394585357
31
0.0
0
LINE
8
1
62
1
10
-12.51391820619518
20
25.461417394585357
30
0.0
11
-12.47230489018365
21
25.394442168710032
31
0.0
0
LINE
8
1
62
1
10
-12.47230489018365
20
25.394442168710032
30
0.0
11
-12.443932088939876
21
25.345789292733947
31
0.0
0
LINE
8
1
62
1
10
-12.443932088939876
20
25.345789292733947
30
0.0
11
-12.427721697631616
21
25.316138195533004
31
0.0
0
LINE
8
1
62
1
10
-12.427721697631616
20
25.316138195533004
30
0.0
11
-12.422568226294509
21
25.30612175080564
31
0.0
0
LINE
8
1
62
1
10
-12.422568226294509
20
25.30612175080564
30
0.0
11
-12.162235304809082
21
24.77579529279445
31
0.0
0
LINE
8
1
62
1
10
-12.162235304809082
20
24.77579529279445
30
0.0
11
-10.27388018474138
21
25.616545160297836
31
0.0
0
LINE
8
1
62
1
10
-10.27388018474138
20
25.616545160297836
30
0.0
11
-10.493792822217435
21
26.164867888218318
31
0.0
0
LINE
8
1
62
1
10
-10.493792822217435
20
26.164867888218318
30
0.0
11
-10.497788145885602
21
26.175399973509716
31
0.0
0
LINE
8
1
62
1
10
-10.497788145885602
20
26.175399973509716
30
0.0
11
-10.508976336374799
21
26.207287098578686
31
0.0
0
LINE
8
1
62
1
10
-10.508976336374799
20
26.207287098578686
30
0.0
11
-10.526147359700673
21
26.260927327410272
31
0.0
0
LINE
8
1
62
1
10
-10.526147359700673
20
26.260927327410272
30
0.0
11
-10.548074908869705
21
26.336667221376175
31
0.0
0
LINE
8
1
62
1
10
-10.548074908869705
20
26.336667221376175
30
0.0
11
-10.573518352851034
21
26.43480125109088
31
0.0
0
LINE
8
1
62
1
10
-10.573518352851034
20
26.43480125109088
30
0.0
11
-10.601224705404077
21
26.555571277408774
31
0.0
0
LINE
8
1
62
1
10
-10.601224705404077
20
26.555571277408774
30
0.0
11
-10.629930611407548
21
26.69916610220363
31
0.0
0
LINE
8
1
62
1
10
-10.629930611407548
20
26.69916610220363
30
0.0
11
-10.65836434831539
21
26.865721089494063
31
0.0
0
LINE
8
1
62
1
10
-10.65836434831539
20
26.865721089494063
30
0.0
11
-10.68524784034759
21
27.05531785739985
31
0.0
0
LINE
8
1
62
1
10
-10.68524784034759
20
27.05531785739985
30
0.0
11
-10.709298683008775
21
27.26798404133501
31
0.0
0
LINE
8
1
62
1
10
-10.709298683008775
20
27.26798404133501
30
0.0
11
-10.729232175515204
21
27.50369312876405
31
0.0
0
LINE
8
1
62
1
10
-10.729232175515204
20
27.50369312876405
30
0.0
11
-10.743763358700607
21
27.762364365767763
31
0.0
0
LINE
8
1
62
1
10
-10.743763358700607
20
27.762364365767763
30
0.0
11
-10.751609055964405
21
28.0438627355849
31
0.0
0
LINE
8
1
62
1
10
-10.751609055964405
20
28.0438627355849
30
0.0
11
-10.751489914820755
21
28.347999009215467
31
0.0
0
LINE
8
1
62
1
10
-10.751489914820755
20
28.347999009215467
30
0.0
11
-10.742132446605122
21
28.674529868091206
31
0.0
0
LINE
8
1
62
1
10
-10.742132446605122
20
28.674529868091206
30
0.0
11
-10.722271061895311
21
29.023158098737778
31
0.0
0
LINE
8
1
62
1
10
-10.722271061895311
20
29.023158098737778
30
0.0
11
-10.690650099207133
21
29.393532859273147
31
0.0
0
LINE
8
1
62
1
10
-10.690650099207133
20
29.393532859273147
30
0.0
11
-10.646025844530595
21
29.785250017505867
31
0.0
0
LINE
8
1
62
1
10
-10.646025844530595
20
29.785250017505867
30
0.0
11
-10.587168539280707
21
30.197852560317056
31
0.0
0
LINE
8
1
62
1
10
-10.587168539280707
20
30.197852560317056
30
0.0
11
-9.184653115266997
21
30.653557445849557
31
0.0
0
LINE
8
1
62
1
10
-9.184653115266997
20
30.653557445849557
30
0.0
11
-8.894514865353932
21
30.354350432808545
31
0.0
0
LINE
8
1
62
1
10
-8.894514865353932
20
30.354350432808545
30
0.0
11
-8.62816751628019
21
30.06367407360343
31
0.0
0
LINE
8
1
62
1
10
-8.62816751628019
20
30.06367407360343
30
0.0
11
-8.384884798022908
21
29.782620933574165
31
0.0
0
LINE
8
1
62
1
10
-8.384884798022908
20
29.782620933574165
30
0.0
11
-8.163898067753978
21
29.51224899928475
31
0.0
0
LINE
8
1
62
1
10
-8.163898067753978
20
29.51224899928475
30
0.0
11
-7.964397693677656
21
29.253580167082376
31
0.0
0
LINE
8
1
62
1
10
-7.964397693677656
20
29.253580167082376
30
0.0
11
-7.785534490140477
21
29.007598782516556
31
0.0
0
LINE
8
1
62
1
10
-7.785534490140477
20
29.007598782516556
30
0.0
11
-7.626421202236726
21
28.77525023230004
31
0.0
0
LINE
8
1
62
1
10
-7.626421202236726
20
28.77525023230004
30
0.0
11
-7.486134038079059
21
28.557439590433308
31
0.0
0
LINE
8
1
62
1
10
-7.486134038079059
20
28.557439590433308
30
0.0
11
-7.363714246851895
21
28.355030320052638
31
0.0
0
LINE
8
1
62
1
10
-7.363714246851895
20
28.355030320052638
30
0.0
11
-7.25816974071543
21
28.168843032498774
31
0.0
0
LINE
8
1
62
1
10
-7.25816974071543
20
28.168843032498774
30
0.0
11
-7.16847675858028
21
27.999654305037783
31
0.0
0
LINE
8
1
62
1
10
-7.16847675858028
20
27.999654305037783
30
0.0
11
-7.0935815697272355
21
27.848195558599926
31
0.0
0
LINE
8
1
62
1
10
-7.0935815697272355
20
27.848195558599926
30
0.0
11
-7.032402215203036
21
27.715151996834063
31
0.0
0
LINE
8
1
62
1
10
-7.032402215203036
20
27.715151996834063
30
0.0
11
-6.983830284881962
21
27.601161607706285
31
0.0
0
LINE
8
1
62
1
10
-6.983830284881962
20
27.601161607706285
30
0.0
11
-6.946732728043948
21
27.50681422880083
31
0.0
0
LINE
8
1
62
1
10
-6.946732728043948
20
27.50681422880083
30
0.0
11
-6.919953695283333
21
27.432650677409786
31
0.0
0
LINE
8
1
62
1
10
-6.919953695283333
20
27.432650677409786
30
0.0
11
-6.902316409527972
21
27.379161946425153
31
0.0
0
LINE
8
1
62
1
10
-6.902316409527972
20
27.379161946425153
30
0.0
11
-6.892625063916491
21
27.346788466973205
31
0.0
0
LINE
8
1
62
1
10
-6.892625063916491
20
27.346788466973205
30
0.0
11
-6.889666744251896
21
27.335919438655974
31
0.0
0
LINE
8
1
62
1
10
-6.889666744251896
20
27.335919438655974
30
0.0
11
-6.7452837922794044
21
26.76305562826511
31
0.0
0
LINE
8
1
62
1
10
-6.7452837922794044
20
26.76305562826511
30
0.0
11
-4.723392035744371
21
27.192821988103162
31
0.0
0
LINE
8
1
62
1
10
-4.723392035744371
20
27.192821988103162
30
0.0
11
-4.824496348986864
21
27.774884957136234
31
0.0
0
LINE
8
1
62
1
10
-4.824496348986864
20
27.774884957136234
30
0.0
11
-4.826214621586265
21
27.78601756559395
31
0.0
0
LINE
8
1
62
1
10
-4.826214621586265
20
27.78601756559395
30
0.0
11
-4.83052861718142
21
27.819534036076266
31
0.0
0
LINE
8
1
62
1
10
-4.83052861718142
20
27.819534036076266
30
0.0
11
-4.83617198177754
21
27.875572153703445
31
0.0
0
LINE
8
1
62
1
10
-4.83617198177754
20
27.875572153703445
30
0.0
11
-4.841873151970393
21
27.95421594308925
31
0.0
0
LINE
8
1
62
1
10
-4.841873151970393
20
27.95421594308925
30
0.0
11
-4.84635738361039
21
28.05549549826342
31
0.0
0
LINE
8
1
62
1
10
-4.84635738361039
20
28.05549549826342
30
0.0
11
-4.848348785513375
21
28.179386884352517
31
0.0
0
LINE
8
1
62
1
10
-4.848348785513375
20
28.179386884352517
30
0.0
11
-4.846572355781784
21
28.325812111157035
31
0.0
0
LINE
8
1
62
1
10
-4.846572355781784
20
28.325812111157035
30
0.0
11
-4.839756018296403
21
28.494639178682192
31
0.0
0
LINE
8
1
62
1
10
-4.839756018296403
20
28.494639178682192
30
0.0
11
-4.826632656938169
21
28.685682194599625
31
0.0
0
LINE
8
1
62
1
10
-4.826632656938169
20
28.685682194599625
30
0.0
11
-4.805942145101117
21
28.898701563536292
31
0.0
0
LINE
8
1
62
1
10
-4.805942145101117
20
28.898701563536292
30
0.0
11
-4.77643336806204
21
29.133404248007082
31
0.0
0
LINE
8
1
62
1
10
-4.77643336806204
20
29.133404248007082
30
0.0
11
-4.736866235779302
21
29.389444100726767
31
0.0
0
LINE
8
1
62
1
10
-4.736866235779302
20
29.389444100726767
30
0.0
11
-4.686013683702846
21
29.666422267957635
31
0.0
0
LINE
8
1
62
1
10
-4.686013683702846
20
29.666422267957635
30
0.0
11
-4.6226636591894925
21
29.963887663468878
31
0.0
0
LINE
8
1
62
1
10
-4.6226636591894925
20
29.963887663468878
30
0.0
11
-4.545621091132401
21
30.28133751260524
31
0.0
0
LINE
8
1
62
1
10
-4.545621091132401
20
30.28133751260524
30
0.0
11
-4.453709840430715
21
30.618217965883257
31
0.0
0
LINE
8
1
62
1
10
-4.453709840430715
20
30.618217965883257
30
0.0
11
-4.345774628945248
21
30.97392478145551
31
0.0
0
LINE
8
1
62
1
10
-4.345774628945248
20
30.97392478145551
30
0.0
11
-4.220682944608367
21
31.347804075705824
31
0.0
0
LINE
8
1
62
1
10
-4.220682944608367
20
31.347804075705824
30
0.0
11
-4.07732692038095
21
31.739153141161776
31
0.0
0
LINE
8
1
62
1
10
-4.07732692038095
20
31.739153141161776
30
0.0
11
-2.6107134501248086
21
31.89330042838339
31
0.0
0
LINE
8
1
62
1
10
-2.6107134501248086
20
31.89330042838339
30
0.0
11
-2.3891240530771265
21
31.540308672344267
31
0.0
0
LINE
8
1
62
1
10
-2.3891240530771265
20
31.540308672344267
30
0.0
11
-2.1890320459419215
21
31.200607561307
31
0.0
0
LINE
8
1
62
1
10
-2.1890320459419215
20
31.200607561307
30
0.0
11
-2.0094998723316877
21
30.875114785409053
31
0.0
0
LINE
8
1
62
1
10
-2.0094998723316877
20
30.875114785409053
30
0.0
11
-1.8495557183329052
21
30.564705401839607
31
0.0
0
LINE
8
1
62
1
10
-1.8495557183329052
20
30.564705401839607
30
0.0
11
-1.7081951803497042
21
30.27021064414326
31
0.0
0
LINE
8
1
62
1
10
-1.7081951803497042
20
30.27021064414326
30
0.0
11
-1.5843829725250234
21
29.99241679193252
31
0.0
0
LINE
8
1
62
1
10
-1.5843829725250234
20
29.99241679193252
30
0.0
11
-1.4770546716516737
21
29.732064102284614
31
0.0
0
LINE
8
1
62
1
10
-1.4770546716516737
20
29.732064102284614
30
0.0
11
-1.3851184974457156
21
29.489845804028334
31
0.0
0
LINE
8
1
62
1
10
-1.3851184974457156
20
29.489845804028334
30
0.0
11
-1.307457126016565
21
29.266407156055603
31
0.0
0
LINE
8
1
62
1
10
-1.307457126016565
20
29.266407156055603
30
0.0
11
-1.242929534332643
21
29.0623445707203
31
0.0
0
LINE
8
1
62
1
10
-1.242929534332643
20
29.0623445707203
30
0.0
11
-1.1903728734482066
21
28.87820480331292
31
0.0
0
LINE
8
1
62
1
10
-1.1903728734482066
20
28.87820480331292
30
0.0
11
-1.1486043682261289
21
28.714484208526027
31
0.0
0
LINE
8
1
62
1
10
-1.1486043682261289
20
28.714484208526027
30
0.0
11
-1.1164232412629984
21
28.571628064749397
31
0.0
0
LINE
8
1
62
1
10
-1.1164232412629984
20
28.571628064749397
30
0.0
11
-1.0926126586969602
21
28.450029966958013
31
0.0
0
LINE
8
1
62
1
10
-1.0926126586969602
20
28.450029966958013
30
0.0
11
-1.0759416955552261
21
28.350031288878725
31
0.0
0
LINE
8
1
62
1
10
-1.0759416955552261
20
28.350031288878725
30
0.0
11
-1.0651673182772212
21
28.271920715043954
31
0.0
0
LINE
8
1
62
1
10
-1.0651673182772212
20
28.271920715043954
30
0.0
11
-1.0590363820308708
21
28.215933843262203
31
0.0
0
LINE
8
1
62
1
10
-1.0590363820308708
20
28.215933843262203
30
0.0
11
-1.0562876404236263
21
28.182252857956495
31
0.0
0
LINE
8
1
62
1
10
-1.0562876404236263
20
28.182252857956495
30
0.0
11
-1.0556537651964808
21
28.17100627474224
31
0.0
0
LINE
8
1
62
1
10
-1.0556537651964808
20
28.17100627474224
30
0.0
11
-1.0335310105643924
21
27.580642009391333
31
0.0
0
LINE
8
1
62
1
10
-1.0335310105643924
20
27.580642009391333
30
0.0
11
1.0335310105643578
21
27.580642009391333
31
0.0
0
LINE
8
1
62
1
10
1.0335310105643578
20
27.580642009391333
30
0.0
11
1.0556537651964453
21
28.17100627474224
31
0.0
0
LINE
8
1
62
1
10
1.0556537651964453
20
28.17100627474224
30
0.0
11
1.056287640423591
21
28.182252857956495
31
0.0
0
LINE
8
1
62
1
10
1.056287640423591
20
28.182252857956495
30
0.0
11
1.0590363820308353
21
28.215933843262203
31
0.0
0
LINE
8
1
62
1
10
1.0590363820308353
20
28.215933843262203
30
0.0
11
1.0651673182771857
21
28.271920715043954
31
0.0
0
LINE
8
1
62
1
10
1.0651673182771857
20
28.271920715043954
30
0.0
11
1.0759416955551906
21
28.350031288878725
31
0.0
0
LINE
8
1
62
1
10
1.0759416955551906
20
28.350031288878725
30
0.0
11
1.0926126586969245
21
28.450029966958013
31
0.0
0
LINE
8
1
62
1
10
1.0926126586969245
20
28.450029966958013
30
0.0
11
1.1164232412629627
21
28.571628064749397
31
0.0
0
LINE
8
1
62
1
10
1.1164232412629627
20
28.571628064749397
30
0.0
11
1.1486043682260927
21
28.714484208526027
31
0.0
0
LINE
8
1
62
1
10
1.1486043682260927
20
28.714484208526027
30
0.0
11
1.1903728734481704
21
28.87820480331292
31
0.0
0
LINE
8
1
62
1
10
1.1903728734481704
20
28.87820480331292
30
0.0
11
1.2429295343326066
21
29.0623445707203
31
0.0
0
LINE
8
1
62
1
10
1.2429295343326066
20
29.0623445707203
30
0.0
11
1.3074571260165282
21
29.266407156055603
31
0.0
0
LINE
8
1
62
1
10
1.3074571260165282
20
29.266407156055603
30
0.0
11
1.3851184974456785
21
29.489845804028334
31
0.0
0
LINE
8
1
62
1
10
1.3851184974456785
20
29.489845804028334
30
0.0
11
1.4770546716516364
21
29.732064102284617
31
0.0
0
LINE
8
1
62
1
10
1.4770546716516364
20
29.732064102284617
30
0.0
11
1.5843829725249858
21
29.99241679193252
31
0.0
0
LINE
8
1
62
1
10
1.5843829725249858
20
29.99241679193252
30
0.0
11
1.708195180349666
21
30.27021064414326
31
0.0
0
LINE
8
1
62
1
10
1.708195180349666
20
30.27021064414326
30
0.0
11
1.8495557183328668
21
30.564705401839607
31
0.0
0
LINE
8
1
62
1
10
1.8495557183328668
20
30.564705401839607
30
0.0
11
2.0094998723316486
21
30.875114785409053
31
0.0
0
LINE
8
1
62
1
10
2.0094998723316486
20
30.875114785409053
30
0.0
11
2.189032045941882
21
31.200607561307
31
0.0
0
LINE
8
1
62
1
10
2.189032045941882
20
31.200607561307
30
0.0
11
2.3891240530770865
21
31.54030867234427
31
0.0
0
LINE
8
1
62
1
10
2.3891240530770865
20
31.54030867234427
30
0.0
11
2.610713450124768
21
31.89330042838339
31
0.0
0
LINE
8
1
62
1
10
2.610713450124768
20
31.89330042838339
30
0.0
11
4.0773269203809095
21
31.73915314116178
31
0.0
0
LINE
8
1
62
1
10
4.0773269203809095
20
31.73915314116178
30
0.0
11
4.220682944608327
21
31.34780407570583
31
0.0
0
LINE
8
1
62
1
10
4.220682944608327
20
31.34780407570583
30
0.0
11
4.345774628945209
21
30.973924781455512
31
0.0
0
LINE
8
1
62
1
10
4.345774628945209
20
30.973924781455512
30
0.0
11
4.453709840430677
21
30.61821796588326
31
0.0
0
LINE
8
1
62
1
10
4.453709840430677
20
30.61821796588326
30
0.0
11
4.545621091132363
21
30.281337512605248
31
0.0
0
LINE
8
1
62
1
10
4.545621091132363
20
30.281337512605248
30
0.0
11
4.622663659189455
21
29.963887663468885
31
0.0
0
LINE
8
1
62
1
10
4.622663659189455
20
29.963887663468885
30
0.0
11
4.686013683702809
21
29.66642226795764
31
0.0
0
LINE
8
1
62
1
10
4.686013683702809
20
29.66642226795764
30
0.0
11
4.736866235779265
21
29.389444100726774
31
0.0
0
LINE
8
1
62
1
10
4.736866235779265
20
29.389444100726774
30
0.0
11
4.776433368062003
21
29.13340424800709
31
0.0
0
LINE
8
1
62
1
10
4.776433368062003
20
29.13340424800709
30
0.0
11
4.8059421451010795
21
28.898701563536296
31
0.0
0
LINE
8
1
62
1
10
4.8059421451010795
20
28.898701563536296
30
0.0
11
4.826632656938132
21
28.685682194599632
31
0.0
0
LINE
8
1
62
1
10
4.826632656938132
20
28.685682194599632
30
0.0
11
4.839756018296366
21
28.4946391786822
31
0.0
0
LINE
8
1
62
1
10
4.839756018296366
20
28.4946391786822
30
0.0
11
4.846572355781748
21
28.325812111157042
31
0.0
0
LINE
8
1
62
1
10
4.846572355781748
20
28.325812111157042
30
0.0
11
4.848348785513339
21
28.179386884352525
31
0.0
0
LINE
8
1
62
1
10
4.848348785513339
20
28.179386884352525
30
0.0
11
4.846357383610354
21
28.055495498263426
31
0.0
0
LINE
8
1
62
1
10
4.846357383610354
20
28.055495498263426
30
0.0
11
4.841873151970358
21
27.954215943089256
31
0.0
0
LINE
8
1
62
1
10
4.841873151970358
20
27.954215943089256
30
0.0
11
4.836171981777505
21
27.87557215370345
31
0.0
0
LINE
8
1
62
1
10
4.836171981777505
20
27.87557215370345
30
0.0
11
4.830528617181384
21
27.81953403607627
31
0.0
0
LINE
8
1
62
1
10
4.830528617181384
20
27.81953403607627
30
0.0
11
4.82621462158623
21
27.78601756559396
31
0.0
0
LINE
8
1
62
1
10
4.82621462158623
20
27.78601756559396
30
0.0
11
4.824496348986829
21
27.774884957136237
31
0.0
0
LINE
8
1
62
1
10
4.824496348986829
20
27.774884957136237
30
0.0
11
4.723392035744337
21
27.192821988103166
31
0.0
0
LINE
8
1
62
1
10
4.723392035744337
20
27.192821988103166
30
0.0
11
6.745283792279395
21
26.763055628265114
31
0.0
0
LINE
8
1
62
1
10
6.745283792279395
20
26.763055628265114
30
0.0
11
6.889666744251886
21
27.335919438655978
31
0.0
0
LINE
8
1
62
1
10
6.889666744251886
20
27.335919438655978
30
0.0
11
6.892625063916482
21
27.34678846697321
31
0.0
0
LINE
8
1
62
1
10
6.892625063916482
20
27.34678846697321
30
0.0
11
6.902316409527962
21
27.379161946425157
31
0.0
0
LINE
8
1
62
1
10
6.902316409527962
20
27.379161946425157
30
0.0
11
6.919953695283323
21
27.43265067740979
31
0.0
0
LINE
8
1
62
1
10
6.919953695283323
20
27.43265067740979
30
0.0
11
6.946732728043937
21
27.506814228800835
31
0.0
0
LINE
8
1
62
1
10
6.946732728043937
20
27.506814228800835
30
0.0
11
6.983830284881951
21
27.60116160770629
31
0.0
0
LINE
8
1
62
1
10
6.983830284881951
20
27.60116160770629
30
0.0
11
7.032402215203026
21
27.715151996834063
31
0.0
0
LINE
8
1
62
1
10
7.032402215203026
20
27.715151996834063
30
0.0
11
7.093581569727226
21
27.84819555859993
31
0.0
0
LINE
8
1
62
1
10
7.093581569727226
20
27.84819555859993
30
0.0
11
7.16847675858027
21
27.999654305037787
31
0.0
0
LINE
8
1
62
1
10
7.16847675858027
20
27.999654305037787
30
0.0
11
7.258169740715419
21
28.168843032498778
31
0.0
0
LINE
8
1
62
1
10
7.258169740715419
20
28.168843032498778
30
0.0
11
7.363714246851885
21
28.35503032005264
31
0.0
0
LINE
8
1
62
1
10
7.363714246851885
20
28.35503032005264
30
0.0
11
7.486134038079048
21
28.55743959043331
31
0.0
0
LINE
8
1
62
1
10
7.486134038079048
20
28.55743959043331
30
0.0
11
7.626421202236715
21
28.775250232300042
31
0.0
0
LINE
8
1
62
1
10
7.626421202236715
20
28.775250232300042
30
0.0
11
7.785534490140466
21
29.00759878251656
31
0.0
0
LINE
8
1
62
1
10
7.785534490140466
20
29.00759878251656
30
0.0
11
7.964397693677645
21
29.253580167082383
31
0.0
0
LINE
8
1
62
1
10
7.964397693677645
20
29.253580167082383
30
0.0
11
8.163898067753967
21
29.512248999284758
31
0.0
0
LINE
8
1
62
1
10
8.163898067753967
20
29.512248999284758
30
0.0
11
8.384884798022897
21
29.78262093357417
31
0.0
0
LINE
8
1
62
1
10
8.384884798022897
20
29.78262093357417
30
0.0
11
8.628167516280179
21
30.063674073603433
31
0.0
0
LINE
8
1
62
1
10
8.628167516280179
20
30.063674073603433
30
0.0
11
8.894514865353921
21
30.35435043280855
31
0.0
0
LINE
8
1
62
1
10
8.894514865353921
20
30.35435043280855
30
0.0
11
9.184653115266986
21
30.65355744584956
31
0.0
0
LINE
8
1
62
1
10
9.184653115266986
20
30.65355744584956
30
0.0
11
10.587168539280697
21
30.19785256031706
31
0.0
0
LINE
8
1
62
1
10
10.587168539280697
20
30.19785256031706
30
0.0
11
10.646025844530584
21
29.78525001750587
31
0.0
0
LINE
8
1
62
1
10
10.646025844530584
20
29.78525001750587
30
0.0
11
10.690650099207122
21
29.39353285927315
31
0.0
0
LINE
8
1
62
1
10
10.690650099207122
20
29.39353285927315
30
0.0
11
10.7222710618953
21
29.02315809873778
31
0.0
0
LINE
8
1
62
1
10
10.7222710618953
20
29.02315809873778
30
0.0
11
10.742132446605114
21
28.67452986809121
31
0.0
0
LINE
8
1
62
1
10
10.742132446605114
20
28.67452986809121
30
0.0
11
10.751489914820745
21
28.34799900921547
31
0.0
0
LINE
8
1
62
1
10
10.751489914820745
20
28.34799900921547
30
0.0
11
10.751609055964394
21
28.043862735584902
31
0.0
0
LINE
8
1
62
1
10
10.751609055964394
20
28.043862735584902
30
0.0
11
10.743763358700596
21
27.762364365767766
31
0.0
0
LINE
8
1
62
1
10
10.743763358700596
20
27.762364365767766
30
0.0
11
10.729232175515193
21
27.503693128764052
31
0.0
0
LINE
8
1
62
1
10
10.729232175515193
20
27.503693128764052
30
0.0
11
10.709298683008766
21
27.26798404133501
31
0.0
0
LINE
8
1
62
1
10
10.709298683008766
20
27.26798404133501
30
0.0
11
10.685247840347579
21
27.055317857399853
31
0.0
0
LINE
8
1
62
1
10
10.685247840347579
20
27.055317857399853
30
0.0
11
10.65836434831538
21
26.865721089494066
31
0.0
0
LINE
8
1
62
1
10
10.65836434831538
20
26.865721089494066
30
0.0
11
10.62993061140754
21
26.699166102203634
31
0.0
0
LINE
8
1
62
1
10
10.62993061140754
20
26.699166102203634
30
0.0
11
10.601224705404068
21
26.555571277408777
31
0.0
0
LINE
8
1
62
1
10
10.601224705404068
20
26.555571277408777
30
0.0
11
10.573518352851023
21
26.434801251090885
31
0.0
0
LINE
8
1
62
1
10
10.573518352851023
20
26.434801251090885
30
0.0
11
10.548074908869696
21
26.336667221376178
31
0.0
0
LINE
8
1
62
1
10
10.548074908869696
20
26.336667221376178
30
0.0
11
10.526147359700662
21
26.260927327410275
31
0.0
0
LINE
8
1
62
1
10
10.526147359700662
20
26.260927327410275
30
0.0
11
10.508976336374788
21
26.20728709857869
31
0.0
0
LINE
8
1
62
1
10
10.508976336374788
20
26.20728709857869
30
0.0
11
10.497788145885592
21
26.17539997350972
31
0.0
0
LINE
8
1
62
1
10
10.497788145885592
20
26.17539997350972
30
0.0
11
10.493792822217424
21
26.164867888218318
31
0.0
0
LINE
8
1
62
1
10
10.493792822217424
20
26.164867888218318
30
0.0
11
10.27388018474137
21
25.61654516029784
31
0.0
0
LINE
8
1
62
1
10
10.27388018474137
20
25.61654516029784
30
0.0
11
12.162235304809073
21
24.775795292794452
31
0.0
0
LINE
8
1
62
1
10
12.162235304809073
20
24.775795292794452
30
0.0
11
12.422568226294498
21
25.306121750805644
31
0.0
0
LINE
8
1
62
1
10
12.422568226294498
20
25.306121750805644
30
0.0
11
12.427721697631608
21
25.316138195533007
31
0.0
0
LINE
8
1
62
1
10
12.427721697631608
20
25.316138195533007
30
0.0
11
12.443932088939867
21
25.34578929273395
31
0.0
0
LINE
8
1
62
1
10
12.443932088939867
20
25.34578929273395
30
0.0
11
12.472304890183642
21
25.394442168710032
31
0.0
0
LINE
8
1
62
1
10
12.472304890183642
20
25.394442168710032
30
0.0
11
12.51391820619517
21
25.46141739458536
31
0.0
0
LINE
8
1
62
1
10
12.51391820619517
20
25.46141739458536
30
0.0
11
12.569821015481816
21
25.545990041129848
31
0.0
0
LINE
8
1
62
1
10
12.569821015481816
20
25.545990041129848
30
0.0
11
12.641031467128917
21
25.64739079460256
31
0.0
0
LINE
8
1
62
1
10
12.641031467128917
20
25.64739079460256
30
0.0
11
12.728535217850364
21
25.764807132294656
31
0.0
0
LINE
8
1
62
1
10
12.728535217850364
20
25.764807132294656
30
0.0
11
12.833283811194507
21
25.89738455638444
31
0.0
0
LINE
8
1
62
1
10
12.833283811194507
20
25.89738455638444
30
0.0
11
12.956193100866383
21
26.044227884651413
31
0.0
0
LINE
8
1
62
1
10
12.956193100866383
20
26.044227884651413
30
0.0
11
13.098141720078496
21
26.204402596532002
31
0.0
0
LINE
8
1
62
1
10
13.098141720078496
20
26.204402596532002
30
0.0
11
13.259969598791715
21
26.376936232937535
31
0.0
0
LINE
8
1
62
1
10
13.259969598791715
20
26.376936232937535
30
0.0
11
13.4424765306549
21
26.56081984819372
31
0.0
0
LINE
8
1
62
1
10
13.4424765306549
20
26.56081984819372
30
0.0
11
13.646420791397393
21
26.755009512402342
31
0.0
0
LINE
8
1
62
1
10
13.646420791397393
20
26.755009512402342
30
0.0
11
13.872517810371619
21
26.95842786246809
31
0.0
0
LINE
8
1
62
1
10
13.872517810371619
20
26.95842786246809
30
0.0
11
14.121438896884923
21
27.169965699978473
31
0.0
0
LINE
8
1
62
1
10
14.121438896884923
20
27.169965699978473
30
0.0
11
14.393810022899263
21
27.388483634070916
31
0.0
0
LINE
8
1
62
1
10
14.393810022899263
20
27.388483634070916
30
0.0
11
14.690210663615748
21
27.61281376736963
31
0.0
0
LINE
8
1
62
1
10
14.690210663615748
20
27.61281376736963
30
0.0
11
15.011172697397125
21
27.841761423025403
31
0.0
0
LINE
8
1
62
1
10
15.011172697397125
20
27.841761423025403
30
0.0
11
15.357179366416581
21
28.074106910843867
31
0.0
0
LINE
8
1
62
1
10
15.357179366416581
20
28.074106910843867
30
0.0
11
16.634300090142773
21
27.3367609172129
31
0.0
0
LINE
8
1
62
1
10
16.634300090142773
20
27.3367609172129
30
0.0
11
16.60608632974703
21
26.920937608053986
31
0.0
0
LINE
8
1
62
1
10
16.60608632974703
20
26.920937608053986
30
0.0
11
16.568292860702925
21
26.52850250532111
31
0.0
0
LINE
8
1
62
1
10
16.568292860702925
20
26.52850250532111
30
0.0
11
16.522217586790127
21
26.159646954113292
31
0.0
0
LINE
8
1
62
1
10
16.522217586790127
20
26.159646954113292
30
0.0
11
16.46916106769075
21
25.81450767268128
31
0.0
0
LINE
8
1
62
1
10
16.46916106769075
20
25.81450767268128
30
0.0
11
16.410424469801782
21
25.49316676946794
31
0.0
0
LINE
8
1
62
1
10
16.410424469801782
20
25.49316676946794
30
0.0
11
16.347307520536045
21
25.195651832283456
31
0.0
0
LINE
8
1
62
1
10
16.347307520536045
20
25.195651832283456
30
0.0
11
16.281106468550256
21
24.921936089420107
31
0.0
0
LINE
8
1
62
1
10
16.281106468550256
20
24.921936089420107
30
0.0
11
16.213112052330267
21
24.671938642431744
31
0.0
0
LINE
8
1
62
1
10
16.213112052330267
20
24.671938642431744
30
0.0
11
16.144607479552377
21
24.445524770222782
31
0.0
0
LINE
8
1
62
1
10
16.144607479552377
20
24.445524770222782
30
0.0
11
16.07686641962599
21
24.242506304012675
31
0.0
0
LINE
8
1
62
1
10
16.07686641962599
20
24.242506304012675
30
0.0
11
16.011151011806476
21
24.062642072662243
31
0.0
0
LINE
8
1
62
1
10
16.011151011806476
20
24.062642072662243
30
0.0
11
15.94870989124849
21
23.905638417770636
31
0.0
0
LINE
8
1
62
1
10
15.94870989124849
20
23.905638417770636
30
0.0
11
15.890776235348524
21
23.771149777873394
31
0.0
0
LINE
8
1
62
1
10
15.890776235348524
20
23.771149777873394
30
0.0
11
15.838565832701821
21
23.658779340995686
31
0.0
0
LINE
8
1
62
1
10
15.838565832701821
20
23.658779340995686
30
0.0
11
15.793275176972335
21
23.56807976473829
31
0.0
0
LINE
8
1
62
1
10
15.793275176972335
20
23.56807976473829
30
0.0
11
15.756079587945866
21
23.49855396299893
31
0.0
0
LINE
8
1
62
1
10
15.756079587945866
20
23.49855396299893
30
0.0
11
15.728131362005291
21
23.449655958357255
31
0.0
0
LINE
8
1
62
1
10
15.728131362005291
20
23.449655958357255
30
0.0
11
15.710557954233323
21
23.420791799078543
31
0.0
0
LINE
8
1
62
1
10
15.710557954233323
20
23.420791799078543
30
0.0
11
15.704460194312379
21
23.41132053961925
31
0.0
0
LINE
8
1
62
1
10
15.704460194312379
20
23.41132053961925
30
0.0
11
15.375350470118379
21
22.920702387165857
31
0.0
0
LINE
8
1
62
1
10
15.375350470118379
20
22.920702387165857
30
0.0
11
17.047638773638564
21
21.705713815572505
31
0.0
0
LINE
8
1
62
1
10
17.047638773638564
20
21.705713815572505
30
0.0
11
17.412543866752053
21
22.170325110200245
31
0.0
0
LINE
8
1
62
1
10
17.412543866752053
20
22.170325110200245
30
0.0
11
17.419667258335146
21
22.17905120463892
31
0.0
0
LINE
8
1
62
1
10
17.419667258335146
20
22.17905120463892
30
0.0
11
17.441688223453927
21
22.20468402435943
31
0.0
0
LINE
8
1
62
1
10
17.441688223453927
20
22.20468402435943
30
0.0
11
17.479556512623958
21
22.246374681184406
31
0.0
0
LINE
8
1
62
1
10
17.479556512623958
20
22.246374681184406
30
0.0
11
17.53418541029385
21
22.30323444279047
31
0.0
0
LINE
8
1
62
1
10
17.53418541029385
20
22.30323444279047
30
0.0
11
17.60645025101186
21
22.37433612649542
31
0.0
0
LINE
8
1
62
1
10
17.60645025101186
20
22.37433612649542
30
0.0
11
17.69718698554235
21
22.45871554481151
31
0.0
0
LINE
8
1
62
1
10
17.69718698554235
20
22.45871554481151
30
0.0
11
17.807190798664934
21
22.555373001046593
31
0.0
0
LINE
8
1
62
1
10
17.807190798664934
20
22.555373001046593
30
0.0
11
17.93721478033152
21
22.663274833178527
31
0.0
0
LINE
8
1
62
1
10
17.93721478033152
20
22.663274833178527
30
0.0
11
18.087968651797254
21
22.781355004173736
31
0.0
0
LINE
8
1
62
1
10
18.087968651797254
20
22.781355004173736
30
0.0
11
18.2601175482804
21
22.90851673686833
31
0.0
0
LINE
8
1
62
1
10
18.2601175482804
20
22.90851673686833
30
0.0
11
18.454280859643585
21
23.043634191479562
31
0.0
0
LINE
8
1
62
1
10
18.454280859643585
20
23.043634191479562
30
0.0
11
18.671031130524447
21
23.18555418376702
31
0.0
0
LINE
8
1
62
1
10
18.671031130524447
20
23.18555418376702
30
0.0
11
18.910893021278092
21
23.333097941816437
31
0.0
0
LINE
8
1
62
1
10
18.910893021278092
20
23.333097941816437
30
0.0
11
19.174342331026327
21
23.485062899374686
31
0.0
0
LINE
8
1
62
1
10
19.174342331026327
20
23.485062899374686
30
0.0
11
19.461805084040083
21
23.640224523622713
31
0.0
0
LINE
8
1
62
1
10
19.461805084040083
20
23.640224523622713
30
0.0
11
19.77365668061134
21
23.797338175232966
31
0.0
0
LINE
8
1
62
1
10
19.77365668061134
20
23.797338175232966
30
0.0
11
20.11022111349964
21
23.95514099852057
31
0.0
0
LINE
8
1
62
1
10
20.11022111349964
20
23.95514099852057
30
0.0
11
20.47177025096569
21
24.1123538394621
31
0.0
0
LINE
8
1
62
1
10
20.47177025096569
20
24.1123538394621
30
0.0
11
20.858523187331183
21
24.267683189322998
31
0.0
0
LINE
8
1
62
1
10
20.858523187331183
20
24.267683189322998
30
0.0
11
21.954432906837862
21
23.28092164569387
31
0.0
0
LINE
8
1
62
1
10
21.954432906837862
20
23.28092164569387
30
0.0
11
21.840381157510418
21
22.880051044139098
31
0.0
0
LINE
8
1
62
1
10
21.840381157510418
20
22.880051044139098
30
0.0
11
21.72182172069609
21
22.504049294008034
31
0.0
0
LINE
8
1
62
1
10
21.72182172069609
20
22.504049294008034
30
0.0
11
21.600063920746
21
22.152833709680863
31
0.0
0
LINE
8
1
62
1
10
21.600063920746
20
22.152833709680863
30
0.0
11
21.4764083223155
21
21.826267620224005
31
0.0
0
LINE
8
1
62
1
10
21.4764083223155
20
21.826267620224005
30
0.0
11
21.352144729499148
21
21.524160812108224
31
0.0
0
LINE
8
1
62
1
10
21.352144729499148
20
21.524160812108224
30
0.0
11
21.228550203375665
21
21.246270041759846
31
0.0
0
LINE
8
1
62
1
10
21.228550203375665
20
21.246270041759846
30
0.0
11
21.106887100307553
21
20.992299617247276
31
0.0
0
LINE
8
1
62
1
10
21.106887100307553
20
20.992299617247276
30
0.0
11
20.9884011333152
21
20.76190204832849
31
0.0
0
LINE
8
1
62
1
10
20.9884011333152
20
20.76190204832849
30
0.0
11
20.874319458817652
21
20.554678764009445
31
0.0
0
LINE
8
1
62
1
10
20.874319458817652
20
20.554678764009445
30
0.0
11
20.76584879100252
21
20.370180896688453
31
0.0
0
LINE
8
1
62
1
10
20.76584879100252
20
20.370180896688453
30
0.0
11
20.664173546054915
21
20.207910131887733
31
0.0
0
LINE
8
1
62
1
10
20.664173546054915
20
20.207910131887733
30
0.0
11
20.57045401844091
21
20.067319622500833
31
0.0
0
LINE
8
1
62
1
10
20.57045401844091
20
20.067319622500833
30
0.0
11
20.4858245914038
21
19.94781496641281
31
0.0
0
LINE
8
1
62
1
10
20.4858245914038
20
19.94781496641281
30
0.0
11
20.41139198379241
21
19.848755246280025
31
0.0
0
LINE
8
1
62
1
10
20.41139198379241
20
19.848755246280025
30
0.0
11
20.34823353529882
21
19.769454130187242
31
0.0
0
LINE
8
1
62
1
10
20.34823353529882
20
19.769454130187242
30
0.0
11
20.29739553213961
21
19.709181031832248
31
0.0
0
LINE
8
1
62
1
10
20.29739553213961
20
19.709181031832248
30
0.0
11
20.259891575168403
21
19.667162328821984
31
0.0
0
LINE
8
1
62
1
10
20.259891575168403
20
19.667162328821984
30
0.0
11
20.236700992359864
21
19.642582637599613
31
0.0
0
LINE
8
1
62
1
10
20.236700992359864
20
19.642582637599613
30
0.0
11
20.228767297554988
21
19.634586143458943
31
0.0
0
LINE
8
1
62
1
10
20.228767297554988
20
19.634586143458943
30
0.0
11
19.804844160833994
21
19.223114933981947
31
0.0
0
LINE
8
1
62
1
10
19.804844160833994
20
19.223114933981947
30
0.0
11
21.187978624413226
21
17.68698848903929
31
0.0
0
LINE
8
1
62
1
10
21.187978624413226
20
17.68698848903929
30
0.0
11
21.641507785576813
21
18.065578877256
31
0.0
0
LINE
8
1
62
1
10
21.641507785576813
20
18.065578877256
30
0.0
11
21.650289771011884
21
18.07263324920657
31
0.0
0
LINE
8
1
62
1
10
21.650289771011884
20
18.07263324920657
30
0.0
11
21.67715888809718
21
18.093127514224946
31
0.0
0
LINE
8
1
62
1
10
21.67715888809718
20
18.093127514224946
30
0.0
11
21.722867639244523
21
18.126033870141594
31
0.0
0
LINE
8
1
62
1
10
21.722867639244523
20
18.126033870141594
30
0.0
11
21.788124573606073
21
18.170293123052804
31
0.0
0
LINE
8
1
62
1
10
21.788124573606073
20
18.170293123052804
30
0.0
11
21.873593125450892
21
18.224816359156577
31
0.0
0
LINE
8
1
62
1
10
21.873593125450892
20
18.224816359156577
30
0.0
11
21.979890512162626
21
18.28848665683826
31
0.0
0
LINE
8
1
62
1
10
21.979890512162626
20
18.28848665683826
30
0.0
11
22.10758669319603
21
18.36016083696492
31
0.0
0
LINE
8
1
62
1
10
22.10758669319603
20
18.36016083696492
30
0.0
11
22.257203391261942
21
18.438671249304395
31
0.0
0
LINE
8
1
62
1
10
22.257203391261942
20
18.438671249304395
30
0.0
11
22.429213176941147
21
18.522827592943834
31
0.0
0
LINE
8
1
62
1
10
22.429213176941147
20
18.522827592943834
30
0.0
11
22.624038617856957
21
18.611418768543977
31
0.0
0
LINE
8
1
62
1
10
22.624038617856957
20
18.611418768543977
30
0.0
11
22.842051493464602
21
18.70321476022892
31
0.0
0
LINE
8
1
62
1
10
22.842051493464602
20
18.70321476022892
30
0.0
11
23.083572076442447
21
18.796968544877014
31
0.0
0
LINE
8
1
62
1
10
23.083572076442447
20
18.796968544877014
30
0.0
11
23.34886848159626
21
18.891418026546965
31
0.0
0
LINE
8
1
62
1
10
23.34886848159626
20
18.891418026546965
30
0.0
11
23.638156083112456
21
18.985287993743654
31
0.0
0
LINE
8
1
62
1
10
23.638156083112456
20
18.985287993743654
30
0.0
11
23.951597000920632
21
19.077292097201607
31
0.0
0
LINE
8
1
62
1
10
23.951597000920632
20
19.077292097201607
30
0.0
11
24.289299656848655
21
19.166134845839355
31
0.0
0
LINE
8
1
62
1
10
24.289299656848655
20
19.166134845839355
30
0.0
11
24.651318401176223
21
19.25051361851622
31
0.0
0
LINE
8
1
62
1
10
24.651318401176223
20
19.25051361851622
30
0.0
11
25.03765321011443
21
19.329120689203453
31
0.0
0
LINE
8
1
62
1
10
25.03765321011443
20
19.329120689203453
30
0.0
11
25.448249454660296
21
19.400645263164947
31
0.0
0
LINE
8
1
62
1
10
25.448249454660296
20
19.400645263164947
30
0.0
11
26.31505165644674
21
18.20759438400148
31
0.0
0
LINE
8
1
62
1
10
26.31505165644674
20
18.20759438400148
30
0.0
11
26.120146526914223
21
17.83919645892935
31
0.0
0
LINE
8
1
62
1
10
26.120146526914223
20
17.83919645892935
30
0.0
11
25.926002738629748
21
17.496061142137414
31
0.0
0
LINE
8
1
62
1
10
25.926002738629748
20
17.496061142137414
30
0.0
11
25.733883812758933
21
17.17783533104534
31
0.0
0
LINE
8
1
62
1
10
25.733883812758933
20
17.17783533104534
30
0.0
11
25.545033478014116
21
16.884114938710862
31
0.0
0
LINE
8
1
62
1
10
25.545033478014116
20
16.884114938710862
30
0.0
11
25.360673805559333
21
16.614445742876597
31
0.0
0
LINE
8
1
62
1
10
25.360673805559333
20
16.614445742876597
30
0.0
11
25.182003376442033
21
16.368324299496418
31
0.0
0
LINE
8
1
62
1
10
25.182003376442033
20
16.368324299496418
30
0.0
11
25.010195483700016
21
16.145198919571126
31
0.0
0
LINE
8
1
62
1
10
25.010195483700016
20
16.145198919571126
30
0.0
11
24.84639637125162
21
15.944470708053874
31
0.0
0
LINE
8
1
62
1
10
24.84639637125162
20
15.944470708053874
30
0.0
11
24.691723511634564
21
15.765494663517128
31
0.0
0
LINE
8
1
62
1
10
24.691723511634564
20
15.765494663517128
30
0.0
11
24.54726392461422
21
15.60758083720617
31
0.0
0
LINE
8
1
62
1
10
24.54726392461422
20
15.60758083720617
30
0.0
11
24.414072538634688
21
15.469995550038472
31
0.0
0
LINE
8
1
62
1
10
24.414072538634688
20
15.469995550038472
30
0.0
11
24.29317059703758
21
15.351962666044605
31
0.0
0
LINE
8
1
62
1
10
24.29317059703758
20
15.351962666044605
30
0.0
11
24.185544110921906
21
15.252664920683808
31
0.0
0
LINE
8
1
62
1
10
24.185544110921906
20
15.252664920683808
30
0.0
11
24.09214236046572
21
15.17124530240702
31
0.0
0
LINE
8
1
62
1
10
24.09214236046572
20
15.17124530240702
30
0.0
11
24.01387644647506
21
15.106808485781077
31
0.0
0
LINE
8
1
62
1
10
24.01387644647506
20
15.106808485781077
30
0.0
11
23.95161789386897
21
15.058422314430981
31
0.0
0
LINE
8
1
62
1
10
23.95161789386897
20
15.058422314430981
30
0.0
11
23.906197308750727
21
15.025119332001784
31
0.0
0
LINE
8
1
62
1
10
23.906197308750727
20
15.025119332001784
30
0.0
11
23.878403090655116
21
15.005898359288619
31
0.0
0
LINE
8
1
62
1
10
23.878403090655116
20
15.005898359288619
30
0.0
11
23.86898020149937
21
14.999726115631953
31
0.0
0
LINE
8
1
62
1
10
23.86898020149937
20
14.999726115631953
30
0.0
11
23.36877112753499
21
14.68538511544342
31
0.0
0
LINE
8
1
62
1
10
23.36877112753499
20
14.68538511544342
30
0.0
11
24.402302138099365
21
12.895256893947916
31
0.0
0
LINE
8
1
62
1
10
24.402302138099365
20
12.895256893947916
30
0.0
11
24.924633966695833
21
13.171280159110292
31
0.0
0
LINE
8
1
62
1
10
24.924633966695833
20
13.171280159110292
30
0.0
11
24.934690731078724
21
13.176354498667882
31
0.0
0
LINE
8
1
62
1
10
24.934690731078724
20
13.176354498667882
30
0.0
11
24.96523369078158
21
13.190814511260422
31
0.0
0
LINE
8
1
62
1
10
24.96523369078158
20
13.190814511260422
30
0.0
11
25.01678521214617
21
13.213498400612975
31
0.0
0
LINE
8
1
62
1
10
25.01678521214617
20
13.213498400612975
30
0.0
11
25.089818142030268
21
13.243222803097652
31
0.0
0
LINE
8
1
62
1
10
25.089818142030268
20
13.243222803097652
30
0.0
11
25.18475501916266
21
13.278784664551
31
0.0
0
LINE
8
1
62
1
10
25.18475501916266
20
13.278784664551
30
0.0
11
25.301967352184885
21
13.318963144065597
31
0.0
0
LINE
8
1
62
1
10
25.301967352184885
20
13.318963144065597
30
0.0
11
25.441774965263694
21
13.362521542481428
31
0.0
0
LINE
8
1
62
1
10
25.441774965263694
20
13.362521542481428
30
0.0
11
25.604445412082878
21
13.408209253274451
31
0.0
0
LINE
8
1
62
1
10
25.604445412082878
20
13.408209253274451
30
0.0
11
25.790193458946845
21
13.454763733514136
31
0.0
0
LINE
8
1
62
1
10
25.790193458946845
20
13.454763733514136
30
0.0
11
25.99918063765111
21
13.500912492538482
31
0.0
0
LINE
8
1
62
1
10
25.99918063765111
20
13.500912492538482
30
0.0
11
26.231514868697317
21
13.545375095974464
31
0.0
0
LINE
8
1
62
1
10
26.231514868697317
20
13.545375095974464
30
0.0
11
26.48725015535167
21
13.586865182713494
31
0.0
0
LINE
8
1
62
1
10
26.48725015535167
20
13.586865182713494
30
0.0
11
26.76638634896704
21
13.624092492436105
31
0.0
0
LINE
8
1
62
1
10
26.76638634896704
20
13.624092492436105
30
0.0
11
27.068868985909013
21
13.655764901266663
31
0.0
0
LINE
8
1
62
1
10
27.068868985909013
20
13.655764901266663
30
0.0
11
27.394589196347
21
13.680590463128752
31
0.0
0
LINE
8
1
62
1
10
27.394589196347
20
13.680590463128752
30
0.0
11
27.7433836850906
21
13.697279454363718
31
0.0
0
LINE
8
1
62
1
10
27.7433836850906
20
13.697279454363718
30
0.0
11
28.11503478457165
21
13.70454641916959
31
0.0
0
LINE
8
1
62
1
10
28.11503478457165
20
13.70454641916959
30
0.0
11
28.509270579991327
21
13.70111221341492
31
0.0
0
LINE
8
1
62
1
10
28.509270579991327
20
13.70111221341492
30
0.0
11
28.92576510657153
21
13.685706044381913
31
0.0
0
LINE
8
1
62
1
10
28.92576510657153
20
13.685706044381913
30
0.0
11
29.52557637504123
21
12.338507877996834
31
0.0
0
LINE
8
1
62
1
10
29.52557637504123
20
12.338507877996834
30
0.0
11
29.258336154722784
21
12.018683386502378
31
0.0
0
LINE
8
1
62
1
10
29.258336154722784
20
12.018683386502378
30
0.0
11
28.99709303012145
21
11.723411162939298
31
0.0
0
LINE
8
1
62
1
10
28.99709303012145
20
11.723411162939298
30
0.0
11
28.743009497279353
21
11.45208312004391
31
0.0
0
LINE
8
1
62
1
10
28.743009497279353
20
11.45208312004391
30
0.0
11
28.497218092053018
21
11.204045415403645
31
0.0
0
LINE
8
1
62
1
10
28.497218092053018
20
11.204045415403645
30
0.0
11
28.260819742301933
21
10.978599669725227
31
0.0
0
LINE
8
1
62
1
10
28.260819742301933
20
10.978599669725227
30
0.0
11
28.034882165299088
21
10.775004241410675
31
0.0
0
LINE
8
1
62
1
10
28.034882165299088
20
10.775004241410675
30
0.0
11
27.820438312221732
21
10.592475555849761
31
0.0
0
LINE
8
1
62
1
10
27.820438312221732
20
10.592475555849761
30
0.0
11
27.618484861526625
21
10.430189487778165
31
0.0
0
LINE
8
1
62
1
10
27.618484861526625
20
10.430189487778165
30
0.0
11
27.429980762958056
21
10.28728279499232
31
0.0
0
LINE
8
1
62
1
10
27.429980762958056
20
10.28728279499232
30
0.0
11
27.2558458338793
21
10.162854601655797
31
0.0
0
LINE
8
1
62
1
10
27.2558458338793
20
10.162854601655797
30
0.0
11
27.09695940955833
21
10.055967929377807
31
0.0
0
LINE
8
1
62
1
10
27.09695940955833
20
10.055967929377807
30
0.0
11
26.9541590489778
21
9.965651274192119
31
0.0
0
LINE
8
1
62
1
10
26.9541590489778
20
9.965651274192119
30
0.0
11
26.82823929767598
21
9.890900227514264
31
0.0
0
LINE
8
1
62
1
10
26.82823929767598
20
9.890900227514264
30
0.0
11
26.719950509061263
21
9.830679139106845
31
0.0
0
LINE
8
1
62
1
10
26.719950509061263
20
9.830679139106845
30
0.0
11
26.629997725576448
21
9.783922820036452
31
0.0
0
LINE
8
1
62
1
10
26.629997725576448
20
9.783922820036452
30
0.0
11
26.55903962102205
21
9.749538283561858
31
0.0
0
LINE
8
1
62
1
10
26.55903962102205
20
9.749538283561858
30
0.0
11
26.507687505278586
21
9.726406521851326
31
0.0
0
LINE
8
1
62
1
10
26.507687505278586
20
9.726406521851326
30
0.0
11
26.476504392598134
21
9.713384316387387
31
0.0
0
LINE
8
1
62
1
10
26.476504392598134
20
9.713384316387387
30
0.0
11
26.46600413456366
21
9.709306079880236
31
0.0
0
LINE
8
1
62
1
10
26.46600413456366
20
9.709306079880236
30
0.0
11
25.91137066015758
21
9.505833499063877
31
0.0
0
LINE
8
1
62
1
10
25.91137066015758
20
9.505833499063877
30
0.0
11
26.55012795311339
21
7.53994069428315
31
0.0
0
LINE
8
1
62
1
10
26.55012795311339
20
7.53994069428315
30
0.0
11
27.118434041806875
21
7.701333295197015
31
0.0
0
LINE
8
1
62
1
10
27.118434041806875
20
7.701333295197015
30
0.0
11
27.129326056276348
21
7.704205829373577
31
0.0
0
LINE
8
1
62
1
10
27.129326056276348
20
7.704205829373577
30
0.0
11
27.162207984696366
21
7.711999617603152
31
0.0
0
LINE
8
1
62
1
10
27.162207984696366
20
7.711999617603152
30
0.0
11
27.217349227422933
21
7.723469645577523
31
0.0
0
LINE
8
1
62
1
10
27.217349227422933
20
7.723469645577523
30
0.0
11
27.29496626334276
21
7.737360098613577
31
0.0
0
LINE
8
1
62
1
10
27.29496626334276
20
7.737360098613577
30
0.0
11
27.395222268674363
21
7.752406361426245
31
0.0
0
LINE
8
1
62
1
10
27.395222268674363
20
7.752406361426245
30
0.0
11
27.51822680660683
21
7.767337030421235
31
0.0
0
LINE
8
1
62
1
10
27.51822680660683
20
7.767337030421235
30
0.0
11
27.664035588168133
21
7.780875936099077
31
0.0
0
LINE
8
1
62
1
10
27.664035588168133
20
7.780875936099077
30
0.0
11
27.832650304635184
21
7.791744173150036
31
0.0
0
LINE
8
1
62
1
10
27.832650304635184
20
7.791744173150036
30
0.0
11
28.02401853171794
21
7.798662135810309
31
0.0
0
LINE
8
1
62
1
10
28.02401853171794
20
7.798662135810309
30
0.0
11
28.238033705669537
21
7.8003515560431795
31
0.0
0
LINE
8
1
62
1
10
28.238033705669537
20
7.8003515560431795
30
0.0
11
28.47453517139425
21
7.7955375421048005
31
0.0
0
LINE
8
1
62
1
10
28.47453517139425
20
7.7955375421048005
30
0.0
11
28.73330830254427
21
7.78295061505275
31
0.0
0
LINE
8
1
62
1
10
28.73330830254427
20
7.78295061505275
30
0.0
11
29.014084693516132
21
7.761328740756693
31
0.0
0
LINE
8
1
62
1
10
29.014084693516132
20
7.761328740756693
30
0.0
11
29.316542423176795
21
7.72941935497414
31
0.0
0
LINE
8
1
62
1
10
29.316542423176795
20
7.72941935497414
30
0.0
11
29.640306390069465
21
7.685981379060735
31
0.0
0
LINE
8
1
62
1
10
29.640306390069465
20
7.685981379060735
30
0.0
11
29.984948718768894
21
7.6297872238932865
31
0.0
0
LINE
8
1
62
1
10
29.984948718768894
20
7.6297872238932865
30
0.0
11
30.349989236976267
21
7.5596247795953815
31
0.0
0
LINE
8
1
62
1
10
30.349989236976267
20
7.5596247795953815
30
0.0
11
30.73489602286434
21
7.474299388669436
31
0.0
0
LINE
8
1
62
1
10
30.73489602286434
20
7.474299388669436
30
0.0
11
31.13908602210485
21
7.3726358001556695
31
0.0
0
LINE
8
1
62
1
10
31.13908602210485
20
7.3726358001556695
30
0.0
11
31.44569172661188
21
5.930169370994043
31
0.0
0
LINE
8
1
62
1
10
31.44569172661188
20
5.930169370994043
30
0.0
11
31.117796095496278
21
5.672896178043749
31
0.0
0
LINE
8
1
62
1
10
31.117796095496278
20
5.672896178043749
30
0.0
11
30.800871212706763
21
5.438391860752563
31
0.0
0
LINE
8
1
62
1
10
30.800871212706763
20
5.438391860752563
30
0.0
11
30.49592774250664
21
5.225819923504793
31
0.0
0
LINE
8
1
62
1
10
30.49592774250664
20
5.225819923504793
30
0.0
11
30.203937530645195
21
5.034305344468476
31
0.0
0
LINE
8
1
62
1
10
30.203937530645195
20
5.034305344468476
30
0.0
11
29.925832245847072
21
4.862936109840764
31
0.0
0
LINE
8
1
62
1
10
29.925832245847072
20
4.862936109840764
30
0.0
11
29.662502077242486
21
4.710764793768442
31
0.0
0
LINE
8
1
62
1
10
29.662502077242486
20
4.710764793768442
30
0.0
11
29.41479448922504
21
4.576810182000727
31
0.0
0
LINE
8
1
62
1
10
29.41479448922504
20
4.576810182000727
30
0.0
11
29.183513035158782
21
4.460058937284475
31
0.0
0
LINE
8
1
62
1
10
29.183513035158782
20
4.460058937284475
30
0.0
11
28.969416231289166
21
4.359467304466666
31
0.0
0
LINE
8
1
62
1
10
28.969416231289166
20
4.359467304466666
30
0.0
11
28.773216492144833
21
4.273962853226097
31
0.0
0
LINE
8
1
62
1
10
28.773216492144833
20
4.273962853226097
30
0.0
11
28.5955791286469
21
4.202446256315524
31
0.0
0
LINE
8
1
62
1
10
28.5955791286469
20
4.202446256315524
30
0.0
11
28.43712141007247
21
4.143793101157024
31
0.0
0
LINE
8
1
62
1
10
28.43712141007247
20
4.143793101157024
30
0.0
11
28.298411690946413
21
4.09685573259725
31
0.0
0
LINE
8
1
62
1
10
28.298411690946413
20
4.09685573259725
30
0.0
11
28.179968603862886
21
4.0604651245954475
31
0.0
0
LINE
8
1
62
1
10
28.179968603862886
20
4.0604651245954475
30
0.0
11
28.082260319163545
21
4.033432778585691
31
0.0
0
LINE
8
1
62
1
10
28.082260319163545
20
4.033432778585691
30
0.0
11
28.00570387232462
21
4.014552646225853
31
0.0
0
LINE
8
1
62
1
10
28.00570387232462
20
4.014552646225853
30
0.0
11
27.95066455982872
21
4.002603074219242
31
0.0
0
LINE
8
1
62
1
10
27.95066455982872
20
4.002603074219242
30
0.0
11
27.91745540422074
21
3.9963487688707815
31
0.0
0
LINE
8
1
62
1
10
27.91745540422074
20
3.9963487688707815
30
0.0
11
27.90633668896948
21
3.994542778018056
31
0.0
0
LINE
8
1
62
1
10
27.90633668896948
20
3.994542778018056
30
0.0
11
27.321518958379933
21
3.910831344725317
31
0.0
0
LINE
8
1
62
1
10
27.321518958379933
20
3.910831344725317
30
0.0
11
27.53758577492745
21
1.855092905628582
31
0.0
0
ENDSEC
0
EOF
