0
SECTION
2
HEADER
0
ENDSEC
0
SECTION
2
TABLES
0
TABLE
2
LTYPE
0
LTYPE
72
65
70
64
2
CONTINUOUS
3
______
73
0
40
0
0
ENDTAB
0
TABLE
2
LAYER
0
ENDTAB
0
ENDSEC
0
SECTION
2
ENTITIES
0
CIRCLE
8
0
10
25
20
0
40
2
0
CIRCLE
8
0
10
25
20
0
40
2
0
LINE
8
layer0
10
29.9787249
20
3.1645549
11
29.9251842
21
3.0289321
0
LINE
8
layer0
10
29.9251842
20
3.0289321
11
29.8702311
21
2.9051314
0
LINE
8
layer0
10
29.8702311
20
2.9051314
11
29.8126592
21
2.7887759
0
LINE
8
layer0
10
29.8126592
20
2.7887759
11
29.7543635
21
2.682479
0
LINE
8
layer0
10
29.7543635
20
2.682479
11
29.6966621
21
2.5869739
0
LINE
8
layer0
10
29.6966621
20
2.5869739
11
29.6389872
21
2.4999628
0
LINE
8
layer0
10
29.6389872
20
2.4999628
11
29.5832931
21
2.4231004
0
LINE
8
layer0
10
29.5832931
20
2.4231004
11
29.5286857
21
2.3539935
0
LINE
8
layer0
10
29.5286857
20
2.3539935
11
29.4762148
21
2.2930671
0
LINE
8
layer0
10
29.4762148
20
2.2930671
11
29.3838178
21
2.1982334
0
LINE
8
layer0
10
29.3838178
20
2.1982334
11
29.3079543
21
2.1322193
0
LINE
8
layer0
10
29.3079543
20
2.1322193
11
29.2626845
21
2.0984157
0
LINE
8
layer0
10
29.2626845
20
2.0984157
11
29.2436785
21
2.0908944
0
LINE
8
layer0
10
29.2436785
20
2.0908944
11
29.1272339
21
2.0588423
0
LINE
8
layer0
10
29.1272339
20
2.0588423
11
29.0209636
21
2.0210745
0
LINE
8
layer0
10
29.0209636
20
2.0210745
11
28.925136
21
1.9783827
0
LINE
8
layer0
10
28.925136
20
1.9783827
11
28.8399375
21
1.9315844
0
LINE
8
layer0
10
28.8399375
20
1.9315844
11
28.7655514
21
1.8814753
0
LINE
8
layer0
10
28.7655514
20
1.8814753
11
28.7020789
21
1.8289084
0
LINE
8
layer0
10
28.7020789
20
1.8289084
11
28.6495766
21
1.7746802
0
LINE
8
layer0
10
28.6495766
20
1.7746802
11
28.6080764
21
1.7196317
0
LINE
8
layer0
10
28.6080764
20
1.7196317
11
28.5775116
21
1.6645824
0
LINE
8
layer0
10
28.5775116
20
1.6645824
11
28.5578189
21
1.6103423
0
LINE
8
layer0
10
28.5578189
20
1.6103423
11
28.5488464
21
1.5577348
0
LINE
8
layer0
10
28.5488464
20
1.5577348
11
28.5504103
21
1.507552
0
LINE
8
layer0
10
28.5504103
20
1.507552
11
28.5602543
21
1.4662526
0
LINE
8
layer0
10
28.5602543
20
1.4662526
11
28.6045262
21
1.3527796
0
LINE
8
layer0
10
28.6045262
20
1.3527796
11
28.6615676
21
1.1897154
0
LINE
8
layer0
10
28.6615676
20
1.1897154
11
28.7112668
21
1.0242657
0
LINE
8
layer0
10
28.7112668
20
1.0242657
11
28.7421479
21
0.9064417
0
LINE
8
layer0
10
28.7421479
20
0.9064417
11
28.7584591
21
0.8672436
0
LINE
8
layer0
10
28.7584591
20
0.8672436
11
28.7866906
21
0.8257256
0
LINE
8
layer0
10
28.7866906
20
0.8257256
11
28.8248714
21
0.7884392
0
LINE
8
layer0
10
28.8248714
20
0.7884392
11
28.8726847
21
0.7561332
0
LINE
8
layer0
10
28.8726847
20
0.7561332
11
28.9297693
21
0.7295628
0
LINE
8
layer0
10
28.9297693
20
0.7295628
11
28.9957004
21
0.7094209
0
LINE
8
layer0
10
28.9957004
20
0.7094209
11
29.0700501
21
0.6964094
0
LINE
8
layer0
10
29.0700501
20
0.6964094
11
29.1522985
21
0.69119
0
LINE
8
layer0
10
29.1522985
20
0.69119
11
29.2419315
21
0.694374
0
LINE
8
layer0
10
29.2419315
20
0.694374
11
29.3383659
21
0.7065918
0
LINE
8
layer0
10
29.3383659
20
0.7065918
11
29.4409857
21
0.7283795
0
LINE
8
layer0
10
29.4409857
20
0.7283795
11
29.5491596
21
0.7602888
0
LINE
8
layer0
10
29.5491596
20
0.7602888
11
29.6622049
21
0.8028025
0
LINE
8
layer0
10
29.6622049
20
0.8028025
11
29.682002
21
0.8078891
0
LINE
8
layer0
10
29.682002
20
0.8078891
11
29.7384953
21
0.8071503
0
LINE
8
layer0
10
29.7384953
20
0.8071503
11
29.8386723
21
0.7983353
0
LINE
8
layer0
10
29.8386723
20
0.7983353
11
29.9691649
21
0.7759228
0
LINE
8
layer0
10
29.9691649
20
0.7759228
11
30.0474263
21
0.7574739
0
LINE
8
layer0
10
30.0474263
20
0.7574739
11
30.1322247
21
0.7336627
0
LINE
8
layer0
10
30.1322247
20
0.7336627
11
30.2224607
21
0.7042159
0
LINE
8
layer0
10
30.2224607
20
0.7042159
11
30.3202646
21
0.6677229
0
LINE
8
layer0
10
30.3202646
20
0.6677229
11
30.4230825
21
0.6243737
0
LINE
8
layer0
10
30.4230825
20
0.6243737
11
30.5327244
21
0.572643
0
LINE
8
layer0
10
30.5327244
20
0.572643
11
30.6476931
21
0.5123493
0
LINE
8
layer0
10
30.6476931
20
0.5123493
11
30.7649193
21
0.4444931
0
LINE
8
layer0
10
30.7649193
20
0.4444931
11
30.8879518
21
0.3662423
0
LINE
8
layer0
10
30.8879518
20
0.3662423
11
30.9927784
21
0.293571
0
ARC
8
layer0
10
24.9999647
20
0
40
6
50
357.1954827
51
362.8045163
0
LINE
8
layer0
10
30.9927784
20
-0.293571
11
30.8879518
21
-0.3662423
0
LINE
8
layer0
10
30.8879518
20
-0.3662423
11
30.7649193
21
-0.4444931
0
LINE
8
layer0
10
30.7649193
20
-0.4444931
11
30.6476931
21
-0.5123493
0
LINE
8
layer0
10
30.6476931
20
-0.5123493
11
30.5327244
21
-0.572643
0
LINE
8
layer0
10
30.5327244
20
-0.572643
11
30.4230825
21
-0.6243737
0
LINE
8
layer0
10
30.4230825
20
-0.6243737
11
30.3202646
21
-0.6677229
0
LINE
8
layer0
10
30.3202646
20
-0.6677229
11
30.2224607
21
-0.7042159
0
LINE
8
layer0
10
30.2224607
20
-0.7042159
11
30.1322247
21
-0.7336627
0
LINE
8
layer0
10
30.1322247
20
-0.7336627
11
30.0474263
21
-0.7574739
0
LINE
8
layer0
10
30.0474263
20
-0.7574739
11
29.9691649
21
-0.7759228
0
LINE
8
layer0
10
29.9691649
20
-0.7759228
11
29.8386723
21
-0.7983353
0
LINE
8
layer0
10
29.8386723
20
-0.7983353
11
29.7384953
21
-0.8071503
0
LINE
8
layer0
10
29.7384953
20
-0.8071503
11
29.682002
21
-0.8078891
0
LINE
8
layer0
10
29.682002
20
-0.8078891
11
29.6622049
21
-0.8028025
0
LINE
8
layer0
10
29.6622049
20
-0.8028025
11
29.5491596
21
-0.7602888
0
LINE
8
layer0
10
29.5491596
20
-0.7602888
11
29.4409857
21
-0.7283795
0
LINE
8
layer0
10
29.4409857
20
-0.7283795
11
29.3383659
21
-0.7065918
0
LINE
8
layer0
10
29.3383659
20
-0.7065918
11
29.2419315
21
-0.694374
0
LINE
8
layer0
10
29.2419315
20
-0.694374
11
29.1522985
21
-0.69119
0
LINE
8
layer0
10
29.1522985
20
-0.69119
11
29.0700501
21
-0.6964094
0
LINE
8
layer0
10
29.0700501
20
-0.6964094
11
28.9957004
21
-0.7094209
0
LINE
8
layer0
10
28.9957004
20
-0.7094209
11
28.9297693
21
-0.7295628
0
LINE
8
layer0
10
28.9297693
20
-0.7295628
11
28.8726847
21
-0.7561332
0
LINE
8
layer0
10
28.8726847
20
-0.7561332
11
28.8248714
21
-0.7884392
0
LINE
8
layer0
10
28.8248714
20
-0.7884392
11
28.7866906
21
-0.8257256
0
LINE
8
layer0
10
28.7866906
20
-0.8257256
11
28.7584591
21
-0.8672436
0
LINE
8
layer0
10
28.7584591
20
-0.8672436
11
28.7421479
21
-0.9064417
0
LINE
8
layer0
10
28.7421479
20
-0.9064417
11
28.7112668
21
-1.0242657
0
LINE
8
layer0
10
28.7112668
20
-1.0242657
11
28.6615676
21
-1.1897154
0
LINE
8
layer0
10
28.6615676
20
-1.1897154
11
28.6045262
21
-1.3527796
0
LINE
8
layer0
10
28.6045262
20
-1.3527796
11
28.5602543
21
-1.4662526
0
LINE
8
layer0
10
28.5602543
20
-1.4662526
11
28.5504103
21
-1.507552
0
LINE
8
layer0
10
28.5504103
20
-1.507552
11
28.5488464
21
-1.5577348
0
LINE
8
layer0
10
28.5488464
20
-1.5577348
11
28.5578189
21
-1.6103423
0
LINE
8
layer0
10
28.5578189
20
-1.6103423
11
28.5775116
21
-1.6645824
0
LINE
8
layer0
10
28.5775116
20
-1.6645824
11
28.6080764
21
-1.7196317
0
LINE
8
layer0
10
28.6080764
20
-1.7196317
11
28.6495766
21
-1.7746802
0
LINE
8
layer0
10
28.6495766
20
-1.7746802
11
28.7020789
21
-1.8289084
0
LINE
8
layer0
10
28.7020789
20
-1.8289084
11
28.7655514
21
-1.8814753
0
LINE
8
layer0
10
28.7655514
20
-1.8814753
11
28.8399375
21
-1.9315844
0
LINE
8
layer0
10
28.8399375
20
-1.9315844
11
28.925136
21
-1.9783827
0
LINE
8
layer0
10
28.925136
20
-1.9783827
11
29.0209636
21
-2.0210745
0
LINE
8
layer0
10
29.0209636
20
-2.0210745
11
29.1272339
21
-2.0588423
0
LINE
8
layer0
10
29.1272339
20
-2.0588423
11
29.2436785
21
-2.0908944
0
LINE
8
layer0
10
29.2436785
20
-2.0908944
11
29.2626845
21
-2.0984157
0
LINE
8
layer0
10
29.2626845
20
-2.0984157
11
29.3079543
21
-2.1322193
0
LINE
8
layer0
10
29.3079543
20
-2.1322193
11
29.3838178
21
-2.1982334
0
LINE
8
layer0
10
29.3838178
20
-2.1982334
11
29.4762148
21
-2.2930671
0
LINE
8
layer0
10
29.4762148
20
-2.2930671
11
29.5286857
21
-2.3539935
0
LINE
8
layer0
10
29.5286857
20
-2.3539935
11
29.5832931
21
-2.4231004
0
LINE
8
layer0
10
29.5832931
20
-2.4231004
11
29.6389872
21
-2.4999628
0
LINE
8
layer0
10
29.6389872
20
-2.4999628
11
29.6966621
21
-2.5869739
0
LINE
8
layer0
10
29.6966621
20
-2.5869739
11
29.7543635
21
-2.682479
0
LINE
8
layer0
10
29.7543635
20
-2.682479
11
29.8126592
21
-2.7887759
0
LINE
8
layer0
10
29.8126592
20
-2.7887759
11
29.8702311
21
-2.9051314
0
LINE
8
layer0
10
29.8702311
20
-2.9051314
11
29.9251842
21
-3.0289321
0
LINE
8
layer0
10
29.9251842
20
-3.0289321
11
29.9787249
21
-3.1645549
0
LINE
8
layer0
10
29.9787249
20
-3.1645549
11
30.0208163
21
-3.2849628
0
ARC
8
layer0
10
24.9999717
20
0.0000212
40
6
50
321.1954783
51
326.8045118
0
LINE
8
layer0
10
29.6757029
20
-3.7599708
11
29.5481812
21
-3.7571475
0
LINE
8
layer0
10
29.5481812
20
-3.7571475
11
29.4026512
21
-3.748137
0
LINE
8
layer0
10
29.4026512
20
-3.748137
11
29.2679283
21
-3.73413
0
LINE
8
layer0
10
29.2679283
20
-3.73413
11
29.1394769
21
-3.7153317
0
LINE
8
layer0
10
29.1394769
20
-3.7153317
11
29.0203682
21
-3.6927368
0
LINE
8
layer0
10
29.0203682
20
-3.6927368
11
28.9117068
21
-3.6673722
0
LINE
8
layer0
10
28.9117068
20
-3.6673722
11
28.8111318
21
-3.639408
0
LINE
8
layer0
10
28.8111318
20
-3.639408
11
28.7208209
21
-3.6101916
0
LINE
8
layer0
10
28.7208209
20
-3.6101916
11
28.6382217
21
-3.579612
0
LINE
8
layer0
10
28.6382217
20
-3.579612
11
28.5640629
21
-3.5485366
0
LINE
8
layer0
10
28.5640629
20
-3.5485366
11
28.4453184
21
-3.489967
0
LINE
8
layer0
10
28.4453184
20
-3.489967
11
28.3590922
21
-3.438216
0
LINE
8
layer0
10
28.3590922
20
-3.438216
11
28.3129539
21
-3.4056078
0
LINE
8
layer0
10
28.3129539
20
-3.4056078
11
28.2999275
21
-3.3898562
0
LINE
8
layer0
10
28.2999275
20
-3.3898562
11
28.2334609
21
-3.2890155
0
LINE
8
layer0
10
28.2334609
20
-3.2890155
11
28.1647022
21
-3.1996173
0
LINE
8
layer0
10
28.1647022
20
-3.1996173
11
28.0944874
21
-3.1216723
0
LINE
8
layer0
10
28.0944874
20
-3.1216723
11
28.0236519
21
-3.0551052
0
LINE
8
layer0
10
28.0236519
20
-3.0551052
11
27.9530087
21
-2.9998443
0
LINE
8
layer0
10
27.9530087
20
-2.9998443
11
27.8834006
21
-2.9557224
0
LINE
8
layer0
10
27.8834006
20
-2.9557224
11
27.8156024
21
-2.9225473
0
LINE
8
layer0
10
27.8156024
20
-2.9225473
11
27.7504239
21
-2.9000892
0
LINE
8
layer0
10
27.7504239
20
-2.9000892
11
27.6886238
21
-2.8880315
0
LINE
8
layer0
10
27.6886238
20
-2.8880315
11
27.630953
21
-2.8860637
0
LINE
8
layer0
10
27.630953
20
-2.8860637
11
27.5781477
21
-2.8937869
0
LINE
8
layer0
10
27.5781477
20
-2.8937869
11
27.5309042
21
-2.9107817
0
LINE
8
layer0
10
27.5309042
20
-2.9107817
11
27.4946682
21
-2.9329061
0
LINE
8
layer0
10
27.4946682
20
-2.9329061
11
27.4004297
21
-3.0100762
0
LINE
8
layer0
10
27.4004297
20
-3.0100762
11
27.2629732
21
-3.1147154
0
LINE
8
layer0
10
27.2629732
20
-3.1147154
11
27.120979
21
-3.213109
0
LINE
8
layer0
10
27.120979
20
-3.213109
11
27.0184646
21
-3.2788882
0
LINE
8
layer0
10
27.0184646
20
-3.2788882
11
26.9862254
21
-3.306514
0
LINE
8
layer0
10
26.9862254
20
-3.306514
11
26.9554635
21
-3.3461935
0
LINE
8
layer0
10
26.9554635
20
-3.3461935
11
26.9318005
21
-3.3940278
0
LINE
8
layer0
10
26.9318005
20
-3.3940278
11
26.9158508
21
-3.449484
0
LINE
8
layer0
10
26.9158508
20
-3.449484
11
26.908221
21
-3.5119854
0
LINE
8
layer0
10
26.908221
20
-3.5119854
11
26.9094387
21
-3.5809138
0
LINE
8
layer0
10
26.9094387
20
-3.5809138
11
26.9200393
21
-3.6556454
0
LINE
8
layer0
10
26.9200393
20
-3.6556454
11
26.9404916
21
-3.7354811
0
LINE
8
layer0
10
26.9404916
20
-3.7354811
11
26.9712179
21
-3.8197433
0
LINE
8
layer0
10
26.9712179
20
-3.8197433
11
27.0126376
21
-3.9076822
0
LINE
8
layer0
10
27.0126376
20
-3.9076822
11
27.0650701
21
-3.9985467
0
LINE
8
layer0
10
27.0650701
20
-3.9985467
11
27.1288452
21
-4.0915657
0
LINE
8
layer0
10
27.1288452
20
-4.0915657
11
27.2042111
21
-4.1859408
0
LINE
8
layer0
10
27.2042111
20
-4.1859408
11
27.2151664
21
-4.2031971
0
LINE
8
layer0
10
27.2151664
20
-4.2031971
11
27.2319212
21
-4.2571537
0
LINE
8
layer0
10
27.2319212
20
-4.2571537
11
27.2544939
21
-4.3551517
0
LINE
8
layer0
10
27.2544939
20
-4.3551517
11
27.2735028
21
-4.4861834
0
LINE
8
layer0
10
27.2735028
20
-4.4861834
11
27.280141
21
-4.5663154
0
LINE
8
layer0
10
27.280141
20
-4.5663154
11
27.2836993
21
-4.6543215
0
LINE
8
layer0
10
27.2836993
20
-4.6543215
11
27.2835782
21
-4.7492406
0
LINE
8
layer0
10
27.2835782
20
-4.7492406
11
27.2790943
21
-4.8535346
0
LINE
8
layer0
10
27.2790943
20
-4.8535346
11
27.2696393
21
-4.9647159
0
LINE
8
layer0
10
27.2696393
20
-4.9647159
11
27.2543217
21
-5.0849772
0
LINE
8
layer0
10
27.2543217
20
-5.0849772
11
27.2325063
21
-5.2129507
0
LINE
8
layer0
10
27.2325063
20
-5.2129507
11
27.2041961
21
-5.3454082
0
LINE
8
layer0
10
27.2041961
20
-5.3454082
11
27.1677943
21
-5.4865998
0
LINE
8
layer0
10
27.1677943
20
-5.4865998
11
27.131073
21
-5.6087525
0
ARC
8
layer0
10
24.9999889
20
0.0000335
40
6
50
285.1954851
51
290.8045185
0
LINE
8
layer0
10
26.5726677
20
-5.7901894
11
26.47116
21
-5.71295
0
LINE
8
layer0
10
26.47116
20
-5.71295
11
26.35872
21
-5.62012
0
LINE
8
layer0
10
26.35872
20
-5.62012
11
26.25796
21
-5.5296
0
LINE
8
layer0
10
26.25796
20
-5.5296
11
26.16509
21
-5.43889
0
LINE
8
layer0
10
26.16509
20
-5.43889
11
26.08201
21
-5.3506
0
LINE
8
layer0
10
26.08201
20
-5.3506
11
26.00901
21
-5.26621
0
LINE
8
layer0
10
26.00901
20
-5.26621
11
25.94408
21
-5.18447
0
LINE
8
layer0
10
25.94408
20
-5.18447
11
25.88819
21
-5.10775
0
LINE
8
layer0
10
25.88819
20
-5.10775
11
25.83934
21
-5.03446
0
LINE
8
layer0
10
25.83934
20
-5.03446
11
25.79761
21
-4.96573
0
LINE
8
layer0
10
25.79761
20
-4.96573
11
25.73597
21
-4.84855
0
LINE
8
layer0
10
25.73597
20
-4.84855
11
25.69663
21
-4.756
0
LINE
8
layer0
10
25.69663
20
-4.756
11
25.67847
21
-4.7025
0
LINE
8
layer0
10
25.67847
20
-4.7025
11
25.67719
21
-4.6821
0
LINE
8
layer0
10
25.67719
20
-4.6821
11
25.68269
21
-4.56145
0
LINE
8
layer0
10
25.68269
20
-4.56145
11
25.67961
21
-4.44871
0
LINE
8
layer0
10
25.67961
20
-4.44871
11
25.66862
21
-4.34438
0
LINE
8
layer0
10
25.66862
20
-4.34438
11
25.65044
21
-4.24889
0
LINE
8
layer0
10
25.65044
20
-4.24889
11
25.62577
21
-4.16266
0
LINE
8
layer0
10
25.62577
20
-4.16266
11
25.59539
21
-4.08605
0
LINE
8
layer0
10
25.59539
20
-4.08605
11
25.56004
21
-4.01936
0
LINE
8
layer0
10
25.56004
20
-4.01936
11
25.52051
21
-3.96288
0
LINE
8
layer0
10
25.52051
20
-3.96288
11
25.4776
21
-3.9168
0
LINE
8
layer0
10
25.4776
20
-3.9168
11
25.4321
21
-3.88131
0
LINE
8
layer0
10
25.4321
20
-3.88131
11
25.38484
21
-3.85652
0
LINE
8
layer0
10
25.38484
20
-3.85652
11
25.33663
21
-3.8425
0
LINE
8
layer0
10
25.33663
20
-3.8425
11
25.29431
21
-3.8391
0
LINE
8
layer0
10
25.29431
20
-3.8391
11
25.17271
21
-3.84614
0
LINE
8
layer0
10
25.17271
20
-3.84614
11
25
21
-3.85
0
LINE
8
layer0
10
25
20
-3.85
11
24.82729
21
-3.84614
0
LINE
8
layer0
10
24.82729
20
-3.84614
11
24.70569
21
-3.8391
0
LINE
8
layer0
10
24.70569
20
-3.8391
11
24.66337
21
-3.8425
0
LINE
8
layer0
10
24.66337
20
-3.8425
11
24.61516
21
-3.85652
0
LINE
8
layer0
10
24.61516
20
-3.85652
11
24.5679
21
-3.88131
0
LINE
8
layer0
10
24.5679
20
-3.88131
11
24.5224
21
-3.9168
0
LINE
8
layer0
10
24.5224
20
-3.9168
11
24.47949
21
-3.96288
0
LINE
8
layer0
10
24.47949
20
-3.96288
11
24.43996
21
-4.01936
0
LINE
8
layer0
10
24.43996
20
-4.01936
11
24.40461
21
-4.08605
0
LINE
8
layer0
10
24.40461
20
-4.08605
11
24.37423
21
-4.16266
0
LINE
8
layer0
10
24.37423
20
-4.16266
11
24.34956
21
-4.24889
0
LINE
8
layer0
10
24.34956
20
-4.24889
11
24.33138
21
-4.34438
0
LINE
8
layer0
10
24.33138
20
-4.34438
11
24.32039
21
-4.44871
0
LINE
8
layer0
10
24.32039
20
-4.44871
11
24.31731
21
-4.56145
0
LINE
8
layer0
10
24.31731
20
-4.56145
11
24.32281
21
-4.6821
0
LINE
8
layer0
10
24.32281
20
-4.6821
11
24.32153
21
-4.7025
0
LINE
8
layer0
10
24.32153
20
-4.7025
11
24.30337
21
-4.756
0
LINE
8
layer0
10
24.30337
20
-4.756
11
24.26403
21
-4.84855
0
LINE
8
layer0
10
24.26403
20
-4.84855
11
24.20239
21
-4.96573
0
LINE
8
layer0
10
24.20239
20
-4.96573
11
24.16066
21
-5.03446
0
LINE
8
layer0
10
24.16066
20
-5.03446
11
24.11181
21
-5.10775
0
LINE
8
layer0
10
24.11181
20
-5.10775
11
24.05592
21
-5.18447
0
LINE
8
layer0
10
24.05592
20
-5.18447
11
23.99099
21
-5.26621
0
LINE
8
layer0
10
23.99099
20
-5.26621
11
23.91799
21
-5.3506
0
LINE
8
layer0
10
23.91799
20
-5.3506
11
23.83491
21
-5.43889
0
LINE
8
layer0
10
23.83491
20
-5.43889
11
23.74204
21
-5.5296
0
LINE
8
layer0
10
23.74204
20
-5.5296
11
23.64128
21
-5.62012
0
LINE
8
layer0
10
23.64128
20
-5.62012
11
23.52884
21
-5.71295
0
LINE
8
layer0
10
23.52884
20
-5.71295
11
23.4273323
21
-5.7901894
0
ARC
8
layer0
10
25.0000111
20
0.0000335
40
6
50
249.1954815
51
254.8045149
0
LINE
8
layer0
10
22.868927
20
-5.6087525
11
22.8322057
21
-5.4865998
0
LINE
8
layer0
10
22.8322057
20
-5.4865998
11
22.7958039
21
-5.3454082
0
LINE
8
layer0
10
22.7958039
20
-5.3454082
11
22.7674937
21
-5.2129507
0
LINE
8
layer0
10
22.7674937
20
-5.2129507
11
22.7456783
21
-5.0849772
0
LINE
8
layer0
10
22.7456783
20
-5.0849772
11
22.7303607
21
-4.9647159
0
LINE
8
layer0
10
22.7303607
20
-4.9647159
11
22.7209057
21
-4.8535346
0
LINE
8
layer0
10
22.7209057
20
-4.8535346
11
22.7164218
21
-4.7492406
0
LINE
8
layer0
10
22.7164218
20
-4.7492406
11
22.7163007
21
-4.6543215
0
LINE
8
layer0
10
22.7163007
20
-4.6543215
11
22.719859
21
-4.5663154
0
LINE
8
layer0
10
22.719859
20
-4.5663154
11
22.7264972
21
-4.4861834
0
LINE
8
layer0
10
22.7264972
20
-4.4861834
11
22.7455061
21
-4.3551517
0
LINE
8
layer0
10
22.7455061
20
-4.3551517
11
22.7680788
21
-4.2571537
0
LINE
8
layer0
10
22.7680788
20
-4.2571537
11
22.7848336
21
-4.2031971
0
LINE
8
layer0
10
22.7848336
20
-4.2031971
11
22.7957889
21
-4.1859408
0
LINE
8
layer0
10
22.7957889
20
-4.1859408
11
22.8711548
21
-4.0915657
0
LINE
8
layer0
10
22.8711548
20
-4.0915657
11
22.9349299
21
-3.9985467
0
LINE
8
layer0
10
22.9349299
20
-3.9985467
11
22.9873624
21
-3.9076822
0
LINE
8
layer0
10
22.9873624
20
-3.9076822
11
23.0287821
21
-3.8197433
0
LINE
8
layer0
10
23.0287821
20
-3.8197433
11
23.0595084
21
-3.7354811
0
LINE
8
layer0
10
23.0595084
20
-3.7354811
11
23.0799607
21
-3.6556454
0
LINE
8
layer0
10
23.0799607
20
-3.6556454
11
23.0905613
21
-3.5809138
0
LINE
8
layer0
10
23.0905613
20
-3.5809138
11
23.091779
21
-3.5119854
0
LINE
8
layer0
10
23.091779
20
-3.5119854
11
23.0841492
21
-3.449484
0
LINE
8
layer0
10
23.0841492
20
-3.449484
11
23.0681995
21
-3.3940278
0
LINE
8
layer0
10
23.0681995
20
-3.3940278
11
23.0445365
21
-3.3461935
0
LINE
8
layer0
10
23.0445365
20
-3.3461935
11
23.0137746
21
-3.306514
0
LINE
8
layer0
10
23.0137746
20
-3.306514
11
22.9815354
21
-3.2788882
0
LINE
8
layer0
10
22.9815354
20
-3.2788882
11
22.879021
21
-3.213109
0
LINE
8
layer0
10
22.879021
20
-3.213109
11
22.7370268
21
-3.1147154
0
LINE
8
layer0
10
22.7370268
20
-3.1147154
11
22.5995703
21
-3.0100762
0
LINE
8
layer0
10
22.5995703
20
-3.0100762
11
22.5053318
21
-2.9329061
0
LINE
8
layer0
10
22.5053318
20
-2.9329061
11
22.4690958
21
-2.9107817
0
LINE
8
layer0
10
22.4690958
20
-2.9107817
11
22.4218523
21
-2.8937869
0
LINE
8
layer0
10
22.4218523
20
-2.8937869
11
22.369047
21
-2.8860637
0
LINE
8
layer0
10
22.369047
20
-2.8860637
11
22.3113762
21
-2.8880315
0
LINE
8
layer0
10
22.3113762
20
-2.8880315
11
22.2495761
21
-2.9000892
0
LINE
8
layer0
10
22.2495761
20
-2.9000892
11
22.1843976
21
-2.9225473
0
LINE
8
layer0
10
22.1843976
20
-2.9225473
11
22.1165994
21
-2.9557224
0
LINE
8
layer0
10
22.1165994
20
-2.9557224
11
22.0469913
21
-2.9998443
0
LINE
8
layer0
10
22.0469913
20
-2.9998443
11
21.9763481
21
-3.0551052
0
LINE
8
layer0
10
21.9763481
20
-3.0551052
11
21.9055126
21
-3.1216723
0
LINE
8
layer0
10
21.9055126
20
-3.1216723
11
21.8352978
21
-3.1996173
0
LINE
8
layer0
10
21.8352978
20
-3.1996173
11
21.7665391
21
-3.2890155
0
LINE
8
layer0
10
21.7665391
20
-3.2890155
11
21.7000725
21
-3.3898562
0
LINE
8
layer0
10
21.7000725
20
-3.3898562
11
21.6870461
21
-3.4056078
0
LINE
8
layer0
10
21.6870461
20
-3.4056078
11
21.6409078
21
-3.438216
0
LINE
8
layer0
10
21.6409078
20
-3.438216
11
21.5546816
21
-3.489967
0
LINE
8
layer0
10
21.5546816
20
-3.489967
11
21.4359371
21
-3.5485366
0
LINE
8
layer0
10
21.4359371
20
-3.5485366
11
21.3617783
21
-3.579612
0
LINE
8
layer0
10
21.3617783
20
-3.579612
11
21.2791791
21
-3.6101916
0
LINE
8
layer0
10
21.2791791
20
-3.6101916
11
21.1888682
21
-3.639408
0
LINE
8
layer0
10
21.1888682
20
-3.639408
11
21.0882932
21
-3.6673722
0
LINE
8
layer0
10
21.0882932
20
-3.6673722
11
20.9796318
21
-3.6927368
0
LINE
8
layer0
10
20.9796318
20
-3.6927368
11
20.8605231
21
-3.7153317
0
LINE
8
layer0
10
20.8605231
20
-3.7153317
11
20.7320717
21
-3.73413
0
LINE
8
layer0
10
20.7320717
20
-3.73413
11
20.5973488
21
-3.748137
0
LINE
8
layer0
10
20.5973488
20
-3.748137
11
20.4518188
21
-3.7571475
0
LINE
8
layer0
10
20.4518188
20
-3.7571475
11
20.3242971
21
-3.7599708
0
ARC
8
layer0
10
25.0000282
20
0.0000211
40
6
50
213.1954882
51
218.8045217
0
LINE
8
layer0
10
19.9791837
20
-3.2849628
11
20.0212751
21
-3.1645549
0
LINE
8
layer0
10
20.0212751
20
-3.1645549
11
20.0748158
21
-3.0289321
0
LINE
8
layer0
10
20.0748158
20
-3.0289321
11
20.1297689
21
-2.9051314
0
LINE
8
layer0
10
20.1297689
20
-2.9051314
11
20.1873408
21
-2.7887759
0
LINE
8
layer0
10
20.1873408
20
-2.7887759
11
20.2456365
21
-2.682479
0
LINE
8
layer0
10
20.2456365
20
-2.682479
11
20.3033379
21
-2.5869739
0
LINE
8
layer0
10
20.3033379
20
-2.5869739
11
20.3610128
21
-2.4999628
0
LINE
8
layer0
10
20.3610128
20
-2.4999628
11
20.4167069
21
-2.4231004
0
LINE
8
layer0
10
20.4167069
20
-2.4231004
11
20.4713143
21
-2.3539935
0
LINE
8
layer0
10
20.4713143
20
-2.3539935
11
20.5237852
21
-2.2930671
0
LINE
8
layer0
10
20.5237852
20
-2.2930671
11
20.6161822
21
-2.1982334
0
LINE
8
layer0
10
20.6161822
20
-2.1982334
11
20.6920457
21
-2.1322193
0
LINE
8
layer0
10
20.6920457
20
-2.1322193
11
20.7373155
21
-2.0984157
0
LINE
8
layer0
10
20.7373155
20
-2.0984157
11
20.7563215
21
-2.0908944
0
LINE
8
layer0
10
20.7563215
20
-2.0908944
11
20.8727661
21
-2.0588423
0
LINE
8
layer0
10
20.8727661
20
-2.0588423
11
20.9790364
21
-2.0210745
0
LINE
8
layer0
10
20.9790364
20
-2.0210745
11
21.074864
21
-1.9783827
0
LINE
8
layer0
10
21.074864
20
-1.9783827
11
21.1600625
21
-1.9315844
0
LINE
8
layer0
10
21.1600625
20
-1.9315844
11
21.2344486
21
-1.8814753
0
LINE
8
layer0
10
21.2344486
20
-1.8814753
11
21.2979211
21
-1.8289084
0
LINE
8
layer0
10
21.2979211
20
-1.8289084
11
21.3504234
21
-1.7746802
0
LINE
8
layer0
10
21.3504234
20
-1.7746802
11
21.3919236
21
-1.7196317
0
LINE
8
layer0
10
21.3919236
20
-1.7196317
11
21.4224884
21
-1.6645824
0
LINE
8
layer0
10
21.4224884
20
-1.6645824
11
21.4421811
21
-1.6103423
0
LINE
8
layer0
10
21.4421811
20
-1.6103423
11
21.4511536
21
-1.5577348
0
LINE
8
layer0
10
21.4511536
20
-1.5577348
11
21.4495897
21
-1.507552
0
LINE
8
layer0
10
21.4495897
20
-1.507552
11
21.4397457
21
-1.4662526
0
LINE
8
layer0
10
21.4397457
20
-1.4662526
11
21.3954738
21
-1.3527796
0
LINE
8
layer0
10
21.3954738
20
-1.3527796
11
21.3384324
21
-1.1897154
0
LINE
8
layer0
10
21.3384324
20
-1.1897154
11
21.2887332
21
-1.0242657
0
LINE
8
layer0
10
21.2887332
20
-1.0242657
11
21.2578521
21
-0.9064417
0
LINE
8
layer0
10
21.2578521
20
-0.9064417
11
21.2415409
21
-0.8672436
0
LINE
8
layer0
10
21.2415409
20
-0.8672436
11
21.2133094
21
-0.8257256
0
LINE
8
layer0
10
21.2133094
20
-0.8257256
11
21.1751286
21
-0.7884392
0
LINE
8
layer0
10
21.1751286
20
-0.7884392
11
21.1273153
21
-0.7561332
0
LINE
8
layer0
10
21.1273153
20
-0.7561332
11
21.0702307
21
-0.7295628
0
LINE
8
layer0
10
21.0702307
20
-0.7295628
11
21.0042996
21
-0.7094209
0
LINE
8
layer0
10
21.0042996
20
-0.7094209
11
20.9299499
21
-0.6964094
0
LINE
8
layer0
10
20.9299499
20
-0.6964094
11
20.8477015
21
-0.69119
0
LINE
8
layer0
10
20.8477015
20
-0.69119
11
20.7580685
21
-0.694374
0
LINE
8
layer0
10
20.7580685
20
-0.694374
11
20.6616341
21
-0.7065918
0
LINE
8
layer0
10
20.6616341
20
-0.7065918
11
20.5590143
21
-0.7283795
0
LINE
8
layer0
10
20.5590143
20
-0.7283795
11
20.4508404
21
-0.7602888
0
LINE
8
layer0
10
20.4508404
20
-0.7602888
11
20.3377951
21
-0.8028025
0
LINE
8
layer0
10
20.3377951
20
-0.8028025
11
20.317998
21
-0.8078891
0
LINE
8
layer0
10
20.317998
20
-0.8078891
11
20.2615047
21
-0.8071503
0
LINE
8
layer0
10
20.2615047
20
-0.8071503
11
20.1613277
21
-0.7983353
0
LINE
8
layer0
10
20.1613277
20
-0.7983353
11
20.0308351
21
-0.7759228
0
LINE
8
layer0
10
20.0308351
20
-0.7759228
11
19.9525737
21
-0.7574739
0
LINE
8
layer0
10
19.9525737
20
-0.7574739
11
19.8677753
21
-0.7336627
0
LINE
8
layer0
10
19.8677753
20
-0.7336627
11
19.7775393
21
-0.7042159
0
LINE
8
layer0
10
19.7775393
20
-0.7042159
11
19.6797354
21
-0.6677229
0
LINE
8
layer0
10
19.6797354
20
-0.6677229
11
19.5769175
21
-0.6243737
0
LINE
8
layer0
10
19.5769175
20
-0.6243737
11
19.4672756
21
-0.572643
0
LINE
8
layer0
10
19.4672756
20
-0.572643
11
19.3523069
21
-0.5123493
0
LINE
8
layer0
10
19.3523069
20
-0.5123493
11
19.2350807
21
-0.4444931
0
LINE
8
layer0
10
19.2350807
20
-0.4444931
11
19.1120482
21
-0.3662423
0
LINE
8
layer0
10
19.1120482
20
-0.3662423
11
19.0072216
21
-0.293571
0
ARC
8
layer0
10
25.0000353
20
1e-7
40
6
50
177.1954837
51
182.8045173
0
LINE
8
layer0
10
19.0072216
20
0.293571
11
19.1120482
21
0.3662423
0
LINE
8
layer0
10
19.1120482
20
0.3662423
11
19.2350807
21
0.4444931
0
LINE
8
layer0
10
19.2350807
20
0.4444931
11
19.3523069
21
0.5123493
0
LINE
8
layer0
10
19.3523069
20
0.5123493
11
19.4672756
21
0.572643
0
LINE
8
layer0
10
19.4672756
20
0.572643
11
19.5769175
21
0.6243737
0
LINE
8
layer0
10
19.5769175
20
0.6243737
11
19.6797354
21
0.6677229
0
LINE
8
layer0
10
19.6797354
20
0.6677229
11
19.7775393
21
0.7042159
0
LINE
8
layer0
10
19.7775393
20
0.7042159
11
19.8677753
21
0.7336627
0
LINE
8
layer0
10
19.8677753
20
0.7336627
11
19.9525737
21
0.7574739
0
LINE
8
layer0
10
19.9525737
20
0.7574739
11
20.0308351
21
0.7759228
0
LINE
8
layer0
10
20.0308351
20
0.7759228
11
20.1613277
21
0.7983353
0
LINE
8
layer0
10
20.1613277
20
0.7983353
11
20.2615047
21
0.8071503
0
LINE
8
layer0
10
20.2615047
20
0.8071503
11
20.317998
21
0.8078891
0
LINE
8
layer0
10
20.317998
20
0.8078891
11
20.3377951
21
0.8028025
0
LINE
8
layer0
10
20.3377951
20
0.8028025
11
20.4508404
21
0.7602888
0
LINE
8
layer0
10
20.4508404
20
0.7602888
11
20.5590143
21
0.7283795
0
LINE
8
layer0
10
20.5590143
20
0.7283795
11
20.6616341
21
0.7065918
0
LINE
8
layer0
10
20.6616341
20
0.7065918
11
20.7580685
21
0.694374
0
LINE
8
layer0
10
20.7580685
20
0.694374
11
20.8477015
21
0.69119
0
LINE
8
layer0
10
20.8477015
20
0.69119
11
20.9299499
21
0.6964094
0
LINE
8
layer0
10
20.9299499
20
0.6964094
11
21.0042996
21
0.7094209
0
LINE
8
layer0
10
21.0042996
20
0.7094209
11
21.0702307
21
0.7295628
0
LINE
8
layer0
10
21.0702307
20
0.7295628
11
21.1273153
21
0.7561332
0
LINE
8
layer0
10
21.1273153
20
0.7561332
11
21.1751286
21
0.7884392
0
LINE
8
layer0
10
21.1751286
20
0.7884392
11
21.2133094
21
0.8257256
0
LINE
8
layer0
10
21.2133094
20
0.8257256
11
21.2415409
21
0.8672436
0
LINE
8
layer0
10
21.2415409
20
0.8672436
11
21.2578521
21
0.9064417
0
LINE
8
layer0
10
21.2578521
20
0.9064417
11
21.2887332
21
1.0242657
0
LINE
8
layer0
10
21.2887332
20
1.0242657
11
21.3384324
21
1.1897154
0
LINE
8
layer0
10
21.3384324
20
1.1897154
11
21.3954738
21
1.3527796
0
LINE
8
layer0
10
21.3954738
20
1.3527796
11
21.4397457
21
1.4662526
0
LINE
8
layer0
10
21.4397457
20
1.4662526
11
21.4495897
21
1.507552
0
LINE
8
layer0
10
21.4495897
20
1.507552
11
21.4511536
21
1.5577348
0
LINE
8
layer0
10
21.4511536
20
1.5577348
11
21.4421811
21
1.6103423
0
LINE
8
layer0
10
21.4421811
20
1.6103423
11
21.4224884
21
1.6645824
0
LINE
8
layer0
10
21.4224884
20
1.6645824
11
21.3919236
21
1.7196317
0
LINE
8
layer0
10
21.3919236
20
1.7196317
11
21.3504234
21
1.7746802
0
LINE
8
layer0
10
21.3504234
20
1.7746802
11
21.2979211
21
1.8289084
0
LINE
8
layer0
10
21.2979211
20
1.8289084
11
21.2344486
21
1.8814753
0
LINE
8
layer0
10
21.2344486
20
1.8814753
11
21.1600625
21
1.9315844
0
LINE
8
layer0
10
21.1600625
20
1.9315844
11
21.074864
21
1.9783827
0
LINE
8
layer0
10
21.074864
20
1.9783827
11
20.9790364
21
2.0210745
0
LINE
8
layer0
10
20.9790364
20
2.0210745
11
20.8727661
21
2.0588423
0
LINE
8
layer0
10
20.8727661
20
2.0588423
11
20.7563215
21
2.0908944
0
LINE
8
layer0
10
20.7563215
20
2.0908944
11
20.7373155
21
2.0984157
0
LINE
8
layer0
10
20.7373155
20
2.0984157
11
20.6920457
21
2.1322193
0
LINE
8
layer0
10
20.6920457
20
2.1322193
11
20.6161822
21
2.1982334
0
LINE
8
layer0
10
20.6161822
20
2.1982334
11
20.5237852
21
2.2930671
0
LINE
8
layer0
10
20.5237852
20
2.2930671
11
20.4713143
21
2.3539935
0
LINE
8
layer0
10
20.4713143
20
2.3539935
11
20.4167069
21
2.4231004
0
LINE
8
layer0
10
20.4167069
20
2.4231004
11
20.3610128
21
2.4999628
0
LINE
8
layer0
10
20.3610128
20
2.4999628
11
20.3033379
21
2.5869739
0
LINE
8
layer0
10
20.3033379
20
2.5869739
11
20.2456365
21
2.682479
0
LINE
8
layer0
10
20.2456365
20
2.682479
11
20.1873408
21
2.7887759
0
LINE
8
layer0
10
20.1873408
20
2.7887759
11
20.1297689
21
2.9051314
0
LINE
8
layer0
10
20.1297689
20
2.9051314
11
20.0748158
21
3.0289321
0
LINE
8
layer0
10
20.0748158
20
3.0289321
11
20.0212751
21
3.1645549
0
LINE
8
layer0
10
20.0212751
20
3.1645549
11
19.9791837
21
3.2849628
0
ARC
8
layer0
10
25.0000283
20
-0.0000212
40
6
50
141.1954783
51
146.8045118
0
LINE
8
layer0
10
20.3242971
20
3.7599708
11
20.4518188
21
3.7571475
0
LINE
8
layer0
10
20.4518188
20
3.7571475
11
20.5973488
21
3.748137
0
LINE
8
layer0
10
20.5973488
20
3.748137
11
20.7320717
21
3.73413
0
LINE
8
layer0
10
20.7320717
20
3.73413
11
20.8605231
21
3.7153317
0
LINE
8
layer0
10
20.8605231
20
3.7153317
11
20.9796318
21
3.6927368
0
LINE
8
layer0
10
20.9796318
20
3.6927368
11
21.0882932
21
3.6673722
0
LINE
8
layer0
10
21.0882932
20
3.6673722
11
21.1888682
21
3.639408
0
LINE
8
layer0
10
21.1888682
20
3.639408
11
21.2791791
21
3.6101916
0
LINE
8
layer0
10
21.2791791
20
3.6101916
11
21.3617783
21
3.579612
0
LINE
8
layer0
10
21.3617783
20
3.579612
11
21.4359371
21
3.5485366
0
LINE
8
layer0
10
21.4359371
20
3.5485366
11
21.5546816
21
3.489967
0
LINE
8
layer0
10
21.5546816
20
3.489967
11
21.6409078
21
3.438216
0
LINE
8
layer0
10
21.6409078
20
3.438216
11
21.6870461
21
3.4056078
0
LINE
8
layer0
10
21.6870461
20
3.4056078
11
21.7000725
21
3.3898562
0
LINE
8
layer0
10
21.7000725
20
3.3898562
11
21.7665391
21
3.2890155
0
LINE
8
layer0
10
21.7665391
20
3.2890155
11
21.8352978
21
3.1996173
0
LINE
8
layer0
10
21.8352978
20
3.1996173
11
21.9055126
21
3.1216723
0
LINE
8
layer0
10
21.9055126
20
3.1216723
11
21.9763481
21
3.0551052
0
LINE
8
layer0
10
21.9763481
20
3.0551052
11
22.0469913
21
2.9998443
0
LINE
8
layer0
10
22.0469913
20
2.9998443
11
22.1165994
21
2.9557224
0
LINE
8
layer0
10
22.1165994
20
2.9557224
11
22.1843976
21
2.9225473
0
LINE
8
layer0
10
22.1843976
20
2.9225473
11
22.2495761
21
2.9000892
0
LINE
8
layer0
10
22.2495761
20
2.9000892
11
22.3113762
21
2.8880315
0
LINE
8
layer0
10
22.3113762
20
2.8880315
11
22.369047
21
2.8860637
0
LINE
8
layer0
10
22.369047
20
2.8860637
11
22.4218523
21
2.8937869
0
LINE
8
layer0
10
22.4218523
20
2.8937869
11
22.4690958
21
2.9107817
0
LINE
8
layer0
10
22.4690958
20
2.9107817
11
22.5053318
21
2.9329061
0
LINE
8
layer0
10
22.5053318
20
2.9329061
11
22.5995703
21
3.0100762
0
LINE
8
layer0
10
22.5995703
20
3.0100762
11
22.7370268
21
3.1147154
0
LINE
8
layer0
10
22.7370268
20
3.1147154
11
22.879021
21
3.213109
0
LINE
8
layer0
10
22.879021
20
3.213109
11
22.9815354
21
3.2788882
0
LINE
8
layer0
10
22.9815354
20
3.2788882
11
23.0137746
21
3.306514
0
LINE
8
layer0
10
23.0137746
20
3.306514
11
23.0445365
21
3.3461935
0
LINE
8
layer0
10
23.0445365
20
3.3461935
11
23.0681995
21
3.3940278
0
LINE
8
layer0
10
23.0681995
20
3.3940278
11
23.0841492
21
3.449484
0
LINE
8
layer0
10
23.0841492
20
3.449484
11
23.091779
21
3.5119854
0
LINE
8
layer0
10
23.091779
20
3.5119854
11
23.0905613
21
3.5809138
0
LINE
8
layer0
10
23.0905613
20
3.5809138
11
23.0799607
21
3.6556454
0
LINE
8
layer0
10
23.0799607
20
3.6556454
11
23.0595084
21
3.7354811
0
LINE
8
layer0
10
23.0595084
20
3.7354811
11
23.0287821
21
3.8197433
0
LINE
8
layer0
10
23.0287821
20
3.8197433
11
22.9873624
21
3.9076822
0
LINE
8
layer0
10
22.9873624
20
3.9076822
11
22.9349299
21
3.9985467
0
LINE
8
layer0
10
22.9349299
20
3.9985467
11
22.8711548
21
4.0915657
0
LINE
8
layer0
10
22.8711548
20
4.0915657
11
22.7957889
21
4.1859408
0
LINE
8
layer0
10
22.7957889
20
4.1859408
11
22.7848336
21
4.2031971
0
LINE
8
layer0
10
22.7848336
20
4.2031971
11
22.7680788
21
4.2571537
0
LINE
8
layer0
10
22.7680788
20
4.2571537
11
22.7455061
21
4.3551517
0
LINE
8
layer0
10
22.7455061
20
4.3551517
11
22.7264972
21
4.4861834
0
LINE
8
layer0
10
22.7264972
20
4.4861834
11
22.719859
21
4.5663154
0
LINE
8
layer0
10
22.719859
20
4.5663154
11
22.7163007
21
4.6543215
0
LINE
8
layer0
10
22.7163007
20
4.6543215
11
22.7164218
21
4.7492406
0
LINE
8
layer0
10
22.7164218
20
4.7492406
11
22.7209057
21
4.8535346
0
LINE
8
layer0
10
22.7209057
20
4.8535346
11
22.7303607
21
4.9647159
0
LINE
8
layer0
10
22.7303607
20
4.9647159
11
22.7456783
21
5.0849772
0
LINE
8
layer0
10
22.7456783
20
5.0849772
11
22.7674937
21
5.2129507
0
LINE
8
layer0
10
22.7674937
20
5.2129507
11
22.7958039
21
5.3454082
0
LINE
8
layer0
10
22.7958039
20
5.3454082
11
22.8322057
21
5.4865998
0
LINE
8
layer0
10
22.8322057
20
5.4865998
11
22.868927
21
5.6087525
0
ARC
8
layer0
10
25.0000111
20
-0.0000335
40
6
50
105.1954851
51
110.8045185
0
LINE
8
layer0
10
23.4273323
20
5.7901894
11
23.52884
21
5.71295
0
LINE
8
layer0
10
23.52884
20
5.71295
11
23.64128
21
5.62012
0
LINE
8
layer0
10
23.64128
20
5.62012
11
23.74204
21
5.5296
0
LINE
8
layer0
10
23.74204
20
5.5296
11
23.83491
21
5.43889
0
LINE
8
layer0
10
23.83491
20
5.43889
11
23.91799
21
5.3506
0
LINE
8
layer0
10
23.91799
20
5.3506
11
23.99099
21
5.26621
0
LINE
8
layer0
10
23.99099
20
5.26621
11
24.05592
21
5.18447
0
LINE
8
layer0
10
24.05592
20
5.18447
11
24.11181
21
5.10775
0
LINE
8
layer0
10
24.11181
20
5.10775
11
24.16066
21
5.03446
0
LINE
8
layer0
10
24.16066
20
5.03446
11
24.20239
21
4.96573
0
LINE
8
layer0
10
24.20239
20
4.96573
11
24.26403
21
4.84855
0
LINE
8
layer0
10
24.26403
20
4.84855
11
24.30337
21
4.756
0
LINE
8
layer0
10
24.30337
20
4.756
11
24.32153
21
4.7025
0
LINE
8
layer0
10
24.32153
20
4.7025
11
24.32281
21
4.6821
0
LINE
8
layer0
10
24.32281
20
4.6821
11
24.31731
21
4.56145
0
LINE
8
layer0
10
24.31731
20
4.56145
11
24.32039
21
4.44871
0
LINE
8
layer0
10
24.32039
20
4.44871
11
24.33138
21
4.34438
0
LINE
8
layer0
10
24.33138
20
4.34438
11
24.34956
21
4.24889
0
LINE
8
layer0
10
24.34956
20
4.24889
11
24.37423
21
4.16266
0
LINE
8
layer0
10
24.37423
20
4.16266
11
24.40461
21
4.08605
0
LINE
8
layer0
10
24.40461
20
4.08605
11
24.43996
21
4.01936
0
LINE
8
layer0
10
24.43996
20
4.01936
11
24.47949
21
3.96288
0
LINE
8
layer0
10
24.47949
20
3.96288
11
24.5224
21
3.9168
0
LINE
8
layer0
10
24.5224
20
3.9168
11
24.5679
21
3.88131
0
LINE
8
layer0
10
24.5679
20
3.88131
11
24.61516
21
3.85652
0
LINE
8
layer0
10
24.61516
20
3.85652
11
24.66337
21
3.8425
0
LINE
8
layer0
10
24.66337
20
3.8425
11
24.70569
21
3.8391
0
LINE
8
layer0
10
24.70569
20
3.8391
11
24.82729
21
3.84614
0
LINE
8
layer0
10
24.82729
20
3.84614
11
25
21
3.85
0
LINE
8
layer0
10
25
20
3.85
11
25.17271
21
3.84614
0
LINE
8
layer0
10
25.17271
20
3.84614
11
25.29431
21
3.8391
0
LINE
8
layer0
10
25.29431
20
3.8391
11
25.33663
21
3.8425
0
LINE
8
layer0
10
25.33663
20
3.8425
11
25.38484
21
3.85652
0
LINE
8
layer0
10
25.38484
20
3.85652
11
25.4321
21
3.88131
0
LINE
8
layer0
10
25.4321
20
3.88131
11
25.4776
21
3.9168
0
LINE
8
layer0
10
25.4776
20
3.9168
11
25.52051
21
3.96288
0
LINE
8
layer0
10
25.52051
20
3.96288
11
25.56004
21
4.01936
0
LINE
8
layer0
10
25.56004
20
4.01936
11
25.59539
21
4.08605
0
LINE
8
layer0
10
25.59539
20
4.08605
11
25.62577
21
4.16266
0
LINE
8
layer0
10
25.62577
20
4.16266
11
25.65044
21
4.24889
0
LINE
8
layer0
10
25.65044
20
4.24889
11
25.66862
21
4.34438
0
LINE
8
layer0
10
25.66862
20
4.34438
11
25.67961
21
4.44871
0
LINE
8
layer0
10
25.67961
20
4.44871
11
25.68269
21
4.56145
0
LINE
8
layer0
10
25.68269
20
4.56145
11
25.67719
21
4.6821
0
LINE
8
layer0
10
25.67719
20
4.6821
11
25.67847
21
4.7025
0
LINE
8
layer0
10
25.67847
20
4.7025
11
25.69663
21
4.756
0
LINE
8
layer0
10
25.69663
20
4.756
11
25.73597
21
4.84855
0
LINE
8
layer0
10
25.73597
20
4.84855
11
25.79761
21
4.96573
0
LINE
8
layer0
10
25.79761
20
4.96573
11
25.83934
21
5.03446
0
LINE
8
layer0
10
25.83934
20
5.03446
11
25.88819
21
5.10775
0
LINE
8
layer0
10
25.88819
20
5.10775
11
25.94408
21
5.18447
0
LINE
8
layer0
10
25.94408
20
5.18447
11
26.00901
21
5.26621
0
LINE
8
layer0
10
26.00901
20
5.26621
11
26.08201
21
5.3506
0
LINE
8
layer0
10
26.08201
20
5.3506
11
26.16509
21
5.43889
0
LINE
8
layer0
10
26.16509
20
5.43889
11
26.25796
21
5.5296
0
LINE
8
layer0
10
26.25796
20
5.5296
11
26.35872
21
5.62012
0
LINE
8
layer0
10
26.35872
20
5.62012
11
26.47116
21
5.71295
0
LINE
8
layer0
10
26.47116
20
5.71295
11
26.5726677
21
5.7901894
0
ARC
8
layer0
10
24.9999889
20
-0.0000335
40
6
50
69.1954815
51
74.8045149
0
LINE
8
layer0
10
27.131073
20
5.6087525
11
27.1677943
21
5.4865998
0
LINE
8
layer0
10
27.1677943
20
5.4865998
11
27.2041961
21
5.3454082
0
LINE
8
layer0
10
27.2041961
20
5.3454082
11
27.2325063
21
5.2129507
0
LINE
8
layer0
10
27.2325063
20
5.2129507
11
27.2543217
21
5.0849772
0
LINE
8
layer0
10
27.2543217
20
5.0849772
11
27.2696393
21
4.9647159
0
LINE
8
layer0
10
27.2696393
20
4.9647159
11
27.2790943
21
4.8535346
0
LINE
8
layer0
10
27.2790943
20
4.8535346
11
27.2835782
21
4.7492406
0
LINE
8
layer0
10
27.2835782
20
4.7492406
11
27.2836993
21
4.6543215
0
LINE
8
layer0
10
27.2836993
20
4.6543215
11
27.280141
21
4.5663154
0
LINE
8
layer0
10
27.280141
20
4.5663154
11
27.2735028
21
4.4861834
0
LINE
8
layer0
10
27.2735028
20
4.4861834
11
27.2544939
21
4.3551517
0
LINE
8
layer0
10
27.2544939
20
4.3551517
11
27.2319212
21
4.2571537
0
LINE
8
layer0
10
27.2319212
20
4.2571537
11
27.2151664
21
4.2031971
0
LINE
8
layer0
10
27.2151664
20
4.2031971
11
27.2042111
21
4.1859408
0
LINE
8
layer0
10
27.2042111
20
4.1859408
11
27.1288452
21
4.0915657
0
LINE
8
layer0
10
27.1288452
20
4.0915657
11
27.0650701
21
3.9985467
0
LINE
8
layer0
10
27.0650701
20
3.9985467
11
27.0126376
21
3.9076822
0
LINE
8
layer0
10
27.0126376
20
3.9076822
11
26.9712179
21
3.8197433
0
LINE
8
layer0
10
26.9712179
20
3.8197433
11
26.9404916
21
3.7354811
0
LINE
8
layer0
10
26.9404916
20
3.7354811
11
26.9200393
21
3.6556454
0
LINE
8
layer0
10
26.9200393
20
3.6556454
11
26.9094387
21
3.5809138
0
LINE
8
layer0
10
26.9094387
20
3.5809138
11
26.908221
21
3.5119854
0
LINE
8
layer0
10
26.908221
20
3.5119854
11
26.9158508
21
3.449484
0
LINE
8
layer0
10
26.9158508
20
3.449484
11
26.9318005
21
3.3940278
0
LINE
8
layer0
10
26.9318005
20
3.3940278
11
26.9554635
21
3.3461935
0
LINE
8
layer0
10
26.9554635
20
3.3461935
11
26.9862254
21
3.306514
0
LINE
8
layer0
10
26.9862254
20
3.306514
11
27.0184646
21
3.2788882
0
LINE
8
layer0
10
27.0184646
20
3.2788882
11
27.120979
21
3.213109
0
LINE
8
layer0
10
27.120979
20
3.213109
11
27.2629732
21
3.1147154
0
LINE
8
layer0
10
27.2629732
20
3.1147154
11
27.4004297
21
3.0100762
0
LINE
8
layer0
10
27.4004297
20
3.0100762
11
27.4946682
21
2.9329061
0
LINE
8
layer0
10
27.4946682
20
2.9329061
11
27.5309042
21
2.9107817
0
LINE
8
layer0
10
27.5309042
20
2.9107817
11
27.5781477
21
2.8937869
0
LINE
8
layer0
10
27.5781477
20
2.8937869
11
27.630953
21
2.8860637
0
LINE
8
layer0
10
27.630953
20
2.8860637
11
27.6886238
21
2.8880315
0
LINE
8
layer0
10
27.6886238
20
2.8880315
11
27.7504239
21
2.9000892
0
LINE
8
layer0
10
27.7504239
20
2.9000892
11
27.8156024
21
2.9225473
0
LINE
8
layer0
10
27.8156024
20
2.9225473
11
27.8834006
21
2.9557224
0
LINE
8
layer0
10
27.8834006
20
2.9557224
11
27.9530087
21
2.9998443
0
LINE
8
layer0
10
27.9530087
20
2.9998443
11
28.0236519
21
3.0551052
0
LINE
8
layer0
10
28.0236519
20
3.0551052
11
28.0944874
21
3.1216723
0
LINE
8
layer0
10
28.0944874
20
3.1216723
11
28.1647022
21
3.1996173
0
LINE
8
layer0
10
28.1647022
20
3.1996173
11
28.2334609
21
3.2890155
0
LINE
8
layer0
10
28.2334609
20
3.2890155
11
28.2999275
21
3.3898562
0
LINE
8
layer0
10
28.2999275
20
3.3898562
11
28.3129539
21
3.4056078
0
LINE
8
layer0
10
28.3129539
20
3.4056078
11
28.3590922
21
3.438216
0
LINE
8
layer0
10
28.3590922
20
3.438216
11
28.4453184
21
3.489967
0
LINE
8
layer0
10
28.4453184
20
3.489967
11
28.5640629
21
3.5485366
0
LINE
8
layer0
10
28.5640629
20
3.5485366
11
28.6382217
21
3.579612
0
LINE
8
layer0
10
28.6382217
20
3.579612
11
28.7208209
21
3.6101916
0
LINE
8
layer0
10
28.7208209
20
3.6101916
11
28.8111318
21
3.639408
0
LINE
8
layer0
10
28.8111318
20
3.639408
11
28.9117068
21
3.6673722
0
LINE
8
layer0
10
28.9117068
20
3.6673722
11
29.0203682
21
3.6927368
0
LINE
8
layer0
10
29.0203682
20
3.6927368
11
29.1394769
21
3.7153317
0
LINE
8
layer0
10
29.1394769
20
3.7153317
11
29.2679283
21
3.73413
0
LINE
8
layer0
10
29.2679283
20
3.73413
11
29.4026512
21
3.748137
0
LINE
8
layer0
10
29.4026512
20
3.748137
11
29.5481812
21
3.7571475
0
LINE
8
layer0
10
29.5481812
20
3.7571475
11
29.6757029
21
3.7599708
0
ARC
8
layer0
10
24.9999718
20
-0.0000211
40
6
50
33.1954882
51
38.8045217
0
LINE
8
layer0
10
30.0208163
20
3.2849628
11
29.9787249
21
3.1645549
0
LINE
8
layer1
10
29.9787249
20
3.1645549
11
29.9251842
21
3.0289321
0
LINE
8
layer1
10
29.9251842
20
3.0289321
11
29.8702311
21
2.9051314
0
LINE
8
layer1
10
29.8702311
20
2.9051314
11
29.8126592
21
2.7887759
0
LINE
8
layer1
10
29.8126592
20
2.7887759
11
29.7543635
21
2.682479
0
LINE
8
layer1
10
29.7543635
20
2.682479
11
29.6966621
21
2.5869739
0
LINE
8
layer1
10
29.6966621
20
2.5869739
11
29.6389872
21
2.4999628
0
LINE
8
layer1
10
29.6389872
20
2.4999628
11
29.5832931
21
2.4231004
0
LINE
8
layer1
10
29.5832931
20
2.4231004
11
29.5286857
21
2.3539935
0
LINE
8
layer1
10
29.5286857
20
2.3539935
11
29.4762148
21
2.2930671
0
LINE
8
layer1
10
29.4762148
20
2.2930671
11
29.3838178
21
2.1982334
0
LINE
8
layer1
10
29.3838178
20
2.1982334
11
29.3079543
21
2.1322193
0
LINE
8
layer1
10
29.3079543
20
2.1322193
11
29.2626845
21
2.0984157
0
LINE
8
layer1
10
29.2626845
20
2.0984157
11
29.2436785
21
2.0908944
0
LINE
8
layer1
10
29.2436785
20
2.0908944
11
29.1272339
21
2.0588423
0
LINE
8
layer1
10
29.1272339
20
2.0588423
11
29.0209636
21
2.0210745
0
LINE
8
layer1
10
29.0209636
20
2.0210745
11
28.925136
21
1.9783827
0
LINE
8
layer1
10
28.925136
20
1.9783827
11
28.8399375
21
1.9315844
0
LINE
8
layer1
10
28.8399375
20
1.9315844
11
28.7655514
21
1.8814753
0
LINE
8
layer1
10
28.7655514
20
1.8814753
11
28.7020789
21
1.8289084
0
LINE
8
layer1
10
28.7020789
20
1.8289084
11
28.6495766
21
1.7746802
0
LINE
8
layer1
10
28.6495766
20
1.7746802
11
28.6080764
21
1.7196317
0
LINE
8
layer1
10
28.6080764
20
1.7196317
11
28.5775116
21
1.6645824
0
LINE
8
layer1
10
28.5775116
20
1.6645824
11
28.5578189
21
1.6103423
0
LINE
8
layer1
10
28.5578189
20
1.6103423
11
28.5488464
21
1.5577348
0
LINE
8
layer1
10
28.5488464
20
1.5577348
11
28.5504103
21
1.507552
0
LINE
8
layer1
10
28.5504103
20
1.507552
11
28.5602543
21
1.4662526
0
LINE
8
layer1
10
28.5602543
20
1.4662526
11
28.6045262
21
1.3527796
0
LINE
8
layer1
10
28.6045262
20
1.3527796
11
28.6615676
21
1.1897154
0
LINE
8
layer1
10
28.6615676
20
1.1897154
11
28.7112668
21
1.0242657
0
LINE
8
layer1
10
28.7112668
20
1.0242657
11
28.7421479
21
0.9064417
0
LINE
8
layer1
10
28.7421479
20
0.9064417
11
28.7584591
21
0.8672436
0
LINE
8
layer1
10
28.7584591
20
0.8672436
11
28.7866906
21
0.8257256
0
LINE
8
layer1
10
28.7866906
20
0.8257256
11
28.8248714
21
0.7884392
0
LINE
8
layer1
10
28.8248714
20
0.7884392
11
28.8726847
21
0.7561332
0
LINE
8
layer1
10
28.8726847
20
0.7561332
11
28.9297693
21
0.7295628
0
LINE
8
layer1
10
28.9297693
20
0.7295628
11
28.9957004
21
0.7094209
0
LINE
8
layer1
10
28.9957004
20
0.7094209
11
29.0700501
21
0.6964094
0
LINE
8
layer1
10
29.0700501
20
0.6964094
11
29.1522985
21
0.69119
0
LINE
8
layer1
10
29.1522985
20
0.69119
11
29.2419315
21
0.694374
0
LINE
8
layer1
10
29.2419315
20
0.694374
11
29.3383659
21
0.7065918
0
LINE
8
layer1
10
29.3383659
20
0.7065918
11
29.4409857
21
0.7283795
0
LINE
8
layer1
10
29.4409857
20
0.7283795
11
29.5491596
21
0.7602888
0
LINE
8
layer1
10
29.5491596
20
0.7602888
11
29.6622049
21
0.8028025
0
LINE
8
layer1
10
29.6622049
20
0.8028025
11
29.682002
21
0.8078891
0
LINE
8
layer1
10
29.682002
20
0.8078891
11
29.7384953
21
0.8071503
0
LINE
8
layer1
10
29.7384953
20
0.8071503
11
29.8386723
21
0.7983353
0
LINE
8
layer1
10
29.8386723
20
0.7983353
11
29.9691649
21
0.7759228
0
LINE
8
layer1
10
29.9691649
20
0.7759228
11
30.0474263
21
0.7574739
0
LINE
8
layer1
10
30.0474263
20
0.7574739
11
30.1322247
21
0.7336627
0
LINE
8
layer1
10
30.1322247
20
0.7336627
11
30.2224607
21
0.7042159
0
LINE
8
layer1
10
30.2224607
20
0.7042159
11
30.3202646
21
0.6677229
0
LINE
8
layer1
10
30.3202646
20
0.6677229
11
30.4230825
21
0.6243737
0
LINE
8
layer1
10
30.4230825
20
0.6243737
11
30.5327244
21
0.572643
0
LINE
8
layer1
10
30.5327244
20
0.572643
11
30.6476931
21
0.5123493
0
LINE
8
layer1
10
30.6476931
20
0.5123493
11
30.7649193
21
0.4444931
0
LINE
8
layer1
10
30.7649193
20
0.4444931
11
30.8879518
21
0.3662423
0
LINE
8
layer1
10
30.8879518
20
0.3662423
11
30.9927784
21
0.293571
0
ARC
8
layer1
10
24.9999647
20
0
40
6
50
357.1954827
51
362.8045163
0
LINE
8
layer1
10
30.9927784
20
-0.293571
11
30.8879518
21
-0.3662423
0
LINE
8
layer1
10
30.8879518
20
-0.3662423
11
30.7649193
21
-0.4444931
0
LINE
8
layer1
10
30.7649193
20
-0.4444931
11
30.6476931
21
-0.5123493
0
LINE
8
layer1
10
30.6476931
20
-0.5123493
11
30.5327244
21
-0.572643
0
LINE
8
layer1
10
30.5327244
20
-0.572643
11
30.4230825
21
-0.6243737
0
LINE
8
layer1
10
30.4230825
20
-0.6243737
11
30.3202646
21
-0.6677229
0
LINE
8
layer1
10
30.3202646
20
-0.6677229
11
30.2224607
21
-0.7042159
0
LINE
8
layer1
10
30.2224607
20
-0.7042159
11
30.1322247
21
-0.7336627
0
LINE
8
layer1
10
30.1322247
20
-0.7336627
11
30.0474263
21
-0.7574739
0
LINE
8
layer1
10
30.0474263
20
-0.7574739
11
29.9691649
21
-0.7759228
0
LINE
8
layer1
10
29.9691649
20
-0.7759228
11
29.8386723
21
-0.7983353
0
LINE
8
layer1
10
29.8386723
20
-0.7983353
11
29.7384953
21
-0.8071503
0
LINE
8
layer1
10
29.7384953
20
-0.8071503
11
29.682002
21
-0.8078891
0
LINE
8
layer1
10
29.682002
20
-0.8078891
11
29.6622049
21
-0.8028025
0
LINE
8
layer1
10
29.6622049
20
-0.8028025
11
29.5491596
21
-0.7602888
0
LINE
8
layer1
10
29.5491596
20
-0.7602888
11
29.4409857
21
-0.7283795
0
LINE
8
layer1
10
29.4409857
20
-0.7283795
11
29.3383659
21
-0.7065918
0
LINE
8
layer1
10
29.3383659
20
-0.7065918
11
29.2419315
21
-0.694374
0
LINE
8
layer1
10
29.2419315
20
-0.694374
11
29.1522985
21
-0.69119
0
LINE
8
layer1
10
29.1522985
20
-0.69119
11
29.0700501
21
-0.6964094
0
LINE
8
layer1
10
29.0700501
20
-0.6964094
11
28.9957004
21
-0.7094209
0
LINE
8
layer1
10
28.9957004
20
-0.7094209
11
28.9297693
21
-0.7295628
0
LINE
8
layer1
10
28.9297693
20
-0.7295628
11
28.8726847
21
-0.7561332
0
LINE
8
layer1
10
28.8726847
20
-0.7561332
11
28.8248714
21
-0.7884392
0
LINE
8
layer1
10
28.8248714
20
-0.7884392
11
28.7866906
21
-0.8257256
0
LINE
8
layer1
10
28.7866906
20
-0.8257256
11
28.7584591
21
-0.8672436
0
LINE
8
layer1
10
28.7584591
20
-0.8672436
11
28.7421479
21
-0.9064417
0
LINE
8
layer1
10
28.7421479
20
-0.9064417
11
28.7112668
21
-1.0242657
0
LINE
8
layer1
10
28.7112668
20
-1.0242657
11
28.6615676
21
-1.1897154
0
LINE
8
layer1
10
28.6615676
20
-1.1897154
11
28.6045262
21
-1.3527796
0
LINE
8
layer1
10
28.6045262
20
-1.3527796
11
28.5602543
21
-1.4662526
0
LINE
8
layer1
10
28.5602543
20
-1.4662526
11
28.5504103
21
-1.507552
0
LINE
8
layer1
10
28.5504103
20
-1.507552
11
28.5488464
21
-1.5577348
0
LINE
8
layer1
10
28.5488464
20
-1.5577348
11
28.5578189
21
-1.6103423
0
LINE
8
layer1
10
28.5578189
20
-1.6103423
11
28.5775116
21
-1.6645824
0
LINE
8
layer1
10
28.5775116
20
-1.6645824
11
28.6080764
21
-1.7196317
0
LINE
8
layer1
10
28.6080764
20
-1.7196317
11
28.6495766
21
-1.7746802
0
LINE
8
layer1
10
28.6495766
20
-1.7746802
11
28.7020789
21
-1.8289084
0
LINE
8
layer1
10
28.7020789
20
-1.8289084
11
28.7655514
21
-1.8814753
0
LINE
8
layer1
10
28.7655514
20
-1.8814753
11
28.8399375
21
-1.9315844
0
LINE
8
layer1
10
28.8399375
20
-1.9315844
11
28.925136
21
-1.9783827
0
LINE
8
layer1
10
28.925136
20
-1.9783827
11
29.0209636
21
-2.0210745
0
LINE
8
layer1
10
29.0209636
20
-2.0210745
11
29.1272339
21
-2.0588423
0
LINE
8
layer1
10
29.1272339
20
-2.0588423
11
29.2436785
21
-2.0908944
0
LINE
8
layer1
10
29.2436785
20
-2.0908944
11
29.2626845
21
-2.0984157
0
LINE
8
layer1
10
29.2626845
20
-2.0984157
11
29.3079543
21
-2.1322193
0
LINE
8
layer1
10
29.3079543
20
-2.1322193
11
29.3838178
21
-2.1982334
0
LINE
8
layer1
10
29.3838178
20
-2.1982334
11
29.4762148
21
-2.2930671
0
LINE
8
layer1
10
29.4762148
20
-2.2930671
11
29.5286857
21
-2.3539935
0
LINE
8
layer1
10
29.5286857
20
-2.3539935
11
29.5832931
21
-2.4231004
0
LINE
8
layer1
10
29.5832931
20
-2.4231004
11
29.6389872
21
-2.4999628
0
LINE
8
layer1
10
29.6389872
20
-2.4999628
11
29.6966621
21
-2.5869739
0
LINE
8
layer1
10
29.6966621
20
-2.5869739
11
29.7543635
21
-2.682479
0
LINE
8
layer1
10
29.7543635
20
-2.682479
11
29.8126592
21
-2.7887759
0
LINE
8
layer1
10
29.8126592
20
-2.7887759
11
29.8702311
21
-2.9051314
0
LINE
8
layer1
10
29.8702311
20
-2.9051314
11
29.9251842
21
-3.0289321
0
LINE
8
layer1
10
29.9251842
20
-3.0289321
11
29.9787249
21
-3.1645549
0
LINE
8
layer1
10
29.9787249
20
-3.1645549
11
30.0208163
21
-3.2849628
0
ARC
8
layer1
10
24.9999717
20
0.0000212
40
6
50
321.1954783
51
326.8045118
0
LINE
8
layer1
10
29.6757029
20
-3.7599708
11
29.5481812
21
-3.7571475
0
LINE
8
layer1
10
29.5481812
20
-3.7571475
11
29.4026512
21
-3.748137
0
LINE
8
layer1
10
29.4026512
20
-3.748137
11
29.2679283
21
-3.73413
0
LINE
8
layer1
10
29.2679283
20
-3.73413
11
29.1394769
21
-3.7153317
0
LINE
8
layer1
10
29.1394769
20
-3.7153317
11
29.0203682
21
-3.6927368
0
LINE
8
layer1
10
29.0203682
20
-3.6927368
11
28.9117068
21
-3.6673722
0
LINE
8
layer1
10
28.9117068
20
-3.6673722
11
28.8111318
21
-3.639408
0
LINE
8
layer1
10
28.8111318
20
-3.639408
11
28.7208209
21
-3.6101916
0
LINE
8
layer1
10
28.7208209
20
-3.6101916
11
28.6382217
21
-3.579612
0
LINE
8
layer1
10
28.6382217
20
-3.579612
11
28.5640629
21
-3.5485366
0
LINE
8
layer1
10
28.5640629
20
-3.5485366
11
28.4453184
21
-3.489967
0
LINE
8
layer1
10
28.4453184
20
-3.489967
11
28.3590922
21
-3.438216
0
LINE
8
layer1
10
28.3590922
20
-3.438216
11
28.3129539
21
-3.4056078
0
LINE
8
layer1
10
28.3129539
20
-3.4056078
11
28.2999275
21
-3.3898562
0
LINE
8
layer1
10
28.2999275
20
-3.3898562
11
28.2334609
21
-3.2890155
0
LINE
8
layer1
10
28.2334609
20
-3.2890155
11
28.1647022
21
-3.1996173
0
LINE
8
layer1
10
28.1647022
20
-3.1996173
11
28.0944874
21
-3.1216723
0
LINE
8
layer1
10
28.0944874
20
-3.1216723
11
28.0236519
21
-3.0551052
0
LINE
8
layer1
10
28.0236519
20
-3.0551052
11
27.9530087
21
-2.9998443
0
LINE
8
layer1
10
27.9530087
20
-2.9998443
11
27.8834006
21
-2.9557224
0
LINE
8
layer1
10
27.8834006
20
-2.9557224
11
27.8156024
21
-2.9225473
0
LINE
8
layer1
10
27.8156024
20
-2.9225473
11
27.7504239
21
-2.9000892
0
LINE
8
layer1
10
27.7504239
20
-2.9000892
11
27.6886238
21
-2.8880315
0
LINE
8
layer1
10
27.6886238
20
-2.8880315
11
27.630953
21
-2.8860637
0
LINE
8
layer1
10
27.630953
20
-2.8860637
11
27.5781477
21
-2.8937869
0
LINE
8
layer1
10
27.5781477
20
-2.8937869
11
27.5309042
21
-2.9107817
0
LINE
8
layer1
10
27.5309042
20
-2.9107817
11
27.4946682
21
-2.9329061
0
LINE
8
layer1
10
27.4946682
20
-2.9329061
11
27.4004297
21
-3.0100762
0
LINE
8
layer1
10
27.4004297
20
-3.0100762
11
27.2629732
21
-3.1147154
0
LINE
8
layer1
10
27.2629732
20
-3.1147154
11
27.120979
21
-3.213109
0
LINE
8
layer1
10
27.120979
20
-3.213109
11
27.0184646
21
-3.2788882
0
LINE
8
layer1
10
27.0184646
20
-3.2788882
11
26.9862254
21
-3.306514
0
LINE
8
layer1
10
26.9862254
20
-3.306514
11
26.9554635
21
-3.3461935
0
LINE
8
layer1
10
26.9554635
20
-3.3461935
11
26.9318005
21
-3.3940278
0
LINE
8
layer1
10
26.9318005
20
-3.3940278
11
26.9158508
21
-3.449484
0
LINE
8
layer1
10
26.9158508
20
-3.449484
11
26.908221
21
-3.5119854
0
LINE
8
layer1
10
26.908221
20
-3.5119854
11
26.9094387
21
-3.5809138
0
LINE
8
layer1
10
26.9094387
20
-3.5809138
11
26.9200393
21
-3.6556454
0
LINE
8
layer1
10
26.9200393
20
-3.6556454
11
26.9404916
21
-3.7354811
0
LINE
8
layer1
10
26.9404916
20
-3.7354811
11
26.9712179
21
-3.8197433
0
LINE
8
layer1
10
26.9712179
20
-3.8197433
11
27.0126376
21
-3.9076822
0
LINE
8
layer1
10
27.0126376
20
-3.9076822
11
27.0650701
21
-3.9985467
0
LINE
8
layer1
10
27.0650701
20
-3.9985467
11
27.1288452
21
-4.0915657
0
LINE
8
layer1
10
27.1288452
20
-4.0915657
11
27.2042111
21
-4.1859408
0
LINE
8
layer1
10
27.2042111
20
-4.1859408
11
27.2151664
21
-4.2031971
0
LINE
8
layer1
10
27.2151664
20
-4.2031971
11
27.2319212
21
-4.2571537
0
LINE
8
layer1
10
27.2319212
20
-4.2571537
11
27.2544939
21
-4.3551517
0
LINE
8
layer1
10
27.2544939
20
-4.3551517
11
27.2735028
21
-4.4861834
0
LINE
8
layer1
10
27.2735028
20
-4.4861834
11
27.280141
21
-4.5663154
0
LINE
8
layer1
10
27.280141
20
-4.5663154
11
27.2836993
21
-4.6543215
0
LINE
8
layer1
10
27.2836993
20
-4.6543215
11
27.2835782
21
-4.7492406
0
LINE
8
layer1
10
27.2835782
20
-4.7492406
11
27.2790943
21
-4.8535346
0
LINE
8
layer1
10
27.2790943
20
-4.8535346
11
27.2696393
21
-4.9647159
0
LINE
8
layer1
10
27.2696393
20
-4.9647159
11
27.2543217
21
-5.0849772
0
LINE
8
layer1
10
27.2543217
20
-5.0849772
11
27.2325063
21
-5.2129507
0
LINE
8
layer1
10
27.2325063
20
-5.2129507
11
27.2041961
21
-5.3454082
0
LINE
8
layer1
10
27.2041961
20
-5.3454082
11
27.1677943
21
-5.4865998
0
LINE
8
layer1
10
27.1677943
20
-5.4865998
11
27.131073
21
-5.6087525
0
ARC
8
layer1
10
24.9999889
20
0.0000335
40
6
50
285.1954851
51
290.8045185
0
LINE
8
layer1
10
26.5726677
20
-5.7901894
11
26.47116
21
-5.71295
0
LINE
8
layer1
10
26.47116
20
-5.71295
11
26.35872
21
-5.62012
0
LINE
8
layer1
10
26.35872
20
-5.62012
11
26.25796
21
-5.5296
0
LINE
8
layer1
10
26.25796
20
-5.5296
11
26.16509
21
-5.43889
0
LINE
8
layer1
10
26.16509
20
-5.43889
11
26.08201
21
-5.3506
0
LINE
8
layer1
10
26.08201
20
-5.3506
11
26.00901
21
-5.26621
0
LINE
8
layer1
10
26.00901
20
-5.26621
11
25.94408
21
-5.18447
0
LINE
8
layer1
10
25.94408
20
-5.18447
11
25.88819
21
-5.10775
0
LINE
8
layer1
10
25.88819
20
-5.10775
11
25.83934
21
-5.03446
0
LINE
8
layer1
10
25.83934
20
-5.03446
11
25.79761
21
-4.96573
0
LINE
8
layer1
10
25.79761
20
-4.96573
11
25.73597
21
-4.84855
0
LINE
8
layer1
10
25.73597
20
-4.84855
11
25.69663
21
-4.756
0
LINE
8
layer1
10
25.69663
20
-4.756
11
25.67847
21
-4.7025
0
LINE
8
layer1
10
25.67847
20
-4.7025
11
25.67719
21
-4.6821
0
LINE
8
layer1
10
25.67719
20
-4.6821
11
25.68269
21
-4.56145
0
LINE
8
layer1
10
25.68269
20
-4.56145
11
25.67961
21
-4.44871
0
LINE
8
layer1
10
25.67961
20
-4.44871
11
25.66862
21
-4.34438
0
LINE
8
layer1
10
25.66862
20
-4.34438
11
25.65044
21
-4.24889
0
LINE
8
layer1
10
25.65044
20
-4.24889
11
25.62577
21
-4.16266
0
LINE
8
layer1
10
25.62577
20
-4.16266
11
25.59539
21
-4.08605
0
LINE
8
layer1
10
25.59539
20
-4.08605
11
25.56004
21
-4.01936
0
LINE
8
layer1
10
25.56004
20
-4.01936
11
25.52051
21
-3.96288
0
LINE
8
layer1
10
25.52051
20
-3.96288
11
25.4776
21
-3.9168
0
LINE
8
layer1
10
25.4776
20
-3.9168
11
25.4321
21
-3.88131
0
LINE
8
layer1
10
25.4321
20
-3.88131
11
25.38484
21
-3.85652
0
LINE
8
layer1
10
25.38484
20
-3.85652
11
25.33663
21
-3.8425
0
LINE
8
layer1
10
25.33663
20
-3.8425
11
25.29431
21
-3.8391
0
LINE
8
layer1
10
25.29431
20
-3.8391
11
25.17271
21
-3.84614
0
LINE
8
layer1
10
25.17271
20
-3.84614
11
25
21
-3.85
0
LINE
8
layer1
10
25
20
-3.85
11
24.82729
21
-3.84614
0
LINE
8
layer1
10
24.82729
20
-3.84614
11
24.70569
21
-3.8391
0
LINE
8
layer1
10
24.70569
20
-3.8391
11
24.66337
21
-3.8425
0
LINE
8
layer1
10
24.66337
20
-3.8425
11
24.61516
21
-3.85652
0
LINE
8
layer1
10
24.61516
20
-3.85652
11
24.5679
21
-3.88131
0
LINE
8
layer1
10
24.5679
20
-3.88131
11
24.5224
21
-3.9168
0
LINE
8
layer1
10
24.5224
20
-3.9168
11
24.47949
21
-3.96288
0
LINE
8
layer1
10
24.47949
20
-3.96288
11
24.43996
21
-4.01936
0
LINE
8
layer1
10
24.43996
20
-4.01936
11
24.40461
21
-4.08605
0
LINE
8
layer1
10
24.40461
20
-4.08605
11
24.37423
21
-4.16266
0
LINE
8
layer1
10
24.37423
20
-4.16266
11
24.34956
21
-4.24889
0
LINE
8
layer1
10
24.34956
20
-4.24889
11
24.33138
21
-4.34438
0
LINE
8
layer1
10
24.33138
20
-4.34438
11
24.32039
21
-4.44871
0
LINE
8
layer1
10
24.32039
20
-4.44871
11
24.31731
21
-4.56145
0
LINE
8
layer1
10
24.31731
20
-4.56145
11
24.32281
21
-4.6821
0
LINE
8
layer1
10
24.32281
20
-4.6821
11
24.32153
21
-4.7025
0
LINE
8
layer1
10
24.32153
20
-4.7025
11
24.30337
21
-4.756
0
LINE
8
layer1
10
24.30337
20
-4.756
11
24.26403
21
-4.84855
0
LINE
8
layer1
10
24.26403
20
-4.84855
11
24.20239
21
-4.96573
0
LINE
8
layer1
10
24.20239
20
-4.96573
11
24.16066
21
-5.03446
0
LINE
8
layer1
10
24.16066
20
-5.03446
11
24.11181
21
-5.10775
0
LINE
8
layer1
10
24.11181
20
-5.10775
11
24.05592
21
-5.18447
0
LINE
8
layer1
10
24.05592
20
-5.18447
11
23.99099
21
-5.26621
0
LINE
8
layer1
10
23.99099
20
-5.26621
11
23.91799
21
-5.3506
0
LINE
8
layer1
10
23.91799
20
-5.3506
11
23.83491
21
-5.43889
0
LINE
8
layer1
10
23.83491
20
-5.43889
11
23.74204
21
-5.5296
0
LINE
8
layer1
10
23.74204
20
-5.5296
11
23.64128
21
-5.62012
0
LINE
8
layer1
10
23.64128
20
-5.62012
11
23.52884
21
-5.71295
0
LINE
8
layer1
10
23.52884
20
-5.71295
11
23.4273323
21
-5.7901894
0
ARC
8
layer1
10
25.0000111
20
0.0000335
40
6
50
249.1954815
51
254.8045149
0
LINE
8
layer1
10
22.868927
20
-5.6087525
11
22.8322057
21
-5.4865998
0
LINE
8
layer1
10
22.8322057
20
-5.4865998
11
22.7958039
21
-5.3454082
0
LINE
8
layer1
10
22.7958039
20
-5.3454082
11
22.7674937
21
-5.2129507
0
LINE
8
layer1
10
22.7674937
20
-5.2129507
11
22.7456783
21
-5.0849772
0
LINE
8
layer1
10
22.7456783
20
-5.0849772
11
22.7303607
21
-4.9647159
0
LINE
8
layer1
10
22.7303607
20
-4.9647159
11
22.7209057
21
-4.8535346
0
LINE
8
layer1
10
22.7209057
20
-4.8535346
11
22.7164218
21
-4.7492406
0
LINE
8
layer1
10
22.7164218
20
-4.7492406
11
22.7163007
21
-4.6543215
0
LINE
8
layer1
10
22.7163007
20
-4.6543215
11
22.719859
21
-4.5663154
0
LINE
8
layer1
10
22.719859
20
-4.5663154
11
22.7264972
21
-4.4861834
0
LINE
8
layer1
10
22.7264972
20
-4.4861834
11
22.7455061
21
-4.3551517
0
LINE
8
layer1
10
22.7455061
20
-4.3551517
11
22.7680788
21
-4.2571537
0
LINE
8
layer1
10
22.7680788
20
-4.2571537
11
22.7848336
21
-4.2031971
0
LINE
8
layer1
10
22.7848336
20
-4.2031971
11
22.7957889
21
-4.1859408
0
LINE
8
layer1
10
22.7957889
20
-4.1859408
11
22.8711548
21
-4.0915657
0
LINE
8
layer1
10
22.8711548
20
-4.0915657
11
22.9349299
21
-3.9985467
0
LINE
8
layer1
10
22.9349299
20
-3.9985467
11
22.9873624
21
-3.9076822
0
LINE
8
layer1
10
22.9873624
20
-3.9076822
11
23.0287821
21
-3.8197433
0
LINE
8
layer1
10
23.0287821
20
-3.8197433
11
23.0595084
21
-3.7354811
0
LINE
8
layer1
10
23.0595084
20
-3.7354811
11
23.0799607
21
-3.6556454
0
LINE
8
layer1
10
23.0799607
20
-3.6556454
11
23.0905613
21
-3.5809138
0
LINE
8
layer1
10
23.0905613
20
-3.5809138
11
23.091779
21
-3.5119854
0
LINE
8
layer1
10
23.091779
20
-3.5119854
11
23.0841492
21
-3.449484
0
LINE
8
layer1
10
23.0841492
20
-3.449484
11
23.0681995
21
-3.3940278
0
LINE
8
layer1
10
23.0681995
20
-3.3940278
11
23.0445365
21
-3.3461935
0
LINE
8
layer1
10
23.0445365
20
-3.3461935
11
23.0137746
21
-3.306514
0
LINE
8
layer1
10
23.0137746
20
-3.306514
11
22.9815354
21
-3.2788882
0
LINE
8
layer1
10
22.9815354
20
-3.2788882
11
22.879021
21
-3.213109
0
LINE
8
layer1
10
22.879021
20
-3.213109
11
22.7370268
21
-3.1147154
0
LINE
8
layer1
10
22.7370268
20
-3.1147154
11
22.5995703
21
-3.0100762
0
LINE
8
layer1
10
22.5995703
20
-3.0100762
11
22.5053318
21
-2.9329061
0
LINE
8
layer1
10
22.5053318
20
-2.9329061
11
22.4690958
21
-2.9107817
0
LINE
8
layer1
10
22.4690958
20
-2.9107817
11
22.4218523
21
-2.8937869
0
LINE
8
layer1
10
22.4218523
20
-2.8937869
11
22.369047
21
-2.8860637
0
LINE
8
layer1
10
22.369047
20
-2.8860637
11
22.3113762
21
-2.8880315
0
LINE
8
layer1
10
22.3113762
20
-2.8880315
11
22.2495761
21
-2.9000892
0
LINE
8
layer1
10
22.2495761
20
-2.9000892
11
22.1843976
21
-2.9225473
0
LINE
8
layer1
10
22.1843976
20
-2.9225473
11
22.1165994
21
-2.9557224
0
LINE
8
layer1
10
22.1165994
20
-2.9557224
11
22.0469913
21
-2.9998443
0
LINE
8
layer1
10
22.0469913
20
-2.9998443
11
21.9763481
21
-3.0551052
0
LINE
8
layer1
10
21.9763481
20
-3.0551052
11
21.9055126
21
-3.1216723
0
LINE
8
layer1
10
21.9055126
20
-3.1216723
11
21.8352978
21
-3.1996173
0
LINE
8
layer1
10
21.8352978
20
-3.1996173
11
21.7665391
21
-3.2890155
0
LINE
8
layer1
10
21.7665391
20
-3.2890155
11
21.7000725
21
-3.3898562
0
LINE
8
layer1
10
21.7000725
20
-3.3898562
11
21.6870461
21
-3.4056078
0
LINE
8
layer1
10
21.6870461
20
-3.4056078
11
21.6409078
21
-3.438216
0
LINE
8
layer1
10
21.6409078
20
-3.438216
11
21.5546816
21
-3.489967
0
LINE
8
layer1
10
21.5546816
20
-3.489967
11
21.4359371
21
-3.5485366
0
LINE
8
layer1
10
21.4359371
20
-3.5485366
11
21.3617783
21
-3.579612
0
LINE
8
layer1
10
21.3617783
20
-3.579612
11
21.2791791
21
-3.6101916
0
LINE
8
layer1
10
21.2791791
20
-3.6101916
11
21.1888682
21
-3.639408
0
LINE
8
layer1
10
21.1888682
20
-3.639408
11
21.0882932
21
-3.6673722
0
LINE
8
layer1
10
21.0882932
20
-3.6673722
11
20.9796318
21
-3.6927368
0
LINE
8
layer1
10
20.9796318
20
-3.6927368
11
20.8605231
21
-3.7153317
0
LINE
8
layer1
10
20.8605231
20
-3.7153317
11
20.7320717
21
-3.73413
0
LINE
8
layer1
10
20.7320717
20
-3.73413
11
20.5973488
21
-3.748137
0
LINE
8
layer1
10
20.5973488
20
-3.748137
11
20.4518188
21
-3.7571475
0
LINE
8
layer1
10
20.4518188
20
-3.7571475
11
20.3242971
21
-3.7599708
0
ARC
8
layer1
10
25.0000282
20
0.0000211
40
6
50
213.1954882
51
218.8045217
0
LINE
8
layer1
10
19.9791837
20
-3.2849628
11
20.0212751
21
-3.1645549
0
LINE
8
layer1
10
20.0212751
20
-3.1645549
11
20.0748158
21
-3.0289321
0
LINE
8
layer1
10
20.0748158
20
-3.0289321
11
20.1297689
21
-2.9051314
0
LINE
8
layer1
10
20.1297689
20
-2.9051314
11
20.1873408
21
-2.7887759
0
LINE
8
layer1
10
20.1873408
20
-2.7887759
11
20.2456365
21
-2.682479
0
LINE
8
layer1
10
20.2456365
20
-2.682479
11
20.3033379
21
-2.5869739
0
LINE
8
layer1
10
20.3033379
20
-2.5869739
11
20.3610128
21
-2.4999628
0
LINE
8
layer1
10
20.3610128
20
-2.4999628
11
20.4167069
21
-2.4231004
0
LINE
8
layer1
10
20.4167069
20
-2.4231004
11
20.4713143
21
-2.3539935
0
LINE
8
layer1
10
20.4713143
20
-2.3539935
11
20.5237852
21
-2.2930671
0
LINE
8
layer1
10
20.5237852
20
-2.2930671
11
20.6161822
21
-2.1982334
0
LINE
8
layer1
10
20.6161822
20
-2.1982334
11
20.6920457
21
-2.1322193
0
LINE
8
layer1
10
20.6920457
20
-2.1322193
11
20.7373155
21
-2.0984157
0
LINE
8
layer1
10
20.7373155
20
-2.0984157
11
20.7563215
21
-2.0908944
0
LINE
8
layer1
10
20.7563215
20
-2.0908944
11
20.8727661
21
-2.0588423
0
LINE
8
layer1
10
20.8727661
20
-2.0588423
11
20.9790364
21
-2.0210745
0
LINE
8
layer1
10
20.9790364
20
-2.0210745
11
21.074864
21
-1.9783827
0
LINE
8
layer1
10
21.074864
20
-1.9783827
11
21.1600625
21
-1.9315844
0
LINE
8
layer1
10
21.1600625
20
-1.9315844
11
21.2344486
21
-1.8814753
0
LINE
8
layer1
10
21.2344486
20
-1.8814753
11
21.2979211
21
-1.8289084
0
LINE
8
layer1
10
21.2979211
20
-1.8289084
11
21.3504234
21
-1.7746802
0
LINE
8
layer1
10
21.3504234
20
-1.7746802
11
21.3919236
21
-1.7196317
0
LINE
8
layer1
10
21.3919236
20
-1.7196317
11
21.4224884
21
-1.6645824
0
LINE
8
layer1
10
21.4224884
20
-1.6645824
11
21.4421811
21
-1.6103423
0
LINE
8
layer1
10
21.4421811
20
-1.6103423
11
21.4511536
21
-1.5577348
0
LINE
8
layer1
10
21.4511536
20
-1.5577348
11
21.4495897
21
-1.507552
0
LINE
8
layer1
10
21.4495897
20
-1.507552
11
21.4397457
21
-1.4662526
0
LINE
8
layer1
10
21.4397457
20
-1.4662526
11
21.3954738
21
-1.3527796
0
LINE
8
layer1
10
21.3954738
20
-1.3527796
11
21.3384324
21
-1.1897154
0
LINE
8
layer1
10
21.3384324
20
-1.1897154
11
21.2887332
21
-1.0242657
0
LINE
8
layer1
10
21.2887332
20
-1.0242657
11
21.2578521
21
-0.9064417
0
LINE
8
layer1
10
21.2578521
20
-0.9064417
11
21.2415409
21
-0.8672436
0
LINE
8
layer1
10
21.2415409
20
-0.8672436
11
21.2133094
21
-0.8257256
0
LINE
8
layer1
10
21.2133094
20
-0.8257256
11
21.1751286
21
-0.7884392
0
LINE
8
layer1
10
21.1751286
20
-0.7884392
11
21.1273153
21
-0.7561332
0
LINE
8
layer1
10
21.1273153
20
-0.7561332
11
21.0702307
21
-0.7295628
0
LINE
8
layer1
10
21.0702307
20
-0.7295628
11
21.0042996
21
-0.7094209
0
LINE
8
layer1
10
21.0042996
20
-0.7094209
11
20.9299499
21
-0.6964094
0
LINE
8
layer1
10
20.9299499
20
-0.6964094
11
20.8477015
21
-0.69119
0
LINE
8
layer1
10
20.8477015
20
-0.69119
11
20.7580685
21
-0.694374
0
LINE
8
layer1
10
20.7580685
20
-0.694374
11
20.6616341
21
-0.7065918
0
LINE
8
layer1
10
20.6616341
20
-0.7065918
11
20.5590143
21
-0.7283795
0
LINE
8
layer1
10
20.5590143
20
-0.7283795
11
20.4508404
21
-0.7602888
0
LINE
8
layer1
10
20.4508404
20
-0.7602888
11
20.3377951
21
-0.8028025
0
LINE
8
layer1
10
20.3377951
20
-0.8028025
11
20.317998
21
-0.8078891
0
LINE
8
layer1
10
20.317998
20
-0.8078891
11
20.2615047
21
-0.8071503
0
LINE
8
layer1
10
20.2615047
20
-0.8071503
11
20.1613277
21
-0.7983353
0
LINE
8
layer1
10
20.1613277
20
-0.7983353
11
20.0308351
21
-0.7759228
0
LINE
8
layer1
10
20.0308351
20
-0.7759228
11
19.9525737
21
-0.7574739
0
LINE
8
layer1
10
19.9525737
20
-0.7574739
11
19.8677753
21
-0.7336627
0
LINE
8
layer1
10
19.8677753
20
-0.7336627
11
19.7775393
21
-0.7042159
0
LINE
8
layer1
10
19.7775393
20
-0.7042159
11
19.6797354
21
-0.6677229
0
LINE
8
layer1
10
19.6797354
20
-0.6677229
11
19.5769175
21
-0.6243737
0
LINE
8
layer1
10
19.5769175
20
-0.6243737
11
19.4672756
21
-0.572643
0
LINE
8
layer1
10
19.4672756
20
-0.572643
11
19.3523069
21
-0.5123493
0
LINE
8
layer1
10
19.3523069
20
-0.5123493
11
19.2350807
21
-0.4444931
0
LINE
8
layer1
10
19.2350807
20
-0.4444931
11
19.1120482
21
-0.3662423
0
LINE
8
layer1
10
19.1120482
20
-0.3662423
11
19.0072216
21
-0.293571
0
ARC
8
layer1
10
25.0000353
20
1e-7
40
6
50
177.1954837
51
182.8045173
0
LINE
8
layer1
10
19.0072216
20
0.293571
11
19.1120482
21
0.3662423
0
LINE
8
layer1
10
19.1120482
20
0.3662423
11
19.2350807
21
0.4444931
0
LINE
8
layer1
10
19.2350807
20
0.4444931
11
19.3523069
21
0.5123493
0
LINE
8
layer1
10
19.3523069
20
0.5123493
11
19.4672756
21
0.572643
0
LINE
8
layer1
10
19.4672756
20
0.572643
11
19.5769175
21
0.6243737
0
LINE
8
layer1
10
19.5769175
20
0.6243737
11
19.6797354
21
0.6677229
0
LINE
8
layer1
10
19.6797354
20
0.6677229
11
19.7775393
21
0.7042159
0
LINE
8
layer1
10
19.7775393
20
0.7042159
11
19.8677753
21
0.7336627
0
LINE
8
layer1
10
19.8677753
20
0.7336627
11
19.9525737
21
0.7574739
0
LINE
8
layer1
10
19.9525737
20
0.7574739
11
20.0308351
21
0.7759228
0
LINE
8
layer1
10
20.0308351
20
0.7759228
11
20.1613277
21
0.7983353
0
LINE
8
layer1
10
20.1613277
20
0.7983353
11
20.2615047
21
0.8071503
0
LINE
8
layer1
10
20.2615047
20
0.8071503
11
20.317998
21
0.8078891
0
LINE
8
layer1
10
20.317998
20
0.8078891
11
20.3377951
21
0.8028025
0
LINE
8
layer1
10
20.3377951
20
0.8028025
11
20.4508404
21
0.7602888
0
LINE
8
layer1
10
20.4508404
20
0.7602888
11
20.5590143
21
0.7283795
0
LINE
8
layer1
10
20.5590143
20
0.7283795
11
20.6616341
21
0.7065918
0
LINE
8
layer1
10
20.6616341
20
0.7065918
11
20.7580685
21
0.694374
0
LINE
8
layer1
10
20.7580685
20
0.694374
11
20.8477015
21
0.69119
0
LINE
8
layer1
10
20.8477015
20
0.69119
11
20.9299499
21
0.6964094
0
LINE
8
layer1
10
20.9299499
20
0.6964094
11
21.0042996
21
0.7094209
0
LINE
8
layer1
10
21.0042996
20
0.7094209
11
21.0702307
21
0.7295628
0
LINE
8
layer1
10
21.0702307
20
0.7295628
11
21.1273153
21
0.7561332
0
LINE
8
layer1
10
21.1273153
20
0.7561332
11
21.1751286
21
0.7884392
0
LINE
8
layer1
10
21.1751286
20
0.7884392
11
21.2133094
21
0.8257256
0
LINE
8
layer1
10
21.2133094
20
0.8257256
11
21.2415409
21
0.8672436
0
LINE
8
layer1
10
21.2415409
20
0.8672436
11
21.2578521
21
0.9064417
0
LINE
8
layer1
10
21.2578521
20
0.9064417
11
21.2887332
21
1.0242657
0
LINE
8
layer1
10
21.2887332
20
1.0242657
11
21.3384324
21
1.1897154
0
LINE
8
layer1
10
21.3384324
20
1.1897154
11
21.3954738
21
1.3527796
0
LINE
8
layer1
10
21.3954738
20
1.3527796
11
21.4397457
21
1.4662526
0
LINE
8
layer1
10
21.4397457
20
1.4662526
11
21.4495897
21
1.507552
0
LINE
8
layer1
10
21.4495897
20
1.507552
11
21.4511536
21
1.5577348
0
LINE
8
layer1
10
21.4511536
20
1.5577348
11
21.4421811
21
1.6103423
0
LINE
8
layer1
10
21.4421811
20
1.6103423
11
21.4224884
21
1.6645824
0
LINE
8
layer1
10
21.4224884
20
1.6645824
11
21.3919236
21
1.7196317
0
LINE
8
layer1
10
21.3919236
20
1.7196317
11
21.3504234
21
1.7746802
0
LINE
8
layer1
10
21.3504234
20
1.7746802
11
21.2979211
21
1.8289084
0
LINE
8
layer1
10
21.2979211
20
1.8289084
11
21.2344486
21
1.8814753
0
LINE
8
layer1
10
21.2344486
20
1.8814753
11
21.1600625
21
1.9315844
0
LINE
8
layer1
10
21.1600625
20
1.9315844
11
21.074864
21
1.9783827
0
LINE
8
layer1
10
21.074864
20
1.9783827
11
20.9790364
21
2.0210745
0
LINE
8
layer1
10
20.9790364
20
2.0210745
11
20.8727661
21
2.0588423
0
LINE
8
layer1
10
20.8727661
20
2.0588423
11
20.7563215
21
2.0908944
0
LINE
8
layer1
10
20.7563215
20
2.0908944
11
20.7373155
21
2.0984157
0
LINE
8
layer1
10
20.7373155
20
2.0984157
11
20.6920457
21
2.1322193
0
LINE
8
layer1
10
20.6920457
20
2.1322193
11
20.6161822
21
2.1982334
0
LINE
8
layer1
10
20.6161822
20
2.1982334
11
20.5237852
21
2.2930671
0
LINE
8
layer1
10
20.5237852
20
2.2930671
11
20.4713143
21
2.3539935
0
LINE
8
layer1
10
20.4713143
20
2.3539935
11
20.4167069
21
2.4231004
0
LINE
8
layer1
10
20.4167069
20
2.4231004
11
20.3610128
21
2.4999628
0
LINE
8
layer1
10
20.3610128
20
2.4999628
11
20.3033379
21
2.5869739
0
LINE
8
layer1
10
20.3033379
20
2.5869739
11
20.2456365
21
2.682479
0
LINE
8
layer1
10
20.2456365
20
2.682479
11
20.1873408
21
2.7887759
0
LINE
8
layer1
10
20.1873408
20
2.7887759
11
20.1297689
21
2.9051314
0
LINE
8
layer1
10
20.1297689
20
2.9051314
11
20.0748158
21
3.0289321
0
LINE
8
layer1
10
20.0748158
20
3.0289321
11
20.0212751
21
3.1645549
0
LINE
8
layer1
10
20.0212751
20
3.1645549
11
19.9791837
21
3.2849628
0
ARC
8
layer1
10
25.0000283
20
-0.0000212
40
6
50
141.1954783
51
146.8045118
0
LINE
8
layer1
10
20.3242971
20
3.7599708
11
20.4518188
21
3.7571475
0
LINE
8
layer1
10
20.4518188
20
3.7571475
11
20.5973488
21
3.748137
0
LINE
8
layer1
10
20.5973488
20
3.748137
11
20.7320717
21
3.73413
0
LINE
8
layer1
10
20.7320717
20
3.73413
11
20.8605231
21
3.7153317
0
LINE
8
layer1
10
20.8605231
20
3.7153317
11
20.9796318
21
3.6927368
0
LINE
8
layer1
10
20.9796318
20
3.6927368
11
21.0882932
21
3.6673722
0
LINE
8
layer1
10
21.0882932
20
3.6673722
11
21.1888682
21
3.639408
0
LINE
8
layer1
10
21.1888682
20
3.639408
11
21.2791791
21
3.6101916
0
LINE
8
layer1
10
21.2791791
20
3.6101916
11
21.3617783
21
3.579612
0
LINE
8
layer1
10
21.3617783
20
3.579612
11
21.4359371
21
3.5485366
0
LINE
8
layer1
10
21.4359371
20
3.5485366
11
21.5546816
21
3.489967
0
LINE
8
layer1
10
21.5546816
20
3.489967
11
21.6409078
21
3.438216
0
LINE
8
layer1
10
21.6409078
20
3.438216
11
21.6870461
21
3.4056078
0
LINE
8
layer1
10
21.6870461
20
3.4056078
11
21.7000725
21
3.3898562
0
LINE
8
layer1
10
21.7000725
20
3.3898562
11
21.7665391
21
3.2890155
0
LINE
8
layer1
10
21.7665391
20
3.2890155
11
21.8352978
21
3.1996173
0
LINE
8
layer1
10
21.8352978
20
3.1996173
11
21.9055126
21
3.1216723
0
LINE
8
layer1
10
21.9055126
20
3.1216723
11
21.9763481
21
3.0551052
0
LINE
8
layer1
10
21.9763481
20
3.0551052
11
22.0469913
21
2.9998443
0
LINE
8
layer1
10
22.0469913
20
2.9998443
11
22.1165994
21
2.9557224
0
LINE
8
layer1
10
22.1165994
20
2.9557224
11
22.1843976
21
2.9225473
0
LINE
8
layer1
10
22.1843976
20
2.9225473
11
22.2495761
21
2.9000892
0
LINE
8
layer1
10
22.2495761
20
2.9000892
11
22.3113762
21
2.8880315
0
LINE
8
layer1
10
22.3113762
20
2.8880315
11
22.369047
21
2.8860637
0
LINE
8
layer1
10
22.369047
20
2.8860637
11
22.4218523
21
2.8937869
0
LINE
8
layer1
10
22.4218523
20
2.8937869
11
22.4690958
21
2.9107817
0
LINE
8
layer1
10
22.4690958
20
2.9107817
11
22.5053318
21
2.9329061
0
LINE
8
layer1
10
22.5053318
20
2.9329061
11
22.5995703
21
3.0100762
0
LINE
8
layer1
10
22.5995703
20
3.0100762
11
22.7370268
21
3.1147154
0
LINE
8
layer1
10
22.7370268
20
3.1147154
11
22.879021
21
3.213109
0
LINE
8
layer1
10
22.879021
20
3.213109
11
22.9815354
21
3.2788882
0
LINE
8
layer1
10
22.9815354
20
3.2788882
11
23.0137746
21
3.306514
0
LINE
8
layer1
10
23.0137746
20
3.306514
11
23.0445365
21
3.3461935
0
LINE
8
layer1
10
23.0445365
20
3.3461935
11
23.0681995
21
3.3940278
0
LINE
8
layer1
10
23.0681995
20
3.3940278
11
23.0841492
21
3.449484
0
LINE
8
layer1
10
23.0841492
20
3.449484
11
23.091779
21
3.5119854
0
LINE
8
layer1
10
23.091779
20
3.5119854
11
23.0905613
21
3.5809138
0
LINE
8
layer1
10
23.0905613
20
3.5809138
11
23.0799607
21
3.6556454
0
LINE
8
layer1
10
23.0799607
20
3.6556454
11
23.0595084
21
3.7354811
0
LINE
8
layer1
10
23.0595084
20
3.7354811
11
23.0287821
21
3.8197433
0
LINE
8
layer1
10
23.0287821
20
3.8197433
11
22.9873624
21
3.9076822
0
LINE
8
layer1
10
22.9873624
20
3.9076822
11
22.9349299
21
3.9985467
0
LINE
8
layer1
10
22.9349299
20
3.9985467
11
22.8711548
21
4.0915657
0
LINE
8
layer1
10
22.8711548
20
4.0915657
11
22.7957889
21
4.1859408
0
LINE
8
layer1
10
22.7957889
20
4.1859408
11
22.7848336
21
4.2031971
0
LINE
8
layer1
10
22.7848336
20
4.2031971
11
22.7680788
21
4.2571537
0
LINE
8
layer1
10
22.7680788
20
4.2571537
11
22.7455061
21
4.3551517
0
LINE
8
layer1
10
22.7455061
20
4.3551517
11
22.7264972
21
4.4861834
0
LINE
8
layer1
10
22.7264972
20
4.4861834
11
22.719859
21
4.5663154
0
LINE
8
layer1
10
22.719859
20
4.5663154
11
22.7163007
21
4.6543215
0
LINE
8
layer1
10
22.7163007
20
4.6543215
11
22.7164218
21
4.7492406
0
LINE
8
layer1
10
22.7164218
20
4.7492406
11
22.7209057
21
4.8535346
0
LINE
8
layer1
10
22.7209057
20
4.8535346
11
22.7303607
21
4.9647159
0
LINE
8
layer1
10
22.7303607
20
4.9647159
11
22.7456783
21
5.0849772
0
LINE
8
layer1
10
22.7456783
20
5.0849772
11
22.7674937
21
5.2129507
0
LINE
8
layer1
10
22.7674937
20
5.2129507
11
22.7958039
21
5.3454082
0
LINE
8
layer1
10
22.7958039
20
5.3454082
11
22.8322057
21
5.4865998
0
LINE
8
layer1
10
22.8322057
20
5.4865998
11
22.868927
21
5.6087525
0
ARC
8
layer1
10
25.0000111
20
-0.0000335
40
6
50
105.1954851
51
110.8045185
0
LINE
8
layer1
10
23.4273323
20
5.7901894
11
23.52884
21
5.71295
0
LINE
8
layer1
10
23.52884
20
5.71295
11
23.64128
21
5.62012
0
LINE
8
layer1
10
23.64128
20
5.62012
11
23.74204
21
5.5296
0
LINE
8
layer1
10
23.74204
20
5.5296
11
23.83491
21
5.43889
0
LINE
8
layer1
10
23.83491
20
5.43889
11
23.91799
21
5.3506
0
LINE
8
layer1
10
23.91799
20
5.3506
11
23.99099
21
5.26621
0
LINE
8
layer1
10
23.99099
20
5.26621
11
24.05592
21
5.18447
0
LINE
8
layer1
10
24.05592
20
5.18447
11
24.11181
21
5.10775
0
LINE
8
layer1
10
24.11181
20
5.10775
11
24.16066
21
5.03446
0
LINE
8
layer1
10
24.16066
20
5.03446
11
24.20239
21
4.96573
0
LINE
8
layer1
10
24.20239
20
4.96573
11
24.26403
21
4.84855
0
LINE
8
layer1
10
24.26403
20
4.84855
11
24.30337
21
4.756
0
LINE
8
layer1
10
24.30337
20
4.756
11
24.32153
21
4.7025
0
LINE
8
layer1
10
24.32153
20
4.7025
11
24.32281
21
4.6821
0
LINE
8
layer1
10
24.32281
20
4.6821
11
24.31731
21
4.56145
0
LINE
8
layer1
10
24.31731
20
4.56145
11
24.32039
21
4.44871
0
LINE
8
layer1
10
24.32039
20
4.44871
11
24.33138
21
4.34438
0
LINE
8
layer1
10
24.33138
20
4.34438
11
24.34956
21
4.24889
0
LINE
8
layer1
10
24.34956
20
4.24889
11
24.37423
21
4.16266
0
LINE
8
layer1
10
24.37423
20
4.16266
11
24.40461
21
4.08605
0
LINE
8
layer1
10
24.40461
20
4.08605
11
24.43996
21
4.01936
0
LINE
8
layer1
10
24.43996
20
4.01936
11
24.47949
21
3.96288
0
LINE
8
layer1
10
24.47949
20
3.96288
11
24.5224
21
3.9168
0
LINE
8
layer1
10
24.5224
20
3.9168
11
24.5679
21
3.88131
0
LINE
8
layer1
10
24.5679
20
3.88131
11
24.61516
21
3.85652
0
LINE
8
layer1
10
24.61516
20
3.85652
11
24.66337
21
3.8425
0
LINE
8
layer1
10
24.66337
20
3.8425
11
24.70569
21
3.8391
0
LINE
8
layer1
10
24.70569
20
3.8391
11
24.82729
21
3.84614
0
LINE
8
layer1
10
24.82729
20
3.84614
11
25
21
3.85
0
LINE
8
layer1
10
25
20
3.85
11
25.17271
21
3.84614
0
LINE
8
layer1
10
25.17271
20
3.84614
11
25.29431
21
3.8391
0
LINE
8
layer1
10
25.29431
20
3.8391
11
25.33663
21
3.8425
0
LINE
8
layer1
10
25.33663
20
3.8425
11
25.38484
21
3.85652
0
LINE
8
layer1
10
25.38484
20
3.85652
11
25.4321
21
3.88131
0
LINE
8
layer1
10
25.4321
20
3.88131
11
25.4776
21
3.9168
0
LINE
8
layer1
10
25.4776
20
3.9168
11
25.52051
21
3.96288
0
LINE
8
layer1
10
25.52051
20
3.96288
11
25.56004
21
4.01936
0
LINE
8
layer1
10
25.56004
20
4.01936
11
25.59539
21
4.08605
0
LINE
8
layer1
10
25.59539
20
4.08605
11
25.62577
21
4.16266
0
LINE
8
layer1
10
25.62577
20
4.16266
11
25.65044
21
4.24889
0
LINE
8
layer1
10
25.65044
20
4.24889
11
25.66862
21
4.34438
0
LINE
8
layer1
10
25.66862
20
4.34438
11
25.67961
21
4.44871
0
LINE
8
layer1
10
25.67961
20
4.44871
11
25.68269
21
4.56145
0
LINE
8
layer1
10
25.68269
20
4.56145
11
25.67719
21
4.6821
0
LINE
8
layer1
10
25.67719
20
4.6821
11
25.67847
21
4.7025
0
LINE
8
layer1
10
25.67847
20
4.7025
11
25.69663
21
4.756
0
LINE
8
layer1
10
25.69663
20
4.756
11
25.73597
21
4.84855
0
LINE
8
layer1
10
25.73597
20
4.84855
11
25.79761
21
4.96573
0
LINE
8
layer1
10
25.79761
20
4.96573
11
25.83934
21
5.03446
0
LINE
8
layer1
10
25.83934
20
5.03446
11
25.88819
21
5.10775
0
LINE
8
layer1
10
25.88819
20
5.10775
11
25.94408
21
5.18447
0
LINE
8
layer1
10
25.94408
20
5.18447
11
26.00901
21
5.26621
0
LINE
8
layer1
10
26.00901
20
5.26621
11
26.08201
21
5.3506
0
LINE
8
layer1
10
26.08201
20
5.3506
11
26.16509
21
5.43889
0
LINE
8
layer1
10
26.16509
20
5.43889
11
26.25796
21
5.5296
0
LINE
8
layer1
10
26.25796
20
5.5296
11
26.35872
21
5.62012
0
LINE
8
layer1
10
26.35872
20
5.62012
11
26.47116
21
5.71295
0
LINE
8
layer1
10
26.47116
20
5.71295
11
26.5726677
21
5.7901894
0
ARC
8
layer1
10
24.9999889
20
-0.0000335
40
6
50
69.1954815
51
74.8045149
0
LINE
8
layer1
10
27.131073
20
5.6087525
11
27.1677943
21
5.4865998
0
LINE
8
layer1
10
27.1677943
20
5.4865998
11
27.2041961
21
5.3454082
0
LINE
8
layer1
10
27.2041961
20
5.3454082
11
27.2325063
21
5.2129507
0
LINE
8
layer1
10
27.2325063
20
5.2129507
11
27.2543217
21
5.0849772
0
LINE
8
layer1
10
27.2543217
20
5.0849772
11
27.2696393
21
4.9647159
0
LINE
8
layer1
10
27.2696393
20
4.9647159
11
27.2790943
21
4.8535346
0
LINE
8
layer1
10
27.2790943
20
4.8535346
11
27.2835782
21
4.7492406
0
LINE
8
layer1
10
27.2835782
20
4.7492406
11
27.2836993
21
4.6543215
0
LINE
8
layer1
10
27.2836993
20
4.6543215
11
27.280141
21
4.5663154
0
LINE
8
layer1
10
27.280141
20
4.5663154
11
27.2735028
21
4.4861834
0
LINE
8
layer1
10
27.2735028
20
4.4861834
11
27.2544939
21
4.3551517
0
LINE
8
layer1
10
27.2544939
20
4.3551517
11
27.2319212
21
4.2571537
0
LINE
8
layer1
10
27.2319212
20
4.2571537
11
27.2151664
21
4.2031971
0
LINE
8
layer1
10
27.2151664
20
4.2031971
11
27.2042111
21
4.1859408
0
LINE
8
layer1
10
27.2042111
20
4.1859408
11
27.1288452
21
4.0915657
0
LINE
8
layer1
10
27.1288452
20
4.0915657
11
27.0650701
21
3.9985467
0
LINE
8
layer1
10
27.0650701
20
3.9985467
11
27.0126376
21
3.9076822
0
LINE
8
layer1
10
27.0126376
20
3.9076822
11
26.9712179
21
3.8197433
0
LINE
8
layer1
10
26.9712179
20
3.8197433
11
26.9404916
21
3.7354811
0
LINE
8
layer1
10
26.9404916
20
3.7354811
11
26.9200393
21
3.6556454
0
LINE
8
layer1
10
26.9200393
20
3.6556454
11
26.9094387
21
3.5809138
0
LINE
8
layer1
10
26.9094387
20
3.5809138
11
26.908221
21
3.5119854
0
LINE
8
layer1
10
26.908221
20
3.5119854
11
26.9158508
21
3.449484
0
LINE
8
layer1
10
26.9158508
20
3.449484
11
26.9318005
21
3.3940278
0
LINE
8
layer1
10
26.9318005
20
3.3940278
11
26.9554635
21
3.3461935
0
LINE
8
layer1
10
26.9554635
20
3.3461935
11
26.9862254
21
3.306514
0
LINE
8
layer1
10
26.9862254
20
3.306514
11
27.0184646
21
3.2788882
0
LINE
8
layer1
10
27.0184646
20
3.2788882
11
27.120979
21
3.213109
0
LINE
8
layer1
10
27.120979
20
3.213109
11
27.2629732
21
3.1147154
0
LINE
8
layer1
10
27.2629732
20
3.1147154
11
27.4004297
21
3.0100762
0
LINE
8
layer1
10
27.4004297
20
3.0100762
11
27.4946682
21
2.9329061
0
LINE
8
layer1
10
27.4946682
20
2.9329061
11
27.5309042
21
2.9107817
0
LINE
8
layer1
10
27.5309042
20
2.9107817
11
27.5781477
21
2.8937869
0
LINE
8
layer1
10
27.5781477
20
2.8937869
11
27.630953
21
2.8860637
0
LINE
8
layer1
10
27.630953
20
2.8860637
11
27.6886238
21
2.8880315
0
LINE
8
layer1
10
27.6886238
20
2.8880315
11
27.7504239
21
2.9000892
0
LINE
8
layer1
10
27.7504239
20
2.9000892
11
27.8156024
21
2.9225473
0
LINE
8
layer1
10
27.8156024
20
2.9225473
11
27.8834006
21
2.9557224
0
LINE
8
layer1
10
27.8834006
20
2.9557224
11
27.9530087
21
2.9998443
0
LINE
8
layer1
10
27.9530087
20
2.9998443
11
28.0236519
21
3.0551052
0
LINE
8
layer1
10
28.0236519
20
3.0551052
11
28.0944874
21
3.1216723
0
LINE
8
layer1
10
28.0944874
20
3.1216723
11
28.1647022
21
3.1996173
0
LINE
8
layer1
10
28.1647022
20
3.1996173
11
28.2334609
21
3.2890155
0
LINE
8
layer1
10
28.2334609
20
3.2890155
11
28.2999275
21
3.3898562
0
LINE
8
layer1
10
28.2999275
20
3.3898562
11
28.3129539
21
3.4056078
0
LINE
8
layer1
10
28.3129539
20
3.4056078
11
28.3590922
21
3.438216
0
LINE
8
layer1
10
28.3590922
20
3.438216
11
28.4453184
21
3.489967
0
LINE
8
layer1
10
28.4453184
20
3.489967
11
28.5640629
21
3.5485366
0
LINE
8
layer1
10
28.5640629
20
3.5485366
11
28.6382217
21
3.579612
0
LINE
8
layer1
10
28.6382217
20
3.579612
11
28.7208209
21
3.6101916
0
LINE
8
layer1
10
28.7208209
20
3.6101916
11
28.8111318
21
3.639408
0
LINE
8
layer1
10
28.8111318
20
3.639408
11
28.9117068
21
3.6673722
0
LINE
8
layer1
10
28.9117068
20
3.6673722
11
29.0203682
21
3.6927368
0
LINE
8
layer1
10
29.0203682
20
3.6927368
11
29.1394769
21
3.7153317
0
LINE
8
layer1
10
29.1394769
20
3.7153317
11
29.2679283
21
3.73413
0
LINE
8
layer1
10
29.2679283
20
3.73413
11
29.4026512
21
3.748137
0
LINE
8
layer1
10
29.4026512
20
3.748137
11
29.5481812
21
3.7571475
0
LINE
8
layer1
10
29.5481812
20
3.7571475
11
29.6757029
21
3.7599708
0
ARC
8
layer1
10
24.9999718
20
-0.0000211
40
6
50
33.1954882
51
38.8045217
0
LINE
8
layer1
10
30.0208163
20
3.2849628
11
29.9787249
21
3.1645549
0
ENDSEC
0
EOF