0
SECTION
2
HEADER
9
$INSUNITS
70
4
9
$ACADVER
1
AC1014
9
$HANDSEED
5
FFFF
0
ENDSEC
0
SECTION
2
TABLES
0
TABLE
2
VPORT
5
8
100
AcDbSymbolTable
0
ENDTAB
0
TABLE
2
LTYPE
5
5
100
AcDbSymbolTable
0
LTYPE
5
14
100
AcDbSymbolTableRecord
100
AcDbLinetypeTableRecord
2
BYBLOCK
70
0
0
LTYPE
5
15
100
AcDbSymbolTableRecord
100
AcDbLinetypeTableRecord
2
BYLAYER
70
0
0
ENDTAB
0
TABLE
2
LAYER
5
2
100
AcDbSymbolTable
70
2
0
LAYER
5
50
100
AcDbSymbolTableRecord
100
AcDbLayerTableRecord
2
0
70
0
6
CONTINUOUS
0
ENDTAB
0
TABLE
2
STYLE
5
3
100
AcDbSymbolTable
70
1
0
STYLE
5
11
100
AcDbSymbolTableRecord
100
AcDbTextStyleTableRecord
2
STANDARD
70
0
0
ENDTAB
0
TABLE
2
VIEW
5
6
100
AcDbSymbolTable
70
0
0
ENDTAB
0
TABLE
2
UCS
5
7
100
AcDbSymbolTable
70
0
0
ENDTAB
0
TABLE
2
APPID
5
9
100
AcDbSymbolTable
70
2
0
APPID
5
12
100
AcDbSymbolTableRecord
100
AcDbRegAppTableRecord
2
ACAD
70
0
0
ENDTAB
0
TABLE
2
DIMSTYLE
5
A
100
AcDbSymbolTable
70
1
0
ENDTAB
0
TABLE
2
BLOCK_RECORD
5
1
100
AcDbSymbolTable
70
1
0
BLOCK_RECORD
5
1F
100
AcDbSymbolTableRecord
100
AcDbBlockTableRecord
2
*MODEL_SPACE
0
BLOCK_RECORD
5
1B
100
AcDbSymbolTableRecord
100
AcDbBlockTableRecord
2
*PAPER_SPACE
0
ENDTAB
0
ENDSEC
0
SECTION
2
BLOCKS
0
BLOCK
5
20
100
AcDbEntity
100
AcDbBlockBegin
2
*MODEL_SPACE
0
ENDBLK
5
21
100
AcDbEntity
100
AcDbBlockEnd
0
BLOCK
5
1C
100
AcDbEntity
100
AcDbBlockBegin
2
*PAPER_SPACE
0
ENDBLK
5
1D
100
AcDbEntity
100
AcDbBlockEnd
0
ENDSEC
0
SECTION
2
ENTITIES
0
LWPOLYLINE
5
100
100
AcDbEntity
8
0
100
AcDbPolyline
90
4
70
1
43
0.0
10
22.150000000000002
20
2.4999999999999991
10
22.150000000000002
20
8.5
10
36.850000000000009
20
8.5
10
36.850000000000009
20
2.4999999999999991
0
CIRCLE
5
101
100
AcDbEntity
8
0
100
AcDbCircle
10
62.5
20
0
30
0
40
3.75
210
0
220
0
230
1
0
LWPOLYLINE
5
102
100
AcDbEntity
8
0
100
AcDbPolyline
90
4
70
1
43
0.0
10
22.150000000000002
20
-4.4999999999999982
10
33.450000000000003
20
-4.5000000000000009
10
33.450000000000003
20
-10.499999999999998
10
22.150000000000002
20
-10.499999999999998
0
CIRCLE
5
103
100
AcDbEntity
8
0
100
AcDbCircle
10
14.500000000000002
20
7.0999999999999996
30
0
40
1.4999999999999991
210
0
220
0
230
1
0
LWPOLYLINE
5
104
100
AcDbEntity
8
0
100
AcDbPolyline
90
4
70
1
43
0.0
10
-76.799999999999983
20
-2.5300000000000167
10
-76.799999999999983
20
13.969999999999985
10
0
20
13.969999999999985
10
-4.4408920985006262e-15
20
-2.5300000000000145
0
LWPOLYLINE
5
105
100
AcDbEntity
8
0
100
AcDbPolyline
90
4
70
1
43
0.0
10
-79.375000000000014
20
-16.509999999999998
10
79.374999999999986
20
-16.509999999999994
10
79.374999999999986
20
16.509999999999984
10
-79.374999999999986
20
16.510000000000002
0
LWPOLYLINE
5
106
100
AcDbEntity
8
0
100
AcDbPolyline
90
4
70
1
43
0.0
10
-0.15000000000000546
20
-2.3800000000000141
10
-76.649999999999977
20
-2.3800000000000154
10
-76.649999999999977
20
13.819999999999986
10
-0.14999999999999897
20
13.819999999999988
0
LINE
5
107
100
AcDbEntity
8
0
100
AcDbLine
10
-76.649999999999977
20
3.619999999999985
30
0
11
-70.649999999999991
21
3.6199999999999855
31
0
0
LINE
5
108
100
AcDbEntity
8
0
100
AcDbLine
10
-70.649999999999991
20
3.6199999999999855
30
0
11
-70.649999999999991
21
0.61999999999998412
31
0
0
LINE
5
109
100
AcDbEntity
8
0
100
AcDbLine
10
-70.649999999999991
20
0.61999999999998412
30
0
11
-67.649999999999977
21
0.61999999999998401
31
0
0
LINE
5
110
100
AcDbEntity
8
0
100
AcDbLine
10
-67.649999999999977
20
0.61999999999998401
30
0
11
-67.649999999999977
21
3.6199999999999841
31
0
0
LINE
5
111
100
AcDbEntity
8
0
100
AcDbLine
10
-67.649999999999977
20
3.6199999999999841
30
0
11
-38.399999999999991
21
3.619999999999977
31
0
0
LINE
5
112
100
AcDbEntity
8
0
100
AcDbLine
10
-38.399999999999991
20
13.819999999999988
30
0
11
-38.399999999999991
21
-2.380000000000015
31
0
0
LINE
5
113
100
AcDbEntity
8
0
100
AcDbLine
10
-0.15000000000000568
20
3.6199999999999655
30
0
11
-6.1500000000000021
21
3.6199999999999677
31
0
0
LINE
5
114
100
AcDbEntity
8
0
100
AcDbLine
10
-6.1500000000000021
20
3.6199999999999677
30
0
11
-6.1500000000000021
21
0.61999999999996724
31
0
0
LINE
5
115
100
AcDbEntity
8
0
100
AcDbLine
10
-6.1500000000000021
20
0.61999999999996724
30
0
11
-9.1500000000000092
21
0.61999999999996946
31
0
0
LINE
5
116
100
AcDbEntity
8
0
100
AcDbLine
10
-9.1500000000000092
20
0.61999999999996946
30
0
11
-9.1500000000000092
21
3.6199999999999677
31
0
0
LINE
5
117
100
AcDbEntity
8
0
100
AcDbLine
10
-9.1500000000000092
20
3.6199999999999677
30
0
11
-38.399999999999991
21
3.6199999999999766
31
0
0
CIRCLE
5
118
100
AcDbEntity
8
0
100
AcDbCircle
10
-61.999999980776266
20
-0.99999999148350227
30
0
40
2.0500000000000016
210
0
220
-0
230
1
0
CIRCLE
5
119
100
AcDbEntity
8
0
100
AcDbCircle
10
-49.999999980776266
20
-0.99999999148350227
30
0
40
2.0500000000000016
210
0
220
-0
230
1
0
CIRCLE
5
120
100
AcDbEntity
8
0
100
AcDbCircle
10
-36.499999980776266
20
-0.99999999148350227
30
0
40
2.0500000000000016
210
0
220
-0
230
1
0
CIRCLE
5
121
100
AcDbEntity
8
0
100
AcDbCircle
10
-28.499999980776266
20
-0.99999999148350227
30
0
40
2.0500000000000016
210
0
220
-0
230
1
0
CIRCLE
5
122
100
AcDbEntity
8
0
100
AcDbCircle
10
-19.999999980776266
20
-0.99999999148350227
30
0
40
2.0500000000000016
210
0
220
-0
230
1
0
ENDSEC
0
SECTION
2
OBJECTS
0
DICTIONARY
5
C
100
AcDbDictionary
3
ACAD_GROUP
350
D
3
ACAD_MLINESTYLE
350
17
0
DICTIONARY
5
D
100
AcDbDictionary
0
DICTIONARY
5
1A
330
C
100
AcDbDictionary
0
DICTIONARY
5
17
100
AcDbDictionary
0
ENDSEC
0
EOF
