0
SECTION
2
HEADER
0
ENDSEC
0
SECTION
2
TABLES
0
TABLE
2
LTYPE
0
LTYPE
72
65
70
64
2
CONTINUOUS
3
______
73
0
40
0
0
ENDTAB
0
TABLE
2
LAYER
0
ENDTAB
0
ENDSEC
0
SECTION
2
ENTITIES
0
CIRCLE
8
0
10
0
20
0
40
2
0
CIRCLE
8
0
10
0
20
0
40
2
0
LINE
8
layer0
10
6.0015506
20
6.481828
11
5.9926139
21
6.2402464
0
LINE
8
layer0
10
5.9926139
20
6.2402464
11
5.9745704
21
6.0118825
0
LINE
8
layer0
10
5.9745704
20
6.0118825
11
5.9482365
21
5.7947875
0
LINE
8
layer0
10
5.9482365
20
5.7947875
11
5.9148414
21
5.5913181
0
LINE
8
layer0
10
5.9148414
20
5.5913181
11
5.8751731
21
5.4000224
0
LINE
8
layer0
10
5.8751731
20
5.4000224
11
5.8301142
21
5.2210037
0
LINE
8
layer0
10
5.8301142
20
5.2210037
11
5.7813985
21
5.0568615
0
LINE
8
layer0
10
5.7813985
20
5.0568615
11
5.7293177
21
4.9049617
0
LINE
8
layer0
10
5.7293177
20
4.9049617
11
5.619895
21
4.6405278
0
LINE
8
layer0
10
5.619895
20
4.6405278
11
5.510063
21
4.4274413
0
LINE
8
layer0
10
5.510063
20
4.4274413
11
5.4081734
21
4.2645852
0
LINE
8
layer0
10
5.4081734
20
4.2645852
11
5.2937624
21
4.1154224
0
LINE
8
layer0
10
5.2937624
20
4.1154224
11
5.10785
21
4.0414194
0
LINE
8
layer0
10
5.10785
20
4.0414194
11
4.9352284
21
3.9585556
0
LINE
8
layer0
10
4.9352284
20
3.9585556
11
4.7785036
21
3.8688407
0
LINE
8
layer0
10
4.7785036
20
3.8688407
11
4.6379392
21
3.773456
0
LINE
8
layer0
10
4.6379392
20
3.773456
11
4.5136916
21
3.6735979
0
LINE
8
layer0
10
4.5136916
20
3.6735979
11
4.4058725
21
3.5704635
0
LINE
8
layer0
10
4.4058725
20
3.5704635
11
4.3145266
21
3.4652506
0
LINE
8
layer0
10
4.3145266
20
3.4652506
11
4.239618
21
3.359163
0
LINE
8
layer0
10
4.239618
20
3.359163
11
4.1810298
21
3.2533653
0
LINE
8
layer0
10
4.1810298
20
3.2533653
11
4.1385875
21
3.1490498
0
LINE
8
layer0
10
4.1385875
20
3.1490498
11
4.1120443
21
3.0473741
0
LINE
8
layer0
10
4.1120443
20
3.0473741
11
4.1010909
21
2.9494878
0
LINE
8
layer0
10
4.1010909
20
2.9494878
11
4.1053363
21
2.856479
0
LINE
8
layer0
10
4.1053363
20
2.856479
11
4.1243367
21
2.7694771
0
LINE
8
layer0
10
4.1243367
20
2.7694771
11
4.1526588
21
2.6990956
0
LINE
8
layer0
10
4.1526588
20
2.6990956
11
4.3351497
21
2.3893844
0
LINE
8
layer0
10
4.3351497
20
2.3893844
11
4.4597959
21
2.1477245
0
LINE
8
layer0
10
4.4597959
20
2.1477245
11
4.5710176
21
1.8995997
0
LINE
8
layer0
10
4.5710176
20
1.8995997
11
4.6993783
21
1.5638208
0
LINE
8
layer0
10
4.6993783
20
1.5638208
11
4.7367462
21
1.4977955
0
LINE
8
layer0
10
4.7367462
20
1.4977955
11
4.7929205
21
1.4286956
0
LINE
8
layer0
10
4.7929205
20
1.4286956
11
4.8629907
21
1.3673864
0
LINE
8
layer0
10
4.8629907
20
1.3673864
11
4.9463507
21
1.3149191
0
LINE
8
layer0
10
4.9463507
20
1.3149191
11
5.0423934
21
1.2722776
0
LINE
8
layer0
10
5.0423934
20
1.2722776
11
5.1504129
21
1.2404207
0
LINE
8
layer0
10
5.1504129
20
1.2404207
11
5.269658
21
1.2202629
0
LINE
8
layer0
10
5.269658
20
1.2202629
11
5.3993053
21
1.2126843
0
LINE
8
layer0
10
5.3993053
20
1.2126843
11
5.5385173
21
1.2185023
0
LINE
8
layer0
10
5.5385173
20
1.2185023
11
5.6863752
21
1.2384953
0
LINE
8
layer0
10
5.6863752
20
1.2384953
11
5.8419145
21
1.2733755
0
LINE
8
layer0
10
5.8419145
20
1.2733755
11
6.0041297
21
1.3238018
0
LINE
8
layer0
10
6.0041297
20
1.3238018
11
6.1719879
21
1.3903979
0
LINE
8
layer0
10
6.1719879
20
1.3903979
11
6.3444013
21
1.4736942
0
LINE
8
layer0
10
6.3444013
20
1.4736942
11
6.5181737
21
1.5729063
0
LINE
8
layer0
10
6.5181737
20
1.5729063
11
6.7061279
21
1.5693548
0
LINE
8
layer0
10
6.7061279
20
1.5693548
11
6.8969811
21
1.5474763
0
LINE
8
layer0
10
6.8969811
20
1.5474763
11
7.1320579
21
1.5004891
0
LINE
8
layer0
10
7.1320579
20
1.5004891
11
7.4070246
21
1.4211674
0
LINE
8
layer0
10
7.4070246
20
1.4211674
11
7.5582565
21
1.3671778
0
LINE
8
layer0
10
7.5582565
20
1.3671778
11
7.7169618
21
1.3029243
0
LINE
8
layer0
10
7.7169618
20
1.3029243
11
7.8850181
21
1.2265364
0
LINE
8
layer0
10
7.8850181
20
1.2265364
11
8.0593118
21
1.1382795
0
LINE
8
layer0
10
8.0593118
20
1.1382795
11
8.2392121
21
1.0375277
0
LINE
8
layer0
10
8.2392121
20
1.0375277
11
8.4253627
21
0.9227598
0
LINE
8
layer0
10
8.4253627
20
0.9227598
11
8.6151547
21
0.7944842
0
LINE
8
layer0
10
8.6151547
20
0.7944842
11
8.8096028
21
0.6508476
0
LINE
8
layer0
10
8.8096028
20
0.6508476
11
8.9854687
21
0.5093433
0
ARC
8
layer0
10
-0.0001069
20
0
40
9
50
356.7556864
51
363.2443136
0
LINE
8
layer0
10
8.9854687
20
-0.5093433
11
8.8096028
21
-0.6508476
0
LINE
8
layer0
10
8.8096028
20
-0.6508476
11
8.6151547
21
-0.7944842
0
LINE
8
layer0
10
8.6151547
20
-0.7944842
11
8.4253627
21
-0.9227598
0
LINE
8
layer0
10
8.4253627
20
-0.9227598
11
8.2392121
21
-1.0375277
0
LINE
8
layer0
10
8.2392121
20
-1.0375277
11
8.0593118
21
-1.1382795
0
LINE
8
layer0
10
8.0593118
20
-1.1382795
11
7.8850181
21
-1.2265364
0
LINE
8
layer0
10
7.8850181
20
-1.2265364
11
7.7169618
21
-1.3029243
0
LINE
8
layer0
10
7.7169618
20
-1.3029243
11
7.5582565
21
-1.3671778
0
LINE
8
layer0
10
7.5582565
20
-1.3671778
11
7.4070246
21
-1.4211674
0
LINE
8
layer0
10
7.4070246
20
-1.4211674
11
7.1320579
21
-1.5004891
0
LINE
8
layer0
10
7.1320579
20
-1.5004891
11
6.8969811
21
-1.5474763
0
LINE
8
layer0
10
6.8969811
20
-1.5474763
11
6.7061279
21
-1.5693548
0
LINE
8
layer0
10
6.7061279
20
-1.5693548
11
6.5181737
21
-1.5729063
0
LINE
8
layer0
10
6.5181737
20
-1.5729063
11
6.3444013
21
-1.4736942
0
LINE
8
layer0
10
6.3444013
20
-1.4736942
11
6.1719879
21
-1.3903979
0
LINE
8
layer0
10
6.1719879
20
-1.3903979
11
6.0041297
21
-1.3238018
0
LINE
8
layer0
10
6.0041297
20
-1.3238018
11
5.8419145
21
-1.2733755
0
LINE
8
layer0
10
5.8419145
20
-1.2733755
11
5.6863752
21
-1.2384953
0
LINE
8
layer0
10
5.6863752
20
-1.2384953
11
5.5385173
21
-1.2185023
0
LINE
8
layer0
10
5.5385173
20
-1.2185023
11
5.3993053
21
-1.2126843
0
LINE
8
layer0
10
5.3993053
20
-1.2126843
11
5.269658
21
-1.2202629
0
LINE
8
layer0
10
5.269658
20
-1.2202629
11
5.1504129
21
-1.2404207
0
LINE
8
layer0
10
5.1504129
20
-1.2404207
11
5.0423934
21
-1.2722776
0
LINE
8
layer0
10
5.0423934
20
-1.2722776
11
4.9463507
21
-1.3149191
0
LINE
8
layer0
10
4.9463507
20
-1.3149191
11
4.8629907
21
-1.3673864
0
LINE
8
layer0
10
4.8629907
20
-1.3673864
11
4.7929205
21
-1.4286956
0
LINE
8
layer0
10
4.7929205
20
-1.4286956
11
4.7367462
21
-1.4977955
0
LINE
8
layer0
10
4.7367462
20
-1.4977955
11
4.6993783
21
-1.5638208
0
LINE
8
layer0
10
4.6993783
20
-1.5638208
11
4.5710176
21
-1.8995997
0
LINE
8
layer0
10
4.5710176
20
-1.8995997
11
4.4597959
21
-2.1477245
0
LINE
8
layer0
10
4.4597959
20
-2.1477245
11
4.3351497
21
-2.3893844
0
LINE
8
layer0
10
4.3351497
20
-2.3893844
11
4.1526588
21
-2.6990956
0
LINE
8
layer0
10
4.1526588
20
-2.6990956
11
4.1243367
21
-2.7694771
0
LINE
8
layer0
10
4.1243367
20
-2.7694771
11
4.1053363
21
-2.856479
0
LINE
8
layer0
10
4.1053363
20
-2.856479
11
4.1010909
21
-2.9494878
0
LINE
8
layer0
10
4.1010909
20
-2.9494878
11
4.1120443
21
-3.0473741
0
LINE
8
layer0
10
4.1120443
20
-3.0473741
11
4.1385875
21
-3.1490498
0
LINE
8
layer0
10
4.1385875
20
-3.1490498
11
4.1810298
21
-3.2533653
0
LINE
8
layer0
10
4.1810298
20
-3.2533653
11
4.239618
21
-3.359163
0
LINE
8
layer0
10
4.239618
20
-3.359163
11
4.3145266
21
-3.4652506
0
LINE
8
layer0
10
4.3145266
20
-3.4652506
11
4.4058725
21
-3.5704635
0
LINE
8
layer0
10
4.4058725
20
-3.5704635
11
4.5136916
21
-3.6735979
0
LINE
8
layer0
10
4.5136916
20
-3.6735979
11
4.6379392
21
-3.773456
0
LINE
8
layer0
10
4.6379392
20
-3.773456
11
4.7785036
21
-3.8688407
0
LINE
8
layer0
10
4.7785036
20
-3.8688407
11
4.9352284
21
-3.9585556
0
LINE
8
layer0
10
4.9352284
20
-3.9585556
11
5.10785
21
-4.0414194
0
LINE
8
layer0
10
5.10785
20
-4.0414194
11
5.2937624
21
-4.1154224
0
LINE
8
layer0
10
5.2937624
20
-4.1154224
11
5.4081734
21
-4.2645852
0
LINE
8
layer0
10
5.4081734
20
-4.2645852
11
5.510063
21
-4.4274413
0
LINE
8
layer0
10
5.510063
20
-4.4274413
11
5.619895
21
-4.6405278
0
LINE
8
layer0
10
5.619895
20
-4.6405278
11
5.7293177
21
-4.9049617
0
LINE
8
layer0
10
5.7293177
20
-4.9049617
11
5.7813985
21
-5.0568615
0
LINE
8
layer0
10
5.7813985
20
-5.0568615
11
5.8301142
21
-5.2210037
0
LINE
8
layer0
10
5.8301142
20
-5.2210037
11
5.8751731
21
-5.4000224
0
LINE
8
layer0
10
5.8751731
20
-5.4000224
11
5.9148414
21
-5.5913181
0
LINE
8
layer0
10
5.9148414
20
-5.5913181
11
5.9482365
21
-5.7947875
0
LINE
8
layer0
10
5.9482365
20
-5.7947875
11
5.9745704
21
-6.0118825
0
LINE
8
layer0
10
5.9745704
20
-6.0118825
11
5.9926139
21
-6.2402464
0
LINE
8
layer0
10
5.9926139
20
-6.2402464
11
6.0015506
21
-6.481828
0
LINE
8
layer0
10
6.0015506
20
-6.481828
11
6.0005687
21
-6.7075519
0
ARC
8
layer0
10
-0.0000665
20
0.0000839
40
9
50
305.3271129
51
311.8157402
0
LINE
8
layer0
10
5.2041275
20
-7.3426927
11
4.9838444
21
-7.2934216
0
LINE
8
layer0
10
4.9838444
20
-7.2934216
11
4.7503083
21
-7.230952
0
LINE
8
layer0
10
4.7503083
20
-7.230952
11
4.531685
21
-7.1625452
0
LINE
8
layer0
10
4.531685
20
-7.1625452
11
4.3258929
21
-7.0885634
0
LINE
8
layer0
10
4.3258929
20
-7.0885634
11
4.134956
21
-7.0107293
0
LINE
8
layer0
10
4.134956
20
-7.0107293
11
3.9572836
21
-6.9294883
0
LINE
8
layer0
10
3.9572836
20
-6.9294883
11
3.7927797
21
-6.8457237
0
LINE
8
layer0
10
3.7927797
20
-6.8457237
11
3.6435932
21
-6.7617043
0
LINE
8
layer0
10
3.6435932
20
-6.7617043
11
3.5070909
21
-6.6771284
0
LINE
8
layer0
10
3.5070909
20
-6.6771284
11
3.2736358
21
-6.5116071
0
LINE
8
layer0
10
3.2736358
20
-6.5116071
11
3.0903317
21
-6.3571126
0
LINE
8
layer0
10
3.0903317
20
-6.3571126
11
2.9542313
21
-6.2215386
0
LINE
8
layer0
10
2.9542313
20
-6.2215386
11
2.8342672
21
-6.0768044
0
LINE
8
layer0
10
2.8342672
20
-6.0768044
11
2.803489
21
-5.879086
0
LINE
8
layer0
10
2.803489
20
-5.879086
11
2.7611147
21
-5.6923534
0
LINE
8
layer0
10
2.7611147
20
-5.6923534
11
2.7085237
21
-5.5195945
0
LINE
8
layer0
10
2.7085237
20
-5.5195945
11
2.646809
21
-5.3613293
0
LINE
8
layer0
10
2.646809
20
-5.3613293
11
2.5771023
21
-5.2179763
0
LINE
8
layer0
10
2.5771023
20
-5.2179763
11
2.5005456
21
-5.0899109
0
LINE
8
layer0
10
2.5005456
20
-5.0899109
11
2.4182971
21
-4.9774432
0
LINE
8
layer0
10
2.4182971
20
-4.9774432
11
2.331538
21
-4.880806
0
LINE
8
layer0
10
2.331538
20
-4.880806
11
2.24143
21
-4.8001446
0
LINE
8
layer0
10
2.24143
20
-4.8001446
11
2.1491742
21
-4.735554
0
LINE
8
layer0
10
2.1491742
20
-4.735554
11
2.0559541
21
-4.6870513
0
LINE
8
layer0
10
2.0559541
20
-4.6870513
11
1.9629594
21
-4.6545908
0
LINE
8
layer0
10
1.9629594
20
-4.6545908
11
1.8713379
21
-4.6380333
0
LINE
8
layer0
10
1.8713379
20
-4.6380333
11
1.7822892
21
-4.6371976
0
LINE
8
layer0
10
1.7822892
20
-4.6371976
11
1.7073701
21
-4.6491483
0
LINE
8
layer0
10
1.7073701
20
-4.6491483
11
1.364816
21
-4.7581465
0
LINE
8
layer0
10
1.364816
20
-4.7581465
11
1.1014786
21
-4.8258932
0
LINE
8
layer0
10
1.1014786
20
-4.8258932
11
0.8348257
21
-4.8791134
0
LINE
8
layer0
10
0.8348257
20
-4.8791134
11
0.4789025
21
-4.929538
0
LINE
8
layer0
10
0.4789025
20
-4.929538
11
0.4062175
21
-4.951277
0
LINE
8
layer0
10
0.4062175
20
-4.951277
11
0.3263501
21
-4.9906667
0
LINE
8
layer0
10
0.3263501
20
-4.9906667
11
0.250986
21
-5.0453375
0
LINE
8
layer0
10
0.250986
20
-5.0453375
11
0.1812847
21
-5.1149324
0
LINE
8
layer0
10
0.1812847
20
-5.1149324
11
0.1183408
21
-5.1990784
0
LINE
8
layer0
10
0.1183408
20
-5.1990784
11
0.063246
21
-5.2973008
0
LINE
8
layer0
10
0.063246
20
-5.2973008
11
0.0170592
21
-5.4090707
0
LINE
8
layer0
10
0.0170592
20
-5.4090707
11
-0.0191787
21
-5.5337811
0
LINE
8
layer0
10
-0.0191787
20
-5.5337811
11
-0.0444842
21
-5.6707974
0
LINE
8
layer0
10
-0.0444842
20
-5.6707974
11
-0.0578939
21
-5.819397
0
LINE
8
layer0
10
-0.0578939
20
-5.819397
11
-0.0584989
21
-5.9787982
0
LINE
8
layer0
10
-0.0584989
20
-5.9787982
11
-0.0454332
21
-6.1481672
0
LINE
8
layer0
10
-0.0454332
20
-6.1481672
11
-0.0178588
21
-6.3266359
0
LINE
8
layer0
10
-0.0178588
20
-6.3266359
11
0.0249835
21
-6.5132617
0
LINE
8
layer0
10
0.0249835
20
-6.5132617
11
0.0830401
21
-6.704754
0
LINE
8
layer0
10
0.0830401
20
-6.704754
11
0.037754
21
-6.8872056
0
LINE
8
layer0
10
0.037754
20
-6.8872056
11
-0.0260449
21
-7.0684052
0
LINE
8
layer0
10
-0.0260449
20
-7.0684052
11
-0.1241635
21
-7.2871326
0
LINE
8
layer0
10
-0.1241635
20
-7.2871326
11
-0.2626823
21
-7.5375545
0
LINE
8
layer0
10
-0.2626823
20
-7.5375545
11
-0.3489705
21
-7.6729809
0
LINE
8
layer0
10
-0.3489705
20
-7.6729809
11
-0.4469283
21
-7.8134094
0
LINE
8
layer0
10
-0.4469283
20
-7.8134094
11
-0.558797
21
-7.9602542
0
LINE
8
layer0
10
-0.558797
20
-7.9602542
11
-0.6836252
21
-8.1105391
0
LINE
8
layer0
10
-0.6836252
20
-8.1105391
11
-0.8218825
21
-8.2635095
0
LINE
8
layer0
10
-0.8218825
20
-8.2635095
11
-0.9751953
21
-8.4194547
0
LINE
8
layer0
10
-0.9751953
20
-8.4194547
11
-1.1424874
21
-8.5759442
0
LINE
8
layer0
10
-1.1424874
20
-8.5759442
11
-1.3257916
21
-8.7335548
0
LINE
8
layer0
10
-1.3257916
20
-8.7335548
11
-1.5028819
21
-8.8735238
0
ARC
8
layer0
10
0.0000238
20
0.0001042
40
9
50
253.8985434
51
260.3871706
0
LINE
8
layer0
10
-2.4960279
20
-8.6468447
11
-2.5948505
21
-8.4439004
0
LINE
8
layer0
10
-2.5948505
20
-8.4439004
11
-2.6916171
21
-8.2223655
0
LINE
8
layer0
10
-2.6916171
20
-8.2223655
11
-2.7744439
21
-8.0087879
0
LINE
8
layer0
10
-2.7744439
20
-8.0087879
11
-2.8449119
21
-7.8017662
0
LINE
8
layer0
10
-2.8449119
20
-7.8017662
11
-2.903106
21
-7.603957
0
LINE
8
layer0
10
-2.903106
20
-7.603957
11
-2.9503662
21
-7.4143942
0
LINE
8
layer0
10
-2.9503662
20
-7.4143942
11
-2.9874428
21
-7.2335535
0
LINE
8
layer0
10
-2.9874428
20
-7.2335535
11
-3.01477
21
-7.0645296
0
LINE
8
layer0
10
-3.01477
20
-7.0645296
11
-3.0337538
21
-6.9050756
0
LINE
8
layer0
10
-3.0337538
20
-6.9050756
11
-3.0499009
21
-6.6193521
0
LINE
8
layer0
10
-3.0499009
20
-6.6193521
11
-3.0434005
21
-6.3797135
0
LINE
8
layer0
10
-3.0434005
20
-6.3797135
11
-3.0222617
21
-6.188777
0
LINE
8
layer0
10
-3.0222617
20
-6.188777
11
-2.9839003
21
-6.0047449
0
LINE
8
layer0
10
-2.9839003
20
-6.0047449
11
-2.8485077
21
-5.8574061
0
LINE
8
layer0
10
-2.8485077
20
-5.8574061
11
-2.7289342
21
-5.7078507
0
LINE
8
layer0
10
-2.7289342
20
-5.7078507
11
-2.6266559
21
-5.55902
0
LINE
8
layer0
10
-2.6266559
20
-5.55902
11
-2.5413976
21
-5.4120928
0
LINE
8
layer0
10
-2.5413976
20
-5.4120928
11
-2.4727812
21
-5.2682148
0
LINE
8
layer0
10
-2.4727812
20
-5.2682148
11
-2.4203879
21
-5.1285129
0
LINE
8
layer0
10
-2.4203879
20
-5.1285129
11
-2.3837382
21
-4.9940858
0
LINE
8
layer0
10
-2.3837382
20
-4.9940858
11
-2.3622776
21
-4.8660026
0
LINE
8
layer0
10
-2.3622776
20
-4.8660026
11
-2.3553954
21
-4.7452617
0
LINE
8
layer0
10
-2.3553954
20
-4.7452617
11
-2.362417
21
-4.6328616
0
LINE
8
layer0
10
-2.362417
20
-4.6328616
11
-2.3826179
21
-4.5297384
0
LINE
8
layer0
10
-2.3826179
20
-4.5297384
11
-2.4152204
21
-4.4367933
0
LINE
8
layer0
10
-2.4152204
20
-4.4367933
11
-2.4594004
21
-4.3548373
0
LINE
8
layer0
10
-2.4594004
20
-4.3548373
11
-2.5142679
21
-4.2846952
0
LINE
8
layer0
10
-2.5142679
20
-4.2846952
11
-2.5703226
21
-4.2335723
0
LINE
8
layer0
10
-2.5703226
20
-4.2335723
11
-2.8691199
21
-4.033712
0
LINE
8
layer0
10
-2.8691199
20
-4.033712
11
-3.0862745
21
-3.8700658
0
LINE
8
layer0
10
-3.0862745
20
-3.8700658
11
-3.2941391
21
-3.6947704
0
LINE
8
layer0
10
-3.2941391
20
-3.6947704
11
-3.5554772
21
-3.4479377
0
LINE
8
layer0
10
-3.5554772
20
-3.4479377
11
-3.6177917
21
-3.4046643
0
LINE
8
layer0
10
-3.6177917
20
-3.4046643
11
-3.6983844
21
-3.3667806
0
LINE
8
layer0
10
-3.6983844
20
-3.3667806
11
-3.7881165
21
-3.3419452
0
LINE
8
layer0
10
-3.7881165
20
-3.3419452
11
-3.885986
21
-3.3308423
0
LINE
8
layer0
10
-3.885986
20
-3.3308423
11
-3.9910189
21
-3.334095
0
LINE
8
layer0
10
-3.9910189
20
-3.334095
11
-4.1021633
21
-3.3522608
0
LINE
8
layer0
10
-4.1021633
20
-3.3522608
11
-4.2183455
21
-3.3858378
0
LINE
8
layer0
10
-4.2183455
20
-3.3858378
11
-4.338442
21
-3.4352616
0
LINE
8
layer0
10
-4.338442
20
-3.4352616
11
-4.4613434
21
-3.5009052
0
LINE
8
layer0
10
-4.4613434
20
-3.5009052
11
-4.585884
21
-3.5830715
0
LINE
8
layer0
10
-4.585884
20
-3.5830715
11
-4.7108861
21
-3.6819834
0
LINE
8
layer0
10
-4.7108861
20
-3.6819834
11
-4.8351578
21
-3.7977985
0
LINE
8
layer0
10
-4.8351578
20
-3.7977985
11
-4.9574979
21
-3.9306304
0
LINE
8
layer0
10
-4.9574979
20
-3.9306304
11
-5.0766961
21
-4.0804851
0
LINE
8
layer0
10
-5.0766961
20
-4.0804851
11
-5.1902131
21
-4.2452691
0
LINE
8
layer0
10
-5.1902131
20
-4.2452691
11
-5.3610949
21
-4.3236197
0
LINE
8
layer0
10
-5.3610949
20
-4.3236197
11
-5.5425404
21
-4.3867159
0
LINE
8
layer0
10
-5.5425404
20
-4.3867159
11
-5.7747244
21
-4.4463779
0
LINE
8
layer0
10
-5.7747244
20
-4.4463779
11
-6.0568772
21
-4.4942151
0
LINE
8
layer0
10
-6.0568772
20
-4.4942151
11
-6.2165576
21
-4.5111892
0
LINE
8
layer0
10
-6.2165576
20
-4.5111892
11
-6.3874247
21
-4.5221585
0
LINE
8
layer0
10
-6.3874247
20
-4.5221585
11
-6.5719816
21
-4.5262522
0
LINE
8
layer0
10
-6.5719816
20
-4.5262522
11
-6.7673081
21
-4.5223587
0
LINE
8
layer0
10
-6.7673081
20
-4.5223587
11
-6.9731072
21
-4.5096403
0
LINE
8
layer0
10
-6.9731072
20
-4.5096403
11
-7.190619
21
-4.4870058
0
LINE
8
layer0
10
-7.190619
20
-4.4870058
11
-7.4172724
21
-4.4537811
0
LINE
8
layer0
10
-7.4172724
20
-4.4537811
11
-7.6547857
21
-4.4087368
0
LINE
8
layer0
10
-7.6547857
20
-4.4087368
11
-7.8746318
21
-4.3575512
0
ARC
8
layer0
10
0.0000961
20
0.0000468
40
9
50
202.469975
51
208.9586022
0
LINE
8
layer0
10
-8.3166233
20
-3.4397463
11
-8.21957
21
-3.23595
0
LINE
8
layer0
10
-8.21957
20
-3.23595
11
-8.1067
21
-3.02217
0
LINE
8
layer0
10
-8.1067
20
-3.02217
11
-7.99136
21
-2.82425
0
LINE
8
layer0
10
-7.99136
20
-2.82425
11
-7.87344
21
-2.64008
0
LINE
8
layer0
10
-7.87344
20
-2.64008
11
-7.75507
21
-2.47125
0
LINE
8
layer0
10
-7.75507
20
-2.47125
11
-7.63633
21
-2.31611
0
LINE
8
layer0
10
-7.63633
20
-2.31611
11
-7.51806
21
-2.17437
0
LINE
8
layer0
10
-7.51806
20
-2.17437
11
-7.40295
21
-2.04762
0
LINE
8
layer0
10
-7.40295
20
-2.04762
11
-7.29012
21
-1.93336
0
LINE
8
layer0
10
-7.29012
20
-1.93336
11
-7.0768
21
-1.74259
0
LINE
8
layer0
10
-7.0768
20
-1.74259
11
-6.88539
21
-1.59826
0
LINE
8
layer0
10
-6.88539
20
-1.59826
11
-6.72293
21
-1.49574
0
LINE
8
layer0
10
-6.72293
20
-1.49574
11
-6.55513
21
-1.41099
0
LINE
8
layer0
10
-6.55513
20
-1.41099
11
-6.35552
21
-1.42498
0
LINE
8
layer0
10
-6.35552
20
-1.42498
11
-6.16404
21
-1.42522
0
LINE
8
layer0
10
-6.16404
20
-1.42522
11
-5.98391
21
-1.41239
0
LINE
8
layer0
10
-5.98391
20
-1.41239
11
-5.81588
21
-1.38744
0
LINE
8
layer0
10
-5.81588
20
-1.38744
11
-5.66061
21
-1.35138
0
LINE
8
layer0
10
-5.66061
20
-1.35138
11
-5.51872
21
-1.30524
0
LINE
8
layer0
10
-5.51872
20
-1.30524
11
-5.39077
21
-1.25008
0
LINE
8
layer0
10
-5.39077
20
-1.25008
11
-5.27725
21
-1.187
0
LINE
8
layer0
10
-5.27725
20
-1.187
11
-5.17856
21
-1.1171
0
LINE
8
layer0
10
-5.17856
20
-1.1171
11
-5.09506
21
-1.04153
0
LINE
8
layer0
10
-5.09506
20
-1.04153
11
-5.02703
21
-0.96144
0
LINE
8
layer0
10
-5.02703
20
-0.96144
11
-4.97469
21
-0.878
0
LINE
8
layer0
10
-4.97469
20
-0.878
11
-4.93816
21
-0.79236
0
LINE
8
layer0
10
-4.93816
20
-0.79236
11
-4.91753
21
-0.70573
0
LINE
8
layer0
10
-4.91753
20
-0.70573
11
-4.91251
21
-0.63003
0
LINE
8
layer0
10
-4.91251
20
-0.63003
11
-4.94255
21
-0.27181
0
LINE
8
layer0
10
-4.94255
20
-0.27181
11
-4.95
21
0
0
LINE
8
layer0
10
-4.95
20
0
11
-4.94255
21
0.27181
0
LINE
8
layer0
10
-4.94255
20
0.27181
11
-4.91251
21
0.63003
0
LINE
8
layer0
10
-4.91251
20
0.63003
11
-4.91753
21
0.70573
0
LINE
8
layer0
10
-4.91753
20
0.70573
11
-4.93816
21
0.79236
0
LINE
8
layer0
10
-4.93816
20
0.79236
11
-4.97469
21
0.878
0
LINE
8
layer0
10
-4.97469
20
0.878
11
-5.02703
21
0.96144
0
LINE
8
layer0
10
-5.02703
20
0.96144
11
-5.09506
21
1.04153
0
LINE
8
layer0
10
-5.09506
20
1.04153
11
-5.17856
21
1.1171
0
LINE
8
layer0
10
-5.17856
20
1.1171
11
-5.27725
21
1.187
0
LINE
8
layer0
10
-5.27725
20
1.187
11
-5.39077
21
1.25008
0
LINE
8
layer0
10
-5.39077
20
1.25008
11
-5.51872
21
1.30524
0
LINE
8
layer0
10
-5.51872
20
1.30524
11
-5.66061
21
1.35138
0
LINE
8
layer0
10
-5.66061
20
1.35138
11
-5.81588
21
1.38744
0
LINE
8
layer0
10
-5.81588
20
1.38744
11
-5.98391
21
1.41239
0
LINE
8
layer0
10
-5.98391
20
1.41239
11
-6.16404
21
1.42522
0
LINE
8
layer0
10
-6.16404
20
1.42522
11
-6.35552
21
1.42498
0
LINE
8
layer0
10
-6.35552
20
1.42498
11
-6.55513
21
1.41099
0
LINE
8
layer0
10
-6.55513
20
1.41099
11
-6.72293
21
1.49574
0
LINE
8
layer0
10
-6.72293
20
1.49574
11
-6.88539
21
1.59826
0
LINE
8
layer0
10
-6.88539
20
1.59826
11
-7.0768
21
1.74259
0
LINE
8
layer0
10
-7.0768
20
1.74259
11
-7.29012
21
1.93336
0
LINE
8
layer0
10
-7.29012
20
1.93336
11
-7.40295
21
2.04762
0
LINE
8
layer0
10
-7.40295
20
2.04762
11
-7.51806
21
2.17437
0
LINE
8
layer0
10
-7.51806
20
2.17437
11
-7.63633
21
2.31611
0
LINE
8
layer0
10
-7.63633
20
2.31611
11
-7.75507
21
2.47125
0
LINE
8
layer0
10
-7.75507
20
2.47125
11
-7.87344
21
2.64008
0
LINE
8
layer0
10
-7.87344
20
2.64008
11
-7.99136
21
2.82425
0
LINE
8
layer0
10
-7.99136
20
2.82425
11
-8.1067
21
3.02217
0
LINE
8
layer0
10
-8.1067
20
3.02217
11
-8.21957
21
3.23595
0
LINE
8
layer0
10
-8.21957
20
3.23595
11
-8.3166233
21
3.4397463
0
ARC
8
layer0
10
0.0000962
20
-0.0000468
40
9
50
151.0413978
51
157.530025
0
LINE
8
layer0
10
-7.8746318
20
4.3575512
11
-7.6547857
21
4.4087368
0
LINE
8
layer0
10
-7.6547857
20
4.4087368
11
-7.4172724
21
4.4537811
0
LINE
8
layer0
10
-7.4172724
20
4.4537811
11
-7.190619
21
4.4870058
0
LINE
8
layer0
10
-7.190619
20
4.4870058
11
-6.9731072
21
4.5096403
0
LINE
8
layer0
10
-6.9731072
20
4.5096403
11
-6.7673081
21
4.5223587
0
LINE
8
layer0
10
-6.7673081
20
4.5223587
11
-6.5719816
21
4.5262522
0
LINE
8
layer0
10
-6.5719816
20
4.5262522
11
-6.3874247
21
4.5221585
0
LINE
8
layer0
10
-6.3874247
20
4.5221585
11
-6.2165576
21
4.5111892
0
LINE
8
layer0
10
-6.2165576
20
4.5111892
11
-6.0568772
21
4.4942151
0
LINE
8
layer0
10
-6.0568772
20
4.4942151
11
-5.7747244
21
4.4463779
0
LINE
8
layer0
10
-5.7747244
20
4.4463779
11
-5.5425404
21
4.3867159
0
LINE
8
layer0
10
-5.5425404
20
4.3867159
11
-5.3610949
21
4.3236197
0
LINE
8
layer0
10
-5.3610949
20
4.3236197
11
-5.1902131
21
4.2452691
0
LINE
8
layer0
10
-5.1902131
20
4.2452691
11
-5.0766961
21
4.0804851
0
LINE
8
layer0
10
-5.0766961
20
4.0804851
11
-4.9574979
21
3.9306304
0
LINE
8
layer0
10
-4.9574979
20
3.9306304
11
-4.8351578
21
3.7977985
0
LINE
8
layer0
10
-4.8351578
20
3.7977985
11
-4.7108861
21
3.6819834
0
LINE
8
layer0
10
-4.7108861
20
3.6819834
11
-4.585884
21
3.5830715
0
LINE
8
layer0
10
-4.585884
20
3.5830715
11
-4.4613434
21
3.5009052
0
LINE
8
layer0
10
-4.4613434
20
3.5009052
11
-4.338442
21
3.4352616
0
LINE
8
layer0
10
-4.338442
20
3.4352616
11
-4.2183455
21
3.3858378
0
LINE
8
layer0
10
-4.2183455
20
3.3858378
11
-4.1021633
21
3.3522608
0
LINE
8
layer0
10
-4.1021633
20
3.3522608
11
-3.9910189
21
3.334095
0
LINE
8
layer0
10
-3.9910189
20
3.334095
11
-3.885986
21
3.3308423
0
LINE
8
layer0
10
-3.885986
20
3.3308423
11
-3.7881165
21
3.3419452
0
LINE
8
layer0
10
-3.7881165
20
3.3419452
11
-3.6983844
21
3.3667806
0
LINE
8
layer0
10
-3.6983844
20
3.3667806
11
-3.6177917
21
3.4046643
0
LINE
8
layer0
10
-3.6177917
20
3.4046643
11
-3.5554772
21
3.4479377
0
LINE
8
layer0
10
-3.5554772
20
3.4479377
11
-3.2941391
21
3.6947704
0
LINE
8
layer0
10
-3.2941391
20
3.6947704
11
-3.0862745
21
3.8700658
0
LINE
8
layer0
10
-3.0862745
20
3.8700658
11
-2.8691199
21
4.033712
0
LINE
8
layer0
10
-2.8691199
20
4.033712
11
-2.5703226
21
4.2335723
0
LINE
8
layer0
10
-2.5703226
20
4.2335723
11
-2.5142679
21
4.2846952
0
LINE
8
layer0
10
-2.5142679
20
4.2846952
11
-2.4594004
21
4.3548373
0
LINE
8
layer0
10
-2.4594004
20
4.3548373
11
-2.4152204
21
4.4367933
0
LINE
8
layer0
10
-2.4152204
20
4.4367933
11
-2.3826179
21
4.5297384
0
LINE
8
layer0
10
-2.3826179
20
4.5297384
11
-2.362417
21
4.6328616
0
LINE
8
layer0
10
-2.362417
20
4.6328616
11
-2.3553954
21
4.7452617
0
LINE
8
layer0
10
-2.3553954
20
4.7452617
11
-2.3622776
21
4.8660026
0
LINE
8
layer0
10
-2.3622776
20
4.8660026
11
-2.3837382
21
4.9940858
0
LINE
8
layer0
10
-2.3837382
20
4.9940858
11
-2.4203879
21
5.1285129
0
LINE
8
layer0
10
-2.4203879
20
5.1285129
11
-2.4727812
21
5.2682148
0
LINE
8
layer0
10
-2.4727812
20
5.2682148
11
-2.5413976
21
5.4120928
0
LINE
8
layer0
10
-2.5413976
20
5.4120928
11
-2.6266559
21
5.55902
0
LINE
8
layer0
10
-2.6266559
20
5.55902
11
-2.7289342
21
5.7078507
0
LINE
8
layer0
10
-2.7289342
20
5.7078507
11
-2.8485077
21
5.8574061
0
LINE
8
layer0
10
-2.8485077
20
5.8574061
11
-2.9839003
21
6.0047449
0
LINE
8
layer0
10
-2.9839003
20
6.0047449
11
-3.0222617
21
6.188777
0
LINE
8
layer0
10
-3.0222617
20
6.188777
11
-3.0434005
21
6.3797135
0
LINE
8
layer0
10
-3.0434005
20
6.3797135
11
-3.0499009
21
6.6193521
0
LINE
8
layer0
10
-3.0499009
20
6.6193521
11
-3.0337538
21
6.9050756
0
LINE
8
layer0
10
-3.0337538
20
6.9050756
11
-3.01477
21
7.0645296
0
LINE
8
layer0
10
-3.01477
20
7.0645296
11
-2.9874428
21
7.2335535
0
LINE
8
layer0
10
-2.9874428
20
7.2335535
11
-2.9503662
21
7.4143942
0
LINE
8
layer0
10
-2.9503662
20
7.4143942
11
-2.903106
21
7.603957
0
LINE
8
layer0
10
-2.903106
20
7.603957
11
-2.8449119
21
7.8017662
0
LINE
8
layer0
10
-2.8449119
20
7.8017662
11
-2.7744439
21
8.0087879
0
LINE
8
layer0
10
-2.7744439
20
8.0087879
11
-2.6916171
21
8.2223655
0
LINE
8
layer0
10
-2.6916171
20
8.2223655
11
-2.5948505
21
8.4439004
0
LINE
8
layer0
10
-2.5948505
20
8.4439004
11
-2.4960279
21
8.6468447
0
ARC
8
layer0
10
0.0000238
20
-0.0001042
40
9
50
99.6128294
51
106.1014566
0
LINE
8
layer0
10
-1.5028819
20
8.8735238
11
-1.3257916
21
8.7335548
0
LINE
8
layer0
10
-1.3257916
20
8.7335548
11
-1.1424874
21
8.5759442
0
LINE
8
layer0
10
-1.1424874
20
8.5759442
11
-0.9751953
21
8.4194547
0
LINE
8
layer0
10
-0.9751953
20
8.4194547
11
-0.8218825
21
8.2635095
0
LINE
8
layer0
10
-0.8218825
20
8.2635095
11
-0.6836252
21
8.1105391
0
LINE
8
layer0
10
-0.6836252
20
8.1105391
11
-0.558797
21
7.9602542
0
LINE
8
layer0
10
-0.558797
20
7.9602542
11
-0.4469283
21
7.8134094
0
LINE
8
layer0
10
-0.4469283
20
7.8134094
11
-0.3489705
21
7.6729809
0
LINE
8
layer0
10
-0.3489705
20
7.6729809
11
-0.2626823
21
7.5375545
0
LINE
8
layer0
10
-0.2626823
20
7.5375545
11
-0.1241635
21
7.2871326
0
LINE
8
layer0
10
-0.1241635
20
7.2871326
11
-0.0260449
21
7.0684052
0
LINE
8
layer0
10
-0.0260449
20
7.0684052
11
0.037754
21
6.8872056
0
LINE
8
layer0
10
0.037754
20
6.8872056
11
0.0830401
21
6.704754
0
LINE
8
layer0
10
0.0830401
20
6.704754
11
0.0249835
21
6.5132617
0
LINE
8
layer0
10
0.0249835
20
6.5132617
11
-0.0178588
21
6.3266359
0
LINE
8
layer0
10
-0.0178588
20
6.3266359
11
-0.0454332
21
6.1481672
0
LINE
8
layer0
10
-0.0454332
20
6.1481672
11
-0.0584989
21
5.9787982
0
LINE
8
layer0
10
-0.0584989
20
5.9787982
11
-0.0578939
21
5.819397
0
LINE
8
layer0
10
-0.0578939
20
5.819397
11
-0.0444842
21
5.6707974
0
LINE
8
layer0
10
-0.0444842
20
5.6707974
11
-0.0191787
21
5.5337811
0
LINE
8
layer0
10
-0.0191787
20
5.5337811
11
0.0170592
21
5.4090707
0
LINE
8
layer0
10
0.0170592
20
5.4090707
11
0.063246
21
5.2973008
0
LINE
8
layer0
10
0.063246
20
5.2973008
11
0.1183408
21
5.1990784
0
LINE
8
layer0
10
0.1183408
20
5.1990784
11
0.1812847
21
5.1149324
0
LINE
8
layer0
10
0.1812847
20
5.1149324
11
0.250986
21
5.0453375
0
LINE
8
layer0
10
0.250986
20
5.0453375
11
0.3263501
21
4.9906667
0
LINE
8
layer0
10
0.3263501
20
4.9906667
11
0.4062175
21
4.951277
0
LINE
8
layer0
10
0.4062175
20
4.951277
11
0.4789025
21
4.929538
0
LINE
8
layer0
10
0.4789025
20
4.929538
11
0.8348257
21
4.8791134
0
LINE
8
layer0
10
0.8348257
20
4.8791134
11
1.1014786
21
4.8258932
0
LINE
8
layer0
10
1.1014786
20
4.8258932
11
1.364816
21
4.7581465
0
LINE
8
layer0
10
1.364816
20
4.7581465
11
1.7073701
21
4.6491483
0
LINE
8
layer0
10
1.7073701
20
4.6491483
11
1.7822892
21
4.6371976
0
LINE
8
layer0
10
1.7822892
20
4.6371976
11
1.8713379
21
4.6380333
0
LINE
8
layer0
10
1.8713379
20
4.6380333
11
1.9629594
21
4.6545908
0
LINE
8
layer0
10
1.9629594
20
4.6545908
11
2.0559541
21
4.6870513
0
LINE
8
layer0
10
2.0559541
20
4.6870513
11
2.1491742
21
4.735554
0
LINE
8
layer0
10
2.1491742
20
4.735554
11
2.24143
21
4.8001446
0
LINE
8
layer0
10
2.24143
20
4.8001446
11
2.331538
21
4.880806
0
LINE
8
layer0
10
2.331538
20
4.880806
11
2.4182971
21
4.9774432
0
LINE
8
layer0
10
2.4182971
20
4.9774432
11
2.5005456
21
5.0899109
0
LINE
8
layer0
10
2.5005456
20
5.0899109
11
2.5771023
21
5.2179763
0
LINE
8
layer0
10
2.5771023
20
5.2179763
11
2.646809
21
5.3613293
0
LINE
8
layer0
10
2.646809
20
5.3613293
11
2.7085237
21
5.5195945
0
LINE
8
layer0
10
2.7085237
20
5.5195945
11
2.7611147
21
5.6923534
0
LINE
8
layer0
10
2.7611147
20
5.6923534
11
2.803489
21
5.879086
0
LINE
8
layer0
10
2.803489
20
5.879086
11
2.8342672
21
6.0768044
0
LINE
8
layer0
10
2.8342672
20
6.0768044
11
2.9542313
21
6.2215386
0
LINE
8
layer0
10
2.9542313
20
6.2215386
11
3.0903317
21
6.3571126
0
LINE
8
layer0
10
3.0903317
20
6.3571126
11
3.2736358
21
6.5116071
0
LINE
8
layer0
10
3.2736358
20
6.5116071
11
3.5070909
21
6.6771284
0
LINE
8
layer0
10
3.5070909
20
6.6771284
11
3.6435932
21
6.7617043
0
LINE
8
layer0
10
3.6435932
20
6.7617043
11
3.7927797
21
6.8457237
0
LINE
8
layer0
10
3.7927797
20
6.8457237
11
3.9572836
21
6.9294883
0
LINE
8
layer0
10
3.9572836
20
6.9294883
11
4.134956
21
7.0107293
0
LINE
8
layer0
10
4.134956
20
7.0107293
11
4.3258929
21
7.0885634
0
LINE
8
layer0
10
4.3258929
20
7.0885634
11
4.531685
21
7.1625452
0
LINE
8
layer0
10
4.531685
20
7.1625452
11
4.7503083
21
7.230952
0
LINE
8
layer0
10
4.7503083
20
7.230952
11
4.9838444
21
7.2934216
0
LINE
8
layer0
10
4.9838444
20
7.2934216
11
5.2041275
21
7.3426927
0
ARC
8
layer0
10
-0.0000664
20
-0.0000837
40
9
50
48.1842594
51
54.6728867
0
LINE
8
layer0
10
6.0005687
20
6.7075519
11
6.0015506
21
6.481828
0
LINE
8
layer1
10
6.0015506
20
6.481828
11
5.9926139
21
6.2402464
0
LINE
8
layer1
10
5.9926139
20
6.2402464
11
5.9745704
21
6.0118825
0
LINE
8
layer1
10
5.9745704
20
6.0118825
11
5.9482365
21
5.7947875
0
LINE
8
layer1
10
5.9482365
20
5.7947875
11
5.9148414
21
5.5913181
0
LINE
8
layer1
10
5.9148414
20
5.5913181
11
5.8751731
21
5.4000224
0
LINE
8
layer1
10
5.8751731
20
5.4000224
11
5.8301142
21
5.2210037
0
LINE
8
layer1
10
5.8301142
20
5.2210037
11
5.7813985
21
5.0568615
0
LINE
8
layer1
10
5.7813985
20
5.0568615
11
5.7293177
21
4.9049617
0
LINE
8
layer1
10
5.7293177
20
4.9049617
11
5.619895
21
4.6405278
0
LINE
8
layer1
10
5.619895
20
4.6405278
11
5.510063
21
4.4274413
0
LINE
8
layer1
10
5.510063
20
4.4274413
11
5.4081734
21
4.2645852
0
LINE
8
layer1
10
5.4081734
20
4.2645852
11
5.2937624
21
4.1154224
0
LINE
8
layer1
10
5.2937624
20
4.1154224
11
5.10785
21
4.0414194
0
LINE
8
layer1
10
5.10785
20
4.0414194
11
4.9352284
21
3.9585556
0
LINE
8
layer1
10
4.9352284
20
3.9585556
11
4.7785036
21
3.8688407
0
LINE
8
layer1
10
4.7785036
20
3.8688407
11
4.6379392
21
3.773456
0
LINE
8
layer1
10
4.6379392
20
3.773456
11
4.5136916
21
3.6735979
0
LINE
8
layer1
10
4.5136916
20
3.6735979
11
4.4058725
21
3.5704635
0
LINE
8
layer1
10
4.4058725
20
3.5704635
11
4.3145266
21
3.4652506
0
LINE
8
layer1
10
4.3145266
20
3.4652506
11
4.239618
21
3.359163
0
LINE
8
layer1
10
4.239618
20
3.359163
11
4.1810298
21
3.2533653
0
LINE
8
layer1
10
4.1810298
20
3.2533653
11
4.1385875
21
3.1490498
0
LINE
8
layer1
10
4.1385875
20
3.1490498
11
4.1120443
21
3.0473741
0
LINE
8
layer1
10
4.1120443
20
3.0473741
11
4.1010909
21
2.9494878
0
LINE
8
layer1
10
4.1010909
20
2.9494878
11
4.1053363
21
2.856479
0
LINE
8
layer1
10
4.1053363
20
2.856479
11
4.1243367
21
2.7694771
0
LINE
8
layer1
10
4.1243367
20
2.7694771
11
4.1526588
21
2.6990956
0
LINE
8
layer1
10
4.1526588
20
2.6990956
11
4.3351497
21
2.3893844
0
LINE
8
layer1
10
4.3351497
20
2.3893844
11
4.4597959
21
2.1477245
0
LINE
8
layer1
10
4.4597959
20
2.1477245
11
4.5710176
21
1.8995997
0
LINE
8
layer1
10
4.5710176
20
1.8995997
11
4.6993783
21
1.5638208
0
LINE
8
layer1
10
4.6993783
20
1.5638208
11
4.7367462
21
1.4977955
0
LINE
8
layer1
10
4.7367462
20
1.4977955
11
4.7929205
21
1.4286956
0
LINE
8
layer1
10
4.7929205
20
1.4286956
11
4.8629907
21
1.3673864
0
LINE
8
layer1
10
4.8629907
20
1.3673864
11
4.9463507
21
1.3149191
0
LINE
8
layer1
10
4.9463507
20
1.3149191
11
5.0423934
21
1.2722776
0
LINE
8
layer1
10
5.0423934
20
1.2722776
11
5.1504129
21
1.2404207
0
LINE
8
layer1
10
5.1504129
20
1.2404207
11
5.269658
21
1.2202629
0
LINE
8
layer1
10
5.269658
20
1.2202629
11
5.3993053
21
1.2126843
0
LINE
8
layer1
10
5.3993053
20
1.2126843
11
5.5385173
21
1.2185023
0
LINE
8
layer1
10
5.5385173
20
1.2185023
11
5.6863752
21
1.2384953
0
LINE
8
layer1
10
5.6863752
20
1.2384953
11
5.8419145
21
1.2733755
0
LINE
8
layer1
10
5.8419145
20
1.2733755
11
6.0041297
21
1.3238018
0
LINE
8
layer1
10
6.0041297
20
1.3238018
11
6.1719879
21
1.3903979
0
LINE
8
layer1
10
6.1719879
20
1.3903979
11
6.3444013
21
1.4736942
0
LINE
8
layer1
10
6.3444013
20
1.4736942
11
6.5181737
21
1.5729063
0
LINE
8
layer1
10
6.5181737
20
1.5729063
11
6.7061279
21
1.5693548
0
LINE
8
layer1
10
6.7061279
20
1.5693548
11
6.8969811
21
1.5474763
0
LINE
8
layer1
10
6.8969811
20
1.5474763
11
7.1320579
21
1.5004891
0
LINE
8
layer1
10
7.1320579
20
1.5004891
11
7.4070246
21
1.4211674
0
LINE
8
layer1
10
7.4070246
20
1.4211674
11
7.5582565
21
1.3671778
0
LINE
8
layer1
10
7.5582565
20
1.3671778
11
7.7169618
21
1.3029243
0
LINE
8
layer1
10
7.7169618
20
1.3029243
11
7.8850181
21
1.2265364
0
LINE
8
layer1
10
7.8850181
20
1.2265364
11
8.0593118
21
1.1382795
0
LINE
8
layer1
10
8.0593118
20
1.1382795
11
8.2392121
21
1.0375277
0
LINE
8
layer1
10
8.2392121
20
1.0375277
11
8.4253627
21
0.9227598
0
LINE
8
layer1
10
8.4253627
20
0.9227598
11
8.6151547
21
0.7944842
0
LINE
8
layer1
10
8.6151547
20
0.7944842
11
8.8096028
21
0.6508476
0
LINE
8
layer1
10
8.8096028
20
0.6508476
11
8.9854687
21
0.5093433
0
ARC
8
layer1
10
-0.0001069
20
0
40
9
50
356.7556864
51
363.2443136
0
LINE
8
layer1
10
8.9854687
20
-0.5093433
11
8.8096028
21
-0.6508476
0
LINE
8
layer1
10
8.8096028
20
-0.6508476
11
8.6151547
21
-0.7944842
0
LINE
8
layer1
10
8.6151547
20
-0.7944842
11
8.4253627
21
-0.9227598
0
LINE
8
layer1
10
8.4253627
20
-0.9227598
11
8.2392121
21
-1.0375277
0
LINE
8
layer1
10
8.2392121
20
-1.0375277
11
8.0593118
21
-1.1382795
0
LINE
8
layer1
10
8.0593118
20
-1.1382795
11
7.8850181
21
-1.2265364
0
LINE
8
layer1
10
7.8850181
20
-1.2265364
11
7.7169618
21
-1.3029243
0
LINE
8
layer1
10
7.7169618
20
-1.3029243
11
7.5582565
21
-1.3671778
0
LINE
8
layer1
10
7.5582565
20
-1.3671778
11
7.4070246
21
-1.4211674
0
LINE
8
layer1
10
7.4070246
20
-1.4211674
11
7.1320579
21
-1.5004891
0
LINE
8
layer1
10
7.1320579
20
-1.5004891
11
6.8969811
21
-1.5474763
0
LINE
8
layer1
10
6.8969811
20
-1.5474763
11
6.7061279
21
-1.5693548
0
LINE
8
layer1
10
6.7061279
20
-1.5693548
11
6.5181737
21
-1.5729063
0
LINE
8
layer1
10
6.5181737
20
-1.5729063
11
6.3444013
21
-1.4736942
0
LINE
8
layer1
10
6.3444013
20
-1.4736942
11
6.1719879
21
-1.3903979
0
LINE
8
layer1
10
6.1719879
20
-1.3903979
11
6.0041297
21
-1.3238018
0
LINE
8
layer1
10
6.0041297
20
-1.3238018
11
5.8419145
21
-1.2733755
0
LINE
8
layer1
10
5.8419145
20
-1.2733755
11
5.6863752
21
-1.2384953
0
LINE
8
layer1
10
5.6863752
20
-1.2384953
11
5.5385173
21
-1.2185023
0
LINE
8
layer1
10
5.5385173
20
-1.2185023
11
5.3993053
21
-1.2126843
0
LINE
8
layer1
10
5.3993053
20
-1.2126843
11
5.269658
21
-1.2202629
0
LINE
8
layer1
10
5.269658
20
-1.2202629
11
5.1504129
21
-1.2404207
0
LINE
8
layer1
10
5.1504129
20
-1.2404207
11
5.0423934
21
-1.2722776
0
LINE
8
layer1
10
5.0423934
20
-1.2722776
11
4.9463507
21
-1.3149191
0
LINE
8
layer1
10
4.9463507
20
-1.3149191
11
4.8629907
21
-1.3673864
0
LINE
8
layer1
10
4.8629907
20
-1.3673864
11
4.7929205
21
-1.4286956
0
LINE
8
layer1
10
4.7929205
20
-1.4286956
11
4.7367462
21
-1.4977955
0
LINE
8
layer1
10
4.7367462
20
-1.4977955
11
4.6993783
21
-1.5638208
0
LINE
8
layer1
10
4.6993783
20
-1.5638208
11
4.5710176
21
-1.8995997
0
LINE
8
layer1
10
4.5710176
20
-1.8995997
11
4.4597959
21
-2.1477245
0
LINE
8
layer1
10
4.4597959
20
-2.1477245
11
4.3351497
21
-2.3893844
0
LINE
8
layer1
10
4.3351497
20
-2.3893844
11
4.1526588
21
-2.6990956
0
LINE
8
layer1
10
4.1526588
20
-2.6990956
11
4.1243367
21
-2.7694771
0
LINE
8
layer1
10
4.1243367
20
-2.7694771
11
4.1053363
21
-2.856479
0
LINE
8
layer1
10
4.1053363
20
-2.856479
11
4.1010909
21
-2.9494878
0
LINE
8
layer1
10
4.1010909
20
-2.9494878
11
4.1120443
21
-3.0473741
0
LINE
8
layer1
10
4.1120443
20
-3.0473741
11
4.1385875
21
-3.1490498
0
LINE
8
layer1
10
4.1385875
20
-3.1490498
11
4.1810298
21
-3.2533653
0
LINE
8
layer1
10
4.1810298
20
-3.2533653
11
4.239618
21
-3.359163
0
LINE
8
layer1
10
4.239618
20
-3.359163
11
4.3145266
21
-3.4652506
0
LINE
8
layer1
10
4.3145266
20
-3.4652506
11
4.4058725
21
-3.5704635
0
LINE
8
layer1
10
4.4058725
20
-3.5704635
11
4.5136916
21
-3.6735979
0
LINE
8
layer1
10
4.5136916
20
-3.6735979
11
4.6379392
21
-3.773456
0
LINE
8
layer1
10
4.6379392
20
-3.773456
11
4.7785036
21
-3.8688407
0
LINE
8
layer1
10
4.7785036
20
-3.8688407
11
4.9352284
21
-3.9585556
0
LINE
8
layer1
10
4.9352284
20
-3.9585556
11
5.10785
21
-4.0414194
0
LINE
8
layer1
10
5.10785
20
-4.0414194
11
5.2937624
21
-4.1154224
0
LINE
8
layer1
10
5.2937624
20
-4.1154224
11
5.4081734
21
-4.2645852
0
LINE
8
layer1
10
5.4081734
20
-4.2645852
11
5.510063
21
-4.4274413
0
LINE
8
layer1
10
5.510063
20
-4.4274413
11
5.619895
21
-4.6405278
0
LINE
8
layer1
10
5.619895
20
-4.6405278
11
5.7293177
21
-4.9049617
0
LINE
8
layer1
10
5.7293177
20
-4.9049617
11
5.7813985
21
-5.0568615
0
LINE
8
layer1
10
5.7813985
20
-5.0568615
11
5.8301142
21
-5.2210037
0
LINE
8
layer1
10
5.8301142
20
-5.2210037
11
5.8751731
21
-5.4000224
0
LINE
8
layer1
10
5.8751731
20
-5.4000224
11
5.9148414
21
-5.5913181
0
LINE
8
layer1
10
5.9148414
20
-5.5913181
11
5.9482365
21
-5.7947875
0
LINE
8
layer1
10
5.9482365
20
-5.7947875
11
5.9745704
21
-6.0118825
0
LINE
8
layer1
10
5.9745704
20
-6.0118825
11
5.9926139
21
-6.2402464
0
LINE
8
layer1
10
5.9926139
20
-6.2402464
11
6.0015506
21
-6.481828
0
LINE
8
layer1
10
6.0015506
20
-6.481828
11
6.0005687
21
-6.7075519
0
ARC
8
layer1
10
-0.0000665
20
0.0000839
40
9
50
305.3271129
51
311.8157402
0
LINE
8
layer1
10
5.2041275
20
-7.3426927
11
4.9838444
21
-7.2934216
0
LINE
8
layer1
10
4.9838444
20
-7.2934216
11
4.7503083
21
-7.230952
0
LINE
8
layer1
10
4.7503083
20
-7.230952
11
4.531685
21
-7.1625452
0
LINE
8
layer1
10
4.531685
20
-7.1625452
11
4.3258929
21
-7.0885634
0
LINE
8
layer1
10
4.3258929
20
-7.0885634
11
4.134956
21
-7.0107293
0
LINE
8
layer1
10
4.134956
20
-7.0107293
11
3.9572836
21
-6.9294883
0
LINE
8
layer1
10
3.9572836
20
-6.9294883
11
3.7927797
21
-6.8457237
0
LINE
8
layer1
10
3.7927797
20
-6.8457237
11
3.6435932
21
-6.7617043
0
LINE
8
layer1
10
3.6435932
20
-6.7617043
11
3.5070909
21
-6.6771284
0
LINE
8
layer1
10
3.5070909
20
-6.6771284
11
3.2736358
21
-6.5116071
0
LINE
8
layer1
10
3.2736358
20
-6.5116071
11
3.0903317
21
-6.3571126
0
LINE
8
layer1
10
3.0903317
20
-6.3571126
11
2.9542313
21
-6.2215386
0
LINE
8
layer1
10
2.9542313
20
-6.2215386
11
2.8342672
21
-6.0768044
0
LINE
8
layer1
10
2.8342672
20
-6.0768044
11
2.803489
21
-5.879086
0
LINE
8
layer1
10
2.803489
20
-5.879086
11
2.7611147
21
-5.6923534
0
LINE
8
layer1
10
2.7611147
20
-5.6923534
11
2.7085237
21
-5.5195945
0
LINE
8
layer1
10
2.7085237
20
-5.5195945
11
2.646809
21
-5.3613293
0
LINE
8
layer1
10
2.646809
20
-5.3613293
11
2.5771023
21
-5.2179763
0
LINE
8
layer1
10
2.5771023
20
-5.2179763
11
2.5005456
21
-5.0899109
0
LINE
8
layer1
10
2.5005456
20
-5.0899109
11
2.4182971
21
-4.9774432
0
LINE
8
layer1
10
2.4182971
20
-4.9774432
11
2.331538
21
-4.880806
0
LINE
8
layer1
10
2.331538
20
-4.880806
11
2.24143
21
-4.8001446
0
LINE
8
layer1
10
2.24143
20
-4.8001446
11
2.1491742
21
-4.735554
0
LINE
8
layer1
10
2.1491742
20
-4.735554
11
2.0559541
21
-4.6870513
0
LINE
8
layer1
10
2.0559541
20
-4.6870513
11
1.9629594
21
-4.6545908
0
LINE
8
layer1
10
1.9629594
20
-4.6545908
11
1.8713379
21
-4.6380333
0
LINE
8
layer1
10
1.8713379
20
-4.6380333
11
1.7822892
21
-4.6371976
0
LINE
8
layer1
10
1.7822892
20
-4.6371976
11
1.7073701
21
-4.6491483
0
LINE
8
layer1
10
1.7073701
20
-4.6491483
11
1.364816
21
-4.7581465
0
LINE
8
layer1
10
1.364816
20
-4.7581465
11
1.1014786
21
-4.8258932
0
LINE
8
layer1
10
1.1014786
20
-4.8258932
11
0.8348257
21
-4.8791134
0
LINE
8
layer1
10
0.8348257
20
-4.8791134
11
0.4789025
21
-4.929538
0
LINE
8
layer1
10
0.4789025
20
-4.929538
11
0.4062175
21
-4.951277
0
LINE
8
layer1
10
0.4062175
20
-4.951277
11
0.3263501
21
-4.9906667
0
LINE
8
layer1
10
0.3263501
20
-4.9906667
11
0.250986
21
-5.0453375
0
LINE
8
layer1
10
0.250986
20
-5.0453375
11
0.1812847
21
-5.1149324
0
LINE
8
layer1
10
0.1812847
20
-5.1149324
11
0.1183408
21
-5.1990784
0
LINE
8
layer1
10
0.1183408
20
-5.1990784
11
0.063246
21
-5.2973008
0
LINE
8
layer1
10
0.063246
20
-5.2973008
11
0.0170592
21
-5.4090707
0
LINE
8
layer1
10
0.0170592
20
-5.4090707
11
-0.0191787
21
-5.5337811
0
LINE
8
layer1
10
-0.0191787
20
-5.5337811
11
-0.0444842
21
-5.6707974
0
LINE
8
layer1
10
-0.0444842
20
-5.6707974
11
-0.0578939
21
-5.819397
0
LINE
8
layer1
10
-0.0578939
20
-5.819397
11
-0.0584989
21
-5.9787982
0
LINE
8
layer1
10
-0.0584989
20
-5.9787982
11
-0.0454332
21
-6.1481672
0
LINE
8
layer1
10
-0.0454332
20
-6.1481672
11
-0.0178588
21
-6.3266359
0
LINE
8
layer1
10
-0.0178588
20
-6.3266359
11
0.0249835
21
-6.5132617
0
LINE
8
layer1
10
0.0249835
20
-6.5132617
11
0.0830401
21
-6.704754
0
LINE
8
layer1
10
0.0830401
20
-6.704754
11
0.037754
21
-6.8872056
0
LINE
8
layer1
10
0.037754
20
-6.8872056
11
-0.0260449
21
-7.0684052
0
LINE
8
layer1
10
-0.0260449
20
-7.0684052
11
-0.1241635
21
-7.2871326
0
LINE
8
layer1
10
-0.1241635
20
-7.2871326
11
-0.2626823
21
-7.5375545
0
LINE
8
layer1
10
-0.2626823
20
-7.5375545
11
-0.3489705
21
-7.6729809
0
LINE
8
layer1
10
-0.3489705
20
-7.6729809
11
-0.4469283
21
-7.8134094
0
LINE
8
layer1
10
-0.4469283
20
-7.8134094
11
-0.558797
21
-7.9602542
0
LINE
8
layer1
10
-0.558797
20
-7.9602542
11
-0.6836252
21
-8.1105391
0
LINE
8
layer1
10
-0.6836252
20
-8.1105391
11
-0.8218825
21
-8.2635095
0
LINE
8
layer1
10
-0.8218825
20
-8.2635095
11
-0.9751953
21
-8.4194547
0
LINE
8
layer1
10
-0.9751953
20
-8.4194547
11
-1.1424874
21
-8.5759442
0
LINE
8
layer1
10
-1.1424874
20
-8.5759442
11
-1.3257916
21
-8.7335548
0
LINE
8
layer1
10
-1.3257916
20
-8.7335548
11
-1.5028819
21
-8.8735238
0
ARC
8
layer1
10
0.0000238
20
0.0001042
40
9
50
253.8985434
51
260.3871706
0
LINE
8
layer1
10
-2.4960279
20
-8.6468447
11
-2.5948505
21
-8.4439004
0
LINE
8
layer1
10
-2.5948505
20
-8.4439004
11
-2.6916171
21
-8.2223655
0
LINE
8
layer1
10
-2.6916171
20
-8.2223655
11
-2.7744439
21
-8.0087879
0
LINE
8
layer1
10
-2.7744439
20
-8.0087879
11
-2.8449119
21
-7.8017662
0
LINE
8
layer1
10
-2.8449119
20
-7.8017662
11
-2.903106
21
-7.603957
0
LINE
8
layer1
10
-2.903106
20
-7.603957
11
-2.9503662
21
-7.4143942
0
LINE
8
layer1
10
-2.9503662
20
-7.4143942
11
-2.9874428
21
-7.2335535
0
LINE
8
layer1
10
-2.9874428
20
-7.2335535
11
-3.01477
21
-7.0645296
0
LINE
8
layer1
10
-3.01477
20
-7.0645296
11
-3.0337538
21
-6.9050756
0
LINE
8
layer1
10
-3.0337538
20
-6.9050756
11
-3.0499009
21
-6.6193521
0
LINE
8
layer1
10
-3.0499009
20
-6.6193521
11
-3.0434005
21
-6.3797135
0
LINE
8
layer1
10
-3.0434005
20
-6.3797135
11
-3.0222617
21
-6.188777
0
LINE
8
layer1
10
-3.0222617
20
-6.188777
11
-2.9839003
21
-6.0047449
0
LINE
8
layer1
10
-2.9839003
20
-6.0047449
11
-2.8485077
21
-5.8574061
0
LINE
8
layer1
10
-2.8485077
20
-5.8574061
11
-2.7289342
21
-5.7078507
0
LINE
8
layer1
10
-2.7289342
20
-5.7078507
11
-2.6266559
21
-5.55902
0
LINE
8
layer1
10
-2.6266559
20
-5.55902
11
-2.5413976
21
-5.4120928
0
LINE
8
layer1
10
-2.5413976
20
-5.4120928
11
-2.4727812
21
-5.2682148
0
LINE
8
layer1
10
-2.4727812
20
-5.2682148
11
-2.4203879
21
-5.1285129
0
LINE
8
layer1
10
-2.4203879
20
-5.1285129
11
-2.3837382
21
-4.9940858
0
LINE
8
layer1
10
-2.3837382
20
-4.9940858
11
-2.3622776
21
-4.8660026
0
LINE
8
layer1
10
-2.3622776
20
-4.8660026
11
-2.3553954
21
-4.7452617
0
LINE
8
layer1
10
-2.3553954
20
-4.7452617
11
-2.362417
21
-4.6328616
0
LINE
8
layer1
10
-2.362417
20
-4.6328616
11
-2.3826179
21
-4.5297384
0
LINE
8
layer1
10
-2.3826179
20
-4.5297384
11
-2.4152204
21
-4.4367933
0
LINE
8
layer1
10
-2.4152204
20
-4.4367933
11
-2.4594004
21
-4.3548373
0
LINE
8
layer1
10
-2.4594004
20
-4.3548373
11
-2.5142679
21
-4.2846952
0
LINE
8
layer1
10
-2.5142679
20
-4.2846952
11
-2.5703226
21
-4.2335723
0
LINE
8
layer1
10
-2.5703226
20
-4.2335723
11
-2.8691199
21
-4.033712
0
LINE
8
layer1
10
-2.8691199
20
-4.033712
11
-3.0862745
21
-3.8700658
0
LINE
8
layer1
10
-3.0862745
20
-3.8700658
11
-3.2941391
21
-3.6947704
0
LINE
8
layer1
10
-3.2941391
20
-3.6947704
11
-3.5554772
21
-3.4479377
0
LINE
8
layer1
10
-3.5554772
20
-3.4479377
11
-3.6177917
21
-3.4046643
0
LINE
8
layer1
10
-3.6177917
20
-3.4046643
11
-3.6983844
21
-3.3667806
0
LINE
8
layer1
10
-3.6983844
20
-3.3667806
11
-3.7881165
21
-3.3419452
0
LINE
8
layer1
10
-3.7881165
20
-3.3419452
11
-3.885986
21
-3.3308423
0
LINE
8
layer1
10
-3.885986
20
-3.3308423
11
-3.9910189
21
-3.334095
0
LINE
8
layer1
10
-3.9910189
20
-3.334095
11
-4.1021633
21
-3.3522608
0
LINE
8
layer1
10
-4.1021633
20
-3.3522608
11
-4.2183455
21
-3.3858378
0
LINE
8
layer1
10
-4.2183455
20
-3.3858378
11
-4.338442
21
-3.4352616
0
LINE
8
layer1
10
-4.338442
20
-3.4352616
11
-4.4613434
21
-3.5009052
0
LINE
8
layer1
10
-4.4613434
20
-3.5009052
11
-4.585884
21
-3.5830715
0
LINE
8
layer1
10
-4.585884
20
-3.5830715
11
-4.7108861
21
-3.6819834
0
LINE
8
layer1
10
-4.7108861
20
-3.6819834
11
-4.8351578
21
-3.7977985
0
LINE
8
layer1
10
-4.8351578
20
-3.7977985
11
-4.9574979
21
-3.9306304
0
LINE
8
layer1
10
-4.9574979
20
-3.9306304
11
-5.0766961
21
-4.0804851
0
LINE
8
layer1
10
-5.0766961
20
-4.0804851
11
-5.1902131
21
-4.2452691
0
LINE
8
layer1
10
-5.1902131
20
-4.2452691
11
-5.3610949
21
-4.3236197
0
LINE
8
layer1
10
-5.3610949
20
-4.3236197
11
-5.5425404
21
-4.3867159
0
LINE
8
layer1
10
-5.5425404
20
-4.3867159
11
-5.7747244
21
-4.4463779
0
LINE
8
layer1
10
-5.7747244
20
-4.4463779
11
-6.0568772
21
-4.4942151
0
LINE
8
layer1
10
-6.0568772
20
-4.4942151
11
-6.2165576
21
-4.5111892
0
LINE
8
layer1
10
-6.2165576
20
-4.5111892
11
-6.3874247
21
-4.5221585
0
LINE
8
layer1
10
-6.3874247
20
-4.5221585
11
-6.5719816
21
-4.5262522
0
LINE
8
layer1
10
-6.5719816
20
-4.5262522
11
-6.7673081
21
-4.5223587
0
LINE
8
layer1
10
-6.7673081
20
-4.5223587
11
-6.9731072
21
-4.5096403
0
LINE
8
layer1
10
-6.9731072
20
-4.5096403
11
-7.190619
21
-4.4870058
0
LINE
8
layer1
10
-7.190619
20
-4.4870058
11
-7.4172724
21
-4.4537811
0
LINE
8
layer1
10
-7.4172724
20
-4.4537811
11
-7.6547857
21
-4.4087368
0
LINE
8
layer1
10
-7.6547857
20
-4.4087368
11
-7.8746318
21
-4.3575512
0
ARC
8
layer1
10
0.0000961
20
0.0000468
40
9
50
202.469975
51
208.9586022
0
LINE
8
layer1
10
-8.3166233
20
-3.4397463
11
-8.21957
21
-3.23595
0
LINE
8
layer1
10
-8.21957
20
-3.23595
11
-8.1067
21
-3.02217
0
LINE
8
layer1
10
-8.1067
20
-3.02217
11
-7.99136
21
-2.82425
0
LINE
8
layer1
10
-7.99136
20
-2.82425
11
-7.87344
21
-2.64008
0
LINE
8
layer1
10
-7.87344
20
-2.64008
11
-7.75507
21
-2.47125
0
LINE
8
layer1
10
-7.75507
20
-2.47125
11
-7.63633
21
-2.31611
0
LINE
8
layer1
10
-7.63633
20
-2.31611
11
-7.51806
21
-2.17437
0
LINE
8
layer1
10
-7.51806
20
-2.17437
11
-7.40295
21
-2.04762
0
LINE
8
layer1
10
-7.40295
20
-2.04762
11
-7.29012
21
-1.93336
0
LINE
8
layer1
10
-7.29012
20
-1.93336
11
-7.0768
21
-1.74259
0
LINE
8
layer1
10
-7.0768
20
-1.74259
11
-6.88539
21
-1.59826
0
LINE
8
layer1
10
-6.88539
20
-1.59826
11
-6.72293
21
-1.49574
0
LINE
8
layer1
10
-6.72293
20
-1.49574
11
-6.55513
21
-1.41099
0
LINE
8
layer1
10
-6.55513
20
-1.41099
11
-6.35552
21
-1.42498
0
LINE
8
layer1
10
-6.35552
20
-1.42498
11
-6.16404
21
-1.42522
0
LINE
8
layer1
10
-6.16404
20
-1.42522
11
-5.98391
21
-1.41239
0
LINE
8
layer1
10
-5.98391
20
-1.41239
11
-5.81588
21
-1.38744
0
LINE
8
layer1
10
-5.81588
20
-1.38744
11
-5.66061
21
-1.35138
0
LINE
8
layer1
10
-5.66061
20
-1.35138
11
-5.51872
21
-1.30524
0
LINE
8
layer1
10
-5.51872
20
-1.30524
11
-5.39077
21
-1.25008
0
LINE
8
layer1
10
-5.39077
20
-1.25008
11
-5.27725
21
-1.187
0
LINE
8
layer1
10
-5.27725
20
-1.187
11
-5.17856
21
-1.1171
0
LINE
8
layer1
10
-5.17856
20
-1.1171
11
-5.09506
21
-1.04153
0
LINE
8
layer1
10
-5.09506
20
-1.04153
11
-5.02703
21
-0.96144
0
LINE
8
layer1
10
-5.02703
20
-0.96144
11
-4.97469
21
-0.878
0
LINE
8
layer1
10
-4.97469
20
-0.878
11
-4.93816
21
-0.79236
0
LINE
8
layer1
10
-4.93816
20
-0.79236
11
-4.91753
21
-0.70573
0
LINE
8
layer1
10
-4.91753
20
-0.70573
11
-4.91251
21
-0.63003
0
LINE
8
layer1
10
-4.91251
20
-0.63003
11
-4.94255
21
-0.27181
0
LINE
8
layer1
10
-4.94255
20
-0.27181
11
-4.95
21
0
0
LINE
8
layer1
10
-4.95
20
0
11
-4.94255
21
0.27181
0
LINE
8
layer1
10
-4.94255
20
0.27181
11
-4.91251
21
0.63003
0
LINE
8
layer1
10
-4.91251
20
0.63003
11
-4.91753
21
0.70573
0
LINE
8
layer1
10
-4.91753
20
0.70573
11
-4.93816
21
0.79236
0
LINE
8
layer1
10
-4.93816
20
0.79236
11
-4.97469
21
0.878
0
LINE
8
layer1
10
-4.97469
20
0.878
11
-5.02703
21
0.96144
0
LINE
8
layer1
10
-5.02703
20
0.96144
11
-5.09506
21
1.04153
0
LINE
8
layer1
10
-5.09506
20
1.04153
11
-5.17856
21
1.1171
0
LINE
8
layer1
10
-5.17856
20
1.1171
11
-5.27725
21
1.187
0
LINE
8
layer1
10
-5.27725
20
1.187
11
-5.39077
21
1.25008
0
LINE
8
layer1
10
-5.39077
20
1.25008
11
-5.51872
21
1.30524
0
LINE
8
layer1
10
-5.51872
20
1.30524
11
-5.66061
21
1.35138
0
LINE
8
layer1
10
-5.66061
20
1.35138
11
-5.81588
21
1.38744
0
LINE
8
layer1
10
-5.81588
20
1.38744
11
-5.98391
21
1.41239
0
LINE
8
layer1
10
-5.98391
20
1.41239
11
-6.16404
21
1.42522
0
LINE
8
layer1
10
-6.16404
20
1.42522
11
-6.35552
21
1.42498
0
LINE
8
layer1
10
-6.35552
20
1.42498
11
-6.55513
21
1.41099
0
LINE
8
layer1
10
-6.55513
20
1.41099
11
-6.72293
21
1.49574
0
LINE
8
layer1
10
-6.72293
20
1.49574
11
-6.88539
21
1.59826
0
LINE
8
layer1
10
-6.88539
20
1.59826
11
-7.0768
21
1.74259
0
LINE
8
layer1
10
-7.0768
20
1.74259
11
-7.29012
21
1.93336
0
LINE
8
layer1
10
-7.29012
20
1.93336
11
-7.40295
21
2.04762
0
LINE
8
layer1
10
-7.40295
20
2.04762
11
-7.51806
21
2.17437
0
LINE
8
layer1
10
-7.51806
20
2.17437
11
-7.63633
21
2.31611
0
LINE
8
layer1
10
-7.63633
20
2.31611
11
-7.75507
21
2.47125
0
LINE
8
layer1
10
-7.75507
20
2.47125
11
-7.87344
21
2.64008
0
LINE
8
layer1
10
-7.87344
20
2.64008
11
-7.99136
21
2.82425
0
LINE
8
layer1
10
-7.99136
20
2.82425
11
-8.1067
21
3.02217
0
LINE
8
layer1
10
-8.1067
20
3.02217
11
-8.21957
21
3.23595
0
LINE
8
layer1
10
-8.21957
20
3.23595
11
-8.3166233
21
3.4397463
0
ARC
8
layer1
10
0.0000962
20
-0.0000468
40
9
50
151.0413978
51
157.530025
0
LINE
8
layer1
10
-7.8746318
20
4.3575512
11
-7.6547857
21
4.4087368
0
LINE
8
layer1
10
-7.6547857
20
4.4087368
11
-7.4172724
21
4.4537811
0
LINE
8
layer1
10
-7.4172724
20
4.4537811
11
-7.190619
21
4.4870058
0
LINE
8
layer1
10
-7.190619
20
4.4870058
11
-6.9731072
21
4.5096403
0
LINE
8
layer1
10
-6.9731072
20
4.5096403
11
-6.7673081
21
4.5223587
0
LINE
8
layer1
10
-6.7673081
20
4.5223587
11
-6.5719816
21
4.5262522
0
LINE
8
layer1
10
-6.5719816
20
4.5262522
11
-6.3874247
21
4.5221585
0
LINE
8
layer1
10
-6.3874247
20
4.5221585
11
-6.2165576
21
4.5111892
0
LINE
8
layer1
10
-6.2165576
20
4.5111892
11
-6.0568772
21
4.4942151
0
LINE
8
layer1
10
-6.0568772
20
4.4942151
11
-5.7747244
21
4.4463779
0
LINE
8
layer1
10
-5.7747244
20
4.4463779
11
-5.5425404
21
4.3867159
0
LINE
8
layer1
10
-5.5425404
20
4.3867159
11
-5.3610949
21
4.3236197
0
LINE
8
layer1
10
-5.3610949
20
4.3236197
11
-5.1902131
21
4.2452691
0
LINE
8
layer1
10
-5.1902131
20
4.2452691
11
-5.0766961
21
4.0804851
0
LINE
8
layer1
10
-5.0766961
20
4.0804851
11
-4.9574979
21
3.9306304
0
LINE
8
layer1
10
-4.9574979
20
3.9306304
11
-4.8351578
21
3.7977985
0
LINE
8
layer1
10
-4.8351578
20
3.7977985
11
-4.7108861
21
3.6819834
0
LINE
8
layer1
10
-4.7108861
20
3.6819834
11
-4.585884
21
3.5830715
0
LINE
8
layer1
10
-4.585884
20
3.5830715
11
-4.4613434
21
3.5009052
0
LINE
8
layer1
10
-4.4613434
20
3.5009052
11
-4.338442
21
3.4352616
0
LINE
8
layer1
10
-4.338442
20
3.4352616
11
-4.2183455
21
3.3858378
0
LINE
8
layer1
10
-4.2183455
20
3.3858378
11
-4.1021633
21
3.3522608
0
LINE
8
layer1
10
-4.1021633
20
3.3522608
11
-3.9910189
21
3.334095
0
LINE
8
layer1
10
-3.9910189
20
3.334095
11
-3.885986
21
3.3308423
0
LINE
8
layer1
10
-3.885986
20
3.3308423
11
-3.7881165
21
3.3419452
0
LINE
8
layer1
10
-3.7881165
20
3.3419452
11
-3.6983844
21
3.3667806
0
LINE
8
layer1
10
-3.6983844
20
3.3667806
11
-3.6177917
21
3.4046643
0
LINE
8
layer1
10
-3.6177917
20
3.4046643
11
-3.5554772
21
3.4479377
0
LINE
8
layer1
10
-3.5554772
20
3.4479377
11
-3.2941391
21
3.6947704
0
LINE
8
layer1
10
-3.2941391
20
3.6947704
11
-3.0862745
21
3.8700658
0
LINE
8
layer1
10
-3.0862745
20
3.8700658
11
-2.8691199
21
4.033712
0
LINE
8
layer1
10
-2.8691199
20
4.033712
11
-2.5703226
21
4.2335723
0
LINE
8
layer1
10
-2.5703226
20
4.2335723
11
-2.5142679
21
4.2846952
0
LINE
8
layer1
10
-2.5142679
20
4.2846952
11
-2.4594004
21
4.3548373
0
LINE
8
layer1
10
-2.4594004
20
4.3548373
11
-2.4152204
21
4.4367933
0
LINE
8
layer1
10
-2.4152204
20
4.4367933
11
-2.3826179
21
4.5297384
0
LINE
8
layer1
10
-2.3826179
20
4.5297384
11
-2.362417
21
4.6328616
0
LINE
8
layer1
10
-2.362417
20
4.6328616
11
-2.3553954
21
4.7452617
0
LINE
8
layer1
10
-2.3553954
20
4.7452617
11
-2.3622776
21
4.8660026
0
LINE
8
layer1
10
-2.3622776
20
4.8660026
11
-2.3837382
21
4.9940858
0
LINE
8
layer1
10
-2.3837382
20
4.9940858
11
-2.4203879
21
5.1285129
0
LINE
8
layer1
10
-2.4203879
20
5.1285129
11
-2.4727812
21
5.2682148
0
LINE
8
layer1
10
-2.4727812
20
5.2682148
11
-2.5413976
21
5.4120928
0
LINE
8
layer1
10
-2.5413976
20
5.4120928
11
-2.6266559
21
5.55902
0
LINE
8
layer1
10
-2.6266559
20
5.55902
11
-2.7289342
21
5.7078507
0
LINE
8
layer1
10
-2.7289342
20
5.7078507
11
-2.8485077
21
5.8574061
0
LINE
8
layer1
10
-2.8485077
20
5.8574061
11
-2.9839003
21
6.0047449
0
LINE
8
layer1
10
-2.9839003
20
6.0047449
11
-3.0222617
21
6.188777
0
LINE
8
layer1
10
-3.0222617
20
6.188777
11
-3.0434005
21
6.3797135
0
LINE
8
layer1
10
-3.0434005
20
6.3797135
11
-3.0499009
21
6.6193521
0
LINE
8
layer1
10
-3.0499009
20
6.6193521
11
-3.0337538
21
6.9050756
0
LINE
8
layer1
10
-3.0337538
20
6.9050756
11
-3.01477
21
7.0645296
0
LINE
8
layer1
10
-3.01477
20
7.0645296
11
-2.9874428
21
7.2335535
0
LINE
8
layer1
10
-2.9874428
20
7.2335535
11
-2.9503662
21
7.4143942
0
LINE
8
layer1
10
-2.9503662
20
7.4143942
11
-2.903106
21
7.603957
0
LINE
8
layer1
10
-2.903106
20
7.603957
11
-2.8449119
21
7.8017662
0
LINE
8
layer1
10
-2.8449119
20
7.8017662
11
-2.7744439
21
8.0087879
0
LINE
8
layer1
10
-2.7744439
20
8.0087879
11
-2.6916171
21
8.2223655
0
LINE
8
layer1
10
-2.6916171
20
8.2223655
11
-2.5948505
21
8.4439004
0
LINE
8
layer1
10
-2.5948505
20
8.4439004
11
-2.4960279
21
8.6468447
0
ARC
8
layer1
10
0.0000238
20
-0.0001042
40
9
50
99.6128294
51
106.1014566
0
LINE
8
layer1
10
-1.5028819
20
8.8735238
11
-1.3257916
21
8.7335548
0
LINE
8
layer1
10
-1.3257916
20
8.7335548
11
-1.1424874
21
8.5759442
0
LINE
8
layer1
10
-1.1424874
20
8.5759442
11
-0.9751953
21
8.4194547
0
LINE
8
layer1
10
-0.9751953
20
8.4194547
11
-0.8218825
21
8.2635095
0
LINE
8
layer1
10
-0.8218825
20
8.2635095
11
-0.6836252
21
8.1105391
0
LINE
8
layer1
10
-0.6836252
20
8.1105391
11
-0.558797
21
7.9602542
0
LINE
8
layer1
10
-0.558797
20
7.9602542
11
-0.4469283
21
7.8134094
0
LINE
8
layer1
10
-0.4469283
20
7.8134094
11
-0.3489705
21
7.6729809
0
LINE
8
layer1
10
-0.3489705
20
7.6729809
11
-0.2626823
21
7.5375545
0
LINE
8
layer1
10
-0.2626823
20
7.5375545
11
-0.1241635
21
7.2871326
0
LINE
8
layer1
10
-0.1241635
20
7.2871326
11
-0.0260449
21
7.0684052
0
LINE
8
layer1
10
-0.0260449
20
7.0684052
11
0.037754
21
6.8872056
0
LINE
8
layer1
10
0.037754
20
6.8872056
11
0.0830401
21
6.704754
0
LINE
8
layer1
10
0.0830401
20
6.704754
11
0.0249835
21
6.5132617
0
LINE
8
layer1
10
0.0249835
20
6.5132617
11
-0.0178588
21
6.3266359
0
LINE
8
layer1
10
-0.0178588
20
6.3266359
11
-0.0454332
21
6.1481672
0
LINE
8
layer1
10
-0.0454332
20
6.1481672
11
-0.0584989
21
5.9787982
0
LINE
8
layer1
10
-0.0584989
20
5.9787982
11
-0.0578939
21
5.819397
0
LINE
8
layer1
10
-0.0578939
20
5.819397
11
-0.0444842
21
5.6707974
0
LINE
8
layer1
10
-0.0444842
20
5.6707974
11
-0.0191787
21
5.5337811
0
LINE
8
layer1
10
-0.0191787
20
5.5337811
11
0.0170592
21
5.4090707
0
LINE
8
layer1
10
0.0170592
20
5.4090707
11
0.063246
21
5.2973008
0
LINE
8
layer1
10
0.063246
20
5.2973008
11
0.1183408
21
5.1990784
0
LINE
8
layer1
10
0.1183408
20
5.1990784
11
0.1812847
21
5.1149324
0
LINE
8
layer1
10
0.1812847
20
5.1149324
11
0.250986
21
5.0453375
0
LINE
8
layer1
10
0.250986
20
5.0453375
11
0.3263501
21
4.9906667
0
LINE
8
layer1
10
0.3263501
20
4.9906667
11
0.4062175
21
4.951277
0
LINE
8
layer1
10
0.4062175
20
4.951277
11
0.4789025
21
4.929538
0
LINE
8
layer1
10
0.4789025
20
4.929538
11
0.8348257
21
4.8791134
0
LINE
8
layer1
10
0.8348257
20
4.8791134
11
1.1014786
21
4.8258932
0
LINE
8
layer1
10
1.1014786
20
4.8258932
11
1.364816
21
4.7581465
0
LINE
8
layer1
10
1.364816
20
4.7581465
11
1.7073701
21
4.6491483
0
LINE
8
layer1
10
1.7073701
20
4.6491483
11
1.7822892
21
4.6371976
0
LINE
8
layer1
10
1.7822892
20
4.6371976
11
1.8713379
21
4.6380333
0
LINE
8
layer1
10
1.8713379
20
4.6380333
11
1.9629594
21
4.6545908
0
LINE
8
layer1
10
1.9629594
20
4.6545908
11
2.0559541
21
4.6870513
0
LINE
8
layer1
10
2.0559541
20
4.6870513
11
2.1491742
21
4.735554
0
LINE
8
layer1
10
2.1491742
20
4.735554
11
2.24143
21
4.8001446
0
LINE
8
layer1
10
2.24143
20
4.8001446
11
2.331538
21
4.880806
0
LINE
8
layer1
10
2.331538
20
4.880806
11
2.4182971
21
4.9774432
0
LINE
8
layer1
10
2.4182971
20
4.9774432
11
2.5005456
21
5.0899109
0
LINE
8
layer1
10
2.5005456
20
5.0899109
11
2.5771023
21
5.2179763
0
LINE
8
layer1
10
2.5771023
20
5.2179763
11
2.646809
21
5.3613293
0
LINE
8
layer1
10
2.646809
20
5.3613293
11
2.7085237
21
5.5195945
0
LINE
8
layer1
10
2.7085237
20
5.5195945
11
2.7611147
21
5.6923534
0
LINE
8
layer1
10
2.7611147
20
5.6923534
11
2.803489
21
5.879086
0
LINE
8
layer1
10
2.803489
20
5.879086
11
2.8342672
21
6.0768044
0
LINE
8
layer1
10
2.8342672
20
6.0768044
11
2.9542313
21
6.2215386
0
LINE
8
layer1
10
2.9542313
20
6.2215386
11
3.0903317
21
6.3571126
0
LINE
8
layer1
10
3.0903317
20
6.3571126
11
3.2736358
21
6.5116071
0
LINE
8
layer1
10
3.2736358
20
6.5116071
11
3.5070909
21
6.6771284
0
LINE
8
layer1
10
3.5070909
20
6.6771284
11
3.6435932
21
6.7617043
0
LINE
8
layer1
10
3.6435932
20
6.7617043
11
3.7927797
21
6.8457237
0
LINE
8
layer1
10
3.7927797
20
6.8457237
11
3.9572836
21
6.9294883
0
LINE
8
layer1
10
3.9572836
20
6.9294883
11
4.134956
21
7.0107293
0
LINE
8
layer1
10
4.134956
20
7.0107293
11
4.3258929
21
7.0885634
0
LINE
8
layer1
10
4.3258929
20
7.0885634
11
4.531685
21
7.1625452
0
LINE
8
layer1
10
4.531685
20
7.1625452
11
4.7503083
21
7.230952
0
LINE
8
layer1
10
4.7503083
20
7.230952
11
4.9838444
21
7.2934216
0
LINE
8
layer1
10
4.9838444
20
7.2934216
11
5.2041275
21
7.3426927
0
ARC
8
layer1
10
-0.0000664
20
-0.0000837
40
9
50
48.1842594
51
54.6728867
0
LINE
8
layer1
10
6.0005687
20
6.7075519
11
6.0015506
21
6.481828
0
ENDSEC
0
EOF