<?xml version="1.0" encoding="UTF-8" standalone="no"?>
<!-- Created with Inkscape (http://www.inkscape.org/) -->

<svg
   width="34.945362mm"
   height="56.397423mm"
   viewBox="0 0 34.945362 56.397423"
   version="1.1"
   id="svg286"
   xml:space="preserve"
   inkscape:version="1.2 (dc2aedaf03, 2022-05-15)"
   sodipodi:docname="Needle (Left oversized for printing).svg"
   inkscape:export-filename="Needle (Left oversized for printing).png"
   inkscape:export-xdpi="96"
   inkscape:export-ydpi="96"
   xmlns:inkscape="http://www.inkscape.org/namespaces/inkscape"
   xmlns:sodipodi="http://sodipodi.sourceforge.net/DTD/sodipodi-0.dtd"
   xmlns="http://www.w3.org/2000/svg"
   xmlns:svg="http://www.w3.org/2000/svg"><sodipodi:namedview
     id="namedview288"
     pagecolor="#ffffff"
     bordercolor="#666666"
     borderopacity="1.0"
     inkscape:showpageshadow="2"
     inkscape:pageopacity="0.0"
     inkscape:pagecheckerboard="0"
     inkscape:deskcolor="#d1d1d1"
     inkscape:document-units="mm"
     showgrid="false"
     inkscape:zoom="7.1266262"
     inkscape:cx="86.506571"
     inkscape:cy="126.84824"
     inkscape:window-width="1920"
     inkscape:window-height="1017"
     inkscape:window-x="-8"
     inkscape:window-y="-8"
     inkscape:window-maximized="1"
     inkscape:current-layer="g435" /><defs
     id="defs283"><inkscape:path-effect
       effect="spiro"
       id="path-effect537"
       is_visible="true"
       lpeversion="1" /><inkscape:path-effect
       effect="spiro"
       id="path-effect527"
       is_visible="true"
       lpeversion="1" /><inkscape:path-effect
       effect="spiro"
       id="path-effect517"
       is_visible="true"
       lpeversion="1" /><inkscape:path-effect
       effect="spiro"
       id="path-effect507"
       is_visible="true"
       lpeversion="1" /><marker
       id="DistanceX"
       orient="auto"
       refX="0"
       refY="0"
       style="overflow:visible"><path
         d="M 3,-3 -3,3 M 0,-5 V 5"
         style="stroke:#000000;stroke-width:0.5"
         id="path409" /></marker><pattern
       id="Hatch"
       patternUnits="userSpaceOnUse"
       width="8"
       height="8"
       x="0"
       y="0"><path
         d="M8 4 l-4,4"
         stroke="#000000"
         stroke-width="0.25"
         linecap="square"
         id="path412" /><path
         d="M6 2 l-4,4"
         stroke="#000000"
         stroke-width="0.25"
         linecap="square"
         id="path414" /><path
         d="M4 0 l-4,4"
         stroke="#000000"
         stroke-width="0.25"
         linecap="square"
         id="path416" /></pattern><symbol
       id="*MODEL_SPACE" /><symbol
       id="*PAPER_SPACE" /></defs><g
     inkscape:label="Layer 1"
     inkscape:groupmode="layer"
     id="layer1"
     transform="translate(-11.421471,-5.856731)"><g
       inkscape:label="0"
       id="g435"
       transform="matrix(0.26458333,0,0,0.26458333,160.68891,-165.52053)"><g
         id="path423"
         style="stroke-width:1.00157;stroke-dasharray:none"
         transform="matrix(-1.1536915,-0.91196365,0.91196365,-1.1536915,-1625.4923,2035.0268)"><path
           style="color:#000000;fill:#ffffff;fill-opacity:0.995122;stroke-width:1.00157;stroke-dasharray:none"
           d="m -79.052342,1091.6984 -12.59375,0.2422 -3.24414,12.1718 89.5214841,99.4024 1.476562,-1.1582 z"
           id="path1948" /><path
           id="path1950"
           style="color:#000000;fill:#000000;stroke-width:7.80472;stroke-dasharray:none"
           sodipodi:type="inkscape:offset"
           inkscape:radius="0"
           inkscape:original="M -8.9394531 1093.9707 L -9.2109375 1093.9805 L -22.181641 1094.2305 L -25.591797 1107.0273 L 64.423828 1206.9785 L 66.634766 1205.2441 L -8.9394531 1093.9707 z M -9.4628906 1094.9824 L 65.283203 1205.0293 L 64.541016 1205.6113 L -24.486328 1106.7578 L -21.408203 1095.2109 L -9.4628906 1094.9824 z "
           d="m -8.9394531,1093.9707 -0.2714844,0.01 -12.9707035,0.25 -3.410156,12.7968 90.015625,99.9512 2.210938,-1.7344 z m -0.5234375,1.0117 74.7460936,110.0469 -0.742187,0.582 -89.027344,-98.8535 3.078125,-11.5469 z"
           transform="translate(-69.85117,-2.7781715)" /></g><path
         style="fill:none;stroke:#000000;stroke-width:1.47061"
         d="m -523.79303,819.37365 12.26687,-9.16159"
         id="path429" /><path
         style="fill:none;stroke:#000000;stroke-width:1.47061"
         d="m -523.79303,819.37365 -12.19215,-9.2627"
         id="path431" /><path
         style="fill:#ffffff;fill-opacity:0.995122;stroke:#ffffff;stroke-width:0.619237"
         d="m -511.42798,829.58538 c 0.61313,9.48376 0.81382,17.59001 0.44591,18.01404 -0.36787,0.42393 -3.43891,2.83675 -6.82468,5.36191 l -6.15581,4.59108 -6.86257,-5.24482 -6.8617,-5.24593 1.34178,-17.44156 1.3418,-17.44156 5.36588,4.24159 c 6.2132,4.91138 5.09458,4.96927 12.54773,-0.64984 l 4.54684,-3.42801 z"
         id="path585" /><path
         style="fill:#000000;fill-opacity:0.995122;stroke:#ffffff;stroke-width:0.0650946"
         d="m -511.05763,829.54761 c 0.67267,10.45422 1.11494,17.85734 1.06911,17.89454 -0.11721,0.0952 -6.08748,4.56824 -10.27784,7.70035 l -3.68993,2.75802 -2.19145,-1.67365 c -1.20512,-0.92075 -4.11224,-3.13462 -6.46054,-4.91938 -2.34823,-1.78484 -4.51361,-3.44043 -4.81332,-3.67734 l -0.54445,-0.43139 0.37519,-4.90189 c 0.70284,-9.18119 1.0953,-14.45349 1.92575,-25.87007 0.19091,-2.62385 0.36638,-4.77284 0.38997,-4.77561 0.0231,-0.002 2.41538,1.79458 5.3135,3.99611 5.04538,3.83081 5.28345,4.00396 5.56828,4.07054 0.26685,0.0628 0.31208,0.0512 0.43933,-0.10982 0.13451,-0.17016 0.14746,-0.17203 0.26493,-0.034 0.0928,0.10907 0.17195,0.13592 0.31507,0.11406 0.5194,-0.0835 1.03145,-0.43756 5.96705,-4.12576 2.7398,-2.04739 5.03104,-3.75018 5.09175,-3.78414 0.0879,-0.0491 0.34154,3.52912 1.25778,17.76924 z"
         id="path1846" /><path
         style="color:#000000;fill:#ffffff;fill-opacity:0.995122;stroke-width:1.00157;stroke-dasharray:none"
         d="m -472.93312,795.31953 10.17701,7.42223 9.94386,-7.73284 -11.19504,-133.30268 -1.87638,0.0296 z"
         id="path1948-6" /><path
         id="path1950-4"
         style="color:#000000;fill:#000000;stroke-width:7.80472;stroke-dasharray:none"
         sodipodi:type="inkscape:offset"
         inkscape:radius="0"
         inkscape:original="M -8.9394531 1093.9707 L -9.2109375 1093.9805 L -22.181641 1094.2305 L -25.591797 1107.0273 L 64.423828 1206.9785 L 66.634766 1205.2441 L -8.9394531 1093.9707 z M -9.4628906 1094.9824 L 65.283203 1205.0293 L 64.541016 1205.6113 L -24.486328 1106.7578 L -21.408203 1095.2109 L -9.4628906 1094.9824 z "
         d="m -8.9394531,1093.9707 -0.2714844,0.01 -12.9707035,0.25 -3.410156,12.7968 90.015625,99.9512 2.210938,-1.7344 z m -0.5234375,1.0117 74.7460936,110.0469 -0.742187,0.582 -89.027344,-98.8535 3.078125,-11.5469 z"
         transform="rotate(-142.79446,-291.41394,1022.9421)" /><path
         style="fill:none;stroke:#000000"
         d="m -463.17342,775.90648 8.21802,-6.39165"
         id="path429-6" /><path
         style="fill:none;stroke:#000000"
         d="m -463.17342,775.90648 -8.41209,-6.1353"
         id="path431-9" /><path
         style="fill:#ffffff;fill-opacity:0.995122;stroke:#ffffff;stroke-width:0.421076"
         d="m -454.63118,782.68473 c 0.54288,6.43949 0.78706,11.94797 0.54259,12.24111 -0.2445,0.29311 -2.30028,1.9743 -4.56859,3.73608 l -4.12408,3.20309 -4.73533,-3.4745 -4.73473,-3.47531 0.68043,-11.8757 0.68044,-11.8757 3.70443,2.81238 c 4.28939,3.25648 3.52964,3.31072 8.52208,-0.60856 l 3.04566,-2.391 z"
         id="path585-3" /><path
         style="fill:#000000;fill-opacity:0.995122;stroke:#ffffff;stroke-width:0.0442638"
         d="m -454.37992,782.65414 c 0.59627,7.09849 0.99537,12.1257 0.96469,12.15162 -0.0784,0.0663 -4.07793,3.18665 -6.88515,5.37172 l -2.47201,1.92415 -1.51196,-1.10895 c -0.83155,-0.60997 -2.83749,-2.07636 -4.45764,-3.25865 -1.62015,-1.1823 -3.11435,-2.27903 -3.32127,-2.43612 l -0.3759,-0.28601 0.18996,-3.33764 c 0.3558,-6.25127 0.55253,-9.8409 0.96539,-17.61363 0.0949,-1.78639 0.18565,-3.24976 0.20164,-3.25193 0.0157,-0.002 1.66586,1.18812 3.66558,2.64616 3.48109,2.53735 3.64523,2.65192 3.83976,2.69339 0.18225,0.0392 0.21285,0.0306 0.2972,-0.0805 0.0892,-0.11748 0.0979,-0.11903 0.17968,-0.0267 0.0646,0.0729 0.11871,0.0901 0.21571,0.0734 0.35203,-0.0637 0.69545,-0.31122 4.00193,-2.88426 1.83548,-1.42834 3.37061,-2.61651 3.41142,-2.64039 0.059,-0.0343 0.27911,2.39477 1.09128,12.06392 z"
         id="path1846-1" /><path
         style="fill:none;stroke:#000000;stroke-width:1px;stroke-linecap:butt;stroke-linejoin:miter;stroke-opacity:1"
         d="m -535.53536,811.75783 c 0.0966,0.23561 0.24061,0.45166 0.42095,0.63143 0.0703,0.0701 0.14618,0.13486 0.21048,0.21048 0.0758,0.0891 0.13427,0.19189 0.21048,0.28064 0.0647,0.0753 0.14114,0.13946 0.21048,0.21048 0.0694,0.0711 0.13209,0.14948 0.21048,0.21047 0.0666,0.0518 0.14293,0.0898 0.21047,0.14032 0.0531,0.0398 0.10056,0.0872 0.14032,0.14032 0.0769,0.0353 0.14826,0.0829 0.21048,0.14032 0.0243,0.0224 0.0472,0.0464 0.0702,0.0702 0.0689,0.0714 0.13839,0.14229 0.21048,0.21048 0.10896,0.10307 0.22413,0.20033 0.3508,0.28064 0.0855,0.0542 0.17587,0.10045 0.26162,0.15428 0.0858,0.0538 0.16781,0.11621 0.22949,0.19651 0.0514,0.0669 0.0875,0.14471 0.14032,0.21048 0.0797,0.0992 0.19272,0.16526 0.30559,0.22401 0.11288,0.0588 0.22984,0.11345 0.32585,0.19695 0.1,0.087 0.17377,0.20231 0.28063,0.28064 0.0845,0.062 0.18504,0.0973 0.28064,0.14031 0.12466,0.0561 0.24303,0.12639 0.3508,0.21048 0.14411,0.11244 0.26905,0.24915 0.42096,0.3508 0.0871,0.0583 0.18216,0.10434 0.28063,0.14032 0.0695,0.0254 0.14065,0.0458 0.21048,0.0702 0.11891,0.0415 0.23352,0.0944 0.3508,0.14032 0.0978,0.0383 0.19985,0.0731 0.28064,0.14032 0.0764,0.0636 0.12947,0.15284 0.21047,0.21047 0.0515,0.0366 0.1118,0.0586 0.17208,0.0776 0.0603,0.019 0.1217,0.0354 0.17872,0.0627 0.10584,0.0506 0.1907,0.13518 0.28064,0.21048 0.20972,0.17557 0.45393,0.30488 0.70159,0.42096 0.14213,0.0666 0.28648,0.12954 0.42096,0.21048 0.15711,0.0946 0.29962,0.21331 0.42096,0.35079 0.35599,0.0954 0.69232,0.26356 0.98223,0.49112 0.16963,0.13315 0.32301,0.28589 0.49111,0.42096 0.13165,0.10578 0.27226,0.20058 0.42096,0.28063 0.27655,0.14886 0.58065,0.24665 0.84191,0.42096 0.0973,0.0649 0.18751,0.13973 0.28064,0.21048 0.13437,0.10208 0.27505,0.19587 0.42096,0.28064"
         id="path505"
         inkscape:path-effect="#path-effect507"
         inkscape:original-d="m -535.53536,811.75783 c 0.17708,0.35416 0.11823,0.28546 0.42095,0.63143 0.0653,0.0747 0.14591,0.13515 0.21048,0.21048 0.0761,0.0888 0.13438,0.19186 0.21048,0.28064 0.0646,0.0753 0.14032,0.14032 0.21048,0.21048 0.0702,0.0702 0.13425,0.14695 0.21048,0.21047 0.0648,0.054 0.14463,0.0876 0.21047,0.14032 0.0516,0.0413 0.0935,0.0936 0.14032,0.14032 0.0702,0.0468 0.14302,0.0897 0.21048,0.14032 0.0265,0.0198 0.0468,0.0468 0.0702,0.0702 0.0702,0.0702 0.13515,0.14591 0.21048,0.21048 0.1137,0.0975 0.231,0.19079 0.3508,0.28064 0.15934,0.11951 0.34885,0.20853 0.49111,0.35079 0.0596,0.0596 0.0807,0.15086 0.14032,0.21048 0.26071,0.26071 0.33083,0.18715 0.63144,0.42096 0.10442,0.0812 0.1748,0.20126 0.28063,0.28064 0.0837,0.0627 0.18922,0.0895 0.28064,0.14031 0.11921,0.0662 0.24171,0.12866 0.3508,0.21048 0.46434,0.34826 -0.0371,0.089 0.42096,0.3508 0.0908,0.0519 0.1845,0.0991 0.28063,0.14032 0.068,0.0291 0.14032,0.0468 0.21048,0.0702 0.11693,0.0468 0.23571,0.0892 0.3508,0.14032 0.0956,0.0425 0.19553,0.0795 0.28064,0.14032 0.0807,0.0577 0.12634,0.15789 0.21047,0.21047 0.1068,0.0668 0.24071,0.0792 0.3508,0.14032 0.10222,0.0568 0.18228,0.14725 0.28064,0.21048 0.22941,0.14748 0.46389,0.28725 0.70159,0.42096 0.13674,0.0769 0.29043,0.12345 0.42096,0.21048 0.15198,0.10131 0.27078,0.24682 0.42096,0.35079 0.26835,0.27711 0.67431,0.29317 0.98223,0.49112 0.18137,0.11659 0.32022,0.28949 0.49111,0.42096 0.13367,0.10282 0.27529,0.19566 0.42096,0.28063 0.27102,0.1581 0.57287,0.25953 0.84191,0.42096 0.10027,0.0602 0.17842,0.15369 0.28064,0.21048 0.44236,0.24575 0.27662,-0.008 0.42096,0.28064" /><path
         style="fill:none;stroke:#000000;stroke-width:1px;stroke-linecap:butt;stroke-linejoin:miter;stroke-opacity:1"
         d="m -527.95815,817.58106 c -0.005,-0.12828 -0.0557,-0.25426 -0.14031,-0.3508 -0.0436,-0.0498 -0.0935,-0.0935 -0.14032,-0.14032 l -0.21048,-0.21048 c -0.0415,-0.0415 -0.0852,-0.0809 -0.13379,-0.11373 -0.0486,-0.0329 -0.10092,-0.0603 -0.14685,-0.0967 -0.026,-0.0206 -0.0496,-0.0442 -0.0702,-0.0702 -0.0519,-0.0104 -0.1009,-0.0349 -0.14032,-0.0702 -0.0246,-0.0221 -0.0455,-0.0482 -0.0702,-0.0702 -0.0392,-0.035 -0.087,-0.0588 -0.13552,-0.079 -0.0485,-0.0203 -0.0983,-0.0374 -0.14512,-0.0613 -0.0752,-0.0384 -0.14051,-0.0931 -0.21047,-0.14032 -0.0869,-0.0587 -0.18154,-0.10597 -0.28064,-0.14032 -0.0712,-0.0947 -0.16977,-0.16863 -0.28064,-0.21048 -0.0247,-0.009 -0.05,-0.0171 -0.0742,-0.0275 -0.0242,-0.0104 -0.0476,-0.0238 -0.0661,-0.0427 -0.0184,-0.0188 -0.0312,-0.0425 -0.0415,-0.0667 -0.0103,-0.0242 -0.0183,-0.0494 -0.0287,-0.0736 -0.0432,-0.10073 -0.12489,-0.18035 -0.21382,-0.2444 -0.0889,-0.0641 -0.18654,-0.11511 -0.27729,-0.17655 -0.0139,-0.009 -0.0276,-0.0191 -0.0399,-0.0304 -0.0123,-0.0114 -0.0231,-0.0246 -0.0303,-0.0398 -0.0117,-0.025 -0.0126,-0.0535 -0.0196,-0.0802 -0.003,-0.0133 -0.009,-0.0265 -0.017,-0.0375 -0.008,-0.011 -0.0201,-0.0198 -0.0336,-0.0226 -0.0127,-0.003 -0.0259,-2e-5 -0.038,0.004 -0.0122,0.004 -0.0237,0.0103 -0.0359,0.0147 -0.0122,0.004 -0.0253,0.007 -0.038,0.005 -0.006,-0.001 -0.0125,-0.004 -0.0175,-0.008 -0.005,-0.004 -0.009,-0.01 -0.0109,-0.0157 -0.002,-0.006 -0.002,-0.012 -5.9e-4,-0.0179 9.7e-4,-0.006 0.003,-0.0118 0.004,-0.0176 0.001,-0.006 0.003,-0.0119 0.002,-0.0179 -2.6e-4,-0.006 -0.002,-0.0121 -0.006,-0.0168 -0.004,-0.005 -0.01,-0.008 -0.0159,-0.009 -0.006,-0.001 -0.0123,-5e-4 -0.0183,7.5e-4 -0.012,0.003 -0.0237,0.008 -0.036,0.008 -0.0144,2.2e-4 -0.0284,-0.007 -0.0385,-0.017 -0.0101,-0.0103 -0.0166,-0.0237 -0.0205,-0.0376 -0.008,-0.0278 -0.006,-0.0574 -0.0112,-0.0857 -0.008,-0.043 -0.0344,-0.0814 -0.0674,-0.11029 -0.033,-0.0289 -0.0727,-0.0492 -0.11338,-0.0655 -0.0814,-0.0326 -0.17058,-0.0514 -0.24022,-0.1048 -0.0526,-0.0403 -0.0899,-0.0974 -0.14032,-0.14032 -0.0643,-0.0548 -0.14712,-0.0845 -0.21048,-0.14031 -0.0497,-0.0438 -0.0859,-0.10247 -0.14032,-0.14032 -0.0611,-0.0425 -0.13779,-0.0539 -0.21047,-0.0702 -0.11911,-0.0267 -0.23573,-0.0701 -0.33605,-0.13964 -0.10032,-0.0695 -0.18377,-0.16651 -0.22523,-0.28132 -0.009,-0.0249 -0.016,-0.0506 -0.0262,-0.075 -0.0102,-0.0245 -0.0239,-0.048 -0.044,-0.0653 -0.0199,-0.0171 -0.0448,-0.0271 -0.0694,-0.0364 -0.0246,-0.009 -0.0498,-0.0182 -0.0709,-0.0338 -0.0266,-0.0197 -0.045,-0.0487 -0.0702,-0.0702 -0.0399,-0.0341 -0.0932,-0.047 -0.14032,-0.0702 -0.0605,-0.0299 -0.11218,-0.079 -0.14032,-0.14031 -0.011,-0.024 -0.0184,-0.0495 -0.0282,-0.074 -0.01,-0.0245 -0.0225,-0.0486 -0.042,-0.0663 -0.0276,-0.0252 -0.0657,-0.035 -0.10252,-0.0416 -0.0368,-0.007 -0.0749,-0.0112 -0.10796,-0.0286 -0.0381,-0.02 -0.066,-0.0554 -0.0867,-0.0931 -0.0207,-0.0377 -0.0351,-0.0785 -0.0536,-0.11737 -0.0451,-0.0948 -0.11471,-0.1779 -0.20017,-0.23894 -0.0855,-0.061 -0.18661,-0.0999 -0.29095,-0.11186 l -0.14032,-0.14032 c 0.0121,-0.0122 0.0202,-0.0283 0.0229,-0.0452 0.003,-0.0169 -5e-5,-0.0347 -0.008,-0.0501 -0.008,-0.0154 -0.0203,-0.0282 -0.0354,-0.0362 -0.0152,-0.008 -0.0329,-0.0111 -0.0499,-0.009 -0.026,0.004 -0.0488,0.0191 -0.0742,0.0258 -0.0127,0.003 -0.0263,0.004 -0.0388,3.4e-4 -0.006,-0.002 -0.0121,-0.005 -0.0169,-0.01 -0.005,-0.004 -0.009,-0.0101 -0.0104,-0.0164 -0.002,-0.006 -0.002,-0.0118 -0.001,-0.0177 6.3e-4,-0.006 0.002,-0.0117 0.003,-0.0176 0.001,-0.006 0.002,-0.0118 0.002,-0.0177 -5e-5,-0.006 -0.001,-0.012 -0.004,-0.0172 -0.003,-0.006 -0.008,-0.01 -0.0138,-0.0126 -0.006,-0.003 -0.0121,-0.004 -0.0185,-0.004 -0.0127,6e-5 -0.0248,0.005 -0.0364,0.01 -0.0116,0.005 -0.023,0.011 -0.0355,0.0134 -0.006,0.001 -0.0127,0.002 -0.0189,5.6e-4 -0.006,-0.001 -0.0123,-0.003 -0.0173,-0.007 -0.005,-0.004 -0.008,-0.009 -0.0107,-0.0149 -0.002,-0.006 -0.003,-0.012 -0.003,-0.0182 7e-5,-0.0124 0.004,-0.0244 0.008,-0.036 0.004,-0.0116 0.009,-0.0231 0.0112,-0.0353 0.001,-0.006 0.001,-0.0124 5.1e-4,-0.0185 -8.3e-4,-0.006 -0.003,-0.0122 -0.006,-0.0174 -0.003,-0.005 -0.008,-0.01 -0.0134,-0.0128 -0.005,-0.003 -0.0113,-0.005 -0.0174,-0.006 -0.0123,-0.002 -0.0249,-5.7e-4 -0.037,0.003 -0.0121,0.003 -0.0237,0.008 -0.0357,0.0112 -0.0119,0.004 -0.0243,0.006 -0.0368,0.006 -0.0171,-10e-4 -0.0334,-0.008 -0.0469,-0.0189 -0.0135,-0.0105 -0.0244,-0.024 -0.034,-0.0381 -0.0192,-0.0283 -0.034,-0.0603 -0.0594,-0.0832 -0.0278,-0.025 -0.0651,-0.0363 -0.10174,-0.0438 -0.0366,-0.007 -0.0743,-0.012 -0.10874,-0.0264 -0.0353,-0.0148 -0.0658,-0.0395 -0.0923,-0.0672 -0.0265,-0.0277 -0.0494,-0.0585 -0.0735,-0.0883 -0.0241,-0.0298 -0.0496,-0.0589 -0.0802,-0.082 -0.0306,-0.0231 -0.0667,-0.0401 -0.10488,-0.0431 -0.0234,-0.002 -0.0469,0.002 -0.0703,0.004 -0.0234,0.002 -0.0475,0.003 -0.07,-0.004 -0.033,-0.01 -0.0602,-0.0372 -0.0702,-0.0702"
         id="path515"
         inkscape:path-effect="#path-effect517"
         inkscape:original-d="m -527.95815,817.58106 c -0.0468,-0.11693 -0.0778,-0.24145 -0.14031,-0.3508 -0.0328,-0.0574 -0.0935,-0.0935 -0.14032,-0.14032 -0.0702,-0.0702 -0.14032,-0.14032 -0.21048,-0.21048 -0.30346,-0.30346 0.0186,-0.011 -0.28064,-0.21047 -0.0275,-0.0184 -0.0468,-0.0468 -0.0702,-0.0702 -0.0468,-0.0234 -0.0968,-0.0412 -0.14032,-0.0702 -0.0275,-0.0183 -0.0426,-0.0518 -0.0702,-0.0702 -0.087,-0.058 -0.19095,-0.0865 -0.28064,-0.14032 -0.0723,-0.0434 -0.13817,-0.0969 -0.21047,-0.14032 -0.0897,-0.0538 -0.19096,-0.0865 -0.28064,-0.14032 -0.15517,0.007 -0.18335,-0.14561 -0.28064,-0.21048 -0.0435,-0.029 -0.10334,-0.0332 -0.14032,-0.0702 -0.037,-0.037 -0.0388,-0.0985 -0.0702,-0.14032 -0.0939,-0.12522 -0.43342,-0.37287 -0.49111,-0.42095 -0.0254,-0.0212 -0.0518,-0.0426 -0.0702,-0.0702 -0.029,-0.0435 -0.0266,-0.11131 -0.0702,-0.14032 -0.0389,-0.026 -0.0985,0.0209 -0.14032,0 -0.0209,-0.0105 0.0165,-0.0536 0,-0.0702 -0.0165,-0.0165 -0.0536,0.0165 -0.0702,0 -0.037,-0.037 -0.0332,-0.10334 -0.0702,-0.14032 -0.003,-0.003 -0.41289,-0.27418 -0.42096,-0.28064 -0.0516,-0.0413 -0.0887,-0.099 -0.14032,-0.14032 -0.0658,-0.0527 -0.14463,-0.0876 -0.21048,-0.14031 -0.0516,-0.0413 -0.0836,-0.10629 -0.14032,-0.14032 -0.0634,-0.0381 -0.14433,-0.0371 -0.21047,-0.0702 -0.12954,-0.0648 -0.50965,-0.36933 -0.56128,-0.42096 -0.037,-0.037 -0.0332,-0.10334 -0.0702,-0.14032 -0.037,-0.037 -0.0968,-0.0411 -0.14032,-0.0702 -0.0275,-0.0183 -0.0426,-0.0518 -0.0702,-0.0702 -0.0435,-0.029 -0.0985,-0.0388 -0.14032,-0.0702 -0.0529,-0.0397 -0.10063,-0.0874 -0.14032,-0.14031 -0.0314,-0.0418 -0.0283,-0.10895 -0.0702,-0.14032 -0.0592,-0.0444 -0.15273,-0.024 -0.21048,-0.0702 -0.0658,-0.0527 -0.0807,-0.15086 -0.14031,-0.21048 -0.19752,-0.19751 -0.29193,-0.19145 -0.49112,-0.3508 -0.0468,-0.0468 -0.0935,-0.0935 -0.14032,-0.14032 -0.0234,-0.0468 -0.0332,-0.10334 -0.0702,-0.14032 -0.0331,-0.0331 -0.10724,0.0331 -0.14032,0 -0.0165,-0.0165 0.0165,-0.0536 0,-0.0702 -0.0331,-0.0331 -0.10724,0.0331 -0.14032,0 -0.0331,-0.0331 0.0418,-0.1194 0,-0.14031 -0.0418,-0.0209 -0.0985,0.0209 -0.14031,0 -0.0592,-0.0296 -0.0836,-0.10629 -0.14032,-0.14032 -0.0634,-0.038 -0.14707,-0.0321 -0.21048,-0.0702 -0.32211,-0.19327 0.0704,-0.11214 -0.3508,-0.28064 -0.0434,-0.0174 -0.0985,0.0209 -0.14032,0 -0.18709,-0.0936 0.21048,-0.0702 -0.0702,-0.0702" /><path
         style="fill:none;stroke:#000000;stroke-width:1px;stroke-linecap:butt;stroke-linejoin:miter;stroke-opacity:1"
         d="m -535.67568,812.24894 v 1.05239 c 0,0.0469 -0.002,0.0938 -0.005,0.1406 -0.003,0.0468 -0.006,0.0946 0.005,0.14004 0.0129,0.0511 0.0439,0.0953 0.0734,0.13897 0.0295,0.0436 0.0586,0.0897 0.067,0.14167 0.007,0.0463 -0.002,0.0935 0,0.14032 0.002,0.0483 0.0178,0.0949 0.0335,0.14064 0.0157,0.0457 0.0321,0.0919 0.0367,0.14 0.007,0.07 -0.0118,0.14117 0,0.21047 0.0124,0.0731 0.0574,0.13747 0.0702,0.21048 0.0122,0.0692 -0.006,0.1404 0,0.21048 0.006,0.0741 0.0372,0.14351 0.0686,0.21091 0.0314,0.0674 0.0637,0.13614 0.0717,0.21005 0.008,0.0698 -0.007,0.14059 0,0.21048 0.01,0.0961 0.0595,0.18461 0.0702,0.28063 0.008,0.0698 -0.005,0.14047 0,0.21048 0.008,0.0963 0.0498,0.18622 0.0702,0.28064 0.0223,0.10316 0.0182,0.21007 0.0105,0.31533 -0.008,0.10526 -0.0189,0.2109 -0.0105,0.3161 0.0173,0.21525 0.11578,0.4169 0.14031,0.63144 0.0266,0.23277 -0.035,0.46993 0,0.70159 0.0178,0.11802 0.0604,0.23185 0.0702,0.3508 0.008,0.0933 0,0.18706 0,0.28064 v 0.35079 1.75399 3.36765 1.96447 0.49111 c 0,0.16383 0.0209,0.32862 0,0.49112 -0.0123,0.0958 -0.0436,0.18784 -0.0702,0.28064 -0.0329,0.1148 -0.0588,0.23192 -0.0702,0.35079 -0.009,0.0933 -0.009,0.18738 0,0.28064 -0.0586,0.13598 -0.10564,0.27699 -0.14031,0.42096 -0.0452,0.1877 -0.0698,0.38153 -0.14032,0.56127 -0.069,0.17584 -0.1793,0.33172 -0.28064,0.49112 -0.0563,0.0886 -0.11066,0.17997 -0.14032,0.28064 -0.0337,0.1145 -0.0343,0.23695 -0.0702,0.35079 -0.0315,0.1 -0.089,0.18927 -0.14032,0.28064 -0.15375,0.2737 -0.25638,0.57458 -0.42096,0.84191 -0.0551,0.0896 -0.11823,0.17782 -0.14031,0.28064 -0.014,0.0653 -0.0106,0.1334 -0.0247,0.19871 -0.007,0.0326 -0.0186,0.0647 -0.0376,0.0922 -0.0191,0.0274 -0.0461,0.05 -0.078,0.0599 -0.0227,0.007 -0.0476,0.008 -0.0702,0 -0.0209,-0.007 -0.0393,-0.0207 -0.0533,-0.0378 -0.014,-0.017 -0.0238,-0.0373 -0.0301,-0.0584 -0.0125,-0.0423 -0.0112,-0.0874 -0.007,-0.13132 0.009,-0.0878 0.0201,-0.1754 0.0201,-0.26361 v -0.70159 -0.42096 c 0,-0.0702 -0.007,-0.14066 0,-0.21048 0.01,-0.0961 0.0556,-0.18518 0.0702,-0.28063 0.0142,-0.0926 -0.001,-0.18696 0,-0.28064 0.002,-0.1311 0.0368,-0.2592 0.0711,-0.38574 0.0344,-0.12654 0.0686,-0.2549 0.0692,-0.38601 5.1e-4,-0.11732 -0.0259,-0.23638 0,-0.3508 0.0279,-0.12316 0.11371,-0.22736 0.14032,-0.3508 0.0247,-0.11463 -0.004,-0.2336 0,-0.3508 0.005,-0.14234 0.0581,-0.27904 0.0702,-0.42095 0.01,-0.11658 -0.008,-0.23407 0,-0.3508 0.01,-0.14204 0.0573,-0.27918 0.0702,-0.42096 0.0128,-0.13979 0,-0.28058 0,-0.42095 v -1.12255 -3.08702 -1.12255 -0.21048 c 0,-0.047 -0.002,-0.0939 -0.006,-0.1407 -0.004,-0.0468 -0.007,-0.0949 0.006,-0.13994 0.0148,-0.0503 0.0502,-0.0919 0.0702,-0.14031 0.0158,-0.0382 0.0216,-0.08 0.0216,-0.12142 0,-0.0414 -0.006,-0.0825 -0.0121,-0.12339 -0.0129,-0.0817 -0.0289,-0.16586 -0.01,-0.24631 0.009,-0.0361 0.0242,-0.07 0.0385,-0.10424 0.0143,-0.0342 0.0277,-0.0694 0.0317,-0.10624 0.004,-0.035 -0.001,-0.0704 -0.004,-0.10545 -0.003,-0.0351 -0.005,-0.0711 0.004,-0.10503 0.0143,-0.0505 0.0522,-0.0911 0.0702,-0.14032 0.0122,-0.0333 0.0148,-0.0695 0.0129,-0.10489 -0.002,-0.0354 -0.008,-0.0704 -0.0129,-0.10558 -0.013,-0.093 -0.017,-0.18824 0,-0.28064 0.0175,-0.0949 0.0567,-0.18509 0.0702,-0.28064 0.0164,-0.11592 -0.006,-0.23386 0,-0.3508 0.007,-0.14221 0.055,-0.27938 0.0702,-0.42095 0.0138,-0.12826 4.2e-4,-0.25766 -0.01,-0.38626 -0.0101,-0.1286 -0.0169,-0.25927 0.01,-0.3855 0.0352,-0.16704 0.12771,-0.32087 0.14031,-0.49111 0.005,-0.07 0,-0.1403 0,-0.21048 v -0.3508 c 0,-0.0468 -0.006,-0.0939 0,-0.14032 0.005,-0.0368 0.0186,-0.0717 0.0331,-0.1058 0.0145,-0.0341 0.0298,-0.0683 0.0371,-0.10467 0.009,-0.046 0.005,-0.0935 8.7e-4,-0.14028 -0.004,-0.0467 -0.009,-0.0941 -8.7e-4,-0.14036 0.0127,-0.073 0.056,-0.13775 0.0702,-0.21048 0.009,-0.046 0.006,-0.0934 0.004,-0.14015 -0.002,-0.0468 -0.004,-0.0936 -0.004,-0.14049 v -0.28064"
         id="path525"
         inkscape:path-effect="#path-effect527"
         inkscape:original-d="m -535.67568,812.24894 c 0,0.3508 0,0.7016 0,1.05239 0,0.0935 -0.0154,0.18837 0,0.28064 0.0172,0.10317 0.11495,0.17917 0.14032,0.28064 0.0113,0.0454 -0.008,0.0942 0,0.14032 0.0159,0.0951 0.0565,0.18518 0.0702,0.28064 0.01,0.0694 -0.0115,0.14127 0,0.21047 0.0122,0.073 0.058,0.13753 0.0702,0.21048 0.0115,0.0692 -0.0115,0.14128 0,0.21048 0.0243,0.1459 0.116,0.27506 0.14032,0.42096 0.0115,0.0692 -0.01,0.14102 0,0.21048 0.0136,0.0954 0.0565,0.18518 0.0702,0.28063 0.01,0.0695 -0.01,0.14103 0,0.21048 0.0136,0.0955 0.0595,0.1848 0.0702,0.28064 0.0232,0.20919 -0.0261,0.42258 0,0.63143 0.11718,0.9375 0.0289,-0.48318 0.14031,0.63144 0.0233,0.2327 -0.0233,0.46889 0,0.70159 0.0119,0.11866 0.057,0.23228 0.0702,0.3508 0.0103,0.093 0,0.18709 0,0.28064 0,0.11693 0,0.23386 0,0.35079 0,0.58467 0,1.16933 0,1.75399 0,1.12255 0,2.2451 0,3.36765 0,0.65482 0,1.30965 0,1.96447 0,0.1637 0,0.32741 0,0.49111 0,0.16371 0.0148,0.32809 0,0.49112 -0.009,0.096 -0.0492,0.18651 -0.0702,0.28064 -0.0259,0.1164 -0.057,0.23227 -0.0702,0.35079 -0.0103,0.093 0.0116,0.18782 0,0.28064 0.0812,0.18263 -0.116,0.27506 -0.14031,0.42096 -0.0811,0.48634 0.13246,0.0839 -0.14032,0.56127 -0.39667,0.69417 0.14339,-0.35694 -0.28064,0.49112 -0.0468,0.0935 -0.10725,0.18142 -0.14032,0.28064 -0.0377,0.11313 -0.0324,0.23767 -0.0702,0.35079 -0.0331,0.0992 -0.0935,0.1871 -0.14032,0.28064 -0.14032,0.28064 -0.28064,0.56128 -0.42096,0.84191 -0.0468,0.0935 -0.0991,0.18451 -0.14031,0.28064 -0.0205,0.048 -0.0839,0.29434 -0.14032,0.3508 -0.0165,0.0165 -0.0572,0.0195 -0.0702,0 -0.0997,-0.14961 -0.0702,-0.32577 -0.0702,-0.49112 0,-0.23386 0,-0.46773 0,-0.70159 0,-0.2807 0,-0.14026 0,-0.42096 0,-0.0702 -0.01,-0.14102 0,-0.21048 0.0136,-0.0954 0.0582,-0.18495 0.0702,-0.28063 0.0116,-0.0928 -0.0103,-0.18767 0,-0.28064 0.10605,-0.95451 0.041,0.32061 0.14032,-0.77175 0.0106,-0.11646 -0.0229,-0.23614 0,-0.3508 0.0247,-0.1235 0.11562,-0.2273 0.14032,-0.3508 0.0229,-0.11466 -0.0106,-0.23434 0,-0.3508 0.0129,-0.14167 0.0573,-0.27928 0.0702,-0.42095 0.0106,-0.11645 -0.0106,-0.23435 0,-0.3508 0.0129,-0.14167 0.0583,-0.27919 0.0702,-0.42096 0.0116,-0.13983 0,-0.28063 0,-0.42095 0,-0.37419 0,-0.74837 0,-1.12255 0,-1.02901 0,-2.05801 0,-3.08702 0,-0.37418 0,-0.74837 0,-1.12255 0,-0.0702 0,-0.14032 0,-0.21048 0,-0.0935 -0.0154,-0.18836 0,-0.28064 0.009,-0.0516 0.0616,-0.0887 0.0702,-0.14031 0.0269,-0.16148 -0.0269,-0.32964 0,-0.49112 0.0122,-0.0729 0.058,-0.13753 0.0702,-0.21048 0.0115,-0.0692 -0.0138,-0.14168 0,-0.21048 0.0103,-0.0513 0.0599,-0.089 0.0702,-0.14032 0.0138,-0.0688 0,-0.14031 0,-0.21047 0,-0.0935 -0.0116,-0.18782 0,-0.28064 0.012,-0.0957 0.0595,-0.1848 0.0702,-0.28064 0.0129,-0.11622 -0.0106,-0.23434 0,-0.3508 0.0129,-0.14167 0.0573,-0.27928 0.0702,-0.42095 0.0429,-0.47163 -0.0514,-0.25725 0,-0.77176 0.0544,-0.54377 0.0655,-0.0424 0.14031,-0.49111 0.0115,-0.0692 0,-0.14032 0,-0.21048 0,-0.11693 0,-0.23387 0,-0.3508 0,-0.0468 -0.009,-0.0945 0,-0.14032 0.0145,-0.0725 0.0597,-0.13726 0.0702,-0.21047 0.0132,-0.0926 -0.0132,-0.18804 0,-0.28064 0.0105,-0.0732 0.0597,-0.13727 0.0702,-0.21048 0.0132,-0.0926 0,-0.18709 0,-0.28064 0,-0.0935 0,-0.18709 0,-0.28064" /><path
         style="fill:none;stroke:#000000;stroke-width:1px;stroke-linecap:butt;stroke-linejoin:miter;stroke-opacity:1"
         d="m -524.59049,818.91409 c 0.26069,0.1823 0.518,0.36943 0.77175,0.56127 0.0212,0.016 0.0424,0.0321 0.0655,0.045 0.0231,0.013 0.0484,0.0227 0.0748,0.0252 0.0233,0.002 0.0468,0 0.0702,0 h 0.14032 c 0.0235,0 0.0469,-9.1e-4 0.0703,-0.002 0.0234,-0.001 0.0472,-0.003 0.07,0.002 0.0256,0.006 0.0482,0.0207 0.0702,0.0351 0.022,0.0144 0.0446,0.029 0.0702,0.0351 0.0228,0.005 0.0466,0.004 0.07,0.002 0.0234,-0.001 0.0468,-0.002 0.0703,-0.002 h 0.14032 c 0.0234,0 0.0469,8.5e-4 0.0703,0.002 0.0234,0.001 0.0472,0.003 0.0701,-0.002 0.0333,-0.007 0.0623,-0.0288 0.0847,-0.0545 0.0224,-0.0258 0.0391,-0.0559 0.0556,-0.0858 0.006,-0.0114 0.0127,-0.0232 0.0142,-0.0361 7.7e-4,-0.006 2.5e-4,-0.0132 -0.002,-0.0192 -0.002,-0.006 -0.007,-0.0115 -0.0122,-0.0148 -0.005,-0.003 -0.0112,-0.004 -0.0171,-0.004 -0.006,-1.2e-4 -0.0118,6.8e-4 -0.0177,0.002 -0.0117,0.002 -0.0236,0.003 -0.0354,0.003 h -0.21048 c -0.0832,0 -0.16657,0.008 -0.24685,0.0302 -0.0401,0.011 -0.0798,0.0238 -0.12041,0.0329 -0.0406,0.009 -0.0828,0.014 -0.12385,0.007 -0.0366,-0.006 -0.0711,-0.0216 -0.10775,-0.0276 -0.0183,-0.003 -0.0372,-0.004 -0.0553,3.8e-4 -0.0181,0.004 -0.0354,0.0131 -0.0474,0.0273 -0.008,0.01 -0.0142,0.0224 -0.0147,0.0354 -2.5e-4,0.007 8.2e-4,0.0131 0.003,0.0191 0.002,0.006 0.006,0.0115 0.0114,0.0156 0.009,0.008 0.0224,0.0106 0.0347,0.01 0.0123,-8.8e-4 0.0241,-0.005 0.0355,-0.01 0.0928,-0.038 0.16769,-0.10991 0.23184,-0.18703 0.0641,-0.0771 0.12015,-0.16109 0.18912,-0.23392 0.11232,-0.1186 0.25527,-0.20369 0.4016,-0.27628 0.14633,-0.0726 0.29816,-0.13437 0.44031,-0.21484 0.35054,-0.19844 0.63116,-0.50409 0.98223,-0.70159 0.13675,-0.0769 0.28259,-0.1365 0.42096,-0.21048 0.16632,-0.0889 0.32138,-0.1984 0.49111,-0.28064 0.16033,-0.0777 0.33206,-0.13023 0.49112,-0.21048 0.25523,-0.12877 0.46943,-0.3243 0.70159,-0.49111 0.0685,-0.0492 0.13871,-0.096 0.21048,-0.14032 0.0932,-0.10224 0.21675,-0.17639 0.3508,-0.21048 0.0361,-0.009 0.0729,-0.0155 0.10884,-0.0253 0.0359,-0.01 0.0715,-0.0231 0.10164,-0.0449 0.0538,-0.0388 0.0867,-0.10125 0.14032,-0.14032 0.0301,-0.022 0.0655,-0.0356 0.10147,-0.0454 0.0359,-0.01 0.0728,-0.0161 0.109,-0.0248 0.17356,-0.0416 0.32847,-0.13701 0.49112,-0.21048 0.11479,-0.0519 0.23408,-0.093 0.3508,-0.14032 0.31035,-0.12591 0.60153,-0.2955 0.91207,-0.42095 0.11679,-0.0472 0.23619,-0.0881 0.3508,-0.14032 0.28602,-0.13042 0.54074,-0.33089 0.84191,-0.42096 0.0968,-0.0289 0.19677,-0.0459 0.29383,-0.0739 0.097,-0.028 0.19301,-0.0683 0.26745,-0.13656 0.032,-0.0294 0.0596,-0.0634 0.0928,-0.0914 0.0166,-0.014 0.0347,-0.0264 0.0545,-0.0353 0.0198,-0.009 0.0415,-0.0142 0.0632,-0.0136 0.0241,6.5e-4 0.0473,0.008 0.0711,0.0121 0.0119,0.002 0.024,0.003 0.036,0.001 0.0119,-0.002 0.0237,-0.006 0.0332,-0.0131 0.0146,-0.0113 0.023,-0.0293 0.0255,-0.0476 0.002,-0.0183 -4.8e-4,-0.037 -0.005,-0.0548 -0.005,-0.0179 -0.011,-0.0353 -0.0156,-0.0532 -0.005,-0.0179 -0.007,-0.0366 -0.005,-0.0548 0.002,-0.0169 0.01,-0.033 0.0194,-0.047 0.01,-0.014 0.0221,-0.0261 0.0354,-0.0368 0.0267,-0.0213 0.0575,-0.0369 0.0855,-0.0565 0.0273,-0.0191 0.0522,-0.0422 0.0702,-0.0702 0.0201,-0.0312 0.0309,-0.0674 0.0398,-0.10347 0.009,-0.036 0.0163,-0.0727 0.0304,-0.10701 0.0287,-0.0697 0.083,-0.12515 0.13703,-0.17771 0.054,-0.0526 0.11003,-0.10563 0.14361,-0.17309 0.0117,-0.0235 0.0204,-0.0484 0.0307,-0.0725 0.0103,-0.0242 0.0223,-0.048 0.0395,-0.0678 0.0221,-0.0254 0.0515,-0.0429 0.0784,-0.063 0.0135,-0.0101 0.0264,-0.021 0.0374,-0.0337 0.011,-0.0127 0.0199,-0.0274 0.0246,-0.0436 0.006,-0.0226 0.004,-0.0467 0.001,-0.0701 -0.003,-0.0234 -0.006,-0.0472 -0.001,-0.0702 0.005,-0.0258 0.0196,-0.0486 0.0341,-0.0706 0.0145,-0.0219 0.0296,-0.0443 0.0361,-0.0697 0.006,-0.0228 0.004,-0.0467 0.002,-0.0701 -0.002,-0.0234 -0.005,-0.047 -0.002,-0.0703 0.003,-0.0262 0.0138,-0.051 0.0269,-0.074 0.0131,-0.0229 0.0288,-0.0443 0.0433,-0.0663 0.0289,-0.0438 0.0536,-0.0906 0.0702,-0.14032 0.008,-0.0252 0.0148,-0.0512 0.0248,-0.0758 0.0101,-0.0246 0.0243,-0.0483 0.0454,-0.0645 0.0137,-0.0105 0.0298,-0.0176 0.0437,-0.0278 0.007,-0.005 0.0134,-0.0111 0.0183,-0.0182 0.005,-0.007 0.008,-0.0156 0.008,-0.0242 1.2e-4,-0.006 -0.001,-0.0124 -0.003,-0.0184 -0.002,-0.006 -0.004,-0.0118 -0.005,-0.0179 -0.001,-0.006 -0.002,-0.0124 -0.001,-0.0185 0.001,-0.006 0.004,-0.012 0.01,-0.0154 0.005,-0.003 0.0117,-0.004 0.0178,-0.003 0.006,8.5e-4 0.0119,0.003 0.0177,0.005 0.006,0.002 0.0118,0.004 0.0179,0.004 0.003,8e-5 0.006,-2.9e-4 0.009,-0.001 0.003,-9.8e-4 0.006,-0.003 0.008,-0.005 0.002,-0.002 0.004,-0.005 0.005,-0.008 8.8e-4,-0.003 0.001,-0.006 9.6e-4,-0.009 -3.4e-4,-0.006 -0.002,-0.0121 -0.005,-0.0178 -0.002,-0.006 -0.004,-0.0116 -0.005,-0.0177 -3.5e-4,-0.003 -3.1e-4,-0.006 3.2e-4,-0.009 6.2e-4,-0.003 0.002,-0.006 0.004,-0.008 0.002,-0.002 0.004,-0.004 0.007,-0.006 0.003,-0.001 0.006,-0.002 0.009,-0.002 0.006,-6.2e-4 0.0123,6.1e-4 0.0182,0.002 0.006,0.002 0.0117,0.004 0.0177,0.005 0.006,0.001 0.0123,0.002 0.0183,5e-4 0.007,-0.002 0.0133,-0.007 0.0171,-0.0128 0.004,-0.006 0.005,-0.0137 0.005,-0.021 -5.3e-4,-0.007 -0.003,-0.0144 -0.007,-0.0205 -0.004,-0.006 -0.009,-0.0114 -0.015,-0.0158 -0.0139,-0.0104 -0.0314,-0.0157 -0.0488,-0.0157 -0.0174,0 -0.0346,0.005 -0.0497,0.0138 -0.0301,0.0173 -0.0508,0.0479 -0.0632,0.0803 -0.0124,0.0325 -0.0173,0.0672 -0.0228,0.10154 -0.005,0.0343 -0.0116,0.069 -0.026,0.10062 -0.0146,0.0319 -0.0373,0.0598 -0.064,0.0826 -0.0267,0.0228 -0.0572,0.0408 -0.0891,0.0556 -0.0637,0.0296 -0.13237,0.0466 -0.19772,0.0723 -0.16342,0.0642 -0.3014,0.18029 -0.42235,0.30756 -0.12095,0.12726 -0.22789,0.2673 -0.3494,0.39403 -0.33402,0.34836 -0.76723,0.58548 -1.12255,0.91208 -0.19484,0.17909 -0.3649,0.38387 -0.56128,0.56127 -0.12578,0.11363 -0.26394,0.21675 -0.42095,0.28064 -0.0401,0.0163 -0.0814,0.0301 -0.11921,0.051 -0.0378,0.021 -0.0727,0.0502 -0.0913,0.0893 -0.0115,0.0242 -0.0163,0.0509 -0.0248,0.0762 -0.004,0.0127 -0.01,0.0251 -0.0169,0.0363 -0.007,0.0112 -0.0169,0.0211 -0.0285,0.0278 -0.0106,0.006 -0.0229,0.009 -0.0351,0.009 -0.0122,0 -0.0245,-0.003 -0.0351,-0.009 -0.049,0.0186 -0.0961,0.0421 -0.14032,0.0702 -0.0988,0.0627 -0.18223,0.14721 -0.28064,0.21048 -0.088,0.0566 -0.18623,0.0951 -0.28064,0.14031 -0.17012,0.0815 -0.32848,0.18509 -0.49111,0.28064 -0.16257,0.0955 -0.32972,0.18315 -0.49112,0.28064 -0.18887,0.11409 -0.36958,0.24152 -0.56127,0.3508 -0.18176,0.10363 -0.3725,0.19042 -0.56128,0.28063 -0.18874,0.0902 -0.37579,0.18391 -0.56127,0.28064 -0.13913,0.0726 -0.27752,0.14688 -0.42096,0.21048 -0.25875,0.11473 -0.53523,0.19533 -0.77176,0.3508 -0.11439,0.0752 -0.22053,0.16837 -0.35079,0.21048 -0.11364,0.0367 -0.23775,0.0317 -0.3508,0.0702 -0.11137,0.038 -0.20439,0.11557 -0.29045,0.1958 -0.0861,0.0802 -0.16927,0.16571 -0.27082,0.22515 -0.10885,0.0637 -0.23334,0.0944 -0.3508,0.14032 -0.0975,0.0381 -0.19051,0.087 -0.28064,0.14032 -0.0451,0.0267 -0.0902,0.0548 -0.14032,0.0702 -0.0465,0.0143 -0.0956,0.0172 -0.14377,0.0239 -0.0482,0.007 -0.0973,0.018 -0.13687,0.0463 -0.027,0.0193 -0.0481,0.0456 -0.0692,0.0712 -0.0211,0.0256 -0.043,0.0514 -0.0711,0.0691 -0.0314,0.0198 -0.0685,0.0284 -0.10481,0.0362 -0.0363,0.008 -0.0734,0.0155 -0.10567,0.034 -0.0288,0.0165 -0.0523,0.0409 -0.0739,0.0661 -0.0216,0.0252 -0.0419,0.0517 -0.0664,0.0742 -0.039,0.0358 -0.0882,0.0605 -0.14032,0.0702"
         id="path535"
         inkscape:path-effect="#path-effect537"
         inkscape:original-d="m -524.59049,818.91409 c 0.36714,0.29371 0.35609,0.30149 0.77175,0.56127 0.0443,0.0277 0.0907,0.0536 0.14032,0.0702 0.0222,0.007 0.0468,0 0.0702,0 0.0468,0 0.0935,0 0.14032,0 0.0468,0 0.0949,-0.0113 0.14032,0 0.0507,0.0127 0.0896,0.0575 0.14031,0.0702 0.0454,0.0113 0.0936,0 0.14032,0 0.0468,0 0.0936,0 0.14032,0 0.0468,0 0.0985,0.0209 0.14032,0 0.0592,-0.0296 0.10363,-0.0853 0.14032,-0.14032 0.013,-0.0195 0.0165,-0.0536 0,-0.0702 -0.0165,-0.0165 -0.0468,0 -0.0702,0 -0.0702,0 -0.14032,0 -0.21048,0 -0.73308,0 0.10733,-0.0296 -0.49111,0.0702 -0.0692,0.0115 -0.14392,-0.0222 -0.21048,0 -0.0222,0.007 -0.0165,0.0536 0,0.0702 0.0165,0.0165 0.0514,0.014 0.0702,0 0.15875,-0.11906 0.26432,-0.29912 0.42096,-0.42095 0.61088,-0.47514 0.21486,-0.10524 0.84191,-0.49112 0.34267,-0.21087 0.63956,-0.49072 0.98223,-0.70159 0.13361,-0.0822 0.28283,-0.13611 0.42096,-0.21048 0.16601,-0.0894 0.32247,-0.19632 0.49111,-0.28064 0.1593,-0.0797 0.3343,-0.12604 0.49112,-0.21048 0.26209,-0.14113 0.46365,-0.32116 0.70159,-0.49111 0.0686,-0.049 0.13506,-0.10261 0.21048,-0.14032 0.59625,-0.19875 -0.13073,0.0784 0.3508,-0.21048 0.0634,-0.038 0.14706,-0.0321 0.21048,-0.0702 0.0567,-0.034 0.0836,-0.10629 0.14032,-0.14032 0.0634,-0.038 0.14181,-0.0427 0.21047,-0.0702 0.16537,-0.0661 0.32671,-0.14198 0.49112,-0.21048 0.11625,-0.0484 0.23645,-0.0875 0.3508,-0.14032 1.09512,-0.50544 0.11346,-0.10151 0.91207,-0.42095 0.11693,-0.0468 0.23615,-0.0882 0.3508,-0.14032 0.28563,-0.12984 0.55352,-0.29736 0.84191,-0.42096 0.18366,-0.0787 0.37937,-0.12779 0.56128,-0.21048 0.0768,-0.0349 0.13218,-0.109 0.21047,-0.14032 0.0434,-0.0174 0.0985,0.0209 0.14032,0 0.0105,-0.005 -0.013,-0.19103 0,-0.21047 0.0367,-0.055 0.0936,-0.0935 0.14032,-0.14032 0.0234,-0.0234 0.0554,-0.0406 0.0702,-0.0702 0.0331,-0.0661 0.0291,-0.14895 0.0702,-0.21048 0.49491,-0.74237 0.0357,0.13911 0.28064,-0.3508 0.0234,-0.0468 0.0412,-0.0968 0.0702,-0.14032 0.0109,-0.0163 0.13743,-0.13166 0.14032,-0.14032 0.0148,-0.0444 -0.0113,-0.0949 0,-0.14031 0.0127,-0.0507 0.0536,-0.0907 0.0702,-0.14032 0.0148,-0.0444 -0.0148,-0.096 0,-0.14032 0.0165,-0.0496 0.0468,-0.0935 0.0702,-0.14032 0.0234,-0.0468 0.0468,-0.0935 0.0702,-0.14032 0.0234,-0.0468 0.0412,-0.0968 0.0702,-0.14032 0.0183,-0.0275 0.0554,-0.0406 0.0702,-0.0702 0.0105,-0.0209 -0.0165,-0.0536 0,-0.0702 0.0165,-0.0165 0.0536,0.0165 0.0702,0 0.0165,-0.0165 -0.0165,-0.0536 0,-0.0702 0.0165,-0.0165 0.0536,0.0165 0.0702,0 0.0165,-0.0165 0.0165,-0.0867 0,-0.0702 -0.0827,0.0827 -0.12248,0.20364 -0.21048,0.28064 -0.10263,0.0898 -0.23908,0.13228 -0.3508,0.21048 -0.52035,0.36425 -0.22556,0.22823 -0.77175,0.70159 -0.8902,0.77151 -0.35736,0.1979 -1.12255,0.91208 -0.19343,0.18053 -0.36039,0.38908 -0.56128,0.56127 -0.12804,0.10975 -0.28064,0.18709 -0.42095,0.28064 -0.0702,0.0468 -0.15086,0.0807 -0.21048,0.14032 -0.14516,0.14516 0.22183,-0.006 -0.0702,0.14032 -0.0209,0.0105 -0.0468,0 -0.0702,0 -0.0468,0.0234 -0.0968,0.0412 -0.14032,0.0702 -0.0973,0.0649 -0.18148,0.1485 -0.28064,0.21048 -0.0887,0.0554 -0.18882,0.0902 -0.28064,0.14031 -0.16552,0.0903 -0.32741,0.1871 -0.49111,0.28064 -0.16371,0.0935 -0.32944,0.18363 -0.49112,0.28064 -0.18918,0.11351 -0.36898,0.24263 -0.56127,0.3508 -0.18232,0.10255 -0.37419,0.18709 -0.56128,0.28063 -0.18709,0.0935 -0.37418,0.1871 -0.56127,0.28064 -0.14032,0.0702 -0.27901,0.14368 -0.42096,0.21048 -0.25568,0.12032 -0.51901,0.22442 -0.77176,0.3508 -0.12196,0.061 -0.22418,0.15983 -0.35079,0.21048 -0.11072,0.0443 -0.24183,0.0217 -0.3508,0.0702 -0.0116,0.005 -0.54332,0.41098 -0.56127,0.42095 -0.1101,0.0612 -0.23572,0.0892 -0.3508,0.14032 -0.0956,0.0425 -0.18709,0.0935 -0.28064,0.14032 -0.0468,0.0234 -0.0907,0.0536 -0.14032,0.0702 -0.0915,0.0305 -0.19439,0.027 -0.28064,0.0702 -0.0592,0.0296 -0.0836,0.10628 -0.14031,0.14032 -0.0634,0.038 -0.14434,0.0371 -0.21048,0.0702 -0.0592,0.0296 -0.0853,0.10362 -0.14032,0.14032 -0.0435,0.029 -0.0935,0.0468 -0.14032,0.0702" /><path
         style="fill:none;stroke:#000000;stroke-width:1px;stroke-linecap:butt;stroke-linejoin:miter;stroke-opacity:1"
         d="m -512.31259,811.47719 2.73621,35.92162 -14.45284,10.59408 -14.10204,-11.01503 c 0,0 3.01685,-35.71115 3.15717,-35.22003 0.14032,0.49111 10.94487,9.05056 10.94487,9.05056 z"
         id="path615" /><path
         style="fill:none;stroke:#000000;stroke-width:1px;stroke-linecap:butt;stroke-linejoin:miter;stroke-opacity:1"
         d="m -471.44473,770.50408 -0.98223,24.76628 9.64692,7.19134 9.71708,-7.4369 -2.10478,-24.76627 -8.03326,6.06878 z"
         id="path617"
         sodipodi:nodetypes="ccccccc" /></g></g></svg>
