0
SECTION
2
HEADER
9
$INSUNITS
70
1
9
$ACADVER
1
AC1014
9
$HANDSEED
5
FFFF
0
ENDSEC
0
SECTION
2
TABLES
0
TABLE
2
VPORT
5
8
100
AcDbSymbolTable
0
ENDTAB
0
TABLE
2
LTYPE
5
5
100
AcDbSymbolTable
0
LTYPE
5
14
100
AcDbSymbolTableRecord
100
AcDbLinetypeTableRecord
2
BYBLOCK
70
0
0
LTYPE
5
15
100
AcDbSymbolTableRecord
100
AcDbLinetypeTableRecord
2
BYLAYER
70
0
0
ENDTAB
0
TABLE
2
LAYER
5
2
100
AcDbSymbolTable
70
2
0
LAYER
5
50
100
AcDbSymbolTableRecord
100
AcDbLayerTableRecord
2
0
70
0
6
CONTINUOUS
0
ENDTAB
0
TABLE
2
STYLE
5
3
100
AcDbSymbolTable
70
1
0
STYLE
5
11
100
AcDbSymbolTableRecord
100
AcDbTextStyleTableRecord
2
STANDARD
70
0
0
ENDTAB
0
TABLE
2
VIEW
5
6
100
AcDbSymbolTable
70
0
0
ENDTAB
0
TABLE
2
UCS
5
7
100
AcDbSymbolTable
70
0
0
ENDTAB
0
TABLE
2
APPID
5
9
100
AcDbSymbolTable
70
2
0
APPID
5
12
100
AcDbSymbolTableRecord
100
AcDbRegAppTableRecord
2
ACAD
70
0
0
ENDTAB
0
TABLE
2
DIMSTYLE
5
A
100
AcDbSymbolTable
70
1
0
ENDTAB
0
TABLE
2
BLOCK_RECORD
5
1
100
AcDbSymbolTable
70
1
0
BLOCK_RECORD
5
1F
100
AcDbSymbolTableRecord
100
AcDbBlockTableRecord
2
*MODEL_SPACE
0
BLOCK_RECORD
5
1B
100
AcDbSymbolTableRecord
100
AcDbBlockTableRecord
2
*PAPER_SPACE
0
ENDTAB
0
ENDSEC
0
SECTION
2
BLOCKS
0
BLOCK
5
20
100
AcDbEntity
100
AcDbBlockBegin
2
*MODEL_SPACE
0
ENDBLK
5
21
100
AcDbEntity
100
AcDbBlockEnd
0
BLOCK
5
1C
100
AcDbEntity
100
AcDbBlockBegin
2
*PAPER_SPACE
0
ENDBLK
5
1D
100
AcDbEntity
100
AcDbBlockEnd
0
ENDSEC
0
SECTION
2
ENTITIES
0
LINE
5
100
100
AcDbEntity
8
0
100
AcDbLine
10
-0.24103308680501018
20
142.91671540345664
30
0
11
-0.24103308680501018
21
0
31
0
0
LINE
5
101
100
AcDbEntity
8
0
100
AcDbLine
10
21.303815066696032
20
32.228485522183256
30
0
11
23.34830642058893
21
32.228485522183263
31
0
0
SPLINE
5
102
100
AcDbEntity
8
0
100
AcDbSpline
70
4
71
5
72
21
73
15
74
0
42
0.000000001
43
0.0000000001
44
0.0000000001
40
0
40
0
40
0
40
0
40
0
40
0
40
0.10000000000000001
40
0.20000000000000001
40
0.30000000000000004
40
0.40000000000000002
40
0.5
40
0.59999999999999998
40
0.69999999999999996
40
0.79999999999999993
40
0.89999999999999991
40
1
40
1
40
1
40
1
40
1
40
1
41
1
41
1
41
1
41
1
41
1
41
1
41
1
41
1
41
1
41
1
41
1
41
1
41
1
41
1
41
1
10
-22.41526090756626
20
66.380649525266264
30
0
10
-22.410176131832788
20
68.704198788270944
30
0
10
-22.375639244243562
20
73.178095636129896
30
0
10
-22.250747649994864
20
79.36904623380164
30
0
10
-21.951454391872186
20
86.598350629348417
30
0
10
-21.424134321106017
20
94.032116700483755
30
0
10
-20.815719584378051
20
100.1382806901221
30
0
10
-20.178520141771628
20
105.34253446869894
30
0
10
-19.511097943114549
20
110.55393725361151
30
0
10
-18.748456568612774
20
116.68380761045876
30
0
10
-17.806843628444835
20
124.02215553090358
30
0
10
-16.836655588819625
20
130.94837252316319
30
0
10
-15.952889126513247
20
136.71463598760968
30
0
10
-15.289510351724454
20
140.80788429112289
30
0
10
-14.939271367685327
20
142.91671540345666
30
0
0
SPLINE
5
103
100
AcDbEntity
8
0
100
AcDbSpline
70
4
71
5
72
16
73
10
74
0
42
0.000000001
43
0.0000000001
44
0.0000000001
40
0
40
0
40
0
40
0
40
0
40
0
40
0.20000000000000001
40
0.40000000000000002
40
0.60000000000000009
40
0.80000000000000004
40
1
40
1
40
1
40
1
40
1
40
1
41
1
41
1
41
1
41
1
41
1
41
1
41
1
41
1
41
1
41
1
10
-16.813401385058896
20
-34.499468908562577
30
0
10
-16.469587976022936
20
-34.636538198031836
30
0
10
-15.670849733912307
20
-34.878323378623868
30
0
10
-14.139725077149601
20
-35.144030966849293
30
0
10
-11.538882618389852
20
-35.333456492492751
30
0
10
-7.7721172650109187
20
-35.403876889245865
30
0
10
-4.659786814412457
20
-35.402875136837785
30
0
10
-2.4037009625326391
20
-35.398679248770719
30
0
10
-0.95301483984517188
20
-35.397743852710882
30
0
10
-0.24103308680501018
20
-35.397743852710882
30
0
0
LINE
5
104
100
AcDbEntity
8
0
100
AcDbLine
10
-14.939271367685327
20
142.91671540345666
30
0
11
-0.24103308680501018
21
142.91671540345664
31
0
0
SPLINE
5
105
100
AcDbEntity
8
0
100
AcDbSpline
70
4
71
5
72
16
73
10
74
0
42
0.000000001
43
0.0000000001
44
0.0000000001
40
0
40
0
40
0
40
0
40
0
40
0
40
0.20000000000000001
40
0.40000000000000002
40
0.60000000000000009
40
0.80000000000000004
40
1
40
1
40
1
40
1
40
1
40
1
41
1
41
1
41
1
41
1
41
1
41
1
41
1
41
1
41
1
41
1
10
16.331335211448874
20
-34.499468908562577
30
0
10
15.98752180241291
20
-34.636538198031836
30
0
10
15.188783560302259
20
-34.878323378623868
30
0
10
13.657658903539428
20
-35.144030966849293
30
0
10
11.056816444779644
20
-35.333456492492751
30
0
10
7.2900510914007723
20
-35.403876889245865
30
0
10
4.1777206408024083
20
-35.402875136837785
30
0
10
1.9216347889226137
20
-35.398679248770719
30
0
10
0.47094866623515153
20
-35.397743852710882
30
0
10
-0.24103308680501018
20
-35.397743852710882
30
0
0
LINE
5
106
100
AcDbEntity
8
0
100
AcDbLine
10
-23.830372594198952
20
32.22848552218327
30
0
11
-23.830372594196117
21
66.380649525266278
31
0
0
LINE
5
107
100
AcDbEntity
8
0
100
AcDbLine
10
-23.830372594196117
20
66.380649525266278
30
0
11
-22.41526090756626
21
66.380649525266264
31
0
0
LINE
5
108
100
AcDbEntity
8
0
100
AcDbLine
10
23.34830642058893
20
32.228485522183263
30
0
11
23.348306420586095
21
66.380649525266278
31
0
0
LINE
5
109
100
AcDbEntity
8
0
100
AcDbLine
10
23.348306420586095
20
66.380649525266278
30
0
11
21.933194733956235
21
66.380649525266264
31
0
0
SPLINE
5
110
100
AcDbEntity
8
0
100
AcDbSpline
70
4
71
5
72
16
73
10
74
0
42
0.000000001
43
0.0000000001
44
0.0000000001
40
0
40
0
40
0
40
0
40
0
40
0
40
0.20000000000000001
40
0.40000000000000002
40
0.60000000000000009
40
0.80000000000000004
40
1
40
1
40
1
40
1
40
1
40
1
41
1
41
1
41
1
41
1
41
1
41
1
41
1
41
1
41
1
41
1
10
-16.813401385058896
20
-34.499468908562577
30
0
10
-17.244777288149269
20
-31.888115967348131
30
0
10
-18.051263479383319
20
-26.566863159996718
30
0
10
-19.092336744516054
20
-18.289686866278643
30
0
10
-20.180112411691919
20
-6.811611045167199
30
0
10
-21.139126390750786
20
7.5500277068886366
30
0
10
-21.610378860420504
20
18.345973074625505
30
0
10
-21.777618523957237
20
25.656326849350169
30
0
10
-21.798277875941675
20
30.108129131076318
30
0
10
-21.785881240306058
20
32.228485522183263
30
0
0
LINE
5
111
100
AcDbEntity
8
0
100
AcDbLine
10
-21.785881240306058
20
32.228485522183263
30
0
11
-23.830372594198952
21
32.22848552218327
31
0
0
LINE
5
112
100
AcDbEntity
8
0
100
AcDbLine
10
14.457205194075303
20
142.91671540345669
30
0
11
-0.24103308680501018
21
142.91671540345664
31
0
0
SPLINE
5
113
100
AcDbEntity
8
0
100
AcDbSpline
70
4
71
5
72
21
73
15
74
0
42
0.000000001
43
0.0000000001
44
0.0000000001
40
0
40
0
40
0
40
0
40
0
40
0
40
0.10000000000000001
40
0.20000000000000001
40
0.30000000000000004
40
0.40000000000000002
40
0.5
40
0.59999999999999998
40
0.69999999999999996
40
0.79999999999999993
40
0.89999999999999991
40
1
40
1
40
1
40
1
40
1
40
1
41
1
41
1
41
1
41
1
41
1
41
1
41
1
41
1
41
1
41
1
41
1
41
1
41
1
41
1
41
1
10
21.933194733956235
20
66.380649525266264
30
0
10
21.928109958222759
20
68.704198788270944
30
0
10
21.893573070633504
20
73.178095636129896
30
0
10
21.768681476384582
20
79.36904623380164
30
0
10
21.469388218261848
20
86.59835062934836
30
0
10
20.94206814749575
20
94.032116700483712
30
0
10
20.333653410767997
20
100.13828069012209
30
0
10
19.696453968161638
20
105.34253446869899
30
0
10
19.029031769504495
20
110.55393725361151
30
0
10
18.266390395002691
20
116.68380761045864
30
0
10
17.324777454834759
20
124.02215553090346
30
0
10
16.354589415209571
20
130.9483725231631
30
0
10
15.470822952903218
20
136.71463598760971
30
0
10
14.80744417811443
20
140.80788429112289
30
0
10
14.457205194075303
20
142.91671540345669
30
0
0
SPLINE
5
114
100
AcDbEntity
8
0
100
AcDbSpline
70
4
71
5
72
16
73
10
74
0
42
0.000000001
43
0.0000000001
44
0.0000000001
40
0
40
0
40
0
40
0
40
0
40
0
40
0.20000000000000001
40
0.40000000000000002
40
0.60000000000000009
40
0.80000000000000004
40
1
40
1
40
1
40
1
40
1
40
1
41
1
41
1
41
1
41
1
41
1
41
1
41
1
41
1
41
1
41
1
10
16.331335211448863
20
-34.499468908562562
30
0
10
16.416212940448659
20
-34.001915489528713
30
0
10
16.583114575558394
20
-33.002297928234732
30
0
10
16.82491244031819
20
-31.489350765042929
30
0
10
17.131850002433378
20
-29.44806260119503
30
0
10
17.493342109338336
20
-26.864745667673159
30
0
10
17.764254985774269
20
-24.775100598049253
30
0
10
17.954993002403786
20
-23.193614425608164
30
0
10
18.075977200835215
20
-22.132360652448341
30
0
10
18.134924411266866
20
-21.599999999999987
30
0
0
SPLINE
5
115
100
AcDbEntity
8
0
100
AcDbSpline
70
4
71
5
72
16
73
10
74
0
42
0.000000001
43
0.0000000001
44
0.0000000001
40
0
40
0
40
0
40
0
40
0
40
0
40
0.20000000000000001
40
0.40000000000000002
40
0.60000000000000009
40
0.80000000000000004
40
1
40
1
40
1
40
1
40
1
40
1
41
1
41
1
41
1
41
1
41
1
41
1
41
1
41
1
41
1
41
1
10
18.134924411266866
20
-21.599999999999987
30
0
10
18.260948369031752
20
-20.409572616151596
30
0
10
18.508172655482799
20
-18.021563188042009
30
0
10
18.864548679911909
20
-14.418108523297402
30
0
10
19.312590707057588
20
-9.5801284060281233
30
0
10
19.827017300771217
20
-3.5210460683365876
30
0
10
20.193324274223055
20
1.2945336038178024
30
0
10
20.433852530660946
20
4.8662388360814903
30
0
10
20.57689647295004
20
7.2256964253408782
30
0
10
20.644087652926068
20
8.4000000000000004
30
0
0
SPLINE
5
116
100
AcDbEntity
8
0
100
AcDbSpline
70
4
71
5
72
16
73
10
74
0
42
0.000000001
43
0.0000000001
44
0.0000000001
40
0
40
0
40
0
40
0
40
0
40
0
40
0.20000000000000001
40
0.40000000000000002
40
0.60000000000000009
40
0.80000000000000004
40
1
40
1
40
1
40
1
40
1
40
1
41
1
41
1
41
1
41
1
41
1
41
1
41
1
41
1
41
1
41
1
10
20.644087652926068
20
8.4000000000000004
30
0
10
20.704510026587339
20
9.4560048120191347
30
0
10
20.817152787625719
20
11.549696361022095
30
0
10
20.961531458342296
20
14.635317757511872
30
0
10
21.11022280970553
20
18.645158897868441
30
0
10
21.237390584126416
20
23.473505170432261
30
0
10
21.295480879113157
20
27.145572618017674
30
0
10
21.31144548897657
20
29.752448034352035
30
0
10
21.308607207204119
20
31.415609743689991
30
0
10
21.303815066696032
20
32.228485522183256
30
0
0
ENDSEC
0
SECTION
2
OBJECTS
0
DICTIONARY
5
C
100
AcDbDictionary
3
ACAD_GROUP
350
D
3
ACAD_MLINESTYLE
350
17
0
DICTIONARY
5
D
100
AcDbDictionary
0
DICTIONARY
5
1A
330
C
100
AcDbDictionary
0
DICTIONARY
5
17
100
AcDbDictionary
0
ENDSEC
0
EOF
