0
SECTION
2
HEADER
9
$INSUNITS
70
4
9
$ACADVER
1
AC1014
9
$HANDSEED
5
FFFF
0
ENDSEC
0
SECTION
2
TABLES
0
TABLE
2
VPORT
5
8
100
AcDbSymbolTable
0
ENDTAB
0
TABLE
2
LTYPE
5
5
100
AcDbSymbolTable
0
LTYPE
5
14
100
AcDbSymbolTableRecord
100
AcDbLinetypeTableRecord
2
BYBLOCK
70
0
0
LTYPE
5
15
100
AcDbSymbolTableRecord
100
AcDbLinetypeTableRecord
2
BYLAYER
70
0
0
ENDTAB
0
TABLE
2
LAYER
5
2
100
AcDbSymbolTable
70
2
0
LAYER
5
50
100
AcDbSymbolTableRecord
100
AcDbLayerTableRecord
2
0
70
0
6
CONTINUOUS
0
ENDTAB
0
TABLE
2
STYLE
5
3
100
AcDbSymbolTable
70
1
0
STYLE
5
11
100
AcDbSymbolTableRecord
100
AcDbTextStyleTableRecord
2
STANDARD
70
0
0
ENDTAB
0
TABLE
2
VIEW
5
6
100
AcDbSymbolTable
70
0
0
ENDTAB
0
TABLE
2
UCS
5
7
100
AcDbSymbolTable
70
0
0
ENDTAB
0
TABLE
2
APPID
5
9
100
AcDbSymbolTable
70
2
0
APPID
5
12
100
AcDbSymbolTableRecord
100
AcDbRegAppTableRecord
2
ACAD
70
0
0
ENDTAB
0
TABLE
2
DIMSTYLE
5
A
100
AcDbSymbolTable
70
1
0
ENDTAB
0
TABLE
2
BLOCK_RECORD
5
1
100
AcDbSymbolTable
70
1
0
BLOCK_RECORD
5
1F
100
AcDbSymbolTableRecord
100
AcDbBlockTableRecord
2
*MODEL_SPACE
0
BLOCK_RECORD
5
1B
100
AcDbSymbolTableRecord
100
AcDbBlockTableRecord
2
*PAPER_SPACE
0
ENDTAB
0
ENDSEC
0
SECTION
2
BLOCKS
0
BLOCK
5
20
100
AcDbEntity
100
AcDbBlockBegin
2
*MODEL_SPACE
0
ENDBLK
5
21
100
AcDbEntity
100
AcDbBlockEnd
0
BLOCK
5
1C
100
AcDbEntity
100
AcDbBlockBegin
2
*PAPER_SPACE
0
ENDBLK
5
1D
100
AcDbEntity
100
AcDbBlockEnd
0
ENDSEC
0
SECTION
2
ENTITIES
0
ARC
5
100
100
AcDbEntity
8
0
100
AcDbCircle
10
-128.9300012169418
20
93.749996474377554
30
-1.4505628634612364e-45
40
1.5000000000000391
210
5.9111104642804811e-32
220
2.4651903288142425e-32
230
1
100
AcDbArc
50
90.00000000007708
51
180
0
LINE
5
101
100
AcDbEntity
8
0
100
AcDbLine
10
-130.43000121694183
20
93.749996474377923
30
8.8666656964198874e-32
11
-130.43000121696278
21
1.4999964744585803
31
0
0
ARC
5
102
100
AcDbEntity
8
0
100
AcDbCircle
10
-128.93000121696278
20
1.4999964744582339
30
4.7895943604852146e-47
40
1.4999999999999858
210
5.6608443822497181e-45
220
2.4651903288156611e-32
230
1
100
AcDbArc
50
180
51
270
0
LINE
5
103
100
AcDbEntity
8
0
100
AcDbLine
10
-128.93000121696278
20
-3.525541769633378e-06
30
3.6977854932235049e-32
11
-107.8843333016911
21
-3.5255417645606374e-06
31
-3.4371104273736411e-32
0
SPLINE
5
104
100
AcDbEntity
8
0
100
AcDbSpline
70
0
71
3
72
18
73
14
74
0
42
0.000000001
43
0.0000000001
44
0.0000000001
40
0
40
0
40
0
40
0
40
0.91763919937647032
40
0.91763919937647032
40
1.9267464669746621
40
1.9267464669746621
40
3.392472474898927
40
3.392472474898927
40
4.0930173143905328
40
4.0930173143905328
40
4.419464771683824
40
4.419464771683824
40
4.7279089759304593
40
4.7279089759304593
40
4.7279089759304593
40
4.7279089759304593
10
-69.94240575138096
20
-20.000003525541747
30
0
10
-73.001203082635868
20
-20.000003525541747
30
0
10
-75.862889249237
20
-19.415558719583437
30
0
10
-81.799397643069582
20
-16.967520428213202
30
0
10
-84.620256078847419
20
-15.080627809974679
30
0
10
-91.090927204216442
20
-10.016879565125993
30
0
10
-94.592540976143454
20
-6.6001869881181356
30
0
10
-99.719646052668196
20
-2.7487863960839309
30
0
10
-101.38076289365972
20
-1.6812850320601533
30
0
10
-103.84634114172071
20
-0.62681862190968507
30
0
10
-104.65803778143177
20
-0.35742671613963467
30
0
10
-106.28407199045698
20
-0.02794741448390195
30
0
10
-107.07904267046389
20
0.039563701518982482
30
0
10
-107.8843333016911
20
-3.5255417645606374e-06
30
0
0
LINE
5
105
100
AcDbEntity
8
0
100
AcDbLine
10
-69.94240575138096
20
-20.000003525541747
30
0
11
69.942413076192651
21
-20.000003525541782
31
-1.4163521758212885e-38
0
SPLINE
5
106
100
AcDbEntity
8
0
100
AcDbSpline
70
0
71
3
72
18
73
14
74
0
42
0.000000001
43
0.0000000001
44
0.0000000001
40
0
40
0
40
0
40
0
40
0.37089867703505253
40
0.37089867703505253
40
0.87137629439801101
40
0.87137629439801101
40
1.9596972506872004
40
1.9596972506872004
40
2.7763354646412233
40
2.7763354646412233
40
3.1837294307305144
40
3.1837294307305144
40
3.602470422665085
40
3.602470422665085
40
3.602470422665085
40
3.602470422665085
10
107.88433490868553
20
-3.5255417777726573e-06
30
0
10
106.64949557217983
20
0.060667884344981916
30
0
10
105.44983216693971
20
-0.13130965455667756
30
0
10
102.68736472653964
20
-1.0161479125391879
30
0
10
101.12442717705804
20
-1.8658837974037021
30
0
10
96.163247131966244
20
-5.2178890325436766
30
0
10
92.725012099586792
20
-8.5214008437350852
30
0
10
86.247384341068766
20
-13.89365055009862
30
0
10
83.360970683363774
20
-16.033045577763964
30
0
10
78.611472422851037
20
-18.343438901348883
30
0
10
76.981363663952209
20
-18.953396614622907
30
0
10
73.516232889651405
20
-19.796003738901124
30
0
10
71.74976154609999
20
-20.000003525541782
30
0
10
69.942413076192651
20
-20.000003525541782
30
0
0
LINE
5
107
100
AcDbEntity
8
0
100
AcDbLine
10
107.88433490868553
20
-3.5255417777726573e-06
30
0
11
498.50000852969958
21
-3.5255417692512429e-06
31
-3.4793991312094744e-32
0
ARC
5
108
100
AcDbEntity
8
0
100
AcDbCircle
10
498.50000852969947
20
1.4999964744582359
30
7.6975623650655235e-47
40
1.5000000000000053
210
6.3001341411584688e-33
220
-2.3195994208062836e-32
230
1
100
AcDbArc
50
-89.99999999999568
51
0
0
LINE
5
109
100
AcDbEntity
8
0
100
AcDbLine
10
500.00000852969947
20
1.4999964865331705
30
-9.4502015094043872e-33
11
500.00000778709114
21
93.749996487295135
31
0
0
ARC
5
110
100
AcDbEntity
8
0
100
AcDbCircle
10
498.50000778709114
20
93.749996475220257
30
-1.0058148157018951e-45
40
1.4999999999999858
210
-1.984464283801125e-40
220
2.4651903288156739e-32
230
1
100
AcDbArc
50
0
51
90.000000000073825
0
LINE
5
111
100
AcDbEntity
8
0
100
AcDbLine
10
498.5000077870892
20
95.249996475220243
30
-3.6977854932235777e-32
11
-128.93000121694382
21
95.249996474377596
31
-3.6977854932097399e-32
0
CIRCLE
5
112
100
AcDbEntity
8
0
100
AcDbCircle
10
270.72956208170814
20
71.119996474503765
30
0
40
3.9999999999999858
210
-1.0552532560242649e-55
220
-9.0929006821265007e-95
230
1
0
CIRCLE
5
113
100
AcDbEntity
8
0
100
AcDbCircle
10
-121.87020121696315
20
85.229696474387069
30
0
40
2.1590000000000131
210
-1.0552532560242649e-55
220
-9.0929006821265007e-95
230
1
0
CIRCLE
5
114
100
AcDbEntity
8
0
100
AcDbCircle
10
154.89128441160204
20
19.842404016366821
30
0
40
1.9050000000000011
210
-1.0552532560242647e-55
220
-2.4651903288156619e-32
230
1
0
LWPOLYLINE
5
115
100
AcDbEntity
8
0
100
AcDbPolyline
90
12
70
1
43
0.0
10
184.07128441160194
20
65.617404016366578
10
190.57128441160188
20
65.617404016366578
10
190.57128441160188
20
28.617404016366734
10
184.07128441160197
20
28.617404016366734
10
184.07128441160197
20
24.242404016366788
10
176.42128441160196
20
24.242404016366788
10
176.42128441160196
20
28.056637133023159
10
156.43213479570454
20
28.056637133023152
10
156.43213479570454
20
65.056637133022988
10
171.82128441160191
20
65.056637133022974
10
171.82128441160194
20
69.99240401636655
10
184.07128441160194
20
69.99240401636655
0
CIRCLE
5
116
100
AcDbEntity
8
0
100
AcDbCircle
10
47.493725458942997
20
11.441427369692436
30
0
40
1.2699999999999978
210
-1.0552532560242649e-55
220
-9.0929006821265007e-95
230
1
0
CIRCLE
5
117
100
AcDbEntity
8
0
100
AcDbCircle
10
230.00000616943794
20
85.229696474387069
30
0
40
2.1590000000000131
210
-1.0552532560242649e-55
220
-9.0929006821265007e-95
230
1
0
CIRCLE
5
118
100
AcDbEntity
8
0
100
AcDbCircle
10
-58.040000041592599
20
11.749996474458253
30
0
40
5
210
-1.0552532560242649e-55
220
-9.0929006821265007e-95
230
1
0
CIRCLE
5
119
100
AcDbEntity
8
0
100
AcDbCircle
10
154.8912844116023
20
70.642404016366612
30
0
40
1.9050000000000011
210
-1.0552532560242647e-55
220
-2.4651903288156619e-32
230
1
0
CIRCLE
5
120
100
AcDbEntity
8
0
100
AcDbCircle
10
-121.87020121699825
20
8.013696474387066
30
0
40
2.1590000000000131
210
-1.0552532560242649e-55
220
-9.0929006821265007e-95
230
1
0
CIRCLE
5
121
100
AcDbEntity
8
0
100
AcDbCircle
10
-58.04000121696312
20
56.199996474458217
30
0
40
5
210
-1.0552532560242649e-55
220
-9.0929006821265007e-95
230
1
0
LWPOLYLINE
5
122
100
AcDbEntity
8
0
100
AcDbPolyline
90
8
70
1
43
0.0
10
455.55000616941476
20
12.699996474458231
42
0.41421356237309498
10
461.90000616942859
20
19.04999647447206
10
461.90000616942859
20
82.549996474458396
42
0.41421356237309503
10
455.5500061694288
20
88.89999647445822
10
303.15000625319499
20
88.89999647445822
42
0.41421356623681971
10
296.80000625319508
20
82.549996390691774
10
296.8000070908605
20
19.049996390773675
42
0.41421355850936886
10
303.15000709094244
20
12.699996474458237
0
CIRCLE
5
123
100
AcDbEntity
8
0
100
AcDbCircle
10
191.72128441160186
20
19.842404016366832
30
0
40
1.9050000000000011
210
-1.0552532560242647e-55
220
-2.4651903288156619e-32
230
1
0
CIRCLE
5
124
100
AcDbEntity
8
0
100
AcDbCircle
10
491.57983129552412
20
8.013696474387066
30
0
40
2.1589999999999772
210
-1.4693679385278597e-39
220
-1.2661241890759504e-78
230
1
0
CIRCLE
5
125
100
AcDbEntity
8
0
100
AcDbCircle
10
491.99900917050695
20
85.217005802065103
30
0
40
2.1589999999999772
210
-1.4693679385278597e-39
220
-1.2661241890759504e-78
230
1
0
CIRCLE
5
126
100
AcDbEntity
8
0
100
AcDbCircle
10
270.7295620817082
20
34.543996474458226
30
0
40
3.9999999999999858
210
-1.0552532560242649e-55
220
-9.0929006821265007e-95
230
1
0
CIRCLE
5
127
100
AcDbEntity
8
0
100
AcDbCircle
10
11.085365458942782
20
11.441427369692436
30
0
40
1.27
210
-1.0552532560242649e-55
220
-9.0929006821265007e-95
230
1
0
CIRCLE
5
128
100
AcDbEntity
8
0
100
AcDbCircle
10
57.289022922262198
20
56.924313774703705
30
0
40
9.5249999999999968
210
-1.0552532560242649e-55
220
-9.0929006821265007e-95
230
1
0
CIRCLE
5
129
100
AcDbEntity
8
0
100
AcDbCircle
10
-0.13143627773256839
20
56.924313774703705
30
0
40
6.9850000000000012
210
-1.055253256024265e-55
220
-9.0929006821265034e-95
230
1
0
CIRCLE
5
130
100
AcDbEntity
8
0
100
AcDbCircle
10
191.72128441160186
20
70.642404016366555
30
0
40
1.9050000000000011
210
-1.0552532560242647e-55
220
-2.4651903288156619e-32
230
1
0
CIRCLE
5
131
100
AcDbEntity
8
0
100
AcDbCircle
10
230.00000616943794
20
8.013696474387066
30
0
40
2.1590000000000131
210
-1.0552532560242649e-55
220
-9.0929006821265007e-95
230
1
0
CIRCLE
5
132
100
AcDbEntity
8
0
100
AcDbCircle
10
29.289545458940616
20
11.441427369692436
30
0
40
3.9999999999999991
210
1.4693679385278592e-39
220
1.2661241890759499e-78
230
1
0
CIRCLE
5
133
100
AcDbEntity
8
0
100
AcDbCircle
10
379.35000625319498
20
63.499996474458328
30
0
40
3.4925000000000006
210
0
220
-0
230
1
0
LWPOLYLINE
5
134
100
AcDbEntity
8
0
100
AcDbPolyline
90
12
70
1
43
0.0
10
461.90000625319499
20
82.549996474458311
10
461.90000625319493
20
19.049996474458322
42
-0.41421356237309503
10
455.55000625319497
20
12.699996474458324
10
444.43750625319512
20
12.699996474458324
10
444.43750625319518
20
16.509996474458326
10
314.26250625319517
20
16.509996474458326
10
314.26250625319517
20
12.699996474458324
10
303.15000625319493
20
12.699996474458306
42
-0.41421356237309342
10
296.80000625319497
20
19.049996474458322
10
296.80000625319497
20
82.549996474458311
42
-0.41421356237309503
10
303.15000625319493
20
88.89999647445832
10
455.55000625319497
20
88.899996474458362
42
-0.41421356237309503
0
ENDSEC
0
SECTION
2
OBJECTS
0
DICTIONARY
5
C
100
AcDbDictionary
3
ACAD_GROUP
350
D
3
ACAD_MLINESTYLE
350
17
0
DICTIONARY
5
D
100
AcDbDictionary
0
DICTIONARY
5
1A
330
C
100
AcDbDictionary
0
DICTIONARY
5
17
100
AcDbDictionary
0
ENDSEC
0
EOF
