0
SECTION
2
HEADER
9
$INSUNITS
70
4
9
$ACADVER
1
AC1014
9
$HANDSEED
5
FFFF
0
ENDSEC
0
SECTION
2
TABLES
0
TABLE
2
VPORT
5
8
100
AcDbSymbolTable
0
ENDTAB
0
TABLE
2
LTYPE
5
5
100
AcDbSymbolTable
0
LTYPE
5
14
100
AcDbSymbolTableRecord
100
AcDbLinetypeTableRecord
2
BYBLOCK
70
0
0
LTYPE
5
15
100
AcDbSymbolTableRecord
100
AcDbLinetypeTableRecord
2
BYLAYER
70
0
0
ENDTAB
0
TABLE
2
LAYER
5
2
100
AcDbSymbolTable
70
2
0
LAYER
5
50
100
AcDbSymbolTableRecord
100
AcDbLayerTableRecord
2
0
70
0
6
CONTINUOUS
0
ENDTAB
0
TABLE
2
STYLE
5
3
100
AcDbSymbolTable
70
1
0
STYLE
5
11
100
AcDbSymbolTableRecord
100
AcDbTextStyleTableRecord
2
STANDARD
70
0
0
ENDTAB
0
TABLE
2
VIEW
5
6
100
AcDbSymbolTable
70
0
0
ENDTAB
0
TABLE
2
UCS
5
7
100
AcDbSymbolTable
70
0
0
ENDTAB
0
TABLE
2
APPID
5
9
100
AcDbSymbolTable
70
2
0
APPID
5
12
100
AcDbSymbolTableRecord
100
AcDbRegAppTableRecord
2
ACAD
70
0
0
ENDTAB
0
TABLE
2
DIMSTYLE
5
A
100
AcDbSymbolTable
70
1
0
ENDTAB
0
TABLE
2
BLOCK_RECORD
5
1
100
AcDbSymbolTable
70
1
0
BLOCK_RECORD
5
1F
100
AcDbSymbolTableRecord
100
AcDbBlockTableRecord
2
*MODEL_SPACE
0
BLOCK_RECORD
5
1B
100
AcDbSymbolTableRecord
100
AcDbBlockTableRecord
2
*PAPER_SPACE
0
ENDTAB
0
ENDSEC
0
SECTION
2
BLOCKS
0
BLOCK
5
20
100
AcDbEntity
100
AcDbBlockBegin
2
*MODEL_SPACE
0
ENDBLK
5
21
100
AcDbEntity
100
AcDbBlockEnd
0
BLOCK
5
1C
100
AcDbEntity
100
AcDbBlockBegin
2
*PAPER_SPACE
0
ENDBLK
5
1D
100
AcDbEntity
100
AcDbBlockEnd
0
ENDSEC
0
SECTION
2
ENTITIES
0
LINE
5
100
100
AcDbEntity
8
0
100
AcDbLine
10
199.582755414302
20
-205.56391405126803
30
0
11
193.233538654021
21
-205.56391405126803
31
0
0
LINE
5
101
100
AcDbEntity
8
0
100
AcDbLine
10
193.233538654021
20
-205.56391405126803
30
0
11
193.233538654021
21
-212.58000015521702
31
0
0
LINE
5
102
100
AcDbEntity
8
0
100
AcDbLine
10
193.233538654021
20
-212.58000015521702
30
0
11
106.48645899617901
21
-212.58000015521702
31
0
0
LINE
5
103
100
AcDbEntity
8
0
100
AcDbLine
10
106.48645899617901
20
-212.58000015521702
30
0
11
106.48645899617901
21
-205.56391405126803
31
0
0
LINE
5
104
100
AcDbEntity
8
0
100
AcDbLine
10
106.48645899617901
20
-205.56391405126803
30
0
11
100.13724223589801
21
-205.56391405126803
31
0
0
LINE
5
105
100
AcDbEntity
8
0
100
AcDbLine
10
100.13724223589801
20
-205.56391405126803
30
0
11
100.13724223589801
21
-212.58000015521702
31
0
0
LINE
5
106
100
AcDbEntity
8
0
100
AcDbLine
10
100.13724223589801
20
-212.58000015521702
30
0
11
8.018999031929912
21
-212.58000015521702
31
0
0
LINE
5
107
100
AcDbEntity
8
0
100
AcDbLine
10
8.018999031929912
20
-212.58000015521702
30
0
11
8.0189990319299191
21
-209.39579179324704
31
0
0
ARC
5
108
100
AcDbEntity
8
0
100
AcDbCircle
10
5.1439990319299103
20
-209.39579179324704
30
0
40
2.8750000000000098
210
0
220
0
230
1
100
AcDbArc
50
0
51
90
0
LINE
5
109
100
AcDbEntity
8
0
100
AcDbLine
10
5.1439990319299103
20
-206.52079179324701
30
0
11
2.0000000000000506
21
-206.52079179324701
31
0
0
LINE
5
110
100
AcDbEntity
8
0
100
AcDbLine
10
2.0000000000000506
20
-206.52079179324701
30
0
11
2.00000000000002
21
-131.89648775339202
31
0
0
LINE
5
111
100
AcDbEntity
8
0
100
AcDbLine
10
2.00000000000002
20
-131.89648775339202
30
0
11
3.6321657634575999
21
-131.89648775339202
31
0
0
ARC
5
112
100
AcDbEntity
8
0
100
AcDbCircle
10
3.6321657634575999
20
-128.93089302441803
30
0
40
2.965594728973997
210
0
220
0
230
1
100
AcDbArc
50
-90
51
90
0
LINE
5
113
100
AcDbEntity
8
0
100
AcDbLine
10
3.6321657634575999
20
-125.96529829544397
30
0
11
2.0000000000000302
21
-125.96529829544401
31
0
0
LINE
5
114
100
AcDbEntity
8
0
100
AcDbLine
10
2.0000000000000302
20
-125.96529829544401
30
0
11
1.9999999999999902
21
-27.059208517185898
31
0
0
LINE
5
115
100
AcDbEntity
8
0
100
AcDbLine
10
1.9999999999999902
20
-27.059208517185898
30
0
11
5.1439990319299103
21
-27.059208517185901
31
0
0
ARC
5
116
100
AcDbEntity
8
0
100
AcDbCircle
10
5.1439990319299103
20
-24.184208517185901
30
0
40
2.8750000000000009
210
-0
220
0
230
1
100
AcDbArc
50
-90
51
0
0
LINE
5
117
100
AcDbEntity
8
0
100
AcDbLine
10
8.0189990319299209
20
-24.184208517185901
30
0
11
8.0189990319299191
21
-21.000000155216899
31
0
0
LINE
5
118
100
AcDbEntity
8
0
100
AcDbLine
10
8.0189990319299191
20
-21.000000155216899
30
0
11
291.70099861826998
21
-21.000000155216703
31
0
0
LINE
5
119
100
AcDbEntity
8
0
100
AcDbLine
10
291.70099861826998
20
-21.000000155216703
30
0
11
291.70099861826998
21
-24.184208517185901
31
0
0
ARC
5
120
100
AcDbEntity
8
0
100
AcDbCircle
10
294.57599861826998
20
-24.184208517185901
30
0
40
2.8750000000000142
210
0
220
0
230
1
100
AcDbArc
50
180
51
270
0
LINE
5
121
100
AcDbEntity
8
0
100
AcDbLine
10
294.57599861826998
20
-27.059208517185933
30
0
11
297.71999765020001
21
-27.059208517185901
31
0
0
LINE
5
122
100
AcDbEntity
8
0
100
AcDbLine
10
297.71999765020001
20
-27.059208517185901
30
0
11
297.71999765020001
21
-125.96529829544401
31
0
0
LINE
5
123
100
AcDbEntity
8
0
100
AcDbLine
10
297.71999765020001
20
-125.96529829544401
30
0
11
296.08783188674198
21
-125.96529829544401
31
0
0
ARC
5
124
100
AcDbEntity
8
0
100
AcDbCircle
10
296.08783188674198
20
-128.93089302441803
30
0
40
2.965594728973997
210
0
220
-0
230
1
100
AcDbArc
50
90
51
270
0
LINE
5
125
100
AcDbEntity
8
0
100
AcDbLine
10
296.08783188674198
20
-131.89648775339205
30
0
11
297.71999765020001
21
-131.89648775339202
31
0
0
LINE
5
126
100
AcDbEntity
8
0
100
AcDbLine
10
297.71999765020001
20
-131.89648775339202
30
0
11
297.71999765020001
21
-206.52079179324701
31
0
0
LINE
5
127
100
AcDbEntity
8
0
100
AcDbLine
10
297.71999765020001
20
-206.52079179324701
30
0
11
294.57599861826998
21
-206.52079179324701
31
0
0
ARC
5
128
100
AcDbEntity
8
0
100
AcDbCircle
10
294.57599861826998
20
-209.39579179324704
30
0
40
2.8750000000000142
210
-0
220
0
230
1
100
AcDbArc
50
90
51
180
0
LINE
5
129
100
AcDbEntity
8
0
100
AcDbLine
10
291.70099861826998
20
-209.39579179324704
30
0
11
291.70099861826998
21
-212.58000015521702
31
0
0
LINE
5
130
100
AcDbEntity
8
0
100
AcDbLine
10
199.582755414302
20
-212.58000015521702
30
0
11
199.582755414302
21
-205.56391405126803
31
0
0
LINE
5
131
100
AcDbEntity
8
0
100
AcDbLine
10
291.70099861826998
20
-212.58000015521702
30
0
11
199.582755414302
21
-212.58000015521702
31
0
0
CIRCLE
5
132
100
AcDbEntity
8
0
100
AcDbCircle
10
196.408147034161
20
-209.39579179324704
30
0
40
0.79999999999998295
210
0
220
-0
230
1
0
CIRCLE
5
133
100
AcDbEntity
8
0
100
AcDbCircle
10
103.31185061603802
20
-209.39579179324704
30
0
40
0.80000000000000115
210
0
220
0
230
1
0
CIRCLE
5
134
100
AcDbEntity
8
0
100
AcDbCircle
10
5.1439990319299103
20
-209.39579179324704
30
0
40
1.7500000000000002
210
0
220
-0
230
1
0
CIRCLE
5
135
100
AcDbEntity
8
0
100
AcDbCircle
10
3.6321657634575999
20
-128.93089302441803
30
0
40
0.80000000000000115
210
0
220
0
230
1
0
CIRCLE
5
136
100
AcDbEntity
8
0
100
AcDbCircle
10
5.1439990319299103
20
-24.184208517185901
30
0
40
1.7500000000000002
210
0
220
-0
230
1
0
CIRCLE
5
137
100
AcDbEntity
8
0
100
AcDbCircle
10
294.57599626847002
20
-24.184208517185901
30
0
40
1.7500000000000002
210
-0
220
0
230
1
0
CIRCLE
5
138
100
AcDbEntity
8
0
100
AcDbCircle
10
294.57599626847002
20
-209.39579179324704
30
0
40
1.7500000000000002
210
0
220
-0
230
1
0
ENDSEC
0
SECTION
2
OBJECTS
0
DICTIONARY
5
C
100
AcDbDictionary
3
ACAD_GROUP
350
D
3
ACAD_MLINESTYLE
350
17
0
DICTIONARY
5
D
100
AcDbDictionary
0
DICTIONARY
5
1A
330
C
100
AcDbDictionary
0
DICTIONARY
5
17
100
AcDbDictionary
0
ENDSEC
0
EOF
