0
SECTION
2
HEADER
9
$INSUNITS
70
1
9
$ACADVER
1
AC1014
9
$HANDSEED
5
FFFF
0
ENDSEC
0
SECTION
2
TABLES
0
TABLE
2
VPORT
5
8
100
AcDbSymbolTable
0
ENDTAB
0
TABLE
2
LTYPE
5
5
100
AcDbSymbolTable
0
LTYPE
5
14
100
AcDbSymbolTableRecord
100
AcDbLinetypeTableRecord
2
BYBLOCK
70
0
0
LTYPE
5
15
100
AcDbSymbolTableRecord
100
AcDbLinetypeTableRecord
2
BYLAYER
70
0
0
ENDTAB
0
TABLE
2
LAYER
5
2
100
AcDbSymbolTable
70
2
0
LAYER
5
50
100
AcDbSymbolTableRecord
100
AcDbLayerTableRecord
2
0
70
0
6
CONTINUOUS
0
ENDTAB
0
TABLE
2
STYLE
5
3
100
AcDbSymbolTable
70
1
0
STYLE
5
11
100
AcDbSymbolTableRecord
100
AcDbTextStyleTableRecord
2
STANDARD
70
0
0
ENDTAB
0
TABLE
2
VIEW
5
6
100
AcDbSymbolTable
70
0
0
ENDTAB
0
TABLE
2
UCS
5
7
100
AcDbSymbolTable
70
0
0
ENDTAB
0
TABLE
2
APPID
5
9
100
AcDbSymbolTable
70
2
0
APPID
5
12
100
AcDbSymbolTableRecord
100
AcDbRegAppTableRecord
2
ACAD
70
0
0
ENDTAB
0
TABLE
2
DIMSTYLE
5
A
100
AcDbSymbolTable
70
1
0
ENDTAB
0
TABLE
2
BLOCK_RECORD
5
1
100
AcDbSymbolTable
70
1
0
BLOCK_RECORD
5
1F
100
AcDbSymbolTableRecord
100
AcDbBlockTableRecord
2
*MODEL_SPACE
0
BLOCK_RECORD
5
1B
100
AcDbSymbolTableRecord
100
AcDbBlockTableRecord
2
*PAPER_SPACE
0
ENDTAB
0
ENDSEC
0
SECTION
2
BLOCKS
0
BLOCK
5
20
100
AcDbEntity
100
AcDbBlockBegin
2
*MODEL_SPACE
0
ENDBLK
5
21
100
AcDbEntity
100
AcDbBlockEnd
0
BLOCK
5
1C
100
AcDbEntity
100
AcDbBlockBegin
2
*PAPER_SPACE
0
ENDBLK
5
1D
100
AcDbEntity
100
AcDbBlockEnd
0
ENDSEC
0
SECTION
2
ENTITIES
0
CIRCLE
5
100
100
AcDbEntity
8
0
100
AcDbCircle
10
-18.935121922692034
20
11.324717017997573
30
0
40
0.095000000000000001
210
0
220
-0
230
1
0
CIRCLE
5
101
100
AcDbEntity
8
0
100
AcDbCircle
10
-0.5450121070905628
20
-1.6528378046830843
30
0
40
0.083136237453994968
210
0
220
0
230
1
0
CIRCLE
5
102
100
AcDbEntity
8
0
100
AcDbCircle
10
1.9497223810984097
20
-0.28879201513091191
30
0
40
0.26549999999999846
210
0
220
0
230
1
0
CIRCLE
5
103
100
AcDbEntity
8
0
100
AcDbCircle
10
-4.7756317023085568
20
-1.3606393231483265
30
0
40
0.082677165354345022
210
0
220
0
230
1
0
CIRCLE
5
104
100
AcDbEntity
8
0
100
AcDbCircle
10
-13.458643265783298
20
-1.3606393231482816
30
0
40
0.082677165354345022
210
0
220
0
230
1
0
CIRCLE
5
105
100
AcDbEntity
8
0
100
AcDbCircle
10
-10.999323325980171
20
0.9052892771564518
30
0
40
0.1915000000000025
210
0
220
0
230
1
0
CIRCLE
5
106
100
AcDbEntity
8
0
100
AcDbCircle
10
-0.22749761890158574
20
-0.048310804683078308
30
0
40
0.37400000000000166
210
0
220
0
230
1
0
CIRCLE
5
107
100
AcDbEntity
8
0
100
AcDbCircle
10
-1.9784121070905656
20
-1.6528378046830843
30
0
40
0.083136237453994968
210
0
220
0
230
1
0
CIRCLE
5
108
100
AcDbEntity
8
0
100
AcDbCircle
10
-10.999323325980177
20
-0.20074297467713928
30
0
40
0.1915000000000025
210
0
220
0
230
1
0
CIRCLE
5
109
100
AcDbEntity
8
0
100
AcDbCircle
10
-2.7881456189015896
20
-0.048310804683078308
30
0
40
0.37400000000000166
210
0
220
0
230
1
0
CIRCLE
5
110
100
AcDbEntity
8
0
100
AcDbCircle
10
1.9497223810984097
20
-1.6200952880185879
30
0
40
0.26549999999999846
210
0
220
0
230
1
0
CIRCLE
5
111
100
AcDbEntity
8
0
100
AcDbCircle
10
-1.2617121070905641
20
-1.6528378046830843
30
0
40
0.1915000000000025
210
0
220
0
230
1
0
CIRCLE
5
112
100
AcDbEntity
8
0
100
AcDbCircle
10
-7.464289383479664
20
-1.3602164163662482
30
0
40
0.082677165354300267
210
0
220
0
230
1
0
CIRCLE
5
113
100
AcDbEntity
8
0
100
AcDbCircle
10
-19.452998229701883
20
-1.360639323148237
30
0
40
0.082677165354345022
210
0
220
0
230
1
0
CIRCLE
5
114
100
AcDbEntity
8
0
100
AcDbCircle
10
-17.505939529759818
20
0.55708349337250429
30
0
40
0.088582677165318507
210
0
220
0
230
1
0
CIRCLE
5
115
100
AcDbEntity
8
0
100
AcDbCircle
10
-15.236608791112968
20
10.838394175242003
30
0
40
0.078740157480288092
210
0
220
0
230
1
0
CIRCLE
5
116
100
AcDbEntity
8
0
100
AcDbCircle
10
-7.4642883018394572
20
5.8717584841596002
30
0
40
0.078740157480332862
210
0
220
0
230
1
0
CIRCLE
5
117
100
AcDbEntity
8
0
100
AcDbCircle
10
-15.692765967947132
20
14.28181190441447
30
0
40
0.078740157480288092
210
0
220
0
230
1
0
CIRCLE
5
118
100
AcDbEntity
8
0
100
AcDbCircle
10
-7.4642883018393675
20
15.361598507863228
30
0
40
0.078740157480243336
210
0
220
0
230
1
0
CIRCLE
5
119
100
AcDbEntity
8
0
100
AcDbCircle
10
-19.452998229701883
20
2.543265596218665
30
0
40
0.078740157480332862
210
0
220
0
230
1
0
CIRCLE
5
120
100
AcDbEntity
8
0
100
AcDbCircle
10
-7.4642886758661993
20
10.204206733467375
30
0
40
0.078740157480332862
210
0
220
0
230
1
0
CIRCLE
5
121
100
AcDbEntity
8
0
100
AcDbCircle
10
-7.4642883018394572
20
13.499392019166446
30
0
40
0.078740157480332862
210
0
220
0
230
1
0
CIRCLE
5
122
100
AcDbEntity
8
0
100
AcDbCircle
10
-15.236608791112968
20
13.090885601032499
30
0
40
0.078740157480288092
210
0
220
0
230
1
0
CIRCLE
5
123
100
AcDbEntity
8
0
100
AcDbCircle
10
-18.926496638472106
20
12.165275550319187
30
0
40
0.078740157480288092
210
0
220
0
230
1
0
CIRCLE
5
124
100
AcDbEntity
8
0
100
AcDbCircle
10
-17.505939529759818
20
2.5570834933724753
30
0
40
0.088582677165363277
210
0
220
0
230
1
0
CIRCLE
5
125
100
AcDbEntity
8
0
100
AcDbCircle
10
-8.415803177538983
20
13.090885601032499
30
0
40
0.078740157480332862
210
0
220
0
230
1
0
CIRCLE
5
126
100
AcDbEntity
8
0
100
AcDbCircle
10
-10.777556751923193
20
5.0083550158421932
30
0
40
0.10236220472440585
210
0
220
0
230
1
0
CIRCLE
5
127
100
AcDbEntity
8
0
100
AcDbCircle
10
-8.415803177538983
20
10.838394175242003
30
0
40
0.078740157480332862
210
0
220
0
230
1
0
CIRCLE
5
128
100
AcDbEntity
8
0
100
AcDbCircle
10
-10.255159510196286
20
2.543265596218665
30
0
40
0.078740157480422374
210
0
220
0
230
1
0
CIRCLE
5
129
100
AcDbEntity
8
0
100
AcDbCircle
10
-10.777556751923193
20
6.3445924541642125
30
0
40
0.10236220472440585
210
0
220
0
230
1
0
CIRCLE
5
130
100
AcDbEntity
8
0
100
AcDbCircle
10
-11.811550303800628
20
15.134635638676382
30
0
40
0.078740157480243336
210
0
220
0
230
1
0
CIRCLE
5
131
100
AcDbEntity
8
0
100
AcDbCircle
10
-9.4412707655374408
20
6.3445924541642569
30
0
40
0.10236220472440585
210
0
220
0
230
1
0
CIRCLE
5
132
100
AcDbEntity
8
0
100
AcDbCircle
10
-19.452998229701883
20
6.9499733626221678
30
0
40
0.078740157480332862
210
0
220
0
230
1
0
CIRCLE
5
133
100
AcDbEntity
8
0
100
AcDbCircle
10
-14.332314665421807
20
2.543265596218665
30
0
40
0.078740157480332862
210
0
220
0
230
1
0
CIRCLE
5
134
100
AcDbEntity
8
0
100
AcDbCircle
10
8.8775030252280338
20
2.5432655962186201
30
0
40
0.078740157480288092
210
0
220
0
230
1
0
LWPOLYLINE
5
135
100
AcDbEntity
8
0
100
AcDbPolyline
90
8
70
1
43
0.0
10
-14.99549732290868
20
13.578813116483694
42
-0.41421356237313667
10
-14.956127244168513
20
13.61818319522386
10
-8.6962847244834371
20
13.61818319522386
42
-0.41421356237312623
10
-8.6569146457432709
20
13.578813116483694
10
-8.656914645743317
20
10.350466659790763
42
-0.41421356237212731
10
-8.6962847244834371
20
10.311096581050597
10
-14.956127244168513
20
10.311096581050641
42
-0.4142135623730534
10
-14.995497322908633
20
10.350466659790763
0
CIRCLE
5
136
100
AcDbEntity
8
0
100
AcDbCircle
10
-0.60436911735761911
20
10.204206733467375
30
0
40
0.078740157480332862
210
0
220
0
230
1
0
CIRCLE
5
137
100
AcDbEntity
8
0
100
AcDbCircle
10
-0.60436911735752963
20
2.543265596218665
30
0
40
0.078740157480332862
210
0
220
0
230
1
0
CIRCLE
5
138
100
AcDbEntity
8
0
100
AcDbCircle
10
19.452998229701922
20
2.543265596218665
30
0
40
0.078740157480332862
210
0
220
0
230
1
0
CIRCLE
5
139
100
AcDbEntity
8
0
100
AcDbCircle
10
-0.60436911735761911
20
15.361598507863183
30
0
40
0.078740157480332862
210
0
220
0
230
1
0
ARC
5
140
100
AcDbEntity
8
0
100
AcDbCircle
10
14.323815735050433
20
14.727805139169144
30
0
40
0.078740157468183691
210
0
220
0
230
1
100
AcDbArc
50
0
51
180.00071088795008
0
ARC
5
141
100
AcDbEntity
8
0
100
AcDbCircle
10
14.323815735044343
20
14.727804162213836
30
0
40
0.078740157456031731
210
0
220
0
230
1
100
AcDbArc
50
-180
51
0.00071088743739994721
0
CIRCLE
5
142
100
AcDbEntity
8
0
100
AcDbCircle
10
19.452998229699684
20
6.9090202875188407
30
0
40
0.078740157480332862
210
0
220
0
230
1
0
CIRCLE
5
143
100
AcDbEntity
8
0
100
AcDbCircle
10
13.929763871582473
20
14.813820273273544
30
0
40
0.078740157480332862
210
0
220
0
230
1
0
CIRCLE
5
144
100
AcDbEntity
8
0
100
AcDbCircle
10
-0.60436911735752963
20
13.499392019166446
30
0
40
0.078740157480288092
210
0
220
0
230
1
0
CIRCLE
5
145
100
AcDbEntity
8
0
100
AcDbCircle
10
2.9747253928240887
20
2.5432655956735051
30
0
40
0.10236220472440585
210
0
220
0
230
1
0
LWPOLYLINE
5
146
100
AcDbEntity
8
0
100
AcDbPolyline
90
4
70
1
43
0.0
10
4.6556034057725366
20
1.3896093625464754
42
-0.66910692862500387
10
5.0886742719142326
20
1.3896093625464754
10
5.0886742719142326
20
1.2108761426596284
42
-0.6691069286248138
10
4.6556034057725206
20
1.210876142659667
0
CIRCLE
5
147
100
AcDbEntity
8
0
100
AcDbCircle
10
14.325082978441316
20
-1.3606393231482816
30
0
40
0.082677165354345022
210
0
220
0
230
1
0
CIRCLE
5
148
100
AcDbEntity
8
0
100
AcDbCircle
10
4.7756280006560292
20
-1.3598569718466054
30
0
40
0.082677165354345022
210
0
220
0
230
1
0
CIRCLE
5
149
100
AcDbEntity
8
0
100
AcDbCircle
10
19.452998229701922
20
-1.360639323148237
30
0
40
0.082677165354345022
210
0
220
0
230
1
0
CIRCLE
5
150
100
AcDbEntity
8
0
100
AcDbCircle
10
8.8830144704071934
20
-1.3606393231482816
30
0
40
0.082677165354345022
210
0
220
0
230
1
0
CIRCLE
5
151
100
AcDbEntity
8
0
100
AcDbCircle
10
4.8721388388433846
20
-0.35241072849216171
30
0
40
0.14763779527559054
210
0
220
0
230
1
0
CIRCLE
5
152
100
AcDbEntity
8
0
100
AcDbCircle
10
4.8721388388433846
20
-0.65752883622950065
30
0
40
0.043669424986174404
210
0
220
0
230
1
0
CIRCLE
5
153
100
AcDbEntity
8
0
100
AcDbCircle
10
7.9808758992878781
20
6.3445924715426329
30
0
40
0.10236220472440585
210
0
220
0
230
1
0
CIRCLE
5
154
100
AcDbEntity
8
0
100
AcDbCircle
10
7.9808758992878781
20
5.0083550332206146
30
0
40
0.10236220472440585
210
0
220
0
230
1
0
CIRCLE
5
155
100
AcDbEntity
8
0
100
AcDbCircle
10
8.6490188924807097
20
5.6764737523816011
30
0
40
0.49212598425196846
210
0
220
0
230
1
0
CIRCLE
5
156
100
AcDbEntity
8
0
100
AcDbCircle
10
9.3171618856736291
20
5.0083550332206146
30
0
40
0.10236220472440585
210
0
220
0
230
1
0
CIRCLE
5
157
100
AcDbEntity
8
0
100
AcDbCircle
10
9.3171618856735403
20
6.3445924715426329
30
0
40
0.10236220472440585
210
0
220
0
230
1
0
CIRCLE
5
158
100
AcDbEntity
8
0
100
AcDbCircle
10
3.0211242351883896
20
15.361598507863272
30
0
40
0.078740157480243336
210
0
220
0
230
1
0
CIRCLE
5
159
100
AcDbEntity
8
0
100
AcDbCircle
10
3.4149089569659283
20
15.361598507863183
30
0
40
0.078740157480288092
210
0
220
0
230
1
0
CIRCLE
5
160
100
AcDbEntity
8
0
100
AcDbCircle
10
8.6524008562154719
20
15.361598507863228
30
0
40
0.078740157480332862
210
0
220
0
230
1
0
CIRCLE
5
161
100
AcDbEntity
8
0
100
AcDbCircle
10
18.918868597832528
20
12.121328841504134
30
0
40
0.078740157480288092
210
0
220
0
230
1
0
LWPOLYLINE
5
162
100
AcDbEntity
8
0
100
AcDbPolyline
90
4
70
1
43
0.0
10
18.935247723454079
20
1.8449096091592847
10
5.5584159148760284
20
1.8449096091592847
10
5.5584159177366939
20
-1.0964602585736407
10
18.935247726314746
20
-1.0964602455638306
0
CIRCLE
5
163
100
AcDbEntity
8
0
100
AcDbCircle
10
-0.60436911735752963
20
6.9090214477683487
30
0
40
0.078740157480332862
210
0
220
0
230
1
0
CIRCLE
5
164
100
AcDbEntity
8
0
100
AcDbCircle
10
8.4556951666257802
20
2.543265596218665
30
0
40
0.078740157480332862
210
0
220
0
230
1
0
LWPOLYLINE
5
165
100
AcDbEntity
8
0
100
AcDbPolyline
90
8
70
1
43
0.0
10
10.198858288790221
20
4.247386185866918
10
10.198858288790221
20
3.4349704642537673
42
-0.59232929745312024
10
10.508914049051617
20
3.1249147039923715
10
18.40794394389302
20
3.1249147039923719
42
-0.59232929745457641
10
18.717999704155453
20
3.4349704642534644
10
18.717999704155446
20
4.2473861859315347
42
-0.5923292974529909
10
18.40794394389409
20
4.5574419461928972
10
10.508914049032764
20
4.5574419461928963
42
-0.59232929754402242
0
LINE
5
166
100
AcDbEntity
8
0
100
AcDbLine
10
14.000995325535566
20
14.639350411194812
30
0
11
14.10661893359342
21
14.616038115810369
31
0
0
SPLINE
5
167
100
AcDbEntity
8
0
100
AcDbSpline
70
0
71
3
72
17
73
13
74
0
42
0.000000001
43
0.0000000001
44
0.0000000001
40
-195.78342579941412
40
-195.78342579941412
40
-195.78342579941412
40
-195.78342579941412
40
-175.72385219782836
40
-175.72385219782836
40
-175.72385219782836
40
-156.27904721985988
40
-156.27904721985988
40
-156.27904721985988
40
-132.58042561947377
40
-132.58042561947377
40
-132.58042561947377
40
-121.74342825730169
40
-121.74342825730169
40
-121.74342825730169
40
-121.74342825730169
10
14.106618949719623
20
14.616038184192632
30
0
10
14.36221778422235
20
14.555761737602689
30
0
10
14.614012122366384
20
14.495634018077089
30
0
10
14.860239447407384
20
14.428901718382285
30
0
10
15.098920608371376
20
14.364214573028697
30
0
10
15.335801005482692
20
14.292442015468731
30
0
10
15.570376060530974
20
14.213788351311752
30
0
10
15.856267612170482
20
14.117928124045287
30
0
10
16.137148328061809
20
14.01236946321414
30
0
10
16.411198165132642
20
13.894148316272062
30
0
10
16.536516734774345
20
13.840087692866716
30
0
10
16.660386427111817
20
13.783384018729745
30
0
10
16.78244387914043
20
13.723837607248418
30
0
0
LINE
5
168
100
AcDbEntity
8
0
100
AcDbLine
10
16.782443849479389
20
13.723837546449607
30
0
11
16.782443849479073
21
11.02383754644962
31
0
0
ARC
5
169
100
AcDbEntity
8
0
100
AcDbCircle
10
17.28244384947908
20
11.02383754644962
30
0
40
0.50000000000000677
210
0
220
0
230
1
100
AcDbArc
50
180
51
270.00000000000244
0
LINE
5
170
100
AcDbEntity
8
0
100
AcDbLine
10
17.282443849479101
20
10.523837546449613
30
0
11
18.785603981559849
21
10.523837546449613
31
0
0
ARC
5
171
100
AcDbEntity
8
0
100
AcDbCircle
10
18.785603981559849
20
10.023837546449611
30
0
40
0.50000000000000122
210
-0
220
0
230
1
100
AcDbArc
50
0
51
90
0
LINE
5
172
100
AcDbEntity
8
0
100
AcDbLine
10
19.285603981559849
20
10.023837546449609
30
0
11
19.285603981559845
21
5.4449555879342366
31
0
0
ARC
5
173
100
AcDbEntity
8
0
100
AcDbCircle
10
18.935604202981487
20
5.4449555879342393
30
0
40
0.34999977857836406
210
0
220
0
230
1
100
AcDbArc
50
269.99999790992979
51
360
0
LINE
5
174
100
AcDbEntity
8
0
100
AcDbLine
10
18.935604190213983
20
5.0949558093558753
30
0
11
14.383176548122005
21
5.0949559754220752
31
0
0
ARC
5
175
100
AcDbEntity
8
0
100
AcDbCircle
10
14.383176560889533
20
5.4449559754216565
30
0
40
0.3499999999995817
210
0
220
0
230
1
100
AcDbArc
50
179.99999809090406
51
269.99999790992729
0
LINE
5
176
100
AcDbEntity
8
0
100
AcDbLine
10
14.033176560889951
20
5.4449559881891654
30
0
11
14.033176584599778
21
6.0949213990945896
31
0
0
ARC
5
177
100
AcDbEntity
8
0
100
AcDbCircle
10
13.033176584599811
20
6.0949214355731902
30
0
40
0.99999999999996669
210
-0
220
0
230
1
100
AcDbArc
50
-2.0913098143694567e-06
51
89.999997909929988
0
LINE
5
178
100
AcDbEntity
8
0
100
AcDbLine
10
13.033176621078415
20
7.0949214355731556
30
0
11
7.7546093724344622
21
7.0949216281279268
31
0
0
ARC
5
179
100
AcDbEntity
8
0
100
AcDbCircle
10
7.7546093359558599
20
6.0949216281277323
30
0
40
1.0000000000001947
210
0
220
-0
230
1
100
AcDbArc
50
89.999997909930045
51
180
0
LINE
5
180
100
AcDbEntity
8
0
100
AcDbLine
10
6.7546093359556645
20
6.0949216281277323
30
0
11
6.7546093359558661
21
3.4449041365510173
31
0
0
ARC
5
181
100
AcDbEntity
8
0
100
AcDbCircle
10
6.4046093359558665
20
3.4449041365510173
30
0
40
0.35000000000000009
210
0
220
0
230
1
100
AcDbArc
50
-90
51
0
0
LINE
5
182
100
AcDbEntity
8
0
100
AcDbLine
10
6.4046093359558665
20
3.0949041365510173
30
0
11
-0.045390664044113405
21
3.0949041365510159
31
0
0
ARC
5
183
100
AcDbEntity
8
0
100
AcDbCircle
10
-0.045390664044114147
20
3.4449041365510165
30
0
40
0.34999999999999987
210
0
220
0
230
1
100
AcDbArc
50
180
51
270.00000000000011
0
LINE
5
184
100
AcDbEntity
8
0
100
AcDbLine
10
-0.39539066404411399
20
3.4449041365510165
30
0
11
-0.3953906640441131
21
14.909479602087892
31
0
0
ARC
5
185
100
AcDbEntity
8
0
100
AcDbCircle
10
-0.045390664044123279
20
14.909479602087895
30
0
40
0.34999999999998993
210
0
220
-0
230
1
100
AcDbArc
50
89.999999999999545
51
180
0
LINE
5
186
100
AcDbEntity
8
0
100
AcDbLine
10
-0.045390664044120572
20
15.259479602087884
30
0
11
7.2154086274609179
21
15.259479602087877
31
0
0
SPLINE
5
187
100
AcDbEntity
8
0
100
AcDbSpline
70
0
71
3
72
17
73
13
74
0
42
0.000000001
43
0.0000000001
44
0.0000000001
40
-175.04390341281442
40
-175.04390341281442
40
-175.04390341281442
40
-175.04390341281442
40
-159.57806044535982
40
-159.57806044535982
40
-159.57806044535982
40
-98.709185770871045
40
-98.709185770871045
40
-98.709185770871045
40
-39.493341781749223
40
-39.493341781749223
40
-39.493341781749223
40
0
40
0
40
0
40
0
10
7.2154083765892763
20
15.259479693059127
30
0
10
7.4183103513793158
20
15.254322817810758
30
0
10
7.6208932532274085
20
15.249173669712956
30
0
10
7.8231334755388007
20
15.24354910974113
30
0
10
8.619089749756613
20
15.221412544877214
30
0
10
9.4125624359705995
20
15.191822853722481
30
0
10
10.203520915959874
20
15.142330787683397
30
0
10
10.97299914606338
20
15.094182789598293
30
0
10
11.736919705109278
20
15.027310244396686
30
0
10
12.48823566139531
20
14.913403433407769
30
0
10
12.989317396431231
20
14.837434565709442
30
0
10
13.492530860100151
20
14.739304346361696
30
0
10
14.000995261044039
20
14.639350497429101
30
0
0
CIRCLE
5
188
100
AcDbEntity
8
0
100
AcDbCircle
10
-9.8594911408839643
20
2.543265596218665
30
0
40
0.078740157480332862
210
0
220
0
230
1
0
CIRCLE
5
189
100
AcDbEntity
8
0
100
AcDbCircle
10
-8.5141431805382624
20
1.1190311157725445
30
0
40
0.088582677165408033
210
0
220
0
230
1
0
CIRCLE
5
190
100
AcDbEntity
8
0
100
AcDbCircle
10
-10.109413758730362
20
5.6764737350032251
30
0
40
0.49199999999999894
210
0
220
-0
230
1
0
CIRCLE
5
191
100
AcDbEntity
8
0
100
AcDbCircle
10
14.323312392137401
20
2.5432655956735051
30
0
40
0.10236220472440585
210
0
220
0
230
1
0
LWPOLYLINE
5
192
100
AcDbEntity
8
0
100
AcDbPolyline
90
10
70
1
43
0.0
10
-7.2243751517211052
20
2.344839654054419
10
-0.84539066404413288
20
2.3448745636899031
10
-0.84539066404413277
20
14.820861949838767
42
0.41421356237408619
10
-0.88476074278434413
20
14.860232028578933
10
-7.183267737718344
20
14.860474512710352
42
0.41417606166487841
10
-7.2226375887069088
20
14.821109247341365
10
-7.223343416541474
20
5.7355268538582491
42
-0.251380690353184
10
-7.2497545931420175
20
5.6863142529836495
42
0.53667504621286499
10
-7.2497545932730247
20
5.6666292135266216
42
-0.25138067141345827
10
-7.22334341994969
20
5.6174166151012912
0
CIRCLE
5
193
100
AcDbEntity
8
0
100
AcDbCircle
10
-9.9712297947114106
20
1.1190311157725892
30
0
40
0.088582677165273752
210
0
220
0
230
1
0
CIRCLE
5
194
100
AcDbEntity
8
0
100
AcDbCircle
10
-9.4412707655374408
20
5.0083550158421932
30
0
40
0.10236220472440585
210
0
220
0
230
1
0
CIRCLE
5
195
100
AcDbEntity
8
0
100
AcDbCircle
10
-8.5137866638596229
20
-0.90643327955275055
30
0
40
0.088582677165408033
210
0
220
0
230
1
0
CIRCLE
5
196
100
AcDbEntity
8
0
100
AcDbCircle
10
-7.4642883018394572
20
2.543265596218665
30
0
40
0.078740157480243336
210
0
220
0
230
1
0
LWPOLYLINE
5
197
100
AcDbEntity
8
0
100
AcDbPolyline
90
8
70
1
43
0.0
10
-8.4252039866942141
20
0.9398947995260305
42
-0.71787050017003173
10
-8.6934560615764784
20
1.207613792937863
10
-9.7919169136731732
20
1.2076137929378628
42
-0.71711718510732037
10
-10.059812471876684
20
0.9397182347343529
10
-10.059812471876683
20
-0.72699067214054047
42
-0.71656211192501185
10
-9.7921799970606038
20
-0.99501595671815857
10
-8.6930995448977928
20
-0.99501595671815801
42
-0.71711718510788647
10
-8.4252039866942141
20
-0.7271203985145801
0
CIRCLE
5
198
100
AcDbEntity
8
0
100
AcDbCircle
10
-9.971492878098795
20
-0.90643327955279529
30
0
40
0.088582677165318507
210
0
220
0
230
1
0
CIRCLE
5
199
100
AcDbEntity
8
0
100
AcDbCircle
10
-7.4642883018393675
20
5.4816029960420334
30
0
40
0.078740157480332862
210
0
220
0
230
1
0
CIRCLE
5
200
100
AcDbEntity
8
0
100
AcDbCircle
10
18.935261968512247
20
11.005358973487262
30
0
40
0.1249999999999982
210
0
220
0
230
1
0
LINE
5
201
100
AcDbEntity
8
0
100
AcDbLine
10
4.5584347481044771
20
-1.5964602595461854
30
0
11
19.626310551496683
21
-1.5964602448917282
31
0
0
ARC
5
202
100
AcDbEntity
8
0
100
AcDbCircle
10
19.626310551439211
20
-1.5374051267817228
30
0
40
0.059055118110005397
210
-0
220
0
230
1
100
AcDbArc
50
-89.999999944239946
51
0.0017677630240038001
0
LINE
5
203
100
AcDbEntity
8
0
100
AcDbLine
10
19.685365669521104
20
-1.5374033047371889
30
0
11
19.685247722950727
21
2.285417872435175
31
0
0
ARC
5
204
100
AcDbEntity
8
0
100
AcDbCircle
10
19.626215321048733
20
2.2859519293049773
30
0
40
0.059034817616883561
210
-0
220
0
230
1
100
AcDbArc
50
-0.51833177905209582
51
56.437739532435714
0
ARC
5
205
100
AcDbEntity
8
0
100
AcDbCircle
10
19.66538193438851
20
2.3449867463229759
30
0
40
0.011811023622076165
210
0
220
0
230
1
100
AcDbArc
50
123.56226046725689
51
236.43773953241211
0
ARC
5
206
100
AcDbEntity
8
0
100
AcDbCircle
10
19.626215321048726
20
2.4040215633409807
30
0
40
0.059034817616895004
210
-0
220
0
230
1
100
AcDbArc
50
-56.437739532367083
51
0.51833177904577699
0
LINE
5
207
100
AcDbEntity
8
0
100
AcDbLine
10
19.68524772295072
20
2.4045556202107772
30
0
11
19.685261968512158
21
10.465596364415042
31
0
0
SPLINE
5
208
100
AcDbEntity
8
0
100
AcDbSpline
70
0
71
3
72
15
73
11
74
0
42
0.000000001
43
0.0000000001
44
0.0000000001
40
0
40
0
40
0
40
0
40
16.98343887071087
40
35.853742041514124
40
73.123849678033821
40
101.54932196433083
40
132.58042561947377
40
156.27904721985988
40
175.72385219782836
40
195.78342590117893
40
195.78342590117893
40
195.78342590117893
40
195.78342590117893
10
19.685261968512158
20
10.465596364415042
30
0
10
19.676024302372959
20
10.68883507385377
30
0
10
19.656522663079475
20
11.160114369102944
30
0
10
19.376553862506142
20
12.091548025668832
30
0
10
18.66814728104556
20
12.990200740628172
30
0
10
17.642603154799676
20
13.745128897620637
30
0
10
16.665359689395039
20
14.241439173803732
30
0
10
15.753398714279641
20
14.58393009770103
30
0
10
14.959047433590742
20
14.824614368264646
30
0
10
14.454697797679936
20
14.944924838493295
30
0
10
14.198430294459843
20
15.005358973487263
30
0
0
ARC
5
209
100
AcDbEntity
8
0
100
AcDbCircle
10
14.184875469366805
20
14.947880510636343
30
0
40
0.059055118110180639
210
0
220
-0
230
1
100
AcDbArc
50
76.730693390647104
51
139.66998914947797
0
ARC
5
210
100
AcDbEntity
8
0
100
AcDbCircle
10
14.130852122922748
20
14.993744309901182
30
0
40
0.011811023622128406
210
0
220
0
230
1
100
AcDbArc
50
202.89169348269127
51
319.66998914919776
0
ARC
5
211
100
AcDbEntity
8
0
100
AcDbCircle
10
14.044929751627777
20
14.957463957765333
30
0
40
0.081456965742133167
210
0
220
-0
230
1
100
AcDbArc
50
22.891693482495608
51
65.931254346701735
0
SPLINE
5
212
100
AcDbEntity
8
0
100
AcDbSpline
70
0
71
3
72
11
73
7
74
0
42
0.000000001
43
0.0000000001
44
0.0000000001
40
0
40
0
40
0
40
0
40
39.493341781749223
40
98.709185770871045
40
159.57806044535982
40
175.04390341281442
40
175.04390341281442
40
175.04390341281442
40
175.04390341281442
10
14.078150546073003
20
15.031838792785916
30
0
10
13.569350911446948
20
15.131858541901025
30
0
10
12.297409339951857
20
15.380204378986045
30
0
10
10.207253137926431
20
15.562544070060133
30
0
10
8.4299360155328458
20
15.6287409151682
30
0
10
7.4284733091553647
20
15.654193689829768
30
0
10
7.2255713343652781
20
15.659350565078137
30
0
0
LINE
5
213
100
AcDbEntity
8
0
100
AcDbLine
10
7.225571334365279
20
15.659350565078137
30
0
11
3.2764890534286812
21
15.659350553240071
31
0
0
ARC
5
214
100
AcDbEntity
8
0
100
AcDbCircle
10
3.2764889556198611
20
15.600295475029903
30
0
40
0.059055078210248101
210
0
220
-0
230
1
100
AcDbArc
50
89.999905104983952
51
151.92729210529401
0
ARC
5
215
100
AcDbEntity
8
0
100
AcDbCircle
10
3.2174339941791903
20
15.631791746988871
30
0
40
0.0078740157479792149
210
0
220
0
230
1
100
AcDbArc
50
269.99954214528378
51
331.92729210513443
0
ARC
5
216
100
AcDbEntity
8
0
100
AcDbCircle
10
3.2174284895277583
20
15.631782572612927
30
0
40
0.0078648432543857935
210
0
220
0
230
1
100
AcDbArc
50
208.03260676300593
51
270.0396432775953
0
ARC
5
217
100
AcDbEntity
8
0
100
AcDbCircle
10
3.1583788293042079
20
15.600296156554018
30
0
40
0.059054936995247359
210
0
220
-0
230
1
100
AcDbArc
50
28.072031581595279
51
89.984810466215862
0
LINE
5
218
100
AcDbEntity
8
0
100
AcDbLine
10
3.1583944852034334
20
15.659351091474017
30
0
11
-0.78702829759193282
21
15.65572647360899
31
0
0
ARC
5
219
100
AcDbEntity
8
0
100
AcDbCircle
10
-0.78703427499491152
20
15.596671355800934
30
0
40
0.059055118110564846
210
0
220
-0
230
1
100
AcDbArc
50
89.994200672614497
51
147.9353684581551
0
ARC
5
220
100
AcDbEntity
8
0
100
AcDbCircle
10
-0.84399339055478562
20
15.631792205143025
30
0
40
0.0078740157480242726
210
0
220
0
230
1
100
AcDbArc
50
208.07248690616927
51
331.3941684252905
0
ARC
5
221
100
AcDbEntity
8
0
100
AcDbCircle
10
-0.90304850850598595
20
15.60029614227504
30
0
40
0.059055117911498138
210
0
220
-0
230
1
100
AcDbArc
50
28.072486906148864
51
90.000000192807434
0
LINE
5
222
100
AcDbEntity
8
0
100
AcDbLine
10
-0.90304850870471376
20
15.659351260186536
30
0
11
-7.1661955855015176
21
15.659351260186586
31
0
0
ARC
5
223
100
AcDbEntity
8
0
100
AcDbCircle
10
-7.1661955856921962
20
15.600296142267267
30
0
40
0.059055117919320659
210
0
220
-0
230
1
100
AcDbArc
50
89.999999815002013
51
155.59950050981166
0
ARC
5
224
100
AcDbEntity
8
0
100
AcDbCircle
10
-7.2271466131179585
20
15.627945395226263
30
0
40
0.0078740157479907334
210
0
220
0
230
1
100
AcDbArc
50
211.28322164642856
51
335.5995005100346
0
ARC
5
225
100
AcDbEntity
8
0
100
AcDbCircle
10
-7.2843449823272408
20
15.593191179383549
30
0
40
0.059055118110466605
210
0
220
-0
230
1
100
AcDbArc
50
31.283221645850602
51
91.408076658306314
0
SPLINE
5
226
100
AcDbEntity
8
0
100
AcDbSpline
70
0
71
3
72
14
73
10
74
0
42
0.000000001
43
0.0000000001
44
0.0000000001
40
0
40
0
40
0
40
0
40
94.074213406790932
40
190.22246044394524
40
260.82798094401551
40
305.05722477397285
40
337.93346459869917
40
356.48090088397203
40
372.11344451039531
40
372.11344451039531
40
372.11344451039531
40
372.11344451039531
10
-7.2857961496565862
20
15.65222846496146
30
0
10
-8.520546877805689
20
15.621877646842107
30
0
10
-11.017135388002959
20
15.558136504220114
30
0
10
-14.4170620412188
20
15.061800101801222
30
0
10
-17.061590348048945
20
14.151948421493785
30
0
10
-18.672669908471807
20
13.025727489178491
30
0
10
-19.42256337721523
20
11.979459414607364
30
0
10
-19.659284320224394
20
11.120168889867857
30
0
10
-19.677013370482907
20
10.671184785770947
30
0
10
-19.685121922692055
20
10.465837573367708
30
0
0
LINE
5
227
100
AcDbEntity
8
0
100
AcDbLine
10
-19.685121922692055
20
10.465837573367708
30
0
11
-19.685077779030212
21
2.4038265796223142
31
0
0
ARC
5
228
100
AcDbEntity
8
0
100
AcDbCircle
10
-19.626022660921009
20
2.4038269029793735
30
0
40
0.059055118110085889
210
0
220
0
230
1
100
AcDbArc
50
180.00031372318955
51
236.44300396199449
0
ARC
5
229
100
AcDbEntity
8
0
100
AcDbCircle
10
-19.66519507130743
20
2.3447715703792298
30
0
40
0.011811023621991604
210
-0
220
0
230
1
100
AcDbArc
50
-56.442376514003875
51
56.443003962296039
0
ARC
5
230
100
AcDbEntity
8
0
100
AcDbCircle
10
-19.626022014206459
20
2.2857166667607562
30
0
40
0.05905511811031218
210
0
220
0
230
1
100
AcDbArc
50
123.55762348579303
51
180.00031372318955
0
LINE
5
231
100
AcDbEntity
8
0
100
AcDbLine
10
-19.685077132315804
20
2.2857163434036067
30
0
11
-19.685056198755039
21
-1.5374054883141042
31
0
0
ARC
5
232
100
AcDbEntity
8
0
100
AcDbCircle
10
-19.626001080645839
20
-1.5374051649570926
30
0
40
0.059055118110083085
210
0
220
0
230
1
100
AcDbArc
50
180.00031372318955
51
270.00000005567045
0
LINE
5
233
100
AcDbEntity
8
0
100
AcDbLine
10
-19.626001080588459
20
-1.5964602830671757
30
0
11
-4.5584347453482454
21
-1.5964602595148676
31
0
0
ARC
5
234
100
AcDbEntity
8
0
100
AcDbCircle
10
-4.5484690069779932
20
-2.473515461017783
30
0
40
0.87711181865517229
210
0
220
-0
230
1
100
AcDbArc
50
51.433502710248817
51
90.651008254971686
0
LINE
5
235
100
AcDbEntity
8
0
100
AcDbLine
10
-4.0016577558097906
20
-1.7877147625488701
30
0
11
-3.2391593741586484
21
-2.5895832229401639
31
0
0
ARC
5
236
100
AcDbEntity
8
0
100
AcDbCircle
10
-2.6823823810984564
20
-2.032806229880201
30
0
40
0.7874015748028721
210
0
220
0
230
1
100
AcDbArc
50
224.9999999999882
51
270.00000000001296
0
LINE
5
237
100
AcDbEntity
8
0
100
AcDbLine
10
-2.6823823810982779
20
-2.8202078046830725
30
0
11
2.6823823810983169
21
-2.8202078046830827
31
0
0
ARC
5
238
100
AcDbEntity
8
0
100
AcDbCircle
10
2.6823823810984133
20
-2.0328062298801153
30
0
40
0.78740157480296769
210
0
220
0
230
1
100
AcDbArc
50
269.99999999999295
51
315.00000000001165
0
LINE
5
239
100
AcDbEntity
8
0
100
AcDbLine
10
3.2391593741586715
20
-2.589583222940147
30
0
11
4.0016577558098394
21
-1.7877147625488456
31
0
0
ARC
5
240
100
AcDbEntity
8
0
100
AcDbCircle
10
4.5484690069779417
20
-2.4735154610176444
30
0
40
0.87711181865503485
210
0
220
-0
230
1
100
AcDbArc
50
89.348991564967264
51
128.56649728975074
0
LWPOLYLINE
5
241
100
AcDbEntity
8
0
100
AcDbPolyline
90
4
70
1
43
0.0
10
-19.419519404802369
20
12.317540349929336
10
-18.929420333744101
20
11.841801055058218
10
-19.451807908232428
20
11.303645666698873
10
-19.941906979299784
20
11.779384961578813
0
LWPOLYLINE
5
242
100
AcDbEntity
8
0
100
AcDbPolyline
90
4
70
1
43
0.0
10
-19.441365245469871
20
11.29350897125787
10
-18.918977670981487
20
11.831664359617154
10
-18.42887859992322
20
11.355925064746035
10
-18.951266174411604
20
10.817769676386757
0
CIRCLE
5
243
100
AcDbEntity
8
0
100
AcDbCircle
10
10.268937028947754
20
4.4873632059707864
30
0
40
0.070078740157479238
210
0
220
0
230
1
0
CIRCLE
5
244
100
AcDbEntity
8
0
100
AcDbCircle
10
10.268937028947745
20
3.1949934441498957
30
0
40
0.070078740157523994
210
0
220
0
230
1
0
CIRCLE
5
245
100
AcDbEntity
8
0
100
AcDbCircle
10
18.647920963997972
20
4.4873632060354183
30
0
40
0.070078740157479238
210
0
220
0
230
1
0
CIRCLE
5
246
100
AcDbEntity
8
0
100
AcDbCircle
10
18.647920963996892
20
3.1949934441498957
30
0
40
0.070078740157434469
210
0
220
0
230
1
0
ENDSEC
0
SECTION
2
OBJECTS
0
DICTIONARY
5
C
100
AcDbDictionary
3
ACAD_GROUP
350
D
3
ACAD_MLINESTYLE
350
17
0
DICTIONARY
5
D
100
AcDbDictionary
0
DICTIONARY
5
1A
330
C
100
AcDbDictionary
0
DICTIONARY
5
17
100
AcDbDictionary
0
ENDSEC
0
EOF
