0
SECTION
2
HEADER
9
$INSUNITS
70
1
9
$ACADVER
1
AC1014
9
$HANDSEED
5
FFFF
0
ENDSEC
0
SECTION
2
TABLES
0
TABLE
2
VPORT
5
8
100
AcDbSymbolTable
0
ENDTAB
0
TABLE
2
LTYPE
5
5
100
AcDbSymbolTable
0
LTYPE
5
14
100
AcDbSymbolTableRecord
100
AcDbLinetypeTableRecord
2
BYBLOCK
70
0
0
LTYPE
5
15
100
AcDbSymbolTableRecord
100
AcDbLinetypeTableRecord
2
BYLAYER
70
0
0
ENDTAB
0
TABLE
2
LAYER
5
2
100
AcDbSymbolTable
70
2
0
LAYER
5
50
100
AcDbSymbolTableRecord
100
AcDbLayerTableRecord
2
0
70
0
6
CONTINUOUS
0
ENDTAB
0
TABLE
2
STYLE
5
3
100
AcDbSymbolTable
70
1
0
STYLE
5
11
100
AcDbSymbolTableRecord
100
AcDbTextStyleTableRecord
2
STANDARD
70
0
0
ENDTAB
0
TABLE
2
VIEW
5
6
100
AcDbSymbolTable
70
0
0
ENDTAB
0
TABLE
2
UCS
5
7
100
AcDbSymbolTable
70
0
0
ENDTAB
0
TABLE
2
APPID
5
9
100
AcDbSymbolTable
70
2
0
APPID
5
12
100
AcDbSymbolTableRecord
100
AcDbRegAppTableRecord
2
ACAD
70
0
0
ENDTAB
0
TABLE
2
DIMSTYLE
5
A
100
AcDbSymbolTable
70
1
0
ENDTAB
0
TABLE
2
BLOCK_RECORD
5
1
100
AcDbSymbolTable
70
1
0
BLOCK_RECORD
5
1F
100
AcDbSymbolTableRecord
100
AcDbBlockTableRecord
2
*MODEL_SPACE
0
BLOCK_RECORD
5
1B
100
AcDbSymbolTableRecord
100
AcDbBlockTableRecord
2
*PAPER_SPACE
0
ENDTAB
0
ENDSEC
0
SECTION
2
BLOCKS
0
BLOCK
5
20
100
AcDbEntity
100
AcDbBlockBegin
2
*MODEL_SPACE
0
ENDBLK
5
21
100
AcDbEntity
100
AcDbBlockEnd
0
BLOCK
5
1C
100
AcDbEntity
100
AcDbBlockBegin
2
*PAPER_SPACE
0
ENDBLK
5
1D
100
AcDbEntity
100
AcDbBlockEnd
0
ENDSEC
0
SECTION
2
ENTITIES
0
CIRCLE
5
100
100
AcDbEntity
8
0
100
AcDbCircle
10
-0.19615547861857122
20
14.828729301485785
30
0
40
0.078740157480243336
210
0
220
-0
230
1
0
CIRCLE
5
101
100
AcDbEntity
8
0
100
AcDbCircle
10
9.3171618856736185
20
5.0083550332206146
30
0
40
0.10236220472440585
210
0
220
-0
230
1
0
CIRCLE
5
102
100
AcDbEntity
8
0
100
AcDbCircle
10
-0.60436911735752963
20
13.499392019166446
30
0
40
0.078740157480288092
210
0
220
-0
230
1
0
CIRCLE
5
103
100
AcDbEntity
8
0
100
AcDbCircle
10
8.6490188924806972
20
5.6764737523816011
30
0
40
0.49212598425196846
210
0
220
-0
230
1
0
CIRCLE
5
104
100
AcDbEntity
8
0
100
AcDbCircle
10
2.9747253928240887
20
2.5432655956735051
30
0
40
0.10236220472440585
210
0
220
-0
230
1
0
CIRCLE
5
105
100
AcDbEntity
8
0
100
AcDbCircle
10
3.021124235188378
20
15.361598507863272
30
0
40
0.078740157480243336
210
0
220
-0
230
1
0
CIRCLE
5
106
100
AcDbEntity
8
0
100
AcDbCircle
10
18.918868597832528
20
12.121328841504134
30
0
40
0.078740157480288092
210
0
220
-0
230
1
0
CIRCLE
5
107
100
AcDbEntity
8
0
100
AcDbCircle
10
4.3988821601188208
20
14.828729302392505
30
0
40
0.078740157480332862
210
0
220
-0
230
1
0
LWPOLYLINE
5
108
100
AcDbEntity
8
0
100
AcDbPolyline
90
8
70
1
43
0.0
10
7.5829372782290925
20
15.172233239400402
10
7.5829372782290925
20
14.485225365384608
42
-0.41421356237335882
10
7.4835278294101739
20
14.385815916565777
10
4.7000632624810645
20
14.385815916565733
42
-0.4142135623729632
10
4.600653813662146
20
14.485225365384608
10
4.600653813662146
20
15.172233239400402
42
-0.41421356237309503
10
4.7000632624810645
20
15.271642688219321
10
7.4835278294101739
20
15.271642688219321
42
-0.41421356237309503
0
LWPOLYLINE
5
109
100
AcDbEntity
8
0
100
AcDbPolyline
90
8
70
1
43
0.0
10
0.20246656862554113
20
15.242115130074843
10
2.0922303481530822
20
15.242115130074843
42
-0.41421356237309503
10
2.2890807418538697
20
15.045264736374056
10
2.2890807418538697
20
14.612193870224438
42
-0.41421356237309503
10
2.0922303481530822
20
14.415343476523649
10
0.20246656862554113
20
14.415343476523649
42
-0.41421356237309503
10
0.0056161749247537474
20
14.612193870224438
10
0.0056161749247089889
20
15.045264736374056
42
-0.41421356237329482
0
CIRCLE
5
110
100
AcDbEntity
8
0
100
AcDbCircle
10
3.6065593254732233
20
14.828729302392505
30
0
40
0.13779527559056012
210
0
220
-0
230
1
0
CIRCLE
5
111
100
AcDbEntity
8
0
100
AcDbCircle
10
19.452998229701922
20
2.543265596218665
30
0
40
0.078740157480332862
210
0
220
-0
230
1
0
CIRCLE
5
112
100
AcDbEntity
8
0
100
AcDbCircle
10
3.4143033729872116
20
10.770612329754881
30
0
40
0.078740157480243336
210
0
220
-0
230
1
0
CIRCLE
5
113
100
AcDbEntity
8
0
100
AcDbCircle
10
-0.60436911735752963
20
6.9090214477683487
30
0
40
0.078740157480332862
210
0
220
-0
230
1
0
CIRCLE
5
114
100
AcDbEntity
8
0
100
AcDbCircle
10
3.413888600652208
20
7.1057477330881742
30
0
40
0.078740157480243336
210
0
220
-0
230
1
0
CIRCLE
5
115
100
AcDbEntity
8
0
100
AcDbCircle
10
19.452998229699684
20
6.9090202875188407
30
0
40
0.078740157480332862
210
0
220
-0
230
1
0
CIRCLE
5
116
100
AcDbEntity
8
0
100
AcDbCircle
10
8.6524008562154613
20
15.361598507863228
30
0
40
0.078740157480332862
210
0
220
-0
230
1
0
CIRCLE
5
117
100
AcDbEntity
8
0
100
AcDbCircle
10
-0.60436911735761911
20
15.361598507863183
30
0
40
0.078740157480332862
210
0
220
-0
230
1
0
CIRCLE
5
118
100
AcDbEntity
8
0
100
AcDbCircle
10
2.4908523953971051
20
14.828729301485785
30
0
40
0.078740157480243336
210
0
220
-0
230
1
0
CIRCLE
5
119
100
AcDbEntity
8
0
100
AcDbCircle
10
3.4149089569659168
20
15.361598507863183
30
0
40
0.078740157480288092
210
0
220
-0
230
1
0
CIRCLE
5
120
100
AcDbEntity
8
0
100
AcDbCircle
10
7.7847089317724176
20
14.828729302392505
30
0
40
0.078740157480332862
210
0
220
-0
230
1
0
ARC
5
121
100
AcDbEntity
8
0
100
AcDbCircle
10
14.323815735044345
20
14.727804162213836
30
0
40
0.078740157480332862
210
0
220
0
230
1
100
AcDbArc
50
-180
51
0.00071088743739994721
0
ARC
5
122
100
AcDbEntity
8
0
100
AcDbCircle
10
14.323815735050433
20
14.727805139169144
30
0
40
0.078740157468183691
210
-0
220
0
230
1
100
AcDbArc
50
0
51
180.00071088743738
0
CIRCLE
5
123
100
AcDbEntity
8
0
100
AcDbCircle
10
7.9808758992878666
20
5.0083550332206146
30
0
40
0.10236220472440585
210
0
220
-0
230
1
0
CIRCLE
5
124
100
AcDbEntity
8
0
100
AcDbCircle
10
13.929763871582473
20
14.813820273273544
30
0
40
0.078740157480332862
210
0
220
-0
230
1
0
CIRCLE
5
125
100
AcDbEntity
8
0
100
AcDbCircle
10
14.323312392137401
20
2.5432655956735051
30
0
40
0.10236220472440585
210
0
220
-0
230
1
0
CIRCLE
5
126
100
AcDbEntity
8
0
100
AcDbCircle
10
9.3171618856735297
20
6.3445924715426329
30
0
40
0.10236220472440585
210
0
220
-0
230
1
0
CIRCLE
5
127
100
AcDbEntity
8
0
100
AcDbCircle
10
7.9808758992878666
20
6.3445924715426329
30
0
40
0.10236220472440585
210
0
220
-0
230
1
0
CIRCLE
5
128
100
AcDbEntity
8
0
100
AcDbCircle
10
8.8775030252280338
20
2.5432655962186201
30
0
40
0.078740157480288092
210
0
220
-0
230
1
0
CIRCLE
5
129
100
AcDbEntity
8
0
100
AcDbCircle
10
-0.60436911735761911
20
10.204206733467375
30
0
40
0.078740157480332862
210
0
220
-0
230
1
0
CIRCLE
5
130
100
AcDbEntity
8
0
100
AcDbCircle
10
-0.60436911735752963
20
2.543265596218665
30
0
40
0.078740157480332862
210
0
220
-0
230
1
0
CIRCLE
5
131
100
AcDbEntity
8
0
100
AcDbCircle
10
8.4556951666257802
20
2.543265596218665
30
0
40
0.078740157480332862
210
0
220
-0
230
1
0
ARC
5
132
100
AcDbEntity
8
0
100
AcDbCircle
10
19.665381934388424
20
2.3449867463229759
30
0
40
0.011811023622036494
210
0
220
0
230
1
100
AcDbArc
50
123.56226046727795
51
180
0
ARC
5
133
100
AcDbEntity
8
0
100
AcDbCircle
10
19.626215321048726
20
2.4040215633409807
30
0
40
0.059034817616886733
210
0
220
0
230
1
100
AcDbArc
50
-56.437739532440261
51
0.5183317790464802
0
LINE
5
134
100
AcDbEntity
8
0
100
AcDbLine
10
19.685261968512251
20
10.465596364415086
30
0
11
19.685247722950727
21
2.4045556202107772
31
0
0
SPLINE
5
135
100
AcDbEntity
8
0
100
AcDbSpline
70
0
71
3
72
15
73
11
74
0
42
0.000000001
43
0.0000000001
44
0.0000000001
40
-195.78342590117893
40
-195.78342590117893
40
-195.78342590117893
40
-195.78342590117893
40
-175.72385219782836
40
-156.27904721985988
40
-132.58042561947377
40
-101.54932196433083
40
-73.123849678033821
40
-35.853742041514124
40
-16.98343887071087
40
0
40
0
40
0
40
0
10
14.198430294459843
20
15.005358973487263
30
0
10
14.454697797679936
20
14.944924838493295
30
0
10
14.959047433590742
20
14.824614368264646
30
0
10
15.753398714279641
20
14.58393009770103
30
0
10
16.665359689395039
20
14.241439173803732
30
0
10
17.642603154799676
20
13.745128897620637
30
0
10
18.66814728104556
20
12.990200740628172
30
0
10
19.376553862506142
20
12.091548025668832
30
0
10
19.656522663079475
20
11.160114369102944
30
0
10
19.676024302372959
20
10.68883507385377
30
0
10
19.685261968512158
20
10.465596364415042
30
0
0
ARC
5
136
100
AcDbEntity
8
0
100
AcDbCircle
10
14.184875469366805
20
14.947880510636343
30
0
40
0.059055118110180639
210
0
220
-0
230
1
100
AcDbArc
50
76.730693390647104
51
139.66998914948076
0
ARC
5
137
100
AcDbEntity
8
0
100
AcDbCircle
10
14.130852122922748
20
14.993744309901183
30
0
40
0.011811023622129496
210
0
220
0
230
1
100
AcDbArc
50
202.89169348269922
51
319.66998914917741
0
ARC
5
138
100
AcDbEntity
8
0
100
AcDbCircle
10
14.044929751627777
20
14.957463957765333
30
0
40
0.081456965742133167
210
0
220
-0
230
1
100
AcDbArc
50
22.891693482495608
51
65.931254346701436
0
SPLINE
5
139
100
AcDbEntity
8
0
100
AcDbSpline
70
0
71
3
72
11
73
7
74
0
42
0.000000001
43
0.0000000001
44
0.0000000001
40
-175.04390341281442
40
-175.04390341281442
40
-175.04390341281442
40
-175.04390341281442
40
-159.57806044535982
40
-98.709185770871045
40
-39.493341781749223
40
0
40
0
40
0
40
0
10
7.2255713343652781
20
15.659350565078137
30
0
10
7.4284733091553647
20
15.654193689829768
30
0
10
8.4299360155328458
20
15.6287409151682
30
0
10
10.207253137926431
20
15.562544070060133
30
0
10
12.297409339951857
20
15.380204378986045
30
0
10
13.569350911446948
20
15.131858541901025
30
0
10
14.078150546073003
20
15.031838792785916
30
0
0
LINE
5
140
100
AcDbEntity
8
0
100
AcDbLine
10
3.2764890534286812
20
15.659350553240071
30
0
11
7.2255713343652781
21
15.659350565078137
31
0
0
ARC
5
141
100
AcDbEntity
8
0
100
AcDbCircle
10
3.2764889556198611
20
15.600295475029903
30
0
40
0.059055078210248101
210
0
220
-0
230
1
100
AcDbArc
50
89.999905104983952
51
151.92729210529421
0
ARC
5
142
100
AcDbEntity
8
0
100
AcDbCircle
10
3.2174339941791876
20
15.631791746988872
30
0
40
0.007874015747982013
210
0
220
0
230
1
100
AcDbArc
50
269.99954214530322
51
331.92729210513062
0
ARC
5
143
100
AcDbEntity
8
0
100
AcDbCircle
10
3.2174284895277632
20
15.631782572612934
30
0
40
0.0078648432543940577
210
0
220
0
230
1
100
AcDbArc
50
208.03260676303483
51
270.03964327755966
0
ARC
5
144
100
AcDbEntity
8
0
100
AcDbCircle
10
3.1583788293042079
20
15.600296156554018
30
0
40
0.059054936995247359
210
0
220
-0
230
1
100
AcDbArc
50
28.072031581595279
51
89.984810466215862
0
LINE
5
145
100
AcDbEntity
8
0
100
AcDbLine
10
-0.78702829759193282
20
15.65572647360899
30
0
11
3.1583944852034334
21
15.659351091474024
31
0
0
ARC
5
146
100
AcDbEntity
8
0
100
AcDbCircle
10
-0.78703427499491152
20
15.596671355800934
30
0
40
0.059055118110564846
210
0
220
-0
230
1
100
AcDbArc
50
89.994200672614497
51
147.93536845815777
0
ARC
5
147
100
AcDbEntity
8
0
100
AcDbCircle
10
-0.84399339055478562
20
15.631792205143025
30
0
40
0.0078740157480242084
210
0
220
0
230
1
100
AcDbArc
50
259.7785180454793
51
331.39416842528124
0
LINE
5
148
100
AcDbEntity
8
0
100
AcDbLine
10
-0.84539066404413288
20
2.3448745636899031
30
0
11
-0.84539066404412677
21
15.62404315676299
31
0
0
LINE
5
149
100
AcDbEntity
8
0
100
AcDbLine
10
19.653570910766387
20
2.3449867463229759
30
0
11
-0.84539066404413288
21
2.3448745636899031
31
0
0
CIRCLE
5
150
100
AcDbEntity
8
0
100
AcDbCircle
10
14.325082978441316
20
-1.3606393231482816
30
0
40
0.082677165354345022
210
0
220
-0
230
1
0
CIRCLE
5
151
100
AcDbEntity
8
0
100
AcDbCircle
10
4.7756280006560292
20
-1.3598569718466054
30
0
40
0.082677165354345022
210
0
220
-0
230
1
0
CIRCLE
5
152
100
AcDbEntity
8
0
100
AcDbCircle
10
19.452998229701922
20
-1.360639323148237
30
0
40
0.082677165354345022
210
0
220
-0
230
1
0
CIRCLE
5
153
100
AcDbEntity
8
0
100
AcDbCircle
10
8.8830144704071934
20
-1.3606393231482816
30
0
40
0.082677165354345022
210
0
220
-0
230
1
0
LWPOLYLINE
5
154
100
AcDbEntity
8
0
100
AcDbPolyline
90
7
70
1
43
0.0
10
19.685365669521108
20
-1.5374033047371889
10
19.685247722950727
20
2.285417872435175
42
0.25376361838349232
10
19.658852295001594
20
2.3351447908019392
42
-0.25135770495977805
10
19.653570910766433
20
2.3449867463229759
10
4.5584131785906123
20
2.3449041365510155
10
4.5584347481044771
20
-1.5964602595461854
10
19.626310551496683
20
-1.5964602448917282
42
0.41422259883559115
0
CIRCLE
5
155
100
AcDbEntity
8
0
100
AcDbCircle
10
-9.971492878098795
20
-0.90643327955279529
30
0
40
0.088582677165318521
210
0
220
-0
230
1
0
CIRCLE
5
156
100
AcDbEntity
8
0
100
AcDbCircle
10
-4.7756317023085568
20
-1.3606393231483265
30
0
40
0.082677165354345022
210
0
220
-0
230
1
0
LWPOLYLINE
5
157
100
AcDbEntity
8
0
100
AcDbPolyline
90
11
70
1
43
0.0
10
-9.4593377395983236
20
-0.36680889046212495
10
-9.4593377395983236
20
-0.79911887918344704
42
-0.41421357554049726
10
-9.498707820108379
20
-0.8384889579235687
10
-9.5273297705126598
20
-0.83848895663684853
42
-0.41421354920569292
10
-9.5666998474828464
20
-0.79911887789672686
10
-9.5666998474828464
20
1.0510857525594601
10
-9.137251325245483
20
1.0510857477328273
10
-9.137251468315446
20
0.14566899443943246
42
-0.41421352925879712
10
-9.1766215488255014
20
0.10629892192039735
10
-9.3519756690364737
20
0.1062989298035953
10
-9.3519756317137102
20
-0.36680889528871302
0
CIRCLE
5
158
100
AcDbEntity
8
0
100
AcDbCircle
10
-9.9712297947114106
20
1.1190311157725892
30
0
40
0.088582677165273752
210
0
220
-0
230
1
0
CIRCLE
5
159
100
AcDbEntity
8
0
100
AcDbCircle
10
-19.452998229701883
20
-1.360639323148237
30
0
40
0.082677165354345022
210
0
220
-0
230
1
0
CIRCLE
5
160
100
AcDbEntity
8
0
100
AcDbCircle
10
-17.505939529759818
20
0.55708349337250429
30
0
40
0.088582677165318521
210
0
220
-0
230
1
0
LINE
5
161
100
AcDbEntity
8
0
100
AcDbLine
10
-8.8509127102064156
20
0.93307004844792285
30
0
11
-8.8509127102065044
21
-0.72047325735194423
31
0
0
ARC
5
162
100
AcDbEntity
8
0
100
AcDbCircle
10
-8.8115426259488121
20
0.93307004844787811
30
0
40
0.039370078740211228
210
0
220
0
230
1
100
AcDbArc
50
90.000002575936193
51
180
0
LINE
5
163
100
AcDbEntity
8
0
100
AcDbLine
10
-8.7829206773145554
20
0.97244012847480943
30
0
11
-8.8115426277188345
21
0.97244012718808925
31
0
0
ARC
5
164
100
AcDbEntity
8
0
100
AcDbCircle
10
-8.7829206755446201
20
0.93307004973464303
30
0
40
0.039370078740166431
210
0
220
0
230
1
100
AcDbArc
50
0
51
90.000002575809518
0
LINE
5
165
100
AcDbEntity
8
0
100
AcDbLine
10
-8.743550602321891
20
-0.7204732586386644
30
0
11
-8.743550602321891
21
0.93307004973464303
31
0
0
ARC
5
166
100
AcDbEntity
8
0
100
AcDbCircle
10
-8.7829206862737035
20
-0.72047325863870915
30
0
40
0.03937007874012171
210
0
220
0
230
1
100
AcDbArc
50
-90.00000257593878
51
0
0
LINE
5
167
100
AcDbEntity
8
0
100
AcDbLine
10
-8.8115426384479179
20
-0.75984333609211063
30
0
11
-8.7829206880437276
21
-0.75984333737883081
31
0
0
ARC
5
168
100
AcDbEntity
8
0
100
AcDbCircle
10
-8.8115426366779843
20
-0.72047325735189949
30
0
40
0.039370078740211187
210
0
220
0
230
1
100
AcDbArc
50
180
51
269.99999742419311
0
CIRCLE
5
169
100
AcDbEntity
8
0
100
AcDbCircle
10
-10.999323325980171
20
0.9052892771564518
30
0
40
0.19150000000000253
210
0
220
-0
230
1
0
CIRCLE
5
170
100
AcDbEntity
8
0
100
AcDbCircle
10
-0.5450121070905628
20
-1.6528378046830843
30
0
40
0.083136237453994968
210
0
220
-0
230
1
0
CIRCLE
5
171
100
AcDbEntity
8
0
100
AcDbCircle
10
-8.5141431805382624
20
1.1190311157725445
30
0
40
0.088582677165408033
210
0
220
-0
230
1
0
CIRCLE
5
172
100
AcDbEntity
8
0
100
AcDbCircle
10
-1.9784121070905656
20
-1.6528378046830843
30
0
40
0.083136237453994968
210
0
220
-0
230
1
0
CIRCLE
5
173
100
AcDbEntity
8
0
100
AcDbCircle
10
-8.5137866638596229
20
-0.90643327955275055
30
0
40
0.088582677165408033
210
0
220
-0
230
1
0
CIRCLE
5
174
100
AcDbEntity
8
0
100
AcDbCircle
10
-13.458643265783298
20
-1.3606393231482816
30
0
40
0.082677165354345022
210
0
220
-0
230
1
0
CIRCLE
5
175
100
AcDbEntity
8
0
100
AcDbCircle
10
-7.464289383479664
20
-1.3602164163662482
30
0
40
0.082677165354300267
210
0
220
-0
230
1
0
CIRCLE
5
176
100
AcDbEntity
8
0
100
AcDbCircle
10
-2.7881456189015896
20
-0.048310804683078308
30
0
40
0.37400000000000166
210
0
220
-0
230
1
0
CIRCLE
5
177
100
AcDbEntity
8
0
100
AcDbCircle
10
-1.2617121070905641
20
-1.6528378046830843
30
0
40
0.19150000000000253
210
0
220
-0
230
1
0
CIRCLE
5
178
100
AcDbEntity
8
0
100
AcDbCircle
10
-10.999323325980177
20
-0.20074297467713928
30
0
40
0.19150000000000253
210
0
220
-0
230
1
0
CIRCLE
5
179
100
AcDbEntity
8
0
100
AcDbCircle
10
-0.22749761890158574
20
-0.048310804683078308
30
0
40
0.37400000000000166
210
0
220
-0
230
1
0
LINE
5
180
100
AcDbEntity
8
0
100
AcDbLine
10
4.0016577558098421
20
-1.7877147625488483
30
0
11
3.2391593741586902
21
-2.5895832229401665
31
0
0
ARC
5
181
100
AcDbEntity
8
0
100
AcDbCircle
10
4.5484690069779408
20
-2.473515461017644
30
0
40
0.87711181865501975
210
0
220
-0
230
1
100
AcDbArc
50
89.348991564967207
51
128.56649728975069
0
LINE
5
182
100
AcDbEntity
8
0
100
AcDbLine
10
4.5584131785906123
20
2.3449041365510186
30
0
11
4.5584347481044771
21
-1.5964602595462001
31
0
0
LINE
5
183
100
AcDbEntity
8
0
100
AcDbLine
10
-16.771687561255877
20
2.3447874054250959
30
0
11
4.5584131785906123
21
2.3449041365510155
31
0
0
LINE
5
184
100
AcDbEntity
8
0
100
AcDbLine
10
-16.771687561255877
20
0.37598113116776555
30
0
11
-16.771687561255877
21
2.3447874054250959
31
0
0
ARC
5
185
100
AcDbEntity
8
0
100
AcDbCircle
10
-16.870112758106274
20
0.37598113116776555
30
0
40
0.098425196850393692
210
0
220
0
230
1
100
AcDbArc
50
-180
51
0
0
LINE
5
186
100
AcDbEntity
8
0
100
AcDbLine
10
-16.968537954956666
20
2.3447863281414758
30
0
11
-16.968537954956666
21
0.37598113116776555
31
0
0
LINE
5
187
100
AcDbEntity
8
0
100
AcDbLine
10
-19.65338404768557
20
2.3447716350506598
30
0
11
-16.968537954956666
21
2.3447863281414758
31
0
0
ARC
5
188
100
AcDbEntity
8
0
100
AcDbCircle
10
-19.665195071307515
20
2.3447715703792307
30
0
40
0.011811023622124092
210
-0
220
0
230
1
100
AcDbArc
50
-56.442376514033498
51
0.00031372318952684839
0
ARC
5
189
100
AcDbEntity
8
0
100
AcDbCircle
10
-19.626022014206459
20
2.2857166667607562
30
0
40
0.059055118110228497
210
0
220
0
230
1
100
AcDbArc
50
123.5576234858674
51
180.00031372318955
0
LINE
5
190
100
AcDbEntity
8
0
100
AcDbLine
10
-19.685056198755039
20
-1.5374054883141042
30
0
11
-19.685077132315833
21
2.2857163434036067
31
0
0
ARC
5
191
100
AcDbEntity
8
0
100
AcDbCircle
10
-19.626001080645839
20
-1.5374051649570926
30
0
40
0.059055118110083085
210
0
220
0
230
1
100
AcDbArc
50
180.00031372318955
51
270.00000005567045
0
LINE
5
192
100
AcDbEntity
8
0
100
AcDbLine
10
-4.5584347452471379
20
-1.596460268412953
30
0
11
-19.626001080588459
21
-1.5964602830671419
31
0
0
ARC
5
193
100
AcDbEntity
8
0
100
AcDbCircle
10
-4.5484690069779914
20
-2.4735154610177785
30
0
40
0.87711181865516752
210
0
220
-0
230
1
100
AcDbArc
50
51.43350271024871
51
90.651008254971742
0
LINE
5
194
100
AcDbEntity
8
0
100
AcDbLine
10
-3.2391593741586484
20
-2.5895832229401639
30
0
11
-4.0016577509719324
21
-1.7877147673867577
31
0
0
ARC
5
195
100
AcDbEntity
8
0
100
AcDbCircle
10
-2.6823823810984564
20
-2.032806229880201
30
0
40
0.7874015748028721
210
0
220
0
230
1
100
AcDbArc
50
224.9999999999882
51
270.00000000001296
0
LINE
5
196
100
AcDbEntity
8
0
100
AcDbLine
10
2.6823823810983169
20
-2.8202078046830827
30
0
11
-2.6823823810982779
21
-2.8202078046830827
31
0
0
ARC
5
197
100
AcDbEntity
8
0
100
AcDbCircle
10
2.6823823810984133
20
-2.0328062298801153
30
0
40
0.78740157480296769
210
0
220
0
230
1
100
AcDbArc
50
269.99999999999295
51
315.0000000000116
0
CIRCLE
5
198
100
AcDbEntity
8
0
100
AcDbCircle
10
-19.452998229701883
20
2.543265596218665
30
0
40
0.078740157480332862
210
0
220
-0
230
1
0
CIRCLE
5
199
100
AcDbEntity
8
0
100
AcDbCircle
10
-10.777556751923193
20
6.3445924541642125
30
0
40
0.10236220472440585
210
0
220
-0
230
1
0
CIRCLE
5
200
100
AcDbEntity
8
0
100
AcDbCircle
10
-7.4642883018393675
20
15.361598507863228
30
0
40
0.078740157480243336
210
0
220
-0
230
1
0
CIRCLE
5
201
100
AcDbEntity
8
0
100
AcDbCircle
10
-7.4642886758661993
20
10.204206733467375
30
0
40
0.078740157480332862
210
0
220
-0
230
1
0
CIRCLE
5
202
100
AcDbEntity
8
0
100
AcDbCircle
10
-19.452998229701883
20
6.9499733626221678
30
0
40
0.078740157480332862
210
0
220
-0
230
1
0
CIRCLE
5
203
100
AcDbEntity
8
0
100
AcDbCircle
10
-8.415803177538983
20
10.838394175242003
30
0
40
0.078740157480332862
210
0
220
-0
230
1
0
CIRCLE
5
204
100
AcDbEntity
8
0
100
AcDbCircle
10
-11.811550303800628
20
15.134635638676382
30
0
40
0.078740157480243336
210
0
220
-0
230
1
0
CIRCLE
5
205
100
AcDbEntity
8
0
100
AcDbCircle
10
-10.777556751923193
20
5.0083550158421932
30
0
40
0.10236220472440585
210
0
220
-0
230
1
0
CIRCLE
5
206
100
AcDbEntity
8
0
100
AcDbCircle
10
-10.255159510196286
20
2.543265596218665
30
0
40
0.078740157480422374
210
0
220
-0
230
1
0
CIRCLE
5
207
100
AcDbEntity
8
0
100
AcDbCircle
10
-14.332314665421807
20
2.543265596218665
30
0
40
0.078740157480332862
210
0
220
-0
230
1
0
CIRCLE
5
208
100
AcDbEntity
8
0
100
AcDbCircle
10
-9.4412707655374408
20
6.3445924541642569
30
0
40
0.10236220472440585
210
0
220
-0
230
1
0
LWPOLYLINE
5
209
100
AcDbEntity
8
0
100
AcDbPolyline
90
8
70
1
43
0.0
10
-14.956127244168513
20
13.61818319522386
10
-8.6962847244834371
20
13.61818319522386
42
-0.41421356237309503
10
-8.6569146457432709
20
13.578813116483694
10
-8.656914645743317
20
10.350466659790763
42
-0.41421356237209606
10
-8.6962847244834371
20
10.311096581050597
10
-14.956127244168513
20
10.311096581050641
42
-0.41421356237309503
10
-14.995497322908633
20
10.350466659790763
10
-14.99549732290868
20
13.578813116483694
42
-0.41421356237309503
0
CIRCLE
5
210
100
AcDbEntity
8
0
100
AcDbCircle
10
-8.415803177538983
20
13.090885601032499
30
0
40
0.078740157480332862
210
0
220
-0
230
1
0
CIRCLE
5
211
100
AcDbEntity
8
0
100
AcDbCircle
10
-15.236608791112968
20
13.090885601032499
30
0
40
0.078740157480288092
210
0
220
-0
230
1
0
CIRCLE
5
212
100
AcDbEntity
8
0
100
AcDbCircle
10
-7.4642883018394572
20
13.499392019166446
30
0
40
0.078740157480332862
210
0
220
-0
230
1
0
CIRCLE
5
213
100
AcDbEntity
8
0
100
AcDbCircle
10
-17.505939529759818
20
2.5570834933724753
30
0
40
0.088582677165363277
210
0
220
-0
230
1
0
CIRCLE
5
214
100
AcDbEntity
8
0
100
AcDbCircle
10
-7.4642883018394572
20
5.8717584841596002
30
0
40
0.078740157480332862
210
0
220
-0
230
1
0
CIRCLE
5
215
100
AcDbEntity
8
0
100
AcDbCircle
10
-15.692765967947132
20
14.28181190441447
30
0
40
0.078740157480288092
210
0
220
-0
230
1
0
CIRCLE
5
216
100
AcDbEntity
8
0
100
AcDbCircle
10
-15.236608791112968
20
10.838394175242003
30
0
40
0.078740157480288092
210
0
220
-0
230
1
0
CIRCLE
5
217
100
AcDbEntity
8
0
100
AcDbCircle
10
-18.926496638472106
20
12.165275550319187
30
0
40
0.078740157480288092
210
0
220
-0
230
1
0
LINE
5
218
100
AcDbEntity
8
0
100
AcDbLine
10
-10.109411066210779
20
5.1844737350105943
30
0
11
-10.109395525940688
21
2.3448238654896785
31
0
0
ARC
5
219
100
AcDbEntity
8
0
100
AcDbCircle
10
-10.109413758730362
20
5.6764737350032251
30
0
40
0.49199999999999916
210
0
220
-0
230
1
100
AcDbArc
50
0
51
270.00031355692761
0
LINE
5
220
100
AcDbEntity
8
0
100
AcDbLine
10
-7.2550368277680617
20
5.6764737350032251
30
0
11
-9.617413758730363
21
5.6764737350032251
31
0
0
ARC
5
221
100
AcDbEntity
8
0
100
AcDbCircle
10
-7.2432258043155704
20
5.6764717332116525
30
0
40
0.011811023622126177
210
0
220
0
230
1
100
AcDbArc
50
123.55730899938307
51
179.99028922364926
0
ARC
5
222
100
AcDbEntity
8
0
100
AcDbCircle
10
-7.2823985346517501
20
5.735526853582761
30
0
40
0.059055118110277638
210
0
220
0
230
1
100
AcDbArc
50
-56.442694053618212
51
0
0
LINE
5
223
100
AcDbEntity
8
0
100
AcDbLine
10
-7.2225754063268175
20
15.621534140070239
30
0
11
-7.2233434165414749
21
5.7355268538582491
31
0
0
ARC
5
224
100
AcDbEntity
8
0
100
AcDbCircle
10
-7.2271466131179585
20
15.627945395226268
30
0
40
0.0078740157479936391
210
0
220
0
230
1
100
AcDbArc
50
211.2832216464617
51
305.48876183700264
0
ARC
5
225
100
AcDbEntity
8
0
100
AcDbCircle
10
-7.2843449823272408
20
15.593191179383549
30
0
40
0.059055118110466605
210
0
220
-0
230
1
100
AcDbArc
50
31.283221645850602
51
91.40807665830755
0
SPLINE
5
226
100
AcDbEntity
8
0
100
AcDbSpline
70
0
71
3
72
14
73
10
74
0
42
0.000000001
43
0.0000000001
44
0.0000000001
40
-372.11344451039531
40
-372.11344451039531
40
-372.11344451039531
40
-372.11344451039531
40
-356.48090088397203
40
-337.93346459869917
40
-305.05722477397285
40
-260.82798094401551
40
-190.22246044394524
40
-94.074213406790932
40
0
40
0
40
0
40
0
10
-19.685121922692055
20
10.465837573367708
30
0
10
-19.677013370482907
20
10.671184785770947
30
0
10
-19.659284320224394
20
11.120168889867857
30
0
10
-19.42256337721523
20
11.979459414607364
30
0
10
-18.672669908471807
20
13.025727489178491
30
0
10
-17.061590348048945
20
14.151948421493785
30
0
10
-14.4170620412188
20
15.061800101801222
30
0
10
-11.017135388002959
20
15.558136504220114
30
0
10
-8.520546877805689
20
15.621877646842107
30
0
10
-7.2857961496565862
20
15.65222846496146
30
0
0
LINE
5
227
100
AcDbEntity
8
0
100
AcDbLine
10
-19.685077779030212
20
2.4038265796223142
30
0
11
-19.685121922692055
21
10.465837573367708
31
0
0
ARC
5
228
100
AcDbEntity
8
0
100
AcDbCircle
10
-19.626022660921009
20
2.4038269029793735
30
0
40
0.059055118110085889
210
0
220
0
230
1
100
AcDbArc
50
180.00031372318955
51
236.44300396199415
0
ARC
5
229
100
AcDbEntity
8
0
100
AcDbCircle
10
-19.665195071307426
20
2.3447715703792307
30
0
40
0.011811023621989762
210
0
220
-0
230
1
100
AcDbArc
50
0.00031372318952684839
51
56.443003962309568
0
LINE
5
230
100
AcDbEntity
8
0
100
AcDbLine
10
-16.968537954956666
20
2.3447863281414776
30
0
11
-19.653384047685613
21
2.3447716350506598
31
0
0
LINE
5
231
100
AcDbEntity
8
0
100
AcDbLine
10
-16.968537954956666
20
2.7381858555772141
30
0
11
-16.968537954956666
21
2.3447863281414776
31
0
0
ARC
5
232
100
AcDbEntity
8
0
100
AcDbCircle
10
-16.870112758106274
20
2.7381858555772141
30
0
40
0.098425196850393692
210
0
220
-0
230
1
100
AcDbArc
50
0
51
180
0
LINE
5
233
100
AcDbEntity
8
0
100
AcDbLine
10
-16.771687561255877
20
2.3447874054250932
30
0
11
-16.771687561255877
21
2.7381858555772141
31
0
0
LINE
5
234
100
AcDbEntity
8
0
100
AcDbLine
10
-10.109395525940688
20
2.3448238654896785
30
0
11
-16.771687561255877
21
2.3447874054250932
31
0
0
CIRCLE
5
235
100
AcDbEntity
8
0
100
AcDbCircle
10
-7.4642883018393675
20
5.4816029960420334
30
0
40
0.078740157480332862
210
0
220
-0
230
1
0
CIRCLE
5
236
100
AcDbEntity
8
0
100
AcDbCircle
10
-9.8594911408839643
20
2.543265596218665
30
0
40
0.078740157480332862
210
0
220
-0
230
1
0
CIRCLE
5
237
100
AcDbEntity
8
0
100
AcDbCircle
10
-9.4412707655374408
20
5.0083550158421932
30
0
40
0.10236220472440585
210
0
220
-0
230
1
0
CIRCLE
5
238
100
AcDbEntity
8
0
100
AcDbCircle
10
-7.4642883018394572
20
2.543265596218665
30
0
40
0.078740157480243336
210
0
220
-0
230
1
0
LWPOLYLINE
5
239
100
AcDbEntity
8
0
100
AcDbPolyline
90
7
70
1
43
0.0
10
-7.249754593273054
20
5.6666292135265781
42
-0.25142572068110025
10
-7.2550368277680599
20
5.6764737350032251
10
-9.617413758730363
20
5.6764737350032251
42
-0.41421195948634676
10
-10.109411066210781
20
5.1844737350105943
10
-10.109395525940688
20
2.3448238654896785
10
-7.2243751517211168
20
2.3448396540544225
10
-7.2233434199496624
20
5.6174166151012912
42
0.25138067141345716
0
ARC
5
240
100
AcDbEntity
8
0
100
AcDbCircle
10
-7.2271466131179585
20
15.627945395226268
30
0
40
0.0078740157479948482
210
-0
220
0
230
1
100
AcDbArc
50
305.48876170516161
51
335.59950051001005
0
LINE
5
241
100
AcDbEntity
8
0
100
AcDbLine
10
-7.2226375886286887
20
14.821109247341353
30
0
11
-7.2225754063490699
21
15.621534140070239
31
0
0
ARC
5
242
100
AcDbEntity
8
0
100
AcDbCircle
10
-7.1832675102689745
20
14.821104433959098
30
0
40
0.039370078732173845
210
0
220
0
230
1
100
AcDbArc
50
90.000331009976293
51
179.99299502317751
0
LINE
5
243
100
AcDbEntity
8
0
100
AcDbLine
10
-0.88476074278434413
20
14.860232028578933
30
0
11
-7.1832677377183423
21
14.860474512690615
31
0
0
ARC
5
244
100
AcDbEntity
8
0
100
AcDbCircle
10
-0.88476074278425465
20
14.820861949838811
30
0
40
0.039370078740121668
210
0
220
0
230
1
100
AcDbArc
50
0
51
90.000000000130228
0
LINE
5
245
100
AcDbEntity
8
0
100
AcDbLine
10
-0.84539066404412755
20
15.624043156762987
30
0
11
-0.84539066404413288
21
14.820861949838767
31
0
0
ARC
5
246
100
AcDbEntity
8
0
100
AcDbCircle
10
-0.84399339055478562
20
15.631792205143025
30
0
40
0.007874015748024427
210
0
220
0
230
1
100
AcDbArc
50
208.0724869061689
51
259.77851804547828
0
ARC
5
247
100
AcDbEntity
8
0
100
AcDbCircle
10
-0.90304850850598595
20
15.60029614227504
30
0
40
0.059055117911497985
210
0
220
-0
230
1
100
AcDbArc
50
28.072486906148907
51
90.000000192807434
0
LINE
5
248
100
AcDbEntity
8
0
100
AcDbLine
10
-7.1661955855015176
20
15.659351260186586
30
0
11
-0.90304850870471376
21
15.659351260186586
31
0
0
ARC
5
249
100
AcDbEntity
8
0
100
AcDbCircle
10
-7.1661955856921962
20
15.600296142267267
30
0
40
0.059055117919320659
210
0
220
-0
230
1
100
AcDbArc
50
89.999999815002013
51
155.59950050981021
0
ARC
5
250
100
AcDbEntity
8
0
100
AcDbCircle
10
-0.84399339055478562
20
15.631792205143025
30
0
40
0.40787401574802412
210
0
220
0
230
1
100
AcDbArc
50
259.7785180454793
51
292.81125867075309
0
LINE
5
251
100
AcDbEntity
8
0
100
AcDbLine
10
-0.68586197007592276
20
15.255819245237987
30
0
11
3.0513708165906039
21
15.259252601172211
31
0
0
ARC
5
252
100
AcDbEntity
8
0
100
AcDbCircle
10
3.2174284895277632
20
15.631782572612934
30
0
40
0.40786484325439398
210
0
220
0
230
1
100
AcDbArc
50
245.97476425300587
51
270.02011896156728
0
ARC
5
253
100
AcDbEntity
8
0
100
AcDbCircle
10
3.2174339941791876
20
15.631791746988872
30
0
40
0.40787401573404136
210
0
220
0
230
1
100
AcDbArc
50
270.01934524752414
51
294.05873523387032
0
LINE
5
254
100
AcDbEntity
8
0
100
AcDbLine
10
3.3837131875540689
20
15.259350553561493
30
0
11
7.2204890246228741
21
15.259350565062903
31
0
0
SPLINE
5
255
100
AcDbEntity
8
0
100
AcDbSpline
70
0
71
3
72
17
73
13
74
0
42
0.000000001
43
0.0000000001
44
0.0000000001
40
-174.91481392456532
40
-174.91481392456532
40
-174.91481392456532
40
-174.91481392456532
40
-159.57806044535982
40
-159.57806044535982
40
-159.57806044535982
40
-98.709185770871045
40
-98.709185770871045
40
-98.709185770871045
40
-39.493341781749223
40
-39.493341781749223
40
-39.493341781749223
40
-2.9461890763263834
40
-2.9461890763263834
40
-2.9461890763263834
40
-2.9461890763263834
10
7.2204890246228741
20
15.259350565062906
30
0
10
7.4216921443758652
20
15.254236833655593
30
0
10
7.622581301325174
20
15.249126722930301
30
0
10
7.8231334755388007
20
15.24354910974113
30
0
10
8.619089749756613
20
15.221412544877214
30
0
10
9.4125624359705995
20
15.191822853722481
30
0
10
10.203520915959874
20
15.142330787683397
30
0
10
10.97299914606338
20
15.094182789598293
30
0
10
11.736919705109278
20
15.027310244396686
30
0
10
12.48823566139531
20
14.913403433407769
30
0
10
12.951936879424901
20
14.843101815885193
30
0
10
13.417466202752861
20
14.753835591397236
30
0
10
13.887288057330993
20
14.661682771735265
30
0
0
ARC
5
256
100
AcDbEntity
8
0
100
AcDbCircle
10
14.130852122922748
20
14.993744309901183
30
0
40
0.41181102362212579
210
0
220
0
230
1
100
AcDbArc
50
233.74029766576882
51
281.72491677213435
0
SPLINE
5
257
100
AcDbEntity
8
0
100
AcDbSpline
70
0
71
3
72
32
73
28
74
0
42
0.000000001
43
0.0000000001
44
0.0000000001
40
-192.9542004693111
40
-192.9542004693111
40
-192.9542004693111
40
-192.9542004693111
40
-175.72385219782836
40
-175.72385219782836
40
-175.72385219782836
40
-156.27904721985988
40
-156.27904721985988
40
-156.27904721985988
40
-132.58042561947377
40
-132.58042561947377
40
-132.58042561947377
40
-101.54932196433083
40
-101.54932196433083
40
-101.54932196433083
40
-73.123849678033821
40
-73.123849678033821
40
-73.123849678033821
40
-38.702237455015592
40
-38.702237455015592
40
-38.702237455015592
40
-35.853742041514124
40
-35.853742041514124
40
-35.853742041514124
40
-16.98343887071087
40
-16.98343887071087
40
-16.98343887071087
40
-0.2097664970618679
40
-0.2097664970618679
40
-0.2097664970618679
40
-0.2097664970618679
10
14.21453752600778
20
14.5905259168594
30
0
10
14.433136262985458
20
14.53867912078079
30
0
10
14.648740307461727
20
14.486222017783243
30
0
10
14.860239447407384
20
14.428901718382285
30
0
10
15.098920608371376
20
14.364214573028697
30
0
10
15.335801005482692
20
14.292442015468731
30
0
10
15.570376060530974
20
14.213788351311752
30
0
10
15.856267612170482
20
14.117928124045287
30
0
10
16.137148328061809
20
14.01236946321414
30
0
10
16.411198165132642
20
13.894148316272062
30
0
10
16.770040508127039
20
13.739348905283125
30
0
10
17.117003078776154
20
13.562878341811491
30
0
10
17.443554768467934
20
13.360048344001553
30
0
10
17.742686443207418
20
13.174249651642747
30
0
10
18.022437124208775
20
12.967713391981469
30
0
10
18.27360606432638
20
12.732537628159745
30
0
10
18.577757206376621
20
12.447753302854938
30
0
10
18.838066897501232
20
12.121793242537647
30
0
10
19.011477570812822
20
11.769144448987483
30
0
10
19.025827843088852
20
11.739961665087177
30
0
10
19.039594349374024
20
11.710590696895363
30
0
10
19.052758938323045
20
11.681034761572223
30
0
10
19.139969815830344
20
11.485236847557433
30
0
10
19.202316183293899
20
11.277505870714991
30
0
10
19.236279325264952
20
11.068024414242911
30
0
10
19.266468909981516
20
10.881817903016636
30
0
10
19.276150567897034
20
10.677413473552029
30
0
10
19.285261953890856
20
10.457323006388213
30
0
0
LINE
5
258
100
AcDbEntity
8
0
100
AcDbLine
10
19.285261953890853
20
10.457323006388213
30
0
11
19.285247897582554
21
2.5033737193930685
31
0
0
ARC
5
259
100
AcDbEntity
8
0
100
AcDbCircle
10
19.665381934388424
20
2.3449867463229759
30
0
40
0.41181102362204025
210
0
220
0
230
1
100
AcDbArc
50
157.38041874257826
51
180
0
ARC
5
260
100
AcDbEntity
8
0
100
AcDbCircle
10
-0.84399339055478562
20
15.631792205143025
30
0
40
0.50787401574802338
210
0
220
0
230
1
100
AcDbArc
50
259.77851804547925
51
290.4212500670551
0
LINE
5
261
100
AcDbEntity
8
0
100
AcDbLine
10
-0.66678616882194885
20
15.155836727773814
30
0
11
3.0313513451821534
21
15.159234167297676
31
0
0
ARC
5
262
100
AcDbEntity
8
0
100
AcDbCircle
10
3.2174284895277632
20
15.631782572612934
30
0
40
0.50786484325439474
210
0
220
0
230
1
100
AcDbArc
50
248.50678324924513
51
270.02013996188691
0
ARC
5
263
100
AcDbEntity
8
0
100
AcDbCircle
10
3.2174339941791876
20
15.631791746988872
30
0
40
0.50787401572470026
210
0
220
0
230
1
100
AcDbArc
50
270.01951859115985
51
291.52882800885476
0
LINE
5
264
100
AcDbEntity
8
0
100
AcDbLine
10
3.4038081733408085
20
15.159350553621731
30
0
11
7.2192184393684826
21
15.159350565059091
31
0
0
SPLINE
5
265
100
AcDbEntity
8
0
100
AcDbSpline
70
0
71
3
72
17
73
13
74
0
42
0.000000001
43
0.0000000001
44
0.0000000001
40
-174.88254055949244
40
-174.88254055949244
40
-174.88254055949244
40
-174.88254055949244
40
-159.57806044535982
40
-159.57806044535982
40
-159.57806044535982
40
-98.709185770871045
40
-98.709185770871045
40
-98.709185770871045
40
-39.493341781749223
40
-39.493341781749223
40
-39.493341781749223
40
-3.4821868851001838
40
-3.4821868851001838
40
-3.4821868851001838
40
-3.4821868851001838
10
7.2192184393684826
20
15.159350565059082
30
0
10
7.4199951985725283
20
15.154247651083754
30
0
10
7.6203811540359743
20
15.149149245951596
30
0
10
7.8203534222133069
20
15.143587760693073
30
0
10
8.6156817730809223
20
15.121468659182888
30
0
10
9.4079969116664994
20
15.091912955740918
30
0
10
10.197275902724995
20
15.042525979133428
30
0
10
10.965120254182999
20
14.994480216540918
30
0
10
11.726118415218878
20
14.927805078863562
30
0
10
12.473245982157612
20
14.814533268462267
30
0
10
12.927599491761049
20
14.745648854511598
30
0
10
13.384869287153141
20
14.658262257962278
30
0
10
13.84738432276286
20
14.567602866042874
30
0
0
ARC
5
266
100
AcDbEntity
8
0
100
AcDbCircle
10
14.130852122922748
20
14.993744309901183
30
0
40
0.51181102362212882
210
0
220
0
230
1
100
AcDbArc
50
236.36828783723703
51
279.10635331912158
0
SPLINE
5
267
100
AcDbEntity
8
0
100
AcDbSpline
70
0
71
3
72
32
73
28
74
0
42
0.000000001
43
0.0000000001
44
0.0000000001
40
-192.4171663262554
40
-192.4171663262554
40
-192.4171663262554
40
-192.4171663262554
40
-175.72385219782836
40
-175.72385219782836
40
-175.72385219782836
40
-156.27904721985988
40
-156.27904721985988
40
-156.27904721985988
40
-132.58042561947377
40
-132.58042561947377
40
-132.58042561947377
40
-101.54932196433083
40
-101.54932196433083
40
-101.54932196433083
40
-73.123849678033821
40
-73.123849678033821
40
-73.123849678033821
40
-40.569898749752952
40
-40.569898749752952
40
-40.569898749752952
40
-35.853742041514124
40
-35.853742041514124
40
-35.853742041514124
40
-16.98343887071087
40
-16.98343887071087
40
-16.98343887071087
40
0
40
0
40
0
40
0
10
14.211855203267959
20
14.488384017757335
30
0
10
14.423067134427122
20
14.438206950785776
30
0
10
14.630806828330474
20
14.387474835996255
30
0
10
14.834081198712035
20
14.332383605961912
30
0
10
15.070860454088161
20
14.268211913284661
30
0
10
15.305864144676359
20
14.19700822795407
30
0
10
15.538585280222199
20
14.118976188129176
30
0
10
15.822217342151433
20
14.023873574006194
30
0
10
16.100475786933519
20
13.919281547971652
30
0
10
16.371588045471299
20
13.802327630038437
30
0
10
16.726583907202293
20
13.649187535586634
30
0
10
17.069117403623682
20
13.47490147495135
30
0
10
17.390791679637779
20
13.275100969368191
30
0
10
17.685455489203513
20
13.092077387694806
30
0
10
17.959798612384091
20
12.88937053144709
30
0
10
18.205257613275798
20
12.659541126606685
30
0
10
18.486366760362355
20
12.396331597783576
30
0
10
18.727630114521791
20
12.098378616522121
30
0
10
18.893859249374248
20
11.780018214656895
30
0
10
18.917941200322883
20
11.733896699385152
30
0
10
18.940482134197339
20
11.687333842041619
30
0
10
18.961410639551083
20
11.640347069189042
30
0
10
19.045149850389205
20
11.452343424781539
30
0
10
19.105020658421747
20
11.252771026738278
30
0
10
19.137568269459717
20
11.052020431556869
30
0
10
19.166861405740967
20
10.871343129731777
30
0
10
19.176451833977762
20
10.668162656928564
30
0
10
19.185689500116965
20
10.444923947489798
30
0
0
LINE
5
268
100
AcDbEntity
8
0
100
AcDbLine
10
19.285261953890853
20
10.457323006388213
30
0
11
19.13722265394064
21
11.054145815035289
31
0
0
LINE
5
269
100
AcDbEntity
8
0
100
AcDbLine
10
-0.84539066404412755
20
15.624043156762987
30
0
11
-0.8453906640441301
21
15.222452553300878
31
0
0
LINE
5
270
100
AcDbEntity
8
0
100
AcDbLine
10
-0.84539066404412755
20
15.624043156762987
30
0
11
-0.84539066404413088
21
15.123920111502491
31
0
0
LINE
5
271
100
AcDbEntity
8
0
100
AcDbLine
10
4.1095728791990433
20
18.123940983161049
30
0
11
1.5788943556007879
21
11.872536966150546
31
0
0
SPLINE
5
272
100
AcDbEntity
8
0
100
AcDbSpline
70
0
71
3
72
11
73
7
74
0
42
0.000000001
43
0.0000000001
44
0.0000000001
40
-175.04390341281442
40
-175.04390341281442
40
-175.04390341281442
40
-175.04390341281442
40
-159.57806044535982
40
-98.709185770871045
40
-39.493341781749223
40
-0
40
-0
40
-0
40
-0
10
7.2255713343652888
20
15.659350565078137
30
-0.1181102362204741
10
7.4284733091553763
20
15.654193689829768
30
-0.1181102362204741
10
8.4299360155328582
20
15.6287409151682
30
-0.1181102362204741
10
10.207253137926438
20
15.562544070060133
30
-0.1181102362204741
10
12.297409339951866
20
15.380204378986045
30
-0.1181102362204741
10
13.569350911446957
20
15.131858541901025
30
-0.1181102362204741
10
14.078150546073008
20
15.031838792785916
30
-0.1181102362204741
0
SPLINE
5
273
100
AcDbEntity
8
0
100
AcDbSpline
70
0
71
3
72
11
73
7
74
0
42
0.000000001
43
0.0000000001
44
0.0000000001
40
0
40
0
40
0
40
0
40
39.493341781749223
40
98.709185770871045
40
159.57806044535982
40
175.04390341281442
40
175.04390341281442
40
175.04390341281442
40
175.04390341281442
10
14.078150546073008
20
15.031838792785916
30
-2.7974123455122052e-15
10
13.569350911446957
20
15.131858541901025
30
-2.7974123455122052e-15
10
12.297409339951866
20
15.380204378986045
30
-2.7974123455122052e-15
10
10.207253137926438
20
15.562544070060133
30
-2.7974123455122052e-15
10
8.4299360155328582
20
15.6287409151682
30
-2.7974123455122052e-15
10
7.4284733091553763
20
15.654193689829768
30
-2.7974123455122052e-15
10
7.2255713343652888
20
15.659350565078137
30
-2.7974123455122052e-15
0
LINE
5
274
100
AcDbEntity
8
0
100
AcDbLine
10
3.2764890534286923
20
15.659350553240071
30
-0.1181102362204741
11
7.2255713343652888
21
15.659350565078137
31
-0.1181102362204741
0
ENDSEC
0
SECTION
2
OBJECTS
0
DICTIONARY
5
C
100
AcDbDictionary
3
ACAD_GROUP
350
D
3
ACAD_MLINESTYLE
350
17
0
DICTIONARY
5
D
100
AcDbDictionary
0
DICTIONARY
5
1A
330
C
100
AcDbDictionary
0
DICTIONARY
5
17
100
AcDbDictionary
0
ENDSEC
0
EOF
