0
SECTION
2
HEADER
9
$INSUNITS
70
1
9
$ACADVER
1
AC1014
9
$HANDSEED
5
FFFF
0
ENDSEC
0
SECTION
2
TABLES
0
TABLE
2
VPORT
5
8
100
AcDbSymbolTable
0
ENDTAB
0
TABLE
2
LTYPE
5
5
100
AcDbSymbolTable
0
LTYPE
5
14
100
AcDbSymbolTableRecord
100
AcDbLinetypeTableRecord
2
BYBLOCK
70
0
0
LTYPE
5
15
100
AcDbSymbolTableRecord
100
AcDbLinetypeTableRecord
2
BYLAYER
70
0
0
ENDTAB
0
TABLE
2
LAYER
5
2
100
AcDbSymbolTable
70
2
0
LAYER
5
50
100
AcDbSymbolTableRecord
100
AcDbLayerTableRecord
2
0
70
0
6
CONTINUOUS
0
ENDTAB
0
TABLE
2
STYLE
5
3
100
AcDbSymbolTable
70
1
0
STYLE
5
11
100
AcDbSymbolTableRecord
100
AcDbTextStyleTableRecord
2
STANDARD
70
0
0
ENDTAB
0
TABLE
2
VIEW
5
6
100
AcDbSymbolTable
70
0
0
ENDTAB
0
TABLE
2
UCS
5
7
100
AcDbSymbolTable
70
0
0
ENDTAB
0
TABLE
2
APPID
5
9
100
AcDbSymbolTable
70
2
0
APPID
5
12
100
AcDbSymbolTableRecord
100
AcDbRegAppTableRecord
2
ACAD
70
0
0
ENDTAB
0
TABLE
2
DIMSTYLE
5
A
100
AcDbSymbolTable
70
1
0
ENDTAB
0
TABLE
2
BLOCK_RECORD
5
1
100
AcDbSymbolTable
70
1
0
BLOCK_RECORD
5
1F
100
AcDbSymbolTableRecord
100
AcDbBlockTableRecord
2
*MODEL_SPACE
0
BLOCK_RECORD
5
1B
100
AcDbSymbolTableRecord
100
AcDbBlockTableRecord
2
*PAPER_SPACE
0
ENDTAB
0
ENDSEC
0
SECTION
2
BLOCKS
0
BLOCK
5
20
100
AcDbEntity
100
AcDbBlockBegin
2
*MODEL_SPACE
0
ENDBLK
5
21
100
AcDbEntity
100
AcDbBlockEnd
0
BLOCK
5
1C
100
AcDbEntity
100
AcDbBlockBegin
2
*PAPER_SPACE
0
ENDBLK
5
1D
100
AcDbEntity
100
AcDbBlockEnd
0
ENDSEC
0
SECTION
2
ENTITIES
0
CIRCLE
5
100
100
AcDbEntity
8
0
100
AcDbCircle
10
-15.23660879111295
20
10.838394175242003
30
0
40
0.078740157480288092
210
-0
220
0
230
1
0
CIRCLE
5
101
100
AcDbEntity
8
0
100
AcDbCircle
10
-7.4642883018394404
20
5.8717584841596002
30
0
40
0.078740157480332862
210
0
220
-0
230
1
0
CIRCLE
5
102
100
AcDbEntity
8
0
100
AcDbCircle
10
-15.692765967947111
20
14.28181190441447
30
0
40
0.078740157480288092
210
-0
220
0
230
1
0
CIRCLE
5
103
100
AcDbEntity
8
0
100
AcDbCircle
10
-7.4642883018393507
20
15.361598507863228
30
0
40
0.07874015748024335
210
0
220
-0
230
1
0
CIRCLE
5
104
100
AcDbEntity
8
0
100
AcDbCircle
10
-19.452998229701858
20
2.543265596218665
30
0
40
0.078740157480332862
210
0
220
-0
230
1
0
CIRCLE
5
105
100
AcDbEntity
8
0
100
AcDbCircle
10
-7.4642886758661824
20
10.204206733467375
30
0
40
0.078740157480332862
210
0
220
-0
230
1
0
CIRCLE
5
106
100
AcDbEntity
8
0
100
AcDbCircle
10
-7.4642883018394404
20
13.499392019166446
30
0
40
0.078740157480332862
210
0
220
-0
230
1
0
CIRCLE
5
107
100
AcDbEntity
8
0
100
AcDbCircle
10
-15.23660879111295
20
13.090885601032499
30
0
40
0.078740157480288092
210
0
220
-0
230
1
0
CIRCLE
5
108
100
AcDbEntity
8
0
100
AcDbCircle
10
-18.926496638472084
20
12.165275550319187
30
0
40
0.078740157480288092
210
0
220
-0
230
1
0
CIRCLE
5
109
100
AcDbEntity
8
0
100
AcDbCircle
10
-17.505939529759797
20
2.5570834933724753
30
0
40
0.088582677165363277
210
-0
220
0
230
1
0
CIRCLE
5
110
100
AcDbEntity
8
0
100
AcDbCircle
10
-8.415803177538967
20
13.090885601032499
30
0
40
0.078740157480332862
210
-0
220
0
230
1
0
CIRCLE
5
111
100
AcDbEntity
8
0
100
AcDbCircle
10
-10.777556751923177
20
5.0083550158421932
30
0
40
0.10236220472440585
210
0
220
-0
230
1
0
CIRCLE
5
112
100
AcDbEntity
8
0
100
AcDbCircle
10
-8.415803177538967
20
10.838394175242003
30
0
40
0.078740157480332862
210
0
220
0
230
1
0
CIRCLE
5
113
100
AcDbEntity
8
0
100
AcDbCircle
10
-10.255159510196268
20
2.543265596218665
30
0
40
0.078740157480422387
210
0
220
-0
230
1
0
CIRCLE
5
114
100
AcDbEntity
8
0
100
AcDbCircle
10
-10.777556751923177
20
6.3445924541642125
30
0
40
0.10236220472440585
210
-0
220
0
230
1
0
CIRCLE
5
115
100
AcDbEntity
8
0
100
AcDbCircle
10
-11.81155030380061
20
15.134635638676382
30
0
40
0.07874015748024335
210
0
220
-0
230
1
0
CIRCLE
5
116
100
AcDbEntity
8
0
100
AcDbCircle
10
-9.4412707655374248
20
6.3445924541642569
30
0
40
0.10236220472440585
210
-0
220
0
230
1
0
CIRCLE
5
117
100
AcDbEntity
8
0
100
AcDbCircle
10
-19.452998229701858
20
6.9499733626221678
30
0
40
0.078740157480332862
210
0
220
-0
230
1
0
LWPOLYLINE
5
118
100
AcDbEntity
8
0
100
AcDbPolyline
90
8
70
1
43
0.0
10
-14.995497322908617
20
13.578813116483694
42
-0.41421356237309503
10
-14.956127244168496
20
13.618183195223816
10
-8.6962847244834247
20
13.61818319522386
42
-0.41421356237311585
10
-8.6569146457432549
20
13.578813116483694
10
-8.6569146457432993
20
10.350466659790763
42
-0.41421356237209606
10
-8.6962847244834212
20
10.311096581050597
10
-14.956127244168494
20
10.311096581050641
42
-0.41421356237311585
10
-14.995497322908617
20
10.350466659790763
0
CIRCLE
5
119
100
AcDbEntity
8
0
100
AcDbCircle
10
-14.332314665421791
20
2.543265596218665
30
0
40
0.078740157480332862
210
0
220
0
230
1
0
LINE
5
120
100
AcDbEntity
8
0
100
AcDbLine
10
-16.771687561255856
20
2.3447874054250932
30
0
11
-10.109395525940668
21
2.3448238654896785
31
0
0
LINE
5
121
100
AcDbEntity
8
0
100
AcDbLine
10
-10.109395525940668
20
2.3448238654896785
30
0
11
-10.109411066210763
21
5.1844737350105943
31
0
0
ARC
5
122
100
AcDbEntity
8
0
100
AcDbCircle
10
-10.109413758730344
20
5.6764737350032259
30
0
40
0.49199999999999916
210
0
220
0
230
1
100
AcDbArc
50
0
51
270.00031355692738
0
LINE
5
123
100
AcDbEntity
8
0
100
AcDbLine
10
-9.6174137587303452
20
5.6764737350032251
30
0
11
-7.2550368277680448
21
5.6764737350032251
31
0
0
ARC
5
124
100
AcDbEntity
8
0
100
AcDbCircle
10
-7.2432258043155553
20
5.6764717332116525
30
0
40
0.011811023622125405
210
0
220
0
230
1
100
AcDbArc
50
123.55730899937826
51
179.99028922361171
0
ARC
5
125
100
AcDbEntity
8
0
100
AcDbCircle
10
-7.2823985346517333
20
5.735526853582761
30
0
40
0.059055118110278221
210
0
220
0
230
1
100
AcDbArc
50
-56.442694053618723
51
0
0
LINE
5
126
100
AcDbEntity
8
0
100
AcDbLine
10
-7.223343416541459
20
5.7355268538582491
30
0
11
-7.222575406349053
21
15.62153414007024
31
0
0
ARC
5
127
100
AcDbEntity
8
0
100
AcDbCircle
10
-7.2271466131179416
20
15.627945395226266
30
0
40
0.0078740157479933823
210
0
220
0
230
1
100
AcDbArc
50
211.28322164644393
51
305.48876170517661
0
ARC
5
128
100
AcDbEntity
8
0
100
AcDbCircle
10
-7.2843449823272239
20
15.593191179383549
30
0
40
0.059055118110465404
210
0
220
-0
230
1
100
AcDbArc
50
31.283221645851508
51
91.40807665830755
0
SPLINE
5
129
100
AcDbEntity
8
0
100
AcDbSpline
70
0
71
3
72
14
73
10
74
0
42
0.000000001
43
0.0000000001
44
0.0000000001
40
0
40
0
40
0
40
0
40
94.074213406790932
40
190.22246044394524
40
260.82798094401551
40
305.05722477397285
40
337.93346459869917
40
356.48090088397203
40
372.11344451039531
40
372.11344451039531
40
372.11344451039531
40
372.11344451039531
10
-7.2857961496565693
20
15.65222846496146
30
0
10
-8.520546877805673
20
15.621877646842107
30
0
10
-11.017135388002941
20
15.558136504220114
30
0
10
-14.417062041218784
20
15.061800101801222
30
0
10
-17.06159034804892
20
14.151948421493785
30
0
10
-18.672669908471786
20
13.025727489178491
30
0
10
-19.422563377215209
20
11.979459414607364
30
0
10
-19.659284320224369
20
11.120168889867857
30
0
10
-19.677013370482886
20
10.671184785770947
30
0
10
-19.68512192269203
20
10.465837573367708
30
0
0
LINE
5
130
100
AcDbEntity
8
0
100
AcDbLine
10
-19.685121922692034
20
10.465837573367708
30
0
11
-19.685077779030188
21
2.4038265796223155
31
0
0
ARC
5
131
100
AcDbEntity
8
0
100
AcDbCircle
10
-19.626022660920988
20
2.4038269029793735
30
0
40
0.059055118110085889
210
0
220
0
230
1
100
AcDbArc
50
180.00031372318955
51
236.44300396199415
0
ARC
5
132
100
AcDbEntity
8
0
100
AcDbCircle
10
-19.665195071307394
20
2.3447715703792369
30
0
40
0.01181102362198137
210
0
220
-0
230
1
100
AcDbArc
50
0.00031372318952684839
51
56.443003962335979
0
LINE
5
133
100
AcDbEntity
8
0
100
AcDbLine
10
-19.653384047685591
20
2.3447716350506598
30
0
11
-16.968537954956645
21
2.3447863281414758
31
0
0
SPLINE
5
134
100
AcDbEntity
8
0
100
AcDbSpline
70
0
71
3
72
14
73
10
74
0
42
0.000000001
43
0.0000000001
44
0.0000000001
40
0
40
0
40
0
40
0
40
94.074213406790932
40
190.22246044394524
40
260.82798094401551
40
305.05722477397285
40
337.93346459869917
40
356.48090088397203
40
372.11344451039531
40
372.11344451039531
40
372.11344451039531
40
372.11344451039531
10
-7.2857961496565693
20
15.65222846496146
30
0
10
-8.520546877805673
20
15.621877646842107
30
0
10
-11.017135388002941
20
15.558136504220114
30
0
10
-14.417062041218784
20
15.061800101801222
30
0
10
-17.06159034804892
20
14.151948421493785
30
0
10
-18.672669908471786
20
13.025727489178491
30
0
10
-19.422563377215209
20
11.979459414607364
30
0
10
-19.659284320224369
20
11.120168889867857
30
0
10
-19.677013370482886
20
10.671184785770947
30
0
10
-19.68512192269203
20
10.465837573367708
30
0
0
ARC
5
135
100
AcDbEntity
8
0
100
AcDbCircle
10
-7.2843449823272239
20
15.593191179383549
30
0
40
0.059055118110381666
210
0
220
-0
230
1
100
AcDbArc
50
31.283221645928954
51
91.408076658308602
0
ARC
5
136
100
AcDbEntity
8
0
100
AcDbCircle
10
-7.2271466131179416
20
15.627945395226266
30
0
40
0.0078740157480771313
210
0
220
0
230
1
100
AcDbArc
50
211.28322164586308
51
305.48876170520293
0
ARC
5
137
100
AcDbEntity
8
0
100
AcDbCircle
10
-7.2271466131179647
20
15.627945395226282
30
0
40
0.0078740157480200416
210
0
220
0
230
1
100
AcDbArc
50
305.48876170524363
51
335.59950050998003
0
ARC
5
138
100
AcDbEntity
8
0
100
AcDbCircle
10
-7.1661955856921793
20
15.600296142267267
30
0
40
0.059055117919242325
210
0
220
-0
230
1
100
AcDbArc
50
89.999999815002013
51
155.59950050981092
0
LINE
5
139
100
AcDbEntity
8
0
100
AcDbLine
10
-0.90304850870470266
20
15.659351260186586
30
0
11
-7.1661955855015007
21
15.659351260186508
31
0
0
LINE
5
140
100
AcDbEntity
8
0
100
AcDbLine
10
-19.685121922692034
20
10.465837573367708
30
0
11
-19.685077779030188
21
2.4038265796223155
31
0
0
ARC
5
141
100
AcDbEntity
8
0
100
AcDbCircle
10
-19.626022660920988
20
2.4038269029793735
30
0
40
0.059055118110085889
210
0
220
0
230
1
100
AcDbArc
50
180.00031372318955
51
236.44300396199415
0
ARC
5
142
100
AcDbEntity
8
0
100
AcDbCircle
10
-19.665195071307394
20
2.3447715703792369
30
0
40
0.01181102362198137
210
0
220
-0
230
1
100
AcDbArc
50
0.00031372318952684839
51
56.443003962335979
0
ARC
5
143
100
AcDbEntity
8
0
100
AcDbCircle
10
-19.665195071307487
20
2.3447715703792285
30
0
40
0.011811023622118959
210
0
220
0
230
1
100
AcDbArc
50
-56.442376514056292
51
0.00031372318952684839
0
ARC
5
144
100
AcDbEntity
8
0
100
AcDbCircle
10
-19.626022014206434
20
2.2857166667607549
30
0
40
0.059055118110230925
210
0
220
0
230
1
100
AcDbArc
50
123.55762348586957
51
180.00031372318955
0
CIRCLE
5
145
100
AcDbEntity
8
0
100
AcDbCircle
10
-14.332314665421807
20
2.543265596218665
30
0
40
0.078740157480332862
210
0
220
-0
230
1
0
LWPOLYLINE
5
146
100
AcDbEntity
8
0
100
AcDbPolyline
90
8
70
1
43
0.0
10
-14.956127244168513
20
13.61818319522386
10
-8.6962847244834371
20
13.61818319522386
42
-0.41421356237309503
10
-8.6569146457432709
20
13.578813116483694
10
-8.656914645743317
20
10.350466659790763
42
-0.41421356237209606
10
-8.6962847244834371
20
10.311096581050597
10
-14.956127244168513
20
10.311096581050641
42
-0.41421356237309503
10
-14.995497322908633
20
10.350466659790763
10
-14.99549732290868
20
13.578813116483694
42
-0.41421356237309503
0
CIRCLE
5
147
100
AcDbEntity
8
0
100
AcDbCircle
10
-19.452998229701883
20
6.9499733626221678
30
0
40
0.078740157480332862
210
0
220
-0
230
1
0
CIRCLE
5
148
100
AcDbEntity
8
0
100
AcDbCircle
10
-9.4412707655374408
20
6.3445924541642569
30
0
40
0.10236220472440585
210
0
220
-0
230
1
0
CIRCLE
5
149
100
AcDbEntity
8
0
100
AcDbCircle
10
-11.811550303800628
20
15.134635638676382
30
0
40
0.078740157480243336
210
0
220
-0
230
1
0
CIRCLE
5
150
100
AcDbEntity
8
0
100
AcDbCircle
10
-10.777556751923193
20
6.3445924541642125
30
0
40
0.10236220472440585
210
0
220
-0
230
1
0
CIRCLE
5
151
100
AcDbEntity
8
0
100
AcDbCircle
10
-10.255159510196286
20
2.543265596218665
30
0
40
0.078740157480422374
210
0
220
-0
230
1
0
CIRCLE
5
152
100
AcDbEntity
8
0
100
AcDbCircle
10
-8.415803177538983
20
10.838394175242003
30
0
40
0.078740157480332862
210
0
220
-0
230
1
0
CIRCLE
5
153
100
AcDbEntity
8
0
100
AcDbCircle
10
-10.777556751923193
20
5.0083550158421932
30
0
40
0.10236220472440585
210
0
220
-0
230
1
0
CIRCLE
5
154
100
AcDbEntity
8
0
100
AcDbCircle
10
-8.415803177538983
20
13.090885601032499
30
0
40
0.078740157480332862
210
0
220
-0
230
1
0
CIRCLE
5
155
100
AcDbEntity
8
0
100
AcDbCircle
10
-17.505939529759818
20
2.5570834933724753
30
0
40
0.088582677165363277
210
0
220
-0
230
1
0
CIRCLE
5
156
100
AcDbEntity
8
0
100
AcDbCircle
10
-18.926496638472106
20
12.165275550319187
30
0
40
0.078740157480288092
210
0
220
-0
230
1
0
CIRCLE
5
157
100
AcDbEntity
8
0
100
AcDbCircle
10
-15.236608791112968
20
13.090885601032499
30
0
40
0.078740157480288092
210
0
220
-0
230
1
0
CIRCLE
5
158
100
AcDbEntity
8
0
100
AcDbCircle
10
-7.4642883018394572
20
13.499392019166446
30
0
40
0.078740157480332862
210
0
220
-0
230
1
0
CIRCLE
5
159
100
AcDbEntity
8
0
100
AcDbCircle
10
-7.4642886758661993
20
10.204206733467375
30
0
40
0.078740157480332862
210
0
220
-0
230
1
0
CIRCLE
5
160
100
AcDbEntity
8
0
100
AcDbCircle
10
-19.452998229701883
20
2.543265596218665
30
0
40
0.078740157480332862
210
0
220
-0
230
1
0
CIRCLE
5
161
100
AcDbEntity
8
0
100
AcDbCircle
10
-7.4642883018393675
20
15.361598507863228
30
0
40
0.078740157480243336
210
0
220
-0
230
1
0
CIRCLE
5
162
100
AcDbEntity
8
0
100
AcDbCircle
10
-15.692765967947132
20
14.28181190441447
30
0
40
0.078740157480288092
210
0
220
-0
230
1
0
CIRCLE
5
163
100
AcDbEntity
8
0
100
AcDbCircle
10
-7.4642883018394572
20
5.8717584841596002
30
0
40
0.078740157480332862
210
0
220
-0
230
1
0
CIRCLE
5
164
100
AcDbEntity
8
0
100
AcDbCircle
10
-15.236608791112968
20
10.838394175242003
30
0
40
0.078740157480288092
210
0
220
-0
230
1
0
LINE
5
165
100
AcDbEntity
8
0
100
AcDbLine
10
-10.109411066210779
20
5.1844737350105943
30
0
11
-10.109395525940688
21
2.3448238654896785
31
0
0
ARC
5
166
100
AcDbEntity
8
0
100
AcDbCircle
10
-10.109413758730362
20
5.6764737350032251
30
0
40
0.49199999999999916
210
0
220
-0
230
1
100
AcDbArc
50
0
51
270.00031355692761
0
LINE
5
167
100
AcDbEntity
8
0
100
AcDbLine
10
-7.2550368277680617
20
5.6764737350032251
30
0
11
-9.617413758730363
21
5.6764737350032251
31
0
0
ARC
5
168
100
AcDbEntity
8
0
100
AcDbCircle
10
-7.2432258043155704
20
5.6764717332116525
30
0
40
0.011811023622126177
210
0
220
0
230
1
100
AcDbArc
50
123.55730899938307
51
179.99028922364926
0
ARC
5
169
100
AcDbEntity
8
0
100
AcDbCircle
10
-7.2823985346517501
20
5.735526853582761
30
0
40
0.059055118110277638
210
0
220
0
230
1
100
AcDbArc
50
-56.442694053618212
51
0
0
LINE
5
170
100
AcDbEntity
8
0
100
AcDbLine
10
-7.2225754063268175
20
15.621534140070239
30
0
11
-7.2233434165414749
21
5.7355268538582491
31
0
0
ARC
5
171
100
AcDbEntity
8
0
100
AcDbCircle
10
-7.2271466131179585
20
15.627945395226268
30
0
40
0.0078740157479936391
210
0
220
0
230
1
100
AcDbArc
50
211.2832216464617
51
305.48876183700264
0
ARC
5
172
100
AcDbEntity
8
0
100
AcDbCircle
10
-7.2843449823272408
20
15.593191179383549
30
0
40
0.059055118110466605
210
0
220
-0
230
1
100
AcDbArc
50
31.283221645850602
51
91.40807665830755
0
SPLINE
5
173
100
AcDbEntity
8
0
100
AcDbSpline
70
0
71
3
72
14
73
10
74
0
42
0.000000001
43
0.0000000001
44
0.0000000001
40
-372.11344451039531
40
-372.11344451039531
40
-372.11344451039531
40
-372.11344451039531
40
-356.48090088397203
40
-337.93346459869917
40
-305.05722477397285
40
-260.82798094401551
40
-190.22246044394524
40
-94.074213406790932
40
0
40
0
40
0
40
0
10
-19.685121922692055
20
10.465837573367708
30
0
10
-19.677013370482907
20
10.671184785770947
30
0
10
-19.659284320224394
20
11.120168889867857
30
0
10
-19.42256337721523
20
11.979459414607364
30
0
10
-18.672669908471807
20
13.025727489178491
30
0
10
-17.061590348048945
20
14.151948421493785
30
0
10
-14.4170620412188
20
15.061800101801222
30
0
10
-11.017135388002959
20
15.558136504220114
30
0
10
-8.520546877805689
20
15.621877646842107
30
0
10
-7.2857961496565862
20
15.65222846496146
30
0
0
LINE
5
174
100
AcDbEntity
8
0
100
AcDbLine
10
-19.685077779030212
20
2.4038265796223142
30
0
11
-19.685121922692055
21
10.465837573367708
31
0
0
ARC
5
175
100
AcDbEntity
8
0
100
AcDbCircle
10
-19.626022660921009
20
2.4038269029793735
30
0
40
0.059055118110085889
210
0
220
0
230
1
100
AcDbArc
50
180.00031372318955
51
236.44300396199415
0
ARC
5
176
100
AcDbEntity
8
0
100
AcDbCircle
10
-19.665195071307426
20
2.3447715703792307
30
0
40
0.011811023621989762
210
0
220
-0
230
1
100
AcDbArc
50
0.00031372318952684839
51
56.443003962309568
0
LINE
5
177
100
AcDbEntity
8
0
100
AcDbLine
10
-16.968537954956666
20
2.3447863281414776
30
0
11
-19.653384047685613
21
2.3447716350506598
31
0
0
LINE
5
178
100
AcDbEntity
8
0
100
AcDbLine
10
-10.109395525940688
20
2.3448238654896785
30
0
11
-16.771687561255877
21
2.3447874054250932
31
0
0
CIRCLE
5
179
100
AcDbEntity
8
0
100
AcDbCircle
10
-17.505939529759818
20
0.55708349337250429
30
0
40
0.088582677165318521
210
0
220
-0
230
1
0
CIRCLE
5
180
100
AcDbEntity
8
0
100
AcDbCircle
10
-9.971492878098795
20
-0.90643327955279529
30
0
40
0.088582677165318521
210
0
220
-0
230
1
0
CIRCLE
5
181
100
AcDbEntity
8
0
100
AcDbCircle
10
-19.452998229701883
20
-1.360639323148237
30
0
40
0.082677165354345022
210
0
220
-0
230
1
0
CIRCLE
5
182
100
AcDbEntity
8
0
100
AcDbCircle
10
-7.464289383479664
20
-1.3602164163662482
30
0
40
0.082677165354300267
210
0
220
-0
230
1
0
CIRCLE
5
183
100
AcDbEntity
8
0
100
AcDbCircle
10
-9.9712297947114106
20
1.1190311157725892
30
0
40
0.088582677165273752
210
0
220
-0
230
1
0
CIRCLE
5
184
100
AcDbEntity
8
0
100
AcDbCircle
10
-1.2617121070905641
20
-1.6528378046830843
30
0
40
0.19150000000000253
210
0
220
-0
230
1
0
CIRCLE
5
185
100
AcDbEntity
8
0
100
AcDbCircle
10
1.9497223810984097
20
-1.6200952880185879
30
0
40
0.26549999999999846
210
0
220
-0
230
1
0
CIRCLE
5
186
100
AcDbEntity
8
0
100
AcDbCircle
10
-8.5137866638596229
20
-0.90643327955275055
30
0
40
0.088582677165408033
210
0
220
-0
230
1
0
CIRCLE
5
187
100
AcDbEntity
8
0
100
AcDbCircle
10
-2.7881456189015896
20
-0.048310804683078308
30
0
40
0.37400000000000166
210
0
220
-0
230
1
0
CIRCLE
5
188
100
AcDbEntity
8
0
100
AcDbCircle
10
-10.999323325980177
20
-0.20074297467713928
30
0
40
0.19150000000000253
210
0
220
-0
230
1
0
CIRCLE
5
189
100
AcDbEntity
8
0
100
AcDbCircle
10
-1.9784121070905656
20
-1.6528378046830843
30
0
40
0.083136237453994968
210
0
220
-0
230
1
0
CIRCLE
5
190
100
AcDbEntity
8
0
100
AcDbCircle
10
-0.22749761890158574
20
-0.048310804683078308
30
0
40
0.37400000000000166
210
0
220
-0
230
1
0
CIRCLE
5
191
100
AcDbEntity
8
0
100
AcDbCircle
10
-10.999323325980171
20
0.9052892771564518
30
0
40
0.19150000000000253
210
0
220
-0
230
1
0
CIRCLE
5
192
100
AcDbEntity
8
0
100
AcDbCircle
10
-8.5141431805382624
20
1.1190311157725445
30
0
40
0.088582677165408033
210
0
220
-0
230
1
0
CIRCLE
5
193
100
AcDbEntity
8
0
100
AcDbCircle
10
-13.458643265783298
20
-1.3606393231482816
30
0
40
0.082677165354345022
210
0
220
-0
230
1
0
CIRCLE
5
194
100
AcDbEntity
8
0
100
AcDbCircle
10
-4.7756317023085568
20
-1.3606393231483265
30
0
40
0.082677165354345022
210
0
220
-0
230
1
0
CIRCLE
5
195
100
AcDbEntity
8
0
100
AcDbCircle
10
1.9497223810984097
20
-0.28879201513091191
30
0
40
0.26549999999999846
210
0
220
-0
230
1
0
CIRCLE
5
196
100
AcDbEntity
8
0
100
AcDbCircle
10
-0.5450121070905628
20
-1.6528378046830843
30
0
40
0.083136237453994968
210
0
220
-0
230
1
0
LINE
5
197
100
AcDbEntity
8
0
100
AcDbLine
10
4.0016577558098421
20
-1.7877147625488483
30
0
11
3.2391593741586902
21
-2.5895832229401665
31
0
0
ARC
5
198
100
AcDbEntity
8
0
100
AcDbCircle
10
4.5484690069779408
20
-2.473515461017644
30
0
40
0.87711181865501975
210
0
220
-0
230
1
100
AcDbArc
50
89.348991564967207
51
128.56649728975069
0
LINE
5
199
100
AcDbEntity
8
0
100
AcDbLine
10
4.5584131785906123
20
2.3449041365510186
30
0
11
4.5584347481044771
21
-1.5964602595462001
31
0
0
LINE
5
200
100
AcDbEntity
8
0
100
AcDbLine
10
-16.771687561255877
20
2.3447874054250959
30
0
11
4.5584131785906123
21
2.3449041365510186
31
0
0
LINE
5
201
100
AcDbEntity
8
0
100
AcDbLine
10
-19.65338404768557
20
2.3447716350506598
30
0
11
-16.968537954956666
21
2.3447863281414758
31
0
0
ARC
5
202
100
AcDbEntity
8
0
100
AcDbCircle
10
-19.665195071307515
20
2.3447715703792307
30
0
40
0.011811023622124092
210
-0
220
0
230
1
100
AcDbArc
50
-56.442376514033498
51
0.00031372318952684839
0
ARC
5
203
100
AcDbEntity
8
0
100
AcDbCircle
10
-19.626022014206459
20
2.2857166667607562
30
0
40
0.059055118110228497
210
0
220
0
230
1
100
AcDbArc
50
123.5576234858674
51
180.00031372318955
0
LINE
5
204
100
AcDbEntity
8
0
100
AcDbLine
10
-19.685056198755039
20
-1.5374054883141042
30
0
11
-19.685077132315833
21
2.2857163434036067
31
0
0
ARC
5
205
100
AcDbEntity
8
0
100
AcDbCircle
10
-19.626001080645839
20
-1.5374051649570926
30
0
40
0.059055118110083085
210
0
220
0
230
1
100
AcDbArc
50
180.00031372318955
51
270.00000005567045
0
LINE
5
206
100
AcDbEntity
8
0
100
AcDbLine
10
-4.5584347452471379
20
-1.596460268412953
30
0
11
-19.626001080588459
21
-1.5964602830671419
31
0
0
ARC
5
207
100
AcDbEntity
8
0
100
AcDbCircle
10
-4.5484690069779914
20
-2.4735154610177785
30
0
40
0.87711181865516752
210
0
220
-0
230
1
100
AcDbArc
50
51.43350271024871
51
90.651008254971742
0
LINE
5
208
100
AcDbEntity
8
0
100
AcDbLine
10
-3.2391593741586484
20
-2.5895832229401639
30
0
11
-4.0016577558097906
21
-1.7877147625488705
31
0
0
ARC
5
209
100
AcDbEntity
8
0
100
AcDbCircle
10
-2.6823823810984564
20
-2.032806229880201
30
0
40
0.7874015748028721
210
0
220
0
230
1
100
AcDbArc
50
224.9999999999882
51
270.00000000001296
0
LINE
5
210
100
AcDbEntity
8
0
100
AcDbLine
10
2.6823823810983169
20
-2.8202078046830827
30
0
11
-2.6823823810982779
21
-2.8202078046830827
31
0
0
ARC
5
211
100
AcDbEntity
8
0
100
AcDbCircle
10
2.6823823810984133
20
-2.0328062298801153
30
0
40
0.78740157480296769
210
0
220
0
230
1
100
AcDbArc
50
269.99999999999295
51
315.0000000000116
0
CIRCLE
5
212
100
AcDbEntity
8
0
100
AcDbCircle
10
-9.8594911408839643
20
2.543265596218665
30
0
40
0.078740157480332862
210
0
220
-0
230
1
0
CIRCLE
5
213
100
AcDbEntity
8
0
100
AcDbCircle
10
-7.4642883018393675
20
5.4816029960420334
30
0
40
0.078740157480332862
210
0
220
-0
230
1
0
CIRCLE
5
214
100
AcDbEntity
8
0
100
AcDbCircle
10
-7.4642883018394572
20
2.543265596218665
30
0
40
0.078740157480243336
210
0
220
-0
230
1
0
CIRCLE
5
215
100
AcDbEntity
8
0
100
AcDbCircle
10
-9.4412707655374408
20
5.0083550158421932
30
0
40
0.10236220472440585
210
0
220
-0
230
1
0
LWPOLYLINE
5
216
100
AcDbEntity
8
0
100
AcDbPolyline
90
7
70
1
43
0.0
10
-7.249754593273054
20
5.6666292135265781
42
-0.25142572068110025
10
-7.2550368277680599
20
5.6764737350032251
10
-9.617413758730363
20
5.6764737350032251
42
-0.41421195948634676
10
-10.109411066210781
20
5.1844737350105943
10
-10.109395525940688
20
2.3448238654896785
10
-7.2243751517211168
20
2.3448396540544225
10
-7.2233434199496624
20
5.6174166151012912
42
0.25138067141345716
0
ARC
5
217
100
AcDbEntity
8
0
100
AcDbCircle
10
-7.2271466131179585
20
15.627945395226268
30
0
40
0.0078740157479948482
210
-0
220
0
230
1
100
AcDbArc
50
305.48876170516161
51
335.59950051001005
0
LINE
5
218
100
AcDbEntity
8
0
100
AcDbLine
10
-7.2226375886286887
20
14.821109247341353
30
0
11
-7.2225754063490699
21
15.621534140070239
31
0
0
ARC
5
219
100
AcDbEntity
8
0
100
AcDbCircle
10
-7.1832675102689745
20
14.821104433959098
30
0
40
0.039370078732173845
210
0
220
0
230
1
100
AcDbArc
50
90.000331009976293
51
179.99299502317751
0
LINE
5
220
100
AcDbEntity
8
0
100
AcDbLine
10
-0.88476074278434413
20
14.860232028578933
30
0
11
-7.1832677377183423
21
14.860474512690615
31
0
0
ARC
5
221
100
AcDbEntity
8
0
100
AcDbCircle
10
-0.88476074278425465
20
14.820861949838811
30
0
40
0.039370078740121668
210
0
220
0
230
1
100
AcDbArc
50
0
51
90.000000000130228
0
LINE
5
222
100
AcDbEntity
8
0
100
AcDbLine
10
-0.84539066404412755
20
15.624043156762987
30
0
11
-0.84539066404413288
21
14.820861949838767
31
0
0
ARC
5
223
100
AcDbEntity
8
0
100
AcDbCircle
10
-0.84399339055478562
20
15.631792205143025
30
0
40
0.007874015748024427
210
0
220
0
230
1
100
AcDbArc
50
208.0724869061689
51
259.77851804547828
0
ARC
5
224
100
AcDbEntity
8
0
100
AcDbCircle
10
-0.90304850850598595
20
15.60029614227504
30
0
40
0.059055117911497985
210
0
220
-0
230
1
100
AcDbArc
50
28.072486906148907
51
90.000000192807434
0
LINE
5
225
100
AcDbEntity
8
0
100
AcDbLine
10
-7.1661955855015176
20
15.659351260186586
30
0
11
-0.90304850870471376
21
15.659351260186586
31
0
0
ARC
5
226
100
AcDbEntity
8
0
100
AcDbCircle
10
-7.1661955856921962
20
15.600296142267267
30
0
40
0.059055117919320659
210
0
220
-0
230
1
100
AcDbArc
50
89.999999815002013
51
155.59950050981021
0
LWPOLYLINE
5
227
100
AcDbEntity
8
0
100
AcDbPolyline
90
10
70
1
43
0.0
10
-7.2497545932730247
20
5.6666292135266216
42
-0.25138067141346015
10
-7.22334341994969
20
5.6174166151012912
10
-7.2243751517211052
20
2.344839654054419
10
-0.84539066404413288
20
2.3448745636898978
10
-0.84539066404413277
20
14.820861949838767
42
0.41421356237408874
10
-0.88476074278434413
20
14.860232028578933
10
-7.183267737718344
20
14.860474512710352
42
0.41417606166492005
10
-7.2226375887069088
20
14.821109247341365
10
-7.223343416541474
20
5.7355268538582491
42
-0.251380690353184
10
-7.2497545931420175
20
5.6863142529836495
42
0.53667504621285445
0
CIRCLE
5
228
100
AcDbEntity
8
0
100
AcDbCircle
10
18.647920963996892
20
3.1949934441498957
30
0
40
0.070078740157434483
210
0
220
-0
230
1
0
CIRCLE
5
229
100
AcDbEntity
8
0
100
AcDbCircle
10
14.323312392137401
20
2.5432655956735051
30
0
40
0.10236220472440585
210
0
220
-0
230
1
0
CIRCLE
5
230
100
AcDbEntity
8
0
100
AcDbCircle
10
8.8775030252280338
20
2.5432655962186201
30
0
40
0.078740157480288092
210
0
220
-0
230
1
0
CIRCLE
5
231
100
AcDbEntity
8
0
100
AcDbCircle
10
-0.60436911735761911
20
10.204206733467375
30
0
40
0.078740157480332862
210
0
220
-0
230
1
0
CIRCLE
5
232
100
AcDbEntity
8
0
100
AcDbCircle
10
-0.60436911735752963
20
2.543265596218665
30
0
40
0.078740157480332862
210
0
220
-0
230
1
0
CIRCLE
5
233
100
AcDbEntity
8
0
100
AcDbCircle
10
10.268937028947745
20
3.1949934441498957
30
0
40
0.070078740157523994
210
0
220
-0
230
1
0
CIRCLE
5
234
100
AcDbEntity
8
0
100
AcDbCircle
10
2.9747253928240887
20
2.5432655956735051
30
0
40
0.10236220472440585
210
0
220
-0
230
1
0
CIRCLE
5
235
100
AcDbEntity
8
0
100
AcDbCircle
10
18.918868597832528
20
12.121328841504134
30
0
40
0.078740157480288092
210
0
220
-0
230
1
0
CIRCLE
5
236
100
AcDbEntity
8
0
100
AcDbCircle
10
19.452998229701922
20
2.543265596218665
30
0
40
0.078740157480332862
210
0
220
-0
230
1
0
CIRCLE
5
237
100
AcDbEntity
8
0
100
AcDbCircle
10
8.4556951666257802
20
2.543265596218665
30
0
40
0.078740157480332862
210
0
220
-0
230
1
0
CIRCLE
5
238
100
AcDbEntity
8
0
100
AcDbCircle
10
-0.60436911735752963
20
6.9090214477683487
30
0
40
0.078740157480332862
210
0
220
-0
230
1
0
CIRCLE
5
239
100
AcDbEntity
8
0
100
AcDbCircle
10
-0.60436911735761911
20
15.361598507863183
30
0
40
0.078740157480332862
210
0
220
-0
230
1
0
CIRCLE
5
240
100
AcDbEntity
8
0
100
AcDbCircle
10
8.6524008562154613
20
15.361598507863228
30
0
40
0.078740157480332862
210
0
220
-0
230
1
0
ARC
5
241
100
AcDbEntity
8
0
100
AcDbCircle
10
14.323815735044345
20
14.727804162213836
30
0
40
0.078740157480332862
210
0
220
0
230
1
100
AcDbArc
50
-180
51
0.00071088743739994721
0
ARC
5
242
100
AcDbEntity
8
0
100
AcDbCircle
10
14.323815735050433
20
14.727805139169144
30
0
40
0.078740157468183691
210
-0
220
0
230
1
100
AcDbArc
50
0
51
180.00071088743738
0
CIRCLE
5
243
100
AcDbEntity
8
0
100
AcDbCircle
10
7.7847089317724176
20
14.828729302392505
30
0
40
0.078740157480332862
210
0
220
-0
230
1
0
CIRCLE
5
244
100
AcDbEntity
8
0
100
AcDbCircle
10
19.452998229699684
20
6.9090202875188407
30
0
40
0.078740157480332862
210
0
220
-0
230
1
0
CIRCLE
5
245
100
AcDbEntity
8
0
100
AcDbCircle
10
13.929763871582473
20
14.813820273273544
30
0
40
0.078740157480332862
210
0
220
-0
230
1
0
CIRCLE
5
246
100
AcDbEntity
8
0
100
AcDbCircle
10
-0.60436911735752963
20
13.499392019166446
30
0
40
0.078740157480288092
210
0
220
-0
230
1
0
ARC
5
247
100
AcDbEntity
8
0
100
AcDbCircle
10
19.665381934388424
20
2.3449867463229759
30
0
40
0.011811023622036494
210
0
220
0
230
1
100
AcDbArc
50
123.56226046727795
51
180
0
ARC
5
248
100
AcDbEntity
8
0
100
AcDbCircle
10
19.626215321048726
20
2.4040215633409807
30
0
40
0.059034817616886733
210
0
220
0
230
1
100
AcDbArc
50
-56.437739532440261
51
0.5183317790464802
0
LINE
5
249
100
AcDbEntity
8
0
100
AcDbLine
10
19.685261968512251
20
10.465596364415086
30
0
11
19.685247722950727
21
2.4045556202107772
31
0
0
SPLINE
5
250
100
AcDbEntity
8
0
100
AcDbSpline
70
0
71
3
72
15
73
11
74
0
42
0.000000001
43
0.0000000001
44
0.0000000001
40
-195.78342590117893
40
-195.78342590117893
40
-195.78342590117893
40
-195.78342590117893
40
-175.72385219782836
40
-156.27904721985988
40
-132.58042561947377
40
-101.54932196433083
40
-73.123849678033821
40
-35.853742041514124
40
-16.98343887071087
40
0
40
0
40
0
40
0
10
14.198430294459843
20
15.005358973487263
30
0
10
14.454697797679936
20
14.944924838493295
30
0
10
14.959047433590742
20
14.824614368264646
30
0
10
15.753398714279641
20
14.58393009770103
30
0
10
16.665359689395039
20
14.241439173803732
30
0
10
17.642603154799676
20
13.745128897620637
30
0
10
18.66814728104556
20
12.990200740628172
30
0
10
19.376553862506142
20
12.091548025668832
30
0
10
19.656522663079475
20
11.160114369102944
30
0
10
19.676024302372959
20
10.68883507385377
30
0
10
19.685261968512158
20
10.465596364415042
30
0
0
ARC
5
251
100
AcDbEntity
8
0
100
AcDbCircle
10
14.184875469366805
20
14.947880510636343
30
0
40
0.059055118110180639
210
0
220
-0
230
1
100
AcDbArc
50
76.730693390647104
51
139.66998914948076
0
ARC
5
252
100
AcDbEntity
8
0
100
AcDbCircle
10
14.130852122922748
20
14.993744309901183
30
0
40
0.011811023622129496
210
0
220
0
230
1
100
AcDbArc
50
202.89169348269922
51
319.66998914917741
0
ARC
5
253
100
AcDbEntity
8
0
100
AcDbCircle
10
14.044929751627777
20
14.957463957765333
30
0
40
0.081456965742133167
210
0
220
-0
230
1
100
AcDbArc
50
22.891693482495608
51
65.931254346701436
0
SPLINE
5
254
100
AcDbEntity
8
0
100
AcDbSpline
70
0
71
3
72
11
73
7
74
0
42
0.000000001
43
0.0000000001
44
0.0000000001
40
-175.04390341281442
40
-175.04390341281442
40
-175.04390341281442
40
-175.04390341281442
40
-159.57806044535982
40
-98.709185770871045
40
-39.493341781749223
40
0
40
0
40
0
40
0
10
7.2255713343652781
20
15.659350565078137
30
0
10
7.4284733091553647
20
15.654193689829768
30
0
10
8.4299360155328458
20
15.6287409151682
30
0
10
10.207253137926431
20
15.562544070060133
30
0
10
12.297409339951857
20
15.380204378986045
30
0
10
13.569350911446948
20
15.131858541901025
30
0
10
14.078150546073003
20
15.031838792785916
30
0
0
LINE
5
255
100
AcDbEntity
8
0
100
AcDbLine
10
3.2764890534286812
20
15.659350553240071
30
0
11
7.2255713343652781
21
15.659350565078137
31
0
0
ARC
5
256
100
AcDbEntity
8
0
100
AcDbCircle
10
3.2764889556198611
20
15.600295475029903
30
0
40
0.059055078210248101
210
0
220
-0
230
1
100
AcDbArc
50
89.999905104983952
51
151.92729210529421
0
ARC
5
257
100
AcDbEntity
8
0
100
AcDbCircle
10
3.2174339941791876
20
15.631791746988872
30
0
40
0.007874015747982013
210
0
220
0
230
1
100
AcDbArc
50
269.99954214530322
51
331.92729210513062
0
ARC
5
258
100
AcDbEntity
8
0
100
AcDbCircle
10
3.2174284895277632
20
15.631782572612934
30
0
40
0.0078648432543940577
210
0
220
0
230
1
100
AcDbArc
50
208.03260676303483
51
270.03964327755966
0
ARC
5
259
100
AcDbEntity
8
0
100
AcDbCircle
10
3.1583788293042079
20
15.600296156554018
30
0
40
0.059054936995247359
210
0
220
-0
230
1
100
AcDbArc
50
28.072031581595279
51
89.984810466215862
0
LINE
5
260
100
AcDbEntity
8
0
100
AcDbLine
10
-0.78702829759193282
20
15.65572647360899
30
0
11
3.1583944852034334
21
15.659351091474024
31
0
0
ARC
5
261
100
AcDbEntity
8
0
100
AcDbCircle
10
-0.78703427499491152
20
15.596671355800934
30
0
40
0.059055118110564846
210
0
220
-0
230
1
100
AcDbArc
50
89.994200672614497
51
147.93536845815777
0
ARC
5
262
100
AcDbEntity
8
0
100
AcDbCircle
10
-0.84399339055478562
20
15.631792205143025
30
0
40
0.0078740157480242084
210
0
220
0
230
1
100
AcDbArc
50
259.7785180454793
51
331.39416842528124
0
LINE
5
263
100
AcDbEntity
8
0
100
AcDbLine
10
-0.84539066404413288
20
2.3448745636899031
30
0
11
-0.84539066404412677
21
15.62404315676299
31
0
0
LINE
5
264
100
AcDbEntity
8
0
100
AcDbLine
10
19.653570910766387
20
2.3449867463229759
30
0
11
-0.84539066404413288
21
2.3448745636899031
31
0
0
CIRCLE
5
265
100
AcDbEntity
8
0
100
AcDbCircle
10
4.8721388388433846
20
-0.65752883622950065
30
0
40
0.043669424986174404
210
0
220
-0
230
1
0
LWPOLYLINE
5
266
100
AcDbEntity
8
0
100
AcDbPolyline
90
4
70
1
43
0.0
10
5.0886742719142326
20
1.3896093625464754
10
5.0886742719142326
20
1.2108761426596284
42
-0.66910692862481325
10
4.6556034057725206
20
1.210876142659667
10
4.6556034057725366
20
1.3896093625464754
42
-0.6691069286250042
0
CIRCLE
5
267
100
AcDbEntity
8
0
100
AcDbCircle
10
14.325082978441316
20
-1.3606393231482816
30
0
40
0.082677165354345022
210
0
220
-0
230
1
0
CIRCLE
5
268
100
AcDbEntity
8
0
100
AcDbCircle
10
4.7756280006560292
20
-1.3598569718466054
30
0
40
0.082677165354345022
210
0
220
-0
230
1
0
CIRCLE
5
269
100
AcDbEntity
8
0
100
AcDbCircle
10
19.452998229701922
20
-1.360639323148237
30
0
40
0.082677165354345022
210
0
220
-0
230
1
0
CIRCLE
5
270
100
AcDbEntity
8
0
100
AcDbCircle
10
8.8830144704071934
20
-1.3606393231482816
30
0
40
0.082677165354345022
210
0
220
-0
230
1
0
CIRCLE
5
271
100
AcDbEntity
8
0
100
AcDbCircle
10
4.8721388388433846
20
-0.35241072849216171
30
0
40
0.14763779527559054
210
0
220
-0
230
1
0
LWPOLYLINE
5
272
100
AcDbEntity
8
0
100
AcDbPolyline
90
7
70
1
43
0.0
10
19.685365669521108
20
-1.5374033047371889
10
19.685247722950727
20
2.285417872435175
42
0.25376361838349232
10
19.658852295001594
20
2.3351447908019392
42
-0.25135770495977805
10
19.653570910766433
20
2.3449867463229759
10
4.5584131785906123
20
2.3449041365510155
10
4.5584347481044771
20
-1.5964602595461854
10
19.626310551496683
20
-1.5964602448917282
42
0.41422259883559115
0
CIRCLE
5
273
100
AcDbEntity
8
0
100
AcDbCircle
10
3.4138886006522191
20
7.1057477330881742
30
0
40
0.07874015748024335
210
0
220
0
230
1
0
CIRCLE
5
274
100
AcDbEntity
8
0
100
AcDbCircle
10
6.8395528596342299
20
7.1046537892379416
30
0
40
0.078740157480332862
210
0
220
-0
230
1
0
CIRCLE
5
275
100
AcDbEntity
8
0
100
AcDbCircle
10
3.4143033729872232
20
10.770612329754881
30
0
40
0.07874015748024335
210
0
220
-0
230
1
0
CIRCLE
5
276
100
AcDbEntity
8
0
100
AcDbCircle
10
13.929412072205702
20
10.770381516546646
30
0
40
0.078740157480332862
210
-0
220
0
230
1
0
CIRCLE
5
277
100
AcDbEntity
8
0
100
AcDbCircle
10
13.929247247777633
20
7.1046579478462482
30
0
40
0.078740157480332862
210
0
220
-0
230
1
0
CIRCLE
5
278
100
AcDbEntity
8
0
100
AcDbCircle
10
10.268937028947754
20
4.4873632059707864
30
0
40
0.070078740157479238
210
0
220
-0
230
1
0
CIRCLE
5
279
100
AcDbEntity
8
0
100
AcDbCircle
10
10.463510164819835
20
7.1046797857640396
30
0
40
0.078740157480288092
210
-0
220
0
230
1
0
CIRCLE
5
280
100
AcDbEntity
8
0
100
AcDbCircle
10
7.9808758992878781
20
6.3445924715426329
30
0
40
0.10236220472440585
210
0
220
-0
230
1
0
CIRCLE
5
281
100
AcDbEntity
8
0
100
AcDbCircle
10
7.9808758992878781
20
5.0083550332206146
30
0
40
0.10236220472440585
210
0
220
0
230
1
0
CIRCLE
5
282
100
AcDbEntity
8
0
100
AcDbCircle
10
8.6490188924807097
20
5.6764737523816011
30
0
40
0.49212598425196846
210
0
220
0
230
1
0
CIRCLE
5
283
100
AcDbEntity
8
0
100
AcDbCircle
10
9.3171618856736291
20
5.0083550332206146
30
0
40
0.10236220472440585
210
0
220
0
230
1
0
CIRCLE
5
284
100
AcDbEntity
8
0
100
AcDbCircle
10
9.3171618856735403
20
6.3445924715426329
30
0
40
0.10236220472440585
210
0
220
-0
230
1
0
CIRCLE
5
285
100
AcDbEntity
8
0
100
AcDbCircle
10
3.0211242351883896
20
15.361598507863272
30
0
40
0.07874015748024335
210
0
220
0
230
1
0
CIRCLE
5
286
100
AcDbEntity
8
0
100
AcDbCircle
10
3.4149089569659283
20
15.361598507863183
30
0
40
0.078740157480288092
210
-0
220
0
230
1
0
CIRCLE
5
287
100
AcDbEntity
8
0
100
AcDbCircle
10
8.6524008562154719
20
15.361598507863228
30
0
40
0.078740157480332862
210
0
220
0
230
1
0
CIRCLE
5
288
100
AcDbEntity
8
0
100
AcDbCircle
10
18.647920963997972
20
4.4873632060354183
30
0
40
0.070078740157479238
210
-0
220
0
230
1
0
CIRCLE
5
289
100
AcDbEntity
8
0
100
AcDbCircle
10
3.6065593254732344
20
14.828729302392505
30
0
40
0.13779527559056012
210
-0
220
0
230
1
0
LINE
5
290
100
AcDbEntity
8
0
100
AcDbLine
10
-16.968537954956666
20
2.3447863281414758
30
0
11
-16.771687561255877
21
2.3447874054250932
31
0
0
LWPOLYLINE
5
291
100
AcDbEntity
8
0
100
AcDbPolyline
90
4
70
1
43
0.0
10
-8.4252039866942141
20
1.207613792937863
10
-10.059812471876684
20
1.207613792937863
10
-10.059812471876684
20
-0.99501595671815857
10
-8.4252039866942141
20
-0.99501595671815857
0
CIRCLE
5
292
100
AcDbEntity
8
0
100
AcDbCircle
10
-9.9712297947114106
20
1.1190311157725892
30
0
40
0.19999999999999998
210
0
220
0
230
1
0
CIRCLE
5
293
100
AcDbEntity
8
0
100
AcDbCircle
10
-8.5141431805382624
20
1.1190311157725445
30
0
40
0.20000000000000046
210
0
220
0
230
1
0
CIRCLE
5
294
100
AcDbEntity
8
0
100
AcDbCircle
10
-9.971492878098795
20
-0.90643327955279529
30
0
40
0.19999999999999998
210
0
220
0
230
1
0
CIRCLE
5
295
100
AcDbEntity
8
0
100
AcDbCircle
10
-8.5137866638596229
20
-0.90643327955275055
30
0
40
0.19999999999999998
210
0
220
0
230
1
0
LWPOLYLINE
5
296
100
AcDbEntity
8
0
100
AcDbPolyline
90
4
70
1
43
0.0
10
18.935247726314746
20
-1.0964602455638306
10
18.935247723454079
20
1.8449096091592847
10
5.5584159148760284
20
1.8449096091592847
10
5.5584159177366939
20
-1.0964602585736409
0
LWPOLYLINE
5
297
100
AcDbEntity
8
0
100
AcDbPolyline
90
4
70
1
43
0.0
10
10.198858288790221
20
4.5574419461928972
10
18.717999704155453
20
4.5574419461928972
10
18.717999704155453
20
3.1249147039923715
10
10.198858288790221
20
3.1249147039923715
0
CIRCLE
5
298
100
AcDbEntity
8
0
100
AcDbCircle
10
18.647920963997972
20
4.4873632060354183
30
0
40
0.24999999999999975
210
0
220
0
230
1
0
CIRCLE
5
299
100
AcDbEntity
8
0
100
AcDbCircle
10
10.268937028947754
20
4.4873632059707864
30
0
40
0.24999999999999975
210
0
220
0
230
1
0
CIRCLE
5
300
100
AcDbEntity
8
0
100
AcDbCircle
10
10.268937028947745
20
3.1949934441498957
30
0
40
0.24999999999999975
210
0
220
0
230
1
0
CIRCLE
5
301
100
AcDbEntity
8
0
100
AcDbCircle
10
18.647920963996892
20
3.1949934441498957
30
0
40
0.24999999999999975
210
0
220
0
230
1
0
SPLINE
5
302
100
AcDbEntity
8
0
100
AcDbSpline
70
0
71
3
72
32
73
28
74
0
42
0.000000001
43
0.0000000001
44
0.0000000001
40
-195.78342590117893
40
-195.78342590117893
40
-195.78342590117893
40
-195.78342590117893
40
-175.72385219782836
40
-175.72385219782836
40
-175.72385219782836
40
-156.27904721985988
40
-156.27904721985988
40
-156.27904721985988
40
-132.58042561947377
40
-132.58042561947377
40
-132.58042561947377
40
-101.54932196433083
40
-101.54932196433083
40
-101.54932196433083
40
-73.123849678033821
40
-73.123849678033821
40
-73.123849678033821
40
-38.702237455015592
40
-38.702237455015592
40
-38.702237455015592
40
-35.853742041514124
40
-35.853742041514124
40
-35.853742041514124
40
-16.98343887071087
40
-16.98343887071087
40
-16.98343887071087
40
0
40
0
40
0
40
0
10
14.10661894582957
20
14.616038185110005
30
0
10
14.36221778166758
20
14.555761738212759
30
0
10
14.614012121117241
20
14.495634018415631
30
0
10
14.860239447407384
20
14.428901718382285
30
0
10
15.098920608371376
20
14.364214573028697
30
0
10
15.335801005482692
20
14.292442015468731
30
0
10
15.570376060530974
20
14.213788351311752
30
0
10
15.856267612170482
20
14.117928124045287
30
0
10
16.137148328061809
20
14.01236946321414
30
0
10
16.411198165132642
20
13.894148316272062
30
0
10
16.770040508127039
20
13.739348905283125
30
0
10
17.117003078776154
20
13.562878341811491
30
0
10
17.443554768467934
20
13.360048344001553
30
0
10
17.742686443207418
20
13.174249651642747
30
0
10
18.022437124208775
20
12.967713391981469
30
0
10
18.27360606432638
20
12.732537628159745
30
0
10
18.577757206376621
20
12.447753302854938
30
0
10
18.838066897501232
20
12.121793242537647
30
0
10
19.011477570812822
20
11.769144448987483
30
0
10
19.025827843088852
20
11.739961665087177
30
0
10
19.039594349374024
20
11.710590696895363
30
0
10
19.052758938323045
20
11.681034761572223
30
0
10
19.139969815830344
20
11.485236847557433
30
0
10
19.202316183293899
20
11.277505870714991
30
0
10
19.236279325264952
20
11.068024414242911
30
0
10
19.266846451839534
20
10.87948926044392
30
0
10
19.276366327656802
20
10.672297140313606
30
0
10
19.285603993796002
20
10.449058430874846
30
0
0
SPLINE
5
303
100
AcDbEntity
8
0
100
AcDbSpline
70
0
71
3
72
17
73
13
74
0
42
0.000000001
43
0.0000000001
44
0.0000000001
40
-175.04390341281442
40
-175.04390341281442
40
-175.04390341281442
40
-175.04390341281442
40
-159.57806044535982
40
-159.57806044535982
40
-159.57806044535982
40
-98.709185770871045
40
-98.709185770871045
40
-98.709185770871045
40
-39.493341781749223
40
-39.493341781749223
40
-39.493341781749223
40
0
40
0
40
0
40
0
10
7.2154083765892763
20
15.259479693059127
30
0
10
7.4183103513793158
20
15.254322817810758
30
0
10
7.6208932532274085
20
15.249173669712956
30
0
10
7.8231334755388007
20
15.24354910974113
30
0
10
8.619089749756613
20
15.221412544877214
30
0
10
9.4125624359705995
20
15.191822853722481
30
0
10
10.203520915959874
20
15.142330787683397
30
0
10
10.97299914606338
20
15.094182789598293
30
0
10
11.736919705109278
20
15.027310244396686
30
0
10
12.48823566139531
20
14.913403433407769
30
0
10
12.989317396431231
20
14.837434565709442
30
0
10
13.492530860100151
20
14.739304346361696
30
0
10
14.000995261044039
20
14.639350497429101
30
0
0
LINE
5
304
100
AcDbEntity
8
0
100
AcDbLine
10
14.10661893359342
20
14.616038115810369
30
0
11
14.000995325535566
21
14.639350411194812
31
0
0
LINE
5
305
100
AcDbEntity
8
0
100
AcDbLine
10
18.935604190213983
20
5.0949558093558753
30
0
11
14.383176548122005
21
5.0949559754220761
31
0
0
LINE
5
306
100
AcDbEntity
8
0
100
AcDbLine
10
14.033176560889951
20
5.4449559881891654
30
0
11
14.033176584599778
21
6.0949213990945896
31
0
0
LINE
5
307
100
AcDbEntity
8
0
100
AcDbLine
10
13.033176621078415
20
7.094921435573168
30
0
11
7.7546093724344622
21
7.0949216281279268
31
0
0
LINE
5
308
100
AcDbEntity
8
0
100
AcDbLine
10
6.7546093359558661
20
6.0949216281277323
30
0
11
6.7546093359558661
21
3.4449041365510173
31
0
0
LINE
5
309
100
AcDbEntity
8
0
100
AcDbLine
10
6.4046093359558665
20
3.0949041365510173
30
0
11
-0.045390664044114015
21
3.0949041365510168
31
0
0
LINE
5
310
100
AcDbEntity
8
0
100
AcDbLine
10
-0.39539066404411399
20
3.4449041365510165
30
0
11
-0.39539066404411372
21
14.909479602087892
31
0
0
LINE
5
311
100
AcDbEntity
8
0
100
AcDbLine
10
-0.045390664044120593
20
15.259479602087884
30
0
11
7.2154086274609179
21
15.259479602087877
31
0
0
LINE
5
312
100
AcDbEntity
8
0
100
AcDbLine
10
19.285603981559849
20
10.023837546449609
30
0
11
19.285603981559849
21
5.4449555879342366
31
0
0
ARC
5
313
100
AcDbEntity
8
0
100
AcDbCircle
10
13.033176584599811
20
6.0949214355731902
30
0
40
0.99999999999996669
210
-0
220
0
230
1
100
AcDbArc
50
-2.0913098143694567e-06
51
89.999997909929988
0
ARC
5
314
100
AcDbEntity
8
0
100
AcDbCircle
10
7.7546093359558599
20
6.0949216281277323
30
0
40
1.0000000000001947
210
0
220
-0
230
1
100
AcDbArc
50
89.999997909930045
51
180
0
ARC
5
315
100
AcDbEntity
8
0
100
AcDbCircle
10
14.383176560889529
20
5.4449559754216539
30
0
40
0.34999999999957893
210
0
220
0
230
1
100
AcDbArc
50
179.9999979086902
51
269.99999790992791
0
ARC
5
316
100
AcDbEntity
8
0
100
AcDbCircle
10
6.4046093359558665
20
3.4449041365510173
30
0
40
0.35000000000000009
210
-0
220
0
230
1
100
AcDbArc
50
-90
51
0
0
ARC
5
317
100
AcDbEntity
8
0
100
AcDbCircle
10
18.935604202981487
20
5.4449555879342366
30
0
40
0.34999977857836195
210
0
220
0
230
1
100
AcDbArc
50
-90.000002090070225
51
0
0
ARC
5
318
100
AcDbEntity
8
0
100
AcDbCircle
10
-0.045390664044120996
20
14.909479602087892
30
0
40
0.34999999999999271
210
0
220
-0
230
1
100
AcDbArc
50
89.999999999999929
51
180
0
ARC
5
319
100
AcDbEntity
8
0
100
AcDbCircle
10
-0.045390664044114057
20
3.4449041365510165
30
0
40
0.34999999999999992
210
0
220
0
230
1
100
AcDbArc
50
180
51
270
0
CIRCLE
5
320
100
AcDbEntity
8
0
100
AcDbCircle
10
18.935261968512247
20
11.005358973487262
30
0
40
0.12499999999999949
210
0
220
0
230
1
0
CIRCLE
5
321
100
AcDbEntity
8
0
100
AcDbCircle
10
-18.935121922692034
20
11.324717017997573
30
0
40
0.12499999999999999
210
0
220
0
230
1
0
LINE
5
322
100
AcDbEntity
8
0
100
AcDbLine
10
17.282443849479094
20
10.523837546449613
30
0
11
18.785603981559849
21
10.523837546449611
31
0
0
LINE
5
323
100
AcDbEntity
8
0
100
AcDbLine
10
16.782443849479073
20
11.023837546449618
30
0
11
16.782443849479389
21
13.723837546449607
31
0
0
ARC
5
324
100
AcDbEntity
8
0
100
AcDbCircle
10
18.785603981559849
20
10.023837546449611
30
0
40
0.50000000000000122
210
-0
220
0
230
1
100
AcDbArc
50
0
51
90
0
ARC
5
325
100
AcDbEntity
8
0
100
AcDbCircle
10
17.28244384947908
20
11.02383754644962
30
0
40
0.50000000000000677
210
0
220
0
230
1
100
AcDbArc
50
180
51
270.00000000000159
0
LWPOLYLINE
5
326
100
AcDbEntity
8
0
100
AcDbPolyline
90
4
70
1
43
0.0
10
-19.419519404811396
20
12.317540349938101
10
-19.941906979299784
20
11.779384961578813
10
-19.451807908232428
20
11.303645666698873
10
-18.929420333744101
20
11.841801055058218
0
LINE
5
327
100
AcDbEntity
8
0
100
AcDbLine
10
-18.918977670981487
20
11.831664359617154
30
0
11
-19.441365245469886
21
11.293508971257882
31
0
0
LINE
5
328
100
AcDbEntity
8
0
100
AcDbLine
10
-19.441365245469886
20
11.293508971257882
30
0
11
-18.95126617440258
21
10.817769676377996
31
0
0
LINE
5
329
100
AcDbEntity
8
0
100
AcDbLine
10
-18.95126617440258
20
10.817769676377996
30
0
11
-18.428878599914196
21
11.35592506473728
31
0
0
LINE
5
330
100
AcDbEntity
8
0
100
AcDbLine
10
-18.428878599914196
20
11.35592506473728
30
0
11
-18.918977670981487
21
11.831664359617154
31
0
0
LINE
5
331
100
AcDbEntity
8
0
100
AcDbLine
10
-18.428878599914196
20
11.35592506473728
30
0
11
-19.441365245469886
21
11.293508971257882
31
0
0
LINE
5
332
100
AcDbEntity
8
0
100
AcDbLine
10
-18.918977670981487
20
11.831664359617154
30
0
11
-18.95126617440258
21
10.817769676377996
31
0
0
ENDSEC
0
SECTION
2
OBJECTS
0
DICTIONARY
5
C
100
AcDbDictionary
3
ACAD_GROUP
350
D
3
ACAD_MLINESTYLE
350
17
0
DICTIONARY
5
D
100
AcDbDictionary
0
DICTIONARY
5
1A
330
C
100
AcDbDictionary
0
DICTIONARY
5
17
100
AcDbDictionary
0
ENDSEC
0
EOF
