<?xml version="1.0" encoding="UTF-8" standalone="no"?>
<svg
   viewBox="0 0 793.7007874015749 1122.5196850393702"
   width="793.7007874015749"
   height="1122.5196850393702"
   version="1.1"
   id="svg318"
   sodipodi:docname="Panel Support.svg"
   inkscape:version="1.4.2 (f4327f4, 2025-05-13)"
   xml:space="preserve"
   xmlns:inkscape="http://www.inkscape.org/namespaces/inkscape"
   xmlns:sodipodi="http://sodipodi.sourceforge.net/DTD/sodipodi-0.dtd"
   xmlns="http://www.w3.org/2000/svg"
   xmlns:svg="http://www.w3.org/2000/svg"><sodipodi:namedview
     id="namedview320"
     pagecolor="#ffffff"
     bordercolor="#666666"
     borderopacity="1.0"
     inkscape:showpageshadow="2"
     inkscape:pageopacity="0.0"
     inkscape:pagecheckerboard="0"
     inkscape:deskcolor="#d1d1d1"
     showgrid="false"
     inkscape:zoom="0.14866305"
     inkscape:cx="1624.479"
     inkscape:cy="420.41381"
     inkscape:window-width="1920"
     inkscape:window-height="1009"
     inkscape:window-x="1912"
     inkscape:window-y="-8"
     inkscape:window-maximized="1"
     inkscape:current-layer="g1" /><desc
     id="desc2">Panel Support DXF.dxf - scale = 1.000000, origin = (0.000000, 0.000000), method = manual</desc><defs
     id="defs16"><marker
       id="DistanceX"
       orient="auto"
       refX="0.0"
       refY="0.0"
       style="overflow:visible"><path
         d="M 3,-3 L -3,3 M 0,-5 L  0,5"
         style="stroke:#000000; stroke-width:0.5"
         id="path4" /></marker><pattern
       id="Hatch"
       patternUnits="userSpaceOnUse"
       width="8"
       height="8"
       x="0"
       y="0"><path
         d="M8 4 l-4,4"
         stroke="#000000"
         stroke-width="0.25"
         linecap="square"
         id="path7" /><path
         d="M6 2 l-4,4"
         stroke="#000000"
         stroke-width="0.25"
         linecap="square"
         id="path9" /><path
         d="M4 0 l-4,4"
         stroke="#000000"
         stroke-width="0.25"
         linecap="square"
         id="path11" /></pattern><symbol
       id="*MODEL_SPACE" /><symbol
       id="*PAPER_SPACE" /><marker
       id="DistanceX-0"
       orient="auto"
       refX="0.0"
       refY="0.0"
       style="overflow:visible"><path
         d="M 3,-3 L -3,3 M 0,-5 L  0,5"
         style="stroke:#000000; stroke-width:0.5"
         id="path1" /></marker><pattern
       id="Hatch-9"
       patternUnits="userSpaceOnUse"
       width="8"
       height="8"
       x="0"
       y="0"><path
         d="M8 4 l-4,4"
         stroke="#000000"
         stroke-width="0.25"
         linecap="square"
         id="path2" /><path
         d="M6 2 l-4,4"
         stroke="#000000"
         stroke-width="0.25"
         linecap="square"
         id="path3" /><path
         d="M4 0 l-4,4"
         stroke="#000000"
         stroke-width="0.25"
         linecap="square"
         id="path4-4" /></pattern><symbol
       id="*Model_Space" /><symbol
       id="*Paper_Space" /><symbol
       id="*Paper_Space0" /></defs><g
     inkscape:groupmode="layer"
     inkscape:label="0"
     id="g316"><g
       id="g1"
       transform="translate(-1751.7546,1217.2858)"><g
         inkscape:label="0"
         id="g4" /><g
         inkscape:label="Defpoints"
         id="g5" /><g
         inkscape:label="Visible"
         id="g303"><path
           d="m 267.34238,-679.34329 a 7.2,7.2 0 0 0 0,-14.4"
           style="fill:none;stroke:#000000"
           id="path5" /><path
           style="fill:none;stroke:#000000"
           d="M 267.342,-118.951 V 183.161"
           id="path6" /><path
           style="fill:none;stroke:#000000"
           d="m 267.342,-395.124 v 101.051"
           id="path7-8" /><path
           style="fill:none;stroke:#000000"
           d="M 4046.87,-118.951 V 183.161"
           id="path8" /><path
           style="fill:none;stroke:#000000"
           d="m 4046.87,-360.831 v 64.017"
           id="path9-8" /><path
           d="m 457.49921,-1026.1836 a 13.228346,13.228346 0 0 0 13.22834,13.2283"
           style="fill:none;stroke:#000000"
           id="path10" /><path
           style="fill:none;stroke:#000000"
           d="m 470.728,-1012.96 h 43.905"
           id="path11-2" /><path
           d="m 470.72755,-1164.1364 a 13.228346,13.228346 0 0 0 -13.22834,13.2283"
           style="fill:none;stroke:#000000"
           id="path12" /><path
           style="fill:none;stroke:#000000"
           d="m 457.499,-1150.91 v 124.73"
           id="path13" /><path
           d="m 537.31022,-990.27807 a 22.677165,22.677165 0 0 0 -22.67716,-22.67713"
           style="fill:none;stroke:#000000"
           id="path14" /><path
           d="m 514.72579,-1164.1363 a 22.677165,22.677165 0 0 0 22.61861,-21.0486"
           style="fill:none;stroke:#000000"
           id="path15" /><path
           d="m 550.53859,-1197.4633 a 13.228346,13.228346 0 0 0 -13.19419,12.2783"
           style="fill:none;stroke:#000000"
           id="path16" /><path
           d="m 1765.5982,-1300.2977 a 22.677165,22.677165 0 0 0 22.6771,22.6772"
           style="fill:none;stroke:#000000"
           id="path17" /><path
           style="fill:none;stroke:#000000"
           d="m 1821.67,-1277.62 h -33.39"
           id="path18-4" /><path
           d="m 1821.6699,-1277.6205 a 22.677165,22.677165 0 0 0 22.6772,-22.6772"
           style="fill:none;stroke:#000000"
           id="path19" /><path
           style="fill:none;stroke:#000000"
           d="m 1844.35,-1362.09 v 61.79"
           id="path20-5" /><path
           d="M 3263.7519,120.6322 A 22.677165,22.677165 0 0 0 3241.0747,97.955032"
           style="fill:none;stroke:#000000"
           id="path21" /><path
           style="fill:none;stroke:#000000"
           d="m 3108.52,97.955 h 132.55"
           id="path22-5" /><path
           d="m 3241.0747,-130.99365 a 22.677165,22.677165 0 0 0 22.6772,-22.67716"
           style="fill:none;stroke:#000000"
           id="path23" /><path
           style="fill:none;stroke:#000000"
           d="M 3241.07,-130.994 H 3108.52"
           id="path24-1" /><path
           d="m 2148.605,-845.00233 a 6,6 0 0 0 -12,0 6,6 0 0 0 12,0 z"
           style="fill:none;stroke:#000000"
           id="path25" /><path
           d="m 2815.8186,-845.00233 a 6,6 0 0 0 -12,0 6,6 0 0 0 12,0 z"
           style="fill:none;stroke:#000000"
           id="path26-7" /><path
           d="m 3431.2793,-1098.9685 a 7.559055,7.559055 0 0 0 -15.1181,0 7.559055,7.559055 0 0 0 15.1181,0 z"
           style="fill:none;stroke:#000000"
           id="path27" /><path
           d="m 2897.8746,-1378.0488 a 7.559055,7.559055 0 0 0 -15.1181,0 7.559055,7.559055 0 0 0 15.1181,0 z"
           style="fill:none;stroke:#000000"
           id="path28-1" /><path
           d="m 2815.8186,-656.02595 a 6,6 0 0 0 -12,0 6,6 0 0 0 12,0 z"
           style="fill:none;stroke:#000000"
           id="path29" /><path
           d="m 2148.605,-656.02595 a 6,6 0 0 0 -12,0 6,6 0 0 0 12,0 z"
           style="fill:none;stroke:#000000"
           id="path30-1" /><path
           d="m 2148.605,-1229.7007 a 6,6 0 0 0 -12,0 6,6 0 0 0 12,0 z"
           style="fill:none;stroke:#000000"
           id="path31" /><path
           d="m 2815.8186,-1229.7007 a 6,6 0 0 0 -12,0 6,6 0 0 0 12,0 z"
           style="fill:none;stroke:#000000"
           id="path32-5" /><path
           d="m 2897.8746,-1098.9685 a 7.559055,7.559055 0 0 0 -15.1181,0 7.559055,7.559055 0 0 0 15.1181,0 z"
           style="fill:none;stroke:#000000"
           id="path33" /><path
           d="m 2815.8186,-271.32755 a 6,6 0 0 0 -12,0 6,6 0 0 0 12,0 z"
           style="fill:none;stroke:#000000"
           id="path34-2" /><path
           d="m 2148.605,-271.32755 a 6,6 0 0 0 -12,0 6,6 0 0 0 12,0 z"
           style="fill:none;stroke:#000000"
           id="path35" /><path
           d="m 555.49574,153.0177 a 8.16,8.16 0 0 0 -16.32,0 8.16,8.16 0 0 0 16.32,0 z"
           style="fill:none;stroke:#000000"
           id="path36-7" /><path
           d="m 1127.8887,-613.06316 a 8.16,8.16 0 0 0 -16.32,0 8.16,8.16 0 0 0 16.32,0 z"
           style="fill:none;stroke:#000000"
           id="path37" /><path
           d="m 369.10618,-373.63936 a 8.16,8.16 0 0 0 -16.32,0 8.16,8.16 0 0 0 16.32,0 z"
           style="fill:none;stroke:#000000"
           id="path38-6" /><path
           d="m 1344.4258,-557.26897 a 8.1600033,8.1600033 0 1 0 0.059,16.3199"
           style="fill:none;stroke:#000000"
           id="path39" /><path
           d="m 1344.4845,-540.94907 a 8.16,8.16 0 1 0 -0.059,-16.31989"
           style="fill:none;stroke:#000000"
           id="path40-1" /><path
           d="m 1318.1501,-202.34617 a 8.16,8.16 0 0 0 -16.32,0 8.16,8.16 0 0 0 16.32,0 z"
           style="fill:none;stroke:#000000"
           id="path41" /><path
           d="m 1231.2028,-384.46974 a 8.1600015,8.1600015 0 0 0 -0.058,16.3199"
           style="fill:none;stroke:#000000"
           id="path42-4" /><path
           d="m 1231.145,-368.14984 a 8.1600015,8.1600015 0 0 0 0.058,-16.3199"
           style="fill:none;stroke:#000000"
           id="path43" /><path
           d="m 356.45386,-1080.7117 a 8.16,8.16 0 0 0 -16.32,0 8.16,8.16 0 0 0 16.32,0 z"
           style="fill:none;stroke:#000000"
           id="path44-2" /><path
           d="m 4023.2056,152.87264 a 8.16,8.16 0 0 0 -16.32,0 8.16,8.16 0 0 0 16.32,0 z"
           style="fill:none;stroke:#000000"
           id="path45" /><path
           d="m 814.55222,-1327.2915 a 8.16,8.16 0 0 0 -16.32,0 8.16,8.16 0 0 0 16.32,0 z"
           style="fill:none;stroke:#000000"
           id="path46-3" /><path
           d="m 4024.7899,-138.91935 a 8.16,8.16 0 0 0 -16.32,0 8.16,8.16 0 0 0 16.32,0 z"
           style="fill:none;stroke:#000000"
           id="path47" /><path
           d="m 1142.8662,-373.63936 a 8.16,8.16 0 0 0 -16.32,0 8.16,8.16 0 0 0 16.32,0 z"
           style="fill:none;stroke:#000000"
           id="path48-2" /><path
           style="fill:none;stroke:#000000"
           d="m 3014.4,-390.709 v 56.874"
           id="path49" /><path
           d="m 3014.4392,-391.7094 a 12,12 0 0 0 -0.042,1"
           style="fill:none;stroke:#000000"
           id="path50-2" /><path
           d="m 3038.3558,-391.7094 a 72,72 0 1 0 -23.9166,0"
           style="fill:none;stroke:#000000"
           id="path51" /><path
           d="m 3038.3975,-390.7094 a 12,12 0 0 0 -0.042,-1"
           style="fill:none;stroke:#000000"
           id="path52-1" /><path
           style="fill:none;stroke:#000000"
           d="m 3038.4,-333.835 v -56.874"
           id="path53" /><path
           d="m 3014.3975,-333.83507 a 12,12 0 0 0 24,0"
           style="fill:none;stroke:#000000"
           id="path54-6" /><path
           d="M 548.78396,-85.225082 A 129.6,129.6 0 0 0 372.0081,-90.594478"
           style="fill:none;stroke:#000000"
           id="path55" /><path
           style="fill:none;stroke:#000000"
           d="M 682.461,-85.2251 H 548.784"
           id="path56-8" /><path
           style="fill:none;stroke:#000000"
           d="m 682.461,-131.498 v 46.2729"
           id="path57" /><path
           d="m 694.46112,-143.49788 a 12,12 0 0 0 -12,12"
           style="fill:none;stroke:#000000"
           id="path58-5" /><path
           style="fill:none;stroke:#000000"
           d="M 1237.21,-143.498 H 694.461"
           id="path59" /><path
           style="fill:none;stroke:#000000"
           d="M 1237.21,-86.0315 V -143.498"
           id="path60-7" /><path
           style="fill:none;stroke:#000000"
           d="m 1307.17,-86.0315 h -69.96"
           id="path61" /><path
           style="fill:none;stroke:#000000"
           d="m 1307.17,-143.498 v 57.4665"
           id="path62-6" /><path
           style="fill:none;stroke:#000000"
           d="M 1450.28,-143.498 H 1307.17"
           id="path63" /><path
           d="m 1462.2813,-131.49788 a 12,12 0 0 0 -12,-12"
           style="fill:none;stroke:#000000"
           id="path64-1" /><path
           style="fill:none;stroke:#000000"
           d="M 1462.28,0.502117 V -131.498"
           id="path65" /><path
           style="fill:none;stroke:#000000"
           d="m 1331.17,0.502117 h 131.11"
           id="path66-8" /><path
           style="fill:none;stroke:#000000"
           d="M 1331.17,98.2885 V 0.502117"
           id="path67" /><path
           style="fill:none;stroke:#000000"
           d="m 1237.21,98.2885 h 93.96"
           id="path68-9" /><path
           style="fill:none;stroke:#000000"
           d="M 1237.21,159.634 V 98.2885"
           id="path69" /><path
           style="fill:none;stroke:#000000"
           d="M 699.182,159.634 H 1237.21"
           id="path70-2" /><path
           d="m 687.18163,147.6344 a 12,12 0 0 0 12,12"
           style="fill:none;stroke:#000000"
           id="path71" /><path
           style="fill:none;stroke:#000000"
           d="M 687.182,99.0949 V 147.634"
           id="path72-7" /><path
           style="fill:none;stroke:#000000"
           d="M 548.493,99.0949 H 687.182"
           id="path73" /><path
           d="m 372.02729,104.19348 a 129.6,129.6 0 0 0 176.4657,-5.098562"
           style="fill:none;stroke:#000000"
           id="path74-9" /><path
           style="fill:none;stroke:#000000"
           d="m 372.027,99.0949 v 5.0981"
           id="path75" /><path
           style="fill:none;stroke:#000000"
           d="m 372.008,-85.2251 0.019,184.32"
           id="path76-5" /><path
           style="fill:none;stroke:#000000"
           d="m 372.008,-90.5945 v 5.3694"
           id="path77" /><path
           d="m 814.55222,-942.43177 a 8.16,8.16 0 0 0 -16.32,0 8.16,8.16 0 0 0 16.32,0 z"
           style="fill:none;stroke:#000000"
           id="path78-4" /><path
           d="m 2143.7501,-202.34617 a 8.16,8.16 0 0 0 -16.32,0 8.16,8.16 0 0 0 16.32,0 z"
           style="fill:none;stroke:#000000"
           id="path79" /><path
           d="m 780.55008,-202.34617 a 8.16,8.16 0 0 0 -16.32,0 8.16,8.16 0 0 0 16.32,0 z"
           style="fill:none;stroke:#000000"
           id="path80-3" /><path
           d="m 4046.87,-693.74329 a 7.2,7.2 0 1 0 0,14.4"
           style="fill:none;stroke:#000000"
           id="path81" /><path
           d="m 3089.8654,-549.96812 a 8.16,8.16 0 0 0 -16.32,0 8.16,8.16 0 0 0 16.32,0 z"
           style="fill:none;stroke:#000000"
           id="path82-1" /><path
           d="m 2341.41,139.91744 a 4.8,4.8 0 0 0 -9.6,0 4.8,4.8 0 0 0 9.6,0 z"
           style="fill:none;stroke:#000000"
           id="path83" /><path
           d="m 1265.3501,-202.34617 a 8.16,8.16 0 0 0 -16.32,0 8.16,8.16 0 0 0 16.32,0 z"
           style="fill:none;stroke:#000000"
           id="path84-2" /><path
           d="m 1826.9501,-1373.5462 a 8.16,8.16 0 0 0 -16.32,0 8.16,8.16 0 0 0 16.32,0 z"
           style="fill:none;stroke:#000000"
           id="path85" /><path
           d="m 2409.6316,-31.986395 a 36,36 0 0 0 -72,0 36,36 0 0 0 72,0 z"
           style="fill:none;stroke:#000000"
           id="path86-3" /><path
           d="m 1231.1955,-557.26398 a 8.1600015,8.1600015 0 0 0 -0.058,16.3199"
           style="fill:none;stroke:#000000"
           id="path87" /><path
           d="m 1231.1371,-540.94408 a 8.1600003,8.1600003 0 0 0 0.058,-16.31989"
           style="fill:none;stroke:#000000"
           id="path88-3" /><path
           d="m 1777.5224,-1368.736 a 8.16,8.16 0 0 0 -16.32,0 8.16,8.16 0 0 0 16.32,0 z"
           style="fill:none;stroke:#000000"
           id="path89" /><path
           d="m 1290.9885,-1362.4602 a 8.16,8.16 0 0 0 -16.32,0 8.16,8.16 0 0 0 16.32,0 z"
           style="fill:none;stroke:#000000"
           id="path90-4" /><path
           d="m 369.10618,-277.63936 a 8.16,8.16 0 0 0 -16.32,0 8.16,8.16 0 0 0 16.32,0 z"
           style="fill:none;stroke:#000000"
           id="path91" /><path
           d="m 814.55222,-613.06316 a 8.16,8.16 0 0 0 -16.32,0 8.16,8.16 0 0 0 16.32,0 z"
           style="fill:none;stroke:#000000"
           id="path92-1" /><path
           d="m 2143.7501,-941.54617 a 8.16,8.16 0 0 0 -16.32,0 8.16,8.16 0 0 0 16.32,0 z"
           style="fill:none;stroke:#000000"
           id="path93" /><path
           d="m 2143.7501,-1373.5462 a 8.16,8.16 0 0 0 -16.32,0 8.16,8.16 0 0 0 16.32,0 z"
           style="fill:none;stroke:#000000"
           id="path94-1" /><path
           d="m 2203.8036,139.91744 a 4.8,4.8 0 0 0 -9.6,0 4.8,4.8 0 0 0 9.6,0 z"
           style="fill:none;stroke:#000000"
           id="path95" /><path
           d="m 1142.8662,-277.63936 a 8.16,8.16 0 0 0 -16.32,0 8.16,8.16 0 0 0 16.32,0 z"
           style="fill:none;stroke:#000000"
           id="path96-3" /><path
           d="m 1730.9501,-202.34617 a 8.16,8.16 0 0 0 -16.32,0 8.16,8.16 0 0 0 16.32,0 z"
           style="fill:none;stroke:#000000"
           id="path97" /><path
           d="m 1462.0597,-613.06316 a 8.16,8.16 0 0 0 -16.32,0 8.16,8.16 0 0 0 16.32,0 z"
           style="fill:none;stroke:#000000"
           id="path98-8" /><path
           d="m 2183.0094,-31.986395 a 26.4,26.4 0 0 0 -52.8,0 26.4,26.4 0 0 0 52.8,0 z"
           style="fill:none;stroke:#000000"
           id="path99" /><path
           d="m 1344.4627,-384.47478 a 8.16,8.16 0 1 0 10e-5,16.32"
           style="fill:none;stroke:#000000"
           id="path100-7" /><path
           d="m 1344.4628,-368.15478 a 8.16,8.16 0 1 0 -10e-5,-16.32"
           style="fill:none;stroke:#000000"
           id="path101" /><path
           style="fill:none;stroke:#000000"
           d="m 2122.74,-1262.61 h 15.67"
           id="path102-4" /><path
           style="fill:none;stroke:#000000"
           d="M 2122.74,-276.118 V -1262.61"
           id="path103" /><path
           d="m 2074.7368,-228.11814 a 48,48 0 0 0 48,-48"
           style="fill:none;stroke:#000000"
           id="path104-2" /><path
           style="fill:none;stroke:#000000"
           d="m 1511.52,-228.118 h 563.22"
           id="path105" /><path
           d="m 1463.5192,-276.11814 a 48,48 0 0 0 48,48"
           style="fill:none;stroke:#000000"
           id="path106-7" /><path
           style="fill:none;stroke:#000000"
           d="m 1463.52,-573.629 v 297.511"
           id="path107" /><path
           d="m 1465.8248,-575.93427 a 2.305512,2.305512 0 0 0 -2.3055,2.30551"
           style="fill:none;stroke:#000000"
           id="path108-7" /><path
           style="fill:none;stroke:#000000"
           d="m 1466.54,-575.934 h -0.72"
           id="path109" /><path
           d="m 1466.5441,-575.93432 a 2.305512,2.305512 0 0 0 2.3055,-2.30551"
           style="fill:none;stroke:#000000"
           id="path110-9" /><path
           style="fill:none;stroke:#000000"
           d="m 1468.85,-620.861 v 42.621"
           id="path111" /><path
           d="m 1468.8496,-620.86124 a 7.328854,7.328854 0 0 0 -7.3289,-7.32886"
           style="fill:none;stroke:#000000"
           id="path112-3" /><path
           style="fill:none;stroke:#000000"
           d="m 1435.11,-628.19 h 26.41"
           id="path113" /><path
           d="m 1435.1128,-628.19013 a 9.122164,9.122164 0 0 0 -9.1221,9.12217"
           style="fill:none;stroke:#000000"
           id="path114-1" /><path
           style="fill:none;stroke:#000000"
           d="m 1425.99,-610.006 v -9.062"
           id="path115" /><path
           d="m 1416.3906,-600.40556 a 9.6,9.6 0 0 0 9.6,-9.6"
           style="fill:none;stroke:#000000"
           id="path116-9" /><path
           style="fill:none;stroke:#000000"
           d="m 1156.61,-600.406 h 259.78"
           id="path117" /><path
           d="m 1147.0116,-610.00556 a 9.6,9.6 0 0 0 9.6,9.6"
           style="fill:none;stroke:#000000"
           id="path118-8" /><path
           style="fill:none;stroke:#000000"
           d="m 1147.01,-624.717 v 14.711"
           id="path119" /><path
           d="m 1147.0116,-624.7166 a 9.6,9.6 0 0 0 -9.6,-9.6"
           style="fill:none;stroke:#000000"
           id="path120-6" /><path
           style="fill:none;stroke:#000000"
           d="m 1101.75,-634.317 h 35.66"
           id="path121" /><path
           d="m 1101.7528,-634.3166 a 9.6,9.6 0 0 0 -9.6,9.6"
           style="fill:none;stroke:#000000"
           id="path122-5" /><path
           style="fill:none;stroke:#000000"
           d="m 1092.15,-612.118 v -12.599"
           id="path123" /><path
           d="m 1082.5528,-602.51814 a 9.6,9.6 0 0 0 9.6,-9.6"
           style="fill:none;stroke:#000000"
           id="path124-0" /><path
           style="fill:none;stroke:#000000"
           d="M 860.108,-602.518 H 1082.55"
           id="path125" /><path
           style="fill:none;stroke:#000000"
           d="m 816.605,-622.804 43.503,20.286"
           id="path126-2" /><path
           style="fill:none;stroke:#000000"
           d="m 796.319,-666.307 20.286,43.503"
           id="path127" /><path
           style="fill:none;stroke:#000000"
           d="m 796.319,-909.179 v 242.872"
           id="path128-8" /><path
           d="m 805.91923,-918.7791 a 9.6,9.6 0 0 0 -9.6,9.6"
           style="fill:none;stroke:#000000"
           id="path129" /><path
           style="fill:none;stroke:#000000"
           d="M 824.916,-918.779 H 805.919"
           id="path130-6" /><path
           d="m 824.9159,-918.7791 a 9.6,9.6 0 0 0 9.6,-9.60006"
           style="fill:none;stroke:#000000"
           id="path131" /><path
           style="fill:none;stroke:#000000"
           d="m 834.516,-952.99 v 24.611"
           id="path132-0" /><path
           d="m 834.51581,-952.98962 a 9.6,9.6 0 0 0 -9.6,-9.59994"
           style="fill:none;stroke:#000000"
           id="path133" /><path
           style="fill:none;stroke:#000000"
           d="m 805.919,-962.59 h 18.997"
           id="path134-2" /><path
           d="m 796.31923,-972.18956 a 9.6,9.6 0 0 0 9.6,9.6"
           style="fill:none;stroke:#000000"
           id="path135" /><path
           style="fill:none;stroke:#000000"
           d="m 796.319,-1251.73 v 279.54"
           id="path136-4" /><path
           d="m 843.85613,-1299.7301 a 48,48 0 0 0 -47.5369,47.9978"
           style="fill:none;stroke:#000000"
           id="path137" /><path
           style="fill:none;stroke:#000000"
           d="M 1352.95,-1299.73 H 843.856"
           id="path138-8" /><path
           style="fill:none;stroke:#000000"
           d="m 1352.95,-1370.99 v 71.26"
           id="path139" /><path
           style="fill:none;stroke:#000000"
           d="M 1705.4,-1370.99 H 1352.95"
           id="path140-6" /><path
           style="fill:none;stroke:#000000"
           d="m 1705.4,-1350.43 v -20.56"
           id="path141" /><path
           style="fill:none;stroke:#000000"
           d="m 1765.6,-1350.43 h -60.2"
           id="path142-5" /><path
           style="fill:none;stroke:#000000"
           d="m 1765.6,-1300.3 v -50.13"
           id="path143" /><path
           style="fill:none;stroke:#000000"
           d="M 2138.41,-1362.09 H 1844.35"
           id="path144-0" /><path
           style="fill:none;stroke:#000000"
           d="m 2138.41,-1262.61 v -99.48"
           id="path145" /><path
           d="m 2834.9501,-432.74617 a 8.16,8.16 0 0 0 -16.32,0 8.16,8.16 0 0 0 16.32,0 z"
           style="fill:none;stroke:#000000"
           id="path146-9" /><path
           d="m 2143.7501,-591.14617 a 8.16,8.16 0 0 0 -16.32,0 8.16,8.16 0 0 0 16.32,0 z"
           style="fill:none;stroke:#000000"
           id="path147" /><path
           style="fill:none;stroke:#000000"
           d="m 2778.61,-1324.19 h -604.8"
           id="path148-0" /><path
           style="fill:none;stroke:#000000"
           d="M 2778.61,-176.839 V -1324.19"
           id="path149" /><path
           style="fill:none;stroke:#000000"
           d="m 2173.81,-176.839 h 604.8"
           id="path150-0" /><path
           style="fill:none;stroke:#000000"
           d="M 2173.81,-1324.19 V -176.839"
           id="path151" /><path
           d="m 2834.9501,-202.34617 a 8.16,8.16 0 0 0 -16.32,0 8.16,8.16 0 0 0 16.32,0 z"
           style="fill:none;stroke:#000000"
           id="path152-6" /><path
           d="m 2834.9501,-490.34617 a 8.16,8.16 0 0 0 -16.32,0 8.16,8.16 0 0 0 16.32,0 z"
           style="fill:none;stroke:#000000"
           id="path153" /><path
           d="m 2834.9501,-941.54617 a 8.16,8.16 0 0 0 -16.32,0 8.16,8.16 0 0 0 16.32,0 z"
           style="fill:none;stroke:#000000"
           id="path154-1" /><path
           d="m 4030.6639,-251.52428 a 8.16,8.16 0 0 0 -16.32,0 8.16,8.16 0 0 0 16.32,0 z"
           style="fill:none;stroke:#000000"
           id="path155" /><path
           d="m 3012.5501,-202.34617 a 8.16,8.16 0 0 0 -16.32,0 8.16,8.16 0 0 0 16.32,0 z"
           style="fill:none;stroke:#000000"
           id="path156-3" /><path
           d="m 2979.2496,-375.45068 a 8.16,8.16 0 0 0 -16.32,0 8.16,8.16 0 0 0 16.32,0 z"
           style="fill:none;stroke:#000000"
           id="path157" /><path
           d="m 2827.7656,-1366.1184 a 8.16,8.16 0 0 0 -16.32,0 8.16,8.16 0 0 0 16.32,0 z"
           style="fill:none;stroke:#000000"
           id="path158-8" /><path
           d="m 3092.525,-377.19433 a 8.16,8.16 0 0 0 -16.32,0 8.16,8.16 0 0 0 16.32,0 z"
           style="fill:none;stroke:#000000"
           id="path159" /><path
           d="m 3232.0022,-1356.3068 a 8.16,8.16 0 0 0 -16.32,0 8.16,8.16 0 0 0 16.32,0 z"
           style="fill:none;stroke:#000000"
           id="path160-9" /><path
           d="m 3632.3142,-1303.3244 a 8.16,8.16 0 0 0 -16.32,0 8.16,8.16 0 0 0 16.32,0 z"
           style="fill:none;stroke:#000000"
           id="path161" /><path
           d="m 3956.2231,-313.15801 a 8.16,8.16 0 0 0 -16.32,0 8.16,8.16 0 0 0 16.32,0 z"
           style="fill:none;stroke:#000000"
           id="path162-3" /><path
           d="m 2976.59,-548.22438 a 8.16,8.16 0 0 0 -16.32,0 8.16,8.16 0 0 0 16.32,0 z"
           style="fill:none;stroke:#000000"
           id="path163" /><path
           d="m 3708.5501,-202.34617 a 8.16,8.16 0 0 0 -16.32,0 8.16,8.16 0 0 0 16.32,0 z"
           style="fill:none;stroke:#000000"
           id="path164-4" /><path
           d="m 4030.6639,-942.72428 a 8.16,8.16 0 0 0 -16.32,0 8.16,8.16 0 0 0 16.32,0 z"
           style="fill:none;stroke:#000000"
           id="path165" /><path
           d="m 3391.7501,-202.34617 a 8.16,8.16 0 0 0 -16.32,0 8.16,8.16 0 0 0 16.32,0 z"
           style="fill:none;stroke:#000000"
           id="path166-4" /><path
           d="m 3070.1501,-202.34617 a 8.16,8.16 0 0 0 -16.32,0 8.16,8.16 0 0 0 16.32,0 z"
           style="fill:none;stroke:#000000"
           id="path167" /><path
           d="m 3670.1431,-313.15801 a 8.16,8.16 0 0 0 -16.32,0 8.16,8.16 0 0 0 16.32,0 z"
           style="fill:none;stroke:#000000"
           id="path168-6" /><path
           style="fill:none;stroke:#000000"
           d="m 1275.81,-390.709 v 56.874"
           id="path169" /><path
           d="m 1275.8566,-391.7094 a 12,12 0 0 0 -0.042,1"
           style="fill:none;stroke:#000000"
           id="path170-0" /><path
           d="m 1299.7731,-391.70941 a 72,72 0 1 0 -23.9165,10e-6"
           style="fill:none;stroke:#000000"
           id="path171" /><path
           d="m 1299.8148,-390.7094 a 12,12 0 0 0 -0.042,-1.00001"
           style="fill:none;stroke:#000000"
           id="path172-6" /><path
           style="fill:none;stroke:#000000"
           d="m 1299.81,-333.835 v -56.874"
           id="path173" /><path
           d="m 1275.8148,-333.83507 a 12,12 0 0 0 24,0"
           style="fill:none;stroke:#000000"
           id="path174-6" /><path
           style="fill:none;stroke:#000000"
           d="m 370.546,-397.639 v 144"
           id="path175" /><path
           style="fill:none;stroke:#000000"
           d="M 1125.11,-397.639 H 370.546"
           id="path176-1" /><path
           style="fill:none;stroke:#000000"
           d="m 1125.11,-253.639 v -144"
           id="path177" /><path
           style="fill:none;stroke:#000000"
           d="M 370.546,-253.639 H 1125.11"
           id="path178-8" /><path
           d="m 1704.6543,-138.96735 a 8.16,8.16 0 0 0 -16.32,0 8.16,8.16 0 0 0 16.32,0 z"
           style="fill:none;stroke:#000000"
           id="path179" /><path
           d="m 1704.6543,152.87264 a 8.16,8.16 0 0 0 -16.32,0 8.16,8.16 0 0 0 16.32,0 z"
           style="fill:none;stroke:#000000"
           id="path180-4" /><path
           d="m 299.16259,-260.47849 a 8.16,8.16 0 0 0 -16.32,0 8.16,8.16 0 0 0 16.32,0 z"
           style="fill:none;stroke:#000000"
           id="path181" /><path
           d="m 768.33274,-1324.4061 a 8.16,8.16 0 0 0 -16.32,0 8.16,8.16 0 0 0 16.32,0 z"
           style="fill:none;stroke:#000000"
           id="path182-9" /><path
           d="m 2749.722,-83.834267 a 7.2,7.2 0 0 0 -14.4,0 7.2,7.2 0 0 0 14.4,0 z"
           style="fill:none;stroke:#000000"
           id="path183" /><path
           style="fill:none;stroke:#000000"
           d="M 758.929,-1197.46 H 550.539"
           id="path184-6" /><path
           d="m 772.15702,-1184.2349 a 13.228346,13.228346 0 0 0 -13.22835,-13.2284"
           style="fill:none;stroke:#000000"
           id="path185" /><path
           style="fill:none;stroke:#000000"
           d="M 772.157,-426.071 V -1184.23"
           id="path186-3" /><path
           d="m 758.92867,-412.84218 a 13.228346,13.228346 0 0 0 13.22835,-13.22834"
           style="fill:none;stroke:#000000"
           id="path187" /><path
           style="fill:none;stroke:#000000"
           d="M 310.488,-412.842 H 758.929"
           id="path188-7" /><path
           d="m 297.25946,-426.07052 a 13.228346,13.228346 0 0 0 13.22835,13.22834"
           style="fill:none;stroke:#000000"
           id="path189" /><path
           style="fill:none;stroke:#000000"
           d="m 297.259,-913.035 v 486.964"
           id="path190-8" /><path
           d="m 310.48781,-926.26328 a 13.228346,13.228346 0 0 0 -13.22835,13.22834"
           style="fill:none;stroke:#000000"
           id="path191" /><path
           style="fill:none;stroke:#000000"
           d="M 524.082,-926.263 H 310.488"
           id="path192-8" /><path
           d="m 524.08195,-926.26323 a 13.228346,13.228346 0 0 0 13.22835,-13.22835"
           style="fill:none;stroke:#000000"
           id="path193" /><path
           style="fill:none;stroke:#000000"
           d="m 537.31,-990.278 v 50.786"
           id="path194-2" /><path
           style="fill:none;stroke:#000000"
           d="M 514.726,-1164.14 H 470.728"
           id="path195" /><path
           d="m 1943.4116,-67.988891 a 5.6693,5.6693 0 0 0 -11.3386,0 5.6693,5.6693 0 0 0 11.3386,0 z"
           style="fill:none;stroke:#000000"
           id="path196-9" /><path
           d="m 1943.4116,177.49136 a 5.6693,5.6693 0 0 0 -11.3386,0 5.6693,5.6693 0 0 0 11.3386,0 z"
           style="fill:none;stroke:#000000"
           id="path197" /><path
           d="m 3034.5575,152.87264 a 8.16,8.16 0 0 0 -16.32,0 8.16,8.16 0 0 0 16.32,0 z"
           style="fill:none;stroke:#000000"
           id="path198-1" /><path
           d="m 3034.5575,-138.96735 a 8.16,8.16 0 0 0 -16.32,0 8.16,8.16 0 0 0 16.32,0 z"
           style="fill:none;stroke:#000000"
           id="path199" /><path
           d="m 1943.4116,100.01111 a 5.6693,5.6693 0 0 0 -11.3386,0 5.6693,5.6693 0 0 0 11.3386,0 z"
           style="fill:none;stroke:#000000"
           id="path200-3" /><path
           d="m 1943.4116,9.491365 a 5.6693,5.6693 0 0 0 -11.3386,0 5.6693,5.6693 0 0 0 11.3386,0 z"
           style="fill:none;stroke:#000000"
           id="path201" /><path
           style="fill:none;stroke:#000000"
           d="m 3834.51,-1044.49 h -77.35"
           id="path202-5" /><path
           style="fill:none;stroke:#000000"
           d="M 3834.51,-876.493 V -1044.49"
           id="path203" /><path
           style="fill:none;stroke:#000000"
           d="m 3594.51,-876.493 h 240"
           id="path204-9" /><path
           style="fill:none;stroke:#000000"
           d="m 3594.51,-1044.49 v 167.997"
           id="path205" /><path
           style="fill:none;stroke:#000000"
           d="m 3657,-1044.49 h -62.49"
           id="path206-8" /><path
           style="fill:none;stroke:#000000"
           d="m 3657,-1183.75 v 139.26"
           id="path207" /><path
           style="fill:none;stroke:#000000"
           d="M 3757.16,-1183.75 H 3657"
           id="path208-4" /><path
           style="fill:none;stroke:#000000"
           d="m 3757.16,-1044.49 v -139.26"
           id="path209" /><path
           d="m 3712.3789,-1231.3818 a 5.6693,5.6693 0 0 0 -11.3386,0 5.6693,5.6693 0 0 0 11.3386,0 z"
           style="fill:none;stroke:#000000"
           id="path210-0" /><path
           d="m 1958.5297,-29.248763 a 20.787402,20.787402 0 0 0 -41.5748,0 20.787402,20.787402 0 0 0 41.5748,0 z"
           style="fill:none;stroke:#000000"
           id="path211" /><path
           style="fill:none;stroke:#000000"
           d="M 2222.45,68.1065 V 211.729"
           id="path212-7" /><path
           style="fill:none;stroke:#000000"
           d="m 2313.16,68.1065 h -90.71"
           id="path213" /><path
           style="fill:none;stroke:#000000"
           d="M 2313.16,211.729 V 68.1065"
           id="path214-6" /><path
           style="fill:none;stroke:#000000"
           d="m 2222.45,211.729 h 90.71"
           id="path215" /><path
           style="fill:none;stroke:#000000"
           d="m 3263.75,-167.957 v 14.286"
           id="path216-3" /><path
           style="fill:none;stroke:#000000"
           d="M 3917.99,-167.957 H 3263.75"
           id="path217" /><path
           style="fill:none;stroke:#000000"
           d="M 3917.99,150.279 V -167.957"
           id="path218-6" /><path
           style="fill:none;stroke:#000000"
           d="m 3263.75,150.279 h 654.24"
           id="path219" /><path
           style="fill:none;stroke:#000000"
           d="m 3263.75,120.632 v 29.647"
           id="path220-1" /><path
           style="fill:none;stroke:#000000"
           d="M 3108.52,-130.994 V 97.955"
           id="path221" /><path
           d="m 1958.5297,138.75124 a 20.787402,20.787402 0 0 0 -41.5748,0 20.787402,20.787402 0 0 0 41.5748,0 z"
           style="fill:none;stroke:#000000"
           id="path222-5" /><path
           style="fill:none;stroke:#000000"
           d="m 3553.91,-992.839 h -604.8"
           id="path223" /><path
           style="fill:none;stroke:#000000"
           d="m 3553.91,-608.839 v -384"
           id="path224-4" /><path
           style="fill:none;stroke:#000000"
           d="m 2949.11,-608.839 h 604.8"
           id="path225" /><path
           style="fill:none;stroke:#000000"
           d="m 2949.11,-992.839 v 384"
           id="path226-2" /><path
           d="m 1632.2506,152.89799 a 8.16,8.16 0 0 0 -16.32,0 8.16,8.16 0 0 0 16.32,0 z"
           style="fill:none;stroke:#000000"
           id="path227" /><path
           d="m 1278.0106,152.89799 a 8.16,8.16 0 0 0 -16.32,0 8.16,8.16 0 0 0 16.32,0 z"
           style="fill:none;stroke:#000000"
           id="path228-0" /><path
           d="m 1632.2506,-138.94201 a 8.16,8.16 0 0 0 -16.32,0 8.16,8.16 0 0 0 16.32,0 z"
           style="fill:none;stroke:#000000"
           id="path229" /><path
           d="m 407.65574,153.0177 a 8.16,8.16 0 0 0 -16.32,0 8.16,8.16 0 0 0 16.32,0 z"
           style="fill:none;stroke:#000000"
           id="path230-9" /><path
           d="m 407.65574,-138.8223 a 8.16,8.16 0 0 0 -16.32,0 8.16,8.16 0 0 0 16.32,0 z"
           style="fill:none;stroke:#000000"
           id="path231" /><path
           d="m 555.49574,-138.8223 a 8.16,8.16 0 0 0 -16.32,0 8.16,8.16 0 0 0 16.32,0 z"
           style="fill:none;stroke:#000000"
           id="path232-7" /><path
           d="m 1278.0106,-138.94201 a 8.16,8.16 0 0 0 -16.32,0 8.16,8.16 0 0 0 16.32,0 z"
           style="fill:none;stroke:#000000"
           id="path233" /><path
           d="m 2888.922,-83.834267 a 7.2,7.2 0 0 0 -14.4,0 7.2,7.2 0 0 0 14.4,0 z"
           style="fill:none;stroke:#000000"
           id="path234-3" /><path
           d="m 2888.922,108.16573 a 7.2,7.2 0 0 0 -14.4,0 7.2,7.2 0 0 0 14.4,0 z"
           style="fill:none;stroke:#000000"
           id="path235" /><path
           d="m 2749.722,108.16573 a 7.2,7.2 0 0 0 -14.4,0 7.2,7.2 0 0 0 14.4,0 z"
           style="fill:none;stroke:#000000"
           id="path236-7" /><path
           style="fill:none;stroke:#000000"
           d="M 2911.39,45.7091 V -44.0547"
           id="path237" /><path
           style="fill:none;stroke:#000000"
           d="m 2877.38,45.7091 h 34.01"
           id="path238-2" /><path
           style="fill:none;stroke:#000000"
           d="M 2877.38,75.0004 V 45.7091"
           id="path239" /><path
           style="fill:none;stroke:#000000"
           d="m 2852.81,75.0004 h 24.57"
           id="path240-6" /><path
           style="fill:none;stroke:#000000"
           d="M 2852.81,91.5358 V 75.0004"
           id="path241" /><path
           style="fill:none;stroke:#000000"
           d="m 2823.9,91.5358 h 28.91"
           id="path242-0" /><path
           style="fill:none;stroke:#000000"
           d="m 2823.9,77.1198 v 14.416"
           id="path243" /><path
           style="fill:none;stroke:#000000"
           d="m 2748.35,77.1198 h 75.55"
           id="path244-1" /><path
           style="fill:none;stroke:#000000"
           d="m 2748.35,37.4348 v 39.685"
           id="path245" /><path
           style="fill:none;stroke:#000000"
           d="m 2672.76,37.4348 h 75.59"
           id="path246-6" /><path
           style="fill:none;stroke:#000000"
           d="M 2672.76,-30.5967 V 37.4348"
           id="path247" /><path
           style="fill:none;stroke:#000000"
           d="m 2748.35,-30.5967 h -75.59"
           id="path248-5" /><path
           style="fill:none;stroke:#000000"
           d="m 2748.35,-62.7227 v 32.126"
           id="path249" /><path
           style="fill:none;stroke:#000000"
           d="m 2806.51,-62.7227 h -58.16"
           id="path250-7" /><path
           style="fill:none;stroke:#000000"
           d="m 2806.51,-81.3775 v 18.6548"
           id="path251" /><path
           style="fill:none;stroke:#000000"
           d="m 2852.81,-81.3775 h -46.3"
           id="path252-5" /><path
           style="fill:none;stroke:#000000"
           d="M 2852.81,-64.8421 V -81.3775"
           id="path253" /><path
           style="fill:none;stroke:#000000"
           d="m 2877.38,-64.8421 h -24.57"
           id="path254-4" /><path
           style="fill:none;stroke:#000000"
           d="M 2877.38,-44.0547 V -64.8421"
           id="path255" /><path
           style="fill:none;stroke:#000000"
           d="m 2911.39,-44.0547 h -34.01"
           id="path256-1" /><path
           style="fill:none;stroke:#000000"
           d="M 1749.35,183.161 H 267.342"
           id="path257" /><path
           d="m 1892.7569,258.75123 c -11.5608,0 -22.3766,-2.20893 -33.0626,-6.61552 -11.7512,-4.84584 -22.4127,-11.9774 -32.3846,-19.78111 -14.4842,-11.33487 -27.7187,-24.24835 -40.8301,-34.09744 -6.2666,-4.70739 -12.5448,-8.74204 -18.9014,-11.4606 -2.9622,-1.26682 -6.03,-2.28499 -9.1899,-2.92529 -2.9857,-0.60498 -5.9903,-0.86014 -9.034,-0.7106"
           style="fill:none;stroke:#000000"
           id="path258-2" /><path
           style="fill:none;stroke:#000000"
           d="m 2421.46,258.751 h -528.7"
           id="path259" /><path
           d="m 2564.858,183.16067 c -4.6671,-0.2293 -9.2013,0.49628 -13.6454,1.91976 -5.9967,1.92079 -11.9039,5.13239 -17.8105,9.12317 -12.8443,8.67822 -25.8392,21.16393 -39.8262,32.76412 -10.4954,8.70438 -21.4047,16.79028 -33.3809,22.61614 -5.9746,2.90633 -12.1357,5.21169 -18.594,6.78214 -6.6382,1.6142 -13.3146,2.38523 -20.1456,2.38523"
           style="fill:none;stroke:#000000"
           id="path260-0" /><path
           style="fill:none;stroke:#000000"
           d="M 4046.87,183.161 H 2564.86"
           id="path261" /><path
           style="fill:none;stroke:#000000"
           d="m 4046.87,-679.343 v -14.4"
           id="path262-0" /><path
           style="fill:none;stroke:#000000"
           d="m 267.342,-679.343 v -14.4"
           id="path263" /><path
           d="m 267.34246,-395.12406 a 60,60 0 1 0 0,101.05133"
           style="fill:none;stroke:#000000"
           id="path264-1" /><path
           style="fill:none;stroke:#000000"
           d="m 4046.87,-118.951 h 78.29"
           id="path265" /><path
           style="fill:none;stroke:#000000"
           d="M 4125.16,-118.951 V -236.197"
           id="path266-4" /><path
           style="fill:none;stroke:#000000"
           d="m 4125.16,-236.197 h 18.96"
           id="path267" /><path
           style="fill:none;stroke:#000000"
           d="m 4144.12,-236.197 -0.01,-427.519"
           id="path268-6" /><path
           style="fill:none;stroke:#000000"
           d="m 4144.11,-663.716 -58.84,10e-4"
           id="path269" /><path
           style="fill:none;stroke:#000000"
           d="m 4085.27,-930.677 v 266.962"
           id="path270-0" /><path
           d="m 4085.27,-930.67732 c 0,-19.60931 -3.0163,-40.38409 -8.8892,-62.99239 -6.9896,-26.90739 -18.0768,-56.43229 -35.0588,-87.87209 -11.2025,-20.7398 -24.9808,-42.3004 -42.2,-64.0989"
           style="fill:none;stroke:#000000"
           id="path271" /><path
           d="m 3952.5144,-1196.4514 a 37.795276,37.795276 0 0 0 46.6076,50.8106"
           style="fill:none;stroke:#000000"
           id="path272-7" /><path
           d="m 3952.5144,-1196.4514 c -0.2394,-0.2264 -0.4793,-0.4528 -0.7196,-0.6792 -40.8728,-38.5051 -94.5563,-76.1605 -167.2124,-109.6383 -88.0391,-40.5658 -204.0356,-75.014 -362.0573,-98.8882 -97.2052,-14.6859 -210.4112,-25.3755 -342.2249,-31.3491 -82.4691,-3.7374 -172.2042,-5.6347 -269.4468,-5.6347"
           style="fill:none;stroke:#000000"
           id="path273" /><path
           style="fill:none;stroke:#000000"
           d="M 1503.36,-1442.64 H 2810.85"
           id="path274-1" /><path
           d="m 228.94237,-930.67732 c 0,-19.60931 3.01627,-40.38409 8.88912,-62.99239 6.98962,-26.90739 18.07682,-56.43229 35.05887,-87.87209 19.99588,-37.0195 48.19853,-76.6543 89.52715,-115.5888 40.87287,-38.5051 94.55634,-76.1605 167.21239,-109.6383 88.03915,-40.5658 204.0356,-75.014 362.0573,-98.8882 97.20526,-14.6859 210.4112,-25.3755 342.2249,-31.3491 82.4691,-3.7374 172.2042,-5.6347 269.4468,-5.6347"
           style="fill:none;stroke:#000000"
           id="path275" /><path
           style="fill:none;stroke:#000000"
           d="m 228.942,-930.677 v 266.915"
           id="path276-7" /><path
           style="fill:none;stroke:#000000"
           d="m 166.529,-663.762 h 62.413"
           id="path277" /><path
           style="fill:none;stroke:#000000"
           d="M 166.529,-215.548 V -663.762"
           id="path278-7" /><path
           style="fill:none;stroke:#000000"
           d="M 182.868,-215.548 H 166.529"
           id="path279" /><path
           style="fill:none;stroke:#000000"
           d="m 182.868,-118.951 v -96.597"
           id="path280-7" /><path
           style="fill:none;stroke:#000000"
           d="M 267.342,-118.951 H 182.868"
           id="path281" /><path
           d="m 3686.2639,-1323.2631 a 5.6693,5.6693 0 0 0 -11.3386,0 5.6693,5.6693 0 0 0 11.3386,0 z"
           style="fill:none;stroke:#000000"
           id="path282-7" /><path
           d="m 2673.0116,-1419.9637 a 5.6693,5.6693 0 0 0 -11.3386,0 5.6693,5.6693 0 0 0 11.3386,0 z"
           style="fill:none;stroke:#000000"
           id="path283" /><path
           d="m 1822.1077,-1431.3024 a 5.6693,5.6693 0 0 0 -11.3386,0 5.6693,5.6693 0 0 0 11.3386,0 z"
           style="fill:none;stroke:#000000"
           id="path284-3" /><path
           d="m 2162.7755,-1419.9637 a 5.6693,5.6693 0 0 0 -11.3386,0 5.6693,5.6693 0 0 0 11.3386,0 z"
           style="fill:none;stroke:#000000"
           id="path285" /><path
           d="m 3183.2479,-1408.7961 a 5.6693,5.6693 0 0 0 -11.3386,0 5.6693,5.6693 0 0 0 11.3386,0 z"
           style="fill:none;stroke:#000000"
           id="path286-3" /><path
           d="m 4062.4059,-978.50492 a 5.6693,5.6693 0 0 0 -11.3386,0 5.6693,5.6693 0 0 0 11.3386,0 z"
           style="fill:none;stroke:#000000"
           id="path287" /><path
           d="m 3431.2793,-1378.0488 a 7.559055,7.559055 0 0 0 -15.1181,0 7.559055,7.559055 0 0 0 15.1181,0 z"
           style="fill:none;stroke:#000000"
           id="path288-5" /><path
           d="m 262.75805,-521.73203 a 40.8,40.8 0 0 0 -81.6,0 40.8,40.8 0 0 0 81.6,0 z"
           style="fill:none;stroke:#000000"
           id="path289" /><path
           d="m 4103.5069,-622.95136 a 14.4,14.4 0 0 0 -28.8,0 14.4,14.4 0 0 0 28.8,0 z"
           style="fill:none;stroke:#000000"
           id="path290-9" /><path
           d="m 4103.5069,-430.95135 a 14.4,14.4 0 0 0 -28.8,0 14.4,14.4 0 0 0 28.8,0 z"
           style="fill:none;stroke:#000000"
           id="path291" /><path
           d="m 4103.5069,-214.95135 a 14.4,14.4 0 0 0 -28.8,0 14.4,14.4 0 0 0 28.8,0 z"
           style="fill:none;stroke:#000000"
           id="path292-9" /><path
           d="m 239.5055,-622.95136 a 14.4,14.4 0 0 0 -28.8,0 14.4,14.4 0 0 0 28.8,0 z"
           style="fill:none;stroke:#000000"
           id="path293" /><path
           d="m 239.5055,-430.95135 a 14.4,14.4 0 0 0 -28.8,0 14.4,14.4 0 0 0 28.8,0 z"
           style="fill:none;stroke:#000000"
           id="path294-8" /><path
           d="m 239.5055,-214.95135 a 14.4,14.4 0 0 0 -28.8,0 14.4,14.4 0 0 0 28.8,0 z"
           style="fill:none;stroke:#000000"
           id="path295" /><path
           d="m 2446.24,-1431.3024 a 5.669291,5.669291 0 0 0 -11.3385,0 5.669291,5.669291 0 0 0 11.3385,0 z"
           style="fill:none;stroke:#000000"
           id="path296-1" /><path
           d="m 1879.3109,-1431.3024 a 5.6693,5.6693 0 0 0 -11.3386,0 5.6693,5.6693 0 0 0 11.3386,0 z"
           style="fill:none;stroke:#000000"
           id="path297" /><path
           d="m 639.28696,-1323.2631 a 5.669295,5.669295 0 0 0 -11.33859,0 5.669295,5.669295 0 0 0 11.33859,0 z"
           style="fill:none;stroke:#000000"
           id="path298-8" /><path
           d="m 1652.5392,-1419.9637 a 5.6693,5.6693 0 0 0 -11.3386,0 5.6693,5.6693 0 0 0 11.3386,0 z"
           style="fill:none;stroke:#000000"
           id="path299" /><path
           d="m 1142.303,-1408.7961 a 5.6693,5.6693 0 0 0 -11.3386,0 5.6693,5.6693 0 0 0 11.3386,0 z"
           style="fill:none;stroke:#000000"
           id="path300-2" /><path
           d="m 263.14494,-978.50492 a 5.669291,5.669291 0 0 0 -11.33858,0 5.669291,5.669291 0 0 0 11.33858,0 z"
           style="fill:none;stroke:#000000"
           id="path301" /><path
           d="m 898.05102,-1378.0488 a 7.559055,7.559055 0 0 0 -15.11811,0 7.559055,7.559055 0 0 0 15.11811,0 z"
           style="fill:none;stroke:#000000"
           id="path302-6" /><path
           d="m 4046.87,-296.81389 a 48,48 0 1 0 0,-64.01707"
           style="fill:none;stroke:#000000"
           id="path303" /></g><g
         inkscape:label="GD&amp;T Symbols"
         id="g304" /></g></g></svg>
