0
SECTION
2
HEADER
0
ENDSEC
0
SECTION
2
TABLES
0
TABLE
2
LTYPE
0
LTYPE
72
65
70
64
2
CONTINUOUS
3
______
73
0
40
0
0
ENDTAB
0
TABLE
2
LAYER
0
ENDTAB
0
ENDSEC
0
SECTION
2
ENTITIES
0
CIRCLE
8
0
10
24
20
0
40
2
0
CIRCLE
8
0
10
24
20
0
40
2
0
LINE
8
layer0
10
31.4685344
20
4.7480291
11
31.3879953
21
4.5439214
0
LINE
8
layer0
10
31.3879953
20
4.5439214
11
31.3044209
21
4.3557245
0
LINE
8
layer0
10
31.3044209
20
4.3557245
11
31.2189182
21
4.183041
0
LINE
8
layer0
10
31.2189182
20
4.183041
11
31.1315725
21
4.0237641
0
LINE
8
layer0
10
31.1315725
20
4.0237641
11
31.044926
21
3.8803602
0
LINE
8
layer0
10
31.044926
20
3.8803602
11
30.9587543
21
3.7503484
0
LINE
8
layer0
10
30.9587543
20
3.7503484
11
30.8736427
21
3.6329307
0
LINE
8
layer0
10
30.8736427
20
3.6329307
11
30.7932232
21
3.5312322
0
LINE
8
layer0
10
30.7932232
20
3.5312322
11
30.7154608
21
3.4408697
0
LINE
8
layer0
10
30.7154608
20
3.4408697
11
30.5747839
21
3.2964497
0
LINE
8
layer0
10
30.5747839
20
3.2964497
11
30.4606445
21
3.1973062
0
LINE
8
layer0
10
30.4606445
20
3.1973062
11
30.381046
21
3.1387742
0
LINE
8
layer0
10
30.381046
20
3.1387742
11
30.2167681
21
3.094303
0
LINE
8
layer0
10
30.2167681
20
3.094303
11
30.0570861
21
3.0387285
0
LINE
8
layer0
10
30.0570861
20
3.0387285
11
29.9130144
21
2.9757558
0
LINE
8
layer0
10
29.9130144
20
2.9757558
11
29.7848625
21
2.9066
0
LINE
8
layer0
10
29.7848625
20
2.9066
11
29.6728738
21
2.8324862
0
LINE
8
layer0
10
29.6728738
20
2.8324862
11
29.5772063
21
2.7546434
0
LINE
8
layer0
10
29.5772063
20
2.7546434
11
29.4979641
21
2.6743041
0
LINE
8
layer0
10
29.4979641
20
2.6743041
11
29.4351757
21
2.5927078
0
LINE
8
layer0
10
29.4351757
20
2.5927078
11
29.3887555
21
2.5110884
0
LINE
8
layer0
10
29.3887555
20
2.5110884
11
29.3586021
21
2.4306643
0
LINE
8
layer0
10
29.3586021
20
2.4306643
11
29.3444876
21
2.3526546
0
LINE
8
layer0
10
29.3444876
20
2.3526546
11
29.3461491
21
2.2782568
0
LINE
8
layer0
10
29.3461491
20
2.2782568
11
29.3632382
21
2.2086403
0
LINE
8
layer0
10
29.3632382
20
2.2086403
11
29.4416748
21
2.0070731
0
LINE
8
layer0
10
29.4416748
20
2.0070731
11
29.5161278
21
1.7922986
0
LINE
8
layer0
10
29.5161278
20
1.7922986
11
29.5821354
21
1.5747799
0
LINE
8
layer0
10
29.5821354
20
1.5747799
11
29.637157
21
1.3656048
0
LINE
8
layer0
10
29.637157
20
1.3656048
11
29.6642512
21
1.2992392
0
LINE
8
layer0
10
29.6642512
20
1.2992392
11
29.706637
21
1.2380734
0
LINE
8
layer0
10
29.706637
20
1.2380734
11
29.7639088
21
1.1832586
0
LINE
8
layer0
10
29.7639088
20
1.1832586
11
29.8355755
21
1.1359178
0
LINE
8
layer0
10
29.8355755
20
1.1359178
11
29.9211049
21
1.0971714
0
LINE
8
layer0
10
29.9211049
20
1.0971714
11
30.0198629
21
1.0680648
0
LINE
8
layer0
10
30.0198629
20
1.0680648
11
30.1311934
21
1.0496463
0
LINE
8
layer0
10
30.1311934
20
1.0496463
11
30.2543449
21
1.0429021
0
LINE
8
layer0
10
30.2543449
20
1.0429021
11
30.3885087
21
1.0487681
0
LINE
8
layer0
10
30.3885087
20
1.0487681
11
30.5328345
21
1.0681457
0
LINE
8
layer0
10
30.5328345
20
1.0681457
11
30.6864054
21
1.1018829
0
LINE
8
layer0
10
30.6864054
20
1.1018829
11
30.8482567
21
1.1507809
0
LINE
8
layer0
10
30.8482567
20
1.1507809
11
31.0072999
21
1.2113631
0
LINE
8
layer0
10
31.0072999
20
1.2113631
11
31.1061006
21
1.2107965
0
LINE
8
layer0
10
31.1061006
20
1.2107965
11
31.2567164
21
1.1976772
0
LINE
8
layer0
10
31.2567164
20
1.1976772
11
31.4554144
21
1.1635268
0
LINE
8
layer0
10
31.4554144
20
1.1635268
11
31.5714393
21
1.1361295
0
LINE
8
layer0
10
31.5714393
20
1.1361295
11
31.6962768
21
1.1011231
0
LINE
8
layer0
10
31.6962768
20
1.1011231
11
31.83415
21
1.0561575
0
LINE
8
layer0
10
31.83415
20
1.0561575
11
31.9802833
21
1.0016262
0
LINE
8
layer0
10
31.9802833
20
1.0016262
11
32.1346726
21
0.9365396
0
LINE
8
layer0
10
32.1346726
20
0.9365396
11
32.2989574
21
0.8590224
0
LINE
8
layer0
10
32.2989574
20
0.8590224
11
32.4696313
21
0.7695757
0
LINE
8
layer0
10
32.4696313
20
0.7695757
11
32.6478637
21
0.666445
0
LINE
8
layer0
10
32.6478637
20
0.666445
11
32.8329928
21
0.5486581
0
LINE
8
layer0
10
32.8329928
20
0.5486581
11
32.9891673
21
0.4403704
0
ARC
8
layer0
10
23.9999474
20
0
40
9
50
357.1953957
51
362.8046049
0
LINE
8
layer0
10
32.9891673
20
-0.4403704
11
32.8329928
21
-0.5486581
0
LINE
8
layer0
10
32.8329928
20
-0.5486581
11
32.6478637
21
-0.666445
0
LINE
8
layer0
10
32.6478637
20
-0.666445
11
32.4696313
21
-0.7695757
0
LINE
8
layer0
10
32.4696313
20
-0.7695757
11
32.2989574
21
-0.8590224
0
LINE
8
layer0
10
32.2989574
20
-0.8590224
11
32.1346726
21
-0.9365396
0
LINE
8
layer0
10
32.1346726
20
-0.9365396
11
31.9802833
21
-1.0016262
0
LINE
8
layer0
10
31.9802833
20
-1.0016262
11
31.83415
21
-1.0561575
0
LINE
8
layer0
10
31.83415
20
-1.0561575
11
31.6962768
21
-1.1011231
0
LINE
8
layer0
10
31.6962768
20
-1.1011231
11
31.5714393
21
-1.1361295
0
LINE
8
layer0
10
31.5714393
20
-1.1361295
11
31.4554144
21
-1.1635268
0
LINE
8
layer0
10
31.4554144
20
-1.1635268
11
31.2567164
21
-1.1976772
0
LINE
8
layer0
10
31.2567164
20
-1.1976772
11
31.1061006
21
-1.2107965
0
LINE
8
layer0
10
31.1061006
20
-1.2107965
11
31.0072999
21
-1.2113631
0
LINE
8
layer0
10
31.0072999
20
-1.2113631
11
30.8482567
21
-1.1507809
0
LINE
8
layer0
10
30.8482567
20
-1.1507809
11
30.6864054
21
-1.1018829
0
LINE
8
layer0
10
30.6864054
20
-1.1018829
11
30.5328345
21
-1.0681457
0
LINE
8
layer0
10
30.5328345
20
-1.0681457
11
30.3885087
21
-1.0487681
0
LINE
8
layer0
10
30.3885087
20
-1.0487681
11
30.2543449
21
-1.0429021
0
LINE
8
layer0
10
30.2543449
20
-1.0429021
11
30.1311934
21
-1.0496463
0
LINE
8
layer0
10
30.1311934
20
-1.0496463
11
30.0198629
21
-1.0680648
0
LINE
8
layer0
10
30.0198629
20
-1.0680648
11
29.9211049
21
-1.0971714
0
LINE
8
layer0
10
29.9211049
20
-1.0971714
11
29.8355755
21
-1.1359178
0
LINE
8
layer0
10
29.8355755
20
-1.1359178
11
29.7639088
21
-1.1832586
0
LINE
8
layer0
10
29.7639088
20
-1.1832586
11
29.706637
21
-1.2380734
0
LINE
8
layer0
10
29.706637
20
-1.2380734
11
29.6642512
21
-1.2992392
0
LINE
8
layer0
10
29.6642512
20
-1.2992392
11
29.637157
21
-1.3656048
0
LINE
8
layer0
10
29.637157
20
-1.3656048
11
29.5821354
21
-1.5747799
0
LINE
8
layer0
10
29.5821354
20
-1.5747799
11
29.5161278
21
-1.7922986
0
LINE
8
layer0
10
29.5161278
20
-1.7922986
11
29.4416748
21
-2.0070731
0
LINE
8
layer0
10
29.4416748
20
-2.0070731
11
29.3632382
21
-2.2086403
0
LINE
8
layer0
10
29.3632382
20
-2.2086403
11
29.3461491
21
-2.2782568
0
LINE
8
layer0
10
29.3461491
20
-2.2782568
11
29.3444876
21
-2.3526546
0
LINE
8
layer0
10
29.3444876
20
-2.3526546
11
29.3586021
21
-2.4306643
0
LINE
8
layer0
10
29.3586021
20
-2.4306643
11
29.3887555
21
-2.5110884
0
LINE
8
layer0
10
29.3887555
20
-2.5110884
11
29.4351757
21
-2.5927078
0
LINE
8
layer0
10
29.4351757
20
-2.5927078
11
29.4979641
21
-2.6743041
0
LINE
8
layer0
10
29.4979641
20
-2.6743041
11
29.5772063
21
-2.7546434
0
LINE
8
layer0
10
29.5772063
20
-2.7546434
11
29.6728738
21
-2.8324862
0
LINE
8
layer0
10
29.6728738
20
-2.8324862
11
29.7848625
21
-2.9066
0
LINE
8
layer0
10
29.7848625
20
-2.9066
11
29.9130144
21
-2.9757558
0
LINE
8
layer0
10
29.9130144
20
-2.9757558
11
30.0570861
21
-3.0387285
0
LINE
8
layer0
10
30.0570861
20
-3.0387285
11
30.2167681
21
-3.094303
0
LINE
8
layer0
10
30.2167681
20
-3.094303
11
30.381046
21
-3.1387742
0
LINE
8
layer0
10
30.381046
20
-3.1387742
11
30.4606445
21
-3.1973062
0
LINE
8
layer0
10
30.4606445
20
-3.1973062
11
30.5747839
21
-3.2964497
0
LINE
8
layer0
10
30.5747839
20
-3.2964497
11
30.7154608
21
-3.4408697
0
LINE
8
layer0
10
30.7154608
20
-3.4408697
11
30.7932232
21
-3.5312322
0
LINE
8
layer0
10
30.7932232
20
-3.5312322
11
30.8736427
21
-3.6329307
0
LINE
8
layer0
10
30.8736427
20
-3.6329307
11
30.9587543
21
-3.7503484
0
LINE
8
layer0
10
30.9587543
20
-3.7503484
11
31.044926
21
-3.8803602
0
LINE
8
layer0
10
31.044926
20
-3.8803602
11
31.1315725
21
-4.0237641
0
LINE
8
layer0
10
31.1315725
20
-4.0237641
11
31.2189182
21
-4.183041
0
LINE
8
layer0
10
31.2189182
20
-4.183041
11
31.3044209
21
-4.3557245
0
LINE
8
layer0
10
31.3044209
20
-4.3557245
11
31.3879953
21
-4.5439214
0
LINE
8
layer0
10
31.3879953
20
-4.5439214
11
31.4685344
21
-4.7480291
0
LINE
8
layer0
10
31.4685344
20
-4.7480291
11
31.5312323
21
-4.9274329
0
ARC
8
layer0
10
23.9999575
20
0.0000309
40
9
50
321.1953951
51
326.8046043
0
LINE
8
layer0
10
31.0135459
20
-5.6399671
11
30.8235481
21
-5.6357766
0
LINE
8
layer0
10
30.8235481
20
-5.6357766
11
30.6045422
21
-5.6222521
0
LINE
8
layer0
10
30.6045422
20
-5.6222521
11
30.3997304
21
-5.6009242
0
LINE
8
layer0
10
30.3997304
20
-5.6009242
11
30.2090768
21
-5.5729685
0
LINE
8
layer0
10
30.2090768
20
-5.5729685
11
30.0306042
21
-5.539117
0
LINE
8
layer0
10
30.0306042
20
-5.539117
11
29.8674437
21
-5.5010255
0
LINE
8
layer0
10
29.8674437
20
-5.5010255
11
29.7171667
21
-5.4592472
0
LINE
8
layer0
10
29.7171667
20
-5.4592472
11
29.5791948
21
-5.4145854
0
LINE
8
layer0
10
29.5791948
20
-5.4145854
11
29.4576229
21
-5.3695285
0
LINE
8
layer0
10
29.4576229
20
-5.3695285
11
29.3476531
21
-5.3234956
0
LINE
8
layer0
10
29.3476531
20
-5.3234956
11
29.1668299
21
-5.2343321
0
LINE
8
layer0
10
29.1668299
20
-5.2343321
11
29.0372679
21
-5.1564161
0
LINE
8
layer0
10
29.0372679
20
-5.1564161
11
28.9570033
21
-5.0988009
0
LINE
8
layer0
10
28.9570033
20
-5.0988009
11
28.863944
21
-4.9563056
0
LINE
8
layer0
10
28.863944
20
-4.9563056
11
28.7617451
21
-4.8216125
0
LINE
8
layer0
10
28.7617451
20
-4.8216125
11
28.6573339
21
-4.7040518
0
LINE
8
layer0
10
28.6573339
20
-4.7040518
11
28.5519617
21
-4.6035424
0
LINE
8
layer0
10
28.5519617
20
-4.6035424
11
28.4468689
21
-4.5199373
0
LINE
8
layer0
10
28.4468689
20
-4.5199373
11
28.3432731
21
-4.4530068
0
LINE
8
layer0
10
28.3432731
20
-4.4530068
11
28.2423787
21
-4.4024692
0
LINE
8
layer0
10
28.2423787
20
-4.4024692
11
28.1453733
21
-4.3679685
0
LINE
8
layer0
10
28.1453733
20
-4.3679685
11
28.053404
21
-4.349042
0
LINE
8
layer0
10
28.053404
20
-4.349042
11
27.9675982
21
-4.3452169
0
LINE
8
layer0
10
27.9675982
20
-4.3452169
11
27.889045
21
-4.3558995
0
LINE
8
layer0
10
27.889045
20
-4.3558995
11
27.8188019
21
-4.3804699
0
LINE
8
layer0
10
27.8188019
20
-4.3804699
11
27.7578735
21
-4.4182352
0
LINE
8
layer0
10
27.7578735
20
-4.4182352
11
27.59041
21
-4.5551206
0
LINE
8
layer0
10
27.59041
20
-4.5551206
11
27.4091545
21
-4.6922986
0
LINE
8
layer0
10
27.4091545
20
-4.6922986
11
27.2226794
21
-4.8222925
0
LINE
8
layer0
10
27.2226794
20
-4.8222925
11
27.0407446
21
-4.9392598
0
LINE
8
layer0
10
27.0407446
20
-4.9392598
11
26.9859998
21
-4.985536
0
LINE
8
layer0
10
26.9859998
20
-4.985536
11
26.9409256
21
-5.0447485
0
LINE
8
layer0
10
26.9409256
20
-5.0447485
11
26.9064915
21
-5.116156
0
LINE
8
layer0
10
26.9064915
20
-5.116156
11
26.883614
21
-5.1989442
0
LINE
8
layer0
10
26.883614
20
-5.1989442
11
26.8731941
21
-5.2922608
0
LINE
8
layer0
10
26.8731941
20
-5.2922608
11
26.8760299
21
-5.3951797
0
LINE
8
layer0
10
26.8760299
20
-5.3951797
11
26.8929159
21
-5.5067529
0
LINE
8
layer0
10
26.8929159
20
-5.5067529
11
26.9245578
21
-5.625961
0
LINE
8
layer0
10
26.9245578
20
-5.625961
11
26.9715955
21
-5.7517457
0
LINE
8
layer0
10
26.9715955
20
-5.7517457
11
27.0346238
21
-5.8830197
0
LINE
8
layer0
10
27.0346238
20
-5.8830197
11
27.1141658
21
-6.0186489
0
LINE
8
layer0
10
27.1141658
20
-6.0186489
11
27.2106854
21
-6.1574683
0
LINE
8
layer0
10
27.2106854
20
-6.1574683
11
27.3174495
21
-6.2900064
0
LINE
8
layer0
10
27.3174495
20
-6.2900064
11
27.3474417
21
-6.3841466
0
LINE
8
layer0
10
27.3474417
20
-6.3841466
11
27.3815074
21
-6.5314448
0
LINE
8
layer0
10
27.3815074
20
-6.5314448
11
27.4104295
21
-6.7309709
0
LINE
8
layer0
10
27.4104295
20
-6.7309709
11
27.4202268
21
-6.8497833
0
LINE
8
layer0
10
27.4202268
20
-6.8497833
11
27.4255107
21
-6.9793285
0
LINE
8
layer0
10
27.4255107
20
-6.9793285
11
27.425351
21
-7.1243488
0
LINE
8
layer0
10
27.425351
20
-7.1243488
11
27.4186463
21
-7.2801809
0
LINE
8
layer0
10
27.4186463
20
-7.2801809
11
27.4044541
21
-7.4471267
0
LINE
8
layer0
10
27.4044541
20
-7.4471267
11
27.3814977
21
-7.627325
0
LINE
8
layer0
10
27.3814977
20
-7.627325
11
27.34917
21
-7.817286
0
LINE
8
layer0
10
27.34917
20
-7.817286
11
27.3061637
21
-8.0186643
0
LINE
8
layer0
10
27.3061637
20
-8.0186643
11
27.2513497
21
-8.2311306
0
LINE
8
layer0
10
27.2513497
20
-8.2311306
11
27.1966226
21
-8.4131242
0
ARC
8
layer0
10
23.9999833
20
0.0000498
40
9
50
285.1953987
51
290.8046081
0
LINE
8
layer0
10
26.3589884
20
-8.6852881
11
26.20774
21
-8.57022
0
LINE
8
layer0
10
26.20774
20
-8.57022
11
26.03851
21
-8.43055
0
LINE
8
layer0
10
26.03851
20
-8.43055
11
25.88535
21
-8.29291
0
LINE
8
layer0
10
25.88535
20
-8.29291
11
25.74754
21
-8.15823
0
LINE
8
layer0
10
25.74754
20
-8.15823
11
25.62305
21
-8.02594
0
LINE
8
layer0
10
25.62305
20
-8.02594
11
25.51344
21
-7.89922
0
LINE
8
layer0
10
25.51344
20
-7.89922
11
25.41642
21
-7.77709
0
LINE
8
layer0
10
25.41642
20
-7.77709
11
25.33105
21
-7.65986
0
LINE
8
layer0
10
25.33105
20
-7.65986
11
25.25918
21
-7.55195
0
LINE
8
layer0
10
25.25918
20
-7.55195
11
25.19727
21
-7.45007
0
LINE
8
layer0
10
25.19727
20
-7.45007
11
25.10339
21
-7.27165
0
LINE
8
layer0
10
25.10339
20
-7.27165
11
25.04437
21
-7.13246
0
LINE
8
layer0
10
25.04437
20
-7.13246
11
25.0133
21
-7.03867
0
LINE
8
layer0
10
25.0133
20
-7.03867
11
25.02177
21
-6.86869
0
LINE
8
layer0
10
25.02177
20
-6.86869
11
25.01826
21
-6.69965
0
LINE
8
layer0
10
25.01826
20
-6.69965
11
25.00289
21
-6.54317
0
LINE
8
layer0
10
25.00289
20
-6.54317
11
24.97672
21
-6.39992
0
LINE
8
layer0
10
24.97672
20
-6.39992
11
24.94084
21
-6.27051
0
LINE
8
layer0
10
24.94084
20
-6.27051
11
24.89637
21
-6.15547
0
LINE
8
layer0
10
24.89637
20
-6.15547
11
24.84445
21
-6.05528
0
LINE
8
layer0
10
24.84445
20
-6.05528
11
24.78625
21
-5.97035
0
LINE
8
layer0
10
24.78625
20
-5.97035
11
24.72297
21
-5.90098
0
LINE
8
layer0
10
24.72297
20
-5.90098
11
24.6558
21
-5.84745
0
LINE
8
layer0
10
24.6558
20
-5.84745
11
24.58597
21
-5.80992
0
LINE
8
layer0
10
24.58597
20
-5.80992
11
24.5147
21
-5.78851
0
LINE
8
layer0
10
24.5147
20
-5.78851
11
24.44321
21
-5.78325
0
LINE
8
layer0
10
24.44321
20
-5.78325
11
24.22727
21
-5.79556
0
LINE
8
layer0
10
24.22727
20
-5.79556
11
24
21
-5.8
0
LINE
8
layer0
10
24
20
-5.8
11
23.77273
21
-5.79556
0
LINE
8
layer0
10
23.77273
20
-5.79556
11
23.55679
21
-5.78325
0
LINE
8
layer0
10
23.55679
20
-5.78325
11
23.4853
21
-5.78851
0
LINE
8
layer0
10
23.4853
20
-5.78851
11
23.41403
21
-5.80992
0
LINE
8
layer0
10
23.41403
20
-5.80992
11
23.3442
21
-5.84745
0
LINE
8
layer0
10
23.3442
20
-5.84745
11
23.27703
21
-5.90098
0
LINE
8
layer0
10
23.27703
20
-5.90098
11
23.21375
21
-5.97035
0
LINE
8
layer0
10
23.21375
20
-5.97035
11
23.15555
21
-6.05528
0
LINE
8
layer0
10
23.15555
20
-6.05528
11
23.10363
21
-6.15547
0
LINE
8
layer0
10
23.10363
20
-6.15547
11
23.05916
21
-6.27051
0
LINE
8
layer0
10
23.05916
20
-6.27051
11
23.02328
21
-6.39992
0
LINE
8
layer0
10
23.02328
20
-6.39992
11
22.99711
21
-6.54317
0
LINE
8
layer0
10
22.99711
20
-6.54317
11
22.98174
21
-6.69965
0
LINE
8
layer0
10
22.98174
20
-6.69965
11
22.97823
21
-6.86869
0
LINE
8
layer0
10
22.97823
20
-6.86869
11
22.9867
21
-7.03867
0
LINE
8
layer0
10
22.9867
20
-7.03867
11
22.95563
21
-7.13246
0
LINE
8
layer0
10
22.95563
20
-7.13246
11
22.89661
21
-7.27165
0
LINE
8
layer0
10
22.89661
20
-7.27165
11
22.80273
21
-7.45007
0
LINE
8
layer0
10
22.80273
20
-7.45007
11
22.74082
21
-7.55195
0
LINE
8
layer0
10
22.74082
20
-7.55195
11
22.66895
21
-7.65986
0
LINE
8
layer0
10
22.66895
20
-7.65986
11
22.58358
21
-7.77709
0
LINE
8
layer0
10
22.58358
20
-7.77709
11
22.48656
21
-7.89922
0
LINE
8
layer0
10
22.48656
20
-7.89922
11
22.37695
21
-8.02594
0
LINE
8
layer0
10
22.37695
20
-8.02594
11
22.25246
21
-8.15823
0
LINE
8
layer0
10
22.25246
20
-8.15823
11
22.11465
21
-8.29291
0
LINE
8
layer0
10
22.11465
20
-8.29291
11
21.96149
21
-8.43055
0
LINE
8
layer0
10
21.96149
20
-8.43055
11
21.79226
21
-8.57022
0
LINE
8
layer0
10
21.79226
20
-8.57022
11
21.6410116
21
-8.6852881
0
ARC
8
layer0
10
24.0000167
20
0.0000498
40
9
50
249.1953919
51
254.8046013
0
LINE
8
layer0
10
20.8033774
20
-8.4131242
11
20.7486503
21
-8.2311306
0
LINE
8
layer0
10
20.7486503
20
-8.2311306
11
20.6938363
21
-8.0186643
0
LINE
8
layer0
10
20.6938363
20
-8.0186643
11
20.65083
21
-7.817286
0
LINE
8
layer0
10
20.65083
20
-7.817286
11
20.6185023
21
-7.627325
0
LINE
8
layer0
10
20.6185023
20
-7.627325
11
20.5955459
21
-7.4471267
0
LINE
8
layer0
10
20.5955459
20
-7.4471267
11
20.5813537
21
-7.2801809
0
LINE
8
layer0
10
20.5813537
20
-7.2801809
11
20.574649
21
-7.1243488
0
LINE
8
layer0
10
20.574649
20
-7.1243488
11
20.5744893
21
-6.9793285
0
LINE
8
layer0
10
20.5744893
20
-6.9793285
11
20.5797732
21
-6.8497833
0
LINE
8
layer0
10
20.5797732
20
-6.8497833
11
20.5895705
21
-6.7309709
0
LINE
8
layer0
10
20.5895705
20
-6.7309709
11
20.6184926
21
-6.5314448
0
LINE
8
layer0
10
20.6184926
20
-6.5314448
11
20.6525583
21
-6.3841466
0
LINE
8
layer0
10
20.6525583
20
-6.3841466
11
20.6825505
21
-6.2900064
0
LINE
8
layer0
10
20.6825505
20
-6.2900064
11
20.7893146
21
-6.1574683
0
LINE
8
layer0
10
20.7893146
20
-6.1574683
11
20.8858342
21
-6.0186489
0
LINE
8
layer0
10
20.8858342
20
-6.0186489
11
20.9653762
21
-5.8830197
0
LINE
8
layer0
10
20.9653762
20
-5.8830197
11
21.0284045
21
-5.7517457
0
LINE
8
layer0
10
21.0284045
20
-5.7517457
11
21.0754422
21
-5.625961
0
LINE
8
layer0
10
21.0754422
20
-5.625961
11
21.1070841
21
-5.5067529
0
LINE
8
layer0
10
21.1070841
20
-5.5067529
11
21.1239701
21
-5.3951797
0
LINE
8
layer0
10
21.1239701
20
-5.3951797
11
21.1268059
21
-5.2922608
0
LINE
8
layer0
10
21.1268059
20
-5.2922608
11
21.116386
21
-5.1989442
0
LINE
8
layer0
10
21.116386
20
-5.1989442
11
21.0935085
21
-5.116156
0
LINE
8
layer0
10
21.0935085
20
-5.116156
11
21.0590744
21
-5.0447485
0
LINE
8
layer0
10
21.0590744
20
-5.0447485
11
21.0140002
21
-4.985536
0
LINE
8
layer0
10
21.0140002
20
-4.985536
11
20.9592554
21
-4.9392598
0
LINE
8
layer0
10
20.9592554
20
-4.9392598
11
20.7773206
21
-4.8222925
0
LINE
8
layer0
10
20.7773206
20
-4.8222925
11
20.5908455
21
-4.6922986
0
LINE
8
layer0
10
20.5908455
20
-4.6922986
11
20.40959
21
-4.5551206
0
LINE
8
layer0
10
20.40959
20
-4.5551206
11
20.2421265
21
-4.4182352
0
LINE
8
layer0
10
20.2421265
20
-4.4182352
11
20.1811981
21
-4.3804699
0
LINE
8
layer0
10
20.1811981
20
-4.3804699
11
20.110955
21
-4.3558995
0
LINE
8
layer0
10
20.110955
20
-4.3558995
11
20.0324018
21
-4.3452169
0
LINE
8
layer0
10
20.0324018
20
-4.3452169
11
19.946596
21
-4.349042
0
LINE
8
layer0
10
19.946596
20
-4.349042
11
19.8546267
21
-4.3679685
0
LINE
8
layer0
10
19.8546267
20
-4.3679685
11
19.7576213
21
-4.4024692
0
LINE
8
layer0
10
19.7576213
20
-4.4024692
11
19.6567269
21
-4.4530068
0
LINE
8
layer0
10
19.6567269
20
-4.4530068
11
19.5531311
21
-4.5199373
0
LINE
8
layer0
10
19.5531311
20
-4.5199373
11
19.4480383
21
-4.6035424
0
LINE
8
layer0
10
19.4480383
20
-4.6035424
11
19.3426661
21
-4.7040518
0
LINE
8
layer0
10
19.3426661
20
-4.7040518
11
19.2382549
21
-4.8216125
0
LINE
8
layer0
10
19.2382549
20
-4.8216125
11
19.136056
21
-4.9563056
0
LINE
8
layer0
10
19.136056
20
-4.9563056
11
19.0429967
21
-5.0988009
0
LINE
8
layer0
10
19.0429967
20
-5.0988009
11
18.9627321
21
-5.1564161
0
LINE
8
layer0
10
18.9627321
20
-5.1564161
11
18.8331701
21
-5.2343321
0
LINE
8
layer0
10
18.8331701
20
-5.2343321
11
18.6523469
21
-5.3234956
0
LINE
8
layer0
10
18.6523469
20
-5.3234956
11
18.5423771
21
-5.3695285
0
LINE
8
layer0
10
18.5423771
20
-5.3695285
11
18.4208052
21
-5.4145854
0
LINE
8
layer0
10
18.4208052
20
-5.4145854
11
18.2828333
21
-5.4592472
0
LINE
8
layer0
10
18.2828333
20
-5.4592472
11
18.1325563
21
-5.5010255
0
LINE
8
layer0
10
18.1325563
20
-5.5010255
11
17.9693958
21
-5.539117
0
LINE
8
layer0
10
17.9693958
20
-5.539117
11
17.7909232
21
-5.5729685
0
LINE
8
layer0
10
17.7909232
20
-5.5729685
11
17.6002696
21
-5.6009242
0
LINE
8
layer0
10
17.6002696
20
-5.6009242
11
17.3954578
21
-5.6222521
0
LINE
8
layer0
10
17.3954578
20
-5.6222521
11
17.1764519
21
-5.6357766
0
LINE
8
layer0
10
17.1764519
20
-5.6357766
11
16.9864541
21
-5.6399671
0
ARC
8
layer0
10
24.0000425
20
0.0000309
40
9
50
213.1953957
51
218.8046049
0
LINE
8
layer0
10
16.4687677
20
-4.9274329
11
16.5314656
21
-4.7480291
0
LINE
8
layer0
10
16.5314656
20
-4.7480291
11
16.6120047
21
-4.5439214
0
LINE
8
layer0
10
16.6120047
20
-4.5439214
11
16.6955791
21
-4.3557245
0
LINE
8
layer0
10
16.6955791
20
-4.3557245
11
16.7810818
21
-4.183041
0
LINE
8
layer0
10
16.7810818
20
-4.183041
11
16.8684275
21
-4.0237641
0
LINE
8
layer0
10
16.8684275
20
-4.0237641
11
16.955074
21
-3.8803602
0
LINE
8
layer0
10
16.955074
20
-3.8803602
11
17.0412457
21
-3.7503484
0
LINE
8
layer0
10
17.0412457
20
-3.7503484
11
17.1263573
21
-3.6329307
0
LINE
8
layer0
10
17.1263573
20
-3.6329307
11
17.2067768
21
-3.5312322
0
LINE
8
layer0
10
17.2067768
20
-3.5312322
11
17.2845392
21
-3.4408697
0
LINE
8
layer0
10
17.2845392
20
-3.4408697
11
17.4252161
21
-3.2964497
0
LINE
8
layer0
10
17.4252161
20
-3.2964497
11
17.5393555
21
-3.1973062
0
LINE
8
layer0
10
17.5393555
20
-3.1973062
11
17.618954
21
-3.1387742
0
LINE
8
layer0
10
17.618954
20
-3.1387742
11
17.7832319
21
-3.094303
0
LINE
8
layer0
10
17.7832319
20
-3.094303
11
17.9429139
21
-3.0387285
0
LINE
8
layer0
10
17.9429139
20
-3.0387285
11
18.0869856
21
-2.9757558
0
LINE
8
layer0
10
18.0869856
20
-2.9757558
11
18.2151375
21
-2.9066
0
LINE
8
layer0
10
18.2151375
20
-2.9066
11
18.3271262
21
-2.8324862
0
LINE
8
layer0
10
18.3271262
20
-2.8324862
11
18.4227937
21
-2.7546434
0
LINE
8
layer0
10
18.4227937
20
-2.7546434
11
18.5020359
21
-2.6743041
0
LINE
8
layer0
10
18.5020359
20
-2.6743041
11
18.5648243
21
-2.5927078
0
LINE
8
layer0
10
18.5648243
20
-2.5927078
11
18.6112445
21
-2.5110884
0
LINE
8
layer0
10
18.6112445
20
-2.5110884
11
18.6413979
21
-2.4306643
0
LINE
8
layer0
10
18.6413979
20
-2.4306643
11
18.6555124
21
-2.3526546
0
LINE
8
layer0
10
18.6555124
20
-2.3526546
11
18.6538509
21
-2.2782568
0
LINE
8
layer0
10
18.6538509
20
-2.2782568
11
18.6367618
21
-2.2086403
0
LINE
8
layer0
10
18.6367618
20
-2.2086403
11
18.5583252
21
-2.0070731
0
LINE
8
layer0
10
18.5583252
20
-2.0070731
11
18.4838722
21
-1.7922986
0
LINE
8
layer0
10
18.4838722
20
-1.7922986
11
18.4178646
21
-1.5747799
0
LINE
8
layer0
10
18.4178646
20
-1.5747799
11
18.362843
21
-1.3656048
0
LINE
8
layer0
10
18.362843
20
-1.3656048
11
18.3357488
21
-1.2992392
0
LINE
8
layer0
10
18.3357488
20
-1.2992392
11
18.293363
21
-1.2380734
0
LINE
8
layer0
10
18.293363
20
-1.2380734
11
18.2360912
21
-1.1832586
0
LINE
8
layer0
10
18.2360912
20
-1.1832586
11
18.1644245
21
-1.1359178
0
LINE
8
layer0
10
18.1644245
20
-1.1359178
11
18.0788951
21
-1.0971714
0
LINE
8
layer0
10
18.0788951
20
-1.0971714
11
17.9801371
21
-1.0680648
0
LINE
8
layer0
10
17.9801371
20
-1.0680648
11
17.8688066
21
-1.0496463
0
LINE
8
layer0
10
17.8688066
20
-1.0496463
11
17.7456551
21
-1.0429021
0
LINE
8
layer0
10
17.7456551
20
-1.0429021
11
17.6114913
21
-1.0487681
0
LINE
8
layer0
10
17.6114913
20
-1.0487681
11
17.4671655
21
-1.0681457
0
LINE
8
layer0
10
17.4671655
20
-1.0681457
11
17.3135946
21
-1.1018829
0
LINE
8
layer0
10
17.3135946
20
-1.1018829
11
17.1517433
21
-1.1507809
0
LINE
8
layer0
10
17.1517433
20
-1.1507809
11
16.9927001
21
-1.2113631
0
LINE
8
layer0
10
16.9927001
20
-1.2113631
11
16.8938994
21
-1.2107965
0
LINE
8
layer0
10
16.8938994
20
-1.2107965
11
16.7432836
21
-1.1976772
0
LINE
8
layer0
10
16.7432836
20
-1.1976772
11
16.5445856
21
-1.1635268
0
LINE
8
layer0
10
16.5445856
20
-1.1635268
11
16.4285607
21
-1.1361295
0
LINE
8
layer0
10
16.4285607
20
-1.1361295
11
16.3037232
21
-1.1011231
0
LINE
8
layer0
10
16.3037232
20
-1.1011231
11
16.16585
21
-1.0561575
0
LINE
8
layer0
10
16.16585
20
-1.0561575
11
16.0197167
21
-1.0016262
0
LINE
8
layer0
10
16.0197167
20
-1.0016262
11
15.8653274
21
-0.9365396
0
LINE
8
layer0
10
15.8653274
20
-0.9365396
11
15.7010426
21
-0.8590224
0
LINE
8
layer0
10
15.7010426
20
-0.8590224
11
15.5303687
21
-0.7695757
0
LINE
8
layer0
10
15.5303687
20
-0.7695757
11
15.3521363
21
-0.666445
0
LINE
8
layer0
10
15.3521363
20
-0.666445
11
15.1670072
21
-0.5486581
0
LINE
8
layer0
10
15.1670072
20
-0.5486581
11
15.0108327
21
-0.4403704
0
ARC
8
layer0
10
24.0000526
20
0
40
9
50
177.1953957
51
182.8046049
0
LINE
8
layer0
10
15.0108327
20
0.4403704
11
15.1670072
21
0.5486581
0
LINE
8
layer0
10
15.1670072
20
0.5486581
11
15.3521363
21
0.666445
0
LINE
8
layer0
10
15.3521363
20
0.666445
11
15.5303687
21
0.7695757
0
LINE
8
layer0
10
15.5303687
20
0.7695757
11
15.7010426
21
0.8590224
0
LINE
8
layer0
10
15.7010426
20
0.8590224
11
15.8653274
21
0.9365396
0
LINE
8
layer0
10
15.8653274
20
0.9365396
11
16.0197167
21
1.0016262
0
LINE
8
layer0
10
16.0197167
20
1.0016262
11
16.16585
21
1.0561575
0
LINE
8
layer0
10
16.16585
20
1.0561575
11
16.3037232
21
1.1011231
0
LINE
8
layer0
10
16.3037232
20
1.1011231
11
16.4285607
21
1.1361295
0
LINE
8
layer0
10
16.4285607
20
1.1361295
11
16.5445856
21
1.1635268
0
LINE
8
layer0
10
16.5445856
20
1.1635268
11
16.7432836
21
1.1976772
0
LINE
8
layer0
10
16.7432836
20
1.1976772
11
16.8938994
21
1.2107965
0
LINE
8
layer0
10
16.8938994
20
1.2107965
11
16.9927001
21
1.2113631
0
LINE
8
layer0
10
16.9927001
20
1.2113631
11
17.1517433
21
1.1507809
0
LINE
8
layer0
10
17.1517433
20
1.1507809
11
17.3135946
21
1.1018829
0
LINE
8
layer0
10
17.3135946
20
1.1018829
11
17.4671655
21
1.0681457
0
LINE
8
layer0
10
17.4671655
20
1.0681457
11
17.6114913
21
1.0487681
0
LINE
8
layer0
10
17.6114913
20
1.0487681
11
17.7456551
21
1.0429021
0
LINE
8
layer0
10
17.7456551
20
1.0429021
11
17.8688066
21
1.0496463
0
LINE
8
layer0
10
17.8688066
20
1.0496463
11
17.9801371
21
1.0680648
0
LINE
8
layer0
10
17.9801371
20
1.0680648
11
18.0788951
21
1.0971714
0
LINE
8
layer0
10
18.0788951
20
1.0971714
11
18.1644245
21
1.1359178
0
LINE
8
layer0
10
18.1644245
20
1.1359178
11
18.2360912
21
1.1832586
0
LINE
8
layer0
10
18.2360912
20
1.1832586
11
18.293363
21
1.2380734
0
LINE
8
layer0
10
18.293363
20
1.2380734
11
18.3357488
21
1.2992392
0
LINE
8
layer0
10
18.3357488
20
1.2992392
11
18.362843
21
1.3656048
0
LINE
8
layer0
10
18.362843
20
1.3656048
11
18.4178646
21
1.5747799
0
LINE
8
layer0
10
18.4178646
20
1.5747799
11
18.4838722
21
1.7922986
0
LINE
8
layer0
10
18.4838722
20
1.7922986
11
18.5583252
21
2.0070731
0
LINE
8
layer0
10
18.5583252
20
2.0070731
11
18.6367618
21
2.2086403
0
LINE
8
layer0
10
18.6367618
20
2.2086403
11
18.6538509
21
2.2782568
0
LINE
8
layer0
10
18.6538509
20
2.2782568
11
18.6555124
21
2.3526546
0
LINE
8
layer0
10
18.6555124
20
2.3526546
11
18.6413979
21
2.4306643
0
LINE
8
layer0
10
18.6413979
20
2.4306643
11
18.6112445
21
2.5110884
0
LINE
8
layer0
10
18.6112445
20
2.5110884
11
18.5648243
21
2.5927078
0
LINE
8
layer0
10
18.5648243
20
2.5927078
11
18.5020359
21
2.6743041
0
LINE
8
layer0
10
18.5020359
20
2.6743041
11
18.4227937
21
2.7546434
0
LINE
8
layer0
10
18.4227937
20
2.7546434
11
18.3271262
21
2.8324862
0
LINE
8
layer0
10
18.3271262
20
2.8324862
11
18.2151375
21
2.9066
0
LINE
8
layer0
10
18.2151375
20
2.9066
11
18.0869856
21
2.9757558
0
LINE
8
layer0
10
18.0869856
20
2.9757558
11
17.9429139
21
3.0387285
0
LINE
8
layer0
10
17.9429139
20
3.0387285
11
17.7832319
21
3.094303
0
LINE
8
layer0
10
17.7832319
20
3.094303
11
17.618954
21
3.1387742
0
LINE
8
layer0
10
17.618954
20
3.1387742
11
17.5393555
21
3.1973062
0
LINE
8
layer0
10
17.5393555
20
3.1973062
11
17.4252161
21
3.2964497
0
LINE
8
layer0
10
17.4252161
20
3.2964497
11
17.2845392
21
3.4408697
0
LINE
8
layer0
10
17.2845392
20
3.4408697
11
17.2067768
21
3.5312322
0
LINE
8
layer0
10
17.2067768
20
3.5312322
11
17.1263573
21
3.6329307
0
LINE
8
layer0
10
17.1263573
20
3.6329307
11
17.0412457
21
3.7503484
0
LINE
8
layer0
10
17.0412457
20
3.7503484
11
16.955074
21
3.8803602
0
LINE
8
layer0
10
16.955074
20
3.8803602
11
16.8684275
21
4.0237641
0
LINE
8
layer0
10
16.8684275
20
4.0237641
11
16.7810818
21
4.183041
0
LINE
8
layer0
10
16.7810818
20
4.183041
11
16.6955791
21
4.3557245
0
LINE
8
layer0
10
16.6955791
20
4.3557245
11
16.6120047
21
4.5439214
0
LINE
8
layer0
10
16.6120047
20
4.5439214
11
16.5314656
21
4.7480291
0
LINE
8
layer0
10
16.5314656
20
4.7480291
11
16.4687677
21
4.9274329
0
ARC
8
layer0
10
24.0000425
20
-0.0000309
40
9
50
141.1953951
51
146.8046043
0
LINE
8
layer0
10
16.9864541
20
5.6399671
11
17.1764519
21
5.6357766
0
LINE
8
layer0
10
17.1764519
20
5.6357766
11
17.3954578
21
5.6222521
0
LINE
8
layer0
10
17.3954578
20
5.6222521
11
17.6002696
21
5.6009242
0
LINE
8
layer0
10
17.6002696
20
5.6009242
11
17.7909232
21
5.5729685
0
LINE
8
layer0
10
17.7909232
20
5.5729685
11
17.9693958
21
5.539117
0
LINE
8
layer0
10
17.9693958
20
5.539117
11
18.1325563
21
5.5010255
0
LINE
8
layer0
10
18.1325563
20
5.5010255
11
18.2828333
21
5.4592472
0
LINE
8
layer0
10
18.2828333
20
5.4592472
11
18.4208052
21
5.4145854
0
LINE
8
layer0
10
18.4208052
20
5.4145854
11
18.5423771
21
5.3695285
0
LINE
8
layer0
10
18.5423771
20
5.3695285
11
18.6523469
21
5.3234956
0
LINE
8
layer0
10
18.6523469
20
5.3234956
11
18.8331701
21
5.2343321
0
LINE
8
layer0
10
18.8331701
20
5.2343321
11
18.9627321
21
5.1564161
0
LINE
8
layer0
10
18.9627321
20
5.1564161
11
19.0429967
21
5.0988009
0
LINE
8
layer0
10
19.0429967
20
5.0988009
11
19.136056
21
4.9563056
0
LINE
8
layer0
10
19.136056
20
4.9563056
11
19.2382549
21
4.8216125
0
LINE
8
layer0
10
19.2382549
20
4.8216125
11
19.3426661
21
4.7040518
0
LINE
8
layer0
10
19.3426661
20
4.7040518
11
19.4480383
21
4.6035424
0
LINE
8
layer0
10
19.4480383
20
4.6035424
11
19.5531311
21
4.5199373
0
LINE
8
layer0
10
19.5531311
20
4.5199373
11
19.6567269
21
4.4530068
0
LINE
8
layer0
10
19.6567269
20
4.4530068
11
19.7576213
21
4.4024692
0
LINE
8
layer0
10
19.7576213
20
4.4024692
11
19.8546267
21
4.3679685
0
LINE
8
layer0
10
19.8546267
20
4.3679685
11
19.946596
21
4.349042
0
LINE
8
layer0
10
19.946596
20
4.349042
11
20.0324018
21
4.3452169
0
LINE
8
layer0
10
20.0324018
20
4.3452169
11
20.110955
21
4.3558995
0
LINE
8
layer0
10
20.110955
20
4.3558995
11
20.1811981
21
4.3804699
0
LINE
8
layer0
10
20.1811981
20
4.3804699
11
20.2421265
21
4.4182352
0
LINE
8
layer0
10
20.2421265
20
4.4182352
11
20.40959
21
4.5551206
0
LINE
8
layer0
10
20.40959
20
4.5551206
11
20.5908455
21
4.6922986
0
LINE
8
layer0
10
20.5908455
20
4.6922986
11
20.7773206
21
4.8222925
0
LINE
8
layer0
10
20.7773206
20
4.8222925
11
20.9592554
21
4.9392598
0
LINE
8
layer0
10
20.9592554
20
4.9392598
11
21.0140002
21
4.985536
0
LINE
8
layer0
10
21.0140002
20
4.985536
11
21.0590744
21
5.0447485
0
LINE
8
layer0
10
21.0590744
20
5.0447485
11
21.0935085
21
5.116156
0
LINE
8
layer0
10
21.0935085
20
5.116156
11
21.116386
21
5.1989442
0
LINE
8
layer0
10
21.116386
20
5.1989442
11
21.1268059
21
5.2922608
0
LINE
8
layer0
10
21.1268059
20
5.2922608
11
21.1239701
21
5.3951797
0
LINE
8
layer0
10
21.1239701
20
5.3951797
11
21.1070841
21
5.5067529
0
LINE
8
layer0
10
21.1070841
20
5.5067529
11
21.0754422
21
5.625961
0
LINE
8
layer0
10
21.0754422
20
5.625961
11
21.0284045
21
5.7517457
0
LINE
8
layer0
10
21.0284045
20
5.7517457
11
20.9653762
21
5.8830197
0
LINE
8
layer0
10
20.9653762
20
5.8830197
11
20.8858342
21
6.0186489
0
LINE
8
layer0
10
20.8858342
20
6.0186489
11
20.7893146
21
6.1574683
0
LINE
8
layer0
10
20.7893146
20
6.1574683
11
20.6825505
21
6.2900064
0
LINE
8
layer0
10
20.6825505
20
6.2900064
11
20.6525583
21
6.3841466
0
LINE
8
layer0
10
20.6525583
20
6.3841466
11
20.6184926
21
6.5314448
0
LINE
8
layer0
10
20.6184926
20
6.5314448
11
20.5895705
21
6.7309709
0
LINE
8
layer0
10
20.5895705
20
6.7309709
11
20.5797732
21
6.8497833
0
LINE
8
layer0
10
20.5797732
20
6.8497833
11
20.5744893
21
6.9793285
0
LINE
8
layer0
10
20.5744893
20
6.9793285
11
20.574649
21
7.1243488
0
LINE
8
layer0
10
20.574649
20
7.1243488
11
20.5813537
21
7.2801809
0
LINE
8
layer0
10
20.5813537
20
7.2801809
11
20.5955459
21
7.4471267
0
LINE
8
layer0
10
20.5955459
20
7.4471267
11
20.6185023
21
7.627325
0
LINE
8
layer0
10
20.6185023
20
7.627325
11
20.65083
21
7.817286
0
LINE
8
layer0
10
20.65083
20
7.817286
11
20.6938363
21
8.0186643
0
LINE
8
layer0
10
20.6938363
20
8.0186643
11
20.7486503
21
8.2311306
0
LINE
8
layer0
10
20.7486503
20
8.2311306
11
20.8033774
21
8.4131242
0
ARC
8
layer0
10
24.0000167
20
-0.0000498
40
9
50
105.1953987
51
110.8046081
0
LINE
8
layer0
10
21.6410116
20
8.6852881
11
21.79226
21
8.57022
0
LINE
8
layer0
10
21.79226
20
8.57022
11
21.96149
21
8.43055
0
LINE
8
layer0
10
21.96149
20
8.43055
11
22.11465
21
8.29291
0
LINE
8
layer0
10
22.11465
20
8.29291
11
22.25246
21
8.15823
0
LINE
8
layer0
10
22.25246
20
8.15823
11
22.37695
21
8.02594
0
LINE
8
layer0
10
22.37695
20
8.02594
11
22.48656
21
7.89922
0
LINE
8
layer0
10
22.48656
20
7.89922
11
22.58358
21
7.77709
0
LINE
8
layer0
10
22.58358
20
7.77709
11
22.66895
21
7.65986
0
LINE
8
layer0
10
22.66895
20
7.65986
11
22.74082
21
7.55195
0
LINE
8
layer0
10
22.74082
20
7.55195
11
22.80273
21
7.45007
0
LINE
8
layer0
10
22.80273
20
7.45007
11
22.89661
21
7.27165
0
LINE
8
layer0
10
22.89661
20
7.27165
11
22.95563
21
7.13246
0
LINE
8
layer0
10
22.95563
20
7.13246
11
22.9867
21
7.03867
0
LINE
8
layer0
10
22.9867
20
7.03867
11
22.97823
21
6.86869
0
LINE
8
layer0
10
22.97823
20
6.86869
11
22.98174
21
6.69965
0
LINE
8
layer0
10
22.98174
20
6.69965
11
22.99711
21
6.54317
0
LINE
8
layer0
10
22.99711
20
6.54317
11
23.02328
21
6.39992
0
LINE
8
layer0
10
23.02328
20
6.39992
11
23.05916
21
6.27051
0
LINE
8
layer0
10
23.05916
20
6.27051
11
23.10363
21
6.15547
0
LINE
8
layer0
10
23.10363
20
6.15547
11
23.15555
21
6.05528
0
LINE
8
layer0
10
23.15555
20
6.05528
11
23.21375
21
5.97035
0
LINE
8
layer0
10
23.21375
20
5.97035
11
23.27703
21
5.90098
0
LINE
8
layer0
10
23.27703
20
5.90098
11
23.3442
21
5.84745
0
LINE
8
layer0
10
23.3442
20
5.84745
11
23.41403
21
5.80992
0
LINE
8
layer0
10
23.41403
20
5.80992
11
23.4853
21
5.78851
0
LINE
8
layer0
10
23.4853
20
5.78851
11
23.55679
21
5.78325
0
LINE
8
layer0
10
23.55679
20
5.78325
11
23.77273
21
5.79556
0
LINE
8
layer0
10
23.77273
20
5.79556
11
24
21
5.8
0
LINE
8
layer0
10
24
20
5.8
11
24.22727
21
5.79556
0
LINE
8
layer0
10
24.22727
20
5.79556
11
24.44321
21
5.78325
0
LINE
8
layer0
10
24.44321
20
5.78325
11
24.5147
21
5.78851
0
LINE
8
layer0
10
24.5147
20
5.78851
11
24.58597
21
5.80992
0
LINE
8
layer0
10
24.58597
20
5.80992
11
24.6558
21
5.84745
0
LINE
8
layer0
10
24.6558
20
5.84745
11
24.72297
21
5.90098
0
LINE
8
layer0
10
24.72297
20
5.90098
11
24.78625
21
5.97035
0
LINE
8
layer0
10
24.78625
20
5.97035
11
24.84445
21
6.05528
0
LINE
8
layer0
10
24.84445
20
6.05528
11
24.89637
21
6.15547
0
LINE
8
layer0
10
24.89637
20
6.15547
11
24.94084
21
6.27051
0
LINE
8
layer0
10
24.94084
20
6.27051
11
24.97672
21
6.39992
0
LINE
8
layer0
10
24.97672
20
6.39992
11
25.00289
21
6.54317
0
LINE
8
layer0
10
25.00289
20
6.54317
11
25.01826
21
6.69965
0
LINE
8
layer0
10
25.01826
20
6.69965
11
25.02177
21
6.86869
0
LINE
8
layer0
10
25.02177
20
6.86869
11
25.0133
21
7.03867
0
LINE
8
layer0
10
25.0133
20
7.03867
11
25.04437
21
7.13246
0
LINE
8
layer0
10
25.04437
20
7.13246
11
25.10339
21
7.27165
0
LINE
8
layer0
10
25.10339
20
7.27165
11
25.19727
21
7.45007
0
LINE
8
layer0
10
25.19727
20
7.45007
11
25.25918
21
7.55195
0
LINE
8
layer0
10
25.25918
20
7.55195
11
25.33105
21
7.65986
0
LINE
8
layer0
10
25.33105
20
7.65986
11
25.41642
21
7.77709
0
LINE
8
layer0
10
25.41642
20
7.77709
11
25.51344
21
7.89922
0
LINE
8
layer0
10
25.51344
20
7.89922
11
25.62305
21
8.02594
0
LINE
8
layer0
10
25.62305
20
8.02594
11
25.74754
21
8.15823
0
LINE
8
layer0
10
25.74754
20
8.15823
11
25.88535
21
8.29291
0
LINE
8
layer0
10
25.88535
20
8.29291
11
26.03851
21
8.43055
0
LINE
8
layer0
10
26.03851
20
8.43055
11
26.20774
21
8.57022
0
LINE
8
layer0
10
26.20774
20
8.57022
11
26.3589884
21
8.6852881
0
ARC
8
layer0
10
23.9999833
20
-0.0000498
40
9
50
69.1953919
51
74.8046013
0
LINE
8
layer0
10
27.1966226
20
8.4131242
11
27.2513497
21
8.2311306
0
LINE
8
layer0
10
27.2513497
20
8.2311306
11
27.3061637
21
8.0186643
0
LINE
8
layer0
10
27.3061637
20
8.0186643
11
27.34917
21
7.817286
0
LINE
8
layer0
10
27.34917
20
7.817286
11
27.3814977
21
7.627325
0
LINE
8
layer0
10
27.3814977
20
7.627325
11
27.4044541
21
7.4471267
0
LINE
8
layer0
10
27.4044541
20
7.4471267
11
27.4186463
21
7.2801809
0
LINE
8
layer0
10
27.4186463
20
7.2801809
11
27.425351
21
7.1243488
0
LINE
8
layer0
10
27.425351
20
7.1243488
11
27.4255107
21
6.9793285
0
LINE
8
layer0
10
27.4255107
20
6.9793285
11
27.4202268
21
6.8497833
0
LINE
8
layer0
10
27.4202268
20
6.8497833
11
27.4104295
21
6.7309709
0
LINE
8
layer0
10
27.4104295
20
6.7309709
11
27.3815074
21
6.5314448
0
LINE
8
layer0
10
27.3815074
20
6.5314448
11
27.3474417
21
6.3841466
0
LINE
8
layer0
10
27.3474417
20
6.3841466
11
27.3174495
21
6.2900064
0
LINE
8
layer0
10
27.3174495
20
6.2900064
11
27.2106854
21
6.1574683
0
LINE
8
layer0
10
27.2106854
20
6.1574683
11
27.1141658
21
6.0186489
0
LINE
8
layer0
10
27.1141658
20
6.0186489
11
27.0346238
21
5.8830197
0
LINE
8
layer0
10
27.0346238
20
5.8830197
11
26.9715955
21
5.7517457
0
LINE
8
layer0
10
26.9715955
20
5.7517457
11
26.9245578
21
5.625961
0
LINE
8
layer0
10
26.9245578
20
5.625961
11
26.8929159
21
5.5067529
0
LINE
8
layer0
10
26.8929159
20
5.5067529
11
26.8760299
21
5.3951797
0
LINE
8
layer0
10
26.8760299
20
5.3951797
11
26.8731941
21
5.2922608
0
LINE
8
layer0
10
26.8731941
20
5.2922608
11
26.883614
21
5.1989442
0
LINE
8
layer0
10
26.883614
20
5.1989442
11
26.9064915
21
5.116156
0
LINE
8
layer0
10
26.9064915
20
5.116156
11
26.9409256
21
5.0447485
0
LINE
8
layer0
10
26.9409256
20
5.0447485
11
26.9859998
21
4.985536
0
LINE
8
layer0
10
26.9859998
20
4.985536
11
27.0407446
21
4.9392598
0
LINE
8
layer0
10
27.0407446
20
4.9392598
11
27.2226794
21
4.8222925
0
LINE
8
layer0
10
27.2226794
20
4.8222925
11
27.4091545
21
4.6922986
0
LINE
8
layer0
10
27.4091545
20
4.6922986
11
27.59041
21
4.5551206
0
LINE
8
layer0
10
27.59041
20
4.5551206
11
27.7578735
21
4.4182352
0
LINE
8
layer0
10
27.7578735
20
4.4182352
11
27.8188019
21
4.3804699
0
LINE
8
layer0
10
27.8188019
20
4.3804699
11
27.889045
21
4.3558995
0
LINE
8
layer0
10
27.889045
20
4.3558995
11
27.9675982
21
4.3452169
0
LINE
8
layer0
10
27.9675982
20
4.3452169
11
28.053404
21
4.349042
0
LINE
8
layer0
10
28.053404
20
4.349042
11
28.1453733
21
4.3679685
0
LINE
8
layer0
10
28.1453733
20
4.3679685
11
28.2423787
21
4.4024692
0
LINE
8
layer0
10
28.2423787
20
4.4024692
11
28.3432731
21
4.4530068
0
LINE
8
layer0
10
28.3432731
20
4.4530068
11
28.4468689
21
4.5199373
0
LINE
8
layer0
10
28.4468689
20
4.5199373
11
28.5519617
21
4.6035424
0
LINE
8
layer0
10
28.5519617
20
4.6035424
11
28.6573339
21
4.7040518
0
LINE
8
layer0
10
28.6573339
20
4.7040518
11
28.7617451
21
4.8216125
0
LINE
8
layer0
10
28.7617451
20
4.8216125
11
28.863944
21
4.9563056
0
LINE
8
layer0
10
28.863944
20
4.9563056
11
28.9570033
21
5.0988009
0
LINE
8
layer0
10
28.9570033
20
5.0988009
11
29.0372679
21
5.1564161
0
LINE
8
layer0
10
29.0372679
20
5.1564161
11
29.1668299
21
5.2343321
0
LINE
8
layer0
10
29.1668299
20
5.2343321
11
29.3476531
21
5.3234956
0
LINE
8
layer0
10
29.3476531
20
5.3234956
11
29.4576229
21
5.3695285
0
LINE
8
layer0
10
29.4576229
20
5.3695285
11
29.5791948
21
5.4145854
0
LINE
8
layer0
10
29.5791948
20
5.4145854
11
29.7171667
21
5.4592472
0
LINE
8
layer0
10
29.7171667
20
5.4592472
11
29.8674437
21
5.5010255
0
LINE
8
layer0
10
29.8674437
20
5.5010255
11
30.0306042
21
5.539117
0
LINE
8
layer0
10
30.0306042
20
5.539117
11
30.2090768
21
5.5729685
0
LINE
8
layer0
10
30.2090768
20
5.5729685
11
30.3997304
21
5.6009242
0
LINE
8
layer0
10
30.3997304
20
5.6009242
11
30.6045422
21
5.6222521
0
LINE
8
layer0
10
30.6045422
20
5.6222521
11
30.8235481
21
5.6357766
0
LINE
8
layer0
10
30.8235481
20
5.6357766
11
31.0135459
21
5.6399671
0
ARC
8
layer0
10
23.9999575
20
-0.0000309
40
9
50
33.1953957
51
38.8046049
0
LINE
8
layer0
10
31.5312323
20
4.9274329
11
31.4685344
21
4.7480291
0
LINE
8
layer1
10
31.4685344
20
4.7480291
11
31.3879953
21
4.5439214
0
LINE
8
layer1
10
31.3879953
20
4.5439214
11
31.3044209
21
4.3557245
0
LINE
8
layer1
10
31.3044209
20
4.3557245
11
31.2189182
21
4.183041
0
LINE
8
layer1
10
31.2189182
20
4.183041
11
31.1315725
21
4.0237641
0
LINE
8
layer1
10
31.1315725
20
4.0237641
11
31.044926
21
3.8803602
0
LINE
8
layer1
10
31.044926
20
3.8803602
11
30.9587543
21
3.7503484
0
LINE
8
layer1
10
30.9587543
20
3.7503484
11
30.8736427
21
3.6329307
0
LINE
8
layer1
10
30.8736427
20
3.6329307
11
30.7932232
21
3.5312322
0
LINE
8
layer1
10
30.7932232
20
3.5312322
11
30.7154608
21
3.4408697
0
LINE
8
layer1
10
30.7154608
20
3.4408697
11
30.5747839
21
3.2964497
0
LINE
8
layer1
10
30.5747839
20
3.2964497
11
30.4606445
21
3.1973062
0
LINE
8
layer1
10
30.4606445
20
3.1973062
11
30.381046
21
3.1387742
0
LINE
8
layer1
10
30.381046
20
3.1387742
11
30.2167681
21
3.094303
0
LINE
8
layer1
10
30.2167681
20
3.094303
11
30.0570861
21
3.0387285
0
LINE
8
layer1
10
30.0570861
20
3.0387285
11
29.9130144
21
2.9757558
0
LINE
8
layer1
10
29.9130144
20
2.9757558
11
29.7848625
21
2.9066
0
LINE
8
layer1
10
29.7848625
20
2.9066
11
29.6728738
21
2.8324862
0
LINE
8
layer1
10
29.6728738
20
2.8324862
11
29.5772063
21
2.7546434
0
LINE
8
layer1
10
29.5772063
20
2.7546434
11
29.4979641
21
2.6743041
0
LINE
8
layer1
10
29.4979641
20
2.6743041
11
29.4351757
21
2.5927078
0
LINE
8
layer1
10
29.4351757
20
2.5927078
11
29.3887555
21
2.5110884
0
LINE
8
layer1
10
29.3887555
20
2.5110884
11
29.3586021
21
2.4306643
0
LINE
8
layer1
10
29.3586021
20
2.4306643
11
29.3444876
21
2.3526546
0
LINE
8
layer1
10
29.3444876
20
2.3526546
11
29.3461491
21
2.2782568
0
LINE
8
layer1
10
29.3461491
20
2.2782568
11
29.3632382
21
2.2086403
0
LINE
8
layer1
10
29.3632382
20
2.2086403
11
29.4416748
21
2.0070731
0
LINE
8
layer1
10
29.4416748
20
2.0070731
11
29.5161278
21
1.7922986
0
LINE
8
layer1
10
29.5161278
20
1.7922986
11
29.5821354
21
1.5747799
0
LINE
8
layer1
10
29.5821354
20
1.5747799
11
29.637157
21
1.3656048
0
LINE
8
layer1
10
29.637157
20
1.3656048
11
29.6642512
21
1.2992392
0
LINE
8
layer1
10
29.6642512
20
1.2992392
11
29.706637
21
1.2380734
0
LINE
8
layer1
10
29.706637
20
1.2380734
11
29.7639088
21
1.1832586
0
LINE
8
layer1
10
29.7639088
20
1.1832586
11
29.8355755
21
1.1359178
0
LINE
8
layer1
10
29.8355755
20
1.1359178
11
29.9211049
21
1.0971714
0
LINE
8
layer1
10
29.9211049
20
1.0971714
11
30.0198629
21
1.0680648
0
LINE
8
layer1
10
30.0198629
20
1.0680648
11
30.1311934
21
1.0496463
0
LINE
8
layer1
10
30.1311934
20
1.0496463
11
30.2543449
21
1.0429021
0
LINE
8
layer1
10
30.2543449
20
1.0429021
11
30.3885087
21
1.0487681
0
LINE
8
layer1
10
30.3885087
20
1.0487681
11
30.5328345
21
1.0681457
0
LINE
8
layer1
10
30.5328345
20
1.0681457
11
30.6864054
21
1.1018829
0
LINE
8
layer1
10
30.6864054
20
1.1018829
11
30.8482567
21
1.1507809
0
LINE
8
layer1
10
30.8482567
20
1.1507809
11
31.0072999
21
1.2113631
0
LINE
8
layer1
10
31.0072999
20
1.2113631
11
31.1061006
21
1.2107965
0
LINE
8
layer1
10
31.1061006
20
1.2107965
11
31.2567164
21
1.1976772
0
LINE
8
layer1
10
31.2567164
20
1.1976772
11
31.4554144
21
1.1635268
0
LINE
8
layer1
10
31.4554144
20
1.1635268
11
31.5714393
21
1.1361295
0
LINE
8
layer1
10
31.5714393
20
1.1361295
11
31.6962768
21
1.1011231
0
LINE
8
layer1
10
31.6962768
20
1.1011231
11
31.83415
21
1.0561575
0
LINE
8
layer1
10
31.83415
20
1.0561575
11
31.9802833
21
1.0016262
0
LINE
8
layer1
10
31.9802833
20
1.0016262
11
32.1346726
21
0.9365396
0
LINE
8
layer1
10
32.1346726
20
0.9365396
11
32.2989574
21
0.8590224
0
LINE
8
layer1
10
32.2989574
20
0.8590224
11
32.4696313
21
0.7695757
0
LINE
8
layer1
10
32.4696313
20
0.7695757
11
32.6478637
21
0.666445
0
LINE
8
layer1
10
32.6478637
20
0.666445
11
32.8329928
21
0.5486581
0
LINE
8
layer1
10
32.8329928
20
0.5486581
11
32.9891673
21
0.4403704
0
ARC
8
layer1
10
23.9999474
20
0
40
9
50
357.1953957
51
362.8046049
0
LINE
8
layer1
10
32.9891673
20
-0.4403704
11
32.8329928
21
-0.5486581
0
LINE
8
layer1
10
32.8329928
20
-0.5486581
11
32.6478637
21
-0.666445
0
LINE
8
layer1
10
32.6478637
20
-0.666445
11
32.4696313
21
-0.7695757
0
LINE
8
layer1
10
32.4696313
20
-0.7695757
11
32.2989574
21
-0.8590224
0
LINE
8
layer1
10
32.2989574
20
-0.8590224
11
32.1346726
21
-0.9365396
0
LINE
8
layer1
10
32.1346726
20
-0.9365396
11
31.9802833
21
-1.0016262
0
LINE
8
layer1
10
31.9802833
20
-1.0016262
11
31.83415
21
-1.0561575
0
LINE
8
layer1
10
31.83415
20
-1.0561575
11
31.6962768
21
-1.1011231
0
LINE
8
layer1
10
31.6962768
20
-1.1011231
11
31.5714393
21
-1.1361295
0
LINE
8
layer1
10
31.5714393
20
-1.1361295
11
31.4554144
21
-1.1635268
0
LINE
8
layer1
10
31.4554144
20
-1.1635268
11
31.2567164
21
-1.1976772
0
LINE
8
layer1
10
31.2567164
20
-1.1976772
11
31.1061006
21
-1.2107965
0
LINE
8
layer1
10
31.1061006
20
-1.2107965
11
31.0072999
21
-1.2113631
0
LINE
8
layer1
10
31.0072999
20
-1.2113631
11
30.8482567
21
-1.1507809
0
LINE
8
layer1
10
30.8482567
20
-1.1507809
11
30.6864054
21
-1.1018829
0
LINE
8
layer1
10
30.6864054
20
-1.1018829
11
30.5328345
21
-1.0681457
0
LINE
8
layer1
10
30.5328345
20
-1.0681457
11
30.3885087
21
-1.0487681
0
LINE
8
layer1
10
30.3885087
20
-1.0487681
11
30.2543449
21
-1.0429021
0
LINE
8
layer1
10
30.2543449
20
-1.0429021
11
30.1311934
21
-1.0496463
0
LINE
8
layer1
10
30.1311934
20
-1.0496463
11
30.0198629
21
-1.0680648
0
LINE
8
layer1
10
30.0198629
20
-1.0680648
11
29.9211049
21
-1.0971714
0
LINE
8
layer1
10
29.9211049
20
-1.0971714
11
29.8355755
21
-1.1359178
0
LINE
8
layer1
10
29.8355755
20
-1.1359178
11
29.7639088
21
-1.1832586
0
LINE
8
layer1
10
29.7639088
20
-1.1832586
11
29.706637
21
-1.2380734
0
LINE
8
layer1
10
29.706637
20
-1.2380734
11
29.6642512
21
-1.2992392
0
LINE
8
layer1
10
29.6642512
20
-1.2992392
11
29.637157
21
-1.3656048
0
LINE
8
layer1
10
29.637157
20
-1.3656048
11
29.5821354
21
-1.5747799
0
LINE
8
layer1
10
29.5821354
20
-1.5747799
11
29.5161278
21
-1.7922986
0
LINE
8
layer1
10
29.5161278
20
-1.7922986
11
29.4416748
21
-2.0070731
0
LINE
8
layer1
10
29.4416748
20
-2.0070731
11
29.3632382
21
-2.2086403
0
LINE
8
layer1
10
29.3632382
20
-2.2086403
11
29.3461491
21
-2.2782568
0
LINE
8
layer1
10
29.3461491
20
-2.2782568
11
29.3444876
21
-2.3526546
0
LINE
8
layer1
10
29.3444876
20
-2.3526546
11
29.3586021
21
-2.4306643
0
LINE
8
layer1
10
29.3586021
20
-2.4306643
11
29.3887555
21
-2.5110884
0
LINE
8
layer1
10
29.3887555
20
-2.5110884
11
29.4351757
21
-2.5927078
0
LINE
8
layer1
10
29.4351757
20
-2.5927078
11
29.4979641
21
-2.6743041
0
LINE
8
layer1
10
29.4979641
20
-2.6743041
11
29.5772063
21
-2.7546434
0
LINE
8
layer1
10
29.5772063
20
-2.7546434
11
29.6728738
21
-2.8324862
0
LINE
8
layer1
10
29.6728738
20
-2.8324862
11
29.7848625
21
-2.9066
0
LINE
8
layer1
10
29.7848625
20
-2.9066
11
29.9130144
21
-2.9757558
0
LINE
8
layer1
10
29.9130144
20
-2.9757558
11
30.0570861
21
-3.0387285
0
LINE
8
layer1
10
30.0570861
20
-3.0387285
11
30.2167681
21
-3.094303
0
LINE
8
layer1
10
30.2167681
20
-3.094303
11
30.381046
21
-3.1387742
0
LINE
8
layer1
10
30.381046
20
-3.1387742
11
30.4606445
21
-3.1973062
0
LINE
8
layer1
10
30.4606445
20
-3.1973062
11
30.5747839
21
-3.2964497
0
LINE
8
layer1
10
30.5747839
20
-3.2964497
11
30.7154608
21
-3.4408697
0
LINE
8
layer1
10
30.7154608
20
-3.4408697
11
30.7932232
21
-3.5312322
0
LINE
8
layer1
10
30.7932232
20
-3.5312322
11
30.8736427
21
-3.6329307
0
LINE
8
layer1
10
30.8736427
20
-3.6329307
11
30.9587543
21
-3.7503484
0
LINE
8
layer1
10
30.9587543
20
-3.7503484
11
31.044926
21
-3.8803602
0
LINE
8
layer1
10
31.044926
20
-3.8803602
11
31.1315725
21
-4.0237641
0
LINE
8
layer1
10
31.1315725
20
-4.0237641
11
31.2189182
21
-4.183041
0
LINE
8
layer1
10
31.2189182
20
-4.183041
11
31.3044209
21
-4.3557245
0
LINE
8
layer1
10
31.3044209
20
-4.3557245
11
31.3879953
21
-4.5439214
0
LINE
8
layer1
10
31.3879953
20
-4.5439214
11
31.4685344
21
-4.7480291
0
LINE
8
layer1
10
31.4685344
20
-4.7480291
11
31.5312323
21
-4.9274329
0
ARC
8
layer1
10
23.9999575
20
0.0000309
40
9
50
321.1953951
51
326.8046043
0
LINE
8
layer1
10
31.0135459
20
-5.6399671
11
30.8235481
21
-5.6357766
0
LINE
8
layer1
10
30.8235481
20
-5.6357766
11
30.6045422
21
-5.6222521
0
LINE
8
layer1
10
30.6045422
20
-5.6222521
11
30.3997304
21
-5.6009242
0
LINE
8
layer1
10
30.3997304
20
-5.6009242
11
30.2090768
21
-5.5729685
0
LINE
8
layer1
10
30.2090768
20
-5.5729685
11
30.0306042
21
-5.539117
0
LINE
8
layer1
10
30.0306042
20
-5.539117
11
29.8674437
21
-5.5010255
0
LINE
8
layer1
10
29.8674437
20
-5.5010255
11
29.7171667
21
-5.4592472
0
LINE
8
layer1
10
29.7171667
20
-5.4592472
11
29.5791948
21
-5.4145854
0
LINE
8
layer1
10
29.5791948
20
-5.4145854
11
29.4576229
21
-5.3695285
0
LINE
8
layer1
10
29.4576229
20
-5.3695285
11
29.3476531
21
-5.3234956
0
LINE
8
layer1
10
29.3476531
20
-5.3234956
11
29.1668299
21
-5.2343321
0
LINE
8
layer1
10
29.1668299
20
-5.2343321
11
29.0372679
21
-5.1564161
0
LINE
8
layer1
10
29.0372679
20
-5.1564161
11
28.9570033
21
-5.0988009
0
LINE
8
layer1
10
28.9570033
20
-5.0988009
11
28.863944
21
-4.9563056
0
LINE
8
layer1
10
28.863944
20
-4.9563056
11
28.7617451
21
-4.8216125
0
LINE
8
layer1
10
28.7617451
20
-4.8216125
11
28.6573339
21
-4.7040518
0
LINE
8
layer1
10
28.6573339
20
-4.7040518
11
28.5519617
21
-4.6035424
0
LINE
8
layer1
10
28.5519617
20
-4.6035424
11
28.4468689
21
-4.5199373
0
LINE
8
layer1
10
28.4468689
20
-4.5199373
11
28.3432731
21
-4.4530068
0
LINE
8
layer1
10
28.3432731
20
-4.4530068
11
28.2423787
21
-4.4024692
0
LINE
8
layer1
10
28.2423787
20
-4.4024692
11
28.1453733
21
-4.3679685
0
LINE
8
layer1
10
28.1453733
20
-4.3679685
11
28.053404
21
-4.349042
0
LINE
8
layer1
10
28.053404
20
-4.349042
11
27.9675982
21
-4.3452169
0
LINE
8
layer1
10
27.9675982
20
-4.3452169
11
27.889045
21
-4.3558995
0
LINE
8
layer1
10
27.889045
20
-4.3558995
11
27.8188019
21
-4.3804699
0
LINE
8
layer1
10
27.8188019
20
-4.3804699
11
27.7578735
21
-4.4182352
0
LINE
8
layer1
10
27.7578735
20
-4.4182352
11
27.59041
21
-4.5551206
0
LINE
8
layer1
10
27.59041
20
-4.5551206
11
27.4091545
21
-4.6922986
0
LINE
8
layer1
10
27.4091545
20
-4.6922986
11
27.2226794
21
-4.8222925
0
LINE
8
layer1
10
27.2226794
20
-4.8222925
11
27.0407446
21
-4.9392598
0
LINE
8
layer1
10
27.0407446
20
-4.9392598
11
26.9859998
21
-4.985536
0
LINE
8
layer1
10
26.9859998
20
-4.985536
11
26.9409256
21
-5.0447485
0
LINE
8
layer1
10
26.9409256
20
-5.0447485
11
26.9064915
21
-5.116156
0
LINE
8
layer1
10
26.9064915
20
-5.116156
11
26.883614
21
-5.1989442
0
LINE
8
layer1
10
26.883614
20
-5.1989442
11
26.8731941
21
-5.2922608
0
LINE
8
layer1
10
26.8731941
20
-5.2922608
11
26.8760299
21
-5.3951797
0
LINE
8
layer1
10
26.8760299
20
-5.3951797
11
26.8929159
21
-5.5067529
0
LINE
8
layer1
10
26.8929159
20
-5.5067529
11
26.9245578
21
-5.625961
0
LINE
8
layer1
10
26.9245578
20
-5.625961
11
26.9715955
21
-5.7517457
0
LINE
8
layer1
10
26.9715955
20
-5.7517457
11
27.0346238
21
-5.8830197
0
LINE
8
layer1
10
27.0346238
20
-5.8830197
11
27.1141658
21
-6.0186489
0
LINE
8
layer1
10
27.1141658
20
-6.0186489
11
27.2106854
21
-6.1574683
0
LINE
8
layer1
10
27.2106854
20
-6.1574683
11
27.3174495
21
-6.2900064
0
LINE
8
layer1
10
27.3174495
20
-6.2900064
11
27.3474417
21
-6.3841466
0
LINE
8
layer1
10
27.3474417
20
-6.3841466
11
27.3815074
21
-6.5314448
0
LINE
8
layer1
10
27.3815074
20
-6.5314448
11
27.4104295
21
-6.7309709
0
LINE
8
layer1
10
27.4104295
20
-6.7309709
11
27.4202268
21
-6.8497833
0
LINE
8
layer1
10
27.4202268
20
-6.8497833
11
27.4255107
21
-6.9793285
0
LINE
8
layer1
10
27.4255107
20
-6.9793285
11
27.425351
21
-7.1243488
0
LINE
8
layer1
10
27.425351
20
-7.1243488
11
27.4186463
21
-7.2801809
0
LINE
8
layer1
10
27.4186463
20
-7.2801809
11
27.4044541
21
-7.4471267
0
LINE
8
layer1
10
27.4044541
20
-7.4471267
11
27.3814977
21
-7.627325
0
LINE
8
layer1
10
27.3814977
20
-7.627325
11
27.34917
21
-7.817286
0
LINE
8
layer1
10
27.34917
20
-7.817286
11
27.3061637
21
-8.0186643
0
LINE
8
layer1
10
27.3061637
20
-8.0186643
11
27.2513497
21
-8.2311306
0
LINE
8
layer1
10
27.2513497
20
-8.2311306
11
27.1966226
21
-8.4131242
0
ARC
8
layer1
10
23.9999833
20
0.0000498
40
9
50
285.1953987
51
290.8046081
0
LINE
8
layer1
10
26.3589884
20
-8.6852881
11
26.20774
21
-8.57022
0
LINE
8
layer1
10
26.20774
20
-8.57022
11
26.03851
21
-8.43055
0
LINE
8
layer1
10
26.03851
20
-8.43055
11
25.88535
21
-8.29291
0
LINE
8
layer1
10
25.88535
20
-8.29291
11
25.74754
21
-8.15823
0
LINE
8
layer1
10
25.74754
20
-8.15823
11
25.62305
21
-8.02594
0
LINE
8
layer1
10
25.62305
20
-8.02594
11
25.51344
21
-7.89922
0
LINE
8
layer1
10
25.51344
20
-7.89922
11
25.41642
21
-7.77709
0
LINE
8
layer1
10
25.41642
20
-7.77709
11
25.33105
21
-7.65986
0
LINE
8
layer1
10
25.33105
20
-7.65986
11
25.25918
21
-7.55195
0
LINE
8
layer1
10
25.25918
20
-7.55195
11
25.19727
21
-7.45007
0
LINE
8
layer1
10
25.19727
20
-7.45007
11
25.10339
21
-7.27165
0
LINE
8
layer1
10
25.10339
20
-7.27165
11
25.04437
21
-7.13246
0
LINE
8
layer1
10
25.04437
20
-7.13246
11
25.0133
21
-7.03867
0
LINE
8
layer1
10
25.0133
20
-7.03867
11
25.02177
21
-6.86869
0
LINE
8
layer1
10
25.02177
20
-6.86869
11
25.01826
21
-6.69965
0
LINE
8
layer1
10
25.01826
20
-6.69965
11
25.00289
21
-6.54317
0
LINE
8
layer1
10
25.00289
20
-6.54317
11
24.97672
21
-6.39992
0
LINE
8
layer1
10
24.97672
20
-6.39992
11
24.94084
21
-6.27051
0
LINE
8
layer1
10
24.94084
20
-6.27051
11
24.89637
21
-6.15547
0
LINE
8
layer1
10
24.89637
20
-6.15547
11
24.84445
21
-6.05528
0
LINE
8
layer1
10
24.84445
20
-6.05528
11
24.78625
21
-5.97035
0
LINE
8
layer1
10
24.78625
20
-5.97035
11
24.72297
21
-5.90098
0
LINE
8
layer1
10
24.72297
20
-5.90098
11
24.6558
21
-5.84745
0
LINE
8
layer1
10
24.6558
20
-5.84745
11
24.58597
21
-5.80992
0
LINE
8
layer1
10
24.58597
20
-5.80992
11
24.5147
21
-5.78851
0
LINE
8
layer1
10
24.5147
20
-5.78851
11
24.44321
21
-5.78325
0
LINE
8
layer1
10
24.44321
20
-5.78325
11
24.22727
21
-5.79556
0
LINE
8
layer1
10
24.22727
20
-5.79556
11
24
21
-5.8
0
LINE
8
layer1
10
24
20
-5.8
11
23.77273
21
-5.79556
0
LINE
8
layer1
10
23.77273
20
-5.79556
11
23.55679
21
-5.78325
0
LINE
8
layer1
10
23.55679
20
-5.78325
11
23.4853
21
-5.78851
0
LINE
8
layer1
10
23.4853
20
-5.78851
11
23.41403
21
-5.80992
0
LINE
8
layer1
10
23.41403
20
-5.80992
11
23.3442
21
-5.84745
0
LINE
8
layer1
10
23.3442
20
-5.84745
11
23.27703
21
-5.90098
0
LINE
8
layer1
10
23.27703
20
-5.90098
11
23.21375
21
-5.97035
0
LINE
8
layer1
10
23.21375
20
-5.97035
11
23.15555
21
-6.05528
0
LINE
8
layer1
10
23.15555
20
-6.05528
11
23.10363
21
-6.15547
0
LINE
8
layer1
10
23.10363
20
-6.15547
11
23.05916
21
-6.27051
0
LINE
8
layer1
10
23.05916
20
-6.27051
11
23.02328
21
-6.39992
0
LINE
8
layer1
10
23.02328
20
-6.39992
11
22.99711
21
-6.54317
0
LINE
8
layer1
10
22.99711
20
-6.54317
11
22.98174
21
-6.69965
0
LINE
8
layer1
10
22.98174
20
-6.69965
11
22.97823
21
-6.86869
0
LINE
8
layer1
10
22.97823
20
-6.86869
11
22.9867
21
-7.03867
0
LINE
8
layer1
10
22.9867
20
-7.03867
11
22.95563
21
-7.13246
0
LINE
8
layer1
10
22.95563
20
-7.13246
11
22.89661
21
-7.27165
0
LINE
8
layer1
10
22.89661
20
-7.27165
11
22.80273
21
-7.45007
0
LINE
8
layer1
10
22.80273
20
-7.45007
11
22.74082
21
-7.55195
0
LINE
8
layer1
10
22.74082
20
-7.55195
11
22.66895
21
-7.65986
0
LINE
8
layer1
10
22.66895
20
-7.65986
11
22.58358
21
-7.77709
0
LINE
8
layer1
10
22.58358
20
-7.77709
11
22.48656
21
-7.89922
0
LINE
8
layer1
10
22.48656
20
-7.89922
11
22.37695
21
-8.02594
0
LINE
8
layer1
10
22.37695
20
-8.02594
11
22.25246
21
-8.15823
0
LINE
8
layer1
10
22.25246
20
-8.15823
11
22.11465
21
-8.29291
0
LINE
8
layer1
10
22.11465
20
-8.29291
11
21.96149
21
-8.43055
0
LINE
8
layer1
10
21.96149
20
-8.43055
11
21.79226
21
-8.57022
0
LINE
8
layer1
10
21.79226
20
-8.57022
11
21.6410116
21
-8.6852881
0
ARC
8
layer1
10
24.0000167
20
0.0000498
40
9
50
249.1953919
51
254.8046013
0
LINE
8
layer1
10
20.8033774
20
-8.4131242
11
20.7486503
21
-8.2311306
0
LINE
8
layer1
10
20.7486503
20
-8.2311306
11
20.6938363
21
-8.0186643
0
LINE
8
layer1
10
20.6938363
20
-8.0186643
11
20.65083
21
-7.817286
0
LINE
8
layer1
10
20.65083
20
-7.817286
11
20.6185023
21
-7.627325
0
LINE
8
layer1
10
20.6185023
20
-7.627325
11
20.5955459
21
-7.4471267
0
LINE
8
layer1
10
20.5955459
20
-7.4471267
11
20.5813537
21
-7.2801809
0
LINE
8
layer1
10
20.5813537
20
-7.2801809
11
20.574649
21
-7.1243488
0
LINE
8
layer1
10
20.574649
20
-7.1243488
11
20.5744893
21
-6.9793285
0
LINE
8
layer1
10
20.5744893
20
-6.9793285
11
20.5797732
21
-6.8497833
0
LINE
8
layer1
10
20.5797732
20
-6.8497833
11
20.5895705
21
-6.7309709
0
LINE
8
layer1
10
20.5895705
20
-6.7309709
11
20.6184926
21
-6.5314448
0
LINE
8
layer1
10
20.6184926
20
-6.5314448
11
20.6525583
21
-6.3841466
0
LINE
8
layer1
10
20.6525583
20
-6.3841466
11
20.6825505
21
-6.2900064
0
LINE
8
layer1
10
20.6825505
20
-6.2900064
11
20.7893146
21
-6.1574683
0
LINE
8
layer1
10
20.7893146
20
-6.1574683
11
20.8858342
21
-6.0186489
0
LINE
8
layer1
10
20.8858342
20
-6.0186489
11
20.9653762
21
-5.8830197
0
LINE
8
layer1
10
20.9653762
20
-5.8830197
11
21.0284045
21
-5.7517457
0
LINE
8
layer1
10
21.0284045
20
-5.7517457
11
21.0754422
21
-5.625961
0
LINE
8
layer1
10
21.0754422
20
-5.625961
11
21.1070841
21
-5.5067529
0
LINE
8
layer1
10
21.1070841
20
-5.5067529
11
21.1239701
21
-5.3951797
0
LINE
8
layer1
10
21.1239701
20
-5.3951797
11
21.1268059
21
-5.2922608
0
LINE
8
layer1
10
21.1268059
20
-5.2922608
11
21.116386
21
-5.1989442
0
LINE
8
layer1
10
21.116386
20
-5.1989442
11
21.0935085
21
-5.116156
0
LINE
8
layer1
10
21.0935085
20
-5.116156
11
21.0590744
21
-5.0447485
0
LINE
8
layer1
10
21.0590744
20
-5.0447485
11
21.0140002
21
-4.985536
0
LINE
8
layer1
10
21.0140002
20
-4.985536
11
20.9592554
21
-4.9392598
0
LINE
8
layer1
10
20.9592554
20
-4.9392598
11
20.7773206
21
-4.8222925
0
LINE
8
layer1
10
20.7773206
20
-4.8222925
11
20.5908455
21
-4.6922986
0
LINE
8
layer1
10
20.5908455
20
-4.6922986
11
20.40959
21
-4.5551206
0
LINE
8
layer1
10
20.40959
20
-4.5551206
11
20.2421265
21
-4.4182352
0
LINE
8
layer1
10
20.2421265
20
-4.4182352
11
20.1811981
21
-4.3804699
0
LINE
8
layer1
10
20.1811981
20
-4.3804699
11
20.110955
21
-4.3558995
0
LINE
8
layer1
10
20.110955
20
-4.3558995
11
20.0324018
21
-4.3452169
0
LINE
8
layer1
10
20.0324018
20
-4.3452169
11
19.946596
21
-4.349042
0
LINE
8
layer1
10
19.946596
20
-4.349042
11
19.8546267
21
-4.3679685
0
LINE
8
layer1
10
19.8546267
20
-4.3679685
11
19.7576213
21
-4.4024692
0
LINE
8
layer1
10
19.7576213
20
-4.4024692
11
19.6567269
21
-4.4530068
0
LINE
8
layer1
10
19.6567269
20
-4.4530068
11
19.5531311
21
-4.5199373
0
LINE
8
layer1
10
19.5531311
20
-4.5199373
11
19.4480383
21
-4.6035424
0
LINE
8
layer1
10
19.4480383
20
-4.6035424
11
19.3426661
21
-4.7040518
0
LINE
8
layer1
10
19.3426661
20
-4.7040518
11
19.2382549
21
-4.8216125
0
LINE
8
layer1
10
19.2382549
20
-4.8216125
11
19.136056
21
-4.9563056
0
LINE
8
layer1
10
19.136056
20
-4.9563056
11
19.0429967
21
-5.0988009
0
LINE
8
layer1
10
19.0429967
20
-5.0988009
11
18.9627321
21
-5.1564161
0
LINE
8
layer1
10
18.9627321
20
-5.1564161
11
18.8331701
21
-5.2343321
0
LINE
8
layer1
10
18.8331701
20
-5.2343321
11
18.6523469
21
-5.3234956
0
LINE
8
layer1
10
18.6523469
20
-5.3234956
11
18.5423771
21
-5.3695285
0
LINE
8
layer1
10
18.5423771
20
-5.3695285
11
18.4208052
21
-5.4145854
0
LINE
8
layer1
10
18.4208052
20
-5.4145854
11
18.2828333
21
-5.4592472
0
LINE
8
layer1
10
18.2828333
20
-5.4592472
11
18.1325563
21
-5.5010255
0
LINE
8
layer1
10
18.1325563
20
-5.5010255
11
17.9693958
21
-5.539117
0
LINE
8
layer1
10
17.9693958
20
-5.539117
11
17.7909232
21
-5.5729685
0
LINE
8
layer1
10
17.7909232
20
-5.5729685
11
17.6002696
21
-5.6009242
0
LINE
8
layer1
10
17.6002696
20
-5.6009242
11
17.3954578
21
-5.6222521
0
LINE
8
layer1
10
17.3954578
20
-5.6222521
11
17.1764519
21
-5.6357766
0
LINE
8
layer1
10
17.1764519
20
-5.6357766
11
16.9864541
21
-5.6399671
0
ARC
8
layer1
10
24.0000425
20
0.0000309
40
9
50
213.1953957
51
218.8046049
0
LINE
8
layer1
10
16.4687677
20
-4.9274329
11
16.5314656
21
-4.7480291
0
LINE
8
layer1
10
16.5314656
20
-4.7480291
11
16.6120047
21
-4.5439214
0
LINE
8
layer1
10
16.6120047
20
-4.5439214
11
16.6955791
21
-4.3557245
0
LINE
8
layer1
10
16.6955791
20
-4.3557245
11
16.7810818
21
-4.183041
0
LINE
8
layer1
10
16.7810818
20
-4.183041
11
16.8684275
21
-4.0237641
0
LINE
8
layer1
10
16.8684275
20
-4.0237641
11
16.955074
21
-3.8803602
0
LINE
8
layer1
10
16.955074
20
-3.8803602
11
17.0412457
21
-3.7503484
0
LINE
8
layer1
10
17.0412457
20
-3.7503484
11
17.1263573
21
-3.6329307
0
LINE
8
layer1
10
17.1263573
20
-3.6329307
11
17.2067768
21
-3.5312322
0
LINE
8
layer1
10
17.2067768
20
-3.5312322
11
17.2845392
21
-3.4408697
0
LINE
8
layer1
10
17.2845392
20
-3.4408697
11
17.4252161
21
-3.2964497
0
LINE
8
layer1
10
17.4252161
20
-3.2964497
11
17.5393555
21
-3.1973062
0
LINE
8
layer1
10
17.5393555
20
-3.1973062
11
17.618954
21
-3.1387742
0
LINE
8
layer1
10
17.618954
20
-3.1387742
11
17.7832319
21
-3.094303
0
LINE
8
layer1
10
17.7832319
20
-3.094303
11
17.9429139
21
-3.0387285
0
LINE
8
layer1
10
17.9429139
20
-3.0387285
11
18.0869856
21
-2.9757558
0
LINE
8
layer1
10
18.0869856
20
-2.9757558
11
18.2151375
21
-2.9066
0
LINE
8
layer1
10
18.2151375
20
-2.9066
11
18.3271262
21
-2.8324862
0
LINE
8
layer1
10
18.3271262
20
-2.8324862
11
18.4227937
21
-2.7546434
0
LINE
8
layer1
10
18.4227937
20
-2.7546434
11
18.5020359
21
-2.6743041
0
LINE
8
layer1
10
18.5020359
20
-2.6743041
11
18.5648243
21
-2.5927078
0
LINE
8
layer1
10
18.5648243
20
-2.5927078
11
18.6112445
21
-2.5110884
0
LINE
8
layer1
10
18.6112445
20
-2.5110884
11
18.6413979
21
-2.4306643
0
LINE
8
layer1
10
18.6413979
20
-2.4306643
11
18.6555124
21
-2.3526546
0
LINE
8
layer1
10
18.6555124
20
-2.3526546
11
18.6538509
21
-2.2782568
0
LINE
8
layer1
10
18.6538509
20
-2.2782568
11
18.6367618
21
-2.2086403
0
LINE
8
layer1
10
18.6367618
20
-2.2086403
11
18.5583252
21
-2.0070731
0
LINE
8
layer1
10
18.5583252
20
-2.0070731
11
18.4838722
21
-1.7922986
0
LINE
8
layer1
10
18.4838722
20
-1.7922986
11
18.4178646
21
-1.5747799
0
LINE
8
layer1
10
18.4178646
20
-1.5747799
11
18.362843
21
-1.3656048
0
LINE
8
layer1
10
18.362843
20
-1.3656048
11
18.3357488
21
-1.2992392
0
LINE
8
layer1
10
18.3357488
20
-1.2992392
11
18.293363
21
-1.2380734
0
LINE
8
layer1
10
18.293363
20
-1.2380734
11
18.2360912
21
-1.1832586
0
LINE
8
layer1
10
18.2360912
20
-1.1832586
11
18.1644245
21
-1.1359178
0
LINE
8
layer1
10
18.1644245
20
-1.1359178
11
18.0788951
21
-1.0971714
0
LINE
8
layer1
10
18.0788951
20
-1.0971714
11
17.9801371
21
-1.0680648
0
LINE
8
layer1
10
17.9801371
20
-1.0680648
11
17.8688066
21
-1.0496463
0
LINE
8
layer1
10
17.8688066
20
-1.0496463
11
17.7456551
21
-1.0429021
0
LINE
8
layer1
10
17.7456551
20
-1.0429021
11
17.6114913
21
-1.0487681
0
LINE
8
layer1
10
17.6114913
20
-1.0487681
11
17.4671655
21
-1.0681457
0
LINE
8
layer1
10
17.4671655
20
-1.0681457
11
17.3135946
21
-1.1018829
0
LINE
8
layer1
10
17.3135946
20
-1.1018829
11
17.1517433
21
-1.1507809
0
LINE
8
layer1
10
17.1517433
20
-1.1507809
11
16.9927001
21
-1.2113631
0
LINE
8
layer1
10
16.9927001
20
-1.2113631
11
16.8938994
21
-1.2107965
0
LINE
8
layer1
10
16.8938994
20
-1.2107965
11
16.7432836
21
-1.1976772
0
LINE
8
layer1
10
16.7432836
20
-1.1976772
11
16.5445856
21
-1.1635268
0
LINE
8
layer1
10
16.5445856
20
-1.1635268
11
16.4285607
21
-1.1361295
0
LINE
8
layer1
10
16.4285607
20
-1.1361295
11
16.3037232
21
-1.1011231
0
LINE
8
layer1
10
16.3037232
20
-1.1011231
11
16.16585
21
-1.0561575
0
LINE
8
layer1
10
16.16585
20
-1.0561575
11
16.0197167
21
-1.0016262
0
LINE
8
layer1
10
16.0197167
20
-1.0016262
11
15.8653274
21
-0.9365396
0
LINE
8
layer1
10
15.8653274
20
-0.9365396
11
15.7010426
21
-0.8590224
0
LINE
8
layer1
10
15.7010426
20
-0.8590224
11
15.5303687
21
-0.7695757
0
LINE
8
layer1
10
15.5303687
20
-0.7695757
11
15.3521363
21
-0.666445
0
LINE
8
layer1
10
15.3521363
20
-0.666445
11
15.1670072
21
-0.5486581
0
LINE
8
layer1
10
15.1670072
20
-0.5486581
11
15.0108327
21
-0.4403704
0
ARC
8
layer1
10
24.0000526
20
0
40
9
50
177.1953957
51
182.8046049
0
LINE
8
layer1
10
15.0108327
20
0.4403704
11
15.1670072
21
0.5486581
0
LINE
8
layer1
10
15.1670072
20
0.5486581
11
15.3521363
21
0.666445
0
LINE
8
layer1
10
15.3521363
20
0.666445
11
15.5303687
21
0.7695757
0
LINE
8
layer1
10
15.5303687
20
0.7695757
11
15.7010426
21
0.8590224
0
LINE
8
layer1
10
15.7010426
20
0.8590224
11
15.8653274
21
0.9365396
0
LINE
8
layer1
10
15.8653274
20
0.9365396
11
16.0197167
21
1.0016262
0
LINE
8
layer1
10
16.0197167
20
1.0016262
11
16.16585
21
1.0561575
0
LINE
8
layer1
10
16.16585
20
1.0561575
11
16.3037232
21
1.1011231
0
LINE
8
layer1
10
16.3037232
20
1.1011231
11
16.4285607
21
1.1361295
0
LINE
8
layer1
10
16.4285607
20
1.1361295
11
16.5445856
21
1.1635268
0
LINE
8
layer1
10
16.5445856
20
1.1635268
11
16.7432836
21
1.1976772
0
LINE
8
layer1
10
16.7432836
20
1.1976772
11
16.8938994
21
1.2107965
0
LINE
8
layer1
10
16.8938994
20
1.2107965
11
16.9927001
21
1.2113631
0
LINE
8
layer1
10
16.9927001
20
1.2113631
11
17.1517433
21
1.1507809
0
LINE
8
layer1
10
17.1517433
20
1.1507809
11
17.3135946
21
1.1018829
0
LINE
8
layer1
10
17.3135946
20
1.1018829
11
17.4671655
21
1.0681457
0
LINE
8
layer1
10
17.4671655
20
1.0681457
11
17.6114913
21
1.0487681
0
LINE
8
layer1
10
17.6114913
20
1.0487681
11
17.7456551
21
1.0429021
0
LINE
8
layer1
10
17.7456551
20
1.0429021
11
17.8688066
21
1.0496463
0
LINE
8
layer1
10
17.8688066
20
1.0496463
11
17.9801371
21
1.0680648
0
LINE
8
layer1
10
17.9801371
20
1.0680648
11
18.0788951
21
1.0971714
0
LINE
8
layer1
10
18.0788951
20
1.0971714
11
18.1644245
21
1.1359178
0
LINE
8
layer1
10
18.1644245
20
1.1359178
11
18.2360912
21
1.1832586
0
LINE
8
layer1
10
18.2360912
20
1.1832586
11
18.293363
21
1.2380734
0
LINE
8
layer1
10
18.293363
20
1.2380734
11
18.3357488
21
1.2992392
0
LINE
8
layer1
10
18.3357488
20
1.2992392
11
18.362843
21
1.3656048
0
LINE
8
layer1
10
18.362843
20
1.3656048
11
18.4178646
21
1.5747799
0
LINE
8
layer1
10
18.4178646
20
1.5747799
11
18.4838722
21
1.7922986
0
LINE
8
layer1
10
18.4838722
20
1.7922986
11
18.5583252
21
2.0070731
0
LINE
8
layer1
10
18.5583252
20
2.0070731
11
18.6367618
21
2.2086403
0
LINE
8
layer1
10
18.6367618
20
2.2086403
11
18.6538509
21
2.2782568
0
LINE
8
layer1
10
18.6538509
20
2.2782568
11
18.6555124
21
2.3526546
0
LINE
8
layer1
10
18.6555124
20
2.3526546
11
18.6413979
21
2.4306643
0
LINE
8
layer1
10
18.6413979
20
2.4306643
11
18.6112445
21
2.5110884
0
LINE
8
layer1
10
18.6112445
20
2.5110884
11
18.5648243
21
2.5927078
0
LINE
8
layer1
10
18.5648243
20
2.5927078
11
18.5020359
21
2.6743041
0
LINE
8
layer1
10
18.5020359
20
2.6743041
11
18.4227937
21
2.7546434
0
LINE
8
layer1
10
18.4227937
20
2.7546434
11
18.3271262
21
2.8324862
0
LINE
8
layer1
10
18.3271262
20
2.8324862
11
18.2151375
21
2.9066
0
LINE
8
layer1
10
18.2151375
20
2.9066
11
18.0869856
21
2.9757558
0
LINE
8
layer1
10
18.0869856
20
2.9757558
11
17.9429139
21
3.0387285
0
LINE
8
layer1
10
17.9429139
20
3.0387285
11
17.7832319
21
3.094303
0
LINE
8
layer1
10
17.7832319
20
3.094303
11
17.618954
21
3.1387742
0
LINE
8
layer1
10
17.618954
20
3.1387742
11
17.5393555
21
3.1973062
0
LINE
8
layer1
10
17.5393555
20
3.1973062
11
17.4252161
21
3.2964497
0
LINE
8
layer1
10
17.4252161
20
3.2964497
11
17.2845392
21
3.4408697
0
LINE
8
layer1
10
17.2845392
20
3.4408697
11
17.2067768
21
3.5312322
0
LINE
8
layer1
10
17.2067768
20
3.5312322
11
17.1263573
21
3.6329307
0
LINE
8
layer1
10
17.1263573
20
3.6329307
11
17.0412457
21
3.7503484
0
LINE
8
layer1
10
17.0412457
20
3.7503484
11
16.955074
21
3.8803602
0
LINE
8
layer1
10
16.955074
20
3.8803602
11
16.8684275
21
4.0237641
0
LINE
8
layer1
10
16.8684275
20
4.0237641
11
16.7810818
21
4.183041
0
LINE
8
layer1
10
16.7810818
20
4.183041
11
16.6955791
21
4.3557245
0
LINE
8
layer1
10
16.6955791
20
4.3557245
11
16.6120047
21
4.5439214
0
LINE
8
layer1
10
16.6120047
20
4.5439214
11
16.5314656
21
4.7480291
0
LINE
8
layer1
10
16.5314656
20
4.7480291
11
16.4687677
21
4.9274329
0
ARC
8
layer1
10
24.0000425
20
-0.0000309
40
9
50
141.1953951
51
146.8046043
0
LINE
8
layer1
10
16.9864541
20
5.6399671
11
17.1764519
21
5.6357766
0
LINE
8
layer1
10
17.1764519
20
5.6357766
11
17.3954578
21
5.6222521
0
LINE
8
layer1
10
17.3954578
20
5.6222521
11
17.6002696
21
5.6009242
0
LINE
8
layer1
10
17.6002696
20
5.6009242
11
17.7909232
21
5.5729685
0
LINE
8
layer1
10
17.7909232
20
5.5729685
11
17.9693958
21
5.539117
0
LINE
8
layer1
10
17.9693958
20
5.539117
11
18.1325563
21
5.5010255
0
LINE
8
layer1
10
18.1325563
20
5.5010255
11
18.2828333
21
5.4592472
0
LINE
8
layer1
10
18.2828333
20
5.4592472
11
18.4208052
21
5.4145854
0
LINE
8
layer1
10
18.4208052
20
5.4145854
11
18.5423771
21
5.3695285
0
LINE
8
layer1
10
18.5423771
20
5.3695285
11
18.6523469
21
5.3234956
0
LINE
8
layer1
10
18.6523469
20
5.3234956
11
18.8331701
21
5.2343321
0
LINE
8
layer1
10
18.8331701
20
5.2343321
11
18.9627321
21
5.1564161
0
LINE
8
layer1
10
18.9627321
20
5.1564161
11
19.0429967
21
5.0988009
0
LINE
8
layer1
10
19.0429967
20
5.0988009
11
19.136056
21
4.9563056
0
LINE
8
layer1
10
19.136056
20
4.9563056
11
19.2382549
21
4.8216125
0
LINE
8
layer1
10
19.2382549
20
4.8216125
11
19.3426661
21
4.7040518
0
LINE
8
layer1
10
19.3426661
20
4.7040518
11
19.4480383
21
4.6035424
0
LINE
8
layer1
10
19.4480383
20
4.6035424
11
19.5531311
21
4.5199373
0
LINE
8
layer1
10
19.5531311
20
4.5199373
11
19.6567269
21
4.4530068
0
LINE
8
layer1
10
19.6567269
20
4.4530068
11
19.7576213
21
4.4024692
0
LINE
8
layer1
10
19.7576213
20
4.4024692
11
19.8546267
21
4.3679685
0
LINE
8
layer1
10
19.8546267
20
4.3679685
11
19.946596
21
4.349042
0
LINE
8
layer1
10
19.946596
20
4.349042
11
20.0324018
21
4.3452169
0
LINE
8
layer1
10
20.0324018
20
4.3452169
11
20.110955
21
4.3558995
0
LINE
8
layer1
10
20.110955
20
4.3558995
11
20.1811981
21
4.3804699
0
LINE
8
layer1
10
20.1811981
20
4.3804699
11
20.2421265
21
4.4182352
0
LINE
8
layer1
10
20.2421265
20
4.4182352
11
20.40959
21
4.5551206
0
LINE
8
layer1
10
20.40959
20
4.5551206
11
20.5908455
21
4.6922986
0
LINE
8
layer1
10
20.5908455
20
4.6922986
11
20.7773206
21
4.8222925
0
LINE
8
layer1
10
20.7773206
20
4.8222925
11
20.9592554
21
4.9392598
0
LINE
8
layer1
10
20.9592554
20
4.9392598
11
21.0140002
21
4.985536
0
LINE
8
layer1
10
21.0140002
20
4.985536
11
21.0590744
21
5.0447485
0
LINE
8
layer1
10
21.0590744
20
5.0447485
11
21.0935085
21
5.116156
0
LINE
8
layer1
10
21.0935085
20
5.116156
11
21.116386
21
5.1989442
0
LINE
8
layer1
10
21.116386
20
5.1989442
11
21.1268059
21
5.2922608
0
LINE
8
layer1
10
21.1268059
20
5.2922608
11
21.1239701
21
5.3951797
0
LINE
8
layer1
10
21.1239701
20
5.3951797
11
21.1070841
21
5.5067529
0
LINE
8
layer1
10
21.1070841
20
5.5067529
11
21.0754422
21
5.625961
0
LINE
8
layer1
10
21.0754422
20
5.625961
11
21.0284045
21
5.7517457
0
LINE
8
layer1
10
21.0284045
20
5.7517457
11
20.9653762
21
5.8830197
0
LINE
8
layer1
10
20.9653762
20
5.8830197
11
20.8858342
21
6.0186489
0
LINE
8
layer1
10
20.8858342
20
6.0186489
11
20.7893146
21
6.1574683
0
LINE
8
layer1
10
20.7893146
20
6.1574683
11
20.6825505
21
6.2900064
0
LINE
8
layer1
10
20.6825505
20
6.2900064
11
20.6525583
21
6.3841466
0
LINE
8
layer1
10
20.6525583
20
6.3841466
11
20.6184926
21
6.5314448
0
LINE
8
layer1
10
20.6184926
20
6.5314448
11
20.5895705
21
6.7309709
0
LINE
8
layer1
10
20.5895705
20
6.7309709
11
20.5797732
21
6.8497833
0
LINE
8
layer1
10
20.5797732
20
6.8497833
11
20.5744893
21
6.9793285
0
LINE
8
layer1
10
20.5744893
20
6.9793285
11
20.574649
21
7.1243488
0
LINE
8
layer1
10
20.574649
20
7.1243488
11
20.5813537
21
7.2801809
0
LINE
8
layer1
10
20.5813537
20
7.2801809
11
20.5955459
21
7.4471267
0
LINE
8
layer1
10
20.5955459
20
7.4471267
11
20.6185023
21
7.627325
0
LINE
8
layer1
10
20.6185023
20
7.627325
11
20.65083
21
7.817286
0
LINE
8
layer1
10
20.65083
20
7.817286
11
20.6938363
21
8.0186643
0
LINE
8
layer1
10
20.6938363
20
8.0186643
11
20.7486503
21
8.2311306
0
LINE
8
layer1
10
20.7486503
20
8.2311306
11
20.8033774
21
8.4131242
0
ARC
8
layer1
10
24.0000167
20
-0.0000498
40
9
50
105.1953987
51
110.8046081
0
LINE
8
layer1
10
21.6410116
20
8.6852881
11
21.79226
21
8.57022
0
LINE
8
layer1
10
21.79226
20
8.57022
11
21.96149
21
8.43055
0
LINE
8
layer1
10
21.96149
20
8.43055
11
22.11465
21
8.29291
0
LINE
8
layer1
10
22.11465
20
8.29291
11
22.25246
21
8.15823
0
LINE
8
layer1
10
22.25246
20
8.15823
11
22.37695
21
8.02594
0
LINE
8
layer1
10
22.37695
20
8.02594
11
22.48656
21
7.89922
0
LINE
8
layer1
10
22.48656
20
7.89922
11
22.58358
21
7.77709
0
LINE
8
layer1
10
22.58358
20
7.77709
11
22.66895
21
7.65986
0
LINE
8
layer1
10
22.66895
20
7.65986
11
22.74082
21
7.55195
0
LINE
8
layer1
10
22.74082
20
7.55195
11
22.80273
21
7.45007
0
LINE
8
layer1
10
22.80273
20
7.45007
11
22.89661
21
7.27165
0
LINE
8
layer1
10
22.89661
20
7.27165
11
22.95563
21
7.13246
0
LINE
8
layer1
10
22.95563
20
7.13246
11
22.9867
21
7.03867
0
LINE
8
layer1
10
22.9867
20
7.03867
11
22.97823
21
6.86869
0
LINE
8
layer1
10
22.97823
20
6.86869
11
22.98174
21
6.69965
0
LINE
8
layer1
10
22.98174
20
6.69965
11
22.99711
21
6.54317
0
LINE
8
layer1
10
22.99711
20
6.54317
11
23.02328
21
6.39992
0
LINE
8
layer1
10
23.02328
20
6.39992
11
23.05916
21
6.27051
0
LINE
8
layer1
10
23.05916
20
6.27051
11
23.10363
21
6.15547
0
LINE
8
layer1
10
23.10363
20
6.15547
11
23.15555
21
6.05528
0
LINE
8
layer1
10
23.15555
20
6.05528
11
23.21375
21
5.97035
0
LINE
8
layer1
10
23.21375
20
5.97035
11
23.27703
21
5.90098
0
LINE
8
layer1
10
23.27703
20
5.90098
11
23.3442
21
5.84745
0
LINE
8
layer1
10
23.3442
20
5.84745
11
23.41403
21
5.80992
0
LINE
8
layer1
10
23.41403
20
5.80992
11
23.4853
21
5.78851
0
LINE
8
layer1
10
23.4853
20
5.78851
11
23.55679
21
5.78325
0
LINE
8
layer1
10
23.55679
20
5.78325
11
23.77273
21
5.79556
0
LINE
8
layer1
10
23.77273
20
5.79556
11
24
21
5.8
0
LINE
8
layer1
10
24
20
5.8
11
24.22727
21
5.79556
0
LINE
8
layer1
10
24.22727
20
5.79556
11
24.44321
21
5.78325
0
LINE
8
layer1
10
24.44321
20
5.78325
11
24.5147
21
5.78851
0
LINE
8
layer1
10
24.5147
20
5.78851
11
24.58597
21
5.80992
0
LINE
8
layer1
10
24.58597
20
5.80992
11
24.6558
21
5.84745
0
LINE
8
layer1
10
24.6558
20
5.84745
11
24.72297
21
5.90098
0
LINE
8
layer1
10
24.72297
20
5.90098
11
24.78625
21
5.97035
0
LINE
8
layer1
10
24.78625
20
5.97035
11
24.84445
21
6.05528
0
LINE
8
layer1
10
24.84445
20
6.05528
11
24.89637
21
6.15547
0
LINE
8
layer1
10
24.89637
20
6.15547
11
24.94084
21
6.27051
0
LINE
8
layer1
10
24.94084
20
6.27051
11
24.97672
21
6.39992
0
LINE
8
layer1
10
24.97672
20
6.39992
11
25.00289
21
6.54317
0
LINE
8
layer1
10
25.00289
20
6.54317
11
25.01826
21
6.69965
0
LINE
8
layer1
10
25.01826
20
6.69965
11
25.02177
21
6.86869
0
LINE
8
layer1
10
25.02177
20
6.86869
11
25.0133
21
7.03867
0
LINE
8
layer1
10
25.0133
20
7.03867
11
25.04437
21
7.13246
0
LINE
8
layer1
10
25.04437
20
7.13246
11
25.10339
21
7.27165
0
LINE
8
layer1
10
25.10339
20
7.27165
11
25.19727
21
7.45007
0
LINE
8
layer1
10
25.19727
20
7.45007
11
25.25918
21
7.55195
0
LINE
8
layer1
10
25.25918
20
7.55195
11
25.33105
21
7.65986
0
LINE
8
layer1
10
25.33105
20
7.65986
11
25.41642
21
7.77709
0
LINE
8
layer1
10
25.41642
20
7.77709
11
25.51344
21
7.89922
0
LINE
8
layer1
10
25.51344
20
7.89922
11
25.62305
21
8.02594
0
LINE
8
layer1
10
25.62305
20
8.02594
11
25.74754
21
8.15823
0
LINE
8
layer1
10
25.74754
20
8.15823
11
25.88535
21
8.29291
0
LINE
8
layer1
10
25.88535
20
8.29291
11
26.03851
21
8.43055
0
LINE
8
layer1
10
26.03851
20
8.43055
11
26.20774
21
8.57022
0
LINE
8
layer1
10
26.20774
20
8.57022
11
26.3589884
21
8.6852881
0
ARC
8
layer1
10
23.9999833
20
-0.0000498
40
9
50
69.1953919
51
74.8046013
0
LINE
8
layer1
10
27.1966226
20
8.4131242
11
27.2513497
21
8.2311306
0
LINE
8
layer1
10
27.2513497
20
8.2311306
11
27.3061637
21
8.0186643
0
LINE
8
layer1
10
27.3061637
20
8.0186643
11
27.34917
21
7.817286
0
LINE
8
layer1
10
27.34917
20
7.817286
11
27.3814977
21
7.627325
0
LINE
8
layer1
10
27.3814977
20
7.627325
11
27.4044541
21
7.4471267
0
LINE
8
layer1
10
27.4044541
20
7.4471267
11
27.4186463
21
7.2801809
0
LINE
8
layer1
10
27.4186463
20
7.2801809
11
27.425351
21
7.1243488
0
LINE
8
layer1
10
27.425351
20
7.1243488
11
27.4255107
21
6.9793285
0
LINE
8
layer1
10
27.4255107
20
6.9793285
11
27.4202268
21
6.8497833
0
LINE
8
layer1
10
27.4202268
20
6.8497833
11
27.4104295
21
6.7309709
0
LINE
8
layer1
10
27.4104295
20
6.7309709
11
27.3815074
21
6.5314448
0
LINE
8
layer1
10
27.3815074
20
6.5314448
11
27.3474417
21
6.3841466
0
LINE
8
layer1
10
27.3474417
20
6.3841466
11
27.3174495
21
6.2900064
0
LINE
8
layer1
10
27.3174495
20
6.2900064
11
27.2106854
21
6.1574683
0
LINE
8
layer1
10
27.2106854
20
6.1574683
11
27.1141658
21
6.0186489
0
LINE
8
layer1
10
27.1141658
20
6.0186489
11
27.0346238
21
5.8830197
0
LINE
8
layer1
10
27.0346238
20
5.8830197
11
26.9715955
21
5.7517457
0
LINE
8
layer1
10
26.9715955
20
5.7517457
11
26.9245578
21
5.625961
0
LINE
8
layer1
10
26.9245578
20
5.625961
11
26.8929159
21
5.5067529
0
LINE
8
layer1
10
26.8929159
20
5.5067529
11
26.8760299
21
5.3951797
0
LINE
8
layer1
10
26.8760299
20
5.3951797
11
26.8731941
21
5.2922608
0
LINE
8
layer1
10
26.8731941
20
5.2922608
11
26.883614
21
5.1989442
0
LINE
8
layer1
10
26.883614
20
5.1989442
11
26.9064915
21
5.116156
0
LINE
8
layer1
10
26.9064915
20
5.116156
11
26.9409256
21
5.0447485
0
LINE
8
layer1
10
26.9409256
20
5.0447485
11
26.9859998
21
4.985536
0
LINE
8
layer1
10
26.9859998
20
4.985536
11
27.0407446
21
4.9392598
0
LINE
8
layer1
10
27.0407446
20
4.9392598
11
27.2226794
21
4.8222925
0
LINE
8
layer1
10
27.2226794
20
4.8222925
11
27.4091545
21
4.6922986
0
LINE
8
layer1
10
27.4091545
20
4.6922986
11
27.59041
21
4.5551206
0
LINE
8
layer1
10
27.59041
20
4.5551206
11
27.7578735
21
4.4182352
0
LINE
8
layer1
10
27.7578735
20
4.4182352
11
27.8188019
21
4.3804699
0
LINE
8
layer1
10
27.8188019
20
4.3804699
11
27.889045
21
4.3558995
0
LINE
8
layer1
10
27.889045
20
4.3558995
11
27.9675982
21
4.3452169
0
LINE
8
layer1
10
27.9675982
20
4.3452169
11
28.053404
21
4.349042
0
LINE
8
layer1
10
28.053404
20
4.349042
11
28.1453733
21
4.3679685
0
LINE
8
layer1
10
28.1453733
20
4.3679685
11
28.2423787
21
4.4024692
0
LINE
8
layer1
10
28.2423787
20
4.4024692
11
28.3432731
21
4.4530068
0
LINE
8
layer1
10
28.3432731
20
4.4530068
11
28.4468689
21
4.5199373
0
LINE
8
layer1
10
28.4468689
20
4.5199373
11
28.5519617
21
4.6035424
0
LINE
8
layer1
10
28.5519617
20
4.6035424
11
28.6573339
21
4.7040518
0
LINE
8
layer1
10
28.6573339
20
4.7040518
11
28.7617451
21
4.8216125
0
LINE
8
layer1
10
28.7617451
20
4.8216125
11
28.863944
21
4.9563056
0
LINE
8
layer1
10
28.863944
20
4.9563056
11
28.9570033
21
5.0988009
0
LINE
8
layer1
10
28.9570033
20
5.0988009
11
29.0372679
21
5.1564161
0
LINE
8
layer1
10
29.0372679
20
5.1564161
11
29.1668299
21
5.2343321
0
LINE
8
layer1
10
29.1668299
20
5.2343321
11
29.3476531
21
5.3234956
0
LINE
8
layer1
10
29.3476531
20
5.3234956
11
29.4576229
21
5.3695285
0
LINE
8
layer1
10
29.4576229
20
5.3695285
11
29.5791948
21
5.4145854
0
LINE
8
layer1
10
29.5791948
20
5.4145854
11
29.7171667
21
5.4592472
0
LINE
8
layer1
10
29.7171667
20
5.4592472
11
29.8674437
21
5.5010255
0
LINE
8
layer1
10
29.8674437
20
5.5010255
11
30.0306042
21
5.539117
0
LINE
8
layer1
10
30.0306042
20
5.539117
11
30.2090768
21
5.5729685
0
LINE
8
layer1
10
30.2090768
20
5.5729685
11
30.3997304
21
5.6009242
0
LINE
8
layer1
10
30.3997304
20
5.6009242
11
30.6045422
21
5.6222521
0
LINE
8
layer1
10
30.6045422
20
5.6222521
11
30.8235481
21
5.6357766
0
LINE
8
layer1
10
30.8235481
20
5.6357766
11
31.0135459
21
5.6399671
0
ARC
8
layer1
10
23.9999575
20
-0.0000309
40
9
50
33.1953957
51
38.8046049
0
LINE
8
layer1
10
31.5312323
20
4.9274329
11
31.4685344
21
4.7480291
0
ENDSEC
0
EOF