<?xml version="1.0" standalone="no"?>
<svg viewBox="0 0 800 600" version="1.1" xmlns="http://www.w3.org/2000/svg" xmlns:xlink="http://www.w3.org/1999/xlink" stroke-linecap="round" stroke-linejoin="round" fill-rule="evenodd" xml:space="preserve" >
<defs >
<clipPath id="clipId0" >
<path d="M0,600 800,600 800,0 0,0 z" />
</clipPath>
</defs>
<g clip-path="url(#clipId0)" fill="none" stroke="rgb(0,0,0)" stroke-width="0.1" />
<g clip-path="url(#clipId0)" fill="none" stroke="rgb(0,0,0)" stroke-width="0.5" >
<polyline points="324.752,130.234 324.752,296.439 " />
<polyline points="324.752,130.234 266.525,130.234 " />
<polyline points="266.525,130.234 243.156,130.425 221.312,130.994 200.971,131.935 182.097,133.237 164.647,134.885 148.568,136.864 133.801,139.153 120.284,141.733 " />
<polyline points="120.284,295.881 120.284,141.733 " />
<polyline points="324.752,296.439 120.284,295.881 " />
<path d="M197.706,167.132  A1.1631,1.1631 0 0,1 196.036,165.514 " />
<polyline points="196.036,165.514 196.74,164.786 " />
<path d="M196.74,164.786  A1.66602,1.66602 0 0,1 198.712,162.751 " />
<polyline points="198.712,162.751 199.714,161.716 " />
<path d="M199.714,161.716  A1.1631,1.1631 0 0,1 201.385,163.335 " />
<polyline points="201.385,163.335 199.968,164.797 " />
<path d="M199.968,164.797  A1.66602,1.66602 0 0,1 198.825,165.977 " />
<polyline points="198.825,165.977 197.706,167.132 " />
<polyline points="131.38,237.475 130.262,238.63 " />
<path d="M130.262,238.63  A1.1631,1.1631 0 0,1 128.591,237.012 " />
<polyline points="128.591,237.012 129.296,236.284 " />
<path d="M129.296,236.284  A1.66602,1.66602 0 0,1 131.267,234.249 " />
<polyline points="131.267,234.249 132.27,233.214 " />
<path d="M132.27,233.214  A1.1631,1.1631 0 0,1 133.94,234.833 " />
<polyline points="133.94,234.833 132.524,236.295 " />
<path d="M132.524,236.295  A1.66602,1.66602 0 0,1 131.38,237.475 " />
<polyline points="132.51,283.916 133.664,285.034 " />
<path d="M133.664,285.034  A1.1631,1.1631 0 1,1 132.046,286.705 " />
<polyline points="132.046,286.705 131.318,286 " />
<path d="M131.318,286  A1.66602,1.66602 0 0,1 129.284,284.029 " />
<polyline points="129.284,284.029 128.249,283.026 " />
<path d="M128.249,283.026  A1.1631,1.1631 0 0,1 129.867,281.356 " />
<polyline points="129.867,281.356 131.329,282.772 " />
<path d="M131.329,282.772  A1.66602,1.66602 0 0,1 132.51,283.916 " />
<path d="M244.111,163.729  A1.1631,1.1631 0 0,1 245.729,162.059 " />
<polyline points="245.729,162.059 246.457,162.763 " />
<path d="M246.457,162.763  A1.66602,1.66602 0 0,1 248.491,164.735 " />
<polyline points="248.491,164.735 249.526,165.737 " />
<path d="M249.526,165.737  A1.1631,1.1631 0 0,1 247.908,167.408 " />
<polyline points="247.908,167.408 246.446,165.992 " />
<path d="M246.446,165.992  A1.66602,1.66602 0 0,1 245.265,164.848 " />
<polyline points="245.265,164.848 244.111,163.729 " />
<path d="M245.505,215.549  A1.1631,1.1631 0 0,1 243.835,213.931 " />
<polyline points="243.835,213.931 245.251,212.469 " />
<path d="M245.251,212.469  A1.66602,1.66602 0 0,1 246.395,211.288 " />
<polyline points="246.395,211.288 247.513,210.134 " />
<path d="M247.513,210.134  A1.1631,1.1631 0 0,1 249.184,211.752 " />
<polyline points="249.184,211.752 248.479,212.48 " />
<path d="M248.479,212.48  A1.66602,1.66602 0 0,1 246.508,214.514 " />
<polyline points="246.508,214.514 245.505,215.549 " />
<path d="M181.035,283.978  A1.66602,1.66602 0 0,1 179.063,286.012 " />
<polyline points="179.063,286.012 178.061,287.048 " />
<path d="M178.061,287.048  A1.1631,1.1631 0 0,1 176.39,285.429 " />
<polyline points="176.39,285.429 177.807,283.967 " />
<path d="M177.807,283.967  A1.66602,1.66602 0 0,1 178.95,282.786 " />
<polyline points="178.95,282.786 180.069,281.632 " />
<path d="M180.069,281.632  A1.1631,1.1631 0 0,1 181.739,283.25 " />
<polyline points="181.739,283.25 181.035,283.978 " />
<path d="M195.693,211.528  A1.1631,1.1631 0 0,1 197.312,209.858 " />
<polyline points="197.312,209.858 198.774,211.274 " />
<path d="M198.774,211.274  A1.66602,1.66602 0 0,1 199.954,212.418 " />
<polyline points="199.954,212.418 201.109,213.536 " />
<path d="M201.109,213.536  A1.1631,1.1631 0 0,1 199.49,215.207 " />
<polyline points="199.49,215.207 198.763,214.502 " />
<path d="M198.763,214.502  A1.66602,1.66602 0 0,1 196.728,212.531 " />
<polyline points="196.728,212.531 195.693,211.528 " />
<circle cx="315.449" cy="236.202" r="1.66602" />
<circle cx="303.665" cy="148.042" r="1.66602" />
<circle cx="266.941" cy="236.202" r="1.66602" />
<circle cx="240.31" cy="148.042" r="1.66602" />
<circle cx="315.449" cy="284.71" r="1.66602" />
<circle cx="311.319" cy="150.615" r="2.45003" />
<path d="M259.308,281.122  A6.11527,6.11527 0 0,1 260.288,276.546 " />
<polyline points="260.288,276.546 262.253,274.394 " />
<path d="M262.253,274.394  A2.45003,2.45003 0 0,0 262.55,272.543 " />
<path d="M262.55,272.543  A31.0658,31.0658 0 1,1 279.01,289.002 " />
<path d="M279.01,289.002  A2.45003,2.45003 0 0,0 277.158,289.3 " />
<polyline points="277.158,289.3 275.007,291.264 " />
<path d="M275.007,291.264  A6.11527,6.11527 0 0,1 270.43,292.244 " />
<path d="M270.43,292.244  A37.9852,37.9852 0 0,1 259.308,281.122 " />
<circle cx="155.165" cy="260.131" r="31.0663" />
<circle cx="222.61" cy="188.633" r="31.0663" />
<circle cx="315.449" cy="213.17" r="1.66602" />
<circle cx="221.5" cy="138.765" r="1.66602" />
<circle cx="315.449" cy="164.662" r="1.66602" />
<circle cx="320.835" cy="137.483" r="1.66602" />
<circle cx="266.941" cy="164.662" r="1.66602" />
<path d="M259.308,209.582  A6.11527,6.11527 0 0,1 260.288,205.005 " />
<polyline points="260.288,205.005 262.253,202.854 " />
<path d="M262.253,202.854  A2.45003,2.45003 0 0,0 262.55,201.002 " />
<path d="M262.55,201.002  A31.0658,31.0658 0 1,1 279.01,217.462 " />
<path d="M279.01,217.462  A2.45003,2.45003 0 0,0 277.158,217.759 " />
<polyline points="277.158,217.759 275.007,219.724 " />
<path d="M275.007,219.724  A6.11527,6.11527 0 0,1 270.43,220.703 " />
<path d="M270.43,220.703  A37.9852,37.9852 0 0,1 259.308,209.582 " />
<path d="M301.079,153.001  A2.94003,2.94003 0 0,1 298.139,155.941 " />
<polyline points="298.139,155.941 245.835,155.941 " />
<path d="M245.835,155.941  A2.94003,2.94003 0 0,1 242.895,153.001 " />
<polyline points="242.895,153.001 242.895,143.083 " />
<path d="M242.895,143.083  A2.94003,2.94003 0 0,1 245.835,140.143 " />
<polyline points="245.835,140.143 298.139,140.143 " />
<path d="M298.139,140.143  A2.94003,2.94003 0 0,1 301.079,143.083 " />
<polyline points="301.079,143.083 301.079,153.001 " />
<circle cx="124.226" cy="145.945" r="1.66602" />
<circle cx="155.165" cy="189.57" r="31.0663" />
<polyline points="196.631,282.697 198.986,280.341 " />
<path d="M198.986,280.341  A31.0663,31.0663 0 1,1 246.249,280.341 " />
<polyline points="246.249,280.341 248.604,282.697 " />
<path d="M248.604,282.697  A2.45003,2.45003 0 1,1 245.139,286.161 " />
<polyline points="245.139,286.161 242.784,283.806 " />
<path d="M242.784,283.806  A31.0663,31.0663 0 0,1 202.451,283.806 " />
<polyline points="202.451,283.806 200.096,286.161 " />
<path d="M200.096,286.161  A2.45003,2.45003 0 0,1 196.631,282.697 " />
<circle cx="198.363" cy="235.921" r="1.66602" />
<path d="M182.082,237.235  A1.1631,1.1631 0 0,1 180.463,238.906 " />
<polyline points="180.463,238.906 179.001,237.49 " />
<path d="M179.001,237.49  A1.66602,1.66602 0 0,1 177.821,236.346 " />
<polyline points="177.821,236.346 176.666,235.227 " />
<path d="M176.666,235.227  A1.1631,1.1631 0 0,1 178.285,233.557 " />
<polyline points="178.285,233.557 179.012,234.261 " />
<path d="M179.012,234.261  A1.66602,1.66602 0 0,1 181.047,236.233 " />
<polyline points="181.047,236.233 182.082,237.235 " />
<circle cx="246.871" cy="235.921" r="1.66602" />
<circle cx="179.419" cy="213.824" r="1.66602" />
<circle cx="311.319" cy="147.237" r="0.490005" />
<circle cx="124.226" cy="291.768" r="1.66602" />
<circle cx="179.419" cy="165.316" r="1.66602" />
<circle cx="320.835" cy="224.667" r="1.66602" />
<circle cx="124.226" cy="224.521" r="1.66602" />
<circle cx="130.911" cy="165.316" r="1.66602" />
<circle cx="256.427" cy="291.768" r="1.66602" />
<circle cx="188.2" cy="291.768" r="1.66602" />
<circle cx="320.835" cy="291.768" r="1.66602" />
<circle cx="536.729" cy="328.583" r="1.66602" />
<circle cx="566.19" cy="340.281" r="1.66602" />
<circle cx="572.989" cy="375.624" r="1.66602" />
<circle cx="536.729" cy="375.624" r="1.66602" />
<path d="M577.482,351.228  A2.45003,2.45003 0 0,1 575.032,348.778 " />
<polyline points="575.032,348.778 575.032,337.166 " />
<path d="M575.032,337.166  A2.45003,2.45003 0 0,1 575.041,336.962 " />
<polyline points="526.892,380.832 526.892,322.466 " />
<polyline points="577.482,351.228 577.482,380.832 " />
<path d="M575.041,336.962  A14.7002,14.7002 0 0,1 562.782,322.466 " />
<polyline points="526.892,322.466 562.782,322.466 " />
<polyline points="577.482,380.832 526.892,380.832 " />
<polyline points="526.892,146.579 526.892,130.234 " />
<polyline points="403.411,146.579 403.411,130.234 " />
<polyline points="403.411,146.579 526.892,146.579 " />
<polyline points="526.892,130.234 403.411,130.234 " />
<path d="M14.1691,284.793  A1.96002,1.96002 0 0,0 12.6728,282.912 " />
<path d="M12.6728,282.912  A6.32598,6.32598 0 0,1 12.6787,270.618 " />
<path d="M12.6787,270.618  A1.96002,1.96002 0 0,0 14.1691,268.888 " />
<polyline points="14.1691,284.793 14.1691,380.832 " />
<polyline points="222.518,307.766 222.518,296.16 " />
<polyline points="222.518,380.832 222.518,351.228 " />
<polyline points="222.518,296.16 120.284,295.881 " />
<polyline points="222.518,380.832 14.1691,380.832 " />
<path d="M222.518,351.228  A2.45003,2.45003 0 0,1 220.068,348.778 " />
<polyline points="220.068,348.778 220.068,337.166 " />
<path d="M220.068,337.166  A2.45003,2.45003 0 0,1 220.076,336.962 " />
<path d="M220.076,336.962  A14.7002,14.7002 0 0,1 222.518,307.766 " />
<polyline points="120.284,295.881 120.284,141.733 " />
<polyline points="120.284,141.733 102.44,146.031 86.9644,150.838 73.6352,156.07 62.2323,161.646 52.5447,167.481 44.3737,173.491 37.5348,179.594 31.8596,185.71 23.4159,197.675 18.0609,208.821 15.1103,218.678 14.1691,226.921 " />
<polyline points="14.1691,226.921 14.1691,268.888 " />
<path d="M210.953,338.44  A1.66602,1.66602 0 1,1 210.954,341.772 " />
<path d="M210.954,341.772  A1.66602,1.66602 0 1,1 210.953,338.44 " />
<circle cx="26.3144" cy="270.18" r="1.66602" />
<circle cx="44.5049" cy="251.989" r="22.0502" />
<circle cx="30.6969" cy="196.289" r="1.66602" />
<path d="M210.952,303.161  A1.66602,1.66602 0 1,1 210.952,306.493 " />
<path d="M210.952,306.493  A1.66602,1.66602 0 1,1 210.952,303.161 " />
<circle cx="26.3144" cy="233.799" r="1.66602" />
<circle cx="75.3149" cy="270.18" r="1.66602" />
<circle cx="75.3149" cy="233.799" r="1.66602" />
<circle cx="93.5055" cy="251.989" r="22.0502" />
<circle cx="111.696" cy="233.799" r="1.66602" />
<circle cx="62.6955" cy="270.18" r="1.66602" />
<circle cx="75.3149" cy="214.809" r="1.66602" />
<circle cx="75.3149" cy="178.428" r="1.66602" />
<circle cx="111.696" cy="214.809" r="1.66602" />
<circle cx="18.9998" cy="363.755" r="1.66602" />
<circle cx="33.4519" cy="342.5" r="1.66602" />
<circle cx="62.6955" cy="233.799" r="1.66602" />
<circle cx="93.5055" cy="196.619" r="22.0502" />
<circle cx="111.696" cy="178.428" r="1.66602" />
<circle cx="114.79" cy="146.534" r="1.66602" />
<circle cx="117.284" cy="375.624" r="1.66602" />
<circle cx="75.3149" cy="325.55" r="1.66602" />
<circle cx="80.8927" cy="342.5" r="1.66602" />
<circle cx="75.3149" cy="289.169" r="1.66602" />
<circle cx="111.696" cy="325.55" r="1.66602" />
<circle cx="144.005" cy="342.5" r="1.66602" />
<circle cx="62.6955" cy="325.55" r="1.66602" />
<circle cx="144.005" cy="362.297" r="1.66602" />
<circle cx="191.43" cy="342.5" r="1.66602" />
<circle cx="80.8927" cy="362.297" r="1.66602" />
<circle cx="191.43" cy="362.297" r="1.66602" />
<circle cx="44.5049" cy="307.36" r="22.0502" />
<circle cx="62.6955" cy="289.169" r="1.66602" />
<circle cx="41.2624" cy="352.358" r="4.65505" />
<circle cx="57.0405" cy="352.358" r="4.65505" />
<circle cx="72.8187" cy="352.358" r="4.65505" />
<circle cx="88.5969" cy="352.358" r="4.65505" />
<circle cx="104.375" cy="352.358" r="4.65505" />
<circle cx="120.153" cy="352.358" r="4.65505" />
<circle cx="135.931" cy="352.358" r="4.65505" />
<circle cx="216.265" cy="375.624" r="1.66602" />
<circle cx="151.71" cy="352.358" r="4.65505" />
<circle cx="167.488" cy="352.358" r="4.65505" />
<circle cx="111.696" cy="289.169" r="1.66602" />
<circle cx="183.266" cy="352.358" r="4.65505" />
<circle cx="33.4519" cy="362.297" r="1.66602" />
<circle cx="26.3144" cy="289.169" r="1.66602" />
<circle cx="93.5055" cy="307.36" r="22.0502" />
<circle cx="26.3144" cy="325.55" r="1.66602" />
<circle cx="14.1691" cy="276.766" r="1.47002" />
<circle cx="111.696" cy="270.18" r="1.66602" />
<polyline points="388.974,156.075 345.073,156.075 " />
<polyline points="345.073,156.075 345.073,139.925 " />
<polyline points="345.073,139.925 388.974,139.925 " />
<polyline points="388.974,139.925 388.974,156.075 " />
<circle cx="391.43" cy="148" r="1.66602" />
<circle cx="342.617" cy="148" r="1.66602" />
<circle cx="291.387" cy="336.572" r="31.0663" />
<circle cx="315.641" cy="312.318" r="1.66602" />
<circle cx="315.641" cy="360.826" r="1.66602" />
<circle cx="267.133" cy="312.318" r="1.66602" />
<path d="M234.084,338.439  A1.66602,1.66602 0 1,1 234.084,341.771 " />
<path d="M234.084,341.771  A1.66602,1.66602 0 1,1 234.084,338.439 " />
<path d="M234.082,303.16  A1.66602,1.66602 0 1,1 234.082,306.492 " />
<path d="M234.082,306.492  A1.66602,1.66602 0 1,1 234.082,303.16 " />
<circle cx="395.607" cy="296.243" r="1.66602" />
<circle cx="384.241" cy="360.826" r="1.66602" />
<circle cx="335.733" cy="312.318" r="1.66602" />
<circle cx="384.241" cy="312.318" r="1.66602" />
<circle cx="267.133" cy="360.826" r="1.66602" />
<circle cx="395.607" cy="136.501" r="1.66602" />
<circle cx="227.045" cy="375.624" r="1.66602" />
<circle cx="311.326" cy="375.624" r="1.66602" />
<path d="M337.466,215.557  A2.45003,2.45003 0 1,1 334.001,212.092 " />
<polyline points="334.001,212.092 336.356,209.737 " />
<path d="M336.356,209.737  A31.0663,31.0663 0 1,1 339.821,213.201 " />
<polyline points="339.821,213.201 337.466,215.557 " />
<circle cx="395.607" cy="224.702" r="1.66602" />
<circle cx="335.733" cy="238.817" r="1.66602" />
<circle cx="395.607" cy="375.624" r="1.66602" />
<circle cx="384.241" cy="213.824" r="1.66602" />
<circle cx="384.241" cy="165.316" r="1.66602" />
<circle cx="384.241" cy="238.817" r="1.66602" />
<polyline points="334.001,285.593 336.356,283.237 " />
<path d="M336.356,283.237  A31.0663,31.0663 0 1,1 339.821,286.702 " />
<polyline points="339.821,286.702 337.466,289.057 " />
<path d="M337.466,289.057  A2.45003,2.45003 0 0,1 334.001,285.593 " />
<polyline points="334.001,359.093 336.356,356.738 " />
<path d="M336.356,356.738  A31.0663,31.0663 0 1,1 339.821,360.203 " />
<polyline points="339.821,360.203 337.466,362.558 " />
<path d="M337.466,362.558  A2.45003,2.45003 0 1,1 334.001,359.093 " />
<circle cx="330.926" cy="136.501" r="1.66602" />
<circle cx="384.241" cy="287.325" r="1.66602" />
<circle cx="335.733" cy="165.316" r="1.66602" />
<polyline points="403.411,380.832 403.411,130.234 " />
<polyline points="403.411,130.234 324.752,130.234 " />
<polyline points="324.752,130.234 324.752,296.439 " />
<polyline points="324.752,296.439 222.518,296.16 " />
<polyline points="222.518,307.766 222.518,296.16 " />
<path d="M222.518,307.766  A14.7002,14.7002 0 0,1 224.959,336.962 " />
<path d="M224.959,336.962  A2.45003,2.45003 0 0,1 224.968,337.166 " />
<polyline points="224.968,337.166 224.968,348.778 " />
<path d="M224.968,348.778  A2.45003,2.45003 0 0,1 222.518,351.228 " />
<polyline points="222.518,380.832 222.518,351.228 " />
<polyline points="403.411,380.832 222.518,380.832 " />
<path d="M785.831,268.888  A1.96002,1.96002 0 0,0 787.321,270.618 " />
<path d="M787.321,270.618  A6.32599,6.32599 0 0,1 787.327,282.912 " />
<path d="M787.327,282.912  A1.96002,1.96002 0 0,0 785.831,284.793 " />
<polyline points="526.892,322.466 562.782,322.466 " />
<polyline points="577.482,351.228 577.482,380.832 " />
<path d="M579.932,348.778  A2.45003,2.45003 0 0,1 577.482,351.228 " />
<polyline points="526.892,322.466 526.892,130.234 " />
<polyline points="785.831,268.888 785.831,226.921 " />
<polyline points="785.831,226.921 785.412,221.596 784.131,215.514 781.91,208.746 778.618,201.401 774.063,193.613 767.995,185.539 760.105,177.354 750.022,169.245 737.323,161.405 721.536,154.036 702.152,147.338 690.944,144.302 678.638,141.508 665.168,138.977 650.469,136.731 634.481,134.791 617.147,133.175 598.418,131.9 578.249,130.978 556.609,130.421 533.475,130.234 " />
<polyline points="533.475,130.234 526.892,130.234 " />
<path d="M562.782,322.466  A14.7002,14.7002 0 1,1 579.924,336.962 " />
<path d="M579.924,336.962  A2.45003,2.45003 0 0,1 579.932,337.166 " />
<polyline points="579.932,337.166 579.932,348.778 " />
<polyline points="785.831,380.832 577.482,380.832 " />
<polyline points="785.831,380.832 785.831,284.793 " />
<circle cx="588.774" cy="304.65" r="1.66602" />
<circle cx="765.658" cy="353" r="1.66602" />
<circle cx="707.249" cy="353" r="1.66602" />
<circle cx="535.262" cy="138.018" r="1.66602" />
<circle cx="700.997" cy="220.834" r="1.66602" />
<circle cx="589.317" cy="339.925" r="1.66602" />
<polyline points="704.084,212.056 731.864,212.056 " />
<polyline points="731.864,212.056 731.864,229.611 " />
<polyline points="731.864,229.611 704.084,229.611 " />
<polyline points="704.084,229.611 704.084,212.056 " />
<circle cx="565.647" cy="305.006" r="1.66602" />
<circle cx="536.729" cy="224.702" r="1.66602" />
<circle cx="715.09" cy="375.624" r="1.66602" />
<circle cx="650.41" cy="375.624" r="1.66602" />
<circle cx="584.749" cy="375.624" r="1.66602" />
<polyline points="727.474,201.173 709.34,201.173 " />
<polyline points="709.34,201.173 709.34,181.303 " />
<polyline points="709.34,181.303 727.474,181.303 " />
<polyline points="727.474,181.303 727.474,201.173 " />
<circle cx="734.951" cy="220.834" r="1.66602" />
<circle cx="536.729" cy="316.823" r="1.66602" />
<circle cx="699.525" cy="150.838" r="1.66602" />
<circle cx="617.794" cy="140.021" r="1.66602" />
<circle cx="780.856" cy="224.462" r="1.66602" />
<circle cx="780.856" cy="365.583" r="1.66602" />
<circle cx="785.831" cy="276.766" r="1.47002" />
<polyline points="36.3143,454.332 36.3143,380.832 " />
<polyline points="14.1691,454.332 36.3143,454.332 " />
<polyline points="36.3143,380.832 14.1691,380.832 " />
<polyline points="14.1691,380.832 14.1691,454.332 " />
<polyline points="300.401,380.832 300.401,454.332 " />
<polyline points="785.831,380.832 300.401,380.832 " />
<circle cx="547.944" cy="439.021" r="1.47002" />
<polyline points="548.847,435.317 520.295,435.317 " />
<polyline points="520.295,435.317 520.295,401.364 " />
<polyline points="520.295,401.364 548.847,401.364 " />
<polyline points="548.847,401.364 548.847,435.317 " />
<circle cx="608.912" cy="399.304" r="1.96002" />
<circle cx="608.912" cy="427.646" r="1.96002" />
<circle cx="547.944" cy="399.82" r="1.47002" />
<circle cx="519.524" cy="439.021" r="1.47002" />
<path d="M633.929,444.532  A4.90005,4.90005 0 0,1 629.029,439.632 " />
<polyline points="629.029,439.632 629.029,390.632 " />
<path d="M629.029,390.632  A4.90005,4.90005 0 0,1 633.929,385.732 " />
<polyline points="633.929,385.732 751.531,385.732 " />
<path d="M751.531,385.732  A4.90005,4.90005 0 0,1 756.431,390.632 " />
<polyline points="756.431,390.632 756.431,439.632 " />
<path d="M756.431,439.632  A4.90005,4.90005 0 0,1 751.531,444.532 " />
<polyline points="751.531,444.532 633.929,444.532 " />
<circle cx="519.524" cy="399.82" r="1.47002" />
<circle cx="357.225" cy="445.133" r="5.20386" />
<circle cx="436.649" cy="445.503" r="1.62949" />
<circle cx="399.899" cy="410.406" r="7.33048" />
<circle cx="408.554" cy="445.503" r="1.62949" />
<circle cx="444.208" cy="410.406" r="7.33048" />
<circle cx="357.225" cy="411.199" r="5.20386" />
<circle cx="422.602" cy="445.503" r="3.75344" />
<polyline points="300.401,454.332 316.75,454.332 " />
<polyline points="316.75,454.332 319.824,454.822 322.99,456.465 329.69,461.908 337.194,467.417 341.413,469.148 346.028,469.766 " />
<polyline points="346.028,469.766 453.972,469.766 " />
<polyline points="453.972,469.766 458.587,469.148 462.806,467.417 470.31,461.908 477.01,456.465 480.176,454.822 483.25,454.332 " />
<polyline points="483.25,454.332 785.831,454.332 " />
<polyline points="785.831,454.332 785.831,380.832 " />
<circle cx="251.863" cy="402.339" r="4.56685" />
<circle cx="205.333" cy="433.71" r="4.56685" />
<circle cx="189.653" cy="433.71" r="4.56685" />
<circle cx="173.973" cy="433.71" r="4.56685" />
<circle cx="158.293" cy="433.71" r="4.56685" />
<circle cx="142.613" cy="433.71" r="4.56685" />
<circle cx="126.932" cy="433.71" r="4.56685" />
<circle cx="111.252" cy="433.71" r="4.56685" />
<polyline points="101.912,404.436 101.912,432.269 " />
<polyline points="101.912,432.269 84.7812,432.269 " />
<polyline points="84.7812,432.269 84.7812,404.436 " />
<polyline points="84.7812,404.436 101.912,404.436 " />
<circle cx="220.415" cy="388.569" r="1.66602" />
<polyline points="229.459,404.272 229.459,432.104 " />
<polyline points="229.459,432.104 212.328,432.104 " />
<polyline points="212.328,432.104 212.328,404.272 " />
<polyline points="212.328,404.272 229.459,404.272 " />
<circle cx="72.9" cy="448.178" r="1.66602" />
<circle cx="204.888" cy="402.339" r="4.56685" />
<circle cx="292.74" cy="388.569" r="1.66602" />
<circle cx="42.7157" cy="448.178" r="1.66602" />
<polyline points="53.997,425.16 48.9242,422.231 " />
<path d="M48.9242,422.231  A6.86007,6.86007 0 0,1 55.1277,411.486 " />
<polyline points="55.1277,411.486 60.2004,414.415 " />
<path d="M60.2004,414.415  A6.86007,6.86007 0 0,1 53.997,425.16 " />
<circle cx="142.255" cy="402.339" r="4.56685" />
<circle cx="110.938" cy="402.339" r="4.56685" />
<circle cx="126.596" cy="402.339" r="4.56685" />
<circle cx="157.913" cy="402.339" r="4.56685" />
<circle cx="173.571" cy="402.339" r="4.56685" />
<circle cx="189.23" cy="402.339" r="4.56685" />
<circle cx="72.9" cy="388.593" r="1.66602" />
<circle cx="42.7157" cy="388.593" r="1.66602" />
<circle cx="292.74" cy="448.154" r="1.66602" />
<circle cx="220.415" cy="448.154" r="1.66602" />
<circle cx="236.205" cy="402.339" r="4.56685" />
<polyline points="300.401,454.332 300.401,380.832 " />
<polyline points="300.401,380.832 36.3143,380.832 " />
<polyline points="36.3143,380.832 36.3143,454.332 " />
<polyline points="36.3143,454.332 300.401,454.332 " />
</g>
</svg>
