  0
SECTION
  2
HEADER
  9
$ACADVER
  1
AC1027
  9
$ACADMAINTVER
 70
   125
  9
$DWGCODEPAGE
  3
ANSI_1252
  9
$LASTSAVEDBY
  1
poojars
  9
$REQUIREDVERSIONS
160
                 0
  9
$INSBASE
 10
0.0
 20
0.0
 30
0.0
  9
$EXTMIN
 10
2.644471
 20
9.361276
 30
0.0
  9
$EXTMAX
 10
42.337301
 20
26.684111
 30
0.0
  9
$LIMMIN
 10
0.0
 20
0.0
  9
$LIMMAX
 10
43.999999
 20
33.999999
  9
$ORTHOMODE
 70
     0
  9
$REGENMODE
 70
     1
  9
$FILLMODE
 70
     1
  9
$QTEXTMODE
 70
     0
  9
$MIRRTEXT
 70
     0
  9
$LTSCALE
 40
0.75
  9
$ATTMODE
 70
     1
  9
$TEXTSIZE
 40
0.12
  9
$TRACEWID
 40
0.05
  9
$TEXTSTYLE
  7
Standard
  9
$CLAYER
  8
0
  9
$CELTYPE
  6
ByLayer
  9
$CECOLOR
 62
   256
  9
$CELTSCALE
 40
1.0
  9
$DISPSILH
 70
     0
  9
$DIMSCALE
 40
1.0
  9
$DIMASZ
 40
0.12
  9
$DIMEXO
 40
0.07
  9
$DIMDLI
 40
0.36
  9
$DIMRND
 40
0.0
  9
$DIMDLE
 40
0.0
  9
$DIMEXE
 40
0.07
  9
$DIMTP
 40
0.01
  9
$DIMTM
 40
0.01
  9
$DIMTXT
 40
0.12
  9
$DIMCEN
 40
0.0
  9
$DIMTSZ
 40
0.0
  9
$DIMTOL
 70
     0
  9
$DIMLIM
 70
     0
  9
$DIMTIH
 70
     1
  9
$DIMTOH
 70
     1
  9
$DIMSE1
 70
     0
  9
$DIMSE2
 70
     0
  9
$DIMTAD
 70
     0
  9
$DIMZIN
 70
    12
  9
$DIMBLK
  1

  9
$DIMASO
 70
     1
  9
$DIMSHO
 70
     1
  9
$DIMPOST
  1

  9
$DIMAPOST
  1
mm
  9
$DIMALT
 70
     0
  9
$DIMALTD
 70
     2
  9
$DIMALTF
 40
25.4
  9
$DIMLFAC
 40
1.0
  9
$DIMTOFL
 70
     0
  9
$DIMTVP
 40
0.0
  9
$DIMTIX
 70
     0
  9
$DIMSOXD
 70
     0
  9
$DIMSAH
 70
     0
  9
$DIMBLK1
  1

  9
$DIMBLK2
  1

  9
$DIMSTYLE
  2
Dim-Standard
  9
$DIMCLRD
 70
     0
  9
$DIMCLRE
 70
     0
  9
$DIMCLRT
 70
     0
  9
$DIMTFAC
 40
1.0
  9
$DIMGAP
 40
0.05
  9
$DIMJUST
 70
     0
  9
$DIMSD1
 70
     0
  9
$DIMSD2
 70
     0
  9
$DIMTOLJ
 70
     1
  9
$DIMTZIN
 70
    12
  9
$DIMALTZ
 70
    12
  9
$DIMALTTZ
 70
    12
  9
$DIMUPT
 70
     0
  9
$DIMDEC
 70
     2
  9
$DIMTDEC
 70
     2
  9
$DIMALTU
 70
     2
  9
$DIMALTTD
 70
     2
  9
$DIMTXSTY
  7
Standard
  9
$DIMAUNIT
 70
     0
  9
$DIMADEC
 70
     2
  9
$DIMALTRND
 40
0.0
  9
$DIMAZIN
 70
     3
  9
$DIMDSEP
 70
    46
  9
$DIMATFIT
 70
     3
  9
$DIMFRAC
 70
     0
  9
$DIMLDRBLK
  1

  9
$DIMLUNIT
 70
     2
  9
$DIMLWD
 70
    -2
  9
$DIMLWE
 70
    -2
  9
$DIMTMOVE
 70
     0
  9
$DIMFXL
 40
1.0
  9
$DIMFXLON
 70
     0
  9
$DIMJOGANG
 40
0.785398
  9
$DIMTFILL
 70
     0
  9
$DIMTFILLCLR
 70
     0
  9
$DIMARCSYM
 70
     1
  9
$DIMLTYPE
  6

  9
$DIMLTEX1
  6

  9
$DIMLTEX2
  6

  9
$DIMTXTDIRECTION
 70
     0
  9
$LUNITS
 70
     2
  9
$LUPREC
 70
     4
  9
$SKETCHINC
 40
0.1
  9
$FILLETRAD
 40
0.0
  9
$AUNITS
 70
     0
  9
$AUPREC
 70
     0
  9
$MENU
  1
.
  9
$ELEVATION
 40
0.0
  9
$PELEVATION
 40
0.0
  9
$THICKNESS
 40
0.0
  9
$LIMCHECK
 70
     0
  9
$CHAMFERA
 40
0.0
  9
$CHAMFERB
 40
0.0
  9
$CHAMFERC
 40
0.0
  9
$CHAMFERD
 40
0.0
  9
$SKPOLY
 70
     0
  9
$TDCREATE
 40
2459941.787083334
  9
$TDUCREATE
 40
2459942.078750000
  9
$TDUPDATE
 40
2459941.787083334
  9
$TDUUPDATE
 40
2459942.078750000
  9
$TDINDWG
 40
0.0000000000
  9
$TDUSRTIMER
 40
0.0000000000
  9
$USRTIMER
 70
     1
  9
$ANGBASE
 50
0.0
  9
$ANGDIR
 70
     0
  9
$PDMODE
 70
     0
  9
$PDSIZE
 40
0.0
  9
$PLINEWID
 40
0.0
  9
$SPLFRAME
 70
     0
  9
$SPLINETYPE
 70
     6
  9
$SPLINESEGS
 70
     8
  9
$HANDSEED
  5
3E6
  9
$SURFTAB1
 70
     6
  9
$SURFTAB2
 70
     6
  9
$SURFTYPE
 70
     6
  9
$SURFU
 70
     6
  9
$SURFV
 70
     6
  9
$UCSBASE
  2

  9
$UCSNAME
  2

  9
$UCSORG
 10
0.0
 20
0.0
 30
0.0
  9
$UCSXDIR
 10
1.0
 20
0.0
 30
0.0
  9
$UCSYDIR
 10
0.0
 20
1.0
 30
0.0
  9
$UCSORTHOREF
  2

  9
$UCSORTHOVIEW
 70
     0
  9
$UCSORGTOP
 10
0.0
 20
0.0
 30
0.0
  9
$UCSORGBOTTOM
 10
0.0
 20
0.0
 30
0.0
  9
$UCSORGLEFT
 10
0.0
 20
0.0
 30
0.0
  9
$UCSORGRIGHT
 10
0.0
 20
0.0
 30
0.0
  9
$UCSORGFRONT
 10
0.0
 20
0.0
 30
0.0
  9
$UCSORGBACK
 10
0.0
 20
0.0
 30
0.0
  9
$PUCSBASE
  2

  9
$PUCSNAME
  2

  9
$PUCSORG
 10
0.0
 20
0.0
 30
0.0
  9
$PUCSXDIR
 10
1.0
 20
0.0
 30
0.0
  9
$PUCSYDIR
 10
0.0
 20
1.0
 30
0.0
  9
$PUCSORTHOREF
  2

  9
$PUCSORTHOVIEW
 70
     0
  9
$PUCSORGTOP
 10
0.0
 20
0.0
 30
0.0
  9
$PUCSORGBOTTOM
 10
0.0
 20
0.0
 30
0.0
  9
$PUCSORGLEFT
 10
0.0
 20
0.0
 30
0.0
  9
$PUCSORGRIGHT
 10
0.0
 20
0.0
 30
0.0
  9
$PUCSORGFRONT
 10
0.0
 20
0.0
 30
0.0
  9
$PUCSORGBACK
 10
0.0
 20
0.0
 30
0.0
  9
$USERI1
 70
     0
  9
$USERI2
 70
     0
  9
$USERI3
 70
     0
  9
$USERI4
 70
     0
  9
$USERI5
 70
     0
  9
$USERR1
 40
0.0
  9
$USERR2
 40
0.0
  9
$USERR3
 40
0.0
  9
$USERR4
 40
0.0
  9
$USERR5
 40
0.0
  9
$WORLDVIEW
 70
     1
  9
$SHADEDGE
 70
     3
  9
$SHADEDIF
 70
    70
  9
$TILEMODE
 70
     1
  9
$MAXACTVP
 70
    64
  9
$PINSBASE
 10
0.0
 20
0.0
 30
0.0
  9
$PLIMCHECK
 70
     0
  9
$PEXTMIN
 10
1.000000E+20
 20
1.000000E+20
 30
1.000000E+20
  9
$PEXTMAX
 10
-1.000000E+20
 20
-1.000000E+20
 30
-1.000000E+20
  9
$PLIMMIN
 10
0.0
 20
0.0
  9
$PLIMMAX
 10
12.0
 20
9.0
  9
$UNITMODE
 70
     0
  9
$VISRETAIN
 70
     1
  9
$PLINEGEN
 70
     0
  9
$PSLTSCALE
 70
     1
  9
$TREEDEPTH
 70
  3020
  9
$CMLSTYLE
  2
Standard
  9
$CMLJUST
 70
     0
  9
$CMLSCALE
 40
1.0
  9
$PROXYGRAPHICS
 70
     1
  9
$MEASUREMENT
 70
     0
  9
$CELWEIGHT
370
    -1
  9
$ENDCAPS
280
     0
  9
$JOINSTYLE
280
     0
  9
$LWDISPLAY
290
     0
  9
$INSUNITS
 70
     1
  9
$HYPERLINKBASE
  1

  9
$STYLESHEET
  1

  9
$XEDIT
290
     1
  9
$CEPSNTYPE
380
     0
  9
$PSTYLEMODE
290
     1
  9
$FINGERPRINTGUID
  2
{E0DDA56F-A39F-7647-B6E1-2AD10ED9AC25}
  9
$VERSIONGUID
  2
{3706BBF0-9D38-BA46-AF72-CFA2B4986EB4}
  9
$EXTNAMES
290
     1
  9
$PSVPSCALE
 40
0.0
  9
$OLESTARTUP
290
     0
  9
$SORTENTS
280
   127
  9
$INDEXCTL
280
     0
  9
$HIDETEXT
280
     1
  9
$XCLIPFRAME
280
     0
  9
$HALOGAP
280
     0
  9
$OBSCOLOR
 70
   257
  9
$OBSLTYPE
280
     0
  9
$INTERSECTIONDISPLAY
280
     0
  9
$INTERSECTIONCOLOR
 70
   257
  9
$DIMASSOC
280
     2
  9
$PROJECTNAME
  1

  9
$CAMERADISPLAY
290
     0
  9
$LENSLENGTH
 40
50.0
  9
$CAMERAHEIGHT
 40
0.0
  9
$STEPSPERSEC
 40
2.0
  9
$STEPSIZE
 40
6.0
  9
$3DDWFPREC
 40
2.0
  9
$PSOLWIDTH
 40
0.25
  9
$PSOLHEIGHT
 40
4.0
  9
$LOFTANG1
 40
1.570796
  9
$LOFTANG2
 40
1.570796
  9
$LOFTMAG1
 40
0.0
  9
$LOFTMAG2
 40
0.0
  9
$LOFTPARAM
 70
     7
  9
$LOFTNORMALS
280
     1
  9
$LATITUDE
 40
37.795
  9
$LONGITUDE
 40
-122.394
  9
$NORTHDIRECTION
 40
0.0
  9
$TIMEZONE
 70
 -8000
  9
$LIGHTGLYPHDISPLAY
280
     1
  9
$TILEMODELIGHTSYNCH
280
     1
  9
$CMATERIAL
347
11
  9
$SOLIDHIST
280
     0
  9
$SHOWHIST
280
     1
  9
$DWFFRAME
280
     2
  9
$DGNFRAME
280
     0
  9
$REALWORLDSCALE
290
     1
  9
$INTERFERECOLOR
 62
     1
  9
$INTERFEREOBJVS
345
33
  9
$INTERFEREVPVS
346
30
  9
$CSHADOW
280
     0
  9
$SHADOWPLANELOCATION
 40
0.0
  0
ENDSEC
  0
SECTION
  2
CLASSES
  0
CLASS
  1
ACDBDICTIONARYWDFLT
  2
AcDbDictionaryWithDefault
  3
ObjectDBX Classes
 90
        0
 91
        1
280
     0
281
     0
  0
CLASS
  1
MATERIAL
  2
AcDbMaterial
  3
ObjectDBX Classes
 90
     1153
 91
        3
280
     0
281
     0
  0
CLASS
  1
VISUALSTYLE
  2
AcDbVisualStyle
  3
ObjectDBX Classes
 90
     4095
 91
       24
280
     0
281
     0
  0
CLASS
  1
SCALE
  2
AcDbScale
  3
ObjectDBX Classes
 90
     1153
 91
       33
280
     0
281
     0
  0
CLASS
  1
TABLESTYLE
  2
AcDbTableStyle
  3
ObjectDBX Classes
 90
     4095
 91
        1
280
     0
281
     0
  0
CLASS
  1
MLEADERSTYLE
  2
AcDbMLeaderStyle
  3
ACDB_MLEADERSTYLE_CLASS
 90
     4095
 91
        1
280
     0
281
     0
  0
CLASS
  1
ACDBSECTIONVIEWSTYLE
  2
AcDbSectionViewStyle
  3
ObjectDBX Classes
 90
     1025
 91
        1
280
     0
281
     0
  0
CLASS
  1
ACDBDETAILVIEWSTYLE
  2
AcDbDetailViewStyle
  3
ObjectDBX Classes
 90
     1025
 91
        1
280
     0
281
     0
  0
CLASS
  1
ACMESCOPE
  2
AcMeScope
  3
AcMeServices
 90
     1024
 91
        1
280
     0
281
     0
  0
CLASS
  1
ACMECOMMANDHISTORY
  2
AcMeCommandHistory
  3
AcMeServices
 90
     1024
 91
        1
280
     0
281
     0
  0
CLASS
  1
ACIMSYSVARMAN
  2
AcImSysVarManager
  3
AcMeServices
 90
     1024
 91
        1
280
     0
281
     0
  0
CLASS
  1
ACIMINTSYSVAR
  2
AcImIntSysVar
  3
AcMeServices
 90
     1024
 91
        1
280
     0
281
     0
  0
CLASS
  1
ACMESTATEMGR
  2
AcMeStateMgr
  3
AcMeServices
 90
     1024
 91
        1
280
     0
281
     0
  0
CLASS
  1
ACGREFMASTER
  2
AcGrefMaster
  3
AcAttribServices
 90
     1024
 91
        1
280
     0
281
     0
  0
CLASS
  1
SORTENTSTABLE
  2
AcDbSortentsTable
  3
ObjectDBX Classes
 90
        0
 91
        1
280
     0
281
     0
  0
CLASS
  1
DICTIONARYVAR
  2
AcDbDictionaryVar
  3
ObjectDBX Classes
 90
        0
 91
        6
280
     0
281
     0
  0
CLASS
  1
CELLSTYLEMAP
  2
AcDbCellStyleMap
  3
ObjectDBX Classes
 90
     1152
 91
        1
280
     0
281
     0
  0
ENDSEC
  0
SECTION
  2
TABLES
  0
TABLE
  2
VPORT
  5
8
330
0
100
AcDbSymbolTable
 70
     1
1001
ACAD
1000
DbSaveVer
1071
      278
  0
VPORT
  5
57
330
8
100
AcDbSymbolTableRecord
100
AcDbViewportTableRecord
  2
*Active
 70
     0
 10
0.0
 20
0.0
 11
1.0
 21
1.0
 12
22.490886
 22
18.022694
 13
0.0
 23
0.0
 14
0.5
 24
0.5
 15
0.0
 25
0.0
 16
0.0
 26
0.0
 36
1.0
 17
0.0
 27
0.0
 37
0.0
 40
22.092194
 41
1.79669
 42
50.0
 43
0.0
 44
0.0
 50
0.0
 51
0.0
 71
     0
 72
 20000
 73
     1
 74
     0
 75
     0
 76
     0
 77
     0
 78
     0
281
     0
 65
     1
110
0.0
120
0.0
130
0.0
111
1.0
121
0.0
131
0.0
112
0.0
122
1.0
132
0.0
 79
     0
146
0.0
348
2F
 60
     3
 61
     5
292
     1
282
     1
141
0.0
142
0.0
 63
   250
421
  3355443
  0
ENDTAB
  0
TABLE
  2
LTYPE
  5
5
330
0
100
AcDbSymbolTable
 70
    11
  0
LTYPE
  5
5B
330
5
100
AcDbSymbolTableRecord
100
AcDbLinetypeTableRecord
  2
ByBlock
 70
     0
  3

 72
    65
 73
     0
 40
0.0
  0
LTYPE
  5
5C
330
5
100
AcDbSymbolTableRecord
100
AcDbLinetypeTableRecord
  2
ByLayer
 70
     0
  3

 72
    65
 73
     0
 40
0.0
  0
LTYPE
  5
5D
330
5
100
AcDbSymbolTableRecord
100
AcDbLinetypeTableRecord
  2
Continuous
 70
     0
  3
Solid line
 72
    65
 73
     0
 40
0.0
  0
LTYPE
  5
81
330
5
100
AcDbSymbolTableRecord
100
AcDbLinetypeTableRecord
  2
HIDDEN
 70
     0
  3
Hidden __ __ __ __ __ __ __ __ __ __ __ __ __ _
 72
    65
 73
     2
 40
0.375
 49
0.25
 74
     0
 49
-0.125
 74
     0
  0
LTYPE
  5
82
330
5
100
AcDbSymbolTableRecord
100
AcDbLinetypeTableRecord
  2
PHANTOM2
 70
     0
  3
Phantom (.5x) ___ _ _ ___ _ _ ___ _ _ ___ _ _
 72
    65
 73
     6
 40
1.25
 49
0.625
 74
     0
 49
-0.125
 74
     0
 49
0.125
 74
     0
 49
-0.125
 74
     0
 49
0.125
 74
     0
 49
-0.125
 74
     0
  0
LTYPE
  5
83
330
5
100
AcDbSymbolTableRecord
100
AcDbLinetypeTableRecord
  2
CENTER
 70
     0
  3
Center ____ _ ____ _ ____ _ ____ _ ____ _ ____
 72
    65
 73
     4
 40
2.0
 49
1.25
 74
     0
 49
-0.25
 74
     0
 49
0.25
 74
     0
 49
-0.25
 74
     0
  0
LTYPE
  5
9C
330
5
100
AcDbSymbolTableRecord
100
AcDbLinetypeTableRecord
  2
CENTER2
 70
     0
  3
Center (.5x) ___ _ ___ _ ___ _ ___ _ ___ _ ___
 72
    65
 73
     4
 40
1.125
 49
0.75
 74
     0
 49
-0.125
 74
     0
 49
0.125
 74
     0
 49
-0.125
 74
     0
  0
LTYPE
  5
9D
330
5
100
AcDbSymbolTableRecord
100
AcDbLinetypeTableRecord
  2
HIDDEN2
 70
     0
  3
Hidden (.5x) _ _ _ _ _ _ _ _ _ _ _ _ _ _ _ _ _
 72
    65
 73
     2
 40
0.1875
 49
0.125
 74
     0
 49
-0.0625
 74
     0
  0
LTYPE
  5
9E
330
5
100
AcDbSymbolTableRecord
100
AcDbLinetypeTableRecord
  2
Amconstr
 70
     0
  3
_______________________
 72
    65
 73
     2
 40
9999.0
 49
9999.0
 74
     0
 49
0.0
 74
     0
  0
LTYPE
  5
9F
330
5
100
AcDbSymbolTableRecord
100
AcDbLinetypeTableRecord
  2
Amzigzag2
 70
     0
  3
/\/-/\/-/\/-/\/-/\/-/\/
 72
    65
 73
     2
 40
0.4401
 49
0.0001
 74
     4
 75
   136
340
99
 46
0.0016
 50
0.0
 44
0.0
 45
0.0
 49
-0.44
 74
     0
  0
LTYPE
  5
A0
330
5
100
AcDbSymbolTableRecord
100
AcDbLinetypeTableRecord
  2
ACANSTGB
 70
     0
  3
__ . . __ . .
 72
    65
 73
     6
 40
0.354331
 49
0.15748
 74
     0
 49
-0.03937
 74
     0
 49
0.03937
 74
     0
 49
-0.03937
 74
     0
 49
0.03937
 74
     0
 49
-0.03937
 74
     0
  0
LTYPE
  5
A1
330
5
100
AcDbSymbolTableRecord
100
AcDbLinetypeTableRecord
  2
ACANSTGL
 70
     0
  3
_ _ _ _ _
 72
    65
 73
     2
 40
0.11811
 49
0.07874
 74
     0
 49
-0.03937
 74
     0
  0
LTYPE
  5
A2
330
5
100
AcDbSymbolTableRecord
100
AcDbLinetypeTableRecord
  2
ACAD_VIEWBORDER_LINETYPE
 70
     0
  3
Dashed line in view border
 72
    83
 73
     2
 40
0.393701
 49
0.062598
 74
     0
 49
-0.25
 74
     0
1001
ACAD_EXEMPT_FROM_CAD_STANDARDS
1070
     1
  0
ENDTAB
  0
TABLE
  2
LAYER
  5
2
330
0
100
AcDbSymbolTable
 70
     4
  0
LAYER
  5
54
330
2
100
AcDbSymbolTableRecord
100
AcDbLayerTableRecord
  2
0
 70
     0
 62
     7
  6
Continuous
370
    -3
390
F
347
21
348
0
1001
AcAecLayerStandard
1000

1000

  0
LAYER
  5
79
330
2
100
AcDbSymbolTableRecord
100
AcDbLayerTableRecord
  2
Defpoints
 70
     0
 62
     7
  6
Continuous
290
     0
370
    -3
390
F
347
21
348
0
1001
AcAecLayerStandard
1000

1000

  0
LAYER
  5
BD
330
2
100
AcDbSymbolTableRecord
100
AcDbLayerTableRecord
  2
Visible
 70
     0
 62
     7
  6
Continuous
370
    50
390
F
347
21
348
0
  0
ENDTAB
  0
TABLE
  2
STYLE
  5
3
330
0
100
AcDbSymbolTable
 70
     5
  0
STYLE
  5
55
330
3
100
AcDbSymbolTableRecord
100
AcDbTextStyleTableRecord
  2
Standard
 70
     0
 40
0.0
 41
1.0
 50
0.0
 71
     0
 42
0.12
  3
arial.ttf
  4

1001
ACAD
1000
Arial
1071
       34
  0
STYLE
  5
5A
330
3
100
AcDbSymbolTableRecord
100
AcDbTextStyleTableRecord
  2
Annotative
 70
     0
 40
0.0
 41
1.0
 50
0.0
 71
     0
 42
0.2
  3
txt
  4

1001
AcadAnnotative
1000
AnnotativeData
1002
{
1070
     1
1070
     1
1002
}
  0
STYLE
  5
98
330
3
100
AcDbSymbolTableRecord
100
AcDbTextStyleTableRecord
  2
FusionTitle
 70
     0
 40
0.0
 41
1.0
 50
0.0
 71
     0
 42
0.2
  3
arial.ttf
  4

1001
ACAD
1000
Arial
1071
       34
  0
STYLE
  5
99
330
3
100
AcDbSymbolTableRecord
100
AcDbTextStyleTableRecord
  2

 70
     1
 40
0.0
 41
1.0
 50
0.0
 71
     0
 42
0.12
  3
genltshp.shx
  4

  0
STYLE
  5
9A
330
3
100
AcDbSymbolTableRecord
100
AcDbTextStyleTableRecord
  2
ACANSGDT
 70
     0
 40
0.0
 41
1.0
 50
0.0
 71
     0
 42
0.12
  3
amgdt.shx
  4

  0
ENDTAB
  0
TABLE
  2
VIEW
  5
6
330
0
100
AcDbSymbolTable
 70
     0
  0
ENDTAB
  0
TABLE
  2
UCS
  5
7
330
0
100
AcDbSymbolTable
 70
     0
  0
ENDTAB
  0
TABLE
  2
APPID
  5
9
330
0
100
AcDbSymbolTable
 70
    25
  0
APPID
  5
56
330
9
100
AcDbSymbolTableRecord
100
AcDbRegAppTableRecord
  2
ACAD
 70
     0
  0
APPID
  5
5E
330
9
100
AcDbSymbolTableRecord
100
AcDbRegAppTableRecord
  2
AcadAnnotative
 70
     0
  0
APPID
  5
78
330
9
100
AcDbSymbolTableRecord
100
AcDbRegAppTableRecord
  2
ACAD_PSEXT
 70
     0
  0
APPID
  5
7A
330
9
100
AcDbSymbolTableRecord
100
AcDbRegAppTableRecord
  2
MCAD_NO_VIS
 70
     0
  0
APPID
  5
7B
330
9
100
AcDbSymbolTableRecord
100
AcDbRegAppTableRecord
  2
ACAD_TEMP_GRAPHIC
 70
     0
  0
APPID
  5
84
330
9
100
AcDbSymbolTableRecord
100
AcDbRegAppTableRecord
  2
ACAD_DSTYLE_DIMJAG
 70
     0
  0
APPID
  5
85
330
9
100
AcDbSymbolTableRecord
100
AcDbRegAppTableRecord
  2
ACAD_DSTYLE_DIMTALN
 70
     0
  0
APPID
  5
86
330
9
100
AcDbSymbolTableRecord
100
AcDbRegAppTableRecord
  2
ACAD_NAV_VCDISPLAY
 70
     0
  0
APPID
  5
87
330
9
100
AcDbSymbolTableRecord
100
AcDbRegAppTableRecord
  2
AcAecLayerStandard
 70
     0
  0
APPID
  5
88
330
9
100
AcDbSymbolTableRecord
100
AcDbRegAppTableRecord
  2
AcCmTransparency
 70
     0
  0
APPID
  5
89
330
9
100
AcDbSymbolTableRecord
100
AcDbRegAppTableRecord
  2
AcDbDynamicBlockGUID
 70
     0
  0
APPID
  5
8A
330
9
100
AcDbSymbolTableRecord
100
AcDbRegAppTableRecord
  2
ACAD_EXEMPT_FROM_CAD_STANDARDS
 70
     0
  0
APPID
  5
8B
330
9
100
AcDbSymbolTableRecord
100
AcDbRegAppTableRecord
  2
ACAD_DSTYLE_DIMBREAK
 70
     0
  0
APPID
  5
8C
330
9
100
AcDbSymbolTableRecord
100
AcDbRegAppTableRecord
  2
FUSIONTITLEBLOCK
 70
     0
  0
APPID
  5
8D
330
9
100
AcDbSymbolTableRecord
100
AcDbRegAppTableRecord
  2
FUSIONCURRENTTITLEBLOCK
 70
     0
  0
APPID
  5
8E
330
9
100
AcDbSymbolTableRecord
100
AcDbRegAppTableRecord
  2
AcSynergy
 70
     0
  0
APPID
  5
8F
330
9
100
AcDbSymbolTableRecord
100
AcDbRegAppTableRecord
  2
GENIUS_GENSCREG_15
 70
     0
  0
APPID
  5
90
330
9
100
AcDbSymbolTableRecord
100
AcDbRegAppTableRecord
  2
GENIUS_GENOBJ-N-SDF_13
 70
     0
  0
APPID
  5
91
330
9
100
AcDbSymbolTableRecord
100
AcDbRegAppTableRecord
  2
GENIUS_GENODEF_13
 70
     0
  0
APPID
  5
92
330
9
100
AcDbSymbolTableRecord
100
AcDbRegAppTableRecord
  2
ACAD_TC
 70
     0
  0
APPID
  5
93
330
9
100
AcDbSymbolTableRecord
100
AcDbRegAppTableRecord
  2
ACAD_DIMASSOC_CALC_DIMLFAC
 70
     0
  0
APPID
  5
94
330
9
100
AcDbSymbolTableRecord
100
AcDbRegAppTableRecord
  2
ACAD_DIMASSOC_DIMLFAC
 70
     0
  0
APPID
  5
95
330
9
100
AcDbSymbolTableRecord
100
AcDbRegAppTableRecord
  2
ACAD_DIMASSOC_OVERRIDDEN_DIMLFAC
 70
     0
  0
APPID
  5
96
330
9
100
AcDbSymbolTableRecord
100
AcDbRegAppTableRecord
  2
ACAD_DSTYLE_DIMJAG_POSITION
 70
     0
  0
APPID
  5
97
330
9
100
AcDbSymbolTableRecord
100
AcDbRegAppTableRecord
  2
ACATTRIBSERVICES
 70
     0
  0
ENDTAB
  0
TABLE
  2
DIMSTYLE
  5
A
330
0
100
AcDbSymbolTable
 70
     3
100
AcDbDimStyleTable
 71
     1
340
A5
  0
DIMSTYLE
105
58
330
A
100
AcDbSymbolTableRecord
100
AcDbDimStyleTableRecord
  2
Standard
 70
     0
  4
mm
 41
0.12
 42
0.07
 43
0.36
 44
0.07
 47
0.01
 48
0.01
 78
    12
 79
     3
 90
        1
140
0.12
141
0.0
147
0.05
176
   256
177
   256
178
   256
179
     2
271
     2
272
     2
284
    12
285
    12
286
    12
340
55
  0
DIMSTYLE
105
59
330
A
100
AcDbSymbolTableRecord
100
AcDbDimStyleTableRecord
  2
Annotative
 70
     0
 40
0.0
 41
0.12
 42
0.07
 43
0.36
 44
0.07
 78
    12
 79
     3
140
0.12
147
0.05
179
     2
271
     2
272
     2
284
    12
285
    12
286
    12
340
55
1001
AcadAnnotative
1000
AnnotativeData
1002
{
1070
     1
1070
     1
1002
}
  0
DIMSTYLE
105
A5
330
A
100
AcDbSymbolTableRecord
100
AcDbDimStyleTableRecord
  2
Dim-Standard
 70
     0
  4
mm
 41
0.12
 42
0.07
 43
0.36
 44
0.07
 47
0.01
 48
0.01
 78
    12
 79
     3
 90
        1
140
0.12
141
0.0
147
0.05
179
     2
271
     2
272
     2
284
    12
285
    12
286
    12
340
55
1001
ACAD_DSTYLE_DIMJAG
1070
   388
1040
1.5
1001
ACAD_DSTYLE_DIMTALN
1070
   392
1070
     1
1001
ACAD_DSTYLE_DIMBREAK
1070
   391
1040
0.12
  0
ENDTAB
  0
TABLE
  2
BLOCK_RECORD
  5
1
330
0
100
AcDbSymbolTable
 70
     2
  0
BLOCK_RECORD
  5
70
102
{ACAD_XDICTIONARY
360
B6
102
}
330
1
100
AcDbSymbolTableRecord
100
AcDbBlockTableRecord
  2
*Model_Space
340
73
 70
     0
280
     1
281
     0
  0
BLOCK_RECORD
  5
6C
330
1
100
AcDbSymbolTableRecord
100
AcDbBlockTableRecord
  2
*Paper_Space
340
6F
 70
     0
280
     1
281
     0
  0
BLOCK_RECORD
  5
74
330
1
100
AcDbSymbolTableRecord
100
AcDbBlockTableRecord
  2
*Paper_Space0
340
77
 70
     0
280
     1
281
     0
  0
ENDTAB
  0
ENDSEC
  0
SECTION
  2
BLOCKS
  0
BLOCK
  5
71
330
70
100
AcDbEntity
  8
0
100
AcDbBlockBegin
  2
*Model_Space
 70
     0
 10
0.0
 20
0.0
 30
0.0
  3
*Model_Space
  1

  0
ENDBLK
  5
72
330
70
100
AcDbEntity
  8
0
100
AcDbBlockEnd
  0
BLOCK
  5
6D
330
6C
100
AcDbEntity
 67
     1
  8
0
100
AcDbBlockBegin
  2
*Paper_Space
 70
     0
 10
0.0
 20
0.0
 30
0.0
  3
*Paper_Space
  1

  0
ENDBLK
  5
6E
330
6C
100
AcDbEntity
 67
     1
  8
0
100
AcDbBlockEnd
  0
BLOCK
  5
75
330
74
100
AcDbEntity
 67
     1
  8
0
100
AcDbBlockBegin
  2
*Paper_Space0
 70
     0
 10
0.0
 20
0.0
 30
0.0
  3
*Paper_Space0
  1

  0
ENDBLK
  5
76
330
74
100
AcDbEntity
 67
     1
  8
0
100
AcDbBlockEnd
  0
ENDSEC
  0
SECTION
  2
ENTITIES
  0
LINE
  5
24B
330
70
100
AcDbEntity
  8
Visible
100
AcDbLine
 10
4.017222
 20
10.148678
 30
0.0
 11
4.017222
 21
13.898678
 31
0.0
210
0.0
220
1.0
230
0.0
  0
LINE
  5
24C
330
70
100
AcDbEntity
  8
Visible
100
AcDbLine
 10
2.967221
 20
10.148678
 30
0.0
 11
4.017222
 21
10.148678
 31
0.0
210
0.0
220
1.0
230
0.0
  0
LINE
  5
24D
330
70
100
AcDbEntity
  8
Visible
100
AcDbLine
 10
2.967222
 20
13.898678
 30
0.0
 11
2.967221
 21
10.148678
 31
0.0
210
0.0
220
1.0
230
0.0
  0
LINE
  5
24E
330
70
100
AcDbEntity
  8
Visible
100
AcDbLine
 10
4.017222
 20
13.898678
 30
0.0
 11
2.967222
 21
13.898678
 31
0.0
210
0.0
220
1.0
230
0.0
  0
CIRCLE
  5
24F
330
70
100
AcDbEntity
  8
Visible
100
AcDbCircle
 10
-12.666864
 20
11.20083
 30
0.0
 40
0.2329999999999993
210
0.0000000000000001
220
0.0
230
-1.0
  0
CIRCLE
  5
250
330
70
100
AcDbEntity
  8
Visible
100
AcDbCircle
 10
-14.241931
 20
12.801371
 30
0.0
 40
0.2329999999999993
210
0.0000000000000001
220
0.0
230
-1.0
  0
CIRCLE
  5
251
330
70
100
AcDbEntity
  8
Visible
100
AcDbCircle
 10
-11.845264
 20
12.801371
 30
0.0
 40
0.2329999999999993
210
0.0000000000000001
220
0.0
230
-1.0
  0
CIRCLE
  5
252
330
70
100
AcDbEntity
  8
Visible
100
AcDbCircle
 10
-11.046375
 20
12.801371
 30
0.0
 40
0.2329999999999993
210
0.0000000000000001
220
0.0
230
-1.0
  0
CIRCLE
  5
253
330
70
100
AcDbEntity
  8
Visible
100
AcDbCircle
 10
-9.448597
 20
12.801371
 30
0.0
 40
0.2329999999999993
210
0.0000000000000001
220
0.0
230
-1.0
  0
CIRCLE
  5
254
330
70
100
AcDbEntity
  8
Visible
100
AcDbCircle
 10
-13.436332
 20
10.463914
 30
0.0
 40
0.0850000000000005
210
0.0000000000000001
220
0.0
230
-1.0
  0
CIRCLE
  5
255
330
70
100
AcDbEntity
  8
Visible
100
AcDbCircle
 10
-7.850819
 20
12.801371
 30
0.0
 40
0.2329999999999993
210
0.0000000000000001
220
0.0
230
-1.0
  0
CIRCLE
  5
256
330
70
100
AcDbEntity
  8
Visible
100
AcDbCircle
 10
-17.126332
 20
10.463914
 30
0.0
 40
0.0850000000000005
210
0.0000000000000001
220
0.0
230
-1.0
  0
CIRCLE
  5
257
330
70
100
AcDbEntity
  8
Visible
100
AcDbCircle
 10
-8.649708
 20
12.801371
 30
0.0
 40
0.2329999999999993
210
0.0000000000000001
220
0.0
230
-1.0
  0
LINE
  5
258
330
70
100
AcDbEntity
  8
Visible
100
AcDbLine
 10
4.938404
 20
11.613992
 30
0.0
 11
4.670577
 21
11.768622
 31
0.0
210
0.0
220
1.0
230
0.0
  0
ARC
  5
259
330
70
100
AcDbEntity
  8
Visible
100
AcDbCircle
 10
4.974552
 20
11.985861
 30
0.0
 40
0.3736220472440956
100
AcDbArc
 50
84.448009
 51
215.551991
  0
LINE
  5
25A
330
70
100
AcDbEntity
  8
Visible
100
AcDbLine
 10
5.010699
 20
12.357731
 30
0.0
 11
5.278526
 21
12.203101
 31
0.0
210
0.0
220
1.0
230
0.0
  0
ARC
  5
25B
330
70
100
AcDbEntity
  8
Visible
100
AcDbCircle
 10
4.974552
 20
11.985861
 30
0.0
 40
0.3736220472440956
100
AcDbArc
 50
264.448009
 51
35.551991
  0
CIRCLE
  5
25C
330
70
100
AcDbEntity
  8
Visible
100
AcDbCircle
 10
-15.040819
 20
12.801371
 30
0.0
 40
0.2329999999999993
210
0.0000000000000001
220
0.0
230
-1.0
  0
CIRCLE
  5
25D
330
70
100
AcDbEntity
  8
Visible
100
AcDbCircle
 10
-10.247486
 20
12.801371
 30
0.0
 40
0.2329999999999993
210
0.0000000000000001
220
0.0
230
-1.0
  0
CIRCLE
  5
25E
330
70
100
AcDbEntity
  8
Visible
100
AcDbCircle
 10
-4.370136
 20
13.502667
 30
0.0
 40
0.0849999999999991
210
0.0000000000000001
220
0.0
230
-1.0
  0
CIRCLE
  5
25F
330
70
100
AcDbEntity
  8
Visible
100
AcDbCircle
 10
-5.910136
 20
13.502667
 30
0.0
 40
0.0849999999999991
210
0.0000000000000001
220
0.0
230
-1.0
  0
CIRCLE
  5
260
330
70
100
AcDbEntity
  8
Visible
100
AcDbCircle
 10
-4.370136
 20
10.462667
 30
0.0
 40
0.0849999999999991
210
0.0000000000000001
220
0.0
230
-1.0
  0
CIRCLE
  5
261
330
70
100
AcDbEntity
  8
Visible
100
AcDbCircle
 10
-17.126332
 20
13.503914
 30
0.0
 40
0.0850000000000005
210
0.0000000000000001
220
0.0
230
-1.0
  0
CIRCLE
  5
262
330
70
100
AcDbEntity
  8
Visible
100
AcDbCircle
 10
-12.644153
 20
12.801371
 30
0.0
 40
0.2329999999999993
210
0.0000000000000001
220
0.0
230
-1.0
  0
CIRCLE
  5
263
330
70
100
AcDbEntity
  8
Visible
100
AcDbCircle
 10
-5.910136
 20
10.462667
 30
0.0
 40
0.0849999999999991
210
0.0000000000000001
220
0.0
230
-1.0
  0
LINE
  5
264
330
70
100
AcDbEntity
  8
Visible
100
AcDbLine
 10
13.875113
 20
12.702763
 30
0.0
 11
13.875113
 21
11.282763
 31
0.0
210
0.0
220
1.0
230
0.0
  0
LINE
  5
265
330
70
100
AcDbEntity
  8
Visible
100
AcDbLine
 10
13.875113
 20
11.282763
 30
0.0
 11
13.046373
 21
11.282763
 31
0.0
210
0.0
220
1.0
230
0.0
  0
LINE
  5
266
330
70
100
AcDbEntity
  8
Visible
100
AcDbLine
 10
13.046373
 20
11.282763
 30
0.0
 11
13.046373
 21
12.702763
 31
0.0
210
0.0
220
1.0
230
0.0
  0
LINE
  5
267
330
70
100
AcDbEntity
  8
Visible
100
AcDbLine
 10
13.046373
 20
12.702763
 30
0.0
 11
13.875113
 21
12.702763
 31
0.0
210
0.0
220
1.0
230
0.0
  0
CIRCLE
  5
268
330
70
100
AcDbEntity
  8
Visible
100
AcDbCircle
 10
-13.436332
 20
13.503914
 30
0.0
 40
0.0850000000000005
210
0.0000000000000001
220
0.0
230
-1.0
  0
LINE
  5
269
330
70
100
AcDbEntity
  8
Visible
100
AcDbLine
 10
7.367692
 20
12.694363
 30
0.0
 11
7.367692
 21
11.274363
 31
0.0
210
0.0
220
1.0
230
0.0
  0
LINE
  5
26A
330
70
100
AcDbEntity
  8
Visible
100
AcDbLine
 10
7.367692
 20
11.274363
 30
0.0
 11
6.538952
 21
11.274363
 31
0.0
210
0.0
220
1.0
230
0.0
  0
LINE
  5
26B
330
70
100
AcDbEntity
  8
Visible
100
AcDbLine
 10
6.538952
 20
11.274363
 30
0.0
 11
6.538952
 21
12.694363
 31
0.0
210
0.0
220
1.0
230
0.0
  0
LINE
  5
26C
330
70
100
AcDbEntity
  8
Visible
100
AcDbLine
 10
6.538952
 20
12.694363
 30
0.0
 11
7.367692
 21
12.694363
 31
0.0
210
0.0
220
1.0
230
0.0
  0
CIRCLE
  5
26D
330
70
100
AcDbEntity
  8
Visible
100
AcDbCircle
 10
-7.866864
 20
11.20083
 30
0.0
 40
0.2329999999999993
210
0.0000000000000001
220
0.0
230
-1.0
  0
CIRCLE
  5
26E
330
70
100
AcDbEntity
  8
Visible
100
AcDbCircle
 10
-8.666864
 20
11.20083
 30
0.0
 40
0.2329999999999993
210
0.0000000000000001
220
0.0
230
-1.0
  0
CIRCLE
  5
26F
330
70
100
AcDbEntity
  8
Visible
100
AcDbCircle
 10
-9.466864
 20
11.20083
 30
0.0
 40
0.2329999999999993
210
0.0000000000000001
220
0.0
230
-1.0
  0
CIRCLE
  5
270
330
70
100
AcDbEntity
  8
Visible
100
AcDbCircle
 10
-10.266864
 20
11.20083
 30
0.0
 40
0.2329999999999993
210
0.0000000000000001
220
0.0
230
-1.0
  0
CIRCLE
  5
271
330
70
100
AcDbEntity
  8
Visible
100
AcDbCircle
 10
-11.066864
 20
11.20083
 30
0.0
 40
0.2329999999999993
210
0.0000000000000001
220
0.0
230
-1.0
  0
CIRCLE
  5
272
330
70
100
AcDbEntity
  8
Visible
100
AcDbCircle
 10
-11.866864
 20
11.20083
 30
0.0
 40
0.2329999999999993
210
0.0000000000000001
220
0.0
230
-1.0
  0
LINE
  5
273
330
70
100
AcDbEntity
  8
Visible
100
AcDbLine
 10
17.517222
 20
10.148678
 30
0.0
 11
17.517222
 21
13.898678
 31
0.0
210
0.0
220
1.0
230
0.0
  0
LINE
  5
274
330
70
100
AcDbEntity
  8
Visible
100
AcDbLine
 10
17.517222
 20
13.898678
 30
0.0
 11
4.017222
 21
13.898678
 31
0.0
210
0.0
220
1.0
230
0.0
  0
LINE
  5
275
330
70
100
AcDbEntity
  8
Visible
100
AcDbLine
 10
4.017222
 20
13.898678
 30
0.0
 11
4.017222
 21
10.148678
 31
0.0
210
0.0
220
1.0
230
0.0
  0
LINE
  5
276
330
70
100
AcDbEntity
  8
Visible
100
AcDbLine
 10
4.017222
 20
10.148678
 30
0.0
 11
17.517222
 21
10.148678
 31
0.0
210
0.0
220
1.0
230
0.0
  0
CIRCLE
  5
277
330
70
100
AcDbEntity
  8
Visible
100
AcDbCircle
 10
-37.587301
 20
12.648678
 30
0.0
 40
0.1375
210
0.0000000000000001
220
0.0
230
-1.0
  0
LINE
  5
278
330
70
100
AcDbEntity
  8
Visible
100
AcDbLine
 10
40.587301
 20
13.648678
 30
0.0
 11
34.587301
 21
13.648678
 31
0.0
210
0.0
220
1.0
230
0.0
  0
ARC
  5
279
330
70
100
AcDbEntity
  8
Visible
100
AcDbCircle
 10
40.587301
 20
13.398678
 30
0.0
 40
0.2499999999999999
100
AcDbArc
 50
0.0
 51
90.0
  0
LINE
  5
27A
330
70
100
AcDbEntity
  8
Visible
100
AcDbLine
 10
40.837301
 20
10.898678
 30
0.0
 11
40.837301
 21
13.398678
 31
0.0
210
0.0
220
1.0
230
0.0
  0
ARC
  5
27B
330
70
100
AcDbEntity
  8
Visible
100
AcDbCircle
 10
40.587301
 20
10.898678
 30
0.0
 40
0.2499999999999999
100
AcDbArc
 50
270.0
 51
0.0
  0
LINE
  5
27C
330
70
100
AcDbEntity
  8
Visible
100
AcDbLine
 10
34.587301
 20
10.648678
 30
0.0
 11
40.587301
 21
10.648678
 31
0.0
210
0.0
220
1.0
230
0.0
  0
ARC
  5
27D
330
70
100
AcDbEntity
  8
Visible
100
AcDbCircle
 10
34.587301
 20
10.898678
 30
0.0
 40
0.2499999999999999
100
AcDbArc
 50
180.0
 51
270.0
  0
LINE
  5
27E
330
70
100
AcDbEntity
  8
Visible
100
AcDbLine
 10
34.337301
 20
13.398678
 30
0.0
 11
34.337301
 21
10.898678
 31
0.0
210
0.0
220
1.0
230
0.0
  0
ARC
  5
27F
330
70
100
AcDbEntity
  8
Visible
100
AcDbCircle
 10
34.587301
 20
13.398678
 30
0.0
 40
0.25
100
AcDbArc
 50
90.0
 51
180.0
  0
CIRCLE
  5
280
330
70
100
AcDbEntity
  8
Visible
100
AcDbCircle
 10
-29.628135
 20
21.864374
 30
0.0
 40
0.0850000000000005
210
0.0000000000000001
220
0.0
230
-1.0
  0
CIRCLE
  5
281
330
70
100
AcDbEntity
  8
Visible
100
AcDbCircle
 10
-38.009109
 20
22.061741
 30
0.0
 40
0.0849999999999991
210
0.0000000000000001
220
0.0
230
-1.0
  0
CIRCLE
  5
282
330
70
100
AcDbEntity
  8
Visible
100
AcDbCircle
 10
-39.741393
 20
22.061741
 30
0.0
 40
0.0849999999999991
210
0.0000000000000001
220
0.0
230
-1.0
  0
CIRCLE
  5
283
330
70
100
AcDbEntity
  8
Visible
100
AcDbCircle
 10
-42.083487
 20
21.876645
 30
0.0
 40
0.0850000000000019
210
0.0000000000000001
220
0.0
230
-1.0
  0
CIRCLE
  5
284
330
70
100
AcDbEntity
  8
Visible
100
AcDbCircle
 10
-31.103551
 20
17.767272
 30
0.0
 40
0.0850000000000005
210
0.0000000000000001
220
0.0
230
-1.0
  0
CIRCLE
  5
285
330
70
100
AcDbEntity
  8
Visible
100
AcDbCircle
 10
-37.934012
 20
25.632896
 30
0.0
 40
0.0850000000000019
210
0.0000000000000001
220
0.0
230
-1.0
  0
CIRCLE
  5
286
330
70
100
AcDbEntity
  8
Visible
100
AcDbCircle
 10
-42.083487
 20
14.676645
 30
0.0
 40
0.0850000000000019
210
0.0000000000000001
220
0.0
230
-1.0
  0
CIRCLE
  5
287
330
70
100
AcDbEntity
  8
Visible
100
AcDbCircle
 10
-32.311208
 20
15.985709
 30
0.0
 40
0.0850000000000005
210
0.0000000000000001
220
0.0
230
-1.0
  0
CIRCLE
  5
288
330
70
100
AcDbEntity
  8
Visible
100
AcDbCircle
 10
-29.628135
 20
17.164374
 30
0.0
 40
0.0850000000000005
210
0.0000000000000001
220
0.0
230
-1.0
  0
CIRCLE
  5
289
330
70
100
AcDbEntity
  8
Visible
100
AcDbCircle
 10
-29.553298
 20
26.287001
 30
0.0
 40
0.0850000000000005
210
0.0000000000000001
220
0.0
230
-1.0
  0
LINE
  5
28A
330
70
100
AcDbEntity
  8
Visible
100
AcDbLine
 10
39.359957
 20
24.078608
 30
0.0
 11
39.359957
 21
23.064828
 31
0.0
210
0.0
220
1.0
230
0.0
  0
LINE
  5
28B
330
70
100
AcDbEntity
  8
Visible
100
AcDbLine
 10
38.43476
 20
24.078608
 30
0.0
 11
39.359957
 21
24.078608
 31
0.0
210
0.0
220
1.0
230
0.0
  0
LINE
  5
28C
330
70
100
AcDbEntity
  8
Visible
100
AcDbLine
 10
38.43476
 20
23.064828
 30
0.0
 11
38.43476
 21
24.078608
 31
0.0
210
0.0
220
1.0
230
0.0
  0
LINE
  5
28D
330
70
100
AcDbEntity
  8
Visible
100
AcDbLine
 10
39.359957
 20
23.064828
 30
0.0
 11
38.43476
 21
23.064828
 31
0.0
210
0.0
220
1.0
230
0.0
  0
CIRCLE
  5
28E
330
70
100
AcDbEntity
  8
Visible
100
AcDbCircle
 10
-33.764095
 20
26.184797
 30
0.0
 40
0.0850000000000005
210
0.0000000000000001
220
0.0
230
-1.0
  0
CIRCLE
  5
28F
330
70
100
AcDbEntity
  8
Visible
100
AcDbCircle
 10
-38.328062
 20
15.318664
 30
0.0
 40
0.0850000000000019
210
0.0000000000000001
220
0.0
230
-1.0
  0
CIRCLE
  5
290
330
70
100
AcDbEntity
  8
Visible
100
AcDbCircle
 10
-32.283504
 20
17.785436
 30
0.0
 40
0.0850000000000005
210
0.0000000000000001
220
0.0
230
-1.0
  0
CIRCLE
  5
291
330
70
100
AcDbEntity
  8
Visible
100
AcDbCircle
 10
-38.728135
 20
14.164374
 30
0.0
 40
0.0850000000000019
210
0.0000000000000001
220
0.0
230
-1.0
  0
CIRCLE
  5
292
330
70
100
AcDbEntity
  8
Visible
100
AcDbCircle
 10
-32.078135
 20
14.164374
 30
0.0
 40
0.0850000000000005
210
0.0000000000000001
220
0.0
230
-1.0
  0
CIRCLE
  5
293
330
70
100
AcDbEntity
  8
Visible
100
AcDbCircle
 10
-41.308062
 20
15.318664
 30
0.0
 40
0.0850000000000019
210
0.0000000000000001
220
0.0
230
-1.0
  0
CIRCLE
  5
294
330
70
100
AcDbEntity
  8
Visible
100
AcDbCircle
 10
-35.428135
 20
14.164374
 30
0.0
 40
0.0850000000000019
210
0.0000000000000001
220
0.0
230
-1.0
  0
LINE
  5
295
330
70
100
AcDbEntity
  8
Visible
100
AcDbLine
 10
38.16659
 20
21.613907
 30
0.0
 11
38.16659
 21
22.509576
 31
0.0
210
0.0
220
1.0
230
0.0
  0
LINE
  5
296
330
70
100
AcDbEntity
  8
Visible
100
AcDbLine
 10
39.583912
 20
21.613907
 30
0.0
 11
38.16659
 21
21.613907
 31
0.0
210
0.0
220
1.0
230
0.0
  0
LINE
  5
297
330
70
100
AcDbEntity
  8
Visible
100
AcDbLine
 10
39.583912
 20
22.509576
 30
0.0
 11
39.583912
 21
21.613907
 31
0.0
210
0.0
220
1.0
230
0.0
  0
LINE
  5
298
330
70
100
AcDbEntity
  8
Visible
100
AcDbLine
 10
38.16659
 20
22.509576
 30
0.0
 11
39.583912
 21
22.509576
 31
0.0
210
0.0
220
1.0
230
0.0
  0
LINE
  5
299
330
70
100
AcDbEntity
  8
Visible
100
AcDbLine
 10
29.126278
 20
16.876491
 30
0.0
 11
30.95738
 21
16.876491
 31
0.0
210
0.0
220
1.0
230
0.0
  0
LINE
  5
29A
330
70
100
AcDbEntity
  8
Visible
100
AcDbLine
 10
29.126278
 20
26.684111
 30
0.0
 11
29.126278
 21
16.876491
 31
0.0
210
0.0
220
1.0
230
0.0
  0
LINE
  5
29B
330
70
100
AcDbEntity
  8
Visible
100
AcDbLine
 10
29.462129
 20
26.684111
 30
0.0
 11
29.126278
 21
26.684111
 31
0.0
210
0.0
220
1.0
230
0.0
  0
SPLINE
  5
29C
330
70
100
AcDbEntity
  8
Visible
100
AcDbSpline
210
0.0
220
0.0
230
1.0
 70
    12
 71
     5
 72
    16
 73
    10
 74
     0
 42
0.000000001
 43
0.0000000001
 40
0.0
 40
0.0
 40
0.0
 40
0.0
 40
0.0
 40
0.0
 40
0.2
 40
0.4
 40
0.6000000000000001
 40
0.8
 40
1.0
 40
1.0
 40
1.0
 40
1.0
 40
1.0
 40
1.0
 10
42.33730043243122
 20
21.75115660916384
 30
-0.000000000001819
 41
1.0
 10
42.33730042184652
 20
21.91224797641263
 30
-0.000000000001819
 41
1.0
 10
42.2937636912502
 20
22.27558182840038
 30
-0.000000000001819
 41
1.0
 10
42.09786435341448
 20
22.9438958024575
 30
-0.000000000001819
 41
1.0
 10
41.52356456110829
 20
24.02240024604211
 30
-0.000000000001819
 41
1.0
 10
39.83597873032159
 20
25.4002232804221
 30
-0.000000000001819
 41
1.0
 10
37.09472042892412
 20
26.25492711409974
 30
-0.000000000001819
 41
1.0
 10
33.82746681574827
 20
26.6060356792031
 30
-0.000000000001819
 41
1.0
 10
31.02190237415562
 20
26.6841109608455
 30
-0.000000000001819
 41
1.0
 10
29.46212864737936
 20
26.6841109608455
 30
-0.000000000001819
 41
1.0
  0
LINE
  5
29D
330
70
100
AcDbEntity
  8
Visible
100
AcDbLine
 10
42.337301
 20
19.283094
 30
0.0
 11
42.337301
 21
21.751157
 31
0.0
210
0.0
220
1.0
230
0.0
  0
ARC
  5
29E
330
70
100
AcDbEntity
  8
Visible
100
AcDbCircle
 10
-42.337301
 20
19.208094
 30
0.0
 40
0.0750000000000001
210
0.0000000000000001
220
0.0
230
-1.0
100
AcDbArc
 50
269.999719
 51
90.000277
  0
LINE
  5
29F
330
70
100
AcDbEntity
  8
Visible
100
AcDbLine
 10
42.337301
 20
13.898678
 30
0.0
 11
42.337301
 21
19.133094
 31
0.0
210
0.0
220
1.0
230
0.0
  0
LINE
  5
2A0
330
70
100
AcDbEntity
  8
Visible
100
AcDbLine
 10
31.70738
 20
13.898678
 30
0.0
 11
42.337301
 21
13.898678
 31
0.0
210
0.0
220
1.0
230
0.0
  0
LINE
  5
2A1
330
70
100
AcDbEntity
  8
Visible
100
AcDbLine
 10
31.70738
 20
15.40905
 30
0.0
 11
31.70738
 21
13.898678
 31
0.0
210
0.0
220
1.0
230
0.0
  0
ARC
  5
2A2
330
70
100
AcDbEntity
  8
Visible
100
AcDbCircle
 10
-31.70738
 20
15.53405
 30
0.0
 40
0.1249999999999996
210
0.0000000000000001
220
0.0
230
-1.0
100
AcDbArc
 50
90.0
 51
270.0
  0
LINE
  5
2A3
330
70
100
AcDbEntity
  8
Visible
100
AcDbLine
 10
31.70738
 20
16.126491
 30
0.0
 11
31.70738
 21
15.65905
 31
0.0
210
0.0
220
1.0
230
0.0
  0
ARC
  5
2A4
330
70
100
AcDbEntity
  8
Visible
100
AcDbCircle
 10
-31.70738
 20
16.876491
 30
0.0
 40
0.7500000000000004
210
0.0000000000000001
220
0.0
230
-1.0
100
AcDbArc
 50
0.0
 51
270.0
  0
CIRCLE
  5
2A5
330
70
100
AcDbEntity
  8
Visible
100
AcDbCircle
 10
-19.373386
 20
24.894247
 30
0.0
 40
0.0624999999999998
210
0.0000000000000001
220
0.0
230
-1.0
  0
CIRCLE
  5
2A6
330
70
100
AcDbEntity
  8
Visible
100
AcDbCircle
 10
-18.128135
 20
14.164374
 30
0.0
 40
0.0850000000000005
210
0.0000000000000001
220
0.0
230
-1.0
  0
ARC
  5
2A7
330
70
100
AcDbEntity
  8
Visible
100
AcDbCircle
 10
-19.373386
 20
22.419373
 30
0.0
 40
0.1250000000000003
210
0.0000000000000001
220
0.0
230
-1.0
100
AcDbArc
 50
225.0
 51
45.0
  0
LINE
  5
2A8
330
70
100
AcDbEntity
  8
Visible
100
AcDbLine
 10
19.581937
 20
22.451148
 30
0.0
 11
19.461774
 21
22.330985
 31
0.0
210
0.0
220
1.0
230
0.0
  0
ARC
  5
2A9
330
70
100
AcDbEntity
  8
Visible
100
AcDbCircle
 10
-20.610822
 20
23.65681
 30
0.0
 40
1.585
210
0.0000000000000001
220
0.0
230
-1.0
100
AcDbArc
 50
319.523292
 51
310.476708
  0
LINE
  5
2AA
330
70
100
AcDbEntity
  8
Visible
100
AcDbLine
 10
19.284997
 20
22.507761
 30
0.0
 11
19.405161
 21
22.627925
 31
0.0
210
0.0
220
1.0
230
0.0
  0
CIRCLE
  5
2AB
330
70
100
AcDbEntity
  8
Visible
100
AcDbCircle
 10
-22.428135
 20
18.214374
 30
0.0
 40
0.0850000000000008
210
0.0000000000000001
220
0.0
230
-1.0
  0
CIRCLE
  5
2AC
330
70
100
AcDbEntity
  8
Visible
100
AcDbCircle
 10
-19.691419
 20
25.805358
 30
0.0
 40
0.0850000000000005
210
0.0000000000000001
220
0.0
230
-1.0
  0
CIRCLE
  5
2AD
330
70
100
AcDbEntity
  8
Visible
100
AcDbCircle
 10
-22.191419
 20
25.805358
 30
0.0
 40
0.0850000000000005
210
0.0000000000000001
220
0.0
230
-1.0
  0
CIRCLE
  5
2AE
330
70
100
AcDbEntity
  8
Visible
100
AcDbCircle
 10
-22.428135
 20
26.364374
 30
0.0
 40
0.0850000000000008
210
0.0000000000000001
220
0.0
230
-1.0
  0
CIRCLE
  5
2AF
330
70
100
AcDbEntity
  8
Visible
100
AcDbCircle
 10
-21.848259
 20
24.894247
 30
0.0
 40
0.0625
210
0.0000000000000001
220
0.0
230
-1.0
  0
CIRCLE
  5
2B0
330
70
100
AcDbEntity
  8
Visible
100
AcDbCircle
 10
-22.428135
 20
21.864374
 30
0.0
 40
0.0850000000000008
210
0.0000000000000001
220
0.0
230
-1.0
  0
ARC
  5
2B1
330
70
100
AcDbEntity
  8
Visible
100
AcDbCircle
 10
-21.910419
 20
25.561358
 30
0.0
 40
0.1559999999995547
210
0.0000000000000001
220
0.0
230
-1.0
100
AcDbArc
 50
180.0
 51
270.0
  0
LINE
  5
2B2
330
70
100
AcDbEntity
  8
Visible
100
AcDbLine
 10
22.066419
 20
26.049358
 30
0.0
 11
22.066419
 21
25.561358
 31
0.0
210
0.0
220
1.0
230
0.0
  0
ARC
  5
2B3
330
70
100
AcDbEntity
  8
Visible
100
AcDbCircle
 10
-21.910419
 20
26.049358
 30
0.0
 40
0.1559999999999995
210
0.0000000000000001
220
0.0
230
-1.0
100
AcDbArc
 50
90.0
 51
180.0
  0
LINE
  5
2B4
330
70
100
AcDbEntity
  8
Visible
100
AcDbLine
 10
19.972419
 20
26.205358
 30
0.0
 11
21.910419
 21
26.205358
 31
0.0
210
0.0
220
1.0
230
0.0
  0
ARC
  5
2B5
330
70
100
AcDbEntity
  8
Visible
100
AcDbCircle
 10
-19.972419
 20
26.049358
 30
0.0
 40
0.1560000000010933
210
0.0000000000000001
220
0.0
230
-1.0
100
AcDbArc
 50
0.0
 51
90.0
  0
LINE
  5
2B6
330
70
100
AcDbEntity
  8
Visible
100
AcDbLine
 10
19.816419
 20
25.561358
 30
0.0
 11
19.816419
 21
26.049358
 31
0.0
210
0.0
220
1.0
230
0.0
  0
ARC
  5
2B7
330
70
100
AcDbEntity
  8
Visible
100
AcDbCircle
 10
-19.972419
 20
25.561358
 30
0.0
 40
0.1560000000030907
210
0.0000000000000001
220
0.0
230
-1.0
100
AcDbArc
 50
270.0
 51
360.0
  0
LINE
  5
2B8
330
70
100
AcDbEntity
  8
Visible
100
AcDbLine
 10
21.910419
 20
25.405358
 30
0.0
 11
19.972419
 21
25.405358
 31
0.0
210
0.0
220
1.0
230
0.0
  0
CIRCLE
  5
2B9
330
70
100
AcDbEntity
  8
Visible
100
AcDbCircle
 10
-21.848259
 20
18.669373
 30
0.0
 40
0.0625
210
0.0000000000000001
220
0.0
230
-1.0
  0
CIRCLE
  5
2BA
330
70
100
AcDbEntity
  8
Visible
100
AcDbCircle
 10
-21.848259
 20
21.144247
 30
0.0
 40
0.0625
210
0.0000000000000001
220
0.0
230
-1.0
  0
CIRCLE
  5
2BB
330
70
100
AcDbEntity
  8
Visible
100
AcDbCircle
 10
-19.373386
 20
21.144247
 30
0.0
 40
0.0624999999999998
210
0.0000000000000001
220
0.0
230
-1.0
  0
ARC
  5
2BC
330
70
100
AcDbEntity
  8
Visible
100
AcDbCircle
 10
-20.610822
 20
19.90681
 30
0.0
 40
1.585
210
0.0000000000000001
220
0.0
230
-1.0
100
AcDbArc
 50
319.523292
 51
310.476708
  0
LINE
  5
2BD
330
70
100
AcDbEntity
  8
Visible
100
AcDbLine
 10
19.284997
 20
18.757761
 30
0.0
 11
19.405161
 21
18.877925
 31
0.0
210
0.0
220
1.0
230
0.0
  0
ARC
  5
2BE
330
70
100
AcDbEntity
  8
Visible
100
AcDbCircle
 10
-19.373386
 20
18.669373
 30
0.0
 40
0.1250000000000003
210
0.0000000000000001
220
0.0
230
-1.0
100
AcDbArc
 50
225.0
 51
45.0
  0
LINE
  5
2BF
330
70
100
AcDbEntity
  8
Visible
100
AcDbLine
 10
19.581937
 20
18.701148
 30
0.0
 11
19.461774
 21
18.580985
 31
0.0
210
0.0
220
1.0
230
0.0
  0
CIRCLE
  5
2C0
330
70
100
AcDbEntity
  8
Visible
100
AcDbCircle
 10
-21.848259
 20
14.919373
 30
0.0
 40
0.0625
210
0.0000000000000001
220
0.0
230
-1.0
  0
CIRCLE
  5
2C1
330
70
100
AcDbEntity
  8
Visible
100
AcDbCircle
 10
-21.848259
 20
17.394247
 30
0.0
 40
0.0625
210
0.0000000000000001
220
0.0
230
-1.0
  0
CIRCLE
  5
2C2
330
70
100
AcDbEntity
  8
Visible
100
AcDbCircle
 10
-19.373386
 20
17.394247
 30
0.0
 40
0.0624999999999998
210
0.0000000000000001
220
0.0
230
-1.0
  0
ARC
  5
2C3
330
70
100
AcDbEntity
  8
Visible
100
AcDbCircle
 10
-20.610822
 20
16.15681
 30
0.0
 40
1.584999999999999
210
0.0000000000000001
220
0.0
230
-1.0
100
AcDbArc
 50
319.523292
 51
310.476708
  0
LINE
  5
2C4
330
70
100
AcDbEntity
  8
Visible
100
AcDbLine
 10
19.284997
 20
15.007761
 30
0.0
 11
19.405161
 21
15.127925
 31
0.0
210
0.0
220
1.0
230
0.0
  0
ARC
  5
2C5
330
70
100
AcDbEntity
  8
Visible
100
AcDbCircle
 10
-19.373386
 20
14.919373
 30
0.0
 40
0.1250000000000003
210
0.0000000000000001
220
0.0
230
-1.0
100
AcDbArc
 50
225.0
 51
45.0
  0
LINE
  5
2C6
330
70
100
AcDbEntity
  8
Visible
100
AcDbLine
 10
19.581937
 20
14.951148
 30
0.0
 11
19.461774
 21
14.830985
 31
0.0
210
0.0
220
1.0
230
0.0
  0
CIRCLE
  5
2C7
330
70
100
AcDbEntity
  8
Visible
100
AcDbCircle
 10
-17.110822
 20
16.15681
 30
0.0
 40
1.584999999999999
210
0.0000000000000001
220
0.0
230
-1.0
  0
CIRCLE
  5
2C8
330
70
100
AcDbEntity
  8
Visible
100
AcDbCircle
 10
-15.873386
 20
17.394247
 30
0.0
 40
0.0625000000000005
210
0.0000000000000001
220
0.0
230
-1.0
  0
CIRCLE
  5
2C9
330
70
100
AcDbEntity
  8
Visible
100
AcDbCircle
 10
-18.348259
 20
17.394247
 30
0.0
 40
0.0624999999999998
210
0.0000000000000001
220
0.0
230
-1.0
  0
CIRCLE
  5
2CA
330
70
100
AcDbEntity
  8
Visible
100
AcDbCircle
 10
-15.873386
 20
14.919373
 30
0.0
 40
0.0625000000000005
210
0.0000000000000001
220
0.0
230
-1.0
  0
ARC
  5
2CB
330
70
100
AcDbEntity
  8
Visible
100
AcDbCircle
 10
-14.187229
 20
15.976547
 30
0.0
 40
0.0850000000000005
210
0.0000000000000001
220
0.0
230
-1.0
100
AcDbArc
 50
89.997506
 51
270.001542
  0
ARC
  5
2CC
330
70
100
AcDbEntity
  8
Visible
100
AcDbCircle
 10
-14.187223
 20
15.976547
 30
0.0
 40
0.0850000000000005
210
0.0000000000000001
220
0.0
230
-1.0
100
AcDbArc
 50
269.997506
 51
90.001542
  0
CIRCLE
  5
2CD
330
70
100
AcDbEntity
  8
Visible
100
AcDbCircle
 10
-19.128135
 20
26.364374
 30
0.0
 40
0.0850000000000005
210
0.0000000000000001
220
0.0
230
-1.0
  0
CIRCLE
  5
2CE
330
70
100
AcDbEntity
  8
Visible
100
AcDbCircle
 10
-21.848259
 20
22.419373
 30
0.0
 40
0.0625
210
0.0000000000000001
220
0.0
230
-1.0
  0
CIRCLE
  5
2CF
330
70
100
AcDbEntity
  8
Visible
100
AcDbCircle
 10
-22.428135
 20
14.164374
 30
0.0
 40
0.0850000000000008
210
0.0000000000000001
220
0.0
230
-1.0
  0
CIRCLE
  5
2D0
330
70
100
AcDbEntity
  8
Visible
100
AcDbCircle
 10
-13.828135
 20
14.164374
 30
0.0
 40
0.0850000000000005
210
0.0000000000000001
220
0.0
230
-1.0
  0
CIRCLE
  5
2D1
330
70
100
AcDbEntity
  8
Visible
100
AcDbCircle
 10
-18.348259
 20
14.919373
 30
0.0
 40
0.0624999999999998
210
0.0000000000000001
220
0.0
230
-1.0
  0
ARC
  5
2D2
330
70
100
AcDbEntity
  8
Visible
100
AcDbCircle
 10
-14.18715
 20
17.776486
 30
0.0
 40
0.0850000000000005
210
0.0000000000000001
220
0.0
230
-1.0
100
AcDbArc
 50
90.869633
 51
270.873804
  0
ARC
  5
2D3
330
70
100
AcDbEntity
  8
Visible
100
AcDbCircle
 10
-14.187143
 20
17.776486
 30
0.0
 40
0.0850000000000005
210
0.0000000000000001
220
0.0
230
-1.0
100
AcDbArc
 50
270.869526
 51
90.873912
  0
LINE
  5
2D4
330
70
100
AcDbEntity
  8
Visible
100
AcDbLine
 10
13.597143
 20
18.218605
 30
0.0
 11
13.597143
 21
17.626491
 31
0.0
210
0.0
220
1.0
230
0.0
  0
LINE
  5
2D5
330
70
100
AcDbEntity
  8
Visible
100
AcDbLine
 10
18.813101
 20
18.20439
 30
0.0
 11
13.597143
 21
18.218605
 31
0.0
210
0.0
220
1.0
230
0.0
  0
LINE
  5
2D6
330
70
100
AcDbEntity
  8
Visible
100
AcDbLine
 10
18.813101
 20
26.684111
 30
0.0
 11
18.813101
 21
18.20439
 31
0.0
210
0.0
220
1.0
230
0.0
  0
LINE
  5
2D7
330
70
100
AcDbEntity
  8
Visible
100
AcDbLine
 10
22.826278
 20
26.684111
 30
0.0
 11
18.813101
 21
26.684111
 31
0.0
210
0.0
220
1.0
230
0.0
  0
LINE
  5
2D8
330
70
100
AcDbEntity
  8
Visible
100
AcDbLine
 10
22.826278
 20
13.898677
 30
0.0
 11
22.826278
 21
26.684111
 31
0.0
210
0.0
220
1.0
230
0.0
  0
LINE
  5
2D9
330
70
100
AcDbEntity
  8
Visible
100
AcDbLine
 10
17.517222
 20
13.898677
 30
0.0
 11
22.826278
 21
13.898677
 31
0.0
210
0.0
220
1.0
230
0.0
  0
LINE
  5
2DA
330
70
100
AcDbEntity
  8
Visible
100
AcDbLine
 10
13.597143
 20
13.898677
 30
0.0
 11
17.517222
 21
13.898677
 31
0.0
210
0.0
220
1.0
230
0.0
  0
LINE
  5
2DB
330
70
100
AcDbEntity
  8
Visible
100
AcDbLine
 10
13.597143
 20
15.40905
 30
0.0
 11
13.597143
 21
13.898677
 31
0.0
210
0.0
220
1.0
230
0.0
  0
ARC
  5
2DC
330
70
100
AcDbEntity
  8
Visible
100
AcDbCircle
 10
-13.597143
 20
15.53405
 30
0.0
 40
0.1249999999999996
210
0.0000000000000001
220
0.0
230
-1.0
100
AcDbArc
 50
90.0
 51
270.0
  0
LINE
  5
2DD
330
70
100
AcDbEntity
  8
Visible
100
AcDbLine
 10
13.597143
 20
16.126491
 30
0.0
 11
13.597143
 21
15.65905
 31
0.0
210
0.0
220
1.0
230
0.0
  0
ARC
  5
2DE
330
70
100
AcDbEntity
  8
Visible
100
AcDbCircle
 10
-13.597143
 20
16.876491
 30
0.0
 40
0.7500000000000004
210
0.0000000000000001
220
0.0
230
-1.0
100
AcDbArc
 50
90.0
 51
270.0
  0
ARC
  5
2DF
330
70
100
AcDbEntity
  8
Visible
100
AcDbCircle
 10
13.007058
 20
17.776434
 30
0.0
 40
0.0850000000000005
100
AcDbArc
 50
90.875084
 51
270.870772
  0
ARC
  5
2E0
330
70
100
AcDbEntity
  8
Visible
100
AcDbCircle
 10
13.007137
 20
15.976495
 30
0.0
 40
0.0850000000000005
100
AcDbArc
 50
90.917341
 51
270.913276
  0
ARC
  5
2E1
330
70
100
AcDbEntity
  8
Visible
100
AcDbCircle
 10
13.597143
 20
16.876491
 30
0.0
 40
0.7500000000000004
100
AcDbArc
 50
90.0
 51
270.0
  0
LINE
  5
2E2
330
70
100
AcDbEntity
  8
Visible
100
AcDbLine
 10
13.597143
 20
16.126491
 30
0.0
 11
13.597143
 21
15.65905
 31
0.0
210
0.0
220
1.0
230
0.0
  0
ARC
  5
2E3
330
70
100
AcDbEntity
  8
Visible
100
AcDbCircle
 10
13.597143
 20
15.53405
 30
0.0
 40
0.1249999999999996
100
AcDbArc
 50
90.0
 51
270.0
  0
LINE
  5
2E4
330
70
100
AcDbEntity
  8
Visible
100
AcDbLine
 10
13.597143
 20
15.40905
 30
0.0
 11
13.597143
 21
13.898677
 31
0.0
210
0.0
220
1.0
230
0.0
  0
LINE
  5
2E5
330
70
100
AcDbEntity
  8
Visible
100
AcDbLine
 10
13.597143
 20
13.898677
 30
0.0
 11
2.967222
 21
13.898678
 31
0.0
210
0.0
220
1.0
230
0.0
  0
LINE
  5
2E6
330
70
100
AcDbEntity
  8
Visible
100
AcDbLine
 10
2.967222
 20
13.898678
 30
0.0
 11
2.967222
 21
18.798563
 31
0.0
210
0.0
220
1.0
230
0.0
  0
ARC
  5
2E7
330
70
100
AcDbEntity
  8
Visible
100
AcDbCircle
 10
2.867229
 20
18.797339
 30
0.0
 40
0.0999999980201487
100
AcDbArc
 50
0.701393
 51
76.318264
  0
CIRCLE
  5
2E8
330
70
100
AcDbEntity
  8
Visible
100
AcDbCircle
 10
3.951027
 20
15.854333
 30
0.0
 40
0.0849999999999991
  0
CIRCLE
  5
2E9
330
70
100
AcDbEntity
  8
Visible
100
AcDbCircle
 10
6.371449
 20
15.854333
 30
0.0
 40
0.0849999999999991
  0
CIRCLE
  5
2EA
330
70
100
AcDbEntity
  8
Visible
100
AcDbCircle
 10
9.984516
 20
15.351372
 30
0.0
 40
0.2374999999999996
  0
CIRCLE
  5
2EB
330
70
100
AcDbEntity
  8
Visible
100
AcDbCircle
 10
7.943029
 20
16.719117
 30
0.0
 40
0.0624999999999991
  0
CIRCLE
  5
2EC
330
70
100
AcDbEntity
  8
Visible
100
AcDbCircle
 10
6.371449
 20
14.844333
 30
0.0
 40
0.0849999999999991
  0
CIRCLE
  5
2ED
330
70
100
AcDbEntity
  8
Visible
100
AcDbCircle
 10
5.959516
 20
15.351372
 30
0.0
 40
0.237500000000001
  0
CIRCLE
  5
2EE
330
70
100
AcDbEntity
  8
Visible
100
AcDbCircle
 10
5.154516
 20
15.351372
 30
0.0
 40
0.237500000000001
  0
CIRCLE
  5
2EF
330
70
100
AcDbEntity
  8
Visible
100
AcDbCircle
 10
6.086873
 20
16.719117
 30
0.0
 40
0.0624999999999991
  0
CIRCLE
  5
2F0
330
70
100
AcDbEntity
  8
Visible
100
AcDbCircle
 10
3.951027
 20
14.844333
 30
0.0
 40
0.0849999999999991
  0
CIRCLE
  5
2F1
330
70
100
AcDbEntity
  8
Visible
100
AcDbCircle
 10
6.764516
 20
15.351372
 30
0.0
 40
0.237500000000001
  0
CIRCLE
  5
2F2
330
70
100
AcDbEntity
  8
Visible
100
AcDbCircle
 10
5.443029
 20
16.719117
 30
0.0
 40
0.0624999999999991
  0
CIRCLE
  5
2F3
330
70
100
AcDbEntity
  8
Visible
100
AcDbCircle
 10
3.810466
 20
23.314015
 30
0.0
 40
0.0850000000000019
  0
CIRCLE
  5
2F4
330
70
100
AcDbEntity
  8
Visible
100
AcDbCircle
 10
8.228135
 20
14.164374
 30
0.0
 40
0.0850000000000019
  0
CIRCLE
  5
2F5
330
70
100
AcDbEntity
  8
Visible
100
AcDbCircle
 10
9.179516
 20
15.351372
 30
0.0
 40
0.237500000000001
  0
CIRCLE
  5
2F6
330
70
100
AcDbEntity
  8
Visible
100
AcDbCircle
 10
4.349516
 20
15.351372
 30
0.0
 40
0.237500000000001
  0
CIRCLE
  5
2F7
330
70
100
AcDbEntity
  8
Visible
100
AcDbCircle
 10
5.443029
 20
21.400272
 30
0.0
 40
0.0624999999999991
  0
CIRCLE
  5
2F8
330
70
100
AcDbEntity
  8
Visible
100
AcDbCircle
 10
3.586873
 20
18.575272
 30
0.0
 40
0.0624999999999991
  0
CIRCLE
  5
2F9
330
70
100
AcDbEntity
  8
Visible
100
AcDbCircle
 10
3.213683
 20
14.769919
 30
0.0
 40
0.0850000000000019
  0
CIRCLE
  5
2FA
330
70
100
AcDbEntity
  8
Visible
100
AcDbCircle
 10
8.374516
 20
15.351372
 30
0.0
 40
0.237500000000001
  0
CIRCLE
  5
2FB
330
70
100
AcDbEntity
  8
Visible
100
AcDbCircle
 10
7.943029
 20
18.575272
 30
0.0
 40
0.0624999999999991
  0
CIRCLE
  5
2FC
330
70
100
AcDbEntity
  8
Visible
100
AcDbCircle
 10
6.086873
 20
18.575272
 30
0.0
 40
0.0624999999999991
  0
CIRCLE
  5
2FD
330
70
100
AcDbEntity
  8
Visible
100
AcDbCircle
 10
9.591449
 20
15.854333
 30
0.0
 40
0.0849999999999991
  0
CIRCLE
  5
2FE
330
70
100
AcDbEntity
  8
Visible
100
AcDbCircle
 10
3.586873
 20
16.719117
 30
0.0
 40
0.0624999999999991
  0
CIRCLE
  5
2FF
330
70
100
AcDbEntity
  8
Visible
100
AcDbCircle
 10
7.014951
 20
20.472195
 30
0.0
 40
1.125
  0
CIRCLE
  5
300
330
70
100
AcDbEntity
  8
Visible
100
AcDbCircle
 10
5.443029
 20
18.575272
 30
0.0
 40
0.0624999999999991
  0
CIRCLE
  5
301
330
70
100
AcDbEntity
  8
Visible
100
AcDbCircle
 10
3.586873
 20
21.400272
 30
0.0
 40
0.0624999999999991
  0
CIRCLE
  5
302
330
70
100
AcDbEntity
  8
Visible
100
AcDbCircle
 10
7.569516
 20
15.351372
 30
0.0
 40
0.237500000000001
  0
CIRCLE
  5
303
330
70
100
AcDbEntity
  8
Visible
100
AcDbCircle
 10
8.100871
 20
25.852498
 30
0.0
 40
0.0850000000000019
  0
CIRCLE
  5
304
330
70
100
AcDbEntity
  8
Visible
100
AcDbCircle
 10
6.086873
 20
22.369117
 30
0.0
 40
0.0624999999999991
  0
CIRCLE
  5
305
330
70
100
AcDbEntity
  8
Visible
100
AcDbCircle
 10
10.789516
 20
15.351372
 30
0.0
 40
0.2374999999999996
  0
CIRCLE
  5
306
330
70
100
AcDbEntity
  8
Visible
100
AcDbCircle
 10
3.586873
 20
19.544117
 30
0.0
 40
0.0624999999999991
  0
CIRCLE
  5
307
330
70
100
AcDbEntity
  8
Visible
100
AcDbCircle
 10
7.014951
 20
23.297195
 30
0.0
 40
1.125
  0
CIRCLE
  5
308
330
70
100
AcDbEntity
  8
Visible
100
AcDbCircle
 10
11.594516
 20
15.351372
 30
0.0
 40
0.2374999999999996
  0
CIRCLE
  5
309
330
70
100
AcDbEntity
  8
Visible
100
AcDbCircle
 10
12.011027
 20
14.844333
 30
0.0
 40
0.0850000000000005
  0
CIRCLE
  5
30A
330
70
100
AcDbEntity
  8
Visible
100
AcDbCircle
 10
13.278135
 20
14.164374
 30
0.0
 40
0.0850000000000005
  0
CIRCLE
  5
30B
330
70
100
AcDbEntity
  8
Visible
100
AcDbCircle
 10
12.011027
 20
15.854333
 30
0.0
 40
0.0850000000000005
  0
CIRCLE
  5
30C
330
70
100
AcDbEntity
  8
Visible
100
AcDbCircle
 10
6.086873
 20
19.544117
 30
0.0
 40
0.0624999999999991
  0
CIRCLE
  5
30D
330
70
100
AcDbEntity
  8
Visible
100
AcDbCircle
 10
5.443029
 20
19.544117
 30
0.0
 40
0.0624999999999991
  0
CIRCLE
  5
30E
330
70
100
AcDbEntity
  8
Visible
100
AcDbCircle
 10
4.514951
 20
20.472195
 30
0.0
 40
1.125
  0
CIRCLE
  5
30F
330
70
100
AcDbEntity
  8
Visible
100
AcDbCircle
 10
9.591449
 20
14.844333
 30
0.0
 40
0.0849999999999991
  0
CIRCLE
  5
310
330
70
100
AcDbEntity
  8
Visible
100
AcDbCircle
 10
7.943029
 20
21.400272
 30
0.0
 40
0.0624999999999991
  0
CIRCLE
  5
311
330
70
100
AcDbEntity
  8
Visible
100
AcDbCircle
 10
7.943029
 20
19.544117
 30
0.0
 40
0.0624999999999991
  0
CIRCLE
  5
312
330
70
100
AcDbEntity
  8
Visible
100
AcDbCircle
 10
2.967222
 20
19.208094
 30
0.0
 40
0.0750000000000001
  0
CIRCLE
  5
313
330
70
100
AcDbEntity
  8
Visible
100
AcDbCircle
 10
7.943029
 20
24.225272
 30
0.0
 40
0.0624999999999991
  0
CIRCLE
  5
314
330
70
100
AcDbEntity
  8
Visible
100
AcDbCircle
 10
7.943029
 20
22.369117
 30
0.0
 40
0.0624999999999991
  0
CIRCLE
  5
315
330
70
100
AcDbEntity
  8
Visible
100
AcDbCircle
 10
6.086873
 20
21.400272
 30
0.0
 40
0.0624999999999991
  0
CIRCLE
  5
316
330
70
100
AcDbEntity
  8
Visible
100
AcDbCircle
 10
7.014951
 20
17.647195
 30
0.0
 40
1.125
  0
CIRCLE
  5
317
330
70
100
AcDbEntity
  8
Visible
100
AcDbCircle
 10
6.086873
 20
24.225272
 30
0.0
 40
0.0624999999999991
  0
ARC
  5
318
330
70
100
AcDbEntity
  8
Visible
100
AcDbCircle
 10
13.007051
 20
17.776434
 30
0.0
 40
0.0850000000000005
100
AcDbArc
 50
270.875051
 51
90.870805
  0
ARC
  5
319
330
70
100
AcDbEntity
  8
Visible
100
AcDbCircle
 10
13.007131
 20
15.976495
 30
0.0
 40
0.0850000000000005
100
AcDbArc
 50
270.917356
 51
90.913261
  0
CIRCLE
  5
31A
330
70
100
AcDbEntity
  8
Visible
100
AcDbCircle
 10
4.514951
 20
17.647195
 30
0.0
 40
1.125
  0
LINE
  5
31B
330
70
100
AcDbEntity
  8
Visible
100
AcDbLine
 10
13.597143
 20
18.218605
 30
0.0
 11
13.597143
 21
17.626491
 31
0.0
210
0.0
220
1.0
230
0.0
  0
ARC
  5
31C
330
70
100
AcDbEntity
  8
Visible
100
AcDbCircle
 10
-2.967222
 20
19.208094
 30
0.0
 40
0.322750981252907
210
0.0000000000000001
220
0.0
230
-1.0
100
AcDbArc
 50
283.681736
 51
76.372635
  0
ARC
  5
31D
330
70
100
AcDbEntity
  8
Visible
100
AcDbCircle
 10
2.867619
 20
19.618944
 30
0.0
 40
0.0999999526155956
100
AcDbArc
 50
283.627365
 51
354.891248
  0
LINE
  5
31E
330
70
100
AcDbEntity
  8
Visible
100
AcDbLine
 10
2.967222
 20
19.610039
 30
0.0
 11
2.967222
 21
21.751157
 31
0.0
210
0.0
220
1.0
230
0.0
  0
SPLINE
  5
31F
330
70
100
AcDbEntity
  8
Visible
100
AcDbSpline
210
0.0
220
0.0
230
1.0
 70
     8
 71
     3
 72
    14
 73
    10
 74
     0
 42
0.000000001
 43
0.0000000001
 40
0.0
 40
0.0
 40
0.0
 40
0.0
 40
1.575263945730789
 40
1.575263945730789
 40
3.897779467809113
 40
3.897779467809113
 40
6.350689490140164
 40
6.350689490140164
 40
9.542272202436613
 40
9.542272202436613
 40
9.542272202436613
 40
9.542272202436613
 10
2.967222047205723
 20
21.75115660916382
 30
-0.000000000001819
 10
2.967222060788117
 20
21.957884161097
 30
-0.000000000001819
 10
3.010238389260848
 20
22.19551942181585
 30
-0.000000000001819
 10
3.190800453608972
 20
22.7883818612418
 30
-0.000000000001819
 10
3.409027388250251
 20
23.29644824572616
 30
-0.000000000001819
 10
4.295320051118324
 20
24.36915490718957
 30
-0.000000000001819
 10
4.870252015518417
 20
24.79286984002396
 30
-0.000000000001819
 10
6.326390867054215
 20
25.56007412303451
 30
-0.000000000001819
 10
7.301140061868863
 20
25.87026079842477
 30
-0.000000000001819
 10
8.381186002347021
 20
26.09747211103295
 30
-0.000000000001819
  0
LINE
  5
320
330
70
100
AcDbEntity
  8
Visible
100
AcDbLine
 10
8.381186
 20
26.097472
 30
0.0
 11
8.381186
 21
18.23282
 31
0.0
210
0.0
220
1.0
230
0.0
  0
LINE
  5
321
330
70
100
AcDbEntity
  8
Visible
100
AcDbLine
 10
8.381186
 20
18.23282
 30
0.0
 11
13.597143
 21
18.218605
 31
0.0
210
0.0
220
1.0
230
0.0
  0
ARC
  5
322
330
70
100
AcDbEntity
  8
Visible
100
AcDbCircle
 10
34.587301
 20
13.398678
 30
0.0
 40
0.2499999999999964
100
AcDbArc
 50
90.0
 51
180.000002
  0
LINE
  5
323
330
70
100
AcDbEntity
  8
Visible
100
AcDbLine
 10
34.337301
 20
13.398678
 30
0.0
 11
34.337301
 21
10.898678
 31
0.0
210
0.0
220
1.0
230
0.0
  0
ARC
  5
324
330
70
100
AcDbEntity
  8
Visible
100
AcDbCircle
 10
34.587301
 20
10.898678
 30
0.0
 40
0.2500000000032275
100
AcDbArc
 50
180.000002
 51
270.0
  0
LINE
  5
325
330
70
100
AcDbEntity
  8
Visible
100
AcDbLine
 10
34.587301
 20
10.648678
 30
0.0
 11
40.587301
 21
10.648678
 31
0.0
210
0.0
220
1.0
230
0.0
  0
LINE
  5
326
330
70
100
AcDbEntity
  8
Visible
100
AcDbLine
 10
29.403697
 20
12.749293
 30
0.0
 11
28.751952
 21
12.749293
 31
0.0
210
0.0
220
1.0
230
0.0
  0
LINE
  5
327
330
70
100
AcDbEntity
  8
Visible
100
AcDbLine
 10
28.751952
 20
12.749293
 30
0.0
 11
28.751952
 21
11.21386
 31
0.0
210
0.0
220
1.0
230
0.0
  0
LINE
  5
328
330
70
100
AcDbEntity
  8
Visible
100
AcDbLine
 10
28.751952
 20
11.21386
 30
0.0
 11
29.5848
 21
11.21386
 31
0.0
210
0.0
220
1.0
230
0.0
  0
LINE
  5
329
330
70
100
AcDbEntity
  8
Visible
100
AcDbLine
 10
29.5848
 20
11.21386
 30
0.0
 11
29.5848
 21
11.065132
 31
0.0
210
0.0
220
1.0
230
0.0
  0
LINE
  5
32A
330
70
100
AcDbEntity
  8
Visible
100
AcDbLine
 10
29.5848
 20
11.065132
 30
0.0
 11
29.886178
 21
11.065132
 31
0.0
210
0.0
220
1.0
230
0.0
  0
LINE
  5
32B
330
70
100
AcDbEntity
  8
Visible
100
AcDbLine
 10
29.886178
 20
11.065132
 30
0.0
 11
29.886178
 21
11.30958
 31
0.0
210
0.0
220
1.0
230
0.0
  0
LINE
  5
32C
330
70
100
AcDbEntity
  8
Visible
100
AcDbLine
 10
18.404847
 20
10.148678
 30
0.0
 11
17.517222
 21
10.148678
 31
0.0
210
0.0
220
1.0
230
0.0
  0
LINE
  5
32D
330
70
100
AcDbEntity
  8
Visible
100
AcDbLine
 10
17.517222
 20
10.148678
 30
0.0
 11
17.517222
 21
13.898677
 31
0.0
210
0.0
220
1.0
230
0.0
  0
LINE
  5
32E
330
70
100
AcDbEntity
  8
Visible
100
AcDbLine
 10
17.517222
 20
13.898677
 30
0.0
 11
22.826278
 21
13.898677
 31
0.0
210
0.0
220
1.0
230
0.0
  0
LINE
  5
32F
330
70
100
AcDbEntity
  8
Visible
100
AcDbLine
 10
22.826278
 20
13.898677
 30
0.0
 11
42.337301
 21
13.898678
 31
0.0
210
0.0
220
1.0
230
0.0
  0
CIRCLE
  5
330
330
70
100
AcDbEntity
  8
Visible
100
AcDbCircle
 10
42.022301
 20
13.503678
 30
0.0
 40
0.0849999999999991
  0
CIRCLE
  5
331
330
70
100
AcDbEntity
  8
Visible
100
AcDbCircle
 10
33.310905
 20
12.956229
 30
0.0
 40
0.1000000000000005
  0
CIRCLE
  5
332
330
70
100
AcDbEntity
  8
Visible
100
AcDbCircle
 10
17.854586
 20
10.463678
 30
0.0
 40
0.0850000000000005
  0
CIRCLE
  5
333
330
70
100
AcDbEntity
  8
Visible
100
AcDbCircle
 10
28.750343
 20
10.929875
 30
0.0
 40
0.0750000000000001
  0
CIRCLE
  5
334
330
70
100
AcDbEntity
  8
Visible
100
AcDbCircle
 10
30.200343
 20
10.929875
 30
0.0
 40
0.0750000000000001
  0
CIRCLE
  5
335
330
70
100
AcDbEntity
  8
Visible
100
AcDbCircle
 10
30.200343
 20
12.929875
 30
0.0
 40
0.0750000000000001
  0
CIRCLE
  5
336
330
70
100
AcDbEntity
  8
Visible
100
AcDbCircle
 10
17.854587
 20
13.503678
 30
0.0
 40
0.0850000000000005
  0
CIRCLE
  5
337
330
70
100
AcDbEntity
  8
Visible
100
AcDbCircle
 10
33.310905
 20
11.510204
 30
0.0
 40
0.1000000000000005
  0
ARC
  5
338
330
70
100
AcDbEntity
  8
Visible
100
AcDbCircle
 10
40.587301
 20
10.898678
 30
0.0
 40
0.2500000000005447
100
AcDbArc
 50
270.0
 51
0.0
  0
LINE
  5
339
330
70
100
AcDbEntity
  8
Visible
100
AcDbLine
 10
40.837301
 20
10.898678
 30
0.0
 11
40.837301
 21
13.398678
 31
0.0
210
0.0
220
1.0
230
0.0
  0
ARC
  5
33A
330
70
100
AcDbEntity
  8
Visible
100
AcDbCircle
 10
40.587301
 20
13.398678
 30
0.0
 40
0.2499999999999936
100
AcDbArc
 50
0.0
 51
90.0
  0
LINE
  5
33B
330
70
100
AcDbEntity
  8
Visible
100
AcDbLine
 10
40.587301
 20
13.648678
 30
0.0
 11
34.587301
 21
13.648678
 31
0.0
210
0.0
220
1.0
230
0.0
  0
CIRCLE
  5
33C
330
70
100
AcDbEntity
  8
Visible
100
AcDbCircle
 10
42.022301
 20
10.463678
 30
0.0
 40
0.0849999999999991
  0
LINE
  5
33D
330
70
100
AcDbEntity
  8
Visible
100
AcDbLine
 10
29.886178
 20
11.30958
 30
0.0
 11
30.161768
 21
11.30958
 31
0.0
210
0.0
220
1.0
230
0.0
  0
LINE
  5
33E
330
70
100
AcDbEntity
  8
Visible
100
AcDbLine
 10
30.161768
 20
11.30958
 30
0.0
 11
30.161768
 21
12.648163
 31
0.0
210
0.0
220
1.0
230
0.0
  0
LINE
  5
33F
330
70
100
AcDbEntity
  8
Visible
100
AcDbLine
 10
30.161768
 20
12.648163
 30
0.0
 11
29.886178
 21
12.648163
 31
0.0
210
0.0
220
1.0
230
0.0
  0
LINE
  5
340
330
70
100
AcDbEntity
  8
Visible
100
AcDbLine
 10
29.886178
 20
12.648163
 30
0.0
 11
29.886178
 21
12.892612
 31
0.0
210
0.0
220
1.0
230
0.0
  0
LINE
  5
341
330
70
100
AcDbEntity
  8
Visible
100
AcDbLine
 10
29.886178
 20
12.892612
 30
0.0
 11
29.403697
 21
12.892612
 31
0.0
210
0.0
220
1.0
230
0.0
  0
LINE
  5
342
330
70
100
AcDbEntity
  8
Visible
100
AcDbLine
 10
29.403697
 20
12.892612
 30
0.0
 11
29.403697
 21
12.749293
 31
0.0
210
0.0
220
1.0
230
0.0
  0
CIRCLE
  5
343
330
70
100
AcDbEntity
  8
Visible
100
AcDbCircle
 10
28.750343
 20
12.929875
 30
0.0
 40
0.0750000000000001
  0
CIRCLE
  5
344
330
70
100
AcDbEntity
  8
Visible
100
AcDbCircle
 10
24.522093
 20
10.599128
 30
0.0
 40
0.0499999999999999
  0
CIRCLE
  5
345
330
70
100
AcDbEntity
  8
Visible
100
AcDbCircle
 10
22.647087
 20
12.389792
 30
0.0
 40
0.275
  0
CIRCLE
  5
346
330
70
100
AcDbEntity
  8
Visible
100
AcDbCircle
 10
23.088693
 20
10.599128
 30
0.0
 40
0.05
  0
CIRCLE
  5
347
330
70
100
AcDbEntity
  8
Visible
100
AcDbCircle
 10
20.367222
 20
12.361276
 30
0.0
 40
0.1574803149606301
  0
CIRCLE
  5
348
330
70
100
AcDbEntity
  8
Visible
100
AcDbCircle
 10
23.805393
 20
10.599128
 30
0.0
 40
0.1
  0
CIRCLE
  5
349
330
70
100
AcDbEntity
  8
Visible
100
AcDbCircle
 10
20.367222
 20
10.611276
 30
0.0
 40
0.1574803149606301
  0
CIRCLE
  5
34A
330
70
100
AcDbEntity
  8
Visible
100
AcDbCircle
 10
24.907735
 20
12.389792
 30
0.0
 40
0.3749999999999998
  0
LINE
  5
34B
330
70
100
AcDbEntity
  8
Visible
100
AcDbLine
 10
42.337301
 20
13.898678
 30
0.0
 11
42.337301
 21
10.148678
 31
0.0
210
0.0
220
1.0
230
0.0
  0
LINE
  5
34C
330
70
100
AcDbEntity
  8
Visible
100
AcDbLine
 10
42.337301
 20
10.148678
 30
0.0
 11
26.899676
 21
10.148678
 31
0.0
210
0.0
220
1.0
230
0.0
  0
SPLINE
  5
34D
330
70
100
AcDbEntity
  8
Visible
100
AcDbSpline
210
0.0
220
0.0
230
1.0
 70
     8
 71
     3
 72
    18
 73
    14
 74
     0
 42
0.000000001
 43
0.0000000001
 40
0.0
 40
0.0
 40
0.0
 40
0.0
 40
0.3708974551828355
 40
0.3708974551828355
 40
0.8713742534305273
 40
0.8713742534305273
 40
1.959694288308966
 40
1.959694288308966
 40
2.776332589190142
 40
2.776332589190142
 40
3.183726579976574
 40
3.183726579976574
 40
3.602467530641258
 40
3.602467530641258
 40
3.602467530641258
 40
3.602467530641258
 10
26.89967596836869
 20
10.1486778899794
 30
-0.000000000001819
 10
26.85106040661413
 20
10.15106652029503
 30
-0.000000000001819
 10
26.80382971093786
 20
10.14350837147542
 30
-0.000000000001819
 10
26.69507139786219
 20
10.10867232665193
 30
-0.000000000001819
 10
26.63353849629312
 20
10.07521821912174
 30
-0.000000000001819
 10
26.43821654039312
 20
9.943249667779365
 30
-0.000000000001819
 10
26.30285290125903
 20
9.813190201210311
 30
-0.000000000001819
 10
26.04782798888664
 20
9.601684222953842
 30
-0.000000000001819
 10
25.93418950835439
 20
9.51745597227152
 30
-0.000000000001819
 10
25.7472011810969
 20
9.426495490258348
 30
-0.000000000001819
 10
25.68302360061171
 20
9.402481372124073
 30
-0.000000000001819
 10
25.54660099198918
 20
9.369307816188527
 30
-0.000000000001819
 10
25.47705481261983
 20
9.361276315176258
 30
-0.000000000001819
 10
25.40589929316047
 20
9.361276315176258
 30
-0.000000000001819
  0
LINE
  5
34E
330
70
100
AcDbEntity
  8
Visible
100
AcDbLine
 10
25.405899
 20
9.361276
 30
0.0
 11
19.898623
 21
9.361276
 31
0.0
210
0.0
220
1.0
230
0.0
  0
SPLINE
  5
34F
330
70
100
AcDbEntity
  8
Visible
100
AcDbSpline
210
0.0
220
0.0
230
1.0
 70
     8
 71
     3
 72
    18
 73
    14
 74
     0
 42
0.000000001
 43
0.0000000001
 40
0.0
 40
0.0
 40
0.0
 40
0.0
 40
0.9176406917448218
 40
0.9176406917448218
 40
1.926750490542317
 40
1.926750490542317
 40
3.39247449567236
 40
3.39247449567236
 40
4.09301822481608
 40
4.09301822481608
 40
4.419465003944991
 40
4.419465003944991
 40
4.727908228212248
 40
4.727908228212248
 40
4.727908228212248
 40
4.727908228212248
 10
19.89862318647647
 20
9.361276315176258
 30
-0.000000000001819
 10
19.77819789884597
 20
9.361276315176258
 30
-0.000000000001819
 10
19.66553290844422
 20
9.384285994077075
 30
-0.000000000001819
 10
19.43181160771382
 20
9.480665618208346
 30
-0.000000000001819
 10
19.32075388543126
 20
9.554952902439087
 30
-0.000000000001819
 10
19.06600293608972
 20
9.754313005503391
 30
-0.000000000001819
 10
18.92814422386982
 20
9.88882808599345
 30
-0.000000000001819
 10
18.72628998552682
 20
10.04045773751598
 30
-0.000000000001819
 10
18.66089180796553
 20
10.08248529477369
 30
-0.000000000001819
 10
18.56382205436966
 20
10.12399976474866
 30
-0.000000000001819
 10
18.53186558353263
 20
10.13460578375625
 30
-0.000000000001819
 10
18.46784870864394
 20
10.14757753229432
 30
-0.000000000001819
 10
18.43655076170216
 20
10.1502355413474
 30
-0.000000000001819
 10
18.40484651126826
 20
10.1486778899794
 30
-0.000000000001819
  0
LINE
  5
350
330
70
100
AcDbEntity
  8
Visible
100
AcDbLine
 10
14.872406
 20
22.607665
 30
0.0
 11
14.684721
 21
22.413926
 31
0.0
210
0.0
220
1.0
230
0.0
  0
ARC
  5
351
330
70
100
AcDbEntity
  8
Visible
100
AcDbCircle
 10
14.727342
 20
22.372636
 30
0.0
 40
0.0593410552785933
100
AcDbArc
 50
135.909338
 51
315.909339
  0
LINE
  5
352
330
70
100
AcDbEntity
  8
Visible
100
AcDbLine
 10
14.769963
 20
22.331347
 30
0.0
 11
14.841042
 21
22.404719
 31
0.0
210
0.0
220
1.0
230
0.0
  0
LINE
  5
353
330
70
100
AcDbEntity
  8
Visible
100
AcDbLine
 10
12.3019
 20
24.941853
 30
0.0
 11
12.246025
 21
24.884175
 31
0.0
210
0.0
220
1.0
230
0.0
  0
ARC
  5
354
330
70
100
AcDbEntity
  8
Visible
100
AcDbCircle
 10
12.288646
 20
24.842886
 30
0.0
 40
0.0593410552783242
100
AcDbArc
 50
135.909338
 51
315.909338
  0
LINE
  5
355
330
70
100
AcDbEntity
  8
Visible
100
AcDbLine
 10
12.331267
 20
24.801597
 30
0.0
 11
12.518952
 21
24.995335
 31
0.0
210
0.0
220
1.0
230
0.0
  0
ARC
  5
356
330
70
100
AcDbEntity
  8
Visible
100
AcDbCircle
 10
14.740092
 20
25.017821
 30
0.0
 40
0.0593410552783242
100
AcDbArc
 50
45.909338
 51
225.909338
  0
LINE
  5
357
330
70
100
AcDbEntity
  8
Visible
100
AcDbLine
 10
14.698803
 20
24.9752
 30
0.0
 11
14.892541
 21
24.787515
 31
0.0
210
0.0
220
1.0
230
0.0
  0
ARC
  5
358
330
70
100
AcDbEntity
  8
Visible
100
AcDbCircle
 10
14.933831
 20
24.830136
 30
0.0
 40
0.0593410552785933
100
AcDbArc
 50
225.909338
 51
45.909338
  0
LINE
  5
359
330
70
100
AcDbEntity
  8
Visible
100
AcDbLine
 10
16.27513
 20
18.468379
 30
0.0
 11
16.384896
 21
18.568614
 31
0.0
210
0.0
220
1.0
230
0.0
  0
ARC
  5
35A
330
70
100
AcDbEntity
  8
Visible
100
AcDbCircle
 10
-16.450441
 20
18.462177
 30
0.0
 40
0.12500000000001
210
0.0000000000000001
220
0.0
230
-1.0
100
AcDbArc
 50
58.374815
 51
103.374815
  0
ARC
  5
35B
330
70
100
AcDbEntity
  8
Visible
100
AcDbCircle
 10
17.098593
 20
20.04279
 30
0.0
 40
1.584974981466845
100
AcDbArc
 50
247.002436
 51
202.997597
  0
ARC
  5
35C
330
70
100
AcDbEntity
  8
Visible
100
AcDbCircle
 10
-15.51798
 20
19.394637
 30
0.0
 40
0.1250000000000067
210
0.0000000000000001
220
0.0
230
-1.0
100
AcDbArc
 50
166.625151
 51
211.625151
  0
ARC
  5
35D
330
70
100
AcDbEntity
  8
Visible
100
AcDbCircle
 10
13.602226
 20
20.054564
 30
0.0
 40
1.584999999999999
100
AcDbArc
 50
229.523292
 51
310.476708
  0
LINE
  5
35E
330
70
100
AcDbEntity
  8
Visible
100
AcDbLine
 10
14.631111
 20
18.848902
 30
0.0
 11
14.751275
 21
18.728739
 31
0.0
210
0.0
220
1.0
230
0.0
  0
ARC
  5
35F
330
70
100
AcDbEntity
  8
Visible
100
AcDbCircle
 10
14.839663
 20
18.817127
 30
0.0
 40
0.1249999999999996
100
AcDbArc
 50
225.0
 51
45.0
  0
LINE
  5
360
330
70
100
AcDbEntity
  8
Visible
100
AcDbLine
 10
14.928051
 20
18.905515
 30
0.0
 11
14.807888
 21
19.025679
 31
0.0
210
0.0
220
1.0
230
0.0
  0
LINE
  5
361
330
70
100
AcDbEntity
  8
Visible
100
AcDbLine
 10
11.328949
 20
18.683526
 30
0.0
 11
11.380107
 21
18.736334
 31
0.0
210
0.0
220
1.0
230
0.0
  0
ARC
  5
362
330
70
100
AcDbEntity
  8
Visible
100
AcDbCircle
 10
11.398259
 20
18.819373
 30
0.0
 40
0.0850000000000005
100
AcDbArc
 50
257.66895
 51
14.149727
  0
LINE
  5
363
330
70
100
AcDbEntity
  8
Visible
100
AcDbLine
 10
11.48068
 20
18.840152
 30
0.0
 11
11.516634
 21
18.877265
 31
0.0
210
0.0
220
1.0
230
0.0
  0
ARC
  5
364
330
70
100
AcDbEntity
  8
Visible
100
AcDbCircle
 10
11.474013
 20
18.918555
 30
0.0
 40
0.0593410552783242
100
AcDbArc
 50
315.909338
 51
135.909338
  0
ARC
  5
365
330
70
100
AcDbEntity
  8
Visible
100
AcDbCircle
 10
17.443766
 20
25.559915
 30
0.0
 40
0.1560000000000023
100
AcDbArc
 50
270.0
 51
0.0
  0
LINE
  5
366
330
70
100
AcDbEntity
  8
Visible
100
AcDbLine
 10
17.599766
 20
25.559915
 30
0.0
 11
17.599766
 21
26.047915
 31
0.0
210
0.0
220
1.0
230
0.0
  0
ARC
  5
367
330
70
100
AcDbEntity
  8
Visible
100
AcDbCircle
 10
17.443766
 20
26.047915
 30
0.0
 40
0.1560000000000023
100
AcDbArc
 50
0.0
 51
90.0
  0
LINE
  5
368
330
70
100
AcDbEntity
  8
Visible
100
AcDbLine
 10
17.443766
 20
26.203915
 30
0.0
 11
14.755766
 21
26.203915
 31
0.0
210
0.0
220
1.0
230
0.0
  0
ARC
  5
369
330
70
100
AcDbEntity
  8
Visible
100
AcDbCircle
 10
9.035317
 20
21.388804
 30
0.0
 40
0.0593410552785933
100
AcDbArc
 50
315.909338
 51
135.909338
  0
LINE
  5
36A
330
70
100
AcDbEntity
  8
Visible
100
AcDbLine
 10
8.992695
 20
21.430093
 30
0.0
 11
8.941538
 21
21.377286
 31
0.0
210
0.0
220
1.0
230
0.0
  0
ARC
  5
36B
330
70
100
AcDbEntity
  8
Visible
100
AcDbCircle
 10
8.923386
 20
21.294247
 30
0.0
 40
0.0849999999999991
100
AcDbArc
 50
77.66895
 51
194.149727
  0
LINE
  5
36C
330
70
100
AcDbEntity
  8
Visible
100
AcDbLine
 10
8.840964
 20
21.273468
 30
0.0
 11
8.805011
 21
21.236354
 31
0.0
210
0.0
220
1.0
230
0.0
  0
ARC
  5
36D
330
70
100
AcDbEntity
  8
Visible
100
AcDbCircle
 10
11.398259
 20
21.294247
 30
0.0
 40
0.0850000000000005
100
AcDbArc
 50
196.356773
 51
255.461904
  0
LINE
  5
36E
330
70
100
AcDbEntity
  8
Visible
100
AcDbLine
 10
11.376922
 20
21.211968
 30
0.0
 11
11.451527
 21
21.139695
 31
0.0
210
0.0
220
1.0
230
0.0
  0
ARC
  5
36F
330
70
100
AcDbEntity
  8
Visible
100
AcDbCircle
 10
11.492817
 20
21.182316
 30
0.0
 40
0.0593410552785893
100
AcDbArc
 50
225.909338
 51
45.909338
  0
LINE
  5
370
330
70
100
AcDbEntity
  8
Visible
100
AcDbLine
 10
11.534106
 20
21.224937
 30
0.0
 11
11.481298
 21
21.276094
 31
0.0
210
0.0
220
1.0
230
0.0
  0
ARC
  5
371
330
70
100
AcDbEntity
  8
Visible
100
AcDbCircle
 10
9.022567
 20
18.743619
 30
0.0
 40
0.0593410552783243
100
AcDbArc
 50
225.909338
 51
45.909338
  0
LINE
  5
372
330
70
100
AcDbEntity
  8
Visible
100
AcDbLine
 10
9.063856
 20
18.78624
 30
0.0
 11
9.004945
 21
18.843311
 31
0.0
210
0.0
220
1.0
230
0.0
  0
ARC
  5
373
330
70
100
AcDbEntity
  8
Visible
100
AcDbCircle
 10
8.923386
 20
18.819373
 30
0.0
 40
0.0849999999999991
100
AcDbArc
 50
16.356773
 51
75.461904
  0
LINE
  5
374
330
70
100
AcDbEntity
  8
Visible
100
AcDbLine
 10
8.944723
 20
18.901651
 30
0.0
 11
8.870118
 21
18.973925
 31
0.0
210
0.0
220
1.0
230
0.0
  0
ARC
  5
375
330
70
100
AcDbEntity
  8
Visible
100
AcDbCircle
 10
-16.450441
 20
22.112177
 30
0.0
 40
0.12500000000001
210
0.0000000000000001
220
0.0
230
-1.0
100
AcDbArc
 50
58.374815
 51
103.374815
  0
ARC
  5
376
330
70
100
AcDbEntity
  8
Visible
100
AcDbCircle
 10
17.098593
 20
23.69279
 30
0.0
 40
1.584974981466845
100
AcDbArc
 50
247.002436
 51
202.997597
  0
ARC
  5
377
330
70
100
AcDbEntity
  8
Visible
100
AcDbCircle
 10
-15.51798
 20
23.044637
 30
0.0
 40
0.1250000000000067
210
0.0000000000000001
220
0.0
230
-1.0
100
AcDbArc
 50
166.625151
 51
211.625151
  0
LINE
  5
378
330
70
100
AcDbEntity
  8
Visible
100
AcDbLine
 10
15.624417
 20
22.979092
 30
0.0
 11
15.524182
 21
22.869326
 31
0.0
210
0.0
220
1.0
230
0.0
  0
ARC
  5
379
330
70
100
AcDbEntity
  8
Visible
100
AcDbCircle
 10
12.463581
 20
22.39144
 30
0.0
 40
0.0593410552783242
100
AcDbArc
 50
225.909338
 51
45.909338
  0
LINE
  5
37A
330
70
100
AcDbEntity
  8
Visible
100
AcDbLine
 10
12.504871
 20
22.434061
 30
0.0
 11
12.311132
 21
22.621746
 31
0.0
210
0.0
220
1.0
230
0.0
  0
ARC
  5
37B
330
70
100
AcDbEntity
  8
Visible
100
AcDbCircle
 10
12.269842
 20
22.579125
 30
0.0
 40
0.0593410552785933
100
AcDbArc
 50
45.909338
 51
225.909338
  0
LINE
  5
37C
330
70
100
AcDbEntity
  8
Visible
100
AcDbLine
 10
8.381186
 20
18.23282
 30
0.0
 11
8.381186
 21
26.097472
 31
0.0
210
0.0
220
1.0
230
0.0
  0
SPLINE
  5
37D
330
70
100
AcDbEntity
  8
Visible
100
AcDbSpline
210
0.0
220
0.0
230
1.0
 70
     8
 71
     3
 72
    10
 73
     6
 74
     0
 42
0.000000001
 43
0.0000000001
 40
0.0
 40
0.0
 40
0.0
 40
0.0
 40
7.975325941506958
 40
7.975325941506958
 40
18.80209366610944
 40
18.80209366610944
 40
18.80209366610944
 40
18.80209366610944
 10
8.381186002347021
 20
26.09747211103295
 30
-0.000000000001819
 10
9.405398121929465
 20
26.31293755686068
 30
-0.000000000001819
 10
10.49525316342078
 20
26.44630739372122
 30
-0.000000000001819
 10
12.94619750472157
 20
26.64582848723725
 30
-0.000000000001819
 10
14.43236110901307
 20
26.6841109608455
 30
-0.000000000001819
 10
15.84239383225758
 20
26.6841109608455
 30
-0.000000000001819
  0
CIRCLE
  5
37E
330
70
100
AcDbEntity
  8
Visible
100
AcDbCircle
 10
18.136807
 20
25.646803
 30
0.0
 40
0.1250000000000003
  0
ARC
  5
37F
330
70
100
AcDbEntity
  8
Visible
100
AcDbCircle
 10
14.839273
 20
22.467194
 30
0.0
 40
0.0625000000000005
100
AcDbArc
 50
271.621825
 51
0.196852
  0
LINE
  5
380
330
70
100
AcDbEntity
  8
Visible
100
AcDbLine
 10
14.901773
 20
22.467408
 30
0.0
 11
14.957648
 21
22.525086
 31
0.0
210
0.0
220
1.0
230
0.0
  0
ARC
  5
381
330
70
100
AcDbEntity
  8
Visible
100
AcDbCircle
 10
14.915027
 20
22.566375
 30
0.0
 40
0.0593410552783242
100
AcDbArc
 50
315.909338
 51
135.909338
  0
CIRCLE
  5
382
330
70
100
AcDbEntity
  8
Visible
100
AcDbCircle
 10
18.136807
 20
25.916442
 30
0.0
 40
0.0590551181102364
  0
CIRCLE
  5
383
330
70
100
AcDbEntity
  8
Visible
100
AcDbCircle
 10
18.338495
 20
21.277638
 30
0.0
 40
0.0849999999999998
  0
CIRCLE
  5
384
330
70
100
AcDbEntity
  8
Visible
100
AcDbCircle
 10
13.545203
 20
26.248895
 30
0.0
 40
0.0849999999999991
  0
CIRCLE
  5
385
330
70
100
AcDbEntity
  8
Visible
100
AcDbCircle
 10
10.160822
 20
20.05681
 30
0.0
 40
1.584999999999999
  0
CIRCLE
  5
386
330
70
100
AcDbEntity
  8
Visible
100
AcDbCircle
 10
15.863621
 20
24.927638
 30
0.0
 40
0.0625000000000005
  0
ARC
  5
387
330
70
100
AcDbEntity
  8
Visible
100
AcDbCircle
 10
12.476331
 20
25.036625
 30
0.0
 40
0.0593410552785933
100
AcDbArc
 50
315.909338
 51
135.909339
  0
LINE
  5
388
330
70
100
AcDbEntity
  8
Visible
100
AcDbLine
 10
12.43371
 20
25.077914
 30
0.0
 11
12.362631
 21
25.004542
 31
0.0
210
0.0
220
1.0
230
0.0
  0
ARC
  5
389
330
70
100
AcDbEntity
  8
Visible
100
AcDbCircle
 10
12.3644
 20
24.942067
 30
0.0
 40
0.0625000000000005
100
AcDbArc
 50
91.621825
 51
180.196852
  0
CIRCLE
  5
38A
330
70
100
AcDbEntity
  8
Visible
100
AcDbCircle
 10
15.863621
 20
21.277638
 30
0.0
 40
0.0625000000000005
  0
CIRCLE
  5
38B
330
70
100
AcDbEntity
  8
Visible
100
AcDbCircle
 10
11.846246
 20
18.442676
 30
0.0
 40
0.0849999999999991
  0
LINE
  5
38C
330
70
100
AcDbEntity
  8
Visible
100
AcDbLine
 10
14.97512
 20
24.872758
 30
0.0
 11
14.901748
 21
24.943836
 31
0.0
210
0.0
220
1.0
230
0.0
  0
ARC
  5
38D
330
70
100
AcDbEntity
  8
Visible
100
AcDbCircle
 10
14.839273
 20
24.942067
 30
0.0
 40
0.0625000000000005
100
AcDbArc
 50
1.621825
 51
90.196852
  0
LINE
  5
38E
330
70
100
AcDbEntity
  8
Visible
100
AcDbLine
 10
14.839059
 20
25.004567
 30
0.0
 11
14.781381
 21
25.060442
 31
0.0
210
0.0
220
1.0
230
0.0
  0
LINE
  5
38F
330
70
100
AcDbEntity
  8
Visible
100
AcDbLine
 10
15.624417
 20
19.329092
 30
0.0
 11
15.524182
 21
19.219326
 31
0.0
210
0.0
220
1.0
230
0.0
  0
ARC
  5
390
330
70
100
AcDbEntity
  8
Visible
100
AcDbCircle
 10
15.781054
 20
19.042237
 30
0.0
 40
0.3120000000000922
100
AcDbArc
 50
145.417258
 51
190.417258
  0
ARC
  5
391
330
70
100
AcDbEntity
  8
Visible
100
AcDbCircle
 10
17.098593
 20
20.04279
 30
0.0
 40
1.937999999999995
100
AcDbArc
 50
213.051401
 51
236.948632
  0
ARC
  5
392
330
70
100
AcDbEntity
  8
Visible
100
AcDbCircle
 10
16.09804
 20
18.725251
 30
0.0
 40
0.3120000000000941
100
AcDbArc
 50
259.582775
 51
304.582775
  0
CIRCLE
  5
393
330
70
100
AcDbEntity
  8
Visible
100
AcDbCircle
 10
13.601837
 20
23.704631
 30
0.0
 40
1.584999999999999
  0
ARC
  5
394
330
70
100
AcDbEntity
  8
Visible
100
AcDbCircle
 10
13.602226
 20
20.054564
 30
0.0
 40
1.584999999999999
100
AcDbArc
 50
319.523292
 51
220.476708
  0
LINE
  5
395
330
70
100
AcDbEntity
  8
Visible
100
AcDbLine
 10
12.396564
 20
19.025679
 30
0.0
 11
12.276401
 21
18.905515
 31
0.0
210
0.0
220
1.0
230
0.0
  0
ARC
  5
396
330
70
100
AcDbEntity
  8
Visible
100
AcDbCircle
 10
12.364789
 20
18.817127
 30
0.0
 40
0.1249999999999996
100
AcDbArc
 50
135.0
 51
315.0
  0
LINE
  5
397
330
70
100
AcDbEntity
  8
Visible
100
AcDbLine
 10
12.453178
 20
18.728739
 30
0.0
 11
12.573341
 21
18.848902
 31
0.0
210
0.0
220
1.0
230
0.0
  0
LINE
  5
398
330
70
100
AcDbEntity
  8
Visible
100
AcDbLine
 10
11.431392
 20
18.959844
 30
0.0
 11
11.374322
 21
18.900933
 31
0.0
210
0.0
220
1.0
230
0.0
  0
ARC
  5
399
330
70
100
AcDbEntity
  8
Visible
100
AcDbCircle
 10
11.398259
 20
18.819373
 30
0.0
 40
0.0850000000000005
100
AcDbArc
 50
106.356773
 51
165.461904
  0
LINE
  5
39A
330
70
100
AcDbEntity
  8
Visible
100
AcDbLine
 10
11.315981
 20
18.84071
 30
0.0
 11
11.243707
 21
18.766105
 31
0.0
210
0.0
220
1.0
230
0.0
  0
ARC
  5
39B
330
70
100
AcDbEntity
  8
Visible
100
AcDbCircle
 10
11.286328
 20
18.724816
 30
0.0
 40
0.0593410552785913
100
AcDbArc
 50
135.909338
 51
315.909338
  0
CIRCLE
  5
39C
330
70
100
AcDbEntity
  8
Visible
100
AcDbCircle
 10
14.839663
 20
21.292001
 30
0.0
 40
0.0850000000000005
  0
CIRCLE
  5
39D
330
70
100
AcDbEntity
  8
Visible
100
AcDbCircle
 10
18.338495
 20
18.802765
 30
0.0
 40
0.0849999999999998
  0
CIRCLE
  5
39E
330
70
100
AcDbEntity
  8
Visible
100
AcDbCircle
 10
18.613264
 20
26.314268
 30
0.0
 40
0.0849999999999998
  0
ARC
  5
39F
330
70
100
AcDbEntity
  8
Visible
100
AcDbCircle
 10
14.755766
 20
26.047915
 30
0.0
 40
0.1560000000021395
100
AcDbArc
 50
90.0
 51
180.0
  0
LINE
  5
3A0
330
70
100
AcDbEntity
  8
Visible
100
AcDbLine
 10
14.599766
 20
26.047915
 30
0.0
 11
14.599766
 21
25.559915
 31
0.0
210
0.0
220
1.0
230
0.0
  0
ARC
  5
3A1
330
70
100
AcDbEntity
  8
Visible
100
AcDbCircle
 10
14.755766
 20
25.559915
 30
0.0
 40
0.1559999999898729
100
AcDbArc
 50
180.0
 51
270.0
  0
LINE
  5
3A2
330
70
100
AcDbEntity
  8
Visible
100
AcDbLine
 10
14.755766
 20
25.403915
 30
0.0
 11
17.443766
 21
25.403915
 31
0.0
210
0.0
220
1.0
230
0.0
  0
ARC
  5
3A3
330
70
100
AcDbEntity
  8
Visible
100
AcDbCircle
 10
8.847632
 20
21.195065
 30
0.0
 40
0.0593410552783242
100
AcDbArc
 50
135.909338
 51
315.909338
  0
LINE
  5
3A4
330
70
100
AcDbEntity
  8
Visible
100
AcDbLine
 10
8.890253
 20
21.153776
 30
0.0
 11
8.947323
 21
21.212687
 31
0.0
210
0.0
220
1.0
230
0.0
  0
ARC
  5
3A5
330
70
100
AcDbEntity
  8
Visible
100
AcDbCircle
 10
8.923386
 20
21.294247
 30
0.0
 40
0.0849999999999991
100
AcDbArc
 50
286.356773
 51
345.461904
  0
LINE
  5
3A6
330
70
100
AcDbEntity
  8
Visible
100
AcDbLine
 10
9.005664
 20
21.27291
 30
0.0
 11
9.077938
 21
21.347515
 31
0.0
210
0.0
220
1.0
230
0.0
  0
ARC
  5
3A7
330
70
100
AcDbEntity
  8
Visible
100
AcDbCircle
 10
11.398259
 20
21.294247
 30
0.0
 40
0.0850000000000005
100
AcDbArc
 50
347.66895
 51
104.149727
  0
LINE
  5
3A8
330
70
100
AcDbEntity
  8
Visible
100
AcDbLine
 10
11.37748
 20
21.376668
 30
0.0
 11
11.340367
 21
21.412622
 31
0.0
210
0.0
220
1.0
230
0.0
  0
ARC
  5
3A9
330
70
100
AcDbEntity
  8
Visible
100
AcDbCircle
 10
11.299078
 20
21.370001
 30
0.0
 40
0.0593410552783282
100
AcDbArc
 50
45.909338
 51
225.909338
  0
LINE
  5
3AA
330
70
100
AcDbEntity
  8
Visible
100
AcDbLine
 10
11.257788
 20
21.327379
 30
0.0
 11
11.3167
 21
21.270309
 31
0.0
210
0.0
220
1.0
230
0.0
  0
CIRCLE
  5
3AB
330
70
100
AcDbEntity
  8
Visible
100
AcDbCircle
 10
18.338495
 20
24.927638
 30
0.0
 40
0.0849999999999998
  0
ARC
  5
3AC
330
70
100
AcDbEntity
  8
Visible
100
AcDbCircle
 10
8.828828
 20
18.931304
 30
0.0
 40
0.0593410552785854
100
AcDbArc
 50
45.909338
 51
225.909338
  0
LINE
  5
3AD
330
70
100
AcDbEntity
  8
Visible
100
AcDbLine
 10
8.787539
 20
18.888683
 30
0.0
 11
8.840347
 21
18.837526
 31
0.0
210
0.0
220
1.0
230
0.0
  0
ARC
  5
3AE
330
70
100
AcDbEntity
  8
Visible
100
AcDbCircle
 10
8.923386
 20
18.819373
 30
0.0
 40
0.0849999999999991
100
AcDbArc
 50
167.66895
 51
284.149727
  0
LINE
  5
3AF
330
70
100
AcDbEntity
  8
Visible
100
AcDbLine
 10
8.944164
 20
18.736952
 30
0.0
 11
8.981278
 21
18.700998
 31
0.0
210
0.0
220
1.0
230
0.0
  0
CIRCLE
  5
3B0
330
70
100
AcDbEntity
  8
Visible
100
AcDbCircle
 10
17.724766
 20
25.803915
 30
0.0
 40
0.0624999999999998
  0
CIRCLE
  5
3B1
330
70
100
AcDbEntity
  8
Visible
100
AcDbCircle
 10
11.398259
 20
24.894247
 30
0.0
 40
0.0625000000000005
  0
CIRCLE
  5
3B2
330
70
100
AcDbEntity
  8
Visible
100
AcDbCircle
 10
11.398259
 20
22.419373
 30
0.0
 40
0.0625000000000005
  0
CIRCLE
  5
3B3
330
70
100
AcDbEntity
  8
Visible
100
AcDbCircle
 10
18.338495
 20
22.452765
 30
0.0
 40
0.0849999999999998
  0
ARC
  5
3B4
330
70
100
AcDbEntity
  8
Visible
100
AcDbCircle
 10
15.781054
 20
22.692237
 30
0.0
 40
0.3120000000000922
100
AcDbArc
 50
145.417258
 51
190.417258
  0
ARC
  5
3B5
330
70
100
AcDbEntity
  8
Visible
100
AcDbCircle
 10
17.098593
 20
23.69279
 30
0.0
 40
1.937999999999995
100
AcDbArc
 50
213.051401
 51
236.948632
  0
ARC
  5
3B6
330
70
100
AcDbEntity
  8
Visible
100
AcDbCircle
 10
16.09804
 20
22.375251
 30
0.0
 40
0.3120000000000941
100
AcDbArc
 50
259.582775
 51
304.582775
  0
LINE
  5
3B7
330
70
100
AcDbEntity
  8
Visible
100
AcDbLine
 10
16.27513
 20
22.118379
 30
0.0
 11
16.384896
 21
22.218614
 31
0.0
210
0.0
220
1.0
230
0.0
  0
CIRCLE
  5
3B8
330
70
100
AcDbEntity
  8
Visible
100
AcDbCircle
 10
12.364789
 20
21.292001
 30
0.0
 40
0.0850000000000005
  0
CIRCLE
  5
3B9
330
70
100
AcDbEntity
  8
Visible
100
AcDbCircle
 10
8.923386
 20
24.894247
 30
0.0
 40
0.0624999999999991
  0
CIRCLE
  5
3BA
330
70
100
AcDbEntity
  8
Visible
100
AcDbCircle
 10
10.160822
 20
23.65681
 30
0.0
 40
1.584999999999999
  0
CIRCLE
  5
3BB
330
70
100
AcDbEntity
  8
Visible
100
AcDbCircle
 10
18.613264
 20
21.866182
 30
0.0
 40
0.0849999999999998
  0
CIRCLE
  5
3BC
330
70
100
AcDbEntity
  8
Visible
100
AcDbCircle
 10
8.582324
 20
21.873599
 30
0.0
 40
0.0849999999999991
  0
CIRCLE
  5
3BD
330
70
100
AcDbEntity
  8
Visible
100
AcDbCircle
 10
12.164038
 20
19.10383
 30
0.0
 40
0.0850000000000005
  0
CIRCLE
  5
3BE
330
70
100
AcDbEntity
  8
Visible
100
AcDbCircle
 10
18.613264
 20
18.442676
 30
0.0
 40
0.0849999999999998
  0
CIRCLE
  5
3BF
330
70
100
AcDbEntity
  8
Visible
100
AcDbCircle
 10
8.582324
 20
25.882554
 30
0.0
 40
0.0849999999999991
  0
CIRCLE
  5
3C0
330
70
100
AcDbEntity
  8
Visible
100
AcDbCircle
 10
8.582324
 20
18.442676
 30
0.0
 40
0.0849999999999991
  0
LINE
  5
3C1
330
70
100
AcDbEntity
  8
Visible
100
AcDbLine
 10
12.228553
 20
22.536504
 30
0.0
 11
12.301925
 21
22.465425
 31
0.0
210
0.0
220
1.0
230
0.0
  0
ARC
  5
3C2
330
70
100
AcDbEntity
  8
Visible
100
AcDbCircle
 10
12.3644
 20
22.467194
 30
0.0
 40
0.0625000000000005
100
AcDbArc
 50
181.621825
 51
270.196852
  0
LINE
  5
3C3
330
70
100
AcDbEntity
  8
Visible
100
AcDbLine
 10
12.364614
 20
22.404694
 30
0.0
 11
12.422292
 21
22.348819
 31
0.0
210
0.0
220
1.0
230
0.0
  0
CIRCLE
  5
3C4
330
70
100
AcDbEntity
  8
Visible
100
AcDbCircle
 10
15.327195
 20
18.442676
 30
0.0
 40
0.0850000000000005
  0
CIRCLE
  5
3C5
330
70
100
AcDbEntity
  8
Visible
100
AcDbCircle
 10
14.474766
 20
25.803915
 30
0.0
 40
0.0850000000000005
  0
LINE
  5
3C6
330
70
100
AcDbEntity
  8
Visible
100
AcDbLine
 10
15.842394
 20
26.684111
 30
0.0
 11
18.813101
 21
26.684111
 31
0.0
210
0.0
220
1.0
230
0.0
  0
LINE
  5
3C7
330
70
100
AcDbEntity
  8
Visible
100
AcDbLine
 10
18.813101
 20
26.684111
 30
0.0
 11
18.813101
 21
18.20439
 31
0.0
210
0.0
220
1.0
230
0.0
  0
LINE
  5
3C8
330
70
100
AcDbEntity
  8
Visible
100
AcDbLine
 10
18.813101
 20
18.20439
 30
0.0
 11
8.381186
 21
18.23282
 31
0.0
210
0.0
220
1.0
230
0.0
  0
LINE
  5
3C9
330
70
100
AcDbEntity
  8
Visible
100
AcDbLine
 10
31.70738
 20
13.898678
 30
0.0
 11
29.126278
 21
13.898677
 31
0.0
210
0.0
220
1.0
230
0.0
  0
LINE
  5
3CA
330
70
100
AcDbEntity
  8
Visible
100
AcDbLine
 10
29.126278
 20
13.898677
 30
0.0
 11
29.126278
 21
16.876491
 31
0.0
210
0.0
220
1.0
230
0.0
  0
LINE
  5
3CB
330
70
100
AcDbEntity
  8
Visible
100
AcDbLine
 10
29.126278
 20
16.876491
 30
0.0
 11
30.95738
 21
16.876491
 31
0.0
210
0.0
220
1.0
230
0.0
  0
CIRCLE
  5
3CC
330
70
100
AcDbEntity
  8
Visible
100
AcDbCircle
 10
31.131255
 20
15.967546
 30
0.0
 40
0.0850000000000005
  0
CIRCLE
  5
3CD
330
70
100
AcDbEntity
  8
Visible
100
AcDbCircle
 10
29.628135
 20
16.564374
 30
0.0
 40
0.0850000000000005
  0
CIRCLE
  5
3CE
330
70
100
AcDbEntity
  8
Visible
100
AcDbCircle
 10
31.478135
 20
14.164374
 30
0.0
 40
0.0850000000000005
  0
CIRCLE
  5
3CF
330
70
100
AcDbEntity
  8
Visible
100
AcDbCircle
 10
29.628135
 20
14.164374
 30
0.0
 40
0.0850000000000005
  0
ARC
  5
3D0
330
70
100
AcDbEntity
  8
Visible
100
AcDbCircle
 10
31.70738
 20
16.876491
 30
0.0
 40
0.7500000000000004
100
AcDbArc
 50
180.0
 51
270.0
  0
LINE
  5
3D1
330
70
100
AcDbEntity
  8
Visible
100
AcDbLine
 10
31.70738
 20
16.126491
 30
0.0
 11
31.70738
 21
15.65905
 31
0.0
210
0.0
220
1.0
230
0.0
  0
ARC
  5
3D2
330
70
100
AcDbEntity
  8
Visible
100
AcDbCircle
 10
31.70738
 20
15.53405
 30
0.0
 40
0.1249999999999996
100
AcDbArc
 50
90.0
 51
270.0
  0
LINE
  5
3D3
330
70
100
AcDbEntity
  8
Visible
100
AcDbLine
 10
31.70738
 20
15.40905
 30
0.0
 11
31.70738
 21
13.898678
 31
0.0
210
0.0
220
1.0
230
0.0
  0
LINE
  5
3D4
330
70
100
AcDbEntity
  8
Visible
100
AcDbLine
 10
22.826278
 20
25.850235
 30
0.0
 11
22.826278
 21
26.684111
 31
0.0
210
0.0
220
1.0
230
0.0
  0
LINE
  5
3D5
330
70
100
AcDbEntity
  8
Visible
100
AcDbLine
 10
22.826278
 20
26.684111
 30
0.0
 11
29.126278
 21
26.684111
 31
0.0
210
0.0
220
1.0
230
0.0
  0
LINE
  5
3D6
330
70
100
AcDbEntity
  8
Visible
100
AcDbLine
 10
29.126278
 20
26.684111
 30
0.0
 11
29.126278
 21
25.850235
 31
0.0
210
0.0
220
1.0
230
0.0
  0
LINE
  5
3D7
330
70
100
AcDbEntity
  8
Visible
100
AcDbLine
 10
29.126278
 20
25.850235
 30
0.0
 11
22.826278
 21
25.850235
 31
0.0
210
0.0
220
1.0
230
0.0
  0
ENDSEC
  0
SECTION
  2
OBJECTS
  0
DICTIONARY
  5
C
330
0
100
AcDbDictionary
281
     1
  3
ACAD_COLOR
350
63
  3
ACAD_DETAILVIEWSTYLE
350
6A
  3
ACAD_GROUP
350
D
  3
ACAD_LAYOUT
350
62
  3
ACAD_MATERIAL
350
10
  3
ACAD_MLEADERSTYLE
350
66
  3
ACAD_MLINESTYLE
350
5F
  3
ACAD_PLOTSETTINGS
350
61
  3
ACAD_PLOTSTYLENAME
350
E
  3
ACAD_SCALELIST
350
42
  3
ACAD_SECTIONVIEWSTYLE
350
68
  3
ACAD_TABLESTYLE
350
64
  3
ACAD_VISUALSTYLE
350
29
  3
ACDB_RECOMPOSE_DATA
350
3E1
  3
AcDbVariableDictionary
350
3D8
  0
DICTIONARY
  5
B6
330
70
100
AcDbDictionary
280
     1
281
     1
  3
ACAD_SORTENTS
360
B7
  0
DICTIONARY
  5
63
102
{ACAD_REACTORS
330
C
102
}
330
C
100
AcDbDictionary
281
     1
  0
DICTIONARY
  5
6A
102
{ACAD_REACTORS
330
C
102
}
330
C
100
AcDbDictionary
281
     1
  3
Imperial24
350
6B
  0
DICTIONARY
  5
D
102
{ACAD_REACTORS
330
C
102
}
330
C
100
AcDbDictionary
281
     1
  0
DICTIONARY
  5
62
102
{ACAD_REACTORS
330
C
102
}
330
C
100
AcDbDictionary
281
     1
  3
Model
350
73
  3
Sheet1
350
6F
  3
Sheet2
350
77
  0
DICTIONARY
  5
10
102
{ACAD_REACTORS
330
C
102
}
330
C
100
AcDbDictionary
281
     1
  3
ByBlock
350
19
  3
ByLayer
350
11
  3
Global
350
21
  0
DICTIONARY
  5
66
102
{ACAD_REACTORS
330
C
102
}
330
C
100
AcDbDictionary
281
     1
  3
Standard
350
67
  0
DICTIONARY
  5
5F
102
{ACAD_REACTORS
330
C
102
}
330
C
100
AcDbDictionary
281
     1
  3
Standard
350
60
  0
DICTIONARY
  5
61
102
{ACAD_REACTORS
330
C
102
}
330
C
100
AcDbDictionary
281
     1
  0
ACDBDICTIONARYWDFLT
  5
E
102
{ACAD_REACTORS
330
C
102
}
330
C
100
AcDbDictionary
281
     1
  3
Normal
350
F
100
AcDbDictionaryWithDefault
340
F
  0
DICTIONARY
  5
42
102
{ACAD_REACTORS
330
C
102
}
330
C
100
AcDbDictionary
281
     1
  3
*A1
350
A6
  3
*A10
350
AF
  3
*A11
350
B0
  3
*A12
350
B1
  3
*A13
350
B2
  3
*A14
350
B3
  3
*A15
350
B4
  3
*A16
350
B5
  3
*A2
350
A7
  3
*A3
350
A8
  3
*A4
350
A9
  3
*A5
350
AA
  3
*A6
350
AB
  3
*A7
350
AC
  3
*A8
350
AD
  3
*A9
350
AE
  3
A0
350
43
  3
A1
350
44
  3
A2
350
45
  3
A3
350
46
  3
A4
350
47
  3
A5
350
48
  3
A6
350
49
  3
A7
350
4A
  3
A8
350
4B
  3
A9
350
4C
  3
B0
350
4D
  3
B1
350
4E
  3
B2
350
4F
  3
B3
350
50
  3
B4
350
51
  3
B5
350
52
  3
B6
350
53
  0
DICTIONARY
  5
68
102
{ACAD_REACTORS
330
C
102
}
330
C
100
AcDbDictionary
281
     1
  3
Imperial24
350
69
  0
DICTIONARY
  5
64
102
{ACAD_REACTORS
330
C
102
}
330
C
100
AcDbDictionary
281
     1
  3
Standard
350
65
  0
DICTIONARY
  5
29
102
{ACAD_REACTORS
330
C
102
}
330
C
100
AcDbDictionary
281
     1
  3
2dWireframe
350
2F
  3
Basic
350
2E
  3
Brighten
350
35
  3
ColorChange
350
39
  3
Conceptual
350
32
  3
Dim
350
34
  3
EdgeColorOff
350
41
  3
Facepattern
350
38
  3
Flat
350
2A
  3
FlatWithEdges
350
2B
  3
Gouraud
350
2C
  3
GouraudWithEdges
350
2D
  3
Hidden
350
31
  3
JitterOff
350
3F
  3
Linepattern
350
37
  3
OverhangOff
350
40
  3
Realistic
350
33
  3
Shaded
350
3E
  3
Shaded with edges
350
3D
  3
Shades of Gray
350
3A
  3
Sketchy
350
3B
  3
Thicken
350
36
  3
Wireframe
350
30
  3
X-Ray
350
3C
  0
XRECORD
  5
3E1
102
{ACAD_REACTORS
330
C
102
}
330
C
100
AcDbXrecord
280
     1
 90
        1
330
65
  0
DICTIONARY
  5
3D8
102
{ACAD_REACTORS
330
C
102
}
330
C
100
AcDbDictionary
281
     1
  3
ANNOALLVISIBLE
350
3DD
  3
CANNOSCALE
350
3DE
  3
CMLEADERSTYLE
350
3DA
  3
CTABLESTYLE
350
3D9
  3
CVIEWDETAILSTYLE
350
3DB
  3
CVIEWSECTIONSTYLE
350
3DC
  0
SORTENTSTABLE
  5
B7
102
{ACAD_REACTORS
330
B6
102
}
330
B6
100
AcDbSortentsTable
330
70
  0
ACDBDETAILVIEWSTYLE
  5
6B
102
{ACAD_XDICTIONARY
360
3E4
102
}
102
{ACAD_REACTORS
330
6A
102
}
330
6A
100
AcDbModelDocViewStyle
 70
     0
  3
Imperial24
290
     0
100
AcDbDetailViewStyle
 70
     0
 71
     0
 90
        3
 71
     1
340
55
 62
   256
 40
0.24
340
0
 62
   256
 40
0.24
300

 40
0.36
280
     3
 71
     2
340
5D
 90
       25
 62
   256
 71
     3
340
55
 62
   256
 40
0.24
 90
        1
 40
0.75
 90
        1
300
%<\AcVar ViewType \f "%tc1">% %<\AcVar ViewDetailId>%\PSCALE %<\AcVar ViewScale \f "%sn">%
 71
     4
340
5D
 90
       25
 62
   256
340
5D
 90
       25
 62
   256
280
     0
  0
LAYOUT
  5
73
102
{ACAD_REACTORS
330
62
102
}
330
62
100
AcDbPlotSettings
  1

  2
AutoCAD PDF (High Quality Print).pc3
  4
ANSI_full_bleed_E_(34.00_x_44.00_Inches)
  6

 40
0.0
 41
0.0
 42
0.0
 43
0.0
 44
863.599976
 45
1117.599976
 46
0.0
 47
0.0
 48
0.0
 49
0.0
140
0.0
141
0.0
142
1.0
143
1.444465
 70
 11952
 72
     0
 73
     1
 74
     0
  7

 75
     0
147
0.692298
 76
     0
 77
     2
 78
   300
148
64.319306
149
19.727105
100
AcDbLayout
  1
Model
 70
     1
 71
     0
 10
0.0
 20
0.0
 11
12.0
 21
9.0
 12
0.0
 22
0.0
 32
0.0
 14
0.0
 24
0.0
 34
0.0
 15
0.0
 25
0.0
 35
0.0
146
0.0
 13
0.0
 23
0.0
 33
0.0
 16
1.0
 26
0.0
 36
0.0
 17
0.0
 27
1.0
 37
0.0
 76
     0
330
70
1001
ACAD_PSEXT
1000
AutoCAD PDF (High Quality Print).pc3
1000
DWG To PDF
1000
File
1000

1070
     0
  0
LAYOUT
  5
6F
102
{ACAD_REACTORS
330
62
102
}
330
62
100
AcDbPlotSettings
  1

  2
None
  4

  6

 40
0.0
 41
0.0
 42
0.0
 43
0.0
 44
0.0
 45
0.0
 46
0.0
 47
0.0
 48
0.0
 49
0.0
140
0.0
141
0.0
142
1.0
143
1.0
 70
   688
 72
     0
 73
     0
 74
     5
  7

 75
    16
147
1.0
 76
     0
 77
     2
 78
   300
148
0.0
149
0.0
100
AcDbLayout
  1
Sheet1
 70
     1
 71
     1
 10
0.0
 20
0.0
 11
12.0
 21
9.0
 12
0.0
 22
0.0
 32
0.0
 14
0.0
 24
0.0
 34
0.0
 15
0.0
 25
0.0
 35
0.0
146
0.0
 13
0.0
 23
0.0
 33
0.0
 16
1.0
 26
0.0
 36
0.0
 17
0.0
 27
1.0
 37
0.0
 76
     0
330
6C
  0
LAYOUT
  5
77
102
{ACAD_REACTORS
330
62
102
}
330
62
100
AcDbPlotSettings
  1

  2
None
  4

  6

 40
0.0
 41
0.0
 42
0.0
 43
0.0
 44
0.0
 45
0.0
 46
0.0
 47
0.0
 48
0.0
 49
0.0
140
0.0
141
0.0
142
1.0
143
1.0
 70
   688
 72
     0
 73
     0
 74
     5
  7

 75
    16
147
1.0
 76
     0
 77
     2
 78
   300
148
0.0
149
0.0
100
AcDbLayout
  1
Sheet2
 70
     1
 71
     2
 10
0.0
 20
0.0
 11
12.0
 21
9.0
 12
0.0
 22
0.0
 32
0.0
 14
0.0
 24
0.0
 34
0.0
 15
0.0
 25
0.0
 35
0.0
146
0.0
 13
0.0
 23
0.0
 33
0.0
 16
1.0
 26
0.0
 36
0.0
 17
0.0
 27
1.0
 37
0.0
 76
     0
330
74
  0
MATERIAL
  5
19
102
{ACAD_XDICTIONARY
360
1A
102
}
102
{ACAD_REACTORS
330
10
102
}
330
10
100
AcDbMaterial
  1
ByBlock
 72
     0
 43
0.020833
 43
0.0
 43
0.0
 43
0.0
 43
0.0
 43
0.020833
 43
0.0
 43
0.0
 43
0.0
 43
0.0
 43
1.0
 43
0.0
 43
0.0
 43
0.0
 43
0.0
 43
1.0
 77
     0
 47
0.020833
 47
0.0
 47
0.0
 47
0.0
 47
0.0
 47
0.020833
 47
0.0
 47
0.0
 47
0.0
 47
0.0
 47
1.0
 47
0.0
 47
0.0
 47
0.0
 47
0.0
 47
1.0
171
     0
 49
0.020833
 49
0.0
 49
0.0
 49
0.0
 49
0.0
 49
0.020833
 49
0.0
 49
0.0
 49
0.0
 49
0.0
 49
1.0
 49
0.0
 49
0.0
 49
0.0
 49
0.0
 49
1.0
175
     0
142
0.020833
142
0.0
142
0.0
142
0.0
142
0.0
142
0.020833
142
0.0
142
0.0
142
0.0
142
0.0
142
1.0
142
0.0
142
0.0
142
0.0
142
0.0
142
1.0
179
     0
144
0.020833
144
0.0
144
0.0
144
0.0
144
0.0
144
0.020833
144
0.0
144
0.0
144
0.0
144
0.0
144
1.0
144
0.0
144
0.0
144
0.0
144
0.0
144
1.0
147
0.020833
147
0.0
147
0.0
147
0.0
147
0.0
147
0.020833
147
0.0
147
0.0
147
0.0
147
0.0
147
1.0
147
0.0
147
0.0
147
0.0
147
0.0
147
1.0
  0
MATERIAL
  5
11
102
{ACAD_XDICTIONARY
360
12
102
}
102
{ACAD_REACTORS
330
10
102
}
330
10
100
AcDbMaterial
  1
ByLayer
 72
     0
 43
0.020833
 43
0.0
 43
0.0
 43
0.0
 43
0.0
 43
0.020833
 43
0.0
 43
0.0
 43
0.0
 43
0.0
 43
1.0
 43
0.0
 43
0.0
 43
0.0
 43
0.0
 43
1.0
 77
     0
 47
0.020833
 47
0.0
 47
0.0
 47
0.0
 47
0.0
 47
0.020833
 47
0.0
 47
0.0
 47
0.0
 47
0.0
 47
1.0
 47
0.0
 47
0.0
 47
0.0
 47
0.0
 47
1.0
171
     0
 49
0.020833
 49
0.0
 49
0.0
 49
0.0
 49
0.0
 49
0.020833
 49
0.0
 49
0.0
 49
0.0
 49
0.0
 49
1.0
 49
0.0
 49
0.0
 49
0.0
 49
0.0
 49
1.0
175
     0
142
0.020833
142
0.0
142
0.0
142
0.0
142
0.0
142
0.020833
142
0.0
142
0.0
142
0.0
142
0.0
142
1.0
142
0.0
142
0.0
142
0.0
142
0.0
142
1.0
179
     0
144
0.020833
144
0.0
144
0.0
144
0.0
144
0.0
144
0.020833
144
0.0
144
0.0
144
0.0
144
0.0
144
1.0
144
0.0
144
0.0
144
0.0
144
0.0
144
1.0
147
0.020833
147
0.0
147
0.0
147
0.0
147
0.0
147
0.020833
147
0.0
147
0.0
147
0.0
147
0.0
147
1.0
147
0.0
147
0.0
147
0.0
147
0.0
147
1.0
  0
MATERIAL
  5
21
102
{ACAD_XDICTIONARY
360
22
102
}
102
{ACAD_REACTORS
330
10
102
}
330
10
100
AcDbMaterial
  1
Global
 72
     0
 43
0.020833
 43
0.0
 43
0.0
 43
0.0
 43
0.0
 43
0.020833
 43
0.0
 43
0.0
 43
0.0
 43
0.0
 43
1.0
 43
0.0
 43
0.0
 43
0.0
 43
0.0
 43
1.0
 77
     0
 47
0.020833
 47
0.0
 47
0.0
 47
0.0
 47
0.0
 47
0.020833
 47
0.0
 47
0.0
 47
0.0
 47
0.0
 47
1.0
 47
0.0
 47
0.0
 47
0.0
 47
0.0
 47
1.0
171
     0
 49
0.020833
 49
0.0
 49
0.0
 49
0.0
 49
0.0
 49
0.020833
 49
0.0
 49
0.0
 49
0.0
 49
0.0
 49
1.0
 49
0.0
 49
0.0
 49
0.0
 49
0.0
 49
1.0
175
     0
142
0.020833
142
0.0
142
0.0
142
0.0
142
0.0
142
0.020833
142
0.0
142
0.0
142
0.0
142
0.0
142
1.0
142
0.0
142
0.0
142
0.0
142
0.0
142
1.0
179
     0
144
0.020833
144
0.0
144
0.0
144
0.0
144
0.0
144
0.020833
144
0.0
144
0.0
144
0.0
144
0.0
144
1.0
144
0.0
144
0.0
144
0.0
144
0.0
144
1.0
147
0.020833
147
0.0
147
0.0
147
0.0
147
0.0
147
0.020833
147
0.0
147
0.0
147
0.0
147
0.0
147
1.0
147
0.0
147
0.0
147
0.0
147
0.0
147
1.0
  0
MLEADERSTYLE
  5
67
102
{ACAD_REACTORS
330
66
102
}
330
66
100
AcDbMLeaderStyle
179
     2
170
     2
171
     1
172
     0
 90
        2
 40
0.0
 41
0.0
173
     1
 91
-1056964608
340
5B
 92
       -2
290
     1
 42
0.09
291
     1
 43
0.36
  3
Standard
 44
0.18
300

342
55
174
     1
178
     6
175
     1
176
     0
 93
-1056964608
 45
0.18
292
     0
297
     0
 46
0.18
 94
-1056964608
 47
1.0
 49
1.0
140
1.0
293
     1
141
0.0
294
     1
177
     0
142
1.0
295
     0
296
     0
143
0.125
271
     0
272
     9
273
     9
298
     1
  0
MLINESTYLE
  5
60
102
{ACAD_REACTORS
330
5F
102
}
330
5F
100
AcDbMlineStyle
  2
STANDARD
 70
     0
  3

 62
   256
 51
90.0
 52
90.0
 71
     0
  0
ACDBPLACEHOLDER
  5
F
102
{ACAD_REACTORS
330
E
102
}
330
E
  0
SCALE
  5
A6
102
{ACAD_REACTORS
330
42
102
}
330
42
100
AcDbScale
 70
     0
300
1:2
140
1.0
141
2.0
290
     0
  0
SCALE
  5
AF
102
{ACAD_REACTORS
330
42
102
}
330
42
100
AcDbScale
 70
     0
300
1:50
140
1.0
141
50.0
290
     0
  0
SCALE
  5
B0
102
{ACAD_REACTORS
330
42
102
}
330
42
100
AcDbScale
 70
     0
300
1:100
140
1.0
141
100.0
290
     0
  0
SCALE
  5
B1
102
{ACAD_REACTORS
330
42
102
}
330
42
100
AcDbScale
 70
     0
300
2:1
140
2.0
141
1.0
290
     0
  0
SCALE
  5
B2
102
{ACAD_REACTORS
330
42
102
}
330
42
100
AcDbScale
 70
     0
300
4:1
140
4.0
141
1.0
290
     0
  0
SCALE
  5
B3
102
{ACAD_REACTORS
330
42
102
}
330
42
100
AcDbScale
 70
     0
300
8:1
140
8.0
141
1.0
290
     0
  0
SCALE
  5
B4
102
{ACAD_REACTORS
330
42
102
}
330
42
100
AcDbScale
 70
     0
300
10:1
140
10.0
141
1.0
290
     0
  0
SCALE
  5
B5
102
{ACAD_REACTORS
330
42
102
}
330
42
100
AcDbScale
 70
     0
300
100:1
140
100.0
141
1.0
290
     0
  0
SCALE
  5
A7
102
{ACAD_REACTORS
330
42
102
}
330
42
100
AcDbScale
 70
     0
300
1:4
140
1.0
141
4.0
290
     0
  0
SCALE
  5
A8
102
{ACAD_REACTORS
330
42
102
}
330
42
100
AcDbScale
 70
     0
300
1:5
140
1.0
141
5.0
290
     0
  0
SCALE
  5
A9
102
{ACAD_REACTORS
330
42
102
}
330
42
100
AcDbScale
 70
     0
300
1:8
140
1.0
141
8.0
290
     0
  0
SCALE
  5
AA
102
{ACAD_REACTORS
330
42
102
}
330
42
100
AcDbScale
 70
     0
300
1:10
140
1.0
141
10.0
290
     0
  0
SCALE
  5
AB
102
{ACAD_REACTORS
330
42
102
}
330
42
100
AcDbScale
 70
     0
300
1:16
140
1.0
141
16.0
290
     0
  0
SCALE
  5
AC
102
{ACAD_REACTORS
330
42
102
}
330
42
100
AcDbScale
 70
     0
300
1:20
140
1.0
141
20.0
290
     0
  0
SCALE
  5
AD
102
{ACAD_REACTORS
330
42
102
}
330
42
100
AcDbScale
 70
     0
300
1:30
140
1.0
141
30.0
290
     0
  0
SCALE
  5
AE
102
{ACAD_REACTORS
330
42
102
}
330
42
100
AcDbScale
 70
     0
300
1:40
140
1.0
141
40.0
290
     0
  0
SCALE
  5
43
102
{ACAD_REACTORS
330
42
102
}
330
42
100
AcDbScale
 70
     0
300
1:1
140
1.0
141
1.0
290
     1
  0
SCALE
  5
44
102
{ACAD_REACTORS
330
42
102
}
330
42
100
AcDbScale
 70
     0
300
1/128" = 1'-0"
140
0.007813
141
12.0
290
     0
  0
SCALE
  5
45
102
{ACAD_REACTORS
330
42
102
}
330
42
100
AcDbScale
 70
     0
300
1/64" = 1'-0"
140
0.015625
141
12.0
290
     0
  0
SCALE
  5
46
102
{ACAD_REACTORS
330
42
102
}
330
42
100
AcDbScale
 70
     0
300
1/32" = 1'-0"
140
0.03125
141
12.0
290
     0
  0
SCALE
  5
47
102
{ACAD_REACTORS
330
42
102
}
330
42
100
AcDbScale
 70
     0
300
1/16" = 1'-0"
140
0.0625
141
12.0
290
     0
  0
SCALE
  5
48
102
{ACAD_REACTORS
330
42
102
}
330
42
100
AcDbScale
 70
     0
300
3/32" = 1'-0"
140
0.09375
141
12.0
290
     0
  0
SCALE
  5
49
102
{ACAD_REACTORS
330
42
102
}
330
42
100
AcDbScale
 70
     0
300
1/8" = 1'-0"
140
0.125
141
12.0
290
     0
  0
SCALE
  5
4A
102
{ACAD_REACTORS
330
42
102
}
330
42
100
AcDbScale
 70
     0
300
3/16" = 1'-0"
140
0.1875
141
12.0
290
     0
  0
SCALE
  5
4B
102
{ACAD_REACTORS
330
42
102
}
330
42
100
AcDbScale
 70
     0
300
1/4" = 1'-0"
140
0.25
141
12.0
290
     0
  0
SCALE
  5
4C
102
{ACAD_REACTORS
330
42
102
}
330
42
100
AcDbScale
 70
     0
300
3/8" = 1'-0"
140
0.375
141
12.0
290
     0
  0
SCALE
  5
4D
102
{ACAD_REACTORS
330
42
102
}
330
42
100
AcDbScale
 70
     0
300
1/2" = 1'-0"
140
0.5
141
12.0
290
     0
  0
SCALE
  5
4E
102
{ACAD_REACTORS
330
42
102
}
330
42
100
AcDbScale
 70
     0
300
3/4" = 1'-0"
140
0.75
141
12.0
290
     0
  0
SCALE
  5
4F
102
{ACAD_REACTORS
330
42
102
}
330
42
100
AcDbScale
 70
     0
300
1" = 1'-0"
140
1.0
141
12.0
290
     0
  0
SCALE
  5
50
102
{ACAD_REACTORS
330
42
102
}
330
42
100
AcDbScale
 70
     0
300
1-1/2" = 1'-0"
140
1.5
141
12.0
290
     0
  0
SCALE
  5
51
102
{ACAD_REACTORS
330
42
102
}
330
42
100
AcDbScale
 70
     0
300
3" = 1'-0"
140
3.0
141
12.0
290
     0
  0
SCALE
  5
52
102
{ACAD_REACTORS
330
42
102
}
330
42
100
AcDbScale
 70
     0
300
6" = 1'-0"
140
6.0
141
12.0
290
     0
  0
SCALE
  5
53
102
{ACAD_REACTORS
330
42
102
}
330
42
100
AcDbScale
 70
     0
300
1'-0" = 1'-0"
140
12.0
141
12.0
290
     0
  0
ACDBSECTIONVIEWSTYLE
  5
69
102
{ACAD_XDICTIONARY
360
3E2
102
}
102
{ACAD_REACTORS
330
68
102
}
330
68
100
AcDbModelDocViewStyle
 70
     0
  3
Imperial24
290
     0
100
AcDbSectionViewStyle
 70
     0
 71
     0
 90
       78
 71
     1
340
55
 62
   256
 40
0.24
340
0
340
0
 62
   256
 40
0.24
300
I, O, Q, S, X, Z
 40
0.48
 90
        3
 40
0.18
 90
        1
 71
     2
340
5D
 90
       25
 62
   256
340
5D
 90
       50
 62
   256
 40
0.24
 40
0.0
 40
0.24
 71
     3
340
55
 62
   256
 40
0.24
 90
        1
 40
0.75
 90
        1
300
%<\AcVar ViewType \f "%tc1">% %<\AcVar ViewSectionStartId>%-%<\AcVar ViewSectionEndId>%\PSCALE %<\AcVar ViewScale \f "%sn">%
 71
     4
 62
   256
 62
   257
300
ANSI31
 40
1.0
 90
        0
290
     0
290
     0
 90
        6
 40
0.0
 40
1.570796
 40
0.261799
 40
1.308997
 40
-0.261799
 40
1.832596
  0
TABLESTYLE
  5
65
102
{ACAD_XDICTIONARY
360
3DF
102
}
102
{ACAD_REACTORS
330
64
102
}
330
64
100
AcDbTableStyle
280
     0
  3
Standard
 70
     0
 71
     0
 40
0.06
 41
0.06
280
     0
281
     0
  7
Standard
140
0.18
170
     2
 62
     0
 63
     7
283
     0
 90
      512
 91
        0
  1

274
    -2
284
     1
 64
     0
275
    -2
285
     1
 65
     0
276
    -2
286
     1
 66
     0
277
    -2
287
     1
 67
     0
278
    -2
288
     1
 68
     0
279
    -2
289
     1
 69
     0
  7
Standard
140
0.25
170
     5
 62
     0
 63
     7
283
     0
 90
      512
 91
        0
  1

274
    -2
284
     1
 64
     0
275
    -2
285
     1
 65
     0
276
    -2
286
     1
 66
     0
277
    -2
287
     1
 67
     0
278
    -2
288
     1
 68
     0
279
    -2
289
     1
 69
     0
  7
Standard
140
0.18
170
     5
 62
     0
 63
     7
283
     0
 90
      512
 91
        0
  1

274
    -2
284
     1
 64
     0
275
    -2
285
     1
 65
     0
276
    -2
286
     1
 66
     0
277
    -2
287
     1
 67
     0
278
    -2
288
     1
 68
     0
279
    -2
289
     1
 69
     0
  0
VISUALSTYLE
  5
2F
102
{ACAD_REACTORS
330
29
102
}
330
29
100
AcDbVisualStyle
  2
2dWireframe
 70
     4
177
     3
291
     0
 70
    58
 90
        0
176
     1
 90
        2
176
     1
 90
        0
176
     1
 90
        0
176
     1
 40
0.6
176
     1
 40
30.0
176
     1
 62
     7
420
 16777215
176
     1
 90
        1
176
     1
 90
        4
176
     1
 62
     7
176
     1
 62
   257
176
     1
 90
        1
176
     1
 90
        1
176
     1
 40
1.0
176
     1
 90
        0
176
     1
 62
   257
176
     1
 40
1.0
176
     1
 90
        1
176
     1
 90
        6
176
     1
 90
        2
176
     1
 62
     7
176
     1
 90
        5
176
     1
 90
        0
176
     1
 90
        0
176
     1
290
     0
176
     1
 90
        1
176
     1
 40
0.0
176
     1
 90
        0
176
     1
290
     1
176
     1
290
     1
176
     1
290
     0
176
     1
290
     0
176
     1
290
     0
176
     1
290
     0
176
     1
290
     0
176
     1
290
     0
176
     1
290
     0
176
     1
 90
       50
176
     1
 40
0.0
176
     1
 40
1.0
176
     1
 90
        0
176
     1
 62
    18
420
        0
176
     1
 90
       50
176
     1
 90
        3
176
     1
 62
     5
420
      255
176
     1
290
     0
176
     1
 90
       50
176
     1
 90
       50
176
     1
 90
       50
176
     1
290
     0
176
     1
 90
       50
176
     1
 62
   256
176
     0
 40
1.0
176
     0
 90
        2
176
     1
  1
strokes_ogs.tif
176
     1
290
     0
176
     1
 40
1.0
176
     1
 40
1.0
176
     1
1001
ACAD
1000
AcDbSavedByObjectVersion
1070
     0
  0
VISUALSTYLE
  5
2E
102
{ACAD_REACTORS
330
29
102
}
330
29
100
AcDbVisualStyle
  2
Basic
 70
     7
177
     3
291
     1
 70
    58
 90
        1
176
     1
 90
        0
176
     1
 90
        1
176
     1
 90
        0
176
     1
 40
0.6
176
     1
 40
30.0
176
     1
 62
     7
420
 16777215
176
     1
 90
        0
176
     1
 90
        4
176
     1
 62
     7
176
     1
 62
   257
176
     1
 90
        1
176
     1
 90
        1
176
     1
 40
1.0
176
     1
 90
        8
176
     1
 62
     7
176
     1
 40
1.0
176
     1
 90
        1
176
     1
 90
        6
176
     1
 90
        2
176
     1
 62
     7
176
     1
 90
        5
176
     1
 90
        0
176
     1
 90
        0
176
     1
290
     0
176
     1
 90
        1
176
     1
 40
0.0
176
     1
 90
        0
176
     1
290
     0
176
     1
290
     1
176
     1
290
     1
176
     1
290
     0
176
     1
290
     0
176
     1
290
     0
176
     1
290
     0
176
     1
290
     0
176
     1
290
     0
176
     1
 90
       50
176
     1
 40
0.0
176
     1
 40
1.0
176
     1
 90
        0
176
     1
 62
    18
420
        0
176
     1
 90
       50
176
     1
 90
        3
176
     1
 62
     5
420
      255
176
     1
290
     0
176
     1
 90
       50
176
     1
 90
       50
176
     1
 90
       50
176
     1
290
     0
176
     1
 90
       50
176
     1
 62
   256
176
     0
 40
1.0
176
     0
 90
        2
176
     1
  1
strokes_ogs.tif
176
     1
290
     0
176
     1
 40
1.0
176
     1
 40
1.0
176
     1
1001
ACAD
1000
AcDbSavedByObjectVersion
1070
     0
  0
VISUALSTYLE
  5
35
102
{ACAD_REACTORS
330
29
102
}
330
29
100
AcDbVisualStyle
  2
Brighten
 70
    12
177
     3
291
     1
 70
    58
 90
        2
176
     1
 90
        2
176
     1
 90
        0
176
     1
 90
        0
176
     1
 40
0.6
176
     1
 40
30.0
176
     1
 62
     7
420
 16777215
176
     1
 90
        1
176
     1
 90
        4
176
     1
 62
     7
176
     1
 62
   257
176
     1
 90
        1
176
     1
 90
        1
176
     1
 40
1.0
176
     1
 90
        8
176
     1
 62
     7
176
     1
 40
1.0
176
     1
 90
        1
176
     1
 90
        6
176
     1
 90
        2
176
     1
 62
     7
176
     1
 90
        5
176
     1
 90
        0
176
     1
 90
        0
176
     1
290
     0
176
     1
 90
        1
176
     1
 40
50.0
176
     1
 90
        0
176
     1
290
     0
176
     1
290
     1
176
     1
290
     1
176
     1
290
     0
176
     1
290
     0
176
     1
290
     0
176
     1
290
     0
176
     1
290
     0
176
     1
290
     0
176
     1
 90
       50
176
     1
 40
0.0
176
     1
 40
1.0
176
     1
 90
        0
176
     1
 62
    18
420
        0
176
     1
 90
       50
176
     1
 90
        3
176
     1
 62
     5
420
      255
176
     1
290
     0
176
     1
 90
       50
176
     1
 90
       50
176
     1
 90
       50
176
     1
290
     0
176
     1
 90
       50
176
     1
 62
   256
176
     0
 40
1.0
176
     0
 90
        2
176
     1
  1
strokes_ogs.tif
176
     1
290
     0
176
     1
 40
1.0
176
     1
 40
1.0
176
     1
1001
ACAD
1000
AcDbSavedByObjectVersion
1070
     0
  0
VISUALSTYLE
  5
39
102
{ACAD_REACTORS
330
29
102
}
330
29
100
AcDbVisualStyle
  2
ColorChange
 70
    16
177
     3
291
     1
 70
    58
 90
        2
176
     1
 90
        2
176
     1
 90
        3
176
     1
 90
        0
176
     1
 40
0.6
176
     1
 40
30.0
176
     1
 62
     8
420
  8421504
176
     1
 90
        1
176
     1
 90
        4
176
     1
 62
     7
176
     1
 62
   257
176
     1
 90
        1
176
     1
 90
        1
176
     1
 40
1.0
176
     1
 90
        8
176
     1
 62
     8
420
  8421504
176
     1
 40
1.0
176
     1
 90
        1
176
     1
 90
        6
176
     1
 90
        2
176
     1
 62
     7
176
     1
 90
        5
176
     1
 90
        0
176
     1
 90
        0
176
     1
290
     0
176
     1
 90
        1
176
     1
 40
0.0
176
     1
 90
        0
176
     1
290
     0
176
     1
290
     1
176
     1
290
     1
176
     1
290
     0
176
     1
290
     0
176
     1
290
     0
176
     1
290
     0
176
     1
290
     0
176
     1
290
     0
176
     1
 90
       50
176
     1
 40
0.0
176
     1
 40
1.0
176
     1
 90
        0
176
     1
 62
    18
420
        0
176
     1
 90
       50
176
     1
 90
        3
176
     1
 62
     5
420
      255
176
     1
290
     0
176
     1
 90
       50
176
     1
 90
       50
176
     1
 90
       50
176
     1
290
     0
176
     1
 90
       50
176
     1
 62
   256
176
     0
 40
1.0
176
     0
 90
        2
176
     1
  1
strokes_ogs.tif
176
     1
290
     0
176
     1
 40
1.0
176
     1
 40
1.0
176
     1
1001
ACAD
1000
AcDbSavedByObjectVersion
1070
     0
  0
VISUALSTYLE
  5
32
102
{ACAD_REACTORS
330
29
102
}
330
29
100
AcDbVisualStyle
  2
Conceptual
 70
     9
177
     3
291
     0
 70
    58
 90
        3
176
     1
 90
        2
176
     1
 90
        0
176
     1
 90
        0
176
     1
 40
0.6
176
     1
 40
30.0
176
     1
 62
     7
420
 16777215
176
     1
 90
        2
176
     1
 90
        2
176
     1
 62
     7
176
     1
 62
   257
176
     1
 90
        1
176
     1
 90
        1
176
     1
 40
179.0
176
     1
 90
        8
176
     1
 62
     7
176
     1
 40
1.0
176
     1
 90
        1
176
     1
 90
        6
176
     1
 90
        2
176
     1
 62
     7
176
     1
 90
        3
176
     1
 90
        0
176
     1
 90
        0
176
     1
290
     0
176
     1
 90
        1
176
     1
 40
0.0
176
     1
 90
        0
176
     1
290
     0
176
     1
290
     1
176
     1
290
     1
176
     1
290
     0
176
     1
290
     0
176
     1
290
     0
176
     1
290
     0
176
     1
290
     0
176
     1
290
     0
176
     1
 90
       50
176
     1
 40
0.0
176
     1
 40
1.0
176
     1
 90
        0
176
     1
 62
    18
420
        0
176
     1
 90
       50
176
     1
 90
        3
176
     1
 62
     5
420
      255
176
     1
290
     0
176
     1
 90
       50
176
     1
 90
       50
176
     1
 90
       50
176
     1
290
     0
176
     1
 90
       50
176
     1
 62
   256
176
     0
 40
1.0
176
     0
 90
        2
176
     1
  1
strokes_ogs.tif
176
     1
290
     0
176
     1
 40
1.0
176
     1
 40
1.0
176
     1
1001
ACAD
1000
AcDbSavedByObjectVersion
1070
     0
  0
VISUALSTYLE
  5
34
102
{ACAD_REACTORS
330
29
102
}
330
29
100
AcDbVisualStyle
  2
Dim
 70
    11
177
     3
291
     1
 70
    58
 90
        2
176
     1
 90
        2
176
     1
 90
        0
176
     1
 90
        0
176
     1
 40
0.6
176
     1
 40
30.0
176
     1
 62
     7
420
 16777215
176
     1
 90
        1
176
     1
 90
        4
176
     1
 62
     7
176
     1
 62
   257
176
     1
 90
        1
176
     1
 90
        1
176
     1
 40
1.0
176
     1
 90
        8
176
     1
 62
     7
176
     1
 40
1.0
176
     1
 90
        1
176
     1
 90
        6
176
     1
 90
        2
176
     1
 62
     7
176
     1
 90
        5
176
     1
 90
        0
176
     1
 90
        0
176
     1
290
     0
176
     1
 90
        1
176
     1
 40
-50.0
176
     1
 90
        0
176
     1
290
     0
176
     1
290
     1
176
     1
290
     1
176
     1
290
     0
176
     1
290
     0
176
     1
290
     0
176
     1
290
     0
176
     1
290
     0
176
     1
290
     0
176
     1
 90
       50
176
     1
 40
0.0
176
     1
 40
1.0
176
     1
 90
        0
176
     1
 62
    18
420
        0
176
     1
 90
       50
176
     1
 90
        3
176
     1
 62
     5
420
      255
176
     1
290
     0
176
     1
 90
       50
176
     1
 90
       50
176
     1
 90
       50
176
     1
290
     0
176
     1
 90
       50
176
     1
 62
   256
176
     0
 40
1.0
176
     0
 90
        2
176
     1
  1
strokes_ogs.tif
176
     1
290
     0
176
     1
 40
1.0
176
     1
 40
1.0
176
     1
1001
ACAD
1000
AcDbSavedByObjectVersion
1070
     0
  0
VISUALSTYLE
  5
41
102
{ACAD_REACTORS
330
29
102
}
330
29
100
AcDbVisualStyle
  2
EdgeColorOff
 70
    22
177
     3
291
     1
 70
    58
 90
        2
176
     0
 90
        2
176
     0
 90
        0
176
     0
 90
        0
176
     0
 40
0.6
176
     0
 40
30.0
176
     0
 62
     7
420
 16777215
176
     0
 90
        1
176
     0
 90
        4
176
     0
 62
     7
176
     0
 62
   257
176
     0
 90
        1
176
     0
 90
        1
176
     0
 40
1.0
176
     0
 90
        8
176
     2
 62
     7
176
     0
 40
1.0
176
     0
 90
        1
176
     0
 90
        6
176
     0
 90
        2
176
     0
 62
     7
176
     0
 90
        5
176
     0
 90
        0
176
     0
 90
        0
176
     0
290
     0
176
     0
 90
        1
176
     0
 40
0.0
176
     0
 90
        0
176
     0
290
     0
176
     0
290
     1
176
     0
290
     1
176
     0
290
     0
176
     0
290
     0
176
     0
290
     0
176
     0
290
     0
176
     0
290
     0
176
     0
290
     0
176
     0
 90
       50
176
     0
 40
0.0
176
     0
 40
1.0
176
     0
 90
        0
176
     0
 62
    18
420
        0
176
     0
 90
       50
176
     0
 90
        3
176
     0
 62
     5
420
      255
176
     0
290
     0
176
     0
 90
       50
176
     0
 90
       50
176
     0
 90
       50
176
     0
290
     0
176
     0
 90
       50
176
     0
 62
   256
176
     0
 40
1.0
176
     0
 90
        2
176
     0
  1
strokes_ogs.tif
176
     0
290
     0
176
     0
 40
1.0
176
     0
 40
1.0
176
     0
1001
ACAD
1000
AcDbSavedByObjectVersion
1070
     0
  0
VISUALSTYLE
  5
38
102
{ACAD_REACTORS
330
29
102
}
330
29
100
AcDbVisualStyle
  2
Facepattern
 70
    15
177
     3
291
     1
 70
    58
 90
        2
176
     1
 90
        2
176
     1
 90
        0
176
     1
 90
        0
176
     1
 40
0.6
176
     1
 40
30.0
176
     1
 62
     7
420
 16777215
176
     1
 90
        1
176
     1
 90
        4
176
     1
 62
     7
176
     1
 62
   257
176
     1
 90
        1
176
     1
 90
        1
176
     1
 40
1.0
176
     1
 90
        8
176
     1
 62
     7
176
     1
 40
1.0
176
     1
 90
        1
176
     1
 90
        6
176
     1
 90
        2
176
     1
 62
     7
176
     1
 90
        5
176
     1
 90
        0
176
     1
 90
        0
176
     1
290
     0
176
     1
 90
        1
176
     1
 40
0.0
176
     1
 90
        0
176
     1
290
     0
176
     1
290
     1
176
     1
290
     1
176
     1
290
     0
176
     1
290
     0
176
     1
290
     0
176
     1
290
     0
176
     1
290
     0
176
     1
290
     0
176
     1
 90
       50
176
     1
 40
0.0
176
     1
 40
1.0
176
     1
 90
        0
176
     1
 62
    18
420
        0
176
     1
 90
       50
176
     1
 90
        3
176
     1
 62
     5
420
      255
176
     1
290
     0
176
     1
 90
       50
176
     1
 90
       50
176
     1
 90
       50
176
     1
290
     0
176
     1
 90
       50
176
     1
 62
   256
176
     0
 40
1.0
176
     0
 90
        2
176
     1
  1
strokes_ogs.tif
176
     1
290
     0
176
     1
 40
1.0
176
     1
 40
1.0
176
     1
1001
ACAD
1000
AcDbSavedByObjectVersion
1070
     0
  0
VISUALSTYLE
  5
2A
102
{ACAD_REACTORS
330
29
102
}
330
29
100
AcDbVisualStyle
  2
Flat
 70
     0
177
     3
291
     1
 70
    58
 90
        2
176
     1
 90
        1
176
     1
 90
        1
176
     1
 90
        2
176
     1
 40
0.6
176
     1
 40
30.0
176
     1
 62
     7
420
 16777215
176
     1
 90
        0
176
     1
 90
        0
176
     1
 62
     7
176
     1
 62
   257
176
     1
 90
        1
176
     1
 90
        1
176
     1
 40
1.0
176
     1
 90
        8
176
     1
 62
     7
176
     1
 40
1.0
176
     1
 90
        1
176
     1
 90
        6
176
     1
 90
        2
176
     1
 62
     7
176
     1
 90
        5
176
     1
 90
        0
176
     1
 90
        0
176
     1
290
     0
176
     1
 90
       13
176
     1
 40
0.0
176
     1
 90
        0
176
     1
290
     0
176
     1
290
     1
176
     1
290
     1
176
     1
290
     0
176
     1
290
     0
176
     1
290
     0
176
     1
290
     0
176
     1
290
     0
176
     1
290
     0
176
     1
 90
       50
176
     1
 40
0.0
176
     1
 40
1.0
176
     1
 90
        0
176
     1
 62
    18
420
        0
176
     1
 90
       50
176
     1
 90
        3
176
     1
 62
     5
420
      255
176
     1
290
     0
176
     1
 90
       50
176
     1
 90
       50
176
     1
 90
       50
176
     1
290
     0
176
     1
 90
       50
176
     1
 62
   256
176
     0
 40
1.0
176
     0
 90
        2
176
     1
  1
strokes_ogs.tif
176
     1
290
     0
176
     1
 40
1.0
176
     1
 40
1.0
176
     1
1001
ACAD
1000
AcDbSavedByObjectVersion
1070
     0
  0
VISUALSTYLE
  5
2B
102
{ACAD_REACTORS
330
29
102
}
330
29
100
AcDbVisualStyle
  2
FlatWithEdges
 70
     1
177
     3
291
     1
 70
    58
 90
        2
176
     1
 90
        1
176
     1
 90
        1
176
     1
 90
        2
176
     1
 40
0.6
176
     1
 40
30.0
176
     1
 62
     7
420
 16777215
176
     1
 90
        1
176
     1
 90
        0
176
     1
 62
     7
176
     1
 62
   257
176
     1
 90
        1
176
     1
 90
        1
176
     1
 40
1.0
176
     1
 90
        0
176
     1
 62
   257
176
     1
 40
1.0
176
     1
 90
        1
176
     1
 90
        6
176
     1
 90
        2
176
     1
 62
     7
176
     1
 90
        5
176
     1
 90
        0
176
     1
 90
        0
176
     1
290
     0
176
     1
 90
       13
176
     1
 40
0.0
176
     1
 90
        0
176
     1
290
     0
176
     1
290
     1
176
     1
290
     1
176
     1
290
     0
176
     1
290
     0
176
     1
290
     0
176
     1
290
     0
176
     1
290
     0
176
     1
290
     0
176
     1
 90
       50
176
     1
 40
0.0
176
     1
 40
1.0
176
     1
 90
        0
176
     1
 62
    18
420
        0
176
     1
 90
       50
176
     1
 90
        3
176
     1
 62
     5
420
      255
176
     1
290
     0
176
     1
 90
       50
176
     1
 90
       50
176
     1
 90
       50
176
     1
290
     0
176
     1
 90
       50
176
     1
 62
   256
176
     0
 40
1.0
176
     0
 90
        2
176
     1
  1
strokes_ogs.tif
176
     1
290
     0
176
     1
 40
1.0
176
     1
 40
1.0
176
     1
1001
ACAD
1000
AcDbSavedByObjectVersion
1070
     0
  0
VISUALSTYLE
  5
2C
102
{ACAD_REACTORS
330
29
102
}
330
29
100
AcDbVisualStyle
  2
Gouraud
 70
     2
177
     3
291
     1
 70
    58
 90
        2
176
     1
 90
        2
176
     1
 90
        1
176
     1
 90
        2
176
     1
 40
0.6
176
     1
 40
30.0
176
     1
 62
     7
420
 16777215
176
     1
 90
        0
176
     1
 90
        0
176
     1
 62
     7
176
     1
 62
   257
176
     1
 90
        1
176
     1
 90
        1
176
     1
 40
1.0
176
     1
 90
        0
176
     1
 62
     7
176
     1
 40
1.0
176
     1
 90
        1
176
     1
 90
        6
176
     1
 90
        2
176
     1
 62
     7
176
     1
 90
        5
176
     1
 90
        0
176
     1
 90
        0
176
     1
290
     0
176
     1
 90
       13
176
     1
 40
0.0
176
     1
 90
        0
176
     1
290
     0
176
     1
290
     1
176
     1
290
     1
176
     1
290
     0
176
     1
290
     0
176
     1
290
     0
176
     1
290
     0
176
     1
290
     0
176
     1
290
     0
176
     1
 90
       50
176
     1
 40
0.0
176
     1
 40
1.0
176
     1
 90
        0
176
     1
 62
    18
420
        0
176
     1
 90
       50
176
     1
 90
        3
176
     1
 62
     5
420
      255
176
     1
290
     0
176
     1
 90
       50
176
     1
 90
       50
176
     1
 90
       50
176
     1
290
     0
176
     1
 90
       50
176
     1
 62
   256
176
     0
 40
1.0
176
     0
 90
        2
176
     1
  1
strokes_ogs.tif
176
     1
290
     0
176
     1
 40
1.0
176
     1
 40
1.0
176
     1
1001
ACAD
1000
AcDbSavedByObjectVersion
1070
     0
  0
VISUALSTYLE
  5
2D
102
{ACAD_REACTORS
330
29
102
}
330
29
100
AcDbVisualStyle
  2
GouraudWithEdges
 70
     3
177
     3
291
     1
 70
    58
 90
        2
176
     1
 90
        2
176
     1
 90
        1
176
     1
 90
        2
176
     1
 40
0.6
176
     1
 40
30.0
176
     1
 62
     7
420
 16777215
176
     1
 90
        1
176
     1
 90
        0
176
     1
 62
     7
176
     1
 62
   257
176
     1
 90
        1
176
     1
 90
        1
176
     1
 40
1.0
176
     1
 90
        0
176
     1
 62
   257
176
     1
 40
1.0
176
     1
 90
        1
176
     1
 90
        6
176
     1
 90
        2
176
     1
 62
     7
176
     1
 90
        5
176
     1
 90
        0
176
     1
 90
        0
176
     1
290
     0
176
     1
 90
       13
176
     1
 40
0.0
176
     1
 90
        0
176
     1
290
     0
176
     1
290
     1
176
     1
290
     1
176
     1
290
     0
176
     1
290
     0
176
     1
290
     0
176
     1
290
     0
176
     1
290
     0
176
     1
290
     0
176
     1
 90
       50
176
     1
 40
0.0
176
     1
 40
1.0
176
     1
 90
        0
176
     1
 62
    18
420
        0
176
     1
 90
       50
176
     1
 90
        3
176
     1
 62
     5
420
      255
176
     1
290
     0
176
     1
 90
       50
176
     1
 90
       50
176
     1
 90
       50
176
     1
290
     0
176
     1
 90
       50
176
     1
 62
   256
176
     0
 40
1.0
176
     0
 90
        2
176
     1
  1
strokes_ogs.tif
176
     1
290
     0
176
     1
 40
1.0
176
     1
 40
1.0
176
     1
1001
ACAD
1000
AcDbSavedByObjectVersion
1070
     0
  0
VISUALSTYLE
  5
31
102
{ACAD_REACTORS
330
29
102
}
330
29
100
AcDbVisualStyle
  2
Hidden
 70
     6
177
     3
291
     0
 70
    58
 90
        1
176
     1
 90
        2
176
     1
 90
        2
176
     1
 90
        0
176
     1
 40
0.6
176
     1
 40
30.0
176
     1
 62
     7
420
 16777215
176
     1
 90
        2
176
     1
 90
        2
176
     1
 62
     7
176
     1
 62
   257
176
     1
 90
        2
176
     1
 90
        1
176
     1
 40
40.0
176
     1
 90
        0
176
     1
 62
   257
176
     1
 40
1.0
176
     1
 90
        1
176
     1
 90
        6
176
     1
 90
        2
176
     1
 62
     7
176
     1
 90
        3
176
     1
 90
        0
176
     1
 90
        0
176
     1
290
     0
176
     1
 90
        1
176
     1
 40
0.0
176
     1
 90
        0
176
     1
290
     0
176
     1
290
     1
176
     1
290
     1
176
     1
290
     0
176
     1
290
     0
176
     1
290
     0
176
     1
290
     0
176
     1
290
     0
176
     1
290
     0
176
     1
 90
       50
176
     1
 40
0.0
176
     1
 40
1.0
176
     1
 90
        0
176
     1
 62
    18
420
        0
176
     1
 90
       50
176
     1
 90
        3
176
     1
 62
     5
420
      255
176
     1
290
     0
176
     1
 90
       50
176
     1
 90
       50
176
     1
 90
       50
176
     1
290
     0
176
     1
 90
       50
176
     1
 62
   256
176
     0
 40
1.0
176
     0
 90
        2
176
     1
  1
strokes_ogs.tif
176
     1
290
     0
176
     1
 40
1.0
176
     1
 40
1.0
176
     1
1001
ACAD
1000
AcDbSavedByObjectVersion
1070
     0
  0
VISUALSTYLE
  5
3F
102
{ACAD_REACTORS
330
29
102
}
330
29
100
AcDbVisualStyle
  2
JitterOff
 70
    20
177
     3
291
     1
 70
    58
 90
        2
176
     0
 90
        2
176
     0
 90
        0
176
     0
 90
        0
176
     0
 40
0.6
176
     0
 40
30.0
176
     0
 62
     7
420
 16777215
176
     0
 90
        1
176
     0
 90
        4
176
     0
 62
     7
176
     0
 62
   257
176
     0
 90
        1
176
     0
 90
        1
176
     0
 40
1.0
176
     0
 90
       10
176
     2
 62
     7
176
     0
 40
1.0
176
     0
 90
        1
176
     0
 90
        6
176
     0
 90
        2
176
     0
 62
     7
176
     0
 90
        5
176
     0
 90
        0
176
     0
 90
        0
176
     0
290
     0
176
     0
 90
        1
176
     0
 40
0.0
176
     0
 90
        0
176
     0
290
     0
176
     0
290
     1
176
     0
290
     1
176
     0
290
     0
176
     0
290
     0
176
     0
290
     0
176
     0
290
     0
176
     0
290
     0
176
     0
290
     0
176
     0
 90
       50
176
     0
 40
0.0
176
     0
 40
1.0
176
     0
 90
        0
176
     0
 62
    18
420
        0
176
     0
 90
       50
176
     0
 90
        3
176
     0
 62
     5
420
      255
176
     0
290
     0
176
     0
 90
       50
176
     0
 90
       50
176
     0
 90
       50
176
     0
290
     0
176
     0
 90
       50
176
     0
 62
   256
176
     0
 40
1.0
176
     0
 90
        2
176
     0
  1
strokes_ogs.tif
176
     0
290
     0
176
     0
 40
1.0
176
     0
 40
1.0
176
     0
1001
ACAD
1000
AcDbSavedByObjectVersion
1070
     0
  0
VISUALSTYLE
  5
37
102
{ACAD_REACTORS
330
29
102
}
330
29
100
AcDbVisualStyle
  2
Linepattern
 70
    14
177
     3
291
     1
 70
    58
 90
        2
176
     1
 90
        2
176
     1
 90
        0
176
     1
 90
        0
176
     1
 40
0.6
176
     1
 40
30.0
176
     1
 62
     7
420
 16777215
176
     1
 90
        1
176
     1
 90
        4
176
     1
 62
     7
176
     1
 62
   257
176
     1
 90
        7
176
     1
 90
        7
176
     1
 40
1.0
176
     1
 90
        8
176
     1
 62
     7
176
     1
 40
1.0
176
     1
 90
        1
176
     1
 90
        6
176
     1
 90
        2
176
     1
 62
     7
176
     1
 90
        5
176
     1
 90
        0
176
     1
 90
        0
176
     1
290
     0
176
     1
 90
        1
176
     1
 40
0.0
176
     1
 90
        0
176
     1
290
     0
176
     1
290
     1
176
     1
290
     1
176
     1
290
     0
176
     1
290
     0
176
     1
290
     0
176
     1
290
     0
176
     1
290
     0
176
     1
290
     0
176
     1
 90
       50
176
     1
 40
0.0
176
     1
 40
1.0
176
     1
 90
        0
176
     1
 62
    18
420
        0
176
     1
 90
       50
176
     1
 90
        3
176
     1
 62
     5
420
      255
176
     1
290
     0
176
     1
 90
       50
176
     1
 90
       50
176
     1
 90
       50
176
     1
290
     0
176
     1
 90
       50
176
     1
 62
   256
176
     0
 40
1.0
176
     0
 90
        2
176
     1
  1
strokes_ogs.tif
176
     1
290
     0
176
     1
 40
1.0
176
     1
 40
1.0
176
     1
1001
ACAD
1000
AcDbSavedByObjectVersion
1070
     0
  0
VISUALSTYLE
  5
40
102
{ACAD_REACTORS
330
29
102
}
330
29
100
AcDbVisualStyle
  2
OverhangOff
 70
    21
177
     3
291
     1
 70
    58
 90
        2
176
     0
 90
        2
176
     0
 90
        0
176
     0
 90
        0
176
     0
 40
0.6
176
     0
 40
30.0
176
     0
 62
     7
420
 16777215
176
     0
 90
        1
176
     0
 90
        4
176
     0
 62
     7
176
     0
 62
   257
176
     0
 90
        1
176
     0
 90
        1
176
     0
 40
1.0
176
     0
 90
        9
176
     2
 62
     7
176
     0
 40
1.0
176
     0
 90
        1
176
     0
 90
        6
176
     0
 90
        2
176
     0
 62
     7
176
     0
 90
        5
176
     0
 90
        0
176
     0
 90
        0
176
     0
290
     0
176
     0
 90
        1
176
     0
 40
0.0
176
     0
 90
        0
176
     0
290
     0
176
     0
290
     1
176
     0
290
     1
176
     0
290
     0
176
     0
290
     0
176
     0
290
     0
176
     0
290
     0
176
     0
290
     0
176
     0
290
     0
176
     0
 90
       50
176
     0
 40
0.0
176
     0
 40
1.0
176
     0
 90
        0
176
     0
 62
    18
420
        0
176
     0
 90
       50
176
     0
 90
        3
176
     0
 62
     5
420
      255
176
     0
290
     0
176
     0
 90
       50
176
     0
 90
       50
176
     0
 90
       50
176
     0
290
     0
176
     0
 90
       50
176
     0
 62
   256
176
     0
 40
1.0
176
     0
 90
        2
176
     0
  1
strokes_ogs.tif
176
     0
290
     0
176
     0
 40
1.0
176
     0
 40
1.0
176
     0
1001
ACAD
1000
AcDbSavedByObjectVersion
1070
     0
  0
VISUALSTYLE
  5
33
102
{ACAD_REACTORS
330
29
102
}
330
29
100
AcDbVisualStyle
  2
Realistic
 70
     8
177
     3
291
     0
 70
    58
 90
        2
176
     1
 90
        3
176
     1
 90
        0
176
     1
 90
        2
176
     1
 40
0.6
176
     1
 40
30.0
176
     1
 62
     7
420
 16777215
176
     1
 90
        0
176
     1
 90
        0
176
     1
 62
     7
176
     1
 62
   257
176
     1
 90
        1
176
     1
 90
        1
176
     1
 40
1.0
176
     1
 90
        8
176
     1
 62
   257
176
     1
 40
1.0
176
     1
 90
        1
176
     1
 90
        6
176
     1
 90
        2
176
     1
 62
     7
176
     1
 90
        3
176
     1
 90
        0
176
     1
 90
        0
176
     1
290
     0
176
     1
 90
       13
176
     1
 40
0.0
176
     1
 90
        0
176
     1
290
     0
176
     1
290
     1
176
     1
290
     1
176
     1
290
     0
176
     1
290
     0
176
     1
290
     0
176
     1
290
     0
176
     1
290
     0
176
     1
290
     0
176
     1
 90
       50
176
     1
 40
0.0
176
     1
 40
1.0
176
     1
 90
        0
176
     1
 62
    18
420
        0
176
     1
 90
       50
176
     1
 90
        3
176
     1
 62
     5
420
      255
176
     1
290
     0
176
     1
 90
       50
176
     1
 90
       50
176
     1
 90
       50
176
     1
290
     0
176
     1
 90
       50
176
     1
 62
   256
176
     0
 40
1.0
176
     0
 90
        2
176
     1
  1
strokes_ogs.tif
176
     1
290
     0
176
     1
 40
1.0
176
     1
 40
1.0
176
     1
1001
ACAD
1000
AcDbSavedByObjectVersion
1070
     0
  0
VISUALSTYLE
  5
3E
102
{ACAD_REACTORS
330
29
102
}
330
29
100
AcDbVisualStyle
  2
Shaded
 70
    27
177
     3
291
     0
 70
    58
 90
        2
176
     1
 90
        2
176
     1
 90
        1
176
     1
 90
        2
176
     1
 40
0.6
176
     1
 40
30.0
176
     1
 62
     7
420
 16777215
176
     1
 90
        0
176
     1
 90
        4
176
     1
 62
     7
176
     1
 62
   257
176
     1
 90
        1
176
     1
 90
        1
176
     1
 40
1.0
176
     1
 90
        8
176
     1
 62
   257
176
     1
 40
1.0
176
     1
 90
        1
176
     1
 90
        6
176
     1
 90
        2
176
     1
 62
     8
420
  7895160
176
     1
 90
        3
176
     1
 90
        0
176
     1
 90
        0
176
     1
290
     0
176
     1
 90
        5
176
     1
 40
0.0
176
     1
 90
        0
176
     1
290
     0
176
     1
290
     1
176
     1
290
     1
176
     1
290
     0
176
     1
290
     0
176
     1
290
     0
176
     1
290
     0
176
     1
290
     0
176
     1
290
     0
176
     1
 90
       50
176
     1
 40
0.0
176
     1
 40
1.0
176
     1
 90
        0
176
     1
 62
    18
420
        0
176
     1
 90
       50
176
     1
 90
        3
176
     1
 62
     5
420
      255
176
     1
290
     0
176
     1
 90
       50
176
     1
 90
       50
176
     1
 90
       50
176
     1
290
     0
176
     1
 90
       50
176
     1
 62
   256
176
     0
 40
1.0
176
     0
 90
        2
176
     1
  1
strokes_ogs.tif
176
     1
290
     0
176
     1
 40
1.0
176
     1
 40
1.0
176
     1
1001
ACAD
1000
AcDbSavedByObjectVersion
1070
     0
  0
VISUALSTYLE
  5
3D
102
{ACAD_REACTORS
330
29
102
}
330
29
100
AcDbVisualStyle
  2
Shaded with edges
 70
    26
177
     3
291
     0
 70
    58
 90
        2
176
     1
 90
        2
176
     1
 90
        1
176
     1
 90
        2
176
     1
 40
0.6
176
     1
 40
30.0
176
     1
 62
     7
420
 16777215
176
     1
 90
        1
176
     1
 90
        2
176
     1
 62
     7
176
     1
 62
   257
176
     1
 90
        2
176
     1
 90
        1
176
     1
 40
1.0
176
     1
 90
        8
176
     1
 62
   257
176
     1
 40
1.0
176
     1
 90
        1
176
     1
 90
        6
176
     1
 90
        2
176
     1
 62
     7
176
     1
 90
        3
176
     1
 90
        0
176
     1
 90
        0
176
     1
290
     0
176
     1
 90
        5
176
     1
 40
0.0
176
     1
 90
        0
176
     1
290
     0
176
     1
290
     1
176
     1
290
     1
176
     1
290
     0
176
     1
290
     0
176
     1
290
     0
176
     1
290
     0
176
     1
290
     0
176
     1
290
     0
176
     1
 90
       50
176
     1
 40
0.0
176
     1
 40
1.0
176
     1
 90
        0
176
     1
 62
    18
420
        0
176
     1
 90
       50
176
     1
 90
        3
176
     1
 62
     5
420
      255
176
     1
290
     0
176
     1
 90
       50
176
     1
 90
       50
176
     1
 90
       50
176
     1
290
     0
176
     1
 90
       50
176
     1
 62
   256
176
     0
 40
1.0
176
     0
 90
        2
176
     1
  1
strokes_ogs.tif
176
     1
290
     0
176
     1
 40
1.0
176
     1
 40
1.0
176
     1
1001
ACAD
1000
AcDbSavedByObjectVersion
1070
     0
  0
VISUALSTYLE
  5
3A
102
{ACAD_REACTORS
330
29
102
}
330
29
100
AcDbVisualStyle
  2
Shades of Gray
 70
    23
177
     3
291
     0
 70
    58
 90
        2
176
     1
 90
        2
176
     1
 90
        3
176
     1
 90
        0
176
     1
 40
0.6
176
     1
 40
30.0
176
     1
 62
     7
420
 16777215
176
     1
 90
        2
176
     1
 90
        2
176
     1
 62
     7
176
     1
 62
     7
176
     1
 90
        1
176
     1
 90
        1
176
     1
 40
40.0
176
     1
 90
        8
176
     1
 62
     7
176
     1
 40
1.0
176
     1
 90
        1
176
     1
 90
        6
176
     1
 90
        2
176
     1
 62
     7
176
     1
 90
        3
176
     1
 90
        0
176
     1
 90
        0
176
     1
290
     0
176
     1
 90
        1
176
     1
 40
0.0
176
     1
 90
        0
176
     1
290
     0
176
     1
290
     1
176
     1
290
     1
176
     1
290
     0
176
     1
290
     0
176
     1
290
     0
176
     1
290
     0
176
     1
290
     0
176
     1
290
     0
176
     1
 90
       50
176
     1
 40
0.0
176
     1
 40
1.0
176
     1
 90
        0
176
     1
 62
    18
420
        0
176
     1
 90
       50
176
     1
 90
        3
176
     1
 62
     5
420
      255
176
     1
290
     0
176
     1
 90
       50
176
     1
 90
       50
176
     1
 90
       50
176
     1
290
     0
176
     1
 90
       50
176
     1
 62
   256
176
     0
 40
1.0
176
     0
 90
        2
176
     1
  1
strokes_ogs.tif
176
     1
290
     0
176
     1
 40
1.0
176
     1
 40
1.0
176
     1
1001
ACAD
1000
AcDbSavedByObjectVersion
1070
     0
  0
VISUALSTYLE
  5
3B
102
{ACAD_REACTORS
330
29
102
}
330
29
100
AcDbVisualStyle
  2
Sketchy
 70
    24
177
     3
291
     0
 70
    58
 90
        1
176
     1
 90
        2
176
     1
 90
        2
176
     1
 90
        0
176
     1
 40
0.6
176
     1
 40
30.0
176
     1
 62
     7
420
 16777215
176
     1
 90
        2
176
     1
 90
        2
176
     1
 62
     7
176
     1
 62
     7
176
     1
 90
        1
176
     1
 90
        1
176
     1
 40
40.0
176
     1
 90
       11
176
     1
 62
     7
176
     1
 40
1.0
176
     1
 90
        1
176
     1
 90
        6
176
     1
 90
        2
176
     1
 62
     7
176
     1
 90
        6
176
     1
 90
        0
176
     1
 90
        0
176
     1
290
     0
176
     1
 90
        1
176
     1
 40
0.0
176
     1
 90
        0
176
     1
290
     0
176
     1
290
     1
176
     1
290
     1
176
     1
290
     0
176
     1
290
     0
176
     1
290
     0
176
     1
290
     0
176
     1
290
     0
176
     1
290
     0
176
     1
 90
       50
176
     1
 40
0.0
176
     1
 40
1.0
176
     1
 90
        0
176
     1
 62
    18
420
        0
176
     1
 90
       50
176
     1
 90
        3
176
     1
 62
     5
420
      255
176
     1
290
     0
176
     1
 90
       50
176
     1
 90
       50
176
     1
 90
       50
176
     1
290
     0
176
     1
 90
       50
176
     1
 62
   256
176
     0
 40
1.0
176
     0
 90
        2
176
     1
  1
strokes_ogs.tif
176
     1
290
     0
176
     1
 40
1.0
176
     1
 40
1.0
176
     1
1001
ACAD
1000
AcDbSavedByObjectVersion
1070
     0
  0
VISUALSTYLE
  5
36
102
{ACAD_REACTORS
330
29
102
}
330
29
100
AcDbVisualStyle
  2
Thicken
 70
    13
177
     3
291
     1
 70
    58
 90
        2
176
     1
 90
        2
176
     1
 90
        0
176
     1
 90
        0
176
     1
 40
0.6
176
     1
 40
30.0
176
     1
 62
     7
420
 16777215
176
     1
 90
        1
176
     1
 90
        4
176
     1
 62
     7
176
     1
 62
   257
176
     1
 90
        1
176
     1
 90
        1
176
     1
 40
1.0
176
     1
 90
       12
176
     1
 62
     7
176
     1
 40
1.0
176
     1
 90
        1
176
     1
 90
        6
176
     1
 90
        2
176
     1
 62
     7
176
     1
 90
        5
176
     1
 90
        0
176
     1
 90
        0
176
     1
290
     0
176
     1
 90
        1
176
     1
 40
0.0
176
     1
 90
        0
176
     1
290
     0
176
     1
290
     1
176
     1
290
     1
176
     1
290
     0
176
     1
290
     0
176
     1
290
     0
176
     1
290
     0
176
     1
290
     0
176
     1
290
     0
176
     1
 90
       50
176
     1
 40
0.0
176
     1
 40
1.0
176
     1
 90
        0
176
     1
 62
    18
420
        0
176
     1
 90
       50
176
     1
 90
        3
176
     1
 62
     5
420
      255
176
     1
290
     0
176
     1
 90
       50
176
     1
 90
       50
176
     1
 90
       50
176
     1
290
     0
176
     1
 90
       50
176
     1
 62
   256
176
     0
 40
1.0
176
     0
 90
        2
176
     1
  1
strokes_ogs.tif
176
     1
290
     0
176
     1
 40
1.0
176
     1
 40
1.0
176
     1
1001
ACAD
1000
AcDbSavedByObjectVersion
1070
     0
  0
VISUALSTYLE
  5
30
102
{ACAD_REACTORS
330
29
102
}
330
29
100
AcDbVisualStyle
  2
Wireframe
 70
     5
177
     3
291
     0
 70
    58
 90
        0
176
     1
 90
        2
176
     1
 90
        0
176
     1
 90
        0
176
     1
 40
0.6
176
     1
 40
30.0
176
     1
 62
     7
420
 16777215
176
     1
 90
        1
176
     1
 90
        4
176
     1
 62
     7
176
     1
 62
   257
176
     1
 90
        1
176
     1
 90
        1
176
     1
 40
1.0
176
     1
 90
        0
176
     1
 62
   257
176
     1
 40
1.0
176
     1
 90
        1
176
     1
 90
        6
176
     1
 90
        2
176
     1
 62
     7
176
     1
 90
        3
176
     1
 90
        0
176
     1
 90
        0
176
     1
290
     0
176
     1
 90
        1
176
     1
 40
0.0
176
     1
 90
        0
176
     1
290
     0
176
     1
290
     1
176
     1
290
     1
176
     1
290
     0
176
     1
290
     0
176
     1
290
     0
176
     1
290
     0
176
     1
290
     0
176
     1
290
     0
176
     1
 90
       50
176
     1
 40
0.0
176
     1
 40
1.0
176
     1
 90
        0
176
     1
 62
    18
420
        0
176
     1
 90
       50
176
     1
 90
        3
176
     1
 62
     5
420
      255
176
     1
290
     0
176
     1
 90
       50
176
     1
 90
       50
176
     1
 90
       50
176
     1
290
     0
176
     1
 90
       50
176
     1
 62
   256
176
     0
 40
1.0
176
     0
 90
        2
176
     1
  1
strokes_ogs.tif
176
     1
290
     0
176
     1
 40
1.0
176
     1
 40
1.0
176
     1
1001
ACAD
1000
AcDbSavedByObjectVersion
1070
     0
  0
VISUALSTYLE
  5
3C
102
{ACAD_REACTORS
330
29
102
}
330
29
100
AcDbVisualStyle
  2
X-Ray
 70
    25
177
     3
291
     0
 70
    58
 90
        2
176
     1
 90
        2
176
     1
 90
        1
176
     1
 90
        1
176
     1
 40
0.5
176
     1
 40
30.0
176
     1
 62
     7
420
 16777215
176
     1
 90
        1
176
     1
 90
        0
176
     1
 62
     7
176
     1
 62
   257
176
     1
 90
        1
176
     1
 90
        1
176
     1
 40
1.0
176
     1
 90
        8
176
     1
 62
     7
176
     1
 40
1.0
176
     1
 90
        1
176
     1
 90
        6
176
     1
 90
        2
176
     1
 62
     7
176
     1
 90
        3
176
     1
 90
        0
176
     1
 90
        0
176
     1
290
     0
176
     1
 90
       13
176
     1
 40
0.0
176
     1
 90
        0
176
     1
290
     0
176
     1
290
     1
176
     1
290
     1
176
     1
290
     0
176
     1
290
     0
176
     1
290
     0
176
     1
290
     0
176
     1
290
     0
176
     1
290
     0
176
     1
 90
       50
176
     1
 40
0.0
176
     1
 40
1.0
176
     1
 90
        0
176
     1
 62
    18
420
        0
176
     1
 90
       50
176
     1
 90
        3
176
     1
 62
     5
420
      255
176
     1
290
     0
176
     1
 90
       50
176
     1
 90
       50
176
     1
 90
       50
176
     1
290
     0
176
     1
 90
       50
176
     1
 62
   256
176
     0
 40
1.0
176
     0
 90
        2
176
     1
  1
strokes_ogs.tif
176
     1
290
     0
176
     1
 40
1.0
176
     1
 40
1.0
176
     1
1001
ACAD
1000
AcDbSavedByObjectVersion
1070
     0
  0
DICTIONARYVAR
  5
3DD
102
{ACAD_REACTORS
330
3D8
102
}
330
3D8
100
DictionaryVariables
280
     0
  1
0
  0
DICTIONARYVAR
  5
3DE
102
{ACAD_REACTORS
330
3D8
102
}
330
3D8
100
DictionaryVariables
280
     0
  1
1:1
  0
DICTIONARYVAR
  5
3DA
102
{ACAD_REACTORS
330
3D8
102
}
330
3D8
100
DictionaryVariables
280
     0
  1
STANDARD
  0
DICTIONARYVAR
  5
3D9
102
{ACAD_REACTORS
330
3D8
102
}
330
3D8
100
DictionaryVariables
280
     0
  1
STANDARD
  0
DICTIONARYVAR
  5
3DB
102
{ACAD_REACTORS
330
3D8
102
}
330
3D8
100
DictionaryVariables
280
     0
  1
Imperial24
  0
DICTIONARYVAR
  5
3DC
102
{ACAD_REACTORS
330
3D8
102
}
330
3D8
100
DictionaryVariables
280
     0
  1
Imperial24
  0
DICTIONARY
  5
3E4
330
6B
100
AcDbDictionary
280
     1
281
     1
  3
ACAD_XREC_ROUNDTRIP
360
3E5
  0
DICTIONARY
  5
1A
330
19
100
AcDbDictionary
280
     1
281
     1
  3
BUMPTILE
360
1C
  3
DIFFUSETILE
360
1B
  3
OPACITYTILE
360
1F
  3
REFLECTIONTILE
360
1E
  3
REFRACTIONTILE
360
20
  3
SPECULARTILE
360
1D
  0
DICTIONARY
  5
12
330
11
100
AcDbDictionary
280
     1
281
     1
  3
BUMPTILE
360
14
  3
DIFFUSETILE
360
13
  3
OPACITYTILE
360
17
  3
REFLECTIONTILE
360
16
  3
REFRACTIONTILE
360
18
  3
SPECULARTILE
360
15
  0
DICTIONARY
  5
22
330
21
100
AcDbDictionary
280
     1
281
     1
  3
BUMPTILE
360
24
  3
DIFFUSETILE
360
23
  3
OPACITYTILE
360
27
  3
REFLECTIONTILE
360
26
  3
REFRACTIONTILE
360
28
  3
SPECULARTILE
360
25
  0
DICTIONARY
  5
3E2
330
69
100
AcDbDictionary
280
     1
281
     1
  3
ACAD_XREC_ROUNDTRIP
360
3E3
  0
DICTIONARY
  5
3DF
330
65
100
AcDbDictionary
280
     1
281
     1
  3
ACAD_ROUNDTRIP_2008_TABLESTYLE_CELLSTYLEMAP
360
3E0
  0
XRECORD
  5
3E5
102
{ACAD_REACTORS
330
3E4
102
}
330
3E4
100
AcDbXrecord
280
     1
102
DISPLAYNAME
  1
Imperial24
102
FLAGS
 90
        0
  0
XRECORD
  5
1C
102
{ACAD_REACTORS
330
1A
102
}
330
1A
100
AcDbXrecord
280
     1
270
     1
271
     1
  0
XRECORD
  5
1B
102
{ACAD_REACTORS
330
1A
102
}
330
1A
100
AcDbXrecord
280
     1
270
     1
271
     1
  0
XRECORD
  5
1F
102
{ACAD_REACTORS
330
1A
102
}
330
1A
100
AcDbXrecord
280
     1
270
     1
271
     1
  0
XRECORD
  5
1E
102
{ACAD_REACTORS
330
1A
102
}
330
1A
100
AcDbXrecord
280
     1
270
     1
271
     1
  0
XRECORD
  5
20
102
{ACAD_REACTORS
330
1A
102
}
330
1A
100
AcDbXrecord
280
     1
270
     1
271
     1
  0
XRECORD
  5
1D
102
{ACAD_REACTORS
330
1A
102
}
330
1A
100
AcDbXrecord
280
     1
270
     1
271
     1
  0
XRECORD
  5
14
102
{ACAD_REACTORS
330
12
102
}
330
12
100
AcDbXrecord
280
     1
270
     1
271
     1
  0
XRECORD
  5
13
102
{ACAD_REACTORS
330
12
102
}
330
12
100
AcDbXrecord
280
     1
270
     1
271
     1
  0
XRECORD
  5
17
102
{ACAD_REACTORS
330
12
102
}
330
12
100
AcDbXrecord
280
     1
270
     1
271
     1
  0
XRECORD
  5
16
102
{ACAD_REACTORS
330
12
102
}
330
12
100
AcDbXrecord
280
     1
270
     1
271
     1
  0
XRECORD
  5
18
102
{ACAD_REACTORS
330
12
102
}
330
12
100
AcDbXrecord
280
     1
270
     1
271
     1
  0
XRECORD
  5
15
102
{ACAD_REACTORS
330
12
102
}
330
12
100
AcDbXrecord
280
     1
270
     1
271
     1
  0
XRECORD
  5
24
102
{ACAD_REACTORS
330
22
102
}
330
22
100
AcDbXrecord
280
     1
270
     1
271
     1
  0
XRECORD
  5
23
102
{ACAD_REACTORS
330
22
102
}
330
22
100
AcDbXrecord
280
     1
270
     1
271
     1
  0
XRECORD
  5
27
102
{ACAD_REACTORS
330
22
102
}
330
22
100
AcDbXrecord
280
     1
270
     1
271
     1
  0
XRECORD
  5
26
102
{ACAD_REACTORS
330
22
102
}
330
22
100
AcDbXrecord
280
     1
270
     1
271
     1
  0
XRECORD
  5
28
102
{ACAD_REACTORS
330
22
102
}
330
22
100
AcDbXrecord
280
     1
270
     1
271
     1
  0
XRECORD
  5
25
102
{ACAD_REACTORS
330
22
102
}
330
22
100
AcDbXrecord
280
     1
270
     1
271
     1
  0
XRECORD
  5
3E3
102
{ACAD_REACTORS
330
3E2
102
}
330
3E2
100
AcDbXrecord
280
     1
102
DISPLAYNAME
  1
Imperial24
102
FLAGS
 90
        0
  0
CELLSTYLEMAP
  5
3E0
102
{ACAD_REACTORS
330
3DF
102
}
330
3DF
100
AcDbCellStyleMap
 90
        3
300
CELLSTYLE
  1
TABLEFORMAT_BEGIN
 90
        5
170
     1
 91
        0
 92
    32768
 62
   257
 93
        1
300
CONTENTFORMAT
  1
CONTENTFORMAT_BEGIN
 90
        0
 91
        0
 92
      512
 93
        0
300

 40
0.0
140
1.0
 94
        5
 62
     0
340
55
144
0.25
309
CONTENTFORMAT_END
171
     0
 94
        0
309
TABLEFORMAT_END
  1
CELLSTYLE_BEGIN
 90
        1
 91
        1
300
_TITLE
309
CELLSTYLE_END
300
CELLSTYLE
  1
TABLEFORMAT_BEGIN
 90
        5
170
     1
 91
        0
 92
        0
 62
   257
 93
        1
300
CONTENTFORMAT
  1
CONTENTFORMAT_BEGIN
 90
        0
 91
        0
 92
      512
 93
        0
300

 40
0.0
140
1.0
 94
        5
 62
     0
340
55
144
0.18
309
CONTENTFORMAT_END
171
     0
 94
        0
309
TABLEFORMAT_END
  1
CELLSTYLE_BEGIN
 90
        2
 91
        1
300
_HEADER
309
CELLSTYLE_END
300
CELLSTYLE
  1
TABLEFORMAT_BEGIN
 90
        5
170
     1
 91
        0
 92
        0
 62
   257
 93
        1
300
CONTENTFORMAT
  1
CONTENTFORMAT_BEGIN
 90
        0
 91
        0
 92
      512
 93
        0
300

 40
0.0
140
1.0
 94
        2
 62
     0
340
55
144
0.18
309
CONTENTFORMAT_END
171
     0
 94
        0
309
TABLEFORMAT_END
  1
CELLSTYLE_BEGIN
 90
        3
 91
        2
300
_DATA
309
CELLSTYLE_END
  0
ENDSEC
  0
EOF
