0
SECTION
2
HEADER
9
$INSUNITS
70
1
9
$ACADVER
1
AC1014
9
$HANDSEED
5
FFFF
0
ENDSEC
0
SECTION
2
TABLES
0
TABLE
2
VPORT
5
8
100
AcDbSymbolTable
0
ENDTAB
0
TABLE
2
LTYPE
5
5
100
AcDbSymbolTable
0
LTYPE
5
14
100
AcDbSymbolTableRecord
100
AcDbLinetypeTableRecord
2
BYBLOCK
70
0
0
LTYPE
5
15
100
AcDbSymbolTableRecord
100
AcDbLinetypeTableRecord
2
BYLAYER
70
0
0
ENDTAB
0
TABLE
2
LAYER
5
2
100
AcDbSymbolTable
70
2
0
LAYER
5
50
100
AcDbSymbolTableRecord
100
AcDbLayerTableRecord
2
0
70
0
6
CONTINUOUS
0
ENDTAB
0
TABLE
2
STYLE
5
3
100
AcDbSymbolTable
70
1
0
STYLE
5
11
100
AcDbSymbolTableRecord
100
AcDbTextStyleTableRecord
2
STANDARD
70
0
0
ENDTAB
0
TABLE
2
VIEW
5
6
100
AcDbSymbolTable
70
0
0
ENDTAB
0
TABLE
2
UCS
5
7
100
AcDbSymbolTable
70
0
0
ENDTAB
0
TABLE
2
APPID
5
9
100
AcDbSymbolTable
70
2
0
APPID
5
12
100
AcDbSymbolTableRecord
100
AcDbRegAppTableRecord
2
ACAD
70
0
0
ENDTAB
0
TABLE
2
DIMSTYLE
5
A
100
AcDbSymbolTable
70
1
0
ENDTAB
0
TABLE
2
BLOCK_RECORD
5
1
100
AcDbSymbolTable
70
1
0
BLOCK_RECORD
5
1F
100
AcDbSymbolTableRecord
100
AcDbBlockTableRecord
2
*MODEL_SPACE
0
BLOCK_RECORD
5
1B
100
AcDbSymbolTableRecord
100
AcDbBlockTableRecord
2
*PAPER_SPACE
0
ENDTAB
0
ENDSEC
0
SECTION
2
BLOCKS
0
BLOCK
5
20
100
AcDbEntity
100
AcDbBlockBegin
2
*MODEL_SPACE
0
ENDBLK
5
21
100
AcDbEntity
100
AcDbBlockEnd
0
BLOCK
5
1C
100
AcDbEntity
100
AcDbBlockBegin
2
*PAPER_SPACE
0
ENDBLK
5
1D
100
AcDbEntity
100
AcDbBlockEnd
0
ENDSEC
0
SECTION
2
ENTITIES
0
ARC
5
100
100
AcDbEntity
8
0
100
AcDbCircle
10
19.685039329558453
20
9.0594160315291692
30
0
40
0.075000000000000941
210
0
220
-0
230
1
100
AcDbArc
50
89.999722778299756
51
270.0002809112305
0
LINE
5
101
100
AcDbEntity
8
0
100
AcDbLine
10
19.685039986948219
20
9.1344160315282927
30
0
11
19.68503998693868
21
8.9844160315300723
31
0
0
ARC
5
102
100
AcDbEntity
8
0
100
AcDbCircle
10
20.057638436253193
20
5.3331569485776171
30
0
40
0.500000000000002
210
0
220
0
230
1
100
AcDbArc
50
-138.17601387617168
51
138.17601387292456
0
LINE
5
103
100
AcDbEntity
8
0
100
AcDbLine
10
19.685039825576801
20
4.9997347008874931
30
0
11
19.68503980410453
21
5.6665791962677918
31
0
0
LINE
5
104
100
AcDbEntity
8
0
100
AcDbLine
10
19.68503998656735
20
3.1470002753252295
30
0
11
20.50058453218271
21
3.1470002752733515
31
0
0
LINE
5
105
100
AcDbEntity
8
0
100
AcDbLine
10
20.50058453218271
20
3.1470002752733515
30
0
11
20.500556880865172
21
4.368305215014872
31
0
0
LINE
5
106
100
AcDbEntity
8
0
100
AcDbLine
10
20.500556880865172
20
4.368305215014872
30
0
11
20.698092551789141
21
4.3683102286042601
31
0
0
LINE
5
107
100
AcDbEntity
8
0
100
AcDbLine
10
20.698092551789141
20
4.3683102286042601
30
0
11
20.697979511278707
21
8.822111954127724
31
0
0
LINE
5
108
100
AcDbEntity
8
0
100
AcDbLine
10
20.697979511278707
20
8.822111954127724
30
0
11
20.485047902113131
21
8.8221065497787805
31
0
0
LINE
5
109
100
AcDbEntity
8
0
100
AcDbLine
10
20.485047902113131
20
8.8221065497787805
30
0
11
20.485039986417426
21
9.1339853532084554
31
0
0
LINE
5
110
100
AcDbEntity
8
0
100
AcDbLine
10
20.485039986417426
20
9.1339853532084554
30
0
11
20.485039986417426
21
11.6020482732789
31
0
0
LINE
5
111
100
AcDbEntity
8
0
100
AcDbLine
10
20.485039986417426
20
11.6020482732789
30
0
11
20.485039224246293
21
11.602479047072299
31
0
0
SPLINE
5
112
100
AcDbEntity
8
0
100
AcDbSpline
70
0
71
3
72
29
73
25
74
0
42
0.000000001
43
0.0000000001
44
0.0000000001
40
0
40
0
40
0
40
0
40
0.1060843028656448
40
0.1060843028656448
40
0.1060843028656448
40
0.22919675804540057
40
0.22919675804540057
40
0.22919675804540057
40
0.37576642832358509
40
0.37576642832358509
40
0.37576642832358509
40
0.53458189721742655
40
0.53458189721742655
40
0.53458189721742655
40
0.6852025420222293
40
0.6852025420222293
40
0.6852025420222293
40
0.84260127101111459
40
0.84260127101111459
40
0.84260127101111459
40
0.96252661118035998
40
0.96252661118035998
40
0.96252661118035998
40
1
40
1
40
1
40
1
10
20.485039224246293
20
11.602479047072299
30
0
10
20.485039209866137
20
11.821344111962679
30
0
10
20.455528596878288
20
12.03930854968913
30
0
10
20.401940294277328
20
12.268666592311389
30
0
10
20.339750249907848
20
12.534840106956729
30
0
10
20.244227640202208
20
12.816721393398906
30
0
10
20.104129099081216
20
13.116049257779885
30
0
10
19.937336901260316
20
13.4724095165639
30
0
10
19.706747864302173
20
13.853411263211846
30
0
10
19.379990466655279
20
14.237379126755563
30
0
10
19.025932705432719
20
14.65342725030748
30
0
10
18.558694562018886
20
15.070784602570363
30
0
10
17.934197781909404
20
15.45174583948171
30
0
10
17.341924822897532
20
15.813049606355817
30
0
10
16.609284948187476
20
16.141612654837871
30
0
10
15.684392705311531
20
16.417580541671771
30
0
10
14.717879358691526
20
16.705967267712523
30
0
10
13.539628418258626
20
16.93738078883629
30
0
10
12.080239749085143
20
17.094965466940696
30
0
10
10.968301401716841
20
17.21503248557886
30
0
10
9.692311149585775
20
17.292067327856845
30
0
10
8.2322503513445273
20
17.321587852597816
30
0
10
7.7760212848637202
20
17.330812209186817
30
0
10
7.3019528333347878
20
17.335433346191326
30
0
10
6.8098674391942238
20
17.335433346191326
30
0
0
LINE
5
113
100
AcDbEntity
8
0
100
AcDbLine
10
6.8098674391942238
20
17.335433346191326
30
0
11
-6.8098673759267259
21
17.335433346191326
31
0
0
SPLINE
5
114
100
AcDbEntity
8
0
100
AcDbSpline
70
0
71
3
72
29
73
25
74
0
42
0.000000001
43
0.0000000001
44
0.0000000001
40
0
40
0
40
0
40
0
40
0.10608430286565687
40
0.10608430286565687
40
0.10608430286565687
40
0.22919675804488784
40
0.22919675804488784
40
0.22919675804488784
40
0.37576642832318441
40
0.37576642832318441
40
0.37576642832318441
40
0.53458189721702187
40
0.53458189721702187
40
0.53458189721702187
40
0.68520254202206399
40
0.68520254202206399
40
0.68520254202206399
40
0.84260127101103199
40
0.84260127101103199
40
0.84260127101103199
40
0.96252661118032301
40
0.96252661118032301
40
0.96252661118032301
40
1
40
1
40
1
40
1
10
-20.485039160978801
20
11.602479047072269
30
0
10
-20.485039146598648
20
11.821344111962695
30
0
10
-20.455528533610785
20
12.039308549689181
30
0
10
-20.401940231009817
20
12.268666592311456
30
0
10
-20.3397501866406
20
12.534840106955651
30
0
10
-20.244227576935462
20
12.81672139339658
30
0
10
-20.104129035815443
20
13.116049257776142
30
0
10
-19.937336837994867
20
13.47240951656026
30
0
10
-19.706747801037036
20
13.853411263208409
30
0
10
-19.379990403390416
20
14.237379126752408
30
0
10
-19.025932642168428
20
14.653427250304302
30
0
10
-18.558694498755298
20
15.070784602567263
30
0
10
-17.93419771864664
20
15.451745839478784
30
0
10
-17.341924759634598
20
15.813049606353637
30
0
10
-16.609284884924037
20
16.141612654836397
30
0
10
-15.684392642047055
20
16.417580541670851
30
0
10
-14.717879295426998
20
16.705967267711884
30
0
10
-13.53962835499388
20
16.937380788835892
30
0
10
-12.080239685819933
20
17.094965466940454
30
0
10
-10.968301338451438
20
17.215032485578718
30
0
10
-9.692311086320073
20
17.292067327856788
30
0
10
-8.2322502880783759
20
17.321587852597787
30
0
10
-7.7760212215971514
20
17.330812209186799
30
0
10
-7.3019527700677758
20
17.335433346191326
30
0
10
-6.8098673759267259
20
17.335433346191326
30
0
0
LINE
5
115
100
AcDbEntity
8
0
100
AcDbLine
10
-20.485039160978801
20
11.602479047072269
30
0
11
-20.485038751950345
21
11.602048273312949
31
0
0
LINE
5
116
100
AcDbEntity
8
0
100
AcDbLine
10
-20.485038751950345
20
11.602048273312949
30
0
11
-20.485038751950345
21
8.822111954127724
31
0
0
LINE
5
117
100
AcDbEntity
8
0
100
AcDbLine
10
-20.485038751950345
20
8.822111954127724
30
0
11
-20.735181668538594
21
8.822111954127724
31
0
0
LINE
5
118
100
AcDbEntity
8
0
100
AcDbLine
10
-20.735181668538594
20
8.822111954127724
30
0
11
-20.735181660630118
21
4.153219475591996
31
0
0
LINE
5
119
100
AcDbEntity
8
0
100
AcDbLine
10
-20.735181660630118
20
4.153219475591996
30
0
11
-20.564975429592746
21
4.1532194750073899
31
0
0
LINE
5
120
100
AcDbEntity
8
0
100
AcDbLine
10
-20.564975429592746
20
4.1532194750073899
30
0
11
-20.564975427825527
21
3.1470002755441948
31
0
0
LINE
5
121
100
AcDbEntity
8
0
100
AcDbLine
10
-20.564975427825527
20
3.1470002755441948
30
0
11
-19.685038753640459
21
3.1470002755442716
31
0
0
LINE
5
122
100
AcDbEntity
8
0
100
AcDbLine
10
-19.685039716531595
20
3.1470002755443351
30
0
11
-19.685039923299854
21
2.7532523033100483e-07
31
0
0
LINE
5
123
100
AcDbEntity
8
0
100
AcDbLine
10
-19.685039923299854
20
2.7532523033100483e-07
30
0
11
-4.247414696916973
21
2.7532523045966342e-07
31
0
0
SPLINE
5
124
100
AcDbEntity
8
0
100
AcDbSpline
70
0
71
3
72
18
73
14
74
0
42
0.000000001
43
0.0000000001
44
0.0000000001
40
0
40
0
40
0
40
0
40
0.91764069174482188
40
0.91764069174482188
40
1.9267504905423201
40
1.9267504905423201
40
3.3924744956723889
40
3.3924744956723889
40
4.0930182248161211
40
4.0930182248161211
40
4.4194650039450378
40
4.4194650039450378
40
4.7279082282122999
40
4.7279082282122999
40
4.7279082282122999
40
4.7279082282122999
10
-2.7536380217079124
20
-0.78740129947791837
30
0
10
-2.8740633093384664
20
-0.78740129947791837
30
0
10
-2.9867282997400788
20
-0.76439162057710286
30
0
10
-3.220449600470825
20
-0.66801199644582998
30
0
10
-3.3315073227539833
20
-0.59372471221508816
30
0
10
-3.5862582720952689
20
-0.39436460915078619
30
0
10
-3.7241169843145197
20
-0.25984952866072569
30
0
10
-3.9259712226577146
20
-0.10821987713819817
30
0
10
-3.9913694002190008
20
-0.066192319880479772
30
0
10
-4.0884391538144316
20
-0.024677849905513076
30
0
10
-4.1203956246517484
20
-0.014071830897919375
30
0
10
-4.1844124995401959
20
-0.0011000823598528906
30
0
10
-4.2157104464828645
20
0.0015579266932306741
30
0
10
-4.2474146969169722
20
2.7532523045966342e-07
30
0
0
LINE
5
125
100
AcDbEntity
8
0
100
AcDbLine
10
-2.7536380217079124
20
-0.78740129947791837
30
0
11
2.753638084975409
21
-0.7874012994779187
31
0
0
SPLINE
5
126
100
AcDbEntity
8
0
100
AcDbSpline
70
0
71
3
72
18
73
14
74
0
42
0.000000001
43
0.0000000001
44
0.0000000001
40
0
40
0
40
0
40
0
40
0.37089745518283551
40
0.37089745518283551
40
0.8713742534305271
40
0.8713742534305271
40
1.9596942883089659
40
1.9596942883089659
40
2.776332589190142
40
2.776332589190142
40
3.183726579976581
40
3.183726579976581
40
3.6024675306412748
40
3.6024675306412748
40
3.6024675306412748
40
3.6024675306412748
10
4.2474147601844692
20
2.7532523045966342e-07
30
0
10
4.1987991984296613
20
0.0023889056408532175
30
0
10
4.1515685027535563
20
-0.0051692431787574988
30
0
10
4.0428101896786686
20
-0.040005288002243761
30
0
10
3.9812772881092919
20
-0.073459395532434371
30
0
10
3.7859553322078732
20
-0.20542794687481095
30
0
10
3.6505916930749174
20
-0.3354874134438659
30
0
10
3.3955667807017957
20
-0.54699339170033523
30
0
10
3.2819283001705388
20
-0.63122164238265677
30
0
10
3.09493997291331
20
-0.72218212439582818
30
0
10
3.0307623924271199
20
-0.74619624253010275
30
0
10
2.8943397838047624
20
-0.77936979846564935
30
0
10
2.8247936044345634
20
-0.78740129947791837
30
0
10
2.753638084975409
20
-0.78740129947791837
30
0
0
LINE
5
127
100
AcDbEntity
8
0
100
AcDbLine
10
4.2474147601844692
20
2.7532523045966342e-07
30
0
11
19.685039986567357
21
2.7532522893229864e-07
31
0
0
LINE
5
128
100
AcDbEntity
8
0
100
AcDbLine
10
19.685039986567357
20
2.7532522893229864e-07
30
0
11
19.68503988523452
21
3.147000275325226
31
0
0
LWPOLYLINE
5
129
100
AcDbEntity
8
0
100
AcDbPolyline
90
2
70
1
43
0.0
10
-19.685038753640967
20
8.9844160315309232
10
-19.685038753639599
20
9.1344160315274188
42
-0.99999316468107791
0
CIRCLE
5
130
100
AcDbEntity
8
0
100
AcDbCircle
10
-10.641234387867435
20
5.705655319965798
30
0
40
0.085000000000000506
210
0
220
-0
230
1
0
CIRCLE
5
131
100
AcDbEntity
8
0
100
AcDbCircle
10
19.370039612969631
20
3.3550002284277523
30
0
40
0.084999999999999104
210
0
220
-0
230
1
0
CIRCLE
5
132
100
AcDbEntity
8
0
100
AcDbCircle
10
-16.742125085471738
20
3.3539890886404899
30
0
40
0.084999999999999104
210
0
220
-0
230
1
0
CIRCLE
5
133
100
AcDbEntity
8
0
100
AcDbCircle
10
11.11183423500623
20
16.036119443407113
30
0
40
0.085000000000000506
210
0
220
-0
230
1
0
CIRCLE
5
134
100
AcDbEntity
8
0
100
AcDbCircle
10
-18.282125085471737
20
3.3539890886404899
30
0
40
0.084999999999999104
210
0
220
-0
230
1
0
CIRCLE
5
135
100
AcDbEntity
8
0
100
AcDbCircle
10
15.281750625403872
20
15.48421874467801
30
0
40
0.085000000000001907
210
0
220
-0
230
1
0
CIRCLE
5
136
100
AcDbEntity
8
0
100
AcDbCircle
10
-0.0051746566036444241
20
2.2411147155395157
30
0
40
0.24999999999999994
210
0
220
-0
230
1
0
CIRCLE
5
137
100
AcDbEntity
8
0
100
AcDbCircle
10
-9.2159295097357461
20
3.3552361077840307
30
0
40
0.085000000000000506
210
0
220
-0
230
1
0
CIRCLE
5
138
100
AcDbEntity
8
0
100
AcDbCircle
10
6.9758738633773643
20
11.715696402544257
30
0
40
0.085000000000000506
210
0
220
-0
230
1
0
CIRCLE
5
139
100
AcDbEntity
8
0
100
AcDbCircle
10
-18.282125085471737
20
0.31398908864048947
30
0
40
0.084999999999999104
210
0
220
-0
230
1
0
CIRCLE
5
140
100
AcDbEntity
8
0
100
AcDbCircle
10
-5.5259295097357475
20
3.3552361077840307
30
0
40
0.085000000000000506
210
0
220
-0
230
1
0
LWPOLYLINE
5
141
100
AcDbEntity
8
0
100
AcDbPolyline
90
4
70
1
43
0.0
10
15.5143283743484
20
12.360898405728962
10
16.931651208994072
20
12.360898405728962
10
16.931651208994079
20
11.465229114390366
10
15.5143283743484
20
11.465229114390377
0
CIRCLE
5
142
100
AcDbEntity
8
0
100
AcDbCircle
10
-0.22412613662263364
20
8.0656964025442566
30
0
40
0.085000000000000811
210
0
220
-0
230
1
0
CIRCLE
5
143
100
AcDbEntity
8
0
100
AcDbCircle
10
9.4258738633773635
20
4.0156964025442612
30
0
40
0.085000000000000506
210
0
220
-0
230
1
0
CIRCLE
5
144
100
AcDbEntity
8
0
100
AcDbCircle
10
8.478994263052364
20
5.8188679909682062
30
0
40
0.085000000000000506
210
0
220
-0
230
1
0
CIRCLE
5
145
100
AcDbEntity
8
0
100
AcDbCircle
10
2.2554733433961491
20
2.2411147155395157
30
0
40
0.37499999999999983
210
0
220
-0
230
1
0
CIRCLE
5
146
100
AcDbEntity
8
0
100
AcDbCircle
10
-0.22412613662263364
20
11.715696402544257
30
0
40
0.085000000000000811
210
0
220
-0
230
1
0
CIRCLE
5
147
100
AcDbEntity
8
0
100
AcDbCircle
10
0.43643171098199923
20
0.45044989644458405
30
0
40
0.049999999999999996
210
0
220
-0
230
1
0
CIRCLE
5
148
100
AcDbEntity
8
0
100
AcDbCircle
10
6.9758738633773643
20
6.4156964025442562
30
0
40
0.085000000000000506
210
0
220
-0
230
1
0
CIRCLE
5
149
100
AcDbEntity
8
0
100
AcDbCircle
10
15.675801041543091
20
5.1699865568775092
30
0
40
0.085000000000001907
210
0
220
-0
230
1
0
CIRCLE
5
150
100
AcDbEntity
8
0
100
AcDbCircle
10
10.658644176445204
20
2.8075515525172108
30
0
40
0.10000000000000052
210
0
220
-0
230
1
0
CIRCLE
5
151
100
AcDbEntity
8
0
100
AcDbCircle
10
-9.1070585882165087
20
16.100216921958474
30
0
40
0.084999999999999104
210
0
220
-0
230
1
0
CIRCLE
5
152
100
AcDbEntity
8
0
100
AcDbCircle
10
-18.701234387867434
20
5.705655319965798
30
0
40
0.084999999999999104
210
0
220
-0
230
1
0
CIRCLE
5
153
100
AcDbEntity
8
0
100
AcDbCircle
10
-14.424126136622627
20
4.0156964025442612
30
0
40
0.085000000000001907
210
0
220
-0
230
1
0
CIRCLE
5
154
100
AcDbEntity
8
0
100
AcDbCircle
10
-2.2850391609782523
20
2.2125987005220811
30
0
40
0.15748031496063006
210
0
220
-0
230
1
0
CIRCLE
5
155
100
AcDbEntity
8
0
100
AcDbCircle
10
-0.22412613662263364
20
4.0156964025442612
30
0
40
0.085000000000000811
210
0
220
-0
230
1
0
CIRCLE
5
156
100
AcDbEntity
8
0
100
AcDbCircle
10
-4.038997414722421
20
16.165590022288747
30
0
40
0.084999999999999812
210
0
220
-0
230
1
0
CIRCLE
5
157
100
AcDbEntity
8
0
100
AcDbCircle
10
-3.5241261366226326
20
16.215696402544253
30
0
40
0.085000000000000506
210
0
220
-0
230
1
0
CIRCLE
5
158
100
AcDbEntity
8
0
100
AcDbCircle
10
-14.069937061174375
20
15.733876140292869
30
0
40
0.084999999999999104
210
0
220
-0
230
1
0
CIRCLE
5
159
100
AcDbEntity
8
0
100
AcDbCircle
10
-18.701234387867434
20
4.6956553199657973
30
0
40
0.084999999999999104
210
0
220
-0
230
1
0
CIRCLE
5
160
100
AcDbEntity
8
0
100
AcDbCircle
10
-7.3250665780990785
20
8.2939978869918782
30
0
40
0.085000000000000506
210
0
220
-0
230
1
0
CIRCLE
5
161
100
AcDbEntity
8
0
100
AcDbCircle
10
-10.641234387867435
20
4.6956553199657973
30
0
40
0.085000000000000506
210
0
220
-0
230
1
0
CIRCLE
5
162
100
AcDbEntity
8
0
100
AcDbCircle
10
9.6312424432018631
20
7.6367579012606752
30
0
40
0.085000000000000506
210
0
220
-0
230
1
0
CIRCLE
5
163
100
AcDbEntity
8
0
100
AcDbCircle
10
7.548082063448903
20
0.78119700851837903
30
0
40
0.075000000000000039
210
0
220
-0
230
1
0
CIRCLE
5
164
100
AcDbEntity
8
0
100
AcDbCircle
10
-19.438578674448205
20
4.6212410185814043
30
0
40
0.085000000000001907
210
0
220
-0
230
1
0
CIRCLE
5
165
100
AcDbEntity
8
0
100
AcDbCircle
10
-0.22412613662263364
20
16.215696402544253
30
0
40
0.085000000000000811
210
0
220
-0
230
1
0
CIRCLE
5
166
100
AcDbEntity
8
0
100
AcDbCircle
10
-14.069937061174375
20
8.2939978869918782
30
0
40
0.084999999999999104
210
0
220
-0
230
1
0
CIRCLE
5
167
100
AcDbEntity
8
0
100
AcDbCircle
10
10.658644176445204
20
1.361526680752706
30
0
40
0.10000000000000052
210
0
220
-0
230
1
0
CIRCLE
5
168
100
AcDbEntity
8
0
100
AcDbCircle
10
17.089131523954698
20
11.913063760059664
30
0
40
0.084999999999999104
210
0
220
-0
230
1
0
CIRCLE
5
169
100
AcDbEntity
8
0
100
AcDbCircle
10
15.356848059387769
20
11.913063760059675
30
0
40
0.084999999999999104
210
0
220
-0
230
1
0
CIRCLE
5
170
100
AcDbEntity
8
0
100
AcDbCircle
10
1.1531317109819139
20
0.45044989644458405
30
0
40
0.099999999999999992
210
0
220
-0
230
1
0
CIRCLE
5
171
100
AcDbEntity
8
0
100
AcDbCircle
10
-8.8241261366226311
20
4.0156964025442612
30
0
40
0.085000000000000506
210
0
220
-0
230
1
0
LWPOLYLINE
5
172
100
AcDbEntity
8
0
100
AcDbPolyline
90
2
70
1
43
0.0
10
-8.4638213113094984
20
7.7127988296281309
42
0.99996359892894171
10
-8.466407652604957
20
7.5428185048933569
42
0.99996172620939472
0
CIRCLE
5
173
100
AcDbEntity
8
0
100
AcDbCircle
10
6.0980820634489037
20
2.7811970085183781
30
0
40
0.075000000000000039
210
0
220
-0
230
1
0
CIRCLE
5
174
100
AcDbEntity
8
0
100
AcDbCircle
10
16.075873863377357
20
4.0156964025442612
30
0
40
0.085000000000001907
210
0
220
-0
230
1
0
CIRCLE
5
175
100
AcDbEntity
8
0
100
AcDbCircle
10
-4.5241261366226322
20
4.0156964025442612
30
0
40
0.085000000000000506
210
0
220
-0
230
1
0
CIRCLE
5
176
100
AcDbEntity
8
0
100
AcDbCircle
10
18.655801041543093
20
5.1699865568775092
30
0
40
0.085000000000001907
210
0
220
-0
230
1
0
CIRCLE
5
177
100
AcDbEntity
8
0
100
AcDbCircle
10
8.8258738633773639
20
4.0156964025442612
30
0
40
0.085000000000000506
210
0
220
-0
230
1
0
CIRCLE
5
178
100
AcDbEntity
8
0
100
AcDbCircle
10
6.0980820634488921
20
0.78119700851837903
30
0
40
0.075000000000000039
210
0
220
-0
230
1
0
LWPOLYLINE
5
179
100
AcDbEntity
8
0
100
AcDbPolyline
90
2
70
1
43
0.0
10
-8.4650361129917204
20
5.9128691889556704
42
0.99996477356547897
10
-8.4650347004313726
20
5.7428691890670196
42
0.99996477350402457
0
CIRCLE
5
180
100
AcDbEntity
8
0
100
AcDbCircle
10
12.775873863377361
20
4.0156964025442612
30
0
40
0.085000000000001907
210
0
220
-0
230
1
0
CIRCLE
5
181
100
AcDbEntity
8
0
100
AcDbCircle
10
-14.069937061174375
20
11.724921090290188
30
0
40
0.084999999999999104
210
0
220
-0
230
1
0
CIRCLE
5
182
100
AcDbEntity
8
0
100
AcDbCircle
10
6.9758738633773643
20
4.0156964025442612
30
0
40
0.085000000000000506
210
0
220
-0
230
1
0
CIRCLE
5
183
100
AcDbEntity
8
0
100
AcDbCircle
10
-4.7976748089710215
20
0.31500018188084311
30
0
40
0.085000000000000506
210
0
220
-0
230
1
0
LWPOLYLINE
5
184
100
AcDbEntity
8
0
100
AcDbPolyline
90
4
70
1
43
0.0
10
16.707696075466973
20
12.916150605865603
10
15.782499225073272
20
12.916150605865603
10
15.782499225073272
20
13.92993013342466
10
16.707696075466973
20
13.92993013342466
0
CIRCLE
5
185
100
AcDbEntity
8
0
100
AcDbCircle
10
9.6589465368027962
20
5.8370315906465722
30
0
40
0.085000000000000506
210
0
220
-0
230
1
0
CIRCLE
5
186
100
AcDbEntity
8
0
100
AcDbCircle
10
6.901036311369384
20
16.138323276505087
30
0
40
0.085000000000000506
210
0
220
-0
230
1
0
CIRCLE
5
187
100
AcDbEntity
8
0
100
AcDbCircle
10
-2.2850393717162438
20
0.46259870052208107
30
0
40
0.15748031496063006
210
0
220
-0
230
1
0
CIRCLE
5
188
100
AcDbEntity
8
0
100
AcDbCircle
10
8.451290092466099
20
7.6185944151528533
30
0
40
0.085000000000000506
210
0
220
-0
230
1
0
CIRCLE
5
189
100
AcDbEntity
8
0
100
AcDbCircle
10
-4.7976744094963841
20
3.3550001818808166
30
0
40
0.085000000000000506
210
0
220
-0
230
1
0
CIRCLE
5
190
100
AcDbEntity
8
0
100
AcDbCircle
10
19.431226249181918
20
11.7279678365744
30
0
40
0.085000000000001907
210
0
220
-0
230
1
0
CIRCLE
5
191
100
AcDbEntity
8
0
100
AcDbCircle
10
-16.742125085471738
20
0.31398908864048947
30
0
40
0.084999999999999104
210
0
220
-0
230
1
0
LWPOLYLINE
5
192
100
AcDbEntity
8
0
100
AcDbPolyline
90
6
70
1
43
0.0
10
8.9305531370511613
20
5.9882296127814412
42
0.020860546836766049
10
8.9301183531271136
20
5.9778129460820875
10
8.9301183533595516
20
5.3853720867371733
42
0.99999999999999989
10
9.1801183533595516
20
5.3853720868206185
10
9.1801183531271136
20
5.9778129461948106
42
0.020860546611078664
10
9.1796835692030658
20
5.9882296127814421
42
11.958260742908678
0
LWPOLYLINE
5
193
100
AcDbEntity
8
0
100
AcDbPolyline
90
6
70
1
43
0.0
10
-9.1796831172093878
20
5.9882296128051067
42
0.020860546771337907
10
-9.1801179011354126
20
5.9778129461384486
10
-9.1801179011354126
20
5.3853720867788919
42
0.99999999999999989
10
-8.9301179011354144
20
5.3853720867788919
10
-8.9301179011354144
20
5.9778129461384486
42
0.020860546771573486
10
-8.9305526850614427
20
5.9882296128051244
42
11.958260743101452
0
LWPOLYLINE
5
194
100
AcDbEntity
8
0
100
AcDbPolyline
90
4
70
1
43
0.0
10
0.17401724856791223
20
3.7499996470785613
10
0.17401724856785339
20
15.701557875658578
10
6.4740172485678693
20
15.701557875658684
10
6.4740172485678702
20
3.7499998499357079
0
CIRCLE
5
195
100
AcDbEntity
8
0
100
AcDbCircle
10
-9.2159295097357461
20
0.31523610778403005
30
0
40
0.085000000000000506
210
0
220
-0
230
1
0
LWPOLYLINE
5
196
100
AcDbEntity
8
0
100
AcDbPolyline
90
46
70
1
43
0.0
10
-0.1947523195131016
20
16.096367848576275
10
-0.19475231951310157
20
15.060159691101614
10
-0.35801357690628133
20
15.060159691101624
10
-0.35801357690628166
20
4.7841540668614373
42
-0.41421356237309515
10
-0.85801357690628166
20
4.2841540668614373
10
-6.7248639706070685
20
4.2841540668614364
42
-0.41421356237309503
10
-7.2248639706070668
20
4.7841540668614346
10
-7.2248639706070694
20
7.8832235097043988
42
-0.41421356237307799
10
-7.2008482225755746
20
7.9072392577358954
10
-7.1933551729448055
20
7.9072392577358963
42
0.41421356237311213
10
-7.1693394249133098
20
7.9312550057673938
10
-7.1693394249133098
20
8.3752284596083424
42
0.41421356237309503
10
-7.2456816559925352
20
8.4515706906875696
10
-7.5207638954741238
20
8.4515706906875696
42
0.41421356237309076
10
-7.6157864345270809
20
8.3565481516346107
10
-7.6157864345270809
20
8.2621485163053148
42
-0.41421356237309503
10
-7.7157864345270823
20
8.1621485163053134
10
-10.421817711152586
20
8.1621485163053134
42
-0.41421356237309503
10
-10.521817711152586
20
8.2621485163053112
10
-10.521817711152588
20
8.4153878674256539
42
0.41421356237309503
10
-10.62181771115258
20
8.5153878674256482
10
-10.993263941421644
20
8.5153878674256482
42
0.41421356237309503
10
-11.093263941421636
20
8.4153878674256539
10
-11.093263941421638
20
8.28415406686144
42
-0.41421356237308682
10
-11.193263941421637
20
8.1841540668614385
10
-13.510400946218365
20
8.184154066861435
10
-13.963554839736723
20
8.3954631977317806
10
-14.17486397060707
20
8.8486170912501052
10
-14.17486397060707
20
11.378539067450273
42
-0.41421356237281648
10
-14.074863970607073
20
11.478539067450333
10
-13.876981240544451
20
11.478539067450251
42
0.41421539708720101
10
-13.77698124054632
20
11.578539693860316
10
-13.776982846408176
20
11.834899198226285
42
0.41421172766173803
10
-13.876982846406211
20
11.934898571816241
10
-14.074863970607073
20
11.934898571816243
42
-0.41421356237291479
10
-14.174863970606957
20
12.034898571816246
10
-14.174863970607069
20
14.946801705455611
42
-0.41139052299219991
10
-13.679687930937265
20
15.446778434320798
10
-8.3766633518848526
20
15.446778434320809
10
-8.3766633518848526
20
16.189091696712477
10
-4.7052506361316286
20
16.189091696712477
10
-4.7052506361316286
20
15.974880150035327
10
-4.0782077245850106
20
15.974880150035327
10
-4.0782077245850106
20
15.216470875142688
10
-3.2579076850894313
20
15.216470875142688
10
-3.2579076850894313
20
16.096367848576275
0
LWPOLYLINE
5
197
100
AcDbEntity
8
0
100
AcDbPolyline
90
19
70
1
43
0.0
10
-7.0050433209493681
20
3.1121405982957246
10
-7.0050433209493708
20
0.61162267821074023
42
-0.41421356237309503
10
-7.2550433209493672
20
0.36162267821074384
10
-8.804850515841629
20
0.36162267821073824
10
-8.804850515841629
20
0.50970643768242663
10
-9.5087519725426759
20
0.50970643768242663
10
-9.5087519725426759
20
0.36162267821073824
10
-16.23389278826598
20
0.36162267821073685
42
-0.41421356237309515
10
-16.483892788265983
20
0.6116226782107389
10
-18.556118059273793
20
0.61162267821073879
10
-18.556118059273793
20
2.8616226782107379
10
-16.483892788265983
20
2.8616226782107379
10
-16.483892788265983
20
3.5542496650496762
42
-0.41421356237310158
10
-16.23389278826598
20
3.8042496650496727
10
-9.5264252383412149
20
3.8042496650496704
10
-9.5173737916779366
20
3.0644477082441748
10
-8.8590712659315418
20
3.064447708244173
10
-8.8590712659315418
20
3.3621405982957278
10
-7.2550433209493672
20
3.3621405982957251
42
-0.41421356237309664
0
CIRCLE
5
198
100
AcDbEntity
8
0
100
AcDbCircle
10
-10.806015098813003
20
8.2939978869918782
30
0
40
0.084999999999999104
210
0
220
-0
230
1
0
CIRCLE
5
199
100
AcDbEntity
8
0
100
AcDbCircle
10
-14.551389968251584
20
15.703820591636328
30
0
40
0.085000000000001907
210
0
220
-0
230
1
0
CIRCLE
5
200
100
AcDbEntity
8
0
100
AcDbCircle
10
6.9758738633773643
20
7.0156964025442567
30
0
40
0.085000000000000506
210
0
220
-0
230
1
0
CIRCLE
5
201
100
AcDbEntity
8
0
100
AcDbCircle
10
-5.5259295097357475
20
0.31523610778403005
30
0
40
0.085000000000000506
210
0
220
-0
230
1
0
CIRCLE
5
202
100
AcDbEntity
8
0
100
AcDbCircle
10
19.431226249181918
20
4.5279678365744029
30
0
40
0.085000000000001907
210
0
220
-0
230
1
0
CIRCLE
5
203
100
AcDbEntity
8
0
100
AcDbCircle
10
-18.841795208923003
20
13.165337569566891
30
0
40
0.085000000000001907
210
0
220
-0
230
1
0
LWPOLYLINE
5
204
100
AcDbEntity
8
0
100
AcDbPolyline
90
12
70
1
43
0.0
10
6.751436236088237
20
2.7439342783116474
10
7.2339165510488712
20
2.7439342783116474
10
7.2339165510488712
20
2.4994854594140072
10
7.5095071022299749
20
2.4994854594140072
10
7.5095071022299749
20
1.1609027822486508
10
7.233916551048873
20
1.1609027822486508
10
7.233916551048873
20
0.91645396335101637
10
6.9325385982929637
20
0.91645396335101637
10
6.9325385982929637
20
1.0651825642922539
10
6.0996903462875744
20
1.0651825642922539
10
6.0996903462875744
20
2.6006156351583924
10
6.7514362360882405
20
2.6006156351583924
0
LWPOLYLINE
5
205
100
AcDbEntity
8
0
100
AcDbPolyline
90
2
70
1
43
0.0
10
-9.6439116863550893
20
7.5427666161021838
42
0.99996294758429127
10
-9.6465016152645351
20
7.7127468862071424
42
0.99996237762750839
0
CIRCLE
5
206
100
AcDbEntity
8
0
100
AcDbCircle
10
19.370039368442125
20
0.31500022842774628
30
0
40
0.084999999999999104
210
0
220
-0
230
1
0
CIRCLE
5
207
100
AcDbEntity
8
0
100
AcDbCircle
10
-9.3741261366226301
20
4.0156964025442612
30
0
40
0.085000000000000506
210
0
220
-0
230
1
0
CIRCLE
5
208
100
AcDbEntity
8
0
100
AcDbCircle
10
7.5480820634488932
20
2.7811970085183781
30
0
40
0.075000000000000039
210
0
220
-0
230
1
0
CIRCLE
5
209
100
AcDbEntity
8
0
100
AcDbCircle
10
1.8698317109820075
20
0.45044989644458405
30
0
40
0.049999999999999906
210
0
220
-0
230
1
0
LWPOLYLINE
5
210
100
AcDbEntity
8
0
100
AcDbPolyline
90
2
70
1
43
0.0
10
-9.6437695998110176
20
5.7428280699676879
42
0.99996427212650085
10
-9.6464852592351757
20
5.9128063778653495
42
0.99996452057188234
0
LWPOLYLINE
5
211
100
AcDbEntity
8
0
100
AcDbPolyline
90
4
70
1
43
0.0
10
11.417702657651258
20
3.6419576238359301
10
18.310039612969629
20
3.6419576238359301
10
18.310039612969629
20
0.28480366688701608
10
11.417702657651258
20
0.28480366688701608
0
LWPOLYLINE
5
212
100
AcDbEntity
8
0
100
AcDbPolyline
90
4
70
1
43
0.0
10
-18.583965061994899
20
4.3513171091120233
10
-18.583965061994899
20
6.0513171091120226
10
-10.741504963458413
20
6.0513171091120226
10
-10.741504963458413
20
4.3513171091120233
0
LWPOLYLINE
5
213
100
AcDbEntity
8
0
100
AcDbPolyline
90
10
70
1
43
0.0
10
-16.872873901928916
20
11.556499226204387
10
-16.872873901928916
20
13.881499226204387
42
-0.41421356237309503
10
-16.372873901928916
20
14.381499226204385
10
-14.426553460048773
20
14.381499226204385
10
-14.426553460048774
20
6.7083629791759867
42
-0.41421356237309503
10
-14.926553460048776
20
6.2083629791759849
10
-18.873403460048777
20
6.2083629791759867
42
-0.41421356237309503
10
-19.373403460048777
20
6.7083629791759876
10
-19.373403460048774
20
11.056499226204387
42
-0.41421356237309503
10
-18.873403460048777
20
11.556499226204386
0
CIRCLE
5
214
100
AcDbEntity
8
0
100
AcDbCircle
10
-20.125007090732993
20
4.1470002755442339
30
0
40
0.15000000000000008
210
0
220
-0
230
1
0
CIRCLE
5
215
100
AcDbEntity
8
0
100
AcDbCircle
10
-20.125007090732993
20
6.397000275544233
30
0
40
0.15000000000000008
210
0
220
-0
230
1
0
CIRCLE
5
216
100
AcDbEntity
8
0
100
AcDbCircle
10
-20.125007090733146
20
8.397000275544233
30
0
40
0.15000000000000008
210
0
220
-0
230
1
0
CIRCLE
5
217
100
AcDbEntity
8
0
100
AcDbCircle
10
20.1250083236101
20
4.147000275544225
30
0
40
0.15000000000000008
210
0
220
-0
230
1
0
CIRCLE
5
218
100
AcDbEntity
8
0
100
AcDbCircle
10
20.1250083236101
20
6.397000275544225
30
0
40
0.15000000000000008
210
0
220
-0
230
1
0
CIRCLE
5
219
100
AcDbEntity
8
0
100
AcDbCircle
10
20.1250083236101
20
8.3970002755442241
30
0
40
0.15000000000000008
210
0
220
-0
230
1
0
CIRCLE
5
220
100
AcDbEntity
8
0
100
AcDbCircle
10
-20.157792277111447
20
7.3426323669160674
30
0
40
0.42500000000000115
210
0
220
-0
230
1
0
ARC
5
221
100
AcDbEntity
8
0
100
AcDbCircle
10
-20.022120085207217
20
5.497490557018561
30
0
40
0.62500000000000067
210
0
220
-0
230
1
100
AcDbArc
50
57.361950436837269
51
302.63804956317307
0
LINE
5
222
100
AcDbEntity
8
0
100
AcDbLine
10
-19.685039527516409
20
6.0237995688256971
30
0
11
-19.68503959667688
21
4.9711815452115919
31
0
0
LWPOLYLINE
5
223
100
AcDbEntity
8
0
100
AcDbPolyline
90
2
70
1
43
0.0
10
-19.685038753640971
20
8.9844160315309232
10
-19.685038753639596
20
9.1344160315274188
42
-0.99999316468107791
0
LINE
5
224
100
AcDbEntity
8
0
100
AcDbLine
10
19.685039986948219
20
9.1344160315282927
30
0
11
19.685039986938676
21
8.9844160315300723
31
0
0
LINE
5
225
100
AcDbEntity
8
0
100
AcDbLine
10
19.68503998656735
20
3.1470002753252304
30
0
11
20.50058453218271
21
3.1470002752733524
31
0
0
LINE
5
226
100
AcDbEntity
8
0
100
AcDbLine
10
20.50058453218271
20
3.1470002752733524
30
0
11
20.500556880865172
21
4.3683052150148711
31
0
0
LINE
5
227
100
AcDbEntity
8
0
100
AcDbLine
10
20.500556880865172
20
4.3683052150148711
30
0
11
20.698092551789141
21
4.3683102286042592
31
0
0
LINE
5
228
100
AcDbEntity
8
0
100
AcDbLine
10
20.698092551789141
20
4.3683102286042592
30
0
11
20.697979511278707
21
8.822111954127724
31
0
0
LINE
5
229
100
AcDbEntity
8
0
100
AcDbLine
10
20.697979511278707
20
8.822111954127724
30
0
11
20.485047902113131
21
8.8221065497789546
31
0
0
LINE
5
230
100
AcDbEntity
8
0
100
AcDbLine
10
20.485047902113131
20
8.8221065497789546
30
0
11
20.48503998641743
21
9.1339853532084554
31
0
0
LINE
5
231
100
AcDbEntity
8
0
100
AcDbLine
10
20.48503998641743
20
9.1339853532084554
30
0
11
20.485039986417426
21
11.6020482732789
31
0
0
LINE
5
232
100
AcDbEntity
8
0
100
AcDbLine
10
20.485039986417426
20
11.6020482732789
30
0
11
20.485039224246293
21
11.602479047072299
31
0
0
SPLINE
5
233
100
AcDbEntity
8
0
100
AcDbSpline
70
0
71
3
72
16
73
12
74
0
42
0.000000001
43
0.0000000001
44
0.0000000001
40
0
40
0
40
0
40
0
40
2.7138104371672656
40
2.7138104371672656
40
6.253873012067654
40
6.253873012067654
40
10.935242991748055
40
10.935242991748055
40
18.754859662283557
40
18.754859662283557
40
30.231284865256104
40
30.231284865256104
40
30.231284865256104
40
30.231284865256104
10
20.485039224246293
20
11.602479047072299
30
0
10
20.485039200846515
20
11.958622149062753
30
0
10
20.402505955657169
20
12.309364963505558
30
0
10
20.201498015613492
20
12.935818595642333
30
0
10
19.980091156125788
20
13.458436497032151
30
0
10
19.024063156990806
20
14.722384436131547
30
0
10
18.360325333636183
20
15.205678574742414
30
0
10
16.874283035600847
20
16.070150374988454
30
0
10
15.73578065816243
20
16.461328983911478
30
0
10
12.424964611107253
20
17.149759248743656
30
0
10
9.9283575510181645
20
17.335433346191326
30
0
10
6.8098674391942238
20
17.335433346191326
30
0
0
LINE
5
234
100
AcDbEntity
8
0
100
AcDbLine
10
6.8098674391942238
20
17.335433346191326
30
0
11
-6.8098673759267259
21
17.335433346191326
31
0
0
SPLINE
5
235
100
AcDbEntity
8
0
100
AcDbSpline
70
0
71
3
72
16
73
12
74
0
42
0.000000001
43
0.0000000001
44
0.0000000001
40
0
40
0
40
0
40
0
40
29.945398948091924
40
29.945398948091924
40
46.557157818967525
40
46.557157818967525
40
60.605179631066754
40
60.605179631066754
40
68.217831384067367
40
68.217831384067367
40
73.312074733372427
40
73.312074733372427
40
73.312074733372427
40
73.312074733372427
10
-6.8098673759267259
20
17.335433346191326
30
0
10
-10.739709757566086
20
17.335433346191326
30
0
10
-13.666891228878523
20
17.041668298367085
30
0
10
-16.9926147206425
20
16.013972298744591
30
0
10
-17.935258356280087
20
15.53451470630559
30
0
10
-19.294296248602844
20
14.419557819843716
30
0
10
-19.688786808135756
20
13.883507049835879
30
0
10
-20.076877473196905
20
13.191518623722686
30
0
10
-20.237043372920134
20
12.858641575720354
30
0
10
-20.426339401767137
20
12.202948606449041
30
0
10
-20.485039140785521
20
11.909819575586644
30
0
10
-20.485039160978801
20
11.602479047072269
30
0
0
LINE
5
236
100
AcDbEntity
8
0
100
AcDbLine
10
-20.485039160978801
20
11.60247904707227
30
0
11
-20.485038751950341
21
11.602048273312949
31
0
0
LINE
5
237
100
AcDbEntity
8
0
100
AcDbLine
10
-20.485038751950341
20
11.602048273312949
30
0
11
-20.485038751950345
21
8.822111954127724
31
0
0
CIRCLE
5
238
100
AcDbEntity
8
0
100
AcDbCircle
10
-20.125007090732993
20
4.1470002755442339
30
0
40
0.15000000000000008
210
0
220
-0
230
1
0
CIRCLE
5
239
100
AcDbEntity
8
0
100
AcDbCircle
10
-20.125007090732993
20
6.397000275544233
30
0
40
0.15000000000000008
210
0
220
-0
230
1
0
CIRCLE
5
240
100
AcDbEntity
8
0
100
AcDbCircle
10
-20.125007090733146
20
8.397000275544233
30
0
40
0.15000000000000008
210
0
220
-0
230
1
0
CIRCLE
5
241
100
AcDbEntity
8
0
100
AcDbCircle
10
20.1250083236101
20
4.147000275544225
30
0
40
0.15000000000000008
210
0
220
-0
230
1
0
CIRCLE
5
242
100
AcDbEntity
8
0
100
AcDbCircle
10
20.1250083236101
20
6.397000275544225
30
0
40
0.15000000000000008
210
0
220
-0
230
1
0
CIRCLE
5
243
100
AcDbEntity
8
0
100
AcDbCircle
10
20.1250083236101
20
8.3970002755442241
30
0
40
0.15000000000000008
210
0
220
-0
230
1
0
CIRCLE
5
244
100
AcDbEntity
8
0
100
AcDbCircle
10
-20.157792277111447
20
7.3426323669160674
30
0
40
0.42500000000000115
210
0
220
-0
230
1
0
LINE
5
245
100
AcDbEntity
8
0
100
AcDbLine
10
-20.485038751950345
20
8.822111954127724
30
0
11
-20.735181668538594
21
8.822111954127724
31
0
0
LINE
5
246
100
AcDbEntity
8
0
100
AcDbLine
10
-20.735181644680129
20
8.822111954127724
30
0
11
-20.735181660630118
21
4.153219475591996
31
0
0
LINE
5
247
100
AcDbEntity
8
0
100
AcDbLine
10
-20.735181660630118
20
4.153219475591996
30
0
11
-20.564975429592746
21
4.1532194750073907
31
0
0
LINE
5
248
100
AcDbEntity
8
0
100
AcDbLine
10
-20.564975429592746
20
4.1532194750073907
30
0
11
-20.564975433031794
21
3.1470002755441948
31
0
0
LINE
5
249
100
AcDbEntity
8
0
100
AcDbLine
10
-20.564975427825527
20
3.1470002755441953
30
0
11
-19.685039716531595
21
3.1470002755442725
31
0
0
ARC
5
250
100
AcDbEntity
8
0
100
AcDbCircle
10
-20.022120085207217
20
5.497490557018561
30
0
40
0.62500000000000067
210
0
220
-0
230
1
100
AcDbArc
50
57.361950436837269
51
302.63804956317307
0
ARC
5
251
100
AcDbEntity
8
0
100
AcDbCircle
10
20.057638436253193
20
5.333156948577618
30
0
40
0.500000000000002
210
0
220
0
230
1
100
AcDbArc
50
-138.17601387617162
51
138.17601387292461
0
LINE
5
252
100
AcDbEntity
8
0
100
AcDbLine
10
19.68503988523452
20
3.147000275325226
30
0
11
19.68503998656735
21
2.7532522893229864e-07
31
0
0
LINE
5
253
100
AcDbEntity
8
0
100
AcDbLine
10
-19.68503959667688
20
4.9711815452115919
30
0
11
-19.685039527516409
21
6.0237995688256971
31
0
0
LINE
5
254
100
AcDbEntity
8
0
100
AcDbLine
10
19.68503980410453
20
5.6665791962677918
30
0
11
19.685039825576801
21
4.9997347008874931
31
0
0
LINE
5
255
100
AcDbEntity
8
0
100
AcDbLine
10
19.68503998656735
20
2.7532522893229864e-07
30
0
11
4.2474147601844701
21
2.7532522967138772e-07
31
0
0
SPLINE
5
256
100
AcDbEntity
8
0
100
AcDbSpline
70
0
71
3
72
18
73
14
74
0
42
0.000000001
43
0.0000000001
44
0.0000000001
40
0
40
0
40
0
40
0
40
0.37089745518283551
40
0.37089745518283551
40
0.8713742534305271
40
0.8713742534305271
40
1.9596942883089659
40
1.9596942883089659
40
2.776332589190142
40
2.776332589190142
40
3.183726579976581
40
3.183726579976581
40
3.6024675306412748
40
3.6024675306412748
40
3.6024675306412748
40
3.6024675306412748
10
4.2474147601844692
20
2.7532523045966342e-07
30
0
10
4.1987991984296613
20
0.0023889056408532175
30
0
10
4.1515685027535563
20
-0.0051692431787574988
30
0
10
4.0428101896786686
20
-0.040005288002243761
30
0
10
3.9812772881092919
20
-0.073459395532434371
30
0
10
3.7859553322078732
20
-0.20542794687481095
30
0
10
3.6505916930749174
20
-0.3354874134438659
30
0
10
3.3955667807017957
20
-0.54699339170033523
30
0
10
3.2819283001705388
20
-0.63122164238265677
30
0
10
3.09493997291331
20
-0.72218212439582818
30
0
10
3.0307623924271199
20
-0.74619624253010275
30
0
10
2.8943397838047624
20
-0.77936979846564935
30
0
10
2.8247936044345634
20
-0.78740129947791837
30
0
10
2.753638084975409
20
-0.78740129947791837
30
0
0
LINE
5
257
100
AcDbEntity
8
0
100
AcDbLine
10
2.753638084975409
20
-0.78740129947791837
30
0
11
-2.7536380217079119
21
-0.78740129947791848
31
0
0
SPLINE
5
258
100
AcDbEntity
8
0
100
AcDbSpline
70
0
71
3
72
18
73
14
74
0
42
0.000000001
43
0.0000000001
44
0.0000000001
40
0
40
0
40
0
40
0
40
0.91764069174482188
40
0.91764069174482188
40
1.9267504905423201
40
1.9267504905423201
40
3.3924744956723889
40
3.3924744956723889
40
4.0930182248161211
40
4.0930182248161211
40
4.4194650039450378
40
4.4194650039450378
40
4.7279082282122999
40
4.7279082282122999
40
4.7279082282122999
40
4.7279082282122999
10
-2.7536380217079124
20
-0.78740129947791837
30
0
10
-2.8740633093384664
20
-0.78740129947791837
30
0
10
-2.9867282997400788
20
-0.76439162057710286
30
0
10
-3.220449600470825
20
-0.66801199644582998
30
0
10
-3.3315073227539833
20
-0.59372471221508816
30
0
10
-3.5862582720952689
20
-0.39436460915078619
30
0
10
-3.7241169843145197
20
-0.25984952866072569
30
0
10
-3.9259712226577146
20
-0.10821987713819817
30
0
10
-3.9913694002190008
20
-0.066192319880479772
30
0
10
-4.0884391538144316
20
-0.024677849905513076
30
0
10
-4.1203956246517484
20
-0.014071830897919375
30
0
10
-4.1844124995401959
20
-0.0011000823598528906
30
0
10
-4.2157104464828645
20
0.0015579266932306741
30
0
10
-4.2474146969169722
20
2.7532523045966342e-07
30
0
0
LINE
5
259
100
AcDbEntity
8
0
100
AcDbLine
10
-4.2474146969169713
20
2.753252304595253e-07
30
0
11
-19.685039923299854
21
2.7532522967138772e-07
31
0
0
LINE
5
260
100
AcDbEntity
8
0
100
AcDbLine
10
-19.685039923299854
20
2.7532522967138772e-07
30
0
11
-19.685039716531595
21
3.1470002755442725
31
0
0
ARC
5
261
100
AcDbEntity
8
0
100
AcDbCircle
10
19.685039329558453
20
9.059416031529171
30
0
40
0.074999999999999553
210
0
220
-0
230
1
100
AcDbArc
50
89.999722778299756
51
270.00028091152905
0
CIRCLE
5
262
100
AcDbEntity
8
0
100
AcDbCircle
10
-10.641234387867435
20
5.705655319965798
30
0
40
0.085000000000000506
210
0
220
-0
230
1
0
CIRCLE
5
263
100
AcDbEntity
8
0
100
AcDbCircle
10
19.370039612969631
20
3.3550002284277523
30
0
40
0.084999999999999118
210
0
220
-0
230
1
0
CIRCLE
5
264
100
AcDbEntity
8
0
100
AcDbCircle
10
-16.742125085471738
20
3.3539890886404899
30
0
40
0.084999999999999118
210
0
220
-0
230
1
0
CIRCLE
5
265
100
AcDbEntity
8
0
100
AcDbCircle
10
11.11183423500623
20
16.036119443407113
30
0
40
0.085000000000000506
210
0
220
-0
230
1
0
CIRCLE
5
266
100
AcDbEntity
8
0
100
AcDbCircle
10
-18.282125085471737
20
3.3539890886404899
30
0
40
0.084999999999999118
210
0
220
-0
230
1
0
CIRCLE
5
267
100
AcDbEntity
8
0
100
AcDbCircle
10
15.281750625403872
20
15.48421874467801
30
0
40
0.085000000000001907
210
0
220
-0
230
1
0
CIRCLE
5
268
100
AcDbEntity
8
0
100
AcDbCircle
10
-0.0051746566036444241
20
2.2411147155395157
30
0
40
0.24999999999999997
210
0
220
-0
230
1
0
CIRCLE
5
269
100
AcDbEntity
8
0
100
AcDbCircle
10
-9.2159295097357461
20
3.3552361077840307
30
0
40
0.085000000000000506
210
0
220
-0
230
1
0
CIRCLE
5
270
100
AcDbEntity
8
0
100
AcDbCircle
10
6.9758738633773643
20
11.715696402544257
30
0
40
0.085000000000000506
210
0
220
-0
230
1
0
CIRCLE
5
271
100
AcDbEntity
8
0
100
AcDbCircle
10
-18.282125085471737
20
0.31398908864048947
30
0
40
0.084999999999999118
210
0
220
-0
230
1
0
CIRCLE
5
272
100
AcDbEntity
8
0
100
AcDbCircle
10
-5.5259295097357475
20
3.3552361077840307
30
0
40
0.085000000000000506
210
0
220
-0
230
1
0
LWPOLYLINE
5
273
100
AcDbEntity
8
0
100
AcDbPolyline
90
4
70
1
43
0.0
10
16.931651208994072
20
12.360898405728962
10
15.5143283743484
20
12.360898405728962
10
15.5143283743484
20
11.465229114390377
10
16.931651208994079
20
11.465229114390366
0
CIRCLE
5
274
100
AcDbEntity
8
0
100
AcDbCircle
10
-0.22412613662263364
20
8.0656964025442566
30
0
40
0.085000000000000811
210
0
220
-0
230
1
0
CIRCLE
5
275
100
AcDbEntity
8
0
100
AcDbCircle
10
9.4258738633773635
20
4.0156964025442612
30
0
40
0.085000000000000506
210
0
220
-0
230
1
0
CIRCLE
5
276
100
AcDbEntity
8
0
100
AcDbCircle
10
8.478994263052364
20
5.8188679909682062
30
0
40
0.085000000000000506
210
0
220
-0
230
1
0
CIRCLE
5
277
100
AcDbEntity
8
0
100
AcDbCircle
10
2.2554733433961491
20
2.2411147155395157
30
0
40
0.37499999999999983
210
0
220
-0
230
1
0
CIRCLE
5
278
100
AcDbEntity
8
0
100
AcDbCircle
10
-0.22412613662263364
20
11.715696402544257
30
0
40
0.085000000000000811
210
0
220
-0
230
1
0
CIRCLE
5
279
100
AcDbEntity
8
0
100
AcDbCircle
10
0.43643171098199923
20
0.45044989644458405
30
0
40
0.049999999999999996
210
0
220
-0
230
1
0
CIRCLE
5
280
100
AcDbEntity
8
0
100
AcDbCircle
10
6.9758738633773643
20
6.4156964025442562
30
0
40
0.085000000000000506
210
0
220
-0
230
1
0
CIRCLE
5
281
100
AcDbEntity
8
0
100
AcDbCircle
10
15.675801041543091
20
5.1699865568775092
30
0
40
0.085000000000001907
210
0
220
-0
230
1
0
CIRCLE
5
282
100
AcDbEntity
8
0
100
AcDbCircle
10
10.658644176445204
20
2.8075515525172108
30
0
40
0.10000000000000052
210
0
220
-0
230
1
0
CIRCLE
5
283
100
AcDbEntity
8
0
100
AcDbCircle
10
-9.1070585882165087
20
16.100216921958474
30
0
40
0.084999999999999118
210
0
220
-0
230
1
0
CIRCLE
5
284
100
AcDbEntity
8
0
100
AcDbCircle
10
-18.701234387867434
20
5.705655319965798
30
0
40
0.084999999999999118
210
0
220
-0
230
1
0
CIRCLE
5
285
100
AcDbEntity
8
0
100
AcDbCircle
10
-14.424126136622627
20
4.0156964025442612
30
0
40
0.085000000000001907
210
0
220
-0
230
1
0
CIRCLE
5
286
100
AcDbEntity
8
0
100
AcDbCircle
10
-2.2850391609782523
20
2.2125987005220811
30
0
40
0.15748031496063006
210
0
220
-0
230
1
0
CIRCLE
5
287
100
AcDbEntity
8
0
100
AcDbCircle
10
-0.22412613662263364
20
4.0156964025442612
30
0
40
0.085000000000000811
210
0
220
-0
230
1
0
CIRCLE
5
288
100
AcDbEntity
8
0
100
AcDbCircle
10
-4.038997414722421
20
16.165590022288747
30
0
40
0.084999999999999812
210
0
220
-0
230
1
0
CIRCLE
5
289
100
AcDbEntity
8
0
100
AcDbCircle
10
-3.5241261366226326
20
16.215696402544253
30
0
40
0.085000000000000506
210
0
220
-0
230
1
0
CIRCLE
5
290
100
AcDbEntity
8
0
100
AcDbCircle
10
-14.069937061174375
20
15.733876140292869
30
0
40
0.084999999999999118
210
0
220
-0
230
1
0
CIRCLE
5
291
100
AcDbEntity
8
0
100
AcDbCircle
10
-18.701234387867434
20
4.6956553199657973
30
0
40
0.084999999999999118
210
0
220
-0
230
1
0
CIRCLE
5
292
100
AcDbEntity
8
0
100
AcDbCircle
10
-7.3250665780990785
20
8.2939978869918782
30
0
40
0.085000000000000506
210
0
220
-0
230
1
0
CIRCLE
5
293
100
AcDbEntity
8
0
100
AcDbCircle
10
-10.641234387867435
20
4.6956553199657973
30
0
40
0.085000000000000506
210
0
220
-0
230
1
0
CIRCLE
5
294
100
AcDbEntity
8
0
100
AcDbCircle
10
9.6312424432018631
20
7.6367579012606752
30
0
40
0.085000000000000506
210
0
220
-0
230
1
0
CIRCLE
5
295
100
AcDbEntity
8
0
100
AcDbCircle
10
7.548082063448903
20
0.78119700851837903
30
0
40
0.075000000000000039
210
0
220
-0
230
1
0
CIRCLE
5
296
100
AcDbEntity
8
0
100
AcDbCircle
10
-19.438578674448205
20
4.6212410185814043
30
0
40
0.085000000000001907
210
0
220
-0
230
1
0
CIRCLE
5
297
100
AcDbEntity
8
0
100
AcDbCircle
10
-0.22412613662263364
20
16.215696402544253
30
0
40
0.085000000000000811
210
0
220
-0
230
1
0
CIRCLE
5
298
100
AcDbEntity
8
0
100
AcDbCircle
10
-14.069937061174375
20
8.2939978869918782
30
0
40
0.084999999999999118
210
0
220
-0
230
1
0
CIRCLE
5
299
100
AcDbEntity
8
0
100
AcDbCircle
10
10.658644176445204
20
1.361526680752706
30
0
40
0.10000000000000052
210
0
220
-0
230
1
0
CIRCLE
5
300
100
AcDbEntity
8
0
100
AcDbCircle
10
17.089131523954698
20
11.913063760059664
30
0
40
0.084999999999999118
210
0
220
-0
230
1
0
CIRCLE
5
301
100
AcDbEntity
8
0
100
AcDbCircle
10
15.356848059387769
20
11.913063760059675
30
0
40
0.084999999999999118
210
0
220
-0
230
1
0
CIRCLE
5
302
100
AcDbEntity
8
0
100
AcDbCircle
10
1.1531317109819139
20
0.45044989644458405
30
0
40
0.099999999999999992
210
0
220
-0
230
1
0
CIRCLE
5
303
100
AcDbEntity
8
0
100
AcDbCircle
10
-8.8241261366226311
20
4.0156964025442612
30
0
40
0.085000000000000506
210
0
220
-0
230
1
0
LWPOLYLINE
5
304
100
AcDbEntity
8
0
100
AcDbPolyline
90
2
70
1
43
0.0
10
-8.4638213113094984
20
7.7127988296281309
42
0.99996359892894171
10
-8.466407652604957
20
7.5428185048933569
42
0.99996172620939472
0
CIRCLE
5
305
100
AcDbEntity
8
0
100
AcDbCircle
10
6.0980820634489037
20
2.7811970085183781
30
0
40
0.075000000000000039
210
0
220
-0
230
1
0
CIRCLE
5
306
100
AcDbEntity
8
0
100
AcDbCircle
10
16.075873863377357
20
4.0156964025442612
30
0
40
0.085000000000001907
210
0
220
-0
230
1
0
CIRCLE
5
307
100
AcDbEntity
8
0
100
AcDbCircle
10
-4.5241261366226322
20
4.0156964025442612
30
0
40
0.085000000000000506
210
0
220
-0
230
1
0
CIRCLE
5
308
100
AcDbEntity
8
0
100
AcDbCircle
10
18.655801041543093
20
5.1699865568775092
30
0
40
0.085000000000001907
210
0
220
-0
230
1
0
CIRCLE
5
309
100
AcDbEntity
8
0
100
AcDbCircle
10
8.8258738633773639
20
4.0156964025442612
30
0
40
0.085000000000000506
210
0
220
-0
230
1
0
CIRCLE
5
310
100
AcDbEntity
8
0
100
AcDbCircle
10
6.0980820634488921
20
0.78119700851837903
30
0
40
0.075000000000000039
210
0
220
-0
230
1
0
LWPOLYLINE
5
311
100
AcDbEntity
8
0
100
AcDbPolyline
90
2
70
1
43
0.0
10
-8.4650361129917204
20
5.9128691889556704
42
0.99996477356547897
10
-8.4650347004313726
20
5.7428691890670196
42
0.99996477350402457
0
CIRCLE
5
312
100
AcDbEntity
8
0
100
AcDbCircle
10
12.775873863377361
20
4.0156964025442612
30
0
40
0.085000000000001907
210
0
220
-0
230
1
0
CIRCLE
5
313
100
AcDbEntity
8
0
100
AcDbCircle
10
-14.069937061174375
20
11.724921090290188
30
0
40
0.084999999999999118
210
0
220
-0
230
1
0
CIRCLE
5
314
100
AcDbEntity
8
0
100
AcDbCircle
10
6.9758738633773643
20
4.0156964025442612
30
0
40
0.085000000000000506
210
0
220
-0
230
1
0
CIRCLE
5
315
100
AcDbEntity
8
0
100
AcDbCircle
10
-4.7976748089710215
20
0.31500018188084311
30
0
40
0.085000000000000506
210
0
220
-0
230
1
0
LWPOLYLINE
5
316
100
AcDbEntity
8
0
100
AcDbPolyline
90
4
70
1
43
0.0
10
15.782499225073272
20
12.916150605865603
10
16.707696075466973
20
12.916150605865603
10
16.707696075466973
20
13.92993013342466
10
15.782499225073272
20
13.92993013342466
0
CIRCLE
5
317
100
AcDbEntity
8
0
100
AcDbCircle
10
9.6589465368027962
20
5.8370315906465722
30
0
40
0.085000000000000506
210
0
220
-0
230
1
0
CIRCLE
5
318
100
AcDbEntity
8
0
100
AcDbCircle
10
6.901036311369384
20
16.138323276505087
30
0
40
0.085000000000000506
210
0
220
-0
230
1
0
CIRCLE
5
319
100
AcDbEntity
8
0
100
AcDbCircle
10
-2.2850393717162438
20
0.46259870052208107
30
0
40
0.15748031496063006
210
0
220
-0
230
1
0
CIRCLE
5
320
100
AcDbEntity
8
0
100
AcDbCircle
10
8.451290092466099
20
7.6185944151528533
30
0
40
0.085000000000000506
210
0
220
-0
230
1
0
CIRCLE
5
321
100
AcDbEntity
8
0
100
AcDbCircle
10
-4.7976744094963841
20
3.3550001818808166
30
0
40
0.085000000000000506
210
0
220
-0
230
1
0
CIRCLE
5
322
100
AcDbEntity
8
0
100
AcDbCircle
10
19.431226249181918
20
11.7279678365744
30
0
40
0.085000000000001907
210
0
220
-0
230
1
0
CIRCLE
5
323
100
AcDbEntity
8
0
100
AcDbCircle
10
-16.742125085471738
20
0.31398908864048947
30
0
40
0.084999999999999118
210
0
220
-0
230
1
0
LWPOLYLINE
5
324
100
AcDbEntity
8
0
100
AcDbPolyline
90
6
70
1
43
0.0
10
8.9305531370511613
20
5.9882296127814412
42
0.020860546836766049
10
8.9301183531271136
20
5.9778129460820875
10
8.9301183533595516
20
5.3853720867371706
42
0.99999999999999989
10
9.1801183533595516
20
5.3853720868206185
10
9.1801183531271136
20
5.9778129461948106
42
0.020860546611076999
10
9.1796835692030658
20
5.9882296127814412
42
11.958260742908646
0
LWPOLYLINE
5
325
100
AcDbEntity
8
0
100
AcDbPolyline
90
6
70
1
43
0.0
10
-9.1796831172093878
20
5.9882296128051067
42
0.020860546771337907
10
-9.1801179011354126
20
5.9778129461384486
10
-9.1801179011354126
20
5.3853720867788919
42
0.99999999999999989
10
-8.9301179011354144
20
5.3853720867788919
10
-8.9301179011354144
20
5.9778129461384486
42
0.020860546771573819
10
-8.930552685061441
20
5.9882296128051244
42
11.958260743101388
0
LWPOLYLINE
5
326
100
AcDbEntity
8
0
100
AcDbPolyline
90
4
70
1
43
0.0
10
0.17401724856785339
20
15.701557875658578
10
0.17401724856791223
20
3.7499996470785613
10
6.4740172485678693
20
3.7499998499357079
10
6.4740172485678693
20
15.701557875658684
0
CIRCLE
5
327
100
AcDbEntity
8
0
100
AcDbCircle
10
-9.2159295097357461
20
0.31523610778403005
30
0
40
0.085000000000000506
210
0
220
-0
230
1
0
LWPOLYLINE
5
328
100
AcDbEntity
8
0
100
AcDbPolyline
90
46
70
1
43
0.0
10
-0.19475231951310157
20
15.060159691101614
10
-0.1947523195131016
20
16.096367848576275
10
-3.2579076850894313
20
16.096367848576275
10
-3.2579076850894313
20
15.216470875142688
10
-4.0782077245850106
20
15.216470875142688
10
-4.0782077245850106
20
15.974880150035327
10
-4.7052506361316286
20
15.974880150035327
10
-4.7052506361316286
20
16.189091696712477
10
-8.3766633518848526
20
16.189091696712477
10
-8.3766633518848526
20
15.446778434320809
10
-13.679687930937265
20
15.4467784343208
42
0.41139052299219991
10
-14.174863970607069
20
14.946801705455611
10
-14.17486397060707
20
12.034898571816246
42
0.41421356237291479
10
-14.074863970607073
20
11.934898571816243
10
-13.876982846406211
20
11.934898571816241
42
-0.41421172766173803
10
-13.776982846408176
20
11.834899198226285
10
-13.77698124054632
20
11.578539693860316
42
-0.41421539708720101
10
-13.876981240544451
20
11.478539067450251
10
-14.074863970607073
20
11.478539067450274
42
0.41421356237281648
10
-14.17486397060707
20
11.378539067450273
10
-14.17486397060707
20
8.8486170912501052
10
-13.963554839736723
20
8.3954631977317806
10
-13.510400946218365
20
8.184154066861435
10
-11.193263941421637
20
8.1841540668614385
42
0.41421356237308682
10
-11.093263941421638
20
8.28415406686144
10
-11.093263941421636
20
8.4153878674256539
42
-0.41421356237309503
10
-10.993263941421644
20
8.5153878674256482
10
-10.62181771115258
20
8.5153878674256482
42
-0.41421356237309503
10
-10.521817711152588
20
8.4153878674256539
10
-10.521817711152588
20
8.2621485163053112
42
0.41421356237309503
10
-10.421817711152586
20
8.1621485163053134
10
-7.7157864345270823
20
8.1621485163053134
42
0.41421356237309503
10
-7.6157864345270809
20
8.2621485163053148
10
-7.6157864345270809
20
8.3565481516346107
42
-0.41421356237309076
10
-7.5207638954741238
20
8.4515706906875696
10
-7.2456816559925352
20
8.4515706906875696
42
-0.41421356237309503
10
-7.1693394249133098
20
8.3752284596083424
10
-7.1693394249133098
20
7.9312550057673938
42
-0.41421356237311213
10
-7.1933551729448055
20
7.9072392577358963
10
-7.2008482225755746
20
7.9072392577358954
42
0.41421356237307799
10
-7.2248639706070694
20
7.8832235097043988
10
-7.2248639706070676
20
4.7841540668614346
42
0.41421356237309503
10
-6.7248639706070685
20
4.2841540668614364
10
-0.85801357690628144
20
4.2841540668614364
42
0.41421356237309503
10
-0.35801357690628133
20
4.7841540668614373
10
-0.35801357690628133
20
15.060159691101624
0
LWPOLYLINE
5
329
100
AcDbEntity
8
0
100
AcDbPolyline
90
19
70
1
43
0.0
10
-7.0050433209493708
20
0.61162267821074023
10
-7.0050433209493708
20
3.1121405982957246
42
0.41421356237309664
10
-7.2550433209493672
20
3.362140598295726
10
-8.8590712659315418
20
3.3621405982957278
10
-8.8590712659315418
20
3.064447708244173
10
-9.5173737916779366
20
3.0644477082441748
10
-9.5264252383412149
20
3.8042496650496704
10
-16.23389278826598
20
3.8042496650496727
42
0.41421356237310158
10
-16.483892788265983
20
3.5542496650496762
10
-16.483892788265983
20
2.8616226782107379
10
-18.556118059273793
20
2.8616226782107379
10
-18.556118059273793
20
0.61162267821073879
10
-16.483892788265983
20
0.61162267821073879
42
0.41421356237309503
10
-16.23389278826598
20
0.36162267821073824
10
-9.5087519725426759
20
0.36162267821073824
10
-9.5087519725426759
20
0.50970643768242663
10
-8.804850515841629
20
0.50970643768242663
10
-8.804850515841629
20
0.36162267821073824
10
-7.2550433209493672
20
0.36162267821073824
42
0.41421356237309503
0
CIRCLE
5
330
100
AcDbEntity
8
0
100
AcDbCircle
10
-10.806015098813003
20
8.2939978869918782
30
0
40
0.084999999999999118
210
0
220
-0
230
1
0
CIRCLE
5
331
100
AcDbEntity
8
0
100
AcDbCircle
10
-14.551389968251584
20
15.703820591636328
30
0
40
0.085000000000001907
210
0
220
-0
230
1
0
CIRCLE
5
332
100
AcDbEntity
8
0
100
AcDbCircle
10
6.9758738633773643
20
7.0156964025442567
30
0
40
0.085000000000000506
210
0
220
-0
230
1
0
CIRCLE
5
333
100
AcDbEntity
8
0
100
AcDbCircle
10
-5.5259295097357475
20
0.31523610778403005
30
0
40
0.085000000000000506
210
0
220
-0
230
1
0
CIRCLE
5
334
100
AcDbEntity
8
0
100
AcDbCircle
10
19.431226249181918
20
4.5279678365744029
30
0
40
0.085000000000001907
210
0
220
-0
230
1
0
CIRCLE
5
335
100
AcDbEntity
8
0
100
AcDbCircle
10
-18.841795208923003
20
13.165337569566891
30
0
40
0.085000000000001907
210
0
220
-0
230
1
0
LWPOLYLINE
5
336
100
AcDbEntity
8
0
100
AcDbPolyline
90
12
70
1
43
0.0
10
7.2339165510488712
20
2.7439342783116474
10
6.751436236088237
20
2.7439342783116474
10
6.7514362360882405
20
2.6006156351583924
10
6.0996903462875744
20
2.6006156351583924
10
6.0996903462875744
20
1.0651825642922539
10
6.9325385982929637
20
1.0651825642922539
10
6.9325385982929637
20
0.91645396335101637
10
7.233916551048873
20
0.91645396335101637
10
7.233916551048873
20
1.1609027822486508
10
7.5095071022299749
20
1.1609027822486508
10
7.5095071022299749
20
2.4994854594140072
10
7.2339165510488712
20
2.4994854594140072
0
LWPOLYLINE
5
337
100
AcDbEntity
8
0
100
AcDbPolyline
90
2
70
1
43
0.0
10
-9.6439116863550893
20
7.5427666161021838
42
0.99996294758429127
10
-9.6465016152645351
20
7.7127468862071424
42
0.99996237762750839
0
CIRCLE
5
338
100
AcDbEntity
8
0
100
AcDbCircle
10
19.370039368442125
20
0.31500022842774628
30
0
40
0.084999999999999118
210
0
220
-0
230
1
0
CIRCLE
5
339
100
AcDbEntity
8
0
100
AcDbCircle
10
-9.3741261366226301
20
4.0156964025442612
30
0
40
0.085000000000000506
210
0
220
-0
230
1
0
CIRCLE
5
340
100
AcDbEntity
8
0
100
AcDbCircle
10
7.5480820634488932
20
2.7811970085183781
30
0
40
0.075000000000000039
210
0
220
-0
230
1
0
CIRCLE
5
341
100
AcDbEntity
8
0
100
AcDbCircle
10
1.8698317109820075
20
0.45044989644458405
30
0
40
0.049999999999999906
210
0
220
-0
230
1
0
LWPOLYLINE
5
342
100
AcDbEntity
8
0
100
AcDbPolyline
90
2
70
1
43
0.0
10
-9.6437695998110176
20
5.7428280699676879
42
0.99996427212650085
10
-9.6464852592351757
20
5.9128063778653495
42
0.99996452057188234
0
LWPOLYLINE
5
343
100
AcDbEntity
8
0
100
AcDbPolyline
90
4
70
1
43
0.0
10
18.310039612969629
20
3.6419576238359301
10
11.417702657651258
20
3.6419576238359301
10
11.417702657651258
20
0.28480366688701608
10
18.310039612969629
20
0.28480366688701636
0
LWPOLYLINE
5
344
100
AcDbEntity
8
0
100
AcDbPolyline
90
4
70
1
43
0.0
10
-18.583965061994899
20
6.0513171091120226
10
-18.583965061994899
20
4.3513171091120233
10
-10.741504963458413
20
4.3513171091120233
10
-10.741504963458413
20
6.0513171091120226
0
LWPOLYLINE
5
345
100
AcDbEntity
8
0
100
AcDbPolyline
90
10
70
1
43
0.0
10
-16.872873901928916
20
13.881499226204387
10
-16.872873901928916
20
11.556499226204387
10
-18.873403460048777
20
11.556499226204387
42
0.41421356237309503
10
-19.373403460048774
20
11.056499226204387
10
-19.373403460048774
20
6.7083629791759876
42
0.41421356237309503
10
-18.873403460048777
20
6.2083629791759876
10
-14.926553460048776
20
6.2083629791759867
42
0.41421356237309503
10
-14.426553460048774
20
6.7083629791759867
10
-14.426553460048773
20
14.381499226204385
10
-16.372873901928916
20
14.381499226204385
42
0.41421356237309503
0
ENDSEC
0
SECTION
2
OBJECTS
0
DICTIONARY
5
C
100
AcDbDictionary
3
ACAD_GROUP
350
D
3
ACAD_MLINESTYLE
350
17
0
DICTIONARY
5
D
100
AcDbDictionary
0
DICTIONARY
5
1A
330
C
100
AcDbDictionary
0
DICTIONARY
5
17
100
AcDbDictionary
0
ENDSEC
0
EOF
