<?xml version="1.0" encoding="UTF-8" standalone="no"?>
<svg
   viewBox="0 0 3978.6 1740.7923"
   width="3978.6001"
   height="1740.7922"
   version="1.1"
   id="svg512"
   sodipodi:docname="Panel Support for PDF.svg"
   inkscape:version="1.2 (dc2aedaf03, 2022-05-15)"
   inkscape:export-filename="Panel Support for PDF.pdf"
   inkscape:export-xdpi="96"
   inkscape:export-ydpi="96"
   xmlns:inkscape="http://www.inkscape.org/namespaces/inkscape"
   xmlns:sodipodi="http://sodipodi.sourceforge.net/DTD/sodipodi-0.dtd"
   xmlns="http://www.w3.org/2000/svg"
   xmlns:svg="http://www.w3.org/2000/svg">
  <sodipodi:namedview
     id="namedview514"
     pagecolor="#ffffff"
     bordercolor="#666666"
     borderopacity="1.0"
     inkscape:showpageshadow="2"
     inkscape:pageopacity="0.0"
     inkscape:pagecheckerboard="0"
     inkscape:deskcolor="#d1d1d1"
     showgrid="false"
     inkscape:zoom="0.21024131"
     inkscape:cx="2171.3145"
     inkscape:cy="998.85222"
     inkscape:window-width="1920"
     inkscape:window-height="1017"
     inkscape:window-x="-8"
     inkscape:window-y="-8"
     inkscape:window-maximized="1"
     inkscape:current-layer="g510" />
  <desc
     id="desc2">Panel Support DXF.dxf - scale = 25.400000, origin = (0.000000, 0.000000), method = file</desc>
  <defs
     id="defs16">
    <marker
       id="DistanceX"
       orient="auto"
       refX="0"
       refY="0"
       style="overflow:visible">
      <path
         d="M 3,-3 -3,3 M 0,-5 V 5"
         style="stroke:#000000;stroke-width:0.5"
         id="path4" />
    </marker>
    <pattern
       id="Hatch"
       patternUnits="userSpaceOnUse"
       width="8"
       height="8"
       x="0"
       y="0">
      <path
         d="M8 4 l-4,4"
         stroke="#000000"
         stroke-width="0.25"
         linecap="square"
         id="path7" />
      <path
         d="M6 2 l-4,4"
         stroke="#000000"
         stroke-width="0.25"
         linecap="square"
         id="path9" />
      <path
         d="M4 0 l-4,4"
         stroke="#000000"
         stroke-width="0.25"
         linecap="square"
         id="path11" />
    </pattern>
    <symbol
       id="*MODEL_SPACE" />
    <symbol
       id="*PAPER_SPACE" />
  </defs>
  <g
     inkscape:groupmode="layer"
     inkscape:label="0"
     id="g510"
     transform="translate(1991.08,542.182)">
    <path
       d="m 1889.7638,245.61575 a 7.2,7.2 0 1 0 0,14.4"
       style="fill:none;stroke:#000000"
       id="path18" />
    <path
       style="fill:none;stroke:#000000"
       d="m 1889.76,245.616 v 14.4"
       id="path20" />
    <path
       d="m 1889.7638,642.54515 a 48,48 0 1 0 0,-64.01707"
       style="fill:none;stroke:#000000"
       id="path22" />
    <path
       style="fill:none;stroke:#000000"
       d="M 1889.76,642.545 V 578.528"
       id="path24" />
    <path
       style="fill:none;stroke:#000000"
       d="m 1889.76,820.408 h 78.3"
       id="path26" />
    <path
       style="fill:none;stroke:#000000"
       d="m 1968.06,820.408 -0.01,-117.246"
       id="path28" />
    <path
       style="fill:none;stroke:#000000"
       d="m 1968.05,703.162 h 18.97"
       id="path30" />
    <path
       style="fill:none;stroke:#000000"
       d="m 1987.02,703.162 -0.01,-427.565"
       id="path32" />
    <path
       style="fill:none;stroke:#000000"
       d="m 1987.01,275.597 h -20.45"
       id="path34" />
    <path
       style="fill:none;stroke:#000000"
       d="m 1966.56,275.597 v -29.94"
       id="path36" />
    <path
       style="fill:none;stroke:#000000"
       d="M 1966.56,245.657 V 8.72305"
       id="path38" />
    <path
       style="fill:none;stroke:#000000"
       d="M 1966.56,8.72305 V 8.6817"
       id="path40" />
    <path
       d="m 1966.5638,8.681697 c 0,-21.011047 -2.8331,-41.935633 -7.9775,-63.954005 -5.9703,-25.552657 -15.1404,-52.613262 -28.5899,-81.348732 -16.0121,-34.21059 -38.1486,-70.78676 -69.5173,-107.64767 -33.9896,-39.94062 -78.8444,-80.00693 -138.7961,-116.57921 -56.8582,-34.68516 -127.1916,-66.22721 -215.9813,-92.72013 -92.7853,-27.68512 -205.8974,-49.90082 -345.9987,-65.02895 -106.7461,-11.52643 -229.24113,-18.92178 -369.40697,-21.75575 -43.79799,-0.88554 -89.30856,-1.32917 -136.54876,-1.32917"
       style="fill:none;stroke:#000000"
       id="path42" />
    <path
       style="fill:none;stroke:#000000"
       d="M 653.747,-541.682 H -653.747"
       id="path44" />
    <path
       d="m -1966.5638,8.681697 c 0,-21.011047 2.8331,-41.935633 7.9775,-63.954005 5.9703,-25.552657 15.1405,-52.613262 28.5899,-81.348732 16.0121,-34.21059 38.1486,-70.78676 69.5173,-107.64767 33.9896,-39.94062 78.8444,-80.00693 138.7961,-116.57921 56.8582,-34.68516 127.1917,-66.22721 215.9813,-92.72013 92.7853,-27.68512 205.8974,-49.90082 345.9987,-65.02895 106.7461,-11.52643 229.24114,-18.92178 369.40697,-21.75575 43.79799,-0.88554 89.30856,-1.32917 136.54876,-1.32917"
       style="fill:none;stroke:#000000"
       id="path46" />
    <path
       style="fill:none;stroke:#000000"
       d="M -1966.56,8.6817 V 8.72305"
       id="path48" />
    <path
       style="fill:none;stroke:#000000"
       d="M -1966.56,8.72305 V 275.597"
       id="path50" />
    <path
       style="fill:none;stroke:#000000"
       d="m -1966.56,275.597 h -24.02"
       id="path52" />
    <path
       style="fill:none;stroke:#000000"
       d="M -1990.58,275.597 V 723.811"
       id="path54" />
    <path
       style="fill:none;stroke:#000000"
       d="m -1990.58,723.811 h 16.34"
       id="path56" />
    <path
       style="fill:none;stroke:#000000"
       d="m -1974.24,723.811 v 96.597"
       id="path58" />
    <path
       style="fill:none;stroke:#000000"
       d="m -1974.24,820.408 h 84.48"
       id="path60" />
    <path
       style="fill:none;stroke:#000000"
       d="M -1889.76,820.408 V 1122.52"
       id="path62" />
    <path
       style="fill:none;stroke:#000000"
       d="M -1889.76,1122.52 H -407.752"
       id="path64" />
    <path
       d="m -264.34925,1198.1102 c -11.56083,0 -22.37667,-2.2089 -33.0627,-6.6155 -11.75121,-4.8459 -22.41275,-11.9774 -32.38469,-19.7812 -14.48415,-11.3348 -27.71859,-24.2483 -40.82999,-34.0973 -6.26661,-4.7074 -12.54483,-8.7421 -18.90142,-11.4606 -2.96211,-1.2668 -6.02993,-2.285 -9.18988,-2.9253 -2.98567,-0.605 -5.99027,-0.8602 -9.03388,-0.7106"
       style="fill:none;stroke:#000000"
       id="path66" />
    <path
       style="fill:none;stroke:#000000"
       d="M -264.349,1198.11 H 264.349"
       id="path68" />
    <path
       d="m 407.75182,1122.5197 c -4.6671,-0.2293 -9.20124,0.4962 -13.64533,1.9197 -5.99671,1.9208 -11.90387,5.1324 -17.81048,9.1232 -12.8443,8.6782 -25.83921,21.1639 -39.82622,32.7641 -10.49538,8.7044 -21.40467,16.7903 -33.38097,22.6161 -5.97458,2.9064 -12.13563,5.2117 -18.59398,6.7822 -6.63822,1.6142 -13.31465,2.3852 -20.14558,2.3852"
       style="fill:none;stroke:#000000"
       id="path70" />
    <path
       style="fill:none;stroke:#000000"
       d="M 407.752,1122.52 H 1889.76"
       id="path72" />
    <path
       style="fill:none;stroke:#000000"
       d="M 1889.76,1122.52 V 820.408"
       id="path74" />
    <path
       d="m -1889.7637,260.01575 v -14.4 a 7.2,7.2 0 0 1 0,14.4 z"
       style="fill:none;stroke:#000000"
       id="path76" />
    <path
       d="m -1013.3985,574.77677 a 8.16,8.16 0 0 0 -16.32,0 8.16,8.16 0 0 0 16.32,0 z"
       style="fill:none;stroke:#000000"
       id="path78" />
    <path
       d="m 1867.6838,800.43966 a 8.16,8.16 0 0 0 -16.32,0 8.16,8.16 0 0 0 16.32,0 z"
       style="fill:none;stroke:#000000"
       id="path80" />
    <path
       d="m -1599.084,800.53673 a 8.16,8.16 0 0 0 -16.32,0 8.16,8.16 0 0 0 16.32,0 z"
       style="fill:none;stroke:#000000"
       id="path82" />
    <path
       d="m 1074.8961,-416.94778 a 8.16,8.16 0 0 0 -16.32,0 8.16,8.16 0 0 0 16.32,0 z"
       style="fill:none;stroke:#000000"
       id="path84" />
    <path
       d="m -1746.924,800.53673 a 8.16,8.16 0 0 0 -16.32,0 8.16,8.16 0 0 0 16.32,0 z"
       style="fill:none;stroke:#000000"
       id="path86" />
    <path
       d="m 1475.2081,-363.96531 a 8.16,8.16 0 0 0 -16.32,0 8.16,8.16 0 0 0 16.32,0 z"
       style="fill:none;stroke:#000000"
       id="path88" />
    <path
       d="m 23.503233,907.37267 a 24,24 0 0 0 -48,0 24,24 0 0 0 48,0 z"
       style="fill:none;stroke:#000000"
       id="path90" />
    <path
       d="m -876.56923,800.41702 a 8.16,8.16 0 0 0 -16.32,0 8.16,8.16 0 0 0 16.32,0 z"
       style="fill:none;stroke:#000000"
       id="path92" />
    <path
       d="m 677.84389,-2.18717 a 8.16,8.16 0 0 0 -16.32,0 8.16,8.16 0 0 0 16.32,0 z"
       style="fill:none;stroke:#000000"
       id="path94" />
    <path
       d="m -1746.924,1092.3767 a 8.16,8.16 0 0 0 -16.32,0 8.16,8.16 0 0 0 16.32,0 z"
       style="fill:none;stroke:#000000"
       id="path96" />
    <path
       d="m -522.32923,800.41702 a 8.16,8.16 0 0 0 -16.32,0 8.16,8.16 0 0 0 16.32,0 z"
       style="fill:none;stroke:#000000"
       id="path98" />
    <path
       d="m 1489.3755,-64.126562 h 136.063 V 21.85769 h -136.063 z"
       style="fill:none;stroke:#000000"
       id="path100" />
    <path
       d="m -13.356109,348.21283 a 8.16,8.16 0 0 0 -16.32,0 8.16,8.16 0 0 0 16.32,0 z"
       style="fill:none;stroke:#000000"
       id="path102" />
    <path
       d="m 913.04389,737.01283 a 8.16,8.16 0 0 0 -16.32,0 8.16,8.16 0 0 0 16.32,0 z"
       style="fill:none;stroke:#000000"
       id="path104" />
    <path
       d="m 822.14345,563.90836 a 8.16,8.16 0 0 0 -16.32,0 8.16,8.16 0 0 0 16.32,0 z"
       style="fill:none;stroke:#000000"
       id="path106" />
    <path
       d="m 252.52544,907.37267 a 36,36 0 0 0 -72,0 36,36 0 0 0 72,0 z"
       style="fill:none;stroke:#000000"
       id="path108" />
    <path
       d="m -13.356109,-2.18717 a 8.16,8.16 0 0 0 -16.32,0 8.16,8.16 0 0 0 16.32,0 z"
       style="fill:none;stroke:#000000"
       id="path110" />
    <path
       d="m 46.697444,1079.2765 a 4.8,4.8 0 0 0 -9.6,0 4.8,4.8 0 0 0 9.6,0 z"
       style="fill:none;stroke:#000000"
       id="path112" />
    <path
       d="m 677.84389,506.61283 a 8.16,8.16 0 0 0 -16.32,0 8.16,8.16 0 0 0 16.32,0 z"
       style="fill:none;stroke:#000000"
       id="path114" />
    <path
       d="m 1513.0369,626.20098 a 8.16,8.16 0 0 0 -16.32,0 8.16,8.16 0 0 0 16.32,0 z"
       style="fill:none;stroke:#000000"
       id="path116" />
    <path
       d="m 1032.8298,852.99474 a 9.6,9.6 0 0 0 -19.2,0 9.6,9.6 0 0 0 19.2,0 z"
       style="fill:none;stroke:#000000"
       id="path118" />
    <path
       d="m -866.11762,-423.10114 a 8.16,8.16 0 0 0 -16.32,0 8.16,8.16 0 0 0 16.32,0 z"
       style="fill:none;stroke:#000000"
       id="path120" />
    <path
       d="m -1787.1585,574.77677 a 8.16,8.16 0 0 0 -16.32,0 8.16,8.16 0 0 0 16.32,0 z"
       style="fill:none;stroke:#000000"
       id="path122" />
    <path
       d="m -1376.5561,737.01283 a 8.16,8.16 0 0 0 -16.32,0 8.16,8.16 0 0 0 16.32,0 z"
       style="fill:none;stroke:#000000"
       id="path124" />
    <path
       d="m -204.24565,910.11021 a 15.118111,15.118111 0 0 0 -30.23622,0 15.118111,15.118111 0 0 0 30.23622,0 z"
       style="fill:none;stroke:#000000"
       id="path126" />
    <path
       d="m -13.356109,737.01283 a 8.16,8.16 0 0 0 -16.32,0 8.16,8.16 0 0 0 16.32,0 z"
       style="fill:none;stroke:#000000"
       id="path128" />
    <path
       d="m -379.58375,-429.37696 a 8.16,8.16 0 0 0 -16.32,0 8.16,8.16 0 0 0 16.32,0 z"
       style="fill:none;stroke:#000000"
       id="path130" />
    <path
       d="m -330.15611,-434.18717 a 8.16,8.16 0 0 0 -16.32,0 8.16,8.16 0 0 0 16.32,0 z"
       style="fill:none;stroke:#000000"
       id="path132" />
    <path
       d="m -1342.554,-387.93242 a 8.16,8.16 0 0 0 -16.32,0 8.16,8.16 0 0 0 16.32,0 z"
       style="fill:none;stroke:#000000"
       id="path134" />
    <path
       d="m -1787.1585,671.73677 a 8.16,8.16 0 0 0 -16.32,0 8.16,8.16 0 0 0 16.32,0 z"
       style="fill:none;stroke:#000000"
       id="path136" />
    <path
       d="m -695.04639,326.29589 a 8.16,8.16 0 0 0 -16.32,0 8.16,8.16 0 0 0 16.32,0 z"
       style="fill:none;stroke:#000000"
       id="path138" />
    <path
       d="m -1013.3985,671.73677 a 8.16,8.16 0 0 0 -16.32,0 8.16,8.16 0 0 0 16.32,0 z"
       style="fill:none;stroke:#000000"
       id="path140" />
    <path
       d="m 932.75927,389.39093 a 8.16,8.16 0 0 0 -16.32,0 8.16,8.16 0 0 0 16.32,0 z"
       style="fill:none;stroke:#000000"
       id="path142" />
    <path
       d="m 731.81588,1047.5248 a 7.2,7.2 0 0 0 -14.4,0 7.2,7.2 0 0 0 14.4,0 z"
       style="fill:none;stroke:#000000"
       id="path144" />
    <path
       d="m -1857.9436,678.88055 a 8.16,8.16 0 0 0 -16.32,0 8.16,8.16 0 0 0 16.32,0 z"
       style="fill:none;stroke:#000000"
       id="path146" />
    <path
       d="m -13.356109,-434.18717 a 8.16,8.16 0 0 0 -16.32,0 8.16,8.16 0 0 0 16.32,0 z"
       style="fill:none;stroke:#000000"
       id="path148" />
    <path
       d="m -1342.554,326.29589 a 8.16,8.16 0 0 0 -16.32,0 8.16,8.16 0 0 0 16.32,0 z"
       style="fill:none;stroke:#000000"
       id="path150" />
    <path
       d="m 1032.8298,991.81312 a 9.6,9.6 0 0 0 -19.2,0 9.6,9.6 0 0 0 19.2,0 z"
       style="fill:none;stroke:#000000"
       id="path152" />
    <path
       d="m 1648.7166,-21.134436 a 8.16,8.16 0 0 0 -16.32,0 8.16,8.16 0 0 0 16.32,0 z"
       style="fill:none;stroke:#000000"
       id="path154" />
    <path
       d="m 1482.4174,-21.134436 a 8.16,8.16 0 0 0 -16.32,0 8.16,8.16 0 0 0 16.32,0 z"
       style="fill:none;stroke:#000000"
       id="path156" />
    <path
       d="m 120.30064,1079.2765 a 9.6,9.6 0 0 0 -19.2,0 9.6,9.6 0 0 0 19.2,0 z"
       style="fill:none;stroke:#000000"
       id="path158" />
    <path
       d="m -838.95611,737.01283 a 8.16,8.16 0 0 0 -16.32,0 8.16,8.16 0 0 0 16.32,0 z"
       style="fill:none;stroke:#000000"
       id="path160" />
    <path
       d="m -812.52685,382.091 a 8.1600004,8.1600004 0 0 0 -0.24828,16.31811 8.1600004,8.1600004 0 0 0 0.24828,-16.31811 z"
       style="fill:none;stroke:#000000"
       id="path162" />
    <path
       d="m 592.61588,855.52477 a 7.2,7.2 0 0 0 -14.4,0 7.2,7.2 0 0 0 14.4,0 z"
       style="fill:none;stroke:#000000"
       id="path164" />
    <path
       d="m 1551.4439,737.01283 a 8.16,8.16 0 0 0 -16.32,0 8.16,8.16 0 0 0 16.32,0 z"
       style="fill:none;stroke:#000000"
       id="path166" />
    <path
       d="m -426.15611,737.01283 a 8.16,8.16 0 0 0 -16.32,0 8.16,8.16 0 0 0 16.32,0 z"
       style="fill:none;stroke:#000000"
       id="path168" />
    <path
       d="m 1799.1169,626.20098 a 8.16,8.16 0 0 0 -16.32,0 8.16,8.16 0 0 0 16.32,0 z"
       style="fill:none;stroke:#000000"
       id="path170" />
    <path
       d="m 855.44389,737.01283 a 8.16,8.16 0 0 0 -16.32,0 8.16,8.16 0 0 0 16.32,0 z"
       style="fill:none;stroke:#000000"
       id="path172" />
    <path
       d="m 592.61588,1047.5248 a 7.2,7.2 0 0 0 -14.4,0 7.2,7.2 0 0 0 14.4,0 z"
       style="fill:none;stroke:#000000"
       id="path174" />
    <path
       d="m -812.64347,554.88424 a 8.16,8.16 0 0 0 1.4e-4,16.32 8.16,8.16 0 0 0 -1.4e-4,-16.32 z"
       style="fill:none;stroke:#000000"
       id="path176" />
    <path
       d="m 1234.6439,737.01283 a 8.16,8.16 0 0 0 -16.32,0 8.16,8.16 0 0 0 16.32,0 z"
       style="fill:none;stroke:#000000"
       id="path178" />
    <path
       d="m -1342.554,-3.07274 a 8.16,8.16 0 0 0 -16.32,0 8.16,8.16 0 0 0 16.32,0 z"
       style="fill:none;stroke:#000000"
       id="path180" />
    <path
       d="m 677.84389,737.01283 a 8.16,8.16 0 0 0 -16.32,0 8.16,8.16 0 0 0 16.32,0 z"
       style="fill:none;stroke:#000000"
       id="path182" />
    <path
       d="m -452.41678,1092.2797 a 8.16,8.16 0 0 0 -16.32,0 8.16,8.16 0 0 0 16.32,0 z"
       style="fill:none;stroke:#000000"
       id="path184" />
    <path
       d="m 1603.9388,-117.43077 h -88.8189 v -97.32284 h 88.8189 z"
       style="fill:none;stroke:#000000"
       id="path186" />
    <path
       d="m 935.41887,562.16465 a 8.16,8.16 0 0 0 -16.32,0 8.16,8.16 0 0 0 16.32,0 z"
       style="fill:none;stroke:#000000"
       id="path188" />
    <path
       d="m 670.65949,-426.75935 a 8.16,8.16 0 0 0 -16.32,0 8.16,8.16 0 0 0 16.32,0 z"
       style="fill:none;stroke:#000000"
       id="path190" />
    <path
       d="m -204.24567,1078.1102 a 15.118111,15.118111 0 0 0 -30.23622,0 15.118111,15.118111 0 0 0 30.23622,0 z"
       style="fill:none;stroke:#000000"
       id="path192" />
    <path
       d="m 819.48385,391.13462 a 8.16,8.16 0 0 0 -16.32,0 8.16,8.16 0 0 0 16.32,0 z"
       style="fill:none;stroke:#000000"
       id="path194" />
    <path
       d="m -452.41674,800.43967 a 8.16,8.16 0 0 0 -16.32,0 8.16,8.16 0 0 0 16.32,0 z"
       style="fill:none;stroke:#000000"
       id="path196" />
    <path
       d="m 1873.5577,-3.365227 a 8.16,8.16 0 0 0 -16.32,0 8.16,8.16 0 0 0 16.32,0 z"
       style="fill:none;stroke:#000000"
       id="path198" />
    <path
       d="m -1599.084,1092.3767 a 8.16,8.16 0 0 0 -16.32,0 8.16,8.16 0 0 0 16.32,0 z"
       style="fill:none;stroke:#000000"
       id="path200" />
    <path
       d="m 857.3331,547.64964 a 12,12 0 0 0 -0.0417,1 v 56.87432 a 12,12 0 0 0 24,0 v -56.87432 a 12,12 0 0 0 -0.0417,-1 72,72 0 1 0 -23.91652,0 z"
       style="fill:none;stroke:#000000"
       id="path202" />
    <path
       d="m -881.24958,547.64964 a 12,12 0 0 0 -0.0417,1 v 56.87432 a 12,12 0 0 0 24,0 v -56.87432 a 12,12 0 0 0 -0.0417,-1 72,72 0 1 0 -23.91652,0 z"
       style="fill:none;stroke:#000000"
       id="path204" />
    <path
       d="M 16.705656,762.51972 V -384.82987 H 621.50566 V 762.5197 Z"
       style="fill:none;stroke:#000000"
       id="path206" />
    <path
       d="m -876.56923,1092.257 a 8.16,8.16 0 0 0 -16.32,0 8.16,8.16 0 0 0 16.32,0 z"
       style="fill:none;stroke:#000000"
       id="path208" />
    <path
       d="m -18.696223,-422.73163 v 99.47598 h -15.67308 V 663.2409 a 48,48 0 0 1 -48,48 H -645.58694 a 48,48 0 0 1 -48,-48 V 365.73023 a 2.305512,2.305512 0 0 1 2.30551,-2.30551 h 0.71933 a 2.305512,2.305512 0 0 0 2.30552,-2.30552 v -42.62145 a 7.328854,7.328854 0 0 0 -7.32886,-7.32885 h -26.40789 a 9.122164,9.122164 0 0 0 -9.12217,9.12216 v 9.06237 a 9.6,9.6 0 0 1 -9.6,9.6 h -259.779 a 9.6,9.6 0 0 1 -9.6,-9.6 v -14.71098 a 9.6,9.6 0 0 0 -9.6,-9.6 h -35.6588 a 9.6,9.6 0 0 0 -9.6,9.6 v 12.59845 a 9.6,9.6 0 0 1 -9.6,9.59999 h -222.4452 l -43.5028,-20.28567 -20.2856,-43.50278 V 30.179935 a 9.6,9.6 0 0 1 9.6,-9.6 h 18.9967 a 9.6,9.6 0 0 0 9.6,-9.600061 l -2e-4,-24.610512 a 9.6,9.6 0 0 0 -9.6,-9.59994 h -18.9965 a 9.6,9.6 0 0 1 -9.6,-9.6 V -312.37328 a 48,48 0 0 1 47.5369,-47.99776 h 509.09032 v -71.26208 h 352.45562 v 20.56431 h 60.19612 v 72.80729 h 78.7488 v -84.47011 z"
       style="fill:none;stroke:#000000"
       id="path210" />
    <path
       d="m -672.48416,823.75419 v 240.04971 a 24,24 0 0 1 -24,24 h -148.78149 v -14.216 h -67.57454 v 14.216 h -645.61351 a 24,24 0 0 1 -24,-24 h -198.9336 V 847.80391 h 198.9336 v -66.49219 a 24,24 0 0 1 24,-24 h 643.91688 l 0.86894,71.02099 h 63.19704 v -28.57852 h 153.98668 a 24,24 0 0 1 24,24 z"
       style="fill:none;stroke:#000000"
       id="path212" />
    <path
       d="m -1029.2174,326.29589 a 8.16,8.16 0 0 0 -16.32,0 8.16,8.16 0 0 0 16.32,0 z"
       style="fill:none;stroke:#000000"
       id="path214" />
    <path
       d="m -1388.7734,-385.04709 a 8.16,8.16 0 0 0 -16.32,0 8.16,8.16 0 0 0 16.32,0 z"
       style="fill:none;stroke:#000000"
       id="path216" />
    <path
       d="m 677.84389,449.01283 a 8.16,8.16 0 0 0 -16.32,0 8.16,8.16 0 0 0 16.32,0 z"
       style="fill:none;stroke:#000000"
       id="path218" />
    <path
       d="m -522.32923,1092.257 a 8.16,8.16 0 0 0 -16.32,0 8.16,8.16 0 0 0 16.32,0 z"
       style="fill:none;stroke:#000000"
       id="path220" />
    <path
       d="m 1873.5577,687.83477 a 8.16,8.16 0 0 0 -16.32,0 8.16,8.16 0 0 0 16.32,0 z"
       style="fill:none;stroke:#000000"
       id="path222" />
    <path
       d="m -1800.6523,-141.35272 a 8.16,8.16 0 0 0 -16.32,0 8.16,8.16 0 0 0 16.32,0 z"
       style="fill:none;stroke:#000000"
       id="path224" />
    <path
       d="m 648.13788,859.10199 h 46.31811 v 23.46709 h 26.45669 V 1011.073 h -26.45669 v 23.4671 H 665.5237 v -14.2779 H 585.57027 V 872.86058 h 62.56761 z"
       style="fill:none;stroke:#000000"
       id="path226" />
    <path
       d="m -925.81552,398.41409 a 8.1600021,8.1600021 0 0 0 -0.24864,-16.31811 8.1600021,8.1600021 0 0 0 0.24864,16.31811 z"
       style="fill:none;stroke:#000000"
       id="path228" />
    <path
       d="m 1867.6838,1092.2797 a 8.16,8.16 0 0 0 -16.32,0 8.16,8.16 0 0 0 16.32,0 z"
       style="fill:none;stroke:#000000"
       id="path230" />
    <path
       d="m -891.75611,737.01283 a 8.16,8.16 0 0 0 -16.32,0 8.16,8.16 0 0 0 16.32,0 z"
       style="fill:none;stroke:#000000"
       id="path232" />
    <path
       d="m 731.81588,855.52477 a 7.2,7.2 0 0 0 -14.4,0 7.2,7.2 0 0 0 14.4,0 z"
       style="fill:none;stroke:#000000"
       id="path234" />
    <path
       d="m 184.30384,1079.2765 a 4.8,4.8 0 0 0 -9.6,0 4.8,4.8 0 0 0 9.6,0 z"
       style="fill:none;stroke:#000000"
       id="path236" />
    <path
       d="m -925.80188,571.20819 a 8.1600013,8.1600013 0 0 0 -0.26071,-16.31792 8.1600013,8.1600013 0 0 0 0.26071,16.31792 z"
       style="fill:none;stroke:#000000"
       id="path238" />
    <path
       d="m 1096.0995,772.89175 h 661.6643 v 322.28675 h -661.6643 z"
       style="fill:none;stroke:#000000"
       id="path240" />
    <path
       d="m -1784.0606,704.79324 v -163.2 h 752.8761 v 163.2 z"
       style="fill:none;stroke:#000000"
       id="path242" />
    <path
       d="M -1619.7959,13.095759 V -210.10424 a 48,48 0 0 1 48,-48 h 186.8468 v 736.62108 a 48,48 0 0 1 -48,48 h -378.8976 a 48,48 0 0 1 -48,-48 V 61.095759 a 48,48 0 0 1 48,-48 z"
       style="fill:none;stroke:#000000"
       id="path244" />
    <path
       d="m -1917.6007,724.40766 a 14.4,14.4 0 0 0 -28.8,0 14.4,14.4 0 0 0 28.8,0 z"
       style="fill:none;stroke:#000000"
       id="path246" />
    <path
       d="m -1917.6007,508.40766 a 14.4,14.4 0 0 0 -28.8,0 14.4,14.4 0 0 0 28.8,0 z"
       style="fill:none;stroke:#000000"
       id="path248" />
    <path
       d="m -1917.6007,316.40766 a 14.4,14.4 0 0 0 -28.8,0 14.4,14.4 0 0 0 28.8,0 z"
       style="fill:none;stroke:#000000"
       id="path250" />
    <path
       d="m 1946.4008,724.40766 a 14.4,14.4 0 0 0 -28.8,0 14.4,14.4 0 0 0 28.8,0 z"
       style="fill:none;stroke:#000000"
       id="path252" />
    <path
       d="m 1946.4008,508.40766 a 14.4,14.4 0 0 0 -28.8,0 14.4,14.4 0 0 0 28.8,0 z"
       style="fill:none;stroke:#000000"
       id="path254" />
    <path
       d="m 1946.4008,316.40766 a 14.4,14.4 0 0 0 -28.8,0 14.4,14.4 0 0 0 28.8,0 z"
       style="fill:none;stroke:#000000"
       id="path256" />
    <path
       d="m -1894.3481,417.62698 a 40.8,40.8 0 0 0 -81.6,0 40.8,40.8 0 0 0 81.6,0 z"
       style="fill:none;stroke:#000000"
       id="path258" />
    <path
       d="m -1889.7637,544.23493 a 60,60 0 1 0 0,101.05133"
       style="fill:none;stroke:#000000"
       id="path260" />
    <path
       style="fill:none;stroke:#000000"
       d="M -1889.76,544.235 V 645.286"
       id="path262" />
    <path
       d="m -1889.7637,260.01575 v -14.4 a 7.2,7.2 0 0 1 0,14.4 z"
       style="fill:none;stroke:#000000"
       id="path264" />
    <path
       style="fill:none;stroke:#000000"
       d="m 1889.76,245.616 v 14.4"
       id="path266" />
    <path
       style="fill:none;stroke:#000000"
       d="m 1889.76,820.408 h 78.3"
       id="path268" />
    <path
       style="fill:none;stroke:#000000"
       d="m 1968.06,820.408 -0.01,-117.246"
       id="path270" />
    <path
       style="fill:none;stroke:#000000"
       d="m 1968.05,703.162 h 18.97"
       id="path272" />
    <path
       style="fill:none;stroke:#000000"
       d="m 1987.02,703.162 -0.01,-427.565"
       id="path274" />
    <path
       style="fill:none;stroke:#000000"
       d="m 1987.01,275.597 h -20.45"
       id="path276" />
    <path
       style="fill:none;stroke:#000000"
       d="m 1966.56,275.597 v -29.94"
       id="path278" />
    <path
       style="fill:none;stroke:#000000"
       d="M 1966.56,245.657 V 8.72305"
       id="path280" />
    <path
       style="fill:none;stroke:#000000"
       d="M 1966.56,8.72305 V 8.6817"
       id="path282" />
    <path
       d="m 1966.5638,8.681697 c 0,-34.189738 -7.9232,-67.861048 -16.2969,-93.95805 -10.9231,-34.042547 -32.1781,-84.213867 -71.6971,-136.461167 -52.2597,-69.0917 -115.9786,-115.48794 -169.4019,-146.56577 -89.2367,-51.91146 -198.533,-89.46461 -327.3352,-116.24694 -189.0361,-39.30697 -428.71037,-57.13169 -728.08543,-57.13169"
       style="fill:none;stroke:#000000"
       id="path284" />
    <path
       style="fill:none;stroke:#000000"
       d="M 653.747,-541.682 H -653.747"
       id="path286" />
    <path
       d="m -653.74727,-541.68192 c -377.26483,0 -658.27433,28.20145 -863.62723,91.65845 -113.9165,35.20181 -204.4103,81.22974 -275.0989,139.22278 -59.779,49.04282 -97.6501,100.5037 -121.813,143.58743 -13.0938,23.34716 -28.4698,55.30335 -39.3568,93.014374 -7.2854,25.235505 -12.9206,53.375892 -12.9206,82.880583"
       style="fill:none;stroke:#000000"
       id="path288" />
    <path
       style="fill:none;stroke:#000000"
       d="M -1966.56,8.6817 V 8.72305"
       id="path290" />
    <path
       style="fill:none;stroke:#000000"
       d="M -1966.56,8.72305 V 275.597"
       id="path292" />
    <path
       d="m -1917.6007,724.40766 a 14.4,14.4 0 0 0 -28.8,0 14.4,14.4 0 0 0 28.8,0 z"
       style="fill:none;stroke:#000000"
       id="path294" />
    <path
       d="m -1917.6007,508.40766 a 14.4,14.4 0 0 0 -28.8,0 14.4,14.4 0 0 0 28.8,0 z"
       style="fill:none;stroke:#000000"
       id="path296" />
    <path
       d="m -1917.6007,316.40766 a 14.4,14.4 0 0 0 -28.8,0 14.4,14.4 0 0 0 28.8,0 z"
       style="fill:none;stroke:#000000"
       id="path298" />
    <path
       d="m 1946.4008,724.40766 a 14.4,14.4 0 0 0 -28.8,0 14.4,14.4 0 0 0 28.8,0 z"
       style="fill:none;stroke:#000000"
       id="path300" />
    <path
       d="m 1946.4008,508.40766 a 14.4,14.4 0 0 0 -28.8,0 14.4,14.4 0 0 0 28.8,0 z"
       style="fill:none;stroke:#000000"
       id="path302" />
    <path
       d="m 1946.4008,316.40766 a 14.4,14.4 0 0 0 -28.8,0 14.4,14.4 0 0 0 28.8,0 z"
       style="fill:none;stroke:#000000"
       id="path304" />
    <path
       d="m -1894.3481,417.62698 a 40.8,40.8 0 0 0 -81.6,0 40.8,40.8 0 0 0 81.6,0 z"
       style="fill:none;stroke:#000000"
       id="path306" />
    <path
       style="fill:none;stroke:#000000"
       d="m -1966.56,275.597 h -24.02"
       id="path308" />
    <path
       style="fill:none;stroke:#000000"
       d="M -1990.58,275.597 V 723.811"
       id="path310" />
    <path
       style="fill:none;stroke:#000000"
       d="m -1990.58,723.811 h 16.34"
       id="path312" />
    <path
       style="fill:none;stroke:#000000"
       d="m -1974.24,723.811 v 96.597"
       id="path314" />
    <path
       style="fill:none;stroke:#000000"
       d="m -1974.24,820.408 h 84.48"
       id="path316" />
    <path
       d="m -1889.7637,544.23493 a 60,60 0 1 0 0,101.05133"
       style="fill:none;stroke:#000000"
       id="path318" />
    <path
       d="m 1889.7638,642.54515 a 48,48 0 1 0 0,-64.01707"
       style="fill:none;stroke:#000000"
       id="path320" />
    <path
       style="fill:none;stroke:#000000"
       d="M 1889.76,820.408 V 1122.52"
       id="path322" />
    <path
       style="fill:none;stroke:#000000"
       d="M -1889.76,645.286 V 544.235"
       id="path324" />
    <path
       style="fill:none;stroke:#000000"
       d="m 1889.76,578.528 v 64.017"
       id="path326" />
    <path
       style="fill:none;stroke:#000000"
       d="M 1889.76,1122.52 H 407.752"
       id="path328" />
    <path
       d="m 407.75182,1122.5197 c -4.6671,-0.2293 -9.20124,0.4962 -13.64533,1.9197 -5.99671,1.9208 -11.90387,5.1324 -17.81048,9.1232 -12.8443,8.6782 -25.83921,21.1639 -39.82622,32.7641 -10.49538,8.7044 -21.40467,16.7903 -33.38097,22.6161 -5.97458,2.9064 -12.13563,5.2117 -18.59398,6.7822 -6.63822,1.6142 -13.31465,2.3852 -20.14558,2.3852"
       style="fill:none;stroke:#000000"
       id="path330" />
    <path
       style="fill:none;stroke:#000000"
       d="M 264.349,1198.11 H -264.349"
       id="path332" />
    <path
       d="m -264.34925,1198.1102 c -11.56083,0 -22.37667,-2.2089 -33.0627,-6.6155 -11.75121,-4.8459 -22.41275,-11.9774 -32.38469,-19.7812 -14.48415,-11.3348 -27.71859,-24.2483 -40.82999,-34.0973 -6.26661,-4.7074 -12.54483,-8.7421 -18.90142,-11.4606 -2.96211,-1.2668 -6.02993,-2.285 -9.18988,-2.9253 -2.98567,-0.605 -5.99027,-0.8602 -9.03388,-0.7106"
       style="fill:none;stroke:#000000"
       id="path334" />
    <path
       style="fill:none;stroke:#000000"
       d="M -407.752,1122.52 H -1889.76"
       id="path336" />
    <path
       style="fill:none;stroke:#000000"
       d="M -1889.76,1122.52 V 820.408"
       id="path338" />
    <path
       d="m 1889.7638,245.61575 a 7.2,7.2 0 1 0 0,14.4"
       style="fill:none;stroke:#000000"
       id="path340" />
    <path
       d="m -1013.3985,574.77677 a 8.16,8.16 0 0 0 -16.32,0 8.16,8.16 0 0 0 16.32,0 z"
       style="fill:none;stroke:#000000"
       id="path342" />
    <path
       d="m 1867.6838,800.43966 a 8.16,8.16 0 0 0 -16.32,0 8.16,8.16 0 0 0 16.32,0 z"
       style="fill:none;stroke:#000000"
       id="path344" />
    <path
       d="m -1599.084,800.53673 a 8.16,8.16 0 0 0 -16.32,0 8.16,8.16 0 0 0 16.32,0 z"
       style="fill:none;stroke:#000000"
       id="path346" />
    <path
       d="m 1074.8961,-416.94778 a 8.16,8.16 0 0 0 -16.32,0 8.16,8.16 0 0 0 16.32,0 z"
       style="fill:none;stroke:#000000"
       id="path348" />
    <path
       d="m -1746.924,800.53673 a 8.16,8.16 0 0 0 -16.32,0 8.16,8.16 0 0 0 16.32,0 z"
       style="fill:none;stroke:#000000"
       id="path350" />
    <path
       d="m 1475.2081,-363.96531 a 8.16,8.16 0 0 0 -16.32,0 8.16,8.16 0 0 0 16.32,0 z"
       style="fill:none;stroke:#000000"
       id="path352" />
    <path
       d="m 23.503233,907.37267 a 24,24 0 0 0 -48,0 24,24 0 0 0 48,0 z"
       style="fill:none;stroke:#000000"
       id="path354" />
    <path
       d="m -876.56923,800.41702 a 8.16,8.16 0 0 0 -16.32,0 8.16,8.16 0 0 0 16.32,0 z"
       style="fill:none;stroke:#000000"
       id="path356" />
    <path
       d="m 677.84389,-2.18717 a 8.16,8.16 0 0 0 -16.32,0 8.16,8.16 0 0 0 16.32,0 z"
       style="fill:none;stroke:#000000"
       id="path358" />
    <path
       d="m -1746.924,1092.3767 a 8.16,8.16 0 0 0 -16.32,0 8.16,8.16 0 0 0 16.32,0 z"
       style="fill:none;stroke:#000000"
       id="path360" />
    <path
       d="m -522.32923,800.41702 a 8.16,8.16 0 0 0 -16.32,0 8.16,8.16 0 0 0 16.32,0 z"
       style="fill:none;stroke:#000000"
       id="path362" />
    <path
       d="m 1625.4385,-64.126562 h -136.063 V 21.85769 h 136.063 z"
       style="fill:none;stroke:#000000"
       id="path364" />
    <path
       d="m -13.356109,348.21283 a 8.16,8.16 0 0 0 -16.32,0 8.16,8.16 0 0 0 16.32,0 z"
       style="fill:none;stroke:#000000"
       id="path366" />
    <path
       d="m 913.04389,737.01283 a 8.16,8.16 0 0 0 -16.32,0 8.16,8.16 0 0 0 16.32,0 z"
       style="fill:none;stroke:#000000"
       id="path368" />
    <path
       d="m 822.14345,563.90836 a 8.16,8.16 0 0 0 -16.32,0 8.16,8.16 0 0 0 16.32,0 z"
       style="fill:none;stroke:#000000"
       id="path370" />
    <path
       d="m 252.52544,907.37267 a 36,36 0 0 0 -72,0 36,36 0 0 0 72,0 z"
       style="fill:none;stroke:#000000"
       id="path372" />
    <path
       d="m -13.356109,-2.18717 a 8.16,8.16 0 0 0 -16.32,0 8.16,8.16 0 0 0 16.32,0 z"
       style="fill:none;stroke:#000000"
       id="path374" />
    <path
       d="m 46.697444,1079.2765 a 4.8,4.8 0 0 0 -9.6,0 4.8,4.8 0 0 0 9.6,0 z"
       style="fill:none;stroke:#000000"
       id="path376" />
    <path
       d="m 677.84389,506.61283 a 8.16,8.16 0 0 0 -16.32,0 8.16,8.16 0 0 0 16.32,0 z"
       style="fill:none;stroke:#000000"
       id="path378" />
    <path
       d="m 1513.0369,626.20098 a 8.16,8.16 0 0 0 -16.32,0 8.16,8.16 0 0 0 16.32,0 z"
       style="fill:none;stroke:#000000"
       id="path380" />
    <path
       d="m 1032.8298,852.99474 a 9.6,9.6 0 0 0 -19.2,0 9.6,9.6 0 0 0 19.2,0 z"
       style="fill:none;stroke:#000000"
       id="path382" />
    <path
       d="m -866.11762,-423.10114 a 8.16,8.16 0 0 0 -16.32,0 8.16,8.16 0 0 0 16.32,0 z"
       style="fill:none;stroke:#000000"
       id="path384" />
    <path
       d="m -1787.1585,574.77677 a 8.16,8.16 0 0 0 -16.32,0 8.16,8.16 0 0 0 16.32,0 z"
       style="fill:none;stroke:#000000"
       id="path386" />
    <path
       d="m -1376.5561,737.01283 a 8.16,8.16 0 0 0 -16.32,0 8.16,8.16 0 0 0 16.32,0 z"
       style="fill:none;stroke:#000000"
       id="path388" />
    <path
       d="m -204.24565,910.11021 a 15.118111,15.118111 0 0 0 -30.23622,0 15.118111,15.118111 0 0 0 30.23622,0 z"
       style="fill:none;stroke:#000000"
       id="path390" />
    <path
       d="m -13.356109,737.01283 a 8.16,8.16 0 0 0 -16.32,0 8.16,8.16 0 0 0 16.32,0 z"
       style="fill:none;stroke:#000000"
       id="path392" />
    <path
       d="m -379.58375,-429.37696 a 8.16,8.16 0 0 0 -16.32,0 8.16,8.16 0 0 0 16.32,0 z"
       style="fill:none;stroke:#000000"
       id="path394" />
    <path
       d="m -330.15611,-434.18717 a 8.16,8.16 0 0 0 -16.32,0 8.16,8.16 0 0 0 16.32,0 z"
       style="fill:none;stroke:#000000"
       id="path396" />
    <path
       d="m -1342.554,-387.93242 a 8.16,8.16 0 0 0 -16.32,0 8.16,8.16 0 0 0 16.32,0 z"
       style="fill:none;stroke:#000000"
       id="path398" />
    <path
       d="m -1787.1585,671.73677 a 8.16,8.16 0 0 0 -16.32,0 8.16,8.16 0 0 0 16.32,0 z"
       style="fill:none;stroke:#000000"
       id="path400" />
    <path
       d="m -695.04639,326.29589 a 8.16,8.16 0 0 0 -16.32,0 8.16,8.16 0 0 0 16.32,0 z"
       style="fill:none;stroke:#000000"
       id="path402" />
    <path
       d="m -1013.3985,671.73677 a 8.16,8.16 0 0 0 -16.32,0 8.16,8.16 0 0 0 16.32,0 z"
       style="fill:none;stroke:#000000"
       id="path404" />
    <path
       d="m 932.75927,389.39093 a 8.16,8.16 0 0 0 -16.32,0 8.16,8.16 0 0 0 16.32,0 z"
       style="fill:none;stroke:#000000"
       id="path406" />
    <path
       d="m 731.81588,1047.5248 a 7.2,7.2 0 0 0 -14.4,0 7.2,7.2 0 0 0 14.4,0 z"
       style="fill:none;stroke:#000000"
       id="path408" />
    <path
       d="m -1857.9436,678.88055 a 8.16,8.16 0 0 0 -16.32,0 8.16,8.16 0 0 0 16.32,0 z"
       style="fill:none;stroke:#000000"
       id="path410" />
    <path
       d="m -13.356109,-434.18717 a 8.16,8.16 0 0 0 -16.32,0 8.16,8.16 0 0 0 16.32,0 z"
       style="fill:none;stroke:#000000"
       id="path412" />
    <path
       d="m -1342.554,326.29589 a 8.16,8.16 0 0 0 -16.32,0 8.16,8.16 0 0 0 16.32,0 z"
       style="fill:none;stroke:#000000"
       id="path414" />
    <path
       d="m 1032.8298,991.81312 a 9.6,9.6 0 0 0 -19.2,0 9.6,9.6 0 0 0 19.2,0 z"
       style="fill:none;stroke:#000000"
       id="path416" />
    <path
       d="m 1648.7166,-21.134436 a 8.16,8.16 0 0 0 -16.32,0 8.16,8.16 0 0 0 16.32,0 z"
       style="fill:none;stroke:#000000"
       id="path418" />
    <path
       d="m 1482.4174,-21.134436 a 8.16,8.16 0 0 0 -16.32,0 8.16,8.16 0 0 0 16.32,0 z"
       style="fill:none;stroke:#000000"
       id="path420" />
    <path
       d="m 120.30064,1079.2765 a 9.6,9.6 0 0 0 -19.2,0 9.6,9.6 0 0 0 19.2,0 z"
       style="fill:none;stroke:#000000"
       id="path422" />
    <path
       d="m -838.95611,737.01283 a 8.16,8.16 0 0 0 -16.32,0 8.16,8.16 0 0 0 16.32,0 z"
       style="fill:none;stroke:#000000"
       id="path424" />
    <path
       d="m -812.52685,382.091 a 8.1600004,8.1600004 0 0 0 -0.24828,16.31811 8.1600004,8.1600004 0 0 0 0.24828,-16.31811 z"
       style="fill:none;stroke:#000000"
       id="path426" />
    <path
       d="m 592.61588,855.52477 a 7.2,7.2 0 0 0 -14.4,0 7.2,7.2 0 0 0 14.4,0 z"
       style="fill:none;stroke:#000000"
       id="path428" />
    <path
       d="m 1551.4439,737.01283 a 8.16,8.16 0 0 0 -16.32,0 8.16,8.16 0 0 0 16.32,0 z"
       style="fill:none;stroke:#000000"
       id="path430" />
    <path
       d="m -426.15611,737.01283 a 8.16,8.16 0 0 0 -16.32,0 8.16,8.16 0 0 0 16.32,0 z"
       style="fill:none;stroke:#000000"
       id="path432" />
    <path
       d="m 1799.1169,626.20098 a 8.16,8.16 0 0 0 -16.32,0 8.16,8.16 0 0 0 16.32,0 z"
       style="fill:none;stroke:#000000"
       id="path434" />
    <path
       d="m 855.44389,737.01283 a 8.16,8.16 0 0 0 -16.32,0 8.16,8.16 0 0 0 16.32,0 z"
       style="fill:none;stroke:#000000"
       id="path436" />
    <path
       d="m 592.61588,1047.5248 a 7.2,7.2 0 0 0 -14.4,0 7.2,7.2 0 0 0 14.4,0 z"
       style="fill:none;stroke:#000000"
       id="path438" />
    <path
       d="m -812.64347,554.88424 a 8.16,8.16 0 0 0 1.4e-4,16.32 8.16,8.16 0 0 0 -1.4e-4,-16.32 z"
       style="fill:none;stroke:#000000"
       id="path440" />
    <path
       d="m 1234.6439,737.01283 a 8.16,8.16 0 0 0 -16.32,0 8.16,8.16 0 0 0 16.32,0 z"
       style="fill:none;stroke:#000000"
       id="path442" />
    <path
       d="m -1342.554,-3.07274 a 8.16,8.16 0 0 0 -16.32,0 8.16,8.16 0 0 0 16.32,0 z"
       style="fill:none;stroke:#000000"
       id="path444" />
    <path
       d="m 677.84389,737.01283 a 8.16,8.16 0 0 0 -16.32,0 8.16,8.16 0 0 0 16.32,0 z"
       style="fill:none;stroke:#000000"
       id="path446" />
    <path
       d="m -452.41678,1092.2797 a 8.16,8.16 0 0 0 -16.32,0 8.16,8.16 0 0 0 16.32,0 z"
       style="fill:none;stroke:#000000"
       id="path448" />
    <path
       d="m 1515.1199,-117.43077 h 88.8189 v -97.32284 h -88.8189 z"
       style="fill:none;stroke:#000000"
       id="path450" />
    <path
       d="m 935.41887,562.16465 a 8.16,8.16 0 0 0 -16.32,0 8.16,8.16 0 0 0 16.32,0 z"
       style="fill:none;stroke:#000000"
       id="path452" />
    <path
       d="m 670.65949,-426.75935 a 8.16,8.16 0 0 0 -16.32,0 8.16,8.16 0 0 0 16.32,0 z"
       style="fill:none;stroke:#000000"
       id="path454" />
    <path
       d="m -204.24567,1078.1102 a 15.118111,15.118111 0 0 0 -30.23622,0 15.118111,15.118111 0 0 0 30.23622,0 z"
       style="fill:none;stroke:#000000"
       id="path456" />
    <path
       d="m 819.48385,391.13462 a 8.16,8.16 0 0 0 -16.32,0 8.16,8.16 0 0 0 16.32,0 z"
       style="fill:none;stroke:#000000"
       id="path458" />
    <path
       d="m -452.41674,800.43967 a 8.16,8.16 0 0 0 -16.32,0 8.16,8.16 0 0 0 16.32,0 z"
       style="fill:none;stroke:#000000"
       id="path460" />
    <path
       d="m 1873.5577,-3.365227 a 8.16,8.16 0 0 0 -16.32,0 8.16,8.16 0 0 0 16.32,0 z"
       style="fill:none;stroke:#000000"
       id="path462" />
    <path
       d="m -1599.084,1092.3767 a 8.16,8.16 0 0 0 -16.32,0 8.16,8.16 0 0 0 16.32,0 z"
       style="fill:none;stroke:#000000"
       id="path464" />
    <path
       d="m 857.3331,547.64964 a 12,12 0 0 0 -0.0417,1 v 56.87432 a 12,12 0 0 0 24,0 v -56.87432 a 12,12 0 0 0 -0.0417,-1 72,72 0 1 0 -23.91652,0 z"
       style="fill:none;stroke:#000000"
       id="path466" />
    <path
       d="m -881.24958,547.64964 a 12,12 0 0 0 -0.0417,1 v 56.87432 a 12,12 0 0 0 24,0 v -56.87432 a 12,12 0 0 0 -0.0417,-1 72,72 0 1 0 -23.91652,0 z"
       style="fill:none;stroke:#000000"
       id="path468" />
    <path
       d="M 16.705656,-384.82987 V 762.51972 l 604.800004,-2e-5 V -384.82987 Z"
       style="fill:none;stroke:#000000"
       id="path470" />
    <path
       d="m -876.56923,1092.257 a 8.16,8.16 0 0 0 -16.32,0 8.16,8.16 0 0 0 16.32,0 z"
       style="fill:none;stroke:#000000"
       id="path472" />
    <path
       d="m -18.696223,-323.25565 v -99.47598 H -312.75914 v 84.47011 h -78.7488 v -72.80729 h -60.19612 v -20.56431 h -352.45562 v 71.26208 H -1313.25 a 48,48 0 0 0 -47.5369,47.99776 v 279.542702 a 9.6,9.6 0 0 0 9.6,9.6 h 18.9965 a 9.6,9.6 0 0 1 9.6,9.59994 l 2e-4,24.610512 a 9.6,9.6 0 0 1 -9.6,9.600061 h -18.9967 a 9.6,9.6 0 0 0 -9.6,9.6 V 273.05244 l 20.2856,43.50278 43.5028,20.28567 h 222.4452 a 9.6,9.6 0 0 0 9.6,-9.59999 v -12.59845 a 9.6,9.6 0 0 1 9.6,-9.6 h 35.6588 a 9.6,9.6 0 0 1 9.6,9.6 v 14.71098 a 9.6,9.6 0 0 0 9.6,9.6 h 259.779 a 9.6,9.6 0 0 0 9.6,-9.6 v -9.06237 a 9.122164,9.122164 0 0 1 9.12217,-9.12216 h 26.40789 a 7.328854,7.328854 0 0 1 7.32886,7.32885 v 42.62145 a 2.305512,2.305512 0 0 1 -2.30552,2.30552 h -0.71933 a 2.305512,2.305512 0 0 0 -2.30551,2.30551 V 663.2409 a 48,48 0 0 0 48,48 h 563.217637 a 48,48 0 0 0 48,-48 v -986.49655 z"
       style="fill:none;stroke:#000000"
       id="path474" />
    <path
       d="M -672.48416,1063.8039 V 823.75419 a 24,24 0 0 0 -24,-24 h -153.98668 v 28.57852 h -63.19704 l -0.86894,-71.02099 h -643.91688 a 24,24 0 0 0 -24,24 v 66.49219 h -198.9336 v 215.99999 h 198.9336 a 24,24 0 0 0 24,24 h 645.61351 v -14.216 h 67.57454 v 14.216 h 148.78149 a 24,24 0 0 0 24,-24 z"
       style="fill:none;stroke:#000000"
       id="path476" />
    <path
       d="m -1029.2174,326.29589 a 8.16,8.16 0 0 0 -16.32,0 8.16,8.16 0 0 0 16.32,0 z"
       style="fill:none;stroke:#000000"
       id="path478" />
    <path
       d="m -1388.7734,-385.04709 a 8.16,8.16 0 0 0 -16.32,0 8.16,8.16 0 0 0 16.32,0 z"
       style="fill:none;stroke:#000000"
       id="path480" />
    <path
       d="m 677.84389,449.01283 a 8.16,8.16 0 0 0 -16.32,0 8.16,8.16 0 0 0 16.32,0 z"
       style="fill:none;stroke:#000000"
       id="path482" />
    <path
       d="m -522.32923,1092.257 a 8.16,8.16 0 0 0 -16.32,0 8.16,8.16 0 0 0 16.32,0 z"
       style="fill:none;stroke:#000000"
       id="path484" />
    <path
       d="m 1873.5577,687.83477 a 8.16,8.16 0 0 0 -16.32,0 8.16,8.16 0 0 0 16.32,0 z"
       style="fill:none;stroke:#000000"
       id="path486" />
    <path
       d="m -1800.6523,-141.35272 a 8.16,8.16 0 0 0 -16.32,0 8.16,8.16 0 0 0 16.32,0 z"
       style="fill:none;stroke:#000000"
       id="path488" />
    <path
       d="m 694.45599,859.10199 h -46.31811 v 13.75859 h -62.56761 v 147.40162 h 79.95343 v 14.2779 h 28.93229 v -23.4671 h 26.45669 V 882.56908 h -26.45669 z"
       style="fill:none;stroke:#000000"
       id="path490" />
    <path
       d="m -925.81552,398.41409 a 8.1600021,8.1600021 0 0 0 -0.24864,-16.31811 8.1600021,8.1600021 0 0 0 0.24864,16.31811 z"
       style="fill:none;stroke:#000000"
       id="path492" />
    <path
       d="m 1867.6838,1092.2797 a 8.16,8.16 0 0 0 -16.32,0 8.16,8.16 0 0 0 16.32,0 z"
       style="fill:none;stroke:#000000"
       id="path494" />
    <path
       d="m -891.75611,737.01283 a 8.16,8.16 0 0 0 -16.32,0 8.16,8.16 0 0 0 16.32,0 z"
       style="fill:none;stroke:#000000"
       id="path496" />
    <path
       d="m 731.81588,855.52477 a 7.2,7.2 0 0 0 -14.4,0 7.2,7.2 0 0 0 14.4,0 z"
       style="fill:none;stroke:#000000"
       id="path498" />
    <path
       d="m 184.30384,1079.2765 a 4.8,4.8 0 0 0 -9.6,0 4.8,4.8 0 0 0 9.6,0 z"
       style="fill:none;stroke:#000000"
       id="path500" />
    <path
       d="m -925.80188,571.20819 a 8.1600013,8.1600013 0 0 0 -0.26071,-16.31792 8.1600013,8.1600013 0 0 0 0.26071,16.31792 z"
       style="fill:none;stroke:#000000"
       id="path502" />
    <path
       d="m 1757.7638,772.89175 h -661.6643 v 322.28675 h 661.6643 z"
       style="fill:none;stroke:#000000"
       id="path504" />
    <path
       d="m -1784.0606,541.59324 v 163.2 h 752.8761 v -163.2 z"
       style="fill:none;stroke:#000000"
       id="path506" />
    <path
       d="M -1619.7959,-210.10424 V 13.095759 h -192.0508 a 48,48 0 0 0 -48,48 V 478.51684 a 48,48 0 0 0 48,48 h 378.8976 a 48,48 0 0 0 48,-48 v -736.62108 h -186.8468 a 48,48 0 0 0 -48,48 z"
       style="fill:none;stroke:#000000"
       id="path508" />
  </g>
</svg>
