<?xml version="1.0" encoding="UTF-8" standalone="no"?>
<!-- Created with Inkscape (http://www.inkscape.org/) -->

<svg
   width="1050.9769mm"
   height="1088mm"
   viewBox="0 0 1050.9769 1088"
   version="1.1"
   id="svg5"
   xml:space="preserve"
   inkscape:version="1.2 (dc2aedaf03, 2022-05-15)"
   sodipodi:docname="214 Full Shell CutOut.svg"
   xmlns:inkscape="http://www.inkscape.org/namespaces/inkscape"
   xmlns:sodipodi="http://sodipodi.sourceforge.net/DTD/sodipodi-0.dtd"
   xmlns="http://www.w3.org/2000/svg"
   xmlns:svg="http://www.w3.org/2000/svg"><sodipodi:namedview
     id="namedview7"
     pagecolor="#ffffff"
     bordercolor="#666666"
     borderopacity="1.0"
     inkscape:showpageshadow="2"
     inkscape:pageopacity="0.0"
     inkscape:pagecheckerboard="0"
     inkscape:deskcolor="#d1d1d1"
     inkscape:document-units="mm"
     showgrid="false"
     inkscape:zoom="0.052560326"
     inkscape:cx="4908.6454"
     inkscape:cy="1122.5197"
     inkscape:window-width="1920"
     inkscape:window-height="1017"
     inkscape:window-x="1912"
     inkscape:window-y="-8"
     inkscape:window-maximized="1"
     inkscape:current-layer="layer1" /><defs
     id="defs2"><marker
       id="DistanceX"
       orient="auto"
       refX="0"
       refY="0"
       style="overflow:visible"><path
         d="M 3,-3 -3,3 M 0,-5 V 5"
         style="stroke:#000000;stroke-width:0.5"
         id="path134" /></marker><pattern
       id="Hatch"
       patternUnits="userSpaceOnUse"
       width="8"
       height="8"
       x="0"
       y="0"><path
         d="M8 4 l-4,4"
         stroke="#000000"
         stroke-width="0.25"
         linecap="square"
         id="path137" /><path
         d="M6 2 l-4,4"
         stroke="#000000"
         stroke-width="0.25"
         linecap="square"
         id="path139" /><path
         d="M4 0 l-4,4"
         stroke="#000000"
         stroke-width="0.25"
         linecap="square"
         id="path141" /></pattern><symbol
       id="*MODEL_SPACE" /><symbol
       id="*PAPER_SPACE" /></defs><g
     inkscape:label="Layer 1"
     inkscape:groupmode="layer"
     id="layer1"
     transform="translate(383.28083,435.77116)"><g
       inkscape:label="0"
       id="g922"
       transform="matrix(0.26458333,0,0,0.26458333,218.3595,-247.88544)"><path
         d="m -386.65928,3274.9589 a 10.8,10.8 0 0 0 -16.07935,14.4227"
         style="fill:none;stroke:#000000"
         id="path148" /><path
         d="m -402.73863,-596.51388 a 10.800001,10.800001 0 1 0 16.07935,14.42271"
         style="fill:none;stroke:#000000"
         id="path150" /><path
         d="m -347.3043,-584.22861 a 10.8,10.8 0 1 0 14.42272,-16.07934"
         style="fill:none;stroke:#000000"
         id="path152" /><path
         d="m -332.88158,3293.1757 a 10.800023,10.800023 0 0 0 -14.42272,-16.0794"
         style="fill:none;stroke:#000000"
         id="path154" /><path
         style="fill:none;stroke:#000000"
         d="m -402.739,3289.38 -3.757,69.19"
         id="path156" /><path
         style="fill:none;stroke:#000000"
         d="m -332.882,-600.308 -3.757,-69.191"
         id="path158" /><path
         style="fill:none;stroke:#000000"
         d="m -386.659,-582.091 39.355,-2.138"
         id="path160" /><path
         d="m -1230.3923,1346.4339 c 0.047,130.0744 2.5221,264.0418 8.4451,398.0426 9.3965,212.5816 27.553,425.3365 57.9114,621.9754 13.9081,90.0859 31.7947,185.4492 53.9562,275.3798 17.4067,70.6357 37.5183,137.9377 59.4632,195.8739 16.5476,43.6867 34.1932,82.0103 51.22004,111.991 12.45606,21.9324 23.89896,38.4555 34.26069,51.3261 11.87745,14.7533 22.24169,24.8022 32.83272,33.3881 9.106,7.3821 18.87494,14.0243 31.10686,20.7479 14.79974,8.135 33.3358,16.3669 57.80016,24.527 26.30422,8.7738 60.51456,17.7951 106.12404,26.3561 54.61346,10.2511 125.39429,19.7556 216.55031,27.6932 62.29084,5.4242 130.40492,9.796 200.12395,13.1675 118.19614,5.7156 241.063247,8.567 349.742102,9.2848 10.837975,0.072 21.729371,0.1234 32.668635,0.1551 203.008923,0.5891 422.596693,-5.8061 623.116363,-20.8103 38.17818,-2.8568 74.69053,-5.9432 109.61476,-9.2316 202.41099,-19.0584 351.32787,-44.9214 462.61467,-71.9374 76.3615,-18.5375 134.9671,-37.5316 182.3233,-55.7128 8.2163,-3.1545 16.7347,-6.527 25.5333,-10.1537 5.4797,-2.2586 11.0701,-4.6169 16.7605,-7.0813"
         style="fill:none;stroke:#000000"
         id="path162" /><path
         style="fill:none;stroke:#000000"
         d="M 1481.78,2981.42 V -288.547"
         id="path164" /><path
         d="m 1481.776,-288.5475 c -19.8886,-8.61483 -41.0381,-17.01499 -63.716,-25.2218 -65.4964,-23.70222 -143.765,-45.67476 -239.4807,-65.22978 -84.4969,-17.26298 -176.7497,-31.3041 -270.88385,-42.4318 -125.0632,-14.78385 -253.46993,-24.4689 -372.88883,-30.74331 -196.97711,-10.3494 -411.76675,-13.71341 -620.747566,-9.62564 -109.177234,2.13556 -224.971854,6.3387 -332.053954,13.22427 -60.10863,3.86509 -113.04454,8.27518 -159.62523,13.11974 -93.25681,9.69905 -160.92386,21.21605 -209.85472,32.89277 -32.31706,7.71205 -56.41128,15.40023 -75.54892,22.77855 -19.13796,7.37844 -33.93556,14.70968 -46.26426,22.14117 -13.69512,8.25514 -24.51398,16.57947 -35.50267,27.13611 -6.76871,6.50258 -13.81847,14.10881 -21.597,23.91096 -11.48954,14.47856 -24.60264,33.84071 -39.1788,60.93292 -2.4923,4.63221 -4.9934,9.43114 -7.4959,14.38679 -17.7081,35.06722 -35.326,77.9527 -51.516,125.21721 -18.4779,53.943876 -35.1835,113.583895 -49.729,174.51283 -13.4018,56.13807 -25.4123,114.96574 -36.073,175.23302 -23.8377,134.75916 -40.8856,276.65052 -52.719,412.83968 -19.5629,225.14561 -27.2101,460.83971 -27.2929,689.90771"
         style="fill:none;stroke:#000000"
         id="path166" /><path
         style="fill:none;stroke:#000000"
         d="m -1345.51,2579.04 68.46,-13.26"
         id="path168" /><path
         d="m -1277.0489,2565.7793 a 10.800032,10.800032 0 1 0 12.0907,-17.8991"
         style="fill:none;stroke:#000000"
         id="path170" /><path
         style="fill:none;stroke:#000000"
         d="m -1264.96,2547.88 -7.49,-38.69"
         id="path172" /><path
         d="m -1272.4523,2509.1863 a 10.8,10.8 0 0 0 -17.899,-12.0907"
         style="fill:none;stroke:#000000"
         id="path174" /><path
         style="fill:none;stroke:#000000"
         d="m -1290.35,2497.1 -68.46,13.25"
         id="path176" /><path
         style="fill:none;stroke:#000000"
         d="m -1446.32,1381.41 h 69.23"
         id="path178" /><path
         d="m -1377.0937,1381.4139 a 10.800031,10.800031 0 0 0 15.2735,-15.2736"
         style="fill:none;stroke:#000000"
         id="path180" /><path
         style="fill:none;stroke:#000000"
         d="m -1361.82,1366.14 v -39.41"
         id="path182" /><path
         d="m -1361.8202,1326.7274 a 10.8,10.8 0 1 0 -15.2735,-15.2735"
         style="fill:none;stroke:#000000"
         id="path184" /><path
         style="fill:none;stroke:#000000"
         d="m -1377.09,1311.45 h -69.23"
         id="path186" /><path
         style="fill:none;stroke:#000000"
         d="m -1358.81,182.513 68.46,13.259"
         id="path188" /><path
         d="m -1290.3513,195.77215 a 10.8,10.8 0 0 0 17.899,-12.09073"
         style="fill:none;stroke:#000000"
         id="path190" /><path
         style="fill:none;stroke:#000000"
         d="m -1272.45,183.681 7.49,-38.694"
         id="path192" /><path
         d="m -1264.9582,144.98747 a 10.8,10.8 0 1 0 -12.0907,-17.89901"
         style="fill:none;stroke:#000000"
         id="path194" /><path
         style="fill:none;stroke:#000000"
         d="m -1277.05,127.088 -68.46,-13.259"
         id="path196" /><path
         style="fill:none;stroke:#000000"
         d="m -406.496,-665.704 3.757,69.19"
         id="path198" /><path
         style="fill:none;stroke:#000000"
         d="m 565.739,-666.821 -4.968,68.597"
         id="path200" /><path
         d="m 560.77125,-598.22378 a 10.8,10.8 0 0 0 14.13044,16.33679"
         style="fill:none;stroke:#000000"
         id="path202" /><path
         style="fill:none;stroke:#000000"
         d="m 574.902,-581.887 39.31,2.847"
         id="path204" /><path
         d="m 614.21174,-579.04026 a 10.8,10.8 0 1 0 16.33679,-14.13044"
         style="fill:none;stroke:#000000"
         id="path206" /><path
         style="fill:none;stroke:#000000"
         d="m 630.549,-593.171 5.005,-69.114"
         id="path208" /><path
         style="fill:none;stroke:#000000"
         d="m 1471.44,-523.993 -24.49,65.531"
         id="path210" /><path
         d="m 1446.9527,-458.46159 a 10.800003,10.800003 0 0 0 8.9615,19.65329"
         style="fill:none;stroke:#000000"
         id="path212" /><path
         style="fill:none;stroke:#000000"
         d="m 1455.91,-438.808 36.92,13.795"
         id="path214" /><path
         d="m 1492.8342,-425.01329 a 10.8,10.8 0 1 0 19.6532,-8.96149"
         style="fill:none;stroke:#000000"
         id="path216" /><path
         style="fill:none;stroke:#000000"
         d="m 1512.49,-433.975 24.49,-65.56"
         id="path218" /><path
         style="fill:none;stroke:#000000"
         d="M 1697.78,-420.206 V 3113.07"
         id="path220" /><path
         style="fill:none;stroke:#000000"
         d="m 1536.98,3192.4 -24.49,-65.56"
         id="path222" /><path
         d="m 1512.4874,3126.8425 a 10.8,10.8 0 1 0 -19.6532,-8.9615"
         style="fill:none;stroke:#000000"
         id="path224" /><path
         style="fill:none;stroke:#000000"
         d="m 1492.83,3117.88 -36.92,13.8"
         id="path226" /><path
         d="m 1455.9142,3131.676 a 10.800008,10.800008 0 0 0 -8.9615,19.6533"
         style="fill:none;stroke:#000000"
         id="path228" /><path
         style="fill:none;stroke:#000000"
         d="m 1446.95,3151.33 24.49,65.53"
         id="path230" /><path
         style="fill:none;stroke:#000000"
         d="m 635.554,3355.15 -5.005,-69.11"
         id="path232" /><path
         d="M 630.54853,3286.0384 A 10.8,10.8 0 1 0 614.21174,3271.908"
         style="fill:none;stroke:#000000"
         id="path234" /><path
         style="fill:none;stroke:#000000"
         d="m 614.212,3271.91 -39.31,2.84"
         id="path236" /><path
         d="m 574.90169,3274.7547 a 10.800004,10.800004 0 0 0 -14.13044,16.3368"
         style="fill:none;stroke:#000000"
         id="path238" /><path
         style="fill:none;stroke:#000000"
         d="m 560.771,3291.09 4.968,68.6"
         id="path240" /><path
         style="fill:none;stroke:#000000"
         d="m -336.639,3362.37 3.757,-69.19"
         id="path242" /><path
         style="fill:none;stroke:#000000"
         d="m -347.304,3277.1 -39.355,-2.14"
         id="path244" /><path
         d="m 1256.3234,202.87415 a 10.8,10.8 0 0 0 15.2735,-15.2735"
         style="fill:none;stroke:#000000"
         id="path246" /><path
         d="m 1332.056,1519.2502 a 10.800031,10.800031 0 0 0 15.2735,-15.2736"
         style="fill:none;stroke:#000000"
         id="path248" /><path
         d="m 1347.3295,1464.5637 a 10.8,10.8 0 1 0 -15.2735,-15.2735"
         style="fill:none;stroke:#000000"
         id="path250" /><path
         d="m 1371.2436,2382.2277 a 10.8,10.8 0 1 0 -15.2735,-15.2735"
         style="fill:none;stroke:#000000"
         id="path252" /><path
         style="fill:none;stroke:#000000"
         d="m 1193.33,202.874 h 62.99"
         id="path254" /><path
         style="fill:none;stroke:#000000"
         d="m 1264.31,1519.25 h 67.75"
         id="path256" /><path
         style="fill:none;stroke:#000000"
         d="m 1371.24,2436.91 v -54.68"
         id="path258" /><path
         style="fill:none;stroke:#000000"
         d="M 1271.6,187.601 V 132.914"
         id="path260" /><path
         style="fill:none;stroke:#000000"
         d="m 1271.6,132.914 h 84.57"
         id="path262" /><path
         d="m 1356.166,132.91415 c 21.9391,266.31861 42.1365,535.3469 59.9223,806.40001"
         style="fill:none;stroke:#000000"
         id="path264" /><path
         d="m 1416.0883,939.31416 c 7.5644,268.85224 16.0895,570.38394 24.0499,860.79134 5.8599,213.7821 11.5084,424.6972 16.9718,636.8087"
         style="fill:none;stroke:#000000"
         id="path266" /><path
         style="fill:none;stroke:#000000"
         d="m 1457.11,2436.91 h -85.87"
         id="path268" /><path
         style="fill:none;stroke:#000000"
         d="m 1355.97,2366.95 h -68.73"
         id="path270" /><path
         d="m 1287.2436,2366.9542 c -4.861,-187.0281 -9.8689,-373.5092 -15.0424,-562.2453 -2.5895,-94.4716 -5.2391,-190.1278 -7.896,-285.4587"
         style="fill:none;stroke:#000000"
         id="path272" /><path
         style="fill:none;stroke:#000000"
         d="m 1347.33,1503.98 v -39.42"
         id="path274" /><path
         style="fill:none;stroke:#000000"
         d="m 1332.06,1449.29 h -69.71"
         id="path276" /><path
         d="m 1262.3525,1449.2902 c -4.8261,-172.6755 -9.6342,-343.059 -14.1093,-502.10772"
         style="fill:none;stroke:#000000"
         id="path278" /><path
         d="M 1248.2432,947.18248 C 1231.8258,697.25884 1213.3459,448.97444 1193.3307,202.87415"
         style="fill:none;stroke:#000000"
         id="path280" /><path
         style="fill:none;stroke:#000000"
         d="m 1039.19,719.011 h 84.97"
         id="path282" /><path
         style="fill:none;stroke:#000000"
         d="m 1124.16,719.011 v 69.96"
         id="path284" /><path
         style="fill:none;stroke:#000000"
         d="m 1124.16,788.971 h 84"
         id="path286" /><path
         d="m 1208.1568,788.97143 c 2.8444,214.93807 5.0848,429.87067 6.2914,644.76247 0.3789,67.4947 0.6568,135.1712 0.8175,202.9415"
         style="fill:none;stroke:#000000"
         id="path288" /><path
         style="fill:none;stroke:#000000"
         d="m 1215.27,1636.68 h -83.88"
         id="path290" /><path
         style="fill:none;stroke:#000000"
         d="m 1131.39,1636.68 v 69.96"
         id="path292" /><path
         style="fill:none;stroke:#000000"
         d="m 1131.39,1706.64 h 84"
         id="path294" /><path
         d="m 1215.3893,1706.6354 c 0.1919,166.5323 -0.3558,333.4476 -1.8809,499.444"
         style="fill:none;stroke:#000000"
         id="path296" /><path
         d="m 1213.5084,2206.0794 c 29.7791,220.1506 64.8519,481.1557 102.067,744.932"
         style="fill:none;stroke:#000000"
         id="path298" /><path
         style="fill:none;stroke:#000000"
         d="m 1315.58,2951.01 h -73.81"
         id="path300" /><path
         style="fill:none;stroke:#000000"
         d="m 1241.77,2951.01 v 72"
         id="path302" /><path
         style="fill:none;stroke:#000000"
         d="m 1241.77,3023.01 h -85.68"
         id="path304" /><path
         d="m 1156.09,3023.0114 c -40.557,-285.7566 -78.7744,-570.5483 -110.6872,-806.4"
         style="fill:none;stroke:#000000"
         id="path306" /><path
         d="m 1045.4028,2216.6114 c 2.4621,-259.774 2.5068,-522.1202 1.048,-781.9343 -1.3385,-238.3822 -3.9533,-476.95399 -7.2566,-715.66567"
         style="fill:none;stroke:#000000"
         id="path308" /><path
         d="m 829.44844,2521.9637 a 10.8,10.8 0 0 0 -15.27351,-15.2735"
         style="fill:none;stroke:#000000"
         id="path310" /><path
         d="m 865.92763,1980.9437 a 10.8,10.8 0 0 0 -15.27351,-15.2735"
         style="fill:none;stroke:#000000"
         id="path312" /><path
         d="m 905.79949,1205.5877 a 10.8,10.8 0 1 0 -15.27351,-15.2735"
         style="fill:none;stroke:#000000"
         id="path314" /><path
         d="m 890.52598,1260.2742 a 10.8,10.8 0 0 0 15.27351,-15.2735"
         style="fill:none;stroke:#000000"
         id="path316" /><path
         d="m 850.65412,2035.6302 a 10.8,10.8 0 0 0 15.27351,-15.2735"
         style="fill:none;stroke:#000000"
         id="path318" /><path
         d="m 922.03313,342.61024 a 10.8,10.8 0 0 0 15.2735,-15.27351"
         style="fill:none;stroke:#000000"
         id="path320" /><path
         style="fill:none;stroke:#000000"
         d="m 829.448,2521.96 v 54.69"
         id="path322" /><path
         style="fill:none;stroke:#000000"
         d="M 905.799,1205.59 V 1245"
         id="path324" /><path
         style="fill:none;stroke:#000000"
         d="M 890.526,1260.27 H 827.637"
         id="path326" /><path
         style="fill:none;stroke:#000000"
         d="m 865.928,1980.94 v 39.42"
         id="path328" /><path
         style="fill:none;stroke:#000000"
         d="M 850.654,2035.63 H 789.128"
         id="path330" /><path
         style="fill:none;stroke:#000000"
         d="M 922.033,342.61 H 860.507"
         id="path332" /><path
         style="fill:none;stroke:#000000"
         d="m 751.617,2506.69 h 62.558"
         id="path334" /><path
         d="m 789.12763,2035.6302 c -11.11625,155.9132 -23.53327,310.8387 -37.51072,471.06"
         style="fill:none;stroke:#000000"
         id="path336" /><path
         style="fill:none;stroke:#000000"
         d="m 794.023,1965.67 h 56.631"
         id="path338" /><path
         d="m 807.23931,1761.6014 c -4.18411,68.719 -8.58252,136.5734 -13.21612,204.0688"
         style="fill:none;stroke:#000000"
         id="path340" /><path
         d="m 827.63664,1260.2742 c -6.53417,167.2111 -13.34731,334.4249 -20.39733,501.3272"
         style="fill:none;stroke:#000000"
         id="path342" /><path
         style="fill:none;stroke:#000000"
         d="m 798.28,1190.31 h 92.246"
         id="path344" /><path
         style="fill:none;stroke:#000000"
         d="m 798.28,1110.75 v 79.56"
         id="path346" /><path
         style="fill:none;stroke:#000000"
         d="m 835.868,1045.65 -37.588,65.1"
         id="path348" /><path
         d="m 860.50663,342.61024 c -5.93544,183.46471 -12.27321,366.86678 -18.97577,550.31891 -1.85924,50.88845 -3.74724,101.79851 -5.6628,152.72135"
         style="fill:none;stroke:#000000"
         id="path350" /><path
         style="fill:none;stroke:#000000"
         d="m 937.307,272.65 v 54.687"
         id="path352" /><path
         style="fill:none;stroke:#000000"
         d="M 1030.84,272.65 H 937.307"
         id="path354" /><path
         d="m 975.02378,1770.2502 c 12.25129,-289.9731 23.78976,-580.9146 34.39502,-871.18714 7.6286,-208.79735 14.7858,-417.54665 21.4162,-626.41282"
         style="fill:none;stroke:#000000"
         id="path356" /><path
         d="m 914.10905,2576.6502 c 0.3198,-3.6025 0.63882,-7.2023 0.95705,-10.7991 24.02413,-271.5313 43.6207,-527.0276 59.95768,-795.6009"
         style="fill:none;stroke:#000000"
         id="path358" /><path
         style="fill:none;stroke:#000000"
         d="m 829.448,2576.65 h 84.661"
         id="path360" /><path
         d="m 530.1011,863.68109 a 10.8,10.8 0 0 0 15.2735,-15.27351"
         style="fill:none;stroke:#000000"
         id="path362" /><path
         d="m 566.58029,1404.7011 a 10.8,10.8 0 0 0 15.2735,-15.2735"
         style="fill:none;stroke:#000000"
         id="path364" /><path
         d="m 606.45215,2180.0571 a 10.8,10.8 0 1 0 15.27351,-15.2735"
         style="fill:none;stroke:#000000"
         id="path366" /><path
         d="m 621.72566,2125.3706 a 10.8,10.8 0 0 0 -15.27351,-15.2735"
         style="fill:none;stroke:#000000"
         id="path368" /><path
         d="m 581.85379,1350.0146 a 10.8,10.8 0 0 0 -15.2735,-15.2735"
         style="fill:none;stroke:#000000"
         id="path370" /><path
         d="m 653.2328,3043.0346 a 10.8,10.8 0 0 0 -15.27351,-15.2735"
         style="fill:none;stroke:#000000"
         id="path372" /><path
         style="fill:none;stroke:#000000"
         d="m 467.543,863.681 h 62.558"
         id="path374" /><path
         style="fill:none;stroke:#000000"
         d="M 509.949,1404.7 H 566.58"
         id="path376" /><path
         style="fill:none;stroke:#000000"
         d="m 514.207,2180.06 h 92.245"
         id="path378" /><path
         style="fill:none;stroke:#000000"
         d="m 653.233,3097.72 v -54.69"
         id="path380" /><path
         style="fill:none;stroke:#000000"
         d="M 545.375,848.408 V 793.721"
         id="path382" /><path
         style="fill:none;stroke:#000000"
         d="m 545.375,793.721 h 84.66"
         id="path384" /><path
         d="m 630.03522,793.72109 c 0.31979,3.60257 0.63881,7.20232 0.95705,10.79917 24.02413,271.53124 43.6207,527.02754 59.95768,795.60084"
         style="fill:none;stroke:#000000"
         id="path386" /><path
         d="m 690.94995,1600.1211 c 12.25129,289.9731 23.78975,580.9146 34.39506,871.1872 7.62856,208.7973 14.78577,417.5466 21.41619,626.4128"
         style="fill:none;stroke:#000000"
         id="path388" /><path
         style="fill:none;stroke:#000000"
         d="M 746.761,3097.72 H 653.233"
         id="path390" /><path
         style="fill:none;stroke:#000000"
         d="M 637.959,3027.76 H 576.433"
         id="path392" /><path
         d="m 576.4328,3027.7611 c -5.93544,-183.4647 -12.27322,-366.8668 -18.97577,-550.3189 -1.85924,-50.8885 -3.74724,-101.7985 -5.6628,-152.7213"
         style="fill:none;stroke:#000000"
         id="path394" /><path
         style="fill:none;stroke:#000000"
         d="m 551.794,2324.72 -37.587,-65.1"
         id="path396" /><path
         style="fill:none;stroke:#000000"
         d="m 514.207,2259.62 v -79.56"
         id="path398" /><path
         style="fill:none;stroke:#000000"
         d="m 621.726,2164.78 v -39.41"
         id="path400" /><path
         style="fill:none;stroke:#000000"
         d="M 606.452,2110.1 H 543.563"
         id="path402" /><path
         d="M 543.56281,2110.0971 C 537.02864,1942.886 530.2155,1775.6722 523.16548,1608.7699"
         style="fill:none;stroke:#000000"
         id="path404" /><path
         d="m 523.16548,1608.7699 c -4.18411,-68.719 -8.58253,-136.5734 -13.21612,-204.0688"
         style="fill:none;stroke:#000000"
         id="path406" /><path
         style="fill:none;stroke:#000000"
         d="m 581.854,1389.43 v -39.42"
         id="path408" /><path
         style="fill:none;stroke:#000000"
         d="M 566.58,1334.74 H 505.054"
         id="path410" /><path
         d="M 505.05379,1334.7411 C 493.93755,1178.8279 481.52053,1023.9024 467.54308,863.68109"
         style="fill:none;stroke:#000000"
         id="path412" /><path
         d="m 393.70819,436.42498 a 10.8,10.8 0 1 0 -8.96148,-19.65329"
         style="fill:none;stroke:#000000"
         id="path414" /><path
         d="m 360.25989,482.30639 a 10.800004,10.800004 0 0 0 19.6533,-8.96148"
         style="fill:none;stroke:#000000"
         id="path416" /><path
         style="fill:none;stroke:#000000"
         d="m 379.913,473.345 13.795,-36.92"
         id="path418" /><path
         style="fill:none;stroke:#000000"
         d="m 297.155,458.728 63.105,23.578"
         id="path420" /><path
         d="m 231.28826,1402.4578 a 10.8,10.8 0 1 0 16.33678,-14.1304"
         style="fill:none;stroke:#000000"
         id="path422" /><path
         d="m 250.47177,1349.0174 a 10.800004,10.800004 0 0 0 -14.13044,-16.3368"
         style="fill:none;stroke:#000000"
         id="path424" /><path
         style="fill:none;stroke:#000000"
         d="m 161.171,1397.38 70.117,5.08"
         id="path426" /><path
         d="m 236.97041,2323.58 a 10.8,10.8 0 1 0 -16.07934,-14.4227"
         style="fill:none;stroke:#000000"
         id="path428" /><path
         d="m 224.68513,2379.0144 a 10.800023,10.800023 0 0 0 14.42272,-16.0794"
         style="fill:none;stroke:#000000"
         id="path430" /><path
         style="fill:none;stroke:#000000"
         d="m 239.108,2362.94 -2.138,-39.36"
         id="path432" /><path
         style="fill:none;stroke:#000000"
         d="M 384.747,416.772 317.923,391.803"
         id="path434" /><path
         d="m 317.92347,391.80342 c 14.64355,-44.07909 29.77978,-83.5055 45.26269,-119.15305"
         style="fill:none;stroke:#000000"
         id="path436" /><path
         style="fill:none;stroke:#000000"
         d="M 363.186,272.65 H 580.71"
         id="path438" /><path
         style="fill:none;stroke:#000000"
         d="m 513.675,488.65 67.035,-216"
         id="path440" /><path
         d="m 365.72844,2706.4854 c -1.14734,-54.9594 -2.0692,-110.374 -2.85248,-165.5035 -3.02216,-212.7087 -3.96926,-440.0465 -4.21676,-528.1147 -0.0379,-13.4924 -0.0415,-27.0038 -0.0125,-40.5145 0.33856,-157.4404 5.34032,-354.0043 17.79521,-556.4866 9.62238,-156.4337 23.72025,-316.5251 43.21171,-464.39232 3.05232,-23.1557 6.23524,-46.00824 9.54964,-68.49161 21.26914,-144.28007 45.65457,-258.25458 71.12017,-349.06751 4.42212,-15.76973 8.87759,-30.84824 13.35157,-45.26429"
         style="fill:none;stroke:#000000"
         id="path442" /><path
         style="fill:none;stroke:#000000"
         d="m 365.728,2706.49 4.51,216"
         id="path444" /><path
         style="fill:none;stroke:#000000"
         d="M 370.238,2922.49 H 155.595"
         id="path446" /><path
         style="fill:none;stroke:#000000"
         d="m 144.981,2383.34 79.704,-4.33"
         id="path448" /><path
         style="fill:none;stroke:#000000"
         d="m 220.891,2309.16 -76.549,4.15"
         id="path450" /><path
         style="fill:none;stroke:#000000"
         d="m 247.625,1388.33 2.847,-39.31"
         id="path452" /><path
         style="fill:none;stroke:#000000"
         d="m 236.341,1332.68 -70.56,-5.11"
         id="path454" /><path
         d="m 165.78092,1327.5708 c 11.31691,-161.4574 27.45762,-324.9923 49.73177,-476.08996 23.59663,-160.06876 51.30843,-288.10101 81.64276,-392.7532"
         style="fill:none;stroke:#000000"
         id="path456" /><path
         d="m -405.47988,438.95642 a 10.800001,10.800001 0 0 0 -8.96149,-19.65329"
         style="fill:none;stroke:#000000"
         id="path458" /><path
         d="m -438.92818,484.83783 a 10.800004,10.800004 0 0 0 19.6533,-8.96148"
         style="fill:none;stroke:#000000"
         id="path460" /><path
         style="fill:none;stroke:#000000"
         d="m -419.275,475.876 13.795,-36.92"
         id="path462" /><path
         style="fill:none;stroke:#000000"
         d="m -500.344,461.89 61.416,22.948"
         id="path464" /><path
         d="m -537.53184,2321.8713 a 10.8,10.8 0 1 0 -16.07935,-14.4227"
         style="fill:none;stroke:#000000"
         id="path466" /><path
         d="m -549.81712,2377.3057 a 10.800023,10.800023 0 0 0 14.42272,-16.0794"
         style="fill:none;stroke:#000000"
         id="path468" /><path
         style="fill:none;stroke:#000000"
         d="m -553.611,2307.45 -74.717,4.06"
         id="path470" /><path
         style="fill:none;stroke:#000000"
         d="m -414.441,419.303 -66.814,-24.965"
         id="path472" /><path
         d="m -481.25521,394.33837 c 13.7746,-45.3419 28.07399,-85.57102 42.72606,-121.688"
         style="fill:none;stroke:#000000"
         id="path474" /><path
         style="fill:none;stroke:#000000"
         d="m -438.529,272.65 h 233.333"
         id="path476" /><path
         style="fill:none;stroke:#000000"
         d="m -205.196,272.65 -33.177,81.201"
         id="path478" /><path
         d="m -238.37287,353.8505 c -17.12827,42.22076 -34.45082,93.1536 -51.2956,156.26172 -23.10069,86.54559 -45.22114,195.94794 -64.30194,335.36709 -15.23092,111.28885 -27.12862,231.84199 -36.16642,354.23309 -12.83216,173.7749 -19.92875,351.2967 -23.3366,512.8847 -2.07234,98.263 -2.93234,198.6225 -2.41548,296.4567 0.36085,68.3017 1.20204,161.9211 2.93438,264.9433 1.08017,64.2376 2.53653,133.9014 4.49962,204.8987 0.83544,30.2144 1.76406,60.6791 2.79359,91.062"
         style="fill:none;stroke:#000000"
         id="path480" /><path
         d="m -405.66132,2569.9578 a 60,60 0 1 0 2.23141,61.4732"
         style="fill:none;stroke:#000000"
         id="path482" /><path
         d="m -403.42991,2631.431 c 2.41009,62.0616 5.27089,122.8216 8.65011,179.3749 5.0875,85.1426 11.15834,158.5259 18.41329,222.1549"
         style="fill:none;stroke:#000000"
         id="path484" /><path
         style="fill:none;stroke:#000000"
         d="M -376.367,3032.96 H -593.665"
         id="path486" /><path
         d="m -593.66504,3032.9608 c -6.60936,-62.4149 -12.08997,-131.6143 -16.73019,-209.2713 -8.27578,-138.5003 -13.37758,-297.853 -16.52752,-442.1961"
         style="fill:none;stroke:#000000"
         id="path488" /><path
         style="fill:none;stroke:#000000"
         d="m -626.923,2381.49 77.106,-4.18"
         id="path490" /><path
         style="fill:none;stroke:#000000"
         d="m -535.394,2361.23 -2.138,-39.36"
         id="path492" /><path
         d="m -628.32793,2311.5066 c -0.21034,-11.4423 -0.40881,-22.7417 -0.59607,-33.8779 -1.74953,-104.0446 -2.5972,-198.4037 -2.96189,-267.4338 -0.52766,-99.8769 0.3494,-202.0522 2.46048,-302.1521 2.0749,-98.3843 5.50338,-202.642 10.73122,-308.7727"
         style="fill:none;stroke:#000000"
         id="path494" /><path
         style="fill:none;stroke:#000000"
         d="m -618.694,1399.27 67.871,4.92"
         id="path496" /><path
         d="m -550.82316,1404.1851 a 10.8,10.8 0 0 0 16.33679,-14.1304"
         style="fill:none;stroke:#000000"
         id="path498" /><path
         style="fill:none;stroke:#000000"
         d="m -534.486,1390.05 2.846,-39.31"
         id="path500" /><path
         d="m -531.63965,1350.7446 a 10.800004,10.800004 0 0 0 -14.13044,-16.3368"
         style="fill:none;stroke:#000000"
         id="path502" /><path
         style="fill:none;stroke:#000000"
         d="m -545.77,1334.41 -69.229,-5.02"
         id="path504" /><path
         d="m -614.99924,1329.3945 c 9.85731,-174.2111 24.83503,-351.07589 47.02373,-513.20377 19.54551,-142.81465 42.48786,-258.62887 67.63153,-354.3007"
         style="fill:none;stroke:#000000"
         id="path506" /><path
         d="m -453.906,2472.9161 a 12,12 0 0 0 -24,0 12,12 0 0 0 24,0 z"
         style="fill:none;stroke:#000000"
         id="path508" /><path
         d="m -453.906,2688.9161 a 12,12 0 0 0 -24,0 12,12 0 0 0 24,0 z"
         style="fill:none;stroke:#000000"
         id="path510" /><path
         d="m -428.25338,2779.6968 a 40.8,40.8 0 0 0 -81.6,0 40.8,40.8 0 0 0 81.6,0 z"
         style="fill:none;stroke:#000000"
         id="path512" /><path
         d="m -453.906,2880.9161 a 12,12 0 0 0 -24,0 12,12 0 0 0 24,0 z"
         style="fill:none;stroke:#000000"
         id="path514" /><path
         d="m -845.59402,2886.308 a 10.800006,10.800006 0 0 0 8.96149,-19.6533"
         style="fill:none;stroke:#000000"
         id="path516" /><path
         d="m -850.42754,2829.7348 a 10.800003,10.800003 0 1 0 -19.65329,-8.9615"
         style="fill:none;stroke:#000000"
         id="path518" /><path
         style="fill:none;stroke:#000000"
         d="m -836.633,2866.65 -13.795,-36.92"
         id="path520" /><path
         d="m -878.50951,616.69505 a 12,12 0 0 0 -24,0 12,12 0 0 0 24,0 z"
         style="fill:none;stroke:#000000"
         id="path522" /><path
         d="m -878.50951,832.69505 a 12,12 0 0 0 -24,0 12,12 0 0 0 24,0 z"
         style="fill:none;stroke:#000000"
         id="path524" /><path
         d="m -878.50951,424.69504 a 12,12 0 0 0 -24,0 12,12 0 0 0 24,0 z"
         style="fill:none;stroke:#000000"
         id="path526" /><path
         style="fill:none;stroke:#000000"
         d="m -870.081,2820.77 -61.523,22.99"
         id="path528" /><path
         d="m -931.60377,2843.7612 c -25.27466,-95.7145 -48.36339,-211.5806 -68.05681,-354.46 -22.33962,-162.078 -37.46822,-338.8718 -47.45452,-513.0147"
         style="fill:none;stroke:#000000"
         id="path530" /><path
         style="fill:none;stroke:#000000"
         d="m -1047.12,1976.29 70.197,-5.09"
         id="path532" /><path
         d="m -976.92274,1971.2033 a 10.800004,10.800004 0 1 0 14.13044,-16.3368"
         style="fill:none;stroke:#000000"
         id="path534" /><path
         style="fill:none;stroke:#000000"
         d="m -962.792,1954.87 -2.847,-39.31"
         id="path536" /><path
         d="m -965.63902,1915.5565 a 10.8,10.8 0 0 0 -16.33679,-14.1304"
         style="fill:none;stroke:#000000"
         id="path538" /><path
         style="fill:none;stroke:#000000"
         d="m -981.976,1901.43 -68.884,4.98"
         id="path540" /><path
         d="m -1050.8601,1906.4145 c -5.2866,-105.8749 -8.7538,-209.8873 -10.8746,-308.0647 -2.1366,-98.9129 -3.0564,-199.8461 -2.5851,-298.5501 0.3733,-78.1729 1.3803,-185.778 3.4114,-300.54153 0.031,-1.74523 0.062,-3.48727 0.093,-5.22613"
         style="fill:none;stroke:#000000"
         id="path542" /><path
         style="fill:none;stroke:#000000"
         d="m -1060.82,994.032 76.056,4.131"
         id="path544" /><path
         d="m -984.76384,998.16253 a 10.8,10.8 0 1 0 16.07934,-14.42271"
         style="fill:none;stroke:#000000"
         id="path546" /><path
         style="fill:none;stroke:#000000"
         d="m -968.684,983.74 2.137,-39.355"
         id="path548" /><path
         d="m -966.54705,944.38483 a 10.8,10.8 0 0 0 -14.42272,-16.07934"
         style="fill:none;stroke:#000000"
         id="path550" /><path
         style="fill:none;stroke:#000000"
         d="m -980.97,928.305 -78.48,-4.262"
         id="path552" /><path
         d="m -1059.4519,924.04298 c 6.4725,-306.63409 17.5691,-507.5803 32.2549,-651.39265"
         style="fill:none;stroke:#000000"
         id="path554" /><path
         style="fill:none;stroke:#000000"
         d="m -1027.2,272.65 h 219.681"
         id="path556" /><path
         d="m -807.51917,272.65033 c -7.25495,63.62899 -13.32578,137.01234 -18.41329,222.15494 -4.13373,69.1806 -7.49168,144.6561 -10.19783,221.10865"
         style="fill:none;stroke:#000000"
         id="path558" /><path
         d="m -836.13029,715.91392 a 48,48 0 1 0 -0.3212,9.16658"
         style="fill:none;stroke:#000000"
         id="path560" /><path
         d="m -836.45149,725.0805 c -1.17525,33.88227 -2.22369,67.91445 -3.15607,101.63491 -1.9631,70.99729 -3.41945,140.66109 -4.49962,204.89869 -1.73234,103.0221 -2.57353,196.6416 -2.93438,264.9432 -0.51686,97.8342 0.34314,198.1938 2.41548,296.4567 3.40785,161.588 10.50443,339.1099 23.3366,512.8847 9.0378,122.3911 20.9355,242.9443 36.16641,354.2331 19.08081,139.4192 41.20125,248.8216 64.30195,335.3671 16.84478,63.1082 34.16733,114.041 51.2956,156.2618"
         style="fill:none;stroke:#000000"
         id="path562" /><path
         style="fill:none;stroke:#000000"
         d="m -669.526,2951.76 33.178,81.2"
         id="path564" /><path
         style="fill:none;stroke:#000000"
         d="M -636.348,3032.96 H -869.554"
         id="path566" /><path
         d="m -869.55375,3032.9608 c -14.69946,-36.116 -29.05279,-76.3417 -42.88375,-121.6769"
         style="fill:none;stroke:#000000"
         id="path568" /><path
         style="fill:none;stroke:#000000"
         d="m -912.438,2911.28 66.844,-24.97"
         id="path570" /><path
         d="m 140.76106,-228.18405 a 10.800002,10.800002 0 1 0 -15.27351,-15.27351"
         style="fill:none;stroke:#000000"
         id="path572" /><path
         d="m -776.90294,-235.4165 a 10.800002,10.800002 0 1 0 -15.27351,-15.27351"
         style="fill:none;stroke:#000000"
         id="path574" /><path
         d="m 86.074564,-243.45756 a 10.800001,10.800001 0 1 0 -15.273507,15.27351"
         style="fill:none;stroke:#000000"
         id="path576" /><path
         d="m 1400.4106,-133.0732 a 10.8,10.8 0 1 0 -15.2735,15.27351"
         style="fill:none;stroke:#000000"
         id="path578" /><path
         style="fill:none;stroke:#000000"
         d="m 140.761,-228.184 v 68.726"
         id="path580" /><path
         style="fill:none;stroke:#000000"
         d="m -776.903,-235.416 v 68.726"
         id="path582" /><path
         style="fill:none;stroke:#000000"
         d="m 1400.41,-133.073 h 56.73"
         id="path584" /><path
         style="fill:none;stroke:#000000"
         d="M 86.0746,-243.458 H 125.488"
         id="path586" /><path
         style="fill:none;stroke:#000000"
         d="m 70.8011,-159.581 v -68.603"
         id="path588" /><path
         d="m -776.90294,-166.69001 c 214.93806,2.84437 429.87071,5.08476 644.76242,6.29135 67.49478,0.37898 135.171288,0.65684 202.941577,0.81753"
         style="fill:none;stroke:#000000"
         id="path590" /><path
         style="fill:none;stroke:#000000"
         d="m -846.863,-250.69 h 54.687"
         id="path592" /><path
         style="fill:none;stroke:#000000"
         d="m -846.863,-335.653 v 84.963"
         id="path594" /><path
         d="m 650.73706,-329.444 c -259.77407,2.46207 -522.12019,2.50682 -781.93429,1.04799 -238.3822,-1.33848 -476.95403,-3.95329 -715.66571,-7.25665"
         style="fill:none;stroke:#000000"
         id="path596" /><path
         d="M 1457.1371,-218.75683 C 1171.3804,-259.31384 886.5887,-297.53117 650.73706,-329.444"
         style="fill:none;stroke:#000000"
         id="path598" /><path
         style="fill:none;stroke:#000000"
         d="m 1457.14,-133.073 v -85.684"
         id="path600" /><path
         style="fill:none;stroke:#000000"
         d="M 1385.14,-59.2714 V -117.8"
         id="path602" /><path
         d="m 640.20504,-161.3384 c 220.15055,29.77906 481.15566,64.851847 744.93206,102.066986"
         style="fill:none;stroke:#000000"
         id="path604" /><path
         d="m 140.76106,-159.45756 c 166.53227,0.19197 333.44755,-0.35575 499.44398,-1.88084"
         style="fill:none;stroke:#000000"
         id="path606" /><path
         d="m -1489.213,114.84105 a 10.8,10.8 0 1 0 15.2735,15.27351"
         style="fill:none;stroke:#000000"
         id="path608" /><path
         d="m -1564.9457,1431.2171 a 10.8,10.8 0 0 0 15.2735,15.2735"
         style="fill:none;stroke:#000000"
         id="path610" /><path
         d="m -1549.6722,1376.5306 a 10.8,10.8 0 1 0 -15.2735,15.2735"
         style="fill:none;stroke:#000000"
         id="path612" /><path
         d="m -1573.5862,2294.1946 a 10.800031,10.800031 0 1 0 -15.2736,15.2735"
         style="fill:none;stroke:#000000"
         id="path614" /><path
         style="fill:none;stroke:#000000"
         d="M -1489.21,114.841 V 60.1546"
         id="path616" /><path
         style="fill:none;stroke:#000000"
         d="M -1564.95,1431.22 V 1391.8"
         id="path618" /><path
         style="fill:none;stroke:#000000"
         d="m -1549.67,1376.53 h 69.7"
         id="path620" /><path
         style="fill:none;stroke:#000000"
         d="m -1573.59,2294.19 h 68.73"
         id="path622" /><path
         style="fill:none;stroke:#000000"
         d="m -1410.95,130.115 h -62.99"
         id="path624" /><path
         d="m -1465.8593,874.42288 c 16.4174,-249.92363 34.8972,-498.20803 54.9124,-744.30832"
         style="fill:none;stroke:#000000"
         id="path626" /><path
         d="m -1479.9687,1376.5306 c 4.8261,-172.6755 9.6342,-343.059 14.1094,-502.10772"
         style="fill:none;stroke:#000000"
         id="path628" /><path
         style="fill:none;stroke:#000000"
         d="m -1481.92,1446.49 h -67.75"
         id="path630" /><path
         d="m -1504.8598,2294.1946 c 4.861,-187.028 9.869,-373.5092 15.0424,-562.2453 2.5896,-94.4716 5.2391,-190.1278 7.8961,-285.4587"
         style="fill:none;stroke:#000000"
         id="path632" /><path
         style="fill:none;stroke:#000000"
         d="m -1588.86,2364.15 v -54.68"
         id="path634" /><path
         style="fill:none;stroke:#000000"
         d="m -1674.73,2364.15 h 85.87"
         id="path636" /><path
         d="m -1633.7044,866.55456 c -7.5644,268.85224 -16.0895,570.38394 -24.0499,860.79144 -5.86,213.782 -11.5084,424.6971 -16.9719,636.8086"
         style="fill:none;stroke:#000000"
         id="path638" /><path
         d="m -1573.7821,60.154558 c -21.9391,266.318602 -42.1366,535.346902 -59.9223,806.400002"
         style="fill:none;stroke:#000000"
         id="path640" /><path
         style="fill:none;stroke:#000000"
         d="m -1489.21,60.1546 h -84.57"
         id="path642" /><path
         d="m -1179.8003,3314.0709 a 10.8,10.8 0 1 0 -16.0793,14.4227"
         style="fill:none;stroke:#000000"
         id="path644" /><path
         d="m -1195.8796,-630.25284 a 10.8,10.8 0 1 0 16.0793,14.42271"
         style="fill:none;stroke:#000000"
         id="path646" /><path
         style="fill:none;stroke:#000000"
         d="m -1125.54,3317.02 -54.26,-2.95"
         id="path648" /><path
         style="fill:none;stroke:#000000"
         d="m -1200.19,-709.62 4.31,79.367"
         id="path650" /><path
         d="m -2174.8869,1329.4139 a 10.8,10.8 0 1 0 -15.2735,-15.2735"
         style="fill:none;stroke:#000000"
         id="path652" /><path
         d="m -2190.1604,1384.1004 a 10.8,10.8 0 0 0 15.2735,-15.2735"
         style="fill:none;stroke:#000000"
         id="path654" /><path
         d="m -2123.1729,2579.1105 a 10.8,10.8 0 1 0 12.0907,-17.899"
         style="fill:none;stroke:#000000"
         id="path656" /><path
         d="m -2111.0822,137.02935 a 10.8,10.8 0 1 0 -12.0907,-17.89901"
         style="fill:none;stroke:#000000"
         id="path658" /><path
         d="m -2118.5762,2522.5175 a 10.8,10.8 0 0 0 -17.899,-12.0907"
         style="fill:none;stroke:#000000"
         id="path660" /><path
         d="m -2136.4752,187.81403 a 10.8,10.8 0 0 0 17.899,-12.09072"
         style="fill:none;stroke:#000000"
         id="path662" /><path
         style="fill:none;stroke:#000000"
         d="m -2174.89,1368.83 v -39.42"
         id="path664" /><path
         style="fill:none;stroke:#000000"
         d="m -2123.17,119.13 -89.29,-17.292"
         id="path666" /><path
         style="fill:none;stroke:#000000"
         d="m -2111.08,2561.21 -7.5,-38.69"
         id="path668" /><path
         style="fill:none;stroke:#000000"
         d="m -2219.12,171.808 82.64,16.006"
         id="path670" /><path
         style="fill:none;stroke:#000000"
         d="m -1195.88,3328.49 -3.97,73.02"
         id="path672" /><path
         d="m -1199.8451,3401.5069 c -74.7703,-2.7155 -147.4972,-6.1349 -214.5931,-10.3269 -183.9328,-11.4917 -317.3961,-27.834 -414.0618,-53.3618 -57.5333,-15.1936 -102.6018,-33.7551 -139.6304,-57.0805 -37.7235,-23.7631 -67.9502,-53.0757 -93.4516,-89.4536 -28.4184,-40.539 -53.4459,-93.383 -75.3698,-164.9684 -31.3368,-102.3196 -51.9849,-228.5233 -67.4821,-362.063 -2.6409,-22.7572 -5.0941,-45.3759 -7.4024,-67.9703"
         style="fill:none;stroke:#000000"
         id="path674" /><path
         style="fill:none;stroke:#000000"
         d="m -2211.84,2596.28 88.67,-17.17"
         id="path676" /><path
         style="fill:none;stroke:#000000"
         d="m -2136.48,2510.43 -82.08,15.9"
         id="path678" /><path
         d="m -2218.5631,2526.3252 c -4.7393,-52.2694 -8.9438,-105.037 -13.1403,-159.7046 -3.182,-41.4526 -12.8453,-168.4888 -18.2038,-245.3716 -8.7235,-125.1639 -14.6297,-232.4847 -18.634,-351.574 -4.3396,-129.0585 -5.7119,-257.1805 -4.3957,-385.5746"
         style="fill:none;stroke:#000000"
         id="path680" /><path
         style="fill:none;stroke:#000000"
         d="m -2272.94,1384.1 h 82.78"
         id="path682" /><path
         style="fill:none;stroke:#000000"
         d="m -2190.16,1314.14 h -82.71"
         id="path684" /><path
         d="m -2272.8695,1314.1404 c -1.4283,-130.5216 -0.083,-260.7416 4.3283,-391.9291 4.0043,-119.08928 9.9105,-226.41012 18.634,-351.57395 5.3585,-76.88284 15.0218,-203.91906 18.2038,-245.37164 4.0294,-52.49093 8.0694,-103.22969 12.5852,-153.45761"
         style="fill:none;stroke:#000000"
         id="path686" /><path
         style="fill:none;stroke:#000000"
         d="m -2118.58,175.723 7.5,-38.694"
         id="path688" /><path
         d="m -2212.4598,101.83764 c 2.4894,-24.668619 5.1421,-49.354067 8.0259,-74.204 15.4972,-133.53975 36.1453,-259.74341 67.4821,-362.06305 21.9239,-71.58534 46.9514,-124.42935 75.3698,-164.96836 25.5014,-36.37789 55.7281,-65.69055 93.4516,-89.45367 37.0286,-23.32538 82.0971,-41.88683 139.6304,-57.0804 96.6657,-25.5278 230.129,-41.87018 414.0618,-53.36184 66.9928,-4.18555 139.5988,-7.61519 214.248,-10.3259"
         style="fill:none;stroke:#000000"
         id="path690" /><path
         style="fill:none;stroke:#000000"
         d="m -1179.8,-615.83 54.61,-2.966"
         id="path692" /><path
         style="fill:none;stroke:#000000"
         d="m -1125.19,-618.796 6.65,122.61"
         id="path694" /><path
         d="m -1118.5351,-496.18615 c -15.6226,0.46522 -31.1988,0.95976 -46.6939,1.48418 -82.7349,2.80012 -163.1907,6.45523 -235.7403,10.98795 -95.8049,5.98565 -175.6455,13.27856 -240.2568,21.98226 -55.2326,7.4403 -99.3018,15.97294 -132.1226,24.64038 -24.893,6.5738 -43.497,13.21106 -57.1225,19.22692 -9.6199,4.24737 -16.7901,8.1574 -22.5324,11.77469 -8.1928,5.16087 -13.7062,9.72947 -19.3103,15.50396 -3.9528,4.07293 -7.9493,8.82974 -12.3982,15.17621 -6.5315,9.31723 -14.3066,22.50805 -22.9378,41.94041 -7.2126,16.23858 -14.9584,36.78381 -22.7709,62.29264 -12.105,39.52499 -23.4034,88.06532 -33.2296,142.13525 -10.1048,55.603036 -18.7398,117.087527 -26.2234,181.574529 -10.352,89.202631 -17.8194,177.507451 -25.2433,273.435751 -0.4066,5.25355 -0.8131,10.52947 -1.2199,15.829 -2.2058,28.73524 -7.5826,99.34368 -12.424,165.14577 -2.0913,28.4243 -4.0841,55.97313 -5.6689,78.71168 -8.5982,123.36639 -14.3222,227.4989 -18.2334,343.81474 -4.6833,139.28333 -5.825,277.51563 -3.7808,416.47303"
         style="fill:none;stroke:#000000"
         id="path696" /><path
         d="m -2056.4441,1345.9432 c -2.0442,138.9573 -0.9025,277.1896 3.7808,416.4729 3.9112,116.3159 9.6352,220.4484 18.2334,343.8148 1.5848,22.7385 3.5776,50.2874 5.6689,78.7117 4.8414,65.8021 10.2182,136.4105 12.424,165.1457 0.4068,5.2996 0.8133,10.5755 1.2199,15.829 7.4239,95.9283 14.8913,184.2331 25.2433,273.4358 7.4836,64.487 16.1186,125.9715 26.2234,181.5745 9.8262,54.0699 21.1246,102.6103 33.2296,142.1353 7.8125,25.5088 15.5583,46.054 22.7709,62.2926 8.6312,19.4324 16.4063,32.6232 22.9378,41.9404 4.4489,6.3465 8.4454,11.1033 12.3982,15.1762 5.6041,5.7745 11.1175,10.3431 19.3103,15.504 5.7423,3.6173 12.9125,7.5273 22.5324,11.7747 13.6255,6.0158 32.2295,12.6531 57.1225,19.2269 32.8208,8.6674 76.89,17.2001 132.1226,24.6404 34.2247,4.6103 72.7226,8.8249 115.6027,12.6589"
         style="fill:none;stroke:#000000"
         id="path698" /><path
         d="m -1525.6234,3166.277 c 38.0714,3.4041 79.5972,6.5083 124.6541,9.3233 72.5496,4.5328 153.0054,8.1879 235.7403,10.988 15.4951,0.5244 31.0713,1.0189 46.6939,1.4842"
         style="fill:none;stroke:#000000"
         id="path700" /><path
         style="fill:none;stroke:#000000"
         d="m -1118.54,3188.07 -7,128.95"
         id="path702" /><path
         d="m 895.21933,1681.4155 a 5.6693,5.660957 -90 0 0 0,-11.3386 5.6693,5.660957 -90 0 0 0,11.3386 z"
         style="fill:none;stroke:#000000"
         id="path704" /><path
         d="m 866.22989,2166.8475 a 5.6693,5.660957 -90 0 0 0,-11.3386 5.6693,5.660957 -90 0 0 0,11.3386 z"
         style="fill:none;stroke:#000000"
         id="path706" /><path
         d="m 611.14549,1688.9558 a 5.6693,5.660957 90 0 0 0,11.3386 5.6693,5.660957 90 0 0 0,-11.3386 z"
         style="fill:none;stroke:#000000"
         id="path708" /><path
         d="m 582.15606,1203.5238 a 5.6693,5.660957 90 0 0 0,11.3386 5.6693,5.660957 90 0 0 0,-11.3386 z"
         style="fill:none;stroke:#000000"
         id="path710" /><path
         d="m 111.72962,505.23554 a 10.8,10.8 0 1 0 15.2735,-15.27351"
         style="fill:none;stroke:#000000"
         id="path712" /><path
         d="m 127.00312,450.54904 a 10.8,10.8 0 1 0 -15.2735,-15.2735"
         style="fill:none;stroke:#000000"
         id="path714" /><path
         d="M 71.020549,991.56904 A 10.8,10.8 0 0 0 55.747042,976.29554"
         style="fill:none;stroke:#000000"
         id="path716" /><path
         style="fill:none;stroke:#000000"
         d="M 111.73,505.236 H 50.2031"
         id="path718" /><path
         style="fill:none;stroke:#000000"
         d="m 71.0205,991.569 v 54.691"
         id="path720" /><path
         style="fill:none;stroke:#000000"
         d="m 127.003,450.549 v 39.413"
         id="path722" /><path
         style="fill:none;stroke:#000000"
         d="M 65.269,435.276 H 111.73"
         id="path724" /><path
         d="m 182.1302,202.45778 c -29.58126,40.14992 -58.59968,85.69423 -82.459114,137.81607 -2.446603,5.3447 -4.837168,10.75835 -7.165368,16.24177 -10.921851,25.72334 -19.991212,52.09307 -27.236759,78.75992"
         style="fill:none;stroke:#000000"
         id="path726" /><path
         style="fill:none;stroke:#000000"
         d="M 206.189,169.803 182.13,202.458"
         id="path728" /><path
         style="fill:none;stroke:#000000"
         d="m 206.747,170.371 -0.558,-0.568"
         id="path730" /><path
         d="m 245.51414,124.02246 c -1.70141,1.96609 -3.40282,3.93218 -5.10423,5.89827 -11.2451,12.99444 -22.50909,26.45616 -33.66288,40.44996"
         style="fill:none;stroke:#000000"
         id="path732" /><path
         d="m 269.74208,100.74329 c -6.19579,5.9683 -12.39568,11.92801 -18.59913,17.87923 -1.87627,1.79998 -3.75254,3.59996 -5.62881,5.39994"
         style="fill:none;stroke:#000000"
         id="path734" /><path
         style="fill:none;stroke:#000000"
         d="M 377.511,214.455 269.742,100.743"
         id="path736" /><path
         d="m 359.21726,232.03778 c 0.12663,-0.12148 0.25326,-0.24297 0.37989,-0.36445 5.97295,-5.73009 11.9443,-11.46957 17.9136,-17.21854"
         style="fill:none;stroke:#000000"
         id="path738" /><path
         d="m 310.78341,291.97068 c 15.27559,-20.5155 31.45925,-40.31765 48.08935,-59.53482 0.11483,-0.13269 0.22966,-0.26538 0.3445,-0.39808"
         style="fill:none;stroke:#000000"
         id="path740" /><path
         d="m 317.38422,302.10893 c -2.04304,-3.22875 -4.23684,-6.60671 -6.60081,-10.13825"
         style="fill:none;stroke:#000000"
         id="path742" /><path
         d="m 156.20447,1046.2555 c 8.90795,-74.90167 17.62162,-150.4915 26.205,-227.59793 22.486,-201.99675 27.78441,-268.04089 41.40477,-325.28987 5.88767,-24.747 13.40884,-47.82794 23.32993,-71.19428 18.34245,-43.20045 43.17379,-83.32813 70.24005,-120.06449"
         style="fill:none;stroke:#000000"
         id="path744" /><path
         style="fill:none;stroke:#000000"
         d="M 71.0205,1046.26 H 156.204"
         id="path746" /><path
         style="fill:none;stroke:#000000"
         d="M -4.70085,976.296 H 55.747"
         id="path748" /><path
         d="m 50.203123,505.23554 c -0.407737,2.43239 -0.808285,4.88035 -1.202203,7.34514 -5.440762,34.04347 -9.809378,71.44084 -15.55134,123.32288 -4.741227,42.83981 -10.382564,95.65939 -18.008768,164.1673 C 8.81495,859.59246 2.111337,918.2026 -4.700846,976.29554"
         style="fill:none;stroke:#000000"
         id="path750" /><path
         d="m -623.03942,214.35673 a 10.8,10.8 0 0 0 10.25516,-2.68997"
         style="fill:none;stroke:#000000"
         id="path752" /><path
         d="m -706.71905,492.45167 a 10.8,10.8 0 1 0 -15.2735,-15.27351"
         style="fill:none;stroke:#000000"
         id="path754" /><path
         d="m -721.99255,547.13816 a 10.8,10.8 0 0 0 15.2735,-15.27351"
         style="fill:none;stroke:#000000"
         id="path756" /><path
         d="m -687.51905,199.08322 a 10.800002,10.800002 0 0 0 15.27351,15.27351"
         style="fill:none;stroke:#000000"
         id="path758" /><path
         d="m -728.62304,1033.4717 a 10.8,10.8 0 0 0 -15.27351,-15.2735"
         style="fill:none;stroke:#000000"
         id="path760" /><path
         style="fill:none;stroke:#000000"
         d="M -706.719,531.865 V 492.452"
         id="path762" /><path
         style="fill:none;stroke:#000000"
         d="m -783.519,547.138 h 61.526"
         id="path764" /><path
         style="fill:none;stroke:#000000"
         d="m -672.246,214.357 h 49.207"
         id="path766" /><path
         style="fill:none;stroke:#000000"
         d="M -687.519,22.3567 V 199.083"
         id="path768" /><path
         style="fill:none;stroke:#000000"
         d="m -728.623,1088.16 v -54.69"
         id="path770" /><path
         style="fill:none;stroke:#000000"
         d="m -612.784,211.667 26.769,-15.081"
         id="path772" /><path
         style="fill:none;stroke:#000000"
         d="m -586.015,196.586 98.529,104.349"
         id="path774" /><path
         d="m -487.486,300.93547 c -0.29679,0.19733 -0.59291,0.39436 -0.88834,0.5911"
         style="fill:none;stroke:#000000"
         id="path776" /><path
         d="m -488.37434,301.52657 c -10.81775,7.20381 -20.71471,14.00227 -29.74507,20.37346 -21.01596,14.82738 -37.29364,27.30746 -49.80112,37.10187 -1.23747,0.96904 -2.441,1.91355 -3.61213,2.83574"
         style="fill:none;stroke:#000000"
         id="path778" /><path
         style="fill:none;stroke:#000000"
         d="m -571.533,361.838 7.015,8.908"
         id="path780" /><path
         d="m -564.51796,370.74593 c -10.45529,8.22718 -18.11707,14.3665 -23.85704,18.69981 -6.10223,4.60679 -10.05171,7.16996 -12.79993,8.68591 -2.56693,1.41594 -4.09222,1.92806 -5.10254,2.85878 -0.95243,0.87738 -1.43843,2.15425 -1.71117,5.11363 -0.25885,2.80853 -0.31949,7.15106 -0.32817,13.966 -0.007,5.22677 0.0183,11.90289 0.0118,20.3049 -0.013,16.91484 -0.16191,40.9002 -0.90725,72.9552 -0.79296,34.10261 -2.26994,77.28832 -4.75676,129.71273 -2.75775,58.13562 -6.74817,127.66871 -12.15504,207.59981 -4.56624,67.50374 -10.14031,142.40014 -16.76072,223.3284"
         style="fill:none;stroke:#000000"
         id="path782" /><path
         d="m -642.88475,1073.9711 c -0.36926,4.5139 -0.74195,9.0487 -1.11776,13.6004"
         style="fill:none;stroke:#000000"
         id="path784" /><path
         style="fill:none;stroke:#000000"
         d="m -644.003,1087.57 -0.048,0.59"
         id="path786" /><path
         style="fill:none;stroke:#000000"
         d="m -644.051,1088.16 h -84.572"
         id="path788" /><path
         style="fill:none;stroke:#000000"
         d="m -743.897,1018.2 h -63.037"
         id="path790" /><path
         d="m -806.93426,1018.1982 c 5.09219,-64.154 9.48339,-124.0497 13.19327,-178.89381 4.28704,-63.37623 7.66296,-120.00861 10.22194,-169.27261"
         style="fill:none;stroke:#000000"
         id="path792" /><path
         style="fill:none;stroke:#000000"
         d="M -783.519,670.032 V 547.138"
         id="path794" /><path
         style="fill:none;stroke:#000000"
         d="m -721.993,477.178 h -61.526"
         id="path796" /><path
         style="fill:none;stroke:#000000"
         d="M -783.519,477.178 V 22.3567"
         id="path798" /><path
         style="fill:none;stroke:#000000"
         d="m -783.519,22.3567 h 96"
         id="path800" /><path
         d="m 710.50985,298.66096 a 10.8,10.8 0 1 0 15.27351,-15.2735"
         style="fill:none;stroke:#000000"
         id="path802" /><path
         d="M 725.78336,243.97447 A 10.800002,10.800002 0 1 0 710.50985,228.70096"
         style="fill:none;stroke:#000000"
         id="path804" /><path
         d="m 669.80078,784.99447 a 10.8,10.8 0 0 0 -15.2735,-15.27351"
         style="fill:none;stroke:#000000"
         id="path806" /><path
         style="fill:none;stroke:#000000"
         d="M 710.51,228.701 H 664.049"
         id="path808" /><path
         style="fill:none;stroke:#000000"
         d="M 725.783,283.387 V 243.974"
         id="path810" /><path
         d="m 664.04919,228.70096 c 7.24555,-26.66684 16.31491,-53.03658 27.23676,-78.75992 2.3282,-5.48341 4.71877,-10.89707 7.16537,-16.24176 23.85943,-52.121842 52.87785,-97.666154 82.45912,-137.81607"
         style="fill:none;stroke:#000000"
         id="path812" /><path
         style="fill:none;stroke:#000000"
         d="M 780.91,-4.11679 804.97,-36.7717"
         id="path814" /><path
         style="fill:none;stroke:#000000"
         d="m 804.97,-36.7717 0.557,0.5678"
         id="path816" /><path
         d="m 805.52727,-36.203877 c 11.15379,-13.993808 22.41778,-27.455524 33.66287,-40.44996 1.70141,-1.966091 3.40283,-3.932182 5.10424,-5.898273"
         style="fill:none;stroke:#000000"
         id="path818" /><path
         d="m 844.29438,-82.55211 c 1.87627,-1.79998 3.75253,-3.59996 5.6288,-5.399941 6.20345,-5.951217 12.40334,-11.910935 18.59914,-17.879239"
         style="fill:none;stroke:#000000"
         id="path820" /><path
         style="fill:none;stroke:#000000"
         d="M 868.522,-105.831 976.291,7.88022"
         id="path822" /><path
         d="m 976.29098,7.880222 c -5.96929,5.748966 -11.94065,11.48845 -17.91359,17.218536 -0.12664,0.121484 -0.25327,0.242967 -0.3799,0.364451"
         style="fill:none;stroke:#000000"
         id="path824" /><path
         d="m 957.99749,25.463209 c -0.11483,0.132694 -0.22966,0.265389 -0.34449,0.398083 -16.63011,19.217163 -32.81377,39.019319 -48.08936,59.534817"
         style="fill:none;stroke:#000000"
         id="path826" /><path
         d="m 909.56364,85.396109 c 2.36398,3.531542 4.55777,6.909502 6.60082,10.138247"
         style="fill:none;stroke:#000000"
         id="path828" /><path
         d="m 916.16446,95.534356 c -27.06627,36.736364 -51.89761,76.864034 -70.24005,120.064494 -9.92109,23.36633 -17.44226,46.44728 -23.32993,71.19428 -13.62036,57.24898 -18.91878,123.29312 -41.40477,325.28987 -8.58338,77.10643 -17.29706,152.69626 -26.205,227.59796"
         style="fill:none;stroke:#000000"
         id="path830" /><path
         style="fill:none;stroke:#000000"
         d="M 754.985,839.681 H 669.801"
         id="path832" /><path
         style="fill:none;stroke:#000000"
         d="M 669.801,839.681 V 784.994"
         id="path834" /><path
         style="fill:none;stroke:#000000"
         d="M 654.527,769.721 H 594.079"
         id="path836" /><path
         d="m 594.07939,769.72096 c 6.81218,-58.09294 13.5158,-116.70307 20.14166,-176.22468 7.6262,-68.5079 13.26754,-121.32749 18.00877,-164.16729 5.74196,-51.88204 10.11057,-89.27941 15.55133,-123.32289 0.39392,-2.46478 0.79447,-4.91275 1.20221,-7.34514"
         style="fill:none;stroke:#000000"
         id="path838" /><path
         style="fill:none;stroke:#000000"
         d="M 648.983,298.661 H 710.51"
         id="path840" /><path
         d="m -13.939011,2980.7832 a 10.800004,10.800004 0 1 0 8.961483,-19.6533"
         style="fill:none;stroke:#000000"
         id="path842" /><path
         style="fill:none;stroke:#000000"
         d="M -4.97753,2961.13 -18.7725,2924.21"
         id="path844" /><path
         d="m -18.77253,2924.21 a 10.800004,10.800004 0 0 0 -19.653291,-8.9615"
         style="fill:none;stroke:#000000"
         id="path846" /><path
         style="fill:none;stroke:#000000"
         d="m -38.4258,2915.25 -63.1042,23.58"
         id="path848" /><path
         d="m -101.53027,2938.8273 c -47.6938,-164.5417 -99.28198,-422.6559 -130.26552,-853.2285 -0.37383,-5.1951 -0.7435,-10.4001 -1.109,-15.6147"
         style="fill:none;stroke:#000000"
         id="path850" /><path
         style="fill:none;stroke:#000000"
         d="m -232.905,2069.98 70.561,-5.11"
         id="path852" /><path
         d="m -162.34439,2064.8743 a 10.800004,10.800004 0 0 0 14.13044,-16.3368"
         style="fill:none;stroke:#000000"
         id="path854" /><path
         style="fill:none;stroke:#000000"
         d="m -148.214,2048.54 -2.847,-39.31"
         id="path856" /><path
         d="m -151.06067,2009.2275 a 10.8,10.8 0 1 0 -16.33679,-14.1304"
         style="fill:none;stroke:#000000"
         id="path858" /><path
         style="fill:none;stroke:#000000"
         d="m -167.397,1995.1 -70.118,5.07"
         id="path860" /><path
         style="fill:none;stroke:#000000"
         d="m -254.344,1084.24 76.549,4.16"
         id="path862" /><path
         d="m -177.79465,1088.3976 a 10.8,10.8 0 1 0 16.07934,-14.4227"
         style="fill:none;stroke:#000000"
         id="path864" /><path
         style="fill:none;stroke:#000000"
         d="m -161.715,1073.97 2.137,-39.35"
         id="path866" /><path
         d="m -159.57787,1034.6199 a 10.800019,10.800019 0 0 0 -14.42271,-16.0794"
         style="fill:none;stroke:#000000"
         id="path868" /><path
         style="fill:none;stroke:#000000"
         d="m -174.001,1018.54 -79.704,-4.33"
         id="path870" /><path
         style="fill:none;stroke:#000000"
         d="M -243.091,475.069 H -28.437"
         id="path872" /><path
         style="fill:none;stroke:#000000"
         d="m -32.9602,691.069 4.5232,-216"
         id="path874" /><path
         d="M 114.98984,2908.9045 C 99.330613,2858.4734 82.535365,2795.6865 65.80258,2715.4717 35.021324,2567.9103 4.618065,2361.5249 -16.352861,2070.0957 c -15.71836,-218.4352 -23.965594,-456.9837 -23.699183,-672.7701 0.03849,-31.1737 0.23092,-79.7144 0.485651,-129.2166 0.129342,-25.1352 0.274672,-50.5476 0.423769,-74.1481 0.426659,-67.536 0.986315,-136.408 1.695382,-203.89239 1.137755,-108.28417 2.57402,-207.64744 4.486994,-298.99905"
         style="fill:none;stroke:#000000"
         id="path876" /><path
         style="fill:none;stroke:#000000"
         d="m 114.99,2908.9 67.069,216"
         id="path878" /><path
         style="fill:none;stroke:#000000"
         d="M 182.059,3124.9 H -35.4996"
         id="path880" /><path
         d="m -35.499558,3124.9045 c -16.233469,-37.3756 -31.2635,-77.0135 -45.262691,-119.153"
         style="fill:none;stroke:#000000"
         id="path882" /><path
         style="fill:none;stroke:#000000"
         d="m -80.7622,3005.75 66.8232,-24.97"
         id="path884" /><path
         style="fill:none;stroke:#000000"
         d="m 635.554,3355.15 -34.889,2.53"
         id="path886" /><path
         style="fill:none;stroke:#000000"
         d="m 600.665,-664.812 34.889,2.527"
         id="path888" /><path
         d="m -406.49649,3358.5721 c -45.70101,-2.7368 -90.34945,-5.9407 -132.96285,-9.6513 -176.68056,-15.3849 -290.10545,-36.9228 -372.28201,-64.3329 -63.67726,-21.2397 -113.99985,-47.8637 -156.58565,-82.3871 -41.865,-33.9392 -81.2293,-79.5175 -118.8924,-145.8342 -71.6986,-126.2458 -122.5825,-302.5897 -158.2915,-477.3279"
         style="fill:none;stroke:#000000"
         id="path890" /><path
         d="m -1358.8133,2510.355 c -6.8882,-37.5509 -13.0987,-74.7081 -18.6934,-110.946 -50.3287,-325.9913 -67.5946,-684.425 -68.8156,-1017.9951"
         style="fill:none;stroke:#000000"
         id="path892" /><path
         d="m -1446.3223,1311.4539 c 0.8158,-222.8667 8.7758,-451.98985 28.0337,-673.62544 12.9319,-148.83209 31.9282,-305.1433 59.4753,-455.31574"
         style="fill:none;stroke:#000000"
         id="path894" /><path
         d="m -1345.5109,113.82903 c 6.5974,-32.283716 13.6217,-64.175329 21.1074,-95.531658 31.5999,-132.366782 73.4758,-263.806702 128.6203,-366.301492 33.3931,-62.06641 67.2786,-105.5376 101.3503,-138.26966 42.5328,-40.86049 91.8787,-71.21347 153.7074,-95.05089 95.2236,-36.71248 238.61697,-65.42797 508.87004,-82.80573 8.41379,-0.54102 16.86881,-1.06557 25.35897,-1.57401"
         style="fill:none;stroke:#000000"
         id="path896" /><path
         d="m -336.63945,-669.49859 c 82.22441,-4.03138 166.13436,-6.68844 246.474245,-8.25993 214.163475,-4.18914 433.591555,-0.76894 636.305085,9.88186 6.50591,0.34183 13.03948,0.69349 19.59902,1.05529"
         style="fill:none;stroke:#000000"
         id="path898" /><path
         d="m 635.57876,-662.63252 c 192.26638,12.4828 400.91574,34.14325 586.23684,72.00495 95.2089,19.45147 177.3431,41.66139 249.6227,66.63471"
         style="fill:none;stroke:#000000"
         id="path900" /><path
         d="m 1536.9839,-499.53531 c 57.9243,23.32197 109.118,48.75042 155.7138,76.30643 1.6957,1.00281 3.3885,2.01034 5.0783,3.02259"
         style="fill:none;stroke:#000000"
         id="path902" /><path
         d="m 1697.776,3113.074 c -58.9486,35.3122 -114.4313,60.6629 -160.7921,79.329"
         style="fill:none;stroke:#000000"
         id="path904" /><path
         d="m 1471.4383,3216.8606 c -153.34,52.9805 -384.993,105.2311 -770.39127,134.0693 -21.65364,1.6203 -43.48888,3.1433 -65.46827,4.5703"
         style="fill:none;stroke:#000000"
         id="path906" /><path
         d="m 565.7389,3359.6891 c -179.08015,9.8772 -364.94813,13.6365 -538.020959,12.4935 -113.066914,-0.7468 -240.677761,-3.7524 -364.357391,-9.8163"
         style="fill:none;stroke:#000000"
         id="path908" /><path
         d="m 635.57876,-662.63252 c -11.67658,-0.7581 -23.31672,-1.48409 -34.91378,-2.17931"
         style="fill:none;stroke:#000000"
         id="path910" /><path
         d="m 600.66498,3357.6795 c 11.59706,-0.6952 23.2372,-1.4212 34.91378,-2.1793"
         style="fill:none;stroke:#000000"
         id="path912" /><path
         d="m 155.59504,2922.4854 c -4.35312,-122.4824 -6.89423,-251.5311 -8.69728,-378.4349 -0.7604,-53.5192 -1.39414,-107.8817 -1.9167,-160.7073"
         style="fill:none;stroke:#000000"
         id="path914" /><path
         d="m 144.34196,2313.3148 c -1.09189,-130.1685 -1.52311,-243.336 -1.6819,-299.8406 -0.0389,-13.8589 -0.0426,-27.727 -0.0128,-41.586 0.35041,-162.9514 5.53374,-365.179 18.52389,-574.508"
         style="fill:none;stroke:#000000"
         id="path916" /><path
         d="m -237.51461,2000.1748 c -12.38426,-199.5655 -18.77627,-409.5316 -18.53727,-603.1159 0.0592,-47.9146 0.46909,-134.1067 0.91357,-204.4626 0.22661,-35.8707 0.49061,-72.1221 0.79455,-108.3562"
         style="fill:none;stroke:#000000"
         id="path918" /><path
         d="m -253.70465,1014.2117 c 0.0873,-8.8226 0.17704,-17.62873 0.26933,-26.41261 2.07717,-197.69132 5.15046,-366.58233 10.34464,-512.72963"
         style="fill:none;stroke:#000000"
         id="path920" /></g></g></svg>
