0
SECTION
2
HEADER
9
$INSUNITS
70
4
9
$ACADVER
1
AC1014
9
$HANDSEED
5
FFFF
0
ENDSEC
0
SECTION
2
TABLES
0
TABLE
2
VPORT
5
8
100
AcDbSymbolTable
0
ENDTAB
0
TABLE
2
LTYPE
5
5
100
AcDbSymbolTable
0
LTYPE
5
14
100
AcDbSymbolTableRecord
100
AcDbLinetypeTableRecord
2
BYBLOCK
70
0
0
LTYPE
5
15
100
AcDbSymbolTableRecord
100
AcDbLinetypeTableRecord
2
BYLAYER
70
0
0
ENDTAB
0
TABLE
2
LAYER
5
2
100
AcDbSymbolTable
70
2
0
LAYER
5
50
100
AcDbSymbolTableRecord
100
AcDbLayerTableRecord
2
0
70
0
6
CONTINUOUS
0
ENDTAB
0
TABLE
2
STYLE
5
3
100
AcDbSymbolTable
70
1
0
STYLE
5
11
100
AcDbSymbolTableRecord
100
AcDbTextStyleTableRecord
2
STANDARD
70
0
0
ENDTAB
0
TABLE
2
VIEW
5
6
100
AcDbSymbolTable
70
0
0
ENDTAB
0
TABLE
2
UCS
5
7
100
AcDbSymbolTable
70
0
0
ENDTAB
0
TABLE
2
APPID
5
9
100
AcDbSymbolTable
70
2
0
APPID
5
12
100
AcDbSymbolTableRecord
100
AcDbRegAppTableRecord
2
ACAD
70
0
0
ENDTAB
0
TABLE
2
DIMSTYLE
5
A
100
AcDbSymbolTable
70
1
0
ENDTAB
0
TABLE
2
BLOCK_RECORD
5
1
100
AcDbSymbolTable
70
1
0
BLOCK_RECORD
5
1F
100
AcDbSymbolTableRecord
100
AcDbBlockTableRecord
2
*MODEL_SPACE
0
BLOCK_RECORD
5
1B
100
AcDbSymbolTableRecord
100
AcDbBlockTableRecord
2
*PAPER_SPACE
0
ENDTAB
0
ENDSEC
0
SECTION
2
BLOCKS
0
BLOCK
5
20
100
AcDbEntity
100
AcDbBlockBegin
2
*MODEL_SPACE
0
ENDBLK
5
21
100
AcDbEntity
100
AcDbBlockEnd
0
BLOCK
5
1C
100
AcDbEntity
100
AcDbBlockBegin
2
*PAPER_SPACE
0
ENDBLK
5
1D
100
AcDbEntity
100
AcDbBlockEnd
0
ENDSEC
0
SECTION
2
ENTITIES
0
LWPOLYLINE
5
100
100
AcDbEntity
8
0
100
AcDbPolyline
90
8
70
1
43
0.0
10
-77.375
20
-20.574000000000005
10
77.375
20
-20.573999999999998
42
0.41421356237309503
10
79.375
20
-18.573999999999998
10
79.375
20
18.574000000000005
42
0.41421356237309503
10
77.375
20
20.574000000000005
10
-77.375
20
20.574000000000005
42
0.41421356237309503
10
-79.375
20
18.574000000000005
10
-79.375
20
-18.573999999999998
42
0.41421356237309503
0
LWPOLYLINE
5
101
100
AcDbEntity
8
0
100
AcDbPolyline
90
8
70
1
43
0.0
10
77.375
20
20.574000000000005
10
-77.375
20
20.574000000000005
42
0.41421356237309537
10
-79.375
20
18.574000000000002
10
-79.375
20
-18.574000000000005
42
0.41421356237309503
10
-77.375
20
-20.574000000000005
10
77.375
20
-20.574000000000005
42
0.41421356237309503
10
79.375
20
-18.574000000000005
10
79.375
20
18.574000000000005
42
0.4142135623730947
0
CIRCLE
5
102
100
AcDbEntity
8
0
100
AcDbCircle
10
52.500000000000028
20
11.500000000000284
30
0
40
1.8250000000000028
210
-0
220
0
230
1
0
CIRCLE
5
103
100
AcDbEntity
8
0
100
AcDbCircle
10
52.500000000000028
20
2.5000000000002665
30
0
40
1.8250000000000028
210
-0
220
0
230
1
0
CIRCLE
5
104
100
AcDbEntity
8
0
100
AcDbCircle
10
-23.500000000000078
20
11.500000000000279
30
0
40
1.8250000000000028
210
-0
220
0
230
1
0
CIRCLE
5
105
100
AcDbEntity
8
0
100
AcDbCircle
10
-23.500000000000078
20
2.5000000000002629
30
0
40
1.8250000000000028
210
-0
220
0
230
1
0
LWPOLYLINE
5
106
100
AcDbEntity
8
0
100
AcDbPolyline
90
4
70
1
43
0.0
10
42.25
20
14.000000000000012
10
-17.750000000000064
20
14.000000000000012
10
-17.750000000000064
20
-4.8849813083506888e-14
10
42.25
20
-4.8849813083506888e-14
0
LWPOLYLINE
5
107
100
AcDbEntity
8
0
100
AcDbPolyline
90
4
70
1
43
0.0
10
-18.750000014901225
20
15.000000014901174
10
-18.750000014901225
20
-1.00000001490121
10
43.250000014901161
20
-1.00000001490121
10
43.250000014901161
20
15.000000014901174
0
CIRCLE
5
108
100
AcDbEntity
8
0
100
AcDbCircle
10
-45.375000000000085
20
2.5740000000000096
30
0
40
1.875
210
0
220
-0
230
1
0
CIRCLE
5
109
100
AcDbEntity
8
0
100
AcDbCircle
10
69.374999999999943
20
-2.0739999999999981
30
0
40
1.875
210
0
220
-0
230
1
0
ENDSEC
0
SECTION
2
OBJECTS
0
DICTIONARY
5
C
100
AcDbDictionary
3
ACAD_GROUP
350
D
3
ACAD_MLINESTYLE
350
17
0
DICTIONARY
5
D
100
AcDbDictionary
0
DICTIONARY
5
1A
330
C
100
AcDbDictionary
0
DICTIONARY
5
17
100
AcDbDictionary
0
ENDSEC
0
EOF
