0
SECTION
2
HEADER
9
$INSUNITS
70
1
9
$ACADVER
1
AC1014
9
$HANDSEED
5
FFFF
0
ENDSEC
0
SECTION
2
TABLES
0
TABLE
2
VPORT
5
8
100
AcDbSymbolTable
0
ENDTAB
0
TABLE
2
LTYPE
5
5
100
AcDbSymbolTable
0
LTYPE
5
14
100
AcDbSymbolTableRecord
100
AcDbLinetypeTableRecord
2
BYBLOCK
70
0
0
LTYPE
5
15
100
AcDbSymbolTableRecord
100
AcDbLinetypeTableRecord
2
BYLAYER
70
0
0
ENDTAB
0
TABLE
2
LAYER
5
2
100
AcDbSymbolTable
70
2
0
LAYER
5
50
100
AcDbSymbolTableRecord
100
AcDbLayerTableRecord
2
0
70
0
6
CONTINUOUS
0
ENDTAB
0
TABLE
2
STYLE
5
3
100
AcDbSymbolTable
70
1
0
STYLE
5
11
100
AcDbSymbolTableRecord
100
AcDbTextStyleTableRecord
2
STANDARD
70
0
0
ENDTAB
0
TABLE
2
VIEW
5
6
100
AcDbSymbolTable
70
0
0
ENDTAB
0
TABLE
2
UCS
5
7
100
AcDbSymbolTable
70
0
0
ENDTAB
0
TABLE
2
APPID
5
9
100
AcDbSymbolTable
70
2
0
APPID
5
12
100
AcDbSymbolTableRecord
100
AcDbRegAppTableRecord
2
ACAD
70
0
0
ENDTAB
0
TABLE
2
DIMSTYLE
5
A
100
AcDbSymbolTable
70
1
0
ENDTAB
0
TABLE
2
BLOCK_RECORD
5
1
100
AcDbSymbolTable
70
1
0
BLOCK_RECORD
5
1F
100
AcDbSymbolTableRecord
100
AcDbBlockTableRecord
2
*MODEL_SPACE
0
BLOCK_RECORD
5
1B
100
AcDbSymbolTableRecord
100
AcDbBlockTableRecord
2
*PAPER_SPACE
0
ENDTAB
0
ENDSEC
0
SECTION
2
BLOCKS
0
BLOCK
5
20
100
AcDbEntity
100
AcDbBlockBegin
2
*MODEL_SPACE
0
ENDBLK
5
21
100
AcDbEntity
100
AcDbBlockEnd
0
BLOCK
5
1C
100
AcDbEntity
100
AcDbBlockBegin
2
*PAPER_SPACE
0
ENDBLK
5
1D
100
AcDbEntity
100
AcDbBlockEnd
0
ENDSEC
0
SECTION
2
ENTITIES
0
SPLINE
5
100
100
AcDbEntity
8
0
100
AcDbSpline
70
4
71
5
72
16
73
10
74
0
42
0.000000001
43
0.0000000001
44
0.0000000001
40
0
40
0
40
0
40
0
40
0
40
0
40
0.20000000000000001
40
0.40000000000000002
40
0.60000000000000009
40
0.80000000000000004
40
1
40
1
40
1
40
1
40
1
40
1
41
1
41
1
41
1
41
1
41
1
41
1
41
1
41
1
41
1
41
1
10
-34.48763936956454
20
7.5810029321202936
30
0
10
-33.31584600838886
20
8.082598901504964
30
0
10
-30.888661599342939
20
9.0342547090987093
30
0
10
-26.997259807146865
20
10.307261302485776
30
0
10
-21.326655987515878
20
11.731510888733355
30
0
10
-13.350000081079891
20
13.161024919738688
30
0
10
-6.0126609663596033
20
14.062141302629685
30
0
10
0.24110012019290888
20
14.593681276345848
30
0
10
4.7927225619093514
20
14.878546096409496
30
0
10
7.1642296666681089
20
15.003591514761307
30
0
0
SPLINE
5
101
100
AcDbEntity
8
0
100
AcDbSpline
70
4
71
5
72
21
73
15
74
0
42
0.000000001
43
0.0000000001
44
0.0000000001
40
0
40
0
40
0
40
0
40
0
40
0
40
0.10000000000000001
40
0.20000000000000001
40
0.30000000000000004
40
0.40000000000000002
40
0.5
40
0.59999999999999998
40
0.69999999999999996
40
0.79999999999999993
40
0.89999999999999991
40
1
40
1
40
1
40
1
40
1
40
1
41
1
41
1
41
1
41
1
41
1
41
1
41
1
41
1
41
1
41
1
41
1
41
1
41
1
41
1
41
1
10
-21.600000000000001
20
11.535972852479468
30
0
10
-20.762527201049281
20
11.73571383233249
30
0
10
-18.996655129684179
20
12.125113782449423
30
0
10
-16.075012633252992
20
12.678947533851391
30
0
10
-11.727104000949961
20
13.350890473785709
30
0
10
-6.0519507069096239
20
14.046686074869109
30
0
10
-0.78884277295905403
20
14.563636376587711
30
0
10
3.444487956999903
20
14.875006830086464
30
0
10
6.1542070811768941
20
14.994606423180276
30
0
10
7.287102585592752
20
14.966580591824334
30
0
10
7.1022224011827912
20
14.968843275587705
30
0
10
7.2119033936057315
20
15.122588208686834
30
0
10
7.7021429158571904
20
15.688064853501222
30
0
10
8.1468606832305657
20
16.355855737003964
30
0
10
8.3999999999999986
20
16.762189771535635
30
0
0
SPLINE
5
102
100
AcDbEntity
8
0
100
AcDbSpline
70
4
71
5
72
16
73
10
74
0
42
0.000000001
43
0.0000000001
44
0.0000000001
40
0
40
0
40
0
40
0
40
0
40
0
40
0.20000000000000001
40
0.40000000000000002
40
0.60000000000000009
40
0.80000000000000004
40
1
40
1
40
1
40
1
40
1
40
1
41
1
41
1
41
1
41
1
41
1
41
1
41
1
41
1
41
1
41
1
10
8.3999999999999986
20
16.762189771535635
30
0
10
10.389599296359453
20
19.447220826062882
30
0
10
14.726656029681829
20
24.126703522141579
30
0
10
22.304643208901076
20
29.076125139082905
30
0
10
34.078772356246468
20
32.16920561553983
30
0
10
49.384087478476992
20
32.587411812948183
30
0
10
60.055968758892178
20
31.879254887928862
30
0
10
66.07167697227969
20
31.440965251685014
30
0
10
69.003797182786258
20
31.27535147041602
30
0
10
70.200000000000003
20
31.224257138620086
30
0
0
SPLINE
5
103
100
AcDbEntity
8
0
100
AcDbSpline
70
4
71
5
72
16
73
10
74
0
42
0.000000001
43
0.0000000001
44
0.0000000001
40
0
40
0
40
0
40
0
40
0
40
0
40
0.20000000000000001
40
0.40000000000000002
40
0.60000000000000009
40
0.80000000000000004
40
1
40
1
40
1
40
1
40
1
40
1
41
1
41
1
41
1
41
1
41
1
41
1
41
1
41
1
41
1
41
1
10
13.153745673217291
20
33.661310413165339
30
0
10
15.329804360681047
20
34.82044401733841
30
0
10
19.322901551444371
20
36.818564687997046
30
0
10
24.236831262105518
20
38.856251445343617
30
0
10
29.259146111654275
20
39.989321693490766
30
0
10
36.14043189475499
20
40.146879456153414
30
0
10
45.324687821166556
20
40.38810052554895
30
0
10
56.137574741445569
20
41.161718415574185
30
0
10
65.435525042042968
20
42.023078905820334
30
0
10
70.607343118900417
20
42.540260713506072
30
0
0
SPLINE
5
104
100
AcDbEntity
8
0
100
AcDbSpline
70
4
71
5
72
26
73
20
74
0
42
0.000000001
43
0.0000000001
44
0.0000000001
40
0
40
0
40
0
40
0
40
0
40
0
40
0.066666666666666666
40
0.13333333333333333
40
0.20000000000000001
40
0.26666666666666666
40
0.33333333333333331
40
0.39999999999999997
40
0.46666666666666662
40
0.53333333333333333
40
0.59999999999999998
40
0.66666666666666663
40
0.73333333333333328
40
0.79999999999999993
40
0.86666666666666659
40
0.93333333333333324
40
1
40
1
40
1
40
1
40
1
40
1
41
1
41
1
41
1
41
1
41
1
41
1
41
1
41
1
41
1
41
1
41
1
41
1
41
1
41
1
41
1
41
1
41
1
41
1
41
1
41
1
10
8.4000000000000004
20
-24.592775341105252
30
0
10
8.9031410557800328
20
-24.650654033978853
30
0
10
9.9629039071769281
20
-24.756518311934542
30
0
10
11.712987720044698
20
-24.885635815465982
30
0
10
14.369668092321973
20
-24.997999596211148
30
0
10
18.236477903777867
20
-25.036754007453005
30
0
10
22.646537601209687
20
-24.972186208067342
30
0
10
27.573531545161188
20
-24.804849649854141
30
0
10
32.953806042839091
20
-24.539288081260178
30
0
10
38.666360787078567
20
-24.186753561510415
30
0
10
44.523101331145384
20
-23.766619068268774
30
0
10
50.295762744622465
20
-23.302949397455862
30
0
10
55.735053460890349
20
-22.822228250851307
30
0
10
60.59182627325135
20
-22.35092353758445
30
0
10
64.638843230917175
20
-21.913164352749899
30
0
10
67.69284362572283
20
-21.528470885248151
30
0
10
69.254025260673728
20
-21.27279460498448
30
0
10
69.921486999820402
20
-21.111535598772601
30
0
10
70.144200718181239
20
-21.017498735383203
30
0
10
70.200000000000003
20
-20.97384688021258
30
0
0
SPLINE
5
105
100
AcDbEntity
8
0
100
AcDbSpline
70
4
71
5
72
21
73
15
74
0
42
0.000000001
43
0.0000000001
44
0.0000000001
40
0
40
0
40
0
40
0
40
0
40
0
40
0.10000000000000001
40
0.20000000000000001
40
0.30000000000000004
40
0.40000000000000002
40
0.5
40
0.59999999999999998
40
0.69999999999999996
40
0.79999999999999993
40
0.89999999999999991
40
1
40
1
40
1
40
1
40
1
40
1
41
1
41
1
41
1
41
1
41
1
41
1
41
1
41
1
41
1
41
1
41
1
41
1
41
1
41
1
41
1
10
70.200000000000003
20
31.224257138620086
30
0
10
71.186711920477549
20
31.159003394174491
30
0
10
73.269718062595047
20
30.97832382901499
30
0
10
76.723000266891376
20
30.556873022237355
30
0
10
81.905200575199359
20
29.70325192587153
30
0
10
88.899161783773238
20
28.215792265372748
30
0
10
95.828471082281879
20
26.402030916518811
30
0
10
102.10571946719674
20
24.412837820749608
30
0
10
107.20528946531624
20
22.411441543036869
30
0
10
110.88014796396885
20
20.714431435447398
30
0
10
113.08736864999803
20
19.516051584720309
30
0
10
114.38013510144219
20
19.596129591578762
30
0
10
115.21295980205177
20
19.838888995975765
30
0
10
115.65574723939145
20
19.899423887299211
30
0
10
115.84999999999999
20
19.905608153763364
30
0
0
ENDSEC
0
SECTION
2
OBJECTS
0
DICTIONARY
5
C
100
AcDbDictionary
3
ACAD_GROUP
350
D
3
ACAD_MLINESTYLE
350
17
0
DICTIONARY
5
D
100
AcDbDictionary
0
DICTIONARY
5
1A
330
C
100
AcDbDictionary
0
DICTIONARY
5
17
100
AcDbDictionary
0
ENDSEC
0
EOF
