0
SECTION
2
HEADER
9
$INSUNITS
70
1
9
$ACADVER
1
AC1014
9
$HANDSEED
5
FFFF
0
ENDSEC
0
SECTION
2
TABLES
0
TABLE
2
VPORT
5
8
100
AcDbSymbolTable
0
ENDTAB
0
TABLE
2
LTYPE
5
5
100
AcDbSymbolTable
0
LTYPE
5
14
100
AcDbSymbolTableRecord
100
AcDbLinetypeTableRecord
2
BYBLOCK
70
0
0
LTYPE
5
15
100
AcDbSymbolTableRecord
100
AcDbLinetypeTableRecord
2
BYLAYER
70
0
0
ENDTAB
0
TABLE
2
LAYER
5
2
100
AcDbSymbolTable
70
2
0
LAYER
5
50
100
AcDbSymbolTableRecord
100
AcDbLayerTableRecord
2
0
70
0
6
CONTINUOUS
0
ENDTAB
0
TABLE
2
STYLE
5
3
100
AcDbSymbolTable
70
1
0
STYLE
5
11
100
AcDbSymbolTableRecord
100
AcDbTextStyleTableRecord
2
STANDARD
70
0
0
ENDTAB
0
TABLE
2
VIEW
5
6
100
AcDbSymbolTable
70
0
0
ENDTAB
0
TABLE
2
UCS
5
7
100
AcDbSymbolTable
70
0
0
ENDTAB
0
TABLE
2
APPID
5
9
100
AcDbSymbolTable
70
2
0
APPID
5
12
100
AcDbSymbolTableRecord
100
AcDbRegAppTableRecord
2
ACAD
70
0
0
ENDTAB
0
TABLE
2
DIMSTYLE
5
A
100
AcDbSymbolTable
70
1
0
ENDTAB
0
TABLE
2
BLOCK_RECORD
5
1
100
AcDbSymbolTable
70
1
0
BLOCK_RECORD
5
1F
100
AcDbSymbolTableRecord
100
AcDbBlockTableRecord
2
*MODEL_SPACE
0
BLOCK_RECORD
5
1B
100
AcDbSymbolTableRecord
100
AcDbBlockTableRecord
2
*PAPER_SPACE
0
ENDTAB
0
ENDSEC
0
SECTION
2
BLOCKS
0
BLOCK
5
20
100
AcDbEntity
100
AcDbBlockBegin
2
*MODEL_SPACE
0
ENDBLK
5
21
100
AcDbEntity
100
AcDbBlockEnd
0
BLOCK
5
1C
100
AcDbEntity
100
AcDbBlockBegin
2
*PAPER_SPACE
0
ENDBLK
5
1D
100
AcDbEntity
100
AcDbBlockEnd
0
ENDSEC
0
SECTION
2
ENTITIES
0
LINE
5
100
100
AcDbEntity
8
0
100
AcDbLine
10
-0.51950630521088148
20
142.69104223991116
30
0
11
-0.51950630521088148
21
0
31
0
0
LINE
5
101
100
AcDbEntity
8
0
100
AcDbLine
10
21.173914300676522
20
32.234030165999847
30
0
11
23.06983320218308
21
32.234030165999854
31
0
0
SPLINE
5
102
100
AcDbEntity
8
0
100
AcDbSpline
70
4
71
5
72
21
73
15
74
0
42
0.000000001
43
0.0000000001
44
0.0000000001
40
0
40
0
40
0
40
0
40
0
40
0
40
0.10000000000000001
40
0.20000000000000001
40
0.30000000000000004
40
0.40000000000000002
40
0.5
40
0.59999999999999998
40
0.69999999999999996
40
0.79999999999999993
40
0.89999999999999991
40
1
40
1
40
1
40
1
40
1
40
1
41
1
41
1
41
1
41
1
41
1
41
1
41
1
41
1
41
1
41
1
41
1
41
1
41
1
41
1
41
1
10
-22.729479131080723
20
66.373956813305455
30
0
10
-22.664271780792038
20
68.697437963297503
30
0
10
-22.514064924245645
20
73.169820188404557
30
0
10
-22.229399970966703
20
79.354373384321988
30
0
10
-21.743985576315357
20
86.568536351792133
30
0
10
-21.025206784455385
20
93.980778325515743
30
0
10
-20.258755585801776
20
100.06973794343175
30
0
10
-19.485649574299391
20
105.2649571222248
30
0
10
-18.682607870147766
20
110.46490196612358
30
0
10
-17.762624990361616
20
116.56854192985872
30
0
10
-16.63332006546548
20
123.86993677801256
30
0
10
-15.485074497107975
20
130.76371948189234
30
0
10
-14.451813983222985
20
136.50804532971051
30
0
10
-13.681694609684039
20
140.58829894471464
30
0
10
-13.2763171363149
20
142.69104223991118
30
0
0
SPLINE
5
103
100
AcDbEntity
8
0
100
AcDbSpline
70
4
71
5
72
16
73
10
74
0
42
0.000000001
43
0.0000000001
44
0.0000000001
40
0
40
0
40
0
40
0
40
0
40
0
40
0.20000000000000001
40
0.40000000000000002
40
0.60000000000000009
40
0.80000000000000004
40
1
40
1
40
1
40
1
40
1
40
1
41
1
41
1
41
1
41
1
41
1
41
1
41
1
41
1
41
1
41
1
10
-16.001997786296005
20
-34.232815743596092
30
0
10
-15.67938508842936
20
-34.355980807134657
30
0
10
-14.931067260283319
20
-34.580545285968526
30
0
10
-13.499607146696015
20
-34.852153246581175
30
0
10
-11.071866225243072
20
-35.101340034593193
30
0
10
-7.5574492179909161
20
-35.284118853891123
30
0
10
-4.6519378805077487
20
-35.3621951919148
30
0
10
-2.5433064211146363
20
-35.39127852184221
30
0
10
-1.186017482984816
20
-35.397743852710882
30
0
10
-0.51950630521088148
20
-35.397743852710882
30
0
0
LINE
5
104
100
AcDbEntity
8
0
100
AcDbLine
10
-13.2763171363149
20
142.69104223991118
30
0
11
-0.51950630521088148
21
142.69104223991116
31
0
0
SPLINE
5
105
100
AcDbEntity
8
0
100
AcDbSpline
70
4
71
5
72
16
73
10
74
0
42
0.000000001
43
0.0000000001
44
0.0000000001
40
0
40
0
40
0
40
0
40
0
40
0
40
0.20000000000000001
40
0.40000000000000002
40
0.60000000000000009
40
0.80000000000000004
40
1
40
1
40
1
40
1
40
1
40
1
41
1
41
1
41
1
41
1
41
1
41
1
41
1
41
1
41
1
41
1
10
14.962985175874278
20
-34.232815743596099
30
0
10
14.640372478007631
20
-34.355980807134671
30
0
10
13.892054649861604
20
-34.580545285968569
30
0
10
12.460594536274362
20
-34.852153246581416
30
0
10
10.032853614821446
20
-35.101340034593527
30
0
10
6.5184366075692566
20
-35.284118853891385
30
0
10
3.6129252700860222
20
-35.3621951919149
30
0
10
1.504293810692882
20
-35.391278521842217
30
0
10
0.14700487256305453
20
-35.397743852710882
30
0
10
-0.51950630521088148
20
-35.397743852710882
30
0
0
LINE
5
106
100
AcDbEntity
8
0
100
AcDbLine
10
-24.108845812604848
20
32.234030165999854
30
0
11
-24.108845812600787
21
66.373956813305483
31
0
0
LINE
5
107
100
AcDbEntity
8
0
100
AcDbLine
10
-24.108845812600787
20
66.373956813305483
30
0
11
-22.729479131080723
21
66.373956813305455
31
0
0
LINE
5
108
100
AcDbEntity
8
0
100
AcDbLine
10
23.06983320218308
20
32.234030165999854
30
0
11
23.069833202179023
21
66.373956813305497
31
0
0
LINE
5
109
100
AcDbEntity
8
0
100
AcDbLine
10
23.069833202179023
20
66.373956813305497
30
0
11
21.690466520658958
21
66.373956813305455
31
0
0
SPLINE
5
110
100
AcDbEntity
8
0
100
AcDbSpline
70
4
71
5
72
16
73
10
74
0
42
0.000000001
43
0.0000000001
44
0.0000000001
40
0
40
0
40
0
40
0
40
0
40
0
40
0.20000000000000001
40
0.40000000000000002
40
0.60000000000000009
40
0.80000000000000004
40
1
40
1
40
1
40
1
40
1
40
1
41
1
41
1
41
1
41
1
41
1
41
1
41
1
41
1
41
1
41
1
10
-16.001997786296005
20
-34.232815743596092
30
0
10
-16.432042075430886
20
-31.62952378584022
30
0
10
-17.261644421968864
20
-26.326295432911671
30
0
10
-18.414650093287619
20
-18.08185700046187
30
0
10
-19.775865351686775
20
-6.6562670345094563
30
0
10
-21.150739699282763
20
7.6369969939305964
30
0
10
-21.897307612886543
20
18.387230326794153
30
0
10
-22.179138435981269
20
25.674447163299092
30
0
10
-22.225304924521403
20
30.116858971945728
30
0
10
-22.212926911098286
20
32.234030165999847
30
0
0
LINE
5
111
100
AcDbEntity
8
0
100
AcDbLine
10
-22.212926911098286
20
32.234030165999847
30
0
11
-24.108845812604848
21
32.234030165999854
31
0
0
LINE
5
112
100
AcDbEntity
8
0
100
AcDbLine
10
12.237304525893137
20
142.69104223991118
30
0
11
-0.51950630521088148
21
142.69104223991116
31
0
0
SPLINE
5
113
100
AcDbEntity
8
0
100
AcDbSpline
70
4
71
5
72
21
73
15
74
0
42
0.000000001
43
0.0000000001
44
0.0000000001
40
0
40
0
40
0
40
0
40
0
40
0
40
0.10000000000000001
40
0.20000000000000001
40
0.30000000000000004
40
0.40000000000000002
40
0.5
40
0.59999999999999998
40
0.69999999999999996
40
0.79999999999999993
40
0.89999999999999991
40
1
40
1
40
1
40
1
40
1
40
1
41
1
41
1
41
1
41
1
41
1
41
1
41
1
41
1
41
1
41
1
41
1
41
1
41
1
41
1
41
1
10
21.690466520658958
20
66.373956813305455
30
0
10
21.625259170370274
20
68.697437963297503
30
0
10
21.475052313823927
20
73.169820188404557
30
0
10
21.19038736054523
20
79.354373384321988
30
0
10
20.704972965894033
20
86.568536351792133
30
0
10
19.986194174033937
20
93.980778325515743
30
0
10
19.219742975380054
20
100.06973794343175
30
0
10
18.44663696387757
20
105.2649571222248
30
0
10
17.643595259726048
20
110.46490196612358
30
0
10
16.723612379939905
20
116.56854192985872
30
0
10
15.594307455043738
20
123.86993677801256
30
0
10
14.446061886686206
20
130.76371948189234
30
0
10
13.412801372801221
20
136.50804532971051
30
0
10
12.642681999262276
20
140.58829894471464
30
0
10
12.237304525893137
20
142.69104223991118
30
0
0
SPLINE
5
114
100
AcDbEntity
8
0
100
AcDbSpline
70
4
71
5
72
16
73
10
74
0
42
0.000000001
43
0.0000000001
44
0.0000000001
40
0
40
0
40
0
40
0
40
0
40
0
40
0.20000000000000001
40
0.40000000000000002
40
0.60000000000000009
40
0.80000000000000004
40
1
40
1
40
1
40
1
40
1
40
1
41
1
41
1
41
1
41
1
41
1
41
1
41
1
41
1
41
1
41
1
10
14.962985175874282
20
-34.232815743596099
30
0
10
15.101026667376713
20
-33.74551779124937
30
0
10
15.374523970995494
20
-32.767000597299536
30
0
10
15.7770192263231
20
-31.287470249420352
30
0
10
16.299762572685122
20
-29.293396293027822
30
0
10
16.933831594532716
20
-26.769309363644588
30
0
10
17.425819779518932
20
-24.723127044080879
30
0
10
17.784723985002131
20
-23.169740531750346
30
0
10
18.01902044207969
20
-22.124805479568153
30
0
10
18.13492441126688
20
-21.600000000000001
30
0
0
SPLINE
5
115
100
AcDbEntity
8
0
100
AcDbSpline
70
4
71
5
72
16
73
10
74
0
42
0.000000001
43
0.0000000001
44
0.0000000001
40
0
40
0
40
0
40
0
40
0
40
0
40
0.20000000000000001
40
0.40000000000000002
40
0.60000000000000009
40
0.80000000000000004
40
1
40
1
40
1
40
1
40
1
40
1
41
1
41
1
41
1
41
1
41
1
41
1
41
1
41
1
41
1
41
1
10
18.13492441126688
20
-21.600000000000001
30
0
10
18.260903448038277
20
-20.409996941666368
30
0
10
18.504860044978468
20
-18.022599665795941
30
-3.1574380795205172e-17
10
18.846810865030527
20
-14.419354478501086
30
-1.7356101336001324e-16
10
19.260321366102261
20
-9.580524493622022
30
-5.1488150873230912e-16
10
19.722551074297289
20
-3.5197837514560661
30
-1.0313444556816556e-15
10
20.054343964652062
20
1.2964494430676916
30
-1.3726649510539547e-15
10
20.280471739642007
20
4.8676669065386911
30
-1.5146515836187665e-15
10
20.420270225418832
20
7.2262620798862125
30
-1.5462259644139728e-15
10
20.487429039831831
20
8.4000000000000004
30
-1.5462259644139728e-15
0
SPLINE
5
116
100
AcDbEntity
8
0
100
AcDbSpline
70
4
71
5
72
16
73
10
74
0
42
0.000000001
43
0.0000000001
44
0.0000000001
40
0
40
0
40
0
40
0
40
0
40
0
40
0.20000000000000001
40
0.40000000000000002
40
0.60000000000000009
40
0.80000000000000004
40
1
40
1
40
1
40
1
40
1
40
1
41
1
41
1
41
1
41
1
41
1
41
1
41
1
41
1
41
1
41
1
10
20.487429039831831
20
8.4000000000000004
30
-1.5462259644139728e-15
10
20.54786640274153
20
9.4562667798550191
30
-1.5462259644139728e-15
10
20.661408583019625
20
11.550462584445786
30
-1.5146515836187692e-15
10
20.809741824125215
20
14.636781384745273
30
-1.372664951053976e-15
10
20.967735560747986
20
18.64745726013545
30
-1.0313444556816862e-15
10
21.107729347541056
20
23.476787759638334
30
-5.1488150873233407e-16
10
21.171855559651402
20
27.149681712524522
30
-1.7356101336002303e-16
10
21.187144987727109
20
29.757242868197469
30
-3.1574380795206553e-17
10
21.181042651149941
20
31.420898343420834
30
0
10
21.173914300676522
20
32.234030165999847
30
0
0
ENDSEC
0
SECTION
2
OBJECTS
0
DICTIONARY
5
C
100
AcDbDictionary
3
ACAD_GROUP
350
D
3
ACAD_MLINESTYLE
350
17
0
DICTIONARY
5
D
100
AcDbDictionary
0
DICTIONARY
5
1A
330
C
100
AcDbDictionary
0
DICTIONARY
5
17
100
AcDbDictionary
0
ENDSEC
0
EOF
