0
SECTION
2
HEADER
9
$INSUNITS
70
1
9
$ACADVER
1
AC1014
9
$HANDSEED
5
FFFF
0
ENDSEC
0
SECTION
2
TABLES
0
TABLE
2
VPORT
5
8
100
AcDbSymbolTable
0
ENDTAB
0
TABLE
2
LTYPE
5
5
100
AcDbSymbolTable
0
LTYPE
5
14
100
AcDbSymbolTableRecord
100
AcDbLinetypeTableRecord
2
BYBLOCK
70
0
0
LTYPE
5
15
100
AcDbSymbolTableRecord
100
AcDbLinetypeTableRecord
2
BYLAYER
70
0
0
ENDTAB
0
TABLE
2
LAYER
5
2
100
AcDbSymbolTable
70
2
0
LAYER
5
50
100
AcDbSymbolTableRecord
100
AcDbLayerTableRecord
2
0
70
0
6
CONTINUOUS
0
ENDTAB
0
TABLE
2
STYLE
5
3
100
AcDbSymbolTable
70
1
0
STYLE
5
11
100
AcDbSymbolTableRecord
100
AcDbTextStyleTableRecord
2
STANDARD
70
0
0
ENDTAB
0
TABLE
2
VIEW
5
6
100
AcDbSymbolTable
70
0
0
ENDTAB
0
TABLE
2
UCS
5
7
100
AcDbSymbolTable
70
0
0
ENDTAB
0
TABLE
2
APPID
5
9
100
AcDbSymbolTable
70
2
0
APPID
5
12
100
AcDbSymbolTableRecord
100
AcDbRegAppTableRecord
2
ACAD
70
0
0
ENDTAB
0
TABLE
2
DIMSTYLE
5
A
100
AcDbSymbolTable
70
1
0
ENDTAB
0
TABLE
2
BLOCK_RECORD
5
1
100
AcDbSymbolTable
70
1
0
BLOCK_RECORD
5
1F
100
AcDbSymbolTableRecord
100
AcDbBlockTableRecord
2
*MODEL_SPACE
0
BLOCK_RECORD
5
1B
100
AcDbSymbolTableRecord
100
AcDbBlockTableRecord
2
*PAPER_SPACE
0
ENDTAB
0
ENDSEC
0
SECTION
2
BLOCKS
0
BLOCK
5
20
100
AcDbEntity
100
AcDbBlockBegin
2
*MODEL_SPACE
0
ENDBLK
5
21
100
AcDbEntity
100
AcDbBlockEnd
0
BLOCK
5
1C
100
AcDbEntity
100
AcDbBlockBegin
2
*PAPER_SPACE
0
ENDBLK
5
1D
100
AcDbEntity
100
AcDbBlockEnd
0
ENDSEC
0
SECTION
2
ENTITIES
0
SPLINE
5
100
100
AcDbEntity
8
0
100
AcDbSpline
70
4
71
5
72
16
73
10
74
0
42
0.000000001
43
0.0000000001
44
0.0000000001
40
0
40
0
40
0
40
0
40
0
40
0
40
0.20000000000000001
40
0.40000000000000002
40
0.60000000000000009
40
0.80000000000000004
40
1
40
1
40
1
40
1
40
1
40
1
41
1
41
1
41
1
41
1
41
1
41
1
41
1
41
1
41
1
41
1
10
-34.48763936956454
20
7.5810029321202936
30
0
10
-33.31584600838886
20
8.082598901504964
30
0
10
-30.888661599342939
20
9.0342547090987093
30
0
10
-26.997259807146865
20
10.307261302485776
30
0
10
-21.326655987515878
20
11.731510888733355
30
0
10
-13.350000081079891
20
13.161024919738688
30
0
10
-6.0126609663596033
20
14.062141302629685
30
0
10
0.24110012019290888
20
14.593681276345848
30
0
10
4.7927225619093514
20
14.878546096409496
30
0
10
7.1642296666681089
20
15.003591514761307
30
0
0
SPLINE
5
101
100
AcDbEntity
8
0
100
AcDbSpline
70
4
71
5
72
21
73
15
74
0
42
0.000000001
43
0.0000000001
44
0.0000000001
40
0
40
0
40
0
40
0
40
0
40
0
40
0.10000000000000001
40
0.20000000000000001
40
0.30000000000000004
40
0.40000000000000002
40
0.5
40
0.59999999999999998
40
0.69999999999999996
40
0.79999999999999993
40
0.89999999999999991
40
1
40
1
40
1
40
1
40
1
40
1
41
1
41
1
41
1
41
1
41
1
41
1
41
1
41
1
41
1
41
1
41
1
41
1
41
1
41
1
41
1
10
-34.48763936956454
20
-3.4353078526164431
30
0
10
-34.263644711115148
20
-3.4746729680873591
30
0
10
-33.745230231731234
20
-3.9531669758610208
30
0
10
-32.756893203014329
20
-5.8729701787420794
30
0
10
-30.916095372171647
20
-10.219218201982333
30
0
10
-27.333918748733776
20
-16.046069050685162
30
0
10
-22.116732700921467
20
-19.863602238692465
30
0
10
-15.485329914411107
20
-22.15894299947082
30
0
10
-7.7134837308845485
20
-23.544018807920146
30
0
10
0.99246130140569189
20
-24.322234099112695
30
0
10
10.46365456228045
20
-24.731153159026135
30
0
10
18.566210173623645
20
-24.849560834588456
30
0
10
24.912309929874766
20
-24.843598858830596
30
0
10
29.260805008568703
20
-24.79781677808894
30
0
10
31.464489493684276
20
-24.764495423251837
30
0
0
LINE
5
102
100
AcDbEntity
8
0
100
AcDbLine
10
31.464489493684276
20
-24.764495423251837
30
0
11
66.632194557541027
21
-21.621849438822103
31
0
0
LINE
5
103
100
AcDbEntity
8
0
100
AcDbLine
10
66.632194557541027
20
-21.621849438822103
30
0
11
142.66610523042431
21
-7.8121926479073753
31
0
0
LINE
5
104
100
AcDbEntity
8
0
100
AcDbLine
10
142.66610523042431
20
-7.8121926479073753
30
0
11
142.66610523042431
21
19.905608153763357
31
0
0
LINE
5
105
100
AcDbEntity
8
0
100
AcDbLine
10
142.66610523042431
20
19.905608153763357
30
0
11
112.67810356340269
21
19.905608153763364
31
0
0
SPLINE
5
106
100
AcDbEntity
8
0
100
AcDbSpline
70
4
71
5
72
21
73
15
74
0
42
0.000000001
43
0.0000000001
44
0.0000000001
40
0
40
0
40
0
40
0
40
0
40
0
40
0.10000000000000001
40
0.20000000000000001
40
0.30000000000000004
40
0.40000000000000002
40
0.5
40
0.59999999999999998
40
0.69999999999999996
40
0.79999999999999993
40
0.89999999999999991
40
1
40
1
40
1
40
1
40
1
40
1
41
1
41
1
41
1
41
1
41
1
41
1
41
1
41
1
41
1
41
1
41
1
41
1
41
1
41
1
41
1
10
112.67810356340269
20
19.905608153763364
30
0
10
111.00132667971019
20
20.698665251906295
30
0
10
107.52820536277315
20
22.24487705298905
30
0
10
101.95961675652553
20
24.444371479928659
30
0
10
93.79203085621694
20
27.101168606345929
30
0
10
82.276593931908806
20
29.76138724323847
30
0
10
69.568984778458983
20
31.548495925646769
30
0
10
56.077941228513218
20
32.293309621400148
30
0
10
42.866635894756996
20
32.052394514290114
30
0
10
31.581856991057514
20
31.063877821371239
30
0
10
22.210673069771374
20
28.645817787717576
30
0
10
15.864705077630719
20
24.845653554599295
30
0
10
11.430765286850576
20
20.541220623661456
30
0
10
8.5705478691111061
20
16.966964594104027
30
0
10
7.1642296666681089
20
15.003591514761307
30
0
0
SPLINE
5
107
100
AcDbEntity
8
0
100
AcDbSpline
70
4
71
5
72
16
73
10
74
0
42
0.000000001
43
0.0000000001
44
0.0000000001
40
0
40
0
40
0
40
0
40
0
40
0
40
0.20000000000000001
40
0.40000000000000002
40
0.60000000000000009
40
0.80000000000000004
40
1
40
1
40
1
40
1
40
1
40
1
41
1
41
1
41
1
41
1
41
1
41
1
41
1
41
1
41
1
41
1
10
-34.48763936956454
20
7.5810029321202936
30
0
10
-34.487639369561506
20
7.1403505007292498
30
0
10
-34.487639369556199
20
6.2590456379475992
30
0
10
-34.487639369550621
20
4.9370883437764839
30
0
10
-34.487639369547395
20
3.1744786182173774
30
0
10
-34.487639369548646
20
0.971216461271178
30
0
10
-34.487639369552959
20
-0.7913932642844419
30
0
10
-34.487639369558053
20
-2.113350558450644
30
0
10
-34.487639369562245
20
-2.9946554212278791
30
0
10
-34.48763936956454
20
-3.4353078526164431
30
0
0
ENDSEC
0
SECTION
2
OBJECTS
0
DICTIONARY
5
C
100
AcDbDictionary
3
ACAD_GROUP
350
D
3
ACAD_MLINESTYLE
350
17
0
DICTIONARY
5
D
100
AcDbDictionary
0
DICTIONARY
5
1A
330
C
100
AcDbDictionary
0
DICTIONARY
5
17
100
AcDbDictionary
0
ENDSEC
0
EOF
