0
SECTION
2
HEADER
9
$INSUNITS
70
1
9
$ACADVER
1
AC1014
9
$HANDSEED
5
FFFF
0
ENDSEC
0
SECTION
2
TABLES
0
TABLE
2
VPORT
5
8
100
AcDbSymbolTable
0
ENDTAB
0
TABLE
2
LTYPE
5
5
100
AcDbSymbolTable
0
LTYPE
5
14
100
AcDbSymbolTableRecord
100
AcDbLinetypeTableRecord
2
BYBLOCK
70
0
0
LTYPE
5
15
100
AcDbSymbolTableRecord
100
AcDbLinetypeTableRecord
2
BYLAYER
70
0
0
ENDTAB
0
TABLE
2
LAYER
5
2
100
AcDbSymbolTable
70
2
0
LAYER
5
50
100
AcDbSymbolTableRecord
100
AcDbLayerTableRecord
2
0
70
0
6
CONTINUOUS
0
ENDTAB
0
TABLE
2
STYLE
5
3
100
AcDbSymbolTable
70
1
0
STYLE
5
11
100
AcDbSymbolTableRecord
100
AcDbTextStyleTableRecord
2
STANDARD
70
0
0
ENDTAB
0
TABLE
2
VIEW
5
6
100
AcDbSymbolTable
70
0
0
ENDTAB
0
TABLE
2
UCS
5
7
100
AcDbSymbolTable
70
0
0
ENDTAB
0
TABLE
2
APPID
5
9
100
AcDbSymbolTable
70
2
0
APPID
5
12
100
AcDbSymbolTableRecord
100
AcDbRegAppTableRecord
2
ACAD
70
0
0
ENDTAB
0
TABLE
2
DIMSTYLE
5
A
100
AcDbSymbolTable
70
1
0
ENDTAB
0
TABLE
2
BLOCK_RECORD
5
1
100
AcDbSymbolTable
70
1
0
BLOCK_RECORD
5
1F
100
AcDbSymbolTableRecord
100
AcDbBlockTableRecord
2
*MODEL_SPACE
0
BLOCK_RECORD
5
1B
100
AcDbSymbolTableRecord
100
AcDbBlockTableRecord
2
*PAPER_SPACE
0
ENDTAB
0
ENDSEC
0
SECTION
2
BLOCKS
0
BLOCK
5
20
100
AcDbEntity
100
AcDbBlockBegin
2
*MODEL_SPACE
0
ENDBLK
5
21
100
AcDbEntity
100
AcDbBlockEnd
0
BLOCK
5
1C
100
AcDbEntity
100
AcDbBlockBegin
2
*PAPER_SPACE
0
ENDBLK
5
1D
100
AcDbEntity
100
AcDbBlockEnd
0
ENDSEC
0
SECTION
2
ENTITIES
0
SPLINE
5
100
100
AcDbEntity
8
0
100
AcDbSpline
70
4
71
5
72
16
73
10
74
0
42
0.000000001
43
0.0000000001
44
0.0000000001
40
0
40
0
40
0
40
0
40
0
40
0
40
0.20000000000000001
40
0.40000000000000002
40
0.60000000000000009
40
0.80000000000000004
40
1
40
1
40
1
40
1
40
1
40
1
41
1
41
1
41
1
41
1
41
1
41
1
41
1
41
1
41
1
41
1
10
-34.48763936956454
20
7.5810029321202936
30
0
10
-33.31584600838886
20
8.082598901504964
30
0
10
-30.888661599342939
20
9.0342547090987093
30
0
10
-26.997259807146865
20
10.307261302485776
30
0
10
-21.326655987515878
20
11.731510888733355
30
0
10
-13.350000081079891
20
13.161024919738688
30
0
10
-6.0126609663596033
20
14.062141302629685
30
0
10
0.24110012019290888
20
14.593681276345848
30
0
10
4.7927225619093514
20
14.878546096409496
30
0
10
7.1642296666681089
20
15.003591514761307
30
0
0
SPLINE
5
101
100
AcDbEntity
8
0
100
AcDbSpline
70
4
71
5
72
21
73
15
74
0
42
0.000000001
43
0.0000000001
44
0.0000000001
40
0
40
0
40
0
40
0
40
0
40
0
40
0.10000000000000001
40
0.20000000000000001
40
0.30000000000000004
40
0.40000000000000002
40
0.5
40
0.59999999999999998
40
0.69999999999999996
40
0.79999999999999993
40
0.89999999999999991
40
1
40
1
40
1
40
1
40
1
40
1
41
1
41
1
41
1
41
1
41
1
41
1
41
1
41
1
41
1
41
1
41
1
41
1
41
1
41
1
41
1
10
-21.600000000000001
20
11.535972852479468
30
0
10
-20.765803038940199
20
11.734932530454994
30
0
10
-19.005723423866264
20
12.121748693881209
30
0
10
-16.090486518427067
20
12.668637302481295
30
0
10
-11.746863972844366
20
13.326604587159329
30
0
10
-6.0712756830029768
20
14.004034939257231
30
0
10
-0.80422883345785112
20
14.510223253736369
30
0
10
3.4352961044209032
20
14.82370266998449
30
0
10
6.149504104043042
20
14.961893673222495
30
0
10
7.2878997764247666
20
14.957084425472805
30
0
10
7.0979671366198414
20
14.980246785862997
30
0
10
7.2121175590234934
20
15.097526738508146
30
0
10
7.7130164529528251
20
15.620672990098631
30
0
10
8.1523812281977008
20
16.267444475847043
30
0
10
8.4000000000000004
20
16.664917044929819
30
0
0
SPLINE
5
102
100
AcDbEntity
8
0
100
AcDbSpline
70
4
71
5
72
16
73
10
74
0
42
0.000000001
43
0.0000000001
44
0.0000000001
40
0
40
0
40
0
40
0
40
0
40
0
40
0.20000000000000001
40
0.40000000000000002
40
0.60000000000000009
40
0.80000000000000004
40
1
40
1
40
1
40
1
40
1
40
1
41
1
41
1
41
1
41
1
41
1
41
1
41
1
41
1
41
1
41
1
10
8.4000000000000004
20
16.664917044929819
30
0
10
10.389464925860866
20
19.349766761957511
30
0
10
14.726225656850204
20
24.030615790716585
30
0
10
22.303687185397841
20
28.987268570904888
30
0
10
34.077029451875127
20
32.098324847894141
30
0
10
49.381653037630151
20
32.544004568942221
30
0
10
60.053694301782201
20
31.854042902121332
30
0
10
66.070218909876644
20
31.423295479030777
30
0
10
69.003250001461296
20
31.259327753451515
30
0
10
70.200000000000003
20
31.208210049478417
30
0
0
SPLINE
5
103
100
AcDbEntity
8
0
100
AcDbSpline
70
4
71
5
72
16
73
10
74
0
42
0.000000001
43
0.0000000001
44
0.0000000001
40
0
40
0
40
0
40
0
40
0
40
0
40
0.20000000000000001
40
0.40000000000000002
40
0.60000000000000009
40
0.80000000000000004
40
1
40
1
40
1
40
1
40
1
40
1
41
1
41
1
41
1
41
1
41
1
41
1
41
1
41
1
41
1
41
1
10
13.153745673217291
20
33.661310413165339
30
0
10
15.329804360681047
20
34.82044401733841
30
0
10
19.322901551444371
20
36.818564687997046
30
0
10
24.236831262105518
20
38.856251445343617
30
0
10
29.259146111654275
20
39.989321693490766
30
0
10
36.14043189475499
20
40.146879456153414
30
0
10
45.324687821166556
20
40.38810052554895
30
0
10
56.137574741445569
20
41.161718415574185
30
0
10
65.435525042042968
20
42.023078905820334
30
0
10
70.607343118900417
20
42.540260713506072
30
0
0
SPLINE
5
104
100
AcDbEntity
8
0
100
AcDbSpline
70
4
71
5
72
26
73
20
74
0
42
0.000000001
43
0.0000000001
44
0.0000000001
40
0
40
0
40
0
40
0
40
0
40
0
40
0.066666666666666666
40
0.13333333333333333
40
0.20000000000000001
40
0.26666666666666666
40
0.33333333333333331
40
0.39999999999999997
40
0.46666666666666662
40
0.53333333333333333
40
0.59999999999999998
40
0.66666666666666663
40
0.73333333333333328
40
0.79999999999999993
40
0.86666666666666659
40
0.93333333333333324
40
1
40
1
40
1
40
1
40
1
40
1
41
1
41
1
41
1
41
1
41
1
41
1
41
1
41
1
41
1
41
1
41
1
41
1
41
1
41
1
41
1
41
1
41
1
41
1
41
1
41
1
10
8.4000000000000004
20
-24.592775341105252
30
0
10
8.9031410557800328
20
-24.650654033978853
30
0
10
9.9629039071769281
20
-24.756518311934542
30
0
10
11.712987720044698
20
-24.885635815465982
30
0
10
14.369668092321973
20
-24.997999596211148
30
0
10
18.236477903777867
20
-25.036754007453005
30
0
10
22.646537601209687
20
-24.972186208067342
30
0
10
27.573531545161188
20
-24.804849649854141
30
0
10
32.953806042839091
20
-24.539288081260178
30
0
10
38.666360787078567
20
-24.186753561510415
30
0
10
44.523101331145384
20
-23.766619068268774
30
0
10
50.295762744622465
20
-23.302949397455862
30
0
10
55.735053460890349
20
-22.822228250851307
30
0
10
60.59182627325135
20
-22.35092353758445
30
0
10
64.638843230917175
20
-21.913164352749899
30
0
10
67.69284362572283
20
-21.528470885248151
30
0
10
69.254025260673728
20
-21.27279460498448
30
0
10
69.921486999820402
20
-21.111535598772601
30
0
10
70.144200718181239
20
-21.017498735383203
30
0
10
70.200000000000003
20
-20.97384688021258
30
0
0
SPLINE
5
105
100
AcDbEntity
8
0
100
AcDbSpline
70
4
71
5
72
21
73
15
74
0
42
0.000000001
43
0.0000000001
44
0.0000000001
40
0
40
0
40
0
40
0
40
0
40
0
40
0.10000000000000001
40
0.20000000000000001
40
0.30000000000000004
40
0.40000000000000002
40
0.5
40
0.59999999999999998
40
0.69999999999999996
40
0.79999999999999993
40
0.89999999999999991
40
1
40
1
40
1
40
1
40
1
40
1
41
1
41
1
41
1
41
1
41
1
41
1
41
1
41
1
41
1
41
1
41
1
41
1
41
1
41
1
41
1
10
70.200000000000003
20
31.208210049478417
30
0
10
71.186595824373811
20
31.142963982760559
30
0
10
73.269413444151127
20
30.96245425769839
30
0
10
76.722543892020539
20
30.541721677836136
30
0
10
81.904777685654977
20
29.689897413485575
30
0
10
88.899032699012395
20
28.205597915787553
30
0
10
95.82871125165363
20
26.395292391476996
30
0
10
102.1062411235866
20
24.409235725679718
30
0
10
107.20587352872593
20
22.410125334985771
30
0
10
110.88056562963817
20
20.714314560230502
30
0
10
113.08744176117735
20
19.516056658194028
30
0
10
114.38014485127405
20
19.596108185759405
30
0
10
115.21297545339654
20
19.838886007849865
30
0
10
115.65575441392917
20
19.89942411570911
30
0
10
115.84999999999999
20
19.905608153763364
30
0
0
ENDSEC
0
SECTION
2
OBJECTS
0
DICTIONARY
5
C
100
AcDbDictionary
3
ACAD_GROUP
350
D
3
ACAD_MLINESTYLE
350
17
0
DICTIONARY
5
D
100
AcDbDictionary
0
DICTIONARY
5
1A
330
C
100
AcDbDictionary
0
DICTIONARY
5
17
100
AcDbDictionary
0
ENDSEC
0
EOF
