0
SECTION
2
HEADER
9
$INSUNITS
70
1
9
$ACADVER
1
AC1014
9
$HANDSEED
5
FFFF
0
ENDSEC
0
SECTION
2
TABLES
0
TABLE
2
VPORT
5
8
100
AcDbSymbolTable
0
ENDTAB
0
TABLE
2
LTYPE
5
5
100
AcDbSymbolTable
0
LTYPE
5
14
100
AcDbSymbolTableRecord
100
AcDbLinetypeTableRecord
2
BYBLOCK
70
0
0
LTYPE
5
15
100
AcDbSymbolTableRecord
100
AcDbLinetypeTableRecord
2
BYLAYER
70
0
0
ENDTAB
0
TABLE
2
LAYER
5
2
100
AcDbSymbolTable
70
2
0
LAYER
5
50
100
AcDbSymbolTableRecord
100
AcDbLayerTableRecord
2
0
70
0
6
CONTINUOUS
0
ENDTAB
0
TABLE
2
STYLE
5
3
100
AcDbSymbolTable
70
1
0
STYLE
5
11
100
AcDbSymbolTableRecord
100
AcDbTextStyleTableRecord
2
STANDARD
70
0
0
ENDTAB
0
TABLE
2
VIEW
5
6
100
AcDbSymbolTable
70
0
0
ENDTAB
0
TABLE
2
UCS
5
7
100
AcDbSymbolTable
70
0
0
ENDTAB
0
TABLE
2
APPID
5
9
100
AcDbSymbolTable
70
2
0
APPID
5
12
100
AcDbSymbolTableRecord
100
AcDbRegAppTableRecord
2
ACAD
70
0
0
ENDTAB
0
TABLE
2
DIMSTYLE
5
A
100
AcDbSymbolTable
70
1
0
ENDTAB
0
TABLE
2
BLOCK_RECORD
5
1
100
AcDbSymbolTable
70
1
0
BLOCK_RECORD
5
1F
100
AcDbSymbolTableRecord
100
AcDbBlockTableRecord
2
*MODEL_SPACE
0
BLOCK_RECORD
5
1B
100
AcDbSymbolTableRecord
100
AcDbBlockTableRecord
2
*PAPER_SPACE
0
ENDTAB
0
ENDSEC
0
SECTION
2
BLOCKS
0
BLOCK
5
20
100
AcDbEntity
100
AcDbBlockBegin
2
*MODEL_SPACE
0
ENDBLK
5
21
100
AcDbEntity
100
AcDbBlockEnd
0
BLOCK
5
1C
100
AcDbEntity
100
AcDbBlockBegin
2
*PAPER_SPACE
0
ENDBLK
5
1D
100
AcDbEntity
100
AcDbBlockEnd
0
ENDSEC
0
SECTION
2
ENTITIES
0
LINE
5
100
100
AcDbEntity
8
0
100
AcDbLine
10
18.569979043228443
20
18.149999999999995
30
2.7974123455122052e-15
11
-18.569979043228443
21
18.150000000000002
31
4.1961185182683078e-15
0
SPLINE
5
101
100
AcDbEntity
8
0
100
AcDbSpline
70
0
71
3
72
16
73
12
74
0
42
0.000000001
43
0.0000000001
44
0.0000000001
40
-59.975321109914177
40
-59.975321109914177
40
-59.975321109914177
40
-59.975321109914177
40
-42.15904176852775
40
-42.15904176852775
40
-29.325344306210006
40
-29.325344306210006
40
-26.659957336363025
40
-26.659957336363025
40
-21.805613983686964
40
-21.805613983686964
40
-16.634775086235077
40
-16.634775086235077
40
-16.634775086235077
40
-16.634775086235077
10
-18.569979043228443
20
18.150000000000002
30
0
10
-19.305991546692677
20
16.669176470261249
30
0
10
-19.907150711266535
20
14.396462023989745
30
0
10
-20.532884777078415
20
6.8696837588341877
30
0
10
-20.62729537865776
20
3.1024644957976104
30
0
10
-20.624754422099493
20
-0.5867269146108095
30
0
10
-20.621725453080213
20
-1.4110744780986255
30
0
10
-20.597655731720817
20
-3.940213304520356
30
0
10
-20.561710707688032
20
-6.0385178467029021
30
0
10
-20.38531467499028
20
-9.551218037115575
30
0
10
-20.246474089754738
20
-10.812883543355886
30
0
10
-20.023497788638192
20
-11.798799182444574
30
0
0
LINE
5
102
100
AcDbEntity
8
0
100
AcDbLine
10
-20.023497788638192
20
-11.798799182444574
30
1.6325278836557403e-10
11
20.023497788560508
21
-11.79879918262937
31
4.3429826664076986e-12
0
SPLINE
5
103
100
AcDbEntity
8
0
100
AcDbSpline
70
0
71
3
72
18
73
14
74
0
42
0.000000001
43
0.0000000001
44
0.0000000001
40
-37.337667815286302
40
-37.337667815286302
40
-37.337667815286302
40
-37.337667815286302
40
-33.022450515411506
40
-33.022450515411506
40
-27.404920064772842
40
-27.404920064772842
40
-24.313332386492853
40
-24.313332386492853
40
-15.878198589278519
40
-15.878198589278519
40
-7.7402232280266796
40
-7.7402232280266796
40
-0.22348078838724755
40
-0.22348078838724755
40
-0.22348078838724755
40
-0.22348078838724755
10
20.023497788560508
20
-11.79879918262937
30
4.3429826664076986e-12
10
20.2668540525666
20
-10.722771168298545
30
4.3429826664076986e-12
10
20.408220981306815
20
-9.3243894338317137
30
6.9935308637805131e-15
10
20.613665673657948
20
-4.6375276774158696
30
6.9935308637805131e-15
10
20.625516785003889
20
-1.1180752716300308
30
-9.0090664587220562e-12
10
20.625058763984278
20
0.89164887858695696
30
-9.0090664587220562e-12
10
20.619569645349458
20
1.6141473636797401
30
2.7974123455122052e-15
10
20.581138367877823
20
4.2763161566845804
30
2.7974123455122052e-15
10
20.514025452140327
20
6.3774018271156807
30
1.3987061727561026e-15
10
20.274994796050219
20
10.227370784816932
30
1.3987061727561026e-15
10
20.082413214267572
20
12.414294364266036
30
4.3639632589990403e-13
10
19.40928440863048
20
16.074189290949427
30
4.3639632589990403e-13
10
19.015060726933765
20
17.254515987453445
30
2.7974123455122052e-15
10
18.569979043228443
20
18.149999999999995
30
2.7974123455122052e-15
0
SPLINE
5
104
100
AcDbEntity
8
0
100
AcDbSpline
70
0
71
3
72
29
73
25
74
0
42
0.000000001
43
0.0000000001
44
0.0000000001
40
-37.076090626388144
40
-37.076090626388144
40
-37.076090626388144
40
-37.076090626388144
40
-33.022450515411506
40
-33.022450515411506
40
-33.022450515411506
40
-28.423675207400585
40
-28.423675207400585
40
-28.423675207400585
40
-27.404920064772842
40
-27.404920064772842
40
-27.404920064772842
40
-24.313332386492853
40
-24.313332386492853
40
-24.313332386492853
40
-15.878198589278519
40
-15.878198589278519
40
-15.878198589278519
40
-7.7402232280266796
40
-7.7402232280266796
40
-7.7402232280266796
40
-0.98419759360135206
40
-0.98419759360135206
40
-0.98419759360135206
40
-0.61630309779704784
40
-0.61630309779704784
40
-0.61630309779704784
40
-0.61630309779704784
10
19.821834090830347
20
-11.548799182628438
30
4.2971168815149985e-12
10
20.034393765699644
20
-10.522418323263034
30
3.8331860198593628e-12
10
20.164140261918593
20
-9.1838747456127745
30
6.9935308637805131e-15
10
20.247714918025004
20
-7.2772649664646751
30
6.9935308637805131e-15
10
20.34251358983586
20
-5.114598876702976
30
6.9935308637805131e-15
10
20.367793887399294
20
-2.3635719367981904
30
-6.0354180477278971e-12
10
20.373635336894118
20
-0.72705152822217045
30
-8.2270351377122818e-12
10
20.374929378527963
20
-0.36451727277641244
30
-8.7125385666802311e-12
10
20.375274870177993
20
-0.056619576221239122
30
-9.0090664587220562e-12
10
20.375221360089082
20
0.17817427244911391
30
-9.0090664587220562e-12
10
20.375059053961245
20
0.89034801748477588
30
-9.0090664587220562e-12
10
20.369579047264729
20
1.6116916688441398
30
2.7974123455122052e-15
10
20.359288019350707
20
2.3245603311168281
30
2.7974123455122052e-15
10
20.331209825749589
20
4.2695617905147909
30
2.7974123455122052e-15
10
20.264173363746888
20
6.3672661417819212
30
1.3987061727561026e-15
10
20.142847646941352
20
8.3214098115214483
30
1.3987061727561026e-15
10
20.025784379113276
20
10.20689995992849
30
1.3987061727561026e-15
10
19.833324017409158
20
12.386543367772433
30
4.3639632589990403e-13
10
19.486616777781151
20
14.271638845387553
30
4.3639632589990403e-13
10
19.19876001914173
20
15.836756073670223
30
4.3639632589990403e-13
10
18.856012565305956
20
16.929400980091135
30
8.6119485214433448e-14
10
18.475932556337767
20
17.765621950075513
30
1.5221358445699096e-14
10
18.455235573994756
20
17.811157758963773
30
1.1360652164753817e-14
10
18.434425530582448
20
17.855938200815345
30
8.3283786195857543e-15
10
18.413503998700584
20
17.899999999999991
30
6.2262096380711411e-15
0
LINE
5
105
100
AcDbEntity
8
0
100
AcDbLine
10
18.413503998700584
20
17.899999999999991
30
6.2262096380711411e-15
11
-18.413498004274221
21
17.900000000000006
31
4.1902253776623049e-15
0
SPLINE
5
106
100
AcDbEntity
8
0
100
AcDbSpline
70
0
71
3
72
23
73
19
74
0
42
0.000000001
43
0.0000000001
44
0.0000000001
40
-59.412374570296755
40
-59.412374570296755
40
-59.412374570296755
40
-59.412374570296755
40
-50.090091046285664
40
-50.090091046285664
40
-50.090091046285664
40
-42.15904176852775
40
-42.15904176852775
40
-42.15904176852775
40
-29.325344306210006
40
-29.325344306210006
40
-29.325344306210006
40
-26.659957336363025
40
-26.659957336363025
40
-26.659957336363025
40
-21.805613983686964
40
-21.805613983686964
40
-21.805613983686964
40
-16.976727527455687
40
-16.976727527455687
40
-16.976727527455687
40
-16.976727527455687
10
-18.413498004274224
20
17.899999999999995
30
0
10
-18.783555148110935
20
17.120509097325055
30
0
10
-19.120595552697967
20
16.111671847741771
30
0
10
-19.407919284947173
20
14.68070427892915
30
0
10
-19.652363542973479
20
13.463290726348939
30
0
10
-19.860397074779332
20
11.941295043875741
30
0
10
-20.021738114047434
20
10.000569272353129
30
0
10
-20.282792301121862
20
6.8604222216243853
30
0
10
-20.377291792658209
20
3.0973441107177599
30
0
10
-20.375191451241424
20
0.047877763676556079
30
0
10
-20.374754926720517
20
-0.58590816537602597
30
0
10
-20.371728253239674
20
-1.4095906563722171
30
0
10
-20.3632052017504
20
-2.3051548433960574
30
0
10
-20.347682570774285
20
-3.936203583168167
30
0
10
-20.311685003894151
20
-6.0327565758433597
30
0
10
-20.22661172654724
20
-7.7268815114510172
30
0
10
-20.141970452302658
20
-9.412403660722692
30
0
10
-20.01563455628127
20
-10.613129842984014
30
0
10
-19.821837160519337
20
-11.548799182445503
30
0
0
LINE
5
107
100
AcDbEntity
8
0
100
AcDbLine
10
-19.821837160519337
20
-11.548799182445503
30
0
11
19.821834090830347
21
-11.548799182628438
31
4.2971168815149985e-12
0
SPLINE
5
108
100
AcDbEntity
8
0
100
AcDbSpline
70
0
71
3
72
29
73
25
74
0
42
0.000000001
43
0.0000000001
44
0.0000000001
40
-53.445361120809395
40
-53.445361120809395
40
-53.445361120809395
40
-53.445361120809395
40
-48.859603299929617
40
-48.859603299929617
40
-48.859603299929617
40
-42.15904176852775
40
-42.15904176852775
40
-42.15904176852775
40
-35.682566775931534
40
-35.682566775931534
40
-35.682566775931534
40
-29.325344306210006
40
-29.325344306210006
40
-29.325344306210006
40
-26.659957336363025
40
-26.659957336363025
40
-26.659957336363025
40
-23.781811061351316
40
-23.781811061351316
40
-23.781811061351316
40
-21.805613983686964
40
-21.805613983686964
40
-21.805613983686964
40
-20.200039496669291
40
-20.200039496669291
40
-20.200039496669291
40
-20.200039496669291
10
-16.670768546493761
20
15.399999999999988
30
0
10
-16.803605294203404
20
14.92323887127208
30
0
10
-16.934483349284584
20
14.349116589669679
30
0
10
-17.057369433311276
20
13.655512744774676
30
0
10
-17.236926618739769
20
12.642041161086846
30
0
10
-17.398882711918688
20
11.374623145936415
30
0
10
-17.530332746402312
20
9.7934478247213903
30
0
10
-17.657268792336556
20
8.2665699962575978
30
0
10
-17.745201064362611
20
6.5598780259477847
30
0
10
-17.800065128906315
20
4.8615119527195834
30
0
10
-17.853918971358606
20
3.1944182057535508
30
0
10
-17.876214399472467
20
1.5339478194001974
30
0
10
-17.87519204422404
20
0.049599655869790905
30
0
10
-17.874759972930761
20
-0.57772067302819208
30
0
10
-17.871756254834306
20
-1.3947524391081316
30
0
10
-17.863318409798062
20
-2.2813635125747824
30
0
10
-17.854207030274214
20
-3.2387465820315575
30
0
10
-17.837968327140491
20
-4.3566913508669645
30
0
10
-17.808946719749116
20
-5.4497700612412983
30
0
10
-17.78901986050159
20
-6.2003013917207026
30
0
10
-17.763005691435918
20
-6.9394112054823527
30
0
10
-17.729757917259207
20
-7.6014978799680968
30
0
10
-17.702693848206341
20
-8.1404440175960566
30
0
10
-17.671549040758276
20
-8.6208892645963608
30
0
10
-17.636037782583134
20
-9.0487991824555998
30
0
0
LINE
5
109
100
AcDbEntity
8
0
100
AcDbLine
10
-17.636037782583134
20
-9.0487991824555998
30
0
11
17.636077036877467
21
-9.0487991826183549
31
4.0840736822855521e-12
0
SPLINE
5
110
100
AcDbEntity
8
0
100
AcDbSpline
70
0
71
3
72
29
73
25
74
0
42
0.000000001
43
0.0000000001
44
0.0000000001
40
-34.595734084433268
40
-34.595734084433268
40
-34.595734084433268
40
-34.595734084433268
40
-33.022450515411506
40
-33.022450515411506
40
-33.022450515411506
40
-31.004018412624767
40
-31.004018412624767
40
-31.004018412624767
40
-27.404920064772842
40
-27.404920064772842
40
-27.404920064772842
40
-24.313332386492853
40
-24.313332386492853
40
-24.313332386492853
40
-15.878198589278519
40
-15.878198589278519
40
-15.878198589278519
40
-11.457884998026191
40
-11.457884998026191
40
-11.457884998026191
40
-7.7402232280266796
40
-7.7402232280266796
40
-7.7402232280266796
40
-4.7881753629557977
40
-4.7881753629557977
40
-4.7881753629557977
40
-4.7881753629557977
10
17.636077036877467
20
-9.0487991826183602
30
1.315812868600264e-12
10
17.681016794281952
20
-8.5073613715201279
30
5.8340059872817756e-13
10
17.718720981277347
20
-7.8839445657914684
30
6.9935308637805131e-15
10
17.750113255404514
20
-7.1677846720031777
30
6.9935308637805131e-15
10
17.790314644390204
20
-6.2506602117139414
30
6.9935308637805131e-15
10
17.818252358334991
20
-5.2051593589805636
30
-1.1570097704574943e-12
10
17.837054048032506
20
-4.1871290978201676
30
-2.6485414659210376e-12
10
17.87057963962101
20
-2.3718631664336387
30
-5.3081153269887845e-12
10
17.875408092155237
20
-0.6414615237857032
30
-9.0090664587220562e-12
10
17.875221425013478
20
0.17760451638624059
30
-9.0090664587220562e-12
10
17.875061953730928
20
0.87733940646296615
30
-9.0090664587220562e-12
10
17.869673066417413
20
1.5871347204881403
30
2.7974123455122052e-15
10
17.859548479091789
20
2.288473895076045
30
2.7974123455122052e-15
10
17.83192440446723
20
4.2020181288168983
30
2.7974123455122052e-15
10
17.765652479812523
20
6.2659092884443162
30
1.3987061727561026e-15
10
17.647652160405851
20
8.166492143152567
30
1.3987061727561026e-15
10
17.585745882717717
20
9.1635912235998536
30
1.3987061727561026e-15
10
17.502590798192454
20
10.237411951849721
30
1.2973819365879736e-13
10
17.387688375505057
20
11.287691876520682
30
2.4699654970641069e-13
10
17.291050810027667
20
12.171019595955398
30
3.4561555003115917e-13
10
17.171563813471565
20
13.038067760695467
30
4.3639632589990403e-13
10
17.027856745371697
20
13.819423074957275
30
4.3639632589990403e-13
10
16.91362168476045
20
14.440534985900916
30
4.3639632589990403e-13
10
16.793097137979217
20
14.961532623058938
30
3.6954625920926387e-13
10
16.670940840235907
20
15.400000000000002
30
2.88294882794733e-13
0
LINE
5
111
100
AcDbEntity
8
0
100
AcDbLine
10
16.670940840235907
20
15.400000000000002
30
2.88294882794733e-13
11
-16.670768546493761
21
15.399999999999988
31
0
0
LINE
5
112
100
AcDbEntity
8
0
100
AcDbLine
10
18.569979043228443
20
18.149999999999995
30
2.7974123455122052e-15
11
18.413503998700584
21
17.899999999999991
31
6.2262096380711411e-15
0
LINE
5
113
100
AcDbEntity
8
0
100
AcDbLine
10
-18.569979043228443
20
18.150000000000002
30
4.1961185182683078e-15
11
-18.413498004274221
21
17.900000000000006
31
4.1902253776623049e-15
0
LINE
5
114
100
AcDbEntity
8
0
100
AcDbLine
10
16.670940840235907
20
15.400000000000002
30
2.88294882794733e-13
11
15.904795315025606
21
18.149999999999995
31
-2.2130126253033356e-13
0
LINE
5
115
100
AcDbEntity
8
0
100
AcDbLine
10
-16.670768546493761
20
15.399999999999988
30
0
11
-15.904554536605376
21
18.150000000000002
31
0
0
ENDSEC
0
SECTION
2
OBJECTS
0
DICTIONARY
5
C
100
AcDbDictionary
3
ACAD_GROUP
350
D
3
ACAD_MLINESTYLE
350
17
0
DICTIONARY
5
D
100
AcDbDictionary
0
DICTIONARY
5
1A
330
C
100
AcDbDictionary
0
DICTIONARY
5
17
100
AcDbDictionary
0
ENDSEC
0
EOF
