<?xml version="1.0" encoding="UTF-8" standalone="no"?>
<svg
   viewBox="0 0 793.7007874015749 1122.5196850393702"
   width="793.7007874015749"
   height="1122.5196850393702"
   version="1.1"
   id="svg58"
   sodipodi:docname="Circuit Breaker Printout.svg"
   inkscape:version="1.2 (dc2aedaf03, 2022-05-15)"
   xmlns:inkscape="http://www.inkscape.org/namespaces/inkscape"
   xmlns:sodipodi="http://sodipodi.sourceforge.net/DTD/sodipodi-0.dtd"
   xmlns="http://www.w3.org/2000/svg"
   xmlns:svg="http://www.w3.org/2000/svg">
  <sodipodi:namedview
     id="namedview60"
     pagecolor="#ffffff"
     bordercolor="#666666"
     borderopacity="1.0"
     inkscape:showpageshadow="2"
     inkscape:pageopacity="0.0"
     inkscape:pagecheckerboard="0"
     inkscape:deskcolor="#d1d1d1"
     showgrid="false"
     inkscape:zoom="0.59465222"
     inkscape:cx="414.52801"
     inkscape:cy="383.41739"
     inkscape:window-width="1920"
     inkscape:window-height="1017"
     inkscape:window-x="-8"
     inkscape:window-y="-8"
     inkscape:window-maximized="1"
     inkscape:current-layer="g56" />
  <desc
     id="desc2">Circuit Breaker Panel - Copy.dxf - scale = 1.000000, origin = (0.000000, 0.000000), method = manual</desc>
  <defs
     id="defs16">
    <marker
       id="DistanceX"
       orient="auto"
       refX="0.0"
       refY="0.0"
       style="overflow:visible">
      <path
         d="M 3,-3 L -3,3 M 0,-5 L  0,5"
         style="stroke:#000000; stroke-width:0.5"
         id="path4" />
    </marker>
    <pattern
       id="Hatch"
       patternUnits="userSpaceOnUse"
       width="8"
       height="8"
       x="0"
       y="0">
      <path
         d="M8 4 l-4,4"
         stroke="#000000"
         stroke-width="0.25"
         linecap="square"
         id="path7" />
      <path
         d="M6 2 l-4,4"
         stroke="#000000"
         stroke-width="0.25"
         linecap="square"
         id="path9" />
      <path
         d="M4 0 l-4,4"
         stroke="#000000"
         stroke-width="0.25"
         linecap="square"
         id="path11" />
    </pattern>
    <symbol
       id="*MODEL_SPACE" />
    <symbol
       id="*PAPER_SPACE" />
  </defs>
  <g
     inkscape:groupmode="layer"
     inkscape:label="0"
     id="g56">
    <path
       d="m 61.115235,34.251942 a 23.998541,23.998541 0 0 0 -23.9986,23.99854 V 832.4433 a 23.998541,23.998541 0 0 0 23.9986,23.99855 h 95.994295 a 23.998541,23.998541 0 0 0 23.9986,-23.99855 V 58.250482 a 23.998541,23.998541 0 0 0 -23.9986,-23.99854 z"
       style="fill:none;stroke:#000000;stroke-width:2;stroke-dasharray:none"
       id="path18" />
    <path
       d="m 109.11243,306.63533 a 22.79862,22.79862 0 0 0 0,45.59724 22.79862,22.79862 0 0 0 0,-45.59724 z"
       style="fill:none;stroke:#000000;stroke-width:2;stroke-dasharray:none"
       id="path20" />
    <path
       d="m 109.11243,538.46121 a 22.798617,22.798617 0 0 0 0,45.59723 22.798617,22.798617 0 0 0 0,-45.59723 z"
       style="fill:none;stroke:#000000;stroke-width:2;stroke-dasharray:none"
       id="path22" />
    <path
       d="m 157.10953,823.80384 a 8.159507,8.159507 0 0 0 0,16.31899 8.159507,8.159507 0 0 0 0,-16.31899 z"
       style="fill:none;stroke:#000000;stroke-width:2;stroke-dasharray:none"
       id="path24" />
    <path
       d="m 109.11243,693.01179 a 22.79862,22.79862 0 0 0 0,45.59724 22.79862,22.79862 0 0 0 0,-45.59724 z"
       style="fill:none;stroke:#000000;stroke-width:2;stroke-dasharray:none"
       id="path26" />
    <path
       d="m 109.11243,615.73651 a 22.798617,22.798617 0 0 0 0,45.59721 22.798617,22.798617 0 0 0 0,-45.59721 z"
       style="fill:none;stroke:#000000;stroke-width:2;stroke-dasharray:none"
       id="path28" />
    <path
       d="m 157.10953,591.73797 a 8.1595103,8.1595103 0 0 0 0,16.31902 8.1595103,8.1595103 0 0 0 0,-16.31902 z"
       style="fill:none;stroke:#000000;stroke-width:2;stroke-dasharray:none"
       id="path30" />
    <path
       d="m 109.11243,229.36003 a 22.79862,22.79862 0 0 0 0,45.59724 22.79862,22.79862 0 0 0 0,-45.59724 z"
       style="fill:none;stroke:#000000;stroke-width:2;stroke-dasharray:none"
       id="path32" />
    <path
       d="m 61.115235,591.73797 a 8.1595103,8.1595103 0 0 0 0,16.31902 8.1595103,8.1595103 0 0 0 0,-16.31902 z"
       style="fill:none;stroke:#000000;stroke-width:2;stroke-dasharray:none"
       id="path34" />
    <path
       d="m 61.115235,823.80384 a 8.159507,8.159507 0 0 0 0,16.31899 8.159507,8.159507 0 0 0 0,-16.31899 z"
       style="fill:none;stroke:#000000;stroke-width:2;stroke-dasharray:none"
       id="path36" />
    <path
       d="m 109.11243,152.08476 a 22.798617,22.798617 0 0 0 0,45.59721 22.798617,22.798617 0 0 0 0,-45.59721 z"
       style="fill:none;stroke:#000000;stroke-width:2;stroke-dasharray:none"
       id="path38" />
    <path
       d="m 109.11243,461.18592 a 22.798617,22.798617 0 0 0 0,45.59723 22.798617,22.798617 0 0 0 0,-45.59723 z"
       style="fill:none;stroke:#000000;stroke-width:2;stroke-dasharray:none"
       id="path40" />
    <path
       d="m 109.11243,74.809462 a 22.798617,22.798617 0 0 0 0,45.597228 22.798617,22.798617 0 0 0 0,-45.597228 z"
       style="fill:none;stroke:#000000;stroke-width:2;stroke-dasharray:none"
       id="path42" />
    <path
       d="m 157.10953,50.090972 a 8.159507,8.159507 0 0 0 0,16.31899 8.159507,8.159507 0 0 0 0,-16.31899 z"
       style="fill:none;stroke:#000000;stroke-width:2;stroke-dasharray:none"
       id="path44" />
    <path
       d="m 157.10953,282.63679 a 8.159507,8.159507 0 0 0 0,16.31901 8.159507,8.159507 0 0 0 0,-16.31901 z"
       style="fill:none;stroke:#000000;stroke-width:2;stroke-dasharray:none"
       id="path46" />
    <path
       d="m 61.115235,50.090972 a 8.159507,8.159507 0 0 0 0,16.31899 8.159507,8.159507 0 0 0 0,-16.31899 z"
       style="fill:none;stroke:#000000;stroke-width:2;stroke-dasharray:none"
       id="path48" />
    <path
       d="m 109.11243,770.2871 a 22.798617,22.798617 0 0 0 0,45.59722 22.798617,22.798617 0 0 0 0,-45.59722 z"
       style="fill:none;stroke:#000000;stroke-width:2;stroke-dasharray:none"
       id="path50" />
    <path
       d="m 109.11243,383.91064 a 22.798617,22.798617 0 0 0 0,45.5972 22.798617,22.798617 0 0 0 0,-45.5972 z"
       style="fill:none;stroke:#000000;stroke-width:2;stroke-dasharray:none"
       id="path52" />
    <path
       d="m 61.115235,282.63679 a 8.159507,8.159507 0 0 0 0,16.31901 8.159507,8.159507 0 0 0 0,-16.31901 z"
       style="fill:none;stroke:#000000;stroke-width:2;stroke-dasharray:none"
       id="path54" />
  </g>
</svg>
