<?xml version="1.0" encoding="UTF-8" standalone="no"?>
<!-- Created with Inkscape (http://www.inkscape.org/) -->

<svg
   width="210mm"
   height="297mm"
   viewBox="0 0 210 297"
   version="1.1"
   id="svg5"
   inkscape:version="1.4.2 (f4327f4, 2025-05-13)"
   sodipodi:docname="3D Printed Decal Version (Paint Front then raster off).svg"
   xml:space="preserve"
   inkscape:export-filename="3D Printed Decal Version (Paint Front then raster off).pdf"
   inkscape:export-xdpi="96"
   inkscape:export-ydpi="96"
   xmlns:inkscape="http://www.inkscape.org/namespaces/inkscape"
   xmlns:sodipodi="http://sodipodi.sourceforge.net/DTD/sodipodi-0.dtd"
   xmlns="http://www.w3.org/2000/svg"
   xmlns:svg="http://www.w3.org/2000/svg"><sodipodi:namedview
   id="namedview7"
   pagecolor="#ffffff"
   bordercolor="#666666"
   borderopacity="1.0"
   inkscape:showpageshadow="2"
   inkscape:pageopacity="0.0"
   inkscape:pagecheckerboard="0"
   inkscape:deskcolor="#d1d1d1"
   inkscape:document-units="mm"
   showgrid="false"
   inkscape:zoom="1.3879489"
   inkscape:cx="284.95285"
   inkscape:cy="215.78604"
   inkscape:window-width="1920"
   inkscape:window-height="1009"
   inkscape:window-x="-8"
   inkscape:window-y="-8"
   inkscape:window-maximized="1"
   inkscape:current-layer="layer7" /> HEAD
     inkscape:zoom=&quot;2.0000001&quot;
     inkscape:cx=&quot;223.99999&quot;
     inkscape:cy=&quot;329.74999&quot;
=======
     inkscape:zoom=&quot;2.8284272&quot;
     inkscape:cx=&quot;275.06453&quot;
     inkscape:cy=&quot;270.64511&quot;
&gt;&gt;&gt;&gt;&gt;&gt;&gt; 66c0cbefd878c9f1c9140b2fd20d141b7554841a
     inkscape:window-width=&quot;1920&quot;
     inkscape:window-height=&quot;1111&quot;
     inkscape:window-x=&quot;-9&quot;
     inkscape:window-y=&quot;-9&quot;
     inkscape:window-maximized=&quot;1&quot;
     inkscape:current-layer=&quot;layer10&quot; /&gt;<defs
   id="defs2"><rect
     x="-155.35452"
     y="532.27854"
     width="806.15504"
     height="54.59923"
     id="rect2221" /><rect
     x="-155.35452"
     y="532.27854"
     width="806.15504"
     height="54.59923"
     id="rect826" /><marker
     id="DistanceX"
     orient="auto"
     refX="0.0"
     refY="0.0"
     style="overflow:visible"><path
       d="M 3,-3 L -3,3 M 0,-5 L  0,5"
       style="stroke:#000000; stroke-width:0.5"
       id="path1" /></marker><pattern
     id="Hatch"
     patternUnits="userSpaceOnUse"
     width="8"
     height="8"
     x="0"
     y="0"><path
       d="M8 4 l-4,4"
       stroke="#000000"
       stroke-width="0.25"
       linecap="square"
       id="path2" /><path
       d="M6 2 l-4,4"
       stroke="#000000"
       stroke-width="0.25"
       linecap="square"
       id="path3" /><path
       d="M4 0 l-4,4"
       stroke="#000000"
       stroke-width="0.25"
       linecap="square"
       id="path4" /></pattern><symbol
     id="*MODEL_SPACE" /><symbol
     id="*PAPER_SPACE" /><marker
     id="DistanceX-0"
     orient="auto"
     refX="0.0"
     refY="0.0"
     style="overflow:visible"><path
       d="M 3,-3 L -3,3 M 0,-5 L  0,5"
       style="stroke:#000000; stroke-width:0.5"
       id="path1-6" /></marker><pattern
     id="Hatch-4"
     patternUnits="userSpaceOnUse"
     width="8"
     height="8"
     x="0"
     y="0"><path
       d="M8 4 l-4,4"
       stroke="#000000"
       stroke-width="0.25"
       linecap="square"
       id="path2-4" /><path
       d="M6 2 l-4,4"
       stroke="#000000"
       stroke-width="0.25"
       linecap="square"
       id="path3-1" /><path
       d="M4 0 l-4,4"
       stroke="#000000"
       stroke-width="0.25"
       linecap="square"
       id="path4-7" /></pattern><symbol
     id="*MODEL_SPACE-9" /><symbol
     id="*PAPER_SPACE-3" /><marker
     id="DistanceX-7"
     orient="auto"
     refX="0.0"
     refY="0.0"
     style="overflow:visible"><path
       d="M 3,-3 L -3,3 M 0,-5 L  0,5"
       style="stroke:#000000; stroke-width:0.5"
       id="path1-0" /></marker><pattern
     id="Hatch-0"
     patternUnits="userSpaceOnUse"
     width="8"
     height="8"
     x="0"
     y="0"><path
       d="M8 4 l-4,4"
       stroke="#000000"
       stroke-width="0.25"
       linecap="square"
       id="path2-1" /><path
       d="M6 2 l-4,4"
       stroke="#000000"
       stroke-width="0.25"
       linecap="square"
       id="path3-0" /><path
       d="M4 0 l-4,4"
       stroke="#000000"
       stroke-width="0.25"
       linecap="square"
       id="path4-9" /></pattern><symbol
     id="*MODEL_SPACE-6" /><symbol
     id="*PAPER_SPACE-4" /><marker
     id="DistanceX-1"
     orient="auto"
     refX="0.0"
     refY="0.0"
     style="overflow:visible"><path
       d="M 3,-3 L -3,3 M 0,-5 L  0,5"
       style="stroke:#000000; stroke-width:0.5"
       id="path1-00" /></marker><pattern
     id="Hatch-6"
     patternUnits="userSpaceOnUse"
     width="8"
     height="8"
     x="0"
     y="0"><path
       d="M8 4 l-4,4"
       stroke="#000000"
       stroke-width="0.25"
       linecap="square"
       id="path2-6" /><path
       d="M6 2 l-4,4"
       stroke="#000000"
       stroke-width="0.25"
       linecap="square"
       id="path3-9" /><path
       d="M4 0 l-4,4"
       stroke="#000000"
       stroke-width="0.25"
       linecap="square"
       id="path4-6" /></pattern><symbol
     id="*MODEL_SPACE-7" /><symbol
     id="*PAPER_SPACE-2" /><clipPath
     clipPathUnits="userSpaceOnUse"
     id="clipPath64"><path
       id="path65"
       style="fill:#ff0000;fill-opacity:1;fill-rule:nonzero;stroke:none"
       d="m 105.91016,1326.7007 v 23.0528 h 289.51172 v -23.0528 h -25.62695 v 0.8535 c 0,0.2609 -0.0336,0.499 0.0586,0.7422 0.0299,0.1519 0.23821,0.8813 0.16602,0.9805 -0.49784,0.6838 -1.55717,1.0474 -1.70117,1.8808 -0.12371,0.7164 1.06656,-0.9881 1.62695,-1.4511 0.0265,-0.022 0.006,0.068 0.008,0.1015 0.0193,0.1252 0.0328,0.3685 0.0215,0.6289 -0.13455,3.2837 -3.06526,3.5627 -3.67383,1.0528 -0.82511,2.215 -3.5293,1.7634 -3.5293,-1.4141 v -0.6308 -0.2403 c -0.0124,-0.046 -0.0116,-0.1114 -0.004,-0.1914 -0.007,-0.03 -0.0192,-0.062 0.004,-0.062 0.0249,-0.1845 0.084,-0.4495 0.1543,-0.8262 0.15496,-0.3665 0.21811,-0.9482 0.39258,-1.3867 -7e-4,-0.012 -9.6e-4,-0.023 -0.002,-0.035 H 139.90039 c -0.005,0.034 -0.0159,0.069 -0.0351,0.1093 -0.003,0.018 -0.006,0.035 -0.0117,0.055 -0.0327,0.1069 -0.11729,0.2242 -0.15625,0.2696 0.009,0.037 0.013,0.075 0.0117,0.1132 -0.003,0.099 -0.0633,0.1908 -0.1211,0.2715 -0.14737,0.2061 -0.46186,0.282 -0.6875,0.3516 -0.6384,0.1968 -0.95521,-0.2188 -0.75781,-0.5664 -0.0495,-10e-5 -0.099,-2e-4 -0.14844,0 h -0.10156 c 1e-5,0.01 0,0.01 0,0.016 2.9e-4,0.9196 -0.34318,1.5 -0.77539,1.7422 0.0208,0.083 0.0291,0.155 -0.0351,0.1562 -0.56776,0.011 -0.98412,0.029 -1.32618,0.039 -0.0111,0.059 -0.0135,0.1172 -0.0234,0.1758 -0.028,0.166 -0.0818,0.2189 -0.0156,0.1445 7.5e-4,0.03 5.5e-4,0.06 0.002,0.09 0.0632,2.4958 -2.53773,2.5078 -2.52148,0.017 5e-4,-0.078 5.5e-4,-0.1546 0.002,-0.2324 0.0111,-0.1051 0.011,-0.1082 0.0176,-0.1738 -0.065,-0.066 -0.12974,-0.1324 -0.19141,-0.2012 -0.0307,-0.034 -0.0131,-0.2358 0.006,-0.3984 -0.11335,-0.2211 -0.19348,-0.4602 -0.28125,-0.6895 -0.0394,-0.1031 -0.0782,-0.2072 -0.11718,-0.3105 -2.8e-4,-0.01 2.2e-4,-0.018 0,-0.027 -0.0346,-0.029 -0.0477,-0.042 -0.0996,-0.086 0.0514,0.1001 0.0566,0.2467 -0.0195,0.4258 -0.0327,0.077 -0.01,0.028 -0.0762,0.1406 -0.0864,0.04 -0.16694,0.1001 -0.25976,0.1211 -0.0479,0.011 -0.0969,-0.015 -0.14453,-0.027 -0.0203,0 -0.0397,-0.012 -0.0586,-0.022 -0.19659,-0.094 -0.21674,-0.1219 -0.36328,-0.3418 -0.0449,-0.075 -0.0824,-0.1185 -0.0723,-0.2637 0.002,-0.029 0.0325,-0.047 0.043,-0.074 -0.11205,0 -0.22398,-0.011 -0.33594,-0.016 -0.0126,0.01 -0.0182,0.012 -0.0312,0.023 -0.0711,0.023 -0.14039,0.048 -0.21094,0.072 0.0115,0.046 0.0184,0.093 0.0371,0.1367 0.0128,0.029 0.0389,0.053 0.0586,0.078 0.088,0.1139 0.0644,0.084 0.15039,0.1777 0.0853,0.098 0.16817,0.1911 0.18555,0.3262 0.008,0.065 0.0377,0.1398 0.006,0.1973 -0.25554,0.4527 -0.26546,0.3311 -0.64258,0.1972 -0.0688,-0.098 -0.14988,-0.1879 -0.20703,-0.2929 -0.0789,-0.145 -0.1325,-0.3381 -0.19141,-0.5196 -0.006,0.021 -0.0221,0.025 -0.0293,0.045 -0.14689,0.6873 -0.92188,0.6073 -0.92188,-0.2403 v -0.023 c -0.0938,0.1012 -0.0269,-0.078 -0.0391,-0.125 0.0108,0.014 0.0435,0.051 0.0391,0.043 -0.0268,-0.048 -0.056,-0.095 -0.084,-0.1426 0.0103,0.018 0.0224,0.04 0.0351,0.062 0.0186,0.035 -0.069,-0.045 -0.0879,-0.08 -0.0199,-0.037 -0.0324,-0.061 -0.0469,-0.088 v -0 c -0.0697,-0.1289 -0.0869,-0.1636 -0.0859,-0.2832 -1e-5,-0.047 -3e-5,-0.094 0,-0.1407 -2e-4,-0.074 -7e-5,-0.1497 0,-0.2246 z m 23.35547,0.6563 c 0.009,0.044 -0.01,-0.069 0.0723,0.059 -0.0252,-0.043 -0.0492,-0.086 -0.0742,-0.1289 7.2e-4,-0.01 8e-4,-0.013 0.002,-0.02 -0.003,0 0.002,-0.01 0,-0.01 0.001,-0.016 0.003,-0.031 0.004,-0.049 -0.0179,-0.069 -0.0351,-0.1392 -0.0527,-0.209 -0.009,0.042 -0.003,0.1076 0.0176,0.2032 0.0205,0.093 0.0281,0.1365 0.0312,0.1543 z m 10.63476,-0.6543 v -0 h -0.0351 c 0.003,0.017 0.006,0.035 0.006,0.053 0.0126,-0.01 0.0237,-0.025 0.0293,-0.051 z m -0.16796,-0 c 0.0269,0.023 0.0525,0.04 0.0742,0.051 0.002,-0.018 0.003,-0.035 0.004,-0.051 z m 0.041,0.2363 c -0.002,0 -0.002,-4e-4 -0.004,0.01 -0.001,0.01 -0.003,0.013 -0.004,0.02 0.003,-0.01 0.005,-0.01 0.006,-0.012 0.001,0 7.6e-4,-0.01 0.002,-0.014 z m -0.125,0.2481 c -0.0254,0.034 -0.0505,0.067 -0.0703,0.1035 -0.0147,0.027 0.0349,-0.023 0.0625,-0.061 0.003,-0.013 0.005,-0.028 0.008,-0.043 z m 228.25977,0.061 c -0.0805,0.01 -0.70172,0.7672 -1.19336,1.4024 -0.0303,0.1088 -0.0625,0.2338 -0.13086,0.4512 -0.007,-0.047 0.0188,-0.135 -0.0195,-0.1465 0.0145,0.012 -0.008,0.062 -0.008,0.088 v 0.1445 c 0.24059,-0.153 0.63648,-0.5888 1.29492,-1.7793 0.0623,-0.1126 0.0773,-0.1617 0.0566,-0.1602 z m -233.63477,0.4493 c -0.0309,0 0.0681,0.015 0.0586,0.017 -0.001,-0.01 -5.7e-4,-0.012 -0.002,-0.017 -0.0152,10e-5 -0.0444,0 -0.0566,0 z m -2.64258,0.2226 c 0.003,0.01 0.004,0.01 0.008,0.014 0.002,0 -0.006,10e-4 -0.008,-0.01 z m 234.43751,0.6074 c -0.0813,0.1144 -0.1886,0.2152 -0.25,0.3399 0.10652,0.02 0.20899,0.033 0.30859,0.047 -0.0193,-0.129 -0.0388,-0.2581 -0.0586,-0.3868 z m 0.0527,0.1211 c -0.004,0.014 9.9e-4,0.1161 0.0117,0.2676 0.009,10e-4 0.0186,0 0.0273,0 0.004,-0 0.006,-0.01 0.01,-0.01 -0.0202,-0.1361 -0.0387,-0.2462 -0.0469,-0.2617 z m -0.043,0.3477 c -0.0743,0.012 -0.15073,0.027 -0.22851,0.043 0.0574,-9e-4 0.1183,-1e-4 0.17773,0 -0.22144,0.1932 -0.38163,0.2954 -0.31641,0.094 0.008,-0.024 0.0168,-0.047 0.0254,-0.07 -0.34961,0.079 -0.72398,0.1894 -1.08594,0.2871 0.61868,0.1667 1.17512,0.2727 1.52929,0.1641 0.003,-0.1697 0.009,-0.2609 0.0391,-0.2637 -0.01,-0.071 -0.0191,-0.1433 -0.0293,-0.2149 -0.0504,-10e-4 -0.105,-0 -0.1543,-0 0.0142,-0.012 0.0277,-0.021 0.043,-0.035 z m -0.34179,0.066 c 0.0387,-0.01 0.0752,-0.015 0.11328,-0.023 -0.0374,5e-4 -0.0689,0 -0.10547,0 -0.002,0.01 -0.005,0.013 -0.008,0.019 z m 0.68359,-0.021 c -0.0519,0.07 -0.12194,0.1589 -0.16211,0.2149 0.0433,0.01 0.11172,0.023 0.21875,-0.025 0.0246,-0.064 0.076,-0.1 0.0781,-0.1875 -0.0473,0 -0.0888,-10e-4 -0.13476,-0 z m -0.19336,0.2656 c -0.0191,0.054 0.003,0.1188 0.0234,0.1836 5.4e-4,-2e-4 10e-4,3e-4 0.002,0 -0.008,-0.052 -0.0154,-0.1129 -0.0254,-0.1836 z m -232.92188,0.047 c 0.0323,0.1449 0.0833,0.2941 0.18164,0.3691 0.15935,0.1215 0.34217,0.2069 0.51758,0.2696 -0.23505,-0.2111 -0.4734,-0.4186 -0.69922,-0.6387 z" /></clipPath><marker
     id="DistanceX-6"
     orient="auto"
     refX="0.0"
     refY="0.0"
     style="overflow:visible"><path
       d="M 3,-3 L -3,3 M 0,-5 L  0,5"
       style="stroke:#000000; stroke-width:0.5"
       id="path1-5" /></marker><pattern
     id="Hatch-41"
     patternUnits="userSpaceOnUse"
     width="8"
     height="8"
     x="0"
     y="0"><path
       d="M8 4 l-4,4"
       stroke="#000000"
       stroke-width="0.25"
       linecap="square"
       id="path2-67" /><path
       d="M6 2 l-4,4"
       stroke="#000000"
       stroke-width="0.25"
       linecap="square"
       id="path3-11" /><path
       d="M4 0 l-4,4"
       stroke="#000000"
       stroke-width="0.25"
       linecap="square"
       id="path4-3" /></pattern><symbol
     id="*MODEL_SPACE-2" /><symbol
     id="*PAPER_SPACE-30" /><marker
     id="DistanceX-4"
     orient="auto"
     refX="0.0"
     refY="0.0"
     style="overflow:visible"><path
       d="M 3,-3 L -3,3 M 0,-5 L  0,5"
       style="stroke:#000000; stroke-width:0.5"
       id="path1-61" /></marker><pattern
     id="Hatch-1"
     patternUnits="userSpaceOnUse"
     width="8"
     height="8"
     x="0"
     y="0"><path
       d="M8 4 l-4,4"
       stroke="#000000"
       stroke-width="0.25"
       linecap="square"
       id="path2-8" /><path
       d="M6 2 l-4,4"
       stroke="#000000"
       stroke-width="0.25"
       linecap="square"
       id="path3-03" /><path
       d="M4 0 l-4,4"
       stroke="#000000"
       stroke-width="0.25"
       linecap="square"
       id="path4-92" /></pattern><symbol
     id="*MODEL_SPACE-21" /><symbol
     id="*PAPER_SPACE-25" /><marker
     id="DistanceX-3"
     orient="auto"
     refX="0.0"
     refY="0.0"
     style="overflow:visible"><path
       d="M 3,-3 L -3,3 M 0,-5 L  0,5"
       style="stroke:#000000; stroke-width:0.5"
       id="path1-7" /></marker><pattern
     id="Hatch-15"
     patternUnits="userSpaceOnUse"
     width="8"
     height="8"
     x="0"
     y="0"><path
       d="M8 4 l-4,4"
       stroke="#000000"
       stroke-width="0.25"
       linecap="square"
       id="path2-41" /><path
       d="M6 2 l-4,4"
       stroke="#000000"
       stroke-width="0.25"
       linecap="square"
       id="path3-5" /><path
       d="M4 0 l-4,4"
       stroke="#000000"
       stroke-width="0.25"
       linecap="square"
       id="path4-4" /></pattern><symbol
     id="*MODEL_SPACE-20" /><symbol
     id="*PAPER_SPACE-24" /></defs><g
   inkscape:label="Template Drudgery"
   inkscape:groupmode="layer"
   id="layer1"
   style="display:none"><g
     inkscape:groupmode="layer"
     id="layer6"
     inkscape:label="Don't place decals Here!"
     style="display:none"><g
       inkscape:groupmode="layer"
       id="g824"
       inkscape:label="Don't place decals Here"
       style="display:inline"
       transform="translate(0,134.13828)"><rect
         style="fill:#bc2a45;fill-opacity:1;fill-rule:evenodd;stroke-width:1.84917;stroke-linecap:round;stroke-linejoin:round;paint-order:markers stroke fill"
         id="rect818"
         width="215.89999"
         height="19.37591"
         x="3.5527137e-15"
         y="145.26172"
         rx="2.7382862e-06" /><text
         xml:space="preserve"
         transform="matrix(0.26458333,0,0,0.26458333,77.719255,4.8823981)"
         id="text822"
         style="font-size:18.6667px;line-height:1.25;font-family:Bahnschrift;-inkscape-font-specification:Bahnschrift;letter-spacing:-0.15px;white-space:pre;shape-inside:url(#rect826);display:inline"><tspan
           x="-155.35547"
           y="549.43297"
           id="tspan2">NO DECALS HERE ---NO DECALS HERE ---NO DECALS HERE ---</tspan></text></g><g
       inkscape:groupmode="layer"
       id="layer2"
       inkscape:label="Don't place decals Here"
       style="display:inline"><rect
         style="fill:#bc2a45;fill-opacity:1;fill-rule:evenodd;stroke-width:1.0691;stroke-linecap:round;stroke-linejoin:round;paint-order:markers stroke fill"
         id="rect1281"
         width="215.89999"
         height="6.4765458"
         x="3.5527137e-15"
         y="145.26172"
         rx="2.7382862e-06" /><text
         xml:space="preserve"
         transform="matrix(0.26458333,0,0,0.26458333,77.719255,4.8823981)"
         id="text2219"
         style="font-size:18.6667px;line-height:1.25;font-family:Bahnschrift;-inkscape-font-specification:Bahnschrift;letter-spacing:-0.15px;white-space:pre;shape-inside:url(#rect2221);display:inline"><tspan
           x="-155.35547"
           y="549.43297"
           id="tspan3">NO DECALS HERE ---NO DECALS HERE ---NO DECALS HERE ---</tspan></text></g></g><text
     xml:space="preserve"
     style="font-size:3.175px;line-height:1.25;font-family:ChunkFive;-inkscape-font-specification:ChunkFive;letter-spacing:-0.0396875px;fill:#ffffff;stroke-width:0.264583"
     x="74.43119"
     y="-26.08942"
     id="text322"
     inkscape:label="Design Standards"><tspan
       sodipodi:role="line"
       id="tspan320"
       style="font-style:normal;font-variant:normal;font-weight:bold;font-stretch:normal;font-size:3.175px;font-family:Arial;-inkscape-font-specification:'Arial Bold';fill:#ffffff;stroke-width:0.264583"
       x="74.43119"
       y="-26.08942">Design Standards:</tspan><tspan
       sodipodi:role="line"
       style="font-style:normal;font-variant:normal;font-weight:bold;font-stretch:normal;font-size:3.175px;font-family:Arial;-inkscape-font-specification:'Arial Bold';fill:#ffffff;stroke-width:0.264583"
       x="74.43119"
       y="-22.083918"
       id="tspan376">Fill holes with White</tspan><tspan
       sodipodi:role="line"
       style="font-style:normal;font-variant:normal;font-weight:bold;font-stretch:normal;font-size:3.175px;font-family:Arial;-inkscape-font-specification:'Arial Bold';fill:#ffffff;stroke-width:0.264583"
       x="74.43119"
       y="-18.078413"
       id="tspan430">Laser Engrave according to laser standards</tspan><tspan
       sodipodi:role="line"
       style="font-style:normal;font-variant:normal;font-weight:bold;font-stretch:normal;font-size:3.175px;font-family:Arial;-inkscape-font-specification:'Arial Bold';fill:#ffffff;stroke-width:0.264583"
       x="74.43119"
       y="-14.07291"
       id="tspan432">Use Laser Paper Cutout Layer</tspan><tspan
       sodipodi:role="line"
       style="font-style:normal;font-variant:normal;font-weight:bold;font-stretch:normal;font-size:3.175px;font-family:Arial;-inkscape-font-specification:'Arial Bold';fill:#ffffff;stroke-width:0.264583"
       x="74.43119"
       y="-10.067407"
       id="tspan378" /></text><rect
     style="fill:#ff00ff;fill-opacity:1;fill-rule:evenodd;stroke:none;stroke-width:0.019168;stroke-linecap:round;paint-order:markers stroke fill"
     id="rect869"
     width="0.5"
     height="1"
     x="0"
     y="0"
     rx="3.1546375e-07" /></g><g
   inkscape:groupmode="layer"
   id="layer3"
   inkscape:label="Background"
   style="display:none"><rect
     style="fill:#000000;fill-opacity:1;fill-rule:evenodd;stroke-width:0.715508;stroke-linecap:round;stroke-linejoin:round;paint-order:markers stroke fill"
     id="rect3340"
     width="199.27119"
     height="125.53283"
     x="5.3644032"
     y="7.2362289"
     rx="3.8759748e-07"
     inkscape:label="Final Background" /><rect
     style="display:inline;fill:#808080;fill-opacity:1;fill-rule:evenodd;stroke-width:0.715507;stroke-linecap:round;stroke-linejoin:round;paint-order:markers stroke fill"
     id="rect1532"
     width="199.27119"
     height="125.53283"
     x="5.3644032"
     y="7.2362289"
     rx="3.8759751e-07"
     inkscape:label="Dev Background" /></g><g
   inkscape:groupmode="layer"
   id="layer5"
   inkscape:label="Reference"
   style="display:none"><g
     inkscape:groupmode="layer"
     id="layer8"
     inkscape:label="Laser Reference"
     style="display:none;fill:#ff00ff;fill-opacity:1;stroke:#ff00ff;stroke-opacity:1"><rect
       style="display:inline;fill:none;fill-opacity:1;fill-rule:evenodd;stroke:#ff00ff;stroke-width:0.1;stroke-linecap:round;stroke-linejoin:round;stroke-dasharray:none;stroke-opacity:1;paint-order:markers stroke fill"
       id="rect1219"
       width="215.89999"
       height="279.39999"
       x="0"
       y="0"
       rx="4.0846581e-07"
       inkscape:label="8.5 x 11 USA Paper" /></g><g
     inkscape:label="Trace LEDs"
     id="g11"
     transform="matrix(0.26458333,0,0,0.26458333,124.2912,-241.32562)"
     style="display:inline"><path
       d="m -283.59685,1130.948 v -54.4252 h 276.7937 v 54.4252 h 5.669292 v -60.0945 H -289.26614 v 60.0945 z"
       style="fill:none;stroke:#000000"
       id="path5-5" /><path
       d="M -283.2189,1076.9008 H -7.181102 v 54.0472 H -283.2189 Z"
       style="fill:none;stroke:#000000"
       id="path6-9" /><path
       d="m -230.9234,1136.6173 a 10.866142,10.866142 0 1 0 -6.81462,0"
       style="fill:none;stroke:#000000"
       id="path7-5" /><path
       d="m -185.56907,1136.6173 a 10.866142,10.866142 0 1 0 -6.81462,0"
       style="fill:none;stroke:#000000"
       id="path8-7" /><path
       d="m -134.54545,1136.6173 a 10.866142,10.866142 0 1 0 -6.81461,0"
       style="fill:none;stroke:#000000"
       id="path9-9" /><path
       d="m -104.30923,1136.6173 a 10.866142,10.866142 0 1 0 -6.81461,0"
       style="fill:none;stroke:#000000"
       id="path10-6" /><path
       d="m -72.183243,1136.6173 a 10.866142,10.866142 0 1 0 -6.814616,0"
       style="fill:none;stroke:#000000"
       id="path11-1" /></g></g><g
   inkscape:groupmode="layer"
   id="layer4"
   inkscape:label="Outlines (Can likely use for Laser Cutout)"
   style="display:inline" /><text
   xml:space="preserve"
   style="font-size:3.88056px;line-height:1.25;font-family:ChunkFive;-inkscape-font-specification:ChunkFive;letter-spacing:-0.0144596px;display:none;stroke-width:0.0963971"
   x="15.998731"
   y="125.97289"
   id="text2285"
   inkscape:label="Support The Project!"><tspan
     sodipodi:role="line"
     id="tspan2283"
     style="font-style:normal;font-variant:normal;font-weight:normal;font-stretch:normal;font-size:3.88056px;font-family:Impact;-inkscape-font-specification:Impact;stroke-width:0.0963971"
     x="15.998731"
     y="125.97289">The Cessna 172 Project -- Support the Project Here: CaptainBobSim.com/project-support</tspan></text><path
   d="m 84.76036,25.171247 h -6 -3 -58.5 -2.999999 -6.0000021 v 6.00001 H 84.76036 Z"
   style="fill:#000000;fill-opacity:1;stroke:#000000;stroke-width:0.1;stroke-dasharray:none;stroke-opacity:1"
   id="path5-4"
   sodipodi:nodetypes="ccccccccc" /><g
   inkscape:groupmode="layer"
   id="layer7"
   inkscape:label="Text"
   style="display:inline"
   transform="translate(0,-0.53918028)"><text
     xml:space="preserve"
     style="font-style:normal;font-variant:normal;font-weight:normal;font-stretch:normal;font-size:3.88056px;line-height:1.25;font-family:Calibri;-inkscape-font-specification:Calibri;letter-spacing:-0.0396875px;fill:#ffffff;fill-opacity:1;stroke-width:0.264583"
     x="22.860481"
     y="31.015011"
     id="text845-4"><tspan
       sodipodi:role="line"
       style="font-style:normal;font-variant:normal;font-weight:bold;font-stretch:normal;font-size:3.88056px;font-family:Calibri;-inkscape-font-specification:Calibri;text-align:center;text-anchor:middle;fill:#ffffff;fill-opacity:1;stroke-width:0.264583"
       x="22.840637"
       y="31.015011"
       id="tspan1-2">NM</tspan></text><text
     xml:space="preserve"
     style="font-style:normal;font-variant:normal;font-weight:normal;font-stretch:normal;font-size:3.88056px;line-height:1.25;font-family:Calibri;-inkscape-font-specification:Calibri;letter-spacing:-0.0396875px;display:inline;fill:#ffffff;fill-opacity:1;stroke-width:0.264583"
     x="34.860485"
     y="31.019653"
     id="text845-4-1"><tspan
       sodipodi:role="line"
       style="font-style:normal;font-variant:normal;font-weight:bold;font-stretch:normal;font-size:3.88056px;font-family:Calibri;-inkscape-font-specification:Calibri;text-align:center;text-anchor:middle;fill:#ffffff;fill-opacity:1;stroke-width:0.264583"
       x="34.840641"
       y="31.019653"
       id="tspan1-2-9">RMT</tspan></text><text
     xml:space="preserve"
     style="font-style:normal;font-variant:normal;font-weight:normal;font-stretch:normal;font-size:3.88056px;line-height:1.25;font-family:Calibri;-inkscape-font-specification:Calibri;letter-spacing:-0.0396875px;display:inline;fill:#ffffff;fill-opacity:1;stroke-width:0.264583"
     x="48.360485"
     y="31.019653"
     id="text845-4-1-8"><tspan
       sodipodi:role="line"
       style="font-style:normal;font-variant:normal;font-weight:bold;font-stretch:normal;font-size:3.88056px;font-family:Calibri;-inkscape-font-specification:Calibri;text-align:center;text-anchor:middle;fill:#ffffff;fill-opacity:1;stroke-width:0.264583"
       x="48.340641"
       y="31.019653"
       id="tspan1-2-9-3">KT</tspan></text><text
     xml:space="preserve"
     style="font-style:normal;font-variant:normal;font-weight:normal;font-stretch:normal;font-size:3.88056px;line-height:1.25;font-family:Calibri;-inkscape-font-specification:Calibri;letter-spacing:-0.0396875px;display:inline;fill:#ffffff;fill-opacity:1;stroke-width:0.264583"
     x="56.360485"
     y="31.016903"
     id="text845-4-1-3"><tspan
       sodipodi:role="line"
       style="font-style:normal;font-variant:normal;font-weight:bold;font-stretch:normal;font-size:3.88056px;font-family:Calibri;-inkscape-font-specification:Calibri;text-align:center;text-anchor:middle;fill:#ffffff;fill-opacity:1;stroke-width:0.264583"
       x="56.340641"
       y="31.016903"
       id="tspan1-2-9-32">MHZ</tspan></text><text
     xml:space="preserve"
     style="font-style:normal;font-variant:normal;font-weight:normal;font-stretch:normal;font-size:3.88056px;line-height:1.25;font-family:Calibri;-inkscape-font-specification:Calibri;letter-spacing:-0.0396875px;display:inline;fill:#ffffff;fill-opacity:1;stroke-width:0.264583"
     x="64.860489"
     y="31.016903"
     id="text845-4-1-5"><tspan
       sodipodi:role="line"
       style="font-style:normal;font-variant:normal;font-weight:bold;font-stretch:normal;font-size:3.88056px;font-family:Calibri;-inkscape-font-specification:Calibri;text-align:center;text-anchor:middle;fill:#ffffff;fill-opacity:1;stroke-width:0.264583"
       x="64.840645"
       y="31.016903"
       id="tspan1-2-9-0">MIN</tspan></text><text
     xml:space="preserve"
     style="font-size:4.23333px;font-family:AmarilloUSAF;-inkscape-font-specification:AmarilloUSAF;text-align:start;letter-spacing:0px;writing-mode:lr-tb;direction:ltr;text-anchor:start;fill:#ffffff;fill-opacity:1;stroke:#000000;stroke-width:0.895001"
     x="10.680756"
     y="43.275505"
     id="text1"><tspan
       sodipodi:role="line"
       id="tspan1"
       style="font-style:normal;font-variant:normal;font-weight:normal;font-stretch:normal;font-size:4.23333px;font-family:Arial;-inkscape-font-specification:Arial;letter-spacing:0px;fill:#000000;fill-opacity:1;stroke:none;stroke-width:0.895"
       x="10.680756"
       y="43.275505">Attach over &quot;Lil Bezel&quot; Holes then cover &quot;Lil Bezel&quot; with window tint.</tspan></text></g><g
   inkscape:groupmode="layer"
   id="layer9"
   inkscape:label="Blackout Layers" /><g
   inkscape:groupmode="layer"
   id="layer11"
   inkscape:label="Previous Test (Bezel)"
   style="display:none"><text
     xml:space="preserve"
     style="font-style:normal;font-variant:normal;font-weight:normal;font-stretch:normal;font-size:3.88056px;line-height:1.25;font-family:Calibri;-inkscape-font-specification:Calibri;letter-spacing:-0.0396875px;display:inline;fill:#000000;fill-opacity:1;stroke-width:0.264583"
     x="62.280888"
     y="110.01048"
     id="text845-4-3"><tspan
       sodipodi:role="line"
       style="font-style:normal;font-variant:normal;font-weight:bold;font-stretch:normal;font-size:3.88056px;font-family:Calibri;-inkscape-font-specification:Calibri;text-align:center;text-anchor:middle;fill:#000000;fill-opacity:1;stroke-width:0.264583"
       x="62.261044"
       y="110.01048"
       id="tspan1-2-92">NM</tspan></text><text
     xml:space="preserve"
     style="font-style:normal;font-variant:normal;font-weight:normal;font-stretch:normal;font-size:3.88056px;line-height:1.25;font-family:Calibri;-inkscape-font-specification:Calibri;letter-spacing:-0.0396875px;display:inline;fill:#000000;fill-opacity:1;stroke-width:0.264583"
     x="74.280891"
     y="110.01322"
     id="text845-4-1-81"><tspan
       sodipodi:role="line"
       style="font-style:normal;font-variant:normal;font-weight:bold;font-stretch:normal;font-size:3.88056px;font-family:Calibri;-inkscape-font-specification:Calibri;text-align:center;text-anchor:middle;fill:#000000;fill-opacity:1;stroke-width:0.264583"
       x="74.261047"
       y="110.01322"
       id="tspan1-2-9-33">RMT</tspan></text><text
     xml:space="preserve"
     style="font-style:normal;font-variant:normal;font-weight:normal;font-stretch:normal;font-size:3.88056px;line-height:1.25;font-family:Calibri;-inkscape-font-specification:Calibri;letter-spacing:-0.0396875px;display:inline;fill:#000000;fill-opacity:1;stroke-width:0.264583"
     x="87.780891"
     y="110.01322"
     id="text845-4-1-8-4"><tspan
       sodipodi:role="line"
       style="font-style:normal;font-variant:normal;font-weight:bold;font-stretch:normal;font-size:3.88056px;font-family:Calibri;-inkscape-font-specification:Calibri;text-align:center;text-anchor:middle;fill:#000000;fill-opacity:1;stroke-width:0.264583"
       x="87.761047"
       y="110.01322"
       id="tspan1-2-9-3-5">KT</tspan></text><text
     xml:space="preserve"
     style="font-style:normal;font-variant:normal;font-weight:normal;font-stretch:normal;font-size:3.88056px;line-height:1.25;font-family:Calibri;-inkscape-font-specification:Calibri;letter-spacing:-0.0396875px;display:inline;fill:#000000;fill-opacity:1;stroke-width:0.264583"
     x="95.780891"
     y="110.01048"
     id="text845-4-1-3-6"><tspan
       sodipodi:role="line"
       style="font-style:normal;font-variant:normal;font-weight:bold;font-stretch:normal;font-size:3.88056px;font-family:Calibri;-inkscape-font-specification:Calibri;text-align:center;text-anchor:middle;fill:#000000;fill-opacity:1;stroke-width:0.264583"
       x="95.761047"
       y="110.01048"
       id="tspan1-2-9-32-1">MHZ</tspan></text><text
     xml:space="preserve"
     style="font-style:normal;font-variant:normal;font-weight:normal;font-stretch:normal;font-size:3.88056px;line-height:1.25;font-family:Calibri;-inkscape-font-specification:Calibri;letter-spacing:-0.0396875px;display:inline;fill:#000000;fill-opacity:1;stroke-width:0.264583"
     x="104.28089"
     y="110.01048"
     id="text845-4-1-5-76"><tspan
       sodipodi:role="line"
       style="font-style:normal;font-variant:normal;font-weight:bold;font-stretch:normal;font-size:3.88056px;font-family:Calibri;-inkscape-font-specification:Calibri;text-align:center;text-anchor:middle;fill:#000000;fill-opacity:1;stroke-width:0.264583"
       x="104.26105"
       y="110.01048"
       id="tspan1-2-9-0-0">MIN</tspan></text><rect
     style="display:inline;fill:none;fill-rule:evenodd;stroke:#ff0000;stroke-width:0.1;stroke-linecap:round;stroke-dasharray:none;stroke-opacity:1;paint-order:markers stroke fill"
     id="rect1-2"
     width="72.985405"
     height="14.250402"
     x="49.380993"
     y="96.301529" /><rect
     style="opacity:0.986143;fill:#000000;fill-opacity:1;stroke:none;stroke-width:0.317074;stroke-opacity:1"
     id="rect4-3-9"
     width="73.085403"
     height="10.063877"
     x="49.330997"
     y="96.401543"
     rx="0.12509835" /></g><g
   inkscape:groupmode="layer"
   id="layer10"
   inkscape:label="(Archive) Mirror test"
   style="display:none"><text
     xml:space="preserve"
     style="font-style:normal;font-variant:normal;font-weight:normal;font-stretch:normal;font-size:3.88056px;line-height:1.25;font-family:Calibri;-inkscape-font-specification:Calibri;letter-spacing:-0.0396875px;display:inline;fill:#000000;fill-opacity:1;stroke-width:0.264583"
     x="-109.46652"
     y="83.558037"
     id="text845-4-2"
     transform="scale(-1,1)"><tspan
       sodipodi:role="line"
       style="font-style:normal;font-variant:normal;font-weight:bold;font-stretch:normal;font-size:3.88056px;font-family:Calibri;-inkscape-font-specification:Calibri;text-align:center;text-anchor:middle;fill:#000000;fill-opacity:1;stroke-width:0.264583"
       x="-109.48637"
       y="83.558037"
       id="tspan1-2-8">NM</tspan></text><text
     xml:space="preserve"
     style="font-style:normal;font-variant:normal;font-weight:normal;font-stretch:normal;font-size:3.88056px;line-height:1.25;font-family:Calibri;-inkscape-font-specification:Calibri;letter-spacing:-0.0396875px;display:inline;fill:#000000;fill-opacity:1;stroke-width:0.264583"
     x="-97.466507"
     y="83.560791"
     id="text845-4-1-7"
     transform="scale(-1,1)"><tspan
       sodipodi:role="line"
       style="font-style:normal;font-variant:normal;font-weight:bold;font-stretch:normal;font-size:3.88056px;font-family:Calibri;-inkscape-font-specification:Calibri;text-align:center;text-anchor:middle;fill:#000000;fill-opacity:1;stroke-width:0.264583"
       x="-97.486351"
       y="83.560791"
       id="tspan1-2-9-9">RMT</tspan></text><text
     xml:space="preserve"
     style="font-style:normal;font-variant:normal;font-weight:normal;font-stretch:normal;font-size:3.88056px;line-height:1.25;font-family:Calibri;-inkscape-font-specification:Calibri;letter-spacing:-0.0396875px;display:inline;fill:#000000;fill-opacity:1;stroke-width:0.264583"
     x="-83.966507"
     y="83.560791"
     id="text845-4-1-8-3"
     transform="scale(-1,1)"><tspan
       sodipodi:role="line"
       style="font-style:normal;font-variant:normal;font-weight:bold;font-stretch:normal;font-size:3.88056px;font-family:Calibri;-inkscape-font-specification:Calibri;text-align:center;text-anchor:middle;fill:#000000;fill-opacity:1;stroke-width:0.264583"
       x="-83.986351"
       y="83.560791"
       id="tspan1-2-9-3-3">KT</tspan></text><text
     xml:space="preserve"
     style="font-style:normal;font-variant:normal;font-weight:normal;font-stretch:normal;font-size:3.88056px;line-height:1.25;font-family:Calibri;-inkscape-font-specification:Calibri;letter-spacing:-0.0396875px;display:inline;fill:#000000;fill-opacity:1;stroke-width:0.264583"
     x="-75.966515"
     y="83.558037"
     id="text845-4-1-3-7"
     transform="scale(-1,1)"><tspan
       sodipodi:role="line"
       style="font-style:normal;font-variant:normal;font-weight:bold;font-stretch:normal;font-size:3.88056px;font-family:Calibri;-inkscape-font-specification:Calibri;text-align:center;text-anchor:middle;fill:#000000;fill-opacity:1;stroke-width:0.264583"
       x="-75.986359"
       y="83.558037"
       id="tspan1-2-9-32-2">MHZ</tspan></text><text
     xml:space="preserve"
     style="font-style:normal;font-variant:normal;font-weight:normal;font-stretch:normal;font-size:3.88056px;line-height:1.25;font-family:Calibri;-inkscape-font-specification:Calibri;letter-spacing:-0.0396875px;display:inline;fill:#000000;fill-opacity:1;stroke-width:0.264583"
     x="-67.466507"
     y="83.558037"
     id="text845-4-1-5-7"
     transform="scale(-1,1)"><tspan
       sodipodi:role="line"
       style="font-style:normal;font-variant:normal;font-weight:bold;font-stretch:normal;font-size:3.88056px;font-family:Calibri;-inkscape-font-specification:Calibri;text-align:center;text-anchor:middle;fill:#000000;fill-opacity:1;stroke-width:0.264583"
       x="-67.486351"
       y="83.558037"
       id="tspan1-2-9-0-3">MIN</tspan></text><rect
     style="display:inline;fill:none;fill-rule:evenodd;stroke:#ff0000;stroke-width:0.1;stroke-linecap:round;stroke-dasharray:none;stroke-opacity:1;paint-order:markers stroke fill"
     id="rect1-7"
     width="72.985405"
     height="14.250402"
     x="-122.36641"
     y="69.849098"
     transform="scale(-1,1)" /><rect
     style="display:inline;opacity:0.986143;fill:#000000;fill-opacity:1;stroke:none;stroke-width:0.317074;stroke-opacity:1"
     id="rect4-3-2"
     width="73.085403"
     height="10.063877"
     x="-122.4164"
     y="69.949112"
     rx="0.12509835"
     transform="scale(-1,1)" /></g></svg>
