0
SECTION
2
HEADER
9
$INSUNITS
70
1
9
$ACADVER
1
AC1014
9
$HANDSEED
5
FFFF
0
ENDSEC
0
SECTION
2
TABLES
0
TABLE
2
VPORT
5
8
100
AcDbSymbolTable
0
ENDTAB
0
TABLE
2
LTYPE
5
5
100
AcDbSymbolTable
0
LTYPE
5
14
100
AcDbSymbolTableRecord
100
AcDbLinetypeTableRecord
2
BYBLOCK
70
0
0
LTYPE
5
15
100
AcDbSymbolTableRecord
100
AcDbLinetypeTableRecord
2
BYLAYER
70
0
0
ENDTAB
0
TABLE
2
LAYER
5
2
100
AcDbSymbolTable
70
2
0
LAYER
5
50
100
AcDbSymbolTableRecord
100
AcDbLayerTableRecord
2
0
70
0
6
CONTINUOUS
0
ENDTAB
0
TABLE
2
STYLE
5
3
100
AcDbSymbolTable
70
1
0
STYLE
5
11
100
AcDbSymbolTableRecord
100
AcDbTextStyleTableRecord
2
STANDARD
70
0
0
ENDTAB
0
TABLE
2
VIEW
5
6
100
AcDbSymbolTable
70
0
0
ENDTAB
0
TABLE
2
UCS
5
7
100
AcDbSymbolTable
70
0
0
ENDTAB
0
TABLE
2
APPID
5
9
100
AcDbSymbolTable
70
2
0
APPID
5
12
100
AcDbSymbolTableRecord
100
AcDbRegAppTableRecord
2
ACAD
70
0
0
ENDTAB
0
TABLE
2
DIMSTYLE
5
A
100
AcDbSymbolTable
70
1
0
ENDTAB
0
TABLE
2
BLOCK_RECORD
5
1
100
AcDbSymbolTable
70
1
0
BLOCK_RECORD
5
1F
100
AcDbSymbolTableRecord
100
AcDbBlockTableRecord
2
*MODEL_SPACE
0
BLOCK_RECORD
5
1B
100
AcDbSymbolTableRecord
100
AcDbBlockTableRecord
2
*PAPER_SPACE
0
ENDTAB
0
ENDSEC
0
SECTION
2
BLOCKS
0
BLOCK
5
20
100
AcDbEntity
100
AcDbBlockBegin
2
*MODEL_SPACE
0
ENDBLK
5
21
100
AcDbEntity
100
AcDbBlockEnd
0
BLOCK
5
1C
100
AcDbEntity
100
AcDbBlockBegin
2
*PAPER_SPACE
0
ENDBLK
5
1D
100
AcDbEntity
100
AcDbBlockEnd
0
ENDSEC
0
SECTION
2
ENTITIES
0
LINE
5
100
100
AcDbEntity
8
0
100
AcDbLine
10
29.101061245446058
20
0
30
-6.9935308637805131e-16
11
29.101061245446058
21
24
31
-6.9935308637805131e-16
0
LINE
5
101
100
AcDbEntity
8
0
100
AcDbLine
10
29.101061245446058
20
24
30
-6.9935308637805131e-16
11
1.2391756526438853
21
24.000000000000014
31
-3.4967654318902565e-15
0
SPLINE
5
102
100
AcDbEntity
8
0
100
AcDbSpline
70
0
71
3
72
14
73
10
74
0
42
0.000000001
43
0.0000000001
44
0.0000000001
40
-28.898460474283912
40
-28.898460474283912
40
-28.898460474283912
40
-28.898460474283912
40
-22.643673049935931
40
-22.643673049935931
40
-15.52476180336426
40
-15.52476180336426
40
-4.6697636573215791
40
-4.6697636573215791
40
-0.91994428538625861
40
-0.91994428538625861
40
-0.91994428538625861
40
-0.91994428538625861
10
1.2391756526438811
20
24.000000000000025
30
4.8954716046463587e-15
10
1.1919212537685069
20
22.733077403317878
30
4.8954716046463587e-15
10
1.0883448890150351
20
20.790786778304241
30
0
10
0.60823333919432832
20
16.854392117026467
30
6.9935308637805131e-16
10
0.21772179363919436
20
15.011171871877035
30
2.0980592591341539e-15
10
-1.370226187719634
20
11.104976481463037
30
2.0980592591341539e-15
10
-2.6506485455366842
20
10.008603771455366
30
-1.3987061727561026e-15
10
-4.0338862659297652
20
8.5564721185347423
30
-2.0980592591341539e-15
10
-4.3524846312692036
20
8.1921386883159606
30
-1.7483827159451281e-14
10
-4.6134508077798024
20
7.7830290568078393
30
-1.6085120986695181e-14
0
SPLINE
5
103
100
AcDbEntity
8
0
100
AcDbSpline
70
0
71
3
72
14
73
10
74
0
42
0.000000001
43
0.0000000001
44
0.0000000001
40
-40.939416134467081
40
-40.939416134467081
40
-40.939416134467081
40
-40.939416134467081
40
-32.788509144809403
40
-32.788509144809403
40
-27.590278331026276
40
-27.590278331026276
40
-11.899374745216674
40
-11.899374745216674
40
-3.0907332350238921
40
-3.0907332350238921
40
-3.0907332350238921
40
-3.0907332350238921
10
-4.6134508077798024
20
7.7830290568078393
30
0
10
-4.3651543861592588
20
7.5043390199192013
30
0
10
-4.1064210861542216
20
7.1726679490810161
30
0
10
-3.8209035800409876
20
6.6239049228426179
30
0
10
-3.7853351729571476
20
6.4843588992089947
30
0
10
-3.720927540506032
20
6.098282810714343
30
0
10
-3.7615826491293602
20
5.6032529131044013
30
0
10
-3.5665435148125031
20
2.4506223776190152
30
0
10
-3.4670873475487496
20
1.2025149079713944
30
0
10
-3.3601924606886784
20
2.0980592591341539e-15
30
0
0
LINE
5
104
100
AcDbEntity
8
0
100
AcDbLine
10
-3.3601924606886793
20
1.986193016572234e-15
30
0
11
29.101061245446058
21
0
31
-6.9935308637805131e-16
0
SPLINE
5
105
100
AcDbEntity
8
0
100
AcDbSpline
70
0
71
3
72
29
73
25
74
0
42
0.000000001
43
0.0000000001
44
0.0000000001
40
-40.939416134467081
40
-40.939416134467081
40
-40.939416134467081
40
-40.939416134467081
40
-33.490435484453762
40
-33.490435484453762
40
-33.490435484453762
40
-32.788509144809403
40
-32.788509144809403
40
-32.788509144809403
40
-29.235087755191845
40
-29.235087755191845
40
-29.235087755191845
40
-27.590278331026276
40
-27.590278331026276
40
-27.590278331026276
40
-22.878601620033539
40
-22.878601620033539
40
-22.878601620033539
40
-16.063029830818905
40
-16.063029830818905
40
-16.063029830818905
40
-11.899374745216674
40
-11.899374745216674
40
-11.899374745216674
40
-3.0907332350238921
40
-3.0907332350238921
40
-3.0907332350238921
40
-3.0907332350238921
10
-4.4267888191450426
20
7.9493339033966164
30
0
10
-4.1924229561176647
20
7.6862796451586348
30
0
10
-3.9467555140390242
20
7.3763682632758556
30
0
10
-3.7611115193291256
20
7.0467320369061595
30
0
10
-3.7436180640758292
20
7.0156700217578924
30
0
10
-3.726661915685336
20
6.9844175914908213
30
0
10
-3.7103081286959037
20
6.9529857057162943
30
0
10
-3.627133550416104
20
6.7931246383363364
30
0
10
-3.5789720269726453
20
6.6635634574922049
30
0
10
-3.5507195352580441
20
6.5583421420456549
30
0
10
-3.5376420081276807
20
6.5096372482845997
30
0
10
-3.5288666767295376
20
6.4662952276034114
30
0
10
-3.5227153310697839
20
6.4294224629803871
30
0
10
-3.5047828664834553
20
6.3219306095915302
30
0
10
-3.4985246199430726
20
6.2071002589863369
30
0
10
-3.4930564308813472
20
6.0442524190159057
30
0
10
-3.4851465428747623
20
5.8086884760468296
30
0
10
-3.4798774850038519
20
5.4680721758136732
30
0
10
-3.4561127041183681
20
4.9047150817109522
30
0
10
-3.4415947217902167
20
4.5605583913533296
30
0
10
-3.4201960554716861
20
4.133797399046971
30
0
10
-3.3871455316807824
20
3.5995656876422477
30
0
10
-3.3172217257524519
20
2.469310846740024
30
0
10
-3.2179293537282239
20
1.223076795798552
30
0
10
-3.1111743858566001
20
0.022135907637266101
30
0
0
SPLINE
5
106
100
AcDbEntity
8
0
100
AcDbSpline
70
0
71
3
72
35
73
31
74
0
42
0.000000001
43
0.0000000001
44
0.0000000001
40
-40.939416134467081
40
-40.939416134467081
40
-40.939416134467081
40
-40.939416134467081
40
-35.736048353148149
40
-35.736048353148149
40
-35.736048353148149
40
-32.788509144809403
40
-32.788509144809403
40
-32.788509144809403
40
-30.18939373791784
40
-30.18939373791784
40
-30.18939373791784
40
-27.979592948571714
40
-27.979592948571714
40
-27.979592948571714
40
-27.590278331026276
40
-27.590278331026276
40
-27.590278331026276
40
-24.874839485289918
40
-24.874839485289918
40
-24.874839485289918
40
-20.563813927138121
40
-20.563813927138121
40
-20.563813927138121
40
-15.157390942745096
40
-15.157390942745096
40
-15.157390942745096
40
-11.899374745216674
40
-11.899374745216674
40
-11.899374745216674
40
-3.0907332350238921
40
-3.0907332350238921
40
-3.0907332350238921
40
-3.0907332350238921
10
-3.8294704555138104
20
8.4815094124807029
30
0
10
-3.6491007545469425
20
8.2790609104524737
30
0
10
-3.4594940749442378
20
8.0480955699047758
30
0
10
-3.283062207420592
20
7.7900409224817162
30
0
10
-3.1831192725787734
20
7.643861328199665
30
0
10
-3.0873079925546874
20
7.4888457405017457
30
0
10
-3.0006197908430137
20
7.3222315088279917
30
0
10
-2.9229948556589207
20
7.1730368239798805
30
0
10
-2.86366589184246
20
7.033803102324371
30
0
10
-2.8199458211615438
20
6.9040055753194363
30
0
10
-2.7827744641510823
20
6.7936500763407599
30
0
10
-2.75725566084702
20
6.6894981663155644
30
0
10
-2.7412489140678473
20
6.60413806319462
30
0
10
-2.7384289039879688
20
6.5890996325539994
30
0
10
-2.7358945321419208
20
6.5746945825252494
30
0
10
-2.7336206241281471
20
6.5610641869006212
30
0
10
-2.7170063281361103
20
6.4614737786587684
30
0
10
-2.7086657955107674
20
6.3694014149910876
30
0
10
-2.7029405996301423
20
6.2783772971420779
30
0
10
-2.6938512895152953
20
6.1338675803898708
30
0
10
-2.6907712230287557
20
5.9867317735631209
30
0
10
-2.6853861409567803
20
5.7849058770668718
30
0
10
-2.6786327522110978
20
5.5317976198913215
30
0
10
-2.6691868220705568
20
5.1934787714953456
30
0
10
-2.6464779017904978
20
4.7053422459097245
30
0
10
-2.6327930624217704
20
4.4111816314786756
30
0
10
-2.6142932988384464
20
4.0631072730429061
30
0
10
-2.5886720882181287
20
3.6489636641685324
30
0
10
-2.5193920007602904
20
2.5291139479272493
30
0
10
-2.4206237735025407
20
1.2888748368454572
30
0
10
-2.3143165463939503
20
0.092970812076510895
30
0
0
LINE
5
107
100
AcDbEntity
8
0
100
AcDbLine
10
-3.1111743858565997
20
0.022135907637266309
30
0
11
-3.1092066636048883
21
1.9696624034319336e-15
31
0
0
LINE
5
108
100
AcDbEntity
8
0
100
AcDbLine
10
-2.3143165463939508
20
0.092970812076511367
30
0
11
-2.3060521129367619
21
1.9216937764582823e-15
31
0
0
LINE
5
109
100
AcDbEntity
8
0
100
AcDbLine
10
-3.8294704555138104
20
8.4815094124807029
30
0
11
-3.9590462733972238
21
8.6269464237356992
31
0
0
LINE
5
110
100
AcDbEntity
8
0
100
AcDbLine
10
-4.4267888191450426
20
7.9493339033966164
30
0
11
-4.4691754194508047
21
7.9969089877482151
31
0
0
ENDSEC
0
SECTION
2
OBJECTS
0
DICTIONARY
5
C
100
AcDbDictionary
3
ACAD_GROUP
350
D
3
ACAD_MLINESTYLE
350
17
0
DICTIONARY
5
D
100
AcDbDictionary
0
DICTIONARY
5
1A
330
C
100
AcDbDictionary
0
DICTIONARY
5
17
100
AcDbDictionary
0
ENDSEC
0
EOF
