0
SECTION
2
HEADER
9
$INSUNITS
70
1
9
$ACADVER
1
AC1014
9
$HANDSEED
5
FFFF
0
ENDSEC
0
SECTION
2
TABLES
0
TABLE
2
VPORT
5
8
100
AcDbSymbolTable
0
ENDTAB
0
TABLE
2
LTYPE
5
5
100
AcDbSymbolTable
0
LTYPE
5
14
100
AcDbSymbolTableRecord
100
AcDbLinetypeTableRecord
2
BYBLOCK
70
0
0
LTYPE
5
15
100
AcDbSymbolTableRecord
100
AcDbLinetypeTableRecord
2
BYLAYER
70
0
0
ENDTAB
0
TABLE
2
LAYER
5
2
100
AcDbSymbolTable
70
2
0
LAYER
5
50
100
AcDbSymbolTableRecord
100
AcDbLayerTableRecord
2
0
70
0
6
CONTINUOUS
0
ENDTAB
0
TABLE
2
STYLE
5
3
100
AcDbSymbolTable
70
1
0
STYLE
5
11
100
AcDbSymbolTableRecord
100
AcDbTextStyleTableRecord
2
STANDARD
70
0
0
ENDTAB
0
TABLE
2
VIEW
5
6
100
AcDbSymbolTable
70
0
0
ENDTAB
0
TABLE
2
UCS
5
7
100
AcDbSymbolTable
70
0
0
ENDTAB
0
TABLE
2
APPID
5
9
100
AcDbSymbolTable
70
2
0
APPID
5
12
100
AcDbSymbolTableRecord
100
AcDbRegAppTableRecord
2
ACAD
70
0
0
ENDTAB
0
TABLE
2
DIMSTYLE
5
A
100
AcDbSymbolTable
70
1
0
ENDTAB
0
TABLE
2
BLOCK_RECORD
5
1
100
AcDbSymbolTable
70
1
0
BLOCK_RECORD
5
1F
100
AcDbSymbolTableRecord
100
AcDbBlockTableRecord
2
*MODEL_SPACE
0
BLOCK_RECORD
5
1B
100
AcDbSymbolTableRecord
100
AcDbBlockTableRecord
2
*PAPER_SPACE
0
ENDTAB
0
ENDSEC
0
SECTION
2
BLOCKS
0
BLOCK
5
20
100
AcDbEntity
100
AcDbBlockBegin
2
*MODEL_SPACE
0
ENDBLK
5
21
100
AcDbEntity
100
AcDbBlockEnd
0
BLOCK
5
1C
100
AcDbEntity
100
AcDbBlockBegin
2
*PAPER_SPACE
0
ENDBLK
5
1D
100
AcDbEntity
100
AcDbBlockEnd
0
ENDSEC
0
SECTION
2
ENTITIES
0
SPLINE
5
100
100
AcDbEntity
8
0
100
AcDbSpline
70
0
71
3
72
10
73
6
74
0
42
0.000000001
43
0.0000000001
44
0.0000000001
40
-51.940101275816396
40
-51.940101275816396
40
-51.940101275816396
40
-51.940101275816396
40
-25.720911304780639
40
-25.720911304780639
40
-12.082740777001581
40
-12.082740777001581
40
-12.082740777001581
40
-12.082740777001581
10
18.613144746921179
20
8.3999999999999968
30
0
10
18.555890989057193
20
11.812930931048351
30
0
10
18.54807001883432
20
15.274064353704368
30
0
10
18.569275334832259
20
20.457301506030916
30
0
10
18.582431863600625
20
22.226243385450445
30
0
10
18.598107183707604
20
24
30
0
0
SPLINE
5
101
100
AcDbEntity
8
0
100
AcDbSpline
70
0
71
3
72
10
73
6
74
0
42
0.000000001
43
0.0000000001
44
0.0000000001
40
-25.998442314778853
40
-25.998442314778853
40
-25.998442314778853
40
-25.998442314778853
40
-19.952688382399099
40
-19.952688382399099
40
0
40
0
40
0
40
0
10
17.016448059310896
20
-3.3000723763464297e-15
30
0
10
17.100714262404651
20
0.43746887702977932
30
0
10
17.187139750707523
20
0.88543526212456702
30
0
10
17.710288601963967
20
3.5941309815855291
30
0
10
18.142967555377496
20
5.8240958650420804
30
0
10
18.613144746921179
20
8.3999999999999986
30
0
0
SPLINE
5
102
100
AcDbEntity
8
0
100
AcDbSpline
70
0
71
3
72
10
73
6
74
0
42
0.000000001
43
0.0000000001
44
0.0000000001
40
-39.53969365774325
40
-39.53969365774325
40
-39.53969365774325
40
-39.53969365774325
40
-26.006583965814691
40
-26.006583965814691
40
0
40
0
40
0
40
0
10
-18.598107183710709
20
23.999999999999996
30
0
10
-18.582427612510365
20
22.225762348704489
30
0
10
-18.569268206365592
20
20.456344106390613
30
0
10
-18.548072245730317
20
15.27309889327239
30
0
10
-18.555898932839817
20
11.812457397389712
30
0
10
-18.613144746921176
20
8.3999999999999968
30
0
0
SPLINE
5
103
100
AcDbEntity
8
0
100
AcDbSpline
70
0
71
3
72
10
73
6
74
0
42
0.000000001
43
0.0000000001
44
0.0000000001
40
-47.618744118787944
40
-47.618744118787944
40
-47.618744118787944
40
-47.618744118787944
40
-31.746376475203192
40
-31.746376475203192
40
-21.389192024924519
40
-21.389192024924519
40
-21.389192024924519
40
-21.389192024924519
10
-18.613144746921176
20
8.3999999999999986
30
0
10
-18.312301753526459
20
6.7518070961411789
30
0
10
-18.040167520495597
20
5.3129178390328358
30
0
10
-17.502174207715495
20
2.5141183017622741
30
0
10
-17.335635000935799
20
1.6570623545912935
30
0
10
-17.016448059320535
20
-2.3603166665259231e-15
30
0
0
SPLINE
5
104
100
AcDbEntity
8
0
100
AcDbSpline
70
0
71
3
72
14
73
10
74
0
42
0.000000001
43
0.0000000001
44
0.0000000001
40
-25.998442314778853
40
-25.998442314778853
40
-25.998442314778853
40
-25.998442314778853
40
-19.952688382399099
40
-19.952688382399099
40
-19.952688382399099
40
0
40
0
40
0
40
0.50281364657871686
40
0.50281364657871686
40
0.50281364657871686
40
0.50281364657871686
10
18.980346330128672
20
-0.37829034071590717
30
0
10
19.064536251295294
20
0.058782517889230015
30
0
10
19.15088618696117
20
0.50635747280048038
30
0
10
19.272504644492223
20
1.1360585502865856
30
0
10
19.67376551569609
20
3.2136576917292423
30
0
10
20.108153995222903
20
5.4523334499315377
30
0
10
20.580637962090538
20
8.0408754418554089
30
0
10
20.5924865663331
20
8.1057889876650009
30
0
10
20.604335170575663
20
8.1707025334745946
30
0
10
20.616183774818225
20
8.2356160792841919
30
0
0
SPLINE
5
105
100
AcDbEntity
8
0
100
AcDbSpline
70
0
71
3
72
14
73
10
74
0
42
0.000000001
43
0.0000000001
44
0.0000000001
40
-52.446955131958639
40
-52.446955131958639
40
-52.446955131958639
40
-52.446955131958639
40
-51.940101275816396
40
-51.940101275816396
40
-51.940101275816396
40
-25.720911304780639
40
-25.720911304780639
40
-25.720911304780639
40
-12.082740777001581
40
-12.082740777001581
40
-12.082740777001581
40
-12.082740777001581
10
20.616183774818211
20
8.2356160792841315
30
0
10
20.61507697907113
20
8.3015928392473288
30
0
10
20.613970183324042
20
8.3675695992105439
30
0
10
20.612863387576958
20
8.4335463591737554
30
0
10
20.555938758792923
20
11.826857707871682
30
0
10
20.548088446274786
20
15.274477475344508
30
0
10
20.562002680264854
20
18.675547969672412
30
0
10
20.569240391790299
20
20.444669225877568
30
0
10
20.582370217154676
20
22.210430535573163
30
0
10
20.598029089406396
20
23.98232597651581
30
0
0
LINE
5
106
100
AcDbEntity
8
0
100
AcDbLine
10
18.598107183707604
20
24
30
0
11
20.900847605200834
21
24
31
0
0
LINE
5
107
100
AcDbEntity
8
0
100
AcDbLine
10
20.598029089406396
20
23.982325976515813
30
0
11
20.598185281058292
21
24
31
0
0
LINE
5
108
100
AcDbEntity
8
0
100
AcDbLine
10
18.598107183707604
20
24
30
0
11
-2.8798870387698114
21
24
31
0
0
LINE
5
109
100
AcDbEntity
8
0
100
AcDbLine
10
0
20
0
30
0
11
0
21
30.825016581597772
31
0
0
LINE
5
110
100
AcDbEntity
8
0
100
AcDbLine
10
0
20
0
30
0
11
21.770686694898792
21
-3.3000723763464297e-15
31
0
0
LINE
5
111
100
AcDbEntity
8
0
100
AcDbLine
10
-20.598029089406396
20
23.982325976515813
30
0
11
-20.598185281058292
21
24
31
0
0
SPLINE
5
112
100
AcDbEntity
8
0
100
AcDbSpline
70
0
71
3
72
10
73
6
74
0
42
0.000000001
43
0.0000000001
44
0.0000000001
40
-25.998442314778853
40
-25.998442314778853
40
-25.998442314778853
40
-25.998442314778853
40
-19.952688382399099
40
-19.952688382399099
40
0
40
0
40
0
40
0
10
-17.016448059310896
20
-3.3000723763464297e-15
30
0
10
-17.100714262404651
20
0.43746887702977932
30
0
10
-17.187139750707523
20
0.88543526212456702
30
0
10
-17.710288601963967
20
3.5941309815855291
30
0
10
-18.142967555377496
20
5.8240958650420804
30
0
10
-18.613144746921179
20
8.3999999999999986
30
0
0
SPLINE
5
113
100
AcDbEntity
8
0
100
AcDbSpline
70
0
71
3
72
14
73
10
74
0
42
0.000000001
43
0.0000000001
44
0.0000000001
40
-52.446955131958639
40
-52.446955131958639
40
-52.446955131958639
40
-52.446955131958639
40
-51.940101275816396
40
-51.940101275816396
40
-51.940101275816396
40
-25.720911304780639
40
-25.720911304780639
40
-25.720911304780639
40
-12.082740777001581
40
-12.082740777001581
40
-12.082740777001581
40
-12.082740777001581
10
-20.616183774818211
20
8.2356160792841315
30
0
10
-20.61507697907113
20
8.3015928392473288
30
0
10
-20.613970183324042
20
8.3675695992105439
30
0
10
-20.612863387576958
20
8.4335463591737554
30
0
10
-20.555938758792923
20
11.826857707871682
30
0
10
-20.548088446274786
20
15.274477475344508
30
0
10
-20.562002680264854
20
18.675547969672412
30
0
10
-20.569240391790299
20
20.444669225877568
30
0
10
-20.582370217154676
20
22.210430535573163
30
0
10
-20.598029089406396
20
23.98232597651581
30
0
0
LINE
5
114
100
AcDbEntity
8
0
100
AcDbLine
10
-18.598107183707604
20
24
30
0
11
2.8798870387698114
21
24
31
0
0
LINE
5
115
100
AcDbEntity
8
0
100
AcDbLine
10
0
20
0
30
0
11
-21.770686694898792
21
-3.3000723763464297e-15
31
0
0
LINE
5
116
100
AcDbEntity
8
0
100
AcDbLine
10
-18.598107183707604
20
24
30
0
11
-20.900847605200834
21
24
31
0
0
SPLINE
5
117
100
AcDbEntity
8
0
100
AcDbSpline
70
0
71
3
72
11
73
7
74
0
42
0.000000001
43
0.0000000001
44
0.0000000001
40
-25.998442314778853
40
-25.998442314778853
40
-25.998442314778853
40
-25.998442314778853
40
-19.952688382399099
40
-19.952688382399099
40
-19.952688382399099
40
0
40
0
40
0
40
0
10
-18.980346330128672
20
-0.37829034071590717
30
0
10
-19.064536251295294
20
0.058782517889230015
30
0
10
-19.15088618696117
20
0.50635747280048038
30
0
10
-19.272504644492223
20
1.1360585502865856
30
0
10
-19.67376551569609
20
3.2136576917292423
30
0
10
-20.108153995222903
20
5.4523334499315377
30
0
10
-20.580637962090538
20
8.0408754418554089
30
0
0
LINE
5
118
100
AcDbEntity
8
0
100
AcDbLine
10
-20.616183774818225
20
8.2356160792841919
30
0
11
-20.580637962090538
21
8.0408754418554089
31
0
0
ENDSEC
0
SECTION
2
OBJECTS
0
DICTIONARY
5
C
100
AcDbDictionary
3
ACAD_GROUP
350
D
3
ACAD_MLINESTYLE
350
17
0
DICTIONARY
5
D
100
AcDbDictionary
0
DICTIONARY
5
1A
330
C
100
AcDbDictionary
0
DICTIONARY
5
17
100
AcDbDictionary
0
ENDSEC
0
EOF
