999
"DXF R12 Output" (www.mydxf.blogspot.com)
 0 
SECTION
 2 
HEADER
 9 
$ACADVER
 1 
AC1009
 9 
$EXTMIN
 10 
 0 
 20 
 0 
 9 
$EXTMAX
 10 
 8.5 
 20 
 11 
 0 
ENDSEC
 0 
SECTION
 2 
ENTITIES
0
LINE
8
Layer 1
10
0.793749
20
297.794000
11
-0.793749
21
296.206000
0
LINE
8
Layer 1
10
0.000000
20
298.323000
11
0.000000
21
295.677000
0
LINE
8
Layer 1
10
2.116660
20
295.942000
11
1.058330
21
294.883670
0
LINE
8
Layer 1
10
1.587500
20
296.471000
11
0.529170
21
295.412670
0
LINE
8
Layer 1
10
1.058330
20
297.000000
11
0.000000
21
295.941670
0
LINE
8
0
10
-20.320000
20
-25.399600
11
-20.170296
21
-24.658088
0
LINE
8
0
10
-20.170296
20
-24.658088
11
-19.762038
21
-24.052562
0
LINE
8
0
10
-19.762038
20
-24.052562
11
-19.156512
21
-23.644304
0
LINE
8
0
10
-19.156512
20
-23.644304
11
-18.415000
21
-23.494600
0
LINE
8
0
10
-18.415000
20
-23.494600
11
-17.673488
21
-23.644304
0
LINE
8
0
10
-17.673488
20
-23.644304
11
-17.067962
21
-24.052562
0
LINE
8
0
10
-17.067962
20
-24.052562
11
-16.659704
21
-24.658088
0
LINE
8
0
10
-16.659704
20
-24.658088
11
-16.510000
21
-25.399600
0
LINE
8
0
10
-16.510000
20
-25.399600
11
-16.659704
21
-26.141112
0
LINE
8
0
10
-16.659704
20
-26.141112
11
-17.067962
21
-26.746638
0
LINE
8
0
10
-17.067962
20
-26.746638
11
-17.673488
21
-27.154896
0
LINE
8
0
10
-17.673488
20
-27.154896
11
-18.415000
21
-27.304600
0
LINE
8
0
10
-18.415000
20
-27.304600
11
-19.156512
21
-27.154896
0
LINE
8
0
10
-19.156512
20
-27.154896
11
-19.762038
21
-26.746638
0
LINE
8
0
10
-19.762038
20
-26.746638
11
-20.170296
21
-26.141112
0
LINE
8
0
10
-20.170296
20
-26.141112
11
-20.320000
21
-25.399600
0
LINE
8
0
10
-20.320000
20
-25.399600
11
-20.320000
21
-25.399600
0
LINE
8
0
10
-20.320000
20
25.400300
11
-20.170296
21
26.141812
0
LINE
8
0
10
-20.170296
20
26.141812
11
-19.762038
21
26.747338
0
LINE
8
0
10
-19.762038
20
26.747338
11
-19.156512
21
27.155596
0
LINE
8
0
10
-19.156512
20
27.155596
11
-18.415000
21
27.305300
0
LINE
8
0
10
-18.415000
20
27.305300
11
-17.673488
21
27.155596
0
LINE
8
0
10
-17.673488
20
27.155596
11
-17.067962
21
26.747338
0
LINE
8
0
10
-17.067962
20
26.747338
11
-16.659704
21
26.141812
0
LINE
8
0
10
-16.659704
20
26.141812
11
-16.510000
21
25.400300
0
LINE
8
0
10
-16.510000
20
25.400300
11
-16.659704
21
24.658788
0
LINE
8
0
10
-16.659704
20
24.658788
11
-17.067962
21
24.053262
0
LINE
8
0
10
-17.067962
20
24.053262
11
-17.673488
21
23.645004
0
LINE
8
0
10
-17.673488
20
23.645004
11
-18.415000
21
23.495300
0
LINE
8
0
10
-18.415000
20
23.495300
11
-19.156512
21
23.645004
0
LINE
8
0
10
-19.156512
20
23.645004
11
-19.762038
21
24.053262
0
LINE
8
0
10
-19.762038
20
24.053262
11
-20.170296
21
24.658788
0
LINE
8
0
10
-20.170296
20
24.658788
11
-20.320000
21
25.400300
0
LINE
8
0
10
-20.320000
20
25.400300
11
-20.320000
21
25.400300
0
LINE
8
0
10
16.510000
20
-25.399600
11
16.659704
21
-24.658088
0
LINE
8
0
10
16.659704
20
-24.658088
11
17.067962
21
-24.052562
0
LINE
8
0
10
17.067962
20
-24.052562
11
17.673488
21
-23.644304
0
LINE
8
0
10
17.673488
20
-23.644304
11
18.415000
21
-23.494600
0
LINE
8
0
10
18.415000
20
-23.494600
11
19.156512
21
-23.644304
0
LINE
8
0
10
19.156512
20
-23.644304
11
19.762038
21
-24.052562
0
LINE
8
0
10
19.762038
20
-24.052562
11
20.170296
21
-24.658088
0
LINE
8
0
10
20.170296
20
-24.658088
11
20.320000
21
-25.399600
0
LINE
8
0
10
20.320000
20
-25.399600
11
20.064778
21
-26.352100
0
LINE
8
0
10
20.064778
20
-26.352100
11
19.367500
21
-27.049378
0
LINE
8
0
10
19.367500
20
-27.049378
11
18.415000
21
-27.304600
0
LINE
8
0
10
18.415000
20
-27.304600
11
17.462500
21
-27.049378
0
LINE
8
0
10
17.462500
20
-27.049378
11
16.765222
21
-26.352100
0
LINE
8
0
10
16.765222
20
-26.352100
11
16.510000
21
-25.399600
0
LINE
8
0
10
16.510000
20
-25.399600
11
16.510000
21
-25.399600
0
LINE
8
0
10
16.510000
20
25.400300
11
16.659704
21
26.141812
0
LINE
8
0
10
16.659704
20
26.141812
11
17.067962
21
26.747338
0
LINE
8
0
10
17.067962
20
26.747338
11
17.673488
21
27.155596
0
LINE
8
0
10
17.673488
20
27.155596
11
18.415000
21
27.305300
0
LINE
8
0
10
18.415000
20
27.305300
11
19.156512
21
27.155596
0
LINE
8
0
10
19.156512
20
27.155596
11
19.762038
21
26.747338
0
LINE
8
0
10
19.762038
20
26.747338
11
20.170296
21
26.141812
0
LINE
8
0
10
20.170296
20
26.141812
11
20.320000
21
25.400300
0
LINE
8
0
10
20.320000
20
25.400300
11
20.064778
21
24.447800
0
LINE
8
0
10
20.064778
20
24.447800
11
19.367500
21
23.750522
0
LINE
8
0
10
19.367500
20
23.750522
11
18.415000
21
23.495300
0
LINE
8
0
10
18.415000
20
23.495300
11
17.462500
21
23.750522
0
LINE
8
0
10
17.462500
20
23.750522
11
16.765222
21
24.447800
0
LINE
8
0
10
16.765222
20
24.447800
11
16.510000
21
25.400300
0
LINE
8
0
10
16.510000
20
25.400300
11
16.510000
21
25.400300
0
LINE
8
0
10
22.225000
20
31.750300
11
23.197016
21
31.556954
0
LINE
8
0
10
23.197016
20
31.556954
11
24.021051
21
31.006351
0
LINE
8
0
10
24.021051
20
31.006351
11
24.571654
21
30.182316
0
LINE
8
0
10
24.571654
20
30.182316
11
24.765000
21
29.210300
0
LINE
8
0
10
24.765000
20
29.210300
11
24.765000
21
-29.209600
0
LINE
8
0
10
24.765000
20
-29.209600
11
24.571654
21
-30.181616
0
LINE
8
0
10
24.571654
20
-30.181616
11
24.021051
21
-31.005651
0
LINE
8
0
10
24.021051
20
-31.005651
11
23.197016
21
-31.556254
0
LINE
8
0
10
23.197016
20
-31.556254
11
22.225000
21
-31.749600
0
LINE
8
0
10
22.225000
20
-31.749600
11
-22.225000
21
-31.749600
0
LINE
8
0
10
-22.225000
20
-31.749600
11
-23.197016
21
-31.556254
0
LINE
8
0
10
-23.197016
20
-31.556254
11
-24.021051
21
-31.005651
0
LINE
8
0
10
-24.021051
20
-31.005651
11
-24.571654
21
-30.181616
0
LINE
8
0
10
-24.571654
20
-30.181616
11
-24.765000
21
-29.209600
0
LINE
8
0
10
-24.765000
20
-29.209600
11
-24.765000
21
29.210300
0
LINE
8
0
10
-24.765000
20
29.210300
11
-24.571654
21
30.182316
0
LINE
8
0
10
-24.571654
20
30.182316
11
-24.021051
21
31.006351
0
LINE
8
0
10
-24.021051
20
31.006351
11
-23.197016
21
31.556954
0
LINE
8
0
10
-23.197016
20
31.556954
11
-22.225000
21
31.750300
0
LINE
8
0
10
-22.225000
20
31.750300
11
22.225000
21
31.750300
0
LINE
8
0
10
5.114990
20
-9.069610
11
5.102991
21
-8.999601
0
LINE
8
0
10
5.102991
20
-8.999601
11
3.515000
21
-8.999610
0
LINE
8
0
10
3.515000
20
-8.999610
11
3.515000
21
-0.194627
0
LINE
8
0
10
3.515000
20
-0.194627
11
3.480000
21
-0.109616
0
LINE
8
0
10
3.480000
20
-0.109616
11
0.514999
21
-0.109617
0
LINE
8
0
10
0.514999
20
-0.109617
11
0.514999
21
22.750400
0
LINE
8
0
10
0.514999
20
22.750400
11
8.764990
21
22.750400
0
LINE
8
0
10
8.764990
20
22.750400
11
8.764990
21
-18.999600
0
LINE
8
0
10
8.764990
20
-18.999600
11
5.114990
21
-18.999600
0
LINE
8
0
10
5.114990
20
-18.999600
11
5.114990
21
-9.069610
0
LINE
8
0
10
-20.320000
20
-25.399600
11
-20.170296
21
-24.658088
0
LINE
8
0
10
-20.170296
20
-24.658088
11
-19.762038
21
-24.052562
0
LINE
8
0
10
-19.762038
20
-24.052562
11
-19.156512
21
-23.644304
0
LINE
8
0
10
-19.156512
20
-23.644304
11
-18.415000
21
-23.494600
0
LINE
8
0
10
-18.415000
20
-23.494600
11
-17.673488
21
-23.644304
0
LINE
8
0
10
-17.673488
20
-23.644304
11
-17.067962
21
-24.052562
0
LINE
8
0
10
-17.067962
20
-24.052562
11
-16.659704
21
-24.658088
0
LINE
8
0
10
-16.659704
20
-24.658088
11
-16.510000
21
-25.399600
0
LINE
8
0
10
-16.510000
20
-25.399600
11
-16.659704
21
-26.141112
0
LINE
8
0
10
-16.659704
20
-26.141112
11
-17.067962
21
-26.746638
0
LINE
8
0
10
-17.067962
20
-26.746638
11
-17.673488
21
-27.154896
0
LINE
8
0
10
-17.673488
20
-27.154896
11
-18.415000
21
-27.304600
0
LINE
8
0
10
-18.415000
20
-27.304600
11
-19.156512
21
-27.154896
0
LINE
8
0
10
-19.156512
20
-27.154896
11
-19.762038
21
-26.746638
0
LINE
8
0
10
-19.762038
20
-26.746638
11
-20.170296
21
-26.141112
0
LINE
8
0
10
-20.170296
20
-26.141112
11
-20.320000
21
-25.399600
0
LINE
8
0
10
-20.320000
20
-25.399600
11
-20.320000
21
-25.399600
0
LINE
8
0
10
-5.564140
20
17.188600
11
-5.564140
21
-14.561400
0
LINE
8
0
10
-5.564140
20
-14.561400
11
-5.819362
21
-15.513900
0
LINE
8
0
10
-5.819362
20
-15.513900
11
-6.516640
21
-16.211178
0
LINE
8
0
10
-6.516640
20
-16.211178
11
-7.469140
21
-16.466400
0
LINE
8
0
10
-7.469140
20
-16.466400
11
-8.421640
21
-16.211178
0
LINE
8
0
10
-8.421640
20
-16.211178
11
-9.118918
21
-15.513900
0
LINE
8
0
10
-9.118918
20
-15.513900
11
-9.374140
21
-14.561400
0
LINE
8
0
10
-9.374140
20
-14.561400
11
-9.374140
21
17.188600
0
LINE
8
0
10
-9.374140
20
17.188600
11
-9.118918
21
18.141100
0
LINE
8
0
10
-9.118918
20
18.141100
11
-8.421640
21
18.838378
0
LINE
8
0
10
-8.421640
20
18.838378
11
-7.469140
21
19.093600
0
LINE
8
0
10
-7.469140
20
19.093600
11
-6.516640
21
18.838378
0
LINE
8
0
10
-6.516640
20
18.838378
11
-5.819362
21
18.141100
0
LINE
8
0
10
-5.819362
20
18.141100
11
-5.564140
21
17.188600
0
LINE
8
0
10
-5.564140
20
17.188600
11
-5.564140
21
17.188600
0
LINE
8
0
10
16.510000
20
25.400300
11
16.659704
21
26.141812
0
LINE
8
0
10
16.659704
20
26.141812
11
17.067962
21
26.747338
0
LINE
8
0
10
17.067962
20
26.747338
11
17.673488
21
27.155596
0
LINE
8
0
10
17.673488
20
27.155596
11
18.415000
21
27.305300
0
LINE
8
0
10
18.415000
20
27.305300
11
19.156512
21
27.155596
0
LINE
8
0
10
19.156512
20
27.155596
11
19.762038
21
26.747338
0
LINE
8
0
10
19.762038
20
26.747338
11
20.170296
21
26.141812
0
LINE
8
0
10
20.170296
20
26.141812
11
20.320000
21
25.400300
0
LINE
8
0
10
20.320000
20
25.400300
11
20.064778
21
24.447800
0
LINE
8
0
10
20.064778
20
24.447800
11
19.367500
21
23.750522
0
LINE
8
0
10
19.367500
20
23.750522
11
18.415000
21
23.495300
0
LINE
8
0
10
18.415000
20
23.495300
11
17.462500
21
23.750522
0
LINE
8
0
10
17.462500
20
23.750522
11
16.765222
21
24.447800
0
LINE
8
0
10
16.765222
20
24.447800
11
16.510000
21
25.400300
0
LINE
8
0
10
16.510000
20
25.400300
11
16.510000
21
25.400300
0
LINE
8
0
10
16.510000
20
-25.399600
11
16.659704
21
-24.658088
0
LINE
8
0
10
16.659704
20
-24.658088
11
17.067962
21
-24.052562
0
LINE
8
0
10
17.067962
20
-24.052562
11
17.673488
21
-23.644304
0
LINE
8
0
10
17.673488
20
-23.644304
11
18.415000
21
-23.494600
0
LINE
8
0
10
18.415000
20
-23.494600
11
19.156512
21
-23.644304
0
LINE
8
0
10
19.156512
20
-23.644304
11
19.762038
21
-24.052562
0
LINE
8
0
10
19.762038
20
-24.052562
11
20.170296
21
-24.658088
0
LINE
8
0
10
20.170296
20
-24.658088
11
20.320000
21
-25.399600
0
LINE
8
0
10
20.320000
20
-25.399600
11
20.064778
21
-26.352100
0
LINE
8
0
10
20.064778
20
-26.352100
11
19.367500
21
-27.049378
0
LINE
8
0
10
19.367500
20
-27.049378
11
18.415000
21
-27.304600
0
LINE
8
0
10
18.415000
20
-27.304600
11
17.462500
21
-27.049378
0
LINE
8
0
10
17.462500
20
-27.049378
11
16.765222
21
-26.352100
0
LINE
8
0
10
16.765222
20
-26.352100
11
16.510000
21
-25.399600
0
LINE
8
0
10
16.510000
20
-25.399600
11
16.510000
21
-25.399600
0
LINE
8
0
10
-20.320000
20
25.400300
11
-20.170296
21
26.141812
0
LINE
8
0
10
-20.170296
20
26.141812
11
-19.762038
21
26.747338
0
LINE
8
0
10
-19.762038
20
26.747338
11
-19.156512
21
27.155596
0
LINE
8
0
10
-19.156512
20
27.155596
11
-18.415000
21
27.305300
0
LINE
8
0
10
-18.415000
20
27.305300
11
-17.673488
21
27.155596
0
LINE
8
0
10
-17.673488
20
27.155596
11
-17.067962
21
26.747338
0
LINE
8
0
10
-17.067962
20
26.747338
11
-16.659704
21
26.141812
0
LINE
8
0
10
-16.659704
20
26.141812
11
-16.510000
21
25.400300
0
LINE
8
0
10
-16.510000
20
25.400300
11
-16.659704
21
24.658788
0
LINE
8
0
10
-16.659704
20
24.658788
11
-17.067962
21
24.053262
0
LINE
8
0
10
-17.067962
20
24.053262
11
-17.673488
21
23.645004
0
LINE
8
0
10
-17.673488
20
23.645004
11
-18.415000
21
23.495300
0
LINE
8
0
10
-18.415000
20
23.495300
11
-19.156512
21
23.645004
0
LINE
8
0
10
-19.156512
20
23.645004
11
-19.762038
21
24.053262
0
LINE
8
0
10
-19.762038
20
24.053262
11
-20.170296
21
24.658788
0
LINE
8
0
10
-20.170296
20
24.658788
11
-20.320000
21
25.400300
0
LINE
8
0
10
-20.320000
20
25.400300
11
-20.320000
21
25.400300
0
LINE
8
0
10
24.765000
20
-29.209600
11
24.571654
21
-30.181616
0
LINE
8
0
10
24.571654
20
-30.181616
11
24.021051
21
-31.005651
0
LINE
8
0
10
24.021051
20
-31.005651
11
23.197016
21
-31.556254
0
LINE
8
0
10
23.197016
20
-31.556254
11
22.225000
21
-31.749600
0
LINE
8
0
10
22.225000
20
-31.749600
11
-22.225000
21
-31.749600
0
LINE
8
0
10
-22.225000
20
-31.749600
11
-23.197016
21
-31.556254
0
LINE
8
0
10
-23.197016
20
-31.556254
11
-24.021051
21
-31.005651
0
LINE
8
0
10
-24.021051
20
-31.005651
11
-24.571654
21
-30.181616
0
LINE
8
0
10
-24.571654
20
-30.181616
11
-24.765000
21
-29.209600
0
LINE
8
0
10
-24.765000
20
-29.209600
11
-24.765000
21
29.210300
0
LINE
8
0
10
-24.765000
20
29.210300
11
-24.571654
21
30.182316
0
LINE
8
0
10
-24.571654
20
30.182316
11
-24.021051
21
31.006351
0
LINE
8
0
10
-24.021051
20
31.006351
11
-23.197016
21
31.556954
0
LINE
8
0
10
-23.197016
20
31.556954
11
-22.225000
21
31.750300
0
LINE
8
0
10
-22.225000
20
31.750300
11
22.225000
21
31.750300
0
LINE
8
0
10
22.225000
20
31.750300
11
23.197016
21
31.556954
0
LINE
8
0
10
23.197016
20
31.556954
11
24.021051
21
31.006351
0
LINE
8
0
10
24.021051
20
31.006351
11
24.571654
21
30.182316
0
LINE
8
0
10
24.571654
20
30.182316
11
24.765000
21
29.210300
0
LINE
8
0
10
24.765000
20
29.210300
11
24.765000
21
-29.209600
 0 
ENDSEC
 0 
EOF