0
SECTION
2
HEADER
9
$INSUNITS
70
4
9
$ACADVER
1
AC1014
9
$HANDSEED
5
FFFF
0
ENDSEC
0
SECTION
2
TABLES
0
TABLE
2
VPORT
5
8
100
AcDbSymbolTable
0
ENDTAB
0
TABLE
2
LTYPE
5
5
100
AcDbSymbolTable
0
LTYPE
5
14
100
AcDbSymbolTableRecord
100
AcDbLinetypeTableRecord
2
BYBLOCK
70
0
0
LTYPE
5
15
100
AcDbSymbolTableRecord
100
AcDbLinetypeTableRecord
2
BYLAYER
70
0
0
ENDTAB
0
TABLE
2
LAYER
5
2
100
AcDbSymbolTable
70
2
0
LAYER
5
50
100
AcDbSymbolTableRecord
100
AcDbLayerTableRecord
2
0
70
0
6
CONTINUOUS
0
ENDTAB
0
TABLE
2
STYLE
5
3
100
AcDbSymbolTable
70
1
0
STYLE
5
11
100
AcDbSymbolTableRecord
100
AcDbTextStyleTableRecord
2
STANDARD
70
0
0
ENDTAB
0
TABLE
2
VIEW
5
6
100
AcDbSymbolTable
70
0
0
ENDTAB
0
TABLE
2
UCS
5
7
100
AcDbSymbolTable
70
0
0
ENDTAB
0
TABLE
2
APPID
5
9
100
AcDbSymbolTable
70
2
0
APPID
5
12
100
AcDbSymbolTableRecord
100
AcDbRegAppTableRecord
2
ACAD
70
0
0
ENDTAB
0
TABLE
2
DIMSTYLE
5
A
100
AcDbSymbolTable
70
1
0
ENDTAB
0
TABLE
2
BLOCK_RECORD
5
1
100
AcDbSymbolTable
70
1
0
BLOCK_RECORD
5
1F
100
AcDbSymbolTableRecord
100
AcDbBlockTableRecord
2
*MODEL_SPACE
0
BLOCK_RECORD
5
1B
100
AcDbSymbolTableRecord
100
AcDbBlockTableRecord
2
*PAPER_SPACE
0
ENDTAB
0
ENDSEC
0
SECTION
2
BLOCKS
0
BLOCK
5
20
100
AcDbEntity
100
AcDbBlockBegin
2
*MODEL_SPACE
0
ENDBLK
5
21
100
AcDbEntity
100
AcDbBlockEnd
0
BLOCK
5
1C
100
AcDbEntity
100
AcDbBlockBegin
2
*PAPER_SPACE
0
ENDBLK
5
1D
100
AcDbEntity
100
AcDbBlockEnd
0
ENDSEC
0
SECTION
2
ENTITIES
0
SPLINE
5
100
100
AcDbEntity
8
0
100
AcDbSpline
70
0
71
3
72
14
73
10
74
0
42
0.000000001
43
0.0000000001
44
0.0000000001
40
0
40
0
40
0
40
0
40
0.058596671008042632
40
0.058596671008042632
40
0.11719334201608242
40
0.11719334201608242
40
0.16132195918030554
40
0.16132195918030554
40
0.20545057634453631
40
0.20545057634453631
40
0.20545057634453631
40
0.20545057634453631
10
-362.4853227732205
20
403.88040101000013
30
0
10
-362.4853227732205
20
404.0757232466936
30
0
10
-362.4471719970735
20
404.26917809634546
30
0
10
-362.2988636780687
20
404.63057503476875
30
0
10
-362.19012404357471
20
404.7950619718323
30
0
10
-361.94959212152946
20
405.03877127801991
30
0
10
-361.83142459806277
20
405.12769758897355
30
0
10
-361.5730078616229
20
405.26829988628384
30
0
10
-361.43415838832152
20
405.31921428646694
30
0
10
-361.29013199947536
20
405.34910497458588
30
0
0
LINE
5
101
100
AcDbEntity
8
0
100
AcDbLine
10
-362.4853227732205
20
403.88040101000013
30
0
11
-362.4853227732205
21
205.33721789578905
31
0
0
LINE
5
102
100
AcDbEntity
8
0
100
AcDbLine
10
-362.4853227732205
20
205.33721789578905
30
0
11
-97.51467966070453
21
204.61508725707162
31
0
0
LINE
5
103
100
AcDbEntity
8
0
100
AcDbLine
10
-97.51467966070453
20
204.61508725707162
30
0
11
-97.514679660703109
21
418.49999647445725
31
0
0
ARC
5
104
100
AcDbEntity
8
0
100
AcDbCircle
10
-99.014679660703109
20
418.49999647445725
30
6.2948954452091392e-46
40
1.4999999999999858
210
4.1965969634727994e-46
220
2.4651903288157506e-32
230
1
100
AcDbArc
50
0
51
90.00000000000054
0
LINE
5
105
100
AcDbEntity
8
0
100
AcDbLine
10
-99.014679660703123
20
419.99999647445725
30
-3.6977854932235279e-32
11
-172.97063134853883
21
419.99999647445713
31
2.1206305082628362e-39
0
SPLINE
5
106
100
AcDbEntity
8
0
100
AcDbSpline
70
0
71
3
72
10
73
6
74
0
42
0.000000001
43
0.0000000001
44
0.0000000001
40
0.12201675239750288
40
0.12201675239750288
40
0.12201675239750288
40
0.12201675239750288
40
7.9753263495488795
40
7.9753263495488795
40
18.802094878928436
40
18.802094878928436
40
18.802094878928436
40
18.802094878928436
10
-361.29013199947508
20
405.34910497458611
30
0
10
-335.62364947776024
20
410.6758289889342
30
0
10
-308.38401481802345
20
413.99267350837937
30
0
10
-246.53402368528225
20
419.02762162175202
30
0
10
-208.78546512543471
20
419.99999647445702
30
0
10
-172.97063134853883
20
419.99999647445713
30
0
0
CIRCLE
5
107
100
AcDbEntity
8
0
100
AcDbCircle
10
-348.71344131873116
20
374.53745636805263
30
0
40
1.9050000000000011
210
-1.0552532560242647e-55
220
-2.4651903288156619e-32
230
1
0
CIRCLE
5
108
100
AcDbEntity
8
0
100
AcDbCircle
10
-172.43145343540544
20
375.38560144824032
30
0
40
1.9050000000000011
210
-1.0552532560242647e-55
220
-2.4651903288156619e-32
230
1
0
CIRCLE
5
109
100
AcDbEntity
8
0
100
AcDbCircle
10
-266.40088192642156
20
227.46087893594026
30
0
40
1.9050000000000011
210
-1.0552532560242647e-55
220
-2.4651903288156619e-32
230
1
0
CIRCLE
5
110
100
AcDbEntity
8
0
100
AcDbCircle
10
-357.37640135382918
20
399.64045396343892
30
0
40
2.1589999999999772
210
-1.4693679385278597e-39
220
-1.2661241890759504e-78
230
1
0
LWPOLYLINE
5
111
100
AcDbEntity
8
0
100
AcDbPolyline
90
8
70
1
43
0.0
10
-200.5709895087148
20
407.80303263021466
42
0.41421356236956558
10
-204.53338950876915
20
403.84063263020806
10
-204.5333895089185
20
391.44543263000526
42
0.41421356237662449
10
-200.57098950917575
20
387.48303263021478
10
-132.29578950881302
20
387.48303263021467
42
0.41421356237455514
10
-128.33338950881296
20
391.44543263023451
10
-128.33338950887477
20
403.84063263023438
42
0.41421356237163492
10
-132.29578950887483
20
407.80303263021466
0
CIRCLE
5
112
100
AcDbEntity
8
0
100
AcDbCircle
10
-229.8807864328806
20
344.32120540871085
30
0
40
40.004999999999988
210
-1.0552532560242649e-55
220
-2.4651903288156619e-32
230
1
0
CIRCLE
5
113
100
AcDbEntity
8
0
100
AcDbCircle
10
-186.0566910837166
20
210.66754632959373
30
0
40
2.1590000000000131
210
-1.0552532560242649e-55
220
-9.0929006821265007e-95
230
1
0
CIRCLE
5
114
100
AcDbEntity
8
0
100
AcDbCircle
10
-261.30177475963387
20
283.04041419975522
30
0
40
1.9050000000000011
210
-1.0552532560242647e-55
220
-2.4651903288156619e-32
230
1
0
CIRCLE
5
115
100
AcDbEntity
8
0
100
AcDbCircle
10
-102.59053433394951
20
297.62460487739617
30
0
40
2.1589999999999954
210
-1.0552532560242652e-55
220
2.4651903288156619e-32
230
1
0
CIRCLE
5
116
100
AcDbEntity
8
0
100
AcDbCircle
10
-285.85164847124742
20
374.53745636804769
30
0
40
1.9050000000000011
210
-1.0552532560242647e-55
220
-2.4651903288156619e-32
230
1
0
CIRCLE
5
117
100
AcDbEntity
8
0
100
AcDbCircle
10
-357.37640135382918
20
210.66754632959373
30
0
40
2.1589999999999772
210
-1.4693679385278597e-39
220
-1.2661241890759504e-78
230
1
0
CIRCLE
5
118
100
AcDbEntity
8
0
100
AcDbCircle
10
-102.59053433394951
20
210.66754632959373
30
0
40
2.1589999999999954
210
-1.0552532560242652e-55
220
2.4651903288156619e-32
230
1
0
CIRCLE
5
119
100
AcDbEntity
8
0
100
AcDbCircle
10
-109.56966058792145
20
312.52380860075118
30
0
40
2.1589999999999954
210
-1.0552532560242652e-55
220
2.4651903288156619e-32
230
1
0
CIRCLE
5
120
100
AcDbEntity
8
0
100
AcDbCircle
10
-114.69253007849179
20
393.65237384925683
30
0
40
3.1750000000000078
210
-1.0552532560242649e-55
220
-9.0929006821265007e-95
230
1
0
CIRCLE
5
121
100
AcDbEntity
8
0
100
AcDbCircle
10
-285.85164847124742
20
311.67566352056383
30
0
40
1.9050000000000011
210
-1.0552532560242647e-55
220
-2.4651903288156619e-32
230
1
0
CIRCLE
5
122
100
AcDbEntity
8
0
100
AcDbCircle
10
-231.31928814069934
20
408.94550981774529
30
0
40
2.1589999999999772
210
-1.4693679385278597e-39
220
-1.2661241890759504e-78
230
1
0
LWPOLYLINE
5
123
100
AcDbEntity
8
0
100
AcDbPolyline
90
2
70
1
43
0.0
10
-289.08496648338365
20
223.28881167702156
42
1.0031896720791156
10
-345.66029316262257
20
279.86413835556004
42
1.0031896720746216
0
CIRCLE
5
124
100
AcDbEntity
8
0
100
AcDbCircle
10
-109.56966058792145
20
219.8138086007512
30
0
40
2.1589999999999954
210
-1.0552532560242652e-55
220
2.4651903288156619e-32
230
1
0
CIRCLE
5
125
100
AcDbEntity
8
0
100
AcDbCircle
10
-317.46271475089054
20
342.92639008840439
30
0
40
40.004999999999988
210
-1.0552532560242649e-55
220
-2.4651903288156619e-32
230
1
0
CIRCLE
5
126
100
AcDbEntity
8
0
100
AcDbCircle
10
-274.47278350985027
20
210.66754632959373
30
0
40
2.1589999999999772
210
-1.4693679385278597e-39
220
-1.2661241890759504e-78
230
1
0
CIRCLE
5
127
100
AcDbEntity
8
0
100
AcDbCircle
10
-114.69253007849179
20
400.50120912036266
30
0
40
1.5000000000000036
210
-1.0552532560242649e-55
220
-9.0929006821265007e-95
230
1
0
LWPOLYLINE
5
128
100
AcDbEntity
8
0
100
AcDbPolyline
90
8
70
1
43
0.0
10
-181.06137796409479
20
323.120811087834
42
0.19891236737964574
10
-182.33384735895567
20
317.19041075975622
42
0.10465496970723169
10
-167.92640834426069
20
302.77137871584989
42
0.1989123673796557
10
-161.99498644659744
20
304.03907768802253
10
-159.00615838836455
20
306.77419324882703
42
-0.19891236737965201
10
-156.60671242832271
20
307.15857911308677
42
5.1066282631453275
10
-177.93754358660354
20
328.50657424814835
42
-0.19891236737967669
10
-178.32385927782124
20
326.10743823813903
0
CIRCLE
5
129
100
AcDbEntity
8
0
100
AcDbCircle
10
-172.43145343540544
20
282.67560144824029
30
0
40
1.9050000000000011
210
-1.0552532560242647e-55
220
-2.4651903288156619e-32
230
1
0
CIRCLE
5
130
100
AcDbEntity
8
0
100
AcDbCircle
10
-198.43998132908047
20
283.04041382898572
30
0
40
1.9050000000000011
210
-1.0552532560242647e-55
220
-2.4651903288156619e-32
230
1
0
CIRCLE
5
131
100
AcDbEntity
8
0
100
AcDbCircle
10
-357.37640135382918
20
297.81299569337079
30
0
40
2.1589999999999772
210
-1.4693679385278597e-39
220
-1.2661241890759504e-78
230
1
0
LWPOLYLINE
5
132
100
AcDbEntity
8
0
100
AcDbPolyline
90
8
70
1
43
0.0
10
-199.42710768235548
20
225.65616932897672
42
2.1665698574394709
10
-260.31453121897795
20
225.65600151102871
10
-263.54685143752806
20
222.42368129247839
42
0.99999999999999989
10
-259.05672337699372
20
217.93355323194365
10
-255.82440315844315
20
221.16587345049393
42
0.36840487410456363
10
-203.91721099143496
20
221.16601651712412
10
-200.68489759016273
20
217.93373875127008
42
0.99999999999999989
10
-196.19479428108303
20
222.42389156312305
0
CIRCLE
5
133
100
AcDbEntity
8
0
100
AcDbCircle
10
-207.7083895086989
20
397.64303263001494
30
0
40
1.9050000000000011
210
-1.0552532560242647e-55
220
-2.4651903288156619e-32
230
1
0
LWPOLYLINE
5
134
100
AcDbEntity
8
0
100
AcDbPolyline
90
8
70
1
43
0.0
10
-181.06137796409479
20
230.41081108783405
10
-178.32385927782124
20
233.39743823813905
42
0.19891236737967297
10
-177.93754358660351
20
235.79657424814832
42
-5.1066282631453275
10
-156.60671242832271
20
214.44857911308677
42
0.19891236737965193
10
-159.00615838836458
20
214.06419324882708
10
-161.99498644659744
20
211.32907768802252
42
-0.1989123673796557
10
-167.92640834426066
20
210.06137871584991
42
-0.1046549697072318
10
-182.33384735895569
20
224.48041075975618
42
-0.1989123673796476
0
CIRCLE
5
135
100
AcDbEntity
8
0
100
AcDbCircle
10
-109.56966058792145
20
375.38560144823532
30
0
40
2.1589999999999954
210
-1.0552532560242652e-55
220
2.4651903288156619e-32
230
1
0
CIRCLE
5
136
100
AcDbEntity
8
0
100
AcDbCircle
10
-109.56966058792145
20
282.67560144823534
30
0
40
2.1589999999999954
210
-1.0552532560242652e-55
220
2.4651903288156619e-32
230
1
0
CIRCLE
5
137
100
AcDbEntity
8
0
100
AcDbCircle
10
-102.59053433394951
20
410.60598656613422
30
0
40
2.1589999999999954
210
-1.0552532560242652e-55
220
2.4651903288156619e-32
230
1
0
LWPOLYLINE
5
138
100
AcDbEntity
8
0
100
AcDbPolyline
90
4
70
1
43
0.0
10
-259.89994593043627
20
309.42413563850056
10
-264.82091386741075
20
314.19133032586683
42
-0.99999999999999989
10
-262.72341978280218
20
316.35648233144042
10
-257.80245184584078
20
311.58928764406778
42
-0.99999999999999989
0
LWPOLYLINE
5
139
100
AcDbEntity
8
0
100
AcDbPolyline
90
4
70
1
43
0.0
10
-289.77727257581324
20
218.88265532774909
10
-285.0100778884389
20
223.80362326471214
42
-0.99999999999999989
10
-282.84492588287048
20
221.70612918011784
10
-287.61212057023505
20
216.78516124314541
42
-0.99999999999999989
0
LWPOLYLINE
5
140
100
AcDbEntity
8
0
100
AcDbPolyline
90
4
70
1
43
0.0
10
-287.32211413080148
20
286.10417895642468
10
-282.40114619382888
20
281.33698426905994
42
-0.99999999999999989
10
-284.49864027843256
20
279.17183226348186
10
-289.41960821539578
20
283.93902695085603
42
-0.99999999999999989
0
LWPOLYLINE
5
141
100
AcDbEntity
8
0
100
AcDbPolyline
90
4
70
1
43
0.0
10
-257.84550951015098
20
377.16383875863238
42
1.0000000074505806
10
-260.01066153135218
20
379.26133282710953
10
-264.77785620309083
20
374.34036490626653
42
0.99999999999999989
10
-262.61270419752543
20
372.24287082166927
0
LWPOLYLINE
5
142
100
AcDbEntity
8
0
100
AcDbPolyline
90
4
70
1
43
0.0
10
-351.72016390710826
20
281.62699070849357
42
0.99999999999999989
10
-349.55501190153984
20
279.52949662389926
10
-344.78781721416539
20
284.45046456086243
42
0.99999999999999989
10
-346.95296921974375
20
286.54795864546611
0
CIRCLE
5
143
100
AcDbEntity
8
0
100
AcDbCircle
10
-125.15838950919363
20
397.64303263036282
30
0
40
1.9050000000000011
210
-1.0552532560242647e-55
220
-2.4651903288156619e-32
230
1
0
LWPOLYLINE
5
144
100
AcDbEntity
8
0
100
AcDbPolyline
90
4
70
1
43
0.0
10
-199.86162693532489
20
379.21827517892109
10
-194.94065899835044
20
374.45108049155499
42
-0.99999999999999989
10
-197.03815308295901
20
372.28592848598117
10
-201.95912103605201
20
377.05312318898154
42
-0.9999999925494194
0
LWPOLYLINE
5
145
100
AcDbEntity
8
0
100
AcDbPolyline
90
4
70
1
43
0.0
10
-350.06644951154612
20
224.16128762512969
42
0.99999999999999989
10
-352.16394359614952
20
221.99613561955161
10
-347.24297565917709
20
217.2289409321867
42
0.99999999999999989
10
-345.14548157458307
20
219.3940929377554
0
LWPOLYLINE
5
146
100
AcDbEntity
8
0
100
AcDbPolyline
90
4
70
1
43
0.0
10
-201.91606335561019
20
311.47857205878927
10
-197.14886866823753
20
316.39953999575056
42
-0.99999999999999989
10
-194.98371666267033
20
314.30204591115512
10
-199.75091133440907
20
309.38107799031229
42
-1.0000000074505806
0
ENDSEC
0
SECTION
2
OBJECTS
0
DICTIONARY
5
C
100
AcDbDictionary
3
ACAD_GROUP
350
D
3
ACAD_MLINESTYLE
350
17
0
DICTIONARY
5
D
100
AcDbDictionary
0
DICTIONARY
5
1A
330
C
100
AcDbDictionary
0
DICTIONARY
5
17
100
AcDbDictionary
0
ENDSEC
0
EOF
