  0
SECTION
  2
HEADER
  9
$ACADVER
  1
AC1027
  9
$ACADMAINTVER
 70
   125
  9
$DWGCODEPAGE
  3
ANSI_1252
  9
$LASTSAVEDBY
  1
poojars
  9
$REQUIREDVERSIONS
160
                 0
  9
$INSBASE
 10
0.0
 20
0.0
 30
0.0
  9
$EXTMIN
 10
1.734674
 20
0.491582
 30
0.0
  9
$EXTMAX
 10
43.22669
 20
26.720423
 30
0.0
  9
$LIMMIN
 10
0.0
 20
0.0
  9
$LIMMAX
 10
43.999999
 20
33.999999
  9
$ORTHOMODE
 70
     0
  9
$REGENMODE
 70
     1
  9
$FILLMODE
 70
     1
  9
$QTEXTMODE
 70
     0
  9
$MIRRTEXT
 70
     0
  9
$LTSCALE
 40
0.75
  9
$ATTMODE
 70
     1
  9
$TEXTSIZE
 40
0.12
  9
$TRACEWID
 40
0.05
  9
$TEXTSTYLE
  7
Standard
  9
$CLAYER
  8
0
  9
$CELTYPE
  6
ByLayer
  9
$CECOLOR
 62
   256
  9
$CELTSCALE
 40
1.0
  9
$DISPSILH
 70
     0
  9
$DIMSCALE
 40
1.0
  9
$DIMASZ
 40
0.12
  9
$DIMEXO
 40
0.07
  9
$DIMDLI
 40
0.36
  9
$DIMRND
 40
0.0
  9
$DIMDLE
 40
0.0
  9
$DIMEXE
 40
0.07
  9
$DIMTP
 40
0.01
  9
$DIMTM
 40
0.01
  9
$DIMTXT
 40
0.12
  9
$DIMCEN
 40
0.0
  9
$DIMTSZ
 40
0.0
  9
$DIMTOL
 70
     0
  9
$DIMLIM
 70
     0
  9
$DIMTIH
 70
     1
  9
$DIMTOH
 70
     1
  9
$DIMSE1
 70
     0
  9
$DIMSE2
 70
     0
  9
$DIMTAD
 70
     0
  9
$DIMZIN
 70
    12
  9
$DIMBLK
  1

  9
$DIMASO
 70
     1
  9
$DIMSHO
 70
     1
  9
$DIMPOST
  1

  9
$DIMAPOST
  1
mm
  9
$DIMALT
 70
     0
  9
$DIMALTD
 70
     2
  9
$DIMALTF
 40
1.0
  9
$DIMLFAC
 40
25.4
  9
$DIMTOFL
 70
     0
  9
$DIMTVP
 40
0.0
  9
$DIMTIX
 70
     0
  9
$DIMSOXD
 70
     0
  9
$DIMSAH
 70
     0
  9
$DIMBLK1
  1

  9
$DIMBLK2
  1

  9
$DIMSTYLE
  2
Dim-Standard
  9
$DIMCLRD
 70
     0
  9
$DIMCLRE
 70
     0
  9
$DIMCLRT
 70
     0
  9
$DIMTFAC
 40
1.0
  9
$DIMGAP
 40
0.05
  9
$DIMJUST
 70
     0
  9
$DIMSD1
 70
     0
  9
$DIMSD2
 70
     0
  9
$DIMTOLJ
 70
     1
  9
$DIMTZIN
 70
    12
  9
$DIMALTZ
 70
    12
  9
$DIMALTTZ
 70
    12
  9
$DIMUPT
 70
     0
  9
$DIMDEC
 70
     2
  9
$DIMTDEC
 70
     2
  9
$DIMALTU
 70
     2
  9
$DIMALTTD
 70
     2
  9
$DIMTXSTY
  7
Standard
  9
$DIMAUNIT
 70
     0
  9
$DIMADEC
 70
     2
  9
$DIMALTRND
 40
0.0
  9
$DIMAZIN
 70
     3
  9
$DIMDSEP
 70
    46
  9
$DIMATFIT
 70
     3
  9
$DIMFRAC
 70
     0
  9
$DIMLDRBLK
  1

  9
$DIMLUNIT
 70
     2
  9
$DIMLWD
 70
    -2
  9
$DIMLWE
 70
    -2
  9
$DIMTMOVE
 70
     0
  9
$DIMFXL
 40
1.0
  9
$DIMFXLON
 70
     0
  9
$DIMJOGANG
 40
0.785398
  9
$DIMTFILL
 70
     0
  9
$DIMTFILLCLR
 70
     0
  9
$DIMARCSYM
 70
     1
  9
$DIMLTYPE
  6

  9
$DIMLTEX1
  6

  9
$DIMLTEX2
  6

  9
$DIMTXTDIRECTION
 70
     0
  9
$LUNITS
 70
     2
  9
$LUPREC
 70
     4
  9
$SKETCHINC
 40
0.1
  9
$FILLETRAD
 40
0.0
  9
$AUNITS
 70
     0
  9
$AUPREC
 70
     0
  9
$MENU
  1
.
  9
$ELEVATION
 40
0.0
  9
$PELEVATION
 40
0.0
  9
$THICKNESS
 40
0.0
  9
$LIMCHECK
 70
     0
  9
$CHAMFERA
 40
0.0
  9
$CHAMFERB
 40
0.0
  9
$CHAMFERC
 40
0.0
  9
$CHAMFERD
 40
0.0
  9
$SKPOLY
 70
     0
  9
$TDCREATE
 40
2461147.494699074
  9
$TDUCREATE
 40
2461147.744699074
  9
$TDUPDATE
 40
2461147.494699074
  9
$TDUUPDATE
 40
2461147.744699074
  9
$TDINDWG
 40
0.0000000000
  9
$TDUSRTIMER
 40
0.0000000000
  9
$USRTIMER
 70
     1
  9
$ANGBASE
 50
0.0
  9
$ANGDIR
 70
     0
  9
$PDMODE
 70
     0
  9
$PDSIZE
 40
0.0
  9
$PLINEWID
 40
0.0
  9
$SPLFRAME
 70
     0
  9
$SPLINETYPE
 70
     6
  9
$SPLINESEGS
 70
     8
  9
$HANDSEED
  5
32C
  9
$SURFTAB1
 70
     6
  9
$SURFTAB2
 70
     6
  9
$SURFTYPE
 70
     6
  9
$SURFU
 70
     6
  9
$SURFV
 70
     6
  9
$UCSBASE
  2

  9
$UCSNAME
  2

  9
$UCSORG
 10
0.0
 20
0.0
 30
0.0
  9
$UCSXDIR
 10
1.0
 20
0.0
 30
0.0
  9
$UCSYDIR
 10
0.0
 20
1.0
 30
0.0
  9
$UCSORTHOREF
  2

  9
$UCSORTHOVIEW
 70
     0
  9
$UCSORGTOP
 10
0.0
 20
0.0
 30
0.0
  9
$UCSORGBOTTOM
 10
0.0
 20
0.0
 30
0.0
  9
$UCSORGLEFT
 10
0.0
 20
0.0
 30
0.0
  9
$UCSORGRIGHT
 10
0.0
 20
0.0
 30
0.0
  9
$UCSORGFRONT
 10
0.0
 20
0.0
 30
0.0
  9
$UCSORGBACK
 10
0.0
 20
0.0
 30
0.0
  9
$PUCSBASE
  2

  9
$PUCSNAME
  2

  9
$PUCSORG
 10
0.0
 20
0.0
 30
0.0
  9
$PUCSXDIR
 10
1.0
 20
0.0
 30
0.0
  9
$PUCSYDIR
 10
0.0
 20
1.0
 30
0.0
  9
$PUCSORTHOREF
  2

  9
$PUCSORTHOVIEW
 70
     0
  9
$PUCSORGTOP
 10
0.0
 20
0.0
 30
0.0
  9
$PUCSORGBOTTOM
 10
0.0
 20
0.0
 30
0.0
  9
$PUCSORGLEFT
 10
0.0
 20
0.0
 30
0.0
  9
$PUCSORGRIGHT
 10
0.0
 20
0.0
 30
0.0
  9
$PUCSORGFRONT
 10
0.0
 20
0.0
 30
0.0
  9
$PUCSORGBACK
 10
0.0
 20
0.0
 30
0.0
  9
$USERI1
 70
     0
  9
$USERI2
 70
     0
  9
$USERI3
 70
     0
  9
$USERI4
 70
     0
  9
$USERI5
 70
     0
  9
$USERR1
 40
0.0
  9
$USERR2
 40
0.0
  9
$USERR3
 40
0.0
  9
$USERR4
 40
0.0
  9
$USERR5
 40
0.0
  9
$WORLDVIEW
 70
     1
  9
$SHADEDGE
 70
     3
  9
$SHADEDIF
 70
    70
  9
$TILEMODE
 70
     1
  9
$MAXACTVP
 70
    64
  9
$PINSBASE
 10
0.0
 20
0.0
 30
0.0
  9
$PLIMCHECK
 70
     0
  9
$PEXTMIN
 10
1.000000E+20
 20
1.000000E+20
 30
1.000000E+20
  9
$PEXTMAX
 10
-1.000000E+20
 20
-1.000000E+20
 30
-1.000000E+20
  9
$PLIMMIN
 10
0.0
 20
0.0
  9
$PLIMMAX
 10
12.0
 20
9.0
  9
$UNITMODE
 70
     0
  9
$VISRETAIN
 70
     1
  9
$PLINEGEN
 70
     0
  9
$PSLTSCALE
 70
     1
  9
$TREEDEPTH
 70
  3020
  9
$CMLSTYLE
  2
Standard
  9
$CMLJUST
 70
     0
  9
$CMLSCALE
 40
1.0
  9
$PROXYGRAPHICS
 70
     1
  9
$MEASUREMENT
 70
     0
  9
$CELWEIGHT
370
    -1
  9
$ENDCAPS
280
     0
  9
$JOINSTYLE
280
     0
  9
$LWDISPLAY
290
     0
  9
$INSUNITS
 70
     1
  9
$HYPERLINKBASE
  1

  9
$STYLESHEET
  1

  9
$XEDIT
290
     1
  9
$CEPSNTYPE
380
     0
  9
$PSTYLEMODE
290
     1
  9
$FINGERPRINTGUID
  2
{6415EF94-D249-364F-9112-1D82A209F134}
  9
$VERSIONGUID
  2
{214D6CCE-2CE6-FA49-919A-B4A1370B7BBF}
  9
$EXTNAMES
290
     1
  9
$PSVPSCALE
 40
0.0
  9
$OLESTARTUP
290
     0
  9
$SORTENTS
280
   127
  9
$INDEXCTL
280
     0
  9
$HIDETEXT
280
     1
  9
$XCLIPFRAME
280
     0
  9
$HALOGAP
280
     0
  9
$OBSCOLOR
 70
   257
  9
$OBSLTYPE
280
     0
  9
$INTERSECTIONDISPLAY
280
     0
  9
$INTERSECTIONCOLOR
 70
   257
  9
$DIMASSOC
280
     2
  9
$PROJECTNAME
  1

  9
$CAMERADISPLAY
290
     0
  9
$LENSLENGTH
 40
50.0
  9
$CAMERAHEIGHT
 40
0.0
  9
$STEPSPERSEC
 40
2.0
  9
$STEPSIZE
 40
6.0
  9
$3DDWFPREC
 40
2.0
  9
$PSOLWIDTH
 40
0.25
  9
$PSOLHEIGHT
 40
4.0
  9
$LOFTANG1
 40
1.570796
  9
$LOFTANG2
 40
1.570796
  9
$LOFTMAG1
 40
0.0
  9
$LOFTMAG2
 40
0.0
  9
$LOFTPARAM
 70
     7
  9
$LOFTNORMALS
280
     1
  9
$LATITUDE
 40
37.795
  9
$LONGITUDE
 40
-122.394
  9
$NORTHDIRECTION
 40
0.0
  9
$TIMEZONE
 70
 -8000
  9
$LIGHTGLYPHDISPLAY
280
     1
  9
$TILEMODELIGHTSYNCH
280
     1
  9
$CMATERIAL
347
11
  9
$SOLIDHIST
280
     0
  9
$SHOWHIST
280
     1
  9
$DWFFRAME
280
     2
  9
$DGNFRAME
280
     0
  9
$REALWORLDSCALE
290
     1
  9
$INTERFERECOLOR
 62
     1
  9
$INTERFEREOBJVS
345
33
  9
$INTERFEREVPVS
346
30
  9
$CSHADOW
280
     0
  9
$SHADOWPLANELOCATION
 40
0.0
  0
ENDSEC
  0
SECTION
  2
CLASSES
  0
CLASS
  1
ACDBDICTIONARYWDFLT
  2
AcDbDictionaryWithDefault
  3
ObjectDBX Classes
 90
        0
 91
        1
280
     0
281
     0
  0
CLASS
  1
MATERIAL
  2
AcDbMaterial
  3
ObjectDBX Classes
 90
     1153
 91
        3
280
     0
281
     0
  0
CLASS
  1
VISUALSTYLE
  2
AcDbVisualStyle
  3
ObjectDBX Classes
 90
     4095
 91
       24
280
     0
281
     0
  0
CLASS
  1
SCALE
  2
AcDbScale
  3
ObjectDBX Classes
 90
     1153
 91
       33
280
     0
281
     0
  0
CLASS
  1
TABLESTYLE
  2
AcDbTableStyle
  3
ObjectDBX Classes
 90
     4095
 91
        1
280
     0
281
     0
  0
CLASS
  1
MLEADERSTYLE
  2
AcDbMLeaderStyle
  3
ACDB_MLEADERSTYLE_CLASS
 90
     4095
 91
        1
280
     0
281
     0
  0
CLASS
  1
ACDBSECTIONVIEWSTYLE
  2
AcDbSectionViewStyle
  3
ObjectDBX Classes
 90
     1025
 91
        1
280
     0
281
     0
  0
CLASS
  1
ACDBDETAILVIEWSTYLE
  2
AcDbDetailViewStyle
  3
ObjectDBX Classes
 90
     1025
 91
        1
280
     0
281
     0
  0
CLASS
  1
ACMESCOPE
  2
AcMeScope
  3
AcMeServices
 90
     1024
 91
        1
280
     0
281
     0
  0
CLASS
  1
ACMECOMMANDHISTORY
  2
AcMeCommandHistory
  3
AcMeServices
 90
     1024
 91
        1
280
     0
281
     0
  0
CLASS
  1
ACIMSYSVARMAN
  2
AcImSysVarManager
  3
AcMeServices
 90
     1024
 91
        1
280
     0
281
     0
  0
CLASS
  1
ACIMINTSYSVAR
  2
AcImIntSysVar
  3
AcMeServices
 90
     1024
 91
        1
280
     0
281
     0
  0
CLASS
  1
ACMESTATEMGR
  2
AcMeStateMgr
  3
AcMeServices
 90
     1024
 91
        1
280
     0
281
     0
  0
CLASS
  1
ACGREFMASTER
  2
AcGrefMaster
  3
AcAttribServices
 90
     1024
 91
        1
280
     0
281
     0
  0
CLASS
  1
SORTENTSTABLE
  2
AcDbSortentsTable
  3
ObjectDBX Classes
 90
        0
 91
        1
280
     0
281
     0
  0
CLASS
  1
IMAGE
  2
AcDbRasterImage
  3
ISM
 90
     2175
 91
        1
280
     0
281
     1
  0
CLASS
  1
IMAGEDEF
  2
AcDbRasterImageDef
  3
ISM
 90
        0
 91
        1
280
     0
281
     0
  0
CLASS
  1
IMAGEDEF_REACTOR
  2
AcDbRasterImageDefReactor
  3
ISM
 90
        1
 91
        1
280
     0
281
     0
  0
CLASS
  1
RASTERVARIABLES
  2
AcDbRasterVariables
  3
ISM
 90
        0
 91
        1
280
     0
281
     0
  0
CLASS
  1
DICTIONARYVAR
  2
AcDbDictionaryVar
  3
ObjectDBX Classes
 90
        0
 91
        6
280
     0
281
     0
  0
CLASS
  1
CELLSTYLEMAP
  2
AcDbCellStyleMap
  3
ObjectDBX Classes
 90
     1152
 91
        1
280
     0
281
     0
  0
ENDSEC
  0
SECTION
  2
TABLES
  0
TABLE
  2
VPORT
  5
8
330
0
100
AcDbSymbolTable
 70
     1
1001
ACAD
1000
DbSaveVer
1071
      428
  0
VPORT
  5
57
330
8
100
AcDbSymbolTableRecord
100
AcDbViewportTableRecord
  2
*Active
 70
     0
 10
0.0
 20
0.0
 11
1.0
 21
1.0
 12
22.480682
 22
13.606002
 13
0.0
 23
0.0
 14
0.5
 24
0.5
 15
0.0
 25
0.0
 16
0.0
 26
0.0
 36
1.0
 17
0.0
 27
0.0
 37
0.0
 40
26.228841
 41
1.805226
 42
50.0
 43
0.0
 44
0.0
 50
0.0
 51
0.0
 71
     0
 72
 20000
 73
     1
 74
     0
 75
     0
 76
     0
 77
     0
 78
     0
281
     0
 65
     1
110
0.0
120
0.0
130
0.0
111
1.0
121
0.0
131
0.0
112
0.0
122
1.0
132
0.0
 79
     0
146
0.0
348
2F
 60
     3
 61
     5
292
     1
282
     1
141
0.0
142
0.0
 63
   250
421
  3355443
  0
ENDTAB
  0
TABLE
  2
LTYPE
  5
5
330
0
100
AcDbSymbolTable
 70
    11
  0
LTYPE
  5
5B
330
5
100
AcDbSymbolTableRecord
100
AcDbLinetypeTableRecord
  2
ByBlock
 70
     0
  3

 72
    65
 73
     0
 40
0.0
  0
LTYPE
  5
5C
330
5
100
AcDbSymbolTableRecord
100
AcDbLinetypeTableRecord
  2
ByLayer
 70
     0
  3

 72
    65
 73
     0
 40
0.0
  0
LTYPE
  5
5D
330
5
100
AcDbSymbolTableRecord
100
AcDbLinetypeTableRecord
  2
Continuous
 70
     0
  3
Solid line
 72
    65
 73
     0
 40
0.0
  0
LTYPE
  5
81
330
5
100
AcDbSymbolTableRecord
100
AcDbLinetypeTableRecord
  2
HIDDEN
 70
     0
  3
Hidden __ __ __ __ __ __ __ __ __ __ __ __ __ _
 72
    65
 73
     2
 40
0.375
 49
0.25
 74
     0
 49
-0.125
 74
     0
  0
LTYPE
  5
82
330
5
100
AcDbSymbolTableRecord
100
AcDbLinetypeTableRecord
  2
PHANTOM2
 70
     0
  3
Phantom (.5x) ___ _ _ ___ _ _ ___ _ _ ___ _ _
 72
    65
 73
     6
 40
1.25
 49
0.625
 74
     0
 49
-0.125
 74
     0
 49
0.125
 74
     0
 49
-0.125
 74
     0
 49
0.125
 74
     0
 49
-0.125
 74
     0
  0
LTYPE
  5
83
330
5
100
AcDbSymbolTableRecord
100
AcDbLinetypeTableRecord
  2
CENTER
 70
     0
  3
Center ____ _ ____ _ ____ _ ____ _ ____ _ ____
 72
    65
 73
     4
 40
2.0
 49
1.25
 74
     0
 49
-0.25
 74
     0
 49
0.25
 74
     0
 49
-0.25
 74
     0
  0
LTYPE
  5
9D
330
5
100
AcDbSymbolTableRecord
100
AcDbLinetypeTableRecord
  2
CENTER2
 70
     0
  3
Center (.5x) ___ _ ___ _ ___ _ ___ _ ___ _ ___
 72
    65
 73
     4
 40
1.125
 49
0.75
 74
     0
 49
-0.125
 74
     0
 49
0.125
 74
     0
 49
-0.125
 74
     0
  0
LTYPE
  5
9E
330
5
100
AcDbSymbolTableRecord
100
AcDbLinetypeTableRecord
  2
HIDDEN2
 70
     0
  3
Hidden (.5x) _ _ _ _ _ _ _ _ _ _ _ _ _ _ _ _ _
 72
    65
 73
     2
 40
0.1875
 49
0.125
 74
     0
 49
-0.0625
 74
     0
  0
LTYPE
  5
9F
330
5
100
AcDbSymbolTableRecord
100
AcDbLinetypeTableRecord
  2
Amconstr
 70
     0
  3
_______________________
 72
    65
 73
     2
 40
9999.0
 49
9999.0
 74
     0
 49
0.0
 74
     0
  0
LTYPE
  5
A0
330
5
100
AcDbSymbolTableRecord
100
AcDbLinetypeTableRecord
  2
Amzigzag2
 70
     0
  3
/\/-/\/-/\/-/\/-/\/-/\/
 72
    65
 73
     2
 40
0.4401
 49
0.0001
 74
     4
 75
   136
340
9A
 46
0.0016
 50
0.0
 44
0.0
 45
0.0
 49
-0.44
 74
     0
  0
LTYPE
  5
A1
330
5
100
AcDbSymbolTableRecord
100
AcDbLinetypeTableRecord
  2
ACANSTGB
 70
     0
  3
__ . . __ . .
 72
    65
 73
     6
 40
0.354331
 49
0.15748
 74
     0
 49
-0.03937
 74
     0
 49
0.03937
 74
     0
 49
-0.03937
 74
     0
 49
0.03937
 74
     0
 49
-0.03937
 74
     0
  0
LTYPE
  5
A2
330
5
100
AcDbSymbolTableRecord
100
AcDbLinetypeTableRecord
  2
ACANSTGL
 70
     0
  3
_ _ _ _ _
 72
    65
 73
     2
 40
0.11811
 49
0.07874
 74
     0
 49
-0.03937
 74
     0
  0
LTYPE
  5
A3
330
5
100
AcDbSymbolTableRecord
100
AcDbLinetypeTableRecord
  2
ACAD_VIEWBORDER_LINETYPE
 70
     0
  3
Dashed line in view border
 72
    83
 73
     2
 40
0.393701
 49
0.062598
 74
     0
 49
-0.25
 74
     0
1001
ACAD_EXEMPT_FROM_CAD_STANDARDS
1070
     1
  0
ENDTAB
  0
TABLE
  2
LAYER
  5
2
330
0
100
AcDbSymbolTable
 70
     6
  0
LAYER
  5
54
330
2
100
AcDbSymbolTableRecord
100
AcDbLayerTableRecord
  2
0
 70
     0
 62
     7
  6
Continuous
370
    -3
390
F
347
21
348
0
1001
AcAecLayerStandard
1000

1000

  0
LAYER
  5
79
330
2
100
AcDbSymbolTableRecord
100
AcDbLayerTableRecord
  2
Defpoints
 70
     0
 62
     7
  6
Continuous
290
     0
370
    -3
390
F
347
21
348
0
1001
AcAecLayerStandard
1000

1000

  0
LAYER
  5
BE
330
2
100
AcDbSymbolTableRecord
100
AcDbLayerTableRecord
  2
Visible
 70
     0
 62
     7
  6
Continuous
370
    50
390
F
347
21
348
0
  0
LAYER
  5
1EB
330
2
100
AcDbSymbolTableRecord
100
AcDbLayerTableRecord
  2
GD&T Symbols
 70
     0
 62
     7
  6
Continuous
370
    25
390
F
347
21
348
0
  0
LAYER
  5
1F1
330
2
100
AcDbSymbolTableRecord
100
AcDbLayerTableRecord
  2
Notes
 70
     0
 62
     7
  6
Continuous
370
    25
390
F
347
21
348
0
  0
ENDTAB
  0
TABLE
  2
STYLE
  5
3
330
0
100
AcDbSymbolTable
 70
     5
  0
STYLE
  5
55
330
3
100
AcDbSymbolTableRecord
100
AcDbTextStyleTableRecord
  2
Standard
 70
     0
 40
0.0
 41
1.0
 50
0.0
 71
     0
 42
0.12
  3
arial.ttf
  4

1001
ACAD
1000
Arial
1071
       34
  0
STYLE
  5
5A
330
3
100
AcDbSymbolTableRecord
100
AcDbTextStyleTableRecord
  2
Annotative
 70
     0
 40
0.0
 41
1.0
 50
0.0
 71
     0
 42
0.2
  3
txt
  4

1001
AcadAnnotative
1000
AnnotativeData
1002
{
1070
     1
1070
     1
1002
}
  0
STYLE
  5
99
330
3
100
AcDbSymbolTableRecord
100
AcDbTextStyleTableRecord
  2
FusionTitle
 70
     0
 40
0.0
 41
1.0
 50
0.0
 71
     0
 42
0.2
  3
arial.ttf
  4

1001
ACAD
1000
Arial
1071
       34
  0
STYLE
  5
9A
330
3
100
AcDbSymbolTableRecord
100
AcDbTextStyleTableRecord
  2

 70
     1
 40
0.0
 41
1.0
 50
0.0
 71
     0
 42
0.12
  3
genltshp.shx
  4

  0
STYLE
  5
9B
330
3
100
AcDbSymbolTableRecord
100
AcDbTextStyleTableRecord
  2
ACANSGDT
 70
     0
 40
0.0
 41
1.0
 50
0.0
 71
     0
 42
0.12
  3
amgdt.shx
  4

  0
ENDTAB
  0
TABLE
  2
VIEW
  5
6
330
0
100
AcDbSymbolTable
 70
     0
  0
ENDTAB
  0
TABLE
  2
UCS
  5
7
330
0
100
AcDbSymbolTable
 70
     0
  0
ENDTAB
  0
TABLE
  2
APPID
  5
9
330
0
100
AcDbSymbolTable
 70
    26
  0
APPID
  5
56
330
9
100
AcDbSymbolTableRecord
100
AcDbRegAppTableRecord
  2
ACAD
 70
     0
  0
APPID
  5
5E
330
9
100
AcDbSymbolTableRecord
100
AcDbRegAppTableRecord
  2
AcadAnnotative
 70
     0
  0
APPID
  5
78
330
9
100
AcDbSymbolTableRecord
100
AcDbRegAppTableRecord
  2
ACAD_PSEXT
 70
     0
  0
APPID
  5
7A
330
9
100
AcDbSymbolTableRecord
100
AcDbRegAppTableRecord
  2
MCAD_NO_VIS
 70
     0
  0
APPID
  5
7B
330
9
100
AcDbSymbolTableRecord
100
AcDbRegAppTableRecord
  2
ACAD_TEMP_GRAPHIC
 70
     0
  0
APPID
  5
84
330
9
100
AcDbSymbolTableRecord
100
AcDbRegAppTableRecord
  2
ACAD_DSTYLE_DIMJAG
 70
     0
  0
APPID
  5
85
330
9
100
AcDbSymbolTableRecord
100
AcDbRegAppTableRecord
  2
ACAD_DSTYLE_DIMTALN
 70
     0
  0
APPID
  5
86
330
9
100
AcDbSymbolTableRecord
100
AcDbRegAppTableRecord
  2
ACAD_NAV_VCDISPLAY
 70
     0
  0
APPID
  5
87
330
9
100
AcDbSymbolTableRecord
100
AcDbRegAppTableRecord
  2
AcAecLayerStandard
 70
     0
  0
APPID
  5
88
330
9
100
AcDbSymbolTableRecord
100
AcDbRegAppTableRecord
  2
AcCmTransparency
 70
     0
  0
APPID
  5
89
330
9
100
AcDbSymbolTableRecord
100
AcDbRegAppTableRecord
  2
AcDbDynamicBlockGUID
 70
     0
  0
APPID
  5
8A
330
9
100
AcDbSymbolTableRecord
100
AcDbRegAppTableRecord
  2
ACAD_EXEMPT_FROM_CAD_STANDARDS
 70
     0
  0
APPID
  5
8B
330
9
100
AcDbSymbolTableRecord
100
AcDbRegAppTableRecord
  2
ACAD_DSTYLE_DIMBREAK
 70
     0
  0
APPID
  5
8C
330
9
100
AcDbSymbolTableRecord
100
AcDbRegAppTableRecord
  2
FUSIONTITLEBLOCK
 70
     0
  0
APPID
  5
8D
330
9
100
AcDbSymbolTableRecord
100
AcDbRegAppTableRecord
  2
FUSIONCURRENTTITLEBLOCK
 70
     0
  0
APPID
  5
8E
330
9
100
AcDbSymbolTableRecord
100
AcDbRegAppTableRecord
  2
AcSynergy
 70
     0
  0
APPID
  5
8F
330
9
100
AcDbSymbolTableRecord
100
AcDbRegAppTableRecord
  2
GENIUS_GENSCREG_15
 70
     0
  0
APPID
  5
90
330
9
100
AcDbSymbolTableRecord
100
AcDbRegAppTableRecord
  2
GENIUS_GENOBJ-N-SDF_13
 70
     0
  0
APPID
  5
91
330
9
100
AcDbSymbolTableRecord
100
AcDbRegAppTableRecord
  2
GENIUS_GENODEF_13
 70
     0
  0
APPID
  5
92
330
9
100
AcDbSymbolTableRecord
100
AcDbRegAppTableRecord
  2
ACAD_DIMASSOC_CALC_DIMLFAC
 70
     0
  0
APPID
  5
93
330
9
100
AcDbSymbolTableRecord
100
AcDbRegAppTableRecord
  2
ACAD_DIMASSOC_DIMLFAC
 70
     0
  0
APPID
  5
94
330
9
100
AcDbSymbolTableRecord
100
AcDbRegAppTableRecord
  2
ACAD_DIMASSOC_OVERRIDDEN_DIMLFAC
 70
     0
  0
APPID
  5
95
330
9
100
AcDbSymbolTableRecord
100
AcDbRegAppTableRecord
  2
ACAD_DSTYLE_DIMJAG_POSITION
 70
     0
  0
APPID
  5
96
330
9
100
AcDbSymbolTableRecord
100
AcDbRegAppTableRecord
  2
UPPER_TOLERANCE
 70
     0
  0
APPID
  5
97
330
9
100
AcDbSymbolTableRecord
100
AcDbRegAppTableRecord
  2
LOWER_TOLERANCE
 70
     0
  0
APPID
  5
98
330
9
100
AcDbSymbolTableRecord
100
AcDbRegAppTableRecord
  2
ACATTRIBSERVICES
 70
     0
  0
ENDTAB
  0
TABLE
  2
DIMSTYLE
  5
A
330
0
100
AcDbSymbolTable
 70
     3
100
AcDbDimStyleTable
 71
     1
340
A6
  0
DIMSTYLE
105
58
330
A
100
AcDbSymbolTableRecord
100
AcDbDimStyleTableRecord
  2
Standard
 70
     0
  4
mm
 41
0.12
 42
0.07
 43
0.36
 44
0.07
 47
0.01
 48
0.01
 78
    12
 79
     3
 90
        1
140
0.12
141
0.0
147
0.05
176
   256
177
   256
178
   256
179
     2
271
     2
272
     2
284
    12
285
    12
286
    12
340
55
  0
DIMSTYLE
105
59
330
A
100
AcDbSymbolTableRecord
100
AcDbDimStyleTableRecord
  2
Annotative
 70
     0
 40
0.0
 41
0.12
 42
0.07
 43
0.36
 44
0.07
 78
    12
 79
     3
140
0.12
147
0.05
179
     2
271
     2
272
     2
284
    12
285
    12
286
    12
340
55
1001
AcadAnnotative
1000
AnnotativeData
1002
{
1070
     1
1070
     1
1002
}
  0
DIMSTYLE
105
A6
330
A
100
AcDbSymbolTableRecord
100
AcDbDimStyleTableRecord
  2
Dim-Standard
 70
     0
  4
mm
 41
0.12
 42
0.07
 43
0.36
 44
0.07
 47
0.01
 48
0.01
 78
    12
 79
     3
 90
        1
140
0.12
141
0.0
143
1.0
144
25.4
147
0.05
179
     2
271
     2
272
     2
284
    12
285
    12
286
    12
340
55
1001
ACAD_DSTYLE_DIMJAG
1070
   388
1040
1.5
1001
ACAD_DSTYLE_DIMTALN
1070
   392
1070
     1
1001
ACAD_DSTYLE_DIMBREAK
1070
   391
1040
0.12
  0
ENDTAB
  0
TABLE
  2
BLOCK_RECORD
  5
1
330
0
100
AcDbSymbolTable
 70
     2
  0
BLOCK_RECORD
  5
70
102
{ACAD_XDICTIONARY
360
B7
102
}
330
1
100
AcDbSymbolTableRecord
100
AcDbBlockTableRecord
  2
*Model_Space
340
73
 70
     0
280
     1
281
     0
  0
BLOCK_RECORD
  5
6C
330
1
100
AcDbSymbolTableRecord
100
AcDbBlockTableRecord
  2
*Paper_Space
340
6F
 70
     0
280
     1
281
     0
  0
BLOCK_RECORD
  5
74
330
1
100
AcDbSymbolTableRecord
100
AcDbBlockTableRecord
  2
*Paper_Space0
340
77
 70
     0
280
     1
281
     0
  0
ENDTAB
  0
ENDSEC
  0
SECTION
  2
BLOCKS
  0
BLOCK
  5
71
330
70
100
AcDbEntity
  8
0
100
AcDbBlockBegin
  2
*Model_Space
 70
     0
 10
0.0
 20
0.0
 30
0.0
  3
*Model_Space
  1

  0
ENDBLK
  5
72
330
70
100
AcDbEntity
  8
0
100
AcDbBlockEnd
  0
BLOCK
  5
6D
330
6C
100
AcDbEntity
 67
     1
  8
0
100
AcDbBlockBegin
  2
*Paper_Space
 70
     0
 10
0.0
 20
0.0
 30
0.0
  3
*Paper_Space
  1

  0
ENDBLK
  5
6E
330
6C
100
AcDbEntity
 67
     1
  8
0
100
AcDbBlockEnd
  0
BLOCK
  5
75
330
74
100
AcDbEntity
 67
     1
  8
0
100
AcDbBlockBegin
  2
*Paper_Space0
 70
     0
 10
0.0
 20
0.0
 30
0.0
  3
*Paper_Space0
  1

  0
ENDBLK
  5
76
330
74
100
AcDbEntity
 67
     1
  8
0
100
AcDbBlockEnd
  0
ENDSEC
  0
SECTION
  2
ENTITIES
  0
IMAGE
  5
1EA
330
70
100
AcDbEntity
  8
GD&T Symbols
  6
Continuous
160
               140
310
8C00000001000000840000000600000005000000CAF57F50CACC4240008AAF3C1476DF3F0000000000000000CAF57F50CACC42407FE225EF5DF007400000000000000000B733102B049D45407FE225EF5DF007400000000000000000B733102B049D4540008AAF3C1476DF3F0000000000000000CAF57F50CACC4240008AAF
310
3C1476DF3F0000000000000000
370
     0
100
AcDbRasterImage
 90
        0
 10
37.599924
 20
0.491582
 30
0.0
 11
0.0062519617297179
 21
0.0
 31
0.0
 12
0.0
 22
0.0062519617297179
 32
0.0
 13
900.0
 23
400.0
340
1EC
 70
    15
280
     0
281
    50
282
    50
283
     0
290
     0
360
1EE
 71
     1
 91
        2
 14
-0.5
 24
-0.5
 14
899.5
 24
399.5
  0
MTEXT
  5
1F0
330
70
100
AcDbEntity
  8
Notes
100
AcDbMText
 10
38.026654
 20
4.650608
 30
0.0
 40
0.12
 41
3.896596
 46
0.0
 71
     1
 72
     5
  1
I recommend waiting to drill the holes until you have the acrylic panels cut and (carefully) using the acrylic panels as a pilot hole guide.\P\P\PDo not overtighten screws to avoid cracking acrylic.
 73
     1
 44
1.0
1001
ACAD
1000
ACAD_MTEXT_COLUMN_INFO_BEGIN
1070
    75
1070
     2
1070
    79
1070
     0
1070
    76
1070
     1
1070
    78
1070
     0
1070
    48
1040
3.896596
1070
    49
1040
0.6
1070
    50
1070
     1
1040
0.0
1000
ACAD_MTEXT_COLUMN_INFO_END
  0
ARC
  5
1F2
330
70
100
AcDbEntity
  8
Visible
100
AcDbCircle
 10
2.784816
 20
18.844406
 30
0.0
 40
0.0750000000000001
100
AcDbArc
 50
270.000392
 51
89.999608
  0
LINE
  5
1F3
330
70
100
AcDbEntity
  8
Visible
100
AcDbLine
 10
2.784816
 20
12.93199
 30
0.0
 11
2.784816
 21
9.78499
 31
0.0
210
0.0
220
1.0
230
0.0
  0
LINE
  5
1F4
330
70
100
AcDbEntity
  8
Visible
100
AcDbLine
 10
2.784816
 20
15.808789
 30
0.0
 11
2.784816
 21
14.756171
 31
0.0
210
0.0
220
1.0
230
0.0
  0
LINE
  5
1F5
330
70
100
AcDbEntity
  8
Visible
100
AcDbLine
 10
42.154895
 20
12.93199
 30
0.0
 11
42.154895
 21
9.78499
 31
0.0
210
0.0
220
1.0
230
0.0
  0
LINE
  5
1F6
330
70
100
AcDbEntity
  8
Visible
100
AcDbLine
 10
42.154895
 20
15.451569
 30
0.0
 11
42.154895
 21
14.784725
 31
0.0
210
0.0
220
1.0
230
0.0
  0
ARC
  5
1F7
330
70
100
AcDbEntity
  8
Visible
100
AcDbCircle
 10
4.903412
 20
22.382326
 30
0.0
 40
0.1377952755905512
100
AcDbArc
 50
180.0
 51
270.0
  0
LINE
  5
1F8
330
70
100
AcDbEntity
  8
Visible
100
AcDbLine
 10
4.903412
 20
22.244531
 30
0.0
 11
5.360761
 21
22.244531
 31
0.0
210
0.0
220
1.0
230
0.0
  0
ARC
  5
1F9
330
70
100
AcDbEntity
  8
Visible
100
AcDbCircle
 10
4.903412
 20
23.681539
 30
0.0
 40
0.1377952755905512
100
AcDbArc
 50
90.0
 51
180.0
  0
LINE
  5
1FA
330
70
100
AcDbEntity
  8
Visible
100
AcDbLine
 10
4.765617
 20
23.681539
 30
0.0
 11
4.765617
 21
22.382326
 31
0.0
210
0.0
220
1.0
230
0.0
  0
ARC
  5
1FB
330
70
100
AcDbEntity
  8
Visible
100
AcDbCircle
 10
-5.360761
 20
22.00831
 30
0.0
 40
0.2362204724409449
210
0.0000000000000001
220
0.0
230
-1.0
100
AcDbArc
 50
90.0
 51
180.0
  0
ARC
  5
1FC
330
70
100
AcDbEntity
  8
Visible
100
AcDbCircle
 10
-5.361727
 20
24.055554
 30
0.0
 40
0.2362204724409454
210
0.0000000000000001
220
0.0
230
-1.0
100
AcDbArc
 50
184.11833
 51
270.0
  0
ARC
  5
1FD
330
70
100
AcDbEntity
  8
Visible
100
AcDbCircle
 10
5.734777
 20
24.028694
 30
0.0
 40
0.1377952755905545
100
AcDbArc
 50
90.0
 51
175.88167
  0
ARC
  5
1FE
330
70
100
AcDbEntity
  8
Visible
100
AcDbCircle
 10
-18.627868
 20
25.237681
 30
0.0
 40
0.2362204724409449
210
0.0000000000000001
220
0.0
230
-1.0
100
AcDbArc
 50
270.0
 51
0.0
  0
LINE
  5
1FF
330
70
100
AcDbEntity
  8
Visible
100
AcDbLine
 10
18.975728
 20
25.001461
 30
0.0
 11
18.627868
 21
25.001461
 31
0.0
210
0.0
220
1.0
230
0.0
  0
ARC
  5
200
330
70
100
AcDbEntity
  8
Visible
100
AcDbCircle
 10
-18.975728
 20
25.237681
 30
0.0
 40
0.2362204724409449
210
0.0000000000000001
220
0.0
230
-1.0
100
AcDbArc
 50
180.0
 51
270.0
  0
LINE
  5
201
330
70
100
AcDbEntity
  8
Visible
100
AcDbLine
 10
19.211948
 20
25.881358
 30
0.0
 11
19.211948
 21
25.237681
 31
0.0
210
0.0
220
1.0
230
0.0
  0
ARC
  5
202
330
70
100
AcDbEntity
  8
Visible
100
AcDbCircle
 10
-33.761195
 20
10.436328
 30
0.0
 40
0.2362204724409449
210
0.0000000000000001
220
0.0
230
-1.0
100
AcDbArc
 50
90.0
 51
180.0
  0
LINE
  5
203
330
70
100
AcDbEntity
  8
Visible
100
AcDbLine
 10
32.380468
 20
10.672549
 30
0.0
 11
33.761195
 21
10.672549
 31
0.0
210
0.0
220
1.0
230
0.0
  0
ARC
  5
204
330
70
100
AcDbEntity
  8
Visible
100
AcDbCircle
 10
-33.761195
 20
13.293651
 30
0.0
 40
0.2362204724409449
210
0.0000000000000001
220
0.0
230
-1.0
100
AcDbArc
 50
180.0
 51
270.0
  0
LINE
  5
205
330
70
100
AcDbEntity
  8
Visible
100
AcDbLine
 10
33.761195
 20
13.057431
 30
0.0
 11
32.380468
 21
13.057431
 31
0.0
210
0.0
220
1.0
230
0.0
  0
CIRCLE
  5
206
330
70
100
AcDbEntity
  8
Visible
100
AcDbCircle
 10
-22.318802
 20
20.495021
 30
0.0
 40
0.0625
210
0.0000000000000001
220
0.0
230
-1.0
  0
CIRCLE
  5
207
330
70
100
AcDbEntity
  8
Visible
100
AcDbCircle
 10
-29.268944
 20
20.495021
 30
0.0
 40
0.0625000000000005
210
0.0000000000000001
220
0.0
230
-1.0
  0
CIRCLE
  5
208
330
70
100
AcDbEntity
  8
Visible
100
AcDbCircle
 10
-35.663753
 20
23.140502
 30
0.0
 40
0.0787401574803161
210
0.0000000000000001
220
0.0
230
-1.0
  0
CIRCLE
  5
209
330
70
100
AcDbEntity
  8
Visible
100
AcDbCircle
 10
-30.107454
 20
26.047588
 30
0.0
 40
0.0787401574803147
210
0.0000000000000001
220
0.0
230
-1.0
  0
CIRCLE
  5
20A
330
70
100
AcDbEntity
  8
Visible
100
AcDbCircle
 10
-29.268944
 20
18.526517
 30
0.0
 40
0.0625000000000005
210
0.0000000000000001
220
0.0
230
-1.0
  0
CIRCLE
  5
20B
330
70
100
AcDbEntity
  8
Visible
100
AcDbCircle
 10
-22.318802
 20
18.526517
 30
0.0
 40
0.0625
210
0.0000000000000001
220
0.0
230
-1.0
  0
CIRCLE
  5
20C
330
70
100
AcDbEntity
  8
Visible
100
AcDbCircle
 10
-22.318802
 20
24.502296
 30
0.0
 40
0.0625
210
0.0000000000000001
220
0.0
230
-1.0
  0
CIRCLE
  5
20D
330
70
100
AcDbEntity
  8
Visible
100
AcDbCircle
 10
-29.268944
 20
24.502296
 30
0.0
 40
0.0625000000000005
210
0.0000000000000001
220
0.0
230
-1.0
  0
CIRCLE
  5
20E
330
70
100
AcDbEntity
  8
Visible
100
AcDbCircle
 10
-30.107454
 20
23.140502
 30
0.0
 40
0.0787401574803147
210
0.0000000000000001
220
0.0
230
-1.0
  0
CIRCLE
  5
20F
330
70
100
AcDbEntity
  8
Visible
100
AcDbCircle
 10
-29.268944
 20
14.519242
 30
0.0
 40
0.0625000000000005
210
0.0000000000000001
220
0.0
230
-1.0
  0
CIRCLE
  5
210
330
70
100
AcDbEntity
  8
Visible
100
AcDbCircle
 10
-22.318802
 20
14.519242
 30
0.0
 40
0.0625
210
0.0000000000000001
220
0.0
230
-1.0
  0
CIRCLE
  5
211
330
70
100
AcDbEntity
  8
Visible
100
AcDbCircle
 10
5.701414
 20
10.098979
 30
0.0
 40
0.0849999999999991
  0
CIRCLE
  5
212
330
70
100
AcDbEntity
  8
Visible
100
AcDbCircle
 10
11.663841
 20
18.078988
 30
0.0
 40
0.0849999999999991
  0
CIRCLE
  5
213
330
70
100
AcDbEntity
  8
Visible
100
AcDbCircle
 10
3.759856
 20
15.58499
 30
0.0
 40
0.0849999999999991
  0
ARC
  5
214
330
70
100
AcDbEntity
  8
Visible
100
AcDbCircle
 10
14.004738
 20
17.412799
 30
0.0
 40
0.0850000000003856
100
AcDbArc
 50
90.20419
 51
270.208187
  0
ARC
  5
215
330
70
100
AcDbEntity
  8
Visible
100
AcDbCircle
 10
14.004744
 20
17.412799
 30
0.0
 40
0.0850000000000002
100
AcDbArc
 50
270.204203
 51
90.208174
  0
CIRCLE
  5
216
330
70
100
AcDbEntity
  8
Visible
100
AcDbCircle
 10
13.64573
 20
13.800686
 30
0.0
 40
0.0850000000000005
  0
ARC
  5
217
330
70
100
AcDbEntity
  8
Visible
100
AcDbCircle
 10
12.824731
 20
15.612807
 30
0.0
 40
0.0850000000000009
100
AcDbArc
 50
89.799184
 51
269.795079
  0
ARC
  5
218
330
70
100
AcDbEntity
  8
Visible
100
AcDbCircle
 10
12.824725
 20
15.612807
 30
0.0
 40
0.0850000000005317
100
AcDbArc
 50
269.799107
 51
89.795157
  0
CIRCLE
  5
219
330
70
100
AcDbEntity
  8
Visible
100
AcDbCircle
 10
3.628061
 20
22.950327
 30
0.0
 40
0.0850000000000019
  0
CIRCLE
  5
21A
330
70
100
AcDbEntity
  8
Visible
100
AcDbCircle
 10
41.823392
 20
10.10049
 30
0.0
 40
0.0849999999999991
  0
CIRCLE
  5
21B
330
70
100
AcDbEntity
  8
Visible
100
AcDbCircle
 10
8.399919
 20
25.518866
 30
0.0
 40
0.0849999999999991
  0
CIRCLE
  5
21C
330
70
100
AcDbEntity
  8
Visible
100
AcDbCircle
 10
41.839895
 20
13.13999
 30
0.0
 40
0.0849999999999991
  0
CIRCLE
  5
21D
330
70
100
AcDbEntity
  8
Visible
100
AcDbCircle
 10
11.819856
 20
15.58499
 30
0.0
 40
0.0850000000000005
  0
LINE
  5
21E
330
70
100
AcDbEntity
  8
Visible
100
AcDbLine
 10
31.399974
 20
15.762803
 30
0.0
 11
31.399974
 21
15.170362
 31
0.0
210
0.0
220
1.0
230
0.0
  0
ARC
  5
21F
330
70
100
AcDbEntity
  8
Visible
100
AcDbCircle
 10
31.524974
 20
15.762803
 30
0.0
 40
0.1249999999999996
100
AcDbArc
 50
175.219808
 51
180.0
  0
ARC
  5
220
330
70
100
AcDbEntity
  8
Visible
100
AcDbCircle
 10
31.524974
 20
16.512803
 30
0.0
 40
0.7500000000000005
100
AcDbArc
 50
279.560384
 51
260.439616
  0
ARC
  5
221
330
70
100
AcDbEntity
  8
Visible
100
AcDbCircle
 10
31.524974
 20
15.762803
 30
0.0
 40
0.1249999999999996
100
AcDbArc
 50
0.0
 51
4.780192
  0
LINE
  5
222
330
70
100
AcDbEntity
  8
Visible
100
AcDbLine
 10
31.649974
 20
15.170362
 30
0.0
 11
31.649974
 21
15.762803
 31
0.0
210
0.0
220
1.0
230
0.0
  0
ARC
  5
223
330
70
100
AcDbEntity
  8
Visible
100
AcDbCircle
 10
31.524974
 20
15.170362
 30
0.0
 40
0.1249999999999996
100
AcDbArc
 50
180.0
 51
0.0
  0
ARC
  5
224
330
70
100
AcDbEntity
  8
Visible
100
AcDbCircle
 10
4.765829
 20
11.622173
 30
0.0
 40
1.35
100
AcDbArc
 50
45.235015
 51
131.285447
  0
LINE
  5
225
330
70
100
AcDbEntity
  8
Visible
100
AcDbLine
 10
7.10897
 20
12.580675
 30
0.0
 11
5.7165
 21
12.580675
 31
0.0
210
0.0
220
1.0
230
0.0
  0
LINE
  5
226
330
70
100
AcDbEntity
  8
Visible
100
AcDbLine
 10
7.10897
 20
13.062683
 30
0.0
 11
7.10897
 21
12.580675
 31
0.0
210
0.0
220
1.0
230
0.0
  0
ARC
  5
227
330
70
100
AcDbEntity
  8
Visible
100
AcDbCircle
 10
7.23397
 20
13.062683
 30
0.0
 40
0.1250000000000066
100
AcDbArc
 50
90.0
 51
180.0
  0
LINE
  5
228
330
70
100
AcDbEntity
  8
Visible
100
AcDbLine
 10
12.88765
 20
13.187683
 30
0.0
 11
7.23397
 21
13.187683
 31
0.0
210
0.0
220
1.0
230
0.0
  0
LINE
  5
229
330
70
100
AcDbEntity
  8
Visible
100
AcDbLine
 10
12.88765
 20
12.589075
 30
0.0
 11
12.88765
 21
13.187683
 31
0.0
210
0.0
220
1.0
230
0.0
  0
LINE
  5
22A
330
70
100
AcDbEntity
  8
Visible
100
AcDbLine
 10
13.616391
 20
12.589075
 30
0.0
 11
12.88765
 21
12.589075
 31
0.0
210
0.0
220
1.0
230
0.0
  0
LINE
  5
22B
330
70
100
AcDbEntity
  8
Visible
100
AcDbLine
 10
13.616391
 20
13.187683
 30
0.0
 11
13.616391
 21
12.589075
 31
0.0
210
0.0
220
1.0
230
0.0
  0
LINE
  5
22C
330
70
100
AcDbEntity
  8
Visible
100
AcDbLine
 10
15.107097
 20
13.187683
 30
0.0
 11
13.616391
 21
13.187683
 31
0.0
210
0.0
220
1.0
230
0.0
  0
ARC
  5
22D
330
70
100
AcDbEntity
  8
Visible
100
AcDbCircle
 10
15.107097
 20
13.062683
 30
0.0
 40
0.1250000000000968
100
AcDbArc
 50
360.0
 51
90.0
  0
LINE
  5
22E
330
70
100
AcDbEntity
  8
Visible
100
AcDbLine
 10
15.232097
 20
11.687683
 30
0.0
 11
15.232097
 21
13.062683
 31
0.0
210
0.0
220
1.0
230
0.0
  0
LINE
  5
22F
330
70
100
AcDbEntity
  8
Visible
100
AcDbLine
 10
13.866391
 20
11.687683
 30
0.0
 11
15.232097
 21
11.687683
 31
0.0
210
0.0
220
1.0
230
0.0
  0
LINE
  5
230
330
70
100
AcDbEntity
  8
Visible
100
AcDbLine
 10
13.866391
 20
10.669075
 30
0.0
 11
13.866391
 21
11.687683
 31
0.0
210
0.0
220
1.0
230
0.0
  0
LINE
  5
231
330
70
100
AcDbEntity
  8
Visible
100
AcDbLine
 10
12.88765
 20
10.669075
 30
0.0
 11
13.866391
 21
10.669075
 31
0.0
210
0.0
220
1.0
230
0.0
  0
LINE
  5
232
330
70
100
AcDbEntity
  8
Visible
100
AcDbLine
 10
12.88765
 20
10.030055
 30
0.0
 11
12.88765
 21
10.669075
 31
0.0
210
0.0
220
1.0
230
0.0
  0
LINE
  5
233
330
70
100
AcDbEntity
  8
Visible
100
AcDbLine
 10
7.283142
 20
10.030055
 30
0.0
 11
12.88765
 21
10.030055
 31
0.0
210
0.0
220
1.0
230
0.0
  0
ARC
  5
234
330
70
100
AcDbEntity
  8
Visible
100
AcDbCircle
 10
7.283142
 20
10.155055
 30
0.0
 40
0.1250000000000188
100
AcDbArc
 50
180.0
 51
270.0
  0
LINE
  5
235
330
70
100
AcDbEntity
  8
Visible
100
AcDbLine
 10
7.158142
 20
10.660675
 30
0.0
 11
7.158142
 21
10.155055
 31
0.0
210
0.0
220
1.0
230
0.0
  0
LINE
  5
236
330
70
100
AcDbEntity
  8
Visible
100
AcDbLine
 10
5.713469
 20
10.660675
 30
0.0
 11
7.158142
 21
10.660675
 31
0.0
210
0.0
220
1.0
230
0.0
  0
ARC
  5
237
330
70
100
AcDbEntity
  8
Visible
100
AcDbCircle
 10
4.765829
 20
11.622173
 30
0.0
 40
1.35
100
AcDbArc
 50
228.725843
 51
314.58409
  0
LINE
  5
238
330
70
100
AcDbEntity
  8
Visible
100
AcDbLine
 10
3.875285
 20
10.660675
 30
0.0
 11
3.875285
 21
10.607565
 31
0.0
210
0.0
220
1.0
230
0.0
  0
LINE
  5
239
330
70
100
AcDbEntity
  8
Visible
100
AcDbLine
 10
3.875085
 20
12.580675
 30
0.0
 11
3.875285
 21
10.660675
 31
0.0
210
0.0
220
1.0
230
0.0
  0
LINE
  5
23A
330
70
100
AcDbEntity
  8
Visible
100
AcDbLine
 10
3.875085
 20
12.636606
 30
0.0
 11
3.875085
 21
12.580675
 31
0.0
210
0.0
220
1.0
230
0.0
  0
CIRCLE
  5
23B
330
70
100
AcDbEntity
  8
Visible
100
AcDbCircle
 10
8.399919
 20
21.509911
 30
0.0
 40
0.0849999999999991
  0
CIRCLE
  5
23C
330
70
100
AcDbEntity
  8
Visible
100
AcDbCircle
 10
22.24573
 20
13.800686
 30
0.0
 40
0.0850000000000008
  0
CIRCLE
  5
23D
330
70
100
AcDbEntity
  8
Visible
100
AcDbCircle
 10
8.04573
 20
13.800686
 30
0.0
 40
0.0850000000000019
  0
ARC
  5
23E
330
70
100
AcDbEntity
  8
Visible
100
AcDbCircle
 10
42.154895
 20
18.844406
 30
0.0
 40
0.0750000000000001
100
AcDbArc
 50
89.999168
 51
270.00083
  0
CIRCLE
  5
23F
330
70
100
AcDbEntity
  8
Visible
100
AcDbCircle
 10
32.101098
 20
17.421748
 30
0.0
 40
0.0850000000000005
  0
CIRCLE
  5
240
330
70
100
AcDbEntity
  8
Visible
100
AcDbCircle
 10
24.339687
 20
10.23544
 30
0.0
 40
0.0499999999999999
  0
CIRCLE
  5
241
330
70
100
AcDbEntity
  8
Visible
100
AcDbCircle
 10
13.09573
 20
13.800686
 30
0.0
 40
0.0850000000000005
  0
CIRCLE
  5
242
330
70
100
AcDbEntity
  8
Visible
100
AcDbCircle
 10
18.94573
 20
26.000686
 30
0.0
 40
0.0850000000000005
  0
CIRCLE
  5
243
330
70
100
AcDbEntity
  8
Visible
100
AcDbCircle
 10
24.725329
 20
12.026105
 30
0.0
 40
0.3749999999999998
  0
ARC
  5
244
330
70
100
AcDbEntity
  8
Visible
100
AcDbCircle
 10
12.824652
 20
17.412747
 30
0.0
 40
0.0849999999999999
100
AcDbArc
 50
89.796892
 51
269.79289
  0
ARC
  5
245
330
70
100
AcDbEntity
  8
Visible
100
AcDbCircle
 10
12.824646
 20
17.412747
 30
0.0
 40
0.085000000002849
100
AcDbArc
 50
269.796874
 51
89.792908
  0
CIRCLE
  5
246
330
70
100
AcDbEntity
  8
Visible
100
AcDbCircle
 10
18.430858
 20
25.95058
 30
0.0
 40
0.0849999999999998
  0
CIRCLE
  5
247
330
70
100
AcDbEntity
  8
Visible
100
AcDbCircle
 10
13.362797
 20
25.885207
 30
0.0
 40
0.0849999999999991
  0
CIRCLE
  5
248
330
70
100
AcDbEntity
  8
Visible
100
AcDbCircle
 10
3.759856
 20
14.58499
 30
0.0
 40
0.0849999999999991
  0
CIRCLE
  5
249
330
70
100
AcDbEntity
  8
Visible
100
AcDbCircle
 10
8.399919
 20
18.078988
 30
0.0
 40
0.0849999999999991
  0
CIRCLE
  5
24A
330
70
100
AcDbEntity
  8
Visible
100
AcDbCircle
 10
22.24573
 20
21.500686
 30
0.0
 40
0.0850000000000008
  0
CIRCLE
  5
24B
330
70
100
AcDbEntity
  8
Visible
100
AcDbCircle
 10
22.24573
 20
26.000686
 30
0.0
 40
0.0850000000000008
  0
CIRCLE
  5
24C
330
70
100
AcDbEntity
  8
Visible
100
AcDbCircle
 10
22.906287
 20
10.23544
 30
0.0
 40
0.05
  0
CIRCLE
  5
24D
330
70
100
AcDbEntity
  8
Visible
100
AcDbCircle
 10
11.819856
 20
14.58499
 30
0.0
 40
0.0850000000000005
  0
CIRCLE
  5
24E
330
70
100
AcDbEntity
  8
Visible
100
AcDbCircle
 10
17.94573
 20
13.800686
 30
0.0
 40
0.0850000000000005
  0
CIRCLE
  5
24F
330
70
100
AcDbEntity
  8
Visible
100
AcDbCircle
 10
15.144789
 20
18.078988
 30
0.0
 40
0.0850000000000005
  0
CIRCLE
  5
250
330
70
100
AcDbEntity
  8
Visible
100
AcDbCircle
 10
22.464681
 20
12.026105
 30
0.0
 40
0.275
  0
ARC
  5
251
330
70
100
AcDbEntity
  8
Visible
100
AcDbCircle
 10
14.004817
 20
15.612859
 30
0.0
 40
0.0850000000000004
100
AcDbArc
 50
89.998458
 51
270.002494
  0
ARC
  5
252
330
70
100
AcDbEntity
  8
Visible
100
AcDbCircle
 10
14.004823
 20
15.612859
 30
0.0
 40
0.0850000000000002
100
AcDbArc
 50
269.998458
 51
90.002494
  0
LINE
  5
253
330
70
100
AcDbEntity
  8
Visible
100
AcDbLine
 10
22.111842
 20
24.84515
 30
0.0
 11
22.275103
 21
24.84515
 31
0.0
210
0.0
220
1.0
230
0.0
  0
LINE
  5
254
330
70
100
AcDbEntity
  8
Visible
100
AcDbLine
 10
22.111842
 20
14.569144
 30
0.0
 11
22.111842
 21
24.84515
 31
0.0
210
0.0
220
1.0
230
0.0
  0
ARC
  5
255
330
70
100
AcDbEntity
  8
Visible
100
AcDbCircle
 10
21.611842
 20
14.569144
 30
0.0
 40
0.5000000000000001
100
AcDbArc
 50
270.0
 51
0.0
  0
LINE
  5
256
330
70
100
AcDbEntity
  8
Visible
100
AcDbLine
 10
15.744992
 20
14.069144
 30
0.0
 11
21.611842
 21
14.069144
 31
0.0
210
0.0
220
1.0
230
0.0
  0
ARC
  5
257
330
70
100
AcDbEntity
  8
Visible
100
AcDbCircle
 10
15.744992
 20
14.569144
 30
0.0
 40
0.4999999999999984
100
AcDbArc
 50
180.0
 51
270.0
  0
LINE
  5
258
330
70
100
AcDbEntity
  8
Visible
100
AcDbLine
 10
15.244992
 20
17.668213
 30
0.0
 11
15.244992
 21
14.569144
 31
0.0
210
0.0
220
1.0
230
0.0
  0
ARC
  5
259
330
70
100
AcDbEntity
  8
Visible
100
AcDbCircle
 10
15.269008
 20
17.668213
 30
0.0
 40
0.0240157480314961
100
AcDbArc
 50
90.0
 51
180.0
  0
LINE
  5
25A
330
70
100
AcDbEntity
  8
Visible
100
AcDbLine
 10
15.276501
 20
17.692229
 30
0.0
 11
15.269008
 21
17.692229
 31
0.0
210
0.0
220
1.0
230
0.0
  0
ARC
  5
25B
330
70
100
AcDbEntity
  8
Visible
100
AcDbCircle
 10
-15.276501
 20
17.716245
 30
0.0
 40
0.0240157480314947
210
0.0000000000000001
220
0.0
230
-1.0
100
AcDbArc
 50
180.0
 51
270.0
  0
LINE
  5
25C
330
70
100
AcDbEntity
  8
Visible
100
AcDbLine
 10
15.300516
 20
18.160218
 30
0.0
 11
15.300516
 21
17.716245
 31
0.0
210
0.0
220
1.0
230
0.0
  0
ARC
  5
25D
330
70
100
AcDbEntity
  8
Visible
100
AcDbCircle
 10
-15.224174
 20
18.160218
 30
0.0
 40
0.0763422310792257
210
0.0000000000000001
220
0.0
230
-1.0
100
AcDbArc
 50
90.0
 51
180.0
  0
LINE
  5
25E
330
70
100
AcDbEntity
  8
Visible
100
AcDbLine
 10
14.949092
 20
18.236561
 30
0.0
 11
15.224174
 21
18.236561
 31
0.0
210
0.0
220
1.0
230
0.0
  0
ARC
  5
25F
330
70
100
AcDbEntity
  8
Visible
100
AcDbCircle
 10
-14.949092
 20
18.141538
 30
0.0
 40
0.0950225390529585
210
0.0000000000000001
220
0.0
230
-1.0
100
AcDbArc
 50
0.0
 51
90.0
  0
LINE
  5
260
330
70
100
AcDbEntity
  8
Visible
100
AcDbLine
 10
14.854069
 20
18.047138
 30
0.0
 11
14.854069
 21
18.141538
 31
0.0
210
0.0
220
1.0
230
0.0
  0
ARC
  5
261
330
70
100
AcDbEntity
  8
Visible
100
AcDbCircle
 10
14.754069
 20
18.047138
 30
0.0
 40
0.1000000000000019
100
AcDbArc
 50
270.0
 51
0.0
  0
LINE
  5
262
330
70
100
AcDbEntity
  8
Visible
100
AcDbLine
 10
12.048038
 20
17.947138
 30
0.0
 11
14.754069
 21
17.947138
 31
0.0
210
0.0
220
1.0
230
0.0
  0
ARC
  5
263
330
70
100
AcDbEntity
  8
Visible
100
AcDbCircle
 10
12.048038
 20
18.047138
 30
0.0
 40
0.0999999999999991
100
AcDbArc
 50
180.0
 51
270.0
  0
LINE
  5
264
330
70
100
AcDbEntity
  8
Visible
100
AcDbLine
 10
11.948038
 20
18.200378
 30
0.0
 11
11.948038
 21
18.047138
 31
0.0
210
0.0
220
1.0
230
0.0
  0
ARC
  5
265
330
70
100
AcDbEntity
  8
Visible
100
AcDbCircle
 10
-11.848038
 20
18.200378
 30
0.0
 40
0.0999999999999936
210
0.0000000000000001
220
0.0
230
-1.0
100
AcDbArc
 50
90.0
 51
180.0
  0
LINE
  5
266
330
70
100
AcDbEntity
  8
Visible
100
AcDbLine
 10
11.476592
 20
18.300378
 30
0.0
 11
11.848038
 21
18.300378
 31
0.0
210
0.0
220
1.0
230
0.0
  0
ARC
  5
267
330
70
100
AcDbEntity
  8
Visible
100
AcDbCircle
 10
-11.476592
 20
18.200378
 30
0.0
 40
0.0999999999999936
210
0.0000000000000001
220
0.0
230
-1.0
100
AcDbArc
 50
0.0
 51
90.0
  0
LINE
  5
268
330
70
100
AcDbEntity
  8
Visible
100
AcDbLine
 10
11.376592
 20
18.069144
 30
0.0
 11
11.376592
 21
18.200378
 31
0.0
210
0.0
220
1.0
230
0.0
  0
ARC
  5
269
330
70
100
AcDbEntity
  8
Visible
100
AcDbCircle
 10
11.276592
 20
18.069144
 30
0.0
 40
0.1000000000000019
100
AcDbArc
 50
270.0
 51
360.0
  0
LINE
  5
26A
330
70
100
AcDbEntity
  8
Visible
100
AcDbLine
 10
8.959455
 20
17.969144
 30
0.0
 11
11.276592
 21
17.969144
 31
0.0
210
0.0
220
1.0
230
0.0
  0
LINE
  5
26B
330
70
100
AcDbEntity
  8
Visible
100
AcDbLine
 10
8.506301
 20
18.180453
 30
0.0
 11
8.959455
 21
17.969144
 31
0.0
210
0.0
220
1.0
230
0.0
  0
LINE
  5
26C
330
70
100
AcDbEntity
  8
Visible
100
AcDbLine
 10
8.294992
 20
18.633607
 30
0.0
 11
8.506301
 21
18.180453
 31
0.0
210
0.0
220
1.0
230
0.0
  0
LINE
  5
26D
330
70
100
AcDbEntity
  8
Visible
100
AcDbLine
 10
8.294992
 20
21.163529
 30
0.0
 11
8.294992
 21
18.633607
 31
0.0
210
0.0
220
1.0
230
0.0
  0
ARC
  5
26E
330
70
100
AcDbEntity
  8
Visible
100
AcDbCircle
 10
8.394992
 20
21.163529
 30
0.0
 40
0.1000000000000774
100
AcDbArc
 50
90.0
 51
180.0
  0
LINE
  5
26F
330
70
100
AcDbEntity
  8
Visible
100
AcDbLine
 10
8.592874
 20
21.263529
 30
0.0
 11
8.394992
 21
21.263529
 31
0.0
210
0.0
220
1.0
230
0.0
  0
ARC
  5
270
330
70
100
AcDbEntity
  8
Visible
100
AcDbCircle
 10
-8.592874
 20
21.363529
 30
0.0
 40
0.0999999999999973
210
0.0000000000000001
220
0.0
230
-1.0
100
AcDbArc
 50
179.999641
 51
270.0
  0
LINE
  5
271
330
70
100
AcDbEntity
  8
Visible
100
AcDbLine
 10
8.692873
 20
21.619889
 30
0.0
 11
8.692874
 21
21.36353
 31
0.0
210
0.0
220
1.0
230
0.0
  0
ARC
  5
272
330
70
100
AcDbEntity
  8
Visible
100
AcDbCircle
 10
-8.592873
 20
21.619888
 30
0.0
 40
0.0999999999999963
210
0.0000000000000001
220
0.0
230
-1.0
100
AcDbArc
 50
90.0
 51
179.999641
  0
LINE
  5
273
330
70
100
AcDbEntity
  8
Visible
100
AcDbLine
 10
8.394992
 20
21.719888
 30
0.0
 11
8.592873
 21
21.719888
 31
0.0
210
0.0
220
1.0
230
0.0
  0
ARC
  5
274
330
70
100
AcDbEntity
  8
Visible
100
AcDbCircle
 10
8.394992
 20
21.819888
 30
0.0
 40
0.099999999999974
100
AcDbArc
 50
180.0
 51
270.0
  0
LINE
  5
275
330
70
100
AcDbEntity
  8
Visible
100
AcDbLine
 10
8.294992
 20
24.731792
 30
0.0
 11
8.294992
 21
21.819888
 31
0.0
210
0.0
220
1.0
230
0.0
  0
ARC
  5
276
330
70
100
AcDbEntity
  8
Visible
100
AcDbCircle
 10
8.794992
 20
24.731792
 30
0.0
 40
0.5000000000000011
100
AcDbArc
 50
90.552794
 51
180.0
  0
LINE
  5
277
330
70
100
AcDbEntity
  8
Visible
100
AcDbLine
 10
14.093192
 20
25.231768
 30
0.0
 11
8.790168
 21
25.231768
 31
0.0
210
0.0
220
1.0
230
0.0
  0
LINE
  5
278
330
70
100
AcDbEntity
  8
Visible
100
AcDbLine
 10
14.093192
 20
25.974082
 30
0.0
 11
14.093192
 21
25.231768
 31
0.0
210
0.0
220
1.0
230
0.0
  0
LINE
  5
279
330
70
100
AcDbEntity
  8
Visible
100
AcDbLine
 10
17.764605
 20
25.974082
 30
0.0
 11
14.093192
 21
25.974082
 31
0.0
210
0.0
220
1.0
230
0.0
  0
LINE
  5
27A
330
70
100
AcDbEntity
  8
Visible
100
AcDbLine
 10
17.764605
 20
25.75987
 30
0.0
 11
17.764605
 21
25.974082
 31
0.0
210
0.0
220
1.0
230
0.0
  0
LINE
  5
27B
330
70
100
AcDbEntity
  8
Visible
100
AcDbLine
 10
18.391648
 20
25.75987
 30
0.0
 11
17.764605
 21
25.75987
 31
0.0
210
0.0
220
1.0
230
0.0
  0
LINE
  5
27C
330
70
100
AcDbEntity
  8
Visible
100
AcDbLine
 10
18.391648
 20
25.237681
 30
0.0
 11
18.391648
 21
25.75987
 31
0.0
210
0.0
220
1.0
230
0.0
  0
LINE
  5
27D
330
70
100
AcDbEntity
  8
Visible
100
AcDbLine
 10
22.275103
 20
25.881358
 30
0.0
 11
19.211948
 21
25.881358
 31
0.0
210
0.0
220
1.0
230
0.0
  0
LINE
  5
27E
330
70
100
AcDbEntity
  8
Visible
100
AcDbLine
 10
22.275103
 20
24.84515
 30
0.0
 11
22.275103
 21
25.881358
 31
0.0
210
0.0
220
1.0
230
0.0
  0
CIRCLE
  5
27F
330
70
100
AcDbEntity
  8
Visible
100
AcDbCircle
 10
29.44573
 20
16.200686
 30
0.0
 40
0.0850000000000005
  0
CIRCLE
  5
280
330
70
100
AcDbEntity
  8
Visible
100
AcDbCircle
 10
22.24573
 20
17.850686
 30
0.0
 40
0.0850000000000008
  0
LINE
  5
281
330
70
100
AcDbEntity
  8
Visible
100
AcDbLine
 10
28.943873
 20
25.486548
 30
0.0
 11
22.643873
 21
25.486548
 31
0.0
210
0.0
220
1.0
230
0.0
  0
LINE
  5
282
330
70
100
AcDbEntity
  8
Visible
100
AcDbLine
 10
28.943873
 20
13.53499
 30
0.0
 11
28.943873
 21
25.486548
 31
0.0
210
0.0
220
1.0
230
0.0
  0
LINE
  5
283
330
70
100
AcDbEntity
  8
Visible
100
AcDbLine
 10
22.643873
 20
13.53499
 30
0.0
 11
28.943873
 21
13.53499
 31
0.0
210
0.0
220
1.0
230
0.0
  0
LINE
  5
284
330
70
100
AcDbEntity
  8
Visible
100
AcDbLine
 10
22.643873
 20
25.486548
 30
0.0
 11
22.643873
 21
13.53499
 31
0.0
210
0.0
220
1.0
230
0.0
  0
CIRCLE
  5
285
330
70
100
AcDbEntity
  8
Visible
100
AcDbCircle
 10
29.44573
 20
13.800686
 30
0.0
 40
0.0850000000000005
  0
CIRCLE
  5
286
330
70
100
AcDbEntity
  8
Visible
100
AcDbCircle
 10
29.44573
 20
16.800686
 30
0.0
 40
0.0850000000000005
  0
CIRCLE
  5
287
330
70
100
AcDbEntity
  8
Visible
100
AcDbCircle
 10
29.44573
 20
21.500686
 30
0.0
 40
0.0850000000000005
  0
CIRCLE
  5
288
330
70
100
AcDbEntity
  8
Visible
100
AcDbCircle
 10
41.901082
 20
14.312958
 30
0.0
 40
0.0850000000000019
  0
CIRCLE
  5
289
330
70
100
AcDbEntity
  8
Visible
100
AcDbCircle
 10
31.29573
 20
13.800686
 30
0.0
 40
0.0850000000000005
  0
CIRCLE
  5
28A
330
70
100
AcDbEntity
  8
Visible
100
AcDbCircle
 10
30.94885
 20
15.603858
 30
0.0
 40
0.0850000000000005
  0
CIRCLE
  5
28B
330
70
100
AcDbEntity
  8
Visible
100
AcDbCircle
 10
29.370892
 20
25.923313
 30
0.0
 40
0.0850000000000005
  0
CIRCLE
  5
28C
330
70
100
AcDbEntity
  8
Visible
100
AcDbCircle
 10
32.128802
 20
15.622021
 30
0.0
 40
0.0850000000000005
  0
CIRCLE
  5
28D
330
70
100
AcDbEntity
  8
Visible
100
AcDbCircle
 10
33.58169
 20
25.821109
 30
0.0
 40
0.0850000000000005
  0
CIRCLE
  5
28E
330
70
100
AcDbEntity
  8
Visible
100
AcDbCircle
 10
37.751606
 20
25.269209
 30
0.0
 40
0.0850000000000019
  0
CIRCLE
  5
28F
330
70
100
AcDbEntity
  8
Visible
100
AcDbCircle
 10
41.125657
 20
14.954976
 30
0.0
 40
0.0850000000000019
  0
CIRCLE
  5
290
330
70
100
AcDbEntity
  8
Visible
100
AcDbCircle
 10
30.921146
 20
17.403584
 30
0.0
 40
0.0850000000000005
  0
CIRCLE
  5
291
330
70
100
AcDbEntity
  8
Visible
100
AcDbCircle
 10
38.54573
 20
13.800686
 30
0.0
 40
0.0850000000000019
  0
CIRCLE
  5
292
330
70
100
AcDbEntity
  8
Visible
100
AcDbCircle
 10
41.901082
 20
21.512958
 30
0.0
 40
0.0850000000000019
  0
CIRCLE
  5
293
330
70
100
AcDbEntity
  8
Visible
100
AcDbCircle
 10
35.24573
 20
13.800686
 30
0.0
 40
0.0850000000000019
  0
CIRCLE
  5
294
330
70
100
AcDbEntity
  8
Visible
100
AcDbCircle
 10
31.89573
 20
13.800686
 30
0.0
 40
0.0850000000000005
  0
CIRCLE
  5
295
330
70
100
AcDbEntity
  8
Visible
100
AcDbCircle
 10
38.145657
 20
14.954976
 30
0.0
 40
0.0850000000000019
  0
LINE
  5
296
330
70
100
AcDbEntity
  8
Visible
100
AcDbLine
 10
13.289738
 20
15.762803
 30
0.0
 11
13.289738
 21
15.170362
 31
0.0
210
0.0
220
1.0
230
0.0
  0
ARC
  5
297
330
70
100
AcDbEntity
  8
Visible
100
AcDbCircle
 10
13.414738
 20
15.762803
 30
0.0
 40
0.1249999999999996
100
AcDbArc
 50
175.219828
 51
180.0
  0
ARC
  5
298
330
70
100
AcDbEntity
  8
Visible
100
AcDbCircle
 10
13.414738
 20
16.512803
 30
0.0
 40
0.7500000000000004
100
AcDbArc
 50
279.560403
 51
260.439636
  0
ARC
  5
299
330
70
100
AcDbEntity
  8
Visible
100
AcDbCircle
 10
13.414738
 20
15.762803
 30
0.0
 40
0.1249999999999996
100
AcDbArc
 50
0.0
 51
4.780211
  0
LINE
  5
29A
330
70
100
AcDbEntity
  8
Visible
100
AcDbLine
 10
13.539738
 20
15.170362
 30
0.0
 11
13.539738
 21
15.762803
 31
0.0
210
0.0
220
1.0
230
0.0
  0
ARC
  5
29B
330
70
100
AcDbEntity
  8
Visible
100
AcDbCircle
 10
13.414738
 20
15.170362
 30
0.0
 40
0.1249999999999996
100
AcDbArc
 50
180.0
 51
0.0
  0
LINE
  5
29C
330
70
100
AcDbEntity
  8
Visible
100
AcDbLine
 10
3.859856
 20
15.83499
 30
0.0
 11
3.859856
 21
14.33499
 31
0.0
210
0.0
220
1.0
230
0.0
  0
LINE
  5
29D
330
70
100
AcDbEntity
  8
Visible
100
AcDbLine
 10
11.719856
 20
15.83499
 30
0.0
 11
3.859856
 21
15.83499
 31
0.0
210
0.0
220
1.0
230
0.0
  0
LINE
  5
29E
330
70
100
AcDbEntity
  8
Visible
100
AcDbLine
 10
11.719856
 20
14.33499
 30
0.0
 11
11.719856
 21
15.83499
 31
0.0
210
0.0
220
1.0
230
0.0
  0
LINE
  5
29F
330
70
100
AcDbEntity
  8
Visible
100
AcDbLine
 10
3.859856
 20
14.33499
 30
0.0
 11
11.719856
 21
14.33499
 31
0.0
210
0.0
220
1.0
230
0.0
  0
CIRCLE
  5
2A0
330
70
100
AcDbEntity
  8
Visible
100
AcDbCircle
 10
17.671816
 20
13.14049
 30
0.0
 40
0.0850000000000005
  0
CIRCLE
  5
2A1
330
70
100
AcDbEntity
  8
Visible
100
AcDbCircle
 10
17.671816
 20
10.10049
 30
0.0
 40
0.0850000000000005
  0
CIRCLE
  5
2A2
330
70
100
AcDbEntity
  8
Visible
100
AcDbCircle
 10
3.031277
 20
14.406231
 30
0.0
 40
0.0850000000000019
  0
CIRCLE
  5
2A3
330
70
100
AcDbEntity
  8
Visible
100
AcDbCircle
 10
7.918466
 20
25.48881
 30
0.0
 40
0.0850000000000019
  0
CIRCLE
  5
2A4
330
70
100
AcDbEntity
  8
Visible
100
AcDbCircle
 10
28.567938
 20
12.566187
 30
0.0
 40
0.0750000000000001
  0
LINE
  5
2A5
330
70
100
AcDbEntity
  8
Visible
100
AcDbLine
 10
7.905507
 20
24.166489
 30
0.0
 11
5.734777
 21
24.166489
 31
0.0
210
0.0
220
1.0
230
0.0
  0
ARC
  5
2A6
330
70
100
AcDbEntity
  8
Visible
100
AcDbCircle
 10
7.905507
 20
24.028694
 30
0.0
 40
0.1377952755905573
100
AcDbArc
 50
0.0
 51
90.0
  0
LINE
  5
2A7
330
70
100
AcDbEntity
  8
Visible
100
AcDbLine
 10
8.043302
 20
16.131148
 30
0.0
 11
8.043302
 21
24.028694
 31
0.0
210
0.0
220
1.0
230
0.0
  0
ARC
  5
2A8
330
70
100
AcDbEntity
  8
Visible
100
AcDbCircle
 10
7.905507
 20
16.131148
 30
0.0
 40
0.1377952755905545
100
AcDbArc
 50
270.0
 51
360.0
  0
LINE
  5
2A9
330
70
100
AcDbEntity
  8
Visible
100
AcDbLine
 10
3.234248
 20
15.993353
 30
0.0
 11
7.905507
 21
15.993353
 31
0.0
210
0.0
220
1.0
230
0.0
  0
ARC
  5
2AA
330
70
100
AcDbEntity
  8
Visible
100
AcDbCircle
 10
3.234248
 20
16.131148
 30
0.0
 40
0.1377952755905538
100
AcDbArc
 50
180.0
 51
270.0
  0
LINE
  5
2AB
330
70
100
AcDbEntity
  8
Visible
100
AcDbLine
 10
3.096452
 20
21.203694
 30
0.0
 11
3.096452
 21
16.131148
 31
0.0
210
0.0
220
1.0
230
0.0
  0
ARC
  5
2AC
330
70
100
AcDbEntity
  8
Visible
100
AcDbCircle
 10
3.234248
 20
21.203694
 30
0.0
 40
0.1377952755905545
100
AcDbArc
 50
90.0
 51
180.0
  0
LINE
  5
2AD
330
70
100
AcDbEntity
  8
Visible
100
AcDbLine
 10
5.459187
 20
21.341489
 30
0.0
 11
3.234248
 21
21.341489
 31
0.0
210
0.0
220
1.0
230
0.0
  0
ARC
  5
2AE
330
70
100
AcDbEntity
  8
Visible
100
AcDbCircle
 10
-5.459187
 20
21.479284
 30
0.0
 40
0.1377952755905545
210
0.0000000000000001
220
0.0
230
-1.0
100
AcDbArc
 50
180.0
 51
270.0
  0
LINE
  5
2AF
330
70
100
AcDbEntity
  8
Visible
100
AcDbLine
 10
5.596982
 20
22.00831
 30
0.0
 11
5.596982
 21
21.479284
 31
0.0
210
0.0
220
1.0
230
0.0
  0
LINE
  5
2B0
330
70
100
AcDbEntity
  8
Visible
100
AcDbLine
 10
5.361727
 20
23.819334
 30
0.0
 11
4.903412
 21
23.819334
 31
0.0
210
0.0
220
1.0
230
0.0
  0
CIRCLE
  5
2B1
330
70
100
AcDbEntity
  8
Visible
100
AcDbCircle
 10
20.184816
 20
12.401131
 30
0.0
 40
0.0590551181102364
  0
CIRCLE
  5
2B2
330
70
100
AcDbEntity
  8
Visible
100
AcDbCircle
 10
20.184816
 20
9.844045
 30
0.0
 40
0.0590551181102364
  0
CIRCLE
  5
2B3
330
70
100
AcDbEntity
  8
Visible
100
AcDbCircle
 10
31.524974
 20
10.10049
 30
0.0
 40
0.0850000000000005
  0
CIRCLE
  5
2B4
330
70
100
AcDbEntity
  8
Visible
100
AcDbCircle
 10
31.524974
 20
13.14049
 30
0.0
 40
0.0850000000000005
  0
CIRCLE
  5
2B5
330
70
100
AcDbEntity
  8
Visible
100
AcDbCircle
 10
20.184816
 20
10.651131
 30
0.0
 40
0.0590551181102364
  0
CIRCLE
  5
2B6
330
70
100
AcDbEntity
  8
Visible
100
AcDbCircle
 10
20.184816
 20
11.594045
 30
0.0
 40
0.0590551181102364
  0
LINE
  5
2B7
330
70
100
AcDbEntity
  8
Visible
100
AcDbLine
 10
39.942846
 20
22.573054
 30
0.0
 11
39.137069
 21
22.573054
 31
0.0
210
0.0
220
1.0
230
0.0
  0
LINE
  5
2B8
330
70
100
AcDbEntity
  8
Visible
100
AcDbLine
 10
39.942846
 20
20.823054
 30
0.0
 11
39.942846
 21
22.573054
 31
0.0
210
0.0
220
1.0
230
0.0
  0
LINE
  5
2B9
330
70
100
AcDbEntity
  8
Visible
100
AcDbLine
 10
37.442846
 20
20.823054
 30
0.0
 11
39.942846
 21
20.823054
 31
0.0
210
0.0
220
1.0
230
0.0
  0
LINE
  5
2BA
330
70
100
AcDbEntity
  8
Visible
100
AcDbLine
 10
37.442846
 20
22.573054
 30
0.0
 11
37.442846
 21
20.823054
 31
0.0
210
0.0
220
1.0
230
0.0
  0
LINE
  5
2BB
330
70
100
AcDbEntity
  8
Visible
100
AcDbLine
 10
38.093762
 20
22.573054
 30
0.0
 11
37.442846
 21
22.573054
 31
0.0
210
0.0
220
1.0
230
0.0
  0
LINE
  5
2BC
330
70
100
AcDbEntity
  8
Visible
100
AcDbLine
 10
38.093762
 20
24.023666
 30
0.0
 11
38.093762
 21
22.573054
 31
0.0
210
0.0
220
1.0
230
0.0
  0
LINE
  5
2BD
330
70
100
AcDbEntity
  8
Visible
100
AcDbLine
 10
39.137069
 20
24.023666
 30
0.0
 11
38.093762
 21
24.023666
 31
0.0
210
0.0
220
1.0
230
0.0
  0
LINE
  5
2BE
330
70
100
AcDbEntity
  8
Visible
100
AcDbLine
 10
39.137069
 20
22.573054
 30
0.0
 11
39.137069
 21
24.023666
 31
0.0
210
0.0
220
1.0
230
0.0
  0
CIRCLE
  5
2BF
330
70
100
AcDbEntity
  8
Visible
100
AcDbCircle
 10
38.611558
 20
24.519807
 30
0.0
 40
0.0590551181102385
  0
CIRCLE
  5
2C0
330
70
100
AcDbEntity
  8
Visible
100
AcDbCircle
 10
20.184816
 20
11.997588
 30
0.0
 40
0.2165354330708661
  0
LINE
  5
2C1
330
70
100
AcDbEntity
  8
Visible
100
AcDbLine
 10
23.150547
 20
10.983471
 30
0.0
 11
23.150547
 21
9.487408
 31
0.0
210
0.0
220
1.0
230
0.0
  0
LINE
  5
2C2
330
70
100
AcDbEntity
  8
Visible
100
AcDbLine
 10
24.095428
 20
10.983471
 30
0.0
 11
23.150547
 21
10.983471
 31
0.0
210
0.0
220
1.0
230
0.0
  0
LINE
  5
2C3
330
70
100
AcDbEntity
  8
Visible
100
AcDbLine
 10
24.095428
 20
9.487408
 30
0.0
 11
24.095428
 21
10.983471
 31
0.0
210
0.0
220
1.0
230
0.0
  0
LINE
  5
2C4
330
70
100
AcDbEntity
  8
Visible
100
AcDbLine
 10
23.150547
 20
9.487408
 30
0.0
 11
24.095428
 21
9.487408
 31
0.0
210
0.0
220
1.0
230
0.0
  0
LINE
  5
2C5
330
70
100
AcDbEntity
  8
Visible
100
AcDbLine
 10
33.997415
 20
13.44247
 30
0.0
 11
33.997415
 21
13.293651
 31
0.0
210
0.0
220
1.0
230
0.0
  0
LINE
  5
2C6
330
70
100
AcDbEntity
  8
Visible
100
AcDbLine
 10
40.812376
 20
13.44247
 30
0.0
 11
33.997415
 21
13.44247
 31
0.0
210
0.0
220
1.0
230
0.0
  0
LINE
  5
2C7
330
70
100
AcDbEntity
  8
Visible
100
AcDbLine
 10
40.812376
 20
10.127509
 30
0.0
 11
40.812376
 21
13.44247
 31
0.0
210
0.0
220
1.0
230
0.0
  0
LINE
  5
2C8
330
70
100
AcDbEntity
  8
Visible
100
AcDbLine
 10
33.997415
 20
10.127509
 30
0.0
 11
40.812376
 21
10.127509
 31
0.0
210
0.0
220
1.0
230
0.0
  0
LINE
  5
2C9
330
70
100
AcDbEntity
  8
Visible
100
AcDbLine
 10
33.997415
 20
10.436328
 30
0.0
 11
33.997415
 21
10.127509
 31
0.0
210
0.0
220
1.0
230
0.0
  0
LINE
  5
2CA
330
70
100
AcDbEntity
  8
Visible
100
AcDbLine
 10
32.380468
 20
13.057431
 30
0.0
 11
32.380468
 21
10.672549
 31
0.0
210
0.0
220
1.0
230
0.0
  0
CIRCLE
  5
2CB
330
70
100
AcDbEntity
  8
Visible
100
AcDbCircle
 10
20.184816
 20
10.247588
 30
0.0
 40
0.2165354330708661
  0
LINE
  5
2CC
330
70
100
AcDbEntity
  8
Visible
100
AcDbLine
 10
37.019856
 20
22.03499
 30
0.0
 11
30.719856
 21
22.03499
 31
0.0
210
0.0
220
1.0
230
0.0
  0
LINE
  5
2CD
330
70
100
AcDbEntity
  8
Visible
100
AcDbLine
 10
37.019856
 20
18.03499
 30
0.0
 11
37.019856
 21
22.03499
 31
0.0
210
0.0
220
1.0
230
0.0
  0
LINE
  5
2CE
330
70
100
AcDbEntity
  8
Visible
100
AcDbLine
 10
30.719856
 20
18.03499
 30
0.0
 11
37.019856
 21
18.03499
 31
0.0
210
0.0
220
1.0
230
0.0
  0
LINE
  5
2CF
330
70
100
AcDbEntity
  8
Visible
100
AcDbLine
 10
30.719856
 20
22.03499
 30
0.0
 11
30.719856
 21
18.03499
 31
0.0
210
0.0
220
1.0
230
0.0
  0
CIRCLE
  5
2D0
330
70
100
AcDbEntity
  8
Visible
100
AcDbCircle
 10
16.91761
 20
10.100226
 30
0.0
 40
0.0850000000000005
  0
CIRCLE
  5
2D1
330
70
100
AcDbEntity
  8
Visible
100
AcDbCircle
 10
13.22761
 20
10.100226
 30
0.0
 40
0.0850000000000005
  0
CIRCLE
  5
2D2
330
70
100
AcDbEntity
  8
Visible
100
AcDbCircle
 10
16.91761
 20
13.140226
 30
0.0
 40
0.0850000000000005
  0
CIRCLE
  5
2D3
330
70
100
AcDbEntity
  8
Visible
100
AcDbCircle
 10
4.161414
 20
10.098979
 30
0.0
 40
0.0849999999999991
  0
CIRCLE
  5
2D4
330
70
100
AcDbEntity
  8
Visible
100
AcDbCircle
 10
4.161414
 20
13.138979
 30
0.0
 40
0.0849999999999991
  0
CIRCLE
  5
2D5
330
70
100
AcDbEntity
  8
Visible
100
AcDbCircle
 10
5.701414
 20
13.138979
 30
0.0
 40
0.0849999999999991
  0
CIRCLE
  5
2D6
330
70
100
AcDbEntity
  8
Visible
100
AcDbCircle
 10
13.22761
 20
13.140226
 30
0.0
 40
0.0850000000000005
  0
CIRCLE
  5
2D7
330
70
100
AcDbEntity
  8
Visible
100
AcDbCircle
 10
30.017938
 20
12.566187
 30
0.0
 40
0.0750000000000001
  0
CIRCLE
  5
2D8
330
70
100
AcDbEntity
  8
Visible
100
AcDbCircle
 10
30.017938
 20
10.566187
 30
0.0
 40
0.0750000000000001
  0
CIRCLE
  5
2D9
330
70
100
AcDbEntity
  8
Visible
100
AcDbCircle
 10
28.567938
 20
10.566187
 30
0.0
 40
0.0750000000000001
  0
LINE
  5
2DA
330
70
100
AcDbEntity
  8
Visible
100
AcDbLine
 10
30.326993
 20
11.216777
 30
0.0
 11
30.326993
 21
12.151817
 31
0.0
210
0.0
220
1.0
230
0.0
  0
LINE
  5
2DB
330
70
100
AcDbEntity
  8
Visible
100
AcDbLine
 10
29.972662
 20
11.216777
 30
0.0
 11
30.326993
 21
11.216777
 31
0.0
210
0.0
220
1.0
230
0.0
  0
LINE
  5
2DC
330
70
100
AcDbEntity
  8
Visible
100
AcDbLine
 10
29.972662
 20
10.911659
 30
0.0
 11
29.972662
 21
11.216777
 31
0.0
210
0.0
220
1.0
230
0.0
  0
LINE
  5
2DD
330
70
100
AcDbEntity
  8
Visible
100
AcDbLine
 10
29.716757
 20
10.911659
 30
0.0
 11
29.972662
 21
10.911659
 31
0.0
210
0.0
220
1.0
230
0.0
  0
LINE
  5
2DE
330
70
100
AcDbEntity
  8
Visible
100
AcDbLine
 10
29.716757
 20
10.739415
 30
0.0
 11
29.716757
 21
10.911659
 31
0.0
210
0.0
220
1.0
230
0.0
  0
LINE
  5
2DF
330
70
100
AcDbEntity
  8
Visible
100
AcDbLine
 10
29.415576
 20
10.739415
 30
0.0
 11
29.716757
 21
10.739415
 31
0.0
210
0.0
220
1.0
230
0.0
  0
LINE
  5
2E0
330
70
100
AcDbEntity
  8
Visible
100
AcDbLine
 10
29.415576
 20
10.889582
 30
0.0
 11
29.415576
 21
10.739415
 31
0.0
210
0.0
220
1.0
230
0.0
  0
LINE
  5
2E1
330
70
100
AcDbEntity
  8
Visible
100
AcDbLine
 10
28.628601
 20
10.889582
 30
0.0
 11
29.415576
 21
10.889582
 31
0.0
210
0.0
220
1.0
230
0.0
  0
LINE
  5
2E2
330
70
100
AcDbEntity
  8
Visible
100
AcDbLine
 10
28.628601
 20
11.302968
 30
0.0
 11
28.628601
 21
10.889582
 31
0.0
210
0.0
220
1.0
230
0.0
  0
LINE
  5
2E3
330
70
100
AcDbEntity
  8
Visible
100
AcDbLine
 10
27.8412
 20
11.302968
 30
0.0
 11
28.628601
 21
11.302968
 31
0.0
210
0.0
220
1.0
230
0.0
  0
LINE
  5
2E4
330
70
100
AcDbEntity
  8
Visible
100
AcDbLine
 10
27.8412
 20
12.011629
 30
0.0
 11
27.8412
 21
11.302968
 31
0.0
210
0.0
220
1.0
230
0.0
  0
LINE
  5
2E5
330
70
100
AcDbEntity
  8
Visible
100
AcDbLine
 10
28.628601
 20
12.011629
 30
0.0
 11
27.8412
 21
12.011629
 31
0.0
210
0.0
220
1.0
230
0.0
  0
LINE
  5
2E6
330
70
100
AcDbEntity
  8
Visible
100
AcDbLine
 10
28.628601
 20
12.346275
 30
0.0
 11
28.628601
 21
12.011629
 31
0.0
210
0.0
220
1.0
230
0.0
  0
LINE
  5
2E7
330
70
100
AcDbEntity
  8
Visible
100
AcDbLine
 10
29.234473
 20
12.346275
 30
0.0
 11
28.628601
 21
12.346275
 31
0.0
210
0.0
220
1.0
230
0.0
  0
LINE
  5
2E8
330
70
100
AcDbEntity
  8
Visible
100
AcDbLine
 10
29.234473
 20
12.540596
 30
0.0
 11
29.234473
 21
12.346275
 31
0.0
210
0.0
220
1.0
230
0.0
  0
LINE
  5
2E9
330
70
100
AcDbEntity
  8
Visible
100
AcDbLine
 10
29.716757
 20
12.540596
 30
0.0
 11
29.234473
 21
12.540596
 31
0.0
210
0.0
220
1.0
230
0.0
  0
LINE
  5
2EA
330
70
100
AcDbEntity
  8
Visible
100
AcDbLine
 10
29.716757
 20
12.368352
 30
0.0
 11
29.716757
 21
12.540596
 31
0.0
210
0.0
220
1.0
230
0.0
  0
LINE
  5
2EB
330
70
100
AcDbEntity
  8
Visible
100
AcDbLine
 10
29.972662
 20
12.368352
 30
0.0
 11
29.716757
 21
12.368352
 31
0.0
210
0.0
220
1.0
230
0.0
  0
LINE
  5
2EC
330
70
100
AcDbEntity
  8
Visible
100
AcDbLine
 10
29.972662
 20
12.151817
 30
0.0
 11
29.972662
 21
12.368352
 31
0.0
210
0.0
220
1.0
230
0.0
  0
LINE
  5
2ED
330
70
100
AcDbEntity
  8
Visible
100
AcDbLine
 10
30.326993
 20
12.151817
 30
0.0
 11
29.972662
 21
12.151817
 31
0.0
210
0.0
220
1.0
230
0.0
  0
LINE
  5
2EE
330
70
100
AcDbEntity
  8
Visible
100
AcDbLine
 10
18.222441
 20
9.78499
 30
0.0
 11
2.784816
 21
9.78499
 31
0.0
210
0.0
220
1.0
230
0.0
  0
SPLINE
  5
2EF
330
70
100
AcDbEntity
  8
Visible
100
AcDbSpline
210
0.0
220
0.0
230
1.0
 70
     8
 71
     3
 72
    18
 73
    14
 74
     0
 42
0.000000001
 43
0.0000000001
 40
0.0
 40
0.0
 40
0.0
 40
0.0
 40
0.9176391993764703
 40
0.9176391993764703
 40
1.926746466974662
 40
1.926746466974662
 40
3.392472474898927
 40
3.392472474898927
 40
4.093017314390532
 40
4.093017314390532
 40
4.419464771683824
 40
4.419464771683824
 40
4.727908975930459
 40
4.727908975930459
 40
4.727908975930459
 40
4.727908975930459
 10
19.71621771813989
 20
8.997588114893087
 30
-0.000000000001819
 10
19.59579262635816
 20
8.997588114893087
 30
-0.000000000001819
 10
19.48312781664936
 20
9.020597752922942
 30
-0.000000000001819
 10
19.24940701374362
 20
9.116977213213107
 30
-0.000000000001819
 10
19.13834959501219
 20
9.191264324167381
 30
-0.000000000001819
 10
18.88359876330469
 20
9.390624491287407
 30
-0.000000000001819
 10
18.74573995338505
 20
9.525139947075118
 30
-0.000000000001819
 10
18.54388542281412
 20
9.676769891643393
 30
-0.000000000001819
 10
18.4784871219872
 20
9.718797504400235
 30
-0.000000000001819
 10
18.38141711222124
 20
9.76031192999671
 30
-0.000000000001819
 10
18.34946055160253
 20
9.770917910538839
 30
-0.000000000001819
 10
18.28544345675982
 20
9.783889536588278
 30
-0.000000000001819
 10
18.25414539849044
 20
9.786547454541146
 30
-0.000000000001819
 10
18.22244104293168
 20
9.784989689696235
 30
-0.000000000001819
  0
LINE
  5
2F0
330
70
100
AcDbEntity
  8
Visible
100
AcDbLine
 10
25.223494
 20
8.997588
 30
0.0
 11
19.716218
 21
8.997588
 31
0.0
210
0.0
220
1.0
230
0.0
  0
SPLINE
  5
2F1
330
70
100
AcDbEntity
  8
Visible
100
AcDbSpline
210
0.0
220
0.0
230
1.0
 70
     8
 71
     3
 72
    18
 73
    14
 74
     0
 42
0.000000001
 43
0.0000000001
 40
0.0
 40
0.0
 40
0.0
 40
0.0
 40
0.3708986770350525
 40
0.3708986770350525
 40
0.871376294398011
 40
0.871376294398011
 40
1.9596972506872
 40
1.9596972506872
 40
2.776335464641223
 40
2.776335464641223
 40
3.183729430730514
 40
3.183729430730514
 40
3.602470422665084
 40
3.602470422665084
 40
3.602470422665084
 40
3.602470422665084
 10
26.7172705000321
 20
9.784989689696235
 30
-0.000000000001819
 10
26.6686547781228
 20
9.787378327880754
 30
-0.000000000001819
 10
26.6214239353958
 20
9.779820157057853
 30
-0.000000000001819
 10
26.51266537475021
 20
9.744984005168777
 30
-0.000000000001819
 10
26.45113240036153
 20
9.711529836473324
 30
-0.000000000001819
 10
26.25581035134201
 20
9.579561126428444
 30
-0.000000000001819
 10
26.1204467673906
 20
9.449501606302797
 30
-0.000000000001819
 10
25.8654220524877
 20
9.237995712351477
 30
-0.000000000001819
 10
25.75178371950824
 20
9.153767561655991
 30
-0.000000000001819
 10
25.56479559901527
 20
9.062807194585719
 30
-0.000000000001819
 10
25.5006180888231
 20
9.038793111385954
 30
-0.000000000001819
 10
25.3641956173924
 20
9.005619602556103
 30
-0.000000000001819
 10
25.29464950150578
 20
8.997588114893085
 30
-0.000000000001819
 10
25.22349404993474
 20
8.997588114893085
 30
-0.000000000001819
  0
LINE
  5
2F2
330
70
100
AcDbEntity
  8
Visible
100
AcDbLine
 10
42.154895
 20
9.78499
 30
0.0
 11
26.717271
 21
9.78499
 31
0.0
210
0.0
220
1.0
230
0.0
  0
LINE
  5
2F3
330
70
100
AcDbEntity
  8
Visible
100
AcDbLine
 10
42.154896
 20
18.769406
 30
0.0
 11
42.154896
 21
18.919406
 31
0.0
210
0.0
220
1.0
230
0.0
  0
LINE
  5
2F4
330
70
100
AcDbEntity
  8
Visible
100
AcDbLine
 10
2.784817
 20
18.769406
 30
0.0
 11
2.784817
 21
18.919406
 31
0.0
210
0.0
220
1.0
230
0.0
  0
ARC
  5
2F5
330
70
100
AcDbEntity
  8
Visible
100
AcDbCircle
 10
-2.447736
 20
15.28248
 30
0.0
 40
0.6249999999999999
210
0.0000000000000001
220
0.0
230
-1.0
100
AcDbArc
 50
237.36195
 51
122.63805
  0
LINE
  5
2F6
330
70
100
AcDbEntity
  8
Visible
100
AcDbLine
 10
42.154896
 20
12.93199
 30
0.0
 11
42.97044
 21
12.93199
 31
0.0
210
0.0
220
1.0
230
0.0
  0
LINE
  5
2F7
330
70
100
AcDbEntity
  8
Visible
100
AcDbLine
 10
42.97044
 20
12.93199
 30
0.0
 11
42.970413
 21
14.153295
 31
0.0
210
0.0
220
1.0
230
0.0
  0
LINE
  5
2F8
330
70
100
AcDbEntity
  8
Visible
100
AcDbLine
 10
42.970413
 20
14.153295
 30
0.0
 11
43.167948
 21
14.1533
 31
0.0
210
0.0
220
1.0
230
0.0
  0
LINE
  5
2F9
330
70
100
AcDbEntity
  8
Visible
100
AcDbLine
 10
43.167948
 20
14.1533
 30
0.0
 11
43.167835
 21
18.606624
 31
0.0
210
0.0
220
1.0
230
0.0
  0
LINE
  5
2FA
330
70
100
AcDbEntity
  8
Visible
100
AcDbLine
 10
43.167835
 20
18.606624
 30
0.0
 11
42.554895
 21
18.606608
 31
0.0
210
0.0
220
1.0
230
0.0
  0
LINE
  5
2FB
330
70
100
AcDbEntity
  8
Visible
100
AcDbLine
 10
42.554895
 20
21.387469
 30
0.0
 11
42.554895
 21
18.606608
 31
0.0
210
0.0
220
1.0
230
0.0
  0
SPLINE
  5
2FC
330
70
100
AcDbEntity
  8
Visible
100
AcDbSpline
210
0.0
220
0.0
230
1.0
 70
     8
 71
     3
 72
    14
 73
    10
 74
     0
 42
0.000000001
 43
0.0000000001
 40
0.0
 40
0.0
 40
0.0
 40
0.0
 40
0.1199591968775298
 40
0.1199591968775298
 40
0.1199591968775298
 40
0.2627295029019472
 40
0.2627295029019472
 40
0.2627295029019472
 40
0.3569102305753686
 40
0.3569102305753686
 40
0.3569102305753686
 40
0.3569102305753686
 10
42.55489544621741
 20
21.38746882300674
 30
-0.000000000001819
 10
42.55489544621741
 20
21.59173248105453
 30
-0.000000000001819
 10
42.52347590799764
 20
21.80813642430608
 30
-0.000000000001819
 10
42.46230037713758
 20
22.04363953823715
 30
-0.000000000001819
 10
42.38949187650177
 20
22.32392527306054
 30
-0.000000000001819
 10
42.27400020814639
 20
22.63147627138454
 30
-0.000000000001819
 10
42.09710384147547
 20
22.95897398864664
 30
-0.000000000001819
 10
41.98041130925594
 20
23.17501312298773
 30
-0.000000000001819
 10
41.83688703042753
 20
23.39960327993177
 30
-0.000000000001819
 10
41.65752058855287
 20
23.62667094252636
 30
-0.000000000001819
  0
ARC
  5
2FD
330
70
100
AcDbEntity
  8
Visible
100
AcDbCircle
 10
-41.533691
 20
24.000391
 30
0.0
 40
0.3937007874015748
210
0.0000000000000001
220
0.0
230
-1.0
100
AcDbArc
 50
251.667693
 51
23.273233
  0
SPLINE
  5
2FE
330
70
100
AcDbEntity
  8
Visible
100
AcDbSpline
210
0.0
220
0.0
230
1.0
 70
     8
 71
     3
 72
    20
 73
    16
 74
     0
 42
0.000000001
 43
0.0000000001
 40
0.4298599694786739
 40
0.4298599694786739
 40
0.4298599694786739
 40
0.4298599694786739
 40
0.4308374259644573
 40
0.4308374259644573
 40
0.4308374259644573
 40
0.5970915073736859
 40
0.5970915073736859
 40
0.5970915073736859
 40
0.798545753686843
 40
0.798545753686843
 40
0.798545753686843
 40
0.9224680617027008
 40
0.9224680617027008
 40
0.9224680617027008
 40
1.0
 40
1.0
 40
1.0
 40
1.0
 10
41.17202499060477
 20
24.15594836978907
 30
-0.000000000001819
 10
41.16953106353685
 20
24.15830701071483
 30
-0.000000000001819
 10
41.16703252402294
 20
24.16066541177632
 30
-0.000000000001819
 10
41.16452936198766
 20
24.16302356618392
 30
-0.000000000001819
 10
40.73877035293299
 20
24.5641184492385
 30
-0.000000000001819
 10
40.17956753008547
 20
24.95636233679335
 30
-0.000000000001819
 10
39.42273369559371
 20
25.30508918292
 30
-0.000000000001819
 10
38.50565912864658
 20
25.72765026148194
 30
-0.000000000001819
 10
37.29736277770462
 20
26.08648539304085
 30
-0.000000000001819
 10
35.65130345204489
 20
26.33517443148035
 30
-0.000000000001819
 10
34.63874861887598
 20
26.4881526892519
 30
-0.000000000001819
 10
33.45951959895137
 20
26.5995026734526
 30
-0.000000000001819
 10
32.08646086209046
 20
26.6617282220544
 30
-0.000000000001819
 10
31.22740725851327
 20
26.70065960956611
 30
-0.000000000001819
 10
30.29266694212856
 20
26.72042276056233
 30
-0.000000000001819
 10
29.27972340415363
 20
26.72042276056233
 30
-0.000000000001819
  0
LINE
  5
2FF
330
70
100
AcDbEntity
  8
Visible
100
AcDbLine
 10
15.659988
 20
26.720423
 30
0.0
 11
29.279723
 21
26.720423
 31
0.0
210
0.0
220
1.0
230
0.0
  0
SPLINE
  5
300
330
70
100
AcDbEntity
  8
Visible
100
AcDbSpline
210
0.0
220
0.0
230
1.0
 70
     8
 71
     3
 72
    26
 73
    22
 74
     0
 42
0.000000001
 43
0.0000000001
 40
0.0
 40
0.0
 40
0.0
 40
0.0
 40
0.1199591968775011
 40
0.1199591968775011
 40
0.1199591968775011
 40
0.2627295029019689
 40
0.2627295029019689
 40
0.2627295029019689
 40
0.4308374259647483
 40
0.4308374259647483
 40
0.4308374259647483
 40
0.5970915073738745
 40
0.5970915073738745
 40
0.5970915073738745
 40
0.7985457536869373
 40
0.7985457536869373
 40
0.7985457536869373
 40
0.9224680617027908
 40
0.9224680617027908
 40
0.9224680617027908
 40
1.0
 40
1.0
 40
1.0
 40
1.0
 10
2.384816321857215
 20
21.38746882300674
 30
-0.000000000001819
 10
2.384816321857215
 20
21.59173248105446
 30
-0.000000000001819
 10
2.416235860075175
 20
21.80813642430594
 30
-0.000000000001819
 10
2.47741139093523
 20
22.04363953823694
 30
-0.000000000001819
 10
2.550219891571032
 20
22.32392527306042
 30
-0.000000000001819
 10
2.665711559926421
 20
22.63147627138454
 30
-0.000000000001819
 10
2.842607926597338
 20
22.95897398864677
 30
-0.000000000001819
 10
3.050898303123176
 20
23.34459311765052
 30
-0.000000000001819
 10
3.344675905851545
 20
23.75745621307283
 30
-0.000000000001819
 10
3.775182406088788
 20
24.16302356618604
 30
-0.000000000001819
 10
4.200941415143461
 20
24.56411844924034
 30
-0.000000000001819
 10
4.760144237990971
 20
24.95636233679487
 30
-0.000000000001819
 10
5.516978072482743
 20
25.3050891829212
 30
-0.000000000001819
 10
6.434052639429864
 20
25.72765026148283
 30
-0.000000000001819
 10
7.642348990371829
 20
26.08648539304144
 30
-0.000000000001819
 10
9.288408316031564
 20
26.33517443148071
 30
-0.000000000001819
 10
10.30096314920047
 20
26.48815268925219
 30
-0.000000000001819
 10
11.48019216912689
 20
26.59950267345282
 30
-0.000000000001819
 10
12.85325090598599
 20
26.66172822205455
 30
-0.000000000001819
 10
13.71230450956318
 20
26.70065960956616
 30
-0.000000000001819
 10
14.64704482594607
 20
26.72042276056233
 30
-0.000000000001819
 10
15.659988363921
 20
26.72042276056233
 30
-0.000000000001819
  0
LINE
  5
301
330
70
100
AcDbEntity
  8
Visible
100
AcDbLine
 10
2.384817
 20
21.387469
 30
0.0
 11
2.384816
 21
18.607102
 31
0.0
210
0.0
220
1.0
230
0.0
  0
LINE
  5
302
330
70
100
AcDbEntity
  8
Visible
100
AcDbLine
 10
1.734674
 20
18.607102
 30
0.0
 11
2.384816
 21
18.607102
 31
0.0
210
0.0
220
1.0
230
0.0
  0
LINE
  5
303
330
70
100
AcDbEntity
  8
Visible
100
AcDbLine
 10
1.734674
 20
13.938209
 30
0.0
 11
1.734674
 21
18.607102
 31
0.0
210
0.0
220
1.0
230
0.0
  0
LINE
  5
304
330
70
100
AcDbEntity
  8
Visible
100
AcDbLine
 10
1.90488
 20
13.938209
 30
0.0
 11
1.734674
 21
13.938209
 31
0.0
210
0.0
220
1.0
230
0.0
  0
LINE
  5
305
330
70
100
AcDbEntity
  8
Visible
100
AcDbLine
 10
1.90488
 20
12.93199
 30
0.0
 11
1.90488
 21
13.938209
 31
0.0
210
0.0
220
1.0
230
0.0
  0
LINE
  5
306
330
70
100
AcDbEntity
  8
Visible
100
AcDbLine
 10
2.784817
 20
12.93199
 30
0.0
 11
1.90488
 21
12.93199
 31
0.0
210
0.0
220
1.0
230
0.0
  0
CIRCLE
  5
307
330
70
100
AcDbEntity
  8
Visible
100
AcDbCircle
 10
-38.339527
 20
25.476904
 30
0.0
 40
0.0590551181102362
210
0.0000000000000001
220
0.0
230
-1.0
  0
CIRCLE
  5
308
330
70
100
AcDbEntity
  8
Visible
100
AcDbCircle
 10
-27.784816
 20
26.484202
 30
0.0
 40
0.0590551181102362
210
0.0000000000000001
220
0.0
230
-1.0
  0
CIRCLE
  5
309
330
70
100
AcDbEntity
  8
Visible
100
AcDbCircle
 10
-18.921233
 20
26.602313
 30
0.0
 40
0.0590551181102362
210
0.0000000000000001
220
0.0
230
-1.0
  0
CIRCLE
  5
30A
330
70
100
AcDbEntity
  8
Visible
100
AcDbCircle
 10
-22.469856
 20
26.484202
 30
0.0
 40
0.0590551181102362
210
0.0000000000000001
220
0.0
230
-1.0
  0
CIRCLE
  5
30B
330
70
100
AcDbEntity
  8
Visible
100
AcDbCircle
 10
-33.099777
 20
26.367873
 30
0.0
 40
0.0590551181102362
210
0.0000000000000001
220
0.0
230
-1.0
  0
CIRCLE
  5
30C
330
70
100
AcDbEntity
  8
Visible
100
AcDbCircle
 10
-42.257673
 20
21.885673
 30
0.0
 40
0.0590551181102362
210
0.0000000000000001
220
0.0
230
-1.0
  0
CIRCLE
  5
30D
330
70
100
AcDbEntity
  8
Visible
100
AcDbCircle
 10
-35.663753
 20
26.047588
 30
0.0
 40
0.0787401574803161
210
0.0000000000000001
220
0.0
230
-1.0
  0
CIRCLE
  5
30E
330
70
100
AcDbEntity
  8
Visible
100
AcDbCircle
 10
2.312063
 20
17.127622
 30
0.0
 40
0.4250000000000012
  0
CIRCLE
  5
30F
330
70
100
AcDbEntity
  8
Visible
100
AcDbCircle
 10
42.594864
 20
18.18199
 30
0.0
 40
0.1500000000000001
  0
CIRCLE
  5
310
330
70
100
AcDbEntity
  8
Visible
100
AcDbCircle
 10
42.594864
 20
16.18199
 30
0.0
 40
0.1500000000000001
  0
CIRCLE
  5
311
330
70
100
AcDbEntity
  8
Visible
100
AcDbCircle
 10
42.594864
 20
13.93199
 30
0.0
 40
0.1500000000000001
  0
CIRCLE
  5
312
330
70
100
AcDbEntity
  8
Visible
100
AcDbCircle
 10
2.344849
 20
18.18199
 30
0.0
 40
0.1500000000000001
  0
CIRCLE
  5
313
330
70
100
AcDbEntity
  8
Visible
100
AcDbCircle
 10
2.344849
 20
16.18199
 30
0.0
 40
0.1500000000000001
  0
CIRCLE
  5
314
330
70
100
AcDbEntity
  8
Visible
100
AcDbCircle
 10
2.344849
 20
13.93199
 30
0.0
 40
0.1500000000000001
  0
CIRCLE
  5
315
330
70
100
AcDbEntity
  8
Visible
100
AcDbCircle
 10
-25.422612
 20
26.602313
 30
0.0
 40
0.0590551181102364
210
0.0000000000000001
220
0.0
230
-1.0
  0
CIRCLE
  5
316
330
70
100
AcDbEntity
  8
Visible
100
AcDbCircle
 10
-19.5171
 20
26.602313
 30
0.0
 40
0.0590551181102364
210
0.0000000000000001
220
0.0
230
-1.0
  0
CIRCLE
  5
317
330
70
100
AcDbEntity
  8
Visible
100
AcDbCircle
 10
6.600184
 20
25.476904
 30
0.0
 40
0.0590551181102362
  0
CIRCLE
  5
318
330
70
100
AcDbEntity
  8
Visible
100
AcDbCircle
 10
17.154895
 20
26.484202
 30
0.0
 40
0.0590551181102362
  0
CIRCLE
  5
319
330
70
100
AcDbEntity
  8
Visible
100
AcDbCircle
 10
11.839934
 20
26.367873
 30
0.0
 40
0.0590551181102362
  0
CIRCLE
  5
31A
330
70
100
AcDbEntity
  8
Visible
100
AcDbCircle
 10
2.682038
 20
21.885673
 30
0.0
 40
0.0590551181102362
  0
CIRCLE
  5
31B
330
70
100
AcDbEntity
  8
Visible
100
AcDbCircle
 10
9.275958
 20
26.047588
 30
0.0
 40
0.0787401574803161
  0
ARC
  5
31C
330
70
100
AcDbEntity
  8
Visible
100
AcDbCircle
 10
-42.527494
 20
15.118147
 30
0.0
 40
0.5000000000000005
210
0.0000000000000001
220
0.0
230
-1.0
100
AcDbArc
 50
41.823986
 51
318.176014
  0
ENDSEC
  0
SECTION
  2
OBJECTS
  0
DICTIONARY
  5
C
330
0
100
AcDbDictionary
281
     1
  3
ACAD_COLOR
350
63
  3
ACAD_DETAILVIEWSTYLE
350
6A
  3
ACAD_GROUP
350
D
  3
ACAD_IMAGE_DICT
350
1ED
  3
ACAD_IMAGE_VARS
350
1EF
  3
ACAD_LAYOUT
350
62
  3
ACAD_MATERIAL
350
10
  3
ACAD_MLEADERSTYLE
350
66
  3
ACAD_MLINESTYLE
350
5F
  3
ACAD_PLOTSETTINGS
350
61
  3
ACAD_PLOTSTYLENAME
350
E
  3
ACAD_SCALELIST
350
42
  3
ACAD_SECTIONVIEWSTYLE
350
68
  3
ACAD_TABLESTYLE
350
64
  3
ACAD_VISUALSTYLE
350
29
  3
ACDB_RECOMPOSE_DATA
350
327
  3
AcDbVariableDictionary
350
31E
  0
DICTIONARY
  5
B7
330
70
100
AcDbDictionary
280
     1
281
     1
  3
ACAD_SORTENTS
360
B8
  0
IMAGEDEF_REACTOR
  5
1EE
330
1EA
100
AcDbRasterImageDefReactor
 90
        2
330
1EA
  0
DICTIONARY
  5
63
102
{ACAD_REACTORS
330
C
102
}
330
C
100
AcDbDictionary
281
     1
  0
DICTIONARY
  5
6A
102
{ACAD_REACTORS
330
C
102
}
330
C
100
AcDbDictionary
281
     1
  3
Imperial24
350
6B
  0
DICTIONARY
  5
D
102
{ACAD_REACTORS
330
C
102
}
330
C
100
AcDbDictionary
281
     1
  0
DICTIONARY
  5
1ED
102
{ACAD_REACTORS
330
C
102
}
330
C
100
AcDbDictionary
281
     1
  3
Fancy Supporting the Project_1
350
1EC
  0
RASTERVARIABLES
  5
1EF
102
{ACAD_REACTORS
330
C
102
}
330
C
100
AcDbRasterVariables
 90
        0
 70
     0
 71
     1
 72
     5
  0
DICTIONARY
  5
62
102
{ACAD_REACTORS
330
C
102
}
330
C
100
AcDbDictionary
281
     1
  3
Model
350
73
  3
Sheet1
350
6F
  3
Sheet2
350
77
  0
DICTIONARY
  5
10
102
{ACAD_REACTORS
330
C
102
}
330
C
100
AcDbDictionary
281
     1
  3
ByBlock
350
19
  3
ByLayer
350
11
  3
Global
350
21
  0
DICTIONARY
  5
66
102
{ACAD_REACTORS
330
C
102
}
330
C
100
AcDbDictionary
281
     1
  3
Standard
350
67
  0
DICTIONARY
  5
5F
102
{ACAD_REACTORS
330
C
102
}
330
C
100
AcDbDictionary
281
     1
  3
Standard
350
60
  0
DICTIONARY
  5
61
102
{ACAD_REACTORS
330
C
102
}
330
C
100
AcDbDictionary
281
     1
  0
ACDBDICTIONARYWDFLT
  5
E
102
{ACAD_REACTORS
330
C
102
}
330
C
100
AcDbDictionary
281
     1
  3
Normal
350
F
100
AcDbDictionaryWithDefault
340
F
  0
DICTIONARY
  5
42
102
{ACAD_REACTORS
330
C
102
}
330
C
100
AcDbDictionary
281
     1
  3
*A1
350
A7
  3
*A10
350
B0
  3
*A11
350
B1
  3
*A12
350
B2
  3
*A13
350
B3
  3
*A14
350
B4
  3
*A15
350
B5
  3
*A16
350
B6
  3
*A2
350
A8
  3
*A3
350
A9
  3
*A4
350
AA
  3
*A5
350
AB
  3
*A6
350
AC
  3
*A7
350
AD
  3
*A8
350
AE
  3
*A9
350
AF
  3
A0
350
43
  3
A1
350
44
  3
A2
350
45
  3
A3
350
46
  3
A4
350
47
  3
A5
350
48
  3
A6
350
49
  3
A7
350
4A
  3
A8
350
4B
  3
A9
350
4C
  3
B0
350
4D
  3
B1
350
4E
  3
B2
350
4F
  3
B3
350
50
  3
B4
350
51
  3
B5
350
52
  3
B6
350
53
  0
DICTIONARY
  5
68
102
{ACAD_REACTORS
330
C
102
}
330
C
100
AcDbDictionary
281
     1
  3
Imperial24
350
69
  0
DICTIONARY
  5
64
102
{ACAD_REACTORS
330
C
102
}
330
C
100
AcDbDictionary
281
     1
  3
Standard
350
65
  0
DICTIONARY
  5
29
102
{ACAD_REACTORS
330
C
102
}
330
C
100
AcDbDictionary
281
     1
  3
2dWireframe
350
2F
  3
Basic
350
2E
  3
Brighten
350
35
  3
ColorChange
350
39
  3
Conceptual
350
32
  3
Dim
350
34
  3
EdgeColorOff
350
41
  3
Facepattern
350
38
  3
Flat
350
2A
  3
FlatWithEdges
350
2B
  3
Gouraud
350
2C
  3
GouraudWithEdges
350
2D
  3
Hidden
350
31
  3
JitterOff
350
3F
  3
Linepattern
350
37
  3
OverhangOff
350
40
  3
Realistic
350
33
  3
Shaded
350
3E
  3
Shaded with edges
350
3D
  3
Shades of Gray
350
3A
  3
Sketchy
350
3B
  3
Thicken
350
36
  3
Wireframe
350
30
  3
X-Ray
350
3C
  0
XRECORD
  5
327
102
{ACAD_REACTORS
330
C
102
}
330
C
100
AcDbXrecord
280
     1
 90
        1
330
65
330
1F0
  0
DICTIONARY
  5
31E
102
{ACAD_REACTORS
330
C
102
}
330
C
100
AcDbDictionary
281
     1
  3
ANNOALLVISIBLE
350
323
  3
CANNOSCALE
350
324
  3
CMLEADERSTYLE
350
320
  3
CTABLESTYLE
350
31F
  3
CVIEWDETAILSTYLE
350
321
  3
CVIEWSECTIONSTYLE
350
322
  0
SORTENTSTABLE
  5
B8
102
{ACAD_REACTORS
330
B7
102
}
330
B7
100
AcDbSortentsTable
330
70
  0
ACDBDETAILVIEWSTYLE
  5
6B
102
{ACAD_XDICTIONARY
360
32A
102
}
102
{ACAD_REACTORS
330
6A
102
}
330
6A
100
AcDbModelDocViewStyle
 70
     0
  3
Imperial24
290
     0
100
AcDbDetailViewStyle
 70
     0
 71
     0
 90
        3
 71
     1
340
55
 62
   256
 40
0.24
340
0
 62
   256
 40
0.24
300

 40
0.36
280
     3
 71
     2
340
5D
 90
       25
 62
   256
 71
     3
340
55
 62
   256
 40
0.24
 90
        1
 40
0.75
 90
        1
300
%<\AcVar ViewType \f "%tc1">% %<\AcVar ViewDetailId>%\PSCALE %<\AcVar ViewScale \f "%sn">%
 71
     4
340
5D
 90
       25
 62
   256
340
5D
 90
       25
 62
   256
280
     0
  0
IMAGEDEF
  5
1EC
102
{ACAD_REACTORS
330
1ED
330
1EE
102
}
330
1ED
100
AcDbRasterImageDef
 90
        0
  1
Fancy Supporting the Project_1.png
 10
900.0
 20
400.0
 11
0.084667
 21
0.084667
280
     1
281
     2
  0
LAYOUT
  5
73
102
{ACAD_REACTORS
330
62
102
}
330
62
100
AcDbPlotSettings
  1

  2
AutoCAD PDF (High Quality Print).pc3
  4
ANSI_full_bleed_E_(34.00_x_44.00_Inches)
  6

 40
0.0
 41
0.0
 42
0.0
 43
0.0
 44
863.599976
 45
1117.599976
 46
0.0
 47
0.0
 48
0.0
 49
0.0
140
0.0
141
0.0
142
1.0
143
1.47685
 70
 11952
 72
     0
 73
     1
 74
     0
  7

 75
     0
147
0.677117
 76
     0
 77
     2
 78
   300
148
319.592226
149
11.305167
100
AcDbLayout
  1
Model
 70
     1
 71
     0
 10
0.0
 20
0.0
 11
12.0
 21
9.0
 12
0.0
 22
0.0
 32
0.0
 14
0.0
 24
0.0
 34
0.0
 15
0.0
 25
0.0
 35
0.0
146
0.0
 13
0.0
 23
0.0
 33
0.0
 16
1.0
 26
0.0
 36
0.0
 17
0.0
 27
1.0
 37
0.0
 76
     0
330
70
1001
ACAD_PSEXT
1000
AutoCAD PDF (High Quality Print).pc3
1000
DWG To PDF
1000
File
1000

1070
     0
  0
LAYOUT
  5
6F
102
{ACAD_REACTORS
330
62
102
}
330
62
100
AcDbPlotSettings
  1

  2
None
  4

  6

 40
0.0
 41
0.0
 42
0.0
 43
0.0
 44
0.0
 45
0.0
 46
0.0
 47
0.0
 48
0.0
 49
0.0
140
0.0
141
0.0
142
1.0
143
1.0
 70
   688
 72
     0
 73
     0
 74
     5
  7

 75
    16
147
1.0
 76
     0
 77
     2
 78
   300
148
0.0
149
0.0
100
AcDbLayout
  1
Sheet1
 70
     1
 71
     1
 10
0.0
 20
0.0
 11
12.0
 21
9.0
 12
0.0
 22
0.0
 32
0.0
 14
0.0
 24
0.0
 34
0.0
 15
0.0
 25
0.0
 35
0.0
146
0.0
 13
0.0
 23
0.0
 33
0.0
 16
1.0
 26
0.0
 36
0.0
 17
0.0
 27
1.0
 37
0.0
 76
     0
330
6C
  0
LAYOUT
  5
77
102
{ACAD_REACTORS
330
62
102
}
330
62
100
AcDbPlotSettings
  1

  2
None
  4

  6

 40
0.0
 41
0.0
 42
0.0
 43
0.0
 44
0.0
 45
0.0
 46
0.0
 47
0.0
 48
0.0
 49
0.0
140
0.0
141
0.0
142
1.0
143
1.0
 70
   688
 72
     0
 73
     0
 74
     5
  7

 75
    16
147
1.0
 76
     0
 77
     2
 78
   300
148
0.0
149
0.0
100
AcDbLayout
  1
Sheet2
 70
     1
 71
     2
 10
0.0
 20
0.0
 11
12.0
 21
9.0
 12
0.0
 22
0.0
 32
0.0
 14
0.0
 24
0.0
 34
0.0
 15
0.0
 25
0.0
 35
0.0
146
0.0
 13
0.0
 23
0.0
 33
0.0
 16
1.0
 26
0.0
 36
0.0
 17
0.0
 27
1.0
 37
0.0
 76
     0
330
74
  0
MATERIAL
  5
19
102
{ACAD_XDICTIONARY
360
1A
102
}
102
{ACAD_REACTORS
330
10
102
}
330
10
100
AcDbMaterial
  1
ByBlock
 72
     0
 43
0.020833
 43
0.0
 43
0.0
 43
0.0
 43
0.0
 43
0.020833
 43
0.0
 43
0.0
 43
0.0
 43
0.0
 43
1.0
 43
0.0
 43
0.0
 43
0.0
 43
0.0
 43
1.0
 77
     0
 47
0.020833
 47
0.0
 47
0.0
 47
0.0
 47
0.0
 47
0.020833
 47
0.0
 47
0.0
 47
0.0
 47
0.0
 47
1.0
 47
0.0
 47
0.0
 47
0.0
 47
0.0
 47
1.0
171
     0
 49
0.020833
 49
0.0
 49
0.0
 49
0.0
 49
0.0
 49
0.020833
 49
0.0
 49
0.0
 49
0.0
 49
0.0
 49
1.0
 49
0.0
 49
0.0
 49
0.0
 49
0.0
 49
1.0
175
     0
142
0.020833
142
0.0
142
0.0
142
0.0
142
0.0
142
0.020833
142
0.0
142
0.0
142
0.0
142
0.0
142
1.0
142
0.0
142
0.0
142
0.0
142
0.0
142
1.0
179
     0
144
0.020833
144
0.0
144
0.0
144
0.0
144
0.0
144
0.020833
144
0.0
144
0.0
144
0.0
144
0.0
144
1.0
144
0.0
144
0.0
144
0.0
144
0.0
144
1.0
147
0.020833
147
0.0
147
0.0
147
0.0
147
0.0
147
0.020833
147
0.0
147
0.0
147
0.0
147
0.0
147
1.0
147
0.0
147
0.0
147
0.0
147
0.0
147
1.0
  0
MATERIAL
  5
11
102
{ACAD_XDICTIONARY
360
12
102
}
102
{ACAD_REACTORS
330
10
102
}
330
10
100
AcDbMaterial
  1
ByLayer
 72
     0
 43
0.020833
 43
0.0
 43
0.0
 43
0.0
 43
0.0
 43
0.020833
 43
0.0
 43
0.0
 43
0.0
 43
0.0
 43
1.0
 43
0.0
 43
0.0
 43
0.0
 43
0.0
 43
1.0
 77
     0
 47
0.020833
 47
0.0
 47
0.0
 47
0.0
 47
0.0
 47
0.020833
 47
0.0
 47
0.0
 47
0.0
 47
0.0
 47
1.0
 47
0.0
 47
0.0
 47
0.0
 47
0.0
 47
1.0
171
     0
 49
0.020833
 49
0.0
 49
0.0
 49
0.0
 49
0.0
 49
0.020833
 49
0.0
 49
0.0
 49
0.0
 49
0.0
 49
1.0
 49
0.0
 49
0.0
 49
0.0
 49
0.0
 49
1.0
175
     0
142
0.020833
142
0.0
142
0.0
142
0.0
142
0.0
142
0.020833
142
0.0
142
0.0
142
0.0
142
0.0
142
1.0
142
0.0
142
0.0
142
0.0
142
0.0
142
1.0
179
     0
144
0.020833
144
0.0
144
0.0
144
0.0
144
0.0
144
0.020833
144
0.0
144
0.0
144
0.0
144
0.0
144
1.0
144
0.0
144
0.0
144
0.0
144
0.0
144
1.0
147
0.020833
147
0.0
147
0.0
147
0.0
147
0.0
147
0.020833
147
0.0
147
0.0
147
0.0
147
0.0
147
1.0
147
0.0
147
0.0
147
0.0
147
0.0
147
1.0
  0
MATERIAL
  5
21
102
{ACAD_XDICTIONARY
360
22
102
}
102
{ACAD_REACTORS
330
10
102
}
330
10
100
AcDbMaterial
  1
Global
 72
     0
 43
0.020833
 43
0.0
 43
0.0
 43
0.0
 43
0.0
 43
0.020833
 43
0.0
 43
0.0
 43
0.0
 43
0.0
 43
1.0
 43
0.0
 43
0.0
 43
0.0
 43
0.0
 43
1.0
 77
     0
 47
0.020833
 47
0.0
 47
0.0
 47
0.0
 47
0.0
 47
0.020833
 47
0.0
 47
0.0
 47
0.0
 47
0.0
 47
1.0
 47
0.0
 47
0.0
 47
0.0
 47
0.0
 47
1.0
171
     0
 49
0.020833
 49
0.0
 49
0.0
 49
0.0
 49
0.0
 49
0.020833
 49
0.0
 49
0.0
 49
0.0
 49
0.0
 49
1.0
 49
0.0
 49
0.0
 49
0.0
 49
0.0
 49
1.0
175
     0
142
0.020833
142
0.0
142
0.0
142
0.0
142
0.0
142
0.020833
142
0.0
142
0.0
142
0.0
142
0.0
142
1.0
142
0.0
142
0.0
142
0.0
142
0.0
142
1.0
179
     0
144
0.020833
144
0.0
144
0.0
144
0.0
144
0.0
144
0.020833
144
0.0
144
0.0
144
0.0
144
0.0
144
1.0
144
0.0
144
0.0
144
0.0
144
0.0
144
1.0
147
0.020833
147
0.0
147
0.0
147
0.0
147
0.0
147
0.020833
147
0.0
147
0.0
147
0.0
147
0.0
147
1.0
147
0.0
147
0.0
147
0.0
147
0.0
147
1.0
  0
MLEADERSTYLE
  5
67
102
{ACAD_REACTORS
330
66
102
}
330
66
100
AcDbMLeaderStyle
179
     2
170
     2
171
     1
172
     0
 90
        2
 40
0.0
 41
0.0
173
     1
 91
-1056964608
340
5B
 92
       -2
290
     1
 42
0.09
291
     1
 43
0.36
  3
Standard
 44
0.18
300

342
55
174
     1
178
     6
175
     1
176
     0
 93
-1056964608
 45
0.18
292
     0
297
     0
 46
0.18
 94
-1056964608
 47
1.0
 49
1.0
140
1.0
293
     1
141
0.0
294
     1
177
     0
142
1.0
295
     0
296
     0
143
0.125
271
     0
272
     9
273
     9
298
     1
  0
MLINESTYLE
  5
60
102
{ACAD_REACTORS
330
5F
102
}
330
5F
100
AcDbMlineStyle
  2
STANDARD
 70
     0
  3

 62
   256
 51
90.0
 52
90.0
 71
     0
  0
ACDBPLACEHOLDER
  5
F
102
{ACAD_REACTORS
330
E
102
}
330
E
  0
SCALE
  5
A7
102
{ACAD_REACTORS
330
42
102
}
330
42
100
AcDbScale
 70
     0
300
1:2
140
1.0
141
2.0
290
     0
  0
SCALE
  5
B0
102
{ACAD_REACTORS
330
42
102
}
330
42
100
AcDbScale
 70
     0
300
1:50
140
1.0
141
50.0
290
     0
  0
SCALE
  5
B1
102
{ACAD_REACTORS
330
42
102
}
330
42
100
AcDbScale
 70
     0
300
1:100
140
1.0
141
100.0
290
     0
  0
SCALE
  5
B2
102
{ACAD_REACTORS
330
42
102
}
330
42
100
AcDbScale
 70
     0
300
2:1
140
2.0
141
1.0
290
     0
  0
SCALE
  5
B3
102
{ACAD_REACTORS
330
42
102
}
330
42
100
AcDbScale
 70
     0
300
4:1
140
4.0
141
1.0
290
     0
  0
SCALE
  5
B4
102
{ACAD_REACTORS
330
42
102
}
330
42
100
AcDbScale
 70
     0
300
8:1
140
8.0
141
1.0
290
     0
  0
SCALE
  5
B5
102
{ACAD_REACTORS
330
42
102
}
330
42
100
AcDbScale
 70
     0
300
10:1
140
10.0
141
1.0
290
     0
  0
SCALE
  5
B6
102
{ACAD_REACTORS
330
42
102
}
330
42
100
AcDbScale
 70
     0
300
100:1
140
100.0
141
1.0
290
     0
  0
SCALE
  5
A8
102
{ACAD_REACTORS
330
42
102
}
330
42
100
AcDbScale
 70
     0
300
1:4
140
1.0
141
4.0
290
     0
  0
SCALE
  5
A9
102
{ACAD_REACTORS
330
42
102
}
330
42
100
AcDbScale
 70
     0
300
1:5
140
1.0
141
5.0
290
     0
  0
SCALE
  5
AA
102
{ACAD_REACTORS
330
42
102
}
330
42
100
AcDbScale
 70
     0
300
1:8
140
1.0
141
8.0
290
     0
  0
SCALE
  5
AB
102
{ACAD_REACTORS
330
42
102
}
330
42
100
AcDbScale
 70
     0
300
1:10
140
1.0
141
10.0
290
     0
  0
SCALE
  5
AC
102
{ACAD_REACTORS
330
42
102
}
330
42
100
AcDbScale
 70
     0
300
1:16
140
1.0
141
16.0
290
     0
  0
SCALE
  5
AD
102
{ACAD_REACTORS
330
42
102
}
330
42
100
AcDbScale
 70
     0
300
1:20
140
1.0
141
20.0
290
     0
  0
SCALE
  5
AE
102
{ACAD_REACTORS
330
42
102
}
330
42
100
AcDbScale
 70
     0
300
1:30
140
1.0
141
30.0
290
     0
  0
SCALE
  5
AF
102
{ACAD_REACTORS
330
42
102
}
330
42
100
AcDbScale
 70
     0
300
1:40
140
1.0
141
40.0
290
     0
  0
SCALE
  5
43
102
{ACAD_REACTORS
330
42
102
}
330
42
100
AcDbScale
 70
     0
300
1:1
140
1.0
141
1.0
290
     1
  0
SCALE
  5
44
102
{ACAD_REACTORS
330
42
102
}
330
42
100
AcDbScale
 70
     0
300
1/128" = 1'-0"
140
0.007813
141
12.0
290
     0
  0
SCALE
  5
45
102
{ACAD_REACTORS
330
42
102
}
330
42
100
AcDbScale
 70
     0
300
1/64" = 1'-0"
140
0.015625
141
12.0
290
     0
  0
SCALE
  5
46
102
{ACAD_REACTORS
330
42
102
}
330
42
100
AcDbScale
 70
     0
300
1/32" = 1'-0"
140
0.03125
141
12.0
290
     0
  0
SCALE
  5
47
102
{ACAD_REACTORS
330
42
102
}
330
42
100
AcDbScale
 70
     0
300
1/16" = 1'-0"
140
0.0625
141
12.0
290
     0
  0
SCALE
  5
48
102
{ACAD_REACTORS
330
42
102
}
330
42
100
AcDbScale
 70
     0
300
3/32" = 1'-0"
140
0.09375
141
12.0
290
     0
  0
SCALE
  5
49
102
{ACAD_REACTORS
330
42
102
}
330
42
100
AcDbScale
 70
     0
300
1/8" = 1'-0"
140
0.125
141
12.0
290
     0
  0
SCALE
  5
4A
102
{ACAD_REACTORS
330
42
102
}
330
42
100
AcDbScale
 70
     0
300
3/16" = 1'-0"
140
0.1875
141
12.0
290
     0
  0
SCALE
  5
4B
102
{ACAD_REACTORS
330
42
102
}
330
42
100
AcDbScale
 70
     0
300
1/4" = 1'-0"
140
0.25
141
12.0
290
     0
  0
SCALE
  5
4C
102
{ACAD_REACTORS
330
42
102
}
330
42
100
AcDbScale
 70
     0
300
3/8" = 1'-0"
140
0.375
141
12.0
290
     0
  0
SCALE
  5
4D
102
{ACAD_REACTORS
330
42
102
}
330
42
100
AcDbScale
 70
     0
300
1/2" = 1'-0"
140
0.5
141
12.0
290
     0
  0
SCALE
  5
4E
102
{ACAD_REACTORS
330
42
102
}
330
42
100
AcDbScale
 70
     0
300
3/4" = 1'-0"
140
0.75
141
12.0
290
     0
  0
SCALE
  5
4F
102
{ACAD_REACTORS
330
42
102
}
330
42
100
AcDbScale
 70
     0
300
1" = 1'-0"
140
1.0
141
12.0
290
     0
  0
SCALE
  5
50
102
{ACAD_REACTORS
330
42
102
}
330
42
100
AcDbScale
 70
     0
300
1-1/2" = 1'-0"
140
1.5
141
12.0
290
     0
  0
SCALE
  5
51
102
{ACAD_REACTORS
330
42
102
}
330
42
100
AcDbScale
 70
     0
300
3" = 1'-0"
140
3.0
141
12.0
290
     0
  0
SCALE
  5
52
102
{ACAD_REACTORS
330
42
102
}
330
42
100
AcDbScale
 70
     0
300
6" = 1'-0"
140
6.0
141
12.0
290
     0
  0
SCALE
  5
53
102
{ACAD_REACTORS
330
42
102
}
330
42
100
AcDbScale
 70
     0
300
1'-0" = 1'-0"
140
12.0
141
12.0
290
     0
  0
ACDBSECTIONVIEWSTYLE
  5
69
102
{ACAD_XDICTIONARY
360
328
102
}
102
{ACAD_REACTORS
330
68
102
}
330
68
100
AcDbModelDocViewStyle
 70
     0
  3
Imperial24
290
     0
100
AcDbSectionViewStyle
 70
     0
 71
     0
 90
       78
 71
     1
340
55
 62
   256
 40
0.24
340
0
340
0
 62
   256
 40
0.24
300
I, O, Q, S, X, Z
 40
0.48
 90
        3
 40
0.18
 90
        1
 71
     2
340
5D
 90
       25
 62
   256
340
5D
 90
       50
 62
   256
 40
0.24
 40
0.0
 40
0.24
 71
     3
340
55
 62
   256
 40
0.24
 90
        1
 40
0.75
 90
        1
300
%<\AcVar ViewType \f "%tc1">% %<\AcVar ViewSectionStartId>%-%<\AcVar ViewSectionEndId>%\PSCALE %<\AcVar ViewScale \f "%sn">%
 71
     4
 62
   256
 62
   257
300
ANSI31
 40
1.0
 90
        0
290
     0
290
     0
 90
        6
 40
0.0
 40
1.570796
 40
0.261799
 40
1.308997
 40
-0.261799
 40
1.832596
  0
TABLESTYLE
  5
65
102
{ACAD_XDICTIONARY
360
325
102
}
102
{ACAD_REACTORS
330
64
102
}
330
64
100
AcDbTableStyle
280
     0
  3
Standard
 70
     0
 71
     0
 40
0.06
 41
0.06
280
     0
281
     0
  7
Standard
140
0.18
170
     2
 62
     0
 63
     7
283
     0
 90
      512
 91
        0
  1

274
    -2
284
     1
 64
     0
275
    -2
285
     1
 65
     0
276
    -2
286
     1
 66
     0
277
    -2
287
     1
 67
     0
278
    -2
288
     1
 68
     0
279
    -2
289
     1
 69
     0
  7
Standard
140
0.25
170
     5
 62
     0
 63
     7
283
     0
 90
      512
 91
        0
  1

274
    -2
284
     1
 64
     0
275
    -2
285
     1
 65
     0
276
    -2
286
     1
 66
     0
277
    -2
287
     1
 67
     0
278
    -2
288
     1
 68
     0
279
    -2
289
     1
 69
     0
  7
Standard
140
0.18
170
     5
 62
     0
 63
     7
283
     0
 90
      512
 91
        0
  1

274
    -2
284
     1
 64
     0
275
    -2
285
     1
 65
     0
276
    -2
286
     1
 66
     0
277
    -2
287
     1
 67
     0
278
    -2
288
     1
 68
     0
279
    -2
289
     1
 69
     0
  0
VISUALSTYLE
  5
2F
102
{ACAD_REACTORS
330
29
102
}
330
29
100
AcDbVisualStyle
  2
2dWireframe
 70
     4
177
     3
291
     0
 70
    58
 90
        0
176
     1
 90
        2
176
     1
 90
        0
176
     1
 90
        0
176
     1
 40
0.6
176
     1
 40
30.0
176
     1
 62
     7
420
 16777215
176
     1
 90
        1
176
     1
 90
        4
176
     1
 62
     7
176
     1
 62
   257
176
     1
 90
        1
176
     1
 90
        1
176
     1
 40
1.0
176
     1
 90
        0
176
     1
 62
   257
176
     1
 40
1.0
176
     1
 90
        1
176
     1
 90
        6
176
     1
 90
        2
176
     1
 62
     7
176
     1
 90
        5
176
     1
 90
        0
176
     1
 90
        0
176
     1
290
     0
176
     1
 90
        1
176
     1
 40
0.0
176
     1
 90
        0
176
     1
290
     1
176
     1
290
     1
176
     1
290
     0
176
     1
290
     0
176
     1
290
     0
176
     1
290
     0
176
     1
290
     0
176
     1
290
     0
176
     1
290
     0
176
     1
 90
       50
176
     1
 40
0.0
176
     1
 40
1.0
176
     1
 90
        0
176
     1
 62
    18
420
        0
176
     1
 90
       50
176
     1
 90
        3
176
     1
 62
     5
420
      255
176
     1
290
     0
176
     1
 90
       50
176
     1
 90
       50
176
     1
 90
       50
176
     1
290
     0
176
     1
 90
       50
176
     1
 62
   256
176
     0
 40
1.0
176
     0
 90
        2
176
     1
  1
strokes_ogs.tif
176
     1
290
     0
176
     1
 40
1.0
176
     1
 40
1.0
176
     1
1001
ACAD
1000
AcDbSavedByObjectVersion
1070
     0
  0
VISUALSTYLE
  5
2E
102
{ACAD_REACTORS
330
29
102
}
330
29
100
AcDbVisualStyle
  2
Basic
 70
     7
177
     3
291
     1
 70
    58
 90
        1
176
     1
 90
        0
176
     1
 90
        1
176
     1
 90
        0
176
     1
 40
0.6
176
     1
 40
30.0
176
     1
 62
     7
420
 16777215
176
     1
 90
        0
176
     1
 90
        4
176
     1
 62
     7
176
     1
 62
   257
176
     1
 90
        1
176
     1
 90
        1
176
     1
 40
1.0
176
     1
 90
        8
176
     1
 62
     7
176
     1
 40
1.0
176
     1
 90
        1
176
     1
 90
        6
176
     1
 90
        2
176
     1
 62
     7
176
     1
 90
        5
176
     1
 90
        0
176
     1
 90
        0
176
     1
290
     0
176
     1
 90
        1
176
     1
 40
0.0
176
     1
 90
        0
176
     1
290
     0
176
     1
290
     1
176
     1
290
     1
176
     1
290
     0
176
     1
290
     0
176
     1
290
     0
176
     1
290
     0
176
     1
290
     0
176
     1
290
     0
176
     1
 90
       50
176
     1
 40
0.0
176
     1
 40
1.0
176
     1
 90
        0
176
     1
 62
    18
420
        0
176
     1
 90
       50
176
     1
 90
        3
176
     1
 62
     5
420
      255
176
     1
290
     0
176
     1
 90
       50
176
     1
 90
       50
176
     1
 90
       50
176
     1
290
     0
176
     1
 90
       50
176
     1
 62
   256
176
     0
 40
1.0
176
     0
 90
        2
176
     1
  1
strokes_ogs.tif
176
     1
290
     0
176
     1
 40
1.0
176
     1
 40
1.0
176
     1
1001
ACAD
1000
AcDbSavedByObjectVersion
1070
     0
  0
VISUALSTYLE
  5
35
102
{ACAD_REACTORS
330
29
102
}
330
29
100
AcDbVisualStyle
  2
Brighten
 70
    12
177
     3
291
     1
 70
    58
 90
        2
176
     1
 90
        2
176
     1
 90
        0
176
     1
 90
        0
176
     1
 40
0.6
176
     1
 40
30.0
176
     1
 62
     7
420
 16777215
176
     1
 90
        1
176
     1
 90
        4
176
     1
 62
     7
176
     1
 62
   257
176
     1
 90
        1
176
     1
 90
        1
176
     1
 40
1.0
176
     1
 90
        8
176
     1
 62
     7
176
     1
 40
1.0
176
     1
 90
        1
176
     1
 90
        6
176
     1
 90
        2
176
     1
 62
     7
176
     1
 90
        5
176
     1
 90
        0
176
     1
 90
        0
176
     1
290
     0
176
     1
 90
        1
176
     1
 40
50.0
176
     1
 90
        0
176
     1
290
     0
176
     1
290
     1
176
     1
290
     1
176
     1
290
     0
176
     1
290
     0
176
     1
290
     0
176
     1
290
     0
176
     1
290
     0
176
     1
290
     0
176
     1
 90
       50
176
     1
 40
0.0
176
     1
 40
1.0
176
     1
 90
        0
176
     1
 62
    18
420
        0
176
     1
 90
       50
176
     1
 90
        3
176
     1
 62
     5
420
      255
176
     1
290
     0
176
     1
 90
       50
176
     1
 90
       50
176
     1
 90
       50
176
     1
290
     0
176
     1
 90
       50
176
     1
 62
   256
176
     0
 40
1.0
176
     0
 90
        2
176
     1
  1
strokes_ogs.tif
176
     1
290
     0
176
     1
 40
1.0
176
     1
 40
1.0
176
     1
1001
ACAD
1000
AcDbSavedByObjectVersion
1070
     0
  0
VISUALSTYLE
  5
39
102
{ACAD_REACTORS
330
29
102
}
330
29
100
AcDbVisualStyle
  2
ColorChange
 70
    16
177
     3
291
     1
 70
    58
 90
        2
176
     1
 90
        2
176
     1
 90
        3
176
     1
 90
        0
176
     1
 40
0.6
176
     1
 40
30.0
176
     1
 62
     8
420
  8421504
176
     1
 90
        1
176
     1
 90
        4
176
     1
 62
     7
176
     1
 62
   257
176
     1
 90
        1
176
     1
 90
        1
176
     1
 40
1.0
176
     1
 90
        8
176
     1
 62
     8
420
  8421504
176
     1
 40
1.0
176
     1
 90
        1
176
     1
 90
        6
176
     1
 90
        2
176
     1
 62
     7
176
     1
 90
        5
176
     1
 90
        0
176
     1
 90
        0
176
     1
290
     0
176
     1
 90
        1
176
     1
 40
0.0
176
     1
 90
        0
176
     1
290
     0
176
     1
290
     1
176
     1
290
     1
176
     1
290
     0
176
     1
290
     0
176
     1
290
     0
176
     1
290
     0
176
     1
290
     0
176
     1
290
     0
176
     1
 90
       50
176
     1
 40
0.0
176
     1
 40
1.0
176
     1
 90
        0
176
     1
 62
    18
420
        0
176
     1
 90
       50
176
     1
 90
        3
176
     1
 62
     5
420
      255
176
     1
290
     0
176
     1
 90
       50
176
     1
 90
       50
176
     1
 90
       50
176
     1
290
     0
176
     1
 90
       50
176
     1
 62
   256
176
     0
 40
1.0
176
     0
 90
        2
176
     1
  1
strokes_ogs.tif
176
     1
290
     0
176
     1
 40
1.0
176
     1
 40
1.0
176
     1
1001
ACAD
1000
AcDbSavedByObjectVersion
1070
     0
  0
VISUALSTYLE
  5
32
102
{ACAD_REACTORS
330
29
102
}
330
29
100
AcDbVisualStyle
  2
Conceptual
 70
     9
177
     3
291
     0
 70
    58
 90
        3
176
     1
 90
        2
176
     1
 90
        0
176
     1
 90
        0
176
     1
 40
0.6
176
     1
 40
30.0
176
     1
 62
     7
420
 16777215
176
     1
 90
        2
176
     1
 90
        2
176
     1
 62
     7
176
     1
 62
   257
176
     1
 90
        1
176
     1
 90
        1
176
     1
 40
179.0
176
     1
 90
        8
176
     1
 62
     7
176
     1
 40
1.0
176
     1
 90
        1
176
     1
 90
        6
176
     1
 90
        2
176
     1
 62
     7
176
     1
 90
        3
176
     1
 90
        0
176
     1
 90
        0
176
     1
290
     0
176
     1
 90
        1
176
     1
 40
0.0
176
     1
 90
        0
176
     1
290
     0
176
     1
290
     1
176
     1
290
     1
176
     1
290
     0
176
     1
290
     0
176
     1
290
     0
176
     1
290
     0
176
     1
290
     0
176
     1
290
     0
176
     1
 90
       50
176
     1
 40
0.0
176
     1
 40
1.0
176
     1
 90
        0
176
     1
 62
    18
420
        0
176
     1
 90
       50
176
     1
 90
        3
176
     1
 62
     5
420
      255
176
     1
290
     0
176
     1
 90
       50
176
     1
 90
       50
176
     1
 90
       50
176
     1
290
     0
176
     1
 90
       50
176
     1
 62
   256
176
     0
 40
1.0
176
     0
 90
        2
176
     1
  1
strokes_ogs.tif
176
     1
290
     0
176
     1
 40
1.0
176
     1
 40
1.0
176
     1
1001
ACAD
1000
AcDbSavedByObjectVersion
1070
     0
  0
VISUALSTYLE
  5
34
102
{ACAD_REACTORS
330
29
102
}
330
29
100
AcDbVisualStyle
  2
Dim
 70
    11
177
     3
291
     1
 70
    58
 90
        2
176
     1
 90
        2
176
     1
 90
        0
176
     1
 90
        0
176
     1
 40
0.6
176
     1
 40
30.0
176
     1
 62
     7
420
 16777215
176
     1
 90
        1
176
     1
 90
        4
176
     1
 62
     7
176
     1
 62
   257
176
     1
 90
        1
176
     1
 90
        1
176
     1
 40
1.0
176
     1
 90
        8
176
     1
 62
     7
176
     1
 40
1.0
176
     1
 90
        1
176
     1
 90
        6
176
     1
 90
        2
176
     1
 62
     7
176
     1
 90
        5
176
     1
 90
        0
176
     1
 90
        0
176
     1
290
     0
176
     1
 90
        1
176
     1
 40
-50.0
176
     1
 90
        0
176
     1
290
     0
176
     1
290
     1
176
     1
290
     1
176
     1
290
     0
176
     1
290
     0
176
     1
290
     0
176
     1
290
     0
176
     1
290
     0
176
     1
290
     0
176
     1
 90
       50
176
     1
 40
0.0
176
     1
 40
1.0
176
     1
 90
        0
176
     1
 62
    18
420
        0
176
     1
 90
       50
176
     1
 90
        3
176
     1
 62
     5
420
      255
176
     1
290
     0
176
     1
 90
       50
176
     1
 90
       50
176
     1
 90
       50
176
     1
290
     0
176
     1
 90
       50
176
     1
 62
   256
176
     0
 40
1.0
176
     0
 90
        2
176
     1
  1
strokes_ogs.tif
176
     1
290
     0
176
     1
 40
1.0
176
     1
 40
1.0
176
     1
1001
ACAD
1000
AcDbSavedByObjectVersion
1070
     0
  0
VISUALSTYLE
  5
41
102
{ACAD_REACTORS
330
29
102
}
330
29
100
AcDbVisualStyle
  2
EdgeColorOff
 70
    22
177
     3
291
     1
 70
    58
 90
        2
176
     0
 90
        2
176
     0
 90
        0
176
     0
 90
        0
176
     0
 40
0.6
176
     0
 40
30.0
176
     0
 62
     7
420
 16777215
176
     0
 90
        1
176
     0
 90
        4
176
     0
 62
     7
176
     0
 62
   257
176
     0
 90
        1
176
     0
 90
        1
176
     0
 40
1.0
176
     0
 90
        8
176
     2
 62
     7
176
     0
 40
1.0
176
     0
 90
        1
176
     0
 90
        6
176
     0
 90
        2
176
     0
 62
     7
176
     0
 90
        5
176
     0
 90
        0
176
     0
 90
        0
176
     0
290
     0
176
     0
 90
        1
176
     0
 40
0.0
176
     0
 90
        0
176
     0
290
     0
176
     0
290
     1
176
     0
290
     1
176
     0
290
     0
176
     0
290
     0
176
     0
290
     0
176
     0
290
     0
176
     0
290
     0
176
     0
290
     0
176
     0
 90
       50
176
     0
 40
0.0
176
     0
 40
1.0
176
     0
 90
        0
176
     0
 62
    18
420
        0
176
     0
 90
       50
176
     0
 90
        3
176
     0
 62
     5
420
      255
176
     0
290
     0
176
     0
 90
       50
176
     0
 90
       50
176
     0
 90
       50
176
     0
290
     0
176
     0
 90
       50
176
     0
 62
   256
176
     0
 40
1.0
176
     0
 90
        2
176
     0
  1
strokes_ogs.tif
176
     0
290
     0
176
     0
 40
1.0
176
     0
 40
1.0
176
     0
1001
ACAD
1000
AcDbSavedByObjectVersion
1070
     0
  0
VISUALSTYLE
  5
38
102
{ACAD_REACTORS
330
29
102
}
330
29
100
AcDbVisualStyle
  2
Facepattern
 70
    15
177
     3
291
     1
 70
    58
 90
        2
176
     1
 90
        2
176
     1
 90
        0
176
     1
 90
        0
176
     1
 40
0.6
176
     1
 40
30.0
176
     1
 62
     7
420
 16777215
176
     1
 90
        1
176
     1
 90
        4
176
     1
 62
     7
176
     1
 62
   257
176
     1
 90
        1
176
     1
 90
        1
176
     1
 40
1.0
176
     1
 90
        8
176
     1
 62
     7
176
     1
 40
1.0
176
     1
 90
        1
176
     1
 90
        6
176
     1
 90
        2
176
     1
 62
     7
176
     1
 90
        5
176
     1
 90
        0
176
     1
 90
        0
176
     1
290
     0
176
     1
 90
        1
176
     1
 40
0.0
176
     1
 90
        0
176
     1
290
     0
176
     1
290
     1
176
     1
290
     1
176
     1
290
     0
176
     1
290
     0
176
     1
290
     0
176
     1
290
     0
176
     1
290
     0
176
     1
290
     0
176
     1
 90
       50
176
     1
 40
0.0
176
     1
 40
1.0
176
     1
 90
        0
176
     1
 62
    18
420
        0
176
     1
 90
       50
176
     1
 90
        3
176
     1
 62
     5
420
      255
176
     1
290
     0
176
     1
 90
       50
176
     1
 90
       50
176
     1
 90
       50
176
     1
290
     0
176
     1
 90
       50
176
     1
 62
   256
176
     0
 40
1.0
176
     0
 90
        2
176
     1
  1
strokes_ogs.tif
176
     1
290
     0
176
     1
 40
1.0
176
     1
 40
1.0
176
     1
1001
ACAD
1000
AcDbSavedByObjectVersion
1070
     0
  0
VISUALSTYLE
  5
2A
102
{ACAD_REACTORS
330
29
102
}
330
29
100
AcDbVisualStyle
  2
Flat
 70
     0
177
     3
291
     1
 70
    58
 90
        2
176
     1
 90
        1
176
     1
 90
        1
176
     1
 90
        2
176
     1
 40
0.6
176
     1
 40
30.0
176
     1
 62
     7
420
 16777215
176
     1
 90
        0
176
     1
 90
        0
176
     1
 62
     7
176
     1
 62
   257
176
     1
 90
        1
176
     1
 90
        1
176
     1
 40
1.0
176
     1
 90
        8
176
     1
 62
     7
176
     1
 40
1.0
176
     1
 90
        1
176
     1
 90
        6
176
     1
 90
        2
176
     1
 62
     7
176
     1
 90
        5
176
     1
 90
        0
176
     1
 90
        0
176
     1
290
     0
176
     1
 90
       13
176
     1
 40
0.0
176
     1
 90
        0
176
     1
290
     0
176
     1
290
     1
176
     1
290
     1
176
     1
290
     0
176
     1
290
     0
176
     1
290
     0
176
     1
290
     0
176
     1
290
     0
176
     1
290
     0
176
     1
 90
       50
176
     1
 40
0.0
176
     1
 40
1.0
176
     1
 90
        0
176
     1
 62
    18
420
        0
176
     1
 90
       50
176
     1
 90
        3
176
     1
 62
     5
420
      255
176
     1
290
     0
176
     1
 90
       50
176
     1
 90
       50
176
     1
 90
       50
176
     1
290
     0
176
     1
 90
       50
176
     1
 62
   256
176
     0
 40
1.0
176
     0
 90
        2
176
     1
  1
strokes_ogs.tif
176
     1
290
     0
176
     1
 40
1.0
176
     1
 40
1.0
176
     1
1001
ACAD
1000
AcDbSavedByObjectVersion
1070
     0
  0
VISUALSTYLE
  5
2B
102
{ACAD_REACTORS
330
29
102
}
330
29
100
AcDbVisualStyle
  2
FlatWithEdges
 70
     1
177
     3
291
     1
 70
    58
 90
        2
176
     1
 90
        1
176
     1
 90
        1
176
     1
 90
        2
176
     1
 40
0.6
176
     1
 40
30.0
176
     1
 62
     7
420
 16777215
176
     1
 90
        1
176
     1
 90
        0
176
     1
 62
     7
176
     1
 62
   257
176
     1
 90
        1
176
     1
 90
        1
176
     1
 40
1.0
176
     1
 90
        0
176
     1
 62
   257
176
     1
 40
1.0
176
     1
 90
        1
176
     1
 90
        6
176
     1
 90
        2
176
     1
 62
     7
176
     1
 90
        5
176
     1
 90
        0
176
     1
 90
        0
176
     1
290
     0
176
     1
 90
       13
176
     1
 40
0.0
176
     1
 90
        0
176
     1
290
     0
176
     1
290
     1
176
     1
290
     1
176
     1
290
     0
176
     1
290
     0
176
     1
290
     0
176
     1
290
     0
176
     1
290
     0
176
     1
290
     0
176
     1
 90
       50
176
     1
 40
0.0
176
     1
 40
1.0
176
     1
 90
        0
176
     1
 62
    18
420
        0
176
     1
 90
       50
176
     1
 90
        3
176
     1
 62
     5
420
      255
176
     1
290
     0
176
     1
 90
       50
176
     1
 90
       50
176
     1
 90
       50
176
     1
290
     0
176
     1
 90
       50
176
     1
 62
   256
176
     0
 40
1.0
176
     0
 90
        2
176
     1
  1
strokes_ogs.tif
176
     1
290
     0
176
     1
 40
1.0
176
     1
 40
1.0
176
     1
1001
ACAD
1000
AcDbSavedByObjectVersion
1070
     0
  0
VISUALSTYLE
  5
2C
102
{ACAD_REACTORS
330
29
102
}
330
29
100
AcDbVisualStyle
  2
Gouraud
 70
     2
177
     3
291
     1
 70
    58
 90
        2
176
     1
 90
        2
176
     1
 90
        1
176
     1
 90
        2
176
     1
 40
0.6
176
     1
 40
30.0
176
     1
 62
     7
420
 16777215
176
     1
 90
        0
176
     1
 90
        0
176
     1
 62
     7
176
     1
 62
   257
176
     1
 90
        1
176
     1
 90
        1
176
     1
 40
1.0
176
     1
 90
        0
176
     1
 62
     7
176
     1
 40
1.0
176
     1
 90
        1
176
     1
 90
        6
176
     1
 90
        2
176
     1
 62
     7
176
     1
 90
        5
176
     1
 90
        0
176
     1
 90
        0
176
     1
290
     0
176
     1
 90
       13
176
     1
 40
0.0
176
     1
 90
        0
176
     1
290
     0
176
     1
290
     1
176
     1
290
     1
176
     1
290
     0
176
     1
290
     0
176
     1
290
     0
176
     1
290
     0
176
     1
290
     0
176
     1
290
     0
176
     1
 90
       50
176
     1
 40
0.0
176
     1
 40
1.0
176
     1
 90
        0
176
     1
 62
    18
420
        0
176
     1
 90
       50
176
     1
 90
        3
176
     1
 62
     5
420
      255
176
     1
290
     0
176
     1
 90
       50
176
     1
 90
       50
176
     1
 90
       50
176
     1
290
     0
176
     1
 90
       50
176
     1
 62
   256
176
     0
 40
1.0
176
     0
 90
        2
176
     1
  1
strokes_ogs.tif
176
     1
290
     0
176
     1
 40
1.0
176
     1
 40
1.0
176
     1
1001
ACAD
1000
AcDbSavedByObjectVersion
1070
     0
  0
VISUALSTYLE
  5
2D
102
{ACAD_REACTORS
330
29
102
}
330
29
100
AcDbVisualStyle
  2
GouraudWithEdges
 70
     3
177
     3
291
     1
 70
    58
 90
        2
176
     1
 90
        2
176
     1
 90
        1
176
     1
 90
        2
176
     1
 40
0.6
176
     1
 40
30.0
176
     1
 62
     7
420
 16777215
176
     1
 90
        1
176
     1
 90
        0
176
     1
 62
     7
176
     1
 62
   257
176
     1
 90
        1
176
     1
 90
        1
176
     1
 40
1.0
176
     1
 90
        0
176
     1
 62
   257
176
     1
 40
1.0
176
     1
 90
        1
176
     1
 90
        6
176
     1
 90
        2
176
     1
 62
     7
176
     1
 90
        5
176
     1
 90
        0
176
     1
 90
        0
176
     1
290
     0
176
     1
 90
       13
176
     1
 40
0.0
176
     1
 90
        0
176
     1
290
     0
176
     1
290
     1
176
     1
290
     1
176
     1
290
     0
176
     1
290
     0
176
     1
290
     0
176
     1
290
     0
176
     1
290
     0
176
     1
290
     0
176
     1
 90
       50
176
     1
 40
0.0
176
     1
 40
1.0
176
     1
 90
        0
176
     1
 62
    18
420
        0
176
     1
 90
       50
176
     1
 90
        3
176
     1
 62
     5
420
      255
176
     1
290
     0
176
     1
 90
       50
176
     1
 90
       50
176
     1
 90
       50
176
     1
290
     0
176
     1
 90
       50
176
     1
 62
   256
176
     0
 40
1.0
176
     0
 90
        2
176
     1
  1
strokes_ogs.tif
176
     1
290
     0
176
     1
 40
1.0
176
     1
 40
1.0
176
     1
1001
ACAD
1000
AcDbSavedByObjectVersion
1070
     0
  0
VISUALSTYLE
  5
31
102
{ACAD_REACTORS
330
29
102
}
330
29
100
AcDbVisualStyle
  2
Hidden
 70
     6
177
     3
291
     0
 70
    58
 90
        1
176
     1
 90
        2
176
     1
 90
        2
176
     1
 90
        0
176
     1
 40
0.6
176
     1
 40
30.0
176
     1
 62
     7
420
 16777215
176
     1
 90
        2
176
     1
 90
        2
176
     1
 62
     7
176
     1
 62
   257
176
     1
 90
        2
176
     1
 90
        1
176
     1
 40
40.0
176
     1
 90
        0
176
     1
 62
   257
176
     1
 40
1.0
176
     1
 90
        1
176
     1
 90
        6
176
     1
 90
        2
176
     1
 62
     7
176
     1
 90
        3
176
     1
 90
        0
176
     1
 90
        0
176
     1
290
     0
176
     1
 90
        1
176
     1
 40
0.0
176
     1
 90
        0
176
     1
290
     0
176
     1
290
     1
176
     1
290
     1
176
     1
290
     0
176
     1
290
     0
176
     1
290
     0
176
     1
290
     0
176
     1
290
     0
176
     1
290
     0
176
     1
 90
       50
176
     1
 40
0.0
176
     1
 40
1.0
176
     1
 90
        0
176
     1
 62
    18
420
        0
176
     1
 90
       50
176
     1
 90
        3
176
     1
 62
     5
420
      255
176
     1
290
     0
176
     1
 90
       50
176
     1
 90
       50
176
     1
 90
       50
176
     1
290
     0
176
     1
 90
       50
176
     1
 62
   256
176
     0
 40
1.0
176
     0
 90
        2
176
     1
  1
strokes_ogs.tif
176
     1
290
     0
176
     1
 40
1.0
176
     1
 40
1.0
176
     1
1001
ACAD
1000
AcDbSavedByObjectVersion
1070
     0
  0
VISUALSTYLE
  5
3F
102
{ACAD_REACTORS
330
29
102
}
330
29
100
AcDbVisualStyle
  2
JitterOff
 70
    20
177
     3
291
     1
 70
    58
 90
        2
176
     0
 90
        2
176
     0
 90
        0
176
     0
 90
        0
176
     0
 40
0.6
176
     0
 40
30.0
176
     0
 62
     7
420
 16777215
176
     0
 90
        1
176
     0
 90
        4
176
     0
 62
     7
176
     0
 62
   257
176
     0
 90
        1
176
     0
 90
        1
176
     0
 40
1.0
176
     0
 90
       10
176
     2
 62
     7
176
     0
 40
1.0
176
     0
 90
        1
176
     0
 90
        6
176
     0
 90
        2
176
     0
 62
     7
176
     0
 90
        5
176
     0
 90
        0
176
     0
 90
        0
176
     0
290
     0
176
     0
 90
        1
176
     0
 40
0.0
176
     0
 90
        0
176
     0
290
     0
176
     0
290
     1
176
     0
290
     1
176
     0
290
     0
176
     0
290
     0
176
     0
290
     0
176
     0
290
     0
176
     0
290
     0
176
     0
290
     0
176
     0
 90
       50
176
     0
 40
0.0
176
     0
 40
1.0
176
     0
 90
        0
176
     0
 62
    18
420
        0
176
     0
 90
       50
176
     0
 90
        3
176
     0
 62
     5
420
      255
176
     0
290
     0
176
     0
 90
       50
176
     0
 90
       50
176
     0
 90
       50
176
     0
290
     0
176
     0
 90
       50
176
     0
 62
   256
176
     0
 40
1.0
176
     0
 90
        2
176
     0
  1
strokes_ogs.tif
176
     0
290
     0
176
     0
 40
1.0
176
     0
 40
1.0
176
     0
1001
ACAD
1000
AcDbSavedByObjectVersion
1070
     0
  0
VISUALSTYLE
  5
37
102
{ACAD_REACTORS
330
29
102
}
330
29
100
AcDbVisualStyle
  2
Linepattern
 70
    14
177
     3
291
     1
 70
    58
 90
        2
176
     1
 90
        2
176
     1
 90
        0
176
     1
 90
        0
176
     1
 40
0.6
176
     1
 40
30.0
176
     1
 62
     7
420
 16777215
176
     1
 90
        1
176
     1
 90
        4
176
     1
 62
     7
176
     1
 62
   257
176
     1
 90
        7
176
     1
 90
        7
176
     1
 40
1.0
176
     1
 90
        8
176
     1
 62
     7
176
     1
 40
1.0
176
     1
 90
        1
176
     1
 90
        6
176
     1
 90
        2
176
     1
 62
     7
176
     1
 90
        5
176
     1
 90
        0
176
     1
 90
        0
176
     1
290
     0
176
     1
 90
        1
176
     1
 40
0.0
176
     1
 90
        0
176
     1
290
     0
176
     1
290
     1
176
     1
290
     1
176
     1
290
     0
176
     1
290
     0
176
     1
290
     0
176
     1
290
     0
176
     1
290
     0
176
     1
290
     0
176
     1
 90
       50
176
     1
 40
0.0
176
     1
 40
1.0
176
     1
 90
        0
176
     1
 62
    18
420
        0
176
     1
 90
       50
176
     1
 90
        3
176
     1
 62
     5
420
      255
176
     1
290
     0
176
     1
 90
       50
176
     1
 90
       50
176
     1
 90
       50
176
     1
290
     0
176
     1
 90
       50
176
     1
 62
   256
176
     0
 40
1.0
176
     0
 90
        2
176
     1
  1
strokes_ogs.tif
176
     1
290
     0
176
     1
 40
1.0
176
     1
 40
1.0
176
     1
1001
ACAD
1000
AcDbSavedByObjectVersion
1070
     0
  0
VISUALSTYLE
  5
40
102
{ACAD_REACTORS
330
29
102
}
330
29
100
AcDbVisualStyle
  2
OverhangOff
 70
    21
177
     3
291
     1
 70
    58
 90
        2
176
     0
 90
        2
176
     0
 90
        0
176
     0
 90
        0
176
     0
 40
0.6
176
     0
 40
30.0
176
     0
 62
     7
420
 16777215
176
     0
 90
        1
176
     0
 90
        4
176
     0
 62
     7
176
     0
 62
   257
176
     0
 90
        1
176
     0
 90
        1
176
     0
 40
1.0
176
     0
 90
        9
176
     2
 62
     7
176
     0
 40
1.0
176
     0
 90
        1
176
     0
 90
        6
176
     0
 90
        2
176
     0
 62
     7
176
     0
 90
        5
176
     0
 90
        0
176
     0
 90
        0
176
     0
290
     0
176
     0
 90
        1
176
     0
 40
0.0
176
     0
 90
        0
176
     0
290
     0
176
     0
290
     1
176
     0
290
     1
176
     0
290
     0
176
     0
290
     0
176
     0
290
     0
176
     0
290
     0
176
     0
290
     0
176
     0
290
     0
176
     0
 90
       50
176
     0
 40
0.0
176
     0
 40
1.0
176
     0
 90
        0
176
     0
 62
    18
420
        0
176
     0
 90
       50
176
     0
 90
        3
176
     0
 62
     5
420
      255
176
     0
290
     0
176
     0
 90
       50
176
     0
 90
       50
176
     0
 90
       50
176
     0
290
     0
176
     0
 90
       50
176
     0
 62
   256
176
     0
 40
1.0
176
     0
 90
        2
176
     0
  1
strokes_ogs.tif
176
     0
290
     0
176
     0
 40
1.0
176
     0
 40
1.0
176
     0
1001
ACAD
1000
AcDbSavedByObjectVersion
1070
     0
  0
VISUALSTYLE
  5
33
102
{ACAD_REACTORS
330
29
102
}
330
29
100
AcDbVisualStyle
  2
Realistic
 70
     8
177
     3
291
     0
 70
    58
 90
        2
176
     1
 90
        3
176
     1
 90
        0
176
     1
 90
        2
176
     1
 40
0.6
176
     1
 40
30.0
176
     1
 62
     7
420
 16777215
176
     1
 90
        0
176
     1
 90
        0
176
     1
 62
     7
176
     1
 62
   257
176
     1
 90
        1
176
     1
 90
        1
176
     1
 40
1.0
176
     1
 90
        8
176
     1
 62
   257
176
     1
 40
1.0
176
     1
 90
        1
176
     1
 90
        6
176
     1
 90
        2
176
     1
 62
     7
176
     1
 90
        3
176
     1
 90
        0
176
     1
 90
        0
176
     1
290
     0
176
     1
 90
       13
176
     1
 40
0.0
176
     1
 90
        0
176
     1
290
     0
176
     1
290
     1
176
     1
290
     1
176
     1
290
     0
176
     1
290
     0
176
     1
290
     0
176
     1
290
     0
176
     1
290
     0
176
     1
290
     0
176
     1
 90
       50
176
     1
 40
0.0
176
     1
 40
1.0
176
     1
 90
        0
176
     1
 62
    18
420
        0
176
     1
 90
       50
176
     1
 90
        3
176
     1
 62
     5
420
      255
176
     1
290
     0
176
     1
 90
       50
176
     1
 90
       50
176
     1
 90
       50
176
     1
290
     0
176
     1
 90
       50
176
     1
 62
   256
176
     0
 40
1.0
176
     0
 90
        2
176
     1
  1
strokes_ogs.tif
176
     1
290
     0
176
     1
 40
1.0
176
     1
 40
1.0
176
     1
1001
ACAD
1000
AcDbSavedByObjectVersion
1070
     0
  0
VISUALSTYLE
  5
3E
102
{ACAD_REACTORS
330
29
102
}
330
29
100
AcDbVisualStyle
  2
Shaded
 70
    27
177
     3
291
     0
 70
    58
 90
        2
176
     1
 90
        2
176
     1
 90
        1
176
     1
 90
        2
176
     1
 40
0.6
176
     1
 40
30.0
176
     1
 62
     7
420
 16777215
176
     1
 90
        0
176
     1
 90
        4
176
     1
 62
     7
176
     1
 62
   257
176
     1
 90
        1
176
     1
 90
        1
176
     1
 40
1.0
176
     1
 90
        8
176
     1
 62
   257
176
     1
 40
1.0
176
     1
 90
        1
176
     1
 90
        6
176
     1
 90
        2
176
     1
 62
     8
420
  7895160
176
     1
 90
        3
176
     1
 90
        0
176
     1
 90
        0
176
     1
290
     0
176
     1
 90
        5
176
     1
 40
0.0
176
     1
 90
        0
176
     1
290
     0
176
     1
290
     1
176
     1
290
     1
176
     1
290
     0
176
     1
290
     0
176
     1
290
     0
176
     1
290
     0
176
     1
290
     0
176
     1
290
     0
176
     1
 90
       50
176
     1
 40
0.0
176
     1
 40
1.0
176
     1
 90
        0
176
     1
 62
    18
420
        0
176
     1
 90
       50
176
     1
 90
        3
176
     1
 62
     5
420
      255
176
     1
290
     0
176
     1
 90
       50
176
     1
 90
       50
176
     1
 90
       50
176
     1
290
     0
176
     1
 90
       50
176
     1
 62
   256
176
     0
 40
1.0
176
     0
 90
        2
176
     1
  1
strokes_ogs.tif
176
     1
290
     0
176
     1
 40
1.0
176
     1
 40
1.0
176
     1
1001
ACAD
1000
AcDbSavedByObjectVersion
1070
     0
  0
VISUALSTYLE
  5
3D
102
{ACAD_REACTORS
330
29
102
}
330
29
100
AcDbVisualStyle
  2
Shaded with edges
 70
    26
177
     3
291
     0
 70
    58
 90
        2
176
     1
 90
        2
176
     1
 90
        1
176
     1
 90
        2
176
     1
 40
0.6
176
     1
 40
30.0
176
     1
 62
     7
420
 16777215
176
     1
 90
        1
176
     1
 90
        2
176
     1
 62
     7
176
     1
 62
   257
176
     1
 90
        2
176
     1
 90
        1
176
     1
 40
1.0
176
     1
 90
        8
176
     1
 62
   257
176
     1
 40
1.0
176
     1
 90
        1
176
     1
 90
        6
176
     1
 90
        2
176
     1
 62
     7
176
     1
 90
        3
176
     1
 90
        0
176
     1
 90
        0
176
     1
290
     0
176
     1
 90
        5
176
     1
 40
0.0
176
     1
 90
        0
176
     1
290
     0
176
     1
290
     1
176
     1
290
     1
176
     1
290
     0
176
     1
290
     0
176
     1
290
     0
176
     1
290
     0
176
     1
290
     0
176
     1
290
     0
176
     1
 90
       50
176
     1
 40
0.0
176
     1
 40
1.0
176
     1
 90
        0
176
     1
 62
    18
420
        0
176
     1
 90
       50
176
     1
 90
        3
176
     1
 62
     5
420
      255
176
     1
290
     0
176
     1
 90
       50
176
     1
 90
       50
176
     1
 90
       50
176
     1
290
     0
176
     1
 90
       50
176
     1
 62
   256
176
     0
 40
1.0
176
     0
 90
        2
176
     1
  1
strokes_ogs.tif
176
     1
290
     0
176
     1
 40
1.0
176
     1
 40
1.0
176
     1
1001
ACAD
1000
AcDbSavedByObjectVersion
1070
     0
  0
VISUALSTYLE
  5
3A
102
{ACAD_REACTORS
330
29
102
}
330
29
100
AcDbVisualStyle
  2
Shades of Gray
 70
    23
177
     3
291
     0
 70
    58
 90
        2
176
     1
 90
        2
176
     1
 90
        3
176
     1
 90
        0
176
     1
 40
0.6
176
     1
 40
30.0
176
     1
 62
     7
420
 16777215
176
     1
 90
        2
176
     1
 90
        2
176
     1
 62
     7
176
     1
 62
     7
176
     1
 90
        1
176
     1
 90
        1
176
     1
 40
40.0
176
     1
 90
        8
176
     1
 62
     7
176
     1
 40
1.0
176
     1
 90
        1
176
     1
 90
        6
176
     1
 90
        2
176
     1
 62
     7
176
     1
 90
        3
176
     1
 90
        0
176
     1
 90
        0
176
     1
290
     0
176
     1
 90
        1
176
     1
 40
0.0
176
     1
 90
        0
176
     1
290
     0
176
     1
290
     1
176
     1
290
     1
176
     1
290
     0
176
     1
290
     0
176
     1
290
     0
176
     1
290
     0
176
     1
290
     0
176
     1
290
     0
176
     1
 90
       50
176
     1
 40
0.0
176
     1
 40
1.0
176
     1
 90
        0
176
     1
 62
    18
420
        0
176
     1
 90
       50
176
     1
 90
        3
176
     1
 62
     5
420
      255
176
     1
290
     0
176
     1
 90
       50
176
     1
 90
       50
176
     1
 90
       50
176
     1
290
     0
176
     1
 90
       50
176
     1
 62
   256
176
     0
 40
1.0
176
     0
 90
        2
176
     1
  1
strokes_ogs.tif
176
     1
290
     0
176
     1
 40
1.0
176
     1
 40
1.0
176
     1
1001
ACAD
1000
AcDbSavedByObjectVersion
1070
     0
  0
VISUALSTYLE
  5
3B
102
{ACAD_REACTORS
330
29
102
}
330
29
100
AcDbVisualStyle
  2
Sketchy
 70
    24
177
     3
291
     0
 70
    58
 90
        1
176
     1
 90
        2
176
     1
 90
        2
176
     1
 90
        0
176
     1
 40
0.6
176
     1
 40
30.0
176
     1
 62
     7
420
 16777215
176
     1
 90
        2
176
     1
 90
        2
176
     1
 62
     7
176
     1
 62
     7
176
     1
 90
        1
176
     1
 90
        1
176
     1
 40
40.0
176
     1
 90
       11
176
     1
 62
     7
176
     1
 40
1.0
176
     1
 90
        1
176
     1
 90
        6
176
     1
 90
        2
176
     1
 62
     7
176
     1
 90
        6
176
     1
 90
        0
176
     1
 90
        0
176
     1
290
     0
176
     1
 90
        1
176
     1
 40
0.0
176
     1
 90
        0
176
     1
290
     0
176
     1
290
     1
176
     1
290
     1
176
     1
290
     0
176
     1
290
     0
176
     1
290
     0
176
     1
290
     0
176
     1
290
     0
176
     1
290
     0
176
     1
 90
       50
176
     1
 40
0.0
176
     1
 40
1.0
176
     1
 90
        0
176
     1
 62
    18
420
        0
176
     1
 90
       50
176
     1
 90
        3
176
     1
 62
     5
420
      255
176
     1
290
     0
176
     1
 90
       50
176
     1
 90
       50
176
     1
 90
       50
176
     1
290
     0
176
     1
 90
       50
176
     1
 62
   256
176
     0
 40
1.0
176
     0
 90
        2
176
     1
  1
strokes_ogs.tif
176
     1
290
     0
176
     1
 40
1.0
176
     1
 40
1.0
176
     1
1001
ACAD
1000
AcDbSavedByObjectVersion
1070
     0
  0
VISUALSTYLE
  5
36
102
{ACAD_REACTORS
330
29
102
}
330
29
100
AcDbVisualStyle
  2
Thicken
 70
    13
177
     3
291
     1
 70
    58
 90
        2
176
     1
 90
        2
176
     1
 90
        0
176
     1
 90
        0
176
     1
 40
0.6
176
     1
 40
30.0
176
     1
 62
     7
420
 16777215
176
     1
 90
        1
176
     1
 90
        4
176
     1
 62
     7
176
     1
 62
   257
176
     1
 90
        1
176
     1
 90
        1
176
     1
 40
1.0
176
     1
 90
       12
176
     1
 62
     7
176
     1
 40
1.0
176
     1
 90
        1
176
     1
 90
        6
176
     1
 90
        2
176
     1
 62
     7
176
     1
 90
        5
176
     1
 90
        0
176
     1
 90
        0
176
     1
290
     0
176
     1
 90
        1
176
     1
 40
0.0
176
     1
 90
        0
176
     1
290
     0
176
     1
290
     1
176
     1
290
     1
176
     1
290
     0
176
     1
290
     0
176
     1
290
     0
176
     1
290
     0
176
     1
290
     0
176
     1
290
     0
176
     1
 90
       50
176
     1
 40
0.0
176
     1
 40
1.0
176
     1
 90
        0
176
     1
 62
    18
420
        0
176
     1
 90
       50
176
     1
 90
        3
176
     1
 62
     5
420
      255
176
     1
290
     0
176
     1
 90
       50
176
     1
 90
       50
176
     1
 90
       50
176
     1
290
     0
176
     1
 90
       50
176
     1
 62
   256
176
     0
 40
1.0
176
     0
 90
        2
176
     1
  1
strokes_ogs.tif
176
     1
290
     0
176
     1
 40
1.0
176
     1
 40
1.0
176
     1
1001
ACAD
1000
AcDbSavedByObjectVersion
1070
     0
  0
VISUALSTYLE
  5
30
102
{ACAD_REACTORS
330
29
102
}
330
29
100
AcDbVisualStyle
  2
Wireframe
 70
     5
177
     3
291
     0
 70
    58
 90
        0
176
     1
 90
        2
176
     1
 90
        0
176
     1
 90
        0
176
     1
 40
0.6
176
     1
 40
30.0
176
     1
 62
     7
420
 16777215
176
     1
 90
        1
176
     1
 90
        4
176
     1
 62
     7
176
     1
 62
   257
176
     1
 90
        1
176
     1
 90
        1
176
     1
 40
1.0
176
     1
 90
        0
176
     1
 62
   257
176
     1
 40
1.0
176
     1
 90
        1
176
     1
 90
        6
176
     1
 90
        2
176
     1
 62
     7
176
     1
 90
        3
176
     1
 90
        0
176
     1
 90
        0
176
     1
290
     0
176
     1
 90
        1
176
     1
 40
0.0
176
     1
 90
        0
176
     1
290
     0
176
     1
290
     1
176
     1
290
     1
176
     1
290
     0
176
     1
290
     0
176
     1
290
     0
176
     1
290
     0
176
     1
290
     0
176
     1
290
     0
176
     1
 90
       50
176
     1
 40
0.0
176
     1
 40
1.0
176
     1
 90
        0
176
     1
 62
    18
420
        0
176
     1
 90
       50
176
     1
 90
        3
176
     1
 62
     5
420
      255
176
     1
290
     0
176
     1
 90
       50
176
     1
 90
       50
176
     1
 90
       50
176
     1
290
     0
176
     1
 90
       50
176
     1
 62
   256
176
     0
 40
1.0
176
     0
 90
        2
176
     1
  1
strokes_ogs.tif
176
     1
290
     0
176
     1
 40
1.0
176
     1
 40
1.0
176
     1
1001
ACAD
1000
AcDbSavedByObjectVersion
1070
     0
  0
VISUALSTYLE
  5
3C
102
{ACAD_REACTORS
330
29
102
}
330
29
100
AcDbVisualStyle
  2
X-Ray
 70
    25
177
     3
291
     0
 70
    58
 90
        2
176
     1
 90
        2
176
     1
 90
        1
176
     1
 90
        1
176
     1
 40
0.5
176
     1
 40
30.0
176
     1
 62
     7
420
 16777215
176
     1
 90
        1
176
     1
 90
        0
176
     1
 62
     7
176
     1
 62
   257
176
     1
 90
        1
176
     1
 90
        1
176
     1
 40
1.0
176
     1
 90
        8
176
     1
 62
     7
176
     1
 40
1.0
176
     1
 90
        1
176
     1
 90
        6
176
     1
 90
        2
176
     1
 62
     7
176
     1
 90
        3
176
     1
 90
        0
176
     1
 90
        0
176
     1
290
     0
176
     1
 90
       13
176
     1
 40
0.0
176
     1
 90
        0
176
     1
290
     0
176
     1
290
     1
176
     1
290
     1
176
     1
290
     0
176
     1
290
     0
176
     1
290
     0
176
     1
290
     0
176
     1
290
     0
176
     1
290
     0
176
     1
 90
       50
176
     1
 40
0.0
176
     1
 40
1.0
176
     1
 90
        0
176
     1
 62
    18
420
        0
176
     1
 90
       50
176
     1
 90
        3
176
     1
 62
     5
420
      255
176
     1
290
     0
176
     1
 90
       50
176
     1
 90
       50
176
     1
 90
       50
176
     1
290
     0
176
     1
 90
       50
176
     1
 62
   256
176
     0
 40
1.0
176
     0
 90
        2
176
     1
  1
strokes_ogs.tif
176
     1
290
     0
176
     1
 40
1.0
176
     1
 40
1.0
176
     1
1001
ACAD
1000
AcDbSavedByObjectVersion
1070
     0
  0
DICTIONARYVAR
  5
323
102
{ACAD_REACTORS
330
31E
102
}
330
31E
100
DictionaryVariables
280
     0
  1
0
  0
DICTIONARYVAR
  5
324
102
{ACAD_REACTORS
330
31E
102
}
330
31E
100
DictionaryVariables
280
     0
  1
1:1
  0
DICTIONARYVAR
  5
320
102
{ACAD_REACTORS
330
31E
102
}
330
31E
100
DictionaryVariables
280
     0
  1
STANDARD
  0
DICTIONARYVAR
  5
31F
102
{ACAD_REACTORS
330
31E
102
}
330
31E
100
DictionaryVariables
280
     0
  1
STANDARD
  0
DICTIONARYVAR
  5
321
102
{ACAD_REACTORS
330
31E
102
}
330
31E
100
DictionaryVariables
280
     0
  1
Imperial24
  0
DICTIONARYVAR
  5
322
102
{ACAD_REACTORS
330
31E
102
}
330
31E
100
DictionaryVariables
280
     0
  1
Imperial24
  0
DICTIONARY
  5
32A
330
6B
100
AcDbDictionary
280
     1
281
     1
  3
ACAD_XREC_ROUNDTRIP
360
32B
  0
DICTIONARY
  5
1A
330
19
100
AcDbDictionary
280
     1
281
     1
  3
BUMPTILE
360
1C
  3
DIFFUSETILE
360
1B
  3
OPACITYTILE
360
1F
  3
REFLECTIONTILE
360
1E
  3
REFRACTIONTILE
360
20
  3
SPECULARTILE
360
1D
  0
DICTIONARY
  5
12
330
11
100
AcDbDictionary
280
     1
281
     1
  3
BUMPTILE
360
14
  3
DIFFUSETILE
360
13
  3
OPACITYTILE
360
17
  3
REFLECTIONTILE
360
16
  3
REFRACTIONTILE
360
18
  3
SPECULARTILE
360
15
  0
DICTIONARY
  5
22
330
21
100
AcDbDictionary
280
     1
281
     1
  3
BUMPTILE
360
24
  3
DIFFUSETILE
360
23
  3
OPACITYTILE
360
27
  3
REFLECTIONTILE
360
26
  3
REFRACTIONTILE
360
28
  3
SPECULARTILE
360
25
  0
DICTIONARY
  5
328
330
69
100
AcDbDictionary
280
     1
281
     1
  3
ACAD_XREC_ROUNDTRIP
360
329
  0
DICTIONARY
  5
325
330
65
100
AcDbDictionary
280
     1
281
     1
  3
ACAD_ROUNDTRIP_2008_TABLESTYLE_CELLSTYLEMAP
360
326
  0
XRECORD
  5
32B
102
{ACAD_REACTORS
330
32A
102
}
330
32A
100
AcDbXrecord
280
     1
102
DISPLAYNAME
  1
Imperial24
102
FLAGS
 90
        0
  0
XRECORD
  5
1C
102
{ACAD_REACTORS
330
1A
102
}
330
1A
100
AcDbXrecord
280
     1
270
     1
271
     1
  0
XRECORD
  5
1B
102
{ACAD_REACTORS
330
1A
102
}
330
1A
100
AcDbXrecord
280
     1
270
     1
271
     1
  0
XRECORD
  5
1F
102
{ACAD_REACTORS
330
1A
102
}
330
1A
100
AcDbXrecord
280
     1
270
     1
271
     1
  0
XRECORD
  5
1E
102
{ACAD_REACTORS
330
1A
102
}
330
1A
100
AcDbXrecord
280
     1
270
     1
271
     1
  0
XRECORD
  5
20
102
{ACAD_REACTORS
330
1A
102
}
330
1A
100
AcDbXrecord
280
     1
270
     1
271
     1
  0
XRECORD
  5
1D
102
{ACAD_REACTORS
330
1A
102
}
330
1A
100
AcDbXrecord
280
     1
270
     1
271
     1
  0
XRECORD
  5
14
102
{ACAD_REACTORS
330
12
102
}
330
12
100
AcDbXrecord
280
     1
270
     1
271
     1
  0
XRECORD
  5
13
102
{ACAD_REACTORS
330
12
102
}
330
12
100
AcDbXrecord
280
     1
270
     1
271
     1
  0
XRECORD
  5
17
102
{ACAD_REACTORS
330
12
102
}
330
12
100
AcDbXrecord
280
     1
270
     1
271
     1
  0
XRECORD
  5
16
102
{ACAD_REACTORS
330
12
102
}
330
12
100
AcDbXrecord
280
     1
270
     1
271
     1
  0
XRECORD
  5
18
102
{ACAD_REACTORS
330
12
102
}
330
12
100
AcDbXrecord
280
     1
270
     1
271
     1
  0
XRECORD
  5
15
102
{ACAD_REACTORS
330
12
102
}
330
12
100
AcDbXrecord
280
     1
270
     1
271
     1
  0
XRECORD
  5
24
102
{ACAD_REACTORS
330
22
102
}
330
22
100
AcDbXrecord
280
     1
270
     1
271
     1
  0
XRECORD
  5
23
102
{ACAD_REACTORS
330
22
102
}
330
22
100
AcDbXrecord
280
     1
270
     1
271
     1
  0
XRECORD
  5
27
102
{ACAD_REACTORS
330
22
102
}
330
22
100
AcDbXrecord
280
     1
270
     1
271
     1
  0
XRECORD
  5
26
102
{ACAD_REACTORS
330
22
102
}
330
22
100
AcDbXrecord
280
     1
270
     1
271
     1
  0
XRECORD
  5
28
102
{ACAD_REACTORS
330
22
102
}
330
22
100
AcDbXrecord
280
     1
270
     1
271
     1
  0
XRECORD
  5
25
102
{ACAD_REACTORS
330
22
102
}
330
22
100
AcDbXrecord
280
     1
270
     1
271
     1
  0
XRECORD
  5
329
102
{ACAD_REACTORS
330
328
102
}
330
328
100
AcDbXrecord
280
     1
102
DISPLAYNAME
  1
Imperial24
102
FLAGS
 90
        0
  0
CELLSTYLEMAP
  5
326
102
{ACAD_REACTORS
330
325
102
}
330
325
100
AcDbCellStyleMap
 90
        3
300
CELLSTYLE
  1
TABLEFORMAT_BEGIN
 90
        5
170
     1
 91
        0
 92
    32768
 62
   257
 93
        1
300
CONTENTFORMAT
  1
CONTENTFORMAT_BEGIN
 90
        0
 91
        0
 92
      512
 93
        0
300

 40
0.0
140
1.0
 94
        5
 62
     0
340
55
144
0.25
309
CONTENTFORMAT_END
171
     0
 94
        0
309
TABLEFORMAT_END
  1
CELLSTYLE_BEGIN
 90
        1
 91
        1
300
_TITLE
309
CELLSTYLE_END
300
CELLSTYLE
  1
TABLEFORMAT_BEGIN
 90
        5
170
     1
 91
        0
 92
        0
 62
   257
 93
        1
300
CONTENTFORMAT
  1
CONTENTFORMAT_BEGIN
 90
        0
 91
        0
 92
      512
 93
        0
300

 40
0.0
140
1.0
 94
        5
 62
     0
340
55
144
0.18
309
CONTENTFORMAT_END
171
     0
 94
        0
309
TABLEFORMAT_END
  1
CELLSTYLE_BEGIN
 90
        2
 91
        1
300
_HEADER
309
CELLSTYLE_END
300
CELLSTYLE
  1
TABLEFORMAT_BEGIN
 90
        5
170
     1
 91
        0
 92
        0
 62
   257
 93
        1
300
CONTENTFORMAT
  1
CONTENTFORMAT_BEGIN
 90
        0
 91
        0
 92
      512
 93
        0
300

 40
0.0
140
1.0
 94
        2
 62
     0
340
55
144
0.18
309
CONTENTFORMAT_END
171
     0
 94
        0
309
TABLEFORMAT_END
  1
CELLSTYLE_BEGIN
 90
        3
 91
        2
300
_DATA
309
CELLSTYLE_END
  0
ENDSEC
  0
EOF
