0
SECTION
2
HEADER
9
$INSUNITS
70
1
9
$ACADVER
1
AC1014
9
$HANDSEED
5
FFFF
0
ENDSEC
0
SECTION
2
TABLES
0
TABLE
2
VPORT
5
8
100
AcDbSymbolTable
0
ENDTAB
0
TABLE
2
LTYPE
5
5
100
AcDbSymbolTable
0
LTYPE
5
14
100
AcDbSymbolTableRecord
100
AcDbLinetypeTableRecord
2
BYBLOCK
70
0
0
LTYPE
5
15
100
AcDbSymbolTableRecord
100
AcDbLinetypeTableRecord
2
BYLAYER
70
0
0
ENDTAB
0
TABLE
2
LAYER
5
2
100
AcDbSymbolTable
70
2
0
LAYER
5
50
100
AcDbSymbolTableRecord
100
AcDbLayerTableRecord
2
0
70
0
6
CONTINUOUS
0
ENDTAB
0
TABLE
2
STYLE
5
3
100
AcDbSymbolTable
70
1
0
STYLE
5
11
100
AcDbSymbolTableRecord
100
AcDbTextStyleTableRecord
2
STANDARD
70
0
0
ENDTAB
0
TABLE
2
VIEW
5
6
100
AcDbSymbolTable
70
0
0
ENDTAB
0
TABLE
2
UCS
5
7
100
AcDbSymbolTable
70
0
0
ENDTAB
0
TABLE
2
APPID
5
9
100
AcDbSymbolTable
70
2
0
APPID
5
12
100
AcDbSymbolTableRecord
100
AcDbRegAppTableRecord
2
ACAD
70
0
0
ENDTAB
0
TABLE
2
DIMSTYLE
5
A
100
AcDbSymbolTable
70
1
0
ENDTAB
0
TABLE
2
BLOCK_RECORD
5
1
100
AcDbSymbolTable
70
1
0
BLOCK_RECORD
5
1F
100
AcDbSymbolTableRecord
100
AcDbBlockTableRecord
2
*MODEL_SPACE
0
BLOCK_RECORD
5
1B
100
AcDbSymbolTableRecord
100
AcDbBlockTableRecord
2
*PAPER_SPACE
0
ENDTAB
0
ENDSEC
0
SECTION
2
BLOCKS
0
BLOCK
5
20
100
AcDbEntity
100
AcDbBlockBegin
2
*MODEL_SPACE
0
ENDBLK
5
21
100
AcDbEntity
100
AcDbBlockEnd
0
BLOCK
5
1C
100
AcDbEntity
100
AcDbBlockBegin
2
*PAPER_SPACE
0
ENDBLK
5
1D
100
AcDbEntity
100
AcDbBlockEnd
0
ENDSEC
0
SECTION
2
ENTITIES
0
SPLINE
5
100
100
AcDbEntity
8
0
100
AcDbSpline
70
0
71
3
72
24
73
20
74
0
42
0.000000001
43
0.0000000001
44
0.0000000001
40
-168.90548742544001
40
-168.90548742544001
40
-168.90548742544001
40
-168.90548742544001
40
-143.77722902570304
40
-143.77722902570304
40
-109.51834782989933
40
-109.51834782989933
40
-90.980443663581653
40
-90.980443663581653
40
-81.205654690056818
40
-81.205654690056818
40
-67.915714335944628
40
-67.915714335944628
40
-57.528485534845345
40
-57.528485534845345
40
-47.447966366625934
40
-47.447966366625934
40
-25.948860751259819
40
-25.948860751259819
40
0
40
0
40
0
40
0
10
-17.016448059317376
20
18.149999999991067
30
0
10
-17.814717044027351
20
17.055139305716871
30
0
10
-18.344610618971064
20
15.896844387350074
30
0
10
-19.299404584392981
20
12.492585188037166
30
0
10
-19.701036766810539
20
9.6575459532274852
30
0
10
-19.972494566359764
20
3.1927133342546772
30
0
10
-19.989186240935133
20
0.85354138300517068
30
0
10
-19.905827924115766
20
-2.6215119124651549
30
0
10
-19.852177997532529
20
-3.977694679706179
30
0
10
-19.621309747840193
20
-6.8269924924755703
30
0
10
-19.430265800714558
20
-7.9150326733416838
30
0
10
-18.965076233365856
20
-9.3424853516574764
30
0
10
-18.704487805903764
20
-9.8355640403896309
30
0
10
-18.024643673921929
20
-10.668169033502377
30
0
10
-17.563114438540293
20
-11.070180372320545
30
0
10
-15.367844060848881
20
-12.346282522266019
30
0
10
-13.028220960742697
20
-13.093248941381052
30
0
10
-6.9544175927777836
20
-14.270154483201249
30
0
10
-3.4047287007208791
20
-14.536065111913151
30
0
10
-3.2829761386677542e-15
20
-14.601752944317225
30
0
0
SPLINE
5
101
100
AcDbEntity
8
0
100
AcDbSpline
70
0
71
3
72
26
73
22
74
0
42
0.000000001
43
0.0000000001
44
0.0000000001
40
-205.17084209180695
40
-205.17084209180695
40
-205.17084209180695
40
-205.17084209180695
40
-185.53849936467202
40
-185.53849936467202
40
-162.40846282105866
40
-162.40846282105866
40
-152.64210335907458
40
-152.64210335907458
40
-143.64914956398297
40
-143.64914956398297
40
-127.80909518902914
40
-127.80909518902914
40
-116.58116438359762
40
-116.58116438359762
40
-100.57188095288646
40
-100.57188095288646
40
-85.960081898573378
40
-85.960081898573378
40
-67.463993596764695
40
-67.463993596764695
40
-65.966925711041199
40
-65.966925711041199
40
-65.966925711041199
40
-65.966925711041199
10
3.2829761386677542e-15
20
-14.601752944317225
30
0
10
2.8083323703889884
20
-14.547571456658019
30
0
10
5.6988382503955055
20
-14.35748588827434
30
0
10
11.7519423535072
20
-13.439369482952333
30
0
10
14.332885999396504
20
-12.703505343740616
30
0
10
16.771798074142353
20
-11.561967788118018
30
0
10
17.368990239767943
20
-11.200182313866838
30
0
10
18.272893288460786
20
-10.414767274935143
30
0
10
18.602862222688806
20
-9.9944764450620003
30
0
10
19.313930110848084
20
-8.5719800122998873
30
0
10
19.602434741259362
20
-7.2547767709365694
30
0
10
19.9011627028102
20
-3.212375826486038
30
0
10
19.952741839525693
20
-1.1617244157997899
30
0
10
19.978334562362413
20
2.7570566927287956
30
0
10
19.917568027448194
20
5.3399633105298836
30
0
10
19.607559597843405
20
9.7927928057025824
30
0
10
19.379875250051317
20
11.694125014486495
30
0
10
18.59035808648915
20
15.35120302307342
30
0
10
18.003984249598361
20
16.70983802348912
30
0
10
17.149442933990059
20
17.964531063343355
30
0
10
17.08374449623911
20
18.057700004549165
30
0
10
17.016448059310896
20
18.14999999999997
30
0
0
LINE
5
102
100
AcDbEntity
8
0
100
AcDbLine
10
17.016448059310907
20
18.149999999999977
30
0
11
-17.016448059310719
21
18.150000000000201
31
0
0
LINE
5
103
100
AcDbEntity
8
0
100
AcDbLine
10
0
20
2.9079510511737197
30
0
11
21.014824209903107
21
23.922775261076872
31
0
0
LINE
5
104
100
AcDbEntity
8
0
100
AcDbLine
10
-7.1028047835270834e-16
20
2.9079510511737197
30
0
11
-21.014824209903111
21
23.922775261076868
31
0
0
LINE
5
105
100
AcDbEntity
8
0
100
AcDbLine
10
-1.5778822532700409e-13
20
-23.919087479666288
30
0
11
1.7605832715534003e-13
21
26.688648788747283
31
0
0
LINE
5
106
100
AcDbEntity
8
0
100
AcDbLine
10
18.686128241884905
20
2.9079510511737197
30
0
11
-40.688302498222178
21
2.9079510511737197
31
0
0
LINE
5
107
100
AcDbEntity
8
0
100
AcDbLine
10
16.823637765598491
20
17.774999999999977
30
0
11
-16.823630431459502
21
17.775000000000201
31
0
0
SPLINE
5
108
100
AcDbEntity
8
0
100
AcDbSpline
70
0
71
3
72
50
73
46
74
0
42
0.000000001
43
0.0000000001
44
0.0000000001
40
-167.68758724972221
40
-167.68758724972221
40
-167.68758724972221
40
-167.68758724972221
40
-148.93194689215031
40
-148.93194689215031
40
-148.93194689215031
40
-143.77722902570304
40
-143.77722902570304
40
-143.77722902570304
40
-111.61763696437453
40
-111.61763696437453
40
-111.61763696437453
40
-109.51834782989933
40
-109.51834782989933
40
-109.51834782989933
40
-90.980443663581653
40
-90.980443663581653
40
-90.980443663581653
40
-81.205654690056818
40
-81.205654690056818
40
-81.205654690056818
40
-69.558186809175808
40
-69.558186809175808
40
-69.558186809175808
40
-67.915714335944628
40
-67.915714335944628
40
-67.915714335944628
40
-59.242640529696928
40
-59.242640529696928
40
-59.242640529696928
40
-57.528485534845345
40
-57.528485534845345
40
-57.528485534845345
40
-49.419823681238455
40
-49.419823681238455
40
-49.419823681238455
40
-47.447966366625934
40
-47.447966366625934
40
-47.447966366625934
40
-36.367519018208469
40
-36.367519018208469
40
-36.367519018208469
40
-25.948860751259819
40
-25.948860751259819
40
-25.948860751259819
40
-0.018454689053349287
40
-0.018454689053349287
40
-0.018454689053349287
40
-0.018454689053349287
10
-16.823630431459506
20
17.775000000000212
30
0
10
-17.379889151286655
20
16.981910563886579
30
0
10
-17.793607847595521
20
16.154087066966166
30
0
10
-18.128484949001308
20
15.186490675271065
30
0
10
-18.220521101581063
20
14.920560730321624
30
0
10
-18.30649441079051
20
14.64411314608321
30
0
10
-18.387541647907625
20
14.355144203539764
30
0
10
-18.892812899972618
20
12.553630609734721
30
0
10
-19.277575472572462
20
9.9661056536125088
30
0
10
-19.467754613027953
20
6.1996736665850554
30
0
10
-19.480168980797316
20
5.9538114140095812
30
0
10
-19.491760587641565
20
5.702923760465163
30
0
10
-19.502510988654443
20
5.4469003813229291
30
0
10
-19.59744867220925
20
3.1859366719211741
30
0
10
-19.614102366261434
20
0.85454183886539736
30
0
10
-19.559714729614651
20
-1.4127776461451318
30
0
10
-19.531041235175874
20
-2.6081223357225194
30
0
10
-19.477468787687855
20
-3.9589382563485156
30
0
10
-19.38056142704653
20
-5.1549361083032528
30
0
10
-19.265076826634196
20
-6.5802079670448741
30
0
10
-19.105532011149407
20
-7.5722863174857604
30
0
10
-18.901521342557267
20
-8.304956221789741
30
0
10
-18.872752694226577
20
-8.4082739696548838
30
0
10
-18.843114925723604
20
-8.5064636137986298
30
0
10
-18.812611369086127
20
-8.6000649898322443
30
0
10
-18.651537401277377
20
-9.0943268626123981
30
0
10
-18.458597691052343
20
-9.4867168929900192
30
0
10
-18.217793853490885
20
-9.8256993924705132
30
0
10
-18.170201141822957
20
-9.8926962332253101
30
0
10
-18.120676732160049
20
-9.9576433852268877
30
0
10
-18.06900252276283
20
-10.020928780709907
30
0
10
-17.824472119641083
20
-10.320405123932169
30
0
10
-17.504571367707651
20
-10.617991497094266
30
0
10
-17.039619536021672
20
-10.926533368323264
30
0
10
-16.926552955270786
20
-11.001564311360617
30
0
10
-16.804948492215882
20
-11.077144852628908
30
0
10
-16.673904447782046
20
-11.153320247030862
30
0
10
-15.93779588256216
20
-11.581217298900262
30
0
10
-14.965067159414684
20
-11.989262400507698
30
0
10
-13.823270550575996
20
-12.35391401226833
30
0
10
-12.749668709080838
20
-12.696786498365983
30
0
10
-11.526248858144386
20
-13.002307306244951
30
0
10
-10.204789388833705
20
-13.258363170833077
30
0
10
-6.9154682482561682
20
-13.895726622470319
30
0
10
-3.3880278558482031
20
-14.161037724056264
30
0
10
-4.6614150640931859e-12
20
-14.226682860371557
30
0
0
SPLINE
5
109
100
AcDbEntity
8
0
100
AcDbSpline
70
0
71
3
72
47
73
43
74
0
42
0.000000001
43
0.0000000001
44
0.0000000001
40
-205.15391443819513
40
-205.15391443819513
40
-205.15391443819513
40
-205.15391443819513
40
-185.53849936467202
40
-185.53849936467202
40
-185.53849936467202
40
-169.47192976073146
40
-169.47192976073146
40
-169.47192976073146
40
-162.40846282105866
40
-162.40846282105866
40
-162.40846282105866
40
-152.64210335907458
40
-152.64210335907458
40
-152.64210335907458
40
-144.73622468752373
40
-144.73622468752373
40
-144.73622468752373
40
-143.64914956398297
40
-143.64914956398297
40
-143.64914956398297
40
-136.03703120601321
40
-136.03703120601321
40
-136.03703120601321
40
-127.80909518902914
40
-127.80909518902914
40
-127.80909518902914
40
-116.58116438359762
40
-116.58116438359762
40
-116.58116438359762
40
-100.57188095288646
40
-100.57188095288646
40
-100.57188095288646
40
-85.960081898573378
40
-85.960081898573378
40
-85.960081898573378
40
-73.578083016083369
40
-73.578083016083369
40
-73.578083016083369
40
-67.463993596764695
40
-67.463993596764695
40
-67.463993596764695
40
-66.825505714144711
40
-66.825505714144711
40
-66.825505714144711
40
-66.825505714144711
10
-4.6599685505805406e-12
20
-14.226682860371529
30
0
10
2.794106149219993
20
-14.172545324413942
30
0
10
5.66657131913923
20
-13.983090960376572
30
0
10
8.4216017084215107
20
-13.565216336964687
30
0
10
10.678204597178391
20
-13.222941679669486
30
0
10
12.598894690666345
20
-12.766311092939903
30
0
10
14.120257615570697
20
-12.257002581886935
30
0
10
14.789105850645727
20
-12.03309144723911
30
0
10
15.380697003828006
20
-11.799031775714509
30
0
10
15.888759815029989
20
-11.561231985550817
30
0
10
16.591726549084356
20
-11.232207033980949
30
0
10
17.158930447335187
20
-10.885917985673036
30
0
10
17.593612526011
20
-10.50821614891102
30
0
10
17.945411319762211
20
-10.202532852798889
30
0
10
18.21506586427617
20
-9.8752188219205443
30
0
10
18.436399469468181
20
-9.4791481897540049
30
0
10
18.466833310689857
20
-9.4246876358698852
30
0
10
18.496327559130616
20
-9.3689041897274681
30
0
10
18.524939088669452
20
-9.3116666187689177
30
0
10
18.725382053450971
20
-8.9106790237418352
30
0
10
18.896117092615505
20
-8.4122347266149902
30
0
10
19.038742410192263
20
-7.7387128269262515
30
0
10
19.192906065069614
20
-7.0107032458778367
30
0
10
19.313232626523995
20
-6.0799185872118091
30
0
10
19.403268668128117
20
-4.8615466017920399
30
0
10
19.526090079067366
20
-3.1995214435108155
30
0
10
19.577788428836286
20
-1.1533661085711342
30
0
10
19.588299862466606
20
0.45615421472006773
30
0
10
19.603287532338022
20
2.751079921831995
30
0
10
19.542589874499253
20
5.3266114358658712
30
0
10
19.381395259138621
20
7.6419424694635403
30
0
10
19.234240224957926
20
9.7556149183007683
30
0
10
19.007611375587658
20
11.641433241354324
30
0
10
18.664875414050179
20
13.22900119495703
30
0
10
18.374444737987925
20
14.57428878016184
30
0
10
18.023344028240178
20
15.603672813587343
30
0
10
17.596162178658556
20
16.471419173247014
30
0
10
17.38522466756368
20
16.899902400115195
30
0
10
17.155534381439313
20
17.289415574891379
30
0
10
16.903487866158073
20
17.659486632506383
30
0
10
16.877176823061923
20
17.698118214199482
30
0
10
16.850557200744898
20
17.736625234369466
30
0
10
16.823637765598509
20
17.774999999999977
30
0
0
LWPOLYLINE
5
110
100
AcDbEntity
8
0
100
AcDbPolyline
90
4
70
1
43
0.0
10
-0.37499999999281991
20
-14.226682860371991
10
0.37500000000717998
20
-14.226682860371582
10
0.37500000000717998
20
-12.726682860371582
10
-0.37499999999281908
20
-12.7266828603695
0
LWPOLYLINE
5
111
100
AcDbEntity
8
0
100
AcDbPolyline
90
4
70
1
43
0.0
10
-14.739784350818637
20
-12.362163385534471
10
-15.27011443670855
20
-11.831833299644565
10
-14.209454264928748
20
-10.771173127864728
10
-13.679124179038826
20
-11.301503213754637
0
LWPOLYLINE
5
112
100
AcDbEntity
8
0
100
AcDbPolyline
90
4
70
1
43
0.0
10
-18.081736065338482
20
2.5329510511736975
10
-19.581736065338486
20
2.5329510511737197
10
-19.581736065338085
20
3.2829510511737197
10
-18.081736065338667
20
3.2829510511731139
0
LWPOLYLINE
5
113
100
AcDbEntity
8
0
100
AcDbPolyline
90
4
70
1
43
0.0
10
-15.397379034716604
20
17.775000000000226
10
-14.867048948826287
20
18.305330085890358
10
-13.806388777046141
20
17.244669914110862
10
-14.336718862936538
20
16.714339828220179
0
LWPOLYLINE
5
114
100
AcDbEntity
8
0
100
AcDbPolyline
90
4
70
1
43
0.0
10
13.679124179038675
20
-11.301503213754819
10
14.739784350818473
20
-12.362163385534666
10
15.270114436708393
20
-11.831833299644767
10
14.209454264928608
20
-10.771173127864916
0
LWPOLYLINE
5
115
100
AcDbEntity
8
0
100
AcDbPolyline
90
4
70
1
43
0.0
10
18.081736065338518
20
2.532951051173459
10
19.581736065338518
20
2.5329510511734616
10
19.581736065338131
20
3.2829510511734608
10
18.081736065338713
20
3.282951051172875
0
LWPOLYLINE
5
116
100
AcDbEntity
8
0
100
AcDbPolyline
90
4
70
1
43
0.0
10
14.867048948826527
20
18.305330085890162
10
13.80638877704637
20
17.244669914110677
10
14.336718862936499
20
16.714339828219959
10
15.397379034716611
20
17.774999999999991
0
LINE
5
117
100
AcDbEntity
8
0
100
AcDbLine
10
-17.016448059310719
20
18.150000000000201
30
0
11
-16.823630431459502
21
17.775000000000201
31
0
0
LINE
5
118
100
AcDbEntity
8
0
100
AcDbLine
10
17.016448059310907
20
18.149999999999977
30
0
11
16.823637765598491
21
17.774999999999977
31
0
0
LINE
5
119
100
AcDbEntity
8
0
100
AcDbLine
10
0
20
2.9079510511737197
30
0
11
-23.31098844528162
21
-20.403037394107894
31
0
0
LINE
5
120
100
AcDbEntity
8
0
100
AcDbLine
10
0
20
2.9079510511737197
30
0
11
25.893837714208566
21
-22.985886663034851
31
0
0
SPLINE
5
121
100
AcDbEntity
8
0
100
AcDbSpline
70
0
71
3
72
68
73
64
74
0
42
0.000000001
43
0.0000000001
44
0.0000000001
40
-154.0582072694113
40
-154.0582072694113
40
-154.0582072694113
40
-154.0582072694113
40
-146.84472574855619
40
-146.84472574855619
40
-146.84472574855619
40
-143.77722902570304
40
-143.77722902570304
40
-143.77722902570304
40
-126.80037369142833
40
-126.80037369142833
40
-126.80037369142833
40
-109.51834782989933
40
-109.51834782989933
40
-109.51834782989933
40
-90.980443663581653
40
-90.980443663581653
40
-90.980443663581653
40
-84.32583343127169
40
-84.32583343127169
40
-84.32583343127169
40
-81.205654690056818
40
-81.205654690056818
40
-81.205654690056818
40
-74.480985973652608
40
-74.480985973652608
40
-74.480985973652608
40
-68.8952169263804
40
-68.8952169263804
40
-68.8952169263804
40
-67.915714335944628
40
-67.915714335944628
40
-67.915714335944628
40
-62.992683474558341
40
-62.992683474558341
40
-62.992683474558341
40
-58.071212519335198
40
-58.071212519335198
40
-58.071212519335198
40
-57.528485534845345
40
-57.528485534845345
40
-57.528485534845345
40
-53.04075062242454
40
-53.04075062242454
40
-53.04075062242454
40
-48.220004910752401
40
-48.220004910752401
40
-48.220004910752401
40
-47.447966366625934
40
-47.447966366625934
40
-47.447966366625934
40
-41.763498892639241
40
-41.763498892639241
40
-41.763498892639241
40
-34.251859102423197
40
-34.251859102423197
40
-34.251859102423197
40
-25.948860751259819
40
-25.948860751259819
40
-25.948860751259819
40
-7.7399235070013681
40
-7.7399235070013681
40
-7.7399235070013681
40
-0.1719437541664669
40
-0.1719437541664669
40
-0.1719437541664669
40
-0.1719437541664669
10
-15.074750587826884
20
14.775000000000198
30
0
10
-15.181435029261882
20
14.524565222586649
30
0
10
-15.281851144361813
20
14.253011976277776
30
0
10
-15.378252468997237
20
13.949633975022547
30
0
10
-15.4192466472651
20
13.820624006403976
30
0
10
-15.459472788761534
20
13.6859358428256
30
0
10
-15.499002665328865
20
13.544994497545337
30
0
10
-15.716012780827363
20
12.771258268804869
30
0
10
-15.927157838560586
20
11.737342101135603
30
0
10
-16.10158470795708
20
10.399340743545068
30
0
10
-16.279147019027128
20
9.0372879010521139
30
0
10
-16.419497759421283
20
7.3609232100750761
30
0
10
-16.505152226463018
20
5.3210415289751998
30
0
10
-16.597081519005147
20
3.1317233732531431
30
0
10
-16.613431368871833
20
0.86254548574720946
30
0
10
-16.560577467403025
20
-1.3408354303482992
30
0
10
-16.541631166055925
20
-2.1306715192402508
30
0
10
-16.511471131710437
20
-2.987120793678292
30
0
10
-16.46549075861099
20
-3.803584110895164
30
0
10
-16.443931722446639
20
-4.1864031485892106
30
0
10
-16.418909046124675
20
-4.560322053025395
30
0
10
-16.39036110835357
20
-4.9126510404832908
30
0
10
-16.328774389449396
20
-5.672733484488317
30
0
10
-16.255575459080664
20
-6.2692273720061582
30
0
10
-16.178714589400929
20
-6.7228141127534045
30
0
10
-16.114870988339039
20
-7.0995807437308525
30
0
10
-16.048867125743126
20
-7.3765884826474615
30
0
10
-15.990320852882398
20
-7.5737957368828868
30
0
10
-15.980054365771649
20
-7.6083773700907003
30
0
10
-15.970018381352611
20
-7.6405556976742162
30
0
10
-15.960254552822162
20
-7.6705163936241236
30
0
10
-15.911181167587802
20
-7.8211000268428528
30
0
10
-15.868439384986843
20
-7.9180000134736748
30
0
10
-15.835474680236938
20
-7.9822117444070777
30
0
10
-15.802520420647253
20
-8.0464031292817904
30
0
10
-15.78011430343231
20
-8.0791696986870196
30
0
10
-15.754084563156715
20
-8.112461289296256
30
0
10
-15.751214071270173
20
-8.1161325991027375
30
0
10
-15.748279027558995
20
-8.1198066264752118
30
0
10
-15.745246699905596
20
-8.1235203176379418
30
0
10
-15.719724367073093
20
-8.1547775143284227
30
0
10
-15.688191972983144
20
-8.1899525913684883
30
0
10
-15.622026337883923
20
-8.2470518474400656
30
0
10
-15.550950904978599
20
-8.3083881338336472
30
0
10
-15.438687783956722
20
-8.3944810206491383
30
0
10
-15.258186586616649
20
-8.5048845699363564
30
0
10
-15.229279465199705
20
-8.5225656094592939
30
0
10
-15.198654285226205
20
-8.5408419078885736
30
0
10
-15.166235428658846
20
-8.5596868633823391
30
0
10
-14.928768236365363
20
-8.6977256205699192
30
0
10
-14.602297535542341
20
-8.8600397901113173
30
0
10
-14.207335691211298
20
-9.0249391438858222
30
0
10
-13.685420292966713
20
-9.2428425012120581
30
0
10
-13.044212716906216
20
-9.4662163052434067
30
0
10
-12.318222423420229
20
-9.6760238042438029
30
0
10
-11.515748346105426
20
-9.9079347274128047
30
0
10
-10.609243638390039
20
-10.124193277220725
30
0
10
-9.6341017194975738
20
-10.313144064541035
30
0
10
-7.4929332777870616
20
-10.728032866886961
30
0
10
-5.1921308217031887
20
-10.981143031463978
30
0
10
-2.8796715623227027
20
-11.115505156901603
30
0
10
-1.9185696254282076
20
-11.171348605161082
30
0
10
-0.95532382490653966
20
-11.206932650924482
30
0
10
-4.2467599319030198e-09
20
-11.226099815950366
30
0
0
SPLINE
5
122
100
AcDbEntity
8
0
100
AcDbSpline
70
0
71
3
72
68
73
64
74
0
42
0.000000001
43
0.0000000001
44
0.0000000001
40
-205.01311920052396
40
-205.01311920052396
40
-205.01311920052396
40
-205.01311920052396
40
-187.64218164502535
40
-187.64218164502535
40
-187.64218164502535
40
-185.53849936467202
40
-185.53849936467202
40
-185.53849936467202
40
-173.97348109286534
40
-173.97348109286534
40
-173.97348109286534
40
-166.04251024062555
40
-166.04251024062555
40
-166.04251024062555
40
-162.40846282105866
40
-162.40846282105866
40
-162.40846282105866
40
-156.5111753794786
40
-156.5111753794786
40
-156.5111753794786
40
-152.64210335907458
40
-152.64210335907458
40
-152.64210335907458
40
-148.3478991908998
40
-148.3478991908998
40
-148.3478991908998
40
-144.01497462274486
40
-144.01497462274486
40
-144.01497462274486
40
-143.64914956398297
40
-143.64914956398297
40
-143.64914956398297
40
-139.67794011433321
40
-139.67794011433321
40
-139.67794011433321
40
-134.66465656028427
40
-134.66465656028427
40
-134.66465656028427
40
-127.80909518902914
40
-127.80909518902914
40
-127.80909518902914
40
-122.62089489314027
40
-122.62089489314027
40
-122.62089489314027
40
-116.58116438359762
40
-116.58116438359762
40
-116.58116438359762
40
-103.92835175428233
40
-103.92835175428233
40
-103.92835175428233
40
-100.57188095288646
40
-100.57188095288646
40
-100.57188095288646
40
-90.646857083183619
40
-90.646857083183619
40
-90.646857083183619
40
-85.960081898573378
40
-85.960081898573378
40
-85.960081898573378
40
-78.867297086270213
40
-78.867297086270213
40
-78.867297086270213
40
-75.968328892419819
40
-75.968328892419819
40
-75.968328892419819
40
-75.968328892419819
10
-4.2467590358568775e-09
20
-11.226099815950503
30
0
10
2.3903841452437988
20
-11.178140261126376
30
0
10
4.8187606210549587
20
-11.026696625538433
30
0
10
7.1353240150379431
20
-10.718162409659316
30
0
10
7.415868075925121
20
-10.680797819477931
30
0
10
7.6947580356783556
20
-10.641149150300079
30
0
10
7.9717164214598011
20
-10.599140945378124
30
0
10
9.4944024018036508
20
-10.368184570782013
30
0
10
10.835472323739545
20
-10.083938250001914
30
0
10
11.958720715266828
20
-9.7773144592325814
30
0
10
12.729013510631036
20
-9.5670403126604846
30
0
10
13.396916751377381
20
-9.3459670087938047
30
0
10
13.944011148758058
20
-9.1314597951100289
30
0
10
14.194695083941008
20
-9.0331705186911346
30
0
10
14.419899959552803
20
-8.9363860445807468
30
0
10
14.617013392516686
20
-8.8441267176554756
30
0
10
14.939547368941078
20
-8.6931640606309895
30
0
10
15.189541054952771
20
-8.5528684602693943
30
0
10
15.366558351827221
20
-8.4364863571164328
30
0
10
15.48269524989251
20
-8.3601307879762849
30
0
10
15.567495509561066
20
-8.2944322007881688
30
0
10
15.625914797663444
20
-8.2436707972221068
30
0
10
15.690377618148954
20
-8.1876580769038245
30
0
10
15.723519472766675
20
-8.1508604261406905
30
0
10
15.75062719981778
20
-8.1167463136394229
30
0
10
15.777979354472432
20
-8.0823245976732796
30
0
10
15.800682536222268
20
-8.0492801967921164
30
0
10
15.833129846749207
20
-7.9867743111764771
30
0
10
15.835869345001131
20
-7.9814969935314002
30
0
10
15.838665914183016
20
-7.9760105180870227
30
0
10
15.841521459974574
20
-7.9702979781597971
30
0
10
15.872961270922632
20
-7.9074024098672853
30
0
10
15.913147269792114
20
-7.8152738097862144
30
0
10
15.960879246518127
20
-7.6681337951542625
30
0
10
16.02113643943548
20
-7.4823831756391064
30
0
10
16.091830934709368
20
-7.2089882532783074
30
0
10
16.160181019488675
20
-6.827731555035359
30
0
10
16.253648344024224
20
-6.3063709208666276
30
0
10
16.341535381225533
20
-5.5862273209204529
30
0
10
16.4114267847294
20
-4.6404535337387394
30
0
10
16.464141915921051
20
-3.9271098781610037
30
0
10
16.504442495262516
20
-3.1109927966414177
30
0
10
16.532780552231841
20
-2.2888251162319162
30
0
10
16.565769684782182
20
-1.33171649664682
30
0
10
16.582875602308167
20
-0.3646173823433751
30
0
10
16.588363837179013
20
0.47574615647358537
30
0
10
16.599861305050588
20
2.2362489438677309
30
0
10
16.565144760890249
20
4.1762102731502022
30
0
10
16.473528920052427
20
6.0062914884078094
30
0
10
16.449225557335666
20
6.4917656942743704
30
0
10
16.420953010047089
20
6.9694471431204681
30
0
10
16.388639466189531
20
7.4335851711280494
30
0
10
16.292896701341341
20
8.80879360597255
30
0
10
16.163050191744571
20
10.061449806581603
30
0
10
15.994922063358441
20
11.156110867775835
30
0
10
15.915528930374606
20
11.673029553767655
30
0
10
15.827718804477215
20
12.154560132704971
30
0
10
15.732433907159376
20
12.59592394164272
30
0
10
15.58824810132332
20
13.26379889612039
30
0
10
15.434051423712127
20
13.807349530233644
30
0
10
15.274060971493686
20
14.260572734355501
30
0
10
15.208669556897759
20
14.445814453684862
30
0
10
15.142259922300882
20
14.61621973884812
30
0
10
15.074682765391891
20
14.775000000000002
30
0
0
LINE
5
123
100
AcDbEntity
8
0
100
AcDbLine
10
15.074682765391898
20
14.774999999999993
30
0
11
-15.074750587826884
21
14.775000000000198
31
0
0
LINE
5
124
100
AcDbEntity
8
0
100
AcDbLine
10
0
20
2.9079510511737197
30
0
11
-16.543535765403369
21
-13.635584714229664
31
0
0
LINE
5
125
100
AcDbEntity
8
0
100
AcDbLine
10
0
20
2.9079510511737197
30
0
11
20.706279481570885
21
2.9079510511737197
31
0
0
LINE
5
126
100
AcDbEntity
8
0
100
AcDbLine
10
0
20
2.9079510511737197
30
0
11
14.641550634562638
21
-11.733599583388926
31
0
0
ENDSEC
0
SECTION
2
OBJECTS
0
DICTIONARY
5
C
100
AcDbDictionary
3
ACAD_GROUP
350
D
3
ACAD_MLINESTYLE
350
17
0
DICTIONARY
5
D
100
AcDbDictionary
0
DICTIONARY
5
1A
330
C
100
AcDbDictionary
0
DICTIONARY
5
17
100
AcDbDictionary
0
ENDSEC
0
EOF
