0
SECTION
2
HEADER
9
$INSUNITS
70
1
9
$ACADVER
1
AC1014
9
$HANDSEED
5
FFFF
0
ENDSEC
0
SECTION
2
TABLES
0
TABLE
2
VPORT
5
8
100
AcDbSymbolTable
0
ENDTAB
0
TABLE
2
LTYPE
5
5
100
AcDbSymbolTable
0
LTYPE
5
14
100
AcDbSymbolTableRecord
100
AcDbLinetypeTableRecord
2
BYBLOCK
70
0
0
LTYPE
5
15
100
AcDbSymbolTableRecord
100
AcDbLinetypeTableRecord
2
BYLAYER
70
0
0
ENDTAB
0
TABLE
2
LAYER
5
2
100
AcDbSymbolTable
70
2
0
LAYER
5
50
100
AcDbSymbolTableRecord
100
AcDbLayerTableRecord
2
0
70
0
6
CONTINUOUS
0
ENDTAB
0
TABLE
2
STYLE
5
3
100
AcDbSymbolTable
70
1
0
STYLE
5
11
100
AcDbSymbolTableRecord
100
AcDbTextStyleTableRecord
2
STANDARD
70
0
0
ENDTAB
0
TABLE
2
VIEW
5
6
100
AcDbSymbolTable
70
0
0
ENDTAB
0
TABLE
2
UCS
5
7
100
AcDbSymbolTable
70
0
0
ENDTAB
0
TABLE
2
APPID
5
9
100
AcDbSymbolTable
70
2
0
APPID
5
12
100
AcDbSymbolTableRecord
100
AcDbRegAppTableRecord
2
ACAD
70
0
0
ENDTAB
0
TABLE
2
DIMSTYLE
5
A
100
AcDbSymbolTable
70
1
0
ENDTAB
0
TABLE
2
BLOCK_RECORD
5
1
100
AcDbSymbolTable
70
1
0
BLOCK_RECORD
5
1F
100
AcDbSymbolTableRecord
100
AcDbBlockTableRecord
2
*MODEL_SPACE
0
BLOCK_RECORD
5
1B
100
AcDbSymbolTableRecord
100
AcDbBlockTableRecord
2
*PAPER_SPACE
0
ENDTAB
0
ENDSEC
0
SECTION
2
BLOCKS
0
BLOCK
5
20
100
AcDbEntity
100
AcDbBlockBegin
2
*MODEL_SPACE
0
ENDBLK
5
21
100
AcDbEntity
100
AcDbBlockEnd
0
BLOCK
5
1C
100
AcDbEntity
100
AcDbBlockBegin
2
*PAPER_SPACE
0
ENDBLK
5
1D
100
AcDbEntity
100
AcDbBlockEnd
0
ENDSEC
0
SECTION
2
ENTITIES
0
SPLINE
5
100
100
AcDbEntity
8
0
100
AcDbSpline
70
0
71
3
72
29
73
25
74
0
42
0.000000001
43
0.0000000001
44
0.0000000001
40
111.88847323211014
40
111.88847323211014
40
111.88847323211014
40
111.88847323211014
40
116.58116438359762
40
116.58116438359762
40
116.58116438359762
40
127.80909518902914
40
127.80909518902914
40
127.80909518902914
40
136.03703120601321
40
136.03703120601321
40
136.03703120601321
40
143.64914956398297
40
143.64914956398297
40
143.64914956398297
40
144.73622468752373
40
144.73622468752373
40
144.73622468752373
40
152.64210335907458
40
152.64210335907458
40
152.64210335907458
40
162.40846282105866
40
162.40846282105866
40
162.40846282105866
40
165.10748493691119
40
165.10748493691119
40
165.10748493691119
40
165.10748493691119
10
19.581345752833894
20
-2.5329510511734639
30
0
10
19.590583356121027
20
-1.8256557718662532
30
0
10
19.592693095061396
20
-1.128850004365844
30
0
10
19.588299862466606
20
-0.45615421472006773
30
0
10
19.577788428836286
20
1.1533661085711342
30
0
10
19.526090079067366
20
3.1995214435108155
30
0
10
19.403268668128117
20
4.8615466017920399
30
0
10
19.313232626523995
20
6.0799185872118091
30
0
10
19.192906065069614
20
7.0107032458778367
30
0
10
19.038742410192263
20
7.7387128269262515
30
0
10
18.896117092615505
20
8.4122347266149902
30
0
10
18.725382053450971
20
8.9106790237418352
30
0
10
18.524939088669452
20
9.3116666187689177
30
0
10
18.496327559130616
20
9.3689041897274681
30
0
10
18.466833310689857
20
9.4246876358698852
30
0
10
18.436399469468181
20
9.4791481897540049
30
0
10
18.21506586427617
20
9.8752188219205443
30
0
10
17.945411319762211
20
10.202532852798889
30
0
10
17.593612526011
20
10.50821614891102
30
0
10
17.158930447335187
20
10.885917985673036
30
0
10
16.591726549084356
20
11.232207033980949
30
0
10
15.888759815029989
20
11.561231985550817
30
0
10
15.694623879321922
20
11.652097689075527
30
0
10
15.488292126205955
20
11.742417304854149
30
0
10
15.270114436708395
20
11.831833299644769
30
0
0
LINE
5
101
100
AcDbEntity
8
0
100
AcDbLine
10
15.270114436708395
20
11.831833299644769
30
0
11
14.209454264928608
21
10.771173127864916
31
0
0
LINE
5
102
100
AcDbEntity
8
0
100
AcDbLine
10
14.209454264928608
20
10.771173127864916
30
0
11
13.679124179038675
21
11.301503213754819
31
0
0
LINE
5
103
100
AcDbEntity
8
0
100
AcDbLine
10
13.679124179038675
20
11.301503213754819
30
0
11
14.502564482783582
21
12.124943517499764
31
0
0
SPLINE
5
104
100
AcDbEntity
8
0
100
AcDbSpline
70
0
71
3
72
14
73
10
74
0
42
0.000000001
43
0.0000000001
44
0.0000000001
40
168.09495841715375
40
168.09495841715375
40
168.09495841715375
40
168.09495841715375
40
169.47192976073146
40
169.47192976073146
40
169.47192976073146
40
185.53849936467202
40
185.53849936467202
40
185.53849936467202
40
204.27743654879316
40
204.27743654879316
40
204.27743654879316
40
204.27743654879316
10
14.50256448278358
20
12.124943517499766
30
0
10
14.378095807911262
20
12.169317226504873
30
0
10
14.250644698962851
20
12.213352739882819
30
0
10
14.120257615570697
20
12.257002581886935
30
0
10
12.598894690666345
20
12.766311092939903
30
0
10
10.678204597178391
20
13.222941679669486
30
0
10
8.4216017084215107
20
13.565216336964687
30
0
10
5.7896746647368369
20
13.964419019630485
30
0
10
3.0505730764865864
20
14.155158441793459
30
0
10
0.37500000000717959
20
14.218606939703957
30
0
0
LINE
5
105
100
AcDbEntity
8
0
100
AcDbLine
10
0.37500000000717992
20
14.218606939703957
30
0
11
0.37500000000718114
21
12.726682860371582
31
0
0
LINE
5
106
100
AcDbEntity
8
0
100
AcDbLine
10
0.37500000000718114
20
12.726682860371582
30
0
11
-0.37499999999281924
21
12.7266828603695
31
0
0
LINE
5
107
100
AcDbEntity
8
0
100
AcDbLine
10
-0.37499999999281924
20
12.7266828603695
30
0
11
-0.37499999999281924
21
14.218606037419955
31
0
0
SPLINE
5
108
100
AcDbEntity
8
0
100
AcDbSpline
70
0
71
3
72
14
73
10
74
0
42
0.000000001
43
0.0000000001
44
0.0000000001
40
0.97374715804917145
40
0.97374715804917145
40
0.97374715804917145
40
0.97374715804917145
40
25.948860751259819
40
25.948860751259819
40
25.948860751259819
40
36.367519018208469
40
36.367519018208469
40
36.367519018208469
40
38.63500952773429
40
38.63500952773429
40
38.63500952773429
40
38.63500952773429
10
-0.3749999999928218
20
14.218606037419955
30
0
10
-3.6476109182731773
20
14.140984307007379
30
0
10
-7.0366489079868435
20
13.872245752024186
30
0
10
-10.204789388833705
20
13.258363170833077
30
0
10
-11.526248858144386
20
13.002307306244951
30
0
10
-12.749668709080838
20
12.696786498365983
30
0
10
-13.823270550575996
20
12.35391401226833
30
0
10
-14.056926547751981
20
12.279292109113072
30
0
10
-14.283502475951803
20
12.202853013414266
30
0
10
-14.502419433891728
20
12.124798468607558
30
0
0
LINE
5
109
100
AcDbEntity
8
0
100
AcDbLine
10
-14.502419433891728
20
12.124798468607557
30
0
11
-13.679124179038826
21
11.301503213754637
31
0
0
LINE
5
110
100
AcDbEntity
8
0
100
AcDbLine
10
-13.679124179038826
20
11.301503213754637
30
0
11
-14.20945426492875
21
10.771173127864728
31
0
0
LINE
5
111
100
AcDbEntity
8
0
100
AcDbLine
10
-14.20945426492875
20
10.771173127864728
30
0
11
-15.269928719244815
21
11.831647582180832
31
0
0
SPLINE
5
112
100
AcDbEntity
8
0
100
AcDbSpline
70
0
71
3
72
32
73
28
74
0
42
0.000000001
43
0.0000000001
44
0.0000000001
40
41.407123423191621
40
41.407123423191621
40
41.407123423191621
40
41.407123423191621
40
47.447966366625934
40
47.447966366625934
40
47.447966366625934
40
49.419823681238455
40
49.419823681238455
40
49.419823681238455
40
57.528485534845345
40
57.528485534845345
40
57.528485534845345
40
59.242640529696928
40
59.242640529696928
40
59.242640529696928
40
67.915714335944628
40
67.915714335944628
40
67.915714335944628
40
69.558186809175808
40
69.558186809175808
40
69.558186809175808
40
81.205654690056818
40
81.205654690056818
40
81.205654690056818
40
90.980443663581653
40
90.980443663581653
40
90.980443663581653
40
101.63064074432432
40
101.63064074432432
40
101.63064074432432
40
101.63064074432432
10
-15.269928719244817
20
11.831647582180832
30
0
10
-15.800951850305763
20
11.61398200604598
30
0
10
-16.272592470748446
20
11.386601341649374
30
0
10
-16.673904447782046
20
11.153320247030862
30
0
10
-16.804948492215882
20
11.077144852628908
30
0
10
-16.926552955270786
20
11.001564311360617
30
0
10
-17.039619536021672
20
10.926533368323264
30
0
10
-17.504571367707651
20
10.617991497094266
30
0
10
-17.824472119641083
20
10.320405123932169
30
0
10
-18.06900252276283
20
10.020928780709907
30
0
10
-18.120676732160049
20
9.9576433852268877
30
0
10
-18.170201141822957
20
9.8926962332253101
30
0
10
-18.217793853490885
20
9.8256993924705132
30
0
10
-18.458597691052343
20
9.4867168929900192
30
0
10
-18.651537401277377
20
9.0943268626123981
30
0
10
-18.812611369086127
20
8.6000649898322443
30
0
10
-18.843114925723604
20
8.5064636137986298
30
0
10
-18.872752694226577
20
8.4082739696548838
30
0
10
-18.901521342557267
20
8.304956221789741
30
0
10
-19.105532011149407
20
7.5722863174857604
30
0
10
-19.265076826634196
20
6.5802079670448741
30
0
10
-19.38056142704653
20
5.1549361083032528
30
0
10
-19.477468787687855
20
3.9589382563485156
30
0
10
-19.531041235175874
20
2.6081223357225194
30
0
10
-19.559714729614651
20
1.4127776461451318
30
0
10
-19.590960928960989
20
0.1101816706926004
30
0
10
-19.598759165788863
20
-1.2135630690713575
30
0
10
-19.581736065338486
20
-2.5329510511737214
30
0
0
LINE
5
113
100
AcDbEntity
8
0
100
AcDbLine
10
-19.581736065338486
20
-2.5329510511737214
30
0
11
-18.081736065338482
21
-2.5329510511736983
31
0
0
LINE
5
114
100
AcDbEntity
8
0
100
AcDbLine
10
-18.081736065338482
20
-2.5329510511736983
30
0
11
-18.081736065338667
21
-3.2829510511731139
31
0
0
LINE
5
115
100
AcDbEntity
8
0
100
AcDbLine
10
-18.081736065338667
20
-3.2829510511731139
30
0
11
-19.569363584870569
21
-3.2829510511737157
31
0
0
SPLINE
5
116
100
AcDbEntity
8
0
100
AcDbSpline
70
0
71
3
72
20
73
16
74
0
42
0.000000001
43
0.0000000001
44
0.0000000001
40
103.65039207846478
40
103.65039207846478
40
103.65039207846478
40
103.65039207846478
40
109.51834782989933
40
109.51834782989933
40
109.51834782989933
40
111.61763696437453
40
111.61763696437453
40
111.61763696437453
40
143.77722902570304
40
143.77722902570304
40
143.77722902570304
40
148.93194689215031
40
148.93194689215031
40
148.93194689215031
40
167.68758724972221
40
167.68758724972221
40
167.68758724972221
40
167.68758724972221
10
-19.569363584870572
20
-3.2829510511737223
30
0
10
-19.554770026224169
20
-4.008480438061401
30
0
10
-19.532562396906705
20
-4.7312188844644743
30
0
10
-19.502510988654443
20
-5.4469003813229291
30
0
10
-19.491760587641565
20
-5.702923760465163
30
0
10
-19.480168980797316
20
-5.9538114140095812
30
0
10
-19.467754613027953
20
-6.1996736665850554
30
0
10
-19.277575472572462
20
-9.9661056536125088
30
0
10
-18.892812899972618
20
-12.553630609734721
30
0
10
-18.387541647907625
20
-14.355144203539764
30
0
10
-18.30649441079051
20
-14.64411314608321
30
0
10
-18.220521101581063
20
-14.920560730321624
30
0
10
-18.128484949001308
20
-15.186490675271065
30
0
10
-17.793607847595521
20
-16.154087066966166
30
0
10
-17.379889151286655
20
-16.981910563886579
30
0
10
-16.823630431459506
20
-17.775000000000212
30
0
0
LINE
5
117
100
AcDbEntity
8
0
100
AcDbLine
10
-16.823630431459506
20
-17.775000000000212
30
0
11
-15.397379034716604
21
-17.775000000000222
31
0
0
LINE
5
118
100
AcDbEntity
8
0
100
AcDbLine
10
-15.397379034716604
20
-17.775000000000222
30
0
11
-14.336718862936541
21
-16.714339828220176
31
0
0
LINE
5
119
100
AcDbEntity
8
0
100
AcDbLine
10
-14.336718862936541
20
-16.714339828220176
30
0
11
-13.806388777046141
21
-17.244669914110862
31
0
0
LINE
5
120
100
AcDbEntity
8
0
100
AcDbLine
10
-13.806388777046141
20
-17.244669914110862
30
0
11
-14.336718862935792
21
-17.775000000000183
31
0
0
LINE
5
121
100
AcDbEntity
8
0
100
AcDbLine
10
-14.336718862935792
20
-17.775000000000183
30
0
11
14.336718862936021
21
-17.774999999999991
31
0
0
LINE
5
122
100
AcDbEntity
8
0
100
AcDbLine
10
14.336718862936021
20
-17.774999999999991
30
0
11
13.80638877704637
21
-17.244669914110677
31
0
0
LINE
5
123
100
AcDbEntity
8
0
100
AcDbLine
10
13.80638877704637
20
-17.244669914110677
30
0
11
14.336718862936499
21
-16.714339828219959
31
0
0
LINE
5
124
100
AcDbEntity
8
0
100
AcDbLine
10
14.336718862936499
20
-16.714339828219959
30
0
11
15.397379034716611
21
-17.774999999999991
31
0
0
LINE
5
125
100
AcDbEntity
8
0
100
AcDbLine
10
15.397379034716611
20
-17.774999999999991
30
0
11
16.823637765598509
21
-17.774999999999977
31
0
0
SPLINE
5
126
100
AcDbEntity
8
0
100
AcDbSpline
70
0
71
3
72
20
73
16
74
0
42
0.000000001
43
0.0000000001
44
0.0000000001
40
66.825505714144711
40
66.825505714144711
40
66.825505714144711
40
66.825505714144711
40
67.463993596764695
40
67.463993596764695
40
67.463993596764695
40
73.578083016083369
40
73.578083016083369
40
73.578083016083369
40
85.960081898573378
40
85.960081898573378
40
85.960081898573378
40
100.57188095288646
40
100.57188095288646
40
100.57188095288646
40
110.23710413454069
40
110.23710413454069
40
110.23710413454069
40
110.23710413454069
10
16.823637765598509
20
-17.774999999999977
30
0
10
16.850557200744898
20
-17.736625234369466
30
0
10
16.877176823061923
20
-17.698118214199482
30
0
10
16.903487866158073
20
-17.659486632506383
30
0
10
17.155534381439313
20
-17.289415574891379
30
0
10
17.38522466756368
20
-16.899902400115195
30
0
10
17.596162178658556
20
-16.471419173247014
30
0
10
18.023344028240178
20
-15.603672813587343
30
0
10
18.374444737987925
20
-14.57428878016184
30
0
10
18.664875414050179
20
-13.22900119495703
30
0
10
19.007611375587658
20
-11.641433241354324
30
0
10
19.234240224957926
20
-9.7556149183007683
30
0
10
19.381395259138621
20
-7.6419424694635403
30
0
10
19.478712664997815
20
-6.2441165595166419
30
0
10
19.539400409745188
20
-4.7514514061285853
30
0
10
19.56891827501083
20
-3.2829510511767137
30
0
0
LINE
5
127
100
AcDbEntity
8
0
100
AcDbLine
10
19.56891827501083
20
-3.2829510511767137
30
0
11
18.081736065338713
21
-3.2829510511728763
31
0
0
LINE
5
128
100
AcDbEntity
8
0
100
AcDbLine
10
18.081736065338713
20
-3.2829510511728763
30
0
11
18.081736065338518
21
-2.5329510511734576
31
0
0
LINE
5
129
100
AcDbEntity
8
0
100
AcDbLine
10
18.081736065338518
20
-2.5329510511734576
30
0
11
19.581345752833894
21
-2.5329510511734639
31
0
0
SPLINE
5
130
100
AcDbEntity
8
0
100
AcDbSpline
70
0
71
3
72
68
73
64
74
0
42
0.000000001
43
0.0000000001
44
0.0000000001
40
-205.01311920052396
40
-205.01311920052396
40
-205.01311920052396
40
-205.01311920052396
40
-187.64218164502535
40
-187.64218164502535
40
-187.64218164502535
40
-185.53849936467202
40
-185.53849936467202
40
-185.53849936467202
40
-173.97348109286534
40
-173.97348109286534
40
-173.97348109286534
40
-166.04251024062555
40
-166.04251024062555
40
-166.04251024062555
40
-162.40846282105866
40
-162.40846282105866
40
-162.40846282105866
40
-156.5111753794786
40
-156.5111753794786
40
-156.5111753794786
40
-152.64210335907458
40
-152.64210335907458
40
-152.64210335907458
40
-148.3478991908998
40
-148.3478991908998
40
-148.3478991908998
40
-144.01497462274486
40
-144.01497462274486
40
-144.01497462274486
40
-143.64914956398297
40
-143.64914956398297
40
-143.64914956398297
40
-139.67794011433321
40
-139.67794011433321
40
-139.67794011433321
40
-134.66465656028427
40
-134.66465656028427
40
-134.66465656028427
40
-127.80909518902914
40
-127.80909518902914
40
-127.80909518902914
40
-122.62089489314027
40
-122.62089489314027
40
-122.62089489314027
40
-116.58116438359762
40
-116.58116438359762
40
-116.58116438359762
40
-103.92835175428233
40
-103.92835175428233
40
-103.92835175428233
40
-100.57188095288646
40
-100.57188095288646
40
-100.57188095288646
40
-90.646857083183619
40
-90.646857083183619
40
-90.646857083183619
40
-85.960081898573378
40
-85.960081898573378
40
-85.960081898573378
40
-78.867297086270213
40
-78.867297086270213
40
-78.867297086270213
40
-75.968328892419819
40
-75.968328892419819
40
-75.968328892419819
40
-75.968328892419819
10
-4.2467590358568775e-09
20
11.226099815950503
30
0
10
2.3903841452437988
20
11.178140261126376
30
0
10
4.8187606210549587
20
11.026696625538433
30
0
10
7.1353240150379431
20
10.718162409659316
30
0
10
7.415868075925121
20
10.680797819477931
30
0
10
7.6947580356783556
20
10.641149150300079
30
0
10
7.9717164214598011
20
10.599140945378124
30
0
10
9.4944024018036508
20
10.368184570782013
30
0
10
10.835472323739545
20
10.083938250001914
30
0
10
11.958720715266828
20
9.7773144592325814
30
0
10
12.729013510631036
20
9.5670403126604846
30
0
10
13.396916751377381
20
9.3459670087938047
30
0
10
13.944011148758058
20
9.1314597951100289
30
0
10
14.194695083941008
20
9.0331705186911346
30
0
10
14.419899959552803
20
8.9363860445807468
30
0
10
14.617013392516686
20
8.8441267176554756
30
0
10
14.939547368941078
20
8.6931640606309895
30
0
10
15.189541054952771
20
8.5528684602693943
30
0
10
15.366558351827221
20
8.4364863571164328
30
0
10
15.48269524989251
20
8.3601307879762849
30
0
10
15.567495509561066
20
8.2944322007881688
30
0
10
15.625914797663444
20
8.2436707972221068
30
0
10
15.690377618148954
20
8.1876580769038245
30
0
10
15.723519472766675
20
8.1508604261406905
30
0
10
15.75062719981778
20
8.1167463136394229
30
0
10
15.777979354472432
20
8.0823245976732796
30
0
10
15.800682536222268
20
8.0492801967921164
30
0
10
15.833129846749207
20
7.9867743111764771
30
0
10
15.835869345001131
20
7.9814969935314002
30
0
10
15.838665914183016
20
7.9760105180870227
30
0
10
15.841521459974574
20
7.9702979781597971
30
0
10
15.872961270922632
20
7.9074024098672853
30
0
10
15.913147269792114
20
7.8152738097862144
30
0
10
15.960879246518127
20
7.6681337951542625
30
0
10
16.02113643943548
20
7.4823831756391064
30
0
10
16.091830934709368
20
7.2089882532783074
30
0
10
16.160181019488675
20
6.827731555035359
30
0
10
16.253648344024224
20
6.3063709208666276
30
0
10
16.341535381225533
20
5.5862273209204529
30
0
10
16.4114267847294
20
4.6404535337387394
30
0
10
16.464141915921051
20
3.9271098781610037
30
0
10
16.504442495262516
20
3.1109927966414177
30
0
10
16.532780552231841
20
2.2888251162319162
30
0
10
16.565769684782182
20
1.33171649664682
30
0
10
16.582875602308167
20
0.3646173823433751
30
0
10
16.588363837179013
20
-0.47574615647358537
30
0
10
16.599861305050588
20
-2.2362489438677309
30
0
10
16.565144760890249
20
-4.1762102731502022
30
0
10
16.473528920052427
20
-6.0062914884078094
30
0
10
16.449225557335666
20
-6.4917656942743704
30
0
10
16.420953010047089
20
-6.9694471431204681
30
0
10
16.388639466189531
20
-7.4335851711280494
30
0
10
16.292896701341341
20
-8.80879360597255
30
0
10
16.163050191744571
20
-10.061449806581603
30
0
10
15.994922063358441
20
-11.156110867775835
30
0
10
15.915528930374606
20
-11.673029553767655
30
0
10
15.827718804477215
20
-12.154560132704971
30
0
10
15.732433907159376
20
-12.59592394164272
30
0
10
15.58824810132332
20
-13.26379889612039
30
0
10
15.434051423712127
20
-13.807349530233644
30
0
10
15.274060971493686
20
-14.260572734355501
30
0
10
15.208669556897759
20
-14.445814453684862
30
0
10
15.142259922300882
20
-14.61621973884812
30
0
10
15.074682765391891
20
-14.775000000000002
30
0
0
LINE
5
131
100
AcDbEntity
8
0
100
AcDbLine
10
15.074682765391891
20
-14.775000000000002
30
0
11
-15.074750587826884
21
-14.775000000000198
31
0
0
SPLINE
5
132
100
AcDbEntity
8
0
100
AcDbSpline
70
0
71
3
72
68
73
64
74
0
42
0.000000001
43
0.0000000001
44
0.0000000001
40
-154.0582072694113
40
-154.0582072694113
40
-154.0582072694113
40
-154.0582072694113
40
-146.84472574855619
40
-146.84472574855619
40
-146.84472574855619
40
-143.77722902570304
40
-143.77722902570304
40
-143.77722902570304
40
-126.80037369142833
40
-126.80037369142833
40
-126.80037369142833
40
-109.51834782989933
40
-109.51834782989933
40
-109.51834782989933
40
-90.980443663581653
40
-90.980443663581653
40
-90.980443663581653
40
-84.32583343127169
40
-84.32583343127169
40
-84.32583343127169
40
-81.205654690056818
40
-81.205654690056818
40
-81.205654690056818
40
-74.480985973652608
40
-74.480985973652608
40
-74.480985973652608
40
-68.8952169263804
40
-68.8952169263804
40
-68.8952169263804
40
-67.915714335944628
40
-67.915714335944628
40
-67.915714335944628
40
-62.992683474558341
40
-62.992683474558341
40
-62.992683474558341
40
-58.071212519335198
40
-58.071212519335198
40
-58.071212519335198
40
-57.528485534845345
40
-57.528485534845345
40
-57.528485534845345
40
-53.04075062242454
40
-53.04075062242454
40
-53.04075062242454
40
-48.220004910752401
40
-48.220004910752401
40
-48.220004910752401
40
-47.447966366625934
40
-47.447966366625934
40
-47.447966366625934
40
-41.763498892639241
40
-41.763498892639241
40
-41.763498892639241
40
-34.251859102423197
40
-34.251859102423197
40
-34.251859102423197
40
-25.948860751259819
40
-25.948860751259819
40
-25.948860751259819
40
-7.7399235070013681
40
-7.7399235070013681
40
-7.7399235070013681
40
-0.1719437541664669
40
-0.1719437541664669
40
-0.1719437541664669
40
-0.1719437541664669
10
-15.074750587826884
20
-14.775000000000198
30
0
10
-15.181435029261882
20
-14.524565222586649
30
0
10
-15.281851144361813
20
-14.253011976277776
30
0
10
-15.378252468997237
20
-13.949633975022547
30
0
10
-15.4192466472651
20
-13.820624006403976
30
0
10
-15.459472788761534
20
-13.6859358428256
30
0
10
-15.499002665328865
20
-13.544994497545337
30
0
10
-15.716012780827363
20
-12.771258268804869
30
0
10
-15.927157838560586
20
-11.737342101135603
30
0
10
-16.10158470795708
20
-10.399340743545068
30
0
10
-16.279147019027128
20
-9.0372879010521139
30
0
10
-16.419497759421283
20
-7.3609232100750761
30
0
10
-16.505152226463018
20
-5.3210415289751998
30
0
10
-16.597081519005147
20
-3.1317233732531431
30
0
10
-16.613431368871833
20
-0.86254548574720946
30
0
10
-16.560577467403025
20
1.3408354303482992
30
0
10
-16.541631166055925
20
2.1306715192402508
30
0
10
-16.511471131710437
20
2.987120793678292
30
0
10
-16.46549075861099
20
3.803584110895164
30
0
10
-16.443931722446639
20
4.1864031485892106
30
0
10
-16.418909046124675
20
4.560322053025395
30
0
10
-16.39036110835357
20
4.9126510404832908
30
0
10
-16.328774389449396
20
5.672733484488317
30
0
10
-16.255575459080664
20
6.2692273720061582
30
0
10
-16.178714589400929
20
6.7228141127534045
30
0
10
-16.114870988339039
20
7.0995807437308525
30
0
10
-16.048867125743126
20
7.3765884826474615
30
0
10
-15.990320852882398
20
7.5737957368828868
30
0
10
-15.980054365771649
20
7.6083773700907003
30
0
10
-15.970018381352611
20
7.6405556976742162
30
0
10
-15.960254552822162
20
7.6705163936241236
30
0
10
-15.911181167587802
20
7.8211000268428528
30
0
10
-15.868439384986843
20
7.9180000134736748
30
0
10
-15.835474680236938
20
7.9822117444070777
30
0
10
-15.802520420647253
20
8.0464031292817904
30
0
10
-15.78011430343231
20
8.0791696986870196
30
0
10
-15.754084563156715
20
8.112461289296256
30
0
10
-15.751214071270173
20
8.1161325991027375
30
0
10
-15.748279027558995
20
8.1198066264752118
30
0
10
-15.745246699905596
20
8.1235203176379418
30
0
10
-15.719724367073093
20
8.1547775143284227
30
0
10
-15.688191972983144
20
8.1899525913684883
30
0
10
-15.622026337883923
20
8.2470518474400656
30
0
10
-15.550950904978599
20
8.3083881338336472
30
0
10
-15.438687783956722
20
8.3944810206491383
30
0
10
-15.258186586616649
20
8.5048845699363564
30
0
10
-15.229279465199705
20
8.5225656094592939
30
0
10
-15.198654285226205
20
8.5408419078885736
30
0
10
-15.166235428658846
20
8.5596868633823391
30
0
10
-14.928768236365363
20
8.6977256205699192
30
0
10
-14.602297535542341
20
8.8600397901113173
30
0
10
-14.207335691211298
20
9.0249391438858222
30
0
10
-13.685420292966713
20
9.2428425012120581
30
0
10
-13.044212716906216
20
9.4662163052434067
30
0
10
-12.318222423420229
20
9.6760238042438029
30
0
10
-11.515748346105426
20
9.9079347274128047
30
0
10
-10.609243638390039
20
10.124193277220725
30
0
10
-9.6341017194975738
20
10.313144064541035
30
0
10
-7.4929332777870616
20
10.728032866886961
30
0
10
-5.1921308217031887
20
10.981143031463978
30
0
10
-2.8796715623227027
20
11.115505156901603
30
0
10
-1.9185696254282076
20
11.171348605161082
30
0
10
-0.95532382490653966
20
11.206932650924482
30
0
10
-4.2467599319030198e-09
20
11.226099815950366
30
0
0
LINE
5
133
100
AcDbEntity
8
0
100
AcDbLine
10
-10.74999999999995
20
-17.775000000000158
30
0
11
-10.749999999999998
21
-10.313832735070472
31
0
0
LINE
5
134
100
AcDbEntity
8
0
100
AcDbLine
10
10.750000000000117
20
-17.775000000000016
30
0
11
10.75000000000006
21
-9.2643630489376338
31
0
0
ENDSEC
0
SECTION
2
OBJECTS
0
DICTIONARY
5
C
100
AcDbDictionary
3
ACAD_GROUP
350
D
3
ACAD_MLINESTYLE
350
17
0
DICTIONARY
5
D
100
AcDbDictionary
0
DICTIONARY
5
1A
330
C
100
AcDbDictionary
0
DICTIONARY
5
17
100
AcDbDictionary
0
ENDSEC
0
EOF
