<?xml version="1.0" encoding="UTF-8" standalone="no"?>
<!-- Created with Inkscape (http://www.inkscape.org/) -->

<svg
   width="8.5in"
   height="11in"
   viewBox="0 0 215.9 279.4"
   version="1.1"
   id="svg5"
   xml:space="preserve"
   sodipodi:docname="TurnCord Decals PLAIN1 .svg"
   inkscape:version="1.4.2 (f4327f4, 2025-05-13)"
   xmlns:inkscape="http://www.inkscape.org/namespaces/inkscape"
   xmlns:sodipodi="http://sodipodi.sourceforge.net/DTD/sodipodi-0.dtd"
   xmlns="http://www.w3.org/2000/svg"
   xmlns:svg="http://www.w3.org/2000/svg"><sodipodi:namedview
     id="namedview1"
     pagecolor="#0043ff"
     bordercolor="#000000"
     borderopacity="0.25"
     inkscape:showpageshadow="2"
     inkscape:pageopacity="0.0"
     inkscape:pagecheckerboard="0"
     inkscape:deskcolor="#d1d1d1"
     inkscape:document-units="in"
     inkscape:zoom="0.76420455"
     inkscape:cx="330.40892"
     inkscape:cy="236.19331"
     inkscape:window-width="1920"
     inkscape:window-height="1009"
     inkscape:window-x="1912"
     inkscape:window-y="-8"
     inkscape:window-maximized="1"
     inkscape:current-layer="g325" /><defs
     id="defs2" /><g
     id="layer3"
     style="display:inline"><g
       id="layer6"
       style="display:inline"><path
         id="rect5657"
         style="opacity:0.978261;fill:#1c1c1c;stroke:#000000;stroke-width:0.1;stroke-opacity:0;paint-order:markers stroke fill"
         d="m 72.495979,42.184589 h 4.923225 v 7.234749 h -4.923225 z" /><path
         style="font-size:4.23333px;line-height:0.95;font-family:Universal;-inkscape-font-specification:Universal;text-align:center;letter-spacing:-0.132292px;text-anchor:middle;opacity:0.978261;fill:#ffffff;stroke-width:0.219245"
         d="m 51.802251,72.574326 h -2.083592 v -0.432015 q 0.21704,-0.186035 0.434081,-0.37207 0.219108,-0.186035 0.40721,-0.370003 0.396875,-0.384472 0.543636,-0.609781 0.146761,-0.227376 0.146761,-0.489893 0,-0.239778 -0.159163,-0.374137 -0.157097,-0.136425 -0.440283,-0.136425 -0.188102,0 -0.40721,0.06615 -0.219108,0.06614 -0.427881,0.202571 h -0.02067 v -0.434082 q 0.146761,-0.07235 0.390673,-0.132291 0.24598,-0.05994 0.475423,-0.05994 0.473356,0 0.742073,0.229443 0.268717,0.227376 0.268717,0.61805 0,0.1757 -0.04548,0.328662 -0.04341,0.150895 -0.130225,0.28732 -0.08062,0.128158 -0.190169,0.252181 -0.107487,0.124024 -0.262516,0.274919 -0.221175,0.21704 -0.456819,0.421679 -0.235644,0.202571 -0.440283,0.376204 h 1.655712 z m 4.652941,0 h -0.409277 v -2.652033 l -0.855761,1.80454 h -0.243913 l -0.84956,-1.80454 v 2.652033 H 53.714276 V 69.49648 h 0.558105 l 0.820621,1.713589 0.79375,-1.713589 h 0.56844 z m 1.779734,0 h -1.215429 v -0.314193 h 0.403076 V 69.810672 H 57.019497 V 69.49648 h 1.215429 v 0.314192 H 57.83185 v 2.449461 h 0.403076 z m 2.912481,0 h -0.506429 l -1.459341,-2.753318 v 2.753318 H 58.799232 V 69.49648 h 0.634586 l 1.331184,2.513539 V 69.49648 h 0.382405 z m 1.289842,0 h -0.494026 v -0.589111 h 0.494026 z"
         id="text1412-1-3"
         aria-label="2 MIN." /><path
         d="m 39.192871,37.776995 h -1.008036 v 2.487879 h -0.375171 v -2.487879 h -1.008036 v -0.333486 h 2.391243 z m 2.319063,1.354785 q 0,0.306959 -0.06821,0.53623 -0.06632,0.227377 -0.219797,0.378961 -0.1459,0.144005 -0.341065,0.210323 -0.195165,0.06632 -0.454753,0.06632 -0.265273,0 -0.462333,-0.07011 -0.197059,-0.07011 -0.33159,-0.206534 -0.15348,-0.155374 -0.221692,-0.375171 -0.06632,-0.219798 -0.06632,-0.54002 v -1.688271 h 0.375172 v 1.707219 q 0,0.229272 0.03032,0.361908 0.03221,0.132636 0.106109,0.24064 0.08337,0.123163 0.225481,0.185691 0.144006,0.06253 0.344855,0.06253 0.202744,0 0.344854,-0.06063 0.142111,-0.06253 0.227377,-0.187586 0.0739,-0.108004 0.104214,-0.246324 0.03221,-0.140216 0.03221,-0.34675 v -1.716693 h 0.375171 z m 2.866662,1.133094 h -0.486965 l -0.943613,-1.121725 h -0.52865 v 1.121725 h -0.375171 v -2.821365 h 0.790133 q 0.255799,0 0.426331,0.03411 0.170533,0.03221 0.306958,0.117478 0.15348,0.09663 0.238746,0.24443 0.08716,0.1459 0.08716,0.371381 0,0.305064 -0.153479,0.511598 -0.15348,0.204638 -0.422542,0.308853 z m -0.877295,-2.027441 q 0,-0.121268 -0.04358,-0.214113 -0.04169,-0.09474 -0.140216,-0.159164 -0.08148,-0.05495 -0.19327,-0.07579 -0.111793,-0.02274 -0.263378,-0.02274 h -0.441489 v 1.06488 h 0.378961 q 0.178111,0 0.310748,-0.03032 0.132636,-0.03221 0.225481,-0.117478 0.08527,-0.07958 0.125058,-0.181902 0.04169,-0.104214 0.04169,-0.263377 z m 3.209621,2.027441 h -0.464227 l -1.337732,-2.52388 v 2.52388 h -0.350539 v -2.821365 h 0.581705 l 1.220255,2.304083 v -2.304083 h 0.350538 z m 3.92568,-0.204639 q -0.104214,0.04548 -0.18948,0.08527 -0.08337,0.03979 -0.219798,0.08337 -0.115583,0.036 -0.252009,0.06063 -0.134531,0.02653 -0.297484,0.02653 -0.306959,0 -0.558968,-0.08527 -0.250114,-0.08716 -0.435805,-0.270957 -0.181901,-0.180006 -0.28422,-0.456648 -0.10232,-0.278536 -0.10232,-0.646128 0,-0.348644 0.09853,-0.623391 0.09853,-0.274747 0.284221,-0.464227 0.180006,-0.183796 0.43391,-0.280431 0.255799,-0.09663 0.566547,-0.09663 0.227376,0 0.452858,0.05495 0.227377,0.05495 0.504018,0.19327 v 0.445279 h -0.02842 q -0.233061,-0.195165 -0.462332,-0.284221 -0.229272,-0.08906 -0.490755,-0.08906 -0.214113,0 -0.38654,0.07011 -0.170532,0.06821 -0.305064,0.214113 -0.130741,0.142111 -0.204638,0.360013 -0.072,0.216008 -0.072,0.500229 0,0.297484 0.07958,0.511597 0.08148,0.214113 0.208428,0.348644 0.132637,0.140216 0.308853,0.208428 0.178112,0.06632 0.375172,0.06632 0.270957,0 0.507807,-0.09285 0.236851,-0.09284 0.443385,-0.278536 h 0.02653 z m 2.449804,-2.292714 q 0.172428,0.18948 0.263378,0.464227 0.09285,0.274747 0.09285,0.623391 0,0.348644 -0.09474,0.625285 -0.09285,0.274747 -0.261483,0.458543 -0.174322,0.191375 -0.413067,0.28801 -0.236851,0.09663 -0.541914,0.09663 -0.297484,0 -0.541914,-0.09853 -0.242535,-0.09853 -0.413068,-0.286116 -0.170532,-0.187586 -0.263377,-0.460437 -0.09095,-0.272852 -0.09095,-0.623391 0,-0.344855 0.09095,-0.617706 0.09095,-0.274747 0.265272,-0.469912 0.166743,-0.185691 0.413068,-0.284221 0.248219,-0.09853 0.540019,-0.09853 0.303169,0 0.543809,0.100425 0.242535,0.09853 0.411172,0.282326 z m -0.03411,1.087618 q 0,-0.549494 -0.246325,-0.846978 -0.246324,-0.299379 -0.672655,-0.299379 -0.430121,0 -0.676446,0.299379 -0.244429,0.297484 -0.244429,0.846978 0,0.555178 0.250114,0.850767 0.250114,0.293695 0.670761,0.293695 0.420646,0 0.668866,-0.293695 0.250114,-0.295589 0.250114,-0.850767 z m 2.904556,-1.087618 q 0.172428,0.18948 0.263378,0.464227 0.09285,0.274747 0.09285,0.623391 0,0.348644 -0.09474,0.625285 -0.09284,0.274747 -0.261483,0.458543 -0.174322,0.191375 -0.413067,0.28801 -0.236851,0.09663 -0.541914,0.09663 -0.297484,0 -0.541914,-0.09853 -0.242535,-0.09853 -0.413068,-0.286116 -0.170532,-0.187586 -0.263377,-0.460437 -0.09095,-0.272852 -0.09095,-0.623391 0,-0.344855 0.09095,-0.617706 0.09095,-0.274747 0.265272,-0.469912 0.166743,-0.185691 0.413068,-0.284221 0.248219,-0.09853 0.540019,-0.09853 0.303169,0 0.543809,0.100425 0.242535,0.09853 0.411172,0.282326 z m -0.03411,1.087618 q 0,-0.549494 -0.246325,-0.846978 -0.246324,-0.299379 -0.672655,-0.299379 -0.430121,0 -0.676446,0.299379 -0.244429,0.297484 -0.244429,0.846978 0,0.555178 0.250114,0.850767 0.250114,0.293695 0.670761,0.293695 0.420646,0 0.668866,-0.293695 0.250114,-0.295589 0.250114,-0.850767 z m 3.135724,1.409735 h -0.486965 l -0.943613,-1.121725 h -0.52865 v 1.121725 H 56.724066 V 37.443509 H 57.5142 q 0.255798,0 0.426331,0.03411 0.170532,0.03221 0.306958,0.117478 0.153479,0.09663 0.238746,0.24443 0.08716,0.1459 0.08716,0.371381 0,0.305064 -0.15348,0.511598 -0.153479,0.204638 -0.422541,0.308853 z m -0.877295,-2.027441 q 0,-0.121268 -0.04358,-0.214113 -0.04169,-0.09474 -0.140216,-0.159164 -0.08148,-0.05495 -0.19327,-0.07579 -0.111794,-0.02274 -0.263378,-0.02274 h -0.441489 v 1.06488 h 0.378961 q 0.178111,0 0.310747,-0.03032 0.132637,-0.03221 0.225482,-0.117478 0.08527,-0.07958 0.125057,-0.181902 0.04169,-0.104214 0.04169,-0.263377 z m 3.440788,0.619601 q 0,0.384645 -0.168637,0.697288 -0.166743,0.312643 -0.445279,0.48507 -0.19327,0.119372 -0.432016,0.172427 -0.23685,0.05306 -0.625285,0.05306 h -0.712447 v -2.821365 h 0.704867 q 0.413068,0 0.655603,0.06063 0.24443,0.05874 0.413067,0.162953 0.288011,0.180007 0.449069,0.479386 0.161058,0.299379 0.161058,0.710552 z m -0.392224,-0.0057 q 0,-0.331591 -0.115583,-0.558967 -0.115583,-0.227377 -0.344855,-0.358118 -0.166743,-0.09474 -0.354328,-0.130742 -0.187586,-0.0379 -0.449069,-0.0379 h -0.352434 v 2.177131 H 59.9659 q 0.270957,0 0.471806,-0.03979 0.202745,-0.03979 0.371382,-0.147795 0.210323,-0.134531 0.314538,-0.354328 0.106109,-0.219798 0.106109,-0.549494 z m 1.809359,1.413525 h -1.114145 v -0.288011 h 0.369487 V 37.73152 h -0.369487 v -0.288011 h 1.114145 v 0.288011 h -0.369487 v 2.245343 h 0.369487 z m 2.607074,0 h -0.464227 l -1.337732,-2.52388 v 2.52388 H 63.49367 v -2.821365 h 0.581705 l 1.220254,2.304083 v -2.304083 h 0.350539 z m 2.790869,0 H 68.037241 L 67.7606,39.47853 h -1.220254 l -0.276642,0.786344 h -0.380856 l 1.026984,-2.821365 h 0.500229 z m -0.792028,-1.108461 -0.494544,-1.385102 -0.496439,1.385102 z M 70.466196,37.77698 H 69.45816 v 2.487879 H 69.082996 V 37.776995 H 68.07496 v -0.333486 h 2.391244 z m 2.203478,-0.0095 q 0.172427,0.18948 0.263378,0.464227 0.09285,0.274747 0.09285,0.623391 0,0.348644 -0.09474,0.625285 -0.09284,0.274747 -0.261483,0.458543 -0.174322,0.191375 -0.413067,0.28801 -0.236851,0.09663 -0.541914,0.09663 -0.297485,0 -0.541914,-0.09853 -0.242535,-0.09853 -0.413068,-0.286116 -0.170532,-0.187586 -0.263378,-0.460437 -0.09095,-0.272852 -0.09095,-0.623391 0,-0.344855 0.09095,-0.617706 0.09095,-0.274747 0.265273,-0.469912 0.166743,-0.185691 0.413067,-0.284221 0.24822,-0.09853 0.54002,-0.09853 0.303168,0 0.543809,0.100425 0.242535,0.09853 0.411172,0.282326 z m -0.03411,1.087618 q 0,-0.549494 -0.246325,-0.846978 -0.246324,-0.299379 -0.672656,-0.299379 -0.43012,0 -0.676445,0.299379 -0.24443,0.297484 -0.24443,0.846978 0,0.555178 0.250115,0.850767 0.250114,0.293695 0.67076,0.293695 0.420647,0 0.668867,-0.293695 0.250114,-0.295589 0.250114,-0.850767 z m 3.135725,1.409735 h -0.486965 l -0.943612,-1.121725 h -0.528651 v 1.121725 H 73.43689 v -2.821365 h 0.790133 q 0.255799,0 0.426332,0.03411 0.170532,0.03221 0.306958,0.117478 0.153479,0.09663 0.238745,0.24443 0.08716,0.1459 0.08716,0.371381 0,0.305064 -0.153479,0.511598 -0.153479,0.204638 -0.422541,0.308853 z m -0.877294,-2.027441 q 0,-0.121268 -0.04358,-0.214113 -0.04169,-0.09474 -0.140215,-0.159164 -0.08148,-0.05495 -0.19327,-0.07579 -0.111794,-0.02274 -0.263378,-0.02274 h -0.44149 v 1.06488 h 0.378961 q 0.178112,0 0.310748,-0.03032 0.132636,-0.03221 0.225482,-0.117478 0.08527,-0.07958 0.125057,-0.181902 0.04169,-0.104214 0.04169,-0.263377 z"
         id="text1412-1-3-8"
         style="font-size:3.88056px;line-height:0.95;font-family:Universal;-inkscape-font-specification:Universal;text-align:center;letter-spacing:-0.183974px;text-anchor:middle;opacity:0.978261;fill:#ffffff;stroke-width:0.229968"
         aria-label="TURN COORDINATOR" /><g
         id="layer8"
         style="display:none"><rect
           style="display:inline;opacity:0.978261;fill:#ec4c4e;fill-opacity:1;stroke:#000000;stroke-width:0.0978217;stroke-opacity:0;paint-order:markers stroke fill"
           id="rect4029"
           width="3.5894904"
           height="2.6996162"
           x="72.495979"
           y="42.184589" /><text
           xml:space="preserve"
           style="font-size:1.82085px;line-height:1.25;font-family:Bahnschrift;-inkscape-font-specification:Bahnschrift;letter-spacing:-0.079375px;display:inline;stroke-width:0.227606"
           x="84.621841"
           y="38.101841"
           id="text4085"
           transform="scale(0.86024257,1.1624628)"><tspan
             id="tspan4083"
             style="font-style:normal;font-variant:normal;font-weight:bold;font-stretch:normal;font-size:1.82085px;font-family:Arial;-inkscape-font-specification:'Arial Bold';stroke-width:0.227606"
             x="84.621841"
             y="38.101841">OFF</tspan></text></g></g></g><g
     id="g325"
     transform="matrix(0.26458333,0,0,0.26458333,56.020642,-247.44835)"
     style="display:inline;opacity:1;stroke:#ffffff;stroke-width:1.00157;stroke-dasharray:none;stroke-opacity:1"><path
       d="M -156.72,1200.1364 V 1044.903 a 19.2,19.2 0 0 1 1.32199,-7.0012 l 17.4476,-44.55366 a 19.2,19.2 0 0 1 10.8955,-10.88414 l 39.317268,-15.34963 a 19.2,19.2 0 0 1 6.982507,-1.31469 h 161.51027 a 19.2,19.2 0 0 1 6.982507,1.31469 L 127.05491,982.464 a 19.2,19.2 0 0 1 10.8955,10.88414 l 17.4476,44.55366 a 19.2,19.2 0 0 1 1.32199,7.0012 v 155.2334 a 19.2,19.2 0 0 1 -1.32199,7.0012 l -17.4476,44.5536 a 19.2,19.2 0 0 1 -10.8955,10.8842 l -39.317268,15.3496 a 19.2,19.2 0 0 1 -6.982507,1.3147 h -161.51027 a 19.2,19.2 0 0 1 -6.982507,-1.3147 l -39.317268,-15.3496 a 19.2,19.2 0 0 1 -10.8955,-10.8842 l -17.4476,-44.5536 a 19.2,19.2 0 0 1 -1.32199,-7.0012 z"
       style="fill:none;stroke:#ffffff;stroke-width:1.00157;stroke-dasharray:none;stroke-opacity:1"
       id="path297-2" /><rect
       style="fill:#ff0000;stroke:#ff0000;stroke-width:3.38268"
       id="rect1"
       width="39.256504"
       height="32.713753"
       x="170.3651"
       y="975.80292" /></g></svg>
