0
SECTION
2
HEADER
9
$INSUNITS
70
4
9
$ACADVER
1
AC1014
9
$HANDSEED
5
FFFF
0
ENDSEC
0
SECTION
2
TABLES
0
TABLE
2
VPORT
5
8
100
AcDbSymbolTable
0
ENDTAB
0
TABLE
2
LTYPE
5
5
100
AcDbSymbolTable
0
LTYPE
5
14
100
AcDbSymbolTableRecord
100
AcDbLinetypeTableRecord
2
BYBLOCK
70
0
0
LTYPE
5
15
100
AcDbSymbolTableRecord
100
AcDbLinetypeTableRecord
2
BYLAYER
70
0
0
ENDTAB
0
TABLE
2
LAYER
5
2
100
AcDbSymbolTable
70
2
0
LAYER
5
50
100
AcDbSymbolTableRecord
100
AcDbLayerTableRecord
2
0
70
0
6
CONTINUOUS
0
ENDTAB
0
TABLE
2
STYLE
5
3
100
AcDbSymbolTable
70
1
0
STYLE
5
11
100
AcDbSymbolTableRecord
100
AcDbTextStyleTableRecord
2
STANDARD
70
0
0
ENDTAB
0
TABLE
2
VIEW
5
6
100
AcDbSymbolTable
70
0
0
ENDTAB
0
TABLE
2
UCS
5
7
100
AcDbSymbolTable
70
0
0
ENDTAB
0
TABLE
2
APPID
5
9
100
AcDbSymbolTable
70
2
0
APPID
5
12
100
AcDbSymbolTableRecord
100
AcDbRegAppTableRecord
2
ACAD
70
0
0
ENDTAB
0
TABLE
2
DIMSTYLE
5
A
100
AcDbSymbolTable
70
1
0
ENDTAB
0
TABLE
2
BLOCK_RECORD
5
1
100
AcDbSymbolTable
70
1
0
BLOCK_RECORD
5
1F
100
AcDbSymbolTableRecord
100
AcDbBlockTableRecord
2
*MODEL_SPACE
0
BLOCK_RECORD
5
1B
100
AcDbSymbolTableRecord
100
AcDbBlockTableRecord
2
*PAPER_SPACE
0
ENDTAB
0
ENDSEC
0
SECTION
2
BLOCKS
0
BLOCK
5
20
100
AcDbEntity
100
AcDbBlockBegin
2
*MODEL_SPACE
0
ENDBLK
5
21
100
AcDbEntity
100
AcDbBlockEnd
0
BLOCK
5
1C
100
AcDbEntity
100
AcDbBlockBegin
2
*PAPER_SPACE
0
ENDBLK
5
1D
100
AcDbEntity
100
AcDbBlockEnd
0
ENDSEC
0
SECTION
2
ENTITIES
0
LWPOLYLINE
5
100
100
AcDbEntity
8
0
100
AcDbPolyline
90
8
70
1
43
0.0
10
11.500000000000057
20
-0.49999999999999822
42
0.41421356237309237
10
11.000000000000057
20
2.0816681711721685e-15
10
1.1102230246251565e-14
20
2.2204460492503131e-15
42
0.41421356237309503
10
-0.49999999999994715
20
-0.49999999999995604
10
-0.4999999999999537
20
-5.4999999999999982
42
0.41421356237309415
10
4.6629367034256575e-14
20
-5.9999999999999982
10
11.000000000000057
20
-5.9999999999999982
42
0.4142135623730957
10
11.500000000000055
20
-5.4999999999999982
0
LWPOLYLINE
5
101
100
AcDbEntity
8
0
100
AcDbPolyline
90
8
70
1
43
0.0
10
43.500000000000057
20
10.000000000000002
42
0.41421356237309631
10
43.000000000000057
20
10.500000000000004
10
32.000000000000014
20
10.500000000000004
42
0.41421356237310025
10
31.500000000000053
20
10.000000000000044
10
31.50000000000005
20
5.0000000000000018
42
0.41421356237309503
10
32.000000000000043
20
4.5000000000000018
10
43.000000000000057
20
4.5000000000000018
42
0.41421356237309764
10
43.500000000000057
20
5.0000000000000018
0
CIRCLE
5
102
100
AcDbEntity
8
0
100
AcDbCircle
10
51.5
20
-7.0000000000000009
30
0
40
2.6750000000000007
210
0
220
0
230
1
0
CIRCLE
5
103
100
AcDbEntity
8
0
100
AcDbCircle
10
70.5
20
-7.0000000000000009
30
0
40
2.6750000000000007
210
0
220
0
230
1
0
LWPOLYLINE
5
104
100
AcDbEntity
8
0
100
AcDbPolyline
90
8
70
1
43
0.0
10
27.500000000000053
20
10.000000000000002
42
0.41421356237309243
10
27.000000000000057
20
10.500000000000005
10
16.000000000000011
20
10.500000000000004
42
0.41421356237309503
10
15.500000000000053
20
10.000000000000044
10
15.500000000000046
20
5.0000000000000018
42
0.41421356237309243
10
16.000000000000046
20
4.5000000000000018
10
27.000000000000057
20
4.5000000000000018
42
0.41421356237309631
10
27.500000000000053
20
5.0000000000000018
0
LWPOLYLINE
5
105
100
AcDbEntity
8
0
100
AcDbPolyline
90
8
70
1
43
0.0
10
11.000000000000057
20
4.5000000000000018
42
0.41421356237309631
10
11.500000000000055
20
5.0000000000000018
10
11.500000000000057
20
10.000000000000002
42
0.41421356237308982
10
11.000000000000057
20
10.500000000000004
10
1.1102230246251565e-14
20
10.500000000000004
42
0.41421356237309687
10
-0.49999999999994715
20
10.000000000000044
10
-0.49999999999995381
20
5.0000000000000018
42
0.41421356237309509
10
4.6629367034256575e-14
20
4.5000000000000018
0
CIRCLE
5
106
100
AcDbEntity
8
0
100
AcDbCircle
10
62
20
1
30
0
40
3.75
210
0
220
0
230
1
0
CIRCLE
5
107
100
AcDbEntity
8
0
100
AcDbCircle
10
-66.5
20
-4.8012817565237569
30
0
40
3.75
210
0
220
0
230
1
0
LWPOLYLINE
5
108
100
AcDbEntity
8
0
100
AcDbPolyline
90
8
70
1
43
0.0
10
-11.999999999999947
20
-0.49999999999999822
42
0.41421356237309309
10
-12.499999999999947
20
3.2612801348363973e-15
10
-23.499999999999993
20
-2.2204460492503131e-15
42
0.41421356237309848
10
-23.999999999999947
20
-0.49999999999995604
10
-23.999999999999957
20
-5.4999999999999982
42
0.4142135623730937
10
-23.499999999999957
20
-5.9999999999999982
10
-12.499999999999947
20
-5.9999999999999982
42
0.4142135623730957
10
-11.999999999999948
20
-5.4999999999999982
0
LWPOLYLINE
5
109
100
AcDbEntity
8
0
100
AcDbPolyline
90
4
70
1
43
0.0
10
-54.250000000000014
20
11
10
-54.250000000000014
20
5.0000000000000018
10
-76.75
20
5.0000000000000009
10
-76.75
20
11
0
LWPOLYLINE
5
110
100
AcDbEntity
8
0
100
AcDbPolyline
90
8
70
1
43
0.0
10
-27.999999999999943
20
-0.49999999999999822
42
0.41421356237309326
10
-28.499999999999947
20
1.457167719820518e-15
10
-39.499999999999993
20
-2.2204460492503131e-15
42
0.41421356237309587
10
-39.999999999999943
20
-0.49999999999995604
10
-39.999999999999957
20
-5.4999999999999982
42
0.41421356237309503
10
-39.499999999999957
20
-5.9999999999999982
10
-28.499999999999943
20
-5.9999999999999982
42
0.41421356237309243
10
-27.99999999999995
20
-5.4999999999999982
0
CIRCLE
5
111
100
AcDbEntity
8
0
100
AcDbCircle
10
-49.5
20
6.75
30
0
40
2.5
210
0
220
0
230
1
0
CIRCLE
5
112
100
AcDbEntity
8
0
100
AcDbCircle
10
-49.5
20
-6.5
30
0
40
2.5
210
0
220
0
230
1
0
CIRCLE
5
113
100
AcDbEntity
8
0
100
AcDbCircle
10
-6.5
20
-2.2159243704157443e-14
30
0
40
0.99999999999999978
210
0
220
0
230
1
0
CIRCLE
5
114
100
AcDbEntity
8
0
100
AcDbCircle
10
-6.5
20
7.8620724267167859
30
0
40
1.5000000000000002
210
0
220
0
230
1
0
LWPOLYLINE
5
115
100
AcDbEntity
8
0
100
AcDbPolyline
90
8
70
1
43
0.0
10
-27.99999999999995
20
10.000000000000002
10
-27.99999999999995
20
5.0000000000000018
42
-0.41421356237309309
10
-28.499999999999943
20
4.5000000000000018
10
-39.499999999999957
20
4.5000000000000036
42
-0.41421356237309503
10
-39.999999999999957
20
5.0000000000000018
10
-39.999999999999943
20
10.000000000000044
42
-0.41421356237309631
10
-39.499999999999993
20
10.499999999999998
10
-28.499999999999943
20
10.5
42
-0.41421356237309243
0
LWPOLYLINE
5
116
100
AcDbEntity
8
0
100
AcDbPolyline
90
8
70
1
43
0.0
10
43.500000000000057
20
-0.49999999999999822
42
0.41421356237309687
10
43.000000000000057
20
3.1225022567582528e-15
10
32.000000000000014
20
2.2204460492503131e-15
42
0.41421356237309914
10
31.500000000000053
20
-0.49999999999995604
10
31.50000000000005
20
-5.4999999999999982
42
0.41421356237309503
10
32.000000000000043
20
-5.9999999999999982
10
43.000000000000057
20
-5.9999999999999982
42
0.41421356237309698
10
43.500000000000057
20
-5.4999999999999982
0
LWPOLYLINE
5
117
100
AcDbEntity
8
0
100
AcDbPolyline
90
8
70
1
43
0.0
10
-11.999999999999947
20
10.000000000000002
42
0.41421356237309048
10
-12.499999999999947
20
10.500000000000004
10
-23.499999999999993
20
10.499999999999998
42
0.41421356237309892
10
-23.999999999999947
20
10.000000000000044
10
-23.999999999999957
20
5.0000000000000018
42
0.41421356237309309
10
-23.499999999999957
20
4.5000000000000018
10
-12.499999999999947
20
4.5000000000000018
42
0.41421356237309631
10
-11.999999999999948
20
5.0000000000000018
0
LWPOLYLINE
5
118
100
AcDbEntity
8
0
100
AcDbPolyline
90
8
70
1
43
0.0
10
27.500000000000053
20
-0.49999999999999822
42
0.41421356237309553
10
27.000000000000057
20
9.0205620750793969e-16
10
16.000000000000011
20
2.2204460492503131e-15
42
0.41421356237309304
10
15.500000000000053
20
-0.49999999999995604
10
15.500000000000046
20
-5.4999999999999982
42
0.41421356237309176
10
16.000000000000046
20
-5.9999999999999982
10
27.000000000000057
20
-5.9999999999999982
42
0.4142135623730957
10
27.500000000000053
20
-5.4999999999999982
0
LWPOLYLINE
5
119
100
AcDbEntity
8
0
100
AcDbPolyline
90
4
70
1
43
0.0
10
-79.375
20
-16.637000000000025
10
79.375
20
-16.637000000000025
10
79.374999999999758
20
16.636999999999976
10
-79.374999999999773
20
16.636999999999979
0
LWPOLYLINE
5
120
100
AcDbEntity
8
0
100
AcDbPolyline
90
8
70
1
43
0.0
10
27.000000000000057
20
2.2204460492503131e-15
10
16.000000000000011
20
2.2204460492503131e-15
42
0.41421356237309503
10
15.500000000000053
20
-0.49999999999995604
10
15.500000000000053
20
-5.4999999999999982
42
0.41421356237309503
10
16.000000000000046
20
-5.9999999999999982
10
27.000000000000057
20
-5.9999999999999982
42
0.41421356237309631
10
27.500000000000053
20
-5.4999999999999982
10
27.500000000000053
20
-0.49999999999999822
42
0.41421356237309503
0
LWPOLYLINE
5
121
100
AcDbEntity
8
0
100
AcDbPolyline
90
8
70
1
43
0.0
10
-12.499999999999947
20
10.500000000000004
10
-23.499999999999993
20
10.500000000000004
42
0.41421356237309503
10
-23.999999999999947
20
10.000000000000044
10
-23.999999999999947
20
5.0000000000000018
42
0.41421356237309503
10
-23.499999999999957
20
4.5000000000000018
10
-12.499999999999947
20
4.5000000000000018
42
0.41421356237309631
10
-11.999999999999948
20
5.0000000000000018
10
-11.999999999999948
20
10.000000000000002
42
0.41421356237309503
0
LWPOLYLINE
5
122
100
AcDbEntity
8
0
100
AcDbPolyline
90
8
70
1
43
0.0
10
43.000000000000057
20
2.2204460492503131e-15
10
32.000000000000014
20
2.2204460492503131e-15
42
0.41421356237309503
10
31.500000000000053
20
-0.49999999999995604
10
31.500000000000057
20
-5.4999999999999982
42
0.41421356237309503
10
32.000000000000043
20
-5.9999999999999982
10
43.000000000000057
20
-5.9999999999999982
42
0.41421356237309631
10
43.500000000000057
20
-5.4999999999999982
10
43.500000000000057
20
-0.49999999999999822
42
0.41421356237309503
0
LWPOLYLINE
5
123
100
AcDbEntity
8
0
100
AcDbPolyline
90
8
70
1
43
0.0
10
-27.999999999999943
20
10.000000000000002
42
0.41421356237309503
10
-28.499999999999947
20
10.500000000000004
10
-39.499999999999993
20
10.500000000000004
42
0.41421356237309503
10
-39.999999999999943
20
10.000000000000044
10
-39.999999999999943
20
5.0000000000000018
42
0.41421356237309503
10
-39.499999999999957
20
4.5000000000000018
10
-28.499999999999947
20
4.5000000000000018
42
0.41421356237309631
10
-27.99999999999995
20
5.0000000000000018
0
CIRCLE
5
124
100
AcDbEntity
8
0
100
AcDbCircle
10
-6.5
20
7.8620724267167859
30
0
40
1.5000000000000002
210
0
220
-0
230
1
0
CIRCLE
5
125
100
AcDbEntity
8
0
100
AcDbCircle
10
-6.5
20
-2.2159243704157443e-14
30
0
40
0.99999999999999978
210
0
220
-0
230
1
0
CIRCLE
5
126
100
AcDbEntity
8
0
100
AcDbCircle
10
-49.5
20
-6.5
30
0
40
2.5
210
0
220
-0
230
1
0
CIRCLE
5
127
100
AcDbEntity
8
0
100
AcDbCircle
10
-49.5
20
6.75
30
0
40
2.5
210
0
220
-0
230
1
0
LWPOLYLINE
5
128
100
AcDbEntity
8
0
100
AcDbPolyline
90
8
70
1
43
0.0
10
-28.499999999999947
20
2.2204460492503131e-15
10
-39.499999999999993
20
2.2204460492503131e-15
42
0.41421356237309503
10
-39.999999999999943
20
-0.49999999999995604
10
-39.999999999999943
20
-5.4999999999999982
42
0.41421356237309503
10
-39.499999999999957
20
-5.9999999999999982
10
-28.499999999999947
20
-5.9999999999999982
42
0.41421356237309631
10
-27.99999999999995
20
-5.4999999999999982
10
-27.99999999999995
20
-0.49999999999999822
42
0.41421356237309503
0
LWPOLYLINE
5
129
100
AcDbEntity
8
0
100
AcDbPolyline
90
4
70
1
43
0.0
10
-54.250000000000014
20
11
10
-76.750000000000014
20
11
10
-76.750000000000014
20
5.0000000000000009
10
-54.250000000000014
20
5.0000000000000018
0
LWPOLYLINE
5
130
100
AcDbEntity
8
0
100
AcDbPolyline
90
8
70
1
43
0.0
10
-12.499999999999947
20
2.2204460492503131e-15
10
-23.499999999999993
20
2.2204460492503131e-15
42
0.41421356237309503
10
-23.999999999999947
20
-0.49999999999995604
10
-23.999999999999947
20
-5.4999999999999982
42
0.41421356237309503
10
-23.499999999999957
20
-5.9999999999999982
10
-12.499999999999947
20
-5.9999999999999982
42
0.41421356237309631
10
-11.999999999999948
20
-5.4999999999999982
10
-11.999999999999948
20
-0.49999999999999822
42
0.41421356237309503
0
CIRCLE
5
131
100
AcDbEntity
8
0
100
AcDbCircle
10
-66.5
20
-4.8012817565237569
30
0
40
3.75
210
0
220
-0
230
1
0
CIRCLE
5
132
100
AcDbEntity
8
0
100
AcDbCircle
10
62
20
1
30
0
40
3.75
210
0
220
-0
230
1
0
LWPOLYLINE
5
133
100
AcDbEntity
8
0
100
AcDbPolyline
90
8
70
1
43
0.0
10
11.500000000000055
20
5.0000000000000018
10
11.500000000000055
20
10.000000000000002
42
0.41421356237309503
10
11.000000000000057
20
10.500000000000004
10
1.1102230246251565e-14
20
10.500000000000004
42
0.41421356237309503
10
-0.49999999999994715
20
10.000000000000044
10
-0.49999999999994715
20
5.0000000000000018
42
0.41421356237309503
10
4.6629367034256575e-14
20
4.5000000000000018
10
11.000000000000057
20
4.5000000000000018
42
0.41421356237309631
0
LWPOLYLINE
5
134
100
AcDbEntity
8
0
100
AcDbPolyline
90
8
70
1
43
0.0
10
27.000000000000057
20
10.500000000000004
10
16.000000000000011
20
10.500000000000004
42
0.41421356237309503
10
15.500000000000053
20
10.000000000000044
10
15.500000000000053
20
5.0000000000000018
42
0.41421356237309503
10
16.000000000000046
20
4.5000000000000018
10
27.000000000000057
20
4.5000000000000018
42
0.41421356237309631
10
27.500000000000053
20
5.0000000000000018
10
27.500000000000053
20
10.000000000000002
42
0.41421356237309503
0
CIRCLE
5
135
100
AcDbEntity
8
0
100
AcDbCircle
10
70.5
20
-7.0000000000000009
30
0
40
2.6750000000000007
210
0
220
-0
230
1
0
CIRCLE
5
136
100
AcDbEntity
8
0
100
AcDbCircle
10
51.5
20
-7.0000000000000009
30
0
40
2.6750000000000007
210
0
220
-0
230
1
0
LWPOLYLINE
5
137
100
AcDbEntity
8
0
100
AcDbPolyline
90
8
70
1
43
0.0
10
43.000000000000057
20
10.500000000000004
10
32.000000000000014
20
10.500000000000004
42
0.41421356237309503
10
31.500000000000053
20
10.000000000000044
10
31.500000000000057
20
5.0000000000000018
42
0.41421356237309503
10
32.000000000000043
20
4.5000000000000018
10
43.000000000000057
20
4.5000000000000018
42
0.41421356237309631
10
43.500000000000057
20
5.0000000000000018
10
43.500000000000057
20
10.000000000000002
42
0.41421356237309503
0
LWPOLYLINE
5
138
100
AcDbEntity
8
0
100
AcDbPolyline
90
8
70
1
43
0.0
10
11.000000000000057
20
2.2204460492503131e-15
10
1.1102230246251565e-14
20
2.2204460492503131e-15
42
0.41421356237309503
10
-0.49999999999994715
20
-0.49999999999995604
10
-0.49999999999994715
20
-5.4999999999999982
42
0.41421356237309503
10
4.6629367034256575e-14
20
-5.9999999999999982
10
11.000000000000057
20
-5.9999999999999982
42
0.41421356237309631
10
11.500000000000055
20
-5.4999999999999982
10
11.500000000000055
20
-0.49999999999999822
42
0.41421356237309503
0
LWPOLYLINE
5
139
100
AcDbEntity
8
0
100
AcDbPolyline
90
4
70
1
43
0.0
10
-79.374999999999773
20
16.636999999999979
10
-79.375000000000014
20
-16.637000000000022
10
79.374999999999986
20
-16.637000000000025
10
79.374999999999758
20
16.636999999999979
0
ENDSEC
0
SECTION
2
OBJECTS
0
DICTIONARY
5
C
100
AcDbDictionary
3
ACAD_GROUP
350
D
3
ACAD_MLINESTYLE
350
17
0
DICTIONARY
5
D
100
AcDbDictionary
0
DICTIONARY
5
1A
330
C
100
AcDbDictionary
0
DICTIONARY
5
17
100
AcDbDictionary
0
ENDSEC
0
EOF
