999
"DXF R12 Output" (www.mydxf.blogspot.com)
 0 
SECTION
 2 
HEADER
 9 
$ACADVER
 1 
AC1009
 9 
$EXTMIN
 10 
 0 
 20 
 0 
 9 
$EXTMAX
 10 
 8.5 
 20 
 11 
 0 
ENDSEC
 0 
SECTION
 2 
ENTITIES
0
LINE
8
Layer 1
10
0.793749
20
297.794000
11
-0.793749
21
296.206000
0
LINE
8
Layer 1
10
0.000000
20
298.323000
11
0.000000
21
295.677000
0
LINE
8
Layer 1
10
2.116660
20
295.942000
11
1.058330
21
294.883670
0
LINE
8
Layer 1
10
1.587500
20
296.471000
11
0.529170
21
295.412670
0
LINE
8
Layer 1
10
1.058330
20
297.000000
11
0.000000
21
295.941670
0
LINE
8
0
10
-92.027500
20
-104.018000
11
-91.634600
21
-103.452000
0
LINE
8
0
10
-91.634600
20
-103.452000
11
-91.459700
21
-102.803000
0
LINE
8
0
10
-91.459700
20
-102.803000
11
-91.508900
21
-102.131000
0
LINE
8
0
10
-91.508900
20
-102.131000
11
-91.787500
21
-101.502000
0
LINE
8
0
10
-91.787500
20
-101.502000
11
-93.778800
21
-98.191800
0
LINE
8
0
10
-93.778800
20
-98.191800
11
-95.419700
21
-94.765400
0
LINE
8
0
10
-95.419700
20
-94.765400
11
-96.714100
21
-91.246400
0
LINE
8
0
10
-96.714100
20
-91.246400
11
-97.665500
21
-87.658700
0
LINE
8
0
10
-97.665500
20
-87.658700
11
-98.277200
21
-84.026000
0
LINE
8
0
10
-98.277200
20
-84.026000
11
-98.553500
21
-80.372100
0
LINE
8
0
10
-98.553500
20
-80.372100
11
-98.497400
21
-76.720800
0
LINE
8
0
10
-98.497400
20
-76.720800
11
-98.112700
21
-73.093400
0
LINE
8
0
10
-98.112700
20
-73.093400
11
-97.402800
21
-69.518900
0
LINE
8
0
10
-97.402800
20
-69.518900
11
-96.371400
21
-66.013200
0
LINE
8
0
10
-96.371400
20
-66.013200
11
-95.022300
21
-62.608000
0
LINE
8
0
10
-95.022300
20
-62.608000
11
-93.358900
21
-59.319200
0
LINE
8
0
10
-93.358900
20
-59.319200
11
-91.384600
21
-56.178600
0
LINE
8
0
10
-91.384600
20
-56.178600
11
-89.103400
21
-53.202100
0
LINE
8
0
10
-89.103400
20
-53.202100
11
-86.518600
21
-50.418600
0
LINE
8
0
10
-86.518600
20
-50.418600
11
-83.634200
21
-47.849500
0
LINE
8
0
10
-83.634200
20
-47.849500
11
-80.519000
21
-45.566200
0
LINE
8
0
10
-80.519000
20
-45.566200
11
-77.256400
21
-43.618900
0
LINE
8
0
10
-77.256400
20
-43.618900
11
-73.870300
21
-42.010200
0
LINE
8
0
10
-73.870300
20
-42.010200
11
-70.384400
21
-40.734900
0
LINE
8
0
10
-70.384400
20
-40.734900
11
-66.822800
21
-39.795600
0
LINE
8
0
10
-66.822800
20
-39.795600
11
-63.209100
21
-39.187100
0
LINE
8
0
10
-63.209100
20
-39.187100
11
-59.567400
21
-38.911900
0
LINE
8
0
10
-59.567400
20
-38.911900
11
-55.921200
21
-38.964800
0
LINE
8
0
10
-55.921200
20
-38.964800
11
-52.294800
21
-39.345800
0
LINE
8
0
10
-52.294800
20
-39.345800
11
-48.711800
21
-40.052300
0
LINE
8
0
10
-48.711800
20
-40.052300
11
-45.196100
21
-41.086800
0
LINE
8
0
10
-45.196100
20
-41.086800
11
-41.771600
21
-42.444100
0
LINE
8
0
10
-41.771600
20
-42.444100
11
-38.461900
21
-44.124200
0
LINE
8
0
10
-38.461900
20
-44.124200
11
-35.291400
21
-46.124500
0
LINE
8
0
10
-35.291400
20
-46.124500
11
-32.283600
21
-48.444900
0
LINE
8
0
10
-32.283600
20
-48.444900
11
-29.462400
21
-51.082700
0
LINE
8
0
10
-29.462400
20
-51.082700
11
-26.903900
21
-53.977300
0
LINE
8
0
10
-26.903900
20
-53.977300
11
-24.668600
21
-57.049100
0
LINE
8
0
10
-24.668600
20
-57.049100
11
-22.757400
21
-60.274400
0
LINE
8
0
10
-22.757400
20
-60.274400
11
-21.171200
21
-63.629300
0
LINE
8
0
10
-21.171200
20
-63.629300
11
-19.910600
21
-67.090000
0
LINE
8
0
10
-19.910600
20
-67.090000
11
-18.976300
21
-70.635400
0
LINE
8
0
10
-18.976300
20
-70.635400
11
-18.369100
21
-74.236400
0
LINE
8
0
10
-18.369100
20
-74.236400
11
-18.089800
21
-77.871800
0
LINE
8
0
10
-18.089800
20
-77.871800
11
-18.139100
21
-81.517700
0
LINE
8
0
10
-18.139100
20
-81.517700
11
-18.517800
21
-85.150500
0
LINE
8
0
10
-18.517800
20
-85.150500
11
-19.226700
21
-88.746100
0
LINE
8
0
10
-19.226700
20
-88.746100
11
-20.266400
21
-92.278300
0
LINE
8
0
10
-20.266400
20
-92.278300
11
-21.637800
21
-95.728500
0
LINE
8
0
10
-21.637800
20
-95.728500
11
-23.341600
21
-99.067500
0
LINE
8
0
10
-23.341600
20
-99.067500
11
-25.378500
21
-102.274000
0
LINE
8
0
10
-25.378500
20
-102.274000
11
-27.749200
21
-105.325000
0
LINE
8
0
10
-27.749200
20
-105.325000
11
-30.398500
21
-108.135000
0
LINE
8
0
10
-30.398500
20
-108.135000
11
-33.253800
21
-110.640000
0
LINE
8
0
10
-33.253800
20
-110.640000
11
-36.291800
21
-112.839000
0
LINE
8
0
10
-36.291800
20
-112.839000
11
-39.488700
21
-114.723000
0
LINE
8
0
10
-39.488700
20
-114.723000
11
-42.820900
21
-116.295000
0
LINE
8
0
10
-42.820900
20
-116.295000
11
-46.264500
21
-117.546000
0
LINE
8
0
10
-46.264500
20
-117.546000
11
-49.795600
21
-118.480000
0
LINE
8
0
10
-49.795600
20
-118.480000
11
-53.390700
21
-119.089000
0
LINE
8
0
10
-53.390700
20
-119.089000
11
-57.026400
21
-119.372000
0
LINE
8
0
10
-57.026400
20
-119.372000
11
-60.678400
21
-119.327000
0
LINE
8
0
10
-60.678400
20
-119.327000
11
-64.323000
21
-118.946000
0
LINE
8
0
10
-64.323000
20
-118.946000
11
-67.937000
21
-118.234000
0
LINE
8
0
10
-67.937000
20
-118.234000
11
-71.496400
21
-117.181000
0
LINE
8
0
10
-71.496400
20
-117.181000
11
-74.977300
21
-115.789000
0
LINE
8
0
10
-74.977300
20
-115.789000
11
-78.356000
21
-114.054000
0
LINE
8
0
10
-78.356000
20
-114.054000
11
-81.609000
21
-111.969000
0
LINE
8
0
10
-81.609000
20
-111.969000
11
-85.318500
21
-115.726000
0
LINE
8
0
10
-85.318500
20
-115.726000
11
-86.332900
21
-116.564000
0
LINE
8
0
10
-86.332900
20
-116.564000
11
-87.459800
21
-117.165000
0
LINE
8
0
10
-87.459800
20
-117.165000
11
-88.662300
21
-117.530000
0
LINE
8
0
10
-88.662300
20
-117.530000
11
-89.902900
21
-117.657000
0
LINE
8
0
10
-89.902900
20
-117.657000
11
-91.145100
21
-117.546000
0
LINE
8
0
10
-91.145100
20
-117.546000
11
-92.351600
21
-117.194000
0
LINE
8
0
10
-92.351600
20
-117.194000
11
-93.485900
21
-116.607000
0
LINE
8
0
10
-93.485900
20
-116.607000
11
-94.510600
21
-115.781000
0
LINE
8
0
10
-94.510600
20
-115.781000
11
-95.349900
21
-114.765000
0
LINE
8
0
10
-95.349900
20
-114.765000
11
-95.951800
21
-113.638000
0
LINE
8
0
10
-95.951800
20
-113.638000
11
-96.316100
21
-112.437000
0
LINE
8
0
10
-96.316100
20
-112.437000
11
-96.442600
21
-111.196000
0
LINE
8
0
10
-96.442600
20
-111.196000
11
-96.331200
21
-109.955000
0
LINE
8
0
10
-96.331200
20
-109.955000
11
-95.981700
21
-108.749000
0
LINE
8
0
10
-95.981700
20
-108.749000
11
-95.393800
21
-107.614000
0
LINE
8
0
10
-95.393800
20
-107.614000
11
-94.567000
21
-106.590000
0
LINE
8
0
10
-94.567000
20
-106.590000
11
-92.027500
21
-104.018000
0
LINE
8
0
10
-92.027500
20
-104.018000
11
-92.027500
21
-104.018000
0
LINE
8
0
10
-24.104600
20
-110.765000
11
-24.180700
21
-110.191000
0
LINE
8
0
10
-24.180700
20
-110.191000
11
-24.399300
21
-109.664000
0
LINE
8
0
10
-24.399300
20
-109.664000
11
-24.745500
21
-109.212000
0
LINE
8
0
10
-24.745500
20
-109.212000
11
-25.204600
21
-108.860000
0
LINE
8
0
10
-25.204600
20
-108.860000
11
-25.739800
21
-108.637000
0
LINE
8
0
10
-25.739800
20
-108.637000
11
-26.304600
21
-108.563000
0
LINE
8
0
10
-26.304600
20
-108.563000
11
-26.869500
21
-108.637000
0
LINE
8
0
10
-26.869500
20
-108.637000
11
-27.404400
21
-108.860000
0
LINE
8
0
10
-27.404400
20
-108.860000
11
-27.863500
21
-109.212000
0
LINE
8
0
10
-27.863500
20
-109.212000
11
-28.209800
21
-109.664000
0
LINE
8
0
10
-28.209800
20
-109.664000
11
-28.428400
21
-110.191000
0
LINE
8
0
10
-28.428400
20
-110.191000
11
-28.504600
21
-110.765000
0
LINE
8
0
10
-28.504600
20
-110.765000
11
-28.428400
21
-111.339000
0
LINE
8
0
10
-28.428400
20
-111.339000
11
-28.209800
21
-111.865000
0
LINE
8
0
10
-28.209800
20
-111.865000
11
-27.863500
21
-112.318000
0
LINE
8
0
10
-27.863500
20
-112.318000
11
-27.404400
21
-112.670000
0
LINE
8
0
10
-27.404400
20
-112.670000
11
-26.869500
21
-112.892000
0
LINE
8
0
10
-26.869500
20
-112.892000
11
-26.304600
21
-112.963000
0
LINE
8
0
10
-26.304600
20
-112.963000
11
-25.739800
21
-112.892000
0
LINE
8
0
10
-25.739800
20
-112.892000
11
-25.204600
21
-112.670000
0
LINE
8
0
10
-25.204600
20
-112.670000
11
-24.745500
21
-112.318000
0
LINE
8
0
10
-24.745500
20
-112.318000
11
-24.399300
21
-111.865000
0
LINE
8
0
10
-24.399300
20
-111.865000
11
-24.180700
21
-111.339000
0
LINE
8
0
10
-24.180700
20
-111.339000
11
-24.104600
21
-110.765000
0
LINE
8
0
10
-24.104600
20
-110.765000
11
-24.104600
21
-110.765000
0
LINE
8
0
10
-24.496700
20
-47.127200
11
-24.669600
21
-46.270000
0
LINE
8
0
10
-24.669600
20
-46.270000
11
-25.141000
21
-45.571500
0
LINE
8
0
10
-25.141000
20
-45.571500
11
-25.840300
21
-45.097900
0
LINE
8
0
10
-25.840300
20
-45.097900
11
-26.696700
21
-44.925900
0
LINE
8
0
10
-26.696700
20
-44.925900
11
-27.552900
21
-45.097900
0
LINE
8
0
10
-27.552900
20
-45.097900
11
-28.252200
21
-45.571500
0
LINE
8
0
10
-28.252200
20
-45.571500
11
-28.723700
21
-46.270000
0
LINE
8
0
10
-28.723700
20
-46.270000
11
-28.896700
21
-47.127200
0
LINE
8
0
10
-28.896700
20
-47.127200
11
-28.820500
21
-47.701400
0
LINE
8
0
10
-28.820500
20
-47.701400
11
-28.602000
21
-48.225300
0
LINE
8
0
10
-28.602000
20
-48.225300
11
-28.255600
21
-48.677700
0
LINE
8
0
10
-28.255600
20
-48.677700
11
-27.796600
21
-49.032200
0
LINE
8
0
10
-27.796600
20
-49.032200
11
-27.261600
21
-49.251800
0
LINE
8
0
10
-27.261600
20
-49.251800
11
-26.696700
21
-49.325900
0
LINE
8
0
10
-26.696700
20
-49.325900
11
-26.131900
21
-49.251800
0
LINE
8
0
10
-26.131900
20
-49.251800
11
-25.596700
21
-49.032200
0
LINE
8
0
10
-25.596700
20
-49.032200
11
-25.137600
21
-48.677700
0
LINE
8
0
10
-25.137600
20
-48.677700
11
-24.791400
21
-48.225300
0
LINE
8
0
10
-24.791400
20
-48.225300
11
-24.572800
21
-47.701400
0
LINE
8
0
10
-24.572800
20
-47.701400
11
-24.496700
21
-47.127200
0
LINE
8
0
10
-24.496700
20
-47.127200
11
-24.496700
21
-47.127200
0
LINE
8
0
10
-88.135000
20
-47.518800
11
-88.307800
21
-46.661600
0
LINE
8
0
10
-88.307800
20
-46.661600
11
-88.779200
21
-45.963100
0
LINE
8
0
10
-88.779200
20
-45.963100
11
-89.478500
21
-45.492100
0
LINE
8
0
10
-89.478500
20
-45.492100
11
-90.335000
21
-45.317500
0
LINE
8
0
10
-90.335000
20
-45.317500
11
-91.191200
21
-45.492100
0
LINE
8
0
10
-91.191200
20
-45.492100
11
-91.890500
21
-45.963100
0
LINE
8
0
10
-91.890500
20
-45.963100
11
-92.362000
21
-46.661600
0
LINE
8
0
10
-92.362000
20
-46.661600
11
-92.535000
21
-47.518800
0
LINE
8
0
10
-92.535000
20
-47.518800
11
-92.458800
21
-48.093000
0
LINE
8
0
10
-92.458800
20
-48.093000
11
-92.240200
21
-48.619500
0
LINE
8
0
10
-92.240200
20
-48.619500
11
-91.893900
21
-49.071900
0
LINE
8
0
10
-91.893900
20
-49.071900
11
-91.434900
21
-49.423800
0
LINE
8
0
10
-91.434900
20
-49.423800
11
-90.899600
21
-49.643400
0
LINE
8
0
10
-90.899600
20
-49.643400
11
-90.335000
21
-49.717500
0
LINE
8
0
10
-90.335000
20
-49.717500
11
-89.770100
21
-49.643400
0
LINE
8
0
10
-89.770100
20
-49.643400
11
-89.234900
21
-49.423800
0
LINE
8
0
10
-89.234900
20
-49.423800
11
-88.775800
21
-49.071900
0
LINE
8
0
10
-88.775800
20
-49.071900
11
-88.429700
21
-48.619500
0
LINE
8
0
10
-88.429700
20
-48.619500
11
-88.210900
21
-48.093000
0
LINE
8
0
10
-88.210900
20
-48.093000
11
-88.135000
21
-47.518800
0
LINE
8
0
10
-88.135000
20
-47.518800
11
-88.135000
21
-47.518800
0
LINE
8
0
10
65.895200
20
-110.765000
11
65.819000
21
-110.191000
0
LINE
8
0
10
65.819000
20
-110.191000
11
65.600400
21
-109.664000
0
LINE
8
0
10
65.600400
20
-109.664000
11
65.254400
21
-109.212000
0
LINE
8
0
10
65.254400
20
-109.212000
11
64.795300
21
-108.860000
0
LINE
8
0
10
64.795300
20
-108.860000
11
64.260100
21
-108.637000
0
LINE
8
0
10
64.260100
20
-108.637000
11
63.695200
21
-108.563000
0
LINE
8
0
10
63.695200
20
-108.563000
11
63.130300
21
-108.637000
0
LINE
8
0
10
63.130300
20
-108.637000
11
62.595300
21
-108.860000
0
LINE
8
0
10
62.595300
20
-108.860000
11
62.136300
21
-109.212000
0
LINE
8
0
10
62.136300
20
-109.212000
11
61.789900
21
-109.664000
0
LINE
8
0
10
61.789900
20
-109.664000
11
61.571400
21
-110.191000
0
LINE
8
0
10
61.571400
20
-110.191000
11
61.495200
21
-110.765000
0
LINE
8
0
10
61.495200
20
-110.765000
11
61.571400
21
-111.339000
0
LINE
8
0
10
61.571400
20
-111.339000
11
61.789900
21
-111.865000
0
LINE
8
0
10
61.789900
20
-111.865000
11
62.136300
21
-112.318000
0
LINE
8
0
10
62.136300
20
-112.318000
11
62.595300
21
-112.670000
0
LINE
8
0
10
62.595300
20
-112.670000
11
63.130300
21
-112.892000
0
LINE
8
0
10
63.130300
20
-112.892000
11
63.695200
21
-112.963000
0
LINE
8
0
10
63.695200
20
-112.963000
11
64.260100
21
-112.892000
0
LINE
8
0
10
64.260100
20
-112.892000
11
64.795300
21
-112.670000
0
LINE
8
0
10
64.795300
20
-112.670000
11
65.254400
21
-112.318000
0
LINE
8
0
10
65.254400
20
-112.318000
11
65.600400
21
-111.865000
0
LINE
8
0
10
65.600400
20
-111.865000
11
65.819000
21
-111.339000
0
LINE
8
0
10
65.819000
20
-111.339000
11
65.895200
21
-110.765000
0
LINE
8
0
10
65.895200
20
-110.765000
11
65.895200
21
-110.765000
0
LINE
8
0
10
65.503100
20
-47.127200
11
65.426900
21
-46.553100
0
LINE
8
0
10
65.426900
20
-46.553100
11
65.208300
21
-46.026600
0
LINE
8
0
10
65.208300
20
-46.026600
11
64.862300
21
-45.574100
0
LINE
8
0
10
64.862300
20
-45.574100
11
64.403200
21
-45.222200
0
LINE
8
0
10
64.403200
20
-45.222200
11
63.868000
21
-45.000000
0
LINE
8
0
10
63.868000
20
-45.000000
11
63.303100
21
-44.925900
0
LINE
8
0
10
63.303100
20
-44.925900
11
62.738200
21
-45.000000
0
LINE
8
0
10
62.738200
20
-45.000000
11
62.203200
21
-45.222200
0
LINE
8
0
10
62.203200
20
-45.222200
11
61.744100
21
-45.574100
0
LINE
8
0
10
61.744100
20
-45.574100
11
61.397800
21
-46.026600
0
LINE
8
0
10
61.397800
20
-46.026600
11
61.179300
21
-46.553100
0
LINE
8
0
10
61.179300
20
-46.553100
11
61.103100
21
-47.127200
0
LINE
8
0
10
61.103100
20
-47.127200
11
61.179300
21
-47.701400
0
LINE
8
0
10
61.179300
20
-47.701400
11
61.397800
21
-48.225300
0
LINE
8
0
10
61.397800
20
-48.225300
11
61.744100
21
-48.677700
0
LINE
8
0
10
61.744100
20
-48.677700
11
62.203200
21
-49.032200
0
LINE
8
0
10
62.203200
20
-49.032200
11
62.738200
21
-49.251800
0
LINE
8
0
10
62.738200
20
-49.251800
11
63.303100
21
-49.325900
0
LINE
8
0
10
63.303100
20
-49.325900
11
63.868000
21
-49.251800
0
LINE
8
0
10
63.868000
20
-49.251800
11
64.403200
21
-49.032200
0
LINE
8
0
10
64.403200
20
-49.032200
11
64.862300
21
-48.677700
0
LINE
8
0
10
64.862300
20
-48.677700
11
65.208300
21
-48.225300
0
LINE
8
0
10
65.208300
20
-48.225300
11
65.426900
21
-47.701400
0
LINE
8
0
10
65.426900
20
-47.701400
11
65.503100
21
-47.127200
0
LINE
8
0
10
65.503100
20
-47.127200
11
65.503100
21
-47.127200
0
LINE
8
0
10
2.257010
20
-111.156000
11
2.180850
21
-110.582000
0
LINE
8
0
10
2.180850
20
-110.582000
11
1.962260
21
-110.056000
0
LINE
8
0
10
1.962260
20
-110.056000
11
1.616050
21
-109.603000
0
LINE
8
0
10
1.616050
20
-109.603000
11
1.157010
21
-109.251000
0
LINE
8
0
10
1.157010
20
-109.251000
11
0.621818
21
-109.029000
0
LINE
8
0
10
0.621818
20
-109.029000
11
0.057010
21
-108.958000
0
LINE
8
0
10
0.057010
20
-108.958000
11
-0.507798
21
-109.029000
0
LINE
8
0
10
-0.507798
20
-109.029000
11
-1.042990
21
-109.251000
0
LINE
8
0
10
-1.042990
20
-109.251000
11
-1.502030
21
-109.603000
0
LINE
8
0
10
-1.502030
20
-109.603000
11
-1.848240
21
-110.056000
0
LINE
8
0
10
-1.848240
20
-110.056000
11
-2.066830
21
-110.582000
0
LINE
8
0
10
-2.066830
20
-110.582000
11
-2.142990
21
-111.156000
0
LINE
8
0
10
-2.142990
20
-111.156000
11
-2.066830
21
-111.730000
0
LINE
8
0
10
-2.066830
20
-111.730000
11
-1.848240
21
-112.257000
0
LINE
8
0
10
-1.848240
20
-112.257000
11
-1.502030
21
-112.709000
0
LINE
8
0
10
-1.502030
20
-112.709000
11
-1.042990
21
-113.061000
0
LINE
8
0
10
-1.042990
20
-113.061000
11
-0.507798
21
-113.284000
0
LINE
8
0
10
-0.507798
20
-113.284000
11
0.057010
21
-113.358000
0
LINE
8
0
10
0.057010
20
-113.358000
11
0.621818
21
-113.284000
0
LINE
8
0
10
0.621818
20
-113.284000
11
1.157010
21
-113.061000
0
LINE
8
0
10
1.157010
20
-113.061000
11
1.616050
21
-112.709000
0
LINE
8
0
10
1.616050
20
-112.709000
11
1.962260
21
-112.257000
0
LINE
8
0
10
1.962260
20
-112.257000
11
2.180850
21
-111.730000
0
LINE
8
0
10
2.180850
20
-111.730000
11
2.257010
21
-111.156000
0
LINE
8
0
10
2.257010
20
-111.156000
11
2.257010
21
-111.156000
0
LINE
8
0
10
71.929800
20
-79.141800
11
71.840600
21
-76.458900
0
LINE
8
0
10
71.840600
20
-76.458900
11
71.576100
21
-73.810400
0
LINE
8
0
10
71.576100
20
-73.810400
11
71.139800
21
-71.201600
0
LINE
8
0
10
71.139800
20
-71.201600
11
70.536500
21
-68.640500
0
LINE
8
0
10
70.536500
20
-68.640500
11
69.770500
21
-66.132200
0
LINE
8
0
10
69.770500
20
-66.132200
11
68.845800
21
-63.690100
0
LINE
8
0
10
68.845800
20
-63.690100
11
67.766600
21
-61.314200
0
LINE
8
0
10
67.766600
20
-61.314200
11
66.537300
21
-59.017600
0
LINE
8
0
10
66.537300
20
-59.017600
11
65.162300
21
-56.803000
0
LINE
8
0
10
65.162300
20
-56.803000
11
63.645200
21
-54.681100
0
LINE
8
0
10
63.645200
20
-54.681100
11
61.990700
21
-52.657000
0
LINE
8
0
10
61.990700
20
-52.657000
11
60.203200
21
-50.741400
0
LINE
8
0
10
60.203200
20
-50.741400
11
58.286600
21
-48.939600
0
LINE
8
0
10
58.286600
20
-48.939600
11
56.245100
21
-47.256900
0
LINE
8
0
10
56.245100
20
-47.256900
11
54.083100
21
-45.701100
0
LINE
8
0
10
54.083100
20
-45.701100
11
51.805100
21
-44.283000
0
LINE
8
0
10
51.805100
20
-44.283000
11
49.437600
21
-43.020900
0
LINE
8
0
10
49.437600
20
-43.020900
11
47.010800
21
-41.925500
0
LINE
8
0
10
47.010800
20
-41.925500
11
44.533300
21
-40.996800
0
LINE
8
0
10
44.533300
20
-40.996800
11
42.013400
21
-40.240100
0
LINE
8
0
10
42.013400
20
-40.240100
11
39.459600
21
-39.650100
0
LINE
8
0
10
39.459600
20
-39.650100
11
36.880500
21
-39.229400
0
LINE
8
0
10
36.880500
20
-39.229400
11
34.284700
21
-38.975400
0
LINE
8
0
10
34.284700
20
-38.975400
11
31.680100
21
-38.890800
0
LINE
8
0
10
31.680100
20
-38.890800
11
29.075600
21
-38.975400
0
LINE
8
0
10
29.075600
20
-38.975400
11
26.479500
21
-39.229400
0
LINE
8
0
10
26.479500
20
-39.229400
11
23.900400
21
-39.650100
0
LINE
8
0
10
23.900400
20
-39.650100
11
21.346600
21
-40.240100
0
LINE
8
0
10
21.346600
20
-40.240100
11
18.826800
21
-40.996800
0
LINE
8
0
10
18.826800
20
-40.996800
11
16.349300
21
-41.925500
0
LINE
8
0
10
16.349300
20
-41.925500
11
13.922600
21
-43.020900
0
LINE
8
0
10
13.922600
20
-43.020900
11
11.555100
21
-44.283000
0
LINE
8
0
10
11.555100
20
-44.283000
11
9.276840
21
-45.701100
0
LINE
8
0
10
9.276840
20
-45.701100
11
7.114900
21
-47.256900
0
LINE
8
0
10
7.114900
20
-47.256900
11
5.073480
21
-48.939600
0
LINE
8
0
10
5.073480
20
-48.939600
11
3.156820
21
-50.741400
0
LINE
8
0
10
3.156820
20
-50.741400
11
1.369190
21
-52.657000
0
LINE
8
0
10
1.369190
20
-52.657000
11
-0.285207
21
-54.681100
0
LINE
8
0
10
-0.285207
20
-54.681100
11
-1.802140
21
-56.803000
0
LINE
8
0
10
-1.802140
20
-56.803000
11
-3.177350
21
-59.017600
0
LINE
8
0
10
-3.177350
20
-59.017600
11
-4.406660
21
-61.314200
0
LINE
8
0
10
-4.406660
20
-61.314200
11
-5.485760
21
-63.690100
0
LINE
8
0
10
-5.485760
20
-63.690100
11
-6.410480
21
-66.132200
0
LINE
8
0
10
-6.410480
20
-66.132200
11
-7.176550
21
-68.640500
0
LINE
8
0
10
-7.176550
20
-68.640500
11
-7.779750
21
-71.201600
0
LINE
8
0
10
-7.779750
20
-71.201600
11
-8.215860
21
-73.810400
0
LINE
8
0
10
-8.215860
20
-73.810400
11
-8.480630
21
-76.458900
0
LINE
8
0
10
-8.480630
20
-76.458900
11
-8.569820
21
-79.141800
0
LINE
8
0
10
-8.569820
20
-79.141800
11
-8.480630
21
-81.824600
0
LINE
8
0
10
-8.480630
20
-81.824600
11
-8.215860
21
-84.473100
0
LINE
8
0
10
-8.215860
20
-84.473100
11
-7.779750
21
-87.081900
0
LINE
8
0
10
-7.779750
20
-87.081900
11
-7.176550
21
-89.643100
0
LINE
8
0
10
-7.176550
20
-89.643100
11
-6.410480
21
-92.148700
0
LINE
8
0
10
-6.410480
20
-92.148700
11
-5.485760
21
-94.593400
0
LINE
8
0
10
-5.485760
20
-94.593400
11
-4.406630
21
-96.969400
0
LINE
8
0
10
-4.406630
20
-96.969400
11
-3.177350
21
-99.266000
0
LINE
8
0
10
-3.177350
20
-99.266000
11
-1.802130
21
-101.481000
0
LINE
8
0
10
-1.802130
20
-101.481000
11
-0.285194
21
-103.602000
0
LINE
8
0
10
-0.285194
20
-103.602000
11
1.369210
21
-105.624000
0
LINE
8
0
10
1.369210
20
-105.624000
11
3.156850
21
-107.542000
0
LINE
8
0
10
3.156850
20
-107.542000
11
5.073480
21
-109.344000
0
LINE
8
0
10
5.073480
20
-109.344000
11
7.114900
21
-111.027000
0
LINE
8
0
10
7.114900
20
-111.027000
11
9.276860
21
-112.580000
0
LINE
8
0
10
9.276860
20
-112.580000
11
11.555100
21
-113.998000
0
LINE
8
0
10
11.555100
20
-113.998000
11
13.922600
21
-115.263000
0
LINE
8
0
10
13.922600
20
-115.263000
11
16.349300
21
-116.358000
0
LINE
8
0
10
16.349300
20
-116.358000
11
18.826800
21
-117.284000
0
LINE
8
0
10
18.826800
20
-117.284000
11
21.346700
21
-118.043000
0
LINE
8
0
10
21.346700
20
-118.043000
11
23.900400
21
-118.633000
0
LINE
8
0
10
23.900400
20
-118.633000
11
26.479500
21
-119.054000
0
LINE
8
0
10
26.479500
20
-119.054000
11
29.075600
21
-119.308000
0
LINE
8
0
10
29.075600
20
-119.308000
11
31.680100
21
-119.390000
0
LINE
8
0
10
31.680100
20
-119.390000
11
34.284700
21
-119.308000
0
LINE
8
0
10
34.284700
20
-119.308000
11
36.880500
21
-119.054000
0
LINE
8
0
10
36.880500
20
-119.054000
11
39.459600
21
-118.633000
0
LINE
8
0
10
39.459600
20
-118.633000
11
42.013400
21
-118.043000
0
LINE
8
0
10
42.013400
20
-118.043000
11
44.533300
21
-117.284000
0
LINE
8
0
10
44.533300
20
-117.284000
11
47.010800
21
-116.358000
0
LINE
8
0
10
47.010800
20
-116.358000
11
49.437600
21
-115.263000
0
LINE
8
0
10
49.437600
20
-115.263000
11
51.805100
21
-113.998000
0
LINE
8
0
10
51.805100
20
-113.998000
11
54.083100
21
-112.580000
0
LINE
8
0
10
54.083100
20
-112.580000
11
56.245100
21
-111.027000
0
LINE
8
0
10
56.245100
20
-111.027000
11
58.286600
21
-109.344000
0
LINE
8
0
10
58.286600
20
-109.344000
11
60.203200
21
-107.542000
0
LINE
8
0
10
60.203200
20
-107.542000
11
61.991000
21
-105.624000
0
LINE
8
0
10
61.991000
20
-105.624000
11
63.645200
21
-103.602000
0
LINE
8
0
10
63.645200
20
-103.602000
11
65.162300
21
-101.481000
0
LINE
8
0
10
65.162300
20
-101.481000
11
66.537300
21
-99.266000
0
LINE
8
0
10
66.537300
20
-99.266000
11
67.766900
21
-96.969400
0
LINE
8
0
10
67.766900
20
-96.969400
11
68.845800
21
-94.593400
0
LINE
8
0
10
68.845800
20
-94.593400
11
69.770500
21
-92.148700
0
LINE
8
0
10
69.770500
20
-92.148700
11
70.536500
21
-89.643100
0
LINE
8
0
10
70.536500
20
-89.643100
11
71.139800
21
-87.081900
0
LINE
8
0
10
71.139800
20
-87.081900
11
71.576100
21
-84.473100
0
LINE
8
0
10
71.576100
20
-84.473100
11
71.840600
21
-81.824600
0
LINE
8
0
10
71.840600
20
-81.824600
11
71.929800
21
-79.141800
0
LINE
8
0
10
71.929800
20
-79.141800
11
71.929800
21
-79.141800
0
LINE
8
0
10
1.864840
20
-47.518800
11
1.690600
21
-46.664200
0
LINE
8
0
10
1.690600
20
-46.664200
11
1.218820
21
-45.965700
0
LINE
8
0
10
1.218820
20
-45.965700
11
0.520046
21
-45.494800
0
LINE
8
0
10
0.520046
20
-45.494800
11
-0.335155
21
-45.322800
0
LINE
8
0
10
-0.335155
20
-45.322800
11
-1.190360
21
-45.494800
0
LINE
8
0
10
-1.190360
20
-45.494800
11
-1.889130
21
-45.965700
0
LINE
8
0
10
-1.889130
20
-45.965700
11
-2.360910
21
-46.664200
0
LINE
8
0
10
-2.360910
20
-46.664200
11
-2.535150
21
-47.518800
0
LINE
8
0
10
-2.535150
20
-47.518800
11
-2.360910
21
-48.373400
0
LINE
8
0
10
-2.360910
20
-48.373400
11
-1.889130
21
-49.071900
0
LINE
8
0
10
-1.889130
20
-49.071900
11
-1.190360
21
-49.540200
0
LINE
8
0
10
-1.190360
20
-49.540200
11
-0.335155
21
-49.714900
0
LINE
8
0
10
-0.335155
20
-49.714900
11
0.520046
21
-49.540200
0
LINE
8
0
10
0.520046
20
-49.540200
11
1.218820
21
-49.071900
0
LINE
8
0
10
1.218820
20
-49.071900
11
1.690600
21
-48.373400
0
LINE
8
0
10
1.690600
20
-48.373400
11
1.864840
21
-47.518800
0
LINE
8
0
10
1.864840
20
-47.518800
11
1.864840
21
-47.518800
0
LINE
8
0
10
155.895000
20
-110.765000
11
155.819000
21
-110.191000
0
LINE
8
0
10
155.819000
20
-110.191000
11
155.600000
21
-109.664000
0
LINE
8
0
10
155.600000
20
-109.664000
11
155.254000
21
-109.212000
0
LINE
8
0
10
155.254000
20
-109.212000
11
154.795000
21
-108.860000
0
LINE
8
0
10
154.795000
20
-108.860000
11
154.260000
21
-108.637000
0
LINE
8
0
10
154.260000
20
-108.637000
11
153.695000
21
-108.563000
0
LINE
8
0
10
153.695000
20
-108.563000
11
153.130000
21
-108.637000
0
LINE
8
0
10
153.130000
20
-108.637000
11
152.595000
21
-108.860000
0
LINE
8
0
10
152.595000
20
-108.860000
11
152.136000
21
-109.212000
0
LINE
8
0
10
152.136000
20
-109.212000
11
151.790000
21
-109.664000
0
LINE
8
0
10
151.790000
20
-109.664000
11
151.571000
21
-110.191000
0
LINE
8
0
10
151.571000
20
-110.191000
11
151.495000
21
-110.765000
0
LINE
8
0
10
151.495000
20
-110.765000
11
151.571000
21
-111.339000
0
LINE
8
0
10
151.571000
20
-111.339000
11
151.790000
21
-111.865000
0
LINE
8
0
10
151.790000
20
-111.865000
11
152.136000
21
-112.318000
0
LINE
8
0
10
152.136000
20
-112.318000
11
152.595000
21
-112.670000
0
LINE
8
0
10
152.595000
20
-112.670000
11
153.130000
21
-112.892000
0
LINE
8
0
10
153.130000
20
-112.892000
11
153.695000
21
-112.963000
0
LINE
8
0
10
153.695000
20
-112.963000
11
154.260000
21
-112.892000
0
LINE
8
0
10
154.260000
20
-112.892000
11
154.795000
21
-112.670000
0
LINE
8
0
10
154.795000
20
-112.670000
11
155.254000
21
-112.318000
0
LINE
8
0
10
155.254000
20
-112.318000
11
155.600000
21
-111.865000
0
LINE
8
0
10
155.600000
20
-111.865000
11
155.819000
21
-111.339000
0
LINE
8
0
10
155.819000
20
-111.339000
11
155.895000
21
-110.765000
0
LINE
8
0
10
155.895000
20
-110.765000
11
155.895000
21
-110.765000
0
LINE
8
0
10
155.503000
20
-47.127200
11
155.330000
21
-46.270000
0
LINE
8
0
10
155.330000
20
-46.270000
11
154.858000
21
-45.571500
0
LINE
8
0
10
154.858000
20
-45.571500
11
154.159000
21
-45.097900
0
LINE
8
0
10
154.159000
20
-45.097900
11
153.303000
21
-44.925900
0
LINE
8
0
10
153.303000
20
-44.925900
11
152.446000
21
-45.097900
0
LINE
8
0
10
152.446000
20
-45.097900
11
151.747000
21
-45.571500
0
LINE
8
0
10
151.747000
20
-45.571500
11
151.276000
21
-46.270000
0
LINE
8
0
10
151.276000
20
-46.270000
11
151.103000
21
-47.127200
0
LINE
8
0
10
151.103000
20
-47.127200
11
151.276000
21
-47.981800
0
LINE
8
0
10
151.276000
20
-47.981800
11
151.747000
21
-48.683000
0
LINE
8
0
10
151.747000
20
-48.683000
11
152.446000
21
-49.153900
0
LINE
8
0
10
152.446000
20
-49.153900
11
153.303000
21
-49.325900
0
LINE
8
0
10
153.303000
20
-49.325900
11
154.159000
21
-49.153900
0
LINE
8
0
10
154.159000
20
-49.153900
11
154.858000
21
-48.683000
0
LINE
8
0
10
154.858000
20
-48.683000
11
155.330000
21
-47.981800
0
LINE
8
0
10
155.330000
20
-47.981800
11
155.503000
21
-47.127200
0
LINE
8
0
10
155.503000
20
-47.127200
11
155.503000
21
-47.127200
0
LINE
8
0
10
107.308000
20
-116.736000
11
106.740000
21
-116.612000
0
LINE
8
0
10
106.740000
20
-116.612000
11
106.171000
21
-116.652000
0
LINE
8
0
10
106.171000
20
-116.652000
11
105.636000
21
-116.850000
0
LINE
8
0
10
105.636000
20
-116.850000
11
105.171000
21
-117.199000
0
LINE
8
0
10
105.171000
20
-117.199000
11
97.381400
21
-125.087000
0
LINE
8
0
10
97.381400
20
-125.087000
11
96.756900
21
-125.603000
0
LINE
8
0
10
96.756900
20
-125.603000
11
96.063500
21
-125.973000
0
LINE
8
0
10
96.063500
20
-125.973000
11
94.560100
21
-126.275000
0
LINE
8
0
10
94.560100
20
-126.275000
11
93.053300
21
-125.991000
0
LINE
8
0
10
93.053300
20
-125.991000
11
92.355300
21
-125.629000
0
LINE
8
0
10
92.355300
20
-125.629000
11
91.724600
21
-125.121000
0
LINE
8
0
10
91.724600
20
-125.121000
11
76.072600
21
-109.661000
0
LINE
8
0
10
76.072600
20
-109.661000
11
75.569400
21
-109.056000
0
LINE
8
0
10
75.569400
20
-109.056000
11
75.197400
21
-108.370000
0
LINE
8
0
10
75.197400
20
-108.370000
11
74.965900
21
-107.624000
0
LINE
8
0
10
74.965900
20
-107.624000
11
74.883600
21
-106.841000
0
LINE
8
0
10
74.883600
20
-106.841000
11
74.956400
21
-106.055000
0
LINE
8
0
10
74.956400
20
-106.055000
11
75.178600
21
-105.306000
0
LINE
8
0
10
75.178600
20
-105.306000
11
75.541900
21
-104.616000
0
LINE
8
0
10
75.541900
20
-104.616000
11
76.037700
21
-104.005000
0
LINE
8
0
10
76.037700
20
-104.005000
11
83.827000
21
-96.117400
0
LINE
8
0
10
83.827000
20
-96.117400
11
84.171500
21
-95.649100
0
LINE
8
0
10
84.171500
20
-95.649100
11
84.363900
21
-95.112000
0
LINE
8
0
10
84.363900
20
-95.112000
11
84.396900
21
-94.543200
0
LINE
8
0
10
84.396900
20
-94.543200
11
84.263300
21
-93.976900
0
LINE
8
0
10
84.263300
20
-93.976900
11
83.103100
21
-90.630000
0
LINE
8
0
10
83.103100
20
-90.630000
11
82.250700
21
-87.246000
0
LINE
8
0
10
82.250700
20
-87.246000
11
81.700100
21
-83.838100
0
LINE
8
0
10
81.700100
20
-83.838100
11
81.445800
21
-80.422400
0
LINE
8
0
10
81.445800
20
-80.422400
11
81.482300
21
-77.022500
0
LINE
8
0
10
81.482300
20
-77.022500
11
81.803800
21
-73.654300
0
LINE
8
0
10
81.803800
20
-73.654300
11
82.404900
21
-70.331200
0
LINE
8
0
10
82.404900
20
-70.331200
11
83.280100
21
-67.076800
0
LINE
8
0
10
83.280100
20
-67.076800
11
84.423400
21
-63.907100
0
LINE
8
0
10
84.423400
20
-63.907100
11
85.829700
21
-60.837900
0
LINE
8
0
10
85.829700
20
-60.837900
11
87.492800
21
-57.890500
0
LINE
8
0
10
87.492800
20
-57.890500
11
89.407600
21
-55.080600
0
LINE
8
0
10
89.407600
20
-55.080600
11
91.568200
21
-52.424200
0
LINE
8
0
10
91.568200
20
-52.424200
11
93.969300
21
-49.945000
0
LINE
8
0
10
93.969300
20
-49.945000
11
96.604800
21
-47.653800
0
LINE
8
0
10
96.604800
20
-47.653800
11
99.469400
21
-45.574100
0
LINE
8
0
10
99.469400
20
-45.574100
11
102.504000
21
-43.751200
0
LINE
8
0
10
102.504000
20
-43.751200
11
105.643000
21
-42.219200
0
LINE
8
0
10
105.643000
20
-42.219200
11
108.865000
21
-40.981000
0
LINE
8
0
10
108.865000
20
-40.981000
11
112.153000
21
-40.031100
0
LINE
8
0
10
112.153000
20
-40.031100
11
115.489000
21
-39.367000
0
LINE
8
0
10
115.489000
20
-39.367000
11
118.853000
21
-38.988700
0
LINE
8
0
10
118.853000
20
-38.988700
11
122.226000
21
-38.893400
0
LINE
8
0
10
122.226000
20
-38.893400
11
125.591000
21
-39.081300
0
LINE
8
0
10
125.591000
20
-39.081300
11
128.929000
21
-39.549600
0
LINE
8
0
10
128.929000
20
-39.549600
11
132.221000
21
-40.293100
0
LINE
8
0
10
132.221000
20
-40.293100
11
135.449000
21
-41.317000
0
LINE
8
0
10
135.449000
20
-41.317000
11
138.592000
21
-42.610800
0
LINE
8
0
10
138.592000
20
-42.610800
11
141.635000
21
-44.179800
0
LINE
8
0
10
141.635000
20
-44.179800
11
144.557000
21
-46.021300
0
LINE
8
0
10
144.557000
20
-46.021300
11
147.339000
21
-48.130000
0
LINE
8
0
10
147.339000
20
-48.130000
11
149.964000
21
-50.506000
0
LINE
8
0
10
149.964000
20
-50.506000
11
152.372000
21
-53.098900
0
LINE
8
0
10
152.372000
20
-53.098900
11
154.515000
21
-55.855800
0
LINE
8
0
10
154.515000
20
-55.855800
11
156.391000
21
-58.755700
0
LINE
8
0
10
156.391000
20
-58.755700
11
157.997000
21
-61.777200
0
LINE
8
0
10
157.997000
20
-61.777200
11
159.332000
21
-64.904600
0
LINE
8
0
10
159.332000
20
-64.904600
11
160.393000
21
-68.119200
0
LINE
8
0
10
160.393000
20
-68.119200
11
161.179000
21
-71.402700
0
LINE
8
0
10
161.179000
20
-71.402700
11
161.687000
21
-74.733800
0
LINE
8
0
10
161.687000
20
-74.733800
11
161.916000
21
-78.096700
0
LINE
8
0
10
161.916000
20
-78.096700
11
161.864000
21
-81.472800
0
LINE
8
0
10
161.864000
20
-81.472800
11
161.527000
21
-84.840900
0
LINE
8
0
10
161.527000
20
-84.840900
11
160.905000
21
-88.182600
0
LINE
8
0
10
160.905000
20
-88.182600
11
159.995000
21
-91.481900
0
LINE
8
0
10
159.995000
20
-91.481900
11
158.796000
21
-94.720400
0
LINE
8
0
10
158.796000
20
-94.720400
11
157.304000
21
-97.876900
0
LINE
8
0
10
157.304000
20
-97.876900
11
155.519000
21
-100.935000
0
LINE
8
0
10
155.519000
20
-100.935000
11
153.474000
21
-103.825000
0
LINE
8
0
10
153.474000
20
-103.825000
11
151.217000
21
-106.489000
0
LINE
8
0
10
151.217000
20
-106.489000
11
148.765000
21
-108.921000
0
LINE
8
0
10
148.765000
20
-108.921000
11
146.137000
21
-111.114000
0
LINE
8
0
10
146.137000
20
-111.114000
11
143.351000
21
-113.061000
0
LINE
8
0
10
143.351000
20
-113.061000
11
140.423000
21
-114.763000
0
LINE
8
0
10
140.423000
20
-114.763000
11
137.373000
21
-116.205000
0
LINE
8
0
10
137.373000
20
-116.205000
11
134.217000
21
-117.387000
0
LINE
8
0
10
134.217000
20
-117.387000
11
130.973000
21
-118.303000
0
LINE
8
0
10
130.973000
20
-118.303000
11
127.659000
21
-118.946000
0
LINE
8
0
10
127.659000
20
-118.946000
11
124.294000
21
-119.308000
0
LINE
8
0
10
124.294000
20
-119.308000
11
120.894000
21
-119.387000
0
LINE
8
0
10
120.894000
20
-119.387000
11
117.478000
21
-119.176000
0
LINE
8
0
10
117.478000
20
-119.176000
11
114.063000
21
-118.668000
0
LINE
8
0
10
114.063000
20
-118.668000
11
110.667000
21
-117.856000
0
LINE
8
0
10
110.667000
20
-117.856000
11
107.308000
21
-116.736000
0
LINE
8
0
10
107.308000
20
-116.736000
11
107.308000
21
-116.736000
0
LINE
8
0
10
91.864500
20
-47.518800
11
91.788300
21
-46.944700
0
LINE
8
0
10
91.788300
20
-46.944700
11
91.569800
21
-46.418200
0
LINE
8
0
10
91.569800
20
-46.418200
11
91.223700
21
-45.965700
0
LINE
8
0
10
91.223700
20
-45.965700
11
90.764700
21
-45.613800
0
LINE
8
0
10
90.764700
20
-45.613800
11
90.229400
21
-45.391600
0
LINE
8
0
10
90.229400
20
-45.391600
11
89.664500
21
-45.317500
0
LINE
8
0
10
89.664500
20
-45.317500
11
89.099600
21
-45.391600
0
LINE
8
0
10
89.099600
20
-45.391600
11
88.564700
21
-45.613800
0
LINE
8
0
10
88.564700
20
-45.613800
11
88.105600
21
-45.965700
0
LINE
8
0
10
88.105600
20
-45.965700
11
87.759300
21
-46.418200
0
LINE
8
0
10
87.759300
20
-46.418200
11
87.540700
21
-46.944700
0
LINE
8
0
10
87.540700
20
-46.944700
11
87.464500
21
-47.518800
0
LINE
8
0
10
87.464500
20
-47.518800
11
87.540700
21
-48.093000
0
LINE
8
0
10
87.540700
20
-48.093000
11
87.759300
21
-48.619500
0
LINE
8
0
10
87.759300
20
-48.619500
11
88.105600
21
-49.071900
0
LINE
8
0
10
88.105600
20
-49.071900
11
88.564700
21
-49.423800
0
LINE
8
0
10
88.564700
20
-49.423800
11
89.099600
21
-49.643400
0
LINE
8
0
10
89.099600
20
-49.643400
11
89.664500
21
-49.717500
0
LINE
8
0
10
89.664500
20
-49.717500
11
90.229400
21
-49.643400
0
LINE
8
0
10
90.229400
20
-49.643400
11
90.764700
21
-49.423800
0
LINE
8
0
10
90.764700
20
-49.423800
11
91.223700
21
-49.071900
0
LINE
8
0
10
91.223700
20
-49.071900
11
91.569800
21
-48.619500
0
LINE
8
0
10
91.569800
20
-48.619500
11
91.788300
21
-48.093000
0
LINE
8
0
10
91.788300
20
-48.093000
11
91.864500
21
-47.518800
0
LINE
8
0
10
91.864500
20
-47.518800
11
91.864500
21
-47.518800
0
LINE
8
Layer 1
10
0.793749
20
297.794000
11
-0.793749
21
296.206000
0
LINE
8
Layer 1
10
0.000000
20
298.323000
11
0.000000
21
295.677000
0
LINE
8
Layer 1
10
2.116660
20
295.942000
11
1.058330
21
294.884000
0
LINE
8
Layer 1
10
1.587500
20
296.471000
11
0.529169
21
295.413000
0
LINE
8
Layer 1
10
1.058330
20
297.000000
11
0.000000
21
295.942000
 0 
ENDSEC
 0 
EOF