999
"DXF R12 Output" (www.mydxf.blogspot.com)
 0 
SECTION
 2 
HEADER
 9 
$ACADVER
 1 
AC1009
 9 
$EXTMIN
 10 
 0 
 20 
 0 
 9 
$EXTMAX
 10 
 8.5 
 20 
 11 
 0 
ENDSEC
 0 
SECTION
 2 
ENTITIES
0
LINE
8
Layer 1
10
0.793749
20
297.794000
11
-0.793749
21
296.206000
0
LINE
8
Layer 1
10
0.000000
20
298.323000
11
0.000000
21
295.677000
0
LINE
8
Layer 1
10
2.116660
20
295.942000
11
1.058330
21
294.883670
0
LINE
8
Layer 1
10
1.587500
20
296.471000
11
0.529170
21
295.412670
0
LINE
8
Layer 1
10
1.058330
20
297.000000
11
0.000000
21
295.941670
0
LINE
8
0
10
-499.813000
20
-115.255000
11
-499.787000
21
-113.479000
0
LINE
8
0
10
-499.787000
20
-113.479000
11
-500.168000
21
-111.770000
0
LINE
8
0
10
-500.168000
20
-111.770000
11
-500.938000
21
-110.196000
0
LINE
8
0
10
-500.938000
20
-110.196000
11
-502.067000
21
-108.828000
0
LINE
8
0
10
-502.067000
20
-108.828000
11
-503.488000
21
-107.762000
0
LINE
8
0
10
-503.488000
20
-107.762000
11
-505.097000
21
-107.069000
0
LINE
8
0
10
-505.097000
20
-107.069000
11
-506.822000
21
-106.764000
0
LINE
8
0
10
-506.822000
20
-106.764000
11
-508.595000
21
-106.875000
0
LINE
8
0
10
-508.595000
20
-106.875000
11
-508.595000
21
21.368000
0
LINE
8
0
10
-508.595000
20
21.368000
11
-507.288000
21
21.246300
0
LINE
8
0
10
-507.288000
20
21.246300
11
-506.010000
21
21.349500
0
LINE
8
0
10
-506.010000
20
21.349500
11
-504.782000
21
21.661700
0
LINE
8
0
10
-504.782000
20
21.661700
11
-503.631000
21
22.175000
0
LINE
8
0
10
-503.631000
20
22.175000
11
-502.583000
21
22.870800
0
LINE
8
0
10
-502.583000
20
22.870800
11
-501.663000
21
23.738700
0
LINE
8
0
10
-501.663000
20
23.738700
11
-500.890000
21
24.762600
0
LINE
8
0
10
-500.890000
20
24.762600
11
-500.295000
21
25.932100
0
LINE
8
0
10
-500.295000
20
25.932100
11
-499.908000
21
27.186200
0
LINE
8
0
10
-499.908000
20
27.186200
11
-499.750000
21
28.458800
0
LINE
8
0
10
-499.750000
20
28.458800
11
-499.811000
21
29.723500
0
LINE
8
0
10
-499.811000
20
29.723500
11
-500.078000
21
30.953900
0
LINE
8
0
10
-500.078000
20
30.953900
11
-500.546000
21
32.120700
0
LINE
8
0
10
-500.546000
20
32.120700
11
-501.210000
21
33.199400
0
LINE
8
0
10
-501.210000
20
33.199400
11
-502.057000
21
34.162700
0
LINE
8
0
10
-502.057000
20
34.162700
11
-503.081000
21
34.983500
0
LINE
8
0
10
-503.081000
20
34.983500
11
-460.462000
21
86.196100
0
LINE
8
0
10
-460.462000
20
86.196100
11
-422.605000
21
86.196100
0
LINE
8
0
10
-422.605000
20
86.196100
11
-422.737000
21
84.378500
0
LINE
8
0
10
-422.737000
20
84.378500
11
-422.436000
21
82.607300
0
LINE
8
0
10
-422.436000
20
82.607300
11
-421.719000
21
80.959000
0
LINE
8
0
10
-421.719000
20
80.959000
11
-420.616000
21
79.509600
0
LINE
8
0
10
-420.616000
20
79.509600
11
-419.195000
21
78.369200
0
LINE
8
0
10
-419.195000
20
78.369200
11
-417.565000
21
77.613300
0
LINE
8
0
10
-417.565000
20
77.613300
11
-415.800000
21
77.266500
0
LINE
8
0
10
-415.800000
20
77.266500
11
-413.980000
21
77.353800
0
LINE
8
0
10
-413.980000
20
77.353800
11
-413.980000
21
-21.150500
0
LINE
8
0
10
-413.980000
20
-21.150500
11
-413.787000
21
-23.111000
0
LINE
8
0
10
-413.787000
20
-23.111000
11
-413.220000
21
-24.979000
0
LINE
8
0
10
-413.220000
20
-24.979000
11
-412.300000
21
-26.698800
0
LINE
8
0
10
-412.300000
20
-26.698800
11
-411.051000
21
-28.222800
0
LINE
8
0
10
-411.051000
20
-28.222800
11
-409.530000
21
-29.471600
0
LINE
8
0
10
-409.530000
20
-29.471600
11
-407.807000
21
-30.389700
0
LINE
8
0
10
-407.807000
20
-30.389700
11
-405.942000
21
-30.958600
0
LINE
8
0
10
-405.942000
20
-30.958600
11
-403.981000
21
-31.151700
0
LINE
8
0
10
-403.981000
20
-31.151700
11
-328.665000
21
-31.151700
0
LINE
8
0
10
-328.665000
20
-31.151700
11
-328.718000
21
-32.895300
0
LINE
8
0
10
-328.718000
20
-32.895300
11
-328.377000
21
-34.580700
0
LINE
8
0
10
-328.377000
20
-34.580700
11
-327.657000
21
-36.144400
0
LINE
8
0
10
-327.657000
20
-36.144400
11
-326.585000
21
-37.520200
0
LINE
8
0
10
-326.585000
20
-37.520200
11
-325.225000
21
-38.610300
0
LINE
8
0
10
-325.225000
20
-38.610300
11
-323.670000
21
-39.351100
0
LINE
8
0
10
-323.670000
20
-39.351100
11
-321.990000
21
-39.716300
0
LINE
8
0
10
-321.990000
20
-39.716300
11
-320.246000
21
-39.687200
0
LINE
8
0
10
-320.246000
20
-39.687200
11
-320.246000
21
-106.820000
0
LINE
8
0
10
-320.246000
20
-106.820000
11
-321.976000
21
-106.788000
0
LINE
8
0
10
-321.976000
20
-106.788000
11
-323.646000
21
-107.148000
0
LINE
8
0
10
-323.646000
20
-107.148000
11
-325.191000
21
-107.875000
0
LINE
8
0
10
-325.191000
20
-107.875000
11
-326.548000
21
-108.950000
0
LINE
8
0
10
-326.548000
20
-108.950000
11
-327.623000
21
-110.307000
0
LINE
8
0
10
-327.623000
20
-110.307000
11
-328.350000
21
-111.852000
0
LINE
8
0
10
-328.350000
20
-111.852000
11
-328.710000
21
-113.524000
0
LINE
8
0
10
-328.710000
20
-113.524000
11
-328.678000
21
-115.255000
0
LINE
8
0
10
-328.678000
20
-115.255000
11
-499.813000
21
-115.255000
0
LINE
8
0
10
-499.813000
20
-115.255000
11
-499.813000
21
-115.255000
0
LINE
8
0
10
-413.345000
20
84.746200
11
-413.599000
21
85.696300
0
LINE
8
0
10
-413.599000
20
85.696300
11
-414.295000
21
86.391700
0
LINE
8
0
10
-414.295000
20
86.391700
11
-415.244000
21
86.646200
0
LINE
8
0
10
-415.244000
20
86.646200
11
-416.194000
21
86.391700
0
LINE
8
0
10
-416.194000
20
86.391700
11
-416.890000
21
85.696300
0
LINE
8
0
10
-416.890000
20
85.696300
11
-417.144000
21
84.746200
0
LINE
8
0
10
-417.144000
20
84.746200
11
-416.996000
21
84.006700
0
LINE
8
0
10
-416.996000
20
84.006700
11
-416.589000
21
83.402700
0
LINE
8
0
10
-416.589000
20
83.402700
11
-415.985000
21
82.995500
0
LINE
8
0
10
-415.985000
20
82.995500
11
-415.244000
21
82.846300
0
LINE
8
0
10
-415.244000
20
82.846300
11
-414.506000
21
82.995500
0
LINE
8
0
10
-414.506000
20
82.995500
11
-413.903000
21
83.402700
0
LINE
8
0
10
-413.903000
20
83.402700
11
-413.496000
21
84.006700
0
LINE
8
0
10
-413.496000
20
84.006700
11
-413.345000
21
84.746200
0
LINE
8
0
10
-413.345000
20
84.746200
11
-413.345000
21
84.746200
0
LINE
8
0
10
-505.346000
20
28.747200
11
-505.600000
21
29.697100
0
LINE
8
0
10
-505.600000
20
29.697100
11
-506.295000
21
30.392900
0
LINE
8
0
10
-506.295000
20
30.392900
11
-507.245000
21
30.646900
0
LINE
8
0
10
-507.245000
20
30.646900
11
-508.195000
21
30.392900
0
LINE
8
0
10
-508.195000
20
30.392900
11
-508.891000
21
29.697100
0
LINE
8
0
10
-508.891000
20
29.697100
11
-509.145000
21
28.747200
0
LINE
8
0
10
-509.145000
20
28.747200
11
-508.997000
21
28.006400
0
LINE
8
0
10
-508.997000
20
28.006400
11
-508.589000
21
27.403200
0
LINE
8
0
10
-508.589000
20
27.403200
11
-507.986000
21
26.995700
0
LINE
8
0
10
-507.986000
20
26.995700
11
-507.245000
21
26.847500
0
LINE
8
0
10
-507.245000
20
26.847500
11
-506.507000
21
26.995700
0
LINE
8
0
10
-506.507000
20
26.995700
11
-505.901000
21
27.403200
0
LINE
8
0
10
-505.901000
20
27.403200
11
-505.494000
21
28.006400
0
LINE
8
0
10
-505.494000
20
28.006400
11
-505.346000
21
28.747200
0
LINE
8
0
10
-505.346000
20
28.747200
11
-505.346000
21
28.747200
0
LINE
8
0
10
-319.346000
20
-32.252400
11
-319.600000
21
-31.302500
0
LINE
8
0
10
-319.600000
20
-31.302500
11
-320.296000
21
-30.609300
0
LINE
8
0
10
-320.296000
20
-30.609300
11
-321.246000
21
-30.352700
0
LINE
8
0
10
-321.246000
20
-30.352700
11
-322.196000
21
-30.609300
0
LINE
8
0
10
-322.196000
20
-30.609300
11
-322.892000
21
-31.302500
0
LINE
8
0
10
-322.892000
20
-31.302500
11
-323.146000
21
-32.252400
0
LINE
8
0
10
-323.146000
20
-32.252400
11
-322.995000
21
-32.993200
0
LINE
8
0
10
-322.995000
20
-32.993200
11
-322.590000
21
-33.596500
0
LINE
8
0
10
-322.590000
20
-33.596500
11
-321.984000
21
-34.003900
0
LINE
8
0
10
-321.984000
20
-34.003900
11
-321.246000
21
-34.154700
0
LINE
8
0
10
-321.246000
20
-34.154700
11
-320.505000
21
-34.003900
0
LINE
8
0
10
-320.505000
20
-34.003900
11
-319.902000
21
-33.596500
0
LINE
8
0
10
-319.902000
20
-33.596500
11
-319.495000
21
-32.993200
0
LINE
8
0
10
-319.495000
20
-32.993200
11
-319.346000
21
-32.252400
0
LINE
8
0
10
-319.346000
20
-32.252400
11
-319.346000
21
-32.252400
0
LINE
8
0
10
-319.346000
20
-114.255000
11
-319.600000
21
-113.305000
0
LINE
8
0
10
-319.600000
20
-113.305000
11
-320.296000
21
-112.609000
0
LINE
8
0
10
-320.296000
20
-112.609000
11
-321.246000
21
-112.352000
0
LINE
8
0
10
-321.246000
20
-112.352000
11
-322.196000
21
-112.609000
0
LINE
8
0
10
-322.196000
20
-112.609000
11
-322.892000
21
-113.305000
0
LINE
8
0
10
-322.892000
20
-113.305000
11
-323.146000
21
-114.255000
0
LINE
8
0
10
-323.146000
20
-114.255000
11
-322.995000
21
-114.993000
0
LINE
8
0
10
-322.995000
20
-114.993000
11
-322.590000
21
-115.596000
0
LINE
8
0
10
-322.590000
20
-115.596000
11
-321.984000
21
-116.003000
0
LINE
8
0
10
-321.984000
20
-116.003000
11
-321.246000
21
-116.154000
0
LINE
8
0
10
-321.246000
20
-116.154000
11
-320.505000
21
-116.003000
0
LINE
8
0
10
-320.505000
20
-116.003000
11
-319.902000
21
-115.596000
0
LINE
8
0
10
-319.902000
20
-115.596000
11
-319.495000
21
-114.993000
0
LINE
8
0
10
-319.495000
20
-114.993000
11
-319.346000
21
-114.255000
0
LINE
8
0
10
-319.346000
20
-114.255000
11
-319.346000
21
-114.255000
0
LINE
8
0
10
-505.346000
20
-114.255000
11
-505.600000
21
-113.305000
0
LINE
8
0
10
-505.600000
20
-113.305000
11
-506.295000
21
-112.609000
0
LINE
8
0
10
-506.295000
20
-112.609000
11
-507.245000
21
-112.352000
0
LINE
8
0
10
-507.245000
20
-112.352000
11
-508.195000
21
-112.609000
0
LINE
8
0
10
-508.195000
20
-112.609000
11
-508.891000
21
-113.305000
0
LINE
8
0
10
-508.891000
20
-113.305000
11
-509.145000
21
-114.255000
0
LINE
8
0
10
-509.145000
20
-114.255000
11
-508.997000
21
-114.993000
0
LINE
8
0
10
-508.997000
20
-114.993000
11
-508.589000
21
-115.596000
0
LINE
8
0
10
-508.589000
20
-115.596000
11
-507.986000
21
-116.003000
0
LINE
8
0
10
-507.986000
20
-116.003000
11
-507.245000
21
-116.154000
0
LINE
8
0
10
-507.245000
20
-116.154000
11
-506.507000
21
-116.003000
0
LINE
8
0
10
-506.507000
20
-116.003000
11
-505.901000
21
-115.596000
0
LINE
8
0
10
-505.901000
20
-115.596000
11
-505.494000
21
-114.993000
0
LINE
8
0
10
-505.494000
20
-114.993000
11
-505.346000
21
-114.255000
0
LINE
8
0
10
-505.346000
20
-114.255000
11
-505.346000
21
-114.255000
0
LINE
8
Layer 1
10
0.793749
20
297.794000
11
-0.793749
21
296.206000
0
LINE
8
Layer 1
10
0.000000
20
298.323000
11
0.000000
21
295.677000
0
LINE
8
Layer 1
10
2.116660
20
295.942000
11
1.058330
21
294.884000
0
LINE
8
Layer 1
10
1.587500
20
296.471000
11
0.529169
21
295.413000
0
LINE
8
Layer 1
10
1.058330
20
297.000000
11
0.000000
21
295.942000
 0 
ENDSEC
 0 
EOF