0
SECTION
2
HEADER
9
$INSUNITS
70
4
9
$ACADVER
1
AC1014
9
$HANDSEED
5
FFFF
0
ENDSEC
0
SECTION
2
TABLES
0
TABLE
2
VPORT
5
8
100
AcDbSymbolTable
0
ENDTAB
0
TABLE
2
LTYPE
5
5
100
AcDbSymbolTable
0
LTYPE
5
14
100
AcDbSymbolTableRecord
100
AcDbLinetypeTableRecord
2
BYBLOCK
70
0
0
LTYPE
5
15
100
AcDbSymbolTableRecord
100
AcDbLinetypeTableRecord
2
BYLAYER
70
0
0
ENDTAB
0
TABLE
2
LAYER
5
2
100
AcDbSymbolTable
70
2
0
LAYER
5
50
100
AcDbSymbolTableRecord
100
AcDbLayerTableRecord
2
0
70
0
6
CONTINUOUS
0
ENDTAB
0
TABLE
2
STYLE
5
3
100
AcDbSymbolTable
70
1
0
STYLE
5
11
100
AcDbSymbolTableRecord
100
AcDbTextStyleTableRecord
2
STANDARD
70
0
0
ENDTAB
0
TABLE
2
VIEW
5
6
100
AcDbSymbolTable
70
0
0
ENDTAB
0
TABLE
2
UCS
5
7
100
AcDbSymbolTable
70
0
0
ENDTAB
0
TABLE
2
APPID
5
9
100
AcDbSymbolTable
70
2
0
APPID
5
12
100
AcDbSymbolTableRecord
100
AcDbRegAppTableRecord
2
ACAD
70
0
0
ENDTAB
0
TABLE
2
DIMSTYLE
5
A
100
AcDbSymbolTable
70
1
0
ENDTAB
0
TABLE
2
BLOCK_RECORD
5
1
100
AcDbSymbolTable
70
1
0
BLOCK_RECORD
5
1F
100
AcDbSymbolTableRecord
100
AcDbBlockTableRecord
2
*MODEL_SPACE
0
BLOCK_RECORD
5
1B
100
AcDbSymbolTableRecord
100
AcDbBlockTableRecord
2
*PAPER_SPACE
0
ENDTAB
0
ENDSEC
0
SECTION
2
BLOCKS
0
BLOCK
5
20
100
AcDbEntity
100
AcDbBlockBegin
2
*MODEL_SPACE
0
ENDBLK
5
21
100
AcDbEntity
100
AcDbBlockEnd
0
BLOCK
5
1C
100
AcDbEntity
100
AcDbBlockBegin
2
*PAPER_SPACE
0
ENDBLK
5
1D
100
AcDbEntity
100
AcDbBlockEnd
0
ENDSEC
0
SECTION
2
ENTITIES
0
LWPOLYLINE
5
100
100
AcDbEntity
8
0
100
AcDbPolyline
90
2
70
1
43
0.0
10
-244.98052536080283
20
195.90400615788653
42
0.99996508404645834
10
-244.99598301841661
20
191.58603382841409
42
0.99996538744594887
0
LWPOLYLINE
5
101
100
AcDbEntity
8
0
100
AcDbPolyline
90
2
70
1
43
0.0
10
-244.97859502304752
20
150.18554245713432
42
0.99996417949673655
10
-244.99388381315492
20
145.86756952658314
42
0.99996553080763217
0
ARC
5
102
100
AcDbEntity
8
0
100
AcDbCircle
10
-230.00000121696414
20
170.88644883191662
30
0
40
19.050000000000011
210
0
220
-0
230
1
100
AcDbArc
50
89.999999999995893
51
270.00000000000409
0
LINE
5
103
100
AcDbEntity
8
0
100
AcDbLine
10
-230.00000121696277
20
151.83644883191661
30
0
11
-230.00000121696277
21
139.96345100418384
31
-3.4379985397648247e-16
0
ARC
5
104
100
AcDbEntity
8
0
100
AcDbCircle
10
-230.0000012169628
20
136.78845100418386
30
0
40
3.1749999999999901
210
1.2116534877469122e-30
220
1.0828341857527041e-16
230
1
100
AcDbArc
50
89.999999999999503
51
269.99999999999898
0
LINE
5
105
100
AcDbEntity
8
0
100
AcDbLine
10
-230.00000121696286
20
133.61345100418387
30
0
11
-230.00000121696277
21
95.249996474397847
31
-1.8997665951953141e-21
0
LINE
5
106
100
AcDbEntity
8
0
100
AcDbLine
10
-500.00000121696274
20
95.249996474458229
30
0
11
-230.00000121696277
21
95.249996474397847
31
-1.8997665951953141e-21
0
LINE
5
107
100
AcDbEntity
8
0
100
AcDbLine
10
-500.00000121696274
20
219.70708044547095
30
0
11
-500.00000121696274
21
95.249996474458229
31
0
0
ARC
5
108
100
AcDbEntity
8
0
100
AcDbCircle
10
-502.53981085039015
20
219.67598751242889
30
0
40
2.5399999497117776
210
0
220
-0
230
1
100
AcDbArc
50
0.70139305787140549
51
76.318255989203706
0
CIRCLE
5
109
100
AcDbEntity
8
0
100
AcDbCircle
10
-475.23400000000009
20
147.32000000000164
30
0
40
2.1589999999999776
210
0
220
-0
230
1
0
CIRCLE
5
110
100
AcDbEntity
8
0
100
AcDbCircle
10
-413.82949999999994
20
147.32000000000164
30
0
40
2.1589999999999776
210
0
220
-0
230
1
0
CIRCLE
5
111
100
AcDbEntity
8
0
100
AcDbCircle
10
-321.81800000000015
20
134.62000000000072
30
0
40
6.0324999999999918
210
0
220
-0
230
1
0
CIRCLE
5
112
100
AcDbEntity
8
0
100
AcDbCircle
10
-373.6145043361978
20
166.88916522778484
30
0
40
1.5874999999999773
210
0
220
-0
230
1
0
CIRCLE
5
113
100
AcDbEntity
8
0
100
AcDbCircle
10
-413.82949999999994
20
121.92000000000164
30
0
40
2.1589999999999776
210
0
220
-0
230
1
0
CIRCLE
5
114
100
AcDbEntity
8
0
100
AcDbCircle
10
-424.05300000000011
20
134.62000000000072
30
0
40
6.0325000000000273
210
0
220
-0
230
1
0
CIRCLE
5
115
100
AcDbEntity
8
0
100
AcDbCircle
10
-444.50000000000011
20
134.62000000000072
30
0
40
6.0325000000000273
210
0
220
-0
230
1
0
CIRCLE
5
116
100
AcDbEntity
8
0
100
AcDbCircle
10
-420.76084897181079
20
166.88916522778484
30
0
40
1.5874999999999773
210
0
220
-0
230
1
0
CIRCLE
5
117
100
AcDbEntity
8
0
100
AcDbCircle
10
-475.23400000000009
20
121.92000000000162
30
0
40
2.1589999999999776
210
0
220
-0
230
1
0
CIRCLE
5
118
100
AcDbEntity
8
0
100
AcDbCircle
10
-403.60600000000011
20
134.62000000000072
30
0
40
6.0325000000000273
210
0
220
-0
230
1
0
CIRCLE
5
119
100
AcDbEntity
8
0
100
AcDbCircle
10
-437.11450433619774
20
166.88916522778484
30
0
40
1.5874999999999773
210
0
220
-0
230
1
0
CIRCLE
5
120
100
AcDbEntity
8
0
100
AcDbCircle
10
-478.58159830664431
20
334.39957426699902
30
0
40
2.1590000000000487
210
0
220
-0
230
1
0
CIRCLE
5
121
100
AcDbEntity
8
0
100
AcDbCircle
10
-366.37280387021474
20
101.99868862462424
30
0
40
2.1590000000000487
210
0
220
-0
230
1
0
CIRCLE
5
122
100
AcDbEntity
8
0
100
AcDbCircle
10
-342.26500000000016
20
134.62000000000072
30
0
40
6.0325000000000273
210
0
220
-0
230
1
0
CIRCLE
5
123
100
AcDbEntity
8
0
100
AcDbCircle
10
-464.94700000000012
20
134.62000000000072
30
0
40
6.0325000000000273
210
0
220
-0
230
1
0
CIRCLE
5
124
100
AcDbEntity
8
0
100
AcDbCircle
10
-437.11450433619774
20
285.7905098633978
30
0
40
1.5874999999999773
210
0
220
-0
230
1
0
CIRCLE
5
125
100
AcDbEntity
8
0
100
AcDbCircle
10
-484.26084897181067
20
214.03550986339781
30
0
40
1.5874999999999773
210
0
220
-0
230
1
0
CIRCLE
5
126
100
AcDbEntity
8
0
100
AcDbCircle
10
-493.73989833098449
20
117.37952187196768
30
0
40
2.1590000000000487
210
0
220
-0
230
1
0
CIRCLE
5
127
100
AcDbEntity
8
0
100
AcDbCircle
10
-362.71200000000016
20
134.62000000000072
30
0
40
6.0325000000000273
210
0
220
-0
230
1
0
CIRCLE
5
128
100
AcDbEntity
8
0
100
AcDbCircle
10
-373.6145043361978
20
214.03550986339781
30
0
40
1.5874999999999773
210
0
220
-0
230
1
0
CIRCLE
5
129
100
AcDbEntity
8
0
100
AcDbCircle
10
-420.76084897181079
20
214.03550986339781
30
0
40
1.5874999999999773
210
0
220
-0
230
1
0
CIRCLE
5
130
100
AcDbEntity
8
0
100
AcDbCircle
10
-332.04149999999993
20
147.32000000000164
30
0
40
2.1589999999999776
210
0
220
-0
230
1
0
CIRCLE
5
131
100
AcDbEntity
8
0
100
AcDbCircle
10
-484.26084897181067
20
166.88916522778484
30
0
40
1.5874999999999773
210
0
220
-0
230
1
0
CIRCLE
5
132
100
AcDbEntity
8
0
100
AcDbCircle
10
-397.18767665400424
20
262.21733754559136
30
0
40
28.575000000000017
210
0
220
-0
230
1
0
CIRCLE
5
133
100
AcDbEntity
8
0
100
AcDbCircle
10
-437.11450433619774
20
214.03550986339781
30
0
40
1.5874999999999773
210
0
220
-0
230
1
0
CIRCLE
5
134
100
AcDbEntity
8
0
100
AcDbCircle
10
-484.26084897181067
20
285.7905098633978
30
0
40
1.5874999999999773
210
0
220
-0
230
1
0
CIRCLE
5
135
100
AcDbEntity
8
0
100
AcDbCircle
10
-383.15900000000011
20
134.62000000000072
30
0
40
6.0325000000000273
210
0
220
-0
230
1
0
CIRCLE
5
136
100
AcDbEntity
8
0
100
AcDbCircle
10
-369.60530519359025
20
398.87704302756276
30
0
40
2.1590000000000487
210
0
220
-0
230
1
0
CIRCLE
5
137
100
AcDbEntity
8
0
100
AcDbCircle
10
-420.76084897181079
20
310.39916522778481
30
0
40
1.5874999999999773
210
0
220
-0
230
1
0
CIRCLE
5
138
100
AcDbEntity
8
0
100
AcDbCircle
10
-301.37100000000021
20
134.62000000000072
30
0
40
6.0324999999999918
210
0
220
-0
230
1
0
CIRCLE
5
139
100
AcDbEntity
8
0
100
AcDbCircle
10
-484.26084897181067
20
238.64416522778484
30
0
40
1.5874999999999773
210
0
220
-0
230
1
0
CIRCLE
5
140
100
AcDbEntity
8
0
100
AcDbCircle
10
-397.18767665400424
20
333.97233754559136
30
0
40
28.575000000000017
210
0
220
-0
230
1
0
CIRCLE
5
141
100
AcDbEntity
8
0
100
AcDbCircle
10
-280.92400000000021
20
134.62000000000072
30
0
40
6.0324999999999918
210
0
220
-0
230
1
0
CIRCLE
5
142
100
AcDbEntity
8
0
100
AcDbCircle
10
-270.5100000000001
20
121.92000000000162
30
0
40
2.1590000000000131
210
0
220
-0
230
1
0
CIRCLE
5
143
100
AcDbEntity
8
0
100
AcDbCircle
10
-238.10280387021481
20
101.99868862462424
30
0
40
2.1590000000000131
210
0
220
-0
230
1
0
CIRCLE
5
144
100
AcDbEntity
8
0
100
AcDbCircle
10
-270.5100000000001
20
147.32000000000164
30
0
40
2.1590000000000131
210
0
220
-0
230
1
0
CIRCLE
5
145
100
AcDbEntity
8
0
100
AcDbCircle
10
-420.76084897181079
20
238.64416522778484
30
0
40
1.5874999999999773
210
0
220
-0
230
1
0
CIRCLE
5
146
100
AcDbEntity
8
0
100
AcDbCircle
10
-437.11450433619774
20
238.64416522778484
30
0
40
1.5874999999999773
210
0
220
-0
230
1
0
CIRCLE
5
147
100
AcDbEntity
8
0
100
AcDbCircle
10
-460.68767665400412
20
262.21733754559136
30
0
40
28.575000000000017
210
0
220
-0
230
1
0
CIRCLE
5
148
100
AcDbEntity
8
0
100
AcDbCircle
10
-332.04149999999993
20
121.92000000000164
30
0
40
2.1589999999999776
210
0
220
-0
230
1
0
CIRCLE
5
149
100
AcDbEntity
8
0
100
AcDbCircle
10
-373.6145043361978
20
285.7905098633978
30
0
40
1.5874999999999773
210
0
220
-0
230
1
0
CIRCLE
5
150
100
AcDbEntity
8
0
100
AcDbCircle
10
-373.6145043361978
20
238.64416522778484
30
0
40
1.5874999999999773
210
0
220
-0
230
1
0
CIRCLE
5
151
100
AcDbEntity
8
0
100
AcDbCircle
10
-499.99999736379033
20
230.10916720084097
30
0
40
1.9050000000000011
210
0
220
-0
230
1
0
CIRCLE
5
152
100
AcDbEntity
8
0
100
AcDbCircle
10
-373.6145043361978
20
357.5455098633978
30
0
40
1.5874999999999773
210
0
220
-0
230
1
0
CIRCLE
5
153
100
AcDbEntity
8
0
100
AcDbCircle
10
-373.6145043361978
20
310.39916522778481
30
0
40
1.5874999999999773
210
0
220
-0
230
1
0
CIRCLE
5
154
100
AcDbEntity
8
0
100
AcDbCircle
10
-420.76084897181079
20
285.7905098633978
30
0
40
1.5874999999999773
210
0
220
-0
230
1
0
CIRCLE
5
155
100
AcDbEntity
8
0
100
AcDbCircle
10
-397.18767665400424
20
190.4623375455914
30
0
40
28.575000000000017
210
0
220
-0
230
1
0
CIRCLE
5
156
100
AcDbEntity
8
0
100
AcDbCircle
10
-420.76084897181079
20
357.5455098633978
30
0
40
1.5874999999999773
210
0
220
-0
230
1
0
CIRCLE
5
157
100
AcDbEntity
8
0
100
AcDbCircle
10
-460.68767665400412
20
190.4623375455914
30
0
40
28.575000000000017
210
0
220
-0
230
1
0
LINE
5
158
100
AcDbEntity
8
0
100
AcDbLine
10
-230.00000121696277
20
204.97615257643034
30
0
11
-230.00000121696277
21
189.93644883191664
31
0
0
ARC
5
159
100
AcDbEntity
8
0
100
AcDbCircle
10
-499.99999736379033
20
230.10916720084097
30
0
40
8.1978742767578314
210
0
220
0
230
1
100
AcDbArc
50
103.6273738048309
51
256.31825598920102
0
ARC
5
160
100
AcDbEntity
8
0
100
AcDbCircle
10
-502.52990980552619
20
240.54475458607357
30
0
40
2.5399998628321625
210
-0
220
0
230
1
100
AcDbArc
50
283.62737380483026
51
354.89124816377489
0
LINE
5
161
100
AcDbEntity
8
0
100
AcDbLine
10
-500.00000121696274
20
294.7029664605451
30
0
11
-500.00000121696274
21
240.3185766420448
31
1.1696843705586489e-18
0
SPLINE
5
162
100
AcDbEntity
8
0
100
AcDbSpline
70
4
71
5
72
15
73
9
74
0
42
0.000000001
43
0.0000000001
44
0.0000000001
40
0
40
0
40
0
40
0
40
0
40
0
40
0.20000000000000001
40
0.40000000000000002
40
0.60000000000000009
40
0.74737463238483759
40
0.74737463238483759
40
0.74737463238483759
40
0.74737463238483759
40
0.74737463238483759
40
0.74737463238483759
41
1
41
1
41
1
41
1
41
1
41
1
41
1
41
1
41
1
10
-500.00000121696274
20
294.7029664605451
30
0
10
-500.00000121696274
20
298.7946873611333
30
0
10
-498.89416856835823
20
308.02336726797427
30
0
10
-493.91832516352349
20
324.99854147364556
30
0
10
-480.2906810330623
20
350.59052716407484
30
0
10
-449.46563613607202
20
376.70909532319979
30
0
10
-410.98852179576681
20
393.17750579511534
30
0
10
-378.1063105470015
20
401.81315231533284
30
0
10
-362.48532277322056
20
405.09936910919458
30
0
0
LINE
5
163
100
AcDbEntity
8
0
100
AcDbLine
10
-362.4853227732205
20
205.33721789578905
30
0
11
-362.4853227732205
21
405.09937777753663
31
3.8902427240922161e-17
0
LINE
5
164
100
AcDbEntity
8
0
100
AcDbLine
10
-362.4853227732205
20
205.33721789578905
30
0
11
-230.00000121696277
21
204.97615257643034
31
0
0
LWPOLYLINE
5
165
100
AcDbEntity
8
0
100
AcDbPolyline
90
4
70
1
43
0.0
10
-197.14886866823576
20
316.39953999575238
10
-201.91606335561019
20
311.47857205878927
42
0.99999999999999989
10
-199.75091133441089
20
309.38107799031411
10
-194.98371666267033
20
314.30204591115512
42
0.99999999999999989
0
LWPOLYLINE
5
166
100
AcDbEntity
8
0
100
AcDbPolyline
90
8
70
1
43
0.0
10
-262.74098239521959
20
376.44294123417552
10
-264.77785620309083
20
374.34036490626653
42
0.99999999999999989
10
-262.61270419752543
20
372.24287082166927
10
-260.57583038963372
20
374.34544714959253
42
0.16101791073005511
10
-259.88238331803763
20
375.06126243071429
10
-257.84550951015098
20
377.16383875863238
42
1.0000000074505806
10
-260.01066153135218
20
379.26133282710953
10
-262.04753532359069
20
377.15875651533361
42
0.16101791073837873
0
LWPOLYLINE
5
167
100
AcDbEntity
8
0
100
AcDbPolyline
90
8
70
1
43
0.0
10
-199.86162693532489
20
379.21827517892109
42
1.0000000074505806
10
-201.95912101992036
20
377.05312317335398
10
-199.85654469200895
20
375.01624936547375
42
0.16101791073358801
10
-199.14072941087227
20
374.32280229386316
10
-197.03815308295901
20
372.28592848598117
42
0.9999999925494194
10
-194.94065899835044
20
374.45108049155499
10
-197.04323532626771
20
376.4879542994305
42
0.16101791073495633
10
-197.75905060741138
20
377.18140137104541
0
LWPOLYLINE
5
168
100
AcDbEntity
8
0
100
AcDbPolyline
90
8
70
1
43
0.0
10
-161.99498644659744
20
211.32907768802252
10
-159.00615838836458
20
214.06419324882708
42
-0.19891236737965293
10
-156.60671242832268
20
214.44857911308679
42
5.1066282631453275
10
-177.93754358660357
20
235.79657424814832
42
-0.1989123673796723
10
-178.32385927782124
20
233.39743823813905
10
-181.06137796409479
20
230.41081108783405
42
0.1989123673796476
10
-182.33384735895569
20
224.48041075975618
42
0.10465496970723176
10
-167.92640834426069
20
210.06137871584991
42
0.19891236737965592
0
LWPOLYLINE
5
169
100
AcDbEntity
8
0
100
AcDbPolyline
90
8
70
1
43
0.0
10
-255.82440315844315
20
221.16587345049393
42
0.36840487410456357
10
-203.91721099143498
20
221.16601651712415
10
-200.68489759016271
20
217.93373875127014
42
1.0000000074505806
10
-196.19479428108303
20
222.42389156312305
10
-199.42710768235548
20
225.65616932897672
42
2.1665698574394696
10
-260.314531218978
20
225.65600151102871
10
-263.54685143752806
20
222.42368129247839
42
0.99999999999999989
10
-259.05672337699372
20
217.93355323194365
0
LINE
5
170
100
AcDbEntity
8
0
100
AcDbLine
10
-287.61212057023505
20
216.78516124314541
30
0
11
-282.84492588287048
21
221.70612918011784
31
4.7533400261146791e-17
0
ARC
5
171
100
AcDbEntity
8
0
100
AcDbCircle
10
-283.92750188565469
20
222.75487622241499
30
0
40
1.5072628040694349
210
-5.501198100709477e-17
220
5.3292934836648034e-17
230
1
100
AcDbArc
50
-44.090661585821174
51
135.90933841417882
0
LWPOLYLINE
5
172
100
AcDbEntity
8
0
100
AcDbPolyline
90
8
70
1
43
0.0
10
-132.29578950881302
20
387.48303263021467
42
0.41421356237455514
10
-128.33338950881296
20
391.44543263023451
10
-128.33338950887477
20
403.84063263023438
42
0.41421356237163492
10
-132.29578950887483
20
407.80303263021466
10
-200.5709895087148
20
407.80303263021466
42
0.41421356236956558
10
-204.53338950876915
20
403.84063263020806
10
-204.5333895089185
20
391.44543263000526
42
0.41421356237662449
10
-200.57098950917575
20
387.48303263021478
0
ARC
5
173
100
AcDbEntity
8
0
100
AcDbCircle
10
-345.87039321695454
20
285.49921160316433
30
0
40
1.5072628040762703
210
8.8529879629032618e-33
220
-8.576344679456787e-33
230
1
100
AcDbArc
50
-44.090661585819952
51
135.90933841418465
0
LINE
5
174
100
AcDbEntity
8
0
100
AcDbLine
10
-346.95296921974375
20
286.54795864546611
30
1.8578448437961987e-32
11
-351.72016390710826
21
281.62699070849357
31
-4.7533400261155543e-17
0
LINE
5
175
100
AcDbEntity
8
0
100
AcDbLine
10
-289.4196082153959
20
283.93902695085586
30
0
11
-284.49864027843256
21
279.17183226348186
31
-2.2481493267009586e-16
0
ARC
5
176
100
AcDbEntity
8
0
100
AcDbCircle
10
-283.44989323613072
20
280.2544082662709
30
0
40
1.5072628040761682
210
-1.0378102122500929e-16
220
-1.0712863883414818e-16
230
1
100
AcDbArc
50
-134.09066158582141
51
45.909338414178592
0
LINE
5
177
100
AcDbEntity
8
0
100
AcDbLine
10
-282.40114619382888
20
281.33698426905994
30
-1.8578448437960725e-32
11
-287.32211413080148
21
286.10417895642468
31
2.8701696000764666e-17
0
ARC
5
178
100
AcDbEntity
8
0
100
AcDbCircle
10
-346.19422861688008
20
218.31151693497105
30
0
40
1.507262804069438
210
0
220
0
230
1
100
AcDbArc
50
-134.09066158581354
51
45.909338414186472
0
LINE
5
179
100
AcDbEntity
8
0
100
AcDbLine
10
-345.14548157458307
20
219.3940929377554
30
0
11
-350.06644951154612
21
224.16128762512969
31
2.8701696001922073e-17
0
LWPOLYLINE
5
180
100
AcDbEntity
8
0
100
AcDbPolyline
90
8
70
1
43
0.0
10
-156.60671242832268
20
307.15857911308683
42
0.19891236737965262
10
-159.00615838836458
20
306.77419324882709
10
-161.99498644659744
20
304.03907768802253
42
-0.19891236737965592
10
-167.92640834426066
20
302.77137871584995
42
-0.1046549697072318
10
-182.33384735895567
20
317.19041075975622
42
-0.19891236737964577
10
-181.06137796409479
20
323.120811087834
10
-178.32385927782124
20
326.10743823813903
42
0.19891236737967663
10
-177.93754358660351
20
328.50657424814835
42
-5.1066282631453275
0
LWPOLYLINE
5
181
100
AcDbEntity
8
0
100
AcDbPolyline
90
8
70
1
43
0.0
10
-259.89994593043627
20
309.42413563850056
42
0.99999999999999989
10
-257.80245184584084
20
311.58928764406772
10
-259.90502817375204
20
313.62616145194772
42
0.16101791073368291
10
-260.62084345488915
20
314.31960852355866
10
-262.72341978280218
20
316.35648233144042
42
0.9999999925494194
10
-264.82091386741075
20
314.19133032586683
10
-262.7183375394934
20
312.15445651799115
42
0.1610179107348973
10
-262.00252225835004
20
311.46100944637641
0
LINE
5
182
100
AcDbEntity
8
0
100
AcDbLine
10
-362.4853227732205
20
205.33721789578905
30
0
11
-362.4853227732205
21
405.09937777753663
31
3.8902427240922161e-17
0
SPLINE
5
183
100
AcDbEntity
8
0
100
AcDbSpline
70
4
71
5
72
13
73
7
74
0
42
0.000000001
43
0.0000000001
44
0.0000000001
40
0.74737463238483759
40
0.74737463238483759
40
0.74737463238483759
40
0.74737463238483759
40
0.74737463238483759
40
0.74737463238483759
40
0.80000000000000004
40
1
40
1
40
1
40
1
40
1
40
1
41
1
41
1
41
1
41
1
41
1
41
1
41
1
10
-362.48532277322056
20
405.09936910919458
30
0
10
-356.90729207143363
20
406.27282999619786
30
0
10
-329.1076462352371
20
411.67491096234187
30
0
10
-296.24462457873938
20
415.91461240467049
30
0
10
-257.59493769395584
20
418.74753553329799
30
0
10
-212.58888403438974
20
419.99999647445702
30
0
10
-172.97063134853883
20
419.99999647445713
30
0
0
CIRCLE
5
184
100
AcDbEntity
8
0
100
AcDbCircle
10
-114.69253007849179
20
393.65237384925683
30
0
40
3.1750000000000078
210
0
220
-0
230
1
0
CIRCLE
5
185
100
AcDbEntity
8
0
100
AcDbCircle
10
-114.69253007849179
20
400.50120912036266
30
0
40
1.5000000000000036
210
0
220
-0
230
1
0
CIRCLE
5
186
100
AcDbEntity
8
0
100
AcDbCircle
10
-109.56966058792145
20
282.67560144823534
30
0
40
2.1589999999999954
210
0
220
-0
230
1
0
CIRCLE
5
187
100
AcDbEntity
8
0
100
AcDbCircle
10
-231.31928814069934
20
408.94550981774529
30
0
40
2.1589999999999776
210
0
220
-0
230
1
0
CIRCLE
5
188
100
AcDbEntity
8
0
100
AcDbCircle
10
-172.43145343540544
20
375.38560144824032
30
0
40
1.5875000000000128
210
0
220
-0
230
1
0
CIRCLE
5
189
100
AcDbEntity
8
0
100
AcDbCircle
10
-172.43145343540544
20
282.67560144824029
30
0
40
1.5875000000000128
210
0
220
-0
230
1
0
CIRCLE
5
190
100
AcDbEntity
8
0
100
AcDbCircle
10
-274.47278350985027
20
210.66754632959373
30
0
40
2.1589999999999776
210
0
220
-0
230
1
0
CIRCLE
5
191
100
AcDbEntity
8
0
100
AcDbCircle
10
-229.8807864328806
20
344.32120540871085
30
0
40
40.004999999999988
210
0
220
-0
230
1
0
LINE
5
192
100
AcDbEntity
8
0
100
AcDbLine
10
-285.0100778884389
20
223.80362326471214
30
-3.7156896875755468e-32
11
-289.77727257581324
21
218.88265532774909
31
-4.7533400259980756e-17
0
ARC
5
193
100
AcDbEntity
8
0
100
AcDbCircle
10
-288.69469657302415
20
217.83390828544725
30
0
40
1.5072628040762193
210
1.539370719339468e-16
220
-1.491267573596693e-16
230
1
100
AcDbArc
50
135.9093384141801
51
315.90933841418013
0
CIRCLE
5
194
100
AcDbEntity
8
0
100
AcDbCircle
10
-198.43998132908047
20
283.04041382898572
30
0
40
2.1589709177664673
210
0
220
-0
230
1
0
CIRCLE
5
195
100
AcDbEntity
8
0
100
AcDbCircle
10
-109.56966058792145
20
219.8138086007512
30
0
40
2.1589999999999954
210
0
220
-0
230
1
0
CIRCLE
5
196
100
AcDbEntity
8
0
100
AcDbCircle
10
-102.59053433394951
20
410.60598656613422
30
0
40
2.1589999999999954
210
0
220
-0
230
1
0
ARC
5
197
100
AcDbEntity
8
0
100
AcDbCircle
10
-350.63758790432405
20
280.57824366619639
30
0
40
1.5072628040694349
210
-5.5011981007159043e-17
220
5.3292934836710299e-17
230
1
100
AcDbArc
50
135.90933841417808
51
315.90933841417962
0
LINE
5
198
100
AcDbEntity
8
0
100
AcDbLine
10
-349.55501190153984
20
279.52949662389926
30
1.8578448437877734e-32
11
-344.78781721416539
21
284.45046456086243
31
4.7533400259993822e-17
0
ARC
5
199
100
AcDbEntity
8
0
100
AcDbCircle
10
-288.3708611730986
20
285.02160295364035
30
0
40
1.5072628040695371
210
-5.162760641428689e-17
220
-5.3292934836679428e-17
230
1
100
AcDbArc
50
45.909338414182621
51
225.90933841418106
0
CIRCLE
5
200
100
AcDbEntity
8
0
100
AcDbCircle
10
-109.56966058792145
20
375.38560144823532
30
0
40
2.1589999999999954
210
0
220
-0
230
1
0
ARC
5
201
100
AcDbEntity
8
0
100
AcDbCircle
10
-351.1151965538478
20
223.07871162234065
30
0
40
1.5072628040760694
210
-1.0378102122500883e-16
220
-1.0712863883416223e-16
230
1
100
AcDbArc
50
45.909338414183246
51
225.90933841418166
0
LINE
5
202
100
AcDbEntity
8
0
100
AcDbLine
10
-352.16394359614952
20
221.99613561955161
30
-2.2752037412671263e-48
11
-347.24297565917709
21
217.2289409321867
31
-2.8701696000769103e-17
0
CIRCLE
5
203
100
AcDbEntity
8
0
100
AcDbCircle
10
-125.15838950919363
20
397.64303263036282
30
0
40
1.587499999999995
210
0
220
-0
230
1
0
CIRCLE
5
204
100
AcDbEntity
8
0
100
AcDbCircle
10
-285.85164847124742
20
374.53745636804769
30
0
40
1.5875000000000128
210
0
220
-0
230
1
0
CIRCLE
5
205
100
AcDbEntity
8
0
100
AcDbCircle
10
-285.85164847124742
20
311.67566352056383
30
0
40
1.5875000000000128
210
0
220
-0
230
1
0
CIRCLE
5
206
100
AcDbEntity
8
0
100
AcDbCircle
10
-109.56966058792145
20
312.52380860075118
30
0
40
2.1589999999999954
210
0
220
-0
230
1
0
CIRCLE
5
207
100
AcDbEntity
8
0
100
AcDbCircle
10
-261.30177475963387
20
283.04041419975522
30
0
40
2.1589709177664673
210
0
220
-0
230
1
0
CIRCLE
5
208
100
AcDbEntity
8
0
100
AcDbCircle
10
-348.71344131873116
20
374.53745636805263
30
0
40
1.5874999999999773
210
0
220
-0
230
1
0
CIRCLE
5
209
100
AcDbEntity
8
0
100
AcDbCircle
10
-317.46271475089054
20
342.92639008840439
30
0
40
40.004999999999988
210
0
220
-0
230
1
0
CIRCLE
5
210
100
AcDbEntity
8
0
100
AcDbCircle
10
-102.59053433394951
20
297.62460487739617
30
0
40
2.1589999999999954
210
0
220
-0
230
1
0
CIRCLE
5
211
100
AcDbEntity
8
0
100
AcDbCircle
10
-357.37640135382918
20
297.81299569337079
30
0
40
2.1589999999999776
210
0
220
-0
230
1
0
CIRCLE
5
212
100
AcDbEntity
8
0
100
AcDbCircle
10
-266.40088192642156
20
227.46087893594026
30
0
40
2.1589709177664673
210
0
220
-0
230
1
0
CIRCLE
5
213
100
AcDbEntity
8
0
100
AcDbCircle
10
-102.59053433394951
20
210.66754632959373
30
0
40
2.1589999999999954
210
0
220
-0
230
1
0
CIRCLE
5
214
100
AcDbEntity
8
0
100
AcDbCircle
10
-357.37640135382918
20
399.64045396343892
30
0
40
2.1589999999999776
210
0
220
-0
230
1
0
CIRCLE
5
215
100
AcDbEntity
8
0
100
AcDbCircle
10
-357.37640135382918
20
210.66754632959373
30
0
40
2.1589999999999776
210
0
220
-0
230
1
0
CIRCLE
5
216
100
AcDbEntity
8
0
100
AcDbCircle
10
-186.0566910837166
20
210.66754632959373
30
0
40
2.1590000000000131
210
0
220
-0
230
1
0
CIRCLE
5
217
100
AcDbEntity
8
0
100
AcDbCircle
10
-207.7083895086989
20
397.64303263001494
30
0
40
2.1590000000000131
210
0
220
-0
230
1
0
LINE
5
218
100
AcDbEntity
8
0
100
AcDbLine
10
-97.514679660703109
20
419.99999647445736
30
0
11
-172.97063134853883
21
419.99999647445713
31
0
0
LINE
5
219
100
AcDbEntity
8
0
100
AcDbLine
10
-97.51467966070453
20
204.61508725707162
30
0
11
-97.514679660703109
21
419.99999647445736
31
0
0
LINE
5
220
100
AcDbEntity
8
0
100
AcDbLine
10
-362.4853227732205
20
205.33721789578905
30
0
11
-97.51467966070453
21
204.61508725707162
31
0
0
CIRCLE
5
221
100
AcDbEntity
8
0
100
AcDbCircle
10
-83.283441318731207
20
374.53745636805252
30
0
40
1.587499999999995
210
0
220
-0
230
1
0
CIRCLE
5
222
100
AcDbEntity
8
0
100
AcDbCircle
10
-114.91280387021487
20
101.99868862462424
30
0
40
2.1590000000000131
210
0
220
-0
230
1
0
LWPOLYLINE
5
223
100
AcDbEntity
8
0
100
AcDbPolyline
90
4
70
1
43
0.0
10
-85.528505348998749
20
313.92072755083137
42
0.99999999999999989
10
-81.038377288464076
20
309.43059949029686
10
-77.986226925815572
20
312.48274985294597
42
25.160254774490294
10
-82.476354986349321
20
316.97287791347992
0
CIRCLE
5
224
100
AcDbEntity
8
0
100
AcDbCircle
10
-5.6928038702148953
20
204.86868862462416
30
0
40
2.1590000000000211
210
0
220
-0
230
1
0
CIRCLE
5
225
100
AcDbEntity
8
0
100
AcDbCircle
10
-75.205403423715495
20
397.6796814643987
30
0
40
2.1590000000000131
210
0
220
-0
230
1
0
CIRCLE
5
226
100
AcDbEntity
8
0
100
AcDbCircle
10
-11.705403423715488
20
397.67968146439853
30
0
40
2.1590000000000131
210
0
220
-0
230
1
0
CIRCLE
5
227
100
AcDbEntity
8
0
100
AcDbCircle
10
-5.6928038702148953
20
411.87868862462409
30
0
40
2.1590000000000211
210
0
220
-0
230
1
0
CIRCLE
5
228
100
AcDbEntity
8
0
100
AcDbCircle
10
-20.421648471247558
20
374.53745636804751
30
0
40
1.5874999999999995
210
0
220
-0
230
1
0
CIRCLE
5
229
100
AcDbEntity
8
0
100
AcDbCircle
10
-5.6928038702148953
20
297.57868862462419
30
0
40
2.1590000000000211
210
0
220
-0
230
1
0
LWPOLYLINE
5
230
100
AcDbEntity
8
0
100
AcDbPolyline
90
8
70
1
43
0.0
10
-18.842803423822652
20
387.5196814644309
42
0.41421356237301099
10
-14.880403423835098
20
391.48208146441959
10
-14.880403423835098
20
403.87728146442385
42
0.41421356237309503
10
-18.842803423835086
20
407.83968146442385
10
-68.068003423789804
20
407.8396814644239
42
0.41421356237952373
10
-72.030403423817575
20
403.87728146430914
10
-72.030403423545806
20
391.48208146440834
42
0.41421356236675039
10
-68.068003423466166
20
387.51968146441686
0
CIRCLE
5
231
100
AcDbEntity
8
0
100
AcDbCircle
10
-20.421648471247522
20
216.42566352056392
30
0
40
1.5874999999999995
210
0
220
-0
230
1
0
CIRCLE
5
232
100
AcDbEntity
8
0
100
AcDbCircle
10
-20.421648471247558
20
279.28745636804751
30
0
40
1.5874999999999995
210
0
220
-0
230
1
0
CIRCLE
5
233
100
AcDbEntity
8
0
100
AcDbCircle
10
-83.283441318731207
20
279.28745636805246
30
0
40
1.587499999999995
210
0
220
-0
230
1
0
LWPOLYLINE
5
234
100
AcDbEntity
8
0
100
AcDbPolyline
90
4
70
1
43
0.0
10
-77.986226925815544
20
217.23274985294597
42
25.160254774490436
10
-82.476354986349293
20
221.72287791347983
10
-85.528505348998721
20
218.67072755083129
42
0.9999999925494194
10
-81.038377288464076
20
214.1805994902968
0
CIRCLE
5
235
100
AcDbEntity
8
0
100
AcDbCircle
10
-20.421648471247522
20
121.175663520564
30
0
40
1.5874999999999995
210
0
220
-0
230
1
0
CIRCLE
5
236
100
AcDbEntity
8
0
100
AcDbCircle
10
-20.421648471247558
20
184.03745636804757
30
0
40
1.5874999999999995
210
0
220
-0
230
1
0
CIRCLE
5
237
100
AcDbEntity
8
0
100
AcDbCircle
10
-83.283441318731207
20
184.03745636805255
30
0
40
1.587499999999995
210
0
220
-0
230
1
0
LWPOLYLINE
5
238
100
AcDbEntity
8
0
100
AcDbPolyline
90
4
70
1
43
0.0
10
-77.986226925815544
20
121.98274985294606
42
25.160254774490436
10
-82.476354986349293
20
126.47287791347992
10
-85.528505348998721
20
123.42072755083137
42
0.9999999925494194
10
-81.038377288464076
20
118.93059949029688
0
CIRCLE
5
239
100
AcDbEntity
8
0
100
AcDbCircle
10
-140.93271475089057
20
152.42639008840439
30
0
40
40.004999999999988
210
0
220
-0
230
1
0
CIRCLE
5
240
100
AcDbEntity
8
0
100
AcDbCircle
10
-172.18344131873121
20
184.03745636805255
30
0
40
1.5875000000000128
210
0
220
-0
230
1
0
CIRCLE
5
241
100
AcDbEntity
8
0
100
AcDbCircle
10
-109.32164847124756
20
184.03745636804757
30
0
40
1.587499999999995
210
0
220
-0
230
1
0
CIRCLE
5
242
100
AcDbEntity
8
0
100
AcDbCircle
10
-172.18344131873141
20
121.17566352056414
30
0
40
1.5875000000000128
210
0
220
-0
230
1
0
LWPOLYLINE
5
243
100
AcDbEntity
8
0
100
AcDbPolyline
90
2
70
1
43
0.0
10
-215.01188139095689
20
145.8688774023023
42
1.0000352276754663
10
-215.01191726999255
20
150.18687739947404
42
1.000035227735349
0
CIRCLE
5
244
100
AcDbEntity
8
0
100
AcDbCircle
10
-89.512803870214867
20
411.87868862462409
30
0
40
2.1590000000000131
210
0
220
-0
230
1
0
CIRCLE
5
245
100
AcDbEntity
8
0
100
AcDbCircle
10
-20.421648471247522
20
311.67566352056394
30
0
40
1.5874999999999995
210
0
220
-0
230
1
0
CIRCLE
5
246
100
AcDbEntity
8
0
100
AcDbCircle
10
-5.6928038702148953
20
101.99868862462424
30
0
40
2.1590000000000211
210
0
220
-0
230
1
0
CIRCLE
5
247
100
AcDbEntity
8
0
100
AcDbCircle
10
-224.13280387021484
20
101.99868862462424
30
0
40
2.1590000000000131
210
0
220
-0
230
1
0
CIRCLE
5
248
100
AcDbEntity
8
0
100
AcDbCircle
10
-109.3216484712475
20
121.175663520564
30
0
40
1.587499999999995
210
0
220
-0
230
1
0
LWPOLYLINE
5
249
100
AcDbEntity
8
0
100
AcDbPolyline
90
2
70
1
43
0.0
10
-215.00614566118796
20
191.5873556578187
42
1.0000346514492995
10
-215.02168466660316
20
195.90532769535255
42
1.0000348794595051
0
LINE
5
250
100
AcDbEntity
8
0
100
AcDbLine
10
-230.00000121696277
20
204.97615257643034
30
0
11
-230.00000121696277
21
189.93644883191664
31
-1.7649796814657922e-16
0
LINE
5
251
100
AcDbEntity
8
0
100
AcDbLine
10
-230.00000121696277
20
204.97615257643034
30
0
11
-97.51467966070453
21
204.61508725707162
31
-4.4217748763581059e-17
0
LINE
5
252
100
AcDbEntity
8
0
100
AcDbLine
10
-97.51467966070453
20
204.61508725707162
30
-4.4217748763581059e-17
11
-97.514679660703109
21
419.99999647445736
31
-2.683086252323267e-16
0
LINE
5
253
100
AcDbEntity
8
0
100
AcDbLine
10
4.420038113623372
20
419.99999647445753
30
0
11
-97.514679660703109
21
419.99999647445736
31
-2.683086252323267e-16
0
LINE
5
254
100
AcDbEntity
8
0
100
AcDbLine
10
4.420038113623372
20
419.99999647445753
30
0
11
4.4200381136250444
21
95.249996474556653
31
1.9761469779379942e-16
0
LINE
5
255
100
AcDbEntity
8
0
100
AcDbLine
10
-230.00000121696274
20
95.24999647424184
30
0
11
4.4200381136250444
21
95.249996474556653
31
1.9761469779379942e-16
0
LINE
5
256
100
AcDbEntity
8
0
100
AcDbLine
10
-230.00000121696277
20
133.61345100418387
30
0
11
-230.00000121696277
21
95.249996474397847
31
-2.5727718975147157e-16
0
ARC
5
257
100
AcDbEntity
8
0
100
AcDbCircle
10
-230.00000121696274
20
136.78845100418386
30
0
40
3.1749999999999901
210
0
220
0
230
1
100
AcDbArc
50
-90.000000000000512
51
89.999999999999503
0
LINE
5
258
100
AcDbEntity
8
0
100
AcDbLine
10
-230.00000121696277
20
151.83644883191661
30
0
11
-230.00000121696272
21
139.96345100418384
31
0
0
ARC
5
259
100
AcDbEntity
8
0
100
AcDbCircle
10
-230.00000121696414
20
170.88644883191662
30
0
40
19.050000000000011
210
-0
220
0
230
1
100
AcDbArc
50
-89.999999999995936
51
89.999999999995893
0
CIRCLE
5
260
100
AcDbEntity
8
0
100
AcDbCircle
10
177.18719612978506
20
297.57868862462419
30
0
40
2.1590000000000131
210
0
220
-0
230
1
0
CIRCLE
5
261
100
AcDbEntity
8
0
100
AcDbCircle
10
390.06394070844931
20
302.59181950551579
30
0
40
2.1589999999999776
210
0
220
-0
230
1
0
CIRCLE
5
262
100
AcDbEntity
8
0
100
AcDbCircle
10
434.06394070844942
20
302.5918195055155
30
0
40
2.1589999999999776
210
0
220
-0
230
1
0
CIRCLE
5
263
100
AcDbEntity
8
0
100
AcDbCircle
10
493.55314672922077
20
297.8903830489898
30
0
40
2.1590000000000487
210
0
220
-0
230
1
0
CIRCLE
5
264
100
AcDbEntity
8
0
100
AcDbCircle
10
214.66276834863893
20
193.51229814488249
30
0
40
2.1590000000000131
210
0
220
-0
230
1
0
CIRCLE
5
265
100
AcDbEntity
8
0
100
AcDbCircle
10
388.1564658852584
20
393.29915611482147
30
0
40
2.1590000000000487
210
0
220
-0
230
1
0
CIRCLE
5
266
100
AcDbEntity
8
0
100
AcDbCircle
10
493.55314672922077
20
115.01038304898984
30
0
40
2.1590000000000487
210
0
220
-0
230
1
0
CIRCLE
5
267
100
AcDbEntity
8
0
100
AcDbCircle
10
245.33724203479107
20
148.26060240242296
30
0
40
2.1590000000000131
210
0
220
-0
230
1
0
CIRCLE
5
268
100
AcDbEntity
8
0
100
AcDbCircle
10
177.18719612978506
20
178.19868862462414
30
0
40
2.1590000000000131
210
0
220
-0
230
1
0
CIRCLE
5
269
100
AcDbEntity
8
0
100
AcDbCircle
10
175.28632230878236
20
409.91341122322922
30
0
40
2.1590000000000131
210
0
220
-0
230
1
0
CIRCLE
5
270
100
AcDbEntity
8
0
100
AcDbCircle
10
282.24058956915826
20
407.31743386254067
30
0
40
2.1590000000000131
210
0
220
-0
230
1
0
CIRCLE
5
271
100
AcDbEntity
8
0
100
AcDbCircle
10
398.16534645519454
20
131.31765854468875
30
0
40
2.1590000000000487
210
0
220
-0
230
1
0
CIRCLE
5
272
100
AcDbEntity
8
0
100
AcDbCircle
10
244.63355805732732
20
193.97365069202118
30
0
40
2.1590000000000131
210
0
220
-0
230
1
0
CIRCLE
5
273
100
AcDbEntity
8
0
100
AcDbCircle
10
408.32719612978497
20
101.99868862462424
30
0
40
2.1590000000000487
210
0
220
-0
230
1
0
CIRCLE
5
274
100
AcDbEntity
8
0
100
AcDbCircle
10
239.41719612978505
20
101.99868862462424
30
0
40
2.1590000000000131
210
0
220
-0
230
1
0
CIRCLE
5
275
100
AcDbEntity
8
0
100
AcDbCircle
10
473.8573464551946
20
131.31765854468875
30
0
40
2.1590000000000487
210
0
220
-0
230
1
0
CIRCLE
5
276
100
AcDbEntity
8
0
100
AcDbCircle
10
324.50719612978503
20
101.99868862462424
30
0
40
2.1590000000000487
210
0
220
-0
230
1
0
LWPOLYLINE
5
277
100
AcDbEntity
8
0
100
AcDbPolyline
90
4
70
1
43
0.0
10
394.06394070844942
20
313.96681950551567
10
394.06394070844942
20
291.21681950551562
10
430.06394070844965
20
291.21681950551533
10
430.06394070844948
20
313.96681950551567
0
LINE
5
278
100
AcDbEntity
8
0
100
AcDbLine
10
164.44003811362396
20
170.88644883131181
30
0
11
210.95000616942869
21
170.88644883130829
31
-4.3073112406797448e-28
0
LINE
5
279
100
AcDbEntity
8
0
100
AcDbLine
10
164.4400381136239
20
419.99999647445713
30
0
11
164.44003811362396
21
170.88644883131181
31
0
0
LINE
5
280
100
AcDbEntity
8
0
100
AcDbLine
10
164.4400381136239
20
419.99999647445713
30
0
11
172.97063867335052
21
419.99999647445981
31
-6.0022526682611295e-23
0
LINE
5
281
100
AcDbEntity
8
0
100
AcDbLine
10
500.00000616942862
20
294.70296646054504
30
0
11
500.0000066072206
21
240.31857673700358
31
1.1696959996601516e-18
0
LINE
5
282
100
AcDbEntity
8
0
100
AcDbLine
10
500.00000677314222
20
219.70708046905509
30
0
11
500.00000777501617
21
95.249996474458214
31
-2.5358971932614032e-16
0
LINE
5
283
100
AcDbEntity
8
0
100
AcDbLine
10
500.00000854177443
20
95.249996474458229
30
0
11
230.00000616943794
21
95.249996474511846
31
1.8997657852315307e-21
0
LINE
5
284
100
AcDbEntity
8
0
100
AcDbLine
10
230.0000061694287
20
133.61345100418393
30
-5.5511151231257827e-16
11
230.00000616943794
21
95.249996474511846
31
1.8997657852315307e-21
0
ARC
5
285
100
AcDbEntity
8
0
100
AcDbCircle
10
230.00000617533263
20
136.78845100418391
30
0
40
3.1749999999999901
210
-3.25113011570547e-25
220
-1.7483827159451339e-16
230
1
100
AcDbArc
50
-90.000000106541762
51
89.999999893457698
0
LINE
5
286
100
AcDbEntity
8
0
100
AcDbLine
10
230.0000061694287
20
151.83644883130683
30
-5.5511151231257827e-16
11
230.0000061694287
21
139.96345100418392
31
-3.4379985390179633e-16
0
ARC
5
287
100
AcDbEntity
8
0
100
AcDbCircle
10
230.0000061694287
20
170.88644883130684
30
0
40
19.050000000000011
210
0
220
-2.9139711932418788e-17
230
1
100
AcDbArc
50
-90
51
180
0
LINE
5
288
100
AcDbEntity
8
0
100
AcDbLine
10
230.00000616943794
20
95.249996474511846
30
0
11
164.44003811362393
21
95.249996474524892
31
4.6129105056489215e-22
0
LINE
5
289
100
AcDbEntity
8
0
100
AcDbLine
10
164.4400381136239
20
170.88644883131181
30
0
11
164.44003811362393
21
95.249996474524892
31
4.6129105056489215e-22
0
LINE
5
290
100
AcDbEntity
8
0
100
AcDbLine
10
164.4400381136239
20
170.88644883131181
30
0
11
210.95000616942869
21
170.88644883130829
31
-4.3073112406797448e-28
0
CIRCLE
5
291
100
AcDbEntity
8
0
100
AcDbCircle
10
215.36645428153005
20
147.79924697059246
30
0
40
2.1590000000000131
210
0
220
-0
230
1
0
CIRCLE
5
292
100
AcDbEntity
8
0
100
AcDbCircle
10
177.18719612978506
20
162.95868862462413
30
0
40
2.1590000000000131
210
0
220
-0
230
1
0
CIRCLE
5
293
100
AcDbEntity
8
0
100
AcDbCircle
10
224.17719612978505
20
101.99868862462424
30
0
40
2.1590000000000131
210
0
220
-0
230
1
0
CIRCLE
5
294
100
AcDbEntity
8
0
100
AcDbCircle
10
177.18719612978506
20
101.99868862462424
30
0
40
2.1590000000000131
210
0
220
-0
230
1
0
ARC
5
295
100
AcDbEntity
8
0
100
AcDbCircle
10
230.0000061694287
20
170.88644883130684
30
0
40
19.050000000000011
210
-2.2610557693856913e-29
220
1.728862121666775e-42
230
1
100
AcDbArc
50
180
51
270
0
LINE
5
296
100
AcDbEntity
8
0
100
AcDbLine
10
230.0000061694287
20
151.83644883130683
30
0
11
230.0000061694287
21
139.96345100418392
31
-3.4379985390179633e-16
0
ARC
5
297
100
AcDbEntity
8
0
100
AcDbCircle
10
230.00000617533263
20
136.78845100418391
30
0
40
3.1749999999999901
210
-2.0135378820352809e-25
220
1.0828341855174722e-16
230
1
100
AcDbArc
50
90.000000106541776
51
270.0000001065423
0
LINE
5
298
100
AcDbEntity
8
0
100
AcDbLine
10
230.0000061694287
20
133.61345100418393
30
-5.5511151231257827e-16
11
230.00000616943794
21
95.249996474511846
31
0
0
LWPOLYLINE
5
299
100
AcDbEntity
8
0
100
AcDbPolyline
90
4
70
1
43
0.0
10
4.420038113623372
20
419.99999647445753
10
4.4200381136234768
20
398.8195700417279
10
164.4400381136239
20
398.81957004173057
10
164.4400381136239
20
419.99999647445713
0
LWPOLYLINE
5
300
100
AcDbEntity
8
0
100
AcDbPolyline
90
8
70
1
43
0.0
10
303.15000625319499
20
88.89999647445822
42
0.41421356623681971
10
296.80000625319508
20
82.549996390691774
10
296.8000070908605
20
19.049996390773671
42
0.41421355850936886
10
303.15000709094244
20
12.699996474458233
10
455.55000616941476
20
12.699996474458228
42
0.41421356237309498
10
461.90000616942859
20
19.04999647447206
10
461.90000616942859
20
82.549996474458396
42
0.41421356237309503
10
455.5500061694288
20
88.89999647445822
0
LWPOLYLINE
5
301
100
AcDbEntity
8
0
100
AcDbPolyline
90
12
70
1
43
0.0
10
171.4864803966413
20
66.055637133023168
10
154.9321347957044
20
66.055637133023168
10
154.9321347957044
20
27.055637133023254
10
176.08648039664129
20
27.055637133023254
10
176.08648039664129
20
23.277930669115818
10
183.74148039664138
20
23.277930669115818
10
183.74148039664138
20
29.486930669115736
10
190.74148039664138
20
29.486930669115736
10
190.74148039664138
20
63.486930669115793
10
183.74148039664135
20
63.486930669115793
10
183.74148039664135
20
69.695930669115853
10
171.48648039664124
20
69.695930669115853
0
LINE
5
302
100
AcDbEntity
8
0
100
AcDbLine
10
-130.43000121696309
20
-3.5255417665362312e-06
30
0
11
-107.8843333016911
21
-3.5255417662118307e-06
31
0
0
LINE
5
303
100
AcDbEntity
8
0
100
AcDbLine
10
-130.43000121696309
20
-3.5255417665362312e-06
30
0
11
-130.43000121694146
21
95.249996474375564
31
7.4217563632487824e-18
0
LINE
5
304
100
AcDbEntity
8
0
100
AcDbLine
10
-130.43000121694146
20
95.249996474375564
30
7.4217563632487824e-18
11
500.00000854177443
21
95.249996475222218
31
-4.4356933956363565e-21
0
CIRCLE
5
305
100
AcDbEntity
8
0
100
AcDbCircle
10
491.99900917050695
20
85.217005802065103
30
0
40
2.1589999999999776
210
0
220
-0
230
1
0
CIRCLE
5
306
100
AcDbEntity
8
0
100
AcDbCircle
10
270.72956208170814
20
71.119996474503765
30
0
40
3.9999999999999858
210
0
220
-0
230
1
0
CIRCLE
5
307
100
AcDbEntity
8
0
100
AcDbCircle
10
-121.87020121699825
20
8.0136964743870625
30
0
40
2.1590000000000131
210
0
220
-0
230
1
0
CIRCLE
5
308
100
AcDbEntity
8
0
100
AcDbCircle
10
154.89128441160187
20
19.842404016366828
30
0
40
1.9050000000000011
210
0
220
-0
230
1
0
CIRCLE
5
309
100
AcDbEntity
8
0
100
AcDbCircle
10
191.72128441160214
20
19.842404016366828
30
0
40
1.9050000000000011
210
0
220
-0
230
1
0
CIRCLE
5
310
100
AcDbEntity
8
0
100
AcDbCircle
10
191.72128441160191
20
70.642404016366811
30
0
40
1.9050000000000011
210
0
220
-0
230
1
0
CIRCLE
5
311
100
AcDbEntity
8
0
100
AcDbCircle
10
-121.87020121696315
20
85.229696474387069
30
0
40
2.1590000000000131
210
0
220
-0
230
1
0
CIRCLE
5
312
100
AcDbEntity
8
0
100
AcDbCircle
10
270.7295620817082
20
34.543996474458226
30
0
40
3.9999999999999858
210
0
220
-0
230
1
0
CIRCLE
5
313
100
AcDbEntity
8
0
100
AcDbCircle
10
491.57983129552412
20
8.0136964743870625
30
0
40
2.1589999999999776
210
0
220
-0
230
1
0
CIRCLE
5
314
100
AcDbEntity
8
0
100
AcDbCircle
10
154.89128441160216
20
70.642404016366811
30
0
40
1.9050000000000011
210
0
220
-0
230
1
0
CIRCLE
5
315
100
AcDbEntity
8
0
100
AcDbCircle
10
47.493725458942997
20
11.441427369692434
30
0
40
1.2699999999999978
210
0
220
-0
230
1
0
CIRCLE
5
316
100
AcDbEntity
8
0
100
AcDbCircle
10
-0.13143627773256839
20
56.924313774703705
30
0
40
6.9850000000000012
210
0
220
-0
230
1
0
CIRCLE
5
317
100
AcDbEntity
8
0
100
AcDbCircle
10
11.085365458942782
20
11.441427369692434
30
0
40
1.27
210
0
220
-0
230
1
0
CIRCLE
5
318
100
AcDbEntity
8
0
100
AcDbCircle
10
-58.04000121696312
20
56.199996474458217
30
0
40
5
210
0
220
-0
230
1
0
CIRCLE
5
319
100
AcDbEntity
8
0
100
AcDbCircle
10
29.289545458940616
20
11.441427369692434
30
0
40
3.9999999999999991
210
0
220
-0
230
1
0
CIRCLE
5
320
100
AcDbEntity
8
0
100
AcDbCircle
10
-58.040000041592599
20
11.74999647445825
30
0
40
5
210
0
220
-0
230
1
0
CIRCLE
5
321
100
AcDbEntity
8
0
100
AcDbCircle
10
57.289022922262198
20
56.924313774703705
30
0
40
9.5249999999999968
210
0
220
-0
230
1
0
LINE
5
322
100
AcDbEntity
8
0
100
AcDbLine
10
500.00000777501617
20
95.249996474458214
30
0
11
500.00000854177449
21
-3.5255417785151622e-06
31
-7.4217563733757843e-18
0
LINE
5
323
100
AcDbEntity
8
0
100
AcDbLine
10
500.00000854177449
20
-3.5255417785151622e-06
30
-7.4217563733757843e-18
11
107.88433490868556
21
-3.5255417794238506e-06
31
-1.6180057894611038e-30
0
SPLINE
5
324
100
AcDbEntity
8
0
100
AcDbSpline
70
4
71
5
72
16
73
10
74
0
42
0.000000001
43
0.0000000001
44
0.0000000001
40
0
40
0
40
0
40
0
40
0
40
0
40
0.20000000000000001
40
0.40000000000000002
40
0.60000000000000009
40
0.80000000000000004
40
1
40
1
40
1
40
1
40
1
40
1
41
1
41
1
41
1
41
1
41
1
41
1
41
1
41
1
41
1
41
1
10
107.88433490868553
20
-3.5255417794238506e-06
30
0
10
106.62726622162231
20
0.061760079903803874
30
0
10
104.08482982735651
20
-0.24596236611582473
30
0
10
100.1863090959494
20
-1.9999601205309636
30
0
10
94.802624730147173
20
-6.4188390866876253
30
0
10
87.588656829455601
20
-13.202608487433656
30
0
10
81.170345193431189
20
-17.707294240166501
30
0
10
75.805388036752831
20
-19.582910862547244
30
0
10
71.944205031088529
20
-20.000003525541782
30
0
10
69.942413076192651
20
-20.000003525541782
30
0
0
LINE
5
325
100
AcDbEntity
8
0
100
AcDbLine
10
69.942413076192651
20
-20.000003525541782
30
0
11
-69.94240575138096
21
-20.000003525541747
31
0
0
SPLINE
5
326
100
AcDbEntity
8
0
100
AcDbSpline
70
4
71
5
72
16
73
10
74
0
42
0.000000001
43
0.0000000001
44
0.0000000001
40
0
40
0
40
0
40
0
40
0
40
0
40
0.20000000000000001
40
0.40000000000000002
40
0.60000000000000009
40
0.80000000000000004
40
1
40
1
40
1
40
1
40
1
40
1
41
1
41
1
41
1
41
1
41
1
41
1
41
1
41
1
41
1
41
1
10
-107.8843333016911
20
-3.5255417662118307e-06
30
0
10
-106.627264169699
20
0.06176142967792863
30
0
10
-104.08482696272242
20
-0.2459588160207693
30
0
10
-100.18630524346854
20
-1.9999547661889092
30
0
10
-94.802619947616691
20
-6.4188338196278769
30
0
10
-87.588651231943771
20
-13.20260548150168
30
0
10
-81.170338994136301
20
-17.707293196727719
30
0
10
-75.805381314882339
20
-19.582910672705076
30
0
10
-71.944197914919641
20
-20.000003525541747
30
0
10
-69.94240575138096
20
-20.000003525541747
30
0
0
CIRCLE
5
327
100
AcDbEntity
8
0
100
AcDbCircle
10
379.35000625319498
20
63.499996474458328
30
0
40
3.4925000000000006
210
0
220
-0
230
1
0
LWPOLYLINE
5
328
100
AcDbEntity
8
0
100
AcDbPolyline
90
8
70
1
43
0.0
10
303.15000625319493
20
88.89999647445832
10
455.55000625319497
20
88.899996474458305
42
-0.41421356237309503
10
461.90000625319493
20
82.549996474458311
10
461.90000625319493
20
19.049996474458322
42
-0.41421356237309503
10
455.55000625319497
20
12.699996474458324
10
303.15000625319493
20
12.699996474458306
42
-0.41421356237309342
10
296.80000625319497
20
19.049996474458322
10
296.80000625319497
20
82.549996474458311
42
-0.41421356237309503
0
CIRCLE
5
329
100
AcDbEntity
8
0
100
AcDbCircle
10
-253.6291021970967
20
26.724654782883874
30
0
40
5.9181999999999846
210
0
220
-0
230
1
0
CIRCLE
5
330
100
AcDbEntity
8
0
100
AcDbCircle
10
-213.6224048956484
20
67.378395881761847
30
0
40
5.9181999999999846
210
0
220
-0
230
1
0
CIRCLE
5
331
100
AcDbEntity
8
0
100
AcDbCircle
10
-274.49773822898175
20
67.378395881761847
30
0
40
5.9181999999999846
210
0
220
-0
230
1
0
CIRCLE
5
332
100
AcDbEntity
8
0
100
AcDbCircle
10
-294.78951600675953
20
67.378395881761847
30
0
40
5.9181999999999846
210
0
220
-0
230
1
0
CIRCLE
5
333
100
AcDbEntity
8
0
100
AcDbCircle
10
-335.37307156231509
20
67.378395881761847
30
0
40
5.9181999999999846
210
0
220
-0
230
1
0
CIRCLE
5
334
100
AcDbEntity
8
0
100
AcDbCircle
10
-234.08461607540761
20
8.0069883712221923
30
0
40
2.1590000000000131
210
0
220
-0
230
1
0
CIRCLE
5
335
100
AcDbEntity
8
0
100
AcDbCircle
10
-375.95662711787065
20
67.378395881761847
30
0
40
5.9181999999999846
210
0
220
-0
230
1
0
CIRCLE
5
336
100
AcDbEntity
8
0
100
AcDbCircle
10
-140.35861607540761
20
8.0069883712221923
30
0
40
2.1590000000000131
210
0
220
-0
230
1
0
CIRCLE
5
337
100
AcDbEntity
8
0
100
AcDbCircle
10
-355.66484934009287
20
67.378395881761847
30
0
40
5.9181999999999846
210
0
220
-0
230
1
0
LWPOLYLINE
5
338
100
AcDbEntity
8
0
100
AcDbPolyline
90
4
70
1
43
0.0
10
-456.73478421179573
20
41.146575219493293
10
-449.93197938069841
20
37.218974019014745
42
0.64386322643811045
10
-441.29287938069837
20
52.182334150682991
10
-448.09568421179586
20
56.109935351161653
42
0.64386322643810601
0
CIRCLE
5
339
100
AcDbEntity
8
0
100
AcDbCircle
10
-193.33062711787062
20
67.378395881761847
30
0
40
5.9181999999999846
210
0
220
-0
230
1
0
CIRCLE
5
340
100
AcDbEntity
8
0
100
AcDbCircle
10
-315.08129378453731
20
67.378395881761847
30
0
40
5.9181999999999846
210
0
220
-0
230
1
0
CIRCLE
5
341
100
AcDbEntity
8
0
100
AcDbCircle
10
-464.36598369910178
20
85.191314084976284
30
0
40
2.1589999999999776
210
0
220
-0
230
1
0
CIRCLE
5
342
100
AcDbEntity
8
0
100
AcDbCircle
10
-425.24998369910179
20
85.191314084976284
30
0
40
2.1589999999999776
210
0
220
-0
230
1
0
CIRCLE
5
343
100
AcDbEntity
8
0
100
AcDbCircle
10
-464.36598369910178
20
7.9753140849762616
30
0
40
2.1589999999999776
210
0
220
-0
230
1
0
CIRCLE
5
344
100
AcDbEntity
8
0
100
AcDbCircle
10
-140.35861607540761
20
85.222988371222215
30
0
40
2.1590000000000131
210
0
220
-0
230
1
0
CIRCLE
5
345
100
AcDbEntity
8
0
100
AcDbCircle
10
-254.20596045092174
20
67.378395881761847
30
0
40
5.9181999999999846
210
0
220
-0
230
1
0
CIRCLE
5
346
100
AcDbEntity
8
0
100
AcDbCircle
10
-425.24998369910179
20
7.9753140849762616
30
0
40
2.1589999999999776
210
0
220
-0
230
1
0
LWPOLYLINE
5
347
100
AcDbEntity
8
0
100
AcDbPolyline
90
4
70
1
43
0.0
10
-222.93957938764271
20
28.805771112710872
10
-222.93957938764268
20
64.873771112710898
10
-243.98957938764266
20
64.873771112710898
10
-243.98957938764269
20
28.805771112710978
0
CIRCLE
5
348
100
AcDbEntity
8
0
100
AcDbCircle
10
-234.08461607540761
20
85.222988371222215
30
0
40
2.1590000000000131
210
0
220
-0
230
1
0
LWPOLYLINE
5
349
100
AcDbEntity
8
0
100
AcDbPolyline
90
4
70
1
43
0.0
10
-388.22806903038895
20
28.592396712377521
10
-388.22806903038907
20
64.660396712377505
10
-409.27806903038908
20
64.660396712377491
10
-409.27806903038936
20
28.592396712377628
0
CIRCLE
5
350
100
AcDbEntity
8
0
100
AcDbCircle
10
-375.54910219709666
20
26.724654782883874
30
0
40
5.9181999999999846
210
0
220
-0
230
1
0
CIRCLE
5
351
100
AcDbEntity
8
0
100
AcDbCircle
10
-355.22910219709672
20
26.724654782883874
30
0
40
5.9181999999999846
210
0
220
-0
230
1
0
CIRCLE
5
352
100
AcDbEntity
8
0
100
AcDbCircle
10
-334.90910219709667
20
26.724654782883874
30
0
40
5.9181999999999846
210
0
220
-0
230
1
0
CIRCLE
5
353
100
AcDbEntity
8
0
100
AcDbCircle
10
-314.58910219709668
20
26.724654782883874
30
0
40
5.9181999999999846
210
0
220
-0
230
1
0
CIRCLE
5
354
100
AcDbEntity
8
0
100
AcDbCircle
10
-294.26910219709669
20
26.724654782883874
30
0
40
5.9181999999999846
210
0
220
-0
230
1
0
CIRCLE
5
355
100
AcDbEntity
8
0
100
AcDbCircle
10
-273.94910219709669
20
26.724654782883874
30
0
40
5.9181999999999846
210
0
220
-0
230
1
0
LWPOLYLINE
5
356
100
AcDbEntity
8
0
100
AcDbPolyline
90
4
70
1
43
0.0
10
-130.43000121696247
20
95.249996474452274
10
-130.43000121696247
20
-3.525547676019869e-06
10
-473.33000121696307
20
-3.5255478184958103e-06
10
-473.33000121696244
20
95.249996474452274
0
LINE
5
357
100
AcDbEntity
8
0
100
AcDbLine
10
-473.33000121696244
20
95.250005802064663
30
0
11
-473.33000121696318
21
-3.5255417785151622e-06
31
-7.4228986759785199e-18
0
LINE
5
358
100
AcDbEntity
8
0
100
AcDbLine
10
-500.00000121696274
20
-3.525541771853824e-06
30
0
11
-473.33000121696318
21
-3.5255417785151622e-06
31
-7.4228986759785199e-18
0
LINE
5
359
100
AcDbEntity
8
0
100
AcDbLine
10
-500.00000121696274
20
95.249996474458243
30
0
11
-500.00000121696274
21
-3.525541771853824e-06
31
0
0
LINE
5
360
100
AcDbEntity
8
0
100
AcDbLine
10
-500.00000121696274
20
95.249996474458243
30
0
11
-473.33000121696244
21
95.24999647445226
31
-1.876547231231297e-22
0
SPLINE
5
361
100
AcDbEntity
8
0
100
AcDbSpline
70
0
71
3
72
14
73
10
74
0
42
0.000000001
43
0.0000000001
44
0.0000000001
40
0
40
0
40
0
40
0
40
1.5752636698781803
40
1.5752636698781803
40
3.8977800936823748
40
3.8977800936823748
40
6.3506917843147104
40
6.3506917843147104
40
9.5422772791417163
40
9.5422772791417163
40
9.5422772791417163
40
9.5422772791417163
10
-500.00000121696274
20
294.7029664605451
30
0
10
-500.00000121696274
20
299.95384536013898
30
0
10
-498.90738705091292
20
305.98977925375931
30
0
10
-494.32111115125406
20
321.04848545190947
30
0
10
-488.77814729956987
20
333.9533675253179
30
0
10
-466.26632015373394
20
361.20011029580974
30
0
10
-451.66305012392093
20
371.96246890076566
30
0
10
-414.67712396039934
20
391.44945890938493
30
0
10
-389.91849210071138
20
399.32820130224144
30
0
10
-362.48532277322056
20
405.09936910919458
30
0
0
SPLINE
5
362
100
AcDbEntity
8
0
100
AcDbSpline
70
0
71
3
72
10
73
6
74
0
42
0.000000001
43
0.0000000001
44
0.0000000001
40
0
40
0
40
0
40
0
40
7.9753263495488795
40
7.9753263495488795
40
18.802094878928436
40
18.802094878928436
40
18.802094878928436
40
18.802094878928436
10
-362.48532277322056
20
405.09936910919458
30
0
10
-336.47033359595105
20
410.57219167102807
30
0
10
-308.78801393423237
20
413.95978563643786
30
0
10
-246.53402368528225
20
419.02762162175202
30
0
10
-208.78546512543471
20
419.99999647445702
30
0
10
-172.97063134853883
20
419.99999647445713
30
0
0
SPLINE
5
363
100
AcDbEntity
8
0
100
AcDbSpline
70
0
71
3
72
18
73
14
74
0
42
0.000000001
43
0.0000000001
44
0.0000000001
40
0
40
0
40
0
40
0
40
0.37089867703505253
40
0.37089867703505253
40
0.87137629439801101
40
0.87137629439801101
40
1.9596972506872004
40
1.9596972506872004
40
2.7763354646412233
40
2.7763354646412233
40
3.1837294307305144
40
3.1837294307305144
40
3.6024704226650872
40
3.6024704226650872
40
3.6024704226650872
40
3.6024704226650872
10
107.88433490868553
20
-3.5255417797912448e-06
30
0
10
106.64949557217983
20
0.060667884344979897
30
0
10
105.44983216693971
20
-0.13130965455667959
30
0
10
102.68736472653964
20
-1.0161479125391899
30
0
10
101.12442717705804
20
-1.8658837974037044
30
0
10
96.163247131966244
20
-5.2178890325436793
30
0
10
92.725012099586792
20
-8.521400843735087
30
0
10
86.247384341068766
20
-13.893650550098622
30
0
10
83.360970683363774
20
-16.033045577763968
30
0
10
78.611472422851037
20
-18.343438901348883
30
0
10
76.981363663952209
20
-18.953396614622907
30
0
10
73.516232889651391
20
-19.796003738901128
30
0
10
71.749761546099961
20
-20.000003525541782
30
0
10
69.942413076192651
20
-20.000003525541782
30
0
0
SPLINE
5
364
100
AcDbEntity
8
0
100
AcDbSpline
70
0
71
3
72
18
73
14
74
0
42
0.000000001
43
0.0000000001
44
0.0000000001
40
0
40
0
40
0
40
0
40
0.91763919937646854
40
0.91763919937646854
40
1.9267464669746546
40
1.9267464669746546
40
3.392472474898911
40
3.392472474898911
40
4.0930173143905124
40
4.0930173143905124
40
4.4194647716838018
40
4.4194647716838018
40
4.7279089759304354
40
4.7279089759304354
40
4.7279089759304354
40
4.7279089759304354
10
-69.94240575138096
20
-20.000003525541747
30
0
10
-73.001203082635854
20
-20.000003525541747
30
0
10
-75.862889249236986
20
-19.415558719583444
30
0
10
-81.799397643069582
20
-16.967520428213206
30
0
10
-84.620256078847419
20
-15.080627809974681
30
0
10
-91.090927204216442
20
-10.016879565125997
30
0
10
-94.592540976143454
20
-6.6001869881181374
30
0
10
-99.719646052668196
20
-2.7487863960839332
30
0
10
-101.38076289365972
20
-1.6812850320601553
30
0
10
-103.84634114172071
20
-0.62681862190968718
30
0
10
-104.65803778143177
20
-0.35742671613963667
30
0
10
-106.28407199045698
20
-0.027947414483903962
30
0
10
-107.07904267046389
20
0.039563701518980463
30
0
10
-107.8843333016911
20
-3.5255417665792249e-06
30
0
0
LINE
5
365
100
AcDbEntity
8
0
100
AcDbLine
10
-107.88433330169107
20
-3.5255417666207918e-06
30
0
11
-130.43000121696309
21
-3.5255417669036254e-06
31
-3.7283265928810491e-39
0
LINE
5
366
100
AcDbEntity
8
0
100
AcDbLine
10
172.97063867335052
20
419.99999647445702
30
0
11
164.4400381136239
21
419.99999647445713
31
0
0
LWPOLYLINE
5
367
100
AcDbEntity
8
0
100
AcDbPolyline
90
4
70
1
43
0.0
10
394.06394070844942
20
313.96681950551567
10
430.06394070844948
20
313.96681950551567
10
430.06394070844965
20
291.21681950551533
10
394.06394070844942
20
291.21681950551562
0
CIRCLE
5
368
100
AcDbEntity
8
0
100
AcDbCircle
10
324.50719612978503
20
101.99868862462424
30
0
40
2.1590000000000487
210
0
220
0
230
1
0
CIRCLE
5
369
100
AcDbEntity
8
0
100
AcDbCircle
10
473.8573464551946
20
131.31765854468875
30
0
40
2.1590000000000487
210
0
220
0
230
1
0
CIRCLE
5
370
100
AcDbEntity
8
0
100
AcDbCircle
10
239.41719612978505
20
101.99868862462424
30
0
40
2.1590000000000131
210
0
220
0
230
1
0
CIRCLE
5
371
100
AcDbEntity
8
0
100
AcDbCircle
10
408.32719612978497
20
101.99868862462424
30
0
40
2.1590000000000487
210
0
220
0
230
1
0
CIRCLE
5
372
100
AcDbEntity
8
0
100
AcDbCircle
10
244.63355805732732
20
193.97365069202118
30
0
40
2.1590000000000131
210
0
220
0
230
1
0
CIRCLE
5
373
100
AcDbEntity
8
0
100
AcDbCircle
10
398.16534645519454
20
131.31765854468875
30
0
40
2.1590000000000487
210
0
220
0
230
1
0
CIRCLE
5
374
100
AcDbEntity
8
0
100
AcDbCircle
10
282.24058956915826
20
407.31743386254067
30
0
40
2.1590000000000131
210
0
220
0
230
1
0
CIRCLE
5
375
100
AcDbEntity
8
0
100
AcDbCircle
10
175.28632230878236
20
409.91341122322922
30
0
40
2.1590000000000131
210
0
220
0
230
1
0
CIRCLE
5
376
100
AcDbEntity
8
0
100
AcDbCircle
10
177.18719612978506
20
178.19868862462414
30
0
40
2.1590000000000131
210
0
220
0
230
1
0
CIRCLE
5
377
100
AcDbEntity
8
0
100
AcDbCircle
10
245.33724203479107
20
148.26060240242296
30
0
40
2.1590000000000131
210
0
220
0
230
1
0
CIRCLE
5
378
100
AcDbEntity
8
0
100
AcDbCircle
10
493.55314672922077
20
115.01038304898984
30
0
40
2.1590000000000487
210
0
220
0
230
1
0
CIRCLE
5
379
100
AcDbEntity
8
0
100
AcDbCircle
10
388.1564658852584
20
393.29915611482147
30
0
40
2.1590000000000487
210
0
220
0
230
1
0
CIRCLE
5
380
100
AcDbEntity
8
0
100
AcDbCircle
10
214.66276834863893
20
193.51229814488249
30
0
40
2.1590000000000131
210
0
220
0
230
1
0
CIRCLE
5
381
100
AcDbEntity
8
0
100
AcDbCircle
10
493.55314672922077
20
297.8903830489898
30
0
40
2.1590000000000487
210
0
220
0
230
1
0
CIRCLE
5
382
100
AcDbEntity
8
0
100
AcDbCircle
10
434.06394070844942
20
302.5918195055155
30
0
40
2.1589999999999772
210
0
220
2.4651903288156624e-32
230
1
0
CIRCLE
5
383
100
AcDbEntity
8
0
100
AcDbCircle
10
390.06394070844931
20
302.59181950551579
30
0
40
2.1589999999999772
210
0
220
2.4651903288156624e-32
230
1
0
CIRCLE
5
384
100
AcDbEntity
8
0
100
AcDbCircle
10
177.18719612978506
20
297.57868862462419
30
0
40
2.1590000000000131
210
0
220
0
230
1
0
ARC
5
385
100
AcDbEntity
8
0
100
AcDbCircle
10
230.00000616942867
20
170.88644883130684
30
5.7475132325822575e-46
40
19.050000000000011
210
-3.2838279269081979e-45
220
-2.4651903288156646e-32
230
1
100
AcDbArc
50
-89.999999999999901
51
180
0
LINE
5
386
100
AcDbEntity
8
0
100
AcDbLine
10
230.0000061694287
20
151.83644883130683
30
-4.6961875763938387e-31
11
230.0000061694287
21
139.96345100418392
31
0
0
ARC
5
387
100
AcDbEntity
8
0
100
AcDbCircle
10
230.00000617533263
20
136.78845100418391
30
3.8234205867178855e-56
40
3.1749999999999901
210
4.5917748078995626e-41
220
8.5384373164398681e-50
230
1
100
AcDbArc
50
-90.000000106541762
51
89.999999893457698
0
LINE
5
388
100
AcDbEntity
8
0
100
AcDbLine
10
230.0000061694287
20
133.61345100418393
30
5.4219082848028663e-49
11
230.00000616943794
21
95.249996474511846
31
0
0
LINE
5
389
100
AcDbEntity
8
0
100
AcDbLine
10
230.00000616943794
20
95.249996474511846
30
0
11
500.00000854177443
21
95.249996474458229
31
-4.4613755780033504e-38
0
LINE
5
390
100
AcDbEntity
8
0
100
AcDbLine
10
500.00000854177443
20
95.249996474458229
30
0
11
500.00000661548705
21
219.70708046905509
31
0
0
LINE
5
391
100
AcDbEntity
8
0
100
AcDbLine
10
172.97063867335052
20
419.99999647445702
30
0
11
164.4400381136239
21
419.99999647445713
31
0
0
LINE
5
392
100
AcDbEntity
8
0
100
AcDbLine
10
164.4400381136239
20
419.99999647445713
30
0
11
164.44003811362396
21
170.88644883131181
31
0
0
LINE
5
393
100
AcDbEntity
8
0
100
AcDbLine
10
164.44003811362396
20
170.88644883131181
30
0
11
210.95000616942866
21
170.88644883130829
31
-2.6066453008383361e-44
0
SPLINE
5
394
100
AcDbEntity
8
0
100
AcDbSpline
70
4
71
5
72
16
73
10
74
0
42
0.000000001
43
0.0000000001
44
0.0000000001
40
0
40
0
40
0
40
0
40
0
40
0
40
0.20000000000000001
40
0.40000000000000002
40
0.60000000000000009
40
0.80000000000000004
40
1
40
1
40
1
40
1
40
1
40
1
41
1
41
1
41
1
41
1
41
1
41
1
41
1
41
1
41
1
41
1
10
500.00000854177443
20
294.7029664605451
30
0
10
500.00000854177443
20
298.7946873611333
30
0
10
498.89417589316929
20
308.02336726797427
30
0
10
493.9183324883312
20
324.9985414736455
30
0
10
479.33111634268596
20
352.39255200757674
30
0
10
436.4664336529774
20
387.38925327847062
30
0
10
366.83847096722036
20
409.09872808115773
30
0
10
283.85022838870509
20
418.01688455979422
30
0
10
212.58889135920143
20
419.99999647445696
30
0
10
172.97063867335052
20
419.99999647445702
30
0
0
CIRCLE
5
395
100
AcDbEntity
8
0
100
AcDbCircle
10
499.99999897078476
20
230.10916720084097
30
0
40
1.9050000000000011
210
0
220
0
230
1
0
ARC
5
396
100
AcDbEntity
8
0
100
AcDbCircle
10
502.52991713033788
20
240.54475458607357
30
0
40
2.5399987964361181
210
-6.0095572780749537e-27
220
6.7219803503221874e-26
230
1
100
AcDbArc
50
185.10875183622508
51
256.37262619516974
0
ARC
5
397
100
AcDbEntity
8
0
100
AcDbCircle
10
499.99999897078476
20
230.10916720084097
30
0
40
8.1978738865763976
210
5.8308957177091657e-33
220
-2.3952390086541006e-32
230
1
100
AcDbArc
50
-76.318217160743743
51
76.372587357767273
0
ARC
5
398
100
AcDbEntity
8
0
100
AcDbCircle
10
502.53981817520184
20
219.67598479959463
30
0
40
2.5400019093536477
210
-1.8819184698081586e-32
220
7.7306523651789194e-32
230
1
100
AcDbArc
50
103.68172953656745
51
179.29854575224275
0
CIRCLE
5
399
100
AcDbEntity
8
0
100
AcDbCircle
10
499.99999897078476
20
230.10916720084097
30
0
40
1.9050000000000011
210
-1.4495411031324841e-55
220
-1.7157339150654082e-94
230
1
0
ARC
5
400
100
AcDbEntity
8
0
100
AcDbCircle
10
502.5398181752019
20
219.6759847995946
30
-4.0369438181232523e-46
40
2.5400019093536992
210
-5.659426969842781e-33
220
2.3248117913645896e-32
230
1
100
AcDbArc
50
103.68172953656853
51
179.29854575224223
0
ARC
5
401
100
AcDbEntity
8
0
100
AcDbCircle
10
499.99999897078476
20
230.10916720084097
30
0
40
8.1978738865763976
210
1.7535046821930499e-33
220
-7.2031177026374876e-33
230
1
100
AcDbArc
50
-76.318217160743743
51
76.372587357767273
0
ARC
5
402
100
AcDbEntity
8
0
100
AcDbCircle
10
502.52991713033788
20
240.54475458607357
30
-3.0875777930985044e-46
40
2.5399987964361155
210
3.7343638574495624e-33
220
2.3772517365393889e-32
230
1
100
AcDbArc
50
185.1087518362244
51
256.37262619516963
0
LINE
5
403
100
AcDbEntity
8
0
100
AcDbLine
10
500.0000066072206
20
240.31857673700358
30
0
11
500.00000854177443
21
294.7029664605451
31
0
0
LWPOLYLINE
5
404
100
AcDbEntity
8
0
100
AcDbPolyline
90
2
70
1
43
0.0
10
-289.08496648338365
20
223.28881167702156
42
1.0031896720790983
10
-345.66029316262257
20
279.86413835556004
42
1.0031896720746216
0
ARC
5
405
100
AcDbEntity
8
0
100
AcDbCircle
10
-317.46271475089054
20
251.48639008840436
30
0
40
40.004999999997963
210
-1.4541425660813962e-55
220
4.6308642294806608e-58
230
1
100
AcDbArc
50
134.81753640641588
51
315.18246359429344
0
CIRCLE
5
406
100
AcDbEntity
8
0
100
AcDbCircle
10
230.00000616943794
20
85.229696474387069
30
0
40
2.1590000000000131
210
0
220
0
230
1
0
CIRCLE
5
407
100
AcDbEntity
8
0
100
AcDbCircle
10
230.00000616943794
20
8.0136964743870625
30
0
40
2.1590000000000131
210
0
220
0
230
1
0
LWPOLYLINE
5
408
100
AcDbEntity
8
0
100
AcDbPolyline
90
4
70
1
43
0.0
10
419.84722487031371
20
351.41236643074137
10
400.34722487031365
20
351.41236643074137
10
400.34722487031365
20
331.91236643074137
10
419.84722487031371
20
331.91236643074137
0
LWPOLYLINE
5
409
100
AcDbEntity
8
0
100
AcDbPolyline
90
4
70
1
43
0.0
10
419.84722487031371
20
351.41236643074137
10
419.84722487031371
20
331.91236643074137
10
400.34722487031365
20
331.91236643074137
10
400.34722487031365
20
351.41236643074137
0
ENDSEC
0
SECTION
2
OBJECTS
0
DICTIONARY
5
C
100
AcDbDictionary
3
ACAD_GROUP
350
D
3
ACAD_MLINESTYLE
350
17
0
DICTIONARY
5
D
100
AcDbDictionary
0
DICTIONARY
5
1A
330
C
100
AcDbDictionary
0
DICTIONARY
5
17
100
AcDbDictionary
0
ENDSEC
0
EOF
