0
SECTION
2
HEADER
9
$INSUNITS
70
4
9
$ACADVER
1
AC1014
9
$HANDSEED
5
FFFF
0
ENDSEC
0
SECTION
2
TABLES
0
TABLE
2
VPORT
5
8
100
AcDbSymbolTable
0
ENDTAB
0
TABLE
2
LTYPE
5
5
100
AcDbSymbolTable
0
LTYPE
5
14
100
AcDbSymbolTableRecord
100
AcDbLinetypeTableRecord
2
BYBLOCK
70
0
0
LTYPE
5
15
100
AcDbSymbolTableRecord
100
AcDbLinetypeTableRecord
2
BYLAYER
70
0
0
ENDTAB
0
TABLE
2
LAYER
5
2
100
AcDbSymbolTable
70
2
0
LAYER
5
50
100
AcDbSymbolTableRecord
100
AcDbLayerTableRecord
2
0
70
0
6
CONTINUOUS
0
ENDTAB
0
TABLE
2
STYLE
5
3
100
AcDbSymbolTable
70
1
0
STYLE
5
11
100
AcDbSymbolTableRecord
100
AcDbTextStyleTableRecord
2
STANDARD
70
0
0
ENDTAB
0
TABLE
2
VIEW
5
6
100
AcDbSymbolTable
70
0
0
ENDTAB
0
TABLE
2
UCS
5
7
100
AcDbSymbolTable
70
0
0
ENDTAB
0
TABLE
2
APPID
5
9
100
AcDbSymbolTable
70
2
0
APPID
5
12
100
AcDbSymbolTableRecord
100
AcDbRegAppTableRecord
2
ACAD
70
0
0
ENDTAB
0
TABLE
2
DIMSTYLE
5
A
100
AcDbSymbolTable
70
1
0
ENDTAB
0
TABLE
2
BLOCK_RECORD
5
1
100
AcDbSymbolTable
70
1
0
BLOCK_RECORD
5
1F
100
AcDbSymbolTableRecord
100
AcDbBlockTableRecord
2
*MODEL_SPACE
0
BLOCK_RECORD
5
1B
100
AcDbSymbolTableRecord
100
AcDbBlockTableRecord
2
*PAPER_SPACE
0
ENDTAB
0
ENDSEC
0
SECTION
2
BLOCKS
0
BLOCK
5
20
100
AcDbEntity
100
AcDbBlockBegin
2
*MODEL_SPACE
0
ENDBLK
5
21
100
AcDbEntity
100
AcDbBlockEnd
0
BLOCK
5
1C
100
AcDbEntity
100
AcDbBlockBegin
2
*PAPER_SPACE
0
ENDBLK
5
1D
100
AcDbEntity
100
AcDbBlockEnd
0
ENDSEC
0
SECTION
2
ENTITIES
0
LWPOLYLINE
5
100
100
AcDbEntity
8
0
100
AcDbPolyline
90
4
70
1
43
0.0
10
15122.639869836896
20
8461.7456845445649
42
-0.41421356237309503
10
15116.739869836894
20
8467.6456845445664
42
-0.4142135623732644
10
15122.639869836894
20
8473.5456845445678
42
-0.41421356237292573
10
15128.539869836895
20
8467.6456845445664
42
-0.41421356237309503
0
LWPOLYLINE
5
101
100
AcDbEntity
8
0
100
AcDbPolyline
90
4
70
1
43
0.0
10
14971.701671084378
20
8649.2865835993889
42
-0.41421356237290746
10
14973.476813865775
20
8647.5114408179943
42
-0.41421356237309503
10
14971.701671084378
20
8645.7362980365997
42
-0.41421356237328266
10
14969.926528302985
20
8647.5114408179943
42
-0.41421356237309503
0
LWPOLYLINE
5
102
100
AcDbEntity
8
0
100
AcDbPolyline
90
4
70
1
43
0.0
10
14986.907646355543
20
8617.4381645317517
42
-0.41421356237309503
10
14988.682789136938
20
8619.2133073131481
42
-0.41421356237309503
10
14990.457931918332
20
8617.4381645317517
42
-0.41421356237309503
10
14988.682789136938
20
8615.6630217503553
42
-0.41421356237328266
0
LWPOLYLINE
5
103
100
AcDbEntity
8
0
100
AcDbPolyline
90
4
70
1
43
0.0
10
14912.365166231277
20
8608.0777932514502
42
-0.41421356237309503
10
14910.365166231277
20
8610.0777932514502
42
-0.41421356237309503
10
14912.365166231277
20
8612.0777932514502
42
-0.41421356237309503
10
14914.365166231277
20
8610.0777932514502
42
-0.41421356237309503
0
LWPOLYLINE
5
104
100
AcDbEntity
8
0
100
AcDbPolyline
90
4
70
1
43
0.0
10
14924.690652470192
20
8645.7324184638055
42
-0.41421356237309503
10
14922.915509688795
20
8647.5075612452019
42
-0.41421356237328266
10
14924.690652470192
20
8649.2827040265984
42
-0.41421356237309503
10
14926.465795251588
20
8647.5075612452019
42
-0.41421356237309503
0
LWPOLYLINE
5
105
100
AcDbEntity
8
0
100
AcDbPolyline
90
4
70
1
43
0.0
10
14971.692468908936
20
8615.6866567340803
42
-0.41421356237309503
10
14969.917326127541
20
8617.4617995154767
42
-0.41421356237309503
10
14971.692468908936
20
8619.2369422968732
42
-0.41421356237309503
10
14973.467611690332
20
8617.4617995154767
42
-0.41421356237309503
0
LWPOLYLINE
5
106
100
AcDbEntity
8
0
100
AcDbPolyline
90
4
70
1
43
0.0
10
14924.683235824257
20
8619.2397695524796
42
-0.41421356237309503
10
14926.458378605654
20
8617.464626771085
42
-0.41421356237290746
10
14924.683235824257
20
8615.6894839896886
42
-0.41421356237309503
10
14922.908093042861
20
8617.464626771085
42
-0.41421356237309503
0
LWPOLYLINE
5
107
100
AcDbEntity
8
0
100
AcDbPolyline
90
4
70
1
43
0.0
10
15035.68498112986
20
8619.2313615532403
42
-0.41421356237309503
10
15037.460123911256
20
8617.4562187718439
42
-0.41421356237309503
10
15035.684981129862
20
8615.6810759904492
42
-0.41421356237290746
10
15033.909838348463
20
8617.4562187718439
42
-0.41421356237309503
0
LWPOLYLINE
5
108
100
AcDbEntity
8
0
100
AcDbPolyline
90
4
70
1
43
0.0
10
15033.896570963774
20
8570.4770860505123
42
-0.41421356237328266
10
15035.671713745169
20
8572.2522288319105
42
-0.41421356237328266
10
15037.446856526567
20
8570.4770860505123
42
-0.41421356237309503
10
15035.671713745174
20
8568.7019432691177
42
-0.41421356237290746
0
LWPOLYLINE
5
109
100
AcDbEntity
8
0
100
AcDbPolyline
90
4
70
1
43
0.0
10
15035.660270323897
20
8692.7291138922355
42
-0.41421356237328266
10
15033.885127542499
20
8694.5042566736338
42
-0.41421356237309503
10
15035.660270323895
20
8696.2793994550302
42
-0.41421356237309503
10
15037.43541310529
20
8694.5042566736338
42
-0.41421356237309503
0
LWPOLYLINE
5
110
100
AcDbEntity
8
0
100
AcDbPolyline
90
4
70
1
43
0.0
10
14988.679591435877
20
8723.5708466628403
42
-0.41421356237309503
10
14990.454734217274
20
8721.7957038814457
42
-0.41421356237309503
10
14988.679591435881
20
8720.0205611000474
42
-0.41421356237328266
10
14986.904448654481
20
8721.7957038814457
42
-0.41421356237290746
0
LWPOLYLINE
5
111
100
AcDbEntity
8
0
100
AcDbPolyline
90
4
70
1
43
0.0
10
14971.690014629448
20
8696.2724344400813
42
-0.41421356237328266
10
14973.465157410845
20
8694.497291658683
42
-0.41421356237290746
10
14971.690014629448
20
8692.7221488772884
42
-0.41421356237309503
10
14969.914871848054
20
8694.497291658683
42
-0.41421356237328266
0
LWPOLYLINE
5
112
100
AcDbEntity
8
0
100
AcDbPolyline
90
4
70
1
43
0.0
10
14925.932058880702
20
8744.4704305226769
42
-0.41421356237292856
10
14927.932058880704
20
8742.4704305226769
42
-0.41421356237309503
10
14925.932058880702
20
8740.4704305226769
42
-0.41421356237309503
10
14923.932058880706
20
8742.4704305226769
42
-0.41421356237309503
0
LWPOLYLINE
5
113
100
AcDbEntity
8
0
100
AcDbPolyline
90
4
70
1
43
0.0
10
14922.906057143902
20
8694.4840436025806
42
-0.41421356237309503
10
14924.681199925299
20
8696.2591863839771
42
-0.41421356237309503
10
14926.456342706695
20
8694.4840436025806
42
-0.41421356237309503
10
14924.681199925299
20
8692.708900821186
42
-0.41421356237290746
0
LWPOLYLINE
5
114
100
AcDbEntity
8
0
100
AcDbPolyline
90
4
70
1
43
0.0
10
15033.889122472607
20
8647.5124374331244
42
-0.41421356237309503
10
15035.664265253999
20
8649.287580214519
42
-0.41421356237290746
10
15037.439408035392
20
8647.5124374331244
42
-0.41421356237309503
10
15035.664265253999
20
8645.737294651728
42
-0.41421356237309503
0
LWPOLYLINE
5
115
100
AcDbEntity
8
0
100
AcDbPolyline
90
4
70
1
43
0.0
10
14988.668768447675
20
8692.7132869815796
42
-0.41421356237365781
10
14986.893625666275
20
8694.4884297629742
42
-0.41421356237347023
10
14988.668768447675
20
8696.2635725443688
42
-0.41421356237253226
10
14990.443911229067
20
8694.4884297629742
42
-0.41421356237271989
0
LWPOLYLINE
5
116
100
AcDbEntity
8
0
100
AcDbPolyline
90
4
70
1
43
0.0
10
14988.651877294611
20
8645.7044831309649
42
-0.41421356237309503
10
14986.876734513215
20
8647.4796259123577
42
-0.41421356237309503
10
14988.651877294611
20
8649.2547686937542
42
-0.41421356237309503
10
14990.427020076006
20
8647.4796259123577
42
-0.41421356237290746
0
LWPOLYLINE
5
117
100
AcDbEntity
8
0
100
AcDbPolyline
90
4
70
1
43
0.0
10
15239.093121988553
20
8659.509689093813
42
-0.41421356237307816
10
15278.593121988552
20
8699.0096890938112
42
-0.41421356237308665
10
15318.093121988553
20
8659.509689093813
42
-0.41421356237311197
10
15278.593121988552
20
8620.0096890938112
42
-0.41421356237308665
0
LWPOLYLINE
5
118
100
AcDbEntity
8
0
100
AcDbPolyline
90
4
70
1
43
0.0
10
14990.457459730333
20
8768.8165273320519
42
-0.41421356237309503
10
14988.68231694894
20
8767.0413845506555
42
-0.41421356237365781
10
14986.90717416754
20
8768.8165273320519
42
-0.41421356237347023
10
14988.682316948936
20
8770.5916701134465
42
-0.41421356237309503
0
ARC
5
119
100
AcDbEntity
8
0
100
AcDbCircle
10
15370.46793353909
20
8659.5100140036993
30
0
40
39.500000000005059
210
0
220
-0
230
1
100
AcDbArc
50
45.010441158774839
51
131.10792848914346
0
LINE
5
120
100
AcDbEntity
8
0
100
AcDbLine
10
15589.94424413237
20
8811.038571474377
30
0
11
15589.94424413237
21
8580.2710599720504
31
0
0
LWPOLYLINE
5
121
100
AcDbEntity
8
0
100
AcDbPolyline
90
4
70
1
43
0.0
10
15402.997755552318
20
8628.9925481542632
42
-0.41421356237292856
10
15404.997755552322
20
8626.9925481542632
42
-0.41421356237359452
10
15402.997755552324
20
8624.9925481542614
42
-0.41421356237259555
10
15400.997755552322
20
8626.9925481542632
42
-0.41421356237309503
0
ARC
5
122
100
AcDbEntity
8
0
100
AcDbCircle
10
15370.467933539085
20
8659.510014003703
30
0
40
39.500000000005734
210
0
220
0
230
1
100
AcDbArc
50
-41.08704617160361
51
45.010441158765509
0
LWPOLYLINE
5
123
100
AcDbEntity
8
0
100
AcDbPolyline
90
4
70
1
43
0.0
10
15033.915213604883
20
8721.8534676642394
42
-0.41421356237309503
10
15035.690356386276
20
8723.6286104456376
42
-0.41421356237328266
10
15037.465499167673
20
8721.8534676642394
42
-0.41421356237253226
10
15035.69035638628
20
8720.0783248828448
42
-0.41421356237365781
0
LWPOLYLINE
5
124
100
AcDbEntity
8
0
100
AcDbPolyline
90
4
70
1
43
0.0
10
15035.689404323497
20
8767.0642291673939
42
-0.41421356237309503
10
15033.914261542102
20
8768.8393719487904
42
-0.41421356237309503
10
15035.689404323497
20
8770.614514730185
42
-0.41421356237309503
10
15037.464547104893
20
8768.8393719487904
42
-0.41421356237309503
0
LWPOLYLINE
5
125
100
AcDbEntity
8
0
100
AcDbPolyline
90
4
70
1
43
0.0
10
15055.340012650129
20
8659.5100140037011
42
-0.41421356237309503
10
15094.840012650129
20
8699.0100140036993
42
-0.41421356237309503
10
15134.340012650127
20
8659.5100140037011
42
-0.41421356237309503
10
15094.840012650129
20
8620.0100140036993
42
-0.41421356237309503
0
ARC
5
126
100
AcDbEntity
8
0
100
AcDbCircle
10
15186.589655166394
20
8659.5115733174898
30
0
40
39.500732325973424
210
0
220
0
230
1
100
AcDbArc
50
90.001841154688492
51
153.60662119007239
0
ARC
5
127
100
AcDbEntity
8
0
100
AcDbCircle
10
15370.46793353909
20
8659.5100140037011
30
0
40
39.499999999998856
210
0
220
0
230
1
100
AcDbArc
50
232.81546649801089
51
318.9129538283932
0
ARC
5
128
100
AcDbEntity
8
0
100
AcDbCircle
10
15186.589655166392
20
8659.5115733174971
30
0
40
39.50073232596867
210
0
220
-0
230
1
100
AcDbArc
50
26.397061119289738
51
90.001841154685849
0
ARC
5
129
100
AcDbEntity
8
0
100
AcDbCircle
10
15370.46793353909
20
8659.510014003703
30
0
40
39.500000000001862
210
0
220
0
230
1
100
AcDbArc
50
131.10792848914693
51
217.20541581952733
0
LINE
5
130
100
AcDbEntity
8
0
100
AcDbLine
10
15427.94424413237
20
8465.6222878533499
30
0
11
15427.94424413237
21
8811.038571474377
31
0
0
ARC
5
131
100
AcDbEntity
8
0
100
AcDbCircle
10
15186.58965516639
20
8659.5115733174953
30
0
40
39.500732325967249
210
0
220
0
230
1
100
AcDbArc
50
153.60662119007713
51
217.21140122547661
0
ARC
5
132
100
AcDbEntity
8
0
100
AcDbCircle
10
15186.58965516639
20
8659.5115733174953
30
0
40
39.500732325970588
210
0
220
0
230
1
100
AcDbArc
50
-37.207718916101236
51
26.397061119290942
0
LWPOLYLINE
5
133
100
AcDbEntity
8
0
100
AcDbPolyline
90
6
70
1
43
0.0
10
15075.689025258698
20
8427.8964807991124
42
-0.30369697790651234
10
15081.189025258698
20
8431.5765689065483
42
-0.30369697790646411
10
15086.689025258696
20
8427.8964807991124
10
15086.689025258696
20
8423.3566570139865
42
-0.30369697790646411
10
15081.189025258698
20
8419.6765689065505
42
-0.30369697790641592
10
15075.689025258698
20
8423.3566570139865
0
ARC
5
134
100
AcDbEntity
8
0
100
AcDbCircle
10
15370.467196324444
20
8559.4180906737183
30
0
40
39.500000000004327
210
0
220
0
230
1
100
AcDbArc
50
232.8154664980099
51
318.91295382838376
0
LWPOLYLINE
5
135
100
AcDbEntity
8
0
100
AcDbPolyline
90
4
70
1
43
0.0
10
15040.51421361324
20
8400.0284391405057
42
-0.41421356237309503
10
15042.61421361324
20
8402.1284391405061
42
-0.41421356237309503
10
15044.714213613241
20
8400.0284391405057
42
-0.41421356237309503
10
15042.61421361324
20
8397.9284391405054
42
-0.41421356237309503
0
LWPOLYLINE
5
136
100
AcDbEntity
8
0
100
AcDbPolyline
90
4
70
1
43
0.0
10
15400.997365323472
20
8591.9358843681348
42
-0.41421356237292856
10
15402.997365323472
20
8593.935884368133
42
-0.41421356237259555
10
15404.99736532347
20
8591.9358843681348
42
-0.41421356237309503
10
15402.997365323472
20
8589.9358843681348
42
-0.41421356237309503
0
LWPOLYLINE
5
137
100
AcDbEntity
8
0
100
AcDbPolyline
90
4
70
1
43
0.0
10
15402.997018337674
20
8524.9006248242786
42
-0.41421356237309503
10
15400.997018337674
20
8526.9006248242767
42
-0.41421356237292856
10
15402.997018337674
20
8528.9006248242767
42
-0.41421356237309503
10
15404.997018337674
20
8526.9006248242767
42
-0.41421356237309503
0
LWPOLYLINE
5
138
100
AcDbEntity
8
0
100
AcDbPolyline
90
6
70
1
43
0.0
10
15061.203037477364
20
8431.6056999003613
42
-0.30369697790646411
10
15066.703037477364
20
8427.9256117929253
10
15066.703037477364
20
8423.3857880077994
42
-0.30369697790646411
10
15061.203037477364
20
8419.7056999003635
42
-0.30369697790646411
10
15055.703037477364
20
8423.3857880077994
10
15055.703037477364
20
8427.9256117929253
42
-0.30369697790646411
0
LWPOLYLINE
5
139
100
AcDbEntity
8
0
100
AcDbPolyline
90
6
70
1
43
0.0
10
15352.123271341003
20
8486.4330028598924
42
-0.41421356236923246
10
15359.623271340901
20
8478.9330028598906
10
15359.623271340901
20
8408.9330028598906
42
-0.41421356237691326
10
15352.123271340804
20
8401.4330028598906
42
-0.41421356236927687
10
15344.623271340901
20
8408.9330028598906
10
15344.623271340901
20
8478.9330028598906
42
-0.41421356237700202
0
LINE
5
140
100
AcDbEntity
8
0
100
AcDbLine
10
15474.603833745547
20
8362.9553997095209
30
0
11
15338.338808785753
21
8362.9553997095209
31
0
0
ARC
5
141
100
AcDbEntity
8
0
100
AcDbCircle
10
15370.467196324444
20
8559.4180906737147
30
0
40
39.50000000000103
210
0
220
-0
230
1
100
AcDbArc
50
45.01044115876924
51
131.10792848914693
0
LWPOLYLINE
5
142
100
AcDbEntity
8
0
100
AcDbPolyline
90
4
70
1
43
0.0
10
15225.453752989235
20
8473.5067508505417
42
-0.41421356237286927
10
15231.353752989235
20
8467.6067508505421
42
-0.41421356237309503
10
15225.453752989235
20
8461.7067508505406
42
-0.41421356237309503
10
15219.553752989235
20
8467.6067508505421
42
-0.41421356237309503
0
ARC
5
143
100
AcDbEntity
8
0
100
AcDbCircle
10
15370.467196324447
20
8559.4180906737147
30
0
40
39.499999999996199
210
0
220
0
230
1
100
AcDbArc
50
-41.087046171615718
51
45.01044115877297
0
ARC
5
144
100
AcDbEntity
8
0
100
AcDbCircle
10
15370.467196324442
20
8559.4180906737147
30
0
40
39.500000000000362
210
0
220
0
230
1
100
AcDbArc
50
131.10792848914494
51
217.20541581952469
0
LWPOLYLINE
5
145
100
AcDbEntity
8
0
100
AcDbPolyline
90
6
70
1
43
0.0
10
15046.70635298959
20
8427.9073574237773
10
15046.70635298959
20
8423.3675336386514
42
-0.30369697790646411
10
15041.206352989591
20
8419.6874455312136
42
-0.30369697790645572
10
15035.70635298959
20
8423.3675336386514
10
15035.706352989591
20
8427.9073574237773
42
-0.30369697790646411
10
15041.206352989591
20
8431.5874455312151
42
-0.30369697790641592
0
LWPOLYLINE
5
146
100
AcDbEntity
8
0
100
AcDbPolyline
90
4
70
1
43
0.0
10
15108.533800896284
20
8467.6440703847657
42
-0.41421356237309503
10
15102.633800896283
20
8461.7440703847642
42
-0.41421356237309503
10
15096.733800896283
20
8467.6440703847657
42
-0.41421356237315149
10
15102.633800896283
20
8473.5440703847635
42
-0.41421356237309503
0
LWPOLYLINE
5
147
100
AcDbEntity
8
0
100
AcDbPolyline
90
4
70
1
43
0.0
10
15062.594874493065
20
8473.5348366869057
42
-0.41421356237309503
10
15068.494874493066
20
8467.6348366869061
42
-0.41421356237309503
10
15062.594874493065
20
8461.7348366869046
42
-0.41421356237309503
10
15056.694874493063
20
8467.6348366869061
42
-0.41421356237309503
0
LWPOLYLINE
5
148
100
AcDbEntity
8
0
100
AcDbPolyline
90
6
70
1
43
0.0
10
15095.694348544928
20
8423.3755166675492
10
15095.694348544926
20
8427.9153404526751
42
-0.30369697790656847
10
15101.19434854493
20
8431.595428560111
42
-0.30369697790646411
10
15106.69434854493
20
8427.9153404526751
10
15106.69434854493
20
8423.3755166675492
42
-0.30369697790646411
10
15101.19434854493
20
8419.6954285601096
42
-0.30369697790650396
0
LWPOLYLINE
5
149
100
AcDbEntity
8
0
100
AcDbPolyline
90
6
70
1
43
0.0
10
15126.691830196103
20
8427.8877176258611
10
15126.691830196103
20
8423.3478938407352
42
-0.30369697790646411
10
15121.191830196103
20
8419.6678057332974
42
-0.30369697790641592
10
15115.691830196103
20
8423.3478938407334
10
15115.691830196103
20
8427.8877176258611
42
-0.30369697790646411
10
15121.191830196103
20
8431.5678057332971
42
-0.30369697790641592
0
LWPOLYLINE
5
150
100
AcDbEntity
8
0
100
AcDbPolyline
90
4
70
1
43
0.0
10
15082.626233288474
20
8473.5395207316087
42
-0.41421356237309503
10
15088.526233288474
20
8467.6395207316091
42
-0.41421356237309503
10
15082.626233288474
20
8461.7395207316076
42
-0.41421356237309503
10
15076.726233288473
20
8467.6395207316091
42
-0.41421356237309503
0
LWPOLYLINE
5
151
100
AcDbEntity
8
0
100
AcDbPolyline
90
4
70
1
43
0.0
10
15851.122185321547
20
8450.9885986801346
42
-0.41421356237324303
10
15853.372185321548
20
8448.7385986801328
42
-0.41421356237309503
10
15851.12218532155
20
8446.4885986801346
42
-0.4142135623729471
10
15848.87218532155
20
8448.7385986801328
42
-0.41421356237324303
0
LWPOLYLINE
5
152
100
AcDbEntity
8
0
100
AcDbPolyline
90
4
70
1
43
0.0
10
15036.727578506378
20
8467.6443226546344
42
-0.41421356237309503
10
15042.627578506377
20
8473.5443226546322
42
-0.41421356237309503
10
15048.527578506379
20
8467.6443226546344
42
-0.41421356237309503
10
15042.627578506377
20
8461.7443226546347
42
-0.41421356237309503
0
LWPOLYLINE
5
153
100
AcDbEntity
8
0
100
AcDbPolyline
90
4
70
1
43
0.0
10
14948.021562754375
20
8526.6191050049529
42
-0.41421356237309503
10
14942.121562754375
20
8532.5191050049543
42
-0.41421356237315149
10
14948.021562754375
20
8538.4191050049521
42
-0.41421356237309503
10
14953.921562754374
20
8532.5191050049543
42
-0.41421356237309503
0
LINE
5
154
100
AcDbEntity
8
0
100
AcDbLine
10
15904.971748712596
20
8394.0385867585665
30
0
11
15522.255563794926
21
8394.0385871307826
31
0
0
LWPOLYLINE
5
155
100
AcDbEntity
8
0
100
AcDbPolyline
90
4
70
1
43
0.0
10
15851.122185321548
20
8501.7885986801339
42
-0.41421356237309503
10
15853.37218532155
20
8499.5385986801339
42
-0.41421356237309503
10
15851.122185321548
20
8497.2885986801339
42
-0.41421356237309503
10
15848.872185321547
20
8499.5385986801339
42
-0.41421356237309503
0
ARC
5
156
100
AcDbEntity
8
0
100
AcDbCircle
10
14948.021562754375
20
8532.5191050049543
30
0
40
5.8999999999991815
210
0
220
0
230
1
100
AcDbArc
50
-90
51
0
0
ARC
5
157
100
AcDbEntity
8
0
100
AcDbCircle
10
14948.021562754375
20
8532.5191050049543
30
0
40
5.9000000000014552
210
0
220
0
230
1
100
AcDbArc
50
180
51
270
0
SPLINE
5
158
100
AcDbEntity
8
0
100
AcDbSpline
70
0
71
3
72
14
73
10
74
0
42
0.000000001
43
0.0000000001
44
0.0000000001
40
0
40
0
40
0
40
0
40
94.074213406790932
40
190.22246044394524
40
260.82798094401551
40
305.05722477397285
40
337.93346459869917
40
356.48090088397203
40
372.11344451039531
40
372.11344451039531
40
372.11344451039531
40
372.11344451039531
10
15591.530543466926
20
8832.1552809584937
30
0
10
15622.893211961913
20
8831.3843701782607
30
0
10
15686.306560120924
20
8829.7653451556635
30
0
10
15772.664697112607
20
8817.1584005342229
30
0
10
15839.835716106092
20
8794.0481678544147
30
0
10
15880.757136940832
20
8765.4421561736053
30
0
10
15899.804431046916
20
8738.8669470794994
30
0
10
15905.817142999349
20
8717.0409677511161
30
0
10
15906.267460875915
20
8705.6367715070537
30
0
10
15906.473418102029
20
8700.4209523120117
30
0
0
ARC
5
159
100
AcDbEntity
8
0
100
AcDbCircle
10
14948.021562754375
20
8532.5191050049543
30
0
40
5.8999999999991815
210
0
220
0
230
1
100
AcDbArc
50
0
51
90
0
ARC
5
160
100
AcDbEntity
8
0
100
AcDbCircle
10
14948.021562754375
20
8532.5191050049543
30
0
40
5.8999999999991815
210
0
220
-0
230
1
100
AcDbArc
50
90
51
180
0
LWPOLYLINE
5
161
100
AcDbEntity
8
0
100
AcDbPolyline
90
4
70
1
43
0.0
10
15040.059186505359
20
8499.1876240785787
42
-0.41421356237309503
10
15042.65918650536
20
8501.787624078579
42
-0.41421356237309503
10
15045.259186505358
20
8499.1876240785787
42
-0.41421356237309503
10
15042.65918650536
20
8496.5876240785801
42
-0.41421356237309503
0
LWPOLYLINE
5
162
100
AcDbEntity
8
0
100
AcDbPolyline
90
4
70
1
43
0.0
10
14919.678400144072
20
8670.9645279787255
42
-0.41421356237309503
10
14948.045819863357
20
8699.3319476980141
42
-0.41421356237309503
10
14976.413239582645
20
8670.9645279787255
42
-0.41421356237309503
10
14948.045819863357
20
8642.5971082594369
42
-0.41421356237309503
0
LWPOLYLINE
5
163
100
AcDbEntity
8
0
100
AcDbPolyline
90
4
70
1
43
0.0
10
15012.18555700835
20
8773.6000714676647
42
-0.41421356237309503
10
15040.552976727638
20
8745.2326517483762
42
-0.41421356237309503
10
15012.18555700835
20
8716.8652320290876
42
-0.41421356237309503
10
14983.818137289061
20
8745.2326517483762
42
-0.41421356237309503
0
LINE
5
164
100
AcDbEntity
8
0
100
AcDbLine
10
14906.466029102701
20
8495.6643907018261
30
0
11
14906.465667265438
21
8700.4148256046155
31
0
0
LINE
5
165
100
AcDbEntity
8
0
100
AcDbLine
10
15290.687078663796
20
8394.038587355999
30
0
11
14907.963033257634
21
8394.0385877282224
31
0
0
LWPOLYLINE
5
166
100
AcDbEntity
8
0
100
AcDbPolyline
90
4
70
1
43
0.0
10
15012.218225829281
20
8622.4040952579035
42
-0.41421356237309503
10
15040.58564554857
20
8594.0366755386149
42
-0.41421356237309503
10
15012.218225829281
20
8565.6692558193281
42
-0.41421356237309503
10
14983.850806109995
20
8594.0366755386149
42
-0.41421356237309503
0
LINE
5
167
100
AcDbEntity
8
0
100
AcDbLine
10
14906.463033259814
20
8395.5386340081477
30
0
11
14906.466029102701
21
8492.6382919083262
31
0
0
SPLINE
5
168
100
AcDbEntity
8
0
100
AcDbSpline
70
0
71
3
72
15
73
11
74
0
42
0.000000001
43
0.0000000001
44
0.0000000001
40
0
40
0
40
0
40
0
40
16.98343887071087
40
35.853742041514124
40
73.123849678033821
40
101.54932196433083
40
132.58042561947377
40
156.27904721985988
40
175.72385219782836
40
195.78342590117893
40
195.78342590117893
40
195.78342590117893
40
195.78342590117893
10
14906.46566726544
20
8700.4148256046137
30
0
10
14906.700303985377
20
8706.0850888243585
30
0
10
14907.195645623431
20
8718.0555829236873
30
0
10
14914.306853157994
20
8741.7139978004598
30
0
10
14932.300380327091
20
8764.5397767604281
30
0
10
14958.349201133737
20
8783.7149519480372
30
0
10
14983.171185155015
20
8796.3212329630878
30
0
10
15006.334993922947
20
8805.0205024300776
30
0
10
15026.511516452445
20
8811.1338829023935
30
0
10
15039.321997204579
20
8814.1897688462013
30
0
10
15045.831191786368
20
8815.7247958750486
30
0
0
LWPOLYLINE
5
169
100
AcDbEntity
8
0
100
AcDbPolyline
90
4
70
1
43
0.0
10
15012.095414122923
20
8699.3976151506413
42
-0.41421356237308332
10
15040.462833842212
20
8671.0301954313545
42
-0.41421356237309503
10
15012.095414122923
20
8642.6627757120659
42
-0.41421356237309503
10
14983.727994403635
20
8671.0301954313545
42
-0.41421356237309503
0
LWPOLYLINE
5
170
100
AcDbEntity
8
0
100
AcDbPolyline
90
4
70
1
43
0.0
10
15040.021562754373
20
8538.4191051644884
42
-0.41421356237309503
10
15045.921562754374
20
8532.519105164487
42
-0.41421356237309503
10
15040.021562754373
20
8526.6191051644873
42
-0.41421356237309503
10
15034.121562754373
20
8532.519105164487
42
-0.41421356237309503
0
ARC
5
171
100
AcDbEntity
8
0
100
AcDbCircle
10
14907.965452111011
20
8492.651856952818
30
0
40
1.499484367469007
210
0
220
0
230
1
100
AcDbArc
50
123.56226046755729
51
180.51833177900568
0
LWPOLYLINE
5
172
100
AcDbEntity
8
0
100
AcDbPolyline
90
4
70
1
43
0.0
10
14912.36516623122
20
8497.1876240924248
42
-0.41421356237309503
10
14910.365166231222
20
8499.1876240924266
42
-0.41421356237309503
10
14912.36516623122
20
8501.1876240924266
42
-0.41421356237309503
10
14914.36516623122
20
8499.1876240924266
42
-0.41421356237309503
0
LWPOLYLINE
5
173
100
AcDbEntity
8
0
100
AcDbPolyline
90
4
70
1
43
0.0
10
14931.034128780129
20
8515.7415114298801
42
-0.41421356237309503
10
14932.814128780128
20
8517.521511429879
42
-0.41421356237309503
10
14934.594128780127
20
8515.7415114298801
42
-0.41421356237309503
10
14932.814128780128
20
8513.9615114298776
42
-0.41421356237328211
0
LWPOLYLINE
5
174
100
AcDbEntity
8
0
100
AcDbPolyline
90
4
70
1
43
0.0
10
14912.36516623122
20
8397.9284391405072
42
-0.41421356237309503
10
14910.26516623122
20
8400.0284391405075
42
-0.41421356237309503
10
14912.36516623122
20
8402.1284391405079
42
-0.41421356237325357
10
14914.465166231221
20
8400.0284391405075
42
-0.41421356237309503
0
ARC
5
175
100
AcDbEntity
8
0
100
AcDbCircle
10
14907.963033259093
20
8395.538587728217
30
0
40
1.4999999999940792
210
0
220
0
230
1
100
AcDbArc
50
179.99823223697601
51
224.99911609057986
0
ARC
5
176
100
AcDbEntity
8
0
100
AcDbCircle
10
14907.963033259091
20
8395.5385877282133
30
0
40
1.4999999999893545
210
0
220
0
230
1
100
AcDbArc
50
224.99911609053075
51
269.99999994434631
0
LINE
5
177
100
AcDbEntity
8
0
100
AcDbLine
10
14948.81257215098
20
8445.2064850419338
30
0
11
14956.16104137933
21
8437.8580158135828
31
0
0
ARC
5
178
100
AcDbEntity
8
0
100
AcDbCircle
10
14958.320437709945
20
8447.3658813725488
30
0
40
9.7499999999997158
210
0
220
0
230
1
100
AcDbArc
50
135
51
192.79577249603173
0
LWPOLYLINE
5
179
100
AcDbEntity
8
0
100
AcDbPolyline
90
4
70
1
43
0.0
10
14996.573047581649
20
8433.2658840929253
10
14996.573047581649
20
8461.465884092926
10
15008.073047581649
20
8461.465884092926
10
15008.073047581649
20
8433.2658840929253
0
LINE
5
180
100
AcDbEntity
8
0
100
AcDbLine
10
14967.828303268909
20
8449.5252777031619
30
0
11
14960.47983404056
21
8456.8737469315111
31
0
0
LWPOLYLINE
5
181
100
AcDbEntity
8
0
100
AcDbPolyline
90
4
70
1
43
0.0
10
14948.137111373544
20
8622.2234369365033
42
-0.4142135623731068
10
14976.504531092834
20
8593.8560172172147
42
-0.41421356237309503
10
14948.137111373546
20
8565.4885974979261
42
-0.41421356237309503
10
14919.769691654257
20
8593.8560172172147
42
-0.41421356237309503
0
ARC
5
182
100
AcDbEntity
8
0
100
AcDbCircle
10
14958.320437709945
20
8447.3658813725469
30
0
40
9.7499999999995808
210
0
220
0
230
1
100
AcDbArc
50
257.20422750258621
51
314.99999999861677
0
LWPOLYLINE
5
183
100
AcDbEntity
8
0
100
AcDbPolyline
90
4
70
1
43
0.0
10
15011.473047581649
20
8433.2658840929253
10
15011.473047581649
20
8461.465884092926
10
15022.973047581647
20
8461.465884092926
10
15022.973047581647
20
8433.2658840929253
0
ARC
5
184
100
AcDbEntity
8
0
100
AcDbCircle
10
14958.320437709945
20
8447.3658813725469
30
0
40
9.750000000000826
210
0
220
-0
230
1
100
AcDbArc
50
77.204227503968269
51
134.99999999999244
0
ARC
5
185
100
AcDbEntity
8
0
100
AcDbCircle
10
14958.320437709945
20
8447.3658813725469
30
0
40
9.7500000000005205
210
0
220
0
230
1
100
AcDbArc
50
-45.000000001383214
51
12.795772494639239
0
ARC
5
186
100
AcDbEntity
8
0
100
AcDbCircle
10
14907.965452111011
20
8495.6508256573325
30
0
40
1.4994843674689129
210
0
220
0
230
1
100
AcDbArc
50
179.48166822092469
51
236.43773953240427
0
LWPOLYLINE
5
187
100
AcDbEntity
8
0
100
AcDbPolyline
90
4
70
1
43
0.0
10
14990.460114964248
20
8570.4541751934921
42
-0.41421356237309503
10
14988.684972182855
20
8568.6790324120975
42
-0.41421356237290746
10
14986.909829401462
20
8570.4541751934921
42
-0.41421356237309503
10
14988.684972182855
20
8572.2293179748867
42
-0.41421356237290746
0
LWPOLYLINE
5
188
100
AcDbEntity
8
0
100
AcDbPolyline
90
4
70
1
43
0.0
10
14934.5941287801
20
8548.5677033817719
42
-0.41421356237309503
10
14932.814128780101
20
8546.7877033817731
42
-0.41421356237346918
10
14931.034128780102
20
8548.5677033817719
42
-0.41421356237309503
10
14932.814128780101
20
8550.3477033817726
42
-0.41421356237272089
0
LWPOLYLINE
5
189
100
AcDbEntity
8
0
100
AcDbPolyline
90
4
70
1
43
0.0
10
15017.021562754373
20
8538.4191051410126
42
-0.41421356237309503
10
15022.921562754373
20
8532.5191051410147
42
-0.41421356237309503
10
15017.021562754373
20
8526.6191051410151
42
-0.41421356237309503
10
15011.121562754375
20
8532.5191051410147
42
-0.41421356237309503
0
LWPOLYLINE
5
190
100
AcDbEntity
8
0
100
AcDbPolyline
90
4
70
1
43
0.0
10
14924.671101690768
20
8572.2324079334267
42
-0.41421356237309503
10
14926.446244472165
20
8570.4572651520321
42
-0.41421356237309503
10
14924.671101690768
20
8568.6821223706356
42
-0.41421356237309503
10
14922.895958909376
20
8570.4572651520321
42
-0.41421356237309503
0
LWPOLYLINE
5
191
100
AcDbEntity
8
0
100
AcDbPolyline
90
4
70
1
43
0.0
10
14971.021562754373
20
8538.4191051410162
42
-0.41421356237309503
10
14976.921562754371
20
8532.5191051410147
42
-0.41421356237309503
10
14971.021562754373
20
8526.6191051410151
42
-0.41421356237309503
10
14965.121562754373
20
8532.5191051410147
42
-0.41421356237298218
0
LWPOLYLINE
5
192
100
AcDbEntity
8
0
100
AcDbPolyline
90
4
70
1
43
0.0
10
14999.921562754374
20
8532.5191050729845
42
-0.41421356237309503
10
14994.021562754373
20
8526.6191050729849
42
-0.41421356237309503
10
14988.121562754375
20
8532.5191050729845
42
-0.41421356237315149
10
14994.021562754373
20
8538.4191050729842
42
-0.41421356237309503
0
LWPOLYLINE
5
193
100
AcDbEntity
8
0
100
AcDbPolyline
90
4
70
1
43
0.0
10
14969.899827718749
20
8570.440044184561
42
-0.41421356237309503
10
14971.674970500144
20
8572.2151869659556
42
-0.41421356237253226
10
14973.450113281542
20
8570.440044184561
42
-0.41421356237309503
10
14971.674970500146
20
8568.6649014031645
42
-0.41421356237309503
0
LWPOLYLINE
5
194
100
AcDbEntity
8
0
100
AcDbPolyline
90
4
70
1
43
0.0
10
15313.123290987583
20
8692.0274827882313
42
-0.41421356237309503
10
15311.123290987583
20
8690.0274827882313
42
-0.41421356237292856
10
15309.123290987582
20
8692.0274827882313
42
-0.41421356237309503
10
15311.123290987582
20
8694.0274827882313
42
-0.41421356237309503
0
LWPOLYLINE
5
195
100
AcDbEntity
8
0
100
AcDbPolyline
90
4
70
1
43
0.0
10
15154.056855918992
20
8791.2476031359474
42
-0.41421356237259555
10
15156.056855918994
20
8789.2476031359456
42
-0.41421356237276202
10
15154.056855918998
20
8787.2476031359456
42
-0.41421356237359452
10
15152.056855918996
20
8789.2476031359456
42
-0.41421356237292856
0
LWPOLYLINE
5
196
100
AcDbEntity
8
0
100
AcDbPolyline
90
4
70
1
43
0.0
10
15313.122597015989
20
8724.2153496117426
42
-0.41421356237292856
10
15311.122597015987
20
8722.2153496117426
42
-0.41421356237309503
10
15309.122597015987
20
8724.2153496117426
42
-0.41421356237309503
10
15311.122597015987
20
8726.2153496117407
42
-0.41421356237309503
0
ARC
5
197
100
AcDbEntity
8
0
100
AcDbCircle
10
15278.592775002755
20
8756.7328154611805
30
0
40
39.500000000000234
210
0
220
0
230
1
100
AcDbArc
50
232.81546649800882
51
318.91295382838945
0
LWPOLYLINE
5
198
100
AcDbEntity
8
0
100
AcDbPolyline
90
4
70
1
43
0.0
10
15208.739714398631
20
8809.2384022292408
42
-0.41421356237309503
10
15206.739714398629
20
8811.2384022292426
42
-0.41421356237309503
10
15208.739714398631
20
8813.2384022292426
42
-0.41421356237309503
10
15210.739714398631
20
8811.2384022292426
42
-0.41421356237309503
0
LWPOLYLINE
5
199
100
AcDbEntity
8
0
100
AcDbPolyline
90
4
70
1
43
0.0
10
15186.700339517776
20
8826.773280048199
42
-0.41421356237309503
10
15188.700339517778
20
8824.7732800481972
42
-0.41421356237309503
10
15186.700339517776
20
8822.7732800481972
42
-0.41421356237309503
10
15184.700339517776
20
8824.7732800481972
42
-0.41421356237309503
0
LWPOLYLINE
5
200
100
AcDbEntity
8
0
100
AcDbPolyline
90
4
70
1
43
0.0
10
15246.063374071393
20
8694.0274096003377
42
-0.41421356237342799
10
15248.063374071393
20
8692.0274096003395
42
-0.41421356237309503
10
15246.063374071393
20
8690.0274096003377
42
-0.41421356237276202
10
15244.063374071393
20
8692.0274096003395
42
-0.41421356237309503
0
ARC
5
201
100
AcDbEntity
8
0
100
AcDbCircle
10
15246.074984144481
20
8724.2031640603236
30
0
40
4.5000000000000808
210
0
220
0
230
1
100
AcDbArc
50
135.01090501920464
51
225.01090501920461
0
LWPOLYLINE
5
202
100
AcDbEntity
8
0
100
AcDbPolyline
90
8
70
1
43
0.0
10
15213.864714398633
20
8819.963402229243
42
-0.41421356237309503
10
15216.389714398631
20
8822.4884022292426
10
15287.089714398629
20
8822.4884022292426
42
-0.41421356237309503
10
15289.614714398631
20
8819.963402229243
10
15289.614714398631
20
8802.5134022292405
42
-0.4142135623729632
10
15287.089714398629
20
8799.9884022292426
10
15216.389714398631
20
8799.9884022292426
42
-0.41421356237335882
10
15213.864714398631
20
8802.5134022292405
0
ARC
5
203
100
AcDbEntity
8
0
100
AcDbCircle
10
15278.592775002755
20
8756.7328154611823
30
0
40
39.500000000001336
210
0
220
0
230
1
100
AcDbArc
50
-41.087046171612521
51
45.010441158767378
0
ARC
5
204
100
AcDbEntity
8
0
100
AcDbCircle
10
15278.592775002755
20
8756.7328154611805
30
0
40
39.50000000000103
210
0
220
-0
230
1
100
AcDbArc
50
45.01044115876924
51
131.10792848914124
0
ARC
5
205
100
AcDbEntity
8
0
100
AcDbCircle
10
15278.592775002755
20
8756.7328154611823
30
0
40
39.500000000000362
210
0
220
0
230
1
100
AcDbArc
50
131.10792848914295
51
217.20541581952523
0
ARC
5
206
100
AcDbEntity
8
0
100
AcDbCircle
10
15246.335628003639
20
8732.2435021290876
30
0
40
1.0000000000011062
210
0
220
0
230
1
100
AcDbArc
50
-44.989512065206867
51
37.205415819481956
0
ARC
5
207
100
AcDbEntity
8
0
100
AcDbCircle
10
15337.950142680816
20
8724.2002312285604
30
0
40
4.5000000000000808
210
0
220
0
230
1
100
AcDbArc
50
135.01090501922101
51
225.01090501918824
0
LWPOLYLINE
5
208
100
AcDbEntity
8
0
100
AcDbPolyline
90
4
70
1
43
0.0
10
15319.748015591776
20
8706.1622311242481
42
-0.41421356237342799
10
15317.748015591776
20
8708.1622311242463
42
-0.41421356237309503
10
15319.748015591776
20
8710.1622311242445
42
-0.41421356237309503
10
15321.748015591775
20
8708.1622311242463
42
-0.41421356237259555
0
ARC
5
209
100
AcDbEntity
8
0
100
AcDbCircle
10
15246.074984144481
20
8724.2031640603218
30
0
40
4.5000000000008846
210
0
220
0
230
1
100
AcDbArc
50
225.01090501918824
51
315.0109050191719
0
LWPOLYLINE
5
210
100
AcDbEntity
8
0
100
AcDbPolyline
90
4
70
1
43
0.0
10
15292.739714398631
20
8811.2384022292426
42
-0.41421356237309503
10
15294.739714398631
20
8813.2384022292426
42
-0.41421356237276202
10
15296.739714398631
20
8811.2384022292426
42
-0.41421356237309503
10
15294.739714398635
20
8809.2384022292408
42
-0.41421356237326151
0
LINE
5
211
100
AcDbEntity
8
0
100
AcDbLine
10
15242.892398064287
20
8727.3845388955397
30
0
11
15247.043239999963
21
8731.5369007243298
31
0
0
LWPOLYLINE
5
212
100
AcDbEntity
8
0
100
AcDbPolyline
90
4
70
1
43
0.0
10
15339.938185621932
20
8692.0277345102277
42
-0.41421356237309503
10
15337.938185621932
20
8690.0277345102259
42
-0.41421356237309503
10
15335.93818562193
20
8692.0277345102277
42
-0.41421356237326151
10
15337.93818562193
20
8694.0277345102259
42
-0.41421356237326151
0
ARC
5
213
100
AcDbEntity
8
0
100
AcDbCircle
10
15345.990378440667
20
8724.4638122705474
30
0
40
1.0000000000004361
210
0
220
-0
230
1
100
AcDbArc
50
52.815466497964884
51
135.01048793471944
0
LINE
5
214
100
AcDbEntity
8
0
100
AcDbLine
10
15222.941809372771
20
8832.3361823014566
30
0
11
15323.24849930856
21
8832.3361820007703
31
0
0
ARC
5
215
100
AcDbEntity
8
0
100
AcDbCircle
10
15337.950142680816
20
8724.2002312285586
30
0
40
4.4999999999984732
210
0
220
0
230
1
100
AcDbArc
50
225.01090501917187
51
315.01090501920464
0
LWPOLYLINE
5
216
100
AcDbEntity
8
0
100
AcDbPolyline
90
4
70
1
43
0.0
10
15244.063027085595
20
8789.2505359677089
42
-0.41421356237309503
10
15246.063027085595
20
8791.2505359677089
42
-0.41421356237309503
10
15248.063027085595
20
8789.2505359677089
42
-0.41421356237309503
10
15246.063027085598
20
8787.2505359677089
42
-0.41421356237326151
0
LWPOLYLINE
5
217
100
AcDbEntity
8
0
100
AcDbPolyline
90
4
70
1
43
0.0
10
15313.122944001785
20
8789.2506091556024
42
-0.41421356237309503
10
15311.122944001783
20
8787.2506091556006
42
-0.41421356237309503
10
15309.122944001783
20
8789.2506091556024
42
-0.41421356237309503
10
15311.122944001781
20
8791.2506091556006
42
-0.41421356237292856
0
LINE
5
218
100
AcDbEntity
8
0
100
AcDbLine
10
15249.257523905273
20
8721.0217428887445
30
0
11
15253.408369029872
21
8725.1741079076237
31
0
0
LINE
5
219
100
AcDbEntity
8
0
100
AcDbLine
10
15341.13268244161
20
8721.0188100569812
30
0
11
15345.283527566207
21
8725.1711750758623
31
0
0
ARC
5
220
100
AcDbEntity
8
0
100
AcDbCircle
10
15254.115219904334
20
8724.4667451023106
30
0
40
0.99999999999862443
210
0
220
-0
230
1
100
AcDbArc
50
52.815466497838912
51
135.01048793494053
0
ARC
5
221
100
AcDbEntity
8
0
100
AcDbCircle
10
15338.210786539976
20
8732.2405692973243
30
0
40
0.99999999999949807
210
0
220
0
230
1
100
AcDbArc
50
-44.989512065206867
51
37.205415819544967
0
LINE
5
222
100
AcDbEntity
8
0
100
AcDbLine
10
15334.76755660062
20
8727.3816060637764
30
0
11
15338.918398536298
21
8731.5339678925666
31
0
0
LWPOLYLINE
5
223
100
AcDbEntity
8
0
100
AcDbPolyline
90
4
70
1
43
0.0
10
15329.734765691863
20
8826.7732800481972
42
-0.41421356237342799
10
15331.734765691863
20
8824.773280048199
42
-0.41421356237326151
10
15329.734765691863
20
8822.7732800481972
42
-0.41421356237276202
10
15327.734765691861
20
8824.773280048199
42
-0.41421356237309503
0
LINE
5
224
100
AcDbEntity
8
0
100
AcDbLine
10
15429.40875338675
20
8832.3361999572116
30
0
11
15588.492689137387
21
8832.3361999572116
31
0
0
LWPOLYLINE
5
225
100
AcDbEntity
8
0
100
AcDbPolyline
90
4
70
1
43
0.0
10
15319.732633758718
20
8822.7732800481972
42
-0.41421356237326151
10
15317.732633758715
20
8824.7732800481972
42
-0.41421356237309503
10
15319.732633758715
20
8826.773280048199
42
-0.41421356237309503
10
15321.732633758715
20
8824.7732800481972
42
-0.41421356237326151
0
LWPOLYLINE
5
226
100
AcDbEntity
8
0
100
AcDbPolyline
90
4
70
1
43
0.0
10
15337.938185621933
20
8787.2476031359438
42
-0.41421356237326151
10
15335.93818562193
20
8789.2476031359456
42
-0.41421356237309503
10
15337.938185621932
20
8791.2476031359438
42
-0.41421356237309503
10
15339.938185621932
20
8789.2476031359456
42
-0.41421356237309503
0
LWPOLYLINE
5
227
100
AcDbEntity
8
0
100
AcDbPolyline
90
8
70
1
43
0.0
10
15353.328670422561
20
8800.7384022521728
42
-0.41421356237309503
10
15348.328670422561
20
8805.7384022521728
10
15348.328670422561
20
8816.7384022523729
42
-0.41421356237309503
10
15353.328670422561
20
8821.7384022523729
10
15401.328670422557
20
8821.7384022523729
42
-0.41421356237329482
10
15406.328670422561
20
8816.7384022523729
10
15406.328670422561
20
8805.7384022521728
42
-0.41421356237309503
10
15401.328670422561
20
8800.7384022521728
0
ARC
5
228
100
AcDbEntity
8
0
100
AcDbCircle
10
15323.248501792905
20
8830.8361830142312
30
0
40
1.499998986541119
210
0
220
-0
230
1
100
AcDbArc
50
28.072707894678508
51
90.000094895045564
0
LINE
5
229
100
AcDbEntity
8
0
100
AcDbLine
10
15428.944244132372
20
8812.038571474377
30
0
11
15588.944244132372
21
8812.038571474377
31
0
0
LWPOLYLINE
5
230
100
AcDbEntity
8
0
100
AcDbPolyline
90
4
70
1
43
0.0
10
15311.364714398627
20
8811.2384022292426
42
-0.41421356237309503
10
15314.864714398629
20
8814.7384022292426
42
-0.41421356237309503
10
15318.364714398631
20
8811.2384022292426
42
-0.41421356237309503
10
15314.864714398631
20
8807.7384022292408
42
-0.41421356237280965
0
LWPOLYLINE
5
231
100
AcDbEntity
8
0
100
AcDbPolyline
90
4
70
1
43
0.0
10
15345.203670422561
20
8811.2384022062106
42
-0.41421356237276202
10
15343.203670422563
20
8809.2384022062124
42
-0.41421356237359452
10
15341.203670422563
20
8811.2384022062106
42
-0.41421356237292856
10
15343.203670422563
20
8813.2384022062088
42
-0.41421356237309503
0
LINE
5
232
100
AcDbEntity
8
0
100
AcDbLine
10
15348.328670422561
20
8816.7384022522729
30
0
11
15348.328670422561
21
8805.7384022522729
31
0
0
ARC
5
233
100
AcDbEntity
8
0
100
AcDbCircle
10
15904.971748714053
20
8395.538586758561
30
0
40
1.4999999999952252
210
0
220
0
230
1
100
AcDbArc
50
269.99999994434631
51
359.99968627681045
0
LWPOLYLINE
5
234
100
AcDbEntity
8
0
100
AcDbPolyline
90
4
70
1
43
0.0
10
15411.453670422561
20
8809.2384022062106
42
-0.41421356237309503
10
15409.453670422561
20
8811.2384022062106
42
-0.41421356237292856
10
15411.453670422561
20
8813.2384022062088
42
-0.41421356237309503
10
15413.453670422561
20
8811.2384022062106
42
-0.41421356237309503
0
ARC
5
235
100
AcDbEntity
8
0
100
AcDbCircle
10
15429.408753381702
20
8830.8361999622575
30
0
40
1.4999999949532139
210
0
220
-0
230
1
100
AcDbArc
50
89.999999807192239
51
151.92751309383556
0
ARC
5
236
100
AcDbEntity
8
0
100
AcDbCircle
10
15588.94424413237
20
8811.0385714743752
30
0
40
1.0000000000013642
210
0
220
-0
230
1
100
AcDbArc
50
0
51
89.999999999895778
0
ARC
5
237
100
AcDbEntity
8
0
100
AcDbCircle
10
15591.493683816761
20
8830.655733904814
30
0
40
1.5000000000038758
210
0
220
-0
230
1
100
AcDbArc
50
88.59192334171226
51
148.71677835403929
0
LWPOLYLINE
5
238
100
AcDbEntity
8
0
100
AcDbPolyline
90
4
70
1
43
0.0
10
15596.064244132373
20
8822.7732800482008
42
-0.41421356237342799
10
15594.064244132369
20
8824.7732800481972
42
-0.41421356237342799
10
15596.064244132373
20
8826.7732800481972
42
-0.41421356237309503
10
15598.064244132369
20
8824.7732800481972
42
-0.41421356237309503
0
LWPOLYLINE
5
239
100
AcDbEntity
8
0
100
AcDbPolyline
90
4
70
1
43
0.0
10
15704.484698982185
20
8819.0084231708515
42
-0.41421356237309503
10
15706.484698982185
20
8821.0084231708533
42
-0.41421356237309503
10
15708.484698982185
20
8819.0084231708515
42
-0.41421356237309503
10
15706.484698982185
20
8817.0084231708533
42
-0.41421356237309503
0
ARC
5
240
100
AcDbEntity
8
0
100
AcDbCircle
10
15426.408753386746
20
8830.8361999572044
30
0
40
1.5000000000083995
210
0
220
-0
230
1
100
AcDbArc
50
28.072487008353576
51
90.000002512267869
0
ARC
5
241
100
AcDbEntity
8
0
100
AcDbCircle
10
15588.492689142231
20
8830.8361999620611
30
0
40
1.499999995149067
210
0
220
-0
230
1
100
AcDbArc
50
24.400499490179371
51
90.000000185025982
0
LINE
5
242
100
AcDbEntity
8
0
100
AcDbLine
10
15406.328670422561
20
8805.7384022522729
30
0
11
15406.328670422561
21
8816.7384022522729
31
0
0
LWPOLYLINE
5
243
100
AcDbEntity
8
0
100
AcDbPolyline
90
4
70
1
43
0.0
10
15419.822296846532
20
8824.7732800481972
42
-0.41421356237309503
10
15421.822296846532
20
8826.7732800481954
42
-0.41421356237309503
10
15423.822296846531
20
8824.7732800481972
42
-0.41421356237259555
10
15421.822296846532
20
8822.773280048199
42
-0.41421356237342799
0
LINE
5
244
100
AcDbEntity
8
0
100
AcDbLine
10
15906.472280426471
20
8492.6458730709237
30
0
11
15906.471748714028
21
8395.5385785452945
31
0
0
ARC
5
245
100
AcDbEntity
8
0
100
AcDbCircle
10
15785.574565548777
20
8434.0385794165959
30
0
40
6.2500000000011067
210
0
220
0
230
1
100
AcDbArc
50
197.57745107483086
51
270
0
ARC
5
246
100
AcDbEntity
8
0
100
AcDbCircle
10
15785.574565548777
20
8434.038579416394
30
0
40
6.2500000000007638
210
0
220
-0
230
1
100
AcDbArc
50
17.577451074814981
51
90
0
ARC
5
247
100
AcDbEntity
8
0
100
AcDbCircle
10
15785.574565548777
20
8434.038579416394
30
0
40
6.25
210
0
220
-0
230
1
100
AcDbArc
50
90
51
162.42254892518505
0
ARC
5
248
100
AcDbEntity
8
0
100
AcDbCircle
10
15428.94424413237
20
8811.0385714743788
30
0
40
0.99999999999909051
210
0
220
-0
230
1
100
AcDbArc
50
89.999999999895778
51
180
0
ARC
5
249
100
AcDbEntity
8
0
100
AcDbCircle
10
15785.574565548777
20
8434.0385794165959
30
0
40
6.2500000000011369
210
0
220
0
230
1
100
AcDbArc
50
270
51
342.42254892516917
0
LINE
5
250
100
AcDbEntity
8
0
100
AcDbLine
10
15779.61638059536
20
8435.926046518327
30
0
11
15779.616380595362
21
8432.151112314461
31
0
0
LINE
5
251
100
AcDbEntity
8
0
100
AcDbLine
10
15906.473418102029
20
8700.4209523120117
30
0
11
15906.472296853017
21
8495.6458730708782
31
0
0
LINE
5
252
100
AcDbEntity
8
0
100
AcDbLine
10
15791.532750502194
20
8432.151112314461
30
0
11
15791.532750502194
21
8435.926046518327
31
0
0
LWPOLYLINE
5
253
100
AcDbEntity
8
0
100
AcDbPolyline
90
4
70
1
43
0.0
10
15148.508145901187
20
8467.6471980551069
42
-0.41421356237309503
10
15142.608145901186
20
8461.7471980551072
42
-0.41421356237309503
10
15136.708145901186
20
8467.6471980551069
42
-0.41421356237315149
10
15142.608145901186
20
8473.5471980551065
42
-0.41421356237309503
0
LWPOLYLINE
5
254
100
AcDbEntity
8
0
100
AcDbPolyline
90
4
70
1
43
0.0
10
15204.772715729696
20
8461.465884092926
10
15204.772715729696
20
8433.2658840929253
10
15193.272715729694
20
8433.2658840929253
10
15193.272715729694
20
8461.465884092926
0
LWPOLYLINE
5
255
100
AcDbEntity
8
0
100
AcDbPolyline
90
6
70
1
43
0.0
10
15161.194771073649
20
8419.6218324415604
42
-0.30369697790646411
10
15155.694771073649
20
8423.3019205489982
10
15155.694771073651
20
8427.8417443341241
42
-0.30369697790635136
10
15161.194771073649
20
8431.5218324415619
42
-0.30369697790650396
10
15166.694771073651
20
8427.8417443341241
10
15166.694771073649
20
8423.3019205489982
42
-0.30369697790646411
0
LWPOLYLINE
5
256
100
AcDbEntity
8
0
100
AcDbPolyline
90
4
70
1
43
0.0
10
15180.842753717307
20
8397.9284391405054
42
-0.41421356237309503
10
15178.742753717306
20
8400.0284391405057
42
-0.41421356237309503
10
15180.842753717307
20
8402.1284391405061
42
-0.41421356237309503
10
15182.942753717307
20
8400.0284391405057
42
-0.41421356237293649
0
LWPOLYLINE
5
257
100
AcDbEntity
8
0
100
AcDbPolyline
90
6
70
1
43
0.0
10
15141.186253192627
20
8431.5654955644477
42
-0.30369697790645572
10
15146.686253192629
20
8427.8854074570118
10
15146.686253192627
20
8423.3455836718858
42
-0.30369697790646411
10
15141.186253192627
20
8419.6654955644481
42
-0.30369697790646411
10
15135.686253192627
20
8423.3455836718858
10
15135.686253192627
20
8427.8854074570118
42
-0.30369697790646411
0
LINE
5
258
100
AcDbEntity
8
0
100
AcDbLine
10
15324.19667316202
20
8368.8132640857912
30
0
11
15304.82921426808
21
8389.1807229797305
31
0
0
LWPOLYLINE
5
259
100
AcDbEntity
8
0
100
AcDbPolyline
90
4
70
1
43
0.0
10
15285.170370048985
20
8402.1483108635693
42
-0.41421356237309503
10
15287.270370048987
20
8400.048310863569
42
-0.41421356237293649
10
15285.170370048985
20
8397.9483108635686
42
-0.41421356237309503
10
15283.070370048987
20
8400.048310863569
42
-0.41421356237309503
0
ARC
5
260
100
AcDbEntity
8
0
100
AcDbCircle
10
15338.338808785749
20
8382.9553997095172
30
0
40
19.999999999996142
210
0
220
0
230
1
100
AcDbArc
50
224.99999999999261
51
270.00000000001046
0
LWPOLYLINE
5
261
100
AcDbEntity
8
0
100
AcDbPolyline
90
4
70
1
43
0.0
10
15189.872715729696
20
8461.465884092926
10
15189.872715729696
20
8433.2658840929253
10
15178.372715729694
20
8433.2658840929253
10
15178.372715729694
20
8461.465884092926
0
ARC
5
262
100
AcDbEntity
8
0
100
AcDbCircle
10
15290.94020848841
20
8371.7613852386239
30
0
40
22.278640193837514
210
0
220
-0
230
1
100
AcDbArc
50
51.43350271024601
51
90.651008435032765
0
LWPOLYLINE
5
263
100
AcDbEntity
8
0
100
AcDbPolyline
90
8
70
1
43
0.0
10
15334.87327175415
20
8428.9330028598924
10
15333.87327175415
20
8428.9330028598924
42
-0.41421356237292856
10
15331.87327175415
20
8430.9330028598924
10
15331.873271754148
20
8456.9330028598906
42
-0.41421356237359452
10
15333.87327175415
20
8458.9330028598906
10
15334.87327175415
20
8458.9330028598906
42
-0.41421356237309503
10
15336.87327175415
20
8456.9330028598906
10
15336.87327175415
20
8430.9330028598924
42
-0.41421356237309503
0
LWPOLYLINE
5
264
100
AcDbEntity
8
0
100
AcDbPolyline
90
6
70
1
43
0.0
10
15282.718994759027
20
8461.6648438645898
42
-0.30369697790641592
10
15277.218994759027
20
8465.3449319720276
10
15277.218994759027
20
8469.8847557571535
42
-0.30369697790646411
10
15282.718994759027
20
8473.5648438645894
42
-0.30369697790646411
10
15288.218994759027
20
8469.8847557571535
10
15288.218994759027
20
8465.3449319720276
42
-0.30369697790646411
0
LWPOLYLINE
5
265
100
AcDbEntity
8
0
100
AcDbPolyline
90
4
70
1
43
0.0
10
15282.718994759027
20
8421.8874454447705
42
-0.41421356237309503
10
15278.968994759027
20
8425.6374454447705
42
-0.41421356237309503
10
15282.718994759025
20
8429.3874454447723
42
-0.41421356237318385
10
15286.468994759027
20
8425.6374454447705
42
-0.41421356237309503
0
LWPOLYLINE
5
266
100
AcDbEntity
8
0
100
AcDbPolyline
90
4
70
1
43
0.0
10
15282.718994759027
20
8418.996648902892
42
-0.41421356237309503
10
15283.828198153678
20
8417.8874455082423
42
-0.41421356237309503
10
15282.71899475903
20
8416.7782421135926
42
-0.41421356237279483
10
15281.609791364375
20
8417.8874455082423
42
-0.41421356237339524
0
LWPOLYLINE
5
267
100
AcDbEntity
8
0
100
AcDbPolyline
90
4
70
1
43
0.0
10
15251.361550711717
20
8467.6148438645905
42
-0.41421356237309503
10
15245.461550711716
20
8461.7148438645891
42
-0.41421356237309503
10
15239.561550711715
20
8467.6148438645905
42
-0.41421356237309503
10
15245.461550711716
20
8473.5148438645883
42
-0.41421356237309503
0
ARC
5
268
100
AcDbEntity
8
0
100
AcDbCircle
10
15219.107448167128
20
8626.9798427638871
30
0
40
4.5000000000016884
210
0
220
0
230
1
100
AcDbArc
50
224.9890949808281
51
314.98909498081179
0
ARC
5
269
100
AcDbEntity
8
0
100
AcDbCircle
10
15219.107448167128
20
8626.9798427638871
30
0
40
4.499999999999277
210
0
220
0
230
1
100
AcDbArc
50
-45.01090501918825
51
44.989094980811757
0
LINE
5
270
100
AcDbEntity
8
0
100
AcDbLine
10
15359.623271340901
20
8408.9330028598906
30
0
11
15359.623271340901
21
8478.9330028598906
31
0
0
LINE
5
271
100
AcDbEntity
8
0
100
AcDbLine
10
15344.623271340901
20
8478.9330028598906
30
0
11
15344.623271340901
21
8408.9330028598906
31
0
0
LWPOLYLINE
5
272
100
AcDbEntity
8
0
100
AcDbPolyline
90
4
70
1
43
0.0
10
15080.121562754373
20
8532.5191050729845
42
-0.4142135623732644
10
15086.021562754375
20
8538.4191050729842
42
-0.41421356237309503
10
15091.921562754374
20
8532.5191050729845
42
-0.41421356237298218
10
15086.021562754375
20
8526.6191050729831
42
-0.41421356237309503
0
LWPOLYLINE
5
273
100
AcDbEntity
8
0
100
AcDbPolyline
90
4
70
1
43
0.0
10
15147.420320730376
20
8548.5677033801294
42
-0.41421356237309503
10
15145.640320730377
20
8546.7877033801306
42
-0.41421356237309503
10
15143.860320730379
20
8548.5677033801294
42
-0.41421356237309503
10
15145.640320730377
20
8550.3477033801319
42
-0.41421356237309503
0
LWPOLYLINE
5
274
100
AcDbEntity
8
0
100
AcDbPolyline
90
4
70
1
43
0.0
10
15169.815409369539
20
8559.2008957922753
42
-0.41421356237309503
10
15167.215409369537
20
8561.8008957922757
42
-0.41421356237296697
10
15169.815409369539
20
8564.4008957922761
42
-0.41421356237309503
10
15172.415409369542
20
8561.8008957922757
42
-0.41421356237309503
0
LWPOLYLINE
5
275
100
AcDbEntity
8
0
100
AcDbPolyline
90
4
70
1
43
0.0
10
15063.021562754375
20
8538.4191050729842
42
-0.41421356237309503
10
15068.921562754376
20
8532.5191050729845
42
-0.41421356237309503
10
15063.021562754375
20
8526.6191050729831
42
-0.41421356237309503
10
15057.121562754375
20
8532.5191050729845
42
-0.41421356237309503
0
LWPOLYLINE
5
276
100
AcDbEntity
8
0
100
AcDbPolyline
90
4
70
1
43
0.0
10
15199.28624139664
20
8578.7711112589641
42
-0.4142135623730151
10
15186.78624139664
20
8566.2711112589641
42
-0.41421356237309503
10
15174.28624139664
20
8578.7711112589641
42
-0.41421356237309503
10
15186.78624139664
20
8591.2711112589641
42
-0.41421356237309503
0
LWPOLYLINE
5
277
100
AcDbEntity
8
0
100
AcDbPolyline
90
4
70
1
43
0.0
10
15145.640320730377
20
8513.9615114298813
42
-0.41421356237309503
10
15143.860320730375
20
8515.7415114298801
42
-0.41421356237309503
10
15145.640320730377
20
8517.5215114298808
42
-0.41421356237309503
10
15147.420320730376
20
8515.7415114298801
42
-0.41421356237309503
0
LWPOLYLINE
5
278
100
AcDbEntity
8
0
100
AcDbPolyline
90
4
70
1
43
0.0
10
15180.982744424859
20
8497.1876240924248
42
-0.41421356237292856
10
15178.982744424857
20
8499.1876240924248
42
-0.41421356237309503
10
15180.982744424857
20
8501.1876240924248
42
-0.41421356237309503
10
15182.982744424859
20
8499.1876240924248
42
-0.41421356237309503
0
LWPOLYLINE
5
279
100
AcDbEntity
8
0
100
AcDbPolyline
90
4
70
1
43
0.0
10
15191.696664033354
20
8501.1876240924266
42
-0.41421356237309503
10
15193.696664033356
20
8499.1876240924266
42
-0.41421356237309503
10
15191.696664033354
20
8497.187624092423
42
-0.41421356237276202
10
15189.696664033354
20
8499.1876240924266
42
-0.41421356237309503
0
LINE
5
280
100
AcDbEntity
8
0
100
AcDbLine
10
15222.290034247322
20
8630.1612175991031
30
0
11
15218.139192311646
21
8634.3135794278933
31
0
0
ARC
5
281
100
AcDbEntity
8
0
100
AcDbCircle
10
15186.589188877479
20
8659.5108822564325
30
0
40
39.500865615441541
210
0
220
0
230
1
100
AcDbArc
50
232.81717297914597
51
307.19202518310175
0
LWPOLYLINE
5
282
100
AcDbEntity
8
0
100
AcDbPolyline
90
4
70
1
43
0.0
10
15142.698163079225
20
8615.0475445068787
42
-0.41421356237309503
10
15140.698163079225
20
8613.0475445068787
42
-0.41421356237309503
10
15138.698163079225
20
8615.0475445068787
42
-0.41421356237309503
10
15140.698163079225
20
8617.0475445068787
42
-0.41421356237309503
0
LWPOLYLINE
5
283
100
AcDbEntity
8
0
100
AcDbPolyline
90
4
70
1
43
0.0
10
15129.369834663359
20
8626.9925481542632
42
-0.41421356237309503
10
15127.369834663359
20
8624.9925481542614
42
-0.41421356237309503
10
15125.369834663361
20
8626.9925481542632
42
-0.41421356237259555
10
15127.369834663359
20
8628.9925481542614
42
-0.41421356237292856
0
ARC
5
284
100
AcDbEntity
8
0
100
AcDbCircle
10
15154.07186645058
20
8626.9798427638871
30
0
40
4.5000000000008846
210
0
220
0
230
1
100
AcDbArc
50
135.01090501918824
51
225.01090501918824
0
ARC
5
285
100
AcDbEntity
8
0
100
AcDbCircle
10
15154.07186645058
20
8626.9798427638871
30
0
40
4.5000000000008846
210
0
220
0
230
1
100
AcDbArc
50
225.01090501918824
51
315.0109050191719
0
LWPOLYLINE
5
286
100
AcDbEntity
8
0
100
AcDbPolyline
90
4
70
1
43
0.0
10
15050.668441172096
20
8615.0469898237661
42
-0.41421356237309503
10
15052.668441172098
20
8617.0469898237661
42
-0.41421356237309503
10
15054.668441172098
20
8615.0469898237661
42
-0.41421356237309503
10
15052.6684411721
20
8613.0469898237661
42
-0.41421356237292856
0
LWPOLYLINE
5
287
100
AcDbEntity
8
0
100
AcDbPolyline
90
4
70
1
43
0.0
10
15203.757073423738
20
8559.2008957922753
42
-0.41421356237309503
10
15201.157073423738
20
8561.8008957922757
42
-0.41421356237309503
10
15203.757073423738
20
8564.4008957922761
42
-0.41421356237309503
10
15206.357073423736
20
8561.8008957922757
42
-0.41421356237309503
0
LWPOLYLINE
5
288
100
AcDbEntity
8
0
100
AcDbPolyline
90
4
70
1
43
0.0
10
15064.309841410295
20
8626.9922232443751
42
-0.41421356237259555
10
15062.309841410297
20
8624.9922232443732
42
-0.41421356237309503
10
15060.309841410297
20
8626.9922232443751
42
-0.41421356237309503
10
15062.309841410297
20
8628.9922232443714
42
-0.41421356237309503
0
LWPOLYLINE
5
289
100
AcDbEntity
8
0
100
AcDbPolyline
90
4
70
1
43
0.0
10
15172.415409369542
20
8595.7413267256543
42
-0.41421356237296697
10
15169.815409369541
20
8593.1413267256557
42
-0.41421356237309503
10
15167.215409369543
20
8595.7413267256543
42
-0.41421356237309503
10
15169.815409369541
20
8598.3413267256565
42
-0.41421356237283891
0
LWPOLYLINE
5
290
100
AcDbEntity
8
0
100
AcDbPolyline
90
4
70
1
43
0.0
10
15203.75707342374
20
8593.1413267256557
42
-0.41421356237296697
10
15201.157073423738
20
8595.7413267256543
42
-0.41421356237309503
10
15203.757073423738
20
8598.3413267256547
42
-0.41421356237309503
10
15206.357073423736
20
8595.7413267256543
42
-0.41421356237309503
0
LINE
5
291
100
AcDbEntity
8
0
100
AcDbLine
10
15341.13194522696
20
8523.7070181012768
30
0
11
15345.282790351557
21
8527.8593831201561
31
0
0
LWPOLYLINE
5
292
100
AcDbEntity
8
0
100
AcDbPolyline
90
4
70
1
43
0.0
10
15244.062950748719
20
8526.9002999143886
42
-0.41421356237309503
10
15246.062950748719
20
8528.9002999143868
42
-0.41421356237292856
10
15248.062950748719
20
8526.9002999143886
42
-0.41421356237309503
10
15246.062950748719
20
8524.9002999143868
42
-0.41421356237309503
0
LWPOLYLINE
5
293
100
AcDbEntity
8
0
100
AcDbPolyline
90
4
70
1
43
0.0
10
15278.593121988552
20
8519.9180906737147
42
-0.41421356237309503
10
15239.093121988553
20
8559.4180906737147
42
-0.41421356237309503
10
15278.593121988552
20
8598.9180906737147
42
-0.41421356237308665
10
15318.093121988552
20
8559.4180906737147
42
-0.41421356237309503
0
LINE
5
294
100
AcDbEntity
8
0
100
AcDbLine
10
15157.254406211376
20
8623.7984215923079
30
0
11
15161.405251335971
21
8627.9507866111871
31
0
0
ARC
5
295
100
AcDbEntity
8
0
100
AcDbCircle
10
15211.066827077211
20
8627.2438092770317
30
0
40
1.0000000000003024
210
0
220
-0
230
1
100
AcDbArc
50
44.989512065133191
51
127.18339414791632
0
LWPOLYLINE
5
296
100
AcDbEntity
8
0
100
AcDbPolyline
90
4
70
1
43
0.0
10
15330.913296287918
20
8501.787624078579
42
-0.41421356237309503
10
15333.513296287918
20
8499.1876240785787
42
-0.41421356237309503
10
15330.913296287918
20
8496.5876240785801
42
-0.41421356237309503
10
15328.313296287917
20
8499.1876240785787
42
-0.41421356237309503
0
LINE
5
297
100
AcDbEntity
8
0
100
AcDbLine
10
15334.766819385972
20
8530.069814108072
30
0
11
15338.917661321648
21
8534.222175936864
31
0
0
LINE
5
298
100
AcDbEntity
8
0
100
AcDbLine
10
15215.924908406334
20
8623.7984215923079
30
0
11
15211.774063281737
21
8627.9507866111871
31
0
0
LWPOLYLINE
5
299
100
AcDbEntity
8
0
100
AcDbPolyline
90
4
70
1
43
0.0
10
15149.177211160088
20
8640.3009928998617
42
-0.41421356237309503
10
15151.177211160088
20
8638.3009928998599
42
-0.41421356237309503
10
15149.177211160088
20
8636.3009928998599
42
-0.41421356237309503
10
15147.177211160088
20
8638.3009928998599
42
-0.41421356237309503
0
ARC
5
300
100
AcDbEntity
8
0
100
AcDbCircle
10
15154.332886101536
20
8635.0205567620487
30
0
40
1.0000000000003024
210
0
220
0
230
1
100
AcDbArc
50
-44.989512065133191
51
37.205112801831703
0
LWPOLYLINE
5
301
100
AcDbEntity
8
0
100
AcDbPolyline
90
4
70
1
43
0.0
10
15313.122944001785
20
8526.9006248242767
42
-0.41421356237309503
10
15311.122944001785
20
8524.9006248242767
42
-0.41421356237292856
10
15309.122944001785
20
8526.9006248242767
42
-0.41421356237309503
10
15311.122944001785
20
8528.9006248242767
42
-0.41421356237309503
0
ARC
5
302
100
AcDbEntity
8
0
100
AcDbCircle
10
15162.112071649684
20
8627.2433932339372
30
0
40
0.99999999999883626
210
0
220
-0
230
1
100
AcDbArc
50
52.81717297859754
51
135.01048793494053
0
LINE
5
303
100
AcDbEntity
8
0
100
AcDbLine
10
15150.889280370386
20
8630.1612175991031
30
0
11
15155.040122306062
21
8634.3135794278933
31
0
0
ARC
5
304
100
AcDbEntity
8
0
100
AcDbCircle
10
15218.84642851617
20
8635.0205567620505
30
0
40
0.99999999999907296
210
0
220
0
230
1
100
AcDbArc
50
142.79488719818829
51
224.98951206528056
0
ARC
5
305
100
AcDbEntity
8
0
100
AcDbCircle
10
15337.949405466168
20
8526.888439272856
30
0
40
4.5000000000008846
210
0
220
0
230
1
100
AcDbArc
50
135.01090501920464
51
225.01090501917187
0
ARC
5
306
100
AcDbEntity
8
0
100
AcDbCircle
10
15345.98964122602
20
8527.1520203148411
30
0
40
0.99999999999953026
210
0
220
-0
230
1
100
AcDbArc
50
52.815466497964884
51
135.0104879347931
0
ARC
5
307
100
AcDbEntity
8
0
100
AcDbCircle
10
15337.949405466168
20
8526.888439272856
30
0
40
4.5000000000016884
210
0
220
0
230
1
100
AcDbArc
50
225.01090501917187
51
315.01090501918821
0
LWPOLYLINE
5
308
100
AcDbEntity
8
0
100
AcDbPolyline
90
4
70
1
43
0.0
10
15248.063374071393
20
8591.935811180243
42
-0.41421356237309503
10
15246.063374071397
20
8589.935811180243
42
-0.41421356237326151
10
15244.063374071393
20
8591.935811180243
42
-0.41421356237309503
10
15246.063374071393
20
8593.935811180243
42
-0.41421356237309503
0
LWPOLYLINE
5
309
100
AcDbEntity
8
0
100
AcDbPolyline
90
4
70
1
43
0.0
10
15311.123290987582
20
8593.9358843681348
42
-0.41421356237309503
10
15313.123290987583
20
8591.9358843681348
42
-0.41421356237309503
10
15311.123290987582
20
8589.9358843681348
42
-0.41421356237276202
10
15309.123290987582
20
8591.9358843681348
42
-0.41421356237309503
0
ARC
5
310
100
AcDbEntity
8
0
100
AcDbCircle
10
15338.21078653997
20
8635.0207006716064
30
0
40
1.0000000000019107
210
0
220
0
230
1
100
AcDbArc
50
-44.989512064985817
51
37.205415819355906
0
ARC
5
311
100
AcDbEntity
8
0
100
AcDbCircle
10
15338.210049325326
20
8534.9287773416199
30
0
40
1.0000000000011062
210
0
220
0
230
1
100
AcDbArc
50
-44.989512065133191
51
37.20541581950193
0
LWPOLYLINE
5
312
100
AcDbEntity
8
0
100
AcDbPolyline
90
4
70
1
43
0.0
10
15232.74667863094
20
8613.0468841951151
42
-0.41421356237309503
10
15230.74667863094
20
8615.0468841951151
42
-0.41421356237309503
10
15232.74667863094
20
8617.0468841951169
42
-0.41421356237309503
10
15234.746678630941
20
8615.0468841951151
42
-0.41421356237309503
0
LWPOLYLINE
5
313
100
AcDbEntity
8
0
100
AcDbPolyline
90
4
70
1
43
0.0
10
15337.937448407283
20
8593.9358111802394
42
-0.41421356237309503
10
15339.937448407283
20
8591.935811180243
42
-0.41421356237309503
10
15337.937448407283
20
8589.9358111802412
42
-0.41421356237309503
10
15335.937448407285
20
8591.935811180243
42
-0.41421356237309503
0
LWPOLYLINE
5
314
100
AcDbEntity
8
0
100
AcDbPolyline
90
4
70
1
43
0.0
10
15311.122944001785
20
8624.9922232443732
42
-0.41421356237309503
10
15309.122944001785
20
8626.9922232443732
42
-0.41421356237309503
10
15311.122944001785
20
8628.9922232443732
42
-0.41421356237309503
10
15313.122944001787
20
8626.9922232443732
42
-0.41421356237309503
0
LWPOLYLINE
5
315
100
AcDbEntity
8
0
100
AcDbPolyline
90
4
70
1
43
0.0
10
15319.758550809083
20
8617.0746703689092
42
-0.41421356237309503
10
15321.758550809083
20
8615.074670368911
42
-0.41421356237292856
10
15319.758550809083
20
8613.074670368911
42
-0.41421356237309503
10
15317.758550809083
20
8615.074670368911
42
-0.41421356237309503
0
ARC
5
316
100
AcDbEntity
8
0
100
AcDbCircle
10
15337.950142680816
20
8626.9803626028424
30
0
40
4.499999999999277
210
0
220
0
230
1
100
AcDbArc
50
135.01090501918824
51
225.01090501918824
0
LWPOLYLINE
5
317
100
AcDbEntity
8
0
100
AcDbPolyline
90
4
70
1
43
0.0
10
15248.062950748719
20
8626.9918983344869
42
-0.41421356237309503
10
15246.062950748719
20
8624.9918983344869
42
-0.41421356237309503
10
15244.062950748721
20
8626.9918983344869
42
-0.41421356237259555
10
15246.062950748719
20
8628.9918983344851
42
-0.41421356237292856
0
ARC
5
318
100
AcDbEntity
8
0
100
AcDbCircle
10
15337.950142680816
20
8626.9803626028424
30
0
40
4.499999999999277
210
0
220
0
230
1
100
AcDbArc
50
225.01090501918824
51
315.01090501918821
0
LWPOLYLINE
5
319
100
AcDbEntity
8
0
100
AcDbPolyline
90
4
70
1
43
0.0
10
15596.064271606032
20
8397.9391809727695
42
-0.41421356237309503
10
15593.964271606033
20
8400.0391809727698
42
-0.41421356237309503
10
15596.064271606032
20
8402.1391809727702
42
-0.41421356237325357
10
15598.164271606034
20
8400.0391809727698
42
-0.41421356237309503
0
LINE
5
320
100
AcDbEntity
8
0
100
AcDbLine
10
15341.13268244161
20
8623.7989414312651
30
0
11
15345.283527566207
21
8627.9513064501425
31
0
0
LWPOLYLINE
5
321
100
AcDbEntity
8
0
100
AcDbPolyline
90
4
70
1
43
0.0
10
15527.772366504287
20
8397.9284391405035
42
-0.41421356237325357
10
15525.672366504286
20
8400.0284391405057
42
-0.41421356237309503
10
15527.772366504287
20
8402.1284391405061
42
-0.41421356237309503
10
15529.872366504287
20
8400.0284391405057
42
-0.41421356237309503
0
LINE
5
322
100
AcDbEntity
8
0
100
AcDbLine
10
15589.94424413237
20
8577.2710599720449
30
0
11
15589.979443073647
21
8465.6226185201886
31
0
0
LWPOLYLINE
5
323
100
AcDbEntity
8
0
100
AcDbPolyline
90
4
70
1
43
0.0
10
15561.427795774976
20
8443.5385790899727
42
-0.41421356237309503
10
15570.927795774976
20
8434.0385790899745
42
-0.41421356237309503
10
15561.427795774976
20
8424.5385790899709
42
-0.41421356237309503
10
15551.927795774975
20
8434.0385790899745
42
-0.41421356237309503
0
LWPOLYLINE
5
324
100
AcDbEntity
8
0
100
AcDbPolyline
90
11
70
1
43
0.0
10
15646.738499851446
20
8414.2910584172132
10
15646.738499851446
20
8425.2717321307337
10
15644.011502311178
20
8425.2717320081392
10
15644.011503259175
20
8437.2886707654834
10
15639.557508605816
20
8437.2886705652509
42
-0.41421352925879712
10
15638.557508560862
20
8438.2886704072334
10
15638.557504926885
20
8461.2862559408859
10
15649.465497391713
20
8461.2862560634821
10
15649.465497391713
20
8414.291058449895
42
-0.41421354920569292
10
15648.465497436671
20
8413.2910584498968
10
15647.738499896403
20
8413.2910584172132
42
-0.41421357554049726
0
LWPOLYLINE
5
325
100
AcDbEntity
8
0
100
AcDbPolyline
90
4
70
1
43
0.0
10
15518.443664139259
20
8434.0385790899727
42
-0.41421356237309503
10
15508.943664139259
20
8424.5385790899727
42
-0.41421356237309503
10
15499.443664139257
20
8434.0385790899727
42
-0.41421356237309503
10
15508.943664139259
20
8443.5385790899745
42
-0.41421356237309503
0
LWPOLYLINE
5
326
100
AcDbEntity
8
0
100
AcDbPolyline
90
4
70
1
43
0.0
10
15456.459532503541
20
8427.2885791534354
42
-0.41421356237309503
10
15449.709532503541
20
8434.0385791534354
42
-0.41421356237309503
10
15456.459532503541
20
8440.7885791534336
42
-0.41421356237309503
10
15463.209532503543
20
8434.0385791534354
42
-0.41421356237309503
0
ARC
5
327
100
AcDbEntity
8
0
100
AcDbCircle
10
15428.944244132372
20
8465.6222878533499
30
0
40
1.0000000000013642
210
0
220
0
230
1
100
AcDbArc
50
180
51
270
0
ARC
5
328
100
AcDbEntity
8
0
100
AcDbCircle
10
15474.60383374555
20
8382.9553997095154
30
0
40
19.999999999993179
210
0
220
0
230
1
100
AcDbArc
50
269.99999999998954
51
315.00000000001103
0
ARC
5
329
100
AcDbEntity
8
0
100
AcDbCircle
10
15345.990378440667
20
8627.2439436448276
30
0
40
1.0000000000018101
210
0
220
-0
230
1
100
AcDbArc
50
52.815466497798823
51
135.01048793464577
0
LINE
5
330
100
AcDbEntity
8
0
100
AcDbLine
10
15508.113428140336
20
8389.1807228568487
30
0
11
15488.74596936928
21
8368.8132640857912
31
0
0
ARC
5
331
100
AcDbEntity
8
0
100
AcDbCircle
10
15522.00243404289
20
8371.7613852386203
30
0
40
22.278640193841262
210
0
220
-0
230
1
100
AcDbArc
50
89.348991564972039
51
128.56649728974816
0
LINE
5
332
100
AcDbEntity
8
0
100
AcDbLine
10
15334.76755660062
20
8630.1617374380585
30
0
11
15338.918398536298
21
8634.3140992668505
31
0
0
LWPOLYLINE
5
333
100
AcDbEntity
8
0
100
AcDbPolyline
90
4
70
1
43
0.0
10
15594.064244132373
20
8499.1876240924266
42
-0.41421356237309503
10
15596.064244132373
20
8501.1876240924248
42
-0.41421356237309503
10
15598.064244132373
20
8499.1876240924266
42
-0.41421356237309503
10
15596.064244132373
20
8497.1876240924248
42
-0.41421356237309503
0
LWPOLYLINE
5
334
100
AcDbEntity
8
0
100
AcDbPolyline
90
4
70
1
43
0.0
10
15748.320860216545
20
8402.1284391405061
42
-0.41421356237309503
10
15750.420860216545
20
8400.0284391405057
42
-0.41421356237309503
10
15748.320860216545
20
8397.9284391405054
42
-0.41421356237309503
10
15746.220860216545
20
8400.0284391405057
42
-0.41421356237309503
0
LWPOLYLINE
5
335
100
AcDbEntity
8
0
100
AcDbPolyline
90
4
70
1
43
0.0
10
15421.822296846531
20
8497.1876240924248
42
-0.41421356237276202
10
15419.822296846532
20
8499.1876240924266
42
-0.41421356237309503
10
15421.822296846531
20
8501.1876240924266
42
-0.41421356237309503
10
15423.822296846534
20
8499.1876240924266
42
-0.41421356237359452
0
LWPOLYLINE
5
336
100
AcDbEntity
8
0
100
AcDbPolyline
90
4
70
1
43
0.0
10
15419.822296846532
20
8610.0778227217888
42
-0.41421356237309503
10
15421.822296846531
20
8612.0778227217888
42
-0.41421356237309503
10
15423.822296846534
20
8610.0778227217888
42
-0.41421356237342799
10
15421.822296846531
20
8608.0778227217888
42
-0.41421356237259555
0
LINE
5
337
100
AcDbEntity
8
0
100
AcDbLine
10
15630.284504009707
20
8459.2886571790496
30
0
11
15629.557506469439
21
8459.2886572117313
31
0
0
ARC
5
338
100
AcDbEntity
8
0
100
AcDbCircle
10
15630.284503964749
20
8458.2886571790477
30
0
40
1.0000000000013642
210
0
220
-0
230
1
100
AcDbArc
50
0
51
89.999997424088207
0
LWPOLYLINE
5
339
100
AcDbEntity
8
0
100
AcDbPolyline
90
4
70
1
43
0.0
10
15650.7504307374
20
8578.7711108175536
42
-0.41421356237309503
10
15663.2504307374
20
8591.2711108175536
42
-0.41421356237309503
10
15675.7504307374
20
8578.7711108175536
42
-0.41421356237309503
10
15663.2504307374
20
8566.2711108175536
42
-0.41421356237309503
0
LWPOLYLINE
5
340
100
AcDbEntity
8
0
100
AcDbPolyline
90
4
70
1
43
0.0
10
15596.064244132373
20
8575.8213940479382
42
-0.41421356237309503
10
15598.064244132373
20
8573.82139404794
42
-0.41421356237309503
10
15596.064244132373
20
8571.82139404794
42
-0.41421356237309503
10
15594.064244132369
20
8573.82139404794
42
-0.41421356237342799
0
ARC
5
341
100
AcDbEntity
8
0
100
AcDbCircle
10
15629.557506424482
20
8458.2886572117313
30
0
40
1.0000000000002283
210
0
220
-0
230
1
100
AcDbArc
50
89.999997424192429
51
180
0
LWPOLYLINE
5
342
100
AcDbEntity
8
0
100
AcDbPolyline
90
4
70
1
43
0.0
10
15598.064244132369
20
8583.7313434461266
42
-0.41421356237259555
10
15596.064244132373
20
8581.7313434461284
42
-0.41421356237342799
10
15594.064244132371
20
8583.7313434461266
42
-0.41421356237309503
10
15596.064244132373
20
8585.7313434461248
42
-0.41421356237326151
0
LWPOLYLINE
5
343
100
AcDbEntity
8
0
100
AcDbPolyline
90
4
70
1
43
0.0
10
15643.6795987103
20
8561.8008953508634
42
-0.41421356237309503
10
15646.2795987103
20
8564.4008953508637
42
-0.41421356237309503
10
15648.8795987103
20
8561.8008953508634
42
-0.41421356237309503
10
15646.2795987103
20
8559.200895350863
42
-0.41421356237309503
0
LWPOLYLINE
5
344
100
AcDbEntity
8
0
100
AcDbPolyline
90
4
70
1
43
0.0
10
15646.2795987103
20
8598.341326284246
42
-0.41421356237309503
10
15648.8795987103
20
8595.7413262842438
42
-0.41421356237309503
10
15646.2795987103
20
8593.1413262842434
42
-0.41421356237309503
10
15643.6795987103
20
8595.7413262842438
42
-0.41421356237309503
0
LWPOLYLINE
5
345
100
AcDbEntity
8
0
100
AcDbPolyline
90
4
70
1
43
0.0
10
15656.902396244102
20
8497.1876240924248
42
-0.41421356237309503
10
15654.902396244102
20
8499.1876240924266
42
-0.41421356237309503
10
15656.902396244099
20
8501.1876240924248
42
-0.41421356237259555
10
15658.902396244102
20
8499.1876240924266
42
-0.41421356237309503
0
LWPOLYLINE
5
346
100
AcDbEntity
8
0
100
AcDbPolyline
90
4
70
1
43
0.0
10
15677.621262764498
20
8561.8008953508634
42
-0.41421356237309503
10
15680.221262764499
20
8564.4008953508619
42
-0.41421356237296697
10
15682.821262764499
20
8561.8008953508634
42
-0.41421356237309503
10
15680.221262764499
20
8559.200895350863
42
-0.41421356237309503
0
LWPOLYLINE
5
347
100
AcDbEntity
8
0
100
AcDbPolyline
90
4
70
1
43
0.0
10
15677.621262764498
20
8595.7413262842438
42
-0.41421356237309503
10
15680.221262764499
20
8598.3413262842423
42
-0.41421356237296697
10
15682.821262764499
20
8595.7413262842438
42
-0.41421356237309503
10
15680.221262764499
20
8593.1413262842434
42
-0.41421356237309503
0
LWPOLYLINE
5
348
100
AcDbEntity
8
0
100
AcDbPolyline
90
4
70
1
43
0.0
10
15666.952372824633
20
8501.1876240924248
42
-0.41421356237309503
10
15668.952372824633
20
8499.1876240924248
42
-0.41421356237309503
10
15666.952372824635
20
8497.187624092423
42
-0.41421356237259555
10
15664.952372824635
20
8499.1876240924248
42
-0.41421356237276202
0
ARC
5
349
100
AcDbEntity
8
0
100
AcDbCircle
10
15591.444244132372
20
8580.2710599720485
30
0
40
1.5000000000009095
210
0
220
0
230
1
100
AcDbArc
50
180
51
236.44269023812197
0
ARC
5
350
100
AcDbEntity
8
0
100
AcDbCircle
10
15591.444244132372
20
8577.2710599720467
30
0
40
1.5000000000002058
210
0
220
0
230
1
100
AcDbArc
50
123.55730976183962
51
180
0
LWPOLYLINE
5
351
100
AcDbEntity
8
0
100
AcDbPolyline
90
4
70
1
43
0.0
10
15402.998102538117
20
8694.0278076981231
42
-0.41421356237309503
10
15404.99810253812
20
8692.0278076981213
42
-0.41421356237359452
10
15402.998102538117
20
8690.0278076981213
42
-0.41421356237276202
10
15400.99810253812
20
8692.0278076981213
42
-0.41421356237309503
0
LWPOLYLINE
5
352
100
AcDbEntity
8
0
100
AcDbPolyline
90
4
70
1
43
0.0
10
15404.997755552322
20
8724.2124167799811
42
-0.41421356237309503
10
15402.997755552324
20
8722.212416779983
42
-0.41421356237326151
10
15400.997755552322
20
8724.2124167799811
42
-0.41421356237309503
10
15402.997755552322
20
8726.212416779983
42
-0.41421356237309503
0
LWPOLYLINE
5
353
100
AcDbEntity
8
0
100
AcDbPolyline
90
4
70
1
43
0.0
10
15404.99810253812
20
8789.2476763238392
42
-0.41421356237342799
10
15402.998102538117
20
8787.2476763238392
42
-0.41421356237276202
10
15400.998102538117
20
8789.2476763238392
42
-0.41421356237309503
10
15402.998102538117
20
8791.2476763238374
42
-0.41421356237342799
0
ARC
5
354
100
AcDbEntity
8
0
100
AcDbCircle
10
15370.46793353909
20
8756.7298826294154
30
0
40
39.500000000003446
210
0
220
-0
230
1
100
AcDbArc
50
45.010441158778562
51
131.10792848914519
0
LWPOLYLINE
5
355
100
AcDbEntity
8
0
100
AcDbPolyline
90
4
70
1
43
0.0
10
15217.116772835183
20
8789.2476763238392
42
-0.41421356237309503
10
15219.116772835185
20
8791.2476763238392
42
-0.41421356237309503
10
15221.116772835185
20
8789.2476763238392
42
-0.41421356237309503
10
15219.116772835185
20
8787.2476763238392
42
-0.41421356237309503
0
LWPOLYLINE
5
356
100
AcDbEntity
8
0
100
AcDbPolyline
90
4
70
1
43
0.0
10
15221.116425849386
20
8724.2124167799811
42
-0.41421356237326151
10
15219.116425849388
20
8722.2124167799811
42
-0.41421356237309503
10
15217.11642584939
20
8724.2124167799811
42
-0.41421356237309503
10
15219.116425849388
20
8726.2124167799793
42
-0.41421356237309503
0
LINE
5
357
100
AcDbEntity
8
0
100
AcDbLine
10
15353.328670422561
20
8800.7384022522729
30
0
11
15401.328670422561
21
8800.7384022522729
31
0
0
LWPOLYLINE
5
358
100
AcDbEntity
8
0
100
AcDbPolyline
90
4
70
1
43
0.0
10
15217.119826406835
20
8692.0278076981213
42
-0.41421356237309503
10
15219.119826406837
20
8694.0278076981213
42
-0.41421356237309503
10
15221.119826406837
20
8692.0278076981213
42
-0.41421356237309503
10
15219.119826406837
20
8690.0278076981213
42
-0.41421356237292856
0
ARC
5
359
100
AcDbEntity
8
0
100
AcDbCircle
10
15370.467933539087
20
8756.7298826294209
30
0
40
39.49999999999865
210
0
220
0
230
1
100
AcDbArc
50
131.10792848914642
51
217.20541581953051
0
ARC
5
360
100
AcDbEntity
8
0
100
AcDbCircle
10
15370.467933539094
20
8756.7298826294209
30
0
40
39.499999999995673
210
0
220
0
230
1
100
AcDbArc
50
-41.087046171612002
51
45.0104411587767
0
LINE
5
361
100
AcDbEntity
8
0
100
AcDbLine
10
15326.248101341482
20
8832.3361956719127
30
0
11
15426.408753320975
21
8832.3361999572116
31
0
0
ARC
5
362
100
AcDbEntity
8
0
100
AcDbCircle
10
15370.46793353909
20
8756.7298826294173
30
0
40
39.499999999996611
210
0
220
0
230
1
100
AcDbArc
50
232.81546649800353
51
318.91295382839542
0
LWPOLYLINE
5
363
100
AcDbEntity
8
0
100
AcDbPolyline
90
4
70
1
43
0.0
10
15226.086603836155
20
8756.7298826294209
42
-0.41421356237309503
10
15186.586603836153
20
8717.2298826294191
42
-0.41421356237309503
10
15147.086603836153
20
8756.7298826294209
42
-0.41421356237309503
10
15186.586603836153
20
8796.2298826294209
42
-0.41421356237309503
0
LWPOLYLINE
5
364
100
AcDbEntity
8
0
100
AcDbPolyline
90
4
70
1
43
0.0
10
15064.310264732972
20
8692.0277345102277
42
-0.41421356237359452
10
15062.310264732969
20
8690.0277345102277
42
-0.41421356237276202
10
15060.310264732971
20
8692.0277345102277
42
-0.41421356237309503
10
15062.310264732969
20
8694.0277345102259
42
-0.41421356237342799
0
LWPOLYLINE
5
365
100
AcDbEntity
8
0
100
AcDbPolyline
90
4
70
1
43
0.0
10
15062.309410162619
20
8726.2120186821976
42
-0.41421356237292856
10
15064.309410162621
20
8724.2120186821994
42
-0.41421356237309503
10
15062.309410162619
20
8722.2120186821994
42
-0.41421356237326151
10
15060.309410162623
20
8724.2120186821994
42
-0.41421356237309503
0
LWPOLYLINE
5
366
100
AcDbEntity
8
0
100
AcDbPolyline
90
4
70
1
43
0.0
10
15125.369403415687
20
8724.2123435920876
42
-0.41421356237309503
10
15127.369403415687
20
8726.2123435920857
42
-0.41421356237309503
10
15129.369403415685
20
8724.2123435920876
42
-0.41421356237259555
10
15127.369403415687
20
8722.2123435920876
42
-0.41421356237359452
0
LWPOLYLINE
5
367
100
AcDbEntity
8
0
100
AcDbPolyline
90
4
70
1
43
0.0
10
15134.339581402452
20
8756.7298094415255
42
-0.41421356237309503
10
15094.839581402452
20
8717.2298094415255
42
-0.41421356237309503
10
15055.339581402452
20
8756.7298094415255
42
-0.41421356237309503
10
15094.839581402452
20
8796.2298094415255
42
-0.41421356237309503
0
SPLINE
5
368
100
AcDbEntity
8
0
100
AcDbSpline
70
0
71
3
72
11
73
7
74
0
42
0.000000001
43
0.0000000001
44
0.0000000001
40
0
40
0
40
0
40
0
40
39.493341781749223
40
98.709185770871045
40
159.57806044535982
40
175.04390341281442
40
175.04390341281442
40
175.04390341281442
40
175.04390341281442
10
15048.886297395395
20
8816.3973832852353
30
0
10
15061.809808114896
20
8818.9378849127588
30
0
10
15094.117124030872
20
8825.2458691747179
30
0
10
15147.207091562319
20
8829.8772973279993
30
0
10
15192.350946471115
20
8831.5586971937446
30
0
10
15217.788099213103
20
8832.2051976701478
30
0
10
15222.941809372771
20
8832.3361823014566
30
0
0
LWPOLYLINE
5
369
100
AcDbEntity
8
0
100
AcDbPolyline
90
4
70
1
43
0.0
10
15050.664254631625
20
8708.1563684687571
42
-0.41421356237309503
10
15052.664254631622
20
8710.1563684687571
42
-0.41421356237292856
10
15054.664254631625
20
8708.1563684687571
42
-0.41421356237309503
10
15052.664254631625
20
8706.1563684687571
42
-0.41421356237309503
0
LWPOLYLINE
5
370
100
AcDbEntity
8
0
100
AcDbPolyline
90
4
70
1
43
0.0
10
15127.370181649158
20
8694.0278076981213
42
-0.41421356237309503
10
15129.370181649159
20
8692.0278076981213
42
-0.41421356237359452
10
15127.370181649158
20
8690.0278076981194
42
-0.41421356237276202
10
15125.370181649159
20
8692.0278076981213
42
-0.41421356237259555
0
LWPOLYLINE
5
371
100
AcDbEntity
8
0
100
AcDbPolyline
90
4
70
1
43
0.0
10
15154.059909490647
20
8694.0277345102295
42
-0.41421356237309503
10
15156.059909490648
20
8692.0277345102277
42
-0.41421356237309503
10
15154.059909490647
20
8690.0277345102277
42
-0.41421356237309503
10
15152.059909490647
20
8692.0277345102277
42
-0.41421356237309503
0
LWPOLYLINE
5
372
100
AcDbEntity
8
0
100
AcDbPolyline
90
4
70
1
43
0.0
10
15152.056432596321
20
8724.212091870093
42
-0.41421356237309503
10
15154.056432596321
20
8726.212091870093
42
-0.41421356237309503
10
15156.056432596321
20
8724.212091870093
42
-0.41421356237309503
10
15154.056432596321
20
8722.212091870093
42
-0.41421356237292856
0
ARC
5
373
100
AcDbEntity
8
0
100
AcDbCircle
10
15049.730105574305
20
8814.5082624757124
30
0
40
2.0690069298493223
210
0
220
0
230
1
100
AcDbArc
50
114.06874565332892
51
157.10830651754506
0
LWPOLYLINE
5
374
100
AcDbEntity
8
0
100
AcDbPolyline
90
4
70
1
43
0.0
10
15054.655318927455
20
8810.8597128896199
42
-0.41421356237309503
10
15052.655318927455
20
8808.8597128896199
42
-0.41421356237309503
10
15050.655318927455
20
8810.8597128896199
42
-0.41421356237309503
10
15052.655318927455
20
8812.8597128896199
42
-0.41421356237259555
0
LWPOLYLINE
5
375
100
AcDbEntity
8
0
100
AcDbPolyline
90
4
70
1
43
0.0
10
15125.369750401482
20
8789.2476031359456
42
-0.41421356237292856
10
15127.369750401482
20
8791.2476031359474
42
-0.41421356237259555
10
15129.369750401484
20
8789.2476031359456
42
-0.41421356237309503
10
15127.369750401484
20
8787.2476031359456
42
-0.41421356237309503
0
LWPOLYLINE
5
376
100
AcDbEntity
8
0
100
AcDbPolyline
90
4
70
1
43
0.0
10
15062.309833485295
20
8787.247529948052
42
-0.41421356237309503
10
15060.309833485295
20
8789.247529948052
42
-0.41421356237309503
10
15062.309833485295
20
8791.247529948052
42
-0.41421356237309503
10
15064.309833485295
20
8789.247529948052
42
-0.41421356237309503
0
LWPOLYLINE
5
377
100
AcDbEntity
8
0
100
AcDbPolyline
90
4
70
1
43
0.0
10
15042.646401595368
20
8810.6749284833695
42
-0.41421356237309503
10
15044.646401595368
20
8808.6749284833677
42
-0.41421356237309503
10
15042.646401595368
20
8806.6749284833677
42
-0.41421356237309503
10
15040.646401595368
20
8808.6749284833677
42
-0.41421356237292856
0
LWPOLYLINE
5
378
100
AcDbEntity
8
0
100
AcDbPolyline
90
4
70
1
43
0.0
10
15042.646401595524
20
8806.6749036687033
42
-0.41421356237326151
10
15040.646401595523
20
8808.6749036687052
42
-0.41421356237292856
10
15042.646401595521
20
8810.6749036687033
42
-0.41421356237292856
10
15044.646401595524
20
8808.6749036687052
42
-0.41421356237309503
0
LWPOLYLINE
5
379
100
AcDbEntity
8
0
100
AcDbPolyline
90
6
70
1
43
0.0
10
15844.973144463876
20
8719.0805469031311
42
-0.31919774706128495
10
15836.473144463875
20
8713.0385867946825
42
-0.31919774706122916
10
15827.973144463876
20
8719.0805469031311
10
15827.973144463876
20
8724.996626686232
42
-0.31919774706126208
10
15836.473144463875
20
8731.0385867946825
42
-0.31919774706131782
10
15844.973144463876
20
8724.9966266862302
0
LWPOLYLINE
5
380
100
AcDbEntity
8
0
100
AcDbPolyline
90
4
70
1
43
0.0
10
15900.577476300077
20
8497.1876240924248
42
-0.41421356237309503
10
15898.577476300079
20
8499.1876240924266
42
-0.41421356237309503
10
15900.577476300077
20
8501.1876240924266
42
-0.41421356237309503
10
15902.577476300077
20
8499.1876240924266
42
-0.41421356237309503
0
LWPOLYLINE
5
381
100
AcDbEntity
8
0
100
AcDbPolyline
90
4
70
1
43
0.0
10
15770.512113767363
20
8497.1876240924266
42
-0.41421356237326151
10
15768.512113767365
20
8499.1876240924266
42
-0.41421356237309503
10
15770.512113767363
20
8501.1876240924266
42
-0.41421356237309503
10
15772.512113767363
20
8499.1876240924266
42
-0.41421356237309503
0
LWPOLYLINE
5
382
100
AcDbEntity
8
0
100
AcDbPolyline
90
4
70
1
43
0.0
10
15885.204335882841
20
8743.5866769265795
42
-0.41421356237342799
10
15887.204335882843
20
8745.5866769265776
42
-0.41421356237309503
10
15889.204335882841
20
8743.5866769265795
42
-0.41421356237309503
10
15887.204335882843
20
8741.5866769265795
42
-0.41421356237309503
0
LWPOLYLINE
5
383
100
AcDbEntity
8
0
100
AcDbPolyline
90
4
70
1
43
0.0
10
15902.577476300077
20
8611.1180013590747
42
-0.41421356237309503
10
15900.577476300077
20
8609.1180013590747
42
-0.41421356237309503
10
15898.577476300077
20
8611.1180013590747
42
-0.41421356237309503
10
15900.577476300077
20
8613.1180013590765
42
-0.41421356237326151
0
LWPOLYLINE
5
384
100
AcDbEntity
8
0
100
AcDbPolyline
90
4
70
1
43
0.0
10
15805.067576851507
20
8799.3467003206006
42
-0.41421356237309503
10
15807.067576851505
20
8797.3467003205988
42
-0.41421356237309503
10
15805.067576851507
20
8795.3467003206024
42
-0.41421356237309503
10
15803.067576851508
20
8797.3467003205988
42
-0.41421356237309503
0
LWPOLYLINE
5
385
100
AcDbEntity
8
0
100
AcDbPolyline
90
4
70
1
43
0.0
10
15900.577476300077
20
8397.9284391405072
42
-0.41421356237293649
10
15898.477476300077
20
8400.0284391405057
42
-0.41421356237309503
10
15900.577476300077
20
8402.1284391405061
42
-0.41421356237309503
10
15902.677476300078
20
8400.0284391405057
42
-0.41421356237293649
0
ARC
5
386
100
AcDbEntity
8
0
100
AcDbCircle
10
15904.972280426493
20
8492.6458812841956
30
0
40
1.5000000000006581
210
0
220
0
230
1
100
AcDbArc
50
-0.00031372318952718704
51
56.442376514135958
0
ARC
5
387
100
AcDbEntity
8
0
100
AcDbCircle
10
15904.972296853044
20
8495.6458812841483
30
0
40
1.4999999999968936
210
0
220
0
230
1
100
AcDbArc
50
303.55699603798422
51
359.99968627681045
0
LWPOLYLINE
5
388
100
AcDbEntity
8
0
100
AcDbPolyline
90
4
70
1
43
0.0
10
15386.223279667465
20
8404.1172572237301
42
-0.41421356237309503
10
15383.973279667465
20
8406.3672572237319
42
-0.41421356237309503
10
15386.223279667465
20
8408.6172572237301
42
-0.41421356237309503
10
15388.473279667467
20
8406.3672572237319
42
-0.4142135623729471
0
LWPOLYLINE
5
389
100
AcDbEntity
8
0
100
AcDbPolyline
90
4
70
1
43
0.0
10
15386.223279667465
20
8479.1172572237338
42
-0.41421356237309503
10
15383.973279667465
20
8481.3672572237338
42
-0.41421356237309503
10
15386.223279667465
20
8483.6172572237319
42
-0.41421356237309503
10
15388.473279667465
20
8481.3672572237338
42
-0.41421356237309503
0
ARC
5
390
100
AcDbEntity
8
0
100
AcDbCircle
10
15590.040845238846
20
8831.5384909872209
30
0
40
0.20000000000190507
210
0
220
0
230
1
100
AcDbArc
50
266.55863892215223
51
328.71677835392467
0
LWPOLYLINE
5
391
100
AcDbEntity
8
0
100
AcDbPolyline
90
4
70
1
43
0.0
10
15659.747240369359
20
8409.3152726478329
42
-0.41421356237309503
10
15657.497240369357
20
8411.5652726478311
42
-0.4142135623729471
10
15659.747240369359
20
8413.8152726478293
42
-0.41421356237309503
10
15661.997240369361
20
8411.5652726478311
42
-0.41421356237309503
0
ARC
5
392
100
AcDbEntity
8
0
100
AcDbCircle
10
15590.040845238846
20
8831.5384909872191
30
0
40
0.19999999999905405
210
0
220
0
230
1
100
AcDbArc
50
204.4004994898915
51
266.55863892212091
0
ARC
5
393
100
AcDbEntity
8
0
100
AcDbCircle
10
15427.908753385742
20
8831.6361999591063
30
0
40
0.20000000000088808
210
0
220
0
230
1
100
AcDbArc
50
208.07248700822484
51
270.00000005054687
0
LINE
5
394
100
AcDbEntity
8
0
100
AcDbLine
10
15628.557506564626
20
8458.2886572117332
30
0
11
15628.557506564626
21
8416.2886571790496
31
0
0
LINE
5
395
100
AcDbEntity
8
0
100
AcDbLine
10
15631.284504104895
20
8416.2886572117332
30
0
11
15631.284504104893
21
8458.2886571790496
31
0
0
LINE
5
396
100
AcDbEntity
8
0
100
AcDbLine
10
15630.284504282226
20
8415.2886572117332
30
0
11
15629.55750674196
21
8415.2886571790496
31
0
0
ARC
5
397
100
AcDbEntity
8
0
100
AcDbCircle
10
15629.557506697001
20
8416.2886571790496
30
0
40
0.99999999999909051
210
0
220
0
230
1
100
AcDbArc
50
180
51
270.00000257591176
0
LWPOLYLINE
5
398
100
AcDbEntity
8
0
100
AcDbPolyline
90
4
70
1
43
0.0
10
15657.490558051322
20
8463.0120682890956
42
-0.41421356237353901
10
15659.740558051322
20
8465.2620682890938
42
-0.41421356237309503
10
15661.99055805132
20
8463.0120682890956
42
-0.41421356237309503
10
15659.740558051322
20
8460.7620682890938
42
-0.41421356237309503
0
LWPOLYLINE
5
399
100
AcDbEntity
8
0
100
AcDbPolyline
90
4
70
1
43
0.0
10
15624.971502527682
20
8411.5652726478329
42
-0.41421356237309503
10
15622.721502527684
20
8409.3152726478329
42
-0.41421356237309503
10
15620.471502527686
20
8411.5652726478329
42
-0.41421356237309503
10
15622.721502527684
20
8413.8152726478329
42
-0.41421356237309503
0
LWPOLYLINE
5
400
100
AcDbEntity
8
0
100
AcDbPolyline
90
4
70
1
43
0.0
10
15622.73055805132
20
8460.7620682890938
42
-0.41421356237309503
10
15620.480558051322
20
8463.0120682890956
42
-0.41421356237309503
10
15622.73055805132
20
8465.2620682890938
42
-0.41421356237309503
10
15624.98055805132
20
8463.0120682890956
42
-0.41421356237309503
0
ARC
5
401
100
AcDbEntity
8
0
100
AcDbCircle
10
15630.28450423727
20
8416.2886572117332
30
0
40
1.0000000000013654
210
0
220
0
230
1
100
AcDbArc
50
-89.999997424192429
51
0
0
LWPOLYLINE
5
402
100
AcDbEntity
8
0
100
AcDbPolyline
90
4
70
1
43
0.0
10
15596.06425363265
20
8695.7755289785437
42
-0.41421356237276202
10
15598.064253632652
20
8693.7755289785437
42
-0.41421356237309503
10
15596.064253632652
20
8691.7755289785437
42
-0.41421356237292856
10
15594.06425363265
20
8693.7755289785437
42
-0.41421356237309503
0
ARC
5
403
100
AcDbEntity
8
0
100
AcDbCircle
10
15047.547677343411
20
8815.4297834199569
30
0
40
0.29999999999817689
210
0
220
0
230
1
100
AcDbArc
50
220.33001085012344
51
278.71915868451197
0
ARC
5
404
100
AcDbEntity
8
0
100
AcDbCircle
10
15324.748497813498
20
8831.6361883219888
30
0
40
0.19999999999876408
210
0
220
0
230
1
100
AcDbArc
50
208.07270789499719
51
270.00024993931675
0
ARC
5
405
100
AcDbEntity
8
0
100
AcDbCircle
10
15590.449256695265
20
8578.7710599720485
30
0
40
0.30000000000066768
210
0
220
0
230
1
100
AcDbArc
50
-56.442690237832466
51
0
0
ARC
5
406
100
AcDbEntity
8
0
100
AcDbCircle
10
15047.547677343411
20
8815.4297834199624
30
0
40
0.3000000000020448
210
0
220
0
230
1
100
AcDbArc
50
278.719158684354
51
337.10830651721676
0
LWPOLYLINE
5
407
100
AcDbEntity
8
0
100
AcDbPolyline
90
4
70
1
43
0.0
10
15594.064244132371
20
8777.4732352353003
42
-0.41421356237309503
10
15596.064244132373
20
8779.4732352353003
42
-0.41421356237276202
10
15598.064244132373
20
8777.4732352353003
42
-0.41421356237309503
10
15596.064244132373
20
8775.4732352352985
42
-0.41421356237309503
0
LWPOLYLINE
5
408
100
AcDbEntity
8
0
100
AcDbPolyline
90
4
70
1
43
0.0
10
15421.822296846531
20
8775.4732352353021
42
-0.41421356237309503
10
15419.822296846532
20
8777.4732352353003
42
-0.41421356237276202
10
15421.822296846531
20
8779.4732352352985
42
-0.41421356237359452
10
15423.822296846529
20
8777.4732352353003
42
-0.41421356237309503
0
ARC
5
409
100
AcDbEntity
8
0
100
AcDbCircle
10
15046.175484343732
20
8814.2648429186356
30
0
40
1.4999999999989779
210
0
220
-0
230
1
100
AcDbArc
50
40.330010850494197
51
103.26930660942347
0
ARC
5
410
100
AcDbEntity
8
0
100
AcDbCircle
10
15324.748497813498
20
8831.6361883219906
30
0
40
0.20000000000058418
210
0
220
0
230
1
100
AcDbArc
50
270.00024993931675
51
331.92779198434141
0
ARC
5
411
100
AcDbEntity
8
0
100
AcDbCircle
10
15590.449256695265
20
8578.7710599720485
30
0
40
0.30000000000200089
210
0
220
-0
230
1
100
AcDbArc
50
0
51
56.442690237832494
0
ARC
5
412
100
AcDbEntity
8
0
100
AcDbCircle
10
15427.908753385742
20
8831.6361999591045
30
0
40
0.1999999999998181
210
0
220
0
230
1
100
AcDbArc
50
270.00000005054687
51
331.92751309384983
0
ARC
5
413
100
AcDbEntity
8
0
100
AcDbCircle
10
14906.970620132181
20
8494.1513413050761
30
0
40
0.30000000000075516
210
0
220
0
230
1
100
AcDbArc
50
-56.437739532388768
51
0
0
ARC
5
414
100
AcDbEntity
8
0
100
AcDbCircle
10
15905.967276076861
20
8494.1458758361041
30
0
40
0.3000000000019506
210
0
220
0
230
1
100
AcDbArc
50
179.99968627681048
51
236.44237651376963
0
ARC
5
415
100
AcDbEntity
8
0
100
AcDbCircle
10
14906.970620132182
20
8494.1513413050761
30
0
40
0.29999999999972715
210
0
220
0
230
1
100
AcDbArc
50
0
51
56.43773953267825
0
ARC
5
416
100
AcDbEntity
8
0
100
AcDbCircle
10
15905.967276076859
20
8494.1458758361041
30
0
40
0.29999999999856269
210
0
220
0
230
1
100
AcDbArc
50
123.55699603771478
51
179.99968627681048
0
ARC
5
417
100
AcDbEntity
8
0
100
AcDbCircle
10
15326.248493834091
20
8830.8361830142312
30
0
40
1.4999989865405152
210
0
220
-0
230
1
100
AcDbArc
50
89.999905104884959
51
151.9272921052561
0
LWPOLYLINE
5
418
100
AcDbEntity
8
0
100
AcDbPolyline
90
4
70
1
43
0.0
10
15620.232721975139
20
8707.883889999619
42
-0.41421356237276202
10
15618.232721975142
20
8709.883889999619
42
-0.41421356237309503
10
15620.232721975139
20
8711.883889999619
42
-0.41421356237309503
10
15622.232721975141
20
8709.883889999619
42
-0.41421356237359452
0
LWPOLYLINE
5
419
100
AcDbEntity
8
0
100
AcDbPolyline
90
4
70
1
43
0.0
10
15793.481184559918
20
8765.0971722146969
42
-0.41421356237309503
10
15791.481184559922
20
8767.0971722146969
42
-0.41421356237326151
10
15793.481184559918
20
8769.0971722146951
42
-0.41421356237326151
10
15795.481184559918
20
8767.0971722146969
42
-0.41421356237309503
0
LWPOLYLINE
5
420
100
AcDbEntity
8
0
100
AcDbPolyline
90
4
70
1
43
0.0
10
15423.822296846534
20
8693.7755289785455
42
-0.41421356237359452
10
15421.822296846531
20
8691.7755289785437
42
-0.41421356237276202
10
15419.822296846532
20
8693.7755289785455
42
-0.41421356237259555
10
15421.822296846531
20
8695.7755289785418
42
-0.41421356237342799
0
LWPOLYLINE
5
421
100
AcDbEntity
8
0
100
AcDbPolyline
90
4
70
1
43
0.0
10
15793.481184559918
20
8707.883889999619
42
-0.41421356237309503
10
15791.481184559918
20
8709.883889999619
42
-0.41421356237309503
10
15793.481184559918
20
8711.8838899996172
42
-0.41421356237309503
10
15795.481184559918
20
8709.883889999619
42
-0.41421356237309503
0
LINE
5
422
100
AcDbEntity
8
0
100
AcDbLine
10
15626.35695326753
20
8779.4905311071579
30
0
11
15626.35695326753
21
8697.4905311071579
31
0
0
LWPOLYLINE
5
423
100
AcDbEntity
8
0
100
AcDbPolyline
90
4
70
1
43
0.0
10
15620.232721975139
20
8765.0971722146987
42
-0.41421356237309503
10
15618.232721975142
20
8767.0971722146969
42
-0.41421356237326151
10
15620.232721975139
20
8769.0971722146987
42
-0.41421356237326151
10
15622.232721975141
20
8767.0971722146969
42
-0.41421356237292856
0
LINE
5
424
100
AcDbEntity
8
0
100
AcDbLine
10
15787.356953267528
20
8779.4905311071579
30
0
11
15787.356953267528
21
8697.4905311071579
31
0
0
LINE
5
425
100
AcDbEntity
8
0
100
AcDbLine
10
15627.356953267528
20
8779.4905311071579
30
0
11
15627.356953267528
21
8697.4905311071579
31
0
0
LINE
5
426
100
AcDbEntity
8
0
100
AcDbLine
10
15786.35695326753
20
8779.4905311071579
30
0
11
15786.35695326753
21
8697.4905311071579
31
0
0
ENDSEC
0
SECTION
2
OBJECTS
0
DICTIONARY
5
C
100
AcDbDictionary
3
ACAD_GROUP
350
D
3
ACAD_MLINESTYLE
350
17
0
DICTIONARY
5
D
100
AcDbDictionary
0
DICTIONARY
5
1A
330
C
100
AcDbDictionary
0
DICTIONARY
5
17
100
AcDbDictionary
0
ENDSEC
0
EOF
