<?xml version="1.0" encoding="UTF-8" standalone="no"?>
<svg
   viewBox="0 0 598.16533 246.6693"
   width="598.16534"
   height="246.6693"
   version="1.1"
   id="svg84"
   sodipodi:docname="DXF One Knob.svg"
   inkscape:version="1.1.2 (b8e25be833, 2022-02-05)"
   xmlns:inkscape="http://www.inkscape.org/namespaces/inkscape"
   xmlns:sodipodi="http://sodipodi.sourceforge.net/DTD/sodipodi-0.dtd"
   xmlns="http://www.w3.org/2000/svg"
   xmlns:svg="http://www.w3.org/2000/svg">
  <sodipodi:namedview
     id="namedview86"
     pagecolor="#ffffff"
     bordercolor="#999999"
     borderopacity="1"
     inkscape:pageshadow="0"
     inkscape:pageopacity="0"
     inkscape:pagecheckerboard="0"
     showgrid="false"
     inkscape:snap-bbox="true"
     inkscape:snap-midpoints="false"
     inkscape:snap-bbox-edge-midpoints="true"
     inkscape:snap-bbox-midpoints="true"
     inkscape:zoom="0.64378662"
     inkscape:cx="329.30166"
     inkscape:cy="107.17837"
     inkscape:window-width="1366"
     inkscape:window-height="697"
     inkscape:window-x="-8"
     inkscape:window-y="-8"
     inkscape:window-maximized="1"
     inkscape:current-layer="g82" />
  <desc
     id="desc2">DXF One Knob.dxf - scale = 1.0, origin = (0.0, 0.0), method = manual</desc>
  <defs
     id="defs16">
    <marker
       id="DistanceX"
       orient="auto"
       refX="0"
       refY="0"
       style="overflow:visible">
      <path
         d="M 3,-3 -3,3 M 0,-5 V 5"
         style="stroke:#000000;stroke-width:0.5"
         id="path4" />
    </marker>
    <pattern
       id="Hatch"
       patternUnits="userSpaceOnUse"
       width="8"
       height="8"
       x="0"
       y="0">
      <path
         d="M8 4 l-4,4"
         stroke="#000000"
         stroke-width="0.25"
         linecap="square"
         id="path7" />
      <path
         d="M6 2 l-4,4"
         stroke="#000000"
         stroke-width="0.25"
         linecap="square"
         id="path9" />
      <path
         d="M4 0 l-4,4"
         stroke="#000000"
         stroke-width="0.25"
         linecap="square"
         id="path11" />
    </pattern>
    <symbol
       id="*MODEL_SPACE" />
    <symbol
       id="*PAPER_SPACE" />
  </defs>
  <g
     inkscape:groupmode="layer"
     inkscape:label="OUTLINE"
     id="g82"
     transform="translate(299.08268,-999.18504)">
    <path
       d="m -136.62992,1062.0472 a 4.72441,4.72441 0 1 0 -9.44882,0 4.72441,4.72441 0 1 0 9.44882,0 z"
       style="fill:none;stroke:#000000"
       id="path18" />
    <path
       d="m -136.62992,1179.2126 a 4.72441,4.72441 0 1 0 -9.44882,0 4.72441,4.72441 0 1 0 9.44882,0 z"
       style="fill:none;stroke:#000000"
       id="path20" />
    <path
       d="m 146.83465,1062.0472 a 4.72441,4.72441 0 1 0 -9.44882,0 4.72441,4.72441 0 1 0 9.44882,0 z"
       style="fill:none;stroke:#000000"
       id="path22" />
    <path
       d="m 146.83465,1179.2126 a 4.72441,4.72441 0 1 0 -9.44882,0 4.72441,4.72441 0 1 0 9.44882,0 z"
       style="fill:none;stroke:#000000"
       id="path24" />
    <path
       d="m 181.70079,1019.0551 a 5.952756,5.952756 0 1 0 -11.90551,0 5.952756,5.952756 0 1 0 11.90551,0 z"
       style="fill:none;stroke:#000000"
       id="path26" />
    <path
       d="m 181.70079,1225.9843 a 5.952756,5.952756 0 1 0 -11.90551,0 5.952756,5.952756 0 1 0 11.90551,0 z"
       style="fill:none;stroke:#000000"
       id="path28" />
    <path
       d="m -169.79528,1019.0551 a 5.952756,5.952756 0 1 0 -11.90551,0 5.952756,5.952756 0 1 0 11.90551,0 z"
       style="fill:none;stroke:#000000"
       id="path30" />
    <path
       d="m -169.79528,1225.9843 a 5.952756,5.952756 0 1 0 -11.90551,0 5.952756,5.952756 0 1 0 11.90551,0 z"
       style="fill:none;stroke:#000000"
       id="path32" />
    <path
       d="m 244.72441,1122.5197 a 14.17323,14.17323 0 1 0 -28.34646,0 14.17323,14.17323 0 1 0 28.34646,0 z"
       style="fill:none;stroke:#000000"
       id="path34" />
    <path
       d="m 282.04724,1022.3622 a 6.141732,6.141732 0 1 0 -12.28346,0 6.141732,6.141732 0 1 0 12.28346,0 z"
       style="fill:none;stroke:#000000"
       id="path36" />
    <path
       d="m 282.04724,1222.6772 a 6.141732,6.141732 0 1 0 -12.28346,0 6.141732,6.141732 0 1 0 12.28346,0 z"
       style="fill:none;stroke:#000000"
       id="path38" />
    <path
       d="m -269.76378,1222.6772 a 6.141732,6.141732 0 1 0 -12.28346,0 6.141732,6.141732 0 1 0 12.28346,0 z"
       style="fill:none;stroke:#000000"
       id="path40" />
    <path
       d="m -269.76378,1022.3622 a 6.141732,6.141732 0 1 0 -12.28346,0 6.141732,6.141732 0 1 0 12.28346,0 z"
       style="fill:none;stroke:#000000"
       id="path42" />
    <path
       d="m -216.37795,1122.5197 a 14.17323,14.17323 0 1 0 -28.34646,0 14.17323,14.17323 0 1 0 28.34646,0 z"
       style="fill:none;stroke:#000000"
       id="path44" />
    <path
       d="m 136.06299,1168.8189 h -272.12598 v -92.5984 h 272.12598 z"
       style="fill:none;stroke:#000000"
       id="path46" />
    <path
       d="M -298.58268,1245.3543 H 298.58268 V 999.68504 h -597.16536 z"
       style="fill:none;stroke:#000000"
       id="path48" />
    <path
       d="m -136.62992,1062.0472 a 4.72441,4.72441 0 1 0 -9.44882,0 4.72441,4.72441 0 1 0 9.44882,0 z"
       style="fill:none;stroke:#000000"
       id="path50" />
    <path
       d="m -136.62992,1179.2126 a 4.72441,4.72441 0 1 0 -9.44882,0 4.72441,4.72441 0 1 0 9.44882,0 z"
       style="fill:none;stroke:#000000"
       id="path52" />
    <path
       d="m 146.83465,1062.0472 a 4.72441,4.72441 0 1 0 -9.44882,0 4.72441,4.72441 0 1 0 9.44882,0 z"
       style="fill:none;stroke:#000000"
       id="path54" />
    <path
       d="m 146.83465,1179.2126 a 4.72441,4.72441 0 1 0 -9.44882,0 4.72441,4.72441 0 1 0 9.44882,0 z"
       style="fill:none;stroke:#000000"
       id="path56" />
    <path
       d="m 181.70079,1019.0551 a 5.952756,5.952756 0 1 0 -11.90551,0 5.952756,5.952756 0 1 0 11.90551,0 z"
       style="fill:none;stroke:#000000"
       id="path58" />
    <path
       d="m 181.70079,1225.9843 a 5.952756,5.952756 0 1 0 -11.90551,0 5.952756,5.952756 0 1 0 11.90551,0 z"
       style="fill:none;stroke:#000000"
       id="path60" />
    <path
       d="m -169.79528,1019.0551 a 5.952756,5.952756 0 1 0 -11.90551,0 5.952756,5.952756 0 1 0 11.90551,0 z"
       style="fill:none;stroke:#000000"
       id="path62" />
    <path
       d="m -169.79528,1225.9843 a 5.952756,5.952756 0 1 0 -11.90551,0 5.952756,5.952756 0 1 0 11.90551,0 z"
       style="fill:none;stroke:#000000"
       id="path64" />
    <path
       d="m -136.06299,1076.2205 v 92.5984 h 272.12598 v -92.5984 z"
       style="fill:none;stroke:#000000"
       id="path66" />
    <path
       d="m -216.37795,1122.5197 a 14.17323,14.17323 0 1 0 -28.34646,0 14.17323,14.17323 0 1 0 28.34646,0 z"
       style="fill:none;stroke:#000000"
       id="path68" />
    <path
       d="m -269.76378,1022.3622 a 6.141732,6.141732 0 1 0 -12.28346,0 6.141732,6.141732 0 1 0 12.28346,0 z"
       style="fill:none;stroke:#000000"
       id="path70" />
    <path
       d="m -269.76378,1222.6772 a 6.141732,6.141732 0 1 0 -12.28346,0 6.141732,6.141732 0 1 0 12.28346,0 z"
       style="fill:none;stroke:#000000"
       id="path72" />
    <path
       d="m 282.04724,1222.6772 a 6.141732,6.141732 0 1 0 -12.28346,0 6.141732,6.141732 0 1 0 12.28346,0 z"
       style="fill:none;stroke:#000000"
       id="path74" />
    <path
       d="m 282.04724,1022.3622 a 6.141732,6.141732 0 1 0 -12.28346,0 6.141732,6.141732 0 1 0 12.28346,0 z"
       style="fill:none;stroke:#000000"
       id="path76" />
    <path
       d="m 244.72441,1122.5197 a 14.17323,14.17323 0 1 0 -28.34646,0 14.17323,14.17323 0 1 0 28.34646,0 z"
       style="fill:none;stroke:#000000"
       id="path78" />
    <path
       d="M 298.58268,999.68504 V 1245.3543 H -298.58268 V 999.68504 Z"
       style="fill:none;stroke:#000000"
       id="path80" />
  </g>
  <g
     inkscape:groupmode="layer"
     id="layer1"
     inkscape:label="TEXT">
    <text
       xml:space="preserve"
       style="font-style:normal;font-weight:normal;font-size:18.6667px;line-height:1.25;font-family:sans-serif;text-align:center;text-anchor:middle;fill:#000000;fill-opacity:1;stroke:none"
       x="-233.88419"
       y="1071.6766"
       id="text2583"
       transform="translate(299.08268,-999.18504)"><tspan
         sodipodi:role="line"
         id="tspan2581"
         x="-233.88419"
         y="1071.6766"
         style="font-style:normal;font-variant:normal;font-weight:bold;font-stretch:normal;font-size:18.6667px;font-family:Arial;-inkscape-font-specification:'Arial Bold';text-align:center;text-anchor:middle">ADJUST</tspan></text>
    <text
       xml:space="preserve"
       style="font-style:normal;font-weight:normal;font-size:18.6667px;line-height:1.25;font-family:sans-serif;text-align:center;text-anchor:middle;fill:#000000;fill-opacity:1;stroke:none"
       x="230.74258"
       y="1071.167"
       id="text7723"
       transform="translate(299.08268,-999.18504)"><tspan
         sodipodi:role="line"
         id="tspan7721"
         x="230.74258"
         y="1071.167"
         style="font-style:normal;font-variant:normal;font-weight:bold;font-stretch:normal;font-size:18.6667px;font-family:Arial;-inkscape-font-specification:'Arial Bold';text-align:center;text-anchor:middle">INDEX</tspan></text>
    <text
       xml:space="preserve"
       style="font-style:normal;font-weight:normal;font-size:16px;line-height:1.25;font-family:sans-serif;text-align:center;text-anchor:middle;fill:#000000;fill-opacity:1;stroke:none"
       x="230.74258"
       y="1177.37"
       id="text9185"
       transform="translate(299.08268,-999.18504)"><tspan
         sodipodi:role="line"
         id="tspan9183"
         x="230.74258"
         y="1177.37"
         style="font-style:normal;font-variant:normal;font-weight:bold;font-stretch:normal;font-size:16px;font-family:Arial;-inkscape-font-specification:'Arial Bold';text-align:center;text-anchor:middle">PUSH TO </tspan><tspan
         sodipodi:role="line"
         x="230.74258"
         y="1197.5552"
         style="font-style:normal;font-variant:normal;font-weight:bold;font-stretch:normal;font-size:16px;font-family:Arial;-inkscape-font-specification:'Arial Bold';text-align:center;text-anchor:middle"
         id="tspan9587">RESET</tspan></text>
    <text
       xml:space="preserve"
       style="font-style:normal;font-weight:normal;font-size:16px;line-height:1.25;font-family:sans-serif;text-align:center;text-anchor:middle;fill:#000000;fill-opacity:1;stroke:none"
       x="-228.91055"
       y="1177.37"
       id="text9185-4"
       transform="translate(299.08268,-999.18504)"><tspan
         sodipodi:role="line"
         id="tspan9183-7"
         x="-228.91055"
         y="1177.37"
         style="font-style:normal;font-variant:normal;font-weight:bold;font-stretch:normal;font-size:16px;font-family:Arial;-inkscape-font-specification:'Arial Bold';text-align:center;text-anchor:middle">PUSH TO </tspan><tspan
         sodipodi:role="line"
         x="-228.91055"
         y="1197.5552"
         style="font-style:normal;font-variant:normal;font-weight:bold;font-stretch:normal;font-size:16px;font-family:Arial;-inkscape-font-specification:'Arial Bold';text-align:center;text-anchor:middle"
         id="tspan9587-0">SWAP</tspan></text>
    <text
       xml:space="preserve"
       style="font-style:normal;font-weight:normal;font-size:18.6667px;line-height:1.25;font-family:sans-serif;text-align:center;text-anchor:middle;fill:#000000;fill-opacity:1;stroke:none"
       x="-0.10937567"
       y="1024.4712"
       id="text12941"
       transform="translate(299.08268,-999.18504)"><tspan
         sodipodi:role="line"
         id="tspan12939"
         x="-0.10937022"
         y="1024.4712"
         style="font-style:italic;font-variant:normal;font-weight:bold;font-stretch:normal;font-size:18.6667px;font-family:Arial;-inkscape-font-specification:'Arial Bold Italic';text-align:center;text-anchor:middle">CaptainBobSim Multi Radio</tspan></text>
  </g>
</svg>
