<?xml version="1.0" encoding="UTF-8" standalone="no"?>
<svg
   viewBox="0 0 793.7007874015749 1122.5196850393702"
   width="793.7007874015749"
   height="1122.5196850393702"
   version="1.1"
   id="svg318"
   sodipodi:docname="Panel Support DXF.svg"
   inkscape:version="1.2 (dc2aedaf03, 2022-05-15)"
   xmlns:inkscape="http://www.inkscape.org/namespaces/inkscape"
   xmlns:sodipodi="http://sodipodi.sourceforge.net/DTD/sodipodi-0.dtd"
   xmlns="http://www.w3.org/2000/svg"
   xmlns:svg="http://www.w3.org/2000/svg">
  <sodipodi:namedview
     id="namedview320"
     pagecolor="#ffffff"
     bordercolor="#666666"
     borderopacity="1.0"
     inkscape:showpageshadow="2"
     inkscape:pageopacity="0.0"
     inkscape:pagecheckerboard="0"
     inkscape:deskcolor="#d1d1d1"
     showgrid="false"
     inkscape:zoom="0.14866305"
     inkscape:cx="-665.93546"
     inkscape:cy="787.01464"
     inkscape:window-width="1920"
     inkscape:window-height="1017"
     inkscape:window-x="-8"
     inkscape:window-y="-8"
     inkscape:window-maximized="1"
     inkscape:current-layer="g316" />
  <desc
     id="desc2">Panel Support DXF.dxf - scale = 1.000000, origin = (0.000000, 0.000000), method = manual</desc>
  <defs
     id="defs16">
    <marker
       id="DistanceX"
       orient="auto"
       refX="0.0"
       refY="0.0"
       style="overflow:visible">
      <path
         d="M 3,-3 L -3,3 M 0,-5 L  0,5"
         style="stroke:#000000; stroke-width:0.5"
         id="path4" />
    </marker>
    <pattern
       id="Hatch"
       patternUnits="userSpaceOnUse"
       width="8"
       height="8"
       x="0"
       y="0">
      <path
         d="M8 4 l-4,4"
         stroke="#000000"
         stroke-width="0.25"
         linecap="square"
         id="path7" />
      <path
         d="M6 2 l-4,4"
         stroke="#000000"
         stroke-width="0.25"
         linecap="square"
         id="path9" />
      <path
         d="M4 0 l-4,4"
         stroke="#000000"
         stroke-width="0.25"
         linecap="square"
         id="path11" />
    </pattern>
    <symbol
       id="*MODEL_SPACE" />
    <symbol
       id="*PAPER_SPACE" />
  </defs>
  <g
     inkscape:groupmode="layer"
     inkscape:label="0"
     id="g316">
    <path
       d="M -1889.763720,544.234926 A 60.000000,60.000000 0.000000 1 0 -1889.763720,645.286257"
       style="fill:none;stroke:#000000"
       id="path18" />
    <path
       style="fill:none;stroke:#000000"
       d="M -1889.76 544.235 L -1889.76 645.286"
       id="path20" />
    <path
       style="fill:none;stroke:#000000"
       d="M -1889.76 820.408 L -1889.76 1122.52"
       id="path22" />
    <path
       style="fill:none;stroke:#000000"
       d="M -1889.76 1122.52 L -407.752 1122.52"
       id="path24" />
    <path
       d="M -264.349250,1198.110250 C -275.910059,1198.110250 -286.725881,1195.901324 -297.411901,1191.494730 C -309.163078,1186.648896 -319.824590,1179.517333 -329.796497,1171.713625 C -344.280670,1160.378757 -357.515116,1147.465274 -370.626537,1137.616180 C -376.893150,1132.908799 -383.171387,1128.874148 -389.527990,1126.155588 C -392.490108,1124.888763 -395.557938,1123.870589 -398.717893,1123.230295 C -401.703579,1122.625313 -404.708193,1122.370153 -407.751811,1122.519698"
       style="fill:none;stroke:#000000"
       id="path26" />
    <path
       style="fill:none;stroke:#000000"
       d="M -264.349 1198.11 L 264.349 1198.11"
       id="path28" />
    <path
       d="M 407.751817,1122.519698 C 403.084708,1122.290389 398.550547,1123.015973 394.106443,1124.439452 C 388.109725,1126.360244 382.202559,1129.571844 376.295949,1133.562626 C 363.451643,1142.240840 350.456739,1154.726554 336.469731,1166.326742 C 325.974366,1175.031120 315.065086,1183.117023 303.088801,1188.942886 C 297.114226,1191.849218 290.953186,1194.154570 284.494848,1195.725028 C 277.856628,1197.339227 271.180201,1198.110250 264.349278,1198.110250"
       style="fill:none;stroke:#000000"
       id="path30" />
    <path
       style="fill:none;stroke:#000000"
       d="M 407.752 1122.52 L 1889.76 1122.52"
       id="path32" />
    <path
       style="fill:none;stroke:#000000"
       d="M 1889.76 1122.52 L 1889.76 820.408"
       id="path34" />
    <path
       style="fill:none;stroke:#000000"
       d="M 1889.76 820.408 L 1968.06 820.408"
       id="path36" />
    <path
       style="fill:none;stroke:#000000"
       d="M 1968.06 820.408 L 1968.05 703.162"
       id="path38" />
    <path
       style="fill:none;stroke:#000000"
       d="M 1968.05 703.162 L 1987.02 703.162"
       id="path40" />
    <path
       style="fill:none;stroke:#000000"
       d="M 1987.02 703.162 L 1987.01 275.643"
       id="path42" />
    <path
       style="fill:none;stroke:#000000"
       d="M 1987.01 275.643 L 1928.16 275.644"
       id="path44" />
    <path
       style="fill:none;stroke:#000000"
       d="M 1928.16 275.644 L 1928.16 8.6817"
       id="path46" />
    <path
       d="M 1928.163812,8.681702 C 1928.163812,-10.927610 1925.147536,-31.702388 1919.274685,-54.310687 C 1912.285069,-81.218118 1901.197869,-110.743013 1884.215818,-142.182794 C 1873.013335,-162.922551 1859.235004,-184.483206 1842.015825,-206.281702"
       style="fill:none;stroke:#000000"
       id="path48" />
    <path
       d="M 1795.408248,-257.092335 A 37.795276,37.795276 0.000000 0 0 1842.015825,-206.281702"
       style="fill:none;stroke:#000000"
       id="path50" />
    <path
       d="M 1795.408248,-257.092335 C 1795.168831,-257.318764 1794.928971,-257.545171 1794.688668,-257.771554 C 1753.815803,-296.276663 1700.132332,-333.932076 1627.476284,-367.409853 C 1539.437125,-407.975717 1423.440676,-442.423889 1265.418980,-466.298037 C 1168.213716,-480.983950 1055.007730,-491.673548 923.194092,-497.647201 C 840.724946,-501.384614 750.989875,-503.281876 653.747296,-503.281876"
       style="fill:none;stroke:#000000"
       id="path52" />
    <path
       style="fill:none;stroke:#000000"
       d="M 653.747 -503.282 L -653.747 -503.282"
       id="path54" />
    <path
       d="M -1928.163784,8.681702 C -1928.163784,-10.927610 -1925.147508,-31.702388 -1919.274657,-54.310687 C -1912.285041,-81.218118 -1901.197841,-110.743013 -1884.215790,-142.182794 C -1864.219914,-179.202231 -1836.017264,-218.837088 -1794.688640,-257.771554 C -1753.815775,-296.276663 -1700.132304,-333.932076 -1627.476256,-367.409853 C -1539.437098,-407.975717 -1423.440648,-442.423889 -1265.418953,-466.298037 C -1168.213689,-480.983950 -1055.007703,-491.673548 -923.194064,-497.647201 C -840.724918,-501.384614 -750.989848,-503.281876 -653.747268,-503.281876"
       style="fill:none;stroke:#000000"
       id="path56" />
    <path
       style="fill:none;stroke:#000000"
       d="M -1928.16 8.6817 L -1928.16 275.597"
       id="path58" />
    <path
       style="fill:none;stroke:#000000"
       d="M -1928.16 275.597 L -1990.58 275.597"
       id="path60" />
    <path
       style="fill:none;stroke:#000000"
       d="M -1990.58 275.597 L -1990.58 723.811"
       id="path62" />
    <path
       style="fill:none;stroke:#000000"
       d="M -1990.58 723.811 L -1974.24 723.811"
       id="path64" />
    <path
       style="fill:none;stroke:#000000"
       d="M -1974.24 723.811 L -1974.24 820.408"
       id="path66" />
    <path
       style="fill:none;stroke:#000000"
       d="M -1974.24 820.408 L -1889.76 820.408"
       id="path68" />
    <path
       d="M -1889.763720,260.015746 L -1889.763720,245.615746 A 7.200000,7.200000 0.0 0 1 -1889.763720,260.015746 z"
       style="fill:none;stroke:#000000"
       id="path70" />
    <path
       d="M 1889.763880,245.615746 L 1889.763880,260.015746 A 7.200000,7.200000 0.0 1 1 1889.763880,245.615746 z"
       style="fill:none;stroke:#000000"
       id="path72" />
    <path
       d="M 1529.250728,-395.817990 A 5.669291,5.669291 0.000000 0, 0 1517.912146,-395.817990 A 5.669291,5.669291 0.000000 0, 0 1529.250728,-395.817990 z"
       style="fill:none;stroke:#000000"
       id="path74" />
    <path
       d="M 515.905512,-490.653832 A 5.669291,5.669291 0.000000 0, 0 504.566929,-490.653832 A 5.669291,5.669291 0.000000 0, 0 515.905512,-490.653832 z"
       style="fill:none;stroke:#000000"
       id="path76" />
    <path
       d="M -334.998468,-491.943294 A 5.669291,5.669291 0.000000 0, 0 -346.337050,-491.943294 A 5.669291,5.669291 0.000000 0, 0 -334.998468,-491.943294 z"
       style="fill:none;stroke:#000000"
       id="path78" />
    <path
       d="M 5.669291,-491.943294 A 5.669291,5.669291 0.000000 0, 0 -5.669291,-491.943294 A 5.669291,5.669291 0.000000 0, 0 5.669291,-491.943294 z"
       style="fill:none;stroke:#000000"
       id="path80" />
    <path
       d="M 1026.141732,-480.802335 A 5.669291,5.669291 0.000000 0, 0 1014.803150,-480.802335 A 5.669291,5.669291 0.000000 0, 0 1026.141732,-480.802335 z"
       style="fill:none;stroke:#000000"
       id="path82" />
    <path
       d="M 1912.064864,-58.483826 A 5.669291,5.669291 0.000000 0, 0 1900.726281,-58.483826 A 5.669291,5.669291 0.000000 0, 0 1912.064864,-58.483826 z"
       style="fill:none;stroke:#000000"
       id="path84" />
    <path
       d="M 1274.173231,-438.689750 A 7.559055,7.559055 0.000000 0, 0 1259.055121,-438.689750 A 7.559055,7.559055 0.000000 0, 0 1274.173231,-438.689750 z"
       style="fill:none;stroke:#000000"
       id="path86" />
    <path
       d="M -1894.348059,417.626978 A 40.800000,40.800000 0.000000 0, 0 -1975.948059,417.626978 A 40.800000,40.800000 0.000000 0, 0 -1894.348059,417.626978 z"
       style="fill:none;stroke:#000000"
       id="path88" />
    <path
       d="M 1946.400799,316.407659 A 14.400000,14.400000 0.000000 0, 0 1917.600799,316.407659 A 14.400000,14.400000 0.000000 0, 0 1946.400799,316.407659 z"
       style="fill:none;stroke:#000000"
       id="path90" />
    <path
       d="M 1946.400799,508.407659 A 14.400000,14.400000 0.000000 0, 0 1917.600799,508.407659 A 14.400000,14.400000 0.000000 0, 0 1946.400799,508.407659 z"
       style="fill:none;stroke:#000000"
       id="path92" />
    <path
       d="M 1946.400799,724.407659 A 14.400000,14.400000 0.000000 0, 0 1917.600799,724.407659 A 14.400000,14.400000 0.000000 0, 0 1946.400799,724.407659 z"
       style="fill:none;stroke:#000000"
       id="path94" />
    <path
       d="M -1917.600681,316.407659 A 14.400000,14.400000 0.000000 0, 0 -1946.400681,316.407659 A 14.400000,14.400000 0.000000 0, 0 -1917.600681,316.407659 z"
       style="fill:none;stroke:#000000"
       id="path96" />
    <path
       d="M -1917.600681,508.407659 A 14.400000,14.400000 0.000000 0, 0 -1946.400681,508.407659 A 14.400000,14.400000 0.000000 0, 0 -1917.600681,508.407659 z"
       style="fill:none;stroke:#000000"
       id="path98" />
    <path
       d="M -1917.600681,724.407659 A 14.400000,14.400000 0.000000 0, 0 -1946.400681,724.407659 A 14.400000,14.400000 0.000000 0, 0 -1917.600681,724.407659 z"
       style="fill:none;stroke:#000000"
       id="path100" />
    <path
       d="M 289.133858,-491.943294 A 5.669291,5.669291 0.000000 0, 0 277.795276,-491.943294 A 5.669291,5.669291 0.000000 0, 0 289.133858,-491.943294 z"
       style="fill:none;stroke:#000000"
       id="path102" />
    <path
       d="M -277.795276,-491.943294 A 5.669291,5.669291 0.000000 0, 0 -289.133858,-491.943294 A 5.669291,5.669291 0.000000 0, 0 -277.795276,-491.943294 z"
       style="fill:none;stroke:#000000"
       id="path104" />
    <path
       d="M -1259.055121,-438.689750 A 7.559055,7.559055 0.000000 0, 0 -1274.173231,-438.689750 A 7.559055,7.559055 0.000000 0, 0 -1259.055121,-438.689750 z"
       style="fill:none;stroke:#000000"
       id="path106" />
    <path
       d="M -504.566929,-490.653832 A 5.669291,5.669291 0.000000 0, 0 -515.905512,-490.653832 A 5.669291,5.669291 0.000000 0, 0 -504.566929,-490.653832 z"
       style="fill:none;stroke:#000000"
       id="path108" />
    <path
       d="M -1517.912146,-395.817990 A 5.669291,5.669291 0.000000 0, 0 -1529.250728,-395.817990 A 5.669291,5.669291 0.000000 0, 0 -1517.912146,-395.817990 z"
       style="fill:none;stroke:#000000"
       id="path110" />
    <path
       d="M -1014.803150,-480.802335 A 5.669291,5.669291 0.000000 0, 0 -1026.141732,-480.802335 A 5.669291,5.669291 0.000000 0, 0 -1014.803150,-480.802335 z"
       style="fill:none;stroke:#000000"
       id="path112" />
    <path
       d="M -1900.726281,-58.483826 A 5.669291,5.669291 0.000000 0, 0 -1912.064864,-58.483826 A 5.669291,5.669291 0.000000 0, 0 -1900.726281,-58.483826 z"
       style="fill:none;stroke:#000000"
       id="path114" />
    <path
       d="M -391.507942,-360.938684 A 22.677165,22.677165 0.0 0 0 -368.830776,-338.261519 L -335.436303,-338.261519 A 22.677165,22.677165 0.0 0 0 -312.759138,-360.938684 L -312.759138,-422.731628 L -18.696223,-422.731628 L -18.696223,-323.255645 L -34.369303,-323.255645 L -34.369303,663.240895 A 48.000000,48.000000 0.0 0 1 -82.369303,711.240895 L -645.586941,711.240895 A 48.000000,48.000000 0.0 0 1 -693.586941,663.240895 L -693.586941,365.730228 A 2.305512,2.305512 0.0 0 1 -691.281429,363.424716 L -690.562097,363.424716 A 2.305512,2.305512 0.0 0 0 -688.256585,361.119204 L -688.256585,318.497753 A 7.328854,7.328854 0.0 0 0 -695.585439,311.168899 L -721.993334,311.168899 A 9.122164,9.122164 0.0 0 0 -731.115498,320.291062 L -731.115498,329.353427 A 9.600000,9.600000 0.0 0 1 -740.715498,338.953427 L -1000.494500,338.953427 A 9.600000,9.600000 0.0 0 1 -1010.094500,329.353427 L -1010.094500,314.642450 A 9.600000,9.600000 0.0 0 0 -1019.694500,305.042450 L -1055.353338,305.042450 A 9.600000,9.600000 0.0 0 0 -1064.953338,314.642450 L -1064.953338,327.240895 A 9.600000,9.600000 0.0 0 1 -1074.553338,336.840895 L -1296.998491,336.840895 L -1340.501265,316.555218 L -1360.786941,273.052444 L -1360.786941,30.179935 A 9.600000,9.600000 0.0 0 1 -1351.186941,20.579935 L -1332.190199,20.579935 A 9.600000,9.600000 0.0 0 0 -1322.590199,10.979874 L -1322.590353,-13.630638 A 9.600000,9.600000 0.0 0 0 -1332.190353,-23.230578 L -1351.186941,-23.230578 A 9.600000,9.600000 0.0 0 1 -1360.786941,-32.830578 L -1360.786941,-312.373279 A 48.000000,48.000000 0.0 0 1 -1313.250041,-360.371045 L -804.159682,-360.371045 L -804.159682,-431.633118 L -451.704061,-431.633118 L -451.704061,-411.068809 L -391.507942,-411.068809 L -391.507942,-360.938684 z"
       style="fill:none;stroke:#000000"
       id="path116" />
    <path
       d="M 1106.645693,1059.991194 A 22.677165,22.677165 0.0 0 0 1083.968528,1037.314029 L 951.418817,1037.314029 L 951.418817,808.365368 L 1083.968528,808.365368 A 22.677165,22.677165 0.0 0 0 1106.645693,785.688202 L 1106.645693,771.401588 L 1760.881913,771.401588 L 1760.881913,1089.637809 L 1106.645693,1089.637809 L 1106.645693,1059.991194 z"
       style="fill:none;stroke:#000000"
       id="path118" />
    <path
       d="M -8.501115,94.356707 A 6.000000,6.000000 0.000000 0, 0 -20.501115,94.356707 A 6.000000,6.000000 0.000000 0, 0 -8.501115,94.356707 z"
       style="fill:none;stroke:#000000"
       id="path120" />
    <path
       d="M 658.712427,94.356707 A 6.000000,6.000000 0.000000 0, 0 646.712427,94.356707 A 6.000000,6.000000 0.000000 0, 0 658.712427,94.356707 z"
       style="fill:none;stroke:#000000"
       id="path122" />
    <path
       d="M 1274.173231,-159.609435 A 7.559055,7.559055 0.000000 0, 0 1259.055121,-159.609435 A 7.559055,7.559055 0.000000 0, 0 1274.173231,-159.609435 z"
       style="fill:none;stroke:#000000"
       id="path124" />
    <path
       d="M 740.768507,-438.689750 A 7.559055,7.559055 0.000000 0, 0 725.650397,-438.689750 A 7.559055,7.559055 0.000000 0, 0 740.768507,-438.689750 z"
       style="fill:none;stroke:#000000"
       id="path126" />
    <path
       d="M 658.712427,283.333085 A 6.000000,6.000000 0.000000 0, 0 646.712427,283.333085 A 6.000000,6.000000 0.000000 0, 0 658.712427,283.333085 z"
       style="fill:none;stroke:#000000"
       id="path128" />
    <path
       d="M -8.501115,283.333085 A 6.000000,6.000000 0.000000 0, 0 -20.501115,283.333085 A 6.000000,6.000000 0.000000 0, 0 -8.501115,283.333085 z"
       style="fill:none;stroke:#000000"
       id="path130" />
    <path
       d="M -8.501115,-290.341682 A 6.000000,6.000000 0.000000 0, 0 -20.501115,-290.341682 A 6.000000,6.000000 0.000000 0, 0 -8.501115,-290.341682 z"
       style="fill:none;stroke:#000000"
       id="path132" />
    <path
       d="M 658.712427,-290.341682 A 6.000000,6.000000 0.000000 0, 0 646.712427,-290.341682 A 6.000000,6.000000 0.000000 0, 0 658.712427,-290.341682 z"
       style="fill:none;stroke:#000000"
       id="path134" />
    <path
       d="M 740.768507,-159.609435 A 7.559055,7.559055 0.000000 0, 0 725.650397,-159.609435 A 7.559055,7.559055 0.000000 0, 0 740.768507,-159.609435 z"
       style="fill:none;stroke:#000000"
       id="path136" />
    <path
       d="M 658.712427,668.031473 A 6.000000,6.000000 0.000000 0, 0 646.712427,668.031473 A 6.000000,6.000000 0.000000 0, 0 658.712427,668.031473 z"
       style="fill:none;stroke:#000000"
       id="path138" />
    <path
       d="M -8.501115,668.031473 A 6.000000,6.000000 0.000000 0, 0 -20.501115,668.031473 A 6.000000,6.000000 0.000000 0, 0 -8.501115,668.031473 z"
       style="fill:none;stroke:#000000"
       id="path140" />
    <path
       d="M 1586.824157,-205.653038 L 1586.824157,-131.952251 L 1513.123370,-131.952251 L 1513.123370,-205.653038 L 1586.824157,-205.653038 z"
       style="fill:none;stroke:#000000"
       id="path142" />
    <path
       d="M 184.303844,1079.276495 A 4.800000,4.800000 0.000000 0, 0 174.703844,1079.276495 A 4.800000,4.800000 0.000000 0, 0 184.303844,1079.276495 z"
       style="fill:none;stroke:#000000"
       id="path144" />
    <path
       d="M 731.815878,855.524772 A 7.200000,7.200000 0.000000 0, 0 717.415878,855.524772 A 7.200000,7.200000 0.000000 0, 0 731.815878,855.524772 z"
       style="fill:none;stroke:#000000"
       id="path146" />
    <path
       d="M -452.451784,800.391698 A 8.160000,8.160000 0.000000 0, 0 -468.771784,800.391698 A 8.160000,8.160000 0.000000 0, 0 -452.451784,800.391698 z"
       style="fill:none;stroke:#000000"
       id="path148" />
    <path
       d="M 25.903233,907.372672 A 26.400000,26.400000 0.000000 0, 0 -26.896767,907.372672 A 26.400000,26.400000 0.000000 0, 0 25.903233,907.372672 z"
       style="fill:none;stroke:#000000"
       id="path150" />
    <path
       d="M 1867.683814,800.439663 A 8.160000,8.160000 0.000000 0, 0 1851.363814,800.439663 A 8.160000,8.160000 0.000000 0, 0 1867.683814,800.439663 z"
       style="fill:none;stroke:#000000"
       id="path152" />
    <path
       d="M -13.356109,-434.187170 A 8.160000,8.160000 0.000000 0, 0 -29.676109,-434.187170 A 8.160000,8.160000 0.000000 0, 0 -13.356109,-434.187170 z"
       style="fill:none;stroke:#000000"
       id="path154" />
    <path
       d="M -13.356109,-2.187170 A 8.160000,8.160000 0.000000 0, 0 -29.676109,-2.187170 A 8.160000,8.160000 0.000000 0, 0 -13.356109,-2.187170 z"
       style="fill:none;stroke:#000000"
       id="path156" />
    <path
       d="M -330.156109,-434.187170 A 8.160000,8.160000 0.000000 0, 0 -346.476109,-434.187170 A 8.160000,8.160000 0.000000 0, 0 -330.156109,-434.187170 z"
       style="fill:none;stroke:#000000"
       id="path158" />
    <path
       d="M -812.643331,571.204243 A 8.160000,8.160000 0.0 1 0 -812.643467,554.884243 A 8.160000,8.160000 0.0 1 0 -812.643331,571.204243 z"
       style="fill:none;stroke:#000000"
       id="path160" />
    <path
       d="M -13.356109,737.012830 A 8.160000,8.160000 0.000000 0, 0 -29.676109,737.012830 A 8.160000,8.160000 0.000000 0, 0 -13.356109,737.012830 z"
       style="fill:none;stroke:#000000"
       id="path162" />
    <path
       d="M -812.621653,398.409994 A 8.160000,8.160000 0.0 1 0 -812.680383,382.090100 A 8.160000,8.160000 0.0 1 0 -812.621653,398.409994 z"
       style="fill:none;stroke:#000000"
       id="path164" />
    <path
       d="M -426.156109,737.012830 A 8.160000,8.160000 0.000000 0, 0 -442.476109,737.012830 A 8.160000,8.160000 0.000000 0, 0 -426.156109,737.012830 z"
       style="fill:none;stroke:#000000"
       id="path166" />
    <path
       d="M -838.956109,737.012830 A 8.160000,8.160000 0.000000 0, 0 -855.276109,737.012830 A 8.160000,8.160000 0.000000 0, 0 -838.956109,737.012830 z"
       style="fill:none;stroke:#000000"
       id="path168" />
    <path
       d="M -13.356109,348.212830 A 8.160000,8.160000 0.000000 0, 0 -29.676109,348.212830 A 8.160000,8.160000 0.000000 0, 0 -13.356109,348.212830 z"
       style="fill:none;stroke:#000000"
       id="path170" />
    <path
       d="M 932.759275,389.390927 A 8.160000,8.160000 0.000000 0, 0 916.439275,389.390927 A 8.160000,8.160000 0.000000 0, 0 932.759275,389.390927 z"
       style="fill:none;stroke:#000000"
       id="path172" />
    <path
       d="M 1513.036900,626.200976 A 8.160000,8.160000 0.000000 0, 0 1496.716900,626.200976 A 8.160000,8.160000 0.000000 0, 0 1513.036900,626.200976 z"
       style="fill:none;stroke:#000000"
       id="path174" />
    <path
       d="M 913.043891,737.012830 A 8.160000,8.160000 0.000000 0, 0 896.723891,737.012830 A 8.160000,8.160000 0.000000 0, 0 913.043891,737.012830 z"
       style="fill:none;stroke:#000000"
       id="path176" />
    <path
       d="M 1234.643891,737.012830 A 8.160000,8.160000 0.000000 0, 0 1218.323891,737.012830 A 8.160000,8.160000 0.000000 0, 0 1234.643891,737.012830 z"
       style="fill:none;stroke:#000000"
       id="path178" />
    <path
       d="M 1799.116900,626.200976 A 8.160000,8.160000 0.000000 0, 0 1782.796900,626.200976 A 8.160000,8.160000 0.000000 0, 0 1799.116900,626.200976 z"
       style="fill:none;stroke:#000000"
       id="path180" />
    <path
       d="M 252.525441,907.372672 A 36.000000,36.000000 0.000000 0, 0 180.525441,907.372672 A 36.000000,36.000000 0.000000 0, 0 252.525441,907.372672 z"
       style="fill:none;stroke:#000000"
       id="path182" />
    <path
       d="M 731.815878,1047.524772 A 7.200000,7.200000 0.000000 0, 0 717.415878,1047.524772 A 7.200000,7.200000 0.000000 0, 0 731.815878,1047.524772 z"
       style="fill:none;stroke:#000000"
       id="path184" />
    <path
       d="M 46.697444,1079.276495 A 4.800000,4.800000 0.000000 0, 0 37.097444,1079.276495 A 4.800000,4.800000 0.000000 0, 0 46.697444,1079.276495 z"
       style="fill:none;stroke:#000000"
       id="path186" />
    <path
       d="M 592.615878,1047.524772 A 7.200000,7.200000 0.000000 0, 0 578.215878,1047.524772 A 7.200000,7.200000 0.000000 0, 0 592.615878,1047.524772 z"
       style="fill:none;stroke:#000000"
       id="path188" />
    <path
       d="M 592.615878,855.524772 A 7.200000,7.200000 0.000000 0, 0 578.215878,855.524772 A 7.200000,7.200000 0.000000 0, 0 592.615878,855.524772 z"
       style="fill:none;stroke:#000000"
       id="path190" />
    <path
       d="M 648.137879,859.101994 L 694.455989,859.101994 L 694.455989,882.569081 L 720.912682,882.569081 L 720.912682,1011.073018 L 694.455989,1011.073018 L 694.455989,1034.540105 L 665.523705,1034.540105 L 665.523705,1020.262159 L 585.570273,1020.262159 L 585.570273,872.860584 L 648.137879,872.860584 L 648.137879,859.101994 z"
       style="fill:none;stroke:#000000"
       id="path192" />
    <path
       d="M 1866.099520,1092.231698 A 8.160000,8.160000 0.000000 0, 0 1849.779520,1092.231698 A 8.160000,8.160000 0.000000 0, 0 1866.099520,1092.231698 z"
       style="fill:none;stroke:#000000"
       id="path194" />
    <path
       d="M -1857.943553,678.880547 A 8.160000,8.160000 0.000000 0, 0 -1874.263553,678.880547 A 8.160000,8.160000 0.000000 0, 0 -1857.943553,678.880547 z"
       style="fill:none;stroke:#000000"
       id="path196" />
    <path
       d="M -1388.773437,-385.047092 A 8.160000,8.160000 0.000000 0, 0 -1405.093437,-385.047092 A 8.160000,8.160000 0.000000 0, 0 -1388.773437,-385.047092 z"
       style="fill:none;stroke:#000000"
       id="path198" />
    <path
       d="M -1376.556109,737.012830 A 8.160000,8.160000 0.000000 0, 0 -1392.876109,737.012830 A 8.160000,8.160000 0.000000 0, 0 -1376.556109,737.012830 z"
       style="fill:none;stroke:#000000"
       id="path200" />
    <path
       d="M -891.756109,737.012830 A 8.160000,8.160000 0.000000 0, 0 -908.076109,737.012830 A 8.160000,8.160000 0.000000 0, 0 -891.756109,737.012830 z"
       style="fill:none;stroke:#000000"
       id="path202" />
    <path
       d="M -925.961136,571.209186 A 8.160000,8.160000 0.0 0 0 -925.903351,554.889288 A 8.160000,8.160000 0.0 0 0 -925.961136,571.209186 z"
       style="fill:none;stroke:#000000"
       id="path204" />
    <path
       d="M -1800.652340,-141.352722 A 8.160000,8.160000 0.000000 0, 0 -1816.972340,-141.352722 A 8.160000,8.160000 0.000000 0, 0 -1800.652340,-141.352722 z"
       style="fill:none;stroke:#000000"
       id="path206" />
    <path
       d="M -1029.217449,326.295888 A 8.160000,8.160000 0.000000 0, 0 -1045.537449,326.295888 A 8.160000,8.160000 0.000000 0, 0 -1029.217449,326.295888 z"
       style="fill:none;stroke:#000000"
       id="path208" />
    <path
       d="M -1342.553958,-3.072740 A 8.160000,8.160000 0.000000 0, 0 -1358.873958,-3.072740 A 8.160000,8.160000 0.000000 0, 0 -1342.553958,-3.072740 z"
       style="fill:none;stroke:#000000"
       id="path210" />
    <path
       d="M -866.117624,-423.101139 A 8.160000,8.160000 0.000000 0, 0 -882.437624,-423.101139 A 8.160000,8.160000 0.000000 0, 0 -866.117624,-423.101139 z"
       style="fill:none;stroke:#000000"
       id="path212" />
    <path
       d="M -1342.553958,326.295888 A 8.160000,8.160000 0.000000 0, 0 -1358.873958,326.295888 A 8.160000,8.160000 0.000000 0, 0 -1342.553958,326.295888 z"
       style="fill:none;stroke:#000000"
       id="path214" />
    <path
       d="M -695.046391,326.295888 A 8.160000,8.160000 0.000000 0, 0 -711.366391,326.295888 A 8.160000,8.160000 0.000000 0, 0 -695.046391,326.295888 z"
       style="fill:none;stroke:#000000"
       id="path216" />
    <path
       d="M -1342.553958,-387.932424 A 8.160000,8.160000 0.000000 0, 0 -1358.873958,-387.932424 A 8.160000,8.160000 0.000000 0, 0 -1342.553958,-387.932424 z"
       style="fill:none;stroke:#000000"
       id="path218" />
    <path
       d="M -925.969070,398.414990 A 8.160000,8.160000 0.0 0 0 -925.910647,382.095095 A 8.160000,8.160000 0.0 0 0 -925.969070,398.414990 z"
       style="fill:none;stroke:#000000"
       id="path220" />
    <path
       d="M -379.583752,-429.376957 A 8.160000,8.160000 0.000000 0, 0 -395.903752,-429.376957 A 8.160000,8.160000 0.000000 0, 0 -379.583752,-429.376957 z"
       style="fill:none;stroke:#000000"
       id="path222" />
    <path
       d="M 792.000003,330.519698 L 792.000003,-53.480302 L 1396.800003,-53.480302 L 1396.800003,330.519698 L 792.000003,330.519698 z"
       style="fill:none;stroke:#000000"
       id="path224" />
    <path
       d="M 1551.443891,737.012830 A 8.160000,8.160000 0.000000 0, 0 1535.123891,737.012830 A 8.160000,8.160000 0.000000 0, 0 1551.443891,737.012830 z"
       style="fill:none;stroke:#000000"
       id="path226" />
    <path
       d="M 1873.557720,-3.365227 A 8.160000,8.160000 0.000000 0, 0 1857.237720,-3.365227 A 8.160000,8.160000 0.000000 0, 0 1873.557720,-3.365227 z"
       style="fill:none;stroke:#000000"
       id="path228" />
    <path
       d="M 819.483849,391.134621 A 8.160000,8.160000 0.000000 0, 0 803.163849,391.134621 A 8.160000,8.160000 0.000000 0, 0 819.483849,391.134621 z"
       style="fill:none;stroke:#000000"
       id="path230" />
    <path
       d="M 1475.208060,-363.965314 A 8.160000,8.160000 0.000000 0, 0 1458.888060,-363.965314 A 8.160000,8.160000 0.000000 0, 0 1475.208060,-363.965314 z"
       style="fill:none;stroke:#000000"
       id="path232" />
    <path
       d="M 1074.896087,-416.947782 A 8.160000,8.160000 0.000000 0, 0 1058.576087,-416.947782 A 8.160000,8.160000 0.000000 0, 0 1074.896087,-416.947782 z"
       style="fill:none;stroke:#000000"
       id="path234" />
    <path
       d="M 677.843891,-2.187170 A 8.160000,8.160000 0.000000 0, 0 661.523891,-2.187170 A 8.160000,8.160000 0.000000 0, 0 677.843891,-2.187170 z"
       style="fill:none;stroke:#000000"
       id="path236" />
    <path
       d="M 1873.557720,687.834773 A 8.160000,8.160000 0.000000 0, 0 1857.237720,687.834773 A 8.160000,8.160000 0.000000 0, 0 1873.557720,687.834773 z"
       style="fill:none;stroke:#000000"
       id="path238" />
    <path
       d="M 677.843891,449.012830 A 8.160000,8.160000 0.000000 0, 0 661.523891,449.012830 A 8.160000,8.160000 0.000000 0, 0 677.843891,449.012830 z"
       style="fill:none;stroke:#000000"
       id="path240" />
    <path
       d="M 935.418868,562.164652 A 8.160000,8.160000 0.000000 0, 0 919.098868,562.164652 A 8.160000,8.160000 0.000000 0, 0 935.418868,562.164652 z"
       style="fill:none;stroke:#000000"
       id="path242" />
    <path
       d="M 670.659486,-426.759350 A 8.160000,8.160000 0.000000 0, 0 654.339486,-426.759350 A 8.160000,8.160000 0.000000 0, 0 670.659486,-426.759350 z"
       style="fill:none;stroke:#000000"
       id="path244" />
    <path
       d="M 677.843891,506.612830 A 8.160000,8.160000 0.000000 0, 0 661.523891,506.612830 A 8.160000,8.160000 0.000000 0, 0 677.843891,506.612830 z"
       style="fill:none;stroke:#000000"
       id="path246" />
    <path
       d="M 822.143449,563.908358 A 8.160000,8.160000 0.000000 0, 0 805.823449,563.908358 A 8.160000,8.160000 0.000000 0, 0 822.143449,563.908358 z"
       style="fill:none;stroke:#000000"
       id="path248" />
    <path
       d="M 677.843891,737.012830 A 8.160000,8.160000 0.000000 0, 0 661.523891,737.012830 A 8.160000,8.160000 0.000000 0, 0 677.843891,737.012830 z"
       style="fill:none;stroke:#000000"
       id="path250" />
    <path
       d="M 855.443891,737.012830 A 8.160000,8.160000 0.000000 0, 0 839.123891,737.012830 A 8.160000,8.160000 0.000000 0, 0 855.443891,737.012830 z"
       style="fill:none;stroke:#000000"
       id="path252" />
    <path
       d="M -1788.000000,565.719685 A 8.160000,8.160000 0.000000 0, 0 -1804.320000,565.719685 A 8.160000,8.160000 0.000000 0, 0 -1788.000000,565.719685 z"
       style="fill:none;stroke:#000000"
       id="path254" />
    <path
       d="M -1014.240000,565.719685 A 8.160000,8.160000 0.000000 0, 0 -1030.560000,565.719685 A 8.160000,8.160000 0.000000 0, 0 -1014.240000,565.719685 z"
       style="fill:none;stroke:#000000"
       id="path256" />
    <path
       d="M -1014.240000,661.719685 A 8.160000,8.160000 0.000000 0, 0 -1030.560000,661.719685 A 8.160000,8.160000 0.000000 0, 0 -1014.240000,661.719685 z"
       style="fill:none;stroke:#000000"
       id="path258" />
    <path
       d="M -1788.000000,661.719685 A 8.160000,8.160000 0.000000 0, 0 -1804.320000,661.719685 A 8.160000,8.160000 0.000000 0, 0 -1788.000000,661.719685 z"
       style="fill:none;stroke:#000000"
       id="path260" />
    <path
       d="M -1599.084033,1092.376766 A 8.160000,8.160000 0.000000 0, 0 -1615.404033,1092.376766 A 8.160000,8.160000 0.000000 0, 0 -1599.084033,1092.376766 z"
       style="fill:none;stroke:#000000"
       id="path262" />
    <path
       d="M -876.569258,800.417052 A 8.160000,8.160000 0.000000 0, 0 -892.889258,800.417052 A 8.160000,8.160000 0.000000 0, 0 -876.569258,800.417052 z"
       style="fill:none;stroke:#000000"
       id="path264" />
    <path
       d="M -1746.924033,800.536766 A 8.160000,8.160000 0.000000 0, 0 -1763.244033,800.536766 A 8.160000,8.160000 0.000000 0, 0 -1746.924033,800.536766 z"
       style="fill:none;stroke:#000000"
       id="path266" />
    <path
       d="M -1599.084033,800.536766 A 8.160000,8.160000 0.000000 0, 0 -1615.404033,800.536766 A 8.160000,8.160000 0.000000 0, 0 -1599.084033,800.536766 z"
       style="fill:none;stroke:#000000"
       id="path268" />
    <path
       d="M -1746.924033,1092.376766 A 8.160000,8.160000 0.000000 0, 0 -1763.244033,1092.376766 A 8.160000,8.160000 0.000000 0, 0 -1746.924033,1092.376766 z"
       style="fill:none;stroke:#000000"
       id="path270" />
    <path
       d="M -522.329258,800.417052 A 8.160000,8.160000 0.000000 0, 0 -538.649258,800.417052 A 8.160000,8.160000 0.000000 0, 0 -522.329258,800.417052 z"
       style="fill:none;stroke:#000000"
       id="path272" />
    <path
       d="M -876.569258,1092.257052 A 8.160000,8.160000 0.000000 0, 0 -892.889258,1092.257052 A 8.160000,8.160000 0.000000 0, 0 -876.569258,1092.257052 z"
       style="fill:none;stroke:#000000"
       id="path274" />
    <path
       d="M -522.329258,1092.257052 A 8.160000,8.160000 0.000000 0, 0 -538.649258,1092.257052 A 8.160000,8.160000 0.000000 0, 0 -522.329258,1092.257052 z"
       style="fill:none;stroke:#000000"
       id="path276" />
    <path
       d="M 1677.407020,-105.134436 L 1677.407020,62.865564 L 1437.407020,62.865564 L 1437.407020,-105.134436 L 1677.407020,-105.134436 z"
       style="fill:none;stroke:#000000"
       id="path278" />
    <path
       d="M -213.694493,871.370092 A 5.669291,5.669291 0.000000 0, 0 -225.033075,871.370092 A 5.669291,5.669291 0.000000 0, 0 -213.694493,871.370092 z"
       style="fill:none;stroke:#000000"
       id="path280" />
    <path
       d="M -1779.419770,854.133934 L -1779.419770,852.384783 A 124.800000,124.800000 0.0 0 1 -1612.750822,854.133915 L -1472.118686,854.133934 L -1472.118686,807.861181 A 12.000000,12.000000 0.0 0 1 -1460.118686,795.861181 L -917.365339,795.861181 L -917.365339,853.327479 L -847.406284,853.327479 L -847.406284,795.861181 L -704.298433,795.861181 A 12.000000,12.000000 0.0 0 1 -692.298433,807.861181 L -692.298433,939.861181 L -823.406284,939.861181 L -823.406284,1037.647479 L -917.365339,1037.647479 L -917.365339,1098.993431 L -1455.398182,1098.993431 A 12.000000,12.000000 0.0 0 1 -1467.398182,1086.993431 L -1467.398182,1038.453934 L -1613.065897,1038.453934 A 124.799975,124.799975 0.0 0 1 -1779.419770,1039.915369 L -1779.419770,1038.453934 L -1779.419770,854.133934 z"
       style="fill:none;stroke:#000000"
       id="path282" />
    <path
       d="M -213.694493,948.850407 A 5.669291,5.669291 0.000000 0, 0 -225.033075,948.850407 A 5.669291,5.669291 0.000000 0, 0 -213.694493,948.850407 z"
       style="fill:none;stroke:#000000"
       id="path284" />
    <path
       d="M -213.694488,1039.370092 A 5.669291,5.669291 0.000000 0, 0 -225.033071,1039.370092 A 5.669291,5.669291 0.000000 0, 0 -213.694488,1039.370092 z"
       style="fill:none;stroke:#000000"
       id="path286" />
    <path
       d="M -213.694488,1116.850407 A 5.669291,5.669291 0.000000 0, 0 -225.033071,1116.850407 A 5.669291,5.669291 0.000000 0, 0 -213.694488,1116.850407 z"
       style="fill:none;stroke:#000000"
       id="path288" />
    <path
       d="M 877.451362,800.391698 A 8.160000,8.160000 0.000000 0, 0 861.131362,800.391698 A 8.160000,8.160000 0.000000 0, 0 877.451362,800.391698 z"
       style="fill:none;stroke:#000000"
       id="path290" />
    <path
       d="M 1555.272661,-290.133038 A 5.669291,5.669291 0.000000 0, 0 1543.934078,-290.133038 A 5.669291,5.669291 0.000000 0, 0 1555.272661,-290.133038 z"
       style="fill:none;stroke:#000000"
       id="path292" />
    <path
       d="M 877.451362,1092.231698 A 8.160000,8.160000 0.000000 0, 0 861.131362,1092.231698 A 8.160000,8.160000 0.000000 0, 0 877.451362,1092.231698 z"
       style="fill:none;stroke:#000000"
       id="path294" />
    <path
       d="M -198.576405,910.110250 A 20.787402,20.787402 0.000000 0, 0 -240.151208,910.110250 A 20.787402,20.787402 0.000000 0, 0 -198.576405,910.110250 z"
       style="fill:none;stroke:#000000"
       id="path296" />
    <path
       d="M -198.576378,1078.110250 A 20.787402,20.787402 0.000000 0, 0 -240.151181,1078.110250 A 20.787402,20.787402 0.000000 0, 0 -198.576378,1078.110250 z"
       style="fill:none;stroke:#000000"
       id="path298" />
    <path
       d="M 156.054975,1151.087519 L 65.346314,1151.087519 L 65.346314,1007.465471 L 156.054975,1007.465471 L 156.054975,1151.087519 z"
       style="fill:none;stroke:#000000"
       id="path300" />
    <path
       d="M -452.451784,1092.231698 A 8.160000,8.160000 0.000000 0, 0 -468.771784,1092.231698 A 8.160000,8.160000 0.000000 0, 0 -452.451784,1092.231698 z"
       style="fill:none;stroke:#000000"
       id="path302" />
    <path
       d="M 857.291362,605.523965 A 12.000000,12.000000 0.0 0 0 881.291362,605.523965 L 881.291362,548.649642 A 12.000000,12.000000 0.0 0 0 881.249623,547.649642 A 72.000000,72.000000 0.0 1 0 857.333101,547.649642 A 12.000000,12.000000 0.0 0 0 857.291362,548.649642 L 857.291362,605.523965 z"
       style="fill:none;stroke:#000000"
       id="path304" />
    <path
       d="M 16.705656,762.519698 L 16.705656,-384.829871 L 621.505656,-384.829871 L 621.505656,762.519698 L 16.705656,762.519698 z"
       style="fill:none;stroke:#000000"
       id="path306" />
    <path
       d="M -1619.795895,13.095759 L -1619.795895,-210.104241 A 48.000000,48.000000 0.0 0 1 -1571.795895,-258.104241 L -1384.949132,-258.104241 L -1384.949132,478.516839 A 48.000000,48.000000 0.0 0 1 -1432.949132,526.516839 L -1811.846732,526.516839 A 48.000000,48.000000 0.0 0 1 -1859.846732,478.516839 L -1859.846732,61.095759 A 48.000000,48.000000 0.0 0 1 -1811.846732,13.095759 L -1619.795895,13.095759 z"
       style="fill:none;stroke:#000000"
       id="path308" />
    <path
       d="M -1786.560000,685.719685 L -1786.560000,541.719685 L -1032.000000,541.719685 L -1032.000000,685.719685 L -1786.560000,685.719685 z"
       style="fill:none;stroke:#000000"
       id="path310" />
    <path
       d="M -881.291319,605.523965 A 12.000000,12.000000 0.0 0 0 -857.291319,605.523965 L -857.291319,548.649642 A 12.000000,12.000000 0.0 0 0 -857.333058,547.649638 A 72.000000,72.000000 0.0 1 0 -881.249580,547.649646 A 12.000000,12.000000 0.0 0 0 -881.291319,548.649642 L -881.291319,605.523965 z"
       style="fill:none;stroke:#000000"
       id="path312" />
    <path
       d="M 1889.763808,642.545154 L 1889.763808,578.528082 A 48.000023,48.000023 0.0 1 1 1889.763808,642.545154 z"
       style="fill:none;stroke:#000000"
       id="path314" />
  </g>
</svg>
