0
SECTION
2
HEADER
9
$INSUNITS
70
4
9
$ACADVER
1
AC1014
9
$HANDSEED
5
FFFF
0
ENDSEC
0
SECTION
2
TABLES
0
TABLE
2
VPORT
5
8
100
AcDbSymbolTable
0
ENDTAB
0
TABLE
2
LTYPE
5
5
100
AcDbSymbolTable
0
LTYPE
5
14
100
AcDbSymbolTableRecord
100
AcDbLinetypeTableRecord
2
BYBLOCK
70
0
0
LTYPE
5
15
100
AcDbSymbolTableRecord
100
AcDbLinetypeTableRecord
2
BYLAYER
70
0
0
ENDTAB
0
TABLE
2
LAYER
5
2
100
AcDbSymbolTable
70
2
0
LAYER
5
50
100
AcDbSymbolTableRecord
100
AcDbLayerTableRecord
2
0
70
0
6
CONTINUOUS
0
ENDTAB
0
TABLE
2
STYLE
5
3
100
AcDbSymbolTable
70
1
0
STYLE
5
11
100
AcDbSymbolTableRecord
100
AcDbTextStyleTableRecord
2
STANDARD
70
0
0
ENDTAB
0
TABLE
2
VIEW
5
6
100
AcDbSymbolTable
70
0
0
ENDTAB
0
TABLE
2
UCS
5
7
100
AcDbSymbolTable
70
0
0
ENDTAB
0
TABLE
2
APPID
5
9
100
AcDbSymbolTable
70
2
0
APPID
5
12
100
AcDbSymbolTableRecord
100
AcDbRegAppTableRecord
2
ACAD
70
0
0
ENDTAB
0
TABLE
2
DIMSTYLE
5
A
100
AcDbSymbolTable
70
1
0
ENDTAB
0
TABLE
2
BLOCK_RECORD
5
1
100
AcDbSymbolTable
70
1
0
BLOCK_RECORD
5
1F
100
AcDbSymbolTableRecord
100
AcDbBlockTableRecord
2
*MODEL_SPACE
0
BLOCK_RECORD
5
1B
100
AcDbSymbolTableRecord
100
AcDbBlockTableRecord
2
*PAPER_SPACE
0
ENDTAB
0
ENDSEC
0
SECTION
2
BLOCKS
0
BLOCK
5
20
100
AcDbEntity
100
AcDbBlockBegin
2
*MODEL_SPACE
0
ENDBLK
5
21
100
AcDbEntity
100
AcDbBlockEnd
0
BLOCK
5
1C
100
AcDbEntity
100
AcDbBlockBegin
2
*PAPER_SPACE
0
ENDBLK
5
1D
100
AcDbEntity
100
AcDbBlockEnd
0
ENDSEC
0
SECTION
2
ENTITIES
0
LWPOLYLINE
5
100
100
AcDbEntity
8
0
100
AcDbPolyline
90
12
70
1
43
0.0
10
-3.1899589029347641
20
-1.357318695769822
10
-3.1899589029347637
20
1.6849175727505346
10
-3.8042169538533428
20
1.6849175727505348
10
-3.8042169538533424
20
0.35471743704267894
10
-5.0078302351033424
20
0.35471743704267877
10
-5.0078302351033424
20
1.684917572750535
10
-5.6220882860219215
20
1.684917572750535
10
-5.6220882860219215
20
-1.3573186957698213
10
-5.0078302351033424
20
-1.3573186957698216
10
-5.0078302351033424
20
-0.15993097065499881
10
-3.8042169538533424
20
-0.15993097065499901
10
-3.8042169538533424
20
-1.357318695769822
0
LWPOLYLINE
5
101
100
AcDbEntity
8
0
100
AcDbPolyline
90
6
70
1
43
0.0
10
-2.412658773652741
20
-3.1250000000000009
10
-4.4126587736527414
20
-3.1250000000000018
42
0.48156907411196725
10
4.4126587736527405
20
-3.1250000000000022
10
2.412658773652741
20
-3.1250000000000009
10
2.8052603378009309
20
-3.5176015641481917
42
-0.26108038030649977
10
-2.8052603378009278
20
-3.5176015641481917
0
LINE
5
102
100
AcDbEntity
8
0
100
AcDbLine
10
4.9365061792338141
20
0.020611051334822335
30
0
11
4.9365061792338141
21
-0.84267013906053334
31
9.5843465430273741e-17
0
LINE
5
103
100
AcDbEntity
8
0
100
AcDbLine
10
4.9365061792338141
20
-0.84267013906053334
30
9.5843465430273741e-17
11
4.6397532048428305
21
-0.84267013906053301
31
6.5892396958973821e-17
0
SPLINE
5
104
100
AcDbEntity
8
0
100
AcDbSpline
70
0
71
3
72
10
73
6
74
0
42
0.000000001
43
0.0000000001
44
0.0000000001
40
0
40
0
40
0
40
0
40
0.025133584053732623
40
0.025133584053732623
40
0.048343412808747294
40
0.048343412808747294
40
0.048343412808747294
40
0.048343412808747294
10
4.1977365585768469
20
-0.82191818593553301
30
0
10
4.2810286214589137
20
-0.83093419075568431
30
0
10
4.3384846751786545
20
-0.83715355955697723
30
0
10
4.4919862756571218
20
-0.84335264802755017
30
0
10
4.5658697402499611
20
-0.84301139354404175
30
0
10
4.6397532048428305
20
-0.84267013906053301
30
0
0
SPLINE
5
105
100
AcDbEntity
8
0
100
AcDbSpline
70
0
71
3
72
10
73
6
74
0
42
0.000000001
43
0.0000000001
44
0.0000000001
40
0
40
0
40
0
40
0
40
0.014836898346944776
40
0.014836898346944776
40
0.029669876719885781
40
0.029669876719885781
40
0.029669876719885781
40
0.029669876719885781
10
3.9507882567847021
20
-0.68703063963464484
30
0
10
3.9869322647697558
20
-0.7207876988745604
30
0
10
4.0215145234022378
20
-0.75308614662251139
30
0
10
4.1039293960284402
20
-0.79789444281576183
30
0
10
4.1508329773026444
20
-0.80990631437564775
30
0
10
4.1977365585768469
20
-0.82191818593553301
30
0
0
SPLINE
5
106
100
AcDbEntity
8
0
100
AcDbSpline
70
0
71
3
72
10
73
6
74
0
42
0.000000001
43
0.0000000001
44
0.0000000001
40
0
40
0
40
0
40
0
40
0.015141979081262642
40
0.015141979081262642
40
0.030321615301700154
40
0.030321615301700154
40
0.030321615301700154
40
0.030321615301700154
10
3.8532540472948797
20
-0.41310482858232239
30
0
10
3.856569366463054
20
-0.46346909168298817
30
0
10
3.859884685631227
20
-0.51383335478363945
30
0
10
3.8918314700108283
20
-0.60547571864012595
30
0
10
3.9194740801087304
20
-0.64371374018060268
30
0
10
3.9507882567847021
20
-0.68703063963464484
30
0
0
SPLINE
5
107
100
AcDbEntity
8
0
100
AcDbSpline
70
0
71
3
72
10
73
6
74
0
42
0.000000001
43
0.0000000001
44
0.0000000001
40
0
40
0
40
0
40
0
40
0.013193859526775526
40
0.013193859526775526
40
0.02637290577216813
40
0.02637290577216813
40
0.02637290577216813
40
0.02637290577216813
10
3.9227731796705969
20
-0.17653250335267745
30
0
10
3.9011016179763063
20
-0.21480184652969578
30
0
10
3.881241654827996
20
-0.2498721269242023
30
0
10
3.8583403511293652
20
-0.32885872750984063
30
0
10
3.8557971992121227
20
-0.37098177804607568
30
0
10
3.8532540472948797
20
-0.41310482858232239
30
0
0
SPLINE
5
108
100
AcDbEntity
8
0
100
AcDbSpline
70
0
71
3
72
10
73
6
74
0
42
0.000000001
43
0.0000000001
44
0.0000000001
40
0
40
0
40
0
40
0
40
0.012488052874644474
40
0.012488052874644474
40
0.024983331142738485
40
0.024983331142738485
40
0.024983331142738485
40
0.024983331142738485
10
4.1147287460768469
20
-0.027118560061966959
30
0
10
4.0769833120810652
20
-0.044670661462663207
30
0
10
4.0392378780852942
20
-0.062222762863354882
30
0
10
3.9751040748000466
20
-0.11187558884699136
30
0
10
3.949777091333857
20
-0.14316809016212356
30
0
10
3.9227731796705969
20
-0.17653250335267745
30
0
0
SPLINE
5
109
100
AcDbEntity
8
0
100
AcDbSpline
70
0
71
3
72
10
73
6
74
0
42
0.000000001
43
0.0000000001
44
0.0000000001
40
0
40
0
40
0
40
0
40
0.024582839463678056
40
0.024582839463678056
40
0.051070625858539054
40
0.051070625858539054
40
0.051070625858539054
40
0.051070625858539054
10
4.6003245088064917
20
0.020611051334822612
30
0
10
4.5183843432240085
20
0.021267894672659552
30
0
10
4.4364441776415156
20
0.021924738010496568
30
0
10
4.2680495589716152
20
0.0076021122237127127
30
0
10
4.2054352911842159
20
-0.0065773682473842625
30
0
10
4.1147287460768469
20
-0.027118560061966959
30
0
0
LINE
5
110
100
AcDbEntity
8
0
100
AcDbLine
10
4.6003245088064917
20
0.020611051334822612
30
0
11
4.9365061792338141
21
0.020611051334822335
31
0
0
LINE
5
111
100
AcDbEntity
8
0
100
AcDbLine
10
5.5507639880085238
20
-1.3573186957698229
30
0
11
5.5507639880085238
21
1.6849175727505332
31
-3.3775607516610197e-16
0
LINE
5
112
100
AcDbEntity
8
0
100
AcDbLine
10
5.5507639880085238
20
1.6849175727505332
30
-3.3775607516610197e-16
11
4.9365061792338141
21
1.6849175727505337
31
-2.0840534167788172e-15
0
LINE
5
113
100
AcDbEntity
8
0
100
AcDbLine
10
4.9365061792338141
20
1.6849175727505337
30
-2.0840534167788172e-15
11
4.9365061792338141
21
0.53733474375196733
31
-2.0930387613084449e-15
0
LINE
5
114
100
AcDbEntity
8
0
100
AcDbLine
10
4.9365061792338141
20
0.53733474375196733
30
-2.0930387613084449e-15
11
4.5359933647120245
21
0.53733474375196733
31
-2.13151433958241e-15
0
SPLINE
5
115
100
AcDbEntity
8
0
100
AcDbSpline
70
0
71
3
72
10
73
6
74
0
42
0.000000001
43
0.0000000001
44
0.0000000001
40
0
40
0
40
0
40
0
40
0.03654679685314903
40
0.03654679685314903
40
0.071851752600590638
40
0.071851752600590638
40
0.071851752600590638
40
0.071851752600590638
10
3.8989083739722021
20
0.49375540377088822
30
0
10
4.0195374735538261
20
0.51076657340104659
30
0
10
4.106405693918167
20
0.52301676872881553
30
0
10
4.3225924589992424
20
0.53660124679497612
30
0
10
4.4292929118556339
20
0.53696799527347172
30
0
10
4.5359933647120245
20
0.53733474375196733
30
0
0
SPLINE
5
116
100
AcDbEntity
8
0
100
AcDbSpline
70
0
71
3
72
10
73
6
74
0
42
0.000000001
43
0.0000000001
44
0.0000000001
40
0
40
0
40
0
40
0
40
0.01768046403538753
40
0.01768046403538753
40
0.035404449218607387
40
0.035404449218607387
40
0.035404449218607387
40
0.035404449218607387
10
3.5803659531080974
20
0.34952944876142822
30
0
10
3.6299525980635967
20
0.38138042577274461
30
0
10
3.6795392430190836
20
0.41323140278405363
30
0
10
3.7856877452044717
20
0.46172935293863093
30
0
10
3.8387884125555156
20
0.47674962521869452
30
0
10
3.8989083739722021
20
0.49375540377088822
30
0
0
SPLINE
5
117
100
AcDbEntity
8
0
100
AcDbSpline
70
0
71
3
72
10
73
6
74
0
42
0.000000001
43
0.0000000001
44
0.0000000001
40
0
40
0
40
0
40
0
40
0.020117460332311952
40
0.020117460332311952
40
0.040275134057613397
40
0.040275134057613397
40
0.040275134057613397
40
0.040275134057613397
10
3.322004106899525
20
0.04966369630285547
30
0
10
3.3561709837645819
20
0.10736488226198133
30
0
10
3.3903378606296357
20
0.16506606822110098
30
0
10
3.4761715457788394
20
0.26544515935965607
30
0
10
3.5253220450939353
20
0.30510933054297507
30
0
10
3.5803659531080974
20
0.34952944876142822
30
0
0
SPLINE
5
118
100
AcDbEntity
8
0
100
AcDbSpline
70
0
71
3
72
10
73
6
74
0
42
0.000000001
43
0.0000000001
44
0.0000000001
40
0
40
0
40
0
40
0
40
0.024521605130419715
40
0.024521605130419715
40
0.049238555096938169
40
0.049238555096938169
40
0.049238555096938169
40
0.049238555096938169
10
3.2203194769823802
20
-0.42140552042535523
30
0
10
3.223106582865702
20
-0.33971436750821848
30
0
10
3.2258936887490237
20
-0.25802321459106792
30
0
10
3.2587433034756681
20
-0.10010967882151137
30
0
10
3.2871845068307799
20
-0.032773590935420073
30
0
10
3.322004106899525
20
0.04966369630285547
30
0
0
SPLINE
5
119
100
AcDbEntity
8
0
100
AcDbSpline
70
0
71
3
72
10
73
6
74
0
42
0.000000001
43
0.0000000001
44
0.0000000001
40
0
40
0
40
0
40
0
40
0.034721186868201213
40
0.034721186868201213
40
0.069211321709007359
40
0.069211321709007359
40
0.069211321709007359
40
0.069211321709007359
10
3.3967110785448802
20
-1.0138737523417831
30
0
10
3.3369990065002768
20
-0.91472947037357932
30
0
10
3.2875718515613506
20
-0.83266198186822971
30
0
10
3.2304393613544278
20
-0.63393583667805287
30
0
10
3.2253794191684038
20
-0.52767067855169747
30
0
10
3.2203194769823802
20
-0.42140552042535523
30
0
0
SPLINE
5
120
100
AcDbEntity
8
0
100
AcDbSpline
70
0
71
3
72
10
73
6
74
0
42
0.000000001
43
0.0000000001
44
0.0000000001
40
0
40
0
40
0
40
0
40
0.02824035552808718
40
0.02824035552808718
40
0.0564622177358007
40
0.0564622177358007
40
0.0564622177358007
40
0.0564622177358007
10
3.8345773788893469
20
-1.3116642200808883
30
0
10
3.7459818432504424
20
-1.2798500939050741
30
0
10
3.6632079833560818
20
-1.2501264966182828
30
0
10
3.5175074408260527
20
-1.1503823541762928
30
0
10
3.4571092596854625
20
-1.0821280532590332
30
0
10
3.3967110785448802
20
-1.0138737523417831
30
0
0
SPLINE
5
121
100
AcDbEntity
8
0
100
AcDbSpline
70
0
71
3
72
10
73
6
74
0
42
0.000000001
43
0.0000000001
44
0.0000000001
40
0
40
0
40
0
40
0
40
0.036719450780833211
40
0.036719450780833211
40
0.0767763748864594
40
0.0767763748864594
40
0.0767763748864594
40
0.0767763748864594
10
4.5650461586916693
20
-1.3573186957698229
30
0
10
4.4426515363910157
20
-1.3582505071197568
30
0
10
4.3202569140903595
20
-1.3591823184696905
30
0
10
4.0655220283374343
20
-1.3456353063148558
30
0
10
3.9712356185781195
20
-1.3317661313230147
30
0
10
3.8345773788893469
20
-1.3116642200808883
30
0
0
LINE
5
122
100
AcDbEntity
8
0
100
AcDbLine
10
4.5650461586916693
20
-1.3573186957698229
30
0
11
5.5507639880085238
21
-1.3573186957698229
31
0
0
LINE
5
123
100
AcDbEntity
8
0
100
AcDbLine
10
2.1059400114023936
20
-1.3573186957698224
30
0
11
2.7201977642977488
21
-1.3573186957698224
31
-1.3639262006378661e-16
0
LINE
5
124
100
AcDbEntity
8
0
100
AcDbLine
10
2.7201977642977488
20
-1.3573186957698224
30
-1.3639262006378661e-16
11
2.7201977642977493
21
0.2654840684075005
31
-1.8016729932150135e-16
0
SPLINE
5
125
100
AcDbEntity
8
0
100
AcDbSpline
70
0
71
3
72
10
73
6
74
0
42
0.000000001
43
0.0000000001
44
0.0000000001
40
0
40
0
40
0
40
0
40
0.044383599603982866
40
0.044383599603982866
40
0.087164443873253963
40
0.087164443873253963
40
0.087164443873253963
40
0.087164443873253963
10
2.6600170406306045
20
1.0374567544598232
30
0
10
2.683673325878742
20
0.89141497470903663
30
0
10
2.7006260421426291
20
0.7867575938557535
30
0
10
2.7193422070282058
20
0.52446478211459047
30
0
10
2.7197699856629773
20
0.39497442526104254
30
0
10
2.7201977642977493
20
0.26548406840750033
30
0
0
SPLINE
5
126
100
AcDbEntity
8
0
100
AcDbSpline
70
0
71
3
72
10
73
6
74
0
42
0.000000001
43
0.0000000001
44
0.0000000001
40
0
40
0
40
0
40
0
40
0.019216129392423082
40
0.019216129392423082
40
0.038475866501941798
40
0.038475866501941798
40
0.038475866501941798
40
0.038475866501941798
10
2.4877760085070388
20
1.3746759927410734
30
0
10
2.5260363644565489
20
1.3233045033003927
30
0
10
2.5642967204060572
20
1.2719330138597127
30
0
10
2.6222023417987739
20
1.1596149121568837
30
0
10
2.6399785812222905
20
1.1021898175285811
30
0
10
2.6600170406306045
20
1.0374567544598232
30
0
0
SPLINE
5
127
100
AcDbEntity
8
0
100
AcDbSpline
70
0
71
3
72
10
73
6
74
0
42
0.000000001
43
0.0000000001
44
0.0000000001
40
0
40
0
40
0
40
0
40
0.022437060361806326
40
0.022437060361806326
40
0.044958112763727416
40
0.044958112763727416
40
0.044958112763727416
40
0.044958112763727416
10
2.1318799528086441
20
1.6361505425114289
30
0
10
2.1988775182800921
20
1.6029105001327535
30
0
10
2.2658750837515358
20
1.5696704577540801
30
0
10
2.3851692803786135
20
1.4829415366185188
30
0
10
2.4326632530199213
20
1.4328282460702046
30
0
10
2.4877760085070388
20
1.3746759927410734
30
0
0
SPLINE
5
128
100
AcDbEntity
8
0
100
AcDbSpline
70
0
71
3
72
10
73
6
74
0
42
0.000000001
43
0.0000000001
44
0.0000000001
40
0
40
0
40
0
40
0
40
0.033836831350952855
40
0.033836831350952855
40
0.068749654722627673
40
0.068749654722627673
40
0.068749654722627673
40
0.068749654722627673
10
1.4709300073588152
20
1.7367974555630341
30
0
10
1.5837146016952939
20
1.735752195867172
30
0
10
1.6964991960317821
20
1.7347069361713097
30
0
10
1.9207527187978854
20
1.7032232675610977
30
0
10
2.0095561460948939
20
1.6750114270068992
30
0
10
2.1318799528086441
20
1.6361505425114289
30
0
0
SPLINE
5
129
100
AcDbEntity
8
0
100
AcDbSpline
70
0
71
3
72
10
73
6
74
0
42
0.000000001
43
0.0000000001
44
0.0000000001
40
0
40
0
40
0
40
0
40
0.033574655190950133
40
0.033574655190950133
40
0.066587863943353282
40
0.066587863943353282
40
0.066587863943353282
40
0.066587863943353282
10
0.88572504844310496
20
1.6444513833660737
30
0
10
0.99249339244410484
20
1.6780014017344682
30
0
10
1.0743130872805136
20
1.7037117589601292
30
0
10
1.2713158910693398
20
1.7331118648757959
30
0
10
1.371122949214074
20
1.7349546602194148
30
0
10
1.4709300073588152
20
1.7367974555630341
30
0
0
SPLINE
5
130
100
AcDbEntity
8
0
100
AcDbSpline
70
0
71
3
72
10
73
6
74
0
42
0.000000001
43
0.0000000001
44
0.0000000001
40
0
40
0
40
0
40
0
40
0.023650259746669788
40
0.023650259746669788
40
0.047219520211828583
40
0.047219520211828583
40
0.047219520211828583
40
0.047219520211828583
10
0.52775385703685429
20
1.3964653647083891
30
0
10
0.58351389339116277
20
1.4521937174766673
30
0
10
0.63182191191855841
20
1.5004742867525729
30
0
10
0.75175287810470104
20
1.5827040829127512
30
0
10
0.81873896327390883
20
1.6135777331394152
30
0
10
0.88572504844310496
20
1.6444513833660737
30
0
0
SPLINE
5
131
100
AcDbEntity
8
0
100
AcDbSpline
70
0
71
3
72
10
73
6
74
0
42
0.000000001
43
0.0000000001
44
0.0000000001
40
0
40
0
40
0
40
0
40
0.021565652595130415
40
0.021565652595130415
40
0.043171681869618339
40
0.043171681869618339
40
0.043171681869618339
40
0.043171681869618339
10
0.34409942950847311
20
1.014629665626968
30
0
10
0.36286823155587894
20
1.0840217287439917
30
0
10
0.38163703360328033
20
1.1534137918609995
30
0
10
0.44243180162382462
20
1.2810450552983883
30
0
10
0.4827490888941387
20
1.3355846904347555
30
0
10
0.52775385703685429
20
1.3964653647083891
30
0
0
SPLINE
5
132
100
AcDbEntity
8
0
100
AcDbSpline
70
0
71
3
72
10
73
6
74
0
42
0.000000001
43
0.0000000001
44
0.0000000001
40
0
40
0
40
0
40
0
40
0.03889198465524122
40
0.03889198465524122
40
0.080091073060289536
40
0.080091073060289536
40
0.080091073060289536
40
0.080091073060289536
10
0.29429438438060446
20
0.24058169485517822
30
0
10
0.29406562349607168
20
0.37022144187165773
30
0
10
0.29383686261153896
20
0.49986118888814901
30
0
10
0.30901613978007331
20
0.76567185946017213
30
0
10
0.32341543571530823
20
0.86785204706899433
30
0
10
0.34409942950847311
20
1.014629665626968
30
0
0
LINE
5
133
100
AcDbEntity
8
0
100
AcDbLine
10
0.29429438438060446
20
0.24058169485517822
30
0
11
0.29429438438060446
21
-1.3573186957698227
31
1.7740258047294079e-16
0
LINE
5
134
100
AcDbEntity
8
0
100
AcDbLine
10
0.29429438438060446
20
-1.3573186957698227
30
1.7740258047294079e-16
11
0.90855213727595996
21
-1.3573186957698224
31
-1.3639262006378668e-16
0
LINE
5
135
100
AcDbEntity
8
0
100
AcDbLine
10
0.90855213727595996
20
-1.3573186957698224
30
-1.3639262006378668e-16
11
0.90855213727596018
21
0.32566464306303361
31
-1.8684868528327584e-16
0
SPLINE
5
136
100
AcDbEntity
8
0
100
AcDbSpline
70
0
71
3
72
10
73
6
74
0
42
0.000000001
43
0.0000000001
44
0.0000000001
40
0
40
0
40
0
40
0
40
0.029660393251868228
40
0.029660393251868228
40
0.057761240467155972
40
0.057761240467155972
40
0.057761240467155972
40
0.057761240467155972
10
0.93552979554774973
20
0.84238833548017855
30
0
10
0.92441995130837218
20
0.7441465503928304
30
0
10
0.91666043349498239
20
0.67553092761905897
30
0
10
0.90841063095879904
20
0.49845094472472629
30
0
10
0.90848138411737955
20
0.41205779389385266
30
0
10
0.90855213727596018
20
0.32566464306303344
30
0
0
SPLINE
5
137
100
AcDbEntity
8
0
100
AcDbSpline
70
0
71
3
72
10
73
6
74
0
42
0.000000001
43
0.0000000001
44
0.0000000001
40
0
40
0
40
0
40
0
40
0.015976129774941963
40
0.015976129774941963
40
0.031965793743755203
40
0.031965793743755203
40
0.031965793743755203
40
0.031965793743755203
10
1.09531971540096
20
1.1049006021160734
30
0
10
1.0563792490663975
20
1.0685742526444661
30
0
10
1.0174387827318303
20
1.0322479031728546
30
0
10
0.96381626542737353
20
0.94490984464816918
30
0
10
0.95021456699516071
20
0.8956118355133198
30
0
10
0.93552979554774973
20
0.84238833548017855
30
0
0
SPLINE
5
138
100
AcDbEntity
8
0
100
AcDbSpline
70
0
71
3
72
10
73
6
74
0
42
0.000000001
43
0.0000000001
44
0.0000000001
40
0
40
0
40
0
40
0
40
0.021123242583633399
40
0.021123242583633399
40
0.04269726128395411
40
0.04269726128395411
40
0.04269726128395411
40
0.04269726128395411
10
1.48960682477596
20
1.2117732203144682
30
0
10
1.4192192898046065
20
1.2099630020768293
30
0
10
1.3488317548332518
20
1.2081527838391906
30
0
10
1.2153661586158002
20
1.1743201390680726
30
0
10
1.1638722563482882
20
1.1445426399974439
30
0
10
1.09531971540096
20
1.1049006021160734
30
0
0
SPLINE
5
139
100
AcDbEntity
8
0
100
AcDbSpline
70
0
71
3
72
10
73
6
74
0
42
0.000000001
43
0.0000000001
44
0.0000000001
40
0
40
0
40
0
40
0
40
0.024097540054165652
40
0.024097540054165652
40
0.047893480270718915
40
0.047893480270718915
40
0.047893480270718915
40
0.047893480270718915
10
1.8953076275789993
20
1.0986748969692839
30
0
10
1.8256993276777014
20
1.1387599522751515
30
0
10
1.7709743829269418
20
1.170274188940251
30
0
10
1.634383242778932
20
1.206511150167028
30
0
10
1.5619950337774453
20
1.2091421852407482
30
0
10
1.48960682477596
20
1.2117732203144682
30
0
0
SPLINE
5
140
100
AcDbEntity
8
0
100
AcDbSpline
70
0
71
3
72
10
73
6
74
0
42
0.000000001
43
0.0000000001
44
0.0000000001
40
0
40
0
40
0
40
0
40
0.018367707070942301
40
0.018367707070942301
40
0.036736850392680098
40
0.036736850392680098
40
0.036736850392680098
40
0.036736850392680098
10
2.083112624546315
20
0.79880929352232333
30
0
10
2.0656971199016652
20
0.85750584659748175
30
0
10
2.0482816152570158
20
0.9162023996726385
30
0
10
1.985793145071747
20
1.0162341239947004
30
0
10
1.9411039100489627
20
1.0569501985777565
30
0
10
1.8953076275789993
20
1.0986748969692839
30
0
0
SPLINE
5
141
100
AcDbEntity
8
0
100
AcDbSpline
70
0
71
3
72
10
73
6
74
0
42
0.000000001
43
0.0000000001
44
0.0000000001
40
0
40
0
40
0
40
0
40
0.025492673462523111
40
0.025492673462523111
40
0.053391947663961048
40
0.053391947663961048
40
0.053391947663961048
40
0.053391947663961048
10
2.1059400114023941
20
0.29038644195982299
30
0
10
2.1064455987061406
20
0.37536051608441678
30
0
10
2.1069511860098866
20
0.46033459020895762
30
0
10
2.100197521680486
20
0.63787513633842252
30
0
10
2.0932203253428354
20
0.70359804958093453
30
0
10
2.083112624546315
20
0.79880929352232333
30
0
0
LINE
5
142
100
AcDbEntity
8
0
100
AcDbLine
10
2.1059400114023941
20
0.29038644195982299
30
0
11
2.1059400114023936
21
-1.3573186957698224
31
0
0
LINE
5
143
100
AcDbEntity
8
0
100
AcDbLine
10
-0.79518315468189538
20
0.63694393993803367
30
0
11
-0.19752678547260594
21
0.69504922987409934
31
-1.3915735545595935e-16
0
SPLINE
5
144
100
AcDbEntity
8
0
100
AcDbSpline
70
0
71
3
72
10
73
6
74
0
42
0.000000001
43
0.0000000001
44
0.0000000001
40
0
40
0
40
0
40
0
40
0.048851332320318505
40
0.048851332320318505
40
0.097355470649821696
40
0.097355470649821696
40
0.097355470649821696
40
0.097355470649821696
10
-0.56691167030689538
20
1.4722100532192839
30
0
10
-0.45818537157922179
20
1.3509882204626731
30
0
10
-0.36863713099510587
20
1.2511485131355116
30
0
10
-0.24794196076994074
20
0.98975854687653342
30
0
10
-0.22273437312127253
20
0.84240388837531177
30
0
10
-0.19752678547260594
20
0.69504922987409934
30
0
0
SPLINE
5
145
100
AcDbEntity
8
0
100
AcDbSpline
70
0
71
3
72
10
73
6
74
0
42
0.000000001
43
0.0000000001
44
0.0000000001
40
0
40
0
40
0
40
0
40
0.048046622447897619
40
0.048046622447897619
40
0.096806967569449343
40
0.096806967569449343
40
0.096806967569449343
40
0.096806967569449343
10
-1.4530199495351057
20
1.73887259127089
30
0
10
-1.2929677019574735
20
1.7331251737521067
30
0
10
-1.1329154543798263
20
1.7273777562333226
30
0
10
-0.83394883533480368
20
1.6422209847835316
30
0
10
-0.71731553467735865
20
1.5679656424827217
30
0
10
-0.56691167030689538
20
1.4722100532192839
30
0
0
SPLINE
5
146
100
AcDbEntity
8
0
100
AcDbSpline
70
0
71
3
72
10
73
6
74
0
42
0.000000001
43
0.0000000001
44
0.0000000001
40
0
40
0
40
0
40
0
40
0.037601236114393498
40
0.037601236114393498
40
0.074777032492144013
40
0.074777032492144013
40
0.074777032492144013
40
0.074777032492144013
10
-2.1150070158040264
20
1.6278497016567848
30
0
10
-1.9959027343851408
20
1.6668836285840316
30
0
10
-1.9014483580045791
20
1.6978390668073706
30
0
10
-1.6792459342703494
20
1.733481832606292
30
0
10
-1.5661329419027177
20
1.7361772119385912
30
0
10
-1.4530199495351057
20
1.73887259127089
30
0
0
SPLINE
5
147
100
AcDbEntity
8
0
100
AcDbSpline
70
0
71
3
72
10
73
6
74
0
42
0.000000001
43
0.0000000001
44
0.0000000001
40
0
40
0
40
0
40
0
40
0.028199934440346981
40
0.028199934440346981
40
0.056384789714691075
40
0.056384789714691075
40
0.056384789714691075
40
0.056384789714691075
10
-2.5258958068883159
20
1.2885553276676793
30
0
10
-2.4691438724976038
20
1.3634898114445817
30
0
10
-2.4157925227310999
20
1.433934209445723
30
0
10
-2.2785043975937516
20
1.5467149930156499
30
0
10
-2.1967557066988799
20
1.5872823473362221
30
0
10
-2.1150070158040264
20
1.6278497016567848
30
0
0
SPLINE
5
148
100
AcDbEntity
8
0
100
AcDbSpline
70
0
71
3
72
10
73
6
74
0
42
0.000000001
43
0.0000000001
44
0.0000000001
40
0
40
0
40
0
40
0
40
0.02659371715370511
40
0.02659371715370511
40
0.053183126350106684
40
0.053183126350106684
40
0.053183126350106684
40
0.053183126350106684
10
-2.6711594787633159
20
0.79880899549910001
30
0
10
-2.6647226220611158
20
0.88722070983560941
30
0
10
-2.658506457122602
20
0.97260117179690364
30
0
10
-2.6098683064920265
20
1.1358003008799264
30
0
10
-2.567882056690169
20
1.2121778142738069
30
0
10
-2.5258958068883159
20
1.2885553276676793
30
0
0
SPLINE
5
149
100
AcDbEntity
8
0
100
AcDbSpline
70
0
71
3
72
10
73
6
74
0
42
0.000000001
43
0.0000000001
44
0.0000000001
40
0
40
0
40
0
40
0
40
0.027753011098536392
40
0.027753011098536392
40
0.055334460899881643
40
0.055334460899881643
40
0.055334460899881643
40
0.055334460899881643
10
-2.5497609106099346
20
0.31425094963499445
30
0
10
-2.590663965451117
20
0.39722713326317749
30
0
10
-2.6247091598570527
20
0.46629141987093176
30
0
10
-2.6640707991020971
20
0.62863224723866062
30
0
10
-2.6676151389327063
20
0.71372062136887304
30
0
10
-2.6711594787633159
20
0.79880899549910001
30
0
0
SPLINE
5
150
100
AcDbEntity
8
0
100
AcDbSpline
70
0
71
3
72
10
73
6
74
0
42
0.000000001
43
0.0000000001
44
0.0000000001
40
0
40
0
40
0
40
0
40
0.023313033031870475
40
0.023313033031870475
40
0.046634313414188736
40
0.046634313414188736
40
0.046634313414188736
40
0.046634313414188736
10
-2.2135787931477764
20
0.0050467884678495629
30
0
10
-2.2801039251490733
20
0.045212296368698647
30
0
10
-2.3466290571503712
20
0.085377804269548246
30
0
10
-2.4588952847195062
20
0.18826292841480172
30
0
10
-2.503174714229726
20
0.24965773695855997
30
0
10
-2.5497609106099346
20
0.31425094963499445
30
0
0
SPLINE
5
151
100
AcDbEntity
8
0
100
AcDbSpline
70
0
71
3
72
10
73
6
74
0
42
0.000000001
43
0.0000000001
44
0.0000000001
40
0
40
0
40
0
40
0
40
0.035060356596278701
40
0.035060356596278701
40
0.07143003584128288
40
0.07143003584128288
40
0.07143003584128288
40
0.07143003584128288
10
-1.5505540100133162
20
-0.21388628719857844
30
0
10
-1.6641935230382128
20
-0.18660705174781878
30
0
10
-1.7778330360631098
20
-0.159327816297059
30
0
10
-2.0035287407899824
20
-0.086634370212388401
30
0
10
-2.0912290809464129
20
-0.048355547084572077
30
0
10
-2.2135787931477764
20
0.0050467884678495629
30
0
0
SPLINE
5
152
100
AcDbEntity
8
0
100
AcDbSpline
70
0
71
3
72
10
73
6
74
0
42
0.000000001
43
0.0000000001
44
0.0000000001
40
0
40
0
40
0
40
0
40
0.034188222608480222
40
0.034188222608480222
40
0.065575089643229001
40
0.065575089643229001
40
0.065575089643229001
40
0.065575089643229001
10
-0.98610100422260571
20
-0.41725539802125616
30
0
10
-1.0862273974370202
20
-0.36283337944875427
30
0
10
-1.1552986700361081
20
-0.32529084985653939
30
0
10
-1.3531189517810902
20
-0.2577553718857386
30
0
10
-1.4518364808972049
20
-0.23582082954215816
30
0
10
-1.5505540100133162
20
-0.21388628719857844
30
0
0
SPLINE
5
153
100
AcDbEntity
8
0
100
AcDbSpline
70
0
71
3
72
10
73
6
74
0
42
0.000000001
43
0.0000000001
44
0.0000000001
40
0
40
0
40
0
40
0
40
0.011443601907510488
40
0.011443601907510488
40
0.02286913161488318
40
0.02286913161488318
40
0.02286913161488318
40
0.02286913161488318
10
-0.89479264889118493
20
-0.60194784043840099
30
0
10
-0.89936289529703584
20
-0.5640772741898602
30
0
10
-0.90349007841236495
20
-0.52987807622346106
30
0
10
-0.93434813186317645
20
-0.46845861982445003
30
0
10
-0.96022456804289458
20
-0.44285700892284952
30
0
10
-0.98610100422260571
20
-0.41725539802125616
30
0
0
SPLINE
5
154
100
AcDbEntity
8
0
100
AcDbSpline
70
0
71
3
72
12
73
8
74
0
42
0.000000001
43
0.0000000001
44
0.0000000001
40
0
40
0
40
0
40
0
40
0.011382769874933781
40
0.011382769874933781
40
0.017024648932561837
40
0.017024648932561837
40
0.022180334615676971
40
0.022180334615676971
40
0.022180334615676971
40
0.022180334615676971
10
-0.99232670936939527
20
-0.79079055427125633
30
0
10
-0.96402643377091801
20
-0.76551739193115476
30
0
10
-0.93572615817243743
20
-0.74024422959105007
30
0
10
-0.91135139357486405
20
-0.69320232820329519
30
0
10
-0.90611364530181249
20
-0.67590434917210018
30
0
10
-0.89887106709590492
20
-0.63882173495937
30
0
10
-0.89683185799354592
20
-0.62038478769889527
30
0
10
-0.89479264889118493
20
-0.60194784043840099
30
0
0
SPLINE
5
155
100
AcDbEntity
8
0
100
AcDbSpline
70
0
71
3
72
10
73
6
74
0
42
0.000000001
43
0.0000000001
44
0.0000000001
40
0
40
0
40
0
40
0
40
0.022306582831570929
40
0.022306582831570929
40
0.044952303332283117
40
0.044952303332283117
40
0.044952303332283117
40
0.044952303332283117
10
-1.4115160432851057
20
-0.90077602504304588
30
0
10
-1.3371976418268496
20
-0.89843459612560328
30
0
10
-1.2628792403685973
20
-0.89609316720816057
30
0
10
-1.1215760940029105
20
-0.86098794021114256
30
0
10
-1.0651884676273822
20
-0.83036292809104117
30
0
10
-0.99232670936939527
20
-0.79079055427125633
30
0
0
SPLINE
5
156
100
AcDbEntity
8
0
100
AcDbSpline
70
0
71
3
72
10
73
6
74
0
42
0.000000001
43
0.0000000001
44
0.0000000001
40
0
40
0
40
0
40
0
40
0.023430482713615027
40
0.023430482713615027
40
0.046329638155734362
40
0.046329638155734362
40
0.046329638155734362
40
0.046329638155734362
10
-1.8006151643788557
20
-0.79805367826036155
30
0
10
-1.7326109641198144
20
-0.83646318336790193
30
0
10
-1.6819020465868837
20
-0.86510412642082757
30
0
10
-1.5500713788195719
20
-0.89754891811912263
30
0
10
-1.4807937110523359
20
-0.89916247158108431
30
0
10
-1.4115160432851057
20
-0.90077602504304588
30
0
0
SPLINE
5
157
100
AcDbEntity
8
0
100
AcDbSpline
70
0
71
3
72
10
73
6
74
0
42
0.000000001
43
0.0000000001
44
0.0000000001
40
0
40
0
40
0
40
0
40
0.019636449591957116
40
0.019636449591957116
40
0.039594458908206051
40
0.039594458908206051
40
0.039594458908206051
40
0.039594458908206051
10
-1.9697433439290264
20
-0.46083443997911139
30
0
10
-1.9566645753037264
20
-0.52496930444364787
30
0
10
-1.9435858066784224
20
-0.58910416890820616
30
0
10
-1.888547265547023
20
-0.70337539813811212
30
0
10
-1.8503257665757256
20
-0.74452926274753428
30
0
10
-1.8006151643788557
20
-0.79805367826036155
30
0
0
LINE
5
158
100
AcDbEntity
8
0
100
AcDbLine
10
-1.9697433439290264
20
-0.46083443997911139
30
0
11
-2.5840013948476055
21
-0.48781209825090066
31
1.3938780797461657e-16
0
SPLINE
5
159
100
AcDbEntity
8
0
100
AcDbSpline
70
0
71
3
72
10
73
6
74
0
42
0.000000001
43
0.0000000001
44
0.0000000001
40
0
40
0
40
0
40
0
40
0.040421340738205656
40
0.040421340738205656
40
0.080792245443880056
40
0.080792245443880056
40
0.080792245443880056
40
0.080792245443880056
10
-2.2799855199849346
20
-1.1581000053744668
30
0
10
-2.3712479021772799
20
-1.0589765822671457
30
0
10
-2.4545203830579094
20
-0.96853128424577506
30
0
10
-2.554726377443334
20
-0.74441193291176777
30
0
10
-2.56936388614547
20
-0.61611201558133311
30
0
10
-2.5840013948476055
20
-0.48781209825090066
30
0
0
SPLINE
5
160
100
AcDbEntity
8
0
100
AcDbSpline
70
0
71
3
72
10
73
6
74
0
42
0.000000001
43
0.0000000001
44
0.0000000001
40
0
40
0
40
0
40
0
40
0.046628518056275291
40
0.046628518056275291
40
0.094164083406572396
40
0.094164083406572396
40
0.094164083406572396
40
0.094164083406572396
10
-1.4177417484318953
20
-1.4091988766055461
30
0
10
-1.5731027703538518
20
-1.404623029158518
30
0
10
-1.7284637922758055
20
-1.4000471817114901
30
0
10
-2.0201847407754601
20
-1.3203659346897201
30
0
10
-2.1321454197041425
20
-1.2504377240492079
30
0
10
-2.2799855199849346
20
-1.1581000053744668
30
0
0
SPLINE
5
161
100
AcDbEntity
8
0
100
AcDbSpline
70
0
71
3
72
10
73
6
74
0
42
0.000000001
43
0.0000000001
44
0.0000000001
40
0
40
0
40
0
40
0
40
0.033696432187901033
40
0.033696432187901033
40
0.067125554446123642
40
0.067125554446123642
40
0.067125554446123642
40
0.067125554446123642
10
-0.81904766235706628
20
-1.303363677249467
30
0
10
-0.92535867516605319
20
-1.3396138438684368
30
0
10
-1.0121695146077145
20
-1.3692147978142624
30
0
10
-1.2127583493248122
20
-1.403403248168775
30
0
10
-1.3152500488783525
20
-1.4063010623871606
30
0
10
-1.4177417484318953
20
-1.4091988766055461
30
0
0
SPLINE
5
162
100
AcDbEntity
8
0
100
AcDbSpline
70
0
71
3
72
10
73
6
74
0
42
0.000000001
43
0.0000000001
44
0.0000000001
40
0
40
0
40
0
40
0
40
0.026339618855609925
40
0.026339618855609925
40
0.052636253983742907
40
0.052636253983742907
40
0.052636253983742907
40
0.052636253983742907
10
-0.43928680096027678
20
-0.99519723294786155
30
0
10
-0.49333640448245974
20
-1.0643872413608733
30
0
10
-0.54207199700625808
20
-1.126774675069814
30
0
10
-0.66920364583329728
20
-1.2290419582865368
30
0
10
-0.74412565409518583
20
-1.266202817768004
30
0
10
-0.81904766235706628
20
-1.303363677249467
30
0
0
SPLINE
5
163
100
AcDbEntity
8
0
100
AcDbSpline
70
0
71
3
72
10
73
6
74
0
42
0.000000001
43
0.0000000001
44
0.0000000001
40
0
40
0
40
0
40
0
40
0.023715746202342444
40
0.023715746202342444
40
0.047426701650493897
40
0.047426701650493897
40
0.047426701650493897
40
0.047426701650493897
10
-0.30751225624439543
20
-0.56044393418840099
30
0
10
-0.31339232330618744
20
-0.63927743319846753
30
0
10
-0.31904851818820085
20
-0.71510949921848677
30
0
10
-0.3631930037492227
20
-0.85997703208006082
30
0
10
-0.40123990235475282
20
-0.92758713251396685
30
0
10
-0.43928680096027656
20
-0.99519723294786155
30
0
0
SPLINE
5
164
100
AcDbEntity
8
0
100
AcDbSpline
70
0
71
3
72
10
73
6
74
0
42
0.000000001
43
0.0000000001
44
0.0000000001
40
0
40
0
40
0
40
0
40
0.035512642022758188
40
0.035512642022758188
40
0.071034816665770467
40
0.071034816665770467
40
0.071034816665770467
40
0.071034816665770467
10
-0.58766362343189538
20
0.051738682999099311
30
0
10
-0.50690257941802286
20
-0.034808451411233121
30
0
10
-0.42614153540414978
20
-0.12135558582156632
30
0
10
-0.33221995045989772
20
-0.32520513173474175
30
0
10
-0.32014094504697188
20
-0.44020780027129564
30
0
10
-0.30751225624439543
20
-0.56044393418840077
30
0
0
SPLINE
5
165
100
AcDbEntity
8
0
100
AcDbSpline
70
0
71
3
72
10
73
6
74
0
42
0.000000001
43
0.0000000001
44
0.0000000001
40
0
40
0
40
0
40
0
40
0.038390317018671398
40
0.038390317018671398
40
0.078302968659252237
40
0.078302968659252237
40
0.078302968659252237
40
0.078302968659252237
10
-1.2807786193883162
20
0.35264200331159967
30
0
10
-1.156749801156981
20
0.32113659934364702
30
0
10
-1.0327209829256536
20
0.28963119537569626
30
0
10
-0.79553449123072761
20
0.19077556315878047
30
0
10
-0.70897105634546609
20
0.13287658938819963
30
0
10
-0.58766362343189538
20
0.051738682999099311
30
0
0
SPLINE
5
166
100
AcDbEntity
8
0
100
AcDbSpline
70
0
71
3
72
10
73
6
74
0
42
0.000000001
43
0.0000000001
44
0.0000000001
40
0
40
0
40
0
40
0
40
0.028654588370783829
40
0.028654588370783829
40
0.054743348719063216
40
0.054743348719063216
40
0.054743348719063216
40
0.054743348719063216
10
-1.7725997892415266
20
0.48545456291624456
30
0
10
-1.6811098262364685
20
0.45801812426270727
30
0
10
-1.6179031181949366
20
0.43906340058905508
30
0
10
-1.4457524159943922
20
0.39315561882756916
30
0
10
-1.3632655176913619
20
0.37289881106958633
30
0
10
-1.2807786193883162
20
0.35264200331159967
30
0
0
SPLINE
5
167
100
AcDbEntity
8
0
100
AcDbSpline
70
0
71
3
72
10
73
6
74
0
42
0.000000001
43
0.0000000001
44
0.0000000001
40
0
40
0
40
0
40
0
40
0.014891342202434587
40
0.014891342202434587
40
0.029363216049900755
40
0.029363216049900755
40
0.029363216049900755
40
0.029363216049900755
10
-1.993608447650645
20
0.61722940565534978
30
0
10
-1.9568950997413557
20
0.58382219082145137
30
0
10
-1.9300368983858345
20
0.55938264079858457
30
0
10
-1.8546391378558844
20
0.51588602283365437
30
0
10
-1.8136194635487053
20
0.50067029287494935
30
0
10
-1.7725997892415266
20
0.48545456291624456
30
0
0
SPLINE
5
168
100
AcDbEntity
8
0
100
AcDbSpline
70
0
71
3
72
10
73
6
74
0
42
0.000000001
43
0.0000000001
44
0.0000000001
40
0
40
0
40
0
40
0
40
0.010070362907931556
40
0.010070362907931556
40
0.020152150799942856
40
0.020152150799942856
40
0.020152150799942856
40
0.020152150799942856
10
-2.0569020238911846
20
0.80088442923017911
30
0
10
-2.0545882529876107
20
0.76739638976068014
30
0
10
-2.0522744820840364
20
0.73390835029118129
30
0
10
-2.0314251750473513
20
0.67256420936156036
30
0
10
-2.0133451152088409
20
0.64610881168355738
30
0
10
-1.993608447650645
20
0.61722940565534978
30
0
0
SPLINE
5
169
100
AcDbEntity
8
0
100
AcDbSpline
70
0
71
3
72
10
73
6
74
0
42
0.000000001
43
0.0000000001
44
0.0000000001
40
0
40
0
40
0
40
0
40
0.017501043631416188
40
0.017501043631416188
40
0.035064918365197248
40
0.035064918365197248
40
0.035064918365197248
40
0.035064918365197248
10
-1.9064503637349346
20
1.0945243275303502
30
0
10
-1.9484500293440501
20
1.0540371476425887
30
0
10
-1.9904496949531616
20
1.0135499677548319
30
0
10
-2.0416400499522163
20
0.91596866249644449
30
0
10
-2.0487143615890071
20
0.86262420431152242
30
0
10
-2.0569020238911846
20
0.80088442923017911
30
0
0
SPLINE
5
170
100
AcDbEntity
8
0
100
AcDbSpline
70
0
71
3
72
10
73
6
74
0
42
0.000000001
43
0.0000000001
44
0.0000000001
40
0
40
0
40
0
40
0
40
0.024064951695534752
40
0.024064951695534752
40
0.048620912109348699
40
0.048620912109348699
40
0.048620912109348699
40
0.048620912109348699
10
-1.4592456546818953
20
1.2200737631458898
30
0
10
-1.5394318225889445
20
1.2178678040880304
30
0
10
-1.6196179904959935
20
1.2156618450301711
30
0
10
-1.7709572291426847
20
1.1758698252867374
30
0
10
-1.829208082517221
20
1.1408979820509473
30
0
10
-1.9064503637349346
20
1.0945243275303502
30
0
0
SPLINE
5
171
100
AcDbEntity
8
0
100
AcDbSpline
70
0
71
3
72
10
73
6
74
0
42
0.000000001
43
0.0000000001
44
0.0000000001
40
0
40
0
40
0
40
0
40
0.026548572245022328
40
0.026548572245022328
40
0.05287329944759489
40
0.05287329944759489
40
0.05287329944759489
40
0.05287329944759489
10
-1.0141163793599348
20
1.0789603626866
30
0
10
-1.0881118119253104
20
1.1274998683152728
30
0
10
-1.1482415991124097
20
1.1669437913039036
30
0
10
-1.297810951814006
20
1.2124835705615828
30
0
10
-1.3785283032479609
20
1.2162786668537366
30
0
10
-1.4592456546818953
20
1.2200737631458898
30
0
0
SPLINE
5
172
100
AcDbEntity
8
0
100
AcDbSpline
70
0
71
3
72
10
73
6
74
0
42
0.000000001
43
0.0000000001
44
0.0000000001
40
0
40
0
40
0
40
0
40
0.025539618085791634
40
0.025539618085791634
40
0.051447410062803595
40
0.051447410062803595
40
0.051447410062803595
40
0.051447410062803595
10
-0.79518315468189538
20
0.63694393993803367
30
0
10
-0.81316130041959711
20
0.72015604220908758
30
0
10
-0.83113944615729873
20
0.8033681444801416
30
0
10
-0.90257368703666507
20
0.95283583787413761
30
0
10
-0.95136365063114003
20
1.0080040505629286
30
0
10
-1.0141163793599348
20
1.0789603626866
30
0
0
ENDSEC
0
SECTION
2
OBJECTS
0
DICTIONARY
5
C
100
AcDbDictionary
3
ACAD_GROUP
350
D
3
ACAD_MLINESTYLE
350
17
0
DICTIONARY
5
D
100
AcDbDictionary
0
DICTIONARY
5
1A
330
C
100
AcDbDictionary
0
DICTIONARY
5
17
100
AcDbDictionary
0
ENDSEC
0
EOF
