0
SECTION
2
HEADER
0
ENDSEC
0
SECTION
2
TABLES
0
TABLE
2
LTYPE
0
LTYPE
72
65
70
64
2
CONTINUOUS
3
______
73
0
40
0
0
ENDTAB
0
TABLE
2
LAYER
0
ENDTAB
0
ENDSEC
0
SECTION
2
ENTITIES
0
CIRCLE
8
0
10
18
20
0
40
2
0
CIRCLE
8
0
10
18
20
0
40
2
0
LINE
8
layer0
10
30.4842648
20
4.478115
11
30.3038025
21
4.26065
0
LINE
8
layer0
10
30.3038025
20
4.26065
11
30.1267065
21
4.0646033
0
LINE
8
layer0
10
30.1267065
20
4.0646033
11
29.9570285
21
3.8919023
0
LINE
8
layer0
10
29.9570285
20
3.8919023
11
29.7944065
21
3.7396509
0
LINE
8
layer0
10
29.7944065
20
3.7396509
11
29.6406247
21
3.6072862
0
LINE
8
layer0
10
29.6406247
20
3.6072862
11
29.4961931
21
3.4931153
0
LINE
8
layer0
10
29.4961931
20
3.4931153
11
29.3642854
21
3.3975348
0
LINE
8
layer0
10
29.3642854
20
3.3975348
11
29.2433587
21
3.317383
0
LINE
8
layer0
10
29.2433587
20
3.317383
11
29.1375911
21
3.2534911
0
LINE
8
layer0
10
29.1375911
20
3.2534911
11
28.9703847
21
3.165755
0
LINE
8
layer0
10
28.9703847
20
3.165755
11
28.8696891
21
3.1229069
0
LINE
8
layer0
10
28.8696891
20
3.1229069
11
28.6910585
21
3.0759455
0
LINE
8
layer0
10
28.6910585
20
3.0759455
11
28.5199997
21
3.0193664
0
LINE
8
layer0
10
28.5199997
20
3.0193664
11
28.3724938
21
2.9547376
0
LINE
8
layer0
10
28.3724938
20
2.9547376
11
28.2488724
21
2.8839297
0
LINE
8
layer0
10
28.2488724
20
2.8839297
11
28.149361
21
2.808833
0
LINE
8
layer0
10
28.149361
20
2.808833
11
28.0740733
21
2.7313361
0
LINE
8
layer0
10
28.0740733
20
2.7313361
11
28.0455112
21
2.6922937
0
LINE
8
layer0
10
28.0455112
20
2.6922937
11
28.0229858
21
2.6533509
0
LINE
8
layer0
10
28.0229858
20
2.6533509
11
28.0064873
21
2.6147607
0
LINE
8
layer0
10
28.0064873
20
2.6147607
11
27.9959828
21
2.5767409
0
LINE
8
layer0
10
27.9959828
20
2.5767409
11
27.9914313
21
2.5395483
0
LINE
8
layer0
10
27.9914313
20
2.5395483
11
27.9976927
21
2.4771101
0
LINE
8
layer0
10
27.9976927
20
2.4771101
11
28.1020884
21
2.0094303
0
LINE
8
layer0
10
28.1020884
20
2.0094303
11
28.1846126
21
1.5374001
0
LINE
8
layer0
10
28.1846126
20
1.5374001
11
28.2027219
21
1.4773186
0
LINE
8
layer0
10
28.2027219
20
1.4773186
11
28.22116
21
1.4446989
0
LINE
8
layer0
10
28.22116
20
1.4446989
11
28.2454145
21
1.413593
0
LINE
8
layer0
10
28.2454145
20
1.413593
11
28.2754248
21
1.384254
0
LINE
8
layer0
10
28.2754248
20
1.384254
11
28.3111384
21
1.3568957
0
LINE
8
layer0
10
28.3111384
20
1.3568957
11
28.3524672
21
1.3317555
0
LINE
8
layer0
10
28.3524672
20
1.3317555
11
28.4516807
21
1.2889689
0
LINE
8
layer0
10
28.4516807
20
1.2889689
11
28.5723556
21
1.25767
0
LINE
8
layer0
10
28.5723556
20
1.25767
11
28.7136639
21
1.2395599
0
LINE
8
layer0
10
28.7136639
20
1.2395599
11
28.8746739
21
1.2362988
0
LINE
8
layer0
10
28.8746739
20
1.2362988
11
29.0543635
21
1.2494879
0
LINE
8
layer0
10
29.0543635
20
1.2494879
11
29.237368
21
1.2744601
0
LINE
8
layer0
10
29.237368
20
1.2744601
11
29.3467959
21
1.2734082
0
LINE
8
layer0
10
29.3467959
20
1.2734082
11
29.5348496
21
1.2563377
0
LINE
8
layer0
10
29.5348496
20
1.2563377
11
29.6570165
21
1.2377848
0
LINE
8
layer0
10
29.6570165
20
1.2377848
11
29.799411
21
1.2100109
0
LINE
8
layer0
10
29.799411
20
1.2100109
11
29.9578549
21
1.172185
0
LINE
8
layer0
10
29.9578549
20
1.172185
11
30.1349836
21
1.1219763
0
LINE
8
layer0
10
30.1349836
20
1.1219763
11
30.3277132
21
1.058537
0
LINE
8
layer0
10
30.3277132
20
1.058537
11
30.5362204
21
0.9801078
0
LINE
8
layer0
10
30.5362204
20
0.9801078
11
30.7590723
21
0.8854859
0
LINE
8
layer0
10
30.7590723
20
0.8854859
11
30.9977115
21
0.7721341
0
LINE
8
layer0
10
30.9977115
20
0.7721341
11
31.2476571
21
0.6402825
0
LINE
8
layer0
10
31.2476571
20
0.6402825
11
31.4907443
21
0.4989441
0
ARC
8
layer0
10
17.9999676
20
0
40
13.5
50
357.8819331
51
362.1180669
0
LINE
8
layer0
10
31.4907443
20
-0.4989441
11
31.2476571
21
-0.6402825
0
LINE
8
layer0
10
31.2476571
20
-0.6402825
11
30.9977115
21
-0.7721341
0
LINE
8
layer0
10
30.9977115
20
-0.7721341
11
30.7590723
21
-0.8854859
0
LINE
8
layer0
10
30.7590723
20
-0.8854859
11
30.5362204
21
-0.9801078
0
LINE
8
layer0
10
30.5362204
20
-0.9801078
11
30.3277132
21
-1.058537
0
LINE
8
layer0
10
30.3277132
20
-1.058537
11
30.1349836
21
-1.1219763
0
LINE
8
layer0
10
30.1349836
20
-1.1219763
11
29.9578549
21
-1.172185
0
LINE
8
layer0
10
29.9578549
20
-1.172185
11
29.799411
21
-1.2100109
0
LINE
8
layer0
10
29.799411
20
-1.2100109
11
29.6570165
21
-1.2377848
0
LINE
8
layer0
10
29.6570165
20
-1.2377848
11
29.5348496
21
-1.2563377
0
LINE
8
layer0
10
29.5348496
20
-1.2563377
11
29.3467959
21
-1.2734082
0
LINE
8
layer0
10
29.3467959
20
-1.2734082
11
29.237368
21
-1.2744601
0
LINE
8
layer0
10
29.237368
20
-1.2744601
11
29.0543635
21
-1.2494879
0
LINE
8
layer0
10
29.0543635
20
-1.2494879
11
28.8746739
21
-1.2362988
0
LINE
8
layer0
10
28.8746739
20
-1.2362988
11
28.7136639
21
-1.2395599
0
LINE
8
layer0
10
28.7136639
20
-1.2395599
11
28.5723556
21
-1.25767
0
LINE
8
layer0
10
28.5723556
20
-1.25767
11
28.4516807
21
-1.2889689
0
LINE
8
layer0
10
28.4516807
20
-1.2889689
11
28.3524672
21
-1.3317555
0
LINE
8
layer0
10
28.3524672
20
-1.3317555
11
28.3111384
21
-1.3568957
0
LINE
8
layer0
10
28.3111384
20
-1.3568957
11
28.2754248
21
-1.384254
0
LINE
8
layer0
10
28.2754248
20
-1.384254
11
28.2454145
21
-1.413593
0
LINE
8
layer0
10
28.2454145
20
-1.413593
11
28.22116
21
-1.4446989
0
LINE
8
layer0
10
28.22116
20
-1.4446989
11
28.2027219
21
-1.4773186
0
LINE
8
layer0
10
28.2027219
20
-1.4773186
11
28.1846126
21
-1.5374001
0
LINE
8
layer0
10
28.1846126
20
-1.5374001
11
28.1020884
21
-2.0094303
0
LINE
8
layer0
10
28.1020884
20
-2.0094303
11
27.9976927
21
-2.4771101
0
LINE
8
layer0
10
27.9976927
20
-2.4771101
11
27.9914313
21
-2.5395483
0
LINE
8
layer0
10
27.9914313
20
-2.5395483
11
27.9959828
21
-2.5767409
0
LINE
8
layer0
10
27.9959828
20
-2.5767409
11
28.0064873
21
-2.6147607
0
LINE
8
layer0
10
28.0064873
20
-2.6147607
11
28.0229858
21
-2.6533509
0
LINE
8
layer0
10
28.0229858
20
-2.6533509
11
28.0455112
21
-2.6922937
0
LINE
8
layer0
10
28.0455112
20
-2.6922937
11
28.0740733
21
-2.7313361
0
LINE
8
layer0
10
28.0740733
20
-2.7313361
11
28.149361
21
-2.808833
0
LINE
8
layer0
10
28.149361
20
-2.808833
11
28.2488724
21
-2.8839297
0
LINE
8
layer0
10
28.2488724
20
-2.8839297
11
28.3724938
21
-2.9547376
0
LINE
8
layer0
10
28.3724938
20
-2.9547376
11
28.5199997
21
-3.0193664
0
LINE
8
layer0
10
28.5199997
20
-3.0193664
11
28.6910585
21
-3.0759455
0
LINE
8
layer0
10
28.6910585
20
-3.0759455
11
28.8696891
21
-3.1229069
0
LINE
8
layer0
10
28.8696891
20
-3.1229069
11
28.9703847
21
-3.165755
0
LINE
8
layer0
10
28.9703847
20
-3.165755
11
29.1375911
21
-3.2534911
0
LINE
8
layer0
10
29.1375911
20
-3.2534911
11
29.2433587
21
-3.317383
0
LINE
8
layer0
10
29.2433587
20
-3.317383
11
29.3642854
21
-3.3975348
0
LINE
8
layer0
10
29.3642854
20
-3.3975348
11
29.4961931
21
-3.4931153
0
LINE
8
layer0
10
29.4961931
20
-3.4931153
11
29.6406247
21
-3.6072862
0
LINE
8
layer0
10
29.6406247
20
-3.6072862
11
29.7944065
21
-3.7396509
0
LINE
8
layer0
10
29.7944065
20
-3.7396509
11
29.9570285
21
-3.8919023
0
LINE
8
layer0
10
29.9570285
20
-3.8919023
11
30.1267065
21
-4.0646033
0
LINE
8
layer0
10
30.1267065
20
-4.0646033
11
30.3038025
21
-4.26065
0
LINE
8
layer0
10
30.3038025
20
-4.26065
11
30.4842648
21
-4.478115
0
LINE
8
layer0
10
30.4842648
20
-4.478115
11
30.6547601
21
-4.7017201
0
ARC
8
layer0
10
17.9999701
20
0.0000125
40
13.5
50
335.3819324
51
339.6180663
0
LINE
8
layer0
10
30.2728849
20
-5.6236486
11
29.9942137
21
-5.6612028
0
LINE
8
layer0
10
29.9942137
20
-5.6612028
11
29.7128367
21
-5.6873677
0
LINE
8
layer0
10
29.7128367
20
-5.6873677
11
29.4489849
21
-5.7007679
0
LINE
8
layer0
10
29.4489849
20
-5.7007679
11
29.2068865
21
-5.7029054
0
LINE
8
layer0
10
29.2068865
20
-5.7029054
11
28.9842373
21
-5.6955723
0
LINE
8
layer0
10
28.9842373
20
-5.6955723
11
28.7819012
21
-5.6804281
0
LINE
8
layer0
10
28.7819012
20
-5.6804281
11
28.5990416
21
-5.6590306
0
LINE
8
layer0
10
28.5990416
20
-5.6590306
11
28.4381832
21
-5.6333434
0
LINE
8
layer0
10
28.4381832
20
-5.6333434
11
28.2959992
21
-5.6045111
0
LINE
8
layer0
10
28.2959992
20
-5.6045111
11
28.1760318
21
-5.5749005
0
LINE
8
layer0
10
28.1760318
20
-5.5749005
11
27.9957602
21
-5.5187066
0
LINE
8
layer0
10
27.9957602
20
-5.5187066
11
27.8942595
21
-5.4778022
0
LINE
8
layer0
10
27.8942595
20
-5.4778022
11
27.7347419
21
-5.3846981
0
LINE
8
layer0
10
27.7347419
20
-5.3846981
11
27.5737776
21
-5.3037487
0
LINE
8
layer0
10
27.5737776
20
-5.3037487
11
27.4237757
21
-5.2451457
0
LINE
8
layer0
10
27.4237757
20
-5.2451457
11
27.2862935
21
-5.2078009
0
LINE
8
layer0
10
27.2862935
20
-5.2078009
11
27.1628269
21
-5.1905371
0
LINE
8
layer0
10
27.1628269
20
-5.1905371
11
27.0547918
21
-5.1920993
0
LINE
8
layer0
10
27.0547918
20
-5.1920993
11
27.0069882
21
-5.19951
0
LINE
8
layer0
10
27.0069882
20
-5.19951
11
26.9635236
21
-5.2111188
0
LINE
8
layer0
10
26.9635236
20
-5.2111188
11
26.9245701
21
-5.22674
0
LINE
8
layer0
10
26.9245701
20
-5.22674
11
26.8902582
21
-5.2461963
0
LINE
8
layer0
10
26.8902582
20
-5.2461963
11
26.8607406
21
-5.269277
0
LINE
8
layer0
10
26.8607406
20
-5.269277
11
26.8210176
21
-5.317855
0
LINE
8
layer0
10
26.8210176
20
-5.317855
11
26.564137
21
-5.7223734
0
LINE
8
layer0
10
26.564137
20
-5.7223734
11
26.2887146
21
-6.1145026
0
LINE
8
layer0
10
26.2887146
20
-6.1145026
11
26.2590358
21
-6.1697919
0
LINE
8
layer0
10
26.2590358
20
-6.1697919
11
26.2490079
21
-6.2058951
0
LINE
8
layer0
10
26.2490079
20
-6.2058951
11
26.2441632
21
-6.2450408
0
LINE
8
layer0
10
26.2441632
20
-6.2450408
11
26.244638
21
-6.2870072
0
LINE
8
layer0
10
26.244638
20
-6.2870072
11
26.250546
21
-6.3316058
0
LINE
8
layer0
10
26.250546
20
-6.3316058
11
26.261993
21
-6.3786064
0
LINE
8
layer0
10
26.261993
20
-6.3786064
11
26.301893
21
-6.4790157
0
LINE
8
layer0
10
26.301893
20
-6.4790157
11
26.3650913
21
-6.5864773
0
LINE
8
layer0
10
26.3650913
20
-6.5864773
11
26.4522056
21
-6.6992032
0
LINE
8
layer0
10
26.4522056
20
-6.6992032
11
26.5637509
21
-6.8153604
0
LINE
8
layer0
10
26.5637509
20
-6.8153604
11
26.7001368
21
-6.933094
0
LINE
8
layer0
10
26.7001368
20
-6.933094
11
26.8471986
21
-7.0448397
0
LINE
8
layer0
10
26.8471986
20
-7.0448397
11
26.9238319
21
-7.1229607
0
LINE
8
layer0
10
26.9238319
20
-7.1229607
11
27.0447353
21
-7.2680055
0
LINE
8
layer0
10
27.0447353
20
-7.2680055
11
27.1180014
21
-7.3675094
0
LINE
8
layer0
10
27.1180014
20
-7.3675094
11
27.1990504
21
-7.4878366
0
LINE
8
layer0
10
27.1990504
20
-7.4878366
11
27.2843402
21
-7.6266203
0
LINE
8
layer0
10
27.2843402
20
-7.6266203
11
27.3740862
21
-7.7873721
0
LINE
8
layer0
10
27.3740862
20
-7.7873721
11
27.4655083
21
-7.9685109
0
LINE
8
layer0
10
27.4655083
20
-7.9685109
11
27.5574873
21
-8.1714056
0
LINE
8
layer0
10
27.5574873
20
-8.1714056
11
27.6481596
21
-8.3958935
0
LINE
8
layer0
10
27.6481596
20
-8.3958935
11
27.7367512
21
-8.6447887
0
LINE
8
layer0
10
27.7367512
20
-8.6447887
11
27.8202563
21
-8.91476
0
LINE
8
layer0
10
27.8202563
20
-8.91476
11
27.8922035
21
-9.18659
0
ARC
8
layer0
10
17.9999771
20
0.0000229
40
13.5
50
312.8819331
51
317.1180669
0
LINE
8
layer0
10
27.18659
20
-9.8922035
11
26.91476
21
-9.8202563
0
LINE
8
layer0
10
26.91476
20
-9.8202563
11
26.6447887
21
-9.7367512
0
LINE
8
layer0
10
26.6447887
20
-9.7367512
11
26.3958935
21
-9.6481596
0
LINE
8
layer0
10
26.3958935
20
-9.6481596
11
26.1714056
21
-9.5574873
0
LINE
8
layer0
10
26.1714056
20
-9.5574873
11
25.9685109
21
-9.4655083
0
LINE
8
layer0
10
25.9685109
20
-9.4655083
11
25.7873721
21
-9.3740862
0
LINE
8
layer0
10
25.7873721
20
-9.3740862
11
25.6266203
21
-9.2843402
0
LINE
8
layer0
10
25.6266203
20
-9.2843402
11
25.4878366
21
-9.1990504
0
LINE
8
layer0
10
25.4878366
20
-9.1990504
11
25.3675094
21
-9.1180014
0
LINE
8
layer0
10
25.3675094
20
-9.1180014
11
25.2680055
21
-9.0447353
0
LINE
8
layer0
10
25.2680055
20
-9.0447353
11
25.1229607
21
-8.9238319
0
LINE
8
layer0
10
25.1229607
20
-8.9238319
11
25.0448397
21
-8.8471986
0
LINE
8
layer0
10
25.0448397
20
-8.8471986
11
24.933094
21
-8.7001368
0
LINE
8
layer0
10
24.933094
20
-8.7001368
11
24.8153604
21
-8.5637509
0
LINE
8
layer0
10
24.8153604
20
-8.5637509
11
24.6992032
21
-8.4522056
0
LINE
8
layer0
10
24.6992032
20
-8.4522056
11
24.5864773
21
-8.3650913
0
LINE
8
layer0
10
24.5864773
20
-8.3650913
11
24.4790157
21
-8.301893
0
LINE
8
layer0
10
24.4790157
20
-8.301893
11
24.3786064
21
-8.261993
0
LINE
8
layer0
10
24.3786064
20
-8.261993
11
24.3316058
21
-8.250546
0
LINE
8
layer0
10
24.3316058
20
-8.250546
11
24.2870072
21
-8.244638
0
LINE
8
layer0
10
24.2870072
20
-8.244638
11
24.2450408
21
-8.2441632
0
LINE
8
layer0
10
24.2450408
20
-8.2441632
11
24.2058951
21
-8.2490079
0
LINE
8
layer0
10
24.2058951
20
-8.2490079
11
24.1697919
21
-8.2590358
0
LINE
8
layer0
10
24.1697919
20
-8.2590358
11
24.1145026
21
-8.2887146
0
LINE
8
layer0
10
24.1145026
20
-8.2887146
11
23.7223734
21
-8.564137
0
LINE
8
layer0
10
23.7223734
20
-8.564137
11
23.317855
21
-8.8210176
0
LINE
8
layer0
10
23.317855
20
-8.8210176
11
23.269277
21
-8.8607406
0
LINE
8
layer0
10
23.269277
20
-8.8607406
11
23.2461963
21
-8.8902582
0
LINE
8
layer0
10
23.2461963
20
-8.8902582
11
23.22674
21
-8.9245701
0
LINE
8
layer0
10
23.22674
20
-8.9245701
11
23.2111188
21
-8.9635236
0
LINE
8
layer0
10
23.2111188
20
-8.9635236
11
23.19951
21
-9.0069882
0
LINE
8
layer0
10
23.19951
20
-9.0069882
11
23.1920993
21
-9.0547918
0
LINE
8
layer0
10
23.1920993
20
-9.0547918
11
23.1905371
21
-9.1628269
0
LINE
8
layer0
10
23.1905371
20
-9.1628269
11
23.2078009
21
-9.2862935
0
LINE
8
layer0
10
23.2078009
20
-9.2862935
11
23.2451457
21
-9.4237757
0
LINE
8
layer0
10
23.2451457
20
-9.4237757
11
23.3037487
21
-9.5737776
0
LINE
8
layer0
10
23.3037487
20
-9.5737776
11
23.3846981
21
-9.7347419
0
LINE
8
layer0
10
23.3846981
20
-9.7347419
11
23.4778022
21
-9.8942595
0
LINE
8
layer0
10
23.4778022
20
-9.8942595
11
23.5187066
21
-9.9957602
0
LINE
8
layer0
10
23.5187066
20
-9.9957602
11
23.5749005
21
-10.1760318
0
LINE
8
layer0
10
23.5749005
20
-10.1760318
11
23.6045111
21
-10.2959992
0
LINE
8
layer0
10
23.6045111
20
-10.2959992
11
23.6333434
21
-10.4381832
0
LINE
8
layer0
10
23.6333434
20
-10.4381832
11
23.6590306
21
-10.5990416
0
LINE
8
layer0
10
23.6590306
20
-10.5990416
11
23.6804281
21
-10.7819012
0
LINE
8
layer0
10
23.6804281
20
-10.7819012
11
23.6955723
21
-10.9842373
0
LINE
8
layer0
10
23.6955723
20
-10.9842373
11
23.7029054
21
-11.2068865
0
LINE
8
layer0
10
23.7029054
20
-11.2068865
11
23.7007679
21
-11.4489849
0
LINE
8
layer0
10
23.7007679
20
-11.4489849
11
23.6873677
21
-11.7128367
0
LINE
8
layer0
10
23.6873677
20
-11.7128367
11
23.6612028
21
-11.9942137
0
LINE
8
layer0
10
23.6612028
20
-11.9942137
11
23.6236486
21
-12.2728849
0
ARC
8
layer0
10
17.9999875
20
0.0000298
40
13.5
50
290.3819337
51
294.6180676
0
LINE
8
layer0
10
22.7017201
20
-12.6547601
11
22.478115
21
-12.4842648
0
LINE
8
layer0
10
22.478115
20
-12.4842648
11
22.26065
21
-12.3038025
0
LINE
8
layer0
10
22.26065
20
-12.3038025
11
22.0646033
21
-12.1267065
0
LINE
8
layer0
10
22.0646033
20
-12.1267065
11
21.8919023
21
-11.9570285
0
LINE
8
layer0
10
21.8919023
20
-11.9570285
11
21.7396509
21
-11.7944065
0
LINE
8
layer0
10
21.7396509
20
-11.7944065
11
21.6072862
21
-11.6406247
0
LINE
8
layer0
10
21.6072862
20
-11.6406247
11
21.4931153
21
-11.4961931
0
LINE
8
layer0
10
21.4931153
20
-11.4961931
11
21.3975348
21
-11.3642854
0
LINE
8
layer0
10
21.3975348
20
-11.3642854
11
21.317383
21
-11.2433587
0
LINE
8
layer0
10
21.317383
20
-11.2433587
11
21.2534911
21
-11.1375911
0
LINE
8
layer0
10
21.2534911
20
-11.1375911
11
21.165755
21
-10.9703847
0
LINE
8
layer0
10
21.165755
20
-10.9703847
11
21.1229069
21
-10.8696891
0
LINE
8
layer0
10
21.1229069
20
-10.8696891
11
21.0759455
21
-10.6910585
0
LINE
8
layer0
10
21.0759455
20
-10.6910585
11
21.0193664
21
-10.5199997
0
LINE
8
layer0
10
21.0193664
20
-10.5199997
11
20.9547376
21
-10.3724938
0
LINE
8
layer0
10
20.9547376
20
-10.3724938
11
20.8839297
21
-10.2488724
0
LINE
8
layer0
10
20.8839297
20
-10.2488724
11
20.808833
21
-10.149361
0
LINE
8
layer0
10
20.808833
20
-10.149361
11
20.7313361
21
-10.0740733
0
LINE
8
layer0
10
20.7313361
20
-10.0740733
11
20.6922937
21
-10.0455112
0
LINE
8
layer0
10
20.6922937
20
-10.0455112
11
20.6533509
21
-10.0229858
0
LINE
8
layer0
10
20.6533509
20
-10.0229858
11
20.6147607
21
-10.0064873
0
LINE
8
layer0
10
20.6147607
20
-10.0064873
11
20.5767409
21
-9.9959828
0
LINE
8
layer0
10
20.5767409
20
-9.9959828
11
20.5395483
21
-9.9914313
0
LINE
8
layer0
10
20.5395483
20
-9.9914313
11
20.4771101
21
-9.9976927
0
LINE
8
layer0
10
20.4771101
20
-9.9976927
11
20.0094303
21
-10.1020884
0
LINE
8
layer0
10
20.0094303
20
-10.1020884
11
19.5374001
21
-10.1846126
0
LINE
8
layer0
10
19.5374001
20
-10.1846126
11
19.4773186
21
-10.2027219
0
LINE
8
layer0
10
19.4773186
20
-10.2027219
11
19.4446989
21
-10.22116
0
LINE
8
layer0
10
19.4446989
20
-10.22116
11
19.413593
21
-10.2454145
0
LINE
8
layer0
10
19.413593
20
-10.2454145
11
19.384254
21
-10.2754248
0
LINE
8
layer0
10
19.384254
20
-10.2754248
11
19.3568957
21
-10.3111384
0
LINE
8
layer0
10
19.3568957
20
-10.3111384
11
19.3317555
21
-10.3524672
0
LINE
8
layer0
10
19.3317555
20
-10.3524672
11
19.2889689
21
-10.4516807
0
LINE
8
layer0
10
19.2889689
20
-10.4516807
11
19.25767
21
-10.5723556
0
LINE
8
layer0
10
19.25767
20
-10.5723556
11
19.2395599
21
-10.7136639
0
LINE
8
layer0
10
19.2395599
20
-10.7136639
11
19.2362988
21
-10.8746739
0
LINE
8
layer0
10
19.2362988
20
-10.8746739
11
19.2494879
21
-11.0543635
0
LINE
8
layer0
10
19.2494879
20
-11.0543635
11
19.2744601
21
-11.237368
0
LINE
8
layer0
10
19.2744601
20
-11.237368
11
19.2734082
21
-11.3467959
0
LINE
8
layer0
10
19.2734082
20
-11.3467959
11
19.2563377
21
-11.5348496
0
LINE
8
layer0
10
19.2563377
20
-11.5348496
11
19.2377848
21
-11.6570165
0
LINE
8
layer0
10
19.2377848
20
-11.6570165
11
19.2100109
21
-11.799411
0
LINE
8
layer0
10
19.2100109
20
-11.799411
11
19.172185
21
-11.9578549
0
LINE
8
layer0
10
19.172185
20
-11.9578549
11
19.1219763
21
-12.1349836
0
LINE
8
layer0
10
19.1219763
20
-12.1349836
11
19.058537
21
-12.3277132
0
LINE
8
layer0
10
19.058537
20
-12.3277132
11
18.9801078
21
-12.5362204
0
LINE
8
layer0
10
18.9801078
20
-12.5362204
11
18.8854859
21
-12.7590723
0
LINE
8
layer0
10
18.8854859
20
-12.7590723
11
18.7721341
21
-12.9977115
0
LINE
8
layer0
10
18.7721341
20
-12.9977115
11
18.6402825
21
-13.2476571
0
LINE
8
layer0
10
18.6402825
20
-13.2476571
11
18.4989441
21
-13.4907443
0
ARC
8
layer0
10
18
20
0.0000324
40
13.5
50
267.8819331
51
272.1180669
0
LINE
8
layer0
10
17.5010559
20
-13.4907443
11
17.3597175
21
-13.2476571
0
LINE
8
layer0
10
17.3597175
20
-13.2476571
11
17.2278659
21
-12.9977115
0
LINE
8
layer0
10
17.2278659
20
-12.9977115
11
17.1145141
21
-12.7590723
0
LINE
8
layer0
10
17.1145141
20
-12.7590723
11
17.0198922
21
-12.5362204
0
LINE
8
layer0
10
17.0198922
20
-12.5362204
11
16.941463
21
-12.3277132
0
LINE
8
layer0
10
16.941463
20
-12.3277132
11
16.8780237
21
-12.1349836
0
LINE
8
layer0
10
16.8780237
20
-12.1349836
11
16.827815
21
-11.9578549
0
LINE
8
layer0
10
16.827815
20
-11.9578549
11
16.7899891
21
-11.799411
0
LINE
8
layer0
10
16.7899891
20
-11.799411
11
16.7622152
21
-11.6570165
0
LINE
8
layer0
10
16.7622152
20
-11.6570165
11
16.7436623
21
-11.5348496
0
LINE
8
layer0
10
16.7436623
20
-11.5348496
11
16.7265918
21
-11.3467959
0
LINE
8
layer0
10
16.7265918
20
-11.3467959
11
16.7255399
21
-11.237368
0
LINE
8
layer0
10
16.7255399
20
-11.237368
11
16.7505121
21
-11.0543635
0
LINE
8
layer0
10
16.7505121
20
-11.0543635
11
16.7637012
21
-10.8746739
0
LINE
8
layer0
10
16.7637012
20
-10.8746739
11
16.7604401
21
-10.7136639
0
LINE
8
layer0
10
16.7604401
20
-10.7136639
11
16.74233
21
-10.5723556
0
LINE
8
layer0
10
16.74233
20
-10.5723556
11
16.7110311
21
-10.4516807
0
LINE
8
layer0
10
16.7110311
20
-10.4516807
11
16.6682445
21
-10.3524672
0
LINE
8
layer0
10
16.6682445
20
-10.3524672
11
16.6431043
21
-10.3111384
0
LINE
8
layer0
10
16.6431043
20
-10.3111384
11
16.615746
21
-10.2754248
0
LINE
8
layer0
10
16.615746
20
-10.2754248
11
16.586407
21
-10.2454145
0
LINE
8
layer0
10
16.586407
20
-10.2454145
11
16.5553011
21
-10.22116
0
LINE
8
layer0
10
16.5553011
20
-10.22116
11
16.5226814
21
-10.2027219
0
LINE
8
layer0
10
16.5226814
20
-10.2027219
11
16.4625999
21
-10.1846126
0
LINE
8
layer0
10
16.4625999
20
-10.1846126
11
15.9905697
21
-10.1020884
0
LINE
8
layer0
10
15.9905697
20
-10.1020884
11
15.5228899
21
-9.9976927
0
LINE
8
layer0
10
15.5228899
20
-9.9976927
11
15.4604517
21
-9.9914313
0
LINE
8
layer0
10
15.4604517
20
-9.9914313
11
15.4232591
21
-9.9959828
0
LINE
8
layer0
10
15.4232591
20
-9.9959828
11
15.3852393
21
-10.0064873
0
LINE
8
layer0
10
15.3852393
20
-10.0064873
11
15.3466491
21
-10.0229858
0
LINE
8
layer0
10
15.3466491
20
-10.0229858
11
15.3077063
21
-10.0455112
0
LINE
8
layer0
10
15.3077063
20
-10.0455112
11
15.2686639
21
-10.0740733
0
LINE
8
layer0
10
15.2686639
20
-10.0740733
11
15.191167
21
-10.149361
0
LINE
8
layer0
10
15.191167
20
-10.149361
11
15.1160703
21
-10.2488724
0
LINE
8
layer0
10
15.1160703
20
-10.2488724
11
15.0452624
21
-10.3724938
0
LINE
8
layer0
10
15.0452624
20
-10.3724938
11
14.9806336
21
-10.5199997
0
LINE
8
layer0
10
14.9806336
20
-10.5199997
11
14.9240545
21
-10.6910585
0
LINE
8
layer0
10
14.9240545
20
-10.6910585
11
14.8770931
21
-10.8696891
0
LINE
8
layer0
10
14.8770931
20
-10.8696891
11
14.834245
21
-10.9703847
0
LINE
8
layer0
10
14.834245
20
-10.9703847
11
14.7465089
21
-11.1375911
0
LINE
8
layer0
10
14.7465089
20
-11.1375911
11
14.682617
21
-11.2433587
0
LINE
8
layer0
10
14.682617
20
-11.2433587
11
14.6024652
21
-11.3642854
0
LINE
8
layer0
10
14.6024652
20
-11.3642854
11
14.5068847
21
-11.4961931
0
LINE
8
layer0
10
14.5068847
20
-11.4961931
11
14.3927138
21
-11.6406247
0
LINE
8
layer0
10
14.3927138
20
-11.6406247
11
14.2603491
21
-11.7944065
0
LINE
8
layer0
10
14.2603491
20
-11.7944065
11
14.1080977
21
-11.9570285
0
LINE
8
layer0
10
14.1080977
20
-11.9570285
11
13.9353967
21
-12.1267065
0
LINE
8
layer0
10
13.9353967
20
-12.1267065
11
13.73935
21
-12.3038025
0
LINE
8
layer0
10
13.73935
20
-12.3038025
11
13.521885
21
-12.4842648
0
LINE
8
layer0
10
13.521885
20
-12.4842648
11
13.2982799
21
-12.6547601
0
ARC
8
layer0
10
18.0000125
20
0.0000299
40
13.5
50
245.3819324
51
249.6180663
0
LINE
8
layer0
10
12.3763514
20
-12.2728849
11
12.3387972
21
-11.9942137
0
LINE
8
layer0
10
12.3387972
20
-11.9942137
11
12.3126323
21
-11.7128367
0
LINE
8
layer0
10
12.3126323
20
-11.7128367
11
12.2992321
21
-11.4489849
0
LINE
8
layer0
10
12.2992321
20
-11.4489849
11
12.2970946
21
-11.2068865
0
LINE
8
layer0
10
12.2970946
20
-11.2068865
11
12.3044277
21
-10.9842373
0
LINE
8
layer0
10
12.3044277
20
-10.9842373
11
12.3195719
21
-10.7819012
0
LINE
8
layer0
10
12.3195719
20
-10.7819012
11
12.3409694
21
-10.5990416
0
LINE
8
layer0
10
12.3409694
20
-10.5990416
11
12.3666566
21
-10.4381832
0
LINE
8
layer0
10
12.3666566
20
-10.4381832
11
12.3954889
21
-10.2959992
0
LINE
8
layer0
10
12.3954889
20
-10.2959992
11
12.4250995
21
-10.1760318
0
LINE
8
layer0
10
12.4250995
20
-10.1760318
11
12.4812934
21
-9.9957602
0
LINE
8
layer0
10
12.4812934
20
-9.9957602
11
12.5221978
21
-9.8942595
0
LINE
8
layer0
10
12.5221978
20
-9.8942595
11
12.6153019
21
-9.7347419
0
LINE
8
layer0
10
12.6153019
20
-9.7347419
11
12.6962513
21
-9.5737776
0
LINE
8
layer0
10
12.6962513
20
-9.5737776
11
12.7548543
21
-9.4237757
0
LINE
8
layer0
10
12.7548543
20
-9.4237757
11
12.7921991
21
-9.2862935
0
LINE
8
layer0
10
12.7921991
20
-9.2862935
11
12.8094629
21
-9.1628269
0
LINE
8
layer0
10
12.8094629
20
-9.1628269
11
12.8079007
21
-9.0547918
0
LINE
8
layer0
10
12.8079007
20
-9.0547918
11
12.80049
21
-9.0069882
0
LINE
8
layer0
10
12.80049
20
-9.0069882
11
12.7888812
21
-8.9635236
0
LINE
8
layer0
10
12.7888812
20
-8.9635236
11
12.77326
21
-8.9245701
0
LINE
8
layer0
10
12.77326
20
-8.9245701
11
12.7538037
21
-8.8902582
0
LINE
8
layer0
10
12.7538037
20
-8.8902582
11
12.730723
21
-8.8607406
0
LINE
8
layer0
10
12.730723
20
-8.8607406
11
12.682145
21
-8.8210176
0
LINE
8
layer0
10
12.682145
20
-8.8210176
11
12.2776266
21
-8.564137
0
LINE
8
layer0
10
12.2776266
20
-8.564137
11
11.8854974
21
-8.2887146
0
LINE
8
layer0
10
11.8854974
20
-8.2887146
11
11.8302081
21
-8.2590358
0
LINE
8
layer0
10
11.8302081
20
-8.2590358
11
11.7941049
21
-8.2490079
0
LINE
8
layer0
10
11.7941049
20
-8.2490079
11
11.7549592
21
-8.2441632
0
LINE
8
layer0
10
11.7549592
20
-8.2441632
11
11.7129928
21
-8.244638
0
LINE
8
layer0
10
11.7129928
20
-8.244638
11
11.6683942
21
-8.250546
0
LINE
8
layer0
10
11.6683942
20
-8.250546
11
11.6213936
21
-8.261993
0
LINE
8
layer0
10
11.6213936
20
-8.261993
11
11.5209843
21
-8.301893
0
LINE
8
layer0
10
11.5209843
20
-8.301893
11
11.4135227
21
-8.3650913
0
LINE
8
layer0
10
11.4135227
20
-8.3650913
11
11.3007968
21
-8.4522056
0
LINE
8
layer0
10
11.3007968
20
-8.4522056
11
11.1846396
21
-8.5637509
0
LINE
8
layer0
10
11.1846396
20
-8.5637509
11
11.066906
21
-8.7001368
0
LINE
8
layer0
10
11.066906
20
-8.7001368
11
10.9551603
21
-8.8471986
0
LINE
8
layer0
10
10.9551603
20
-8.8471986
11
10.8770393
21
-8.9238319
0
LINE
8
layer0
10
10.8770393
20
-8.9238319
11
10.7319945
21
-9.0447353
0
LINE
8
layer0
10
10.7319945
20
-9.0447353
11
10.6324906
21
-9.1180014
0
LINE
8
layer0
10
10.6324906
20
-9.1180014
11
10.5121634
21
-9.1990504
0
LINE
8
layer0
10
10.5121634
20
-9.1990504
11
10.3733797
21
-9.2843402
0
LINE
8
layer0
10
10.3733797
20
-9.2843402
11
10.2126279
21
-9.3740862
0
LINE
8
layer0
10
10.2126279
20
-9.3740862
11
10.0314891
21
-9.4655083
0
LINE
8
layer0
10
10.0314891
20
-9.4655083
11
9.8285944
21
-9.5574873
0
LINE
8
layer0
10
9.8285944
20
-9.5574873
11
9.6041065
21
-9.6481596
0
LINE
8
layer0
10
9.6041065
20
-9.6481596
11
9.3552113
21
-9.7367512
0
LINE
8
layer0
10
9.3552113
20
-9.7367512
11
9.08524
21
-9.8202563
0
LINE
8
layer0
10
9.08524
20
-9.8202563
11
8.81341
21
-9.8922035
0
ARC
8
layer0
10
18.0000229
20
0.0000229
40
13.5
50
222.8819331
51
227.1180669
0
LINE
8
layer0
10
8.1077965
20
-9.18659
11
8.1797437
21
-8.91476
0
LINE
8
layer0
10
8.1797437
20
-8.91476
11
8.2632488
21
-8.6447887
0
LINE
8
layer0
10
8.2632488
20
-8.6447887
11
8.3518404
21
-8.3958935
0
LINE
8
layer0
10
8.3518404
20
-8.3958935
11
8.4425127
21
-8.1714056
0
LINE
8
layer0
10
8.4425127
20
-8.1714056
11
8.5344917
21
-7.9685109
0
LINE
8
layer0
10
8.5344917
20
-7.9685109
11
8.6259138
21
-7.7873721
0
LINE
8
layer0
10
8.6259138
20
-7.7873721
11
8.7156598
21
-7.6266203
0
LINE
8
layer0
10
8.7156598
20
-7.6266203
11
8.8009496
21
-7.4878366
0
LINE
8
layer0
10
8.8009496
20
-7.4878366
11
8.8819986
21
-7.3675094
0
LINE
8
layer0
10
8.8819986
20
-7.3675094
11
8.9552647
21
-7.2680055
0
LINE
8
layer0
10
8.9552647
20
-7.2680055
11
9.0761681
21
-7.1229607
0
LINE
8
layer0
10
9.0761681
20
-7.1229607
11
9.1528014
21
-7.0448397
0
LINE
8
layer0
10
9.1528014
20
-7.0448397
11
9.2998632
21
-6.933094
0
LINE
8
layer0
10
9.2998632
20
-6.933094
11
9.4362491
21
-6.8153604
0
LINE
8
layer0
10
9.4362491
20
-6.8153604
11
9.5477944
21
-6.6992032
0
LINE
8
layer0
10
9.5477944
20
-6.6992032
11
9.6349087
21
-6.5864773
0
LINE
8
layer0
10
9.6349087
20
-6.5864773
11
9.698107
21
-6.4790157
0
LINE
8
layer0
10
9.698107
20
-6.4790157
11
9.738007
21
-6.3786064
0
LINE
8
layer0
10
9.738007
20
-6.3786064
11
9.749454
21
-6.3316058
0
LINE
8
layer0
10
9.749454
20
-6.3316058
11
9.755362
21
-6.2870072
0
LINE
8
layer0
10
9.755362
20
-6.2870072
11
9.7558368
21
-6.2450408
0
LINE
8
layer0
10
9.7558368
20
-6.2450408
11
9.7509921
21
-6.2058951
0
LINE
8
layer0
10
9.7509921
20
-6.2058951
11
9.7409642
21
-6.1697919
0
LINE
8
layer0
10
9.7409642
20
-6.1697919
11
9.7112854
21
-6.1145026
0
LINE
8
layer0
10
9.7112854
20
-6.1145026
11
9.435863
21
-5.7223734
0
LINE
8
layer0
10
9.435863
20
-5.7223734
11
9.1789824
21
-5.317855
0
LINE
8
layer0
10
9.1789824
20
-5.317855
11
9.1392594
21
-5.269277
0
LINE
8
layer0
10
9.1392594
20
-5.269277
11
9.1097418
21
-5.2461963
0
LINE
8
layer0
10
9.1097418
20
-5.2461963
11
9.0754299
21
-5.22674
0
LINE
8
layer0
10
9.0754299
20
-5.22674
11
9.0364764
21
-5.2111188
0
LINE
8
layer0
10
9.0364764
20
-5.2111188
11
8.9930118
21
-5.19951
0
LINE
8
layer0
10
8.9930118
20
-5.19951
11
8.9452082
21
-5.1920993
0
LINE
8
layer0
10
8.9452082
20
-5.1920993
11
8.8371731
21
-5.1905371
0
LINE
8
layer0
10
8.8371731
20
-5.1905371
11
8.7137065
21
-5.2078009
0
LINE
8
layer0
10
8.7137065
20
-5.2078009
11
8.5762243
21
-5.2451457
0
LINE
8
layer0
10
8.5762243
20
-5.2451457
11
8.4262224
21
-5.3037487
0
LINE
8
layer0
10
8.4262224
20
-5.3037487
11
8.2652581
21
-5.3846981
0
LINE
8
layer0
10
8.2652581
20
-5.3846981
11
8.1057405
21
-5.4778022
0
LINE
8
layer0
10
8.1057405
20
-5.4778022
11
8.0042398
21
-5.5187066
0
LINE
8
layer0
10
8.0042398
20
-5.5187066
11
7.8239682
21
-5.5749005
0
LINE
8
layer0
10
7.8239682
20
-5.5749005
11
7.7040008
21
-5.6045111
0
LINE
8
layer0
10
7.7040008
20
-5.6045111
11
7.5618168
21
-5.6333434
0
LINE
8
layer0
10
7.5618168
20
-5.6333434
11
7.4009584
21
-5.6590306
0
LINE
8
layer0
10
7.4009584
20
-5.6590306
11
7.2180988
21
-5.6804281
0
LINE
8
layer0
10
7.2180988
20
-5.6804281
11
7.0157627
21
-5.6955723
0
LINE
8
layer0
10
7.0157627
20
-5.6955723
11
6.7931135
21
-5.7029054
0
LINE
8
layer0
10
6.7931135
20
-5.7029054
11
6.5510151
21
-5.7007679
0
LINE
8
layer0
10
6.5510151
20
-5.7007679
11
6.2871633
21
-5.6873677
0
LINE
8
layer0
10
6.2871633
20
-5.6873677
11
6.0057863
21
-5.6612028
0
LINE
8
layer0
10
6.0057863
20
-5.6612028
11
5.7271151
21
-5.6236486
0
ARC
8
layer0
10
18.0000298
20
0.0000125
40
13.5
50
200.3819337
51
204.6180676
0
LINE
8
layer0
10
5.3452399
20
-4.7017201
11
5.5157352
21
-4.478115
0
LINE
8
layer0
10
5.5157352
20
-4.478115
11
5.6961975
21
-4.26065
0
LINE
8
layer0
10
5.6961975
20
-4.26065
11
5.8732935
21
-4.0646033
0
LINE
8
layer0
10
5.8732935
20
-4.0646033
11
6.0429715
21
-3.8919023
0
LINE
8
layer0
10
6.0429715
20
-3.8919023
11
6.2055935
21
-3.7396509
0
LINE
8
layer0
10
6.2055935
20
-3.7396509
11
6.3593753
21
-3.6072862
0
LINE
8
layer0
10
6.3593753
20
-3.6072862
11
6.5038069
21
-3.4931153
0
LINE
8
layer0
10
6.5038069
20
-3.4931153
11
6.6357146
21
-3.3975348
0
LINE
8
layer0
10
6.6357146
20
-3.3975348
11
6.7566413
21
-3.317383
0
LINE
8
layer0
10
6.7566413
20
-3.317383
11
6.8624089
21
-3.2534911
0
LINE
8
layer0
10
6.8624089
20
-3.2534911
11
7.0296153
21
-3.165755
0
LINE
8
layer0
10
7.0296153
20
-3.165755
11
7.1303109
21
-3.1229069
0
LINE
8
layer0
10
7.1303109
20
-3.1229069
11
7.3089415
21
-3.0759455
0
LINE
8
layer0
10
7.3089415
20
-3.0759455
11
7.4800003
21
-3.0193664
0
LINE
8
layer0
10
7.4800003
20
-3.0193664
11
7.6275062
21
-2.9547376
0
LINE
8
layer0
10
7.6275062
20
-2.9547376
11
7.7511276
21
-2.8839297
0
LINE
8
layer0
10
7.7511276
20
-2.8839297
11
7.850639
21
-2.808833
0
LINE
8
layer0
10
7.850639
20
-2.808833
11
7.9259267
21
-2.7313361
0
LINE
8
layer0
10
7.9259267
20
-2.7313361
11
7.9544888
21
-2.6922937
0
LINE
8
layer0
10
7.9544888
20
-2.6922937
11
7.9770142
21
-2.6533509
0
LINE
8
layer0
10
7.9770142
20
-2.6533509
11
7.9935127
21
-2.6147607
0
LINE
8
layer0
10
7.9935127
20
-2.6147607
11
8.0040172
21
-2.5767409
0
LINE
8
layer0
10
8.0040172
20
-2.5767409
11
8.0085687
21
-2.5395483
0
LINE
8
layer0
10
8.0085687
20
-2.5395483
11
8.0023073
21
-2.4771101
0
LINE
8
layer0
10
8.0023073
20
-2.4771101
11
7.8979116
21
-2.0094303
0
LINE
8
layer0
10
7.8979116
20
-2.0094303
11
7.8153874
21
-1.5374001
0
LINE
8
layer0
10
7.8153874
20
-1.5374001
11
7.7972781
21
-1.4773186
0
LINE
8
layer0
10
7.7972781
20
-1.4773186
11
7.77884
21
-1.4446989
0
LINE
8
layer0
10
7.77884
20
-1.4446989
11
7.7545855
21
-1.413593
0
LINE
8
layer0
10
7.7545855
20
-1.413593
11
7.7245752
21
-1.384254
0
LINE
8
layer0
10
7.7245752
20
-1.384254
11
7.6888616
21
-1.3568957
0
LINE
8
layer0
10
7.6888616
20
-1.3568957
11
7.6475328
21
-1.3317555
0
LINE
8
layer0
10
7.6475328
20
-1.3317555
11
7.5483193
21
-1.2889689
0
LINE
8
layer0
10
7.5483193
20
-1.2889689
11
7.4276444
21
-1.25767
0
LINE
8
layer0
10
7.4276444
20
-1.25767
11
7.2863361
21
-1.2395599
0
LINE
8
layer0
10
7.2863361
20
-1.2395599
11
7.1253261
21
-1.2362988
0
LINE
8
layer0
10
7.1253261
20
-1.2362988
11
6.9456365
21
-1.2494879
0
LINE
8
layer0
10
6.9456365
20
-1.2494879
11
6.762632
21
-1.2744601
0
LINE
8
layer0
10
6.762632
20
-1.2744601
11
6.6532041
21
-1.2734082
0
LINE
8
layer0
10
6.6532041
20
-1.2734082
11
6.4651504
21
-1.2563377
0
LINE
8
layer0
10
6.4651504
20
-1.2563377
11
6.3429835
21
-1.2377848
0
LINE
8
layer0
10
6.3429835
20
-1.2377848
11
6.200589
21
-1.2100109
0
LINE
8
layer0
10
6.200589
20
-1.2100109
11
6.0421451
21
-1.172185
0
LINE
8
layer0
10
6.0421451
20
-1.172185
11
5.8650164
21
-1.1219763
0
LINE
8
layer0
10
5.8650164
20
-1.1219763
11
5.6722868
21
-1.058537
0
LINE
8
layer0
10
5.6722868
20
-1.058537
11
5.4637796
21
-0.9801078
0
LINE
8
layer0
10
5.4637796
20
-0.9801078
11
5.2409277
21
-0.8854859
0
LINE
8
layer0
10
5.2409277
20
-0.8854859
11
5.0022885
21
-0.7721341
0
LINE
8
layer0
10
5.0022885
20
-0.7721341
11
4.7523429
21
-0.6402825
0
LINE
8
layer0
10
4.7523429
20
-0.6402825
11
4.5092557
21
-0.4989441
0
ARC
8
layer0
10
18.0000324
20
0
40
13.5
50
177.8819331
51
182.1180669
0
LINE
8
layer0
10
4.5092557
20
0.4989441
11
4.7523429
21
0.6402825
0
LINE
8
layer0
10
4.7523429
20
0.6402825
11
5.0022885
21
0.7721341
0
LINE
8
layer0
10
5.0022885
20
0.7721341
11
5.2409277
21
0.8854859
0
LINE
8
layer0
10
5.2409277
20
0.8854859
11
5.4637796
21
0.9801078
0
LINE
8
layer0
10
5.4637796
20
0.9801078
11
5.6722868
21
1.058537
0
LINE
8
layer0
10
5.6722868
20
1.058537
11
5.8650164
21
1.1219763
0
LINE
8
layer0
10
5.8650164
20
1.1219763
11
6.0421451
21
1.172185
0
LINE
8
layer0
10
6.0421451
20
1.172185
11
6.200589
21
1.2100109
0
LINE
8
layer0
10
6.200589
20
1.2100109
11
6.3429835
21
1.2377848
0
LINE
8
layer0
10
6.3429835
20
1.2377848
11
6.4651504
21
1.2563377
0
LINE
8
layer0
10
6.4651504
20
1.2563377
11
6.6532041
21
1.2734082
0
LINE
8
layer0
10
6.6532041
20
1.2734082
11
6.762632
21
1.2744601
0
LINE
8
layer0
10
6.762632
20
1.2744601
11
6.9456365
21
1.2494879
0
LINE
8
layer0
10
6.9456365
20
1.2494879
11
7.1253261
21
1.2362988
0
LINE
8
layer0
10
7.1253261
20
1.2362988
11
7.2863361
21
1.2395599
0
LINE
8
layer0
10
7.2863361
20
1.2395599
11
7.4276444
21
1.25767
0
LINE
8
layer0
10
7.4276444
20
1.25767
11
7.5483193
21
1.2889689
0
LINE
8
layer0
10
7.5483193
20
1.2889689
11
7.6475328
21
1.3317555
0
LINE
8
layer0
10
7.6475328
20
1.3317555
11
7.6888616
21
1.3568957
0
LINE
8
layer0
10
7.6888616
20
1.3568957
11
7.7245752
21
1.384254
0
LINE
8
layer0
10
7.7245752
20
1.384254
11
7.7545855
21
1.413593
0
LINE
8
layer0
10
7.7545855
20
1.413593
11
7.77884
21
1.4446989
0
LINE
8
layer0
10
7.77884
20
1.4446989
11
7.7972781
21
1.4773186
0
LINE
8
layer0
10
7.7972781
20
1.4773186
11
7.8153874
21
1.5374001
0
LINE
8
layer0
10
7.8153874
20
1.5374001
11
7.8979116
21
2.0094303
0
LINE
8
layer0
10
7.8979116
20
2.0094303
11
8.0023073
21
2.4771101
0
LINE
8
layer0
10
8.0023073
20
2.4771101
11
8.0085687
21
2.5395483
0
LINE
8
layer0
10
8.0085687
20
2.5395483
11
8.0040172
21
2.5767409
0
LINE
8
layer0
10
8.0040172
20
2.5767409
11
7.9935127
21
2.6147607
0
LINE
8
layer0
10
7.9935127
20
2.6147607
11
7.9770142
21
2.6533509
0
LINE
8
layer0
10
7.9770142
20
2.6533509
11
7.9544888
21
2.6922937
0
LINE
8
layer0
10
7.9544888
20
2.6922937
11
7.9259267
21
2.7313361
0
LINE
8
layer0
10
7.9259267
20
2.7313361
11
7.850639
21
2.808833
0
LINE
8
layer0
10
7.850639
20
2.808833
11
7.7511276
21
2.8839297
0
LINE
8
layer0
10
7.7511276
20
2.8839297
11
7.6275062
21
2.9547376
0
LINE
8
layer0
10
7.6275062
20
2.9547376
11
7.4800003
21
3.0193664
0
LINE
8
layer0
10
7.4800003
20
3.0193664
11
7.3089415
21
3.0759455
0
LINE
8
layer0
10
7.3089415
20
3.0759455
11
7.1303109
21
3.1229069
0
LINE
8
layer0
10
7.1303109
20
3.1229069
11
7.0296153
21
3.165755
0
LINE
8
layer0
10
7.0296153
20
3.165755
11
6.8624089
21
3.2534911
0
LINE
8
layer0
10
6.8624089
20
3.2534911
11
6.7566413
21
3.317383
0
LINE
8
layer0
10
6.7566413
20
3.317383
11
6.6357146
21
3.3975348
0
LINE
8
layer0
10
6.6357146
20
3.3975348
11
6.5038069
21
3.4931153
0
LINE
8
layer0
10
6.5038069
20
3.4931153
11
6.3593753
21
3.6072862
0
LINE
8
layer0
10
6.3593753
20
3.6072862
11
6.2055935
21
3.7396509
0
LINE
8
layer0
10
6.2055935
20
3.7396509
11
6.0429715
21
3.8919023
0
LINE
8
layer0
10
6.0429715
20
3.8919023
11
5.8732935
21
4.0646033
0
LINE
8
layer0
10
5.8732935
20
4.0646033
11
5.6961975
21
4.26065
0
LINE
8
layer0
10
5.6961975
20
4.26065
11
5.5157352
21
4.478115
0
LINE
8
layer0
10
5.5157352
20
4.478115
11
5.3452399
21
4.7017201
0
ARC
8
layer0
10
18.0000299
20
-0.0000125
40
13.5
50
155.3819324
51
159.6180663
0
LINE
8
layer0
10
5.7271151
20
5.6236486
11
6.0057863
21
5.6612028
0
LINE
8
layer0
10
6.0057863
20
5.6612028
11
6.2871633
21
5.6873677
0
LINE
8
layer0
10
6.2871633
20
5.6873677
11
6.5510151
21
5.7007679
0
LINE
8
layer0
10
6.5510151
20
5.7007679
11
6.7931135
21
5.7029054
0
LINE
8
layer0
10
6.7931135
20
5.7029054
11
7.0157627
21
5.6955723
0
LINE
8
layer0
10
7.0157627
20
5.6955723
11
7.2180988
21
5.6804281
0
LINE
8
layer0
10
7.2180988
20
5.6804281
11
7.4009584
21
5.6590306
0
LINE
8
layer0
10
7.4009584
20
5.6590306
11
7.5618168
21
5.6333434
0
LINE
8
layer0
10
7.5618168
20
5.6333434
11
7.7040008
21
5.6045111
0
LINE
8
layer0
10
7.7040008
20
5.6045111
11
7.8239682
21
5.5749005
0
LINE
8
layer0
10
7.8239682
20
5.5749005
11
8.0042398
21
5.5187066
0
LINE
8
layer0
10
8.0042398
20
5.5187066
11
8.1057405
21
5.4778022
0
LINE
8
layer0
10
8.1057405
20
5.4778022
11
8.2652581
21
5.3846981
0
LINE
8
layer0
10
8.2652581
20
5.3846981
11
8.4262224
21
5.3037487
0
LINE
8
layer0
10
8.4262224
20
5.3037487
11
8.5762243
21
5.2451457
0
LINE
8
layer0
10
8.5762243
20
5.2451457
11
8.7137065
21
5.2078009
0
LINE
8
layer0
10
8.7137065
20
5.2078009
11
8.8371731
21
5.1905371
0
LINE
8
layer0
10
8.8371731
20
5.1905371
11
8.9452082
21
5.1920993
0
LINE
8
layer0
10
8.9452082
20
5.1920993
11
8.9930118
21
5.19951
0
LINE
8
layer0
10
8.9930118
20
5.19951
11
9.0364764
21
5.2111188
0
LINE
8
layer0
10
9.0364764
20
5.2111188
11
9.0754299
21
5.22674
0
LINE
8
layer0
10
9.0754299
20
5.22674
11
9.1097418
21
5.2461963
0
LINE
8
layer0
10
9.1097418
20
5.2461963
11
9.1392594
21
5.269277
0
LINE
8
layer0
10
9.1392594
20
5.269277
11
9.1789824
21
5.317855
0
LINE
8
layer0
10
9.1789824
20
5.317855
11
9.435863
21
5.7223734
0
LINE
8
layer0
10
9.435863
20
5.7223734
11
9.7112854
21
6.1145026
0
LINE
8
layer0
10
9.7112854
20
6.1145026
11
9.7409642
21
6.1697919
0
LINE
8
layer0
10
9.7409642
20
6.1697919
11
9.7509921
21
6.2058951
0
LINE
8
layer0
10
9.7509921
20
6.2058951
11
9.7558368
21
6.2450408
0
LINE
8
layer0
10
9.7558368
20
6.2450408
11
9.755362
21
6.2870072
0
LINE
8
layer0
10
9.755362
20
6.2870072
11
9.749454
21
6.3316058
0
LINE
8
layer0
10
9.749454
20
6.3316058
11
9.738007
21
6.3786064
0
LINE
8
layer0
10
9.738007
20
6.3786064
11
9.698107
21
6.4790157
0
LINE
8
layer0
10
9.698107
20
6.4790157
11
9.6349087
21
6.5864773
0
LINE
8
layer0
10
9.6349087
20
6.5864773
11
9.5477944
21
6.6992032
0
LINE
8
layer0
10
9.5477944
20
6.6992032
11
9.4362491
21
6.8153604
0
LINE
8
layer0
10
9.4362491
20
6.8153604
11
9.2998632
21
6.933094
0
LINE
8
layer0
10
9.2998632
20
6.933094
11
9.1528014
21
7.0448397
0
LINE
8
layer0
10
9.1528014
20
7.0448397
11
9.0761681
21
7.1229607
0
LINE
8
layer0
10
9.0761681
20
7.1229607
11
8.9552647
21
7.2680055
0
LINE
8
layer0
10
8.9552647
20
7.2680055
11
8.8819986
21
7.3675094
0
LINE
8
layer0
10
8.8819986
20
7.3675094
11
8.8009496
21
7.4878366
0
LINE
8
layer0
10
8.8009496
20
7.4878366
11
8.7156598
21
7.6266203
0
LINE
8
layer0
10
8.7156598
20
7.6266203
11
8.6259138
21
7.7873721
0
LINE
8
layer0
10
8.6259138
20
7.7873721
11
8.5344917
21
7.9685109
0
LINE
8
layer0
10
8.5344917
20
7.9685109
11
8.4425127
21
8.1714056
0
LINE
8
layer0
10
8.4425127
20
8.1714056
11
8.3518404
21
8.3958935
0
LINE
8
layer0
10
8.3518404
20
8.3958935
11
8.2632488
21
8.6447887
0
LINE
8
layer0
10
8.2632488
20
8.6447887
11
8.1797437
21
8.91476
0
LINE
8
layer0
10
8.1797437
20
8.91476
11
8.1077965
21
9.18659
0
ARC
8
layer0
10
18.0000229
20
-0.0000229
40
13.5
50
132.8819331
51
137.1180669
0
LINE
8
layer0
10
8.81341
20
9.8922035
11
9.08524
21
9.8202563
0
LINE
8
layer0
10
9.08524
20
9.8202563
11
9.3552113
21
9.7367512
0
LINE
8
layer0
10
9.3552113
20
9.7367512
11
9.6041065
21
9.6481596
0
LINE
8
layer0
10
9.6041065
20
9.6481596
11
9.8285944
21
9.5574873
0
LINE
8
layer0
10
9.8285944
20
9.5574873
11
10.0314891
21
9.4655083
0
LINE
8
layer0
10
10.0314891
20
9.4655083
11
10.2126279
21
9.3740862
0
LINE
8
layer0
10
10.2126279
20
9.3740862
11
10.3733797
21
9.2843402
0
LINE
8
layer0
10
10.3733797
20
9.2843402
11
10.5121634
21
9.1990504
0
LINE
8
layer0
10
10.5121634
20
9.1990504
11
10.6324906
21
9.1180014
0
LINE
8
layer0
10
10.6324906
20
9.1180014
11
10.7319945
21
9.0447353
0
LINE
8
layer0
10
10.7319945
20
9.0447353
11
10.8770393
21
8.9238319
0
LINE
8
layer0
10
10.8770393
20
8.9238319
11
10.9551603
21
8.8471986
0
LINE
8
layer0
10
10.9551603
20
8.8471986
11
11.066906
21
8.7001368
0
LINE
8
layer0
10
11.066906
20
8.7001368
11
11.1846396
21
8.5637509
0
LINE
8
layer0
10
11.1846396
20
8.5637509
11
11.3007968
21
8.4522056
0
LINE
8
layer0
10
11.3007968
20
8.4522056
11
11.4135227
21
8.3650913
0
LINE
8
layer0
10
11.4135227
20
8.3650913
11
11.5209843
21
8.301893
0
LINE
8
layer0
10
11.5209843
20
8.301893
11
11.6213936
21
8.261993
0
LINE
8
layer0
10
11.6213936
20
8.261993
11
11.6683942
21
8.250546
0
LINE
8
layer0
10
11.6683942
20
8.250546
11
11.7129928
21
8.244638
0
LINE
8
layer0
10
11.7129928
20
8.244638
11
11.7549592
21
8.2441632
0
LINE
8
layer0
10
11.7549592
20
8.2441632
11
11.7941049
21
8.2490079
0
LINE
8
layer0
10
11.7941049
20
8.2490079
11
11.8302081
21
8.2590358
0
LINE
8
layer0
10
11.8302081
20
8.2590358
11
11.8854974
21
8.2887146
0
LINE
8
layer0
10
11.8854974
20
8.2887146
11
12.2776266
21
8.564137
0
LINE
8
layer0
10
12.2776266
20
8.564137
11
12.682145
21
8.8210176
0
LINE
8
layer0
10
12.682145
20
8.8210176
11
12.730723
21
8.8607406
0
LINE
8
layer0
10
12.730723
20
8.8607406
11
12.7538037
21
8.8902582
0
LINE
8
layer0
10
12.7538037
20
8.8902582
11
12.77326
21
8.9245701
0
LINE
8
layer0
10
12.77326
20
8.9245701
11
12.7888812
21
8.9635236
0
LINE
8
layer0
10
12.7888812
20
8.9635236
11
12.80049
21
9.0069882
0
LINE
8
layer0
10
12.80049
20
9.0069882
11
12.8079007
21
9.0547918
0
LINE
8
layer0
10
12.8079007
20
9.0547918
11
12.8094629
21
9.1628269
0
LINE
8
layer0
10
12.8094629
20
9.1628269
11
12.7921991
21
9.2862935
0
LINE
8
layer0
10
12.7921991
20
9.2862935
11
12.7548543
21
9.4237757
0
LINE
8
layer0
10
12.7548543
20
9.4237757
11
12.6962513
21
9.5737776
0
LINE
8
layer0
10
12.6962513
20
9.5737776
11
12.6153019
21
9.7347419
0
LINE
8
layer0
10
12.6153019
20
9.7347419
11
12.5221978
21
9.8942595
0
LINE
8
layer0
10
12.5221978
20
9.8942595
11
12.4812934
21
9.9957602
0
LINE
8
layer0
10
12.4812934
20
9.9957602
11
12.4250995
21
10.1760318
0
LINE
8
layer0
10
12.4250995
20
10.1760318
11
12.3954889
21
10.2959992
0
LINE
8
layer0
10
12.3954889
20
10.2959992
11
12.3666566
21
10.4381832
0
LINE
8
layer0
10
12.3666566
20
10.4381832
11
12.3409694
21
10.5990416
0
LINE
8
layer0
10
12.3409694
20
10.5990416
11
12.3195719
21
10.7819012
0
LINE
8
layer0
10
12.3195719
20
10.7819012
11
12.3044277
21
10.9842373
0
LINE
8
layer0
10
12.3044277
20
10.9842373
11
12.2970946
21
11.2068865
0
LINE
8
layer0
10
12.2970946
20
11.2068865
11
12.2992321
21
11.4489849
0
LINE
8
layer0
10
12.2992321
20
11.4489849
11
12.3126323
21
11.7128367
0
LINE
8
layer0
10
12.3126323
20
11.7128367
11
12.3387972
21
11.9942137
0
LINE
8
layer0
10
12.3387972
20
11.9942137
11
12.3763514
21
12.2728849
0
ARC
8
layer0
10
18.0000125
20
-0.0000298
40
13.5
50
110.3819337
51
114.6180676
0
LINE
8
layer0
10
13.2982799
20
12.6547601
11
13.521885
21
12.4842648
0
LINE
8
layer0
10
13.521885
20
12.4842648
11
13.73935
21
12.3038025
0
LINE
8
layer0
10
13.73935
20
12.3038025
11
13.9353967
21
12.1267065
0
LINE
8
layer0
10
13.9353967
20
12.1267065
11
14.1080977
21
11.9570285
0
LINE
8
layer0
10
14.1080977
20
11.9570285
11
14.2603491
21
11.7944065
0
LINE
8
layer0
10
14.2603491
20
11.7944065
11
14.3927138
21
11.6406247
0
LINE
8
layer0
10
14.3927138
20
11.6406247
11
14.5068847
21
11.4961931
0
LINE
8
layer0
10
14.5068847
20
11.4961931
11
14.6024652
21
11.3642854
0
LINE
8
layer0
10
14.6024652
20
11.3642854
11
14.682617
21
11.2433587
0
LINE
8
layer0
10
14.682617
20
11.2433587
11
14.7465089
21
11.1375911
0
LINE
8
layer0
10
14.7465089
20
11.1375911
11
14.834245
21
10.9703847
0
LINE
8
layer0
10
14.834245
20
10.9703847
11
14.8770931
21
10.8696891
0
LINE
8
layer0
10
14.8770931
20
10.8696891
11
14.9240545
21
10.6910585
0
LINE
8
layer0
10
14.9240545
20
10.6910585
11
14.9806336
21
10.5199997
0
LINE
8
layer0
10
14.9806336
20
10.5199997
11
15.0452624
21
10.3724938
0
LINE
8
layer0
10
15.0452624
20
10.3724938
11
15.1160703
21
10.2488724
0
LINE
8
layer0
10
15.1160703
20
10.2488724
11
15.191167
21
10.149361
0
LINE
8
layer0
10
15.191167
20
10.149361
11
15.2686639
21
10.0740733
0
LINE
8
layer0
10
15.2686639
20
10.0740733
11
15.3077063
21
10.0455112
0
LINE
8
layer0
10
15.3077063
20
10.0455112
11
15.3466491
21
10.0229858
0
LINE
8
layer0
10
15.3466491
20
10.0229858
11
15.3852393
21
10.0064873
0
LINE
8
layer0
10
15.3852393
20
10.0064873
11
15.4232591
21
9.9959828
0
LINE
8
layer0
10
15.4232591
20
9.9959828
11
15.4604517
21
9.9914313
0
LINE
8
layer0
10
15.4604517
20
9.9914313
11
15.5228899
21
9.9976927
0
LINE
8
layer0
10
15.5228899
20
9.9976927
11
15.9905697
21
10.1020884
0
LINE
8
layer0
10
15.9905697
20
10.1020884
11
16.4625999
21
10.1846126
0
LINE
8
layer0
10
16.4625999
20
10.1846126
11
16.5226814
21
10.2027219
0
LINE
8
layer0
10
16.5226814
20
10.2027219
11
16.5553011
21
10.22116
0
LINE
8
layer0
10
16.5553011
20
10.22116
11
16.586407
21
10.2454145
0
LINE
8
layer0
10
16.586407
20
10.2454145
11
16.615746
21
10.2754248
0
LINE
8
layer0
10
16.615746
20
10.2754248
11
16.6431043
21
10.3111384
0
LINE
8
layer0
10
16.6431043
20
10.3111384
11
16.6682445
21
10.3524672
0
LINE
8
layer0
10
16.6682445
20
10.3524672
11
16.7110311
21
10.4516807
0
LINE
8
layer0
10
16.7110311
20
10.4516807
11
16.74233
21
10.5723556
0
LINE
8
layer0
10
16.74233
20
10.5723556
11
16.7604401
21
10.7136639
0
LINE
8
layer0
10
16.7604401
20
10.7136639
11
16.7637012
21
10.8746739
0
LINE
8
layer0
10
16.7637012
20
10.8746739
11
16.7505121
21
11.0543635
0
LINE
8
layer0
10
16.7505121
20
11.0543635
11
16.7255399
21
11.237368
0
LINE
8
layer0
10
16.7255399
20
11.237368
11
16.7265918
21
11.3467959
0
LINE
8
layer0
10
16.7265918
20
11.3467959
11
16.7436623
21
11.5348496
0
LINE
8
layer0
10
16.7436623
20
11.5348496
11
16.7622152
21
11.6570165
0
LINE
8
layer0
10
16.7622152
20
11.6570165
11
16.7899891
21
11.799411
0
LINE
8
layer0
10
16.7899891
20
11.799411
11
16.827815
21
11.9578549
0
LINE
8
layer0
10
16.827815
20
11.9578549
11
16.8780237
21
12.1349836
0
LINE
8
layer0
10
16.8780237
20
12.1349836
11
16.941463
21
12.3277132
0
LINE
8
layer0
10
16.941463
20
12.3277132
11
17.0198922
21
12.5362204
0
LINE
8
layer0
10
17.0198922
20
12.5362204
11
17.1145141
21
12.7590723
0
LINE
8
layer0
10
17.1145141
20
12.7590723
11
17.2278659
21
12.9977115
0
LINE
8
layer0
10
17.2278659
20
12.9977115
11
17.3597175
21
13.2476571
0
LINE
8
layer0
10
17.3597175
20
13.2476571
11
17.5010559
21
13.4907443
0
ARC
8
layer0
10
18
20
-0.0000324
40
13.5
50
87.8819331
51
92.1180669
0
LINE
8
layer0
10
18.4989441
20
13.4907443
11
18.6402825
21
13.2476571
0
LINE
8
layer0
10
18.6402825
20
13.2476571
11
18.7721341
21
12.9977115
0
LINE
8
layer0
10
18.7721341
20
12.9977115
11
18.8854859
21
12.7590723
0
LINE
8
layer0
10
18.8854859
20
12.7590723
11
18.9801078
21
12.5362204
0
LINE
8
layer0
10
18.9801078
20
12.5362204
11
19.058537
21
12.3277132
0
LINE
8
layer0
10
19.058537
20
12.3277132
11
19.1219763
21
12.1349836
0
LINE
8
layer0
10
19.1219763
20
12.1349836
11
19.172185
21
11.9578549
0
LINE
8
layer0
10
19.172185
20
11.9578549
11
19.2100109
21
11.799411
0
LINE
8
layer0
10
19.2100109
20
11.799411
11
19.2377848
21
11.6570165
0
LINE
8
layer0
10
19.2377848
20
11.6570165
11
19.2563377
21
11.5348496
0
LINE
8
layer0
10
19.2563377
20
11.5348496
11
19.2734082
21
11.3467959
0
LINE
8
layer0
10
19.2734082
20
11.3467959
11
19.2744601
21
11.237368
0
LINE
8
layer0
10
19.2744601
20
11.237368
11
19.2494879
21
11.0543635
0
LINE
8
layer0
10
19.2494879
20
11.0543635
11
19.2362988
21
10.8746739
0
LINE
8
layer0
10
19.2362988
20
10.8746739
11
19.2395599
21
10.7136639
0
LINE
8
layer0
10
19.2395599
20
10.7136639
11
19.25767
21
10.5723556
0
LINE
8
layer0
10
19.25767
20
10.5723556
11
19.2889689
21
10.4516807
0
LINE
8
layer0
10
19.2889689
20
10.4516807
11
19.3317555
21
10.3524672
0
LINE
8
layer0
10
19.3317555
20
10.3524672
11
19.3568957
21
10.3111384
0
LINE
8
layer0
10
19.3568957
20
10.3111384
11
19.384254
21
10.2754248
0
LINE
8
layer0
10
19.384254
20
10.2754248
11
19.413593
21
10.2454145
0
LINE
8
layer0
10
19.413593
20
10.2454145
11
19.4446989
21
10.22116
0
LINE
8
layer0
10
19.4446989
20
10.22116
11
19.4773186
21
10.2027219
0
LINE
8
layer0
10
19.4773186
20
10.2027219
11
19.5374001
21
10.1846126
0
LINE
8
layer0
10
19.5374001
20
10.1846126
11
20.0094303
21
10.1020884
0
LINE
8
layer0
10
20.0094303
20
10.1020884
11
20.4771101
21
9.9976927
0
LINE
8
layer0
10
20.4771101
20
9.9976927
11
20.5395483
21
9.9914313
0
LINE
8
layer0
10
20.5395483
20
9.9914313
11
20.5767409
21
9.9959828
0
LINE
8
layer0
10
20.5767409
20
9.9959828
11
20.6147607
21
10.0064873
0
LINE
8
layer0
10
20.6147607
20
10.0064873
11
20.6533509
21
10.0229858
0
LINE
8
layer0
10
20.6533509
20
10.0229858
11
20.6922937
21
10.0455112
0
LINE
8
layer0
10
20.6922937
20
10.0455112
11
20.7313361
21
10.0740733
0
LINE
8
layer0
10
20.7313361
20
10.0740733
11
20.808833
21
10.149361
0
LINE
8
layer0
10
20.808833
20
10.149361
11
20.8839297
21
10.2488724
0
LINE
8
layer0
10
20.8839297
20
10.2488724
11
20.9547376
21
10.3724938
0
LINE
8
layer0
10
20.9547376
20
10.3724938
11
21.0193664
21
10.5199997
0
LINE
8
layer0
10
21.0193664
20
10.5199997
11
21.0759455
21
10.6910585
0
LINE
8
layer0
10
21.0759455
20
10.6910585
11
21.1229069
21
10.8696891
0
LINE
8
layer0
10
21.1229069
20
10.8696891
11
21.165755
21
10.9703847
0
LINE
8
layer0
10
21.165755
20
10.9703847
11
21.2534911
21
11.1375911
0
LINE
8
layer0
10
21.2534911
20
11.1375911
11
21.317383
21
11.2433587
0
LINE
8
layer0
10
21.317383
20
11.2433587
11
21.3975348
21
11.3642854
0
LINE
8
layer0
10
21.3975348
20
11.3642854
11
21.4931153
21
11.4961931
0
LINE
8
layer0
10
21.4931153
20
11.4961931
11
21.6072862
21
11.6406247
0
LINE
8
layer0
10
21.6072862
20
11.6406247
11
21.7396509
21
11.7944065
0
LINE
8
layer0
10
21.7396509
20
11.7944065
11
21.8919023
21
11.9570285
0
LINE
8
layer0
10
21.8919023
20
11.9570285
11
22.0646033
21
12.1267065
0
LINE
8
layer0
10
22.0646033
20
12.1267065
11
22.26065
21
12.3038025
0
LINE
8
layer0
10
22.26065
20
12.3038025
11
22.478115
21
12.4842648
0
LINE
8
layer0
10
22.478115
20
12.4842648
11
22.7017201
21
12.6547601
0
ARC
8
layer0
10
17.9999875
20
-0.0000299
40
13.5
50
65.3819324
51
69.6180663
0
LINE
8
layer0
10
23.6236486
20
12.2728849
11
23.6612028
21
11.9942137
0
LINE
8
layer0
10
23.6612028
20
11.9942137
11
23.6873677
21
11.7128367
0
LINE
8
layer0
10
23.6873677
20
11.7128367
11
23.7007679
21
11.4489849
0
LINE
8
layer0
10
23.7007679
20
11.4489849
11
23.7029054
21
11.2068865
0
LINE
8
layer0
10
23.7029054
20
11.2068865
11
23.6955723
21
10.9842373
0
LINE
8
layer0
10
23.6955723
20
10.9842373
11
23.6804281
21
10.7819012
0
LINE
8
layer0
10
23.6804281
20
10.7819012
11
23.6590306
21
10.5990416
0
LINE
8
layer0
10
23.6590306
20
10.5990416
11
23.6333434
21
10.4381832
0
LINE
8
layer0
10
23.6333434
20
10.4381832
11
23.6045111
21
10.2959992
0
LINE
8
layer0
10
23.6045111
20
10.2959992
11
23.5749005
21
10.1760318
0
LINE
8
layer0
10
23.5749005
20
10.1760318
11
23.5187066
21
9.9957602
0
LINE
8
layer0
10
23.5187066
20
9.9957602
11
23.4778022
21
9.8942595
0
LINE
8
layer0
10
23.4778022
20
9.8942595
11
23.3846981
21
9.7347419
0
LINE
8
layer0
10
23.3846981
20
9.7347419
11
23.3037487
21
9.5737776
0
LINE
8
layer0
10
23.3037487
20
9.5737776
11
23.2451457
21
9.4237757
0
LINE
8
layer0
10
23.2451457
20
9.4237757
11
23.2078009
21
9.2862935
0
LINE
8
layer0
10
23.2078009
20
9.2862935
11
23.1905371
21
9.1628269
0
LINE
8
layer0
10
23.1905371
20
9.1628269
11
23.1920993
21
9.0547918
0
LINE
8
layer0
10
23.1920993
20
9.0547918
11
23.19951
21
9.0069882
0
LINE
8
layer0
10
23.19951
20
9.0069882
11
23.2111188
21
8.9635236
0
LINE
8
layer0
10
23.2111188
20
8.9635236
11
23.22674
21
8.9245701
0
LINE
8
layer0
10
23.22674
20
8.9245701
11
23.2461963
21
8.8902582
0
LINE
8
layer0
10
23.2461963
20
8.8902582
11
23.269277
21
8.8607406
0
LINE
8
layer0
10
23.269277
20
8.8607406
11
23.317855
21
8.8210176
0
LINE
8
layer0
10
23.317855
20
8.8210176
11
23.7223734
21
8.564137
0
LINE
8
layer0
10
23.7223734
20
8.564137
11
24.1145026
21
8.2887146
0
LINE
8
layer0
10
24.1145026
20
8.2887146
11
24.1697919
21
8.2590358
0
LINE
8
layer0
10
24.1697919
20
8.2590358
11
24.2058951
21
8.2490079
0
LINE
8
layer0
10
24.2058951
20
8.2490079
11
24.2450408
21
8.2441632
0
LINE
8
layer0
10
24.2450408
20
8.2441632
11
24.2870072
21
8.244638
0
LINE
8
layer0
10
24.2870072
20
8.244638
11
24.3316058
21
8.250546
0
LINE
8
layer0
10
24.3316058
20
8.250546
11
24.3786064
21
8.261993
0
LINE
8
layer0
10
24.3786064
20
8.261993
11
24.4790157
21
8.301893
0
LINE
8
layer0
10
24.4790157
20
8.301893
11
24.5864773
21
8.3650913
0
LINE
8
layer0
10
24.5864773
20
8.3650913
11
24.6992032
21
8.4522056
0
LINE
8
layer0
10
24.6992032
20
8.4522056
11
24.8153604
21
8.5637509
0
LINE
8
layer0
10
24.8153604
20
8.5637509
11
24.933094
21
8.7001368
0
LINE
8
layer0
10
24.933094
20
8.7001368
11
25.0448397
21
8.8471986
0
LINE
8
layer0
10
25.0448397
20
8.8471986
11
25.1229607
21
8.9238319
0
LINE
8
layer0
10
25.1229607
20
8.9238319
11
25.2680055
21
9.0447353
0
LINE
8
layer0
10
25.2680055
20
9.0447353
11
25.3675094
21
9.1180014
0
LINE
8
layer0
10
25.3675094
20
9.1180014
11
25.4878366
21
9.1990504
0
LINE
8
layer0
10
25.4878366
20
9.1990504
11
25.6266203
21
9.2843402
0
LINE
8
layer0
10
25.6266203
20
9.2843402
11
25.7873721
21
9.3740862
0
LINE
8
layer0
10
25.7873721
20
9.3740862
11
25.9685109
21
9.4655083
0
LINE
8
layer0
10
25.9685109
20
9.4655083
11
26.1714056
21
9.5574873
0
LINE
8
layer0
10
26.1714056
20
9.5574873
11
26.3958935
21
9.6481596
0
LINE
8
layer0
10
26.3958935
20
9.6481596
11
26.6447887
21
9.7367512
0
LINE
8
layer0
10
26.6447887
20
9.7367512
11
26.91476
21
9.8202563
0
LINE
8
layer0
10
26.91476
20
9.8202563
11
27.18659
21
9.8922035
0
ARC
8
layer0
10
17.9999771
20
-0.0000229
40
13.5
50
42.8819331
51
47.1180669
0
LINE
8
layer0
10
27.8922035
20
9.18659
11
27.8202563
21
8.91476
0
LINE
8
layer0
10
27.8202563
20
8.91476
11
27.7367512
21
8.6447887
0
LINE
8
layer0
10
27.7367512
20
8.6447887
11
27.6481596
21
8.3958935
0
LINE
8
layer0
10
27.6481596
20
8.3958935
11
27.5574873
21
8.1714056
0
LINE
8
layer0
10
27.5574873
20
8.1714056
11
27.4655083
21
7.9685109
0
LINE
8
layer0
10
27.4655083
20
7.9685109
11
27.3740862
21
7.7873721
0
LINE
8
layer0
10
27.3740862
20
7.7873721
11
27.2843402
21
7.6266203
0
LINE
8
layer0
10
27.2843402
20
7.6266203
11
27.1990504
21
7.4878366
0
LINE
8
layer0
10
27.1990504
20
7.4878366
11
27.1180014
21
7.3675094
0
LINE
8
layer0
10
27.1180014
20
7.3675094
11
27.0447353
21
7.2680055
0
LINE
8
layer0
10
27.0447353
20
7.2680055
11
26.9238319
21
7.1229607
0
LINE
8
layer0
10
26.9238319
20
7.1229607
11
26.8471986
21
7.0448397
0
LINE
8
layer0
10
26.8471986
20
7.0448397
11
26.7001368
21
6.933094
0
LINE
8
layer0
10
26.7001368
20
6.933094
11
26.5637509
21
6.8153604
0
LINE
8
layer0
10
26.5637509
20
6.8153604
11
26.4522056
21
6.6992032
0
LINE
8
layer0
10
26.4522056
20
6.6992032
11
26.3650913
21
6.5864773
0
LINE
8
layer0
10
26.3650913
20
6.5864773
11
26.301893
21
6.4790157
0
LINE
8
layer0
10
26.301893
20
6.4790157
11
26.261993
21
6.3786064
0
LINE
8
layer0
10
26.261993
20
6.3786064
11
26.250546
21
6.3316058
0
LINE
8
layer0
10
26.250546
20
6.3316058
11
26.244638
21
6.2870072
0
LINE
8
layer0
10
26.244638
20
6.2870072
11
26.2441632
21
6.2450408
0
LINE
8
layer0
10
26.2441632
20
6.2450408
11
26.2490079
21
6.2058951
0
LINE
8
layer0
10
26.2490079
20
6.2058951
11
26.2590358
21
6.1697919
0
LINE
8
layer0
10
26.2590358
20
6.1697919
11
26.2887146
21
6.1145026
0
LINE
8
layer0
10
26.2887146
20
6.1145026
11
26.564137
21
5.7223734
0
LINE
8
layer0
10
26.564137
20
5.7223734
11
26.8210176
21
5.317855
0
LINE
8
layer0
10
26.8210176
20
5.317855
11
26.8607406
21
5.269277
0
LINE
8
layer0
10
26.8607406
20
5.269277
11
26.8902582
21
5.2461963
0
LINE
8
layer0
10
26.8902582
20
5.2461963
11
26.9245701
21
5.22674
0
LINE
8
layer0
10
26.9245701
20
5.22674
11
26.9635236
21
5.2111188
0
LINE
8
layer0
10
26.9635236
20
5.2111188
11
27.0069882
21
5.19951
0
LINE
8
layer0
10
27.0069882
20
5.19951
11
27.0547918
21
5.1920993
0
LINE
8
layer0
10
27.0547918
20
5.1920993
11
27.1628269
21
5.1905371
0
LINE
8
layer0
10
27.1628269
20
5.1905371
11
27.2862935
21
5.2078009
0
LINE
8
layer0
10
27.2862935
20
5.2078009
11
27.4237757
21
5.2451457
0
LINE
8
layer0
10
27.4237757
20
5.2451457
11
27.5737776
21
5.3037487
0
LINE
8
layer0
10
27.5737776
20
5.3037487
11
27.7347419
21
5.3846981
0
LINE
8
layer0
10
27.7347419
20
5.3846981
11
27.8942595
21
5.4778022
0
LINE
8
layer0
10
27.8942595
20
5.4778022
11
27.9957602
21
5.5187066
0
LINE
8
layer0
10
27.9957602
20
5.5187066
11
28.1760318
21
5.5749005
0
LINE
8
layer0
10
28.1760318
20
5.5749005
11
28.2959992
21
5.6045111
0
LINE
8
layer0
10
28.2959992
20
5.6045111
11
28.4381832
21
5.6333434
0
LINE
8
layer0
10
28.4381832
20
5.6333434
11
28.5990416
21
5.6590306
0
LINE
8
layer0
10
28.5990416
20
5.6590306
11
28.7819012
21
5.6804281
0
LINE
8
layer0
10
28.7819012
20
5.6804281
11
28.9842373
21
5.6955723
0
LINE
8
layer0
10
28.9842373
20
5.6955723
11
29.2068865
21
5.7029054
0
LINE
8
layer0
10
29.2068865
20
5.7029054
11
29.4489849
21
5.7007679
0
LINE
8
layer0
10
29.4489849
20
5.7007679
11
29.7128367
21
5.6873677
0
LINE
8
layer0
10
29.7128367
20
5.6873677
11
29.9942137
21
5.6612028
0
LINE
8
layer0
10
29.9942137
20
5.6612028
11
30.2728849
21
5.6236486
0
ARC
8
layer0
10
17.9999702
20
-0.0000125
40
13.5
50
20.3819337
51
24.6180676
0
LINE
8
layer0
10
30.6547601
20
4.7017201
11
30.4842648
21
4.478115
0
LINE
8
layer1
10
30.4842648
20
4.478115
11
30.3038025
21
4.26065
0
LINE
8
layer1
10
30.3038025
20
4.26065
11
30.1267065
21
4.0646033
0
LINE
8
layer1
10
30.1267065
20
4.0646033
11
29.9570285
21
3.8919023
0
LINE
8
layer1
10
29.9570285
20
3.8919023
11
29.7944065
21
3.7396509
0
LINE
8
layer1
10
29.7944065
20
3.7396509
11
29.6406247
21
3.6072862
0
LINE
8
layer1
10
29.6406247
20
3.6072862
11
29.4961931
21
3.4931153
0
LINE
8
layer1
10
29.4961931
20
3.4931153
11
29.3642854
21
3.3975348
0
LINE
8
layer1
10
29.3642854
20
3.3975348
11
29.2433587
21
3.317383
0
LINE
8
layer1
10
29.2433587
20
3.317383
11
29.1375911
21
3.2534911
0
LINE
8
layer1
10
29.1375911
20
3.2534911
11
28.9703847
21
3.165755
0
LINE
8
layer1
10
28.9703847
20
3.165755
11
28.8696891
21
3.1229069
0
LINE
8
layer1
10
28.8696891
20
3.1229069
11
28.6910585
21
3.0759455
0
LINE
8
layer1
10
28.6910585
20
3.0759455
11
28.5199997
21
3.0193664
0
LINE
8
layer1
10
28.5199997
20
3.0193664
11
28.3724938
21
2.9547376
0
LINE
8
layer1
10
28.3724938
20
2.9547376
11
28.2488724
21
2.8839297
0
LINE
8
layer1
10
28.2488724
20
2.8839297
11
28.149361
21
2.808833
0
LINE
8
layer1
10
28.149361
20
2.808833
11
28.0740733
21
2.7313361
0
LINE
8
layer1
10
28.0740733
20
2.7313361
11
28.0455112
21
2.6922937
0
LINE
8
layer1
10
28.0455112
20
2.6922937
11
28.0229858
21
2.6533509
0
LINE
8
layer1
10
28.0229858
20
2.6533509
11
28.0064873
21
2.6147607
0
LINE
8
layer1
10
28.0064873
20
2.6147607
11
27.9959828
21
2.5767409
0
LINE
8
layer1
10
27.9959828
20
2.5767409
11
27.9914313
21
2.5395483
0
LINE
8
layer1
10
27.9914313
20
2.5395483
11
27.9976927
21
2.4771101
0
LINE
8
layer1
10
27.9976927
20
2.4771101
11
28.1020884
21
2.0094303
0
LINE
8
layer1
10
28.1020884
20
2.0094303
11
28.1846126
21
1.5374001
0
LINE
8
layer1
10
28.1846126
20
1.5374001
11
28.2027219
21
1.4773186
0
LINE
8
layer1
10
28.2027219
20
1.4773186
11
28.22116
21
1.4446989
0
LINE
8
layer1
10
28.22116
20
1.4446989
11
28.2454145
21
1.413593
0
LINE
8
layer1
10
28.2454145
20
1.413593
11
28.2754248
21
1.384254
0
LINE
8
layer1
10
28.2754248
20
1.384254
11
28.3111384
21
1.3568957
0
LINE
8
layer1
10
28.3111384
20
1.3568957
11
28.3524672
21
1.3317555
0
LINE
8
layer1
10
28.3524672
20
1.3317555
11
28.4516807
21
1.2889689
0
LINE
8
layer1
10
28.4516807
20
1.2889689
11
28.5723556
21
1.25767
0
LINE
8
layer1
10
28.5723556
20
1.25767
11
28.7136639
21
1.2395599
0
LINE
8
layer1
10
28.7136639
20
1.2395599
11
28.8746739
21
1.2362988
0
LINE
8
layer1
10
28.8746739
20
1.2362988
11
29.0543635
21
1.2494879
0
LINE
8
layer1
10
29.0543635
20
1.2494879
11
29.237368
21
1.2744601
0
LINE
8
layer1
10
29.237368
20
1.2744601
11
29.3467959
21
1.2734082
0
LINE
8
layer1
10
29.3467959
20
1.2734082
11
29.5348496
21
1.2563377
0
LINE
8
layer1
10
29.5348496
20
1.2563377
11
29.6570165
21
1.2377848
0
LINE
8
layer1
10
29.6570165
20
1.2377848
11
29.799411
21
1.2100109
0
LINE
8
layer1
10
29.799411
20
1.2100109
11
29.9578549
21
1.172185
0
LINE
8
layer1
10
29.9578549
20
1.172185
11
30.1349836
21
1.1219763
0
LINE
8
layer1
10
30.1349836
20
1.1219763
11
30.3277132
21
1.058537
0
LINE
8
layer1
10
30.3277132
20
1.058537
11
30.5362204
21
0.9801078
0
LINE
8
layer1
10
30.5362204
20
0.9801078
11
30.7590723
21
0.8854859
0
LINE
8
layer1
10
30.7590723
20
0.8854859
11
30.9977115
21
0.7721341
0
LINE
8
layer1
10
30.9977115
20
0.7721341
11
31.2476571
21
0.6402825
0
LINE
8
layer1
10
31.2476571
20
0.6402825
11
31.4907443
21
0.4989441
0
ARC
8
layer1
10
17.9999676
20
0
40
13.5
50
357.8819331
51
362.1180669
0
LINE
8
layer1
10
31.4907443
20
-0.4989441
11
31.2476571
21
-0.6402825
0
LINE
8
layer1
10
31.2476571
20
-0.6402825
11
30.9977115
21
-0.7721341
0
LINE
8
layer1
10
30.9977115
20
-0.7721341
11
30.7590723
21
-0.8854859
0
LINE
8
layer1
10
30.7590723
20
-0.8854859
11
30.5362204
21
-0.9801078
0
LINE
8
layer1
10
30.5362204
20
-0.9801078
11
30.3277132
21
-1.058537
0
LINE
8
layer1
10
30.3277132
20
-1.058537
11
30.1349836
21
-1.1219763
0
LINE
8
layer1
10
30.1349836
20
-1.1219763
11
29.9578549
21
-1.172185
0
LINE
8
layer1
10
29.9578549
20
-1.172185
11
29.799411
21
-1.2100109
0
LINE
8
layer1
10
29.799411
20
-1.2100109
11
29.6570165
21
-1.2377848
0
LINE
8
layer1
10
29.6570165
20
-1.2377848
11
29.5348496
21
-1.2563377
0
LINE
8
layer1
10
29.5348496
20
-1.2563377
11
29.3467959
21
-1.2734082
0
LINE
8
layer1
10
29.3467959
20
-1.2734082
11
29.237368
21
-1.2744601
0
LINE
8
layer1
10
29.237368
20
-1.2744601
11
29.0543635
21
-1.2494879
0
LINE
8
layer1
10
29.0543635
20
-1.2494879
11
28.8746739
21
-1.2362988
0
LINE
8
layer1
10
28.8746739
20
-1.2362988
11
28.7136639
21
-1.2395599
0
LINE
8
layer1
10
28.7136639
20
-1.2395599
11
28.5723556
21
-1.25767
0
LINE
8
layer1
10
28.5723556
20
-1.25767
11
28.4516807
21
-1.2889689
0
LINE
8
layer1
10
28.4516807
20
-1.2889689
11
28.3524672
21
-1.3317555
0
LINE
8
layer1
10
28.3524672
20
-1.3317555
11
28.3111384
21
-1.3568957
0
LINE
8
layer1
10
28.3111384
20
-1.3568957
11
28.2754248
21
-1.384254
0
LINE
8
layer1
10
28.2754248
20
-1.384254
11
28.2454145
21
-1.413593
0
LINE
8
layer1
10
28.2454145
20
-1.413593
11
28.22116
21
-1.4446989
0
LINE
8
layer1
10
28.22116
20
-1.4446989
11
28.2027219
21
-1.4773186
0
LINE
8
layer1
10
28.2027219
20
-1.4773186
11
28.1846126
21
-1.5374001
0
LINE
8
layer1
10
28.1846126
20
-1.5374001
11
28.1020884
21
-2.0094303
0
LINE
8
layer1
10
28.1020884
20
-2.0094303
11
27.9976927
21
-2.4771101
0
LINE
8
layer1
10
27.9976927
20
-2.4771101
11
27.9914313
21
-2.5395483
0
LINE
8
layer1
10
27.9914313
20
-2.5395483
11
27.9959828
21
-2.5767409
0
LINE
8
layer1
10
27.9959828
20
-2.5767409
11
28.0064873
21
-2.6147607
0
LINE
8
layer1
10
28.0064873
20
-2.6147607
11
28.0229858
21
-2.6533509
0
LINE
8
layer1
10
28.0229858
20
-2.6533509
11
28.0455112
21
-2.6922937
0
LINE
8
layer1
10
28.0455112
20
-2.6922937
11
28.0740733
21
-2.7313361
0
LINE
8
layer1
10
28.0740733
20
-2.7313361
11
28.149361
21
-2.808833
0
LINE
8
layer1
10
28.149361
20
-2.808833
11
28.2488724
21
-2.8839297
0
LINE
8
layer1
10
28.2488724
20
-2.8839297
11
28.3724938
21
-2.9547376
0
LINE
8
layer1
10
28.3724938
20
-2.9547376
11
28.5199997
21
-3.0193664
0
LINE
8
layer1
10
28.5199997
20
-3.0193664
11
28.6910585
21
-3.0759455
0
LINE
8
layer1
10
28.6910585
20
-3.0759455
11
28.8696891
21
-3.1229069
0
LINE
8
layer1
10
28.8696891
20
-3.1229069
11
28.9703847
21
-3.165755
0
LINE
8
layer1
10
28.9703847
20
-3.165755
11
29.1375911
21
-3.2534911
0
LINE
8
layer1
10
29.1375911
20
-3.2534911
11
29.2433587
21
-3.317383
0
LINE
8
layer1
10
29.2433587
20
-3.317383
11
29.3642854
21
-3.3975348
0
LINE
8
layer1
10
29.3642854
20
-3.3975348
11
29.4961931
21
-3.4931153
0
LINE
8
layer1
10
29.4961931
20
-3.4931153
11
29.6406247
21
-3.6072862
0
LINE
8
layer1
10
29.6406247
20
-3.6072862
11
29.7944065
21
-3.7396509
0
LINE
8
layer1
10
29.7944065
20
-3.7396509
11
29.9570285
21
-3.8919023
0
LINE
8
layer1
10
29.9570285
20
-3.8919023
11
30.1267065
21
-4.0646033
0
LINE
8
layer1
10
30.1267065
20
-4.0646033
11
30.3038025
21
-4.26065
0
LINE
8
layer1
10
30.3038025
20
-4.26065
11
30.4842648
21
-4.478115
0
LINE
8
layer1
10
30.4842648
20
-4.478115
11
30.6547601
21
-4.7017201
0
ARC
8
layer1
10
17.9999701
20
0.0000125
40
13.5
50
335.3819324
51
339.6180663
0
LINE
8
layer1
10
30.2728849
20
-5.6236486
11
29.9942137
21
-5.6612028
0
LINE
8
layer1
10
29.9942137
20
-5.6612028
11
29.7128367
21
-5.6873677
0
LINE
8
layer1
10
29.7128367
20
-5.6873677
11
29.4489849
21
-5.7007679
0
LINE
8
layer1
10
29.4489849
20
-5.7007679
11
29.2068865
21
-5.7029054
0
LINE
8
layer1
10
29.2068865
20
-5.7029054
11
28.9842373
21
-5.6955723
0
LINE
8
layer1
10
28.9842373
20
-5.6955723
11
28.7819012
21
-5.6804281
0
LINE
8
layer1
10
28.7819012
20
-5.6804281
11
28.5990416
21
-5.6590306
0
LINE
8
layer1
10
28.5990416
20
-5.6590306
11
28.4381832
21
-5.6333434
0
LINE
8
layer1
10
28.4381832
20
-5.6333434
11
28.2959992
21
-5.6045111
0
LINE
8
layer1
10
28.2959992
20
-5.6045111
11
28.1760318
21
-5.5749005
0
LINE
8
layer1
10
28.1760318
20
-5.5749005
11
27.9957602
21
-5.5187066
0
LINE
8
layer1
10
27.9957602
20
-5.5187066
11
27.8942595
21
-5.4778022
0
LINE
8
layer1
10
27.8942595
20
-5.4778022
11
27.7347419
21
-5.3846981
0
LINE
8
layer1
10
27.7347419
20
-5.3846981
11
27.5737776
21
-5.3037487
0
LINE
8
layer1
10
27.5737776
20
-5.3037487
11
27.4237757
21
-5.2451457
0
LINE
8
layer1
10
27.4237757
20
-5.2451457
11
27.2862935
21
-5.2078009
0
LINE
8
layer1
10
27.2862935
20
-5.2078009
11
27.1628269
21
-5.1905371
0
LINE
8
layer1
10
27.1628269
20
-5.1905371
11
27.0547918
21
-5.1920993
0
LINE
8
layer1
10
27.0547918
20
-5.1920993
11
27.0069882
21
-5.19951
0
LINE
8
layer1
10
27.0069882
20
-5.19951
11
26.9635236
21
-5.2111188
0
LINE
8
layer1
10
26.9635236
20
-5.2111188
11
26.9245701
21
-5.22674
0
LINE
8
layer1
10
26.9245701
20
-5.22674
11
26.8902582
21
-5.2461963
0
LINE
8
layer1
10
26.8902582
20
-5.2461963
11
26.8607406
21
-5.269277
0
LINE
8
layer1
10
26.8607406
20
-5.269277
11
26.8210176
21
-5.317855
0
LINE
8
layer1
10
26.8210176
20
-5.317855
11
26.564137
21
-5.7223734
0
LINE
8
layer1
10
26.564137
20
-5.7223734
11
26.2887146
21
-6.1145026
0
LINE
8
layer1
10
26.2887146
20
-6.1145026
11
26.2590358
21
-6.1697919
0
LINE
8
layer1
10
26.2590358
20
-6.1697919
11
26.2490079
21
-6.2058951
0
LINE
8
layer1
10
26.2490079
20
-6.2058951
11
26.2441632
21
-6.2450408
0
LINE
8
layer1
10
26.2441632
20
-6.2450408
11
26.244638
21
-6.2870072
0
LINE
8
layer1
10
26.244638
20
-6.2870072
11
26.250546
21
-6.3316058
0
LINE
8
layer1
10
26.250546
20
-6.3316058
11
26.261993
21
-6.3786064
0
LINE
8
layer1
10
26.261993
20
-6.3786064
11
26.301893
21
-6.4790157
0
LINE
8
layer1
10
26.301893
20
-6.4790157
11
26.3650913
21
-6.5864773
0
LINE
8
layer1
10
26.3650913
20
-6.5864773
11
26.4522056
21
-6.6992032
0
LINE
8
layer1
10
26.4522056
20
-6.6992032
11
26.5637509
21
-6.8153604
0
LINE
8
layer1
10
26.5637509
20
-6.8153604
11
26.7001368
21
-6.933094
0
LINE
8
layer1
10
26.7001368
20
-6.933094
11
26.8471986
21
-7.0448397
0
LINE
8
layer1
10
26.8471986
20
-7.0448397
11
26.9238319
21
-7.1229607
0
LINE
8
layer1
10
26.9238319
20
-7.1229607
11
27.0447353
21
-7.2680055
0
LINE
8
layer1
10
27.0447353
20
-7.2680055
11
27.1180014
21
-7.3675094
0
LINE
8
layer1
10
27.1180014
20
-7.3675094
11
27.1990504
21
-7.4878366
0
LINE
8
layer1
10
27.1990504
20
-7.4878366
11
27.2843402
21
-7.6266203
0
LINE
8
layer1
10
27.2843402
20
-7.6266203
11
27.3740862
21
-7.7873721
0
LINE
8
layer1
10
27.3740862
20
-7.7873721
11
27.4655083
21
-7.9685109
0
LINE
8
layer1
10
27.4655083
20
-7.9685109
11
27.5574873
21
-8.1714056
0
LINE
8
layer1
10
27.5574873
20
-8.1714056
11
27.6481596
21
-8.3958935
0
LINE
8
layer1
10
27.6481596
20
-8.3958935
11
27.7367512
21
-8.6447887
0
LINE
8
layer1
10
27.7367512
20
-8.6447887
11
27.8202563
21
-8.91476
0
LINE
8
layer1
10
27.8202563
20
-8.91476
11
27.8922035
21
-9.18659
0
ARC
8
layer1
10
17.9999771
20
0.0000229
40
13.5
50
312.8819331
51
317.1180669
0
LINE
8
layer1
10
27.18659
20
-9.8922035
11
26.91476
21
-9.8202563
0
LINE
8
layer1
10
26.91476
20
-9.8202563
11
26.6447887
21
-9.7367512
0
LINE
8
layer1
10
26.6447887
20
-9.7367512
11
26.3958935
21
-9.6481596
0
LINE
8
layer1
10
26.3958935
20
-9.6481596
11
26.1714056
21
-9.5574873
0
LINE
8
layer1
10
26.1714056
20
-9.5574873
11
25.9685109
21
-9.4655083
0
LINE
8
layer1
10
25.9685109
20
-9.4655083
11
25.7873721
21
-9.3740862
0
LINE
8
layer1
10
25.7873721
20
-9.3740862
11
25.6266203
21
-9.2843402
0
LINE
8
layer1
10
25.6266203
20
-9.2843402
11
25.4878366
21
-9.1990504
0
LINE
8
layer1
10
25.4878366
20
-9.1990504
11
25.3675094
21
-9.1180014
0
LINE
8
layer1
10
25.3675094
20
-9.1180014
11
25.2680055
21
-9.0447353
0
LINE
8
layer1
10
25.2680055
20
-9.0447353
11
25.1229607
21
-8.9238319
0
LINE
8
layer1
10
25.1229607
20
-8.9238319
11
25.0448397
21
-8.8471986
0
LINE
8
layer1
10
25.0448397
20
-8.8471986
11
24.933094
21
-8.7001368
0
LINE
8
layer1
10
24.933094
20
-8.7001368
11
24.8153604
21
-8.5637509
0
LINE
8
layer1
10
24.8153604
20
-8.5637509
11
24.6992032
21
-8.4522056
0
LINE
8
layer1
10
24.6992032
20
-8.4522056
11
24.5864773
21
-8.3650913
0
LINE
8
layer1
10
24.5864773
20
-8.3650913
11
24.4790157
21
-8.301893
0
LINE
8
layer1
10
24.4790157
20
-8.301893
11
24.3786064
21
-8.261993
0
LINE
8
layer1
10
24.3786064
20
-8.261993
11
24.3316058
21
-8.250546
0
LINE
8
layer1
10
24.3316058
20
-8.250546
11
24.2870072
21
-8.244638
0
LINE
8
layer1
10
24.2870072
20
-8.244638
11
24.2450408
21
-8.2441632
0
LINE
8
layer1
10
24.2450408
20
-8.2441632
11
24.2058951
21
-8.2490079
0
LINE
8
layer1
10
24.2058951
20
-8.2490079
11
24.1697919
21
-8.2590358
0
LINE
8
layer1
10
24.1697919
20
-8.2590358
11
24.1145026
21
-8.2887146
0
LINE
8
layer1
10
24.1145026
20
-8.2887146
11
23.7223734
21
-8.564137
0
LINE
8
layer1
10
23.7223734
20
-8.564137
11
23.317855
21
-8.8210176
0
LINE
8
layer1
10
23.317855
20
-8.8210176
11
23.269277
21
-8.8607406
0
LINE
8
layer1
10
23.269277
20
-8.8607406
11
23.2461963
21
-8.8902582
0
LINE
8
layer1
10
23.2461963
20
-8.8902582
11
23.22674
21
-8.9245701
0
LINE
8
layer1
10
23.22674
20
-8.9245701
11
23.2111188
21
-8.9635236
0
LINE
8
layer1
10
23.2111188
20
-8.9635236
11
23.19951
21
-9.0069882
0
LINE
8
layer1
10
23.19951
20
-9.0069882
11
23.1920993
21
-9.0547918
0
LINE
8
layer1
10
23.1920993
20
-9.0547918
11
23.1905371
21
-9.1628269
0
LINE
8
layer1
10
23.1905371
20
-9.1628269
11
23.2078009
21
-9.2862935
0
LINE
8
layer1
10
23.2078009
20
-9.2862935
11
23.2451457
21
-9.4237757
0
LINE
8
layer1
10
23.2451457
20
-9.4237757
11
23.3037487
21
-9.5737776
0
LINE
8
layer1
10
23.3037487
20
-9.5737776
11
23.3846981
21
-9.7347419
0
LINE
8
layer1
10
23.3846981
20
-9.7347419
11
23.4778022
21
-9.8942595
0
LINE
8
layer1
10
23.4778022
20
-9.8942595
11
23.5187066
21
-9.9957602
0
LINE
8
layer1
10
23.5187066
20
-9.9957602
11
23.5749005
21
-10.1760318
0
LINE
8
layer1
10
23.5749005
20
-10.1760318
11
23.6045111
21
-10.2959992
0
LINE
8
layer1
10
23.6045111
20
-10.2959992
11
23.6333434
21
-10.4381832
0
LINE
8
layer1
10
23.6333434
20
-10.4381832
11
23.6590306
21
-10.5990416
0
LINE
8
layer1
10
23.6590306
20
-10.5990416
11
23.6804281
21
-10.7819012
0
LINE
8
layer1
10
23.6804281
20
-10.7819012
11
23.6955723
21
-10.9842373
0
LINE
8
layer1
10
23.6955723
20
-10.9842373
11
23.7029054
21
-11.2068865
0
LINE
8
layer1
10
23.7029054
20
-11.2068865
11
23.7007679
21
-11.4489849
0
LINE
8
layer1
10
23.7007679
20
-11.4489849
11
23.6873677
21
-11.7128367
0
LINE
8
layer1
10
23.6873677
20
-11.7128367
11
23.6612028
21
-11.9942137
0
LINE
8
layer1
10
23.6612028
20
-11.9942137
11
23.6236486
21
-12.2728849
0
ARC
8
layer1
10
17.9999875
20
0.0000298
40
13.5
50
290.3819337
51
294.6180676
0
LINE
8
layer1
10
22.7017201
20
-12.6547601
11
22.478115
21
-12.4842648
0
LINE
8
layer1
10
22.478115
20
-12.4842648
11
22.26065
21
-12.3038025
0
LINE
8
layer1
10
22.26065
20
-12.3038025
11
22.0646033
21
-12.1267065
0
LINE
8
layer1
10
22.0646033
20
-12.1267065
11
21.8919023
21
-11.9570285
0
LINE
8
layer1
10
21.8919023
20
-11.9570285
11
21.7396509
21
-11.7944065
0
LINE
8
layer1
10
21.7396509
20
-11.7944065
11
21.6072862
21
-11.6406247
0
LINE
8
layer1
10
21.6072862
20
-11.6406247
11
21.4931153
21
-11.4961931
0
LINE
8
layer1
10
21.4931153
20
-11.4961931
11
21.3975348
21
-11.3642854
0
LINE
8
layer1
10
21.3975348
20
-11.3642854
11
21.317383
21
-11.2433587
0
LINE
8
layer1
10
21.317383
20
-11.2433587
11
21.2534911
21
-11.1375911
0
LINE
8
layer1
10
21.2534911
20
-11.1375911
11
21.165755
21
-10.9703847
0
LINE
8
layer1
10
21.165755
20
-10.9703847
11
21.1229069
21
-10.8696891
0
LINE
8
layer1
10
21.1229069
20
-10.8696891
11
21.0759455
21
-10.6910585
0
LINE
8
layer1
10
21.0759455
20
-10.6910585
11
21.0193664
21
-10.5199997
0
LINE
8
layer1
10
21.0193664
20
-10.5199997
11
20.9547376
21
-10.3724938
0
LINE
8
layer1
10
20.9547376
20
-10.3724938
11
20.8839297
21
-10.2488724
0
LINE
8
layer1
10
20.8839297
20
-10.2488724
11
20.808833
21
-10.149361
0
LINE
8
layer1
10
20.808833
20
-10.149361
11
20.7313361
21
-10.0740733
0
LINE
8
layer1
10
20.7313361
20
-10.0740733
11
20.6922937
21
-10.0455112
0
LINE
8
layer1
10
20.6922937
20
-10.0455112
11
20.6533509
21
-10.0229858
0
LINE
8
layer1
10
20.6533509
20
-10.0229858
11
20.6147607
21
-10.0064873
0
LINE
8
layer1
10
20.6147607
20
-10.0064873
11
20.5767409
21
-9.9959828
0
LINE
8
layer1
10
20.5767409
20
-9.9959828
11
20.5395483
21
-9.9914313
0
LINE
8
layer1
10
20.5395483
20
-9.9914313
11
20.4771101
21
-9.9976927
0
LINE
8
layer1
10
20.4771101
20
-9.9976927
11
20.0094303
21
-10.1020884
0
LINE
8
layer1
10
20.0094303
20
-10.1020884
11
19.5374001
21
-10.1846126
0
LINE
8
layer1
10
19.5374001
20
-10.1846126
11
19.4773186
21
-10.2027219
0
LINE
8
layer1
10
19.4773186
20
-10.2027219
11
19.4446989
21
-10.22116
0
LINE
8
layer1
10
19.4446989
20
-10.22116
11
19.413593
21
-10.2454145
0
LINE
8
layer1
10
19.413593
20
-10.2454145
11
19.384254
21
-10.2754248
0
LINE
8
layer1
10
19.384254
20
-10.2754248
11
19.3568957
21
-10.3111384
0
LINE
8
layer1
10
19.3568957
20
-10.3111384
11
19.3317555
21
-10.3524672
0
LINE
8
layer1
10
19.3317555
20
-10.3524672
11
19.2889689
21
-10.4516807
0
LINE
8
layer1
10
19.2889689
20
-10.4516807
11
19.25767
21
-10.5723556
0
LINE
8
layer1
10
19.25767
20
-10.5723556
11
19.2395599
21
-10.7136639
0
LINE
8
layer1
10
19.2395599
20
-10.7136639
11
19.2362988
21
-10.8746739
0
LINE
8
layer1
10
19.2362988
20
-10.8746739
11
19.2494879
21
-11.0543635
0
LINE
8
layer1
10
19.2494879
20
-11.0543635
11
19.2744601
21
-11.237368
0
LINE
8
layer1
10
19.2744601
20
-11.237368
11
19.2734082
21
-11.3467959
0
LINE
8
layer1
10
19.2734082
20
-11.3467959
11
19.2563377
21
-11.5348496
0
LINE
8
layer1
10
19.2563377
20
-11.5348496
11
19.2377848
21
-11.6570165
0
LINE
8
layer1
10
19.2377848
20
-11.6570165
11
19.2100109
21
-11.799411
0
LINE
8
layer1
10
19.2100109
20
-11.799411
11
19.172185
21
-11.9578549
0
LINE
8
layer1
10
19.172185
20
-11.9578549
11
19.1219763
21
-12.1349836
0
LINE
8
layer1
10
19.1219763
20
-12.1349836
11
19.058537
21
-12.3277132
0
LINE
8
layer1
10
19.058537
20
-12.3277132
11
18.9801078
21
-12.5362204
0
LINE
8
layer1
10
18.9801078
20
-12.5362204
11
18.8854859
21
-12.7590723
0
LINE
8
layer1
10
18.8854859
20
-12.7590723
11
18.7721341
21
-12.9977115
0
LINE
8
layer1
10
18.7721341
20
-12.9977115
11
18.6402825
21
-13.2476571
0
LINE
8
layer1
10
18.6402825
20
-13.2476571
11
18.4989441
21
-13.4907443
0
ARC
8
layer1
10
18
20
0.0000324
40
13.5
50
267.8819331
51
272.1180669
0
LINE
8
layer1
10
17.5010559
20
-13.4907443
11
17.3597175
21
-13.2476571
0
LINE
8
layer1
10
17.3597175
20
-13.2476571
11
17.2278659
21
-12.9977115
0
LINE
8
layer1
10
17.2278659
20
-12.9977115
11
17.1145141
21
-12.7590723
0
LINE
8
layer1
10
17.1145141
20
-12.7590723
11
17.0198922
21
-12.5362204
0
LINE
8
layer1
10
17.0198922
20
-12.5362204
11
16.941463
21
-12.3277132
0
LINE
8
layer1
10
16.941463
20
-12.3277132
11
16.8780237
21
-12.1349836
0
LINE
8
layer1
10
16.8780237
20
-12.1349836
11
16.827815
21
-11.9578549
0
LINE
8
layer1
10
16.827815
20
-11.9578549
11
16.7899891
21
-11.799411
0
LINE
8
layer1
10
16.7899891
20
-11.799411
11
16.7622152
21
-11.6570165
0
LINE
8
layer1
10
16.7622152
20
-11.6570165
11
16.7436623
21
-11.5348496
0
LINE
8
layer1
10
16.7436623
20
-11.5348496
11
16.7265918
21
-11.3467959
0
LINE
8
layer1
10
16.7265918
20
-11.3467959
11
16.7255399
21
-11.237368
0
LINE
8
layer1
10
16.7255399
20
-11.237368
11
16.7505121
21
-11.0543635
0
LINE
8
layer1
10
16.7505121
20
-11.0543635
11
16.7637012
21
-10.8746739
0
LINE
8
layer1
10
16.7637012
20
-10.8746739
11
16.7604401
21
-10.7136639
0
LINE
8
layer1
10
16.7604401
20
-10.7136639
11
16.74233
21
-10.5723556
0
LINE
8
layer1
10
16.74233
20
-10.5723556
11
16.7110311
21
-10.4516807
0
LINE
8
layer1
10
16.7110311
20
-10.4516807
11
16.6682445
21
-10.3524672
0
LINE
8
layer1
10
16.6682445
20
-10.3524672
11
16.6431043
21
-10.3111384
0
LINE
8
layer1
10
16.6431043
20
-10.3111384
11
16.615746
21
-10.2754248
0
LINE
8
layer1
10
16.615746
20
-10.2754248
11
16.586407
21
-10.2454145
0
LINE
8
layer1
10
16.586407
20
-10.2454145
11
16.5553011
21
-10.22116
0
LINE
8
layer1
10
16.5553011
20
-10.22116
11
16.5226814
21
-10.2027219
0
LINE
8
layer1
10
16.5226814
20
-10.2027219
11
16.4625999
21
-10.1846126
0
LINE
8
layer1
10
16.4625999
20
-10.1846126
11
15.9905697
21
-10.1020884
0
LINE
8
layer1
10
15.9905697
20
-10.1020884
11
15.5228899
21
-9.9976927
0
LINE
8
layer1
10
15.5228899
20
-9.9976927
11
15.4604517
21
-9.9914313
0
LINE
8
layer1
10
15.4604517
20
-9.9914313
11
15.4232591
21
-9.9959828
0
LINE
8
layer1
10
15.4232591
20
-9.9959828
11
15.3852393
21
-10.0064873
0
LINE
8
layer1
10
15.3852393
20
-10.0064873
11
15.3466491
21
-10.0229858
0
LINE
8
layer1
10
15.3466491
20
-10.0229858
11
15.3077063
21
-10.0455112
0
LINE
8
layer1
10
15.3077063
20
-10.0455112
11
15.2686639
21
-10.0740733
0
LINE
8
layer1
10
15.2686639
20
-10.0740733
11
15.191167
21
-10.149361
0
LINE
8
layer1
10
15.191167
20
-10.149361
11
15.1160703
21
-10.2488724
0
LINE
8
layer1
10
15.1160703
20
-10.2488724
11
15.0452624
21
-10.3724938
0
LINE
8
layer1
10
15.0452624
20
-10.3724938
11
14.9806336
21
-10.5199997
0
LINE
8
layer1
10
14.9806336
20
-10.5199997
11
14.9240545
21
-10.6910585
0
LINE
8
layer1
10
14.9240545
20
-10.6910585
11
14.8770931
21
-10.8696891
0
LINE
8
layer1
10
14.8770931
20
-10.8696891
11
14.834245
21
-10.9703847
0
LINE
8
layer1
10
14.834245
20
-10.9703847
11
14.7465089
21
-11.1375911
0
LINE
8
layer1
10
14.7465089
20
-11.1375911
11
14.682617
21
-11.2433587
0
LINE
8
layer1
10
14.682617
20
-11.2433587
11
14.6024652
21
-11.3642854
0
LINE
8
layer1
10
14.6024652
20
-11.3642854
11
14.5068847
21
-11.4961931
0
LINE
8
layer1
10
14.5068847
20
-11.4961931
11
14.3927138
21
-11.6406247
0
LINE
8
layer1
10
14.3927138
20
-11.6406247
11
14.2603491
21
-11.7944065
0
LINE
8
layer1
10
14.2603491
20
-11.7944065
11
14.1080977
21
-11.9570285
0
LINE
8
layer1
10
14.1080977
20
-11.9570285
11
13.9353967
21
-12.1267065
0
LINE
8
layer1
10
13.9353967
20
-12.1267065
11
13.73935
21
-12.3038025
0
LINE
8
layer1
10
13.73935
20
-12.3038025
11
13.521885
21
-12.4842648
0
LINE
8
layer1
10
13.521885
20
-12.4842648
11
13.2982799
21
-12.6547601
0
ARC
8
layer1
10
18.0000125
20
0.0000299
40
13.5
50
245.3819324
51
249.6180663
0
LINE
8
layer1
10
12.3763514
20
-12.2728849
11
12.3387972
21
-11.9942137
0
LINE
8
layer1
10
12.3387972
20
-11.9942137
11
12.3126323
21
-11.7128367
0
LINE
8
layer1
10
12.3126323
20
-11.7128367
11
12.2992321
21
-11.4489849
0
LINE
8
layer1
10
12.2992321
20
-11.4489849
11
12.2970946
21
-11.2068865
0
LINE
8
layer1
10
12.2970946
20
-11.2068865
11
12.3044277
21
-10.9842373
0
LINE
8
layer1
10
12.3044277
20
-10.9842373
11
12.3195719
21
-10.7819012
0
LINE
8
layer1
10
12.3195719
20
-10.7819012
11
12.3409694
21
-10.5990416
0
LINE
8
layer1
10
12.3409694
20
-10.5990416
11
12.3666566
21
-10.4381832
0
LINE
8
layer1
10
12.3666566
20
-10.4381832
11
12.3954889
21
-10.2959992
0
LINE
8
layer1
10
12.3954889
20
-10.2959992
11
12.4250995
21
-10.1760318
0
LINE
8
layer1
10
12.4250995
20
-10.1760318
11
12.4812934
21
-9.9957602
0
LINE
8
layer1
10
12.4812934
20
-9.9957602
11
12.5221978
21
-9.8942595
0
LINE
8
layer1
10
12.5221978
20
-9.8942595
11
12.6153019
21
-9.7347419
0
LINE
8
layer1
10
12.6153019
20
-9.7347419
11
12.6962513
21
-9.5737776
0
LINE
8
layer1
10
12.6962513
20
-9.5737776
11
12.7548543
21
-9.4237757
0
LINE
8
layer1
10
12.7548543
20
-9.4237757
11
12.7921991
21
-9.2862935
0
LINE
8
layer1
10
12.7921991
20
-9.2862935
11
12.8094629
21
-9.1628269
0
LINE
8
layer1
10
12.8094629
20
-9.1628269
11
12.8079007
21
-9.0547918
0
LINE
8
layer1
10
12.8079007
20
-9.0547918
11
12.80049
21
-9.0069882
0
LINE
8
layer1
10
12.80049
20
-9.0069882
11
12.7888812
21
-8.9635236
0
LINE
8
layer1
10
12.7888812
20
-8.9635236
11
12.77326
21
-8.9245701
0
LINE
8
layer1
10
12.77326
20
-8.9245701
11
12.7538037
21
-8.8902582
0
LINE
8
layer1
10
12.7538037
20
-8.8902582
11
12.730723
21
-8.8607406
0
LINE
8
layer1
10
12.730723
20
-8.8607406
11
12.682145
21
-8.8210176
0
LINE
8
layer1
10
12.682145
20
-8.8210176
11
12.2776266
21
-8.564137
0
LINE
8
layer1
10
12.2776266
20
-8.564137
11
11.8854974
21
-8.2887146
0
LINE
8
layer1
10
11.8854974
20
-8.2887146
11
11.8302081
21
-8.2590358
0
LINE
8
layer1
10
11.8302081
20
-8.2590358
11
11.7941049
21
-8.2490079
0
LINE
8
layer1
10
11.7941049
20
-8.2490079
11
11.7549592
21
-8.2441632
0
LINE
8
layer1
10
11.7549592
20
-8.2441632
11
11.7129928
21
-8.244638
0
LINE
8
layer1
10
11.7129928
20
-8.244638
11
11.6683942
21
-8.250546
0
LINE
8
layer1
10
11.6683942
20
-8.250546
11
11.6213936
21
-8.261993
0
LINE
8
layer1
10
11.6213936
20
-8.261993
11
11.5209843
21
-8.301893
0
LINE
8
layer1
10
11.5209843
20
-8.301893
11
11.4135227
21
-8.3650913
0
LINE
8
layer1
10
11.4135227
20
-8.3650913
11
11.3007968
21
-8.4522056
0
LINE
8
layer1
10
11.3007968
20
-8.4522056
11
11.1846396
21
-8.5637509
0
LINE
8
layer1
10
11.1846396
20
-8.5637509
11
11.066906
21
-8.7001368
0
LINE
8
layer1
10
11.066906
20
-8.7001368
11
10.9551603
21
-8.8471986
0
LINE
8
layer1
10
10.9551603
20
-8.8471986
11
10.8770393
21
-8.9238319
0
LINE
8
layer1
10
10.8770393
20
-8.9238319
11
10.7319945
21
-9.0447353
0
LINE
8
layer1
10
10.7319945
20
-9.0447353
11
10.6324906
21
-9.1180014
0
LINE
8
layer1
10
10.6324906
20
-9.1180014
11
10.5121634
21
-9.1990504
0
LINE
8
layer1
10
10.5121634
20
-9.1990504
11
10.3733797
21
-9.2843402
0
LINE
8
layer1
10
10.3733797
20
-9.2843402
11
10.2126279
21
-9.3740862
0
LINE
8
layer1
10
10.2126279
20
-9.3740862
11
10.0314891
21
-9.4655083
0
LINE
8
layer1
10
10.0314891
20
-9.4655083
11
9.8285944
21
-9.5574873
0
LINE
8
layer1
10
9.8285944
20
-9.5574873
11
9.6041065
21
-9.6481596
0
LINE
8
layer1
10
9.6041065
20
-9.6481596
11
9.3552113
21
-9.7367512
0
LINE
8
layer1
10
9.3552113
20
-9.7367512
11
9.08524
21
-9.8202563
0
LINE
8
layer1
10
9.08524
20
-9.8202563
11
8.81341
21
-9.8922035
0
ARC
8
layer1
10
18.0000229
20
0.0000229
40
13.5
50
222.8819331
51
227.1180669
0
LINE
8
layer1
10
8.1077965
20
-9.18659
11
8.1797437
21
-8.91476
0
LINE
8
layer1
10
8.1797437
20
-8.91476
11
8.2632488
21
-8.6447887
0
LINE
8
layer1
10
8.2632488
20
-8.6447887
11
8.3518404
21
-8.3958935
0
LINE
8
layer1
10
8.3518404
20
-8.3958935
11
8.4425127
21
-8.1714056
0
LINE
8
layer1
10
8.4425127
20
-8.1714056
11
8.5344917
21
-7.9685109
0
LINE
8
layer1
10
8.5344917
20
-7.9685109
11
8.6259138
21
-7.7873721
0
LINE
8
layer1
10
8.6259138
20
-7.7873721
11
8.7156598
21
-7.6266203
0
LINE
8
layer1
10
8.7156598
20
-7.6266203
11
8.8009496
21
-7.4878366
0
LINE
8
layer1
10
8.8009496
20
-7.4878366
11
8.8819986
21
-7.3675094
0
LINE
8
layer1
10
8.8819986
20
-7.3675094
11
8.9552647
21
-7.2680055
0
LINE
8
layer1
10
8.9552647
20
-7.2680055
11
9.0761681
21
-7.1229607
0
LINE
8
layer1
10
9.0761681
20
-7.1229607
11
9.1528014
21
-7.0448397
0
LINE
8
layer1
10
9.1528014
20
-7.0448397
11
9.2998632
21
-6.933094
0
LINE
8
layer1
10
9.2998632
20
-6.933094
11
9.4362491
21
-6.8153604
0
LINE
8
layer1
10
9.4362491
20
-6.8153604
11
9.5477944
21
-6.6992032
0
LINE
8
layer1
10
9.5477944
20
-6.6992032
11
9.6349087
21
-6.5864773
0
LINE
8
layer1
10
9.6349087
20
-6.5864773
11
9.698107
21
-6.4790157
0
LINE
8
layer1
10
9.698107
20
-6.4790157
11
9.738007
21
-6.3786064
0
LINE
8
layer1
10
9.738007
20
-6.3786064
11
9.749454
21
-6.3316058
0
LINE
8
layer1
10
9.749454
20
-6.3316058
11
9.755362
21
-6.2870072
0
LINE
8
layer1
10
9.755362
20
-6.2870072
11
9.7558368
21
-6.2450408
0
LINE
8
layer1
10
9.7558368
20
-6.2450408
11
9.7509921
21
-6.2058951
0
LINE
8
layer1
10
9.7509921
20
-6.2058951
11
9.7409642
21
-6.1697919
0
LINE
8
layer1
10
9.7409642
20
-6.1697919
11
9.7112854
21
-6.1145026
0
LINE
8
layer1
10
9.7112854
20
-6.1145026
11
9.435863
21
-5.7223734
0
LINE
8
layer1
10
9.435863
20
-5.7223734
11
9.1789824
21
-5.317855
0
LINE
8
layer1
10
9.1789824
20
-5.317855
11
9.1392594
21
-5.269277
0
LINE
8
layer1
10
9.1392594
20
-5.269277
11
9.1097418
21
-5.2461963
0
LINE
8
layer1
10
9.1097418
20
-5.2461963
11
9.0754299
21
-5.22674
0
LINE
8
layer1
10
9.0754299
20
-5.22674
11
9.0364764
21
-5.2111188
0
LINE
8
layer1
10
9.0364764
20
-5.2111188
11
8.9930118
21
-5.19951
0
LINE
8
layer1
10
8.9930118
20
-5.19951
11
8.9452082
21
-5.1920993
0
LINE
8
layer1
10
8.9452082
20
-5.1920993
11
8.8371731
21
-5.1905371
0
LINE
8
layer1
10
8.8371731
20
-5.1905371
11
8.7137065
21
-5.2078009
0
LINE
8
layer1
10
8.7137065
20
-5.2078009
11
8.5762243
21
-5.2451457
0
LINE
8
layer1
10
8.5762243
20
-5.2451457
11
8.4262224
21
-5.3037487
0
LINE
8
layer1
10
8.4262224
20
-5.3037487
11
8.2652581
21
-5.3846981
0
LINE
8
layer1
10
8.2652581
20
-5.3846981
11
8.1057405
21
-5.4778022
0
LINE
8
layer1
10
8.1057405
20
-5.4778022
11
8.0042398
21
-5.5187066
0
LINE
8
layer1
10
8.0042398
20
-5.5187066
11
7.8239682
21
-5.5749005
0
LINE
8
layer1
10
7.8239682
20
-5.5749005
11
7.7040008
21
-5.6045111
0
LINE
8
layer1
10
7.7040008
20
-5.6045111
11
7.5618168
21
-5.6333434
0
LINE
8
layer1
10
7.5618168
20
-5.6333434
11
7.4009584
21
-5.6590306
0
LINE
8
layer1
10
7.4009584
20
-5.6590306
11
7.2180988
21
-5.6804281
0
LINE
8
layer1
10
7.2180988
20
-5.6804281
11
7.0157627
21
-5.6955723
0
LINE
8
layer1
10
7.0157627
20
-5.6955723
11
6.7931135
21
-5.7029054
0
LINE
8
layer1
10
6.7931135
20
-5.7029054
11
6.5510151
21
-5.7007679
0
LINE
8
layer1
10
6.5510151
20
-5.7007679
11
6.2871633
21
-5.6873677
0
LINE
8
layer1
10
6.2871633
20
-5.6873677
11
6.0057863
21
-5.6612028
0
LINE
8
layer1
10
6.0057863
20
-5.6612028
11
5.7271151
21
-5.6236486
0
ARC
8
layer1
10
18.0000298
20
0.0000125
40
13.5
50
200.3819337
51
204.6180676
0
LINE
8
layer1
10
5.3452399
20
-4.7017201
11
5.5157352
21
-4.478115
0
LINE
8
layer1
10
5.5157352
20
-4.478115
11
5.6961975
21
-4.26065
0
LINE
8
layer1
10
5.6961975
20
-4.26065
11
5.8732935
21
-4.0646033
0
LINE
8
layer1
10
5.8732935
20
-4.0646033
11
6.0429715
21
-3.8919023
0
LINE
8
layer1
10
6.0429715
20
-3.8919023
11
6.2055935
21
-3.7396509
0
LINE
8
layer1
10
6.2055935
20
-3.7396509
11
6.3593753
21
-3.6072862
0
LINE
8
layer1
10
6.3593753
20
-3.6072862
11
6.5038069
21
-3.4931153
0
LINE
8
layer1
10
6.5038069
20
-3.4931153
11
6.6357146
21
-3.3975348
0
LINE
8
layer1
10
6.6357146
20
-3.3975348
11
6.7566413
21
-3.317383
0
LINE
8
layer1
10
6.7566413
20
-3.317383
11
6.8624089
21
-3.2534911
0
LINE
8
layer1
10
6.8624089
20
-3.2534911
11
7.0296153
21
-3.165755
0
LINE
8
layer1
10
7.0296153
20
-3.165755
11
7.1303109
21
-3.1229069
0
LINE
8
layer1
10
7.1303109
20
-3.1229069
11
7.3089415
21
-3.0759455
0
LINE
8
layer1
10
7.3089415
20
-3.0759455
11
7.4800003
21
-3.0193664
0
LINE
8
layer1
10
7.4800003
20
-3.0193664
11
7.6275062
21
-2.9547376
0
LINE
8
layer1
10
7.6275062
20
-2.9547376
11
7.7511276
21
-2.8839297
0
LINE
8
layer1
10
7.7511276
20
-2.8839297
11
7.850639
21
-2.808833
0
LINE
8
layer1
10
7.850639
20
-2.808833
11
7.9259267
21
-2.7313361
0
LINE
8
layer1
10
7.9259267
20
-2.7313361
11
7.9544888
21
-2.6922937
0
LINE
8
layer1
10
7.9544888
20
-2.6922937
11
7.9770142
21
-2.6533509
0
LINE
8
layer1
10
7.9770142
20
-2.6533509
11
7.9935127
21
-2.6147607
0
LINE
8
layer1
10
7.9935127
20
-2.6147607
11
8.0040172
21
-2.5767409
0
LINE
8
layer1
10
8.0040172
20
-2.5767409
11
8.0085687
21
-2.5395483
0
LINE
8
layer1
10
8.0085687
20
-2.5395483
11
8.0023073
21
-2.4771101
0
LINE
8
layer1
10
8.0023073
20
-2.4771101
11
7.8979116
21
-2.0094303
0
LINE
8
layer1
10
7.8979116
20
-2.0094303
11
7.8153874
21
-1.5374001
0
LINE
8
layer1
10
7.8153874
20
-1.5374001
11
7.7972781
21
-1.4773186
0
LINE
8
layer1
10
7.7972781
20
-1.4773186
11
7.77884
21
-1.4446989
0
LINE
8
layer1
10
7.77884
20
-1.4446989
11
7.7545855
21
-1.413593
0
LINE
8
layer1
10
7.7545855
20
-1.413593
11
7.7245752
21
-1.384254
0
LINE
8
layer1
10
7.7245752
20
-1.384254
11
7.6888616
21
-1.3568957
0
LINE
8
layer1
10
7.6888616
20
-1.3568957
11
7.6475328
21
-1.3317555
0
LINE
8
layer1
10
7.6475328
20
-1.3317555
11
7.5483193
21
-1.2889689
0
LINE
8
layer1
10
7.5483193
20
-1.2889689
11
7.4276444
21
-1.25767
0
LINE
8
layer1
10
7.4276444
20
-1.25767
11
7.2863361
21
-1.2395599
0
LINE
8
layer1
10
7.2863361
20
-1.2395599
11
7.1253261
21
-1.2362988
0
LINE
8
layer1
10
7.1253261
20
-1.2362988
11
6.9456365
21
-1.2494879
0
LINE
8
layer1
10
6.9456365
20
-1.2494879
11
6.762632
21
-1.2744601
0
LINE
8
layer1
10
6.762632
20
-1.2744601
11
6.6532041
21
-1.2734082
0
LINE
8
layer1
10
6.6532041
20
-1.2734082
11
6.4651504
21
-1.2563377
0
LINE
8
layer1
10
6.4651504
20
-1.2563377
11
6.3429835
21
-1.2377848
0
LINE
8
layer1
10
6.3429835
20
-1.2377848
11
6.200589
21
-1.2100109
0
LINE
8
layer1
10
6.200589
20
-1.2100109
11
6.0421451
21
-1.172185
0
LINE
8
layer1
10
6.0421451
20
-1.172185
11
5.8650164
21
-1.1219763
0
LINE
8
layer1
10
5.8650164
20
-1.1219763
11
5.6722868
21
-1.058537
0
LINE
8
layer1
10
5.6722868
20
-1.058537
11
5.4637796
21
-0.9801078
0
LINE
8
layer1
10
5.4637796
20
-0.9801078
11
5.2409277
21
-0.8854859
0
LINE
8
layer1
10
5.2409277
20
-0.8854859
11
5.0022885
21
-0.7721341
0
LINE
8
layer1
10
5.0022885
20
-0.7721341
11
4.7523429
21
-0.6402825
0
LINE
8
layer1
10
4.7523429
20
-0.6402825
11
4.5092557
21
-0.4989441
0
ARC
8
layer1
10
18.0000324
20
0
40
13.5
50
177.8819331
51
182.1180669
0
LINE
8
layer1
10
4.5092557
20
0.4989441
11
4.7523429
21
0.6402825
0
LINE
8
layer1
10
4.7523429
20
0.6402825
11
5.0022885
21
0.7721341
0
LINE
8
layer1
10
5.0022885
20
0.7721341
11
5.2409277
21
0.8854859
0
LINE
8
layer1
10
5.2409277
20
0.8854859
11
5.4637796
21
0.9801078
0
LINE
8
layer1
10
5.4637796
20
0.9801078
11
5.6722868
21
1.058537
0
LINE
8
layer1
10
5.6722868
20
1.058537
11
5.8650164
21
1.1219763
0
LINE
8
layer1
10
5.8650164
20
1.1219763
11
6.0421451
21
1.172185
0
LINE
8
layer1
10
6.0421451
20
1.172185
11
6.200589
21
1.2100109
0
LINE
8
layer1
10
6.200589
20
1.2100109
11
6.3429835
21
1.2377848
0
LINE
8
layer1
10
6.3429835
20
1.2377848
11
6.4651504
21
1.2563377
0
LINE
8
layer1
10
6.4651504
20
1.2563377
11
6.6532041
21
1.2734082
0
LINE
8
layer1
10
6.6532041
20
1.2734082
11
6.762632
21
1.2744601
0
LINE
8
layer1
10
6.762632
20
1.2744601
11
6.9456365
21
1.2494879
0
LINE
8
layer1
10
6.9456365
20
1.2494879
11
7.1253261
21
1.2362988
0
LINE
8
layer1
10
7.1253261
20
1.2362988
11
7.2863361
21
1.2395599
0
LINE
8
layer1
10
7.2863361
20
1.2395599
11
7.4276444
21
1.25767
0
LINE
8
layer1
10
7.4276444
20
1.25767
11
7.5483193
21
1.2889689
0
LINE
8
layer1
10
7.5483193
20
1.2889689
11
7.6475328
21
1.3317555
0
LINE
8
layer1
10
7.6475328
20
1.3317555
11
7.6888616
21
1.3568957
0
LINE
8
layer1
10
7.6888616
20
1.3568957
11
7.7245752
21
1.384254
0
LINE
8
layer1
10
7.7245752
20
1.384254
11
7.7545855
21
1.413593
0
LINE
8
layer1
10
7.7545855
20
1.413593
11
7.77884
21
1.4446989
0
LINE
8
layer1
10
7.77884
20
1.4446989
11
7.7972781
21
1.4773186
0
LINE
8
layer1
10
7.7972781
20
1.4773186
11
7.8153874
21
1.5374001
0
LINE
8
layer1
10
7.8153874
20
1.5374001
11
7.8979116
21
2.0094303
0
LINE
8
layer1
10
7.8979116
20
2.0094303
11
8.0023073
21
2.4771101
0
LINE
8
layer1
10
8.0023073
20
2.4771101
11
8.0085687
21
2.5395483
0
LINE
8
layer1
10
8.0085687
20
2.5395483
11
8.0040172
21
2.5767409
0
LINE
8
layer1
10
8.0040172
20
2.5767409
11
7.9935127
21
2.6147607
0
LINE
8
layer1
10
7.9935127
20
2.6147607
11
7.9770142
21
2.6533509
0
LINE
8
layer1
10
7.9770142
20
2.6533509
11
7.9544888
21
2.6922937
0
LINE
8
layer1
10
7.9544888
20
2.6922937
11
7.9259267
21
2.7313361
0
LINE
8
layer1
10
7.9259267
20
2.7313361
11
7.850639
21
2.808833
0
LINE
8
layer1
10
7.850639
20
2.808833
11
7.7511276
21
2.8839297
0
LINE
8
layer1
10
7.7511276
20
2.8839297
11
7.6275062
21
2.9547376
0
LINE
8
layer1
10
7.6275062
20
2.9547376
11
7.4800003
21
3.0193664
0
LINE
8
layer1
10
7.4800003
20
3.0193664
11
7.3089415
21
3.0759455
0
LINE
8
layer1
10
7.3089415
20
3.0759455
11
7.1303109
21
3.1229069
0
LINE
8
layer1
10
7.1303109
20
3.1229069
11
7.0296153
21
3.165755
0
LINE
8
layer1
10
7.0296153
20
3.165755
11
6.8624089
21
3.2534911
0
LINE
8
layer1
10
6.8624089
20
3.2534911
11
6.7566413
21
3.317383
0
LINE
8
layer1
10
6.7566413
20
3.317383
11
6.6357146
21
3.3975348
0
LINE
8
layer1
10
6.6357146
20
3.3975348
11
6.5038069
21
3.4931153
0
LINE
8
layer1
10
6.5038069
20
3.4931153
11
6.3593753
21
3.6072862
0
LINE
8
layer1
10
6.3593753
20
3.6072862
11
6.2055935
21
3.7396509
0
LINE
8
layer1
10
6.2055935
20
3.7396509
11
6.0429715
21
3.8919023
0
LINE
8
layer1
10
6.0429715
20
3.8919023
11
5.8732935
21
4.0646033
0
LINE
8
layer1
10
5.8732935
20
4.0646033
11
5.6961975
21
4.26065
0
LINE
8
layer1
10
5.6961975
20
4.26065
11
5.5157352
21
4.478115
0
LINE
8
layer1
10
5.5157352
20
4.478115
11
5.3452399
21
4.7017201
0
ARC
8
layer1
10
18.0000299
20
-0.0000125
40
13.5
50
155.3819324
51
159.6180663
0
LINE
8
layer1
10
5.7271151
20
5.6236486
11
6.0057863
21
5.6612028
0
LINE
8
layer1
10
6.0057863
20
5.6612028
11
6.2871633
21
5.6873677
0
LINE
8
layer1
10
6.2871633
20
5.6873677
11
6.5510151
21
5.7007679
0
LINE
8
layer1
10
6.5510151
20
5.7007679
11
6.7931135
21
5.7029054
0
LINE
8
layer1
10
6.7931135
20
5.7029054
11
7.0157627
21
5.6955723
0
LINE
8
layer1
10
7.0157627
20
5.6955723
11
7.2180988
21
5.6804281
0
LINE
8
layer1
10
7.2180988
20
5.6804281
11
7.4009584
21
5.6590306
0
LINE
8
layer1
10
7.4009584
20
5.6590306
11
7.5618168
21
5.6333434
0
LINE
8
layer1
10
7.5618168
20
5.6333434
11
7.7040008
21
5.6045111
0
LINE
8
layer1
10
7.7040008
20
5.6045111
11
7.8239682
21
5.5749005
0
LINE
8
layer1
10
7.8239682
20
5.5749005
11
8.0042398
21
5.5187066
0
LINE
8
layer1
10
8.0042398
20
5.5187066
11
8.1057405
21
5.4778022
0
LINE
8
layer1
10
8.1057405
20
5.4778022
11
8.2652581
21
5.3846981
0
LINE
8
layer1
10
8.2652581
20
5.3846981
11
8.4262224
21
5.3037487
0
LINE
8
layer1
10
8.4262224
20
5.3037487
11
8.5762243
21
5.2451457
0
LINE
8
layer1
10
8.5762243
20
5.2451457
11
8.7137065
21
5.2078009
0
LINE
8
layer1
10
8.7137065
20
5.2078009
11
8.8371731
21
5.1905371
0
LINE
8
layer1
10
8.8371731
20
5.1905371
11
8.9452082
21
5.1920993
0
LINE
8
layer1
10
8.9452082
20
5.1920993
11
8.9930118
21
5.19951
0
LINE
8
layer1
10
8.9930118
20
5.19951
11
9.0364764
21
5.2111188
0
LINE
8
layer1
10
9.0364764
20
5.2111188
11
9.0754299
21
5.22674
0
LINE
8
layer1
10
9.0754299
20
5.22674
11
9.1097418
21
5.2461963
0
LINE
8
layer1
10
9.1097418
20
5.2461963
11
9.1392594
21
5.269277
0
LINE
8
layer1
10
9.1392594
20
5.269277
11
9.1789824
21
5.317855
0
LINE
8
layer1
10
9.1789824
20
5.317855
11
9.435863
21
5.7223734
0
LINE
8
layer1
10
9.435863
20
5.7223734
11
9.7112854
21
6.1145026
0
LINE
8
layer1
10
9.7112854
20
6.1145026
11
9.7409642
21
6.1697919
0
LINE
8
layer1
10
9.7409642
20
6.1697919
11
9.7509921
21
6.2058951
0
LINE
8
layer1
10
9.7509921
20
6.2058951
11
9.7558368
21
6.2450408
0
LINE
8
layer1
10
9.7558368
20
6.2450408
11
9.755362
21
6.2870072
0
LINE
8
layer1
10
9.755362
20
6.2870072
11
9.749454
21
6.3316058
0
LINE
8
layer1
10
9.749454
20
6.3316058
11
9.738007
21
6.3786064
0
LINE
8
layer1
10
9.738007
20
6.3786064
11
9.698107
21
6.4790157
0
LINE
8
layer1
10
9.698107
20
6.4790157
11
9.6349087
21
6.5864773
0
LINE
8
layer1
10
9.6349087
20
6.5864773
11
9.5477944
21
6.6992032
0
LINE
8
layer1
10
9.5477944
20
6.6992032
11
9.4362491
21
6.8153604
0
LINE
8
layer1
10
9.4362491
20
6.8153604
11
9.2998632
21
6.933094
0
LINE
8
layer1
10
9.2998632
20
6.933094
11
9.1528014
21
7.0448397
0
LINE
8
layer1
10
9.1528014
20
7.0448397
11
9.0761681
21
7.1229607
0
LINE
8
layer1
10
9.0761681
20
7.1229607
11
8.9552647
21
7.2680055
0
LINE
8
layer1
10
8.9552647
20
7.2680055
11
8.8819986
21
7.3675094
0
LINE
8
layer1
10
8.8819986
20
7.3675094
11
8.8009496
21
7.4878366
0
LINE
8
layer1
10
8.8009496
20
7.4878366
11
8.7156598
21
7.6266203
0
LINE
8
layer1
10
8.7156598
20
7.6266203
11
8.6259138
21
7.7873721
0
LINE
8
layer1
10
8.6259138
20
7.7873721
11
8.5344917
21
7.9685109
0
LINE
8
layer1
10
8.5344917
20
7.9685109
11
8.4425127
21
8.1714056
0
LINE
8
layer1
10
8.4425127
20
8.1714056
11
8.3518404
21
8.3958935
0
LINE
8
layer1
10
8.3518404
20
8.3958935
11
8.2632488
21
8.6447887
0
LINE
8
layer1
10
8.2632488
20
8.6447887
11
8.1797437
21
8.91476
0
LINE
8
layer1
10
8.1797437
20
8.91476
11
8.1077965
21
9.18659
0
ARC
8
layer1
10
18.0000229
20
-0.0000229
40
13.5
50
132.8819331
51
137.1180669
0
LINE
8
layer1
10
8.81341
20
9.8922035
11
9.08524
21
9.8202563
0
LINE
8
layer1
10
9.08524
20
9.8202563
11
9.3552113
21
9.7367512
0
LINE
8
layer1
10
9.3552113
20
9.7367512
11
9.6041065
21
9.6481596
0
LINE
8
layer1
10
9.6041065
20
9.6481596
11
9.8285944
21
9.5574873
0
LINE
8
layer1
10
9.8285944
20
9.5574873
11
10.0314891
21
9.4655083
0
LINE
8
layer1
10
10.0314891
20
9.4655083
11
10.2126279
21
9.3740862
0
LINE
8
layer1
10
10.2126279
20
9.3740862
11
10.3733797
21
9.2843402
0
LINE
8
layer1
10
10.3733797
20
9.2843402
11
10.5121634
21
9.1990504
0
LINE
8
layer1
10
10.5121634
20
9.1990504
11
10.6324906
21
9.1180014
0
LINE
8
layer1
10
10.6324906
20
9.1180014
11
10.7319945
21
9.0447353
0
LINE
8
layer1
10
10.7319945
20
9.0447353
11
10.8770393
21
8.9238319
0
LINE
8
layer1
10
10.8770393
20
8.9238319
11
10.9551603
21
8.8471986
0
LINE
8
layer1
10
10.9551603
20
8.8471986
11
11.066906
21
8.7001368
0
LINE
8
layer1
10
11.066906
20
8.7001368
11
11.1846396
21
8.5637509
0
LINE
8
layer1
10
11.1846396
20
8.5637509
11
11.3007968
21
8.4522056
0
LINE
8
layer1
10
11.3007968
20
8.4522056
11
11.4135227
21
8.3650913
0
LINE
8
layer1
10
11.4135227
20
8.3650913
11
11.5209843
21
8.301893
0
LINE
8
layer1
10
11.5209843
20
8.301893
11
11.6213936
21
8.261993
0
LINE
8
layer1
10
11.6213936
20
8.261993
11
11.6683942
21
8.250546
0
LINE
8
layer1
10
11.6683942
20
8.250546
11
11.7129928
21
8.244638
0
LINE
8
layer1
10
11.7129928
20
8.244638
11
11.7549592
21
8.2441632
0
LINE
8
layer1
10
11.7549592
20
8.2441632
11
11.7941049
21
8.2490079
0
LINE
8
layer1
10
11.7941049
20
8.2490079
11
11.8302081
21
8.2590358
0
LINE
8
layer1
10
11.8302081
20
8.2590358
11
11.8854974
21
8.2887146
0
LINE
8
layer1
10
11.8854974
20
8.2887146
11
12.2776266
21
8.564137
0
LINE
8
layer1
10
12.2776266
20
8.564137
11
12.682145
21
8.8210176
0
LINE
8
layer1
10
12.682145
20
8.8210176
11
12.730723
21
8.8607406
0
LINE
8
layer1
10
12.730723
20
8.8607406
11
12.7538037
21
8.8902582
0
LINE
8
layer1
10
12.7538037
20
8.8902582
11
12.77326
21
8.9245701
0
LINE
8
layer1
10
12.77326
20
8.9245701
11
12.7888812
21
8.9635236
0
LINE
8
layer1
10
12.7888812
20
8.9635236
11
12.80049
21
9.0069882
0
LINE
8
layer1
10
12.80049
20
9.0069882
11
12.8079007
21
9.0547918
0
LINE
8
layer1
10
12.8079007
20
9.0547918
11
12.8094629
21
9.1628269
0
LINE
8
layer1
10
12.8094629
20
9.1628269
11
12.7921991
21
9.2862935
0
LINE
8
layer1
10
12.7921991
20
9.2862935
11
12.7548543
21
9.4237757
0
LINE
8
layer1
10
12.7548543
20
9.4237757
11
12.6962513
21
9.5737776
0
LINE
8
layer1
10
12.6962513
20
9.5737776
11
12.6153019
21
9.7347419
0
LINE
8
layer1
10
12.6153019
20
9.7347419
11
12.5221978
21
9.8942595
0
LINE
8
layer1
10
12.5221978
20
9.8942595
11
12.4812934
21
9.9957602
0
LINE
8
layer1
10
12.4812934
20
9.9957602
11
12.4250995
21
10.1760318
0
LINE
8
layer1
10
12.4250995
20
10.1760318
11
12.3954889
21
10.2959992
0
LINE
8
layer1
10
12.3954889
20
10.2959992
11
12.3666566
21
10.4381832
0
LINE
8
layer1
10
12.3666566
20
10.4381832
11
12.3409694
21
10.5990416
0
LINE
8
layer1
10
12.3409694
20
10.5990416
11
12.3195719
21
10.7819012
0
LINE
8
layer1
10
12.3195719
20
10.7819012
11
12.3044277
21
10.9842373
0
LINE
8
layer1
10
12.3044277
20
10.9842373
11
12.2970946
21
11.2068865
0
LINE
8
layer1
10
12.2970946
20
11.2068865
11
12.2992321
21
11.4489849
0
LINE
8
layer1
10
12.2992321
20
11.4489849
11
12.3126323
21
11.7128367
0
LINE
8
layer1
10
12.3126323
20
11.7128367
11
12.3387972
21
11.9942137
0
LINE
8
layer1
10
12.3387972
20
11.9942137
11
12.3763514
21
12.2728849
0
ARC
8
layer1
10
18.0000125
20
-0.0000298
40
13.5
50
110.3819337
51
114.6180676
0
LINE
8
layer1
10
13.2982799
20
12.6547601
11
13.521885
21
12.4842648
0
LINE
8
layer1
10
13.521885
20
12.4842648
11
13.73935
21
12.3038025
0
LINE
8
layer1
10
13.73935
20
12.3038025
11
13.9353967
21
12.1267065
0
LINE
8
layer1
10
13.9353967
20
12.1267065
11
14.1080977
21
11.9570285
0
LINE
8
layer1
10
14.1080977
20
11.9570285
11
14.2603491
21
11.7944065
0
LINE
8
layer1
10
14.2603491
20
11.7944065
11
14.3927138
21
11.6406247
0
LINE
8
layer1
10
14.3927138
20
11.6406247
11
14.5068847
21
11.4961931
0
LINE
8
layer1
10
14.5068847
20
11.4961931
11
14.6024652
21
11.3642854
0
LINE
8
layer1
10
14.6024652
20
11.3642854
11
14.682617
21
11.2433587
0
LINE
8
layer1
10
14.682617
20
11.2433587
11
14.7465089
21
11.1375911
0
LINE
8
layer1
10
14.7465089
20
11.1375911
11
14.834245
21
10.9703847
0
LINE
8
layer1
10
14.834245
20
10.9703847
11
14.8770931
21
10.8696891
0
LINE
8
layer1
10
14.8770931
20
10.8696891
11
14.9240545
21
10.6910585
0
LINE
8
layer1
10
14.9240545
20
10.6910585
11
14.9806336
21
10.5199997
0
LINE
8
layer1
10
14.9806336
20
10.5199997
11
15.0452624
21
10.3724938
0
LINE
8
layer1
10
15.0452624
20
10.3724938
11
15.1160703
21
10.2488724
0
LINE
8
layer1
10
15.1160703
20
10.2488724
11
15.191167
21
10.149361
0
LINE
8
layer1
10
15.191167
20
10.149361
11
15.2686639
21
10.0740733
0
LINE
8
layer1
10
15.2686639
20
10.0740733
11
15.3077063
21
10.0455112
0
LINE
8
layer1
10
15.3077063
20
10.0455112
11
15.3466491
21
10.0229858
0
LINE
8
layer1
10
15.3466491
20
10.0229858
11
15.3852393
21
10.0064873
0
LINE
8
layer1
10
15.3852393
20
10.0064873
11
15.4232591
21
9.9959828
0
LINE
8
layer1
10
15.4232591
20
9.9959828
11
15.4604517
21
9.9914313
0
LINE
8
layer1
10
15.4604517
20
9.9914313
11
15.5228899
21
9.9976927
0
LINE
8
layer1
10
15.5228899
20
9.9976927
11
15.9905697
21
10.1020884
0
LINE
8
layer1
10
15.9905697
20
10.1020884
11
16.4625999
21
10.1846126
0
LINE
8
layer1
10
16.4625999
20
10.1846126
11
16.5226814
21
10.2027219
0
LINE
8
layer1
10
16.5226814
20
10.2027219
11
16.5553011
21
10.22116
0
LINE
8
layer1
10
16.5553011
20
10.22116
11
16.586407
21
10.2454145
0
LINE
8
layer1
10
16.586407
20
10.2454145
11
16.615746
21
10.2754248
0
LINE
8
layer1
10
16.615746
20
10.2754248
11
16.6431043
21
10.3111384
0
LINE
8
layer1
10
16.6431043
20
10.3111384
11
16.6682445
21
10.3524672
0
LINE
8
layer1
10
16.6682445
20
10.3524672
11
16.7110311
21
10.4516807
0
LINE
8
layer1
10
16.7110311
20
10.4516807
11
16.74233
21
10.5723556
0
LINE
8
layer1
10
16.74233
20
10.5723556
11
16.7604401
21
10.7136639
0
LINE
8
layer1
10
16.7604401
20
10.7136639
11
16.7637012
21
10.8746739
0
LINE
8
layer1
10
16.7637012
20
10.8746739
11
16.7505121
21
11.0543635
0
LINE
8
layer1
10
16.7505121
20
11.0543635
11
16.7255399
21
11.237368
0
LINE
8
layer1
10
16.7255399
20
11.237368
11
16.7265918
21
11.3467959
0
LINE
8
layer1
10
16.7265918
20
11.3467959
11
16.7436623
21
11.5348496
0
LINE
8
layer1
10
16.7436623
20
11.5348496
11
16.7622152
21
11.6570165
0
LINE
8
layer1
10
16.7622152
20
11.6570165
11
16.7899891
21
11.799411
0
LINE
8
layer1
10
16.7899891
20
11.799411
11
16.827815
21
11.9578549
0
LINE
8
layer1
10
16.827815
20
11.9578549
11
16.8780237
21
12.1349836
0
LINE
8
layer1
10
16.8780237
20
12.1349836
11
16.941463
21
12.3277132
0
LINE
8
layer1
10
16.941463
20
12.3277132
11
17.0198922
21
12.5362204
0
LINE
8
layer1
10
17.0198922
20
12.5362204
11
17.1145141
21
12.7590723
0
LINE
8
layer1
10
17.1145141
20
12.7590723
11
17.2278659
21
12.9977115
0
LINE
8
layer1
10
17.2278659
20
12.9977115
11
17.3597175
21
13.2476571
0
LINE
8
layer1
10
17.3597175
20
13.2476571
11
17.5010559
21
13.4907443
0
ARC
8
layer1
10
18
20
-0.0000324
40
13.5
50
87.8819331
51
92.1180669
0
LINE
8
layer1
10
18.4989441
20
13.4907443
11
18.6402825
21
13.2476571
0
LINE
8
layer1
10
18.6402825
20
13.2476571
11
18.7721341
21
12.9977115
0
LINE
8
layer1
10
18.7721341
20
12.9977115
11
18.8854859
21
12.7590723
0
LINE
8
layer1
10
18.8854859
20
12.7590723
11
18.9801078
21
12.5362204
0
LINE
8
layer1
10
18.9801078
20
12.5362204
11
19.058537
21
12.3277132
0
LINE
8
layer1
10
19.058537
20
12.3277132
11
19.1219763
21
12.1349836
0
LINE
8
layer1
10
19.1219763
20
12.1349836
11
19.172185
21
11.9578549
0
LINE
8
layer1
10
19.172185
20
11.9578549
11
19.2100109
21
11.799411
0
LINE
8
layer1
10
19.2100109
20
11.799411
11
19.2377848
21
11.6570165
0
LINE
8
layer1
10
19.2377848
20
11.6570165
11
19.2563377
21
11.5348496
0
LINE
8
layer1
10
19.2563377
20
11.5348496
11
19.2734082
21
11.3467959
0
LINE
8
layer1
10
19.2734082
20
11.3467959
11
19.2744601
21
11.237368
0
LINE
8
layer1
10
19.2744601
20
11.237368
11
19.2494879
21
11.0543635
0
LINE
8
layer1
10
19.2494879
20
11.0543635
11
19.2362988
21
10.8746739
0
LINE
8
layer1
10
19.2362988
20
10.8746739
11
19.2395599
21
10.7136639
0
LINE
8
layer1
10
19.2395599
20
10.7136639
11
19.25767
21
10.5723556
0
LINE
8
layer1
10
19.25767
20
10.5723556
11
19.2889689
21
10.4516807
0
LINE
8
layer1
10
19.2889689
20
10.4516807
11
19.3317555
21
10.3524672
0
LINE
8
layer1
10
19.3317555
20
10.3524672
11
19.3568957
21
10.3111384
0
LINE
8
layer1
10
19.3568957
20
10.3111384
11
19.384254
21
10.2754248
0
LINE
8
layer1
10
19.384254
20
10.2754248
11
19.413593
21
10.2454145
0
LINE
8
layer1
10
19.413593
20
10.2454145
11
19.4446989
21
10.22116
0
LINE
8
layer1
10
19.4446989
20
10.22116
11
19.4773186
21
10.2027219
0
LINE
8
layer1
10
19.4773186
20
10.2027219
11
19.5374001
21
10.1846126
0
LINE
8
layer1
10
19.5374001
20
10.1846126
11
20.0094303
21
10.1020884
0
LINE
8
layer1
10
20.0094303
20
10.1020884
11
20.4771101
21
9.9976927
0
LINE
8
layer1
10
20.4771101
20
9.9976927
11
20.5395483
21
9.9914313
0
LINE
8
layer1
10
20.5395483
20
9.9914313
11
20.5767409
21
9.9959828
0
LINE
8
layer1
10
20.5767409
20
9.9959828
11
20.6147607
21
10.0064873
0
LINE
8
layer1
10
20.6147607
20
10.0064873
11
20.6533509
21
10.0229858
0
LINE
8
layer1
10
20.6533509
20
10.0229858
11
20.6922937
21
10.0455112
0
LINE
8
layer1
10
20.6922937
20
10.0455112
11
20.7313361
21
10.0740733
0
LINE
8
layer1
10
20.7313361
20
10.0740733
11
20.808833
21
10.149361
0
LINE
8
layer1
10
20.808833
20
10.149361
11
20.8839297
21
10.2488724
0
LINE
8
layer1
10
20.8839297
20
10.2488724
11
20.9547376
21
10.3724938
0
LINE
8
layer1
10
20.9547376
20
10.3724938
11
21.0193664
21
10.5199997
0
LINE
8
layer1
10
21.0193664
20
10.5199997
11
21.0759455
21
10.6910585
0
LINE
8
layer1
10
21.0759455
20
10.6910585
11
21.1229069
21
10.8696891
0
LINE
8
layer1
10
21.1229069
20
10.8696891
11
21.165755
21
10.9703847
0
LINE
8
layer1
10
21.165755
20
10.9703847
11
21.2534911
21
11.1375911
0
LINE
8
layer1
10
21.2534911
20
11.1375911
11
21.317383
21
11.2433587
0
LINE
8
layer1
10
21.317383
20
11.2433587
11
21.3975348
21
11.3642854
0
LINE
8
layer1
10
21.3975348
20
11.3642854
11
21.4931153
21
11.4961931
0
LINE
8
layer1
10
21.4931153
20
11.4961931
11
21.6072862
21
11.6406247
0
LINE
8
layer1
10
21.6072862
20
11.6406247
11
21.7396509
21
11.7944065
0
LINE
8
layer1
10
21.7396509
20
11.7944065
11
21.8919023
21
11.9570285
0
LINE
8
layer1
10
21.8919023
20
11.9570285
11
22.0646033
21
12.1267065
0
LINE
8
layer1
10
22.0646033
20
12.1267065
11
22.26065
21
12.3038025
0
LINE
8
layer1
10
22.26065
20
12.3038025
11
22.478115
21
12.4842648
0
LINE
8
layer1
10
22.478115
20
12.4842648
11
22.7017201
21
12.6547601
0
ARC
8
layer1
10
17.9999875
20
-0.0000299
40
13.5
50
65.3819324
51
69.6180663
0
LINE
8
layer1
10
23.6236486
20
12.2728849
11
23.6612028
21
11.9942137
0
LINE
8
layer1
10
23.6612028
20
11.9942137
11
23.6873677
21
11.7128367
0
LINE
8
layer1
10
23.6873677
20
11.7128367
11
23.7007679
21
11.4489849
0
LINE
8
layer1
10
23.7007679
20
11.4489849
11
23.7029054
21
11.2068865
0
LINE
8
layer1
10
23.7029054
20
11.2068865
11
23.6955723
21
10.9842373
0
LINE
8
layer1
10
23.6955723
20
10.9842373
11
23.6804281
21
10.7819012
0
LINE
8
layer1
10
23.6804281
20
10.7819012
11
23.6590306
21
10.5990416
0
LINE
8
layer1
10
23.6590306
20
10.5990416
11
23.6333434
21
10.4381832
0
LINE
8
layer1
10
23.6333434
20
10.4381832
11
23.6045111
21
10.2959992
0
LINE
8
layer1
10
23.6045111
20
10.2959992
11
23.5749005
21
10.1760318
0
LINE
8
layer1
10
23.5749005
20
10.1760318
11
23.5187066
21
9.9957602
0
LINE
8
layer1
10
23.5187066
20
9.9957602
11
23.4778022
21
9.8942595
0
LINE
8
layer1
10
23.4778022
20
9.8942595
11
23.3846981
21
9.7347419
0
LINE
8
layer1
10
23.3846981
20
9.7347419
11
23.3037487
21
9.5737776
0
LINE
8
layer1
10
23.3037487
20
9.5737776
11
23.2451457
21
9.4237757
0
LINE
8
layer1
10
23.2451457
20
9.4237757
11
23.2078009
21
9.2862935
0
LINE
8
layer1
10
23.2078009
20
9.2862935
11
23.1905371
21
9.1628269
0
LINE
8
layer1
10
23.1905371
20
9.1628269
11
23.1920993
21
9.0547918
0
LINE
8
layer1
10
23.1920993
20
9.0547918
11
23.19951
21
9.0069882
0
LINE
8
layer1
10
23.19951
20
9.0069882
11
23.2111188
21
8.9635236
0
LINE
8
layer1
10
23.2111188
20
8.9635236
11
23.22674
21
8.9245701
0
LINE
8
layer1
10
23.22674
20
8.9245701
11
23.2461963
21
8.8902582
0
LINE
8
layer1
10
23.2461963
20
8.8902582
11
23.269277
21
8.8607406
0
LINE
8
layer1
10
23.269277
20
8.8607406
11
23.317855
21
8.8210176
0
LINE
8
layer1
10
23.317855
20
8.8210176
11
23.7223734
21
8.564137
0
LINE
8
layer1
10
23.7223734
20
8.564137
11
24.1145026
21
8.2887146
0
LINE
8
layer1
10
24.1145026
20
8.2887146
11
24.1697919
21
8.2590358
0
LINE
8
layer1
10
24.1697919
20
8.2590358
11
24.2058951
21
8.2490079
0
LINE
8
layer1
10
24.2058951
20
8.2490079
11
24.2450408
21
8.2441632
0
LINE
8
layer1
10
24.2450408
20
8.2441632
11
24.2870072
21
8.244638
0
LINE
8
layer1
10
24.2870072
20
8.244638
11
24.3316058
21
8.250546
0
LINE
8
layer1
10
24.3316058
20
8.250546
11
24.3786064
21
8.261993
0
LINE
8
layer1
10
24.3786064
20
8.261993
11
24.4790157
21
8.301893
0
LINE
8
layer1
10
24.4790157
20
8.301893
11
24.5864773
21
8.3650913
0
LINE
8
layer1
10
24.5864773
20
8.3650913
11
24.6992032
21
8.4522056
0
LINE
8
layer1
10
24.6992032
20
8.4522056
11
24.8153604
21
8.5637509
0
LINE
8
layer1
10
24.8153604
20
8.5637509
11
24.933094
21
8.7001368
0
LINE
8
layer1
10
24.933094
20
8.7001368
11
25.0448397
21
8.8471986
0
LINE
8
layer1
10
25.0448397
20
8.8471986
11
25.1229607
21
8.9238319
0
LINE
8
layer1
10
25.1229607
20
8.9238319
11
25.2680055
21
9.0447353
0
LINE
8
layer1
10
25.2680055
20
9.0447353
11
25.3675094
21
9.1180014
0
LINE
8
layer1
10
25.3675094
20
9.1180014
11
25.4878366
21
9.1990504
0
LINE
8
layer1
10
25.4878366
20
9.1990504
11
25.6266203
21
9.2843402
0
LINE
8
layer1
10
25.6266203
20
9.2843402
11
25.7873721
21
9.3740862
0
LINE
8
layer1
10
25.7873721
20
9.3740862
11
25.9685109
21
9.4655083
0
LINE
8
layer1
10
25.9685109
20
9.4655083
11
26.1714056
21
9.5574873
0
LINE
8
layer1
10
26.1714056
20
9.5574873
11
26.3958935
21
9.6481596
0
LINE
8
layer1
10
26.3958935
20
9.6481596
11
26.6447887
21
9.7367512
0
LINE
8
layer1
10
26.6447887
20
9.7367512
11
26.91476
21
9.8202563
0
LINE
8
layer1
10
26.91476
20
9.8202563
11
27.18659
21
9.8922035
0
ARC
8
layer1
10
17.9999771
20
-0.0000229
40
13.5
50
42.8819331
51
47.1180669
0
LINE
8
layer1
10
27.8922035
20
9.18659
11
27.8202563
21
8.91476
0
LINE
8
layer1
10
27.8202563
20
8.91476
11
27.7367512
21
8.6447887
0
LINE
8
layer1
10
27.7367512
20
8.6447887
11
27.6481596
21
8.3958935
0
LINE
8
layer1
10
27.6481596
20
8.3958935
11
27.5574873
21
8.1714056
0
LINE
8
layer1
10
27.5574873
20
8.1714056
11
27.4655083
21
7.9685109
0
LINE
8
layer1
10
27.4655083
20
7.9685109
11
27.3740862
21
7.7873721
0
LINE
8
layer1
10
27.3740862
20
7.7873721
11
27.2843402
21
7.6266203
0
LINE
8
layer1
10
27.2843402
20
7.6266203
11
27.1990504
21
7.4878366
0
LINE
8
layer1
10
27.1990504
20
7.4878366
11
27.1180014
21
7.3675094
0
LINE
8
layer1
10
27.1180014
20
7.3675094
11
27.0447353
21
7.2680055
0
LINE
8
layer1
10
27.0447353
20
7.2680055
11
26.9238319
21
7.1229607
0
LINE
8
layer1
10
26.9238319
20
7.1229607
11
26.8471986
21
7.0448397
0
LINE
8
layer1
10
26.8471986
20
7.0448397
11
26.7001368
21
6.933094
0
LINE
8
layer1
10
26.7001368
20
6.933094
11
26.5637509
21
6.8153604
0
LINE
8
layer1
10
26.5637509
20
6.8153604
11
26.4522056
21
6.6992032
0
LINE
8
layer1
10
26.4522056
20
6.6992032
11
26.3650913
21
6.5864773
0
LINE
8
layer1
10
26.3650913
20
6.5864773
11
26.301893
21
6.4790157
0
LINE
8
layer1
10
26.301893
20
6.4790157
11
26.261993
21
6.3786064
0
LINE
8
layer1
10
26.261993
20
6.3786064
11
26.250546
21
6.3316058
0
LINE
8
layer1
10
26.250546
20
6.3316058
11
26.244638
21
6.2870072
0
LINE
8
layer1
10
26.244638
20
6.2870072
11
26.2441632
21
6.2450408
0
LINE
8
layer1
10
26.2441632
20
6.2450408
11
26.2490079
21
6.2058951
0
LINE
8
layer1
10
26.2490079
20
6.2058951
11
26.2590358
21
6.1697919
0
LINE
8
layer1
10
26.2590358
20
6.1697919
11
26.2887146
21
6.1145026
0
LINE
8
layer1
10
26.2887146
20
6.1145026
11
26.564137
21
5.7223734
0
LINE
8
layer1
10
26.564137
20
5.7223734
11
26.8210176
21
5.317855
0
LINE
8
layer1
10
26.8210176
20
5.317855
11
26.8607406
21
5.269277
0
LINE
8
layer1
10
26.8607406
20
5.269277
11
26.8902582
21
5.2461963
0
LINE
8
layer1
10
26.8902582
20
5.2461963
11
26.9245701
21
5.22674
0
LINE
8
layer1
10
26.9245701
20
5.22674
11
26.9635236
21
5.2111188
0
LINE
8
layer1
10
26.9635236
20
5.2111188
11
27.0069882
21
5.19951
0
LINE
8
layer1
10
27.0069882
20
5.19951
11
27.0547918
21
5.1920993
0
LINE
8
layer1
10
27.0547918
20
5.1920993
11
27.1628269
21
5.1905371
0
LINE
8
layer1
10
27.1628269
20
5.1905371
11
27.2862935
21
5.2078009
0
LINE
8
layer1
10
27.2862935
20
5.2078009
11
27.4237757
21
5.2451457
0
LINE
8
layer1
10
27.4237757
20
5.2451457
11
27.5737776
21
5.3037487
0
LINE
8
layer1
10
27.5737776
20
5.3037487
11
27.7347419
21
5.3846981
0
LINE
8
layer1
10
27.7347419
20
5.3846981
11
27.8942595
21
5.4778022
0
LINE
8
layer1
10
27.8942595
20
5.4778022
11
27.9957602
21
5.5187066
0
LINE
8
layer1
10
27.9957602
20
5.5187066
11
28.1760318
21
5.5749005
0
LINE
8
layer1
10
28.1760318
20
5.5749005
11
28.2959992
21
5.6045111
0
LINE
8
layer1
10
28.2959992
20
5.6045111
11
28.4381832
21
5.6333434
0
LINE
8
layer1
10
28.4381832
20
5.6333434
11
28.5990416
21
5.6590306
0
LINE
8
layer1
10
28.5990416
20
5.6590306
11
28.7819012
21
5.6804281
0
LINE
8
layer1
10
28.7819012
20
5.6804281
11
28.9842373
21
5.6955723
0
LINE
8
layer1
10
28.9842373
20
5.6955723
11
29.2068865
21
5.7029054
0
LINE
8
layer1
10
29.2068865
20
5.7029054
11
29.4489849
21
5.7007679
0
LINE
8
layer1
10
29.4489849
20
5.7007679
11
29.7128367
21
5.6873677
0
LINE
8
layer1
10
29.7128367
20
5.6873677
11
29.9942137
21
5.6612028
0
LINE
8
layer1
10
29.9942137
20
5.6612028
11
30.2728849
21
5.6236486
0
ARC
8
layer1
10
17.9999702
20
-0.0000125
40
13.5
50
20.3819337
51
24.6180676
0
LINE
8
layer1
10
30.6547601
20
4.7017201
11
30.4842648
21
4.478115
0
ENDSEC
0
EOF