0
SECTION
2
HEADER
9
$INSUNITS
70
4
9
$ACADVER
1
AC1014
9
$HANDSEED
5
FFFF
0
ENDSEC
0
SECTION
2
TABLES
0
TABLE
2
VPORT
5
8
100
AcDbSymbolTable
0
ENDTAB
0
TABLE
2
LTYPE
5
5
100
AcDbSymbolTable
0
LTYPE
5
14
100
AcDbSymbolTableRecord
100
AcDbLinetypeTableRecord
2
BYBLOCK
70
0
0
LTYPE
5
15
100
AcDbSymbolTableRecord
100
AcDbLinetypeTableRecord
2
BYLAYER
70
0
0
ENDTAB
0
TABLE
2
LAYER
5
2
100
AcDbSymbolTable
70
2
0
LAYER
5
50
100
AcDbSymbolTableRecord
100
AcDbLayerTableRecord
2
0
70
0
6
CONTINUOUS
0
ENDTAB
0
TABLE
2
STYLE
5
3
100
AcDbSymbolTable
70
1
0
STYLE
5
11
100
AcDbSymbolTableRecord
100
AcDbTextStyleTableRecord
2
STANDARD
70
0
0
ENDTAB
0
TABLE
2
VIEW
5
6
100
AcDbSymbolTable
70
0
0
ENDTAB
0
TABLE
2
UCS
5
7
100
AcDbSymbolTable
70
0
0
ENDTAB
0
TABLE
2
APPID
5
9
100
AcDbSymbolTable
70
2
0
APPID
5
12
100
AcDbSymbolTableRecord
100
AcDbRegAppTableRecord
2
ACAD
70
0
0
ENDTAB
0
TABLE
2
DIMSTYLE
5
A
100
AcDbSymbolTable
70
1
0
ENDTAB
0
TABLE
2
BLOCK_RECORD
5
1
100
AcDbSymbolTable
70
1
0
BLOCK_RECORD
5
1F
100
AcDbSymbolTableRecord
100
AcDbBlockTableRecord
2
*MODEL_SPACE
0
BLOCK_RECORD
5
1B
100
AcDbSymbolTableRecord
100
AcDbBlockTableRecord
2
*PAPER_SPACE
0
ENDTAB
0
ENDSEC
0
SECTION
2
BLOCKS
0
BLOCK
5
20
100
AcDbEntity
100
AcDbBlockBegin
2
*MODEL_SPACE
0
ENDBLK
5
21
100
AcDbEntity
100
AcDbBlockEnd
0
BLOCK
5
1C
100
AcDbEntity
100
AcDbBlockBegin
2
*PAPER_SPACE
0
ENDBLK
5
1D
100
AcDbEntity
100
AcDbBlockEnd
0
ENDSEC
0
SECTION
2
ENTITIES
0
CIRCLE
5
100
100
AcDbEntity
8
0
100
AcDbCircle
10
31.430896423742038
20
31.430896423742034
30
0
40
2.1589999999999998
210
0
220
-0
230
1
0
CIRCLE
5
101
100
AcDbEntity
8
0
100
AcDbCircle
10
31.430896423742048
20
-31.430896423742034
30
0
40
2.1589999999999998
210
0
220
-0
230
1
0
LWPOLYLINE
5
102
100
AcDbEntity
8
0
100
AcDbPolyline
90
21
70
1
43
0.0
10
40.465500000000006
20
-25.929475198372764
10
40.465499999999992
20
25.929475198372764
42
0.1988641833073308
10
39.294451473337205
20
28.757377877303437
10
30.416273906931988
20
37.638848125257141
10
26.052286314429175
20
39.980599681577182
42
0.12375186668928555
10
24.123126321187613
20
40.465499999999999
10
0
20
40.465500000000006
10
2.2204460492503131e-15
20
39.6875
42
-0.10973129179345324
10
16.803006297275715
20
35.954925053790767
42
-3.0864260231405032
10
19.103903066498894
20
34.787045633048777
42
-0.14255128062809116
10
34.787045633048713
20
19.103903066498855
42
-3.0864260231405267
10
35.954925053790859
20
16.803006297275779
42
-0.22213732948575893
10
35.954925053790767
20
-16.803006297275719
42
-3.0864260231405125
10
34.787045633048777
20
-19.103903066498894
42
-0.14255128062809061
10
19.103903066498866
20
-34.787045633048713
42
-3.0864260231405196
10
16.803006297275768
20
-35.954925053790781
42
-0.10973129179345267
10
3.1086244689504377e-14
20
-39.6875
10
1.8318679906315075e-15
20
-40.465500000000006
10
25.933381283006305
20
-40.465500000000006
42
0.19896055234047677
10
28.762332756343511
20
-39.293402678930661
10
39.294451473337219
20
-28.757377877303441
42
0.19886418330733444
0
LWPOLYLINE
5
103
100
AcDbEntity
8
0
100
AcDbPolyline
90
8
70
1
43
0.0
10
29.244527962169649
20
-33.7331600815887
10
25.739407945320668
20
-30.405744274303888
42
-0.36732260844455006
10
-25.834695417153203
20
-30.324823477687765
10
-29.185832426928823
20
-33.675960487463385
42
-0.9999999925494194
10
-33.675960454009342
20
-29.185832393474762
10
-30.324823477687776
20
-25.834695417153188
42
-2.1699996764410243
10
30.245360978821985
20
-25.92767913853363
10
33.616830434385882
20
-29.128220263030215
42
-1.0000943489903711
0
CIRCLE
5
104
100
AcDbEntity
8
0
100
AcDbCircle
10
31.430896423742038
20
31.430896423742034
30
-2.55351295663786e-14
40
2.1590000000000016
210
0
220
2.4492935982947064e-16
230
1
0
CIRCLE
5
105
100
AcDbEntity
8
0
100
AcDbCircle
10
38.713158097473404
20
-26.331801904583465
30
1.654739198732491e-14
40
2.1930814310010298
210
0
220
-1.2246467991473532e-16
230
-1
0
CIRCLE
5
106
100
AcDbEntity
8
0
100
AcDbCircle
10
-31.430896423742041
20
31.430896423746987
30
0
40
2.1589999999999998
210
0
220
-0
230
1
0
CIRCLE
5
107
100
AcDbEntity
8
0
100
AcDbCircle
10
-31.430896423742041
20
31.430896423746987
30
0
40
2.1590000000000003
210
0
220
0
230
1
0
ENDSEC
0
SECTION
2
OBJECTS
0
DICTIONARY
5
C
100
AcDbDictionary
3
ACAD_GROUP
350
D
3
ACAD_MLINESTYLE
350
17
0
DICTIONARY
5
D
100
AcDbDictionary
0
DICTIONARY
5
1A
330
C
100
AcDbDictionary
0
DICTIONARY
5
17
100
AcDbDictionary
0
ENDSEC
0
EOF
