0
SECTION
2
HEADER
9
$INSUNITS
70
4
9
$ACADVER
1
AC1014
9
$HANDSEED
5
FFFF
0
ENDSEC
0
SECTION
2
TABLES
0
TABLE
2
VPORT
5
8
100
AcDbSymbolTable
0
ENDTAB
0
TABLE
2
LTYPE
5
5
100
AcDbSymbolTable
0
LTYPE
5
14
100
AcDbSymbolTableRecord
100
AcDbLinetypeTableRecord
2
BYBLOCK
70
0
0
LTYPE
5
15
100
AcDbSymbolTableRecord
100
AcDbLinetypeTableRecord
2
BYLAYER
70
0
0
ENDTAB
0
TABLE
2
LAYER
5
2
100
AcDbSymbolTable
70
2
0
LAYER
5
50
100
AcDbSymbolTableRecord
100
AcDbLayerTableRecord
2
0
70
0
6
CONTINUOUS
0
ENDTAB
0
TABLE
2
STYLE
5
3
100
AcDbSymbolTable
70
1
0
STYLE
5
11
100
AcDbSymbolTableRecord
100
AcDbTextStyleTableRecord
2
STANDARD
70
0
0
ENDTAB
0
TABLE
2
VIEW
5
6
100
AcDbSymbolTable
70
0
0
ENDTAB
0
TABLE
2
UCS
5
7
100
AcDbSymbolTable
70
0
0
ENDTAB
0
TABLE
2
APPID
5
9
100
AcDbSymbolTable
70
2
0
APPID
5
12
100
AcDbSymbolTableRecord
100
AcDbRegAppTableRecord
2
ACAD
70
0
0
ENDTAB
0
TABLE
2
DIMSTYLE
5
A
100
AcDbSymbolTable
70
1
0
ENDTAB
0
TABLE
2
BLOCK_RECORD
5
1
100
AcDbSymbolTable
70
1
0
BLOCK_RECORD
5
1F
100
AcDbSymbolTableRecord
100
AcDbBlockTableRecord
2
*MODEL_SPACE
0
BLOCK_RECORD
5
1B
100
AcDbSymbolTableRecord
100
AcDbBlockTableRecord
2
*PAPER_SPACE
0
ENDTAB
0
ENDSEC
0
SECTION
2
BLOCKS
0
BLOCK
5
20
100
AcDbEntity
100
AcDbBlockBegin
2
*MODEL_SPACE
0
ENDBLK
5
21
100
AcDbEntity
100
AcDbBlockEnd
0
BLOCK
5
1C
100
AcDbEntity
100
AcDbBlockBegin
2
*PAPER_SPACE
0
ENDBLK
5
1D
100
AcDbEntity
100
AcDbBlockEnd
0
ENDSEC
0
SECTION
2
ENTITIES
0
LWPOLYLINE
5
100
100
AcDbEntity
8
0
100
AcDbPolyline
90
6
70
1
43
0.0
10
-0.49980229637133555
20
-4.6846503595968878
10
-0.49996045847378073
20
-2.1846503645999342
10
-1.3231204963349452
20
-1.3614903267387684
42
0.41421356237309415
10
-1.6766738869282192
20
-1.3614903267387681
10
-2.4999604544713412
20
-2.1847768942818906
10
-2.4998022923688961
20
-4.6847768892788446
0
LWPOLYLINE
5
101
100
AcDbEntity
8
0
100
AcDbPolyline
90
6
70
1
43
0.0
10
0.5003950396893625
20
-4.6845870822713493
10
2.5003950356869238
20
-4.6844605525893952
10
2.5002368735844822
20
-2.1844605575924407
10
1.6768461424443286
20
-1.3612781668269702
42
0.41421356237309503
10
1.3232927546812063
20
-1.3613229018249466
10
0.50023687758691981
20
-2.1845870872743953
0
LWPOLYLINE
5
102
100
AcDbEntity
8
0
100
AcDbPolyline
90
12
70
1
43
0.0
10
4.4749743243993585
20
2.6015560196316772
10
3.8245837888063257
20
2.6015560196316772
10
3.8245837888063257
20
1.1931086944020302
10
2.5501698753179367
20
1.1931086944020304
10
2.5501698753179363
20
2.601556019631678
10
1.8997791907132915
20
2.601556019631678
10
1.899779190713291
20
-0.61963544622297195
10
2.5501698753179363
20
-0.6196354462229724
10
2.5501698753179363
20
0.64818678959970721
10
3.8245837888063239
20
0.64818678959970721
10
3.8245837888063243
20
-0.6196354462229724
10
4.4749743243993576
20
-0.6196354462229724
0
LINE
5
103
100
AcDbEntity
8
0
100
AcDbLine
10
0.57922249048364582
20
-0.074713690432260504
30
0
11
0.28698628156793532
21
-0.074713690432260504
31
-4.0555920970923637e-17
0
SPLINE
5
104
100
AcDbEntity
8
0
100
AcDbSpline
70
0
71
3
72
9
73
5
74
0
42
0.000000001
43
0.0000000001
44
0.0000000001
40
-0.053534024564824964
40
-0.053534024564824964
40
-0.053534024564824964
40
-0.053534024564824964
40
-0.020291485021852487
40
0
40
0
40
0
40
0
10
0.28698628156793532
20
-0.074713690432260504
30
0
10
0.17599358092006859
20
-0.075265955771958826
30
0
10
-0.00274986180993476
20
-0.076155327843653434
30
0
10
-0.17982917432628312
20
-0.052803344517169191
30
0
10
-0.24694914609777524
20
-0.043952031286905238
30
0
0
SPLINE
5
105
100
AcDbEntity
8
0
100
AcDbSpline
70
0
71
3
72
9
73
5
74
0
42
0.000000001
43
0.0000000001
44
0.0000000001
40
-0.034027507419730277
40
-0.034027507419730277
40
-0.034027507419730277
40
-0.034027507419730277
40
-0.016412160023268951
40
0
40
0
40
0
40
0
10
-0.24694914609777524
20
-0.043952031286905238
30
0
10
-0.30432779491056666
20
-0.028448184290880738
30
0
10
-0.4151659381653256
20
0.0015005448949864688
30
0
10
-0.50476108932923047
20
0.073117209810390327
30
0
10
-0.54797465593206485
20
0.10765938624506216
30
0
0
SPLINE
5
106
100
AcDbEntity
8
0
100
AcDbSpline
70
0
71
3
72
9
73
5
74
0
42
0.000000001
43
0.0000000001
44
0.0000000001
40
-0.03653189866735429
40
-0.03653189866735429
40
-0.03653189866735429
40
-0.03653189866735429
40
-0.019476496787720399
40
0
40
0
40
0
40
0
10
-0.54797465593206485
20
0.10765938624506216
30
0
10
-0.58594787456814523
20
0.15063923225396592
30
0
10
-0.6672847897037022
20
0.2427001165542465
30
0
10
-0.70985138935060155
20
0.35813085723505889
30
0
10
-0.73254520685064395
20
0.41967122420435216
30
0
0
SPLINE
5
107
100
AcDbEntity
8
0
100
AcDbSpline
70
0
71
3
72
9
73
5
74
0
42
0.000000001
43
0.0000000001
44
0.0000000001
40
-0.057886847574111437
40
-0.057886847574111437
40
-0.057886847574111437
40
-0.057886847574111437
40
-0.03305501465372248
40
0
40
0
40
0
40
0
10
-0.73254520685064395
20
0.41967122420435216
30
0
10
-0.75167421775926346
20
0.50045359699115766
30
0
10
-0.7962669041816034
20
0.68876981654598934
30
0
10
-0.79766488774770716
20
0.8825204266345541
30
0
10
-0.79846317560064384
20
0.99315746292238594
30
0
0
SPLINE
5
108
100
AcDbEntity
8
0
100
AcDbSpline
70
0
71
3
72
9
73
5
74
0
42
0.000000001
43
0.0000000001
44
0.0000000001
40
-0.059510724655372438
40
-0.059510724655372438
40
-0.059510724655372438
40
-0.059510724655372438
40
-0.026044228708848944
40
0
40
0
40
0
40
0
10
-0.79846317560064384
20
0.99315746292238594
30
0
10
-0.79737969859106916
20
1.1051093874600804
30
0
10
-0.79545304029704778
20
1.3041843120188858
30
0
10
-0.75169530789600925
20
1.4982100604537607
30
0
10
-0.73254520685064384
20
1.5831233428395317
30
0
0
SPLINE
5
109
100
AcDbEntity
8
0
100
AcDbSpline
70
0
71
3
72
9
73
5
74
0
42
0.000000001
43
0.0000000001
44
0.0000000001
40
-0.035753065292430927
40
-0.035753065292430927
40
-0.035753065292430927
40
-0.035753065292430927
40
-0.015683176105048449
40
0
40
0
40
0
40
0
10
-0.73254520685064384
20
1.5831233428395317
30
0
10
-0.71164664554280777
20
1.6475389766112905
30
0
10
-0.67441736041916767
20
1.7622907990350478
30
0
10
-0.5964553581942138
20
1.8538664632580493
30
0
10
-0.56225712091314373
20
1.8940363691723874
30
0
0
SPLINE
5
110
100
AcDbEntity
8
0
100
AcDbSpline
70
0
71
3
72
9
73
5
74
0
42
0.000000001
43
0.0000000001
44
0.0000000001
40
-0.029708360310096868
40
-0.029708360310096868
40
-0.029708360310096868
40
-0.029708360310096868
40
-0.015424100090188545
40
0
40
0
40
0
40
0
10
-0.56225712091314373
20
1.8940363691723874
30
0
10
-0.52428086069806024
20
1.9234695061552212
30
0
10
-0.44529795193479926
20
1.9846844535925237
30
0
10
-0.34944767352623229
20
2.013242668631217
30
0
10
-0.29968375951635412
20
2.0280696319020324
30
0
0
SPLINE
5
111
100
AcDbEntity
8
0
100
AcDbSpline
70
0
71
3
72
9
73
5
74
0
42
0.000000001
43
0.0000000001
44
0.0000000001
40
-0.039510451189812071
40
-0.039510451189812071
40
-0.039510451189812071
40
-0.039510451189812071
40
-0.023468462275767047
40
0
40
0
40
0
40
0
10
-0.29968375951635412
20
2.0280696319020324
30
0
10
-0.24687338039600587
20
2.0369655119261081
30
0
10
-0.11680460165977602
20
2.0588755279076034
30
0
10
0.015211784256225189
20
2.0588477754709515
30
0
10
0.093627025777225634
20
2.0588312910473876
30
0
0
LINE
5
112
100
AcDbEntity
8
0
100
AcDbLine
10
0.093627025777225634
20
2.0588312910473876
30
0
11
0.57922249048364638
21
2.0588312910473876
31
6.7389908196327571e-17
0
LINE
5
113
100
AcDbEntity
8
0
100
AcDbLine
10
0.57922249048364638
20
2.0588312910473876
30
6.7389908196327571e-17
11
0.57922249048364582
21
-0.074713690432260504
31
0
0
LINE
5
114
100
AcDbEntity
8
0
100
AcDbLine
10
1.2296131750882906
20
-0.61963544622297195
30
0
11
1.2296131750882915
21
2.601556019631678
31
-8.3209121973265209e-17
0
LINE
5
115
100
AcDbEntity
8
0
100
AcDbLine
10
1.2296131750882915
20
2.601556019631678
30
-8.3209121973265209e-17
11
0.0057364007772256476
21
2.601556019631678
31
-1.6984702176801388e-16
0
SPLINE
5
116
100
AcDbEntity
8
0
100
AcDbSpline
70
0
71
3
72
9
73
5
74
0
42
0.000000001
43
0.0000000001
44
0.0000000001
40
-0.058126512193009447
40
-0.058126512193009447
40
-0.058126512193009447
40
-0.058126512193009447
40
-0.02567213867007791
40
0
40
0
40
0
40
0
10
0.0057364007772256866
20
2.601556019631678
30
0
10
-0.10285823499866757
20
2.6003050053767254
30
0
10
-0.29735366767318172
20
2.5980644107372139
30
0
10
-0.48643687650873169
20
2.5532385169982064
30
0
10
-0.56994731218206462
20
2.5334407256520333
30
0
0
SPLINE
5
117
100
AcDbEntity
8
0
100
AcDbSpline
70
0
71
3
72
9
73
5
74
0
42
0.000000001
43
0.0000000001
44
0.0000000001
40
-0.052788789497157491
40
-0.052788789497157491
40
-0.052788789497157491
40
-0.052788789497157491
40
-0.024709062018167586
40
0
40
0
40
0
40
0
10
-0.56994731218206462
20
2.5334407256520333
30
0
10
-0.65886155261644141
20
2.5016246306668548
30
0
10
-0.82601684730731306
20
2.4418116163827666
30
0
10
-0.9629047630774562
20
2.329112199700059
30
0
10
-1.0269784429727751
20
2.2763605283177433
30
0
0
SPLINE
5
118
100
AcDbEntity
8
0
100
AcDbSpline
70
0
71
3
72
9
73
5
74
0
42
0.000000001
43
0.0000000001
44
0.0000000001
40
-0.067015513548460678
40
-0.067015513548460678
40
-0.067015513548460678
40
-0.067015513548460678
40
-0.03502425251372427
40
0
40
0
40
0
40
0
10
-1.0269784429727751
20
2.2763605283177433
30
0
10
-1.0981983690686619
20
2.1958220139186446
30
0
10
-1.2473903598756779
20
2.0271093802708147
30
0
10
-1.3291955162049414
20
1.8170512610921818
30
0
10
-1.3719492653070646
20
1.7072687910473872
30
0
0
SPLINE
5
119
100
AcDbEntity
8
0
100
AcDbSpline
70
0
71
3
72
9
73
5
74
0
42
0.000000001
43
0.0000000001
44
0.0000000001
40
-0.069497438918705717
40
-0.069497438918705717
40
-0.069497438918705717
40
-0.069497438918705717
40
-0.037106344816328345
40
0
40
0
40
0
40
0
10
-1.3719492653070646
20
1.7072687910473872
30
0
10
-1.4007528563506559
20
1.6027786350368425
30
0
10
-1.4625530475656974
20
1.3785874356906032
30
0
10
-1.4679465164164691
20
1.1459386805201901
30
0
10
-1.4708262184320651
20
1.0217219458497087
30
0
0
SPLINE
5
120
100
AcDbEntity
8
0
100
AcDbSpline
70
0
71
3
72
9
73
5
74
0
42
0.000000001
43
0.0000000001
44
0.0000000001
40
-0.077114573950360352
40
-0.077114573950360352
40
-0.077114573950360352
40
-0.077114573950360352
40
-0.035365587391233723
40
0
40
0
40
0
40
0
10
-1.4708262184320651
20
1.0217219458497087
30
0
10
-1.4680839905715346
20
0.88195728572892262
30
0
10
-1.463018820119075
20
0.62379791212910551
30
0
10
-1.396063863403507
20
0.37463726530750169
30
0
10
-1.3653575876413546
20
0.26036946639185221
30
0
0
SPLINE
5
121
100
AcDbEntity
8
0
100
AcDbSpline
70
0
71
3
72
9
73
5
74
0
42
0.000000001
43
0.0000000001
44
0.0000000001
40
-0.060934736567129
40
-0.060934736567129
40
-0.060934736567129
40
-0.060934736567129
40
-0.029641144102247986
40
0
40
0
40
0
40
0
10
-1.3653575876413546
20
0.26036946639185221
30
0
10
-1.3271316989897073
20
0.16246973856848948
30
0
10
-1.2526984277810225
20
-0.028160152569927696
30
0
10
-1.1215408175201422
20
-0.18512645124863808
30
0
10
-1.0577404001413546
20
-0.26148126855726067
30
0
0
SPLINE
5
122
100
AcDbEntity
8
0
100
AcDbSpline
70
0
71
3
72
9
73
5
74
0
42
0.000000001
43
0.0000000001
44
0.0000000001
40
-0.057414852849461073
40
-0.057414852849461073
40
-0.057414852849461073
40
-0.057414852849461073
40
-0.028752014775689349
40
0
40
0
40
0
40
0
10
-1.0577404001413546
20
-0.26148126855726067
30
0
10
-0.98689700238341871
20
-0.3271460557306039
30
0
10
-0.84498979671316987
20
-0.45867992837940463
30
0
10
-0.66318695050679066
20
-0.52493375961603184
30
0
10
-0.57214433938848586
20
-0.55811212793226117
30
0
0
SPLINE
5
123
100
AcDbEntity
8
0
100
AcDbSpline
70
0
71
3
72
9
73
5
74
0
42
0.000000001
43
0.0000000001
44
0.0000000001
40
-0.061745284827328675
40
-0.061745284827328675
40
-0.061745284827328675
40
-0.061745284827328675
40
-0.035464277171284739
40
0
40
0
40
0
40
0
10
-0.57214433938848586
20
-0.55811212793226117
30
0
10
-0.4861738438819404
20
-0.57595770384643985
30
0
10
-0.28419251952516444
20
-0.61788456533324709
30
0
10
-0.077706024785840863
20
-0.61899668472780145
30
0
10
0.040892412358645644
20
-0.61963544622297184
30
0
0
LINE
5
124
100
AcDbEntity
8
0
100
AcDbLine
10
0.040892412358645637
20
-0.61963544622297184
30
0
11
1.2296131750882906
21
-0.61963544622297195
31
0
0
LINE
5
125
100
AcDbEntity
8
0
100
AcDbLine
10
-3.5208749273477755
20
1.4172299073613215
30
0
11
-4.2657482126413546
21
1.4172299073613215
31
-1.0337193397013929e-16
0
LINE
5
126
100
AcDbEntity
8
0
100
AcDbLine
10
-4.2657482126413546
20
1.4172299073613215
30
-1.0337193397013929e-16
11
-4.2657482126413555
21
1.8259210751927428
31
-1.0557221945345698e-17
0
SPLINE
5
127
100
AcDbEntity
8
0
100
AcDbSpline
70
0
71
3
72
9
73
5
74
0
42
0.000000001
43
0.0000000001
44
0.0000000001
40
-0.040376296202685034
40
-0.040376296202685034
40
-0.040376296202685034
40
-0.040376296202685034
40
-0.021049539133756498
40
0
40
0
40
0
40
0
10
-4.2657482126413555
20
1.8259210751927428
30
0
10
-4.2128999612828126
20
1.863106639374958
30
0
10
-4.1024925792768059
20
1.9407924791943474
30
0
10
-3.9779930475567808
20
1.9931062113275575
30
0
10
-3.9130871990381451
20
2.020379142609888
30
0
0
SPLINE
5
128
100
AcDbEntity
8
0
100
AcDbSpline
70
0
71
3
72
9
73
5
74
0
42
0.000000001
43
0.0000000001
44
0.0000000001
40
-0.041940567098586276
40
-0.041940567098586276
40
-0.041940567098586276
40
-0.041940567098586276
40
-0.020560033832223688
40
0
40
0
40
0
40
0
10
-3.9130871990381451
20
2.020379142609888
30
0
10
-3.8453443380123837
20
2.0437682021802552
30
0
10
-3.7124583162791858
20
2.089648742672999
30
0
10
-3.5721021056326965
20
2.0969835979672609
30
0
10
-3.5032969215570651
20
2.1005792783177437
30
0
0
SPLINE
5
129
100
AcDbEntity
8
0
100
AcDbSpline
70
0
71
3
72
9
73
5
74
0
42
0.000000001
43
0.0000000001
44
0.0000000001
40
-0.07449623255408297
40
-0.07449623255408297
40
-0.07449623255408297
40
-0.07449623255408297
40
-0.036461072510848881
40
0
40
0
40
0
40
0
10
-3.5032969215570651
20
2.1005792783177437
30
0
10
-3.3731357933422759
20
2.0896742251637606
30
0
10
-3.1182002635333128
20
2.0683154251784241
30
0
10
-2.928281060864534
20
1.8974592473449856
30
0
10
-2.835327933138486
20
1.8138362334645324
30
0
0
SPLINE
5
130
100
AcDbEntity
8
0
100
AcDbSpline
70
0
71
3
72
9
73
5
74
0
42
0.000000001
43
0.0000000001
44
0.0000000001
40
-0.091204955112762623
40
-0.091204955112762623
40
-0.091204955112762623
40
-0.091204955112762623
40
-0.05058300126072484
40
0
40
0
40
0
40
0
10
-2.835327933138486
20
1.8138362334645324
30
0
10
-2.7612154535422162
20
1.6976672891940336
30
0
10
-2.5948171212637106
20
1.4368432188826941
30
0
10
-2.5855725002079168
20
1.1260018968134229
30
0
10
-2.5804453590570651
20
0.95360680088167571
30
0
0
SPLINE
5
131
100
AcDbEntity
8
0
100
AcDbSpline
70
0
71
3
72
9
73
5
74
0
42
0.000000001
43
0.0000000001
44
0.0000000001
40
-0.085562809976548443
40
-0.085562809976548443
40
-0.085562809976548443
40
-0.085562809976548443
40
-0.038503619077964214
40
0
40
0
40
0
40
0
10
-2.5804453590570651
20
0.95360680088167571
30
0
10
-2.5860368919100463
20
0.79300233688462296
30
0
10
-2.5962033918825664
20
0.50099202026061429
30
0
10
-2.7588436170096973
20
0.26003603823534793
30
0
10
-2.8320323923288546
20
0.15160484775667446
30
0
0
SPLINE
5
132
100
AcDbEntity
8
0
100
AcDbSpline
70
0
71
3
72
9
73
5
74
0
42
0.000000001
43
0.0000000001
44
0.0000000001
40
-0.074665768729554882
40
-0.074665768729554882
40
-0.074665768729554882
40
-0.074665768729554882
40
-0.03885188381384258
40
0
40
0
40
0
40
0
10
-2.8320323923288546
20
0.15160484775667446
30
0
10
-2.9258609533683022
20
0.072813755237444266
30
0
10
-3.1214773087367975
20
-0.091452073667612349
30
0
10
-3.3769532363797428
20
-0.10934731940958109
30
0
10
-3.5098885992227755
20
-0.11865900293226003
30
0
0
SPLINE
5
133
100
AcDbEntity
8
0
100
AcDbSpline
70
0
71
3
72
9
73
5
74
0
42
0.000000001
43
0.0000000001
44
0.0000000001
40
-0.049516655780260502
40
-0.049516655780260502
40
-0.049516655780260502
40
-0.049516655780260502
40
-0.023498749626765101
40
0
40
0
40
0
40
0
10
-3.5098885992227755
20
-0.11865900293226003
30
0
10
-3.5979625733377274
20
-0.11419501575578267
30
0
10
-3.7655828512233009
20
-0.10569926228811076
30
0
10
-3.910318874070204
20
-0.021356036363730548
30
0
10
-3.9790051677881451
20
0.018670098630240189
30
0
0
SPLINE
5
134
100
AcDbEntity
8
0
100
AcDbSpline
70
0
71
3
72
9
73
5
74
0
42
0.000000001
43
0.0000000001
44
0.0000000001
40
-0.046033266905160478
40
-0.046033266905160478
40
-0.046033266905160478
40
-0.046033266905160478
40
-0.023385938885163576
40
0
40
0
40
0
40
0
10
-3.9790051677881451
20
0.018670098630240189
30
0
10
-4.0368115141135812
20
0.06922876463382116
30
0
10
-4.15430947973943
20
0.17199499667923862
30
0
10
-4.2078078669378973
20
0.31874937832945144
30
0
10
-4.2349862554727764
20
0.39330391749506316
30
0
0
LINE
5
135
100
AcDbEntity
8
0
100
AcDbLine
10
-4.2349862554727755
20
0.3933039174950631
30
0
11
-4.8809825876413555
21
0.27245430812006299
31
-8.6528239226088644e-17
0
SPLINE
5
136
100
AcDbEntity
8
0
100
AcDbSpline
70
0
71
3
72
9
73
5
74
0
42
0.000000001
43
0.0000000001
44
0.0000000001
40
-0.08338798024326538
40
-0.08338798024326538
40
-0.08338798024326538
40
-0.08338798024326538
40
-0.040815784177216999
40
0
40
0
40
0
40
0
10
-4.8809825876413555
20
0.27245430812006299
30
0
10
-4.8399571375312949
20
0.13344444557391805
30
0
10
-4.7595988347098723
20
-0.13884011436827903
30
0
10
-4.5497412770155723
20
-0.32960631697975606
30
0
10
-4.4470226267038555
20
-0.42298035159940522
30
0
0
SPLINE
5
137
100
AcDbEntity
8
0
100
AcDbSpline
70
0
71
3
72
9
73
5
74
0
42
0.000000001
43
0.0000000001
44
0.0000000001
40
-0.098281757262081798
40
-0.098281757262081798
40
-0.098281757262081798
40
-0.098281757262081798
40
-0.053790011716319308
40
0
40
0
40
0
40
0
10
-4.4470226267038555
20
-0.42298035159940522
30
0
10
-4.3156528003791497
20
-0.49618837851963782
30
0
10
-4.0254583559034502
20
-0.65790407304121512
30
0
10
-3.6922531724682681
20
-0.6686731348415218
30
0
10
-3.5098885992227755
20
-0.67456708684797151
30
0
0
SPLINE
5
138
100
AcDbEntity
8
0
100
AcDbSpline
70
0
71
3
72
9
73
5
74
0
42
0.000000001
43
0.0000000001
44
0.0000000001
40
-0.079335634511063485
40
-0.079335634511063485
40
-0.079335634511063485
40
-0.079335634511063485
40
-0.036793901364848822
40
0
40
0
40
0
40
0
10
-3.5098885992227755
20
-0.67456708684797151
30
0
10
-3.3667938829244939
20
-0.67004748699969974
30
0
10
-3.0999380387188404
20
-0.66161893237390723
30
0
10
-2.8531177411298261
20
-0.56088480673282226
30
0
10
-2.7386486032663546
20
-0.51416681543226084
30
0
0
SPLINE
5
139
100
AcDbEntity
8
0
100
AcDbSpline
70
0
71
3
72
9
73
5
74
0
42
0.000000001
43
0.0000000001
44
0.0000000001
40
-0.087113715434016137
40
-0.087113715434016137
40
-0.087113715434016137
40
-0.087113715434016137
40
-0.043231253954523832
40
0
40
0
40
0
40
0
10
-2.7386486032663546
20
-0.51416681543226084
30
0
10
-2.6115663427664417
20
-0.43748162391128265
30
0
10
-2.3592876987556819
20
-0.28524923477596764
30
0
10
-2.200177166062228
20
-0.037340756130055441
30
0
10
-2.121216605013486
20
0.085686879006674349
30
0
0
SPLINE
5
140
100
AcDbEntity
8
0
100
AcDbSpline
70
0
71
3
72
9
73
5
74
0
42
0.000000001
43
0.0000000001
44
0.0000000001
40
-0.092606805022318661
40
-0.092606805022318661
40
-0.092606805022318661
40
-0.092606805022318661
40
-0.047807614478809907
40
0
40
0
40
0
40
0
10
-2.121216605013486
20
0.085686879006674349
30
0
10
-2.0597110583561706
20
0.22328953504624194
30
0
10
-1.9325696502641365
20
0.50773535167396788
30
0
10
-1.91786863803178
20
0.8191884684483951
30
0
10
-1.9102793434320653
20
0.97997395857935332
30
0
0
SPLINE
5
141
100
AcDbEntity
8
0
100
AcDbSpline
70
0
71
3
72
9
73
5
74
0
42
0.000000001
43
0.0000000001
44
0.0000000001
40
-0.088423531582024983
40
-0.088423531582024983
40
-0.088423531582024983
40
-0.088423531582024983
40
-0.043542267218729808
40
0
40
0
40
0
40
0
10
-1.9102793434320653
20
0.97997395857935332
30
0
10
-1.9176651047160787
20
1.1306036085991036
30
0
10
-1.9322162789180306
20
1.4273689917642769
30
0
10
-2.0441329768342129
20
1.7025159904758502
30
0
10
-2.099243948763486
20
1.8380062149441772
30
0
0
SPLINE
5
142
100
AcDbEntity
8
0
100
AcDbSpline
70
0
71
3
72
9
73
5
74
0
42
0.000000001
43
0.0000000001
44
0.0000000001
40
-0.083885943881641736
40
-0.083885943881641736
40
-0.083885943881641736
40
-0.083885943881641736
40
-0.041790004471681866
40
0
40
0
40
0
40
0
10
-2.099243948763486
20
1.8380062149441772
30
0
10
-2.1697845326055774
20
1.9617470292684422
30
0
10
-2.3103530420745906
20
2.2083293636163006
30
0
10
-2.5463654849370125
20
2.3659357779190833
30
0
10
-2.6639413335977751
20
2.4444515870488233
30
0
0
SPLINE
5
143
100
AcDbEntity
8
0
100
AcDbSpline
70
0
71
3
72
9
73
5
74
0
42
0.000000001
43
0.0000000001
44
0.0000000001
40
-0.091395226988442907
40
-0.091395226988442907
40
-0.091395226988442907
40
-0.091395226988442907
40
-0.047592299768237159
40
0
40
0
40
0
40
0
10
-2.6639413335977751
20
2.4444515870488233
30
0
10
-2.7978191231481757
20
2.5062662397360964
30
0
10
-3.0771564127123714
20
2.6352431043452507
30
0
10
-3.384830083461829
20
2.6492130702486856
30
0
10
-3.5450452068506437
20
2.6564876602566785
30
0
0
SPLINE
5
144
100
AcDbEntity
8
0
100
AcDbSpline
70
0
71
3
72
9
73
5
74
0
42
0.000000001
43
0.0000000001
44
0.0000000001
40
-0.080330675595095297
40
-0.080330675595095297
40
-0.080330675595095297
40
-0.080330675595095297
40
-0.040628657131979357
40
0
40
0
40
0
40
0
10
-3.5450452068506437
20
2.6564876602566785
30
0
10
-3.6779300046226919
20
2.6499319139002386
30
0
10
-3.9468011097848485
20
2.6366674111311377
30
0
10
-4.201665502471009
20
2.5498728079470752
30
0
10
-4.3305676677881442
20
2.5059749053395337
30
0
0
SPLINE
5
145
100
AcDbEntity
8
0
100
AcDbSpline
70
0
71
3
72
9
73
5
74
0
42
0.000000001
43
0.0000000001
44
0.0000000001
40
-0.069026077560627591
40
-0.069026077560627591
40
-0.069026077560627591
40
-0.069026077560627591
40
-0.031173966712361091
40
0
40
0
40
0
40
0
10
-4.3305676677881442
20
2.5059749053395337
30
0
10
-4.4480362144534302
20
2.4576665836836966
30
0
10
-4.6622486541653245
20
2.3695728451123834
30
0
10
-4.8416899390835404
20
2.2236229856792593
30
0
10
-4.9227302768884869
20
2.1577082441723885
30
0
0
LINE
5
146
100
AcDbEntity
8
0
100
AcDbLine
10
-4.9227302768884869
20
2.157708244172388
30
0
11
-4.9227302768884869
21
0.87450517877703104
31
3.3147424335616367e-17
0
LINE
5
147
100
AcDbEntity
8
0
100
AcDbLine
10
-4.9227302768884869
20
0.87450517877703104
30
3.3147424335616367e-17
11
-3.5208749273477755
21
0.87450517877703104
31
1.945465107817554e-16
0
LINE
5
148
100
AcDbEntity
8
0
100
AcDbLine
10
-3.5208749273477755
20
0.87450517877703104
30
1.945465107817554e-16
11
-3.5208749273477755
21
1.4172299073613215
31
0
0
ENDSEC
0
SECTION
2
OBJECTS
0
DICTIONARY
5
C
100
AcDbDictionary
3
ACAD_GROUP
350
D
3
ACAD_MLINESTYLE
350
17
0
DICTIONARY
5
D
100
AcDbDictionary
0
DICTIONARY
5
1A
330
C
100
AcDbDictionary
0
DICTIONARY
5
17
100
AcDbDictionary
0
ENDSEC
0
EOF
