<?xml version="1.0" standalone="no"?>
<!DOCTYPE svg PUBLIC "-//W3C//DTD SVG 1.1//EN" "http://www.w3.org/Graphics/SVG/1.1/DTD/svg11.dtd">
<svg width="680mm" height="680mm" viewbox="0 0 68 68" version="1.1" xmlns="http://www.w3.org/2000/svg"><polyline points="61.53758577492745,35.85509290562858 62.12702842060688,35.894801211186376 62.13827965186492,35.89534639645445 62.17206345094516,35.89613333437668 62.2283844781295,35.89588820571109 62.3071933831675,35.89333762984705 62.40838684818364,35.88721070013415 62.53180770247744,35.87624101672915 62.67724510909885,35.85916871452401 62.84443482300098,35.83474248372219 63.03305952049237,35.80172158063873 63.242749199630865,35.75887782630921 63.47308165112197,35.704997590505776 63.72358299920515,35.638883758773595 63.99372831193344,35.55935768011887 64.2829422801734,35.46526109300013 64.59059996457566,35.35545802729718 64.9160276096894,35.22883667995761 65.25850352431867,35.08431126204851 65.61725902714414,34.9208238149714 65.99147945655935,34.737345993630946 65.99147945655935,33.262654006369054 65.61725902714414,33.0791761850286 65.25850352431867,32.91568873795149 64.9160276096894,32.77116332004239 64.59059996457566,32.64454197270282 64.2829422801734,32.53473890699987 63.99372831193344,32.44064231988113 63.72358299920515,32.361116241226405 63.47308165112197,32.295002409494224 63.242749199630865,32.24112217369079 63.03305952049237,32.19827841936127 62.84443482300098,32.16525751627781 62.67724510909885,32.14083128547599 62.53180770247744,32.12375898327085 62.40838684818364,32.11278929986585 62.3071933831675,32.10666237015295 62.2283844781295,32.10411179428891 62.17206345094516,32.10386666562332 62.13827965186492,32.10465360354555 62.12702842060688,32.105198788813624 61.53758577492745,32.14490709437142 61.321518958379926,30.08916865527466 61.906336688969475,30.00545722198192 61.91745540422073,30.003651231129194 61.95066455982871,29.997396925780734 62.00570387232462,29.98544735377412 62.08226031916354,29.966567221414284 62.179968603862875,29.939534875404526 62.29841169094641,29.903144267402723 62.437121410072464,29.856206898842952 62.59557912864689,29.797553743684453 62.773216492144826,29.726037146773876 62.96941623128916,29.64053269553331 63.183513035158775,29.5399410627155 63.41479448922503,29.423189817999248 63.66250207724248,29.28923520623153 63.92583224584706,29.13706389015921 64.20393753064519,28.9656946555315 64.49592774250664,28.77418007649518 64.80087121270675,28.56160813924741 65.11779609549626,28.32710382195622 65.44569172661187,28.069830629005928 65.13908602210485,26.627364199844337 64.73489602286435,26.52570061133057 64.34998923697627,26.440375220404626 63.98494871876889,26.37021277610672 63.64030639006947,26.314018620939272 63.3165424231768,26.270580645025863 63.01408469351613,26.23867125924331 62.73330830254427,26.217049384947252 62.47453517139425,26.204462457895204 62.23803370566954,26.199648443956825 62.02401853171794,26.201337864189696 61.83265030463518,26.20825582684997 61.66403558816813,26.219124063900928 61.51822680660683,26.23266296957877 61.39522226867436,26.24759363857376 61.29496626334276,26.26263990138643 61.21734922742293,26.276530354422484 61.162207984696366,26.288000382396852 61.12932605627635,26.29579417062643 61.11843404180688,26.29866670480299 60.55012795311339,26.460059305716854 59.91137066015757,24.49416650093611 60.46600413456366,24.29069392011975 60.47650439259813,24.2866156836126 60.50768750527858,24.273593478148662 60.55903962102204,24.250461716438128 60.629997725576445,24.216077179963534 60.719950509061256,24.16932086089314 60.82823929767598,24.10909977248572 60.95415904897779,24.034348725807867 61.09695940955832,23.94403207062218 61.25584583387929,23.83714539834419 61.42998076295805,23.712717205007664 61.61848486152662,23.56981051222182 61.820438312221725,23.407524444150226 62.03488216529908,23.22499575858931 62.260819742301926,23.02140033027476 62.49721809205301,22.79595458459634 62.743009497279346,22.547916879956073 62.99709303012145,22.276588837060686 63.25833615472277,21.981316613497608 63.525576375041226,21.66149212200315 62.92576510657153,20.3142939556181 62.50927057999134,20.298887786585095 62.115034784571655,20.295453580830426 61.743383685090606,20.302720545636298 61.394589196347006,20.319409536871262 61.06886898590902,20.34423509873335 60.766386348967046,20.37590750756391 60.487250155351674,20.41313481728652 60.23151486869732,20.45462490402555 59.99918063765112,20.49908750746153 59.79019345894685,20.545236266485876 59.60444541208288,20.59179074672556 59.441774965263704,20.637478457518583 59.30196735218489,20.681036855934416 59.184755019162665,20.72121533544901 59.089818142030275,20.756777196902362 59.016785212146175,20.786501599387037 58.96523369078159,20.80918548873959 58.93469073107873,20.82364550133213 58.924633966695836,20.82871984088972 58.40230213809937,21.104743106052098 57.368771127534984,19.314614884556573 57.86898020149937,19.000273884368042 57.87840309065511,18.994101640711378 57.90619730875072,18.974880667998207 57.95161789386897,18.941577685569015 58.01387644647505,18.893191514218916 58.092142360465715,18.828754697592977 58.1855441109219,18.747335079316187 58.29317059703757,18.648037333955386 58.414072538634684,18.53000444996152 58.54726392461422,18.392419162793825 58.691723511634564,18.23450533648287 58.846396371251615,18.05552929194612 59.010195483700016,17.854801080428867 59.182003376442026,17.631675700503575 59.36067380555933,17.385554257123395 59.54503347801411,17.11588506128913 59.73388381275893,16.822164668954652 59.92600273862975,16.50393885786258 60.12014652691422,16.160803541070642 60.31505165644674,15.792405615998511 59.44824945466031,14.599354736835075 59.03765321011445,14.670879310796568 58.65131840117624,14.749486381483806 58.28929965684867,14.833865154160666 57.95159700092065,14.922707902798415 57.63815608311248,15.014712006256364 57.34886848159628,15.108581973453052 57.083572076442465,15.203031455123003 56.84205149346462,15.296785239771097 56.624038617856975,15.38858123145604 56.42921317694116,15.477172407056184 56.25720339126196,15.561328750695626 56.10758669319604,15.639839163035099 55.97989051216264,15.711513343161759 55.87359312545091,15.77518364084344 55.78812457360609,15.829706876947213 55.72286763924454,15.873966129858424 55.677158888097196,15.906872485775075 55.6502897710119,15.92736675079345 55.641507785576835,15.934421122744016 55.18797862441324,16.31301151096073 53.80484416083398,14.776885066018039 54.22876729755497,14.36541385654104 54.23670099235984,14.35741736240037 54.25989157516838,14.332837671178002 54.29739553213959,14.290818968167734 54.3482335352988,14.230545869812744 54.41139198379239,14.151244753719961 54.485824591403784,14.052185033587172 54.570454018440884,13.93268037749915 54.6641735460549,13.792089868112253 54.7658487910025,13.629819103311533 54.87431945881763,13.44532123599054 54.98840113331518,13.238097951671495 55.10688710030753,13.00770038275271 55.22855020337565,12.753729958240136 55.35214472949913,12.475839187891761 55.47640832231548,12.17373237977598 55.60006392074598,11.847166290319123 55.72182172069607,11.495950705991948 55.84038115751039,11.119948955860892 55.95443290683784,10.719078354306113 54.85852318733119,9.732316810677009 54.4717702509657,9.887646160537908 54.11022111349965,10.044859001479438 53.773656680611346,10.202661824767041 53.46180508404009,10.359775476377294 53.17434233102634,10.514937100625318 52.9108930212781,10.66690205818357 52.671031130524455,10.814445816232983 52.45428085964359,10.956365808520445 52.260117548280405,11.091483263131678 52.08796865179726,11.21864499582627 51.93721478033153,11.33672516682148 51.80719079866494,11.444626998953414 51.69718698554236,11.541284455188496 51.606450251011864,11.625663873504585 51.53418541029386,11.696765557209538 51.47955651262396,11.753625318815601 51.44168822345394,11.795315975640577 51.41966725833515,11.820948795361087 51.41254386675206,11.829674889799762 51.04763877363857,12.294286184427499 49.37535047011836,11.079297612834136 49.70446019431237,10.588679460380742 49.71055795423331,10.57920820092145 49.72813136200528,10.550344041642738 49.75607958794585,10.501446037001063 49.79327517697232,10.431920235261703 49.83856583270181,10.341220659004307 49.89077623534851,10.2288502221266 49.94870989124848,10.094361582229357 50.01115101180646,9.93735792733775 50.07686641962598,9.757493695987318 50.14460747955236,9.55447522977721 50.21311205233026,9.328061357568249 50.28110646855024,9.078063910579885 50.347307520536035,8.804348167716537 50.41042446980177,8.506833230532052 50.469161067690735,8.185492327318716 50.52221758679011,7.840353045886701 50.56829286070291,7.471497494678882 50.606086329747015,7.079062391946007 50.63430009014276,6.6632390827870935 49.357179366416595,5.925893089156144 49.01117269739714,6.1582385769746 48.69021066361576,6.387186232630373 48.393810022899274,6.611516365929095 48.12143889688494,6.830034300021534 47.87251781037163,7.041572137531922 47.646420791397404,7.244990487597665 47.442476530654915,7.439180151806287 47.25996959879173,7.623063767062469 47.09814172007851,7.795597403468005 46.95619310086639,7.955772115348594 46.83328381119452,8.102615443615562 46.72853521785038,8.23519286770535 46.641031467128926,8.352609205397446 46.56982101548183,8.454009958870156 46.513918206195186,8.538582605414646 46.47230489018365,8.605557831289971 46.44393208893988,8.654210707266056 46.42772169763162,8.683861804467 46.42256822629451,8.693878249194363 46.16223530480909,9.224204707205551 44.273880184741365,8.383454839702157 44.493792822217415,7.835132111781679 44.497788145885586,7.824600026490277 44.508976336374786,7.792712901421307 44.52614735970066,7.739072672589721 44.54807490886969,7.663332778623818 44.57351835285102,7.565198748909111 44.601224705404064,7.444428722591219 44.62993061140753,7.3008338977963625 44.658364348315374,7.134278910505934 44.68524784034757,6.9446821426001435 44.70929868300876,6.732015958664988 44.729232175515186,6.496306871235944 44.74376335870059,6.23763563423223 44.75160905596439,5.956137264415094 44.75148991482074,5.652000990784526 44.742132446605105,5.325470131908787 44.7222710618953,4.976841901262219 44.69065009920712,4.606467140726846 44.64602584453058,4.214749982494126 44.58716853928069,3.802147439682937 43.18465311526701,3.3464425541504426 42.89451486535394,3.6456495671914553 42.6281675162802,3.93632592639657 42.38488479802292,4.217379066425835 42.16389806775399,4.4877510007152495 41.96439769367767,4.746419832917624 41.785534490140485,4.992401217483444 41.626421202236735,5.2247497676999615 41.486134038079065,5.442560409566692 41.363714246851906,5.644969679947362 41.25816974071544,5.831156967501226 41.16847675858029,6.000345694962217 41.09358156972724,6.151804441400074 41.03240221520304,6.284848003165937 40.98383028488197,6.398838392293715 40.946732728043955,6.493185771199169 40.91995369528334,6.567349322590214 40.902316409527984,6.620838053574847 40.8926250639165,6.653211533026795 40.889666744251905,6.664080561344026 40.745283792279416,7.236944371734889 38.72339203574434,6.807178011896834 38.82449634898683,6.225115042863763 38.82621462158623,6.2139824344060415 38.830528617181386,6.18046596392373 38.836171981777504,6.124427846296548 38.84187315197036,6.045784056910744 38.84635738361035,5.944504501736574 38.84834878551334,5.820613115647475 38.846572355781746,5.674187888842958 38.83975601829637,5.505360821317801 38.82663265693813,5.314317805400368 38.80594214510108,5.101298436463704 38.776433368062,4.866595751992911 38.73686623577927,4.610555899273226 38.68601368370281,4.333577732042361 38.622663659189456,4.036112336531115 38.54562109113236,3.7186624873947522 38.453709840430676,3.381782034116739 38.34577462894521,3.026075218544488 38.22068294460833,2.652195924294169 38.07732692038091,2.260846858838221 36.6107134501248,2.106699571616609 36.38912405307712,2.459691327655733 36.18903204594191,2.799392438693001 36.00949987233167,3.1248852145909467 35.849555718332894,3.435294598160393 35.70819518034969,3.7297893558567417 35.58438297252501,4.00758320806748 35.477054671651665,4.2679358977153825 35.3851184974457,4.510154195971666 35.30745712601656,4.733592843944397 35.24292953433263,4.937655429279701 35.1903728734482,5.121795196687081 35.14860436822612,5.285515791473973 35.116423241262986,5.428371935250603 35.09261265869695,5.549970033041987 35.075941695555215,5.649968711121275 35.06516731827721,5.728079284956046 35.05903638203086,5.784066156737797 35.05628764042362,5.817747142043505 35.05565376519647,5.82899372525776 35.03353101056438,6.419357990608667 32.96646898943562,6.419357990608667 32.94434623480353,5.82899372525776 32.94371235957639,5.817747142043505 32.940963617969146,5.784066156737797 32.934832681722796,5.728079284956046 32.924058304444785,5.649968711121275 32.90738734130305,5.549970033041987 32.883576758737014,5.428371935250603 32.85139563177388,5.285515791473973 32.80962712655181,5.121795196687081 32.75707046566737,4.937655429279701 32.69254287398345,4.733592843944397 32.6148815025543,4.510154195971666 32.52294532834834,4.2679358977153825 32.415617027474994,4.00758320806748 32.29180481965031,3.7297893558567417 32.150444281667106,3.435294598160393 31.990500127668327,3.1248852145909467 31.810967954058093,2.799392438693001 31.61087594692289,2.459691327655733 31.389286549875205,2.106699571616609 29.922673079619095,2.260846858838221 29.779317055391676,2.652195924294169 29.654225371054793,3.026075218544488 29.546290159569324,3.381782034116739 29.45437890886764,3.7186624873947522 29.377336340810547,4.036112336531115 29.313986316297193,4.333577732042361 29.26313376422074,4.610555899273226 29.223566631938,4.866595751992911 29.194057854898922,5.101298436463704 29.17336734306187,5.314317805400368 29.160243981703637,5.505360821317801 29.153427644218254,5.674187888842958 29.151651214486662,5.820613115647475 29.153642616389646,5.944504501736574 29.158126848029646,6.045784056910744 29.163828018222496,6.124427846296548 29.169471382818617,6.18046596392373 29.173785378413772,6.2139824344060415 29.175503651013173,6.225115042863763 29.276607964255668,6.807178011896834 27.25471620772059,7.236944371734889 27.1103332557481,6.664080561344026 27.107374936083502,6.653211533026795 27.097683590472023,6.620838053574847 27.08004630471666,6.567349322590214 27.053267271956045,6.493185771199169 27.016169715118032,6.398838392293715 26.967597784796958,6.284848003165937 26.90641843027276,6.151804441400074 26.831523241419713,6.000345694962217 26.741830259284566,5.831156967501226 26.6362857531481,5.644969679947362 26.513865961920935,5.442560409566692 26.37357879776327,5.2247497676999615 26.214465509859515,4.992401217483444 26.03560230632234,4.746419832917624 25.836101932246017,4.4877510007152495 25.615115201977087,4.217379066425835 25.371832483719803,3.93632592639657 25.10548513464606,3.6456495671914553 24.815346884732996,3.3464425541504426 23.412831460719314,3.802147439682937 23.353974155469427,4.214749982494126 23.30934990079289,4.606467140726846 23.27772893810471,4.976841901262219 23.257867553394895,5.325470131908787 23.248510085179266,5.652000990784526 23.248390944035616,5.956137264415094 23.256236641299417,6.23763563423223 23.270767824484814,6.496306871235944 23.290701316991246,6.732015958664988 23.31475215965243,6.944682142600147 23.341635651684626,7.134278910505934 23.37006938859247,7.3008338977963625 23.398775294595943,7.444428722591219 23.426481647148986,7.565198748909111 23.451925091130313,7.663332778623818 23.47385264029935,7.739072672589721 23.49102366362522,7.792712901421307 23.502211854114417,7.824600026490277 23.506207177782585,7.835132111781679 23.72611981525864,8.383454839702157 21.837764695190913,9.224204707205551 21.577431773705484,8.693878249194363 21.572278302368375,8.683861804467 21.55606791106012,8.654210707266056 21.527695109816342,8.605557831289971 21.486081793804814,8.538582605414646 21.430178984518168,8.454009958870156 21.358968532871067,8.352609205397446 21.27146478214962,8.23519286770535 21.166716188805477,8.102615443615562 21.0438068991336,7.955772115348594 20.901858279921488,7.795597403468005 20.740030401208266,7.623063767062469 20.55752346934508,7.439180151806287 20.35357920860259,7.244990487597665 20.127482189628367,7.041572137531922 19.87856110311506,6.830034300021534 19.60618997710072,6.611516365929095 19.309789336384235,6.387186232630373 18.988827302602857,6.1582385769746 18.6428206335834,5.925893089156144 17.36569990985726,6.663239082787079 17.393913670253006,7.0790623919459925 17.431707139297107,7.471497494678868 17.477782413209905,7.840353045886687 17.530838932309283,8.185492327318702 17.589575530198246,8.506833230532038 17.652692479463983,8.804348167716523 17.718893531449773,9.078063910579871 17.78688794766976,9.328061357568238 17.85539252044765,9.5544752297772 17.92313358037404,9.757493695987307 17.988848988193553,9.937357927337736 18.051290108751537,10.094361582229347 18.109223764651503,10.228850222126585 18.161434167298207,10.341220659004293 18.20672482302769,10.431920235261693 18.243920412054162,10.501446037001053 18.271868637994736,10.550344041642724 18.289442045766705,10.579208200921435 18.29553980568765,10.588679460380732 18.624649529881648,11.079297612834125 16.952361226361433,12.294286184427499 16.587456133247944,11.829674889799758 16.58033274166485,11.820948795361083 16.55831177654607,11.795315975640573 16.52044348737604,11.753625318815597 16.465814589706145,11.696765557209535 16.393549748988136,11.625663873504582 16.302813014457648,11.541284455188492 16.192809201335063,11.44462699895341 16.062785219668477,11.336725166821477 15.912031348202742,11.218644995826267 15.739882451719595,11.091483263131675 15.545719140356411,10.956365808520442 15.328968869475549,10.814445816232983 15.089106978721905,10.666902058183567 14.825657668973669,10.514937100625318 14.538194915959917,10.35977547637729 14.226343319388658,10.202661824767038 13.889778886500356,10.044859001479434 13.528229749034306,9.887646160537905 13.141476812668813,9.732316810677005 12.045567093162177,10.719078354306095 12.159618842489618,11.119948955860874 12.278178279303948,11.49595070599193 12.399936079254033,11.847166290319105 12.52359167768454,12.173732379775963 12.647855270500884,12.475839187891744 12.771449796624367,12.753729958240118 12.893112899692483,13.007700382752695 13.011598866684832,13.238097951671477 13.12568054118238,13.445321235990523 13.234151208997513,13.629819103311515 13.33582645394512,13.792089868112235 13.429545981559123,13.932680377499135 13.51417540859623,14.052185033587158 13.588608016207619,14.151244753719944 13.651766464701211,14.230545869812726 13.702604467860422,14.29081896816772 13.740108424831625,14.332837671177984 13.763299007640164,14.357417362400355 13.77123270244504,14.365413856541025 14.195155839166038,14.776885066018021 12.812021375586756,16.31301151096073 12.358492214423165,15.93442112274402 12.349710228988098,15.927366750793453 12.3228411119028,15.906872485775079 12.27713236075546,15.873966129858427 12.211875426393906,15.829706876947217 12.12640687454909,15.775183640843444 12.020109487837356,15.711513343161762 11.892413306803952,15.639839163035102 11.742796608738036,15.56132875069563 11.570786823058832,15.477172407056187 11.375961382143021,15.388581231456044 11.157948506535377,15.2967852397711 10.916427923557535,15.203031455123007 10.65113151840372,15.108581973453056 10.361843916887523,15.014712006256367 10.048402999079347,14.922707902798418 9.710700343151327,14.83386515416067 9.348681598823756,14.749486381483809 8.962346789885547,14.670879310796572 8.551750545339686,14.599354736835078 7.684948343553273,15.7924056159985 7.879853473085795,16.16080354107063 8.073997261370266,16.50393885786257 8.266116187241082,16.822164668954642 8.454966521985899,17.11588506128912 8.639326194440681,17.385554257123385 8.817996623557978,17.631675700503564 8.989804516299998,17.854801080428857 9.153603628748396,18.055529291946108 9.30827648836545,18.234505336482858 9.45273607538579,18.392419162793814 9.585927461365326,18.53000444996151 9.70682940296243,18.64803733395538 9.814455889078104,18.747335079316176 9.907857639534292,18.828754697592963 9.986123553524951,18.893191514218906 10.048382106131044,18.941577685569 10.093802691249284,18.9748806679982 10.121596909344895,18.994101640711364 10.131019798500642,19.00027388436803 10.631228872465023,19.314614884556562 9.59769786190062,21.10474310605211 9.075366033304153,20.828719840889732 9.065309268921261,20.823645501332145 9.034766309218401,20.8091854887396 8.983214787853814,20.78650159938705 8.910181857969715,20.756777196902377 8.81524498083732,20.721215335449024 8.6980326478151,20.68103685593443 8.558225034736289,20.637478457518597 8.395554587917104,20.59179074672557 8.20980654105314,20.54523626648589 8.00081936234887,20.499087507461546 7.768485131302668,20.454624904025565 7.512749844648312,20.413134817286533 7.233613651032943,20.375907507563923 6.931131014090969,20.344235098733364 6.605410803652983,20.319409536871277 6.256616314909383,20.302720545636312 5.884965215428334,20.29545358083044 5.490729420008655,20.298887786585105 5.074234893428454,20.31429395561812 4.474423624958781,21.661492122003143 4.74166384527723,21.9813166134976 5.0029069698785555,22.276588837060682 5.256990502720658,22.547916879956066 5.502781907946993,22.795954584596338 5.739180257698077,23.02140033027475 5.965117834700923,23.224995758589305 6.179561687778278,23.40752444415022 6.381515138473386,23.569810512221814 6.570019237041954,23.712717205007657 6.744154166120712,23.837145398344184 6.90304059044168,23.94403207062217 7.04584095102221,24.03434872580786 7.1717607023240255,24.109099772485717 7.280049490938744,24.169320860893137 7.370002274423559,24.216077179963527 7.440960378977962,24.25046171643812 7.492312494721425,24.273593478148655 7.523495607401877,24.28661568361259 7.533995865436346,24.290693920119743 8.088629339842427,24.494166500936103 7.4498720468866075,26.460059305716864 6.8815659581931214,26.298666704803 6.870673943723649,26.29579417062644 6.837792015303631,26.288000382396863 6.782650772577064,26.276530354422494 6.705033736657239,26.26263990138644 6.604777731325633,26.247593638573772 6.481773193393167,26.232662969578783 6.335964411831863,26.21912406390094 6.167349695364813,26.208255826849978 5.975981468282058,26.201337864189707 5.76196629433046,26.199648443956836 5.525464828605745,26.204462457895215 5.266691697455727,26.217049384947266 4.985915306483864,26.238671259243322 4.683457576823201,26.270580645025877 4.359693609930531,26.314018620939283 4.015051281231102,26.370212776106733 3.6500107630237295,26.440375220404633 3.2651039771356594,26.52570061133058 2.860913977895148,26.627364199844347 2.554308273388127,28.06983062900592 2.882203904503733,28.327103821956214 3.199128787293244,28.561608139247397 3.504072257493366,28.77418007649517 3.796062469354812,28.965694655531486 4.074167754152935,29.137063890159197 4.337497922757521,29.28923520623152 4.585205510774966,29.423189817999237 4.816486964841225,29.53994106271549 5.030583768710837,29.6405326955333 5.226783507855174,29.72603714677387 5.404420871353107,29.79755374368444 5.562878589927536,29.85620689884294 5.701588309053591,29.903144267402716 5.8200313961371215,29.93953487540452 5.917739680836462,29.966567221414273 5.994296127675387,29.985447353774113 6.049335440171287,29.997396925780723 6.082544595779268,30.003651231129183 6.093663311030529,30.00545722198191 6.678481041620074,30.089168655274648 6.46241422507255,32.14490709437141 5.872971579393127,32.10519878881362 5.861720348135076,32.10465360354554 5.827936549054844,32.103866665623315 5.771615521870498,32.104111794288904 5.692806616832499,32.10666237015294 5.5916131518163645,32.112789299865845 5.468192297522563,32.12375898327084 5.322754890901148,32.14083128547598 5.155565176999019,32.165257516277805 4.966940479507631,32.198278419361266 4.757250800369132,32.24112217369079 4.526918348878024,32.29500240949422 4.276417000794847,32.3611162412264 4.006271688066565,32.44064231988112 3.7170577198266024,32.53473890699986 3.4094000354243335,32.64454197270281 3.0839723903106098,32.77116332004238 2.7414964756813305,32.915688737951484 2.382740972855853,33.079176185028594 2.0085205434406497,33.26265400636905 2.0085205434406497,34.73734599363092 2.3827409728558493,34.92082381497137 2.741496475681327,35.08431126204848 3.0839723903106133,35.22883667995758 3.40940003542433,35.35545802729715 3.717057719826599,35.4652610930001 4.006271688066562,35.55935768011884 4.276417000794844,35.638883758773574 4.52691834887802,35.704997590505755 4.757250800369128,35.75887782630918 4.9669404795076275,35.8017215806387 5.155565176999019,35.83474248372216 5.322754890901148,35.85916871452398 5.46819229752256,35.876241016729125 5.591613151816361,35.88721070013412 5.692806616832495,35.89333762984703 5.771615521870494,35.89588820571106 5.82793654905484,35.89613333437666 5.861720348135073,35.89534639645442 5.872971579393123,35.894801211186355 6.462414225072546,35.85509290562856 6.678481041620074,37.910831344725345 6.093663311030529,37.994542778018086 6.082544595779268,37.99634876887081 6.049335440171287,38.002603074219266 5.994296127675387,38.01455264622588 5.917739680836462,38.03343277858572 5.8200313961371215,38.060465124595474 5.701588309053591,38.09685573259728 5.562878589927536,38.14379310115705 5.404420871353107,38.202446256315554 5.226783507855174,38.273962853226124 5.030583768710837,38.35946730446669 4.816486964841225,38.4600589372845 4.585205510774966,38.576810182000756 4.337497922757521,38.71076479376847 4.074167754152935,38.862936109840795 3.796062469354812,39.03430534446851 3.504072257493366,39.22581992350482 3.199128787293244,39.438391860752596 2.882203904503733,39.67289617804378 2.554308273388127,39.93016937099407 2.8609139778951445,41.37263580015564 3.265103977135656,41.47429938866941 3.650010763023726,41.55962477959536 4.015051281231099,41.62978722389326 4.3596936099305275,41.68598137906071 4.683457576823198,41.72941935497412 4.985915306483861,41.76132874075667 5.266691697455723,41.78295061505273 5.525464828605742,41.79553754210478 5.761966294330456,41.800351556043154 5.975981468282054,41.79866213581029 6.167349695364809,41.791744173150015 6.33596441183186,41.78087593609906 6.481773193393163,41.76733703042121 6.60477773132563,41.752406361426225 6.705033736657235,41.73736009861356 6.78265077257706,41.7234696455775 6.837792015303627,41.711999617603134 6.870673943723645,41.70420582937356 6.881565958193118,41.701333295196996 7.449872046886604,41.53994069428313 8.088629339842427,43.505833499063904 7.533995865436346,43.709306079880264 7.523495607401877,43.71338431638741 7.492312494721425,43.72640652185135 7.440960378977962,43.74953828356188 7.370002274423559,43.78392282003648 7.280049490938744,43.83067913910687 7.1717607023240255,43.89090022751429 7.04584095102221,43.96565127419214 6.90304059044168,44.055967929377836 6.744154166120712,44.16285460165582 6.570019237041954,44.28728279499234 6.381515138473386,44.43018948777819 6.179561687778278,44.59247555584979 5.965117834700923,44.7750042414107 5.739180257698077,44.978599669725256 5.502781907946993,45.20404541540367 5.256990502720658,45.45208312004394 5.0029069698785555,45.72341116293933 4.74166384527723,46.0186833865024 4.474423624958781,46.33850787799686 5.074234893428457,47.68570604438189 5.490729420008659,47.7011122134149 5.884965215428338,47.70454641916957 6.256616314909387,47.697279454363695 6.605410803652987,47.68059046312873 6.9311310140909725,47.655764901266636 7.233613651032947,47.624092492436084 7.512749844648315,47.586865182713474 7.768485131302672,47.54537509597444 8.000819362348874,47.50091249253846 8.209806541053144,47.45476373351411 8.395554587917108,47.40820925327443 8.558225034736292,47.3625215424814 8.698032647815104,47.31896314406558 8.815244980837324,47.27878466455098 8.910181857969718,47.24322280309763 8.983214787853814,47.213498400612956 9.034766309218405,47.1908145112604 9.065309268921265,47.17635449866786 9.075366033304153,47.171280159110275 9.597697861900624,46.895256893947895 10.631228872465016,48.68538511544343 10.131019798500635,48.999726115631965 10.121596909344891,49.00589835928863 10.09380269124928,49.02511933200179 10.048382106131037,49.05842231443099 9.986123553524948,49.10680848578109 9.907857639534285,49.17124530240703 9.8144558890781,49.25266492068382 9.706829402962423,49.35196266604462 9.58592746136532,49.46999555003848 9.452736075385783,49.607580837206186 9.308276488365443,49.76549466351714 9.153603628748389,49.944470708053885 8.98980451629999,50.14519891957114 8.817996623557974,50.368324299496436 8.639326194440674,50.61444574287661 8.454966521985892,50.88411493871088 8.266116187241074,51.17783533104536 8.073997261370259,51.49606114213743 7.879853473085788,51.839196458929365 7.684948343553266,52.207594384001496 8.551750545339683,53.40064526316492 8.962346789885544,53.32912068920342 9.348681598823756,53.25051361851618 9.710700343151323,53.16613484583932 10.048402999079343,53.07729209720158 10.36184391688752,52.985287993743626 10.65113151840372,52.89141802654694 10.916427923557531,52.79696854487699 11.157948506535373,52.70321476022889 11.375961382143021,52.61141876854395 11.570786823058828,52.522827592943806 11.742796608738036,52.43867124930436 11.892413306803949,52.360160836964894 12.020109487837352,52.28848665683823 12.126406874549087,52.22481635915655 12.211875426393902,52.17029312305277 12.277132360755456,52.12603387014157 12.322841111902797,52.09312751422492 12.349710228988094,52.07263324920655 12.358492214423165,52.06557887725597 12.812021375586752,51.686988489039265 14.195155839166024,53.22311493398196 13.77123270244503,53.63458614345896 13.763299007640153,53.64258263759963 13.740108424831615,53.667162328822 13.70260446786041,53.709181031832266 13.6517664647012,53.769454130187256 13.588608016207608,53.84875524628004 13.51417540859622,53.947814966412835 13.429545981559112,54.067319622500854 13.335826453945106,54.20791013188775 13.234151208997499,54.37018089668847 13.12568054118237,54.554678764009466 13.011598866684821,54.76190204832851 12.893112899692468,54.99229961724729 12.771449796624356,55.24627004175987 12.647855270500873,55.52416081210824 12.523591677684525,55.82626762022402 12.399936079254022,56.152833709680884 12.27817827930393,56.504049294008055 12.159618842489603,56.88005104413911 12.045567093162159,57.280921645693894 13.141476812668806,58.267683189322995 13.528229749034299,58.11235383946209 13.889778886500348,57.95514099852056 14.22634331938865,57.79733817523296 14.53819491595991,57.640224523622706 14.825657668973662,57.48506289937468 15.089106978721897,57.33309794181643 15.328968869475545,57.18555418376702 15.545719140356404,57.043634191479555 15.739882451719588,56.90851673686832 15.912031348202738,56.78135500417373 16.06278521966847,56.66327483317852 16.19280920133506,56.55537300104659 16.30281301445764,56.458715544811504 16.39354974898813,56.374336126495415 16.46581458970614,56.30323444279046 16.520443487376035,56.2463746811844 16.558311776546063,56.20468402435942 16.580332741664847,56.17905120463891 16.587456133247937,56.17032511020024 16.95236122636143,55.7057138155725 18.624649529881612,56.92070238716585 18.29553980568761,57.41132053961924 18.28944204576667,57.42079179907854 18.2718686379947,57.449655958357255 18.243920412054123,57.498553962998926 18.206724823027656,57.568079764738286 18.161434167298168,57.65877934099568 18.109223764651468,57.77114977787339 18.051290108751502,57.90563841777063 17.988848988193514,58.06264207266224 17.923133580374,58.242506304012664 17.855392520447612,58.445524770222775 17.786887947669722,58.67193864243174 17.718893531449734,58.9219360894201 17.652692479463944,59.195651832283446 17.589575530198207,59.49316676946793 17.53083893230924,59.81450767268127 17.477782413209862,60.159646954113285 17.431707139297064,60.5285025053211 17.39391367025296,60.920937608053976 17.365699909857216,61.3367609172129 18.64282063358341,62.07410691084386 18.988827302602864,61.8417614230254 19.30978933638424,61.61281376736963 19.606189977100726,61.38848363407091 19.878561103115068,61.16996569997847 20.12748218962837,60.958427862468085 20.353579208602596,60.75500951240234 20.55752346934509,60.56081984819372 20.740030401208273,60.37693623293754 20.90185827992149,60.204402596532 21.043806899133607,60.044227884651406 21.16671618880548,59.89738455638444 21.27146478214963,59.76480713229465 21.358968532871074,59.64739079460256 21.43017898451817,59.54599004112985 21.48608179380482,59.461417394585354 21.52769510981635,59.39444216871003 21.556067911060126,59.34578929273395 21.57227830236838,59.316138195533 21.57743177370549,59.306121750805644 21.83776469519092,58.77579529279445 23.72611981525862,59.61654516029783 23.506207177782564,60.16486788821832 23.5022118541144,60.17539997350971 23.4910236636252,60.20728709857869 23.473852640299327,60.26092732741027 23.451925091130295,60.336667221376175 23.426481647148968,60.43480125109088 23.39877529459592,60.555571277408774 23.37006938859245,60.699166102203634 23.341635651684612,60.86572108949406 23.31475215965241,61.05531785739985 23.290701316991225,61.26798404133501 23.270767824484796,61.50369312876405 23.256236641299395,61.762364365767766 23.248390944035595,62.043862735584895 23.248510085179245,62.34799900921547 23.257867553394878,62.674529868091206 23.277728938104687,63.02315809873778 23.309349900792867,63.39353285927315 23.353974155469405,63.78525001750587 23.412831460719293,64.19785256031706 24.815346884733003,64.65355744584956 25.105485134646067,64.35435043280854 25.37183248371981,64.06367407360344 25.61511520197709,63.782620933574165 25.836101932246024,63.51224899928475 26.035602306322346,63.253580167082376 26.214465509859522,63.00759878251655 26.373578797763273,62.77525023230004 26.513865961920942,62.557439590433304 26.636285753148105,62.355030320052634 26.74183025928457,62.16884303249877 26.83152324141972,61.99965430503778 26.906418430272765,61.848195558599926 26.967597784796965,61.71515199683407 27.01616971511804,61.60116160770629 27.053267271956052,61.506814228800835 27.080046304716667,61.43265067740978 27.097683590472027,61.37916194642516 27.10737493608351,61.34678846697321 27.110333255748102,61.33591943865598 27.254716207720595,60.76305562826511 29.27660796425563,61.19282198810316 29.175503651013138,61.77488495713624 29.173785378413733,61.78601756559395 29.16947138281858,61.81953403607626 29.16382801822246,61.875572153703445 29.158126848029607,61.95421594308925 29.15364261638961,62.05549549826342 29.151651214486627,62.17938688435252 29.153427644218215,62.325812111157035 29.160243981703598,62.49463917868219 29.17336734306183,62.68568219459962 29.194057854898883,62.89870156353629 29.22356663193796,63.13340424800708 29.263133764220697,63.38944410072676 29.313986316297154,63.666422267957635 29.37733634081051,63.96388766346888 29.4543789088676,64.28133751260523 29.546290159569285,64.61821796588326 29.65422537105475,64.97392478145551 29.779317055391633,65.34780407570582 29.92267307961905,65.73915314116178 31.38928654987519,65.89330042838338 31.610875946922874,65.54030867234427 31.81096795405808,65.200607561307 31.990500127668312,64.87511478540905 32.15044428166709,64.5647054018396 32.291804819650295,64.27021064414326 32.41561702747498,63.99241679193252 32.52294532834833,63.73206410228461 32.61488150255428,63.489845804028334 32.692542873983435,63.26640715605561 32.757070465667354,63.0623445707203 32.809627126551796,62.87820480331292 32.85139563177387,62.71448420852603 32.883576758737,62.5716280647494 32.90738734130304,62.45002996695801 32.92405830444477,62.350031288878725 32.93483268172278,62.271920715043954 32.94096361796913,62.215933843262206 32.943712359576374,62.1822528579565 32.94434623480352,62.17100627474224 32.966468989435604,61.58064200939133 35.03353101056436,61.58064200939133 35.055653765196446,62.17100627474224 35.05628764042359,62.1822528579565 35.05903638203083,62.215933843262206 35.06516731827718,62.271920715043954 35.07594169555519,62.350031288878725 35.09261265869692,62.45002996695801 35.116423241262964,62.5716280647494 35.148604368226096,62.71448420852603 35.19037287344817,62.87820480331292 35.2429295343326,63.0623445707203 35.30745712601653,63.26640715605561 35.38511849744568,63.489845804028334 35.477054671651636,63.73206410228462 35.584382972524985,63.99241679193252 35.70819518034967,64.27021064414326 35.849555718332866,64.5647054018396 36.009499872331645,64.87511478540905 36.18903204594188,65.200607561307 36.38912405307708,65.54030867234427 36.61071345012477,65.89330042838338 38.07732692038091,65.73915314116178 38.22068294460833,65.34780407570582 38.34577462894521,64.97392478145551 38.453709840430676,64.61821796588326 38.54562109113236,64.28133751260525 38.622663659189456,63.96388766346888 38.68601368370281,63.66642226795764 38.73686623577927,63.38944410072678 38.776433368062,63.13340424800709 38.80594214510108,62.89870156353629 38.82663265693813,62.685682194599636 38.83975601829636,62.4946391786822 38.846572355781746,62.32581211115704 38.84834878551334,62.179386884352525 38.84635738361035,62.055495498263426 38.84187315197036,61.95421594308925 38.836171981777504,61.87557215370345 38.830528617181386,61.81953403607627 38.82621462158623,61.78601756559396 38.82449634898683,61.77488495713624 38.72339203574434,61.19282198810316 40.745283792279395,60.763055628265114 40.88966674425188,61.33591943865598 40.89262506391648,61.34678846697321 40.90231640952796,61.37916194642516 40.919953695283326,61.43265067740979 40.94673272804394,61.506814228800835 40.983830284881954,61.60116160770629 41.03240221520303,61.71515199683407 41.09358156972723,61.848195558599926 41.16847675858027,61.99965430503779 41.25816974071542,62.16884303249878 41.363714246851885,62.35503032005264 41.48613403807905,62.55743959043331 41.62642120223671,62.77525023230004 41.78553449014046,63.00759878251656 41.96439769367765,63.25358016708238 42.16389806775397,63.51224899928476 42.384884798022895,63.782620933574165 42.62816751628018,64.06367407360344 42.89451486535392,64.35435043280854 43.18465311526698,64.65355744584956 44.5871685392807,64.19785256031706 44.646025844530584,63.785250017505874 44.69065009920712,63.39353285927315 44.7222710618953,63.02315809873778 44.74213244660511,62.67452986809121 44.751489914820745,62.34799900921547 44.751609055964394,62.0438627355849 44.7437633587006,61.762364365767766 44.72923217551519,61.503693128764056 44.70929868300877,61.26798404133501 44.68524784034758,61.05531785739986 44.65836434831538,60.865721089494066 44.62993061140754,60.699166102203634 44.601224705404064,60.555571277408774 44.573518352851025,60.43480125109089 44.548074908869694,60.336667221376175 44.52614735970066,60.26092732741027 44.508976336374786,60.20728709857869 44.49778814588559,60.17539997350972 44.49379282221742,60.16486788821832 44.27388018474137,59.61654516029784 46.16223530480907,58.775795292794456 46.4225682262945,59.306121750805644 46.42772169763161,59.31613819553301 46.44393208893987,59.345789292733954 46.47230489018364,59.39444216871003 46.51391820619517,59.46141739458536 46.569821015481814,59.54599004112985 46.64103146712892,59.64739079460256 46.728535217850364,59.764807132294656 46.833283811194505,59.89738455638444 46.956193100866386,60.04422788465141 47.098141720078495,60.204402596532006 47.25996959879171,60.37693623293754 47.4424765306549,60.56081984819372 47.64642079139739,60.75500951240234 47.87251781037162,60.958427862468085 48.121438896884925,61.169965699978476 48.39381002289926,61.388483634070916 48.690210663615744,61.61281376736963 49.01117269739713,61.8417614230254 49.35717936641658,62.07410691084387 50.63430009014277,61.3367609172129 50.60608632974703,60.92093760805399 50.568292860702925,60.528502505321114 50.52221758679013,60.15964695411329 50.46916106769075,59.81450767268128 50.41042446980178,59.49316676946794 50.34730752053605,59.19565183228346 50.281106468550256,58.92193608942011 50.21311205233027,58.67193864243174 50.14460747955238,58.44552477022278 50.076866419625986,58.24250630401268 50.011151011806476,58.06264207266224 49.94870989124849,57.90563841777063 49.890776235348525,57.77114977787339 49.83856583270182,57.658779340995686 49.79327517697234,57.568079764738286 49.75607958794586,57.498553962998926 49.72813136200529,57.449655958357255 49.71055795423332,57.42079179907854 49.704460194312375,57.411320539619254 49.37535047011838,56.92070238716586 51.04763877363857,55.70571381557251 51.41254386675205,56.170325110200245 51.419667258335146,56.179051204638924 51.44168822345392,56.20468402435943 51.47955651262396,56.246374681184406 51.53418541029385,56.30323444279047 51.606450251011864,56.37433612649542 51.697186985542345,56.45871554481151 51.807190798664934,56.55537300104659 51.937214780331516,56.66327483317853 52.087968651797254,56.78135500417373 52.260117548280405,56.90851673686833 52.45428085964359,57.04363419147956 52.67103113052445,57.185554183767024 52.91089302127809,57.33309794181643 53.174342331026324,57.48506289937468 53.46180508404008,57.64022452362271 53.77365668061134,57.797338175232966 54.11022111349964,57.95514099852057 54.47177025096569,58.1123538394621 54.85852318733119,58.267683189322995 55.954432906837866,57.280921645693866 55.84038115751042,56.880051044139094 55.72182172069609,56.504049294008034 55.600063920745995,56.15283370968086 55.4764083223155,55.826267620224 55.352144729499145,55.52416081210822 55.22855020337566,55.24627004175984 55.10688710030755,54.992299617247276 54.9884011333152,54.761902048328494 54.87431945881765,54.554678764009445 54.76584879100252,54.37018089668845 54.66417354605491,54.20791013188773 54.57045401844091,54.06731962250083 54.4858245914038,53.94781496641281 54.41139198379241,53.84875524628002 54.34823353529882,53.76945413018724 54.29739553213961,53.709181031832244 54.2598915751684,53.66716232882199 54.236700992359864,53.64258263759962 54.22876729755499,53.63458614345895 53.804844160833994,53.22311493398195 55.187978624413226,51.686988489039294 55.64150778557681,52.065578877256 55.650289771011884,52.072633249206575 55.67715888809718,52.093127514224946 55.72286763924453,52.1260338701416 55.78812457360607,52.1702931230528 55.873593125450896,52.22481635915658 55.979890512162626,52.28848665683826 56.107586693196026,52.36016083696492 56.25720339126194,52.43867124930439 56.42921317694115,52.522827592943834 56.624038617856954,52.61141876854398 56.8420514934646,52.70321476022892 57.08357207644245,52.79696854487702 57.348868481596256,52.891418026546965 57.638156083112456,52.985287993743654 57.95159700092063,53.07729209720161 58.289299656848655,53.16613484583935 58.651318401176226,53.25051361851622 59.03765321011443,53.32912068920345 59.4482494546603,53.40064526316495 60.31505165644674,52.20759438400148 60.120146526914226,51.83919645892935 59.92600273862975,51.496061142137414 59.73388381275893,51.177835331045344 59.54503347801412,50.884114938710866 59.36067380555933,50.6144457428766 59.18200337644203,50.36832429949642 59.010195483700016,50.14519891957113 58.846396371251615,49.94447070805387 58.691723511634564,49.76549466351713 58.54726392461422,49.60758083720617 58.414072538634684,49.469995550038476 58.29317059703758,49.35196266604461 58.18554411092191,49.252664920683806 58.092142360465715,49.171245302407016 58.01387644647506,49.10680848578107 57.95161789386897,49.058422314430985 57.90619730875073,49.025119332001786 57.87840309065511,49.00589835928862 57.86898020149937,48.99972611563195 57.36877112753499,48.685385115443424 58.402302138099365,46.895256893947916 58.924633966695836,47.171280159110296 58.934690731078724,47.176354498667884 58.96523369078158,47.19081451126042 59.016785212146175,47.21349840061298 59.08981814203027,47.24322280309765 59.184755019162665,47.278784664551 59.30196735218489,47.3189631440656 59.44177496526369,47.36252154248143 59.60444541208288,47.40820925327445 59.790193458946845,47.454763733514135 59.99918063765111,47.50091249253848 60.23151486869732,47.545375095974464 60.487250155351674,47.586865182713495 60.76638634896704,47.624092492436105 61.06886898590901,47.655764901266664 61.394589196347,47.68059046312875 61.7433836850906,47.697279454363716 62.11503478457165,47.70454641916959 62.50927057999132,47.701112213414916 62.92576510657153,47.68570604438192 63.525576375041226,46.33850787799683 63.258336154722784,46.018683386502374 62.99709303012145,45.7234111629393 62.74300949727935,45.45208312004391 62.49721809205302,45.20404541540364 62.26081974230193,44.97859966972523 62.03488216529909,44.77500424141068 61.82043831222173,44.59247555584976 61.618484861526625,44.430189487778165 61.42998076295805,44.28728279499232 61.2558458338793,44.162854601655795 61.09695940955833,44.05596792937781 60.9541590489778,43.96565127419212 60.82823929767598,43.890900227514265 60.71995050906126,43.83067913910685 60.629997725576445,43.78392282003645 60.55903962102205,43.74953828356186 60.50768750527858,43.726406521851324 60.47650439259813,43.71338431638739 60.46600413456366,43.709306079880236 59.91137066015758,43.505833499063876 60.55012795311339,41.539940694283146 61.11843404180688,41.70133329519702 61.12932605627635,41.70420582937358 61.162207984696366,41.711999617603155 61.21734922742293,41.723469645577524 61.29496626334276,41.73736009861358 61.39522226867436,41.752406361426246 61.51822680660683,41.76733703042123 61.66403558816813,41.78087593609908 61.83265030463518,41.791744173150036 62.02401853171794,41.79866213581031 62.23803370566954,41.80035155604318 62.47453517139425,41.7955375421048 62.73330830254427,41.78295061505275 63.01408469351613,41.761328740756696 63.3165424231768,41.72941935497414 63.64030639006947,41.685981379060735 63.98494871876889,41.62978722389329 64.34998923697627,41.55962477959538 64.73489602286435,41.474299388669436 65.13908602210485,41.37263580015567 65.44569172661188,39.930169370994044 65.11779609549627,39.67289617804375 64.80087121270677,39.43839186075256 64.49592774250664,39.225819923504794 64.20393753064519,39.03430534446848 63.925832245847076,38.86293610984077 63.662502077242486,38.71076479376844 63.414794489225045,38.57681018200073 63.18351303515878,38.46005893728447 62.969416231289166,38.35946730446666 62.77321649214483,38.273962853226095 62.595579128646904,38.202446256315525 62.43712141007247,38.14379310115702 62.29841169094641,38.09685573259725 62.17996860386289,38.060465124595446 62.082260319163545,38.03343277858569 62.00570387232462,38.01455264622585 61.950664559828724,38.002603074219245 61.91745540422074,37.99634876887078 61.906336688969475,37.99454277801806 61.32151895837993,37.91083134472532 "/></svg>