<?xml version="1.0" encoding="UTF-8" standalone="no"?>
<svg
   version="1.1"
   x="0px"
   y="0px"
   width="210mm"
   height="297mm"
   viewBox="0 0 793.70075 1122.5197"
   enable-background="new 0 0 595.28 822.05"
   xml:space="preserve"
   id="svg658"
   sodipodi:docname="COPY FOR CADDecals-Airspeed-Upgrade4b - Copy.svg"
   inkscape:version="1.4.2 (f4327f4, 2025-05-13)"
   xmlns:inkscape="http://www.inkscape.org/namespaces/inkscape"
   xmlns:sodipodi="http://sodipodi.sourceforge.net/DTD/sodipodi-0.dtd"
   xmlns="http://www.w3.org/2000/svg"
   xmlns:svg="http://www.w3.org/2000/svg"
   xmlns:rdf="http://www.w3.org/1999/02/22-rdf-syntax-ns#"
   xmlns:cc="http://creativecommons.org/ns#"
   xmlns:dc="http://purl.org/dc/elements/1.1/"><metadata
   id="metadata664"><rdf:RDF><cc:Work
       rdf:about=""><dc:format>image/svg+xml</dc:format><dc:type
         rdf:resource="http://purl.org/dc/dcmitype/StillImage" /></cc:Work></rdf:RDF></metadata><defs
   id="defs662"><rect
   x="28.002309"
   y="390.00616"
   width="381.4492"
   height="43.107271"
   id="rect4024" />
	
	
		
	
	
	
	
		
	
		
	
		
	
		
	
		
	
		
	
		
	
		
	
		
	
		
	
		
	
		
	
		
	
		
	
		
	
		
	
		
	
		
	
		
	
		
	
		
	
		
	
		
	
		
	
		
	
		
	
		
	
		
	
		
	
		
	
		
	
		
	
		
	
	
	
	
	
	
	
	
	
	
	
	
	
	
	
	
		
	
	
		
	
	
		
	
	
		
	
	
		
	
	
		
	
	
		
	
	
<marker
   id="DistanceX"
   orient="auto"
   refX="0"
   refY="0"
   style="overflow:visible"><path
     d="M 3,-3 -3,3 M 0,-5 V 5"
     style="stroke:#000000;stroke-width:0.5"
     id="path1156" /></marker><pattern
   id="Hatch"
   patternUnits="userSpaceOnUse"
   width="8"
   height="8"
   x="0"
   y="0"><path
     d="M8 4 l-4,4"
     stroke="#000000"
     stroke-width="0.25"
     linecap="square"
     id="path1159" /><path
     d="M6 2 l-4,4"
     stroke="#000000"
     stroke-width="0.25"
     linecap="square"
     id="path1161" /><path
     d="M4 0 l-4,4"
     stroke="#000000"
     stroke-width="0.25"
     linecap="square"
     id="path1163" /></pattern><symbol
   id="*MODEL_SPACE" /><symbol
   id="*PAPER_SPACE" /></defs><sodipodi:namedview
   pagecolor="#ffffff"
   bordercolor="#666666"
   borderopacity="1"
   objecttolerance="10"
   gridtolerance="10"
   guidetolerance="10"
   inkscape:pageopacity="0"
   inkscape:pageshadow="2"
   inkscape:window-width="1920"
   inkscape:window-height="1009"
   id="namedview660"
   showgrid="false"
   inkscape:zoom="1.0066647"
   inkscape:cx="237.91437"
   inkscape:cy="242.88126"
   inkscape:window-x="1912"
   inkscape:window-y="-8"
   inkscape:window-maximized="1"
   inkscape:current-layer="svg658"
   inkscape:showpageshadow="2"
   inkscape:pagecheckerboard="0"
   inkscape:deskcolor="#d1d1d1"
   inkscape:document-units="mm" />


<g
   id="Instrument_Perimeter"
   transform="matrix(1.32,0,0,1.32,-293.68889,-33.432681)">
	<g
   id="g90">
		<path
   d="m 427.438,37.088 c -1.681,-1.021 -4.866,-1.822 -6.83,-1.717 h -137.21 c -1.947,-0.104 -5.112,0.685 -6.783,1.691 L 254.903,48.61 c -2.706,1.239 -5.749,4.655 -6.667,7.486 L 235.11,89.615 c -0.591,1.325 -1.062,3.817 -0.995,5.267 v 116.783 c -0.067,1.449 0.404,3.941 0.995,5.268 l 13.126,33.518 c 1.103,3.387 4.809,7.089 8.197,8.188 l 29.578,11.548 c 1.322,0.587 3.809,1.055 5.253,0.989 H 412.77 c 1.445,0.065 3.931,-0.402 5.253,-0.989 l 29.579,-11.548 c 3.388,-1.1 7.094,-4.802 8.196,-8.188 l 13.126,-33.518 c 0.591,-1.326 1.062,-3.818 0.995,-5.268 V 94.882 c 0.066,-1.45 -0.404,-3.942 -0.995,-5.267 L 455.798,56.097 c -1.103,-3.387 -4.809,-7.089 -8.196,-8.188 z"
   id="path52" />
		<g
   id="CIRCLE_31_">
			<path
   fill="#ffffff"
   d="m 282.312,229.377 c 0,-3.533 -2.864,-6.397 -6.397,-6.397 -3.533,0 -6.398,2.864 -6.398,6.397 0,3.533 2.865,6.397 6.398,6.397 3.533,0 6.397,-2.864 6.397,-6.397 z"
   id="path54" />
		</g>
		<g
   id="CIRCLE_30_">
			<path
   fill="#ffffff"
   d="m 447.526,242.644 c 0,-3.391 -2.749,-6.14 -6.139,-6.14 -3.391,0 -6.14,2.749 -6.14,6.14 0,3.39 2.749,6.139 6.14,6.139 3.39,-10e-4 6.139,-2.75 6.139,-6.139 z"
   id="path57" />
		</g>
		<g
   id="CIRCLE_29_">
			<path
   fill="#ffffff"
   d="m 461.09,206.615 c 0,-2.198 -1.782,-3.98 -3.981,-3.98 -2.198,0 -3.98,1.782 -3.98,3.98 0,2.198 1.782,3.98 3.98,3.98 2.199,0.001 3.981,-1.782 3.981,-3.98 z"
   id="path60" />
		</g>
		<g
   id="CIRCLE_27_">
			<path
   fill="#ffffff"
   d="m 447.526,63.904 c 0,-3.391 -2.749,-6.139 -6.139,-6.139 -3.391,0 -6.14,2.749 -6.14,6.139 0,3.39 2.749,6.139 6.14,6.139 3.39,-0.001 6.139,-2.749 6.139,-6.139 z"
   id="path63" />
		</g>
		<g
   id="CIRCLE_26_">
			<path
   fill="#ffffff"
   d="m 268.787,63.904 c 0,-3.391 -2.749,-6.139 -6.139,-6.139 -3.391,0 -6.14,2.749 -6.14,6.139 0,3.39 2.749,6.139 6.14,6.139 3.39,-0.001 6.139,-2.749 6.139,-6.139 z"
   id="path66" />
		</g>
		<g
   id="CIRCLE_25_">
			<path
   fill="#ffffff"
   d="m 409.34,48.183 c 0,-2.199 -1.782,-3.981 -3.98,-3.981 -2.198,0 -3.98,1.782 -3.98,3.981 0,2.198 1.782,3.98 3.98,3.98 2.198,0 3.98,-1.782 3.98,-3.98 z"
   id="path69" />
		</g>
		<g
   id="CIRCLE_24_">
			<path
   fill="#ffffff"
   d="m 409.34,258.364 c 0,-2.198 -1.782,-3.98 -3.98,-3.98 -2.198,0 -3.98,1.782 -3.98,3.98 0,2.199 1.782,3.981 3.98,3.981 2.198,0 3.98,-1.782 3.98,-3.981 z"
   id="path72" />
		</g>
		<g
   id="CIRCLE_23_">
			<path
   fill="#ffffff"
   d="m 302.656,258.364 c 0,-2.198 -1.781,-3.98 -3.98,-3.98 -2.198,0 -3.98,1.782 -3.98,3.98 0,2.199 1.782,3.981 3.98,3.981 2.199,10e-4 3.98,-1.782 3.98,-3.981 z"
   id="path75" />
		</g>
		<g
   id="CIRCLE_22_">
			<path
   fill="#ffffff"
   d="m 461.09,99.932 c 0,-2.198 -1.782,-3.98 -3.981,-3.98 -2.198,0 -3.98,1.782 -3.98,3.98 0,2.199 1.782,3.981 3.98,3.981 2.199,0 3.981,-1.783 3.981,-3.981 z"
   id="path78" />
		</g>
		<g
   id="CIRCLE_5_">
			<path
   fill="#ffffff"
   d="m 302.656,48.183 c 0,-2.199 -1.781,-3.981 -3.98,-3.981 -2.198,0 -3.98,1.782 -3.98,3.981 0,2.198 1.782,3.98 3.98,3.98 2.199,0 3.98,-1.782 3.98,-3.98 z"
   id="path81" />
		</g>
		<g
   id="CIRCLE_4_">
			<path
   fill="#ffffff"
   d="m 250.907,206.615 c 0,-2.198 -1.782,-3.98 -3.981,-3.98 -2.198,0 -3.98,1.782 -3.98,3.98 0,2.198 1.782,3.98 3.98,3.98 2.199,0.001 3.981,-1.782 3.981,-3.98 z"
   id="path84" />
		</g>
		<g
   id="CIRCLE_1_">
			<path
   fill="#ffffff"
   d="m 250.907,99.932 c 0,-2.198 -1.782,-3.98 -3.981,-3.98 -2.198,0 -3.98,1.782 -3.98,3.98 0,2.199 1.782,3.981 3.98,3.981 2.199,0 3.981,-1.783 3.981,-3.981 z"
   id="path87" />
		</g>
	</g>
</g>
<path
   fill="#0db14b"
   d="m 106.76082,246.15519 c 17.1864,14.74704 39.44952,23.77056 63.86556,24.06888 55.23276,0.67452 100.55232,-43.55208 101.22816,-98.7822 0.32604,-26.66268 -9.8142,-51.01668 -26.60328,-69.15215 l -10.81872,9.95015 c 14.33916,15.47436 23.00232,36.26172 22.7238,59.0238 -0.57684,47.11212 -39.23568,84.83904 -86.34648,84.26352 -20.80716,-0.25476 -39.77952,-7.93452 -54.4302,-20.49036 z"
   id="path93"
   style="stroke-width:1.32" /><path
   style="baseline-shift:baseline;display:inline;overflow:visible;opacity:1;vector-effect:none;fill:#ffffff;stroke-miterlimit:10;enable-background:accumulate;stop-color:#000000;stop-opacity:1"
   d="m 192.84251,71.221191 -1.41406,6.30274 2.73828,0.61523 1.41406,-6.30273 z"
   id="line95" /><path
   fill="#ffffff"
   d="m 222.9195,83.976041 c 29.8386,17.645759 49.67688,50.317069 49.2228,87.468469 -0.27588,22.5258 -7.96884,43.22472 -20.72928,59.79996 l 11.18964,8.34504 c 14.46456,-18.85884 23.18316,-42.38124 23.49468,-67.97472 0.51612,-42.22812 -21.97932,-79.378189 -55.8426,-99.516109 z"
   id="path97"
   style="stroke-width:1.32" /><path
   fill="#fce828"
   d="M 116.40474,235.03551 C 97.875901,219.15855 86.255941,195.48699 86.576701,169.17807 l -14.69952,-0.17952 c -0.3762,30.8154 13.22244,58.54464 34.910039,77.15664 z"
   id="path99"
   style="stroke-width:1.32" /><path
   fill="none"
   stroke="#dae120"
   stroke-width="0.935484"
   stroke-linecap="round"
   stroke-miterlimit="10"
   d="M 173.0631,85.216841"
   id="path101" /><path
   style="baseline-shift:baseline;display:inline;overflow:visible;opacity:1;vector-effect:none;fill:#ffffff;stroke-miterlimit:10;enable-background:accumulate;stop-color:#000000;stop-opacity:1"
   d="m 72.903061,98.111821 -2.1543,3.058589 31.341799,22.08008 2.1543,-3.06055 z"
   id="line103" /><path
   style="baseline-shift:baseline;display:inline;overflow:visible;opacity:1;vector-effect:none;fill:#ffffff;stroke-miterlimit:10;enable-background:accumulate;stop-color:#000000;stop-opacity:1"
   d="m 81.153061,87.990731 -1.24609,1.39648 20.804679,18.539059 1.24414,-1.39648 z"
   id="line105" /><path
   style="baseline-shift:baseline;display:inline;overflow:visible;opacity:1;vector-effect:none;fill:#ffffff;stroke-miterlimit:10;enable-background:accumulate;stop-color:#000000;stop-opacity:1"
   d="m 91.951891,77.426271 -2.79492,2.48828 25.492179,28.644529 2.79492,-2.48632 z"
   id="line107" /><path
   style="baseline-shift:baseline;display:inline;overflow:visible;opacity:1;vector-effect:none;fill:#ffffff;stroke-miterlimit:10;enable-background:accumulate;stop-color:#000000;stop-opacity:1"
   d="m 64.774151,110.86963 -0.89453,1.64453 24.48828,13.3086 0.89453,-1.64454 z"
   id="line109" /><path
   style="baseline-shift:baseline;display:inline;overflow:visible;opacity:1;vector-effect:none;fill:#ffffff;stroke-miterlimit:10;enable-background:accumulate;stop-color:#000000;stop-opacity:1"
   d="m 59.020251,122.67822 -1.39649,3.47071 35.57617,14.33398 1.39844,-3.4707 z"
   id="line111" /><path
   style="baseline-shift:baseline;display:inline;overflow:visible;opacity:1;vector-effect:none;fill:#ffffff;stroke-miterlimit:10;enable-background:accumulate;stop-color:#000000;stop-opacity:1"
   d="m 54.237041,136.26416 -0.5039,1.80274 26.83984,7.51562 0.50391,-1.80273 z"
   id="line113" /><path
   style="baseline-shift:baseline;display:inline;overflow:visible;opacity:1;vector-effect:none;fill:#ffffff;stroke-miterlimit:10;enable-background:accumulate;stop-color:#000000;stop-opacity:1"
   d="m 51.350321,148.68604 -0.60156,3.69336 37.84961,6.16015 0.60156,-3.69336 z"
   id="line115" /><path
   style="baseline-shift:baseline;display:inline;overflow:visible;opacity:1;vector-effect:none;fill:#ffffff;stroke-miterlimit:10;enable-background:accumulate;stop-color:#000000;stop-opacity:1"
   d="m 49.655011,163.47315 -0.0898,1.86914 27.8418,1.32226 0.0898,-1.86914 z"
   id="line117" /><path
   style="baseline-shift:baseline;display:inline;overflow:visible;opacity:1;vector-effect:none;fill:#ffffff;stroke-miterlimit:10;enable-background:accumulate;stop-color:#000000;stop-opacity:1"
   d="m 71.739001,173.59619 -22.19922,1.16211 0.19531,3.73633 22.19922,-1.16016 z"
   id="line119" /><path
   style="baseline-shift:baseline;display:inline;overflow:visible;opacity:1;vector-effect:none;fill:#ffffff;stroke-miterlimit:10;enable-background:accumulate;stop-color:#000000;stop-opacity:1"
   d="m 73.305401,187.24072 -22.03906,4.01172 0.33398,1.83985 22.04102,-4.01172 z"
   id="line121" /><path
   style="baseline-shift:baseline;display:inline;overflow:visible;opacity:1;vector-effect:none;fill:#ffffff;stroke-miterlimit:10;enable-background:accumulate;stop-color:#000000;stop-opacity:1"
   d="m 76.010481,198.85596 -21.34961,6.80273 1.13477,3.56641 21.35156,-6.80273 z"
   id="line123" /><path
   style="baseline-shift:baseline;display:inline;overflow:visible;opacity:1;vector-effect:none;fill:#ffffff;stroke-miterlimit:10;enable-background:accumulate;stop-color:#000000;stop-opacity:1"
   d="m 80.703841,211.38526 -20.3457,9.40039 0.7832,1.69922 20.34766,-9.40235 z"
   id="line125" /><path
   style="baseline-shift:baseline;display:inline;overflow:visible;opacity:1;vector-effect:none;fill:#ffffff;stroke-miterlimit:10;enable-background:accumulate;stop-color:#000000;stop-opacity:1"
   d="m 85.949931,221.44385 -19.04882,11.82227 1.97265,3.17968 19.04883,-11.82422 z"
   id="line127" /><path
   style="baseline-shift:baseline;display:inline;overflow:visible;opacity:1;vector-effect:none;fill:#ffffff;stroke-miterlimit:10;enable-background:accumulate;stop-color:#000000;stop-opacity:1"
   d="m 94.672591,233.80713 -17.1875,14.40234 1.20117,1.4336 17.18946,-14.40235 z"
   id="line129" /><path
   style="baseline-shift:baseline;display:inline;overflow:visible;opacity:1;vector-effect:none;fill:#ffffff;stroke-miterlimit:10;enable-background:accumulate;stop-color:#000000;stop-opacity:1"
   d="m 103.47923,243.23096 -14.683589,16.23633 2.77539,2.50976 14.683589,-16.23633 z"
   id="line131" /><path
   style="baseline-shift:baseline;display:inline;overflow:visible;opacity:1;vector-effect:none;fill:#ffffff;stroke-miterlimit:10;enable-background:accumulate;stop-color:#000000;stop-opacity:1"
   d="m 229.91282,232.98682 -2.80664,2.47656 24.60743,27.88086 2.80664,-2.47656 z"
   id="line133" /><path
   style="baseline-shift:baseline;display:inline;overflow:visible;opacity:1;vector-effect:none;fill:#ffffff;stroke-miterlimit:10;enable-background:accumulate;stop-color:#000000;stop-opacity:1"
   d="m 248.94798,227.05713 -1.12695,1.49414 21.17578,15.96875 1.12695,-1.49414 z"
   id="line135" /><path
   style="baseline-shift:baseline;display:inline;overflow:visible;opacity:1;vector-effect:none;fill:#ffffff;stroke-miterlimit:10;enable-background:accumulate;stop-color:#000000;stop-opacity:1"
   d="m 249.7722,205.57276 -1.62305,3.37109 33.50977,16.13281 1.62305,-3.37109 z"
   id="line137" /><path
   style="baseline-shift:baseline;display:inline;overflow:visible;opacity:1;vector-effect:none;fill:#ffffff;stroke-miterlimit:10;enable-background:accumulate;stop-color:#000000;stop-opacity:1"
   d="m 265.05736,192.49658 -0.45313,1.81446 26.11719,6.52343 0.45312,-1.8164 z"
   id="line139" /><path
   style="baseline-shift:baseline;display:inline;overflow:visible;opacity:1;vector-effect:none;fill:#ffffff;stroke-miterlimit:10;enable-background:accumulate;stop-color:#000000;stop-opacity:1"
   d="m 257.40697,172.14502 -0.16602,3.73828 37.19336,1.6543 0.16601,-3.73828 z"
   id="line141" /><path
   style="baseline-shift:baseline;display:inline;overflow:visible;opacity:1;vector-effect:none;fill:#ffffff;stroke-miterlimit:10;enable-background:accumulate;stop-color:#000000;stop-opacity:1"
   d="m 293.31712,152.56885 -26.66601,3.67383 0.25586,1.85351 26.66601,-3.67382 z"
   id="line143" /><path
   style="baseline-shift:baseline;display:inline;overflow:visible;opacity:1;vector-effect:none;fill:#ffffff;stroke-miterlimit:10;enable-background:accumulate;stop-color:#000000;stop-opacity:1"
   d="m 287.71947,129.66065 -35.27149,11.76562 1.18359,3.54883 35.27149,-11.76563 z"
   id="line145" /><path
   style="baseline-shift:baseline;display:inline;overflow:visible;opacity:1;vector-effect:none;fill:#ffffff;stroke-miterlimit:10;enable-background:accumulate;stop-color:#000000;stop-opacity:1"
   d="m 278.81907,110.05908 -23.55468,13.03321 0.90625,1.63672 23.55468,-13.03321 z"
   id="line147" /><path
   style="baseline-shift:baseline;display:inline;overflow:visible;opacity:1;vector-effect:none;fill:#ffffff;stroke-miterlimit:10;enable-background:accumulate;stop-color:#000000;stop-opacity:1"
   d="m 265.49486,90.937991 -28.72071,23.619139 2.37696,2.89063 28.7207,-23.619139 z"
   id="line149" /><path
   style="baseline-shift:baseline;display:inline;overflow:visible;opacity:1;vector-effect:none;fill:#ffffff;stroke-miterlimit:10;enable-background:accumulate;stop-color:#000000;stop-opacity:1"
   d="m 252.00462,77.357911 -17.7207,20.26172 1.4082,1.23047 17.7207,-20.25977 z"
   id="line151" /><path
   style="baseline-shift:baseline;display:inline;overflow:visible;opacity:1;vector-effect:none;fill:#ffffff;stroke-miterlimit:10;enable-background:accumulate;stop-color:#000000;stop-opacity:1"
   d="m 234.70384,64.877445 -19.50977,31.679686 3.18555,1.96094 19.51172,-31.67969 z"
   id="line153" /><path
   style="baseline-shift:baseline;display:inline;overflow:visible;opacity:1;vector-effect:none;fill:#ffffff;stroke-miterlimit:10;enable-background:accumulate;stop-color:#000000;stop-opacity:1"
   d="m 156.1765,70.305181 -2.76563,0.47851 1.09961,6.36329 2.76563,-0.47852 z"
   id="line155" /><path
   style="baseline-shift:baseline;display:inline;overflow:visible;opacity:1;vector-effect:none;fill:#ffffff;stroke-miterlimit:10;enable-background:accumulate;stop-color:#000000;stop-opacity:1"
   d="m 162.76634,69.490731 -2.79102,0.29492 0.68165,6.42383 2.79101,-0.29688 z"
   id="line157" /><path
   style="baseline-shift:baseline;display:inline;overflow:visible;opacity:1;vector-effect:none;fill:#ffffff;stroke-miterlimit:10;enable-background:accumulate;stop-color:#000000;stop-opacity:1"
   d="m 169.25657,69.109871 -2.80468,0.11718 0.26758,6.45313 2.80273,-0.11524 z"
   id="line159" /><path
   style="baseline-shift:baseline;display:inline;overflow:visible;opacity:1;vector-effect:none;fill:#ffffff;stroke-miterlimit:10;enable-background:accumulate;stop-color:#000000;stop-opacity:1"
   d="m 173.09251,69.080571 -0.16015,6.45703 2.80664,0.0684 0.1582,-6.45508 z"
   id="line161" /><path
   style="baseline-shift:baseline;display:inline;overflow:visible;opacity:1;vector-effect:none;fill:#ffffff;stroke-miterlimit:10;enable-background:accumulate;stop-color:#000000;stop-opacity:1"
   d="m 179.70384,69.357911 -0.58008,6.4375 2.79492,0.25196 0.58008,-6.4375 z"
   id="line163" /><path
   style="baseline-shift:baseline;display:inline;overflow:visible;opacity:1;vector-effect:none;fill:#ffffff;stroke-miterlimit:10;enable-background:accumulate;stop-color:#000000;stop-opacity:1"
   d="m 186.01048,70.033691 -0.98047,6.38477 2.77344,0.42578 0.98047,-6.38476 z"
   id="line165" /><path
   style="baseline-shift:baseline;display:inline;overflow:visible;opacity:1;vector-effect:none;fill:#ed1c24;stroke-miterlimit:10;enable-background:accumulate;stop-color:#000000;stop-opacity:1"
   d="m 49.481181,168.20557 -0.0195,2.80664 37.45117,0.27344 0.0195,-2.80664 z"
   id="line167" /><g
   id="g173"
   transform="matrix(1.32,0,0,1.32,-293.68889,-33.432681)">
		<path
   fill="#ffffff"
   d="m 378.064,116.605 v -2.593 h -6.328 v -2.162 l 6.707,-8.183 h 2.49 v 8.174 h 1.92 v 2.171 h -1.92 v 2.593 z m 0,-4.764 v -4.403 l -3.555,4.403 z"
   id="path169" />
		<path
   fill="#ffffff"
   d="m 388.736,103.667 c 1.496,0 2.668,0.445 3.512,1.336 1.006,1.055 1.508,2.804 1.508,5.247 0,2.438 -0.506,4.189 -1.52,5.256 -0.836,0.879 -2.004,1.318 -3.5,1.318 -1.506,0 -2.719,-0.482 -3.639,-1.446 -0.922,-0.964 -1.383,-2.682 -1.383,-5.155 0,-2.426 0.506,-4.172 1.52,-5.238 0.836,-0.878 2.004,-1.318 3.502,-1.318 z m 0,2.048 c -0.359,0 -0.68,0.095 -0.961,0.286 -0.281,0.191 -0.5,0.532 -0.654,1.024 -0.203,0.639 -0.305,1.714 -0.305,3.226 0,1.512 0.09,2.55 0.273,3.116 0.183,0.566 0.414,0.942 0.691,1.129 0.277,0.187 0.596,0.281 0.955,0.281 0.357,0 0.678,-0.095 0.959,-0.286 0.281,-0.191 0.5,-0.532 0.654,-1.024 0.203,-0.633 0.305,-1.705 0.305,-3.217 0,-1.512 -0.09,-2.55 -0.273,-3.116 -0.183,-0.566 -0.414,-0.943 -0.691,-1.134 -0.277,-0.191 -0.595,-0.285 -0.953,-0.285 z"
   id="path171" />
	</g><g
   id="g179"
   transform="matrix(1.32,0,0,1.32,-293.68889,-33.432681)">
		<path
   fill="#ffffff"
   d="m 400.877,134.135 -2.868,0.264 c -0.07,-0.492 -0.254,-0.855 -0.549,-1.09 -0.295,-0.235 -0.679,-0.352 -1.149,-0.352 -0.626,0 -1.155,0.234 -1.588,0.703 -0.432,0.469 -0.705,1.444 -0.817,2.927 0.738,-0.727 1.656,-1.09 2.753,-1.09 1.237,0 2.298,0.393 3.18,1.178 0.883,0.785 1.324,1.799 1.324,3.041 0,1.318 -0.464,2.376 -1.393,3.173 -0.928,0.797 -2.12,1.195 -3.575,1.195 -1.561,0 -2.844,-0.505 -3.85,-1.516 -1.006,-1.011 -1.508,-2.667 -1.508,-4.97 0,-2.361 0.523,-4.063 1.571,-5.106 1.048,-1.043 2.408,-1.564 4.081,-1.564 1.175,0 2.146,0.274 2.917,0.822 0.77,0.547 1.26,1.342 1.471,2.385 z m -6.718,5.388 c 0,0.803 0.221,1.422 0.664,1.859 0.443,0.437 0.949,0.655 1.519,0.655 0.549,0 1.006,-0.179 1.371,-0.536 0.365,-0.357 0.549,-0.943 0.549,-1.758 0,-0.838 -0.197,-1.452 -0.591,-1.841 -0.394,-0.389 -0.886,-0.584 -1.477,-0.584 -0.569,0 -1.051,0.186 -1.445,0.558 -0.394,0.371 -0.59,0.92 -0.59,1.647 z"
   id="path175" />
		<path
   fill="#ffffff"
   d="m 407.319,130.927 c 1.497,0 2.668,0.445 3.512,1.336 1.006,1.055 1.508,2.804 1.508,5.247 0,2.438 -0.506,4.189 -1.519,5.256 -0.837,0.879 -2.004,1.318 -3.501,1.318 -1.505,0 -2.718,-0.482 -3.639,-1.446 -0.922,-0.964 -1.382,-2.682 -1.382,-5.155 0,-2.426 0.506,-4.172 1.519,-5.238 0.837,-0.878 2.004,-1.318 3.502,-1.318 z m 0,2.048 c -0.359,0 -0.679,0.095 -0.96,0.286 -0.281,0.191 -0.5,0.532 -0.654,1.024 -0.204,0.639 -0.306,1.714 -0.306,3.226 0,1.512 0.091,2.55 0.274,3.116 0.183,0.565 0.413,0.942 0.69,1.129 0.278,0.188 0.596,0.281 0.955,0.281 0.358,0 0.678,-0.095 0.959,-0.286 0.281,-0.191 0.5,-0.532 0.654,-1.024 0.204,-0.633 0.306,-1.705 0.306,-3.217 0,-1.512 -0.091,-2.55 -0.274,-3.116 -0.183,-0.565 -0.413,-0.943 -0.69,-1.134 -0.278,-0.19 -0.595,-0.285 -0.954,-0.285 z"
   id="path177" />
	</g><g
   id="g185"
   transform="matrix(1.32,0,0,1.32,-293.68889,-33.432681)">
		<path
   fill="#ffffff"
   d="m 390.459,178.272 c -0.766,-0.27 -1.323,-0.64 -1.671,-1.112 -0.349,-0.472 -0.522,-0.989 -0.522,-1.551 0,-0.961 0.402,-1.755 1.208,-2.382 0.805,-0.627 1.949,-0.94 3.433,-0.94 1.47,0 2.61,0.313 3.423,0.94 0.812,0.627 1.218,1.421 1.218,2.382 0,0.598 -0.187,1.129 -0.559,1.595 -0.373,0.466 -0.896,0.822 -1.572,1.068 0.858,0.287 1.51,0.706 1.957,1.257 0.446,0.551 0.67,1.187 0.67,1.907 0,1.189 -0.456,2.156 -1.366,2.9 -0.911,0.744 -2.122,1.116 -3.634,1.116 -1.406,0 -2.577,-0.308 -3.512,-0.923 -1.104,-0.727 -1.656,-1.723 -1.656,-2.988 0,-0.697 0.208,-1.337 0.623,-1.92 0.413,-0.583 1.067,-1.033 1.96,-1.349 z m 0.338,3.032 c 0,0.68 0.209,1.21 0.628,1.591 0.418,0.381 0.939,0.571 1.565,0.571 0.612,0 1.118,-0.183 1.52,-0.549 0.4,-0.366 0.601,-0.895 0.601,-1.586 0,-0.604 -0.204,-1.088 -0.611,-1.455 -0.408,-0.366 -0.925,-0.549 -1.551,-0.549 -0.724,0 -1.264,0.208 -1.619,0.624 -0.355,0.416 -0.533,0.867 -0.533,1.353 z m 0.274,-5.519 c 0,0.492 0.167,0.876 0.501,1.151 0.334,0.275 0.778,0.413 1.334,0.413 0.563,0 1.013,-0.139 1.35,-0.417 0.338,-0.278 0.507,-0.664 0.507,-1.156 0,-0.463 -0.167,-0.833 -0.501,-1.112 -0.334,-0.279 -0.775,-0.417 -1.324,-0.417 -0.569,0 -1.022,0.141 -1.36,0.422 -0.338,0.281 -0.507,0.653 -0.507,1.116 z"
   id="path181" />
		<path
   fill="#ffffff"
   d="m 404.4,172.287 c 1.497,0 2.668,0.445 3.512,1.336 1.006,1.055 1.508,2.804 1.508,5.247 0,2.438 -0.506,4.189 -1.519,5.256 -0.837,0.879 -2.004,1.318 -3.501,1.318 -1.505,0 -2.718,-0.482 -3.639,-1.446 -0.922,-0.964 -1.382,-2.682 -1.382,-5.155 0,-2.426 0.506,-4.172 1.519,-5.238 0.837,-0.879 2.004,-1.318 3.502,-1.318 z m 0,2.047 c -0.359,0 -0.679,0.095 -0.96,0.286 -0.281,0.191 -0.5,0.532 -0.654,1.024 -0.204,0.639 -0.306,1.714 -0.306,3.226 0,1.512 0.091,2.55 0.274,3.116 0.183,0.565 0.413,0.942 0.69,1.129 0.278,0.188 0.596,0.281 0.955,0.281 0.358,0 0.678,-0.095 0.959,-0.286 0.281,-0.191 0.5,-0.532 0.654,-1.024 0.204,-0.633 0.306,-1.705 0.306,-3.217 0,-1.512 -0.091,-2.55 -0.274,-3.116 -0.183,-0.565 -0.413,-0.943 -0.69,-1.134 -0.278,-0.189 -0.595,-0.285 -0.954,-0.285 z"
   id="path183" />
	</g><g
   id="g193"
   transform="matrix(1.32,0,0,1.32,-293.68889,-33.432681)">
		<path
   fill="#ffffff"
   d="M 318.086,118.706 V 121 h -10.389 c 0.112,-0.867 0.449,-1.689 1.013,-2.465 0.563,-0.776 1.673,-1.806 3.332,-3.089 1.336,-1.037 2.155,-1.74 2.458,-2.109 0.407,-0.51 0.611,-1.014 0.611,-1.512 0,-0.551 -0.178,-0.974 -0.532,-1.27 -0.355,-0.296 -0.846,-0.444 -1.472,-0.444 -0.618,0 -1.111,0.155 -1.477,0.466 -0.366,0.311 -0.576,0.826 -0.633,1.547 l -2.953,-0.246 c 0.176,-1.359 0.728,-2.335 1.656,-2.927 0.928,-0.592 2.088,-0.888 3.48,-0.888 1.525,0 2.725,0.343 3.597,1.028 0.871,0.686 1.308,1.538 1.308,2.558 0,0.58 -0.125,1.132 -0.375,1.657 -0.249,0.524 -0.645,1.074 -1.187,1.648 -0.358,0.381 -1.005,0.929 -1.94,1.644 -0.935,0.715 -1.527,1.189 -1.777,1.424 -0.249,0.234 -0.451,0.463 -0.606,0.686 h 5.886 z"
   id="path187" />
		<path
   fill="#ffffff"
   d="m 324.56,108.063 c 1.497,0 2.668,0.445 3.512,1.336 1.006,1.055 1.508,2.804 1.508,5.247 0,2.438 -0.506,4.189 -1.519,5.256 -0.837,0.879 -2.004,1.318 -3.501,1.318 -1.505,0 -2.718,-0.482 -3.639,-1.446 -0.922,-0.964 -1.382,-2.682 -1.382,-5.155 0,-2.426 0.506,-4.172 1.519,-5.238 0.837,-0.879 2.004,-1.318 3.502,-1.318 z m 0,2.047 c -0.359,0 -0.679,0.095 -0.96,0.286 -0.281,0.191 -0.5,0.532 -0.654,1.024 -0.204,0.639 -0.306,1.714 -0.306,3.226 0,1.512 0.091,2.55 0.274,3.116 0.183,0.565 0.413,0.942 0.69,1.129 0.278,0.188 0.596,0.281 0.955,0.281 0.358,0 0.678,-0.095 0.959,-0.286 0.281,-0.191 0.5,-0.532 0.654,-1.024 0.204,-0.633 0.306,-1.705 0.306,-3.217 0,-1.512 -0.091,-2.55 -0.274,-3.116 -0.183,-0.565 -0.413,-0.943 -0.69,-1.134 -0.279,-0.189 -0.596,-0.285 -0.954,-0.285 z"
   id="path189" />
		<path
   fill="#ffffff"
   d="m 336.032,108.063 c 1.497,0 2.668,0.445 3.512,1.336 1.006,1.055 1.508,2.804 1.508,5.247 0,2.438 -0.506,4.189 -1.519,5.256 -0.837,0.879 -2.004,1.318 -3.501,1.318 -1.505,0 -2.718,-0.482 -3.639,-1.446 -0.922,-0.964 -1.382,-2.682 -1.382,-5.155 0,-2.426 0.506,-4.172 1.519,-5.238 0.837,-0.879 2.004,-1.318 3.502,-1.318 z m 0,2.047 c -0.359,0 -0.679,0.095 -0.96,0.286 -0.281,0.191 -0.5,0.532 -0.654,1.024 -0.204,0.639 -0.306,1.714 -0.306,3.226 0,1.512 0.091,2.55 0.274,3.116 0.183,0.565 0.413,0.942 0.69,1.129 0.278,0.188 0.596,0.281 0.955,0.281 0.358,0 0.678,-0.095 0.959,-0.286 0.281,-0.191 0.5,-0.532 0.654,-1.024 0.204,-0.633 0.306,-1.705 0.306,-3.217 0,-1.512 -0.091,-2.55 -0.274,-3.116 -0.183,-0.565 -0.413,-0.943 -0.69,-1.134 -0.278,-0.189 -0.595,-0.285 -0.954,-0.285 z"
   id="path191" />
	</g><g
   id="g201"
   transform="matrix(1.32,0,0,1.32,-293.68889,-33.432681)">
		<path
   fill="#ffffff"
   d="m 297.683,139.573 v -12.885 h 3.122 v 12.885 z"
   id="path195" />
		<path
   fill="#ffffff"
   d="m 305.126,132.621 c -0.766,-0.27 -1.323,-0.64 -1.671,-1.112 -0.349,-0.472 -0.522,-0.989 -0.522,-1.551 0,-0.961 0.402,-1.755 1.208,-2.382 0.805,-0.627 1.949,-0.94 3.433,-0.94 1.47,0 2.61,0.313 3.423,0.94 0.812,0.627 1.218,1.421 1.218,2.382 0,0.598 -0.187,1.129 -0.559,1.595 -0.373,0.466 -0.896,0.822 -1.572,1.068 0.858,0.287 1.51,0.706 1.957,1.257 0.446,0.551 0.67,1.187 0.67,1.907 0,1.189 -0.456,2.156 -1.366,2.9 -0.911,0.744 -2.122,1.116 -3.634,1.116 -1.406,0 -2.577,-0.308 -3.512,-0.923 -1.104,-0.727 -1.656,-1.723 -1.656,-2.988 0,-0.697 0.208,-1.337 0.623,-1.92 0.413,-0.583 1.067,-1.032 1.96,-1.349 z m 0.338,3.032 c 0,0.68 0.209,1.21 0.628,1.591 0.418,0.381 0.939,0.571 1.565,0.571 0.612,0 1.118,-0.183 1.52,-0.549 0.4,-0.366 0.601,-0.895 0.601,-1.586 0,-0.604 -0.204,-1.088 -0.611,-1.455 -0.408,-0.366 -0.925,-0.549 -1.551,-0.549 -0.724,0 -1.264,0.208 -1.619,0.624 -0.355,0.416 -0.533,0.867 -0.533,1.353 z m 0.274,-5.519 c 0,0.492 0.167,0.876 0.501,1.151 0.334,0.275 0.778,0.413 1.334,0.413 0.563,0 1.013,-0.139 1.35,-0.417 0.338,-0.278 0.507,-0.664 0.507,-1.156 0,-0.463 -0.167,-0.833 -0.501,-1.112 -0.334,-0.279 -0.775,-0.417 -1.324,-0.417 -0.569,0 -1.022,0.141 -1.36,0.422 -0.338,0.281 -0.507,0.653 -0.507,1.116 z"
   id="path197" />
		<path
   fill="#ffffff"
   d="m 319.067,126.636 c 1.497,0 2.668,0.445 3.512,1.336 1.006,1.055 1.508,2.804 1.508,5.247 0,2.438 -0.506,4.189 -1.519,5.256 -0.837,0.879 -2.004,1.318 -3.501,1.318 -1.505,0 -2.718,-0.482 -3.639,-1.446 -0.922,-0.964 -1.382,-2.682 -1.382,-5.155 0,-2.426 0.506,-4.172 1.519,-5.238 0.837,-0.879 2.004,-1.318 3.502,-1.318 z m 0,2.048 c -0.359,0 -0.679,0.095 -0.96,0.286 -0.281,0.191 -0.5,0.532 -0.654,1.024 -0.204,0.639 -0.306,1.714 -0.306,3.226 0,1.512 0.091,2.55 0.274,3.116 0.183,0.565 0.413,0.942 0.69,1.129 0.278,0.188 0.596,0.281 0.955,0.281 0.358,0 0.678,-0.095 0.959,-0.286 0.281,-0.191 0.5,-0.532 0.654,-1.024 0.204,-0.633 0.306,-1.705 0.306,-3.217 0,-1.512 -0.091,-2.55 -0.274,-3.116 -0.183,-0.565 -0.413,-0.943 -0.69,-1.134 -0.278,-0.19 -0.595,-0.285 -0.954,-0.285 z"
   id="path199" />
	</g><g
   id="g209"
   transform="matrix(1.32,0,0,1.32,-293.68889,-33.432681)">
		<path
   fill="#ffffff"
   d="m 291.946,164.396 v -12.885 h 3.122 v 12.885 z"
   id="path203" />
		<path
   fill="#ffffff"
   d="m 306.889,154.667 -2.869,0.264 c -0.07,-0.492 -0.254,-0.855 -0.549,-1.09 -0.295,-0.235 -0.678,-0.352 -1.148,-0.352 -0.627,0 -1.156,0.234 -1.588,0.703 -0.432,0.469 -0.705,1.444 -0.818,2.927 0.738,-0.727 1.656,-1.09 2.754,-1.09 1.236,0 2.297,0.393 3.18,1.178 0.883,0.785 1.324,1.799 1.324,3.041 0,1.318 -0.465,2.376 -1.393,3.173 -0.928,0.797 -2.121,1.195 -3.576,1.195 -1.561,0 -2.844,-0.505 -3.849,-1.516 -1.006,-1.011 -1.508,-2.667 -1.508,-4.97 0,-2.361 0.523,-4.063 1.571,-5.106 1.047,-1.043 2.409,-1.564 4.081,-1.564 1.176,0 2.146,0.274 2.918,0.822 0.769,0.546 1.259,1.342 1.47,2.385 z m -6.719,5.387 c 0,0.803 0.221,1.422 0.664,1.859 0.443,0.437 0.949,0.655 1.52,0.655 0.549,0 1.006,-0.179 1.371,-0.536 0.365,-0.357 0.549,-0.943 0.549,-1.758 0,-0.838 -0.197,-1.452 -0.592,-1.841 -0.393,-0.39 -0.885,-0.584 -1.477,-0.584 -0.568,0 -1.051,0.186 -1.445,0.558 -0.393,0.371 -0.59,0.921 -0.59,1.647 z"
   id="path205" />
		<path
   fill="#ffffff"
   d="m 313.33,151.458 c 1.498,0 2.668,0.445 3.512,1.336 1.006,1.055 1.508,2.804 1.508,5.247 0,2.438 -0.506,4.189 -1.518,5.256 -0.838,0.879 -2.004,1.318 -3.502,1.318 -1.504,0 -2.717,-0.482 -3.639,-1.446 -0.922,-0.964 -1.381,-2.682 -1.381,-5.155 0,-2.426 0.506,-4.172 1.518,-5.238 0.838,-0.878 2.004,-1.318 3.502,-1.318 z m 0,2.048 c -0.359,0 -0.678,0.095 -0.959,0.286 -0.281,0.191 -0.5,0.532 -0.654,1.024 -0.205,0.639 -0.307,1.714 -0.307,3.226 0,1.512 0.092,2.55 0.275,3.116 0.182,0.565 0.412,0.942 0.689,1.129 0.279,0.188 0.596,0.281 0.955,0.281 0.359,0 0.678,-0.095 0.959,-0.286 0.281,-0.191 0.5,-0.532 0.654,-1.024 0.205,-0.633 0.307,-1.705 0.307,-3.217 0,-1.512 -0.092,-2.55 -0.275,-3.116 -0.182,-0.565 -0.412,-0.943 -0.689,-1.134 -0.279,-0.189 -0.596,-0.285 -0.955,-0.285 z"
   id="path207" />
	</g><g
   id="g217"
   transform="matrix(1.32,0,0,1.32,-293.68889,-33.432681)">
		<path
   fill="#ffffff"
   d="m 301.914,186.471 v -12.885 h 3.121 v 12.885 z"
   id="path211" />
		<path
   fill="#ffffff"
   d="m 312.627,186.471 v -2.593 h -6.328 v -2.162 l 6.707,-8.183 h 2.49 v 8.174 h 1.92 v 2.171 h -1.92 v 2.593 z m 0,-4.764 v -4.403 l -3.555,4.403 z"
   id="path213" />
		<path
   fill="#ffffff"
   d="m 323.299,173.533 c 1.496,0 2.668,0.445 3.512,1.336 1.006,1.055 1.508,2.804 1.508,5.247 0,2.438 -0.506,4.189 -1.52,5.256 -0.836,0.879 -2.004,1.318 -3.5,1.318 -1.506,0 -2.719,-0.482 -3.639,-1.446 -0.922,-0.964 -1.383,-2.682 -1.383,-5.155 0,-2.426 0.506,-4.172 1.52,-5.238 0.836,-0.878 2.004,-1.318 3.502,-1.318 z m 0,2.048 c -0.359,0 -0.68,0.095 -0.961,0.286 -0.281,0.191 -0.5,0.532 -0.654,1.024 -0.203,0.639 -0.305,1.714 -0.305,3.226 0,1.512 0.09,2.55 0.273,3.116 0.183,0.566 0.414,0.942 0.691,1.129 0.277,0.187 0.596,0.281 0.955,0.281 0.357,0 0.678,-0.095 0.959,-0.286 0.281,-0.191 0.5,-0.532 0.654,-1.024 0.203,-0.633 0.305,-1.705 0.305,-3.217 0,-1.512 -0.09,-2.55 -0.273,-3.116 -0.183,-0.566 -0.414,-0.943 -0.691,-1.134 -0.277,-0.191 -0.596,-0.285 -0.953,-0.285 z"
   id="path215" />
	</g><g
   id="g225"
   transform="matrix(1.32,0,0,1.32,-293.68889,-33.432681)">
		<path
   fill="#ffffff"
   d="M 320.361,208.715 V 195.83 h 3.121 v 12.885 z"
   id="path219" />
		<path
   fill="#ffffff"
   d="m 335.271,206.421 v 2.294 h -10.389 c 0.113,-0.867 0.449,-1.689 1.014,-2.465 0.563,-0.776 1.672,-1.806 3.332,-3.089 1.336,-1.037 2.154,-1.74 2.457,-2.109 0.408,-0.51 0.611,-1.014 0.611,-1.512 0,-0.551 -0.178,-0.974 -0.531,-1.27 -0.355,-0.296 -0.846,-0.444 -1.473,-0.444 -0.617,0 -1.111,0.155 -1.477,0.466 -0.366,0.311 -0.576,0.826 -0.633,1.547 l -2.953,-0.246 c 0.176,-1.359 0.729,-2.335 1.656,-2.927 0.927,-0.592 2.088,-0.888 3.48,-0.888 1.525,0 2.725,0.343 3.598,1.028 0.871,0.686 1.307,1.538 1.307,2.558 0,0.58 -0.125,1.132 -0.375,1.657 -0.248,0.524 -0.645,1.074 -1.186,1.648 -0.359,0.381 -1.006,0.929 -1.941,1.644 -0.934,0.715 -1.527,1.189 -1.777,1.424 -0.248,0.234 -0.451,0.463 -0.605,0.686 h 5.885 z"
   id="path221" />
		<path
   fill="#ffffff"
   d="m 341.746,195.778 c 1.496,0 2.668,0.445 3.512,1.336 1.006,1.055 1.508,2.804 1.508,5.247 0,2.438 -0.506,4.189 -1.52,5.256 -0.836,0.879 -2.004,1.318 -3.5,1.318 -1.506,0 -2.719,-0.482 -3.639,-1.446 -0.922,-0.964 -1.383,-2.682 -1.383,-5.155 0,-2.426 0.506,-4.172 1.52,-5.238 0.836,-0.879 2.004,-1.318 3.502,-1.318 z m 0,2.048 c -0.359,0 -0.68,0.095 -0.961,0.286 -0.281,0.191 -0.5,0.532 -0.654,1.024 -0.203,0.639 -0.305,1.714 -0.305,3.226 0,1.512 0.09,2.55 0.273,3.116 0.183,0.566 0.414,0.942 0.691,1.129 0.277,0.187 0.596,0.281 0.955,0.281 0.357,0 0.678,-0.095 0.959,-0.286 0.281,-0.191 0.5,-0.532 0.654,-1.024 0.203,-0.633 0.305,-1.705 0.305,-3.217 0,-1.512 -0.09,-2.55 -0.273,-3.116 -0.183,-0.566 -0.414,-0.943 -0.691,-1.134 -0.277,-0.191 -0.595,-0.285 -0.953,-0.285 z"
   id="path223" />
	</g><g
   id="g233"
   transform="matrix(1.32,0,0,1.32,-293.68889,-33.432681)">
		<path
   fill="#ffffff"
   d="M 357.639,211.604 V 198.72 h 3.123 v 12.885 h -3.123 z"
   id="path227" />
		<path
   fill="#ffffff"
   d="m 367.551,198.667 c 1.498,0 2.668,0.445 3.512,1.336 1.006,1.055 1.508,2.804 1.508,5.247 0,2.438 -0.506,4.189 -1.518,5.256 -0.838,0.879 -2.004,1.318 -3.502,1.318 -1.504,0 -2.717,-0.482 -3.639,-1.446 -0.922,-0.964 -1.381,-2.682 -1.381,-5.155 0,-2.426 0.506,-4.172 1.518,-5.238 0.838,-0.879 2.004,-1.318 3.502,-1.318 z m 0,2.048 c -0.359,0 -0.678,0.095 -0.959,0.286 -0.281,0.191 -0.5,0.532 -0.654,1.024 -0.205,0.639 -0.307,1.714 -0.307,3.226 0,1.512 0.092,2.55 0.275,3.116 0.182,0.565 0.412,0.942 0.689,1.129 0.279,0.188 0.596,0.281 0.955,0.281 0.359,0 0.678,-0.095 0.959,-0.286 0.281,-0.191 0.5,-0.532 0.654,-1.024 0.205,-0.633 0.307,-1.705 0.307,-3.217 0,-1.512 -0.092,-2.55 -0.275,-3.116 -0.182,-0.565 -0.412,-0.943 -0.689,-1.134 -0.279,-0.19 -0.596,-0.285 -0.955,-0.285 z"
   id="path229" />
		<path
   fill="#ffffff"
   d="m 379.023,198.667 c 1.498,0 2.668,0.445 3.512,1.336 1.006,1.055 1.508,2.804 1.508,5.247 0,2.438 -0.506,4.189 -1.518,5.256 -0.838,0.879 -2.004,1.318 -3.502,1.318 -1.504,0 -2.717,-0.482 -3.639,-1.446 -0.922,-0.964 -1.381,-2.682 -1.381,-5.155 0,-2.426 0.506,-4.172 1.518,-5.238 0.838,-0.879 2.004,-1.318 3.502,-1.318 z m 0,2.048 c -0.359,0 -0.678,0.095 -0.959,0.286 -0.281,0.191 -0.5,0.532 -0.654,1.024 -0.205,0.639 -0.307,1.714 -0.307,3.226 0,1.512 0.092,2.55 0.275,3.116 0.182,0.565 0.412,0.942 0.689,1.129 0.279,0.188 0.596,0.281 0.955,0.281 0.359,0 0.678,-0.095 0.959,-0.286 0.281,-0.191 0.5,-0.532 0.654,-1.024 0.205,-0.633 0.307,-1.705 0.307,-3.217 0,-1.512 -0.092,-2.55 -0.275,-3.116 -0.182,-0.565 -0.412,-0.943 -0.689,-1.134 -0.279,-0.19 -0.595,-0.285 -0.955,-0.285 z"
   id="path231" />
	</g><g
   id="g251"
   transform="matrix(1.32,0,0,1.32,-293.68889,-33.432681)">
		<path
   fill="#ffffff"
   d="m 335.607,147.212 h -1.604 l -0.639,-1.659 h -2.918 l -0.604,1.659 h -1.563 l 2.844,-7.301 h 1.559 z m -2.714,-2.889 -1.006,-2.709 -0.986,2.709 z"
   id="path235" />
		<path
   fill="#ffffff"
   d="m 336.09,147.212 v -7.301 h 1.475 v 7.301 z"
   id="path237" />
		<path
   fill="#ffffff"
   d="m 338.719,147.212 v -7.301 h 3.102 c 0.781,0 1.348,0.065 1.701,0.197 0.354,0.131 0.637,0.364 0.85,0.7 0.213,0.336 0.318,0.719 0.318,1.15 0,0.548 -0.16,1 -0.482,1.357 -0.322,0.357 -0.805,0.582 -1.445,0.675 0.32,0.186 0.582,0.39 0.791,0.612 0.207,0.223 0.486,0.618 0.838,1.186 l 0.893,1.424 h -1.764 l -1.066,-1.589 c -0.379,-0.568 -0.637,-0.925 -0.777,-1.073 -0.139,-0.147 -0.287,-0.249 -0.443,-0.304 -0.154,-0.055 -0.402,-0.082 -0.74,-0.082 h -0.299 v 3.048 z m 1.474,-4.213 h 1.09 c 0.707,0 1.148,-0.03 1.324,-0.09 0.176,-0.06 0.314,-0.163 0.414,-0.309 0.1,-0.146 0.148,-0.329 0.148,-0.548 0,-0.246 -0.064,-0.444 -0.195,-0.595 -0.131,-0.151 -0.316,-0.247 -0.557,-0.287 -0.119,-0.017 -0.477,-0.025 -1.074,-0.025 h -1.15 z"
   id="path239" />
		<path
   fill="#ffffff"
   d="m 345.451,144.836 1.434,-0.14 c 0.088,0.481 0.262,0.835 0.525,1.061 0.266,0.226 0.621,0.338 1.068,0.338 0.475,0 0.834,-0.1 1.074,-0.301 0.24,-0.201 0.361,-0.436 0.361,-0.705 0,-0.173 -0.051,-0.32 -0.152,-0.441 -0.101,-0.121 -0.277,-0.227 -0.531,-0.316 -0.172,-0.06 -0.564,-0.166 -1.18,-0.318 -0.791,-0.196 -1.344,-0.437 -1.664,-0.722 -0.447,-0.402 -0.672,-0.892 -0.672,-1.469 0,-0.372 0.105,-0.72 0.316,-1.043 0.211,-0.323 0.516,-0.57 0.912,-0.74 0.396,-0.17 0.875,-0.254 1.436,-0.254 0.918,0 1.607,0.201 2.07,0.603 0.463,0.402 0.707,0.938 0.729,1.609 l -1.473,0.064 c -0.064,-0.375 -0.199,-0.645 -0.406,-0.809 -0.207,-0.165 -0.52,-0.247 -0.934,-0.247 -0.43,0 -0.764,0.088 -1.006,0.264 -0.156,0.113 -0.234,0.264 -0.234,0.454 0,0.172 0.072,0.32 0.219,0.443 0.186,0.156 0.637,0.319 1.355,0.488 0.717,0.169 1.246,0.345 1.59,0.525 0.344,0.181 0.613,0.428 0.807,0.742 0.195,0.314 0.293,0.702 0.293,1.163 0,0.418 -0.117,0.81 -0.35,1.175 -0.233,0.365 -0.561,0.637 -0.986,0.814 -0.424,0.177 -0.955,0.266 -1.588,0.266 -0.924,0 -1.633,-0.213 -2.127,-0.64 -0.493,-0.425 -0.79,-1.047 -0.886,-1.864 z"
   id="path241" />
		<path
   fill="#ffffff"
   d="m 352.373,147.212 v -7.301 h 2.365 c 0.896,0 1.482,0.037 1.754,0.109 0.418,0.11 0.77,0.348 1.051,0.715 0.283,0.367 0.424,0.841 0.424,1.422 0,0.448 -0.082,0.825 -0.244,1.13 -0.162,0.306 -0.369,0.545 -0.621,0.72 -0.25,0.174 -0.504,0.29 -0.764,0.346 -0.352,0.07 -0.861,0.104 -1.529,0.104 h -0.961 v 2.754 h -1.475 z m 1.475,-6.066 v 2.072 h 0.807 c 0.582,0 0.969,-0.038 1.166,-0.115 0.195,-0.076 0.35,-0.196 0.461,-0.358 0.111,-0.162 0.166,-0.352 0.166,-0.568 0,-0.266 -0.078,-0.485 -0.234,-0.658 -0.156,-0.172 -0.354,-0.28 -0.592,-0.324 -0.176,-0.033 -0.529,-0.05 -1.061,-0.05 h -0.713 z"
   id="path243" />
		<path
   fill="#ffffff"
   d="m 358.922,147.212 v -7.301 h 5.414 v 1.235 h -3.941 v 1.619 h 3.666 v 1.23 h -3.666 v 1.987 h 4.08 v 1.23 z"
   id="path245" />
		<path
   fill="#ffffff"
   d="m 365.471,147.212 v -7.301 h 5.414 v 1.235 h -3.941 v 1.619 h 3.666 v 1.23 h -3.666 v 1.987 h 4.08 v 1.23 z"
   id="path247" />
		<path
   fill="#ffffff"
   d="m 372.014,139.911 h 2.695 c 0.607,0 1.07,0.046 1.389,0.139 0.428,0.126 0.795,0.351 1.102,0.672 0.305,0.322 0.537,0.717 0.697,1.183 0.158,0.466 0.238,1.042 0.238,1.726 0,0.601 -0.074,1.119 -0.225,1.554 -0.182,0.531 -0.443,0.961 -0.781,1.29 -0.256,0.249 -0.602,0.443 -1.035,0.583 -0.326,0.103 -0.762,0.154 -1.307,0.154 h -2.773 z m 1.474,1.235 v 4.836 h 1.1 c 0.412,0 0.709,-0.023 0.893,-0.07 0.238,-0.06 0.438,-0.161 0.596,-0.304 0.156,-0.143 0.285,-0.378 0.385,-0.705 0.1,-0.327 0.15,-0.772 0.15,-1.337 0,-0.565 -0.051,-0.998 -0.15,-1.3 -0.1,-0.302 -0.238,-0.538 -0.418,-0.707 -0.18,-0.169 -0.406,-0.284 -0.682,-0.344 -0.207,-0.046 -0.609,-0.07 -1.211,-0.07 h -0.663 z"
   id="path249" />
	</g><g
   id="g263"
   transform="matrix(1.32,0,0,1.32,-293.68889,-33.432681)">
		<path
   fill="#ffffff"
   d="m 337.248,190.257 v -6.442 h 1.301 v 2.861 l 2.629,-2.861 h 1.748 l -2.426,2.509 2.559,3.933 h -1.684 l -1.771,-3.023 -1.055,1.077 v 1.947 h -1.301 z"
   id="path253" />
		<path
   fill="#ffffff"
   d="m 343.744,190.257 v -6.442 h 1.266 l 2.637,4.302 v -4.302 h 1.209 v 6.442 h -1.306 l -2.597,-4.201 v 4.201 z"
   id="path255" />
		<path
   fill="#ffffff"
   d="m 349.967,187.076 c 0,-0.656 0.099,-1.207 0.295,-1.652 0.146,-0.328 0.347,-0.623 0.6,-0.883 0.254,-0.261 0.531,-0.454 0.833,-0.58 0.401,-0.17 0.864,-0.255 1.389,-0.255 0.949,0 1.709,0.294 2.278,0.883 0.57,0.589 0.855,1.408 0.855,2.457 0,1.04 -0.283,1.854 -0.849,2.441 -0.565,0.588 -1.321,0.881 -2.268,0.881 -0.958,0 -1.72,-0.292 -2.285,-0.876 -0.565,-0.586 -0.848,-1.391 -0.848,-2.416 z m 1.341,-0.044 c 0,0.729 0.168,1.283 0.505,1.659 0.337,0.376 0.766,0.564 1.283,0.564 0.52,0 0.944,-0.187 1.277,-0.561 0.332,-0.373 0.498,-0.934 0.498,-1.681 0,-0.738 -0.161,-1.289 -0.485,-1.652 -0.323,-0.363 -0.753,-0.545 -1.29,-0.545 -0.535,0 -0.968,0.184 -1.296,0.552 -0.328,0.368 -0.492,0.923 -0.492,1.664 z"
   id="path257" />
		<path
   fill="#ffffff"
   d="m 358.682,190.257 v -5.353 h -1.912 v -1.09 h 5.119 v 1.09 h -1.906 v 5.353 z"
   id="path259" />
		<path
   fill="#ffffff"
   d="m 362.399,188.161 1.266,-0.123 c 0.076,0.425 0.23,0.737 0.464,0.936 0.232,0.199 0.547,0.299 0.942,0.299 0.419,0 0.734,-0.088 0.947,-0.266 0.212,-0.177 0.318,-0.385 0.318,-0.622 0,-0.152 -0.045,-0.282 -0.134,-0.389 -0.09,-0.107 -0.246,-0.2 -0.469,-0.279 -0.152,-0.053 -0.499,-0.146 -1.041,-0.281 -0.697,-0.173 -1.187,-0.385 -1.468,-0.637 -0.396,-0.354 -0.593,-0.787 -0.593,-1.296 0,-0.328 0.093,-0.635 0.278,-0.921 0.187,-0.285 0.454,-0.503 0.805,-0.652 0.35,-0.149 0.772,-0.224 1.268,-0.224 0.809,0 1.417,0.177 1.826,0.532 0.408,0.354 0.623,0.828 0.644,1.419 l -1.301,0.057 c -0.056,-0.331 -0.175,-0.569 -0.358,-0.714 -0.183,-0.146 -0.458,-0.218 -0.823,-0.218 -0.379,0 -0.675,0.078 -0.889,0.233 -0.138,0.1 -0.206,0.233 -0.206,0.4 0,0.152 0.064,0.283 0.193,0.391 0.164,0.138 0.563,0.281 1.195,0.431 0.632,0.15 1.101,0.304 1.404,0.463 0.303,0.16 0.54,0.378 0.712,0.655 0.171,0.276 0.257,0.619 0.257,1.026 0,0.369 -0.103,0.715 -0.308,1.037 -0.205,0.322 -0.495,0.562 -0.87,0.718 -0.375,0.157 -0.843,0.235 -1.401,0.235 -0.815,0 -1.44,-0.188 -1.877,-0.564 -0.437,-0.376 -0.696,-0.925 -0.781,-1.646 z"
   id="path261" />
	</g><g
   id="g281"
   transform="matrix(1.32,0,0,1.32,-293.68889,-33.432681)">
		<path
   fill="#ffffff"
   d="m 342.313,110.567 v -5.727 h 1.855 c 0.703,0 1.161,0.029 1.375,0.086 0.328,0.086 0.603,0.273 0.824,0.561 0.221,0.288 0.332,0.66 0.332,1.115 0,0.352 -0.063,0.647 -0.191,0.887 -0.128,0.24 -0.29,0.428 -0.486,0.564 -0.196,0.136 -0.396,0.227 -0.6,0.271 -0.276,0.055 -0.676,0.082 -1.199,0.082 h -0.754 v 2.16 h -1.156 z m 1.156,-4.757 v 1.625 h 0.633 c 0.456,0 0.761,-0.03 0.914,-0.09 0.153,-0.06 0.274,-0.154 0.361,-0.281 0.087,-0.127 0.131,-0.276 0.131,-0.445 0,-0.208 -0.062,-0.38 -0.184,-0.516 -0.122,-0.136 -0.277,-0.22 -0.465,-0.254 -0.138,-0.026 -0.415,-0.039 -0.832,-0.039 z"
   id="path265" />
		<path
   fill="#ffffff"
   d="m 347.452,110.567 v -5.727 h 2.434 c 0.612,0 1.057,0.051 1.334,0.154 0.277,0.103 0.499,0.286 0.666,0.549 0.167,0.263 0.25,0.564 0.25,0.902 0,0.43 -0.126,0.785 -0.379,1.064 -0.253,0.279 -0.63,0.457 -1.133,0.529 0.25,0.146 0.456,0.306 0.619,0.48 0.163,0.174 0.382,0.484 0.658,0.93 l 0.699,1.117 h -1.383 l -0.836,-1.246 c -0.297,-0.445 -0.5,-0.726 -0.609,-0.842 -0.109,-0.116 -0.226,-0.195 -0.348,-0.238 -0.122,-0.043 -0.316,-0.064 -0.582,-0.064 h -0.234 v 2.391 h -1.156 z m 1.156,-3.304 h 0.855 c 0.555,0 0.901,-0.023 1.039,-0.07 0.138,-0.047 0.246,-0.127 0.324,-0.242 0.078,-0.115 0.117,-0.258 0.117,-0.43 0,-0.193 -0.052,-0.348 -0.154,-0.467 -0.102,-0.119 -0.248,-0.193 -0.436,-0.225 -0.094,-0.013 -0.375,-0.02 -0.844,-0.02 h -0.902 v 1.454 z"
   id="path267" />
		<path
   fill="#ffffff"
   d="m 353.025,110.567 v -5.727 h 4.246 v 0.969 h -3.09 v 1.27 h 2.875 v 0.965 h -2.875 v 1.559 h 3.199 v 0.965 h -4.355 z"
   id="path269" />
		<path
   fill="#ffffff"
   d="m 357.869,108.704 1.125,-0.109 c 0.067,0.377 0.205,0.655 0.412,0.832 0.207,0.177 0.486,0.266 0.838,0.266 0.372,0 0.653,-0.079 0.842,-0.236 0.189,-0.157 0.283,-0.342 0.283,-0.553 0,-0.135 -0.04,-0.25 -0.119,-0.346 -0.079,-0.096 -0.218,-0.178 -0.416,-0.248 -0.136,-0.047 -0.444,-0.13 -0.926,-0.25 -0.62,-0.154 -1.055,-0.342 -1.305,-0.566 -0.352,-0.315 -0.527,-0.699 -0.527,-1.152 0,-0.292 0.083,-0.564 0.248,-0.818 0.165,-0.254 0.403,-0.447 0.715,-0.58 0.312,-0.133 0.687,-0.199 1.127,-0.199 0.719,0 1.26,0.158 1.623,0.473 0.363,0.315 0.554,0.736 0.572,1.262 l -1.156,0.051 c -0.05,-0.294 -0.155,-0.506 -0.318,-0.635 -0.163,-0.129 -0.407,-0.193 -0.732,-0.193 -0.336,0 -0.599,0.069 -0.789,0.207 -0.122,0.088 -0.184,0.207 -0.184,0.355 0,0.135 0.058,0.251 0.172,0.348 0.146,0.123 0.5,0.25 1.063,0.383 0.563,0.133 0.979,0.27 1.248,0.412 0.269,0.142 0.48,0.336 0.633,0.582 0.153,0.246 0.229,0.55 0.229,0.912 0,0.328 -0.091,0.635 -0.273,0.922 -0.182,0.287 -0.44,0.5 -0.773,0.639 -0.333,0.139 -0.749,0.209 -1.246,0.209 -0.724,0 -1.28,-0.167 -1.668,-0.502 -0.388,-0.335 -0.623,-0.825 -0.698,-1.466 z"
   id="path271" />
		<path
   fill="#ffffff"
   d="m 363.005,108.704 1.125,-0.109 c 0.067,0.377 0.205,0.655 0.412,0.832 0.207,0.177 0.486,0.266 0.838,0.266 0.372,0 0.653,-0.079 0.842,-0.236 0.189,-0.157 0.283,-0.342 0.283,-0.553 0,-0.135 -0.04,-0.25 -0.119,-0.346 -0.079,-0.096 -0.218,-0.178 -0.416,-0.248 -0.136,-0.047 -0.444,-0.13 -0.926,-0.25 -0.62,-0.154 -1.055,-0.342 -1.305,-0.566 -0.352,-0.315 -0.527,-0.699 -0.527,-1.152 0,-0.292 0.083,-0.564 0.248,-0.818 0.165,-0.254 0.403,-0.447 0.715,-0.58 0.312,-0.133 0.687,-0.199 1.127,-0.199 0.719,0 1.26,0.158 1.623,0.473 0.363,0.315 0.554,0.736 0.572,1.262 l -1.156,0.051 c -0.05,-0.294 -0.155,-0.506 -0.318,-0.635 -0.163,-0.129 -0.407,-0.193 -0.732,-0.193 -0.336,0 -0.599,0.069 -0.789,0.207 -0.122,0.088 -0.184,0.207 -0.184,0.355 0,0.135 0.058,0.251 0.172,0.348 0.146,0.123 0.5,0.25 1.063,0.383 0.563,0.133 0.979,0.27 1.248,0.412 0.269,0.142 0.48,0.336 0.633,0.582 0.153,0.246 0.229,0.55 0.229,0.912 0,0.328 -0.091,0.635 -0.273,0.922 -0.182,0.287 -0.44,0.5 -0.773,0.639 -0.333,0.139 -0.749,0.209 -1.246,0.209 -0.724,0 -1.28,-0.167 -1.668,-0.502 -0.388,-0.335 -0.623,-0.825 -0.698,-1.466 z"
   id="path273" />
		<path
   fill="#ffffff"
   d="M 353.258,118.567 H 352 l -0.5,-1.301 h -2.289 l -0.473,1.301 h -1.227 l 2.23,-5.727 h 1.223 z m -2.129,-2.265 -0.789,-2.125 -0.773,2.125 z"
   id="path275" />
		<path
   fill="#ffffff"
   d="m 353.702,118.567 v -5.68 h 1.156 v 4.715 h 2.875 v 0.965 z"
   id="path277" />
		<path
   fill="#ffffff"
   d="m 359.253,118.567 v -4.758 h -1.699 v -0.969 h 4.551 v 0.969 h -1.695 v 4.758 z"
   id="path279" />
	</g><g
   id="g295"
   transform="matrix(1.32,0,0,1.32,-293.68889,-33.432681)">
		<path
   fill="#ffffff"
   d="m 340.494,69.622 -0.528,-4.827 -1.723,0.189 -0.107,-0.984 4.616,-0.503 0.107,0.982 -1.72,0.188 0.526,4.827 z"
   id="path283" />
		<path
   fill="#ffffff"
   d="m 344.065,69.255 -0.373,-5.833 4.323,-0.277 0.064,0.986 -3.146,0.202 0.083,1.292 2.928,-0.187 0.063,0.982 -2.929,0.188 0.103,1.588 3.259,-0.209 0.063,0.982 z"
   id="path285" />
		<path
   fill="#ffffff"
   d="m 349.088,68.922 -0.104,-5.843 1.767,-0.032 1.131,3.968 0.978,-4.005 1.77,-0.031 0.103,5.844 -1.096,0.019 -0.082,-4.6 -1.078,4.621 -1.137,0.02 -1.236,-4.579 0.081,4.599 z"
   id="path287" />
		<path
   fill="#ffffff"
   d="m 355.854,68.843 0.152,-5.842 1.894,0.049 c 0.717,0.019 1.185,0.061 1.4,0.125 0.333,0.097 0.607,0.294 0.826,0.594 0.218,0.299 0.321,0.681 0.308,1.146 -0.009,0.359 -0.081,0.658 -0.219,0.899 -0.136,0.241 -0.307,0.429 -0.511,0.563 -0.205,0.134 -0.412,0.221 -0.619,0.261 -0.284,0.048 -0.69,0.065 -1.227,0.052 l -0.768,-0.021 -0.059,2.204 z m 1.307,-4.823 -0.045,1.657 0.647,0.017 c 0.464,0.014 0.775,-0.009 0.934,-0.067 0.158,-0.057 0.283,-0.149 0.377,-0.277 0.092,-0.127 0.141,-0.277 0.146,-0.45 0.005,-0.213 -0.053,-0.39 -0.174,-0.531 -0.122,-0.141 -0.276,-0.232 -0.467,-0.271 -0.141,-0.031 -0.424,-0.052 -0.848,-0.063 z"
   id="path289" />
		<path
   fill="#ffffff"
   d="m 361.378,64.518 c 0.022,-0.353 0.163,-0.646 0.426,-0.878 0.263,-0.232 0.568,-0.337 0.919,-0.316 0.351,0.021 0.643,0.163 0.876,0.426 0.232,0.262 0.34,0.569 0.319,0.918 -0.021,0.351 -0.163,0.642 -0.427,0.876 -0.264,0.233 -0.568,0.339 -0.92,0.318 -0.349,-0.02 -0.641,-0.162 -0.874,-0.425 -0.234,-0.262 -0.339,-0.569 -0.319,-0.919 z m 0.66,0.039 c -0.009,0.167 0.042,0.313 0.154,0.44 0.113,0.127 0.252,0.195 0.419,0.205 0.168,0.01 0.314,-0.041 0.441,-0.154 0.126,-0.112 0.194,-0.251 0.205,-0.419 0.009,-0.167 -0.042,-0.314 -0.155,-0.44 -0.112,-0.127 -0.252,-0.194 -0.418,-0.205 -0.168,-0.01 -0.316,0.041 -0.44,0.154 -0.126,0.112 -0.195,0.252 -0.206,0.419 z"
   id="path291" />
		<path
   fill="#ffffff"
   d="m 369.339,67.434 1.104,0.472 c -0.236,0.618 -0.573,1.062 -1.01,1.329 -0.437,0.269 -0.966,0.372 -1.591,0.311 -0.772,-0.075 -1.38,-0.402 -1.827,-0.979 -0.444,-0.577 -0.623,-1.322 -0.534,-2.237 0.095,-0.967 0.42,-1.694 0.973,-2.182 0.553,-0.486 1.236,-0.689 2.051,-0.61 0.711,0.07 1.269,0.337 1.671,0.802 0.239,0.274 0.404,0.651 0.49,1.129 l -1.189,0.163 c -0.039,-0.308 -0.159,-0.561 -0.36,-0.756 -0.201,-0.195 -0.457,-0.309 -0.769,-0.339 -0.433,-0.043 -0.798,0.078 -1.097,0.362 -0.298,0.283 -0.481,0.77 -0.55,1.464 -0.072,0.735 0.01,1.272 0.243,1.61 0.232,0.337 0.562,0.528 0.984,0.569 0.313,0.031 0.592,-0.042 0.835,-0.219 0.245,-0.177 0.436,-0.473 0.576,-0.889 z"
   id="path293" />
	</g><g
   id="g303"
   transform="matrix(1.32,0,0,1.32,-293.68889,-33.432681)">
		<path
   fill="#ffffff"
   d="m 342.487,217.239 0.692,-4.804 -1.713,-0.247 0.141,-0.979 4.595,0.664 -0.142,0.977 -1.712,-0.247 -0.693,4.803 z"
   id="path297" />
		<path
   fill="#ffffff"
   d="m 350.847,218.016 -1.28,-0.082 -0.424,-1.357 -2.33,-0.149 -0.565,1.293 -1.249,-0.08 2.645,-5.684 1.244,0.08 z m -2.019,-2.446 -0.665,-2.214 -0.926,2.112 z"
   id="path299" />
		<path
   fill="#ffffff"
   d="m 351.226,216.101 1.145,-0.144 c 0.08,0.383 0.228,0.662 0.443,0.836 0.217,0.175 0.504,0.257 0.863,0.247 0.379,-0.011 0.662,-0.099 0.851,-0.266 0.187,-0.166 0.278,-0.356 0.272,-0.571 -0.003,-0.139 -0.047,-0.255 -0.131,-0.349 -0.083,-0.095 -0.228,-0.175 -0.431,-0.241 -0.141,-0.044 -0.458,-0.12 -0.952,-0.229 -0.637,-0.139 -1.084,-0.319 -1.346,-0.54 -0.369,-0.311 -0.559,-0.698 -0.571,-1.16 -0.009,-0.297 0.067,-0.578 0.229,-0.841 0.161,-0.264 0.397,-0.467 0.712,-0.612 0.315,-0.145 0.695,-0.223 1.144,-0.236 0.732,-0.02 1.288,0.125 1.668,0.436 0.381,0.311 0.586,0.734 0.62,1.27 l -1.177,0.085 c -0.061,-0.298 -0.174,-0.511 -0.344,-0.638 -0.169,-0.126 -0.42,-0.185 -0.752,-0.176 -0.343,0.009 -0.609,0.087 -0.798,0.233 -0.122,0.094 -0.183,0.217 -0.179,0.368 0.005,0.138 0.065,0.254 0.187,0.349 0.151,0.121 0.517,0.241 1.093,0.36 0.579,0.12 1.006,0.248 1.286,0.384 0.278,0.138 0.498,0.329 0.66,0.576 0.164,0.246 0.249,0.554 0.26,0.923 0.01,0.334 -0.073,0.65 -0.252,0.948 -0.177,0.297 -0.435,0.522 -0.771,0.673 -0.336,0.151 -0.757,0.234 -1.265,0.249 -0.739,0.021 -1.31,-0.134 -1.716,-0.464 -0.403,-0.328 -0.653,-0.82 -0.748,-1.47 z"
   id="path301" />
	</g><g
   id="g319"
   transform="matrix(1.32,0,0,1.32,-293.68889,-33.432681)">
		<path
   fill="#ffffff"
   d="m 334.41,78.216 1.292,-0.429 c 0.105,0.271 0.267,0.461 0.484,0.568 0.219,0.107 0.458,0.132 0.721,0.073 0.282,-0.063 0.5,-0.205 0.652,-0.426 0.152,-0.221 0.195,-0.483 0.128,-0.786 -0.063,-0.286 -0.207,-0.492 -0.43,-0.618 -0.221,-0.126 -0.466,-0.16 -0.731,-0.101 -0.174,0.039 -0.378,0.115 -0.607,0.226 l -0.056,-0.961 c 0.371,-0.075 0.637,-0.204 0.8,-0.39 0.163,-0.186 0.218,-0.396 0.165,-0.63 -0.044,-0.2 -0.15,-0.343 -0.319,-0.43 -0.17,-0.087 -0.373,-0.104 -0.609,-0.051 -0.232,0.052 -0.418,0.164 -0.553,0.336 -0.136,0.172 -0.191,0.392 -0.17,0.659 l -1.297,0.103 c 0.007,-0.378 0.073,-0.695 0.203,-0.949 0.129,-0.253 0.338,-0.478 0.625,-0.671 0.288,-0.193 0.629,-0.334 1.021,-0.421 0.671,-0.15 1.249,-0.092 1.734,0.173 0.398,0.217 0.639,0.509 0.722,0.876 0.115,0.521 -0.134,1.014 -0.748,1.477 0.426,-0.018 0.788,0.072 1.089,0.271 0.302,0.2 0.492,0.479 0.572,0.837 0.117,0.521 -0.012,1.017 -0.387,1.486 -0.375,0.469 -0.903,0.78 -1.584,0.933 -0.644,0.144 -1.214,0.108 -1.706,-0.106 -0.494,-0.215 -0.831,-0.564 -1.011,-1.049 z"
   id="path305" />
		<path
   fill="#ffffff"
   d="m 341.176,72.102 c 0.699,-0.107 1.278,0.015 1.735,0.37 0.546,0.42 0.907,1.2 1.084,2.34 0.177,1.138 0.065,1.992 -0.329,2.563 -0.327,0.47 -0.841,0.759 -1.539,0.868 -0.701,0.109 -1.303,-0.028 -1.803,-0.412 -0.5,-0.384 -0.838,-1.152 -1.018,-2.306 -0.175,-1.131 -0.064,-1.983 0.331,-2.554 0.327,-0.471 0.842,-0.761 1.539,-0.869 z m 0.148,0.956 c -0.167,0.026 -0.309,0.093 -0.427,0.202 -0.118,0.109 -0.195,0.285 -0.231,0.525 -0.05,0.313 -0.019,0.822 0.091,1.527 0.108,0.706 0.226,1.184 0.354,1.434 0.126,0.251 0.261,0.41 0.403,0.477 0.142,0.067 0.299,0.088 0.465,0.063 0.168,-0.025 0.31,-0.094 0.429,-0.203 0.116,-0.109 0.193,-0.284 0.229,-0.525 0.05,-0.31 0.02,-0.817 -0.089,-1.523 -0.109,-0.706 -0.228,-1.184 -0.354,-1.434 -0.126,-0.251 -0.261,-0.411 -0.404,-0.479 -0.143,-0.068 -0.299,-0.091 -0.466,-0.064 z"
   id="path307" />
		<path
   fill="#ffffff"
   d="m 347.643,77.055 -0.111,-1.577 -1.907,0.133 -0.077,-1.089 1.909,-0.134 -0.11,-1.578 1.271,-0.089 0.109,1.578 1.913,-0.134 0.077,1.088 -1.914,0.134 0.112,1.578 z"
   id="path309" />
		<path
   fill="#ffffff"
   d="m 354.915,71.045 c 0.707,0.011 1.257,0.23 1.649,0.657 0.466,0.506 0.689,1.335 0.672,2.49 -0.02,1.15 -0.272,1.974 -0.758,2.469 -0.401,0.409 -0.957,0.607 -1.664,0.596 -0.709,-0.012 -1.278,-0.248 -1.707,-0.711 -0.428,-0.462 -0.632,-1.277 -0.612,-2.444 0.019,-1.145 0.271,-1.966 0.758,-2.462 0.401,-0.408 0.955,-0.607 1.662,-0.595 z m -0.016,0.967 c -0.169,-0.003 -0.32,0.04 -0.455,0.127 -0.135,0.088 -0.24,0.247 -0.315,0.479 -0.102,0.3 -0.159,0.807 -0.169,1.521 -0.012,0.713 0.022,1.205 0.104,1.473 0.083,0.269 0.188,0.449 0.317,0.539 0.13,0.091 0.28,0.138 0.449,0.14 0.169,0.003 0.32,-0.04 0.454,-0.127 0.135,-0.088 0.24,-0.247 0.317,-0.479 0.102,-0.297 0.157,-0.802 0.169,-1.517 0.012,-0.714 -0.024,-1.204 -0.105,-1.473 -0.081,-0.268 -0.188,-0.449 -0.318,-0.541 -0.128,-0.092 -0.278,-0.14 -0.448,-0.142 z"
   id="path311" />
		<path
   fill="#ffffff"
   d="m 358.643,75.487 0.073,-0.868 4.239,0.359 -0.073,0.869 z"
   id="path313" />
		<path
   fill="#ffffff"
   d="m 364.806,76.23 1.357,0.09 c -0.005,0.291 0.073,0.527 0.233,0.708 0.161,0.181 0.376,0.294 0.64,0.339 0.285,0.048 0.54,-0.001 0.767,-0.148 0.225,-0.147 0.363,-0.373 0.414,-0.679 0.049,-0.289 -0.006,-0.534 -0.163,-0.735 -0.159,-0.201 -0.371,-0.324 -0.641,-0.369 -0.176,-0.029 -0.392,-0.037 -0.646,-0.021 l 0.31,-0.912 c 0.371,0.071 0.668,0.052 0.89,-0.058 0.219,-0.109 0.35,-0.284 0.39,-0.521 0.035,-0.202 -0.01,-0.375 -0.134,-0.519 -0.125,-0.145 -0.305,-0.237 -0.545,-0.277 -0.234,-0.04 -0.448,-0.006 -0.638,0.103 -0.189,0.108 -0.326,0.29 -0.406,0.546 l -1.241,-0.395 c 0.149,-0.347 0.333,-0.615 0.547,-0.801 0.215,-0.188 0.492,-0.316 0.834,-0.386 0.34,-0.07 0.708,-0.072 1.104,-0.005 0.677,0.115 1.189,0.386 1.539,0.816 0.286,0.352 0.399,0.712 0.336,1.083 -0.089,0.526 -0.504,0.888 -1.249,1.085 0.401,0.143 0.703,0.364 0.906,0.662 0.203,0.298 0.274,0.629 0.215,0.992 -0.09,0.526 -0.396,0.937 -0.921,1.229 -0.523,0.293 -1.13,0.382 -1.818,0.265 -0.65,-0.11 -1.164,-0.357 -1.54,-0.742 -0.378,-0.383 -0.558,-0.834 -0.54,-1.35 z"
   id="path315" />
		<path
   fill="#ffffff"
   d="m 373.3,73.288 c 0.688,0.163 1.176,0.496 1.467,0.997 0.348,0.594 0.388,1.453 0.12,2.575 -0.267,1.12 -0.69,1.87 -1.271,2.249 -0.481,0.313 -1.066,0.386 -1.754,0.223 -0.691,-0.165 -1.195,-0.518 -1.513,-1.062 -0.319,-0.543 -0.343,-1.383 -0.072,-2.519 0.265,-1.115 0.688,-1.861 1.27,-2.241 0.48,-0.312 1.064,-0.386 1.753,-0.222 z m -0.225,0.941 c -0.165,-0.04 -0.322,-0.03 -0.472,0.026 -0.15,0.057 -0.288,0.189 -0.412,0.399 -0.164,0.271 -0.328,0.754 -0.493,1.448 -0.165,0.694 -0.236,1.182 -0.215,1.462 0.022,0.279 0.087,0.478 0.194,0.594 0.106,0.117 0.242,0.194 0.407,0.233 0.165,0.04 0.323,0.031 0.472,-0.026 0.15,-0.057 0.289,-0.189 0.413,-0.399 0.163,-0.268 0.327,-0.75 0.491,-1.444 0.167,-0.694 0.237,-1.182 0.215,-1.461 -0.022,-0.279 -0.087,-0.478 -0.193,-0.596 -0.107,-0.119 -0.242,-0.197 -0.407,-0.236 z"
   id="path317" />
	</g><path
   style="baseline-shift:baseline;display:inline;overflow:visible;opacity:1;vector-effect:none;fill:#ffffff;stroke-miterlimit:10;enable-background:accumulate;stop-color:#000000;stop-opacity:1"
   d="m 123.76048,240.68604 -8.34961,12.125 1.54102,1.06054 8.34961,-12.125 z"
   id="line321" /><path
   fill="none"
   stroke="#ed1c24"
   stroke-miterlimit="10"
   d="M 174.10722,169.21899"
   id="path323"
   style="stroke-width:1.32" /><path
   style="baseline-shift:baseline;display:inline;overflow:visible;opacity:1;vector-effect:none;fill:#ffffff;stroke-miterlimit:10;enable-background:accumulate;stop-color:#000000;stop-opacity:1"
   d="m 214.66478,244.05908 -1.6543,0.87305 6.96094,13.18555 1.6543,-0.875 z"
   id="line325" /><path
   fill="none"
   stroke="#ed1c24"
   stroke-miterlimit="10"
   d="M 174.10722,169.21899"
   id="path327"
   style="stroke-width:1.32" /><path
   style="baseline-shift:baseline;display:inline;overflow:visible;opacity:1;vector-effect:none;fill:#ffffff;stroke-miterlimit:10;enable-background:accumulate;stop-color:#000000;stop-opacity:1"
   d="m 198.47923,251.36572 -3.60937,0.98633 3.91992,14.34961 3.60937,-0.98633 z"
   id="line329" /><path
   fill="none"
   stroke="#ed1c24"
   stroke-miterlimit="10"
   d="M 174.10722,169.21899"
   id="path331"
   style="stroke-width:1.32" /><path
   style="baseline-shift:baseline;display:inline;overflow:visible;opacity:1;vector-effect:none;fill:#ffffff;stroke-miterlimit:10;enable-background:accumulate;stop-color:#000000;stop-opacity:1"
   d="m 181.53587,255.01807 -1.86523,0.14062 1.11914,14.79493 1.86523,-0.14063 z"
   id="line333" /><path
   fill="none"
   stroke="#ed1c24"
   stroke-miterlimit="10"
   d="M 174.10722,169.21899"
   id="path335"
   style="stroke-width:1.32" /><path
   style="baseline-shift:baseline;display:inline;overflow:visible;opacity:1;vector-effect:none;fill:#ffffff;stroke-miterlimit:10;enable-background:accumulate;stop-color:#000000;stop-opacity:1"
   d="m 162.68822,255.01612 -1.63477,14.71093 3.71875,0.41407 1.63477,-14.7129 z"
   id="line337" /><path
   fill="none"
   stroke="#ed1c24"
   stroke-miterlimit="10"
   d="M 174.10722,169.21899"
   id="path339"
   style="stroke-width:1.32" /><path
   style="baseline-shift:baseline;display:inline;overflow:visible;opacity:1;vector-effect:none;fill:#ffffff;stroke-miterlimit:10;enable-background:accumulate;stop-color:#000000;stop-opacity:1"
   d="m 148.27806,252.21533 -4.24024,14.1543 1.79297,0.53711 4.23828,-14.1543 z"
   id="line341" /><path
   fill="none"
   stroke="#ed1c24"
   stroke-miterlimit="10"
   d="M 174.10722,169.21899"
   id="path343"
   style="stroke-width:1.32" /><path
   style="baseline-shift:baseline;display:inline;overflow:visible;opacity:1;vector-effect:none;fill:#ffffff;stroke-miterlimit:10;enable-background:accumulate;stop-color:#000000;stop-opacity:1"
   d="m 132.97923,246.16651 -6.67187,13.14843 3.33789,1.69336 6.66992,-13.14843 z"
   id="line345" /><path
   fill="none"
   stroke="#ed1c24"
   stroke-miterlimit="10"
   d="M 174.10722,169.21899"
   id="path347"
   style="stroke-width:1.32" />



<text
   xml:space="preserve"
   id="text4022"
   style="font-size:40px;line-height:1.25;font-family:ChunkFive;-inkscape-font-specification:ChunkFive;text-align:center;letter-spacing:-0.15px;white-space:pre;shape-inside:url(#rect4024);display:inline" /></svg>
