0
SECTION
2
HEADER
0
ENDSEC
0
SECTION
2
TABLES
0
TABLE
2
LTYPE
0
LTYPE
72
65
70
64
2
CONTINUOUS
3
______
73
0
40
0
0
ENDTAB
0
TABLE
2
LAYER
0
ENDTAB
0
ENDSEC
0
SECTION
2
ENTITIES
0
CIRCLE
8
0
10
0
20
0
40
2
0
CIRCLE
8
0
10
0
20
0
40
2
0
LINE
8
layer0
10
7.2459937
20
3.0296858
11
7.1453653
21
2.8879708
0
LINE
8
layer0
10
7.1453653
20
2.8879708
11
7.0446249
21
2.758026
0
LINE
8
layer0
10
7.0446249
20
2.758026
11
6.9479919
21
2.6436556
0
LINE
8
layer0
10
6.9479919
20
2.6436556
11
6.8545847
21
2.5419814
0
LINE
8
layer0
10
6.8545847
20
2.5419814
11
6.7634323
21
2.4507405
0
LINE
8
layer0
10
6.7634323
20
2.4507405
11
6.6777213
21
2.3718808
0
LINE
8
layer0
10
6.6777213
20
2.3718808
11
6.5983675
21
2.30476
0
LINE
8
layer0
10
6.5983675
20
2.30476
11
6.523402
21
2.2465902
0
LINE
8
layer0
10
6.523402
20
2.2465902
11
6.4000034
21
2.1623494
0
LINE
8
layer0
10
6.4000034
20
2.1623494
11
6.3070058
21
2.1095722
0
LINE
8
layer0
10
6.3070058
20
2.1095722
11
6.2547079
21
2.0852449
0
LINE
8
layer0
10
6.2547079
20
2.0852449
11
6.1878676
21
2.0668401
0
LINE
8
layer0
10
6.1878676
20
2.0668401
11
6.0787922
21
2.0314307
0
LINE
8
layer0
10
6.0787922
20
2.0314307
11
5.9835749
21
1.9910299
0
LINE
8
layer0
10
5.9835749
20
1.9910299
11
5.902408
21
1.9467279
0
LINE
8
layer0
10
5.902408
20
1.9467279
11
5.8354283
21
1.8996327
0
LINE
8
layer0
10
5.8354283
20
1.8996327
11
5.7827195
21
1.8508611
0
LINE
8
layer0
10
5.7827195
20
1.8508611
11
5.7442752
21
1.8015193
0
LINE
8
layer0
10
5.7442752
20
1.8015193
11
5.7200381
21
1.7527124
0
LINE
8
layer0
10
5.7200381
20
1.7527124
11
5.7131961
21
1.7288516
0
LINE
8
layer0
10
5.7131961
20
1.7288516
11
5.7098609
21
1.7055349
0
LINE
8
layer0
10
5.7098609
20
1.7055349
11
5.7099895
21
1.6829062
0
LINE
8
layer0
10
5.7099895
20
1.6829062
11
5.7149718
21
1.6557746
0
LINE
8
layer0
10
5.7149718
20
1.6557746
11
5.7757029
21
1.4296901
0
LINE
8
layer0
10
5.7757029
20
1.4296901
11
5.8008211
21
1.3239996
0
LINE
8
layer0
10
5.8008211
20
1.3239996
11
5.8240478
21
1.2178773
0
LINE
8
layer0
10
5.8240478
20
1.2178773
11
5.8674253
21
0.987832
0
LINE
8
layer0
10
5.8674253
20
0.987832
11
5.8747084
21
0.9612255
0
LINE
8
layer0
10
5.8747084
20
0.9612255
11
5.8844108
21
0.940782
0
LINE
8
layer0
10
5.8844108
20
0.940782
11
5.8975324
21
0.9212214
0
LINE
8
layer0
10
5.8975324
20
0.9212214
11
5.9140497
21
0.9026922
0
LINE
8
layer0
10
5.9140497
20
0.9026922
11
5.9570631
21
0.8692348
0
LINE
8
layer0
10
5.9570631
20
0.8692348
11
6.0131088
21
0.8414597
0
LINE
8
layer0
10
6.0131088
20
0.8414597
11
6.081759
21
0.8203875
0
LINE
8
layer0
10
6.081759
20
0.8203875
11
6.1625394
21
0.8070176
0
LINE
8
layer0
10
6.1625394
20
0.8070176
11
6.2548902
21
0.8023198
0
LINE
8
layer0
10
6.2548902
20
0.8023198
11
6.3582072
21
0.8072332
0
LINE
8
layer0
10
6.3582072
20
0.8072332
11
6.4718443
21
0.8226566
0
LINE
8
layer0
10
6.4718443
20
0.8226566
11
6.540051
21
0.8350753
0
LINE
8
layer0
10
6.540051
20
0.8350753
11
6.597725
21
0.8358484
0
LINE
8
layer0
10
6.597725
20
0.8358484
11
6.7044121
21
0.828648
0
LINE
8
layer0
10
6.7044121
20
0.828648
11
6.852141
21
0.8062902
0
LINE
8
layer0
10
6.852141
20
0.8062902
11
6.9449216
21
0.7864073
0
LINE
8
layer0
10
6.9449216
20
0.7864073
11
7.0455395
21
0.7603639
0
LINE
8
layer0
10
7.0455395
20
0.7603639
11
7.1569784
21
0.7265024
0
LINE
8
layer0
10
7.1569784
20
0.7265024
11
7.2786918
21
0.6838468
0
LINE
8
layer0
10
7.2786918
20
0.6838468
11
7.4069636
21
0.6327693
0
LINE
8
layer0
10
7.4069636
20
0.6327693
11
7.5436504
21
0.5716527
0
LINE
8
layer0
10
7.5436504
20
0.5716527
11
7.6907952
21
0.498286
0
LINE
8
layer0
10
7.6907952
20
0.498286
11
7.8429461
21
0.4142662
0
LINE
8
layer0
10
7.8429461
20
0.4142662
11
7.993461
21
0.3227409
0
ARC
8
layer0
10
-0.0000262
20
0
40
8
50
357.6879111
51
362.3120889
0
LINE
8
layer0
10
7.993461
20
-0.3227409
11
7.8429461
21
-0.4142662
0
LINE
8
layer0
10
7.8429461
20
-0.4142662
11
7.6907952
21
-0.498286
0
LINE
8
layer0
10
7.6907952
20
-0.498286
11
7.5436504
21
-0.5716527
0
LINE
8
layer0
10
7.5436504
20
-0.5716527
11
7.4069636
21
-0.6327693
0
LINE
8
layer0
10
7.4069636
20
-0.6327693
11
7.2786918
21
-0.6838468
0
LINE
8
layer0
10
7.2786918
20
-0.6838468
11
7.1569784
21
-0.7265024
0
LINE
8
layer0
10
7.1569784
20
-0.7265024
11
7.0455395
21
-0.7603639
0
LINE
8
layer0
10
7.0455395
20
-0.7603639
11
6.9449216
21
-0.7864073
0
LINE
8
layer0
10
6.9449216
20
-0.7864073
11
6.852141
21
-0.8062902
0
LINE
8
layer0
10
6.852141
20
-0.8062902
11
6.7044121
21
-0.828648
0
LINE
8
layer0
10
6.7044121
20
-0.828648
11
6.597725
21
-0.8358484
0
LINE
8
layer0
10
6.597725
20
-0.8358484
11
6.540051
21
-0.8350753
0
LINE
8
layer0
10
6.540051
20
-0.8350753
11
6.4718443
21
-0.8226566
0
LINE
8
layer0
10
6.4718443
20
-0.8226566
11
6.3582072
21
-0.8072332
0
LINE
8
layer0
10
6.3582072
20
-0.8072332
11
6.2548902
21
-0.8023198
0
LINE
8
layer0
10
6.2548902
20
-0.8023198
11
6.1625394
21
-0.8070176
0
LINE
8
layer0
10
6.1625394
20
-0.8070176
11
6.081759
21
-0.8203875
0
LINE
8
layer0
10
6.081759
20
-0.8203875
11
6.0131088
21
-0.8414597
0
LINE
8
layer0
10
6.0131088
20
-0.8414597
11
5.9570631
21
-0.8692348
0
LINE
8
layer0
10
5.9570631
20
-0.8692348
11
5.9140497
21
-0.9026922
0
LINE
8
layer0
10
5.9140497
20
-0.9026922
11
5.8975324
21
-0.9212214
0
LINE
8
layer0
10
5.8975324
20
-0.9212214
11
5.8844108
21
-0.940782
0
LINE
8
layer0
10
5.8844108
20
-0.940782
11
5.8747084
21
-0.9612255
0
LINE
8
layer0
10
5.8747084
20
-0.9612255
11
5.8674253
21
-0.987832
0
LINE
8
layer0
10
5.8674253
20
-0.987832
11
5.8240478
21
-1.2178773
0
LINE
8
layer0
10
5.8240478
20
-1.2178773
11
5.8008211
21
-1.3239996
0
LINE
8
layer0
10
5.8008211
20
-1.3239996
11
5.7757029
21
-1.4296901
0
LINE
8
layer0
10
5.7757029
20
-1.4296901
11
5.7149718
21
-1.6557746
0
LINE
8
layer0
10
5.7149718
20
-1.6557746
11
5.7099895
21
-1.6829062
0
LINE
8
layer0
10
5.7099895
20
-1.6829062
11
5.7098609
21
-1.7055349
0
LINE
8
layer0
10
5.7098609
20
-1.7055349
11
5.7131961
21
-1.7288516
0
LINE
8
layer0
10
5.7131961
20
-1.7288516
11
5.7200381
21
-1.7527124
0
LINE
8
layer0
10
5.7200381
20
-1.7527124
11
5.7442752
21
-1.8015193
0
LINE
8
layer0
10
5.7442752
20
-1.8015193
11
5.7827195
21
-1.8508611
0
LINE
8
layer0
10
5.7827195
20
-1.8508611
11
5.8354283
21
-1.8996327
0
LINE
8
layer0
10
5.8354283
20
-1.8996327
11
5.902408
21
-1.9467279
0
LINE
8
layer0
10
5.902408
20
-1.9467279
11
5.9835749
21
-1.9910299
0
LINE
8
layer0
10
5.9835749
20
-1.9910299
11
6.0787922
21
-2.0314307
0
LINE
8
layer0
10
6.0787922
20
-2.0314307
11
6.1878676
21
-2.0668401
0
LINE
8
layer0
10
6.1878676
20
-2.0668401
11
6.2547079
21
-2.0852449
0
LINE
8
layer0
10
6.2547079
20
-2.0852449
11
6.3070058
21
-2.1095722
0
LINE
8
layer0
10
6.3070058
20
-2.1095722
11
6.4000034
21
-2.1623494
0
LINE
8
layer0
10
6.4000034
20
-2.1623494
11
6.523402
21
-2.2465902
0
LINE
8
layer0
10
6.523402
20
-2.2465902
11
6.5983675
21
-2.30476
0
LINE
8
layer0
10
6.5983675
20
-2.30476
11
6.6777213
21
-2.3718808
0
LINE
8
layer0
10
6.6777213
20
-2.3718808
11
6.7634323
21
-2.4507405
0
LINE
8
layer0
10
6.7634323
20
-2.4507405
11
6.8545847
21
-2.5419814
0
LINE
8
layer0
10
6.8545847
20
-2.5419814
11
6.9479919
21
-2.6436556
0
LINE
8
layer0
10
6.9479919
20
-2.6436556
11
7.0446249
21
-2.758026
0
LINE
8
layer0
10
7.0446249
20
-2.758026
11
7.1453653
21
-2.8879708
0
LINE
8
layer0
10
7.1453653
20
-2.8879708
11
7.2459937
21
-3.0296858
0
LINE
8
layer0
10
7.2459937
20
-3.0296858
11
7.3418915
21
-3.1774532
0
ARC
8
layer0
10
-0.0000239
20
0.0000109
40
8
50
331.9736297
51
336.5978073
0
LINE
8
layer0
10
7.0618275
20
-3.7590122
11
6.8865069
21
-3.7761678
0
LINE
8
layer0
10
6.8865069
20
-3.7761678
11
6.7129689
21
-3.7858512
0
LINE
8
layer0
10
6.7129689
20
-3.7858512
11
6.5485634
21
-3.7881085
0
LINE
8
layer0
10
6.5485634
20
-3.7881085
11
6.3988953
21
-3.7838665
0
LINE
8
layer0
10
6.3988953
20
-3.7838665
11
6.2611647
21
-3.7742306
0
LINE
8
layer0
10
6.2611647
20
-3.7742306
11
6.1329971
21
-3.7598526
0
LINE
8
layer0
10
6.1329971
20
-3.7598526
11
6.0179022
21
-3.7420093
0
LINE
8
layer0
10
6.0179022
20
-3.7420093
11
5.9159488
21
-3.7218171
0
LINE
8
layer0
10
5.9159488
20
-3.7218171
11
5.8237295
21
-3.6994749
0
LINE
8
layer0
10
5.8237295
20
-3.6994749
11
5.6809297
21
-3.6555214
0
LINE
8
layer0
10
5.6809297
20
-3.6555214
11
5.5816838
21
-3.615719
0
LINE
8
layer0
10
5.5816838
20
-3.615719
11
5.5300567
21
-3.5899987
0
LINE
8
layer0
10
5.5300567
20
-3.5899987
11
5.473993
21
-3.549216
0
LINE
8
layer0
10
5.473993
20
-3.549216
11
5.3783014
21
-3.4860147
0
LINE
8
layer0
10
5.3783014
20
-3.4860147
11
5.2873478
21
-3.4367603
0
LINE
8
layer0
10
5.2873478
20
-3.4367603
11
5.2021043
21
-3.4009234
0
LINE
8
layer0
10
5.2021043
20
-3.4009234
11
5.1235227
21
-3.37792
0
LINE
8
layer0
10
5.1235227
20
-3.37792
11
5.0525281
21
-3.3671191
0
LINE
8
layer0
10
5.0525281
20
-3.3671191
11
4.9899815
21
-3.3678263
0
LINE
8
layer0
10
4.9899815
20
-3.3678263
11
4.9367111
21
-3.3793076
0
LINE
8
layer0
10
4.9367111
20
-3.3793076
11
4.9137901
21
-3.3888352
0
LINE
8
layer0
10
4.9137901
20
-3.3888352
11
4.8934809
21
-3.4007654
0
LINE
8
layer0
10
4.8934809
20
-3.4007654
11
4.8758693
21
-3.4149747
0
LINE
8
layer0
10
4.8758693
20
-3.4149747
11
4.8577633
21
-3.4357863
0
LINE
8
layer0
10
4.8577633
20
-3.4357863
11
4.7188686
21
-3.6242292
0
LINE
8
layer0
10
4.7188686
20
-3.6242292
11
4.6518973
21
-3.7097643
0
LINE
8
layer0
10
4.6518973
20
-3.7097643
11
4.5834092
21
-3.7940899
0
LINE
8
layer0
10
4.5834092
20
-3.7940899
11
4.430598
21
-3.9714347
0
LINE
8
layer0
10
4.430598
20
-3.9714347
11
4.4143372
21
-3.9937177
0
LINE
8
layer0
10
4.4143372
20
-3.9937177
11
4.4044031
21
-4.0140497
0
LINE
8
layer0
10
4.4044031
20
-4.0140497
11
4.3972912
21
-4.0365044
0
LINE
8
layer0
10
4.3972912
20
-4.0365044
11
4.3931029
21
-4.0609708
0
LINE
8
layer0
10
4.3931029
20
-4.0609708
11
4.3937632
21
-4.1154604
0
LINE
8
layer0
10
4.3937632
20
-4.1154604
11
4.4069917
21
-4.1765962
0
LINE
8
layer0
10
4.4069917
20
-4.1765962
11
4.4333195
21
-4.2434074
0
LINE
8
layer0
10
4.4333195
20
-4.2434074
11
4.4732323
21
-4.3149001
0
LINE
8
layer0
10
4.4732323
20
-4.3149001
11
4.5271392
21
-4.3900318
0
LINE
8
layer0
10
4.5271392
20
-4.3900318
11
4.5953977
21
-4.4677449
0
LINE
8
layer0
10
4.5953977
20
-4.4677449
11
4.6783077
21
-4.5469737
0
LINE
8
layer0
10
4.6783077
20
-4.5469737
11
4.7305433
21
-4.5925568
0
LINE
8
layer0
10
4.7305433
20
-4.5925568
11
4.7671068
21
-4.6371662
0
LINE
8
layer0
10
4.7671068
20
-4.6371662
11
4.8279956
21
-4.7250669
0
LINE
8
layer0
10
4.8279956
20
-4.7250669
11
4.9026231
21
-4.8545059
0
LINE
8
layer0
10
4.9026231
20
-4.8545059
11
4.9449258
21
-4.9394414
0
LINE
8
layer0
10
4.9449258
20
-4.9394414
11
4.9872985
21
-5.0343454
0
LINE
8
layer0
10
4.9872985
20
-5.0343454
11
5.0303055
21
-5.1425842
0
LINE
8
layer0
10
5.0303055
20
-5.1425842
11
5.072843
21
-5.2643389
0
LINE
8
layer0
10
5.072843
20
-5.2643389
11
5.1128853
21
-5.3964721
0
LINE
8
layer0
10
5.1128853
20
-5.3964721
11
5.1503251
21
-5.5414438
0
LINE
8
layer0
10
5.1503251
20
-5.5414438
11
5.1847081
21
-5.7022296
0
LINE
8
layer0
10
5.1847081
20
-5.7022296
11
5.2138833
21
-5.8735714
0
LINE
8
layer0
10
5.2138833
20
-5.8735714
11
5.2361704
21
-6.0483138
0
ARC
8
layer0
10
-0.0000162
20
0.0000207
40
8
50
306.259338
51
310.8835157
0
LINE
8
layer0
10
4.7315124
20
-6.4507651
11
4.5661106
21
-6.390153
0
LINE
8
layer0
10
4.5661106
20
-6.390153
11
4.4055567
21
-6.3235821
0
LINE
8
layer0
10
4.4055567
20
-6.3235821
11
4.256453
21
-6.254283
0
LINE
8
layer0
10
4.256453
20
-6.254283
11
4.1234473
21
-6.1855226
0
LINE
8
layer0
10
4.1234473
20
-6.1855226
11
4.0035372
21
-6.1170819
0
LINE
8
layer0
10
4.0035372
20
-6.1170819
11
3.8943006
21
-6.0485179
0
LINE
8
layer0
10
3.8943006
20
-6.0485179
11
3.7983456
21
-5.9825037
0
LINE
8
layer0
10
3.7983456
20
-5.9825037
11
3.7152498
21
-5.9200753
0
LINE
8
layer0
10
3.7152498
20
-5.9200753
11
3.641857
21
-5.8599333
0
LINE
8
layer0
10
3.641857
20
-5.8599333
11
3.5322695
21
-5.758374
0
LINE
8
layer0
10
3.5322695
20
-5.758374
11
3.4601217
21
-5.679452
0
LINE
8
layer0
10
3.4601217
20
-5.679452
11
3.4247669
21
-5.6338787
0
LINE
8
layer0
10
3.4247669
20
-5.6338787
11
3.3919501
21
-5.5728096
0
LINE
8
layer0
10
3.3919501
20
-5.5728096
11
3.333157
21
-5.4743483
0
LINE
8
layer0
10
3.333157
20
-5.4743483
11
3.2725813
21
-5.3905083
0
LINE
8
layer0
10
3.2725813
20
-5.3905083
11
3.2113287
21
-5.3212346
0
LINE
8
layer0
10
3.2113287
20
-5.3212346
11
3.1505099
21
-5.2664139
0
LINE
8
layer0
10
3.1505099
20
-5.2664139
11
3.0912323
21
-5.2258793
0
LINE
8
layer0
10
3.0912323
20
-5.2258793
11
3.034573
21
-5.1993785
0
LINE
8
layer0
10
3.034573
20
-5.1993785
11
2.9815964
21
-5.1866096
0
LINE
8
layer0
10
2.9815964
20
-5.1866096
11
2.9568115
21
-5.1852486
0
LINE
8
layer0
10
2.9568115
20
-5.1852486
11
2.9333372
21
-5.1871856
0
LINE
8
layer0
10
2.9333372
20
-5.1871856
11
2.9113044
21
-5.1923463
0
LINE
8
layer0
10
2.9113044
20
-5.1923463
11
2.8859617
21
-5.203241
0
LINE
8
layer0
10
2.8859617
20
-5.203241
11
2.6790596
21
-5.312758
0
LINE
8
layer0
10
2.6790596
20
-5.312758
11
2.5816082
21
-5.3607648
0
LINE
8
layer0
10
2.5816082
20
-5.3607648
11
2.4833151
21
-5.4070236
0
LINE
8
layer0
10
2.4833151
20
-5.4070236
11
2.2686899
21
-5.5005034
0
LINE
8
layer0
10
2.2686899
20
-5.5005034
11
2.2443712
21
-5.5135244
0
LINE
8
layer0
10
2.2443712
20
-5.5135244
11
2.2265992
21
-5.5275326
0
LINE
8
layer0
10
2.2265992
20
-5.5275326
11
2.2104488
21
-5.5446779
0
LINE
8
layer0
10
2.2104488
20
-5.5446779
11
2.1960597
21
-5.5649042
0
LINE
8
layer0
10
2.1960597
20
-5.5649042
11
2.1730125
21
-5.6142841
0
LINE
8
layer0
10
2.1730125
20
-5.6142841
11
2.1584052
21
-5.6751052
0
LINE
8
layer0
10
2.1584052
20
-5.6751052
11
2.1531374
21
-5.7467232
0
LINE
8
layer0
10
2.1531374
20
-5.7467232
11
2.1580781
21
-5.8284534
0
LINE
8
layer0
10
2.1580781
20
-5.8284534
11
2.174048
21
-5.9195341
0
LINE
8
layer0
10
2.174048
20
-5.9195341
11
2.2018284
21
-6.0191674
0
LINE
8
layer0
10
2.2018284
20
-6.0191674
11
2.2421517
21
-6.1265234
0
LINE
8
layer0
10
2.2421517
20
-6.1265234
11
2.2694365
21
-6.1902565
0
LINE
8
layer0
10
2.2694365
20
-6.1902565
11
2.2830238
21
-6.2463125
0
LINE
8
layer0
10
2.2830238
20
-6.2463125
11
2.2997441
21
-6.351927
0
LINE
8
layer0
10
2.2997441
20
-6.351927
11
2.3108196
21
-6.5009271
0
LINE
8
layer0
10
2.3108196
20
-6.5009271
11
2.3120809
21
-6.5958058
0
LINE
8
layer0
10
2.3120809
20
-6.5958058
11
2.3090801
21
-6.6996962
0
LINE
8
layer0
10
2.3090801
20
-6.6996962
11
2.300865
21
-6.815876
0
LINE
8
layer0
10
2.300865
20
-6.815876
11
2.2863626
21
-6.9440296
0
LINE
8
layer0
10
2.2863626
20
-6.9440296
11
2.2651089
21
-7.0804512
0
LINE
8
layer0
10
2.2651089
20
-7.0804512
11
2.2359403
21
-7.2273106
0
LINE
8
layer0
10
2.2359403
20
-7.2273106
11
2.1971559
21
-7.3870919
0
LINE
8
layer0
10
2.1971559
20
-7.3870919
11
2.1490994
21
-7.5541242
0
LINE
8
layer0
10
2.1490994
20
-7.5541242
11
2.0933615
21
-7.7212316
0
ARC
8
layer0
10
-0.0000058
20
0.0000256
40
8
50
280.5450538
51
285.1692314
0
LINE
8
layer0
10
1.4640633
20
-7.8648648
11
1.34134
21
-7.73849
0
LINE
8
layer0
10
1.34134
20
-7.73849
11
1.22557
21
-7.60885
0
LINE
8
layer0
10
1.22557
20
-7.60885
11
1.1213
21
-7.48172
0
LINE
8
layer0
10
1.1213
20
-7.48172
11
1.0313
21
-7.36206
0
LINE
8
layer0
10
1.0313
20
-7.36206
11
0.95296
21
-7.24837
0
LINE
8
layer0
10
0.95296
20
-7.24837
11
0.88429
21
-7.1392
0
LINE
8
layer0
10
0.88429
20
-7.1392
11
0.82648
21
-7.03809
0
LINE
8
layer0
10
0.82648
20
-7.03809
11
0.7787
21
-6.94579
0
LINE
8
layer0
10
0.7787
20
-6.94579
11
0.73867
21
-6.85976
0
LINE
8
layer0
10
0.73867
20
-6.85976
11
0.684
21
-6.72071
0
LINE
8
layer0
10
0.684
20
-6.72071
11
0.65324
21
-6.6183
0
LINE
8
layer0
10
0.65324
20
-6.6183
11
0.64116
21
-6.5619
0
LINE
8
layer0
10
0.64116
20
-6.5619
11
0.63809
21
-6.49264
0
LINE
8
layer0
10
0.63809
20
-6.49264
11
0.62784
21
-6.37842
0
LINE
8
layer0
10
0.62784
20
-6.37842
11
0.60964
21
-6.2766
0
LINE
8
layer0
10
0.60964
20
-6.2766
11
0.58451
21
-6.18761
0
LINE
8
layer0
10
0.58451
20
-6.18761
11
0.5535
21
-6.11183
0
LINE
8
layer0
10
0.5535
20
-6.11183
11
0.51768
21
-6.04959
0
LINE
8
layer0
10
0.51768
20
-6.04959
11
0.47813
21
-6.00113
0
LINE
8
layer0
10
0.47813
20
-6.00113
11
0.43594
21
-5.96664
0
LINE
8
layer0
10
0.43594
20
-5.96664
11
0.4142
21
-5.95466
0
LINE
8
layer0
10
0.4142
20
-5.95466
11
0.39221
21
-5.94622
0
LINE
8
layer0
10
0.39221
20
-5.94622
11
0.37012
21
-5.94131
0
LINE
8
layer0
10
0.37012
20
-5.94131
11
0.34256
21
-5.94013
0
LINE
8
layer0
10
0.34256
20
-5.94013
11
0.10863
21
-5.94903
0
LINE
8
layer0
10
0.10863
20
-5.94903
11
0
21
-5.95
0
LINE
8
layer0
10
0
20
-5.95
11
-0.10863
21
-5.94903
0
LINE
8
layer0
10
-0.10863
20
-5.94903
11
-0.34256
21
-5.94013
0
LINE
8
layer0
10
-0.34256
20
-5.94013
11
-0.37012
21
-5.94131
0
LINE
8
layer0
10
-0.37012
20
-5.94131
11
-0.39221
21
-5.94622
0
LINE
8
layer0
10
-0.39221
20
-5.94622
11
-0.4142
21
-5.95466
0
LINE
8
layer0
10
-0.4142
20
-5.95466
11
-0.43594
21
-5.96664
0
LINE
8
layer0
10
-0.43594
20
-5.96664
11
-0.47813
21
-6.00113
0
LINE
8
layer0
10
-0.47813
20
-6.00113
11
-0.51768
21
-6.04959
0
LINE
8
layer0
10
-0.51768
20
-6.04959
11
-0.5535
21
-6.11183
0
LINE
8
layer0
10
-0.5535
20
-6.11183
11
-0.58451
21
-6.18761
0
LINE
8
layer0
10
-0.58451
20
-6.18761
11
-0.60964
21
-6.2766
0
LINE
8
layer0
10
-0.60964
20
-6.2766
11
-0.62784
21
-6.37842
0
LINE
8
layer0
10
-0.62784
20
-6.37842
11
-0.63809
21
-6.49264
0
LINE
8
layer0
10
-0.63809
20
-6.49264
11
-0.64116
21
-6.5619
0
LINE
8
layer0
10
-0.64116
20
-6.5619
11
-0.65324
21
-6.6183
0
LINE
8
layer0
10
-0.65324
20
-6.6183
11
-0.684
21
-6.72071
0
LINE
8
layer0
10
-0.684
20
-6.72071
11
-0.73867
21
-6.85976
0
LINE
8
layer0
10
-0.73867
20
-6.85976
11
-0.7787
21
-6.94579
0
LINE
8
layer0
10
-0.7787
20
-6.94579
11
-0.82648
21
-7.03809
0
LINE
8
layer0
10
-0.82648
20
-7.03809
11
-0.88429
21
-7.1392
0
LINE
8
layer0
10
-0.88429
20
-7.1392
11
-0.95296
21
-7.24837
0
LINE
8
layer0
10
-0.95296
20
-7.24837
11
-1.0313
21
-7.36206
0
LINE
8
layer0
10
-1.0313
20
-7.36206
11
-1.1213
21
-7.48172
0
LINE
8
layer0
10
-1.1213
20
-7.48172
11
-1.22557
21
-7.60885
0
LINE
8
layer0
10
-1.22557
20
-7.60885
11
-1.34134
21
-7.73849
0
LINE
8
layer0
10
-1.34134
20
-7.73849
11
-1.4640633
21
-7.8648648
0
ARC
8
layer0
10
0.0000057
20
0.0000257
40
8
50
254.8307695
51
259.4549471
0
LINE
8
layer0
10
-2.0933615
20
-7.7212316
11
-2.1490994
21
-7.5541242
0
LINE
8
layer0
10
-2.1490994
20
-7.5541242
11
-2.1971559
21
-7.3870919
0
LINE
8
layer0
10
-2.1971559
20
-7.3870919
11
-2.2359403
21
-7.2273106
0
LINE
8
layer0
10
-2.2359403
20
-7.2273106
11
-2.2651089
21
-7.0804512
0
LINE
8
layer0
10
-2.2651089
20
-7.0804512
11
-2.2863626
21
-6.9440296
0
LINE
8
layer0
10
-2.2863626
20
-6.9440296
11
-2.300865
21
-6.815876
0
LINE
8
layer0
10
-2.300865
20
-6.815876
11
-2.3090801
21
-6.6996962
0
LINE
8
layer0
10
-2.3090801
20
-6.6996962
11
-2.3120809
21
-6.5958058
0
LINE
8
layer0
10
-2.3120809
20
-6.5958058
11
-2.3108196
21
-6.5009271
0
LINE
8
layer0
10
-2.3108196
20
-6.5009271
11
-2.2997441
21
-6.351927
0
LINE
8
layer0
10
-2.2997441
20
-6.351927
11
-2.2830238
21
-6.2463125
0
LINE
8
layer0
10
-2.2830238
20
-6.2463125
11
-2.2694365
21
-6.1902565
0
LINE
8
layer0
10
-2.2694365
20
-6.1902565
11
-2.2421517
21
-6.1265234
0
LINE
8
layer0
10
-2.2421517
20
-6.1265234
11
-2.2018284
21
-6.0191674
0
LINE
8
layer0
10
-2.2018284
20
-6.0191674
11
-2.174048
21
-5.9195341
0
LINE
8
layer0
10
-2.174048
20
-5.9195341
11
-2.1580781
21
-5.8284534
0
LINE
8
layer0
10
-2.1580781
20
-5.8284534
11
-2.1531374
21
-5.7467232
0
LINE
8
layer0
10
-2.1531374
20
-5.7467232
11
-2.1584052
21
-5.6751052
0
LINE
8
layer0
10
-2.1584052
20
-5.6751052
11
-2.1730125
21
-5.6142841
0
LINE
8
layer0
10
-2.1730125
20
-5.6142841
11
-2.1960597
21
-5.5649042
0
LINE
8
layer0
10
-2.1960597
20
-5.5649042
11
-2.2104488
21
-5.5446779
0
LINE
8
layer0
10
-2.2104488
20
-5.5446779
11
-2.2265992
21
-5.5275326
0
LINE
8
layer0
10
-2.2265992
20
-5.5275326
11
-2.2443712
21
-5.5135244
0
LINE
8
layer0
10
-2.2443712
20
-5.5135244
11
-2.2686899
21
-5.5005034
0
LINE
8
layer0
10
-2.2686899
20
-5.5005034
11
-2.4833151
21
-5.4070236
0
LINE
8
layer0
10
-2.4833151
20
-5.4070236
11
-2.5816082
21
-5.3607648
0
LINE
8
layer0
10
-2.5816082
20
-5.3607648
11
-2.6790596
21
-5.312758
0
LINE
8
layer0
10
-2.6790596
20
-5.312758
11
-2.8859617
21
-5.203241
0
LINE
8
layer0
10
-2.8859617
20
-5.203241
11
-2.9113044
21
-5.1923463
0
LINE
8
layer0
10
-2.9113044
20
-5.1923463
11
-2.9333372
21
-5.1871856
0
LINE
8
layer0
10
-2.9333372
20
-5.1871856
11
-2.9568115
21
-5.1852486
0
LINE
8
layer0
10
-2.9568115
20
-5.1852486
11
-2.9815964
21
-5.1866096
0
LINE
8
layer0
10
-2.9815964
20
-5.1866096
11
-3.034573
21
-5.1993785
0
LINE
8
layer0
10
-3.034573
20
-5.1993785
11
-3.0912323
21
-5.2258793
0
LINE
8
layer0
10
-3.0912323
20
-5.2258793
11
-3.1505099
21
-5.2664139
0
LINE
8
layer0
10
-3.1505099
20
-5.2664139
11
-3.2113287
21
-5.3212346
0
LINE
8
layer0
10
-3.2113287
20
-5.3212346
11
-3.2725813
21
-5.3905083
0
LINE
8
layer0
10
-3.2725813
20
-5.3905083
11
-3.333157
21
-5.4743483
0
LINE
8
layer0
10
-3.333157
20
-5.4743483
11
-3.3919501
21
-5.5728096
0
LINE
8
layer0
10
-3.3919501
20
-5.5728096
11
-3.4247669
21
-5.6338787
0
LINE
8
layer0
10
-3.4247669
20
-5.6338787
11
-3.4601217
21
-5.679452
0
LINE
8
layer0
10
-3.4601217
20
-5.679452
11
-3.5322695
21
-5.758374
0
LINE
8
layer0
10
-3.5322695
20
-5.758374
11
-3.641857
21
-5.8599333
0
LINE
8
layer0
10
-3.641857
20
-5.8599333
11
-3.7152498
21
-5.9200753
0
LINE
8
layer0
10
-3.7152498
20
-5.9200753
11
-3.7983456
21
-5.9825037
0
LINE
8
layer0
10
-3.7983456
20
-5.9825037
11
-3.8943006
21
-6.0485179
0
LINE
8
layer0
10
-3.8943006
20
-6.0485179
11
-4.0035372
21
-6.1170819
0
LINE
8
layer0
10
-4.0035372
20
-6.1170819
11
-4.1234473
21
-6.1855226
0
LINE
8
layer0
10
-4.1234473
20
-6.1855226
11
-4.256453
21
-6.254283
0
LINE
8
layer0
10
-4.256453
20
-6.254283
11
-4.4055567
21
-6.3235821
0
LINE
8
layer0
10
-4.4055567
20
-6.3235821
11
-4.5661106
21
-6.390153
0
LINE
8
layer0
10
-4.5661106
20
-6.390153
11
-4.7315124
21
-6.4507651
0
ARC
8
layer0
10
0.0000162
20
0.0000207
40
8
50
229.1164843
51
233.740662
0
LINE
8
layer0
10
-5.2361704
20
-6.0483138
11
-5.2138833
21
-5.8735714
0
LINE
8
layer0
10
-5.2138833
20
-5.8735714
11
-5.1847081
21
-5.7022296
0
LINE
8
layer0
10
-5.1847081
20
-5.7022296
11
-5.1503251
21
-5.5414438
0
LINE
8
layer0
10
-5.1503251
20
-5.5414438
11
-5.1128853
21
-5.3964721
0
LINE
8
layer0
10
-5.1128853
20
-5.3964721
11
-5.072843
21
-5.2643389
0
LINE
8
layer0
10
-5.072843
20
-5.2643389
11
-5.0303055
21
-5.1425842
0
LINE
8
layer0
10
-5.0303055
20
-5.1425842
11
-4.9872985
21
-5.0343454
0
LINE
8
layer0
10
-4.9872985
20
-5.0343454
11
-4.9449258
21
-4.9394414
0
LINE
8
layer0
10
-4.9449258
20
-4.9394414
11
-4.9026231
21
-4.8545059
0
LINE
8
layer0
10
-4.9026231
20
-4.8545059
11
-4.8279956
21
-4.7250669
0
LINE
8
layer0
10
-4.8279956
20
-4.7250669
11
-4.7671068
21
-4.6371662
0
LINE
8
layer0
10
-4.7671068
20
-4.6371662
11
-4.7305433
21
-4.5925568
0
LINE
8
layer0
10
-4.7305433
20
-4.5925568
11
-4.6783077
21
-4.5469737
0
LINE
8
layer0
10
-4.6783077
20
-4.5469737
11
-4.5953977
21
-4.4677449
0
LINE
8
layer0
10
-4.5953977
20
-4.4677449
11
-4.5271392
21
-4.3900318
0
LINE
8
layer0
10
-4.5271392
20
-4.3900318
11
-4.4732323
21
-4.3149001
0
LINE
8
layer0
10
-4.4732323
20
-4.3149001
11
-4.4333195
21
-4.2434074
0
LINE
8
layer0
10
-4.4333195
20
-4.2434074
11
-4.4069917
21
-4.1765962
0
LINE
8
layer0
10
-4.4069917
20
-4.1765962
11
-4.3937632
21
-4.1154604
0
LINE
8
layer0
10
-4.3937632
20
-4.1154604
11
-4.3931029
21
-4.0609708
0
LINE
8
layer0
10
-4.3931029
20
-4.0609708
11
-4.3972912
21
-4.0365044
0
LINE
8
layer0
10
-4.3972912
20
-4.0365044
11
-4.4044031
21
-4.0140497
0
LINE
8
layer0
10
-4.4044031
20
-4.0140497
11
-4.4143372
21
-3.9937177
0
LINE
8
layer0
10
-4.4143372
20
-3.9937177
11
-4.430598
21
-3.9714347
0
LINE
8
layer0
10
-4.430598
20
-3.9714347
11
-4.5834092
21
-3.7940899
0
LINE
8
layer0
10
-4.5834092
20
-3.7940899
11
-4.6518973
21
-3.7097643
0
LINE
8
layer0
10
-4.6518973
20
-3.7097643
11
-4.7188686
21
-3.6242292
0
LINE
8
layer0
10
-4.7188686
20
-3.6242292
11
-4.8577633
21
-3.4357863
0
LINE
8
layer0
10
-4.8577633
20
-3.4357863
11
-4.8758693
21
-3.4149747
0
LINE
8
layer0
10
-4.8758693
20
-3.4149747
11
-4.8934809
21
-3.4007654
0
LINE
8
layer0
10
-4.8934809
20
-3.4007654
11
-4.9137901
21
-3.3888352
0
LINE
8
layer0
10
-4.9137901
20
-3.3888352
11
-4.9367111
21
-3.3793076
0
LINE
8
layer0
10
-4.9367111
20
-3.3793076
11
-4.9899815
21
-3.3678263
0
LINE
8
layer0
10
-4.9899815
20
-3.3678263
11
-5.0525281
21
-3.3671191
0
LINE
8
layer0
10
-5.0525281
20
-3.3671191
11
-5.1235227
21
-3.37792
0
LINE
8
layer0
10
-5.1235227
20
-3.37792
11
-5.2021043
21
-3.4009234
0
LINE
8
layer0
10
-5.2021043
20
-3.4009234
11
-5.2873478
21
-3.4367603
0
LINE
8
layer0
10
-5.2873478
20
-3.4367603
11
-5.3783014
21
-3.4860147
0
LINE
8
layer0
10
-5.3783014
20
-3.4860147
11
-5.473993
21
-3.549216
0
LINE
8
layer0
10
-5.473993
20
-3.549216
11
-5.5300567
21
-3.5899987
0
LINE
8
layer0
10
-5.5300567
20
-3.5899987
11
-5.5816838
21
-3.615719
0
LINE
8
layer0
10
-5.5816838
20
-3.615719
11
-5.6809297
21
-3.6555214
0
LINE
8
layer0
10
-5.6809297
20
-3.6555214
11
-5.8237295
21
-3.6994749
0
LINE
8
layer0
10
-5.8237295
20
-3.6994749
11
-5.9159488
21
-3.7218171
0
LINE
8
layer0
10
-5.9159488
20
-3.7218171
11
-6.0179022
21
-3.7420093
0
LINE
8
layer0
10
-6.0179022
20
-3.7420093
11
-6.1329971
21
-3.7598526
0
LINE
8
layer0
10
-6.1329971
20
-3.7598526
11
-6.2611647
21
-3.7742306
0
LINE
8
layer0
10
-6.2611647
20
-3.7742306
11
-6.3988953
21
-3.7838665
0
LINE
8
layer0
10
-6.3988953
20
-3.7838665
11
-6.5485634
21
-3.7881085
0
LINE
8
layer0
10
-6.5485634
20
-3.7881085
11
-6.7129689
21
-3.7858512
0
LINE
8
layer0
10
-6.7129689
20
-3.7858512
11
-6.8865069
21
-3.7761678
0
LINE
8
layer0
10
-6.8865069
20
-3.7761678
11
-7.0618275
21
-3.7590122
0
ARC
8
layer0
10
0.0000239
20
0.0000109
40
8
50
203.4021927
51
208.0263703
0
LINE
8
layer0
10
-7.3418915
20
-3.1774532
11
-7.2459937
21
-3.0296858
0
LINE
8
layer0
10
-7.2459937
20
-3.0296858
11
-7.1453653
21
-2.8879708
0
LINE
8
layer0
10
-7.1453653
20
-2.8879708
11
-7.0446249
21
-2.758026
0
LINE
8
layer0
10
-7.0446249
20
-2.758026
11
-6.9479919
21
-2.6436556
0
LINE
8
layer0
10
-6.9479919
20
-2.6436556
11
-6.8545847
21
-2.5419814
0
LINE
8
layer0
10
-6.8545847
20
-2.5419814
11
-6.7634323
21
-2.4507405
0
LINE
8
layer0
10
-6.7634323
20
-2.4507405
11
-6.6777213
21
-2.3718808
0
LINE
8
layer0
10
-6.6777213
20
-2.3718808
11
-6.5983675
21
-2.30476
0
LINE
8
layer0
10
-6.5983675
20
-2.30476
11
-6.523402
21
-2.2465902
0
LINE
8
layer0
10
-6.523402
20
-2.2465902
11
-6.4000034
21
-2.1623494
0
LINE
8
layer0
10
-6.4000034
20
-2.1623494
11
-6.3070058
21
-2.1095722
0
LINE
8
layer0
10
-6.3070058
20
-2.1095722
11
-6.2547079
21
-2.0852449
0
LINE
8
layer0
10
-6.2547079
20
-2.0852449
11
-6.1878676
21
-2.0668401
0
LINE
8
layer0
10
-6.1878676
20
-2.0668401
11
-6.0787922
21
-2.0314307
0
LINE
8
layer0
10
-6.0787922
20
-2.0314307
11
-5.9835749
21
-1.9910299
0
LINE
8
layer0
10
-5.9835749
20
-1.9910299
11
-5.902408
21
-1.9467279
0
LINE
8
layer0
10
-5.902408
20
-1.9467279
11
-5.8354283
21
-1.8996327
0
LINE
8
layer0
10
-5.8354283
20
-1.8996327
11
-5.7827195
21
-1.8508611
0
LINE
8
layer0
10
-5.7827195
20
-1.8508611
11
-5.7442752
21
-1.8015193
0
LINE
8
layer0
10
-5.7442752
20
-1.8015193
11
-5.7200381
21
-1.7527124
0
LINE
8
layer0
10
-5.7200381
20
-1.7527124
11
-5.7131961
21
-1.7288516
0
LINE
8
layer0
10
-5.7131961
20
-1.7288516
11
-5.7098609
21
-1.7055349
0
LINE
8
layer0
10
-5.7098609
20
-1.7055349
11
-5.7099895
21
-1.6829062
0
LINE
8
layer0
10
-5.7099895
20
-1.6829062
11
-5.7149718
21
-1.6557746
0
LINE
8
layer0
10
-5.7149718
20
-1.6557746
11
-5.7757029
21
-1.4296901
0
LINE
8
layer0
10
-5.7757029
20
-1.4296901
11
-5.8008211
21
-1.3239996
0
LINE
8
layer0
10
-5.8008211
20
-1.3239996
11
-5.8240478
21
-1.2178773
0
LINE
8
layer0
10
-5.8240478
20
-1.2178773
11
-5.8674253
21
-0.987832
0
LINE
8
layer0
10
-5.8674253
20
-0.987832
11
-5.8747084
21
-0.9612255
0
LINE
8
layer0
10
-5.8747084
20
-0.9612255
11
-5.8844108
21
-0.940782
0
LINE
8
layer0
10
-5.8844108
20
-0.940782
11
-5.8975324
21
-0.9212214
0
LINE
8
layer0
10
-5.8975324
20
-0.9212214
11
-5.9140497
21
-0.9026922
0
LINE
8
layer0
10
-5.9140497
20
-0.9026922
11
-5.9570631
21
-0.8692348
0
LINE
8
layer0
10
-5.9570631
20
-0.8692348
11
-6.0131088
21
-0.8414597
0
LINE
8
layer0
10
-6.0131088
20
-0.8414597
11
-6.081759
21
-0.8203875
0
LINE
8
layer0
10
-6.081759
20
-0.8203875
11
-6.1625394
21
-0.8070176
0
LINE
8
layer0
10
-6.1625394
20
-0.8070176
11
-6.2548902
21
-0.8023198
0
LINE
8
layer0
10
-6.2548902
20
-0.8023198
11
-6.3582072
21
-0.8072332
0
LINE
8
layer0
10
-6.3582072
20
-0.8072332
11
-6.4718443
21
-0.8226566
0
LINE
8
layer0
10
-6.4718443
20
-0.8226566
11
-6.540051
21
-0.8350753
0
LINE
8
layer0
10
-6.540051
20
-0.8350753
11
-6.597725
21
-0.8358484
0
LINE
8
layer0
10
-6.597725
20
-0.8358484
11
-6.7044121
21
-0.828648
0
LINE
8
layer0
10
-6.7044121
20
-0.828648
11
-6.852141
21
-0.8062902
0
LINE
8
layer0
10
-6.852141
20
-0.8062902
11
-6.9449216
21
-0.7864073
0
LINE
8
layer0
10
-6.9449216
20
-0.7864073
11
-7.0455395
21
-0.7603639
0
LINE
8
layer0
10
-7.0455395
20
-0.7603639
11
-7.1569784
21
-0.7265024
0
LINE
8
layer0
10
-7.1569784
20
-0.7265024
11
-7.2786918
21
-0.6838468
0
LINE
8
layer0
10
-7.2786918
20
-0.6838468
11
-7.4069636
21
-0.6327693
0
LINE
8
layer0
10
-7.4069636
20
-0.6327693
11
-7.5436504
21
-0.5716527
0
LINE
8
layer0
10
-7.5436504
20
-0.5716527
11
-7.6907952
21
-0.498286
0
LINE
8
layer0
10
-7.6907952
20
-0.498286
11
-7.8429461
21
-0.4142662
0
LINE
8
layer0
10
-7.8429461
20
-0.4142662
11
-7.993461
21
-0.3227409
0
ARC
8
layer0
10
0.0000262
20
0
40
8
50
177.6879111
51
182.3120889
0
LINE
8
layer0
10
-7.993461
20
0.3227409
11
-7.8429461
21
0.4142662
0
LINE
8
layer0
10
-7.8429461
20
0.4142662
11
-7.6907952
21
0.498286
0
LINE
8
layer0
10
-7.6907952
20
0.498286
11
-7.5436504
21
0.5716527
0
LINE
8
layer0
10
-7.5436504
20
0.5716527
11
-7.4069636
21
0.6327693
0
LINE
8
layer0
10
-7.4069636
20
0.6327693
11
-7.2786918
21
0.6838468
0
LINE
8
layer0
10
-7.2786918
20
0.6838468
11
-7.1569784
21
0.7265024
0
LINE
8
layer0
10
-7.1569784
20
0.7265024
11
-7.0455395
21
0.7603639
0
LINE
8
layer0
10
-7.0455395
20
0.7603639
11
-6.9449216
21
0.7864073
0
LINE
8
layer0
10
-6.9449216
20
0.7864073
11
-6.852141
21
0.8062902
0
LINE
8
layer0
10
-6.852141
20
0.8062902
11
-6.7044121
21
0.828648
0
LINE
8
layer0
10
-6.7044121
20
0.828648
11
-6.597725
21
0.8358484
0
LINE
8
layer0
10
-6.597725
20
0.8358484
11
-6.540051
21
0.8350753
0
LINE
8
layer0
10
-6.540051
20
0.8350753
11
-6.4718443
21
0.8226566
0
LINE
8
layer0
10
-6.4718443
20
0.8226566
11
-6.3582072
21
0.8072332
0
LINE
8
layer0
10
-6.3582072
20
0.8072332
11
-6.2548902
21
0.8023198
0
LINE
8
layer0
10
-6.2548902
20
0.8023198
11
-6.1625394
21
0.8070176
0
LINE
8
layer0
10
-6.1625394
20
0.8070176
11
-6.081759
21
0.8203875
0
LINE
8
layer0
10
-6.081759
20
0.8203875
11
-6.0131088
21
0.8414597
0
LINE
8
layer0
10
-6.0131088
20
0.8414597
11
-5.9570631
21
0.8692348
0
LINE
8
layer0
10
-5.9570631
20
0.8692348
11
-5.9140497
21
0.9026922
0
LINE
8
layer0
10
-5.9140497
20
0.9026922
11
-5.8975324
21
0.9212214
0
LINE
8
layer0
10
-5.8975324
20
0.9212214
11
-5.8844108
21
0.940782
0
LINE
8
layer0
10
-5.8844108
20
0.940782
11
-5.8747084
21
0.9612255
0
LINE
8
layer0
10
-5.8747084
20
0.9612255
11
-5.8674253
21
0.987832
0
LINE
8
layer0
10
-5.8674253
20
0.987832
11
-5.8240478
21
1.2178773
0
LINE
8
layer0
10
-5.8240478
20
1.2178773
11
-5.8008211
21
1.3239996
0
LINE
8
layer0
10
-5.8008211
20
1.3239996
11
-5.7757029
21
1.4296901
0
LINE
8
layer0
10
-5.7757029
20
1.4296901
11
-5.7149718
21
1.6557746
0
LINE
8
layer0
10
-5.7149718
20
1.6557746
11
-5.7099895
21
1.6829062
0
LINE
8
layer0
10
-5.7099895
20
1.6829062
11
-5.7098609
21
1.7055349
0
LINE
8
layer0
10
-5.7098609
20
1.7055349
11
-5.7131961
21
1.7288516
0
LINE
8
layer0
10
-5.7131961
20
1.7288516
11
-5.7200381
21
1.7527124
0
LINE
8
layer0
10
-5.7200381
20
1.7527124
11
-5.7442752
21
1.8015193
0
LINE
8
layer0
10
-5.7442752
20
1.8015193
11
-5.7827195
21
1.8508611
0
LINE
8
layer0
10
-5.7827195
20
1.8508611
11
-5.8354283
21
1.8996327
0
LINE
8
layer0
10
-5.8354283
20
1.8996327
11
-5.902408
21
1.9467279
0
LINE
8
layer0
10
-5.902408
20
1.9467279
11
-5.9835749
21
1.9910299
0
LINE
8
layer0
10
-5.9835749
20
1.9910299
11
-6.0787922
21
2.0314307
0
LINE
8
layer0
10
-6.0787922
20
2.0314307
11
-6.1878676
21
2.0668401
0
LINE
8
layer0
10
-6.1878676
20
2.0668401
11
-6.2547079
21
2.0852449
0
LINE
8
layer0
10
-6.2547079
20
2.0852449
11
-6.3070058
21
2.1095722
0
LINE
8
layer0
10
-6.3070058
20
2.1095722
11
-6.4000034
21
2.1623494
0
LINE
8
layer0
10
-6.4000034
20
2.1623494
11
-6.523402
21
2.2465902
0
LINE
8
layer0
10
-6.523402
20
2.2465902
11
-6.5983675
21
2.30476
0
LINE
8
layer0
10
-6.5983675
20
2.30476
11
-6.6777213
21
2.3718808
0
LINE
8
layer0
10
-6.6777213
20
2.3718808
11
-6.7634323
21
2.4507405
0
LINE
8
layer0
10
-6.7634323
20
2.4507405
11
-6.8545847
21
2.5419814
0
LINE
8
layer0
10
-6.8545847
20
2.5419814
11
-6.9479919
21
2.6436556
0
LINE
8
layer0
10
-6.9479919
20
2.6436556
11
-7.0446249
21
2.758026
0
LINE
8
layer0
10
-7.0446249
20
2.758026
11
-7.1453653
21
2.8879708
0
LINE
8
layer0
10
-7.1453653
20
2.8879708
11
-7.2459937
21
3.0296858
0
LINE
8
layer0
10
-7.2459937
20
3.0296858
11
-7.3418915
21
3.1774532
0
ARC
8
layer0
10
0.0000239
20
-0.0000109
40
8
50
151.9736297
51
156.5978073
0
LINE
8
layer0
10
-7.0618275
20
3.7590122
11
-6.8865069
21
3.7761678
0
LINE
8
layer0
10
-6.8865069
20
3.7761678
11
-6.7129689
21
3.7858512
0
LINE
8
layer0
10
-6.7129689
20
3.7858512
11
-6.5485634
21
3.7881085
0
LINE
8
layer0
10
-6.5485634
20
3.7881085
11
-6.3988953
21
3.7838665
0
LINE
8
layer0
10
-6.3988953
20
3.7838665
11
-6.2611647
21
3.7742306
0
LINE
8
layer0
10
-6.2611647
20
3.7742306
11
-6.1329971
21
3.7598526
0
LINE
8
layer0
10
-6.1329971
20
3.7598526
11
-6.0179022
21
3.7420093
0
LINE
8
layer0
10
-6.0179022
20
3.7420093
11
-5.9159488
21
3.7218171
0
LINE
8
layer0
10
-5.9159488
20
3.7218171
11
-5.8237295
21
3.6994749
0
LINE
8
layer0
10
-5.8237295
20
3.6994749
11
-5.6809297
21
3.6555214
0
LINE
8
layer0
10
-5.6809297
20
3.6555214
11
-5.5816838
21
3.615719
0
LINE
8
layer0
10
-5.5816838
20
3.615719
11
-5.5300567
21
3.5899987
0
LINE
8
layer0
10
-5.5300567
20
3.5899987
11
-5.473993
21
3.549216
0
LINE
8
layer0
10
-5.473993
20
3.549216
11
-5.3783014
21
3.4860147
0
LINE
8
layer0
10
-5.3783014
20
3.4860147
11
-5.2873478
21
3.4367603
0
LINE
8
layer0
10
-5.2873478
20
3.4367603
11
-5.2021043
21
3.4009234
0
LINE
8
layer0
10
-5.2021043
20
3.4009234
11
-5.1235227
21
3.37792
0
LINE
8
layer0
10
-5.1235227
20
3.37792
11
-5.0525281
21
3.3671191
0
LINE
8
layer0
10
-5.0525281
20
3.3671191
11
-4.9899815
21
3.3678263
0
LINE
8
layer0
10
-4.9899815
20
3.3678263
11
-4.9367111
21
3.3793076
0
LINE
8
layer0
10
-4.9367111
20
3.3793076
11
-4.9137901
21
3.3888352
0
LINE
8
layer0
10
-4.9137901
20
3.3888352
11
-4.8934809
21
3.4007654
0
LINE
8
layer0
10
-4.8934809
20
3.4007654
11
-4.8758693
21
3.4149747
0
LINE
8
layer0
10
-4.8758693
20
3.4149747
11
-4.8577633
21
3.4357863
0
LINE
8
layer0
10
-4.8577633
20
3.4357863
11
-4.7188686
21
3.6242292
0
LINE
8
layer0
10
-4.7188686
20
3.6242292
11
-4.6518973
21
3.7097643
0
LINE
8
layer0
10
-4.6518973
20
3.7097643
11
-4.5834092
21
3.7940899
0
LINE
8
layer0
10
-4.5834092
20
3.7940899
11
-4.430598
21
3.9714347
0
LINE
8
layer0
10
-4.430598
20
3.9714347
11
-4.4143372
21
3.9937177
0
LINE
8
layer0
10
-4.4143372
20
3.9937177
11
-4.4044031
21
4.0140497
0
LINE
8
layer0
10
-4.4044031
20
4.0140497
11
-4.3972912
21
4.0365044
0
LINE
8
layer0
10
-4.3972912
20
4.0365044
11
-4.3931029
21
4.0609708
0
LINE
8
layer0
10
-4.3931029
20
4.0609708
11
-4.3937632
21
4.1154604
0
LINE
8
layer0
10
-4.3937632
20
4.1154604
11
-4.4069917
21
4.1765962
0
LINE
8
layer0
10
-4.4069917
20
4.1765962
11
-4.4333195
21
4.2434074
0
LINE
8
layer0
10
-4.4333195
20
4.2434074
11
-4.4732323
21
4.3149001
0
LINE
8
layer0
10
-4.4732323
20
4.3149001
11
-4.5271392
21
4.3900318
0
LINE
8
layer0
10
-4.5271392
20
4.3900318
11
-4.5953977
21
4.4677449
0
LINE
8
layer0
10
-4.5953977
20
4.4677449
11
-4.6783077
21
4.5469737
0
LINE
8
layer0
10
-4.6783077
20
4.5469737
11
-4.7305433
21
4.5925568
0
LINE
8
layer0
10
-4.7305433
20
4.5925568
11
-4.7671068
21
4.6371662
0
LINE
8
layer0
10
-4.7671068
20
4.6371662
11
-4.8279956
21
4.7250669
0
LINE
8
layer0
10
-4.8279956
20
4.7250669
11
-4.9026231
21
4.8545059
0
LINE
8
layer0
10
-4.9026231
20
4.8545059
11
-4.9449258
21
4.9394414
0
LINE
8
layer0
10
-4.9449258
20
4.9394414
11
-4.9872985
21
5.0343454
0
LINE
8
layer0
10
-4.9872985
20
5.0343454
11
-5.0303055
21
5.1425842
0
LINE
8
layer0
10
-5.0303055
20
5.1425842
11
-5.072843
21
5.2643389
0
LINE
8
layer0
10
-5.072843
20
5.2643389
11
-5.1128853
21
5.3964721
0
LINE
8
layer0
10
-5.1128853
20
5.3964721
11
-5.1503251
21
5.5414438
0
LINE
8
layer0
10
-5.1503251
20
5.5414438
11
-5.1847081
21
5.7022296
0
LINE
8
layer0
10
-5.1847081
20
5.7022296
11
-5.2138833
21
5.8735714
0
LINE
8
layer0
10
-5.2138833
20
5.8735714
11
-5.2361704
21
6.0483138
0
ARC
8
layer0
10
0.0000162
20
-0.0000207
40
8
50
126.259338
51
130.8835157
0
LINE
8
layer0
10
-4.7315124
20
6.4507651
11
-4.5661106
21
6.390153
0
LINE
8
layer0
10
-4.5661106
20
6.390153
11
-4.4055567
21
6.3235821
0
LINE
8
layer0
10
-4.4055567
20
6.3235821
11
-4.256453
21
6.254283
0
LINE
8
layer0
10
-4.256453
20
6.254283
11
-4.1234473
21
6.1855226
0
LINE
8
layer0
10
-4.1234473
20
6.1855226
11
-4.0035372
21
6.1170819
0
LINE
8
layer0
10
-4.0035372
20
6.1170819
11
-3.8943006
21
6.0485179
0
LINE
8
layer0
10
-3.8943006
20
6.0485179
11
-3.7983456
21
5.9825037
0
LINE
8
layer0
10
-3.7983456
20
5.9825037
11
-3.7152498
21
5.9200753
0
LINE
8
layer0
10
-3.7152498
20
5.9200753
11
-3.641857
21
5.8599333
0
LINE
8
layer0
10
-3.641857
20
5.8599333
11
-3.5322695
21
5.758374
0
LINE
8
layer0
10
-3.5322695
20
5.758374
11
-3.4601217
21
5.679452
0
LINE
8
layer0
10
-3.4601217
20
5.679452
11
-3.4247669
21
5.6338787
0
LINE
8
layer0
10
-3.4247669
20
5.6338787
11
-3.3919501
21
5.5728096
0
LINE
8
layer0
10
-3.3919501
20
5.5728096
11
-3.333157
21
5.4743483
0
LINE
8
layer0
10
-3.333157
20
5.4743483
11
-3.2725813
21
5.3905083
0
LINE
8
layer0
10
-3.2725813
20
5.3905083
11
-3.2113287
21
5.3212346
0
LINE
8
layer0
10
-3.2113287
20
5.3212346
11
-3.1505099
21
5.2664139
0
LINE
8
layer0
10
-3.1505099
20
5.2664139
11
-3.0912323
21
5.2258793
0
LINE
8
layer0
10
-3.0912323
20
5.2258793
11
-3.034573
21
5.1993785
0
LINE
8
layer0
10
-3.034573
20
5.1993785
11
-2.9815964
21
5.1866096
0
LINE
8
layer0
10
-2.9815964
20
5.1866096
11
-2.9568115
21
5.1852486
0
LINE
8
layer0
10
-2.9568115
20
5.1852486
11
-2.9333372
21
5.1871856
0
LINE
8
layer0
10
-2.9333372
20
5.1871856
11
-2.9113044
21
5.1923463
0
LINE
8
layer0
10
-2.9113044
20
5.1923463
11
-2.8859617
21
5.203241
0
LINE
8
layer0
10
-2.8859617
20
5.203241
11
-2.6790596
21
5.312758
0
LINE
8
layer0
10
-2.6790596
20
5.312758
11
-2.5816082
21
5.3607648
0
LINE
8
layer0
10
-2.5816082
20
5.3607648
11
-2.4833151
21
5.4070236
0
LINE
8
layer0
10
-2.4833151
20
5.4070236
11
-2.2686899
21
5.5005034
0
LINE
8
layer0
10
-2.2686899
20
5.5005034
11
-2.2443712
21
5.5135244
0
LINE
8
layer0
10
-2.2443712
20
5.5135244
11
-2.2265992
21
5.5275326
0
LINE
8
layer0
10
-2.2265992
20
5.5275326
11
-2.2104488
21
5.5446779
0
LINE
8
layer0
10
-2.2104488
20
5.5446779
11
-2.1960597
21
5.5649042
0
LINE
8
layer0
10
-2.1960597
20
5.5649042
11
-2.1730125
21
5.6142841
0
LINE
8
layer0
10
-2.1730125
20
5.6142841
11
-2.1584052
21
5.6751052
0
LINE
8
layer0
10
-2.1584052
20
5.6751052
11
-2.1531374
21
5.7467232
0
LINE
8
layer0
10
-2.1531374
20
5.7467232
11
-2.1580781
21
5.8284534
0
LINE
8
layer0
10
-2.1580781
20
5.8284534
11
-2.174048
21
5.9195341
0
LINE
8
layer0
10
-2.174048
20
5.9195341
11
-2.2018284
21
6.0191674
0
LINE
8
layer0
10
-2.2018284
20
6.0191674
11
-2.2421517
21
6.1265234
0
LINE
8
layer0
10
-2.2421517
20
6.1265234
11
-2.2694365
21
6.1902565
0
LINE
8
layer0
10
-2.2694365
20
6.1902565
11
-2.2830238
21
6.2463125
0
LINE
8
layer0
10
-2.2830238
20
6.2463125
11
-2.2997441
21
6.351927
0
LINE
8
layer0
10
-2.2997441
20
6.351927
11
-2.3108196
21
6.5009271
0
LINE
8
layer0
10
-2.3108196
20
6.5009271
11
-2.3120809
21
6.5958058
0
LINE
8
layer0
10
-2.3120809
20
6.5958058
11
-2.3090801
21
6.6996962
0
LINE
8
layer0
10
-2.3090801
20
6.6996962
11
-2.300865
21
6.815876
0
LINE
8
layer0
10
-2.300865
20
6.815876
11
-2.2863626
21
6.9440296
0
LINE
8
layer0
10
-2.2863626
20
6.9440296
11
-2.2651089
21
7.0804512
0
LINE
8
layer0
10
-2.2651089
20
7.0804512
11
-2.2359403
21
7.2273106
0
LINE
8
layer0
10
-2.2359403
20
7.2273106
11
-2.1971559
21
7.3870919
0
LINE
8
layer0
10
-2.1971559
20
7.3870919
11
-2.1490994
21
7.5541242
0
LINE
8
layer0
10
-2.1490994
20
7.5541242
11
-2.0933615
21
7.7212316
0
ARC
8
layer0
10
0.0000058
20
-0.0000256
40
8
50
100.5450538
51
105.1692314
0
LINE
8
layer0
10
-1.4640633
20
7.8648648
11
-1.34134
21
7.73849
0
LINE
8
layer0
10
-1.34134
20
7.73849
11
-1.22557
21
7.60885
0
LINE
8
layer0
10
-1.22557
20
7.60885
11
-1.1213
21
7.48172
0
LINE
8
layer0
10
-1.1213
20
7.48172
11
-1.0313
21
7.36206
0
LINE
8
layer0
10
-1.0313
20
7.36206
11
-0.95296
21
7.24837
0
LINE
8
layer0
10
-0.95296
20
7.24837
11
-0.88429
21
7.1392
0
LINE
8
layer0
10
-0.88429
20
7.1392
11
-0.82648
21
7.03809
0
LINE
8
layer0
10
-0.82648
20
7.03809
11
-0.7787
21
6.94579
0
LINE
8
layer0
10
-0.7787
20
6.94579
11
-0.73867
21
6.85976
0
LINE
8
layer0
10
-0.73867
20
6.85976
11
-0.684
21
6.72071
0
LINE
8
layer0
10
-0.684
20
6.72071
11
-0.65324
21
6.6183
0
LINE
8
layer0
10
-0.65324
20
6.6183
11
-0.64116
21
6.5619
0
LINE
8
layer0
10
-0.64116
20
6.5619
11
-0.63809
21
6.49264
0
LINE
8
layer0
10
-0.63809
20
6.49264
11
-0.62784
21
6.37842
0
LINE
8
layer0
10
-0.62784
20
6.37842
11
-0.60964
21
6.2766
0
LINE
8
layer0
10
-0.60964
20
6.2766
11
-0.58451
21
6.18761
0
LINE
8
layer0
10
-0.58451
20
6.18761
11
-0.5535
21
6.11183
0
LINE
8
layer0
10
-0.5535
20
6.11183
11
-0.51768
21
6.04959
0
LINE
8
layer0
10
-0.51768
20
6.04959
11
-0.47813
21
6.00113
0
LINE
8
layer0
10
-0.47813
20
6.00113
11
-0.43594
21
5.96664
0
LINE
8
layer0
10
-0.43594
20
5.96664
11
-0.4142
21
5.95466
0
LINE
8
layer0
10
-0.4142
20
5.95466
11
-0.39221
21
5.94622
0
LINE
8
layer0
10
-0.39221
20
5.94622
11
-0.37012
21
5.94131
0
LINE
8
layer0
10
-0.37012
20
5.94131
11
-0.34256
21
5.94013
0
LINE
8
layer0
10
-0.34256
20
5.94013
11
-0.10863
21
5.94903
0
LINE
8
layer0
10
-0.10863
20
5.94903
11
0
21
5.95
0
LINE
8
layer0
10
0
20
5.95
11
0.10863
21
5.94903
0
LINE
8
layer0
10
0.10863
20
5.94903
11
0.34256
21
5.94013
0
LINE
8
layer0
10
0.34256
20
5.94013
11
0.37012
21
5.94131
0
LINE
8
layer0
10
0.37012
20
5.94131
11
0.39221
21
5.94622
0
LINE
8
layer0
10
0.39221
20
5.94622
11
0.4142
21
5.95466
0
LINE
8
layer0
10
0.4142
20
5.95466
11
0.43594
21
5.96664
0
LINE
8
layer0
10
0.43594
20
5.96664
11
0.47813
21
6.00113
0
LINE
8
layer0
10
0.47813
20
6.00113
11
0.51768
21
6.04959
0
LINE
8
layer0
10
0.51768
20
6.04959
11
0.5535
21
6.11183
0
LINE
8
layer0
10
0.5535
20
6.11183
11
0.58451
21
6.18761
0
LINE
8
layer0
10
0.58451
20
6.18761
11
0.60964
21
6.2766
0
LINE
8
layer0
10
0.60964
20
6.2766
11
0.62784
21
6.37842
0
LINE
8
layer0
10
0.62784
20
6.37842
11
0.63809
21
6.49264
0
LINE
8
layer0
10
0.63809
20
6.49264
11
0.64116
21
6.5619
0
LINE
8
layer0
10
0.64116
20
6.5619
11
0.65324
21
6.6183
0
LINE
8
layer0
10
0.65324
20
6.6183
11
0.684
21
6.72071
0
LINE
8
layer0
10
0.684
20
6.72071
11
0.73867
21
6.85976
0
LINE
8
layer0
10
0.73867
20
6.85976
11
0.7787
21
6.94579
0
LINE
8
layer0
10
0.7787
20
6.94579
11
0.82648
21
7.03809
0
LINE
8
layer0
10
0.82648
20
7.03809
11
0.88429
21
7.1392
0
LINE
8
layer0
10
0.88429
20
7.1392
11
0.95296
21
7.24837
0
LINE
8
layer0
10
0.95296
20
7.24837
11
1.0313
21
7.36206
0
LINE
8
layer0
10
1.0313
20
7.36206
11
1.1213
21
7.48172
0
LINE
8
layer0
10
1.1213
20
7.48172
11
1.22557
21
7.60885
0
LINE
8
layer0
10
1.22557
20
7.60885
11
1.34134
21
7.73849
0
LINE
8
layer0
10
1.34134
20
7.73849
11
1.4640633
21
7.8648648
0
ARC
8
layer0
10
-0.0000057
20
-0.0000257
40
8
50
74.8307695
51
79.4549471
0
LINE
8
layer0
10
2.0933615
20
7.7212316
11
2.1490994
21
7.5541242
0
LINE
8
layer0
10
2.1490994
20
7.5541242
11
2.1971559
21
7.3870919
0
LINE
8
layer0
10
2.1971559
20
7.3870919
11
2.2359403
21
7.2273106
0
LINE
8
layer0
10
2.2359403
20
7.2273106
11
2.2651089
21
7.0804512
0
LINE
8
layer0
10
2.2651089
20
7.0804512
11
2.2863626
21
6.9440296
0
LINE
8
layer0
10
2.2863626
20
6.9440296
11
2.300865
21
6.815876
0
LINE
8
layer0
10
2.300865
20
6.815876
11
2.3090801
21
6.6996962
0
LINE
8
layer0
10
2.3090801
20
6.6996962
11
2.3120809
21
6.5958058
0
LINE
8
layer0
10
2.3120809
20
6.5958058
11
2.3108196
21
6.5009271
0
LINE
8
layer0
10
2.3108196
20
6.5009271
11
2.2997441
21
6.351927
0
LINE
8
layer0
10
2.2997441
20
6.351927
11
2.2830238
21
6.2463125
0
LINE
8
layer0
10
2.2830238
20
6.2463125
11
2.2694365
21
6.1902565
0
LINE
8
layer0
10
2.2694365
20
6.1902565
11
2.2421517
21
6.1265234
0
LINE
8
layer0
10
2.2421517
20
6.1265234
11
2.2018284
21
6.0191674
0
LINE
8
layer0
10
2.2018284
20
6.0191674
11
2.174048
21
5.9195341
0
LINE
8
layer0
10
2.174048
20
5.9195341
11
2.1580781
21
5.8284534
0
LINE
8
layer0
10
2.1580781
20
5.8284534
11
2.1531374
21
5.7467232
0
LINE
8
layer0
10
2.1531374
20
5.7467232
11
2.1584052
21
5.6751052
0
LINE
8
layer0
10
2.1584052
20
5.6751052
11
2.1730125
21
5.6142841
0
LINE
8
layer0
10
2.1730125
20
5.6142841
11
2.1960597
21
5.5649042
0
LINE
8
layer0
10
2.1960597
20
5.5649042
11
2.2104488
21
5.5446779
0
LINE
8
layer0
10
2.2104488
20
5.5446779
11
2.2265992
21
5.5275326
0
LINE
8
layer0
10
2.2265992
20
5.5275326
11
2.2443712
21
5.5135244
0
LINE
8
layer0
10
2.2443712
20
5.5135244
11
2.2686899
21
5.5005034
0
LINE
8
layer0
10
2.2686899
20
5.5005034
11
2.4833151
21
5.4070236
0
LINE
8
layer0
10
2.4833151
20
5.4070236
11
2.5816082
21
5.3607648
0
LINE
8
layer0
10
2.5816082
20
5.3607648
11
2.6790596
21
5.312758
0
LINE
8
layer0
10
2.6790596
20
5.312758
11
2.8859617
21
5.203241
0
LINE
8
layer0
10
2.8859617
20
5.203241
11
2.9113044
21
5.1923463
0
LINE
8
layer0
10
2.9113044
20
5.1923463
11
2.9333372
21
5.1871856
0
LINE
8
layer0
10
2.9333372
20
5.1871856
11
2.9568115
21
5.1852486
0
LINE
8
layer0
10
2.9568115
20
5.1852486
11
2.9815964
21
5.1866096
0
LINE
8
layer0
10
2.9815964
20
5.1866096
11
3.034573
21
5.1993785
0
LINE
8
layer0
10
3.034573
20
5.1993785
11
3.0912323
21
5.2258793
0
LINE
8
layer0
10
3.0912323
20
5.2258793
11
3.1505099
21
5.2664139
0
LINE
8
layer0
10
3.1505099
20
5.2664139
11
3.2113287
21
5.3212346
0
LINE
8
layer0
10
3.2113287
20
5.3212346
11
3.2725813
21
5.3905083
0
LINE
8
layer0
10
3.2725813
20
5.3905083
11
3.333157
21
5.4743483
0
LINE
8
layer0
10
3.333157
20
5.4743483
11
3.3919501
21
5.5728096
0
LINE
8
layer0
10
3.3919501
20
5.5728096
11
3.4247669
21
5.6338787
0
LINE
8
layer0
10
3.4247669
20
5.6338787
11
3.4601217
21
5.679452
0
LINE
8
layer0
10
3.4601217
20
5.679452
11
3.5322695
21
5.758374
0
LINE
8
layer0
10
3.5322695
20
5.758374
11
3.641857
21
5.8599333
0
LINE
8
layer0
10
3.641857
20
5.8599333
11
3.7152498
21
5.9200753
0
LINE
8
layer0
10
3.7152498
20
5.9200753
11
3.7983456
21
5.9825037
0
LINE
8
layer0
10
3.7983456
20
5.9825037
11
3.8943006
21
6.0485179
0
LINE
8
layer0
10
3.8943006
20
6.0485179
11
4.0035372
21
6.1170819
0
LINE
8
layer0
10
4.0035372
20
6.1170819
11
4.1234473
21
6.1855226
0
LINE
8
layer0
10
4.1234473
20
6.1855226
11
4.256453
21
6.254283
0
LINE
8
layer0
10
4.256453
20
6.254283
11
4.4055567
21
6.3235821
0
LINE
8
layer0
10
4.4055567
20
6.3235821
11
4.5661106
21
6.390153
0
LINE
8
layer0
10
4.5661106
20
6.390153
11
4.7315124
21
6.4507651
0
ARC
8
layer0
10
-0.0000162
20
-0.0000207
40
8
50
49.1164843
51
53.740662
0
LINE
8
layer0
10
5.2361704
20
6.0483138
11
5.2138833
21
5.8735714
0
LINE
8
layer0
10
5.2138833
20
5.8735714
11
5.1847081
21
5.7022296
0
LINE
8
layer0
10
5.1847081
20
5.7022296
11
5.1503251
21
5.5414438
0
LINE
8
layer0
10
5.1503251
20
5.5414438
11
5.1128853
21
5.3964721
0
LINE
8
layer0
10
5.1128853
20
5.3964721
11
5.072843
21
5.2643389
0
LINE
8
layer0
10
5.072843
20
5.2643389
11
5.0303055
21
5.1425842
0
LINE
8
layer0
10
5.0303055
20
5.1425842
11
4.9872985
21
5.0343454
0
LINE
8
layer0
10
4.9872985
20
5.0343454
11
4.9449258
21
4.9394414
0
LINE
8
layer0
10
4.9449258
20
4.9394414
11
4.9026231
21
4.8545059
0
LINE
8
layer0
10
4.9026231
20
4.8545059
11
4.8279956
21
4.7250669
0
LINE
8
layer0
10
4.8279956
20
4.7250669
11
4.7671068
21
4.6371662
0
LINE
8
layer0
10
4.7671068
20
4.6371662
11
4.7305433
21
4.5925568
0
LINE
8
layer0
10
4.7305433
20
4.5925568
11
4.6783077
21
4.5469737
0
LINE
8
layer0
10
4.6783077
20
4.5469737
11
4.5953977
21
4.4677449
0
LINE
8
layer0
10
4.5953977
20
4.4677449
11
4.5271392
21
4.3900318
0
LINE
8
layer0
10
4.5271392
20
4.3900318
11
4.4732323
21
4.3149001
0
LINE
8
layer0
10
4.4732323
20
4.3149001
11
4.4333195
21
4.2434074
0
LINE
8
layer0
10
4.4333195
20
4.2434074
11
4.4069917
21
4.1765962
0
LINE
8
layer0
10
4.4069917
20
4.1765962
11
4.3937632
21
4.1154604
0
LINE
8
layer0
10
4.3937632
20
4.1154604
11
4.3931029
21
4.0609708
0
LINE
8
layer0
10
4.3931029
20
4.0609708
11
4.3972912
21
4.0365044
0
LINE
8
layer0
10
4.3972912
20
4.0365044
11
4.4044031
21
4.0140497
0
LINE
8
layer0
10
4.4044031
20
4.0140497
11
4.4143372
21
3.9937177
0
LINE
8
layer0
10
4.4143372
20
3.9937177
11
4.430598
21
3.9714347
0
LINE
8
layer0
10
4.430598
20
3.9714347
11
4.5834092
21
3.7940899
0
LINE
8
layer0
10
4.5834092
20
3.7940899
11
4.6518973
21
3.7097643
0
LINE
8
layer0
10
4.6518973
20
3.7097643
11
4.7188686
21
3.6242292
0
LINE
8
layer0
10
4.7188686
20
3.6242292
11
4.8577633
21
3.4357863
0
LINE
8
layer0
10
4.8577633
20
3.4357863
11
4.8758693
21
3.4149747
0
LINE
8
layer0
10
4.8758693
20
3.4149747
11
4.8934809
21
3.4007654
0
LINE
8
layer0
10
4.8934809
20
3.4007654
11
4.9137901
21
3.3888352
0
LINE
8
layer0
10
4.9137901
20
3.3888352
11
4.9367111
21
3.3793076
0
LINE
8
layer0
10
4.9367111
20
3.3793076
11
4.9899815
21
3.3678263
0
LINE
8
layer0
10
4.9899815
20
3.3678263
11
5.0525281
21
3.3671191
0
LINE
8
layer0
10
5.0525281
20
3.3671191
11
5.1235227
21
3.37792
0
LINE
8
layer0
10
5.1235227
20
3.37792
11
5.2021043
21
3.4009234
0
LINE
8
layer0
10
5.2021043
20
3.4009234
11
5.2873478
21
3.4367603
0
LINE
8
layer0
10
5.2873478
20
3.4367603
11
5.3783014
21
3.4860147
0
LINE
8
layer0
10
5.3783014
20
3.4860147
11
5.473993
21
3.549216
0
LINE
8
layer0
10
5.473993
20
3.549216
11
5.5300567
21
3.5899987
0
LINE
8
layer0
10
5.5300567
20
3.5899987
11
5.5816838
21
3.615719
0
LINE
8
layer0
10
5.5816838
20
3.615719
11
5.6809297
21
3.6555214
0
LINE
8
layer0
10
5.6809297
20
3.6555214
11
5.8237295
21
3.6994749
0
LINE
8
layer0
10
5.8237295
20
3.6994749
11
5.9159488
21
3.7218171
0
LINE
8
layer0
10
5.9159488
20
3.7218171
11
6.0179022
21
3.7420093
0
LINE
8
layer0
10
6.0179022
20
3.7420093
11
6.1329971
21
3.7598526
0
LINE
8
layer0
10
6.1329971
20
3.7598526
11
6.2611647
21
3.7742306
0
LINE
8
layer0
10
6.2611647
20
3.7742306
11
6.3988953
21
3.7838665
0
LINE
8
layer0
10
6.3988953
20
3.7838665
11
6.5485634
21
3.7881085
0
LINE
8
layer0
10
6.5485634
20
3.7881085
11
6.7129689
21
3.7858512
0
LINE
8
layer0
10
6.7129689
20
3.7858512
11
6.8865069
21
3.7761678
0
LINE
8
layer0
10
6.8865069
20
3.7761678
11
7.0618275
21
3.7590122
0
ARC
8
layer0
10
-0.0000239
20
-0.0000109
40
8
50
23.4021927
51
28.0263703
0
LINE
8
layer0
10
7.3418915
20
3.1774532
11
7.2459937
21
3.0296858
0
LINE
8
layer1
10
7.2459937
20
3.0296858
11
7.1453653
21
2.8879708
0
LINE
8
layer1
10
7.1453653
20
2.8879708
11
7.0446249
21
2.758026
0
LINE
8
layer1
10
7.0446249
20
2.758026
11
6.9479919
21
2.6436556
0
LINE
8
layer1
10
6.9479919
20
2.6436556
11
6.8545847
21
2.5419814
0
LINE
8
layer1
10
6.8545847
20
2.5419814
11
6.7634323
21
2.4507405
0
LINE
8
layer1
10
6.7634323
20
2.4507405
11
6.6777213
21
2.3718808
0
LINE
8
layer1
10
6.6777213
20
2.3718808
11
6.5983675
21
2.30476
0
LINE
8
layer1
10
6.5983675
20
2.30476
11
6.523402
21
2.2465902
0
LINE
8
layer1
10
6.523402
20
2.2465902
11
6.4000034
21
2.1623494
0
LINE
8
layer1
10
6.4000034
20
2.1623494
11
6.3070058
21
2.1095722
0
LINE
8
layer1
10
6.3070058
20
2.1095722
11
6.2547079
21
2.0852449
0
LINE
8
layer1
10
6.2547079
20
2.0852449
11
6.1878676
21
2.0668401
0
LINE
8
layer1
10
6.1878676
20
2.0668401
11
6.0787922
21
2.0314307
0
LINE
8
layer1
10
6.0787922
20
2.0314307
11
5.9835749
21
1.9910299
0
LINE
8
layer1
10
5.9835749
20
1.9910299
11
5.902408
21
1.9467279
0
LINE
8
layer1
10
5.902408
20
1.9467279
11
5.8354283
21
1.8996327
0
LINE
8
layer1
10
5.8354283
20
1.8996327
11
5.7827195
21
1.8508611
0
LINE
8
layer1
10
5.7827195
20
1.8508611
11
5.7442752
21
1.8015193
0
LINE
8
layer1
10
5.7442752
20
1.8015193
11
5.7200381
21
1.7527124
0
LINE
8
layer1
10
5.7200381
20
1.7527124
11
5.7131961
21
1.7288516
0
LINE
8
layer1
10
5.7131961
20
1.7288516
11
5.7098609
21
1.7055349
0
LINE
8
layer1
10
5.7098609
20
1.7055349
11
5.7099895
21
1.6829062
0
LINE
8
layer1
10
5.7099895
20
1.6829062
11
5.7149718
21
1.6557746
0
LINE
8
layer1
10
5.7149718
20
1.6557746
11
5.7757029
21
1.4296901
0
LINE
8
layer1
10
5.7757029
20
1.4296901
11
5.8008211
21
1.3239996
0
LINE
8
layer1
10
5.8008211
20
1.3239996
11
5.8240478
21
1.2178773
0
LINE
8
layer1
10
5.8240478
20
1.2178773
11
5.8674253
21
0.987832
0
LINE
8
layer1
10
5.8674253
20
0.987832
11
5.8747084
21
0.9612255
0
LINE
8
layer1
10
5.8747084
20
0.9612255
11
5.8844108
21
0.940782
0
LINE
8
layer1
10
5.8844108
20
0.940782
11
5.8975324
21
0.9212214
0
LINE
8
layer1
10
5.8975324
20
0.9212214
11
5.9140497
21
0.9026922
0
LINE
8
layer1
10
5.9140497
20
0.9026922
11
5.9570631
21
0.8692348
0
LINE
8
layer1
10
5.9570631
20
0.8692348
11
6.0131088
21
0.8414597
0
LINE
8
layer1
10
6.0131088
20
0.8414597
11
6.081759
21
0.8203875
0
LINE
8
layer1
10
6.081759
20
0.8203875
11
6.1625394
21
0.8070176
0
LINE
8
layer1
10
6.1625394
20
0.8070176
11
6.2548902
21
0.8023198
0
LINE
8
layer1
10
6.2548902
20
0.8023198
11
6.3582072
21
0.8072332
0
LINE
8
layer1
10
6.3582072
20
0.8072332
11
6.4718443
21
0.8226566
0
LINE
8
layer1
10
6.4718443
20
0.8226566
11
6.540051
21
0.8350753
0
LINE
8
layer1
10
6.540051
20
0.8350753
11
6.597725
21
0.8358484
0
LINE
8
layer1
10
6.597725
20
0.8358484
11
6.7044121
21
0.828648
0
LINE
8
layer1
10
6.7044121
20
0.828648
11
6.852141
21
0.8062902
0
LINE
8
layer1
10
6.852141
20
0.8062902
11
6.9449216
21
0.7864073
0
LINE
8
layer1
10
6.9449216
20
0.7864073
11
7.0455395
21
0.7603639
0
LINE
8
layer1
10
7.0455395
20
0.7603639
11
7.1569784
21
0.7265024
0
LINE
8
layer1
10
7.1569784
20
0.7265024
11
7.2786918
21
0.6838468
0
LINE
8
layer1
10
7.2786918
20
0.6838468
11
7.4069636
21
0.6327693
0
LINE
8
layer1
10
7.4069636
20
0.6327693
11
7.5436504
21
0.5716527
0
LINE
8
layer1
10
7.5436504
20
0.5716527
11
7.6907952
21
0.498286
0
LINE
8
layer1
10
7.6907952
20
0.498286
11
7.8429461
21
0.4142662
0
LINE
8
layer1
10
7.8429461
20
0.4142662
11
7.993461
21
0.3227409
0
ARC
8
layer1
10
-0.0000262
20
0
40
8
50
357.6879111
51
362.3120889
0
LINE
8
layer1
10
7.993461
20
-0.3227409
11
7.8429461
21
-0.4142662
0
LINE
8
layer1
10
7.8429461
20
-0.4142662
11
7.6907952
21
-0.498286
0
LINE
8
layer1
10
7.6907952
20
-0.498286
11
7.5436504
21
-0.5716527
0
LINE
8
layer1
10
7.5436504
20
-0.5716527
11
7.4069636
21
-0.6327693
0
LINE
8
layer1
10
7.4069636
20
-0.6327693
11
7.2786918
21
-0.6838468
0
LINE
8
layer1
10
7.2786918
20
-0.6838468
11
7.1569784
21
-0.7265024
0
LINE
8
layer1
10
7.1569784
20
-0.7265024
11
7.0455395
21
-0.7603639
0
LINE
8
layer1
10
7.0455395
20
-0.7603639
11
6.9449216
21
-0.7864073
0
LINE
8
layer1
10
6.9449216
20
-0.7864073
11
6.852141
21
-0.8062902
0
LINE
8
layer1
10
6.852141
20
-0.8062902
11
6.7044121
21
-0.828648
0
LINE
8
layer1
10
6.7044121
20
-0.828648
11
6.597725
21
-0.8358484
0
LINE
8
layer1
10
6.597725
20
-0.8358484
11
6.540051
21
-0.8350753
0
LINE
8
layer1
10
6.540051
20
-0.8350753
11
6.4718443
21
-0.8226566
0
LINE
8
layer1
10
6.4718443
20
-0.8226566
11
6.3582072
21
-0.8072332
0
LINE
8
layer1
10
6.3582072
20
-0.8072332
11
6.2548902
21
-0.8023198
0
LINE
8
layer1
10
6.2548902
20
-0.8023198
11
6.1625394
21
-0.8070176
0
LINE
8
layer1
10
6.1625394
20
-0.8070176
11
6.081759
21
-0.8203875
0
LINE
8
layer1
10
6.081759
20
-0.8203875
11
6.0131088
21
-0.8414597
0
LINE
8
layer1
10
6.0131088
20
-0.8414597
11
5.9570631
21
-0.8692348
0
LINE
8
layer1
10
5.9570631
20
-0.8692348
11
5.9140497
21
-0.9026922
0
LINE
8
layer1
10
5.9140497
20
-0.9026922
11
5.8975324
21
-0.9212214
0
LINE
8
layer1
10
5.8975324
20
-0.9212214
11
5.8844108
21
-0.940782
0
LINE
8
layer1
10
5.8844108
20
-0.940782
11
5.8747084
21
-0.9612255
0
LINE
8
layer1
10
5.8747084
20
-0.9612255
11
5.8674253
21
-0.987832
0
LINE
8
layer1
10
5.8674253
20
-0.987832
11
5.8240478
21
-1.2178773
0
LINE
8
layer1
10
5.8240478
20
-1.2178773
11
5.8008211
21
-1.3239996
0
LINE
8
layer1
10
5.8008211
20
-1.3239996
11
5.7757029
21
-1.4296901
0
LINE
8
layer1
10
5.7757029
20
-1.4296901
11
5.7149718
21
-1.6557746
0
LINE
8
layer1
10
5.7149718
20
-1.6557746
11
5.7099895
21
-1.6829062
0
LINE
8
layer1
10
5.7099895
20
-1.6829062
11
5.7098609
21
-1.7055349
0
LINE
8
layer1
10
5.7098609
20
-1.7055349
11
5.7131961
21
-1.7288516
0
LINE
8
layer1
10
5.7131961
20
-1.7288516
11
5.7200381
21
-1.7527124
0
LINE
8
layer1
10
5.7200381
20
-1.7527124
11
5.7442752
21
-1.8015193
0
LINE
8
layer1
10
5.7442752
20
-1.8015193
11
5.7827195
21
-1.8508611
0
LINE
8
layer1
10
5.7827195
20
-1.8508611
11
5.8354283
21
-1.8996327
0
LINE
8
layer1
10
5.8354283
20
-1.8996327
11
5.902408
21
-1.9467279
0
LINE
8
layer1
10
5.902408
20
-1.9467279
11
5.9835749
21
-1.9910299
0
LINE
8
layer1
10
5.9835749
20
-1.9910299
11
6.0787922
21
-2.0314307
0
LINE
8
layer1
10
6.0787922
20
-2.0314307
11
6.1878676
21
-2.0668401
0
LINE
8
layer1
10
6.1878676
20
-2.0668401
11
6.2547079
21
-2.0852449
0
LINE
8
layer1
10
6.2547079
20
-2.0852449
11
6.3070058
21
-2.1095722
0
LINE
8
layer1
10
6.3070058
20
-2.1095722
11
6.4000034
21
-2.1623494
0
LINE
8
layer1
10
6.4000034
20
-2.1623494
11
6.523402
21
-2.2465902
0
LINE
8
layer1
10
6.523402
20
-2.2465902
11
6.5983675
21
-2.30476
0
LINE
8
layer1
10
6.5983675
20
-2.30476
11
6.6777213
21
-2.3718808
0
LINE
8
layer1
10
6.6777213
20
-2.3718808
11
6.7634323
21
-2.4507405
0
LINE
8
layer1
10
6.7634323
20
-2.4507405
11
6.8545847
21
-2.5419814
0
LINE
8
layer1
10
6.8545847
20
-2.5419814
11
6.9479919
21
-2.6436556
0
LINE
8
layer1
10
6.9479919
20
-2.6436556
11
7.0446249
21
-2.758026
0
LINE
8
layer1
10
7.0446249
20
-2.758026
11
7.1453653
21
-2.8879708
0
LINE
8
layer1
10
7.1453653
20
-2.8879708
11
7.2459937
21
-3.0296858
0
LINE
8
layer1
10
7.2459937
20
-3.0296858
11
7.3418915
21
-3.1774532
0
ARC
8
layer1
10
-0.0000239
20
0.0000109
40
8
50
331.9736297
51
336.5978073
0
LINE
8
layer1
10
7.0618275
20
-3.7590122
11
6.8865069
21
-3.7761678
0
LINE
8
layer1
10
6.8865069
20
-3.7761678
11
6.7129689
21
-3.7858512
0
LINE
8
layer1
10
6.7129689
20
-3.7858512
11
6.5485634
21
-3.7881085
0
LINE
8
layer1
10
6.5485634
20
-3.7881085
11
6.3988953
21
-3.7838665
0
LINE
8
layer1
10
6.3988953
20
-3.7838665
11
6.2611647
21
-3.7742306
0
LINE
8
layer1
10
6.2611647
20
-3.7742306
11
6.1329971
21
-3.7598526
0
LINE
8
layer1
10
6.1329971
20
-3.7598526
11
6.0179022
21
-3.7420093
0
LINE
8
layer1
10
6.0179022
20
-3.7420093
11
5.9159488
21
-3.7218171
0
LINE
8
layer1
10
5.9159488
20
-3.7218171
11
5.8237295
21
-3.6994749
0
LINE
8
layer1
10
5.8237295
20
-3.6994749
11
5.6809297
21
-3.6555214
0
LINE
8
layer1
10
5.6809297
20
-3.6555214
11
5.5816838
21
-3.615719
0
LINE
8
layer1
10
5.5816838
20
-3.615719
11
5.5300567
21
-3.5899987
0
LINE
8
layer1
10
5.5300567
20
-3.5899987
11
5.473993
21
-3.549216
0
LINE
8
layer1
10
5.473993
20
-3.549216
11
5.3783014
21
-3.4860147
0
LINE
8
layer1
10
5.3783014
20
-3.4860147
11
5.2873478
21
-3.4367603
0
LINE
8
layer1
10
5.2873478
20
-3.4367603
11
5.2021043
21
-3.4009234
0
LINE
8
layer1
10
5.2021043
20
-3.4009234
11
5.1235227
21
-3.37792
0
LINE
8
layer1
10
5.1235227
20
-3.37792
11
5.0525281
21
-3.3671191
0
LINE
8
layer1
10
5.0525281
20
-3.3671191
11
4.9899815
21
-3.3678263
0
LINE
8
layer1
10
4.9899815
20
-3.3678263
11
4.9367111
21
-3.3793076
0
LINE
8
layer1
10
4.9367111
20
-3.3793076
11
4.9137901
21
-3.3888352
0
LINE
8
layer1
10
4.9137901
20
-3.3888352
11
4.8934809
21
-3.4007654
0
LINE
8
layer1
10
4.8934809
20
-3.4007654
11
4.8758693
21
-3.4149747
0
LINE
8
layer1
10
4.8758693
20
-3.4149747
11
4.8577633
21
-3.4357863
0
LINE
8
layer1
10
4.8577633
20
-3.4357863
11
4.7188686
21
-3.6242292
0
LINE
8
layer1
10
4.7188686
20
-3.6242292
11
4.6518973
21
-3.7097643
0
LINE
8
layer1
10
4.6518973
20
-3.7097643
11
4.5834092
21
-3.7940899
0
LINE
8
layer1
10
4.5834092
20
-3.7940899
11
4.430598
21
-3.9714347
0
LINE
8
layer1
10
4.430598
20
-3.9714347
11
4.4143372
21
-3.9937177
0
LINE
8
layer1
10
4.4143372
20
-3.9937177
11
4.4044031
21
-4.0140497
0
LINE
8
layer1
10
4.4044031
20
-4.0140497
11
4.3972912
21
-4.0365044
0
LINE
8
layer1
10
4.3972912
20
-4.0365044
11
4.3931029
21
-4.0609708
0
LINE
8
layer1
10
4.3931029
20
-4.0609708
11
4.3937632
21
-4.1154604
0
LINE
8
layer1
10
4.3937632
20
-4.1154604
11
4.4069917
21
-4.1765962
0
LINE
8
layer1
10
4.4069917
20
-4.1765962
11
4.4333195
21
-4.2434074
0
LINE
8
layer1
10
4.4333195
20
-4.2434074
11
4.4732323
21
-4.3149001
0
LINE
8
layer1
10
4.4732323
20
-4.3149001
11
4.5271392
21
-4.3900318
0
LINE
8
layer1
10
4.5271392
20
-4.3900318
11
4.5953977
21
-4.4677449
0
LINE
8
layer1
10
4.5953977
20
-4.4677449
11
4.6783077
21
-4.5469737
0
LINE
8
layer1
10
4.6783077
20
-4.5469737
11
4.7305433
21
-4.5925568
0
LINE
8
layer1
10
4.7305433
20
-4.5925568
11
4.7671068
21
-4.6371662
0
LINE
8
layer1
10
4.7671068
20
-4.6371662
11
4.8279956
21
-4.7250669
0
LINE
8
layer1
10
4.8279956
20
-4.7250669
11
4.9026231
21
-4.8545059
0
LINE
8
layer1
10
4.9026231
20
-4.8545059
11
4.9449258
21
-4.9394414
0
LINE
8
layer1
10
4.9449258
20
-4.9394414
11
4.9872985
21
-5.0343454
0
LINE
8
layer1
10
4.9872985
20
-5.0343454
11
5.0303055
21
-5.1425842
0
LINE
8
layer1
10
5.0303055
20
-5.1425842
11
5.072843
21
-5.2643389
0
LINE
8
layer1
10
5.072843
20
-5.2643389
11
5.1128853
21
-5.3964721
0
LINE
8
layer1
10
5.1128853
20
-5.3964721
11
5.1503251
21
-5.5414438
0
LINE
8
layer1
10
5.1503251
20
-5.5414438
11
5.1847081
21
-5.7022296
0
LINE
8
layer1
10
5.1847081
20
-5.7022296
11
5.2138833
21
-5.8735714
0
LINE
8
layer1
10
5.2138833
20
-5.8735714
11
5.2361704
21
-6.0483138
0
ARC
8
layer1
10
-0.0000162
20
0.0000207
40
8
50
306.259338
51
310.8835157
0
LINE
8
layer1
10
4.7315124
20
-6.4507651
11
4.5661106
21
-6.390153
0
LINE
8
layer1
10
4.5661106
20
-6.390153
11
4.4055567
21
-6.3235821
0
LINE
8
layer1
10
4.4055567
20
-6.3235821
11
4.256453
21
-6.254283
0
LINE
8
layer1
10
4.256453
20
-6.254283
11
4.1234473
21
-6.1855226
0
LINE
8
layer1
10
4.1234473
20
-6.1855226
11
4.0035372
21
-6.1170819
0
LINE
8
layer1
10
4.0035372
20
-6.1170819
11
3.8943006
21
-6.0485179
0
LINE
8
layer1
10
3.8943006
20
-6.0485179
11
3.7983456
21
-5.9825037
0
LINE
8
layer1
10
3.7983456
20
-5.9825037
11
3.7152498
21
-5.9200753
0
LINE
8
layer1
10
3.7152498
20
-5.9200753
11
3.641857
21
-5.8599333
0
LINE
8
layer1
10
3.641857
20
-5.8599333
11
3.5322695
21
-5.758374
0
LINE
8
layer1
10
3.5322695
20
-5.758374
11
3.4601217
21
-5.679452
0
LINE
8
layer1
10
3.4601217
20
-5.679452
11
3.4247669
21
-5.6338787
0
LINE
8
layer1
10
3.4247669
20
-5.6338787
11
3.3919501
21
-5.5728096
0
LINE
8
layer1
10
3.3919501
20
-5.5728096
11
3.333157
21
-5.4743483
0
LINE
8
layer1
10
3.333157
20
-5.4743483
11
3.2725813
21
-5.3905083
0
LINE
8
layer1
10
3.2725813
20
-5.3905083
11
3.2113287
21
-5.3212346
0
LINE
8
layer1
10
3.2113287
20
-5.3212346
11
3.1505099
21
-5.2664139
0
LINE
8
layer1
10
3.1505099
20
-5.2664139
11
3.0912323
21
-5.2258793
0
LINE
8
layer1
10
3.0912323
20
-5.2258793
11
3.034573
21
-5.1993785
0
LINE
8
layer1
10
3.034573
20
-5.1993785
11
2.9815964
21
-5.1866096
0
LINE
8
layer1
10
2.9815964
20
-5.1866096
11
2.9568115
21
-5.1852486
0
LINE
8
layer1
10
2.9568115
20
-5.1852486
11
2.9333372
21
-5.1871856
0
LINE
8
layer1
10
2.9333372
20
-5.1871856
11
2.9113044
21
-5.1923463
0
LINE
8
layer1
10
2.9113044
20
-5.1923463
11
2.8859617
21
-5.203241
0
LINE
8
layer1
10
2.8859617
20
-5.203241
11
2.6790596
21
-5.312758
0
LINE
8
layer1
10
2.6790596
20
-5.312758
11
2.5816082
21
-5.3607648
0
LINE
8
layer1
10
2.5816082
20
-5.3607648
11
2.4833151
21
-5.4070236
0
LINE
8
layer1
10
2.4833151
20
-5.4070236
11
2.2686899
21
-5.5005034
0
LINE
8
layer1
10
2.2686899
20
-5.5005034
11
2.2443712
21
-5.5135244
0
LINE
8
layer1
10
2.2443712
20
-5.5135244
11
2.2265992
21
-5.5275326
0
LINE
8
layer1
10
2.2265992
20
-5.5275326
11
2.2104488
21
-5.5446779
0
LINE
8
layer1
10
2.2104488
20
-5.5446779
11
2.1960597
21
-5.5649042
0
LINE
8
layer1
10
2.1960597
20
-5.5649042
11
2.1730125
21
-5.6142841
0
LINE
8
layer1
10
2.1730125
20
-5.6142841
11
2.1584052
21
-5.6751052
0
LINE
8
layer1
10
2.1584052
20
-5.6751052
11
2.1531374
21
-5.7467232
0
LINE
8
layer1
10
2.1531374
20
-5.7467232
11
2.1580781
21
-5.8284534
0
LINE
8
layer1
10
2.1580781
20
-5.8284534
11
2.174048
21
-5.9195341
0
LINE
8
layer1
10
2.174048
20
-5.9195341
11
2.2018284
21
-6.0191674
0
LINE
8
layer1
10
2.2018284
20
-6.0191674
11
2.2421517
21
-6.1265234
0
LINE
8
layer1
10
2.2421517
20
-6.1265234
11
2.2694365
21
-6.1902565
0
LINE
8
layer1
10
2.2694365
20
-6.1902565
11
2.2830238
21
-6.2463125
0
LINE
8
layer1
10
2.2830238
20
-6.2463125
11
2.2997441
21
-6.351927
0
LINE
8
layer1
10
2.2997441
20
-6.351927
11
2.3108196
21
-6.5009271
0
LINE
8
layer1
10
2.3108196
20
-6.5009271
11
2.3120809
21
-6.5958058
0
LINE
8
layer1
10
2.3120809
20
-6.5958058
11
2.3090801
21
-6.6996962
0
LINE
8
layer1
10
2.3090801
20
-6.6996962
11
2.300865
21
-6.815876
0
LINE
8
layer1
10
2.300865
20
-6.815876
11
2.2863626
21
-6.9440296
0
LINE
8
layer1
10
2.2863626
20
-6.9440296
11
2.2651089
21
-7.0804512
0
LINE
8
layer1
10
2.2651089
20
-7.0804512
11
2.2359403
21
-7.2273106
0
LINE
8
layer1
10
2.2359403
20
-7.2273106
11
2.1971559
21
-7.3870919
0
LINE
8
layer1
10
2.1971559
20
-7.3870919
11
2.1490994
21
-7.5541242
0
LINE
8
layer1
10
2.1490994
20
-7.5541242
11
2.0933615
21
-7.7212316
0
ARC
8
layer1
10
-0.0000058
20
0.0000256
40
8
50
280.5450538
51
285.1692314
0
LINE
8
layer1
10
1.4640633
20
-7.8648648
11
1.34134
21
-7.73849
0
LINE
8
layer1
10
1.34134
20
-7.73849
11
1.22557
21
-7.60885
0
LINE
8
layer1
10
1.22557
20
-7.60885
11
1.1213
21
-7.48172
0
LINE
8
layer1
10
1.1213
20
-7.48172
11
1.0313
21
-7.36206
0
LINE
8
layer1
10
1.0313
20
-7.36206
11
0.95296
21
-7.24837
0
LINE
8
layer1
10
0.95296
20
-7.24837
11
0.88429
21
-7.1392
0
LINE
8
layer1
10
0.88429
20
-7.1392
11
0.82648
21
-7.03809
0
LINE
8
layer1
10
0.82648
20
-7.03809
11
0.7787
21
-6.94579
0
LINE
8
layer1
10
0.7787
20
-6.94579
11
0.73867
21
-6.85976
0
LINE
8
layer1
10
0.73867
20
-6.85976
11
0.684
21
-6.72071
0
LINE
8
layer1
10
0.684
20
-6.72071
11
0.65324
21
-6.6183
0
LINE
8
layer1
10
0.65324
20
-6.6183
11
0.64116
21
-6.5619
0
LINE
8
layer1
10
0.64116
20
-6.5619
11
0.63809
21
-6.49264
0
LINE
8
layer1
10
0.63809
20
-6.49264
11
0.62784
21
-6.37842
0
LINE
8
layer1
10
0.62784
20
-6.37842
11
0.60964
21
-6.2766
0
LINE
8
layer1
10
0.60964
20
-6.2766
11
0.58451
21
-6.18761
0
LINE
8
layer1
10
0.58451
20
-6.18761
11
0.5535
21
-6.11183
0
LINE
8
layer1
10
0.5535
20
-6.11183
11
0.51768
21
-6.04959
0
LINE
8
layer1
10
0.51768
20
-6.04959
11
0.47813
21
-6.00113
0
LINE
8
layer1
10
0.47813
20
-6.00113
11
0.43594
21
-5.96664
0
LINE
8
layer1
10
0.43594
20
-5.96664
11
0.4142
21
-5.95466
0
LINE
8
layer1
10
0.4142
20
-5.95466
11
0.39221
21
-5.94622
0
LINE
8
layer1
10
0.39221
20
-5.94622
11
0.37012
21
-5.94131
0
LINE
8
layer1
10
0.37012
20
-5.94131
11
0.34256
21
-5.94013
0
LINE
8
layer1
10
0.34256
20
-5.94013
11
0.10863
21
-5.94903
0
LINE
8
layer1
10
0.10863
20
-5.94903
11
0
21
-5.95
0
LINE
8
layer1
10
0
20
-5.95
11
-0.10863
21
-5.94903
0
LINE
8
layer1
10
-0.10863
20
-5.94903
11
-0.34256
21
-5.94013
0
LINE
8
layer1
10
-0.34256
20
-5.94013
11
-0.37012
21
-5.94131
0
LINE
8
layer1
10
-0.37012
20
-5.94131
11
-0.39221
21
-5.94622
0
LINE
8
layer1
10
-0.39221
20
-5.94622
11
-0.4142
21
-5.95466
0
LINE
8
layer1
10
-0.4142
20
-5.95466
11
-0.43594
21
-5.96664
0
LINE
8
layer1
10
-0.43594
20
-5.96664
11
-0.47813
21
-6.00113
0
LINE
8
layer1
10
-0.47813
20
-6.00113
11
-0.51768
21
-6.04959
0
LINE
8
layer1
10
-0.51768
20
-6.04959
11
-0.5535
21
-6.11183
0
LINE
8
layer1
10
-0.5535
20
-6.11183
11
-0.58451
21
-6.18761
0
LINE
8
layer1
10
-0.58451
20
-6.18761
11
-0.60964
21
-6.2766
0
LINE
8
layer1
10
-0.60964
20
-6.2766
11
-0.62784
21
-6.37842
0
LINE
8
layer1
10
-0.62784
20
-6.37842
11
-0.63809
21
-6.49264
0
LINE
8
layer1
10
-0.63809
20
-6.49264
11
-0.64116
21
-6.5619
0
LINE
8
layer1
10
-0.64116
20
-6.5619
11
-0.65324
21
-6.6183
0
LINE
8
layer1
10
-0.65324
20
-6.6183
11
-0.684
21
-6.72071
0
LINE
8
layer1
10
-0.684
20
-6.72071
11
-0.73867
21
-6.85976
0
LINE
8
layer1
10
-0.73867
20
-6.85976
11
-0.7787
21
-6.94579
0
LINE
8
layer1
10
-0.7787
20
-6.94579
11
-0.82648
21
-7.03809
0
LINE
8
layer1
10
-0.82648
20
-7.03809
11
-0.88429
21
-7.1392
0
LINE
8
layer1
10
-0.88429
20
-7.1392
11
-0.95296
21
-7.24837
0
LINE
8
layer1
10
-0.95296
20
-7.24837
11
-1.0313
21
-7.36206
0
LINE
8
layer1
10
-1.0313
20
-7.36206
11
-1.1213
21
-7.48172
0
LINE
8
layer1
10
-1.1213
20
-7.48172
11
-1.22557
21
-7.60885
0
LINE
8
layer1
10
-1.22557
20
-7.60885
11
-1.34134
21
-7.73849
0
LINE
8
layer1
10
-1.34134
20
-7.73849
11
-1.4640633
21
-7.8648648
0
ARC
8
layer1
10
0.0000057
20
0.0000257
40
8
50
254.8307695
51
259.4549471
0
LINE
8
layer1
10
-2.0933615
20
-7.7212316
11
-2.1490994
21
-7.5541242
0
LINE
8
layer1
10
-2.1490994
20
-7.5541242
11
-2.1971559
21
-7.3870919
0
LINE
8
layer1
10
-2.1971559
20
-7.3870919
11
-2.2359403
21
-7.2273106
0
LINE
8
layer1
10
-2.2359403
20
-7.2273106
11
-2.2651089
21
-7.0804512
0
LINE
8
layer1
10
-2.2651089
20
-7.0804512
11
-2.2863626
21
-6.9440296
0
LINE
8
layer1
10
-2.2863626
20
-6.9440296
11
-2.300865
21
-6.815876
0
LINE
8
layer1
10
-2.300865
20
-6.815876
11
-2.3090801
21
-6.6996962
0
LINE
8
layer1
10
-2.3090801
20
-6.6996962
11
-2.3120809
21
-6.5958058
0
LINE
8
layer1
10
-2.3120809
20
-6.5958058
11
-2.3108196
21
-6.5009271
0
LINE
8
layer1
10
-2.3108196
20
-6.5009271
11
-2.2997441
21
-6.351927
0
LINE
8
layer1
10
-2.2997441
20
-6.351927
11
-2.2830238
21
-6.2463125
0
LINE
8
layer1
10
-2.2830238
20
-6.2463125
11
-2.2694365
21
-6.1902565
0
LINE
8
layer1
10
-2.2694365
20
-6.1902565
11
-2.2421517
21
-6.1265234
0
LINE
8
layer1
10
-2.2421517
20
-6.1265234
11
-2.2018284
21
-6.0191674
0
LINE
8
layer1
10
-2.2018284
20
-6.0191674
11
-2.174048
21
-5.9195341
0
LINE
8
layer1
10
-2.174048
20
-5.9195341
11
-2.1580781
21
-5.8284534
0
LINE
8
layer1
10
-2.1580781
20
-5.8284534
11
-2.1531374
21
-5.7467232
0
LINE
8
layer1
10
-2.1531374
20
-5.7467232
11
-2.1584052
21
-5.6751052
0
LINE
8
layer1
10
-2.1584052
20
-5.6751052
11
-2.1730125
21
-5.6142841
0
LINE
8
layer1
10
-2.1730125
20
-5.6142841
11
-2.1960597
21
-5.5649042
0
LINE
8
layer1
10
-2.1960597
20
-5.5649042
11
-2.2104488
21
-5.5446779
0
LINE
8
layer1
10
-2.2104488
20
-5.5446779
11
-2.2265992
21
-5.5275326
0
LINE
8
layer1
10
-2.2265992
20
-5.5275326
11
-2.2443712
21
-5.5135244
0
LINE
8
layer1
10
-2.2443712
20
-5.5135244
11
-2.2686899
21
-5.5005034
0
LINE
8
layer1
10
-2.2686899
20
-5.5005034
11
-2.4833151
21
-5.4070236
0
LINE
8
layer1
10
-2.4833151
20
-5.4070236
11
-2.5816082
21
-5.3607648
0
LINE
8
layer1
10
-2.5816082
20
-5.3607648
11
-2.6790596
21
-5.312758
0
LINE
8
layer1
10
-2.6790596
20
-5.312758
11
-2.8859617
21
-5.203241
0
LINE
8
layer1
10
-2.8859617
20
-5.203241
11
-2.9113044
21
-5.1923463
0
LINE
8
layer1
10
-2.9113044
20
-5.1923463
11
-2.9333372
21
-5.1871856
0
LINE
8
layer1
10
-2.9333372
20
-5.1871856
11
-2.9568115
21
-5.1852486
0
LINE
8
layer1
10
-2.9568115
20
-5.1852486
11
-2.9815964
21
-5.1866096
0
LINE
8
layer1
10
-2.9815964
20
-5.1866096
11
-3.034573
21
-5.1993785
0
LINE
8
layer1
10
-3.034573
20
-5.1993785
11
-3.0912323
21
-5.2258793
0
LINE
8
layer1
10
-3.0912323
20
-5.2258793
11
-3.1505099
21
-5.2664139
0
LINE
8
layer1
10
-3.1505099
20
-5.2664139
11
-3.2113287
21
-5.3212346
0
LINE
8
layer1
10
-3.2113287
20
-5.3212346
11
-3.2725813
21
-5.3905083
0
LINE
8
layer1
10
-3.2725813
20
-5.3905083
11
-3.333157
21
-5.4743483
0
LINE
8
layer1
10
-3.333157
20
-5.4743483
11
-3.3919501
21
-5.5728096
0
LINE
8
layer1
10
-3.3919501
20
-5.5728096
11
-3.4247669
21
-5.6338787
0
LINE
8
layer1
10
-3.4247669
20
-5.6338787
11
-3.4601217
21
-5.679452
0
LINE
8
layer1
10
-3.4601217
20
-5.679452
11
-3.5322695
21
-5.758374
0
LINE
8
layer1
10
-3.5322695
20
-5.758374
11
-3.641857
21
-5.8599333
0
LINE
8
layer1
10
-3.641857
20
-5.8599333
11
-3.7152498
21
-5.9200753
0
LINE
8
layer1
10
-3.7152498
20
-5.9200753
11
-3.7983456
21
-5.9825037
0
LINE
8
layer1
10
-3.7983456
20
-5.9825037
11
-3.8943006
21
-6.0485179
0
LINE
8
layer1
10
-3.8943006
20
-6.0485179
11
-4.0035372
21
-6.1170819
0
LINE
8
layer1
10
-4.0035372
20
-6.1170819
11
-4.1234473
21
-6.1855226
0
LINE
8
layer1
10
-4.1234473
20
-6.1855226
11
-4.256453
21
-6.254283
0
LINE
8
layer1
10
-4.256453
20
-6.254283
11
-4.4055567
21
-6.3235821
0
LINE
8
layer1
10
-4.4055567
20
-6.3235821
11
-4.5661106
21
-6.390153
0
LINE
8
layer1
10
-4.5661106
20
-6.390153
11
-4.7315124
21
-6.4507651
0
ARC
8
layer1
10
0.0000162
20
0.0000207
40
8
50
229.1164843
51
233.740662
0
LINE
8
layer1
10
-5.2361704
20
-6.0483138
11
-5.2138833
21
-5.8735714
0
LINE
8
layer1
10
-5.2138833
20
-5.8735714
11
-5.1847081
21
-5.7022296
0
LINE
8
layer1
10
-5.1847081
20
-5.7022296
11
-5.1503251
21
-5.5414438
0
LINE
8
layer1
10
-5.1503251
20
-5.5414438
11
-5.1128853
21
-5.3964721
0
LINE
8
layer1
10
-5.1128853
20
-5.3964721
11
-5.072843
21
-5.2643389
0
LINE
8
layer1
10
-5.072843
20
-5.2643389
11
-5.0303055
21
-5.1425842
0
LINE
8
layer1
10
-5.0303055
20
-5.1425842
11
-4.9872985
21
-5.0343454
0
LINE
8
layer1
10
-4.9872985
20
-5.0343454
11
-4.9449258
21
-4.9394414
0
LINE
8
layer1
10
-4.9449258
20
-4.9394414
11
-4.9026231
21
-4.8545059
0
LINE
8
layer1
10
-4.9026231
20
-4.8545059
11
-4.8279956
21
-4.7250669
0
LINE
8
layer1
10
-4.8279956
20
-4.7250669
11
-4.7671068
21
-4.6371662
0
LINE
8
layer1
10
-4.7671068
20
-4.6371662
11
-4.7305433
21
-4.5925568
0
LINE
8
layer1
10
-4.7305433
20
-4.5925568
11
-4.6783077
21
-4.5469737
0
LINE
8
layer1
10
-4.6783077
20
-4.5469737
11
-4.5953977
21
-4.4677449
0
LINE
8
layer1
10
-4.5953977
20
-4.4677449
11
-4.5271392
21
-4.3900318
0
LINE
8
layer1
10
-4.5271392
20
-4.3900318
11
-4.4732323
21
-4.3149001
0
LINE
8
layer1
10
-4.4732323
20
-4.3149001
11
-4.4333195
21
-4.2434074
0
LINE
8
layer1
10
-4.4333195
20
-4.2434074
11
-4.4069917
21
-4.1765962
0
LINE
8
layer1
10
-4.4069917
20
-4.1765962
11
-4.3937632
21
-4.1154604
0
LINE
8
layer1
10
-4.3937632
20
-4.1154604
11
-4.3931029
21
-4.0609708
0
LINE
8
layer1
10
-4.3931029
20
-4.0609708
11
-4.3972912
21
-4.0365044
0
LINE
8
layer1
10
-4.3972912
20
-4.0365044
11
-4.4044031
21
-4.0140497
0
LINE
8
layer1
10
-4.4044031
20
-4.0140497
11
-4.4143372
21
-3.9937177
0
LINE
8
layer1
10
-4.4143372
20
-3.9937177
11
-4.430598
21
-3.9714347
0
LINE
8
layer1
10
-4.430598
20
-3.9714347
11
-4.5834092
21
-3.7940899
0
LINE
8
layer1
10
-4.5834092
20
-3.7940899
11
-4.6518973
21
-3.7097643
0
LINE
8
layer1
10
-4.6518973
20
-3.7097643
11
-4.7188686
21
-3.6242292
0
LINE
8
layer1
10
-4.7188686
20
-3.6242292
11
-4.8577633
21
-3.4357863
0
LINE
8
layer1
10
-4.8577633
20
-3.4357863
11
-4.8758693
21
-3.4149747
0
LINE
8
layer1
10
-4.8758693
20
-3.4149747
11
-4.8934809
21
-3.4007654
0
LINE
8
layer1
10
-4.8934809
20
-3.4007654
11
-4.9137901
21
-3.3888352
0
LINE
8
layer1
10
-4.9137901
20
-3.3888352
11
-4.9367111
21
-3.3793076
0
LINE
8
layer1
10
-4.9367111
20
-3.3793076
11
-4.9899815
21
-3.3678263
0
LINE
8
layer1
10
-4.9899815
20
-3.3678263
11
-5.0525281
21
-3.3671191
0
LINE
8
layer1
10
-5.0525281
20
-3.3671191
11
-5.1235227
21
-3.37792
0
LINE
8
layer1
10
-5.1235227
20
-3.37792
11
-5.2021043
21
-3.4009234
0
LINE
8
layer1
10
-5.2021043
20
-3.4009234
11
-5.2873478
21
-3.4367603
0
LINE
8
layer1
10
-5.2873478
20
-3.4367603
11
-5.3783014
21
-3.4860147
0
LINE
8
layer1
10
-5.3783014
20
-3.4860147
11
-5.473993
21
-3.549216
0
LINE
8
layer1
10
-5.473993
20
-3.549216
11
-5.5300567
21
-3.5899987
0
LINE
8
layer1
10
-5.5300567
20
-3.5899987
11
-5.5816838
21
-3.615719
0
LINE
8
layer1
10
-5.5816838
20
-3.615719
11
-5.6809297
21
-3.6555214
0
LINE
8
layer1
10
-5.6809297
20
-3.6555214
11
-5.8237295
21
-3.6994749
0
LINE
8
layer1
10
-5.8237295
20
-3.6994749
11
-5.9159488
21
-3.7218171
0
LINE
8
layer1
10
-5.9159488
20
-3.7218171
11
-6.0179022
21
-3.7420093
0
LINE
8
layer1
10
-6.0179022
20
-3.7420093
11
-6.1329971
21
-3.7598526
0
LINE
8
layer1
10
-6.1329971
20
-3.7598526
11
-6.2611647
21
-3.7742306
0
LINE
8
layer1
10
-6.2611647
20
-3.7742306
11
-6.3988953
21
-3.7838665
0
LINE
8
layer1
10
-6.3988953
20
-3.7838665
11
-6.5485634
21
-3.7881085
0
LINE
8
layer1
10
-6.5485634
20
-3.7881085
11
-6.7129689
21
-3.7858512
0
LINE
8
layer1
10
-6.7129689
20
-3.7858512
11
-6.8865069
21
-3.7761678
0
LINE
8
layer1
10
-6.8865069
20
-3.7761678
11
-7.0618275
21
-3.7590122
0
ARC
8
layer1
10
0.0000239
20
0.0000109
40
8
50
203.4021927
51
208.0263703
0
LINE
8
layer1
10
-7.3418915
20
-3.1774532
11
-7.2459937
21
-3.0296858
0
LINE
8
layer1
10
-7.2459937
20
-3.0296858
11
-7.1453653
21
-2.8879708
0
LINE
8
layer1
10
-7.1453653
20
-2.8879708
11
-7.0446249
21
-2.758026
0
LINE
8
layer1
10
-7.0446249
20
-2.758026
11
-6.9479919
21
-2.6436556
0
LINE
8
layer1
10
-6.9479919
20
-2.6436556
11
-6.8545847
21
-2.5419814
0
LINE
8
layer1
10
-6.8545847
20
-2.5419814
11
-6.7634323
21
-2.4507405
0
LINE
8
layer1
10
-6.7634323
20
-2.4507405
11
-6.6777213
21
-2.3718808
0
LINE
8
layer1
10
-6.6777213
20
-2.3718808
11
-6.5983675
21
-2.30476
0
LINE
8
layer1
10
-6.5983675
20
-2.30476
11
-6.523402
21
-2.2465902
0
LINE
8
layer1
10
-6.523402
20
-2.2465902
11
-6.4000034
21
-2.1623494
0
LINE
8
layer1
10
-6.4000034
20
-2.1623494
11
-6.3070058
21
-2.1095722
0
LINE
8
layer1
10
-6.3070058
20
-2.1095722
11
-6.2547079
21
-2.0852449
0
LINE
8
layer1
10
-6.2547079
20
-2.0852449
11
-6.1878676
21
-2.0668401
0
LINE
8
layer1
10
-6.1878676
20
-2.0668401
11
-6.0787922
21
-2.0314307
0
LINE
8
layer1
10
-6.0787922
20
-2.0314307
11
-5.9835749
21
-1.9910299
0
LINE
8
layer1
10
-5.9835749
20
-1.9910299
11
-5.902408
21
-1.9467279
0
LINE
8
layer1
10
-5.902408
20
-1.9467279
11
-5.8354283
21
-1.8996327
0
LINE
8
layer1
10
-5.8354283
20
-1.8996327
11
-5.7827195
21
-1.8508611
0
LINE
8
layer1
10
-5.7827195
20
-1.8508611
11
-5.7442752
21
-1.8015193
0
LINE
8
layer1
10
-5.7442752
20
-1.8015193
11
-5.7200381
21
-1.7527124
0
LINE
8
layer1
10
-5.7200381
20
-1.7527124
11
-5.7131961
21
-1.7288516
0
LINE
8
layer1
10
-5.7131961
20
-1.7288516
11
-5.7098609
21
-1.7055349
0
LINE
8
layer1
10
-5.7098609
20
-1.7055349
11
-5.7099895
21
-1.6829062
0
LINE
8
layer1
10
-5.7099895
20
-1.6829062
11
-5.7149718
21
-1.6557746
0
LINE
8
layer1
10
-5.7149718
20
-1.6557746
11
-5.7757029
21
-1.4296901
0
LINE
8
layer1
10
-5.7757029
20
-1.4296901
11
-5.8008211
21
-1.3239996
0
LINE
8
layer1
10
-5.8008211
20
-1.3239996
11
-5.8240478
21
-1.2178773
0
LINE
8
layer1
10
-5.8240478
20
-1.2178773
11
-5.8674253
21
-0.987832
0
LINE
8
layer1
10
-5.8674253
20
-0.987832
11
-5.8747084
21
-0.9612255
0
LINE
8
layer1
10
-5.8747084
20
-0.9612255
11
-5.8844108
21
-0.940782
0
LINE
8
layer1
10
-5.8844108
20
-0.940782
11
-5.8975324
21
-0.9212214
0
LINE
8
layer1
10
-5.8975324
20
-0.9212214
11
-5.9140497
21
-0.9026922
0
LINE
8
layer1
10
-5.9140497
20
-0.9026922
11
-5.9570631
21
-0.8692348
0
LINE
8
layer1
10
-5.9570631
20
-0.8692348
11
-6.0131088
21
-0.8414597
0
LINE
8
layer1
10
-6.0131088
20
-0.8414597
11
-6.081759
21
-0.8203875
0
LINE
8
layer1
10
-6.081759
20
-0.8203875
11
-6.1625394
21
-0.8070176
0
LINE
8
layer1
10
-6.1625394
20
-0.8070176
11
-6.2548902
21
-0.8023198
0
LINE
8
layer1
10
-6.2548902
20
-0.8023198
11
-6.3582072
21
-0.8072332
0
LINE
8
layer1
10
-6.3582072
20
-0.8072332
11
-6.4718443
21
-0.8226566
0
LINE
8
layer1
10
-6.4718443
20
-0.8226566
11
-6.540051
21
-0.8350753
0
LINE
8
layer1
10
-6.540051
20
-0.8350753
11
-6.597725
21
-0.8358484
0
LINE
8
layer1
10
-6.597725
20
-0.8358484
11
-6.7044121
21
-0.828648
0
LINE
8
layer1
10
-6.7044121
20
-0.828648
11
-6.852141
21
-0.8062902
0
LINE
8
layer1
10
-6.852141
20
-0.8062902
11
-6.9449216
21
-0.7864073
0
LINE
8
layer1
10
-6.9449216
20
-0.7864073
11
-7.0455395
21
-0.7603639
0
LINE
8
layer1
10
-7.0455395
20
-0.7603639
11
-7.1569784
21
-0.7265024
0
LINE
8
layer1
10
-7.1569784
20
-0.7265024
11
-7.2786918
21
-0.6838468
0
LINE
8
layer1
10
-7.2786918
20
-0.6838468
11
-7.4069636
21
-0.6327693
0
LINE
8
layer1
10
-7.4069636
20
-0.6327693
11
-7.5436504
21
-0.5716527
0
LINE
8
layer1
10
-7.5436504
20
-0.5716527
11
-7.6907952
21
-0.498286
0
LINE
8
layer1
10
-7.6907952
20
-0.498286
11
-7.8429461
21
-0.4142662
0
LINE
8
layer1
10
-7.8429461
20
-0.4142662
11
-7.993461
21
-0.3227409
0
ARC
8
layer1
10
0.0000262
20
0
40
8
50
177.6879111
51
182.3120889
0
LINE
8
layer1
10
-7.993461
20
0.3227409
11
-7.8429461
21
0.4142662
0
LINE
8
layer1
10
-7.8429461
20
0.4142662
11
-7.6907952
21
0.498286
0
LINE
8
layer1
10
-7.6907952
20
0.498286
11
-7.5436504
21
0.5716527
0
LINE
8
layer1
10
-7.5436504
20
0.5716527
11
-7.4069636
21
0.6327693
0
LINE
8
layer1
10
-7.4069636
20
0.6327693
11
-7.2786918
21
0.6838468
0
LINE
8
layer1
10
-7.2786918
20
0.6838468
11
-7.1569784
21
0.7265024
0
LINE
8
layer1
10
-7.1569784
20
0.7265024
11
-7.0455395
21
0.7603639
0
LINE
8
layer1
10
-7.0455395
20
0.7603639
11
-6.9449216
21
0.7864073
0
LINE
8
layer1
10
-6.9449216
20
0.7864073
11
-6.852141
21
0.8062902
0
LINE
8
layer1
10
-6.852141
20
0.8062902
11
-6.7044121
21
0.828648
0
LINE
8
layer1
10
-6.7044121
20
0.828648
11
-6.597725
21
0.8358484
0
LINE
8
layer1
10
-6.597725
20
0.8358484
11
-6.540051
21
0.8350753
0
LINE
8
layer1
10
-6.540051
20
0.8350753
11
-6.4718443
21
0.8226566
0
LINE
8
layer1
10
-6.4718443
20
0.8226566
11
-6.3582072
21
0.8072332
0
LINE
8
layer1
10
-6.3582072
20
0.8072332
11
-6.2548902
21
0.8023198
0
LINE
8
layer1
10
-6.2548902
20
0.8023198
11
-6.1625394
21
0.8070176
0
LINE
8
layer1
10
-6.1625394
20
0.8070176
11
-6.081759
21
0.8203875
0
LINE
8
layer1
10
-6.081759
20
0.8203875
11
-6.0131088
21
0.8414597
0
LINE
8
layer1
10
-6.0131088
20
0.8414597
11
-5.9570631
21
0.8692348
0
LINE
8
layer1
10
-5.9570631
20
0.8692348
11
-5.9140497
21
0.9026922
0
LINE
8
layer1
10
-5.9140497
20
0.9026922
11
-5.8975324
21
0.9212214
0
LINE
8
layer1
10
-5.8975324
20
0.9212214
11
-5.8844108
21
0.940782
0
LINE
8
layer1
10
-5.8844108
20
0.940782
11
-5.8747084
21
0.9612255
0
LINE
8
layer1
10
-5.8747084
20
0.9612255
11
-5.8674253
21
0.987832
0
LINE
8
layer1
10
-5.8674253
20
0.987832
11
-5.8240478
21
1.2178773
0
LINE
8
layer1
10
-5.8240478
20
1.2178773
11
-5.8008211
21
1.3239996
0
LINE
8
layer1
10
-5.8008211
20
1.3239996
11
-5.7757029
21
1.4296901
0
LINE
8
layer1
10
-5.7757029
20
1.4296901
11
-5.7149718
21
1.6557746
0
LINE
8
layer1
10
-5.7149718
20
1.6557746
11
-5.7099895
21
1.6829062
0
LINE
8
layer1
10
-5.7099895
20
1.6829062
11
-5.7098609
21
1.7055349
0
LINE
8
layer1
10
-5.7098609
20
1.7055349
11
-5.7131961
21
1.7288516
0
LINE
8
layer1
10
-5.7131961
20
1.7288516
11
-5.7200381
21
1.7527124
0
LINE
8
layer1
10
-5.7200381
20
1.7527124
11
-5.7442752
21
1.8015193
0
LINE
8
layer1
10
-5.7442752
20
1.8015193
11
-5.7827195
21
1.8508611
0
LINE
8
layer1
10
-5.7827195
20
1.8508611
11
-5.8354283
21
1.8996327
0
LINE
8
layer1
10
-5.8354283
20
1.8996327
11
-5.902408
21
1.9467279
0
LINE
8
layer1
10
-5.902408
20
1.9467279
11
-5.9835749
21
1.9910299
0
LINE
8
layer1
10
-5.9835749
20
1.9910299
11
-6.0787922
21
2.0314307
0
LINE
8
layer1
10
-6.0787922
20
2.0314307
11
-6.1878676
21
2.0668401
0
LINE
8
layer1
10
-6.1878676
20
2.0668401
11
-6.2547079
21
2.0852449
0
LINE
8
layer1
10
-6.2547079
20
2.0852449
11
-6.3070058
21
2.1095722
0
LINE
8
layer1
10
-6.3070058
20
2.1095722
11
-6.4000034
21
2.1623494
0
LINE
8
layer1
10
-6.4000034
20
2.1623494
11
-6.523402
21
2.2465902
0
LINE
8
layer1
10
-6.523402
20
2.2465902
11
-6.5983675
21
2.30476
0
LINE
8
layer1
10
-6.5983675
20
2.30476
11
-6.6777213
21
2.3718808
0
LINE
8
layer1
10
-6.6777213
20
2.3718808
11
-6.7634323
21
2.4507405
0
LINE
8
layer1
10
-6.7634323
20
2.4507405
11
-6.8545847
21
2.5419814
0
LINE
8
layer1
10
-6.8545847
20
2.5419814
11
-6.9479919
21
2.6436556
0
LINE
8
layer1
10
-6.9479919
20
2.6436556
11
-7.0446249
21
2.758026
0
LINE
8
layer1
10
-7.0446249
20
2.758026
11
-7.1453653
21
2.8879708
0
LINE
8
layer1
10
-7.1453653
20
2.8879708
11
-7.2459937
21
3.0296858
0
LINE
8
layer1
10
-7.2459937
20
3.0296858
11
-7.3418915
21
3.1774532
0
ARC
8
layer1
10
0.0000239
20
-0.0000109
40
8
50
151.9736297
51
156.5978073
0
LINE
8
layer1
10
-7.0618275
20
3.7590122
11
-6.8865069
21
3.7761678
0
LINE
8
layer1
10
-6.8865069
20
3.7761678
11
-6.7129689
21
3.7858512
0
LINE
8
layer1
10
-6.7129689
20
3.7858512
11
-6.5485634
21
3.7881085
0
LINE
8
layer1
10
-6.5485634
20
3.7881085
11
-6.3988953
21
3.7838665
0
LINE
8
layer1
10
-6.3988953
20
3.7838665
11
-6.2611647
21
3.7742306
0
LINE
8
layer1
10
-6.2611647
20
3.7742306
11
-6.1329971
21
3.7598526
0
LINE
8
layer1
10
-6.1329971
20
3.7598526
11
-6.0179022
21
3.7420093
0
LINE
8
layer1
10
-6.0179022
20
3.7420093
11
-5.9159488
21
3.7218171
0
LINE
8
layer1
10
-5.9159488
20
3.7218171
11
-5.8237295
21
3.6994749
0
LINE
8
layer1
10
-5.8237295
20
3.6994749
11
-5.6809297
21
3.6555214
0
LINE
8
layer1
10
-5.6809297
20
3.6555214
11
-5.5816838
21
3.615719
0
LINE
8
layer1
10
-5.5816838
20
3.615719
11
-5.5300567
21
3.5899987
0
LINE
8
layer1
10
-5.5300567
20
3.5899987
11
-5.473993
21
3.549216
0
LINE
8
layer1
10
-5.473993
20
3.549216
11
-5.3783014
21
3.4860147
0
LINE
8
layer1
10
-5.3783014
20
3.4860147
11
-5.2873478
21
3.4367603
0
LINE
8
layer1
10
-5.2873478
20
3.4367603
11
-5.2021043
21
3.4009234
0
LINE
8
layer1
10
-5.2021043
20
3.4009234
11
-5.1235227
21
3.37792
0
LINE
8
layer1
10
-5.1235227
20
3.37792
11
-5.0525281
21
3.3671191
0
LINE
8
layer1
10
-5.0525281
20
3.3671191
11
-4.9899815
21
3.3678263
0
LINE
8
layer1
10
-4.9899815
20
3.3678263
11
-4.9367111
21
3.3793076
0
LINE
8
layer1
10
-4.9367111
20
3.3793076
11
-4.9137901
21
3.3888352
0
LINE
8
layer1
10
-4.9137901
20
3.3888352
11
-4.8934809
21
3.4007654
0
LINE
8
layer1
10
-4.8934809
20
3.4007654
11
-4.8758693
21
3.4149747
0
LINE
8
layer1
10
-4.8758693
20
3.4149747
11
-4.8577633
21
3.4357863
0
LINE
8
layer1
10
-4.8577633
20
3.4357863
11
-4.7188686
21
3.6242292
0
LINE
8
layer1
10
-4.7188686
20
3.6242292
11
-4.6518973
21
3.7097643
0
LINE
8
layer1
10
-4.6518973
20
3.7097643
11
-4.5834092
21
3.7940899
0
LINE
8
layer1
10
-4.5834092
20
3.7940899
11
-4.430598
21
3.9714347
0
LINE
8
layer1
10
-4.430598
20
3.9714347
11
-4.4143372
21
3.9937177
0
LINE
8
layer1
10
-4.4143372
20
3.9937177
11
-4.4044031
21
4.0140497
0
LINE
8
layer1
10
-4.4044031
20
4.0140497
11
-4.3972912
21
4.0365044
0
LINE
8
layer1
10
-4.3972912
20
4.0365044
11
-4.3931029
21
4.0609708
0
LINE
8
layer1
10
-4.3931029
20
4.0609708
11
-4.3937632
21
4.1154604
0
LINE
8
layer1
10
-4.3937632
20
4.1154604
11
-4.4069917
21
4.1765962
0
LINE
8
layer1
10
-4.4069917
20
4.1765962
11
-4.4333195
21
4.2434074
0
LINE
8
layer1
10
-4.4333195
20
4.2434074
11
-4.4732323
21
4.3149001
0
LINE
8
layer1
10
-4.4732323
20
4.3149001
11
-4.5271392
21
4.3900318
0
LINE
8
layer1
10
-4.5271392
20
4.3900318
11
-4.5953977
21
4.4677449
0
LINE
8
layer1
10
-4.5953977
20
4.4677449
11
-4.6783077
21
4.5469737
0
LINE
8
layer1
10
-4.6783077
20
4.5469737
11
-4.7305433
21
4.5925568
0
LINE
8
layer1
10
-4.7305433
20
4.5925568
11
-4.7671068
21
4.6371662
0
LINE
8
layer1
10
-4.7671068
20
4.6371662
11
-4.8279956
21
4.7250669
0
LINE
8
layer1
10
-4.8279956
20
4.7250669
11
-4.9026231
21
4.8545059
0
LINE
8
layer1
10
-4.9026231
20
4.8545059
11
-4.9449258
21
4.9394414
0
LINE
8
layer1
10
-4.9449258
20
4.9394414
11
-4.9872985
21
5.0343454
0
LINE
8
layer1
10
-4.9872985
20
5.0343454
11
-5.0303055
21
5.1425842
0
LINE
8
layer1
10
-5.0303055
20
5.1425842
11
-5.072843
21
5.2643389
0
LINE
8
layer1
10
-5.072843
20
5.2643389
11
-5.1128853
21
5.3964721
0
LINE
8
layer1
10
-5.1128853
20
5.3964721
11
-5.1503251
21
5.5414438
0
LINE
8
layer1
10
-5.1503251
20
5.5414438
11
-5.1847081
21
5.7022296
0
LINE
8
layer1
10
-5.1847081
20
5.7022296
11
-5.2138833
21
5.8735714
0
LINE
8
layer1
10
-5.2138833
20
5.8735714
11
-5.2361704
21
6.0483138
0
ARC
8
layer1
10
0.0000162
20
-0.0000207
40
8
50
126.259338
51
130.8835157
0
LINE
8
layer1
10
-4.7315124
20
6.4507651
11
-4.5661106
21
6.390153
0
LINE
8
layer1
10
-4.5661106
20
6.390153
11
-4.4055567
21
6.3235821
0
LINE
8
layer1
10
-4.4055567
20
6.3235821
11
-4.256453
21
6.254283
0
LINE
8
layer1
10
-4.256453
20
6.254283
11
-4.1234473
21
6.1855226
0
LINE
8
layer1
10
-4.1234473
20
6.1855226
11
-4.0035372
21
6.1170819
0
LINE
8
layer1
10
-4.0035372
20
6.1170819
11
-3.8943006
21
6.0485179
0
LINE
8
layer1
10
-3.8943006
20
6.0485179
11
-3.7983456
21
5.9825037
0
LINE
8
layer1
10
-3.7983456
20
5.9825037
11
-3.7152498
21
5.9200753
0
LINE
8
layer1
10
-3.7152498
20
5.9200753
11
-3.641857
21
5.8599333
0
LINE
8
layer1
10
-3.641857
20
5.8599333
11
-3.5322695
21
5.758374
0
LINE
8
layer1
10
-3.5322695
20
5.758374
11
-3.4601217
21
5.679452
0
LINE
8
layer1
10
-3.4601217
20
5.679452
11
-3.4247669
21
5.6338787
0
LINE
8
layer1
10
-3.4247669
20
5.6338787
11
-3.3919501
21
5.5728096
0
LINE
8
layer1
10
-3.3919501
20
5.5728096
11
-3.333157
21
5.4743483
0
LINE
8
layer1
10
-3.333157
20
5.4743483
11
-3.2725813
21
5.3905083
0
LINE
8
layer1
10
-3.2725813
20
5.3905083
11
-3.2113287
21
5.3212346
0
LINE
8
layer1
10
-3.2113287
20
5.3212346
11
-3.1505099
21
5.2664139
0
LINE
8
layer1
10
-3.1505099
20
5.2664139
11
-3.0912323
21
5.2258793
0
LINE
8
layer1
10
-3.0912323
20
5.2258793
11
-3.034573
21
5.1993785
0
LINE
8
layer1
10
-3.034573
20
5.1993785
11
-2.9815964
21
5.1866096
0
LINE
8
layer1
10
-2.9815964
20
5.1866096
11
-2.9568115
21
5.1852486
0
LINE
8
layer1
10
-2.9568115
20
5.1852486
11
-2.9333372
21
5.1871856
0
LINE
8
layer1
10
-2.9333372
20
5.1871856
11
-2.9113044
21
5.1923463
0
LINE
8
layer1
10
-2.9113044
20
5.1923463
11
-2.8859617
21
5.203241
0
LINE
8
layer1
10
-2.8859617
20
5.203241
11
-2.6790596
21
5.312758
0
LINE
8
layer1
10
-2.6790596
20
5.312758
11
-2.5816082
21
5.3607648
0
LINE
8
layer1
10
-2.5816082
20
5.3607648
11
-2.4833151
21
5.4070236
0
LINE
8
layer1
10
-2.4833151
20
5.4070236
11
-2.2686899
21
5.5005034
0
LINE
8
layer1
10
-2.2686899
20
5.5005034
11
-2.2443712
21
5.5135244
0
LINE
8
layer1
10
-2.2443712
20
5.5135244
11
-2.2265992
21
5.5275326
0
LINE
8
layer1
10
-2.2265992
20
5.5275326
11
-2.2104488
21
5.5446779
0
LINE
8
layer1
10
-2.2104488
20
5.5446779
11
-2.1960597
21
5.5649042
0
LINE
8
layer1
10
-2.1960597
20
5.5649042
11
-2.1730125
21
5.6142841
0
LINE
8
layer1
10
-2.1730125
20
5.6142841
11
-2.1584052
21
5.6751052
0
LINE
8
layer1
10
-2.1584052
20
5.6751052
11
-2.1531374
21
5.7467232
0
LINE
8
layer1
10
-2.1531374
20
5.7467232
11
-2.1580781
21
5.8284534
0
LINE
8
layer1
10
-2.1580781
20
5.8284534
11
-2.174048
21
5.9195341
0
LINE
8
layer1
10
-2.174048
20
5.9195341
11
-2.2018284
21
6.0191674
0
LINE
8
layer1
10
-2.2018284
20
6.0191674
11
-2.2421517
21
6.1265234
0
LINE
8
layer1
10
-2.2421517
20
6.1265234
11
-2.2694365
21
6.1902565
0
LINE
8
layer1
10
-2.2694365
20
6.1902565
11
-2.2830238
21
6.2463125
0
LINE
8
layer1
10
-2.2830238
20
6.2463125
11
-2.2997441
21
6.351927
0
LINE
8
layer1
10
-2.2997441
20
6.351927
11
-2.3108196
21
6.5009271
0
LINE
8
layer1
10
-2.3108196
20
6.5009271
11
-2.3120809
21
6.5958058
0
LINE
8
layer1
10
-2.3120809
20
6.5958058
11
-2.3090801
21
6.6996962
0
LINE
8
layer1
10
-2.3090801
20
6.6996962
11
-2.300865
21
6.815876
0
LINE
8
layer1
10
-2.300865
20
6.815876
11
-2.2863626
21
6.9440296
0
LINE
8
layer1
10
-2.2863626
20
6.9440296
11
-2.2651089
21
7.0804512
0
LINE
8
layer1
10
-2.2651089
20
7.0804512
11
-2.2359403
21
7.2273106
0
LINE
8
layer1
10
-2.2359403
20
7.2273106
11
-2.1971559
21
7.3870919
0
LINE
8
layer1
10
-2.1971559
20
7.3870919
11
-2.1490994
21
7.5541242
0
LINE
8
layer1
10
-2.1490994
20
7.5541242
11
-2.0933615
21
7.7212316
0
ARC
8
layer1
10
0.0000058
20
-0.0000256
40
8
50
100.5450538
51
105.1692314
0
LINE
8
layer1
10
-1.4640633
20
7.8648648
11
-1.34134
21
7.73849
0
LINE
8
layer1
10
-1.34134
20
7.73849
11
-1.22557
21
7.60885
0
LINE
8
layer1
10
-1.22557
20
7.60885
11
-1.1213
21
7.48172
0
LINE
8
layer1
10
-1.1213
20
7.48172
11
-1.0313
21
7.36206
0
LINE
8
layer1
10
-1.0313
20
7.36206
11
-0.95296
21
7.24837
0
LINE
8
layer1
10
-0.95296
20
7.24837
11
-0.88429
21
7.1392
0
LINE
8
layer1
10
-0.88429
20
7.1392
11
-0.82648
21
7.03809
0
LINE
8
layer1
10
-0.82648
20
7.03809
11
-0.7787
21
6.94579
0
LINE
8
layer1
10
-0.7787
20
6.94579
11
-0.73867
21
6.85976
0
LINE
8
layer1
10
-0.73867
20
6.85976
11
-0.684
21
6.72071
0
LINE
8
layer1
10
-0.684
20
6.72071
11
-0.65324
21
6.6183
0
LINE
8
layer1
10
-0.65324
20
6.6183
11
-0.64116
21
6.5619
0
LINE
8
layer1
10
-0.64116
20
6.5619
11
-0.63809
21
6.49264
0
LINE
8
layer1
10
-0.63809
20
6.49264
11
-0.62784
21
6.37842
0
LINE
8
layer1
10
-0.62784
20
6.37842
11
-0.60964
21
6.2766
0
LINE
8
layer1
10
-0.60964
20
6.2766
11
-0.58451
21
6.18761
0
LINE
8
layer1
10
-0.58451
20
6.18761
11
-0.5535
21
6.11183
0
LINE
8
layer1
10
-0.5535
20
6.11183
11
-0.51768
21
6.04959
0
LINE
8
layer1
10
-0.51768
20
6.04959
11
-0.47813
21
6.00113
0
LINE
8
layer1
10
-0.47813
20
6.00113
11
-0.43594
21
5.96664
0
LINE
8
layer1
10
-0.43594
20
5.96664
11
-0.4142
21
5.95466
0
LINE
8
layer1
10
-0.4142
20
5.95466
11
-0.39221
21
5.94622
0
LINE
8
layer1
10
-0.39221
20
5.94622
11
-0.37012
21
5.94131
0
LINE
8
layer1
10
-0.37012
20
5.94131
11
-0.34256
21
5.94013
0
LINE
8
layer1
10
-0.34256
20
5.94013
11
-0.10863
21
5.94903
0
LINE
8
layer1
10
-0.10863
20
5.94903
11
0
21
5.95
0
LINE
8
layer1
10
0
20
5.95
11
0.10863
21
5.94903
0
LINE
8
layer1
10
0.10863
20
5.94903
11
0.34256
21
5.94013
0
LINE
8
layer1
10
0.34256
20
5.94013
11
0.37012
21
5.94131
0
LINE
8
layer1
10
0.37012
20
5.94131
11
0.39221
21
5.94622
0
LINE
8
layer1
10
0.39221
20
5.94622
11
0.4142
21
5.95466
0
LINE
8
layer1
10
0.4142
20
5.95466
11
0.43594
21
5.96664
0
LINE
8
layer1
10
0.43594
20
5.96664
11
0.47813
21
6.00113
0
LINE
8
layer1
10
0.47813
20
6.00113
11
0.51768
21
6.04959
0
LINE
8
layer1
10
0.51768
20
6.04959
11
0.5535
21
6.11183
0
LINE
8
layer1
10
0.5535
20
6.11183
11
0.58451
21
6.18761
0
LINE
8
layer1
10
0.58451
20
6.18761
11
0.60964
21
6.2766
0
LINE
8
layer1
10
0.60964
20
6.2766
11
0.62784
21
6.37842
0
LINE
8
layer1
10
0.62784
20
6.37842
11
0.63809
21
6.49264
0
LINE
8
layer1
10
0.63809
20
6.49264
11
0.64116
21
6.5619
0
LINE
8
layer1
10
0.64116
20
6.5619
11
0.65324
21
6.6183
0
LINE
8
layer1
10
0.65324
20
6.6183
11
0.684
21
6.72071
0
LINE
8
layer1
10
0.684
20
6.72071
11
0.73867
21
6.85976
0
LINE
8
layer1
10
0.73867
20
6.85976
11
0.7787
21
6.94579
0
LINE
8
layer1
10
0.7787
20
6.94579
11
0.82648
21
7.03809
0
LINE
8
layer1
10
0.82648
20
7.03809
11
0.88429
21
7.1392
0
LINE
8
layer1
10
0.88429
20
7.1392
11
0.95296
21
7.24837
0
LINE
8
layer1
10
0.95296
20
7.24837
11
1.0313
21
7.36206
0
LINE
8
layer1
10
1.0313
20
7.36206
11
1.1213
21
7.48172
0
LINE
8
layer1
10
1.1213
20
7.48172
11
1.22557
21
7.60885
0
LINE
8
layer1
10
1.22557
20
7.60885
11
1.34134
21
7.73849
0
LINE
8
layer1
10
1.34134
20
7.73849
11
1.4640633
21
7.8648648
0
ARC
8
layer1
10
-0.0000057
20
-0.0000257
40
8
50
74.8307695
51
79.4549471
0
LINE
8
layer1
10
2.0933615
20
7.7212316
11
2.1490994
21
7.5541242
0
LINE
8
layer1
10
2.1490994
20
7.5541242
11
2.1971559
21
7.3870919
0
LINE
8
layer1
10
2.1971559
20
7.3870919
11
2.2359403
21
7.2273106
0
LINE
8
layer1
10
2.2359403
20
7.2273106
11
2.2651089
21
7.0804512
0
LINE
8
layer1
10
2.2651089
20
7.0804512
11
2.2863626
21
6.9440296
0
LINE
8
layer1
10
2.2863626
20
6.9440296
11
2.300865
21
6.815876
0
LINE
8
layer1
10
2.300865
20
6.815876
11
2.3090801
21
6.6996962
0
LINE
8
layer1
10
2.3090801
20
6.6996962
11
2.3120809
21
6.5958058
0
LINE
8
layer1
10
2.3120809
20
6.5958058
11
2.3108196
21
6.5009271
0
LINE
8
layer1
10
2.3108196
20
6.5009271
11
2.2997441
21
6.351927
0
LINE
8
layer1
10
2.2997441
20
6.351927
11
2.2830238
21
6.2463125
0
LINE
8
layer1
10
2.2830238
20
6.2463125
11
2.2694365
21
6.1902565
0
LINE
8
layer1
10
2.2694365
20
6.1902565
11
2.2421517
21
6.1265234
0
LINE
8
layer1
10
2.2421517
20
6.1265234
11
2.2018284
21
6.0191674
0
LINE
8
layer1
10
2.2018284
20
6.0191674
11
2.174048
21
5.9195341
0
LINE
8
layer1
10
2.174048
20
5.9195341
11
2.1580781
21
5.8284534
0
LINE
8
layer1
10
2.1580781
20
5.8284534
11
2.1531374
21
5.7467232
0
LINE
8
layer1
10
2.1531374
20
5.7467232
11
2.1584052
21
5.6751052
0
LINE
8
layer1
10
2.1584052
20
5.6751052
11
2.1730125
21
5.6142841
0
LINE
8
layer1
10
2.1730125
20
5.6142841
11
2.1960597
21
5.5649042
0
LINE
8
layer1
10
2.1960597
20
5.5649042
11
2.2104488
21
5.5446779
0
LINE
8
layer1
10
2.2104488
20
5.5446779
11
2.2265992
21
5.5275326
0
LINE
8
layer1
10
2.2265992
20
5.5275326
11
2.2443712
21
5.5135244
0
LINE
8
layer1
10
2.2443712
20
5.5135244
11
2.2686899
21
5.5005034
0
LINE
8
layer1
10
2.2686899
20
5.5005034
11
2.4833151
21
5.4070236
0
LINE
8
layer1
10
2.4833151
20
5.4070236
11
2.5816082
21
5.3607648
0
LINE
8
layer1
10
2.5816082
20
5.3607648
11
2.6790596
21
5.312758
0
LINE
8
layer1
10
2.6790596
20
5.312758
11
2.8859617
21
5.203241
0
LINE
8
layer1
10
2.8859617
20
5.203241
11
2.9113044
21
5.1923463
0
LINE
8
layer1
10
2.9113044
20
5.1923463
11
2.9333372
21
5.1871856
0
LINE
8
layer1
10
2.9333372
20
5.1871856
11
2.9568115
21
5.1852486
0
LINE
8
layer1
10
2.9568115
20
5.1852486
11
2.9815964
21
5.1866096
0
LINE
8
layer1
10
2.9815964
20
5.1866096
11
3.034573
21
5.1993785
0
LINE
8
layer1
10
3.034573
20
5.1993785
11
3.0912323
21
5.2258793
0
LINE
8
layer1
10
3.0912323
20
5.2258793
11
3.1505099
21
5.2664139
0
LINE
8
layer1
10
3.1505099
20
5.2664139
11
3.2113287
21
5.3212346
0
LINE
8
layer1
10
3.2113287
20
5.3212346
11
3.2725813
21
5.3905083
0
LINE
8
layer1
10
3.2725813
20
5.3905083
11
3.333157
21
5.4743483
0
LINE
8
layer1
10
3.333157
20
5.4743483
11
3.3919501
21
5.5728096
0
LINE
8
layer1
10
3.3919501
20
5.5728096
11
3.4247669
21
5.6338787
0
LINE
8
layer1
10
3.4247669
20
5.6338787
11
3.4601217
21
5.679452
0
LINE
8
layer1
10
3.4601217
20
5.679452
11
3.5322695
21
5.758374
0
LINE
8
layer1
10
3.5322695
20
5.758374
11
3.641857
21
5.8599333
0
LINE
8
layer1
10
3.641857
20
5.8599333
11
3.7152498
21
5.9200753
0
LINE
8
layer1
10
3.7152498
20
5.9200753
11
3.7983456
21
5.9825037
0
LINE
8
layer1
10
3.7983456
20
5.9825037
11
3.8943006
21
6.0485179
0
LINE
8
layer1
10
3.8943006
20
6.0485179
11
4.0035372
21
6.1170819
0
LINE
8
layer1
10
4.0035372
20
6.1170819
11
4.1234473
21
6.1855226
0
LINE
8
layer1
10
4.1234473
20
6.1855226
11
4.256453
21
6.254283
0
LINE
8
layer1
10
4.256453
20
6.254283
11
4.4055567
21
6.3235821
0
LINE
8
layer1
10
4.4055567
20
6.3235821
11
4.5661106
21
6.390153
0
LINE
8
layer1
10
4.5661106
20
6.390153
11
4.7315124
21
6.4507651
0
ARC
8
layer1
10
-0.0000162
20
-0.0000207
40
8
50
49.1164843
51
53.740662
0
LINE
8
layer1
10
5.2361704
20
6.0483138
11
5.2138833
21
5.8735714
0
LINE
8
layer1
10
5.2138833
20
5.8735714
11
5.1847081
21
5.7022296
0
LINE
8
layer1
10
5.1847081
20
5.7022296
11
5.1503251
21
5.5414438
0
LINE
8
layer1
10
5.1503251
20
5.5414438
11
5.1128853
21
5.3964721
0
LINE
8
layer1
10
5.1128853
20
5.3964721
11
5.072843
21
5.2643389
0
LINE
8
layer1
10
5.072843
20
5.2643389
11
5.0303055
21
5.1425842
0
LINE
8
layer1
10
5.0303055
20
5.1425842
11
4.9872985
21
5.0343454
0
LINE
8
layer1
10
4.9872985
20
5.0343454
11
4.9449258
21
4.9394414
0
LINE
8
layer1
10
4.9449258
20
4.9394414
11
4.9026231
21
4.8545059
0
LINE
8
layer1
10
4.9026231
20
4.8545059
11
4.8279956
21
4.7250669
0
LINE
8
layer1
10
4.8279956
20
4.7250669
11
4.7671068
21
4.6371662
0
LINE
8
layer1
10
4.7671068
20
4.6371662
11
4.7305433
21
4.5925568
0
LINE
8
layer1
10
4.7305433
20
4.5925568
11
4.6783077
21
4.5469737
0
LINE
8
layer1
10
4.6783077
20
4.5469737
11
4.5953977
21
4.4677449
0
LINE
8
layer1
10
4.5953977
20
4.4677449
11
4.5271392
21
4.3900318
0
LINE
8
layer1
10
4.5271392
20
4.3900318
11
4.4732323
21
4.3149001
0
LINE
8
layer1
10
4.4732323
20
4.3149001
11
4.4333195
21
4.2434074
0
LINE
8
layer1
10
4.4333195
20
4.2434074
11
4.4069917
21
4.1765962
0
LINE
8
layer1
10
4.4069917
20
4.1765962
11
4.3937632
21
4.1154604
0
LINE
8
layer1
10
4.3937632
20
4.1154604
11
4.3931029
21
4.0609708
0
LINE
8
layer1
10
4.3931029
20
4.0609708
11
4.3972912
21
4.0365044
0
LINE
8
layer1
10
4.3972912
20
4.0365044
11
4.4044031
21
4.0140497
0
LINE
8
layer1
10
4.4044031
20
4.0140497
11
4.4143372
21
3.9937177
0
LINE
8
layer1
10
4.4143372
20
3.9937177
11
4.430598
21
3.9714347
0
LINE
8
layer1
10
4.430598
20
3.9714347
11
4.5834092
21
3.7940899
0
LINE
8
layer1
10
4.5834092
20
3.7940899
11
4.6518973
21
3.7097643
0
LINE
8
layer1
10
4.6518973
20
3.7097643
11
4.7188686
21
3.6242292
0
LINE
8
layer1
10
4.7188686
20
3.6242292
11
4.8577633
21
3.4357863
0
LINE
8
layer1
10
4.8577633
20
3.4357863
11
4.8758693
21
3.4149747
0
LINE
8
layer1
10
4.8758693
20
3.4149747
11
4.8934809
21
3.4007654
0
LINE
8
layer1
10
4.8934809
20
3.4007654
11
4.9137901
21
3.3888352
0
LINE
8
layer1
10
4.9137901
20
3.3888352
11
4.9367111
21
3.3793076
0
LINE
8
layer1
10
4.9367111
20
3.3793076
11
4.9899815
21
3.3678263
0
LINE
8
layer1
10
4.9899815
20
3.3678263
11
5.0525281
21
3.3671191
0
LINE
8
layer1
10
5.0525281
20
3.3671191
11
5.1235227
21
3.37792
0
LINE
8
layer1
10
5.1235227
20
3.37792
11
5.2021043
21
3.4009234
0
LINE
8
layer1
10
5.2021043
20
3.4009234
11
5.2873478
21
3.4367603
0
LINE
8
layer1
10
5.2873478
20
3.4367603
11
5.3783014
21
3.4860147
0
LINE
8
layer1
10
5.3783014
20
3.4860147
11
5.473993
21
3.549216
0
LINE
8
layer1
10
5.473993
20
3.549216
11
5.5300567
21
3.5899987
0
LINE
8
layer1
10
5.5300567
20
3.5899987
11
5.5816838
21
3.615719
0
LINE
8
layer1
10
5.5816838
20
3.615719
11
5.6809297
21
3.6555214
0
LINE
8
layer1
10
5.6809297
20
3.6555214
11
5.8237295
21
3.6994749
0
LINE
8
layer1
10
5.8237295
20
3.6994749
11
5.9159488
21
3.7218171
0
LINE
8
layer1
10
5.9159488
20
3.7218171
11
6.0179022
21
3.7420093
0
LINE
8
layer1
10
6.0179022
20
3.7420093
11
6.1329971
21
3.7598526
0
LINE
8
layer1
10
6.1329971
20
3.7598526
11
6.2611647
21
3.7742306
0
LINE
8
layer1
10
6.2611647
20
3.7742306
11
6.3988953
21
3.7838665
0
LINE
8
layer1
10
6.3988953
20
3.7838665
11
6.5485634
21
3.7881085
0
LINE
8
layer1
10
6.5485634
20
3.7881085
11
6.7129689
21
3.7858512
0
LINE
8
layer1
10
6.7129689
20
3.7858512
11
6.8865069
21
3.7761678
0
LINE
8
layer1
10
6.8865069
20
3.7761678
11
7.0618275
21
3.7590122
0
ARC
8
layer1
10
-0.0000239
20
-0.0000109
40
8
50
23.4021927
51
28.0263703
0
LINE
8
layer1
10
7.3418915
20
3.1774532
11
7.2459937
21
3.0296858
0
ENDSEC
0
EOF