<?xml version="1.0" encoding="UTF-8" standalone="no"?>
<!-- Created with Inkscape (http://www.inkscape.org/) -->

<svg
   width="210mm"
   height="297mm"
   viewBox="0 0 210 297"
   version="1.1"
   id="svg990"
   xml:space="preserve"
   inkscape:version="1.2 (dc2aedaf03, 2022-05-15)"
   sodipodi:docname="Pedestal all covers.svg"
   xmlns:inkscape="http://www.inkscape.org/namespaces/inkscape"
   xmlns:sodipodi="http://sodipodi.sourceforge.net/DTD/sodipodi-0.dtd"
   xmlns="http://www.w3.org/2000/svg"
   xmlns:svg="http://www.w3.org/2000/svg"><sodipodi:namedview
     id="namedview992"
     pagecolor="#ffffff"
     bordercolor="#666666"
     borderopacity="1.0"
     inkscape:showpageshadow="2"
     inkscape:pageopacity="0.0"
     inkscape:pagecheckerboard="0"
     inkscape:deskcolor="#d1d1d1"
     inkscape:document-units="mm"
     showgrid="false"
     inkscape:zoom="0.2973261"
     inkscape:cx="-1069.5327"
     inkscape:cy="420.41381"
     inkscape:window-width="1920"
     inkscape:window-height="1017"
     inkscape:window-x="-8"
     inkscape:window-y="-8"
     inkscape:window-maximized="1"
     inkscape:current-layer="layer1" /><defs
     id="defs987"><marker
       id="DistanceX"
       orient="auto"
       refX="0.0"
       refY="0.0"
       style="overflow:visible"><path
         d="M 3,-3 L -3,3 M 0,-5 L  0,5"
         style="stroke:#000000; stroke-width:0.5"
         id="path1113" /></marker><pattern
       id="Hatch"
       patternUnits="userSpaceOnUse"
       width="8"
       height="8"
       x="0"
       y="0"><path
         d="M8 4 l-4,4"
         stroke="#000000"
         stroke-width="0.25"
         linecap="square"
         id="path1116" /><path
         d="M6 2 l-4,4"
         stroke="#000000"
         stroke-width="0.25"
         linecap="square"
         id="path1118" /><path
         d="M4 0 l-4,4"
         stroke="#000000"
         stroke-width="0.25"
         linecap="square"
         id="path1120" /></pattern><symbol
       id="*MODEL_SPACE" /><symbol
       id="*PAPER_SPACE" /><marker
       id="DistanceX-7"
       orient="auto"
       refX="0.0"
       refY="0.0"
       style="overflow:visible"><path
         d="M 3,-3 L -3,3 M 0,-5 L  0,5"
         style="stroke:#000000; stroke-width:0.5"
         id="path1165" /></marker><pattern
       id="Hatch-6"
       patternUnits="userSpaceOnUse"
       width="8"
       height="8"
       x="0"
       y="0"><path
         d="M8 4 l-4,4"
         stroke="#000000"
         stroke-width="0.25"
         linecap="square"
         id="path1168" /><path
         d="M6 2 l-4,4"
         stroke="#000000"
         stroke-width="0.25"
         linecap="square"
         id="path1170" /><path
         d="M4 0 l-4,4"
         stroke="#000000"
         stroke-width="0.25"
         linecap="square"
         id="path1172" /></pattern><symbol
       id="*MODEL_SPACE-6" /><symbol
       id="*PAPER_SPACE-7" /><marker
       id="DistanceX-4"
       orient="auto"
       refX="0.0"
       refY="0.0"
       style="overflow:visible"><path
         d="M 3,-3 L -3,3 M 0,-5 L  0,5"
         style="stroke:#000000; stroke-width:0.5"
         id="path1223" /></marker><pattern
       id="Hatch-8"
       patternUnits="userSpaceOnUse"
       width="8"
       height="8"
       x="0"
       y="0"><path
         d="M8 4 l-4,4"
         stroke="#000000"
         stroke-width="0.25"
         linecap="square"
         id="path1226" /><path
         d="M6 2 l-4,4"
         stroke="#000000"
         stroke-width="0.25"
         linecap="square"
         id="path1228" /><path
         d="M4 0 l-4,4"
         stroke="#000000"
         stroke-width="0.25"
         linecap="square"
         id="path1230" /></pattern><symbol
       id="*MODEL_SPACE-1" /><symbol
       id="*PAPER_SPACE-3" /></defs><g
     inkscape:label="Layer 1"
     inkscape:groupmode="layer"
     id="layer1"><g
       inkscape:label="0"
       id="g1137"
       transform="matrix(0.26458333,0,0,0.26458333,105,-187.37584)"><path
         d="m -259.04126,1500.3449 a 6.614175,6.614175 0 0 0 -13.22835,0 6.614175,6.614175 0 0 0 13.22835,0 z"
         style="fill:none;stroke:#000000"
         id="path1127" /><path
         d="m -259.04126,2006.5079 a 6.614175,6.614175 0 0 0 -13.22835,0 6.614175,6.614175 0 0 0 13.22835,0 z"
         style="fill:none;stroke:#000000"
         id="path1129" /><path
         d="m 272.26961,2006.5079 a 6.614175,6.614175 0 0 0 -13.22835,0 6.614175,6.614175 0 0 0 13.22835,0 z"
         style="fill:none;stroke:#000000"
         id="path1131" /><path
         d="m 272.26961,1500.3449 a 6.614175,6.614175 0 0 0 -13.22835,0 6.614175,6.614175 0 0 0 13.22835,0 z"
         style="fill:none;stroke:#000000"
         id="path1133" /><path
         d="m -294.00189,2034.8544 h 588.00378 v -562.856 h -588.00378 z"
         style="fill:none;stroke:#000000"
         id="path1135" /></g><g
       inkscape:label="0"
       id="g1189"
       transform="matrix(0.26458333,0,0,0.26458333,105,-321.23177)"><path
         d="m -259.04126,1393.1953 a 6.614175,6.614175 0 0 0 -13.22835,0 6.614175,6.614175 0 0 0 13.22835,0 z"
         style="fill:none;stroke:#000000"
         id="path1179" /><path
         d="m 272.26961,1393.1953 a 6.614175,6.614175 0 0 0 -13.22835,0 6.614175,6.614175 0 0 0 13.22835,0 z"
         style="fill:none;stroke:#000000"
         id="path1181" /><path
         d="m -259.04126,1948.5641 a 6.614175,6.614175 0 0 0 -13.22835,0 6.614175,6.614175 0 0 0 13.22835,0 z"
         style="fill:none;stroke:#000000"
         id="path1183" /><path
         d="m 272.26961,1948.5641 a 6.614175,6.614175 0 0 0 -13.22835,0 6.614175,6.614175 0 0 0 13.22835,0 z"
         style="fill:none;stroke:#000000"
         id="path1185" /><path
         d="M -294.00189,1976.9106 H 294.00189 V 1364.8488 H -294.00189 Z"
         style="fill:none;stroke:#000000"
         id="path1187" /></g><g
       inkscape:label="0"
       id="g1247"
       transform="matrix(0.26458333,0,0,0.26458333,105,-767.69796)"><path
         d="m -259.04126,2630.1478 a 6.614175,6.614175 0 0 0 -13.22835,0 6.614175,6.614175 0 0 0 13.22835,0 z"
         style="fill:none;stroke:#000000"
         id="path1237" /><path
         d="m -259.04126,3022.9337 a 6.614175,6.614175 0 0 0 -13.22835,0 6.614175,6.614175 0 0 0 13.22835,0 z"
         style="fill:none;stroke:#000000"
         id="path1239" /><path
         d="m 272.26961,2630.1478 a 6.614175,6.614175 0 0 0 -13.22835,0 6.614175,6.614175 0 0 0 13.22835,0 z"
         style="fill:none;stroke:#000000"
         id="path1241" /><path
         d="m 272.26961,3022.9337 a 6.614175,6.614175 0 0 0 -13.22835,0 6.614175,6.614175 0 0 0 13.22835,0 z"
         style="fill:none;stroke:#000000"
         id="path1243" /><path
         d="M -294.00189,3051.2801 H 294.00189 V 2605.5809 H -294.00189 Z"
         style="fill:none;stroke:#000000"
         id="path1245" /></g></g></svg>
