<?xml version="1.0" encoding="UTF-8" standalone="no"?>
<!-- Created with Inkscape (http://www.inkscape.org/) -->

<svg
   width="210mm"
   height="297mm"
   viewBox="0 0 210 297"
   version="1.1"
   id="svg1380"
   xml:space="preserve"
   inkscape:version="1.2 (dc2aedaf03, 2022-05-15)"
   sodipodi:docname="Pedestal Covers Filled.svg"
   xmlns:inkscape="http://www.inkscape.org/namespaces/inkscape"
   xmlns:sodipodi="http://sodipodi.sourceforge.net/DTD/sodipodi-0.dtd"
   xmlns="http://www.w3.org/2000/svg"
   xmlns:svg="http://www.w3.org/2000/svg"><sodipodi:namedview
     id="namedview1382"
     pagecolor="#ffffff"
     bordercolor="#666666"
     borderopacity="1.0"
     inkscape:showpageshadow="2"
     inkscape:pageopacity="0.0"
     inkscape:pagecheckerboard="0"
     inkscape:deskcolor="#d1d1d1"
     inkscape:document-units="mm"
     showgrid="false"
     inkscape:zoom="0.4204826"
     inkscape:cx="225.93087"
     inkscape:cy="882.3195"
     inkscape:window-width="1920"
     inkscape:window-height="1017"
     inkscape:window-x="-8"
     inkscape:window-y="-8"
     inkscape:window-maximized="1"
     inkscape:current-layer="layer1" /><defs
     id="defs1377"><marker
       id="DistanceX"
       orient="auto"
       refX="0.0"
       refY="0.0"
       style="overflow:visible"><path
         d="M 3,-3 L -3,3 M 0,-5 L  0,5"
         style="stroke:#000000; stroke-width:0.5"
         id="path1503" /></marker><pattern
       id="Hatch"
       patternUnits="userSpaceOnUse"
       width="8"
       height="8"
       x="0"
       y="0"><path
         d="M8 4 l-4,4"
         stroke="#000000"
         stroke-width="0.25"
         linecap="square"
         id="path1506" /><path
         d="M6 2 l-4,4"
         stroke="#000000"
         stroke-width="0.25"
         linecap="square"
         id="path1508" /><path
         d="M4 0 l-4,4"
         stroke="#000000"
         stroke-width="0.25"
         linecap="square"
         id="path1510" /></pattern><symbol
       id="*MODEL_SPACE" /><symbol
       id="*PAPER_SPACE" /><marker
       id="DistanceX-1"
       orient="auto"
       refX="0.0"
       refY="0.0"
       style="overflow:visible"><path
         d="M 3,-3 L -3,3 M 0,-5 L  0,5"
         style="stroke:#000000; stroke-width:0.5"
         id="path1573" /></marker><pattern
       id="Hatch-5"
       patternUnits="userSpaceOnUse"
       width="8"
       height="8"
       x="0"
       y="0"><path
         d="M8 4 l-4,4"
         stroke="#000000"
         stroke-width="0.25"
         linecap="square"
         id="path1576" /><path
         d="M6 2 l-4,4"
         stroke="#000000"
         stroke-width="0.25"
         linecap="square"
         id="path1578" /><path
         d="M4 0 l-4,4"
         stroke="#000000"
         stroke-width="0.25"
         linecap="square"
         id="path1580" /></pattern><symbol
       id="*MODEL_SPACE-0" /><symbol
       id="*PAPER_SPACE-9" /><marker
       id="DistanceX-14"
       orient="auto"
       refX="0.0"
       refY="0.0"
       style="overflow:visible"><path
         d="M 3,-3 L -3,3 M 0,-5 L  0,5"
         style="stroke:#000000; stroke-width:0.5"
         id="path1649" /></marker><pattern
       id="Hatch-9"
       patternUnits="userSpaceOnUse"
       width="8"
       height="8"
       x="0"
       y="0"><path
         d="M8 4 l-4,4"
         stroke="#000000"
         stroke-width="0.25"
         linecap="square"
         id="path1652" /><path
         d="M6 2 l-4,4"
         stroke="#000000"
         stroke-width="0.25"
         linecap="square"
         id="path1654" /><path
         d="M4 0 l-4,4"
         stroke="#000000"
         stroke-width="0.25"
         linecap="square"
         id="path1656" /></pattern><symbol
       id="*MODEL_SPACE-1" /><symbol
       id="*PAPER_SPACE-3" /></defs><g
     inkscape:label="Layer 1"
     inkscape:groupmode="layer"
     id="layer1"><g
       inkscape:label="0"
       id="g1539"
       transform="matrix(0.26458333,0,0,0.26458333,79.502083,-215.8925)"><path
         d="m -226.27087,1326.7464 h -19.588 a 11.338583,11.338583 0 0 1 -11.33859,-11.3386 v -237.5347 a 11.338583,11.338583 0 0 1 11.33859,-11.3386 h 19.588 V 870.23622 a 33.07087,33.07087 0 0 1 66.14174,0 v 555.59058 a 33.07087,33.07087 0 0 1 -66.14174,0 z"
         style="fill:none;stroke:#000000"
         id="path1517" /><path
         d="m -248.98583,1035.2795 a 5.480315,5.480315 0 0 0 -10.96063,0 5.480315,5.480315 0 0 0 10.96063,0 z"
         style="fill:none;stroke:#000000"
         id="path1519" /><path
         d="m -248.98583,1357.3505 a 5.480315,5.480315 0 0 0 -10.96063,0 5.480315,5.480315 0 0 0 10.96063,0 z"
         style="fill:none;stroke:#000000"
         id="path1521" /><path
         d="M 294,1428.5677 V 816.47168 h -588 v 687.68652 h 160.62992 v -75.5905 z"
         style="fill:none;stroke:#000000"
         id="path1523" /><path
         d="m 5.480315,1092.5677 a 5.480315,5.480315 0 0 0 -10.96063,0 5.480315,5.480315 0 0 0 10.96063,0 z"
         style="fill:none;stroke:#000000"
         id="path1525" /><path
         d="m 5.480315,1284.5677 a 5.480315,5.480315 0 0 0 -10.96063,0 5.480315,5.480315 0 0 0 10.96063,0 z"
         style="fill:none;stroke:#000000"
         id="path1527" /><path
         d="m 5.480315,1188.5677 a 5.480315,5.480315 0 0 0 -10.96063,0 5.480315,5.480315 0 0 0 10.96063,0 z"
         style="fill:none;stroke:#000000"
         id="path1529" /><path
         d="m -259.98425,844.81814 a 5.6692915,5.6692915 0 0 0 -11.33858,0 5.6692915,5.6692915 0 0 0 11.33858,0 z"
         style="fill:none;stroke:#000000"
         id="path1531" /><path
         d="m -259.98425,1400.2212 a 5.6692915,5.6692915 0 0 0 -11.33858,0 5.6692915,5.6692915 0 0 0 11.33858,0 z"
         style="fill:none;stroke:#000000"
         id="path1533" /><path
         d="m 271.32283,844.81814 a 5.6692915,5.6692915 0 0 0 -11.33858,0 5.6692915,5.6692915 0 0 0 11.33858,0 z"
         style="fill:none;stroke:#000000"
         id="path1535" /><path
         d="m 271.32283,1400.2212 a 5.6692915,5.6692915 0 0 0 -11.33858,0 5.6692915,5.6692915 0 0 0 11.33858,0 z"
         style="fill:none;stroke:#000000"
         id="path1537" /></g><g
       inkscape:label="0"
       id="g1609"
       transform="matrix(0.26458333,0,0,0.26458333,79.502083,-60.917312)"><path
         d="m 46.913386,1184.8819 a 5.6692915,5.6692915 0 0 0 -11.338583,0 5.6692915,5.6692915 0 0 0 11.338583,0 z"
         style="fill:none;stroke:#000000"
         id="path1587" /><path
         d="m -241.08661,1184.8819 a 5.669295,5.669295 0 0 0 -11.33859,0 5.669295,5.669295 0 0 0 11.33859,0 z"
         style="fill:none;stroke:#000000"
         id="path1589" /><path
         d="m -259.98425,1373.8583 a 5.6692915,5.6692915 0 0 0 -11.33858,0 5.6692915,5.6692915 0 0 0 11.33858,0 z"
         style="fill:none;stroke:#000000"
         id="path1591" /><path
         d="m 13.739471,1143.3937 v 82.9764 H -219.25128 v -82.9764 z"
         style="fill:none;stroke:#000000"
         id="path1593" /><path
         d="m 271.32283,871.1811 a 5.6692915,5.6692915 0 0 0 -11.33858,0 5.6692915,5.6692915 0 0 0 11.33858,0 z"
         style="fill:none;stroke:#000000"
         id="path1595" /><path
         d="m 142.8189,1184.8819 a 28.346458,28.346458 0 0 0 -56.692916,0 28.346458,28.346458 0 0 0 56.692916,0 z"
         style="fill:none;stroke:#000000"
         id="path1597" /><path
         d="m -150.37795,1052.5984 a 11.338585,11.338585 0 0 0 -22.67717,0 11.338585,11.338585 0 0 0 22.67717,0 z"
         style="fill:none;stroke:#000000"
         id="path1599" /><path
         d="m 271.32283,1373.8583 a 5.6692915,5.6692915 0 0 0 -11.33858,0 5.6692915,5.6692915 0 0 0 11.33858,0 z"
         style="fill:none;stroke:#000000"
         id="path1601" /><path
         d="m -259.98425,946.77165 a 5.6692915,5.6692915 0 0 0 -11.33858,0 5.6692915,5.6692915 0 0 0 11.33858,0 z"
         style="fill:none;stroke:#000000"
         id="path1603" /><path
         d="M -133.37008,918.4252 H -294 v 483.7795 H 294 V 842.83465 h -427.37008 z"
         style="fill:none;stroke:#000000"
         id="path1605" /><path
         d="m -52.086614,1032.6946 a 54.047244,54.047244 0 0 0 102,0 v -35.78292 a 54.047244,54.047244 0 0 0 -102,0 z"
         style="fill:none;stroke:#000000"
         id="path1607" /></g><g
       inkscape:label="0"
       id="g1675"
       transform="matrix(-0.26458333,0,0,-0.26458333,79.501583,666.30976)"><path
         d="m -259.04126,928.01575 a 6.614175,6.614175 0 0 0 -13.22835,0 6.614175,6.614175 0 0 0 13.22835,0 z"
         style="fill:none;stroke:#000000"
         id="path1663" /><path
         d="m 70.866142,1126.2992 a 23.622048,23.622048 0 0 0 -47.244095,0 23.622048,23.622048 0 0 0 47.244095,0 z"
         style="fill:none;stroke:#000000"
         id="path1665" /><path
         d="m -259.04126,1317.0236 a 6.614175,6.614175 0 0 0 -13.22835,0 6.614175,6.614175 0 0 0 13.22835,0 z"
         style="fill:none;stroke:#000000"
         id="path1667" /><path
         d="m 272.26961,1317.0236 a 6.614175,6.614175 0 0 0 -13.22835,0 6.614175,6.614175 0 0 0 13.22835,0 z"
         style="fill:none;stroke:#000000"
         id="path1669" /><path
         d="m 272.26961,928.01575 a 6.614175,6.614175 0 0 0 -13.22835,0 6.614175,6.614175 0 0 0 13.22835,0 z"
         style="fill:none;stroke:#000000"
         id="path1671" /><path
         d="M -294.00189,899.66929 V 1345.3701 H 294.00189 V 899.66929 Z"
         style="fill:none;stroke:#000000"
         id="path1673" /></g></g></svg>
