999
"DXF R12 Output" (www.mydxf.blogspot.com)
 0 
SECTION
 2 
HEADER
 9 
$ACADVER
 1 
AC1009
 9 
$EXTMIN
 10 
 0 
 20 
 0 
 9 
$EXTMAX
 10 
 8.5 
 20 
 11 
 0 
ENDSEC
 0 
SECTION
 2 
ENTITIES
0
LINE
8
Layer 1
10
0.793749
20
297.794000
11
-0.793749
21
296.206000
0
LINE
8
Layer 1
10
0.000000
20
298.323000
11
0.000000
21
295.677000
0
LINE
8
Layer 1
10
2.116660
20
295.942000
11
1.058330
21
294.883670
0
LINE
8
Layer 1
10
1.587500
20
296.471000
11
0.529170
21
295.412670
0
LINE
8
Layer 1
10
1.058330
20
297.000000
11
0.000000
21
295.941670
0
LINE
8
0
10
-59.867400
20
-54.034500
11
-65.050100
21
-54.034500
0
LINE
8
0
10
-65.050100
20
-54.034500
11
-66.198150
21
-53.806139
0
LINE
8
0
10
-66.198150
20
-53.806139
11
-67.171420
21
-53.155820
0
LINE
8
0
10
-67.171420
20
-53.155820
11
-67.821739
21
-52.182550
0
LINE
8
0
10
-67.821739
20
-52.182550
11
-68.050100
21
-51.034500
0
LINE
8
0
10
-68.050100
20
-51.034500
11
-68.050100
21
11.813100
0
LINE
8
0
10
-68.050100
20
11.813100
11
-67.821739
21
12.961150
0
LINE
8
0
10
-67.821739
20
12.961150
11
-67.171420
21
13.934420
0
LINE
8
0
10
-67.171420
20
13.934420
11
-66.198150
21
14.584739
0
LINE
8
0
10
-66.198150
20
14.584739
11
-65.050100
21
14.813100
0
LINE
8
0
10
-65.050100
20
14.813100
11
-59.867400
21
14.813100
0
LINE
8
0
10
-59.867400
20
14.813100
11
-59.867400
21
66.750300
0
LINE
8
0
10
-59.867400
20
66.750300
11
-59.790448
21
67.909320
0
LINE
8
0
10
-59.790448
20
67.909320
11
-59.564509
21
69.033327
0
LINE
8
0
10
-59.564509
20
69.033327
11
-58.695115
21
71.125295
0
LINE
8
0
10
-58.695115
20
71.125295
11
-57.318112
21
72.924194
0
LINE
8
0
10
-57.318112
20
72.924194
11
-56.457662
21
73.681864
0
LINE
8
0
10
-56.457662
20
73.681864
11
-55.492395
21
74.328014
0
LINE
8
0
10
-55.492395
20
74.328014
11
-54.450180
21
74.840885
0
LINE
8
0
10
-54.450180
20
74.840885
11
-53.363793
21
75.207221
0
LINE
8
0
10
-53.363793
20
75.207221
11
-51.117400
21
75.500290
0
LINE
8
0
10
-51.117400
20
75.500290
11
-48.871007
21
75.207221
0
LINE
8
0
10
-48.871007
20
75.207221
11
-47.784620
21
74.840885
0
LINE
8
0
10
-47.784620
20
74.840885
11
-46.742405
21
74.328014
0
LINE
8
0
10
-46.742405
20
74.328014
11
-45.777138
21
73.681864
0
LINE
8
0
10
-45.777138
20
73.681864
11
-44.916688
21
72.924194
0
LINE
8
0
10
-44.916688
20
72.924194
11
-43.539686
21
71.125295
0
LINE
8
0
10
-43.539686
20
71.125295
11
-42.670295
21
69.033327
0
LINE
8
0
10
-42.670295
20
69.033327
11
-42.444358
21
67.909320
0
LINE
8
0
10
-42.444358
20
67.909320
11
-42.367410
21
66.750300
0
LINE
8
0
10
-42.367410
20
66.750300
11
-42.367400
21
-80.249500
0
LINE
8
0
10
-42.367400
20
-80.249500
11
-42.444352
21
-81.408520
0
LINE
8
0
10
-42.444352
20
-81.408520
11
-42.670291
21
-82.532527
0
LINE
8
0
10
-42.670291
20
-82.532527
11
-43.539685
21
-84.624495
0
LINE
8
0
10
-43.539685
20
-84.624495
11
-44.916688
21
-86.423394
0
LINE
8
0
10
-44.916688
20
-86.423394
11
-45.777138
21
-87.181064
0
LINE
8
0
10
-45.777138
20
-87.181064
11
-46.742405
21
-87.827214
0
LINE
8
0
10
-46.742405
20
-87.827214
11
-47.784620
21
-88.340085
0
LINE
8
0
10
-47.784620
20
-88.340085
11
-48.871007
21
-88.706421
0
LINE
8
0
10
-48.871007
20
-88.706421
11
-51.117400
21
-88.999490
0
LINE
8
0
10
-51.117400
20
-88.999490
11
-53.363793
21
-88.706421
0
LINE
8
0
10
-53.363793
20
-88.706421
11
-54.450180
21
-88.340085
0
LINE
8
0
10
-54.450180
20
-88.340085
11
-55.492395
21
-87.827214
0
LINE
8
0
10
-55.492395
20
-87.827214
11
-56.457662
21
-87.181064
0
LINE
8
0
10
-56.457662
20
-87.181064
11
-57.318112
21
-86.423394
0
LINE
8
0
10
-57.318112
20
-86.423394
11
-58.695114
21
-84.624495
0
LINE
8
0
10
-58.695114
20
-84.624495
11
-59.564505
21
-82.532527
0
LINE
8
0
10
-59.564505
20
-82.532527
11
-59.790442
21
-81.408520
0
LINE
8
0
10
-59.790442
20
-81.408520
11
-59.867390
21
-80.249500
0
LINE
8
0
10
-59.867390
20
-80.249500
11
-59.867400
21
-54.034500
0
LINE
8
0
10
-59.867400
20
-54.034500
11
-59.867400
21
-54.034500
0
LINE
8
0
10
-65.877400
20
23.082700
11
-66.071663
21
23.807700
0
LINE
8
0
10
-66.071663
20
23.807700
11
-66.602400
21
24.338437
0
LINE
8
0
10
-66.602400
20
24.338437
11
-67.327400
21
24.532700
0
LINE
8
0
10
-67.327400
20
24.532700
11
-68.052400
21
24.338437
0
LINE
8
0
10
-68.052400
20
24.338437
11
-68.583137
21
23.807700
0
LINE
8
0
10
-68.583137
20
23.807700
11
-68.777400
21
23.082700
0
LINE
8
0
10
-68.777400
20
23.082700
11
-68.583137
21
22.357700
0
LINE
8
0
10
-68.583137
20
22.357700
11
-68.052400
21
21.826963
0
LINE
8
0
10
-68.052400
20
21.826963
11
-67.327400
21
21.632700
0
LINE
8
0
10
-67.327400
20
21.632700
11
-66.602400
21
21.826963
0
LINE
8
0
10
-66.602400
20
21.826963
11
-66.071663
21
22.357700
0
LINE
8
0
10
-66.071663
20
22.357700
11
-65.877400
21
23.082700
0
LINE
8
0
10
-65.877400
20
23.082700
11
-65.877400
21
23.082700
0
LINE
8
0
10
-65.877400
20
-62.131900
11
-66.071663
21
-61.406900
0
LINE
8
0
10
-66.071663
20
-61.406900
11
-66.602400
21
-60.876163
0
LINE
8
0
10
-66.602400
20
-60.876163
11
-67.327400
21
-60.681900
0
LINE
8
0
10
-67.327400
20
-60.681900
11
-68.052400
21
-60.876163
0
LINE
8
0
10
-68.052400
20
-60.876163
11
-68.583137
21
-61.406900
0
LINE
8
0
10
-68.583137
20
-61.406900
11
-68.777400
21
-62.131900
0
LINE
8
0
10
-68.777400
20
-62.131900
11
-68.583137
21
-62.856900
0
LINE
8
0
10
-68.583137
20
-62.856900
11
-68.052400
21
-63.387637
0
LINE
8
0
10
-68.052400
20
-63.387637
11
-67.327400
21
-63.581900
0
LINE
8
0
10
-67.327400
20
-63.581900
11
-66.602400
21
-63.387637
0
LINE
8
0
10
-66.602400
20
-63.387637
11
-66.071663
21
-62.856900
0
LINE
8
0
10
-66.071663
20
-62.856900
11
-65.877400
21
-62.131900
0
LINE
8
0
10
-65.877400
20
-62.131900
11
-65.877400
21
-62.131900
0
LINE
8
0
10
77.787400
20
-80.974700
11
77.787400
21
80.975500
0
LINE
8
0
10
77.787400
20
80.975500
11
-77.787400
21
80.975500
0
LINE
8
0
10
-77.787400
20
80.975500
11
-77.787400
21
-100.975000
0
LINE
8
0
10
-77.787400
20
-100.975000
11
-35.287500
21
-100.975000
0
LINE
8
0
10
-35.287500
20
-100.975000
11
-35.287500
21
-80.974700
0
LINE
8
0
10
-35.287500
20
-80.974700
11
77.787400
21
-80.974700
0
LINE
8
0
10
77.787400
20
-80.974700
11
77.787400
21
-80.974700
0
LINE
8
0
10
71.787400
20
-73.474700
11
71.586438
21
-72.724700
0
LINE
8
0
10
71.586438
20
-72.724700
11
71.037400
21
-72.175662
0
LINE
8
0
10
71.037400
20
-72.175662
11
70.287400
21
-71.974700
0
LINE
8
0
10
70.287400
20
-71.974700
11
69.537400
21
-72.175662
0
LINE
8
0
10
69.537400
20
-72.175662
11
68.988362
21
-72.724700
0
LINE
8
0
10
68.988362
20
-72.724700
11
68.787400
21
-73.474700
0
LINE
8
0
10
68.787400
20
-73.474700
11
68.988362
21
-74.224700
0
LINE
8
0
10
68.988362
20
-74.224700
11
69.537400
21
-74.773738
0
LINE
8
0
10
69.537400
20
-74.773738
11
70.287400
21
-74.974700
0
LINE
8
0
10
70.287400
20
-74.974700
11
71.037400
21
-74.773738
0
LINE
8
0
10
71.037400
20
-74.773738
11
71.586438
21
-74.224700
0
LINE
8
0
10
71.586438
20
-74.224700
11
71.787400
21
-73.474700
0
LINE
8
0
10
71.787400
20
-73.474700
11
71.787400
21
-73.474700
0
LINE
8
0
10
-68.787400
20
-73.474700
11
-68.988362
21
-72.724700
0
LINE
8
0
10
-68.988362
20
-72.724700
11
-69.537400
21
-72.175662
0
LINE
8
0
10
-69.537400
20
-72.175662
11
-70.287400
21
-71.974700
0
LINE
8
0
10
-70.287400
20
-71.974700
11
-71.037400
21
-72.175662
0
LINE
8
0
10
-71.037400
20
-72.175662
11
-71.586438
21
-72.724700
0
LINE
8
0
10
-71.586438
20
-72.724700
11
-71.787400
21
-73.474700
0
LINE
8
0
10
-71.787400
20
-73.474700
11
-71.669523
21
-74.058568
0
LINE
8
0
10
-71.669523
20
-74.058568
11
-71.348060
21
-74.535360
0
LINE
8
0
10
-71.348060
20
-74.535360
11
-70.871268
21
-74.856822
0
LINE
8
0
10
-70.871268
20
-74.856822
11
-70.287400
21
-74.974700
0
LINE
8
0
10
-70.287400
20
-74.974700
11
-69.703532
21
-74.856822
0
LINE
8
0
10
-69.703532
20
-74.856822
11
-69.226740
21
-74.535360
0
LINE
8
0
10
-69.226740
20
-74.535360
11
-68.905277
21
-74.058568
0
LINE
8
0
10
-68.905277
20
-74.058568
11
-68.787400
21
-73.474700
0
LINE
8
0
10
-68.787400
20
-73.474700
11
-68.787400
21
-73.474700
0
LINE
8
0
10
71.787400
20
73.475500
11
71.586438
21
74.225500
0
LINE
8
0
10
71.586438
20
74.225500
11
71.037400
21
74.774538
0
LINE
8
0
10
71.037400
20
74.774538
11
70.287400
21
74.975500
0
LINE
8
0
10
70.287400
20
74.975500
11
69.537400
21
74.774538
0
LINE
8
0
10
69.537400
20
74.774538
11
68.988362
21
74.225500
0
LINE
8
0
10
68.988362
20
74.225500
11
68.787400
21
73.475500
0
LINE
8
0
10
68.787400
20
73.475500
11
68.988362
21
72.725500
0
LINE
8
0
10
68.988362
20
72.725500
11
69.537400
21
72.176462
0
LINE
8
0
10
69.537400
20
72.176462
11
70.287400
21
71.975500
0
LINE
8
0
10
70.287400
20
71.975500
11
71.037400
21
72.176462
0
LINE
8
0
10
71.037400
20
72.176462
11
71.586438
21
72.725500
0
LINE
8
0
10
71.586438
20
72.725500
11
71.787400
21
73.475500
0
LINE
8
0
10
71.787400
20
73.475500
11
71.787400
21
73.475500
0
LINE
8
0
10
1.450000
20
7.925160
11
1.255737
21
8.650160
0
LINE
8
0
10
1.255737
20
8.650160
11
0.725000
21
9.180897
0
LINE
8
0
10
0.725000
20
9.180897
11
0.000000
21
9.375160
0
LINE
8
0
10
0.000000
20
9.375160
11
-0.725000
21
9.180897
0
LINE
8
0
10
-0.725000
20
9.180897
11
-1.255737
21
8.650160
0
LINE
8
0
10
-1.255737
20
8.650160
11
-1.450000
21
7.925160
0
LINE
8
0
10
-1.450000
20
7.925160
11
-1.255737
21
7.200160
0
LINE
8
0
10
-1.255737
20
7.200160
11
-0.725000
21
6.669423
0
LINE
8
0
10
-0.725000
20
6.669423
11
-0.000000
21
6.475160
0
LINE
8
0
10
-0.000000
20
6.475160
11
0.725000
21
6.669423
0
LINE
8
0
10
0.725000
20
6.669423
11
1.255737
21
7.200160
0
LINE
8
0
10
1.255737
20
7.200160
11
1.450000
21
7.925160
0
LINE
8
0
10
1.450000
20
7.925160
11
1.450000
21
7.925160
0
LINE
8
0
10
1.450000
20
-42.874800
11
1.255737
21
-42.149800
0
LINE
8
0
10
1.255737
20
-42.149800
11
0.725000
21
-41.619063
0
LINE
8
0
10
0.725000
20
-41.619063
11
0.000000
21
-41.424800
0
LINE
8
0
10
0.000000
20
-41.424800
11
-0.725000
21
-41.619063
0
LINE
8
0
10
-0.725000
20
-41.619063
11
-1.255737
21
-42.149800
0
LINE
8
0
10
-1.255737
20
-42.149800
11
-1.450000
21
-42.874800
0
LINE
8
0
10
-1.450000
20
-42.874800
11
-1.255737
21
-43.599800
0
LINE
8
0
10
-1.255737
20
-43.599800
11
-0.725000
21
-44.130537
0
LINE
8
0
10
-0.725000
20
-44.130537
11
-0.000000
21
-44.324800
0
LINE
8
0
10
-0.000000
20
-44.324800
11
0.725000
21
-44.130537
0
LINE
8
0
10
0.725000
20
-44.130537
11
1.255737
21
-43.599800
0
LINE
8
0
10
1.255737
20
-43.599800
11
1.450000
21
-42.874800
0
LINE
8
0
10
1.450000
20
-42.874800
11
1.450000
21
-42.874800
0
LINE
8
0
10
1.450000
20
-17.474800
11
1.255737
21
-16.749800
0
LINE
8
0
10
1.255737
20
-16.749800
11
0.725000
21
-16.219063
0
LINE
8
0
10
0.725000
20
-16.219063
11
0.000000
21
-16.024800
0
LINE
8
0
10
0.000000
20
-16.024800
11
-0.725000
21
-16.219063
0
LINE
8
0
10
-0.725000
20
-16.219063
11
-1.255737
21
-16.749800
0
LINE
8
0
10
-1.255737
20
-16.749800
11
-1.450000
21
-17.474800
0
LINE
8
0
10
-1.450000
20
-17.474800
11
-1.255737
21
-18.199800
0
LINE
8
0
10
-1.255737
20
-18.199800
11
-0.725000
21
-18.730537
0
LINE
8
0
10
-0.725000
20
-18.730537
11
-0.000000
21
-18.924800
0
LINE
8
0
10
-0.000000
20
-18.924800
11
0.725000
21
-18.730537
0
LINE
8
0
10
0.725000
20
-18.730537
11
1.255737
21
-18.199800
0
LINE
8
0
10
1.255737
20
-18.199800
11
1.450000
21
-17.474800
0
LINE
8
0
10
1.450000
20
-17.474800
11
1.450000
21
-17.474800
0
LINE
8
0
10
-68.787400
20
73.475500
11
-68.988362
21
74.225500
0
LINE
8
0
10
-68.988362
20
74.225500
11
-69.537400
21
74.774538
0
LINE
8
0
10
-69.537400
20
74.774538
11
-70.287400
21
74.975500
0
LINE
8
0
10
-70.287400
20
74.975500
11
-71.037400
21
74.774538
0
LINE
8
0
10
-71.037400
20
74.774538
11
-71.586438
21
74.225500
0
LINE
8
0
10
-71.586438
20
74.225500
11
-71.787400
21
73.475500
0
LINE
8
0
10
-71.787400
20
73.475500
11
-71.669523
21
72.891632
0
LINE
8
0
10
-71.669523
20
72.891632
11
-71.348060
21
72.414840
0
LINE
8
0
10
-71.348060
20
72.414840
11
-70.871268
21
72.093378
0
LINE
8
0
10
-70.871268
20
72.093378
11
-70.287400
21
71.975500
0
LINE
8
0
10
-70.287400
20
71.975500
11
-69.703532
21
72.093378
0
LINE
8
0
10
-69.703532
20
72.093378
11
-69.226740
21
72.414840
0
LINE
8
0
10
-69.226740
20
72.414840
11
-68.905277
21
72.891632
0
LINE
8
0
10
-68.905277
20
72.891632
11
-68.787400
21
73.475500
0
LINE
8
0
10
-68.787400
20
73.475500
11
-68.787400
21
73.475500
 0 
ENDSEC
 0 
EOF