0
SECTION
2
HEADER
0
ENDSEC
0
SECTION
2
TABLES
0
TABLE
2
LTYPE
0
LTYPE
72
65
70
64
2
CONTINUOUS
3
______
73
0
40
0
0
ENDTAB
0
TABLE
2
LAYER
0
ENDTAB
0
ENDSEC
0
SECTION
2
ENTITIES
0
CIRCLE
8
0
10
0
20
0
40
0.5
0
CIRCLE
8
0
10
0
20
0
40
0.5
0
LINE
8
layer0
10
9.3808324
20
2.9504687
11
9.2427851
21
2.8026412
0
LINE
8
layer0
10
9.2427851
20
2.8026412
11
9.1085257
21
2.6704185
0
LINE
8
layer0
10
9.1085257
20
2.6704185
11
8.9796441
21
2.5537663
0
LINE
8
layer0
10
8.9796441
20
2.5537663
11
8.8586373
21
2.4530942
0
LINE
8
layer0
10
8.8586373
20
2.4530942
11
8.7446573
21
2.3660697
0
LINE
8
layer0
10
8.7446573
20
2.3660697
11
8.6398458
21
2.2927556
0
LINE
8
layer0
10
8.6398458
20
2.2927556
11
8.5436842
21
2.2313139
0
LINE
8
layer0
10
8.5436842
20
2.2313139
11
8.4584298
21
2.1817262
0
LINE
8
layer0
10
8.4584298
20
2.1817262
11
8.3842713
21
2.1426349
0
LINE
8
layer0
10
8.3842713
20
2.1426349
11
8.2714387
21
2.0915455
0
LINE
8
layer0
10
8.2714387
20
2.0915455
11
8.210229
21
2.0696032
0
LINE
8
layer0
10
8.210229
20
2.0696032
11
8.0797864
21
2.0330975
0
LINE
8
layer0
10
8.0797864
20
2.0330975
11
7.9744061
21
1.9928977
0
LINE
8
layer0
10
7.9744061
20
1.9928977
11
7.8865913
21
1.9480982
0
LINE
8
layer0
10
7.8865913
20
1.9480982
11
7.8165098
21
1.9001096
0
LINE
8
layer0
10
7.8165098
20
1.9001096
11
7.7881585
21
1.8753503
0
LINE
8
layer0
10
7.7881585
20
1.8753503
11
7.764252
21
1.8503187
0
LINE
8
layer0
10
7.764252
20
1.8503187
11
7.7448083
21
1.8252007
0
LINE
8
layer0
10
7.7448083
20
1.8252007
11
7.7298193
21
1.8001575
0
LINE
8
layer0
10
7.7298193
20
1.8001575
11
7.7192636
21
1.7753679
0
LINE
8
layer0
10
7.7192636
20
1.7753679
11
7.7131215
21
1.7510011
0
LINE
8
layer0
10
7.7131215
20
1.7510011
11
7.7113699
21
1.7272461
0
LINE
8
layer0
10
7.7113699
20
1.7272461
11
7.713981
21
1.7042603
0
LINE
8
layer0
10
7.713981
20
1.7042603
11
7.7455503
21
1.5546493
0
LINE
8
layer0
10
7.7455503
20
1.5546493
11
7.7799812
21
1.3718206
0
LINE
8
layer0
10
7.7799812
20
1.3718206
11
7.8101578
21
1.1882417
0
LINE
8
layer0
10
7.8101578
20
1.1882417
11
7.8316624
21
1.0368561
0
LINE
8
layer0
10
7.8316624
20
1.0368561
11
7.8370703
21
1.0143634
0
LINE
8
layer0
10
7.8370703
20
1.0143634
11
7.846841
21
0.9926401
0
LINE
8
layer0
10
7.846841
20
0.9926401
11
7.8609466
21
0.9718435
0
LINE
8
layer0
10
7.8609466
20
0.9718435
11
7.8793442
21
0.9521592
0
LINE
8
layer0
10
7.8793442
20
0.9521592
11
7.9019946
21
0.9337528
0
LINE
8
layer0
10
7.9019946
20
0.9337528
11
7.9288565
21
0.9167997
0
LINE
8
layer0
10
7.9288565
20
0.9167997
11
7.9598826
21
0.9014542
0
LINE
8
layer0
10
7.9598826
20
0.9014542
11
7.9949923
21
0.8878848
0
LINE
8
layer0
10
7.9949923
20
0.8878848
11
8.0772605
21
0.8667596
0
LINE
8
layer0
10
8.0772605
20
0.8667596
11
8.1751017
21
0.8546963
0
LINE
8
layer0
10
8.1751017
20
0.8546963
11
8.287876
21
0.852963
0
LINE
8
layer0
10
8.287876
20
0.852963
11
8.4229376
21
0.8632728
0
LINE
8
layer0
10
8.4229376
20
0.8632728
11
8.4879606
21
0.8635887
0
LINE
8
layer0
10
8.4879606
20
0.8635887
11
8.6114621
21
0.8541715
0
LINE
8
layer0
10
8.6114621
20
0.8541715
11
8.6945184
21
0.8428013
0
LINE
8
layer0
10
8.6945184
20
0.8428013
11
8.7915913
21
0.8253629
0
LINE
8
layer0
10
8.7915913
20
0.8253629
11
8.902968
21
0.8005158
0
LINE
8
layer0
10
8.902968
20
0.8005158
11
9.0265334
21
0.7674707
0
LINE
8
layer0
10
9.0265334
20
0.7674707
11
9.1634037
21
0.7246778
0
LINE
8
layer0
10
9.1634037
20
0.7246778
11
9.3115448
21
0.6714638
0
LINE
8
layer0
10
9.3115448
20
0.6714638
11
9.4725513
21
0.6059267
0
LINE
8
layer0
10
9.4725513
20
0.6059267
11
9.6439367
21
0.5275974
0
LINE
8
layer0
10
9.6439367
20
0.5275974
11
9.8242187
21
0.4359
0
LINE
8
layer0
10
9.8242187
20
0.4359
11
9.9941788
21
0.3406382
0
ARC
8
layer0
10
-0.0000178
20
0
40
10
50
358.0479092
51
361.9520908
0
LINE
8
layer0
10
9.9941788
20
-0.3406382
11
9.8242187
21
-0.4359
0
LINE
8
layer0
10
9.8242187
20
-0.4359
11
9.6439367
21
-0.5275974
0
LINE
8
layer0
10
9.6439367
20
-0.5275974
11
9.4725513
21
-0.6059267
0
LINE
8
layer0
10
9.4725513
20
-0.6059267
11
9.3115448
21
-0.6714638
0
LINE
8
layer0
10
9.3115448
20
-0.6714638
11
9.1634037
21
-0.7246778
0
LINE
8
layer0
10
9.1634037
20
-0.7246778
11
9.0265334
21
-0.7674707
0
LINE
8
layer0
10
9.0265334
20
-0.7674707
11
8.902968
21
-0.8005158
0
LINE
8
layer0
10
8.902968
20
-0.8005158
11
8.7915913
21
-0.8253629
0
LINE
8
layer0
10
8.7915913
20
-0.8253629
11
8.6945184
21
-0.8428013
0
LINE
8
layer0
10
8.6945184
20
-0.8428013
11
8.6114621
21
-0.8541715
0
LINE
8
layer0
10
8.6114621
20
-0.8541715
11
8.4879606
21
-0.8635887
0
LINE
8
layer0
10
8.4879606
20
-0.8635887
11
8.4229376
21
-0.8632728
0
LINE
8
layer0
10
8.4229376
20
-0.8632728
11
8.287876
21
-0.852963
0
LINE
8
layer0
10
8.287876
20
-0.852963
11
8.1751017
21
-0.8546963
0
LINE
8
layer0
10
8.1751017
20
-0.8546963
11
8.0772605
21
-0.8667596
0
LINE
8
layer0
10
8.0772605
20
-0.8667596
11
7.9949923
21
-0.8878848
0
LINE
8
layer0
10
7.9949923
20
-0.8878848
11
7.9598826
21
-0.9014542
0
LINE
8
layer0
10
7.9598826
20
-0.9014542
11
7.9288565
21
-0.9167997
0
LINE
8
layer0
10
7.9288565
20
-0.9167997
11
7.9019946
21
-0.9337528
0
LINE
8
layer0
10
7.9019946
20
-0.9337528
11
7.8793442
21
-0.9521592
0
LINE
8
layer0
10
7.8793442
20
-0.9521592
11
7.8609466
21
-0.9718435
0
LINE
8
layer0
10
7.8609466
20
-0.9718435
11
7.846841
21
-0.9926401
0
LINE
8
layer0
10
7.846841
20
-0.9926401
11
7.8370703
21
-1.0143634
0
LINE
8
layer0
10
7.8370703
20
-1.0143634
11
7.8316624
21
-1.0368561
0
LINE
8
layer0
10
7.8316624
20
-1.0368561
11
7.8101578
21
-1.1882417
0
LINE
8
layer0
10
7.8101578
20
-1.1882417
11
7.7799812
21
-1.3718206
0
LINE
8
layer0
10
7.7799812
20
-1.3718206
11
7.7455503
21
-1.5546493
0
LINE
8
layer0
10
7.7455503
20
-1.5546493
11
7.713981
21
-1.7042603
0
LINE
8
layer0
10
7.713981
20
-1.7042603
11
7.7113699
21
-1.7272461
0
LINE
8
layer0
10
7.7113699
20
-1.7272461
11
7.7131215
21
-1.7510011
0
LINE
8
layer0
10
7.7131215
20
-1.7510011
11
7.7192636
21
-1.7753679
0
LINE
8
layer0
10
7.7192636
20
-1.7753679
11
7.7298193
21
-1.8001575
0
LINE
8
layer0
10
7.7298193
20
-1.8001575
11
7.7448083
21
-1.8252007
0
LINE
8
layer0
10
7.7448083
20
-1.8252007
11
7.764252
21
-1.8503187
0
LINE
8
layer0
10
7.764252
20
-1.8503187
11
7.7881585
21
-1.8753503
0
LINE
8
layer0
10
7.7881585
20
-1.8753503
11
7.8165098
21
-1.9001096
0
LINE
8
layer0
10
7.8165098
20
-1.9001096
11
7.8865913
21
-1.9480982
0
LINE
8
layer0
10
7.8865913
20
-1.9480982
11
7.9744061
21
-1.9928977
0
LINE
8
layer0
10
7.9744061
20
-1.9928977
11
8.0797864
21
-2.0330975
0
LINE
8
layer0
10
8.0797864
20
-2.0330975
11
8.210229
21
-2.0696032
0
LINE
8
layer0
10
8.210229
20
-2.0696032
11
8.2714387
21
-2.0915455
0
LINE
8
layer0
10
8.2714387
20
-2.0915455
11
8.3842713
21
-2.1426349
0
LINE
8
layer0
10
8.3842713
20
-2.1426349
11
8.4584298
21
-2.1817262
0
LINE
8
layer0
10
8.4584298
20
-2.1817262
11
8.5436842
21
-2.2313139
0
LINE
8
layer0
10
8.5436842
20
-2.2313139
11
8.6398458
21
-2.2927556
0
LINE
8
layer0
10
8.6398458
20
-2.2927556
11
8.7446573
21
-2.3660697
0
LINE
8
layer0
10
8.7446573
20
-2.3660697
11
8.8586373
21
-2.4530942
0
LINE
8
layer0
10
8.8586373
20
-2.4530942
11
8.9796441
21
-2.5537663
0
LINE
8
layer0
10
8.9796441
20
-2.5537663
11
9.1085257
21
-2.6704185
0
LINE
8
layer0
10
9.1085257
20
-2.6704185
11
9.2427851
21
-2.8026412
0
LINE
8
layer0
10
9.2427851
20
-2.8026412
11
9.3808324
21
-2.9504687
0
LINE
8
layer0
10
9.3808324
20
-2.9504687
11
9.5079612
21
-3.0981153
0
ARC
8
layer0
10
-0.0000167
20
0.0000062
40
10
50
338.0479078
51
341.9520899
0
LINE
8
layer0
10
9.274951
20
-3.7383057
11
9.0826593
21
-3.7696927
0
LINE
8
layer0
10
9.0826593
20
-3.7696927
11
8.8818872
21
-3.7942
0
LINE
8
layer0
10
8.8818872
20
-3.7942
11
8.6940474
21
-3.8091882
0
LINE
8
layer0
10
8.6940474
20
-3.8091882
11
8.5203358
21
-3.8157055
0
LINE
8
layer0
10
8.5203358
20
-3.8157055
11
8.3629284
21
-3.8150431
0
LINE
8
layer0
10
8.3629284
20
-3.8150431
11
8.2196764
21
-3.8084428
0
LINE
8
layer0
10
8.2196764
20
-3.8084428
11
8.0922608
21
-3.7972332
0
LINE
8
layer0
10
8.0922608
20
-3.7972332
11
7.9791027
21
-3.7824887
0
LINE
8
layer0
10
7.9791027
20
-3.7824887
11
7.8819197
21
-3.7656746
0
LINE
8
layer0
10
7.8819197
20
-3.7656746
11
7.7999836
21
-3.7479522
0
LINE
8
layer0
10
7.7999836
20
-3.7479522
11
7.6807092
21
-3.7145615
0
LINE
8
layer0
10
7.6807092
20
-3.7145615
11
7.6197156
21
-3.6920254
0
LINE
8
layer0
10
7.6197156
20
-3.6920254
11
7.4963254
21
-3.6361436
0
LINE
8
layer0
10
7.4963254
20
-3.6361436
11
7.3897594
21
-3.5992012
0
LINE
8
layer0
10
7.3897594
20
-3.5992012
11
7.2936929
21
-3.5770734
0
LINE
8
layer0
10
7.2936929
20
-3.5770734
11
7.2091608
21
-3.5687872
0
LINE
8
layer0
10
7.2091608
20
-3.5687872
11
7.1715275
21
-3.5695301
0
LINE
8
layer0
10
7.1715275
20
-3.5695301
11
7.137124
21
-3.5733386
0
LINE
8
layer0
10
7.137124
20
-3.5733386
11
7.1060837
21
-3.5800819
0
LINE
8
layer0
10
7.1060837
20
-3.5800819
11
7.078504
21
-3.5896314
0
LINE
8
layer0
10
7.078504
20
-3.5896314
11
7.0544834
21
-3.6018363
0
LINE
8
layer0
10
7.0544834
20
-3.6018363
11
7.0341157
21
-3.6165542
0
LINE
8
layer0
10
7.0341157
20
-3.6165542
11
7.0175044
21
-3.6336258
0
LINE
8
layer0
10
7.0175044
20
-3.6336258
11
7.0047297
21
-3.6529123
0
LINE
8
layer0
10
7.0047297
20
-3.6529123
11
6.9327451
21
-3.7878133
0
LINE
8
layer0
10
6.9327451
20
-3.7878133
11
6.8416007
21
-3.95
0
LINE
8
layer0
10
6.8416007
20
-3.95
11
6.7467151
21
-4.1100267
0
LINE
8
layer0
10
6.7467151
20
-4.1100267
11
6.6658797
21
-4.2398177
0
LINE
8
layer0
10
6.6658797
20
-4.2398177
11
6.6555644
21
-4.2605242
0
LINE
8
layer0
10
6.6555644
20
-4.2605242
11
6.6490857
21
-4.2834458
0
LINE
8
layer0
10
6.6490857
20
-4.2834458
11
6.6465234
21
-4.3084437
0
LINE
8
layer0
10
6.6465234
20
-4.3084437
11
6.647964
21
-4.3353486
0
LINE
8
layer0
10
6.647964
20
-4.3353486
11
6.6534837
21
-4.3640081
0
LINE
8
layer0
10
6.6534837
20
-4.3640081
11
6.663164
21
-4.3942614
0
LINE
8
layer0
10
6.663164
20
-4.3942614
11
6.6770675
21
-4.4259599
0
LINE
8
layer0
10
6.6770675
20
-4.4259599
11
6.6952408
21
-4.4589228
0
LINE
8
layer0
10
6.6952408
20
-4.4589228
11
6.7446829
21
-4.5279866
0
LINE
8
layer0
10
6.7446829
20
-4.5279866
11
6.8118794
21
-4.6001188
0
LINE
8
layer0
10
6.8118794
20
-4.6001188
11
6.8971554
21
-4.6739364
0
LINE
8
layer0
10
6.8971554
20
-4.6739364
11
7.0072456
21
-4.7528546
0
LINE
8
layer0
10
7.0072456
20
-4.7528546
11
7.0572592
21
-4.7944085
0
LINE
8
layer0
10
7.0572592
20
-4.7944085
11
7.1458136
21
-4.8810078
0
LINE
8
layer0
10
7.1458136
20
-4.8810078
11
7.2021297
21
-4.9431054
0
LINE
8
layer0
10
7.2021297
20
-4.9431054
11
7.2652827
21
-5.0188613
0
LINE
8
layer0
10
7.2652827
20
-5.0188613
11
7.3346308
21
-5.1094868
0
LINE
8
layer0
10
7.3346308
20
-5.1094868
11
7.4080464
21
-5.2142272
0
LINE
8
layer0
10
7.4080464
20
-5.2142272
11
7.4853884
21
-5.3349869
0
LINE
8
layer0
10
7.4853884
20
-5.3349869
11
7.5646658
21
-5.4709745
0
LINE
8
layer0
10
7.5646658
20
-5.4709745
11
7.6458774
21
-5.6246718
0
LINE
8
layer0
10
7.6458774
20
-5.6246718
11
7.7268172
21
-5.79484
0
LINE
8
layer0
10
7.7268172
20
-5.79484
11
7.8059793
21
-5.9809673
0
LINE
8
layer0
10
7.8059793
20
-5.9809673
11
7.8749432
21
-6.1631903
0
ARC
8
layer0
10
-0.0000131
20
0.0000121
40
10
50
318.0479043
51
321.9520861
0
LINE
8
layer0
10
7.4370271
20
-6.6850783
11
7.2455971
21
-6.6488048
0
LINE
8
layer0
10
7.2455971
20
-6.6488048
11
7.0485511
21
-6.6031661
0
LINE
8
layer0
10
7.0485511
20
-6.6031661
11
6.8669131
21
-6.5530053
0
LINE
8
layer0
10
6.8669131
20
-6.5530053
11
6.7014485
21
-6.4997168
0
LINE
8
layer0
10
6.7014485
20
-6.4997168
11
6.5537606
21
-6.4452578
0
LINE
8
layer0
10
6.5537606
20
-6.4452578
11
6.4214051
21
-6.3900605
0
LINE
8
layer0
10
6.4214051
20
-6.3900605
11
6.3055075
21
-6.3359482
0
LINE
8
layer0
10
6.3055075
20
-6.3359482
11
6.2042166
21
-6.2833906
0
LINE
8
layer0
10
6.2042166
20
-6.2833906
11
6.1186452
21
-6.2343519
0
LINE
8
layer0
10
6.1186452
20
-6.2343519
11
6.0477119
21
-6.1896745
0
LINE
8
layer0
10
6.0477119
20
-6.1896745
11
5.9470509
21
-6.1175032
0
LINE
8
layer0
10
5.9470509
20
-6.1175032
11
5.8974435
21
-6.0754653
0
LINE
8
layer0
10
5.8974435
20
-6.0754653
11
5.8006073
21
-5.9807516
0
LINE
8
layer0
10
5.8006073
20
-5.9807516
11
5.7131031
21
-5.9095894
0
LINE
8
layer0
10
5.7131031
20
-5.9095894
11
5.6303982
21
-5.8559393
0
LINE
8
layer0
10
5.6303982
20
-5.8559393
11
5.5537981
21
-5.8192412
0
LINE
8
layer0
10
5.5537981
20
-5.8192412
11
5.5181802
21
-5.8070679
0
LINE
8
layer0
10
5.5181802
20
-5.8070679
11
5.484549
21
-5.7988801
0
LINE
8
layer0
10
5.484549
20
-5.7988801
11
5.4530743
21
-5.7946003
0
LINE
8
layer0
10
5.4530743
20
-5.7946003
11
5.4238917
21
-5.7941411
0
LINE
8
layer0
10
5.4238917
20
-5.7941411
11
5.3971455
21
-5.7973944
0
LINE
8
layer0
10
5.3971455
20
-5.7973944
11
5.3729722
21
-5.8042586
0
LINE
8
layer0
10
5.3729722
20
-5.8042586
11
5.3515239
21
-5.8146192
0
LINE
8
layer0
10
5.3515239
20
-5.8146192
11
5.3329232
21
-5.8283734
0
LINE
8
layer0
10
5.3329232
20
-5.8283734
11
5.2191409
21
-5.9305187
0
LINE
8
layer0
10
5.2191409
20
-5.9305187
11
5.0780221
21
-6.0517511
0
LINE
8
layer0
10
5.0780221
20
-6.0517511
11
4.9341264
21
-6.1696742
0
LINE
8
layer0
10
4.9341264
20
-6.1696742
11
4.8137749
21
-6.2639905
0
LINE
8
layer0
10
4.8137749
20
-6.2639905
11
4.7969997
21
-6.2799203
0
LINE
8
layer0
10
4.7969997
20
-6.2799203
11
4.783072
21
-6.2992436
0
LINE
8
layer0
10
4.783072
20
-6.2992436
11
4.7721145
21
-6.3218577
0
LINE
8
layer0
10
4.7721145
20
-6.3218577
11
4.7642662
21
-6.3476327
0
LINE
8
layer0
10
4.7642662
20
-6.3476327
11
4.7596509
21
-6.3764517
0
LINE
8
layer0
10
4.7596509
20
-6.3764517
11
4.7584001
21
-6.4081913
0
LINE
8
layer0
10
4.7584001
20
-6.4081913
11
4.7606236
21
-6.4427334
0
LINE
8
layer0
10
4.7606236
20
-6.4427334
11
4.766427
21
-6.479924
0
LINE
8
layer0
10
4.766427
20
-6.479924
11
4.7892661
21
-6.561733
0
LINE
8
layer0
10
4.7892661
20
-6.561733
11
4.8277395
21
-6.6524976
0
LINE
8
layer0
10
4.8277395
20
-6.6524976
11
4.8826256
21
-6.7510297
0
LINE
8
layer0
10
4.8826256
20
-6.7510297
11
4.959085
21
-6.8628415
0
LINE
8
layer0
10
4.959085
20
-6.8628415
11
4.9918701
21
-6.9189951
0
LINE
8
layer0
10
4.9918701
20
-6.9189951
11
5.0454653
21
-7.0306592
0
LINE
8
layer0
10
5.0454653
20
-7.0306592
11
5.0771465
21
-7.1082731
0
LINE
8
layer0
10
5.0771465
20
-7.1082731
11
5.1105809
21
-7.2010599
0
LINE
8
layer0
10
5.1105809
20
-7.2010599
11
5.144751
21
-7.3099385
0
LINE
8
layer0
10
5.144751
20
-7.3099385
11
5.1779158
21
-7.4334719
0
LINE
8
layer0
10
5.1779158
20
-7.4334719
11
5.2092913
21
-7.5734015
0
LINE
8
layer0
10
5.2092913
20
-7.5734015
11
5.2372771
21
-7.7283024
0
LINE
8
layer0
10
5.2372771
20
-7.7283024
11
5.2610235
21
-7.9005067
0
LINE
8
layer0
10
5.2610235
20
-7.9005067
11
5.2788811
21
-8.0880955
0
LINE
8
layer0
10
5.2788811
20
-8.0880955
11
5.2896098
21
-8.290073
0
LINE
8
layer0
10
5.2896098
20
-8.290073
11
5.2920908
21
-8.4848937
0
ARC
8
layer0
10
-0.0000086
20
0.0000155
40
10
50
298.0479075
51
301.9520892
0
LINE
8
layer0
10
4.7020881
20
-8.8255319
11
4.5346089
21
-8.725973
0
LINE
8
layer0
10
4.5346089
20
-8.725973
11
4.3650556
21
-8.6156929
0
LINE
8
layer0
10
4.3650556
20
-8.6156929
11
4.2115278
21
-8.5064334
0
LINE
8
layer0
10
4.2115278
20
-8.5064334
11
4.0742677
21
-8.3997663
0
LINE
8
layer0
10
4.0742677
20
-8.3997663
11
3.9541124
21
-8.2980793
0
LINE
8
layer0
10
3.9541124
20
-8.2980793
11
3.8486176
21
-8.2009426
0
LINE
8
layer0
10
3.8486176
20
-8.2009426
11
3.758217
21
-8.1104543
0
LINE
8
layer0
10
3.758217
20
-8.1104543
11
3.6810104
21
-8.0264228
0
LINE
8
layer0
10
3.6810104
20
-8.0264228
11
3.6173718
21
-7.9510744
0
LINE
8
layer0
10
3.6173718
20
-7.9510744
11
3.5659969
21
-7.8848307
0
LINE
8
layer0
10
3.5659969
20
-7.8848307
11
3.4960905
21
-7.7825839
0
LINE
8
layer0
10
3.4960905
20
-7.7825839
11
3.4638526
21
-7.7261143
0
LINE
8
layer0
10
3.4638526
20
-7.7261143
11
3.4052504
21
-7.6039926
0
LINE
8
layer0
10
3.4052504
20
-7.6039926
11
3.3473622
21
-7.5071939
0
LINE
8
layer0
10
3.3473622
20
-7.5071939
11
3.2879944
21
-7.4284926
0
LINE
8
layer0
10
3.2879944
20
-7.4284926
11
3.2285654
21
-7.3678089
0
LINE
8
layer0
10
3.2285654
20
-7.3678089
11
3.199259
21
-7.3441877
0
LINE
8
layer0
10
3.199259
20
-7.3441877
11
3.1704564
21
-7.3249911
0
LINE
8
layer0
10
3.1704564
20
-7.3249911
11
3.1423437
21
-7.3102044
0
LINE
8
layer0
10
3.1423437
20
-7.3102044
11
3.1150781
21
-7.2997919
0
LINE
8
layer0
10
3.1150781
20
-7.2997919
11
3.0888321
21
-7.2937012
0
LINE
8
layer0
10
3.0888321
20
-7.2937012
11
3.063769
21
-7.2918837
0
LINE
8
layer0
10
3.063769
20
-7.2918837
11
3.0400707
21
-7.2942837
0
LINE
8
layer0
10
3.0400707
20
-7.2942837
11
3.0178875
21
-7.3008466
0
LINE
8
layer0
10
3.0178875
20
-7.3008466
11
2.8760314
21
-7.357916
0
LINE
8
layer0
10
2.8760314
20
-7.357916
11
2.7019591
21
-7.4235717
0
LINE
8
layer0
10
2.7019591
20
-7.4235717
11
2.5264094
21
-7.485168
0
LINE
8
layer0
10
2.5264094
20
-7.485168
11
2.3810578
21
-7.5326337
0
LINE
8
layer0
10
2.3810578
20
-7.5326337
11
2.359846
21
-7.5418653
0
LINE
8
layer0
10
2.359846
20
-7.5418653
11
2.3401493
21
-7.5552597
0
LINE
8
layer0
10
2.3401493
20
-7.5552597
11
2.3221181
21
-7.5727623
0
LINE
8
layer0
10
2.3221181
20
-7.5727623
11
2.3059275
21
-7.5942986
0
LINE
8
layer0
10
2.3059275
20
-7.5942986
11
2.2917339
21
-7.6198011
0
LINE
8
layer0
10
2.2917339
20
-7.6198011
11
2.279703
21
-7.6491988
0
LINE
8
layer0
10
2.279703
20
-7.6491988
11
2.2699782
21
-7.6824182
0
LINE
8
layer0
10
2.2699782
20
-7.6824182
11
2.2627117
21
-7.7193508
0
LINE
8
layer0
10
2.2627117
20
-7.7193508
11
2.2561931
21
-7.8040376
0
LINE
8
layer0
10
2.2561931
20
-7.8040376
11
2.261303
21
-7.9024871
0
LINE
8
layer0
10
2.261303
20
-7.9024871
11
2.2791791
21
-8.0138491
0
LINE
8
layer0
10
2.2791791
20
-8.0138491
11
2.3127855
21
-8.1450685
0
LINE
8
layer0
10
2.3127855
20
-8.1450685
11
2.3243878
21
-8.2090488
0
LINE
8
layer0
10
2.3243878
20
-8.2090488
11
2.3365594
21
-8.3323094
0
LINE
8
layer0
10
2.3365594
20
-8.3323094
11
2.3397845
21
-8.4160782
0
LINE
8
layer0
10
2.3397845
20
-8.4160782
11
2.3394676
21
-8.5147045
0
LINE
8
layer0
10
2.3394676
20
-8.5147045
11
2.3343383
21
-8.6287038
0
LINE
8
layer0
10
2.3343383
20
-8.6287038
11
2.3232522
21
-8.7561302
0
LINE
8
layer0
10
2.3232522
20
-8.7561302
11
2.3048767
21
-8.898352
0
LINE
8
layer0
10
2.3048767
20
-8.898352
11
2.2781956
21
-9.0534831
0
LINE
8
layer0
10
2.2781956
20
-9.0534831
11
2.2416125
21
-9.2234239
0
LINE
8
layer0
10
2.2416125
20
-9.2234239
11
2.1942341
21
-9.4058073
0
LINE
8
layer0
10
2.1942341
20
-9.4058073
11
2.1352354
21
-9.5992735
0
LINE
8
layer0
10
2.1352354
20
-9.5992735
11
2.0709341
21
-9.7831936
0
ARC
8
layer0
10
-0.0000029
20
0.0000175
40
10
50
278.0479082
51
281.9520898
0
LINE
8
layer0
10
1.4000078
20
-9.901496
11
1.27668
21
-9.75066
0
LINE
8
layer0
10
1.27668
20
-9.75066
11
1.15507
21
-9.58904
0
LINE
8
layer0
10
1.15507
20
-9.58904
11
1.04817
21
-9.43386
0
LINE
8
layer0
10
1.04817
20
-9.43386
11
0.95567
21
-9.28668
0
LINE
8
layer0
10
0.95567
20
-9.28668
11
0.87754
21
-9.15003
0
LINE
8
layer0
10
0.87754
20
-9.15003
11
0.81163
21
-9.02267
0
LINE
8
layer0
10
0.81163
20
-9.02267
11
0.75763
21
-8.90672
0
LINE
8
layer0
10
0.75763
20
-8.90672
11
0.71382
21
-8.80135
0
LINE
8
layer0
10
0.71382
20
-8.80135
11
0.67979
21
-8.70878
0
LINE
8
layer0
10
0.67979
20
-8.70878
11
0.65417
21
-8.62896
0
LINE
8
layer0
10
0.65417
20
-8.62896
11
0.62345
21
-8.50897
0
LINE
8
layer0
10
0.62345
20
-8.50897
11
0.61247
21
-8.44488
0
LINE
8
layer0
10
0.61247
20
-8.44488
11
0.59917
21
-8.31008
0
LINE
8
layer0
10
0.59917
20
-8.31008
11
0.57788
21
-8.19932
0
LINE
8
layer0
10
0.57788
20
-8.19932
11
0.54901
21
-8.10506
0
LINE
8
layer0
10
0.54901
20
-8.10506
11
0.51392
21
-8.02771
0
LINE
8
layer0
10
0.51392
20
-8.02771
11
0.49446
21
-7.99549
0
LINE
8
layer0
10
0.49446
20
-7.99549
11
0.47396
21
-7.9676
0
LINE
8
layer0
10
0.47396
20
-7.9676
11
0.4526
21
-7.94409
0
LINE
8
layer0
10
0.4526
20
-7.94409
11
0.43054
21
-7.92498
0
LINE
8
layer0
10
0.43054
20
-7.92498
11
0.40796
21
-7.91028
0
LINE
8
layer0
10
0.40796
20
-7.91028
11
0.38503
21
-7.9
0
LINE
8
layer0
10
0.38503
20
-7.9
11
0.36194
21
-7.89415
0
LINE
8
layer0
10
0.36194
20
-7.89415
11
0.33885
21
-7.89273
0
LINE
8
layer0
10
0.33885
20
-7.89273
11
0.18603
21
-7.89784
0
LINE
8
layer0
10
0.18603
20
-7.89784
11
0
21
-7.9
0
LINE
8
layer0
10
0
20
-7.9
11
-0.18603
21
-7.89784
0
LINE
8
layer0
10
-0.18603
20
-7.89784
11
-0.33885
21
-7.89273
0
LINE
8
layer0
10
-0.33885
20
-7.89273
11
-0.36194
21
-7.89415
0
LINE
8
layer0
10
-0.36194
20
-7.89415
11
-0.38503
21
-7.9
0
LINE
8
layer0
10
-0.38503
20
-7.9
11
-0.40796
21
-7.91028
0
LINE
8
layer0
10
-0.40796
20
-7.91028
11
-0.43054
21
-7.92498
0
LINE
8
layer0
10
-0.43054
20
-7.92498
11
-0.4526
21
-7.94409
0
LINE
8
layer0
10
-0.4526
20
-7.94409
11
-0.47396
21
-7.9676
0
LINE
8
layer0
10
-0.47396
20
-7.9676
11
-0.49446
21
-7.99549
0
LINE
8
layer0
10
-0.49446
20
-7.99549
11
-0.51392
21
-8.02771
0
LINE
8
layer0
10
-0.51392
20
-8.02771
11
-0.54901
21
-8.10506
0
LINE
8
layer0
10
-0.54901
20
-8.10506
11
-0.57788
21
-8.19932
0
LINE
8
layer0
10
-0.57788
20
-8.19932
11
-0.59917
21
-8.31008
0
LINE
8
layer0
10
-0.59917
20
-8.31008
11
-0.61247
21
-8.44488
0
LINE
8
layer0
10
-0.61247
20
-8.44488
11
-0.62345
21
-8.50897
0
LINE
8
layer0
10
-0.62345
20
-8.50897
11
-0.65417
21
-8.62896
0
LINE
8
layer0
10
-0.65417
20
-8.62896
11
-0.67979
21
-8.70878
0
LINE
8
layer0
10
-0.67979
20
-8.70878
11
-0.71382
21
-8.80135
0
LINE
8
layer0
10
-0.71382
20
-8.80135
11
-0.75763
21
-8.90672
0
LINE
8
layer0
10
-0.75763
20
-8.90672
11
-0.81163
21
-9.02267
0
LINE
8
layer0
10
-0.81163
20
-9.02267
11
-0.87754
21
-9.15003
0
LINE
8
layer0
10
-0.87754
20
-9.15003
11
-0.95567
21
-9.28668
0
LINE
8
layer0
10
-0.95567
20
-9.28668
11
-1.04817
21
-9.43386
0
LINE
8
layer0
10
-1.04817
20
-9.43386
11
-1.15507
21
-9.58904
0
LINE
8
layer0
10
-1.15507
20
-9.58904
11
-1.27668
21
-9.75066
0
LINE
8
layer0
10
-1.27668
20
-9.75066
11
-1.4000078
21
-9.901496
0
ARC
8
layer0
10
0.000003
20
0.0000175
40
10
50
258.0479096
51
261.9520913
0
LINE
8
layer0
10
-2.0709341
20
-9.7831936
11
-2.1352354
21
-9.5992735
0
LINE
8
layer0
10
-2.1352354
20
-9.5992735
11
-2.1942341
21
-9.4058073
0
LINE
8
layer0
10
-2.1942341
20
-9.4058073
11
-2.2416125
21
-9.2234239
0
LINE
8
layer0
10
-2.2416125
20
-9.2234239
11
-2.2781956
21
-9.0534831
0
LINE
8
layer0
10
-2.2781956
20
-9.0534831
11
-2.3048767
21
-8.898352
0
LINE
8
layer0
10
-2.3048767
20
-8.898352
11
-2.3232522
21
-8.7561302
0
LINE
8
layer0
10
-2.3232522
20
-8.7561302
11
-2.3343383
21
-8.6287038
0
LINE
8
layer0
10
-2.3343383
20
-8.6287038
11
-2.3394676
21
-8.5147045
0
LINE
8
layer0
10
-2.3394676
20
-8.5147045
11
-2.3397845
21
-8.4160782
0
LINE
8
layer0
10
-2.3397845
20
-8.4160782
11
-2.3365594
21
-8.3323094
0
LINE
8
layer0
10
-2.3365594
20
-8.3323094
11
-2.3243878
21
-8.2090488
0
LINE
8
layer0
10
-2.3243878
20
-8.2090488
11
-2.3127855
21
-8.1450685
0
LINE
8
layer0
10
-2.3127855
20
-8.1450685
11
-2.2791791
21
-8.0138491
0
LINE
8
layer0
10
-2.2791791
20
-8.0138491
11
-2.261303
21
-7.9024871
0
LINE
8
layer0
10
-2.261303
20
-7.9024871
11
-2.2561931
21
-7.8040376
0
LINE
8
layer0
10
-2.2561931
20
-7.8040376
11
-2.2627117
21
-7.7193508
0
LINE
8
layer0
10
-2.2627117
20
-7.7193508
11
-2.2699782
21
-7.6824182
0
LINE
8
layer0
10
-2.2699782
20
-7.6824182
11
-2.279703
21
-7.6491988
0
LINE
8
layer0
10
-2.279703
20
-7.6491988
11
-2.2917339
21
-7.6198011
0
LINE
8
layer0
10
-2.2917339
20
-7.6198011
11
-2.3059275
21
-7.5942986
0
LINE
8
layer0
10
-2.3059275
20
-7.5942986
11
-2.3221181
21
-7.5727623
0
LINE
8
layer0
10
-2.3221181
20
-7.5727623
11
-2.3401493
21
-7.5552597
0
LINE
8
layer0
10
-2.3401493
20
-7.5552597
11
-2.359846
21
-7.5418653
0
LINE
8
layer0
10
-2.359846
20
-7.5418653
11
-2.3810578
21
-7.5326337
0
LINE
8
layer0
10
-2.3810578
20
-7.5326337
11
-2.5264094
21
-7.485168
0
LINE
8
layer0
10
-2.5264094
20
-7.485168
11
-2.7019591
21
-7.4235717
0
LINE
8
layer0
10
-2.7019591
20
-7.4235717
11
-2.8760314
21
-7.357916
0
LINE
8
layer0
10
-2.8760314
20
-7.357916
11
-3.0178875
21
-7.3008466
0
LINE
8
layer0
10
-3.0178875
20
-7.3008466
11
-3.0400707
21
-7.2942837
0
LINE
8
layer0
10
-3.0400707
20
-7.2942837
11
-3.063769
21
-7.2918837
0
LINE
8
layer0
10
-3.063769
20
-7.2918837
11
-3.0888321
21
-7.2937012
0
LINE
8
layer0
10
-3.0888321
20
-7.2937012
11
-3.1150781
21
-7.2997919
0
LINE
8
layer0
10
-3.1150781
20
-7.2997919
11
-3.1423437
21
-7.3102044
0
LINE
8
layer0
10
-3.1423437
20
-7.3102044
11
-3.1704564
21
-7.3249911
0
LINE
8
layer0
10
-3.1704564
20
-7.3249911
11
-3.199259
21
-7.3441877
0
LINE
8
layer0
10
-3.199259
20
-7.3441877
11
-3.2285654
21
-7.3678089
0
LINE
8
layer0
10
-3.2285654
20
-7.3678089
11
-3.2879944
21
-7.4284926
0
LINE
8
layer0
10
-3.2879944
20
-7.4284926
11
-3.3473622
21
-7.5071939
0
LINE
8
layer0
10
-3.3473622
20
-7.5071939
11
-3.4052504
21
-7.6039926
0
LINE
8
layer0
10
-3.4052504
20
-7.6039926
11
-3.4638526
21
-7.7261143
0
LINE
8
layer0
10
-3.4638526
20
-7.7261143
11
-3.4960905
21
-7.7825839
0
LINE
8
layer0
10
-3.4960905
20
-7.7825839
11
-3.5659969
21
-7.8848307
0
LINE
8
layer0
10
-3.5659969
20
-7.8848307
11
-3.6173718
21
-7.9510744
0
LINE
8
layer0
10
-3.6173718
20
-7.9510744
11
-3.6810104
21
-8.0264228
0
LINE
8
layer0
10
-3.6810104
20
-8.0264228
11
-3.758217
21
-8.1104543
0
LINE
8
layer0
10
-3.758217
20
-8.1104543
11
-3.8486176
21
-8.2009426
0
LINE
8
layer0
10
-3.8486176
20
-8.2009426
11
-3.9541124
21
-8.2980793
0
LINE
8
layer0
10
-3.9541124
20
-8.2980793
11
-4.0742677
21
-8.3997663
0
LINE
8
layer0
10
-4.0742677
20
-8.3997663
11
-4.2115278
21
-8.5064334
0
LINE
8
layer0
10
-4.2115278
20
-8.5064334
11
-4.3650556
21
-8.6156929
0
LINE
8
layer0
10
-4.3650556
20
-8.6156929
11
-4.5346089
21
-8.725973
0
LINE
8
layer0
10
-4.5346089
20
-8.725973
11
-4.7020881
21
-8.8255319
0
ARC
8
layer0
10
0.0000087
20
0.0000154
40
10
50
238.0479101
51
241.9520917
0
LINE
8
layer0
10
-5.2920908
20
-8.4848937
11
-5.2896098
21
-8.290073
0
LINE
8
layer0
10
-5.2896098
20
-8.290073
11
-5.2788811
21
-8.0880955
0
LINE
8
layer0
10
-5.2788811
20
-8.0880955
11
-5.2610235
21
-7.9005067
0
LINE
8
layer0
10
-5.2610235
20
-7.9005067
11
-5.2372771
21
-7.7283024
0
LINE
8
layer0
10
-5.2372771
20
-7.7283024
11
-5.2092913
21
-7.5734015
0
LINE
8
layer0
10
-5.2092913
20
-7.5734015
11
-5.1779158
21
-7.4334719
0
LINE
8
layer0
10
-5.1779158
20
-7.4334719
11
-5.144751
21
-7.3099385
0
LINE
8
layer0
10
-5.144751
20
-7.3099385
11
-5.1105809
21
-7.2010599
0
LINE
8
layer0
10
-5.1105809
20
-7.2010599
11
-5.0771465
21
-7.1082731
0
LINE
8
layer0
10
-5.0771465
20
-7.1082731
11
-5.0454653
21
-7.0306592
0
LINE
8
layer0
10
-5.0454653
20
-7.0306592
11
-4.9918701
21
-6.9189951
0
LINE
8
layer0
10
-4.9918701
20
-6.9189951
11
-4.959085
21
-6.8628415
0
LINE
8
layer0
10
-4.959085
20
-6.8628415
11
-4.8826256
21
-6.7510297
0
LINE
8
layer0
10
-4.8826256
20
-6.7510297
11
-4.8277395
21
-6.6524976
0
LINE
8
layer0
10
-4.8277395
20
-6.6524976
11
-4.7892661
21
-6.561733
0
LINE
8
layer0
10
-4.7892661
20
-6.561733
11
-4.766427
21
-6.479924
0
LINE
8
layer0
10
-4.766427
20
-6.479924
11
-4.7606236
21
-6.4427334
0
LINE
8
layer0
10
-4.7606236
20
-6.4427334
11
-4.7584001
21
-6.4081913
0
LINE
8
layer0
10
-4.7584001
20
-6.4081913
11
-4.7596509
21
-6.3764517
0
LINE
8
layer0
10
-4.7596509
20
-6.3764517
11
-4.7642662
21
-6.3476327
0
LINE
8
layer0
10
-4.7642662
20
-6.3476327
11
-4.7721145
21
-6.3218577
0
LINE
8
layer0
10
-4.7721145
20
-6.3218577
11
-4.783072
21
-6.2992436
0
LINE
8
layer0
10
-4.783072
20
-6.2992436
11
-4.7969997
21
-6.2799203
0
LINE
8
layer0
10
-4.7969997
20
-6.2799203
11
-4.8137749
21
-6.2639905
0
LINE
8
layer0
10
-4.8137749
20
-6.2639905
11
-4.9341264
21
-6.1696742
0
LINE
8
layer0
10
-4.9341264
20
-6.1696742
11
-5.0780221
21
-6.0517511
0
LINE
8
layer0
10
-5.0780221
20
-6.0517511
11
-5.2191409
21
-5.9305187
0
LINE
8
layer0
10
-5.2191409
20
-5.9305187
11
-5.3329232
21
-5.8283734
0
LINE
8
layer0
10
-5.3329232
20
-5.8283734
11
-5.3515239
21
-5.8146192
0
LINE
8
layer0
10
-5.3515239
20
-5.8146192
11
-5.3729722
21
-5.8042586
0
LINE
8
layer0
10
-5.3729722
20
-5.8042586
11
-5.3971455
21
-5.7973944
0
LINE
8
layer0
10
-5.3971455
20
-5.7973944
11
-5.4238917
21
-5.7941411
0
LINE
8
layer0
10
-5.4238917
20
-5.7941411
11
-5.4530743
21
-5.7946003
0
LINE
8
layer0
10
-5.4530743
20
-5.7946003
11
-5.484549
21
-5.7988801
0
LINE
8
layer0
10
-5.484549
20
-5.7988801
11
-5.5181802
21
-5.8070679
0
LINE
8
layer0
10
-5.5181802
20
-5.8070679
11
-5.5537981
21
-5.8192412
0
LINE
8
layer0
10
-5.5537981
20
-5.8192412
11
-5.6303982
21
-5.8559393
0
LINE
8
layer0
10
-5.6303982
20
-5.8559393
11
-5.7131031
21
-5.9095894
0
LINE
8
layer0
10
-5.7131031
20
-5.9095894
11
-5.8006073
21
-5.9807516
0
LINE
8
layer0
10
-5.8006073
20
-5.9807516
11
-5.8974435
21
-6.0754653
0
LINE
8
layer0
10
-5.8974435
20
-6.0754653
11
-5.9470509
21
-6.1175032
0
LINE
8
layer0
10
-5.9470509
20
-6.1175032
11
-6.0477119
21
-6.1896745
0
LINE
8
layer0
10
-6.0477119
20
-6.1896745
11
-6.1186452
21
-6.2343519
0
LINE
8
layer0
10
-6.1186452
20
-6.2343519
11
-6.2042166
21
-6.2833906
0
LINE
8
layer0
10
-6.2042166
20
-6.2833906
11
-6.3055075
21
-6.3359482
0
LINE
8
layer0
10
-6.3055075
20
-6.3359482
11
-6.4214051
21
-6.3900605
0
LINE
8
layer0
10
-6.4214051
20
-6.3900605
11
-6.5537606
21
-6.4452578
0
LINE
8
layer0
10
-6.5537606
20
-6.4452578
11
-6.7014485
21
-6.4997168
0
LINE
8
layer0
10
-6.7014485
20
-6.4997168
11
-6.8669131
21
-6.5530053
0
LINE
8
layer0
10
-6.8669131
20
-6.5530053
11
-7.0485511
21
-6.6031661
0
LINE
8
layer0
10
-7.0485511
20
-6.6031661
11
-7.2455971
21
-6.6488048
0
LINE
8
layer0
10
-7.2455971
20
-6.6488048
11
-7.4370271
21
-6.6850783
0
ARC
8
layer0
10
0.0000131
20
0.000012
40
10
50
218.0479135
51
221.9520953
0
LINE
8
layer0
10
-7.8749432
20
-6.1631903
11
-7.8059793
21
-5.9809673
0
LINE
8
layer0
10
-7.8059793
20
-5.9809673
11
-7.7268172
21
-5.79484
0
LINE
8
layer0
10
-7.7268172
20
-5.79484
11
-7.6458774
21
-5.6246718
0
LINE
8
layer0
10
-7.6458774
20
-5.6246718
11
-7.5646658
21
-5.4709745
0
LINE
8
layer0
10
-7.5646658
20
-5.4709745
11
-7.4853884
21
-5.3349869
0
LINE
8
layer0
10
-7.4853884
20
-5.3349869
11
-7.4080464
21
-5.2142272
0
LINE
8
layer0
10
-7.4080464
20
-5.2142272
11
-7.3346308
21
-5.1094868
0
LINE
8
layer0
10
-7.3346308
20
-5.1094868
11
-7.2652827
21
-5.0188613
0
LINE
8
layer0
10
-7.2652827
20
-5.0188613
11
-7.2021297
21
-4.9431054
0
LINE
8
layer0
10
-7.2021297
20
-4.9431054
11
-7.1458136
21
-4.8810078
0
LINE
8
layer0
10
-7.1458136
20
-4.8810078
11
-7.0572592
21
-4.7944085
0
LINE
8
layer0
10
-7.0572592
20
-4.7944085
11
-7.0072456
21
-4.7528546
0
LINE
8
layer0
10
-7.0072456
20
-4.7528546
11
-6.8971554
21
-4.6739364
0
LINE
8
layer0
10
-6.8971554
20
-4.6739364
11
-6.8118794
21
-4.6001188
0
LINE
8
layer0
10
-6.8118794
20
-4.6001188
11
-6.7446829
21
-4.5279866
0
LINE
8
layer0
10
-6.7446829
20
-4.5279866
11
-6.6952408
21
-4.4589228
0
LINE
8
layer0
10
-6.6952408
20
-4.4589228
11
-6.6770675
21
-4.4259599
0
LINE
8
layer0
10
-6.6770675
20
-4.4259599
11
-6.663164
21
-4.3942614
0
LINE
8
layer0
10
-6.663164
20
-4.3942614
11
-6.6534837
21
-4.3640081
0
LINE
8
layer0
10
-6.6534837
20
-4.3640081
11
-6.647964
21
-4.3353486
0
LINE
8
layer0
10
-6.647964
20
-4.3353486
11
-6.6465234
21
-4.3084437
0
LINE
8
layer0
10
-6.6465234
20
-4.3084437
11
-6.6490857
21
-4.2834458
0
LINE
8
layer0
10
-6.6490857
20
-4.2834458
11
-6.6555644
21
-4.2605242
0
LINE
8
layer0
10
-6.6555644
20
-4.2605242
11
-6.6658797
21
-4.2398177
0
LINE
8
layer0
10
-6.6658797
20
-4.2398177
11
-6.7467151
21
-4.1100267
0
LINE
8
layer0
10
-6.7467151
20
-4.1100267
11
-6.8416007
21
-3.95
0
LINE
8
layer0
10
-6.8416007
20
-3.95
11
-6.9327451
21
-3.7878133
0
LINE
8
layer0
10
-6.9327451
20
-3.7878133
11
-7.0047297
21
-3.6529123
0
LINE
8
layer0
10
-7.0047297
20
-3.6529123
11
-7.0175044
21
-3.6336258
0
LINE
8
layer0
10
-7.0175044
20
-3.6336258
11
-7.0341157
21
-3.6165542
0
LINE
8
layer0
10
-7.0341157
20
-3.6165542
11
-7.0544834
21
-3.6018363
0
LINE
8
layer0
10
-7.0544834
20
-3.6018363
11
-7.078504
21
-3.5896314
0
LINE
8
layer0
10
-7.078504
20
-3.5896314
11
-7.1060837
21
-3.5800819
0
LINE
8
layer0
10
-7.1060837
20
-3.5800819
11
-7.137124
21
-3.5733386
0
LINE
8
layer0
10
-7.137124
20
-3.5733386
11
-7.1715275
21
-3.5695301
0
LINE
8
layer0
10
-7.1715275
20
-3.5695301
11
-7.2091608
21
-3.5687872
0
LINE
8
layer0
10
-7.2091608
20
-3.5687872
11
-7.2936929
21
-3.5770734
0
LINE
8
layer0
10
-7.2936929
20
-3.5770734
11
-7.3897594
21
-3.5992012
0
LINE
8
layer0
10
-7.3897594
20
-3.5992012
11
-7.4963254
21
-3.6361436
0
LINE
8
layer0
10
-7.4963254
20
-3.6361436
11
-7.6197156
21
-3.6920254
0
LINE
8
layer0
10
-7.6197156
20
-3.6920254
11
-7.6807092
21
-3.7145615
0
LINE
8
layer0
10
-7.6807092
20
-3.7145615
11
-7.7999836
21
-3.7479522
0
LINE
8
layer0
10
-7.7999836
20
-3.7479522
11
-7.8819197
21
-3.7656746
0
LINE
8
layer0
10
-7.8819197
20
-3.7656746
11
-7.9791027
21
-3.7824887
0
LINE
8
layer0
10
-7.9791027
20
-3.7824887
11
-8.0922608
21
-3.7972332
0
LINE
8
layer0
10
-8.0922608
20
-3.7972332
11
-8.2196764
21
-3.8084428
0
LINE
8
layer0
10
-8.2196764
20
-3.8084428
11
-8.3629284
21
-3.8150431
0
LINE
8
layer0
10
-8.3629284
20
-3.8150431
11
-8.5203358
21
-3.8157055
0
LINE
8
layer0
10
-8.5203358
20
-3.8157055
11
-8.6940474
21
-3.8091882
0
LINE
8
layer0
10
-8.6940474
20
-3.8091882
11
-8.8818872
21
-3.7942
0
LINE
8
layer0
10
-8.8818872
20
-3.7942
11
-9.0826593
21
-3.7696927
0
LINE
8
layer0
10
-9.0826593
20
-3.7696927
11
-9.274951
21
-3.7383057
0
ARC
8
layer0
10
0.0000166
20
0.0000063
40
10
50
198.0479101
51
201.9520922
0
LINE
8
layer0
10
-9.5079612
20
-3.0981153
11
-9.3808324
21
-2.9504687
0
LINE
8
layer0
10
-9.3808324
20
-2.9504687
11
-9.2427851
21
-2.8026412
0
LINE
8
layer0
10
-9.2427851
20
-2.8026412
11
-9.1085257
21
-2.6704185
0
LINE
8
layer0
10
-9.1085257
20
-2.6704185
11
-8.9796441
21
-2.5537663
0
LINE
8
layer0
10
-8.9796441
20
-2.5537663
11
-8.8586373
21
-2.4530942
0
LINE
8
layer0
10
-8.8586373
20
-2.4530942
11
-8.7446573
21
-2.3660697
0
LINE
8
layer0
10
-8.7446573
20
-2.3660697
11
-8.6398458
21
-2.2927556
0
LINE
8
layer0
10
-8.6398458
20
-2.2927556
11
-8.5436842
21
-2.2313139
0
LINE
8
layer0
10
-8.5436842
20
-2.2313139
11
-8.4584298
21
-2.1817262
0
LINE
8
layer0
10
-8.4584298
20
-2.1817262
11
-8.3842713
21
-2.1426349
0
LINE
8
layer0
10
-8.3842713
20
-2.1426349
11
-8.2714387
21
-2.0915455
0
LINE
8
layer0
10
-8.2714387
20
-2.0915455
11
-8.210229
21
-2.0696032
0
LINE
8
layer0
10
-8.210229
20
-2.0696032
11
-8.0797864
21
-2.0330975
0
LINE
8
layer0
10
-8.0797864
20
-2.0330975
11
-7.9744061
21
-1.9928977
0
LINE
8
layer0
10
-7.9744061
20
-1.9928977
11
-7.8865913
21
-1.9480982
0
LINE
8
layer0
10
-7.8865913
20
-1.9480982
11
-7.8165098
21
-1.9001096
0
LINE
8
layer0
10
-7.8165098
20
-1.9001096
11
-7.7881585
21
-1.8753503
0
LINE
8
layer0
10
-7.7881585
20
-1.8753503
11
-7.764252
21
-1.8503187
0
LINE
8
layer0
10
-7.764252
20
-1.8503187
11
-7.7448083
21
-1.8252007
0
LINE
8
layer0
10
-7.7448083
20
-1.8252007
11
-7.7298193
21
-1.8001575
0
LINE
8
layer0
10
-7.7298193
20
-1.8001575
11
-7.7192636
21
-1.7753679
0
LINE
8
layer0
10
-7.7192636
20
-1.7753679
11
-7.7131215
21
-1.7510011
0
LINE
8
layer0
10
-7.7131215
20
-1.7510011
11
-7.7113699
21
-1.7272461
0
LINE
8
layer0
10
-7.7113699
20
-1.7272461
11
-7.713981
21
-1.7042603
0
LINE
8
layer0
10
-7.713981
20
-1.7042603
11
-7.7455503
21
-1.5546493
0
LINE
8
layer0
10
-7.7455503
20
-1.5546493
11
-7.7799812
21
-1.3718206
0
LINE
8
layer0
10
-7.7799812
20
-1.3718206
11
-7.8101578
21
-1.1882417
0
LINE
8
layer0
10
-7.8101578
20
-1.1882417
11
-7.8316624
21
-1.0368561
0
LINE
8
layer0
10
-7.8316624
20
-1.0368561
11
-7.8370703
21
-1.0143634
0
LINE
8
layer0
10
-7.8370703
20
-1.0143634
11
-7.846841
21
-0.9926401
0
LINE
8
layer0
10
-7.846841
20
-0.9926401
11
-7.8609466
21
-0.9718435
0
LINE
8
layer0
10
-7.8609466
20
-0.9718435
11
-7.8793442
21
-0.9521592
0
LINE
8
layer0
10
-7.8793442
20
-0.9521592
11
-7.9019946
21
-0.9337528
0
LINE
8
layer0
10
-7.9019946
20
-0.9337528
11
-7.9288565
21
-0.9167997
0
LINE
8
layer0
10
-7.9288565
20
-0.9167997
11
-7.9598826
21
-0.9014542
0
LINE
8
layer0
10
-7.9598826
20
-0.9014542
11
-7.9949923
21
-0.8878848
0
LINE
8
layer0
10
-7.9949923
20
-0.8878848
11
-8.0772605
21
-0.8667596
0
LINE
8
layer0
10
-8.0772605
20
-0.8667596
11
-8.1751017
21
-0.8546963
0
LINE
8
layer0
10
-8.1751017
20
-0.8546963
11
-8.287876
21
-0.852963
0
LINE
8
layer0
10
-8.287876
20
-0.852963
11
-8.4229376
21
-0.8632728
0
LINE
8
layer0
10
-8.4229376
20
-0.8632728
11
-8.4879606
21
-0.8635887
0
LINE
8
layer0
10
-8.4879606
20
-0.8635887
11
-8.6114621
21
-0.8541715
0
LINE
8
layer0
10
-8.6114621
20
-0.8541715
11
-8.6945184
21
-0.8428013
0
LINE
8
layer0
10
-8.6945184
20
-0.8428013
11
-8.7915913
21
-0.8253629
0
LINE
8
layer0
10
-8.7915913
20
-0.8253629
11
-8.902968
21
-0.8005158
0
LINE
8
layer0
10
-8.902968
20
-0.8005158
11
-9.0265334
21
-0.7674707
0
LINE
8
layer0
10
-9.0265334
20
-0.7674707
11
-9.1634037
21
-0.7246778
0
LINE
8
layer0
10
-9.1634037
20
-0.7246778
11
-9.3115448
21
-0.6714638
0
LINE
8
layer0
10
-9.3115448
20
-0.6714638
11
-9.4725513
21
-0.6059267
0
LINE
8
layer0
10
-9.4725513
20
-0.6059267
11
-9.6439367
21
-0.5275974
0
LINE
8
layer0
10
-9.6439367
20
-0.5275974
11
-9.8242187
21
-0.4359
0
LINE
8
layer0
10
-9.8242187
20
-0.4359
11
-9.9941788
21
-0.3406382
0
ARC
8
layer0
10
0.0000178
20
0
40
10
50
178.0479092
51
181.9520908
0
LINE
8
layer0
10
-9.9941788
20
0.3406382
11
-9.8242187
21
0.4359
0
LINE
8
layer0
10
-9.8242187
20
0.4359
11
-9.6439367
21
0.5275974
0
LINE
8
layer0
10
-9.6439367
20
0.5275974
11
-9.4725513
21
0.6059267
0
LINE
8
layer0
10
-9.4725513
20
0.6059267
11
-9.3115448
21
0.6714638
0
LINE
8
layer0
10
-9.3115448
20
0.6714638
11
-9.1634037
21
0.7246778
0
LINE
8
layer0
10
-9.1634037
20
0.7246778
11
-9.0265334
21
0.7674707
0
LINE
8
layer0
10
-9.0265334
20
0.7674707
11
-8.902968
21
0.8005158
0
LINE
8
layer0
10
-8.902968
20
0.8005158
11
-8.7915913
21
0.8253629
0
LINE
8
layer0
10
-8.7915913
20
0.8253629
11
-8.6945184
21
0.8428013
0
LINE
8
layer0
10
-8.6945184
20
0.8428013
11
-8.6114621
21
0.8541715
0
LINE
8
layer0
10
-8.6114621
20
0.8541715
11
-8.4879606
21
0.8635887
0
LINE
8
layer0
10
-8.4879606
20
0.8635887
11
-8.4229376
21
0.8632728
0
LINE
8
layer0
10
-8.4229376
20
0.8632728
11
-8.287876
21
0.852963
0
LINE
8
layer0
10
-8.287876
20
0.852963
11
-8.1751017
21
0.8546963
0
LINE
8
layer0
10
-8.1751017
20
0.8546963
11
-8.0772605
21
0.8667596
0
LINE
8
layer0
10
-8.0772605
20
0.8667596
11
-7.9949923
21
0.8878848
0
LINE
8
layer0
10
-7.9949923
20
0.8878848
11
-7.9598826
21
0.9014542
0
LINE
8
layer0
10
-7.9598826
20
0.9014542
11
-7.9288565
21
0.9167997
0
LINE
8
layer0
10
-7.9288565
20
0.9167997
11
-7.9019946
21
0.9337528
0
LINE
8
layer0
10
-7.9019946
20
0.9337528
11
-7.8793442
21
0.9521592
0
LINE
8
layer0
10
-7.8793442
20
0.9521592
11
-7.8609466
21
0.9718435
0
LINE
8
layer0
10
-7.8609466
20
0.9718435
11
-7.846841
21
0.9926401
0
LINE
8
layer0
10
-7.846841
20
0.9926401
11
-7.8370703
21
1.0143634
0
LINE
8
layer0
10
-7.8370703
20
1.0143634
11
-7.8316624
21
1.0368561
0
LINE
8
layer0
10
-7.8316624
20
1.0368561
11
-7.8101578
21
1.1882417
0
LINE
8
layer0
10
-7.8101578
20
1.1882417
11
-7.7799812
21
1.3718206
0
LINE
8
layer0
10
-7.7799812
20
1.3718206
11
-7.7455503
21
1.5546493
0
LINE
8
layer0
10
-7.7455503
20
1.5546493
11
-7.713981
21
1.7042603
0
LINE
8
layer0
10
-7.713981
20
1.7042603
11
-7.7113699
21
1.7272461
0
LINE
8
layer0
10
-7.7113699
20
1.7272461
11
-7.7131215
21
1.7510011
0
LINE
8
layer0
10
-7.7131215
20
1.7510011
11
-7.7192636
21
1.7753679
0
LINE
8
layer0
10
-7.7192636
20
1.7753679
11
-7.7298193
21
1.8001575
0
LINE
8
layer0
10
-7.7298193
20
1.8001575
11
-7.7448083
21
1.8252007
0
LINE
8
layer0
10
-7.7448083
20
1.8252007
11
-7.764252
21
1.8503187
0
LINE
8
layer0
10
-7.764252
20
1.8503187
11
-7.7881585
21
1.8753503
0
LINE
8
layer0
10
-7.7881585
20
1.8753503
11
-7.8165098
21
1.9001096
0
LINE
8
layer0
10
-7.8165098
20
1.9001096
11
-7.8865913
21
1.9480982
0
LINE
8
layer0
10
-7.8865913
20
1.9480982
11
-7.9744061
21
1.9928977
0
LINE
8
layer0
10
-7.9744061
20
1.9928977
11
-8.0797864
21
2.0330975
0
LINE
8
layer0
10
-8.0797864
20
2.0330975
11
-8.210229
21
2.0696032
0
LINE
8
layer0
10
-8.210229
20
2.0696032
11
-8.2714387
21
2.0915455
0
LINE
8
layer0
10
-8.2714387
20
2.0915455
11
-8.3842713
21
2.1426349
0
LINE
8
layer0
10
-8.3842713
20
2.1426349
11
-8.4584298
21
2.1817262
0
LINE
8
layer0
10
-8.4584298
20
2.1817262
11
-8.5436842
21
2.2313139
0
LINE
8
layer0
10
-8.5436842
20
2.2313139
11
-8.6398458
21
2.2927556
0
LINE
8
layer0
10
-8.6398458
20
2.2927556
11
-8.7446573
21
2.3660697
0
LINE
8
layer0
10
-8.7446573
20
2.3660697
11
-8.8586373
21
2.4530942
0
LINE
8
layer0
10
-8.8586373
20
2.4530942
11
-8.9796441
21
2.5537663
0
LINE
8
layer0
10
-8.9796441
20
2.5537663
11
-9.1085257
21
2.6704185
0
LINE
8
layer0
10
-9.1085257
20
2.6704185
11
-9.2427851
21
2.8026412
0
LINE
8
layer0
10
-9.2427851
20
2.8026412
11
-9.3808324
21
2.9504687
0
LINE
8
layer0
10
-9.3808324
20
2.9504687
11
-9.5079612
21
3.0981153
0
ARC
8
layer0
10
0.0000167
20
-0.0000062
40
10
50
158.0479078
51
161.9520899
0
LINE
8
layer0
10
-9.274951
20
3.7383057
11
-9.0826593
21
3.7696927
0
LINE
8
layer0
10
-9.0826593
20
3.7696927
11
-8.8818872
21
3.7942
0
LINE
8
layer0
10
-8.8818872
20
3.7942
11
-8.6940474
21
3.8091882
0
LINE
8
layer0
10
-8.6940474
20
3.8091882
11
-8.5203358
21
3.8157055
0
LINE
8
layer0
10
-8.5203358
20
3.8157055
11
-8.3629284
21
3.8150431
0
LINE
8
layer0
10
-8.3629284
20
3.8150431
11
-8.2196764
21
3.8084428
0
LINE
8
layer0
10
-8.2196764
20
3.8084428
11
-8.0922608
21
3.7972332
0
LINE
8
layer0
10
-8.0922608
20
3.7972332
11
-7.9791027
21
3.7824887
0
LINE
8
layer0
10
-7.9791027
20
3.7824887
11
-7.8819197
21
3.7656746
0
LINE
8
layer0
10
-7.8819197
20
3.7656746
11
-7.7999836
21
3.7479522
0
LINE
8
layer0
10
-7.7999836
20
3.7479522
11
-7.6807092
21
3.7145615
0
LINE
8
layer0
10
-7.6807092
20
3.7145615
11
-7.6197156
21
3.6920254
0
LINE
8
layer0
10
-7.6197156
20
3.6920254
11
-7.4963254
21
3.6361436
0
LINE
8
layer0
10
-7.4963254
20
3.6361436
11
-7.3897594
21
3.5992012
0
LINE
8
layer0
10
-7.3897594
20
3.5992012
11
-7.2936929
21
3.5770734
0
LINE
8
layer0
10
-7.2936929
20
3.5770734
11
-7.2091608
21
3.5687872
0
LINE
8
layer0
10
-7.2091608
20
3.5687872
11
-7.1715275
21
3.5695301
0
LINE
8
layer0
10
-7.1715275
20
3.5695301
11
-7.137124
21
3.5733386
0
LINE
8
layer0
10
-7.137124
20
3.5733386
11
-7.1060837
21
3.5800819
0
LINE
8
layer0
10
-7.1060837
20
3.5800819
11
-7.078504
21
3.5896314
0
LINE
8
layer0
10
-7.078504
20
3.5896314
11
-7.0544834
21
3.6018363
0
LINE
8
layer0
10
-7.0544834
20
3.6018363
11
-7.0341157
21
3.6165542
0
LINE
8
layer0
10
-7.0341157
20
3.6165542
11
-7.0175044
21
3.6336258
0
LINE
8
layer0
10
-7.0175044
20
3.6336258
11
-7.0047297
21
3.6529123
0
LINE
8
layer0
10
-7.0047297
20
3.6529123
11
-6.9327451
21
3.7878133
0
LINE
8
layer0
10
-6.9327451
20
3.7878133
11
-6.8416007
21
3.95
0
LINE
8
layer0
10
-6.8416007
20
3.95
11
-6.7467151
21
4.1100267
0
LINE
8
layer0
10
-6.7467151
20
4.1100267
11
-6.6658797
21
4.2398177
0
LINE
8
layer0
10
-6.6658797
20
4.2398177
11
-6.6555644
21
4.2605242
0
LINE
8
layer0
10
-6.6555644
20
4.2605242
11
-6.6490857
21
4.2834458
0
LINE
8
layer0
10
-6.6490857
20
4.2834458
11
-6.6465234
21
4.3084437
0
LINE
8
layer0
10
-6.6465234
20
4.3084437
11
-6.647964
21
4.3353486
0
LINE
8
layer0
10
-6.647964
20
4.3353486
11
-6.6534837
21
4.3640081
0
LINE
8
layer0
10
-6.6534837
20
4.3640081
11
-6.663164
21
4.3942614
0
LINE
8
layer0
10
-6.663164
20
4.3942614
11
-6.6770675
21
4.4259599
0
LINE
8
layer0
10
-6.6770675
20
4.4259599
11
-6.6952408
21
4.4589228
0
LINE
8
layer0
10
-6.6952408
20
4.4589228
11
-6.7446829
21
4.5279866
0
LINE
8
layer0
10
-6.7446829
20
4.5279866
11
-6.8118794
21
4.6001188
0
LINE
8
layer0
10
-6.8118794
20
4.6001188
11
-6.8971554
21
4.6739364
0
LINE
8
layer0
10
-6.8971554
20
4.6739364
11
-7.0072456
21
4.7528546
0
LINE
8
layer0
10
-7.0072456
20
4.7528546
11
-7.0572592
21
4.7944085
0
LINE
8
layer0
10
-7.0572592
20
4.7944085
11
-7.1458136
21
4.8810078
0
LINE
8
layer0
10
-7.1458136
20
4.8810078
11
-7.2021297
21
4.9431054
0
LINE
8
layer0
10
-7.2021297
20
4.9431054
11
-7.2652827
21
5.0188613
0
LINE
8
layer0
10
-7.2652827
20
5.0188613
11
-7.3346308
21
5.1094868
0
LINE
8
layer0
10
-7.3346308
20
5.1094868
11
-7.4080464
21
5.2142272
0
LINE
8
layer0
10
-7.4080464
20
5.2142272
11
-7.4853884
21
5.3349869
0
LINE
8
layer0
10
-7.4853884
20
5.3349869
11
-7.5646658
21
5.4709745
0
LINE
8
layer0
10
-7.5646658
20
5.4709745
11
-7.6458774
21
5.6246718
0
LINE
8
layer0
10
-7.6458774
20
5.6246718
11
-7.7268172
21
5.79484
0
LINE
8
layer0
10
-7.7268172
20
5.79484
11
-7.8059793
21
5.9809673
0
LINE
8
layer0
10
-7.8059793
20
5.9809673
11
-7.8749432
21
6.1631903
0
ARC
8
layer0
10
0.0000131
20
-0.0000121
40
10
50
138.0479043
51
141.9520861
0
LINE
8
layer0
10
-7.4370271
20
6.6850783
11
-7.2455971
21
6.6488048
0
LINE
8
layer0
10
-7.2455971
20
6.6488048
11
-7.0485511
21
6.6031661
0
LINE
8
layer0
10
-7.0485511
20
6.6031661
11
-6.8669131
21
6.5530053
0
LINE
8
layer0
10
-6.8669131
20
6.5530053
11
-6.7014485
21
6.4997168
0
LINE
8
layer0
10
-6.7014485
20
6.4997168
11
-6.5537606
21
6.4452578
0
LINE
8
layer0
10
-6.5537606
20
6.4452578
11
-6.4214051
21
6.3900605
0
LINE
8
layer0
10
-6.4214051
20
6.3900605
11
-6.3055075
21
6.3359482
0
LINE
8
layer0
10
-6.3055075
20
6.3359482
11
-6.2042166
21
6.2833906
0
LINE
8
layer0
10
-6.2042166
20
6.2833906
11
-6.1186452
21
6.2343519
0
LINE
8
layer0
10
-6.1186452
20
6.2343519
11
-6.0477119
21
6.1896745
0
LINE
8
layer0
10
-6.0477119
20
6.1896745
11
-5.9470509
21
6.1175032
0
LINE
8
layer0
10
-5.9470509
20
6.1175032
11
-5.8974435
21
6.0754653
0
LINE
8
layer0
10
-5.8974435
20
6.0754653
11
-5.8006073
21
5.9807516
0
LINE
8
layer0
10
-5.8006073
20
5.9807516
11
-5.7131031
21
5.9095894
0
LINE
8
layer0
10
-5.7131031
20
5.9095894
11
-5.6303982
21
5.8559393
0
LINE
8
layer0
10
-5.6303982
20
5.8559393
11
-5.5537981
21
5.8192412
0
LINE
8
layer0
10
-5.5537981
20
5.8192412
11
-5.5181802
21
5.8070679
0
LINE
8
layer0
10
-5.5181802
20
5.8070679
11
-5.484549
21
5.7988801
0
LINE
8
layer0
10
-5.484549
20
5.7988801
11
-5.4530743
21
5.7946003
0
LINE
8
layer0
10
-5.4530743
20
5.7946003
11
-5.4238917
21
5.7941411
0
LINE
8
layer0
10
-5.4238917
20
5.7941411
11
-5.3971455
21
5.7973944
0
LINE
8
layer0
10
-5.3971455
20
5.7973944
11
-5.3729722
21
5.8042586
0
LINE
8
layer0
10
-5.3729722
20
5.8042586
11
-5.3515239
21
5.8146192
0
LINE
8
layer0
10
-5.3515239
20
5.8146192
11
-5.3329232
21
5.8283734
0
LINE
8
layer0
10
-5.3329232
20
5.8283734
11
-5.2191409
21
5.9305187
0
LINE
8
layer0
10
-5.2191409
20
5.9305187
11
-5.0780221
21
6.0517511
0
LINE
8
layer0
10
-5.0780221
20
6.0517511
11
-4.9341264
21
6.1696742
0
LINE
8
layer0
10
-4.9341264
20
6.1696742
11
-4.8137749
21
6.2639905
0
LINE
8
layer0
10
-4.8137749
20
6.2639905
11
-4.7969997
21
6.2799203
0
LINE
8
layer0
10
-4.7969997
20
6.2799203
11
-4.783072
21
6.2992436
0
LINE
8
layer0
10
-4.783072
20
6.2992436
11
-4.7721145
21
6.3218577
0
LINE
8
layer0
10
-4.7721145
20
6.3218577
11
-4.7642662
21
6.3476327
0
LINE
8
layer0
10
-4.7642662
20
6.3476327
11
-4.7596509
21
6.3764517
0
LINE
8
layer0
10
-4.7596509
20
6.3764517
11
-4.7584001
21
6.4081913
0
LINE
8
layer0
10
-4.7584001
20
6.4081913
11
-4.7606236
21
6.4427334
0
LINE
8
layer0
10
-4.7606236
20
6.4427334
11
-4.766427
21
6.479924
0
LINE
8
layer0
10
-4.766427
20
6.479924
11
-4.7892661
21
6.561733
0
LINE
8
layer0
10
-4.7892661
20
6.561733
11
-4.8277395
21
6.6524976
0
LINE
8
layer0
10
-4.8277395
20
6.6524976
11
-4.8826256
21
6.7510297
0
LINE
8
layer0
10
-4.8826256
20
6.7510297
11
-4.959085
21
6.8628415
0
LINE
8
layer0
10
-4.959085
20
6.8628415
11
-4.9918701
21
6.9189951
0
LINE
8
layer0
10
-4.9918701
20
6.9189951
11
-5.0454653
21
7.0306592
0
LINE
8
layer0
10
-5.0454653
20
7.0306592
11
-5.0771465
21
7.1082731
0
LINE
8
layer0
10
-5.0771465
20
7.1082731
11
-5.1105809
21
7.2010599
0
LINE
8
layer0
10
-5.1105809
20
7.2010599
11
-5.144751
21
7.3099385
0
LINE
8
layer0
10
-5.144751
20
7.3099385
11
-5.1779158
21
7.4334719
0
LINE
8
layer0
10
-5.1779158
20
7.4334719
11
-5.2092913
21
7.5734015
0
LINE
8
layer0
10
-5.2092913
20
7.5734015
11
-5.2372771
21
7.7283024
0
LINE
8
layer0
10
-5.2372771
20
7.7283024
11
-5.2610235
21
7.9005067
0
LINE
8
layer0
10
-5.2610235
20
7.9005067
11
-5.2788811
21
8.0880955
0
LINE
8
layer0
10
-5.2788811
20
8.0880955
11
-5.2896098
21
8.290073
0
LINE
8
layer0
10
-5.2896098
20
8.290073
11
-5.2920908
21
8.4848937
0
ARC
8
layer0
10
0.0000086
20
-0.0000155
40
10
50
118.0479075
51
121.9520892
0
LINE
8
layer0
10
-4.7020881
20
8.8255319
11
-4.5346089
21
8.725973
0
LINE
8
layer0
10
-4.5346089
20
8.725973
11
-4.3650556
21
8.6156929
0
LINE
8
layer0
10
-4.3650556
20
8.6156929
11
-4.2115278
21
8.5064334
0
LINE
8
layer0
10
-4.2115278
20
8.5064334
11
-4.0742677
21
8.3997663
0
LINE
8
layer0
10
-4.0742677
20
8.3997663
11
-3.9541124
21
8.2980793
0
LINE
8
layer0
10
-3.9541124
20
8.2980793
11
-3.8486176
21
8.2009426
0
LINE
8
layer0
10
-3.8486176
20
8.2009426
11
-3.758217
21
8.1104543
0
LINE
8
layer0
10
-3.758217
20
8.1104543
11
-3.6810104
21
8.0264228
0
LINE
8
layer0
10
-3.6810104
20
8.0264228
11
-3.6173718
21
7.9510744
0
LINE
8
layer0
10
-3.6173718
20
7.9510744
11
-3.5659969
21
7.8848307
0
LINE
8
layer0
10
-3.5659969
20
7.8848307
11
-3.4960905
21
7.7825839
0
LINE
8
layer0
10
-3.4960905
20
7.7825839
11
-3.4638526
21
7.7261143
0
LINE
8
layer0
10
-3.4638526
20
7.7261143
11
-3.4052504
21
7.6039926
0
LINE
8
layer0
10
-3.4052504
20
7.6039926
11
-3.3473622
21
7.5071939
0
LINE
8
layer0
10
-3.3473622
20
7.5071939
11
-3.2879944
21
7.4284926
0
LINE
8
layer0
10
-3.2879944
20
7.4284926
11
-3.2285654
21
7.3678089
0
LINE
8
layer0
10
-3.2285654
20
7.3678089
11
-3.199259
21
7.3441877
0
LINE
8
layer0
10
-3.199259
20
7.3441877
11
-3.1704564
21
7.3249911
0
LINE
8
layer0
10
-3.1704564
20
7.3249911
11
-3.1423437
21
7.3102044
0
LINE
8
layer0
10
-3.1423437
20
7.3102044
11
-3.1150781
21
7.2997919
0
LINE
8
layer0
10
-3.1150781
20
7.2997919
11
-3.0888321
21
7.2937012
0
LINE
8
layer0
10
-3.0888321
20
7.2937012
11
-3.063769
21
7.2918837
0
LINE
8
layer0
10
-3.063769
20
7.2918837
11
-3.0400707
21
7.2942837
0
LINE
8
layer0
10
-3.0400707
20
7.2942837
11
-3.0178875
21
7.3008466
0
LINE
8
layer0
10
-3.0178875
20
7.3008466
11
-2.8760314
21
7.357916
0
LINE
8
layer0
10
-2.8760314
20
7.357916
11
-2.7019591
21
7.4235717
0
LINE
8
layer0
10
-2.7019591
20
7.4235717
11
-2.5264094
21
7.485168
0
LINE
8
layer0
10
-2.5264094
20
7.485168
11
-2.3810578
21
7.5326337
0
LINE
8
layer0
10
-2.3810578
20
7.5326337
11
-2.359846
21
7.5418653
0
LINE
8
layer0
10
-2.359846
20
7.5418653
11
-2.3401493
21
7.5552597
0
LINE
8
layer0
10
-2.3401493
20
7.5552597
11
-2.3221181
21
7.5727623
0
LINE
8
layer0
10
-2.3221181
20
7.5727623
11
-2.3059275
21
7.5942986
0
LINE
8
layer0
10
-2.3059275
20
7.5942986
11
-2.2917339
21
7.6198011
0
LINE
8
layer0
10
-2.2917339
20
7.6198011
11
-2.279703
21
7.6491988
0
LINE
8
layer0
10
-2.279703
20
7.6491988
11
-2.2699782
21
7.6824182
0
LINE
8
layer0
10
-2.2699782
20
7.6824182
11
-2.2627117
21
7.7193508
0
LINE
8
layer0
10
-2.2627117
20
7.7193508
11
-2.2561931
21
7.8040376
0
LINE
8
layer0
10
-2.2561931
20
7.8040376
11
-2.261303
21
7.9024871
0
LINE
8
layer0
10
-2.261303
20
7.9024871
11
-2.2791791
21
8.0138491
0
LINE
8
layer0
10
-2.2791791
20
8.0138491
11
-2.3127855
21
8.1450685
0
LINE
8
layer0
10
-2.3127855
20
8.1450685
11
-2.3243878
21
8.2090488
0
LINE
8
layer0
10
-2.3243878
20
8.2090488
11
-2.3365594
21
8.3323094
0
LINE
8
layer0
10
-2.3365594
20
8.3323094
11
-2.3397845
21
8.4160782
0
LINE
8
layer0
10
-2.3397845
20
8.4160782
11
-2.3394676
21
8.5147045
0
LINE
8
layer0
10
-2.3394676
20
8.5147045
11
-2.3343383
21
8.6287038
0
LINE
8
layer0
10
-2.3343383
20
8.6287038
11
-2.3232522
21
8.7561302
0
LINE
8
layer0
10
-2.3232522
20
8.7561302
11
-2.3048767
21
8.898352
0
LINE
8
layer0
10
-2.3048767
20
8.898352
11
-2.2781956
21
9.0534831
0
LINE
8
layer0
10
-2.2781956
20
9.0534831
11
-2.2416125
21
9.2234239
0
LINE
8
layer0
10
-2.2416125
20
9.2234239
11
-2.1942341
21
9.4058073
0
LINE
8
layer0
10
-2.1942341
20
9.4058073
11
-2.1352354
21
9.5992735
0
LINE
8
layer0
10
-2.1352354
20
9.5992735
11
-2.0709341
21
9.7831936
0
ARC
8
layer0
10
0.0000029
20
-0.0000175
40
10
50
98.0479082
51
101.9520898
0
LINE
8
layer0
10
-1.4000078
20
9.901496
11
-1.27668
21
9.75066
0
LINE
8
layer0
10
-1.27668
20
9.75066
11
-1.15507
21
9.58904
0
LINE
8
layer0
10
-1.15507
20
9.58904
11
-1.04817
21
9.43386
0
LINE
8
layer0
10
-1.04817
20
9.43386
11
-0.95567
21
9.28668
0
LINE
8
layer0
10
-0.95567
20
9.28668
11
-0.87754
21
9.15003
0
LINE
8
layer0
10
-0.87754
20
9.15003
11
-0.81163
21
9.02267
0
LINE
8
layer0
10
-0.81163
20
9.02267
11
-0.75763
21
8.90672
0
LINE
8
layer0
10
-0.75763
20
8.90672
11
-0.71382
21
8.80135
0
LINE
8
layer0
10
-0.71382
20
8.80135
11
-0.67979
21
8.70878
0
LINE
8
layer0
10
-0.67979
20
8.70878
11
-0.65417
21
8.62896
0
LINE
8
layer0
10
-0.65417
20
8.62896
11
-0.62345
21
8.50897
0
LINE
8
layer0
10
-0.62345
20
8.50897
11
-0.61247
21
8.44488
0
LINE
8
layer0
10
-0.61247
20
8.44488
11
-0.59917
21
8.31008
0
LINE
8
layer0
10
-0.59917
20
8.31008
11
-0.57788
21
8.19932
0
LINE
8
layer0
10
-0.57788
20
8.19932
11
-0.54901
21
8.10506
0
LINE
8
layer0
10
-0.54901
20
8.10506
11
-0.51392
21
8.02771
0
LINE
8
layer0
10
-0.51392
20
8.02771
11
-0.49446
21
7.99549
0
LINE
8
layer0
10
-0.49446
20
7.99549
11
-0.47396
21
7.9676
0
LINE
8
layer0
10
-0.47396
20
7.9676
11
-0.4526
21
7.94409
0
LINE
8
layer0
10
-0.4526
20
7.94409
11
-0.43054
21
7.92498
0
LINE
8
layer0
10
-0.43054
20
7.92498
11
-0.40796
21
7.91028
0
LINE
8
layer0
10
-0.40796
20
7.91028
11
-0.38503
21
7.9
0
LINE
8
layer0
10
-0.38503
20
7.9
11
-0.36194
21
7.89415
0
LINE
8
layer0
10
-0.36194
20
7.89415
11
-0.33885
21
7.89273
0
LINE
8
layer0
10
-0.33885
20
7.89273
11
-0.18603
21
7.89784
0
LINE
8
layer0
10
-0.18603
20
7.89784
11
0
21
7.9
0
LINE
8
layer0
10
0
20
7.9
11
0.18603
21
7.89784
0
LINE
8
layer0
10
0.18603
20
7.89784
11
0.33885
21
7.89273
0
LINE
8
layer0
10
0.33885
20
7.89273
11
0.36194
21
7.89415
0
LINE
8
layer0
10
0.36194
20
7.89415
11
0.38503
21
7.9
0
LINE
8
layer0
10
0.38503
20
7.9
11
0.40796
21
7.91028
0
LINE
8
layer0
10
0.40796
20
7.91028
11
0.43054
21
7.92498
0
LINE
8
layer0
10
0.43054
20
7.92498
11
0.4526
21
7.94409
0
LINE
8
layer0
10
0.4526
20
7.94409
11
0.47396
21
7.9676
0
LINE
8
layer0
10
0.47396
20
7.9676
11
0.49446
21
7.99549
0
LINE
8
layer0
10
0.49446
20
7.99549
11
0.51392
21
8.02771
0
LINE
8
layer0
10
0.51392
20
8.02771
11
0.54901
21
8.10506
0
LINE
8
layer0
10
0.54901
20
8.10506
11
0.57788
21
8.19932
0
LINE
8
layer0
10
0.57788
20
8.19932
11
0.59917
21
8.31008
0
LINE
8
layer0
10
0.59917
20
8.31008
11
0.61247
21
8.44488
0
LINE
8
layer0
10
0.61247
20
8.44488
11
0.62345
21
8.50897
0
LINE
8
layer0
10
0.62345
20
8.50897
11
0.65417
21
8.62896
0
LINE
8
layer0
10
0.65417
20
8.62896
11
0.67979
21
8.70878
0
LINE
8
layer0
10
0.67979
20
8.70878
11
0.71382
21
8.80135
0
LINE
8
layer0
10
0.71382
20
8.80135
11
0.75763
21
8.90672
0
LINE
8
layer0
10
0.75763
20
8.90672
11
0.81163
21
9.02267
0
LINE
8
layer0
10
0.81163
20
9.02267
11
0.87754
21
9.15003
0
LINE
8
layer0
10
0.87754
20
9.15003
11
0.95567
21
9.28668
0
LINE
8
layer0
10
0.95567
20
9.28668
11
1.04817
21
9.43386
0
LINE
8
layer0
10
1.04817
20
9.43386
11
1.15507
21
9.58904
0
LINE
8
layer0
10
1.15507
20
9.58904
11
1.27668
21
9.75066
0
LINE
8
layer0
10
1.27668
20
9.75066
11
1.4000078
21
9.901496
0
ARC
8
layer0
10
-0.000003
20
-0.0000175
40
10
50
78.0479096
51
81.9520913
0
LINE
8
layer0
10
2.0709341
20
9.7831936
11
2.1352354
21
9.5992735
0
LINE
8
layer0
10
2.1352354
20
9.5992735
11
2.1942341
21
9.4058073
0
LINE
8
layer0
10
2.1942341
20
9.4058073
11
2.2416125
21
9.2234239
0
LINE
8
layer0
10
2.2416125
20
9.2234239
11
2.2781956
21
9.0534831
0
LINE
8
layer0
10
2.2781956
20
9.0534831
11
2.3048767
21
8.898352
0
LINE
8
layer0
10
2.3048767
20
8.898352
11
2.3232522
21
8.7561302
0
LINE
8
layer0
10
2.3232522
20
8.7561302
11
2.3343383
21
8.6287038
0
LINE
8
layer0
10
2.3343383
20
8.6287038
11
2.3394676
21
8.5147045
0
LINE
8
layer0
10
2.3394676
20
8.5147045
11
2.3397845
21
8.4160782
0
LINE
8
layer0
10
2.3397845
20
8.4160782
11
2.3365594
21
8.3323094
0
LINE
8
layer0
10
2.3365594
20
8.3323094
11
2.3243878
21
8.2090488
0
LINE
8
layer0
10
2.3243878
20
8.2090488
11
2.3127855
21
8.1450685
0
LINE
8
layer0
10
2.3127855
20
8.1450685
11
2.2791791
21
8.0138491
0
LINE
8
layer0
10
2.2791791
20
8.0138491
11
2.261303
21
7.9024871
0
LINE
8
layer0
10
2.261303
20
7.9024871
11
2.2561931
21
7.8040376
0
LINE
8
layer0
10
2.2561931
20
7.8040376
11
2.2627117
21
7.7193508
0
LINE
8
layer0
10
2.2627117
20
7.7193508
11
2.2699782
21
7.6824182
0
LINE
8
layer0
10
2.2699782
20
7.6824182
11
2.279703
21
7.6491988
0
LINE
8
layer0
10
2.279703
20
7.6491988
11
2.2917339
21
7.6198011
0
LINE
8
layer0
10
2.2917339
20
7.6198011
11
2.3059275
21
7.5942986
0
LINE
8
layer0
10
2.3059275
20
7.5942986
11
2.3221181
21
7.5727623
0
LINE
8
layer0
10
2.3221181
20
7.5727623
11
2.3401493
21
7.5552597
0
LINE
8
layer0
10
2.3401493
20
7.5552597
11
2.359846
21
7.5418653
0
LINE
8
layer0
10
2.359846
20
7.5418653
11
2.3810578
21
7.5326337
0
LINE
8
layer0
10
2.3810578
20
7.5326337
11
2.5264094
21
7.485168
0
LINE
8
layer0
10
2.5264094
20
7.485168
11
2.7019591
21
7.4235717
0
LINE
8
layer0
10
2.7019591
20
7.4235717
11
2.8760314
21
7.357916
0
LINE
8
layer0
10
2.8760314
20
7.357916
11
3.0178875
21
7.3008466
0
LINE
8
layer0
10
3.0178875
20
7.3008466
11
3.0400707
21
7.2942837
0
LINE
8
layer0
10
3.0400707
20
7.2942837
11
3.063769
21
7.2918837
0
LINE
8
layer0
10
3.063769
20
7.2918837
11
3.0888321
21
7.2937012
0
LINE
8
layer0
10
3.0888321
20
7.2937012
11
3.1150781
21
7.2997919
0
LINE
8
layer0
10
3.1150781
20
7.2997919
11
3.1423437
21
7.3102044
0
LINE
8
layer0
10
3.1423437
20
7.3102044
11
3.1704564
21
7.3249911
0
LINE
8
layer0
10
3.1704564
20
7.3249911
11
3.199259
21
7.3441877
0
LINE
8
layer0
10
3.199259
20
7.3441877
11
3.2285654
21
7.3678089
0
LINE
8
layer0
10
3.2285654
20
7.3678089
11
3.2879944
21
7.4284926
0
LINE
8
layer0
10
3.2879944
20
7.4284926
11
3.3473622
21
7.5071939
0
LINE
8
layer0
10
3.3473622
20
7.5071939
11
3.4052504
21
7.6039926
0
LINE
8
layer0
10
3.4052504
20
7.6039926
11
3.4638526
21
7.7261143
0
LINE
8
layer0
10
3.4638526
20
7.7261143
11
3.4960905
21
7.7825839
0
LINE
8
layer0
10
3.4960905
20
7.7825839
11
3.5659969
21
7.8848307
0
LINE
8
layer0
10
3.5659969
20
7.8848307
11
3.6173718
21
7.9510744
0
LINE
8
layer0
10
3.6173718
20
7.9510744
11
3.6810104
21
8.0264228
0
LINE
8
layer0
10
3.6810104
20
8.0264228
11
3.758217
21
8.1104543
0
LINE
8
layer0
10
3.758217
20
8.1104543
11
3.8486176
21
8.2009426
0
LINE
8
layer0
10
3.8486176
20
8.2009426
11
3.9541124
21
8.2980793
0
LINE
8
layer0
10
3.9541124
20
8.2980793
11
4.0742677
21
8.3997663
0
LINE
8
layer0
10
4.0742677
20
8.3997663
11
4.2115278
21
8.5064334
0
LINE
8
layer0
10
4.2115278
20
8.5064334
11
4.3650556
21
8.6156929
0
LINE
8
layer0
10
4.3650556
20
8.6156929
11
4.5346089
21
8.725973
0
LINE
8
layer0
10
4.5346089
20
8.725973
11
4.7020881
21
8.8255319
0
ARC
8
layer0
10
-0.0000087
20
-0.0000154
40
10
50
58.0479101
51
61.9520917
0
LINE
8
layer0
10
5.2920908
20
8.4848937
11
5.2896098
21
8.290073
0
LINE
8
layer0
10
5.2896098
20
8.290073
11
5.2788811
21
8.0880955
0
LINE
8
layer0
10
5.2788811
20
8.0880955
11
5.2610235
21
7.9005067
0
LINE
8
layer0
10
5.2610235
20
7.9005067
11
5.2372771
21
7.7283024
0
LINE
8
layer0
10
5.2372771
20
7.7283024
11
5.2092913
21
7.5734015
0
LINE
8
layer0
10
5.2092913
20
7.5734015
11
5.1779158
21
7.4334719
0
LINE
8
layer0
10
5.1779158
20
7.4334719
11
5.144751
21
7.3099385
0
LINE
8
layer0
10
5.144751
20
7.3099385
11
5.1105809
21
7.2010599
0
LINE
8
layer0
10
5.1105809
20
7.2010599
11
5.0771465
21
7.1082731
0
LINE
8
layer0
10
5.0771465
20
7.1082731
11
5.0454653
21
7.0306592
0
LINE
8
layer0
10
5.0454653
20
7.0306592
11
4.9918701
21
6.9189951
0
LINE
8
layer0
10
4.9918701
20
6.9189951
11
4.959085
21
6.8628415
0
LINE
8
layer0
10
4.959085
20
6.8628415
11
4.8826256
21
6.7510297
0
LINE
8
layer0
10
4.8826256
20
6.7510297
11
4.8277395
21
6.6524976
0
LINE
8
layer0
10
4.8277395
20
6.6524976
11
4.7892661
21
6.561733
0
LINE
8
layer0
10
4.7892661
20
6.561733
11
4.766427
21
6.479924
0
LINE
8
layer0
10
4.766427
20
6.479924
11
4.7606236
21
6.4427334
0
LINE
8
layer0
10
4.7606236
20
6.4427334
11
4.7584001
21
6.4081913
0
LINE
8
layer0
10
4.7584001
20
6.4081913
11
4.7596509
21
6.3764517
0
LINE
8
layer0
10
4.7596509
20
6.3764517
11
4.7642662
21
6.3476327
0
LINE
8
layer0
10
4.7642662
20
6.3476327
11
4.7721145
21
6.3218577
0
LINE
8
layer0
10
4.7721145
20
6.3218577
11
4.783072
21
6.2992436
0
LINE
8
layer0
10
4.783072
20
6.2992436
11
4.7969997
21
6.2799203
0
LINE
8
layer0
10
4.7969997
20
6.2799203
11
4.8137749
21
6.2639905
0
LINE
8
layer0
10
4.8137749
20
6.2639905
11
4.9341264
21
6.1696742
0
LINE
8
layer0
10
4.9341264
20
6.1696742
11
5.0780221
21
6.0517511
0
LINE
8
layer0
10
5.0780221
20
6.0517511
11
5.2191409
21
5.9305187
0
LINE
8
layer0
10
5.2191409
20
5.9305187
11
5.3329232
21
5.8283734
0
LINE
8
layer0
10
5.3329232
20
5.8283734
11
5.3515239
21
5.8146192
0
LINE
8
layer0
10
5.3515239
20
5.8146192
11
5.3729722
21
5.8042586
0
LINE
8
layer0
10
5.3729722
20
5.8042586
11
5.3971455
21
5.7973944
0
LINE
8
layer0
10
5.3971455
20
5.7973944
11
5.4238917
21
5.7941411
0
LINE
8
layer0
10
5.4238917
20
5.7941411
11
5.4530743
21
5.7946003
0
LINE
8
layer0
10
5.4530743
20
5.7946003
11
5.484549
21
5.7988801
0
LINE
8
layer0
10
5.484549
20
5.7988801
11
5.5181802
21
5.8070679
0
LINE
8
layer0
10
5.5181802
20
5.8070679
11
5.5537981
21
5.8192412
0
LINE
8
layer0
10
5.5537981
20
5.8192412
11
5.6303982
21
5.8559393
0
LINE
8
layer0
10
5.6303982
20
5.8559393
11
5.7131031
21
5.9095894
0
LINE
8
layer0
10
5.7131031
20
5.9095894
11
5.8006073
21
5.9807516
0
LINE
8
layer0
10
5.8006073
20
5.9807516
11
5.8974435
21
6.0754653
0
LINE
8
layer0
10
5.8974435
20
6.0754653
11
5.9470509
21
6.1175032
0
LINE
8
layer0
10
5.9470509
20
6.1175032
11
6.0477119
21
6.1896745
0
LINE
8
layer0
10
6.0477119
20
6.1896745
11
6.1186452
21
6.2343519
0
LINE
8
layer0
10
6.1186452
20
6.2343519
11
6.2042166
21
6.2833906
0
LINE
8
layer0
10
6.2042166
20
6.2833906
11
6.3055075
21
6.3359482
0
LINE
8
layer0
10
6.3055075
20
6.3359482
11
6.4214051
21
6.3900605
0
LINE
8
layer0
10
6.4214051
20
6.3900605
11
6.5537606
21
6.4452578
0
LINE
8
layer0
10
6.5537606
20
6.4452578
11
6.7014485
21
6.4997168
0
LINE
8
layer0
10
6.7014485
20
6.4997168
11
6.8669131
21
6.5530053
0
LINE
8
layer0
10
6.8669131
20
6.5530053
11
7.0485511
21
6.6031661
0
LINE
8
layer0
10
7.0485511
20
6.6031661
11
7.2455971
21
6.6488048
0
LINE
8
layer0
10
7.2455971
20
6.6488048
11
7.4370271
21
6.6850783
0
ARC
8
layer0
10
-0.0000131
20
-0.000012
40
10
50
38.0479135
51
41.9520953
0
LINE
8
layer0
10
7.8749432
20
6.1631903
11
7.8059793
21
5.9809673
0
LINE
8
layer0
10
7.8059793
20
5.9809673
11
7.7268172
21
5.79484
0
LINE
8
layer0
10
7.7268172
20
5.79484
11
7.6458774
21
5.6246718
0
LINE
8
layer0
10
7.6458774
20
5.6246718
11
7.5646658
21
5.4709745
0
LINE
8
layer0
10
7.5646658
20
5.4709745
11
7.4853884
21
5.3349869
0
LINE
8
layer0
10
7.4853884
20
5.3349869
11
7.4080464
21
5.2142272
0
LINE
8
layer0
10
7.4080464
20
5.2142272
11
7.3346308
21
5.1094868
0
LINE
8
layer0
10
7.3346308
20
5.1094868
11
7.2652827
21
5.0188613
0
LINE
8
layer0
10
7.2652827
20
5.0188613
11
7.2021297
21
4.9431054
0
LINE
8
layer0
10
7.2021297
20
4.9431054
11
7.1458136
21
4.8810078
0
LINE
8
layer0
10
7.1458136
20
4.8810078
11
7.0572592
21
4.7944085
0
LINE
8
layer0
10
7.0572592
20
4.7944085
11
7.0072456
21
4.7528546
0
LINE
8
layer0
10
7.0072456
20
4.7528546
11
6.8971554
21
4.6739364
0
LINE
8
layer0
10
6.8971554
20
4.6739364
11
6.8118794
21
4.6001188
0
LINE
8
layer0
10
6.8118794
20
4.6001188
11
6.7446829
21
4.5279866
0
LINE
8
layer0
10
6.7446829
20
4.5279866
11
6.6952408
21
4.4589228
0
LINE
8
layer0
10
6.6952408
20
4.4589228
11
6.6770675
21
4.4259599
0
LINE
8
layer0
10
6.6770675
20
4.4259599
11
6.663164
21
4.3942614
0
LINE
8
layer0
10
6.663164
20
4.3942614
11
6.6534837
21
4.3640081
0
LINE
8
layer0
10
6.6534837
20
4.3640081
11
6.647964
21
4.3353486
0
LINE
8
layer0
10
6.647964
20
4.3353486
11
6.6465234
21
4.3084437
0
LINE
8
layer0
10
6.6465234
20
4.3084437
11
6.6490857
21
4.2834458
0
LINE
8
layer0
10
6.6490857
20
4.2834458
11
6.6555644
21
4.2605242
0
LINE
8
layer0
10
6.6555644
20
4.2605242
11
6.6658797
21
4.2398177
0
LINE
8
layer0
10
6.6658797
20
4.2398177
11
6.7467151
21
4.1100267
0
LINE
8
layer0
10
6.7467151
20
4.1100267
11
6.8416007
21
3.95
0
LINE
8
layer0
10
6.8416007
20
3.95
11
6.9327451
21
3.7878133
0
LINE
8
layer0
10
6.9327451
20
3.7878133
11
7.0047297
21
3.6529123
0
LINE
8
layer0
10
7.0047297
20
3.6529123
11
7.0175044
21
3.6336258
0
LINE
8
layer0
10
7.0175044
20
3.6336258
11
7.0341157
21
3.6165542
0
LINE
8
layer0
10
7.0341157
20
3.6165542
11
7.0544834
21
3.6018363
0
LINE
8
layer0
10
7.0544834
20
3.6018363
11
7.078504
21
3.5896314
0
LINE
8
layer0
10
7.078504
20
3.5896314
11
7.1060837
21
3.5800819
0
LINE
8
layer0
10
7.1060837
20
3.5800819
11
7.137124
21
3.5733386
0
LINE
8
layer0
10
7.137124
20
3.5733386
11
7.1715275
21
3.5695301
0
LINE
8
layer0
10
7.1715275
20
3.5695301
11
7.2091608
21
3.5687872
0
LINE
8
layer0
10
7.2091608
20
3.5687872
11
7.2936929
21
3.5770734
0
LINE
8
layer0
10
7.2936929
20
3.5770734
11
7.3897594
21
3.5992012
0
LINE
8
layer0
10
7.3897594
20
3.5992012
11
7.4963254
21
3.6361436
0
LINE
8
layer0
10
7.4963254
20
3.6361436
11
7.6197156
21
3.6920254
0
LINE
8
layer0
10
7.6197156
20
3.6920254
11
7.6807092
21
3.7145615
0
LINE
8
layer0
10
7.6807092
20
3.7145615
11
7.7999836
21
3.7479522
0
LINE
8
layer0
10
7.7999836
20
3.7479522
11
7.8819197
21
3.7656746
0
LINE
8
layer0
10
7.8819197
20
3.7656746
11
7.9791027
21
3.7824887
0
LINE
8
layer0
10
7.9791027
20
3.7824887
11
8.0922608
21
3.7972332
0
LINE
8
layer0
10
8.0922608
20
3.7972332
11
8.2196764
21
3.8084428
0
LINE
8
layer0
10
8.2196764
20
3.8084428
11
8.3629284
21
3.8150431
0
LINE
8
layer0
10
8.3629284
20
3.8150431
11
8.5203358
21
3.8157055
0
LINE
8
layer0
10
8.5203358
20
3.8157055
11
8.6940474
21
3.8091882
0
LINE
8
layer0
10
8.6940474
20
3.8091882
11
8.8818872
21
3.7942
0
LINE
8
layer0
10
8.8818872
20
3.7942
11
9.0826593
21
3.7696927
0
LINE
8
layer0
10
9.0826593
20
3.7696927
11
9.274951
21
3.7383057
0
ARC
8
layer0
10
-0.0000166
20
-0.0000063
40
10
50
18.0479101
51
21.9520922
0
LINE
8
layer0
10
9.5079612
20
3.0981153
11
9.3808324
21
2.9504687
0
LINE
8
layer1
10
9.3808324
20
2.9504687
11
9.2427851
21
2.8026412
0
LINE
8
layer1
10
9.2427851
20
2.8026412
11
9.1085257
21
2.6704185
0
LINE
8
layer1
10
9.1085257
20
2.6704185
11
8.9796441
21
2.5537663
0
LINE
8
layer1
10
8.9796441
20
2.5537663
11
8.8586373
21
2.4530942
0
LINE
8
layer1
10
8.8586373
20
2.4530942
11
8.7446573
21
2.3660697
0
LINE
8
layer1
10
8.7446573
20
2.3660697
11
8.6398458
21
2.2927556
0
LINE
8
layer1
10
8.6398458
20
2.2927556
11
8.5436842
21
2.2313139
0
LINE
8
layer1
10
8.5436842
20
2.2313139
11
8.4584298
21
2.1817262
0
LINE
8
layer1
10
8.4584298
20
2.1817262
11
8.3842713
21
2.1426349
0
LINE
8
layer1
10
8.3842713
20
2.1426349
11
8.2714387
21
2.0915455
0
LINE
8
layer1
10
8.2714387
20
2.0915455
11
8.210229
21
2.0696032
0
LINE
8
layer1
10
8.210229
20
2.0696032
11
8.0797864
21
2.0330975
0
LINE
8
layer1
10
8.0797864
20
2.0330975
11
7.9744061
21
1.9928977
0
LINE
8
layer1
10
7.9744061
20
1.9928977
11
7.8865913
21
1.9480982
0
LINE
8
layer1
10
7.8865913
20
1.9480982
11
7.8165098
21
1.9001096
0
LINE
8
layer1
10
7.8165098
20
1.9001096
11
7.7881585
21
1.8753503
0
LINE
8
layer1
10
7.7881585
20
1.8753503
11
7.764252
21
1.8503187
0
LINE
8
layer1
10
7.764252
20
1.8503187
11
7.7448083
21
1.8252007
0
LINE
8
layer1
10
7.7448083
20
1.8252007
11
7.7298193
21
1.8001575
0
LINE
8
layer1
10
7.7298193
20
1.8001575
11
7.7192636
21
1.7753679
0
LINE
8
layer1
10
7.7192636
20
1.7753679
11
7.7131215
21
1.7510011
0
LINE
8
layer1
10
7.7131215
20
1.7510011
11
7.7113699
21
1.7272461
0
LINE
8
layer1
10
7.7113699
20
1.7272461
11
7.713981
21
1.7042603
0
LINE
8
layer1
10
7.713981
20
1.7042603
11
7.7455503
21
1.5546493
0
LINE
8
layer1
10
7.7455503
20
1.5546493
11
7.7799812
21
1.3718206
0
LINE
8
layer1
10
7.7799812
20
1.3718206
11
7.8101578
21
1.1882417
0
LINE
8
layer1
10
7.8101578
20
1.1882417
11
7.8316624
21
1.0368561
0
LINE
8
layer1
10
7.8316624
20
1.0368561
11
7.8370703
21
1.0143634
0
LINE
8
layer1
10
7.8370703
20
1.0143634
11
7.846841
21
0.9926401
0
LINE
8
layer1
10
7.846841
20
0.9926401
11
7.8609466
21
0.9718435
0
LINE
8
layer1
10
7.8609466
20
0.9718435
11
7.8793442
21
0.9521592
0
LINE
8
layer1
10
7.8793442
20
0.9521592
11
7.9019946
21
0.9337528
0
LINE
8
layer1
10
7.9019946
20
0.9337528
11
7.9288565
21
0.9167997
0
LINE
8
layer1
10
7.9288565
20
0.9167997
11
7.9598826
21
0.9014542
0
LINE
8
layer1
10
7.9598826
20
0.9014542
11
7.9949923
21
0.8878848
0
LINE
8
layer1
10
7.9949923
20
0.8878848
11
8.0772605
21
0.8667596
0
LINE
8
layer1
10
8.0772605
20
0.8667596
11
8.1751017
21
0.8546963
0
LINE
8
layer1
10
8.1751017
20
0.8546963
11
8.287876
21
0.852963
0
LINE
8
layer1
10
8.287876
20
0.852963
11
8.4229376
21
0.8632728
0
LINE
8
layer1
10
8.4229376
20
0.8632728
11
8.4879606
21
0.8635887
0
LINE
8
layer1
10
8.4879606
20
0.8635887
11
8.6114621
21
0.8541715
0
LINE
8
layer1
10
8.6114621
20
0.8541715
11
8.6945184
21
0.8428013
0
LINE
8
layer1
10
8.6945184
20
0.8428013
11
8.7915913
21
0.8253629
0
LINE
8
layer1
10
8.7915913
20
0.8253629
11
8.902968
21
0.8005158
0
LINE
8
layer1
10
8.902968
20
0.8005158
11
9.0265334
21
0.7674707
0
LINE
8
layer1
10
9.0265334
20
0.7674707
11
9.1634037
21
0.7246778
0
LINE
8
layer1
10
9.1634037
20
0.7246778
11
9.3115448
21
0.6714638
0
LINE
8
layer1
10
9.3115448
20
0.6714638
11
9.4725513
21
0.6059267
0
LINE
8
layer1
10
9.4725513
20
0.6059267
11
9.6439367
21
0.5275974
0
LINE
8
layer1
10
9.6439367
20
0.5275974
11
9.8242187
21
0.4359
0
LINE
8
layer1
10
9.8242187
20
0.4359
11
9.9941788
21
0.3406382
0
ARC
8
layer1
10
-0.0000178
20
0
40
10
50
358.0479092
51
361.9520908
0
LINE
8
layer1
10
9.9941788
20
-0.3406382
11
9.8242187
21
-0.4359
0
LINE
8
layer1
10
9.8242187
20
-0.4359
11
9.6439367
21
-0.5275974
0
LINE
8
layer1
10
9.6439367
20
-0.5275974
11
9.4725513
21
-0.6059267
0
LINE
8
layer1
10
9.4725513
20
-0.6059267
11
9.3115448
21
-0.6714638
0
LINE
8
layer1
10
9.3115448
20
-0.6714638
11
9.1634037
21
-0.7246778
0
LINE
8
layer1
10
9.1634037
20
-0.7246778
11
9.0265334
21
-0.7674707
0
LINE
8
layer1
10
9.0265334
20
-0.7674707
11
8.902968
21
-0.8005158
0
LINE
8
layer1
10
8.902968
20
-0.8005158
11
8.7915913
21
-0.8253629
0
LINE
8
layer1
10
8.7915913
20
-0.8253629
11
8.6945184
21
-0.8428013
0
LINE
8
layer1
10
8.6945184
20
-0.8428013
11
8.6114621
21
-0.8541715
0
LINE
8
layer1
10
8.6114621
20
-0.8541715
11
8.4879606
21
-0.8635887
0
LINE
8
layer1
10
8.4879606
20
-0.8635887
11
8.4229376
21
-0.8632728
0
LINE
8
layer1
10
8.4229376
20
-0.8632728
11
8.287876
21
-0.852963
0
LINE
8
layer1
10
8.287876
20
-0.852963
11
8.1751017
21
-0.8546963
0
LINE
8
layer1
10
8.1751017
20
-0.8546963
11
8.0772605
21
-0.8667596
0
LINE
8
layer1
10
8.0772605
20
-0.8667596
11
7.9949923
21
-0.8878848
0
LINE
8
layer1
10
7.9949923
20
-0.8878848
11
7.9598826
21
-0.9014542
0
LINE
8
layer1
10
7.9598826
20
-0.9014542
11
7.9288565
21
-0.9167997
0
LINE
8
layer1
10
7.9288565
20
-0.9167997
11
7.9019946
21
-0.9337528
0
LINE
8
layer1
10
7.9019946
20
-0.9337528
11
7.8793442
21
-0.9521592
0
LINE
8
layer1
10
7.8793442
20
-0.9521592
11
7.8609466
21
-0.9718435
0
LINE
8
layer1
10
7.8609466
20
-0.9718435
11
7.846841
21
-0.9926401
0
LINE
8
layer1
10
7.846841
20
-0.9926401
11
7.8370703
21
-1.0143634
0
LINE
8
layer1
10
7.8370703
20
-1.0143634
11
7.8316624
21
-1.0368561
0
LINE
8
layer1
10
7.8316624
20
-1.0368561
11
7.8101578
21
-1.1882417
0
LINE
8
layer1
10
7.8101578
20
-1.1882417
11
7.7799812
21
-1.3718206
0
LINE
8
layer1
10
7.7799812
20
-1.3718206
11
7.7455503
21
-1.5546493
0
LINE
8
layer1
10
7.7455503
20
-1.5546493
11
7.713981
21
-1.7042603
0
LINE
8
layer1
10
7.713981
20
-1.7042603
11
7.7113699
21
-1.7272461
0
LINE
8
layer1
10
7.7113699
20
-1.7272461
11
7.7131215
21
-1.7510011
0
LINE
8
layer1
10
7.7131215
20
-1.7510011
11
7.7192636
21
-1.7753679
0
LINE
8
layer1
10
7.7192636
20
-1.7753679
11
7.7298193
21
-1.8001575
0
LINE
8
layer1
10
7.7298193
20
-1.8001575
11
7.7448083
21
-1.8252007
0
LINE
8
layer1
10
7.7448083
20
-1.8252007
11
7.764252
21
-1.8503187
0
LINE
8
layer1
10
7.764252
20
-1.8503187
11
7.7881585
21
-1.8753503
0
LINE
8
layer1
10
7.7881585
20
-1.8753503
11
7.8165098
21
-1.9001096
0
LINE
8
layer1
10
7.8165098
20
-1.9001096
11
7.8865913
21
-1.9480982
0
LINE
8
layer1
10
7.8865913
20
-1.9480982
11
7.9744061
21
-1.9928977
0
LINE
8
layer1
10
7.9744061
20
-1.9928977
11
8.0797864
21
-2.0330975
0
LINE
8
layer1
10
8.0797864
20
-2.0330975
11
8.210229
21
-2.0696032
0
LINE
8
layer1
10
8.210229
20
-2.0696032
11
8.2714387
21
-2.0915455
0
LINE
8
layer1
10
8.2714387
20
-2.0915455
11
8.3842713
21
-2.1426349
0
LINE
8
layer1
10
8.3842713
20
-2.1426349
11
8.4584298
21
-2.1817262
0
LINE
8
layer1
10
8.4584298
20
-2.1817262
11
8.5436842
21
-2.2313139
0
LINE
8
layer1
10
8.5436842
20
-2.2313139
11
8.6398458
21
-2.2927556
0
LINE
8
layer1
10
8.6398458
20
-2.2927556
11
8.7446573
21
-2.3660697
0
LINE
8
layer1
10
8.7446573
20
-2.3660697
11
8.8586373
21
-2.4530942
0
LINE
8
layer1
10
8.8586373
20
-2.4530942
11
8.9796441
21
-2.5537663
0
LINE
8
layer1
10
8.9796441
20
-2.5537663
11
9.1085257
21
-2.6704185
0
LINE
8
layer1
10
9.1085257
20
-2.6704185
11
9.2427851
21
-2.8026412
0
LINE
8
layer1
10
9.2427851
20
-2.8026412
11
9.3808324
21
-2.9504687
0
LINE
8
layer1
10
9.3808324
20
-2.9504687
11
9.5079612
21
-3.0981153
0
ARC
8
layer1
10
-0.0000167
20
0.0000062
40
10
50
338.0479078
51
341.9520899
0
LINE
8
layer1
10
9.274951
20
-3.7383057
11
9.0826593
21
-3.7696927
0
LINE
8
layer1
10
9.0826593
20
-3.7696927
11
8.8818872
21
-3.7942
0
LINE
8
layer1
10
8.8818872
20
-3.7942
11
8.6940474
21
-3.8091882
0
LINE
8
layer1
10
8.6940474
20
-3.8091882
11
8.5203358
21
-3.8157055
0
LINE
8
layer1
10
8.5203358
20
-3.8157055
11
8.3629284
21
-3.8150431
0
LINE
8
layer1
10
8.3629284
20
-3.8150431
11
8.2196764
21
-3.8084428
0
LINE
8
layer1
10
8.2196764
20
-3.8084428
11
8.0922608
21
-3.7972332
0
LINE
8
layer1
10
8.0922608
20
-3.7972332
11
7.9791027
21
-3.7824887
0
LINE
8
layer1
10
7.9791027
20
-3.7824887
11
7.8819197
21
-3.7656746
0
LINE
8
layer1
10
7.8819197
20
-3.7656746
11
7.7999836
21
-3.7479522
0
LINE
8
layer1
10
7.7999836
20
-3.7479522
11
7.6807092
21
-3.7145615
0
LINE
8
layer1
10
7.6807092
20
-3.7145615
11
7.6197156
21
-3.6920254
0
LINE
8
layer1
10
7.6197156
20
-3.6920254
11
7.4963254
21
-3.6361436
0
LINE
8
layer1
10
7.4963254
20
-3.6361436
11
7.3897594
21
-3.5992012
0
LINE
8
layer1
10
7.3897594
20
-3.5992012
11
7.2936929
21
-3.5770734
0
LINE
8
layer1
10
7.2936929
20
-3.5770734
11
7.2091608
21
-3.5687872
0
LINE
8
layer1
10
7.2091608
20
-3.5687872
11
7.1715275
21
-3.5695301
0
LINE
8
layer1
10
7.1715275
20
-3.5695301
11
7.137124
21
-3.5733386
0
LINE
8
layer1
10
7.137124
20
-3.5733386
11
7.1060837
21
-3.5800819
0
LINE
8
layer1
10
7.1060837
20
-3.5800819
11
7.078504
21
-3.5896314
0
LINE
8
layer1
10
7.078504
20
-3.5896314
11
7.0544834
21
-3.6018363
0
LINE
8
layer1
10
7.0544834
20
-3.6018363
11
7.0341157
21
-3.6165542
0
LINE
8
layer1
10
7.0341157
20
-3.6165542
11
7.0175044
21
-3.6336258
0
LINE
8
layer1
10
7.0175044
20
-3.6336258
11
7.0047297
21
-3.6529123
0
LINE
8
layer1
10
7.0047297
20
-3.6529123
11
6.9327451
21
-3.7878133
0
LINE
8
layer1
10
6.9327451
20
-3.7878133
11
6.8416007
21
-3.95
0
LINE
8
layer1
10
6.8416007
20
-3.95
11
6.7467151
21
-4.1100267
0
LINE
8
layer1
10
6.7467151
20
-4.1100267
11
6.6658797
21
-4.2398177
0
LINE
8
layer1
10
6.6658797
20
-4.2398177
11
6.6555644
21
-4.2605242
0
LINE
8
layer1
10
6.6555644
20
-4.2605242
11
6.6490857
21
-4.2834458
0
LINE
8
layer1
10
6.6490857
20
-4.2834458
11
6.6465234
21
-4.3084437
0
LINE
8
layer1
10
6.6465234
20
-4.3084437
11
6.647964
21
-4.3353486
0
LINE
8
layer1
10
6.647964
20
-4.3353486
11
6.6534837
21
-4.3640081
0
LINE
8
layer1
10
6.6534837
20
-4.3640081
11
6.663164
21
-4.3942614
0
LINE
8
layer1
10
6.663164
20
-4.3942614
11
6.6770675
21
-4.4259599
0
LINE
8
layer1
10
6.6770675
20
-4.4259599
11
6.6952408
21
-4.4589228
0
LINE
8
layer1
10
6.6952408
20
-4.4589228
11
6.7446829
21
-4.5279866
0
LINE
8
layer1
10
6.7446829
20
-4.5279866
11
6.8118794
21
-4.6001188
0
LINE
8
layer1
10
6.8118794
20
-4.6001188
11
6.8971554
21
-4.6739364
0
LINE
8
layer1
10
6.8971554
20
-4.6739364
11
7.0072456
21
-4.7528546
0
LINE
8
layer1
10
7.0072456
20
-4.7528546
11
7.0572592
21
-4.7944085
0
LINE
8
layer1
10
7.0572592
20
-4.7944085
11
7.1458136
21
-4.8810078
0
LINE
8
layer1
10
7.1458136
20
-4.8810078
11
7.2021297
21
-4.9431054
0
LINE
8
layer1
10
7.2021297
20
-4.9431054
11
7.2652827
21
-5.0188613
0
LINE
8
layer1
10
7.2652827
20
-5.0188613
11
7.3346308
21
-5.1094868
0
LINE
8
layer1
10
7.3346308
20
-5.1094868
11
7.4080464
21
-5.2142272
0
LINE
8
layer1
10
7.4080464
20
-5.2142272
11
7.4853884
21
-5.3349869
0
LINE
8
layer1
10
7.4853884
20
-5.3349869
11
7.5646658
21
-5.4709745
0
LINE
8
layer1
10
7.5646658
20
-5.4709745
11
7.6458774
21
-5.6246718
0
LINE
8
layer1
10
7.6458774
20
-5.6246718
11
7.7268172
21
-5.79484
0
LINE
8
layer1
10
7.7268172
20
-5.79484
11
7.8059793
21
-5.9809673
0
LINE
8
layer1
10
7.8059793
20
-5.9809673
11
7.8749432
21
-6.1631903
0
ARC
8
layer1
10
-0.0000131
20
0.0000121
40
10
50
318.0479043
51
321.9520861
0
LINE
8
layer1
10
7.4370271
20
-6.6850783
11
7.2455971
21
-6.6488048
0
LINE
8
layer1
10
7.2455971
20
-6.6488048
11
7.0485511
21
-6.6031661
0
LINE
8
layer1
10
7.0485511
20
-6.6031661
11
6.8669131
21
-6.5530053
0
LINE
8
layer1
10
6.8669131
20
-6.5530053
11
6.7014485
21
-6.4997168
0
LINE
8
layer1
10
6.7014485
20
-6.4997168
11
6.5537606
21
-6.4452578
0
LINE
8
layer1
10
6.5537606
20
-6.4452578
11
6.4214051
21
-6.3900605
0
LINE
8
layer1
10
6.4214051
20
-6.3900605
11
6.3055075
21
-6.3359482
0
LINE
8
layer1
10
6.3055075
20
-6.3359482
11
6.2042166
21
-6.2833906
0
LINE
8
layer1
10
6.2042166
20
-6.2833906
11
6.1186452
21
-6.2343519
0
LINE
8
layer1
10
6.1186452
20
-6.2343519
11
6.0477119
21
-6.1896745
0
LINE
8
layer1
10
6.0477119
20
-6.1896745
11
5.9470509
21
-6.1175032
0
LINE
8
layer1
10
5.9470509
20
-6.1175032
11
5.8974435
21
-6.0754653
0
LINE
8
layer1
10
5.8974435
20
-6.0754653
11
5.8006073
21
-5.9807516
0
LINE
8
layer1
10
5.8006073
20
-5.9807516
11
5.7131031
21
-5.9095894
0
LINE
8
layer1
10
5.7131031
20
-5.9095894
11
5.6303982
21
-5.8559393
0
LINE
8
layer1
10
5.6303982
20
-5.8559393
11
5.5537981
21
-5.8192412
0
LINE
8
layer1
10
5.5537981
20
-5.8192412
11
5.5181802
21
-5.8070679
0
LINE
8
layer1
10
5.5181802
20
-5.8070679
11
5.484549
21
-5.7988801
0
LINE
8
layer1
10
5.484549
20
-5.7988801
11
5.4530743
21
-5.7946003
0
LINE
8
layer1
10
5.4530743
20
-5.7946003
11
5.4238917
21
-5.7941411
0
LINE
8
layer1
10
5.4238917
20
-5.7941411
11
5.3971455
21
-5.7973944
0
LINE
8
layer1
10
5.3971455
20
-5.7973944
11
5.3729722
21
-5.8042586
0
LINE
8
layer1
10
5.3729722
20
-5.8042586
11
5.3515239
21
-5.8146192
0
LINE
8
layer1
10
5.3515239
20
-5.8146192
11
5.3329232
21
-5.8283734
0
LINE
8
layer1
10
5.3329232
20
-5.8283734
11
5.2191409
21
-5.9305187
0
LINE
8
layer1
10
5.2191409
20
-5.9305187
11
5.0780221
21
-6.0517511
0
LINE
8
layer1
10
5.0780221
20
-6.0517511
11
4.9341264
21
-6.1696742
0
LINE
8
layer1
10
4.9341264
20
-6.1696742
11
4.8137749
21
-6.2639905
0
LINE
8
layer1
10
4.8137749
20
-6.2639905
11
4.7969997
21
-6.2799203
0
LINE
8
layer1
10
4.7969997
20
-6.2799203
11
4.783072
21
-6.2992436
0
LINE
8
layer1
10
4.783072
20
-6.2992436
11
4.7721145
21
-6.3218577
0
LINE
8
layer1
10
4.7721145
20
-6.3218577
11
4.7642662
21
-6.3476327
0
LINE
8
layer1
10
4.7642662
20
-6.3476327
11
4.7596509
21
-6.3764517
0
LINE
8
layer1
10
4.7596509
20
-6.3764517
11
4.7584001
21
-6.4081913
0
LINE
8
layer1
10
4.7584001
20
-6.4081913
11
4.7606236
21
-6.4427334
0
LINE
8
layer1
10
4.7606236
20
-6.4427334
11
4.766427
21
-6.479924
0
LINE
8
layer1
10
4.766427
20
-6.479924
11
4.7892661
21
-6.561733
0
LINE
8
layer1
10
4.7892661
20
-6.561733
11
4.8277395
21
-6.6524976
0
LINE
8
layer1
10
4.8277395
20
-6.6524976
11
4.8826256
21
-6.7510297
0
LINE
8
layer1
10
4.8826256
20
-6.7510297
11
4.959085
21
-6.8628415
0
LINE
8
layer1
10
4.959085
20
-6.8628415
11
4.9918701
21
-6.9189951
0
LINE
8
layer1
10
4.9918701
20
-6.9189951
11
5.0454653
21
-7.0306592
0
LINE
8
layer1
10
5.0454653
20
-7.0306592
11
5.0771465
21
-7.1082731
0
LINE
8
layer1
10
5.0771465
20
-7.1082731
11
5.1105809
21
-7.2010599
0
LINE
8
layer1
10
5.1105809
20
-7.2010599
11
5.144751
21
-7.3099385
0
LINE
8
layer1
10
5.144751
20
-7.3099385
11
5.1779158
21
-7.4334719
0
LINE
8
layer1
10
5.1779158
20
-7.4334719
11
5.2092913
21
-7.5734015
0
LINE
8
layer1
10
5.2092913
20
-7.5734015
11
5.2372771
21
-7.7283024
0
LINE
8
layer1
10
5.2372771
20
-7.7283024
11
5.2610235
21
-7.9005067
0
LINE
8
layer1
10
5.2610235
20
-7.9005067
11
5.2788811
21
-8.0880955
0
LINE
8
layer1
10
5.2788811
20
-8.0880955
11
5.2896098
21
-8.290073
0
LINE
8
layer1
10
5.2896098
20
-8.290073
11
5.2920908
21
-8.4848937
0
ARC
8
layer1
10
-0.0000086
20
0.0000155
40
10
50
298.0479075
51
301.9520892
0
LINE
8
layer1
10
4.7020881
20
-8.8255319
11
4.5346089
21
-8.725973
0
LINE
8
layer1
10
4.5346089
20
-8.725973
11
4.3650556
21
-8.6156929
0
LINE
8
layer1
10
4.3650556
20
-8.6156929
11
4.2115278
21
-8.5064334
0
LINE
8
layer1
10
4.2115278
20
-8.5064334
11
4.0742677
21
-8.3997663
0
LINE
8
layer1
10
4.0742677
20
-8.3997663
11
3.9541124
21
-8.2980793
0
LINE
8
layer1
10
3.9541124
20
-8.2980793
11
3.8486176
21
-8.2009426
0
LINE
8
layer1
10
3.8486176
20
-8.2009426
11
3.758217
21
-8.1104543
0
LINE
8
layer1
10
3.758217
20
-8.1104543
11
3.6810104
21
-8.0264228
0
LINE
8
layer1
10
3.6810104
20
-8.0264228
11
3.6173718
21
-7.9510744
0
LINE
8
layer1
10
3.6173718
20
-7.9510744
11
3.5659969
21
-7.8848307
0
LINE
8
layer1
10
3.5659969
20
-7.8848307
11
3.4960905
21
-7.7825839
0
LINE
8
layer1
10
3.4960905
20
-7.7825839
11
3.4638526
21
-7.7261143
0
LINE
8
layer1
10
3.4638526
20
-7.7261143
11
3.4052504
21
-7.6039926
0
LINE
8
layer1
10
3.4052504
20
-7.6039926
11
3.3473622
21
-7.5071939
0
LINE
8
layer1
10
3.3473622
20
-7.5071939
11
3.2879944
21
-7.4284926
0
LINE
8
layer1
10
3.2879944
20
-7.4284926
11
3.2285654
21
-7.3678089
0
LINE
8
layer1
10
3.2285654
20
-7.3678089
11
3.199259
21
-7.3441877
0
LINE
8
layer1
10
3.199259
20
-7.3441877
11
3.1704564
21
-7.3249911
0
LINE
8
layer1
10
3.1704564
20
-7.3249911
11
3.1423437
21
-7.3102044
0
LINE
8
layer1
10
3.1423437
20
-7.3102044
11
3.1150781
21
-7.2997919
0
LINE
8
layer1
10
3.1150781
20
-7.2997919
11
3.0888321
21
-7.2937012
0
LINE
8
layer1
10
3.0888321
20
-7.2937012
11
3.063769
21
-7.2918837
0
LINE
8
layer1
10
3.063769
20
-7.2918837
11
3.0400707
21
-7.2942837
0
LINE
8
layer1
10
3.0400707
20
-7.2942837
11
3.0178875
21
-7.3008466
0
LINE
8
layer1
10
3.0178875
20
-7.3008466
11
2.8760314
21
-7.357916
0
LINE
8
layer1
10
2.8760314
20
-7.357916
11
2.7019591
21
-7.4235717
0
LINE
8
layer1
10
2.7019591
20
-7.4235717
11
2.5264094
21
-7.485168
0
LINE
8
layer1
10
2.5264094
20
-7.485168
11
2.3810578
21
-7.5326337
0
LINE
8
layer1
10
2.3810578
20
-7.5326337
11
2.359846
21
-7.5418653
0
LINE
8
layer1
10
2.359846
20
-7.5418653
11
2.3401493
21
-7.5552597
0
LINE
8
layer1
10
2.3401493
20
-7.5552597
11
2.3221181
21
-7.5727623
0
LINE
8
layer1
10
2.3221181
20
-7.5727623
11
2.3059275
21
-7.5942986
0
LINE
8
layer1
10
2.3059275
20
-7.5942986
11
2.2917339
21
-7.6198011
0
LINE
8
layer1
10
2.2917339
20
-7.6198011
11
2.279703
21
-7.6491988
0
LINE
8
layer1
10
2.279703
20
-7.6491988
11
2.2699782
21
-7.6824182
0
LINE
8
layer1
10
2.2699782
20
-7.6824182
11
2.2627117
21
-7.7193508
0
LINE
8
layer1
10
2.2627117
20
-7.7193508
11
2.2561931
21
-7.8040376
0
LINE
8
layer1
10
2.2561931
20
-7.8040376
11
2.261303
21
-7.9024871
0
LINE
8
layer1
10
2.261303
20
-7.9024871
11
2.2791791
21
-8.0138491
0
LINE
8
layer1
10
2.2791791
20
-8.0138491
11
2.3127855
21
-8.1450685
0
LINE
8
layer1
10
2.3127855
20
-8.1450685
11
2.3243878
21
-8.2090488
0
LINE
8
layer1
10
2.3243878
20
-8.2090488
11
2.3365594
21
-8.3323094
0
LINE
8
layer1
10
2.3365594
20
-8.3323094
11
2.3397845
21
-8.4160782
0
LINE
8
layer1
10
2.3397845
20
-8.4160782
11
2.3394676
21
-8.5147045
0
LINE
8
layer1
10
2.3394676
20
-8.5147045
11
2.3343383
21
-8.6287038
0
LINE
8
layer1
10
2.3343383
20
-8.6287038
11
2.3232522
21
-8.7561302
0
LINE
8
layer1
10
2.3232522
20
-8.7561302
11
2.3048767
21
-8.898352
0
LINE
8
layer1
10
2.3048767
20
-8.898352
11
2.2781956
21
-9.0534831
0
LINE
8
layer1
10
2.2781956
20
-9.0534831
11
2.2416125
21
-9.2234239
0
LINE
8
layer1
10
2.2416125
20
-9.2234239
11
2.1942341
21
-9.4058073
0
LINE
8
layer1
10
2.1942341
20
-9.4058073
11
2.1352354
21
-9.5992735
0
LINE
8
layer1
10
2.1352354
20
-9.5992735
11
2.0709341
21
-9.7831936
0
ARC
8
layer1
10
-0.0000029
20
0.0000175
40
10
50
278.0479082
51
281.9520898
0
LINE
8
layer1
10
1.4000078
20
-9.901496
11
1.27668
21
-9.75066
0
LINE
8
layer1
10
1.27668
20
-9.75066
11
1.15507
21
-9.58904
0
LINE
8
layer1
10
1.15507
20
-9.58904
11
1.04817
21
-9.43386
0
LINE
8
layer1
10
1.04817
20
-9.43386
11
0.95567
21
-9.28668
0
LINE
8
layer1
10
0.95567
20
-9.28668
11
0.87754
21
-9.15003
0
LINE
8
layer1
10
0.87754
20
-9.15003
11
0.81163
21
-9.02267
0
LINE
8
layer1
10
0.81163
20
-9.02267
11
0.75763
21
-8.90672
0
LINE
8
layer1
10
0.75763
20
-8.90672
11
0.71382
21
-8.80135
0
LINE
8
layer1
10
0.71382
20
-8.80135
11
0.67979
21
-8.70878
0
LINE
8
layer1
10
0.67979
20
-8.70878
11
0.65417
21
-8.62896
0
LINE
8
layer1
10
0.65417
20
-8.62896
11
0.62345
21
-8.50897
0
LINE
8
layer1
10
0.62345
20
-8.50897
11
0.61247
21
-8.44488
0
LINE
8
layer1
10
0.61247
20
-8.44488
11
0.59917
21
-8.31008
0
LINE
8
layer1
10
0.59917
20
-8.31008
11
0.57788
21
-8.19932
0
LINE
8
layer1
10
0.57788
20
-8.19932
11
0.54901
21
-8.10506
0
LINE
8
layer1
10
0.54901
20
-8.10506
11
0.51392
21
-8.02771
0
LINE
8
layer1
10
0.51392
20
-8.02771
11
0.49446
21
-7.99549
0
LINE
8
layer1
10
0.49446
20
-7.99549
11
0.47396
21
-7.9676
0
LINE
8
layer1
10
0.47396
20
-7.9676
11
0.4526
21
-7.94409
0
LINE
8
layer1
10
0.4526
20
-7.94409
11
0.43054
21
-7.92498
0
LINE
8
layer1
10
0.43054
20
-7.92498
11
0.40796
21
-7.91028
0
LINE
8
layer1
10
0.40796
20
-7.91028
11
0.38503
21
-7.9
0
LINE
8
layer1
10
0.38503
20
-7.9
11
0.36194
21
-7.89415
0
LINE
8
layer1
10
0.36194
20
-7.89415
11
0.33885
21
-7.89273
0
LINE
8
layer1
10
0.33885
20
-7.89273
11
0.18603
21
-7.89784
0
LINE
8
layer1
10
0.18603
20
-7.89784
11
0
21
-7.9
0
LINE
8
layer1
10
0
20
-7.9
11
-0.18603
21
-7.89784
0
LINE
8
layer1
10
-0.18603
20
-7.89784
11
-0.33885
21
-7.89273
0
LINE
8
layer1
10
-0.33885
20
-7.89273
11
-0.36194
21
-7.89415
0
LINE
8
layer1
10
-0.36194
20
-7.89415
11
-0.38503
21
-7.9
0
LINE
8
layer1
10
-0.38503
20
-7.9
11
-0.40796
21
-7.91028
0
LINE
8
layer1
10
-0.40796
20
-7.91028
11
-0.43054
21
-7.92498
0
LINE
8
layer1
10
-0.43054
20
-7.92498
11
-0.4526
21
-7.94409
0
LINE
8
layer1
10
-0.4526
20
-7.94409
11
-0.47396
21
-7.9676
0
LINE
8
layer1
10
-0.47396
20
-7.9676
11
-0.49446
21
-7.99549
0
LINE
8
layer1
10
-0.49446
20
-7.99549
11
-0.51392
21
-8.02771
0
LINE
8
layer1
10
-0.51392
20
-8.02771
11
-0.54901
21
-8.10506
0
LINE
8
layer1
10
-0.54901
20
-8.10506
11
-0.57788
21
-8.19932
0
LINE
8
layer1
10
-0.57788
20
-8.19932
11
-0.59917
21
-8.31008
0
LINE
8
layer1
10
-0.59917
20
-8.31008
11
-0.61247
21
-8.44488
0
LINE
8
layer1
10
-0.61247
20
-8.44488
11
-0.62345
21
-8.50897
0
LINE
8
layer1
10
-0.62345
20
-8.50897
11
-0.65417
21
-8.62896
0
LINE
8
layer1
10
-0.65417
20
-8.62896
11
-0.67979
21
-8.70878
0
LINE
8
layer1
10
-0.67979
20
-8.70878
11
-0.71382
21
-8.80135
0
LINE
8
layer1
10
-0.71382
20
-8.80135
11
-0.75763
21
-8.90672
0
LINE
8
layer1
10
-0.75763
20
-8.90672
11
-0.81163
21
-9.02267
0
LINE
8
layer1
10
-0.81163
20
-9.02267
11
-0.87754
21
-9.15003
0
LINE
8
layer1
10
-0.87754
20
-9.15003
11
-0.95567
21
-9.28668
0
LINE
8
layer1
10
-0.95567
20
-9.28668
11
-1.04817
21
-9.43386
0
LINE
8
layer1
10
-1.04817
20
-9.43386
11
-1.15507
21
-9.58904
0
LINE
8
layer1
10
-1.15507
20
-9.58904
11
-1.27668
21
-9.75066
0
LINE
8
layer1
10
-1.27668
20
-9.75066
11
-1.4000078
21
-9.901496
0
ARC
8
layer1
10
0.000003
20
0.0000175
40
10
50
258.0479096
51
261.9520913
0
LINE
8
layer1
10
-2.0709341
20
-9.7831936
11
-2.1352354
21
-9.5992735
0
LINE
8
layer1
10
-2.1352354
20
-9.5992735
11
-2.1942341
21
-9.4058073
0
LINE
8
layer1
10
-2.1942341
20
-9.4058073
11
-2.2416125
21
-9.2234239
0
LINE
8
layer1
10
-2.2416125
20
-9.2234239
11
-2.2781956
21
-9.0534831
0
LINE
8
layer1
10
-2.2781956
20
-9.0534831
11
-2.3048767
21
-8.898352
0
LINE
8
layer1
10
-2.3048767
20
-8.898352
11
-2.3232522
21
-8.7561302
0
LINE
8
layer1
10
-2.3232522
20
-8.7561302
11
-2.3343383
21
-8.6287038
0
LINE
8
layer1
10
-2.3343383
20
-8.6287038
11
-2.3394676
21
-8.5147045
0
LINE
8
layer1
10
-2.3394676
20
-8.5147045
11
-2.3397845
21
-8.4160782
0
LINE
8
layer1
10
-2.3397845
20
-8.4160782
11
-2.3365594
21
-8.3323094
0
LINE
8
layer1
10
-2.3365594
20
-8.3323094
11
-2.3243878
21
-8.2090488
0
LINE
8
layer1
10
-2.3243878
20
-8.2090488
11
-2.3127855
21
-8.1450685
0
LINE
8
layer1
10
-2.3127855
20
-8.1450685
11
-2.2791791
21
-8.0138491
0
LINE
8
layer1
10
-2.2791791
20
-8.0138491
11
-2.261303
21
-7.9024871
0
LINE
8
layer1
10
-2.261303
20
-7.9024871
11
-2.2561931
21
-7.8040376
0
LINE
8
layer1
10
-2.2561931
20
-7.8040376
11
-2.2627117
21
-7.7193508
0
LINE
8
layer1
10
-2.2627117
20
-7.7193508
11
-2.2699782
21
-7.6824182
0
LINE
8
layer1
10
-2.2699782
20
-7.6824182
11
-2.279703
21
-7.6491988
0
LINE
8
layer1
10
-2.279703
20
-7.6491988
11
-2.2917339
21
-7.6198011
0
LINE
8
layer1
10
-2.2917339
20
-7.6198011
11
-2.3059275
21
-7.5942986
0
LINE
8
layer1
10
-2.3059275
20
-7.5942986
11
-2.3221181
21
-7.5727623
0
LINE
8
layer1
10
-2.3221181
20
-7.5727623
11
-2.3401493
21
-7.5552597
0
LINE
8
layer1
10
-2.3401493
20
-7.5552597
11
-2.359846
21
-7.5418653
0
LINE
8
layer1
10
-2.359846
20
-7.5418653
11
-2.3810578
21
-7.5326337
0
LINE
8
layer1
10
-2.3810578
20
-7.5326337
11
-2.5264094
21
-7.485168
0
LINE
8
layer1
10
-2.5264094
20
-7.485168
11
-2.7019591
21
-7.4235717
0
LINE
8
layer1
10
-2.7019591
20
-7.4235717
11
-2.8760314
21
-7.357916
0
LINE
8
layer1
10
-2.8760314
20
-7.357916
11
-3.0178875
21
-7.3008466
0
LINE
8
layer1
10
-3.0178875
20
-7.3008466
11
-3.0400707
21
-7.2942837
0
LINE
8
layer1
10
-3.0400707
20
-7.2942837
11
-3.063769
21
-7.2918837
0
LINE
8
layer1
10
-3.063769
20
-7.2918837
11
-3.0888321
21
-7.2937012
0
LINE
8
layer1
10
-3.0888321
20
-7.2937012
11
-3.1150781
21
-7.2997919
0
LINE
8
layer1
10
-3.1150781
20
-7.2997919
11
-3.1423437
21
-7.3102044
0
LINE
8
layer1
10
-3.1423437
20
-7.3102044
11
-3.1704564
21
-7.3249911
0
LINE
8
layer1
10
-3.1704564
20
-7.3249911
11
-3.199259
21
-7.3441877
0
LINE
8
layer1
10
-3.199259
20
-7.3441877
11
-3.2285654
21
-7.3678089
0
LINE
8
layer1
10
-3.2285654
20
-7.3678089
11
-3.2879944
21
-7.4284926
0
LINE
8
layer1
10
-3.2879944
20
-7.4284926
11
-3.3473622
21
-7.5071939
0
LINE
8
layer1
10
-3.3473622
20
-7.5071939
11
-3.4052504
21
-7.6039926
0
LINE
8
layer1
10
-3.4052504
20
-7.6039926
11
-3.4638526
21
-7.7261143
0
LINE
8
layer1
10
-3.4638526
20
-7.7261143
11
-3.4960905
21
-7.7825839
0
LINE
8
layer1
10
-3.4960905
20
-7.7825839
11
-3.5659969
21
-7.8848307
0
LINE
8
layer1
10
-3.5659969
20
-7.8848307
11
-3.6173718
21
-7.9510744
0
LINE
8
layer1
10
-3.6173718
20
-7.9510744
11
-3.6810104
21
-8.0264228
0
LINE
8
layer1
10
-3.6810104
20
-8.0264228
11
-3.758217
21
-8.1104543
0
LINE
8
layer1
10
-3.758217
20
-8.1104543
11
-3.8486176
21
-8.2009426
0
LINE
8
layer1
10
-3.8486176
20
-8.2009426
11
-3.9541124
21
-8.2980793
0
LINE
8
layer1
10
-3.9541124
20
-8.2980793
11
-4.0742677
21
-8.3997663
0
LINE
8
layer1
10
-4.0742677
20
-8.3997663
11
-4.2115278
21
-8.5064334
0
LINE
8
layer1
10
-4.2115278
20
-8.5064334
11
-4.3650556
21
-8.6156929
0
LINE
8
layer1
10
-4.3650556
20
-8.6156929
11
-4.5346089
21
-8.725973
0
LINE
8
layer1
10
-4.5346089
20
-8.725973
11
-4.7020881
21
-8.8255319
0
ARC
8
layer1
10
0.0000087
20
0.0000154
40
10
50
238.0479101
51
241.9520917
0
LINE
8
layer1
10
-5.2920908
20
-8.4848937
11
-5.2896098
21
-8.290073
0
LINE
8
layer1
10
-5.2896098
20
-8.290073
11
-5.2788811
21
-8.0880955
0
LINE
8
layer1
10
-5.2788811
20
-8.0880955
11
-5.2610235
21
-7.9005067
0
LINE
8
layer1
10
-5.2610235
20
-7.9005067
11
-5.2372771
21
-7.7283024
0
LINE
8
layer1
10
-5.2372771
20
-7.7283024
11
-5.2092913
21
-7.5734015
0
LINE
8
layer1
10
-5.2092913
20
-7.5734015
11
-5.1779158
21
-7.4334719
0
LINE
8
layer1
10
-5.1779158
20
-7.4334719
11
-5.144751
21
-7.3099385
0
LINE
8
layer1
10
-5.144751
20
-7.3099385
11
-5.1105809
21
-7.2010599
0
LINE
8
layer1
10
-5.1105809
20
-7.2010599
11
-5.0771465
21
-7.1082731
0
LINE
8
layer1
10
-5.0771465
20
-7.1082731
11
-5.0454653
21
-7.0306592
0
LINE
8
layer1
10
-5.0454653
20
-7.0306592
11
-4.9918701
21
-6.9189951
0
LINE
8
layer1
10
-4.9918701
20
-6.9189951
11
-4.959085
21
-6.8628415
0
LINE
8
layer1
10
-4.959085
20
-6.8628415
11
-4.8826256
21
-6.7510297
0
LINE
8
layer1
10
-4.8826256
20
-6.7510297
11
-4.8277395
21
-6.6524976
0
LINE
8
layer1
10
-4.8277395
20
-6.6524976
11
-4.7892661
21
-6.561733
0
LINE
8
layer1
10
-4.7892661
20
-6.561733
11
-4.766427
21
-6.479924
0
LINE
8
layer1
10
-4.766427
20
-6.479924
11
-4.7606236
21
-6.4427334
0
LINE
8
layer1
10
-4.7606236
20
-6.4427334
11
-4.7584001
21
-6.4081913
0
LINE
8
layer1
10
-4.7584001
20
-6.4081913
11
-4.7596509
21
-6.3764517
0
LINE
8
layer1
10
-4.7596509
20
-6.3764517
11
-4.7642662
21
-6.3476327
0
LINE
8
layer1
10
-4.7642662
20
-6.3476327
11
-4.7721145
21
-6.3218577
0
LINE
8
layer1
10
-4.7721145
20
-6.3218577
11
-4.783072
21
-6.2992436
0
LINE
8
layer1
10
-4.783072
20
-6.2992436
11
-4.7969997
21
-6.2799203
0
LINE
8
layer1
10
-4.7969997
20
-6.2799203
11
-4.8137749
21
-6.2639905
0
LINE
8
layer1
10
-4.8137749
20
-6.2639905
11
-4.9341264
21
-6.1696742
0
LINE
8
layer1
10
-4.9341264
20
-6.1696742
11
-5.0780221
21
-6.0517511
0
LINE
8
layer1
10
-5.0780221
20
-6.0517511
11
-5.2191409
21
-5.9305187
0
LINE
8
layer1
10
-5.2191409
20
-5.9305187
11
-5.3329232
21
-5.8283734
0
LINE
8
layer1
10
-5.3329232
20
-5.8283734
11
-5.3515239
21
-5.8146192
0
LINE
8
layer1
10
-5.3515239
20
-5.8146192
11
-5.3729722
21
-5.8042586
0
LINE
8
layer1
10
-5.3729722
20
-5.8042586
11
-5.3971455
21
-5.7973944
0
LINE
8
layer1
10
-5.3971455
20
-5.7973944
11
-5.4238917
21
-5.7941411
0
LINE
8
layer1
10
-5.4238917
20
-5.7941411
11
-5.4530743
21
-5.7946003
0
LINE
8
layer1
10
-5.4530743
20
-5.7946003
11
-5.484549
21
-5.7988801
0
LINE
8
layer1
10
-5.484549
20
-5.7988801
11
-5.5181802
21
-5.8070679
0
LINE
8
layer1
10
-5.5181802
20
-5.8070679
11
-5.5537981
21
-5.8192412
0
LINE
8
layer1
10
-5.5537981
20
-5.8192412
11
-5.6303982
21
-5.8559393
0
LINE
8
layer1
10
-5.6303982
20
-5.8559393
11
-5.7131031
21
-5.9095894
0
LINE
8
layer1
10
-5.7131031
20
-5.9095894
11
-5.8006073
21
-5.9807516
0
LINE
8
layer1
10
-5.8006073
20
-5.9807516
11
-5.8974435
21
-6.0754653
0
LINE
8
layer1
10
-5.8974435
20
-6.0754653
11
-5.9470509
21
-6.1175032
0
LINE
8
layer1
10
-5.9470509
20
-6.1175032
11
-6.0477119
21
-6.1896745
0
LINE
8
layer1
10
-6.0477119
20
-6.1896745
11
-6.1186452
21
-6.2343519
0
LINE
8
layer1
10
-6.1186452
20
-6.2343519
11
-6.2042166
21
-6.2833906
0
LINE
8
layer1
10
-6.2042166
20
-6.2833906
11
-6.3055075
21
-6.3359482
0
LINE
8
layer1
10
-6.3055075
20
-6.3359482
11
-6.4214051
21
-6.3900605
0
LINE
8
layer1
10
-6.4214051
20
-6.3900605
11
-6.5537606
21
-6.4452578
0
LINE
8
layer1
10
-6.5537606
20
-6.4452578
11
-6.7014485
21
-6.4997168
0
LINE
8
layer1
10
-6.7014485
20
-6.4997168
11
-6.8669131
21
-6.5530053
0
LINE
8
layer1
10
-6.8669131
20
-6.5530053
11
-7.0485511
21
-6.6031661
0
LINE
8
layer1
10
-7.0485511
20
-6.6031661
11
-7.2455971
21
-6.6488048
0
LINE
8
layer1
10
-7.2455971
20
-6.6488048
11
-7.4370271
21
-6.6850783
0
ARC
8
layer1
10
0.0000131
20
0.000012
40
10
50
218.0479135
51
221.9520953
0
LINE
8
layer1
10
-7.8749432
20
-6.1631903
11
-7.8059793
21
-5.9809673
0
LINE
8
layer1
10
-7.8059793
20
-5.9809673
11
-7.7268172
21
-5.79484
0
LINE
8
layer1
10
-7.7268172
20
-5.79484
11
-7.6458774
21
-5.6246718
0
LINE
8
layer1
10
-7.6458774
20
-5.6246718
11
-7.5646658
21
-5.4709745
0
LINE
8
layer1
10
-7.5646658
20
-5.4709745
11
-7.4853884
21
-5.3349869
0
LINE
8
layer1
10
-7.4853884
20
-5.3349869
11
-7.4080464
21
-5.2142272
0
LINE
8
layer1
10
-7.4080464
20
-5.2142272
11
-7.3346308
21
-5.1094868
0
LINE
8
layer1
10
-7.3346308
20
-5.1094868
11
-7.2652827
21
-5.0188613
0
LINE
8
layer1
10
-7.2652827
20
-5.0188613
11
-7.2021297
21
-4.9431054
0
LINE
8
layer1
10
-7.2021297
20
-4.9431054
11
-7.1458136
21
-4.8810078
0
LINE
8
layer1
10
-7.1458136
20
-4.8810078
11
-7.0572592
21
-4.7944085
0
LINE
8
layer1
10
-7.0572592
20
-4.7944085
11
-7.0072456
21
-4.7528546
0
LINE
8
layer1
10
-7.0072456
20
-4.7528546
11
-6.8971554
21
-4.6739364
0
LINE
8
layer1
10
-6.8971554
20
-4.6739364
11
-6.8118794
21
-4.6001188
0
LINE
8
layer1
10
-6.8118794
20
-4.6001188
11
-6.7446829
21
-4.5279866
0
LINE
8
layer1
10
-6.7446829
20
-4.5279866
11
-6.6952408
21
-4.4589228
0
LINE
8
layer1
10
-6.6952408
20
-4.4589228
11
-6.6770675
21
-4.4259599
0
LINE
8
layer1
10
-6.6770675
20
-4.4259599
11
-6.663164
21
-4.3942614
0
LINE
8
layer1
10
-6.663164
20
-4.3942614
11
-6.6534837
21
-4.3640081
0
LINE
8
layer1
10
-6.6534837
20
-4.3640081
11
-6.647964
21
-4.3353486
0
LINE
8
layer1
10
-6.647964
20
-4.3353486
11
-6.6465234
21
-4.3084437
0
LINE
8
layer1
10
-6.6465234
20
-4.3084437
11
-6.6490857
21
-4.2834458
0
LINE
8
layer1
10
-6.6490857
20
-4.2834458
11
-6.6555644
21
-4.2605242
0
LINE
8
layer1
10
-6.6555644
20
-4.2605242
11
-6.6658797
21
-4.2398177
0
LINE
8
layer1
10
-6.6658797
20
-4.2398177
11
-6.7467151
21
-4.1100267
0
LINE
8
layer1
10
-6.7467151
20
-4.1100267
11
-6.8416007
21
-3.95
0
LINE
8
layer1
10
-6.8416007
20
-3.95
11
-6.9327451
21
-3.7878133
0
LINE
8
layer1
10
-6.9327451
20
-3.7878133
11
-7.0047297
21
-3.6529123
0
LINE
8
layer1
10
-7.0047297
20
-3.6529123
11
-7.0175044
21
-3.6336258
0
LINE
8
layer1
10
-7.0175044
20
-3.6336258
11
-7.0341157
21
-3.6165542
0
LINE
8
layer1
10
-7.0341157
20
-3.6165542
11
-7.0544834
21
-3.6018363
0
LINE
8
layer1
10
-7.0544834
20
-3.6018363
11
-7.078504
21
-3.5896314
0
LINE
8
layer1
10
-7.078504
20
-3.5896314
11
-7.1060837
21
-3.5800819
0
LINE
8
layer1
10
-7.1060837
20
-3.5800819
11
-7.137124
21
-3.5733386
0
LINE
8
layer1
10
-7.137124
20
-3.5733386
11
-7.1715275
21
-3.5695301
0
LINE
8
layer1
10
-7.1715275
20
-3.5695301
11
-7.2091608
21
-3.5687872
0
LINE
8
layer1
10
-7.2091608
20
-3.5687872
11
-7.2936929
21
-3.5770734
0
LINE
8
layer1
10
-7.2936929
20
-3.5770734
11
-7.3897594
21
-3.5992012
0
LINE
8
layer1
10
-7.3897594
20
-3.5992012
11
-7.4963254
21
-3.6361436
0
LINE
8
layer1
10
-7.4963254
20
-3.6361436
11
-7.6197156
21
-3.6920254
0
LINE
8
layer1
10
-7.6197156
20
-3.6920254
11
-7.6807092
21
-3.7145615
0
LINE
8
layer1
10
-7.6807092
20
-3.7145615
11
-7.7999836
21
-3.7479522
0
LINE
8
layer1
10
-7.7999836
20
-3.7479522
11
-7.8819197
21
-3.7656746
0
LINE
8
layer1
10
-7.8819197
20
-3.7656746
11
-7.9791027
21
-3.7824887
0
LINE
8
layer1
10
-7.9791027
20
-3.7824887
11
-8.0922608
21
-3.7972332
0
LINE
8
layer1
10
-8.0922608
20
-3.7972332
11
-8.2196764
21
-3.8084428
0
LINE
8
layer1
10
-8.2196764
20
-3.8084428
11
-8.3629284
21
-3.8150431
0
LINE
8
layer1
10
-8.3629284
20
-3.8150431
11
-8.5203358
21
-3.8157055
0
LINE
8
layer1
10
-8.5203358
20
-3.8157055
11
-8.6940474
21
-3.8091882
0
LINE
8
layer1
10
-8.6940474
20
-3.8091882
11
-8.8818872
21
-3.7942
0
LINE
8
layer1
10
-8.8818872
20
-3.7942
11
-9.0826593
21
-3.7696927
0
LINE
8
layer1
10
-9.0826593
20
-3.7696927
11
-9.274951
21
-3.7383057
0
ARC
8
layer1
10
0.0000166
20
0.0000063
40
10
50
198.0479101
51
201.9520922
0
LINE
8
layer1
10
-9.5079612
20
-3.0981153
11
-9.3808324
21
-2.9504687
0
LINE
8
layer1
10
-9.3808324
20
-2.9504687
11
-9.2427851
21
-2.8026412
0
LINE
8
layer1
10
-9.2427851
20
-2.8026412
11
-9.1085257
21
-2.6704185
0
LINE
8
layer1
10
-9.1085257
20
-2.6704185
11
-8.9796441
21
-2.5537663
0
LINE
8
layer1
10
-8.9796441
20
-2.5537663
11
-8.8586373
21
-2.4530942
0
LINE
8
layer1
10
-8.8586373
20
-2.4530942
11
-8.7446573
21
-2.3660697
0
LINE
8
layer1
10
-8.7446573
20
-2.3660697
11
-8.6398458
21
-2.2927556
0
LINE
8
layer1
10
-8.6398458
20
-2.2927556
11
-8.5436842
21
-2.2313139
0
LINE
8
layer1
10
-8.5436842
20
-2.2313139
11
-8.4584298
21
-2.1817262
0
LINE
8
layer1
10
-8.4584298
20
-2.1817262
11
-8.3842713
21
-2.1426349
0
LINE
8
layer1
10
-8.3842713
20
-2.1426349
11
-8.2714387
21
-2.0915455
0
LINE
8
layer1
10
-8.2714387
20
-2.0915455
11
-8.210229
21
-2.0696032
0
LINE
8
layer1
10
-8.210229
20
-2.0696032
11
-8.0797864
21
-2.0330975
0
LINE
8
layer1
10
-8.0797864
20
-2.0330975
11
-7.9744061
21
-1.9928977
0
LINE
8
layer1
10
-7.9744061
20
-1.9928977
11
-7.8865913
21
-1.9480982
0
LINE
8
layer1
10
-7.8865913
20
-1.9480982
11
-7.8165098
21
-1.9001096
0
LINE
8
layer1
10
-7.8165098
20
-1.9001096
11
-7.7881585
21
-1.8753503
0
LINE
8
layer1
10
-7.7881585
20
-1.8753503
11
-7.764252
21
-1.8503187
0
LINE
8
layer1
10
-7.764252
20
-1.8503187
11
-7.7448083
21
-1.8252007
0
LINE
8
layer1
10
-7.7448083
20
-1.8252007
11
-7.7298193
21
-1.8001575
0
LINE
8
layer1
10
-7.7298193
20
-1.8001575
11
-7.7192636
21
-1.7753679
0
LINE
8
layer1
10
-7.7192636
20
-1.7753679
11
-7.7131215
21
-1.7510011
0
LINE
8
layer1
10
-7.7131215
20
-1.7510011
11
-7.7113699
21
-1.7272461
0
LINE
8
layer1
10
-7.7113699
20
-1.7272461
11
-7.713981
21
-1.7042603
0
LINE
8
layer1
10
-7.713981
20
-1.7042603
11
-7.7455503
21
-1.5546493
0
LINE
8
layer1
10
-7.7455503
20
-1.5546493
11
-7.7799812
21
-1.3718206
0
LINE
8
layer1
10
-7.7799812
20
-1.3718206
11
-7.8101578
21
-1.1882417
0
LINE
8
layer1
10
-7.8101578
20
-1.1882417
11
-7.8316624
21
-1.0368561
0
LINE
8
layer1
10
-7.8316624
20
-1.0368561
11
-7.8370703
21
-1.0143634
0
LINE
8
layer1
10
-7.8370703
20
-1.0143634
11
-7.846841
21
-0.9926401
0
LINE
8
layer1
10
-7.846841
20
-0.9926401
11
-7.8609466
21
-0.9718435
0
LINE
8
layer1
10
-7.8609466
20
-0.9718435
11
-7.8793442
21
-0.9521592
0
LINE
8
layer1
10
-7.8793442
20
-0.9521592
11
-7.9019946
21
-0.9337528
0
LINE
8
layer1
10
-7.9019946
20
-0.9337528
11
-7.9288565
21
-0.9167997
0
LINE
8
layer1
10
-7.9288565
20
-0.9167997
11
-7.9598826
21
-0.9014542
0
LINE
8
layer1
10
-7.9598826
20
-0.9014542
11
-7.9949923
21
-0.8878848
0
LINE
8
layer1
10
-7.9949923
20
-0.8878848
11
-8.0772605
21
-0.8667596
0
LINE
8
layer1
10
-8.0772605
20
-0.8667596
11
-8.1751017
21
-0.8546963
0
LINE
8
layer1
10
-8.1751017
20
-0.8546963
11
-8.287876
21
-0.852963
0
LINE
8
layer1
10
-8.287876
20
-0.852963
11
-8.4229376
21
-0.8632728
0
LINE
8
layer1
10
-8.4229376
20
-0.8632728
11
-8.4879606
21
-0.8635887
0
LINE
8
layer1
10
-8.4879606
20
-0.8635887
11
-8.6114621
21
-0.8541715
0
LINE
8
layer1
10
-8.6114621
20
-0.8541715
11
-8.6945184
21
-0.8428013
0
LINE
8
layer1
10
-8.6945184
20
-0.8428013
11
-8.7915913
21
-0.8253629
0
LINE
8
layer1
10
-8.7915913
20
-0.8253629
11
-8.902968
21
-0.8005158
0
LINE
8
layer1
10
-8.902968
20
-0.8005158
11
-9.0265334
21
-0.7674707
0
LINE
8
layer1
10
-9.0265334
20
-0.7674707
11
-9.1634037
21
-0.7246778
0
LINE
8
layer1
10
-9.1634037
20
-0.7246778
11
-9.3115448
21
-0.6714638
0
LINE
8
layer1
10
-9.3115448
20
-0.6714638
11
-9.4725513
21
-0.6059267
0
LINE
8
layer1
10
-9.4725513
20
-0.6059267
11
-9.6439367
21
-0.5275974
0
LINE
8
layer1
10
-9.6439367
20
-0.5275974
11
-9.8242187
21
-0.4359
0
LINE
8
layer1
10
-9.8242187
20
-0.4359
11
-9.9941788
21
-0.3406382
0
ARC
8
layer1
10
0.0000178
20
0
40
10
50
178.0479092
51
181.9520908
0
LINE
8
layer1
10
-9.9941788
20
0.3406382
11
-9.8242187
21
0.4359
0
LINE
8
layer1
10
-9.8242187
20
0.4359
11
-9.6439367
21
0.5275974
0
LINE
8
layer1
10
-9.6439367
20
0.5275974
11
-9.4725513
21
0.6059267
0
LINE
8
layer1
10
-9.4725513
20
0.6059267
11
-9.3115448
21
0.6714638
0
LINE
8
layer1
10
-9.3115448
20
0.6714638
11
-9.1634037
21
0.7246778
0
LINE
8
layer1
10
-9.1634037
20
0.7246778
11
-9.0265334
21
0.7674707
0
LINE
8
layer1
10
-9.0265334
20
0.7674707
11
-8.902968
21
0.8005158
0
LINE
8
layer1
10
-8.902968
20
0.8005158
11
-8.7915913
21
0.8253629
0
LINE
8
layer1
10
-8.7915913
20
0.8253629
11
-8.6945184
21
0.8428013
0
LINE
8
layer1
10
-8.6945184
20
0.8428013
11
-8.6114621
21
0.8541715
0
LINE
8
layer1
10
-8.6114621
20
0.8541715
11
-8.4879606
21
0.8635887
0
LINE
8
layer1
10
-8.4879606
20
0.8635887
11
-8.4229376
21
0.8632728
0
LINE
8
layer1
10
-8.4229376
20
0.8632728
11
-8.287876
21
0.852963
0
LINE
8
layer1
10
-8.287876
20
0.852963
11
-8.1751017
21
0.8546963
0
LINE
8
layer1
10
-8.1751017
20
0.8546963
11
-8.0772605
21
0.8667596
0
LINE
8
layer1
10
-8.0772605
20
0.8667596
11
-7.9949923
21
0.8878848
0
LINE
8
layer1
10
-7.9949923
20
0.8878848
11
-7.9598826
21
0.9014542
0
LINE
8
layer1
10
-7.9598826
20
0.9014542
11
-7.9288565
21
0.9167997
0
LINE
8
layer1
10
-7.9288565
20
0.9167997
11
-7.9019946
21
0.9337528
0
LINE
8
layer1
10
-7.9019946
20
0.9337528
11
-7.8793442
21
0.9521592
0
LINE
8
layer1
10
-7.8793442
20
0.9521592
11
-7.8609466
21
0.9718435
0
LINE
8
layer1
10
-7.8609466
20
0.9718435
11
-7.846841
21
0.9926401
0
LINE
8
layer1
10
-7.846841
20
0.9926401
11
-7.8370703
21
1.0143634
0
LINE
8
layer1
10
-7.8370703
20
1.0143634
11
-7.8316624
21
1.0368561
0
LINE
8
layer1
10
-7.8316624
20
1.0368561
11
-7.8101578
21
1.1882417
0
LINE
8
layer1
10
-7.8101578
20
1.1882417
11
-7.7799812
21
1.3718206
0
LINE
8
layer1
10
-7.7799812
20
1.3718206
11
-7.7455503
21
1.5546493
0
LINE
8
layer1
10
-7.7455503
20
1.5546493
11
-7.713981
21
1.7042603
0
LINE
8
layer1
10
-7.713981
20
1.7042603
11
-7.7113699
21
1.7272461
0
LINE
8
layer1
10
-7.7113699
20
1.7272461
11
-7.7131215
21
1.7510011
0
LINE
8
layer1
10
-7.7131215
20
1.7510011
11
-7.7192636
21
1.7753679
0
LINE
8
layer1
10
-7.7192636
20
1.7753679
11
-7.7298193
21
1.8001575
0
LINE
8
layer1
10
-7.7298193
20
1.8001575
11
-7.7448083
21
1.8252007
0
LINE
8
layer1
10
-7.7448083
20
1.8252007
11
-7.764252
21
1.8503187
0
LINE
8
layer1
10
-7.764252
20
1.8503187
11
-7.7881585
21
1.8753503
0
LINE
8
layer1
10
-7.7881585
20
1.8753503
11
-7.8165098
21
1.9001096
0
LINE
8
layer1
10
-7.8165098
20
1.9001096
11
-7.8865913
21
1.9480982
0
LINE
8
layer1
10
-7.8865913
20
1.9480982
11
-7.9744061
21
1.9928977
0
LINE
8
layer1
10
-7.9744061
20
1.9928977
11
-8.0797864
21
2.0330975
0
LINE
8
layer1
10
-8.0797864
20
2.0330975
11
-8.210229
21
2.0696032
0
LINE
8
layer1
10
-8.210229
20
2.0696032
11
-8.2714387
21
2.0915455
0
LINE
8
layer1
10
-8.2714387
20
2.0915455
11
-8.3842713
21
2.1426349
0
LINE
8
layer1
10
-8.3842713
20
2.1426349
11
-8.4584298
21
2.1817262
0
LINE
8
layer1
10
-8.4584298
20
2.1817262
11
-8.5436842
21
2.2313139
0
LINE
8
layer1
10
-8.5436842
20
2.2313139
11
-8.6398458
21
2.2927556
0
LINE
8
layer1
10
-8.6398458
20
2.2927556
11
-8.7446573
21
2.3660697
0
LINE
8
layer1
10
-8.7446573
20
2.3660697
11
-8.8586373
21
2.4530942
0
LINE
8
layer1
10
-8.8586373
20
2.4530942
11
-8.9796441
21
2.5537663
0
LINE
8
layer1
10
-8.9796441
20
2.5537663
11
-9.1085257
21
2.6704185
0
LINE
8
layer1
10
-9.1085257
20
2.6704185
11
-9.2427851
21
2.8026412
0
LINE
8
layer1
10
-9.2427851
20
2.8026412
11
-9.3808324
21
2.9504687
0
LINE
8
layer1
10
-9.3808324
20
2.9504687
11
-9.5079612
21
3.0981153
0
ARC
8
layer1
10
0.0000167
20
-0.0000062
40
10
50
158.0479078
51
161.9520899
0
LINE
8
layer1
10
-9.274951
20
3.7383057
11
-9.0826593
21
3.7696927
0
LINE
8
layer1
10
-9.0826593
20
3.7696927
11
-8.8818872
21
3.7942
0
LINE
8
layer1
10
-8.8818872
20
3.7942
11
-8.6940474
21
3.8091882
0
LINE
8
layer1
10
-8.6940474
20
3.8091882
11
-8.5203358
21
3.8157055
0
LINE
8
layer1
10
-8.5203358
20
3.8157055
11
-8.3629284
21
3.8150431
0
LINE
8
layer1
10
-8.3629284
20
3.8150431
11
-8.2196764
21
3.8084428
0
LINE
8
layer1
10
-8.2196764
20
3.8084428
11
-8.0922608
21
3.7972332
0
LINE
8
layer1
10
-8.0922608
20
3.7972332
11
-7.9791027
21
3.7824887
0
LINE
8
layer1
10
-7.9791027
20
3.7824887
11
-7.8819197
21
3.7656746
0
LINE
8
layer1
10
-7.8819197
20
3.7656746
11
-7.7999836
21
3.7479522
0
LINE
8
layer1
10
-7.7999836
20
3.7479522
11
-7.6807092
21
3.7145615
0
LINE
8
layer1
10
-7.6807092
20
3.7145615
11
-7.6197156
21
3.6920254
0
LINE
8
layer1
10
-7.6197156
20
3.6920254
11
-7.4963254
21
3.6361436
0
LINE
8
layer1
10
-7.4963254
20
3.6361436
11
-7.3897594
21
3.5992012
0
LINE
8
layer1
10
-7.3897594
20
3.5992012
11
-7.2936929
21
3.5770734
0
LINE
8
layer1
10
-7.2936929
20
3.5770734
11
-7.2091608
21
3.5687872
0
LINE
8
layer1
10
-7.2091608
20
3.5687872
11
-7.1715275
21
3.5695301
0
LINE
8
layer1
10
-7.1715275
20
3.5695301
11
-7.137124
21
3.5733386
0
LINE
8
layer1
10
-7.137124
20
3.5733386
11
-7.1060837
21
3.5800819
0
LINE
8
layer1
10
-7.1060837
20
3.5800819
11
-7.078504
21
3.5896314
0
LINE
8
layer1
10
-7.078504
20
3.5896314
11
-7.0544834
21
3.6018363
0
LINE
8
layer1
10
-7.0544834
20
3.6018363
11
-7.0341157
21
3.6165542
0
LINE
8
layer1
10
-7.0341157
20
3.6165542
11
-7.0175044
21
3.6336258
0
LINE
8
layer1
10
-7.0175044
20
3.6336258
11
-7.0047297
21
3.6529123
0
LINE
8
layer1
10
-7.0047297
20
3.6529123
11
-6.9327451
21
3.7878133
0
LINE
8
layer1
10
-6.9327451
20
3.7878133
11
-6.8416007
21
3.95
0
LINE
8
layer1
10
-6.8416007
20
3.95
11
-6.7467151
21
4.1100267
0
LINE
8
layer1
10
-6.7467151
20
4.1100267
11
-6.6658797
21
4.2398177
0
LINE
8
layer1
10
-6.6658797
20
4.2398177
11
-6.6555644
21
4.2605242
0
LINE
8
layer1
10
-6.6555644
20
4.2605242
11
-6.6490857
21
4.2834458
0
LINE
8
layer1
10
-6.6490857
20
4.2834458
11
-6.6465234
21
4.3084437
0
LINE
8
layer1
10
-6.6465234
20
4.3084437
11
-6.647964
21
4.3353486
0
LINE
8
layer1
10
-6.647964
20
4.3353486
11
-6.6534837
21
4.3640081
0
LINE
8
layer1
10
-6.6534837
20
4.3640081
11
-6.663164
21
4.3942614
0
LINE
8
layer1
10
-6.663164
20
4.3942614
11
-6.6770675
21
4.4259599
0
LINE
8
layer1
10
-6.6770675
20
4.4259599
11
-6.6952408
21
4.4589228
0
LINE
8
layer1
10
-6.6952408
20
4.4589228
11
-6.7446829
21
4.5279866
0
LINE
8
layer1
10
-6.7446829
20
4.5279866
11
-6.8118794
21
4.6001188
0
LINE
8
layer1
10
-6.8118794
20
4.6001188
11
-6.8971554
21
4.6739364
0
LINE
8
layer1
10
-6.8971554
20
4.6739364
11
-7.0072456
21
4.7528546
0
LINE
8
layer1
10
-7.0072456
20
4.7528546
11
-7.0572592
21
4.7944085
0
LINE
8
layer1
10
-7.0572592
20
4.7944085
11
-7.1458136
21
4.8810078
0
LINE
8
layer1
10
-7.1458136
20
4.8810078
11
-7.2021297
21
4.9431054
0
LINE
8
layer1
10
-7.2021297
20
4.9431054
11
-7.2652827
21
5.0188613
0
LINE
8
layer1
10
-7.2652827
20
5.0188613
11
-7.3346308
21
5.1094868
0
LINE
8
layer1
10
-7.3346308
20
5.1094868
11
-7.4080464
21
5.2142272
0
LINE
8
layer1
10
-7.4080464
20
5.2142272
11
-7.4853884
21
5.3349869
0
LINE
8
layer1
10
-7.4853884
20
5.3349869
11
-7.5646658
21
5.4709745
0
LINE
8
layer1
10
-7.5646658
20
5.4709745
11
-7.6458774
21
5.6246718
0
LINE
8
layer1
10
-7.6458774
20
5.6246718
11
-7.7268172
21
5.79484
0
LINE
8
layer1
10
-7.7268172
20
5.79484
11
-7.8059793
21
5.9809673
0
LINE
8
layer1
10
-7.8059793
20
5.9809673
11
-7.8749432
21
6.1631903
0
ARC
8
layer1
10
0.0000131
20
-0.0000121
40
10
50
138.0479043
51
141.9520861
0
LINE
8
layer1
10
-7.4370271
20
6.6850783
11
-7.2455971
21
6.6488048
0
LINE
8
layer1
10
-7.2455971
20
6.6488048
11
-7.0485511
21
6.6031661
0
LINE
8
layer1
10
-7.0485511
20
6.6031661
11
-6.8669131
21
6.5530053
0
LINE
8
layer1
10
-6.8669131
20
6.5530053
11
-6.7014485
21
6.4997168
0
LINE
8
layer1
10
-6.7014485
20
6.4997168
11
-6.5537606
21
6.4452578
0
LINE
8
layer1
10
-6.5537606
20
6.4452578
11
-6.4214051
21
6.3900605
0
LINE
8
layer1
10
-6.4214051
20
6.3900605
11
-6.3055075
21
6.3359482
0
LINE
8
layer1
10
-6.3055075
20
6.3359482
11
-6.2042166
21
6.2833906
0
LINE
8
layer1
10
-6.2042166
20
6.2833906
11
-6.1186452
21
6.2343519
0
LINE
8
layer1
10
-6.1186452
20
6.2343519
11
-6.0477119
21
6.1896745
0
LINE
8
layer1
10
-6.0477119
20
6.1896745
11
-5.9470509
21
6.1175032
0
LINE
8
layer1
10
-5.9470509
20
6.1175032
11
-5.8974435
21
6.0754653
0
LINE
8
layer1
10
-5.8974435
20
6.0754653
11
-5.8006073
21
5.9807516
0
LINE
8
layer1
10
-5.8006073
20
5.9807516
11
-5.7131031
21
5.9095894
0
LINE
8
layer1
10
-5.7131031
20
5.9095894
11
-5.6303982
21
5.8559393
0
LINE
8
layer1
10
-5.6303982
20
5.8559393
11
-5.5537981
21
5.8192412
0
LINE
8
layer1
10
-5.5537981
20
5.8192412
11
-5.5181802
21
5.8070679
0
LINE
8
layer1
10
-5.5181802
20
5.8070679
11
-5.484549
21
5.7988801
0
LINE
8
layer1
10
-5.484549
20
5.7988801
11
-5.4530743
21
5.7946003
0
LINE
8
layer1
10
-5.4530743
20
5.7946003
11
-5.4238917
21
5.7941411
0
LINE
8
layer1
10
-5.4238917
20
5.7941411
11
-5.3971455
21
5.7973944
0
LINE
8
layer1
10
-5.3971455
20
5.7973944
11
-5.3729722
21
5.8042586
0
LINE
8
layer1
10
-5.3729722
20
5.8042586
11
-5.3515239
21
5.8146192
0
LINE
8
layer1
10
-5.3515239
20
5.8146192
11
-5.3329232
21
5.8283734
0
LINE
8
layer1
10
-5.3329232
20
5.8283734
11
-5.2191409
21
5.9305187
0
LINE
8
layer1
10
-5.2191409
20
5.9305187
11
-5.0780221
21
6.0517511
0
LINE
8
layer1
10
-5.0780221
20
6.0517511
11
-4.9341264
21
6.1696742
0
LINE
8
layer1
10
-4.9341264
20
6.1696742
11
-4.8137749
21
6.2639905
0
LINE
8
layer1
10
-4.8137749
20
6.2639905
11
-4.7969997
21
6.2799203
0
LINE
8
layer1
10
-4.7969997
20
6.2799203
11
-4.783072
21
6.2992436
0
LINE
8
layer1
10
-4.783072
20
6.2992436
11
-4.7721145
21
6.3218577
0
LINE
8
layer1
10
-4.7721145
20
6.3218577
11
-4.7642662
21
6.3476327
0
LINE
8
layer1
10
-4.7642662
20
6.3476327
11
-4.7596509
21
6.3764517
0
LINE
8
layer1
10
-4.7596509
20
6.3764517
11
-4.7584001
21
6.4081913
0
LINE
8
layer1
10
-4.7584001
20
6.4081913
11
-4.7606236
21
6.4427334
0
LINE
8
layer1
10
-4.7606236
20
6.4427334
11
-4.766427
21
6.479924
0
LINE
8
layer1
10
-4.766427
20
6.479924
11
-4.7892661
21
6.561733
0
LINE
8
layer1
10
-4.7892661
20
6.561733
11
-4.8277395
21
6.6524976
0
LINE
8
layer1
10
-4.8277395
20
6.6524976
11
-4.8826256
21
6.7510297
0
LINE
8
layer1
10
-4.8826256
20
6.7510297
11
-4.959085
21
6.8628415
0
LINE
8
layer1
10
-4.959085
20
6.8628415
11
-4.9918701
21
6.9189951
0
LINE
8
layer1
10
-4.9918701
20
6.9189951
11
-5.0454653
21
7.0306592
0
LINE
8
layer1
10
-5.0454653
20
7.0306592
11
-5.0771465
21
7.1082731
0
LINE
8
layer1
10
-5.0771465
20
7.1082731
11
-5.1105809
21
7.2010599
0
LINE
8
layer1
10
-5.1105809
20
7.2010599
11
-5.144751
21
7.3099385
0
LINE
8
layer1
10
-5.144751
20
7.3099385
11
-5.1779158
21
7.4334719
0
LINE
8
layer1
10
-5.1779158
20
7.4334719
11
-5.2092913
21
7.5734015
0
LINE
8
layer1
10
-5.2092913
20
7.5734015
11
-5.2372771
21
7.7283024
0
LINE
8
layer1
10
-5.2372771
20
7.7283024
11
-5.2610235
21
7.9005067
0
LINE
8
layer1
10
-5.2610235
20
7.9005067
11
-5.2788811
21
8.0880955
0
LINE
8
layer1
10
-5.2788811
20
8.0880955
11
-5.2896098
21
8.290073
0
LINE
8
layer1
10
-5.2896098
20
8.290073
11
-5.2920908
21
8.4848937
0
ARC
8
layer1
10
0.0000086
20
-0.0000155
40
10
50
118.0479075
51
121.9520892
0
LINE
8
layer1
10
-4.7020881
20
8.8255319
11
-4.5346089
21
8.725973
0
LINE
8
layer1
10
-4.5346089
20
8.725973
11
-4.3650556
21
8.6156929
0
LINE
8
layer1
10
-4.3650556
20
8.6156929
11
-4.2115278
21
8.5064334
0
LINE
8
layer1
10
-4.2115278
20
8.5064334
11
-4.0742677
21
8.3997663
0
LINE
8
layer1
10
-4.0742677
20
8.3997663
11
-3.9541124
21
8.2980793
0
LINE
8
layer1
10
-3.9541124
20
8.2980793
11
-3.8486176
21
8.2009426
0
LINE
8
layer1
10
-3.8486176
20
8.2009426
11
-3.758217
21
8.1104543
0
LINE
8
layer1
10
-3.758217
20
8.1104543
11
-3.6810104
21
8.0264228
0
LINE
8
layer1
10
-3.6810104
20
8.0264228
11
-3.6173718
21
7.9510744
0
LINE
8
layer1
10
-3.6173718
20
7.9510744
11
-3.5659969
21
7.8848307
0
LINE
8
layer1
10
-3.5659969
20
7.8848307
11
-3.4960905
21
7.7825839
0
LINE
8
layer1
10
-3.4960905
20
7.7825839
11
-3.4638526
21
7.7261143
0
LINE
8
layer1
10
-3.4638526
20
7.7261143
11
-3.4052504
21
7.6039926
0
LINE
8
layer1
10
-3.4052504
20
7.6039926
11
-3.3473622
21
7.5071939
0
LINE
8
layer1
10
-3.3473622
20
7.5071939
11
-3.2879944
21
7.4284926
0
LINE
8
layer1
10
-3.2879944
20
7.4284926
11
-3.2285654
21
7.3678089
0
LINE
8
layer1
10
-3.2285654
20
7.3678089
11
-3.199259
21
7.3441877
0
LINE
8
layer1
10
-3.199259
20
7.3441877
11
-3.1704564
21
7.3249911
0
LINE
8
layer1
10
-3.1704564
20
7.3249911
11
-3.1423437
21
7.3102044
0
LINE
8
layer1
10
-3.1423437
20
7.3102044
11
-3.1150781
21
7.2997919
0
LINE
8
layer1
10
-3.1150781
20
7.2997919
11
-3.0888321
21
7.2937012
0
LINE
8
layer1
10
-3.0888321
20
7.2937012
11
-3.063769
21
7.2918837
0
LINE
8
layer1
10
-3.063769
20
7.2918837
11
-3.0400707
21
7.2942837
0
LINE
8
layer1
10
-3.0400707
20
7.2942837
11
-3.0178875
21
7.3008466
0
LINE
8
layer1
10
-3.0178875
20
7.3008466
11
-2.8760314
21
7.357916
0
LINE
8
layer1
10
-2.8760314
20
7.357916
11
-2.7019591
21
7.4235717
0
LINE
8
layer1
10
-2.7019591
20
7.4235717
11
-2.5264094
21
7.485168
0
LINE
8
layer1
10
-2.5264094
20
7.485168
11
-2.3810578
21
7.5326337
0
LINE
8
layer1
10
-2.3810578
20
7.5326337
11
-2.359846
21
7.5418653
0
LINE
8
layer1
10
-2.359846
20
7.5418653
11
-2.3401493
21
7.5552597
0
LINE
8
layer1
10
-2.3401493
20
7.5552597
11
-2.3221181
21
7.5727623
0
LINE
8
layer1
10
-2.3221181
20
7.5727623
11
-2.3059275
21
7.5942986
0
LINE
8
layer1
10
-2.3059275
20
7.5942986
11
-2.2917339
21
7.6198011
0
LINE
8
layer1
10
-2.2917339
20
7.6198011
11
-2.279703
21
7.6491988
0
LINE
8
layer1
10
-2.279703
20
7.6491988
11
-2.2699782
21
7.6824182
0
LINE
8
layer1
10
-2.2699782
20
7.6824182
11
-2.2627117
21
7.7193508
0
LINE
8
layer1
10
-2.2627117
20
7.7193508
11
-2.2561931
21
7.8040376
0
LINE
8
layer1
10
-2.2561931
20
7.8040376
11
-2.261303
21
7.9024871
0
LINE
8
layer1
10
-2.261303
20
7.9024871
11
-2.2791791
21
8.0138491
0
LINE
8
layer1
10
-2.2791791
20
8.0138491
11
-2.3127855
21
8.1450685
0
LINE
8
layer1
10
-2.3127855
20
8.1450685
11
-2.3243878
21
8.2090488
0
LINE
8
layer1
10
-2.3243878
20
8.2090488
11
-2.3365594
21
8.3323094
0
LINE
8
layer1
10
-2.3365594
20
8.3323094
11
-2.3397845
21
8.4160782
0
LINE
8
layer1
10
-2.3397845
20
8.4160782
11
-2.3394676
21
8.5147045
0
LINE
8
layer1
10
-2.3394676
20
8.5147045
11
-2.3343383
21
8.6287038
0
LINE
8
layer1
10
-2.3343383
20
8.6287038
11
-2.3232522
21
8.7561302
0
LINE
8
layer1
10
-2.3232522
20
8.7561302
11
-2.3048767
21
8.898352
0
LINE
8
layer1
10
-2.3048767
20
8.898352
11
-2.2781956
21
9.0534831
0
LINE
8
layer1
10
-2.2781956
20
9.0534831
11
-2.2416125
21
9.2234239
0
LINE
8
layer1
10
-2.2416125
20
9.2234239
11
-2.1942341
21
9.4058073
0
LINE
8
layer1
10
-2.1942341
20
9.4058073
11
-2.1352354
21
9.5992735
0
LINE
8
layer1
10
-2.1352354
20
9.5992735
11
-2.0709341
21
9.7831936
0
ARC
8
layer1
10
0.0000029
20
-0.0000175
40
10
50
98.0479082
51
101.9520898
0
LINE
8
layer1
10
-1.4000078
20
9.901496
11
-1.27668
21
9.75066
0
LINE
8
layer1
10
-1.27668
20
9.75066
11
-1.15507
21
9.58904
0
LINE
8
layer1
10
-1.15507
20
9.58904
11
-1.04817
21
9.43386
0
LINE
8
layer1
10
-1.04817
20
9.43386
11
-0.95567
21
9.28668
0
LINE
8
layer1
10
-0.95567
20
9.28668
11
-0.87754
21
9.15003
0
LINE
8
layer1
10
-0.87754
20
9.15003
11
-0.81163
21
9.02267
0
LINE
8
layer1
10
-0.81163
20
9.02267
11
-0.75763
21
8.90672
0
LINE
8
layer1
10
-0.75763
20
8.90672
11
-0.71382
21
8.80135
0
LINE
8
layer1
10
-0.71382
20
8.80135
11
-0.67979
21
8.70878
0
LINE
8
layer1
10
-0.67979
20
8.70878
11
-0.65417
21
8.62896
0
LINE
8
layer1
10
-0.65417
20
8.62896
11
-0.62345
21
8.50897
0
LINE
8
layer1
10
-0.62345
20
8.50897
11
-0.61247
21
8.44488
0
LINE
8
layer1
10
-0.61247
20
8.44488
11
-0.59917
21
8.31008
0
LINE
8
layer1
10
-0.59917
20
8.31008
11
-0.57788
21
8.19932
0
LINE
8
layer1
10
-0.57788
20
8.19932
11
-0.54901
21
8.10506
0
LINE
8
layer1
10
-0.54901
20
8.10506
11
-0.51392
21
8.02771
0
LINE
8
layer1
10
-0.51392
20
8.02771
11
-0.49446
21
7.99549
0
LINE
8
layer1
10
-0.49446
20
7.99549
11
-0.47396
21
7.9676
0
LINE
8
layer1
10
-0.47396
20
7.9676
11
-0.4526
21
7.94409
0
LINE
8
layer1
10
-0.4526
20
7.94409
11
-0.43054
21
7.92498
0
LINE
8
layer1
10
-0.43054
20
7.92498
11
-0.40796
21
7.91028
0
LINE
8
layer1
10
-0.40796
20
7.91028
11
-0.38503
21
7.9
0
LINE
8
layer1
10
-0.38503
20
7.9
11
-0.36194
21
7.89415
0
LINE
8
layer1
10
-0.36194
20
7.89415
11
-0.33885
21
7.89273
0
LINE
8
layer1
10
-0.33885
20
7.89273
11
-0.18603
21
7.89784
0
LINE
8
layer1
10
-0.18603
20
7.89784
11
0
21
7.9
0
LINE
8
layer1
10
0
20
7.9
11
0.18603
21
7.89784
0
LINE
8
layer1
10
0.18603
20
7.89784
11
0.33885
21
7.89273
0
LINE
8
layer1
10
0.33885
20
7.89273
11
0.36194
21
7.89415
0
LINE
8
layer1
10
0.36194
20
7.89415
11
0.38503
21
7.9
0
LINE
8
layer1
10
0.38503
20
7.9
11
0.40796
21
7.91028
0
LINE
8
layer1
10
0.40796
20
7.91028
11
0.43054
21
7.92498
0
LINE
8
layer1
10
0.43054
20
7.92498
11
0.4526
21
7.94409
0
LINE
8
layer1
10
0.4526
20
7.94409
11
0.47396
21
7.9676
0
LINE
8
layer1
10
0.47396
20
7.9676
11
0.49446
21
7.99549
0
LINE
8
layer1
10
0.49446
20
7.99549
11
0.51392
21
8.02771
0
LINE
8
layer1
10
0.51392
20
8.02771
11
0.54901
21
8.10506
0
LINE
8
layer1
10
0.54901
20
8.10506
11
0.57788
21
8.19932
0
LINE
8
layer1
10
0.57788
20
8.19932
11
0.59917
21
8.31008
0
LINE
8
layer1
10
0.59917
20
8.31008
11
0.61247
21
8.44488
0
LINE
8
layer1
10
0.61247
20
8.44488
11
0.62345
21
8.50897
0
LINE
8
layer1
10
0.62345
20
8.50897
11
0.65417
21
8.62896
0
LINE
8
layer1
10
0.65417
20
8.62896
11
0.67979
21
8.70878
0
LINE
8
layer1
10
0.67979
20
8.70878
11
0.71382
21
8.80135
0
LINE
8
layer1
10
0.71382
20
8.80135
11
0.75763
21
8.90672
0
LINE
8
layer1
10
0.75763
20
8.90672
11
0.81163
21
9.02267
0
LINE
8
layer1
10
0.81163
20
9.02267
11
0.87754
21
9.15003
0
LINE
8
layer1
10
0.87754
20
9.15003
11
0.95567
21
9.28668
0
LINE
8
layer1
10
0.95567
20
9.28668
11
1.04817
21
9.43386
0
LINE
8
layer1
10
1.04817
20
9.43386
11
1.15507
21
9.58904
0
LINE
8
layer1
10
1.15507
20
9.58904
11
1.27668
21
9.75066
0
LINE
8
layer1
10
1.27668
20
9.75066
11
1.4000078
21
9.901496
0
ARC
8
layer1
10
-0.000003
20
-0.0000175
40
10
50
78.0479096
51
81.9520913
0
LINE
8
layer1
10
2.0709341
20
9.7831936
11
2.1352354
21
9.5992735
0
LINE
8
layer1
10
2.1352354
20
9.5992735
11
2.1942341
21
9.4058073
0
LINE
8
layer1
10
2.1942341
20
9.4058073
11
2.2416125
21
9.2234239
0
LINE
8
layer1
10
2.2416125
20
9.2234239
11
2.2781956
21
9.0534831
0
LINE
8
layer1
10
2.2781956
20
9.0534831
11
2.3048767
21
8.898352
0
LINE
8
layer1
10
2.3048767
20
8.898352
11
2.3232522
21
8.7561302
0
LINE
8
layer1
10
2.3232522
20
8.7561302
11
2.3343383
21
8.6287038
0
LINE
8
layer1
10
2.3343383
20
8.6287038
11
2.3394676
21
8.5147045
0
LINE
8
layer1
10
2.3394676
20
8.5147045
11
2.3397845
21
8.4160782
0
LINE
8
layer1
10
2.3397845
20
8.4160782
11
2.3365594
21
8.3323094
0
LINE
8
layer1
10
2.3365594
20
8.3323094
11
2.3243878
21
8.2090488
0
LINE
8
layer1
10
2.3243878
20
8.2090488
11
2.3127855
21
8.1450685
0
LINE
8
layer1
10
2.3127855
20
8.1450685
11
2.2791791
21
8.0138491
0
LINE
8
layer1
10
2.2791791
20
8.0138491
11
2.261303
21
7.9024871
0
LINE
8
layer1
10
2.261303
20
7.9024871
11
2.2561931
21
7.8040376
0
LINE
8
layer1
10
2.2561931
20
7.8040376
11
2.2627117
21
7.7193508
0
LINE
8
layer1
10
2.2627117
20
7.7193508
11
2.2699782
21
7.6824182
0
LINE
8
layer1
10
2.2699782
20
7.6824182
11
2.279703
21
7.6491988
0
LINE
8
layer1
10
2.279703
20
7.6491988
11
2.2917339
21
7.6198011
0
LINE
8
layer1
10
2.2917339
20
7.6198011
11
2.3059275
21
7.5942986
0
LINE
8
layer1
10
2.3059275
20
7.5942986
11
2.3221181
21
7.5727623
0
LINE
8
layer1
10
2.3221181
20
7.5727623
11
2.3401493
21
7.5552597
0
LINE
8
layer1
10
2.3401493
20
7.5552597
11
2.359846
21
7.5418653
0
LINE
8
layer1
10
2.359846
20
7.5418653
11
2.3810578
21
7.5326337
0
LINE
8
layer1
10
2.3810578
20
7.5326337
11
2.5264094
21
7.485168
0
LINE
8
layer1
10
2.5264094
20
7.485168
11
2.7019591
21
7.4235717
0
LINE
8
layer1
10
2.7019591
20
7.4235717
11
2.8760314
21
7.357916
0
LINE
8
layer1
10
2.8760314
20
7.357916
11
3.0178875
21
7.3008466
0
LINE
8
layer1
10
3.0178875
20
7.3008466
11
3.0400707
21
7.2942837
0
LINE
8
layer1
10
3.0400707
20
7.2942837
11
3.063769
21
7.2918837
0
LINE
8
layer1
10
3.063769
20
7.2918837
11
3.0888321
21
7.2937012
0
LINE
8
layer1
10
3.0888321
20
7.2937012
11
3.1150781
21
7.2997919
0
LINE
8
layer1
10
3.1150781
20
7.2997919
11
3.1423437
21
7.3102044
0
LINE
8
layer1
10
3.1423437
20
7.3102044
11
3.1704564
21
7.3249911
0
LINE
8
layer1
10
3.1704564
20
7.3249911
11
3.199259
21
7.3441877
0
LINE
8
layer1
10
3.199259
20
7.3441877
11
3.2285654
21
7.3678089
0
LINE
8
layer1
10
3.2285654
20
7.3678089
11
3.2879944
21
7.4284926
0
LINE
8
layer1
10
3.2879944
20
7.4284926
11
3.3473622
21
7.5071939
0
LINE
8
layer1
10
3.3473622
20
7.5071939
11
3.4052504
21
7.6039926
0
LINE
8
layer1
10
3.4052504
20
7.6039926
11
3.4638526
21
7.7261143
0
LINE
8
layer1
10
3.4638526
20
7.7261143
11
3.4960905
21
7.7825839
0
LINE
8
layer1
10
3.4960905
20
7.7825839
11
3.5659969
21
7.8848307
0
LINE
8
layer1
10
3.5659969
20
7.8848307
11
3.6173718
21
7.9510744
0
LINE
8
layer1
10
3.6173718
20
7.9510744
11
3.6810104
21
8.0264228
0
LINE
8
layer1
10
3.6810104
20
8.0264228
11
3.758217
21
8.1104543
0
LINE
8
layer1
10
3.758217
20
8.1104543
11
3.8486176
21
8.2009426
0
LINE
8
layer1
10
3.8486176
20
8.2009426
11
3.9541124
21
8.2980793
0
LINE
8
layer1
10
3.9541124
20
8.2980793
11
4.0742677
21
8.3997663
0
LINE
8
layer1
10
4.0742677
20
8.3997663
11
4.2115278
21
8.5064334
0
LINE
8
layer1
10
4.2115278
20
8.5064334
11
4.3650556
21
8.6156929
0
LINE
8
layer1
10
4.3650556
20
8.6156929
11
4.5346089
21
8.725973
0
LINE
8
layer1
10
4.5346089
20
8.725973
11
4.7020881
21
8.8255319
0
ARC
8
layer1
10
-0.0000087
20
-0.0000154
40
10
50
58.0479101
51
61.9520917
0
LINE
8
layer1
10
5.2920908
20
8.4848937
11
5.2896098
21
8.290073
0
LINE
8
layer1
10
5.2896098
20
8.290073
11
5.2788811
21
8.0880955
0
LINE
8
layer1
10
5.2788811
20
8.0880955
11
5.2610235
21
7.9005067
0
LINE
8
layer1
10
5.2610235
20
7.9005067
11
5.2372771
21
7.7283024
0
LINE
8
layer1
10
5.2372771
20
7.7283024
11
5.2092913
21
7.5734015
0
LINE
8
layer1
10
5.2092913
20
7.5734015
11
5.1779158
21
7.4334719
0
LINE
8
layer1
10
5.1779158
20
7.4334719
11
5.144751
21
7.3099385
0
LINE
8
layer1
10
5.144751
20
7.3099385
11
5.1105809
21
7.2010599
0
LINE
8
layer1
10
5.1105809
20
7.2010599
11
5.0771465
21
7.1082731
0
LINE
8
layer1
10
5.0771465
20
7.1082731
11
5.0454653
21
7.0306592
0
LINE
8
layer1
10
5.0454653
20
7.0306592
11
4.9918701
21
6.9189951
0
LINE
8
layer1
10
4.9918701
20
6.9189951
11
4.959085
21
6.8628415
0
LINE
8
layer1
10
4.959085
20
6.8628415
11
4.8826256
21
6.7510297
0
LINE
8
layer1
10
4.8826256
20
6.7510297
11
4.8277395
21
6.6524976
0
LINE
8
layer1
10
4.8277395
20
6.6524976
11
4.7892661
21
6.561733
0
LINE
8
layer1
10
4.7892661
20
6.561733
11
4.766427
21
6.479924
0
LINE
8
layer1
10
4.766427
20
6.479924
11
4.7606236
21
6.4427334
0
LINE
8
layer1
10
4.7606236
20
6.4427334
11
4.7584001
21
6.4081913
0
LINE
8
layer1
10
4.7584001
20
6.4081913
11
4.7596509
21
6.3764517
0
LINE
8
layer1
10
4.7596509
20
6.3764517
11
4.7642662
21
6.3476327
0
LINE
8
layer1
10
4.7642662
20
6.3476327
11
4.7721145
21
6.3218577
0
LINE
8
layer1
10
4.7721145
20
6.3218577
11
4.783072
21
6.2992436
0
LINE
8
layer1
10
4.783072
20
6.2992436
11
4.7969997
21
6.2799203
0
LINE
8
layer1
10
4.7969997
20
6.2799203
11
4.8137749
21
6.2639905
0
LINE
8
layer1
10
4.8137749
20
6.2639905
11
4.9341264
21
6.1696742
0
LINE
8
layer1
10
4.9341264
20
6.1696742
11
5.0780221
21
6.0517511
0
LINE
8
layer1
10
5.0780221
20
6.0517511
11
5.2191409
21
5.9305187
0
LINE
8
layer1
10
5.2191409
20
5.9305187
11
5.3329232
21
5.8283734
0
LINE
8
layer1
10
5.3329232
20
5.8283734
11
5.3515239
21
5.8146192
0
LINE
8
layer1
10
5.3515239
20
5.8146192
11
5.3729722
21
5.8042586
0
LINE
8
layer1
10
5.3729722
20
5.8042586
11
5.3971455
21
5.7973944
0
LINE
8
layer1
10
5.3971455
20
5.7973944
11
5.4238917
21
5.7941411
0
LINE
8
layer1
10
5.4238917
20
5.7941411
11
5.4530743
21
5.7946003
0
LINE
8
layer1
10
5.4530743
20
5.7946003
11
5.484549
21
5.7988801
0
LINE
8
layer1
10
5.484549
20
5.7988801
11
5.5181802
21
5.8070679
0
LINE
8
layer1
10
5.5181802
20
5.8070679
11
5.5537981
21
5.8192412
0
LINE
8
layer1
10
5.5537981
20
5.8192412
11
5.6303982
21
5.8559393
0
LINE
8
layer1
10
5.6303982
20
5.8559393
11
5.7131031
21
5.9095894
0
LINE
8
layer1
10
5.7131031
20
5.9095894
11
5.8006073
21
5.9807516
0
LINE
8
layer1
10
5.8006073
20
5.9807516
11
5.8974435
21
6.0754653
0
LINE
8
layer1
10
5.8974435
20
6.0754653
11
5.9470509
21
6.1175032
0
LINE
8
layer1
10
5.9470509
20
6.1175032
11
6.0477119
21
6.1896745
0
LINE
8
layer1
10
6.0477119
20
6.1896745
11
6.1186452
21
6.2343519
0
LINE
8
layer1
10
6.1186452
20
6.2343519
11
6.2042166
21
6.2833906
0
LINE
8
layer1
10
6.2042166
20
6.2833906
11
6.3055075
21
6.3359482
0
LINE
8
layer1
10
6.3055075
20
6.3359482
11
6.4214051
21
6.3900605
0
LINE
8
layer1
10
6.4214051
20
6.3900605
11
6.5537606
21
6.4452578
0
LINE
8
layer1
10
6.5537606
20
6.4452578
11
6.7014485
21
6.4997168
0
LINE
8
layer1
10
6.7014485
20
6.4997168
11
6.8669131
21
6.5530053
0
LINE
8
layer1
10
6.8669131
20
6.5530053
11
7.0485511
21
6.6031661
0
LINE
8
layer1
10
7.0485511
20
6.6031661
11
7.2455971
21
6.6488048
0
LINE
8
layer1
10
7.2455971
20
6.6488048
11
7.4370271
21
6.6850783
0
ARC
8
layer1
10
-0.0000131
20
-0.000012
40
10
50
38.0479135
51
41.9520953
0
LINE
8
layer1
10
7.8749432
20
6.1631903
11
7.8059793
21
5.9809673
0
LINE
8
layer1
10
7.8059793
20
5.9809673
11
7.7268172
21
5.79484
0
LINE
8
layer1
10
7.7268172
20
5.79484
11
7.6458774
21
5.6246718
0
LINE
8
layer1
10
7.6458774
20
5.6246718
11
7.5646658
21
5.4709745
0
LINE
8
layer1
10
7.5646658
20
5.4709745
11
7.4853884
21
5.3349869
0
LINE
8
layer1
10
7.4853884
20
5.3349869
11
7.4080464
21
5.2142272
0
LINE
8
layer1
10
7.4080464
20
5.2142272
11
7.3346308
21
5.1094868
0
LINE
8
layer1
10
7.3346308
20
5.1094868
11
7.2652827
21
5.0188613
0
LINE
8
layer1
10
7.2652827
20
5.0188613
11
7.2021297
21
4.9431054
0
LINE
8
layer1
10
7.2021297
20
4.9431054
11
7.1458136
21
4.8810078
0
LINE
8
layer1
10
7.1458136
20
4.8810078
11
7.0572592
21
4.7944085
0
LINE
8
layer1
10
7.0572592
20
4.7944085
11
7.0072456
21
4.7528546
0
LINE
8
layer1
10
7.0072456
20
4.7528546
11
6.8971554
21
4.6739364
0
LINE
8
layer1
10
6.8971554
20
4.6739364
11
6.8118794
21
4.6001188
0
LINE
8
layer1
10
6.8118794
20
4.6001188
11
6.7446829
21
4.5279866
0
LINE
8
layer1
10
6.7446829
20
4.5279866
11
6.6952408
21
4.4589228
0
LINE
8
layer1
10
6.6952408
20
4.4589228
11
6.6770675
21
4.4259599
0
LINE
8
layer1
10
6.6770675
20
4.4259599
11
6.663164
21
4.3942614
0
LINE
8
layer1
10
6.663164
20
4.3942614
11
6.6534837
21
4.3640081
0
LINE
8
layer1
10
6.6534837
20
4.3640081
11
6.647964
21
4.3353486
0
LINE
8
layer1
10
6.647964
20
4.3353486
11
6.6465234
21
4.3084437
0
LINE
8
layer1
10
6.6465234
20
4.3084437
11
6.6490857
21
4.2834458
0
LINE
8
layer1
10
6.6490857
20
4.2834458
11
6.6555644
21
4.2605242
0
LINE
8
layer1
10
6.6555644
20
4.2605242
11
6.6658797
21
4.2398177
0
LINE
8
layer1
10
6.6658797
20
4.2398177
11
6.7467151
21
4.1100267
0
LINE
8
layer1
10
6.7467151
20
4.1100267
11
6.8416007
21
3.95
0
LINE
8
layer1
10
6.8416007
20
3.95
11
6.9327451
21
3.7878133
0
LINE
8
layer1
10
6.9327451
20
3.7878133
11
7.0047297
21
3.6529123
0
LINE
8
layer1
10
7.0047297
20
3.6529123
11
7.0175044
21
3.6336258
0
LINE
8
layer1
10
7.0175044
20
3.6336258
11
7.0341157
21
3.6165542
0
LINE
8
layer1
10
7.0341157
20
3.6165542
11
7.0544834
21
3.6018363
0
LINE
8
layer1
10
7.0544834
20
3.6018363
11
7.078504
21
3.5896314
0
LINE
8
layer1
10
7.078504
20
3.5896314
11
7.1060837
21
3.5800819
0
LINE
8
layer1
10
7.1060837
20
3.5800819
11
7.137124
21
3.5733386
0
LINE
8
layer1
10
7.137124
20
3.5733386
11
7.1715275
21
3.5695301
0
LINE
8
layer1
10
7.1715275
20
3.5695301
11
7.2091608
21
3.5687872
0
LINE
8
layer1
10
7.2091608
20
3.5687872
11
7.2936929
21
3.5770734
0
LINE
8
layer1
10
7.2936929
20
3.5770734
11
7.3897594
21
3.5992012
0
LINE
8
layer1
10
7.3897594
20
3.5992012
11
7.4963254
21
3.6361436
0
LINE
8
layer1
10
7.4963254
20
3.6361436
11
7.6197156
21
3.6920254
0
LINE
8
layer1
10
7.6197156
20
3.6920254
11
7.6807092
21
3.7145615
0
LINE
8
layer1
10
7.6807092
20
3.7145615
11
7.7999836
21
3.7479522
0
LINE
8
layer1
10
7.7999836
20
3.7479522
11
7.8819197
21
3.7656746
0
LINE
8
layer1
10
7.8819197
20
3.7656746
11
7.9791027
21
3.7824887
0
LINE
8
layer1
10
7.9791027
20
3.7824887
11
8.0922608
21
3.7972332
0
LINE
8
layer1
10
8.0922608
20
3.7972332
11
8.2196764
21
3.8084428
0
LINE
8
layer1
10
8.2196764
20
3.8084428
11
8.3629284
21
3.8150431
0
LINE
8
layer1
10
8.3629284
20
3.8150431
11
8.5203358
21
3.8157055
0
LINE
8
layer1
10
8.5203358
20
3.8157055
11
8.6940474
21
3.8091882
0
LINE
8
layer1
10
8.6940474
20
3.8091882
11
8.8818872
21
3.7942
0
LINE
8
layer1
10
8.8818872
20
3.7942
11
9.0826593
21
3.7696927
0
LINE
8
layer1
10
9.0826593
20
3.7696927
11
9.274951
21
3.7383057
0
ARC
8
layer1
10
-0.0000166
20
-0.0000063
40
10
50
18.0479101
51
21.9520922
0
LINE
8
layer1
10
9.5079612
20
3.0981153
11
9.3808324
21
2.9504687
0
ENDSEC
0
EOF