0
SECTION
2
HEADER
9
$INSUNITS
70
4
9
$ACADVER
1
AC1014
9
$HANDSEED
5
FFFF
0
ENDSEC
0
SECTION
2
TABLES
0
TABLE
2
VPORT
5
8
100
AcDbSymbolTable
0
ENDTAB
0
TABLE
2
LTYPE
5
5
100
AcDbSymbolTable
0
LTYPE
5
14
100
AcDbSymbolTableRecord
100
AcDbLinetypeTableRecord
2
BYBLOCK
70
0
0
LTYPE
5
15
100
AcDbSymbolTableRecord
100
AcDbLinetypeTableRecord
2
BYLAYER
70
0
0
LTYPE
5
16
100
AcDbSymbolTableRecord
100
AcDbLinetypeTableRecord
2
DASHED
70
0
3
Dashed __ __ __ __ __ __ __ __ __ __ __ __ __ _
72
65
73
2
40
0.75
49
0.5
74
0
49
-0.25
74
0
0
ENDTAB
0
TABLE
2
LAYER
5
2
100
AcDbSymbolTable
70
2
0
LAYER
5
50
100
AcDbSymbolTableRecord
100
AcDbLayerTableRecord
2
0
70
0
62
7
6
CONTINUOUS
0
ENDTAB
0
TABLE
2
STYLE
5
3
100
AcDbSymbolTable
70
1
0
STYLE
5
11
100
AcDbSymbolTableRecord
100
AcDbTextStyleTableRecord
2
STANDARD
70
0
0
ENDTAB
0
TABLE
2
VIEW
5
6
100
AcDbSymbolTable
70
0
0
ENDTAB
0
TABLE
2
UCS
5
7
100
AcDbSymbolTable
70
0
0
ENDTAB
0
TABLE
2
APPID
5
9
100
AcDbSymbolTable
70
2
0
APPID
5
12
100
AcDbSymbolTableRecord
100
AcDbRegAppTableRecord
2
ACAD
70
0
0
ENDTAB
0
TABLE
2
DIMSTYLE
5
A
100
AcDbSymbolTable
70
1
0
ENDTAB
0
TABLE
2
BLOCK_RECORD
5
1
100
AcDbSymbolTable
70
1
0
BLOCK_RECORD
5
1F
100
AcDbSymbolTableRecord
100
AcDbBlockTableRecord
2
*MODEL_SPACE
0
BLOCK_RECORD
5
1B
100
AcDbSymbolTableRecord
100
AcDbBlockTableRecord
2
*PAPER_SPACE
0
ENDTAB
0
ENDSEC
0
SECTION
2
BLOCKS
0
BLOCK
5
20
100
AcDbEntity
100
AcDbBlockBegin
2
*MODEL_SPACE
0
ENDBLK
5
21
100
AcDbEntity
100
AcDbBlockEnd
0
BLOCK
5
1C
100
AcDbEntity
100
AcDbBlockBegin
2
*PAPER_SPACE
0
ENDBLK
5
1D
100
AcDbEntity
100
AcDbBlockEnd
0
ENDSEC
0
SECTION
2
ENTITIES
0
POINT
5
100
100
AcDbEntity
8
0
100
AcDbPoint
10
-79.375
20
-18.574000000000005
30
0
0
POINT
5
101
100
AcDbEntity
8
0
100
AcDbPoint
10
-77.375
20
-20.574000000000005
30
0
0
POINT
5
102
100
AcDbEntity
8
0
100
AcDbPoint
10
79.375
20
18.573999999999998
30
0
0
POINT
5
103
100
AcDbEntity
8
0
100
AcDbPoint
10
77.375
20
20.574000000000005
30
0
0
LINE
5
104
100
AcDbEntity
8
0
100
AcDbLine
10
-61.374999999999957
20
7.9259999999999939
30
0
11
-61.374999999999957
21
15.573999999999998
31
0
0
LINE
5
105
100
AcDbEntity
8
0
100
AcDbLine
10
-61.374999999999957
20
15.573999999999998
30
0
11
-61.374999999999957
21
18.074000000000009
31
0
0
LINE
5
106
100
AcDbEntity
8
0
100
AcDbLine
10
39.375000000000028
20
18.074000000000009
30
0
11
-61.374999999999957
21
18.074000000000009
31
0
0
ARC
5
107
100
AcDbEntity
8
0
100
AcDbCircle
10
-56.374999999999957
20
7.9259999999999886
30
0
40
5
210
0
220
0
230
1
100
AcDbArc
50
180
51
270
0
LINE
5
108
100
AcDbEntity
8
0
100
AcDbLine
10
-51.374999999999957
20
2.9259999999999931
30
0
11
-56.374999999999957
21
2.9259999999999891
31
0
0
ARC
5
109
100
AcDbEntity
8
0
100
AcDbCircle
10
-51.374999999999964
20
0.42599999999998694
30
0
40
2.5000000000000089
210
0
220
-0
230
1
100
AcDbArc
50
0
51
89.999999999999844
0
LINE
5
110
100
AcDbEntity
8
0
100
AcDbLine
10
-48.874999999999957
20
-16.574000000000005
30
0
11
17.500000000000071
21
-16.574000000000012
31
0
0
ARC
5
111
100
AcDbEntity
8
0
100
AcDbCircle
10
22.500000000000071
20
0.57400000000000007
30
0
40
4.9999999999999991
210
0
220
-0
230
1
100
AcDbArc
50
90
51
180
0
LINE
5
112
100
AcDbEntity
8
0
100
AcDbLine
10
34.375000000000028
20
5.5740000000000016
30
0
11
22.500000000000071
21
5.573999999999999
31
0
0
ARC
5
113
100
AcDbEntity
8
0
100
AcDbCircle
10
34.375000000000028
20
10.573999999999996
30
0
40
4.9999999999999956
210
0
220
0
230
1
100
AcDbArc
50
-90
51
0
0
LINE
5
114
100
AcDbEntity
8
0
100
AcDbLine
10
39.375000000000028
20
15.574000000000002
30
0
11
39.375000000000028
21
10.574000000000002
31
0
0
CIRCLE
5
115
100
AcDbEntity
8
0
100
AcDbCircle
10
45.375000000000007
20
-2.5740000000000003
30
0
40
1.7499999999999978
210
0
220
0
230
1
0
CIRCLE
5
116
100
AcDbEntity
8
0
100
AcDbCircle
10
23.500000000000078
20
-2.5000000000001821
30
0
40
1.7000000000000002
210
0
220
0
230
1
0
CIRCLE
5
117
100
AcDbEntity
8
0
100
AcDbCircle
10
23.500000000000078
20
-11.500000000000199
30
0
40
1.7000000000000002
210
0
220
0
230
1
0
CIRCLE
5
118
100
AcDbEntity
8
0
100
AcDbCircle
10
-52.500000000000014
20
-11.500000000000199
30
0
40
1.8250000000000011
210
0
220
0
230
1
0
CIRCLE
5
119
100
AcDbEntity
8
0
100
AcDbCircle
10
-52.500000000000014
20
-2.5000000000001856
30
0
40
1.8250000000000011
210
0
220
0
230
1
0
LWPOLYLINE
5
120
100
AcDbEntity
8
0
100
AcDbPolyline
90
4
70
1
43
0.0
10
-64.499999999999943
20
-10.074000000000007
10
-54.874999999999943
20
-10.074000000000016
10
-54.874999999999943
20
-17.574000000000009
10
-64.499999999999943
20
-17.574000000000009
0
CIRCLE
5
121
100
AcDbEntity
8
0
100
AcDbCircle
10
-69.374999999999943
20
2.0739999999999981
30
0
40
1.7499999999999978
210
0
220
0
230
1
0
LWPOLYLINE
5
122
100
AcDbEntity
8
0
100
AcDbPolyline
90
4
70
1
43
0.0
10
28.722453025641606
20
-10.455059970820777
10
75.922453025641687
20
-10.455059970820777
10
75.922453025641687
20
-20.305059970820793
10
28.722453025641613
20
-20.305059970820793
0
LINE
5
123
100
AcDbEntity
8
0
100
AcDbLine
10
39.375000000000028
20
15.574000000000002
30
0
11
39.375000000000028
21
18.074000000000009
31
0
0
LINE
5
124
100
AcDbEntity
8
0
100
AcDbLine
10
17.500000000000071
20
-16.574000000000012
30
0
11
17.500000000000071
21
0.57399999999999662
31
0
0
LINE
5
125
100
AcDbEntity
8
0
100
AcDbLine
10
-48.874999999999957
20
-16.574000000000005
30
0
11
-48.874999999999957
21
0.42599999999999305
31
0
0
LINE
5
126
100
AcDbEntity
8
0
100
AcDbLine
10
-79.375
20
-20.574000000000005
30
0
11
-79.375
21
-19.574000000000005
31
0
0
LINE
5
127
100
AcDbEntity
8
0
100
AcDbLine
10
-79.375
20
-20.574000000000005
30
0
11
-78.375
21
-20.574000000000005
31
0
0
LINE
5
128
100
AcDbEntity
8
0
100
AcDbLine
10
79.375
20
19.574000000000005
30
0
11
79.375
21
20.574000000000005
31
0
0
LINE
5
129
100
AcDbEntity
8
0
100
AcDbLine
10
79.375
20
20.574000000000005
30
0
11
78.375
21
20.574000000000005
31
0
0
ENDSEC
0
SECTION
2
OBJECTS
0
DICTIONARY
5
C
100
AcDbDictionary
3
ACAD_GROUP
350
D
3
ACAD_MLINESTYLE
350
17
0
DICTIONARY
5
D
100
AcDbDictionary
0
DICTIONARY
5
1A
330
C
100
AcDbDictionary
0
DICTIONARY
5
17
100
AcDbDictionary
0
ENDSEC
0
EOF
