0
SECTION
2
HEADER
9
$INSUNITS
70
4
9
$ACADVER
1
AC1014
9
$HANDSEED
5
FFFF
0
ENDSEC
0
SECTION
2
TABLES
0
TABLE
2
VPORT
5
8
100
AcDbSymbolTable
0
ENDTAB
0
TABLE
2
LTYPE
5
5
100
AcDbSymbolTable
0
LTYPE
5
14
100
AcDbSymbolTableRecord
100
AcDbLinetypeTableRecord
2
BYBLOCK
70
0
0
LTYPE
5
15
100
AcDbSymbolTableRecord
100
AcDbLinetypeTableRecord
2
BYLAYER
70
0
0
ENDTAB
0
TABLE
2
LAYER
5
2
100
AcDbSymbolTable
70
2
0
LAYER
5
50
100
AcDbSymbolTableRecord
100
AcDbLayerTableRecord
2
0
70
0
6
CONTINUOUS
0
ENDTAB
0
TABLE
2
STYLE
5
3
100
AcDbSymbolTable
70
1
0
STYLE
5
11
100
AcDbSymbolTableRecord
100
AcDbTextStyleTableRecord
2
STANDARD
70
0
0
ENDTAB
0
TABLE
2
VIEW
5
6
100
AcDbSymbolTable
70
0
0
ENDTAB
0
TABLE
2
UCS
5
7
100
AcDbSymbolTable
70
0
0
ENDTAB
0
TABLE
2
APPID
5
9
100
AcDbSymbolTable
70
2
0
APPID
5
12
100
AcDbSymbolTableRecord
100
AcDbRegAppTableRecord
2
ACAD
70
0
0
ENDTAB
0
TABLE
2
DIMSTYLE
5
A
100
AcDbSymbolTable
70
1
0
ENDTAB
0
TABLE
2
BLOCK_RECORD
5
1
100
AcDbSymbolTable
70
1
0
BLOCK_RECORD
5
1F
100
AcDbSymbolTableRecord
100
AcDbBlockTableRecord
2
*MODEL_SPACE
0
BLOCK_RECORD
5
1B
100
AcDbSymbolTableRecord
100
AcDbBlockTableRecord
2
*PAPER_SPACE
0
ENDTAB
0
ENDSEC
0
SECTION
2
BLOCKS
0
BLOCK
5
20
100
AcDbEntity
100
AcDbBlockBegin
2
*MODEL_SPACE
0
ENDBLK
5
21
100
AcDbEntity
100
AcDbBlockEnd
0
BLOCK
5
1C
100
AcDbEntity
100
AcDbBlockBegin
2
*PAPER_SPACE
0
ENDBLK
5
1D
100
AcDbEntity
100
AcDbBlockEnd
0
ENDSEC
0
SECTION
2
ENTITIES
0
ARC
5
100
100
AcDbEntity
8
0
100
AcDbCircle
10
-508.56185016426332
20
139.63626014827145
30
0
40
15.875000000000018
210
0
220
-0
230
1
100
AcDbArc
50
57.36195043683739
51
302.6380495631729
0
LINE
5
101
100
AcDbEntity
8
0
100
AcDbLine
10
-500.00000121696274
20
153.00450904817143
30
0
11
-500.00000121696274
21
126.26801124837303
31
0
0
LINE
5
102
100
AcDbEntity
8
0
100
AcDbLine
10
-500.00000121696274
20
79.933806998824508
30
0
11
-500.00000121696274
21
-3.5255417785151622e-06
31
0
0
LINE
5
103
100
AcDbEntity
8
0
100
AcDbLine
10
-500.00000121696274
20
-3.5255417785151622e-06
30
0
11
-107.88433330169113
21
-3.5255417662118307e-06
31
0
0
SPLINE
5
104
100
AcDbEntity
8
0
100
AcDbSpline
70
0
71
3
72
18
73
14
74
0
42
0.000000001
43
0.0000000001
44
0.0000000001
40
0
40
0
40
0
40
0
40
0.91763919937646854
40
0.91763919937646854
40
1.9267464669746546
40
1.9267464669746546
40
3.392472474898911
40
3.392472474898911
40
4.0930173143905124
40
4.0930173143905124
40
4.4194647716838018
40
4.4194647716838018
40
4.7279089759304354
40
4.7279089759304354
40
4.7279089759304354
40
4.7279089759304354
10
-69.94240575138096
20
-20.000003525541747
30
0
10
-73.001203082635854
20
-20.000003525541747
30
0
10
-75.862889249236986
20
-19.415558719583444
30
0
10
-81.799397643069582
20
-16.967520428213206
30
0
10
-84.620256078847419
20
-15.080627809974681
30
0
10
-91.090927204216442
20
-10.016879565125997
30
0
10
-94.592540976143454
20
-6.6001869881181374
30
0
10
-99.719646052668196
20
-2.7487863960839327
30
0
10
-101.38076289365972
20
-1.6812850320601549
30
0
10
-103.84634114172071
20
-0.62681862190968674
30
0
10
-104.65803778143177
20
-0.35742671613963634
30
0
10
-106.28407199045698
20
-0.027947414483903595
30
0
10
-107.07904267046389
20
0.039563701518980823
30
0
10
-107.8843333016911
20
-3.5255417662118307e-06
30
0
0
LINE
5
105
100
AcDbEntity
8
0
100
AcDbLine
10
-69.94240575138096
20
-20.000003525541747
30
0
11
69.942413076192651
21
-20.000003525541779
31
0
0
SPLINE
5
106
100
AcDbEntity
8
0
100
AcDbSpline
70
0
71
3
72
18
73
14
74
0
42
0.000000001
43
0.0000000001
44
0.0000000001
40
0
40
0
40
0
40
0
40
0.37089867703505253
40
0.37089867703505253
40
0.87137629439801101
40
0.87137629439801101
40
1.9596972506872004
40
1.9596972506872004
40
2.7763354646412233
40
2.7763354646412233
40
3.1837294307305144
40
3.1837294307305144
40
3.6024704226650872
40
3.6024704226650872
40
3.6024704226650872
40
3.6024704226650872
10
107.88433490868553
20
-3.5255417794238506e-06
30
0
10
106.64949557217983
20
0.060667884344980258
30
0
10
105.44983216693971
20
-0.1313096545566792
30
0
10
102.68736472653964
20
-1.0161479125391895
30
0
10
101.12442717705804
20
-1.8658837974037041
30
0
10
96.163247131966244
20
-5.2178890325436793
30
0
10
92.725012099586792
20
-8.521400843735087
30
0
10
86.247384341068766
20
-13.893650550098622
30
0
10
83.360970683363774
20
-16.033045577763968
30
0
10
78.611472422851037
20
-18.343438901348883
30
0
10
76.981363663952209
20
-18.953396614622907
30
0
10
73.516232889651391
20
-19.796003738901128
30
0
10
71.749761546099961
20
-20.000003525541782
30
0
10
69.942413076192651
20
-20.000003525541782
30
0
0
LINE
5
107
100
AcDbEntity
8
0
100
AcDbLine
10
107.88433490868553
20
-3.5255417794238506e-06
30
0
11
500.0000085417746
21
-3.5255417785151622e-06
31
0
0
LINE
5
108
100
AcDbEntity
8
0
100
AcDbLine
10
500.0000085417746
20
-3.5255417785151622e-06
30
0
11
500.00000789831091
21
79.933803746958091
31
0
0
LINE
5
109
100
AcDbEntity
8
0
100
AcDbLine
10
500.00002354075696
20
79.933803746958219
30
0
11
520.71484711749281
21
79.933803324715058
31
0
0
LINE
5
110
100
AcDbEntity
8
0
100
AcDbLine
10
520.71484711749281
20
79.933803324715058
30
0
11
520.71414477393819
21
110.95495246137776
31
0
0
LINE
5
111
100
AcDbEntity
8
0
100
AcDbLine
10
520.71414477393819
20
110.95495246137776
30
0
11
525.73155081544428
21
110.95507980654821
31
0
0
LINE
5
112
100
AcDbEntity
8
0
100
AcDbLine
10
525.73155081544428
20
110.95507980654821
30
0
11
525.72867989428107
21
224.06951622909537
31
0
0
LINE
5
113
100
AcDbEntity
8
0
100
AcDbLine
10
525.72867989428107
20
224.06951622909537
30
0
11
510.15999629585593
21
224.0691117835504
31
0
0
LINE
5
114
100
AcDbEntity
8
0
100
AcDbLine
10
510.15999629585593
20
224.0691117835504
30
0
11
510.1600085417744
21
294.7029664605451
31
0
0
SPLINE
5
115
100
AcDbEntity
8
0
100
AcDbSpline
70
0
71
3
72
14
73
10
74
0
42
0.000000001
43
0.0000000001
44
0.0000000001
40
0
40
0
40
0
40
0
40
0.1199591968775298
40
0.1199591968775298
40
0.1199591968775298
40
0.26272950290194719
40
0.26272950290194719
40
0.26272950290194719
40
0.35691023057536864
40
0.35691023057536864
40
0.35691023057536864
40
0.35691023057536864
10
510.1600085417744
20
294.7029664605451
30
0
10
510.1600085417744
20
299.89126337495907
30
0
10
509.36195227102388
20
305.38792353354842
30
0
10
507.80809378717674
20
311.36970262739754
30
0
10
505.95875787103205
20
318.48896029191161
30
0
10
503.0252694948029
20
326.30075564934117
30
0
10
498.53210178135828
20
334.61919766779835
30
0
10
495.56811146296127
20
340.10659168006214
30
0
10
491.92259478072657
20
345.81118166644097
30
0
10
487.3666871570918
20
351.57870029634353
30
0
0
ARC
5
116
100
AcDbEntity
8
0
100
AcDbCircle
10
484.22140966019305
20
361.07118308366017
30
0
40
9.9999999999999272
210
0
220
0
230
1
100
AcDbArc
50
156.72676701298815
51
288.33230683542314
0
SPLINE
5
117
100
AcDbEntity
8
0
100
AcDbSpline
70
0
71
3
72
20
73
16
74
0
42
0.000000001
43
0.0000000001
44
0.0000000001
40
0.42985996947867389
40
0.42985996947867389
40
0.42985996947867389
40
0.42985996947867389
40
0.43083742596445729
40
0.43083742596445729
40
0.43083742596445729
40
0.59709150737368588
40
0.59709150737368588
40
0.59709150737368588
40
0.798545753686843
40
0.798545753686843
40
0.798545753686843
40
0.92246806170270079
40
0.92246806170270079
40
0.92246806170270079
40
1
40
1
40
1
40
1
10
475.0350989692418
20
365.02234694881616
30
0
10
474.9717532217212
20
365.08225642833048
30
0
10
474.90829031803855
20
365.14215981529247
30
0
10
474.84471000234436
20
365.2020569372454
30
0
10
464.03043117234949
20
375.38986696683173
30
0
10
449.82667947203879
20
385.35286171072482
30
0
10
430.603100075962
20
394.21052360234177
30
0
10
407.30940607548007
20
404.94357499781518
30
0
10
376.61867876157714
20
414.0579873394114
30
0
10
334.80877188982231
20
420.37468891577481
30
0
10
309.08987912733431
20
424.26033666317221
30
0
10
279.13746202121433
20
427.08862626186993
30
0
10
244.26177010497494
20
428.66915519635563
30
0
10
222.44180857408196
20
429.65801243915291
30
0
10
198.69940453792418
20
430.15999647445699
30
0
10
172.97063867335055
20
430.15999647445705
30
0
0
LINE
5
118
100
AcDbEntity
8
0
100
AcDbLine
10
172.97063867335055
20
430.15999647445699
30
0
11
-172.97063134853889
21
430.1599964744571
31
0
0
SPLINE
5
119
100
AcDbEntity
8
0
100
AcDbSpline
70
0
71
3
72
26
73
22
74
0
42
0.000000001
43
0.0000000001
44
0.0000000001
40
0
40
0
40
0
40
0
40
0.1199591968775011
40
0.1199591968775011
40
0.1199591968775011
40
0.26272950290196889
40
0.26272950290196889
40
0.26272950290196889
40
0.43083742596474828
40
0.43083742596474828
40
0.43083742596474828
40
0.59709150737387451
40
0.59709150737387451
40
0.59709150737387451
40
0.79854575368693725
40
0.79854575368693725
40
0.79854575368693725
40
0.92246806170279094
40
0.92246806170279094
40
0.92246806170279094
40
1
40
1
40
1
40
1
10
-510.16000121696271
20
294.7029664605451
30
0
10
-510.16000121696271
20
299.89126337495725
30
0
10
-509.36194494621316
20
305.38792353354472
30
0
10
-507.8080864623675
20
311.3697026273922
30
0
10
-505.95875054622331
20
318.4889602919086
30
0
10
-503.02526216999439
20
326.30075564934123
30
0
10
-498.53209445654818
20
334.61919766780176
30
0
10
-493.24151889281205
20
344.41392354449704
30
0
10
-485.77956778349449
20
354.90064616822383
30
0
10
-474.8447026774802
20
365.20205693729929
30
0
10
-464.03042384748011
20
375.38986696687851
30
0
10
-449.82667214716503
20
385.35286171076342
30
0
10
-430.60309275108813
20
394.2105236023724
30
0
10
-407.30939875060272
20
404.94357499783769
30
0
10
-376.61867143669923
20
414.05798733942646
30
0
10
-334.80876456495304
20
420.37468891578396
30
0
10
-309.08987180245913
20
424.26033666317949
30
0
10
-279.13745469633284
20
427.08862626187556
30
0
10
-244.26176278008728
20
428.66915519635933
30
0
10
-222.44180124921508
20
429.65801243915428
30
0
10
-198.69939721308253
20
430.15999647445705
30
0
10
-172.97063134853886
20
430.1599964744571
30
0
0
LINE
5
120
100
AcDbEntity
8
0
100
AcDbLine
10
-510.16000121696271
20
294.7029664605451
30
0
11
-510.15999932891373
21
224.08164363484417
31
0
0
LINE
5
121
100
AcDbEntity
8
0
100
AcDbLine
10
-510.15999932891373
20
224.08164363484417
30
0
11
-526.67361438088028
21
224.0816436348442
31
0
0
LINE
5
122
100
AcDbEntity
8
0
100
AcDbLine
10
-526.67361438088028
20
224.0816436348442
30
0
11
-526.67361418000507
21
105.4917746800367
31
0
0
LINE
5
123
100
AcDbEntity
8
0
100
AcDbLine
10
-526.67361418000507
20
105.4917746800367
30
0
11
-522.35037591165576
21
105.49177466518771
31
0
0
LINE
5
124
100
AcDbEntity
8
0
100
AcDbLine
10
-522.35037591165576
20
105.49177466518771
30
0
11
-522.35037586676845
21
79.933806998822547
31
0
0
LINE
5
125
100
AcDbEntity
8
0
100
AcDbLine
10
-522.35037586676845
20
79.933806998822547
30
0
11
-499.99998434246771
21
79.933806998824508
31
0
0
LWPOLYLINE
5
126
100
AcDbEntity
8
0
100
AcDbPolyline
90
2
70
1
43
0.0
10
-499.99998434248062
20
228.20416720088548
10
-499.99998434244588
20
232.01416720079646
42
-0.99999316468107791
0
LWPOLYLINE
5
127
100
AcDbEntity
8
0
100
AcDbPolyline
90
2
70
1
43
0.0
10
500.00002664070576
20
232.01416720064006
10
500.00002656304127
20
228.20416720104078
42
-1.0000145046137447
0
CIRCLE
5
128
100
AcDbEntity
8
0
100
AcDbCircle
10
403.1142551721972
20
401.72684312330898
30
0
40
1.5000000000000002
210
0
220
-0
230
1
0
CIRCLE
5
129
100
AcDbEntity
8
0
100
AcDbCircle
10
135
20
426.81882642110452
30
0
40
1.5000000000000002
210
0
220
-0
230
1
0
CIRCLE
5
130
100
AcDbEntity
8
0
100
AcDbCircle
10
-90.135011237955894
20
427.1599964744571
30
0
40
1.5000000000000002
210
0
220
-0
230
1
0
CIRCLE
5
131
100
AcDbEntity
8
0
100
AcDbCircle
10
0
20
427.1599964744571
30
0
40
1.5000000000000002
210
0
220
-0
230
1
0
CIRCLE
5
132
100
AcDbEntity
8
0
100
AcDbCircle
10
270
20
424.21228441208859
30
0
40
1.5000000000000002
210
0
220
-0
230
1
0
CIRCLE
5
133
100
AcDbEntity
8
0
100
AcDbCircle
10
504.40049520377829
20
312.47384552510533
30
0
40
1.5000000000000002
210
0
220
-0
230
1
0
CIRCLE
5
134
100
AcDbEntity
8
0
100
AcDbCircle
10
335.12500080349724
20
413.06999647445815
30
0
40
2.0000000000000284
210
0
220
-0
230
1
0
CIRCLE
5
135
100
AcDbEntity
8
0
100
AcDbCircle
10
-512.00792383863086
20
186.50286211966812
30
0
40
10.79500000000003
210
0
220
-0
230
1
0
CIRCLE
5
136
100
AcDbEntity
8
0
100
AcDbCircle
10
511.17521141969661
20
213.28380699882331
30
0
40
3.8100000000000023
210
0
220
-0
230
1
0
CIRCLE
5
137
100
AcDbEntity
8
0
100
AcDbCircle
10
511.17521141969661
20
162.48380699882333
30
0
40
3.8100000000000023
210
0
220
-0
230
1
0
CIRCLE
5
138
100
AcDbEntity
8
0
100
AcDbCircle
10
511.17521141969661
20
105.33380699882332
30
0
40
3.8100000000000023
210
0
220
-0
230
1
0
CIRCLE
5
139
100
AcDbEntity
8
0
100
AcDbCircle
10
-511.17518010462192
20
213.28380699882356
30
0
40
3.8100000000000023
210
0
220
-0
230
1
0
CIRCLE
5
140
100
AcDbEntity
8
0
100
AcDbCircle
10
-511.17518010461811
20
162.48380699882352
30
0
40
3.8100000000000023
210
0
220
-0
230
1
0
CIRCLE
5
141
100
AcDbEntity
8
0
100
AcDbCircle
10
-511.17518010461811
20
105.33380699882355
30
0
40
3.8100000000000023
210
0
220
-0
230
1
0
CIRCLE
5
142
100
AcDbEntity
8
0
100
AcDbCircle
10
75
20
427.1599964744571
30
0
40
1.5000000000000036
210
0
220
-0
230
1
0
CIRCLE
5
143
100
AcDbEntity
8
0
100
AcDbCircle
10
-75
20
427.1599964744571
30
0
40
1.5000000000000036
210
0
220
-0
230
1
0
CIRCLE
5
144
100
AcDbEntity
8
0
100
AcDbCircle
10
-335.12500080349724
20
413.06999647445815
30
0
40
2.0000000000000284
210
0
220
-0
230
1
0
CIRCLE
5
145
100
AcDbEntity
8
0
100
AcDbCircle
10
-135
20
426.81882642110452
30
0
40
1.5000000000000002
210
0
220
0
230
1
0
CIRCLE
5
146
100
AcDbEntity
8
0
100
AcDbCircle
10
-403.1142551721972
20
401.72684312330898
30
0
40
1.5000000000000002
210
0
220
0
230
1
0
CIRCLE
5
147
100
AcDbEntity
8
0
100
AcDbCircle
10
-270
20
424.21228441208859
30
0
40
1.5000000000000002
210
0
220
0
230
1
0
CIRCLE
5
148
100
AcDbEntity
8
0
100
AcDbCircle
10
-504.40049520377829
20
312.47384552510533
30
0
40
1.5000000000000002
210
0
220
0
230
1
0
LWPOLYLINE
5
149
100
AcDbEntity
8
0
100
AcDbPolyline
90
48
70
1
43
0.0
10
-103.58647620445929
20
392.49836022862428
42
0.41421356237308982
10
-97.586476204459288
20
386.49836022862428
10
-88.750855201271577
20
386.49836022862428
42
0.41421356237309764
10
-82.750855201271648
20
392.49836022862434
10
-82.750855201271563
20
408.84774335383736
10
-4.9467089156327848
20
408.84774335383736
10
-4.9467089156327804
20
382.52805615398103
10
-9.0935448534195462
20
382.52805615398131
10
-9.0935448534195551
20
121.51751329828052
42
-0.41421356237309515
10
-21.793544853419554
20
108.81751329828052
10
-170.81154485341955
20
108.81751329828049
42
-0.41421356237309503
10
-183.51154485341951
20
121.51751329828045
10
-183.51154485341959
20
200.23387714649175
42
-0.41421356237307799
10
-182.90154485341961
20
200.84387714649176
10
-182.71122139279808
20
200.84387714649179
42
0.41421356237311213
10
-182.10122139279807
20
201.45387714649183
10
-182.10122139279807
20
212.73080287405193
42
0.41421356237309503
10
-184.0403140622104
20
214.66989554346426
10
-191.02740294504275
20
214.66989554346426
42
0.41421356237309076
10
-193.44097543698786
20
212.25632305151913
10
-193.44097543698786
20
209.85857231415503
42
-0.41421356237309503
10
-195.98097543698793
20
207.31857231415495
10
-264.71416986327574
20
207.31857231415495
42
-0.41421356237309503
10
-267.25416986327571
20
209.85857231415494
10
-267.25416986327571
20
213.75085183261163
42
0.41421356237309503
10
-269.79416986327556
20
216.29085183261145
10
-279.22890411210977
20
216.29085183261145
42
0.41421356237309503
10
-281.76890411210957
20
213.75085183261163
10
-281.76890411210962
20
210.4175132982806
42
-0.41421356237308682
10
-284.30890411210959
20
207.87751329828055
10
-343.16418403394653
20
207.87751329828046
10
-354.6742929293128
20
213.24476522238726
10
-360.04154485341962
20
224.75487411775271
10
-360.04154485341962
20
289.01489231323694
42
-0.41421356237281648
10
-357.50154485341966
20
291.5548923132385
10
-352.47532350982908
20
291.55489231323645
42
0.41421539708720101
10
-349.93532350987658
20
294.09490822405201
10
-349.93536429876769
20
300.60643963494772
42
0.41421172766173803
10
-352.47536429871781
20
303.14642372413255
10
-357.50154485341966
20
303.1464237241326
42
-0.41421356237291479
10
-360.04154485341672
20
305.68642372413262
10
-360.04154485341957
20
379.64876331857255
42
-0.41139052299219991
10
-347.46407344580655
20
392.34817223174832
10
-212.76724913787524
20
392.34817223174855
10
-212.76724913787524
20
411.20292909649692
10
-119.51336615774338
20
411.20292909649692
10
-119.51336615774338
20
405.76195581089735
10
-103.58647620445929
20
405.76195581089735
0
LWPOLYLINE
5
150
100
AcDbEntity
8
0
100
AcDbPolyline
90
10
70
1
43
0.0
10
292.80000625319508
20
16.543996474458226
42
0.41421356237309148
10
286.80000625319514
20
22.543996474458204
10
251.7295620817082
20
22.543996474458208
10
251.72956208170817
20
83.119996474503779
10
286.80000625319508
20
83.119996474503779
42
0.4142135623730942
10
292.80000625319508
20
89.119996474503779
10
292.80000625319508
20
92.899996474458234
10
465.90000616942859
20
92.899996474458234
10
465.90000616942859
20
8.6999964744582137
10
292.80000625319508
20
8.6999964744582137
0
CIRCLE
5
151
100
AcDbEntity
8
0
100
AcDbCircle
10
-3.8367534333664395
20
272.03478804172977
30
0
40
1.5874999999999997
210
0
220
-0
230
1
0
CIRCLE
5
152
100
AcDbEntity
8
0
100
AcDbCircle
10
172.69682957747733
20
272.03478804173062
30
0
40
1.5875000000000126
210
0
220
-0
230
1
0
CIRCLE
5
153
100
AcDbEntity
8
0
100
AcDbCircle
10
335.12500080349724
20
339.22999647445812
30
0
40
2.0000000000000284
210
0
220
-0
230
1
0
CIRCLE
5
154
100
AcDbEntity
8
0
100
AcDbCircle
10
193.99500080349722
20
413.06999647445815
30
0
40
1.9999999999999929
210
0
220
-0
230
1
0
CIRCLE
5
155
100
AcDbEntity
8
0
100
AcDbCircle
10
172.69682957747779
20
222.03478804173056
30
0
40
1.5875000000000126
210
0
220
-0
230
1
0
CIRCLE
5
156
100
AcDbEntity
8
0
100
AcDbCircle
10
-3.8367534333664395
20
222.03478804172971
30
0
40
1.5874999999999997
210
0
220
-0
230
1
0
CIRCLE
5
157
100
AcDbEntity
8
0
100
AcDbCircle
10
-3.8367534333664399
20
373.81957004172978
30
0
40
1.5874999999999995
210
0
220
-0
230
1
0
CIRCLE
5
158
100
AcDbEntity
8
0
100
AcDbCircle
10
172.69682957747634
20
373.81957004173057
30
0
40
1.5875000000000126
210
0
220
-0
230
1
0
CIRCLE
5
159
100
AcDbEntity
8
0
100
AcDbCircle
10
193.99500080349725
20
339.22999647445812
30
0
40
1.9999999999999929
210
0
220
-0
230
1
0
CIRCLE
5
160
100
AcDbEntity
8
0
100
AcDbCircle
10
172.69682957747878
20
120.25000604173059
30
0
40
1.5875000000000126
210
0
220
-0
230
1
0
CIRCLE
5
161
100
AcDbEntity
8
0
100
AcDbCircle
10
-3.8367534333664399
20
120.25000604172973
30
0
40
1.5874999999999995
210
0
220
-0
230
1
0
LWPOLYLINE
5
162
100
AcDbEntity
8
0
100
AcDbPolyline
90
4
70
1
43
0.0
10
419.84722487031371
20
351.41236643074137
10
419.84722487031371
20
331.91236643074137
10
400.34722487031365
20
331.91236643074137
10
400.34722487031365
20
351.41236643074137
0
CIRCLE
5
163
100
AcDbEntity
8
0
100
AcDbCircle
10
47.493725458942997
20
11.441427369692436
30
0
40
1.2699999999999978
210
0
220
-0
230
1
0
CIRCLE
5
164
100
AcDbEntity
8
0
100
AcDbCircle
10
191.72128441160191
20
70.642404016366811
30
0
40
1.9050000000000011
210
0
220
-0
230
1
0
CIRCLE
5
165
100
AcDbEntity
8
0
100
AcDbCircle
10
-121.87020121696315
20
85.229696474387069
30
0
40
2.1590000000000131
210
0
220
-0
230
1
0
CIRCLE
5
166
100
AcDbEntity
8
0
100
AcDbCircle
10
-0.13143627773256839
20
56.924313774703705
30
0
40
6.9850000000000012
210
0
220
-0
230
1
0
CIRCLE
5
167
100
AcDbEntity
8
0
100
AcDbCircle
10
491.99900917050695
20
85.217005802065103
30
0
40
2.1589999999999772
210
0
220
-0
230
1
0
CIRCLE
5
168
100
AcDbEntity
8
0
100
AcDbCircle
10
-5.6928038702148953
20
411.87868862462409
30
0
40
2.1590000000000211
210
0
220
-0
230
1
0
CIRCLE
5
169
100
AcDbEntity
8
0
100
AcDbCircle
10
-5.6928038702148953
20
297.57868862462419
30
0
40
2.1590000000000211
210
0
220
-0
230
1
0
CIRCLE
5
170
100
AcDbEntity
8
0
100
AcDbCircle
10
-89.512803870214867
20
411.87868862462409
30
0
40
2.1590000000000131
210
0
220
-0
230
1
0
LWPOLYLINE
5
171
100
AcDbEntity
8
0
100
AcDbPolyline
90
2
70
1
43
0.0
10
-215.01188139095407
20
145.8688774023023
42
1.0000352276746785
10
-215.01191726999255
20
150.18687739947404
42
1.0000352277369251
0
CIRCLE
5
172
100
AcDbEntity
8
0
100
AcDbCircle
10
-5.6928038702148953
20
101.99868862462424
30
0
40
2.1590000000000211
210
0
220
-0
230
1
0
LWPOLYLINE
5
173
100
AcDbEntity
8
0
100
AcDbPolyline
90
2
70
1
43
0.0
10
-215.0061456611833
20
191.58735565781876
42
1.0000346514492995
10
-215.02168466660316
20
195.90532769535255
42
1.0000348794587095
0
CIRCLE
5
174
100
AcDbEntity
8
0
100
AcDbCircle
10
-114.91280387021487
20
101.99868862462424
30
0
40
2.1590000000000131
210
0
220
-0
230
1
0
CIRCLE
5
175
100
AcDbEntity
8
0
100
AcDbCircle
10
-224.13280387021484
20
101.99868862462424
30
0
40
2.1590000000000131
210
0
220
-0
230
1
0
CIRCLE
5
176
100
AcDbEntity
8
0
100
AcDbCircle
10
-5.6928038702148953
20
204.86868862462416
30
0
40
2.1590000000000211
210
0
220
-0
230
1
0
CIRCLE
5
177
100
AcDbEntity
8
0
100
AcDbCircle
10
244.63355805732732
20
193.97365069202118
30
0
40
2.1590000000000131
210
0
220
-0
230
1
0
CIRCLE
5
178
100
AcDbEntity
8
0
100
AcDbCircle
10
398.16534645519454
20
131.31765854468875
30
0
40
2.1590000000000487
210
0
220
-0
230
1
0
CIRCLE
5
179
100
AcDbEntity
8
0
100
AcDbCircle
10
239.41719612978505
20
101.99868862462424
30
0
40
2.1590000000000131
210
0
220
-0
230
1
0
CIRCLE
5
180
100
AcDbEntity
8
0
100
AcDbCircle
10
324.50719612978503
20
101.99868862462424
30
0
40
2.1590000000000487
210
0
220
-0
230
1
0
CIRCLE
5
181
100
AcDbEntity
8
0
100
AcDbCircle
10
473.8573464551946
20
131.31765854468875
30
0
40
2.1590000000000487
210
0
220
-0
230
1
0
CIRCLE
5
182
100
AcDbEntity
8
0
100
AcDbCircle
10
57.289022922262198
20
56.924313774703705
30
0
40
9.5249999999999968
210
0
220
-0
230
1
0
CIRCLE
5
183
100
AcDbEntity
8
0
100
AcDbCircle
10
191.72128441160214
20
19.842404016366832
30
0
40
1.9050000000000011
210
0
220
-0
230
1
0
CIRCLE
5
184
100
AcDbEntity
8
0
100
AcDbCircle
10
11.085365458942782
20
11.441427369692436
30
0
40
1.27
210
0
220
-0
230
1
0
CIRCLE
5
185
100
AcDbEntity
8
0
100
AcDbCircle
10
154.89128441160187
20
19.842404016366832
30
0
40
1.9050000000000011
210
0
220
-0
230
1
0
CIRCLE
5
186
100
AcDbEntity
8
0
100
AcDbCircle
10
154.89128441160216
20
70.642404016366811
30
0
40
1.9050000000000011
210
0
220
-0
230
1
0
LWPOLYLINE
5
187
100
AcDbEntity
8
0
100
AcDbPolyline
90
12
70
1
43
0.0
10
171.48648039664124
20
69.695930669115853
10
183.74148039664135
20
69.695930669115853
10
183.74148039664135
20
63.486930669115793
10
190.74148039664138
20
63.486930669115793
10
190.74148039664138
20
29.486930669115736
10
183.74148039664138
20
29.486930669115736
10
183.74148039664138
20
23.277930669115818
10
176.08648039664129
20
23.277930669115818
10
176.08648039664129
20
27.055637133023254
10
154.9321347957044
20
27.055637133023254
10
154.9321347957044
20
66.055637133023168
10
171.4864803966413
20
66.055637133023168
0
CIRCLE
5
188
100
AcDbEntity
8
0
100
AcDbCircle
10
491.57983129552412
20
8.0136964743870625
30
0
40
2.1589999999999772
210
0
220
-0
230
1
0
CIRCLE
5
189
100
AcDbEntity
8
0
100
AcDbCircle
10
-493.73989833098449
20
117.37952187196768
30
0
40
2.1590000000000487
210
0
220
-0
230
1
0
CIRCLE
5
190
100
AcDbEntity
8
0
100
AcDbCircle
10
-369.60530519359025
20
398.87704302756276
30
0
40
2.1590000000000487
210
0
220
-0
230
1
0
CIRCLE
5
191
100
AcDbEntity
8
0
100
AcDbCircle
10
-366.37280387021474
20
101.99868862462424
30
0
40
2.1590000000000487
210
0
220
-0
230
1
0
CIRCLE
5
192
100
AcDbEntity
8
0
100
AcDbCircle
10
-238.10280387021481
20
101.99868862462424
30
0
40
2.1590000000000131
210
0
220
-0
230
1
0
LWPOLYLINE
5
193
100
AcDbEntity
8
0
100
AcDbPolyline
90
2
70
1
43
0.0
10
-244.99388381315427
20
145.8675695263511
42
0.99996553080682704
10
-244.97859502304223
20
150.18554245713435
42
0.99996417949751126
0
CIRCLE
5
194
100
AcDbEntity
8
0
100
AcDbCircle
10
-478.58159830664431
20
334.39957426699902
30
0
40
2.1590000000000487
210
0
220
-0
230
1
0
CIRCLE
5
195
100
AcDbEntity
8
0
100
AcDbCircle
10
-274.47278350985027
20
210.66754632959373
30
0
40
2.1589999999999772
210
0
220
-0
230
1
0
CIRCLE
5
196
100
AcDbEntity
8
0
100
AcDbCircle
10
-357.37640135382918
20
297.81299569337079
30
0
40
2.1589999999999772
210
0
220
-0
230
1
0
CIRCLE
5
197
100
AcDbEntity
8
0
100
AcDbCircle
10
-231.31928814069934
20
408.94550981774529
30
0
40
2.1589999999999772
210
0
220
-0
230
1
0
CIRCLE
5
198
100
AcDbEntity
8
0
100
AcDbCircle
10
-357.37640135382918
20
210.66754632959373
30
0
40
2.1589999999999772
210
0
220
-0
230
1
0
CIRCLE
5
199
100
AcDbEntity
8
0
100
AcDbCircle
10
-186.0566910837166
20
210.66754632959373
30
0
40
2.1590000000000131
210
0
220
-0
230
1
0
CIRCLE
5
200
100
AcDbEntity
8
0
100
AcDbCircle
10
-357.37640135382918
20
399.64045396343892
30
0
40
2.1589999999999772
210
0
220
-0
230
1
0
LWPOLYLINE
5
201
100
AcDbEntity
8
0
100
AcDbPolyline
90
2
70
1
43
0.0
10
-244.99598301841885
20
191.5860338282238
42
0.99996538744514707
10
-244.98052536080229
20
195.9040061578865
42
0.99996508404566342
0
CIRCLE
5
202
100
AcDbEntity
8
0
100
AcDbCircle
10
-102.59053433394951
20
410.60598656613422
30
0
40
2.1589999999999954
210
0
220
-0
230
1
0
LWPOLYLINE
5
203
100
AcDbEntity
8
0
100
AcDbPolyline
90
4
70
1
43
0.0
10
209.55000080349723
20
209.54999647445823
10
209.55000080349723
20
311.14999647445825
10
369.57000080349712
20
311.14999647445825
10
369.57000080349712
20
209.54999647445823
0
CIRCLE
5
204
100
AcDbEntity
8
0
100
AcDbCircle
10
408.32719612978497
20
101.99868862462424
30
0
40
2.1590000000000487
210
0
220
-0
230
1
0
CIRCLE
5
205
100
AcDbEntity
8
0
100
AcDbCircle
10
493.55314672922077
20
297.8903830489898
30
0
40
2.1590000000000487
210
0
220
-0
230
1
0
CIRCLE
5
206
100
AcDbEntity
8
0
100
AcDbCircle
10
214.66276834863893
20
193.51229814488249
30
0
40
2.1590000000000131
210
0
220
-0
230
1
0
CIRCLE
5
207
100
AcDbEntity
8
0
100
AcDbCircle
10
388.1564658852584
20
393.29915611482147
30
0
40
2.1590000000000487
210
0
220
-0
230
1
0
CIRCLE
5
208
100
AcDbEntity
8
0
100
AcDbCircle
10
282.24058956915826
20
407.31743386254067
30
0
40
2.1590000000000131
210
0
220
-0
230
1
0
CIRCLE
5
209
100
AcDbEntity
8
0
100
AcDbCircle
10
177.18719612978506
20
297.57868862462419
30
0
40
2.1590000000000131
210
0
220
-0
230
1
0
CIRCLE
5
210
100
AcDbEntity
8
0
100
AcDbCircle
10
493.55314672922077
20
115.01038304898984
30
0
40
2.1590000000000487
210
0
220
-0
230
1
0
CIRCLE
5
211
100
AcDbEntity
8
0
100
AcDbCircle
10
177.18719612978506
20
178.19868862462414
30
0
40
2.1590000000000131
210
0
220
-0
230
1
0
CIRCLE
5
212
100
AcDbEntity
8
0
100
AcDbCircle
10
245.33724203479107
20
148.26060240242296
30
0
40
2.1590000000000131
210
0
220
-0
230
1
0
CIRCLE
5
213
100
AcDbEntity
8
0
100
AcDbCircle
10
175.28632230878236
20
409.91341122322922
30
0
40
2.1590000000000131
210
0
220
-0
230
1
0
CIRCLE
5
214
100
AcDbEntity
8
0
100
AcDbCircle
10
177.18719612978506
20
162.95868862462413
30
0
40
2.1590000000000131
210
0
220
-0
230
1
0
CIRCLE
5
215
100
AcDbEntity
8
0
100
AcDbCircle
10
215.36645428153005
20
147.79924697059246
30
0
40
2.1590000000000131
210
0
220
-0
230
1
0
CIRCLE
5
216
100
AcDbEntity
8
0
100
AcDbCircle
10
177.18719612978506
20
101.99868862462424
30
0
40
2.1590000000000131
210
0
220
-0
230
1
0
CIRCLE
5
217
100
AcDbEntity
8
0
100
AcDbCircle
10
224.17719612978505
20
101.99868862462424
30
0
40
2.1590000000000131
210
0
220
-0
230
1
0
CIRCLE
5
218
100
AcDbEntity
8
0
100
AcDbCircle
10
-475.23400000000009
20
147.32000000000164
30
0
40
2.1589999999999772
210
0
220
-0
230
1
0
CIRCLE
5
219
100
AcDbEntity
8
0
100
AcDbCircle
10
-270.5100000000001
20
147.32000000000164
30
0
40
2.1590000000000131
210
0
220
-0
230
1
0
CIRCLE
5
220
100
AcDbEntity
8
0
100
AcDbCircle
10
-270.5100000000001
20
121.92000000000162
30
0
40
2.1590000000000131
210
0
220
-0
230
1
0
CIRCLE
5
221
100
AcDbEntity
8
0
100
AcDbCircle
10
-475.23400000000009
20
121.92000000000162
30
0
40
2.1589999999999772
210
0
220
-0
230
1
0
CIRCLE
5
222
100
AcDbEntity
8
0
100
AcDbCircle
10
-425.24998369910179
20
7.9753140849762616
30
0
40
2.1589999999999772
210
0
220
-0
230
1
0
CIRCLE
5
223
100
AcDbEntity
8
0
100
AcDbCircle
10
-234.08461607540761
20
85.222988371222215
30
0
40
2.1590000000000131
210
0
220
-0
230
1
0
CIRCLE
5
224
100
AcDbEntity
8
0
100
AcDbCircle
10
-464.36598369910178
20
85.191314084976284
30
0
40
2.1589999999999772
210
0
220
-0
230
1
0
CIRCLE
5
225
100
AcDbEntity
8
0
100
AcDbCircle
10
-425.24998369910179
20
85.191314084976284
30
0
40
2.1589999999999772
210
0
220
-0
230
1
0
CIRCLE
5
226
100
AcDbEntity
8
0
100
AcDbCircle
10
-464.36598369910178
20
7.9753140849762616
30
0
40
2.1589999999999772
210
0
220
-0
230
1
0
CIRCLE
5
227
100
AcDbEntity
8
0
100
AcDbCircle
10
-140.35861607540761
20
85.222988371222215
30
0
40
2.1590000000000131
210
0
220
-0
230
1
0
CIRCLE
5
228
100
AcDbEntity
8
0
100
AcDbCircle
10
-234.08461607540761
20
8.0069883712221923
30
0
40
2.1590000000000131
210
0
220
-0
230
1
0
CIRCLE
5
229
100
AcDbEntity
8
0
100
AcDbCircle
10
-140.35861607540761
20
8.0069883712221923
30
0
40
2.1590000000000131
210
0
220
-0
230
1
0
LWPOLYLINE
5
230
100
AcDbEntity
8
0
100
AcDbPolyline
90
4
70
1
43
0.0
10
443.81394070844942
20
324.81681950551217
10
443.81394070844942
20
280.36681950551559
10
380.31394070844931
20
280.36681950551565
10
380.31394070844942
20
324.81681950551558
0
CIRCLE
5
231
100
AcDbEntity
8
0
100
AcDbCircle
10
-58.04000121696312
20
66.449996474458217
30
0
40
1.5000000000000036
210
0
220
-0
230
1
0
LWPOLYLINE
5
232
100
AcDbEntity
8
0
100
AcDbPolyline
90
23
70
1
43
0.0
10
-470.80481420967999
20
71.010396712377457
10
-470.80481420967993
20
71.473192771848076
42
-0.38282337548655498
10
-426.70698819591496
20
71.010401546738692
10
-389.49806903038916
20
71.010396712377485
10
-389.49806903038916
20
83.253395881761847
42
-0.41421356237309503
10
-386.32306903038904
20
86.428395881762015
10
-242.71957938764268
20
86.428395881761887
10
-242.71957938764268
20
71.223771112710892
10
-224.20957938764269
20
71.223771112710907
10
-224.20957938764269
20
86.428395881761844
10
-186.34562711787316
20
86.428395881761816
42
-0.41421356237309176
10
-183.17062711787082
20
83.253395881759346
10
-183.17062711787062
20
48.328395881761843
10
-217.85957938764273
20
48.328395881761821
10
-217.85957938764273
20
22.455771112710909
10
-242.71957938764271
20
22.455771112710909
10
-242.71957938764271
20
6.2246547828838761
10
-385.07410219709629
20
6.2246547828838832
42
-0.41421356237309515
10
-388.2491021970967
20
9.3996547828843351
10
-388.2491021970967
20
22.242396712377762
10
-426.79035202850844
20
22.242396712377751
42
-0.38184384170241248
10
-470.80481426463479
20
21.855725340925058
10
-470.80481426463479
20
22.242396712377762
0
CIRCLE
5
233
100
AcDbEntity
8
0
100
AcDbCircle
10
-58.04000121696312
20
45.94999647445821
30
0
40
1.5000000000000036
210
0
220
-0
230
1
0
CIRCLE
5
234
100
AcDbEntity
8
0
100
AcDbCircle
10
-58.040000041592599
20
21.99999647445825
30
0
40
1.5000000000000036
210
0
220
-0
230
1
0
CIRCLE
5
235
100
AcDbEntity
8
0
100
AcDbCircle
10
-58.040000041592599
20
1.4999964744582517
30
0
40
1.5000000000000036
210
0
220
-0
230
1
0
CIRCLE
5
236
100
AcDbEntity
8
0
100
AcDbCircle
10
230.00000616943794
20
85.229696474387069
30
0
40
2.1590000000000131
210
0
220
-0
230
1
0
CIRCLE
5
237
100
AcDbEntity
8
0
100
AcDbCircle
10
409.9992248703137
20
373.76436643074135
30
0
40
1.5000000000000568
210
0
220
-0
230
1
0
CIRCLE
5
238
100
AcDbEntity
8
0
100
AcDbCircle
10
230.00000616943794
20
8.0136964743870625
30
0
40
2.1590000000000131
210
0
220
-0
230
1
0
CIRCLE
5
239
100
AcDbEntity
8
0
100
AcDbCircle
10
-58.040007230171483
20
56.199996474458246
30
0
40
5.4999999999999982
210
0
220
-0
230
1
0
CIRCLE
5
240
100
AcDbEntity
8
0
100
AcDbCircle
10
-58.040000041592599
20
11.74999647445825
30
0
40
5.4999999999999982
210
0
220
-0
230
1
0
LWPOLYLINE
5
241
100
AcDbEntity
8
0
100
AcDbPolyline
90
4
70
1
43
0.0
10
41.289545458940616
20
-7.5585726303075651
10
17.289545458940616
20
-7.5585726303075651
10
17.289545458940616
20
30.441427369692438
10
41.289545458940616
20
30.441427369692438
0
CIRCLE
5
242
100
AcDbEntity
8
0
100
AcDbCircle
10
-121.87020121699825
20
8.0136964743870625
30
0
40
2.1590000000000131
210
0
220
-0
230
1
0
LWPOLYLINE
5
243
100
AcDbEntity
8
0
100
AcDbPolyline
90
6
70
1
43
0.0
10
226.82500617533265
20
136.78845100293825
42
0.99999999999999989
10
233.17500617533261
20
136.78845100542961
10
233.17500616942868
20
151.83644883255252
42
0.020860546673328973
10
233.16396265770751
20
152.10103216464017
42
11.958260743101611
10
226.8360496811498
20
152.10103216464015
42
0.020860546869583087
10
226.82500616942872
20
151.83644883006113
0
LWPOLYLINE
5
244
100
AcDbEntity
8
0
100
AcDbPolyline
90
4
70
1
43
0.0
10
4.4200381136250444
20
95.249996474556653
10
4.4200381136234768
20
398.8195700417279
10
164.4400381136239
20
398.81957004173057
10
164.44003811362393
20
95.249996474524892
0
LWPOLYLINE
5
245
100
AcDbEntity
8
0
100
AcDbPolyline
90
10
70
1
43
0.0
10
-428.57099710899445
20
293.53508034559144
10
-428.57099710899445
20
352.59008034559145
42
-0.41421356237309503
10
-415.87099710899452
20
365.29008034559138
10
-366.43445788523883
20
365.29008034559138
10
-366.43445788523888
20
170.39241967107006
42
-0.41421356237309503
10
-379.13445788523893
20
157.69241967107004
10
-479.38444788523896
20
157.69241967107007
42
-0.41421356237309503
10
-492.084447885239
20
170.39241967107012
10
-492.08444788523889
20
280.83508034559145
42
-0.41421356237309503
10
-479.38444788523896
20
293.53508034559138
0
LWPOLYLINE
5
246
100
AcDbEntity
8
0
100
AcDbPolyline
90
4
70
1
43
0.0
10
-472.69400000000013
20
115.57000000000072
10
-472.69400000000013
20
153.67000000000073
10
-273.05000000000013
20
153.67000000000073
10
-273.05000000000013
20
115.57000000000072
0
LWPOLYLINE
5
247
100
AcDbEntity
8
0
100
AcDbPolyline
90
6
70
1
43
0.0
10
-233.17499468883952
20
136.78845100418386
42
0.99999999999999989
10
-226.82499468883952
20
136.78845100418386
10
-226.82499468883952
20
151.83644883191661
42
0.020860632479768087
10
-226.83603829122666
20
152.10103324948781
42
11.958260743096719
10
-233.16395126778656
20
152.1010310810147
42
0.020860461063335854
10
-233.17499468883952
20
151.83644883191661
0
LWPOLYLINE
5
248
100
AcDbEntity
8
0
100
AcDbPolyline
90
2
70
1
43
0.0
10
500.00000751948443
20
126.99326140254215
10
500.00000745885302
20
143.93111151744537
42
-2.6170989477139868
0
ENDSEC
0
SECTION
2
OBJECTS
0
DICTIONARY
5
C
100
AcDbDictionary
3
ACAD_GROUP
350
D
3
ACAD_MLINESTYLE
350
17
0
DICTIONARY
5
D
100
AcDbDictionary
0
DICTIONARY
5
1A
330
C
100
AcDbDictionary
0
DICTIONARY
5
17
100
AcDbDictionary
0
ENDSEC
0
EOF
