0
SECTION
2
HEADER
9
$EXTMIN
10
0
20
0
9
$EXTMAX
10
750
20
975
0
ENDSEC
0
SECTION
2
TABLES
0
TABLE
2
VPORT
70
1
0
VPORT
2
*ACTIVE
70
0
10
0
20
0
11
1
21
1
12
0
22
0
13
0
23
0
14
1
24
1
15
0
25
0
16
0
26
0
36
1
17
0
27
0
37
0
40
300
41
2.12
42
50
43
0
44
0
50
0
51
0
71
0
72
100
73
1
74
1
75
0
76
0
77
0
78
0
0
ENDTAB
0
ENDSEC
0
SECTION
2
ENTITIES
0
POLYLINE
8
1
66
1
70
0
0
VERTEX
8
1
10
6.66
20
9.82
0
VERTEX
8
1
10
6.66
20
9.82
0
VERTEX
8
1
10
6.67
20
9.86
0
VERTEX
8
1
10
6.68
20
9.91
0
VERTEX
8
1
10
6.69
20
9.95
0
VERTEX
8
1
10
6.69
20
9.99
0
VERTEX
8
1
10
6.70
20
10.03
0
VERTEX
8
1
10
6.71
20
10.07
0
VERTEX
8
1
10
6.71
20
10.12
0
VERTEX
8
1
10
6.72
20
10.16
0
VERTEX
8
1
10
6.73
20
10.20
0
VERTEX
8
1
10
6.74
20
10.24
0
VERTEX
8
1
10
6.74
20
10.28
0
VERTEX
8
1
10
6.75
20
10.32
0
VERTEX
8
1
10
6.76
20
10.37
0
VERTEX
8
1
10
6.77
20
10.41
0
VERTEX
8
1
10
6.77
20
10.45
0
VERTEX
8
1
10
6.78
20
10.49
0
VERTEX
8
1
10
6.79
20
10.53
0
VERTEX
8
1
10
6.79
20
10.57
0
VERTEX
8
1
10
6.80
20
10.62
0
VERTEX
8
1
10
6.81
20
10.66
0
VERTEX
8
1
10
6.81
20
10.70
0
VERTEX
8
1
10
6.81
20
10.74
0
VERTEX
8
1
10
6.80
20
10.79
0
VERTEX
8
1
10
6.80
20
10.83
0
VERTEX
8
1
10
6.79
20
10.88
0
VERTEX
8
1
10
6.79
20
10.92
0
VERTEX
8
1
10
6.78
20
10.96
0
VERTEX
8
1
10
6.77
20
11.01
0
VERTEX
8
1
10
6.76
20
11.05
0
VERTEX
8
1
10
6.74
20
11.10
0
VERTEX
8
1
10
6.73
20
11.14
0
VERTEX
8
1
10
6.72
20
11.19
0
VERTEX
8
1
10
6.70
20
11.23
0
VERTEX
8
1
10
6.68
20
11.28
0
VERTEX
8
1
10
6.67
20
11.32
0
VERTEX
8
1
10
6.65
20
11.37
0
VERTEX
8
1
10
6.63
20
11.41
0
VERTEX
8
1
10
6.61
20
11.46
0
VERTEX
8
1
10
6.59
20
11.50
0
VERTEX
8
1
10
6.57
20
11.55
0
VERTEX
8
1
10
6.54
20
11.59
0
VERTEX
8
1
10
6.52
20
11.64
0
VERTEX
8
1
10
6.49
20
11.68
0
VERTEX
8
1
10
6.47
20
11.73
0
VERTEX
8
1
10
6.44
20
11.77
0
VERTEX
8
1
10
6.41
20
11.82
0
VERTEX
8
1
10
6.38
20
11.86
0
VERTEX
8
1
10
6.36
20
11.90
0
VERTEX
8
1
10
6.32
20
11.95
0
VERTEX
8
1
10
6.29
20
11.99
0
VERTEX
8
1
10
5.71
20
11.99
0
VERTEX
8
1
10
5.68
20
11.95
0
VERTEX
8
1
10
5.64
20
11.90
0
VERTEX
8
1
10
5.62
20
11.86
0
VERTEX
8
1
10
5.59
20
11.82
0
VERTEX
8
1
10
5.56
20
11.77
0
VERTEX
8
1
10
5.53
20
11.73
0
VERTEX
8
1
10
5.51
20
11.68
0
VERTEX
8
1
10
5.48
20
11.64
0
VERTEX
8
1
10
5.46
20
11.59
0
VERTEX
8
1
10
5.43
20
11.55
0
VERTEX
8
1
10
5.41
20
11.50
0
VERTEX
8
1
10
5.39
20
11.46
0
VERTEX
8
1
10
5.37
20
11.41
0
VERTEX
8
1
10
5.35
20
11.37
0
VERTEX
8
1
10
5.33
20
11.32
0
VERTEX
8
1
10
5.32
20
11.28
0
VERTEX
8
1
10
5.30
20
11.23
0
VERTEX
8
1
10
5.28
20
11.19
0
VERTEX
8
1
10
5.27
20
11.14
0
VERTEX
8
1
10
5.26
20
11.10
0
VERTEX
8
1
10
5.24
20
11.05
0
VERTEX
8
1
10
5.23
20
11.01
0
VERTEX
8
1
10
5.22
20
10.96
0
VERTEX
8
1
10
5.21
20
10.92
0
VERTEX
8
1
10
5.21
20
10.88
0
VERTEX
8
1
10
5.20
20
10.83
0
VERTEX
8
1
10
5.20
20
10.79
0
VERTEX
8
1
10
5.19
20
10.74
0
VERTEX
8
1
10
5.19
20
10.70
0
VERTEX
8
1
10
5.19
20
10.66
0
VERTEX
8
1
10
5.20
20
10.62
0
VERTEX
8
1
10
5.21
20
10.57
0
VERTEX
8
1
10
5.21
20
10.53
0
VERTEX
8
1
10
5.22
20
10.49
0
VERTEX
8
1
10
5.23
20
10.45
0
VERTEX
8
1
10
5.23
20
10.41
0
VERTEX
8
1
10
5.24
20
10.37
0
VERTEX
8
1
10
5.25
20
10.32
0
VERTEX
8
1
10
5.26
20
10.28
0
VERTEX
8
1
10
5.26
20
10.24
0
VERTEX
8
1
10
5.27
20
10.20
0
VERTEX
8
1
10
5.28
20
10.16
0
VERTEX
8
1
10
5.29
20
10.12
0
VERTEX
8
1
10
5.29
20
10.07
0
VERTEX
8
1
10
5.30
20
10.03
0
VERTEX
8
1
10
5.31
20
9.99
0
VERTEX
8
1
10
5.31
20
9.95
0
VERTEX
8
1
10
5.32
20
9.91
0
VERTEX
8
1
10
5.33
20
9.86
0
VERTEX
8
1
10
5.34
20
9.82
0
VERTEX
8
1
10
4.29
20
9.48
0
VERTEX
8
1
10
4.27
20
9.52
0
VERTEX
8
1
10
4.25
20
9.56
0
VERTEX
8
1
10
4.23
20
9.60
0
VERTEX
8
1
10
4.22
20
9.64
0
VERTEX
8
1
10
4.20
20
9.67
0
VERTEX
8
1
10
4.18
20
9.71
0
VERTEX
8
1
10
4.16
20
9.75
0
VERTEX
8
1
10
4.14
20
9.79
0
VERTEX
8
1
10
4.12
20
9.83
0
VERTEX
8
1
10
4.10
20
9.86
0
VERTEX
8
1
10
4.08
20
9.90
0
VERTEX
8
1
10
4.07
20
9.94
0
VERTEX
8
1
10
4.05
20
9.98
0
VERTEX
8
1
10
4.03
20
10.02
0
VERTEX
8
1
10
4.01
20
10.05
0
VERTEX
8
1
10
3.99
20
10.09
0
VERTEX
8
1
10
3.97
20
10.13
0
VERTEX
8
1
10
3.95
20
10.17
0
VERTEX
8
1
10
3.94
20
10.21
0
VERTEX
8
1
10
3.91
20
10.24
0
VERTEX
8
1
10
3.89
20
10.28
0
VERTEX
8
1
10
3.86
20
10.31
0
VERTEX
8
1
10
3.84
20
10.35
0
VERTEX
8
1
10
3.81
20
10.38
0
VERTEX
8
1
10
3.78
20
10.41
0
VERTEX
8
1
10
3.74
20
10.44
0
VERTEX
8
1
10
3.71
20
10.47
0
VERTEX
8
1
10
3.68
20
10.50
0
VERTEX
8
1
10
3.64
20
10.53
0
VERTEX
8
1
10
3.61
20
10.56
0
VERTEX
8
1
10
3.57
20
10.59
0
VERTEX
8
1
10
3.53
20
10.62
0
VERTEX
8
1
10
3.49
20
10.65
0
VERTEX
8
1
10
3.45
20
10.67
0
VERTEX
8
1
10
3.41
20
10.70
0
VERTEX
8
1
10
3.37
20
10.72
0
VERTEX
8
1
10
3.33
20
10.75
0
VERTEX
8
1
10
3.28
20
10.77
0
VERTEX
8
1
10
3.24
20
10.80
0
VERTEX
8
1
10
3.20
20
10.82
0
VERTEX
8
1
10
3.15
20
10.84
0
VERTEX
8
1
10
3.11
20
10.87
0
VERTEX
8
1
10
3.06
20
10.89
0
VERTEX
8
1
10
3.01
20
10.91
0
VERTEX
8
1
10
2.96
20
10.93
0
VERTEX
8
1
10
2.92
20
10.95
0
VERTEX
8
1
10
2.87
20
10.97
0
VERTEX
8
1
10
2.82
20
10.99
0
VERTEX
8
1
10
2.77
20
11.00
0
VERTEX
8
1
10
2.72
20
11.02
0
VERTEX
8
1
10
2.24
20
10.68
0
VERTEX
8
1
10
2.24
20
10.62
0
VERTEX
8
1
10
2.24
20
10.57
0
VERTEX
8
1
10
2.24
20
10.51
0
VERTEX
8
1
10
2.25
20
10.46
0
VERTEX
8
1
10
2.25
20
10.41
0
VERTEX
8
1
10
2.26
20
10.36
0
VERTEX
8
1
10
2.26
20
10.31
0
VERTEX
8
1
10
2.27
20
10.26
0
VERTEX
8
1
10
2.27
20
10.21
0
VERTEX
8
1
10
2.28
20
10.16
0
VERTEX
8
1
10
2.29
20
10.11
0
VERTEX
8
1
10
2.30
20
10.06
0
VERTEX
8
1
10
2.31
20
10.01
0
VERTEX
8
1
10
2.32
20
9.96
0
VERTEX
8
1
10
2.33
20
9.91
0
VERTEX
8
1
10
2.34
20
9.87
0
VERTEX
8
1
10
2.36
20
9.82
0
VERTEX
8
1
10
2.37
20
9.78
0
VERTEX
8
1
10
2.39
20
9.73
0
VERTEX
8
1
10
2.40
20
9.69
0
VERTEX
8
1
10
2.42
20
9.64
0
VERTEX
8
1
10
2.44
20
9.60
0
VERTEX
8
1
10
2.45
20
9.56
0
VERTEX
8
1
10
2.47
20
9.52
0
VERTEX
8
1
10
2.49
20
9.48
0
VERTEX
8
1
10
2.51
20
9.44
0
VERTEX
8
1
10
2.54
20
9.40
0
VERTEX
8
1
10
2.56
20
9.36
0
VERTEX
8
1
10
2.58
20
9.33
0
VERTEX
8
1
10
2.61
20
9.29
0
VERTEX
8
1
10
2.64
20
9.26
0
VERTEX
8
1
10
2.67
20
9.23
0
VERTEX
8
1
10
2.70
20
9.20
0
VERTEX
8
1
10
2.73
20
9.17
0
VERTEX
8
1
10
2.76
20
9.15
0
VERTEX
8
1
10
2.79
20
9.12
0
VERTEX
8
1
10
2.82
20
9.09
0
VERTEX
8
1
10
2.85
20
9.06
0
VERTEX
8
1
10
2.88
20
9.03
0
VERTEX
8
1
10
2.91
20
9.00
0
VERTEX
8
1
10
2.94
20
8.97
0
VERTEX
8
1
10
2.97
20
8.94
0
VERTEX
8
1
10
3.00
20
8.91
0
VERTEX
8
1
10
3.03
20
8.88
0
VERTEX
8
1
10
3.06
20
8.85
0
VERTEX
8
1
10
3.09
20
8.82
0
VERTEX
8
1
10
3.12
20
8.79
0
VERTEX
8
1
10
3.15
20
8.76
0
VERTEX
8
1
10
3.19
20
8.73
0
VERTEX
8
1
10
3.22
20
8.70
0
VERTEX
8
1
10
2.57
20
7.81
0
VERTEX
8
1
10
2.53
20
7.83
0
VERTEX
8
1
10
2.49
20
7.85
0
VERTEX
8
1
10
2.46
20
7.87
0
VERTEX
8
1
10
2.42
20
7.89
0
VERTEX
8
1
10
2.38
20
7.91
0
VERTEX
8
1
10
2.34
20
7.93
0
VERTEX
8
1
10
2.31
20
7.95
0
VERTEX
8
1
10
2.27
20
7.97
0
VERTEX
8
1
10
2.23
20
7.99
0
VERTEX
8
1
10
2.19
20
8.01
0
VERTEX
8
1
10
2.16
20
8.03
0
VERTEX
8
1
10
2.12
20
8.05
0
VERTEX
8
1
10
2.08
20
8.07
0
VERTEX
8
1
10
2.04
20
8.09
0
VERTEX
8
1
10
2.01
20
8.11
0
VERTEX
8
1
10
1.97
20
8.13
0
VERTEX
8
1
10
1.93
20
8.15
0
VERTEX
8
1
10
1.89
20
8.17
0
VERTEX
8
1
10
1.86
20
8.19
0
VERTEX
8
1
10
1.82
20
8.21
0
VERTEX
8
1
10
1.78
20
8.22
0
VERTEX
8
1
10
1.74
20
8.23
0
VERTEX
8
1
10
1.69
20
8.24
0
VERTEX
8
1
10
1.65
20
8.25
0
VERTEX
8
1
10
1.61
20
8.26
0
VERTEX
8
1
10
1.56
20
8.27
0
VERTEX
8
1
10
1.52
20
8.27
0
VERTEX
8
1
10
1.47
20
8.28
0
VERTEX
8
1
10
1.43
20
8.28
0
VERTEX
8
1
10
1.38
20
8.28
0
VERTEX
8
1
10
1.33
20
8.28
0
VERTEX
8
1
10
1.29
20
8.28
0
VERTEX
8
1
10
1.24
20
8.28
0
VERTEX
8
1
10
1.19
20
8.28
0
VERTEX
8
1
10
1.14
20
8.28
0
VERTEX
8
1
10
1.10
20
8.28
0
VERTEX
8
1
10
1.05
20
8.27
0
VERTEX
8
1
10
1.00
20
8.27
0
VERTEX
8
1
10
0.95
20
8.26
0
VERTEX
8
1
10
0.90
20
8.25
0
VERTEX
8
1
10
0.85
20
8.24
0
VERTEX
8
1
10
0.80
20
8.23
0
VERTEX
8
1
10
0.75
20
8.22
0
VERTEX
8
1
10
0.70
20
8.21
0
VERTEX
8
1
10
0.65
20
8.20
0
VERTEX
8
1
10
0.60
20
8.19
0
VERTEX
8
1
10
0.55
20
8.18
0
VERTEX
8
1
10
0.49
20
8.16
0
VERTEX
8
1
10
0.44
20
8.15
0
VERTEX
8
1
10
0.39
20
8.13
0
VERTEX
8
1
10
0.21
20
7.57
0
VERTEX
8
1
10
0.24
20
7.53
0
VERTEX
8
1
10
0.27
20
7.49
0
VERTEX
8
1
10
0.31
20
7.45
0
VERTEX
8
1
10
0.34
20
7.40
0
VERTEX
8
1
10
0.38
20
7.36
0
VERTEX
8
1
10
0.41
20
7.33
0
VERTEX
8
1
10
0.44
20
7.29
0
VERTEX
8
1
10
0.48
20
7.25
0
VERTEX
8
1
10
0.51
20
7.21
0
VERTEX
8
1
10
0.55
20
7.18
0
VERTEX
8
1
10
0.59
20
7.14
0
VERTEX
8
1
10
0.62
20
7.11
0
VERTEX
8
1
10
0.66
20
7.07
0
VERTEX
8
1
10
0.69
20
7.04
0
VERTEX
8
1
10
0.73
20
7.01
0
VERTEX
8
1
10
0.77
20
6.98
0
VERTEX
8
1
10
0.81
20
6.95
0
VERTEX
8
1
10
0.85
20
6.92
0
VERTEX
8
1
10
0.88
20
6.89
0
VERTEX
8
1
10
0.92
20
6.87
0
VERTEX
8
1
10
0.96
20
6.84
0
VERTEX
8
1
10
1.00
20
6.82
0
VERTEX
8
1
10
1.04
20
6.80
0
VERTEX
8
1
10
1.08
20
6.77
0
VERTEX
8
1
10
1.12
20
6.75
0
VERTEX
8
1
10
1.16
20
6.73
0
VERTEX
8
1
10
1.20
20
6.72
0
VERTEX
8
1
10
1.24
20
6.70
0
VERTEX
8
1
10
1.28
20
6.68
0
VERTEX
8
1
10
1.32
20
6.67
0
VERTEX
8
1
10
1.36
20
6.66
0
VERTEX
8
1
10
1.40
20
6.66
0
VERTEX
8
1
10
1.45
20
6.65
0
VERTEX
8
1
10
1.49
20
6.65
0
VERTEX
8
1
10
1.53
20
6.64
0
VERTEX
8
1
10
1.57
20
6.63
0
VERTEX
8
1
10
1.61
20
6.63
0
VERTEX
8
1
10
1.66
20
6.62
0
VERTEX
8
1
10
1.70
20
6.62
0
VERTEX
8
1
10
1.74
20
6.61
0
VERTEX
8
1
10
1.78
20
6.60
0
VERTEX
8
1
10
1.82
20
6.60
0
VERTEX
8
1
10
1.87
20
6.59
0
VERTEX
8
1
10
1.91
20
6.59
0
VERTEX
8
1
10
1.95
20
6.58
0
VERTEX
8
1
10
1.99
20
6.57
0
VERTEX
8
1
10
2.03
20
6.57
0
VERTEX
8
1
10
2.08
20
6.56
0
VERTEX
8
1
10
2.12
20
6.56
0
VERTEX
8
1
10
2.16
20
6.55
0
VERTEX
8
1
10
2.16
20
5.45
0
VERTEX
8
1
10
2.12
20
5.44
0
VERTEX
8
1
10
2.08
20
5.44
0
VERTEX
8
1
10
2.03
20
5.43
0
VERTEX
8
1
10
1.99
20
5.43
0
VERTEX
8
1
10
1.95
20
5.42
0
VERTEX
8
1
10
1.91
20
5.41
0
VERTEX
8
1
10
1.87
20
5.41
0
VERTEX
8
1
10
1.82
20
5.40
0
VERTEX
8
1
10
1.78
20
5.40
0
VERTEX
8
1
10
1.74
20
5.39
0
VERTEX
8
1
10
1.70
20
5.38
0
VERTEX
8
1
10
1.66
20
5.38
0
VERTEX
8
1
10
1.61
20
5.37
0
VERTEX
8
1
10
1.57
20
5.37
0
VERTEX
8
1
10
1.53
20
5.36
0
VERTEX
8
1
10
1.49
20
5.35
0
VERTEX
8
1
10
1.45
20
5.35
0
VERTEX
8
1
10
1.40
20
5.34
0
VERTEX
8
1
10
1.36
20
5.34
0
VERTEX
8
1
10
1.32
20
5.33
0
VERTEX
8
1
10
1.28
20
5.32
0
VERTEX
8
1
10
1.24
20
5.30
0
VERTEX
8
1
10
1.20
20
5.28
0
VERTEX
8
1
10
1.16
20
5.27
0
VERTEX
8
1
10
1.12
20
5.25
0
VERTEX
8
1
10
1.08
20
5.23
0
VERTEX
8
1
10
1.04
20
5.20
0
VERTEX
8
1
10
1.00
20
5.18
0
VERTEX
8
1
10
0.96
20
5.16
0
VERTEX
8
1
10
0.92
20
5.13
0
VERTEX
8
1
10
0.88
20
5.11
0
VERTEX
8
1
10
0.85
20
5.08
0
VERTEX
8
1
10
0.81
20
5.05
0
VERTEX
8
1
10
0.77
20
5.02
0
VERTEX
8
1
10
0.73
20
4.99
0
VERTEX
8
1
10
0.69
20
4.96
0
VERTEX
8
1
10
0.66
20
4.93
0
VERTEX
8
1
10
0.62
20
4.89
0
VERTEX
8
1
10
0.59
20
4.86
0
VERTEX
8
1
10
0.55
20
4.82
0
VERTEX
8
1
10
0.51
20
4.79
0
VERTEX
8
1
10
0.48
20
4.75
0
VERTEX
8
1
10
0.44
20
4.71
0
VERTEX
8
1
10
0.41
20
4.67
0
VERTEX
8
1
10
0.38
20
4.64
0
VERTEX
8
1
10
0.34
20
4.60
0
VERTEX
8
1
10
0.31
20
4.55
0
VERTEX
8
1
10
0.27
20
4.51
0
VERTEX
8
1
10
0.24
20
4.47
0
VERTEX
8
1
10
0.21
20
4.43
0
VERTEX
8
1
10
0.39
20
3.87
0
VERTEX
8
1
10
0.44
20
3.85
0
VERTEX
8
1
10
0.49
20
3.84
0
VERTEX
8
1
10
0.55
20
3.82
0
VERTEX
8
1
10
0.60
20
3.81
0
VERTEX
8
1
10
0.65
20
3.80
0
VERTEX
8
1
10
0.70
20
3.79
0
VERTEX
8
1
10
0.75
20
3.78
0
VERTEX
8
1
10
0.80
20
3.77
0
VERTEX
8
1
10
0.85
20
3.76
0
VERTEX
8
1
10
0.90
20
3.75
0
VERTEX
8
1
10
0.95
20
3.74
0
VERTEX
8
1
10
1.00
20
3.73
0
VERTEX
8
1
10
1.05
20
3.73
0
VERTEX
8
1
10
1.10
20
3.72
0
VERTEX
8
1
10
1.14
20
3.72
0
VERTEX
8
1
10
1.19
20
3.72
0
VERTEX
8
1
10
1.24
20
3.72
0
VERTEX
8
1
10
1.29
20
3.72
0
VERTEX
8
1
10
1.33
20
3.72
0
VERTEX
8
1
10
1.38
20
3.72
0
VERTEX
8
1
10
1.43
20
3.72
0
VERTEX
8
1
10
1.47
20
3.72
0
VERTEX
8
1
10
1.52
20
3.73
0
VERTEX
8
1
10
1.56
20
3.73
0
VERTEX
8
1
10
1.61
20
3.74
0
VERTEX
8
1
10
1.65
20
3.75
0
VERTEX
8
1
10
1.69
20
3.76
0
VERTEX
8
1
10
1.74
20
3.77
0
VERTEX
8
1
10
1.78
20
3.78
0
VERTEX
8
1
10
1.82
20
3.79
0
VERTEX
8
1
10
1.86
20
3.81
0
VERTEX
8
1
10
1.89
20
3.83
0
VERTEX
8
1
10
1.93
20
3.85
0
VERTEX
8
1
10
1.97
20
3.87
0
VERTEX
8
1
10
2.01
20
3.89
0
VERTEX
8
1
10
2.04
20
3.91
0
VERTEX
8
1
10
2.08
20
3.93
0
VERTEX
8
1
10
2.12
20
3.95
0
VERTEX
8
1
10
2.16
20
3.97
0
VERTEX
8
1
10
2.19
20
3.99
0
VERTEX
8
1
10
2.23
20
4.01
0
VERTEX
8
1
10
2.27
20
4.03
0
VERTEX
8
1
10
2.31
20
4.05
0
VERTEX
8
1
10
2.34
20
4.07
0
VERTEX
8
1
10
2.38
20
4.09
0
VERTEX
8
1
10
2.42
20
4.11
0
VERTEX
8
1
10
2.46
20
4.13
0
VERTEX
8
1
10
2.49
20
4.15
0
VERTEX
8
1
10
2.53
20
4.17
0
VERTEX
8
1
10
2.57
20
4.19
0
VERTEX
8
1
10
3.22
20
3.30
0
VERTEX
8
1
10
3.19
20
3.27
0
VERTEX
8
1
10
3.15
20
3.24
0
VERTEX
8
1
10
3.12
20
3.21
0
VERTEX
8
1
10
3.09
20
3.18
0
VERTEX
8
1
10
3.06
20
3.15
0
VERTEX
8
1
10
3.03
20
3.12
0
VERTEX
8
1
10
3.00
20
3.09
0
VERTEX
8
1
10
2.97
20
3.06
0
VERTEX
8
1
10
2.94
20
3.03
0
VERTEX
8
1
10
2.91
20
3.00
0
VERTEX
8
1
10
2.88
20
2.97
0
VERTEX
8
1
10
2.85
20
2.94
0
VERTEX
8
1
10
2.82
20
2.91
0
VERTEX
8
1
10
2.79
20
2.88
0
VERTEX
8
1
10
2.76
20
2.85
0
VERTEX
8
1
10
2.73
20
2.83
0
VERTEX
8
1
10
2.70
20
2.80
0
VERTEX
8
1
10
2.67
20
2.77
0
VERTEX
8
1
10
2.64
20
2.74
0
VERTEX
8
1
10
2.61
20
2.71
0
VERTEX
8
1
10
2.58
20
2.67
0
VERTEX
8
1
10
2.56
20
2.64
0
VERTEX
8
1
10
2.54
20
2.60
0
VERTEX
8
1
10
2.51
20
2.56
0
VERTEX
8
1
10
2.49
20
2.52
0
VERTEX
8
1
10
2.47
20
2.48
0
VERTEX
8
1
10
2.45
20
2.44
0
VERTEX
8
1
10
2.44
20
2.40
0
VERTEX
8
1
10
2.42
20
2.36
0
VERTEX
8
1
10
2.40
20
2.31
0
VERTEX
8
1
10
2.39
20
2.27
0
VERTEX
8
1
10
2.37
20
2.22
0
VERTEX
8
1
10
2.36
20
2.18
0
VERTEX
8
1
10
2.34
20
2.13
0
VERTEX
8
1
10
2.33
20
2.09
0
VERTEX
8
1
10
2.32
20
2.04
0
VERTEX
8
1
10
2.31
20
1.99
0
VERTEX
8
1
10
2.30
20
1.94
0
VERTEX
8
1
10
2.29
20
1.89
0
VERTEX
8
1
10
2.28
20
1.84
0
VERTEX
8
1
10
2.27
20
1.79
0
VERTEX
8
1
10
2.27
20
1.74
0
VERTEX
8
1
10
2.26
20
1.69
0
VERTEX
8
1
10
2.26
20
1.64
0
VERTEX
8
1
10
2.25
20
1.59
0
VERTEX
8
1
10
2.25
20
1.54
0
VERTEX
8
1
10
2.24
20
1.49
0
VERTEX
8
1
10
2.24
20
1.43
0
VERTEX
8
1
10
2.24
20
1.38
0
VERTEX
8
1
10
2.24
20
1.32
0
VERTEX
8
1
10
2.72
20
0.98
0
VERTEX
8
1
10
2.77
20
1.00
0
VERTEX
8
1
10
2.82
20
1.01
0
VERTEX
8
1
10
2.87
20
1.03
0
VERTEX
8
1
10
2.92
20
1.05
0
VERTEX
8
1
10
2.96
20
1.07
0
VERTEX
8
1
10
3.01
20
1.09
0
VERTEX
8
1
10
3.06
20
1.11
0
VERTEX
8
1
10
3.11
20
1.13
0
VERTEX
8
1
10
3.15
20
1.16
0
VERTEX
8
1
10
3.20
20
1.18
0
VERTEX
8
1
10
3.24
20
1.20
0
VERTEX
8
1
10
3.28
20
1.23
0
VERTEX
8
1
10
3.33
20
1.25
0
VERTEX
8
1
10
3.37
20
1.28
0
VERTEX
8
1
10
3.41
20
1.30
0
VERTEX
8
1
10
3.45
20
1.33
0
VERTEX
8
1
10
3.49
20
1.35
0
VERTEX
8
1
10
3.53
20
1.38
0
VERTEX
8
1
10
3.57
20
1.41
0
VERTEX
8
1
10
3.61
20
1.44
0
VERTEX
8
1
10
3.64
20
1.47
0
VERTEX
8
1
10
3.68
20
1.50
0
VERTEX
8
1
10
3.71
20
1.53
0
VERTEX
8
1
10
3.74
20
1.56
0
VERTEX
8
1
10
3.78
20
1.59
0
VERTEX
8
1
10
3.81
20
1.62
0
VERTEX
8
1
10
3.84
20
1.65
0
VERTEX
8
1
10
3.86
20
1.69
0
VERTEX
8
1
10
3.89
20
1.72
0
VERTEX
8
1
10
3.91
20
1.76
0
VERTEX
8
1
10
3.94
20
1.79
0
VERTEX
8
1
10
3.95
20
1.83
0
VERTEX
8
1
10
3.97
20
1.87
0
VERTEX
8
1
10
3.99
20
1.91
0
VERTEX
8
1
10
4.01
20
1.95
0
VERTEX
8
1
10
4.03
20
1.98
0
VERTEX
8
1
10
4.05
20
2.02
0
VERTEX
8
1
10
4.07
20
2.06
0
VERTEX
8
1
10
4.08
20
2.10
0
VERTEX
8
1
10
4.10
20
2.14
0
VERTEX
8
1
10
4.12
20
2.17
0
VERTEX
8
1
10
4.14
20
2.21
0
VERTEX
8
1
10
4.16
20
2.25
0
VERTEX
8
1
10
4.18
20
2.29
0
VERTEX
8
1
10
4.20
20
2.33
0
VERTEX
8
1
10
4.22
20
2.36
0
VERTEX
8
1
10
4.23
20
2.40
0
VERTEX
8
1
10
4.25
20
2.44
0
VERTEX
8
1
10
4.27
20
2.48
0
VERTEX
8
1
10
4.29
20
2.52
0
VERTEX
8
1
10
5.34
20
2.18
0
VERTEX
8
1
10
5.33
20
2.14
0
VERTEX
8
1
10
5.32
20
2.09
0
VERTEX
8
1
10
5.31
20
2.05
0
VERTEX
8
1
10
5.31
20
2.01
0
VERTEX
8
1
10
5.30
20
1.97
0
VERTEX
8
1
10
5.29
20
1.93
0
VERTEX
8
1
10
5.29
20
1.88
0
VERTEX
8
1
10
5.28
20
1.84
0
VERTEX
8
1
10
5.27
20
1.80
0
VERTEX
8
1
10
5.26
20
1.76
0
VERTEX
8
1
10
5.26
20
1.72
0
VERTEX
8
1
10
5.25
20
1.68
0
VERTEX
8
1
10
5.24
20
1.63
0
VERTEX
8
1
10
5.23
20
1.59
0
VERTEX
8
1
10
5.23
20
1.55
0
VERTEX
8
1
10
5.22
20
1.51
0
VERTEX
8
1
10
5.21
20
1.47
0
VERTEX
8
1
10
5.21
20
1.43
0
VERTEX
8
1
10
5.20
20
1.38
0
VERTEX
8
1
10
5.19
20
1.34
0
VERTEX
8
1
10
5.19
20
1.30
0
VERTEX
8
1
10
5.19
20
1.26
0
VERTEX
8
1
10
5.20
20
1.21
0
VERTEX
8
1
10
5.20
20
1.17
0
VERTEX
8
1
10
5.21
20
1.12
0
VERTEX
8
1
10
5.21
20
1.08
0
VERTEX
8
1
10
5.22
20
1.04
0
VERTEX
8
1
10
5.23
20
0.99
0
VERTEX
8
1
10
5.24
20
0.95
0
VERTEX
8
1
10
5.26
20
0.90
0
VERTEX
8
1
10
5.27
20
0.86
0
VERTEX
8
1
10
5.28
20
0.81
0
VERTEX
8
1
10
5.30
20
0.77
0
VERTEX
8
1
10
5.32
20
0.72
0
VERTEX
8
1
10
5.33
20
0.68
0
VERTEX
8
1
10
5.35
20
0.63
0
VERTEX
8
1
10
5.37
20
0.59
0
VERTEX
8
1
10
5.39
20
0.54
0
VERTEX
8
1
10
5.41
20
0.50
0
VERTEX
8
1
10
5.43
20
0.45
0
VERTEX
8
1
10
5.46
20
0.41
0
VERTEX
8
1
10
5.48
20
0.36
0
VERTEX
8
1
10
5.51
20
0.32
0
VERTEX
8
1
10
5.53
20
0.27
0
VERTEX
8
1
10
5.56
20
0.23
0
VERTEX
8
1
10
5.59
20
0.18
0
VERTEX
8
1
10
5.62
20
0.14
0
VERTEX
8
1
10
5.64
20
0.10
0
VERTEX
8
1
10
5.68
20
0.05
0
VERTEX
8
1
10
5.71
20
0.01
0
VERTEX
8
1
10
6.29
20
0.01
0
VERTEX
8
1
10
6.32
20
0.05
0
VERTEX
8
1
10
6.36
20
0.10
0
VERTEX
8
1
10
6.38
20
0.14
0
VERTEX
8
1
10
6.41
20
0.18
0
VERTEX
8
1
10
6.44
20
0.23
0
VERTEX
8
1
10
6.47
20
0.27
0
VERTEX
8
1
10
6.49
20
0.32
0
VERTEX
8
1
10
6.52
20
0.36
0
VERTEX
8
1
10
6.54
20
0.41
0
VERTEX
8
1
10
6.57
20
0.45
0
VERTEX
8
1
10
6.59
20
0.50
0
VERTEX
8
1
10
6.61
20
0.54
0
VERTEX
8
1
10
6.63
20
0.59
0
VERTEX
8
1
10
6.65
20
0.63
0
VERTEX
8
1
10
6.67
20
0.68
0
VERTEX
8
1
10
6.68
20
0.72
0
VERTEX
8
1
10
6.70
20
0.77
0
VERTEX
8
1
10
6.72
20
0.81
0
VERTEX
8
1
10
6.73
20
0.86
0
VERTEX
8
1
10
6.74
20
0.90
0
VERTEX
8
1
10
6.76
20
0.95
0
VERTEX
8
1
10
6.77
20
0.99
0
VERTEX
8
1
10
6.78
20
1.04
0
VERTEX
8
1
10
6.79
20
1.08
0
VERTEX
8
1
10
6.79
20
1.12
0
VERTEX
8
1
10
6.80
20
1.17
0
VERTEX
8
1
10
6.80
20
1.21
0
VERTEX
8
1
10
6.81
20
1.26
0
VERTEX
8
1
10
6.81
20
1.30
0
VERTEX
8
1
10
6.81
20
1.34
0
VERTEX
8
1
10
6.80
20
1.38
0
VERTEX
8
1
10
6.79
20
1.43
0
VERTEX
8
1
10
6.79
20
1.47
0
VERTEX
8
1
10
6.78
20
1.51
0
VERTEX
8
1
10
6.77
20
1.55
0
VERTEX
8
1
10
6.77
20
1.59
0
VERTEX
8
1
10
6.76
20
1.63
0
VERTEX
8
1
10
6.75
20
1.68
0
VERTEX
8
1
10
6.74
20
1.72
0
VERTEX
8
1
10
6.74
20
1.76
0
VERTEX
8
1
10
6.73
20
1.80
0
VERTEX
8
1
10
6.72
20
1.84
0
VERTEX
8
1
10
6.71
20
1.88
0
VERTEX
8
1
10
6.71
20
1.93
0
VERTEX
8
1
10
6.70
20
1.97
0
VERTEX
8
1
10
6.69
20
2.01
0
VERTEX
8
1
10
6.69
20
2.05
0
VERTEX
8
1
10
6.68
20
2.09
0
VERTEX
8
1
10
6.67
20
2.14
0
VERTEX
8
1
10
6.66
20
2.18
0
VERTEX
8
1
10
7.71
20
2.52
0
VERTEX
8
1
10
7.73
20
2.48
0
VERTEX
8
1
10
7.75
20
2.44
0
VERTEX
8
1
10
7.77
20
2.40
0
VERTEX
8
1
10
7.78
20
2.36
0
VERTEX
8
1
10
7.80
20
2.33
0
VERTEX
8
1
10
7.82
20
2.29
0
VERTEX
8
1
10
7.84
20
2.25
0
VERTEX
8
1
10
7.86
20
2.21
0
VERTEX
8
1
10
7.88
20
2.17
0
VERTEX
8
1
10
7.90
20
2.14
0
VERTEX
8
1
10
7.92
20
2.10
0
VERTEX
8
1
10
7.93
20
2.06
0
VERTEX
8
1
10
7.95
20
2.02
0
VERTEX
8
1
10
7.97
20
1.98
0
VERTEX
8
1
10
7.99
20
1.95
0
VERTEX
8
1
10
8.01
20
1.91
0
VERTEX
8
1
10
8.03
20
1.87
0
VERTEX
8
1
10
8.05
20
1.83
0
VERTEX
8
1
10
8.06
20
1.79
0
VERTEX
8
1
10
8.09
20
1.76
0
VERTEX
8
1
10
8.11
20
1.72
0
VERTEX
8
1
10
8.14
20
1.69
0
VERTEX
8
1
10
8.16
20
1.65
0
VERTEX
8
1
10
8.19
20
1.62
0
VERTEX
8
1
10
8.22
20
1.59
0
VERTEX
8
1
10
8.26
20
1.56
0
VERTEX
8
1
10
8.29
20
1.53
0
VERTEX
8
1
10
8.32
20
1.50
0
VERTEX
8
1
10
8.36
20
1.47
0
VERTEX
8
1
10
8.39
20
1.44
0
VERTEX
8
1
10
8.43
20
1.41
0
VERTEX
8
1
10
8.47
20
1.38
0
VERTEX
8
1
10
8.51
20
1.35
0
VERTEX
8
1
10
8.55
20
1.33
0
VERTEX
8
1
10
8.59
20
1.30
0
VERTEX
8
1
10
8.63
20
1.28
0
VERTEX
8
1
10
8.67
20
1.25
0
VERTEX
8
1
10
8.72
20
1.23
0
VERTEX
8
1
10
8.76
20
1.20
0
VERTEX
8
1
10
8.80
20
1.18
0
VERTEX
8
1
10
8.85
20
1.16
0
VERTEX
8
1
10
8.89
20
1.13
0
VERTEX
8
1
10
8.94
20
1.11
0
VERTEX
8
1
10
8.99
20
1.09
0
VERTEX
8
1
10
9.04
20
1.07
0
VERTEX
8
1
10
9.08
20
1.05
0
VERTEX
8
1
10
9.13
20
1.03
0
VERTEX
8
1
10
9.18
20
1.01
0
VERTEX
8
1
10
9.23
20
1.00
0
VERTEX
8
1
10
9.28
20
0.98
0
VERTEX
8
1
10
9.76
20
1.32
0
VERTEX
8
1
10
9.76
20
1.38
0
VERTEX
8
1
10
9.76
20
1.43
0
VERTEX
8
1
10
9.76
20
1.49
0
VERTEX
8
1
10
9.75
20
1.54
0
VERTEX
8
1
10
9.75
20
1.59
0
VERTEX
8
1
10
9.74
20
1.64
0
VERTEX
8
1
10
9.74
20
1.69
0
VERTEX
8
1
10
9.73
20
1.74
0
VERTEX
8
1
10
9.73
20
1.79
0
VERTEX
8
1
10
9.72
20
1.84
0
VERTEX
8
1
10
9.71
20
1.89
0
VERTEX
8
1
10
9.70
20
1.94
0
VERTEX
8
1
10
9.69
20
1.99
0
VERTEX
8
1
10
9.68
20
2.04
0
VERTEX
8
1
10
9.67
20
2.09
0
VERTEX
8
1
10
9.66
20
2.13
0
VERTEX
8
1
10
9.64
20
2.18
0
VERTEX
8
1
10
9.63
20
2.22
0
VERTEX
8
1
10
9.61
20
2.27
0
VERTEX
8
1
10
9.60
20
2.31
0
VERTEX
8
1
10
9.58
20
2.36
0
VERTEX
8
1
10
9.56
20
2.40
0
VERTEX
8
1
10
9.55
20
2.44
0
VERTEX
8
1
10
9.53
20
2.48
0
VERTEX
8
1
10
9.51
20
2.52
0
VERTEX
8
1
10
9.49
20
2.56
0
VERTEX
8
1
10
9.46
20
2.60
0
VERTEX
8
1
10
9.44
20
2.64
0
VERTEX
8
1
10
9.42
20
2.67
0
VERTEX
8
1
10
9.39
20
2.71
0
VERTEX
8
1
10
9.36
20
2.74
0
VERTEX
8
1
10
9.33
20
2.77
0
VERTEX
8
1
10
9.30
20
2.80
0
VERTEX
8
1
10
9.27
20
2.83
0
VERTEX
8
1
10
9.24
20
2.85
0
VERTEX
8
1
10
9.21
20
2.88
0
VERTEX
8
1
10
9.18
20
2.91
0
VERTEX
8
1
10
9.15
20
2.94
0
VERTEX
8
1
10
9.12
20
2.97
0
VERTEX
8
1
10
9.09
20
3.00
0
VERTEX
8
1
10
9.06
20
3.03
0
VERTEX
8
1
10
9.03
20
3.06
0
VERTEX
8
1
10
9.00
20
3.09
0
VERTEX
8
1
10
8.97
20
3.12
0
VERTEX
8
1
10
8.94
20
3.15
0
VERTEX
8
1
10
8.91
20
3.18
0
VERTEX
8
1
10
8.88
20
3.21
0
VERTEX
8
1
10
8.85
20
3.24
0
VERTEX
8
1
10
8.81
20
3.27
0
VERTEX
8
1
10
8.78
20
3.30
0
VERTEX
8
1
10
9.43
20
4.19
0
VERTEX
8
1
10
9.47
20
4.17
0
VERTEX
8
1
10
9.51
20
4.15
0
VERTEX
8
1
10
9.54
20
4.13
0
VERTEX
8
1
10
9.58
20
4.11
0
VERTEX
8
1
10
9.62
20
4.09
0
VERTEX
8
1
10
9.66
20
4.07
0
VERTEX
8
1
10
9.69
20
4.05
0
VERTEX
8
1
10
9.73
20
4.03
0
VERTEX
8
1
10
9.77
20
4.01
0
VERTEX
8
1
10
9.81
20
3.99
0
VERTEX
8
1
10
9.84
20
3.97
0
VERTEX
8
1
10
9.88
20
3.95
0
VERTEX
8
1
10
9.92
20
3.93
0
VERTEX
8
1
10
9.96
20
3.91
0
VERTEX
8
1
10
9.99
20
3.89
0
VERTEX
8
1
10
10.03
20
3.87
0
VERTEX
8
1
10
10.07
20
3.85
0
VERTEX
8
1
10
10.11
20
3.83
0
VERTEX
8
1
10
10.14
20
3.81
0
VERTEX
8
1
10
10.18
20
3.79
0
VERTEX
8
1
10
10.22
20
3.78
0
VERTEX
8
1
10
10.26
20
3.77
0
VERTEX
8
1
10
10.31
20
3.76
0
VERTEX
8
1
10
10.35
20
3.75
0
VERTEX
8
1
10
10.39
20
3.74
0
VERTEX
8
1
10
10.44
20
3.73
0
VERTEX
8
1
10
10.48
20
3.73
0
VERTEX
8
1
10
10.53
20
3.72
0
VERTEX
8
1
10
10.57
20
3.72
0
VERTEX
8
1
10
10.62
20
3.72
0
VERTEX
8
1
10
10.67
20
3.72
0
VERTEX
8
1
10
10.71
20
3.72
0
VERTEX
8
1
10
10.76
20
3.72
0
VERTEX
8
1
10
10.81
20
3.72
0
VERTEX
8
1
10
10.86
20
3.72
0
VERTEX
8
1
10
10.90
20
3.72
0
VERTEX
8
1
10
10.95
20
3.73
0
VERTEX
8
1
10
11.00
20
3.73
0
VERTEX
8
1
10
11.05
20
3.74
0
VERTEX
8
1
10
11.10
20
3.75
0
VERTEX
8
1
10
11.15
20
3.76
0
VERTEX
8
1
10
11.20
20
3.77
0
VERTEX
8
1
10
11.25
20
3.78
0
VERTEX
8
1
10
11.30
20
3.79
0
VERTEX
8
1
10
11.35
20
3.80
0
VERTEX
8
1
10
11.40
20
3.81
0
VERTEX
8
1
10
11.45
20
3.82
0
VERTEX
8
1
10
11.51
20
3.84
0
VERTEX
8
1
10
11.56
20
3.85
0
VERTEX
8
1
10
11.61
20
3.87
0
VERTEX
8
1
10
11.79
20
4.43
0
VERTEX
8
1
10
11.76
20
4.47
0
VERTEX
8
1
10
11.73
20
4.51
0
VERTEX
8
1
10
11.69
20
4.55
0
VERTEX
8
1
10
11.66
20
4.60
0
VERTEX
8
1
10
11.62
20
4.64
0
VERTEX
8
1
10
11.59
20
4.67
0
VERTEX
8
1
10
11.56
20
4.71
0
VERTEX
8
1
10
11.52
20
4.75
0
VERTEX
8
1
10
11.49
20
4.79
0
VERTEX
8
1
10
11.45
20
4.82
0
VERTEX
8
1
10
11.41
20
4.86
0
VERTEX
8
1
10
11.38
20
4.89
0
VERTEX
8
1
10
11.34
20
4.93
0
VERTEX
8
1
10
11.31
20
4.96
0
VERTEX
8
1
10
11.27
20
4.99
0
VERTEX
8
1
10
11.23
20
5.02
0
VERTEX
8
1
10
11.19
20
5.05
0
VERTEX
8
1
10
11.15
20
5.08
0
VERTEX
8
1
10
11.12
20
5.11
0
VERTEX
8
1
10
11.08
20
5.13
0
VERTEX
8
1
10
11.04
20
5.16
0
VERTEX
8
1
10
11.00
20
5.18
0
VERTEX
8
1
10
10.96
20
5.20
0
VERTEX
8
1
10
10.92
20
5.23
0
VERTEX
8
1
10
10.88
20
5.25
0
VERTEX
8
1
10
10.84
20
5.27
0
VERTEX
8
1
10
10.80
20
5.28
0
VERTEX
8
1
10
10.76
20
5.30
0
VERTEX
8
1
10
10.72
20
5.32
0
VERTEX
8
1
10
10.68
20
5.33
0
VERTEX
8
1
10
10.64
20
5.34
0
VERTEX
8
1
10
10.60
20
5.34
0
VERTEX
8
1
10
10.55
20
5.35
0
VERTEX
8
1
10
10.51
20
5.35
0
VERTEX
8
1
10
10.47
20
5.36
0
VERTEX
8
1
10
10.43
20
5.37
0
VERTEX
8
1
10
10.39
20
5.37
0
VERTEX
8
1
10
10.34
20
5.38
0
VERTEX
8
1
10
10.30
20
5.38
0
VERTEX
8
1
10
10.26
20
5.39
0
VERTEX
8
1
10
10.22
20
5.40
0
VERTEX
8
1
10
10.18
20
5.40
0
VERTEX
8
1
10
10.13
20
5.41
0
VERTEX
8
1
10
10.09
20
5.41
0
VERTEX
8
1
10
10.05
20
5.42
0
VERTEX
8
1
10
10.01
20
5.43
0
VERTEX
8
1
10
9.97
20
5.43
0
VERTEX
8
1
10
9.92
20
5.44
0
VERTEX
8
1
10
9.88
20
5.44
0
VERTEX
8
1
10
9.84
20
5.45
0
VERTEX
8
1
10
9.84
20
6.55
0
VERTEX
8
1
10
9.88
20
6.56
0
VERTEX
8
1
10
9.92
20
6.56
0
VERTEX
8
1
10
9.97
20
6.57
0
VERTEX
8
1
10
10.01
20
6.57
0
VERTEX
8
1
10
10.05
20
6.58
0
VERTEX
8
1
10
10.09
20
6.59
0
VERTEX
8
1
10
10.13
20
6.59
0
VERTEX
8
1
10
10.18
20
6.60
0
VERTEX
8
1
10
10.22
20
6.60
0
VERTEX
8
1
10
10.26
20
6.61
0
VERTEX
8
1
10
10.30
20
6.62
0
VERTEX
8
1
10
10.34
20
6.62
0
VERTEX
8
1
10
10.39
20
6.63
0
VERTEX
8
1
10
10.43
20
6.63
0
VERTEX
8
1
10
10.47
20
6.64
0
VERTEX
8
1
10
10.51
20
6.65
0
VERTEX
8
1
10
10.55
20
6.65
0
VERTEX
8
1
10
10.60
20
6.66
0
VERTEX
8
1
10
10.64
20
6.66
0
VERTEX
8
1
10
10.68
20
6.67
0
VERTEX
8
1
10
10.72
20
6.68
0
VERTEX
8
1
10
10.76
20
6.70
0
VERTEX
8
1
10
10.80
20
6.72
0
VERTEX
8
1
10
10.84
20
6.73
0
VERTEX
8
1
10
10.88
20
6.75
0
VERTEX
8
1
10
10.92
20
6.77
0
VERTEX
8
1
10
10.96
20
6.80
0
VERTEX
8
1
10
11.00
20
6.82
0
VERTEX
8
1
10
11.04
20
6.84
0
VERTEX
8
1
10
11.08
20
6.87
0
VERTEX
8
1
10
11.12
20
6.89
0
VERTEX
8
1
10
11.15
20
6.92
0
VERTEX
8
1
10
11.19
20
6.95
0
VERTEX
8
1
10
11.23
20
6.98
0
VERTEX
8
1
10
11.27
20
7.01
0
VERTEX
8
1
10
11.31
20
7.04
0
VERTEX
8
1
10
11.34
20
7.07
0
VERTEX
8
1
10
11.38
20
7.11
0
VERTEX
8
1
10
11.41
20
7.14
0
VERTEX
8
1
10
11.45
20
7.18
0
VERTEX
8
1
10
11.49
20
7.21
0
VERTEX
8
1
10
11.52
20
7.25
0
VERTEX
8
1
10
11.56
20
7.29
0
VERTEX
8
1
10
11.59
20
7.33
0
VERTEX
8
1
10
11.62
20
7.36
0
VERTEX
8
1
10
11.66
20
7.40
0
VERTEX
8
1
10
11.69
20
7.45
0
VERTEX
8
1
10
11.73
20
7.49
0
VERTEX
8
1
10
11.76
20
7.53
0
VERTEX
8
1
10
11.79
20
7.57
0
VERTEX
8
1
10
11.61
20
8.13
0
VERTEX
8
1
10
11.56
20
8.15
0
VERTEX
8
1
10
11.51
20
8.16
0
VERTEX
8
1
10
11.45
20
8.18
0
VERTEX
8
1
10
11.40
20
8.19
0
VERTEX
8
1
10
11.35
20
8.20
0
VERTEX
8
1
10
11.30
20
8.21
0
VERTEX
8
1
10
11.25
20
8.22
0
VERTEX
8
1
10
11.20
20
8.23
0
VERTEX
8
1
10
11.15
20
8.24
0
VERTEX
8
1
10
11.10
20
8.25
0
VERTEX
8
1
10
11.05
20
8.26
0
VERTEX
8
1
10
11.00
20
8.27
0
VERTEX
8
1
10
10.95
20
8.27
0
VERTEX
8
1
10
10.90
20
8.28
0
VERTEX
8
1
10
10.86
20
8.28
0
VERTEX
8
1
10
10.81
20
8.28
0
VERTEX
8
1
10
10.76
20
8.28
0
VERTEX
8
1
10
10.71
20
8.28
0
VERTEX
8
1
10
10.67
20
8.28
0
VERTEX
8
1
10
10.62
20
8.28
0
VERTEX
8
1
10
10.57
20
8.28
0
VERTEX
8
1
10
10.53
20
8.28
0
VERTEX
8
1
10
10.48
20
8.27
0
VERTEX
8
1
10
10.44
20
8.27
0
VERTEX
8
1
10
10.39
20
8.26
0
VERTEX
8
1
10
10.35
20
8.25
0
VERTEX
8
1
10
10.31
20
8.24
0
VERTEX
8
1
10
10.26
20
8.23
0
VERTEX
8
1
10
10.22
20
8.22
0
VERTEX
8
1
10
10.18
20
8.21
0
VERTEX
8
1
10
10.14
20
8.19
0
VERTEX
8
1
10
10.11
20
8.17
0
VERTEX
8
1
10
10.07
20
8.15
0
VERTEX
8
1
10
10.03
20
8.13
0
VERTEX
8
1
10
9.99
20
8.11
0
VERTEX
8
1
10
9.96
20
8.09
0
VERTEX
8
1
10
9.92
20
8.07
0
VERTEX
8
1
10
9.88
20
8.05
0
VERTEX
8
1
10
9.84
20
8.03
0
VERTEX
8
1
10
9.81
20
8.01
0
VERTEX
8
1
10
9.77
20
7.99
0
VERTEX
8
1
10
9.73
20
7.97
0
VERTEX
8
1
10
9.69
20
7.95
0
VERTEX
8
1
10
9.66
20
7.93
0
VERTEX
8
1
10
9.62
20
7.91
0
VERTEX
8
1
10
9.58
20
7.89
0
VERTEX
8
1
10
9.54
20
7.87
0
VERTEX
8
1
10
9.51
20
7.85
0
VERTEX
8
1
10
9.47
20
7.83
0
VERTEX
8
1
10
9.43
20
7.81
0
VERTEX
8
1
10
8.78
20
8.70
0
VERTEX
8
1
10
8.81
20
8.73
0
VERTEX
8
1
10
8.85
20
8.76
0
VERTEX
8
1
10
8.88
20
8.79
0
VERTEX
8
1
10
8.91
20
8.82
0
VERTEX
8
1
10
8.94
20
8.85
0
VERTEX
8
1
10
8.97
20
8.88
0
VERTEX
8
1
10
9.00
20
8.91
0
VERTEX
8
1
10
9.03
20
8.94
0
VERTEX
8
1
10
9.06
20
8.97
0
VERTEX
8
1
10
9.09
20
9.00
0
VERTEX
8
1
10
9.12
20
9.03
0
VERTEX
8
1
10
9.15
20
9.06
0
VERTEX
8
1
10
9.18
20
9.09
0
VERTEX
8
1
10
9.21
20
9.12
0
VERTEX
8
1
10
9.24
20
9.15
0
VERTEX
8
1
10
9.27
20
9.17
0
VERTEX
8
1
10
9.30
20
9.20
0
VERTEX
8
1
10
9.33
20
9.23
0
VERTEX
8
1
10
9.36
20
9.26
0
VERTEX
8
1
10
9.39
20
9.29
0
VERTEX
8
1
10
9.42
20
9.33
0
VERTEX
8
1
10
9.44
20
9.36
0
VERTEX
8
1
10
9.46
20
9.40
0
VERTEX
8
1
10
9.49
20
9.44
0
VERTEX
8
1
10
9.51
20
9.48
0
VERTEX
8
1
10
9.53
20
9.52
0
VERTEX
8
1
10
9.55
20
9.56
0
VERTEX
8
1
10
9.56
20
9.60
0
VERTEX
8
1
10
9.58
20
9.64
0
VERTEX
8
1
10
9.60
20
9.69
0
VERTEX
8
1
10
9.61
20
9.73
0
VERTEX
8
1
10
9.63
20
9.78
0
VERTEX
8
1
10
9.64
20
9.82
0
VERTEX
8
1
10
9.66
20
9.87
0
VERTEX
8
1
10
9.67
20
9.91
0
VERTEX
8
1
10
9.68
20
9.96
0
VERTEX
8
1
10
9.69
20
10.01
0
VERTEX
8
1
10
9.70
20
10.06
0
VERTEX
8
1
10
9.71
20
10.11
0
VERTEX
8
1
10
9.72
20
10.16
0
VERTEX
8
1
10
9.73
20
10.21
0
VERTEX
8
1
10
9.73
20
10.26
0
VERTEX
8
1
10
9.74
20
10.31
0
VERTEX
8
1
10
9.74
20
10.36
0
VERTEX
8
1
10
9.75
20
10.41
0
VERTEX
8
1
10
9.75
20
10.46
0
VERTEX
8
1
10
9.76
20
10.51
0
VERTEX
8
1
10
9.76
20
10.57
0
VERTEX
8
1
10
9.76
20
10.62
0
VERTEX
8
1
10
9.76
20
10.68
0
VERTEX
8
1
10
9.28
20
11.02
0
VERTEX
8
1
10
9.23
20
11.00
0
VERTEX
8
1
10
9.18
20
10.99
0
VERTEX
8
1
10
9.13
20
10.97
0
VERTEX
8
1
10
9.08
20
10.95
0
VERTEX
8
1
10
9.04
20
10.93
0
VERTEX
8
1
10
8.99
20
10.91
0
VERTEX
8
1
10
8.94
20
10.89
0
VERTEX
8
1
10
8.89
20
10.87
0
VERTEX
8
1
10
8.85
20
10.84
0
VERTEX
8
1
10
8.80
20
10.82
0
VERTEX
8
1
10
8.76
20
10.80
0
VERTEX
8
1
10
8.72
20
10.77
0
VERTEX
8
1
10
8.67
20
10.75
0
VERTEX
8
1
10
8.63
20
10.72
0
VERTEX
8
1
10
8.59
20
10.70
0
VERTEX
8
1
10
8.55
20
10.67
0
VERTEX
8
1
10
8.51
20
10.65
0
VERTEX
8
1
10
8.47
20
10.62
0
VERTEX
8
1
10
8.43
20
10.59
0
VERTEX
8
1
10
8.39
20
10.56
0
VERTEX
8
1
10
8.36
20
10.53
0
VERTEX
8
1
10
8.32
20
10.50
0
VERTEX
8
1
10
8.29
20
10.47
0
VERTEX
8
1
10
8.26
20
10.44
0
VERTEX
8
1
10
8.22
20
10.41
0
VERTEX
8
1
10
8.19
20
10.38
0
VERTEX
8
1
10
8.16
20
10.35
0
VERTEX
8
1
10
8.14
20
10.31
0
VERTEX
8
1
10
8.11
20
10.28
0
VERTEX
8
1
10
8.09
20
10.24
0
VERTEX
8
1
10
8.06
20
10.21
0
VERTEX
8
1
10
8.05
20
10.17
0
VERTEX
8
1
10
8.03
20
10.13
0
VERTEX
8
1
10
8.01
20
10.09
0
VERTEX
8
1
10
7.99
20
10.05
0
VERTEX
8
1
10
7.97
20
10.02
0
VERTEX
8
1
10
7.95
20
9.98
0
VERTEX
8
1
10
7.93
20
9.94
0
VERTEX
8
1
10
7.92
20
9.90
0
VERTEX
8
1
10
7.90
20
9.86
0
VERTEX
8
1
10
7.88
20
9.83
0
VERTEX
8
1
10
7.86
20
9.79
0
VERTEX
8
1
10
7.84
20
9.75
0
VERTEX
8
1
10
7.82
20
9.71
0
VERTEX
8
1
10
7.80
20
9.67
0
VERTEX
8
1
10
7.78
20
9.64
0
VERTEX
8
1
10
7.77
20
9.60
0
VERTEX
8
1
10
7.75
20
9.56
0
VERTEX
8
1
10
7.73
20
9.52
0
VERTEX
8
1
10
7.71
20
9.48
0
VERTEX
8
1
10
6.66
20
9.82
0
SEQEND
0
POLYLINE
8
1
66
1
70
0
0
VERTEX
8
1
10
6.00
20
9.00
0
VERTEX
8
1
10
6.26
20
8.99
0
VERTEX
8
1
10
6.52
20
8.95
0
VERTEX
8
1
10
6.78
20
8.90
0
VERTEX
8
1
10
7.03
20
8.82
0
VERTEX
8
1
10
7.27
20
8.72
0
VERTEX
8
1
10
7.50
20
8.60
0
VERTEX
8
1
10
7.72
20
8.46
0
VERTEX
8
1
10
7.93
20
8.30
0
VERTEX
8
1
10
8.12
20
8.12
0
VERTEX
8
1
10
8.30
20
7.93
0
VERTEX
8
1
10
8.46
20
7.72
0
VERTEX
8
1
10
8.60
20
7.50
0
VERTEX
8
1
10
8.72
20
7.27
0
VERTEX
8
1
10
8.82
20
7.03
0
VERTEX
8
1
10
8.90
20
6.78
0
VERTEX
8
1
10
8.95
20
6.52
0
VERTEX
8
1
10
8.99
20
6.26
0
VERTEX
8
1
10
9.00
20
6.00
0
VERTEX
8
1
10
8.99
20
5.74
0
VERTEX
8
1
10
8.95
20
5.48
0
VERTEX
8
1
10
8.90
20
5.22
0
VERTEX
8
1
10
8.82
20
4.97
0
VERTEX
8
1
10
8.72
20
4.73
0
VERTEX
8
1
10
8.60
20
4.50
0
VERTEX
8
1
10
8.46
20
4.28
0
VERTEX
8
1
10
8.30
20
4.07
0
VERTEX
8
1
10
8.12
20
3.88
0
VERTEX
8
1
10
7.93
20
3.70
0
VERTEX
8
1
10
7.72
20
3.54
0
VERTEX
8
1
10
7.50
20
3.40
0
VERTEX
8
1
10
7.27
20
3.28
0
VERTEX
8
1
10
7.03
20
3.18
0
VERTEX
8
1
10
6.78
20
3.10
0
VERTEX
8
1
10
6.52
20
3.05
0
VERTEX
8
1
10
6.26
20
3.01
0
VERTEX
8
1
10
6.00
20
3.00
0
VERTEX
8
1
10
5.74
20
3.01
0
VERTEX
8
1
10
5.48
20
3.05
0
VERTEX
8
1
10
5.22
20
3.10
0
VERTEX
8
1
10
4.97
20
3.18
0
VERTEX
8
1
10
4.73
20
3.28
0
VERTEX
8
1
10
4.50
20
3.40
0
VERTEX
8
1
10
4.28
20
3.54
0
VERTEX
8
1
10
4.07
20
3.70
0
VERTEX
8
1
10
3.88
20
3.88
0
VERTEX
8
1
10
3.70
20
4.07
0
VERTEX
8
1
10
3.54
20
4.28
0
VERTEX
8
1
10
3.40
20
4.50
0
VERTEX
8
1
10
3.28
20
4.73
0
VERTEX
8
1
10
3.18
20
4.97
0
VERTEX
8
1
10
3.10
20
5.22
0
VERTEX
8
1
10
3.05
20
5.48
0
VERTEX
8
1
10
3.01
20
5.74
0
VERTEX
8
1
10
3.00
20
6.00
0
VERTEX
8
1
10
3.01
20
6.26
0
VERTEX
8
1
10
3.05
20
6.52
0
VERTEX
8
1
10
3.10
20
6.78
0
VERTEX
8
1
10
3.18
20
7.03
0
VERTEX
8
1
10
3.28
20
7.27
0
VERTEX
8
1
10
3.40
20
7.50
0
VERTEX
8
1
10
3.54
20
7.72
0
VERTEX
8
1
10
3.70
20
7.93
0
VERTEX
8
1
10
3.88
20
8.12
0
VERTEX
8
1
10
4.07
20
8.30
0
VERTEX
8
1
10
4.28
20
8.46
0
VERTEX
8
1
10
4.50
20
8.60
0
VERTEX
8
1
10
4.73
20
8.72
0
VERTEX
8
1
10
4.97
20
8.82
0
VERTEX
8
1
10
5.22
20
8.90
0
VERTEX
8
1
10
5.48
20
8.95
0
VERTEX
8
1
10
5.74
20
8.99
0
VERTEX
8
1
10
6.00
20
9.00
0
VERTEX
8
1
10
6.00
20
9.00
0
SEQEND
0
POLYLINE
8
1
66
1
70
0
0
VERTEX
8
1
10
14.00
20
2.00
0
VERTEX
8
1
10
14.42
20
2.00
0
VERTEX
8
1
10
15.15
20
0.01
0
VERTEX
8
1
10
15.99
20
0.01
0
VERTEX
8
1
10
16.72
20
2.00
0
VERTEX
8
1
10
17.14
20
2.00
0
VERTEX
8
1
10
17.56
20
2.00
0
VERTEX
8
1
10
18.29
20
0.01
0
VERTEX
8
1
10
19.14
20
0.01
0
VERTEX
8
1
10
19.86
20
2.00
0
VERTEX
8
1
10
20.28
20
2.00
0
VERTEX
8
1
10
20.71
20
2.00
0
VERTEX
8
1
10
21.43
20
0.01
0
VERTEX
8
1
10
22.28
20
0.01
0
VERTEX
8
1
10
23.00
20
2.00
0
VERTEX
8
1
10
23.42
20
2.00
0
VERTEX
8
1
10
23.85
20
2.00
0
VERTEX
8
1
10
24.57
20
0.01
0
VERTEX
8
1
10
25.42
20
0.01
0
VERTEX
8
1
10
26.14
20
2.00
0
VERTEX
8
1
10
26.57
20
2.00
0
VERTEX
8
1
10
26.99
20
2.00
0
VERTEX
8
1
10
27.71
20
0.01
0
VERTEX
8
1
10
28.56
20
0.01
0
VERTEX
8
1
10
29.29
20
2.00
0
VERTEX
8
1
10
29.71
20
2.00
0
VERTEX
8
1
10
30.13
20
2.00
0
VERTEX
8
1
10
30.86
20
0.01
0
VERTEX
8
1
10
31.70
20
0.01
0
VERTEX
8
1
10
32.43
20
2.00
0
VERTEX
8
1
10
32.85
20
2.00
0
VERTEX
8
1
10
33.27
20
2.00
0
VERTEX
8
1
10
34.00
20
0.01
0
VERTEX
8
1
10
34.84
20
0.01
0
VERTEX
8
1
10
35.57
20
2.00
0
VERTEX
8
1
10
35.99
20
2.00
0
VERTEX
8
1
10
36.41
20
2.00
0
VERTEX
8
1
10
37.14
20
0.01
0
VERTEX
8
1
10
37.98
20
0.01
0
VERTEX
8
1
10
38.71
20
2.00
0
VERTEX
8
1
10
39.13
20
2.00
0
VERTEX
8
1
10
39.56
20
2.00
0
VERTEX
8
1
10
40.28
20
0.01
0
VERTEX
8
1
10
41.13
20
0.01
0
VERTEX
8
1
10
41.85
20
2.00
0
VERTEX
8
1
10
42.27
20
2.00
0
VERTEX
8
1
10
42.70
20
2.00
0
VERTEX
8
1
10
43.42
20
0.01
0
VERTEX
8
1
10
44.27
20
0.01
0
VERTEX
8
1
10
44.99
20
2.00
0
VERTEX
8
1
10
45.42
20
2.00
0
VERTEX
8
1
10
45.84
20
2.00
0
VERTEX
8
1
10
46.56
20
0.01
0
VERTEX
8
1
10
47.41
20
0.01
0
VERTEX
8
1
10
48.13
20
2.00
0
VERTEX
8
1
10
48.56
20
2.00
0
VERTEX
8
1
10
48.98
20
2.00
0
VERTEX
8
1
10
49.71
20
0.01
0
VERTEX
8
1
10
50.55
20
0.01
0
VERTEX
8
1
10
51.28
20
2.00
0
VERTEX
8
1
10
51.70
20
2.00
0
VERTEX
8
1
10
52.12
20
2.00
0
VERTEX
8
1
10
52.85
20
0.01
0
VERTEX
8
1
10
53.69
20
0.01
0
VERTEX
8
1
10
54.42
20
2.00
0
VERTEX
8
1
10
54.84
20
2.00
0
VERTEX
8
1
10
55.26
20
2.00
0
VERTEX
8
1
10
55.99
20
0.01
0
VERTEX
8
1
10
56.83
20
0.01
0
VERTEX
8
1
10
57.56
20
2.00
0
VERTEX
8
1
10
57.98
20
2.00
0
VERTEX
8
1
10
58.41
20
2.00
0
VERTEX
8
1
10
59.13
20
0.01
0
VERTEX
8
1
10
59.98
20
0.01
0
VERTEX
8
1
10
60.70
20
2.00
0
VERTEX
8
1
10
61.12
20
2.00
0
VERTEX
8
1
10
61.55
20
2.00
0
VERTEX
8
1
10
62.27
20
0.01
0
VERTEX
8
1
10
63.12
20
0.01
0
VERTEX
8
1
10
63.84
20
2.00
0
VERTEX
8
1
10
64.27
20
2.00
0
VERTEX
8
1
10
64.69
20
2.00
0
VERTEX
8
1
10
65.41
20
0.01
0
VERTEX
8
1
10
66.26
20
0.01
0
VERTEX
8
1
10
66.98
20
2.00
0
VERTEX
8
1
10
67.41
20
2.00
0
VERTEX
8
1
10
67.83
20
2.00
0
VERTEX
8
1
10
68.56
20
0.01
0
VERTEX
8
1
10
69.40
20
0.01
0
VERTEX
8
1
10
70.13
20
2.00
0
VERTEX
8
1
10
70.55
20
2.00
0
VERTEX
8
1
10
70.97
20
2.00
0
VERTEX
8
1
10
71.70
20
0.01
0
VERTEX
8
1
10
72.54
20
0.01
0
VERTEX
8
1
10
73.27
20
2.00
0
VERTEX
8
1
10
73.69
20
2.00
0
VERTEX
8
1
10
74.11
20
2.00
0
VERTEX
8
1
10
74.84
20
0.01
0
VERTEX
8
1
10
75.68
20
0.01
0
VERTEX
8
1
10
76.41
20
2.00
0
VERTEX
8
1
10
76.83
20
2.00
0
VERTEX
8
1
10
77.25
20
2.00
0
VERTEX
8
1
10
77.98
20
0.01
0
VERTEX
8
1
10
78.83
20
0.01
0
VERTEX
8
1
10
79.55
20
2.00
0
VERTEX
8
1
10
79.97
20
2.00
0
VERTEX
8
1
10
80.40
20
2.00
0
VERTEX
8
1
10
81.12
20
0.01
0
VERTEX
8
1
10
81.97
20
0.01
0
VERTEX
8
1
10
82.69
20
2.00
0
VERTEX
8
1
10
83.12
20
2.00
0
VERTEX
8
1
10
83.54
20
2.00
0
VERTEX
8
1
10
84.26
20
0.01
0
VERTEX
8
1
10
85.11
20
0.01
0
VERTEX
8
1
10
85.83
20
2.00
0
VERTEX
8
1
10
86.26
20
2.00
0
VERTEX
8
1
10
86.26
20
8.00
0
VERTEX
8
1
10
14.00
20
8.00
0
VERTEX
8
1
10
14.00
20
2.00
0
SEQEND
0
ENDSEC
0
EOF
