0
SECTION
2
HEADER
0
ENDSEC
0
SECTION
2
TABLES
0
TABLE
2
LTYPE
0
LTYPE
72
65
70
64
2
CONTINUOUS
3
______
73
0
40
0
0
ENDTAB
0
TABLE
2
LAYER
0
ENDTAB
0
ENDSEC
0
SECTION
2
ENTITIES
0
CIRCLE
8
0
10
3
20
0
40
1
0
CIRCLE
8
0
10
3
20
0
40
1
0
LINE
8
layer0
10
2.6960175
20
-3.9130131
11
2.6264316
21
-3.8253795
0
LINE
8
layer0
10
2.6264316
20
-3.8253795
11
2.5631646
21
-3.7384611
0
LINE
8
layer0
10
2.5631646
20
-3.7384611
11
2.5067817
21
-3.6537391
0
LINE
8
layer0
10
2.5067817
20
-3.6537391
11
2.4569068
21
-3.5715851
0
LINE
8
layer0
10
2.4569068
20
-3.5715851
11
2.4118477
21
-3.4898097
0
LINE
8
layer0
10
2.4118477
20
-3.4898097
11
2.3733479
21
-3.4124333
0
LINE
8
layer0
10
2.3733479
20
-3.4124333
11
2.3397284
21
-3.337124
0
LINE
8
layer0
10
2.3397284
20
-3.337124
11
2.287386
21
-3.1971037
0
LINE
8
layer0
10
2.287386
20
-3.1971037
11
2.2521987
21
-3.0719299
0
LINE
8
layer0
10
2.2521987
20
-3.0719299
11
2.2315946
21
-2.9653372
0
LINE
8
layer0
10
2.2315946
20
-2.9653372
11
2.2217809
21
-2.8745351
0
LINE
8
layer0
10
2.2217809
20
-2.8745351
11
2.2202729
21
-2.797027
0
LINE
8
layer0
10
2.2202729
20
-2.797027
11
2.2724622
21
-2.7243324
0
LINE
8
layer0
10
2.2724622
20
-2.7243324
11
2.3220891
21
-2.6449161
0
LINE
8
layer0
10
2.3220891
20
-2.6449161
11
2.3638981
21
-2.5663208
0
LINE
8
layer0
10
2.3638981
20
-2.5663208
11
2.3980656
21
-2.489041
0
LINE
8
layer0
10
2.3980656
20
-2.489041
11
2.4247629
21
-2.4135798
0
LINE
8
layer0
10
2.4247629
20
-2.4135798
11
2.4442249
21
-2.3404307
0
LINE
8
layer0
10
2.4442249
20
-2.3404307
11
2.4567025
21
-2.2700388
0
LINE
8
layer0
10
2.4567025
20
-2.2700388
11
2.4624542
21
-2.2028766
0
LINE
8
layer0
10
2.4624542
20
-2.2028766
11
2.4617856
21
-2.1393747
0
LINE
8
layer0
10
2.4617856
20
-2.1393747
11
2.4550174
21
-2.0799375
0
LINE
8
layer0
10
2.4550174
20
-2.0799375
11
2.4425027
21
-2.0249537
0
LINE
8
layer0
10
2.4425027
20
-2.0249537
11
2.4245994
21
-1.9748031
0
LINE
8
layer0
10
2.4245994
20
-1.9748031
11
2.4016942
21
-1.9298361
0
LINE
8
layer0
10
2.4016942
20
-1.9298361
11
2.3742074
21
-1.8903645
0
LINE
8
layer0
10
2.3742074
20
-1.8903645
11
2.3425508
21
-1.8566954
0
LINE
8
layer0
10
2.3425508
20
-1.8566954
11
2.3071746
21
-1.8290887
0
LINE
8
layer0
10
2.3071746
20
-1.8290887
11
2.2882295
21
-1.8176427
0
LINE
8
layer0
10
2.2882295
20
-1.8176427
11
2.1557466
21
-1.7577698
0
LINE
8
layer0
10
2.1557466
20
-1.7577698
11
2.025
21
-1.6887495
0
LINE
8
layer0
10
2.025
20
-1.6887495
11
1.8998534
21
-1.6100298
0
LINE
8
layer0
10
1.8998534
20
-1.6100298
11
1.7817605
21
-1.5252327
0
LINE
8
layer0
10
1.7817605
20
-1.5252327
11
1.7623754
21
-1.5145487
0
LINE
8
layer0
10
1.7623754
20
-1.5145487
11
1.7207792
21
-1.4977154
0
LINE
8
layer0
10
1.7207792
20
-1.4977154
11
1.6757926
21
-1.4871345
0
LINE
8
layer0
10
1.6757926
20
-1.4871345
11
1.6278658
21
-1.4830661
0
LINE
8
layer0
10
1.6278658
20
-1.4830661
11
1.5774706
21
-1.4857131
0
LINE
8
layer0
10
1.5774706
20
-1.4857131
11
1.5250873
21
-1.4952837
0
LINE
8
layer0
10
1.5250873
20
-1.4952837
11
1.4712126
21
-1.5119375
0
LINE
8
layer0
10
1.4712126
20
-1.5119375
11
1.4163544
21
-1.5357947
0
LINE
8
layer0
10
1.4163544
20
-1.5357947
11
1.3610258
21
-1.5669666
0
LINE
8
layer0
10
1.3610258
20
-1.5669666
11
1.3057375
21
-1.6055288
0
LINE
8
layer0
10
1.3057375
20
-1.6055288
11
1.2510151
21
-1.6515307
0
LINE
8
layer0
10
1.2510151
20
-1.6515307
11
1.1973971
21
-1.7049598
0
LINE
8
layer0
10
1.1973971
20
-1.7049598
11
1.1453944
21
-1.765811
0
LINE
8
layer0
10
1.1453944
20
-1.765811
11
1.0955519
21
-1.8340408
0
LINE
8
layer0
10
1.0955519
20
-1.8340408
11
1.0483909
21
-1.9095461
0
LINE
8
layer0
10
1.0483909
20
-1.9095461
11
1.0044278
21
-1.9922324
0
LINE
8
layer0
10
1.0044278
20
-1.9922324
11
0.9675671
21
-2.073777
0
LINE
8
layer0
10
0.9675671
20
-2.073777
11
0.8996891
21
-2.1112251
0
LINE
8
layer0
10
0.8996891
20
-2.1112251
11
0.8161454
21
-2.1481272
0
LINE
8
layer0
10
0.8161454
20
-2.1481272
11
0.7135313
21
-2.1835799
0
LINE
8
layer0
10
0.7135313
20
-2.1835799
11
0.587534
21
-2.2156937
0
LINE
8
layer0
10
0.587534
20
-2.2156937
11
0.4401016
21
-2.240374
0
LINE
8
layer0
10
0.4401016
20
-2.240374
11
0.3580721
21
-2.2489133
0
LINE
8
layer0
10
0.3580721
20
-2.2489133
11
0.2718123
21
-2.2542597
0
LINE
8
layer0
10
0.2718123
20
-2.2542597
11
0.1784632
21
-2.2561251
0
LINE
8
layer0
10
0.1784632
20
-2.2561251
11
0.0823783
21
-2.2540091
0
LINE
8
layer0
10
0.0823783
20
-2.2540091
11
-0.0191846
21
-2.2475411
0
LINE
8
layer0
10
-0.0191846
20
-2.2475411
11
-0.1260916
21
-2.2362095
0
LINE
8
layer0
10
-0.1260916
20
-2.2362095
11
-0.2367775
21
-2.2197631
0
LINE
8
layer0
10
-0.2367775
20
-2.2197631
11
-0.34068
21
-2.1998582
0
ARC
8
layer0
10
3.0000522
20
0.0000301
40
4
50
206.6349014
51
213.365097
0
LINE
8
layer0
10
-0.5754731
20
-1.7931846
11
-0.54076
21
-1.69325
0
LINE
8
layer0
10
-0.54076
20
-1.69325
11
-0.49966
21
-1.58917
0
LINE
8
layer0
10
-0.49966
20
-1.58917
11
-0.45602
21
-1.49092
0
LINE
8
layer0
10
-0.45602
20
-1.49092
11
-0.41084
21
-1.39973
0
LINE
8
layer0
10
-0.41084
20
-1.39973
11
-0.36463
21
-1.31546
0
LINE
8
layer0
10
-0.36463
20
-1.31546
11
-0.31634
21
-1.23555
0
LINE
8
layer0
10
-0.31634
20
-1.23555
11
-0.26858
21
-1.16352
0
LINE
8
layer0
10
-0.26858
20
-1.16352
11
-0.22017
21
-1.09675
0
LINE
8
layer0
10
-0.22017
20
-1.09675
11
-0.12508
21
-0.98141
0
LINE
8
layer0
10
-0.12508
20
-0.98141
11
-0.03427
21
-0.88835
0
LINE
8
layer0
10
-0.03427
20
-0.88835
11
0.04774
21
-0.81721
0
LINE
8
layer0
10
0.04774
20
-0.81721
11
0.12147
21
-0.76331
0
LINE
8
layer0
10
0.12147
20
-0.76331
11
0.18784
21
-0.72325
0
LINE
8
layer0
10
0.18784
20
-0.72325
11
0.27689
21
-0.7321
0
LINE
8
layer0
10
0.27689
20
-0.7321
11
0.37048
21
-0.73537
0
LINE
8
layer0
10
0.37048
20
-0.73537
11
0.45945
21
-0.73228
0
LINE
8
layer0
10
0.45945
20
-0.73228
11
0.54346
21
-0.72323
0
LINE
8
layer0
10
0.54346
20
-0.72323
11
0.62216
21
-0.70862
0
LINE
8
layer0
10
0.62216
20
-0.70862
11
0.69524
21
-0.6889
0
LINE
8
layer0
10
0.69524
20
-0.6889
11
0.76244
21
-0.66451
0
LINE
8
layer0
10
0.76244
20
-0.66451
11
0.82348
21
-0.63591
0
LINE
8
layer0
10
0.82348
20
-0.63591
11
0.87814
21
-0.60358
0
LINE
8
layer0
10
0.87814
20
-0.60358
11
0.92623
21
-0.568
0
LINE
8
layer0
10
0.92623
20
-0.568
11
0.96759
21
-0.52967
0
LINE
8
layer0
10
0.96759
20
-0.52967
11
1.00207
21
-0.48909
0
LINE
8
layer0
10
1.00207
20
-0.48909
11
1.02956
21
-0.44677
0
LINE
8
layer0
10
1.02956
20
-0.44677
11
1.05
21
-0.40323
0
LINE
8
layer0
10
1.05
20
-0.40323
11
1.06333
21
-0.35898
0
LINE
8
layer0
10
1.06333
20
-0.35898
11
1.06955
21
-0.31454
0
LINE
8
layer0
10
1.06955
20
-0.31454
11
1.06999
21
-0.29241
0
LINE
8
layer0
10
1.06999
20
-0.29241
11
1.0556
21
-0.14774
0
LINE
8
layer0
10
1.0556
20
-0.14774
11
1.05
21
0
0
LINE
8
layer0
10
1.05
20
0
11
1.0556
21
0.14774
0
LINE
8
layer0
10
1.0556
20
0.14774
11
1.06999
21
0.29241
0
LINE
8
layer0
10
1.06999
20
0.29241
11
1.06955
21
0.31454
0
LINE
8
layer0
10
1.06955
20
0.31454
11
1.06333
21
0.35898
0
LINE
8
layer0
10
1.06333
20
0.35898
11
1.05
21
0.40323
0
LINE
8
layer0
10
1.05
20
0.40323
11
1.02956
21
0.44677
0
LINE
8
layer0
10
1.02956
20
0.44677
11
1.00207
21
0.48909
0
LINE
8
layer0
10
1.00207
20
0.48909
11
0.96759
21
0.52967
0
LINE
8
layer0
10
0.96759
20
0.52967
11
0.92623
21
0.568
0
LINE
8
layer0
10
0.92623
20
0.568
11
0.87814
21
0.60358
0
LINE
8
layer0
10
0.87814
20
0.60358
11
0.82348
21
0.63591
0
LINE
8
layer0
10
0.82348
20
0.63591
11
0.76244
21
0.66451
0
LINE
8
layer0
10
0.76244
20
0.66451
11
0.69524
21
0.6889
0
LINE
8
layer0
10
0.69524
20
0.6889
11
0.62216
21
0.70862
0
LINE
8
layer0
10
0.62216
20
0.70862
11
0.54346
21
0.72323
0
LINE
8
layer0
10
0.54346
20
0.72323
11
0.45945
21
0.73228
0
LINE
8
layer0
10
0.45945
20
0.73228
11
0.37048
21
0.73537
0
LINE
8
layer0
10
0.37048
20
0.73537
11
0.27689
21
0.7321
0
LINE
8
layer0
10
0.27689
20
0.7321
11
0.18784
21
0.72325
0
LINE
8
layer0
10
0.18784
20
0.72325
11
0.12147
21
0.76331
0
LINE
8
layer0
10
0.12147
20
0.76331
11
0.04774
21
0.81721
0
LINE
8
layer0
10
0.04774
20
0.81721
11
-0.03427
21
0.88835
0
LINE
8
layer0
10
-0.03427
20
0.88835
11
-0.12508
21
0.98141
0
LINE
8
layer0
10
-0.12508
20
0.98141
11
-0.22017
21
1.09675
0
LINE
8
layer0
10
-0.22017
20
1.09675
11
-0.26858
21
1.16352
0
LINE
8
layer0
10
-0.26858
20
1.16352
11
-0.31634
21
1.23555
0
LINE
8
layer0
10
-0.31634
20
1.23555
11
-0.36463
21
1.31546
0
LINE
8
layer0
10
-0.36463
20
1.31546
11
-0.41084
21
1.39973
0
LINE
8
layer0
10
-0.41084
20
1.39973
11
-0.45602
21
1.49092
0
LINE
8
layer0
10
-0.45602
20
1.49092
11
-0.49966
21
1.58917
0
LINE
8
layer0
10
-0.49966
20
1.58917
11
-0.54076
21
1.69325
0
LINE
8
layer0
10
-0.54076
20
1.69325
11
-0.5754731
21
1.7931846
0
ARC
8
layer0
10
3.0000522
20
-0.0000301
40
4
50
146.634903
51
153.3650986
0
LINE
8
layer0
10
-0.34068
20
2.1998582
11
-0.2367775
21
2.2197631
0
LINE
8
layer0
10
-0.2367775
20
2.2197631
11
-0.1260916
21
2.2362095
0
LINE
8
layer0
10
-0.1260916
20
2.2362095
11
-0.0191846
21
2.2475411
0
LINE
8
layer0
10
-0.0191846
20
2.2475411
11
0.0823783
21
2.2540091
0
LINE
8
layer0
10
0.0823783
20
2.2540091
11
0.1784632
21
2.2561251
0
LINE
8
layer0
10
0.1784632
20
2.2561251
11
0.2718123
21
2.2542597
0
LINE
8
layer0
10
0.2718123
20
2.2542597
11
0.3580721
21
2.2489133
0
LINE
8
layer0
10
0.3580721
20
2.2489133
11
0.4401016
21
2.240374
0
LINE
8
layer0
10
0.4401016
20
2.240374
11
0.587534
21
2.2156937
0
LINE
8
layer0
10
0.587534
20
2.2156937
11
0.7135313
21
2.1835799
0
LINE
8
layer0
10
0.7135313
20
2.1835799
11
0.8161454
21
2.1481272
0
LINE
8
layer0
10
0.8161454
20
2.1481272
11
0.8996891
21
2.1112251
0
LINE
8
layer0
10
0.8996891
20
2.1112251
11
0.9675671
21
2.073777
0
LINE
8
layer0
10
0.9675671
20
2.073777
11
1.0044278
21
1.9922324
0
LINE
8
layer0
10
1.0044278
20
1.9922324
11
1.0483909
21
1.9095461
0
LINE
8
layer0
10
1.0483909
20
1.9095461
11
1.0955519
21
1.8340408
0
LINE
8
layer0
10
1.0955519
20
1.8340408
11
1.1453944
21
1.765811
0
LINE
8
layer0
10
1.1453944
20
1.765811
11
1.1973971
21
1.7049598
0
LINE
8
layer0
10
1.1973971
20
1.7049598
11
1.2510151
21
1.6515307
0
LINE
8
layer0
10
1.2510151
20
1.6515307
11
1.3057375
21
1.6055288
0
LINE
8
layer0
10
1.3057375
20
1.6055288
11
1.3610258
21
1.5669666
0
LINE
8
layer0
10
1.3610258
20
1.5669666
11
1.4163544
21
1.5357947
0
LINE
8
layer0
10
1.4163544
20
1.5357947
11
1.4712126
21
1.5119375
0
LINE
8
layer0
10
1.4712126
20
1.5119375
11
1.5250873
21
1.4952837
0
LINE
8
layer0
10
1.5250873
20
1.4952837
11
1.5774706
21
1.4857131
0
LINE
8
layer0
10
1.5774706
20
1.4857131
11
1.6278658
21
1.4830661
0
LINE
8
layer0
10
1.6278658
20
1.4830661
11
1.6757926
21
1.4871345
0
LINE
8
layer0
10
1.6757926
20
1.4871345
11
1.7207792
21
1.4977154
0
LINE
8
layer0
10
1.7207792
20
1.4977154
11
1.7623754
21
1.5145487
0
LINE
8
layer0
10
1.7623754
20
1.5145487
11
1.7817605
21
1.5252327
0
LINE
8
layer0
10
1.7817605
20
1.5252327
11
1.8998534
21
1.6100298
0
LINE
8
layer0
10
1.8998534
20
1.6100298
11
2.025
21
1.6887495
0
LINE
8
layer0
10
2.025
20
1.6887495
11
2.1557466
21
1.7577698
0
LINE
8
layer0
10
2.1557466
20
1.7577698
11
2.2882295
21
1.8176427
0
LINE
8
layer0
10
2.2882295
20
1.8176427
11
2.3071746
21
1.8290887
0
LINE
8
layer0
10
2.3071746
20
1.8290887
11
2.3425508
21
1.8566954
0
LINE
8
layer0
10
2.3425508
20
1.8566954
11
2.3742074
21
1.8903645
0
LINE
8
layer0
10
2.3742074
20
1.8903645
11
2.4016942
21
1.9298361
0
LINE
8
layer0
10
2.4016942
20
1.9298361
11
2.4245994
21
1.9748031
0
LINE
8
layer0
10
2.4245994
20
1.9748031
11
2.4425027
21
2.0249537
0
LINE
8
layer0
10
2.4425027
20
2.0249537
11
2.4550174
21
2.0799375
0
LINE
8
layer0
10
2.4550174
20
2.0799375
11
2.4617856
21
2.1393747
0
LINE
8
layer0
10
2.4617856
20
2.1393747
11
2.4624542
21
2.2028766
0
LINE
8
layer0
10
2.4624542
20
2.2028766
11
2.4567025
21
2.2700388
0
LINE
8
layer0
10
2.4567025
20
2.2700388
11
2.4442249
21
2.3404307
0
LINE
8
layer0
10
2.4442249
20
2.3404307
11
2.4247629
21
2.4135798
0
LINE
8
layer0
10
2.4247629
20
2.4135798
11
2.3980656
21
2.489041
0
LINE
8
layer0
10
2.3980656
20
2.489041
11
2.3638981
21
2.5663208
0
LINE
8
layer0
10
2.3638981
20
2.5663208
11
2.3220891
21
2.6449161
0
LINE
8
layer0
10
2.3220891
20
2.6449161
11
2.2724622
21
2.7243324
0
LINE
8
layer0
10
2.2724622
20
2.7243324
11
2.2202729
21
2.797027
0
LINE
8
layer0
10
2.2202729
20
2.797027
11
2.2217809
21
2.8745351
0
LINE
8
layer0
10
2.2217809
20
2.8745351
11
2.2315946
21
2.9653372
0
LINE
8
layer0
10
2.2315946
20
2.9653372
11
2.2521987
21
3.0719299
0
LINE
8
layer0
10
2.2521987
20
3.0719299
11
2.287386
21
3.1971037
0
LINE
8
layer0
10
2.287386
20
3.1971037
11
2.3397284
21
3.337124
0
LINE
8
layer0
10
2.3397284
20
3.337124
11
2.3733479
21
3.4124333
0
LINE
8
layer0
10
2.3733479
20
3.4124333
11
2.4118477
21
3.4898097
0
LINE
8
layer0
10
2.4118477
20
3.4898097
11
2.4569068
21
3.5715851
0
LINE
8
layer0
10
2.4569068
20
3.5715851
11
2.5067817
21
3.6537391
0
LINE
8
layer0
10
2.5067817
20
3.6537391
11
2.5631646
21
3.7384611
0
LINE
8
layer0
10
2.5631646
20
3.7384611
11
2.6264316
21
3.8253795
0
LINE
8
layer0
10
2.6264316
20
3.8253795
11
2.6960175
21
3.9130131
0
LINE
8
layer0
10
2.6960175
20
3.9130131
11
2.7652069
21
3.9930428
0
ARC
8
layer0
10
3
20
-0.0000603
40
4
50
86.6349023
51
93.3650977
0
LINE
8
layer0
10
3.2347931
20
3.9930428
11
3.3039825
21
3.9130131
0
LINE
8
layer0
10
3.3039825
20
3.9130131
11
3.3735684
21
3.8253795
0
LINE
8
layer0
10
3.3735684
20
3.8253795
11
3.4368354
21
3.7384611
0
LINE
8
layer0
10
3.4368354
20
3.7384611
11
3.4932183
21
3.6537391
0
LINE
8
layer0
10
3.4932183
20
3.6537391
11
3.5430932
21
3.5715851
0
LINE
8
layer0
10
3.5430932
20
3.5715851
11
3.5881523
21
3.4898097
0
LINE
8
layer0
10
3.5881523
20
3.4898097
11
3.6266521
21
3.4124333
0
LINE
8
layer0
10
3.6266521
20
3.4124333
11
3.6602716
21
3.337124
0
LINE
8
layer0
10
3.6602716
20
3.337124
11
3.712614
21
3.1971037
0
LINE
8
layer0
10
3.712614
20
3.1971037
11
3.7478013
21
3.0719299
0
LINE
8
layer0
10
3.7478013
20
3.0719299
11
3.7684054
21
2.9653372
0
LINE
8
layer0
10
3.7684054
20
2.9653372
11
3.7782191
21
2.8745351
0
LINE
8
layer0
10
3.7782191
20
2.8745351
11
3.7797271
21
2.797027
0
LINE
8
layer0
10
3.7797271
20
2.797027
11
3.7275378
21
2.7243324
0
LINE
8
layer0
10
3.7275378
20
2.7243324
11
3.6779109
21
2.6449161
0
LINE
8
layer0
10
3.6779109
20
2.6449161
11
3.6361019
21
2.5663208
0
LINE
8
layer0
10
3.6361019
20
2.5663208
11
3.6019344
21
2.489041
0
LINE
8
layer0
10
3.6019344
20
2.489041
11
3.5752371
21
2.4135798
0
LINE
8
layer0
10
3.5752371
20
2.4135798
11
3.5557751
21
2.3404307
0
LINE
8
layer0
10
3.5557751
20
2.3404307
11
3.5432975
21
2.2700388
0
LINE
8
layer0
10
3.5432975
20
2.2700388
11
3.5375458
21
2.2028766
0
LINE
8
layer0
10
3.5375458
20
2.2028766
11
3.5382144
21
2.1393747
0
LINE
8
layer0
10
3.5382144
20
2.1393747
11
3.5449826
21
2.0799375
0
LINE
8
layer0
10
3.5449826
20
2.0799375
11
3.5574973
21
2.0249537
0
LINE
8
layer0
10
3.5574973
20
2.0249537
11
3.5754006
21
1.9748031
0
LINE
8
layer0
10
3.5754006
20
1.9748031
11
3.5983058
21
1.9298361
0
LINE
8
layer0
10
3.5983058
20
1.9298361
11
3.6257926
21
1.8903645
0
LINE
8
layer0
10
3.6257926
20
1.8903645
11
3.6574492
21
1.8566954
0
LINE
8
layer0
10
3.6574492
20
1.8566954
11
3.6928254
21
1.8290887
0
LINE
8
layer0
10
3.6928254
20
1.8290887
11
3.7117705
21
1.8176427
0
LINE
8
layer0
10
3.7117705
20
1.8176427
11
3.8442534
21
1.7577698
0
LINE
8
layer0
10
3.8442534
20
1.7577698
11
3.975
21
1.6887495
0
LINE
8
layer0
10
3.975
20
1.6887495
11
4.1001466
21
1.6100298
0
LINE
8
layer0
10
4.1001466
20
1.6100298
11
4.2182395
21
1.5252327
0
LINE
8
layer0
10
4.2182395
20
1.5252327
11
4.2376246
21
1.5145487
0
LINE
8
layer0
10
4.2376246
20
1.5145487
11
4.2792208
21
1.4977154
0
LINE
8
layer0
10
4.2792208
20
1.4977154
11
4.3242074
21
1.4871345
0
LINE
8
layer0
10
4.3242074
20
1.4871345
11
4.3721342
21
1.4830661
0
LINE
8
layer0
10
4.3721342
20
1.4830661
11
4.4225294
21
1.4857131
0
LINE
8
layer0
10
4.4225294
20
1.4857131
11
4.4749127
21
1.4952837
0
LINE
8
layer0
10
4.4749127
20
1.4952837
11
4.5287874
21
1.5119375
0
LINE
8
layer0
10
4.5287874
20
1.5119375
11
4.5836456
21
1.5357947
0
LINE
8
layer0
10
4.5836456
20
1.5357947
11
4.6389742
21
1.5669666
0
LINE
8
layer0
10
4.6389742
20
1.5669666
11
4.6942625
21
1.6055288
0
LINE
8
layer0
10
4.6942625
20
1.6055288
11
4.7489849
21
1.6515307
0
LINE
8
layer0
10
4.7489849
20
1.6515307
11
4.8026029
21
1.7049598
0
LINE
8
layer0
10
4.8026029
20
1.7049598
11
4.8546056
21
1.765811
0
LINE
8
layer0
10
4.8546056
20
1.765811
11
4.9044481
21
1.8340408
0
LINE
8
layer0
10
4.9044481
20
1.8340408
11
4.9516091
21
1.9095461
0
LINE
8
layer0
10
4.9516091
20
1.9095461
11
4.9955722
21
1.9922324
0
LINE
8
layer0
10
4.9955722
20
1.9922324
11
5.0324329
21
2.073777
0
LINE
8
layer0
10
5.0324329
20
2.073777
11
5.1003109
21
2.1112251
0
LINE
8
layer0
10
5.1003109
20
2.1112251
11
5.1838546
21
2.1481272
0
LINE
8
layer0
10
5.1838546
20
2.1481272
11
5.2864687
21
2.1835799
0
LINE
8
layer0
10
5.2864687
20
2.1835799
11
5.412466
21
2.2156937
0
LINE
8
layer0
10
5.412466
20
2.2156937
11
5.5598984
21
2.240374
0
LINE
8
layer0
10
5.5598984
20
2.240374
11
5.6419279
21
2.2489133
0
LINE
8
layer0
10
5.6419279
20
2.2489133
11
5.7281877
21
2.2542597
0
LINE
8
layer0
10
5.7281877
20
2.2542597
11
5.8215368
21
2.2561251
0
LINE
8
layer0
10
5.8215368
20
2.2561251
11
5.9176217
21
2.2540091
0
LINE
8
layer0
10
5.9176217
20
2.2540091
11
6.0191846
21
2.2475411
0
LINE
8
layer0
10
6.0191846
20
2.2475411
11
6.1260916
21
2.2362095
0
LINE
8
layer0
10
6.1260916
20
2.2362095
11
6.2367775
21
2.2197631
0
LINE
8
layer0
10
6.2367775
20
2.2197631
11
6.34068
21
2.1998582
0
ARC
8
layer0
10
2.9999478
20
-0.0000301
40
4
50
26.6349014
51
33.365097
0
LINE
8
layer0
10
6.5754731
20
1.7931846
11
6.54076
21
1.69325
0
LINE
8
layer0
10
6.54076
20
1.69325
11
6.49966
21
1.58917
0
LINE
8
layer0
10
6.49966
20
1.58917
11
6.45602
21
1.49092
0
LINE
8
layer0
10
6.45602
20
1.49092
11
6.41084
21
1.39973
0
LINE
8
layer0
10
6.41084
20
1.39973
11
6.36463
21
1.31546
0
LINE
8
layer0
10
6.36463
20
1.31546
11
6.31634
21
1.23555
0
LINE
8
layer0
10
6.31634
20
1.23555
11
6.26858
21
1.16352
0
LINE
8
layer0
10
6.26858
20
1.16352
11
6.22017
21
1.09675
0
LINE
8
layer0
10
6.22017
20
1.09675
11
6.12508
21
0.98141
0
LINE
8
layer0
10
6.12508
20
0.98141
11
6.03427
21
0.88835
0
LINE
8
layer0
10
6.03427
20
0.88835
11
5.95226
21
0.81721
0
LINE
8
layer0
10
5.95226
20
0.81721
11
5.87853
21
0.76331
0
LINE
8
layer0
10
5.87853
20
0.76331
11
5.81216
21
0.72325
0
LINE
8
layer0
10
5.81216
20
0.72325
11
5.72311
21
0.7321
0
LINE
8
layer0
10
5.72311
20
0.7321
11
5.62952
21
0.73537
0
LINE
8
layer0
10
5.62952
20
0.73537
11
5.54055
21
0.73228
0
LINE
8
layer0
10
5.54055
20
0.73228
11
5.45654
21
0.72323
0
LINE
8
layer0
10
5.45654
20
0.72323
11
5.37784
21
0.70862
0
LINE
8
layer0
10
5.37784
20
0.70862
11
5.30476
21
0.6889
0
LINE
8
layer0
10
5.30476
20
0.6889
11
5.23756
21
0.66451
0
LINE
8
layer0
10
5.23756
20
0.66451
11
5.17652
21
0.63591
0
LINE
8
layer0
10
5.17652
20
0.63591
11
5.12186
21
0.60358
0
LINE
8
layer0
10
5.12186
20
0.60358
11
5.07377
21
0.568
0
LINE
8
layer0
10
5.07377
20
0.568
11
5.03241
21
0.52967
0
LINE
8
layer0
10
5.03241
20
0.52967
11
4.99793
21
0.48909
0
LINE
8
layer0
10
4.99793
20
0.48909
11
4.97044
21
0.44677
0
LINE
8
layer0
10
4.97044
20
0.44677
11
4.95
21
0.40323
0
LINE
8
layer0
10
4.95
20
0.40323
11
4.93667
21
0.35898
0
LINE
8
layer0
10
4.93667
20
0.35898
11
4.93045
21
0.31454
0
LINE
8
layer0
10
4.93045
20
0.31454
11
4.93001
21
0.29241
0
LINE
8
layer0
10
4.93001
20
0.29241
11
4.9444
21
0.14774
0
LINE
8
layer0
10
4.9444
20
0.14774
11
4.95
21
0
0
LINE
8
layer0
10
4.95
20
0
11
4.9444
21
-0.14774
0
LINE
8
layer0
10
4.9444
20
-0.14774
11
4.93001
21
-0.29241
0
LINE
8
layer0
10
4.93001
20
-0.29241
11
4.93045
21
-0.31454
0
LINE
8
layer0
10
4.93045
20
-0.31454
11
4.93667
21
-0.35898
0
LINE
8
layer0
10
4.93667
20
-0.35898
11
4.95
21
-0.40323
0
LINE
8
layer0
10
4.95
20
-0.40323
11
4.97044
21
-0.44677
0
LINE
8
layer0
10
4.97044
20
-0.44677
11
4.99793
21
-0.48909
0
LINE
8
layer0
10
4.99793
20
-0.48909
11
5.03241
21
-0.52967
0
LINE
8
layer0
10
5.03241
20
-0.52967
11
5.07377
21
-0.568
0
LINE
8
layer0
10
5.07377
20
-0.568
11
5.12186
21
-0.60358
0
LINE
8
layer0
10
5.12186
20
-0.60358
11
5.17652
21
-0.63591
0
LINE
8
layer0
10
5.17652
20
-0.63591
11
5.23756
21
-0.66451
0
LINE
8
layer0
10
5.23756
20
-0.66451
11
5.30476
21
-0.6889
0
LINE
8
layer0
10
5.30476
20
-0.6889
11
5.37784
21
-0.70862
0
LINE
8
layer0
10
5.37784
20
-0.70862
11
5.45654
21
-0.72323
0
LINE
8
layer0
10
5.45654
20
-0.72323
11
5.54055
21
-0.73228
0
LINE
8
layer0
10
5.54055
20
-0.73228
11
5.62952
21
-0.73537
0
LINE
8
layer0
10
5.62952
20
-0.73537
11
5.72311
21
-0.7321
0
LINE
8
layer0
10
5.72311
20
-0.7321
11
5.81216
21
-0.72325
0
LINE
8
layer0
10
5.81216
20
-0.72325
11
5.87853
21
-0.76331
0
LINE
8
layer0
10
5.87853
20
-0.76331
11
5.95226
21
-0.81721
0
LINE
8
layer0
10
5.95226
20
-0.81721
11
6.03427
21
-0.88835
0
LINE
8
layer0
10
6.03427
20
-0.88835
11
6.12508
21
-0.98141
0
LINE
8
layer0
10
6.12508
20
-0.98141
11
6.22017
21
-1.09675
0
LINE
8
layer0
10
6.22017
20
-1.09675
11
6.26858
21
-1.16352
0
LINE
8
layer0
10
6.26858
20
-1.16352
11
6.31634
21
-1.23555
0
LINE
8
layer0
10
6.31634
20
-1.23555
11
6.36463
21
-1.31546
0
LINE
8
layer0
10
6.36463
20
-1.31546
11
6.41084
21
-1.39973
0
LINE
8
layer0
10
6.41084
20
-1.39973
11
6.45602
21
-1.49092
0
LINE
8
layer0
10
6.45602
20
-1.49092
11
6.49966
21
-1.58917
0
LINE
8
layer0
10
6.49966
20
-1.58917
11
6.54076
21
-1.69325
0
LINE
8
layer0
10
6.54076
20
-1.69325
11
6.5754731
21
-1.7931846
0
ARC
8
layer0
10
2.9999478
20
0.0000301
40
4
50
326.634903
51
333.3650986
0
LINE
8
layer0
10
6.34068
20
-2.1998582
11
6.2367775
21
-2.2197631
0
LINE
8
layer0
10
6.2367775
20
-2.2197631
11
6.1260916
21
-2.2362095
0
LINE
8
layer0
10
6.1260916
20
-2.2362095
11
6.0191846
21
-2.2475411
0
LINE
8
layer0
10
6.0191846
20
-2.2475411
11
5.9176217
21
-2.2540091
0
LINE
8
layer0
10
5.9176217
20
-2.2540091
11
5.8215368
21
-2.2561251
0
LINE
8
layer0
10
5.8215368
20
-2.2561251
11
5.7281877
21
-2.2542597
0
LINE
8
layer0
10
5.7281877
20
-2.2542597
11
5.6419279
21
-2.2489133
0
LINE
8
layer0
10
5.6419279
20
-2.2489133
11
5.5598984
21
-2.240374
0
LINE
8
layer0
10
5.5598984
20
-2.240374
11
5.412466
21
-2.2156937
0
LINE
8
layer0
10
5.412466
20
-2.2156937
11
5.2864687
21
-2.1835799
0
LINE
8
layer0
10
5.2864687
20
-2.1835799
11
5.1838546
21
-2.1481272
0
LINE
8
layer0
10
5.1838546
20
-2.1481272
11
5.1003109
21
-2.1112251
0
LINE
8
layer0
10
5.1003109
20
-2.1112251
11
5.0324329
21
-2.073777
0
LINE
8
layer0
10
5.0324329
20
-2.073777
11
4.9955722
21
-1.9922324
0
LINE
8
layer0
10
4.9955722
20
-1.9922324
11
4.9516091
21
-1.9095461
0
LINE
8
layer0
10
4.9516091
20
-1.9095461
11
4.9044481
21
-1.8340408
0
LINE
8
layer0
10
4.9044481
20
-1.8340408
11
4.8546056
21
-1.765811
0
LINE
8
layer0
10
4.8546056
20
-1.765811
11
4.8026029
21
-1.7049598
0
LINE
8
layer0
10
4.8026029
20
-1.7049598
11
4.7489849
21
-1.6515307
0
LINE
8
layer0
10
4.7489849
20
-1.6515307
11
4.6942625
21
-1.6055288
0
LINE
8
layer0
10
4.6942625
20
-1.6055288
11
4.6389742
21
-1.5669666
0
LINE
8
layer0
10
4.6389742
20
-1.5669666
11
4.5836456
21
-1.5357947
0
LINE
8
layer0
10
4.5836456
20
-1.5357947
11
4.5287874
21
-1.5119375
0
LINE
8
layer0
10
4.5287874
20
-1.5119375
11
4.4749127
21
-1.4952837
0
LINE
8
layer0
10
4.4749127
20
-1.4952837
11
4.4225294
21
-1.4857131
0
LINE
8
layer0
10
4.4225294
20
-1.4857131
11
4.3721342
21
-1.4830661
0
LINE
8
layer0
10
4.3721342
20
-1.4830661
11
4.3242074
21
-1.4871345
0
LINE
8
layer0
10
4.3242074
20
-1.4871345
11
4.2792208
21
-1.4977154
0
LINE
8
layer0
10
4.2792208
20
-1.4977154
11
4.2376246
21
-1.5145487
0
LINE
8
layer0
10
4.2376246
20
-1.5145487
11
4.2182395
21
-1.5252327
0
LINE
8
layer0
10
4.2182395
20
-1.5252327
11
4.1001466
21
-1.6100298
0
LINE
8
layer0
10
4.1001466
20
-1.6100298
11
3.975
21
-1.6887495
0
LINE
8
layer0
10
3.975
20
-1.6887495
11
3.8442534
21
-1.7577698
0
LINE
8
layer0
10
3.8442534
20
-1.7577698
11
3.7117705
21
-1.8176427
0
LINE
8
layer0
10
3.7117705
20
-1.8176427
11
3.6928254
21
-1.8290887
0
LINE
8
layer0
10
3.6928254
20
-1.8290887
11
3.6574492
21
-1.8566954
0
LINE
8
layer0
10
3.6574492
20
-1.8566954
11
3.6257926
21
-1.8903645
0
LINE
8
layer0
10
3.6257926
20
-1.8903645
11
3.5983058
21
-1.9298361
0
LINE
8
layer0
10
3.5983058
20
-1.9298361
11
3.5754006
21
-1.9748031
0
LINE
8
layer0
10
3.5754006
20
-1.9748031
11
3.5574973
21
-2.0249537
0
LINE
8
layer0
10
3.5574973
20
-2.0249537
11
3.5449826
21
-2.0799375
0
LINE
8
layer0
10
3.5449826
20
-2.0799375
11
3.5382144
21
-2.1393747
0
LINE
8
layer0
10
3.5382144
20
-2.1393747
11
3.5375458
21
-2.2028766
0
LINE
8
layer0
10
3.5375458
20
-2.2028766
11
3.5432975
21
-2.2700388
0
LINE
8
layer0
10
3.5432975
20
-2.2700388
11
3.5557751
21
-2.3404307
0
LINE
8
layer0
10
3.5557751
20
-2.3404307
11
3.5752371
21
-2.4135798
0
LINE
8
layer0
10
3.5752371
20
-2.4135798
11
3.6019344
21
-2.489041
0
LINE
8
layer0
10
3.6019344
20
-2.489041
11
3.6361019
21
-2.5663208
0
LINE
8
layer0
10
3.6361019
20
-2.5663208
11
3.6779109
21
-2.6449161
0
LINE
8
layer0
10
3.6779109
20
-2.6449161
11
3.7275378
21
-2.7243324
0
LINE
8
layer0
10
3.7275378
20
-2.7243324
11
3.7797271
21
-2.797027
0
LINE
8
layer0
10
3.7797271
20
-2.797027
11
3.7782191
21
-2.8745351
0
LINE
8
layer0
10
3.7782191
20
-2.8745351
11
3.7684054
21
-2.9653372
0
LINE
8
layer0
10
3.7684054
20
-2.9653372
11
3.7478013
21
-3.0719299
0
LINE
8
layer0
10
3.7478013
20
-3.0719299
11
3.712614
21
-3.1971037
0
LINE
8
layer0
10
3.712614
20
-3.1971037
11
3.6602716
21
-3.337124
0
LINE
8
layer0
10
3.6602716
20
-3.337124
11
3.6266521
21
-3.4124333
0
LINE
8
layer0
10
3.6266521
20
-3.4124333
11
3.5881523
21
-3.4898097
0
LINE
8
layer0
10
3.5881523
20
-3.4898097
11
3.5430932
21
-3.5715851
0
LINE
8
layer0
10
3.5430932
20
-3.5715851
11
3.4932183
21
-3.6537391
0
LINE
8
layer0
10
3.4932183
20
-3.6537391
11
3.4368354
21
-3.7384611
0
LINE
8
layer0
10
3.4368354
20
-3.7384611
11
3.3735684
21
-3.8253795
0
LINE
8
layer0
10
3.3735684
20
-3.8253795
11
3.3039825
21
-3.9130131
0
LINE
8
layer0
10
3.3039825
20
-3.9130131
11
3.2347931
21
-3.9930428
0
ARC
8
layer0
10
3
20
0.0000603
40
4
50
266.6349023
51
273.3650977
0
LINE
8
layer0
10
2.7652069
20
-3.9930428
11
2.6960175
21
-3.9130131
0
LINE
8
layer1
10
2.6960175
20
-3.9130131
11
2.6264316
21
-3.8253795
0
LINE
8
layer1
10
2.6264316
20
-3.8253795
11
2.5631646
21
-3.7384611
0
LINE
8
layer1
10
2.5631646
20
-3.7384611
11
2.5067817
21
-3.6537391
0
LINE
8
layer1
10
2.5067817
20
-3.6537391
11
2.4569068
21
-3.5715851
0
LINE
8
layer1
10
2.4569068
20
-3.5715851
11
2.4118477
21
-3.4898097
0
LINE
8
layer1
10
2.4118477
20
-3.4898097
11
2.3733479
21
-3.4124333
0
LINE
8
layer1
10
2.3733479
20
-3.4124333
11
2.3397284
21
-3.337124
0
LINE
8
layer1
10
2.3397284
20
-3.337124
11
2.287386
21
-3.1971037
0
LINE
8
layer1
10
2.287386
20
-3.1971037
11
2.2521987
21
-3.0719299
0
LINE
8
layer1
10
2.2521987
20
-3.0719299
11
2.2315946
21
-2.9653372
0
LINE
8
layer1
10
2.2315946
20
-2.9653372
11
2.2217809
21
-2.8745351
0
LINE
8
layer1
10
2.2217809
20
-2.8745351
11
2.2202729
21
-2.797027
0
LINE
8
layer1
10
2.2202729
20
-2.797027
11
2.2724622
21
-2.7243324
0
LINE
8
layer1
10
2.2724622
20
-2.7243324
11
2.3220891
21
-2.6449161
0
LINE
8
layer1
10
2.3220891
20
-2.6449161
11
2.3638981
21
-2.5663208
0
LINE
8
layer1
10
2.3638981
20
-2.5663208
11
2.3980656
21
-2.489041
0
LINE
8
layer1
10
2.3980656
20
-2.489041
11
2.4247629
21
-2.4135798
0
LINE
8
layer1
10
2.4247629
20
-2.4135798
11
2.4442249
21
-2.3404307
0
LINE
8
layer1
10
2.4442249
20
-2.3404307
11
2.4567025
21
-2.2700388
0
LINE
8
layer1
10
2.4567025
20
-2.2700388
11
2.4624542
21
-2.2028766
0
LINE
8
layer1
10
2.4624542
20
-2.2028766
11
2.4617856
21
-2.1393747
0
LINE
8
layer1
10
2.4617856
20
-2.1393747
11
2.4550174
21
-2.0799375
0
LINE
8
layer1
10
2.4550174
20
-2.0799375
11
2.4425027
21
-2.0249537
0
LINE
8
layer1
10
2.4425027
20
-2.0249537
11
2.4245994
21
-1.9748031
0
LINE
8
layer1
10
2.4245994
20
-1.9748031
11
2.4016942
21
-1.9298361
0
LINE
8
layer1
10
2.4016942
20
-1.9298361
11
2.3742074
21
-1.8903645
0
LINE
8
layer1
10
2.3742074
20
-1.8903645
11
2.3425508
21
-1.8566954
0
LINE
8
layer1
10
2.3425508
20
-1.8566954
11
2.3071746
21
-1.8290887
0
LINE
8
layer1
10
2.3071746
20
-1.8290887
11
2.2882295
21
-1.8176427
0
LINE
8
layer1
10
2.2882295
20
-1.8176427
11
2.1557466
21
-1.7577698
0
LINE
8
layer1
10
2.1557466
20
-1.7577698
11
2.025
21
-1.6887495
0
LINE
8
layer1
10
2.025
20
-1.6887495
11
1.8998534
21
-1.6100298
0
LINE
8
layer1
10
1.8998534
20
-1.6100298
11
1.7817605
21
-1.5252327
0
LINE
8
layer1
10
1.7817605
20
-1.5252327
11
1.7623754
21
-1.5145487
0
LINE
8
layer1
10
1.7623754
20
-1.5145487
11
1.7207792
21
-1.4977154
0
LINE
8
layer1
10
1.7207792
20
-1.4977154
11
1.6757926
21
-1.4871345
0
LINE
8
layer1
10
1.6757926
20
-1.4871345
11
1.6278658
21
-1.4830661
0
LINE
8
layer1
10
1.6278658
20
-1.4830661
11
1.5774706
21
-1.4857131
0
LINE
8
layer1
10
1.5774706
20
-1.4857131
11
1.5250873
21
-1.4952837
0
LINE
8
layer1
10
1.5250873
20
-1.4952837
11
1.4712126
21
-1.5119375
0
LINE
8
layer1
10
1.4712126
20
-1.5119375
11
1.4163544
21
-1.5357947
0
LINE
8
layer1
10
1.4163544
20
-1.5357947
11
1.3610258
21
-1.5669666
0
LINE
8
layer1
10
1.3610258
20
-1.5669666
11
1.3057375
21
-1.6055288
0
LINE
8
layer1
10
1.3057375
20
-1.6055288
11
1.2510151
21
-1.6515307
0
LINE
8
layer1
10
1.2510151
20
-1.6515307
11
1.1973971
21
-1.7049598
0
LINE
8
layer1
10
1.1973971
20
-1.7049598
11
1.1453944
21
-1.765811
0
LINE
8
layer1
10
1.1453944
20
-1.765811
11
1.0955519
21
-1.8340408
0
LINE
8
layer1
10
1.0955519
20
-1.8340408
11
1.0483909
21
-1.9095461
0
LINE
8
layer1
10
1.0483909
20
-1.9095461
11
1.0044278
21
-1.9922324
0
LINE
8
layer1
10
1.0044278
20
-1.9922324
11
0.9675671
21
-2.073777
0
LINE
8
layer1
10
0.9675671
20
-2.073777
11
0.8996891
21
-2.1112251
0
LINE
8
layer1
10
0.8996891
20
-2.1112251
11
0.8161454
21
-2.1481272
0
LINE
8
layer1
10
0.8161454
20
-2.1481272
11
0.7135313
21
-2.1835799
0
LINE
8
layer1
10
0.7135313
20
-2.1835799
11
0.587534
21
-2.2156937
0
LINE
8
layer1
10
0.587534
20
-2.2156937
11
0.4401016
21
-2.240374
0
LINE
8
layer1
10
0.4401016
20
-2.240374
11
0.3580721
21
-2.2489133
0
LINE
8
layer1
10
0.3580721
20
-2.2489133
11
0.2718123
21
-2.2542597
0
LINE
8
layer1
10
0.2718123
20
-2.2542597
11
0.1784632
21
-2.2561251
0
LINE
8
layer1
10
0.1784632
20
-2.2561251
11
0.0823783
21
-2.2540091
0
LINE
8
layer1
10
0.0823783
20
-2.2540091
11
-0.0191846
21
-2.2475411
0
LINE
8
layer1
10
-0.0191846
20
-2.2475411
11
-0.1260916
21
-2.2362095
0
LINE
8
layer1
10
-0.1260916
20
-2.2362095
11
-0.2367775
21
-2.2197631
0
LINE
8
layer1
10
-0.2367775
20
-2.2197631
11
-0.34068
21
-2.1998582
0
ARC
8
layer1
10
3.0000522
20
0.0000301
40
4
50
206.6349014
51
213.365097
0
LINE
8
layer1
10
-0.5754731
20
-1.7931846
11
-0.54076
21
-1.69325
0
LINE
8
layer1
10
-0.54076
20
-1.69325
11
-0.49966
21
-1.58917
0
LINE
8
layer1
10
-0.49966
20
-1.58917
11
-0.45602
21
-1.49092
0
LINE
8
layer1
10
-0.45602
20
-1.49092
11
-0.41084
21
-1.39973
0
LINE
8
layer1
10
-0.41084
20
-1.39973
11
-0.36463
21
-1.31546
0
LINE
8
layer1
10
-0.36463
20
-1.31546
11
-0.31634
21
-1.23555
0
LINE
8
layer1
10
-0.31634
20
-1.23555
11
-0.26858
21
-1.16352
0
LINE
8
layer1
10
-0.26858
20
-1.16352
11
-0.22017
21
-1.09675
0
LINE
8
layer1
10
-0.22017
20
-1.09675
11
-0.12508
21
-0.98141
0
LINE
8
layer1
10
-0.12508
20
-0.98141
11
-0.03427
21
-0.88835
0
LINE
8
layer1
10
-0.03427
20
-0.88835
11
0.04774
21
-0.81721
0
LINE
8
layer1
10
0.04774
20
-0.81721
11
0.12147
21
-0.76331
0
LINE
8
layer1
10
0.12147
20
-0.76331
11
0.18784
21
-0.72325
0
LINE
8
layer1
10
0.18784
20
-0.72325
11
0.27689
21
-0.7321
0
LINE
8
layer1
10
0.27689
20
-0.7321
11
0.37048
21
-0.73537
0
LINE
8
layer1
10
0.37048
20
-0.73537
11
0.45945
21
-0.73228
0
LINE
8
layer1
10
0.45945
20
-0.73228
11
0.54346
21
-0.72323
0
LINE
8
layer1
10
0.54346
20
-0.72323
11
0.62216
21
-0.70862
0
LINE
8
layer1
10
0.62216
20
-0.70862
11
0.69524
21
-0.6889
0
LINE
8
layer1
10
0.69524
20
-0.6889
11
0.76244
21
-0.66451
0
LINE
8
layer1
10
0.76244
20
-0.66451
11
0.82348
21
-0.63591
0
LINE
8
layer1
10
0.82348
20
-0.63591
11
0.87814
21
-0.60358
0
LINE
8
layer1
10
0.87814
20
-0.60358
11
0.92623
21
-0.568
0
LINE
8
layer1
10
0.92623
20
-0.568
11
0.96759
21
-0.52967
0
LINE
8
layer1
10
0.96759
20
-0.52967
11
1.00207
21
-0.48909
0
LINE
8
layer1
10
1.00207
20
-0.48909
11
1.02956
21
-0.44677
0
LINE
8
layer1
10
1.02956
20
-0.44677
11
1.05
21
-0.40323
0
LINE
8
layer1
10
1.05
20
-0.40323
11
1.06333
21
-0.35898
0
LINE
8
layer1
10
1.06333
20
-0.35898
11
1.06955
21
-0.31454
0
LINE
8
layer1
10
1.06955
20
-0.31454
11
1.06999
21
-0.29241
0
LINE
8
layer1
10
1.06999
20
-0.29241
11
1.0556
21
-0.14774
0
LINE
8
layer1
10
1.0556
20
-0.14774
11
1.05
21
0
0
LINE
8
layer1
10
1.05
20
0
11
1.0556
21
0.14774
0
LINE
8
layer1
10
1.0556
20
0.14774
11
1.06999
21
0.29241
0
LINE
8
layer1
10
1.06999
20
0.29241
11
1.06955
21
0.31454
0
LINE
8
layer1
10
1.06955
20
0.31454
11
1.06333
21
0.35898
0
LINE
8
layer1
10
1.06333
20
0.35898
11
1.05
21
0.40323
0
LINE
8
layer1
10
1.05
20
0.40323
11
1.02956
21
0.44677
0
LINE
8
layer1
10
1.02956
20
0.44677
11
1.00207
21
0.48909
0
LINE
8
layer1
10
1.00207
20
0.48909
11
0.96759
21
0.52967
0
LINE
8
layer1
10
0.96759
20
0.52967
11
0.92623
21
0.568
0
LINE
8
layer1
10
0.92623
20
0.568
11
0.87814
21
0.60358
0
LINE
8
layer1
10
0.87814
20
0.60358
11
0.82348
21
0.63591
0
LINE
8
layer1
10
0.82348
20
0.63591
11
0.76244
21
0.66451
0
LINE
8
layer1
10
0.76244
20
0.66451
11
0.69524
21
0.6889
0
LINE
8
layer1
10
0.69524
20
0.6889
11
0.62216
21
0.70862
0
LINE
8
layer1
10
0.62216
20
0.70862
11
0.54346
21
0.72323
0
LINE
8
layer1
10
0.54346
20
0.72323
11
0.45945
21
0.73228
0
LINE
8
layer1
10
0.45945
20
0.73228
11
0.37048
21
0.73537
0
LINE
8
layer1
10
0.37048
20
0.73537
11
0.27689
21
0.7321
0
LINE
8
layer1
10
0.27689
20
0.7321
11
0.18784
21
0.72325
0
LINE
8
layer1
10
0.18784
20
0.72325
11
0.12147
21
0.76331
0
LINE
8
layer1
10
0.12147
20
0.76331
11
0.04774
21
0.81721
0
LINE
8
layer1
10
0.04774
20
0.81721
11
-0.03427
21
0.88835
0
LINE
8
layer1
10
-0.03427
20
0.88835
11
-0.12508
21
0.98141
0
LINE
8
layer1
10
-0.12508
20
0.98141
11
-0.22017
21
1.09675
0
LINE
8
layer1
10
-0.22017
20
1.09675
11
-0.26858
21
1.16352
0
LINE
8
layer1
10
-0.26858
20
1.16352
11
-0.31634
21
1.23555
0
LINE
8
layer1
10
-0.31634
20
1.23555
11
-0.36463
21
1.31546
0
LINE
8
layer1
10
-0.36463
20
1.31546
11
-0.41084
21
1.39973
0
LINE
8
layer1
10
-0.41084
20
1.39973
11
-0.45602
21
1.49092
0
LINE
8
layer1
10
-0.45602
20
1.49092
11
-0.49966
21
1.58917
0
LINE
8
layer1
10
-0.49966
20
1.58917
11
-0.54076
21
1.69325
0
LINE
8
layer1
10
-0.54076
20
1.69325
11
-0.5754731
21
1.7931846
0
ARC
8
layer1
10
3.0000522
20
-0.0000301
40
4
50
146.634903
51
153.3650986
0
LINE
8
layer1
10
-0.34068
20
2.1998582
11
-0.2367775
21
2.2197631
0
LINE
8
layer1
10
-0.2367775
20
2.2197631
11
-0.1260916
21
2.2362095
0
LINE
8
layer1
10
-0.1260916
20
2.2362095
11
-0.0191846
21
2.2475411
0
LINE
8
layer1
10
-0.0191846
20
2.2475411
11
0.0823783
21
2.2540091
0
LINE
8
layer1
10
0.0823783
20
2.2540091
11
0.1784632
21
2.2561251
0
LINE
8
layer1
10
0.1784632
20
2.2561251
11
0.2718123
21
2.2542597
0
LINE
8
layer1
10
0.2718123
20
2.2542597
11
0.3580721
21
2.2489133
0
LINE
8
layer1
10
0.3580721
20
2.2489133
11
0.4401016
21
2.240374
0
LINE
8
layer1
10
0.4401016
20
2.240374
11
0.587534
21
2.2156937
0
LINE
8
layer1
10
0.587534
20
2.2156937
11
0.7135313
21
2.1835799
0
LINE
8
layer1
10
0.7135313
20
2.1835799
11
0.8161454
21
2.1481272
0
LINE
8
layer1
10
0.8161454
20
2.1481272
11
0.8996891
21
2.1112251
0
LINE
8
layer1
10
0.8996891
20
2.1112251
11
0.9675671
21
2.073777
0
LINE
8
layer1
10
0.9675671
20
2.073777
11
1.0044278
21
1.9922324
0
LINE
8
layer1
10
1.0044278
20
1.9922324
11
1.0483909
21
1.9095461
0
LINE
8
layer1
10
1.0483909
20
1.9095461
11
1.0955519
21
1.8340408
0
LINE
8
layer1
10
1.0955519
20
1.8340408
11
1.1453944
21
1.765811
0
LINE
8
layer1
10
1.1453944
20
1.765811
11
1.1973971
21
1.7049598
0
LINE
8
layer1
10
1.1973971
20
1.7049598
11
1.2510151
21
1.6515307
0
LINE
8
layer1
10
1.2510151
20
1.6515307
11
1.3057375
21
1.6055288
0
LINE
8
layer1
10
1.3057375
20
1.6055288
11
1.3610258
21
1.5669666
0
LINE
8
layer1
10
1.3610258
20
1.5669666
11
1.4163544
21
1.5357947
0
LINE
8
layer1
10
1.4163544
20
1.5357947
11
1.4712126
21
1.5119375
0
LINE
8
layer1
10
1.4712126
20
1.5119375
11
1.5250873
21
1.4952837
0
LINE
8
layer1
10
1.5250873
20
1.4952837
11
1.5774706
21
1.4857131
0
LINE
8
layer1
10
1.5774706
20
1.4857131
11
1.6278658
21
1.4830661
0
LINE
8
layer1
10
1.6278658
20
1.4830661
11
1.6757926
21
1.4871345
0
LINE
8
layer1
10
1.6757926
20
1.4871345
11
1.7207792
21
1.4977154
0
LINE
8
layer1
10
1.7207792
20
1.4977154
11
1.7623754
21
1.5145487
0
LINE
8
layer1
10
1.7623754
20
1.5145487
11
1.7817605
21
1.5252327
0
LINE
8
layer1
10
1.7817605
20
1.5252327
11
1.8998534
21
1.6100298
0
LINE
8
layer1
10
1.8998534
20
1.6100298
11
2.025
21
1.6887495
0
LINE
8
layer1
10
2.025
20
1.6887495
11
2.1557466
21
1.7577698
0
LINE
8
layer1
10
2.1557466
20
1.7577698
11
2.2882295
21
1.8176427
0
LINE
8
layer1
10
2.2882295
20
1.8176427
11
2.3071746
21
1.8290887
0
LINE
8
layer1
10
2.3071746
20
1.8290887
11
2.3425508
21
1.8566954
0
LINE
8
layer1
10
2.3425508
20
1.8566954
11
2.3742074
21
1.8903645
0
LINE
8
layer1
10
2.3742074
20
1.8903645
11
2.4016942
21
1.9298361
0
LINE
8
layer1
10
2.4016942
20
1.9298361
11
2.4245994
21
1.9748031
0
LINE
8
layer1
10
2.4245994
20
1.9748031
11
2.4425027
21
2.0249537
0
LINE
8
layer1
10
2.4425027
20
2.0249537
11
2.4550174
21
2.0799375
0
LINE
8
layer1
10
2.4550174
20
2.0799375
11
2.4617856
21
2.1393747
0
LINE
8
layer1
10
2.4617856
20
2.1393747
11
2.4624542
21
2.2028766
0
LINE
8
layer1
10
2.4624542
20
2.2028766
11
2.4567025
21
2.2700388
0
LINE
8
layer1
10
2.4567025
20
2.2700388
11
2.4442249
21
2.3404307
0
LINE
8
layer1
10
2.4442249
20
2.3404307
11
2.4247629
21
2.4135798
0
LINE
8
layer1
10
2.4247629
20
2.4135798
11
2.3980656
21
2.489041
0
LINE
8
layer1
10
2.3980656
20
2.489041
11
2.3638981
21
2.5663208
0
LINE
8
layer1
10
2.3638981
20
2.5663208
11
2.3220891
21
2.6449161
0
LINE
8
layer1
10
2.3220891
20
2.6449161
11
2.2724622
21
2.7243324
0
LINE
8
layer1
10
2.2724622
20
2.7243324
11
2.2202729
21
2.797027
0
LINE
8
layer1
10
2.2202729
20
2.797027
11
2.2217809
21
2.8745351
0
LINE
8
layer1
10
2.2217809
20
2.8745351
11
2.2315946
21
2.9653372
0
LINE
8
layer1
10
2.2315946
20
2.9653372
11
2.2521987
21
3.0719299
0
LINE
8
layer1
10
2.2521987
20
3.0719299
11
2.287386
21
3.1971037
0
LINE
8
layer1
10
2.287386
20
3.1971037
11
2.3397284
21
3.337124
0
LINE
8
layer1
10
2.3397284
20
3.337124
11
2.3733479
21
3.4124333
0
LINE
8
layer1
10
2.3733479
20
3.4124333
11
2.4118477
21
3.4898097
0
LINE
8
layer1
10
2.4118477
20
3.4898097
11
2.4569068
21
3.5715851
0
LINE
8
layer1
10
2.4569068
20
3.5715851
11
2.5067817
21
3.6537391
0
LINE
8
layer1
10
2.5067817
20
3.6537391
11
2.5631646
21
3.7384611
0
LINE
8
layer1
10
2.5631646
20
3.7384611
11
2.6264316
21
3.8253795
0
LINE
8
layer1
10
2.6264316
20
3.8253795
11
2.6960175
21
3.9130131
0
LINE
8
layer1
10
2.6960175
20
3.9130131
11
2.7652069
21
3.9930428
0
ARC
8
layer1
10
3
20
-0.0000603
40
4
50
86.6349023
51
93.3650977
0
LINE
8
layer1
10
3.2347931
20
3.9930428
11
3.3039825
21
3.9130131
0
LINE
8
layer1
10
3.3039825
20
3.9130131
11
3.3735684
21
3.8253795
0
LINE
8
layer1
10
3.3735684
20
3.8253795
11
3.4368354
21
3.7384611
0
LINE
8
layer1
10
3.4368354
20
3.7384611
11
3.4932183
21
3.6537391
0
LINE
8
layer1
10
3.4932183
20
3.6537391
11
3.5430932
21
3.5715851
0
LINE
8
layer1
10
3.5430932
20
3.5715851
11
3.5881523
21
3.4898097
0
LINE
8
layer1
10
3.5881523
20
3.4898097
11
3.6266521
21
3.4124333
0
LINE
8
layer1
10
3.6266521
20
3.4124333
11
3.6602716
21
3.337124
0
LINE
8
layer1
10
3.6602716
20
3.337124
11
3.712614
21
3.1971037
0
LINE
8
layer1
10
3.712614
20
3.1971037
11
3.7478013
21
3.0719299
0
LINE
8
layer1
10
3.7478013
20
3.0719299
11
3.7684054
21
2.9653372
0
LINE
8
layer1
10
3.7684054
20
2.9653372
11
3.7782191
21
2.8745351
0
LINE
8
layer1
10
3.7782191
20
2.8745351
11
3.7797271
21
2.797027
0
LINE
8
layer1
10
3.7797271
20
2.797027
11
3.7275378
21
2.7243324
0
LINE
8
layer1
10
3.7275378
20
2.7243324
11
3.6779109
21
2.6449161
0
LINE
8
layer1
10
3.6779109
20
2.6449161
11
3.6361019
21
2.5663208
0
LINE
8
layer1
10
3.6361019
20
2.5663208
11
3.6019344
21
2.489041
0
LINE
8
layer1
10
3.6019344
20
2.489041
11
3.5752371
21
2.4135798
0
LINE
8
layer1
10
3.5752371
20
2.4135798
11
3.5557751
21
2.3404307
0
LINE
8
layer1
10
3.5557751
20
2.3404307
11
3.5432975
21
2.2700388
0
LINE
8
layer1
10
3.5432975
20
2.2700388
11
3.5375458
21
2.2028766
0
LINE
8
layer1
10
3.5375458
20
2.2028766
11
3.5382144
21
2.1393747
0
LINE
8
layer1
10
3.5382144
20
2.1393747
11
3.5449826
21
2.0799375
0
LINE
8
layer1
10
3.5449826
20
2.0799375
11
3.5574973
21
2.0249537
0
LINE
8
layer1
10
3.5574973
20
2.0249537
11
3.5754006
21
1.9748031
0
LINE
8
layer1
10
3.5754006
20
1.9748031
11
3.5983058
21
1.9298361
0
LINE
8
layer1
10
3.5983058
20
1.9298361
11
3.6257926
21
1.8903645
0
LINE
8
layer1
10
3.6257926
20
1.8903645
11
3.6574492
21
1.8566954
0
LINE
8
layer1
10
3.6574492
20
1.8566954
11
3.6928254
21
1.8290887
0
LINE
8
layer1
10
3.6928254
20
1.8290887
11
3.7117705
21
1.8176427
0
LINE
8
layer1
10
3.7117705
20
1.8176427
11
3.8442534
21
1.7577698
0
LINE
8
layer1
10
3.8442534
20
1.7577698
11
3.975
21
1.6887495
0
LINE
8
layer1
10
3.975
20
1.6887495
11
4.1001466
21
1.6100298
0
LINE
8
layer1
10
4.1001466
20
1.6100298
11
4.2182395
21
1.5252327
0
LINE
8
layer1
10
4.2182395
20
1.5252327
11
4.2376246
21
1.5145487
0
LINE
8
layer1
10
4.2376246
20
1.5145487
11
4.2792208
21
1.4977154
0
LINE
8
layer1
10
4.2792208
20
1.4977154
11
4.3242074
21
1.4871345
0
LINE
8
layer1
10
4.3242074
20
1.4871345
11
4.3721342
21
1.4830661
0
LINE
8
layer1
10
4.3721342
20
1.4830661
11
4.4225294
21
1.4857131
0
LINE
8
layer1
10
4.4225294
20
1.4857131
11
4.4749127
21
1.4952837
0
LINE
8
layer1
10
4.4749127
20
1.4952837
11
4.5287874
21
1.5119375
0
LINE
8
layer1
10
4.5287874
20
1.5119375
11
4.5836456
21
1.5357947
0
LINE
8
layer1
10
4.5836456
20
1.5357947
11
4.6389742
21
1.5669666
0
LINE
8
layer1
10
4.6389742
20
1.5669666
11
4.6942625
21
1.6055288
0
LINE
8
layer1
10
4.6942625
20
1.6055288
11
4.7489849
21
1.6515307
0
LINE
8
layer1
10
4.7489849
20
1.6515307
11
4.8026029
21
1.7049598
0
LINE
8
layer1
10
4.8026029
20
1.7049598
11
4.8546056
21
1.765811
0
LINE
8
layer1
10
4.8546056
20
1.765811
11
4.9044481
21
1.8340408
0
LINE
8
layer1
10
4.9044481
20
1.8340408
11
4.9516091
21
1.9095461
0
LINE
8
layer1
10
4.9516091
20
1.9095461
11
4.9955722
21
1.9922324
0
LINE
8
layer1
10
4.9955722
20
1.9922324
11
5.0324329
21
2.073777
0
LINE
8
layer1
10
5.0324329
20
2.073777
11
5.1003109
21
2.1112251
0
LINE
8
layer1
10
5.1003109
20
2.1112251
11
5.1838546
21
2.1481272
0
LINE
8
layer1
10
5.1838546
20
2.1481272
11
5.2864687
21
2.1835799
0
LINE
8
layer1
10
5.2864687
20
2.1835799
11
5.412466
21
2.2156937
0
LINE
8
layer1
10
5.412466
20
2.2156937
11
5.5598984
21
2.240374
0
LINE
8
layer1
10
5.5598984
20
2.240374
11
5.6419279
21
2.2489133
0
LINE
8
layer1
10
5.6419279
20
2.2489133
11
5.7281877
21
2.2542597
0
LINE
8
layer1
10
5.7281877
20
2.2542597
11
5.8215368
21
2.2561251
0
LINE
8
layer1
10
5.8215368
20
2.2561251
11
5.9176217
21
2.2540091
0
LINE
8
layer1
10
5.9176217
20
2.2540091
11
6.0191846
21
2.2475411
0
LINE
8
layer1
10
6.0191846
20
2.2475411
11
6.1260916
21
2.2362095
0
LINE
8
layer1
10
6.1260916
20
2.2362095
11
6.2367775
21
2.2197631
0
LINE
8
layer1
10
6.2367775
20
2.2197631
11
6.34068
21
2.1998582
0
ARC
8
layer1
10
2.9999478
20
-0.0000301
40
4
50
26.6349014
51
33.365097
0
LINE
8
layer1
10
6.5754731
20
1.7931846
11
6.54076
21
1.69325
0
LINE
8
layer1
10
6.54076
20
1.69325
11
6.49966
21
1.58917
0
LINE
8
layer1
10
6.49966
20
1.58917
11
6.45602
21
1.49092
0
LINE
8
layer1
10
6.45602
20
1.49092
11
6.41084
21
1.39973
0
LINE
8
layer1
10
6.41084
20
1.39973
11
6.36463
21
1.31546
0
LINE
8
layer1
10
6.36463
20
1.31546
11
6.31634
21
1.23555
0
LINE
8
layer1
10
6.31634
20
1.23555
11
6.26858
21
1.16352
0
LINE
8
layer1
10
6.26858
20
1.16352
11
6.22017
21
1.09675
0
LINE
8
layer1
10
6.22017
20
1.09675
11
6.12508
21
0.98141
0
LINE
8
layer1
10
6.12508
20
0.98141
11
6.03427
21
0.88835
0
LINE
8
layer1
10
6.03427
20
0.88835
11
5.95226
21
0.81721
0
LINE
8
layer1
10
5.95226
20
0.81721
11
5.87853
21
0.76331
0
LINE
8
layer1
10
5.87853
20
0.76331
11
5.81216
21
0.72325
0
LINE
8
layer1
10
5.81216
20
0.72325
11
5.72311
21
0.7321
0
LINE
8
layer1
10
5.72311
20
0.7321
11
5.62952
21
0.73537
0
LINE
8
layer1
10
5.62952
20
0.73537
11
5.54055
21
0.73228
0
LINE
8
layer1
10
5.54055
20
0.73228
11
5.45654
21
0.72323
0
LINE
8
layer1
10
5.45654
20
0.72323
11
5.37784
21
0.70862
0
LINE
8
layer1
10
5.37784
20
0.70862
11
5.30476
21
0.6889
0
LINE
8
layer1
10
5.30476
20
0.6889
11
5.23756
21
0.66451
0
LINE
8
layer1
10
5.23756
20
0.66451
11
5.17652
21
0.63591
0
LINE
8
layer1
10
5.17652
20
0.63591
11
5.12186
21
0.60358
0
LINE
8
layer1
10
5.12186
20
0.60358
11
5.07377
21
0.568
0
LINE
8
layer1
10
5.07377
20
0.568
11
5.03241
21
0.52967
0
LINE
8
layer1
10
5.03241
20
0.52967
11
4.99793
21
0.48909
0
LINE
8
layer1
10
4.99793
20
0.48909
11
4.97044
21
0.44677
0
LINE
8
layer1
10
4.97044
20
0.44677
11
4.95
21
0.40323
0
LINE
8
layer1
10
4.95
20
0.40323
11
4.93667
21
0.35898
0
LINE
8
layer1
10
4.93667
20
0.35898
11
4.93045
21
0.31454
0
LINE
8
layer1
10
4.93045
20
0.31454
11
4.93001
21
0.29241
0
LINE
8
layer1
10
4.93001
20
0.29241
11
4.9444
21
0.14774
0
LINE
8
layer1
10
4.9444
20
0.14774
11
4.95
21
0
0
LINE
8
layer1
10
4.95
20
0
11
4.9444
21
-0.14774
0
LINE
8
layer1
10
4.9444
20
-0.14774
11
4.93001
21
-0.29241
0
LINE
8
layer1
10
4.93001
20
-0.29241
11
4.93045
21
-0.31454
0
LINE
8
layer1
10
4.93045
20
-0.31454
11
4.93667
21
-0.35898
0
LINE
8
layer1
10
4.93667
20
-0.35898
11
4.95
21
-0.40323
0
LINE
8
layer1
10
4.95
20
-0.40323
11
4.97044
21
-0.44677
0
LINE
8
layer1
10
4.97044
20
-0.44677
11
4.99793
21
-0.48909
0
LINE
8
layer1
10
4.99793
20
-0.48909
11
5.03241
21
-0.52967
0
LINE
8
layer1
10
5.03241
20
-0.52967
11
5.07377
21
-0.568
0
LINE
8
layer1
10
5.07377
20
-0.568
11
5.12186
21
-0.60358
0
LINE
8
layer1
10
5.12186
20
-0.60358
11
5.17652
21
-0.63591
0
LINE
8
layer1
10
5.17652
20
-0.63591
11
5.23756
21
-0.66451
0
LINE
8
layer1
10
5.23756
20
-0.66451
11
5.30476
21
-0.6889
0
LINE
8
layer1
10
5.30476
20
-0.6889
11
5.37784
21
-0.70862
0
LINE
8
layer1
10
5.37784
20
-0.70862
11
5.45654
21
-0.72323
0
LINE
8
layer1
10
5.45654
20
-0.72323
11
5.54055
21
-0.73228
0
LINE
8
layer1
10
5.54055
20
-0.73228
11
5.62952
21
-0.73537
0
LINE
8
layer1
10
5.62952
20
-0.73537
11
5.72311
21
-0.7321
0
LINE
8
layer1
10
5.72311
20
-0.7321
11
5.81216
21
-0.72325
0
LINE
8
layer1
10
5.81216
20
-0.72325
11
5.87853
21
-0.76331
0
LINE
8
layer1
10
5.87853
20
-0.76331
11
5.95226
21
-0.81721
0
LINE
8
layer1
10
5.95226
20
-0.81721
11
6.03427
21
-0.88835
0
LINE
8
layer1
10
6.03427
20
-0.88835
11
6.12508
21
-0.98141
0
LINE
8
layer1
10
6.12508
20
-0.98141
11
6.22017
21
-1.09675
0
LINE
8
layer1
10
6.22017
20
-1.09675
11
6.26858
21
-1.16352
0
LINE
8
layer1
10
6.26858
20
-1.16352
11
6.31634
21
-1.23555
0
LINE
8
layer1
10
6.31634
20
-1.23555
11
6.36463
21
-1.31546
0
LINE
8
layer1
10
6.36463
20
-1.31546
11
6.41084
21
-1.39973
0
LINE
8
layer1
10
6.41084
20
-1.39973
11
6.45602
21
-1.49092
0
LINE
8
layer1
10
6.45602
20
-1.49092
11
6.49966
21
-1.58917
0
LINE
8
layer1
10
6.49966
20
-1.58917
11
6.54076
21
-1.69325
0
LINE
8
layer1
10
6.54076
20
-1.69325
11
6.5754731
21
-1.7931846
0
ARC
8
layer1
10
2.9999478
20
0.0000301
40
4
50
326.634903
51
333.3650986
0
LINE
8
layer1
10
6.34068
20
-2.1998582
11
6.2367775
21
-2.2197631
0
LINE
8
layer1
10
6.2367775
20
-2.2197631
11
6.1260916
21
-2.2362095
0
LINE
8
layer1
10
6.1260916
20
-2.2362095
11
6.0191846
21
-2.2475411
0
LINE
8
layer1
10
6.0191846
20
-2.2475411
11
5.9176217
21
-2.2540091
0
LINE
8
layer1
10
5.9176217
20
-2.2540091
11
5.8215368
21
-2.2561251
0
LINE
8
layer1
10
5.8215368
20
-2.2561251
11
5.7281877
21
-2.2542597
0
LINE
8
layer1
10
5.7281877
20
-2.2542597
11
5.6419279
21
-2.2489133
0
LINE
8
layer1
10
5.6419279
20
-2.2489133
11
5.5598984
21
-2.240374
0
LINE
8
layer1
10
5.5598984
20
-2.240374
11
5.412466
21
-2.2156937
0
LINE
8
layer1
10
5.412466
20
-2.2156937
11
5.2864687
21
-2.1835799
0
LINE
8
layer1
10
5.2864687
20
-2.1835799
11
5.1838546
21
-2.1481272
0
LINE
8
layer1
10
5.1838546
20
-2.1481272
11
5.1003109
21
-2.1112251
0
LINE
8
layer1
10
5.1003109
20
-2.1112251
11
5.0324329
21
-2.073777
0
LINE
8
layer1
10
5.0324329
20
-2.073777
11
4.9955722
21
-1.9922324
0
LINE
8
layer1
10
4.9955722
20
-1.9922324
11
4.9516091
21
-1.9095461
0
LINE
8
layer1
10
4.9516091
20
-1.9095461
11
4.9044481
21
-1.8340408
0
LINE
8
layer1
10
4.9044481
20
-1.8340408
11
4.8546056
21
-1.765811
0
LINE
8
layer1
10
4.8546056
20
-1.765811
11
4.8026029
21
-1.7049598
0
LINE
8
layer1
10
4.8026029
20
-1.7049598
11
4.7489849
21
-1.6515307
0
LINE
8
layer1
10
4.7489849
20
-1.6515307
11
4.6942625
21
-1.6055288
0
LINE
8
layer1
10
4.6942625
20
-1.6055288
11
4.6389742
21
-1.5669666
0
LINE
8
layer1
10
4.6389742
20
-1.5669666
11
4.5836456
21
-1.5357947
0
LINE
8
layer1
10
4.5836456
20
-1.5357947
11
4.5287874
21
-1.5119375
0
LINE
8
layer1
10
4.5287874
20
-1.5119375
11
4.4749127
21
-1.4952837
0
LINE
8
layer1
10
4.4749127
20
-1.4952837
11
4.4225294
21
-1.4857131
0
LINE
8
layer1
10
4.4225294
20
-1.4857131
11
4.3721342
21
-1.4830661
0
LINE
8
layer1
10
4.3721342
20
-1.4830661
11
4.3242074
21
-1.4871345
0
LINE
8
layer1
10
4.3242074
20
-1.4871345
11
4.2792208
21
-1.4977154
0
LINE
8
layer1
10
4.2792208
20
-1.4977154
11
4.2376246
21
-1.5145487
0
LINE
8
layer1
10
4.2376246
20
-1.5145487
11
4.2182395
21
-1.5252327
0
LINE
8
layer1
10
4.2182395
20
-1.5252327
11
4.1001466
21
-1.6100298
0
LINE
8
layer1
10
4.1001466
20
-1.6100298
11
3.975
21
-1.6887495
0
LINE
8
layer1
10
3.975
20
-1.6887495
11
3.8442534
21
-1.7577698
0
LINE
8
layer1
10
3.8442534
20
-1.7577698
11
3.7117705
21
-1.8176427
0
LINE
8
layer1
10
3.7117705
20
-1.8176427
11
3.6928254
21
-1.8290887
0
LINE
8
layer1
10
3.6928254
20
-1.8290887
11
3.6574492
21
-1.8566954
0
LINE
8
layer1
10
3.6574492
20
-1.8566954
11
3.6257926
21
-1.8903645
0
LINE
8
layer1
10
3.6257926
20
-1.8903645
11
3.5983058
21
-1.9298361
0
LINE
8
layer1
10
3.5983058
20
-1.9298361
11
3.5754006
21
-1.9748031
0
LINE
8
layer1
10
3.5754006
20
-1.9748031
11
3.5574973
21
-2.0249537
0
LINE
8
layer1
10
3.5574973
20
-2.0249537
11
3.5449826
21
-2.0799375
0
LINE
8
layer1
10
3.5449826
20
-2.0799375
11
3.5382144
21
-2.1393747
0
LINE
8
layer1
10
3.5382144
20
-2.1393747
11
3.5375458
21
-2.2028766
0
LINE
8
layer1
10
3.5375458
20
-2.2028766
11
3.5432975
21
-2.2700388
0
LINE
8
layer1
10
3.5432975
20
-2.2700388
11
3.5557751
21
-2.3404307
0
LINE
8
layer1
10
3.5557751
20
-2.3404307
11
3.5752371
21
-2.4135798
0
LINE
8
layer1
10
3.5752371
20
-2.4135798
11
3.6019344
21
-2.489041
0
LINE
8
layer1
10
3.6019344
20
-2.489041
11
3.6361019
21
-2.5663208
0
LINE
8
layer1
10
3.6361019
20
-2.5663208
11
3.6779109
21
-2.6449161
0
LINE
8
layer1
10
3.6779109
20
-2.6449161
11
3.7275378
21
-2.7243324
0
LINE
8
layer1
10
3.7275378
20
-2.7243324
11
3.7797271
21
-2.797027
0
LINE
8
layer1
10
3.7797271
20
-2.797027
11
3.7782191
21
-2.8745351
0
LINE
8
layer1
10
3.7782191
20
-2.8745351
11
3.7684054
21
-2.9653372
0
LINE
8
layer1
10
3.7684054
20
-2.9653372
11
3.7478013
21
-3.0719299
0
LINE
8
layer1
10
3.7478013
20
-3.0719299
11
3.712614
21
-3.1971037
0
LINE
8
layer1
10
3.712614
20
-3.1971037
11
3.6602716
21
-3.337124
0
LINE
8
layer1
10
3.6602716
20
-3.337124
11
3.6266521
21
-3.4124333
0
LINE
8
layer1
10
3.6266521
20
-3.4124333
11
3.5881523
21
-3.4898097
0
LINE
8
layer1
10
3.5881523
20
-3.4898097
11
3.5430932
21
-3.5715851
0
LINE
8
layer1
10
3.5430932
20
-3.5715851
11
3.4932183
21
-3.6537391
0
LINE
8
layer1
10
3.4932183
20
-3.6537391
11
3.4368354
21
-3.7384611
0
LINE
8
layer1
10
3.4368354
20
-3.7384611
11
3.3735684
21
-3.8253795
0
LINE
8
layer1
10
3.3735684
20
-3.8253795
11
3.3039825
21
-3.9130131
0
LINE
8
layer1
10
3.3039825
20
-3.9130131
11
3.2347931
21
-3.9930428
0
ARC
8
layer1
10
3
20
0.0000603
40
4
50
266.6349023
51
273.3650977
0
LINE
8
layer1
10
2.7652069
20
-3.9930428
11
2.6960175
21
-3.9130131
0
ENDSEC
0
EOF