0
SECTION
2
HEADER
0
ENDSEC
0
SECTION
2
TABLES
0
TABLE
2
LTYPE
0
LTYPE
72
65
70
64
2
CONTINUOUS
3
______
73
0
40
0
0
ENDTAB
0
TABLE
2
LAYER
0
ENDTAB
0
ENDSEC
0
SECTION
2
ENTITIES
0
CIRCLE
8
0
10
43.5
20
0
40
2
0
CIRCLE
8
0
10
43.5
20
0
40
2
0
LINE
8
layer0
10
34.2134413
20
-4.5258856
11
34.3338731
21
-4.3538079
0
LINE
8
layer0
10
34.3338731
20
-4.3538079
11
34.4513443
21
-4.2000542
0
LINE
8
layer0
10
34.4513443
20
-4.2000542
11
34.5660145
21
-4.0623179
0
LINE
8
layer0
10
34.5660145
20
-4.0623179
11
34.6751251
21
-3.9418949
0
LINE
8
layer0
10
34.6751251
20
-3.9418949
11
34.7781161
21
-3.8373387
0
LINE
8
layer0
10
34.7781161
20
-3.8373387
11
34.8751977
21
-3.7467056
0
LINE
8
layer0
10
34.8751977
20
-3.7467056
11
34.9628449
21
-3.671523
0
LINE
8
layer0
10
34.9628449
20
-3.671523
11
35.0414144
21
-3.6095961
0
LINE
8
layer0
10
35.0414144
20
-3.6095961
11
35.1101353
21
-3.5599421
0
LINE
8
layer0
10
35.1101353
20
-3.5599421
11
35.2134682
21
-3.4943246
0
LINE
8
layer0
10
35.2134682
20
-3.4943246
11
35.3648421
21
-3.4181989
0
LINE
8
layer0
10
35.3648421
20
-3.4181989
11
35.4566585
21
-3.3622444
0
LINE
8
layer0
10
35.4566585
20
-3.3622444
11
35.5296181
21
-3.3052884
0
LINE
8
layer0
10
35.5296181
20
-3.3052884
11
35.5590561
21
-3.2769019
0
LINE
8
layer0
10
35.5590561
20
-3.2769019
11
35.5838384
21
-3.2488131
0
LINE
8
layer0
10
35.5838384
20
-3.2488131
11
35.6039669
21
-3.2212119
0
LINE
8
layer0
10
35.6039669
20
-3.2212119
11
35.6194906
21
-3.1942717
0
LINE
8
layer0
10
35.6194906
20
-3.1942717
11
35.6304521
21
-3.1681787
0
LINE
8
layer0
10
35.6304521
20
-3.1681787
11
35.6368816
21
-3.1431129
0
LINE
8
layer0
10
35.6368816
20
-3.1431129
11
35.6388503
21
-3.1192507
0
LINE
8
layer0
10
35.6388503
20
-3.1192507
11
35.6363849
21
-3.0967628
0
LINE
8
layer0
10
35.6363849
20
-3.0967628
11
35.6316735
21
-3.0809139
0
LINE
8
layer0
10
35.6316735
20
-3.0809139
11
35.5746184
21
-2.9311024
0
LINE
8
layer0
10
35.5746184
20
-2.9311024
11
35.5078443
21
-2.7437105
0
LINE
8
layer0
10
35.5078443
20
-2.7437105
11
35.4454399
21
-2.5548185
0
LINE
8
layer0
10
35.4454399
20
-2.5548185
11
35.3984483
21
-2.4015523
0
LINE
8
layer0
10
35.3984483
20
-2.4015523
11
35.3924317
21
-2.3861514
0
LINE
8
layer0
10
35.3924317
20
-2.3861514
11
35.3805648
21
-2.366891
0
LINE
8
layer0
10
35.3805648
20
-2.366891
11
35.3643549
21
-2.3492696
0
LINE
8
layer0
10
35.3643549
20
-2.3492696
11
35.3438854
21
-2.3334382
0
LINE
8
layer0
10
35.3438854
20
-2.3334382
11
35.3192085
21
-2.3195799
0
LINE
8
layer0
10
35.3192085
20
-2.3195799
11
35.2904112
21
-2.3078551
0
LINE
8
layer0
10
35.2904112
20
-2.3078551
11
35.2575739
21
-2.298437
0
LINE
8
layer0
10
35.2575739
20
-2.298437
11
35.2207647
21
-2.2914927
0
LINE
8
layer0
10
35.2207647
20
-2.2914927
11
35.1800986
21
-2.2871729
0
LINE
8
layer0
10
35.1800986
20
-2.2871729
11
35.0875402
21
-2.2870393
0
LINE
8
layer0
10
35.0875402
20
-2.2870393
11
34.9807161
21
-2.2992782
0
LINE
8
layer0
10
34.9807161
20
-2.2992782
11
34.8145035
21
-2.3321801
0
LINE
8
layer0
10
34.8145035
20
-2.3321801
11
34.6926562
21
-2.343867
0
LINE
8
layer0
10
34.6926562
20
-2.343867
11
34.6079277
21
-2.3468923
0
LINE
8
layer0
10
34.6079277
20
-2.3468923
11
34.507889
21
-2.3462817
0
LINE
8
layer0
10
34.507889
20
-2.3462817
11
34.392545
21
-2.3407861
0
LINE
8
layer0
10
34.392545
20
-2.3407861
11
34.2602659
21
-2.3288926
0
LINE
8
layer0
10
34.2602659
20
-2.3288926
11
34.1147718
21
-2.3096414
0
LINE
8
layer0
10
34.1147718
20
-2.3096414
11
33.9547028
21
-2.2816278
0
LINE
8
layer0
10
33.9547028
20
-2.2816278
11
33.7796125
21
-2.2433664
0
LINE
8
layer0
10
33.7796125
20
-2.2433664
11
33.5924738
21
-2.1941855
0
LINE
8
layer0
10
33.5924738
20
-2.1941855
11
33.3917438
21
-2.1323627
0
LINE
8
layer0
10
33.3917438
20
-2.1323627
11
33.2054201
21
-2.0667088
0
ARC
8
layer0
10
43.500016
20
0.0000026
40
10.5
50
187.5957413
51
191.3516269
0
LINE
8
layer0
10
33.0921496
20
-1.3879159
11
33.24706
21
-1.26532
0
LINE
8
layer0
10
33.24706
20
-1.26532
11
33.41684
21
-1.14167
0
LINE
8
layer0
10
33.41684
20
-1.14167
11
33.57787
21
-1.03439
0
LINE
8
layer0
10
33.57787
20
-1.03439
11
33.73105
21
-0.94135
0
LINE
8
layer0
10
33.73105
20
-0.94135
11
33.87335
21
-0.86288
0
LINE
8
layer0
10
33.87335
20
-0.86288
11
34.00471
21
-0.79743
0
LINE
8
layer0
10
34.00471
20
-0.79743
11
34.12596
21
-0.74323
0
LINE
8
layer0
10
34.12596
20
-0.74323
11
34.23327
21
-0.70058
0
LINE
8
layer0
10
34.23327
20
-0.70058
11
34.32769
21
-0.66752
0
LINE
8
layer0
10
34.32769
20
-0.66752
11
34.40881
21
-0.64287
0
LINE
8
layer0
10
34.40881
20
-0.64287
11
34.52785
21
-0.61436
0
LINE
8
layer0
10
34.52785
20
-0.61436
11
34.69574
21
-0.59151
0
LINE
8
layer0
10
34.69574
20
-0.59151
11
34.80075
21
-0.5684
0
LINE
8
layer0
10
34.80075
20
-0.5684
11
34.88825
21
-0.53822
0
LINE
8
layer0
10
34.88825
20
-0.53822
11
34.92531
21
-0.52093
0
LINE
8
layer0
10
34.92531
20
-0.52093
11
34.95787
21
-0.50241
0
LINE
8
layer0
10
34.95787
20
-0.50241
11
34.98587
21
-0.48284
0
LINE
8
layer0
10
34.98587
20
-0.48284
11
35.0093
21
-0.4624
0
LINE
8
layer0
10
35.0093
20
-0.4624
11
35.02814
21
-0.44128
0
LINE
8
layer0
10
35.02814
20
-0.44128
11
35.04236
21
-0.41966
0
LINE
8
layer0
10
35.04236
20
-0.41966
11
35.05197
21
-0.39773
0
LINE
8
layer0
10
35.05197
20
-0.39773
11
35.05694
21
-0.37566
0
LINE
8
layer0
10
35.05694
20
-0.37566
11
35.05763
21
-0.35914
0
LINE
8
layer0
10
35.05763
20
-0.35914
11
35.05231
21
-0.19892
0
LINE
8
layer0
10
35.05231
20
-0.19892
11
35.05
21
0
0
LINE
8
layer0
10
35.05
20
0
11
35.05231
21
0.19892
0
LINE
8
layer0
10
35.05231
20
0.19892
11
35.05763
21
0.35914
0
LINE
8
layer0
10
35.05763
20
0.35914
11
35.05694
21
0.37566
0
LINE
8
layer0
10
35.05694
20
0.37566
11
35.05197
21
0.39773
0
LINE
8
layer0
10
35.05197
20
0.39773
11
35.04236
21
0.41966
0
LINE
8
layer0
10
35.04236
20
0.41966
11
35.02814
21
0.44128
0
LINE
8
layer0
10
35.02814
20
0.44128
11
35.0093
21
0.4624
0
LINE
8
layer0
10
35.0093
20
0.4624
11
34.98587
21
0.48284
0
LINE
8
layer0
10
34.98587
20
0.48284
11
34.95787
21
0.50241
0
LINE
8
layer0
10
34.95787
20
0.50241
11
34.92531
21
0.52093
0
LINE
8
layer0
10
34.92531
20
0.52093
11
34.88825
21
0.53822
0
LINE
8
layer0
10
34.88825
20
0.53822
11
34.80075
21
0.5684
0
LINE
8
layer0
10
34.80075
20
0.5684
11
34.69574
21
0.59151
0
LINE
8
layer0
10
34.69574
20
0.59151
11
34.52785
21
0.61436
0
LINE
8
layer0
10
34.52785
20
0.61436
11
34.40881
21
0.64287
0
LINE
8
layer0
10
34.40881
20
0.64287
11
34.32769
21
0.66752
0
LINE
8
layer0
10
34.32769
20
0.66752
11
34.23327
21
0.70058
0
LINE
8
layer0
10
34.23327
20
0.70058
11
34.12596
21
0.74323
0
LINE
8
layer0
10
34.12596
20
0.74323
11
34.00471
21
0.79743
0
LINE
8
layer0
10
34.00471
20
0.79743
11
33.87335
21
0.86288
0
LINE
8
layer0
10
33.87335
20
0.86288
11
33.73105
21
0.94135
0
LINE
8
layer0
10
33.73105
20
0.94135
11
33.57787
21
1.03439
0
LINE
8
layer0
10
33.57787
20
1.03439
11
33.41684
21
1.14167
0
LINE
8
layer0
10
33.41684
20
1.14167
11
33.24706
21
1.26532
0
LINE
8
layer0
10
33.24706
20
1.26532
11
33.0921496
21
1.3879159
0
ARC
8
layer0
10
43.500016
20
-0.0000026
40
10.5
50
168.6483731
51
172.4042587
0
LINE
8
layer0
10
33.2054201
20
2.0667088
11
33.3917438
21
2.1323627
0
LINE
8
layer0
10
33.3917438
20
2.1323627
11
33.5924738
21
2.1941855
0
LINE
8
layer0
10
33.5924738
20
2.1941855
11
33.7796125
21
2.2433664
0
LINE
8
layer0
10
33.7796125
20
2.2433664
11
33.9547028
21
2.2816278
0
LINE
8
layer0
10
33.9547028
20
2.2816278
11
34.1147718
21
2.3096414
0
LINE
8
layer0
10
34.1147718
20
2.3096414
11
34.2602659
21
2.3288926
0
LINE
8
layer0
10
34.2602659
20
2.3288926
11
34.392545
21
2.3407861
0
LINE
8
layer0
10
34.392545
20
2.3407861
11
34.507889
21
2.3462817
0
LINE
8
layer0
10
34.507889
20
2.3462817
11
34.6079277
21
2.3468923
0
LINE
8
layer0
10
34.6079277
20
2.3468923
11
34.6926562
21
2.343867
0
LINE
8
layer0
10
34.6926562
20
2.343867
11
34.8145035
21
2.3321801
0
LINE
8
layer0
10
34.8145035
20
2.3321801
11
34.9807161
21
2.2992782
0
LINE
8
layer0
10
34.9807161
20
2.2992782
11
35.0875402
21
2.2870393
0
LINE
8
layer0
10
35.0875402
20
2.2870393
11
35.1800986
21
2.2871729
0
LINE
8
layer0
10
35.1800986
20
2.2871729
11
35.2207647
21
2.2914927
0
LINE
8
layer0
10
35.2207647
20
2.2914927
11
35.2575739
21
2.298437
0
LINE
8
layer0
10
35.2575739
20
2.298437
11
35.2904112
21
2.3078551
0
LINE
8
layer0
10
35.2904112
20
2.3078551
11
35.3192085
21
2.3195799
0
LINE
8
layer0
10
35.3192085
20
2.3195799
11
35.3438854
21
2.3334382
0
LINE
8
layer0
10
35.3438854
20
2.3334382
11
35.3643549
21
2.3492696
0
LINE
8
layer0
10
35.3643549
20
2.3492696
11
35.3805648
21
2.366891
0
LINE
8
layer0
10
35.3805648
20
2.366891
11
35.3924317
21
2.3861514
0
LINE
8
layer0
10
35.3924317
20
2.3861514
11
35.3984483
21
2.4015523
0
LINE
8
layer0
10
35.3984483
20
2.4015523
11
35.4454399
21
2.5548185
0
LINE
8
layer0
10
35.4454399
20
2.5548185
11
35.5078443
21
2.7437105
0
LINE
8
layer0
10
35.5078443
20
2.7437105
11
35.5746184
21
2.9311024
0
LINE
8
layer0
10
35.5746184
20
2.9311024
11
35.6316735
21
3.0809139
0
LINE
8
layer0
10
35.6316735
20
3.0809139
11
35.6363849
21
3.0967628
0
LINE
8
layer0
10
35.6363849
20
3.0967628
11
35.6388503
21
3.1192507
0
LINE
8
layer0
10
35.6388503
20
3.1192507
11
35.6368816
21
3.1431129
0
LINE
8
layer0
10
35.6368816
20
3.1431129
11
35.6304521
21
3.1681787
0
LINE
8
layer0
10
35.6304521
20
3.1681787
11
35.6194906
21
3.1942717
0
LINE
8
layer0
10
35.6194906
20
3.1942717
11
35.6039669
21
3.2212119
0
LINE
8
layer0
10
35.6039669
20
3.2212119
11
35.5838384
21
3.2488131
0
LINE
8
layer0
10
35.5838384
20
3.2488131
11
35.5590561
21
3.2769019
0
LINE
8
layer0
10
35.5590561
20
3.2769019
11
35.5296181
21
3.3052884
0
LINE
8
layer0
10
35.5296181
20
3.3052884
11
35.4566585
21
3.3622444
0
LINE
8
layer0
10
35.4566585
20
3.3622444
11
35.3648421
21
3.4181989
0
LINE
8
layer0
10
35.3648421
20
3.4181989
11
35.2134682
21
3.4943246
0
LINE
8
layer0
10
35.2134682
20
3.4943246
11
35.1101353
21
3.5599421
0
LINE
8
layer0
10
35.1101353
20
3.5599421
11
35.0414144
21
3.6095961
0
LINE
8
layer0
10
35.0414144
20
3.6095961
11
34.9628449
21
3.671523
0
LINE
8
layer0
10
34.9628449
20
3.671523
11
34.8751977
21
3.7467056
0
LINE
8
layer0
10
34.8751977
20
3.7467056
11
34.7781161
21
3.8373387
0
LINE
8
layer0
10
34.7781161
20
3.8373387
11
34.6751251
21
3.9418949
0
LINE
8
layer0
10
34.6751251
20
3.9418949
11
34.5660145
21
4.0623179
0
LINE
8
layer0
10
34.5660145
20
4.0623179
11
34.4513443
21
4.2000542
0
LINE
8
layer0
10
34.4513443
20
4.2000542
11
34.3338731
21
4.3538079
0
LINE
8
layer0
10
34.3338731
20
4.3538079
11
34.2134413
21
4.5258856
0
LINE
8
layer0
10
34.2134413
20
4.5258856
11
34.1067312
21
4.6921383
0
ARC
8
layer0
10
43.500014
20
-0.0000082
40
10.5
50
149.7010015
51
153.4568869
0
LINE
8
layer0
10
34.434268
20
5.2973734
11
34.6318141
21
5.2989708
0
LINE
8
layer0
10
34.6318141
20
5.2989708
11
34.8417418
21
5.292267
0
LINE
8
layer0
10
34.8417418
20
5.292267
11
35.0347098
21
5.2780193
0
LINE
8
layer0
10
35.0347098
20
5.2780193
11
35.2127367
21
5.2573559
0
LINE
8
layer0
10
35.2127367
20
5.2573559
11
35.3732286
21
5.2318772
0
LINE
8
layer0
10
35.3732286
20
5.2318772
11
35.5170904
21
5.2028435
0
LINE
8
layer0
10
35.5170904
20
5.2028435
11
35.646064
21
5.1711416
0
LINE
8
layer0
10
35.646064
20
5.1711416
11
35.7569428
21
5.1388873
0
LINE
8
layer0
10
35.7569428
20
5.1388873
11
35.8517593
21
5.1069823
0
LINE
8
layer0
10
35.8517593
20
5.1069823
11
35.9309148
21
5.0766097
0
LINE
8
layer0
10
35.9309148
20
5.0766097
11
36.0423653
21
5.0259922
0
LINE
8
layer0
10
36.0423653
20
5.0259922
11
36.1888888
21
4.9409039
0
LINE
8
layer0
10
36.1888888
20
4.9409039
11
36.2859509
21
4.8946425
0
LINE
8
layer0
10
36.2859509
20
4.8946425
11
36.3735377
21
4.8647151
0
LINE
8
layer0
10
36.3735377
20
4.8647151
11
36.4134029
21
4.8555966
0
LINE
8
layer0
10
36.4134029
20
4.8555966
11
36.4504726
21
4.8502128
0
LINE
8
layer0
10
36.4504726
20
4.8502128
11
36.4845886
21
4.8484583
0
LINE
8
layer0
10
36.4845886
20
4.8484583
11
36.5156327
21
4.8501973
0
LINE
8
layer0
10
36.5156327
20
4.8501973
11
36.5434723
21
4.8552922
0
LINE
8
layer0
10
36.5434723
20
4.8552922
11
36.5679732
21
4.8636193
0
LINE
8
layer0
10
36.5679732
20
4.8636193
11
36.5890265
21
4.8750226
0
LINE
8
layer0
10
36.5890265
20
4.8750226
11
36.6065042
21
4.8893863
0
LINE
8
layer0
10
36.6065042
20
4.8893863
11
36.6171955
21
4.9019991
0
LINE
8
layer0
10
36.6171955
20
4.9019991
11
36.7114064
21
5.0317028
0
LINE
8
layer0
10
36.7114064
20
5.0317028
11
36.8317627
21
5.1900974
0
LINE
8
layer0
10
36.8317627
20
5.1900974
11
36.9557648
21
5.3456544
0
LINE
8
layer0
10
36.9557648
20
5.3456544
11
37.0583722
21
5.4688229
0
LINE
8
layer0
10
37.0583722
20
5.4688229
11
37.0679745
21
5.4822833
0
LINE
8
layer0
10
37.0679745
20
5.4822833
11
37.0776081
21
5.5027523
0
LINE
8
layer0
10
37.0776081
20
5.5027523
11
37.0834942
21
5.5259607
0
LINE
8
layer0
10
37.0834942
20
5.5259607
11
37.0855519
21
5.551756
0
LINE
8
layer0
10
37.0855519
20
5.551756
11
37.0836566
21
5.5799945
0
LINE
8
layer0
10
37.0836566
20
5.5799945
11
37.0777216
21
5.6105155
0
LINE
8
layer0
10
37.0777216
20
5.6105155
11
37.0676458
21
5.6431569
0
LINE
8
layer0
10
37.0676458
20
5.6431569
11
37.0533266
21
5.6777706
0
LINE
8
layer0
10
37.0533266
20
5.6777706
11
37.0347008
21
5.7141775
0
LINE
8
layer0
10
37.0347008
20
5.7141775
11
36.9841879
21
5.7917374
0
LINE
8
layer0
10
36.9841879
20
5.7917374
11
36.9155147
21
5.8744729
0
LINE
8
layer0
10
36.9155147
20
5.8744729
11
36.7970607
21
5.995625
0
LINE
8
layer0
10
36.7970607
20
5.995625
11
36.7206326
21
6.0912392
0
LINE
8
layer0
10
36.7206326
20
6.0912392
11
36.6717579
21
6.1605165
0
LINE
8
layer0
10
36.6717579
20
6.1605165
11
36.6175531
21
6.2445994
0
LINE
8
layer0
10
36.6175531
20
6.2445994
11
36.5590666
21
6.3441674
0
LINE
8
layer0
10
36.5590666
20
6.3441674
11
36.4966737
21
6.4614121
0
LINE
8
layer0
10
36.4966737
20
6.4614121
11
36.4332124
21
6.5937444
0
LINE
8
layer0
10
36.4332124
20
6.5937444
11
36.369115
21
6.7430707
0
LINE
8
layer0
10
36.369115
20
6.7430707
11
36.3053808
21
6.9105774
0
LINE
8
layer0
10
36.3053808
20
6.9105774
11
36.2441982
21
7.0941431
0
LINE
8
layer0
10
36.2441982
20
7.0941431
11
36.1861653
21
7.2960014
0
LINE
8
layer0
10
36.1861653
20
7.2960014
11
36.1392192
21
7.4878947
0
ARC
8
layer0
10
43.5000108
20
-0.000012
40
10.5
50
130.7536348
51
134.5095206
0
LINE
8
layer0
10
36.6455287
20
7.9539855
11
36.8328899
21
7.8913532
0
LINE
8
layer0
10
36.8328899
20
7.8913532
11
37.0292664
21
7.8168492
0
LINE
8
layer0
10
37.0292664
20
7.8168492
11
37.2071526
21
7.7407169
0
LINE
8
layer0
10
37.2071526
20
7.7407169
11
37.3688241
21
7.6633678
0
LINE
8
layer0
10
37.3688241
20
7.6633678
11
37.5123473
21
7.5871581
0
LINE
8
layer0
10
37.5123473
20
7.5871581
11
37.638987
21
7.5129856
0
LINE
8
layer0
10
37.638987
20
7.5129856
11
37.7506788
21
7.4411238
0
LINE
8
layer0
10
37.7506788
20
7.4411238
11
37.845077
21
7.3746148
0
LINE
8
layer0
10
37.845077
20
7.3746148
11
37.9243966
21
7.3136516
0
LINE
8
layer0
10
37.9243966
20
7.3136516
11
37.9894012
21
7.259223
0
LINE
8
layer0
10
37.9894012
20
7.259223
11
38.0783775
21
7.1751601
0
LINE
8
layer0
10
38.0783775
20
7.1751601
11
38.1893339
21
7.047106
0
LINE
8
layer0
10
38.1893339
20
7.047106
11
38.2661158
21
6.9718352
0
LINE
8
layer0
10
38.2661158
20
6.9718352
11
38.3392395
21
6.91509
0
LINE
8
layer0
10
38.3392395
20
6.91509
11
38.373984
21
6.8935213
0
LINE
8
layer0
10
38.373984
20
6.8935213
11
38.4072969
21
6.8763927
0
LINE
8
layer0
10
38.4072969
20
6.8763927
11
38.4389948
21
6.8636558
0
LINE
8
layer0
10
38.4389948
20
6.8636558
11
38.4689215
21
6.8552206
0
LINE
8
layer0
10
38.4689215
20
6.8552206
11
38.496907
21
6.8509999
0
LINE
8
layer0
10
38.496907
20
6.8509999
11
38.5227841
21
6.8509204
0
LINE
8
layer0
10
38.5227841
20
6.8509204
11
38.5463993
21
6.8548698
0
LINE
8
layer0
10
38.5463993
20
6.8548698
11
38.5675939
21
6.8627803
0
LINE
8
layer0
10
38.5675939
20
6.8627803
11
38.5818013
21
6.8712382
0
LINE
8
layer0
10
38.5818013
20
6.8712382
11
38.7130224
21
6.963324
0
LINE
8
layer0
10
38.7130224
20
6.963324
11
38.8782881
21
7.0740567
0
LINE
8
layer0
10
38.8782881
20
7.0740567
11
39.0460807
21
7.1809218
0
LINE
8
layer0
10
39.0460807
20
7.1809218
11
39.1831212
21
7.2641001
0
LINE
8
layer0
10
39.1831212
20
7.2641001
11
39.1965738
21
7.2737134
0
LINE
8
layer0
10
39.1965738
20
7.2737134
11
39.2123318
21
7.2899452
0
LINE
8
layer0
10
39.2123318
20
7.2899452
11
39.2254347
21
7.309985
0
LINE
8
layer0
10
39.2254347
20
7.309985
11
39.2357566
21
7.3337145
0
LINE
8
layer0
10
39.2357566
20
7.3337145
11
39.2431331
21
7.3610382
0
LINE
8
layer0
10
39.2431331
20
7.3610382
11
39.2474297
21
7.3918327
0
LINE
8
layer0
10
39.2474297
20
7.3918327
11
39.2484985
21
7.4259771
0
LINE
8
layer0
10
39.2484985
20
7.4259771
11
39.2461942
21
7.4633647
0
LINE
8
layer0
10
39.2461942
20
7.4633647
11
39.2403989
21
7.5038469
0
LINE
8
layer0
10
39.2403989
20
7.5038469
11
39.2178067
21
7.5936058
0
LINE
8
layer0
10
39.2178067
20
7.5936058
11
39.1797186
21
7.6941566
0
LINE
8
layer0
10
39.1797186
20
7.6941566
11
39.1070207
21
7.8472063
0
LINE
8
layer0
10
39.1070207
20
7.8472063
11
39.0657796
21
7.9624561
0
LINE
8
layer0
10
39.0657796
20
7.9624561
11
39.0420473
21
8.0438493
0
LINE
8
layer0
10
39.0420473
20
8.0438493
11
39.0180812
21
8.1409767
0
LINE
8
layer0
10
39.0180812
20
8.1409767
11
38.9950933
21
8.2541403
0
LINE
8
layer0
10
38.9950933
20
8.2541403
11
38.9741503
21
8.3852914
0
LINE
8
layer0
10
38.9741503
20
8.3852914
11
38.9570957
21
8.5310593
0
LINE
8
layer0
10
38.9570957
20
8.5310593
11
38.9449575
21
8.6931071
0
LINE
8
layer0
10
38.9449575
20
8.6931071
11
38.9390659
21
8.8722323
0
LINE
8
layer0
10
38.9390659
20
8.8722323
11
38.9408021
21
9.0657179
0
LINE
8
layer0
10
38.9408021
20
9.0657179
11
38.9514568
21
9.2754821
0
LINE
8
layer0
10
38.9514568
20
9.2754821
11
38.969362
21
9.4722215
0
ARC
8
layer0
10
43.5000073
20
-0.0000144
40
10.5
50
111.8062729
51
115.5621583
0
LINE
8
layer0
10
39.5995777
20
9.7486598
11
39.7564505
21
9.6285851
0
LINE
8
layer0
10
39.7564505
20
9.6285851
11
39.9179954
21
9.4943546
0
LINE
8
layer0
10
39.9179954
20
9.4943546
11
40.0615231
21
9.3645877
0
LINE
8
layer0
10
40.0615231
20
9.3645877
11
40.1893196
21
9.238935
0
LINE
8
layer0
10
40.1893196
20
9.238935
11
40.300321
21
9.1202526
0
LINE
8
layer0
10
40.300321
20
9.1202526
11
40.3960153
21
9.0089792
0
LINE
8
layer0
10
40.3960153
20
9.0089792
11
40.4783219
21
8.9047447
0
LINE
8
layer0
10
40.4783219
20
8.9047447
11
40.5460098
21
8.8111883
0
LINE
8
layer0
10
40.5460098
20
8.8111883
11
40.6012369
21
8.7277733
0
LINE
8
layer0
10
40.6012369
20
8.7277733
11
40.6450464
21
8.6551867
0
LINE
8
layer0
10
40.6450464
20
8.6551867
11
40.7019066
21
8.5467881
0
LINE
8
layer0
10
40.7019066
20
8.5467881
11
40.765272
21
8.3896449
0
LINE
8
layer0
10
40.765272
20
8.3896449
11
40.8134533
21
8.2935213
0
LINE
8
layer0
10
40.8134533
20
8.2935213
11
40.8641897
21
8.2161075
0
LINE
8
layer0
10
40.8641897
20
8.2161075
11
40.8900484
21
8.184426
0
LINE
8
layer0
10
40.8900484
20
8.184426
11
40.9159947
21
8.1574087
0
LINE
8
layer0
10
40.9159947
20
8.1574087
11
40.9418394
21
8.1350697
0
LINE
8
layer0
10
40.9418394
20
8.1350697
11
40.9674057
21
8.1173743
0
LINE
8
layer0
10
40.9674057
20
8.1173743
11
40.9925044
21
8.1042955
0
LINE
8
layer0
10
40.9925044
20
8.1042955
11
41.0169536
21
8.095818
0
LINE
8
layer0
10
41.0169536
20
8.095818
11
41.0405717
21
8.0918856
0
LINE
8
layer0
10
41.0405717
20
8.0918856
11
41.0631864
21
8.0924855
0
LINE
8
layer0
10
41.0631864
20
8.0924855
11
41.0793703
21
8.0958721
0
LINE
8
layer0
10
41.0793703
20
8.0958721
11
41.2333816
21
8.140361
0
LINE
8
layer0
10
41.2333816
20
8.140361
11
41.4256476
21
8.1914322
0
LINE
8
layer0
10
41.4256476
20
8.1914322
11
41.6190478
21
8.2380249
0
LINE
8
layer0
10
41.6190478
20
8.2380249
11
41.7756711
21
8.2721994
0
LINE
8
layer0
10
41.7756711
20
8.2721994
11
41.7915162
21
8.2769237
0
LINE
8
layer0
10
41.7915162
20
8.2769237
11
41.8116908
21
8.2871595
0
LINE
8
layer0
10
41.8116908
20
8.2871595
11
41.8305906
21
8.3018589
0
LINE
8
layer0
10
41.8305906
20
8.3018589
11
41.8480583
21
8.3209512
0
LINE
8
layer0
10
41.8480583
20
8.3209512
11
41.8639071
21
8.3443993
0
LINE
8
layer0
10
41.8639071
20
8.3443993
11
41.8779699
21
8.3721301
0
LINE
8
layer0
10
41.8779699
20
8.3721301
11
41.8900674
21
8.4040775
0
LINE
8
layer0
10
41.8900674
20
8.4040775
11
41.9000277
21
8.4401875
0
LINE
8
layer0
10
41.9000277
20
8.4401875
11
41.907691
21
8.4803579
0
LINE
8
layer0
10
41.907691
20
8.4803579
11
41.9154675
21
8.5725892
0
LINE
8
layer0
10
41.9154675
20
8.5725892
11
41.9120919
21
8.6800591
0
LINE
8
layer0
10
41.9120919
20
8.6800591
11
41.8930281
21
8.8484211
0
LINE
8
layer0
10
41.8930281
20
8.8484211
11
41.8914431
21
8.9708173
0
LINE
8
layer0
10
41.8914431
20
8.9708173
11
41.8954251
21
9.0555062
0
LINE
8
layer0
10
41.8954251
20
9.0555062
11
41.9042947
21
9.1551527
0
LINE
8
layer0
10
41.9042947
20
9.1551527
11
41.9192966
21
9.269649
0
LINE
8
layer0
10
41.9192966
20
9.269649
11
41.942073
21
9.4004941
0
LINE
8
layer0
10
41.942073
20
9.4004941
11
41.9732732
21
9.5439016
0
LINE
8
layer0
10
41.9732732
20
9.5439016
11
42.0144095
21
9.7011105
0
LINE
8
layer0
10
42.0144095
20
9.7011105
11
42.066999
21
9.8724432
0
LINE
8
layer0
10
42.066999
20
9.8724432
11
42.1314658
21
10.0548814
0
LINE
8
layer0
10
42.1314658
20
10.0548814
11
42.2096536
21
10.2498205
0
LINE
8
layer0
10
42.2096536
20
10.2498205
11
42.2904698
21
10.4300862
0
ARC
8
layer0
10
43.5000006
20
-0.0000162
40
10.5
50
92.858895
51
96.6147807
0
LINE
8
layer0
10
42.976298
20
10.4869155
11
43.0856828
21
10.3224103
0
LINE
8
layer0
10
43.0856828
20
10.3224103
11
43.1948901
21
10.1429993
0
LINE
8
layer0
10
43.1948901
20
10.1429993
11
43.288506
21
9.9736601
0
LINE
8
layer0
10
43.288506
20
9.9736601
11
43.3685787
21
9.8133201
0
LINE
8
layer0
10
43.3685787
20
9.8133201
11
43.4350296
21
9.6650262
0
LINE
8
layer0
10
43.4350296
20
9.6650262
11
43.4894085
21
9.52871
0
LINE
8
layer0
10
43.4894085
20
9.52871
11
43.5334106
21
9.4033983
0
LINE
8
layer0
10
43.5334106
20
9.4033983
11
43.5670533
21
9.2929329
0
LINE
8
layer0
10
43.5670533
20
9.2929329
11
43.5922033
21
9.1961053
0
LINE
8
layer0
10
43.5922033
20
9.1961053
11
43.6100702
21
9.1132268
0
LINE
8
layer0
10
43.6100702
20
9.1132268
11
43.6286526
21
8.992239
0
LINE
8
layer0
10
43.6286526
20
8.992239
11
43.6375603
21
8.8230355
0
LINE
8
layer0
10
43.6375603
20
8.8230355
11
43.6519197
21
8.7164758
0
LINE
8
layer0
10
43.6519197
20
8.7164758
11
43.674771
21
8.6267824
0
LINE
8
layer0
10
43.674771
20
8.6267824
11
43.6889415
21
8.5884211
0
LINE
8
layer0
10
43.6889415
20
8.5884211
11
43.7047095
21
8.554443
0
LINE
8
layer0
10
43.7047095
20
8.554443
11
43.7219004
21
8.5249225
0
LINE
8
layer0
10
43.7219004
20
8.5249225
11
43.7403358
21
8.4998846
0
LINE
8
layer0
10
43.7403358
20
8.4998846
11
43.7598278
21
8.4793649
0
LINE
8
layer0
10
43.7598278
20
8.4793649
11
43.7801997
21
8.4634081
0
LINE
8
layer0
10
43.7801997
20
8.4634081
11
43.8012612
21
8.45202
0
LINE
8
layer0
10
43.8012612
20
8.45202
11
43.8228454
21
8.4452444
0
LINE
8
layer0
10
43.8228454
20
8.4452444
11
43.839252
21
8.4431926
0
LINE
8
layer0
10
43.839252
20
8.4431926
11
43.9993641
21
8.4352635
0
LINE
8
layer0
10
43.9993641
20
8.4352635
11
44.1977955
21
8.421139
0
LINE
8
layer0
10
44.1977955
20
8.421139
11
44.3958453
21
8.4024102
0
LINE
8
layer0
10
44.3958453
20
8.4024102
11
44.5550787
21
8.3838775
0
LINE
8
layer0
10
44.5550787
20
8.3838775
11
44.5715993
21
8.3832009
0
LINE
8
layer0
10
44.5715993
20
8.3832009
11
44.5940043
21
8.3863314
0
LINE
8
layer0
10
44.5940043
20
8.3863314
11
44.616653
21
8.3940976
0
LINE
8
layer0
10
44.616653
20
8.3940976
11
44.6393735
21
8.4064837
0
LINE
8
layer0
10
44.6393735
20
8.4064837
11
44.6619771
21
8.4235153
0
LINE
8
layer0
10
44.6619771
20
8.4235153
11
44.6842821
21
8.4451773
0
LINE
8
layer0
10
44.6842821
20
8.4451773
11
44.7060975
21
8.4714656
0
LINE
8
layer0
10
44.7060975
20
8.4714656
11
44.727243
21
8.502385
0
LINE
8
layer0
10
44.727243
20
8.502385
11
44.7475344
21
8.5378907
0
LINE
8
layer0
10
44.7475344
20
8.5378907
11
44.784837
21
8.6225996
0
LINE
8
layer0
10
44.784837
20
8.6225996
11
44.8165397
21
8.7253425
0
LINE
8
layer0
10
44.8165397
20
8.7253425
11
44.8531759
21
8.8907721
0
LINE
8
layer0
10
44.8531759
20
8.8907721
11
44.8914188
21
9.0070512
0
LINE
8
layer0
10
44.8914188
20
9.0070512
11
44.9226834
21
9.0858585
0
LINE
8
layer0
10
44.9226834
20
9.0858585
11
44.9634277
21
9.177226
0
LINE
8
layer0
10
44.9634277
20
9.177226
11
45.0147936
21
9.2806475
0
LINE
8
layer0
10
45.0147936
20
9.2806475
11
45.0788212
21
9.3970075
0
LINE
8
layer0
10
45.0788212
20
9.3970075
11
45.1548953
21
9.522514
0
LINE
8
layer0
10
45.1548953
20
9.522514
11
45.2448483
21
9.657848
0
LINE
8
layer0
10
45.2448483
20
9.657848
11
45.35022
21
9.8028216
0
LINE
8
layer0
10
45.35022
20
9.8028216
11
45.4704314
21
9.9544425
0
LINE
8
layer0
10
45.4704314
20
9.9544425
11
45.6076794
21
10.1134317
0
LINE
8
layer0
10
45.6076794
20
10.1134317
11
45.7426489
21
10.2576892
0
ARC
8
layer0
10
43.4999961
20
-0.0000156
40
10.5
50
73.911531
51
77.6674168
0
LINE
8
layer0
10
46.4097696
20
10.0887513
11
46.4598128
21
9.8976422
0
LINE
8
layer0
10
46.4598128
20
9.8976422
11
46.5048483
21
9.6924926
0
LINE
8
layer0
10
46.5048483
20
9.6924926
11
46.5384075
21
9.5019317
0
LINE
8
layer0
10
46.5384075
20
9.5019317
11
46.5620793
21
9.3242798
0
LINE
8
layer0
10
46.5620793
20
9.3242798
11
46.5767788
21
9.1624442
0
LINE
8
layer0
10
46.5767788
20
9.1624442
11
46.5839494
21
9.0158573
0
LINE
8
layer0
10
46.5839494
20
9.0158573
11
46.5848788
21
8.8830479
0
LINE
8
layer0
10
46.5848788
20
8.8830479
11
46.5808306
21
8.7676439
0
LINE
8
layer0
10
46.5808306
20
8.7676439
11
46.5731779
21
8.6678966
0
LINE
8
layer0
10
46.5731779
20
8.6678966
11
46.5631662
21
8.5837072
0
LINE
8
layer0
10
46.5631662
20
8.5837072
11
46.5414571
21
8.4632413
0
LINE
8
layer0
10
46.5414571
20
8.4632413
11
46.4949419
21
8.3003133
0
LINE
8
layer0
10
46.4949419
20
8.3003133
11
46.4739234
21
8.1948648
0
LINE
8
layer0
10
46.4739234
20
8.1948648
11
46.4664131
21
8.1026115
0
LINE
8
layer0
10
46.4664131
20
8.1026115
11
46.4673599
21
8.0617276
0
LINE
8
layer0
10
46.4673599
20
8.0617276
11
46.4712409
21
8.0244706
0
LINE
8
layer0
10
46.4712409
20
8.0244706
11
46.4779151
21
7.9909678
0
LINE
8
layer0
10
46.4779151
20
7.9909678
11
46.4872218
21
7.9613005
0
LINE
8
layer0
10
46.4872218
20
7.9613005
11
46.4989949
21
7.9355636
0
LINE
8
layer0
10
46.4989949
20
7.9355636
11
46.5130819
21
7.9138566
0
LINE
8
layer0
10
46.5130819
20
7.9138566
11
46.5293045
21
7.8962469
0
LINE
8
layer0
10
46.5293045
20
7.8962469
11
46.5475192
21
7.88283
0
LINE
8
layer0
10
46.5475192
20
7.88283
11
46.5623706
21
7.8755622
0
LINE
8
layer0
10
46.5623706
20
7.8755622
11
46.7112328
21
7.8160744
0
LINE
8
layer0
10
46.7112328
20
7.8160744
11
46.8943263
21
7.7382846
0
LINE
8
layer0
10
46.8943263
20
7.7382846
11
47.0755641
21
7.6562639
0
LINE
8
layer0
10
47.0755641
20
7.6562639
11
47.2201522
21
7.5870324
0
LINE
8
layer0
10
47.2201522
20
7.5870324
11
47.235558
21
7.5810282
0
LINE
8
layer0
10
47.235558
20
7.5810282
11
47.2577655
21
7.5767142
0
LINE
8
layer0
10
47.2577655
20
7.5767142
11
47.2817087
21
7.5767056
0
LINE
8
layer0
10
47.2817087
20
7.5767056
11
47.3072199
21
7.5810433
0
LINE
8
layer0
10
47.3072199
20
7.5810433
11
47.3341289
21
7.5898126
0
LINE
8
layer0
10
47.3341289
20
7.5898126
11
47.3622591
21
7.6030585
0
LINE
8
layer0
10
47.3622591
20
7.6030585
11
47.3914282
21
7.620839
0
LINE
8
layer0
10
47.3914282
20
7.620839
11
47.4214675
21
7.6432172
0
LINE
8
layer0
10
47.4214675
20
7.6432172
11
47.4521881
21
7.6702104
0
LINE
8
layer0
10
47.4521881
20
7.6702104
11
47.5149745
21
7.7382174
0
LINE
8
layer0
10
47.5149745
20
7.7382174
11
47.57832
21
7.8250996
0
LINE
8
layer0
10
47.57832
20
7.8250996
11
47.6666861
21
7.9696701
0
LINE
8
layer0
10
47.6666861
20
7.9696701
11
47.7406126
21
8.0672314
0
LINE
8
layer0
10
47.7406126
20
8.0672314
11
47.795772
21
8.1316171
0
LINE
8
layer0
10
47.795772
20
8.1316171
11
47.8639755
21
8.2048044
0
LINE
8
layer0
10
47.8639755
20
8.2048044
11
47.9461392
21
8.2859437
0
LINE
8
layer0
10
47.9461392
20
8.2859437
11
48.0444797
21
8.3752093
0
LINE
8
layer0
10
48.0444797
20
8.3752093
11
48.1571837
21
8.4692143
0
LINE
8
layer0
10
48.1571837
20
8.4692143
11
48.2862057
21
8.5680079
0
LINE
8
layer0
10
48.2862057
20
8.5680079
11
48.432941
21
8.6709123
0
LINE
8
layer0
10
48.432941
20
8.6709123
11
48.5958702
21
8.7752854
0
LINE
8
layer0
10
48.5958702
20
8.7752854
11
48.7773054
21
8.8810957
0
LINE
8
layer0
10
48.7773054
20
8.8810957
11
48.9518022
21
8.9737124
0
ARC
8
layer0
10
43.4999913
20
-0.0000136
40
10.5
50
54.9641635
51
58.7200491
0
LINE
8
layer0
10
49.5279224
20
8.5973143
11
49.5132011
21
8.400311
0
LINE
8
layer0
10
49.5132011
20
8.400311
11
49.4891845
21
8.191654
0
LINE
8
layer0
10
49.4891845
20
8.191654
11
49.4590503
21
8.0005216
0
LINE
8
layer0
10
49.4590503
20
8.0005216
11
49.4237561
21
7.8248091
0
LINE
8
layer0
10
49.4237561
20
7.8248091
11
49.3851112
21
7.6669693
0
LINE
8
layer0
10
49.3851112
20
7.6669693
11
49.3442966
21
7.5259965
0
LINE
8
layer0
10
49.3442966
20
7.5259965
11
49.3020525
21
7.4000814
0
LINE
8
layer0
10
49.3020525
20
7.4000814
11
49.260752
21
7.2922448
0
LINE
8
layer0
10
49.260752
20
7.2922448
11
49.2211261
21
7.2003868
0
LINE
8
layer0
10
49.2211261
20
7.2003868
11
49.1843206
21
7.1240099
0
LINE
8
layer0
10
49.1843206
20
7.1240099
11
49.1246725
21
7.01712
0
LINE
8
layer0
10
49.1246725
20
7.01712
11
49.027775
21
6.8781234
0
LINE
8
layer0
10
49.027775
20
6.8781234
11
48.9736562
21
6.7852131
0
LINE
8
layer0
10
48.9736562
20
6.7852131
11
48.9365983
21
6.7003969
0
LINE
8
layer0
10
48.9365983
20
6.7003969
11
48.9242189
21
6.6614207
0
LINE
8
layer0
10
48.9242189
20
6.6614207
11
48.9157922
21
6.6249223
0
LINE
8
layer0
10
48.9157922
20
6.6249223
11
48.9112264
21
6.5910677
0
LINE
8
layer0
10
48.9112264
20
6.5910677
11
48.9103959
21
6.559986
0
LINE
8
layer0
10
48.9103959
20
6.559986
11
48.9131744
21
6.5318208
0
LINE
8
layer0
10
48.9131744
20
6.5318208
11
48.9194498
21
6.506716
0
LINE
8
layer0
10
48.9194498
20
6.506716
11
48.9290756
21
6.4847929
0
LINE
8
layer0
10
48.9290756
20
6.4847929
11
48.9419469
21
6.4661887
0
LINE
8
layer0
10
48.9419469
20
6.4661887
11
48.9536337
21
6.4544924
0
LINE
8
layer0
10
48.9536337
20
6.4544924
11
49.0751146
21
6.3498924
0
LINE
8
layer0
10
49.0751146
20
6.3498924
11
49.2230293
21
6.216867
0
LINE
8
layer0
10
49.2230293
20
6.216867
11
49.367815
21
6.0804427
0
LINE
8
layer0
10
49.367815
20
6.0804427
11
49.4820895
21
5.9680146
0
LINE
8
layer0
10
49.4820895
20
5.9680146
11
49.494711
21
5.9573335
0
LINE
8
layer0
10
49.494711
20
5.9573335
11
49.5143145
21
5.9460425
0
LINE
8
layer0
10
49.5143145
20
5.9460425
11
49.5369576
21
5.93826
0
LINE
8
layer0
10
49.5369576
20
5.93826
11
49.5624949
21
5.9340792
0
LINE
8
layer0
10
49.5624949
20
5.9340792
11
49.5907934
21
5.933636
0
LINE
8
layer0
10
49.5907934
20
5.933636
11
49.6217003
21
5.9370304
0
LINE
8
layer0
10
49.6217003
20
5.9370304
11
49.6550623
21
5.9443763
0
LINE
8
layer0
10
49.6550623
20
5.9443763
11
49.6907402
21
5.9557882
0
LINE
8
layer0
10
49.6907402
20
5.9557882
11
49.7285609
21
5.9713439
0
LINE
8
layer0
10
49.7285609
20
5.9713439
11
49.8100272
21
6.0152794
0
LINE
8
layer0
10
49.8100272
20
6.0152794
11
49.8981511
21
6.0768858
0
LINE
8
layer0
10
49.8981511
20
6.0768858
11
50.0286712
21
6.1849306
0
LINE
8
layer0
10
50.0286712
20
6.1849306
11
50.1302703
21
6.2532019
0
LINE
8
layer0
10
50.1302703
20
6.2532019
11
50.203347
21
6.2961888
0
LINE
8
layer0
10
50.203347
20
6.2961888
11
50.2916189
21
6.3432649
0
LINE
8
layer0
10
50.2916189
20
6.3432649
11
50.3956766
21
6.3933294
0
LINE
8
layer0
10
50.3956766
20
6.3933294
11
50.5176733
21
6.4458272
0
LINE
8
layer0
10
50.5176733
20
6.4458272
11
50.6547941
21
6.4981439
0
LINE
8
layer0
10
50.6547941
20
6.4981439
11
50.8089035
21
6.5496911
0
LINE
8
layer0
10
50.8089035
20
6.5496911
11
50.9811013
21
6.599375
0
LINE
8
layer0
10
50.9811013
20
6.599375
11
51.1690924
21
6.6451899
0
LINE
8
layer0
10
51.1690924
20
6.6451899
11
51.3750535
21
6.6863552
0
LINE
8
layer0
10
51.3750535
20
6.6863552
11
51.5701682
21
6.7172946
0
ARC
8
layer0
10
43.4999871
20
-0.0000098
40
10.5
50
36.0167933
51
39.7726786
0
LINE
8
layer0
10
51.9928563
20
6.1742249
11
51.9149658
21
5.9926758
0
LINE
8
layer0
10
51.9149658
20
5.9926758
11
51.8244997
21
5.8031225
0
LINE
8
layer0
10
51.8244997
20
5.8031225
11
51.7339377
21
5.6321308
0
LINE
8
layer0
10
51.7339377
20
5.6321308
11
51.643502
21
5.4773989
0
LINE
8
layer0
10
51.643502
20
5.4773989
11
51.5557005
21
5.3406593
0
LINE
8
layer0
10
51.5557005
20
5.3406593
11
51.4713236
21
5.2205773
0
LINE
8
layer0
10
51.4713236
20
5.2205773
11
51.3904837
21
5.1152012
0
LINE
8
layer0
10
51.3904837
20
5.1152012
11
51.3164066
21
5.0266177
0
LINE
8
layer0
10
51.3164066
20
5.0266177
11
51.2491015
21
4.9526034
0
LINE
8
layer0
10
51.2491015
20
4.9526034
11
51.1894907
21
4.8923155
0
LINE
8
layer0
10
51.1894907
20
4.8923155
11
51.0983674
21
4.8105849
0
LINE
8
layer0
10
51.0983674
20
4.8105849
11
50.9615879
21
4.7105821
0
LINE
8
layer0
10
50.9615879
20
4.7105821
11
50.8802335
21
4.6402782
0
LINE
8
layer0
10
50.8802335
20
4.6402782
11
50.8176437
21
4.5720903
0
LINE
8
layer0
10
50.8176437
20
4.5720903
11
50.7932795
21
4.5392456
0
LINE
8
layer0
10
50.7932795
20
4.5392456
11
50.7734584
21
4.5074609
0
LINE
8
layer0
10
50.7734584
20
4.5074609
11
50.7581474
21
4.4769231
0
LINE
8
layer0
10
50.7581474
20
4.4769231
11
50.7472697
21
4.4477952
0
LINE
8
layer0
10
50.7472697
20
4.4477952
11
50.7407524
21
4.4202539
0
LINE
8
layer0
10
50.7407524
20
4.4202539
11
50.7385363
21
4.3944717
0
LINE
8
layer0
10
50.7385363
20
4.3944717
11
50.7405221
21
4.3706109
0
LINE
8
layer0
10
50.7405221
20
4.3706109
11
50.7466553
21
4.3488355
0
LINE
8
layer0
10
50.7466553
20
4.3488355
11
50.7539111
21
4.3339782
0
LINE
8
layer0
10
50.7539111
20
4.3339782
11
50.8348462
21
4.195601
0
LINE
8
layer0
10
50.8348462
20
4.195601
11
50.9315532
21
4.0217555
0
LINE
8
layer0
10
50.9315532
20
4.0217555
11
51.0241971
21
3.8457111
0
LINE
8
layer0
10
51.0241971
20
3.8457111
11
51.0957746
21
3.7022698
0
LINE
8
layer0
10
51.0957746
20
3.7022698
11
51.104244
21
3.6880693
0
LINE
8
layer0
10
51.104244
20
3.6880693
11
51.1191192
21
3.6710248
0
LINE
8
layer0
10
51.1191192
20
3.6710248
11
51.1380085
21
3.6563118
0
LINE
8
layer0
10
51.1380085
20
3.6563118
11
51.1608046
21
3.6440655
0
LINE
8
layer0
10
51.1608046
20
3.6440655
11
51.1874259
21
3.6344579
0
LINE
8
layer0
10
51.1874259
20
3.6344579
11
51.2177603
21
3.6276329
0
LINE
8
layer0
10
51.2177603
20
3.6276329
11
51.2516998
21
3.6237481
0
LINE
8
layer0
10
51.2516998
20
3.6237481
11
51.2891501
21
3.6229571
0
LINE
8
layer0
10
51.2891501
20
3.6229571
11
51.3299725
21
3.6253896
0
LINE
8
layer0
10
51.3299725
20
3.6253896
11
51.4212905
21
3.6404925
0
LINE
8
layer0
10
51.4212905
20
3.6404925
11
51.5246432
21
3.6701471
0
LINE
8
layer0
10
51.5246432
20
3.6701471
11
51.6831735
21
3.7299579
0
LINE
8
layer0
10
51.6831735
20
3.7299579
11
51.8014353
21
3.7615409
0
LINE
8
layer0
10
51.8014353
20
3.7615409
11
51.8845103
21
3.7784707
0
LINE
8
layer0
10
51.8845103
20
3.7784707
11
51.983285
21
3.7943343
0
LINE
8
layer0
10
51.983285
20
3.7943343
11
52.0979605
21
3.8078986
0
LINE
8
layer0
10
52.0979605
20
3.8078986
11
52.230393
21
3.8179398
0
LINE
8
layer0
10
52.230393
20
3.8179398
11
52.3770715
21
3.8228987
0
LINE
8
layer0
10
52.3770715
20
3.8228987
11
52.5395682
21
3.8216137
0
LINE
8
layer0
10
52.5395682
20
3.8216137
11
52.7185681
21
3.8126931
0
LINE
8
layer0
10
52.7185681
20
3.8126931
11
52.9112494
21
3.7949849
0
LINE
8
layer0
10
52.9112494
20
3.7949849
11
53.1194174
21
3.7670443
0
LINE
8
layer0
10
53.1194174
20
3.7670443
11
53.3140062
21
3.7329537
0
ARC
8
layer0
10
43.4999849
20
-0.0000057
40
10.5
50
17.0694284
51
20.8253138
0
LINE
8
layer0
10
53.5374575
20
3.0820624
11
53.4048384
21
2.9356411
0
LINE
8
layer0
10
53.4048384
20
2.9356411
11
53.2577261
21
2.7857327
0
LINE
8
layer0
10
53.2577261
20
2.7857327
11
53.1165501
21
2.6534112
0
LINE
8
layer0
10
53.1165501
20
2.6534112
11
52.9807731
21
2.5364275
0
LINE
8
layer0
10
52.9807731
20
2.5364275
11
52.8533297
21
2.435606
0
LINE
8
layer0
10
52.8533297
20
2.435606
11
52.734534
21
2.3494275
0
LINE
8
layer0
10
52.734534
20
2.3494275
11
52.6238587
21
2.2760096
0
LINE
8
layer0
10
52.6238587
20
2.2760096
11
52.5250322
21
2.2162786
0
LINE
8
layer0
10
52.5250322
20
2.2162786
11
52.4373415
21
2.1681285
0
LINE
8
layer0
10
52.4373415
20
2.1681285
11
52.3613851
21
2.1304628
0
LINE
8
layer0
10
52.3613851
20
2.1304628
11
52.2486612
21
2.0827483
0
LINE
8
layer0
10
52.2486612
20
2.0827483
11
52.086822
21
2.0325761
0
LINE
8
layer0
10
52.086822
20
2.0325761
11
51.987048
21
1.9924973
0
LINE
8
layer0
10
51.987048
20
1.9924973
11
51.9057089
21
1.9483268
0
LINE
8
layer0
10
51.9057089
20
1.9483268
11
51.8720001
21
1.9251728
0
LINE
8
layer0
10
51.8720001
20
1.9251728
11
51.8429325
21
1.9015462
0
LINE
8
layer0
10
51.8429325
20
1.9015462
11
51.8185355
21
1.8776344
0
LINE
8
layer0
10
51.8185355
20
1.8776344
11
51.7987894
21
1.8536168
0
LINE
8
layer0
10
51.7987894
20
1.8536168
11
51.7836826
21
1.8296838
0
LINE
8
layer0
10
51.7836826
20
1.8296838
11
51.773215
21
1.8060182
0
LINE
8
layer0
10
51.773215
20
1.8060182
11
51.7673457
21
1.7828055
0
LINE
8
layer0
10
51.7673457
20
1.7828055
11
51.7660761
21
1.7602185
0
LINE
8
layer0
10
51.7660761
20
1.7602185
11
51.7681146
21
1.7438102
0
LINE
8
layer0
10
51.7681146
20
1.7438102
11
51.7997334
21
1.5866511
0
LINE
8
layer0
10
51.7997334
20
1.5866511
11
51.834753
21
1.3908243
0
LINE
8
layer0
10
51.834753
20
1.3908243
11
51.8652157
21
1.1942371
0
LINE
8
layer0
10
51.8652157
20
1.1942371
11
51.8863396
21
1.0353266
0
LINE
8
layer0
10
51.8863396
20
1.0353266
11
51.8897393
21
1.0191455
0
LINE
8
layer0
10
51.8897393
20
1.0191455
11
51.8982741
21
0.9981946
0
LINE
8
layer0
10
51.8982741
20
0.9981946
11
51.9113626
21
0.9781454
0
LINE
8
layer0
10
51.9113626
20
0.9781454
11
51.9289472
21
0.9591608
0
LINE
8
layer0
10
51.9289472
20
0.9591608
11
51.9510065
21
0.9414298
0
LINE
8
layer0
10
51.9510065
20
0.9414298
11
51.9774812
21
0.925125
0
LINE
8
layer0
10
51.9774812
20
0.925125
11
52.0083204
21
0.9104306
0
LINE
8
layer0
10
52.0083204
20
0.9104306
11
52.0434847
21
0.8975224
0
LINE
8
layer0
10
52.0434847
20
0.8975224
11
52.0828851
21
0.8865681
0
LINE
8
layer0
10
52.0828851
20
0.8865681
11
52.1741591
21
0.8712017
0
LINE
8
layer0
10
52.1741591
20
0.8712017
11
52.2815407
21
0.865691
0
LINE
8
layer0
10
52.2815407
20
0.865691
11
52.4509019
21
0.8707864
0
LINE
8
layer0
10
52.4509019
20
0.8707864
11
52.5730109
21
0.8622586
0
LINE
8
layer0
10
52.5730109
20
0.8622586
11
52.6570818
21
0.8512967
0
LINE
8
layer0
10
52.6570818
20
0.8512967
11
52.7556556
21
0.8342286
0
LINE
8
layer0
10
52.7556556
20
0.8342286
11
52.8685219
21
0.809823
0
LINE
8
layer0
10
52.8685219
20
0.809823
11
52.9970393
21
0.7763193
0
LINE
8
layer0
10
52.9970393
20
0.7763193
11
53.1373804
21
0.7333831
0
LINE
8
layer0
10
53.1373804
20
0.7333831
11
53.2906554
21
0.6794051
0
LINE
8
layer0
10
53.2906554
20
0.6794051
11
53.4570601
21
0.6128467
0
LINE
8
layer0
10
53.4570601
20
0.6128467
11
53.6335515
21
0.5335345
0
LINE
8
layer0
10
53.6335515
20
0.5335345
11
53.8213681
21
0.4395158
0
LINE
8
layer0
10
53.8213681
20
0.4395158
11
53.9943444
21
0.3440894
0
ARC
8
layer0
10
43.4999839
20
0
40
10.5
50
358.1220576
51
361.8779429
0
LINE
8
layer0
10
53.9943444
20
-0.3440894
11
53.8213681
21
-0.4395158
0
LINE
8
layer0
10
53.8213681
20
-0.4395158
11
53.6335515
21
-0.5335345
0
LINE
8
layer0
10
53.6335515
20
-0.5335345
11
53.4570601
21
-0.6128467
0
LINE
8
layer0
10
53.4570601
20
-0.6128467
11
53.2906554
21
-0.6794051
0
LINE
8
layer0
10
53.2906554
20
-0.6794051
11
53.1373804
21
-0.7333831
0
LINE
8
layer0
10
53.1373804
20
-0.7333831
11
52.9970393
21
-0.7763193
0
LINE
8
layer0
10
52.9970393
20
-0.7763193
11
52.8685219
21
-0.809823
0
LINE
8
layer0
10
52.8685219
20
-0.809823
11
52.7556556
21
-0.8342286
0
LINE
8
layer0
10
52.7556556
20
-0.8342286
11
52.6570818
21
-0.8512967
0
LINE
8
layer0
10
52.6570818
20
-0.8512967
11
52.5730109
21
-0.8622586
0
LINE
8
layer0
10
52.5730109
20
-0.8622586
11
52.4509019
21
-0.8707864
0
LINE
8
layer0
10
52.4509019
20
-0.8707864
11
52.2815407
21
-0.865691
0
LINE
8
layer0
10
52.2815407
20
-0.865691
11
52.1741591
21
-0.8712017
0
LINE
8
layer0
10
52.1741591
20
-0.8712017
11
52.0828851
21
-0.8865681
0
LINE
8
layer0
10
52.0828851
20
-0.8865681
11
52.0434847
21
-0.8975224
0
LINE
8
layer0
10
52.0434847
20
-0.8975224
11
52.0083204
21
-0.9104306
0
LINE
8
layer0
10
52.0083204
20
-0.9104306
11
51.9774812
21
-0.925125
0
LINE
8
layer0
10
51.9774812
20
-0.925125
11
51.9510065
21
-0.9414298
0
LINE
8
layer0
10
51.9510065
20
-0.9414298
11
51.9289472
21
-0.9591608
0
LINE
8
layer0
10
51.9289472
20
-0.9591608
11
51.9113626
21
-0.9781454
0
LINE
8
layer0
10
51.9113626
20
-0.9781454
11
51.8982741
21
-0.9981946
0
LINE
8
layer0
10
51.8982741
20
-0.9981946
11
51.8897393
21
-1.0191455
0
LINE
8
layer0
10
51.8897393
20
-1.0191455
11
51.8863396
21
-1.0353266
0
LINE
8
layer0
10
51.8863396
20
-1.0353266
11
51.8652157
21
-1.1942371
0
LINE
8
layer0
10
51.8652157
20
-1.1942371
11
51.834753
21
-1.3908243
0
LINE
8
layer0
10
51.834753
20
-1.3908243
11
51.7997334
21
-1.5866511
0
LINE
8
layer0
10
51.7997334
20
-1.5866511
11
51.7681146
21
-1.7438102
0
LINE
8
layer0
10
51.7681146
20
-1.7438102
11
51.7660761
21
-1.7602185
0
LINE
8
layer0
10
51.7660761
20
-1.7602185
11
51.7673457
21
-1.7828055
0
LINE
8
layer0
10
51.7673457
20
-1.7828055
11
51.773215
21
-1.8060182
0
LINE
8
layer0
10
51.773215
20
-1.8060182
11
51.7836826
21
-1.8296838
0
LINE
8
layer0
10
51.7836826
20
-1.8296838
11
51.7987894
21
-1.8536168
0
LINE
8
layer0
10
51.7987894
20
-1.8536168
11
51.8185355
21
-1.8776344
0
LINE
8
layer0
10
51.8185355
20
-1.8776344
11
51.8429325
21
-1.9015462
0
LINE
8
layer0
10
51.8429325
20
-1.9015462
11
51.8720001
21
-1.9251728
0
LINE
8
layer0
10
51.8720001
20
-1.9251728
11
51.9057089
21
-1.9483268
0
LINE
8
layer0
10
51.9057089
20
-1.9483268
11
51.987048
21
-1.9924973
0
LINE
8
layer0
10
51.987048
20
-1.9924973
11
52.086822
21
-2.0325761
0
LINE
8
layer0
10
52.086822
20
-2.0325761
11
52.2486612
21
-2.0827483
0
LINE
8
layer0
10
52.2486612
20
-2.0827483
11
52.3613851
21
-2.1304628
0
LINE
8
layer0
10
52.3613851
20
-2.1304628
11
52.4373415
21
-2.1681285
0
LINE
8
layer0
10
52.4373415
20
-2.1681285
11
52.5250322
21
-2.2162786
0
LINE
8
layer0
10
52.5250322
20
-2.2162786
11
52.6238587
21
-2.2760096
0
LINE
8
layer0
10
52.6238587
20
-2.2760096
11
52.734534
21
-2.3494275
0
LINE
8
layer0
10
52.734534
20
-2.3494275
11
52.8533297
21
-2.435606
0
LINE
8
layer0
10
52.8533297
20
-2.435606
11
52.9807731
21
-2.5364275
0
LINE
8
layer0
10
52.9807731
20
-2.5364275
11
53.1165501
21
-2.6534112
0
LINE
8
layer0
10
53.1165501
20
-2.6534112
11
53.2577261
21
-2.7857327
0
LINE
8
layer0
10
53.2577261
20
-2.7857327
11
53.4048384
21
-2.9356411
0
LINE
8
layer0
10
53.4048384
20
-2.9356411
11
53.5374575
21
-3.0820624
0
ARC
8
layer0
10
43.4999849
20
0.0000057
40
10.5
50
339.1746862
51
342.9305716
0
LINE
8
layer0
10
53.3140062
20
-3.7329537
11
53.1194174
21
-3.7670443
0
LINE
8
layer0
10
53.1194174
20
-3.7670443
11
52.9112494
21
-3.7949849
0
LINE
8
layer0
10
52.9112494
20
-3.7949849
11
52.7185681
21
-3.8126931
0
LINE
8
layer0
10
52.7185681
20
-3.8126931
11
52.5395682
21
-3.8216137
0
LINE
8
layer0
10
52.5395682
20
-3.8216137
11
52.3770715
21
-3.8228987
0
LINE
8
layer0
10
52.3770715
20
-3.8228987
11
52.230393
21
-3.8179398
0
LINE
8
layer0
10
52.230393
20
-3.8179398
11
52.0979605
21
-3.8078986
0
LINE
8
layer0
10
52.0979605
20
-3.8078986
11
51.983285
21
-3.7943343
0
LINE
8
layer0
10
51.983285
20
-3.7943343
11
51.8845103
21
-3.7784707
0
LINE
8
layer0
10
51.8845103
20
-3.7784707
11
51.8014353
21
-3.7615409
0
LINE
8
layer0
10
51.8014353
20
-3.7615409
11
51.6831735
21
-3.7299579
0
LINE
8
layer0
10
51.6831735
20
-3.7299579
11
51.5246432
21
-3.6701471
0
LINE
8
layer0
10
51.5246432
20
-3.6701471
11
51.4212905
21
-3.6404925
0
LINE
8
layer0
10
51.4212905
20
-3.6404925
11
51.3299725
21
-3.6253896
0
LINE
8
layer0
10
51.3299725
20
-3.6253896
11
51.2891501
21
-3.6229571
0
LINE
8
layer0
10
51.2891501
20
-3.6229571
11
51.2516998
21
-3.6237481
0
LINE
8
layer0
10
51.2516998
20
-3.6237481
11
51.2177603
21
-3.6276329
0
LINE
8
layer0
10
51.2177603
20
-3.6276329
11
51.1874259
21
-3.6344579
0
LINE
8
layer0
10
51.1874259
20
-3.6344579
11
51.1608046
21
-3.6440655
0
LINE
8
layer0
10
51.1608046
20
-3.6440655
11
51.1380085
21
-3.6563118
0
LINE
8
layer0
10
51.1380085
20
-3.6563118
11
51.1191192
21
-3.6710248
0
LINE
8
layer0
10
51.1191192
20
-3.6710248
11
51.104244
21
-3.6880693
0
LINE
8
layer0
10
51.104244
20
-3.6880693
11
51.0957746
21
-3.7022698
0
LINE
8
layer0
10
51.0957746
20
-3.7022698
11
51.0241971
21
-3.8457111
0
LINE
8
layer0
10
51.0241971
20
-3.8457111
11
50.9315532
21
-4.0217555
0
LINE
8
layer0
10
50.9315532
20
-4.0217555
11
50.8348462
21
-4.195601
0
LINE
8
layer0
10
50.8348462
20
-4.195601
11
50.7539111
21
-4.3339782
0
LINE
8
layer0
10
50.7539111
20
-4.3339782
11
50.7466553
21
-4.3488355
0
LINE
8
layer0
10
50.7466553
20
-4.3488355
11
50.7405221
21
-4.3706109
0
LINE
8
layer0
10
50.7405221
20
-4.3706109
11
50.7385363
21
-4.3944717
0
LINE
8
layer0
10
50.7385363
20
-4.3944717
11
50.7407524
21
-4.4202539
0
LINE
8
layer0
10
50.7407524
20
-4.4202539
11
50.7472697
21
-4.4477952
0
LINE
8
layer0
10
50.7472697
20
-4.4477952
11
50.7581474
21
-4.4769231
0
LINE
8
layer0
10
50.7581474
20
-4.4769231
11
50.7734584
21
-4.5074609
0
LINE
8
layer0
10
50.7734584
20
-4.5074609
11
50.7932795
21
-4.5392456
0
LINE
8
layer0
10
50.7932795
20
-4.5392456
11
50.8176437
21
-4.5720903
0
LINE
8
layer0
10
50.8176437
20
-4.5720903
11
50.8802335
21
-4.6402782
0
LINE
8
layer0
10
50.8802335
20
-4.6402782
11
50.9615879
21
-4.7105821
0
LINE
8
layer0
10
50.9615879
20
-4.7105821
11
51.0983674
21
-4.8105849
0
LINE
8
layer0
10
51.0983674
20
-4.8105849
11
51.1894907
21
-4.8923155
0
LINE
8
layer0
10
51.1894907
20
-4.8923155
11
51.2491015
21
-4.9526034
0
LINE
8
layer0
10
51.2491015
20
-4.9526034
11
51.3164066
21
-5.0266177
0
LINE
8
layer0
10
51.3164066
20
-5.0266177
11
51.3904837
21
-5.1152012
0
LINE
8
layer0
10
51.3904837
20
-5.1152012
11
51.4713236
21
-5.2205773
0
LINE
8
layer0
10
51.4713236
20
-5.2205773
11
51.5557005
21
-5.3406593
0
LINE
8
layer0
10
51.5557005
20
-5.3406593
11
51.643502
21
-5.4773989
0
LINE
8
layer0
10
51.643502
20
-5.4773989
11
51.7339377
21
-5.6321308
0
LINE
8
layer0
10
51.7339377
20
-5.6321308
11
51.8244997
21
-5.8031225
0
LINE
8
layer0
10
51.8244997
20
-5.8031225
11
51.9149658
21
-5.9926758
0
LINE
8
layer0
10
51.9149658
20
-5.9926758
11
51.9928563
21
-6.1742249
0
ARC
8
layer0
10
43.4999871
20
0.0000098
40
10.5
50
320.2273214
51
323.9832067
0
LINE
8
layer0
10
51.5701682
20
-6.7172946
11
51.3750535
21
-6.6863552
0
LINE
8
layer0
10
51.3750535
20
-6.6863552
11
51.1690924
21
-6.6451899
0
LINE
8
layer0
10
51.1690924
20
-6.6451899
11
50.9811013
21
-6.599375
0
LINE
8
layer0
10
50.9811013
20
-6.599375
11
50.8089035
21
-6.5496911
0
LINE
8
layer0
10
50.8089035
20
-6.5496911
11
50.6547941
21
-6.4981439
0
LINE
8
layer0
10
50.6547941
20
-6.4981439
11
50.5176733
21
-6.4458272
0
LINE
8
layer0
10
50.5176733
20
-6.4458272
11
50.3956766
21
-6.3933294
0
LINE
8
layer0
10
50.3956766
20
-6.3933294
11
50.2916189
21
-6.3432649
0
LINE
8
layer0
10
50.2916189
20
-6.3432649
11
50.203347
21
-6.2961888
0
LINE
8
layer0
10
50.203347
20
-6.2961888
11
50.1302703
21
-6.2532019
0
LINE
8
layer0
10
50.1302703
20
-6.2532019
11
50.0286712
21
-6.1849306
0
LINE
8
layer0
10
50.0286712
20
-6.1849306
11
49.8981511
21
-6.0768858
0
LINE
8
layer0
10
49.8981511
20
-6.0768858
11
49.8100272
21
-6.0152794
0
LINE
8
layer0
10
49.8100272
20
-6.0152794
11
49.7285609
21
-5.9713439
0
LINE
8
layer0
10
49.7285609
20
-5.9713439
11
49.6907402
21
-5.9557882
0
LINE
8
layer0
10
49.6907402
20
-5.9557882
11
49.6550623
21
-5.9443763
0
LINE
8
layer0
10
49.6550623
20
-5.9443763
11
49.6217003
21
-5.9370304
0
LINE
8
layer0
10
49.6217003
20
-5.9370304
11
49.5907934
21
-5.933636
0
LINE
8
layer0
10
49.5907934
20
-5.933636
11
49.5624949
21
-5.9340792
0
LINE
8
layer0
10
49.5624949
20
-5.9340792
11
49.5369576
21
-5.93826
0
LINE
8
layer0
10
49.5369576
20
-5.93826
11
49.5143145
21
-5.9460425
0
LINE
8
layer0
10
49.5143145
20
-5.9460425
11
49.494711
21
-5.9573335
0
LINE
8
layer0
10
49.494711
20
-5.9573335
11
49.4820895
21
-5.9680146
0
LINE
8
layer0
10
49.4820895
20
-5.9680146
11
49.367815
21
-6.0804427
0
LINE
8
layer0
10
49.367815
20
-6.0804427
11
49.2230293
21
-6.216867
0
LINE
8
layer0
10
49.2230293
20
-6.216867
11
49.0751146
21
-6.3498924
0
LINE
8
layer0
10
49.0751146
20
-6.3498924
11
48.9536337
21
-6.4544924
0
LINE
8
layer0
10
48.9536337
20
-6.4544924
11
48.9419469
21
-6.4661887
0
LINE
8
layer0
10
48.9419469
20
-6.4661887
11
48.9290756
21
-6.4847929
0
LINE
8
layer0
10
48.9290756
20
-6.4847929
11
48.9194498
21
-6.506716
0
LINE
8
layer0
10
48.9194498
20
-6.506716
11
48.9131744
21
-6.5318208
0
LINE
8
layer0
10
48.9131744
20
-6.5318208
11
48.9103959
21
-6.559986
0
LINE
8
layer0
10
48.9103959
20
-6.559986
11
48.9112264
21
-6.5910677
0
LINE
8
layer0
10
48.9112264
20
-6.5910677
11
48.9157922
21
-6.6249223
0
LINE
8
layer0
10
48.9157922
20
-6.6249223
11
48.9242189
21
-6.6614207
0
LINE
8
layer0
10
48.9242189
20
-6.6614207
11
48.9365983
21
-6.7003969
0
LINE
8
layer0
10
48.9365983
20
-6.7003969
11
48.9736562
21
-6.7852131
0
LINE
8
layer0
10
48.9736562
20
-6.7852131
11
49.027775
21
-6.8781234
0
LINE
8
layer0
10
49.027775
20
-6.8781234
11
49.1246725
21
-7.01712
0
LINE
8
layer0
10
49.1246725
20
-7.01712
11
49.1843206
21
-7.1240099
0
LINE
8
layer0
10
49.1843206
20
-7.1240099
11
49.2211261
21
-7.2003868
0
LINE
8
layer0
10
49.2211261
20
-7.2003868
11
49.260752
21
-7.2922448
0
LINE
8
layer0
10
49.260752
20
-7.2922448
11
49.3020525
21
-7.4000814
0
LINE
8
layer0
10
49.3020525
20
-7.4000814
11
49.3442966
21
-7.5259965
0
LINE
8
layer0
10
49.3442966
20
-7.5259965
11
49.3851112
21
-7.6669693
0
LINE
8
layer0
10
49.3851112
20
-7.6669693
11
49.4237561
21
-7.8248091
0
LINE
8
layer0
10
49.4237561
20
-7.8248091
11
49.4590503
21
-8.0005216
0
LINE
8
layer0
10
49.4590503
20
-8.0005216
11
49.4891845
21
-8.191654
0
LINE
8
layer0
10
49.4891845
20
-8.191654
11
49.5132011
21
-8.400311
0
LINE
8
layer0
10
49.5132011
20
-8.400311
11
49.5279224
21
-8.5973143
0
ARC
8
layer0
10
43.4999913
20
0.0000136
40
10.5
50
301.2799509
51
305.0358365
0
LINE
8
layer0
10
48.9518022
20
-8.9737124
11
48.7773054
21
-8.8810957
0
LINE
8
layer0
10
48.7773054
20
-8.8810957
11
48.5958702
21
-8.7752854
0
LINE
8
layer0
10
48.5958702
20
-8.7752854
11
48.432941
21
-8.6709123
0
LINE
8
layer0
10
48.432941
20
-8.6709123
11
48.2862057
21
-8.5680079
0
LINE
8
layer0
10
48.2862057
20
-8.5680079
11
48.1571837
21
-8.4692143
0
LINE
8
layer0
10
48.1571837
20
-8.4692143
11
48.0444797
21
-8.3752093
0
LINE
8
layer0
10
48.0444797
20
-8.3752093
11
47.9461392
21
-8.2859437
0
LINE
8
layer0
10
47.9461392
20
-8.2859437
11
47.8639755
21
-8.2048044
0
LINE
8
layer0
10
47.8639755
20
-8.2048044
11
47.795772
21
-8.1316171
0
LINE
8
layer0
10
47.795772
20
-8.1316171
11
47.7406126
21
-8.0672314
0
LINE
8
layer0
10
47.7406126
20
-8.0672314
11
47.6666861
21
-7.9696701
0
LINE
8
layer0
10
47.6666861
20
-7.9696701
11
47.57832
21
-7.8250996
0
LINE
8
layer0
10
47.57832
20
-7.8250996
11
47.5149745
21
-7.7382174
0
LINE
8
layer0
10
47.5149745
20
-7.7382174
11
47.4521881
21
-7.6702104
0
LINE
8
layer0
10
47.4521881
20
-7.6702104
11
47.4214675
21
-7.6432172
0
LINE
8
layer0
10
47.4214675
20
-7.6432172
11
47.3914282
21
-7.620839
0
LINE
8
layer0
10
47.3914282
20
-7.620839
11
47.3622591
21
-7.6030585
0
LINE
8
layer0
10
47.3622591
20
-7.6030585
11
47.3341289
21
-7.5898126
0
LINE
8
layer0
10
47.3341289
20
-7.5898126
11
47.3072199
21
-7.5810433
0
LINE
8
layer0
10
47.3072199
20
-7.5810433
11
47.2817087
21
-7.5767056
0
LINE
8
layer0
10
47.2817087
20
-7.5767056
11
47.2577655
21
-7.5767142
0
LINE
8
layer0
10
47.2577655
20
-7.5767142
11
47.235558
21
-7.5810282
0
LINE
8
layer0
10
47.235558
20
-7.5810282
11
47.2201522
21
-7.5870324
0
LINE
8
layer0
10
47.2201522
20
-7.5870324
11
47.0755641
21
-7.6562639
0
LINE
8
layer0
10
47.0755641
20
-7.6562639
11
46.8943263
21
-7.7382846
0
LINE
8
layer0
10
46.8943263
20
-7.7382846
11
46.7112328
21
-7.8160744
0
LINE
8
layer0
10
46.7112328
20
-7.8160744
11
46.5623706
21
-7.8755622
0
LINE
8
layer0
10
46.5623706
20
-7.8755622
11
46.5475192
21
-7.88283
0
LINE
8
layer0
10
46.5475192
20
-7.88283
11
46.5293045
21
-7.8962469
0
LINE
8
layer0
10
46.5293045
20
-7.8962469
11
46.5130819
21
-7.9138566
0
LINE
8
layer0
10
46.5130819
20
-7.9138566
11
46.4989949
21
-7.9355636
0
LINE
8
layer0
10
46.4989949
20
-7.9355636
11
46.4872218
21
-7.9613005
0
LINE
8
layer0
10
46.4872218
20
-7.9613005
11
46.4779151
21
-7.9909678
0
LINE
8
layer0
10
46.4779151
20
-7.9909678
11
46.4712409
21
-8.0244706
0
LINE
8
layer0
10
46.4712409
20
-8.0244706
11
46.4673599
21
-8.0617276
0
LINE
8
layer0
10
46.4673599
20
-8.0617276
11
46.4664131
21
-8.1026115
0
LINE
8
layer0
10
46.4664131
20
-8.1026115
11
46.4739234
21
-8.1948648
0
LINE
8
layer0
10
46.4739234
20
-8.1948648
11
46.4949419
21
-8.3003133
0
LINE
8
layer0
10
46.4949419
20
-8.3003133
11
46.5414571
21
-8.4632413
0
LINE
8
layer0
10
46.5414571
20
-8.4632413
11
46.5631662
21
-8.5837072
0
LINE
8
layer0
10
46.5631662
20
-8.5837072
11
46.5731779
21
-8.6678966
0
LINE
8
layer0
10
46.5731779
20
-8.6678966
11
46.5808306
21
-8.7676439
0
LINE
8
layer0
10
46.5808306
20
-8.7676439
11
46.5848788
21
-8.8830479
0
LINE
8
layer0
10
46.5848788
20
-8.8830479
11
46.5839494
21
-9.0158573
0
LINE
8
layer0
10
46.5839494
20
-9.0158573
11
46.5767788
21
-9.1624442
0
LINE
8
layer0
10
46.5767788
20
-9.1624442
11
46.5620793
21
-9.3242798
0
LINE
8
layer0
10
46.5620793
20
-9.3242798
11
46.5384075
21
-9.5019317
0
LINE
8
layer0
10
46.5384075
20
-9.5019317
11
46.5048483
21
-9.6924926
0
LINE
8
layer0
10
46.5048483
20
-9.6924926
11
46.4598128
21
-9.8976422
0
LINE
8
layer0
10
46.4598128
20
-9.8976422
11
46.4097696
21
-10.0887513
0
ARC
8
layer0
10
43.4999961
20
0.0000156
40
10.5
50
282.3325832
51
286.088469
0
LINE
8
layer0
10
45.7426489
20
-10.2576892
11
45.6076794
21
-10.1134317
0
LINE
8
layer0
10
45.6076794
20
-10.1134317
11
45.4704314
21
-9.9544425
0
LINE
8
layer0
10
45.4704314
20
-9.9544425
11
45.35022
21
-9.8028216
0
LINE
8
layer0
10
45.35022
20
-9.8028216
11
45.2448483
21
-9.657848
0
LINE
8
layer0
10
45.2448483
20
-9.657848
11
45.1548953
21
-9.522514
0
LINE
8
layer0
10
45.1548953
20
-9.522514
11
45.0788212
21
-9.3970075
0
LINE
8
layer0
10
45.0788212
20
-9.3970075
11
45.0147936
21
-9.2806475
0
LINE
8
layer0
10
45.0147936
20
-9.2806475
11
44.9634277
21
-9.177226
0
LINE
8
layer0
10
44.9634277
20
-9.177226
11
44.9226834
21
-9.0858585
0
LINE
8
layer0
10
44.9226834
20
-9.0858585
11
44.8914188
21
-9.0070512
0
LINE
8
layer0
10
44.8914188
20
-9.0070512
11
44.8531759
21
-8.8907721
0
LINE
8
layer0
10
44.8531759
20
-8.8907721
11
44.8165397
21
-8.7253425
0
LINE
8
layer0
10
44.8165397
20
-8.7253425
11
44.784837
21
-8.6225996
0
LINE
8
layer0
10
44.784837
20
-8.6225996
11
44.7475344
21
-8.5378907
0
LINE
8
layer0
10
44.7475344
20
-8.5378907
11
44.727243
21
-8.502385
0
LINE
8
layer0
10
44.727243
20
-8.502385
11
44.7060975
21
-8.4714656
0
LINE
8
layer0
10
44.7060975
20
-8.4714656
11
44.6842821
21
-8.4451773
0
LINE
8
layer0
10
44.6842821
20
-8.4451773
11
44.6619771
21
-8.4235153
0
LINE
8
layer0
10
44.6619771
20
-8.4235153
11
44.6393735
21
-8.4064837
0
LINE
8
layer0
10
44.6393735
20
-8.4064837
11
44.616653
21
-8.3940976
0
LINE
8
layer0
10
44.616653
20
-8.3940976
11
44.5940043
21
-8.3863314
0
LINE
8
layer0
10
44.5940043
20
-8.3863314
11
44.5715993
21
-8.3832009
0
LINE
8
layer0
10
44.5715993
20
-8.3832009
11
44.5550787
21
-8.3838775
0
LINE
8
layer0
10
44.5550787
20
-8.3838775
11
44.3958453
21
-8.4024102
0
LINE
8
layer0
10
44.3958453
20
-8.4024102
11
44.1977955
21
-8.421139
0
LINE
8
layer0
10
44.1977955
20
-8.421139
11
43.9993641
21
-8.4352635
0
LINE
8
layer0
10
43.9993641
20
-8.4352635
11
43.839252
21
-8.4431926
0
LINE
8
layer0
10
43.839252
20
-8.4431926
11
43.8228454
21
-8.4452444
0
LINE
8
layer0
10
43.8228454
20
-8.4452444
11
43.8012612
21
-8.45202
0
LINE
8
layer0
10
43.8012612
20
-8.45202
11
43.7801997
21
-8.4634081
0
LINE
8
layer0
10
43.7801997
20
-8.4634081
11
43.7598278
21
-8.4793649
0
LINE
8
layer0
10
43.7598278
20
-8.4793649
11
43.7403358
21
-8.4998846
0
LINE
8
layer0
10
43.7403358
20
-8.4998846
11
43.7219004
21
-8.5249225
0
LINE
8
layer0
10
43.7219004
20
-8.5249225
11
43.7047095
21
-8.554443
0
LINE
8
layer0
10
43.7047095
20
-8.554443
11
43.6889415
21
-8.5884211
0
LINE
8
layer0
10
43.6889415
20
-8.5884211
11
43.674771
21
-8.6267824
0
LINE
8
layer0
10
43.674771
20
-8.6267824
11
43.6519197
21
-8.7164758
0
LINE
8
layer0
10
43.6519197
20
-8.7164758
11
43.6375603
21
-8.8230355
0
LINE
8
layer0
10
43.6375603
20
-8.8230355
11
43.6286526
21
-8.992239
0
LINE
8
layer0
10
43.6286526
20
-8.992239
11
43.6100702
21
-9.1132268
0
LINE
8
layer0
10
43.6100702
20
-9.1132268
11
43.5922033
21
-9.1961053
0
LINE
8
layer0
10
43.5922033
20
-9.1961053
11
43.5670533
21
-9.2929329
0
LINE
8
layer0
10
43.5670533
20
-9.2929329
11
43.5334106
21
-9.4033983
0
LINE
8
layer0
10
43.5334106
20
-9.4033983
11
43.4894085
21
-9.52871
0
LINE
8
layer0
10
43.4894085
20
-9.52871
11
43.4350296
21
-9.6650262
0
LINE
8
layer0
10
43.4350296
20
-9.6650262
11
43.3685787
21
-9.8133201
0
LINE
8
layer0
10
43.3685787
20
-9.8133201
11
43.288506
21
-9.9736601
0
LINE
8
layer0
10
43.288506
20
-9.9736601
11
43.1948901
21
-10.1429993
0
LINE
8
layer0
10
43.1948901
20
-10.1429993
11
43.0856828
21
-10.3224103
0
LINE
8
layer0
10
43.0856828
20
-10.3224103
11
42.976298
21
-10.4869155
0
ARC
8
layer0
10
43.5000005
20
0.0000162
40
10.5
50
263.3852193
51
267.141105
0
LINE
8
layer0
10
42.2904698
20
-10.4300862
11
42.2096536
21
-10.2498205
0
LINE
8
layer0
10
42.2096536
20
-10.2498205
11
42.1314658
21
-10.0548814
0
LINE
8
layer0
10
42.1314658
20
-10.0548814
11
42.066999
21
-9.8724432
0
LINE
8
layer0
10
42.066999
20
-9.8724432
11
42.0144095
21
-9.7011105
0
LINE
8
layer0
10
42.0144095
20
-9.7011105
11
41.9732732
21
-9.5439016
0
LINE
8
layer0
10
41.9732732
20
-9.5439016
11
41.942073
21
-9.4004941
0
LINE
8
layer0
10
41.942073
20
-9.4004941
11
41.9192966
21
-9.269649
0
LINE
8
layer0
10
41.9192966
20
-9.269649
11
41.9042947
21
-9.1551527
0
LINE
8
layer0
10
41.9042947
20
-9.1551527
11
41.8954251
21
-9.0555062
0
LINE
8
layer0
10
41.8954251
20
-9.0555062
11
41.8914431
21
-8.9708173
0
LINE
8
layer0
10
41.8914431
20
-8.9708173
11
41.8930281
21
-8.8484211
0
LINE
8
layer0
10
41.8930281
20
-8.8484211
11
41.9120919
21
-8.6800591
0
LINE
8
layer0
10
41.9120919
20
-8.6800591
11
41.9154675
21
-8.5725892
0
LINE
8
layer0
10
41.9154675
20
-8.5725892
11
41.907691
21
-8.4803579
0
LINE
8
layer0
10
41.907691
20
-8.4803579
11
41.9000277
21
-8.4401875
0
LINE
8
layer0
10
41.9000277
20
-8.4401875
11
41.8900674
21
-8.4040775
0
LINE
8
layer0
10
41.8900674
20
-8.4040775
11
41.8779699
21
-8.3721301
0
LINE
8
layer0
10
41.8779699
20
-8.3721301
11
41.8639071
21
-8.3443993
0
LINE
8
layer0
10
41.8639071
20
-8.3443993
11
41.8480583
21
-8.3209512
0
LINE
8
layer0
10
41.8480583
20
-8.3209512
11
41.8305906
21
-8.3018589
0
LINE
8
layer0
10
41.8305906
20
-8.3018589
11
41.8116908
21
-8.2871595
0
LINE
8
layer0
10
41.8116908
20
-8.2871595
11
41.7915162
21
-8.2769237
0
LINE
8
layer0
10
41.7915162
20
-8.2769237
11
41.7756711
21
-8.2721994
0
LINE
8
layer0
10
41.7756711
20
-8.2721994
11
41.6190478
21
-8.2380249
0
LINE
8
layer0
10
41.6190478
20
-8.2380249
11
41.4256476
21
-8.1914322
0
LINE
8
layer0
10
41.4256476
20
-8.1914322
11
41.2333816
21
-8.140361
0
LINE
8
layer0
10
41.2333816
20
-8.140361
11
41.0793703
21
-8.0958721
0
LINE
8
layer0
10
41.0793703
20
-8.0958721
11
41.0631864
21
-8.0924855
0
LINE
8
layer0
10
41.0631864
20
-8.0924855
11
41.0405717
21
-8.0918856
0
LINE
8
layer0
10
41.0405717
20
-8.0918856
11
41.0169536
21
-8.095818
0
LINE
8
layer0
10
41.0169536
20
-8.095818
11
40.9925044
21
-8.1042955
0
LINE
8
layer0
10
40.9925044
20
-8.1042955
11
40.9674057
21
-8.1173743
0
LINE
8
layer0
10
40.9674057
20
-8.1173743
11
40.9418394
21
-8.1350697
0
LINE
8
layer0
10
40.9418394
20
-8.1350697
11
40.9159947
21
-8.1574087
0
LINE
8
layer0
10
40.9159947
20
-8.1574087
11
40.8900484
21
-8.184426
0
LINE
8
layer0
10
40.8900484
20
-8.184426
11
40.8641897
21
-8.2161075
0
LINE
8
layer0
10
40.8641897
20
-8.2161075
11
40.8134533
21
-8.2935213
0
LINE
8
layer0
10
40.8134533
20
-8.2935213
11
40.765272
21
-8.3896449
0
LINE
8
layer0
10
40.765272
20
-8.3896449
11
40.7019066
21
-8.5467881
0
LINE
8
layer0
10
40.7019066
20
-8.5467881
11
40.6450464
21
-8.6551867
0
LINE
8
layer0
10
40.6450464
20
-8.6551867
11
40.6012369
21
-8.7277733
0
LINE
8
layer0
10
40.6012369
20
-8.7277733
11
40.5460098
21
-8.8111883
0
LINE
8
layer0
10
40.5460098
20
-8.8111883
11
40.4783219
21
-8.9047447
0
LINE
8
layer0
10
40.4783219
20
-8.9047447
11
40.3960153
21
-9.0089792
0
LINE
8
layer0
10
40.3960153
20
-9.0089792
11
40.300321
21
-9.1202526
0
LINE
8
layer0
10
40.300321
20
-9.1202526
11
40.1893196
21
-9.238935
0
LINE
8
layer0
10
40.1893196
20
-9.238935
11
40.0615231
21
-9.3645877
0
LINE
8
layer0
10
40.0615231
20
-9.3645877
11
39.9179954
21
-9.4943546
0
LINE
8
layer0
10
39.9179954
20
-9.4943546
11
39.7564505
21
-9.6285851
0
LINE
8
layer0
10
39.7564505
20
-9.6285851
11
39.5995777
21
-9.7486598
0
ARC
8
layer0
10
43.5000073
20
0.0000144
40
10.5
50
244.4378417
51
248.1937271
0
LINE
8
layer0
10
38.969362
20
-9.4722215
11
38.9514568
21
-9.2754821
0
LINE
8
layer0
10
38.9514568
20
-9.2754821
11
38.9408021
21
-9.0657179
0
LINE
8
layer0
10
38.9408021
20
-9.0657179
11
38.9390659
21
-8.8722323
0
LINE
8
layer0
10
38.9390659
20
-8.8722323
11
38.9449575
21
-8.6931071
0
LINE
8
layer0
10
38.9449575
20
-8.6931071
11
38.9570957
21
-8.5310593
0
LINE
8
layer0
10
38.9570957
20
-8.5310593
11
38.9741503
21
-8.3852914
0
LINE
8
layer0
10
38.9741503
20
-8.3852914
11
38.9950933
21
-8.2541403
0
LINE
8
layer0
10
38.9950933
20
-8.2541403
11
39.0180812
21
-8.1409767
0
LINE
8
layer0
10
39.0180812
20
-8.1409767
11
39.0420473
21
-8.0438493
0
LINE
8
layer0
10
39.0420473
20
-8.0438493
11
39.0657796
21
-7.9624561
0
LINE
8
layer0
10
39.0657796
20
-7.9624561
11
39.1070207
21
-7.8472063
0
LINE
8
layer0
10
39.1070207
20
-7.8472063
11
39.1797186
21
-7.6941566
0
LINE
8
layer0
10
39.1797186
20
-7.6941566
11
39.2178067
21
-7.5936058
0
LINE
8
layer0
10
39.2178067
20
-7.5936058
11
39.2403989
21
-7.5038469
0
LINE
8
layer0
10
39.2403989
20
-7.5038469
11
39.2461942
21
-7.4633647
0
LINE
8
layer0
10
39.2461942
20
-7.4633647
11
39.2484985
21
-7.4259771
0
LINE
8
layer0
10
39.2484985
20
-7.4259771
11
39.2474297
21
-7.3918327
0
LINE
8
layer0
10
39.2474297
20
-7.3918327
11
39.2431331
21
-7.3610382
0
LINE
8
layer0
10
39.2431331
20
-7.3610382
11
39.2357566
21
-7.3337145
0
LINE
8
layer0
10
39.2357566
20
-7.3337145
11
39.2254347
21
-7.309985
0
LINE
8
layer0
10
39.2254347
20
-7.309985
11
39.2123318
21
-7.2899452
0
LINE
8
layer0
10
39.2123318
20
-7.2899452
11
39.1965738
21
-7.2737134
0
LINE
8
layer0
10
39.1965738
20
-7.2737134
11
39.1831212
21
-7.2641001
0
LINE
8
layer0
10
39.1831212
20
-7.2641001
11
39.0460807
21
-7.1809218
0
LINE
8
layer0
10
39.0460807
20
-7.1809218
11
38.8782881
21
-7.0740567
0
LINE
8
layer0
10
38.8782881
20
-7.0740567
11
38.7130224
21
-6.963324
0
LINE
8
layer0
10
38.7130224
20
-6.963324
11
38.5818013
21
-6.8712382
0
LINE
8
layer0
10
38.5818013
20
-6.8712382
11
38.5675939
21
-6.8627803
0
LINE
8
layer0
10
38.5675939
20
-6.8627803
11
38.5463993
21
-6.8548698
0
LINE
8
layer0
10
38.5463993
20
-6.8548698
11
38.5227841
21
-6.8509204
0
LINE
8
layer0
10
38.5227841
20
-6.8509204
11
38.496907
21
-6.8509999
0
LINE
8
layer0
10
38.496907
20
-6.8509999
11
38.4689215
21
-6.8552206
0
LINE
8
layer0
10
38.4689215
20
-6.8552206
11
38.4389948
21
-6.8636558
0
LINE
8
layer0
10
38.4389948
20
-6.8636558
11
38.4072969
21
-6.8763927
0
LINE
8
layer0
10
38.4072969
20
-6.8763927
11
38.373984
21
-6.8935213
0
LINE
8
layer0
10
38.373984
20
-6.8935213
11
38.3392395
21
-6.91509
0
LINE
8
layer0
10
38.3392395
20
-6.91509
11
38.2661158
21
-6.9718352
0
LINE
8
layer0
10
38.2661158
20
-6.9718352
11
38.1893339
21
-7.047106
0
LINE
8
layer0
10
38.1893339
20
-7.047106
11
38.0783775
21
-7.1751601
0
LINE
8
layer0
10
38.0783775
20
-7.1751601
11
37.9894012
21
-7.259223
0
LINE
8
layer0
10
37.9894012
20
-7.259223
11
37.9243966
21
-7.3136516
0
LINE
8
layer0
10
37.9243966
20
-7.3136516
11
37.845077
21
-7.3746148
0
LINE
8
layer0
10
37.845077
20
-7.3746148
11
37.7506788
21
-7.4411238
0
LINE
8
layer0
10
37.7506788
20
-7.4411238
11
37.638987
21
-7.5129856
0
LINE
8
layer0
10
37.638987
20
-7.5129856
11
37.5123473
21
-7.5871581
0
LINE
8
layer0
10
37.5123473
20
-7.5871581
11
37.3688241
21
-7.6633678
0
LINE
8
layer0
10
37.3688241
20
-7.6633678
11
37.2071526
21
-7.7407169
0
LINE
8
layer0
10
37.2071526
20
-7.7407169
11
37.0292664
21
-7.8168492
0
LINE
8
layer0
10
37.0292664
20
-7.8168492
11
36.8328899
21
-7.8913532
0
LINE
8
layer0
10
36.8328899
20
-7.8913532
11
36.6455287
21
-7.9539855
0
ARC
8
layer0
10
43.5000107
20
0.000012
40
10.5
50
225.4904794
51
229.2463652
0
LINE
8
layer0
10
36.1392192
20
-7.4878947
11
36.1861653
21
-7.2960014
0
LINE
8
layer0
10
36.1861653
20
-7.2960014
11
36.2441982
21
-7.0941431
0
LINE
8
layer0
10
36.2441982
20
-7.0941431
11
36.3053808
21
-6.9105774
0
LINE
8
layer0
10
36.3053808
20
-6.9105774
11
36.369115
21
-6.7430707
0
LINE
8
layer0
10
36.369115
20
-6.7430707
11
36.4332124
21
-6.5937444
0
LINE
8
layer0
10
36.4332124
20
-6.5937444
11
36.4966737
21
-6.4614121
0
LINE
8
layer0
10
36.4966737
20
-6.4614121
11
36.5590666
21
-6.3441674
0
LINE
8
layer0
10
36.5590666
20
-6.3441674
11
36.6175531
21
-6.2445994
0
LINE
8
layer0
10
36.6175531
20
-6.2445994
11
36.6717579
21
-6.1605165
0
LINE
8
layer0
10
36.6717579
20
-6.1605165
11
36.7206326
21
-6.0912392
0
LINE
8
layer0
10
36.7206326
20
-6.0912392
11
36.7970607
21
-5.995625
0
LINE
8
layer0
10
36.7970607
20
-5.995625
11
36.9155147
21
-5.8744729
0
LINE
8
layer0
10
36.9155147
20
-5.8744729
11
36.9841879
21
-5.7917374
0
LINE
8
layer0
10
36.9841879
20
-5.7917374
11
37.0347008
21
-5.7141775
0
LINE
8
layer0
10
37.0347008
20
-5.7141775
11
37.0533266
21
-5.6777706
0
LINE
8
layer0
10
37.0533266
20
-5.6777706
11
37.0676458
21
-5.6431569
0
LINE
8
layer0
10
37.0676458
20
-5.6431569
11
37.0777216
21
-5.6105155
0
LINE
8
layer0
10
37.0777216
20
-5.6105155
11
37.0836566
21
-5.5799945
0
LINE
8
layer0
10
37.0836566
20
-5.5799945
11
37.0855519
21
-5.551756
0
LINE
8
layer0
10
37.0855519
20
-5.551756
11
37.0834942
21
-5.5259607
0
LINE
8
layer0
10
37.0834942
20
-5.5259607
11
37.0776081
21
-5.5027523
0
LINE
8
layer0
10
37.0776081
20
-5.5027523
11
37.0679745
21
-5.4822833
0
LINE
8
layer0
10
37.0679745
20
-5.4822833
11
37.0583722
21
-5.4688229
0
LINE
8
layer0
10
37.0583722
20
-5.4688229
11
36.9557648
21
-5.3456544
0
LINE
8
layer0
10
36.9557648
20
-5.3456544
11
36.8317627
21
-5.1900974
0
LINE
8
layer0
10
36.8317627
20
-5.1900974
11
36.7114064
21
-5.0317028
0
LINE
8
layer0
10
36.7114064
20
-5.0317028
11
36.6171955
21
-4.9019991
0
LINE
8
layer0
10
36.6171955
20
-4.9019991
11
36.6065042
21
-4.8893863
0
LINE
8
layer0
10
36.6065042
20
-4.8893863
11
36.5890265
21
-4.8750226
0
LINE
8
layer0
10
36.5890265
20
-4.8750226
11
36.5679732
21
-4.8636193
0
LINE
8
layer0
10
36.5679732
20
-4.8636193
11
36.5434723
21
-4.8552922
0
LINE
8
layer0
10
36.5434723
20
-4.8552922
11
36.5156327
21
-4.8501973
0
LINE
8
layer0
10
36.5156327
20
-4.8501973
11
36.4845886
21
-4.8484583
0
LINE
8
layer0
10
36.4845886
20
-4.8484583
11
36.4504726
21
-4.8502128
0
LINE
8
layer0
10
36.4504726
20
-4.8502128
11
36.4134029
21
-4.8555966
0
LINE
8
layer0
10
36.4134029
20
-4.8555966
11
36.3735377
21
-4.8647151
0
LINE
8
layer0
10
36.3735377
20
-4.8647151
11
36.2859509
21
-4.8946425
0
LINE
8
layer0
10
36.2859509
20
-4.8946425
11
36.1888888
21
-4.9409039
0
LINE
8
layer0
10
36.1888888
20
-4.9409039
11
36.0423653
21
-5.0259922
0
LINE
8
layer0
10
36.0423653
20
-5.0259922
11
35.9309148
21
-5.0766097
0
LINE
8
layer0
10
35.9309148
20
-5.0766097
11
35.8517593
21
-5.1069823
0
LINE
8
layer0
10
35.8517593
20
-5.1069823
11
35.7569428
21
-5.1388873
0
LINE
8
layer0
10
35.7569428
20
-5.1388873
11
35.646064
21
-5.1711416
0
LINE
8
layer0
10
35.646064
20
-5.1711416
11
35.5170904
21
-5.2028435
0
LINE
8
layer0
10
35.5170904
20
-5.2028435
11
35.3732286
21
-5.2318772
0
LINE
8
layer0
10
35.3732286
20
-5.2318772
11
35.2127367
21
-5.2573559
0
LINE
8
layer0
10
35.2127367
20
-5.2573559
11
35.0347098
21
-5.2780193
0
LINE
8
layer0
10
35.0347098
20
-5.2780193
11
34.8417418
21
-5.292267
0
LINE
8
layer0
10
34.8417418
20
-5.292267
11
34.6318141
21
-5.2989708
0
LINE
8
layer0
10
34.6318141
20
-5.2989708
11
34.434268
21
-5.2973734
0
ARC
8
layer0
10
43.5000139
20
0.0000082
40
10.5
50
206.5431131
51
210.2989985
0
LINE
8
layer0
10
34.1067312
20
-4.6921383
11
34.2134413
21
-4.5258856
0
LINE
8
layer1
10
34.2134413
20
-4.5258856
11
34.3338731
21
-4.3538079
0
LINE
8
layer1
10
34.3338731
20
-4.3538079
11
34.4513443
21
-4.2000542
0
LINE
8
layer1
10
34.4513443
20
-4.2000542
11
34.5660145
21
-4.0623179
0
LINE
8
layer1
10
34.5660145
20
-4.0623179
11
34.6751251
21
-3.9418949
0
LINE
8
layer1
10
34.6751251
20
-3.9418949
11
34.7781161
21
-3.8373387
0
LINE
8
layer1
10
34.7781161
20
-3.8373387
11
34.8751977
21
-3.7467056
0
LINE
8
layer1
10
34.8751977
20
-3.7467056
11
34.9628449
21
-3.671523
0
LINE
8
layer1
10
34.9628449
20
-3.671523
11
35.0414144
21
-3.6095961
0
LINE
8
layer1
10
35.0414144
20
-3.6095961
11
35.1101353
21
-3.5599421
0
LINE
8
layer1
10
35.1101353
20
-3.5599421
11
35.2134682
21
-3.4943246
0
LINE
8
layer1
10
35.2134682
20
-3.4943246
11
35.3648421
21
-3.4181989
0
LINE
8
layer1
10
35.3648421
20
-3.4181989
11
35.4566585
21
-3.3622444
0
LINE
8
layer1
10
35.4566585
20
-3.3622444
11
35.5296181
21
-3.3052884
0
LINE
8
layer1
10
35.5296181
20
-3.3052884
11
35.5590561
21
-3.2769019
0
LINE
8
layer1
10
35.5590561
20
-3.2769019
11
35.5838384
21
-3.2488131
0
LINE
8
layer1
10
35.5838384
20
-3.2488131
11
35.6039669
21
-3.2212119
0
LINE
8
layer1
10
35.6039669
20
-3.2212119
11
35.6194906
21
-3.1942717
0
LINE
8
layer1
10
35.6194906
20
-3.1942717
11
35.6304521
21
-3.1681787
0
LINE
8
layer1
10
35.6304521
20
-3.1681787
11
35.6368816
21
-3.1431129
0
LINE
8
layer1
10
35.6368816
20
-3.1431129
11
35.6388503
21
-3.1192507
0
LINE
8
layer1
10
35.6388503
20
-3.1192507
11
35.6363849
21
-3.0967628
0
LINE
8
layer1
10
35.6363849
20
-3.0967628
11
35.6316735
21
-3.0809139
0
LINE
8
layer1
10
35.6316735
20
-3.0809139
11
35.5746184
21
-2.9311024
0
LINE
8
layer1
10
35.5746184
20
-2.9311024
11
35.5078443
21
-2.7437105
0
LINE
8
layer1
10
35.5078443
20
-2.7437105
11
35.4454399
21
-2.5548185
0
LINE
8
layer1
10
35.4454399
20
-2.5548185
11
35.3984483
21
-2.4015523
0
LINE
8
layer1
10
35.3984483
20
-2.4015523
11
35.3924317
21
-2.3861514
0
LINE
8
layer1
10
35.3924317
20
-2.3861514
11
35.3805648
21
-2.366891
0
LINE
8
layer1
10
35.3805648
20
-2.366891
11
35.3643549
21
-2.3492696
0
LINE
8
layer1
10
35.3643549
20
-2.3492696
11
35.3438854
21
-2.3334382
0
LINE
8
layer1
10
35.3438854
20
-2.3334382
11
35.3192085
21
-2.3195799
0
LINE
8
layer1
10
35.3192085
20
-2.3195799
11
35.2904112
21
-2.3078551
0
LINE
8
layer1
10
35.2904112
20
-2.3078551
11
35.2575739
21
-2.298437
0
LINE
8
layer1
10
35.2575739
20
-2.298437
11
35.2207647
21
-2.2914927
0
LINE
8
layer1
10
35.2207647
20
-2.2914927
11
35.1800986
21
-2.2871729
0
LINE
8
layer1
10
35.1800986
20
-2.2871729
11
35.0875402
21
-2.2870393
0
LINE
8
layer1
10
35.0875402
20
-2.2870393
11
34.9807161
21
-2.2992782
0
LINE
8
layer1
10
34.9807161
20
-2.2992782
11
34.8145035
21
-2.3321801
0
LINE
8
layer1
10
34.8145035
20
-2.3321801
11
34.6926562
21
-2.343867
0
LINE
8
layer1
10
34.6926562
20
-2.343867
11
34.6079277
21
-2.3468923
0
LINE
8
layer1
10
34.6079277
20
-2.3468923
11
34.507889
21
-2.3462817
0
LINE
8
layer1
10
34.507889
20
-2.3462817
11
34.392545
21
-2.3407861
0
LINE
8
layer1
10
34.392545
20
-2.3407861
11
34.2602659
21
-2.3288926
0
LINE
8
layer1
10
34.2602659
20
-2.3288926
11
34.1147718
21
-2.3096414
0
LINE
8
layer1
10
34.1147718
20
-2.3096414
11
33.9547028
21
-2.2816278
0
LINE
8
layer1
10
33.9547028
20
-2.2816278
11
33.7796125
21
-2.2433664
0
LINE
8
layer1
10
33.7796125
20
-2.2433664
11
33.5924738
21
-2.1941855
0
LINE
8
layer1
10
33.5924738
20
-2.1941855
11
33.3917438
21
-2.1323627
0
LINE
8
layer1
10
33.3917438
20
-2.1323627
11
33.2054201
21
-2.0667088
0
ARC
8
layer1
10
43.500016
20
0.0000026
40
10.5
50
187.5957413
51
191.3516269
0
LINE
8
layer1
10
33.0921496
20
-1.3879159
11
33.24706
21
-1.26532
0
LINE
8
layer1
10
33.24706
20
-1.26532
11
33.41684
21
-1.14167
0
LINE
8
layer1
10
33.41684
20
-1.14167
11
33.57787
21
-1.03439
0
LINE
8
layer1
10
33.57787
20
-1.03439
11
33.73105
21
-0.94135
0
LINE
8
layer1
10
33.73105
20
-0.94135
11
33.87335
21
-0.86288
0
LINE
8
layer1
10
33.87335
20
-0.86288
11
34.00471
21
-0.79743
0
LINE
8
layer1
10
34.00471
20
-0.79743
11
34.12596
21
-0.74323
0
LINE
8
layer1
10
34.12596
20
-0.74323
11
34.23327
21
-0.70058
0
LINE
8
layer1
10
34.23327
20
-0.70058
11
34.32769
21
-0.66752
0
LINE
8
layer1
10
34.32769
20
-0.66752
11
34.40881
21
-0.64287
0
LINE
8
layer1
10
34.40881
20
-0.64287
11
34.52785
21
-0.61436
0
LINE
8
layer1
10
34.52785
20
-0.61436
11
34.69574
21
-0.59151
0
LINE
8
layer1
10
34.69574
20
-0.59151
11
34.80075
21
-0.5684
0
LINE
8
layer1
10
34.80075
20
-0.5684
11
34.88825
21
-0.53822
0
LINE
8
layer1
10
34.88825
20
-0.53822
11
34.92531
21
-0.52093
0
LINE
8
layer1
10
34.92531
20
-0.52093
11
34.95787
21
-0.50241
0
LINE
8
layer1
10
34.95787
20
-0.50241
11
34.98587
21
-0.48284
0
LINE
8
layer1
10
34.98587
20
-0.48284
11
35.0093
21
-0.4624
0
LINE
8
layer1
10
35.0093
20
-0.4624
11
35.02814
21
-0.44128
0
LINE
8
layer1
10
35.02814
20
-0.44128
11
35.04236
21
-0.41966
0
LINE
8
layer1
10
35.04236
20
-0.41966
11
35.05197
21
-0.39773
0
LINE
8
layer1
10
35.05197
20
-0.39773
11
35.05694
21
-0.37566
0
LINE
8
layer1
10
35.05694
20
-0.37566
11
35.05763
21
-0.35914
0
LINE
8
layer1
10
35.05763
20
-0.35914
11
35.05231
21
-0.19892
0
LINE
8
layer1
10
35.05231
20
-0.19892
11
35.05
21
0
0
LINE
8
layer1
10
35.05
20
0
11
35.05231
21
0.19892
0
LINE
8
layer1
10
35.05231
20
0.19892
11
35.05763
21
0.35914
0
LINE
8
layer1
10
35.05763
20
0.35914
11
35.05694
21
0.37566
0
LINE
8
layer1
10
35.05694
20
0.37566
11
35.05197
21
0.39773
0
LINE
8
layer1
10
35.05197
20
0.39773
11
35.04236
21
0.41966
0
LINE
8
layer1
10
35.04236
20
0.41966
11
35.02814
21
0.44128
0
LINE
8
layer1
10
35.02814
20
0.44128
11
35.0093
21
0.4624
0
LINE
8
layer1
10
35.0093
20
0.4624
11
34.98587
21
0.48284
0
LINE
8
layer1
10
34.98587
20
0.48284
11
34.95787
21
0.50241
0
LINE
8
layer1
10
34.95787
20
0.50241
11
34.92531
21
0.52093
0
LINE
8
layer1
10
34.92531
20
0.52093
11
34.88825
21
0.53822
0
LINE
8
layer1
10
34.88825
20
0.53822
11
34.80075
21
0.5684
0
LINE
8
layer1
10
34.80075
20
0.5684
11
34.69574
21
0.59151
0
LINE
8
layer1
10
34.69574
20
0.59151
11
34.52785
21
0.61436
0
LINE
8
layer1
10
34.52785
20
0.61436
11
34.40881
21
0.64287
0
LINE
8
layer1
10
34.40881
20
0.64287
11
34.32769
21
0.66752
0
LINE
8
layer1
10
34.32769
20
0.66752
11
34.23327
21
0.70058
0
LINE
8
layer1
10
34.23327
20
0.70058
11
34.12596
21
0.74323
0
LINE
8
layer1
10
34.12596
20
0.74323
11
34.00471
21
0.79743
0
LINE
8
layer1
10
34.00471
20
0.79743
11
33.87335
21
0.86288
0
LINE
8
layer1
10
33.87335
20
0.86288
11
33.73105
21
0.94135
0
LINE
8
layer1
10
33.73105
20
0.94135
11
33.57787
21
1.03439
0
LINE
8
layer1
10
33.57787
20
1.03439
11
33.41684
21
1.14167
0
LINE
8
layer1
10
33.41684
20
1.14167
11
33.24706
21
1.26532
0
LINE
8
layer1
10
33.24706
20
1.26532
11
33.0921496
21
1.3879159
0
ARC
8
layer1
10
43.500016
20
-0.0000026
40
10.5
50
168.6483731
51
172.4042587
0
LINE
8
layer1
10
33.2054201
20
2.0667088
11
33.3917438
21
2.1323627
0
LINE
8
layer1
10
33.3917438
20
2.1323627
11
33.5924738
21
2.1941855
0
LINE
8
layer1
10
33.5924738
20
2.1941855
11
33.7796125
21
2.2433664
0
LINE
8
layer1
10
33.7796125
20
2.2433664
11
33.9547028
21
2.2816278
0
LINE
8
layer1
10
33.9547028
20
2.2816278
11
34.1147718
21
2.3096414
0
LINE
8
layer1
10
34.1147718
20
2.3096414
11
34.2602659
21
2.3288926
0
LINE
8
layer1
10
34.2602659
20
2.3288926
11
34.392545
21
2.3407861
0
LINE
8
layer1
10
34.392545
20
2.3407861
11
34.507889
21
2.3462817
0
LINE
8
layer1
10
34.507889
20
2.3462817
11
34.6079277
21
2.3468923
0
LINE
8
layer1
10
34.6079277
20
2.3468923
11
34.6926562
21
2.343867
0
LINE
8
layer1
10
34.6926562
20
2.343867
11
34.8145035
21
2.3321801
0
LINE
8
layer1
10
34.8145035
20
2.3321801
11
34.9807161
21
2.2992782
0
LINE
8
layer1
10
34.9807161
20
2.2992782
11
35.0875402
21
2.2870393
0
LINE
8
layer1
10
35.0875402
20
2.2870393
11
35.1800986
21
2.2871729
0
LINE
8
layer1
10
35.1800986
20
2.2871729
11
35.2207647
21
2.2914927
0
LINE
8
layer1
10
35.2207647
20
2.2914927
11
35.2575739
21
2.298437
0
LINE
8
layer1
10
35.2575739
20
2.298437
11
35.2904112
21
2.3078551
0
LINE
8
layer1
10
35.2904112
20
2.3078551
11
35.3192085
21
2.3195799
0
LINE
8
layer1
10
35.3192085
20
2.3195799
11
35.3438854
21
2.3334382
0
LINE
8
layer1
10
35.3438854
20
2.3334382
11
35.3643549
21
2.3492696
0
LINE
8
layer1
10
35.3643549
20
2.3492696
11
35.3805648
21
2.366891
0
LINE
8
layer1
10
35.3805648
20
2.366891
11
35.3924317
21
2.3861514
0
LINE
8
layer1
10
35.3924317
20
2.3861514
11
35.3984483
21
2.4015523
0
LINE
8
layer1
10
35.3984483
20
2.4015523
11
35.4454399
21
2.5548185
0
LINE
8
layer1
10
35.4454399
20
2.5548185
11
35.5078443
21
2.7437105
0
LINE
8
layer1
10
35.5078443
20
2.7437105
11
35.5746184
21
2.9311024
0
LINE
8
layer1
10
35.5746184
20
2.9311024
11
35.6316735
21
3.0809139
0
LINE
8
layer1
10
35.6316735
20
3.0809139
11
35.6363849
21
3.0967628
0
LINE
8
layer1
10
35.6363849
20
3.0967628
11
35.6388503
21
3.1192507
0
LINE
8
layer1
10
35.6388503
20
3.1192507
11
35.6368816
21
3.1431129
0
LINE
8
layer1
10
35.6368816
20
3.1431129
11
35.6304521
21
3.1681787
0
LINE
8
layer1
10
35.6304521
20
3.1681787
11
35.6194906
21
3.1942717
0
LINE
8
layer1
10
35.6194906
20
3.1942717
11
35.6039669
21
3.2212119
0
LINE
8
layer1
10
35.6039669
20
3.2212119
11
35.5838384
21
3.2488131
0
LINE
8
layer1
10
35.5838384
20
3.2488131
11
35.5590561
21
3.2769019
0
LINE
8
layer1
10
35.5590561
20
3.2769019
11
35.5296181
21
3.3052884
0
LINE
8
layer1
10
35.5296181
20
3.3052884
11
35.4566585
21
3.3622444
0
LINE
8
layer1
10
35.4566585
20
3.3622444
11
35.3648421
21
3.4181989
0
LINE
8
layer1
10
35.3648421
20
3.4181989
11
35.2134682
21
3.4943246
0
LINE
8
layer1
10
35.2134682
20
3.4943246
11
35.1101353
21
3.5599421
0
LINE
8
layer1
10
35.1101353
20
3.5599421
11
35.0414144
21
3.6095961
0
LINE
8
layer1
10
35.0414144
20
3.6095961
11
34.9628449
21
3.671523
0
LINE
8
layer1
10
34.9628449
20
3.671523
11
34.8751977
21
3.7467056
0
LINE
8
layer1
10
34.8751977
20
3.7467056
11
34.7781161
21
3.8373387
0
LINE
8
layer1
10
34.7781161
20
3.8373387
11
34.6751251
21
3.9418949
0
LINE
8
layer1
10
34.6751251
20
3.9418949
11
34.5660145
21
4.0623179
0
LINE
8
layer1
10
34.5660145
20
4.0623179
11
34.4513443
21
4.2000542
0
LINE
8
layer1
10
34.4513443
20
4.2000542
11
34.3338731
21
4.3538079
0
LINE
8
layer1
10
34.3338731
20
4.3538079
11
34.2134413
21
4.5258856
0
LINE
8
layer1
10
34.2134413
20
4.5258856
11
34.1067312
21
4.6921383
0
ARC
8
layer1
10
43.500014
20
-0.0000082
40
10.5
50
149.7010015
51
153.4568869
0
LINE
8
layer1
10
34.434268
20
5.2973734
11
34.6318141
21
5.2989708
0
LINE
8
layer1
10
34.6318141
20
5.2989708
11
34.8417418
21
5.292267
0
LINE
8
layer1
10
34.8417418
20
5.292267
11
35.0347098
21
5.2780193
0
LINE
8
layer1
10
35.0347098
20
5.2780193
11
35.2127367
21
5.2573559
0
LINE
8
layer1
10
35.2127367
20
5.2573559
11
35.3732286
21
5.2318772
0
LINE
8
layer1
10
35.3732286
20
5.2318772
11
35.5170904
21
5.2028435
0
LINE
8
layer1
10
35.5170904
20
5.2028435
11
35.646064
21
5.1711416
0
LINE
8
layer1
10
35.646064
20
5.1711416
11
35.7569428
21
5.1388873
0
LINE
8
layer1
10
35.7569428
20
5.1388873
11
35.8517593
21
5.1069823
0
LINE
8
layer1
10
35.8517593
20
5.1069823
11
35.9309148
21
5.0766097
0
LINE
8
layer1
10
35.9309148
20
5.0766097
11
36.0423653
21
5.0259922
0
LINE
8
layer1
10
36.0423653
20
5.0259922
11
36.1888888
21
4.9409039
0
LINE
8
layer1
10
36.1888888
20
4.9409039
11
36.2859509
21
4.8946425
0
LINE
8
layer1
10
36.2859509
20
4.8946425
11
36.3735377
21
4.8647151
0
LINE
8
layer1
10
36.3735377
20
4.8647151
11
36.4134029
21
4.8555966
0
LINE
8
layer1
10
36.4134029
20
4.8555966
11
36.4504726
21
4.8502128
0
LINE
8
layer1
10
36.4504726
20
4.8502128
11
36.4845886
21
4.8484583
0
LINE
8
layer1
10
36.4845886
20
4.8484583
11
36.5156327
21
4.8501973
0
LINE
8
layer1
10
36.5156327
20
4.8501973
11
36.5434723
21
4.8552922
0
LINE
8
layer1
10
36.5434723
20
4.8552922
11
36.5679732
21
4.8636193
0
LINE
8
layer1
10
36.5679732
20
4.8636193
11
36.5890265
21
4.8750226
0
LINE
8
layer1
10
36.5890265
20
4.8750226
11
36.6065042
21
4.8893863
0
LINE
8
layer1
10
36.6065042
20
4.8893863
11
36.6171955
21
4.9019991
0
LINE
8
layer1
10
36.6171955
20
4.9019991
11
36.7114064
21
5.0317028
0
LINE
8
layer1
10
36.7114064
20
5.0317028
11
36.8317627
21
5.1900974
0
LINE
8
layer1
10
36.8317627
20
5.1900974
11
36.9557648
21
5.3456544
0
LINE
8
layer1
10
36.9557648
20
5.3456544
11
37.0583722
21
5.4688229
0
LINE
8
layer1
10
37.0583722
20
5.4688229
11
37.0679745
21
5.4822833
0
LINE
8
layer1
10
37.0679745
20
5.4822833
11
37.0776081
21
5.5027523
0
LINE
8
layer1
10
37.0776081
20
5.5027523
11
37.0834942
21
5.5259607
0
LINE
8
layer1
10
37.0834942
20
5.5259607
11
37.0855519
21
5.551756
0
LINE
8
layer1
10
37.0855519
20
5.551756
11
37.0836566
21
5.5799945
0
LINE
8
layer1
10
37.0836566
20
5.5799945
11
37.0777216
21
5.6105155
0
LINE
8
layer1
10
37.0777216
20
5.6105155
11
37.0676458
21
5.6431569
0
LINE
8
layer1
10
37.0676458
20
5.6431569
11
37.0533266
21
5.6777706
0
LINE
8
layer1
10
37.0533266
20
5.6777706
11
37.0347008
21
5.7141775
0
LINE
8
layer1
10
37.0347008
20
5.7141775
11
36.9841879
21
5.7917374
0
LINE
8
layer1
10
36.9841879
20
5.7917374
11
36.9155147
21
5.8744729
0
LINE
8
layer1
10
36.9155147
20
5.8744729
11
36.7970607
21
5.995625
0
LINE
8
layer1
10
36.7970607
20
5.995625
11
36.7206326
21
6.0912392
0
LINE
8
layer1
10
36.7206326
20
6.0912392
11
36.6717579
21
6.1605165
0
LINE
8
layer1
10
36.6717579
20
6.1605165
11
36.6175531
21
6.2445994
0
LINE
8
layer1
10
36.6175531
20
6.2445994
11
36.5590666
21
6.3441674
0
LINE
8
layer1
10
36.5590666
20
6.3441674
11
36.4966737
21
6.4614121
0
LINE
8
layer1
10
36.4966737
20
6.4614121
11
36.4332124
21
6.5937444
0
LINE
8
layer1
10
36.4332124
20
6.5937444
11
36.369115
21
6.7430707
0
LINE
8
layer1
10
36.369115
20
6.7430707
11
36.3053808
21
6.9105774
0
LINE
8
layer1
10
36.3053808
20
6.9105774
11
36.2441982
21
7.0941431
0
LINE
8
layer1
10
36.2441982
20
7.0941431
11
36.1861653
21
7.2960014
0
LINE
8
layer1
10
36.1861653
20
7.2960014
11
36.1392192
21
7.4878947
0
ARC
8
layer1
10
43.5000108
20
-0.000012
40
10.5
50
130.7536348
51
134.5095206
0
LINE
8
layer1
10
36.6455287
20
7.9539855
11
36.8328899
21
7.8913532
0
LINE
8
layer1
10
36.8328899
20
7.8913532
11
37.0292664
21
7.8168492
0
LINE
8
layer1
10
37.0292664
20
7.8168492
11
37.2071526
21
7.7407169
0
LINE
8
layer1
10
37.2071526
20
7.7407169
11
37.3688241
21
7.6633678
0
LINE
8
layer1
10
37.3688241
20
7.6633678
11
37.5123473
21
7.5871581
0
LINE
8
layer1
10
37.5123473
20
7.5871581
11
37.638987
21
7.5129856
0
LINE
8
layer1
10
37.638987
20
7.5129856
11
37.7506788
21
7.4411238
0
LINE
8
layer1
10
37.7506788
20
7.4411238
11
37.845077
21
7.3746148
0
LINE
8
layer1
10
37.845077
20
7.3746148
11
37.9243966
21
7.3136516
0
LINE
8
layer1
10
37.9243966
20
7.3136516
11
37.9894012
21
7.259223
0
LINE
8
layer1
10
37.9894012
20
7.259223
11
38.0783775
21
7.1751601
0
LINE
8
layer1
10
38.0783775
20
7.1751601
11
38.1893339
21
7.047106
0
LINE
8
layer1
10
38.1893339
20
7.047106
11
38.2661158
21
6.9718352
0
LINE
8
layer1
10
38.2661158
20
6.9718352
11
38.3392395
21
6.91509
0
LINE
8
layer1
10
38.3392395
20
6.91509
11
38.373984
21
6.8935213
0
LINE
8
layer1
10
38.373984
20
6.8935213
11
38.4072969
21
6.8763927
0
LINE
8
layer1
10
38.4072969
20
6.8763927
11
38.4389948
21
6.8636558
0
LINE
8
layer1
10
38.4389948
20
6.8636558
11
38.4689215
21
6.8552206
0
LINE
8
layer1
10
38.4689215
20
6.8552206
11
38.496907
21
6.8509999
0
LINE
8
layer1
10
38.496907
20
6.8509999
11
38.5227841
21
6.8509204
0
LINE
8
layer1
10
38.5227841
20
6.8509204
11
38.5463993
21
6.8548698
0
LINE
8
layer1
10
38.5463993
20
6.8548698
11
38.5675939
21
6.8627803
0
LINE
8
layer1
10
38.5675939
20
6.8627803
11
38.5818013
21
6.8712382
0
LINE
8
layer1
10
38.5818013
20
6.8712382
11
38.7130224
21
6.963324
0
LINE
8
layer1
10
38.7130224
20
6.963324
11
38.8782881
21
7.0740567
0
LINE
8
layer1
10
38.8782881
20
7.0740567
11
39.0460807
21
7.1809218
0
LINE
8
layer1
10
39.0460807
20
7.1809218
11
39.1831212
21
7.2641001
0
LINE
8
layer1
10
39.1831212
20
7.2641001
11
39.1965738
21
7.2737134
0
LINE
8
layer1
10
39.1965738
20
7.2737134
11
39.2123318
21
7.2899452
0
LINE
8
layer1
10
39.2123318
20
7.2899452
11
39.2254347
21
7.309985
0
LINE
8
layer1
10
39.2254347
20
7.309985
11
39.2357566
21
7.3337145
0
LINE
8
layer1
10
39.2357566
20
7.3337145
11
39.2431331
21
7.3610382
0
LINE
8
layer1
10
39.2431331
20
7.3610382
11
39.2474297
21
7.3918327
0
LINE
8
layer1
10
39.2474297
20
7.3918327
11
39.2484985
21
7.4259771
0
LINE
8
layer1
10
39.2484985
20
7.4259771
11
39.2461942
21
7.4633647
0
LINE
8
layer1
10
39.2461942
20
7.4633647
11
39.2403989
21
7.5038469
0
LINE
8
layer1
10
39.2403989
20
7.5038469
11
39.2178067
21
7.5936058
0
LINE
8
layer1
10
39.2178067
20
7.5936058
11
39.1797186
21
7.6941566
0
LINE
8
layer1
10
39.1797186
20
7.6941566
11
39.1070207
21
7.8472063
0
LINE
8
layer1
10
39.1070207
20
7.8472063
11
39.0657796
21
7.9624561
0
LINE
8
layer1
10
39.0657796
20
7.9624561
11
39.0420473
21
8.0438493
0
LINE
8
layer1
10
39.0420473
20
8.0438493
11
39.0180812
21
8.1409767
0
LINE
8
layer1
10
39.0180812
20
8.1409767
11
38.9950933
21
8.2541403
0
LINE
8
layer1
10
38.9950933
20
8.2541403
11
38.9741503
21
8.3852914
0
LINE
8
layer1
10
38.9741503
20
8.3852914
11
38.9570957
21
8.5310593
0
LINE
8
layer1
10
38.9570957
20
8.5310593
11
38.9449575
21
8.6931071
0
LINE
8
layer1
10
38.9449575
20
8.6931071
11
38.9390659
21
8.8722323
0
LINE
8
layer1
10
38.9390659
20
8.8722323
11
38.9408021
21
9.0657179
0
LINE
8
layer1
10
38.9408021
20
9.0657179
11
38.9514568
21
9.2754821
0
LINE
8
layer1
10
38.9514568
20
9.2754821
11
38.969362
21
9.4722215
0
ARC
8
layer1
10
43.5000073
20
-0.0000144
40
10.5
50
111.8062729
51
115.5621583
0
LINE
8
layer1
10
39.5995777
20
9.7486598
11
39.7564505
21
9.6285851
0
LINE
8
layer1
10
39.7564505
20
9.6285851
11
39.9179954
21
9.4943546
0
LINE
8
layer1
10
39.9179954
20
9.4943546
11
40.0615231
21
9.3645877
0
LINE
8
layer1
10
40.0615231
20
9.3645877
11
40.1893196
21
9.238935
0
LINE
8
layer1
10
40.1893196
20
9.238935
11
40.300321
21
9.1202526
0
LINE
8
layer1
10
40.300321
20
9.1202526
11
40.3960153
21
9.0089792
0
LINE
8
layer1
10
40.3960153
20
9.0089792
11
40.4783219
21
8.9047447
0
LINE
8
layer1
10
40.4783219
20
8.9047447
11
40.5460098
21
8.8111883
0
LINE
8
layer1
10
40.5460098
20
8.8111883
11
40.6012369
21
8.7277733
0
LINE
8
layer1
10
40.6012369
20
8.7277733
11
40.6450464
21
8.6551867
0
LINE
8
layer1
10
40.6450464
20
8.6551867
11
40.7019066
21
8.5467881
0
LINE
8
layer1
10
40.7019066
20
8.5467881
11
40.765272
21
8.3896449
0
LINE
8
layer1
10
40.765272
20
8.3896449
11
40.8134533
21
8.2935213
0
LINE
8
layer1
10
40.8134533
20
8.2935213
11
40.8641897
21
8.2161075
0
LINE
8
layer1
10
40.8641897
20
8.2161075
11
40.8900484
21
8.184426
0
LINE
8
layer1
10
40.8900484
20
8.184426
11
40.9159947
21
8.1574087
0
LINE
8
layer1
10
40.9159947
20
8.1574087
11
40.9418394
21
8.1350697
0
LINE
8
layer1
10
40.9418394
20
8.1350697
11
40.9674057
21
8.1173743
0
LINE
8
layer1
10
40.9674057
20
8.1173743
11
40.9925044
21
8.1042955
0
LINE
8
layer1
10
40.9925044
20
8.1042955
11
41.0169536
21
8.095818
0
LINE
8
layer1
10
41.0169536
20
8.095818
11
41.0405717
21
8.0918856
0
LINE
8
layer1
10
41.0405717
20
8.0918856
11
41.0631864
21
8.0924855
0
LINE
8
layer1
10
41.0631864
20
8.0924855
11
41.0793703
21
8.0958721
0
LINE
8
layer1
10
41.0793703
20
8.0958721
11
41.2333816
21
8.140361
0
LINE
8
layer1
10
41.2333816
20
8.140361
11
41.4256476
21
8.1914322
0
LINE
8
layer1
10
41.4256476
20
8.1914322
11
41.6190478
21
8.2380249
0
LINE
8
layer1
10
41.6190478
20
8.2380249
11
41.7756711
21
8.2721994
0
LINE
8
layer1
10
41.7756711
20
8.2721994
11
41.7915162
21
8.2769237
0
LINE
8
layer1
10
41.7915162
20
8.2769237
11
41.8116908
21
8.2871595
0
LINE
8
layer1
10
41.8116908
20
8.2871595
11
41.8305906
21
8.3018589
0
LINE
8
layer1
10
41.8305906
20
8.3018589
11
41.8480583
21
8.3209512
0
LINE
8
layer1
10
41.8480583
20
8.3209512
11
41.8639071
21
8.3443993
0
LINE
8
layer1
10
41.8639071
20
8.3443993
11
41.8779699
21
8.3721301
0
LINE
8
layer1
10
41.8779699
20
8.3721301
11
41.8900674
21
8.4040775
0
LINE
8
layer1
10
41.8900674
20
8.4040775
11
41.9000277
21
8.4401875
0
LINE
8
layer1
10
41.9000277
20
8.4401875
11
41.907691
21
8.4803579
0
LINE
8
layer1
10
41.907691
20
8.4803579
11
41.9154675
21
8.5725892
0
LINE
8
layer1
10
41.9154675
20
8.5725892
11
41.9120919
21
8.6800591
0
LINE
8
layer1
10
41.9120919
20
8.6800591
11
41.8930281
21
8.8484211
0
LINE
8
layer1
10
41.8930281
20
8.8484211
11
41.8914431
21
8.9708173
0
LINE
8
layer1
10
41.8914431
20
8.9708173
11
41.8954251
21
9.0555062
0
LINE
8
layer1
10
41.8954251
20
9.0555062
11
41.9042947
21
9.1551527
0
LINE
8
layer1
10
41.9042947
20
9.1551527
11
41.9192966
21
9.269649
0
LINE
8
layer1
10
41.9192966
20
9.269649
11
41.942073
21
9.4004941
0
LINE
8
layer1
10
41.942073
20
9.4004941
11
41.9732732
21
9.5439016
0
LINE
8
layer1
10
41.9732732
20
9.5439016
11
42.0144095
21
9.7011105
0
LINE
8
layer1
10
42.0144095
20
9.7011105
11
42.066999
21
9.8724432
0
LINE
8
layer1
10
42.066999
20
9.8724432
11
42.1314658
21
10.0548814
0
LINE
8
layer1
10
42.1314658
20
10.0548814
11
42.2096536
21
10.2498205
0
LINE
8
layer1
10
42.2096536
20
10.2498205
11
42.2904698
21
10.4300862
0
ARC
8
layer1
10
43.5000006
20
-0.0000162
40
10.5
50
92.858895
51
96.6147807
0
LINE
8
layer1
10
42.976298
20
10.4869155
11
43.0856828
21
10.3224103
0
LINE
8
layer1
10
43.0856828
20
10.3224103
11
43.1948901
21
10.1429993
0
LINE
8
layer1
10
43.1948901
20
10.1429993
11
43.288506
21
9.9736601
0
LINE
8
layer1
10
43.288506
20
9.9736601
11
43.3685787
21
9.8133201
0
LINE
8
layer1
10
43.3685787
20
9.8133201
11
43.4350296
21
9.6650262
0
LINE
8
layer1
10
43.4350296
20
9.6650262
11
43.4894085
21
9.52871
0
LINE
8
layer1
10
43.4894085
20
9.52871
11
43.5334106
21
9.4033983
0
LINE
8
layer1
10
43.5334106
20
9.4033983
11
43.5670533
21
9.2929329
0
LINE
8
layer1
10
43.5670533
20
9.2929329
11
43.5922033
21
9.1961053
0
LINE
8
layer1
10
43.5922033
20
9.1961053
11
43.6100702
21
9.1132268
0
LINE
8
layer1
10
43.6100702
20
9.1132268
11
43.6286526
21
8.992239
0
LINE
8
layer1
10
43.6286526
20
8.992239
11
43.6375603
21
8.8230355
0
LINE
8
layer1
10
43.6375603
20
8.8230355
11
43.6519197
21
8.7164758
0
LINE
8
layer1
10
43.6519197
20
8.7164758
11
43.674771
21
8.6267824
0
LINE
8
layer1
10
43.674771
20
8.6267824
11
43.6889415
21
8.5884211
0
LINE
8
layer1
10
43.6889415
20
8.5884211
11
43.7047095
21
8.554443
0
LINE
8
layer1
10
43.7047095
20
8.554443
11
43.7219004
21
8.5249225
0
LINE
8
layer1
10
43.7219004
20
8.5249225
11
43.7403358
21
8.4998846
0
LINE
8
layer1
10
43.7403358
20
8.4998846
11
43.7598278
21
8.4793649
0
LINE
8
layer1
10
43.7598278
20
8.4793649
11
43.7801997
21
8.4634081
0
LINE
8
layer1
10
43.7801997
20
8.4634081
11
43.8012612
21
8.45202
0
LINE
8
layer1
10
43.8012612
20
8.45202
11
43.8228454
21
8.4452444
0
LINE
8
layer1
10
43.8228454
20
8.4452444
11
43.839252
21
8.4431926
0
LINE
8
layer1
10
43.839252
20
8.4431926
11
43.9993641
21
8.4352635
0
LINE
8
layer1
10
43.9993641
20
8.4352635
11
44.1977955
21
8.421139
0
LINE
8
layer1
10
44.1977955
20
8.421139
11
44.3958453
21
8.4024102
0
LINE
8
layer1
10
44.3958453
20
8.4024102
11
44.5550787
21
8.3838775
0
LINE
8
layer1
10
44.5550787
20
8.3838775
11
44.5715993
21
8.3832009
0
LINE
8
layer1
10
44.5715993
20
8.3832009
11
44.5940043
21
8.3863314
0
LINE
8
layer1
10
44.5940043
20
8.3863314
11
44.616653
21
8.3940976
0
LINE
8
layer1
10
44.616653
20
8.3940976
11
44.6393735
21
8.4064837
0
LINE
8
layer1
10
44.6393735
20
8.4064837
11
44.6619771
21
8.4235153
0
LINE
8
layer1
10
44.6619771
20
8.4235153
11
44.6842821
21
8.4451773
0
LINE
8
layer1
10
44.6842821
20
8.4451773
11
44.7060975
21
8.4714656
0
LINE
8
layer1
10
44.7060975
20
8.4714656
11
44.727243
21
8.502385
0
LINE
8
layer1
10
44.727243
20
8.502385
11
44.7475344
21
8.5378907
0
LINE
8
layer1
10
44.7475344
20
8.5378907
11
44.784837
21
8.6225996
0
LINE
8
layer1
10
44.784837
20
8.6225996
11
44.8165397
21
8.7253425
0
LINE
8
layer1
10
44.8165397
20
8.7253425
11
44.8531759
21
8.8907721
0
LINE
8
layer1
10
44.8531759
20
8.8907721
11
44.8914188
21
9.0070512
0
LINE
8
layer1
10
44.8914188
20
9.0070512
11
44.9226834
21
9.0858585
0
LINE
8
layer1
10
44.9226834
20
9.0858585
11
44.9634277
21
9.177226
0
LINE
8
layer1
10
44.9634277
20
9.177226
11
45.0147936
21
9.2806475
0
LINE
8
layer1
10
45.0147936
20
9.2806475
11
45.0788212
21
9.3970075
0
LINE
8
layer1
10
45.0788212
20
9.3970075
11
45.1548953
21
9.522514
0
LINE
8
layer1
10
45.1548953
20
9.522514
11
45.2448483
21
9.657848
0
LINE
8
layer1
10
45.2448483
20
9.657848
11
45.35022
21
9.8028216
0
LINE
8
layer1
10
45.35022
20
9.8028216
11
45.4704314
21
9.9544425
0
LINE
8
layer1
10
45.4704314
20
9.9544425
11
45.6076794
21
10.1134317
0
LINE
8
layer1
10
45.6076794
20
10.1134317
11
45.7426489
21
10.2576892
0
ARC
8
layer1
10
43.4999961
20
-0.0000156
40
10.5
50
73.911531
51
77.6674168
0
LINE
8
layer1
10
46.4097696
20
10.0887513
11
46.4598128
21
9.8976422
0
LINE
8
layer1
10
46.4598128
20
9.8976422
11
46.5048483
21
9.6924926
0
LINE
8
layer1
10
46.5048483
20
9.6924926
11
46.5384075
21
9.5019317
0
LINE
8
layer1
10
46.5384075
20
9.5019317
11
46.5620793
21
9.3242798
0
LINE
8
layer1
10
46.5620793
20
9.3242798
11
46.5767788
21
9.1624442
0
LINE
8
layer1
10
46.5767788
20
9.1624442
11
46.5839494
21
9.0158573
0
LINE
8
layer1
10
46.5839494
20
9.0158573
11
46.5848788
21
8.8830479
0
LINE
8
layer1
10
46.5848788
20
8.8830479
11
46.5808306
21
8.7676439
0
LINE
8
layer1
10
46.5808306
20
8.7676439
11
46.5731779
21
8.6678966
0
LINE
8
layer1
10
46.5731779
20
8.6678966
11
46.5631662
21
8.5837072
0
LINE
8
layer1
10
46.5631662
20
8.5837072
11
46.5414571
21
8.4632413
0
LINE
8
layer1
10
46.5414571
20
8.4632413
11
46.4949419
21
8.3003133
0
LINE
8
layer1
10
46.4949419
20
8.3003133
11
46.4739234
21
8.1948648
0
LINE
8
layer1
10
46.4739234
20
8.1948648
11
46.4664131
21
8.1026115
0
LINE
8
layer1
10
46.4664131
20
8.1026115
11
46.4673599
21
8.0617276
0
LINE
8
layer1
10
46.4673599
20
8.0617276
11
46.4712409
21
8.0244706
0
LINE
8
layer1
10
46.4712409
20
8.0244706
11
46.4779151
21
7.9909678
0
LINE
8
layer1
10
46.4779151
20
7.9909678
11
46.4872218
21
7.9613005
0
LINE
8
layer1
10
46.4872218
20
7.9613005
11
46.4989949
21
7.9355636
0
LINE
8
layer1
10
46.4989949
20
7.9355636
11
46.5130819
21
7.9138566
0
LINE
8
layer1
10
46.5130819
20
7.9138566
11
46.5293045
21
7.8962469
0
LINE
8
layer1
10
46.5293045
20
7.8962469
11
46.5475192
21
7.88283
0
LINE
8
layer1
10
46.5475192
20
7.88283
11
46.5623706
21
7.8755622
0
LINE
8
layer1
10
46.5623706
20
7.8755622
11
46.7112328
21
7.8160744
0
LINE
8
layer1
10
46.7112328
20
7.8160744
11
46.8943263
21
7.7382846
0
LINE
8
layer1
10
46.8943263
20
7.7382846
11
47.0755641
21
7.6562639
0
LINE
8
layer1
10
47.0755641
20
7.6562639
11
47.2201522
21
7.5870324
0
LINE
8
layer1
10
47.2201522
20
7.5870324
11
47.235558
21
7.5810282
0
LINE
8
layer1
10
47.235558
20
7.5810282
11
47.2577655
21
7.5767142
0
LINE
8
layer1
10
47.2577655
20
7.5767142
11
47.2817087
21
7.5767056
0
LINE
8
layer1
10
47.2817087
20
7.5767056
11
47.3072199
21
7.5810433
0
LINE
8
layer1
10
47.3072199
20
7.5810433
11
47.3341289
21
7.5898126
0
LINE
8
layer1
10
47.3341289
20
7.5898126
11
47.3622591
21
7.6030585
0
LINE
8
layer1
10
47.3622591
20
7.6030585
11
47.3914282
21
7.620839
0
LINE
8
layer1
10
47.3914282
20
7.620839
11
47.4214675
21
7.6432172
0
LINE
8
layer1
10
47.4214675
20
7.6432172
11
47.4521881
21
7.6702104
0
LINE
8
layer1
10
47.4521881
20
7.6702104
11
47.5149745
21
7.7382174
0
LINE
8
layer1
10
47.5149745
20
7.7382174
11
47.57832
21
7.8250996
0
LINE
8
layer1
10
47.57832
20
7.8250996
11
47.6666861
21
7.9696701
0
LINE
8
layer1
10
47.6666861
20
7.9696701
11
47.7406126
21
8.0672314
0
LINE
8
layer1
10
47.7406126
20
8.0672314
11
47.795772
21
8.1316171
0
LINE
8
layer1
10
47.795772
20
8.1316171
11
47.8639755
21
8.2048044
0
LINE
8
layer1
10
47.8639755
20
8.2048044
11
47.9461392
21
8.2859437
0
LINE
8
layer1
10
47.9461392
20
8.2859437
11
48.0444797
21
8.3752093
0
LINE
8
layer1
10
48.0444797
20
8.3752093
11
48.1571837
21
8.4692143
0
LINE
8
layer1
10
48.1571837
20
8.4692143
11
48.2862057
21
8.5680079
0
LINE
8
layer1
10
48.2862057
20
8.5680079
11
48.432941
21
8.6709123
0
LINE
8
layer1
10
48.432941
20
8.6709123
11
48.5958702
21
8.7752854
0
LINE
8
layer1
10
48.5958702
20
8.7752854
11
48.7773054
21
8.8810957
0
LINE
8
layer1
10
48.7773054
20
8.8810957
11
48.9518022
21
8.9737124
0
ARC
8
layer1
10
43.4999913
20
-0.0000136
40
10.5
50
54.9641635
51
58.7200491
0
LINE
8
layer1
10
49.5279224
20
8.5973143
11
49.5132011
21
8.400311
0
LINE
8
layer1
10
49.5132011
20
8.400311
11
49.4891845
21
8.191654
0
LINE
8
layer1
10
49.4891845
20
8.191654
11
49.4590503
21
8.0005216
0
LINE
8
layer1
10
49.4590503
20
8.0005216
11
49.4237561
21
7.8248091
0
LINE
8
layer1
10
49.4237561
20
7.8248091
11
49.3851112
21
7.6669693
0
LINE
8
layer1
10
49.3851112
20
7.6669693
11
49.3442966
21
7.5259965
0
LINE
8
layer1
10
49.3442966
20
7.5259965
11
49.3020525
21
7.4000814
0
LINE
8
layer1
10
49.3020525
20
7.4000814
11
49.260752
21
7.2922448
0
LINE
8
layer1
10
49.260752
20
7.2922448
11
49.2211261
21
7.2003868
0
LINE
8
layer1
10
49.2211261
20
7.2003868
11
49.1843206
21
7.1240099
0
LINE
8
layer1
10
49.1843206
20
7.1240099
11
49.1246725
21
7.01712
0
LINE
8
layer1
10
49.1246725
20
7.01712
11
49.027775
21
6.8781234
0
LINE
8
layer1
10
49.027775
20
6.8781234
11
48.9736562
21
6.7852131
0
LINE
8
layer1
10
48.9736562
20
6.7852131
11
48.9365983
21
6.7003969
0
LINE
8
layer1
10
48.9365983
20
6.7003969
11
48.9242189
21
6.6614207
0
LINE
8
layer1
10
48.9242189
20
6.6614207
11
48.9157922
21
6.6249223
0
LINE
8
layer1
10
48.9157922
20
6.6249223
11
48.9112264
21
6.5910677
0
LINE
8
layer1
10
48.9112264
20
6.5910677
11
48.9103959
21
6.559986
0
LINE
8
layer1
10
48.9103959
20
6.559986
11
48.9131744
21
6.5318208
0
LINE
8
layer1
10
48.9131744
20
6.5318208
11
48.9194498
21
6.506716
0
LINE
8
layer1
10
48.9194498
20
6.506716
11
48.9290756
21
6.4847929
0
LINE
8
layer1
10
48.9290756
20
6.4847929
11
48.9419469
21
6.4661887
0
LINE
8
layer1
10
48.9419469
20
6.4661887
11
48.9536337
21
6.4544924
0
LINE
8
layer1
10
48.9536337
20
6.4544924
11
49.0751146
21
6.3498924
0
LINE
8
layer1
10
49.0751146
20
6.3498924
11
49.2230293
21
6.216867
0
LINE
8
layer1
10
49.2230293
20
6.216867
11
49.367815
21
6.0804427
0
LINE
8
layer1
10
49.367815
20
6.0804427
11
49.4820895
21
5.9680146
0
LINE
8
layer1
10
49.4820895
20
5.9680146
11
49.494711
21
5.9573335
0
LINE
8
layer1
10
49.494711
20
5.9573335
11
49.5143145
21
5.9460425
0
LINE
8
layer1
10
49.5143145
20
5.9460425
11
49.5369576
21
5.93826
0
LINE
8
layer1
10
49.5369576
20
5.93826
11
49.5624949
21
5.9340792
0
LINE
8
layer1
10
49.5624949
20
5.9340792
11
49.5907934
21
5.933636
0
LINE
8
layer1
10
49.5907934
20
5.933636
11
49.6217003
21
5.9370304
0
LINE
8
layer1
10
49.6217003
20
5.9370304
11
49.6550623
21
5.9443763
0
LINE
8
layer1
10
49.6550623
20
5.9443763
11
49.6907402
21
5.9557882
0
LINE
8
layer1
10
49.6907402
20
5.9557882
11
49.7285609
21
5.9713439
0
LINE
8
layer1
10
49.7285609
20
5.9713439
11
49.8100272
21
6.0152794
0
LINE
8
layer1
10
49.8100272
20
6.0152794
11
49.8981511
21
6.0768858
0
LINE
8
layer1
10
49.8981511
20
6.0768858
11
50.0286712
21
6.1849306
0
LINE
8
layer1
10
50.0286712
20
6.1849306
11
50.1302703
21
6.2532019
0
LINE
8
layer1
10
50.1302703
20
6.2532019
11
50.203347
21
6.2961888
0
LINE
8
layer1
10
50.203347
20
6.2961888
11
50.2916189
21
6.3432649
0
LINE
8
layer1
10
50.2916189
20
6.3432649
11
50.3956766
21
6.3933294
0
LINE
8
layer1
10
50.3956766
20
6.3933294
11
50.5176733
21
6.4458272
0
LINE
8
layer1
10
50.5176733
20
6.4458272
11
50.6547941
21
6.4981439
0
LINE
8
layer1
10
50.6547941
20
6.4981439
11
50.8089035
21
6.5496911
0
LINE
8
layer1
10
50.8089035
20
6.5496911
11
50.9811013
21
6.599375
0
LINE
8
layer1
10
50.9811013
20
6.599375
11
51.1690924
21
6.6451899
0
LINE
8
layer1
10
51.1690924
20
6.6451899
11
51.3750535
21
6.6863552
0
LINE
8
layer1
10
51.3750535
20
6.6863552
11
51.5701682
21
6.7172946
0
ARC
8
layer1
10
43.4999871
20
-0.0000098
40
10.5
50
36.0167933
51
39.7726786
0
LINE
8
layer1
10
51.9928563
20
6.1742249
11
51.9149658
21
5.9926758
0
LINE
8
layer1
10
51.9149658
20
5.9926758
11
51.8244997
21
5.8031225
0
LINE
8
layer1
10
51.8244997
20
5.8031225
11
51.7339377
21
5.6321308
0
LINE
8
layer1
10
51.7339377
20
5.6321308
11
51.643502
21
5.4773989
0
LINE
8
layer1
10
51.643502
20
5.4773989
11
51.5557005
21
5.3406593
0
LINE
8
layer1
10
51.5557005
20
5.3406593
11
51.4713236
21
5.2205773
0
LINE
8
layer1
10
51.4713236
20
5.2205773
11
51.3904837
21
5.1152012
0
LINE
8
layer1
10
51.3904837
20
5.1152012
11
51.3164066
21
5.0266177
0
LINE
8
layer1
10
51.3164066
20
5.0266177
11
51.2491015
21
4.9526034
0
LINE
8
layer1
10
51.2491015
20
4.9526034
11
51.1894907
21
4.8923155
0
LINE
8
layer1
10
51.1894907
20
4.8923155
11
51.0983674
21
4.8105849
0
LINE
8
layer1
10
51.0983674
20
4.8105849
11
50.9615879
21
4.7105821
0
LINE
8
layer1
10
50.9615879
20
4.7105821
11
50.8802335
21
4.6402782
0
LINE
8
layer1
10
50.8802335
20
4.6402782
11
50.8176437
21
4.5720903
0
LINE
8
layer1
10
50.8176437
20
4.5720903
11
50.7932795
21
4.5392456
0
LINE
8
layer1
10
50.7932795
20
4.5392456
11
50.7734584
21
4.5074609
0
LINE
8
layer1
10
50.7734584
20
4.5074609
11
50.7581474
21
4.4769231
0
LINE
8
layer1
10
50.7581474
20
4.4769231
11
50.7472697
21
4.4477952
0
LINE
8
layer1
10
50.7472697
20
4.4477952
11
50.7407524
21
4.4202539
0
LINE
8
layer1
10
50.7407524
20
4.4202539
11
50.7385363
21
4.3944717
0
LINE
8
layer1
10
50.7385363
20
4.3944717
11
50.7405221
21
4.3706109
0
LINE
8
layer1
10
50.7405221
20
4.3706109
11
50.7466553
21
4.3488355
0
LINE
8
layer1
10
50.7466553
20
4.3488355
11
50.7539111
21
4.3339782
0
LINE
8
layer1
10
50.7539111
20
4.3339782
11
50.8348462
21
4.195601
0
LINE
8
layer1
10
50.8348462
20
4.195601
11
50.9315532
21
4.0217555
0
LINE
8
layer1
10
50.9315532
20
4.0217555
11
51.0241971
21
3.8457111
0
LINE
8
layer1
10
51.0241971
20
3.8457111
11
51.0957746
21
3.7022698
0
LINE
8
layer1
10
51.0957746
20
3.7022698
11
51.104244
21
3.6880693
0
LINE
8
layer1
10
51.104244
20
3.6880693
11
51.1191192
21
3.6710248
0
LINE
8
layer1
10
51.1191192
20
3.6710248
11
51.1380085
21
3.6563118
0
LINE
8
layer1
10
51.1380085
20
3.6563118
11
51.1608046
21
3.6440655
0
LINE
8
layer1
10
51.1608046
20
3.6440655
11
51.1874259
21
3.6344579
0
LINE
8
layer1
10
51.1874259
20
3.6344579
11
51.2177603
21
3.6276329
0
LINE
8
layer1
10
51.2177603
20
3.6276329
11
51.2516998
21
3.6237481
0
LINE
8
layer1
10
51.2516998
20
3.6237481
11
51.2891501
21
3.6229571
0
LINE
8
layer1
10
51.2891501
20
3.6229571
11
51.3299725
21
3.6253896
0
LINE
8
layer1
10
51.3299725
20
3.6253896
11
51.4212905
21
3.6404925
0
LINE
8
layer1
10
51.4212905
20
3.6404925
11
51.5246432
21
3.6701471
0
LINE
8
layer1
10
51.5246432
20
3.6701471
11
51.6831735
21
3.7299579
0
LINE
8
layer1
10
51.6831735
20
3.7299579
11
51.8014353
21
3.7615409
0
LINE
8
layer1
10
51.8014353
20
3.7615409
11
51.8845103
21
3.7784707
0
LINE
8
layer1
10
51.8845103
20
3.7784707
11
51.983285
21
3.7943343
0
LINE
8
layer1
10
51.983285
20
3.7943343
11
52.0979605
21
3.8078986
0
LINE
8
layer1
10
52.0979605
20
3.8078986
11
52.230393
21
3.8179398
0
LINE
8
layer1
10
52.230393
20
3.8179398
11
52.3770715
21
3.8228987
0
LINE
8
layer1
10
52.3770715
20
3.8228987
11
52.5395682
21
3.8216137
0
LINE
8
layer1
10
52.5395682
20
3.8216137
11
52.7185681
21
3.8126931
0
LINE
8
layer1
10
52.7185681
20
3.8126931
11
52.9112494
21
3.7949849
0
LINE
8
layer1
10
52.9112494
20
3.7949849
11
53.1194174
21
3.7670443
0
LINE
8
layer1
10
53.1194174
20
3.7670443
11
53.3140062
21
3.7329537
0
ARC
8
layer1
10
43.4999849
20
-0.0000057
40
10.5
50
17.0694284
51
20.8253138
0
LINE
8
layer1
10
53.5374575
20
3.0820624
11
53.4048384
21
2.9356411
0
LINE
8
layer1
10
53.4048384
20
2.9356411
11
53.2577261
21
2.7857327
0
LINE
8
layer1
10
53.2577261
20
2.7857327
11
53.1165501
21
2.6534112
0
LINE
8
layer1
10
53.1165501
20
2.6534112
11
52.9807731
21
2.5364275
0
LINE
8
layer1
10
52.9807731
20
2.5364275
11
52.8533297
21
2.435606
0
LINE
8
layer1
10
52.8533297
20
2.435606
11
52.734534
21
2.3494275
0
LINE
8
layer1
10
52.734534
20
2.3494275
11
52.6238587
21
2.2760096
0
LINE
8
layer1
10
52.6238587
20
2.2760096
11
52.5250322
21
2.2162786
0
LINE
8
layer1
10
52.5250322
20
2.2162786
11
52.4373415
21
2.1681285
0
LINE
8
layer1
10
52.4373415
20
2.1681285
11
52.3613851
21
2.1304628
0
LINE
8
layer1
10
52.3613851
20
2.1304628
11
52.2486612
21
2.0827483
0
LINE
8
layer1
10
52.2486612
20
2.0827483
11
52.086822
21
2.0325761
0
LINE
8
layer1
10
52.086822
20
2.0325761
11
51.987048
21
1.9924973
0
LINE
8
layer1
10
51.987048
20
1.9924973
11
51.9057089
21
1.9483268
0
LINE
8
layer1
10
51.9057089
20
1.9483268
11
51.8720001
21
1.9251728
0
LINE
8
layer1
10
51.8720001
20
1.9251728
11
51.8429325
21
1.9015462
0
LINE
8
layer1
10
51.8429325
20
1.9015462
11
51.8185355
21
1.8776344
0
LINE
8
layer1
10
51.8185355
20
1.8776344
11
51.7987894
21
1.8536168
0
LINE
8
layer1
10
51.7987894
20
1.8536168
11
51.7836826
21
1.8296838
0
LINE
8
layer1
10
51.7836826
20
1.8296838
11
51.773215
21
1.8060182
0
LINE
8
layer1
10
51.773215
20
1.8060182
11
51.7673457
21
1.7828055
0
LINE
8
layer1
10
51.7673457
20
1.7828055
11
51.7660761
21
1.7602185
0
LINE
8
layer1
10
51.7660761
20
1.7602185
11
51.7681146
21
1.7438102
0
LINE
8
layer1
10
51.7681146
20
1.7438102
11
51.7997334
21
1.5866511
0
LINE
8
layer1
10
51.7997334
20
1.5866511
11
51.834753
21
1.3908243
0
LINE
8
layer1
10
51.834753
20
1.3908243
11
51.8652157
21
1.1942371
0
LINE
8
layer1
10
51.8652157
20
1.1942371
11
51.8863396
21
1.0353266
0
LINE
8
layer1
10
51.8863396
20
1.0353266
11
51.8897393
21
1.0191455
0
LINE
8
layer1
10
51.8897393
20
1.0191455
11
51.8982741
21
0.9981946
0
LINE
8
layer1
10
51.8982741
20
0.9981946
11
51.9113626
21
0.9781454
0
LINE
8
layer1
10
51.9113626
20
0.9781454
11
51.9289472
21
0.9591608
0
LINE
8
layer1
10
51.9289472
20
0.9591608
11
51.9510065
21
0.9414298
0
LINE
8
layer1
10
51.9510065
20
0.9414298
11
51.9774812
21
0.925125
0
LINE
8
layer1
10
51.9774812
20
0.925125
11
52.0083204
21
0.9104306
0
LINE
8
layer1
10
52.0083204
20
0.9104306
11
52.0434847
21
0.8975224
0
LINE
8
layer1
10
52.0434847
20
0.8975224
11
52.0828851
21
0.8865681
0
LINE
8
layer1
10
52.0828851
20
0.8865681
11
52.1741591
21
0.8712017
0
LINE
8
layer1
10
52.1741591
20
0.8712017
11
52.2815407
21
0.865691
0
LINE
8
layer1
10
52.2815407
20
0.865691
11
52.4509019
21
0.8707864
0
LINE
8
layer1
10
52.4509019
20
0.8707864
11
52.5730109
21
0.8622586
0
LINE
8
layer1
10
52.5730109
20
0.8622586
11
52.6570818
21
0.8512967
0
LINE
8
layer1
10
52.6570818
20
0.8512967
11
52.7556556
21
0.8342286
0
LINE
8
layer1
10
52.7556556
20
0.8342286
11
52.8685219
21
0.809823
0
LINE
8
layer1
10
52.8685219
20
0.809823
11
52.9970393
21
0.7763193
0
LINE
8
layer1
10
52.9970393
20
0.7763193
11
53.1373804
21
0.7333831
0
LINE
8
layer1
10
53.1373804
20
0.7333831
11
53.2906554
21
0.6794051
0
LINE
8
layer1
10
53.2906554
20
0.6794051
11
53.4570601
21
0.6128467
0
LINE
8
layer1
10
53.4570601
20
0.6128467
11
53.6335515
21
0.5335345
0
LINE
8
layer1
10
53.6335515
20
0.5335345
11
53.8213681
21
0.4395158
0
LINE
8
layer1
10
53.8213681
20
0.4395158
11
53.9943444
21
0.3440894
0
ARC
8
layer1
10
43.4999839
20
0
40
10.5
50
358.1220576
51
361.8779429
0
LINE
8
layer1
10
53.9943444
20
-0.3440894
11
53.8213681
21
-0.4395158
0
LINE
8
layer1
10
53.8213681
20
-0.4395158
11
53.6335515
21
-0.5335345
0
LINE
8
layer1
10
53.6335515
20
-0.5335345
11
53.4570601
21
-0.6128467
0
LINE
8
layer1
10
53.4570601
20
-0.6128467
11
53.2906554
21
-0.6794051
0
LINE
8
layer1
10
53.2906554
20
-0.6794051
11
53.1373804
21
-0.7333831
0
LINE
8
layer1
10
53.1373804
20
-0.7333831
11
52.9970393
21
-0.7763193
0
LINE
8
layer1
10
52.9970393
20
-0.7763193
11
52.8685219
21
-0.809823
0
LINE
8
layer1
10
52.8685219
20
-0.809823
11
52.7556556
21
-0.8342286
0
LINE
8
layer1
10
52.7556556
20
-0.8342286
11
52.6570818
21
-0.8512967
0
LINE
8
layer1
10
52.6570818
20
-0.8512967
11
52.5730109
21
-0.8622586
0
LINE
8
layer1
10
52.5730109
20
-0.8622586
11
52.4509019
21
-0.8707864
0
LINE
8
layer1
10
52.4509019
20
-0.8707864
11
52.2815407
21
-0.865691
0
LINE
8
layer1
10
52.2815407
20
-0.865691
11
52.1741591
21
-0.8712017
0
LINE
8
layer1
10
52.1741591
20
-0.8712017
11
52.0828851
21
-0.8865681
0
LINE
8
layer1
10
52.0828851
20
-0.8865681
11
52.0434847
21
-0.8975224
0
LINE
8
layer1
10
52.0434847
20
-0.8975224
11
52.0083204
21
-0.9104306
0
LINE
8
layer1
10
52.0083204
20
-0.9104306
11
51.9774812
21
-0.925125
0
LINE
8
layer1
10
51.9774812
20
-0.925125
11
51.9510065
21
-0.9414298
0
LINE
8
layer1
10
51.9510065
20
-0.9414298
11
51.9289472
21
-0.9591608
0
LINE
8
layer1
10
51.9289472
20
-0.9591608
11
51.9113626
21
-0.9781454
0
LINE
8
layer1
10
51.9113626
20
-0.9781454
11
51.8982741
21
-0.9981946
0
LINE
8
layer1
10
51.8982741
20
-0.9981946
11
51.8897393
21
-1.0191455
0
LINE
8
layer1
10
51.8897393
20
-1.0191455
11
51.8863396
21
-1.0353266
0
LINE
8
layer1
10
51.8863396
20
-1.0353266
11
51.8652157
21
-1.1942371
0
LINE
8
layer1
10
51.8652157
20
-1.1942371
11
51.834753
21
-1.3908243
0
LINE
8
layer1
10
51.834753
20
-1.3908243
11
51.7997334
21
-1.5866511
0
LINE
8
layer1
10
51.7997334
20
-1.5866511
11
51.7681146
21
-1.7438102
0
LINE
8
layer1
10
51.7681146
20
-1.7438102
11
51.7660761
21
-1.7602185
0
LINE
8
layer1
10
51.7660761
20
-1.7602185
11
51.7673457
21
-1.7828055
0
LINE
8
layer1
10
51.7673457
20
-1.7828055
11
51.773215
21
-1.8060182
0
LINE
8
layer1
10
51.773215
20
-1.8060182
11
51.7836826
21
-1.8296838
0
LINE
8
layer1
10
51.7836826
20
-1.8296838
11
51.7987894
21
-1.8536168
0
LINE
8
layer1
10
51.7987894
20
-1.8536168
11
51.8185355
21
-1.8776344
0
LINE
8
layer1
10
51.8185355
20
-1.8776344
11
51.8429325
21
-1.9015462
0
LINE
8
layer1
10
51.8429325
20
-1.9015462
11
51.8720001
21
-1.9251728
0
LINE
8
layer1
10
51.8720001
20
-1.9251728
11
51.9057089
21
-1.9483268
0
LINE
8
layer1
10
51.9057089
20
-1.9483268
11
51.987048
21
-1.9924973
0
LINE
8
layer1
10
51.987048
20
-1.9924973
11
52.086822
21
-2.0325761
0
LINE
8
layer1
10
52.086822
20
-2.0325761
11
52.2486612
21
-2.0827483
0
LINE
8
layer1
10
52.2486612
20
-2.0827483
11
52.3613851
21
-2.1304628
0
LINE
8
layer1
10
52.3613851
20
-2.1304628
11
52.4373415
21
-2.1681285
0
LINE
8
layer1
10
52.4373415
20
-2.1681285
11
52.5250322
21
-2.2162786
0
LINE
8
layer1
10
52.5250322
20
-2.2162786
11
52.6238587
21
-2.2760096
0
LINE
8
layer1
10
52.6238587
20
-2.2760096
11
52.734534
21
-2.3494275
0
LINE
8
layer1
10
52.734534
20
-2.3494275
11
52.8533297
21
-2.435606
0
LINE
8
layer1
10
52.8533297
20
-2.435606
11
52.9807731
21
-2.5364275
0
LINE
8
layer1
10
52.9807731
20
-2.5364275
11
53.1165501
21
-2.6534112
0
LINE
8
layer1
10
53.1165501
20
-2.6534112
11
53.2577261
21
-2.7857327
0
LINE
8
layer1
10
53.2577261
20
-2.7857327
11
53.4048384
21
-2.9356411
0
LINE
8
layer1
10
53.4048384
20
-2.9356411
11
53.5374575
21
-3.0820624
0
ARC
8
layer1
10
43.4999849
20
0.0000057
40
10.5
50
339.1746862
51
342.9305716
0
LINE
8
layer1
10
53.3140062
20
-3.7329537
11
53.1194174
21
-3.7670443
0
LINE
8
layer1
10
53.1194174
20
-3.7670443
11
52.9112494
21
-3.7949849
0
LINE
8
layer1
10
52.9112494
20
-3.7949849
11
52.7185681
21
-3.8126931
0
LINE
8
layer1
10
52.7185681
20
-3.8126931
11
52.5395682
21
-3.8216137
0
LINE
8
layer1
10
52.5395682
20
-3.8216137
11
52.3770715
21
-3.8228987
0
LINE
8
layer1
10
52.3770715
20
-3.8228987
11
52.230393
21
-3.8179398
0
LINE
8
layer1
10
52.230393
20
-3.8179398
11
52.0979605
21
-3.8078986
0
LINE
8
layer1
10
52.0979605
20
-3.8078986
11
51.983285
21
-3.7943343
0
LINE
8
layer1
10
51.983285
20
-3.7943343
11
51.8845103
21
-3.7784707
0
LINE
8
layer1
10
51.8845103
20
-3.7784707
11
51.8014353
21
-3.7615409
0
LINE
8
layer1
10
51.8014353
20
-3.7615409
11
51.6831735
21
-3.7299579
0
LINE
8
layer1
10
51.6831735
20
-3.7299579
11
51.5246432
21
-3.6701471
0
LINE
8
layer1
10
51.5246432
20
-3.6701471
11
51.4212905
21
-3.6404925
0
LINE
8
layer1
10
51.4212905
20
-3.6404925
11
51.3299725
21
-3.6253896
0
LINE
8
layer1
10
51.3299725
20
-3.6253896
11
51.2891501
21
-3.6229571
0
LINE
8
layer1
10
51.2891501
20
-3.6229571
11
51.2516998
21
-3.6237481
0
LINE
8
layer1
10
51.2516998
20
-3.6237481
11
51.2177603
21
-3.6276329
0
LINE
8
layer1
10
51.2177603
20
-3.6276329
11
51.1874259
21
-3.6344579
0
LINE
8
layer1
10
51.1874259
20
-3.6344579
11
51.1608046
21
-3.6440655
0
LINE
8
layer1
10
51.1608046
20
-3.6440655
11
51.1380085
21
-3.6563118
0
LINE
8
layer1
10
51.1380085
20
-3.6563118
11
51.1191192
21
-3.6710248
0
LINE
8
layer1
10
51.1191192
20
-3.6710248
11
51.104244
21
-3.6880693
0
LINE
8
layer1
10
51.104244
20
-3.6880693
11
51.0957746
21
-3.7022698
0
LINE
8
layer1
10
51.0957746
20
-3.7022698
11
51.0241971
21
-3.8457111
0
LINE
8
layer1
10
51.0241971
20
-3.8457111
11
50.9315532
21
-4.0217555
0
LINE
8
layer1
10
50.9315532
20
-4.0217555
11
50.8348462
21
-4.195601
0
LINE
8
layer1
10
50.8348462
20
-4.195601
11
50.7539111
21
-4.3339782
0
LINE
8
layer1
10
50.7539111
20
-4.3339782
11
50.7466553
21
-4.3488355
0
LINE
8
layer1
10
50.7466553
20
-4.3488355
11
50.7405221
21
-4.3706109
0
LINE
8
layer1
10
50.7405221
20
-4.3706109
11
50.7385363
21
-4.3944717
0
LINE
8
layer1
10
50.7385363
20
-4.3944717
11
50.7407524
21
-4.4202539
0
LINE
8
layer1
10
50.7407524
20
-4.4202539
11
50.7472697
21
-4.4477952
0
LINE
8
layer1
10
50.7472697
20
-4.4477952
11
50.7581474
21
-4.4769231
0
LINE
8
layer1
10
50.7581474
20
-4.4769231
11
50.7734584
21
-4.5074609
0
LINE
8
layer1
10
50.7734584
20
-4.5074609
11
50.7932795
21
-4.5392456
0
LINE
8
layer1
10
50.7932795
20
-4.5392456
11
50.8176437
21
-4.5720903
0
LINE
8
layer1
10
50.8176437
20
-4.5720903
11
50.8802335
21
-4.6402782
0
LINE
8
layer1
10
50.8802335
20
-4.6402782
11
50.9615879
21
-4.7105821
0
LINE
8
layer1
10
50.9615879
20
-4.7105821
11
51.0983674
21
-4.8105849
0
LINE
8
layer1
10
51.0983674
20
-4.8105849
11
51.1894907
21
-4.8923155
0
LINE
8
layer1
10
51.1894907
20
-4.8923155
11
51.2491015
21
-4.9526034
0
LINE
8
layer1
10
51.2491015
20
-4.9526034
11
51.3164066
21
-5.0266177
0
LINE
8
layer1
10
51.3164066
20
-5.0266177
11
51.3904837
21
-5.1152012
0
LINE
8
layer1
10
51.3904837
20
-5.1152012
11
51.4713236
21
-5.2205773
0
LINE
8
layer1
10
51.4713236
20
-5.2205773
11
51.5557005
21
-5.3406593
0
LINE
8
layer1
10
51.5557005
20
-5.3406593
11
51.643502
21
-5.4773989
0
LINE
8
layer1
10
51.643502
20
-5.4773989
11
51.7339377
21
-5.6321308
0
LINE
8
layer1
10
51.7339377
20
-5.6321308
11
51.8244997
21
-5.8031225
0
LINE
8
layer1
10
51.8244997
20
-5.8031225
11
51.9149658
21
-5.9926758
0
LINE
8
layer1
10
51.9149658
20
-5.9926758
11
51.9928563
21
-6.1742249
0
ARC
8
layer1
10
43.4999871
20
0.0000098
40
10.5
50
320.2273214
51
323.9832067
0
LINE
8
layer1
10
51.5701682
20
-6.7172946
11
51.3750535
21
-6.6863552
0
LINE
8
layer1
10
51.3750535
20
-6.6863552
11
51.1690924
21
-6.6451899
0
LINE
8
layer1
10
51.1690924
20
-6.6451899
11
50.9811013
21
-6.599375
0
LINE
8
layer1
10
50.9811013
20
-6.599375
11
50.8089035
21
-6.5496911
0
LINE
8
layer1
10
50.8089035
20
-6.5496911
11
50.6547941
21
-6.4981439
0
LINE
8
layer1
10
50.6547941
20
-6.4981439
11
50.5176733
21
-6.4458272
0
LINE
8
layer1
10
50.5176733
20
-6.4458272
11
50.3956766
21
-6.3933294
0
LINE
8
layer1
10
50.3956766
20
-6.3933294
11
50.2916189
21
-6.3432649
0
LINE
8
layer1
10
50.2916189
20
-6.3432649
11
50.203347
21
-6.2961888
0
LINE
8
layer1
10
50.203347
20
-6.2961888
11
50.1302703
21
-6.2532019
0
LINE
8
layer1
10
50.1302703
20
-6.2532019
11
50.0286712
21
-6.1849306
0
LINE
8
layer1
10
50.0286712
20
-6.1849306
11
49.8981511
21
-6.0768858
0
LINE
8
layer1
10
49.8981511
20
-6.0768858
11
49.8100272
21
-6.0152794
0
LINE
8
layer1
10
49.8100272
20
-6.0152794
11
49.7285609
21
-5.9713439
0
LINE
8
layer1
10
49.7285609
20
-5.9713439
11
49.6907402
21
-5.9557882
0
LINE
8
layer1
10
49.6907402
20
-5.9557882
11
49.6550623
21
-5.9443763
0
LINE
8
layer1
10
49.6550623
20
-5.9443763
11
49.6217003
21
-5.9370304
0
LINE
8
layer1
10
49.6217003
20
-5.9370304
11
49.5907934
21
-5.933636
0
LINE
8
layer1
10
49.5907934
20
-5.933636
11
49.5624949
21
-5.9340792
0
LINE
8
layer1
10
49.5624949
20
-5.9340792
11
49.5369576
21
-5.93826
0
LINE
8
layer1
10
49.5369576
20
-5.93826
11
49.5143145
21
-5.9460425
0
LINE
8
layer1
10
49.5143145
20
-5.9460425
11
49.494711
21
-5.9573335
0
LINE
8
layer1
10
49.494711
20
-5.9573335
11
49.4820895
21
-5.9680146
0
LINE
8
layer1
10
49.4820895
20
-5.9680146
11
49.367815
21
-6.0804427
0
LINE
8
layer1
10
49.367815
20
-6.0804427
11
49.2230293
21
-6.216867
0
LINE
8
layer1
10
49.2230293
20
-6.216867
11
49.0751146
21
-6.3498924
0
LINE
8
layer1
10
49.0751146
20
-6.3498924
11
48.9536337
21
-6.4544924
0
LINE
8
layer1
10
48.9536337
20
-6.4544924
11
48.9419469
21
-6.4661887
0
LINE
8
layer1
10
48.9419469
20
-6.4661887
11
48.9290756
21
-6.4847929
0
LINE
8
layer1
10
48.9290756
20
-6.4847929
11
48.9194498
21
-6.506716
0
LINE
8
layer1
10
48.9194498
20
-6.506716
11
48.9131744
21
-6.5318208
0
LINE
8
layer1
10
48.9131744
20
-6.5318208
11
48.9103959
21
-6.559986
0
LINE
8
layer1
10
48.9103959
20
-6.559986
11
48.9112264
21
-6.5910677
0
LINE
8
layer1
10
48.9112264
20
-6.5910677
11
48.9157922
21
-6.6249223
0
LINE
8
layer1
10
48.9157922
20
-6.6249223
11
48.9242189
21
-6.6614207
0
LINE
8
layer1
10
48.9242189
20
-6.6614207
11
48.9365983
21
-6.7003969
0
LINE
8
layer1
10
48.9365983
20
-6.7003969
11
48.9736562
21
-6.7852131
0
LINE
8
layer1
10
48.9736562
20
-6.7852131
11
49.027775
21
-6.8781234
0
LINE
8
layer1
10
49.027775
20
-6.8781234
11
49.1246725
21
-7.01712
0
LINE
8
layer1
10
49.1246725
20
-7.01712
11
49.1843206
21
-7.1240099
0
LINE
8
layer1
10
49.1843206
20
-7.1240099
11
49.2211261
21
-7.2003868
0
LINE
8
layer1
10
49.2211261
20
-7.2003868
11
49.260752
21
-7.2922448
0
LINE
8
layer1
10
49.260752
20
-7.2922448
11
49.3020525
21
-7.4000814
0
LINE
8
layer1
10
49.3020525
20
-7.4000814
11
49.3442966
21
-7.5259965
0
LINE
8
layer1
10
49.3442966
20
-7.5259965
11
49.3851112
21
-7.6669693
0
LINE
8
layer1
10
49.3851112
20
-7.6669693
11
49.4237561
21
-7.8248091
0
LINE
8
layer1
10
49.4237561
20
-7.8248091
11
49.4590503
21
-8.0005216
0
LINE
8
layer1
10
49.4590503
20
-8.0005216
11
49.4891845
21
-8.191654
0
LINE
8
layer1
10
49.4891845
20
-8.191654
11
49.5132011
21
-8.400311
0
LINE
8
layer1
10
49.5132011
20
-8.400311
11
49.5279224
21
-8.5973143
0
ARC
8
layer1
10
43.4999913
20
0.0000136
40
10.5
50
301.2799509
51
305.0358365
0
LINE
8
layer1
10
48.9518022
20
-8.9737124
11
48.7773054
21
-8.8810957
0
LINE
8
layer1
10
48.7773054
20
-8.8810957
11
48.5958702
21
-8.7752854
0
LINE
8
layer1
10
48.5958702
20
-8.7752854
11
48.432941
21
-8.6709123
0
LINE
8
layer1
10
48.432941
20
-8.6709123
11
48.2862057
21
-8.5680079
0
LINE
8
layer1
10
48.2862057
20
-8.5680079
11
48.1571837
21
-8.4692143
0
LINE
8
layer1
10
48.1571837
20
-8.4692143
11
48.0444797
21
-8.3752093
0
LINE
8
layer1
10
48.0444797
20
-8.3752093
11
47.9461392
21
-8.2859437
0
LINE
8
layer1
10
47.9461392
20
-8.2859437
11
47.8639755
21
-8.2048044
0
LINE
8
layer1
10
47.8639755
20
-8.2048044
11
47.795772
21
-8.1316171
0
LINE
8
layer1
10
47.795772
20
-8.1316171
11
47.7406126
21
-8.0672314
0
LINE
8
layer1
10
47.7406126
20
-8.0672314
11
47.6666861
21
-7.9696701
0
LINE
8
layer1
10
47.6666861
20
-7.9696701
11
47.57832
21
-7.8250996
0
LINE
8
layer1
10
47.57832
20
-7.8250996
11
47.5149745
21
-7.7382174
0
LINE
8
layer1
10
47.5149745
20
-7.7382174
11
47.4521881
21
-7.6702104
0
LINE
8
layer1
10
47.4521881
20
-7.6702104
11
47.4214675
21
-7.6432172
0
LINE
8
layer1
10
47.4214675
20
-7.6432172
11
47.3914282
21
-7.620839
0
LINE
8
layer1
10
47.3914282
20
-7.620839
11
47.3622591
21
-7.6030585
0
LINE
8
layer1
10
47.3622591
20
-7.6030585
11
47.3341289
21
-7.5898126
0
LINE
8
layer1
10
47.3341289
20
-7.5898126
11
47.3072199
21
-7.5810433
0
LINE
8
layer1
10
47.3072199
20
-7.5810433
11
47.2817087
21
-7.5767056
0
LINE
8
layer1
10
47.2817087
20
-7.5767056
11
47.2577655
21
-7.5767142
0
LINE
8
layer1
10
47.2577655
20
-7.5767142
11
47.235558
21
-7.5810282
0
LINE
8
layer1
10
47.235558
20
-7.5810282
11
47.2201522
21
-7.5870324
0
LINE
8
layer1
10
47.2201522
20
-7.5870324
11
47.0755641
21
-7.6562639
0
LINE
8
layer1
10
47.0755641
20
-7.6562639
11
46.8943263
21
-7.7382846
0
LINE
8
layer1
10
46.8943263
20
-7.7382846
11
46.7112328
21
-7.8160744
0
LINE
8
layer1
10
46.7112328
20
-7.8160744
11
46.5623706
21
-7.8755622
0
LINE
8
layer1
10
46.5623706
20
-7.8755622
11
46.5475192
21
-7.88283
0
LINE
8
layer1
10
46.5475192
20
-7.88283
11
46.5293045
21
-7.8962469
0
LINE
8
layer1
10
46.5293045
20
-7.8962469
11
46.5130819
21
-7.9138566
0
LINE
8
layer1
10
46.5130819
20
-7.9138566
11
46.4989949
21
-7.9355636
0
LINE
8
layer1
10
46.4989949
20
-7.9355636
11
46.4872218
21
-7.9613005
0
LINE
8
layer1
10
46.4872218
20
-7.9613005
11
46.4779151
21
-7.9909678
0
LINE
8
layer1
10
46.4779151
20
-7.9909678
11
46.4712409
21
-8.0244706
0
LINE
8
layer1
10
46.4712409
20
-8.0244706
11
46.4673599
21
-8.0617276
0
LINE
8
layer1
10
46.4673599
20
-8.0617276
11
46.4664131
21
-8.1026115
0
LINE
8
layer1
10
46.4664131
20
-8.1026115
11
46.4739234
21
-8.1948648
0
LINE
8
layer1
10
46.4739234
20
-8.1948648
11
46.4949419
21
-8.3003133
0
LINE
8
layer1
10
46.4949419
20
-8.3003133
11
46.5414571
21
-8.4632413
0
LINE
8
layer1
10
46.5414571
20
-8.4632413
11
46.5631662
21
-8.5837072
0
LINE
8
layer1
10
46.5631662
20
-8.5837072
11
46.5731779
21
-8.6678966
0
LINE
8
layer1
10
46.5731779
20
-8.6678966
11
46.5808306
21
-8.7676439
0
LINE
8
layer1
10
46.5808306
20
-8.7676439
11
46.5848788
21
-8.8830479
0
LINE
8
layer1
10
46.5848788
20
-8.8830479
11
46.5839494
21
-9.0158573
0
LINE
8
layer1
10
46.5839494
20
-9.0158573
11
46.5767788
21
-9.1624442
0
LINE
8
layer1
10
46.5767788
20
-9.1624442
11
46.5620793
21
-9.3242798
0
LINE
8
layer1
10
46.5620793
20
-9.3242798
11
46.5384075
21
-9.5019317
0
LINE
8
layer1
10
46.5384075
20
-9.5019317
11
46.5048483
21
-9.6924926
0
LINE
8
layer1
10
46.5048483
20
-9.6924926
11
46.4598128
21
-9.8976422
0
LINE
8
layer1
10
46.4598128
20
-9.8976422
11
46.4097696
21
-10.0887513
0
ARC
8
layer1
10
43.4999961
20
0.0000156
40
10.5
50
282.3325832
51
286.088469
0
LINE
8
layer1
10
45.7426489
20
-10.2576892
11
45.6076794
21
-10.1134317
0
LINE
8
layer1
10
45.6076794
20
-10.1134317
11
45.4704314
21
-9.9544425
0
LINE
8
layer1
10
45.4704314
20
-9.9544425
11
45.35022
21
-9.8028216
0
LINE
8
layer1
10
45.35022
20
-9.8028216
11
45.2448483
21
-9.657848
0
LINE
8
layer1
10
45.2448483
20
-9.657848
11
45.1548953
21
-9.522514
0
LINE
8
layer1
10
45.1548953
20
-9.522514
11
45.0788212
21
-9.3970075
0
LINE
8
layer1
10
45.0788212
20
-9.3970075
11
45.0147936
21
-9.2806475
0
LINE
8
layer1
10
45.0147936
20
-9.2806475
11
44.9634277
21
-9.177226
0
LINE
8
layer1
10
44.9634277
20
-9.177226
11
44.9226834
21
-9.0858585
0
LINE
8
layer1
10
44.9226834
20
-9.0858585
11
44.8914188
21
-9.0070512
0
LINE
8
layer1
10
44.8914188
20
-9.0070512
11
44.8531759
21
-8.8907721
0
LINE
8
layer1
10
44.8531759
20
-8.8907721
11
44.8165397
21
-8.7253425
0
LINE
8
layer1
10
44.8165397
20
-8.7253425
11
44.784837
21
-8.6225996
0
LINE
8
layer1
10
44.784837
20
-8.6225996
11
44.7475344
21
-8.5378907
0
LINE
8
layer1
10
44.7475344
20
-8.5378907
11
44.727243
21
-8.502385
0
LINE
8
layer1
10
44.727243
20
-8.502385
11
44.7060975
21
-8.4714656
0
LINE
8
layer1
10
44.7060975
20
-8.4714656
11
44.6842821
21
-8.4451773
0
LINE
8
layer1
10
44.6842821
20
-8.4451773
11
44.6619771
21
-8.4235153
0
LINE
8
layer1
10
44.6619771
20
-8.4235153
11
44.6393735
21
-8.4064837
0
LINE
8
layer1
10
44.6393735
20
-8.4064837
11
44.616653
21
-8.3940976
0
LINE
8
layer1
10
44.616653
20
-8.3940976
11
44.5940043
21
-8.3863314
0
LINE
8
layer1
10
44.5940043
20
-8.3863314
11
44.5715993
21
-8.3832009
0
LINE
8
layer1
10
44.5715993
20
-8.3832009
11
44.5550787
21
-8.3838775
0
LINE
8
layer1
10
44.5550787
20
-8.3838775
11
44.3958453
21
-8.4024102
0
LINE
8
layer1
10
44.3958453
20
-8.4024102
11
44.1977955
21
-8.421139
0
LINE
8
layer1
10
44.1977955
20
-8.421139
11
43.9993641
21
-8.4352635
0
LINE
8
layer1
10
43.9993641
20
-8.4352635
11
43.839252
21
-8.4431926
0
LINE
8
layer1
10
43.839252
20
-8.4431926
11
43.8228454
21
-8.4452444
0
LINE
8
layer1
10
43.8228454
20
-8.4452444
11
43.8012612
21
-8.45202
0
LINE
8
layer1
10
43.8012612
20
-8.45202
11
43.7801997
21
-8.4634081
0
LINE
8
layer1
10
43.7801997
20
-8.4634081
11
43.7598278
21
-8.4793649
0
LINE
8
layer1
10
43.7598278
20
-8.4793649
11
43.7403358
21
-8.4998846
0
LINE
8
layer1
10
43.7403358
20
-8.4998846
11
43.7219004
21
-8.5249225
0
LINE
8
layer1
10
43.7219004
20
-8.5249225
11
43.7047095
21
-8.554443
0
LINE
8
layer1
10
43.7047095
20
-8.554443
11
43.6889415
21
-8.5884211
0
LINE
8
layer1
10
43.6889415
20
-8.5884211
11
43.674771
21
-8.6267824
0
LINE
8
layer1
10
43.674771
20
-8.6267824
11
43.6519197
21
-8.7164758
0
LINE
8
layer1
10
43.6519197
20
-8.7164758
11
43.6375603
21
-8.8230355
0
LINE
8
layer1
10
43.6375603
20
-8.8230355
11
43.6286526
21
-8.992239
0
LINE
8
layer1
10
43.6286526
20
-8.992239
11
43.6100702
21
-9.1132268
0
LINE
8
layer1
10
43.6100702
20
-9.1132268
11
43.5922033
21
-9.1961053
0
LINE
8
layer1
10
43.5922033
20
-9.1961053
11
43.5670533
21
-9.2929329
0
LINE
8
layer1
10
43.5670533
20
-9.2929329
11
43.5334106
21
-9.4033983
0
LINE
8
layer1
10
43.5334106
20
-9.4033983
11
43.4894085
21
-9.52871
0
LINE
8
layer1
10
43.4894085
20
-9.52871
11
43.4350296
21
-9.6650262
0
LINE
8
layer1
10
43.4350296
20
-9.6650262
11
43.3685787
21
-9.8133201
0
LINE
8
layer1
10
43.3685787
20
-9.8133201
11
43.288506
21
-9.9736601
0
LINE
8
layer1
10
43.288506
20
-9.9736601
11
43.1948901
21
-10.1429993
0
LINE
8
layer1
10
43.1948901
20
-10.1429993
11
43.0856828
21
-10.3224103
0
LINE
8
layer1
10
43.0856828
20
-10.3224103
11
42.976298
21
-10.4869155
0
ARC
8
layer1
10
43.5000005
20
0.0000162
40
10.5
50
263.3852193
51
267.141105
0
LINE
8
layer1
10
42.2904698
20
-10.4300862
11
42.2096536
21
-10.2498205
0
LINE
8
layer1
10
42.2096536
20
-10.2498205
11
42.1314658
21
-10.0548814
0
LINE
8
layer1
10
42.1314658
20
-10.0548814
11
42.066999
21
-9.8724432
0
LINE
8
layer1
10
42.066999
20
-9.8724432
11
42.0144095
21
-9.7011105
0
LINE
8
layer1
10
42.0144095
20
-9.7011105
11
41.9732732
21
-9.5439016
0
LINE
8
layer1
10
41.9732732
20
-9.5439016
11
41.942073
21
-9.4004941
0
LINE
8
layer1
10
41.942073
20
-9.4004941
11
41.9192966
21
-9.269649
0
LINE
8
layer1
10
41.9192966
20
-9.269649
11
41.9042947
21
-9.1551527
0
LINE
8
layer1
10
41.9042947
20
-9.1551527
11
41.8954251
21
-9.0555062
0
LINE
8
layer1
10
41.8954251
20
-9.0555062
11
41.8914431
21
-8.9708173
0
LINE
8
layer1
10
41.8914431
20
-8.9708173
11
41.8930281
21
-8.8484211
0
LINE
8
layer1
10
41.8930281
20
-8.8484211
11
41.9120919
21
-8.6800591
0
LINE
8
layer1
10
41.9120919
20
-8.6800591
11
41.9154675
21
-8.5725892
0
LINE
8
layer1
10
41.9154675
20
-8.5725892
11
41.907691
21
-8.4803579
0
LINE
8
layer1
10
41.907691
20
-8.4803579
11
41.9000277
21
-8.4401875
0
LINE
8
layer1
10
41.9000277
20
-8.4401875
11
41.8900674
21
-8.4040775
0
LINE
8
layer1
10
41.8900674
20
-8.4040775
11
41.8779699
21
-8.3721301
0
LINE
8
layer1
10
41.8779699
20
-8.3721301
11
41.8639071
21
-8.3443993
0
LINE
8
layer1
10
41.8639071
20
-8.3443993
11
41.8480583
21
-8.3209512
0
LINE
8
layer1
10
41.8480583
20
-8.3209512
11
41.8305906
21
-8.3018589
0
LINE
8
layer1
10
41.8305906
20
-8.3018589
11
41.8116908
21
-8.2871595
0
LINE
8
layer1
10
41.8116908
20
-8.2871595
11
41.7915162
21
-8.2769237
0
LINE
8
layer1
10
41.7915162
20
-8.2769237
11
41.7756711
21
-8.2721994
0
LINE
8
layer1
10
41.7756711
20
-8.2721994
11
41.6190478
21
-8.2380249
0
LINE
8
layer1
10
41.6190478
20
-8.2380249
11
41.4256476
21
-8.1914322
0
LINE
8
layer1
10
41.4256476
20
-8.1914322
11
41.2333816
21
-8.140361
0
LINE
8
layer1
10
41.2333816
20
-8.140361
11
41.0793703
21
-8.0958721
0
LINE
8
layer1
10
41.0793703
20
-8.0958721
11
41.0631864
21
-8.0924855
0
LINE
8
layer1
10
41.0631864
20
-8.0924855
11
41.0405717
21
-8.0918856
0
LINE
8
layer1
10
41.0405717
20
-8.0918856
11
41.0169536
21
-8.095818
0
LINE
8
layer1
10
41.0169536
20
-8.095818
11
40.9925044
21
-8.1042955
0
LINE
8
layer1
10
40.9925044
20
-8.1042955
11
40.9674057
21
-8.1173743
0
LINE
8
layer1
10
40.9674057
20
-8.1173743
11
40.9418394
21
-8.1350697
0
LINE
8
layer1
10
40.9418394
20
-8.1350697
11
40.9159947
21
-8.1574087
0
LINE
8
layer1
10
40.9159947
20
-8.1574087
11
40.8900484
21
-8.184426
0
LINE
8
layer1
10
40.8900484
20
-8.184426
11
40.8641897
21
-8.2161075
0
LINE
8
layer1
10
40.8641897
20
-8.2161075
11
40.8134533
21
-8.2935213
0
LINE
8
layer1
10
40.8134533
20
-8.2935213
11
40.765272
21
-8.3896449
0
LINE
8
layer1
10
40.765272
20
-8.3896449
11
40.7019066
21
-8.5467881
0
LINE
8
layer1
10
40.7019066
20
-8.5467881
11
40.6450464
21
-8.6551867
0
LINE
8
layer1
10
40.6450464
20
-8.6551867
11
40.6012369
21
-8.7277733
0
LINE
8
layer1
10
40.6012369
20
-8.7277733
11
40.5460098
21
-8.8111883
0
LINE
8
layer1
10
40.5460098
20
-8.8111883
11
40.4783219
21
-8.9047447
0
LINE
8
layer1
10
40.4783219
20
-8.9047447
11
40.3960153
21
-9.0089792
0
LINE
8
layer1
10
40.3960153
20
-9.0089792
11
40.300321
21
-9.1202526
0
LINE
8
layer1
10
40.300321
20
-9.1202526
11
40.1893196
21
-9.238935
0
LINE
8
layer1
10
40.1893196
20
-9.238935
11
40.0615231
21
-9.3645877
0
LINE
8
layer1
10
40.0615231
20
-9.3645877
11
39.9179954
21
-9.4943546
0
LINE
8
layer1
10
39.9179954
20
-9.4943546
11
39.7564505
21
-9.6285851
0
LINE
8
layer1
10
39.7564505
20
-9.6285851
11
39.5995777
21
-9.7486598
0
ARC
8
layer1
10
43.5000073
20
0.0000144
40
10.5
50
244.4378417
51
248.1937271
0
LINE
8
layer1
10
38.969362
20
-9.4722215
11
38.9514568
21
-9.2754821
0
LINE
8
layer1
10
38.9514568
20
-9.2754821
11
38.9408021
21
-9.0657179
0
LINE
8
layer1
10
38.9408021
20
-9.0657179
11
38.9390659
21
-8.8722323
0
LINE
8
layer1
10
38.9390659
20
-8.8722323
11
38.9449575
21
-8.6931071
0
LINE
8
layer1
10
38.9449575
20
-8.6931071
11
38.9570957
21
-8.5310593
0
LINE
8
layer1
10
38.9570957
20
-8.5310593
11
38.9741503
21
-8.3852914
0
LINE
8
layer1
10
38.9741503
20
-8.3852914
11
38.9950933
21
-8.2541403
0
LINE
8
layer1
10
38.9950933
20
-8.2541403
11
39.0180812
21
-8.1409767
0
LINE
8
layer1
10
39.0180812
20
-8.1409767
11
39.0420473
21
-8.0438493
0
LINE
8
layer1
10
39.0420473
20
-8.0438493
11
39.0657796
21
-7.9624561
0
LINE
8
layer1
10
39.0657796
20
-7.9624561
11
39.1070207
21
-7.8472063
0
LINE
8
layer1
10
39.1070207
20
-7.8472063
11
39.1797186
21
-7.6941566
0
LINE
8
layer1
10
39.1797186
20
-7.6941566
11
39.2178067
21
-7.5936058
0
LINE
8
layer1
10
39.2178067
20
-7.5936058
11
39.2403989
21
-7.5038469
0
LINE
8
layer1
10
39.2403989
20
-7.5038469
11
39.2461942
21
-7.4633647
0
LINE
8
layer1
10
39.2461942
20
-7.4633647
11
39.2484985
21
-7.4259771
0
LINE
8
layer1
10
39.2484985
20
-7.4259771
11
39.2474297
21
-7.3918327
0
LINE
8
layer1
10
39.2474297
20
-7.3918327
11
39.2431331
21
-7.3610382
0
LINE
8
layer1
10
39.2431331
20
-7.3610382
11
39.2357566
21
-7.3337145
0
LINE
8
layer1
10
39.2357566
20
-7.3337145
11
39.2254347
21
-7.309985
0
LINE
8
layer1
10
39.2254347
20
-7.309985
11
39.2123318
21
-7.2899452
0
LINE
8
layer1
10
39.2123318
20
-7.2899452
11
39.1965738
21
-7.2737134
0
LINE
8
layer1
10
39.1965738
20
-7.2737134
11
39.1831212
21
-7.2641001
0
LINE
8
layer1
10
39.1831212
20
-7.2641001
11
39.0460807
21
-7.1809218
0
LINE
8
layer1
10
39.0460807
20
-7.1809218
11
38.8782881
21
-7.0740567
0
LINE
8
layer1
10
38.8782881
20
-7.0740567
11
38.7130224
21
-6.963324
0
LINE
8
layer1
10
38.7130224
20
-6.963324
11
38.5818013
21
-6.8712382
0
LINE
8
layer1
10
38.5818013
20
-6.8712382
11
38.5675939
21
-6.8627803
0
LINE
8
layer1
10
38.5675939
20
-6.8627803
11
38.5463993
21
-6.8548698
0
LINE
8
layer1
10
38.5463993
20
-6.8548698
11
38.5227841
21
-6.8509204
0
LINE
8
layer1
10
38.5227841
20
-6.8509204
11
38.496907
21
-6.8509999
0
LINE
8
layer1
10
38.496907
20
-6.8509999
11
38.4689215
21
-6.8552206
0
LINE
8
layer1
10
38.4689215
20
-6.8552206
11
38.4389948
21
-6.8636558
0
LINE
8
layer1
10
38.4389948
20
-6.8636558
11
38.4072969
21
-6.8763927
0
LINE
8
layer1
10
38.4072969
20
-6.8763927
11
38.373984
21
-6.8935213
0
LINE
8
layer1
10
38.373984
20
-6.8935213
11
38.3392395
21
-6.91509
0
LINE
8
layer1
10
38.3392395
20
-6.91509
11
38.2661158
21
-6.9718352
0
LINE
8
layer1
10
38.2661158
20
-6.9718352
11
38.1893339
21
-7.047106
0
LINE
8
layer1
10
38.1893339
20
-7.047106
11
38.0783775
21
-7.1751601
0
LINE
8
layer1
10
38.0783775
20
-7.1751601
11
37.9894012
21
-7.259223
0
LINE
8
layer1
10
37.9894012
20
-7.259223
11
37.9243966
21
-7.3136516
0
LINE
8
layer1
10
37.9243966
20
-7.3136516
11
37.845077
21
-7.3746148
0
LINE
8
layer1
10
37.845077
20
-7.3746148
11
37.7506788
21
-7.4411238
0
LINE
8
layer1
10
37.7506788
20
-7.4411238
11
37.638987
21
-7.5129856
0
LINE
8
layer1
10
37.638987
20
-7.5129856
11
37.5123473
21
-7.5871581
0
LINE
8
layer1
10
37.5123473
20
-7.5871581
11
37.3688241
21
-7.6633678
0
LINE
8
layer1
10
37.3688241
20
-7.6633678
11
37.2071526
21
-7.7407169
0
LINE
8
layer1
10
37.2071526
20
-7.7407169
11
37.0292664
21
-7.8168492
0
LINE
8
layer1
10
37.0292664
20
-7.8168492
11
36.8328899
21
-7.8913532
0
LINE
8
layer1
10
36.8328899
20
-7.8913532
11
36.6455287
21
-7.9539855
0
ARC
8
layer1
10
43.5000107
20
0.000012
40
10.5
50
225.4904794
51
229.2463652
0
LINE
8
layer1
10
36.1392192
20
-7.4878947
11
36.1861653
21
-7.2960014
0
LINE
8
layer1
10
36.1861653
20
-7.2960014
11
36.2441982
21
-7.0941431
0
LINE
8
layer1
10
36.2441982
20
-7.0941431
11
36.3053808
21
-6.9105774
0
LINE
8
layer1
10
36.3053808
20
-6.9105774
11
36.369115
21
-6.7430707
0
LINE
8
layer1
10
36.369115
20
-6.7430707
11
36.4332124
21
-6.5937444
0
LINE
8
layer1
10
36.4332124
20
-6.5937444
11
36.4966737
21
-6.4614121
0
LINE
8
layer1
10
36.4966737
20
-6.4614121
11
36.5590666
21
-6.3441674
0
LINE
8
layer1
10
36.5590666
20
-6.3441674
11
36.6175531
21
-6.2445994
0
LINE
8
layer1
10
36.6175531
20
-6.2445994
11
36.6717579
21
-6.1605165
0
LINE
8
layer1
10
36.6717579
20
-6.1605165
11
36.7206326
21
-6.0912392
0
LINE
8
layer1
10
36.7206326
20
-6.0912392
11
36.7970607
21
-5.995625
0
LINE
8
layer1
10
36.7970607
20
-5.995625
11
36.9155147
21
-5.8744729
0
LINE
8
layer1
10
36.9155147
20
-5.8744729
11
36.9841879
21
-5.7917374
0
LINE
8
layer1
10
36.9841879
20
-5.7917374
11
37.0347008
21
-5.7141775
0
LINE
8
layer1
10
37.0347008
20
-5.7141775
11
37.0533266
21
-5.6777706
0
LINE
8
layer1
10
37.0533266
20
-5.6777706
11
37.0676458
21
-5.6431569
0
LINE
8
layer1
10
37.0676458
20
-5.6431569
11
37.0777216
21
-5.6105155
0
LINE
8
layer1
10
37.0777216
20
-5.6105155
11
37.0836566
21
-5.5799945
0
LINE
8
layer1
10
37.0836566
20
-5.5799945
11
37.0855519
21
-5.551756
0
LINE
8
layer1
10
37.0855519
20
-5.551756
11
37.0834942
21
-5.5259607
0
LINE
8
layer1
10
37.0834942
20
-5.5259607
11
37.0776081
21
-5.5027523
0
LINE
8
layer1
10
37.0776081
20
-5.5027523
11
37.0679745
21
-5.4822833
0
LINE
8
layer1
10
37.0679745
20
-5.4822833
11
37.0583722
21
-5.4688229
0
LINE
8
layer1
10
37.0583722
20
-5.4688229
11
36.9557648
21
-5.3456544
0
LINE
8
layer1
10
36.9557648
20
-5.3456544
11
36.8317627
21
-5.1900974
0
LINE
8
layer1
10
36.8317627
20
-5.1900974
11
36.7114064
21
-5.0317028
0
LINE
8
layer1
10
36.7114064
20
-5.0317028
11
36.6171955
21
-4.9019991
0
LINE
8
layer1
10
36.6171955
20
-4.9019991
11
36.6065042
21
-4.8893863
0
LINE
8
layer1
10
36.6065042
20
-4.8893863
11
36.5890265
21
-4.8750226
0
LINE
8
layer1
10
36.5890265
20
-4.8750226
11
36.5679732
21
-4.8636193
0
LINE
8
layer1
10
36.5679732
20
-4.8636193
11
36.5434723
21
-4.8552922
0
LINE
8
layer1
10
36.5434723
20
-4.8552922
11
36.5156327
21
-4.8501973
0
LINE
8
layer1
10
36.5156327
20
-4.8501973
11
36.4845886
21
-4.8484583
0
LINE
8
layer1
10
36.4845886
20
-4.8484583
11
36.4504726
21
-4.8502128
0
LINE
8
layer1
10
36.4504726
20
-4.8502128
11
36.4134029
21
-4.8555966
0
LINE
8
layer1
10
36.4134029
20
-4.8555966
11
36.3735377
21
-4.8647151
0
LINE
8
layer1
10
36.3735377
20
-4.8647151
11
36.2859509
21
-4.8946425
0
LINE
8
layer1
10
36.2859509
20
-4.8946425
11
36.1888888
21
-4.9409039
0
LINE
8
layer1
10
36.1888888
20
-4.9409039
11
36.0423653
21
-5.0259922
0
LINE
8
layer1
10
36.0423653
20
-5.0259922
11
35.9309148
21
-5.0766097
0
LINE
8
layer1
10
35.9309148
20
-5.0766097
11
35.8517593
21
-5.1069823
0
LINE
8
layer1
10
35.8517593
20
-5.1069823
11
35.7569428
21
-5.1388873
0
LINE
8
layer1
10
35.7569428
20
-5.1388873
11
35.646064
21
-5.1711416
0
LINE
8
layer1
10
35.646064
20
-5.1711416
11
35.5170904
21
-5.2028435
0
LINE
8
layer1
10
35.5170904
20
-5.2028435
11
35.3732286
21
-5.2318772
0
LINE
8
layer1
10
35.3732286
20
-5.2318772
11
35.2127367
21
-5.2573559
0
LINE
8
layer1
10
35.2127367
20
-5.2573559
11
35.0347098
21
-5.2780193
0
LINE
8
layer1
10
35.0347098
20
-5.2780193
11
34.8417418
21
-5.292267
0
LINE
8
layer1
10
34.8417418
20
-5.292267
11
34.6318141
21
-5.2989708
0
LINE
8
layer1
10
34.6318141
20
-5.2989708
11
34.434268
21
-5.2973734
0
ARC
8
layer1
10
43.5000139
20
0.0000082
40
10.5
50
206.5431131
51
210.2989985
0
LINE
8
layer1
10
34.1067312
20
-4.6921383
11
34.2134413
21
-4.5258856
0
ENDSEC
0
EOF