999
"DXF R12 Output" (www.mydxf.blogspot.com)
 0 
SECTION
 2 
HEADER
 9 
$ACADVER
 1 
AC1009
 9 
$EXTMIN
 10 
 0 
 20 
 0 
 9 
$EXTMAX
 10 
 8.5 
 20 
 11 
 0 
ENDSEC
 0 
SECTION
 2 
ENTITIES
0
LINE
8
Layer 1
10
0.793749
20
297.794000
11
-0.793749
21
296.206000
0
LINE
8
Layer 1
10
0.000000
20
298.323000
11
0.000000
21
295.677000
0
LINE
8
Layer 1
10
2.116660
20
295.942000
11
1.058330
21
294.883670
0
LINE
8
Layer 1
10
1.587500
20
296.471000
11
0.529170
21
295.412670
0
LINE
8
Layer 1
10
1.058330
20
297.000000
11
0.000000
21
295.941670
0
LINE
8
0
10
272.540000
20
-9.024390
11
272.339038
21
-8.274390
0
LINE
8
0
10
272.339038
20
-8.274390
11
271.790000
21
-7.725352
0
LINE
8
0
10
271.790000
20
-7.725352
11
271.040000
21
-7.524390
0
LINE
8
0
10
271.040000
20
-7.524390
11
270.290000
21
-7.725352
0
LINE
8
0
10
270.290000
20
-7.725352
11
269.740962
21
-8.274390
0
LINE
8
0
10
269.740962
20
-8.274390
11
269.540000
21
-9.024390
0
LINE
8
0
10
269.540000
20
-9.024390
11
269.740962
21
-9.774390
0
LINE
8
0
10
269.740962
20
-9.774390
11
270.290000
21
-10.323428
0
LINE
8
0
10
270.290000
20
-10.323428
11
271.040000
21
-10.524390
0
LINE
8
0
10
271.040000
20
-10.524390
11
271.790000
21
-10.323428
0
LINE
8
0
10
271.790000
20
-10.323428
11
272.339038
21
-9.774390
0
LINE
8
0
10
272.339038
20
-9.774390
11
272.540000
21
-9.024390
0
LINE
8
0
10
272.540000
20
-9.024390
11
272.540000
21
-9.024390
0
LINE
8
0
10
-21.449800
20
-8.954970
11
-21.650762
21
-8.204970
0
LINE
8
0
10
-21.650762
20
-8.204970
11
-22.199800
21
-7.655932
0
LINE
8
0
10
-22.199800
20
-7.655932
11
-22.949800
21
-7.454970
0
LINE
8
0
10
-22.949800
20
-7.454970
11
-23.699800
21
-7.655932
0
LINE
8
0
10
-23.699800
20
-7.655932
11
-24.248838
21
-8.204970
0
LINE
8
0
10
-24.248838
20
-8.204970
11
-24.449800
21
-8.954970
0
LINE
8
0
10
-24.449800
20
-8.954970
11
-24.248838
21
-9.704970
0
LINE
8
0
10
-24.248838
20
-9.704970
11
-23.699800
21
-10.254008
0
LINE
8
0
10
-23.699800
20
-10.254008
11
-22.949800
21
-10.454970
0
LINE
8
0
10
-22.949800
20
-10.454970
11
-22.199800
21
-10.254008
0
LINE
8
0
10
-22.199800
20
-10.254008
11
-21.650762
21
-9.704970
0
LINE
8
0
10
-21.650762
20
-9.704970
11
-21.449800
21
-8.954970
0
LINE
8
0
10
-21.449800
20
-8.954970
11
-21.449800
21
-8.954970
0
LINE
8
0
10
-391.849000
20
-8.954970
11
-392.049962
21
-8.204970
0
LINE
8
0
10
-392.049962
20
-8.204970
11
-392.599000
21
-7.655932
0
LINE
8
0
10
-392.599000
20
-7.655932
11
-393.349000
21
-7.454970
0
LINE
8
0
10
-393.349000
20
-7.454970
11
-394.099000
21
-7.655932
0
LINE
8
0
10
-394.099000
20
-7.655932
11
-394.648038
21
-8.204970
0
LINE
8
0
10
-394.648038
20
-8.204970
11
-394.849000
21
-8.954970
0
LINE
8
0
10
-394.849000
20
-8.954970
11
-394.648038
21
-9.704970
0
LINE
8
0
10
-394.648038
20
-9.704970
11
-394.099000
21
-10.254008
0
LINE
8
0
10
-394.099000
20
-10.254008
11
-393.349000
21
-10.454970
0
LINE
8
0
10
-393.349000
20
-10.454970
11
-392.599000
21
-10.254008
0
LINE
8
0
10
-392.599000
20
-10.254008
11
-392.049962
21
-9.704970
0
LINE
8
0
10
-392.049962
20
-9.704970
11
-391.849000
21
-8.954970
0
LINE
8
0
10
-391.849000
20
-8.954970
11
-391.849000
21
-8.954970
0
LINE
8
0
10
-393.470000
20
159.210000
11
-393.657000
21
162.880000
0
LINE
8
0
10
-393.657000
20
162.880000
11
-393.842000
21
162.880000
0
LINE
8
0
10
-393.842000
20
162.880000
11
-393.659000
21
162.919000
0
LINE
8
0
10
-393.659000
20
162.919000
11
-393.842000
21
166.510000
0
LINE
8
0
10
-393.842000
20
166.510000
11
-391.829000
21
166.613000
0
LINE
8
0
10
-391.829000
20
166.613000
11
-391.049913
21
166.730422
0
LINE
8
0
10
-391.049913
20
166.730422
11
-390.315672
21
166.995113
0
LINE
8
0
10
-390.315672
20
166.995113
11
-389.646793
21
167.397322
0
LINE
8
0
10
-389.646793
20
167.397322
11
-389.063792
21
167.927298
0
LINE
8
0
10
-389.063792
20
167.927298
11
-388.595959
21
168.561251
0
LINE
8
0
10
-388.595959
20
168.561251
11
-388.263975
21
169.267621
0
LINE
8
0
10
-388.263975
20
169.267621
11
-388.075451
21
170.025005
0
LINE
8
0
10
-388.075451
20
170.025005
11
-388.038000
21
170.812000
0
LINE
8
0
10
-388.038000
20
170.812000
11
-388.415000
21
178.193000
0
LINE
8
0
10
-388.415000
20
178.193000
11
-388.364000
21
178.196000
0
LINE
8
0
10
-388.364000
20
178.196000
11
-105.956000
21
178.196000
0
LINE
8
0
10
-105.956000
20
178.196000
11
-105.956000
21
176.696000
0
LINE
8
0
10
-105.956000
20
176.696000
11
-105.849344
21
175.617992
0
LINE
8
0
10
-105.849344
20
175.617992
11
-105.537340
21
174.591240
0
LINE
8
0
10
-105.537340
20
174.591240
11
-105.031938
21
173.644595
0
LINE
8
0
10
-105.031938
20
173.644595
11
-104.345090
21
172.806910
0
LINE
8
0
10
-104.345090
20
172.806910
11
-103.507405
21
172.120062
0
LINE
8
0
10
-103.507405
20
172.120062
11
-102.560760
21
171.614660
0
LINE
8
0
10
-102.560760
20
171.614660
11
-101.534008
21
171.302656
0
LINE
8
0
10
-101.534008
20
171.302656
11
-100.456000
21
171.196000
0
LINE
8
0
10
-100.456000
20
171.196000
11
-96.512700
21
171.196000
0
LINE
8
0
10
-96.512700
20
171.196000
11
-96.512700
21
-4.804070
0
LINE
8
0
10
-96.512700
20
-4.804070
11
-99.512700
21
-4.804070
0
LINE
8
0
10
-99.512700
20
-4.804070
11
-100.492751
21
-4.900978
0
LINE
8
0
10
-100.492751
20
-4.900978
11
-101.426211
21
-5.184584
0
LINE
8
0
10
-101.426211
20
-5.184584
11
-102.286848
21
-5.644021
0
LINE
8
0
10
-102.286848
20
-5.644021
11
-103.048431
21
-6.268427
0
LINE
8
0
10
-103.048431
20
-6.268427
11
-103.672882
21
-7.029972
0
LINE
8
0
10
-103.672882
20
-7.029972
11
-104.132372
21
-7.890582
0
LINE
8
0
10
-104.132372
20
-7.890582
11
-104.416033
21
-8.824025
0
LINE
8
0
10
-104.416033
20
-8.824025
11
-104.513000
21
-9.804070
0
LINE
8
0
10
-104.513000
20
-9.804070
11
-104.513000
21
-12.227500
0
LINE
8
0
10
-104.513000
20
-12.227500
11
-388.320000
21
-12.227500
0
LINE
8
0
10
-388.320000
20
-12.227500
11
-387.647101
21
-10.823103
0
LINE
8
0
10
-387.647101
20
-10.823103
11
-387.359988
21
-9.317721
0
LINE
8
0
10
-387.359988
20
-9.317721
11
-387.463346
21
-7.788693
0
LINE
8
0
10
-387.463346
20
-7.788693
11
-387.961857
21
-6.313359
0
LINE
8
0
10
-387.961857
20
-6.313359
11
-388.823048
21
-5.015871
0
LINE
8
0
10
-388.823048
20
-5.015871
11
-389.968645
21
-3.997924
0
LINE
8
0
10
-389.968645
20
-3.997924
11
-391.334634
21
-3.303169
0
LINE
8
0
10
-391.334634
20
-3.303169
11
-392.857000
21
-2.975260
0
LINE
8
0
10
-392.857000
20
-2.975260
11
-392.857000
21
147.196000
0
LINE
8
0
10
-392.857000
20
147.196000
11
-393.467000
21
159.148000
0
LINE
8
0
10
-393.467000
20
159.148000
11
-393.842000
21
159.210000
0
LINE
8
0
10
-393.842000
20
159.210000
11
-393.470000
21
159.210000
0
LINE
8
0
10
-393.470000
20
159.210000
11
-393.470000
21
159.210000
0
LINE
8
0
10
-97.832100
20
-9.045810
11
-97.953479
21
-8.465884
0
LINE
8
0
10
-97.953479
20
-8.465884
11
-98.275729
21
-7.993076
0
LINE
8
0
10
-98.275729
20
-7.993076
11
-98.751152
21
-7.674697
0
LINE
8
0
10
-98.751152
20
-7.674697
11
-99.332050
21
-7.558057
0
LINE
8
0
10
-99.332050
20
-7.558057
11
-99.912948
21
-7.674697
0
LINE
8
0
10
-99.912948
20
-7.674697
11
-100.388371
21
-7.993076
0
LINE
8
0
10
-100.388371
20
-7.993076
11
-100.710621
21
-8.465884
0
LINE
8
0
10
-100.710621
20
-8.465884
11
-100.832000
21
-9.045810
0
LINE
8
0
10
-100.832000
20
-9.045810
11
-100.710621
21
-9.625736
0
LINE
8
0
10
-100.710621
20
-9.625736
11
-100.388371
21
-10.098544
0
LINE
8
0
10
-100.388371
20
-10.098544
11
-99.912948
21
-10.416923
0
LINE
8
0
10
-99.912948
20
-10.416923
11
-99.332050
21
-10.533563
0
LINE
8
0
10
-99.332050
20
-10.533563
11
-98.751152
21
-10.416923
0
LINE
8
0
10
-98.751152
20
-10.416923
11
-98.275729
21
-10.098544
0
LINE
8
0
10
-98.275729
20
-10.098544
11
-97.953479
21
-9.625736
0
LINE
8
0
10
-97.953479
20
-9.625736
11
-97.832100
21
-9.045810
0
LINE
8
0
10
-97.832100
20
-9.045810
11
-97.832100
21
-9.045810
0
LINE
8
0
10
-19.453100
20
170.972000
11
-19.654062
21
171.722000
0
LINE
8
0
10
-19.654062
20
171.722000
11
-20.203100
21
172.271038
0
LINE
8
0
10
-20.203100
20
172.271038
11
-20.953100
21
172.472000
0
LINE
8
0
10
-20.953100
20
172.472000
11
-21.703100
21
172.271038
0
LINE
8
0
10
-21.703100
20
172.271038
11
-22.252138
21
171.722000
0
LINE
8
0
10
-22.252138
20
171.722000
11
-22.453100
21
170.972000
0
LINE
8
0
10
-22.453100
20
170.972000
11
-22.252138
21
170.222000
0
LINE
8
0
10
-22.252138
20
170.222000
11
-21.703100
21
169.672962
0
LINE
8
0
10
-21.703100
20
169.672962
11
-20.953100
21
169.472000
0
LINE
8
0
10
-20.953100
20
169.472000
11
-20.203100
21
169.672962
0
LINE
8
0
10
-20.203100
20
169.672962
11
-19.654062
21
170.222000
0
LINE
8
0
10
-19.654062
20
170.222000
11
-19.453100
21
170.972000
0
LINE
8
0
10
-19.453100
20
170.972000
11
-19.453100
21
170.972000
0
LINE
8
0
10
270.794000
20
175.415000
11
270.593038
21
176.165000
0
LINE
8
0
10
270.593038
20
176.165000
11
270.044000
21
176.714038
0
LINE
8
0
10
270.044000
20
176.714038
11
269.294000
21
176.915000
0
LINE
8
0
10
269.294000
20
176.915000
11
268.544000
21
176.714038
0
LINE
8
0
10
268.544000
20
176.714038
11
267.994962
21
176.165000
0
LINE
8
0
10
267.994962
20
176.165000
11
267.794000
21
175.415000
0
LINE
8
0
10
267.794000
20
175.415000
11
267.994962
21
174.665000
0
LINE
8
0
10
267.994962
20
174.665000
11
268.544000
21
174.115962
0
LINE
8
0
10
268.544000
20
174.115962
11
269.294000
21
173.915000
0
LINE
8
0
10
269.294000
20
173.915000
11
270.044000
21
174.115962
0
LINE
8
0
10
270.044000
20
174.115962
11
270.593038
21
174.665000
0
LINE
8
0
10
270.593038
20
174.665000
11
270.794000
21
175.415000
0
LINE
8
0
10
270.794000
20
175.415000
11
270.794000
21
175.415000
0
LINE
8
0
10
-388.879000
20
187.430000
11
-389.028312
21
188.169566
0
LINE
8
0
10
-389.028312
20
188.169566
11
-389.435497
21
188.773503
0
LINE
8
0
10
-389.435497
20
188.773503
11
-390.039434
21
189.180688
0
LINE
8
0
10
-390.039434
20
189.180688
11
-390.779000
21
189.330000
0
LINE
8
0
10
-390.779000
20
189.330000
11
-391.518566
21
189.180688
0
LINE
8
0
10
-391.518566
20
189.180688
11
-392.122503
21
188.773503
0
LINE
8
0
10
-392.122503
20
188.773503
11
-392.529688
21
188.169566
0
LINE
8
0
10
-392.529688
20
188.169566
11
-392.679000
21
187.430000
0
LINE
8
0
10
-392.679000
20
187.430000
11
-392.529688
21
186.690434
0
LINE
8
0
10
-392.529688
20
186.690434
11
-392.122503
21
186.086497
0
LINE
8
0
10
-392.122503
20
186.086497
11
-391.518566
21
185.679312
0
LINE
8
0
10
-391.518566
20
185.679312
11
-390.779000
21
185.530000
0
LINE
8
0
10
-390.779000
20
185.530000
11
-390.039434
21
185.679312
0
LINE
8
0
10
-390.039434
20
185.679312
11
-389.435497
21
186.086497
0
LINE
8
0
10
-389.435497
20
186.086497
11
-389.028312
21
186.690434
0
LINE
8
0
10
-389.028312
20
186.690434
11
-388.879000
21
187.430000
0
LINE
8
0
10
-388.879000
20
187.430000
11
-388.879000
21
187.430000
0
LINE
8
0
10
-42.834700
20
185.196000
11
-42.834700
21
-14.427500
0
LINE
8
0
10
-42.834700
20
-14.427500
11
-77.312700
21
-14.427500
0
LINE
8
0
10
-77.312700
20
-14.427500
11
-77.312700
21
185.196000
0
LINE
8
0
10
-77.312700
20
185.196000
11
-42.834700
21
185.196000
0
LINE
8
0
10
-42.834700
20
185.196000
11
-42.834700
21
185.196000
0
LINE
8
0
10
-389.838000
20
170.956000
11
-390.038962
21
171.706000
0
LINE
8
0
10
-390.038962
20
171.706000
11
-390.588000
21
172.255038
0
LINE
8
0
10
-390.588000
20
172.255038
11
-391.338000
21
172.456000
0
LINE
8
0
10
-391.338000
20
172.456000
11
-392.088000
21
172.255038
0
LINE
8
0
10
-392.088000
20
172.255038
11
-392.637038
21
171.706000
0
LINE
8
0
10
-392.637038
20
171.706000
11
-392.838000
21
170.956000
0
LINE
8
0
10
-392.838000
20
170.956000
11
-392.720122
21
170.372132
0
LINE
8
0
10
-392.720122
20
170.372132
11
-392.398660
21
169.895340
0
LINE
8
0
10
-392.398660
20
169.895340
11
-391.921868
21
169.573878
0
LINE
8
0
10
-391.921868
20
169.573878
11
-391.338000
21
169.456000
0
LINE
8
0
10
-391.338000
20
169.456000
11
-390.754132
21
169.573878
0
LINE
8
0
10
-390.754132
20
169.573878
11
-390.277340
21
169.895340
0
LINE
8
0
10
-390.277340
20
169.895340
11
-389.955878
21
170.372132
0
LINE
8
0
10
-389.955878
20
170.372132
11
-389.838000
21
170.956000
0
LINE
8
0
10
-389.838000
20
170.956000
11
-389.838000
21
170.956000
0
LINE
8
0
10
-99.574200
20
175.350000
11
-99.697014
21
175.928288
0
LINE
8
0
10
-99.697014
20
175.928288
11
-100.019581
21
176.399446
0
LINE
8
0
10
-100.019581
20
176.399446
11
-100.494432
21
176.716551
0
LINE
8
0
10
-100.494432
20
176.716551
11
-101.074100
21
176.832680
0
LINE
8
0
10
-101.074100
20
176.832680
11
-101.653768
21
176.716551
0
LINE
8
0
10
-101.653768
20
176.716551
11
-102.128619
21
176.399446
0
LINE
8
0
10
-102.128619
20
176.399446
11
-102.451186
21
175.928288
0
LINE
8
0
10
-102.451186
20
175.928288
11
-102.574000
21
175.350000
0
LINE
8
0
10
-102.574000
20
175.350000
11
-102.451186
21
174.771712
0
LINE
8
0
10
-102.451186
20
174.771712
11
-102.128619
21
174.300554
0
LINE
8
0
10
-102.128619
20
174.300554
11
-101.653768
21
173.983449
0
LINE
8
0
10
-101.653768
20
173.983449
11
-101.074100
21
173.867320
0
LINE
8
0
10
-101.074100
20
173.867320
11
-100.494432
21
173.983449
0
LINE
8
0
10
-100.494432
20
173.983449
11
-100.019581
21
174.300554
0
LINE
8
0
10
-100.019581
20
174.300554
11
-99.697014
21
174.771712
0
LINE
8
0
10
-99.697014
20
174.771712
11
-99.574200
21
175.350000
0
LINE
8
0
10
-99.574200
20
175.350000
11
-99.574200
21
175.350000
0
LINE
8
0
10
272.187000
20
-3.585440
11
271.108993
21
-3.692096
0
LINE
8
0
10
271.108993
20
-3.692096
11
270.082242
21
-4.004099
0
LINE
8
0
10
270.082242
20
-4.004099
11
269.135598
21
-4.509499
0
LINE
8
0
10
269.135598
20
-4.509499
11
268.297913
21
-5.196346
0
LINE
8
0
10
268.297913
20
-5.196346
11
267.611065
21
-6.034030
0
LINE
8
0
10
267.611065
20
-6.034030
11
267.105663
21
-6.980673
0
LINE
8
0
10
267.105663
20
-6.980673
11
266.793657
21
-8.007423
0
LINE
8
0
10
266.793657
20
-8.007423
11
266.687000
21
-9.085430
0
LINE
8
0
10
266.687000
20
-9.085430
11
266.687000
21
-12.227500
0
LINE
8
0
10
266.687000
20
-12.227500
11
-17.920900
21
-12.227500
0
LINE
8
0
10
-17.920900
20
-12.227500
11
-17.248892
21
-10.825890
0
LINE
8
0
10
-17.248892
20
-10.825890
11
-16.961193
21
-9.323436
0
LINE
8
0
10
-16.961193
20
-9.323436
11
-17.062535
21
-7.797044
0
LINE
8
0
10
-17.062535
20
-7.797044
11
-17.557651
21
-6.323624
0
LINE
8
0
10
-17.557651
20
-6.323624
11
-18.414437
21
-5.026697
0
LINE
8
0
10
-18.414437
20
-5.026697
11
-19.555282
21
-4.007573
0
LINE
8
0
10
-19.555282
20
-4.007573
11
-20.916648
21
-3.309846
0
LINE
8
0
10
-20.916648
20
-3.309846
11
-22.435000
21
-2.977110
0
LINE
8
0
10
-22.435000
20
-2.977110
11
-25.435000
21
-2.977110
0
LINE
8
0
10
-25.435000
20
-2.977110
11
-25.435000
21
167.196000
0
LINE
8
0
10
-25.435000
20
167.196000
11
-20.873100
21
167.196000
0
LINE
8
0
10
-20.873100
20
167.196000
11
-19.533708
21
167.462422
0
LINE
8
0
10
-19.533708
20
167.462422
11
-18.398226
21
168.221126
0
LINE
8
0
10
-18.398226
20
168.221126
11
-17.639522
21
169.356608
0
LINE
8
0
10
-17.639522
20
169.356608
11
-17.373100
21
170.696000
0
LINE
8
0
10
-17.373100
20
170.696000
11
-17.373100
21
178.196000
0
LINE
8
0
10
-17.373100
20
178.196000
11
265.487000
21
178.196000
0
LINE
8
0
10
265.487000
20
178.196000
11
265.487000
21
175.681000
0
LINE
8
0
10
265.487000
20
175.681000
11
265.574264
21
174.798993
0
LINE
8
0
10
265.574264
20
174.798993
11
265.829539
21
173.958923
0
LINE
8
0
10
265.829539
20
173.958923
11
266.243050
21
173.184395
0
LINE
8
0
10
266.243050
20
173.184395
11
266.805017
21
172.499017
0
LINE
8
0
10
266.805017
20
172.499017
11
267.490395
21
171.937050
0
LINE
8
0
10
267.490395
20
171.937050
11
268.264923
21
171.523539
0
LINE
8
0
10
268.264923
20
171.523539
11
269.104993
21
171.268264
0
LINE
8
0
10
269.104993
20
171.268264
11
269.987000
21
171.181000
0
LINE
8
0
10
269.987000
20
171.181000
11
272.456000
21
171.181000
0
LINE
8
0
10
272.456000
20
171.181000
11
272.456000
21
-3.585440
0
LINE
8
0
10
272.456000
20
-3.585440
11
272.187000
21
-3.585440
0
LINE
8
0
10
272.187000
20
-3.585440
11
272.187000
21
-3.585440
 0 
ENDSEC
 0 
EOF