999
"DXF R12 Output" (www.mydxf.blogspot.com)
 0 
SECTION
 2 
HEADER
 9 
$ACADVER
 1 
AC1009
 9 
$EXTMIN
 10 
 0 
 20 
 0 
 9 
$EXTMAX
 10 
 8.5 
 20 
 11 
 0 
ENDSEC
 0 
SECTION
 2 
ENTITIES
0
LINE
8
Layer 1
10
0.793749
20
297.794000
11
-0.793749
21
296.206000
0
LINE
8
Layer 1
10
0.000000
20
298.323000
11
0.000000
21
295.677000
0
LINE
8
Layer 1
10
2.116660
20
295.942000
11
1.058330
21
294.883670
0
LINE
8
Layer 1
10
1.587500
20
296.471000
11
0.529170
21
295.412670
0
LINE
8
Layer 1
10
1.058330
20
297.000000
11
0.000000
21
295.941670
0
LINE
8
0
10
290.510000
20
137.508000
11
318.010000
21
137.508000
0
LINE
8
0
10
318.010000
20
137.508000
11
318.010000
21
100.008000
0
LINE
8
0
10
318.010000
20
100.008000
11
290.510000
21
100.008000
0
LINE
8
0
10
290.510000
20
100.008000
11
290.510000
21
137.508000
0
LINE
8
0
10
290.510000
20
137.508000
11
290.510000
21
137.508000
0
LINE
8
0
10
272.540000
20
-9.024390
11
272.339038
21
-8.274390
0
LINE
8
0
10
272.339038
20
-8.274390
11
271.790000
21
-7.725352
0
LINE
8
0
10
271.790000
20
-7.725352
11
271.040000
21
-7.524390
0
LINE
8
0
10
271.040000
20
-7.524390
11
270.290000
21
-7.725352
0
LINE
8
0
10
270.290000
20
-7.725352
11
269.740962
21
-8.274390
0
LINE
8
0
10
269.740962
20
-8.274390
11
269.540000
21
-9.024390
0
LINE
8
0
10
269.540000
20
-9.024390
11
269.740962
21
-9.774390
0
LINE
8
0
10
269.740962
20
-9.774390
11
270.290000
21
-10.323428
0
LINE
8
0
10
270.290000
20
-10.323428
11
271.040000
21
-10.524390
0
LINE
8
0
10
271.040000
20
-10.524390
11
271.790000
21
-10.323428
0
LINE
8
0
10
271.790000
20
-10.323428
11
272.339038
21
-9.774390
0
LINE
8
0
10
272.339038
20
-9.774390
11
272.540000
21
-9.024390
0
LINE
8
0
10
272.540000
20
-9.024390
11
272.540000
21
-9.024390
0
LINE
8
0
10
-21.449800
20
-8.954970
11
-21.650762
21
-8.204970
0
LINE
8
0
10
-21.650762
20
-8.204970
11
-22.199800
21
-7.655932
0
LINE
8
0
10
-22.199800
20
-7.655932
11
-22.949800
21
-7.454970
0
LINE
8
0
10
-22.949800
20
-7.454970
11
-23.699800
21
-7.655932
0
LINE
8
0
10
-23.699800
20
-7.655932
11
-24.248838
21
-8.204970
0
LINE
8
0
10
-24.248838
20
-8.204970
11
-24.449800
21
-8.954970
0
LINE
8
0
10
-24.449800
20
-8.954970
11
-24.248838
21
-9.704970
0
LINE
8
0
10
-24.248838
20
-9.704970
11
-23.699800
21
-10.254008
0
LINE
8
0
10
-23.699800
20
-10.254008
11
-22.949800
21
-10.454970
0
LINE
8
0
10
-22.949800
20
-10.454970
11
-22.199800
21
-10.254008
0
LINE
8
0
10
-22.199800
20
-10.254008
11
-21.650762
21
-9.704970
0
LINE
8
0
10
-21.650762
20
-9.704970
11
-21.449800
21
-8.954970
0
LINE
8
0
10
-21.449800
20
-8.954970
11
-21.449800
21
-8.954970
0
LINE
8
0
10
-391.849000
20
-8.954970
11
-392.049962
21
-8.204970
0
LINE
8
0
10
-392.049962
20
-8.204970
11
-392.599000
21
-7.655932
0
LINE
8
0
10
-392.599000
20
-7.655932
11
-393.349000
21
-7.454970
0
LINE
8
0
10
-393.349000
20
-7.454970
11
-394.099000
21
-7.655932
0
LINE
8
0
10
-394.099000
20
-7.655932
11
-394.648038
21
-8.204970
0
LINE
8
0
10
-394.648038
20
-8.204970
11
-394.849000
21
-8.954970
0
LINE
8
0
10
-394.849000
20
-8.954970
11
-394.648038
21
-9.704970
0
LINE
8
0
10
-394.648038
20
-9.704970
11
-394.099000
21
-10.254008
0
LINE
8
0
10
-394.099000
20
-10.254008
11
-393.349000
21
-10.454970
0
LINE
8
0
10
-393.349000
20
-10.454970
11
-392.599000
21
-10.254008
0
LINE
8
0
10
-392.599000
20
-10.254008
11
-392.049962
21
-9.704970
0
LINE
8
0
10
-392.049962
20
-9.704970
11
-391.849000
21
-8.954970
0
LINE
8
0
10
-391.849000
20
-8.954970
11
-391.849000
21
-8.954970
0
LINE
8
0
10
-393.470000
20
159.210000
11
-393.657000
21
162.880000
0
LINE
8
0
10
-393.657000
20
162.880000
11
-393.842000
21
162.880000
0
LINE
8
0
10
-393.842000
20
162.880000
11
-393.659000
21
162.919000
0
LINE
8
0
10
-393.659000
20
162.919000
11
-393.842000
21
166.510000
0
LINE
8
0
10
-393.842000
20
166.510000
11
-391.829000
21
166.613000
0
LINE
8
0
10
-391.829000
20
166.613000
11
-391.049913
21
166.730422
0
LINE
8
0
10
-391.049913
20
166.730422
11
-390.315672
21
166.995113
0
LINE
8
0
10
-390.315672
20
166.995113
11
-389.646793
21
167.397322
0
LINE
8
0
10
-389.646793
20
167.397322
11
-389.063792
21
167.927298
0
LINE
8
0
10
-389.063792
20
167.927298
11
-388.595959
21
168.561251
0
LINE
8
0
10
-388.595959
20
168.561251
11
-388.263975
21
169.267621
0
LINE
8
0
10
-388.263975
20
169.267621
11
-388.075451
21
170.025005
0
LINE
8
0
10
-388.075451
20
170.025005
11
-388.038000
21
170.812000
0
LINE
8
0
10
-388.038000
20
170.812000
11
-388.415000
21
178.193000
0
LINE
8
0
10
-388.415000
20
178.193000
11
-388.364000
21
178.196000
0
LINE
8
0
10
-388.364000
20
178.196000
11
-105.956000
21
178.196000
0
LINE
8
0
10
-105.956000
20
178.196000
11
-105.956000
21
176.696000
0
LINE
8
0
10
-105.956000
20
176.696000
11
-105.849344
21
175.617992
0
LINE
8
0
10
-105.849344
20
175.617992
11
-105.537340
21
174.591240
0
LINE
8
0
10
-105.537340
20
174.591240
11
-105.031938
21
173.644595
0
LINE
8
0
10
-105.031938
20
173.644595
11
-104.345090
21
172.806910
0
LINE
8
0
10
-104.345090
20
172.806910
11
-103.507405
21
172.120062
0
LINE
8
0
10
-103.507405
20
172.120062
11
-102.560760
21
171.614660
0
LINE
8
0
10
-102.560760
20
171.614660
11
-101.534008
21
171.302656
0
LINE
8
0
10
-101.534008
20
171.302656
11
-100.456000
21
171.196000
0
LINE
8
0
10
-100.456000
20
171.196000
11
-96.512700
21
171.196000
0
LINE
8
0
10
-96.512700
20
171.196000
11
-96.512700
21
-4.804070
0
LINE
8
0
10
-96.512700
20
-4.804070
11
-99.512700
21
-4.804070
0
LINE
8
0
10
-99.512700
20
-4.804070
11
-100.492751
21
-4.900978
0
LINE
8
0
10
-100.492751
20
-4.900978
11
-101.426211
21
-5.184584
0
LINE
8
0
10
-101.426211
20
-5.184584
11
-102.286848
21
-5.644021
0
LINE
8
0
10
-102.286848
20
-5.644021
11
-103.048431
21
-6.268427
0
LINE
8
0
10
-103.048431
20
-6.268427
11
-103.672882
21
-7.029972
0
LINE
8
0
10
-103.672882
20
-7.029972
11
-104.132372
21
-7.890582
0
LINE
8
0
10
-104.132372
20
-7.890582
11
-104.416033
21
-8.824025
0
LINE
8
0
10
-104.416033
20
-8.824025
11
-104.513000
21
-9.804070
0
LINE
8
0
10
-104.513000
20
-9.804070
11
-104.513000
21
-12.227500
0
LINE
8
0
10
-104.513000
20
-12.227500
11
-388.320000
21
-12.227500
0
LINE
8
0
10
-388.320000
20
-12.227500
11
-387.647101
21
-10.823103
0
LINE
8
0
10
-387.647101
20
-10.823103
11
-387.359988
21
-9.317721
0
LINE
8
0
10
-387.359988
20
-9.317721
11
-387.463346
21
-7.788693
0
LINE
8
0
10
-387.463346
20
-7.788693
11
-387.961857
21
-6.313359
0
LINE
8
0
10
-387.961857
20
-6.313359
11
-388.823048
21
-5.015871
0
LINE
8
0
10
-388.823048
20
-5.015871
11
-389.968645
21
-3.997924
0
LINE
8
0
10
-389.968645
20
-3.997924
11
-391.334634
21
-3.303169
0
LINE
8
0
10
-391.334634
20
-3.303169
11
-392.857000
21
-2.975260
0
LINE
8
0
10
-392.857000
20
-2.975260
11
-392.857000
21
147.196000
0
LINE
8
0
10
-392.857000
20
147.196000
11
-393.467000
21
159.148000
0
LINE
8
0
10
-393.467000
20
159.148000
11
-393.842000
21
159.210000
0
LINE
8
0
10
-393.842000
20
159.210000
11
-393.470000
21
159.210000
0
LINE
8
0
10
-393.470000
20
159.210000
11
-393.470000
21
159.210000
0
LINE
8
0
10
-97.832100
20
-9.045810
11
-97.953479
21
-8.465884
0
LINE
8
0
10
-97.953479
20
-8.465884
11
-98.275729
21
-7.993076
0
LINE
8
0
10
-98.275729
20
-7.993076
11
-98.751152
21
-7.674697
0
LINE
8
0
10
-98.751152
20
-7.674697
11
-99.332050
21
-7.558057
0
LINE
8
0
10
-99.332050
20
-7.558057
11
-99.912948
21
-7.674697
0
LINE
8
0
10
-99.912948
20
-7.674697
11
-100.388371
21
-7.993076
0
LINE
8
0
10
-100.388371
20
-7.993076
11
-100.710621
21
-8.465884
0
LINE
8
0
10
-100.710621
20
-8.465884
11
-100.832000
21
-9.045810
0
LINE
8
0
10
-100.832000
20
-9.045810
11
-100.710621
21
-9.625736
0
LINE
8
0
10
-100.710621
20
-9.625736
11
-100.388371
21
-10.098544
0
LINE
8
0
10
-100.388371
20
-10.098544
11
-99.912948
21
-10.416923
0
LINE
8
0
10
-99.912948
20
-10.416923
11
-99.332050
21
-10.533563
0
LINE
8
0
10
-99.332050
20
-10.533563
11
-98.751152
21
-10.416923
0
LINE
8
0
10
-98.751152
20
-10.416923
11
-98.275729
21
-10.098544
0
LINE
8
0
10
-98.275729
20
-10.098544
11
-97.953479
21
-9.625736
0
LINE
8
0
10
-97.953479
20
-9.625736
11
-97.832100
21
-9.045810
0
LINE
8
0
10
-97.832100
20
-9.045810
11
-97.832100
21
-9.045810
0
LINE
8
0
10
-19.453100
20
170.972000
11
-19.654062
21
171.722000
0
LINE
8
0
10
-19.654062
20
171.722000
11
-20.203100
21
172.271038
0
LINE
8
0
10
-20.203100
20
172.271038
11
-20.953100
21
172.472000
0
LINE
8
0
10
-20.953100
20
172.472000
11
-21.703100
21
172.271038
0
LINE
8
0
10
-21.703100
20
172.271038
11
-22.252138
21
171.722000
0
LINE
8
0
10
-22.252138
20
171.722000
11
-22.453100
21
170.972000
0
LINE
8
0
10
-22.453100
20
170.972000
11
-22.252138
21
170.222000
0
LINE
8
0
10
-22.252138
20
170.222000
11
-21.703100
21
169.672962
0
LINE
8
0
10
-21.703100
20
169.672962
11
-20.953100
21
169.472000
0
LINE
8
0
10
-20.953100
20
169.472000
11
-20.203100
21
169.672962
0
LINE
8
0
10
-20.203100
20
169.672962
11
-19.654062
21
170.222000
0
LINE
8
0
10
-19.654062
20
170.222000
11
-19.453100
21
170.972000
0
LINE
8
0
10
-19.453100
20
170.972000
11
-19.453100
21
170.972000
0
LINE
8
0
10
270.794000
20
175.415000
11
270.593038
21
176.165000
0
LINE
8
0
10
270.593038
20
176.165000
11
270.044000
21
176.714038
0
LINE
8
0
10
270.044000
20
176.714038
11
269.294000
21
176.915000
0
LINE
8
0
10
269.294000
20
176.915000
11
268.544000
21
176.714038
0
LINE
8
0
10
268.544000
20
176.714038
11
267.994962
21
176.165000
0
LINE
8
0
10
267.994962
20
176.165000
11
267.794000
21
175.415000
0
LINE
8
0
10
267.794000
20
175.415000
11
267.994962
21
174.665000
0
LINE
8
0
10
267.994962
20
174.665000
11
268.544000
21
174.115962
0
LINE
8
0
10
268.544000
20
174.115962
11
269.294000
21
173.915000
0
LINE
8
0
10
269.294000
20
173.915000
11
270.044000
21
174.115962
0
LINE
8
0
10
270.044000
20
174.115962
11
270.593038
21
174.665000
0
LINE
8
0
10
270.593038
20
174.665000
11
270.794000
21
175.415000
0
LINE
8
0
10
270.794000
20
175.415000
11
270.794000
21
175.415000
0
LINE
8
0
10
-522.312000
20
-112.504000
11
-522.388154
21
-111.929981
0
LINE
8
0
10
-522.388154
20
-111.929981
11
-522.606744
21
-111.404000
0
LINE
8
0
10
-522.606744
20
-111.404000
11
-522.952962
21
-110.951705
0
LINE
8
0
10
-522.952962
20
-110.951705
11
-523.412000
21
-110.598744
0
LINE
8
0
10
-523.412000
20
-110.598744
11
-523.947192
21
-110.377686
0
LINE
8
0
10
-523.947192
20
-110.377686
11
-524.512000
21
-110.304000
0
LINE
8
0
10
-524.512000
20
-110.304000
11
-525.076808
21
-110.377686
0
LINE
8
0
10
-525.076808
20
-110.377686
11
-525.612000
21
-110.598744
0
LINE
8
0
10
-525.612000
20
-110.598744
11
-526.071038
21
-110.951705
0
LINE
8
0
10
-526.071038
20
-110.951705
11
-526.417256
21
-111.404000
0
LINE
8
0
10
-526.417256
20
-111.404000
11
-526.635846
21
-111.929981
0
LINE
8
0
10
-526.635846
20
-111.929981
11
-526.712000
21
-112.504000
0
LINE
8
0
10
-526.712000
20
-112.504000
11
-526.635846
21
-113.078019
0
LINE
8
0
10
-526.635846
20
-113.078019
11
-526.417256
21
-113.604000
0
LINE
8
0
10
-526.417256
20
-113.604000
11
-526.071038
21
-114.056295
0
LINE
8
0
10
-526.071038
20
-114.056295
11
-525.612000
21
-114.409256
0
LINE
8
0
10
-525.612000
20
-114.409256
11
-525.076808
21
-114.630314
0
LINE
8
0
10
-525.076808
20
-114.630314
11
-524.512000
21
-114.704000
0
LINE
8
0
10
-524.512000
20
-114.704000
11
-523.947192
21
-114.630314
0
LINE
8
0
10
-523.947192
20
-114.630314
11
-523.412000
21
-114.409256
0
LINE
8
0
10
-523.412000
20
-114.409256
11
-522.952962
21
-114.056295
0
LINE
8
0
10
-522.952962
20
-114.056295
11
-522.606744
21
-113.604000
0
LINE
8
0
10
-522.606744
20
-113.604000
11
-522.388154
21
-113.078019
0
LINE
8
0
10
-522.388154
20
-113.078019
11
-522.312000
21
-112.504000
0
LINE
8
0
10
-522.312000
20
-112.504000
11
-522.312000
21
-112.504000
0
LINE
8
0
10
-522.312000
20
19.387800
11
-522.388154
21
19.961819
0
LINE
8
0
10
-522.388154
20
19.961819
11
-522.606744
21
20.487800
0
LINE
8
0
10
-522.606744
20
20.487800
11
-522.952962
21
20.940095
0
LINE
8
0
10
-522.952962
20
20.940095
11
-523.412000
21
21.293056
0
LINE
8
0
10
-523.412000
20
21.293056
11
-523.947192
21
21.514114
0
LINE
8
0
10
-523.947192
20
21.514114
11
-524.512000
21
21.587800
0
LINE
8
0
10
-524.512000
20
21.587800
11
-525.076808
21
21.514114
0
LINE
8
0
10
-525.076808
20
21.514114
11
-525.612000
21
21.293056
0
LINE
8
0
10
-525.612000
20
21.293056
11
-526.071038
21
20.940095
0
LINE
8
0
10
-526.071038
20
20.940095
11
-526.417256
21
20.487800
0
LINE
8
0
10
-526.417256
20
20.487800
11
-526.635846
21
19.961819
0
LINE
8
0
10
-526.635846
20
19.961819
11
-526.712000
21
19.387800
0
LINE
8
0
10
-526.712000
20
19.387800
11
-526.635846
21
18.813781
0
LINE
8
0
10
-526.635846
20
18.813781
11
-526.417256
21
18.287800
0
LINE
8
0
10
-526.417256
20
18.287800
11
-526.071038
21
17.835505
0
LINE
8
0
10
-526.071038
20
17.835505
11
-525.612000
21
17.482544
0
LINE
8
0
10
-525.612000
20
17.482544
11
-525.076808
21
17.261486
0
LINE
8
0
10
-525.076808
20
17.261486
11
-524.512000
21
17.187800
0
LINE
8
0
10
-524.512000
20
17.187800
11
-523.947192
21
17.261486
0
LINE
8
0
10
-523.947192
20
17.261486
11
-523.412000
21
17.482544
0
LINE
8
0
10
-523.412000
20
17.482544
11
-522.952962
21
17.835505
0
LINE
8
0
10
-522.952962
20
17.835505
11
-522.606744
21
18.287800
0
LINE
8
0
10
-522.606744
20
18.287800
11
-522.388154
21
18.813781
0
LINE
8
0
10
-522.388154
20
18.813781
11
-522.312000
21
19.387800
0
LINE
8
0
10
-522.312000
20
19.387800
11
-522.312000
21
19.387800
0
LINE
8
0
10
375.687000
20
19.387800
11
375.610846
21
19.961819
0
LINE
8
0
10
375.610846
20
19.961819
11
375.392256
21
20.487800
0
LINE
8
0
10
375.392256
20
20.487800
11
375.046038
21
20.940095
0
LINE
8
0
10
375.046038
20
20.940095
11
374.587000
21
21.293056
0
LINE
8
0
10
374.587000
20
21.293056
11
374.051808
21
21.514114
0
LINE
8
0
10
374.051808
20
21.514114
11
373.487000
21
21.587800
0
LINE
8
0
10
373.487000
20
21.587800
11
372.922192
21
21.514114
0
LINE
8
0
10
372.922192
20
21.514114
11
372.387000
21
21.293056
0
LINE
8
0
10
372.387000
20
21.293056
11
371.927962
21
20.940095
0
LINE
8
0
10
371.927962
20
20.940095
11
371.581744
21
20.487800
0
LINE
8
0
10
371.581744
20
20.487800
11
371.363154
21
19.961819
0
LINE
8
0
10
371.363154
20
19.961819
11
371.287000
21
19.387800
0
LINE
8
0
10
371.287000
20
19.387800
11
371.363154
21
18.813781
0
LINE
8
0
10
371.363154
20
18.813781
11
371.581744
21
18.287800
0
LINE
8
0
10
371.581744
20
18.287800
11
371.927962
21
17.835505
0
LINE
8
0
10
371.927962
20
17.835505
11
372.387000
21
17.482544
0
LINE
8
0
10
372.387000
20
17.482544
11
372.922192
21
17.261486
0
LINE
8
0
10
372.922192
20
17.261486
11
373.487000
21
17.187800
0
LINE
8
0
10
373.487000
20
17.187800
11
374.051808
21
17.261486
0
LINE
8
0
10
374.051808
20
17.261486
11
374.587000
21
17.482544
0
LINE
8
0
10
374.587000
20
17.482544
11
375.046038
21
17.835505
0
LINE
8
0
10
375.046038
20
17.835505
11
375.392256
21
18.287800
0
LINE
8
0
10
375.392256
20
18.287800
11
375.610846
21
18.813781
0
LINE
8
0
10
375.610846
20
18.813781
11
375.687000
21
19.387800
0
LINE
8
0
10
375.687000
20
19.387800
11
375.687000
21
19.387800
0
LINE
8
0
10
375.687000
20
-112.504000
11
375.610846
21
-111.929981
0
LINE
8
0
10
375.610846
20
-111.929981
11
375.392256
21
-111.404000
0
LINE
8
0
10
375.392256
20
-111.404000
11
375.046038
21
-110.951705
0
LINE
8
0
10
375.046038
20
-110.951705
11
374.587000
21
-110.598744
0
LINE
8
0
10
374.587000
20
-110.598744
11
374.051808
21
-110.377686
0
LINE
8
0
10
374.051808
20
-110.377686
11
373.487000
21
-110.304000
0
LINE
8
0
10
373.487000
20
-110.304000
11
372.922192
21
-110.377686
0
LINE
8
0
10
372.922192
20
-110.377686
11
372.387000
21
-110.598744
0
LINE
8
0
10
372.387000
20
-110.598744
11
371.927962
21
-110.951705
0
LINE
8
0
10
371.927962
20
-110.951705
11
371.581744
21
-111.404000
0
LINE
8
0
10
371.581744
20
-111.404000
11
371.363154
21
-111.929981
0
LINE
8
0
10
371.363154
20
-111.929981
11
371.287000
21
-112.504000
0
LINE
8
0
10
371.287000
20
-112.504000
11
371.363154
21
-113.078019
0
LINE
8
0
10
371.363154
20
-113.078019
11
371.581744
21
-113.604000
0
LINE
8
0
10
371.581744
20
-113.604000
11
371.927962
21
-114.056295
0
LINE
8
0
10
371.927962
20
-114.056295
11
372.387000
21
-114.409256
0
LINE
8
0
10
372.387000
20
-114.409256
11
372.922192
21
-114.630314
0
LINE
8
0
10
372.922192
20
-114.630314
11
373.487000
21
-114.704000
0
LINE
8
0
10
373.487000
20
-114.704000
11
374.051808
21
-114.630314
0
LINE
8
0
10
374.051808
20
-114.630314
11
374.587000
21
-114.409256
0
LINE
8
0
10
374.587000
20
-114.409256
11
375.046038
21
-114.056295
0
LINE
8
0
10
375.046038
20
-114.056295
11
375.392256
21
-113.604000
0
LINE
8
0
10
375.392256
20
-113.604000
11
375.610846
21
-113.078019
0
LINE
8
0
10
375.610846
20
-113.078019
11
375.687000
21
-112.504000
0
LINE
8
0
10
375.687000
20
-112.504000
11
375.687000
21
-112.504000
0
LINE
8
0
10
315.012000
20
-140.259000
11
314.935846
21
-139.684981
0
LINE
8
0
10
314.935846
20
-139.684981
11
314.717256
21
-139.159000
0
LINE
8
0
10
314.717256
20
-139.159000
11
314.371038
21
-138.706705
0
LINE
8
0
10
314.371038
20
-138.706705
11
313.912000
21
-138.353744
0
LINE
8
0
10
313.912000
20
-138.353744
11
313.376808
21
-138.132686
0
LINE
8
0
10
313.376808
20
-138.132686
11
312.812000
21
-138.059000
0
LINE
8
0
10
312.812000
20
-138.059000
11
312.247192
21
-138.132686
0
LINE
8
0
10
312.247192
20
-138.132686
11
311.712000
21
-138.353744
0
LINE
8
0
10
311.712000
20
-138.353744
11
311.252962
21
-138.706705
0
LINE
8
0
10
311.252962
20
-138.706705
11
310.906744
21
-139.159000
0
LINE
8
0
10
310.906744
20
-139.159000
11
310.688154
21
-139.684981
0
LINE
8
0
10
310.688154
20
-139.684981
11
310.612000
21
-140.259000
0
LINE
8
0
10
310.612000
20
-140.259000
11
310.688154
21
-140.833019
0
LINE
8
0
10
310.688154
20
-140.833019
11
310.906744
21
-141.359000
0
LINE
8
0
10
310.906744
20
-141.359000
11
311.252962
21
-141.811295
0
LINE
8
0
10
311.252962
20
-141.811295
11
311.712000
21
-142.164256
0
LINE
8
0
10
311.712000
20
-142.164256
11
312.247192
21
-142.385314
0
LINE
8
0
10
312.247192
20
-142.385314
11
312.812000
21
-142.459000
0
LINE
8
0
10
312.812000
20
-142.459000
11
313.376808
21
-142.385314
0
LINE
8
0
10
313.376808
20
-142.385314
11
313.912000
21
-142.164256
0
LINE
8
0
10
313.912000
20
-142.164256
11
314.371038
21
-141.811295
0
LINE
8
0
10
314.371038
20
-141.811295
11
314.717256
21
-141.359000
0
LINE
8
0
10
314.717256
20
-141.359000
11
314.935846
21
-140.833019
0
LINE
8
0
10
314.935846
20
-140.833019
11
315.012000
21
-140.259000
0
LINE
8
0
10
315.012000
20
-140.259000
11
315.012000
21
-140.259000
0
LINE
8
0
10
-410.246000
20
-140.259000
11
-410.322154
21
-139.684981
0
LINE
8
0
10
-410.322154
20
-139.684981
11
-410.540744
21
-139.159000
0
LINE
8
0
10
-410.540744
20
-139.159000
11
-410.886962
21
-138.706705
0
LINE
8
0
10
-410.886962
20
-138.706705
11
-411.346000
21
-138.353744
0
LINE
8
0
10
-411.346000
20
-138.353744
11
-411.881192
21
-138.132686
0
LINE
8
0
10
-411.881192
20
-138.132686
11
-412.446000
21
-138.059000
0
LINE
8
0
10
-412.446000
20
-138.059000
11
-413.010808
21
-138.132686
0
LINE
8
0
10
-413.010808
20
-138.132686
11
-413.546000
21
-138.353744
0
LINE
8
0
10
-413.546000
20
-138.353744
11
-414.005038
21
-138.706705
0
LINE
8
0
10
-414.005038
20
-138.706705
11
-414.351256
21
-139.159000
0
LINE
8
0
10
-414.351256
20
-139.159000
11
-414.569846
21
-139.684981
0
LINE
8
0
10
-414.569846
20
-139.684981
11
-414.646000
21
-140.259000
0
LINE
8
0
10
-414.646000
20
-140.259000
11
-414.569846
21
-140.833019
0
LINE
8
0
10
-414.569846
20
-140.833019
11
-414.351256
21
-141.359000
0
LINE
8
0
10
-414.351256
20
-141.359000
11
-414.005038
21
-141.811295
0
LINE
8
0
10
-414.005038
20
-141.811295
11
-413.546000
21
-142.164256
0
LINE
8
0
10
-413.546000
20
-142.164256
11
-413.010808
21
-142.385314
0
LINE
8
0
10
-413.010808
20
-142.385314
11
-412.446000
21
-142.459000
0
LINE
8
0
10
-412.446000
20
-142.459000
11
-411.881192
21
-142.385314
0
LINE
8
0
10
-411.881192
20
-142.385314
11
-411.346000
21
-142.164256
0
LINE
8
0
10
-411.346000
20
-142.164256
11
-410.886962
21
-141.811295
0
LINE
8
0
10
-410.886962
20
-141.811295
11
-410.540744
21
-141.359000
0
LINE
8
0
10
-410.540744
20
-141.359000
11
-410.322154
21
-140.833019
0
LINE
8
0
10
-410.322154
20
-140.833019
11
-410.246000
21
-140.259000
0
LINE
8
0
10
-410.246000
20
-140.259000
11
-410.246000
21
-140.259000
0
LINE
8
0
10
-499.813000
20
-115.254000
11
-499.786058
21
-113.479000
0
LINE
8
0
10
-499.786058
20
-113.479000
11
-500.169284
21
-111.769934
0
LINE
8
0
10
-500.169284
20
-111.769934
11
-500.938291
21
-110.196277
0
LINE
8
0
10
-500.938291
20
-110.196277
11
-502.068693
21
-108.827504
0
LINE
8
0
10
-502.068693
20
-108.827504
11
-503.489025
21
-107.762607
0
LINE
8
0
10
-503.489025
20
-107.762607
11
-505.097050
21
-107.068326
0
LINE
8
0
10
-505.097050
20
-107.068326
11
-506.822222
21
-106.765758
0
LINE
8
0
10
-506.822222
20
-106.765758
11
-508.594000
21
-106.876000
0
LINE
8
0
10
-508.594000
20
-106.876000
11
-508.594000
21
21.368200
0
LINE
8
0
10
-508.594000
20
21.368200
11
-507.287706
21
21.245593
0
LINE
8
0
10
-507.287706
20
21.245593
11
-506.009030
21
21.348032
0
LINE
8
0
10
-506.009030
20
21.348032
11
-504.782574
21
21.661992
0
LINE
8
0
10
-504.782574
20
21.661992
11
-503.632937
21
22.173947
0
LINE
8
0
10
-503.632937
20
22.173947
11
-502.584722
21
22.870371
0
LINE
8
0
10
-502.584722
20
22.870371
11
-501.662529
21
23.737738
0
LINE
8
0
10
-501.662529
20
23.737738
11
-500.890959
21
24.762524
0
LINE
8
0
10
-500.890959
20
24.762524
11
-500.294613
21
25.931202
0
LINE
8
0
10
-500.294613
20
25.931202
11
-499.909820
21
27.185543
0
LINE
8
0
10
-499.909820
20
27.185543
11
-499.751001
21
28.458446
0
LINE
8
0
10
-499.751001
20
28.458446
11
-499.809895
21
29.723079
0
LINE
8
0
10
-499.809895
20
29.723079
11
-500.078245
21
30.952612
0
LINE
8
0
10
-500.078245
20
30.952612
11
-500.547789
21
32.120212
0
LINE
8
0
10
-500.547789
20
32.120212
11
-501.210269
21
33.199048
0
LINE
8
0
10
-501.210269
20
33.199048
11
-502.057426
21
34.162288
0
LINE
8
0
10
-502.057426
20
34.162288
11
-503.081000
21
34.983100
0
LINE
8
0
10
-503.081000
20
34.983100
11
-460.461000
21
86.195800
0
LINE
8
0
10
-460.461000
20
86.195800
11
-422.605000
21
86.195800
0
LINE
8
0
10
-422.605000
20
86.195800
11
-422.737585
21
84.378289
0
LINE
8
0
10
-422.737585
20
84.378289
11
-422.435095
21
82.607168
0
LINE
8
0
10
-422.435095
20
82.607168
11
-421.720230
21
80.958733
0
LINE
8
0
10
-421.720230
20
80.958733
11
-420.615688
21
79.509281
0
LINE
8
0
10
-420.615688
20
79.509281
11
-419.194307
21
78.368842
0
LINE
8
0
10
-419.194307
20
78.368842
11
-417.564262
21
77.612983
0
LINE
8
0
10
-417.564262
20
77.612983
11
-415.801258
21
77.266302
0
LINE
8
0
10
-415.801258
20
77.266302
11
-413.981000
21
77.353400
0
LINE
8
0
10
-413.981000
20
77.353400
11
-413.981000
21
-21.151900
0
LINE
8
0
10
-413.981000
20
-21.151900
11
-413.787079
21
-23.111914
0
LINE
8
0
10
-413.787079
20
-23.111914
11
-413.219798
21
-24.978736
0
LINE
8
0
10
-413.219798
20
-24.978736
11
-412.300886
21
-26.699907
0
LINE
8
0
10
-412.300886
20
-26.699907
11
-411.052071
21
-28.222971
0
LINE
8
0
10
-411.052071
20
-28.222971
11
-409.529007
21
-29.471786
0
LINE
8
0
10
-409.529007
20
-29.471786
11
-407.807836
21
-30.390698
0
LINE
8
0
10
-407.807836
20
-30.390698
11
-405.941014
21
-30.957979
0
LINE
8
0
10
-405.941014
20
-30.957979
11
-403.981000
21
-31.151900
0
LINE
8
0
10
-403.981000
20
-31.151900
11
-328.665000
21
-31.151900
0
LINE
8
0
10
-328.665000
20
-31.151900
11
-328.719062
21
-32.894744
0
LINE
8
0
10
-328.719062
20
-32.894744
11
-328.376119
21
-34.581419
0
LINE
8
0
10
-328.376119
20
-34.581419
11
-327.657834
21
-36.145563
0
LINE
8
0
10
-327.657834
20
-36.145563
11
-326.585871
21
-37.520817
0
LINE
8
0
10
-326.585871
20
-37.520817
11
-325.225414
21
-38.611498
0
LINE
8
0
10
-325.225414
20
-38.611498
11
-323.671245
21
-39.351119
0
LINE
8
0
10
-323.671245
20
-39.351119
11
-321.989421
21
-39.717109
0
LINE
8
0
10
-321.989421
20
-39.717109
11
-320.246000
21
-39.686900
0
LINE
8
0
10
-320.246000
20
-39.686900
11
-320.246000
21
-106.821000
0
LINE
8
0
10
-320.246000
20
-106.821000
11
-321.976298
21
-106.789603
0
LINE
8
0
10
-321.976298
20
-106.789603
11
-323.646719
21
-107.148659
0
LINE
8
0
10
-323.646719
20
-107.148659
11
-325.192597
21
-107.876320
0
LINE
8
0
10
-325.192597
20
-107.876320
11
-326.549266
21
-108.950734
0
LINE
8
0
10
-326.549266
20
-108.950734
11
-327.623680
21
-110.307403
0
LINE
8
0
10
-327.623680
20
-110.307403
11
-328.351341
21
-111.853281
0
LINE
8
0
10
-328.351341
20
-111.853281
11
-328.710397
21
-113.523702
0
LINE
8
0
10
-328.710397
20
-113.523702
11
-328.679000
21
-115.254000
0
LINE
8
0
10
-328.679000
20
-115.254000
11
-499.813000
21
-115.254000
0
LINE
8
0
10
-499.813000
20
-115.254000
11
-499.813000
21
-115.254000
0
LINE
8
0
10
-413.346000
20
84.746000
11
-413.600552
21
85.696000
0
LINE
8
0
10
-413.600552
20
85.696000
11
-414.296000
21
86.391448
0
LINE
8
0
10
-414.296000
20
86.391448
11
-415.246000
21
86.646000
0
LINE
8
0
10
-415.246000
20
86.646000
11
-416.196000
21
86.391448
0
LINE
8
0
10
-416.196000
20
86.391448
11
-416.891448
21
85.696000
0
LINE
8
0
10
-416.891448
20
85.696000
11
-417.146000
21
84.746000
0
LINE
8
0
10
-417.146000
20
84.746000
11
-416.996688
21
84.006434
0
LINE
8
0
10
-416.996688
20
84.006434
11
-416.589503
21
83.402497
0
LINE
8
0
10
-416.589503
20
83.402497
11
-415.985566
21
82.995312
0
LINE
8
0
10
-415.985566
20
82.995312
11
-415.246000
21
82.846000
0
LINE
8
0
10
-415.246000
20
82.846000
11
-414.506434
21
82.995312
0
LINE
8
0
10
-414.506434
20
82.995312
11
-413.902497
21
83.402497
0
LINE
8
0
10
-413.902497
20
83.402497
11
-413.495312
21
84.006434
0
LINE
8
0
10
-413.495312
20
84.006434
11
-413.346000
21
84.746000
0
LINE
8
0
10
-413.346000
20
84.746000
11
-413.346000
21
84.746000
0
LINE
8
0
10
2.560480
20
198.741000
11
2.409916
21
199.479166
0
LINE
8
0
10
2.409916
20
199.479166
11
2.002446
21
200.081684
0
LINE
8
0
10
2.002446
20
200.081684
11
1.398994
21
200.487771
0
LINE
8
0
10
1.398994
20
200.487771
11
0.660485
21
200.636641
0
LINE
8
0
10
0.660485
20
200.636641
11
-0.078024
21
200.487771
0
LINE
8
0
10
-0.078024
20
200.487771
11
-0.681476
21
200.081684
0
LINE
8
0
10
-0.681476
20
200.081684
11
-1.088946
21
199.479166
0
LINE
8
0
10
-1.088946
20
199.479166
11
-1.239510
21
198.741000
0
LINE
8
0
10
-1.239510
20
198.741000
11
-1.088946
21
198.002834
0
LINE
8
0
10
-1.088946
20
198.002834
11
-0.681476
21
197.400316
0
LINE
8
0
10
-0.681476
20
197.400316
11
-0.078024
21
196.994229
0
LINE
8
0
10
-0.078024
20
196.994229
11
0.660485
21
196.845359
0
LINE
8
0
10
0.660485
20
196.845359
11
1.398994
21
196.994229
0
LINE
8
0
10
1.398994
20
196.994229
11
2.002446
21
197.400316
0
LINE
8
0
10
2.002446
20
197.400316
11
2.409916
21
198.002834
0
LINE
8
0
10
2.409916
20
198.002834
11
2.560480
21
198.741000
0
LINE
8
0
10
2.560480
20
198.741000
11
2.560480
21
198.741000
0
LINE
8
0
10
-73.499400
20
198.741000
11
-73.753952
21
199.691000
0
LINE
8
0
10
-73.753952
20
199.691000
11
-74.449400
21
200.386448
0
LINE
8
0
10
-74.449400
20
200.386448
11
-75.399400
21
200.641000
0
LINE
8
0
10
-75.399400
20
200.641000
11
-76.349400
21
200.386448
0
LINE
8
0
10
-76.349400
20
200.386448
11
-77.044848
21
199.691000
0
LINE
8
0
10
-77.044848
20
199.691000
11
-77.299400
21
198.741000
0
LINE
8
0
10
-77.299400
20
198.741000
11
-77.044848
21
197.791000
0
LINE
8
0
10
-77.044848
20
197.791000
11
-76.349400
21
197.095552
0
LINE
8
0
10
-76.349400
20
197.095552
11
-75.399400
21
196.841000
0
LINE
8
0
10
-75.399400
20
196.841000
11
-74.449400
21
197.095552
0
LINE
8
0
10
-74.449400
20
197.095552
11
-73.753952
21
197.791000
0
LINE
8
0
10
-73.753952
20
197.791000
11
-73.499400
21
198.741000
0
LINE
8
0
10
-73.499400
20
198.741000
11
-73.499400
21
198.741000
0
LINE
8
0
10
-149.559000
20
198.741000
11
-149.813552
21
199.691000
0
LINE
8
0
10
-149.813552
20
199.691000
11
-150.509000
21
200.386448
0
LINE
8
0
10
-150.509000
20
200.386448
11
-151.459000
21
200.641000
0
LINE
8
0
10
-151.459000
20
200.641000
11
-152.409000
21
200.386448
0
LINE
8
0
10
-152.409000
20
200.386448
11
-153.104448
21
199.691000
0
LINE
8
0
10
-153.104448
20
199.691000
11
-153.359000
21
198.741000
0
LINE
8
0
10
-153.359000
20
198.741000
11
-153.104448
21
197.791000
0
LINE
8
0
10
-153.104448
20
197.791000
11
-152.409000
21
197.095552
0
LINE
8
0
10
-152.409000
20
197.095552
11
-151.459000
21
196.841000
0
LINE
8
0
10
-151.459000
20
196.841000
11
-150.509000
21
197.095552
0
LINE
8
0
10
-150.509000
20
197.095552
11
-149.813552
21
197.791000
0
LINE
8
0
10
-149.813552
20
197.791000
11
-149.559000
21
198.741000
0
LINE
8
0
10
-149.559000
20
198.741000
11
-149.559000
21
198.741000
0
LINE
8
0
10
365.818000
20
97.392100
11
365.563448
21
98.342100
0
LINE
8
0
10
365.563448
20
98.342100
11
364.868000
21
99.037548
0
LINE
8
0
10
364.868000
20
99.037548
11
363.918000
21
99.292100
0
LINE
8
0
10
363.918000
20
99.292100
11
362.968000
21
99.037548
0
LINE
8
0
10
362.968000
20
99.037548
11
362.272552
21
98.342100
0
LINE
8
0
10
362.272552
20
98.342100
11
362.018000
21
97.392100
0
LINE
8
0
10
362.018000
20
97.392100
11
362.272552
21
96.442100
0
LINE
8
0
10
362.272552
20
96.442100
11
362.968000
21
95.746652
0
LINE
8
0
10
362.968000
20
95.746652
11
363.918000
21
95.492100
0
LINE
8
0
10
363.918000
20
95.492100
11
364.868000
21
95.746652
0
LINE
8
0
10
364.868000
20
95.746652
11
365.563448
21
96.442100
0
LINE
8
0
10
365.563448
20
96.442100
11
365.818000
21
97.392100
0
LINE
8
0
10
365.818000
20
97.392100
11
365.818000
21
97.392100
0
LINE
8
0
10
317.436000
20
161.104000
11
317.286688
21
161.843566
0
LINE
8
0
10
317.286688
20
161.843566
11
316.879503
21
162.447503
0
LINE
8
0
10
316.879503
20
162.447503
11
316.275566
21
162.854688
0
LINE
8
0
10
316.275566
20
162.854688
11
315.536000
21
163.004000
0
LINE
8
0
10
315.536000
20
163.004000
11
314.796434
21
162.854688
0
LINE
8
0
10
314.796434
20
162.854688
11
314.192497
21
162.447503
0
LINE
8
0
10
314.192497
20
162.447503
11
313.785312
21
161.843566
0
LINE
8
0
10
313.785312
20
161.843566
11
313.636000
21
161.104000
0
LINE
8
0
10
313.636000
20
161.104000
11
313.785312
21
160.364434
0
LINE
8
0
10
313.785312
20
160.364434
11
314.192497
21
159.760497
0
LINE
8
0
10
314.192497
20
159.760497
11
314.796434
21
159.353312
0
LINE
8
0
10
314.796434
20
159.353312
11
315.536000
21
159.204000
0
LINE
8
0
10
315.536000
20
159.204000
11
316.275566
21
159.353312
0
LINE
8
0
10
316.275566
20
159.353312
11
316.879503
21
159.760497
0
LINE
8
0
10
316.879503
20
159.760497
11
317.286688
21
160.364434
0
LINE
8
0
10
317.286688
20
160.364434
11
317.436000
21
161.104000
0
LINE
8
0
10
317.436000
20
161.104000
11
317.436000
21
161.104000
0
LINE
8
0
10
241.869000
20
187.364000
11
241.614448
21
188.314000
0
LINE
8
0
10
241.614448
20
188.314000
11
240.919000
21
189.009448
0
LINE
8
0
10
240.919000
20
189.009448
11
239.969000
21
189.264000
0
LINE
8
0
10
239.969000
20
189.264000
11
239.019000
21
189.009448
0
LINE
8
0
10
239.019000
20
189.009448
11
238.323552
21
188.314000
0
LINE
8
0
10
238.323552
20
188.314000
11
238.069000
21
187.364000
0
LINE
8
0
10
238.069000
20
187.364000
11
238.323552
21
186.414000
0
LINE
8
0
10
238.323552
20
186.414000
11
239.019000
21
185.718552
0
LINE
8
0
10
239.019000
20
185.718552
11
239.969000
21
185.464000
0
LINE
8
0
10
239.969000
20
185.464000
11
240.919000
21
185.718552
0
LINE
8
0
10
240.919000
20
185.718552
11
241.614448
21
186.414000
0
LINE
8
0
10
241.614448
20
186.414000
11
241.869000
21
187.364000
0
LINE
8
0
10
241.869000
20
187.364000
11
241.869000
21
187.364000
0
LINE
8
0
10
162.539000
20
197.566000
11
162.503787
21
198.318033
0
LINE
8
0
10
162.503787
20
198.318033
11
162.194207
21
198.975720
0
LINE
8
0
10
162.194207
20
198.975720
11
161.660982
21
199.469748
0
LINE
8
0
10
161.660982
20
199.469748
11
160.954835
21
199.730802
0
LINE
8
0
10
160.954835
20
199.730802
11
160.202689
21
199.698095
0
LINE
8
0
10
160.202689
20
199.698095
11
159.543974
21
199.390707
0
LINE
8
0
10
159.543974
20
199.390707
11
159.048173
21
198.859131
0
LINE
8
0
10
159.048173
20
198.859131
11
158.784767
21
198.153857
0
LINE
8
0
10
158.784767
20
198.153857
11
158.814969
21
197.401607
0
LINE
8
0
10
158.814969
20
197.401607
11
159.120160
21
196.741871
0
LINE
8
0
10
159.120160
20
196.741871
11
159.650082
21
196.244302
0
LINE
8
0
10
159.650082
20
196.244302
11
160.354474
21
195.978549
0
LINE
8
0
10
160.354474
20
195.978549
11
161.106821
21
196.006244
0
LINE
8
0
10
161.106821
20
196.006244
11
161.767569
21
196.309236
0
LINE
8
0
10
161.767569
20
196.309236
11
162.266901
21
196.837497
0
LINE
8
0
10
162.266901
20
196.837497
11
162.535000
21
197.541000
0
LINE
8
0
10
162.539000
20
197.566000
11
163.116000
21
197.490000
0
LINE
8
0
10
163.116000
20
197.490000
11
162.585000
21
197.537000
0
LINE
8
0
10
162.585000
20
197.537000
11
162.535000
21
197.541000
0
LINE
8
0
10
80.660400
20
198.741000
11
82.560300
21
198.719000
0
LINE
8
0
10
82.560300
20
198.719000
11
82.403924
21
197.982344
0
LINE
8
0
10
82.403924
20
197.982344
11
81.991911
21
197.383246
0
LINE
8
0
10
81.991911
20
197.383246
11
81.385584
21
196.981947
0
LINE
8
0
10
81.385584
20
196.981947
11
80.646265
21
196.838689
0
LINE
8
0
10
80.646265
20
196.838689
11
79.909160
21
196.992932
0
LINE
8
0
10
79.909160
20
196.992932
11
79.308871
21
197.403209
0
LINE
8
0
10
79.308871
20
197.403209
11
78.905819
21
198.008372
0
LINE
8
0
10
78.905819
20
198.008372
11
78.760421
21
198.747272
0
LINE
8
0
10
78.760421
20
198.747272
11
78.912530
21
199.484821
0
LINE
8
0
10
78.912530
20
199.484821
11
79.321067
21
200.086295
0
LINE
8
0
10
79.321067
20
200.086295
11
79.925061
21
200.491098
0
LINE
8
0
10
79.925061
20
200.491098
11
80.663538
21
200.638634
0
LINE
8
0
10
80.663538
20
200.638634
11
81.401523
21
200.488661
0
LINE
8
0
10
81.401523
20
200.488661
11
82.004177
21
200.081866
0
LINE
8
0
10
82.004177
20
200.081866
11
82.410727
21
199.479047
0
LINE
8
0
10
82.410727
20
199.479047
11
82.560400
21
198.741000
0
LINE
8
0
10
82.560400
20
198.741000
11
80.660400
21
198.741000
0
LINE
8
0
10
80.660400
20
198.741000
11
80.660400
21
198.741000
0
LINE
8
0
10
-229.559000
20
198.741000
11
-229.813552
21
199.691000
0
LINE
8
0
10
-229.813552
20
199.691000
11
-230.509000
21
200.386448
0
LINE
8
0
10
-230.509000
20
200.386448
11
-231.459000
21
200.641000
0
LINE
8
0
10
-231.459000
20
200.641000
11
-232.409000
21
200.386448
0
LINE
8
0
10
-232.409000
20
200.386448
11
-233.104448
21
199.691000
0
LINE
8
0
10
-233.104448
20
199.691000
11
-233.359000
21
198.741000
0
LINE
8
0
10
-233.359000
20
198.741000
11
-233.209689
21
198.001434
0
LINE
8
0
10
-233.209689
20
198.001434
11
-232.802503
21
197.397497
0
LINE
8
0
10
-232.802503
20
197.397497
11
-232.198566
21
196.990312
0
LINE
8
0
10
-232.198566
20
196.990312
11
-231.459000
21
196.841000
0
LINE
8
0
10
-231.459000
20
196.841000
11
-230.719434
21
196.990312
0
LINE
8
0
10
-230.719434
20
196.990312
11
-230.115497
21
197.397497
0
LINE
8
0
10
-230.115497
20
197.397497
11
-229.708311
21
198.001434
0
LINE
8
0
10
-229.708311
20
198.001434
11
-229.559000
21
198.741000
0
LINE
8
0
10
-229.559000
20
198.741000
11
-229.559000
21
198.741000
0
LINE
8
0
10
-313.337000
20
197.551000
11
-313.083515
21
196.840852
0
LINE
8
0
10
-313.083515
20
196.840852
11
-312.594477
21
196.301611
0
LINE
8
0
10
-312.594477
20
196.301611
11
-311.938988
21
195.984950
0
LINE
8
0
10
-311.938988
20
195.984950
11
-311.186149
21
195.942547
0
LINE
8
0
10
-311.186149
20
195.942547
11
-310.475766
21
196.195371
0
LINE
8
0
10
-310.475766
20
196.195371
11
-309.936069
21
196.683907
0
LINE
8
0
10
-309.936069
20
196.683907
11
-309.618799
21
197.339102
0
LINE
8
0
10
-309.618799
20
197.339102
11
-309.575695
21
198.091901
0
LINE
8
0
10
-309.575695
20
198.091901
11
-309.827858
21
198.802519
0
LINE
8
0
10
-309.827858
20
198.802519
11
-310.315892
21
199.342670
0
LINE
8
0
10
-310.315892
20
199.342670
11
-310.970791
21
199.660549
0
LINE
8
0
10
-310.970791
20
199.660549
11
-311.723550
21
199.704353
0
LINE
8
0
10
-311.723550
20
199.704353
11
-312.434402
21
199.452851
0
LINE
8
0
10
-312.434402
20
199.452851
11
-312.975007
21
198.965320
0
LINE
8
0
10
-312.975007
20
198.965320
11
-313.293496
21
198.310717
0
LINE
8
0
10
-313.293496
20
198.310717
11
-313.338000
21
197.558000
0
LINE
8
0
10
-313.338000
20
197.558000
11
-313.162000
21
197.574000
0
LINE
8
0
10
-313.162000
20
197.574000
11
-313.337000
21
197.551000
0
LINE
8
0
10
-313.337000
20
197.551000
11
-313.337000
21
197.551000
0
LINE
8
0
10
-388.879000
20
187.430000
11
-389.028312
21
188.169566
0
LINE
8
0
10
-389.028312
20
188.169566
11
-389.435497
21
188.773503
0
LINE
8
0
10
-389.435497
20
188.773503
11
-390.039434
21
189.180688
0
LINE
8
0
10
-390.039434
20
189.180688
11
-390.779000
21
189.330000
0
LINE
8
0
10
-390.779000
20
189.330000
11
-391.518566
21
189.180688
0
LINE
8
0
10
-391.518566
20
189.180688
11
-392.122503
21
188.773503
0
LINE
8
0
10
-392.122503
20
188.773503
11
-392.529688
21
188.169566
0
LINE
8
0
10
-392.529688
20
188.169566
11
-392.679000
21
187.430000
0
LINE
8
0
10
-392.679000
20
187.430000
11
-392.529688
21
186.690434
0
LINE
8
0
10
-392.529688
20
186.690434
11
-392.122503
21
186.086497
0
LINE
8
0
10
-392.122503
20
186.086497
11
-391.518566
21
185.679312
0
LINE
8
0
10
-391.518566
20
185.679312
11
-390.779000
21
185.530000
0
LINE
8
0
10
-390.779000
20
185.530000
11
-390.039434
21
185.679312
0
LINE
8
0
10
-390.039434
20
185.679312
11
-389.435497
21
186.086497
0
LINE
8
0
10
-389.435497
20
186.086497
11
-389.028312
21
186.690434
0
LINE
8
0
10
-389.028312
20
186.690434
11
-388.879000
21
187.430000
0
LINE
8
0
10
-388.879000
20
187.430000
11
-388.879000
21
187.430000
0
LINE
8
0
10
-505.346000
20
28.746000
11
-505.600552
21
29.696000
0
LINE
8
0
10
-505.600552
20
29.696000
11
-506.296000
21
30.391448
0
LINE
8
0
10
-506.296000
20
30.391448
11
-507.246000
21
30.646000
0
LINE
8
0
10
-507.246000
20
30.646000
11
-508.196000
21
30.391448
0
LINE
8
0
10
-508.196000
20
30.391448
11
-508.891448
21
29.696000
0
LINE
8
0
10
-508.891448
20
29.696000
11
-509.146000
21
28.746000
0
LINE
8
0
10
-509.146000
20
28.746000
11
-508.996688
21
28.006434
0
LINE
8
0
10
-508.996688
20
28.006434
11
-508.589503
21
27.402497
0
LINE
8
0
10
-508.589503
20
27.402497
11
-507.985566
21
26.995312
0
LINE
8
0
10
-507.985566
20
26.995312
11
-507.246000
21
26.846000
0
LINE
8
0
10
-507.246000
20
26.846000
11
-506.506434
21
26.995312
0
LINE
8
0
10
-506.506434
20
26.995312
11
-505.902497
21
27.402497
0
LINE
8
0
10
-505.902497
20
27.402497
11
-505.495312
21
28.006434
0
LINE
8
0
10
-505.495312
20
28.006434
11
-505.346000
21
28.746000
0
LINE
8
0
10
-505.346000
20
28.746000
11
-505.346000
21
28.746000
0
LINE
8
0
10
-319.346000
20
-32.253900
11
-319.600552
21
-31.303900
0
LINE
8
0
10
-319.600552
20
-31.303900
11
-320.296000
21
-30.608452
0
LINE
8
0
10
-320.296000
20
-30.608452
11
-321.246000
21
-30.353900
0
LINE
8
0
10
-321.246000
20
-30.353900
11
-322.196000
21
-30.608452
0
LINE
8
0
10
-322.196000
20
-30.608452
11
-322.891448
21
-31.303900
0
LINE
8
0
10
-322.891448
20
-31.303900
11
-323.146000
21
-32.253900
0
LINE
8
0
10
-323.146000
20
-32.253900
11
-322.996688
21
-32.993466
0
LINE
8
0
10
-322.996688
20
-32.993466
11
-322.589503
21
-33.597403
0
LINE
8
0
10
-322.589503
20
-33.597403
11
-321.985566
21
-34.004588
0
LINE
8
0
10
-321.985566
20
-34.004588
11
-321.246000
21
-34.153900
0
LINE
8
0
10
-321.246000
20
-34.153900
11
-320.506434
21
-34.004588
0
LINE
8
0
10
-320.506434
20
-34.004588
11
-319.902497
21
-33.597403
0
LINE
8
0
10
-319.902497
20
-33.597403
11
-319.495312
21
-32.993466
0
LINE
8
0
10
-319.495312
20
-32.993466
11
-319.346000
21
-32.253900
0
LINE
8
0
10
-319.346000
20
-32.253900
11
-319.346000
21
-32.253900
0
LINE
8
0
10
-319.346000
20
-114.254000
11
-319.600552
21
-113.304000
0
LINE
8
0
10
-319.600552
20
-113.304000
11
-320.296000
21
-112.608552
0
LINE
8
0
10
-320.296000
20
-112.608552
11
-321.246000
21
-112.354000
0
LINE
8
0
10
-321.246000
20
-112.354000
11
-322.196000
21
-112.608552
0
LINE
8
0
10
-322.196000
20
-112.608552
11
-322.891448
21
-113.304000
0
LINE
8
0
10
-322.891448
20
-113.304000
11
-323.146000
21
-114.254000
0
LINE
8
0
10
-323.146000
20
-114.254000
11
-322.996688
21
-114.993566
0
LINE
8
0
10
-322.996688
20
-114.993566
11
-322.589503
21
-115.597503
0
LINE
8
0
10
-322.589503
20
-115.597503
11
-321.985566
21
-116.004688
0
LINE
8
0
10
-321.985566
20
-116.004688
11
-321.246000
21
-116.154000
0
LINE
8
0
10
-321.246000
20
-116.154000
11
-320.506434
21
-116.004688
0
LINE
8
0
10
-320.506434
20
-116.004688
11
-319.902497
21
-115.597503
0
LINE
8
0
10
-319.902497
20
-115.597503
11
-319.495312
21
-114.993566
0
LINE
8
0
10
-319.495312
20
-114.993566
11
-319.346000
21
-114.254000
0
LINE
8
0
10
-319.346000
20
-114.254000
11
-319.346000
21
-114.254000
0
LINE
8
0
10
-505.346000
20
-114.254000
11
-505.600552
21
-113.304000
0
LINE
8
0
10
-505.600552
20
-113.304000
11
-506.296000
21
-112.608552
0
LINE
8
0
10
-506.296000
20
-112.608552
11
-507.246000
21
-112.354000
0
LINE
8
0
10
-507.246000
20
-112.354000
11
-508.196000
21
-112.608552
0
LINE
8
0
10
-508.196000
20
-112.608552
11
-508.891448
21
-113.304000
0
LINE
8
0
10
-508.891448
20
-113.304000
11
-509.146000
21
-114.254000
0
LINE
8
0
10
-509.146000
20
-114.254000
11
-508.996688
21
-114.993566
0
LINE
8
0
10
-508.996688
20
-114.993566
11
-508.589503
21
-115.597503
0
LINE
8
0
10
-508.589503
20
-115.597503
11
-507.985566
21
-116.004688
0
LINE
8
0
10
-507.985566
20
-116.004688
11
-507.246000
21
-116.154000
0
LINE
8
0
10
-507.246000
20
-116.154000
11
-506.506434
21
-116.004688
0
LINE
8
0
10
-506.506434
20
-116.004688
11
-505.902497
21
-115.597503
0
LINE
8
0
10
-505.902497
20
-115.597503
11
-505.495312
21
-114.993566
0
LINE
8
0
10
-505.495312
20
-114.993566
11
-505.346000
21
-114.254000
0
LINE
8
0
10
-505.346000
20
-114.254000
11
-505.346000
21
-114.254000
0
LINE
8
0
10
-42.834700
20
185.196000
11
-42.834700
21
-14.427500
0
LINE
8
0
10
-42.834700
20
-14.427500
11
-77.312700
21
-14.427500
0
LINE
8
0
10
-77.312700
20
-14.427500
11
-77.312700
21
185.196000
0
LINE
8
0
10
-77.312700
20
185.196000
11
-42.834700
21
185.196000
0
LINE
8
0
10
-42.834700
20
185.196000
11
-42.834700
21
185.196000
0
LINE
8
0
10
-389.838000
20
170.956000
11
-390.038962
21
171.706000
0
LINE
8
0
10
-390.038962
20
171.706000
11
-390.588000
21
172.255038
0
LINE
8
0
10
-390.588000
20
172.255038
11
-391.338000
21
172.456000
0
LINE
8
0
10
-391.338000
20
172.456000
11
-392.088000
21
172.255038
0
LINE
8
0
10
-392.088000
20
172.255038
11
-392.637038
21
171.706000
0
LINE
8
0
10
-392.637038
20
171.706000
11
-392.838000
21
170.956000
0
LINE
8
0
10
-392.838000
20
170.956000
11
-392.720122
21
170.372132
0
LINE
8
0
10
-392.720122
20
170.372132
11
-392.398660
21
169.895340
0
LINE
8
0
10
-392.398660
20
169.895340
11
-391.921868
21
169.573878
0
LINE
8
0
10
-391.921868
20
169.573878
11
-391.338000
21
169.456000
0
LINE
8
0
10
-391.338000
20
169.456000
11
-390.754132
21
169.573878
0
LINE
8
0
10
-390.754132
20
169.573878
11
-390.277340
21
169.895340
0
LINE
8
0
10
-390.277340
20
169.895340
11
-389.955878
21
170.372132
0
LINE
8
0
10
-389.955878
20
170.372132
11
-389.838000
21
170.956000
0
LINE
8
0
10
-389.838000
20
170.956000
11
-389.838000
21
170.956000
0
LINE
8
0
10
-99.574200
20
175.350000
11
-99.697014
21
175.928288
0
LINE
8
0
10
-99.697014
20
175.928288
11
-100.019581
21
176.399446
0
LINE
8
0
10
-100.019581
20
176.399446
11
-100.494432
21
176.716551
0
LINE
8
0
10
-100.494432
20
176.716551
11
-101.074100
21
176.832680
0
LINE
8
0
10
-101.074100
20
176.832680
11
-101.653768
21
176.716551
0
LINE
8
0
10
-101.653768
20
176.716551
11
-102.128619
21
176.399446
0
LINE
8
0
10
-102.128619
20
176.399446
11
-102.451186
21
175.928288
0
LINE
8
0
10
-102.451186
20
175.928288
11
-102.574000
21
175.350000
0
LINE
8
0
10
-102.574000
20
175.350000
11
-102.451186
21
174.771712
0
LINE
8
0
10
-102.451186
20
174.771712
11
-102.128619
21
174.300554
0
LINE
8
0
10
-102.128619
20
174.300554
11
-101.653768
21
173.983449
0
LINE
8
0
10
-101.653768
20
173.983449
11
-101.074100
21
173.867320
0
LINE
8
0
10
-101.074100
20
173.867320
11
-100.494432
21
173.983449
0
LINE
8
0
10
-100.494432
20
173.983449
11
-100.019581
21
174.300554
0
LINE
8
0
10
-100.019581
20
174.300554
11
-99.697014
21
174.771712
0
LINE
8
0
10
-99.697014
20
174.771712
11
-99.574200
21
175.350000
0
LINE
8
0
10
-99.574200
20
175.350000
11
-99.574200
21
175.350000
0
LINE
8
0
10
-21.920700
20
-140.259000
11
-21.996854
21
-139.684981
0
LINE
8
0
10
-21.996854
20
-139.684981
11
-22.215444
21
-139.159000
0
LINE
8
0
10
-22.215444
20
-139.159000
11
-22.561662
21
-138.706705
0
LINE
8
0
10
-22.561662
20
-138.706705
11
-23.020700
21
-138.353744
0
LINE
8
0
10
-23.020700
20
-138.353744
11
-23.555892
21
-138.132686
0
LINE
8
0
10
-23.555892
20
-138.132686
11
-24.120700
21
-138.059000
0
LINE
8
0
10
-24.120700
20
-138.059000
11
-24.685508
21
-138.132686
0
LINE
8
0
10
-24.685508
20
-138.132686
11
-25.220700
21
-138.353744
0
LINE
8
0
10
-25.220700
20
-138.353744
11
-25.679738
21
-138.706705
0
LINE
8
0
10
-25.679738
20
-138.706705
11
-26.025956
21
-139.159000
0
LINE
8
0
10
-26.025956
20
-139.159000
11
-26.244546
21
-139.684981
0
LINE
8
0
10
-26.244546
20
-139.684981
11
-26.320700
21
-140.259000
0
LINE
8
0
10
-26.320700
20
-140.259000
11
-26.244546
21
-140.833019
0
LINE
8
0
10
-26.244546
20
-140.833019
11
-26.025956
21
-141.359000
0
LINE
8
0
10
-26.025956
20
-141.359000
11
-25.679738
21
-141.811295
0
LINE
8
0
10
-25.679738
20
-141.811295
11
-25.220700
21
-142.164256
0
LINE
8
0
10
-25.220700
20
-142.164256
11
-24.685508
21
-142.385314
0
LINE
8
0
10
-24.685508
20
-142.385314
11
-24.120700
21
-142.459000
0
LINE
8
0
10
-24.120700
20
-142.459000
11
-23.555892
21
-142.385314
0
LINE
8
0
10
-23.555892
20
-142.385314
11
-23.020700
21
-142.164256
0
LINE
8
0
10
-23.020700
20
-142.164256
11
-22.561662
21
-141.811295
0
LINE
8
0
10
-22.561662
20
-141.811295
11
-22.215444
21
-141.359000
0
LINE
8
0
10
-22.215444
20
-141.359000
11
-21.996854
21
-140.833019
0
LINE
8
0
10
-21.996854
20
-140.833019
11
-21.920700
21
-140.259000
0
LINE
8
0
10
-21.920700
20
-140.259000
11
-21.920700
21
-140.259000
0
LINE
8
0
10
-107.617000
20
-140.259000
11
-107.693154
21
-139.684981
0
LINE
8
0
10
-107.693154
20
-139.684981
11
-107.911744
21
-139.159000
0
LINE
8
0
10
-107.911744
20
-139.159000
11
-108.257962
21
-138.706705
0
LINE
8
0
10
-108.257962
20
-138.706705
11
-108.717000
21
-138.353744
0
LINE
8
0
10
-108.717000
20
-138.353744
11
-109.252192
21
-138.132686
0
LINE
8
0
10
-109.252192
20
-138.132686
11
-109.817000
21
-138.059000
0
LINE
8
0
10
-109.817000
20
-138.059000
11
-110.381808
21
-138.132686
0
LINE
8
0
10
-110.381808
20
-138.132686
11
-110.917000
21
-138.353744
0
LINE
8
0
10
-110.917000
20
-138.353744
11
-111.376038
21
-138.706705
0
LINE
8
0
10
-111.376038
20
-138.706705
11
-111.722256
21
-139.159000
0
LINE
8
0
10
-111.722256
20
-139.159000
11
-111.940846
21
-139.684981
0
LINE
8
0
10
-111.940846
20
-139.684981
11
-112.017000
21
-140.259000
0
LINE
8
0
10
-112.017000
20
-140.259000
11
-111.940846
21
-140.833019
0
LINE
8
0
10
-111.940846
20
-140.833019
11
-111.722256
21
-141.359000
0
LINE
8
0
10
-111.722256
20
-141.359000
11
-111.376038
21
-141.811295
0
LINE
8
0
10
-111.376038
20
-141.811295
11
-110.917000
21
-142.164256
0
LINE
8
0
10
-110.917000
20
-142.164256
11
-110.381808
21
-142.385314
0
LINE
8
0
10
-110.381808
20
-142.385314
11
-109.817000
21
-142.459000
0
LINE
8
0
10
-109.817000
20
-142.459000
11
-109.252192
21
-142.385314
0
LINE
8
0
10
-109.252192
20
-142.385314
11
-108.717000
21
-142.164256
0
LINE
8
0
10
-108.717000
20
-142.164256
11
-108.257962
21
-141.811295
0
LINE
8
0
10
-108.257962
20
-141.811295
11
-107.911744
21
-141.359000
0
LINE
8
0
10
-107.911744
20
-141.359000
11
-107.693154
21
-140.833019
0
LINE
8
0
10
-107.693154
20
-140.833019
11
-107.617000
21
-140.259000
0
LINE
8
0
10
-107.617000
20
-140.259000
11
-107.617000
21
-140.259000
0
LINE
8
0
10
62.383200
20
-140.259000
11
62.307046
21
-139.684981
0
LINE
8
0
10
62.307046
20
-139.684981
11
62.088456
21
-139.159000
0
LINE
8
0
10
62.088456
20
-139.159000
11
61.742238
21
-138.706705
0
LINE
8
0
10
61.742238
20
-138.706705
11
61.283200
21
-138.353744
0
LINE
8
0
10
61.283200
20
-138.353744
11
60.748008
21
-138.132686
0
LINE
8
0
10
60.748008
20
-138.132686
11
60.183200
21
-138.059000
0
LINE
8
0
10
60.183200
20
-138.059000
11
59.618392
21
-138.132686
0
LINE
8
0
10
59.618392
20
-138.132686
11
59.083200
21
-138.353744
0
LINE
8
0
10
59.083200
20
-138.353744
11
58.624162
21
-138.706705
0
LINE
8
0
10
58.624162
20
-138.706705
11
58.277944
21
-139.159000
0
LINE
8
0
10
58.277944
20
-139.159000
11
58.059354
21
-139.684981
0
LINE
8
0
10
58.059354
20
-139.684981
11
57.983200
21
-140.259000
0
LINE
8
0
10
57.983200
20
-140.259000
11
58.156087
21
-141.115339
0
LINE
8
0
10
58.156087
20
-141.115339
11
58.627565
21
-141.814635
0
LINE
8
0
10
58.627565
20
-141.814635
11
59.326861
21
-142.286113
0
LINE
8
0
10
59.326861
20
-142.286113
11
60.183200
21
-142.459000
0
LINE
8
0
10
60.183200
20
-142.459000
11
61.039539
21
-142.286113
0
LINE
8
0
10
61.039539
20
-142.286113
11
61.738835
21
-141.814635
0
LINE
8
0
10
61.738835
20
-141.814635
11
62.210313
21
-141.115339
0
LINE
8
0
10
62.210313
20
-141.115339
11
62.383200
21
-140.259000
0
LINE
8
0
10
62.383200
20
-140.259000
11
62.383200
21
-140.259000
0
LINE
8
0
10
-193.313000
20
-140.259000
11
-193.389154
21
-139.684981
0
LINE
8
0
10
-193.389154
20
-139.684981
11
-193.607744
21
-139.159000
0
LINE
8
0
10
-193.607744
20
-139.159000
11
-193.953962
21
-138.706705
0
LINE
8
0
10
-193.953962
20
-138.706705
11
-194.413000
21
-138.353744
0
LINE
8
0
10
-194.413000
20
-138.353744
11
-194.948192
21
-138.132686
0
LINE
8
0
10
-194.948192
20
-138.132686
11
-195.513000
21
-138.059000
0
LINE
8
0
10
-195.513000
20
-138.059000
11
-196.077808
21
-138.132686
0
LINE
8
0
10
-196.077808
20
-138.132686
11
-196.613000
21
-138.353744
0
LINE
8
0
10
-196.613000
20
-138.353744
11
-197.072038
21
-138.706705
0
LINE
8
0
10
-197.072038
20
-138.706705
11
-197.418256
21
-139.159000
0
LINE
8
0
10
-197.418256
20
-139.159000
11
-197.636846
21
-139.684981
0
LINE
8
0
10
-197.636846
20
-139.684981
11
-197.713000
21
-140.259000
0
LINE
8
0
10
-197.713000
20
-140.259000
11
-197.636846
21
-140.833019
0
LINE
8
0
10
-197.636846
20
-140.833019
11
-197.418256
21
-141.359000
0
LINE
8
0
10
-197.418256
20
-141.359000
11
-197.072038
21
-141.811295
0
LINE
8
0
10
-197.072038
20
-141.811295
11
-196.613000
21
-142.164256
0
LINE
8
0
10
-196.613000
20
-142.164256
11
-196.077808
21
-142.385314
0
LINE
8
0
10
-196.077808
20
-142.385314
11
-195.513000
21
-142.459000
0
LINE
8
0
10
-195.513000
20
-142.459000
11
-194.948192
21
-142.385314
0
LINE
8
0
10
-194.948192
20
-142.385314
11
-194.413000
21
-142.164256
0
LINE
8
0
10
-194.413000
20
-142.164256
11
-193.953962
21
-141.811295
0
LINE
8
0
10
-193.953962
20
-141.811295
11
-193.607744
21
-141.359000
0
LINE
8
0
10
-193.607744
20
-141.359000
11
-193.389154
21
-140.833019
0
LINE
8
0
10
-193.389154
20
-140.833019
11
-193.313000
21
-140.259000
0
LINE
8
0
10
-193.313000
20
-140.259000
11
-193.313000
21
-140.259000
0
LINE
8
0
10
146.687000
20
-140.259000
11
146.610846
21
-139.684981
0
LINE
8
0
10
146.610846
20
-139.684981
11
146.392256
21
-139.159000
0
LINE
8
0
10
146.392256
20
-139.159000
11
146.046038
21
-138.706705
0
LINE
8
0
10
146.046038
20
-138.706705
11
145.587000
21
-138.353744
0
LINE
8
0
10
145.587000
20
-138.353744
11
145.051808
21
-138.132686
0
LINE
8
0
10
145.051808
20
-138.132686
11
144.487000
21
-138.059000
0
LINE
8
0
10
144.487000
20
-138.059000
11
143.922192
21
-138.132686
0
LINE
8
0
10
143.922192
20
-138.132686
11
143.387000
21
-138.353744
0
LINE
8
0
10
143.387000
20
-138.353744
11
142.927962
21
-138.706705
0
LINE
8
0
10
142.927962
20
-138.706705
11
142.581744
21
-139.159000
0
LINE
8
0
10
142.581744
20
-139.159000
11
142.363154
21
-139.684981
0
LINE
8
0
10
142.363154
20
-139.684981
11
142.287000
21
-140.259000
0
LINE
8
0
10
142.287000
20
-140.259000
11
142.363154
21
-140.833019
0
LINE
8
0
10
142.363154
20
-140.833019
11
142.581744
21
-141.359000
0
LINE
8
0
10
142.581744
20
-141.359000
11
142.927962
21
-141.811295
0
LINE
8
0
10
142.927962
20
-141.811295
11
143.387000
21
-142.164256
0
LINE
8
0
10
143.387000
20
-142.164256
11
143.922192
21
-142.385314
0
LINE
8
0
10
143.922192
20
-142.385314
11
144.487000
21
-142.459000
0
LINE
8
0
10
144.487000
20
-142.459000
11
145.051808
21
-142.385314
0
LINE
8
0
10
145.051808
20
-142.385314
11
145.587000
21
-142.164256
0
LINE
8
0
10
145.587000
20
-142.164256
11
146.046038
21
-141.811295
0
LINE
8
0
10
146.046038
20
-141.811295
11
146.392256
21
-141.359000
0
LINE
8
0
10
146.392256
20
-141.359000
11
146.610846
21
-140.833019
0
LINE
8
0
10
146.610846
20
-140.833019
11
146.687000
21
-140.259000
0
LINE
8
0
10
146.687000
20
-140.259000
11
146.687000
21
-140.259000
0
LINE
8
0
10
-92.027700
20
-104.018000
11
-91.634680
21
-103.450937
0
LINE
8
0
10
-91.634680
20
-103.450937
11
-91.459853
21
-102.802733
0
LINE
8
0
10
-91.459853
20
-102.802733
11
-91.508925
21
-102.133163
0
LINE
8
0
10
-91.508925
20
-102.133163
11
-91.787600
21
-101.502000
0
LINE
8
0
10
-91.787600
20
-101.502000
11
-93.778786
21
-98.191816
0
LINE
8
0
10
-93.778786
20
-98.191816
11
-95.419776
21
-94.765603
0
LINE
8
0
10
-95.419776
20
-94.765603
11
-96.714160
21
-91.246992
0
LINE
8
0
10
-96.714160
20
-91.246992
11
-97.665531
21
-87.659616
0
LINE
8
0
10
-97.665531
20
-87.659616
11
-98.277479
21
-84.027108
0
LINE
8
0
10
-98.277479
20
-84.027108
11
-98.553597
21
-80.373100
0
LINE
8
0
10
-98.553597
20
-80.373100
11
-98.497474
21
-76.721226
0
LINE
8
0
10
-98.497474
20
-76.721226
11
-98.112704
21
-73.095117
0
LINE
8
0
10
-98.112704
20
-73.095117
11
-97.402877
21
-69.518406
0
LINE
8
0
10
-97.402877
20
-69.518406
11
-96.371584
21
-66.014726
0
LINE
8
0
10
-96.371584
20
-66.014726
11
-95.022417
21
-62.607709
0
LINE
8
0
10
-95.022417
20
-62.607709
11
-93.358968
21
-59.320989
0
LINE
8
0
10
-93.358968
20
-59.320989
11
-91.384828
21
-56.178197
0
LINE
8
0
10
-91.384828
20
-56.178197
11
-89.103587
21
-53.202966
0
LINE
8
0
10
-89.103587
20
-53.202966
11
-86.518839
21
-50.418930
0
LINE
8
0
10
-86.518839
20
-50.418930
11
-83.634173
21
-47.849719
0
LINE
8
0
10
-83.634173
20
-47.849719
11
-80.519073
21
-45.565362
0
LINE
8
0
10
-80.519073
20
-45.565362
11
-77.256534
21
-43.619180
0
LINE
8
0
10
-77.256534
20
-43.619180
11
-73.870417
21
-42.009748
0
LINE
8
0
10
-73.870417
20
-42.009748
11
-70.384585
21
-40.735643
0
LINE
8
0
10
-70.384585
20
-40.735643
11
-66.822898
21
-39.795440
0
LINE
8
0
10
-66.822898
20
-39.795440
11
-63.209218
21
-39.187715
0
LINE
8
0
10
-63.209218
20
-39.187715
11
-59.567407
21
-38.911043
0
LINE
8
0
10
-59.567407
20
-38.911043
11
-55.921325
21
-38.964000
0
LINE
8
0
10
-55.921325
20
-38.964000
11
-52.294835
21
-39.345161
0
LINE
8
0
10
-52.294835
20
-39.345161
11
-48.711798
21
-40.053103
0
LINE
8
0
10
-48.711798
20
-40.053103
11
-45.196075
21
-41.086401
0
LINE
8
0
10
-45.196075
20
-41.086401
11
-41.771527
21
-42.443630
0
LINE
8
0
10
-41.771527
20
-42.443630
11
-38.462017
21
-44.123367
0
LINE
8
0
10
-38.462017
20
-44.123367
11
-35.291406
21
-46.124186
0
LINE
8
0
10
-35.291406
20
-46.124186
11
-32.283555
21
-48.444665
0
LINE
8
0
10
-32.283555
20
-48.444665
11
-29.462325
21
-51.083377
0
LINE
8
0
10
-29.462325
20
-51.083377
11
-26.903781
21
-53.977506
0
LINE
8
0
10
-26.903781
20
-53.977506
11
-24.668579
21
-57.049259
0
LINE
8
0
10
-24.668579
20
-57.049259
11
-22.757476
21
-60.274741
0
LINE
8
0
10
-22.757476
20
-60.274741
11
-21.171224
21
-63.630062
0
LINE
8
0
10
-21.171224
20
-63.630062
11
-19.910580
21
-67.091329
0
LINE
8
0
10
-19.910580
20
-67.091329
11
-18.976297
21
-70.634651
0
LINE
8
0
10
-18.976297
20
-70.634651
11
-18.369130
21
-74.236135
0
LINE
8
0
10
-18.369130
20
-74.236135
11
-18.089833
21
-77.871889
0
LINE
8
0
10
-18.089833
20
-77.871889
11
-18.139162
21
-81.518021
0
LINE
8
0
10
-18.139162
20
-81.518021
11
-18.517869
21
-85.150640
0
LINE
8
0
10
-18.517869
20
-85.150640
11
-19.226711
21
-88.745853
0
LINE
8
0
10
-19.226711
20
-88.745853
11
-20.266442
21
-92.279768
0
LINE
8
0
10
-20.266442
20
-92.279768
11
-21.637816
21
-95.728493
0
LINE
8
0
10
-21.637816
20
-95.728493
11
-23.341587
21
-99.068136
0
LINE
8
0
10
-23.341587
20
-99.068136
11
-25.378511
21
-102.274806
0
LINE
8
0
10
-25.378511
20
-102.274806
11
-27.749341
21
-105.324609
0
LINE
8
0
10
-27.749341
20
-105.324609
11
-30.398449
21
-108.136079
0
LINE
8
0
10
-30.398449
20
-108.136079
11
-33.253887
21
-110.641725
0
LINE
8
0
10
-33.253887
20
-110.641725
11
-36.291931
21
-112.838619
0
LINE
8
0
10
-36.291931
20
-112.838619
11
-39.488857
21
-114.723834
0
LINE
8
0
10
-39.488857
20
-114.723834
11
-42.820941
21
-116.294444
0
LINE
8
0
10
-42.820941
20
-116.294444
11
-46.264458
21
-117.547521
0
LINE
8
0
10
-46.264458
20
-117.547521
11
-49.795685
21
-118.480137
0
LINE
8
0
10
-49.795685
20
-118.480137
11
-53.390898
21
-119.089366
0
LINE
8
0
10
-53.390898
20
-119.089366
11
-57.026372
21
-119.372281
0
LINE
8
0
10
-57.026372
20
-119.372281
11
-60.678384
21
-119.325954
0
LINE
8
0
10
-60.678384
20
-119.325954
11
-64.323210
21
-118.947458
0
LINE
8
0
10
-64.323210
20
-118.947458
11
-67.937125
21
-118.233867
0
LINE
8
0
10
-67.937125
20
-118.233867
11
-71.496405
21
-117.182253
0
LINE
8
0
10
-71.496405
20
-117.182253
11
-74.977328
21
-115.789688
0
LINE
8
0
10
-74.977328
20
-115.789688
11
-78.356167
21
-114.053246
0
LINE
8
0
10
-78.356167
20
-114.053246
11
-81.609200
21
-111.970000
0
LINE
8
0
10
-81.609200
20
-111.970000
11
-85.318500
21
-115.725000
0
LINE
8
0
10
-85.318500
20
-115.725000
11
-86.333074
21
-116.564122
0
LINE
8
0
10
-86.333074
20
-116.564122
11
-87.459992
21
-117.165961
0
LINE
8
0
10
-87.459992
20
-117.165961
11
-88.662290
21
-117.530290
0
LINE
8
0
10
-88.662290
20
-117.530290
11
-89.903008
21
-117.656880
0
LINE
8
0
10
-89.903008
20
-117.656880
11
-91.145180
21
-117.545504
0
LINE
8
0
10
-91.145180
20
-117.545504
11
-92.351845
21
-117.195934
0
LINE
8
0
10
-92.351845
20
-117.195934
11
-93.486040
21
-116.607942
0
LINE
8
0
10
-93.486040
20
-116.607942
11
-94.510801
21
-115.781300
0
LINE
8
0
10
-94.510801
20
-115.781300
11
-95.349955
21
-114.766759
0
LINE
8
0
10
-95.349955
20
-114.766759
11
-95.951819
21
-113.639866
0
LINE
8
0
10
-95.951819
20
-113.639866
11
-96.316165
21
-112.437585
0
LINE
8
0
10
-96.316165
20
-112.437585
11
-96.442768
21
-111.196880
0
LINE
8
0
10
-96.442768
20
-111.196880
11
-96.331399
21
-109.954715
0
LINE
8
0
10
-96.331399
20
-109.954715
11
-95.981833
21
-108.748053
0
LINE
8
0
10
-95.981833
20
-108.748053
11
-95.393842
21
-107.613860
0
LINE
8
0
10
-95.393842
20
-107.613860
11
-94.567200
21
-106.589099
0
LINE
8
0
10
-94.567200
20
-106.589099
11
-92.027700
21
-104.018000
0
LINE
8
0
10
-92.027700
20
-104.018000
11
-92.027700
21
-104.018000
0
LINE
8
0
10
-24.104600
20
-110.765000
11
-24.180754
21
-110.190981
0
LINE
8
0
10
-24.180754
20
-110.190981
11
-24.399344
21
-109.665000
0
LINE
8
0
10
-24.399344
20
-109.665000
11
-24.745562
21
-109.212705
0
LINE
8
0
10
-24.745562
20
-109.212705
11
-25.204600
21
-108.859744
0
LINE
8
0
10
-25.204600
20
-108.859744
11
-25.739792
21
-108.638686
0
LINE
8
0
10
-25.739792
20
-108.638686
11
-26.304600
21
-108.565000
0
LINE
8
0
10
-26.304600
20
-108.565000
11
-26.869408
21
-108.638686
0
LINE
8
0
10
-26.869408
20
-108.638686
11
-27.404600
21
-108.859744
0
LINE
8
0
10
-27.404600
20
-108.859744
11
-27.863638
21
-109.212705
0
LINE
8
0
10
-27.863638
20
-109.212705
11
-28.209856
21
-109.665000
0
LINE
8
0
10
-28.209856
20
-109.665000
11
-28.428446
21
-110.190981
0
LINE
8
0
10
-28.428446
20
-110.190981
11
-28.504600
21
-110.765000
0
LINE
8
0
10
-28.504600
20
-110.765000
11
-28.428446
21
-111.339019
0
LINE
8
0
10
-28.428446
20
-111.339019
11
-28.209856
21
-111.865000
0
LINE
8
0
10
-28.209856
20
-111.865000
11
-27.863638
21
-112.317295
0
LINE
8
0
10
-27.863638
20
-112.317295
11
-27.404600
21
-112.670256
0
LINE
8
0
10
-27.404600
20
-112.670256
11
-26.869408
21
-112.891314
0
LINE
8
0
10
-26.869408
20
-112.891314
11
-26.304600
21
-112.965000
0
LINE
8
0
10
-26.304600
20
-112.965000
11
-25.739792
21
-112.891314
0
LINE
8
0
10
-25.739792
20
-112.891314
11
-25.204600
21
-112.670256
0
LINE
8
0
10
-25.204600
20
-112.670256
11
-24.745562
21
-112.317295
0
LINE
8
0
10
-24.745562
20
-112.317295
11
-24.399344
21
-111.865000
0
LINE
8
0
10
-24.399344
20
-111.865000
11
-24.180754
21
-111.339019
0
LINE
8
0
10
-24.180754
20
-111.339019
11
-24.104600
21
-110.765000
0
LINE
8
0
10
-24.104600
20
-110.765000
11
-24.104600
21
-110.765000
0
LINE
8
0
10
-24.496700
20
-47.126700
11
-24.669587
21
-46.270361
0
LINE
8
0
10
-24.669587
20
-46.270361
11
-25.141065
21
-45.571065
0
LINE
8
0
10
-25.141065
20
-45.571065
11
-25.840361
21
-45.099587
0
LINE
8
0
10
-25.840361
20
-45.099587
11
-26.696700
21
-44.926700
0
LINE
8
0
10
-26.696700
20
-44.926700
11
-27.553039
21
-45.099587
0
LINE
8
0
10
-27.553039
20
-45.099587
11
-28.252335
21
-45.571065
0
LINE
8
0
10
-28.252335
20
-45.571065
11
-28.723813
21
-46.270361
0
LINE
8
0
10
-28.723813
20
-46.270361
11
-28.896700
21
-47.126700
0
LINE
8
0
10
-28.896700
20
-47.126700
11
-28.820546
21
-47.700719
0
LINE
8
0
10
-28.820546
20
-47.700719
11
-28.601956
21
-48.226700
0
LINE
8
0
10
-28.601956
20
-48.226700
11
-28.255738
21
-48.678995
0
LINE
8
0
10
-28.255738
20
-48.678995
11
-27.796700
21
-49.031956
0
LINE
8
0
10
-27.796700
20
-49.031956
11
-27.261508
21
-49.253014
0
LINE
8
0
10
-27.261508
20
-49.253014
11
-26.696700
21
-49.326700
0
LINE
8
0
10
-26.696700
20
-49.326700
11
-26.131892
21
-49.253014
0
LINE
8
0
10
-26.131892
20
-49.253014
11
-25.596700
21
-49.031956
0
LINE
8
0
10
-25.596700
20
-49.031956
11
-25.137662
21
-48.678995
0
LINE
8
0
10
-25.137662
20
-48.678995
11
-24.791444
21
-48.226700
0
LINE
8
0
10
-24.791444
20
-48.226700
11
-24.572854
21
-47.700719
0
LINE
8
0
10
-24.572854
20
-47.700719
11
-24.496700
21
-47.126700
0
LINE
8
0
10
-24.496700
20
-47.126700
11
-24.496700
21
-47.126700
0
LINE
8
0
10
-88.135000
20
-47.518800
11
-88.307887
21
-46.662461
0
LINE
8
0
10
-88.307887
20
-46.662461
11
-88.779365
21
-45.963165
0
LINE
8
0
10
-88.779365
20
-45.963165
11
-89.478661
21
-45.491687
0
LINE
8
0
10
-89.478661
20
-45.491687
11
-90.335000
21
-45.318800
0
LINE
8
0
10
-90.335000
20
-45.318800
11
-91.191339
21
-45.491687
0
LINE
8
0
10
-91.191339
20
-45.491687
11
-91.890635
21
-45.963165
0
LINE
8
0
10
-91.890635
20
-45.963165
11
-92.362113
21
-46.662461
0
LINE
8
0
10
-92.362113
20
-46.662461
11
-92.535000
21
-47.518800
0
LINE
8
0
10
-92.535000
20
-47.518800
11
-92.458846
21
-48.092819
0
LINE
8
0
10
-92.458846
20
-48.092819
11
-92.240256
21
-48.618800
0
LINE
8
0
10
-92.240256
20
-48.618800
11
-91.894038
21
-49.071095
0
LINE
8
0
10
-91.894038
20
-49.071095
11
-91.435000
21
-49.424056
0
LINE
8
0
10
-91.435000
20
-49.424056
11
-90.899808
21
-49.645114
0
LINE
8
0
10
-90.899808
20
-49.645114
11
-90.335000
21
-49.718800
0
LINE
8
0
10
-90.335000
20
-49.718800
11
-89.770192
21
-49.645114
0
LINE
8
0
10
-89.770192
20
-49.645114
11
-89.235000
21
-49.424056
0
LINE
8
0
10
-89.235000
20
-49.424056
11
-88.775962
21
-49.071095
0
LINE
8
0
10
-88.775962
20
-49.071095
11
-88.429744
21
-48.618800
0
LINE
8
0
10
-88.429744
20
-48.618800
11
-88.211154
21
-48.092819
0
LINE
8
0
10
-88.211154
20
-48.092819
11
-88.135000
21
-47.518800
0
LINE
8
0
10
-88.135000
20
-47.518800
11
-88.135000
21
-47.518800
0
LINE
8
0
10
65.895300
20
-110.765000
11
65.819146
21
-110.190981
0
LINE
8
0
10
65.819146
20
-110.190981
11
65.600556
21
-109.665000
0
LINE
8
0
10
65.600556
20
-109.665000
11
65.254338
21
-109.212705
0
LINE
8
0
10
65.254338
20
-109.212705
11
64.795300
21
-108.859744
0
LINE
8
0
10
64.795300
20
-108.859744
11
64.260108
21
-108.638686
0
LINE
8
0
10
64.260108
20
-108.638686
11
63.695300
21
-108.565000
0
LINE
8
0
10
63.695300
20
-108.565000
11
63.130492
21
-108.638686
0
LINE
8
0
10
63.130492
20
-108.638686
11
62.595300
21
-108.859744
0
LINE
8
0
10
62.595300
20
-108.859744
11
62.136262
21
-109.212705
0
LINE
8
0
10
62.136262
20
-109.212705
11
61.790044
21
-109.665000
0
LINE
8
0
10
61.790044
20
-109.665000
11
61.571454
21
-110.190981
0
LINE
8
0
10
61.571454
20
-110.190981
11
61.495300
21
-110.765000
0
LINE
8
0
10
61.495300
20
-110.765000
11
61.571454
21
-111.339019
0
LINE
8
0
10
61.571454
20
-111.339019
11
61.790044
21
-111.865000
0
LINE
8
0
10
61.790044
20
-111.865000
11
62.136262
21
-112.317295
0
LINE
8
0
10
62.136262
20
-112.317295
11
62.595300
21
-112.670256
0
LINE
8
0
10
62.595300
20
-112.670256
11
63.130492
21
-112.891314
0
LINE
8
0
10
63.130492
20
-112.891314
11
63.695300
21
-112.965000
0
LINE
8
0
10
63.695300
20
-112.965000
11
64.260108
21
-112.891314
0
LINE
8
0
10
64.260108
20
-112.891314
11
64.795300
21
-112.670256
0
LINE
8
0
10
64.795300
20
-112.670256
11
65.254338
21
-112.317295
0
LINE
8
0
10
65.254338
20
-112.317295
11
65.600556
21
-111.865000
0
LINE
8
0
10
65.600556
20
-111.865000
11
65.819146
21
-111.339019
0
LINE
8
0
10
65.819146
20
-111.339019
11
65.895300
21
-110.765000
0
LINE
8
0
10
65.895300
20
-110.765000
11
65.895300
21
-110.765000
0
LINE
8
0
10
65.503200
20
-47.126700
11
65.427046
21
-46.552681
0
LINE
8
0
10
65.427046
20
-46.552681
11
65.208456
21
-46.026700
0
LINE
8
0
10
65.208456
20
-46.026700
11
64.862238
21
-45.574405
0
LINE
8
0
10
64.862238
20
-45.574405
11
64.403200
21
-45.221444
0
LINE
8
0
10
64.403200
20
-45.221444
11
63.868008
21
-45.000386
0
LINE
8
0
10
63.868008
20
-45.000386
11
63.303200
21
-44.926700
0
LINE
8
0
10
63.303200
20
-44.926700
11
62.738392
21
-45.000386
0
LINE
8
0
10
62.738392
20
-45.000386
11
62.203200
21
-45.221444
0
LINE
8
0
10
62.203200
20
-45.221444
11
61.744162
21
-45.574405
0
LINE
8
0
10
61.744162
20
-45.574405
11
61.397944
21
-46.026700
0
LINE
8
0
10
61.397944
20
-46.026700
11
61.179354
21
-46.552681
0
LINE
8
0
10
61.179354
20
-46.552681
11
61.103200
21
-47.126700
0
LINE
8
0
10
61.103200
20
-47.126700
11
61.179354
21
-47.700719
0
LINE
8
0
10
61.179354
20
-47.700719
11
61.397944
21
-48.226700
0
LINE
8
0
10
61.397944
20
-48.226700
11
61.744162
21
-48.678995
0
LINE
8
0
10
61.744162
20
-48.678995
11
62.203200
21
-49.031956
0
LINE
8
0
10
62.203200
20
-49.031956
11
62.738392
21
-49.253014
0
LINE
8
0
10
62.738392
20
-49.253014
11
63.303200
21
-49.326700
0
LINE
8
0
10
63.303200
20
-49.326700
11
63.868008
21
-49.253014
0
LINE
8
0
10
63.868008
20
-49.253014
11
64.403200
21
-49.031956
0
LINE
8
0
10
64.403200
20
-49.031956
11
64.862238
21
-48.678995
0
LINE
8
0
10
64.862238
20
-48.678995
11
65.208456
21
-48.226700
0
LINE
8
0
10
65.208456
20
-48.226700
11
65.427046
21
-47.700719
0
LINE
8
0
10
65.427046
20
-47.700719
11
65.503200
21
-47.126700
0
LINE
8
0
10
65.503200
20
-47.126700
11
65.503200
21
-47.126700
0
LINE
8
0
10
2.257010
20
-111.157000
11
2.180856
21
-110.582981
0
LINE
8
0
10
2.180856
20
-110.582981
11
1.962266
21
-110.057000
0
LINE
8
0
10
1.962266
20
-110.057000
11
1.616048
21
-109.604705
0
LINE
8
0
10
1.616048
20
-109.604705
11
1.157010
21
-109.251744
0
LINE
8
0
10
1.157010
20
-109.251744
11
0.621818
21
-109.030686
0
LINE
8
0
10
0.621818
20
-109.030686
11
0.057010
21
-108.957000
0
LINE
8
0
10
0.057010
20
-108.957000
11
-0.507798
21
-109.030686
0
LINE
8
0
10
-0.507798
20
-109.030686
11
-1.042990
21
-109.251744
0
LINE
8
0
10
-1.042990
20
-109.251744
11
-1.502028
21
-109.604705
0
LINE
8
0
10
-1.502028
20
-109.604705
11
-1.848246
21
-110.057000
0
LINE
8
0
10
-1.848246
20
-110.057000
11
-2.066836
21
-110.582981
0
LINE
8
0
10
-2.066836
20
-110.582981
11
-2.142990
21
-111.157000
0
LINE
8
0
10
-2.142990
20
-111.157000
11
-2.066836
21
-111.731019
0
LINE
8
0
10
-2.066836
20
-111.731019
11
-1.848246
21
-112.257000
0
LINE
8
0
10
-1.848246
20
-112.257000
11
-1.502028
21
-112.709295
0
LINE
8
0
10
-1.502028
20
-112.709295
11
-1.042990
21
-113.062256
0
LINE
8
0
10
-1.042990
20
-113.062256
11
-0.507798
21
-113.283314
0
LINE
8
0
10
-0.507798
20
-113.283314
11
0.057010
21
-113.357000
0
LINE
8
0
10
0.057010
20
-113.357000
11
0.621818
21
-113.283314
0
LINE
8
0
10
0.621818
20
-113.283314
11
1.157010
21
-113.062256
0
LINE
8
0
10
1.157010
20
-113.062256
11
1.616048
21
-112.709295
0
LINE
8
0
10
1.616048
20
-112.709295
11
1.962266
21
-112.257000
0
LINE
8
0
10
1.962266
20
-112.257000
11
2.180856
21
-111.731019
0
LINE
8
0
10
2.180856
20
-111.731019
11
2.257010
21
-111.157000
0
LINE
8
0
10
2.257010
20
-111.157000
11
2.257010
21
-111.157000
0
LINE
8
0
10
71.930000
20
-79.141900
11
71.840799
21
-76.459691
0
LINE
8
0
10
71.840799
20
-76.459691
11
71.576029
21
-73.810415
0
LINE
8
0
10
71.576029
20
-73.810415
11
71.139922
21
-71.201404
0
LINE
8
0
10
71.139922
20
-71.201404
11
70.536713
21
-68.639991
0
LINE
8
0
10
70.536713
20
-68.639991
11
69.770634
21
-66.133506
0
LINE
8
0
10
69.770634
20
-66.133506
11
68.845919
21
-63.689284
0
LINE
8
0
10
68.845919
20
-63.689284
11
67.766799
21
-61.314654
0
LINE
8
0
10
67.766799
20
-61.314654
11
66.537510
21
-59.016950
0
LINE
8
0
10
66.537510
20
-59.016950
11
65.162282
21
-56.803503
0
LINE
8
0
10
65.162282
20
-56.803503
11
63.645351
21
-54.681645
0
LINE
8
0
10
63.645351
20
-54.681645
11
61.990947
21
-52.658709
0
LINE
8
0
10
61.990947
20
-52.658709
11
60.203306
21
-50.742025
0
LINE
8
0
10
60.203306
20
-50.742025
11
58.286660
21
-48.938927
0
LINE
8
0
10
58.286660
20
-48.938927
11
56.245241
21
-47.256746
0
LINE
8
0
10
56.245241
20
-47.256746
11
54.083284
21
-45.702815
0
LINE
8
0
10
54.083284
20
-45.702815
11
51.805020
21
-44.284464
0
LINE
8
0
10
51.805020
20
-44.284464
11
49.437561
21
-43.020605
0
LINE
8
0
10
49.437561
20
-43.020605
11
47.010837
21
-41.925261
0
LINE
8
0
10
47.010837
20
-41.925261
11
44.533317
21
-40.998431
0
LINE
8
0
10
44.533317
20
-40.998431
11
42.013465
21
-40.240116
0
LINE
8
0
10
42.013465
20
-40.240116
11
39.459748
21
-39.650315
0
LINE
8
0
10
39.459748
20
-39.650315
11
36.880632
21
-39.229029
0
LINE
8
0
10
36.880632
20
-39.229029
11
34.284584
21
-38.976257
0
LINE
8
0
10
34.284584
20
-38.976257
11
31.680070
21
-38.892000
0
LINE
8
0
10
31.680070
20
-38.892000
11
29.075556
21
-38.976257
0
LINE
8
0
10
29.075556
20
-38.976257
11
26.479508
21
-39.229029
0
LINE
8
0
10
26.479508
20
-39.229029
11
23.900392
21
-39.650315
0
LINE
8
0
10
23.900392
20
-39.650315
11
21.346675
21
-40.240116
0
LINE
8
0
10
21.346675
20
-40.240116
11
18.826823
21
-40.998431
0
LINE
8
0
10
18.826823
20
-40.998431
11
16.349303
21
-41.925261
0
LINE
8
0
10
16.349303
20
-41.925261
11
13.922579
21
-43.020605
0
LINE
8
0
10
13.922579
20
-43.020605
11
11.555120
21
-44.284464
0
LINE
8
0
10
11.555120
20
-44.284464
11
9.276856
21
-45.702815
0
LINE
8
0
10
9.276856
20
-45.702815
11
7.114899
21
-47.256746
0
LINE
8
0
10
7.114899
20
-47.256746
11
5.073481
21
-48.938927
0
LINE
8
0
10
5.073481
20
-48.938927
11
3.156834
21
-50.742025
0
LINE
8
0
10
3.156834
20
-50.742025
11
1.369193
21
-52.658709
0
LINE
8
0
10
1.369193
20
-52.658709
11
-0.285209
21
-54.681645
0
LINE
8
0
10
-0.285209
20
-54.681645
11
-1.802140
21
-56.803503
0
LINE
8
0
10
-1.802140
20
-56.803503
11
-3.177366
21
-59.016950
0
LINE
8
0
10
-3.177366
20
-59.016950
11
-4.406654
21
-61.314654
0
LINE
8
0
10
-4.406654
20
-61.314654
11
-5.485771
21
-63.689284
0
LINE
8
0
10
-5.485771
20
-63.689284
11
-6.410485
21
-66.133506
0
LINE
8
0
10
-6.410485
20
-66.133506
11
-7.176561
21
-68.639991
0
LINE
8
0
10
-7.176561
20
-68.639991
11
-7.779766
21
-71.201404
0
LINE
8
0
10
-7.779766
20
-71.201404
11
-8.215868
21
-73.810415
0
LINE
8
0
10
-8.215868
20
-73.810415
11
-8.480634
21
-76.459691
0
LINE
8
0
10
-8.480634
20
-76.459691
11
-8.569830
21
-79.141900
0
LINE
8
0
10
-8.569830
20
-79.141900
11
-8.480631
21
-81.824109
0
LINE
8
0
10
-8.480631
20
-81.824109
11
-8.215864
21
-84.473385
0
LINE
8
0
10
-8.215864
20
-84.473385
11
-7.779759
21
-87.082396
0
LINE
8
0
10
-7.779759
20
-87.082396
11
-7.176552
21
-89.643809
0
LINE
8
0
10
-7.176552
20
-89.643809
11
-6.410475
21
-92.150294
0
LINE
8
0
10
-6.410475
20
-92.150294
11
-5.485760
21
-94.594516
0
LINE
8
0
10
-5.485760
20
-94.594516
11
-4.406642
21
-96.969146
0
LINE
8
0
10
-4.406642
20
-96.969146
11
-3.177353
21
-99.266850
0
LINE
8
0
10
-3.177353
20
-99.266850
11
-1.802126
21
-101.480297
0
LINE
8
0
10
-1.802126
20
-101.480297
11
-0.285195
21
-103.602155
0
LINE
8
0
10
-0.285195
20
-103.602155
11
1.369208
21
-105.625091
0
LINE
8
0
10
1.369208
20
-105.625091
11
3.156849
21
-107.541775
0
LINE
8
0
10
3.156849
20
-107.541775
11
5.073495
21
-109.344873
0
LINE
8
0
10
5.073495
20
-109.344873
11
7.114914
21
-111.027054
0
LINE
8
0
10
7.114914
20
-111.027054
11
9.276871
21
-112.580985
0
LINE
8
0
10
9.276871
20
-112.580985
11
11.555135
21
-113.999336
0
LINE
8
0
10
11.555135
20
-113.999336
11
13.922594
21
-115.263195
0
LINE
8
0
10
13.922594
20
-115.263195
11
16.349318
21
-116.358539
0
LINE
8
0
10
16.349318
20
-116.358539
11
18.826838
21
-117.285369
0
LINE
8
0
10
18.826838
20
-117.285369
11
21.346690
21
-118.043684
0
LINE
8
0
10
21.346690
20
-118.043684
11
23.900407
21
-118.633485
0
LINE
8
0
10
23.900407
20
-118.633485
11
26.479523
21
-119.054771
0
LINE
8
0
10
26.479523
20
-119.054771
11
29.075571
21
-119.307543
0
LINE
8
0
10
29.075571
20
-119.307543
11
31.680085
21
-119.391800
0
LINE
8
0
10
31.680085
20
-119.391800
11
34.284599
21
-119.307543
0
LINE
8
0
10
34.284599
20
-119.307543
11
36.880647
21
-119.054771
0
LINE
8
0
10
36.880647
20
-119.054771
11
39.459763
21
-118.633485
0
LINE
8
0
10
39.459763
20
-118.633485
11
42.013480
21
-118.043684
0
LINE
8
0
10
42.013480
20
-118.043684
11
44.533332
21
-117.285369
0
LINE
8
0
10
44.533332
20
-117.285369
11
47.010852
21
-116.358539
0
LINE
8
0
10
47.010852
20
-116.358539
11
49.437576
21
-115.263195
0
LINE
8
0
10
49.437576
20
-115.263195
11
51.805035
21
-113.999336
0
LINE
8
0
10
51.805035
20
-113.999336
11
54.083299
21
-112.580985
0
LINE
8
0
10
54.083299
20
-112.580985
11
56.245256
21
-111.027054
0
LINE
8
0
10
56.245256
20
-111.027054
11
58.286674
21
-109.344873
0
LINE
8
0
10
58.286674
20
-109.344873
11
60.203321
21
-107.541775
0
LINE
8
0
10
60.203321
20
-107.541775
11
61.990962
21
-105.625091
0
LINE
8
0
10
61.990962
20
-105.625091
11
63.645364
21
-103.602155
0
LINE
8
0
10
63.645364
20
-103.602155
11
65.162295
21
-101.480297
0
LINE
8
0
10
65.162295
20
-101.480297
11
66.537521
21
-99.266850
0
LINE
8
0
10
66.537521
20
-99.266850
11
67.766809
21
-96.969146
0
LINE
8
0
10
67.766809
20
-96.969146
11
68.845926
21
-94.594516
0
LINE
8
0
10
68.845926
20
-94.594516
11
69.770640
21
-92.150294
0
LINE
8
0
10
69.770640
20
-92.150294
11
70.536716
21
-89.643809
0
LINE
8
0
10
70.536716
20
-89.643809
11
71.139921
21
-87.082396
0
LINE
8
0
10
71.139921
20
-87.082396
11
71.576023
21
-84.473385
0
LINE
8
0
10
71.576023
20
-84.473385
11
71.840789
21
-81.824109
0
LINE
8
0
10
71.840789
20
-81.824109
11
71.929985
21
-79.141900
0
LINE
8
0
10
71.929985
20
-79.141900
11
71.930000
21
-79.141900
0
LINE
8
0
10
1.864840
20
-47.518800
11
1.690605
21
-46.663967
0
LINE
8
0
10
1.690605
20
-46.663967
11
1.218821
21
-45.966198
0
LINE
8
0
10
1.218821
20
-45.966198
11
0.520047
21
-45.495902
0
LINE
8
0
10
0.520047
20
-45.495902
11
-0.335155
21
-45.323490
0
LINE
8
0
10
-0.335155
20
-45.323490
11
-1.190357
21
-45.495902
0
LINE
8
0
10
-1.190357
20
-45.495902
11
-1.889131
21
-45.966198
0
LINE
8
0
10
-1.889131
20
-45.966198
11
-2.360915
21
-46.663967
0
LINE
8
0
10
-2.360915
20
-46.663967
11
-2.535150
21
-47.518800
0
LINE
8
0
10
-2.535150
20
-47.518800
11
-2.360915
21
-48.373633
0
LINE
8
0
10
-2.360915
20
-48.373633
11
-1.889131
21
-49.071402
0
LINE
8
0
10
-1.889131
20
-49.071402
11
-1.190357
21
-49.541698
0
LINE
8
0
10
-1.190357
20
-49.541698
11
-0.335155
21
-49.714110
0
LINE
8
0
10
-0.335155
20
-49.714110
11
0.520047
21
-49.541698
0
LINE
8
0
10
0.520047
20
-49.541698
11
1.218821
21
-49.071402
0
LINE
8
0
10
1.218821
20
-49.071402
11
1.690605
21
-48.373633
0
LINE
8
0
10
1.690605
20
-48.373633
11
1.864840
21
-47.518800
0
LINE
8
0
10
1.864840
20
-47.518800
11
1.864840
21
-47.518800
0
LINE
8
0
10
155.895000
20
-110.765000
11
155.818846
21
-110.190981
0
LINE
8
0
10
155.818846
20
-110.190981
11
155.600256
21
-109.665000
0
LINE
8
0
10
155.600256
20
-109.665000
11
155.254038
21
-109.212705
0
LINE
8
0
10
155.254038
20
-109.212705
11
154.795000
21
-108.859744
0
LINE
8
0
10
154.795000
20
-108.859744
11
154.259808
21
-108.638686
0
LINE
8
0
10
154.259808
20
-108.638686
11
153.695000
21
-108.565000
0
LINE
8
0
10
153.695000
20
-108.565000
11
153.130192
21
-108.638686
0
LINE
8
0
10
153.130192
20
-108.638686
11
152.595000
21
-108.859744
0
LINE
8
0
10
152.595000
20
-108.859744
11
152.135962
21
-109.212705
0
LINE
8
0
10
152.135962
20
-109.212705
11
151.789744
21
-109.665000
0
LINE
8
0
10
151.789744
20
-109.665000
11
151.571154
21
-110.190981
0
LINE
8
0
10
151.571154
20
-110.190981
11
151.495000
21
-110.765000
0
LINE
8
0
10
151.495000
20
-110.765000
11
151.571154
21
-111.339019
0
LINE
8
0
10
151.571154
20
-111.339019
11
151.789744
21
-111.865000
0
LINE
8
0
10
151.789744
20
-111.865000
11
152.135962
21
-112.317295
0
LINE
8
0
10
152.135962
20
-112.317295
11
152.595000
21
-112.670256
0
LINE
8
0
10
152.595000
20
-112.670256
11
153.130192
21
-112.891314
0
LINE
8
0
10
153.130192
20
-112.891314
11
153.695000
21
-112.965000
0
LINE
8
0
10
153.695000
20
-112.965000
11
154.259808
21
-112.891314
0
LINE
8
0
10
154.259808
20
-112.891314
11
154.795000
21
-112.670256
0
LINE
8
0
10
154.795000
20
-112.670256
11
155.254038
21
-112.317295
0
LINE
8
0
10
155.254038
20
-112.317295
11
155.600256
21
-111.865000
0
LINE
8
0
10
155.600256
20
-111.865000
11
155.818846
21
-111.339019
0
LINE
8
0
10
155.818846
20
-111.339019
11
155.895000
21
-110.765000
0
LINE
8
0
10
155.895000
20
-110.765000
11
155.895000
21
-110.765000
0
LINE
8
0
10
155.503000
20
-47.126700
11
155.330113
21
-46.270361
0
LINE
8
0
10
155.330113
20
-46.270361
11
154.858635
21
-45.571065
0
LINE
8
0
10
154.858635
20
-45.571065
11
154.159339
21
-45.099587
0
LINE
8
0
10
154.159339
20
-45.099587
11
153.303000
21
-44.926700
0
LINE
8
0
10
153.303000
20
-44.926700
11
152.446661
21
-45.099587
0
LINE
8
0
10
152.446661
20
-45.099587
11
151.747365
21
-45.571065
0
LINE
8
0
10
151.747365
20
-45.571065
11
151.275887
21
-46.270361
0
LINE
8
0
10
151.275887
20
-46.270361
11
151.103000
21
-47.126700
0
LINE
8
0
10
151.103000
20
-47.126700
11
151.275887
21
-47.983039
0
LINE
8
0
10
151.275887
20
-47.983039
11
151.747365
21
-48.682335
0
LINE
8
0
10
151.747365
20
-48.682335
11
152.446661
21
-49.153813
0
LINE
8
0
10
152.446661
20
-49.153813
11
153.303000
21
-49.326700
0
LINE
8
0
10
153.303000
20
-49.326700
11
154.159339
21
-49.153813
0
LINE
8
0
10
154.159339
20
-49.153813
11
154.858635
21
-48.682335
0
LINE
8
0
10
154.858635
20
-48.682335
11
155.330113
21
-47.983039
0
LINE
8
0
10
155.330113
20
-47.983039
11
155.503000
21
-47.126700
0
LINE
8
0
10
155.503000
20
-47.126700
11
155.503000
21
-47.126700
0
LINE
8
0
10
107.308000
20
-116.738000
11
106.739827
21
-116.611486
0
LINE
8
0
10
106.739827
20
-116.611486
11
106.170625
21
-116.651604
0
LINE
8
0
10
106.170625
20
-116.651604
11
105.635860
21
-116.850670
0
LINE
8
0
10
105.635860
20
-116.850670
11
105.171000
21
-117.201000
0
LINE
8
0
10
105.171000
20
-117.201000
11
97.381400
21
-125.087000
0
LINE
8
0
10
97.381400
20
-125.087000
11
96.757097
21
-125.603427
0
LINE
8
0
10
96.757097
20
-125.603427
11
96.063648
21
-125.973836
0
LINE
8
0
10
96.063648
20
-125.973836
11
94.560299
21
-126.276032
0
LINE
8
0
10
94.560299
20
-126.276032
11
93.053325
21
-125.992462
0
LINE
8
0
10
93.053325
20
-125.992462
11
92.355346
21
-125.630663
0
LINE
8
0
10
92.355346
20
-125.630663
11
91.724700
21
-125.122000
0
LINE
8
0
10
91.724700
20
-125.122000
11
76.072800
21
-109.662000
0
LINE
8
0
10
76.072800
20
-109.662000
11
75.569471
21
-109.055854
0
LINE
8
0
10
75.569471
20
-109.055854
11
75.197624
21
-108.369638
0
LINE
8
0
10
75.197624
20
-108.369638
11
74.966082
21
-107.624285
0
LINE
8
0
10
74.966082
20
-107.624285
11
74.883669
21
-106.840729
0
LINE
8
0
10
74.883669
20
-106.840729
11
74.956408
21
-106.056214
0
LINE
8
0
10
74.956408
20
-106.056214
11
75.178736
21
-105.308062
0
LINE
8
0
10
75.178736
20
-105.308062
11
75.542088
21
-104.617310
0
LINE
8
0
10
75.542088
20
-104.617310
11
76.037900
21
-104.005000
0
LINE
8
0
10
76.037900
20
-104.005000
11
83.827200
21
-96.119000
0
LINE
8
0
10
83.827200
20
-96.119000
11
84.171676
21
-95.649827
0
LINE
8
0
10
84.171676
20
-95.649827
11
84.364045
21
-95.112649
0
LINE
8
0
10
84.364045
20
-95.112649
11
84.397067
21
-94.543022
0
LINE
8
0
10
84.397067
20
-94.543022
11
84.263500
21
-93.976500
0
LINE
8
0
10
84.263500
20
-93.976500
11
83.103313
21
-90.631490
0
LINE
8
0
10
83.103313
20
-90.631490
11
82.250705
21
-87.245827
0
LINE
8
0
10
82.250705
20
-87.245827
11
81.700068
21
-83.837363
0
LINE
8
0
10
81.700068
20
-83.837363
11
81.445794
21
-80.423946
0
LINE
8
0
10
81.445794
20
-80.423946
11
81.482275
21
-77.023426
0
LINE
8
0
10
81.482275
20
-77.023426
11
81.803904
21
-73.653654
0
LINE
8
0
10
81.803904
20
-73.653654
11
82.405074
21
-70.332479
0
LINE
8
0
10
82.405074
20
-70.332479
11
83.280175
21
-67.077751
0
LINE
8
0
10
83.280175
20
-67.077751
11
84.423601
21
-63.907319
0
LINE
8
0
10
84.423601
20
-63.907319
11
85.829744
21
-60.839035
0
LINE
8
0
10
85.829744
20
-60.839035
11
87.492996
21
-57.890747
0
LINE
8
0
10
87.492996
20
-57.890747
11
89.407750
21
-55.080305
0
LINE
8
0
10
89.407750
20
-55.080305
11
91.568398
21
-52.425560
0
LINE
8
0
10
91.568398
20
-52.425560
11
93.969331
21
-49.944360
0
LINE
8
0
10
93.969331
20
-49.944360
11
96.604943
21
-47.654557
0
LINE
8
0
10
96.604943
20
-47.654557
11
99.469626
21
-45.573999
0
LINE
8
0
10
99.469626
20
-45.573999
11
102.504689
21
-43.750947
0
LINE
8
0
10
102.504689
20
-43.750947
11
105.642766
21
-42.220547
0
LINE
8
0
10
105.642766
20
-42.220547
11
108.865235
21
-40.980980
0
LINE
8
0
10
108.865235
20
-40.980980
11
112.153475
21
-40.030429
0
LINE
8
0
10
112.153475
20
-40.030429
11
115.488864
21
-39.367074
0
LINE
8
0
10
115.488864
20
-39.367074
11
118.852782
21
-38.989098
0
LINE
8
0
10
118.852782
20
-38.989098
11
122.226607
21
-38.894681
0
LINE
8
0
10
122.226607
20
-38.894681
11
125.591718
21
-39.082006
0
LINE
8
0
10
125.591718
20
-39.082006
11
128.929492
21
-39.549254
0
LINE
8
0
10
128.929492
20
-39.549254
11
132.221309
21
-40.294606
0
LINE
8
0
10
132.221309
20
-40.294606
11
135.448547
21
-41.316244
0
LINE
8
0
10
135.448547
20
-41.316244
11
138.592585
21
-42.612350
0
LINE
8
0
10
138.592585
20
-42.612350
11
141.634801
21
-44.181104
0
LINE
8
0
10
141.634801
20
-44.181104
11
144.556575
21
-46.020689
0
LINE
8
0
10
144.556575
20
-46.020689
11
147.339284
21
-48.129286
0
LINE
8
0
10
147.339284
20
-48.129286
11
149.964307
21
-50.505076
0
LINE
8
0
10
149.964307
20
-50.505076
11
152.372351
21
-53.100544
0
LINE
8
0
10
152.372351
20
-53.100544
11
154.515170
21
-55.856986
0
LINE
8
0
10
154.515170
20
-55.856986
11
156.390716
21
-58.755807
0
LINE
8
0
10
156.390716
20
-58.755807
11
157.996940
21
-61.778408
0
LINE
8
0
10
157.996940
20
-61.778408
11
159.331794
21
-64.906191
0
LINE
8
0
10
159.331794
20
-64.906191
11
160.393230
21
-68.120559
0
LINE
8
0
10
160.393230
20
-68.120559
11
161.179199
21
-71.402915
0
LINE
8
0
10
161.179199
20
-71.402915
11
161.687652
21
-74.734662
0
LINE
8
0
10
161.687652
20
-74.734662
11
161.916542
21
-78.097200
0
LINE
8
0
10
161.916542
20
-78.097200
11
161.863820
21
-81.471934
0
LINE
8
0
10
161.863820
20
-81.471934
11
161.527437
21
-84.840266
0
LINE
8
0
10
161.527437
20
-84.840266
11
160.905345
21
-88.183597
0
LINE
8
0
10
160.905345
20
-88.183597
11
159.995496
21
-91.483331
0
LINE
8
0
10
159.995496
20
-91.483331
11
158.795841
21
-94.720871
0
LINE
8
0
10
158.795841
20
-94.720871
11
157.304331
21
-97.877617
0
LINE
8
0
10
157.304331
20
-97.877617
11
155.518919
21
-100.934974
0
LINE
8
0
10
155.518919
20
-100.934974
11
153.473916
21
-103.825145
0
LINE
8
0
10
153.473916
20
-103.825145
11
151.216853
21
-106.488849
0
LINE
8
0
10
151.216853
20
-106.488849
11
148.765509
21
-108.920257
0
LINE
8
0
10
148.765509
20
-108.920257
11
146.137663
21
-111.113542
0
LINE
8
0
10
146.137663
20
-111.113542
11
143.351095
21
-113.062875
0
LINE
8
0
10
143.351095
20
-113.062875
11
140.423583
21
-114.762429
0
LINE
8
0
10
140.423583
20
-114.762429
11
137.372907
21
-116.206377
0
LINE
8
0
10
137.372907
20
-116.206377
11
134.216846
21
-117.388889
0
LINE
8
0
10
134.216846
20
-117.388889
11
130.973179
21
-118.304139
0
LINE
8
0
10
130.973179
20
-118.304139
11
127.659685
21
-118.946299
0
LINE
8
0
10
127.659685
20
-118.946299
11
124.294144
21
-119.309540
0
LINE
8
0
10
124.294144
20
-119.309540
11
120.894335
21
-119.388036
0
LINE
8
0
10
120.894335
20
-119.388036
11
117.478037
21
-119.175957
0
LINE
8
0
10
117.478037
20
-119.175957
11
114.063029
21
-118.667477
0
LINE
8
0
10
114.063029
20
-118.667477
11
110.667090
21
-117.856767
0
LINE
8
0
10
110.667090
20
-117.856767
11
107.308000
21
-116.738000
0
LINE
8
0
10
107.308000
20
-116.738000
11
107.308000
21
-116.738000
0
LINE
8
0
10
91.864700
20
-47.518800
11
91.788546
21
-46.944781
0
LINE
8
0
10
91.788546
20
-46.944781
11
91.569956
21
-46.418800
0
LINE
8
0
10
91.569956
20
-46.418800
11
91.223738
21
-45.966505
0
LINE
8
0
10
91.223738
20
-45.966505
11
90.764700
21
-45.613544
0
LINE
8
0
10
90.764700
20
-45.613544
11
90.229508
21
-45.392486
0
LINE
8
0
10
90.229508
20
-45.392486
11
89.664700
21
-45.318800
0
LINE
8
0
10
89.664700
20
-45.318800
11
89.099892
21
-45.392486
0
LINE
8
0
10
89.099892
20
-45.392486
11
88.564700
21
-45.613544
0
LINE
8
0
10
88.564700
20
-45.613544
11
88.105662
21
-45.966505
0
LINE
8
0
10
88.105662
20
-45.966505
11
87.759444
21
-46.418800
0
LINE
8
0
10
87.759444
20
-46.418800
11
87.540854
21
-46.944781
0
LINE
8
0
10
87.540854
20
-46.944781
11
87.464700
21
-47.518800
0
LINE
8
0
10
87.464700
20
-47.518800
11
87.540854
21
-48.092819
0
LINE
8
0
10
87.540854
20
-48.092819
11
87.759444
21
-48.618800
0
LINE
8
0
10
87.759444
20
-48.618800
11
88.105662
21
-49.071095
0
LINE
8
0
10
88.105662
20
-49.071095
11
88.564700
21
-49.424056
0
LINE
8
0
10
88.564700
20
-49.424056
11
89.099892
21
-49.645114
0
LINE
8
0
10
89.099892
20
-49.645114
11
89.664700
21
-49.718800
0
LINE
8
0
10
89.664700
20
-49.718800
11
90.229508
21
-49.645114
0
LINE
8
0
10
90.229508
20
-49.645114
11
90.764700
21
-49.424056
0
LINE
8
0
10
90.764700
20
-49.424056
11
91.223738
21
-49.071095
0
LINE
8
0
10
91.223738
20
-49.071095
11
91.569956
21
-48.618800
0
LINE
8
0
10
91.569956
20
-48.618800
11
91.788546
21
-48.092819
0
LINE
8
0
10
91.788546
20
-48.092819
11
91.864700
21
-47.518800
0
LINE
8
0
10
91.864700
20
-47.518800
11
91.864700
21
-47.518800
0
LINE
8
0
10
272.187000
20
-3.585440
11
271.108993
21
-3.692096
0
LINE
8
0
10
271.108993
20
-3.692096
11
270.082242
21
-4.004099
0
LINE
8
0
10
270.082242
20
-4.004099
11
269.135598
21
-4.509499
0
LINE
8
0
10
269.135598
20
-4.509499
11
268.297913
21
-5.196346
0
LINE
8
0
10
268.297913
20
-5.196346
11
267.611065
21
-6.034030
0
LINE
8
0
10
267.611065
20
-6.034030
11
267.105663
21
-6.980673
0
LINE
8
0
10
267.105663
20
-6.980673
11
266.793657
21
-8.007423
0
LINE
8
0
10
266.793657
20
-8.007423
11
266.687000
21
-9.085430
0
LINE
8
0
10
266.687000
20
-9.085430
11
266.687000
21
-12.227500
0
LINE
8
0
10
266.687000
20
-12.227500
11
-17.920900
21
-12.227500
0
LINE
8
0
10
-17.920900
20
-12.227500
11
-17.248892
21
-10.825890
0
LINE
8
0
10
-17.248892
20
-10.825890
11
-16.961193
21
-9.323436
0
LINE
8
0
10
-16.961193
20
-9.323436
11
-17.062535
21
-7.797044
0
LINE
8
0
10
-17.062535
20
-7.797044
11
-17.557651
21
-6.323624
0
LINE
8
0
10
-17.557651
20
-6.323624
11
-18.414437
21
-5.026697
0
LINE
8
0
10
-18.414437
20
-5.026697
11
-19.555282
21
-4.007573
0
LINE
8
0
10
-19.555282
20
-4.007573
11
-20.916648
21
-3.309846
0
LINE
8
0
10
-20.916648
20
-3.309846
11
-22.435000
21
-2.977110
0
LINE
8
0
10
-22.435000
20
-2.977110
11
-25.435000
21
-2.977110
0
LINE
8
0
10
-25.435000
20
-2.977110
11
-25.435000
21
167.196000
0
LINE
8
0
10
-25.435000
20
167.196000
11
-20.873100
21
167.196000
0
LINE
8
0
10
-20.873100
20
167.196000
11
-19.533708
21
167.462422
0
LINE
8
0
10
-19.533708
20
167.462422
11
-18.398226
21
168.221126
0
LINE
8
0
10
-18.398226
20
168.221126
11
-17.639522
21
169.356608
0
LINE
8
0
10
-17.639522
20
169.356608
11
-17.373100
21
170.696000
0
LINE
8
0
10
-17.373100
20
170.696000
11
-17.373100
21
178.196000
0
LINE
8
0
10
-17.373100
20
178.196000
11
265.487000
21
178.196000
0
LINE
8
0
10
265.487000
20
178.196000
11
265.487000
21
175.681000
0
LINE
8
0
10
265.487000
20
175.681000
11
265.574264
21
174.798993
0
LINE
8
0
10
265.574264
20
174.798993
11
265.829539
21
173.958923
0
LINE
8
0
10
265.829539
20
173.958923
11
266.243050
21
173.184395
0
LINE
8
0
10
266.243050
20
173.184395
11
266.805017
21
172.499017
0
LINE
8
0
10
266.805017
20
172.499017
11
267.490395
21
171.937050
0
LINE
8
0
10
267.490395
20
171.937050
11
268.264923
21
171.523539
0
LINE
8
0
10
268.264923
20
171.523539
11
269.104993
21
171.268264
0
LINE
8
0
10
269.104993
20
171.268264
11
269.987000
21
171.181000
0
LINE
8
0
10
269.987000
20
171.181000
11
272.456000
21
171.181000
0
LINE
8
0
10
272.456000
20
171.181000
11
272.456000
21
-3.585440
0
LINE
8
0
10
272.456000
20
-3.585440
11
272.187000
21
-3.585440
0
LINE
8
0
10
272.187000
20
-3.585440
11
272.187000
21
-3.585440
0
LINE
8
0
10
-288.380000
20
-151.259000
11
-288.380000
21
-69.259600
0
LINE
8
0
10
-285.380000
20
-66.259100
11
-286.528050
21
-66.487461
0
LINE
8
0
10
-286.528050
20
-66.487461
11
-287.501320
21
-67.137780
0
LINE
8
0
10
-287.501320
20
-67.137780
11
-288.151639
21
-68.111050
0
LINE
8
0
10
-288.151639
20
-68.111050
11
-288.380000
21
-69.259100
0
LINE
8
0
10
-285.379000
20
-66.259200
11
-219.380000
21
-66.259200
0
LINE
8
0
10
-216.380000
20
-69.259100
11
-216.608361
21
-68.111050
0
LINE
8
0
10
-216.608361
20
-68.111050
11
-217.258680
21
-67.137780
0
LINE
8
0
10
-217.258680
20
-67.137780
11
-218.231950
21
-66.487461
0
LINE
8
0
10
-218.231950
20
-66.487461
11
-219.380000
21
-66.259100
0
LINE
8
0
10
-216.380000
20
-69.259600
11
-216.380000
21
-151.259000
0
LINE
8
0
10
-216.380000
20
-151.259000
11
384.487000
21
-151.259000
0
LINE
8
0
10
384.487000
20
-151.259000
11
384.487000
21
65.167600
0
LINE
8
0
10
148.096000
20
217.740000
11
-299.122000
21
217.740000
0
LINE
8
0
10
-535.513000
20
65.167600
11
-535.513000
21
-151.259000
0
LINE
8
0
10
-535.513000
20
-151.259000
11
-288.380000
21
-151.259000
 0 
ENDSEC
 0 
EOF