0
SECTION
2
HEADER
9
$INSUNITS
70
4
9
$ACADVER
1
AC1014
9
$HANDSEED
5
FFFF
0
ENDSEC
0
SECTION
2
TABLES
0
TABLE
2
VPORT
5
8
100
AcDbSymbolTable
0
ENDTAB
0
TABLE
2
LTYPE
5
5
100
AcDbSymbolTable
0
LTYPE
5
14
100
AcDbSymbolTableRecord
100
AcDbLinetypeTableRecord
2
BYBLOCK
70
0
0
LTYPE
5
15
100
AcDbSymbolTableRecord
100
AcDbLinetypeTableRecord
2
BYLAYER
70
0
0
ENDTAB
0
TABLE
2
LAYER
5
2
100
AcDbSymbolTable
70
2
0
LAYER
5
50
100
AcDbSymbolTableRecord
100
AcDbLayerTableRecord
2
0
70
0
6
CONTINUOUS
0
ENDTAB
0
TABLE
2
STYLE
5
3
100
AcDbSymbolTable
70
1
0
STYLE
5
11
100
AcDbSymbolTableRecord
100
AcDbTextStyleTableRecord
2
STANDARD
70
0
0
ENDTAB
0
TABLE
2
VIEW
5
6
100
AcDbSymbolTable
70
0
0
ENDTAB
0
TABLE
2
UCS
5
7
100
AcDbSymbolTable
70
0
0
ENDTAB
0
TABLE
2
APPID
5
9
100
AcDbSymbolTable
70
2
0
APPID
5
12
100
AcDbSymbolTableRecord
100
AcDbRegAppTableRecord
2
ACAD
70
0
0
ENDTAB
0
TABLE
2
DIMSTYLE
5
A
100
AcDbSymbolTable
70
1
0
ENDTAB
0
TABLE
2
BLOCK_RECORD
5
1
100
AcDbSymbolTable
70
1
0
BLOCK_RECORD
5
1F
100
AcDbSymbolTableRecord
100
AcDbBlockTableRecord
2
*MODEL_SPACE
0
BLOCK_RECORD
5
1B
100
AcDbSymbolTableRecord
100
AcDbBlockTableRecord
2
*PAPER_SPACE
0
ENDTAB
0
ENDSEC
0
SECTION
2
BLOCKS
0
BLOCK
5
20
100
AcDbEntity
100
AcDbBlockBegin
2
*MODEL_SPACE
0
ENDBLK
5
21
100
AcDbEntity
100
AcDbBlockEnd
0
BLOCK
5
1C
100
AcDbEntity
100
AcDbBlockBegin
2
*PAPER_SPACE
0
ENDBLK
5
1D
100
AcDbEntity
100
AcDbBlockEnd
0
ENDSEC
0
SECTION
2
ENTITIES
0
LWPOLYLINE
5
100
100
AcDbEntity
8
0
100
AcDbPolyline
90
8
70
1
43
0.0
10
299.71999765020001
20
-211.40500015521701
10
299.71999765020001
20
-22.175000155216686
42
0.41421356237309381
10
296.5449976502
20
-19.000000155216668
10
3.1750000000000611
20
-19.000000155216799
42
0.41421356237309609
10
1.9984014443252818e-14
20
-22.175000155216701
10
2.6645352591003757e-14
20
-211.40500015521701
42
0.41421356237309648
10
3.1750000000000513
20
-214.58000015521696
10
296.5449976502
20
-214.58000015521702
42
0.41421356237309503
0
CIRCLE
5
101
100
AcDbEntity
8
0
100
AcDbCircle
10
196.408147034161
20
-209.39579179324704
30
0
40
0.79999999999998295
210
3.1861838222649046e-58
220
-2.7736844436719441e-98
230
1
0
CIRCLE
5
102
100
AcDbEntity
8
0
100
AcDbCircle
10
103.31185061603802
20
-209.39579179324704
30
0
40
0.80000000000000115
210
-3.1861838222649046e-58
220
1.3106605828306321e-98
230
1
0
CIRCLE
5
103
100
AcDbEntity
8
0
100
AcDbCircle
10
294.57599861826998
20
-24.184208517185901
30
0
40
0.80000000000001803
210
-3.1861838222649046e-58
220
-1.5236327801067969e-99
230
1
0
CIRCLE
5
104
100
AcDbEntity
8
0
100
AcDbCircle
10
294.57599861826998
20
-209.39579179324704
30
0
40
0.80000000000001803
210
-3.1861838222649046e-58
220
-1.5236327801067969e-99
230
1
0
CIRCLE
5
105
100
AcDbEntity
8
0
100
AcDbCircle
10
5.1439990319299103
20
-209.39579179324704
30
0
40
0.80000000000001803
210
-3.1861838222649046e-58
220
-1.5236327801067969e-99
230
1
0
CIRCLE
5
106
100
AcDbEntity
8
0
100
AcDbCircle
10
5.1439990319299103
20
-24.184208517185901
30
0
40
0.80000000000001803
210
-3.1861838222649046e-58
220
-1.5236327801067969e-99
230
1
0
CIRCLE
5
107
100
AcDbEntity
8
0
100
AcDbCircle
10
296.08783188674198
20
-128.93089302441803
30
0
40
0.79999999999998295
210
3.1861838222649046e-58
220
-2.7736844436719441e-98
230
1
0
CIRCLE
5
108
100
AcDbEntity
8
0
100
AcDbCircle
10
3.6321657634575999
20
-128.93089302441803
30
0
40
0.80000000000000115
210
-3.1861838222649046e-58
220
1.3106605828306321e-98
230
1
0
LWPOLYLINE
5
109
100
AcDbEntity
8
0
100
AcDbPolyline
90
32
70
1
43
0.0
10
291.70099861826998
20
-21.000000155216703
10
291.70099861826998
20
-24.184208517185901
42
0.41421356237309503
10
294.57599861826998
20
-27.059208517185933
10
297.71999765020001
20
-27.059208517185901
10
297.71999765020001
20
-125.96529829544401
10
296.08783188674198
20
-125.96529829544401
42
0.99999999999999989
10
296.08783188674198
20
-131.89648775339205
10
297.71999765020001
20
-131.89648775339202
10
297.71999765020001
20
-206.52079179324701
10
294.57599861826998
20
-206.52079179324701
42
0.41421356237309503
10
291.70099861826998
20
-209.39579179324704
10
291.70099861826998
20
-212.58000015521702
10
199.582755414302
20
-212.58000015521702
10
199.582755414302
20
-205.56391405126803
10
193.233538654021
20
-205.56391405126803
10
193.233538654021
20
-212.58000015521702
10
106.48645899617901
20
-212.58000015521702
10
106.48645899617901
20
-205.56391405126803
10
100.13724223589801
20
-205.56391405126803
10
100.13724223589801
20
-212.58000015521702
10
8.018999031929912
20
-212.58000015521702
10
8.0189990319299191
20
-209.39579179324704
42
0.41421356237309503
10
5.1439990319299103
20
-206.52079179324701
10
2.0000000000000506
20
-206.52079179324701
10
2.00000000000002
20
-131.89648775339202
10
3.6321657634575999
20
-131.89648775339202
42
0.99999999999999989
10
3.6321657634575999
20
-125.96529829544397
10
2.0000000000000302
20
-125.96529829544401
10
1.9999999999999902
20
-27.059208517185898
10
5.1439990319299103
20
-27.059208517185901
42
0.41421356237309503
10
8.0189990319299209
20
-24.184208517185901
10
8.0189990319299191
20
-21.000000155216899
0
ENDSEC
0
SECTION
2
OBJECTS
0
DICTIONARY
5
C
100
AcDbDictionary
3
ACAD_GROUP
350
D
3
ACAD_MLINESTYLE
350
17
0
DICTIONARY
5
D
100
AcDbDictionary
0
DICTIONARY
5
1A
330
C
100
AcDbDictionary
0
DICTIONARY
5
17
100
AcDbDictionary
0
ENDSEC
0
EOF
