0
SECTION
2
HEADER
9
$INSUNITS
70
4
9
$ACADVER
1
AC1014
9
$HANDSEED
5
FFFF
0
ENDSEC
0
SECTION
2
TABLES
0
TABLE
2
VPORT
5
8
100
AcDbSymbolTable
0
ENDTAB
0
TABLE
2
LTYPE
5
5
100
AcDbSymbolTable
0
LTYPE
5
14
100
AcDbSymbolTableRecord
100
AcDbLinetypeTableRecord
2
BYBLOCK
70
0
0
LTYPE
5
15
100
AcDbSymbolTableRecord
100
AcDbLinetypeTableRecord
2
BYLAYER
70
0
0
ENDTAB
0
TABLE
2
LAYER
5
2
100
AcDbSymbolTable
70
2
0
LAYER
5
50
100
AcDbSymbolTableRecord
100
AcDbLayerTableRecord
2
0
70
0
6
CONTINUOUS
0
ENDTAB
0
TABLE
2
STYLE
5
3
100
AcDbSymbolTable
70
1
0
STYLE
5
11
100
AcDbSymbolTableRecord
100
AcDbTextStyleTableRecord
2
STANDARD
70
0
0
ENDTAB
0
TABLE
2
VIEW
5
6
100
AcDbSymbolTable
70
0
0
ENDTAB
0
TABLE
2
UCS
5
7
100
AcDbSymbolTable
70
0
0
ENDTAB
0
TABLE
2
APPID
5
9
100
AcDbSymbolTable
70
2
0
APPID
5
12
100
AcDbSymbolTableRecord
100
AcDbRegAppTableRecord
2
ACAD
70
0
0
ENDTAB
0
TABLE
2
DIMSTYLE
5
A
100
AcDbSymbolTable
70
1
0
ENDTAB
0
TABLE
2
BLOCK_RECORD
5
1
100
AcDbSymbolTable
70
1
0
BLOCK_RECORD
5
1F
100
AcDbSymbolTableRecord
100
AcDbBlockTableRecord
2
*MODEL_SPACE
0
BLOCK_RECORD
5
1B
100
AcDbSymbolTableRecord
100
AcDbBlockTableRecord
2
*PAPER_SPACE
0
ENDTAB
0
ENDSEC
0
SECTION
2
BLOCKS
0
BLOCK
5
20
100
AcDbEntity
100
AcDbBlockBegin
2
*MODEL_SPACE
0
ENDBLK
5
21
100
AcDbEntity
100
AcDbBlockEnd
0
BLOCK
5
1C
100
AcDbEntity
100
AcDbBlockBegin
2
*PAPER_SPACE
0
ENDBLK
5
1D
100
AcDbEntity
100
AcDbBlockEnd
0
ENDSEC
0
SECTION
2
ENTITIES
0
LWPOLYLINE
5
100
100
AcDbEntity
8
0
100
AcDbPolyline
90
8
70
1
43
0.0
10
50.827687842011919
20
-17.14980116107705
10
36.577687842011919
20
-17.14980116107705
10
36.577687842011919
20
-18.649801161076983
10
-76.422312157988088
20
-18.649801161076983
10
-76.422312157988102
20
-8.6498011610770718
10
36.827687842011912
20
-8.6498011610770718
10
36.827687842011919
20
5.8501988389229442
10
50.827687842011919
20
5.8501988389229442
0
LWPOLYLINE
5
101
100
AcDbEntity
8
0
100
AcDbPolyline
90
4
70
1
43
0.0
10
54.327687842011926
20
3.8501988389230979
10
74.327687842011926
20
3.8501988389230988
10
74.327687842011926
20
-16.149801161076901
10
54.327687842011926
20
-16.149801161076901
0
LWPOLYLINE
5
102
100
AcDbEntity
8
0
100
AcDbPolyline
90
4
70
1
43
0.0
10
-47.799999999999983
20
-5.2000000000000037
10
-47.799999999999983
20
19.199999999999999
10
23.800000000000018
20
19.199999999999999
10
23.800000000000022
20
-5.2000000000000046
0
CIRCLE
5
103
100
AcDbEntity
8
0
100
AcDbCircle
10
-69.922312157978439
20
2.1251988389230956
30
-1.5777218104420236e-28
40
2.0000000000000018
210
8.3236289553770216e-51
220
-4.5592230532141887e-90
230
1
0
LWPOLYLINE
5
104
100
AcDbEntity
8
0
100
AcDbPolyline
90
4
70
1
43
0.0
10
75.577687842011912
20
8.8751988389231116
10
46.077687842011883
20
8.8751988389231116
10
46.077687842011883
20
18.875198838923094
10
75.577687842011912
20
18.875198838923094
0
CIRCLE
5
105
100
AcDbEntity
8
0
100
AcDbCircle
10
43.827687842011912
20
11.125198838923094
30
-1.5777218104420236e-28
40
1.5000000000000036
210
8.3236289553770193e-51
220
-4.5592230532141879e-90
230
1
0
LINE
5
106
100
AcDbEntity
8
0
100
AcDbLine
10
-79.422312157988074
20
-20.649801161076905
30
-1.5777218104420236e-28
11
79.327687842011926
21
-20.649801161076912
31
-1.5777218104420236e-28
0
LINE
5
107
100
AcDbEntity
8
0
100
AcDbLine
10
79.327687842011926
20
-20.649801161076912
30
-1.5777218104420236e-28
11
79.327687842011926
21
20.625198838923101
31
-1.5777218104420236e-28
0
LINE
5
108
100
AcDbEntity
8
0
100
AcDbLine
10
-79.422312157988102
20
20.625198838923101
30
-1.5777218104420236e-28
11
-79.422312157988074
21
-20.649801161076905
31
-1.5777218104420236e-28
0
CIRCLE
5
109
100
AcDbEntity
8
0
100
AcDbCircle
10
43.827687842011912
20
11.125198838923094
30
3.4090054332652584e-17
40
1.5000000000000036
210
0
220
0
230
1
0
LWPOLYLINE
5
110
100
AcDbEntity
8
0
100
AcDbPolyline
90
4
70
1
43
0.0
10
46.077687842011883
20
18.875198838923094
10
46.077687842011883
20
8.8751988389231116
10
75.577687842011912
20
8.8751988389231116
10
75.577687842011912
20
18.875198838923094
0
CIRCLE
5
111
100
AcDbEntity
8
0
100
AcDbCircle
10
-69.922312157978439
20
2.125198838923096
30
-3.603938076512152e-17
40
2.0000000000000018
210
0
220
0
230
1
0
LWPOLYLINE
5
112
100
AcDbEntity
8
0
100
AcDbPolyline
90
4
70
1
43
0.0
10
23.800000000000018
20
19.199999999999999
10
-47.799999999999983
20
19.199999999999999
10
-47.799999999999976
20
-5.2000000000000028
10
23.800000000000022
20
-5.2000000000000046
0
LWPOLYLINE
5
113
100
AcDbEntity
8
0
100
AcDbPolyline
90
4
70
1
43
0.0
10
74.327687842011926
20
-16.149801161076901
10
74.327687842011926
20
3.8501988389230979
10
54.327687842011926
20
3.8501988389230983
10
54.327687842011926
20
-16.149801161076901
0
LWPOLYLINE
5
114
100
AcDbEntity
8
0
100
AcDbPolyline
90
8
70
1
43
0.0
10
36.577687842011919
20
-18.649801161076983
10
36.577687842011919
20
-17.14980116107705
10
50.827687842011919
20
-17.14980116107705
10
50.827687842011919
20
5.850198838922946
10
36.827687842011919
20
5.850198838922946
10
36.827687842011919
20
-8.64980116107707
10
-76.422312157988102
20
-8.64980116107707
10
-76.422312157988088
20
-18.649801161076983
0
LINE
5
115
100
AcDbEntity
8
0
100
AcDbLine
10
79.327687842011926
20
20.625198838923104
30
-1.6944018681331336e-16
11
79.327687842011926
21
-20.649801161076908
31
-1.6944018681331336e-16
0
LINE
5
116
100
AcDbEntity
8
0
100
AcDbLine
10
-79.422312157988074
20
-20.649801161076901
30
-5.3389952586158081e-18
11
-79.422312157988102
21
20.625198838923104
31
-1.6944018681331336e-16
0
LINE
5
117
100
AcDbEntity
8
0
100
AcDbLine
10
79.327687842011926
20
-20.649801161076908
30
-1.6944018681331336e-16
11
-79.422312157988074
21
-20.649801161076901
31
-5.3389952586158081e-18
0
LINE
5
118
100
AcDbEntity
8
0
100
AcDbLine
10
-79.422312157988102
20
25.625198838923104
30
-2.9847786564322896e-16
11
-79.422312157988102
21
20.625198838923104
31
-2.9847786562707309e-16
0
LINE
5
119
100
AcDbEntity
8
0
100
AcDbLine
10
79.327687842011926
20
20.625198838923097
30
-1.6944018693683818e-16
11
79.327687842011926
21
25.625198838923104
31
-1.4417108127673029e-18
0
LINE
5
120
100
AcDbEntity
8
0
100
AcDbLine
10
79.327687842011926
20
25.625198838923104
30
-1.4417108127673029e-18
11
-79.422312157988102
21
25.625198838923104
31
-2.9847786564322896e-16
0
ENDSEC
0
SECTION
2
OBJECTS
0
DICTIONARY
5
C
100
AcDbDictionary
3
ACAD_GROUP
350
D
3
ACAD_MLINESTYLE
350
17
0
DICTIONARY
5
D
100
AcDbDictionary
0
DICTIONARY
5
1A
330
C
100
AcDbDictionary
0
DICTIONARY
5
17
100
AcDbDictionary
0
ENDSEC
0
EOF
