999
"DXF R12 Output" (www.mydxf.blogspot.com)
 0 
SECTION
 2 
HEADER
 9 
$ACADVER
 1 
AC1009
 9 
$EXTMIN
 10 
 0 
 20 
 0 
 9 
$EXTMAX
 10 
 8.5 
 20 
 11 
 0 
ENDSEC
 0 
SECTION
 2 
ENTITIES
0
LINE
8
Layer 1
10
0.793749
20
297.794000
11
-0.793749
21
296.206000
0
LINE
8
Layer 1
10
0.000000
20
298.323000
11
0.000000
21
295.677000
0
LINE
8
Layer 1
10
2.116660
20
295.942000
11
1.058330
21
294.883670
0
LINE
8
Layer 1
10
1.587500
20
296.471000
11
0.529170
21
295.412670
0
LINE
8
Layer 1
10
1.058330
20
297.000000
11
0.000000
21
295.941670
0
LINE
8
0
10
-20.320000
20
-25.399600
11
-20.170296
21
-24.658088
0
LINE
8
0
10
-20.170296
20
-24.658088
11
-19.762038
21
-24.052562
0
LINE
8
0
10
-19.762038
20
-24.052562
11
-19.156512
21
-23.644304
0
LINE
8
0
10
-19.156512
20
-23.644304
11
-18.415000
21
-23.494600
0
LINE
8
0
10
-18.415000
20
-23.494600
11
-17.673488
21
-23.644304
0
LINE
8
0
10
-17.673488
20
-23.644304
11
-17.067962
21
-24.052562
0
LINE
8
0
10
-17.067962
20
-24.052562
11
-16.659704
21
-24.658088
0
LINE
8
0
10
-16.659704
20
-24.658088
11
-16.510000
21
-25.399600
0
LINE
8
0
10
-16.510000
20
-25.399600
11
-16.659704
21
-26.141112
0
LINE
8
0
10
-16.659704
20
-26.141112
11
-17.067962
21
-26.746638
0
LINE
8
0
10
-17.067962
20
-26.746638
11
-17.673488
21
-27.154896
0
LINE
8
0
10
-17.673488
20
-27.154896
11
-18.415000
21
-27.304600
0
LINE
8
0
10
-18.415000
20
-27.304600
11
-19.156512
21
-27.154896
0
LINE
8
0
10
-19.156512
20
-27.154896
11
-19.762038
21
-26.746638
0
LINE
8
0
10
-19.762038
20
-26.746638
11
-20.170296
21
-26.141112
0
LINE
8
0
10
-20.170296
20
-26.141112
11
-20.320000
21
-25.399600
0
LINE
8
0
10
-20.320000
20
-25.399600
11
-20.320000
21
-25.399600
0
LINE
8
0
10
-20.320000
20
25.400300
11
-20.170296
21
26.141812
0
LINE
8
0
10
-20.170296
20
26.141812
11
-19.762038
21
26.747338
0
LINE
8
0
10
-19.762038
20
26.747338
11
-19.156512
21
27.155596
0
LINE
8
0
10
-19.156512
20
27.155596
11
-18.415000
21
27.305300
0
LINE
8
0
10
-18.415000
20
27.305300
11
-17.673488
21
27.155596
0
LINE
8
0
10
-17.673488
20
27.155596
11
-17.067962
21
26.747338
0
LINE
8
0
10
-17.067962
20
26.747338
11
-16.659704
21
26.141812
0
LINE
8
0
10
-16.659704
20
26.141812
11
-16.510000
21
25.400300
0
LINE
8
0
10
-16.510000
20
25.400300
11
-16.659704
21
24.658788
0
LINE
8
0
10
-16.659704
20
24.658788
11
-17.067962
21
24.053262
0
LINE
8
0
10
-17.067962
20
24.053262
11
-17.673488
21
23.645004
0
LINE
8
0
10
-17.673488
20
23.645004
11
-18.415000
21
23.495300
0
LINE
8
0
10
-18.415000
20
23.495300
11
-19.156512
21
23.645004
0
LINE
8
0
10
-19.156512
20
23.645004
11
-19.762038
21
24.053262
0
LINE
8
0
10
-19.762038
20
24.053262
11
-20.170296
21
24.658788
0
LINE
8
0
10
-20.170296
20
24.658788
11
-20.320000
21
25.400300
0
LINE
8
0
10
-20.320000
20
25.400300
11
-20.320000
21
25.400300
0
LINE
8
0
10
16.510000
20
-25.399600
11
16.659704
21
-24.658088
0
LINE
8
0
10
16.659704
20
-24.658088
11
17.067962
21
-24.052562
0
LINE
8
0
10
17.067962
20
-24.052562
11
17.673488
21
-23.644304
0
LINE
8
0
10
17.673488
20
-23.644304
11
18.415000
21
-23.494600
0
LINE
8
0
10
18.415000
20
-23.494600
11
19.156512
21
-23.644304
0
LINE
8
0
10
19.156512
20
-23.644304
11
19.762038
21
-24.052562
0
LINE
8
0
10
19.762038
20
-24.052562
11
20.170296
21
-24.658088
0
LINE
8
0
10
20.170296
20
-24.658088
11
20.320000
21
-25.399600
0
LINE
8
0
10
20.320000
20
-25.399600
11
20.064778
21
-26.352100
0
LINE
8
0
10
20.064778
20
-26.352100
11
19.367500
21
-27.049378
0
LINE
8
0
10
19.367500
20
-27.049378
11
18.415000
21
-27.304600
0
LINE
8
0
10
18.415000
20
-27.304600
11
17.462500
21
-27.049378
0
LINE
8
0
10
17.462500
20
-27.049378
11
16.765222
21
-26.352100
0
LINE
8
0
10
16.765222
20
-26.352100
11
16.510000
21
-25.399600
0
LINE
8
0
10
16.510000
20
-25.399600
11
16.510000
21
-25.399600
0
LINE
8
0
10
16.510000
20
25.400300
11
16.659704
21
26.141812
0
LINE
8
0
10
16.659704
20
26.141812
11
17.067962
21
26.747338
0
LINE
8
0
10
17.067962
20
26.747338
11
17.673488
21
27.155596
0
LINE
8
0
10
17.673488
20
27.155596
11
18.415000
21
27.305300
0
LINE
8
0
10
18.415000
20
27.305300
11
19.156512
21
27.155596
0
LINE
8
0
10
19.156512
20
27.155596
11
19.762038
21
26.747338
0
LINE
8
0
10
19.762038
20
26.747338
11
20.170296
21
26.141812
0
LINE
8
0
10
20.170296
20
26.141812
11
20.320000
21
25.400300
0
LINE
8
0
10
20.320000
20
25.400300
11
20.064778
21
24.447800
0
LINE
8
0
10
20.064778
20
24.447800
11
19.367500
21
23.750522
0
LINE
8
0
10
19.367500
20
23.750522
11
18.415000
21
23.495300
0
LINE
8
0
10
18.415000
20
23.495300
11
17.462500
21
23.750522
0
LINE
8
0
10
17.462500
20
23.750522
11
16.765222
21
24.447800
0
LINE
8
0
10
16.765222
20
24.447800
11
16.510000
21
25.400300
0
LINE
8
0
10
16.510000
20
25.400300
11
16.510000
21
25.400300
0
LINE
8
0
10
10.765000
20
24.750300
11
-1.485000
21
24.750300
0
LINE
8
0
10
-1.485000
20
24.750300
11
-1.485000
21
19.314600
0
LINE
8
0
10
-1.485000
20
19.314600
11
-16.874100
21
19.314600
0
LINE
8
0
10
-16.874100
20
19.314600
11
-16.874100
21
-16.685400
0
LINE
8
0
10
-16.874100
20
-16.685400
11
3.115000
21
-16.685400
0
LINE
8
0
10
3.115000
20
-16.685400
11
3.115000
21
-20.999600
0
LINE
8
0
10
3.115000
20
-20.999600
11
10.765000
21
-20.999600
0
LINE
8
0
10
10.765000
20
-20.999600
11
10.765000
21
-16.124600
0
LINE
8
0
10
10.765000
20
-16.124600
11
17.265000
21
-16.124600
0
LINE
8
0
10
17.265000
20
-16.124600
11
17.265000
21
19.875300
0
LINE
8
0
10
17.265000
20
19.875300
11
10.765000
21
19.875300
0
LINE
8
0
10
10.765000
20
19.875300
11
10.765000
21
24.750300
 0 
ENDSEC
 0 
EOF