0
SECTION
2
HEADER
9
$INSUNITS
70
1
9
$ACADVER
1
AC1014
9
$HANDSEED
5
FFFF
0
ENDSEC
0
SECTION
2
TABLES
0
TABLE
2
VPORT
5
8
100
AcDbSymbolTable
0
ENDTAB
0
TABLE
2
LTYPE
5
5
100
AcDbSymbolTable
0
LTYPE
5
14
100
AcDbSymbolTableRecord
100
AcDbLinetypeTableRecord
2
BYBLOCK
70
0
0
LTYPE
5
15
100
AcDbSymbolTableRecord
100
AcDbLinetypeTableRecord
2
BYLAYER
70
0
0
ENDTAB
0
TABLE
2
LAYER
5
2
100
AcDbSymbolTable
70
2
0
LAYER
5
50
100
AcDbSymbolTableRecord
100
AcDbLayerTableRecord
2
0
70
0
6
CONTINUOUS
0
ENDTAB
0
TABLE
2
STYLE
5
3
100
AcDbSymbolTable
70
1
0
STYLE
5
11
100
AcDbSymbolTableRecord
100
AcDbTextStyleTableRecord
2
STANDARD
70
0
0
ENDTAB
0
TABLE
2
VIEW
5
6
100
AcDbSymbolTable
70
0
0
ENDTAB
0
TABLE
2
UCS
5
7
100
AcDbSymbolTable
70
0
0
ENDTAB
0
TABLE
2
APPID
5
9
100
AcDbSymbolTable
70
2
0
APPID
5
12
100
AcDbSymbolTableRecord
100
AcDbRegAppTableRecord
2
ACAD
70
0
0
ENDTAB
0
TABLE
2
DIMSTYLE
5
A
100
AcDbSymbolTable
70
1
0
ENDTAB
0
TABLE
2
BLOCK_RECORD
5
1
100
AcDbSymbolTable
70
1
0
BLOCK_RECORD
5
1F
100
AcDbSymbolTableRecord
100
AcDbBlockTableRecord
2
*MODEL_SPACE
0
BLOCK_RECORD
5
1B
100
AcDbSymbolTableRecord
100
AcDbBlockTableRecord
2
*PAPER_SPACE
0
ENDTAB
0
ENDSEC
0
SECTION
2
BLOCKS
0
BLOCK
5
20
100
AcDbEntity
100
AcDbBlockBegin
2
*MODEL_SPACE
0
ENDBLK
5
21
100
AcDbEntity
100
AcDbBlockEnd
0
BLOCK
5
1C
100
AcDbEntity
100
AcDbBlockBegin
2
*PAPER_SPACE
0
ENDBLK
5
1D
100
AcDbEntity
100
AcDbBlockEnd
0
ENDSEC
0
SECTION
2
ENTITIES
0
LINE
5
100
100
AcDbEntity
8
0
100
AcDbLine
10
14.491146736882794
20
16.351052012655124
30
1.9581886418585435e-14
11
-14.447929952667637
21
16.351052012655131
31
5.6325897576888253e-12
0
SPLINE
5
101
100
AcDbEntity
8
0
100
AcDbSpline
70
0
71
3
72
22
73
18
74
0
42
0.000000001
43
0.0000000001
44
0.0000000001
40
-182.05031900234195
40
-182.05031900234195
40
-182.05031900234195
40
-182.05031900234195
40
-160.63414697476162
40
-160.63414697476162
40
-131.75908086220554
40
-131.75908086220554
40
-118.45813548095551
40
-118.45813548095551
40
-103.5317060327022
40
-103.5317060327022
40
-85.159797888219316
40
-85.159797888219316
40
-66.297055395018617
40
-66.297055395018617
40
-44.787711981596594
40
-44.787711981596594
40
-0
40
-0
40
-0
40
-0
10
-14.447929952667637
20
16.351052012655131
30
5.6325897576888253e-12
10
-15.513604194782586
20
15.296604131701214
30
5.6325897576888253e-12
10
-16.358037195896703
20
14.064567879925461
30
-4.0086918911189901e-12
10
-17.863714145633121
20
10.883430997290658
30
-4.0086918911189901e-12
10
-18.683014258084917
20
8.179606262749088
30
1.3987061727561026e-15
10
-19.0823119544797
20
0.9698803376215186
30
1.3987061727561026e-15
10
-19.050102831246303
20
-1.0905796371942584
30
-5.5948246910244104e-15
10
-18.971703164831276
20
-3.3254977485115234
30
-5.5948246910244104e-15
10
-18.87642393926118
20
-4.5961463754142198
30
4.1961185182683078e-15
10
-18.466157128369804
20
-7.2151876041581673
30
4.1961185182683078e-15
10
-18.146507019431695
20
-8.2631760306823683
30
4.1961185182683078e-15
10
-17.357201690686104
20
-9.9392780341738138
30
4.1961185182683078e-15
10
-16.835675996461674
20
-10.65444149354596
30
-1.3987061727561026e-15
10
-15.353574735488165
20
-11.998079179472995
30
-1.3987061727561026e-15
10
-14.310664758469686
20
-12.626676880240508
30
-1.3987061727561026e-15
10
-10.052184732788541
20
-14.259723593109582
30
-1.3987061727561026e-15
10
-5.8530043874286104
20
-14.878368170713609
30
1.3987061727561026e-15
10
0.021608392109137623
20
-15.067374773039305
30
1.3987061727561026e-15
0
SPLINE
5
102
100
AcDbEntity
8
0
100
AcDbSpline
70
0
71
3
72
26
73
22
74
0
42
0.000000001
43
0.0000000001
44
0.0000000001
40
-113.35117997958056
40
-113.35117997958056
40
-113.35117997958056
40
-113.35117997958056
40
-93.589718223964439
40
-93.589718223964439
40
-84.741741159775856
40
-84.741741159775856
40
-76.466668692641107
40
-76.466668692641107
40
-66.554406097507695
40
-66.554406097507695
40
-56.506795583033806
40
-56.506795583033806
40
-52.987637368885743
40
-52.987637368885743
40
-39.268025201887781
40
-39.268025201887781
40
-25.115000669129159
40
-25.115000669129159
40
-13.481964289505438
40
-13.481964289505438
40
-13.351405104975806
40
-13.351405104975806
40
-13.351405104975806
40
-13.351405104975806
10
0.021608392109147251
20
-15.067374773039305
30
0
10
4.2649815703682661
20
-14.930850788068529
30
0
10
8.5647783387808634
20
-14.544779319321142
30
0
10
13.278541508534994
20
-13.105551530222723
30
0
10
14.447365708490102
20
-12.565428112109515
30
0
10
16.247295983859857
20
-11.319825371394266
30
0
10
16.849751949807303
20
-10.667230820840903
30
0
10
17.823933620647644
20
-9.1933145109292358
30
0
10
18.226421553852997
20
-8.2126755756537104
30
0
10
18.813953010915267
20
-5.6109113600295473
30
0
10
18.983925894478485
20
-4.0270970142412192
30
0
10
19.074564744380524
20
-1.6791664062249321
30
0
10
19.085746759991544
20
-1.0126615517875506
30
0
10
19.100204111661832
20
1.8110317233533411
30
0
10
18.995027036425299
20
4.332340697298692
30
0
10
18.382828464265629
20
8.9310676743656003
30
0
10
17.885666567720858
20
10.881365010030896
30
0
10
16.463940798947267
20
13.967463878045624
30
0
10
15.61189000118333
20
15.23268072119938
30
0
10
14.515544579820309
20
16.326859184249759
30
0
10
14.503355991028291
20
16.338971377079105
30
0
10
14.491146736882794
20
16.351052012655124
30
0
0
LINE
5
103
100
AcDbEntity
8
0
100
AcDbLine
10
-1.1364487653643334e-15
20
1.1090030638288664
30
0
11
21.102936751882481
21
22.211939815711347
31
0
0
LINE
5
104
100
AcDbEntity
8
0
100
AcDbLine
10
-1.1364487653643334e-15
20
1.1090030638288664
30
0
11
-21.081324731240702
21
22.190327795069521
31
0
0
LINE
5
105
100
AcDbEntity
8
0
100
AcDbLine
10
-1.1364487653643334e-15
20
1.1090030638288664
30
0
11
20.057897294566821
21
1.1090030638288484
31
0
0
LINE
5
106
100
AcDbEntity
8
0
100
AcDbLine
10
-1.1364487653643334e-15
20
1.1090030638288664
30
0
11
-20.014680510348537
21
1.1090030638288435
31
0
0
LWPOLYLINE
5
107
100
AcDbEntity
8
0
100
AcDbPolyline
90
4
70
1
43
0.0
10
0.39660858280305472
20
-14.692180060457606
10
-0.35339141719694522
20
-14.692180060457606
10
-0.35339141719694522
20
-13.192180060457604
10
0.39660858280305472
20
-13.192180060457604
0
LWPOLYLINE
5
108
100
AcDbEntity
8
0
100
AcDbPolyline
90
4
70
1
43
0.0
10
13.895640000498258
20
-12.349038074569116
10
13.365897319574479
20
-12.879954915522276
10
12.304063637668122
20
-11.820469553674748
10
12.8338063185919
20
-11.289552712721584
0
LWPOLYLINE
5
109
100
AcDbEntity
8
0
100
AcDbPolyline
90
4
70
1
43
0.0
10
14.866460429738856
20
15.445133407677812
10
14.336130343848945
20
15.975463493567723
10
13.275470172069124
20
14.914803321787904
10
13.805800257959032
20
14.384473235897987
0
LWPOLYLINE
5
110
100
AcDbEntity
8
0
100
AcDbPolyline
90
4
70
1
43
0.0
10
18.70895112356359
20
1.4840030638288495
10
18.70895112356359
20
0.7340030638288495
10
17.208951123563587
20
0.73400306382885028
10
17.208951123563587
20
1.4840030638288559
0
SPLINE
5
111
100
AcDbEntity
8
0
100
AcDbSpline
70
0
71
3
72
44
73
40
74
0
42
0.000000001
43
0.0000000001
44
0.0000000001
40
-113.33239600796162
40
-113.33239600796162
40
-113.33239600796162
40
-113.33239600796162
40
-100.53419690212237
40
-100.53419690212237
40
-100.53419690212237
40
-93.589718223964439
40
-93.589718223964439
40
-93.589718223964439
40
-84.741741159775856
40
-84.741741159775856
40
-84.741741159775856
40
-76.940432674815057
40
-76.940432674815057
40
-76.940432674815057
40
-76.466668692641107
40
-76.466668692641107
40
-76.466668692641107
40
-68.35876662306535
40
-68.35876662306535
40
-68.35876662306535
40
-66.554406097507695
40
-66.554406097507695
40
-66.554406097507695
40
-56.506795583033806
40
-56.506795583033806
40
-56.506795583033806
40
-52.987637368885743
40
-52.987637368885743
40
-52.987637368885743
40
-39.268025201887781
40
-39.268025201887781
40
-39.268025201887781
40
-26.306011028080096
40
-26.306011028080096
40
-26.306011028080096
40
-25.115000669129159
40
-25.115000669129159
40
-25.115000669129159
40
-13.751834089107184
40
-13.751834089107184
40
-13.751834089107184
40
-13.751834089107184
10
0.02160858280405507
20
-14.692180060457575
30
0
10
2.7603817450548487
20
-14.603760071112942
30
0
10
5.5183863903311519
20
-14.41058811035297
30
0
10
7.9904573946937116
20
-14.018621910732817
30
0
10
9.3318370871580694
20
-13.805935665323583
30
0
10
10.588907578693247
20
-13.53467298510612
30
0
10
11.711220347157786
20
-13.192003303523794
30
0
10
13.14154216408649
20
-12.755290886683195
30
0
10
14.274134276444217
20
-12.229271054121789
30
0
10
15.164046460017069
20
-11.613426612799456
30
0
10
15.948593902687442
20
-11.070497557055557
30
0
10
16.495670172965365
20
-10.493452800951729
30
0
10
16.906754597376246
20
-9.8984520646719805
30
0
10
16.931719254817239
20
-9.8623183931526768
30
0
10
16.956178632326854
20
-9.8261136126122981
30
0
10
16.980153624223487
20
-9.7898399558148324
30
0
10
17.390444443432123
20
-9.1690786046830883
30
0
10
17.723071213050282
20
-8.4322976803965108
30
0
10
17.986744013994308
20
-7.4945539106357577
30
0
10
18.045422669656894
20
-7.2858651738054094
30
0
10
18.100629909258888
20
-7.0672919130348486
30
0
10
18.15240597779345
20
-6.8380120664501423
30
0
10
18.440655144075329
20
-5.5615589387051658
30
0
10
18.609807678745824
20
-3.9970195597436287
30
0
10
18.676332547618166
20
-2.2737433267767324
30
0
10
18.699613846663222
20
-1.6706589464989545
30
0
10
18.710768927036057
20
-1.0073720670102684
30
0
10
18.713703028773502
20
-0.43430699025532937
30
0
10
18.725141769360508
20
1.7998155245893224
30
0
10
18.620006005408477
20
4.3076476428363053
30
0
10
18.321966842152364
20
6.5464649198077822
30
0
10
18.040287171176164
20
8.6623925954308483
30
0
10
17.6056624267732
20
10.44455920849825
30
0
10
16.950876767598977
20
11.996270928812388
30
0
10
16.890712005200793
20
12.138849443865565
30
0
10
16.828684754001266
20
12.27949731450277
30
0
10
16.764738335529074
20
12.418303949365173
30
0
10
16.154521921496801
20
13.742883010918987
30
0
10
15.351315642276926
20
14.944111205115505
30
0
10
14.335541824761551
20
15.976052012655126
30
0
0
LINE
5
112
100
AcDbEntity
8
0
100
AcDbLine
10
14.335541824761549
20
15.976052012655121
30
0
11
-14.292323693261494
21
15.976052012655131
31
5.6024084506542099e-12
0
SPLINE
5
113
100
AcDbEntity
8
0
100
AcDbSpline
70
0
71
3
72
44
73
40
74
0
42
0.000000001
43
0.0000000001
44
0.0000000001
40
-181.29691758667019
40
-181.29691758667019
40
-181.29691758667019
40
-181.29691758667019
40
-160.63414697476162
40
-160.63414697476162
40
-160.63414697476162
40
-145.39615807752639
40
-145.39615807752639
40
-145.39615807752639
40
-131.75908086220554
40
-131.75908086220554
40
-131.75908086220554
40
-118.45813548095551
40
-118.45813548095551
40
-118.45813548095551
40
-103.5317060327022
40
-103.5317060327022
40
-103.5317060327022
40
-87.093574470164697
40
-87.093574470164697
40
-87.093574470164697
40
-85.159797888219316
40
-85.159797888219316
40
-85.159797888219316
40
-67.810915870781059
40
-67.810915870781059
40
-67.810915870781059
40
-66.297055395018617
40
-66.297055395018617
40
-66.297055395018617
40
-46.179954960426073
40
-46.179954960426073
40
-46.179954960426073
40
-44.787711981596594
40
-44.787711981596594
40
-44.787711981596594
40
-15.785723579662829
40
-15.785723579662829
40
-15.785723579662829
40
-0.030758375871768603
40
-0.030758375871768603
40
-0.030758375871768603
40
-0.030758375871768603
10
-14.292323693261494
20
15.976052012655131
30
5.5976340203557595e-12
10
-15.273840688403876
20
14.978884771998562
30
4.9661608771250759e-12
10
-16.057904130932638
20
13.822126587844632
30
-4.0086918911189901e-12
10
-16.660268987141215
20
12.549473073939433
30
-4.0086918911189901e-12
10
-17.104856636224788
20
11.610165230838529
30
-4.0086918911189901e-12
10
-17.538113755195155
20
10.432770531961078
30
-2.8919224655251403e-12
10
-17.889992468818914
20
8.8068623380326674
30
-1.8370697542504504e-12
10
-18.204902606926808
20
7.3517729732118537
30
-8.9304046196939803e-13
10
-18.453735321184674
20
5.538087896051862
30
1.3987061727561026e-15
10
-18.581960217423571
20
3.2228570119088453
30
1.3987061727561026e-15
10
-18.7069987960157
20
0.9651583328123533
30
1.3987061727561026e-15
10
-18.675000273125413
20
-1.0869278618642619
30
-5.5948246910244104e-15
10
-18.638390853824401
20
-2.1305426880743443
30
-5.5948246910244104e-15
10
-18.597309261453571
20
-3.3016445438561881
30
-5.5948246910244104e-15
10
-18.502604233090398
20
-4.5594182331560305
30
4.1961185182683078e-15
10
-18.322034290655683
20
-5.7121318121095443
30
4.1961185182683078e-15
10
-18.123136733517573
20
-6.9818443226325826
30
4.1961185182683078e-15
10
-17.853142166703801
20
-7.9253731073724083
30
4.1961185182683086e-15
10
-17.532906616923498
20
-8.6740006887154468
30
4.1961185182683086e-15
10
-17.49523420844352
20
-8.7620689998791583
30
4.1961185182683086e-15
10
-17.45685607619361
20
-8.8474628328788256
30
4.1961185182683078e-15
10
-17.417792745078501
20
-8.93041441721582
30
4.1961185182683078e-15
10
-17.067474102495432
20
-9.6743214419245529
30
4.1961185182683078e-15
10
-16.625712337643687
20
-10.300296208805596
30
-5.3669941650907704e-16
10
-16.046244003004311
20
-10.859519691568982
30
-1.2963796181575657e-15
10
-15.995679695293608
20
-10.90831743696968
30
-1.362669182542113e-15
10
-15.944055329472183
20
-10.956599612973852
30
-1.3987061727561026e-15
10
-15.891335566775668
20
-11.004394093565304
30
-1.3987061727561026e-15
10
-15.190972424207608
20
-11.639326629531586
30
-1.3987061727561026e-15
10
-14.271286819554962
20
-12.21056115012124
30
-1.3987061727561026e-15
10
-13.052192483288312
20
-12.704859955820469
30
-1.3987061727561026e-15
10
-12.9678226937296
20
-12.739068864003636
30
-1.3987061727561026e-15
10
-12.882025478167833
20
-12.772905142747007
30
-1.3987061727561026e-15
10
-12.794777082318289
20
-12.806363255779345
30
-1.3987061727561026e-15
10
-10.977306005634565
20
-13.503329109702362
30
-1.3987061727561026e-15
10
-8.5889594625710348
20
-14.011307237795648
30
-2.257162452800989e-16
10
-5.5418375609024215
20
-14.33206378904401
30
6.0113978007227581e-16
10
-3.8865269364316641
20
-14.506310748727264
30
1.0503189097040577e-15
10
-2.0368601721045145
20
-14.625719185622588
30
1.3973515402610603e-15
10
0.021608582804054501
20
-14.692180060457645
30
1.398702216468043e-15
0
LINE
5
114
100
AcDbEntity
8
0
100
AcDbLine
10
-3.3568948146146463e-14
20
30.89424380294065
30
0
11
2.0281239504963488e-14
21
-18.558787654343814
31
0
0
LWPOLYLINE
5
115
100
AcDbEntity
8
0
100
AcDbPolyline
90
4
70
1
43
0.0
10
-13.365897319574444
20
-12.879954915522307
10
-12.304063637668094
20
-11.820469553674775
10
-12.833806318591876
20
-11.28955271272161
10
-13.895640000498229
20
-12.349038074569146
0
LWPOLYLINE
5
116
100
AcDbEntity
8
0
100
AcDbPolyline
90
4
70
1
43
0.0
10
-17.208951123563594
20
1.4840030638288184
10
-18.708951123563594
20
1.4840030638288086
10
-18.70895112356359
20
0.73400306382880875
10
-17.208951123563587
20
0.73400306382881286
0
LWPOLYLINE
5
117
100
AcDbEntity
8
0
100
AcDbPolyline
90
4
70
1
43
0.0
10
-14.336130343848984
20
15.975463493567689
10
-13.275470172069157
20
14.914803321787875
10
-13.805800257959065
20
14.384473235897959
10
-14.866460429738895
20
15.445133407677778
0
LINE
5
118
100
AcDbEntity
8
0
100
AcDbLine
10
-14.292323693261494
20
15.976052012655131
30
5.6024084506542099e-12
11
-14.447929952667637
21
16.351052012655131
31
3.0505781627810599e-12
0
LINE
5
119
100
AcDbEntity
8
0
100
AcDbLine
10
14.335541824761549
20
15.976052012655121
30
0
11
14.491146736882794
21
16.351052012655124
31
7.2858604538865385e-12
0
SPLINE
5
120
100
AcDbEntity
8
0
100
AcDbSpline
70
0
71
3
72
62
73
58
74
0
42
0.000000001
43
0.0000000001
44
0.0000000001
40
-113.17729020583698
40
-113.17729020583698
40
-113.17729020583698
40
-113.17729020583698
40
-104.36918320902768
40
-104.36918320902768
40
-104.36918320902768
40
-97.867275346316177
40
-97.867275346316177
40
-97.867275346316177
40
-93.589718223964439
40
-93.589718223964439
40
-93.589718223964439
40
-88.246869899838671
40
-88.246869899838671
40
-88.246869899838671
40
-84.741741159775856
40
-84.741741159775856
40
-84.741741159775856
40
-80.184251795425311
40
-80.184251795425311
40
-80.184251795425311
40
-76.466668692641107
40
-76.466668692641107
40
-76.466668692641107
40
-72.012875800403577
40
-72.012875800403577
40
-72.012875800403577
40
-67.165540018246645
40
-67.165540018246645
40
-67.165540018246645
40
-66.554406097507695
40
-66.554406097507695
40
-66.554406097507695
40
-61.218135419819589
40
-61.218135419819589
40
-61.218135419819589
40
-56.506795583033806
40
-56.506795583033806
40
-56.506795583033806
40
-53.275836513278527
40
-53.275836513278527
40
-53.275836513278527
40
-52.987637368885743
40
-52.987637368885743
40
-52.987637368885743
40
-44.5541101293054
40
-44.5541101293054
40
-44.5541101293054
40
-39.268025201887781
40
-39.268025201887781
40
-39.268025201887781
40
-31.784402829400157
40
-31.784402829400157
40
-31.784402829400157
40
-25.115000669129159
40
-25.115000669129159
40
-25.115000669129159
40
-17.913217805889559
40
-17.913217805889559
40
-17.913217805889559
40
-17.913217805889559
10
0.021623866699530286
20
-11.69057193135354
30
0
10
1.8541912796285607
20
-11.62971628450811
30
0
10
3.6770975705998743
20
-11.520221601551173
30
0
10
5.3784755646457345
20
-11.337242105011864
30
0
10
6.6343870744557707
20
-11.202171558333118
30
0
10
7.8240242542153045
20
-11.026746070149303
30
0
10
8.894648106642471
20
-10.807812422199575
30
0
10
9.5990036253624194
20
-10.663777593517882
30
0
10
10.251669155189116
20
-10.500920873694133
30
0
10
10.835170876872802
20
-10.322763451992834
30
0
10
11.566056386254514
20
-10.099606136304788
30
0
10
12.165836973419591
20
-9.8602562679516179
30
0
10
12.648511726851126
20
-9.619177230986617
30
0
10
12.965166261608566
20
-9.4610194451335161
30
0
10
13.231631523918086
20
-9.3024075604490708
30
0
10
13.456882426935845
20
-9.1465275544361333
30
0
10
13.749273150067948
20
-8.9441848909025463
30
0
10
13.95972819645578
20
-8.756693047037194
30
0
10
14.128691087626992
20
-8.5766965698748905
30
0
10
14.266515564877345
20
-8.4298719020449475
30
0
10
14.377271318385185
20
-8.2871788882374986
30
0
10
14.477416435915146
20
-8.1356614387682384
30
0
10
14.59733244668425
20
-7.9542310450515714
30
0
10
14.710988736330718
20
-7.7466155568377628
30
0
10
14.824626847885337
20
-7.4782435173958701
30
0
10
14.948306169686649
20
-7.1861577780736798
30
0
10
15.070832174394415
20
-6.8212775685557068
30
0
10
15.183838336724071
20
-6.3573428359679776
30
0
10
15.19808572996355
20
-6.298851684367345
30
0
10
15.212176428940348
20
-6.2388117621473835
30
0
10
15.226091746638799
20
-6.1771905924181931
30
0
10
15.34727804368567
20
-5.6405415887085368
30
0
10
15.452222018192671
20
-4.9889754346658606
30
0
10
15.530787278889782
20
-4.2587276709679482
30
0
10
15.600151759229471
20
-3.6139992477605554
30
0
10
15.649632571994337
20
-2.9075019100011943
30
0
10
15.678565422783478
20
-2.1580183715580907
30
0
10
15.698250748519841
20
-1.6480849503470822
30
0
10
15.70912840597221
20
-1.0687202353610554
30
0
10
15.712895860365524
20
-0.5548357892717205
30
0
10
15.713231914493496
20
-0.50899767913715799
30
0
10
15.713513366172027
20
-0.46367038719713266
30
0
10
15.713742349829436
20
-0.41894714684940559
30
0
10
15.72044306338028
20
0.88978215735980193
30
0
10
15.684896596860275
20
2.298754734847734
30
0
10
15.591952773755592
20
3.6662770553855886
30
0
10
15.533696135879993
20
4.5234319469445827
30
0
10
15.452861304176372
20
5.3644006758255296
30
0
10
15.348201452268864
20
6.1505869008031224
30
0
10
15.199521749972956
20
7.2674424260919688
30
0
10
15.0084951076694
20
8.2470563756023871
30
0
10
14.773619409019057
20
9.1093723564622735
30
0
10
14.564298252231044
20
9.8778681168478144
30
0
10
14.32099073048564
20
10.553056397492258
30
0
10
14.03997815777541
20
11.163042234132918
30
0
10
13.735862174242289
20
11.823177974189418
30
0
10
13.378761205907038
20
12.427525144942805
30
0
10
12.967200200806293
20
12.976052012655119
30
0
0
LINE
5
121
100
AcDbEntity
8
0
100
AcDbLine
10
12.967200200806259
20
12.976052012655144
30
0
11
-12.923898962524355
21
12.976052012655133
31
5.3369895201448642e-12
0
SPLINE
5
122
100
AcDbEntity
8
0
100
AcDbSpline
70
0
71
3
72
59
73
55
74
0
42
0.000000001
43
0.0000000001
44
0.0000000001
40
-173.46883771844023
40
-173.46883771844023
40
-173.46883771844023
40
-173.46883771844023
40
-166.38224594777793
40
-166.38224594777793
40
-166.38224594777793
40
-160.63414697476162
40
-160.63414697476162
40
-160.63414697476162
40
-151.9851548135872
40
-151.9851548135872
40
-151.9851548135872
40
-142.38493549780125
40
-142.38493549780125
40
-142.38493549780125
40
-131.75908086220554
40
-131.75908086220554
40
-131.75908086220554
40
-123.25189268311709
40
-123.25189268311709
40
-123.25189268311709
40
-118.45813548095551
40
-118.45813548095551
40
-118.45813548095551
40
-108.03942059765728
40
-108.03942059765728
40
-108.03942059765728
40
-103.5317060327022
40
-103.5317060327022
40
-103.5317060327022
40
-94.041146350096739
40
-94.041146350096739
40
-94.041146350096739
40
-85.159797888219316
40
-85.159797888219316
40
-85.159797888219316
40
-75.143416185312262
40
-75.143416185312262
40
-75.143416185312262
40
-66.297055395018617
40
-66.297055395018617
40
-66.297055395018617
40
-55.369073692214329
40
-55.369073692214329
40
-55.369073692214329
40
-44.787711981596594
40
-44.787711981596594
40
-44.787711981596594
40
-28.932995513676204
40
-28.932995513676204
40
-28.932995513676204
40
-9.1708091771488718
40
-9.1708091771488718
40
-9.1708091771488718
40
-0.28530080409703223
40
-0.28530080409703223
40
-0.28530080409703223
40
-0.28530080409703223
10
-12.923898962524355
20
12.976052012655144
30
2.2291236570241534e-12
10
-13.139200455513034
20
12.689080707893561
30
6.9702341394809371e-13
10
-13.339634508207437
20
12.386724339971309
30
-1.0449916791911957e-12
10
-13.525457595112956
20
12.06904806954218
30
-2.297891843897302e-12
10
-13.676183011444438
20
11.811373477453373
30
-3.3141482310443317e-12
10
-13.817286270212751
20
11.543610664212476
30
-4.0086918911189901e-12
10
-13.948667329767748
20
11.2660337681172
30
-4.0086918911189901e-12
10
-14.148227328146277
20
10.844411008167517
30
-4.0086918911189901e-12
10
-14.344680286082017
20
10.364628472214845
30
-3.64891006902961e-12
10
-14.536350983458204
20
9.7663663979554354
30
-3.1448784099105112e-12
10
-14.749101867830744
20
9.1023067001111215
30
-2.5854127080725113e-12
10
-14.955052000560395
20
8.2919301974961748
30
-1.8482227795113469e-12
10
-15.133105576201949
20
7.272724139577444
30
-1.2280619282442826e-12
10
-15.330181429355033
20
6.1446316388826983
30
-5.4164645798357689e-13
10
-15.492143039440437
20
4.7615862944978113
30
1.3987061727561026e-15
10
-15.586550608387727
20
3.0569616409796585
30
1.3987061727561026e-15
10
-15.661986044392965
20
1.694898139109283
30
1.3987061727561026e-15
10
-15.677431113650437
20
0.39317020149056531
30
-1.4621996042463898e-15
10
-15.669188635151814
20
-0.62228087683144651
30
-3.5243819950626568e-15
10
-15.664544040506131
20
-1.1944823866222509
30
-4.6864112672546269e-15
10
-15.652468956515369
20
-1.6766190419600502
30
-5.5948246910244104e-15
10
-15.640235002212552
20
-2.0253690723448301
30
-5.5948246910244104e-15
10
-15.613657107458689
20
-2.7830179382423581
30
-5.5948246910244104e-15
10
-15.562738493721337
20
-3.5729722406875184
30
-8.2457652588063877e-16
10
-15.481033971496659
20
-4.316576175279673
30
2.0566104595286698e-15
10
-15.445684058481447
20
-4.6383005265134631
30
3.303171929341838e-15
10
-15.404645762563236
20
-4.9512132114490806
30
4.1961185182683078e-15
10
-15.358178203823213
20
-5.247850543322909
30
4.1961185182683078e-15
10
-15.26013709194517
20
-5.8737206047168877
30
4.1961185182683078e-15
10
-15.14708542554658
20
-6.3716836162194328
30
4.1961185182683078e-15
10
-15.031036508572136
20
-6.768371968431544
30
4.1961185182683078e-15
10
-14.922436920692975
20
-7.1395963855985318
30
4.1961185182683078e-15
10
-14.812208546358116
20
-7.4218318822347866
30
4.1961185182683078e-15
10
-14.703680764710446
20
-7.6522922954987296
30
4.1961185182683078e-15
10
-14.58200097647463
20
-7.9106811970035373
30
4.1961185182683078e-15
10
-14.456831725901662
20
-8.1164720072116303
30
2.6185125400091736e-15
10
-14.315132611442639
20
-8.3043669321138811
30
1.1387625329637943e-15
10
-14.189985474746978
20
-8.4703137126631916
30
-1.6813678757265857e-16
10
-14.050954546509702
20
-8.6235282264138533
30
-1.3987061727561026e-15
10
-13.87637928409897
20
-8.7817939993284444
30
-1.3987061727561026e-15
10
-13.661747748493559
20
-8.9763738350128097
30
-1.3987061727561026e-15
10
-13.390250939514569
20
-9.1796590773618085
30
-1.3987061727561026e-15
10
-13.030528182081984
20
-9.3897033502535781
30
-1.3987061727561026e-15
10
-12.682215317414739
20
-9.5930853184116316
30
-1.3987061727561026e-15
10
-12.251168085119943
20
-9.8018035535223262
30
-1.3987061727561026e-15
10
-11.720608114321559
20
-10.005263288232161
30
-1.3987061727561026e-15
10
-10.925692101557484
20
-10.310098575429199
30
-1.3987061727561026e-15
10
-9.921620588215589
20
-10.595831093692631
30
-1.0481515540290238e-15
10
-8.7028321101682504
20
-10.838188371054772
30
-5.9523289566591524e-16
10
-7.1836674466614445
20
-11.140275745807571
30
-3.0690291578858685e-17
10
-5.3327289093697745
20
-11.375490807728456
30
6.9289014068658428e-16
10
-3.1417492508976212
20
-11.530133850915234
30
1.0948740326447771e-15
10
-2.1566371904695161
20
-11.599664723242379
30
1.2756147248436211e-15
10
-1.1026503499089217
20
-11.653216539775377
30
1.3913415451621426e-15
10
0.021623866699534568
20
-11.690571931353494
30
1.3983670806117212e-15
0
ENDSEC
0
SECTION
2
OBJECTS
0
DICTIONARY
5
C
100
AcDbDictionary
3
ACAD_GROUP
350
D
3
ACAD_MLINESTYLE
350
17
0
DICTIONARY
5
D
100
AcDbDictionary
0
DICTIONARY
5
1A
330
C
100
AcDbDictionary
0
DICTIONARY
5
17
100
AcDbDictionary
0
ENDSEC
0
EOF
