0
SECTION
2
HEADER
9
$INSUNITS
70
1
9
$ACADVER
1
AC1014
9
$HANDSEED
5
FFFF
0
ENDSEC
0
SECTION
2
TABLES
0
TABLE
2
VPORT
5
8
100
AcDbSymbolTable
0
ENDTAB
0
TABLE
2
LTYPE
5
5
100
AcDbSymbolTable
0
LTYPE
5
14
100
AcDbSymbolTableRecord
100
AcDbLinetypeTableRecord
2
BYBLOCK
70
0
0
LTYPE
5
15
100
AcDbSymbolTableRecord
100
AcDbLinetypeTableRecord
2
BYLAYER
70
0
0
ENDTAB
0
TABLE
2
LAYER
5
2
100
AcDbSymbolTable
70
2
0
LAYER
5
50
100
AcDbSymbolTableRecord
100
AcDbLayerTableRecord
2
0
70
0
6
CONTINUOUS
0
ENDTAB
0
TABLE
2
STYLE
5
3
100
AcDbSymbolTable
70
1
0
STYLE
5
11
100
AcDbSymbolTableRecord
100
AcDbTextStyleTableRecord
2
STANDARD
70
0
0
ENDTAB
0
TABLE
2
VIEW
5
6
100
AcDbSymbolTable
70
0
0
ENDTAB
0
TABLE
2
UCS
5
7
100
AcDbSymbolTable
70
0
0
ENDTAB
0
TABLE
2
APPID
5
9
100
AcDbSymbolTable
70
2
0
APPID
5
12
100
AcDbSymbolTableRecord
100
AcDbRegAppTableRecord
2
ACAD
70
0
0
ENDTAB
0
TABLE
2
DIMSTYLE
5
A
100
AcDbSymbolTable
70
1
0
ENDTAB
0
TABLE
2
BLOCK_RECORD
5
1
100
AcDbSymbolTable
70
1
0
BLOCK_RECORD
5
1F
100
AcDbSymbolTableRecord
100
AcDbBlockTableRecord
2
*MODEL_SPACE
0
BLOCK_RECORD
5
1B
100
AcDbSymbolTableRecord
100
AcDbBlockTableRecord
2
*PAPER_SPACE
0
ENDTAB
0
ENDSEC
0
SECTION
2
BLOCKS
0
BLOCK
5
20
100
AcDbEntity
100
AcDbBlockBegin
2
*MODEL_SPACE
0
ENDBLK
5
21
100
AcDbEntity
100
AcDbBlockEnd
0
BLOCK
5
1C
100
AcDbEntity
100
AcDbBlockBegin
2
*PAPER_SPACE
0
ENDBLK
5
1D
100
AcDbEntity
100
AcDbBlockEnd
0
ENDSEC
0
SECTION
2
ENTITIES
0
SPLINE
5
100
100
AcDbEntity
8
0
100
AcDbSpline
70
0
71
3
72
28
73
24
74
0
42
0.000000001
43
0.0000000001
44
0.0000000001
40
-257.9323024609306
40
-257.9323024609306
40
-257.9323024609306
40
-257.9323024609306
40
-227.76479706187601
40
-227.76479706187601
40
-202.6775893074763
40
-202.6775893074763
40
-170.69051778224639
40
-170.69051778224639
40
-136.67701214641053
40
-136.67701214641053
40
-117.34421509214025
40
-117.34421509214025
40
-84.332103147176795
40
-84.332103147176795
40
-72.285681790047732
40
-72.285681790047732
40
-58.629766490809608
40
-58.629766490809608
40
-45.115360434969944
40
-45.115360434969944
40
-28.325845045010649
40
-28.325845045010649
40
0
40
0
40
0
40
0
10
-1.9699276186620649e-14
20
-18.124713537620515
30
0
10
-1.6505817546258252
20
-18.102815724065792
30
0
10
-3.333846527120206
20
-17.972365631514759
30
0
10
-6.3088130810222678
20
-17.408748463768145
30
0
10
-7.6399639559516439
20
-17.026472036663073
30
0
10
-10.50047247551853
20
-15.755314647258796
30
0
10
-11.914290628156101
20
-14.787204693216927
30
0
10
-14.399319539466093
20
-12.153396516540759
30
0
10
-15.344904878362723
20
-10.548807445099035
30
0
10
-16.42944336223545
20
-7.8426672624418261
30
0
10
-16.741340154947746
20
-6.8201139873613004
30
0
10
-17.388676697183584
20
-4.0378649939991123
30
0
10
-17.61489011865152
20
-2.1384432727756963
30
0
10
-17.590290398632455
20
0.30447579873590375
30
0
10
-17.54855530314174
20
1.179303791685645
30
0
10
-17.177457090073272
20
3.2253125147252337
30
0
10
-16.83513561952158
20
4.284124439606023
30
0
10
-15.745307560309652
20
6.2033300490489873
30
0
10
-15.038793783439129
20
7.0031263088621305
30
0
10
-13.091445391029172
20
8.5082660901153826
30
0
10
-11.73954195085831
20
9.1622109960961566
30
0
10
-7.2680317013645226
20
10.511718744769546
30
0
10
-3.7157634759472962
20
10.874445510040074
30
0
10
0
20
10.981401867748978
30
0
0
SPLINE
5
101
100
AcDbEntity
8
0
100
AcDbSpline
70
0
71
3
72
26
73
22
74
0
42
0.000000001
43
0.0000000001
44
0.0000000001
40
-267.719982061677
40
-267.719982061677
40
-267.719982061677
40
-267.719982061677
40
-210.0995986089527
40
-210.0995986089527
40
-171.09467535764091
40
-171.09467535764091
40
-135.94352495731457
40
-135.94352495731457
40
-106.49634301296325
40
-106.49634301296325
40
-93.709234599202802
40
-93.709234599202802
40
-79.255481876692357
40
-79.255481876692357
40
-56.491425920566634
40
-56.491425920566634
40
-41.231243493217562
40
-41.231243493217562
40
-24.046199978031179
40
-24.046199978031179
40
0
40
0
40
0
40
0
10
0
20
10.981401867748978
30
0
10
5.5369103031203242
20
10.822024726869021
30
0
10
8.6900349188444466
20
10.145587316065221
30
0
10
11.997180997826909
20
9.023836691372221
30
0
10
13.159164460369956
20
8.4477536587628492
30
0
10
15.011243398519209
20
7.0314938211887057
30
0
10
15.726419582038602
20
6.2297919042679855
30
0
10
16.734817304075168
20
4.4663451947004322
30
0
10
17.225823643176895
20
3.294524476931965
30
0
10
17.560946779977463
20
0.87335206379988461
30
0
10
17.610295132684822
20
0.079557325551353766
30
0
10
17.578364171055494
20
-1.9380322872413611
30
0
10
17.477849995687876
20
-3.0321599054029722
30
0
10
17.048874656977645
20
-5.7584838039068194
30
0
10
16.52398067246893
20
-7.970768867869845
30
0
10
14.758896699439871
20
-11.520928495088803
30
0
10
13.855752306011746
20
-12.817168571896799
30
0
10
11.418234614483257
20
-15.17267339351805
30
0
10
9.9170819819581215
20
-16.087126330620745
30
0
10
5.9070539088146798
20
-17.651834270498739
30
0
10
3.1553916167738927
20
-18.082851826061788
30
0
10
1.9699276186620649e-14
20
-18.124713537620515
30
0
0
SPLINE
5
102
100
AcDbEntity
8
0
100
AcDbSpline
70
0
71
3
72
26
73
22
74
0
42
0.000000001
43
0.0000000001
44
0.0000000001
40
-267.719982061677
40
-267.719982061677
40
-267.719982061677
40
-267.719982061677
40
-210.0995986089527
40
-210.0995986089527
40
-171.09467535764091
40
-171.09467535764091
40
-135.94352495731457
40
-135.94352495731457
40
-106.49634301296325
40
-106.49634301296325
40
-93.709234599202802
40
-93.709234599202802
40
-79.255481876692357
40
-79.255481876692357
40
-56.491425920566634
40
-56.491425920566634
40
-41.231243493217562
40
-41.231243493217562
40
-24.046199978031179
40
-24.046199978031179
40
0
40
0
40
0
40
0
10
0
20
10.981401867748978
30
0
10
5.5369103031203242
20
10.822024726869021
30
0
10
8.6900349188444466
20
10.145587316065221
30
0
10
11.997180997826909
20
9.023836691372221
30
0
10
13.159164460369956
20
8.4477536587628492
30
0
10
15.011243398519209
20
7.0314938211887057
30
0
10
15.726419582038602
20
6.2297919042679855
30
0
10
16.734817304075168
20
4.4663451947004322
30
0
10
17.225823643176895
20
3.294524476931965
30
0
10
17.560946779977463
20
0.87335206379988461
30
0
10
17.610295132684822
20
0.079557325551353766
30
0
10
17.578364171055494
20
-1.9380322872413611
30
0
10
17.477849995687876
20
-3.0321599054029722
30
0
10
17.048874656977645
20
-5.7584838039068194
30
0
10
16.52398067246893
20
-7.970768867869845
30
0
10
14.758896699439871
20
-11.520928495088803
30
0
10
13.855752306011746
20
-12.817168571896799
30
0
10
11.418234614483257
20
-15.17267339351805
30
0
10
9.9170819819581215
20
-16.087126330620745
30
0
10
5.9070539088146798
20
-17.651834270498739
30
0
10
3.1553916167738927
20
-18.082851826061788
30
0
10
1.9699276186620649e-14
20
-18.124713537620515
30
0
0
SPLINE
5
103
100
AcDbEntity
8
0
100
AcDbSpline
70
0
71
3
72
28
73
24
74
0
42
0.000000001
43
0.0000000001
44
0.0000000001
40
-257.9323024609306
40
-257.9323024609306
40
-257.9323024609306
40
-257.9323024609306
40
-227.76479706187601
40
-227.76479706187601
40
-202.6775893074763
40
-202.6775893074763
40
-170.69051778224639
40
-170.69051778224639
40
-136.67701214641053
40
-136.67701214641053
40
-117.34421509214025
40
-117.34421509214025
40
-84.332103147176795
40
-84.332103147176795
40
-72.285681790047732
40
-72.285681790047732
40
-58.629766490809608
40
-58.629766490809608
40
-45.115360434969944
40
-45.115360434969944
40
-28.325845045010649
40
-28.325845045010649
40
0
40
0
40
0
40
0
10
-1.9699276186620649e-14
20
-18.124713537620515
30
0
10
-1.6505817546258252
20
-18.102815724065792
30
0
10
-3.333846527120206
20
-17.972365631514759
30
0
10
-6.3088130810222678
20
-17.408748463768145
30
0
10
-7.6399639559516439
20
-17.026472036663073
30
0
10
-10.50047247551853
20
-15.755314647258796
30
0
10
-11.914290628156101
20
-14.787204693216927
30
0
10
-14.399319539466093
20
-12.153396516540759
30
0
10
-15.344904878362723
20
-10.548807445099035
30
0
10
-16.42944336223545
20
-7.8426672624418261
30
0
10
-16.741340154947746
20
-6.8201139873613004
30
0
10
-17.388676697183584
20
-4.0378649939991123
30
0
10
-17.61489011865152
20
-2.1384432727756963
30
0
10
-17.590290398632455
20
0.30447579873590375
30
0
10
-17.54855530314174
20
1.179303791685645
30
0
10
-17.177457090073272
20
3.2253125147252337
30
0
10
-16.83513561952158
20
4.284124439606023
30
0
10
-15.745307560309652
20
6.2033300490489873
30
0
10
-15.038793783439129
20
7.0031263088621305
30
0
10
-13.091445391029172
20
8.5082660901153826
30
0
10
-11.73954195085831
20
9.1622109960961566
30
0
10
-7.2680317013645226
20
10.511718744769546
30
0
10
-3.7157634759472962
20
10.874445510040074
30
0
10
0
20
10.981401867748978
30
0
0
LINE
5
104
100
AcDbEntity
8
0
100
AcDbLine
10
0.37500002726759984
20
9.1062461448054375
30
0
11
-0.37499997273239943
21
9.1062461448054375
31
0
0
LINE
5
105
100
AcDbEntity
8
0
100
AcDbLine
10
-0.37499997273239943
20
9.1062461448054375
30
0
11
-0.37499997273240721
21
10.606246144805436
31
0
0
LINE
5
106
100
AcDbEntity
8
0
100
AcDbLine
10
-0.37499997273240721
20
10.606246144805436
30
0
11
0.37500002726759996
21
10.606246144805437
31
0
0
LINE
5
107
100
AcDbEntity
8
0
100
AcDbLine
10
0.37500002726759996
20
10.606246144805437
30
0
11
0.37500002726759984
21
9.1062461448054375
31
0
0
LINE
5
108
100
AcDbEntity
8
0
100
AcDbLine
10
0.37500002726759984
20
9.1062461448054375
30
0
11
-0.37499997273240721
21
10.606246144805436
31
0
0
LINE
5
109
100
AcDbEntity
8
0
100
AcDbLine
10
-0.37499997273239943
20
9.1062461448054375
30
0
11
0.37500002726759996
21
10.606246144805437
31
0
0
SPLINE
5
110
100
AcDbEntity
8
0
100
AcDbSpline
70
0
71
3
72
44
73
40
74
0
42
0.000000001
43
0.0000000001
44
0.0000000001
40
-267.68236450176227
40
-267.68236450176227
40
-267.68236450176227
40
-267.68236450176227
40
-227.2472443078772
40
-227.2472443078772
40
-227.2472443078772
40
-210.0995986089527
40
-210.0995986089527
40
-210.0995986089527
40
-171.09467535764091
40
-171.09467535764091
40
-171.09467535764091
40
-135.94352495731457
40
-135.94352495731457
40
-135.94352495731457
40
-109.65096396239147
40
-109.65096396239147
40
-109.65096396239147
40
-106.49634301296325
40
-106.49634301296325
40
-106.49634301296325
40
-93.709234599202802
40
-93.709234599202802
40
-93.709234599202802
40
-79.255481876692357
40
-79.255481876692357
40
-79.255481876692357
40
-56.491425920566634
40
-56.491425920566634
40
-56.491425920566634
40
-41.231243493217562
40
-41.231243493217562
40
-41.231243493217562
40
-24.046199978031179
40
-24.046199978031179
40
-24.046199978031179
40
-1.8785064609458821
40
-1.8785064609458821
40
-1.8785064609458821
40
-0.012763900296218463
40
-0.012763900296218463
40
-0.012763900296218463
40
-0.012763900296218463
10
-1.6094837722805127e-07
20
10.606245806864436
30
0
10
3.8647999184808906
20
10.494465593513407
30
0
10
6.5505715020579345
20
10.129634611063295
30
0
10
8.4735360849478933
20
9.6962171663140229
30
0
10
9.2890230972497339
20
9.5124143546330604
30
0
10
9.9674133266655041
20
9.316328736938102
30
0
10
10.541723361922037
20
9.1215285601600939
30
0
10
11.847787367260178
20
8.6785248104352331
30
0
10
12.97156976187819
20
8.1191297668499711
30
0
10
13.905538568559423
20
7.4049363903130772
30
0
10
14.747080535625152
20
6.7614205740923508
30
0
10
15.425906667170059
20
5.9998838756815687
30
0
10
15.949604306296994
20
5.0840618162449811
30
0
10
16.341436499538453
20
4.3988409189994062
30
0
10
16.759679291616173
20
3.4319795287092805
30
0
10
17.006864464140733
20
2.064633548302965
30
0
10
17.036522112316757
20
1.9005773243490056
30
0
10
17.063694566157992
20
1.7307612352098991
30
0
10
17.088024258390412
20
1.5549859061308364
30
0
10
17.186711336767878
20
0.84199893071255005
30
0
10
17.235083539525107
20
0.069154844906926805
30
0
10
17.220353402954462
20
-0.86158350506670778
30
0
10
17.203718506838854
20
-1.9126759839698986
30
0
10
17.104841796287484
20
-2.9901792083550069
30
0
10
16.940812533507994
20
-4.0326561500697693
30
0
10
16.682452673991705
20
-5.6746448516374306
30
0
10
16.164049495399993
20
-7.852381318134503
30
0
10
15.131486375481217
20
-9.9292025668142969
30
0
10
14.439310973130659
20
-11.321393083485269
30
0
10
13.560823554828042
20
-12.580689481611133
30
0
10
12.448708445611929
20
-13.655386297581206
30
0
10
11.196253325519807
20
-14.865701235804798
30
0
10
9.7410158931273987
20
-15.753290306964219
30
0
10
8.1094010349588803
20
-16.389944384400117
30
0
10
6.0046426465048208
20
-17.211218475720194
30
0
10
3.5397858817915244
20
-17.63879720690004
30
0
10
0.71959675723618322
20
-17.732942598610915
30
0
10
0.48223571312445224
20
-17.74086633971049
30
0
10
0.24236779036198447
20
-17.746432604844369
30
0
10
1.9313724082826529e-08
20
-17.749680207515709
30
0
0
SPLINE
5
111
100
AcDbEntity
8
0
100
AcDbSpline
70
0
71
3
72
44
73
40
74
0
42
0.000000001
43
0.0000000001
44
0.0000000001
40
-257.90169285521989
40
-257.90169285521989
40
-257.90169285521989
40
-257.90169285521989
40
-227.76479706187601
40
-227.76479706187601
40
-227.76479706187601
40
-202.6775893074763
40
-202.6775893074763
40
-202.6775893074763
40
-170.69051778224639
40
-170.69051778224639
40
-170.69051778224639
40
-136.67701214641053
40
-136.67701214641053
40
-136.67701214641053
40
-117.34421509214025
40
-117.34421509214025
40
-117.34421509214025
40
-84.332103147176795
40
-84.332103147176795
40
-84.332103147176795
40
-72.285681790047732
40
-72.285681790047732
40
-72.285681790047732
40
-58.629766490809608
40
-58.629766490809608
40
-58.629766490809608
40
-45.115360434969944
40
-45.115360434969944
40
-45.115360434969944
40
-29.524473562654151
40
-29.524473562654151
40
-29.524473562654151
40
-28.325845045010649
40
-28.325845045010649
40
-28.325845045010649
40
-8.3353801477506657
40
-8.3353801477506657
40
-8.3353801477506657
40
-0.027548655809944252
40
-0.027548655809944252
40
-0.027548655809944252
40
-0.027548655809944252
10
1.9313721242387577e-08
20
-17.749680207515716
30
0
10
-1.6326089475931778
20
-17.727803754253245
30
0
10
-3.293174692098066
20
-17.598400519716808
30
0
10
-4.8882905302043778
20
-17.296200594234609
30
0
10
-6.2161731460251284
20
-17.04462887889979
30
0
10
-7.5194324206908343
20
-16.669674528435657
30
0
10
-8.7450269708134538
20
-16.125042845591427
30
0
10
-10.307746650709538
20
-15.430598953857039
30
0
10
-11.67711511847935
20
-14.492143714747893
30
0
10
-12.845898922691761
20
-13.253384549294738
30
0
10
-14.08855605467844
20
-11.93632924255944
30
0
10
-15.01086774868768
20
-10.374249529244388
30
0
10
-15.688318326467066
20
-8.6838749989217963
30
0
10
-16.073356965112183
20
-7.7231266737978528
30
0
10
-16.37996530085249
20
-6.7185031241771673
30
0
10
-16.615179809729003
20
-5.7075524241200704
30
0
10
-17.016825142078673
20
-3.9812829356731085
30
0
10
-17.239564098611826
20
-2.1079553119372836
30
0
10
-17.22188615729052
20
-0.35241581939786087
30
0
10
-17.215436303730613
20
0.28809839205402415
30
0
10
-17.174308010724658
20
1.1414208871059854
30
0
10
-17.005645524286752
20
2.0713227469078177
30
0
10
-16.814448610572683
20
3.1254656651467299
30
0
10
-16.483986033470504
20
4.1430783591007181
30
0
10
-15.961291400753497
20
5.0635524308195228
30
0
10
-15.443891552346749
20
5.9747022979877649
30
0
10
-14.773288778086284
20
6.7343834696544125
30
0
10
-13.941021681055675
20
7.3776573292531387
30
0
10
-12.980810184870336
20
8.1198216625374755
30
0
10
-11.784409668133549
20
8.7212684893253059
30
0
10
-10.311691581258893
20
9.1977423286197464
30
0
10
-10.198468907537116
20
9.2343736720684326
30
0
10
-10.083622199599588
20
9.2702636506807394
30
0
10
-9.9671372605086184
20
9.3054189604387361
30
0
10
-8.0249409600919144
20
9.8915763906165708
30
0
10
-5.6957546087323792
20
10.246462984228016
30
0
10
-3.1939542778693015
20
10.440832900883786
30
0
10
-2.1542318060752188
20
10.521611038009553
30
0
10
-1.0845828543790113
20
10.574878679123053
30
0
10
-1.6094837702179674e-07
20
10.606245806864431
30
0
0
SPLINE
5
112
100
AcDbEntity
8
0
100
AcDbSpline
70
0
71
3
72
20
73
16
74
0
42
0.000000001
43
0.0000000001
44
0.0000000001
40
-266.56425373212483
40
-266.56425373212483
40
-266.56425373212483
40
-266.56425373212483
40
-244.15395120465953
40
-244.15395120465953
40
-244.15395120465953
40
-227.12677490680613
40
-227.12677490680613
40
-227.12677490680613
40
-213.13392459706077
40
-213.13392459706077
40
-213.13392459706077
40
-210.0995986089527
40
-210.0995986089527
40
-210.0995986089527
40
-206.86560000849684
40
-206.86560000849684
40
-206.86560000849684
40
-206.86560000849684
10
-0.00012091363235240386
20
0.97665240441551815
30
0
10
1.8381974195354207
20
0.91587649910858826
30
0
10
3.2784296935026056
20
0.79090115263718785
30
0
10
4.3850849058312038
20
0.64642085940473881
30
0
10
5.2259130641375835
20
0.53664583867846971
30
0
10
5.8737076781424244
20
0.41610722728627048
30
0
10
6.3677529623743281
20
0.30438603572262929
30
0
10
6.7737569637168269
20
0.21257410621476944
30
0
10
7.0757010254373673
20
0.12717475564404082
30
0
10
7.3080456434997689
20
0.053232611984052838
30
0
10
7.3584291820339294
20
0.037198382848644865
30
0
10
7.4056019163781395
20
0.02166218032381231
30
0
10
7.4500290499826498
20
0.0065929442864636478
30
0
10
7.4967355105779383
20
-0.0092494164979393303
30
0
10
7.5408365190821112
20
-0.024737532486507154
30
0
10
7.5822169829018717
20
-0.039740228725264892
30
0
0
SPLINE
5
113
100
AcDbEntity
8
0
100
AcDbSpline
70
0
71
3
72
50
73
46
74
0
42
0.000000001
43
0.0000000001
44
0.0000000001
40
-101.26287713346798
40
-101.26287713346798
40
-101.26287713346798
40
-101.26287713346798
40
-99.503842252363071
40
-99.503842252363071
40
-99.503842252363071
40
-93.709234599202802
40
-93.709234599202802
40
-93.709234599202802
40
-81.75177074582794
40
-81.75177074582794
40
-81.75177074582794
40
-79.255481876692357
40
-79.255481876692357
40
-79.255481876692357
40
-68.644220575459428
40
-68.644220575459428
40
-68.644220575459428
40
-59.725234429227669
40
-59.725234429227669
40
-59.725234429227669
40
-56.491425920566634
40
-56.491425920566634
40
-56.491425920566634
40
-48.746760038601899
40
-48.746760038601899
40
-48.746760038601899
40
-41.231243493217562
40
-41.231243493217562
40
-41.231243493217562
40
-33.805965515366466
40
-33.805965515366466
40
-33.805965515366466
40
-26.176123118050953
40
-26.176123118050953
40
-26.176123118050953
40
-24.046199978031179
40
-24.046199978031179
40
-24.046199978031179
40
-15.203079813651227
40
-15.203079813651227
40
-15.203079813651227
40
-4.7750448567924622
40
-4.7750448567924622
40
-4.7750448567924622
40
-0.46067105507355993
40
-0.46067105507355993
40
-0.46067105507355993
40
-0.46067105507355993
10
7.58221698290187
20
-0.039740228725242598
30
0
10
7.5848213307870305
20
-0.076369493843824313
30
0
10
7.5872248405286014
20
-0.11584019558477644
30
0
10
7.5893347503636877
20
-0.15860322405665939
30
0
10
7.5962852092824944
20
-0.29947306962779147
30
0
10
7.600226483973616
20
-0.47751376753191654
30
0
10
7.5965585706924106
20
-0.7092745213323387
30
0
10
7.5893235398027672
20
-1.166427153959992
30
0
10
7.5498657528995681
20
-1.6910548044182108
30
0
10
7.4801216508107853
20
-2.2116401636221776
30
0
10
7.4655615879189421
20
-2.3203196840916487
30
0
10
7.4497465753910159
20
-2.4288508387688501
30
0
10
7.4327911533332802
20
-2.536609882690136
30
0
10
7.3604603350619326
20
-2.9963035309180586
30
0
10
7.253182670868199
20
-3.5243521539073246
30
0
10
7.1101248678102742
20
-4.0398332302956508
30
0
10
6.9898818045812376
20
-4.473105811983741
30
0
10
6.8443288142721022
20
-4.8967380891843542
30
0
10
6.6870403205653766
20
-5.2657392492607435
30
0
10
6.630011319631433
20
-5.3995301388973393
30
0
10
6.571592180977607
20
-5.5262270875642621
30
0
10
6.5129399880980596
20
-5.6441957793605493
30
0
10
6.3727006236847412
20
-5.9262628862487317
30
0
10
6.2364493225233355
20
-6.1483040521048187
30
0
10
6.1098357455038936
20
-6.3245845875424269
30
0
10
5.9869684136573564
20
-6.4956493307995586
30
0
10
5.8738802338292473
20
-6.6242247369607643
30
0
10
5.7602397761399464
20
-6.7340416408333841
30
0
10
5.6472487190454697
20
-6.8432309938834637
30
0
10
5.5330629663043744
20
-6.935447822012474
30
0
10
5.3894262856859498
20
-7.0308297869027987
30
0
10
5.2418324529888896
20
-7.1288394993782473
30
0
10
5.0619825888305927
20
-7.2299308606124821
30
0
10
4.8238440382673806
20
-7.3349608823737684
30
0
10
4.7573660190682139
20
-7.3642807375027362
30
0
10
4.6864245644120857
20
-7.3938078781103647
30
0
10
4.6106559712624273
20
-7.4233726884139797
30
0
10
4.2953170298907022
20
-7.5464175490277077
30
0
10
3.8924281278309865
20
-7.6714996640320754
30
0
10
3.3858093838452739
20
-7.7810011651216291
30
0
10
2.7883915184448984
20
-7.9101281542345765
30
0
10
2.047300960922414
20
-8.0163379500366592
30
0
10
1.1653759661122916
20
-8.0752549203406456
30
0
10
0.80049858428233678
20
-8.0996305418463042
30
0
10
0.41175127332052297
20
-8.1160657002979466
30
0
10
1.9120721980933246e-05
20
-8.1235146136182639
30
0
0
SPLINE
5
114
100
AcDbEntity
8
0
100
AcDbSpline
70
0
71
3
72
53
73
49
74
0
42
0.000000001
43
0.0000000001
44
0.0000000001
40
-256.83061139349093
40
-256.83061139349093
40
-256.83061139349093
40
-256.83061139349093
40
-237.16230760992943
40
-237.16230760992943
40
-237.16230760992943
40
-227.76479706187601
40
-227.76479706187601
40
-227.76479706187601
40
-211.3984392288454
40
-211.3984392288454
40
-211.3984392288454
40
-202.6775893074763
40
-202.6775893074763
40
-202.6775893074763
40
-188.2923175987892
40
-188.2923175987892
40
-188.2923175987892
40
-174.03904649970329
40
-174.03904649970329
40
-174.03904649970329
40
-170.69051778224639
40
-170.69051778224639
40
-170.69051778224639
40
-156.2808488533866
40
-156.2808488533866
40
-156.2808488533866
40
-140.2457785556854
40
-140.2457785556854
40
-140.2457785556854
40
-136.67701214641053
40
-136.67701214641053
40
-136.67701214641053
40
-118.64202882933857
40
-118.64202882933857
40
-118.64202882933857
40
-117.34421509214025
40
-117.34421509214025
40
-117.34421509214025
40
-100.54942317866639
40
-100.54942317866639
40
-100.54942317866639
40
-84.332103147176795
40
-84.332103147176795
40
-84.332103147176795
40
-79.244474864609771
40
-79.244474864609771
40
-79.244474864609771
40
-78.839394919627352
40
-78.839394919627352
40
-78.839394919627352
40
-78.839394919627352
10
1.9120721986265813e-05
20
-8.1235146136182124
30
0
10
-0.78710147939834141
20
-8.1092670621261007
30
0
10
-1.5340174666396718
20
-8.0603133786883419
30
0
10
-2.2006271352925011
20
-7.9780241308400912
30
0
10
-2.5191330655209696
20
-7.9387063491363312
30
0
10
-2.8192368412235855
20
-7.8919794759115787
30
0
10
-3.096672146320012
20
-7.8394184477258095
30
0
10
-3.5805692003561225
20
-7.747742564271241
30
0
10
-4.0010245865082927
20
-7.6367892165012794
30
0
10
-4.3465245267543509
20
-7.5194804295773299
30
0
10
-4.5306249330553126
20
-7.4569721833530567
30
0
10
-4.6936668086060873
20
-7.3928321478537535
30
0
10
-4.8364057270297227
20
-7.3294015970727857
30
0
10
-5.0723796999199626
20
-7.2245391024167898
30
0
10
-5.2492584298674183
20
-7.1243600357561601
30
0
10
-5.394418145917931
20
-7.0275337993299782
30
0
10
-5.5382458627267024
20
-6.93159604957909
30
0
10
-5.6520713584828028
20
-6.8391390567816064
30
0
10
-5.7652694424676341
20
-6.7291618908487472
30
0
10
-5.7918631297938106
20
-6.7033248955491676
30
0
10
-5.8183889782074507
20
-6.6764362968720983
30
0
10
-5.8451386541353818
20
-6.6480851115551909
30
0
10
-5.958317511104033
20
-6.5281302098016489
30
0
10
-6.0779233860277557
20
-6.379610021747216
30
0
10
-6.2064629294322344
20
-6.1833425366107866
30
0
10
-6.3495016504952257
20
-5.9649362056358601
30
0
10
-6.5026047345425759
20
-5.68690282462879
30
0
10
-6.653714500595151
20
-5.3426841194740726
30
0
10
-6.6873455010952938
20
-5.2660747794715936
30
0
10
-6.720857784580244
20
-5.1862668350060144
30
0
10
-6.7541028307747979
20
-5.1033138031687999
30
0
10
-6.9217425962297714
20
-4.6850190978587598
30
0
10
-7.081919611400453
20
-4.1832463020668804
30
0
10
-7.2127664396348488
20
-3.6434826742921755
30
0
10
-7.2221822959273618
20
-3.6046407946713108
30
0
10
-7.2314540568557861
20
-3.565605486643507
30
0
10
-7.2405770214346035
20
-3.5263950337186283
30
0
10
-7.3586357900726922
20
-3.018979078076133
30
0
10
-7.4556133308065435
20
-2.4593503624743343
30
0
10
-7.5168858682761357
20
-1.9156739048703701
30
0
10
-7.5760516117045276
20
-1.3906912107128719
30
0
10
-7.6017080200381493
20
-0.8797192103856295
30
0
10
-7.5973741124158787
20
-0.44933278418193939
30
0
10
-7.5960256335050369
20
-0.31541968085095784
30
0
10
-7.5918115095626142
20
-0.18854654528623568
30
0
10
-7.5839088590827872
20
-0.06821990090645913
30
0
10
-7.5832796454209799
20
-0.058639422974866684
30
0
10
-7.5826285326109533
20
-0.049118177026572007
30
0
10
-7.5819540662877518
20
-0.039637584439336182
30
0
0
SPLINE
5
115
100
AcDbEntity
8
0
100
AcDbSpline
70
0
71
3
72
17
73
13
74
0
42
0.000000001
43
0.0000000001
44
0.0000000001
40
-31.519011647908936
40
-31.519011647908936
40
-31.519011647908936
40
-31.519011647908936
40
-28.325845045010649
40
-28.325845045010649
40
-28.325845045010649
40
-20.544657556927341
40
-20.544657556927341
40
-20.544657556927341
40
-11.216190025832484
40
-11.216190025832484
40
-11.216190025832484
40
-0.83980807094426302
40
-0.83980807094426302
40
-0.83980807094426302
40
-0.83980807094426302
10
-7.5819540662877518
20
-0.039637584439341518
30
0
10
-7.4700618785434854
20
0.00094199808748856998
30
0
10
-7.3382500796190611
20
0.045029897218542114
30
0
10
-7.1861897752306927
20
0.090921899604305981
30
0
10
-6.8209817339535341
20
0.20114217286369193
30
0
10
-6.3322589498989634
20
0.32153604796901625
30
0
10
-5.7521086422417227
20
0.43094263454743253
30
0
10
-5.0565961235646615
20
0.56210459307210392
30
0
10
-4.2301365477140811
20
0.67812943165790229
30
0
10
-3.3176025793308206
20
0.76830477884922332
30
0
10
-2.3025590074695303
20
0.86860998356294805
30
0
10
-1.1810092894217634
20
0.93767024923835862
30
0
10
-0.00012091363235572579
20
0.97665240441553347
30
0
0
LINE
5
116
100
AcDbEntity
8
0
100
AcDbLine
10
-0.00012091363150929
20
0.9766524044154874
30
0
11
1.9120721981043879e-05
21
-8.1235146136182639
31
0
0
LWPOLYLINE
5
117
100
AcDbEntity
8
0
100
AcDbPolyline
90
2
70
1
43
0.0
10
20.036288902457681
20
-2.9079510511737179
10
0
20
-2.9079510511737197
0
LINE
5
118
100
AcDbEntity
8
0
100
AcDbLine
10
0
20
-2.9079510511737197
30
0
11
17.090539785012382
21
-2.9079510511736526
31
0
0
LINE
5
119
100
AcDbEntity
8
0
100
AcDbLine
10
0
20
-2.9079510511737197
30
0
11
21.014824209903107
21
-23.922775261076872
31
0
0
LINE
5
120
100
AcDbEntity
8
0
100
AcDbLine
10
0
20
-2.9079510511737197
30
0
11
0.00026178137481517845
21
-19.91987829367752
31
0
0
LINE
5
121
100
AcDbEntity
8
0
100
AcDbLine
10
-0.00012091363150929
20
0.9766524044154874
30
0
11
1.9120721981043879e-05
21
-8.1235146136182639
31
0
0
LINE
5
122
100
AcDbEntity
8
0
100
AcDbLine
10
17.128349523411135
20
-2.5329510480082296
30
0
11
15.628349523411726
21
-2.5329510480083202
31
0
0
LINE
5
123
100
AcDbEntity
8
0
100
AcDbLine
10
15.628349523411726
20
-2.5329510480083202
30
0
11
15.628349523411682
21
-3.282951048008321
31
0
0
LINE
5
124
100
AcDbEntity
8
0
100
AcDbLine
10
15.628349523411682
20
-3.282951048008321
30
0
11
17.128349523411678
21
-3.2829510606703338
31
0
0
LINE
5
125
100
AcDbEntity
8
0
100
AcDbLine
10
17.128349523411678
20
-3.2829510606703338
30
0
11
17.128349523411135
21
-2.5329510480082296
31
0
0
LINE
5
126
100
AcDbEntity
8
0
100
AcDbLine
10
17.128349523411135
20
-2.5329510480082296
30
0
11
15.628349523411682
21
-3.282951048008321
31
0
0
LINE
5
127
100
AcDbEntity
8
0
100
AcDbLine
10
15.628349523411726
20
-2.5329510480083202
30
0
11
17.128349523411678
21
-3.2829510606703338
31
0
0
LWPOLYLINE
5
128
100
AcDbEntity
8
0
100
AcDbPolyline
90
4
70
1
43
0.0
10
10.242247062006562
20
-13.680528199070281
10
10.772577147896488
20
-13.150198113180343
10
11.833237319676293
20
-14.210858284960194
10
11.302907233786378
20
-14.741188370850102
0
LINE
5
129
100
AcDbEntity
8
0
100
AcDbLine
10
2.4571496054180819e-15
20
20.180062031617542
30
0
11
-3.5929897045744333e-15
21
-29.364556456335837
31
0
0
LWPOLYLINE
5
130
100
AcDbEntity
8
0
100
AcDbPolyline
90
4
70
1
43
0.0
10
-15.628349523411723
20
-2.5329510480083188
10
-17.128349523411135
20
-2.5329510480082251
10
-17.128349523411682
20
-3.2829510606703316
10
-15.628349523411678
20
-3.2829510480083188
0
LWPOLYLINE
5
131
100
AcDbEntity
8
0
100
AcDbPolyline
90
4
70
1
43
0.0
10
-11.302907233786387
20
-14.741188370850081
10
-10.242247062006566
20
-13.680528199070281
10
-10.772577147896497
20
-13.150198113180336
10
-11.833237319676297
20
-14.210858284960175
0
LINE
5
132
100
AcDbEntity
8
0
100
AcDbLine
10
-7.1028047835270834e-16
20
-2.9079510511737197
30
0
11
-21.014824209903111
21
-23.922775261076868
31
0
0
LINE
5
133
100
AcDbEntity
8
0
100
AcDbLine
10
-7.1028047835270834e-16
20
-2.9079510511737197
30
0
11
-20.036288902457681
21
-2.907951051173713
31
0
0
LINE
5
134
100
AcDbEntity
8
0
100
AcDbLine
10
0
20
-2.9079510511737197
30
0
11
-16.543535765403369
21
13.635584714229664
31
0
0
LWPOLYLINE
5
135
100
AcDbEntity
8
0
100
AcDbPolyline
90
4
70
1
43
0.0
10
-11.455744084184724
20
9.0781231189002369
10
-11.986074170073953
20
8.5477930330110095
10
-10.925413998294527
20
7.4871328612307861
10
-10.395083912404541
20
8.017462947120622
0
LINE
5
136
100
AcDbEntity
8
0
100
AcDbLine
10
0
20
-2.9079510511737197
30
0
11
14.641550634562638
21
11.733599583388926
31
0
0
LINE
5
137
100
AcDbEntity
8
0
100
AcDbLine
10
0
20
-2.9079510511737197
30
0
11
20.706279481570885
21
-2.9079510511737197
31
0
0
LWPOLYLINE
5
138
100
AcDbEntity
8
0
100
AcDbPolyline
90
4
70
1
43
0.0
10
11.455805715010996
20
9.0781847497271944
10
11.986135800900884
20
8.547854663837251
10
10.925475629121069
20
7.4871944920574274
10
10.395145543231157
20
8.0175245779473379
0
ENDSEC
0
SECTION
2
OBJECTS
0
DICTIONARY
5
C
100
AcDbDictionary
3
ACAD_GROUP
350
D
3
ACAD_MLINESTYLE
350
17
0
DICTIONARY
5
D
100
AcDbDictionary
0
DICTIONARY
5
1A
330
C
100
AcDbDictionary
0
DICTIONARY
5
17
100
AcDbDictionary
0
ENDSEC
0
EOF
