0
SECTION
2
HEADER
9
$INSUNITS
70
1
9
$ACADVER
1
AC1014
9
$HANDSEED
5
FFFF
0
ENDSEC
0
SECTION
2
TABLES
0
TABLE
2
VPORT
5
8
100
AcDbSymbolTable
0
ENDTAB
0
TABLE
2
LTYPE
5
5
100
AcDbSymbolTable
0
LTYPE
5
14
100
AcDbSymbolTableRecord
100
AcDbLinetypeTableRecord
2
BYBLOCK
70
0
0
LTYPE
5
15
100
AcDbSymbolTableRecord
100
AcDbLinetypeTableRecord
2
BYLAYER
70
0
0
ENDTAB
0
TABLE
2
LAYER
5
2
100
AcDbSymbolTable
70
2
0
LAYER
5
50
100
AcDbSymbolTableRecord
100
AcDbLayerTableRecord
2
0
70
0
6
CONTINUOUS
0
ENDTAB
0
TABLE
2
STYLE
5
3
100
AcDbSymbolTable
70
1
0
STYLE
5
11
100
AcDbSymbolTableRecord
100
AcDbTextStyleTableRecord
2
STANDARD
70
0
0
ENDTAB
0
TABLE
2
VIEW
5
6
100
AcDbSymbolTable
70
0
0
ENDTAB
0
TABLE
2
UCS
5
7
100
AcDbSymbolTable
70
0
0
ENDTAB
0
TABLE
2
APPID
5
9
100
AcDbSymbolTable
70
2
0
APPID
5
12
100
AcDbSymbolTableRecord
100
AcDbRegAppTableRecord
2
ACAD
70
0
0
ENDTAB
0
TABLE
2
DIMSTYLE
5
A
100
AcDbSymbolTable
70
1
0
ENDTAB
0
TABLE
2
BLOCK_RECORD
5
1
100
AcDbSymbolTable
70
1
0
BLOCK_RECORD
5
1F
100
AcDbSymbolTableRecord
100
AcDbBlockTableRecord
2
*MODEL_SPACE
0
BLOCK_RECORD
5
1B
100
AcDbSymbolTableRecord
100
AcDbBlockTableRecord
2
*PAPER_SPACE
0
ENDTAB
0
ENDSEC
0
SECTION
2
BLOCKS
0
BLOCK
5
20
100
AcDbEntity
100
AcDbBlockBegin
2
*MODEL_SPACE
0
ENDBLK
5
21
100
AcDbEntity
100
AcDbBlockEnd
0
BLOCK
5
1C
100
AcDbEntity
100
AcDbBlockBegin
2
*PAPER_SPACE
0
ENDBLK
5
1D
100
AcDbEntity
100
AcDbBlockEnd
0
ENDSEC
0
SECTION
2
ENTITIES
0
LINE
5
100
100
AcDbEntity
8
0
100
AcDbLine
10
-38.254399450667137
20
24
30
-1.3987061727561026e-15
11
-38.254399450101964
21
15.106653242851966
31
-2.8481287878160254e-10
0
SPLINE
5
101
100
AcDbEntity
8
0
100
AcDbSpline
70
0
71
3
72
10
73
6
74
0
42
0.000000001
43
0.0000000001
44
0.0000000001
40
-30.577695200957972
40
-30.577695200957972
40
-30.577695200957972
40
-30.577695200957972
40
-24.732539894824029
40
-24.732539894824029
40
-0
40
-0
40
-0
40
-0
10
-38.254399450101971
20
15.106653242851966
30
0
10
-38.103115923696436
20
14.201690982786889
30
0
10
-37.947624177618458
20
13.315961808737043
30
0
10
-37.091806841114526
20
8.774505179676094
30
0
10
-36.249685803802663
20
5.3876614406993273
30
0
10
-34.981337193979918
20
2.3999999999999986
30
0
0
SPLINE
5
102
100
AcDbEntity
8
0
100
AcDbSpline
70
0
71
3
72
10
73
6
74
0
42
0.000000001
43
0.0000000001
44
0.0000000001
40
-9.0027011745416239
40
-9.0027011745416239
40
-9.0027011745416239
40
-9.0027011745416239
40
-4.4870963967520057
40
-4.4870963967520057
40
-1.6941011057021997
40
-1.6941011057021997
40
-1.6941011057021997
40
-1.6941011057021997
10
-34.981337193979918
20
2.3999999999999986
30
1.3987061727561026e-15
10
-34.677854921510679
20
1.8914814246328477
30
1.3987061727561026e-15
10
-34.361407836067819
20
1.3898686980424586
30
-2.1288307949347882e-12
10
-33.825267422528867
20
0.59488012921272937
30
-2.127432088762032e-12
10
-33.614813296796065
20
0.2952001819657879
30
2.3778004936853745e-14
10
-33.398072999849262
20
8.3922370365366157e-15
30
2.3778004936853745e-14
0
LINE
5
103
100
AcDbEntity
8
0
100
AcDbLine
10
-33.398072999849269
20
1.1299846283600668e-14
30
3.0771535800633644e-14
11
0.13619233097208855
21
1.1189649382048821e-14
31
9.3377624093197415e-12
0
SPLINE
5
104
100
AcDbEntity
8
0
100
AcDbSpline
70
0
71
3
72
10
73
6
74
0
42
0.000000001
43
0.0000000001
44
0.0000000001
40
-6.5218958745351872
40
-6.5218958745351872
40
-6.5218958745351872
40
-6.5218958745351872
40
-3.3756123769716311
40
-3.3756123769716311
40
-0
40
-0
40
-0
40
-0
10
0.13619233097209135
20
1.1189649382048821e-14
30
9.3349649969742283e-12
10
0.27713828483744007
20
0.3886744684951397
30
9.3363637031469841e-12
10
0.41784296252888958
20
0.77235735796229832
30
1.6504732838522011e-13
10
0.71645611830966394
20
1.5752362221847624
30
1.6504732838522011e-13
10
0.87168295025285547
20
1.9863957666160446
30
-1.3987061727561026e-15
10
1.0303492696000172
20
2.4000000000000012
30
0
0
SPLINE
5
105
100
AcDbEntity
8
0
100
AcDbSpline
70
0
71
3
72
10
73
6
74
0
42
0.000000001
43
0.0000000001
44
0.0000000001
40
-25.465082254804905
40
-25.465082254804905
40
-25.465082254804905
40
-25.465082254804905
40
-12.325803223032551
40
-12.325803223032551
40
-7.0574748603785533
40
-7.0574748603785533
40
-7.0574748603785533
40
-7.0574748603785533
10
1.03034926960002
20
2.4000000000000012
30
0
10
1.9941462772607053
20
6.3897687474106339
30
0
10
2.9026683618352123
20
11.623489626839756
30
-1.3987061727561026e-14
10
4.1761841063484892
20
19.926544372246308
30
-1.2588355554804924e-14
10
4.5108272278431905
20
22.229767899138839
30
5.4829281972039224e-12
10
4.7687795630174659
20
24
30
5.4829281972039224e-12
0
LINE
5
106
100
AcDbEntity
8
0
100
AcDbLine
10
4.7687795630174659
20
24
30
5.4829281972039224e-12
11
-38.254399450667137
21
24
31
-1.3987061727561026e-15
0
SPLINE
5
107
100
AcDbEntity
8
0
100
AcDbSpline
70
0
71
3
72
11
73
7
74
0
42
0.000000001
43
0.0000000001
44
0.0000000001
40
-6.5218958745351872
40
-6.5218958745351872
40
-6.5218958745351872
40
-6.5218958745351872
40
-3.3756123769716311
40
-3.3756123769716311
40
-3.3756123769716311
40
-0.30704978682250605
40
-0.30704978682250605
40
-0.30704978682250605
40
-0.30704978682250605
10
-1.6264880072028158
20
0.63920499482686255
30
9.3349649969742283e-12
10
-1.4840219121437921
20
1.0320714252356593
30
9.3363637031469841e-12
10
-1.3415171453062387
20
1.4206698516967762
30
1.6504732838522011e-13
10
-1.1954862352390239
20
1.813302021266068
30
1.6504732838522011e-13
10
-1.0530580511173102
20
2.1962475696693704
30
1.6504732838522011e-13
10
-0.90993448908807062
20
2.5758690222274914
30
2.7504368055357376e-14
10
-0.7641143246578338
20
2.9570780485529746
30
3.5329389768203679e-15
0
SPLINE
5
108
100
AcDbEntity
8
0
100
AcDbSpline
70
0
71
3
72
14
73
10
74
0
42
0.000000001
43
0.0000000001
44
0.0000000001
40
-25.333931358841891
40
-25.333931358841891
40
-25.333931358841891
40
-25.333931358841891
40
-18.369558849291732
40
-18.369558849291732
40
-18.369558849291732
40
-12.325803223032551
40
-12.325803223032551
40
-12.325803223032551
40
-7.0574748603785533
40
-7.0574748603785533
40
-7.0574748603785533
40
-7.0574748603785533
10
-0.76411432465783136
20
2.9570780485529742
30
-4.1518698236137502e-18
10
-0.26665883653121963
20
5.0315148882167415
30
-1.5061874811892069e-16
10
0.22256647777029631
20
7.4756586356213131
30
-4.145439805687354e-15
10
0.70618938695411071
20
10.19370436607074
30
-7.674228946739833e-15
10
1.1258824281232003
20
12.552453004703587
30
-1.0736549234155904e-14
10
1.5417597396354314
20
15.118214358923316
30
-1.34479067915843e-14
10
1.958372171339005
20
17.834439771098154
30
-1.2988670666000822e-14
10
2.3214062740415433
20
20.201345749430406
30
-1.2588355554804924e-14
10
2.6553247881614306
20
22.499464303961908
30
5.4829281972039224e-12
10
2.9133743274773529
20
24.270363481132968
30
5.4829281972039224e-12
0
LINE
5
109
100
AcDbEntity
8
0
100
AcDbLine
10
4.7687795629394181
20
24
30
0
11
2.8739825424096157
21
24
31
-1.1477133384679187e-16
0
LINE
5
110
100
AcDbEntity
8
0
100
AcDbLine
10
-1.6264880072028158
20
0.63920499482686255
30
9.3349649969742283e-12
11
-1.8582844461615924
21
1.1196203429346086e-14
31
6.0536003156884119e-12
0
LINE
5
111
100
AcDbEntity
8
0
100
AcDbLine
10
0.13619233097208855
20
1.1189649382048821e-14
30
6.0536003156884119e-12
11
-1.8582844461615924
21
1.1196203429346086e-14
31
6.0536003156884119e-12
0
SPLINE
5
112
100
AcDbEntity
8
0
100
AcDbSpline
70
0
71
3
72
11
73
7
74
0
42
0.000000001
43
0.0000000001
44
0.0000000001
40
-6.5218958745351872
40
-6.5218958745351872
40
-6.5218958745351872
40
-6.5218958745351872
40
-3.3756123769716311
40
-3.3756123769716311
40
-3.3756123769716311
40
-0.061605707508882356
40
-0.061605707508882356
40
-0.061605707508882356
40
-0.061605707508882356
10
-0.21634373666289011
20
0.12784099896538145
30
9.3349649969742283e-12
10
-0.075093754558806361
20
0.51735385984324367
30
9.3363637031469841e-12
10
0.0659709409618639
20
0.90201985670919393
30
1.6504732838522011e-13
10
0.21042234151451089
20
1.2904052113591324
30
1.6504732838522011e-13
10
0.36257519996791204
20
1.6994974158330423
30
1.6504732838522011e-13
10
0.51540707202701386
20
2.1044248485673749
30
4.6212125880529189e-15
10
0.67151837290220873
20
2.5116030288258999
30
8.9100460760876236e-17
0
SPLINE
5
113
100
AcDbEntity
8
0
100
AcDbSpline
70
0
71
3
72
14
73
10
74
0
42
0.000000001
43
0.0000000001
44
0.0000000001
40
-25.439115298810364
40
-25.439115298810364
40
-25.439115298810364
40
-25.439115298810364
40
-13.623235949398415
40
-13.623235949398415
40
-13.623235949398415
40
-12.325803223032551
40
-12.325803223032551
40
-12.325803223032551
40
-7.0574748603785533
40
-7.0574748603785533
40
-7.0574748603785533
40
-7.0574748603785533
10
0.67151837290220673
20
2.5116030288259008
30
-1.6366421800074963e-19
10
1.5336154395692823
20
6.0855764609835843
30
-4.9778265672845353e-17
10
2.3547760583313391
20
10.676282036951093
30
-1.1364466474895726e-14
10
3.171925441604968
20
15.873538220845715
30
-1.2873976091374024e-14
10
3.2616518445951659
20
16.444218579106806
30
-1.3039726529345483e-14
10
3.351337023194171
20
17.022227443758691
30
-1.308725638245049e-14
10
3.4410336178255987
20
17.607030371331387
30
-1.2988670666000822e-14
10
3.8052285398871
20
19.981504647683128
30
-1.2588355554804924e-14
10
4.1397267399068394
20
22.283707180103452
30
5.4829281972039224e-12
10
4.3976985159094442
20
24.054072696226594
30
5.4829281972039224e-12
0
LWPOLYLINE
5
114
100
AcDbEntity
8
0
100
AcDbPolyline
90
2
70
1
43
0.0
10
4.3898194623137368
20
24
10
4.7687795629394181
20
24
0
LINE
5
115
100
AcDbEntity
8
0
100
AcDbLine
10
-0.21634373666289011
20
0.12784099896538145
30
9.3349649969742283e-12
11
-0.26270302445464544
21
1.1190427810158483e-14
31
6.0536003156884119e-12
0
LINE
5
116
100
AcDbEntity
8
0
100
AcDbLine
10
-0.26270302445464544
20
1.1190427810158483e-14
30
6.0536003156884119e-12
11
-1.8582844461615924
21
1.1196203429346086e-14
31
6.0536003156884119e-12
0
ENDSEC
0
SECTION
2
OBJECTS
0
DICTIONARY
5
C
100
AcDbDictionary
3
ACAD_GROUP
350
D
3
ACAD_MLINESTYLE
350
17
0
DICTIONARY
5
D
100
AcDbDictionary
0
DICTIONARY
5
1A
330
C
100
AcDbDictionary
0
DICTIONARY
5
17
100
AcDbDictionary
0
ENDSEC
0
EOF
