0
SECTION
2
HEADER
9
$INSUNITS
70
1
9
$ACADVER
1
AC1014
9
$HANDSEED
5
FFFF
0
ENDSEC
0
SECTION
2
TABLES
0
TABLE
2
VPORT
5
8
100
AcDbSymbolTable
0
ENDTAB
0
TABLE
2
LTYPE
5
5
100
AcDbSymbolTable
0
LTYPE
5
14
100
AcDbSymbolTableRecord
100
AcDbLinetypeTableRecord
2
BYBLOCK
70
0
0
LTYPE
5
15
100
AcDbSymbolTableRecord
100
AcDbLinetypeTableRecord
2
BYLAYER
70
0
0
ENDTAB
0
TABLE
2
LAYER
5
2
100
AcDbSymbolTable
70
2
0
LAYER
5
50
100
AcDbSymbolTableRecord
100
AcDbLayerTableRecord
2
0
70
0
6
CONTINUOUS
0
ENDTAB
0
TABLE
2
STYLE
5
3
100
AcDbSymbolTable
70
1
0
STYLE
5
11
100
AcDbSymbolTableRecord
100
AcDbTextStyleTableRecord
2
STANDARD
70
0
0
ENDTAB
0
TABLE
2
VIEW
5
6
100
AcDbSymbolTable
70
0
0
ENDTAB
0
TABLE
2
UCS
5
7
100
AcDbSymbolTable
70
0
0
ENDTAB
0
TABLE
2
APPID
5
9
100
AcDbSymbolTable
70
2
0
APPID
5
12
100
AcDbSymbolTableRecord
100
AcDbRegAppTableRecord
2
ACAD
70
0
0
ENDTAB
0
TABLE
2
DIMSTYLE
5
A
100
AcDbSymbolTable
70
1
0
ENDTAB
0
TABLE
2
BLOCK_RECORD
5
1
100
AcDbSymbolTable
70
1
0
BLOCK_RECORD
5
1F
100
AcDbSymbolTableRecord
100
AcDbBlockTableRecord
2
*MODEL_SPACE
0
BLOCK_RECORD
5
1B
100
AcDbSymbolTableRecord
100
AcDbBlockTableRecord
2
*PAPER_SPACE
0
ENDTAB
0
ENDSEC
0
SECTION
2
BLOCKS
0
BLOCK
5
20
100
AcDbEntity
100
AcDbBlockBegin
2
*MODEL_SPACE
0
ENDBLK
5
21
100
AcDbEntity
100
AcDbBlockEnd
0
BLOCK
5
1C
100
AcDbEntity
100
AcDbBlockBegin
2
*PAPER_SPACE
0
ENDBLK
5
1D
100
AcDbEntity
100
AcDbBlockEnd
0
ENDSEC
0
SECTION
2
ENTITIES
0
LINE
5
100
100
AcDbEntity
8
0
100
AcDbLine
10
-0.37500002726759984
20
9.1062461448054375
30
0
11
-0.37500002726759246
21
10.594487347106869
31
0
0
SPLINE
5
101
100
AcDbEntity
8
0
100
AcDbSpline
70
0
71
3
72
14
73
10
74
0
42
0.000000001
43
0.0000000001
44
0.0000000001
40
-266.36144927325711
40
-266.36144927325711
40
-266.36144927325711
40
-266.36144927325711
40
-227.2472443078772
40
-227.2472443078772
40
-227.2472443078772
40
-210.0995986089527
40
-210.0995986089527
40
-210.0995986089527
40
-202.93443888549993
40
-202.93443888549993
40
-202.93443888549993
40
-202.93443888549993
10
-0.37500002726875886
20
10.594487347106828
30
0
10
-4.0394608871945978
20
10.470556151105908
30
0
10
-6.6133899922524941
20
10.115475936615837
30
0
10
-8.4735360849478933
20
9.6962171663140229
30
0
10
-9.2890230972497339
20
9.5124143546330604
30
0
10
-9.9674133266655041
20
9.316328736938102
30
0
10
-10.541723361922037
20
9.1215285601600939
30
0
10
-10.781645823684233
20
9.0401492787700111
30
0
10
-11.015417143428571
20
8.9548423418399672
30
0
10
-11.242990630674635
20
8.8653696653908298
30
0
0
LINE
5
102
100
AcDbEntity
8
0
100
AcDbLine
10
-11.242990630674635
20
8.8653696653908298
30
0
11
-10.395145543231157
21
8.0175245779473379
31
0
0
LINE
5
103
100
AcDbEntity
8
0
100
AcDbLine
10
-10.395145543231157
20
8.0175245779473379
30
0
11
-10.925475629121069
21
7.4871944920574274
31
0
0
LINE
5
104
100
AcDbEntity
8
0
100
AcDbLine
10
-10.925475629121069
20
7.4871944920574274
30
0
11
-11.986135800900884
21
8.547854663837251
31
0
0
SPLINE
5
105
100
AcDbEntity
8
0
100
AcDbSpline
70
0
71
3
72
23
73
19
74
0
42
0.000000001
43
0.0000000001
44
0.0000000001
40
-194.88835570373047
40
-194.88835570373047
40
-194.88835570373047
40
-194.88835570373047
40
-171.09467535764091
40
-171.09467535764091
40
-171.09467535764091
40
-135.94352495731457
40
-135.94352495731457
40
-135.94352495731457
40
-109.65096396239147
40
-109.65096396239147
40
-109.65096396239147
40
-106.49634301296325
40
-106.49634301296325
40
-106.49634301296325
40
-93.709234599202802
40
-93.709234599202802
40
-93.709234599202802
40
-86.107636063219203
40
-86.107636063219203
40
-86.107636063219203
40
-86.107636063219203
10
-11.986135800901058
20
8.5478546638371711
30
0
10
-12.695430538774014
20
8.2186733694253515
30
0
10
-13.335801381891724
20
7.8406067490809725
30
0
10
-13.905538568559423
20
7.4049363903130772
30
0
10
-14.747080535625152
20
6.7614205740923508
30
0
10
-15.425906667170059
20
5.9998838756815687
30
0
10
-15.949604306296994
20
5.0840618162449811
30
0
10
-16.341436499538453
20
4.3988409189994062
30
0
10
-16.759679291616173
20
3.4319795287092805
30
0
10
-17.006864464140733
20
2.064633548302965
30
0
10
-17.036522112316757
20
1.9005773243490056
30
0
10
-17.063694566157992
20
1.7307612352098991
30
0
10
-17.088024258390412
20
1.5549859061308364
30
0
10
-17.186711336767878
20
0.84199893071255005
30
0
10
-17.235083539525107
20
0.069154844906926805
30
0
10
-17.220353402954462
20
-0.86158350506670778
30
0
10
-17.211604685276338
20
-1.4143799450092684
30
0
10
-17.180108068080852
20
-1.9744815373067865
30
0
10
-17.128349523411138
20
-2.5329510480082305
30
0
0
LINE
5
106
100
AcDbEntity
8
0
100
AcDbLine
10
-17.128349523411138
20
-2.53295104800823
30
0
11
-15.628349523411726
21
-2.5329510480083215
31
0
0
LINE
5
107
100
AcDbEntity
8
0
100
AcDbLine
10
-15.628349523411726
20
-2.5329510480083215
30
0
11
-15.628349523411682
21
-3.2829510480083219
31
0
0
LINE
5
108
100
AcDbEntity
8
0
100
AcDbLine
10
-15.628349523411682
20
-3.2829510480083219
30
0
11
-17.046659148392081
21
-3.282951059980757
31
0
0
SPLINE
5
109
100
AcDbEntity
8
0
100
AcDbSpline
70
0
71
3
72
17
73
13
74
0
42
0.000000001
43
0.0000000001
44
0.0000000001
40
-82.69662838427098
40
-82.69662838427098
40
-82.69662838427098
40
-82.69662838427098
40
-79.255481876692357
40
-79.255481876692357
40
-79.255481876692357
40
-56.491425920566634
40
-56.491425920566634
40
-56.491425920566634
40
-41.231243493217562
40
-41.231243493217562
40
-41.231243493217562
40
-38.486739439690318
40
-38.486739439690318
40
-38.486739439690318
40
-38.486739439690318
10
-17.046659148392081
20
-3.282951059980757
30
0
10
-17.015223664247024
20
-3.5342853942964951
30
0
10
-16.979864587019001
20
-3.7844634518768587
30
0
10
-16.940812533507994
20
-4.0326561500697693
30
0
10
-16.682452673991705
20
-5.6746448516374306
30
0
10
-16.164049495399993
20
-7.852381318134503
30
0
10
-15.131486375481217
20
-9.9292025668142969
30
0
10
-14.439310973130659
20
-11.321393083485269
30
0
10
-13.560823554828042
20
-12.580689481611133
30
0
10
-12.448708445611929
20
-13.655386297581206
30
0
10
-12.248687529114617
20
-13.848677298041217
30
0
10
-12.043494636012422
20
-14.033737153411147
30
0
10
-11.833237319676279
20
-14.210858284960178
30
0
0
LINE
5
110
100
AcDbEntity
8
0
100
AcDbLine
10
-11.833237319676279
20
-14.210858284960178
30
0
11
-10.772577147896488
21
-13.150198113180343
31
0
0
LINE
5
111
100
AcDbEntity
8
0
100
AcDbLine
10
-10.772577147896488
20
-13.150198113180343
30
0
11
-10.242247062006562
21
-13.680528199070281
31
0
0
LINE
5
112
100
AcDbEntity
8
0
100
AcDbLine
10
-10.242247062006562
20
-13.680528199070281
30
0
11
-11.240926361260309
21
-14.679207498324031
31
0
0
SPLINE
5
113
100
AcDbEntity
8
0
100
AcDbSpline
70
0
71
3
72
14
73
10
74
0
42
0.000000001
43
0.0000000001
44
0.0000000001
40
-35.96502635585486
40
-35.96502635585486
40
-35.96502635585486
40
-35.96502635585486
40
-24.046199978031179
40
-24.046199978031179
40
-24.046199978031179
40
-1.8785064609458821
40
-1.8785064609458821
40
-1.8785064609458821
40
-0.012763900296218463
40
-0.012763900296218463
40
-0.012763900296218463
40
-0.012763900296218463
10
-11.240926361260307
20
-14.679207498324034
30
0
10
-10.287798910705398
20
-15.386125713445272
30
0
10
-9.2410207595643357
20
-15.948387782871215
30
0
10
-8.1094010349588803
20
-16.389944384400117
30
0
10
-6.0046426465048208
20
-17.211218475720194
30
0
10
-3.5397858817915244
20
-17.63879720690004
30
0
10
-0.71959675723618322
20
-17.732942598610915
30
0
10
-0.48223571312445224
20
-17.74086633971049
30
0
10
-0.24236779036198447
20
-17.746432604844369
30
0
10
-1.9313724082826529e-08
20
-17.749680207515709
30
0
0
SPLINE
5
114
100
AcDbEntity
8
0
100
AcDbSpline
70
0
71
3
72
14
73
10
74
0
42
0.000000001
43
0.0000000001
44
0.0000000001
40
-257.90169285521989
40
-257.90169285521989
40
-257.90169285521989
40
-257.90169285521989
40
-227.76479706187601
40
-227.76479706187601
40
-227.76479706187601
40
-202.6775893074763
40
-202.6775893074763
40
-202.6775893074763
40
-184.33737449443217
40
-184.33737449443217
40
-184.33737449443217
40
-184.33737449443217
10
-1.9313721242387577e-08
20
-17.749680207515716
30
0
10
1.6326089475931778
20
-17.727803754253245
30
0
10
3.293174692098066
20
-17.598400519716808
30
0
10
4.8882905302043778
20
-17.296200594234609
30
0
10
6.2161731460251284
20
-17.04462887889979
30
0
10
7.5194324206908343
20
-16.669674528435657
30
0
10
8.7450269708134538
20
-16.125042845591427
30
0
10
9.6410331775479339
20
-15.726874162347972
30
0
10
10.47347603509445
20
-15.248487836254276
30
0
10
11.240992105497565
20
-14.67927324256126
30
0
0
LINE
5
115
100
AcDbEntity
8
0
100
AcDbLine
10
11.240992105497565
20
-14.67927324256126
30
0
11
10.242247062006566
21
-13.680528199070281
31
0
0
LINE
5
116
100
AcDbEntity
8
0
100
AcDbLine
10
10.242247062006566
20
-13.680528199070281
30
0
11
10.772577147896497
21
-13.150198113180336
31
0
0
LINE
5
117
100
AcDbEntity
8
0
100
AcDbLine
10
10.772577147896497
20
-13.150198113180336
30
0
11
11.833237319676297
21
-14.210858284960175
31
0
0
LINE
5
118
100
AcDbEntity
8
0
100
AcDbLine
10
11.833237319676297
20
-14.210858284960175
30
0
11
11.832484125876636
21
-14.211611478759835
31
0
0
SPLINE
5
119
100
AcDbEntity
8
0
100
AcDbSpline
70
0
71
3
72
17
73
13
74
0
42
0.000000001
43
0.0000000001
44
0.0000000001
40
-179.51873839583726
40
-179.51873839583726
40
-179.51873839583726
40
-179.51873839583726
40
-170.69051778224639
40
-170.69051778224639
40
-170.69051778224639
40
-136.67701214641053
40
-136.67701214641053
40
-136.67701214641053
40
-117.34421509214025
40
-117.34421509214025
40
-117.34421509214025
40
-102.3123851800142
40
-102.3123851800142
40
-102.3123851800142
40
-102.3123851800142
10
11.832484125876633
20
-14.211611478759833
30
0
10
12.185466685114983
20
-13.91428839824701
30
0
10
12.52332230716631
20
-13.595273902657464
30
0
10
12.845898922691761
20
-13.253384549294738
30
0
10
14.08855605467844
20
-11.93632924255944
30
0
10
15.01086774868768
20
-10.374249529244388
30
0
10
15.688318326467066
20
-8.6838749989217963
30
0
10
16.073356965112183
20
-7.7231266737978528
30
0
10
16.37996530085249
20
-6.7185031241771673
30
0
10
16.615179809729003
20
-5.7075524241200704
30
0
10
16.798066149474398
20
-4.9215079148778642
30
0
10
16.943858554287377
20
-4.1049727935666844
30
0
10
17.046749847420323
20
-3.2829510599815208
30
0
0
LINE
5
120
100
AcDbEntity
8
0
100
AcDbLine
10
17.046749847420323
20
-3.2829510599815199
30
0
11
15.628349523411678
21
-3.2829510480083188
31
0
0
LINE
5
121
100
AcDbEntity
8
0
100
AcDbLine
10
15.628349523411678
20
-3.2829510480083188
30
0
11
15.628349523411723
21
-2.5329510480083184
31
0
0
LINE
5
122
100
AcDbEntity
8
0
100
AcDbLine
10
15.628349523411723
20
-2.5329510480083184
30
0
11
17.128349523411135
21
-2.532951048008226
31
0
0
LINE
5
123
100
AcDbEntity
8
0
100
AcDbLine
10
17.128349523411135
20
-2.532951048008226
30
0
11
17.128349523411135
21
-2.5343877697035602
31
0
0
SPLINE
5
124
100
AcDbEntity
8
0
100
AcDbSpline
70
0
71
3
72
20
73
16
74
0
42
0.000000001
43
0.0000000001
44
0.0000000001
40
-97.754514534241821
40
-97.754514534241821
40
-97.754514534241821
40
-97.754514534241821
40
-84.332103147176795
40
-84.332103147176795
40
-84.332103147176795
40
-72.285681790047732
40
-72.285681790047732
40
-72.285681790047732
40
-58.629766490809608
40
-58.629766490809608
40
-58.629766490809608
40
-45.115360434969944
40
-45.115360434969944
40
-45.115360434969944
40
-35.914748650978517
40
-35.914748650978517
40
-35.914748650978517
40
-35.914748650978517
10
17.128349523411295
20
-2.5343877697018811
30
0
10
17.196516801765608
20
-1.7994594538781157
30
0
10
17.229073840444102
20
-1.0662015146114177
30
0
10
17.22188615729052
20
-0.35241581939786087
30
0
10
17.215436303730613
20
0.28809839205402415
30
0
10
17.174308010724658
20
1.1414208871059854
30
0
10
17.005645524286752
20
2.0713227469078177
30
0
10
16.814448610572683
20
3.1254656651467299
30
0
10
16.483986033470504
20
4.1430783591007181
30
0
10
15.961291400753497
20
5.0635524308195228
30
0
10
15.443891552346749
20
5.9747022979877649
30
0
10
14.773288778086284
20
6.7343834696544125
30
0
10
13.941021681055675
20
7.3776573292531387
30
0
10
13.374374428767927
20
7.8156289447485285
30
0
10
12.725474227589077
20
8.2045956156325364
30
0
10
11.986074170073957
20
8.5477930330110166
30
0
0
LINE
5
125
100
AcDbEntity
8
0
100
AcDbLine
10
11.986074170073957
20
8.5477930330110166
30
0
11
10.925413998294527
21
7.4871328612307861
31
0
0
LINE
5
126
100
AcDbEntity
8
0
100
AcDbLine
10
10.925413998294527
20
7.4871328612307861
30
0
11
10.395083912404541
21
8.017462947120622
31
0
0
LINE
5
127
100
AcDbEntity
8
0
100
AcDbLine
10
10.395083912404541
20
8.017462947120622
30
0
11
11.242976163945832
21
8.865355198661458
31
0
0
SPLINE
5
128
100
AcDbEntity
8
0
100
AcDbSpline
70
0
71
3
72
17
73
13
74
0
42
0.000000001
43
0.0000000001
44
0.0000000001
40
-32.950569141401253
40
-32.950569141401253
40
-32.950569141401253
40
-32.950569141401253
40
-29.524473562654151
40
-29.524473562654151
40
-29.524473562654151
40
-28.325845045010649
40
-28.325845045010649
40
-28.325845045010649
40
-8.3353801477506657
40
-8.3353801477506657
40
-8.3353801477506657
40
-0.98662326382687393
40
-0.98662326382687393
40
-0.98662326382687393
40
-0.98662326382687393
10
11.242976163945832
20
8.865355198661458
30
0
10
10.945607459599584
20
8.9822972399738354
30
0
10
10.635321209740232
20
9.0930372577944283
30
0
10
10.311691581258893
20
9.1977423286197464
30
0
10
10.198468907537116
20
9.2343736720684326
30
0
10
10.083622199599588
20
9.2702636506807394
30
0
10
9.9671372605086184
20
9.3054189604387361
30
0
10
8.0249409600919144
20
9.8915763906165708
30
0
10
5.6957546087323792
20
10.246462984228016
30
0
10
3.1939542778693015
20
10.440832900883786
30
0
10
2.2742596885677369
20
10.512285829587189
30
0
10
1.3311493511475465
20
10.562213378514935
30
0
10
0.37499997273240937
20
10.594498303850363
30
0
0
LINE
5
129
100
AcDbEntity
8
0
100
AcDbLine
10
0.37499997273240926
20
10.594498303850363
30
0
11
0.37499997273239943
21
9.1062461448054375
31
0
0
LINE
5
130
100
AcDbEntity
8
0
100
AcDbLine
10
0.37499997273239943
20
9.1062461448054375
30
0
11
-0.37500002726759984
21
9.1062461448054375
31
0
0
LINE
5
131
100
AcDbEntity
8
0
100
AcDbLine
10
-1.9313724027794991e-08
20
-17.749680207515709
30
0
11
-1.9313724027794991e-08
21
-12.821684652663462
31
0
0
LINE
5
132
100
AcDbEntity
8
0
100
AcDbLine
10
-1.9313724027794991e-08
20
-17.749680207515709
30
0
11
8.7770947394207326
21
-17.749680207515709
31
0
0
LINE
5
133
100
AcDbEntity
8
0
100
AcDbLine
10
7.7499999806862752
20
-17.749680207515709
30
0
11
7.7499999806862752
21
-11.412319242920891
31
0
0
LINE
5
134
100
AcDbEntity
8
0
100
AcDbLine
10
-1.9313724027794991e-08
20
-17.749680207515709
30
0
11
-8.4392606388349787
21
-17.749680207515709
31
0
0
LINE
5
135
100
AcDbEntity
8
0
100
AcDbLine
10
-7.7500000193137222
20
-17.749680207515709
30
0
11
-7.7500000193137222
21
-13.221242287856267
31
0
0
ENDSEC
0
SECTION
2
OBJECTS
0
DICTIONARY
5
C
100
AcDbDictionary
3
ACAD_GROUP
350
D
3
ACAD_MLINESTYLE
350
17
0
DICTIONARY
5
D
100
AcDbDictionary
0
DICTIONARY
5
1A
330
C
100
AcDbDictionary
0
DICTIONARY
5
17
100
AcDbDictionary
0
ENDSEC
0
EOF
