0
SECTION
2
HEADER
9
$INSUNITS
70
1
9
$ACADVER
1
AC1014
9
$HANDSEED
5
FFFF
0
ENDSEC
0
SECTION
2
TABLES
0
TABLE
2
VPORT
5
8
100
AcDbSymbolTable
0
ENDTAB
0
TABLE
2
LTYPE
5
5
100
AcDbSymbolTable
0
LTYPE
5
14
100
AcDbSymbolTableRecord
100
AcDbLinetypeTableRecord
2
BYBLOCK
70
0
0
LTYPE
5
15
100
AcDbSymbolTableRecord
100
AcDbLinetypeTableRecord
2
BYLAYER
70
0
0
ENDTAB
0
TABLE
2
LAYER
5
2
100
AcDbSymbolTable
70
2
0
LAYER
5
50
100
AcDbSymbolTableRecord
100
AcDbLayerTableRecord
2
0
70
0
6
CONTINUOUS
0
ENDTAB
0
TABLE
2
STYLE
5
3
100
AcDbSymbolTable
70
1
0
STYLE
5
11
100
AcDbSymbolTableRecord
100
AcDbTextStyleTableRecord
2
STANDARD
70
0
0
ENDTAB
0
TABLE
2
VIEW
5
6
100
AcDbSymbolTable
70
0
0
ENDTAB
0
TABLE
2
UCS
5
7
100
AcDbSymbolTable
70
0
0
ENDTAB
0
TABLE
2
APPID
5
9
100
AcDbSymbolTable
70
2
0
APPID
5
12
100
AcDbSymbolTableRecord
100
AcDbRegAppTableRecord
2
ACAD
70
0
0
ENDTAB
0
TABLE
2
DIMSTYLE
5
A
100
AcDbSymbolTable
70
1
0
ENDTAB
0
TABLE
2
BLOCK_RECORD
5
1
100
AcDbSymbolTable
70
1
0
BLOCK_RECORD
5
1F
100
AcDbSymbolTableRecord
100
AcDbBlockTableRecord
2
*MODEL_SPACE
0
BLOCK_RECORD
5
1B
100
AcDbSymbolTableRecord
100
AcDbBlockTableRecord
2
*PAPER_SPACE
0
ENDTAB
0
ENDSEC
0
SECTION
2
BLOCKS
0
BLOCK
5
20
100
AcDbEntity
100
AcDbBlockBegin
2
*MODEL_SPACE
0
ENDBLK
5
21
100
AcDbEntity
100
AcDbBlockEnd
0
BLOCK
5
1C
100
AcDbEntity
100
AcDbBlockBegin
2
*PAPER_SPACE
0
ENDBLK
5
1D
100
AcDbEntity
100
AcDbBlockEnd
0
ENDSEC
0
SECTION
2
ENTITIES
0
LINE
5
100
100
AcDbEntity
8
0
100
AcDbLine
10
2.7974123455122052e-15
20
15.573649080108126
30
5.6792004957817582e-16
11
2.7974123455122052e-15
21
-13.532466325261353
31
5.6792004957817582e-16
0
SPLINE
5
101
100
AcDbEntity
8
0
100
AcDbSpline
70
0
71
3
72
8
73
4
74
0
42
0.000000001
43
0.0000000001
44
0.0000000001
40
0.83756897602971159
40
0.83756897602971159
40
0.83756897602971159
40
0.83756897602971159
40
0.84015305334441015
40
0.84015305334441015
40
0.84015305334441015
40
0.84015305334441015
10
2.7974123455122052e-15
20
-13.532466325261353
30
5.6792004957817582e-16
10
0.012023567380305144
20
-13.540908266694522
30
5.7874225035872493e-16
10
0.02405768749084709
20
-13.549336745046572
30
5.5723742250685355e-16
10
0.036103794260325152
20
-13.557752787640851
30
5.6792004957817582e-16
0
LINE
5
102
100
AcDbEntity
8
0
100
AcDbLine
10
0.036103794260325159
20
-13.557752787640851
30
5.6792004957817582e-16
11
24
21
-13.557752787640851
31
0
0
LINE
5
103
100
AcDbEntity
8
0
100
AcDbLine
10
24
20
-13.557752787640851
30
0
11
24
21
19.194000156676374
31
5.6792004957817582e-16
0
SPLINE
5
104
100
AcDbEntity
8
0
100
AcDbSpline
70
0
71
3
72
26
73
22
74
0
42
0.000000001
43
0.0000000001
44
0.0000000001
40
-0.42281193526334832
40
-0.42281193526334832
40
-0.42281193526334832
40
-0.42281193526334832
40
-0.41900570158515132
40
-0.41900570158515132
40
-0.41900570158515132
40
-0.34656814136509517
40
-0.34656814136509517
40
-0.34656814136509517
40
-0.25250596520500335
40
-0.25250596520500335
40
-0.25250596520500335
40
-0.17142867936897568
40
-0.17142867936897568
40
-0.17142867936897568
40
-0.12311034340198948
40
-0.12311034340198948
40
-0.12311034340198948
40
-0.065610000000000016
40
-0.065610000000000016
40
-0.065610000000000016
40
-0
40
-0
40
-0
40
-0
10
24
20
19.194000156676374
30
5.6792004957817582e-16
10
23.943450391940679
20
19.189329335491031
30
5.5800164673334976e-16
10
23.886617505471452
20
19.184609579889674
30
-2.734882694630064e-15
10
23.829521039549427
20
19.179842103519803
30
-2.7447774962156158e-15
10
22.742901289356283
20
19.089110848994242
30
-2.9330883952086663e-15
10
21.558562616396625
20
18.980808113662604
30
-3.1168609031341011e-15
10
20.312898317390463
20
18.85572929091099
30
-3.2920360926020104e-15
10
18.695368759885937
20
18.693310978866545
30
-3.5195059229020901e-15
10
16.974671834462654
20
18.502685395010701
30
-3.7324791774467432e-15
10
15.23850323596545
20
18.288056080132961
30
-3.9220686572242601e-15
10
13.742005456876049
20
18.103055445217649
30
-4.0854861016310709e-15
10
12.23474846526199
20
17.900282894907559
30
-4.2315302196575913e-15
10
10.769635974744494
20
17.682752837041427
30
-4.3545096331256585e-15
10
9.8964962683978488
20
17.553114920447243
30
-4.4277997112986062e-15
10
9.0382030849361037
20
17.418239901184695
30
-4.4928981009394194e-15
10
8.2039571166188452
20
17.278706880387617
30
-4.548600166299996e-15
10
7.2111781084025237
20
17.112658185804449
30
-4.6148873805083159e-15
10
6.2526468710627059
20
16.940028407738087
30
-4.6678677547232655e-15
10
5.3396395348202903
20
16.761544865523572
30
-4.7055111247951533e-15
10
4.2978646898931494
20
16.55788859998048
30
-4.7484635901943619e-15
10
3.3157765056526096
20
16.346636826307897
30
-4.7714478180859318e-15
10
2.3999999999999986
20
16.128220064838615
30
-4.7714478180859318e-15
0
SPLINE
5
105
100
AcDbEntity
8
0
100
AcDbSpline
70
0
71
3
72
11
73
7
74
0
42
0.000000001
43
0.0000000001
44
0.0000000001
40
-1
40
-1
40
-1
40
-1
40
-0.84878772839109418
40
-0.84878772839109418
40
-0.84878772839109418
40
-0.7884977722619062
40
-0.7884977722619062
40
-0.7884977722619062
40
-0.7884977722619062
10
2.3999999999999986
20
16.128220064838615
30
5.6792004957817582e-16
10
1.8166483159221658
20
16.000826227518591
30
5.6792004957817582e-16
10
1.2415986656467677
20
15.870107805295277
30
5.6792004957817582e-16
10
0.67451736631542647
20
15.735883737461043
30
5.6792004957817582e-16
10
0.44841596399805106
20
15.682367160564844
30
5.6792004957817582e-16
10
0.22358274335838046
20
15.628293124421857
30
5.6792004957817582e-16
10
2.7974123455122052e-15
20
15.573649080108126
30
5.6792004957817582e-16
0
SPLINE
5
106
100
AcDbEntity
8
0
100
AcDbSpline
70
0
71
3
72
29
73
25
74
0
42
0.000000001
43
0.0000000001
44
0.0000000001
40
-0.42281193526334832
40
-0.42281193526334832
40
-0.42281193526334832
40
-0.42281193526334832
40
-0.41900570158515132
40
-0.41900570158515132
40
-0.41900570158515132
40
-0.34656814136509517
40
-0.34656814136509517
40
-0.34656814136509517
40
-0.25250596520500335
40
-0.25250596520500335
40
-0.25250596520500335
40
-0.17142867936897568
40
-0.17142867936897568
40
-0.17142867936897568
40
-0.12311034340198948
40
-0.12311034340198948
40
-0.12311034340198948
40
-0.065610000000000016
40
-0.065610000000000016
40
-0.065610000000000016
40
-0
40
-0
40
-0
40
8.3296090495240408e-05
40
8.3296090495240408e-05
40
8.3296090495240408e-05
40
8.3296090495240408e-05
10
24.030868711991999
20
18.820272819410345
30
5.6792004957817582e-16
10
23.974430852672395
20
18.815611228322236
30
5.5800164673334976e-16
10
23.917709487979483
20
18.810900734498468
30
-2.734882694630064e-15
10
23.860724437323857
20
18.806142561150097
30
-2.7447774962156158e-15
10
22.77624768706303
20
18.715590244171242
30
-2.9330883952086663e-15
10
21.593929245751564
20
18.607473608561939
30
-3.1168609031341011e-15
10
20.350364170413705
20
18.482605571674004
30
-3.2920360926020104e-15
10
18.735551956129012
20
18.320460111706339
30
-3.5195059229020901e-15
10
17.01757054566524
20
18.130134033351084
30
-3.7324791774467432e-15
10
15.284511406104173
20
17.91588911722453
30
-3.9220686572242601e-15
10
13.790698562723486
20
17.731220400483611
30
-4.0854861016310709e-15
10
12.286351734980844
20
17.528833823905167
30
-4.2315302196575913e-15
10
10.824709732351257
20
17.311819040760916
30
-4.3545096331256585e-15
10
9.9536321139504373
20
17.182487289128865
30
-4.4277997112986062e-15
10
9.0975692257580683
20
17.047960190492816
30
-4.4928981009394194e-15
10
8.265818970421261
20
16.908844593794178
30
-4.548600166299996e-15
10
7.2760139909088757
20
16.743293324700321
30
-4.6148873805083159e-15
10
6.3207748897393392
20
16.57124837412141
30
-4.6678677547232655e-15
10
5.4115862997110096
20
16.393511357508665
30
-4.7055111247951533e-15
10
4.3741813667998271
20
16.190709364811816
30
-4.7484635901943619e-15
10
3.3970015296672327
20
15.98049104921461
30
-4.7714478180859318e-15
10
2.4869989470925384
20
15.763451394028211
30
-4.7714478180859318e-15
10
2.4858363102583856
20
15.763174099982651
30
-4.7714478180859318e-15
10
2.484673673424235
20
15.762896805937093
30
-4.7714478180859318e-15
10
2.483511036589904
20
15.762619511891486
30
-4.7714478180859318e-15
0
SPLINE
5
107
100
AcDbEntity
8
0
100
AcDbSpline
70
0
71
3
72
14
73
10
74
0
42
0.000000001
43
0.0000000001
44
0.0000000001
40
-1.0003026897911327
40
-1.0003026897911327
40
-1.0003026897911327
40
-1.0003026897911327
40
-1
40
-1
40
-1
40
-0.84878772839109418
40
-0.84878772839109418
40
-0.84878772839109418
40
-0.7884977722619062
40
-0.7884977722619062
40
-0.7884977722619062
40
-0.7884977722619062
10
2.483511036589475
20
15.762619511893659
30
5.6792004957817582e-16
10
2.4823433099392789
20
15.762364500752058
30
5.6792004957817582e-16
10
2.4811755832889761
20
15.76210948961044
30
5.6792004957817582e-16
10
2.4800078566386734
20
15.761854478468818
30
5.6792004957817582e-16
10
1.8987093213465267
20
15.634909013047835
30
5.6792004957817582e-16
10
1.3257816417698634
20
15.504672047798174
30
5.6792004957817582e-16
10
0.76089067366657537
20
15.370966415623307
30
5.6792004957817582e-16
10
0.53566309885295804
20
15.317656667416891
30
5.6792004957817582e-16
10
0.31171553947595904
20
15.263795574582307
30
5.6792004957817582e-16
10
0.089030280116319749
20
15.209370877051164
30
5.6792004957817582e-16
0
SPLINE
5
108
100
AcDbEntity
8
0
100
AcDbSpline
70
0
71
3
72
29
73
25
74
0
42
0.000000001
43
0.0000000001
44
0.0000000001
40
-0.42281193526334832
40
-0.42281193526334832
40
-0.42281193526334832
40
-0.42281193526334832
40
-0.41900570158515132
40
-0.41900570158515132
40
-0.41900570158515132
40
-0.34656814136509517
40
-0.34656814136509517
40
-0.34656814136509517
40
-0.25250596520500335
40
-0.25250596520500335
40
-0.25250596520500335
40
-0.17142867936897568
40
-0.17142867936897568
40
-0.17142867936897568
40
-0.12311034340198948
40
-0.12311034340198948
40
-0.12311034340198948
40
-0.065610000000000016
40
-0.065610000000000016
40
-0.065610000000000016
40
-0
40
-0
40
-0
40
0.00041648045088959199
40
0.00041648045088959199
40
0.00041648045088959199
40
0.00041648045088959199
10
24.154343559960001
20
17.325363470346236
30
5.6792004957817582e-16
10
24.09835269559926
20
17.32073879964706
30
5.5800164673334976e-16
10
24.042077418011594
20
17.316065352933645
30
-2.734882694630064e-15
10
23.985538028421569
20
17.311344391671252
30
-2.7447774962156158e-15
10
22.90963327789002
20
17.221507824879247
30
-2.9330883952086663e-15
10
21.735395763171333
20
17.114135588159272
30
-3.1168609031341011e-15
10
20.500227582506682
20
16.990110694726063
30
-3.2920360926020104e-15
10
18.896284741101304
20
16.829056643065496
30
-3.5195059229020901e-15
10
17.189165390475566
20
16.639928586712625
30
-3.7324791774467432e-15
10
15.468544086659058
20
16.427221265590799
30
-3.9220686572242601e-15
10
13.985470986113246
20
16.243880221547457
30
-4.0854861016310709e-15
10
12.492764813856265
20
16.043037539895582
30
-4.2315302196575913e-15
10
11.045004762778316
20
15.828083855638875
30
-4.3545096331256585e-15
10
10.182175496160788
20
15.699976763855355
30
-4.4277997112986062e-15
10
9.3350337890459318
20
15.566841347725276
30
-4.4928981009394194e-15
10
8.5132663856309279
20
15.429395447420413
30
-4.548600166299996e-15
10
7.5353575209342809
20
15.265833880283811
30
-4.6148873805083159e-15
10
6.5932869644458716
20
15.096128239654698
30
-4.6678677547232655e-15
10
5.6993733592738876
20
14.921377325449029
30
-4.7055111247951533e-15
10
4.6794480744265332
20
14.721992424137159
30
-4.7484635901943619e-15
10
3.7219016257257249
20
14.515907940841455
30
-4.7714478180859318e-15
10
2.8349947354626988
20
14.304376710786592
30
-4.7714478180859318e-15
10
2.8291815513141079
20
14.302990240564084
30
-4.7714478180859318e-15
10
2.8233683671655236
20
14.301603770341577
30
-4.7714478180859318e-15
10
2.8175551830171348
20
14.300217300119121
30
-4.7714478180859318e-15
0
SPLINE
5
109
100
AcDbEntity
8
0
100
AcDbSpline
70
0
71
3
72
14
73
10
74
0
42
0.000000001
43
0.0000000001
44
0.0000000001
40
-1.0015134489613675
40
-1.0015134489613675
40
-1.0015134489613675
40
-1.0015134489613675
40
-1
40
-1
40
-1
40
-0.84878772839109418
40
-0.84878772839109418
40
-0.84878772839109418
40
-0.7884977722619062
40
-0.7884977722619062
40
-0.7884977722619062
40
-0.7884977722619062
10
2.8175551830140422
20
14.300217300128379
30
5.6792004957817582e-16
10
2.8117165497405736
20
14.29894224441548
30
5.6792004957817582e-16
10
2.8058779164670331
20
14.297667188702569
30
5.6792004957817582e-16
10
2.8000392831934842
20
14.296392132989652
30
5.6792004957817582e-16
10
2.2269533430439696
20
14.171240155164801
30
5.6792004957817582e-16
10
1.6625135462622471
20
14.042929017809772
30
5.6792004957817582e-16
10
1.1063839030711708
20
13.911297128272375
30
5.6792004957817582e-16
10
0.88465163827258597
20
13.858814694825082
30
5.6792004957817582e-16
10
0.66424672394627349
20
13.805805375224098
30
5.6792004957817582e-16
10
0.44515140058158753
20
13.752258064823309
30
5.6792004957817582e-16
0
LINE
5
110
100
AcDbEntity
8
0
100
AcDbLine
10
0.44515140058159808
20
13.752258064823312
30
5.6792004957817582e-16
11
2.7974123455122052e-15
21
13.64346222264729
31
5.6792004957817582e-16
0
LINE
5
111
100
AcDbEntity
8
0
100
AcDbLine
10
0.089030280116321789
20
15.20937087705116
30
5.6792004957817582e-16
11
2.7974123455122052e-15
21
15.187611708615956
31
5.6792004957817582e-16
0
LINE
5
112
100
AcDbEntity
8
0
100
AcDbLine
10
24
20
18.81772062080988
30
5.6138561088072123e-16
11
24
21
17.312551390945636
31
5.0039378241354444e-16
0
LINE
5
113
100
AcDbEntity
8
0
100
AcDbLine
10
2.7974123455122052e-15
20
15.187611708615956
30
5.6792004957817582e-16
11
2.7974123455122052e-15
21
13.64346222264729
31
5.6792004957817582e-16
0
ENDSEC
0
SECTION
2
OBJECTS
0
DICTIONARY
5
C
100
AcDbDictionary
3
ACAD_GROUP
350
D
3
ACAD_MLINESTYLE
350
17
0
DICTIONARY
5
D
100
AcDbDictionary
0
DICTIONARY
5
1A
330
C
100
AcDbDictionary
0
DICTIONARY
5
17
100
AcDbDictionary
0
ENDSEC
0
EOF
