0
SECTION
2
HEADER
9
$INSUNITS
70
1
9
$ACADVER
1
AC1014
9
$HANDSEED
5
FFFF
0
ENDSEC
0
SECTION
2
TABLES
0
TABLE
2
VPORT
5
8
100
AcDbSymbolTable
0
ENDTAB
0
TABLE
2
LTYPE
5
5
100
AcDbSymbolTable
0
LTYPE
5
14
100
AcDbSymbolTableRecord
100
AcDbLinetypeTableRecord
2
BYBLOCK
70
0
0
LTYPE
5
15
100
AcDbSymbolTableRecord
100
AcDbLinetypeTableRecord
2
BYLAYER
70
0
0
ENDTAB
0
TABLE
2
LAYER
5
2
100
AcDbSymbolTable
70
2
0
LAYER
5
50
100
AcDbSymbolTableRecord
100
AcDbLayerTableRecord
2
0
70
0
6
CONTINUOUS
0
ENDTAB
0
TABLE
2
STYLE
5
3
100
AcDbSymbolTable
70
1
0
STYLE
5
11
100
AcDbSymbolTableRecord
100
AcDbTextStyleTableRecord
2
STANDARD
70
0
0
ENDTAB
0
TABLE
2
VIEW
5
6
100
AcDbSymbolTable
70
0
0
ENDTAB
0
TABLE
2
UCS
5
7
100
AcDbSymbolTable
70
0
0
ENDTAB
0
TABLE
2
APPID
5
9
100
AcDbSymbolTable
70
2
0
APPID
5
12
100
AcDbSymbolTableRecord
100
AcDbRegAppTableRecord
2
ACAD
70
0
0
ENDTAB
0
TABLE
2
DIMSTYLE
5
A
100
AcDbSymbolTable
70
1
0
ENDTAB
0
TABLE
2
BLOCK_RECORD
5
1
100
AcDbSymbolTable
70
1
0
BLOCK_RECORD
5
1F
100
AcDbSymbolTableRecord
100
AcDbBlockTableRecord
2
*MODEL_SPACE
0
BLOCK_RECORD
5
1B
100
AcDbSymbolTableRecord
100
AcDbBlockTableRecord
2
*PAPER_SPACE
0
ENDTAB
0
ENDSEC
0
SECTION
2
BLOCKS
0
BLOCK
5
20
100
AcDbEntity
100
AcDbBlockBegin
2
*MODEL_SPACE
0
ENDBLK
5
21
100
AcDbEntity
100
AcDbBlockEnd
0
BLOCK
5
1C
100
AcDbEntity
100
AcDbBlockBegin
2
*PAPER_SPACE
0
ENDBLK
5
1D
100
AcDbEntity
100
AcDbBlockEnd
0
ENDSEC
0
SECTION
2
ENTITIES
0
LINE
5
100
100
AcDbEntity
8
0
100
AcDbLine
10
115.84999999999999
20
-12.682666972112878
30
0
11
115.84999999999999
21
19.905608153763364
31
0
0
SPLINE
5
101
100
AcDbEntity
8
0
100
AcDbSpline
70
4
71
5
72
20
73
14
74
0
42
0.000000001
43
0.0000000001
44
0.0000000001
40
0
40
0
40
0
40
0
40
0
40
0
40
0.10000000000000001
40
0.20000000000000001
40
0.30000000000000004
40
0.40000000000000002
40
0.5
40
0.59999999999999998
40
0.69999999999999996
40
0.79999999999999993
40
0.82333354329901132
40
0.82333354329901132
40
0.82333354329901132
40
0.82333354329901132
40
0.82333354329901132
40
0.82333354329901132
41
1
41
1
41
1
41
1
41
1
41
1
41
1
41
1
41
1
41
1
41
1
41
1
41
1
41
1
10
70.200000000000003
20
31.224257138620086
30
0
10
71.186711920477549
20
31.159003394174491
30
0
10
73.269718062595047
20
30.97832382901499
30
0
10
76.723000266891376
20
30.556873022237355
30
0
10
81.905200575199359
20
29.70325192587153
30
0
10
88.899161783773238
20
28.215792265372748
30
0
10
95.828471082281879
20
26.402030916518811
30
0
10
102.10571946719674
20
24.412837820749608
30
0
10
107.20528946531624
20
22.411441543036869
30
0
10
110.31667120403044
20
20.974638939316694
30
0
10
111.92591334781866
20
20.137883811563476
30
0
10
112.83414373021414
20
19.832768811719767
30
0
10
113.28974670863313
20
19.739861369236053
30
0
10
113.3743911454077
20
19.724903314270509
30
0
0
SPLINE
5
102
100
AcDbEntity
8
0
100
AcDbSpline
70
4
71
5
72
25
73
19
74
0
42
0.000000001
43
0.0000000001
44
0.0000000001
40
0.092338628499584838
40
0.092338628499584838
40
0.092338628499584838
40
0.092338628499584838
40
0.092338628499584838
40
0.092338628499584838
40
0.13333333333333333
40
0.20000000000000001
40
0.26666666666666666
40
0.33333333333333331
40
0.39999999999999997
40
0.46666666666666662
40
0.53333333333333333
40
0.59999999999999998
40
0.66666666666666663
40
0.73333333333333328
40
0.79999999999999993
40
0.86666666666666659
40
0.93333333333333324
40
0.99934138370186043
40
0.99934138370186043
40
0.99934138370186043
40
0.99934138370186043
40
0.99934138370186043
40
0.99934138370186043
41
1
41
1
41
1
41
1
41
1
41
1
41
1
41
1
41
1
41
1
41
1
41
1
41
1
41
1
41
1
41
1
41
1
41
1
41
1
10
12.398808172830352
20
-24.898430407206344
30
0
10
12.799743995738289
20
-24.917073703364935
30
0
10
13.879577402047113
20
-24.961046364519824
30
0
10
15.742669440106658
20
-25.010953826335928
30
0
10
18.576122556477948
20
-25.031781261208614
30
0
10
22.646537601209687
20
-24.972186208067342
30
0
10
27.573531545161188
20
-24.804849649854141
30
0
10
32.953806042839091
20
-24.539288081260178
30
0
10
38.666360787078567
20
-24.186753561510415
30
0
10
44.523101331145384
20
-23.766619068268774
30
0
10
50.295762744622465
20
-23.302949397455862
30
0
10
55.735053460890349
20
-22.822228250851307
30
0
10
60.59182627325135
20
-22.35092353758445
30
0
10
64.638843230917175
20
-21.913164352749899
30
0
10
67.686809382419199
20
-21.529230981410603
30
0
10
69.246308232870405
20
-21.27405786690079
30
0
10
69.914876604395971
20
-21.113129708078159
30
0
10
70.139767692125147
20
-21.019358733621392
30
0
10
70.197189502284061
20
-20.976006402725229
30
0
0
SPLINE
5
103
100
AcDbEntity
8
0
100
AcDbSpline
70
4
71
5
72
17
73
11
74
0
42
0.000000001
43
0.0000000001
44
0.0000000001
40
-0.98449529677404546
40
-0.98449529677404546
40
-0.98449529677404546
40
-0.98449529677404546
40
-0.98449529677404546
40
-0.98449529677404546
40
-0.89999999999999991
40
-0.79999999999999993
40
-0.69999999999999996
40
-0.59999999999999998
40
-0.5
40
-0.40704412516912925
40
-0.40704412516912925
40
-0.40704412516912925
40
-0.40704412516912925
40
-0.40704412516912925
40
-0.40704412516912925
41
1
41
1
41
1
41
1
41
1
41
1
41
1
41
1
41
1
41
1
41
1
10
8.399999999999995
20
16.762189771535635
30
0
10
9.7311183940076234
20
18.614770866274178
30
0
10
12.544728193004115
20
22.278762174396203
30
0
10
16.59526081754759
20
26.661658984839438
30
0
10
21.85358325059007
20
30.203941546254942
30
0
10
29.973386583422659
20
31.913883432985862
30
0
10
41.360934044694218
20
32.20607759487779
30
0
10
53.2391254545864
20
32.171652235036447
30
0
10
62.055006975354146
20
31.833240745290176
30
0
10
67.602834953955735
20
31.448330465573878
30
0
10
70.199999999999989
20
31.224257138620086
30
0
0
LINE
5
104
100
AcDbEntity
8
0
100
AcDbLine
10
-21.600000000000001
20
-19.570953886224995
30
0
11
-21.600000000000001
21
-19.569219888605954
31
0
0
SPLINE
5
105
100
AcDbEntity
8
0
100
AcDbSpline
70
4
71
5
72
15
73
9
74
0
42
0.000000001
43
0.0000000001
44
0.0000000001
40
0.42249036611220397
40
0.42249036611220397
40
0.42249036611220397
40
0.42249036611220397
40
0.42249036611220397
40
0.42249036611220397
40
0.5
40
0.59999999999999998
40
0.69999999999999996
40
0.70028163718282099
40
0.70028163718282099
40
0.70028163718282099
40
0.70028163718282099
40
0.70028163718282099
40
0.70028163718282099
41
1
41
1
41
1
41
1
41
1
41
1
41
1
41
1
41
1
10
-20.400789616092041
20
-20.144878903278279
30
0
10
-19.437589411284833
20
-20.575623296322227
30
0
10
-17.138925611285963
20
-21.467474602929958
30
0
10
-13.229431600196184
20
-22.559026808741365
30
0
10
-8.8823500326632914
20
-23.309593555512926
30
0
10
-4.1748558107064735
20
-23.826009269790358
30
0
10
-0.61611430314966098
20
-24.108429156217422
30
0
10
1.2047316521486859
20
-24.23020247446949
30
0
10
1.2098457364501098
20
-24.230544315417688
30
0
0
SPLINE
5
106
100
AcDbEntity
8
0
100
AcDbSpline
70
4
71
5
72
19
73
13
74
0
42
0.000000001
43
0.0000000001
44
0.0000000001
40
0
40
0
40
0
40
0
40
0
40
0
40
0.10000000000000001
40
0.20000000000000001
40
0.30000000000000004
40
0.40000000000000002
40
0.5
40
0.59999999999999998
40
0.69999999999999996
40
0.72059795724214082
40
0.72059795724214082
40
0.72059795724214082
40
0.72059795724214082
40
0.72059795724214082
40
0.72059795724214082
41
1
41
1
41
1
41
1
41
1
41
1
41
1
41
1
41
1
41
1
41
1
41
1
41
1
10
-21.600000000000001
20
11.535972852479468
30
0
10
-20.762527201049281
20
11.73571383233249
30
0
10
-18.996655129684179
20
12.125113782449423
30
0
10
-16.075012633252992
20
12.678947533851391
30
0
10
-11.727104000949961
20
13.350890473785709
30
0
10
-6.0519507069096239
20
14.046686074869109
30
0
10
-0.78884277295905403
20
14.563636376587711
30
0
10
3.444487956999903
20
14.875006830086464
30
0
10
5.7238926136575143
20
14.97561351917096
30
0
10
6.6509997392433782
20
14.976433332585598
30
0
10
6.951606049497995
20
14.972909559101453
30
0
10
7.0470403011088347
20
14.974640040986753
30
0
10
7.0615024603628047
20
14.97506838504102
30
0
0
SPLINE
5
107
100
AcDbEntity
8
0
100
AcDbSpline
70
4
71
5
72
12
73
6
74
0
42
0.000000001
43
0.0000000001
44
0.0000000001
40
0.90263039007560364
40
0.90263039007560364
40
0.90263039007560364
40
0.90263039007560364
40
0.90263039007560364
40
0.90263039007560364
40
1
40
1
40
1
40
1
40
1
40
1
41
1
41
1
41
1
41
1
41
1
41
1
10
7.473044111919795
20
15.430221576021172
30
0
10
7.5926457080660796
20
15.582213946672137
30
0
10
7.7468979357188807
20
15.781528617428545
30
0
10
7.9362209083950628
20
16.039575920292311
30
0
10
8.1535192346963203
20
16.366543907122086
30
0
10
8.3999999999999986
20
16.762189771535635
30
0
0
LINE
5
108
100
AcDbEntity
8
0
100
AcDbLine
10
-32.149999999999999
20
-7.2638594132222467
30
0
11
-32.149999999999999
21
8.516043092532982
31
0
0
SPLINE
5
109
100
AcDbEntity
8
0
100
AcDbSpline
70
4
71
5
72
15
73
9
74
0
42
0.000000001
43
0.0000000001
44
0.0000000001
40
0.14066834744036444
40
0.14066834744036444
40
0.14066834744036444
40
0.14066834744036444
40
0.14066834744036444
40
0.14066834744036444
40
0.20000000000000001
40
0.30000000000000004
40
0.40000000000000002
40
0.4027624204171919
40
0.4027624204171919
40
0.4027624204171919
40
0.4027624204171919
40
0.4027624204171919
40
0.4027624204171919
41
1
41
1
41
1
41
1
41
1
41
1
41
1
41
1
41
1
10
-32.149999999999999
20
-7.2638594132222467
30
0
10
-31.87864379517988
20
-7.8253265424650653
30
0
10
-31.10063253721021
20
-9.4225755533773832
30
0
10
-29.603414404586772
20
-12.315845753010628
30
0
10
-27.6385426037806
20
-15.263125986324775
30
0
10
-25.112099813260038
20
-17.520272884291874
30
0
10
-22.852159899007436
20
-18.921094540000535
30
0
10
-21.632830900654064
20
-19.552308537687288
30
0
10
-21.599999999999998
20
-19.569219888605957
30
0
0
SPLINE
5
110
100
AcDbEntity
8
0
100
AcDbSpline
70
4
71
5
72
13
73
7
74
0
42
0.000000001
43
0.0000000001
44
0.0000000001
40
0.077649229006706608
40
0.077649229006706608
40
0.077649229006706608
40
0.077649229006706608
40
0.077649229006706608
40
0.077649229006706608
40
0.20000000000000001
40
0.3867711859636917
40
0.3867711859636917
40
0.3867711859636917
40
0.3867711859636917
40
0.3867711859636917
40
0.3867711859636917
41
1
41
1
41
1
41
1
41
1
41
1
41
1
10
-32.149999999999991
20
8.5160430925329837
30
0
10
-31.393539957471518
20
8.7986197484482034
30
0
10
-29.443061209472475
20
9.4887703800264287
30
0
10
-27.393879417873919
20
10.120231582560917
30
0
10
-25.24735795797989
20
10.698696193496041
30
0
10
-22.998539351950726
20
11.230556240937995
30
0
10
-21.600000000000215
20
11.535972852479418
30
0
0
SPLINE
5
111
100
AcDbEntity
8
0
100
AcDbSpline
70
0
71
3
72
24
73
20
74
0
42
0.000000001
43
0.0000000001
44
0.0000000001
40
0
40
0
40
0
40
0
40
0.68273989270198887
40
0.68273989270198887
40
1.7518134796417328
40
1.7518134796417328
40
4.7446984955438705
40
4.7446984955438705
40
5.4894203181712964
40
5.4894203181712964
40
6.1638733777711137
40
6.1638733777711137
40
6.4778571124083157
40
6.4778571124083157
40
6.6440822559698614
40
6.6440822559698614
40
6.9090833618704295
40
6.9090833618704295
40
7.0154186586382137
40
7.0154186586382137
40
7.0154186586382137
40
7.0154186586382137
10
115.84999999999999
20
19.90560815376336
30
0
10
115.76272025523608
20
19.90282949982376
30
0
10
115.6785259817236
20
19.895436279271877
30
0
10
115.46947458690964
20
19.87343440960197
30
0
10
115.34679620491798
20
19.856823388087825
30
0
10
114.88503325952077
20
19.794877450930851
30
0
10
114.55237455368156
20
19.750428074536448
30
0
10
114.09481805688714
20
19.721754570195934
30
0
10
114.00096942366255
20
19.71734845177599
30
0
10
113.81810658234851
20
19.712603231793864
30
0
10
113.72722331818258
20
19.711942385263903
30
0
10
113.59900881069763
20
19.714003842351662
30
0
10
113.55843170970182
20
19.715123011122376
30
0
10
113.50176622711265
20
19.717328862186616
30
0
10
113.48296104478962
20
19.718185983683515
30
0
10
113.43809836496058
20
19.720495775902677
30
0
10
113.41394231414147
20
19.72202498332328
30
0
10
113.3873835103703
20
19.723909539426572
30
0
10
113.38052484423395
20
19.724423864560116
30
0
10
113.37439114540783
20
19.724903314270509
30
0
0
SPLINE
5
112
100
AcDbEntity
8
0
100
AcDbSpline
70
0
71
3
72
40
73
36
74
0
42
0.000000001
43
0.0000000001
44
0.0000000001
40
0
40
0
40
0
40
0
40
2.1113554430462034
40
2.1113554430462034
40
4.5238006865533702
40
4.5238006865533702
40
7.4580062424128224
40
7.4580062424128224
40
11.056473971919125
40
11.056473971919125
40
15.428481936646314
40
15.428481936646314
40
20.551798668334445
40
20.551798668334445
40
26.198369034342889
40
26.198369034342889
40
31.949643212421094
40
31.949643212421094
40
37.480019074368428
40
37.480019074368428
40
43.02149347509188
40
43.02149347509188
40
50.348866675594472
40
50.348866675594472
40
59.125574566527717
40
59.125574566527717
40
66.212681668501403
40
66.212681668501403
40
75.168247597205564
40
75.168247597205564
40
87.246243451319472
40
87.246243451319472
40
104.22707173320265
40
104.22707173320265
40
122.67261864312927
40
122.67261864312927
40
122.67261864312927
40
122.67261864312927
10
70.200000000000031
20
-20.974510536085798
30
0
10
70.291621626506853
20
-20.958511364750464
30
0
10
70.426455788355682
20
-20.935149960879471
30
0
10
70.769765828093199
20
-20.876257430891815
30
0
10
70.988378070746748
20
-20.839048712204228
30
0
10
71.51051346859596
20
-20.750660198279721
30
0
10
71.825641975149082
20
-20.697594605345031
30
0
10
72.554746001522261
20
-20.574875914340051
30
0
10
72.978564557188804
20
-20.503562827489617
30
0
10
73.937443547280623
20
-20.341342096024221
30
0
10
74.480290961486816
20
-20.248921808829397
30
0
10
75.67281572256239
20
-20.043558105454746
30
0
10
76.328259843289089
20
-19.92921706668616
30
0
10
77.711581054614271
20
-19.684126507192577
30
0
10
78.443788570348687
20
-19.552218262099746
30
0
10
79.91451593261867
20
-19.283267576971333
30
0
10
80.657008476986448
20
-19.145431073999237
30
0
10
82.0878207577057
20
-18.877423841790915
30
0
10
82.780256792676596
20
-18.746619063180081
30
0
10
84.130886466707111
20
-18.491236123150159
30
0
10
84.790946565018146
20
-18.366342300068421
30
0
10
86.310339211818857
20
-18.080146423462725
30
0
10
87.17235608533278
20
-17.91877646533959
30
0
10
89.119678496492597
20
-17.556674957484407
30
0
10
90.215070968895503
20
-17.354444875014149
30
0
10
92.215831463295402
20
-16.986453804224485
30
0
10
93.118903375287857
20
-16.820846312190238
30
0
10
95.168978592425873
20
-16.445536678724284
30
0
10
96.319020352554361
20
-16.235447426627335
30
0
10
99.023047308829291
20
-15.742060347278811
30
0
10
100.57921581063518
20
-15.458571832968968
30
0
10
104.32483367350063
20
-14.776792546030711
30
0
10
106.51575766716368
20
-14.378468194459245
30
0
10
111.08737435772881
20
-13.547694647900858
30
0
10
113.46855041885904
20
-13.115197682283924
30
0
10
115.84999999999999
20
-12.682666972112878
30
0
0
SPLINE
5
113
100
AcDbEntity
8
0
100
AcDbSpline
70
0
71
3
72
12
73
8
74
0
42
0.000000001
43
0.0000000001
44
0.0000000001
40
0
40
0
40
0
40
0
40
4.331825929001166
40
4.331825929001166
40
9.095948920132642
40
9.095948920132642
40
10.498828925964318
40
10.498828925964318
40
10.498828925964318
40
10.498828925964318
10
8.3999999999999968
20
-24.598542711642203
30
0
10
8.9209750927882823
20
-24.65577487140407
30
0
10
9.4640466130456531
20
-24.706628879872419
30
0
10
10.618468383480051
20
-24.798499038745295
30
0
10
11.234092646872217
20
-24.838406814245158
30
0
10
12.033998362616181
20
-24.88088590034236
30
0
10
12.216291789777946
20
-24.889943495365038
30
0
10
12.398808172830353
20
-24.898430407206341
30
0
0
SPLINE
5
114
100
AcDbEntity
8
0
100
AcDbSpline
70
0
71
3
72
8
73
4
74
0
42
0.000000001
43
0.0000000001
44
0.0000000001
40
0
40
0
40
0
40
0
40
3.5048486845707694
40
3.5048486845707694
40
3.5048486845707694
40
3.5048486845707694
10
-21.599999999999998
20
-19.570953886224991
30
0
10
-21.207877257019195
20
-19.771640391498945
30
0
10
-20.807689381997619
20
-19.962912795069439
30
0
10
-20.400789616092041
20
-20.144878903278279
30
0
0
SPLINE
5
115
100
AcDbEntity
8
0
100
AcDbSpline
70
0
71
3
72
10
73
6
74
0
42
0.000000001
43
0.0000000001
44
0.0000000001
40
0
40
0
40
0
40
0
40
10.000873015562446
40
10.000873015562446
40
18.449180923906429
40
18.449180923906429
40
18.449180923906429
40
18.449180923906429
10
1.2098457364501152
20
-24.230544315417681
30
0
10
2.5113099364165454
20
-24.317538140693191
30
0
10
3.8125149965646297
20
-24.391472101180245
30
0
10
6.2095967050185115
20
-24.509802999988338
30
0
10
7.3062382296667776
20
-24.556972874717172
30
0
10
8.3999999999999986
20
-24.598542711642196
30
0
0
SPLINE
5
116
100
AcDbEntity
8
0
100
AcDbSpline
70
0
71
3
72
12
73
8
74
0
42
0.000000001
43
0.0000000001
44
0.0000000001
40
0
40
0
40
0
40
0
40
5.0004666236605759
40
5.0004666236605759
40
6.5177732954753074
40
6.5177732954753074
40
7.0214519148721788
40
7.0214519148721788
40
7.0214519148721788
40
7.0214519148721788
10
7.4730441119197941
20
15.430221576021168
30
0
10
7.3792030984321739
20
15.310966327229778
30
0
10
7.2850489872379551
20
15.201279117978537
30
0
10
7.157673051592
20
15.068237232017108
30
0
10
7.1277110877675263
20
15.037965066740517
30
0
10
7.0844241703250521
20
14.996439503599834
30
0
10
7.0733646208039875
20
14.985998664305306
30
0
10
7.0615024603627994
20
14.975068385041014
30
0
0
SPLINE
5
117
100
AcDbEntity
8
0
100
AcDbSpline
70
4
71
5
72
21
73
15
74
0
42
0.000000001
43
0.0000000001
44
0.0000000001
40
0
40
0
40
0
40
0
40
0
40
0
40
0.10000000000000001
40
0.20000000000000001
40
0.30000000000000004
40
0.40000000000000002
40
0.5
40
0.59999999999999998
40
0.69999999999999996
40
0.79999999999999993
40
0.89999999999999991
40
1
40
1
40
1
40
1
40
1
40
1
41
1
41
1
41
1
41
1
41
1
41
1
41
1
41
1
41
1
41
1
41
1
41
1
41
1
41
1
41
1
10
32.217661699907339
20
25.594370941438367
30
0
10
31.742542500186737
20
25.725761506461275
30
0
10
30.833713132091049
20
25.987718375614676
30
0
10
29.594691960958187
20
26.378180980529294
30
0
10
28.195233323238263
20
26.893770303239315
30
0
10
26.89550023945975
20
27.529307710085401
30
0
10
26.085816348895197
20
28.155090520595671
30
0
10
25.806612987383996
20
28.770313935239319
30
0
10
26.080758938980399
20
29.374522743069416
30
0
10
26.887357755188248
20
29.96813289502078
30
0
10
28.186645489552291
20
30.55193590601052
30
0
10
29.588099930742278
20
31.011772098553912
30
0
10
30.829917857424284
20
31.352852755067001
30
0
10
31.741182387868484
20
31.578580034376557
30
0
10
32.217661699907339
20
31.691028706453988
30
0
0
SPLINE
5
118
100
AcDbEntity
8
0
100
AcDbSpline
70
4
71
5
72
16
73
10
74
0
42
0.000000001
43
0.0000000001
44
0.0000000001
40
0
40
0
40
0
40
0
40
0
40
0
40
0.20000000000000001
40
0.40000000000000002
40
0.60000000000000009
40
0.80000000000000004
40
1
40
1
40
1
40
1
40
1
40
1
41
1
41
1
41
1
41
1
41
1
41
1
41
1
41
1
41
1
41
1
10
32.217661699907339
20
25.594370941438367
30
0
10
34.379200990189801
20
25.564198861662931
30
0
10
38.724949492254119
20
25.516611929324785
30
0
10
45.311553416065365
20
25.483487121646146
30
0
10
54.239102610873957
20
25.521148804311306
30
0
10
65.759454205602339
20
25.771326564642095
30
0
10
75.446401917806398
20
26.236330681265702
30
0
10
83.109344808563776
20
26.808902755214721
30
0
10
88.423030509210776
20
27.306010905742941
30
0
10
91.131183794444681
20
27.583439314627256
30
0
0
ENDSEC
0
SECTION
2
OBJECTS
0
DICTIONARY
5
C
100
AcDbDictionary
3
ACAD_GROUP
350
D
3
ACAD_MLINESTYLE
350
17
0
DICTIONARY
5
D
100
AcDbDictionary
0
DICTIONARY
5
1A
330
C
100
AcDbDictionary
0
DICTIONARY
5
17
100
AcDbDictionary
0
ENDSEC
0
EOF
