0
SECTION
2
HEADER
9
$INSUNITS
70
4
9
$ACADVER
1
AC1014
9
$HANDSEED
5
FFFF
0
ENDSEC
0
SECTION
2
TABLES
0
TABLE
2
VPORT
5
8
100
AcDbSymbolTable
0
ENDTAB
0
TABLE
2
LTYPE
5
5
100
AcDbSymbolTable
0
LTYPE
5
14
100
AcDbSymbolTableRecord
100
AcDbLinetypeTableRecord
2
BYBLOCK
70
0
0
LTYPE
5
15
100
AcDbSymbolTableRecord
100
AcDbLinetypeTableRecord
2
BYLAYER
70
0
0
ENDTAB
0
TABLE
2
LAYER
5
2
100
AcDbSymbolTable
70
2
0
LAYER
5
50
100
AcDbSymbolTableRecord
100
AcDbLayerTableRecord
2
0
70
0
6
CONTINUOUS
0
ENDTAB
0
TABLE
2
STYLE
5
3
100
AcDbSymbolTable
70
1
0
STYLE
5
11
100
AcDbSymbolTableRecord
100
AcDbTextStyleTableRecord
2
STANDARD
70
0
0
ENDTAB
0
TABLE
2
VIEW
5
6
100
AcDbSymbolTable
70
0
0
ENDTAB
0
TABLE
2
UCS
5
7
100
AcDbSymbolTable
70
0
0
ENDTAB
0
TABLE
2
APPID
5
9
100
AcDbSymbolTable
70
2
0
APPID
5
12
100
AcDbSymbolTableRecord
100
AcDbRegAppTableRecord
2
ACAD
70
0
0
ENDTAB
0
TABLE
2
DIMSTYLE
5
A
100
AcDbSymbolTable
70
1
0
ENDTAB
0
TABLE
2
BLOCK_RECORD
5
1
100
AcDbSymbolTable
70
1
0
BLOCK_RECORD
5
1F
100
AcDbSymbolTableRecord
100
AcDbBlockTableRecord
2
*MODEL_SPACE
0
BLOCK_RECORD
5
1B
100
AcDbSymbolTableRecord
100
AcDbBlockTableRecord
2
*PAPER_SPACE
0
ENDTAB
0
ENDSEC
0
SECTION
2
BLOCKS
0
BLOCK
5
20
100
AcDbEntity
100
AcDbBlockBegin
2
*MODEL_SPACE
0
ENDBLK
5
21
100
AcDbEntity
100
AcDbBlockEnd
0
BLOCK
5
1C
100
AcDbEntity
100
AcDbBlockBegin
2
*PAPER_SPACE
0
ENDBLK
5
1D
100
AcDbEntity
100
AcDbBlockEnd
0
ENDSEC
0
SECTION
2
ENTITIES
0
CIRCLE
5
100
100
AcDbEntity
8
0
100
AcDbCircle
10
53.565000000000111
20
41.495000000000061
30
0
40
0.89999999999999858
210
0
220
-0
230
1
0
CIRCLE
5
101
100
AcDbEntity
8
0
100
AcDbCircle
10
53.565000000000111
20
-22.455000000000037
30
0
40
0.89999999999999858
210
0
220
-0
230
1
0
CIRCLE
5
102
100
AcDbEntity
8
0
100
AcDbCircle
10
-58.11500000000008
20
41.495000000000061
30
0
40
0.89999999999999858
210
0
220
-0
230
1
0
CIRCLE
5
103
100
AcDbEntity
8
0
100
AcDbCircle
10
68
20
-12.5
30
0
40
1.6249999999999964
210
0
220
-0
230
1
0
CIRCLE
5
104
100
AcDbEntity
8
0
100
AcDbCircle
10
-72
20
51.5
30
0
40
1.6249999999999964
210
0
220
-0
230
1
0
CIRCLE
5
105
100
AcDbEntity
8
0
100
AcDbCircle
10
72
20
45
30
0
40
1.6249999999999964
210
0
220
-0
230
1
0
LWPOLYLINE
5
106
100
AcDbEntity
8
0
100
AcDbPolyline
90
4
70
1
43
0.0
10
-62.924999999999983
20
33.249999999999993
10
-72.824999999999989
20
33.249999999999993
10
-72.824999999999989
20
36.749999999999986
10
-62.924999999999983
20
36.749999999999986
0
CIRCLE
5
107
100
AcDbEntity
8
0
100
AcDbCircle
10
-68
20
-26.500000000000004
30
0
40
1.6249999999999964
210
0
220
-0
230
1
0
CIRCLE
5
108
100
AcDbEntity
8
0
100
AcDbCircle
10
-58.11500000000008
20
-22.455000000000037
30
0
40
0.89999999999999858
210
0
220
-0
230
1
0
LWPOLYLINE
5
109
100
AcDbEntity
8
0
100
AcDbPolyline
90
16
70
1
43
0.0
10
79.375000000000085
20
54.999999999999964
42
0.41421356237308898
10
76.375000000000171
20
57.999999999999957
10
14.500000000000002
20
57.999999999999957
42
0.41421356237309503
10
13.5
20
56.999999999999957
10
13.499999999999993
20
54.999999999999936
42
-0.41421356237309503
10
12.499999999999996
20
53.999999999999943
10
-15.499999999999972
20
53.999999999999929
42
-0.41421356237309503
10
-16.499999999999972
20
54.999999999999936
10
-16.499999999999972
20
56.99999999999995
42
0.41421356237309243
10
-17.499999999999964
20
57.999999999999943
10
-76.374999999999957
20
57.999999999999943
42
0.41421356237309243
10
-79.374999999999929
20
55.000000000000071
10
-79.375000000000071
20
-55.000000000000036
42
0.41421356237309243
10
-76.375000000000114
20
-57.999999999999943
10
76.375000000000028
20
-57.999999999999972
42
0.4142135623730942
10
79.375000000000057
20
-54.999999999999986
0
CIRCLE
5
110
100
AcDbEntity
8
0
100
AcDbCircle
10
41.249999999999616
20
-2.7500000000000657
30
0
40
1.7499999999999982
210
0
220
-0
230
1
0
CIRCLE
5
111
100
AcDbEntity
8
0
100
AcDbCircle
10
-41.249999999999424
20
36.249999999999943
30
0
40
1.7499999999999982
210
0
220
-0
230
1
0
CIRCLE
5
112
100
AcDbEntity
8
0
100
AcDbCircle
10
-41.250000000000398
20
-2.7500000000000568
30
0
40
1.7499999999999982
210
0
220
-0
230
1
0
CIRCLE
5
113
100
AcDbEntity
8
0
100
AcDbCircle
10
41.250000000000576
20
36.249999999999936
30
0
40
1.7499999999999982
210
0
220
-0
230
1
0
ENDSEC
0
SECTION
2
OBJECTS
0
DICTIONARY
5
C
100
AcDbDictionary
3
ACAD_GROUP
350
D
3
ACAD_MLINESTYLE
350
17
0
DICTIONARY
5
D
100
AcDbDictionary
0
DICTIONARY
5
1A
330
C
100
AcDbDictionary
0
DICTIONARY
5
17
100
AcDbDictionary
0
ENDSEC
0
EOF
