0
SECTION
2
HEADER
9
$INSUNITS
70
4
9
$ACADVER
1
AC1014
9
$HANDSEED
5
FFFF
0
ENDSEC
0
SECTION
2
TABLES
0
TABLE
2
VPORT
5
8
100
AcDbSymbolTable
0
ENDTAB
0
TABLE
2
LTYPE
5
5
100
AcDbSymbolTable
0
LTYPE
5
14
100
AcDbSymbolTableRecord
100
AcDbLinetypeTableRecord
2
BYBLOCK
70
0
0
LTYPE
5
15
100
AcDbSymbolTableRecord
100
AcDbLinetypeTableRecord
2
BYLAYER
70
0
0
ENDTAB
0
TABLE
2
LAYER
5
2
100
AcDbSymbolTable
70
2
0
LAYER
5
50
100
AcDbSymbolTableRecord
100
AcDbLayerTableRecord
2
0
70
0
6
CONTINUOUS
0
ENDTAB
0
TABLE
2
STYLE
5
3
100
AcDbSymbolTable
70
1
0
STYLE
5
11
100
AcDbSymbolTableRecord
100
AcDbTextStyleTableRecord
2
STANDARD
70
0
0
ENDTAB
0
TABLE
2
VIEW
5
6
100
AcDbSymbolTable
70
0
0
ENDTAB
0
TABLE
2
UCS
5
7
100
AcDbSymbolTable
70
0
0
ENDTAB
0
TABLE
2
APPID
5
9
100
AcDbSymbolTable
70
2
0
APPID
5
12
100
AcDbSymbolTableRecord
100
AcDbRegAppTableRecord
2
ACAD
70
0
0
ENDTAB
0
TABLE
2
DIMSTYLE
5
A
100
AcDbSymbolTable
70
1
0
ENDTAB
0
TABLE
2
BLOCK_RECORD
5
1
100
AcDbSymbolTable
70
1
0
BLOCK_RECORD
5
1F
100
AcDbSymbolTableRecord
100
AcDbBlockTableRecord
2
*MODEL_SPACE
0
BLOCK_RECORD
5
1B
100
AcDbSymbolTableRecord
100
AcDbBlockTableRecord
2
*PAPER_SPACE
0
ENDTAB
0
ENDSEC
0
SECTION
2
BLOCKS
0
BLOCK
5
20
100
AcDbEntity
100
AcDbBlockBegin
2
*MODEL_SPACE
0
ENDBLK
5
21
100
AcDbEntity
100
AcDbBlockEnd
0
BLOCK
5
1C
100
AcDbEntity
100
AcDbBlockBegin
2
*PAPER_SPACE
0
ENDBLK
5
1D
100
AcDbEntity
100
AcDbBlockEnd
0
ENDSEC
0
SECTION
2
ENTITIES
0
LINE
5
100
100
AcDbEntity
8
0
100
AcDbLine
10
34.924999999999997
20
7.6200000000000001
30
0
11
-34.924999999999997
21
7.620000000000001
31
0
0
LINE
5
101
100
AcDbEntity
8
0
100
AcDbLine
10
-34.924999999999997
20
7.620000000000001
30
0
11
-34.924999999999997
21
-7.6200000000000001
31
0
0
LINE
5
102
100
AcDbEntity
8
0
100
AcDbLine
10
-34.924999999999997
20
-7.6200000000000001
30
0
11
34.925000000000004
21
-7.6200000000000001
31
0
0
LINE
5
103
100
AcDbEntity
8
0
100
AcDbLine
10
34.925000000000004
20
-7.6200000000000001
30
0
11
34.924999999999997
21
7.6200000000000001
31
0
0
CIRCLE
5
104
100
AcDbEntity
8
0
100
AcDbCircle
10
-41.275000000000006
20
-1.7654254126962382e-14
30
0
40
2.1590000000000131
210
0
220
-0
230
1
0
CIRCLE
5
105
100
AcDbEntity
8
0
100
AcDbCircle
10
40.815069751864847
20
-6.9850000000000136
30
0
40
1
210
0
220
0
230
1
0
CIRCLE
5
106
100
AcDbEntity
8
0
100
AcDbCircle
10
-40.815069751864847
20
-6.985000000000019
30
0
40
1
210
0
220
0
230
1
0
CIRCLE
5
107
100
AcDbEntity
8
0
100
AcDbCircle
10
-40.815069751864854
20
6.9849999999999834
30
0
40
1
210
0
220
0
230
1
0
CIRCLE
5
108
100
AcDbEntity
8
0
100
AcDbCircle
10
40.815069751864854
20
6.9849999999999888
30
0
40
1
210
0
220
0
230
1
0
CIRCLE
5
109
100
AcDbEntity
8
0
100
AcDbCircle
10
41.275000000000006
20
1.7872882661042627e-14
30
0
40
2.1589999999999865
210
0
220
-0
230
1
0
LINE
5
110
100
AcDbEntity
8
0
100
AcDbLine
10
-34.924999999999997
20
1.1102230246251565e-15
30
0
11
34.924999999999997
21
0
31
0
0
LINE
5
111
100
AcDbEntity
8
0
100
AcDbLine
10
-9.5249999999999968
20
-1.1102230246251565e-15
30
0
11
-9.5249999999999968
21
7.6200000000000001
31
0
0
LINE
5
112
100
AcDbEntity
8
0
100
AcDbLine
10
-2.6669999999999963
20
-5.5511151231257827e-16
30
0
11
-2.6669999999999963
21
7.6200000000000001
31
0
0
LINE
5
113
100
AcDbEntity
8
0
100
AcDbLine
10
9.0169999999999977
20
2.5147022864354039e-17
30
0
11
9.0169999999999977
21
7.6200000000000001
31
0
0
LINE
5
114
100
AcDbEntity
8
0
100
AcDbLine
10
15.874999999999996
20
4.450784102919813e-16
30
0
11
15.874999999999996
21
7.6200000000000001
31
0
0
LINE
5
115
100
AcDbEntity
8
0
100
AcDbLine
10
3.1749999999999989
20
-3.3257230716658762e-16
30
0
11
3.1749999999999989
21
-7.6200000000000001
31
0
0
LINE
5
116
100
AcDbEntity
8
0
100
AcDbLine
10
-3.6830000000000016
20
-7.6200000000000028
30
0
11
-3.6830000000000016
21
-2.5381262516461283e-15
31
0
0
LINE
5
117
100
AcDbEntity
8
0
100
AcDbLine
10
-28.066999999999997
20
-7.6200000000000001
30
0
11
-28.066999999999997
21
-2.2455930721146676e-15
31
0
0
CIRCLE
5
118
100
AcDbEntity
8
0
100
AcDbCircle
10
40.815069751864847
20
-6.9850000000000136
30
0
40
1.575000000000002
210
0
220
-0
230
1
0
CIRCLE
5
119
100
AcDbEntity
8
0
100
AcDbCircle
10
-40.815069751864854
20
6.9849999999999834
30
0
40
1.5749999999999975
210
0
220
-0
230
1
0
CIRCLE
5
120
100
AcDbEntity
8
0
100
AcDbCircle
10
-40.815069751864847
20
-6.985000000000019
30
0
40
1.5749999999999975
210
0
220
-0
230
1
0
CIRCLE
5
121
100
AcDbEntity
8
0
100
AcDbCircle
10
-41.275000000000006
20
-1.7654254126962382e-14
30
0
40
2.1590000000000131
210
0
220
-0
230
1
0
CIRCLE
5
122
100
AcDbEntity
8
0
100
AcDbCircle
10
40.815069751864854
20
6.9849999999999888
30
0
40
1.575000000000002
210
0
220
-0
230
1
0
CIRCLE
5
123
100
AcDbEntity
8
0
100
AcDbCircle
10
41.275000000000006
20
1.7872882661042627e-14
30
0
40
2.1589999999999865
210
0
220
-0
230
1
0
LWPOLYLINE
5
124
100
AcDbEntity
8
0
100
AcDbPolyline
90
8
70
1
43
0.0
10
-39.877999999941295
20
10.1600000000238
10
39.878000000058385
20
10.160000000024183
42
-0.41421356237309814
10
44.450000000058708
20
5.5880000000237988
10
44.450000000058722
20
-5.5879999999691075
42
-0.41421356237309476
10
39.878000000058726
20
-10.159999999969109
10
-39.877999999941295
20
-10.159999999969129
42
-0.41421356237309509
10
-44.449999999941298
20
-5.5879999999691252
10
-44.449999999941284
20
5.5880000000238024
42
-0.41421356237309453
0
LINE
5
125
100
AcDbEntity
8
0
100
AcDbLine
10
15.874999999999996
20
7.6200000000000001
30
0
11
9.0169999999999977
21
2.5147022864354039e-17
31
0
0
LINE
5
126
100
AcDbEntity
8
0
100
AcDbLine
10
3.1749999999999989
20
-3.3257230716658762e-16
30
0
11
-3.6830000000000016
21
-7.6200000000000028
31
0
0
LINE
5
127
100
AcDbEntity
8
0
100
AcDbLine
10
-2.6669999999999963
20
7.6200000000000001
30
0
11
-9.5249999999999968
21
-1.1102230246251565e-15
31
0
0
LINE
5
128
100
AcDbEntity
8
0
100
AcDbLine
10
-28.066999999999997
20
-2.2455930721146676e-15
30
0
11
-34.924999999999997
21
-7.6200000000000001
31
0
0
CIRCLE
5
129
100
AcDbEntity
8
0
100
AcDbCircle
10
12.445999999999998
20
3.8100000000000001
30
0
40
2.9000000000000004
210
0
220
0
230
1
0
CIRCLE
5
130
100
AcDbEntity
8
0
100
AcDbCircle
10
-0.25400000000000145
20
-3.8100000000000018
30
0
40
2.9000000000000004
210
0
220
0
230
1
0
CIRCLE
5
131
100
AcDbEntity
8
0
100
AcDbCircle
10
-6.0959999999999965
20
3.8099999999999996
30
0
40
2.9000000000000004
210
0
220
0
230
1
0
CIRCLE
5
132
100
AcDbEntity
8
0
100
AcDbCircle
10
-31.495999999999999
20
-3.8100000000000085
30
0
40
2.9000000000000004
210
0
220
0
230
1
0
LINE
5
133
100
AcDbEntity
8
0
100
AcDbLine
10
-9.5249999999999968
20
3.8099999999999996
30
0
11
-34.924999999999997
21
3.8099999999999996
31
0
0
LINE
5
134
100
AcDbEntity
8
0
100
AcDbLine
10
9.0169999999999977
20
3.8100000000000001
30
0
11
-2.6669999999999963
21
3.8099999999999996
31
0
0
LINE
5
135
100
AcDbEntity
8
0
100
AcDbLine
10
34.924999999999997
20
3.8099999999999996
30
0
11
15.874999999999996
21
3.8100000000000005
31
0
0
LINE
5
136
100
AcDbEntity
8
0
100
AcDbLine
10
3.1749999999999989
20
-3.8100000000000005
30
0
11
34.925000000000004
21
-3.8099999999999912
31
0
0
LINE
5
137
100
AcDbEntity
8
0
100
AcDbLine
10
-3.6830000000000016
20
-3.8100000000000023
30
0
11
-28.066999999999997
21
-3.8100000000000014
31
0
0
CIRCLE
5
138
100
AcDbEntity
8
0
100
AcDbCircle
10
-18.122058467882258
20
3.8099999999999983
30
0
40
2.9000000000000004
210
0
220
0
230
1
0
CIRCLE
5
139
100
AcDbEntity
8
0
100
AcDbCircle
10
18.610249347337447
20
-3.8099999999999952
30
0
40
2.9000000000000004
210
0
220
0
230
1
0
CIRCLE
5
140
100
AcDbEntity
8
0
100
AcDbCircle
10
26.990849977871925
20
3.8100000000000001
30
0
40
2.9000000000000004
210
0
220
0
230
1
0
LINE
5
141
100
AcDbEntity
8
0
100
AcDbLine
10
19.684999999999995
20
5.5511151231257827e-16
30
0
11
19.684999999999995
21
7.6200000000000001
31
0
0
CIRCLE
5
142
100
AcDbEntity
8
0
100
AcDbCircle
10
27.610249347337419
20
-3.8099999999999938
30
0
40
2.9000000000000004
210
0
220
0
230
1
0
CIRCLE
5
143
100
AcDbEntity
8
0
100
AcDbCircle
10
-30.524546021952386
20
3.8100000000000001
30
0
40
2.9000000000000004
210
0
220
0
230
1
0
CIRCLE
5
144
100
AcDbEntity
8
0
100
AcDbCircle
10
-9.8805347312959952
20
-3.8100000000000005
30
0
40
2.9000000000000004
210
0
220
0
230
1
0
CIRCLE
5
145
100
AcDbEntity
8
0
100
AcDbCircle
10
-21.310534731296002
20
-3.8100000000000005
30
0
40
2.9000000000000004
210
0
220
0
230
1
0
CIRCLE
5
146
100
AcDbEntity
8
0
100
AcDbCircle
10
3.1750000000000012
20
3.8100000000000001
30
0
40
2.9000000000000004
210
0
220
0
230
1
0
CIRCLE
5
147
100
AcDbEntity
8
0
100
AcDbCircle
10
9.6102493473374757
20
-3.8099999999999961
30
0
40
2.9000000000000004
210
0
220
0
230
1
0
ENDSEC
0
SECTION
2
OBJECTS
0
DICTIONARY
5
C
100
AcDbDictionary
3
ACAD_GROUP
350
D
3
ACAD_MLINESTYLE
350
17
0
DICTIONARY
5
D
100
AcDbDictionary
0
DICTIONARY
5
1A
330
C
100
AcDbDictionary
0
DICTIONARY
5
17
100
AcDbDictionary
0
ENDSEC
0
EOF
