0
SECTION
2
HEADER
9
$INSUNITS
70
1
9
$ACADVER
1
AC1014
9
$HANDSEED
5
FFFF
0
ENDSEC
0
SECTION
2
TABLES
0
TABLE
2
VPORT
5
8
100
AcDbSymbolTable
0
ENDTAB
0
TABLE
2
LTYPE
5
5
100
AcDbSymbolTable
0
LTYPE
5
14
100
AcDbSymbolTableRecord
100
AcDbLinetypeTableRecord
2
BYBLOCK
70
0
0
LTYPE
5
15
100
AcDbSymbolTableRecord
100
AcDbLinetypeTableRecord
2
BYLAYER
70
0
0
ENDTAB
0
TABLE
2
LAYER
5
2
100
AcDbSymbolTable
70
2
0
LAYER
5
50
100
AcDbSymbolTableRecord
100
AcDbLayerTableRecord
2
0
70
0
6
CONTINUOUS
0
ENDTAB
0
TABLE
2
STYLE
5
3
100
AcDbSymbolTable
70
1
0
STYLE
5
11
100
AcDbSymbolTableRecord
100
AcDbTextStyleTableRecord
2
STANDARD
70
0
0
ENDTAB
0
TABLE
2
VIEW
5
6
100
AcDbSymbolTable
70
0
0
ENDTAB
0
TABLE
2
UCS
5
7
100
AcDbSymbolTable
70
0
0
ENDTAB
0
TABLE
2
APPID
5
9
100
AcDbSymbolTable
70
2
0
APPID
5
12
100
AcDbSymbolTableRecord
100
AcDbRegAppTableRecord
2
ACAD
70
0
0
ENDTAB
0
TABLE
2
DIMSTYLE
5
A
100
AcDbSymbolTable
70
1
0
ENDTAB
0
TABLE
2
BLOCK_RECORD
5
1
100
AcDbSymbolTable
70
1
0
BLOCK_RECORD
5
1F
100
AcDbSymbolTableRecord
100
AcDbBlockTableRecord
2
*MODEL_SPACE
0
BLOCK_RECORD
5
1B
100
AcDbSymbolTableRecord
100
AcDbBlockTableRecord
2
*PAPER_SPACE
0
ENDTAB
0
ENDSEC
0
SECTION
2
BLOCKS
0
BLOCK
5
20
100
AcDbEntity
100
AcDbBlockBegin
2
*MODEL_SPACE
0
ENDBLK
5
21
100
AcDbEntity
100
AcDbBlockEnd
0
BLOCK
5
1C
100
AcDbEntity
100
AcDbBlockBegin
2
*PAPER_SPACE
0
ENDBLK
5
1D
100
AcDbEntity
100
AcDbBlockEnd
0
ENDSEC
0
SECTION
2
ENTITIES
0
SPLINE
5
100
100
AcDbEntity
8
0
100
AcDbSpline
70
0
71
3
72
10
73
6
74
0
42
0.000000001
43
0.0000000001
44
0.0000000001
40
-44.959907915824203
40
-44.959907915824203
40
-44.959907915824203
40
-44.959907915824203
40
-21.313476072511914
40
-21.313476072511914
40
-5.2940888233110588
40
-5.2940888233110588
40
-5.2940888233110588
40
-5.2940888233110588
10
20.487429039831831
20
8.3999999999999968
30
0
10
20.608732198887612
20
11.498414259048662
30
0
10
20.723276828660865
20
14.600417061851822
30
0
10
20.900373765643707
20
19.801527486079511
30
0
10
20.967734480542941
20
21.899985823326794
30
0
10
21.030451173561499
20
24.000000000000004
30
0
0
LINE
5
101
100
AcDbEntity
8
0
100
AcDbLine
10
21.030451173561499
20
24.000000000000004
30
-3.4436269999154158e-10
11
-21.030451173560586
21
24
31
-1.1320248325781774e-09
0
SPLINE
5
102
100
AcDbEntity
8
0
100
AcDbSpline
70
0
71
3
72
10
73
6
74
0
42
0.000000001
43
0.0000000001
44
0.0000000001
40
-39.634906626853763
40
-39.634906626853763
40
-39.634906626853763
40
-39.634906626853763
40
-23.627815161839372
40
-23.627815161839372
40
-0
40
-0
40
-0
40
-0
10
-21.030451173560586
20
24
30
0
10
-20.967733740049756
20
21.899961028584148
30
0
10
-20.900372176140074
20
19.801477973243816
30
0
10
-20.723275002005902
20
14.600367594470194
30
0
10
-20.608731231864805
20
11.498389558642907
30
0
10
-20.487429039831831
20
8.4000000000000004
30
0
0
SPLINE
5
103
100
AcDbEntity
8
0
100
AcDbSpline
70
0
71
3
72
8
73
4
74
0
42
0.000000001
43
0.0000000001
44
0.0000000001
40
-43.674829610442522
40
-43.674829610442522
40
-43.674829610442522
40
-43.674829610442522
40
-22.44038145984403
40
-22.44038145984403
40
-22.44038145984403
40
-22.44038145984403
10
-20.487429039831831
20
8.4000000000000004
30
-3.0924519288279456e-15
10
-20.326963579720047
20
5.5955372195306037
30
-3.0924519288279456e-15
10
-20.148740160878884
20
2.7747638812686217
30
9.8346527771913456e-16
10
-19.95931357252628
20
-3.8749865515216198e-16
30
9.8346527771913456e-16
0
LINE
5
104
100
AcDbEntity
8
0
100
AcDbLine
10
-19.95931357252628
20
4.8124768104427888e-16
30
9.8346527771913318e-16
11
19.959313572526277
21
-8.4858028303196167e-16
31
-1.13275218424042e-15
0
SPLINE
5
105
100
AcDbEntity
8
0
100
AcDbSpline
70
0
71
3
72
8
73
4
74
0
42
0.000000001
43
0.0000000001
44
0.0000000001
40
-21.404959302453669
40
-21.404959302453669
40
-21.404959302453669
40
-21.404959302453669
40
-0
40
-0
40
-0
40
-0
10
19.959313572526277
20
-8.4858028303196167e-16
30
-1.13275218424042e-15
10
20.148740160878873
20
2.7747638812685391
30
-1.13275218424042e-15
10
20.326963579720044
20
5.5955372195305682
30
-3.8027324071806542e-15
10
20.487429039831831
20
8.3999999999999968
30
-3.8027324071806542e-15
0
SPLINE
5
106
100
AcDbEntity
8
0
100
AcDbSpline
70
0
71
3
72
11
73
7
74
0
42
0.000000001
43
0.0000000001
44
0.0000000001
40
-39.634906626853763
40
-39.634906626853763
40
-39.634906626853763
40
-39.634906626853763
40
-23.627815161839372
40
-23.627815161839372
40
-23.627815161839372
40
-0.0057242651293814718
40
-0.0057242651293814718
40
-0.0057242651293814718
40
-0.0057242651293814718
10
-20.780562587996339
20
24.007462895195548
30
0
10
-20.717856257214329
20
21.907795689043454
30
0
10
-20.650505939720464
20
19.809661434947529
30
0
10
-20.578993892824997
20
17.709446955897846
30
0
10
-20.473461674880905
20
14.610104932358974
30
0
10
-20.358963600078742
20
11.509302150630411
30
0
10
-20.237708562160687
20
8.4120316813158702
30
0
0
SPLINE
5
107
100
AcDbEntity
8
0
100
AcDbSpline
70
0
71
3
72
8
73
4
74
0
42
0.000000001
43
0.0000000001
44
0.0000000001
40
-43.669150284253256
40
-43.669150284253256
40
-43.669150284253256
40
-43.669150284253256
40
-22.44038145984403
40
-22.44038145984403
40
-22.44038145984403
40
-22.44038145984403
10
-20.237708562160602
20
8.4120316813158773
30
-3.0924510542856208e-15
10
-20.077333439792028
20
5.6093049265476633
30
-3.0902719458547293e-15
10
-19.899211633915893
20
2.7901936617939223
30
9.8346527771913456e-16
10
-19.709894103027967
20
0.017027279147867246
30
9.8346527771913456e-16
0
SPLINE
5
108
100
AcDbEntity
8
0
100
AcDbSpline
70
0
71
3
72
11
73
7
74
0
42
0.000000001
43
0.0000000001
44
0.0000000001
40
-39.634906626853763
40
-39.634906626853763
40
-39.634906626853763
40
-39.634906626853763
40
-23.627815161839372
40
-23.627815161839372
40
-23.627815161839372
40
-0.024055625642034367
40
-0.024055625642034367
40
-0.024055625642034367
40
-0.024055625642034367
10
-19.980919114190744
20
24.031344159821298
30
0
10
-19.91824831214096
20
21.932866602513229
30
0
10
-19.850933983177722
20
19.835848512399405
30
0
10
-19.7794572476339
20
17.736671081165003
30
0
10
-19.674059036231643
20
14.641264652979173
30
0
10
-19.559707201543901
20
11.544223284114613
30
0
10
-19.438603087065758
20
8.450534844295742
30
0
0
SPLINE
5
109
100
AcDbEntity
8
0
100
AcDbSpline
70
0
71
3
72
8
73
4
74
0
42
0.000000001
43
0.0000000001
44
0.0000000001
40
-43.650953948153379
40
-43.650953948153379
40
-43.650953948153379
40
-43.650953948153379
40
-22.44038145984403
40
-22.44038145984403
40
-22.44038145984403
40
-22.44038145984403
10
-19.438603087065911
20
8.4505348442957313
30
-3.0924364816254046e-15
10
-19.278517015482297
20
5.653362103845617
30
-3.0832912940207095e-15
10
-19.100720357207312
20
2.839569099702334
30
9.8346527771913456e-16
10
-18.911751800633361
20
0.071514572421043671
30
9.8346527771913456e-16
0
LINE
5
110
100
AcDbEntity
8
0
100
AcDbLine
10
-18.911751800633361
20
0.071514572421043518
30
9.8346527771913535e-16
11
-18.906869669377919
21
4.4618712327653257e-16
31
9.8346527771913417e-16
0
LINE
5
111
100
AcDbEntity
8
0
100
AcDbLine
10
-19.709894103027967
20
0.017027279147868234
30
9.8346527771913397e-16
11
-19.70873169082429
21
4.7286581365332351e-16
31
9.8346527771913397e-16
0
LINE
5
112
100
AcDbEntity
8
0
100
AcDbLine
10
-21.030451173560586
20
24
30
-1.1320248325781774e-09
11
-17.885198163289086
21
24
31
-1.0473736645413076e-09
0
LINE
5
113
100
AcDbEntity
8
0
100
AcDbLine
10
-19.70873169082429
20
4.7286581365332351e-16
30
9.8346527771913397e-16
11
-18.906869669377919
21
4.4618712327653257e-16
31
9.8346527771913417e-16
0
ENDSEC
0
SECTION
2
OBJECTS
0
DICTIONARY
5
C
100
AcDbDictionary
3
ACAD_GROUP
350
D
3
ACAD_MLINESTYLE
350
17
0
DICTIONARY
5
D
100
AcDbDictionary
0
DICTIONARY
5
1A
330
C
100
AcDbDictionary
0
DICTIONARY
5
17
100
AcDbDictionary
0
ENDSEC
0
EOF
