0
SECTION
2
HEADER
9
$INSUNITS
70
1
9
$ACADVER
1
AC1014
9
$HANDSEED
5
FFFF
0
ENDSEC
0
SECTION
2
TABLES
0
TABLE
2
VPORT
5
8
100
AcDbSymbolTable
0
ENDTAB
0
TABLE
2
LTYPE
5
5
100
AcDbSymbolTable
0
LTYPE
5
14
100
AcDbSymbolTableRecord
100
AcDbLinetypeTableRecord
2
BYBLOCK
70
0
0
LTYPE
5
15
100
AcDbSymbolTableRecord
100
AcDbLinetypeTableRecord
2
BYLAYER
70
0
0
ENDTAB
0
TABLE
2
LAYER
5
2
100
AcDbSymbolTable
70
2
0
LAYER
5
50
100
AcDbSymbolTableRecord
100
AcDbLayerTableRecord
2
0
70
0
6
CONTINUOUS
0
ENDTAB
0
TABLE
2
STYLE
5
3
100
AcDbSymbolTable
70
1
0
STYLE
5
11
100
AcDbSymbolTableRecord
100
AcDbTextStyleTableRecord
2
STANDARD
70
0
0
ENDTAB
0
TABLE
2
VIEW
5
6
100
AcDbSymbolTable
70
0
0
ENDTAB
0
TABLE
2
UCS
5
7
100
AcDbSymbolTable
70
0
0
ENDTAB
0
TABLE
2
APPID
5
9
100
AcDbSymbolTable
70
2
0
APPID
5
12
100
AcDbSymbolTableRecord
100
AcDbRegAppTableRecord
2
ACAD
70
0
0
ENDTAB
0
TABLE
2
DIMSTYLE
5
A
100
AcDbSymbolTable
70
1
0
ENDTAB
0
TABLE
2
BLOCK_RECORD
5
1
100
AcDbSymbolTable
70
1
0
BLOCK_RECORD
5
1F
100
AcDbSymbolTableRecord
100
AcDbBlockTableRecord
2
*MODEL_SPACE
0
BLOCK_RECORD
5
1B
100
AcDbSymbolTableRecord
100
AcDbBlockTableRecord
2
*PAPER_SPACE
0
ENDTAB
0
ENDSEC
0
SECTION
2
BLOCKS
0
BLOCK
5
20
100
AcDbEntity
100
AcDbBlockBegin
2
*MODEL_SPACE
0
ENDBLK
5
21
100
AcDbEntity
100
AcDbBlockEnd
0
BLOCK
5
1C
100
AcDbEntity
100
AcDbBlockBegin
2
*PAPER_SPACE
0
ENDBLK
5
1D
100
AcDbEntity
100
AcDbBlockEnd
0
ENDSEC
0
SECTION
2
ENTITIES
0
SPLINE
5
100
100
AcDbEntity
8
0
100
AcDbSpline
70
4
71
5
72
16
73
10
74
0
42
0.000000001
43
0.0000000001
44
0.0000000001
40
0
40
0
40
0
40
0
40
0
40
0
40
0.20000000000000001
40
0.40000000000000002
40
0.60000000000000009
40
0.80000000000000004
40
1
40
1
40
1
40
1
40
1
40
1
41
1
41
1
41
1
41
1
41
1
41
1
41
1
41
1
41
1
41
1
10
16.662767846411349
20
-34.487639369564533
30
0
10
17.132355937059806
20
-31.880977827979784
30
0
10
18.015385106694577
20
-26.568720689095489
30
0
10
19.171627713066375
20
-18.30387738073777
30
0
10
20.413041075570931
20
-6.8400977803123464
30
0
10
21.560415535278125
20
7.5070930894346457
30
0
10
22.174996998854969
20
18.29468872587633
30
0
10
22.44279489130367
20
25.60113781487691
30
0
10
22.526857644317335
20
30.051523884970184
30
0
10
22.54525300731688
20
32.17146915122747
30
0
0
LINE
5
101
100
AcDbEntity
8
0
100
AcDbLine
10
22.54525300731688
20
32.17146915122747
30
0
11
23.589339507393888
21
32.171469151227477
31
0
0
LINE
5
102
100
AcDbEntity
8
0
100
AcDbLine
10
23.589339507393888
20
32.171469151227477
30
0
11
23.589339507393884
21
66.383311174626286
31
0
0
LINE
5
103
100
AcDbEntity
8
0
100
AcDbLine
10
23.589339507393884
20
66.383311174626286
30
0
11
22.633257571342071
21
66.383311174626272
31
0
0
SPLINE
5
104
100
AcDbEntity
8
0
100
AcDbSpline
70
4
71
5
72
21
73
15
74
0
42
0.000000001
43
0.0000000001
44
0.0000000001
40
0
40
0
40
0
40
0
40
0
40
0
40
0.10000000000000001
40
0.20000000000000001
40
0.30000000000000004
40
0.40000000000000002
40
0.5
40
0.59999999999999998
40
0.69999999999999996
40
0.79999999999999993
40
0.89999999999999991
40
1
40
1
40
1
40
1
40
1
40
1
41
1
41
1
41
1
41
1
41
1
41
1
41
1
41
1
41
1
41
1
41
1
41
1
41
1
41
1
41
1
10
22.633257571342071
20
66.383311174626272
30
0
10
22.594805205540215
20
68.70661464102615
30
0
10
22.496046640218392
20
73.179491346265081
30
0
10
22.282366832819882
20
79.367329887222027
30
0
10
21.8795235786082
20
86.589931199020654
30
0
10
21.245729342067005
20
94.014180859325165
30
0
10
20.549675571565739
20
100.11217383125201
30
0
10
19.837474028971847
20
105.31089349641366
30
0
10
19.095037208846286
20
110.51509586747559
30
0
10
18.244656290615584
20
116.63128989818311
30
0
10
17.198117905304237
20
123.95102282365073
30
0
10
16.128623751058107
20
130.86059334282845
30
0
10
15.161840991558181
20
136.61492660434871
30
0
10
14.439365408500692
20
140.70068688495897
30
0
10
14.058640671989245
20
142.80589108605673
30
0
0
LINE
5
105
100
AcDbEntity
8
0
100
AcDbLine
10
14.058640671989245
20
142.80589108605673
30
0
11
0
21
142.80589108605673
31
0
0
LINE
5
106
100
AcDbEntity
8
0
100
AcDbLine
10
0
20
142.80589108605673
30
0
11
0
21
0
31
0
0
SPLINE
5
107
100
AcDbEntity
8
0
100
AcDbSpline
70
4
71
5
72
16
73
10
74
0
42
0.000000001
43
0.0000000001
44
0.0000000001
40
0
40
0
40
0
40
0
40
0
40
0
40
0.20000000000000001
40
0.40000000000000002
40
0.60000000000000009
40
0.80000000000000004
40
1
40
1
40
1
40
1
40
1
40
1
41
1
41
1
41
1
41
1
41
1
41
1
41
1
41
1
41
1
41
1
10
-16.662767846411349
20
-34.487639369564533
30
0
10
-17.132355937059806
20
-31.880977827979784
30
0
10
-18.015385106694577
20
-26.568720689095475
30
0
10
-19.171627713066375
20
-18.30387738073777
30
0
10
-20.413041075570931
20
-6.8400977803123659
30
0
10
-21.560415535278125
20
7.5070930894345773
30
0
10
-22.174996998854969
20
18.294688725876263
30
0
10
-22.44279489130367
20
25.601137814876875
30
0
10
-22.526857644317335
20
30.051523884970177
30
0
10
-22.54525300731688
20
32.17146915122747
30
0
0
LINE
5
108
100
AcDbEntity
8
0
100
AcDbLine
10
-22.54525300731688
20
32.17146915122747
30
0
11
-23.589339507393888
21
32.17146915122747
31
0
0
LINE
5
109
100
AcDbEntity
8
0
100
AcDbLine
10
-23.589339507393888
20
32.17146915122747
30
0
11
-23.589339507393884
21
66.383311174626286
31
0
0
LINE
5
110
100
AcDbEntity
8
0
100
AcDbLine
10
-23.589339507393884
20
66.383311174626286
30
0
11
-22.633257571342071
21
66.383311174626272
31
0
0
SPLINE
5
111
100
AcDbEntity
8
0
100
AcDbSpline
70
4
71
5
72
21
73
15
74
0
42
0.000000001
43
0.0000000001
44
0.0000000001
40
0
40
0
40
0
40
0
40
0
40
0
40
0.10000000000000001
40
0.20000000000000001
40
0.30000000000000004
40
0.40000000000000002
40
0.5
40
0.59999999999999998
40
0.69999999999999996
40
0.79999999999999993
40
0.89999999999999991
40
1
40
1
40
1
40
1
40
1
40
1
41
1
41
1
41
1
41
1
41
1
41
1
41
1
41
1
41
1
41
1
41
1
41
1
41
1
41
1
41
1
10
-22.633257571342071
20
66.383311174626272
30
0
10
-22.594805205540215
20
68.70661464102615
30
0
10
-22.496046640218392
20
73.179491346265081
30
0
10
-22.282366832819882
20
79.367329887222027
30
0
10
-21.8795235786082
20
86.589931199020654
30
0
10
-21.245729342067005
20
94.014180859325165
30
0
10
-20.549675571565739
20
100.11217383125201
30
0
10
-19.837474028971847
20
105.31089349641366
30
0
10
-19.095037208846286
20
110.51509586747559
30
0
10
-18.244656290615584
20
116.63128989818311
30
0
10
-17.198117905304237
20
123.95102282365073
30
0
10
-16.128623751058107
20
130.86059334282845
30
0
10
-15.161840991558181
20
136.61492660434871
30
0
10
-14.439365408500692
20
140.70068688495897
30
0
10
-14.058640671989245
20
142.80589108605673
30
0
0
LINE
5
112
100
AcDbEntity
8
0
100
AcDbLine
10
-14.058640671989245
20
142.80589108605673
30
0
11
0
21
142.80589108605673
31
0
0
SPLINE
5
113
100
AcDbEntity
8
0
100
AcDbSpline
70
4
71
5
72
16
73
10
74
0
42
0.000000001
43
0.0000000001
44
0.0000000001
40
0
40
0
40
0
40
0
40
0
40
0
40
0.20000000000000001
40
0.40000000000000002
40
0.60000000000000009
40
0.80000000000000004
40
1
40
1
40
1
40
1
40
1
40
1
41
1
41
1
41
1
41
1
41
1
41
1
41
1
41
1
41
1
41
1
10
-16.662767846411349
20
-34.487639369564533
30
0
10
-16.316638294936777
20
-34.624089273839239
30
0
10
-15.512828074329363
20
-34.865106332384428
30
0
10
-13.972777612998902
20
-35.131072267964242
30
0
10
-11.357811681283556
20
-35.323149148539244
30
0
10
-7.5712780464140899
20
-35.398558378658791
30
0
10
-4.4426126571104954
20
-35.401068479089197
30
0
10
-2.1744665637291307
20
-35.398350571292418
30
0
10
-0.71588970544487629
20
-35.39774385271086
30
0
10
0
20
-35.39774385271086
30
0
0
SPLINE
5
114
100
AcDbEntity
8
0
100
AcDbSpline
70
4
71
5
72
16
73
10
74
0
42
0.000000001
43
0.0000000001
44
0.0000000001
40
0
40
0
40
0
40
0
40
0
40
0
40
0.20000000000000001
40
0.40000000000000002
40
0.60000000000000009
40
0.80000000000000004
40
1
40
1
40
1
40
1
40
1
40
1
41
1
41
1
41
1
41
1
41
1
41
1
41
1
41
1
41
1
41
1
10
16.662767846411349
20
-34.48763936956454
30
0
10
16.316638294936777
20
-34.624089273839246
30
0
10
15.512828074329367
20
-34.86510633238445
30
0
10
13.972777612998911
20
-35.131072267964292
30
0
10
11.357811681283584
20
-35.3231491485394
30
0
10
7.5712780464141218
20
-35.398558378658912
30
0
10
4.442612657110514
20
-35.401068479089275
30
0
10
2.1744665637291343
20
-35.398350571292411
30
0
10
0.71588970544487585
20
-35.397743852710853
30
0
10
0
20
-35.39774385271086
30
0
0
ENDSEC
0
SECTION
2
OBJECTS
0
DICTIONARY
5
C
100
AcDbDictionary
3
ACAD_GROUP
350
D
3
ACAD_MLINESTYLE
350
17
0
DICTIONARY
5
D
100
AcDbDictionary
0
DICTIONARY
5
1A
330
C
100
AcDbDictionary
0
DICTIONARY
5
17
100
AcDbDictionary
0
ENDSEC
0
EOF
