999
"DXF R12 Output" (www.mydxf.blogspot.com)
 0 
SECTION
 2 
HEADER
 9 
$ACADVER
 1 
AC1009
 9 
$EXTMIN
 10 
 0 
 20 
 0 
 9 
$EXTMAX
 10 
 8.5 
 20 
 11 
 0 
ENDSEC
 0 
SECTION
 2 
ENTITIES
0
LINE
8
Layer 1
10
0.793749
20
297.794000
11
-0.793749
21
296.206000
0
LINE
8
Layer 1
10
0.000000
20
298.323000
11
0.000000
21
295.677000
0
LINE
8
Layer 1
10
2.116660
20
295.942000
11
1.058330
21
294.883670
0
LINE
8
Layer 1
10
1.587500
20
296.471000
11
0.529170
21
295.412670
0
LINE
8
Layer 1
10
1.058330
20
297.000000
11
0.000000
21
295.941670
0
LINE
8
0
10
16.170100
20
287.938000
11
14.925567
21
287.814868
0
LINE
8
0
10
14.925567
20
287.814868
11
13.740206
21
287.454668
0
LINE
8
0
10
13.740206
20
287.454668
11
12.647328
21
286.871194
0
LINE
8
0
10
12.647328
20
286.871194
11
11.680241
21
286.078246
0
LINE
8
0
10
11.680241
20
286.078246
11
10.887291
21
285.111160
0
LINE
8
0
10
10.887291
20
285.111160
11
10.303816
21
284.018283
0
LINE
8
0
10
10.303816
20
284.018283
11
9.943614
21
282.832923
0
LINE
8
0
10
9.943614
20
282.832923
11
9.820480
21
281.588390
0
LINE
8
0
10
9.820480
20
281.588390
11
9.820430
21
76.749700
0
LINE
8
0
10
9.820430
20
76.749700
11
9.943564
21
75.505167
0
LINE
8
0
10
9.943564
20
75.505167
11
10.303766
21
74.319807
0
LINE
8
0
10
10.303766
20
74.319807
11
10.887241
21
73.226930
0
LINE
8
0
10
10.887241
20
73.226930
11
11.680191
21
72.259844
0
LINE
8
0
10
11.680191
20
72.259844
11
12.647278
21
71.466896
0
LINE
8
0
10
12.647278
20
71.466896
11
13.740156
21
70.883422
0
LINE
8
0
10
13.740156
20
70.883422
11
14.925517
21
70.523222
0
LINE
8
0
10
14.925517
20
70.523222
11
16.170050
21
70.400090
0
LINE
8
0
10
16.170050
20
70.400090
11
41.568500
21
70.400000
0
LINE
8
0
10
41.568500
20
70.400000
11
42.813033
21
70.523132
0
LINE
8
0
10
42.813033
20
70.523132
11
43.998394
21
70.883332
0
LINE
8
0
10
43.998394
20
70.883332
11
45.091272
21
71.466806
0
LINE
8
0
10
45.091272
20
71.466806
11
46.058359
21
72.259754
0
LINE
8
0
10
46.058359
20
72.259754
11
46.851309
21
73.226840
0
LINE
8
0
10
46.851309
20
73.226840
11
47.434784
21
74.319717
0
LINE
8
0
10
47.434784
20
74.319717
11
47.794986
21
75.505077
0
LINE
8
0
10
47.794986
20
75.505077
11
47.918120
21
76.749610
0
LINE
8
0
10
47.918120
20
76.749610
11
47.918100
21
281.588000
0
LINE
8
0
10
47.918100
20
281.588000
11
47.794966
21
282.832533
0
LINE
8
0
10
47.794966
20
282.832533
11
47.434764
21
284.017893
0
LINE
8
0
10
47.434764
20
284.017893
11
46.851289
21
285.110770
0
LINE
8
0
10
46.851289
20
285.110770
11
46.058339
21
286.077856
0
LINE
8
0
10
46.058339
20
286.077856
11
45.091252
21
286.870804
0
LINE
8
0
10
45.091252
20
286.870804
11
43.998374
21
287.454278
0
LINE
8
0
10
43.998374
20
287.454278
11
42.813013
21
287.814478
0
LINE
8
0
10
42.813013
20
287.814478
11
41.568480
21
287.937610
0
LINE
8
0
10
41.568480
20
287.937610
11
16.170100
21
287.938000
0
LINE
8
0
10
28.869300
20
215.870000
11
27.295411
21
215.661183
0
LINE
8
0
10
27.295411
20
215.661183
11
25.853235
21
215.061830
0
LINE
8
0
10
25.853235
20
215.061830
11
24.613097
21
214.112541
0
LINE
8
0
10
24.613097
20
214.112541
11
23.645322
21
212.853915
0
LINE
8
0
10
23.645322
20
212.853915
11
23.039208
21
211.386484
0
LINE
8
0
10
23.039208
20
211.386484
11
22.837170
21
209.837850
0
LINE
8
0
10
22.837170
20
209.837850
11
23.039208
21
208.289216
0
LINE
8
0
10
23.039208
20
208.289216
11
23.645322
21
206.821785
0
LINE
8
0
10
23.645322
20
206.821785
11
24.613097
21
205.563159
0
LINE
8
0
10
24.613097
20
205.563159
11
25.853235
21
204.613872
0
LINE
8
0
10
25.853235
20
204.613872
11
27.295411
21
204.014525
0
LINE
8
0
10
27.295411
20
204.014525
11
28.869300
21
203.805720
0
LINE
8
0
10
28.869300
20
203.805720
11
30.443189
21
204.014531
0
LINE
8
0
10
30.443189
20
204.014531
11
31.885365
21
204.613881
0
LINE
8
0
10
31.885365
20
204.613881
11
33.125503
21
205.563169
0
LINE
8
0
10
33.125503
20
205.563169
11
34.093278
21
206.821795
0
LINE
8
0
10
34.093278
20
206.821795
11
34.699392
21
208.289226
0
LINE
8
0
10
34.699392
20
208.289226
11
34.901430
21
209.837860
0
LINE
8
0
10
34.901430
20
209.837860
11
34.699392
21
211.386494
0
LINE
8
0
10
34.699392
20
211.386494
11
34.093278
21
212.853925
0
LINE
8
0
10
34.093278
20
212.853925
11
33.125503
21
214.112551
0
LINE
8
0
10
33.125503
20
214.112551
11
31.885365
21
215.061838
0
LINE
8
0
10
31.885365
20
215.061838
11
30.443189
21
215.661185
0
LINE
8
0
10
30.443189
20
215.661185
11
28.869300
21
215.869990
0
LINE
8
0
10
28.869300
20
215.869990
11
28.869300
21
215.870000
0
LINE
8
0
10
28.869300
20
154.532000
11
27.295411
21
154.323183
0
LINE
8
0
10
27.295411
20
154.323183
11
25.853235
21
153.723830
0
LINE
8
0
10
25.853235
20
153.723830
11
24.613097
21
152.774541
0
LINE
8
0
10
24.613097
20
152.774541
11
23.645322
21
151.515915
0
LINE
8
0
10
23.645322
20
151.515915
11
23.039208
21
150.048484
0
LINE
8
0
10
23.039208
20
150.048484
11
22.837170
21
148.499850
0
LINE
8
0
10
22.837170
20
148.499850
11
23.039208
21
146.951216
0
LINE
8
0
10
23.039208
20
146.951216
11
23.645322
21
145.483785
0
LINE
8
0
10
23.645322
20
145.483785
11
24.613097
21
144.225159
0
LINE
8
0
10
24.613097
20
144.225159
11
25.853235
21
143.275872
0
LINE
8
0
10
25.853235
20
143.275872
11
27.295411
21
142.676525
0
LINE
8
0
10
27.295411
20
142.676525
11
28.869300
21
142.467720
0
LINE
8
0
10
28.869300
20
142.467720
11
30.443189
21
142.676531
0
LINE
8
0
10
30.443189
20
142.676531
11
31.885365
21
143.275881
0
LINE
8
0
10
31.885365
20
143.275881
11
33.125503
21
144.225169
0
LINE
8
0
10
33.125503
20
144.225169
11
34.093278
21
145.483795
0
LINE
8
0
10
34.093278
20
145.483795
11
34.699392
21
146.951226
0
LINE
8
0
10
34.699392
20
146.951226
11
34.901430
21
148.499860
0
LINE
8
0
10
34.901430
20
148.499860
11
34.699392
21
150.048494
0
LINE
8
0
10
34.699392
20
150.048494
11
34.093278
21
151.515925
0
LINE
8
0
10
34.093278
20
151.515925
11
33.125503
21
152.774551
0
LINE
8
0
10
33.125503
20
152.774551
11
31.885365
21
153.723838
0
LINE
8
0
10
31.885365
20
153.723838
11
30.443189
21
154.323185
0
LINE
8
0
10
30.443189
20
154.323185
11
28.869300
21
154.531990
0
LINE
8
0
10
28.869300
20
154.531990
11
28.869300
21
154.532000
0
LINE
8
0
10
41.568500
20
79.035500
11
40.729663
21
78.864510
0
LINE
8
0
10
40.729663
20
78.864510
11
40.044953
21
78.401543
0
LINE
8
0
10
40.044953
20
78.401543
11
39.583461
21
77.715838
0
LINE
8
0
10
39.583461
20
77.715838
11
39.414276
21
76.876635
0
LINE
8
0
10
39.414276
20
76.876635
11
39.583461
21
76.037432
0
LINE
8
0
10
39.583461
20
76.037432
11
40.044953
21
75.351727
0
LINE
8
0
10
40.044953
20
75.351727
11
40.729663
21
74.888760
0
LINE
8
0
10
40.729663
20
74.888760
11
41.568500
21
74.717770
0
LINE
8
0
10
41.568500
20
74.717770
11
42.407337
21
74.888760
0
LINE
8
0
10
42.407337
20
74.888760
11
43.092047
21
75.351727
0
LINE
8
0
10
43.092047
20
75.351727
11
43.553539
21
76.037432
0
LINE
8
0
10
43.553539
20
76.037432
11
43.722724
21
76.876635
0
LINE
8
0
10
43.722724
20
76.876635
11
43.553539
21
77.715838
0
LINE
8
0
10
43.553539
20
77.715838
11
43.092047
21
78.401543
0
LINE
8
0
10
43.092047
20
78.401543
11
42.407337
21
78.864510
0
LINE
8
0
10
42.407337
20
78.864510
11
41.568500
21
79.035500
0
LINE
8
0
10
41.568500
20
79.035500
11
41.568500
21
79.035500
0
LINE
8
0
10
28.869300
20
113.641000
11
27.295411
21
113.432183
0
LINE
8
0
10
27.295411
20
113.432183
11
25.853235
21
112.832830
0
LINE
8
0
10
25.853235
20
112.832830
11
24.613097
21
111.883541
0
LINE
8
0
10
24.613097
20
111.883541
11
23.645322
21
110.624915
0
LINE
8
0
10
23.645322
20
110.624915
11
23.039208
21
109.157484
0
LINE
8
0
10
23.039208
20
109.157484
11
22.837170
21
107.608850
0
LINE
8
0
10
22.837170
20
107.608850
11
23.039208
21
106.060216
0
LINE
8
0
10
23.039208
20
106.060216
11
23.645322
21
104.592785
0
LINE
8
0
10
23.645322
20
104.592785
11
24.613097
21
103.334159
0
LINE
8
0
10
24.613097
20
103.334159
11
25.853235
21
102.384872
0
LINE
8
0
10
25.853235
20
102.384872
11
27.295411
21
101.785525
0
LINE
8
0
10
27.295411
20
101.785525
11
28.869300
21
101.576720
0
LINE
8
0
10
28.869300
20
101.576720
11
30.443189
21
101.785531
0
LINE
8
0
10
30.443189
20
101.785531
11
31.885365
21
102.384881
0
LINE
8
0
10
31.885365
20
102.384881
11
33.125503
21
103.334169
0
LINE
8
0
10
33.125503
20
103.334169
11
34.093278
21
104.592795
0
LINE
8
0
10
34.093278
20
104.592795
11
34.699392
21
106.060226
0
LINE
8
0
10
34.699392
20
106.060226
11
34.901430
21
107.608860
0
LINE
8
0
10
34.901430
20
107.608860
11
34.699392
21
109.157494
0
LINE
8
0
10
34.699392
20
109.157494
11
34.093278
21
110.624925
0
LINE
8
0
10
34.093278
20
110.624925
11
33.125503
21
111.883551
0
LINE
8
0
10
33.125503
20
111.883551
11
31.885365
21
112.832838
0
LINE
8
0
10
31.885365
20
112.832838
11
30.443189
21
113.432185
0
LINE
8
0
10
30.443189
20
113.432185
11
28.869300
21
113.640990
0
LINE
8
0
10
28.869300
20
113.640990
11
28.869300
21
113.641000
0
LINE
8
0
10
28.869300
20
134.087000
11
27.656570
21
133.961135
0
LINE
8
0
10
27.656570
20
133.961135
11
26.527436
21
133.607503
0
LINE
8
0
10
26.527436
20
133.607503
11
25.505969
21
133.050251
0
LINE
8
0
10
25.505969
20
133.050251
11
24.616244
21
132.313529
0
LINE
8
0
10
24.616244
20
132.313529
11
23.882331
21
131.421484
0
LINE
8
0
10
23.882331
20
131.421484
11
23.328303
21
130.398265
0
LINE
8
0
10
23.328303
20
130.398265
11
22.978234
21
129.268021
0
LINE
8
0
10
22.978234
20
129.268021
11
22.856194
21
128.054900
0
LINE
8
0
10
22.856194
20
128.054900
11
22.978234
21
126.841779
0
LINE
8
0
10
22.978234
20
126.841779
11
23.328303
21
125.711535
0
LINE
8
0
10
23.328303
20
125.711535
11
23.882331
21
124.688316
0
LINE
8
0
10
23.882331
20
124.688316
11
24.616244
21
123.796271
0
LINE
8
0
10
24.616244
20
123.796271
11
25.505969
21
123.059549
0
LINE
8
0
10
25.505969
20
123.059549
11
26.527436
21
122.502297
0
LINE
8
0
10
26.527436
20
122.502297
11
27.656570
21
122.148665
0
LINE
8
0
10
27.656570
20
122.148665
11
28.869300
21
122.022800
0
LINE
8
0
10
28.869300
20
122.022800
11
30.082030
21
122.148665
0
LINE
8
0
10
30.082030
20
122.148665
11
31.211164
21
122.502297
0
LINE
8
0
10
31.211164
20
122.502297
11
32.232631
21
123.059549
0
LINE
8
0
10
32.232631
20
123.059549
11
33.122356
21
123.796271
0
LINE
8
0
10
33.122356
20
123.796271
11
33.856269
21
124.688316
0
LINE
8
0
10
33.856269
20
124.688316
11
34.410297
21
125.711535
0
LINE
8
0
10
34.410297
20
125.711535
11
34.760366
21
126.841779
0
LINE
8
0
10
34.760366
20
126.841779
11
34.882406
21
128.054900
0
LINE
8
0
10
34.882406
20
128.054900
11
34.760366
21
129.268021
0
LINE
8
0
10
34.760366
20
129.268021
11
34.410297
21
130.398265
0
LINE
8
0
10
34.410297
20
130.398265
11
33.856269
21
131.421484
0
LINE
8
0
10
33.856269
20
131.421484
11
33.122356
21
132.313529
0
LINE
8
0
10
33.122356
20
132.313529
11
32.232631
21
133.050251
0
LINE
8
0
10
32.232631
20
133.050251
11
31.211164
21
133.607503
0
LINE
8
0
10
31.211164
20
133.607503
11
30.082030
21
133.961135
0
LINE
8
0
10
30.082030
20
133.961135
11
28.869300
21
134.087000
0
LINE
8
0
10
28.869300
20
134.087000
11
28.869300
21
134.087000
0
LINE
8
0
10
41.568500
20
140.436000
11
40.728170
21
140.266345
0
LINE
8
0
10
40.728170
20
140.266345
11
40.041949
21
139.803682
0
LINE
8
0
10
40.041949
20
139.803682
11
39.579285
21
139.117460
0
LINE
8
0
10
39.579285
20
139.117460
11
39.409630
21
138.277130
0
LINE
8
0
10
39.409630
20
138.277130
11
39.579285
21
137.436800
0
LINE
8
0
10
39.579285
20
137.436800
11
40.041949
21
136.750578
0
LINE
8
0
10
40.041949
20
136.750578
11
40.728170
21
136.287915
0
LINE
8
0
10
40.728170
20
136.287915
11
41.568500
21
136.118260
0
LINE
8
0
10
41.568500
20
136.118260
11
42.408830
21
136.287915
0
LINE
8
0
10
42.408830
20
136.287915
11
43.095051
21
136.750578
0
LINE
8
0
10
43.095051
20
136.750578
11
43.557715
21
137.436800
0
LINE
8
0
10
43.557715
20
137.436800
11
43.727370
21
138.277130
0
LINE
8
0
10
43.727370
20
138.277130
11
43.557715
21
139.117460
0
LINE
8
0
10
43.557715
20
139.117460
11
43.095051
21
139.803682
0
LINE
8
0
10
43.095051
20
139.803682
11
42.408830
21
140.266345
0
LINE
8
0
10
42.408830
20
140.266345
11
41.568500
21
140.436000
0
LINE
8
0
10
41.568500
20
140.436000
11
41.568500
21
140.436000
0
LINE
8
0
10
28.869300
20
236.315000
11
27.295411
21
236.106183
0
LINE
8
0
10
27.295411
20
236.106183
11
25.853235
21
235.506830
0
LINE
8
0
10
25.853235
20
235.506830
11
24.613097
21
234.557541
0
LINE
8
0
10
24.613097
20
234.557541
11
23.645322
21
233.298915
0
LINE
8
0
10
23.645322
20
233.298915
11
23.039208
21
231.831484
0
LINE
8
0
10
23.039208
20
231.831484
11
22.837170
21
230.282850
0
LINE
8
0
10
22.837170
20
230.282850
11
23.039208
21
228.734216
0
LINE
8
0
10
23.039208
20
228.734216
11
23.645322
21
227.266785
0
LINE
8
0
10
23.645322
20
227.266785
11
24.613097
21
226.008159
0
LINE
8
0
10
24.613097
20
226.008159
11
25.853235
21
225.058872
0
LINE
8
0
10
25.853235
20
225.058872
11
27.295411
21
224.459525
0
LINE
8
0
10
27.295411
20
224.459525
11
28.869300
21
224.250720
0
LINE
8
0
10
28.869300
20
224.250720
11
30.443189
21
224.459531
0
LINE
8
0
10
30.443189
20
224.459531
11
31.885365
21
225.058881
0
LINE
8
0
10
31.885365
20
225.058881
11
33.125503
21
226.008169
0
LINE
8
0
10
33.125503
20
226.008169
11
34.093278
21
227.266795
0
LINE
8
0
10
34.093278
20
227.266795
11
34.699392
21
228.734226
0
LINE
8
0
10
34.699392
20
228.734226
11
34.901430
21
230.282860
0
LINE
8
0
10
34.901430
20
230.282860
11
34.699392
21
231.831494
0
LINE
8
0
10
34.699392
20
231.831494
11
34.093278
21
233.298925
0
LINE
8
0
10
34.093278
20
233.298925
11
33.125503
21
234.557551
0
LINE
8
0
10
33.125503
20
234.557551
11
31.885365
21
235.506838
0
LINE
8
0
10
31.885365
20
235.506838
11
30.443189
21
236.106185
0
LINE
8
0
10
30.443189
20
236.106185
11
28.869300
21
236.314990
0
LINE
8
0
10
28.869300
20
236.314990
11
28.869300
21
236.315000
0
LINE
8
0
10
16.170100
20
140.436000
11
15.329770
21
140.266345
0
LINE
8
0
10
15.329770
20
140.266345
11
14.643549
21
139.803682
0
LINE
8
0
10
14.643549
20
139.803682
11
14.180885
21
139.117460
0
LINE
8
0
10
14.180885
20
139.117460
11
14.011230
21
138.277130
0
LINE
8
0
10
14.011230
20
138.277130
11
14.180885
21
137.436800
0
LINE
8
0
10
14.180885
20
137.436800
11
14.643549
21
136.750578
0
LINE
8
0
10
14.643549
20
136.750578
11
15.329770
21
136.287915
0
LINE
8
0
10
15.329770
20
136.287915
11
16.170100
21
136.118260
0
LINE
8
0
10
16.170100
20
136.118260
11
17.010430
21
136.287915
0
LINE
8
0
10
17.010430
20
136.287915
11
17.696651
21
136.750578
0
LINE
8
0
10
17.696651
20
136.750578
11
18.159315
21
137.436800
0
LINE
8
0
10
18.159315
20
137.436800
11
18.328970
21
138.277130
0
LINE
8
0
10
18.328970
20
138.277130
11
18.159315
21
139.117460
0
LINE
8
0
10
18.159315
20
139.117460
11
17.696651
21
139.803682
0
LINE
8
0
10
17.696651
20
139.803682
11
17.010430
21
140.266345
0
LINE
8
0
10
17.010430
20
140.266345
11
16.170100
21
140.436000
0
LINE
8
0
10
16.170100
20
140.436000
11
16.170100
21
140.436000
0
LINE
8
0
10
16.170100
20
79.035500
11
15.331263
21
78.864510
0
LINE
8
0
10
15.331263
20
78.864510
11
14.646553
21
78.401543
0
LINE
8
0
10
14.646553
20
78.401543
11
14.185061
21
77.715838
0
LINE
8
0
10
14.185061
20
77.715838
11
14.015876
21
76.876635
0
LINE
8
0
10
14.015876
20
76.876635
11
14.185061
21
76.037432
0
LINE
8
0
10
14.185061
20
76.037432
11
14.646553
21
75.351727
0
LINE
8
0
10
14.646553
20
75.351727
11
15.331263
21
74.888760
0
LINE
8
0
10
15.331263
20
74.888760
11
16.170100
21
74.717770
0
LINE
8
0
10
16.170100
20
74.717770
11
17.008937
21
74.888760
0
LINE
8
0
10
17.008937
20
74.888760
11
17.693647
21
75.351727
0
LINE
8
0
10
17.693647
20
75.351727
11
18.155139
21
76.037432
0
LINE
8
0
10
18.155139
20
76.037432
11
18.324324
21
76.876635
0
LINE
8
0
10
18.324324
20
76.876635
11
18.155139
21
77.715838
0
LINE
8
0
10
18.155139
20
77.715838
11
17.693647
21
78.401543
0
LINE
8
0
10
17.693647
20
78.401543
11
17.008937
21
78.864510
0
LINE
8
0
10
17.008937
20
78.864510
11
16.170100
21
79.035500
0
LINE
8
0
10
16.170100
20
79.035500
11
16.170100
21
79.035500
0
LINE
8
0
10
28.869300
20
256.761000
11
27.656570
21
256.635135
0
LINE
8
0
10
27.656570
20
256.635135
11
26.527436
21
256.281503
0
LINE
8
0
10
26.527436
20
256.281503
11
25.505969
21
255.724251
0
LINE
8
0
10
25.505969
20
255.724251
11
24.616244
21
254.987529
0
LINE
8
0
10
24.616244
20
254.987529
11
23.882331
21
254.095484
0
LINE
8
0
10
23.882331
20
254.095484
11
23.328303
21
253.072265
0
LINE
8
0
10
23.328303
20
253.072265
11
22.978234
21
251.942021
0
LINE
8
0
10
22.978234
20
251.942021
11
22.856194
21
250.728900
0
LINE
8
0
10
22.856194
20
250.728900
11
22.978234
21
249.515779
0
LINE
8
0
10
22.978234
20
249.515779
11
23.328303
21
248.385535
0
LINE
8
0
10
23.328303
20
248.385535
11
23.882331
21
247.362316
0
LINE
8
0
10
23.882331
20
247.362316
11
24.616244
21
246.470271
0
LINE
8
0
10
24.616244
20
246.470271
11
25.505969
21
245.733549
0
LINE
8
0
10
25.505969
20
245.733549
11
26.527436
21
245.176297
0
LINE
8
0
10
26.527436
20
245.176297
11
27.656570
21
244.822665
0
LINE
8
0
10
27.656570
20
244.822665
11
28.869300
21
244.696800
0
LINE
8
0
10
28.869300
20
244.696800
11
30.082030
21
244.822665
0
LINE
8
0
10
30.082030
20
244.822665
11
31.211164
21
245.176297
0
LINE
8
0
10
31.211164
20
245.176297
11
32.232631
21
245.733549
0
LINE
8
0
10
32.232631
20
245.733549
11
33.122356
21
246.470271
0
LINE
8
0
10
33.122356
20
246.470271
11
33.856269
21
247.362316
0
LINE
8
0
10
33.856269
20
247.362316
11
34.410297
21
248.385535
0
LINE
8
0
10
34.410297
20
248.385535
11
34.760366
21
249.515779
0
LINE
8
0
10
34.760366
20
249.515779
11
34.882406
21
250.728900
0
LINE
8
0
10
34.882406
20
250.728900
11
34.760366
21
251.942021
0
LINE
8
0
10
34.760366
20
251.942021
11
34.410297
21
253.072265
0
LINE
8
0
10
34.410297
20
253.072265
11
33.856269
21
254.095484
0
LINE
8
0
10
33.856269
20
254.095484
11
33.122356
21
254.987529
0
LINE
8
0
10
33.122356
20
254.987529
11
32.232631
21
255.724251
0
LINE
8
0
10
32.232631
20
255.724251
11
31.211164
21
256.281503
0
LINE
8
0
10
31.211164
20
256.281503
11
30.082030
21
256.635135
0
LINE
8
0
10
30.082030
20
256.635135
11
28.869300
21
256.761000
0
LINE
8
0
10
28.869300
20
256.761000
11
28.869300
21
256.761000
0
LINE
8
0
10
28.869300
20
174.978000
11
27.295411
21
174.769183
0
LINE
8
0
10
27.295411
20
174.769183
11
25.853235
21
174.169830
0
LINE
8
0
10
25.853235
20
174.169830
11
24.613097
21
173.220541
0
LINE
8
0
10
24.613097
20
173.220541
11
23.645322
21
171.961915
0
LINE
8
0
10
23.645322
20
171.961915
11
23.039208
21
170.494484
0
LINE
8
0
10
23.039208
20
170.494484
11
22.837170
21
168.945850
0
LINE
8
0
10
22.837170
20
168.945850
11
23.039208
21
167.397216
0
LINE
8
0
10
23.039208
20
167.397216
11
23.645322
21
165.929785
0
LINE
8
0
10
23.645322
20
165.929785
11
24.613097
21
164.671159
0
LINE
8
0
10
24.613097
20
164.671159
11
25.853235
21
163.721872
0
LINE
8
0
10
25.853235
20
163.721872
11
27.295411
21
163.122525
0
LINE
8
0
10
27.295411
20
163.122525
11
28.869300
21
162.913720
0
LINE
8
0
10
28.869300
20
162.913720
11
30.443189
21
163.122531
0
LINE
8
0
10
30.443189
20
163.122531
11
31.885365
21
163.721881
0
LINE
8
0
10
31.885365
20
163.721881
11
33.125503
21
164.671169
0
LINE
8
0
10
33.125503
20
164.671169
11
34.093278
21
165.929795
0
LINE
8
0
10
34.093278
20
165.929795
11
34.699392
21
167.397226
0
LINE
8
0
10
34.699392
20
167.397226
11
34.901430
21
168.945860
0
LINE
8
0
10
34.901430
20
168.945860
11
34.699392
21
170.494494
0
LINE
8
0
10
34.699392
20
170.494494
11
34.093278
21
171.961925
0
LINE
8
0
10
34.093278
20
171.961925
11
33.125503
21
173.220551
0
LINE
8
0
10
33.125503
20
173.220551
11
31.885365
21
174.169838
0
LINE
8
0
10
31.885365
20
174.169838
11
30.443189
21
174.769185
0
LINE
8
0
10
30.443189
20
174.769185
11
28.869300
21
174.977990
0
LINE
8
0
10
28.869300
20
174.977990
11
28.869300
21
174.978000
0
LINE
8
0
10
28.869300
20
277.207000
11
27.295411
21
276.998183
0
LINE
8
0
10
27.295411
20
276.998183
11
25.853235
21
276.398830
0
LINE
8
0
10
25.853235
20
276.398830
11
24.613097
21
275.449541
0
LINE
8
0
10
24.613097
20
275.449541
11
23.645322
21
274.190915
0
LINE
8
0
10
23.645322
20
274.190915
11
23.039208
21
272.723484
0
LINE
8
0
10
23.039208
20
272.723484
11
22.837170
21
271.174850
0
LINE
8
0
10
22.837170
20
271.174850
11
23.039208
21
269.626216
0
LINE
8
0
10
23.039208
20
269.626216
11
23.645322
21
268.158785
0
LINE
8
0
10
23.645322
20
268.158785
11
24.613097
21
266.900159
0
LINE
8
0
10
24.613097
20
266.900159
11
25.853235
21
265.950872
0
LINE
8
0
10
25.853235
20
265.950872
11
27.295411
21
265.351525
0
LINE
8
0
10
27.295411
20
265.351525
11
28.869300
21
265.142720
0
LINE
8
0
10
28.869300
20
265.142720
11
30.443189
21
265.351531
0
LINE
8
0
10
30.443189
20
265.351531
11
31.885365
21
265.950881
0
LINE
8
0
10
31.885365
20
265.950881
11
33.125503
21
266.900169
0
LINE
8
0
10
33.125503
20
266.900169
11
34.093278
21
268.158795
0
LINE
8
0
10
34.093278
20
268.158795
11
34.699392
21
269.626226
0
LINE
8
0
10
34.699392
20
269.626226
11
34.901430
21
271.174860
0
LINE
8
0
10
34.901430
20
271.174860
11
34.699392
21
272.723494
0
LINE
8
0
10
34.699392
20
272.723494
11
34.093278
21
274.190925
0
LINE
8
0
10
34.093278
20
274.190925
11
33.125503
21
275.449551
0
LINE
8
0
10
33.125503
20
275.449551
11
31.885365
21
276.398838
0
LINE
8
0
10
31.885365
20
276.398838
11
30.443189
21
276.998185
0
LINE
8
0
10
30.443189
20
276.998185
11
28.869300
21
277.206990
0
LINE
8
0
10
28.869300
20
277.206990
11
28.869300
21
277.207000
0
LINE
8
0
10
41.568500
20
283.747000
11
40.729663
21
283.576010
0
LINE
8
0
10
40.729663
20
283.576010
11
40.044953
21
283.113043
0
LINE
8
0
10
40.044953
20
283.113043
11
39.583461
21
282.427338
0
LINE
8
0
10
39.583461
20
282.427338
11
39.414276
21
281.588135
0
LINE
8
0
10
39.414276
20
281.588135
11
39.583461
21
280.748932
0
LINE
8
0
10
39.583461
20
280.748932
11
40.044953
21
280.063227
0
LINE
8
0
10
40.044953
20
280.063227
11
40.729663
21
279.600260
0
LINE
8
0
10
40.729663
20
279.600260
11
41.568500
21
279.429270
0
LINE
8
0
10
41.568500
20
279.429270
11
42.407337
21
279.600260
0
LINE
8
0
10
42.407337
20
279.600260
11
43.092047
21
280.063227
0
LINE
8
0
10
43.092047
20
280.063227
11
43.553539
21
280.748932
0
LINE
8
0
10
43.553539
20
280.748932
11
43.722724
21
281.588135
0
LINE
8
0
10
43.722724
20
281.588135
11
43.553539
21
282.427338
0
LINE
8
0
10
43.553539
20
282.427338
11
43.092047
21
283.113043
0
LINE
8
0
10
43.092047
20
283.113043
11
42.407337
21
283.576010
0
LINE
8
0
10
42.407337
20
283.576010
11
41.568500
21
283.747000
0
LINE
8
0
10
41.568500
20
283.747000
11
41.568500
21
283.747000
0
LINE
8
0
10
41.568500
20
222.219000
11
40.729663
21
222.048010
0
LINE
8
0
10
40.729663
20
222.048010
11
40.044953
21
221.585043
0
LINE
8
0
10
40.044953
20
221.585043
11
39.583461
21
220.899338
0
LINE
8
0
10
39.583461
20
220.899338
11
39.414276
21
220.060135
0
LINE
8
0
10
39.414276
20
220.060135
11
39.583461
21
219.220932
0
LINE
8
0
10
39.583461
20
219.220932
11
40.044953
21
218.535227
0
LINE
8
0
10
40.044953
20
218.535227
11
40.729663
21
218.072260
0
LINE
8
0
10
40.729663
20
218.072260
11
41.568500
21
217.901270
0
LINE
8
0
10
41.568500
20
217.901270
11
42.407337
21
218.072260
0
LINE
8
0
10
42.407337
20
218.072260
11
43.092047
21
218.535227
0
LINE
8
0
10
43.092047
20
218.535227
11
43.553539
21
219.220932
0
LINE
8
0
10
43.553539
20
219.220932
11
43.722724
21
220.060135
0
LINE
8
0
10
43.722724
20
220.060135
11
43.553539
21
220.899338
0
LINE
8
0
10
43.553539
20
220.899338
11
43.092047
21
221.585043
0
LINE
8
0
10
43.092047
20
221.585043
11
42.407337
21
222.048010
0
LINE
8
0
10
42.407337
20
222.048010
11
41.568500
21
222.219000
0
LINE
8
0
10
41.568500
20
222.219000
11
41.568500
21
222.219000
0
LINE
8
0
10
16.170100
20
283.747000
11
15.331263
21
283.576010
0
LINE
8
0
10
15.331263
20
283.576010
11
14.646553
21
283.113043
0
LINE
8
0
10
14.646553
20
283.113043
11
14.185061
21
282.427338
0
LINE
8
0
10
14.185061
20
282.427338
11
14.015876
21
281.588135
0
LINE
8
0
10
14.015876
20
281.588135
11
14.185061
21
280.748932
0
LINE
8
0
10
14.185061
20
280.748932
11
14.646553
21
280.063227
0
LINE
8
0
10
14.646553
20
280.063227
11
15.331263
21
279.600260
0
LINE
8
0
10
15.331263
20
279.600260
11
16.170100
21
279.429270
0
LINE
8
0
10
16.170100
20
279.429270
11
17.008937
21
279.600260
0
LINE
8
0
10
17.008937
20
279.600260
11
17.693647
21
280.063227
0
LINE
8
0
10
17.693647
20
280.063227
11
18.155139
21
280.748932
0
LINE
8
0
10
18.155139
20
280.748932
11
18.324324
21
281.588135
0
LINE
8
0
10
18.324324
20
281.588135
11
18.155139
21
282.427338
0
LINE
8
0
10
18.155139
20
282.427338
11
17.693647
21
283.113043
0
LINE
8
0
10
17.693647
20
283.113043
11
17.008937
21
283.576010
0
LINE
8
0
10
17.008937
20
283.576010
11
16.170100
21
283.747000
0
LINE
8
0
10
16.170100
20
283.747000
11
16.170100
21
283.747000
0
LINE
8
0
10
28.869300
20
93.195100
11
27.656570
21
93.069235
0
LINE
8
0
10
27.656570
20
93.069235
11
26.527436
21
92.715603
0
LINE
8
0
10
26.527436
20
92.715603
11
25.505969
21
92.158351
0
LINE
8
0
10
25.505969
20
92.158351
11
24.616244
21
91.421629
0
LINE
8
0
10
24.616244
20
91.421629
11
23.882331
21
90.529584
0
LINE
8
0
10
23.882331
20
90.529584
11
23.328303
21
89.506365
0
LINE
8
0
10
23.328303
20
89.506365
11
22.978234
21
88.376121
0
LINE
8
0
10
22.978234
20
88.376121
11
22.856194
21
87.163000
0
LINE
8
0
10
22.856194
20
87.163000
11
22.978234
21
85.949879
0
LINE
8
0
10
22.978234
20
85.949879
11
23.328303
21
84.819635
0
LINE
8
0
10
23.328303
20
84.819635
11
23.882331
21
83.796416
0
LINE
8
0
10
23.882331
20
83.796416
11
24.616244
21
82.904371
0
LINE
8
0
10
24.616244
20
82.904371
11
25.505969
21
82.167649
0
LINE
8
0
10
25.505969
20
82.167649
11
26.527436
21
81.610397
0
LINE
8
0
10
26.527436
20
81.610397
11
27.656570
21
81.256765
0
LINE
8
0
10
27.656570
20
81.256765
11
28.869300
21
81.130900
0
LINE
8
0
10
28.869300
20
81.130900
11
30.082030
21
81.256765
0
LINE
8
0
10
30.082030
20
81.256765
11
31.211164
21
81.610397
0
LINE
8
0
10
31.211164
20
81.610397
11
32.232631
21
82.167649
0
LINE
8
0
10
32.232631
20
82.167649
11
33.122356
21
82.904371
0
LINE
8
0
10
33.122356
20
82.904371
11
33.856269
21
83.796416
0
LINE
8
0
10
33.856269
20
83.796416
11
34.410297
21
84.819635
0
LINE
8
0
10
34.410297
20
84.819635
11
34.760366
21
85.949879
0
LINE
8
0
10
34.760366
20
85.949879
11
34.882406
21
87.163000
0
LINE
8
0
10
34.882406
20
87.163000
11
34.760366
21
88.376121
0
LINE
8
0
10
34.760366
20
88.376121
11
34.410297
21
89.506365
0
LINE
8
0
10
34.410297
20
89.506365
11
33.856269
21
90.529584
0
LINE
8
0
10
33.856269
20
90.529584
11
33.122356
21
91.421629
0
LINE
8
0
10
33.122356
20
91.421629
11
32.232631
21
92.158351
0
LINE
8
0
10
32.232631
20
92.158351
11
31.211164
21
92.715603
0
LINE
8
0
10
31.211164
20
92.715603
11
30.082030
21
93.069235
0
LINE
8
0
10
30.082030
20
93.069235
11
28.869300
21
93.195100
0
LINE
8
0
10
28.869300
20
93.195100
11
28.869300
21
93.195100
0
LINE
8
0
10
28.869300
20
195.424000
11
27.656570
21
195.298135
0
LINE
8
0
10
27.656570
20
195.298135
11
26.527436
21
194.944503
0
LINE
8
0
10
26.527436
20
194.944503
11
25.505969
21
194.387251
0
LINE
8
0
10
25.505969
20
194.387251
11
24.616244
21
193.650529
0
LINE
8
0
10
24.616244
20
193.650529
11
23.882331
21
192.758484
0
LINE
8
0
10
23.882331
20
192.758484
11
23.328303
21
191.735265
0
LINE
8
0
10
23.328303
20
191.735265
11
22.978234
21
190.605021
0
LINE
8
0
10
22.978234
20
190.605021
11
22.856194
21
189.391900
0
LINE
8
0
10
22.856194
20
189.391900
11
22.978234
21
188.178779
0
LINE
8
0
10
22.978234
20
188.178779
11
23.328303
21
187.048535
0
LINE
8
0
10
23.328303
20
187.048535
11
23.882331
21
186.025316
0
LINE
8
0
10
23.882331
20
186.025316
11
24.616244
21
185.133271
0
LINE
8
0
10
24.616244
20
185.133271
11
25.505969
21
184.396549
0
LINE
8
0
10
25.505969
20
184.396549
11
26.527436
21
183.839297
0
LINE
8
0
10
26.527436
20
183.839297
11
27.656570
21
183.485665
0
LINE
8
0
10
27.656570
20
183.485665
11
28.869300
21
183.359800
0
LINE
8
0
10
28.869300
20
183.359800
11
30.082030
21
183.485665
0
LINE
8
0
10
30.082030
20
183.485665
11
31.211164
21
183.839297
0
LINE
8
0
10
31.211164
20
183.839297
11
32.232631
21
184.396549
0
LINE
8
0
10
32.232631
20
184.396549
11
33.122356
21
185.133271
0
LINE
8
0
10
33.122356
20
185.133271
11
33.856269
21
186.025316
0
LINE
8
0
10
33.856269
20
186.025316
11
34.410297
21
187.048535
0
LINE
8
0
10
34.410297
20
187.048535
11
34.760366
21
188.178779
0
LINE
8
0
10
34.760366
20
188.178779
11
34.882406
21
189.391900
0
LINE
8
0
10
34.882406
20
189.391900
11
34.760366
21
190.605021
0
LINE
8
0
10
34.760366
20
190.605021
11
34.410297
21
191.735265
0
LINE
8
0
10
34.410297
20
191.735265
11
33.856269
21
192.758484
0
LINE
8
0
10
33.856269
20
192.758484
11
33.122356
21
193.650529
0
LINE
8
0
10
33.122356
20
193.650529
11
32.232631
21
194.387251
0
LINE
8
0
10
32.232631
20
194.387251
11
31.211164
21
194.944503
0
LINE
8
0
10
31.211164
20
194.944503
11
30.082030
21
195.298135
0
LINE
8
0
10
30.082030
20
195.298135
11
28.869300
21
195.424000
0
LINE
8
0
10
28.869300
20
195.424000
11
28.869300
21
195.424000
0
LINE
8
0
10
16.170100
20
222.219000
11
15.331263
21
222.048010
0
LINE
8
0
10
15.331263
20
222.048010
11
14.646553
21
221.585043
0
LINE
8
0
10
14.646553
20
221.585043
11
14.185061
21
220.899338
0
LINE
8
0
10
14.185061
20
220.899338
11
14.015876
21
220.060135
0
LINE
8
0
10
14.015876
20
220.060135
11
14.185061
21
219.220932
0
LINE
8
0
10
14.185061
20
219.220932
11
14.646553
21
218.535227
0
LINE
8
0
10
14.646553
20
218.535227
11
15.331263
21
218.072260
0
LINE
8
0
10
15.331263
20
218.072260
11
16.170100
21
217.901270
0
LINE
8
0
10
16.170100
20
217.901270
11
17.008937
21
218.072260
0
LINE
8
0
10
17.008937
20
218.072260
11
17.693647
21
218.535227
0
LINE
8
0
10
17.693647
20
218.535227
11
18.155139
21
219.220932
0
LINE
8
0
10
18.155139
20
219.220932
11
18.324324
21
220.060135
0
LINE
8
0
10
18.324324
20
220.060135
11
18.155139
21
220.899338
0
LINE
8
0
10
18.155139
20
220.899338
11
17.693647
21
221.585043
0
LINE
8
0
10
17.693647
20
221.585043
11
17.008937
21
222.048010
0
LINE
8
0
10
17.008937
20
222.048010
11
16.170100
21
222.219000
0
LINE
8
0
10
16.170100
20
222.219000
11
16.170100
21
222.219000
 0 
ENDSEC
 0 
EOF