0
SECTION
2
HEADER
9
$INSUNITS
70
1
9
$ACADVER
1
AC1014
9
$HANDSEED
5
FFFF
0
ENDSEC
0
SECTION
2
TABLES
0
TABLE
2
VPORT
5
8
100
AcDbSymbolTable
0
ENDTAB
0
TABLE
2
LTYPE
5
5
100
AcDbSymbolTable
0
LTYPE
5
14
100
AcDbSymbolTableRecord
100
AcDbLinetypeTableRecord
2
BYBLOCK
70
0
0
LTYPE
5
15
100
AcDbSymbolTableRecord
100
AcDbLinetypeTableRecord
2
BYLAYER
70
0
0
ENDTAB
0
TABLE
2
LAYER
5
2
100
AcDbSymbolTable
70
2
0
LAYER
5
50
100
AcDbSymbolTableRecord
100
AcDbLayerTableRecord
2
0
70
0
6
CONTINUOUS
0
ENDTAB
0
TABLE
2
STYLE
5
3
100
AcDbSymbolTable
70
1
0
STYLE
5
11
100
AcDbSymbolTableRecord
100
AcDbTextStyleTableRecord
2
STANDARD
70
0
0
ENDTAB
0
TABLE
2
VIEW
5
6
100
AcDbSymbolTable
70
0
0
ENDTAB
0
TABLE
2
UCS
5
7
100
AcDbSymbolTable
70
0
0
ENDTAB
0
TABLE
2
APPID
5
9
100
AcDbSymbolTable
70
2
0
APPID
5
12
100
AcDbSymbolTableRecord
100
AcDbRegAppTableRecord
2
ACAD
70
0
0
ENDTAB
0
TABLE
2
DIMSTYLE
5
A
100
AcDbSymbolTable
70
1
0
ENDTAB
0
TABLE
2
BLOCK_RECORD
5
1
100
AcDbSymbolTable
70
1
0
BLOCK_RECORD
5
1F
100
AcDbSymbolTableRecord
100
AcDbBlockTableRecord
2
*MODEL_SPACE
0
BLOCK_RECORD
5
1B
100
AcDbSymbolTableRecord
100
AcDbBlockTableRecord
2
*PAPER_SPACE
0
ENDTAB
0
ENDSEC
0
SECTION
2
BLOCKS
0
BLOCK
5
20
100
AcDbEntity
100
AcDbBlockBegin
2
*MODEL_SPACE
0
ENDBLK
5
21
100
AcDbEntity
100
AcDbBlockEnd
0
BLOCK
5
1C
100
AcDbEntity
100
AcDbBlockBegin
2
*PAPER_SPACE
0
ENDBLK
5
1D
100
AcDbEntity
100
AcDbBlockEnd
0
ENDSEC
0
SECTION
2
ENTITIES
0
SPLINE
5
100
100
AcDbEntity
8
0
100
AcDbSpline
70
0
71
3
72
10
73
6
74
0
42
0.000000001
43
0.0000000001
44
0.0000000001
40
-44.622589191350407
40
-44.622589191350407
40
-44.622589191350407
40
-44.622589191350407
40
-21.304203381519809
40
-21.304203381519809
40
-4.865108347821999
40
-4.865108347821999
40
-4.865108347821999
40
-4.865108347821999
10
36.247697065567209
20
8.3999999999999968
30
0
10
36.34792617213656
20
11.51155517972569
30
0
10
36.442389938095275
20
14.483162237952703
30
2.3036690665293008e-12
10
36.601046345647923
20
19.707221573147731
30
2.305067772702057e-12
10
36.66398369349151
20
21.849941083763319
30
5.0353422219219697e-14
10
36.724205943586654
20
24
30
5.0353422219219697e-14
0
LINE
5
101
100
AcDbEntity
8
0
100
AcDbLine
10
36.724205943586654
20
24
30
5.0353422219219438e-14
11
-4.9564695487667896
21
24.000000000000004
31
1.5385767900317128e-14
0
SPLINE
5
102
100
AcDbEntity
8
0
100
AcDbSpline
70
0
71
3
72
10
73
6
74
0
42
0.000000001
43
0.0000000001
44
0.0000000001
40
-39.503965817471048
40
-39.503965817471048
40
-39.503965817471048
40
-39.503965817471048
40
-22.188219082835051
40
-22.188219082835051
40
-0
40
-0
40
-0
40
-0
10
-4.9564695487667922
20
24.000000000000004
30
0
10
-4.9047575235029672
20
21.729176933207647
30
0
10
-4.8542309772334544
20
19.443606169028548
30
0
10
-4.7473892333022647
20
14.275096079483918
30
0
10
-4.6915072179431556
20
11.311498472277432
30
0
10
-4.6469256167884518
20
8.4000000000000004
30
0
0
SPLINE
5
103
100
AcDbEntity
8
0
100
AcDbSpline
70
0
71
3
72
8
73
4
74
0
42
0.000000001
43
0.0000000001
44
0.0000000001
40
-45.605448145366097
40
-45.605448145366097
40
-45.605448145366097
40
-45.605448145366097
40
-23.882397479537353
40
-23.882397479537353
40
-23.882397479537353
40
-23.882397479537353
10
-4.6469256167884518
20
8.4000000000000004
30
1.3987061727561026e-15
10
-4.4582896096107305
20
6.0759394922440135
30
4.1961185182683078e-15
10
-4.192354203698323
20
2.8083906264053566
30
-1.3987061727561026e-15
10
-3.9510935076610214
20
2.6225740739176923e-15
30
-1.3987061727561026e-15
0
LINE
5
104
100
AcDbEntity
8
0
100
AcDbLine
10
-3.951093507661021
20
2.5117813378875407e-15
30
-1.3987061727561e-15
11
35.697798410479436
21
-8.304817900739359e-16
31
1.6980292937259085e-12
0
SPLINE
5
105
100
AcDbEntity
8
0
100
AcDbSpline
70
0
71
3
72
8
73
4
74
0
42
0.000000001
43
0.0000000001
44
0.0000000001
40
-21.366832326242061
40
-21.366832326242061
40
-21.366832326242061
40
-21.366832326242061
40
-0
40
-0
40
-0
40
-0
10
35.697798410479436
20
-8.304817900739359e-16
30
1.6994279998986647e-12
10
35.890610942510094
20
2.763595215150719
30
1.6980292937259085e-12
10
36.076278992721342
20
5.6011982664436575
30
1.3987061727561026e-15
10
36.247697065567209
20
8.3999999999999968
30
1.3987061727561026e-15
0
SPLINE
5
106
100
AcDbEntity
8
0
100
AcDbSpline
70
0
71
3
72
11
73
7
74
0
42
0.000000001
43
0.0000000001
44
0.0000000001
40
-39.503965817471048
40
-39.503965817471048
40
-39.503965817471048
40
-39.503965817471048
40
-22.188219082835051
40
-22.188219082835051
40
-22.188219082835051
40
-0.020856788350213519
40
-0.020856788350213519
40
-0.020856788350213519
40
-0.020856788350213519
10
-4.7065343461757569
20
24.005691617149626
30
0
10
-4.6548197801951128
20
21.73475698020836
30
0
10
-4.6042893597100703
20
19.449014126572397
30
0
10
-4.5574525052025949
20
17.18326343609014
30
0
10
-4.4974926643654198
20
14.282683279573622
30
0
10
-4.4416508012602014
20
11.321499373223491
30
0
10
-4.3970806949569043
20
8.4120398184438621
30
0
0
SPLINE
5
107
100
AcDbEntity
8
0
100
AcDbSpline
70
0
71
3
72
8
73
4
74
0
42
0.000000001
43
0.0000000001
44
0.0000000001
40
-45.57995695080016
40
-45.57995695080016
40
-45.57995695080016
40
-45.57995695080016
40
-23.882397479537353
40
-23.882397479537353
40
-23.882397479537353
40
-23.882397479537353
10
-4.397080694956931
20
8.4120398184438603
30
1.4085195056596656e-15
10
-4.2084891643447548
20
6.08854826339007
30
4.1829960757979867e-15
10
-3.9429141332019104
20
2.8256271232754067
30
-1.3987061727561026e-15
10
-3.7020109365246339
20
0.021397961493715343
30
-1.3987061727561026e-15
0
SPLINE
5
108
100
AcDbEntity
8
0
100
AcDbSpline
70
0
71
3
72
11
73
7
74
0
42
0.000000001
43
0.0000000001
44
0.0000000001
40
-39.503965817471048
40
-39.503965817471048
40
-39.503965817471048
40
-39.503965817471048
40
-22.188219082835051
40
-22.188219082835051
40
-22.188219082835051
40
-0.17082230782100521
40
-0.17082230782100521
40
-0.17082230782100521
40
-0.17082230782100521
10
-2.9070008875202986
20
24.046671260626884
30
0
10
-2.8552680283785565
20
21.774933318613485
30
0
10
-2.8047097135417038
20
19.487951420888081
30
0
10
-2.7578369682021031
20
17.220464497720599
30
0
10
-2.6982371717003644
20
14.337301623175637
30
0
10
-2.6426847590663227
20
11.393495923767558
30
0
10
-2.5981993218149992
20
8.4987542122327469
30
0
0
SPLINE
5
109
100
AcDbEntity
8
0
100
AcDbSpline
70
0
71
3
72
8
73
4
74
0
42
0.000000001
43
0.0000000001
44
0.0000000001
40
-45.397178335417706
40
-45.397178335417706
40
-45.397178335417706
40
-45.397178335417706
40
-23.882397479537353
40
-23.882397479537353
40
-23.882397479537353
40
-23.882397479537353
10
-2.5981993218149806
20
8.4987542122327486
30
1.4768648471780239e-15
10
-2.4099494296938122
20
6.1796324493342283
30
4.0893819360451175e-15
10
-2.1469591824714271
20
2.9498877089254965
30
-1.3987061727561026e-15
10
-1.9086164243426436
20
0.1754632842484469
30
-1.3987061727561026e-15
0
LINE
5
110
100
AcDbEntity
8
0
100
AcDbLine
10
-1.9086164243426436
20
0.17546328424844693
30
-1.3987061727561026e-15
11
-1.893542882332943
21
2.3383370054924214e-15
31
-1.3987061727561026e-15
0
LINE
5
111
100
AcDbEntity
8
0
100
AcDbLine
10
-3.7020109365246339
20
0.021397961493715638
30
-1.3987061727561044e-15
11
-3.7001726996941824
21
2.4906343528486888e-15
31
-1.3987061727561044e-15
0
ENDSEC
0
SECTION
2
OBJECTS
0
DICTIONARY
5
C
100
AcDbDictionary
3
ACAD_GROUP
350
D
3
ACAD_MLINESTYLE
350
17
0
DICTIONARY
5
D
100
AcDbDictionary
0
DICTIONARY
5
1A
330
C
100
AcDbDictionary
0
DICTIONARY
5
17
100
AcDbDictionary
0
ENDSEC
0
EOF
