0
SECTION
2
HEADER
9
$INSUNITS
70
1
9
$ACADVER
1
AC1014
9
$HANDSEED
5
FFFF
0
ENDSEC
0
SECTION
2
TABLES
0
TABLE
2
VPORT
5
8
100
AcDbSymbolTable
0
ENDTAB
0
TABLE
2
LTYPE
5
5
100
AcDbSymbolTable
0
LTYPE
5
14
100
AcDbSymbolTableRecord
100
AcDbLinetypeTableRecord
2
BYBLOCK
70
0
0
LTYPE
5
15
100
AcDbSymbolTableRecord
100
AcDbLinetypeTableRecord
2
BYLAYER
70
0
0
ENDTAB
0
TABLE
2
LAYER
5
2
100
AcDbSymbolTable
70
2
0
LAYER
5
50
100
AcDbSymbolTableRecord
100
AcDbLayerTableRecord
2
0
70
0
6
CONTINUOUS
0
ENDTAB
0
TABLE
2
STYLE
5
3
100
AcDbSymbolTable
70
1
0
STYLE
5
11
100
AcDbSymbolTableRecord
100
AcDbTextStyleTableRecord
2
STANDARD
70
0
0
ENDTAB
0
TABLE
2
VIEW
5
6
100
AcDbSymbolTable
70
0
0
ENDTAB
0
TABLE
2
UCS
5
7
100
AcDbSymbolTable
70
0
0
ENDTAB
0
TABLE
2
APPID
5
9
100
AcDbSymbolTable
70
2
0
APPID
5
12
100
AcDbSymbolTableRecord
100
AcDbRegAppTableRecord
2
ACAD
70
0
0
ENDTAB
0
TABLE
2
DIMSTYLE
5
A
100
AcDbSymbolTable
70
1
0
ENDTAB
0
TABLE
2
BLOCK_RECORD
5
1
100
AcDbSymbolTable
70
1
0
BLOCK_RECORD
5
1F
100
AcDbSymbolTableRecord
100
AcDbBlockTableRecord
2
*MODEL_SPACE
0
BLOCK_RECORD
5
1B
100
AcDbSymbolTableRecord
100
AcDbBlockTableRecord
2
*PAPER_SPACE
0
ENDTAB
0
ENDSEC
0
SECTION
2
BLOCKS
0
BLOCK
5
20
100
AcDbEntity
100
AcDbBlockBegin
2
*MODEL_SPACE
0
ENDBLK
5
21
100
AcDbEntity
100
AcDbBlockEnd
0
BLOCK
5
1C
100
AcDbEntity
100
AcDbBlockBegin
2
*PAPER_SPACE
0
ENDBLK
5
1D
100
AcDbEntity
100
AcDbBlockEnd
0
ENDSEC
0
SECTION
2
ENTITIES
0
SPLINE
5
100
100
AcDbEntity
8
0
100
AcDbSpline
70
0
71
3
72
26
73
22
74
0
42
0.000000001
43
0.0000000001
44
0.0000000001
40
-294.20643943027278
40
-294.20643943027278
40
-294.20643943027278
40
-294.20643943027278
40
-268.49702616134908
40
-268.49702616134908
40
-247.72564248652401
40
-247.72564248652401
40
-225.19629751086353
40
-225.19629751086353
40
-194.9864725604312
40
-194.9864725604312
40
-157.25272517378184
40
-157.25272517378184
40
-133.22608448527822
40
-133.22608448527822
40
-105.02460807369403
40
-105.02460807369403
40
-77.310613978647609
40
-77.310613978647609
40
-43.028530468601048
40
-43.028530468601048
40
0
40
0
40
0
40
0
10
-1.9318547018716103e-14
20
-18.124713537620515
30
0
10
-1.9774444066933803
20
-18.098193183937514
30
0
10
-4.0107442663357542
20
-17.917607422342201
30
0
10
-7.4993612453986813
20
-17.094235418891497
30
0
10
-9.0075268684543826
20
-16.543516639496687
30
0
10
-11.894624499821301
20
-14.857537247313617
30
0
10
-13.15999763721989
20
-13.730737218753902
30
0
10
-15.613571876341286
20
-10.483189492966391
30
0
10
-16.409544064521356
20
-8.4372560889043804
30
0
10
-17.459639706730574
20
-4.9015597745366275
30
0
10
-17.774358950950813
20
-2.8401496801832002
30
0
10
-17.885869753901392
20
0.17599328418075083
30
0
10
-17.830648572116548
20
1.1500420581699071
30
0
10
-17.511801312769709
20
3.1266455043290686
30
0
10
-17.198031522254965
20
4.1711519538850412
30
0
10
-16.174676650742779
20
6.0647182557792458
30
0
10
-15.505703307129691
20
6.8567161379053614
30
0
10
-13.648982370683472
20
8.3549969808375231
30
0
10
-12.363790987960899
20
9.006684496981217
30
0
10
-8.8345629623907147
20
10.150323555116341
30
0
10
-5.6444554503334459
20
10.819086916918511
30
0
10
0
20
10.981401867748978
30
0
0
SPLINE
5
101
100
AcDbEntity
8
0
100
AcDbSpline
70
0
71
3
72
26
73
22
74
0
42
0.000000001
43
0.0000000001
44
0.0000000001
40
-279.32989567950585
40
-279.32989567950585
40
-279.32989567950585
40
-279.32989567950585
40
-215.7643297634059
40
-215.7643297634059
40
-174.9447028614205
40
-174.9447028614205
40
-139.47612408425798
40
-139.47612408425798
40
-109.22925808235082
40
-109.22925808235082
40
-94.129140683950666
40
-94.129140683950666
40
-80.568841793074327
40
-80.568841793074327
40
-57.327801276044497
40
-57.327801276044497
40
-41.796672832467507
40
-41.796672832467507
40
-24.35313970412102
40
-24.35313970412102
40
0
40
0
40
0
40
0
10
0
20
10.981401867748978
30
0
10
5.6158243454511299
20
10.819910248136569
30
0
10
8.8780315590359447
20
10.156185723968145
30
0
10
12.283199363465048
20
9.0187453081394917
30
0
10
13.449454826570367
20
8.4530701356321476
30
0
10
15.277555548824564
20
7.0820316540677934
30
0
10
15.979598497618047
20
6.3212951461920257
30
0
10
16.985562505667612
20
4.6278699650264343
30
0
10
17.453802943261206
20
3.534924099490826
30
0
10
17.813561899702162
20
1.2301365291864184
30
0
10
17.879419288797894
20
0.35468485858546406
30
0
10
17.822670960446981
20
-1.7909256701215557
30
0
10
17.721111392681699
20
-2.8262639774151581
30
0
10
17.287496832604013
20
-5.5503601232624842
30
0
10
16.742051872058187
20
-7.8141461187265309
30
0
10
14.942200213563186
20
-11.42503976001217
30
0
10
14.024967398179834
20
-12.742565027287281
30
0
10
11.553290177442078
20
-15.133022405195215
30
0
10
10.034155922077277
20
-16.060188824447078
30
0
10
5.9776397904659406
20
-17.644762519550113
30
0
10
3.19566270914263
20
-18.081855136640353
30
0
10
1.9318547018716103e-14
20
-18.124713537620515
30
0
0
SPLINE
5
102
100
AcDbEntity
8
0
100
AcDbSpline
70
0
71
3
72
26
73
22
74
0
42
0.000000001
43
0.0000000001
44
0.0000000001
40
-279.32989567950585
40
-279.32989567950585
40
-279.32989567950585
40
-279.32989567950585
40
-215.7643297634059
40
-215.7643297634059
40
-174.9447028614205
40
-174.9447028614205
40
-139.47612408425798
40
-139.47612408425798
40
-109.22925808235082
40
-109.22925808235082
40
-94.129140683950666
40
-94.129140683950666
40
-80.568841793074327
40
-80.568841793074327
40
-57.327801276044497
40
-57.327801276044497
40
-41.796672832467507
40
-41.796672832467507
40
-24.35313970412102
40
-24.35313970412102
40
0
40
0
40
0
40
0
10
0
20
10.981401867748978
30
0
10
5.6158243454511299
20
10.819910248136569
30
0
10
8.8780315590359447
20
10.156185723968145
30
0
10
12.283199363465048
20
9.0187453081394917
30
0
10
13.449454826570367
20
8.4530701356321476
30
0
10
15.277555548824564
20
7.0820316540677934
30
0
10
15.979598497618047
20
6.3212951461920257
30
0
10
16.985562505667612
20
4.6278699650264343
30
0
10
17.453802943261206
20
3.534924099490826
30
0
10
17.813561899702162
20
1.2301365291864184
30
0
10
17.879419288797894
20
0.35468485858546406
30
0
10
17.822670960446981
20
-1.7909256701215557
30
0
10
17.721111392681699
20
-2.8262639774151581
30
0
10
17.287496832604013
20
-5.5503601232624842
30
0
10
16.742051872058187
20
-7.8141461187265309
30
0
10
14.942200213563186
20
-11.42503976001217
30
0
10
14.024967398179834
20
-12.742565027287281
30
0
10
11.553290177442078
20
-15.133022405195215
30
0
10
10.034155922077277
20
-16.060188824447078
30
0
10
5.9776397904659406
20
-17.644762519550113
30
0
10
3.19566270914263
20
-18.081855136640353
30
0
10
1.9318547018716103e-14
20
-18.124713537620515
30
0
0
SPLINE
5
103
100
AcDbEntity
8
0
100
AcDbSpline
70
0
71
3
72
26
73
22
74
0
42
0.000000001
43
0.0000000001
44
0.0000000001
40
-294.20643943027278
40
-294.20643943027278
40
-294.20643943027278
40
-294.20643943027278
40
-268.49702616134908
40
-268.49702616134908
40
-247.72564248652401
40
-247.72564248652401
40
-225.19629751086353
40
-225.19629751086353
40
-194.9864725604312
40
-194.9864725604312
40
-157.25272517378184
40
-157.25272517378184
40
-133.22608448527822
40
-133.22608448527822
40
-105.02460807369403
40
-105.02460807369403
40
-77.310613978647609
40
-77.310613978647609
40
-43.028530468601048
40
-43.028530468601048
40
0
40
0
40
0
40
0
10
-1.9318547018716103e-14
20
-18.124713537620515
30
0
10
-1.9774444066933803
20
-18.098193183937514
30
0
10
-4.0107442663357542
20
-17.917607422342201
30
0
10
-7.4993612453986813
20
-17.094235418891497
30
0
10
-9.0075268684543826
20
-16.543516639496687
30
0
10
-11.894624499821301
20
-14.857537247313617
30
0
10
-13.15999763721989
20
-13.730737218753902
30
0
10
-15.613571876341286
20
-10.483189492966391
30
0
10
-16.409544064521356
20
-8.4372560889043804
30
0
10
-17.459639706730574
20
-4.9015597745366275
30
0
10
-17.774358950950813
20
-2.8401496801832002
30
0
10
-17.885869753901392
20
0.17599328418075083
30
0
10
-17.830648572116548
20
1.1500420581699071
30
0
10
-17.511801312769709
20
3.1266455043290686
30
0
10
-17.198031522254965
20
4.1711519538850412
30
0
10
-16.174676650742779
20
6.0647182557792458
30
0
10
-15.505703307129691
20
6.8567161379053614
30
0
10
-13.648982370683472
20
8.3549969808375231
30
0
10
-12.363790987960899
20
9.006684496981217
30
0
10
-8.8345629623907147
20
10.150323555116341
30
0
10
-5.6444554503334459
20
10.819086916918511
30
0
10
0
20
10.981401867748978
30
0
0
LINE
5
104
100
AcDbEntity
8
0
100
AcDbLine
10
0.37500002726759818
20
8.1062461448054357
30
0
11
-0.37499997273240165
21
8.1062461448054357
31
0
0
LINE
5
105
100
AcDbEntity
8
0
100
AcDbLine
10
-0.37499997273240165
20
8.1062461448054357
30
0
11
-0.37499997273240332
21
10.606246144805436
31
0
0
LINE
5
106
100
AcDbEntity
8
0
100
AcDbLine
10
-0.37499997273240332
20
10.606246144805436
30
0
11
0.37500002726759452
21
10.606246144805436
31
0
0
LINE
5
107
100
AcDbEntity
8
0
100
AcDbLine
10
0.37500002726759452
20
10.606246144805436
30
0
11
0.37500002726759818
21
8.1062461448054357
31
0
0
LINE
5
108
100
AcDbEntity
8
0
100
AcDbLine
10
0.37500002726759818
20
8.1062461448054357
30
0
11
-0.37499997273240332
21
10.606246144805436
31
0
0
LINE
5
109
100
AcDbEntity
8
0
100
AcDbLine
10
-0.37499997273240165
20
8.1062461448054357
30
0
11
0.37500002726759452
21
10.606246144805436
31
0
0
SPLINE
5
110
100
AcDbEntity
8
0
100
AcDbSpline
70
0
71
3
72
44
73
40
74
0
42
0.000000001
43
0.0000000001
44
0.0000000001
40
-279.28903001430638
40
-279.28903001430638
40
-279.28903001430638
40
-279.28903001430638
40
-232.26288832363727
40
-232.26288832363727
40
-232.26288832363727
40
-215.7643297634059
40
-215.7643297634059
40
-215.7643297634059
40
-174.9447028614205
40
-174.9447028614205
40
-174.9447028614205
40
-139.47612408425798
40
-139.47612408425798
40
-139.47612408425798
40
-111.29830035139119
40
-111.29830035139119
40
-111.29830035139119
40
-109.22925808235082
40
-109.22925808235082
40
-109.22925808235082
40
-94.129140683950666
40
-94.129140683950666
40
-94.129140683950666
40
-80.568841793074327
40
-80.568841793074327
40
-80.568841793074327
40
-57.327801276044497
40
-57.327801276044497
40
-57.327801276044497
40
-41.796672832467507
40
-41.796672832467507
40
-41.796672832467507
40
-24.35313970412102
40
-24.35313970412102
40
-24.35313970412102
40
-1.9358173055669674
40
-1.9358173055669674
40
-1.9358173055669674
40
-0.012901575612516291
40
-0.012901575612516291
40
-0.012901575612516291
40
-0.012901575612516291
10
2.7267596881491409e-08
20
10.606246144805436
30
0
10
4.1336213717275871
20
10.486838024689524
30
0
10
6.9734801027129603
20
10.094091527697225
30
0
10
8.9912506147450202
20
9.6235497319485095
30
0
10
9.6991612312027264
20
9.4584657787876889
30
0
10
10.305976911929545
20
9.2838361899264132
30
0
10
10.832805558263077
20
9.107857727491572
30
0
10
12.136177610699018
20
8.6724876857057076
30
0
10
13.264893885027512
20
8.1227416615496395
30
0
10
14.202622889371467
20
7.4194639183795239
30
0
10
15.017285223644446
20
6.8084836828966431
30
0
10
15.683022479341121
20
6.0862947383685224
30
0
10
16.200142838575818
20
5.2157818462429777
30
0
10
16.61106691920585
20
4.5240382250816005
30
0
10
17.02889470704654
20
3.5717194955819394
30
0
10
17.27250799287043
20
2.2394417496338672
30
0
10
17.290396038109407
20
2.1416152107002331
30
0
10
17.307335931711759
20
2.0417415862468338
30
0
10
17.323252127361151
20
1.9397748408955497
30
0
10
17.439576539963085
20
1.1945451378182175
30
0
10
17.504030282716535
20
0.3449350784182354
30
0
10
17.474651777889147
20
-0.7658435314030908
30
0
10
17.448284683105769
20
-1.7627630499623508
30
0
10
17.348358817531285
20
-2.7824859157227553
30
0
10
17.190998504047514
20
-3.7710703935909962
30
0
10
16.921283168783297
20
-5.4655026680458541
30
0
10
16.382374909131666
20
-7.6951247815553421
30
0
10
15.327556295690199
20
-9.8113201946653348
30
0
10
14.62267141856314
20
-11.225472471406189
30
0
10
13.729937019660326
20
-12.506211167058316
30
0
10
12.600103510940743
20
-13.598918104706179
30
0
10
11.331084708555069
20
-14.826236677461107
30
0
10
9.8578820388688051
20
-15.726450858299803
30
0
10
8.2047551044365665
20
-16.372202377578766
30
0
10
6.0801889584828839
20
-17.202109499641011
30
0
10
3.592084352852646
20
-17.63554426442532
30
0
10
0.7415135733752003
20
-17.73218934070697
30
0
10
0.49699697617627447
20
-17.740479373481655
30
0
10
0.24982407076297475
20
-17.746295862479673
30
0
10
1.9449530182897268e-08
20
-17.749679480600946
30
0
0
SPLINE
5
111
100
AcDbEntity
8
0
100
AcDbSpline
70
0
71
3
72
44
73
40
74
0
42
0.000000001
43
0.0000000001
44
0.0000000001
40
-294.18443046141482
40
-294.18443046141482
40
-294.18443046141482
40
-294.18443046141482
40
-268.49702616134908
40
-268.49702616134908
40
-268.49702616134908
40
-247.72564248652401
40
-247.72564248652401
40
-247.72564248652401
40
-225.19629751086353
40
-225.19629751086353
40
-225.19629751086353
40
-198.05097754405762
40
-198.05097754405762
40
-198.05097754405762
40
-194.9864725604312
40
-194.9864725604312
40
-194.9864725604312
40
-157.25272517378184
40
-157.25272517378184
40
-157.25272517378184
40
-133.22608448527822
40
-133.22608448527822
40
-133.22608448527822
40
-105.02460807369403
40
-105.02460807369403
40
-105.02460807369403
40
-77.310613978647609
40
-77.310613978647609
40
-77.310613978647609
40
-45.220160800319256
40
-45.220160800319256
40
-45.220160800319256
40
-43.028530468601048
40
-43.028530468601048
40
-43.028530468601048
40
-15.676249691006181
40
-15.676249691006181
40
-15.676249691006181
40
-0.027522672369049601
40
-0.027522672369049601
40
-0.027522672369049601
40
-0.027522672369049601
10
1.9449530157627674e-08
20
-17.749679480600943
30
0
10
-1.9564743872700463
20
-17.723180573755016
30
0
10
-3.9619755697476617
20
-17.543814703911124
30
0
10
-5.8542250704261418
20
-17.09721214715216
30
0
10
-7.3844280242740519
20
-16.73605863578722
30
0
10
-8.8567810791520092
20
-16.197288422097493
30
0
10
-10.203363689546192
20
-15.410924114104979
30
0
10
-11.663952212240689
20
-14.557983734476693
30
0
10
-12.889426259124471
20
-13.466781676534803
30
0
10
-13.908920071729453
20
-12.117380969684648
30
0
10
-15.137050872573166
20
-10.49182861196271
30
0
10
-15.89343914700137
20
-8.7088403793087164
30
0
10
-16.367055895119712
20
-7.242289815415667
30
0
10
-16.420523707866526
20
-7.0767271505700835
30
0
10
-16.470400441034759
20
-6.9152070810343966
30
0
10
-16.516968755615043
20
-6.7584104887912151
30
0
10
-17.090249082324497
20
-4.8281623696943567
30
0
10
-17.400808809680637
20
-2.7940041610169555
30
0
10
-17.467744739153492
20
-0.98352188126703299
30
0
10
-17.510408594177822
20
0.17044959736462292
30
0
10
-17.456085744896285
20
1.1172804135395966
30
0
10
-17.313754177801776
20
1.9996247265895226
30
0
10
-17.146868935591673
20
3.0341826071914633
30
0
10
-16.84397694134033
20
4.0375461401729265
30
0
10
-16.351989064311432
20
4.9478966850486916
30
0
10
-15.868389839597857
20
5.8427252738710962
30
0
10
-15.234409539655186
20
6.5937699143707773
30
0
10
-14.44020143836125
20
7.2346560917775991
30
0
10
-13.520526218021724
20
7.9767879530100707
30
0
10
-12.373779845409464
20
8.5787908442690526
30
0
10
-10.973618301766777
20
9.0601411011601698
30
0
10
-10.877993709265695
20
9.0930151094304978
30
0
10
-10.781194305408825
20
9.1253242498784797
30
0
10
-10.683214497781162
20
9.1570744043314392
30
0
10
-9.4600052320620254
20
9.553452842452673
30
0
10
-7.7426441294183599
20
9.9659022017180163
30
0
10
-5.2086799017554197
20
10.255813575563108
30
0
10
-3.758953833347614
20
10.421677036302958
30
0
10
-2.0423608029151303
20
10.547247773338917
30
0
10
2.7267597471570575e-08
20
10.606246144805416
30
0
0
SPLINE
5
112
100
AcDbEntity
8
0
100
AcDbSpline
70
0
71
3
72
20
73
16
74
0
42
0.000000001
43
0.0000000001
44
0.0000000001
40
-278.08403604518043
40
-278.08403604518043
40
-278.08403604518043
40
-278.08403604518043
40
-252.02099150771815
40
-252.02099150771815
40
-252.02099150771815
40
-233.89266063556204
40
-233.89266063556204
40
-233.89266063556204
40
-217.74026018166464
40
-217.74026018166464
40
-217.74026018166464
40
-215.7643297634059
40
-215.7643297634059
40
-215.7643297634059
40
-214.0550683853898
40
-214.0550683853898
40
-214.0550683853898
40
-214.0550683853898
10
2.1006176685808293e-05
20
0.97669469496857164
30
0
10
1.9836295637725005
20
0.91170079984205199
30
0
10
3.5303683756763404
20
0.77644284587875168
30
0
10
4.7109489913281237
20
0.6196943868809196
30
0
10
5.5321100030827841
20
0.51066691220009786
30
0
10
6.1758307071869858
20
0.39167557651718871
30
0
10
6.6743660777815625
20
0.27998946652902046
30
0
10
7.1185626782884475
20
0.18047678737565487
30
0
10
7.4470964679332168
20
0.08729887430502041
30
0
10
7.6956035947723338
20
0.0074484354729965202
30
0
10
7.7260035834598995
20
-0.0023197046526672585
30
0
10
7.7552276389568826
20
-0.0119020783213101
30
0
10
7.7833604619222534
20
-0.021299386087036961
30
0
10
7.8076160668198691
20
-0.029401572794263107
30
0
10
7.8312189098654397
20
-0.037420233146492288
30
0
10
7.8541303230381416
20
-0.045331518022302286
30
0
0
SPLINE
5
113
100
AcDbEntity
8
0
100
AcDbSpline
70
0
71
3
72
50
73
46
74
0
42
0.000000001
43
0.0000000001
44
0.0000000001
40
-98.889888251070161
40
-98.889888251070161
40
-98.889888251070161
40
-98.889888251070161
40
-95.330383516333129
40
-95.330383516333129
40
-95.330383516333129
40
-94.129140683950666
40
-94.129140683950666
40
-94.129140683950666
40
-82.425502413508326
40
-82.425502413508326
40
-82.425502413508326
40
-80.568841793074327
40
-80.568841793074327
40
-80.568841793074327
40
-69.702223273334553
40
-69.702223273334553
40
-69.702223273334553
40
-60.622846052603542
40
-60.622846052603542
40
-60.622846052603542
40
-57.327801276044497
40
-57.327801276044497
40
-57.327801276044497
40
-49.462089862278262
40
-49.462089862278262
40
-49.462089862278262
40
-41.796672832467507
40
-41.796672832467507
40
-41.796672832467507
40
-34.255213814838761
40
-34.255213814838761
40
-34.255213814838761
40
-26.521544553096994
40
-26.521544553096994
40
-26.521544553096994
40
-24.35313970412102
40
-24.35313970412102
40
-24.35313970412102
40
-15.408075354035585
40
-15.408075354035585
40
-15.408075354035585
40
-4.8650419430931002
40
-4.8650419430931002
40
-4.8650419430931002
40
-0.46367358519200441
40
-0.46367358519200441
40
-0.46367358519200441
40
-0.46367358519200441
10
7.8541303230381292
20
-0.045331518022313784
30
0
10
7.8565756203074733
20
-0.13676109610095366
30
0
10
7.8575582699296866
20
-0.24509495638284196
30
0
10
7.8557955548335938
20
-0.37389736552209157
30
0
10
7.8552006830656067
20
-0.4173649213486601
30
0
10
7.854291647161439
20
-0.46315216561743411
30
0
10
7.8530164854779025
20
-0.51136504542383943
30
0
10
7.8409509671470339
20
-0.96755298817585078
30
0
10
7.7966037799998258
20
-1.4912665447363593
30
0
10
7.7228337572604664
20
-2.0111330089735278
30
0
10
7.7111309095627041
20
-2.0936044225399462
30
0
10
7.6987245810698681
20
-2.1759961409009541
30
0
10
7.6856656632284173
20
-2.2580361622380134
30
0
10
7.6090479620701714
20
-2.739371439336328
30
0
10
7.4950143343560702
20
-3.2939131235445362
30
0
10
7.3431957573980835
20
-3.8357330539269814
30
0
10
7.2163469012601622
20
-4.2884394339950873
30
0
10
7.0630759602552162
20
-4.7317022731537097
30
0
10
6.897235155149688
20
-5.1191935547017469
30
0
10
6.8370489920111419
20
-5.2598200637878216
30
0
10
6.775361714247305
20
-5.393186156468099
30
0
10
6.7133620486614296
20
-5.5175709618320425
30
0
10
6.5655147885256593
20
-5.8141847016288919
30
0
10
6.4209923060371032
20
-6.050022423585478
30
0
10
6.2857078658654206
20
-6.2385378123427122
30
0
10
6.1538683415033271
20
-6.4222527994997574
30
0
10
6.0315538244897695
20
-6.5615939236989629
30
0
10
5.9088238968874176
20
-6.680290919595369
30
0
10
5.7873320422270291
20
-6.7977905258918403
30
0
10
5.664862848448708
20
-6.896636956122129
30
0
10
5.513072509293492
20
-6.9975480085926378
30
0
10
5.3574134680642054
20
-7.1010309954837565
30
0
10
5.1697461345127991
20
-7.2064531405842347
30
0
10
4.9236412557215621
20
-7.3151695826873429
30
0
10
4.8546371395037227
20
-7.3456520422083367
30
0
10
4.7811165420719206
20
-7.3762915541061842
30
0
10
4.7026993775390968
20
-7.4069232025778797
30
0
10
4.3784454032369773
20
-7.5335846779773759
30
0
10
3.9665142107039291
20
-7.6615298067915232
30
0
10
3.4502525622181488
20
-7.7733779136904806
30
0
10
2.8417646189512178
20
-7.905206851061414
30
0
10
2.0888913206925772
20
-8.0134171265555949
30
0
10
1.193795628110369
20
-8.0736891244781948
30
0
10
0.82012272913842899
20
-8.0988506936570133
30
0
10
0.42190682111763927
20
-8.1158113652776205
30
0
10
1.9703016388834694e-05
20
-8.1234936257816734
30
0
0
SPLINE
5
114
100
AcDbEntity
8
0
100
AcDbSpline
70
0
71
3
72
47
73
43
74
0
42
0.000000001
43
0.0000000001
44
0.0000000001
40
-293.41775368082847
40
-293.41775368082847
40
-293.41775368082847
40
-293.41775368082847
40
-279.62426360362525
40
-279.62426360362525
40
-279.62426360362525
40
-268.49702616134908
40
-268.49702616134908
40
-268.49702616134908
40
-257.46233870291371
40
-257.46233870291371
40
-257.46233870291371
40
-247.72564248652401
40
-247.72564248652401
40
-247.72564248652401
40
-237.39733600935327
40
-237.39733600935327
40
-237.39733600935327
40
-227.05780134010706
40
-227.05780134010706
40
-227.05780134010706
40
-225.19629751086353
40
-225.19629751086353
40
-225.19629751086353
40
-214.36404141686225
40
-214.36404141686225
40
-214.36404141686225
40
-201.35028140119701
40
-201.35028140119701
40
-201.35028140119701
40
-194.9864725604312
40
-194.9864725604312
40
-194.9864725604312
40
-176.1195988671065
40
-176.1195988671065
40
-176.1195988671065
40
-159.16403798845678
40
-159.16403798845678
40
-159.16403798845678
40
-157.25272517378184
40
-157.25272517378184
40
-157.25272517378184
40
-148.39401293880101
40
-148.39401293880101
40
-148.39401293880101
40
-148.39401293880101
10
1.9703016394036134e-05
20
-8.123493625781526
30
0
10
-0.77961713573354419
20
-8.1092895187586489
30
0
10
-1.5227225108484701
20
-8.0616117665090385
30
0
10
-2.191206537428311
20
-7.9809216394392566
30
0
10
-2.7304740069729698
20
-7.915828744303397
30
0
10
-3.2207591025798683
20
-7.8293118867515608
30
0
10
-3.6433078583213665
20
-7.7295833073005911
30
0
10
-4.0636113932585456
20
-7.6303846375424715
30
0
10
-4.4209463284673847
20
-7.5176135453044877
30
0
10
-4.7136792594353487
20
-7.4025787420946978
30
0
10
-4.9719785209327458
20
-7.3010752842591362
30
0
10
-5.1799583036271057
20
-7.1984554957093998
30
0
10
-5.3496552838316109
20
-7.0993574920838576
30
0
10
-5.5301460659432324
20
-6.9939562282633725
30
0
10
-5.6663430642155737
20
-6.8948720940294841
30
0
10
-5.791724375475761
20
-6.7870764017816771
30
0
10
-5.9172419922811628
20
-6.6791635218090333
30
0
10
-6.0329468038482581
20
-6.5616674503301837
30
0
10
-6.1598032077504827
20
-6.4043693636889838
30
0
10
-6.1826421158040947
20
-6.3760498116025435
30
0
10
-6.2057906079323901
20
-6.3464241560368144
30
0
10
-6.2293009407118003
20
-6.3153059096300446
30
0
10
-6.3635103086891238
20
-6.1376665617739095
30
0
10
-6.5085222076700981
20
-5.909919838812872
30
0
10
-6.6484220355672612
20
-5.6440812669638358
30
0
10
-6.8164962364250847
20
-5.3247055665622938
30
0
10
-6.97575896441972
20
-4.9518985501391173
30
0
10
-7.110162133038469
20
-4.5729405227418107
30
0
10
-7.1758861107092837
20
-4.3876277121377134
30
0
10
-7.2359643472247743
20
-4.2010663504078689
30
0
10
-7.2903030019509369
20
-4.0181068431778462
30
0
10
-7.4497630289263803
20
-3.4812012442936147
30
0
10
-7.585220619808215
20
-2.881688014774213
30
0
10
-7.6805686598422449
20
-2.2913859327291415
30
0
10
-7.7662574455804432
20
-1.7608845337374179
30
0
10
-7.819846844313652
20
-1.2371518594149198
30
0
10
-7.8427012463892911
20
-0.77987342650198344
30
0
10
-7.8452775051088661
20
-0.72832679027118152
30
0
10
-7.847477709037042
20
-0.67764081959351119
30
0
10
-7.8493161079319274
20
-0.62791582662612877
30
0
10
-7.8582594054694077
20
-0.38601761378802346
30
0
10
-7.8583813053051257
20
-0.19572457773900312
30
0
10
-7.8543005369384531
20
-0.04539220569337965
30
0
0
SPLINE
5
115
100
AcDbEntity
8
0
100
AcDbSpline
70
0
71
3
72
20
73
16
74
0
42
0.000000001
43
0.0000000001
44
0.0000000001
40
-45.397667485862229
40
-45.397667485862229
40
-45.397667485862229
40
-45.397667485862229
40
-43.028530468601048
40
-43.028530468601048
40
-43.028530468601048
40
-32.783924392906059
40
-32.783924392906059
40
-32.783924392906059
40
-19.619463563148756
40
-19.619463563148756
40
-19.619463563148756
40
-1.2694106055113465
40
-1.2694106055113465
40
-1.2694106055113465
40
-0.83940703868306266
40
-0.83940703868306266
40
-0.83940703868306266
40
-0.83940703868306266
10
-7.8543005369384629
20
-0.045392205693358757
30
0
10
-7.8107476244022873
20
-0.030347875967484745
30
0
10
-7.7646824495415254
20
-0.014915498081053151
30
0
10
-7.7161466959103251
20
0.00081241271601052711
30
0
10
-7.5023890414388257
20
0.070080139498687022
30
0
10
-7.2295930647040851
20
0.14958095532106133
30
0
10
-6.8612803138782636
20
0.23700581260636583
30
0
10
-6.3879933230929424
20
0.3493479662017091
30
0
10
-5.7572406942169927
20
0.47406507962555167
30
0
10
-4.9214371158409085
20
0.59096976402754087
30
0
10
-3.7564034601733902
20
0.75392418939400208
30
0
10
-2.1941214992492712
20
0.90036868299031714
30
0
10
-0.14484446356695932
20
0.9717965765444464
30
0
10
-0.096822998081437281
20
0.97347037274929749
30
0
10
-0.048534864867783918
20
0.97510331259146654
30
0
10
2.1006176685546034e-05
20
0.97669469496851014
30
0
0
LINE
5
116
100
AcDbEntity
8
0
100
AcDbLine
10
2.1276686052478361e-05
20
0.97669468610520072
30
0
11
1.970301638874235e-05
21
-8.1234936257816734
31
0
0
LWPOLYLINE
5
117
100
AcDbEntity
8
0
100
AcDbPolyline
90
2
70
1
43
0.0
10
20.036288902457681
20
-2.9079510511737179
10
0
20
-2.9079510511737197
0
LINE
5
118
100
AcDbEntity
8
0
100
AcDbLine
10
0
20
-2.9079510511737197
30
0
11
-26.465049389568509
21
-29.373000440754289
31
0
0
LINE
5
119
100
AcDbEntity
8
0
100
AcDbLine
10
0
20
-2.9079510511737197
30
0
11
-315.33285511938817
21
-2.9079510511749347
31
0
0
LINE
5
120
100
AcDbEntity
8
0
100
AcDbLine
10
0
20
-2.9079510511737197
30
0
11
19.677913980622808
21
-22.585865031795709
31
0
0
LINE
5
121
100
AcDbEntity
8
0
100
AcDbLine
10
0
20
-2.9079510511737197
30
0
11
2.8808854232016459e-06
21
-19.919878297444736
31
0
0
LINE
5
122
100
AcDbEntity
8
0
100
AcDbLine
10
2.1276686052478361e-05
20
0.97669468610520072
30
0
11
1.970301638874235e-05
21
-8.1234936257816734
31
0
0
LINE
5
123
100
AcDbEntity
8
0
100
AcDbLine
10
-314.11124963407508
20
-2.532951045896493
30
0
11
-316.61124963407462
21
-2.5329510458966289
31
0
0
LINE
5
124
100
AcDbEntity
8
0
100
AcDbLine
10
-316.61124963407462
20
-2.5329510458966289
30
0
11
-316.61124963407468
21
-3.2829510458965161
31
0
0
LINE
5
125
100
AcDbEntity
8
0
100
AcDbLine
10
-316.61124963407468
20
-3.2829510458965161
30
0
11
-314.11124963407468
21
-3.2829510669988666
31
0
0
LINE
5
126
100
AcDbEntity
8
0
100
AcDbLine
10
-314.11124963407468
20
-3.2829510669988666
30
0
11
-314.11124963407508
21
-2.532951045896493
31
0
0
LINE
5
127
100
AcDbEntity
8
0
100
AcDbLine
10
-314.11124963407508
20
-2.532951045896493
30
0
11
-316.61124963407468
21
-3.2829510458965161
31
0
0
LINE
5
128
100
AcDbEntity
8
0
100
AcDbLine
10
-316.61124963407462
20
-2.5329510458966289
30
0
11
-314.11124963407468
21
-3.2829510669988666
31
0
0
LWPOLYLINE
5
129
100
AcDbEntity
8
0
100
AcDbPolyline
90
4
70
1
43
0.0
10
-12.967359651835618
20
-16.405640788912656
10
-13.497689737725514
20
-15.875310703022757
10
-15.265456690691915
20
-17.643077655989089
10
-14.735126604803336
20
-18.173407741877661
0
LWPOLYLINE
5
130
100
AcDbEntity
8
0
100
AcDbPolyline
90
4
70
1
43
0.0
10
9.573791947365514
20
-13.012073084430254
10
10.104122033257163
20
-12.481742998539341
10
11.871888986222874
20
-14.249509951506388
10
11.341558900333073
20
-14.779840037396422
0
LINE
5
131
100
AcDbEntity
8
0
100
AcDbLine
10
2.4571496054180819e-15
20
20.180062031617542
30
0
11
-3.5929897045744333e-15
21
-29.364556456335837
31
0
0
LINE
5
132
100
AcDbEntity
8
0
100
AcDbLine
10
-7.1028047835270834e-16
20
-2.9079510511737197
30
0
11
26.465049389568499
21
-29.373000440754303
31
0
0
LWPOLYLINE
5
133
100
AcDbEntity
8
0
100
AcDbPolyline
90
4
70
1
43
0.0
10
13.497689737725507
20
-15.875310703022757
10
15.265456690691908
20
-17.643077655989092
10
14.735126604803328
20
-18.173407741877668
10
12.967359651835613
20
-16.405640788912663
0
LWPOLYLINE
5
134
100
AcDbEntity
8
0
100
AcDbPolyline
90
4
70
1
43
0.0
10
316.61124963407468
20
-2.532951045896727
10
314.11124963407519
20
-2.5329510458965703
10
314.11124963407485
20
-3.2829510669989204
10
316.6112496340748
20
-3.2829510458965689
0
LWPOLYLINE
5
135
100
AcDbEntity
8
0
100
AcDbPolyline
90
4
70
1
43
0.0
10
-11.341558900333276
20
-14.779840037396362
10
-9.5737919473655175
20
-13.012073084430254
10
-10.104122033257189
20
-12.481742998539323
10
-11.871888986222922
20
-14.249509951506408
0
LINE
5
136
100
AcDbEntity
8
0
100
AcDbLine
10
-7.1028047835270834e-16
20
-2.9079510511737197
30
0
11
-19.677913980622815
21
-22.585865031795702
31
0
0
LINE
5
137
100
AcDbEntity
8
0
100
AcDbLine
10
-7.1028047835270834e-16
20
-2.9079510511737197
30
0
11
-20.036288902457681
21
-2.907951051173713
31
0
0
ENDSEC
0
SECTION
2
OBJECTS
0
DICTIONARY
5
C
100
AcDbDictionary
3
ACAD_GROUP
350
D
3
ACAD_MLINESTYLE
350
17
0
DICTIONARY
5
D
100
AcDbDictionary
0
DICTIONARY
5
1A
330
C
100
AcDbDictionary
0
DICTIONARY
5
17
100
AcDbDictionary
0
ENDSEC
0
EOF
