0
SECTION
2
HEADER
9
$INSUNITS
70
4
9
$ACADVER
1
AC1014
9
$HANDSEED
5
FFFF
0
ENDSEC
0
SECTION
2
TABLES
0
TABLE
2
VPORT
5
8
100
AcDbSymbolTable
0
ENDTAB
0
TABLE
2
LTYPE
5
5
100
AcDbSymbolTable
0
LTYPE
5
14
100
AcDbSymbolTableRecord
100
AcDbLinetypeTableRecord
2
BYBLOCK
70
0
0
LTYPE
5
15
100
AcDbSymbolTableRecord
100
AcDbLinetypeTableRecord
2
BYLAYER
70
0
0
ENDTAB
0
TABLE
2
LAYER
5
2
100
AcDbSymbolTable
70
2
0
LAYER
5
50
100
AcDbSymbolTableRecord
100
AcDbLayerTableRecord
2
0
70
0
6
CONTINUOUS
0
ENDTAB
0
TABLE
2
STYLE
5
3
100
AcDbSymbolTable
70
1
0
STYLE
5
11
100
AcDbSymbolTableRecord
100
AcDbTextStyleTableRecord
2
STANDARD
70
0
0
ENDTAB
0
TABLE
2
VIEW
5
6
100
AcDbSymbolTable
70
0
0
ENDTAB
0
TABLE
2
UCS
5
7
100
AcDbSymbolTable
70
0
0
ENDTAB
0
TABLE
2
APPID
5
9
100
AcDbSymbolTable
70
2
0
APPID
5
12
100
AcDbSymbolTableRecord
100
AcDbRegAppTableRecord
2
ACAD
70
0
0
ENDTAB
0
TABLE
2
DIMSTYLE
5
A
100
AcDbSymbolTable
70
1
0
ENDTAB
0
TABLE
2
BLOCK_RECORD
5
1
100
AcDbSymbolTable
70
1
0
BLOCK_RECORD
5
1F
100
AcDbSymbolTableRecord
100
AcDbBlockTableRecord
2
*MODEL_SPACE
0
BLOCK_RECORD
5
1B
100
AcDbSymbolTableRecord
100
AcDbBlockTableRecord
2
*PAPER_SPACE
0
ENDTAB
0
ENDSEC
0
SECTION
2
BLOCKS
0
BLOCK
5
20
100
AcDbEntity
100
AcDbBlockBegin
2
*MODEL_SPACE
0
ENDBLK
5
21
100
AcDbEntity
100
AcDbBlockEnd
0
BLOCK
5
1C
100
AcDbEntity
100
AcDbBlockBegin
2
*PAPER_SPACE
0
ENDBLK
5
1D
100
AcDbEntity
100
AcDbBlockEnd
0
ENDSEC
0
SECTION
2
ENTITIES
0
CIRCLE
5
100
100
AcDbEntity
8
0
100
AcDbCircle
10
-31.430896423742041
20
31.430896423746987
30
0
40
2.1589999999999998
210
0
220
-0
230
1
0
CIRCLE
5
101
100
AcDbEntity
8
0
100
AcDbCircle
10
31.430896423742048
20
-31.430896423742034
30
0
40
2.1589999999999998
210
0
220
-0
230
1
0
CIRCLE
5
102
100
AcDbEntity
8
0
100
AcDbCircle
10
31.430896423742038
20
31.430896423742034
30
0
40
2.1589999999999998
210
0
220
-0
230
1
0
ARC
5
103
100
AcDbEntity
8
0
100
AcDbCircle
10
1.3322676295501878e-14
20
-2.2204460492503131e-15
30
0
40
39.687500000000028
210
0
220
0
230
1
100
AcDbArc
50
155.59573484320129
51
201.92270035943577
0
ARC
5
104
100
AcDbEntity
8
0
100
AcDbCircle
10
3.9035441545820504e-12
20
-1.9406698470447736e-12
30
0
40
39.687500000004363
210
0
220
0
230
1
100
AcDbArc
50
150.58177510172115
51
155.59573484320106
0
ARC
5
105
100
AcDbEntity
8
0
100
AcDbCircle
10
1.9539925233402755e-13
20
-1.9095836023552692e-13
30
0
40
39.68750000000027
210
0
220
0
230
1
100
AcDbArc
50
119.41822489827931
51
150.58177510172072
0
ARC
5
106
100
AcDbEntity
8
0
100
AcDbCircle
10
-5.9063864910058328e-13
20
1.1501910535116622e-12
30
0
40
39.687499999998714
210
0
220
0
230
1
100
AcDbArc
50
114.40426515679867
51
119.41822489827926
0
ARC
5
107
100
AcDbEntity
8
0
100
AcDbCircle
10
0
20
-4.4408920985006262e-15
30
0
40
39.687500000000007
210
0
220
-0
230
1
100
AcDbArc
50
65.595734843201242
51
114.40426515679876
0
ARC
5
108
100
AcDbEntity
8
0
100
AcDbCircle
10
-2.9753977059954195e-13
20
-5.6399329650957952e-13
30
0
40
39.687500000000639
210
0
220
-0
230
1
100
AcDbArc
50
60.581775101720879
51
65.5957348432012
0
ARC
5
109
100
AcDbEntity
8
0
100
AcDbCircle
10
-1.9984014443252818e-13
20
-1.9984014443252818e-13
30
0
40
39.68750000000027
210
0
220
-0
230
1
100
AcDbArc
50
29.418224898279284
51
60.581775101720744
0
ARC
5
110
100
AcDbEntity
8
0
100
AcDbCircle
10
2.9665159217984183e-12
20
1.5143442055887135e-12
30
0
40
39.687499999996668
210
0
220
-0
230
1
100
AcDbArc
50
24.40426515679853
51
29.418224898279384
0
ARC
5
111
100
AcDbEntity
8
0
100
AcDbCircle
10
-3.1086244689504383e-14
20
-4.4408920985006262e-15
30
0
40
39.687500000000036
210
-0
220
0
230
1
100
AcDbArc
50
-24.404265156798701
51
24.404265156798743
0
ARC
5
112
100
AcDbEntity
8
0
100
AcDbCircle
10
-2.6201263381153694e-13
20
1.9539925233402755e-13
30
0
40
39.687500000000327
210
0
220
0
230
1
100
AcDbArc
50
330.58177510172078
51
335.59573484320117
0
ARC
5
113
100
AcDbEntity
8
0
100
AcDbCircle
10
-3.9968028886505635e-14
20
4.8849813083506888e-14
30
0
40
39.687500000000064
210
0
220
0
230
1
100
AcDbArc
50
299.41822489827922
51
330.58177510172078
0
ARC
5
114
100
AcDbEntity
8
0
100
AcDbCircle
10
1.0680345496894006e-12
20
-2.078337502098293e-12
30
0
40
39.687499999997662
210
0
220
0
230
1
100
AcDbArc
50
294.4042651567986
51
299.41822489827933
0
ARC
5
115
100
AcDbEntity
8
0
100
AcDbCircle
10
2.2204460492503131e-15
20
-7.1054273576010019e-14
30
0
40
39.687499999999936
210
0
220
0
230
1
100
AcDbArc
50
248.0754319134474
51
294.40426515679883
0
ARC
5
116
100
AcDbEntity
8
0
100
AcDbCircle
10
-16.003765758550049
20
-39.762713413282924
30
0
40
3.1749999999967979
210
4.6004909265145723e-33
220
1.1435233586036349e-32
230
1
100
AcDbArc
50
68.08466102898241
51
127.31365850921281
0
LINE
5
117
100
AcDbEntity
8
0
100
AcDbLine
10
-21.809333840554959
20
-40.19550000000001
30
0
11
-17.928380949036175
21
-37.237543841050254
31
-2.0021729181968488e-32
0
LINE
5
118
100
AcDbEntity
8
0
100
AcDbLine
10
-21.809333840554959
20
-40.19550000000001
30
0
11
-22.195383471943948
21
-40.489736471492066
31
8.5720237883222598e-17
0
SPLINE
5
119
100
AcDbEntity
8
0
100
AcDbSpline
70
0
71
3
72
22
73
18
74
0
42
0.000000001
43
0.0000000001
44
0.0000000001
40
0
40
0
40
0
40
0
40
0.0013114875645792144
40
0.0013114875645792144
40
0.0026229751291584288
40
0.0026229751291584288
40
0.0052459502583168576
40
0.0052459502583168576
40
0.010491900516633715
40
0.010491900516633715
40
0.042418196620105965
40
0.042418196620105965
40
0.15251353150345737
40
0.15251353150345737
40
0.25265361470873282
40
0.25265361470873282
40
0.30800805007681797
40
0.30800805007681797
40
0.30800805007681797
40
0.30800805007681797
10
-24.967119265891501
20
-41.465500000000006
30
0
10
-24.96706928231319
20
-41.465498718633839
30
0
10
-24.966272889716763
20
-41.46547830251783
30
0
10
-24.963614924050937
20
-41.46540870770319
30
0
10
-24.961830066067616
20
-41.465361247153005
30
0
10
-24.955332138425884
20
-41.465184325064072
30
0
10
-24.949791156146368
20
-41.465026632825037
30
0
10
-24.930817908605476
20
-41.464444168599222
30
0
10
-24.915477560641477
20
-41.463912956590221
30
0
10
-24.812987733805617
20
-41.459853471905703
30
0
10
-24.699312349843844
20
-41.452004523024478
30
0
10
-24.282346841677061
20
-41.409485617649182
30
0
10
-23.894784086547833
20
-41.327326116492245
30
0
10
-23.285031490550278
20
-41.123404487167441
30
0
10
-22.972351952820848
20
-40.985827981028457
30
0
10
-22.508603496928139
20
-40.713763874034768
30
1.1102230246251565e-15
10
-22.347785153859498
20
-40.605335232871845
30
0
10
-22.195383471943948
20
-40.489736471492066
30
0
0
LINE
5
120
100
AcDbEntity
8
0
100
AcDbLine
10
-25.212890170977445
20
-41.465500000000006
30
0
11
-24.967119265891501
21
-41.465500000000006
31
1.5407439555097887e-32
0
ARC
5
121
100
AcDbEntity
8
0
100
AcDbCircle
10
-25.090004718434471
20
-36.691881434854963
30
0
40
4.7751999999941486
210
0
220
0
230
1
100
AcDbArc
50
235.63557718719352
51
268.525382151786
0
SPLINE
5
122
100
AcDbEntity
8
0
100
AcDbSpline
70
0
71
3
72
8
73
4
74
0
42
0.000000001
43
0.0000000001
44
0.0000000001
40
0.79567829074930119
40
0.79567829074930119
40
0.79567829074930119
40
0.79567829074930119
40
0.86929226069291621
40
0.86929226069291621
40
0.86929226069291621
40
0.86929226069291621
10
-27.785388121769493
20
-40.633637813548376
30
0
10
-27.998912328377937
20
-40.487629400980644
30
0
10
-28.215157332274959
20
-40.337146937409941
30
0
10
-28.415525594118392
20
-40.19550000000001
30
0
0
ARC
5
123
100
AcDbEntity
8
0
100
AcDbCircle
10
-9.9920072216264057e-15
20
4.9960036108132029e-15
30
0
40
49.225199999999987
210
0
220
0
230
1
100
AcDbArc
50
215.2577513696576
51
234.74224863034237
0
SPLINE
5
124
100
AcDbEntity
8
0
100
AcDbSpline
70
0
71
3
72
8
73
4
74
0
42
0.000000001
43
0.0000000001
44
0.0000000001
40
0.19867811661090901
40
0.19867811661090901
40
0.19867811661090901
40
0.19867811661090901
40
0.27229208655452297
40
0.27229208655452297
40
0.27229208655452297
40
0.27229208655452297
10
-40.633637813548376
20
-27.785388121769504
30
0
10
-40.487629400980651
20
-27.998912328377934
30
0
10
-40.337146937409941
20
-28.215157332274956
30
0
10
-40.19550000000001
20
-28.415525594118385
30
0
0
SPLINE
5
125
100
AcDbEntity
8
0
100
AcDbSpline
70
0
71
3
72
22
73
18
74
0
42
0.000000001
43
0.0000000001
44
0.0000000001
40
0
40
0
40
0
40
0
40
0.0013114875645794969
40
0.0013114875645794969
40
0.0026229751291589939
40
0.0026229751291589939
40
0.0052459502583179878
40
0.0052459502583179878
40
0.010491900516635976
40
0.010491900516635976
40
0.042418196620073796
40
0.042418196620073796
40
0.15251353150340866
40
0.15251353150340866
40
0.25265361470868131
40
0.25265361470868131
40
0.28439103933459281
40
0.28439103933459281
40
0.28439103933459281
40
0.28439103933459281
10
-41.46550000000002
20
-25.212890170978163
30
0
10
-41.465498718633853
20
-25.212940154556478
30
0
10
-41.465478302517845
20
-25.21373654715287
30
0
10
-41.465408707703205
20
-25.216394512818692
30
0
10
-41.465361247153027
20
-25.218179370801991
30
0
10
-41.465184325064087
20
-25.224677298443723
30
0
10
-41.465026632825051
20
-25.230218280723168
30
0
10
-41.464444168599243
20
-25.249191528263996
30
0
10
-41.463912956590228
20
-25.264531876228169
30
0
10
-41.45985347190571
20
-25.367021703063859
30
0
10
-41.452004523024485
20
-25.48069708702549
30
0
10
-41.409485617649182
20
-25.897662595192092
30
0
10
-41.327326116492245
20
-26.285225350321262
30
0
10
-41.123404487167448
20
-26.894977946318754
30
0
10
-40.985827981028464
20
-27.207657484048184
30
0
10
-40.755085851146134
20
-27.600970323528351
30
0
10
-40.695750246611482
20
-27.694220245633371
30
0
10
-40.633637813548411
20
-27.785388121769525
30
0
0
LINE
5
126
100
AcDbEntity
8
0
100
AcDbLine
10
-41.465500000000013
20
-24.967119265890567
30
0
11
-41.465500000000013
21
-25.212890170978426
31
-3.2842932757612885e-46
0
ARC
5
127
100
AcDbEntity
8
0
100
AcDbCircle
10
-36.691881434854992
20
-25.090004718434496
30
0
40
4.7751999999941521
210
0
220
0
230
1
100
AcDbArc
50
142.68634149078653
51
178.52538215177447
0
LINE
5
128
100
AcDbEntity
8
0
100
AcDbLine
10
-37.237543841050268
20
-17.928380949036193
30
-1.1102230246251565e-15
11
-40.489736471492073
21
-22.195383471943945
31
0
0
ARC
5
129
100
AcDbEntity
8
0
100
AcDbCircle
10
-39.762713413282938
20
-16.003765758550035
30
0
40
3.1749999999968233
210
2.7810789511376388e-16
220
-2.1196623205657769e-16
230
1
100
AcDbArc
50
-37.313658509213248
51
21.938685672857254
0
CIRCLE
5
130
100
AcDbEntity
8
0
100
AcDbCircle
10
-31.430896423742041
20
31.430896423746987
30
0
40
2.1589999999999998
210
0
220
-0
230
1
0
CIRCLE
5
131
100
AcDbEntity
8
0
100
AcDbCircle
10
31.430896423742038
20
31.430896423742034
30
0
40
2.1589999999999998
210
0
220
-0
230
1
0
CIRCLE
5
132
100
AcDbEntity
8
0
100
AcDbCircle
10
31.430896423742048
20
-31.430896423742034
30
0
40
2.1589999999999998
210
0
220
-0
230
1
0
ENDSEC
0
SECTION
2
OBJECTS
0
DICTIONARY
5
C
100
AcDbDictionary
3
ACAD_GROUP
350
D
3
ACAD_MLINESTYLE
350
17
0
DICTIONARY
5
D
100
AcDbDictionary
0
DICTIONARY
5
1A
330
C
100
AcDbDictionary
0
DICTIONARY
5
17
100
AcDbDictionary
0
ENDSEC
0
EOF
