0
SECTION
2
HEADER
9
$INSUNITS
70
4
9
$ACADVER
1
AC1014
9
$HANDSEED
5
FFFF
0
ENDSEC
0
SECTION
2
TABLES
0
TABLE
2
VPORT
5
8
100
AcDbSymbolTable
0
ENDTAB
0
TABLE
2
LTYPE
5
5
100
AcDbSymbolTable
0
LTYPE
5
14
100
AcDbSymbolTableRecord
100
AcDbLinetypeTableRecord
2
BYBLOCK
70
0
0
LTYPE
5
15
100
AcDbSymbolTableRecord
100
AcDbLinetypeTableRecord
2
BYLAYER
70
0
0
LTYPE
5
16
100
AcDbSymbolTableRecord
100
AcDbLinetypeTableRecord
2
DASHED
70
0
3
Dashed __ __ __ __ __ __ __ __ __ __ __ __ __ _
72
65
73
2
40
0.75
49
0.5
74
0
49
-0.25
74
0
0
ENDTAB
0
TABLE
2
LAYER
5
2
100
AcDbSymbolTable
70
2
0
LAYER
5
50
100
AcDbSymbolTableRecord
100
AcDbLayerTableRecord
2
0
70
0
62
7
6
CONTINUOUS
0
ENDTAB
0
TABLE
2
STYLE
5
3
100
AcDbSymbolTable
70
1
0
STYLE
5
11
100
AcDbSymbolTableRecord
100
AcDbTextStyleTableRecord
2
STANDARD
70
0
0
ENDTAB
0
TABLE
2
VIEW
5
6
100
AcDbSymbolTable
70
0
0
ENDTAB
0
TABLE
2
UCS
5
7
100
AcDbSymbolTable
70
0
0
ENDTAB
0
TABLE
2
APPID
5
9
100
AcDbSymbolTable
70
2
0
APPID
5
12
100
AcDbSymbolTableRecord
100
AcDbRegAppTableRecord
2
ACAD
70
0
0
ENDTAB
0
TABLE
2
DIMSTYLE
5
A
100
AcDbSymbolTable
70
1
0
ENDTAB
0
TABLE
2
BLOCK_RECORD
5
1
100
AcDbSymbolTable
70
1
0
BLOCK_RECORD
5
1F
100
AcDbSymbolTableRecord
100
AcDbBlockTableRecord
2
*MODEL_SPACE
0
BLOCK_RECORD
5
1B
100
AcDbSymbolTableRecord
100
AcDbBlockTableRecord
2
*PAPER_SPACE
0
ENDTAB
0
ENDSEC
0
SECTION
2
BLOCKS
0
BLOCK
5
20
100
AcDbEntity
100
AcDbBlockBegin
2
*MODEL_SPACE
0
ENDBLK
5
21
100
AcDbEntity
100
AcDbBlockEnd
0
BLOCK
5
1C
100
AcDbEntity
100
AcDbBlockBegin
2
*PAPER_SPACE
0
ENDBLK
5
1D
100
AcDbEntity
100
AcDbBlockEnd
0
ENDSEC
0
SECTION
2
ENTITIES
0
CIRCLE
5
100
100
AcDbEntity
8
0
100
AcDbCircle
10
229.44937631631552
20
243.18534726715288
30
0
40
3.3500000000000081
210
0
220
-0
230
1
0
LWPOLYLINE
5
101
100
AcDbEntity
8
0
100
AcDbPolyline
90
30
70
1
43
0.0
10
228.58297835443412
20
288.18534726715291
10
-230.00000000000011
20
288.18534726715291
42
0.41421356237309609
10
-250.00000000000006
20
268.18534726715291
10
-250
20
238.18534726715285
42
0.41421356237310125
10
-244.99999999999997
20
233.18534726715285
10
-215.86639796188155
20
233.18534726715299
42
0.41421356237309293
10
-210.86639796188155
20
238.18534726715296
42
-0.41421356237309576
10
-195.86639796188155
20
253.18534726715299
10
-158.79075765920987
20
253.18534726715296
42
-0.41421356237309503
10
-143.79075765920987
20
238.18534726715296
10
-143.79075765920987
20
216.68534726715325
42
0.41421356237309193
10
-138.79075765920987
20
211.6853472671533
10
-108.79075765920987
20
211.68534726715325
42
0.41421356237308982
10
-103.79075765920986
20
216.68534726715322
10
-103.79075765920985
20
228.18534726715336
42
-0.41421356237309398
10
-98.790757659209859
20
233.18534726715339
10
97.373736013643835
20
233.18534726715336
42
-0.41421356237309609
10
102.37373601364381
20
228.18534726715336
10
102.37373601364382
20
216.68534726715325
42
0.41421356237309503
10
107.37373601364382
20
211.68534726715325
10
137.37373601364382
20
211.68534726715325
42
0.41421356237309503
10
142.37373601364382
20
216.68534726715325
10
142.37373601364385
20
238.18534726715291
42
-0.41421356237309542
10
157.37373601364385
20
253.18534726715291
10
194.44937631631552
20
253.18534726715299
42
-0.41421356237309503
10
209.44937631631552
20
238.18534726715291
42
0.41421356237309293
10
214.44937631631552
20
233.18534726715291
10
243.58297835443395
20
233.18534726715285
42
0.41421356237309709
10
248.58297835443398
20
238.18534726715282
10
248.58297835443403
20
268.18534726715285
42
0.41421356237309453
0
CIRCLE
5
102
100
AcDbEntity
8
0
100
AcDbCircle
10
-230.86639796188155
20
243.18534726715291
30
0
40
3.3500000000000081
210
0
220
-0
230
1
0
ENDSEC
0
SECTION
2
OBJECTS
0
DICTIONARY
5
C
100
AcDbDictionary
3
ACAD_GROUP
350
D
3
ACAD_MLINESTYLE
350
17
0
DICTIONARY
5
D
100
AcDbDictionary
0
DICTIONARY
5
1A
330
C
100
AcDbDictionary
0
DICTIONARY
5
17
100
AcDbDictionary
0
ENDSEC
0
EOF
