0
SECTION
2
HEADER
9
$INSUNITS
70
4
9
$ACADVER
1
AC1014
9
$HANDSEED
5
FFFF
0
ENDSEC
0
SECTION
2
TABLES
0
TABLE
2
VPORT
5
8
100
AcDbSymbolTable
0
ENDTAB
0
TABLE
2
LTYPE
5
5
100
AcDbSymbolTable
0
LTYPE
5
14
100
AcDbSymbolTableRecord
100
AcDbLinetypeTableRecord
2
BYBLOCK
70
0
0
LTYPE
5
15
100
AcDbSymbolTableRecord
100
AcDbLinetypeTableRecord
2
BYLAYER
70
0
0
LTYPE
5
16
100
AcDbSymbolTableRecord
100
AcDbLinetypeTableRecord
2
DASHED
70
0
3
Dashed __ __ __ __ __ __ __ __ __ __ __ __ __ _
72
65
73
2
40
0.75
49
0.5
74
0
49
-0.25
74
0
0
ENDTAB
0
TABLE
2
LAYER
5
2
100
AcDbSymbolTable
70
2
0
LAYER
5
50
100
AcDbSymbolTableRecord
100
AcDbLayerTableRecord
2
0
70
0
62
7
6
CONTINUOUS
0
ENDTAB
0
TABLE
2
STYLE
5
3
100
AcDbSymbolTable
70
1
0
STYLE
5
11
100
AcDbSymbolTableRecord
100
AcDbTextStyleTableRecord
2
STANDARD
70
0
0
ENDTAB
0
TABLE
2
VIEW
5
6
100
AcDbSymbolTable
70
0
0
ENDTAB
0
TABLE
2
UCS
5
7
100
AcDbSymbolTable
70
0
0
ENDTAB
0
TABLE
2
APPID
5
9
100
AcDbSymbolTable
70
2
0
APPID
5
12
100
AcDbSymbolTableRecord
100
AcDbRegAppTableRecord
2
ACAD
70
0
0
ENDTAB
0
TABLE
2
DIMSTYLE
5
A
100
AcDbSymbolTable
70
1
0
ENDTAB
0
TABLE
2
BLOCK_RECORD
5
1
100
AcDbSymbolTable
70
1
0
BLOCK_RECORD
5
1F
100
AcDbSymbolTableRecord
100
AcDbBlockTableRecord
2
*MODEL_SPACE
0
BLOCK_RECORD
5
1B
100
AcDbSymbolTableRecord
100
AcDbBlockTableRecord
2
*PAPER_SPACE
0
ENDTAB
0
ENDSEC
0
SECTION
2
BLOCKS
0
BLOCK
5
20
100
AcDbEntity
100
AcDbBlockBegin
2
*MODEL_SPACE
0
ENDBLK
5
21
100
AcDbEntity
100
AcDbBlockEnd
0
BLOCK
5
1C
100
AcDbEntity
100
AcDbBlockBegin
2
*PAPER_SPACE
0
ENDBLK
5
1D
100
AcDbEntity
100
AcDbBlockEnd
0
ENDSEC
0
SECTION
2
ENTITIES
0
LWPOLYLINE
5
100
100
AcDbEntity
8
0
100
AcDbPolyline
90
4
70
1
43
0.0
10
428.48344992807927
20
-281.3000000000016
10
418.48344992807927
20
-281.3000000000016
42
-0.99999999999999989
10
418.48344992807927
20
-278.3000000000016
10
428.48344992807927
20
-278.3000000000016
42
-0.99999999999999989
0
LWPOLYLINE
5
101
100
AcDbEntity
8
0
100
AcDbPolyline
90
4
70
1
43
0.0
10
428.48344992807915
20
-114.25064999993
42
0.99999999999999989
10
428.48344992807904
20
-111.25064999993003
10
418.48344992807915
20
-111.25064999993003
42
0.99999999999999989
10
418.48344992807915
20
-114.25064999993
0
LWPOLYLINE
5
102
100
AcDbEntity
8
0
100
AcDbPolyline
90
4
70
1
43
0.0
10
328.48344992807932
20
-278.3000000000016
10
338.48344992807915
20
-278.3000000000016
42
-0.99999999999999989
10
338.48344992807932
20
-281.3000000000016
10
328.48344992807944
20
-281.3000000000016
42
-0.99999999999999989
0
LWPOLYLINE
5
103
100
AcDbEntity
8
0
100
AcDbPolyline
90
4
70
1
43
0.0
10
338.48344992807932
20
-114.25064999993005
10
328.48344992807944
20
-114.25064999993005
42
-0.99999999999999989
10
328.48344992807932
20
-111.25064999993008
10
338.48344992807915
20
-111.25064999993008
42
-0.99999999999999989
0
LWPOLYLINE
5
104
100
AcDbEntity
8
0
100
AcDbPolyline
90
24
70
1
43
0.0
10
-533.33754004835089
20
-125.60117095359375
42
0.41421356237309365
10
-525.83754004835089
20
-133.10117095359371
10
-448.33754004835089
20
-133.10117095359374
42
-0.41421356237309442
10
-423.33754004835089
20
-158.10117095359368
10
-423.33754004835077
20
-181.69931107540961
42
-0.41421356237309293
10
-448.33754004835055
20
-206.69931107540964
10
-533.21319082110449
20
-206.69931107541032
42
0.41421356237309781
10
-540.71319082110449
20
-214.19931107541035
10
-540.71319082110415
20
-297.29999999999995
42
0.41421356237308948
10
-533.21319082110415
20
-304.79999999999995
10
533.21319082110347
20
-304.79999999999939
42
0.41421356237308948
10
540.71319082110335
20
-297.29999999999944
10
540.71319082110392
20
-214.19931107541208
42
0.41421356237309503
10
533.21319082110404
20
-206.69931107541203
10
448.33754004835015
20
-206.69931107541112
42
-0.41421356237309342
10
423.33754004835043
20
-181.69931107541095
10
423.33754004835055
20
-158.1011709535951
42
-0.4142135623730942
10
448.33754004835066
20
-133.10117095359521
10
525.83754004835077
20
-133.1011709535955
42
0.41421356237309365
10
533.33754004835077
20
-125.6011709535955
10
533.33754004835077
20
-77.499999999999559
42
0.41421356237309337
10
525.83754004835089
20
-69.999999999999602
10
-525.83754004835089
20
-69.999999999997812
42
0.41421356237309542
10
-533.33754004835089
20
-77.499999999999929
0
CIRCLE
5
105
100
AcDbEntity
8
0
100
AcDbCircle
10
369.99999999999994
20
-187.40000000000092
30
0
40
20
210
0
220
-0
230
1
0
CIRCLE
5
106
100
AcDbEntity
8
0
100
AcDbCircle
10
99.999999999999972
20
-187.40000000000003
30
0
40
20
210
0
220
-0
230
1
0
CIRCLE
5
107
100
AcDbEntity
8
0
100
AcDbCircle
10
230.86639796189516
20
-119.80000000000069
30
0
40
1.4999999999999858
210
0
220
-0
230
1
0
CIRCLE
5
108
100
AcDbEntity
8
0
100
AcDbCircle
10
230.86639796189462
20
-279.30000000000069
30
0
40
1.4999999999999858
210
0
220
-0
230
1
0
ELLIPSE
5
109
100
AcDbEntity
8
0
100
AcDbEllipse
10
519.75385968476974
20
-109.9269666666153
30
0
11
1.4334831251630289e-13
21
-1.4999999999999856
31
0.0
40
0.99705889896963362
41
0
42
6.2831853071795862
0
CIRCLE
5
110
100
AcDbEntity
8
0
100
AcDbCircle
10
54.250000000000369
20
-78.500000000000099
30
0
40
1.5000000000000036
210
0
220
-0
230
1
0
ELLIPSE
5
111
100
AcDbEntity
8
0
100
AcDbEllipse
10
527.41269360709452
20
-238.36418333294841
30
0
11
1.4334831251630289e-13
21
-1.4999999999999856
31
0.0
40
0.99705889896963362
41
0
42
6.2831853071795862
0
CIRCLE
5
112
100
AcDbEntity
8
0
100
AcDbCircle
10
54.250000000000284
20
-106.0000000000001
30
0
40
1.5000000000000036
210
0
220
-0
230
1
0
CIRCLE
5
113
100
AcDbEntity
8
0
100
AcDbCircle
10
-54.250000000000398
20
-105.99999999999993
30
0
40
1.5000000000000036
210
0
220
-0
230
1
0
ELLIPSE
5
114
100
AcDbEntity
8
0
100
AcDbEllipse
10
-527.41269360709509
20
-238.36418333294665
30
0
11
-1.4829851001762054e-13
21
-1.4999999999999856
31
0.0
40
0.99705889896963362
41
0
42
6.2831853071795862
0
CIRCLE
5
115
100
AcDbEntity
8
0
100
AcDbCircle
10
-54.250000000000398
20
-78.499999999999929
30
0
40
1.5000000000000036
210
0
220
-0
230
1
0
ELLIPSE
5
116
100
AcDbEntity
8
0
100
AcDbEllipse
10
-519.75385968476985
20
-109.92696666661358
30
0
11
-1.4829851001762054e-13
21
-1.4999999999999856
31
0.0
40
0.99705889896963362
41
0
42
6.2831853071795862
0
CIRCLE
5
117
100
AcDbEntity
8
0
100
AcDbCircle
10
-230.8663979618953
20
-279.29999999999995
30
0
40
1.4999999999999858
210
0
220
-0
230
1
0
CIRCLE
5
118
100
AcDbEntity
8
0
100
AcDbCircle
10
-230.8663979618953
20
-119.79999999999993
30
0
40
1.4999999999999858
210
0
220
-0
230
1
0
CIRCLE
5
119
100
AcDbEntity
8
0
100
AcDbCircle
10
-100.00000000000036
20
-187.39999999999969
30
0
40
20
210
0
220
-0
230
1
0
CIRCLE
5
120
100
AcDbEntity
8
0
100
AcDbCircle
10
-370.00000000000034
20
-187.39999999999969
30
0
40
20
210
0
220
-0
230
1
0
ENDSEC
0
SECTION
2
OBJECTS
0
DICTIONARY
5
C
100
AcDbDictionary
3
ACAD_GROUP
350
D
3
ACAD_MLINESTYLE
350
17
0
DICTIONARY
5
D
100
AcDbDictionary
0
DICTIONARY
5
1A
330
C
100
AcDbDictionary
0
DICTIONARY
5
17
100
AcDbDictionary
0
ENDSEC
0
EOF
