0
SECTION
2
HEADER
9
$INSUNITS
70
1
9
$ACADVER
1
AC1014
9
$HANDSEED
5
FFFF
0
ENDSEC
0
SECTION
2
TABLES
0
TABLE
2
VPORT
5
8
100
AcDbSymbolTable
0
ENDTAB
0
TABLE
2
LTYPE
5
5
100
AcDbSymbolTable
0
LTYPE
5
14
100
AcDbSymbolTableRecord
100
AcDbLinetypeTableRecord
2
BYBLOCK
70
0
0
LTYPE
5
15
100
AcDbSymbolTableRecord
100
AcDbLinetypeTableRecord
2
BYLAYER
70
0
0
ENDTAB
0
TABLE
2
LAYER
5
2
100
AcDbSymbolTable
70
2
0
LAYER
5
50
100
AcDbSymbolTableRecord
100
AcDbLayerTableRecord
2
0
70
0
6
CONTINUOUS
0
ENDTAB
0
TABLE
2
STYLE
5
3
100
AcDbSymbolTable
70
1
0
STYLE
5
11
100
AcDbSymbolTableRecord
100
AcDbTextStyleTableRecord
2
STANDARD
70
0
0
ENDTAB
0
TABLE
2
VIEW
5
6
100
AcDbSymbolTable
70
0
0
ENDTAB
0
TABLE
2
UCS
5
7
100
AcDbSymbolTable
70
0
0
ENDTAB
0
TABLE
2
APPID
5
9
100
AcDbSymbolTable
70
2
0
APPID
5
12
100
AcDbSymbolTableRecord
100
AcDbRegAppTableRecord
2
ACAD
70
0
0
ENDTAB
0
TABLE
2
DIMSTYLE
5
A
100
AcDbSymbolTable
70
1
0
ENDTAB
0
TABLE
2
BLOCK_RECORD
5
1
100
AcDbSymbolTable
70
1
0
BLOCK_RECORD
5
1F
100
AcDbSymbolTableRecord
100
AcDbBlockTableRecord
2
*MODEL_SPACE
0
BLOCK_RECORD
5
1B
100
AcDbSymbolTableRecord
100
AcDbBlockTableRecord
2
*PAPER_SPACE
0
ENDTAB
0
ENDSEC
0
SECTION
2
BLOCKS
0
BLOCK
5
20
100
AcDbEntity
100
AcDbBlockBegin
2
*MODEL_SPACE
0
ENDBLK
5
21
100
AcDbEntity
100
AcDbBlockEnd
0
BLOCK
5
1C
100
AcDbEntity
100
AcDbBlockBegin
2
*PAPER_SPACE
0
ENDBLK
5
1D
100
AcDbEntity
100
AcDbBlockEnd
0
ENDSEC
0
SECTION
2
ENTITIES
0
LINE
5
100
100
AcDbEntity
8
0
100
AcDbLine
10
-18.598107183707604
20
-18.150000000002908
30
0
11
18.598107183710709
21
-18.149999999999999
31
0
0
SPLINE
5
101
100
AcDbEntity
8
0
100
AcDbSpline
70
0
71
3
72
18
73
14
74
0
42
0.000000001
43
0.0000000001
44
0.0000000001
40
-99.380558412493627
40
-99.380558412493627
40
-99.380558412493627
40
-99.380558412493627
40
-89.754702617072581
40
-89.754702617072581
40
-82.144657691327808
40
-82.144657691327808
40
-74.663943444106224
40
-74.663943444106224
40
-72.324882975118953
40
-72.324882975118953
40
-64.472076801088065
40
-64.472076801088065
40
-54.832494241710393
40
-54.832494241710393
40
-54.832494241710393
40
-54.832494241710393
10
18.598107183711537
20
-18.14999999999845
30
0
10
19.279376785326395
20
-16.873550902322037
30
0
10
19.846149416181504
20
-15.100842835908027
30
0
10
20.606156778335311
20
-9.9906071482674008
30
0
10
20.796676407227306
20
-7.4113432086958664
30
0
10
21.007408160355784
20
-2.9679993298513048
30
0
10
21.02979785826226
20
-1.1597152855531321
30
0
10
21.030676965969654
20
0.40024180488125677
30
0
10
21.03076829583328
20
0.77511055014161512
30
0
10
21.030573793885175
20
2.3942883468598719
30
0
10
21.028853890517258
20
3.9185887363436298
30
0
10
21.014132876419268
20
6.8442670911620507
30
0
10
20.998935166761349
20
8.2304501119096383
30
0
10
20.966874836442944
20
9.4524486845729463
30
0
0
LINE
5
102
100
AcDbEntity
8
0
100
AcDbLine
10
20.96687483644294
20
9.4524486845729481
30
0
11
-20.966874836443225
21
9.4524486845624249
31
0
0
SPLINE
5
103
100
AcDbEntity
8
0
100
AcDbSpline
70
0
71
3
72
24
73
20
74
0
42
0.000000001
43
0.0000000001
44
0.0000000001
40
-118.59556742948945
40
-118.59556742948945
40
-118.59556742948945
40
-118.59556742948945
40
-105.29442681012124
40
-105.29442681012124
40
-97.833996918114792
40
-97.833996918114792
40
-97.490569600677844
40
-97.490569600677844
40
-96.404183587576512
40
-96.404183587576512
40
-93.504068976556326
40
-93.504068976556326
40
-83.114493158375751
40
-83.114493158375751
40
-70.747579291266575
40
-70.747579291266575
40
-58.867023783184578
40
-58.867023783184578
40
-58.283159374325358
40
-58.283159374325358
40
-58.283159374325358
40
-58.283159374325358
10
-20.966874836443225
20
9.4524486845624445
30
0
10
-21.006976628604413
20
7.9239450074102376
30
0
10
-21.021296771334914
20
6.1190327945794589
30
0
10
-21.030664650537648
20
2.6445782976095544
30
0
10
-21.031155921754383
20
1.2390475665167098
30
0
10
-21.030430613242885
20
-0.036352655328427047
30
0
10
-21.030368392589086
20
-0.092479690184065058
30
0
10
-21.029863512148328
20
-0.32615647699939071
30
0
10
-21.02898171367492
20
-0.50389949807779
30
0
10
-21.024040460638695
20
-1.1554067406704422
30
0
10
-21.017101315298689
20
-1.6323258485159569
30
0
10
-20.971971218121677
20
-3.8041810178279785
30
0
10
-20.896417179288992
20
-5.6051809850277641
30
0
10
-20.640829680399488
20
-9.3359316331702917
30
0
10
-20.416160664814477
20
-11.656348316173558
30
0
10
-19.65248144446171
20
-15.647331680910147
30
0
10
-19.196597242052672
20
-16.982136406387827
30
0
10
-18.651324985602589
20
-18.049177382586041
30
0
10
-18.625087271981073
20
-18.099449220622418
30
0
10
-18.598107183708812
20
-18.150000000003555
30
0
0
LWPOLYLINE
5
104
100
AcDbEntity
8
0
100
AcDbPolyline
90
4
70
1
43
0.0
10
-20.339970986538638
20
9.4524486845624249
10
-20.966874836443225
20
9.4524486845624249
10
-20.966874836443225
20
7.9191192715997429
10
-20.339970986538638
20
7.9191192715997429
0
ENDSEC
0
SECTION
2
OBJECTS
0
DICTIONARY
5
C
100
AcDbDictionary
3
ACAD_GROUP
350
D
3
ACAD_MLINESTYLE
350
17
0
DICTIONARY
5
D
100
AcDbDictionary
0
DICTIONARY
5
1A
330
C
100
AcDbDictionary
0
DICTIONARY
5
17
100
AcDbDictionary
0
ENDSEC
0
EOF
