0
SECTION
2
HEADER
0
ENDSEC
0
SECTION
2
TABLES
0
TABLE
2
LTYPE
0
LTYPE
72
65
70
64
2
CONTINUOUS
3
______
73
0
40
0
0
ENDTAB
0
TABLE
2
LAYER
0
ENDTAB
0
ENDSEC
0
SECTION
2
ENTITIES
0
CIRCLE
8
0
10
0
20
0
40
2
0
CIRCLE
8
0
10
0
20
0
40
2
0
LINE
8
layer0
10
20.8395208
20
5.8313124
11
20.528195
21
5.528968
0
LINE
8
layer0
10
20.528195
20
5.528968
11
20.2311823
21
5.2637193
0
LINE
8
layer0
10
20.2311823
20
5.2637193
11
19.9470701
21
5.0306144
0
LINE
8
layer0
10
19.9470701
20
5.0306144
11
19.6810987
21
4.8303822
0
LINE
8
layer0
10
19.6810987
20
4.8303822
11
19.4326848
21
4.6591637
0
LINE
8
layer0
10
19.4326848
20
4.6591637
11
19.2046544
21
4.515736
0
LINE
8
layer0
10
19.2046544
20
4.515736
11
19.0004855
21
4.3989795
0
LINE
8
layer0
10
19.0004855
20
4.3989795
11
18.8223491
21
4.3067574
0
LINE
8
layer0
10
18.8223491
20
4.3067574
11
18.5444411
21
4.1834246
0
LINE
8
layer0
10
18.5444411
20
4.1834246
11
18.3805195
21
4.1261059
0
LINE
8
layer0
10
18.3805195
20
4.1261059
11
18.2869281
21
4.1007225
0
LINE
8
layer0
10
18.2869281
20
4.1007225
11
18.0596992
21
4.026067
0
LINE
8
layer0
10
18.0596992
20
4.026067
11
17.8708837
21
3.941053
0
LINE
8
layer0
10
17.8708837
20
3.941053
11
17.7910063
21
3.8956282
0
LINE
8
layer0
10
17.7910063
20
3.8956282
11
17.7208648
21
3.8487586
0
LINE
8
layer0
10
17.7208648
20
3.8487586
11
17.6604969
21
3.8008451
0
LINE
8
layer0
10
17.6604969
20
3.8008451
11
17.6098811
21
3.7522791
0
LINE
8
layer0
10
17.6098811
20
3.7522791
11
17.5690485
21
3.7034402
0
LINE
8
layer0
10
17.5690485
20
3.7034402
11
17.5379562
21
3.6547265
0
LINE
8
layer0
10
17.5379562
20
3.6547265
11
17.5165858
21
3.6065098
0
LINE
8
layer0
10
17.5165858
20
3.6065098
11
17.5049159
21
3.5591816
0
LINE
8
layer0
10
17.5049159
20
3.5591816
11
17.502874
21
3.5131353
0
LINE
8
layer0
10
17.502874
20
3.5131353
11
17.5250589
21
3.3907085
0
LINE
8
layer0
10
17.5250589
20
3.3907085
11
17.6302369
21
2.7923552
0
LINE
8
layer0
10
17.6302369
20
2.7923552
11
17.715108
21
2.1907856
0
LINE
8
layer0
10
17.715108
20
2.1907856
11
17.7318409
21
2.0674953
0
LINE
8
layer0
10
17.7318409
20
2.0674953
11
17.7480119
21
2.0243337
0
LINE
8
layer0
10
17.7480119
20
2.0243337
11
17.7737359
21
1.982928
0
LINE
8
layer0
10
17.7737359
20
1.982928
11
17.8089601
21
1.943675
0
LINE
8
layer0
10
17.8089601
20
1.943675
11
17.853584
21
1.9069536
0
LINE
8
layer0
10
17.853584
20
1.9069536
11
17.9075102
21
1.873123
0
LINE
8
layer0
10
17.9075102
20
1.873123
11
17.9706563
21
1.8425752
0
LINE
8
layer0
10
17.9706563
20
1.8425752
11
18.0428757
21
1.8156614
0
LINE
8
layer0
10
18.0428757
20
1.8156614
11
18.1240678
21
1.7927607
0
LINE
8
layer0
10
18.1240678
20
1.7927607
11
18.2140728
21
1.7742426
0
LINE
8
layer0
10
18.2140728
20
1.7742426
11
18.4199177
21
1.7517368
0
LINE
8
layer0
10
18.4199177
20
1.7517368
11
18.6590951
21
1.7509527
0
LINE
8
layer0
10
18.6590951
20
1.7509527
11
18.7559497
21
1.7557329
0
LINE
8
layer0
10
18.7559497
20
1.7557329
11
18.9295608
21
1.7518742
0
LINE
8
layer0
10
18.9295608
20
1.7518742
11
19.231979
21
1.720456
0
LINE
8
layer0
10
19.231979
20
1.720456
11
19.429895
21
1.6877948
0
LINE
8
layer0
10
19.429895
20
1.6877948
11
19.6601509
21
1.6398444
0
LINE
8
layer0
10
19.6601509
20
1.6398444
11
19.9213423
21
1.5739019
0
LINE
8
layer0
10
19.9213423
20
1.5739019
11
20.2105074
21
1.4878275
0
LINE
8
layer0
10
20.2105074
20
1.4878275
11
20.5253363
21
1.379585
0
LINE
8
layer0
10
20.5253363
20
1.379585
11
20.8675765
21
1.2456846
0
LINE
8
layer0
10
20.8675765
20
1.2456846
11
21.2320187
21
1.0852001
0
LINE
8
layer0
10
21.2320187
20
1.0852001
11
21.6215367
21
0.8938584
0
LINE
8
layer0
10
21.6215367
20
0.8938584
11
21.989004
21
0.6945155
0
ARC
8
layer0
10
-0.0000307
20
0
40
22
50
358.1909355
51
361.8090645
0
LINE
8
layer0
10
21.989004
20
-0.6945155
11
21.6215367
21
-0.8938584
0
LINE
8
layer0
10
21.6215367
20
-0.8938584
11
21.2320187
21
-1.0852001
0
LINE
8
layer0
10
21.2320187
20
-1.0852001
11
20.8675765
21
-1.2456846
0
LINE
8
layer0
10
20.8675765
20
-1.2456846
11
20.5253363
21
-1.379585
0
LINE
8
layer0
10
20.5253363
20
-1.379585
11
20.2105074
21
-1.4878275
0
LINE
8
layer0
10
20.2105074
20
-1.4878275
11
19.9213423
21
-1.5739019
0
LINE
8
layer0
10
19.9213423
20
-1.5739019
11
19.6601509
21
-1.6398444
0
LINE
8
layer0
10
19.6601509
20
-1.6398444
11
19.429895
21
-1.6877948
0
LINE
8
layer0
10
19.429895
20
-1.6877948
11
19.231979
21
-1.720456
0
LINE
8
layer0
10
19.231979
20
-1.720456
11
18.9295608
21
-1.7518742
0
LINE
8
layer0
10
18.9295608
20
-1.7518742
11
18.7559497
21
-1.7557329
0
LINE
8
layer0
10
18.7559497
20
-1.7557329
11
18.6590951
21
-1.7509527
0
LINE
8
layer0
10
18.6590951
20
-1.7509527
11
18.4199177
21
-1.7517368
0
LINE
8
layer0
10
18.4199177
20
-1.7517368
11
18.2140728
21
-1.7742426
0
LINE
8
layer0
10
18.2140728
20
-1.7742426
11
18.1240678
21
-1.7927607
0
LINE
8
layer0
10
18.1240678
20
-1.7927607
11
18.0428757
21
-1.8156614
0
LINE
8
layer0
10
18.0428757
20
-1.8156614
11
17.9706563
21
-1.8425752
0
LINE
8
layer0
10
17.9706563
20
-1.8425752
11
17.9075102
21
-1.873123
0
LINE
8
layer0
10
17.9075102
20
-1.873123
11
17.853584
21
-1.9069536
0
LINE
8
layer0
10
17.853584
20
-1.9069536
11
17.8089601
21
-1.943675
0
LINE
8
layer0
10
17.8089601
20
-1.943675
11
17.7737359
21
-1.982928
0
LINE
8
layer0
10
17.7737359
20
-1.982928
11
17.7480119
21
-2.0243337
0
LINE
8
layer0
10
17.7480119
20
-2.0243337
11
17.7318409
21
-2.0674953
0
LINE
8
layer0
10
17.7318409
20
-2.0674953
11
17.715108
21
-2.1907856
0
LINE
8
layer0
10
17.715108
20
-2.1907856
11
17.6302369
21
-2.7923552
0
LINE
8
layer0
10
17.6302369
20
-2.7923552
11
17.5250589
21
-3.3907085
0
LINE
8
layer0
10
17.5250589
20
-3.3907085
11
17.502874
21
-3.5131353
0
LINE
8
layer0
10
17.502874
20
-3.5131353
11
17.5049159
21
-3.5591816
0
LINE
8
layer0
10
17.5049159
20
-3.5591816
11
17.5165858
21
-3.6065098
0
LINE
8
layer0
10
17.5165858
20
-3.6065098
11
17.5379562
21
-3.6547265
0
LINE
8
layer0
10
17.5379562
20
-3.6547265
11
17.5690485
21
-3.7034402
0
LINE
8
layer0
10
17.5690485
20
-3.7034402
11
17.6098811
21
-3.7522791
0
LINE
8
layer0
10
17.6098811
20
-3.7522791
11
17.6604969
21
-3.8008451
0
LINE
8
layer0
10
17.6604969
20
-3.8008451
11
17.7208648
21
-3.8487586
0
LINE
8
layer0
10
17.7208648
20
-3.8487586
11
17.7910063
21
-3.8956282
0
LINE
8
layer0
10
17.7910063
20
-3.8956282
11
17.8708837
21
-3.941053
0
LINE
8
layer0
10
17.8708837
20
-3.941053
11
18.0596992
21
-4.026067
0
LINE
8
layer0
10
18.0596992
20
-4.026067
11
18.2869281
21
-4.1007225
0
LINE
8
layer0
10
18.2869281
20
-4.1007225
11
18.3805195
21
-4.1261059
0
LINE
8
layer0
10
18.3805195
20
-4.1261059
11
18.5444411
21
-4.1834246
0
LINE
8
layer0
10
18.5444411
20
-4.1834246
11
18.8223491
21
-4.3067574
0
LINE
8
layer0
10
18.8223491
20
-4.3067574
11
19.0004855
21
-4.3989795
0
LINE
8
layer0
10
19.0004855
20
-4.3989795
11
19.2046544
21
-4.515736
0
LINE
8
layer0
10
19.2046544
20
-4.515736
11
19.4326848
21
-4.6591637
0
LINE
8
layer0
10
19.4326848
20
-4.6591637
11
19.6810987
21
-4.8303822
0
LINE
8
layer0
10
19.6810987
20
-4.8303822
11
19.9470701
21
-5.0306144
0
LINE
8
layer0
10
19.9470701
20
-5.0306144
11
20.2311823
21
-5.2637193
0
LINE
8
layer0
10
20.2311823
20
-5.2637193
11
20.528195
21
-5.528968
0
LINE
8
layer0
10
20.528195
20
-5.528968
11
20.8395208
21
-5.8313124
0
LINE
8
layer0
10
20.8395208
20
-5.8313124
11
21.1274026
21
-6.1344524
0
ARC
8
layer0
10
-0.0000292
20
0.0000097
40
22
50
340.190935
51
343.8090641
0
LINE
8
layer0
10
20.6981685
20
-7.4554994
11
20.287086
21
-7.5315322
0
LINE
8
layer0
10
20.287086
20
-7.5315322
11
19.8575045
21
-7.5931412
0
LINE
8
layer0
10
19.8575045
20
-7.5931412
11
19.4613069
21
-7.6331522
0
LINE
8
layer0
10
19.4613069
20
-7.6331522
11
19.0944396
21
-7.654741
0
LINE
8
layer0
10
19.0944396
20
-7.654741
11
18.7615707
21
-7.6603983
0
LINE
8
layer0
10
18.7615707
20
-7.6603983
11
18.45996
21
-7.6529029
0
LINE
8
layer0
10
18.45996
20
-7.6529029
11
18.1911748
21
-7.6349054
0
LINE
8
layer0
10
18.1911748
20
-7.6349054
11
17.957371
21
-7.609356
0
LINE
8
layer0
10
17.957371
20
-7.609356
11
17.7590488
21
-7.5792592
0
LINE
8
layer0
10
17.7590488
20
-7.5792592
11
17.4617233
21
-7.5156874
0
LINE
8
layer0
10
17.4617233
20
-7.5156874
11
17.2954169
21
-7.4657085
0
LINE
8
layer0
10
17.2954169
20
-7.4657085
11
17.2047798
21
-7.4312324
0
LINE
8
layer0
10
17.2047798
20
-7.4312324
11
16.9770664
21
-7.3580683
0
LINE
8
layer0
10
16.9770664
20
-7.3580683
11
16.7743415
21
-7.315863
0
LINE
8
layer0
10
16.7743415
20
-7.315863
11
16.6830192
21
-7.3056617
0
LINE
8
layer0
10
16.6830192
20
-7.3056617
11
16.5987243
21
-7.3023518
0
LINE
8
layer0
10
16.5987243
20
-7.3023518
11
16.5217228
21
-7.3056313
0
LINE
8
layer0
10
16.5217228
20
-7.3056313
11
16.4522274
21
-7.3151708
0
LINE
8
layer0
10
16.4522274
20
-7.3151708
11
16.3904863
21
-7.3306815
0
LINE
8
layer0
10
16.3904863
20
-7.3306815
11
16.3366989
21
-7.3518161
0
LINE
8
layer0
10
16.3366989
20
-7.3518161
11
16.2910689
21
-7.378263
0
LINE
8
layer0
10
16.2910689
20
-7.378263
11
16.2538089
21
-7.409693
0
LINE
8
layer0
10
16.2538089
20
-7.409693
11
16.2250916
21
-7.4457451
0
LINE
8
layer0
10
16.2250916
20
-7.4457451
11
16.1710789
21
-7.5578304
0
LINE
8
layer0
10
16.1710789
20
-7.5578304
11
15.9044665
21
-8.1037304
0
LINE
8
layer0
10
15.9044665
20
-8.1037304
11
15.6195349
21
-8.6402964
0
LINE
8
layer0
10
15.6195349
20
-8.6402964
11
15.5606039
21
-8.7498757
0
LINE
8
layer0
10
15.5606039
20
-8.7498757
11
15.5483167
21
-8.7942993
0
LINE
8
layer0
10
15.5483167
20
-8.7942993
11
15.5447902
21
-8.8429174
0
LINE
8
layer0
10
15.5447902
20
-8.8429174
11
15.5502149
21
-8.895378
0
LINE
8
layer0
10
15.5502149
20
-8.895378
11
15.5647321
21
-8.9513155
0
LINE
8
layer0
10
15.5647321
20
-8.9513155
11
15.5884741
21
-9.010382
0
LINE
8
layer0
10
15.5884741
20
-9.010382
11
15.6216049
21
-9.0722121
0
LINE
8
layer0
10
15.6216049
20
-9.0722121
11
15.6642121
21
-9.1364353
0
LINE
8
layer0
10
15.6642121
20
-9.1364353
11
15.7164372
21
-9.2026859
0
LINE
8
layer0
10
15.7164372
20
-9.2026859
11
15.778368
21
-9.2705709
0
LINE
8
layer0
10
15.778368
20
-9.2705709
11
15.9316715
21
-9.4097712
0
LINE
8
layer0
10
15.9316715
20
-9.4097712
11
16.1247092
21
-9.5509904
0
LINE
8
layer0
10
16.1247092
20
-9.5509904
11
16.205876
21
-9.6040528
0
LINE
8
layer0
10
16.205876
20
-9.6040528
11
16.3440622
21
-9.7092207
0
LINE
8
layer0
10
16.3440622
20
-9.7092207
11
16.5702565
21
-9.9123955
0
LINE
8
layer0
10
16.5702565
20
-9.9123955
11
16.7111761
21
-10.0551511
0
LINE
8
layer0
10
16.7111761
20
-10.0551511
11
16.8692725
21
-10.2292848
0
LINE
8
layer0
10
16.8692725
20
-10.2292848
11
17.0418208
21
-10.4361578
0
LINE
8
layer0
10
17.0418208
20
-10.4361578
11
17.225167
21
-10.6757604
0
LINE
8
layer0
10
17.225167
20
-10.6757604
11
17.4162456
21
-10.9483823
0
LINE
8
layer0
10
17.4162456
20
-10.9483823
11
17.6144191
21
-11.2578737
0
LINE
8
layer0
10
17.6144191
20
-11.2578737
11
17.8149286
21
-11.6019221
0
LINE
8
layer0
10
17.8149286
20
-11.6019221
11
18.0175875
21
-11.9856738
0
LINE
8
layer0
10
18.0175875
20
-11.9856738
11
18.1977039
21
-12.3629374
0
ARC
8
layer0
10
-0.0000245
20
0.0000186
40
22
50
322.1909337
51
325.8090629
0
LINE
8
layer0
10
17.381252
20
-13.4866871
11
16.9667939
21
-13.4319671
0
LINE
8
layer0
10
16.9667939
20
-13.4319671
11
16.5391993
21
-13.3578128
0
LINE
8
layer0
10
16.5391993
20
-13.3578128
11
16.150029
21
-13.2734337
0
LINE
8
layer0
10
16.150029
20
-13.2734337
11
15.7944462
21
-13.1805977
0
LINE
8
layer0
10
15.7944462
20
-13.1805977
11
15.4761209
21
-13.0831159
0
LINE
8
layer0
10
15.4761209
20
-13.0831159
11
15.1915882
21
-12.9827846
0
LINE
8
layer0
10
15.1915882
20
-12.9827846
11
14.9415198
21
-12.8826087
0
LINE
8
layer0
10
14.9415198
20
-12.8826087
11
14.7270544
21
-12.7860604
0
LINE
8
layer0
10
14.7270544
20
-12.7860604
11
14.5477391
21
-12.6961518
0
LINE
8
layer0
10
14.5477391
20
-12.6961518
11
14.2846106
21
-12.5438127
0
LINE
8
layer0
10
14.2846106
20
-12.5438127
11
14.1418881
21
-12.4448884
0
LINE
8
layer0
10
14.1418881
20
-12.4448884
11
14.0663408
21
-12.3840914
0
LINE
8
layer0
10
14.0663408
20
-12.3840914
11
13.8723815
21
-12.2441408
0
LINE
8
layer0
10
13.8723815
20
-12.2441408
11
13.6926208
21
-12.1413558
0
LINE
8
layer0
10
13.6926208
20
-12.1413558
11
13.6089205
21
-12.1034336
0
LINE
8
layer0
10
13.6089205
20
-12.1034336
11
13.5297741
21
-12.0742372
0
LINE
8
layer0
10
13.5297741
20
-12.0742372
11
13.4555279
21
-12.0535614
0
LINE
8
layer0
10
13.4555279
20
-12.0535614
11
13.386486
21
-12.0411587
0
LINE
8
layer0
10
13.386486
20
-12.0411587
11
13.3229736
21
-12.0368312
0
LINE
8
layer0
10
13.3229736
20
-12.0368312
11
13.2652879
21
-12.0403102
0
LINE
8
layer0
10
13.2652879
20
-12.0403102
11
13.2137186
21
-12.0513623
0
LINE
8
layer0
10
13.2137186
20
-12.0513623
11
13.1685698
21
-12.06974
0
LINE
8
layer0
10
13.1685698
20
-12.06974
11
13.1301173
21
-12.0951534
0
LINE
8
layer0
10
13.1301173
20
-12.0951534
11
13.0441119
21
-12.185062
0
LINE
8
layer0
10
13.0441119
20
-12.185062
11
12.621856
21
-12.621856
0
LINE
8
layer0
10
12.621856
20
-12.621856
11
12.185062
21
-13.0441119
0
LINE
8
layer0
10
12.185062
20
-13.0441119
11
12.0951534
21
-13.1301173
0
LINE
8
layer0
10
12.0951534
20
-13.1301173
11
12.06974
21
-13.1685698
0
LINE
8
layer0
10
12.06974
20
-13.1685698
11
12.0513623
21
-13.2137186
0
LINE
8
layer0
10
12.0513623
20
-13.2137186
11
12.0403102
21
-13.2652879
0
LINE
8
layer0
10
12.0403102
20
-13.2652879
11
12.0368312
21
-13.3229736
0
LINE
8
layer0
10
12.0368312
20
-13.3229736
11
12.0411587
21
-13.386486
0
LINE
8
layer0
10
12.0411587
20
-13.386486
11
12.0535614
21
-13.4555279
0
LINE
8
layer0
10
12.0535614
20
-13.4555279
11
12.0742372
21
-13.5297741
0
LINE
8
layer0
10
12.0742372
20
-13.5297741
11
12.1034336
21
-13.6089205
0
LINE
8
layer0
10
12.1034336
20
-13.6089205
11
12.1413558
21
-13.6926208
0
LINE
8
layer0
10
12.1413558
20
-13.6926208
11
12.2441408
21
-13.8723815
0
LINE
8
layer0
10
12.2441408
20
-13.8723815
11
12.3840914
21
-14.0663408
0
LINE
8
layer0
10
12.3840914
20
-14.0663408
11
12.4448884
21
-14.1418881
0
LINE
8
layer0
10
12.4448884
20
-14.1418881
11
12.5438127
21
-14.2846106
0
LINE
8
layer0
10
12.5438127
20
-14.2846106
11
12.6961518
21
-14.5477391
0
LINE
8
layer0
10
12.6961518
20
-14.5477391
11
12.7860604
21
-14.7270544
0
LINE
8
layer0
10
12.7860604
20
-14.7270544
11
12.8826087
21
-14.9415198
0
LINE
8
layer0
10
12.8826087
20
-14.9415198
11
12.9827846
21
-15.1915882
0
LINE
8
layer0
10
12.9827846
20
-15.1915882
11
13.0831159
21
-15.4761209
0
LINE
8
layer0
10
13.0831159
20
-15.4761209
11
13.1805977
21
-15.7944462
0
LINE
8
layer0
10
13.1805977
20
-15.7944462
11
13.2734337
21
-16.150029
0
LINE
8
layer0
10
13.2734337
20
-16.150029
11
13.3578128
21
-16.5391993
0
LINE
8
layer0
10
13.3578128
20
-16.5391993
11
13.4319671
21
-16.9667939
0
LINE
8
layer0
10
13.4319671
20
-16.9667939
11
13.4866871
21
-17.381252
0
ARC
8
layer0
10
-0.0000186
20
0.0000244
40
22
50
304.1909371
51
307.8090663
0
LINE
8
layer0
10
12.3629374
20
-18.1977039
11
11.9856738
21
-18.0175875
0
LINE
8
layer0
10
11.9856738
20
-18.0175875
11
11.6019221
21
-17.8149286
0
LINE
8
layer0
10
11.6019221
20
-17.8149286
11
11.2578737
21
-17.6144191
0
LINE
8
layer0
10
11.2578737
20
-17.6144191
11
10.9483823
21
-17.4162456
0
LINE
8
layer0
10
10.9483823
20
-17.4162456
11
10.6757604
21
-17.225167
0
LINE
8
layer0
10
10.6757604
20
-17.225167
11
10.4361578
21
-17.0418208
0
LINE
8
layer0
10
10.4361578
20
-17.0418208
11
10.2292848
21
-16.8692725
0
LINE
8
layer0
10
10.2292848
20
-16.8692725
11
10.0551511
21
-16.7111761
0
LINE
8
layer0
10
10.0551511
20
-16.7111761
11
9.9123955
21
-16.5702565
0
LINE
8
layer0
10
9.9123955
20
-16.5702565
11
9.7092207
21
-16.3440622
0
LINE
8
layer0
10
9.7092207
20
-16.3440622
11
9.6040528
21
-16.205876
0
LINE
8
layer0
10
9.6040528
20
-16.205876
11
9.5509904
21
-16.1247092
0
LINE
8
layer0
10
9.5509904
20
-16.1247092
11
9.4097712
21
-15.9316715
0
LINE
8
layer0
10
9.4097712
20
-15.9316715
11
9.2705709
21
-15.778368
0
LINE
8
layer0
10
9.2705709
20
-15.778368
11
9.2026859
21
-15.7164372
0
LINE
8
layer0
10
9.2026859
20
-15.7164372
11
9.1364353
21
-15.6642121
0
LINE
8
layer0
10
9.1364353
20
-15.6642121
11
9.0722121
21
-15.6216049
0
LINE
8
layer0
10
9.0722121
20
-15.6216049
11
9.010382
21
-15.5884741
0
LINE
8
layer0
10
9.010382
20
-15.5884741
11
8.9513155
21
-15.5647321
0
LINE
8
layer0
10
8.9513155
20
-15.5647321
11
8.895378
21
-15.5502149
0
LINE
8
layer0
10
8.895378
20
-15.5502149
11
8.8429174
21
-15.5447902
0
LINE
8
layer0
10
8.8429174
20
-15.5447902
11
8.7942993
21
-15.5483167
0
LINE
8
layer0
10
8.7942993
20
-15.5483167
11
8.7498757
21
-15.5606039
0
LINE
8
layer0
10
8.7498757
20
-15.5606039
11
8.6402964
21
-15.6195349
0
LINE
8
layer0
10
8.6402964
20
-15.6195349
11
8.1037304
21
-15.9044665
0
LINE
8
layer0
10
8.1037304
20
-15.9044665
11
7.5578304
21
-16.1710789
0
LINE
8
layer0
10
7.5578304
20
-16.1710789
11
7.4457451
21
-16.2250916
0
LINE
8
layer0
10
7.4457451
20
-16.2250916
11
7.409693
21
-16.2538089
0
LINE
8
layer0
10
7.409693
20
-16.2538089
11
7.378263
21
-16.2910689
0
LINE
8
layer0
10
7.378263
20
-16.2910689
11
7.3518161
21
-16.3366989
0
LINE
8
layer0
10
7.3518161
20
-16.3366989
11
7.3306815
21
-16.3904863
0
LINE
8
layer0
10
7.3306815
20
-16.3904863
11
7.3151708
21
-16.4522274
0
LINE
8
layer0
10
7.3151708
20
-16.4522274
11
7.3056313
21
-16.5217228
0
LINE
8
layer0
10
7.3056313
20
-16.5217228
11
7.3023518
21
-16.5987243
0
LINE
8
layer0
10
7.3023518
20
-16.5987243
11
7.3056617
21
-16.6830192
0
LINE
8
layer0
10
7.3056617
20
-16.6830192
11
7.315863
21
-16.7743415
0
LINE
8
layer0
10
7.315863
20
-16.7743415
11
7.3580683
21
-16.9770664
0
LINE
8
layer0
10
7.3580683
20
-16.9770664
11
7.4312324
21
-17.2047798
0
LINE
8
layer0
10
7.4312324
20
-17.2047798
11
7.4657085
21
-17.2954169
0
LINE
8
layer0
10
7.4657085
20
-17.2954169
11
7.5156874
21
-17.4617233
0
LINE
8
layer0
10
7.5156874
20
-17.4617233
11
7.5792592
21
-17.7590488
0
LINE
8
layer0
10
7.5792592
20
-17.7590488
11
7.609356
21
-17.957371
0
LINE
8
layer0
10
7.609356
20
-17.957371
11
7.6349054
21
-18.1911748
0
LINE
8
layer0
10
7.6349054
20
-18.1911748
11
7.6529029
21
-18.45996
0
LINE
8
layer0
10
7.6529029
20
-18.45996
11
7.6603983
21
-18.7615707
0
LINE
8
layer0
10
7.6603983
20
-18.7615707
11
7.654741
21
-19.0944396
0
LINE
8
layer0
10
7.654741
20
-19.0944396
11
7.6331522
21
-19.4613069
0
LINE
8
layer0
10
7.6331522
20
-19.4613069
11
7.5931412
21
-19.8575045
0
LINE
8
layer0
10
7.5931412
20
-19.8575045
11
7.5315322
21
-20.287086
0
LINE
8
layer0
10
7.5315322
20
-20.287086
11
7.4554994
21
-20.6981685
0
ARC
8
layer0
10
-0.0000097
20
0.0000291
40
22
50
286.1909359
51
289.809065
0
LINE
8
layer0
10
6.1344524
20
-21.1274026
11
5.8313124
21
-20.8395208
0
LINE
8
layer0
10
5.8313124
20
-20.8395208
11
5.528968
21
-20.528195
0
LINE
8
layer0
10
5.528968
20
-20.528195
11
5.2637193
21
-20.2311823
0
LINE
8
layer0
10
5.2637193
20
-20.2311823
11
5.0306144
21
-19.9470701
0
LINE
8
layer0
10
5.0306144
20
-19.9470701
11
4.8303822
21
-19.6810987
0
LINE
8
layer0
10
4.8303822
20
-19.6810987
11
4.6591637
21
-19.4326848
0
LINE
8
layer0
10
4.6591637
20
-19.4326848
11
4.515736
21
-19.2046544
0
LINE
8
layer0
10
4.515736
20
-19.2046544
11
4.3989795
21
-19.0004855
0
LINE
8
layer0
10
4.3989795
20
-19.0004855
11
4.3067574
21
-18.8223491
0
LINE
8
layer0
10
4.3067574
20
-18.8223491
11
4.1834246
21
-18.5444411
0
LINE
8
layer0
10
4.1834246
20
-18.5444411
11
4.1261059
21
-18.3805195
0
LINE
8
layer0
10
4.1261059
20
-18.3805195
11
4.1007225
21
-18.2869281
0
LINE
8
layer0
10
4.1007225
20
-18.2869281
11
4.026067
21
-18.0596992
0
LINE
8
layer0
10
4.026067
20
-18.0596992
11
3.941053
21
-17.8708837
0
LINE
8
layer0
10
3.941053
20
-17.8708837
11
3.8956282
21
-17.7910063
0
LINE
8
layer0
10
3.8956282
20
-17.7910063
11
3.8487586
21
-17.7208648
0
LINE
8
layer0
10
3.8487586
20
-17.7208648
11
3.8008451
21
-17.6604969
0
LINE
8
layer0
10
3.8008451
20
-17.6604969
11
3.7522791
21
-17.6098811
0
LINE
8
layer0
10
3.7522791
20
-17.6098811
11
3.7034402
21
-17.5690485
0
LINE
8
layer0
10
3.7034402
20
-17.5690485
11
3.6547265
21
-17.5379562
0
LINE
8
layer0
10
3.6547265
20
-17.5379562
11
3.6065098
21
-17.5165858
0
LINE
8
layer0
10
3.6065098
20
-17.5165858
11
3.5591816
21
-17.5049159
0
LINE
8
layer0
10
3.5591816
20
-17.5049159
11
3.5131353
21
-17.502874
0
LINE
8
layer0
10
3.5131353
20
-17.502874
11
3.3907085
21
-17.5250589
0
LINE
8
layer0
10
3.3907085
20
-17.5250589
11
2.7923552
21
-17.6302369
0
LINE
8
layer0
10
2.7923552
20
-17.6302369
11
2.1907856
21
-17.715108
0
LINE
8
layer0
10
2.1907856
20
-17.715108
11
2.0674953
21
-17.7318409
0
LINE
8
layer0
10
2.0674953
20
-17.7318409
11
2.0243337
21
-17.7480119
0
LINE
8
layer0
10
2.0243337
20
-17.7480119
11
1.982928
21
-17.7737359
0
LINE
8
layer0
10
1.982928
20
-17.7737359
11
1.943675
21
-17.8089601
0
LINE
8
layer0
10
1.943675
20
-17.8089601
11
1.9069536
21
-17.853584
0
LINE
8
layer0
10
1.9069536
20
-17.853584
11
1.873123
21
-17.9075102
0
LINE
8
layer0
10
1.873123
20
-17.9075102
11
1.8425752
21
-17.9706563
0
LINE
8
layer0
10
1.8425752
20
-17.9706563
11
1.8156614
21
-18.0428757
0
LINE
8
layer0
10
1.8156614
20
-18.0428757
11
1.7927607
21
-18.1240678
0
LINE
8
layer0
10
1.7927607
20
-18.1240678
11
1.7742426
21
-18.2140728
0
LINE
8
layer0
10
1.7742426
20
-18.2140728
11
1.7517368
21
-18.4199177
0
LINE
8
layer0
10
1.7517368
20
-18.4199177
11
1.7509527
21
-18.6590951
0
LINE
8
layer0
10
1.7509527
20
-18.6590951
11
1.7557329
21
-18.7559497
0
LINE
8
layer0
10
1.7557329
20
-18.7559497
11
1.7518742
21
-18.9295608
0
LINE
8
layer0
10
1.7518742
20
-18.9295608
11
1.720456
21
-19.231979
0
LINE
8
layer0
10
1.720456
20
-19.231979
11
1.6877948
21
-19.429895
0
LINE
8
layer0
10
1.6877948
20
-19.429895
11
1.6398444
21
-19.6601509
0
LINE
8
layer0
10
1.6398444
20
-19.6601509
11
1.5739019
21
-19.9213423
0
LINE
8
layer0
10
1.5739019
20
-19.9213423
11
1.4878275
21
-20.2105074
0
LINE
8
layer0
10
1.4878275
20
-20.2105074
11
1.379585
21
-20.5253363
0
LINE
8
layer0
10
1.379585
20
-20.5253363
11
1.2456846
21
-20.8675765
0
LINE
8
layer0
10
1.2456846
20
-20.8675765
11
1.0852001
21
-21.2320187
0
LINE
8
layer0
10
1.0852001
20
-21.2320187
11
0.8938584
21
-21.6215367
0
LINE
8
layer0
10
0.8938584
20
-21.6215367
11
0.6945155
21
-21.989004
0
ARC
8
layer0
10
0
20
0.0000307
40
22
50
268.1909355
51
271.8090645
0
LINE
8
layer0
10
-0.6945155
20
-21.989004
11
-0.8938584
21
-21.6215367
0
LINE
8
layer0
10
-0.8938584
20
-21.6215367
11
-1.0852001
21
-21.2320187
0
LINE
8
layer0
10
-1.0852001
20
-21.2320187
11
-1.2456846
21
-20.8675765
0
LINE
8
layer0
10
-1.2456846
20
-20.8675765
11
-1.379585
21
-20.5253363
0
LINE
8
layer0
10
-1.379585
20
-20.5253363
11
-1.4878275
21
-20.2105074
0
LINE
8
layer0
10
-1.4878275
20
-20.2105074
11
-1.5739019
21
-19.9213423
0
LINE
8
layer0
10
-1.5739019
20
-19.9213423
11
-1.6398444
21
-19.6601509
0
LINE
8
layer0
10
-1.6398444
20
-19.6601509
11
-1.6877948
21
-19.429895
0
LINE
8
layer0
10
-1.6877948
20
-19.429895
11
-1.720456
21
-19.231979
0
LINE
8
layer0
10
-1.720456
20
-19.231979
11
-1.7518742
21
-18.9295608
0
LINE
8
layer0
10
-1.7518742
20
-18.9295608
11
-1.7557329
21
-18.7559497
0
LINE
8
layer0
10
-1.7557329
20
-18.7559497
11
-1.7509527
21
-18.6590951
0
LINE
8
layer0
10
-1.7509527
20
-18.6590951
11
-1.7517368
21
-18.4199177
0
LINE
8
layer0
10
-1.7517368
20
-18.4199177
11
-1.7742426
21
-18.2140728
0
LINE
8
layer0
10
-1.7742426
20
-18.2140728
11
-1.7927607
21
-18.1240678
0
LINE
8
layer0
10
-1.7927607
20
-18.1240678
11
-1.8156614
21
-18.0428757
0
LINE
8
layer0
10
-1.8156614
20
-18.0428757
11
-1.8425752
21
-17.9706563
0
LINE
8
layer0
10
-1.8425752
20
-17.9706563
11
-1.873123
21
-17.9075102
0
LINE
8
layer0
10
-1.873123
20
-17.9075102
11
-1.9069536
21
-17.853584
0
LINE
8
layer0
10
-1.9069536
20
-17.853584
11
-1.943675
21
-17.8089601
0
LINE
8
layer0
10
-1.943675
20
-17.8089601
11
-1.982928
21
-17.7737359
0
LINE
8
layer0
10
-1.982928
20
-17.7737359
11
-2.0243337
21
-17.7480119
0
LINE
8
layer0
10
-2.0243337
20
-17.7480119
11
-2.0674953
21
-17.7318409
0
LINE
8
layer0
10
-2.0674953
20
-17.7318409
11
-2.1907856
21
-17.715108
0
LINE
8
layer0
10
-2.1907856
20
-17.715108
11
-2.7923552
21
-17.6302369
0
LINE
8
layer0
10
-2.7923552
20
-17.6302369
11
-3.3907085
21
-17.5250589
0
LINE
8
layer0
10
-3.3907085
20
-17.5250589
11
-3.5131353
21
-17.502874
0
LINE
8
layer0
10
-3.5131353
20
-17.502874
11
-3.5591816
21
-17.5049159
0
LINE
8
layer0
10
-3.5591816
20
-17.5049159
11
-3.6065098
21
-17.5165858
0
LINE
8
layer0
10
-3.6065098
20
-17.5165858
11
-3.6547265
21
-17.5379562
0
LINE
8
layer0
10
-3.6547265
20
-17.5379562
11
-3.7034402
21
-17.5690485
0
LINE
8
layer0
10
-3.7034402
20
-17.5690485
11
-3.7522791
21
-17.6098811
0
LINE
8
layer0
10
-3.7522791
20
-17.6098811
11
-3.8008451
21
-17.6604969
0
LINE
8
layer0
10
-3.8008451
20
-17.6604969
11
-3.8487586
21
-17.7208648
0
LINE
8
layer0
10
-3.8487586
20
-17.7208648
11
-3.8956282
21
-17.7910063
0
LINE
8
layer0
10
-3.8956282
20
-17.7910063
11
-3.941053
21
-17.8708837
0
LINE
8
layer0
10
-3.941053
20
-17.8708837
11
-4.026067
21
-18.0596992
0
LINE
8
layer0
10
-4.026067
20
-18.0596992
11
-4.1007225
21
-18.2869281
0
LINE
8
layer0
10
-4.1007225
20
-18.2869281
11
-4.1261059
21
-18.3805195
0
LINE
8
layer0
10
-4.1261059
20
-18.3805195
11
-4.1834246
21
-18.5444411
0
LINE
8
layer0
10
-4.1834246
20
-18.5444411
11
-4.3067574
21
-18.8223491
0
LINE
8
layer0
10
-4.3067574
20
-18.8223491
11
-4.3989795
21
-19.0004855
0
LINE
8
layer0
10
-4.3989795
20
-19.0004855
11
-4.515736
21
-19.2046544
0
LINE
8
layer0
10
-4.515736
20
-19.2046544
11
-4.6591637
21
-19.4326848
0
LINE
8
layer0
10
-4.6591637
20
-19.4326848
11
-4.8303822
21
-19.6810987
0
LINE
8
layer0
10
-4.8303822
20
-19.6810987
11
-5.0306144
21
-19.9470701
0
LINE
8
layer0
10
-5.0306144
20
-19.9470701
11
-5.2637193
21
-20.2311823
0
LINE
8
layer0
10
-5.2637193
20
-20.2311823
11
-5.528968
21
-20.528195
0
LINE
8
layer0
10
-5.528968
20
-20.528195
11
-5.8313124
21
-20.8395208
0
LINE
8
layer0
10
-5.8313124
20
-20.8395208
11
-6.1344524
21
-21.1274026
0
ARC
8
layer0
10
0.0000097
20
0.0000292
40
22
50
250.190935
51
253.8090641
0
LINE
8
layer0
10
-7.4554994
20
-20.6981685
11
-7.5315322
21
-20.287086
0
LINE
8
layer0
10
-7.5315322
20
-20.287086
11
-7.5931412
21
-19.8575045
0
LINE
8
layer0
10
-7.5931412
20
-19.8575045
11
-7.6331522
21
-19.4613069
0
LINE
8
layer0
10
-7.6331522
20
-19.4613069
11
-7.654741
21
-19.0944396
0
LINE
8
layer0
10
-7.654741
20
-19.0944396
11
-7.6603983
21
-18.7615707
0
LINE
8
layer0
10
-7.6603983
20
-18.7615707
11
-7.6529029
21
-18.45996
0
LINE
8
layer0
10
-7.6529029
20
-18.45996
11
-7.6349054
21
-18.1911748
0
LINE
8
layer0
10
-7.6349054
20
-18.1911748
11
-7.609356
21
-17.957371
0
LINE
8
layer0
10
-7.609356
20
-17.957371
11
-7.5792592
21
-17.7590488
0
LINE
8
layer0
10
-7.5792592
20
-17.7590488
11
-7.5156874
21
-17.4617233
0
LINE
8
layer0
10
-7.5156874
20
-17.4617233
11
-7.4657085
21
-17.2954169
0
LINE
8
layer0
10
-7.4657085
20
-17.2954169
11
-7.4312324
21
-17.2047798
0
LINE
8
layer0
10
-7.4312324
20
-17.2047798
11
-7.3580683
21
-16.9770664
0
LINE
8
layer0
10
-7.3580683
20
-16.9770664
11
-7.315863
21
-16.7743415
0
LINE
8
layer0
10
-7.315863
20
-16.7743415
11
-7.3056617
21
-16.6830192
0
LINE
8
layer0
10
-7.3056617
20
-16.6830192
11
-7.3023518
21
-16.5987243
0
LINE
8
layer0
10
-7.3023518
20
-16.5987243
11
-7.3056313
21
-16.5217228
0
LINE
8
layer0
10
-7.3056313
20
-16.5217228
11
-7.3151708
21
-16.4522274
0
LINE
8
layer0
10
-7.3151708
20
-16.4522274
11
-7.3306815
21
-16.3904863
0
LINE
8
layer0
10
-7.3306815
20
-16.3904863
11
-7.3518161
21
-16.3366989
0
LINE
8
layer0
10
-7.3518161
20
-16.3366989
11
-7.378263
21
-16.2910689
0
LINE
8
layer0
10
-7.378263
20
-16.2910689
11
-7.409693
21
-16.2538089
0
LINE
8
layer0
10
-7.409693
20
-16.2538089
11
-7.4457451
21
-16.2250916
0
LINE
8
layer0
10
-7.4457451
20
-16.2250916
11
-7.5578304
21
-16.1710789
0
LINE
8
layer0
10
-7.5578304
20
-16.1710789
11
-8.1037304
21
-15.9044665
0
LINE
8
layer0
10
-8.1037304
20
-15.9044665
11
-8.6402964
21
-15.6195349
0
LINE
8
layer0
10
-8.6402964
20
-15.6195349
11
-8.7498757
21
-15.5606039
0
LINE
8
layer0
10
-8.7498757
20
-15.5606039
11
-8.7942993
21
-15.5483167
0
LINE
8
layer0
10
-8.7942993
20
-15.5483167
11
-8.8429174
21
-15.5447902
0
LINE
8
layer0
10
-8.8429174
20
-15.5447902
11
-8.895378
21
-15.5502149
0
LINE
8
layer0
10
-8.895378
20
-15.5502149
11
-8.9513155
21
-15.5647321
0
LINE
8
layer0
10
-8.9513155
20
-15.5647321
11
-9.010382
21
-15.5884741
0
LINE
8
layer0
10
-9.010382
20
-15.5884741
11
-9.0722121
21
-15.6216049
0
LINE
8
layer0
10
-9.0722121
20
-15.6216049
11
-9.1364353
21
-15.6642121
0
LINE
8
layer0
10
-9.1364353
20
-15.6642121
11
-9.2026859
21
-15.7164372
0
LINE
8
layer0
10
-9.2026859
20
-15.7164372
11
-9.2705709
21
-15.778368
0
LINE
8
layer0
10
-9.2705709
20
-15.778368
11
-9.4097712
21
-15.9316715
0
LINE
8
layer0
10
-9.4097712
20
-15.9316715
11
-9.5509904
21
-16.1247092
0
LINE
8
layer0
10
-9.5509904
20
-16.1247092
11
-9.6040528
21
-16.205876
0
LINE
8
layer0
10
-9.6040528
20
-16.205876
11
-9.7092207
21
-16.3440622
0
LINE
8
layer0
10
-9.7092207
20
-16.3440622
11
-9.9123955
21
-16.5702565
0
LINE
8
layer0
10
-9.9123955
20
-16.5702565
11
-10.0551511
21
-16.7111761
0
LINE
8
layer0
10
-10.0551511
20
-16.7111761
11
-10.2292848
21
-16.8692725
0
LINE
8
layer0
10
-10.2292848
20
-16.8692725
11
-10.4361578
21
-17.0418208
0
LINE
8
layer0
10
-10.4361578
20
-17.0418208
11
-10.6757604
21
-17.225167
0
LINE
8
layer0
10
-10.6757604
20
-17.225167
11
-10.9483823
21
-17.4162456
0
LINE
8
layer0
10
-10.9483823
20
-17.4162456
11
-11.2578737
21
-17.6144191
0
LINE
8
layer0
10
-11.2578737
20
-17.6144191
11
-11.6019221
21
-17.8149286
0
LINE
8
layer0
10
-11.6019221
20
-17.8149286
11
-11.9856738
21
-18.0175875
0
LINE
8
layer0
10
-11.9856738
20
-18.0175875
11
-12.3629374
21
-18.1977039
0
ARC
8
layer0
10
0.0000186
20
0.0000245
40
22
50
232.1909337
51
235.8090629
0
LINE
8
layer0
10
-13.4866871
20
-17.381252
11
-13.4319671
21
-16.9667939
0
LINE
8
layer0
10
-13.4319671
20
-16.9667939
11
-13.3578128
21
-16.5391993
0
LINE
8
layer0
10
-13.3578128
20
-16.5391993
11
-13.2734337
21
-16.150029
0
LINE
8
layer0
10
-13.2734337
20
-16.150029
11
-13.1805977
21
-15.7944462
0
LINE
8
layer0
10
-13.1805977
20
-15.7944462
11
-13.0831159
21
-15.4761209
0
LINE
8
layer0
10
-13.0831159
20
-15.4761209
11
-12.9827846
21
-15.1915882
0
LINE
8
layer0
10
-12.9827846
20
-15.1915882
11
-12.8826087
21
-14.9415198
0
LINE
8
layer0
10
-12.8826087
20
-14.9415198
11
-12.7860604
21
-14.7270544
0
LINE
8
layer0
10
-12.7860604
20
-14.7270544
11
-12.6961518
21
-14.5477391
0
LINE
8
layer0
10
-12.6961518
20
-14.5477391
11
-12.5438127
21
-14.2846106
0
LINE
8
layer0
10
-12.5438127
20
-14.2846106
11
-12.4448884
21
-14.1418881
0
LINE
8
layer0
10
-12.4448884
20
-14.1418881
11
-12.3840914
21
-14.0663408
0
LINE
8
layer0
10
-12.3840914
20
-14.0663408
11
-12.2441408
21
-13.8723815
0
LINE
8
layer0
10
-12.2441408
20
-13.8723815
11
-12.1413558
21
-13.6926208
0
LINE
8
layer0
10
-12.1413558
20
-13.6926208
11
-12.1034336
21
-13.6089205
0
LINE
8
layer0
10
-12.1034336
20
-13.6089205
11
-12.0742372
21
-13.5297741
0
LINE
8
layer0
10
-12.0742372
20
-13.5297741
11
-12.0535614
21
-13.4555279
0
LINE
8
layer0
10
-12.0535614
20
-13.4555279
11
-12.0411587
21
-13.386486
0
LINE
8
layer0
10
-12.0411587
20
-13.386486
11
-12.0368312
21
-13.3229736
0
LINE
8
layer0
10
-12.0368312
20
-13.3229736
11
-12.0403102
21
-13.2652879
0
LINE
8
layer0
10
-12.0403102
20
-13.2652879
11
-12.0513623
21
-13.2137186
0
LINE
8
layer0
10
-12.0513623
20
-13.2137186
11
-12.06974
21
-13.1685698
0
LINE
8
layer0
10
-12.06974
20
-13.1685698
11
-12.0951534
21
-13.1301173
0
LINE
8
layer0
10
-12.0951534
20
-13.1301173
11
-12.185062
21
-13.0441119
0
LINE
8
layer0
10
-12.185062
20
-13.0441119
11
-12.621856
21
-12.621856
0
LINE
8
layer0
10
-12.621856
20
-12.621856
11
-13.0441119
21
-12.185062
0
LINE
8
layer0
10
-13.0441119
20
-12.185062
11
-13.1301173
21
-12.0951534
0
LINE
8
layer0
10
-13.1301173
20
-12.0951534
11
-13.1685698
21
-12.06974
0
LINE
8
layer0
10
-13.1685698
20
-12.06974
11
-13.2137186
21
-12.0513623
0
LINE
8
layer0
10
-13.2137186
20
-12.0513623
11
-13.2652879
21
-12.0403102
0
LINE
8
layer0
10
-13.2652879
20
-12.0403102
11
-13.3229736
21
-12.0368312
0
LINE
8
layer0
10
-13.3229736
20
-12.0368312
11
-13.386486
21
-12.0411587
0
LINE
8
layer0
10
-13.386486
20
-12.0411587
11
-13.4555279
21
-12.0535614
0
LINE
8
layer0
10
-13.4555279
20
-12.0535614
11
-13.5297741
21
-12.0742372
0
LINE
8
layer0
10
-13.5297741
20
-12.0742372
11
-13.6089205
21
-12.1034336
0
LINE
8
layer0
10
-13.6089205
20
-12.1034336
11
-13.6926208
21
-12.1413558
0
LINE
8
layer0
10
-13.6926208
20
-12.1413558
11
-13.8723815
21
-12.2441408
0
LINE
8
layer0
10
-13.8723815
20
-12.2441408
11
-14.0663408
21
-12.3840914
0
LINE
8
layer0
10
-14.0663408
20
-12.3840914
11
-14.1418881
21
-12.4448884
0
LINE
8
layer0
10
-14.1418881
20
-12.4448884
11
-14.2846106
21
-12.5438127
0
LINE
8
layer0
10
-14.2846106
20
-12.5438127
11
-14.5477391
21
-12.6961518
0
LINE
8
layer0
10
-14.5477391
20
-12.6961518
11
-14.7270544
21
-12.7860604
0
LINE
8
layer0
10
-14.7270544
20
-12.7860604
11
-14.9415198
21
-12.8826087
0
LINE
8
layer0
10
-14.9415198
20
-12.8826087
11
-15.1915882
21
-12.9827846
0
LINE
8
layer0
10
-15.1915882
20
-12.9827846
11
-15.4761209
21
-13.0831159
0
LINE
8
layer0
10
-15.4761209
20
-13.0831159
11
-15.7944462
21
-13.1805977
0
LINE
8
layer0
10
-15.7944462
20
-13.1805977
11
-16.150029
21
-13.2734337
0
LINE
8
layer0
10
-16.150029
20
-13.2734337
11
-16.5391993
21
-13.3578128
0
LINE
8
layer0
10
-16.5391993
20
-13.3578128
11
-16.9667939
21
-13.4319671
0
LINE
8
layer0
10
-16.9667939
20
-13.4319671
11
-17.381252
21
-13.4866871
0
ARC
8
layer0
10
0.0000244
20
0.0000186
40
22
50
214.1909371
51
217.8090663
0
LINE
8
layer0
10
-18.1977039
20
-12.3629374
11
-18.0175875
21
-11.9856738
0
LINE
8
layer0
10
-18.0175875
20
-11.9856738
11
-17.8149286
21
-11.6019221
0
LINE
8
layer0
10
-17.8149286
20
-11.6019221
11
-17.6144191
21
-11.2578737
0
LINE
8
layer0
10
-17.6144191
20
-11.2578737
11
-17.4162456
21
-10.9483823
0
LINE
8
layer0
10
-17.4162456
20
-10.9483823
11
-17.225167
21
-10.6757604
0
LINE
8
layer0
10
-17.225167
20
-10.6757604
11
-17.0418208
21
-10.4361578
0
LINE
8
layer0
10
-17.0418208
20
-10.4361578
11
-16.8692725
21
-10.2292848
0
LINE
8
layer0
10
-16.8692725
20
-10.2292848
11
-16.7111761
21
-10.0551511
0
LINE
8
layer0
10
-16.7111761
20
-10.0551511
11
-16.5702565
21
-9.9123955
0
LINE
8
layer0
10
-16.5702565
20
-9.9123955
11
-16.3440622
21
-9.7092207
0
LINE
8
layer0
10
-16.3440622
20
-9.7092207
11
-16.205876
21
-9.6040528
0
LINE
8
layer0
10
-16.205876
20
-9.6040528
11
-16.1247092
21
-9.5509904
0
LINE
8
layer0
10
-16.1247092
20
-9.5509904
11
-15.9316715
21
-9.4097712
0
LINE
8
layer0
10
-15.9316715
20
-9.4097712
11
-15.778368
21
-9.2705709
0
LINE
8
layer0
10
-15.778368
20
-9.2705709
11
-15.7164372
21
-9.2026859
0
LINE
8
layer0
10
-15.7164372
20
-9.2026859
11
-15.6642121
21
-9.1364353
0
LINE
8
layer0
10
-15.6642121
20
-9.1364353
11
-15.6216049
21
-9.0722121
0
LINE
8
layer0
10
-15.6216049
20
-9.0722121
11
-15.5884741
21
-9.010382
0
LINE
8
layer0
10
-15.5884741
20
-9.010382
11
-15.5647321
21
-8.9513155
0
LINE
8
layer0
10
-15.5647321
20
-8.9513155
11
-15.5502149
21
-8.895378
0
LINE
8
layer0
10
-15.5502149
20
-8.895378
11
-15.5447902
21
-8.8429174
0
LINE
8
layer0
10
-15.5447902
20
-8.8429174
11
-15.5483167
21
-8.7942993
0
LINE
8
layer0
10
-15.5483167
20
-8.7942993
11
-15.5606039
21
-8.7498757
0
LINE
8
layer0
10
-15.5606039
20
-8.7498757
11
-15.6195349
21
-8.6402964
0
LINE
8
layer0
10
-15.6195349
20
-8.6402964
11
-15.9044665
21
-8.1037304
0
LINE
8
layer0
10
-15.9044665
20
-8.1037304
11
-16.1710789
21
-7.5578304
0
LINE
8
layer0
10
-16.1710789
20
-7.5578304
11
-16.2250916
21
-7.4457451
0
LINE
8
layer0
10
-16.2250916
20
-7.4457451
11
-16.2538089
21
-7.409693
0
LINE
8
layer0
10
-16.2538089
20
-7.409693
11
-16.2910689
21
-7.378263
0
LINE
8
layer0
10
-16.2910689
20
-7.378263
11
-16.3366989
21
-7.3518161
0
LINE
8
layer0
10
-16.3366989
20
-7.3518161
11
-16.3904863
21
-7.3306815
0
LINE
8
layer0
10
-16.3904863
20
-7.3306815
11
-16.4522274
21
-7.3151708
0
LINE
8
layer0
10
-16.4522274
20
-7.3151708
11
-16.5217228
21
-7.3056313
0
LINE
8
layer0
10
-16.5217228
20
-7.3056313
11
-16.5987243
21
-7.3023518
0
LINE
8
layer0
10
-16.5987243
20
-7.3023518
11
-16.6830192
21
-7.3056617
0
LINE
8
layer0
10
-16.6830192
20
-7.3056617
11
-16.7743415
21
-7.315863
0
LINE
8
layer0
10
-16.7743415
20
-7.315863
11
-16.9770664
21
-7.3580683
0
LINE
8
layer0
10
-16.9770664
20
-7.3580683
11
-17.2047798
21
-7.4312324
0
LINE
8
layer0
10
-17.2047798
20
-7.4312324
11
-17.2954169
21
-7.4657085
0
LINE
8
layer0
10
-17.2954169
20
-7.4657085
11
-17.4617233
21
-7.5156874
0
LINE
8
layer0
10
-17.4617233
20
-7.5156874
11
-17.7590488
21
-7.5792592
0
LINE
8
layer0
10
-17.7590488
20
-7.5792592
11
-17.957371
21
-7.609356
0
LINE
8
layer0
10
-17.957371
20
-7.609356
11
-18.1911748
21
-7.6349054
0
LINE
8
layer0
10
-18.1911748
20
-7.6349054
11
-18.45996
21
-7.6529029
0
LINE
8
layer0
10
-18.45996
20
-7.6529029
11
-18.7615707
21
-7.6603983
0
LINE
8
layer0
10
-18.7615707
20
-7.6603983
11
-19.0944396
21
-7.654741
0
LINE
8
layer0
10
-19.0944396
20
-7.654741
11
-19.4613069
21
-7.6331522
0
LINE
8
layer0
10
-19.4613069
20
-7.6331522
11
-19.8575045
21
-7.5931412
0
LINE
8
layer0
10
-19.8575045
20
-7.5931412
11
-20.287086
21
-7.5315322
0
LINE
8
layer0
10
-20.287086
20
-7.5315322
11
-20.6981685
21
-7.4554994
0
ARC
8
layer0
10
0.0000291
20
0.0000097
40
22
50
196.1909359
51
199.809065
0
LINE
8
layer0
10
-21.1274026
20
-6.1344524
11
-20.8395208
21
-5.8313124
0
LINE
8
layer0
10
-20.8395208
20
-5.8313124
11
-20.528195
21
-5.528968
0
LINE
8
layer0
10
-20.528195
20
-5.528968
11
-20.2311823
21
-5.2637193
0
LINE
8
layer0
10
-20.2311823
20
-5.2637193
11
-19.9470701
21
-5.0306144
0
LINE
8
layer0
10
-19.9470701
20
-5.0306144
11
-19.6810987
21
-4.8303822
0
LINE
8
layer0
10
-19.6810987
20
-4.8303822
11
-19.4326848
21
-4.6591637
0
LINE
8
layer0
10
-19.4326848
20
-4.6591637
11
-19.2046544
21
-4.515736
0
LINE
8
layer0
10
-19.2046544
20
-4.515736
11
-19.0004855
21
-4.3989795
0
LINE
8
layer0
10
-19.0004855
20
-4.3989795
11
-18.8223491
21
-4.3067574
0
LINE
8
layer0
10
-18.8223491
20
-4.3067574
11
-18.5444411
21
-4.1834246
0
LINE
8
layer0
10
-18.5444411
20
-4.1834246
11
-18.3805195
21
-4.1261059
0
LINE
8
layer0
10
-18.3805195
20
-4.1261059
11
-18.2869281
21
-4.1007225
0
LINE
8
layer0
10
-18.2869281
20
-4.1007225
11
-18.0596992
21
-4.026067
0
LINE
8
layer0
10
-18.0596992
20
-4.026067
11
-17.8708837
21
-3.941053
0
LINE
8
layer0
10
-17.8708837
20
-3.941053
11
-17.7910063
21
-3.8956282
0
LINE
8
layer0
10
-17.7910063
20
-3.8956282
11
-17.7208648
21
-3.8487586
0
LINE
8
layer0
10
-17.7208648
20
-3.8487586
11
-17.6604969
21
-3.8008451
0
LINE
8
layer0
10
-17.6604969
20
-3.8008451
11
-17.6098811
21
-3.7522791
0
LINE
8
layer0
10
-17.6098811
20
-3.7522791
11
-17.5690485
21
-3.7034402
0
LINE
8
layer0
10
-17.5690485
20
-3.7034402
11
-17.5379562
21
-3.6547265
0
LINE
8
layer0
10
-17.5379562
20
-3.6547265
11
-17.5165858
21
-3.6065098
0
LINE
8
layer0
10
-17.5165858
20
-3.6065098
11
-17.5049159
21
-3.5591816
0
LINE
8
layer0
10
-17.5049159
20
-3.5591816
11
-17.502874
21
-3.5131353
0
LINE
8
layer0
10
-17.502874
20
-3.5131353
11
-17.5250589
21
-3.3907085
0
LINE
8
layer0
10
-17.5250589
20
-3.3907085
11
-17.6302369
21
-2.7923552
0
LINE
8
layer0
10
-17.6302369
20
-2.7923552
11
-17.715108
21
-2.1907856
0
LINE
8
layer0
10
-17.715108
20
-2.1907856
11
-17.7318409
21
-2.0674953
0
LINE
8
layer0
10
-17.7318409
20
-2.0674953
11
-17.7480119
21
-2.0243337
0
LINE
8
layer0
10
-17.7480119
20
-2.0243337
11
-17.7737359
21
-1.982928
0
LINE
8
layer0
10
-17.7737359
20
-1.982928
11
-17.8089601
21
-1.943675
0
LINE
8
layer0
10
-17.8089601
20
-1.943675
11
-17.853584
21
-1.9069536
0
LINE
8
layer0
10
-17.853584
20
-1.9069536
11
-17.9075102
21
-1.873123
0
LINE
8
layer0
10
-17.9075102
20
-1.873123
11
-17.9706563
21
-1.8425752
0
LINE
8
layer0
10
-17.9706563
20
-1.8425752
11
-18.0428757
21
-1.8156614
0
LINE
8
layer0
10
-18.0428757
20
-1.8156614
11
-18.1240678
21
-1.7927607
0
LINE
8
layer0
10
-18.1240678
20
-1.7927607
11
-18.2140728
21
-1.7742426
0
LINE
8
layer0
10
-18.2140728
20
-1.7742426
11
-18.4199177
21
-1.7517368
0
LINE
8
layer0
10
-18.4199177
20
-1.7517368
11
-18.6590951
21
-1.7509527
0
LINE
8
layer0
10
-18.6590951
20
-1.7509527
11
-18.7559497
21
-1.7557329
0
LINE
8
layer0
10
-18.7559497
20
-1.7557329
11
-18.9295608
21
-1.7518742
0
LINE
8
layer0
10
-18.9295608
20
-1.7518742
11
-19.231979
21
-1.720456
0
LINE
8
layer0
10
-19.231979
20
-1.720456
11
-19.429895
21
-1.6877948
0
LINE
8
layer0
10
-19.429895
20
-1.6877948
11
-19.6601509
21
-1.6398444
0
LINE
8
layer0
10
-19.6601509
20
-1.6398444
11
-19.9213423
21
-1.5739019
0
LINE
8
layer0
10
-19.9213423
20
-1.5739019
11
-20.2105074
21
-1.4878275
0
LINE
8
layer0
10
-20.2105074
20
-1.4878275
11
-20.5253363
21
-1.379585
0
LINE
8
layer0
10
-20.5253363
20
-1.379585
11
-20.8675765
21
-1.2456846
0
LINE
8
layer0
10
-20.8675765
20
-1.2456846
11
-21.2320187
21
-1.0852001
0
LINE
8
layer0
10
-21.2320187
20
-1.0852001
11
-21.6215367
21
-0.8938584
0
LINE
8
layer0
10
-21.6215367
20
-0.8938584
11
-21.989004
21
-0.6945155
0
ARC
8
layer0
10
0.0000307
20
0
40
22
50
178.1909355
51
181.8090645
0
LINE
8
layer0
10
-21.989004
20
0.6945155
11
-21.6215367
21
0.8938584
0
LINE
8
layer0
10
-21.6215367
20
0.8938584
11
-21.2320187
21
1.0852001
0
LINE
8
layer0
10
-21.2320187
20
1.0852001
11
-20.8675765
21
1.2456846
0
LINE
8
layer0
10
-20.8675765
20
1.2456846
11
-20.5253363
21
1.379585
0
LINE
8
layer0
10
-20.5253363
20
1.379585
11
-20.2105074
21
1.4878275
0
LINE
8
layer0
10
-20.2105074
20
1.4878275
11
-19.9213423
21
1.5739019
0
LINE
8
layer0
10
-19.9213423
20
1.5739019
11
-19.6601509
21
1.6398444
0
LINE
8
layer0
10
-19.6601509
20
1.6398444
11
-19.429895
21
1.6877948
0
LINE
8
layer0
10
-19.429895
20
1.6877948
11
-19.231979
21
1.720456
0
LINE
8
layer0
10
-19.231979
20
1.720456
11
-18.9295608
21
1.7518742
0
LINE
8
layer0
10
-18.9295608
20
1.7518742
11
-18.7559497
21
1.7557329
0
LINE
8
layer0
10
-18.7559497
20
1.7557329
11
-18.6590951
21
1.7509527
0
LINE
8
layer0
10
-18.6590951
20
1.7509527
11
-18.4199177
21
1.7517368
0
LINE
8
layer0
10
-18.4199177
20
1.7517368
11
-18.2140728
21
1.7742426
0
LINE
8
layer0
10
-18.2140728
20
1.7742426
11
-18.1240678
21
1.7927607
0
LINE
8
layer0
10
-18.1240678
20
1.7927607
11
-18.0428757
21
1.8156614
0
LINE
8
layer0
10
-18.0428757
20
1.8156614
11
-17.9706563
21
1.8425752
0
LINE
8
layer0
10
-17.9706563
20
1.8425752
11
-17.9075102
21
1.873123
0
LINE
8
layer0
10
-17.9075102
20
1.873123
11
-17.853584
21
1.9069536
0
LINE
8
layer0
10
-17.853584
20
1.9069536
11
-17.8089601
21
1.943675
0
LINE
8
layer0
10
-17.8089601
20
1.943675
11
-17.7737359
21
1.982928
0
LINE
8
layer0
10
-17.7737359
20
1.982928
11
-17.7480119
21
2.0243337
0
LINE
8
layer0
10
-17.7480119
20
2.0243337
11
-17.7318409
21
2.0674953
0
LINE
8
layer0
10
-17.7318409
20
2.0674953
11
-17.715108
21
2.1907856
0
LINE
8
layer0
10
-17.715108
20
2.1907856
11
-17.6302369
21
2.7923552
0
LINE
8
layer0
10
-17.6302369
20
2.7923552
11
-17.5250589
21
3.3907085
0
LINE
8
layer0
10
-17.5250589
20
3.3907085
11
-17.502874
21
3.5131353
0
LINE
8
layer0
10
-17.502874
20
3.5131353
11
-17.5049159
21
3.5591816
0
LINE
8
layer0
10
-17.5049159
20
3.5591816
11
-17.5165858
21
3.6065098
0
LINE
8
layer0
10
-17.5165858
20
3.6065098
11
-17.5379562
21
3.6547265
0
LINE
8
layer0
10
-17.5379562
20
3.6547265
11
-17.5690485
21
3.7034402
0
LINE
8
layer0
10
-17.5690485
20
3.7034402
11
-17.6098811
21
3.7522791
0
LINE
8
layer0
10
-17.6098811
20
3.7522791
11
-17.6604969
21
3.8008451
0
LINE
8
layer0
10
-17.6604969
20
3.8008451
11
-17.7208648
21
3.8487586
0
LINE
8
layer0
10
-17.7208648
20
3.8487586
11
-17.7910063
21
3.8956282
0
LINE
8
layer0
10
-17.7910063
20
3.8956282
11
-17.8708837
21
3.941053
0
LINE
8
layer0
10
-17.8708837
20
3.941053
11
-18.0596992
21
4.026067
0
LINE
8
layer0
10
-18.0596992
20
4.026067
11
-18.2869281
21
4.1007225
0
LINE
8
layer0
10
-18.2869281
20
4.1007225
11
-18.3805195
21
4.1261059
0
LINE
8
layer0
10
-18.3805195
20
4.1261059
11
-18.5444411
21
4.1834246
0
LINE
8
layer0
10
-18.5444411
20
4.1834246
11
-18.8223491
21
4.3067574
0
LINE
8
layer0
10
-18.8223491
20
4.3067574
11
-19.0004855
21
4.3989795
0
LINE
8
layer0
10
-19.0004855
20
4.3989795
11
-19.2046544
21
4.515736
0
LINE
8
layer0
10
-19.2046544
20
4.515736
11
-19.4326848
21
4.6591637
0
LINE
8
layer0
10
-19.4326848
20
4.6591637
11
-19.6810987
21
4.8303822
0
LINE
8
layer0
10
-19.6810987
20
4.8303822
11
-19.9470701
21
5.0306144
0
LINE
8
layer0
10
-19.9470701
20
5.0306144
11
-20.2311823
21
5.2637193
0
LINE
8
layer0
10
-20.2311823
20
5.2637193
11
-20.528195
21
5.528968
0
LINE
8
layer0
10
-20.528195
20
5.528968
11
-20.8395208
21
5.8313124
0
LINE
8
layer0
10
-20.8395208
20
5.8313124
11
-21.1274026
21
6.1344524
0
ARC
8
layer0
10
0.0000292
20
-0.0000097
40
22
50
160.190935
51
163.8090641
0
LINE
8
layer0
10
-20.6981685
20
7.4554994
11
-20.287086
21
7.5315322
0
LINE
8
layer0
10
-20.287086
20
7.5315322
11
-19.8575045
21
7.5931412
0
LINE
8
layer0
10
-19.8575045
20
7.5931412
11
-19.4613069
21
7.6331522
0
LINE
8
layer0
10
-19.4613069
20
7.6331522
11
-19.0944396
21
7.654741
0
LINE
8
layer0
10
-19.0944396
20
7.654741
11
-18.7615707
21
7.6603983
0
LINE
8
layer0
10
-18.7615707
20
7.6603983
11
-18.45996
21
7.6529029
0
LINE
8
layer0
10
-18.45996
20
7.6529029
11
-18.1911748
21
7.6349054
0
LINE
8
layer0
10
-18.1911748
20
7.6349054
11
-17.957371
21
7.609356
0
LINE
8
layer0
10
-17.957371
20
7.609356
11
-17.7590488
21
7.5792592
0
LINE
8
layer0
10
-17.7590488
20
7.5792592
11
-17.4617233
21
7.5156874
0
LINE
8
layer0
10
-17.4617233
20
7.5156874
11
-17.2954169
21
7.4657085
0
LINE
8
layer0
10
-17.2954169
20
7.4657085
11
-17.2047798
21
7.4312324
0
LINE
8
layer0
10
-17.2047798
20
7.4312324
11
-16.9770664
21
7.3580683
0
LINE
8
layer0
10
-16.9770664
20
7.3580683
11
-16.7743415
21
7.315863
0
LINE
8
layer0
10
-16.7743415
20
7.315863
11
-16.6830192
21
7.3056617
0
LINE
8
layer0
10
-16.6830192
20
7.3056617
11
-16.5987243
21
7.3023518
0
LINE
8
layer0
10
-16.5987243
20
7.3023518
11
-16.5217228
21
7.3056313
0
LINE
8
layer0
10
-16.5217228
20
7.3056313
11
-16.4522274
21
7.3151708
0
LINE
8
layer0
10
-16.4522274
20
7.3151708
11
-16.3904863
21
7.3306815
0
LINE
8
layer0
10
-16.3904863
20
7.3306815
11
-16.3366989
21
7.3518161
0
LINE
8
layer0
10
-16.3366989
20
7.3518161
11
-16.2910689
21
7.378263
0
LINE
8
layer0
10
-16.2910689
20
7.378263
11
-16.2538089
21
7.409693
0
LINE
8
layer0
10
-16.2538089
20
7.409693
11
-16.2250916
21
7.4457451
0
LINE
8
layer0
10
-16.2250916
20
7.4457451
11
-16.1710789
21
7.5578304
0
LINE
8
layer0
10
-16.1710789
20
7.5578304
11
-15.9044665
21
8.1037304
0
LINE
8
layer0
10
-15.9044665
20
8.1037304
11
-15.6195349
21
8.6402964
0
LINE
8
layer0
10
-15.6195349
20
8.6402964
11
-15.5606039
21
8.7498757
0
LINE
8
layer0
10
-15.5606039
20
8.7498757
11
-15.5483167
21
8.7942993
0
LINE
8
layer0
10
-15.5483167
20
8.7942993
11
-15.5447902
21
8.8429174
0
LINE
8
layer0
10
-15.5447902
20
8.8429174
11
-15.5502149
21
8.895378
0
LINE
8
layer0
10
-15.5502149
20
8.895378
11
-15.5647321
21
8.9513155
0
LINE
8
layer0
10
-15.5647321
20
8.9513155
11
-15.5884741
21
9.010382
0
LINE
8
layer0
10
-15.5884741
20
9.010382
11
-15.6216049
21
9.0722121
0
LINE
8
layer0
10
-15.6216049
20
9.0722121
11
-15.6642121
21
9.1364353
0
LINE
8
layer0
10
-15.6642121
20
9.1364353
11
-15.7164372
21
9.2026859
0
LINE
8
layer0
10
-15.7164372
20
9.2026859
11
-15.778368
21
9.2705709
0
LINE
8
layer0
10
-15.778368
20
9.2705709
11
-15.9316715
21
9.4097712
0
LINE
8
layer0
10
-15.9316715
20
9.4097712
11
-16.1247092
21
9.5509904
0
LINE
8
layer0
10
-16.1247092
20
9.5509904
11
-16.205876
21
9.6040528
0
LINE
8
layer0
10
-16.205876
20
9.6040528
11
-16.3440622
21
9.7092207
0
LINE
8
layer0
10
-16.3440622
20
9.7092207
11
-16.5702565
21
9.9123955
0
LINE
8
layer0
10
-16.5702565
20
9.9123955
11
-16.7111761
21
10.0551511
0
LINE
8
layer0
10
-16.7111761
20
10.0551511
11
-16.8692725
21
10.2292848
0
LINE
8
layer0
10
-16.8692725
20
10.2292848
11
-17.0418208
21
10.4361578
0
LINE
8
layer0
10
-17.0418208
20
10.4361578
11
-17.225167
21
10.6757604
0
LINE
8
layer0
10
-17.225167
20
10.6757604
11
-17.4162456
21
10.9483823
0
LINE
8
layer0
10
-17.4162456
20
10.9483823
11
-17.6144191
21
11.2578737
0
LINE
8
layer0
10
-17.6144191
20
11.2578737
11
-17.8149286
21
11.6019221
0
LINE
8
layer0
10
-17.8149286
20
11.6019221
11
-18.0175875
21
11.9856738
0
LINE
8
layer0
10
-18.0175875
20
11.9856738
11
-18.1977039
21
12.3629374
0
ARC
8
layer0
10
0.0000245
20
-0.0000186
40
22
50
142.1909337
51
145.8090629
0
LINE
8
layer0
10
-17.381252
20
13.4866871
11
-16.9667939
21
13.4319671
0
LINE
8
layer0
10
-16.9667939
20
13.4319671
11
-16.5391993
21
13.3578128
0
LINE
8
layer0
10
-16.5391993
20
13.3578128
11
-16.150029
21
13.2734337
0
LINE
8
layer0
10
-16.150029
20
13.2734337
11
-15.7944462
21
13.1805977
0
LINE
8
layer0
10
-15.7944462
20
13.1805977
11
-15.4761209
21
13.0831159
0
LINE
8
layer0
10
-15.4761209
20
13.0831159
11
-15.1915882
21
12.9827846
0
LINE
8
layer0
10
-15.1915882
20
12.9827846
11
-14.9415198
21
12.8826087
0
LINE
8
layer0
10
-14.9415198
20
12.8826087
11
-14.7270544
21
12.7860604
0
LINE
8
layer0
10
-14.7270544
20
12.7860604
11
-14.5477391
21
12.6961518
0
LINE
8
layer0
10
-14.5477391
20
12.6961518
11
-14.2846106
21
12.5438127
0
LINE
8
layer0
10
-14.2846106
20
12.5438127
11
-14.1418881
21
12.4448884
0
LINE
8
layer0
10
-14.1418881
20
12.4448884
11
-14.0663408
21
12.3840914
0
LINE
8
layer0
10
-14.0663408
20
12.3840914
11
-13.8723815
21
12.2441408
0
LINE
8
layer0
10
-13.8723815
20
12.2441408
11
-13.6926208
21
12.1413558
0
LINE
8
layer0
10
-13.6926208
20
12.1413558
11
-13.6089205
21
12.1034336
0
LINE
8
layer0
10
-13.6089205
20
12.1034336
11
-13.5297741
21
12.0742372
0
LINE
8
layer0
10
-13.5297741
20
12.0742372
11
-13.4555279
21
12.0535614
0
LINE
8
layer0
10
-13.4555279
20
12.0535614
11
-13.386486
21
12.0411587
0
LINE
8
layer0
10
-13.386486
20
12.0411587
11
-13.3229736
21
12.0368312
0
LINE
8
layer0
10
-13.3229736
20
12.0368312
11
-13.2652879
21
12.0403102
0
LINE
8
layer0
10
-13.2652879
20
12.0403102
11
-13.2137186
21
12.0513623
0
LINE
8
layer0
10
-13.2137186
20
12.0513623
11
-13.1685698
21
12.06974
0
LINE
8
layer0
10
-13.1685698
20
12.06974
11
-13.1301173
21
12.0951534
0
LINE
8
layer0
10
-13.1301173
20
12.0951534
11
-13.0441119
21
12.185062
0
LINE
8
layer0
10
-13.0441119
20
12.185062
11
-12.621856
21
12.621856
0
LINE
8
layer0
10
-12.621856
20
12.621856
11
-12.185062
21
13.0441119
0
LINE
8
layer0
10
-12.185062
20
13.0441119
11
-12.0951534
21
13.1301173
0
LINE
8
layer0
10
-12.0951534
20
13.1301173
11
-12.06974
21
13.1685698
0
LINE
8
layer0
10
-12.06974
20
13.1685698
11
-12.0513623
21
13.2137186
0
LINE
8
layer0
10
-12.0513623
20
13.2137186
11
-12.0403102
21
13.2652879
0
LINE
8
layer0
10
-12.0403102
20
13.2652879
11
-12.0368312
21
13.3229736
0
LINE
8
layer0
10
-12.0368312
20
13.3229736
11
-12.0411587
21
13.386486
0
LINE
8
layer0
10
-12.0411587
20
13.386486
11
-12.0535614
21
13.4555279
0
LINE
8
layer0
10
-12.0535614
20
13.4555279
11
-12.0742372
21
13.5297741
0
LINE
8
layer0
10
-12.0742372
20
13.5297741
11
-12.1034336
21
13.6089205
0
LINE
8
layer0
10
-12.1034336
20
13.6089205
11
-12.1413558
21
13.6926208
0
LINE
8
layer0
10
-12.1413558
20
13.6926208
11
-12.2441408
21
13.8723815
0
LINE
8
layer0
10
-12.2441408
20
13.8723815
11
-12.3840914
21
14.0663408
0
LINE
8
layer0
10
-12.3840914
20
14.0663408
11
-12.4448884
21
14.1418881
0
LINE
8
layer0
10
-12.4448884
20
14.1418881
11
-12.5438127
21
14.2846106
0
LINE
8
layer0
10
-12.5438127
20
14.2846106
11
-12.6961518
21
14.5477391
0
LINE
8
layer0
10
-12.6961518
20
14.5477391
11
-12.7860604
21
14.7270544
0
LINE
8
layer0
10
-12.7860604
20
14.7270544
11
-12.8826087
21
14.9415198
0
LINE
8
layer0
10
-12.8826087
20
14.9415198
11
-12.9827846
21
15.1915882
0
LINE
8
layer0
10
-12.9827846
20
15.1915882
11
-13.0831159
21
15.4761209
0
LINE
8
layer0
10
-13.0831159
20
15.4761209
11
-13.1805977
21
15.7944462
0
LINE
8
layer0
10
-13.1805977
20
15.7944462
11
-13.2734337
21
16.150029
0
LINE
8
layer0
10
-13.2734337
20
16.150029
11
-13.3578128
21
16.5391993
0
LINE
8
layer0
10
-13.3578128
20
16.5391993
11
-13.4319671
21
16.9667939
0
LINE
8
layer0
10
-13.4319671
20
16.9667939
11
-13.4866871
21
17.381252
0
ARC
8
layer0
10
0.0000186
20
-0.0000244
40
22
50
124.1909371
51
127.8090663
0
LINE
8
layer0
10
-12.3629374
20
18.1977039
11
-11.9856738
21
18.0175875
0
LINE
8
layer0
10
-11.9856738
20
18.0175875
11
-11.6019221
21
17.8149286
0
LINE
8
layer0
10
-11.6019221
20
17.8149286
11
-11.2578737
21
17.6144191
0
LINE
8
layer0
10
-11.2578737
20
17.6144191
11
-10.9483823
21
17.4162456
0
LINE
8
layer0
10
-10.9483823
20
17.4162456
11
-10.6757604
21
17.225167
0
LINE
8
layer0
10
-10.6757604
20
17.225167
11
-10.4361578
21
17.0418208
0
LINE
8
layer0
10
-10.4361578
20
17.0418208
11
-10.2292848
21
16.8692725
0
LINE
8
layer0
10
-10.2292848
20
16.8692725
11
-10.0551511
21
16.7111761
0
LINE
8
layer0
10
-10.0551511
20
16.7111761
11
-9.9123955
21
16.5702565
0
LINE
8
layer0
10
-9.9123955
20
16.5702565
11
-9.7092207
21
16.3440622
0
LINE
8
layer0
10
-9.7092207
20
16.3440622
11
-9.6040528
21
16.205876
0
LINE
8
layer0
10
-9.6040528
20
16.205876
11
-9.5509904
21
16.1247092
0
LINE
8
layer0
10
-9.5509904
20
16.1247092
11
-9.4097712
21
15.9316715
0
LINE
8
layer0
10
-9.4097712
20
15.9316715
11
-9.2705709
21
15.778368
0
LINE
8
layer0
10
-9.2705709
20
15.778368
11
-9.2026859
21
15.7164372
0
LINE
8
layer0
10
-9.2026859
20
15.7164372
11
-9.1364353
21
15.6642121
0
LINE
8
layer0
10
-9.1364353
20
15.6642121
11
-9.0722121
21
15.6216049
0
LINE
8
layer0
10
-9.0722121
20
15.6216049
11
-9.010382
21
15.5884741
0
LINE
8
layer0
10
-9.010382
20
15.5884741
11
-8.9513155
21
15.5647321
0
LINE
8
layer0
10
-8.9513155
20
15.5647321
11
-8.895378
21
15.5502149
0
LINE
8
layer0
10
-8.895378
20
15.5502149
11
-8.8429174
21
15.5447902
0
LINE
8
layer0
10
-8.8429174
20
15.5447902
11
-8.7942993
21
15.5483167
0
LINE
8
layer0
10
-8.7942993
20
15.5483167
11
-8.7498757
21
15.5606039
0
LINE
8
layer0
10
-8.7498757
20
15.5606039
11
-8.6402964
21
15.6195349
0
LINE
8
layer0
10
-8.6402964
20
15.6195349
11
-8.1037304
21
15.9044665
0
LINE
8
layer0
10
-8.1037304
20
15.9044665
11
-7.5578304
21
16.1710789
0
LINE
8
layer0
10
-7.5578304
20
16.1710789
11
-7.4457451
21
16.2250916
0
LINE
8
layer0
10
-7.4457451
20
16.2250916
11
-7.409693
21
16.2538089
0
LINE
8
layer0
10
-7.409693
20
16.2538089
11
-7.378263
21
16.2910689
0
LINE
8
layer0
10
-7.378263
20
16.2910689
11
-7.3518161
21
16.3366989
0
LINE
8
layer0
10
-7.3518161
20
16.3366989
11
-7.3306815
21
16.3904863
0
LINE
8
layer0
10
-7.3306815
20
16.3904863
11
-7.3151708
21
16.4522274
0
LINE
8
layer0
10
-7.3151708
20
16.4522274
11
-7.3056313
21
16.5217228
0
LINE
8
layer0
10
-7.3056313
20
16.5217228
11
-7.3023518
21
16.5987243
0
LINE
8
layer0
10
-7.3023518
20
16.5987243
11
-7.3056617
21
16.6830192
0
LINE
8
layer0
10
-7.3056617
20
16.6830192
11
-7.315863
21
16.7743415
0
LINE
8
layer0
10
-7.315863
20
16.7743415
11
-7.3580683
21
16.9770664
0
LINE
8
layer0
10
-7.3580683
20
16.9770664
11
-7.4312324
21
17.2047798
0
LINE
8
layer0
10
-7.4312324
20
17.2047798
11
-7.4657085
21
17.2954169
0
LINE
8
layer0
10
-7.4657085
20
17.2954169
11
-7.5156874
21
17.4617233
0
LINE
8
layer0
10
-7.5156874
20
17.4617233
11
-7.5792592
21
17.7590488
0
LINE
8
layer0
10
-7.5792592
20
17.7590488
11
-7.609356
21
17.957371
0
LINE
8
layer0
10
-7.609356
20
17.957371
11
-7.6349054
21
18.1911748
0
LINE
8
layer0
10
-7.6349054
20
18.1911748
11
-7.6529029
21
18.45996
0
LINE
8
layer0
10
-7.6529029
20
18.45996
11
-7.6603983
21
18.7615707
0
LINE
8
layer0
10
-7.6603983
20
18.7615707
11
-7.654741
21
19.0944396
0
LINE
8
layer0
10
-7.654741
20
19.0944396
11
-7.6331522
21
19.4613069
0
LINE
8
layer0
10
-7.6331522
20
19.4613069
11
-7.5931412
21
19.8575045
0
LINE
8
layer0
10
-7.5931412
20
19.8575045
11
-7.5315322
21
20.287086
0
LINE
8
layer0
10
-7.5315322
20
20.287086
11
-7.4554994
21
20.6981685
0
ARC
8
layer0
10
0.0000097
20
-0.0000291
40
22
50
106.1909359
51
109.809065
0
LINE
8
layer0
10
-6.1344524
20
21.1274026
11
-5.8313124
21
20.8395208
0
LINE
8
layer0
10
-5.8313124
20
20.8395208
11
-5.528968
21
20.528195
0
LINE
8
layer0
10
-5.528968
20
20.528195
11
-5.2637193
21
20.2311823
0
LINE
8
layer0
10
-5.2637193
20
20.2311823
11
-5.0306144
21
19.9470701
0
LINE
8
layer0
10
-5.0306144
20
19.9470701
11
-4.8303822
21
19.6810987
0
LINE
8
layer0
10
-4.8303822
20
19.6810987
11
-4.6591637
21
19.4326848
0
LINE
8
layer0
10
-4.6591637
20
19.4326848
11
-4.515736
21
19.2046544
0
LINE
8
layer0
10
-4.515736
20
19.2046544
11
-4.3989795
21
19.0004855
0
LINE
8
layer0
10
-4.3989795
20
19.0004855
11
-4.3067574
21
18.8223491
0
LINE
8
layer0
10
-4.3067574
20
18.8223491
11
-4.1834246
21
18.5444411
0
LINE
8
layer0
10
-4.1834246
20
18.5444411
11
-4.1261059
21
18.3805195
0
LINE
8
layer0
10
-4.1261059
20
18.3805195
11
-4.1007225
21
18.2869281
0
LINE
8
layer0
10
-4.1007225
20
18.2869281
11
-4.026067
21
18.0596992
0
LINE
8
layer0
10
-4.026067
20
18.0596992
11
-3.941053
21
17.8708837
0
LINE
8
layer0
10
-3.941053
20
17.8708837
11
-3.8956282
21
17.7910063
0
LINE
8
layer0
10
-3.8956282
20
17.7910063
11
-3.8487586
21
17.7208648
0
LINE
8
layer0
10
-3.8487586
20
17.7208648
11
-3.8008451
21
17.6604969
0
LINE
8
layer0
10
-3.8008451
20
17.6604969
11
-3.7522791
21
17.6098811
0
LINE
8
layer0
10
-3.7522791
20
17.6098811
11
-3.7034402
21
17.5690485
0
LINE
8
layer0
10
-3.7034402
20
17.5690485
11
-3.6547265
21
17.5379562
0
LINE
8
layer0
10
-3.6547265
20
17.5379562
11
-3.6065098
21
17.5165858
0
LINE
8
layer0
10
-3.6065098
20
17.5165858
11
-3.5591816
21
17.5049159
0
LINE
8
layer0
10
-3.5591816
20
17.5049159
11
-3.5131353
21
17.502874
0
LINE
8
layer0
10
-3.5131353
20
17.502874
11
-3.3907085
21
17.5250589
0
LINE
8
layer0
10
-3.3907085
20
17.5250589
11
-2.7923552
21
17.6302369
0
LINE
8
layer0
10
-2.7923552
20
17.6302369
11
-2.1907856
21
17.715108
0
LINE
8
layer0
10
-2.1907856
20
17.715108
11
-2.0674953
21
17.7318409
0
LINE
8
layer0
10
-2.0674953
20
17.7318409
11
-2.0243337
21
17.7480119
0
LINE
8
layer0
10
-2.0243337
20
17.7480119
11
-1.982928
21
17.7737359
0
LINE
8
layer0
10
-1.982928
20
17.7737359
11
-1.943675
21
17.8089601
0
LINE
8
layer0
10
-1.943675
20
17.8089601
11
-1.9069536
21
17.853584
0
LINE
8
layer0
10
-1.9069536
20
17.853584
11
-1.873123
21
17.9075102
0
LINE
8
layer0
10
-1.873123
20
17.9075102
11
-1.8425752
21
17.9706563
0
LINE
8
layer0
10
-1.8425752
20
17.9706563
11
-1.8156614
21
18.0428757
0
LINE
8
layer0
10
-1.8156614
20
18.0428757
11
-1.7927607
21
18.1240678
0
LINE
8
layer0
10
-1.7927607
20
18.1240678
11
-1.7742426
21
18.2140728
0
LINE
8
layer0
10
-1.7742426
20
18.2140728
11
-1.7517368
21
18.4199177
0
LINE
8
layer0
10
-1.7517368
20
18.4199177
11
-1.7509527
21
18.6590951
0
LINE
8
layer0
10
-1.7509527
20
18.6590951
11
-1.7557329
21
18.7559497
0
LINE
8
layer0
10
-1.7557329
20
18.7559497
11
-1.7518742
21
18.9295608
0
LINE
8
layer0
10
-1.7518742
20
18.9295608
11
-1.720456
21
19.231979
0
LINE
8
layer0
10
-1.720456
20
19.231979
11
-1.6877948
21
19.429895
0
LINE
8
layer0
10
-1.6877948
20
19.429895
11
-1.6398444
21
19.6601509
0
LINE
8
layer0
10
-1.6398444
20
19.6601509
11
-1.5739019
21
19.9213423
0
LINE
8
layer0
10
-1.5739019
20
19.9213423
11
-1.4878275
21
20.2105074
0
LINE
8
layer0
10
-1.4878275
20
20.2105074
11
-1.379585
21
20.5253363
0
LINE
8
layer0
10
-1.379585
20
20.5253363
11
-1.2456846
21
20.8675765
0
LINE
8
layer0
10
-1.2456846
20
20.8675765
11
-1.0852001
21
21.2320187
0
LINE
8
layer0
10
-1.0852001
20
21.2320187
11
-0.8938584
21
21.6215367
0
LINE
8
layer0
10
-0.8938584
20
21.6215367
11
-0.6945155
21
21.989004
0
ARC
8
layer0
10
0
20
-0.0000307
40
22
50
88.1909355
51
91.8090645
0
LINE
8
layer0
10
0.6945155
20
21.989004
11
0.8938584
21
21.6215367
0
LINE
8
layer0
10
0.8938584
20
21.6215367
11
1.0852001
21
21.2320187
0
LINE
8
layer0
10
1.0852001
20
21.2320187
11
1.2456846
21
20.8675765
0
LINE
8
layer0
10
1.2456846
20
20.8675765
11
1.379585
21
20.5253363
0
LINE
8
layer0
10
1.379585
20
20.5253363
11
1.4878275
21
20.2105074
0
LINE
8
layer0
10
1.4878275
20
20.2105074
11
1.5739019
21
19.9213423
0
LINE
8
layer0
10
1.5739019
20
19.9213423
11
1.6398444
21
19.6601509
0
LINE
8
layer0
10
1.6398444
20
19.6601509
11
1.6877948
21
19.429895
0
LINE
8
layer0
10
1.6877948
20
19.429895
11
1.720456
21
19.231979
0
LINE
8
layer0
10
1.720456
20
19.231979
11
1.7518742
21
18.9295608
0
LINE
8
layer0
10
1.7518742
20
18.9295608
11
1.7557329
21
18.7559497
0
LINE
8
layer0
10
1.7557329
20
18.7559497
11
1.7509527
21
18.6590951
0
LINE
8
layer0
10
1.7509527
20
18.6590951
11
1.7517368
21
18.4199177
0
LINE
8
layer0
10
1.7517368
20
18.4199177
11
1.7742426
21
18.2140728
0
LINE
8
layer0
10
1.7742426
20
18.2140728
11
1.7927607
21
18.1240678
0
LINE
8
layer0
10
1.7927607
20
18.1240678
11
1.8156614
21
18.0428757
0
LINE
8
layer0
10
1.8156614
20
18.0428757
11
1.8425752
21
17.9706563
0
LINE
8
layer0
10
1.8425752
20
17.9706563
11
1.873123
21
17.9075102
0
LINE
8
layer0
10
1.873123
20
17.9075102
11
1.9069536
21
17.853584
0
LINE
8
layer0
10
1.9069536
20
17.853584
11
1.943675
21
17.8089601
0
LINE
8
layer0
10
1.943675
20
17.8089601
11
1.982928
21
17.7737359
0
LINE
8
layer0
10
1.982928
20
17.7737359
11
2.0243337
21
17.7480119
0
LINE
8
layer0
10
2.0243337
20
17.7480119
11
2.0674953
21
17.7318409
0
LINE
8
layer0
10
2.0674953
20
17.7318409
11
2.1907856
21
17.715108
0
LINE
8
layer0
10
2.1907856
20
17.715108
11
2.7923552
21
17.6302369
0
LINE
8
layer0
10
2.7923552
20
17.6302369
11
3.3907085
21
17.5250589
0
LINE
8
layer0
10
3.3907085
20
17.5250589
11
3.5131353
21
17.502874
0
LINE
8
layer0
10
3.5131353
20
17.502874
11
3.5591816
21
17.5049159
0
LINE
8
layer0
10
3.5591816
20
17.5049159
11
3.6065098
21
17.5165858
0
LINE
8
layer0
10
3.6065098
20
17.5165858
11
3.6547265
21
17.5379562
0
LINE
8
layer0
10
3.6547265
20
17.5379562
11
3.7034402
21
17.5690485
0
LINE
8
layer0
10
3.7034402
20
17.5690485
11
3.7522791
21
17.6098811
0
LINE
8
layer0
10
3.7522791
20
17.6098811
11
3.8008451
21
17.6604969
0
LINE
8
layer0
10
3.8008451
20
17.6604969
11
3.8487586
21
17.7208648
0
LINE
8
layer0
10
3.8487586
20
17.7208648
11
3.8956282
21
17.7910063
0
LINE
8
layer0
10
3.8956282
20
17.7910063
11
3.941053
21
17.8708837
0
LINE
8
layer0
10
3.941053
20
17.8708837
11
4.026067
21
18.0596992
0
LINE
8
layer0
10
4.026067
20
18.0596992
11
4.1007225
21
18.2869281
0
LINE
8
layer0
10
4.1007225
20
18.2869281
11
4.1261059
21
18.3805195
0
LINE
8
layer0
10
4.1261059
20
18.3805195
11
4.1834246
21
18.5444411
0
LINE
8
layer0
10
4.1834246
20
18.5444411
11
4.3067574
21
18.8223491
0
LINE
8
layer0
10
4.3067574
20
18.8223491
11
4.3989795
21
19.0004855
0
LINE
8
layer0
10
4.3989795
20
19.0004855
11
4.515736
21
19.2046544
0
LINE
8
layer0
10
4.515736
20
19.2046544
11
4.6591637
21
19.4326848
0
LINE
8
layer0
10
4.6591637
20
19.4326848
11
4.8303822
21
19.6810987
0
LINE
8
layer0
10
4.8303822
20
19.6810987
11
5.0306144
21
19.9470701
0
LINE
8
layer0
10
5.0306144
20
19.9470701
11
5.2637193
21
20.2311823
0
LINE
8
layer0
10
5.2637193
20
20.2311823
11
5.528968
21
20.528195
0
LINE
8
layer0
10
5.528968
20
20.528195
11
5.8313124
21
20.8395208
0
LINE
8
layer0
10
5.8313124
20
20.8395208
11
6.1344524
21
21.1274026
0
ARC
8
layer0
10
-0.0000097
20
-0.0000292
40
22
50
70.190935
51
73.8090641
0
LINE
8
layer0
10
7.4554994
20
20.6981685
11
7.5315322
21
20.287086
0
LINE
8
layer0
10
7.5315322
20
20.287086
11
7.5931412
21
19.8575045
0
LINE
8
layer0
10
7.5931412
20
19.8575045
11
7.6331522
21
19.4613069
0
LINE
8
layer0
10
7.6331522
20
19.4613069
11
7.654741
21
19.0944396
0
LINE
8
layer0
10
7.654741
20
19.0944396
11
7.6603983
21
18.7615707
0
LINE
8
layer0
10
7.6603983
20
18.7615707
11
7.6529029
21
18.45996
0
LINE
8
layer0
10
7.6529029
20
18.45996
11
7.6349054
21
18.1911748
0
LINE
8
layer0
10
7.6349054
20
18.1911748
11
7.609356
21
17.957371
0
LINE
8
layer0
10
7.609356
20
17.957371
11
7.5792592
21
17.7590488
0
LINE
8
layer0
10
7.5792592
20
17.7590488
11
7.5156874
21
17.4617233
0
LINE
8
layer0
10
7.5156874
20
17.4617233
11
7.4657085
21
17.2954169
0
LINE
8
layer0
10
7.4657085
20
17.2954169
11
7.4312324
21
17.2047798
0
LINE
8
layer0
10
7.4312324
20
17.2047798
11
7.3580683
21
16.9770664
0
LINE
8
layer0
10
7.3580683
20
16.9770664
11
7.315863
21
16.7743415
0
LINE
8
layer0
10
7.315863
20
16.7743415
11
7.3056617
21
16.6830192
0
LINE
8
layer0
10
7.3056617
20
16.6830192
11
7.3023518
21
16.5987243
0
LINE
8
layer0
10
7.3023518
20
16.5987243
11
7.3056313
21
16.5217228
0
LINE
8
layer0
10
7.3056313
20
16.5217228
11
7.3151708
21
16.4522274
0
LINE
8
layer0
10
7.3151708
20
16.4522274
11
7.3306815
21
16.3904863
0
LINE
8
layer0
10
7.3306815
20
16.3904863
11
7.3518161
21
16.3366989
0
LINE
8
layer0
10
7.3518161
20
16.3366989
11
7.378263
21
16.2910689
0
LINE
8
layer0
10
7.378263
20
16.2910689
11
7.409693
21
16.2538089
0
LINE
8
layer0
10
7.409693
20
16.2538089
11
7.4457451
21
16.2250916
0
LINE
8
layer0
10
7.4457451
20
16.2250916
11
7.5578304
21
16.1710789
0
LINE
8
layer0
10
7.5578304
20
16.1710789
11
8.1037304
21
15.9044665
0
LINE
8
layer0
10
8.1037304
20
15.9044665
11
8.6402964
21
15.6195349
0
LINE
8
layer0
10
8.6402964
20
15.6195349
11
8.7498757
21
15.5606039
0
LINE
8
layer0
10
8.7498757
20
15.5606039
11
8.7942993
21
15.5483167
0
LINE
8
layer0
10
8.7942993
20
15.5483167
11
8.8429174
21
15.5447902
0
LINE
8
layer0
10
8.8429174
20
15.5447902
11
8.895378
21
15.5502149
0
LINE
8
layer0
10
8.895378
20
15.5502149
11
8.9513155
21
15.5647321
0
LINE
8
layer0
10
8.9513155
20
15.5647321
11
9.010382
21
15.5884741
0
LINE
8
layer0
10
9.010382
20
15.5884741
11
9.0722121
21
15.6216049
0
LINE
8
layer0
10
9.0722121
20
15.6216049
11
9.1364353
21
15.6642121
0
LINE
8
layer0
10
9.1364353
20
15.6642121
11
9.2026859
21
15.7164372
0
LINE
8
layer0
10
9.2026859
20
15.7164372
11
9.2705709
21
15.778368
0
LINE
8
layer0
10
9.2705709
20
15.778368
11
9.4097712
21
15.9316715
0
LINE
8
layer0
10
9.4097712
20
15.9316715
11
9.5509904
21
16.1247092
0
LINE
8
layer0
10
9.5509904
20
16.1247092
11
9.6040528
21
16.205876
0
LINE
8
layer0
10
9.6040528
20
16.205876
11
9.7092207
21
16.3440622
0
LINE
8
layer0
10
9.7092207
20
16.3440622
11
9.9123955
21
16.5702565
0
LINE
8
layer0
10
9.9123955
20
16.5702565
11
10.0551511
21
16.7111761
0
LINE
8
layer0
10
10.0551511
20
16.7111761
11
10.2292848
21
16.8692725
0
LINE
8
layer0
10
10.2292848
20
16.8692725
11
10.4361578
21
17.0418208
0
LINE
8
layer0
10
10.4361578
20
17.0418208
11
10.6757604
21
17.225167
0
LINE
8
layer0
10
10.6757604
20
17.225167
11
10.9483823
21
17.4162456
0
LINE
8
layer0
10
10.9483823
20
17.4162456
11
11.2578737
21
17.6144191
0
LINE
8
layer0
10
11.2578737
20
17.6144191
11
11.6019221
21
17.8149286
0
LINE
8
layer0
10
11.6019221
20
17.8149286
11
11.9856738
21
18.0175875
0
LINE
8
layer0
10
11.9856738
20
18.0175875
11
12.3629374
21
18.1977039
0
ARC
8
layer0
10
-0.0000186
20
-0.0000245
40
22
50
52.1909337
51
55.8090629
0
LINE
8
layer0
10
13.4866871
20
17.381252
11
13.4319671
21
16.9667939
0
LINE
8
layer0
10
13.4319671
20
16.9667939
11
13.3578128
21
16.5391993
0
LINE
8
layer0
10
13.3578128
20
16.5391993
11
13.2734337
21
16.150029
0
LINE
8
layer0
10
13.2734337
20
16.150029
11
13.1805977
21
15.7944462
0
LINE
8
layer0
10
13.1805977
20
15.7944462
11
13.0831159
21
15.4761209
0
LINE
8
layer0
10
13.0831159
20
15.4761209
11
12.9827846
21
15.1915882
0
LINE
8
layer0
10
12.9827846
20
15.1915882
11
12.8826087
21
14.9415198
0
LINE
8
layer0
10
12.8826087
20
14.9415198
11
12.7860604
21
14.7270544
0
LINE
8
layer0
10
12.7860604
20
14.7270544
11
12.6961518
21
14.5477391
0
LINE
8
layer0
10
12.6961518
20
14.5477391
11
12.5438127
21
14.2846106
0
LINE
8
layer0
10
12.5438127
20
14.2846106
11
12.4448884
21
14.1418881
0
LINE
8
layer0
10
12.4448884
20
14.1418881
11
12.3840914
21
14.0663408
0
LINE
8
layer0
10
12.3840914
20
14.0663408
11
12.2441408
21
13.8723815
0
LINE
8
layer0
10
12.2441408
20
13.8723815
11
12.1413558
21
13.6926208
0
LINE
8
layer0
10
12.1413558
20
13.6926208
11
12.1034336
21
13.6089205
0
LINE
8
layer0
10
12.1034336
20
13.6089205
11
12.0742372
21
13.5297741
0
LINE
8
layer0
10
12.0742372
20
13.5297741
11
12.0535614
21
13.4555279
0
LINE
8
layer0
10
12.0535614
20
13.4555279
11
12.0411587
21
13.386486
0
LINE
8
layer0
10
12.0411587
20
13.386486
11
12.0368312
21
13.3229736
0
LINE
8
layer0
10
12.0368312
20
13.3229736
11
12.0403102
21
13.2652879
0
LINE
8
layer0
10
12.0403102
20
13.2652879
11
12.0513623
21
13.2137186
0
LINE
8
layer0
10
12.0513623
20
13.2137186
11
12.06974
21
13.1685698
0
LINE
8
layer0
10
12.06974
20
13.1685698
11
12.0951534
21
13.1301173
0
LINE
8
layer0
10
12.0951534
20
13.1301173
11
12.185062
21
13.0441119
0
LINE
8
layer0
10
12.185062
20
13.0441119
11
12.621856
21
12.621856
0
LINE
8
layer0
10
12.621856
20
12.621856
11
13.0441119
21
12.185062
0
LINE
8
layer0
10
13.0441119
20
12.185062
11
13.1301173
21
12.0951534
0
LINE
8
layer0
10
13.1301173
20
12.0951534
11
13.1685698
21
12.06974
0
LINE
8
layer0
10
13.1685698
20
12.06974
11
13.2137186
21
12.0513623
0
LINE
8
layer0
10
13.2137186
20
12.0513623
11
13.2652879
21
12.0403102
0
LINE
8
layer0
10
13.2652879
20
12.0403102
11
13.3229736
21
12.0368312
0
LINE
8
layer0
10
13.3229736
20
12.0368312
11
13.386486
21
12.0411587
0
LINE
8
layer0
10
13.386486
20
12.0411587
11
13.4555279
21
12.0535614
0
LINE
8
layer0
10
13.4555279
20
12.0535614
11
13.5297741
21
12.0742372
0
LINE
8
layer0
10
13.5297741
20
12.0742372
11
13.6089205
21
12.1034336
0
LINE
8
layer0
10
13.6089205
20
12.1034336
11
13.6926208
21
12.1413558
0
LINE
8
layer0
10
13.6926208
20
12.1413558
11
13.8723815
21
12.2441408
0
LINE
8
layer0
10
13.8723815
20
12.2441408
11
14.0663408
21
12.3840914
0
LINE
8
layer0
10
14.0663408
20
12.3840914
11
14.1418881
21
12.4448884
0
LINE
8
layer0
10
14.1418881
20
12.4448884
11
14.2846106
21
12.5438127
0
LINE
8
layer0
10
14.2846106
20
12.5438127
11
14.5477391
21
12.6961518
0
LINE
8
layer0
10
14.5477391
20
12.6961518
11
14.7270544
21
12.7860604
0
LINE
8
layer0
10
14.7270544
20
12.7860604
11
14.9415198
21
12.8826087
0
LINE
8
layer0
10
14.9415198
20
12.8826087
11
15.1915882
21
12.9827846
0
LINE
8
layer0
10
15.1915882
20
12.9827846
11
15.4761209
21
13.0831159
0
LINE
8
layer0
10
15.4761209
20
13.0831159
11
15.7944462
21
13.1805977
0
LINE
8
layer0
10
15.7944462
20
13.1805977
11
16.150029
21
13.2734337
0
LINE
8
layer0
10
16.150029
20
13.2734337
11
16.5391993
21
13.3578128
0
LINE
8
layer0
10
16.5391993
20
13.3578128
11
16.9667939
21
13.4319671
0
LINE
8
layer0
10
16.9667939
20
13.4319671
11
17.381252
21
13.4866871
0
ARC
8
layer0
10
-0.0000244
20
-0.0000186
40
22
50
34.1909371
51
37.8090663
0
LINE
8
layer0
10
18.1977039
20
12.3629374
11
18.0175875
21
11.9856738
0
LINE
8
layer0
10
18.0175875
20
11.9856738
11
17.8149286
21
11.6019221
0
LINE
8
layer0
10
17.8149286
20
11.6019221
11
17.6144191
21
11.2578737
0
LINE
8
layer0
10
17.6144191
20
11.2578737
11
17.4162456
21
10.9483823
0
LINE
8
layer0
10
17.4162456
20
10.9483823
11
17.225167
21
10.6757604
0
LINE
8
layer0
10
17.225167
20
10.6757604
11
17.0418208
21
10.4361578
0
LINE
8
layer0
10
17.0418208
20
10.4361578
11
16.8692725
21
10.2292848
0
LINE
8
layer0
10
16.8692725
20
10.2292848
11
16.7111761
21
10.0551511
0
LINE
8
layer0
10
16.7111761
20
10.0551511
11
16.5702565
21
9.9123955
0
LINE
8
layer0
10
16.5702565
20
9.9123955
11
16.3440622
21
9.7092207
0
LINE
8
layer0
10
16.3440622
20
9.7092207
11
16.205876
21
9.6040528
0
LINE
8
layer0
10
16.205876
20
9.6040528
11
16.1247092
21
9.5509904
0
LINE
8
layer0
10
16.1247092
20
9.5509904
11
15.9316715
21
9.4097712
0
LINE
8
layer0
10
15.9316715
20
9.4097712
11
15.778368
21
9.2705709
0
LINE
8
layer0
10
15.778368
20
9.2705709
11
15.7164372
21
9.2026859
0
LINE
8
layer0
10
15.7164372
20
9.2026859
11
15.6642121
21
9.1364353
0
LINE
8
layer0
10
15.6642121
20
9.1364353
11
15.6216049
21
9.0722121
0
LINE
8
layer0
10
15.6216049
20
9.0722121
11
15.5884741
21
9.010382
0
LINE
8
layer0
10
15.5884741
20
9.010382
11
15.5647321
21
8.9513155
0
LINE
8
layer0
10
15.5647321
20
8.9513155
11
15.5502149
21
8.895378
0
LINE
8
layer0
10
15.5502149
20
8.895378
11
15.5447902
21
8.8429174
0
LINE
8
layer0
10
15.5447902
20
8.8429174
11
15.5483167
21
8.7942993
0
LINE
8
layer0
10
15.5483167
20
8.7942993
11
15.5606039
21
8.7498757
0
LINE
8
layer0
10
15.5606039
20
8.7498757
11
15.6195349
21
8.6402964
0
LINE
8
layer0
10
15.6195349
20
8.6402964
11
15.9044665
21
8.1037304
0
LINE
8
layer0
10
15.9044665
20
8.1037304
11
16.1710789
21
7.5578304
0
LINE
8
layer0
10
16.1710789
20
7.5578304
11
16.2250916
21
7.4457451
0
LINE
8
layer0
10
16.2250916
20
7.4457451
11
16.2538089
21
7.409693
0
LINE
8
layer0
10
16.2538089
20
7.409693
11
16.2910689
21
7.378263
0
LINE
8
layer0
10
16.2910689
20
7.378263
11
16.3366989
21
7.3518161
0
LINE
8
layer0
10
16.3366989
20
7.3518161
11
16.3904863
21
7.3306815
0
LINE
8
layer0
10
16.3904863
20
7.3306815
11
16.4522274
21
7.3151708
0
LINE
8
layer0
10
16.4522274
20
7.3151708
11
16.5217228
21
7.3056313
0
LINE
8
layer0
10
16.5217228
20
7.3056313
11
16.5987243
21
7.3023518
0
LINE
8
layer0
10
16.5987243
20
7.3023518
11
16.6830192
21
7.3056617
0
LINE
8
layer0
10
16.6830192
20
7.3056617
11
16.7743415
21
7.315863
0
LINE
8
layer0
10
16.7743415
20
7.315863
11
16.9770664
21
7.3580683
0
LINE
8
layer0
10
16.9770664
20
7.3580683
11
17.2047798
21
7.4312324
0
LINE
8
layer0
10
17.2047798
20
7.4312324
11
17.2954169
21
7.4657085
0
LINE
8
layer0
10
17.2954169
20
7.4657085
11
17.4617233
21
7.5156874
0
LINE
8
layer0
10
17.4617233
20
7.5156874
11
17.7590488
21
7.5792592
0
LINE
8
layer0
10
17.7590488
20
7.5792592
11
17.957371
21
7.609356
0
LINE
8
layer0
10
17.957371
20
7.609356
11
18.1911748
21
7.6349054
0
LINE
8
layer0
10
18.1911748
20
7.6349054
11
18.45996
21
7.6529029
0
LINE
8
layer0
10
18.45996
20
7.6529029
11
18.7615707
21
7.6603983
0
LINE
8
layer0
10
18.7615707
20
7.6603983
11
19.0944396
21
7.654741
0
LINE
8
layer0
10
19.0944396
20
7.654741
11
19.4613069
21
7.6331522
0
LINE
8
layer0
10
19.4613069
20
7.6331522
11
19.8575045
21
7.5931412
0
LINE
8
layer0
10
19.8575045
20
7.5931412
11
20.287086
21
7.5315322
0
LINE
8
layer0
10
20.287086
20
7.5315322
11
20.6981685
21
7.4554994
0
ARC
8
layer0
10
-0.0000291
20
-0.0000097
40
22
50
16.1909359
51
19.809065
0
LINE
8
layer0
10
21.1274026
20
6.1344524
11
20.8395208
21
5.8313124
0
LINE
8
layer1
10
20.8395208
20
5.8313124
11
20.528195
21
5.528968
0
LINE
8
layer1
10
20.528195
20
5.528968
11
20.2311823
21
5.2637193
0
LINE
8
layer1
10
20.2311823
20
5.2637193
11
19.9470701
21
5.0306144
0
LINE
8
layer1
10
19.9470701
20
5.0306144
11
19.6810987
21
4.8303822
0
LINE
8
layer1
10
19.6810987
20
4.8303822
11
19.4326848
21
4.6591637
0
LINE
8
layer1
10
19.4326848
20
4.6591637
11
19.2046544
21
4.515736
0
LINE
8
layer1
10
19.2046544
20
4.515736
11
19.0004855
21
4.3989795
0
LINE
8
layer1
10
19.0004855
20
4.3989795
11
18.8223491
21
4.3067574
0
LINE
8
layer1
10
18.8223491
20
4.3067574
11
18.5444411
21
4.1834246
0
LINE
8
layer1
10
18.5444411
20
4.1834246
11
18.3805195
21
4.1261059
0
LINE
8
layer1
10
18.3805195
20
4.1261059
11
18.2869281
21
4.1007225
0
LINE
8
layer1
10
18.2869281
20
4.1007225
11
18.0596992
21
4.026067
0
LINE
8
layer1
10
18.0596992
20
4.026067
11
17.8708837
21
3.941053
0
LINE
8
layer1
10
17.8708837
20
3.941053
11
17.7910063
21
3.8956282
0
LINE
8
layer1
10
17.7910063
20
3.8956282
11
17.7208648
21
3.8487586
0
LINE
8
layer1
10
17.7208648
20
3.8487586
11
17.6604969
21
3.8008451
0
LINE
8
layer1
10
17.6604969
20
3.8008451
11
17.6098811
21
3.7522791
0
LINE
8
layer1
10
17.6098811
20
3.7522791
11
17.5690485
21
3.7034402
0
LINE
8
layer1
10
17.5690485
20
3.7034402
11
17.5379562
21
3.6547265
0
LINE
8
layer1
10
17.5379562
20
3.6547265
11
17.5165858
21
3.6065098
0
LINE
8
layer1
10
17.5165858
20
3.6065098
11
17.5049159
21
3.5591816
0
LINE
8
layer1
10
17.5049159
20
3.5591816
11
17.502874
21
3.5131353
0
LINE
8
layer1
10
17.502874
20
3.5131353
11
17.5250589
21
3.3907085
0
LINE
8
layer1
10
17.5250589
20
3.3907085
11
17.6302369
21
2.7923552
0
LINE
8
layer1
10
17.6302369
20
2.7923552
11
17.715108
21
2.1907856
0
LINE
8
layer1
10
17.715108
20
2.1907856
11
17.7318409
21
2.0674953
0
LINE
8
layer1
10
17.7318409
20
2.0674953
11
17.7480119
21
2.0243337
0
LINE
8
layer1
10
17.7480119
20
2.0243337
11
17.7737359
21
1.982928
0
LINE
8
layer1
10
17.7737359
20
1.982928
11
17.8089601
21
1.943675
0
LINE
8
layer1
10
17.8089601
20
1.943675
11
17.853584
21
1.9069536
0
LINE
8
layer1
10
17.853584
20
1.9069536
11
17.9075102
21
1.873123
0
LINE
8
layer1
10
17.9075102
20
1.873123
11
17.9706563
21
1.8425752
0
LINE
8
layer1
10
17.9706563
20
1.8425752
11
18.0428757
21
1.8156614
0
LINE
8
layer1
10
18.0428757
20
1.8156614
11
18.1240678
21
1.7927607
0
LINE
8
layer1
10
18.1240678
20
1.7927607
11
18.2140728
21
1.7742426
0
LINE
8
layer1
10
18.2140728
20
1.7742426
11
18.4199177
21
1.7517368
0
LINE
8
layer1
10
18.4199177
20
1.7517368
11
18.6590951
21
1.7509527
0
LINE
8
layer1
10
18.6590951
20
1.7509527
11
18.7559497
21
1.7557329
0
LINE
8
layer1
10
18.7559497
20
1.7557329
11
18.9295608
21
1.7518742
0
LINE
8
layer1
10
18.9295608
20
1.7518742
11
19.231979
21
1.720456
0
LINE
8
layer1
10
19.231979
20
1.720456
11
19.429895
21
1.6877948
0
LINE
8
layer1
10
19.429895
20
1.6877948
11
19.6601509
21
1.6398444
0
LINE
8
layer1
10
19.6601509
20
1.6398444
11
19.9213423
21
1.5739019
0
LINE
8
layer1
10
19.9213423
20
1.5739019
11
20.2105074
21
1.4878275
0
LINE
8
layer1
10
20.2105074
20
1.4878275
11
20.5253363
21
1.379585
0
LINE
8
layer1
10
20.5253363
20
1.379585
11
20.8675765
21
1.2456846
0
LINE
8
layer1
10
20.8675765
20
1.2456846
11
21.2320187
21
1.0852001
0
LINE
8
layer1
10
21.2320187
20
1.0852001
11
21.6215367
21
0.8938584
0
LINE
8
layer1
10
21.6215367
20
0.8938584
11
21.989004
21
0.6945155
0
ARC
8
layer1
10
-0.0000307
20
0
40
22
50
358.1909355
51
361.8090645
0
LINE
8
layer1
10
21.989004
20
-0.6945155
11
21.6215367
21
-0.8938584
0
LINE
8
layer1
10
21.6215367
20
-0.8938584
11
21.2320187
21
-1.0852001
0
LINE
8
layer1
10
21.2320187
20
-1.0852001
11
20.8675765
21
-1.2456846
0
LINE
8
layer1
10
20.8675765
20
-1.2456846
11
20.5253363
21
-1.379585
0
LINE
8
layer1
10
20.5253363
20
-1.379585
11
20.2105074
21
-1.4878275
0
LINE
8
layer1
10
20.2105074
20
-1.4878275
11
19.9213423
21
-1.5739019
0
LINE
8
layer1
10
19.9213423
20
-1.5739019
11
19.6601509
21
-1.6398444
0
LINE
8
layer1
10
19.6601509
20
-1.6398444
11
19.429895
21
-1.6877948
0
LINE
8
layer1
10
19.429895
20
-1.6877948
11
19.231979
21
-1.720456
0
LINE
8
layer1
10
19.231979
20
-1.720456
11
18.9295608
21
-1.7518742
0
LINE
8
layer1
10
18.9295608
20
-1.7518742
11
18.7559497
21
-1.7557329
0
LINE
8
layer1
10
18.7559497
20
-1.7557329
11
18.6590951
21
-1.7509527
0
LINE
8
layer1
10
18.6590951
20
-1.7509527
11
18.4199177
21
-1.7517368
0
LINE
8
layer1
10
18.4199177
20
-1.7517368
11
18.2140728
21
-1.7742426
0
LINE
8
layer1
10
18.2140728
20
-1.7742426
11
18.1240678
21
-1.7927607
0
LINE
8
layer1
10
18.1240678
20
-1.7927607
11
18.0428757
21
-1.8156614
0
LINE
8
layer1
10
18.0428757
20
-1.8156614
11
17.9706563
21
-1.8425752
0
LINE
8
layer1
10
17.9706563
20
-1.8425752
11
17.9075102
21
-1.873123
0
LINE
8
layer1
10
17.9075102
20
-1.873123
11
17.853584
21
-1.9069536
0
LINE
8
layer1
10
17.853584
20
-1.9069536
11
17.8089601
21
-1.943675
0
LINE
8
layer1
10
17.8089601
20
-1.943675
11
17.7737359
21
-1.982928
0
LINE
8
layer1
10
17.7737359
20
-1.982928
11
17.7480119
21
-2.0243337
0
LINE
8
layer1
10
17.7480119
20
-2.0243337
11
17.7318409
21
-2.0674953
0
LINE
8
layer1
10
17.7318409
20
-2.0674953
11
17.715108
21
-2.1907856
0
LINE
8
layer1
10
17.715108
20
-2.1907856
11
17.6302369
21
-2.7923552
0
LINE
8
layer1
10
17.6302369
20
-2.7923552
11
17.5250589
21
-3.3907085
0
LINE
8
layer1
10
17.5250589
20
-3.3907085
11
17.502874
21
-3.5131353
0
LINE
8
layer1
10
17.502874
20
-3.5131353
11
17.5049159
21
-3.5591816
0
LINE
8
layer1
10
17.5049159
20
-3.5591816
11
17.5165858
21
-3.6065098
0
LINE
8
layer1
10
17.5165858
20
-3.6065098
11
17.5379562
21
-3.6547265
0
LINE
8
layer1
10
17.5379562
20
-3.6547265
11
17.5690485
21
-3.7034402
0
LINE
8
layer1
10
17.5690485
20
-3.7034402
11
17.6098811
21
-3.7522791
0
LINE
8
layer1
10
17.6098811
20
-3.7522791
11
17.6604969
21
-3.8008451
0
LINE
8
layer1
10
17.6604969
20
-3.8008451
11
17.7208648
21
-3.8487586
0
LINE
8
layer1
10
17.7208648
20
-3.8487586
11
17.7910063
21
-3.8956282
0
LINE
8
layer1
10
17.7910063
20
-3.8956282
11
17.8708837
21
-3.941053
0
LINE
8
layer1
10
17.8708837
20
-3.941053
11
18.0596992
21
-4.026067
0
LINE
8
layer1
10
18.0596992
20
-4.026067
11
18.2869281
21
-4.1007225
0
LINE
8
layer1
10
18.2869281
20
-4.1007225
11
18.3805195
21
-4.1261059
0
LINE
8
layer1
10
18.3805195
20
-4.1261059
11
18.5444411
21
-4.1834246
0
LINE
8
layer1
10
18.5444411
20
-4.1834246
11
18.8223491
21
-4.3067574
0
LINE
8
layer1
10
18.8223491
20
-4.3067574
11
19.0004855
21
-4.3989795
0
LINE
8
layer1
10
19.0004855
20
-4.3989795
11
19.2046544
21
-4.515736
0
LINE
8
layer1
10
19.2046544
20
-4.515736
11
19.4326848
21
-4.6591637
0
LINE
8
layer1
10
19.4326848
20
-4.6591637
11
19.6810987
21
-4.8303822
0
LINE
8
layer1
10
19.6810987
20
-4.8303822
11
19.9470701
21
-5.0306144
0
LINE
8
layer1
10
19.9470701
20
-5.0306144
11
20.2311823
21
-5.2637193
0
LINE
8
layer1
10
20.2311823
20
-5.2637193
11
20.528195
21
-5.528968
0
LINE
8
layer1
10
20.528195
20
-5.528968
11
20.8395208
21
-5.8313124
0
LINE
8
layer1
10
20.8395208
20
-5.8313124
11
21.1274026
21
-6.1344524
0
ARC
8
layer1
10
-0.0000292
20
0.0000097
40
22
50
340.190935
51
343.8090641
0
LINE
8
layer1
10
20.6981685
20
-7.4554994
11
20.287086
21
-7.5315322
0
LINE
8
layer1
10
20.287086
20
-7.5315322
11
19.8575045
21
-7.5931412
0
LINE
8
layer1
10
19.8575045
20
-7.5931412
11
19.4613069
21
-7.6331522
0
LINE
8
layer1
10
19.4613069
20
-7.6331522
11
19.0944396
21
-7.654741
0
LINE
8
layer1
10
19.0944396
20
-7.654741
11
18.7615707
21
-7.6603983
0
LINE
8
layer1
10
18.7615707
20
-7.6603983
11
18.45996
21
-7.6529029
0
LINE
8
layer1
10
18.45996
20
-7.6529029
11
18.1911748
21
-7.6349054
0
LINE
8
layer1
10
18.1911748
20
-7.6349054
11
17.957371
21
-7.609356
0
LINE
8
layer1
10
17.957371
20
-7.609356
11
17.7590488
21
-7.5792592
0
LINE
8
layer1
10
17.7590488
20
-7.5792592
11
17.4617233
21
-7.5156874
0
LINE
8
layer1
10
17.4617233
20
-7.5156874
11
17.2954169
21
-7.4657085
0
LINE
8
layer1
10
17.2954169
20
-7.4657085
11
17.2047798
21
-7.4312324
0
LINE
8
layer1
10
17.2047798
20
-7.4312324
11
16.9770664
21
-7.3580683
0
LINE
8
layer1
10
16.9770664
20
-7.3580683
11
16.7743415
21
-7.315863
0
LINE
8
layer1
10
16.7743415
20
-7.315863
11
16.6830192
21
-7.3056617
0
LINE
8
layer1
10
16.6830192
20
-7.3056617
11
16.5987243
21
-7.3023518
0
LINE
8
layer1
10
16.5987243
20
-7.3023518
11
16.5217228
21
-7.3056313
0
LINE
8
layer1
10
16.5217228
20
-7.3056313
11
16.4522274
21
-7.3151708
0
LINE
8
layer1
10
16.4522274
20
-7.3151708
11
16.3904863
21
-7.3306815
0
LINE
8
layer1
10
16.3904863
20
-7.3306815
11
16.3366989
21
-7.3518161
0
LINE
8
layer1
10
16.3366989
20
-7.3518161
11
16.2910689
21
-7.378263
0
LINE
8
layer1
10
16.2910689
20
-7.378263
11
16.2538089
21
-7.409693
0
LINE
8
layer1
10
16.2538089
20
-7.409693
11
16.2250916
21
-7.4457451
0
LINE
8
layer1
10
16.2250916
20
-7.4457451
11
16.1710789
21
-7.5578304
0
LINE
8
layer1
10
16.1710789
20
-7.5578304
11
15.9044665
21
-8.1037304
0
LINE
8
layer1
10
15.9044665
20
-8.1037304
11
15.6195349
21
-8.6402964
0
LINE
8
layer1
10
15.6195349
20
-8.6402964
11
15.5606039
21
-8.7498757
0
LINE
8
layer1
10
15.5606039
20
-8.7498757
11
15.5483167
21
-8.7942993
0
LINE
8
layer1
10
15.5483167
20
-8.7942993
11
15.5447902
21
-8.8429174
0
LINE
8
layer1
10
15.5447902
20
-8.8429174
11
15.5502149
21
-8.895378
0
LINE
8
layer1
10
15.5502149
20
-8.895378
11
15.5647321
21
-8.9513155
0
LINE
8
layer1
10
15.5647321
20
-8.9513155
11
15.5884741
21
-9.010382
0
LINE
8
layer1
10
15.5884741
20
-9.010382
11
15.6216049
21
-9.0722121
0
LINE
8
layer1
10
15.6216049
20
-9.0722121
11
15.6642121
21
-9.1364353
0
LINE
8
layer1
10
15.6642121
20
-9.1364353
11
15.7164372
21
-9.2026859
0
LINE
8
layer1
10
15.7164372
20
-9.2026859
11
15.778368
21
-9.2705709
0
LINE
8
layer1
10
15.778368
20
-9.2705709
11
15.9316715
21
-9.4097712
0
LINE
8
layer1
10
15.9316715
20
-9.4097712
11
16.1247092
21
-9.5509904
0
LINE
8
layer1
10
16.1247092
20
-9.5509904
11
16.205876
21
-9.6040528
0
LINE
8
layer1
10
16.205876
20
-9.6040528
11
16.3440622
21
-9.7092207
0
LINE
8
layer1
10
16.3440622
20
-9.7092207
11
16.5702565
21
-9.9123955
0
LINE
8
layer1
10
16.5702565
20
-9.9123955
11
16.7111761
21
-10.0551511
0
LINE
8
layer1
10
16.7111761
20
-10.0551511
11
16.8692725
21
-10.2292848
0
LINE
8
layer1
10
16.8692725
20
-10.2292848
11
17.0418208
21
-10.4361578
0
LINE
8
layer1
10
17.0418208
20
-10.4361578
11
17.225167
21
-10.6757604
0
LINE
8
layer1
10
17.225167
20
-10.6757604
11
17.4162456
21
-10.9483823
0
LINE
8
layer1
10
17.4162456
20
-10.9483823
11
17.6144191
21
-11.2578737
0
LINE
8
layer1
10
17.6144191
20
-11.2578737
11
17.8149286
21
-11.6019221
0
LINE
8
layer1
10
17.8149286
20
-11.6019221
11
18.0175875
21
-11.9856738
0
LINE
8
layer1
10
18.0175875
20
-11.9856738
11
18.1977039
21
-12.3629374
0
ARC
8
layer1
10
-0.0000245
20
0.0000186
40
22
50
322.1909337
51
325.8090629
0
LINE
8
layer1
10
17.381252
20
-13.4866871
11
16.9667939
21
-13.4319671
0
LINE
8
layer1
10
16.9667939
20
-13.4319671
11
16.5391993
21
-13.3578128
0
LINE
8
layer1
10
16.5391993
20
-13.3578128
11
16.150029
21
-13.2734337
0
LINE
8
layer1
10
16.150029
20
-13.2734337
11
15.7944462
21
-13.1805977
0
LINE
8
layer1
10
15.7944462
20
-13.1805977
11
15.4761209
21
-13.0831159
0
LINE
8
layer1
10
15.4761209
20
-13.0831159
11
15.1915882
21
-12.9827846
0
LINE
8
layer1
10
15.1915882
20
-12.9827846
11
14.9415198
21
-12.8826087
0
LINE
8
layer1
10
14.9415198
20
-12.8826087
11
14.7270544
21
-12.7860604
0
LINE
8
layer1
10
14.7270544
20
-12.7860604
11
14.5477391
21
-12.6961518
0
LINE
8
layer1
10
14.5477391
20
-12.6961518
11
14.2846106
21
-12.5438127
0
LINE
8
layer1
10
14.2846106
20
-12.5438127
11
14.1418881
21
-12.4448884
0
LINE
8
layer1
10
14.1418881
20
-12.4448884
11
14.0663408
21
-12.3840914
0
LINE
8
layer1
10
14.0663408
20
-12.3840914
11
13.8723815
21
-12.2441408
0
LINE
8
layer1
10
13.8723815
20
-12.2441408
11
13.6926208
21
-12.1413558
0
LINE
8
layer1
10
13.6926208
20
-12.1413558
11
13.6089205
21
-12.1034336
0
LINE
8
layer1
10
13.6089205
20
-12.1034336
11
13.5297741
21
-12.0742372
0
LINE
8
layer1
10
13.5297741
20
-12.0742372
11
13.4555279
21
-12.0535614
0
LINE
8
layer1
10
13.4555279
20
-12.0535614
11
13.386486
21
-12.0411587
0
LINE
8
layer1
10
13.386486
20
-12.0411587
11
13.3229736
21
-12.0368312
0
LINE
8
layer1
10
13.3229736
20
-12.0368312
11
13.2652879
21
-12.0403102
0
LINE
8
layer1
10
13.2652879
20
-12.0403102
11
13.2137186
21
-12.0513623
0
LINE
8
layer1
10
13.2137186
20
-12.0513623
11
13.1685698
21
-12.06974
0
LINE
8
layer1
10
13.1685698
20
-12.06974
11
13.1301173
21
-12.0951534
0
LINE
8
layer1
10
13.1301173
20
-12.0951534
11
13.0441119
21
-12.185062
0
LINE
8
layer1
10
13.0441119
20
-12.185062
11
12.621856
21
-12.621856
0
LINE
8
layer1
10
12.621856
20
-12.621856
11
12.185062
21
-13.0441119
0
LINE
8
layer1
10
12.185062
20
-13.0441119
11
12.0951534
21
-13.1301173
0
LINE
8
layer1
10
12.0951534
20
-13.1301173
11
12.06974
21
-13.1685698
0
LINE
8
layer1
10
12.06974
20
-13.1685698
11
12.0513623
21
-13.2137186
0
LINE
8
layer1
10
12.0513623
20
-13.2137186
11
12.0403102
21
-13.2652879
0
LINE
8
layer1
10
12.0403102
20
-13.2652879
11
12.0368312
21
-13.3229736
0
LINE
8
layer1
10
12.0368312
20
-13.3229736
11
12.0411587
21
-13.386486
0
LINE
8
layer1
10
12.0411587
20
-13.386486
11
12.0535614
21
-13.4555279
0
LINE
8
layer1
10
12.0535614
20
-13.4555279
11
12.0742372
21
-13.5297741
0
LINE
8
layer1
10
12.0742372
20
-13.5297741
11
12.1034336
21
-13.6089205
0
LINE
8
layer1
10
12.1034336
20
-13.6089205
11
12.1413558
21
-13.6926208
0
LINE
8
layer1
10
12.1413558
20
-13.6926208
11
12.2441408
21
-13.8723815
0
LINE
8
layer1
10
12.2441408
20
-13.8723815
11
12.3840914
21
-14.0663408
0
LINE
8
layer1
10
12.3840914
20
-14.0663408
11
12.4448884
21
-14.1418881
0
LINE
8
layer1
10
12.4448884
20
-14.1418881
11
12.5438127
21
-14.2846106
0
LINE
8
layer1
10
12.5438127
20
-14.2846106
11
12.6961518
21
-14.5477391
0
LINE
8
layer1
10
12.6961518
20
-14.5477391
11
12.7860604
21
-14.7270544
0
LINE
8
layer1
10
12.7860604
20
-14.7270544
11
12.8826087
21
-14.9415198
0
LINE
8
layer1
10
12.8826087
20
-14.9415198
11
12.9827846
21
-15.1915882
0
LINE
8
layer1
10
12.9827846
20
-15.1915882
11
13.0831159
21
-15.4761209
0
LINE
8
layer1
10
13.0831159
20
-15.4761209
11
13.1805977
21
-15.7944462
0
LINE
8
layer1
10
13.1805977
20
-15.7944462
11
13.2734337
21
-16.150029
0
LINE
8
layer1
10
13.2734337
20
-16.150029
11
13.3578128
21
-16.5391993
0
LINE
8
layer1
10
13.3578128
20
-16.5391993
11
13.4319671
21
-16.9667939
0
LINE
8
layer1
10
13.4319671
20
-16.9667939
11
13.4866871
21
-17.381252
0
ARC
8
layer1
10
-0.0000186
20
0.0000244
40
22
50
304.1909371
51
307.8090663
0
LINE
8
layer1
10
12.3629374
20
-18.1977039
11
11.9856738
21
-18.0175875
0
LINE
8
layer1
10
11.9856738
20
-18.0175875
11
11.6019221
21
-17.8149286
0
LINE
8
layer1
10
11.6019221
20
-17.8149286
11
11.2578737
21
-17.6144191
0
LINE
8
layer1
10
11.2578737
20
-17.6144191
11
10.9483823
21
-17.4162456
0
LINE
8
layer1
10
10.9483823
20
-17.4162456
11
10.6757604
21
-17.225167
0
LINE
8
layer1
10
10.6757604
20
-17.225167
11
10.4361578
21
-17.0418208
0
LINE
8
layer1
10
10.4361578
20
-17.0418208
11
10.2292848
21
-16.8692725
0
LINE
8
layer1
10
10.2292848
20
-16.8692725
11
10.0551511
21
-16.7111761
0
LINE
8
layer1
10
10.0551511
20
-16.7111761
11
9.9123955
21
-16.5702565
0
LINE
8
layer1
10
9.9123955
20
-16.5702565
11
9.7092207
21
-16.3440622
0
LINE
8
layer1
10
9.7092207
20
-16.3440622
11
9.6040528
21
-16.205876
0
LINE
8
layer1
10
9.6040528
20
-16.205876
11
9.5509904
21
-16.1247092
0
LINE
8
layer1
10
9.5509904
20
-16.1247092
11
9.4097712
21
-15.9316715
0
LINE
8
layer1
10
9.4097712
20
-15.9316715
11
9.2705709
21
-15.778368
0
LINE
8
layer1
10
9.2705709
20
-15.778368
11
9.2026859
21
-15.7164372
0
LINE
8
layer1
10
9.2026859
20
-15.7164372
11
9.1364353
21
-15.6642121
0
LINE
8
layer1
10
9.1364353
20
-15.6642121
11
9.0722121
21
-15.6216049
0
LINE
8
layer1
10
9.0722121
20
-15.6216049
11
9.010382
21
-15.5884741
0
LINE
8
layer1
10
9.010382
20
-15.5884741
11
8.9513155
21
-15.5647321
0
LINE
8
layer1
10
8.9513155
20
-15.5647321
11
8.895378
21
-15.5502149
0
LINE
8
layer1
10
8.895378
20
-15.5502149
11
8.8429174
21
-15.5447902
0
LINE
8
layer1
10
8.8429174
20
-15.5447902
11
8.7942993
21
-15.5483167
0
LINE
8
layer1
10
8.7942993
20
-15.5483167
11
8.7498757
21
-15.5606039
0
LINE
8
layer1
10
8.7498757
20
-15.5606039
11
8.6402964
21
-15.6195349
0
LINE
8
layer1
10
8.6402964
20
-15.6195349
11
8.1037304
21
-15.9044665
0
LINE
8
layer1
10
8.1037304
20
-15.9044665
11
7.5578304
21
-16.1710789
0
LINE
8
layer1
10
7.5578304
20
-16.1710789
11
7.4457451
21
-16.2250916
0
LINE
8
layer1
10
7.4457451
20
-16.2250916
11
7.409693
21
-16.2538089
0
LINE
8
layer1
10
7.409693
20
-16.2538089
11
7.378263
21
-16.2910689
0
LINE
8
layer1
10
7.378263
20
-16.2910689
11
7.3518161
21
-16.3366989
0
LINE
8
layer1
10
7.3518161
20
-16.3366989
11
7.3306815
21
-16.3904863
0
LINE
8
layer1
10
7.3306815
20
-16.3904863
11
7.3151708
21
-16.4522274
0
LINE
8
layer1
10
7.3151708
20
-16.4522274
11
7.3056313
21
-16.5217228
0
LINE
8
layer1
10
7.3056313
20
-16.5217228
11
7.3023518
21
-16.5987243
0
LINE
8
layer1
10
7.3023518
20
-16.5987243
11
7.3056617
21
-16.6830192
0
LINE
8
layer1
10
7.3056617
20
-16.6830192
11
7.315863
21
-16.7743415
0
LINE
8
layer1
10
7.315863
20
-16.7743415
11
7.3580683
21
-16.9770664
0
LINE
8
layer1
10
7.3580683
20
-16.9770664
11
7.4312324
21
-17.2047798
0
LINE
8
layer1
10
7.4312324
20
-17.2047798
11
7.4657085
21
-17.2954169
0
LINE
8
layer1
10
7.4657085
20
-17.2954169
11
7.5156874
21
-17.4617233
0
LINE
8
layer1
10
7.5156874
20
-17.4617233
11
7.5792592
21
-17.7590488
0
LINE
8
layer1
10
7.5792592
20
-17.7590488
11
7.609356
21
-17.957371
0
LINE
8
layer1
10
7.609356
20
-17.957371
11
7.6349054
21
-18.1911748
0
LINE
8
layer1
10
7.6349054
20
-18.1911748
11
7.6529029
21
-18.45996
0
LINE
8
layer1
10
7.6529029
20
-18.45996
11
7.6603983
21
-18.7615707
0
LINE
8
layer1
10
7.6603983
20
-18.7615707
11
7.654741
21
-19.0944396
0
LINE
8
layer1
10
7.654741
20
-19.0944396
11
7.6331522
21
-19.4613069
0
LINE
8
layer1
10
7.6331522
20
-19.4613069
11
7.5931412
21
-19.8575045
0
LINE
8
layer1
10
7.5931412
20
-19.8575045
11
7.5315322
21
-20.287086
0
LINE
8
layer1
10
7.5315322
20
-20.287086
11
7.4554994
21
-20.6981685
0
ARC
8
layer1
10
-0.0000097
20
0.0000291
40
22
50
286.1909359
51
289.809065
0
LINE
8
layer1
10
6.1344524
20
-21.1274026
11
5.8313124
21
-20.8395208
0
LINE
8
layer1
10
5.8313124
20
-20.8395208
11
5.528968
21
-20.528195
0
LINE
8
layer1
10
5.528968
20
-20.528195
11
5.2637193
21
-20.2311823
0
LINE
8
layer1
10
5.2637193
20
-20.2311823
11
5.0306144
21
-19.9470701
0
LINE
8
layer1
10
5.0306144
20
-19.9470701
11
4.8303822
21
-19.6810987
0
LINE
8
layer1
10
4.8303822
20
-19.6810987
11
4.6591637
21
-19.4326848
0
LINE
8
layer1
10
4.6591637
20
-19.4326848
11
4.515736
21
-19.2046544
0
LINE
8
layer1
10
4.515736
20
-19.2046544
11
4.3989795
21
-19.0004855
0
LINE
8
layer1
10
4.3989795
20
-19.0004855
11
4.3067574
21
-18.8223491
0
LINE
8
layer1
10
4.3067574
20
-18.8223491
11
4.1834246
21
-18.5444411
0
LINE
8
layer1
10
4.1834246
20
-18.5444411
11
4.1261059
21
-18.3805195
0
LINE
8
layer1
10
4.1261059
20
-18.3805195
11
4.1007225
21
-18.2869281
0
LINE
8
layer1
10
4.1007225
20
-18.2869281
11
4.026067
21
-18.0596992
0
LINE
8
layer1
10
4.026067
20
-18.0596992
11
3.941053
21
-17.8708837
0
LINE
8
layer1
10
3.941053
20
-17.8708837
11
3.8956282
21
-17.7910063
0
LINE
8
layer1
10
3.8956282
20
-17.7910063
11
3.8487586
21
-17.7208648
0
LINE
8
layer1
10
3.8487586
20
-17.7208648
11
3.8008451
21
-17.6604969
0
LINE
8
layer1
10
3.8008451
20
-17.6604969
11
3.7522791
21
-17.6098811
0
LINE
8
layer1
10
3.7522791
20
-17.6098811
11
3.7034402
21
-17.5690485
0
LINE
8
layer1
10
3.7034402
20
-17.5690485
11
3.6547265
21
-17.5379562
0
LINE
8
layer1
10
3.6547265
20
-17.5379562
11
3.6065098
21
-17.5165858
0
LINE
8
layer1
10
3.6065098
20
-17.5165858
11
3.5591816
21
-17.5049159
0
LINE
8
layer1
10
3.5591816
20
-17.5049159
11
3.5131353
21
-17.502874
0
LINE
8
layer1
10
3.5131353
20
-17.502874
11
3.3907085
21
-17.5250589
0
LINE
8
layer1
10
3.3907085
20
-17.5250589
11
2.7923552
21
-17.6302369
0
LINE
8
layer1
10
2.7923552
20
-17.6302369
11
2.1907856
21
-17.715108
0
LINE
8
layer1
10
2.1907856
20
-17.715108
11
2.0674953
21
-17.7318409
0
LINE
8
layer1
10
2.0674953
20
-17.7318409
11
2.0243337
21
-17.7480119
0
LINE
8
layer1
10
2.0243337
20
-17.7480119
11
1.982928
21
-17.7737359
0
LINE
8
layer1
10
1.982928
20
-17.7737359
11
1.943675
21
-17.8089601
0
LINE
8
layer1
10
1.943675
20
-17.8089601
11
1.9069536
21
-17.853584
0
LINE
8
layer1
10
1.9069536
20
-17.853584
11
1.873123
21
-17.9075102
0
LINE
8
layer1
10
1.873123
20
-17.9075102
11
1.8425752
21
-17.9706563
0
LINE
8
layer1
10
1.8425752
20
-17.9706563
11
1.8156614
21
-18.0428757
0
LINE
8
layer1
10
1.8156614
20
-18.0428757
11
1.7927607
21
-18.1240678
0
LINE
8
layer1
10
1.7927607
20
-18.1240678
11
1.7742426
21
-18.2140728
0
LINE
8
layer1
10
1.7742426
20
-18.2140728
11
1.7517368
21
-18.4199177
0
LINE
8
layer1
10
1.7517368
20
-18.4199177
11
1.7509527
21
-18.6590951
0
LINE
8
layer1
10
1.7509527
20
-18.6590951
11
1.7557329
21
-18.7559497
0
LINE
8
layer1
10
1.7557329
20
-18.7559497
11
1.7518742
21
-18.9295608
0
LINE
8
layer1
10
1.7518742
20
-18.9295608
11
1.720456
21
-19.231979
0
LINE
8
layer1
10
1.720456
20
-19.231979
11
1.6877948
21
-19.429895
0
LINE
8
layer1
10
1.6877948
20
-19.429895
11
1.6398444
21
-19.6601509
0
LINE
8
layer1
10
1.6398444
20
-19.6601509
11
1.5739019
21
-19.9213423
0
LINE
8
layer1
10
1.5739019
20
-19.9213423
11
1.4878275
21
-20.2105074
0
LINE
8
layer1
10
1.4878275
20
-20.2105074
11
1.379585
21
-20.5253363
0
LINE
8
layer1
10
1.379585
20
-20.5253363
11
1.2456846
21
-20.8675765
0
LINE
8
layer1
10
1.2456846
20
-20.8675765
11
1.0852001
21
-21.2320187
0
LINE
8
layer1
10
1.0852001
20
-21.2320187
11
0.8938584
21
-21.6215367
0
LINE
8
layer1
10
0.8938584
20
-21.6215367
11
0.6945155
21
-21.989004
0
ARC
8
layer1
10
0
20
0.0000307
40
22
50
268.1909355
51
271.8090645
0
LINE
8
layer1
10
-0.6945155
20
-21.989004
11
-0.8938584
21
-21.6215367
0
LINE
8
layer1
10
-0.8938584
20
-21.6215367
11
-1.0852001
21
-21.2320187
0
LINE
8
layer1
10
-1.0852001
20
-21.2320187
11
-1.2456846
21
-20.8675765
0
LINE
8
layer1
10
-1.2456846
20
-20.8675765
11
-1.379585
21
-20.5253363
0
LINE
8
layer1
10
-1.379585
20
-20.5253363
11
-1.4878275
21
-20.2105074
0
LINE
8
layer1
10
-1.4878275
20
-20.2105074
11
-1.5739019
21
-19.9213423
0
LINE
8
layer1
10
-1.5739019
20
-19.9213423
11
-1.6398444
21
-19.6601509
0
LINE
8
layer1
10
-1.6398444
20
-19.6601509
11
-1.6877948
21
-19.429895
0
LINE
8
layer1
10
-1.6877948
20
-19.429895
11
-1.720456
21
-19.231979
0
LINE
8
layer1
10
-1.720456
20
-19.231979
11
-1.7518742
21
-18.9295608
0
LINE
8
layer1
10
-1.7518742
20
-18.9295608
11
-1.7557329
21
-18.7559497
0
LINE
8
layer1
10
-1.7557329
20
-18.7559497
11
-1.7509527
21
-18.6590951
0
LINE
8
layer1
10
-1.7509527
20
-18.6590951
11
-1.7517368
21
-18.4199177
0
LINE
8
layer1
10
-1.7517368
20
-18.4199177
11
-1.7742426
21
-18.2140728
0
LINE
8
layer1
10
-1.7742426
20
-18.2140728
11
-1.7927607
21
-18.1240678
0
LINE
8
layer1
10
-1.7927607
20
-18.1240678
11
-1.8156614
21
-18.0428757
0
LINE
8
layer1
10
-1.8156614
20
-18.0428757
11
-1.8425752
21
-17.9706563
0
LINE
8
layer1
10
-1.8425752
20
-17.9706563
11
-1.873123
21
-17.9075102
0
LINE
8
layer1
10
-1.873123
20
-17.9075102
11
-1.9069536
21
-17.853584
0
LINE
8
layer1
10
-1.9069536
20
-17.853584
11
-1.943675
21
-17.8089601
0
LINE
8
layer1
10
-1.943675
20
-17.8089601
11
-1.982928
21
-17.7737359
0
LINE
8
layer1
10
-1.982928
20
-17.7737359
11
-2.0243337
21
-17.7480119
0
LINE
8
layer1
10
-2.0243337
20
-17.7480119
11
-2.0674953
21
-17.7318409
0
LINE
8
layer1
10
-2.0674953
20
-17.7318409
11
-2.1907856
21
-17.715108
0
LINE
8
layer1
10
-2.1907856
20
-17.715108
11
-2.7923552
21
-17.6302369
0
LINE
8
layer1
10
-2.7923552
20
-17.6302369
11
-3.3907085
21
-17.5250589
0
LINE
8
layer1
10
-3.3907085
20
-17.5250589
11
-3.5131353
21
-17.502874
0
LINE
8
layer1
10
-3.5131353
20
-17.502874
11
-3.5591816
21
-17.5049159
0
LINE
8
layer1
10
-3.5591816
20
-17.5049159
11
-3.6065098
21
-17.5165858
0
LINE
8
layer1
10
-3.6065098
20
-17.5165858
11
-3.6547265
21
-17.5379562
0
LINE
8
layer1
10
-3.6547265
20
-17.5379562
11
-3.7034402
21
-17.5690485
0
LINE
8
layer1
10
-3.7034402
20
-17.5690485
11
-3.7522791
21
-17.6098811
0
LINE
8
layer1
10
-3.7522791
20
-17.6098811
11
-3.8008451
21
-17.6604969
0
LINE
8
layer1
10
-3.8008451
20
-17.6604969
11
-3.8487586
21
-17.7208648
0
LINE
8
layer1
10
-3.8487586
20
-17.7208648
11
-3.8956282
21
-17.7910063
0
LINE
8
layer1
10
-3.8956282
20
-17.7910063
11
-3.941053
21
-17.8708837
0
LINE
8
layer1
10
-3.941053
20
-17.8708837
11
-4.026067
21
-18.0596992
0
LINE
8
layer1
10
-4.026067
20
-18.0596992
11
-4.1007225
21
-18.2869281
0
LINE
8
layer1
10
-4.1007225
20
-18.2869281
11
-4.1261059
21
-18.3805195
0
LINE
8
layer1
10
-4.1261059
20
-18.3805195
11
-4.1834246
21
-18.5444411
0
LINE
8
layer1
10
-4.1834246
20
-18.5444411
11
-4.3067574
21
-18.8223491
0
LINE
8
layer1
10
-4.3067574
20
-18.8223491
11
-4.3989795
21
-19.0004855
0
LINE
8
layer1
10
-4.3989795
20
-19.0004855
11
-4.515736
21
-19.2046544
0
LINE
8
layer1
10
-4.515736
20
-19.2046544
11
-4.6591637
21
-19.4326848
0
LINE
8
layer1
10
-4.6591637
20
-19.4326848
11
-4.8303822
21
-19.6810987
0
LINE
8
layer1
10
-4.8303822
20
-19.6810987
11
-5.0306144
21
-19.9470701
0
LINE
8
layer1
10
-5.0306144
20
-19.9470701
11
-5.2637193
21
-20.2311823
0
LINE
8
layer1
10
-5.2637193
20
-20.2311823
11
-5.528968
21
-20.528195
0
LINE
8
layer1
10
-5.528968
20
-20.528195
11
-5.8313124
21
-20.8395208
0
LINE
8
layer1
10
-5.8313124
20
-20.8395208
11
-6.1344524
21
-21.1274026
0
ARC
8
layer1
10
0.0000097
20
0.0000292
40
22
50
250.190935
51
253.8090641
0
LINE
8
layer1
10
-7.4554994
20
-20.6981685
11
-7.5315322
21
-20.287086
0
LINE
8
layer1
10
-7.5315322
20
-20.287086
11
-7.5931412
21
-19.8575045
0
LINE
8
layer1
10
-7.5931412
20
-19.8575045
11
-7.6331522
21
-19.4613069
0
LINE
8
layer1
10
-7.6331522
20
-19.4613069
11
-7.654741
21
-19.0944396
0
LINE
8
layer1
10
-7.654741
20
-19.0944396
11
-7.6603983
21
-18.7615707
0
LINE
8
layer1
10
-7.6603983
20
-18.7615707
11
-7.6529029
21
-18.45996
0
LINE
8
layer1
10
-7.6529029
20
-18.45996
11
-7.6349054
21
-18.1911748
0
LINE
8
layer1
10
-7.6349054
20
-18.1911748
11
-7.609356
21
-17.957371
0
LINE
8
layer1
10
-7.609356
20
-17.957371
11
-7.5792592
21
-17.7590488
0
LINE
8
layer1
10
-7.5792592
20
-17.7590488
11
-7.5156874
21
-17.4617233
0
LINE
8
layer1
10
-7.5156874
20
-17.4617233
11
-7.4657085
21
-17.2954169
0
LINE
8
layer1
10
-7.4657085
20
-17.2954169
11
-7.4312324
21
-17.2047798
0
LINE
8
layer1
10
-7.4312324
20
-17.2047798
11
-7.3580683
21
-16.9770664
0
LINE
8
layer1
10
-7.3580683
20
-16.9770664
11
-7.315863
21
-16.7743415
0
LINE
8
layer1
10
-7.315863
20
-16.7743415
11
-7.3056617
21
-16.6830192
0
LINE
8
layer1
10
-7.3056617
20
-16.6830192
11
-7.3023518
21
-16.5987243
0
LINE
8
layer1
10
-7.3023518
20
-16.5987243
11
-7.3056313
21
-16.5217228
0
LINE
8
layer1
10
-7.3056313
20
-16.5217228
11
-7.3151708
21
-16.4522274
0
LINE
8
layer1
10
-7.3151708
20
-16.4522274
11
-7.3306815
21
-16.3904863
0
LINE
8
layer1
10
-7.3306815
20
-16.3904863
11
-7.3518161
21
-16.3366989
0
LINE
8
layer1
10
-7.3518161
20
-16.3366989
11
-7.378263
21
-16.2910689
0
LINE
8
layer1
10
-7.378263
20
-16.2910689
11
-7.409693
21
-16.2538089
0
LINE
8
layer1
10
-7.409693
20
-16.2538089
11
-7.4457451
21
-16.2250916
0
LINE
8
layer1
10
-7.4457451
20
-16.2250916
11
-7.5578304
21
-16.1710789
0
LINE
8
layer1
10
-7.5578304
20
-16.1710789
11
-8.1037304
21
-15.9044665
0
LINE
8
layer1
10
-8.1037304
20
-15.9044665
11
-8.6402964
21
-15.6195349
0
LINE
8
layer1
10
-8.6402964
20
-15.6195349
11
-8.7498757
21
-15.5606039
0
LINE
8
layer1
10
-8.7498757
20
-15.5606039
11
-8.7942993
21
-15.5483167
0
LINE
8
layer1
10
-8.7942993
20
-15.5483167
11
-8.8429174
21
-15.5447902
0
LINE
8
layer1
10
-8.8429174
20
-15.5447902
11
-8.895378
21
-15.5502149
0
LINE
8
layer1
10
-8.895378
20
-15.5502149
11
-8.9513155
21
-15.5647321
0
LINE
8
layer1
10
-8.9513155
20
-15.5647321
11
-9.010382
21
-15.5884741
0
LINE
8
layer1
10
-9.010382
20
-15.5884741
11
-9.0722121
21
-15.6216049
0
LINE
8
layer1
10
-9.0722121
20
-15.6216049
11
-9.1364353
21
-15.6642121
0
LINE
8
layer1
10
-9.1364353
20
-15.6642121
11
-9.2026859
21
-15.7164372
0
LINE
8
layer1
10
-9.2026859
20
-15.7164372
11
-9.2705709
21
-15.778368
0
LINE
8
layer1
10
-9.2705709
20
-15.778368
11
-9.4097712
21
-15.9316715
0
LINE
8
layer1
10
-9.4097712
20
-15.9316715
11
-9.5509904
21
-16.1247092
0
LINE
8
layer1
10
-9.5509904
20
-16.1247092
11
-9.6040528
21
-16.205876
0
LINE
8
layer1
10
-9.6040528
20
-16.205876
11
-9.7092207
21
-16.3440622
0
LINE
8
layer1
10
-9.7092207
20
-16.3440622
11
-9.9123955
21
-16.5702565
0
LINE
8
layer1
10
-9.9123955
20
-16.5702565
11
-10.0551511
21
-16.7111761
0
LINE
8
layer1
10
-10.0551511
20
-16.7111761
11
-10.2292848
21
-16.8692725
0
LINE
8
layer1
10
-10.2292848
20
-16.8692725
11
-10.4361578
21
-17.0418208
0
LINE
8
layer1
10
-10.4361578
20
-17.0418208
11
-10.6757604
21
-17.225167
0
LINE
8
layer1
10
-10.6757604
20
-17.225167
11
-10.9483823
21
-17.4162456
0
LINE
8
layer1
10
-10.9483823
20
-17.4162456
11
-11.2578737
21
-17.6144191
0
LINE
8
layer1
10
-11.2578737
20
-17.6144191
11
-11.6019221
21
-17.8149286
0
LINE
8
layer1
10
-11.6019221
20
-17.8149286
11
-11.9856738
21
-18.0175875
0
LINE
8
layer1
10
-11.9856738
20
-18.0175875
11
-12.3629374
21
-18.1977039
0
ARC
8
layer1
10
0.0000186
20
0.0000245
40
22
50
232.1909337
51
235.8090629
0
LINE
8
layer1
10
-13.4866871
20
-17.381252
11
-13.4319671
21
-16.9667939
0
LINE
8
layer1
10
-13.4319671
20
-16.9667939
11
-13.3578128
21
-16.5391993
0
LINE
8
layer1
10
-13.3578128
20
-16.5391993
11
-13.2734337
21
-16.150029
0
LINE
8
layer1
10
-13.2734337
20
-16.150029
11
-13.1805977
21
-15.7944462
0
LINE
8
layer1
10
-13.1805977
20
-15.7944462
11
-13.0831159
21
-15.4761209
0
LINE
8
layer1
10
-13.0831159
20
-15.4761209
11
-12.9827846
21
-15.1915882
0
LINE
8
layer1
10
-12.9827846
20
-15.1915882
11
-12.8826087
21
-14.9415198
0
LINE
8
layer1
10
-12.8826087
20
-14.9415198
11
-12.7860604
21
-14.7270544
0
LINE
8
layer1
10
-12.7860604
20
-14.7270544
11
-12.6961518
21
-14.5477391
0
LINE
8
layer1
10
-12.6961518
20
-14.5477391
11
-12.5438127
21
-14.2846106
0
LINE
8
layer1
10
-12.5438127
20
-14.2846106
11
-12.4448884
21
-14.1418881
0
LINE
8
layer1
10
-12.4448884
20
-14.1418881
11
-12.3840914
21
-14.0663408
0
LINE
8
layer1
10
-12.3840914
20
-14.0663408
11
-12.2441408
21
-13.8723815
0
LINE
8
layer1
10
-12.2441408
20
-13.8723815
11
-12.1413558
21
-13.6926208
0
LINE
8
layer1
10
-12.1413558
20
-13.6926208
11
-12.1034336
21
-13.6089205
0
LINE
8
layer1
10
-12.1034336
20
-13.6089205
11
-12.0742372
21
-13.5297741
0
LINE
8
layer1
10
-12.0742372
20
-13.5297741
11
-12.0535614
21
-13.4555279
0
LINE
8
layer1
10
-12.0535614
20
-13.4555279
11
-12.0411587
21
-13.386486
0
LINE
8
layer1
10
-12.0411587
20
-13.386486
11
-12.0368312
21
-13.3229736
0
LINE
8
layer1
10
-12.0368312
20
-13.3229736
11
-12.0403102
21
-13.2652879
0
LINE
8
layer1
10
-12.0403102
20
-13.2652879
11
-12.0513623
21
-13.2137186
0
LINE
8
layer1
10
-12.0513623
20
-13.2137186
11
-12.06974
21
-13.1685698
0
LINE
8
layer1
10
-12.06974
20
-13.1685698
11
-12.0951534
21
-13.1301173
0
LINE
8
layer1
10
-12.0951534
20
-13.1301173
11
-12.185062
21
-13.0441119
0
LINE
8
layer1
10
-12.185062
20
-13.0441119
11
-12.621856
21
-12.621856
0
LINE
8
layer1
10
-12.621856
20
-12.621856
11
-13.0441119
21
-12.185062
0
LINE
8
layer1
10
-13.0441119
20
-12.185062
11
-13.1301173
21
-12.0951534
0
LINE
8
layer1
10
-13.1301173
20
-12.0951534
11
-13.1685698
21
-12.06974
0
LINE
8
layer1
10
-13.1685698
20
-12.06974
11
-13.2137186
21
-12.0513623
0
LINE
8
layer1
10
-13.2137186
20
-12.0513623
11
-13.2652879
21
-12.0403102
0
LINE
8
layer1
10
-13.2652879
20
-12.0403102
11
-13.3229736
21
-12.0368312
0
LINE
8
layer1
10
-13.3229736
20
-12.0368312
11
-13.386486
21
-12.0411587
0
LINE
8
layer1
10
-13.386486
20
-12.0411587
11
-13.4555279
21
-12.0535614
0
LINE
8
layer1
10
-13.4555279
20
-12.0535614
11
-13.5297741
21
-12.0742372
0
LINE
8
layer1
10
-13.5297741
20
-12.0742372
11
-13.6089205
21
-12.1034336
0
LINE
8
layer1
10
-13.6089205
20
-12.1034336
11
-13.6926208
21
-12.1413558
0
LINE
8
layer1
10
-13.6926208
20
-12.1413558
11
-13.8723815
21
-12.2441408
0
LINE
8
layer1
10
-13.8723815
20
-12.2441408
11
-14.0663408
21
-12.3840914
0
LINE
8
layer1
10
-14.0663408
20
-12.3840914
11
-14.1418881
21
-12.4448884
0
LINE
8
layer1
10
-14.1418881
20
-12.4448884
11
-14.2846106
21
-12.5438127
0
LINE
8
layer1
10
-14.2846106
20
-12.5438127
11
-14.5477391
21
-12.6961518
0
LINE
8
layer1
10
-14.5477391
20
-12.6961518
11
-14.7270544
21
-12.7860604
0
LINE
8
layer1
10
-14.7270544
20
-12.7860604
11
-14.9415198
21
-12.8826087
0
LINE
8
layer1
10
-14.9415198
20
-12.8826087
11
-15.1915882
21
-12.9827846
0
LINE
8
layer1
10
-15.1915882
20
-12.9827846
11
-15.4761209
21
-13.0831159
0
LINE
8
layer1
10
-15.4761209
20
-13.0831159
11
-15.7944462
21
-13.1805977
0
LINE
8
layer1
10
-15.7944462
20
-13.1805977
11
-16.150029
21
-13.2734337
0
LINE
8
layer1
10
-16.150029
20
-13.2734337
11
-16.5391993
21
-13.3578128
0
LINE
8
layer1
10
-16.5391993
20
-13.3578128
11
-16.9667939
21
-13.4319671
0
LINE
8
layer1
10
-16.9667939
20
-13.4319671
11
-17.381252
21
-13.4866871
0
ARC
8
layer1
10
0.0000244
20
0.0000186
40
22
50
214.1909371
51
217.8090663
0
LINE
8
layer1
10
-18.1977039
20
-12.3629374
11
-18.0175875
21
-11.9856738
0
LINE
8
layer1
10
-18.0175875
20
-11.9856738
11
-17.8149286
21
-11.6019221
0
LINE
8
layer1
10
-17.8149286
20
-11.6019221
11
-17.6144191
21
-11.2578737
0
LINE
8
layer1
10
-17.6144191
20
-11.2578737
11
-17.4162456
21
-10.9483823
0
LINE
8
layer1
10
-17.4162456
20
-10.9483823
11
-17.225167
21
-10.6757604
0
LINE
8
layer1
10
-17.225167
20
-10.6757604
11
-17.0418208
21
-10.4361578
0
LINE
8
layer1
10
-17.0418208
20
-10.4361578
11
-16.8692725
21
-10.2292848
0
LINE
8
layer1
10
-16.8692725
20
-10.2292848
11
-16.7111761
21
-10.0551511
0
LINE
8
layer1
10
-16.7111761
20
-10.0551511
11
-16.5702565
21
-9.9123955
0
LINE
8
layer1
10
-16.5702565
20
-9.9123955
11
-16.3440622
21
-9.7092207
0
LINE
8
layer1
10
-16.3440622
20
-9.7092207
11
-16.205876
21
-9.6040528
0
LINE
8
layer1
10
-16.205876
20
-9.6040528
11
-16.1247092
21
-9.5509904
0
LINE
8
layer1
10
-16.1247092
20
-9.5509904
11
-15.9316715
21
-9.4097712
0
LINE
8
layer1
10
-15.9316715
20
-9.4097712
11
-15.778368
21
-9.2705709
0
LINE
8
layer1
10
-15.778368
20
-9.2705709
11
-15.7164372
21
-9.2026859
0
LINE
8
layer1
10
-15.7164372
20
-9.2026859
11
-15.6642121
21
-9.1364353
0
LINE
8
layer1
10
-15.6642121
20
-9.1364353
11
-15.6216049
21
-9.0722121
0
LINE
8
layer1
10
-15.6216049
20
-9.0722121
11
-15.5884741
21
-9.010382
0
LINE
8
layer1
10
-15.5884741
20
-9.010382
11
-15.5647321
21
-8.9513155
0
LINE
8
layer1
10
-15.5647321
20
-8.9513155
11
-15.5502149
21
-8.895378
0
LINE
8
layer1
10
-15.5502149
20
-8.895378
11
-15.5447902
21
-8.8429174
0
LINE
8
layer1
10
-15.5447902
20
-8.8429174
11
-15.5483167
21
-8.7942993
0
LINE
8
layer1
10
-15.5483167
20
-8.7942993
11
-15.5606039
21
-8.7498757
0
LINE
8
layer1
10
-15.5606039
20
-8.7498757
11
-15.6195349
21
-8.6402964
0
LINE
8
layer1
10
-15.6195349
20
-8.6402964
11
-15.9044665
21
-8.1037304
0
LINE
8
layer1
10
-15.9044665
20
-8.1037304
11
-16.1710789
21
-7.5578304
0
LINE
8
layer1
10
-16.1710789
20
-7.5578304
11
-16.2250916
21
-7.4457451
0
LINE
8
layer1
10
-16.2250916
20
-7.4457451
11
-16.2538089
21
-7.409693
0
LINE
8
layer1
10
-16.2538089
20
-7.409693
11
-16.2910689
21
-7.378263
0
LINE
8
layer1
10
-16.2910689
20
-7.378263
11
-16.3366989
21
-7.3518161
0
LINE
8
layer1
10
-16.3366989
20
-7.3518161
11
-16.3904863
21
-7.3306815
0
LINE
8
layer1
10
-16.3904863
20
-7.3306815
11
-16.4522274
21
-7.3151708
0
LINE
8
layer1
10
-16.4522274
20
-7.3151708
11
-16.5217228
21
-7.3056313
0
LINE
8
layer1
10
-16.5217228
20
-7.3056313
11
-16.5987243
21
-7.3023518
0
LINE
8
layer1
10
-16.5987243
20
-7.3023518
11
-16.6830192
21
-7.3056617
0
LINE
8
layer1
10
-16.6830192
20
-7.3056617
11
-16.7743415
21
-7.315863
0
LINE
8
layer1
10
-16.7743415
20
-7.315863
11
-16.9770664
21
-7.3580683
0
LINE
8
layer1
10
-16.9770664
20
-7.3580683
11
-17.2047798
21
-7.4312324
0
LINE
8
layer1
10
-17.2047798
20
-7.4312324
11
-17.2954169
21
-7.4657085
0
LINE
8
layer1
10
-17.2954169
20
-7.4657085
11
-17.4617233
21
-7.5156874
0
LINE
8
layer1
10
-17.4617233
20
-7.5156874
11
-17.7590488
21
-7.5792592
0
LINE
8
layer1
10
-17.7590488
20
-7.5792592
11
-17.957371
21
-7.609356
0
LINE
8
layer1
10
-17.957371
20
-7.609356
11
-18.1911748
21
-7.6349054
0
LINE
8
layer1
10
-18.1911748
20
-7.6349054
11
-18.45996
21
-7.6529029
0
LINE
8
layer1
10
-18.45996
20
-7.6529029
11
-18.7615707
21
-7.6603983
0
LINE
8
layer1
10
-18.7615707
20
-7.6603983
11
-19.0944396
21
-7.654741
0
LINE
8
layer1
10
-19.0944396
20
-7.654741
11
-19.4613069
21
-7.6331522
0
LINE
8
layer1
10
-19.4613069
20
-7.6331522
11
-19.8575045
21
-7.5931412
0
LINE
8
layer1
10
-19.8575045
20
-7.5931412
11
-20.287086
21
-7.5315322
0
LINE
8
layer1
10
-20.287086
20
-7.5315322
11
-20.6981685
21
-7.4554994
0
ARC
8
layer1
10
0.0000291
20
0.0000097
40
22
50
196.1909359
51
199.809065
0
LINE
8
layer1
10
-21.1274026
20
-6.1344524
11
-20.8395208
21
-5.8313124
0
LINE
8
layer1
10
-20.8395208
20
-5.8313124
11
-20.528195
21
-5.528968
0
LINE
8
layer1
10
-20.528195
20
-5.528968
11
-20.2311823
21
-5.2637193
0
LINE
8
layer1
10
-20.2311823
20
-5.2637193
11
-19.9470701
21
-5.0306144
0
LINE
8
layer1
10
-19.9470701
20
-5.0306144
11
-19.6810987
21
-4.8303822
0
LINE
8
layer1
10
-19.6810987
20
-4.8303822
11
-19.4326848
21
-4.6591637
0
LINE
8
layer1
10
-19.4326848
20
-4.6591637
11
-19.2046544
21
-4.515736
0
LINE
8
layer1
10
-19.2046544
20
-4.515736
11
-19.0004855
21
-4.3989795
0
LINE
8
layer1
10
-19.0004855
20
-4.3989795
11
-18.8223491
21
-4.3067574
0
LINE
8
layer1
10
-18.8223491
20
-4.3067574
11
-18.5444411
21
-4.1834246
0
LINE
8
layer1
10
-18.5444411
20
-4.1834246
11
-18.3805195
21
-4.1261059
0
LINE
8
layer1
10
-18.3805195
20
-4.1261059
11
-18.2869281
21
-4.1007225
0
LINE
8
layer1
10
-18.2869281
20
-4.1007225
11
-18.0596992
21
-4.026067
0
LINE
8
layer1
10
-18.0596992
20
-4.026067
11
-17.8708837
21
-3.941053
0
LINE
8
layer1
10
-17.8708837
20
-3.941053
11
-17.7910063
21
-3.8956282
0
LINE
8
layer1
10
-17.7910063
20
-3.8956282
11
-17.7208648
21
-3.8487586
0
LINE
8
layer1
10
-17.7208648
20
-3.8487586
11
-17.6604969
21
-3.8008451
0
LINE
8
layer1
10
-17.6604969
20
-3.8008451
11
-17.6098811
21
-3.7522791
0
LINE
8
layer1
10
-17.6098811
20
-3.7522791
11
-17.5690485
21
-3.7034402
0
LINE
8
layer1
10
-17.5690485
20
-3.7034402
11
-17.5379562
21
-3.6547265
0
LINE
8
layer1
10
-17.5379562
20
-3.6547265
11
-17.5165858
21
-3.6065098
0
LINE
8
layer1
10
-17.5165858
20
-3.6065098
11
-17.5049159
21
-3.5591816
0
LINE
8
layer1
10
-17.5049159
20
-3.5591816
11
-17.502874
21
-3.5131353
0
LINE
8
layer1
10
-17.502874
20
-3.5131353
11
-17.5250589
21
-3.3907085
0
LINE
8
layer1
10
-17.5250589
20
-3.3907085
11
-17.6302369
21
-2.7923552
0
LINE
8
layer1
10
-17.6302369
20
-2.7923552
11
-17.715108
21
-2.1907856
0
LINE
8
layer1
10
-17.715108
20
-2.1907856
11
-17.7318409
21
-2.0674953
0
LINE
8
layer1
10
-17.7318409
20
-2.0674953
11
-17.7480119
21
-2.0243337
0
LINE
8
layer1
10
-17.7480119
20
-2.0243337
11
-17.7737359
21
-1.982928
0
LINE
8
layer1
10
-17.7737359
20
-1.982928
11
-17.8089601
21
-1.943675
0
LINE
8
layer1
10
-17.8089601
20
-1.943675
11
-17.853584
21
-1.9069536
0
LINE
8
layer1
10
-17.853584
20
-1.9069536
11
-17.9075102
21
-1.873123
0
LINE
8
layer1
10
-17.9075102
20
-1.873123
11
-17.9706563
21
-1.8425752
0
LINE
8
layer1
10
-17.9706563
20
-1.8425752
11
-18.0428757
21
-1.8156614
0
LINE
8
layer1
10
-18.0428757
20
-1.8156614
11
-18.1240678
21
-1.7927607
0
LINE
8
layer1
10
-18.1240678
20
-1.7927607
11
-18.2140728
21
-1.7742426
0
LINE
8
layer1
10
-18.2140728
20
-1.7742426
11
-18.4199177
21
-1.7517368
0
LINE
8
layer1
10
-18.4199177
20
-1.7517368
11
-18.6590951
21
-1.7509527
0
LINE
8
layer1
10
-18.6590951
20
-1.7509527
11
-18.7559497
21
-1.7557329
0
LINE
8
layer1
10
-18.7559497
20
-1.7557329
11
-18.9295608
21
-1.7518742
0
LINE
8
layer1
10
-18.9295608
20
-1.7518742
11
-19.231979
21
-1.720456
0
LINE
8
layer1
10
-19.231979
20
-1.720456
11
-19.429895
21
-1.6877948
0
LINE
8
layer1
10
-19.429895
20
-1.6877948
11
-19.6601509
21
-1.6398444
0
LINE
8
layer1
10
-19.6601509
20
-1.6398444
11
-19.9213423
21
-1.5739019
0
LINE
8
layer1
10
-19.9213423
20
-1.5739019
11
-20.2105074
21
-1.4878275
0
LINE
8
layer1
10
-20.2105074
20
-1.4878275
11
-20.5253363
21
-1.379585
0
LINE
8
layer1
10
-20.5253363
20
-1.379585
11
-20.8675765
21
-1.2456846
0
LINE
8
layer1
10
-20.8675765
20
-1.2456846
11
-21.2320187
21
-1.0852001
0
LINE
8
layer1
10
-21.2320187
20
-1.0852001
11
-21.6215367
21
-0.8938584
0
LINE
8
layer1
10
-21.6215367
20
-0.8938584
11
-21.989004
21
-0.6945155
0
ARC
8
layer1
10
0.0000307
20
0
40
22
50
178.1909355
51
181.8090645
0
LINE
8
layer1
10
-21.989004
20
0.6945155
11
-21.6215367
21
0.8938584
0
LINE
8
layer1
10
-21.6215367
20
0.8938584
11
-21.2320187
21
1.0852001
0
LINE
8
layer1
10
-21.2320187
20
1.0852001
11
-20.8675765
21
1.2456846
0
LINE
8
layer1
10
-20.8675765
20
1.2456846
11
-20.5253363
21
1.379585
0
LINE
8
layer1
10
-20.5253363
20
1.379585
11
-20.2105074
21
1.4878275
0
LINE
8
layer1
10
-20.2105074
20
1.4878275
11
-19.9213423
21
1.5739019
0
LINE
8
layer1
10
-19.9213423
20
1.5739019
11
-19.6601509
21
1.6398444
0
LINE
8
layer1
10
-19.6601509
20
1.6398444
11
-19.429895
21
1.6877948
0
LINE
8
layer1
10
-19.429895
20
1.6877948
11
-19.231979
21
1.720456
0
LINE
8
layer1
10
-19.231979
20
1.720456
11
-18.9295608
21
1.7518742
0
LINE
8
layer1
10
-18.9295608
20
1.7518742
11
-18.7559497
21
1.7557329
0
LINE
8
layer1
10
-18.7559497
20
1.7557329
11
-18.6590951
21
1.7509527
0
LINE
8
layer1
10
-18.6590951
20
1.7509527
11
-18.4199177
21
1.7517368
0
LINE
8
layer1
10
-18.4199177
20
1.7517368
11
-18.2140728
21
1.7742426
0
LINE
8
layer1
10
-18.2140728
20
1.7742426
11
-18.1240678
21
1.7927607
0
LINE
8
layer1
10
-18.1240678
20
1.7927607
11
-18.0428757
21
1.8156614
0
LINE
8
layer1
10
-18.0428757
20
1.8156614
11
-17.9706563
21
1.8425752
0
LINE
8
layer1
10
-17.9706563
20
1.8425752
11
-17.9075102
21
1.873123
0
LINE
8
layer1
10
-17.9075102
20
1.873123
11
-17.853584
21
1.9069536
0
LINE
8
layer1
10
-17.853584
20
1.9069536
11
-17.8089601
21
1.943675
0
LINE
8
layer1
10
-17.8089601
20
1.943675
11
-17.7737359
21
1.982928
0
LINE
8
layer1
10
-17.7737359
20
1.982928
11
-17.7480119
21
2.0243337
0
LINE
8
layer1
10
-17.7480119
20
2.0243337
11
-17.7318409
21
2.0674953
0
LINE
8
layer1
10
-17.7318409
20
2.0674953
11
-17.715108
21
2.1907856
0
LINE
8
layer1
10
-17.715108
20
2.1907856
11
-17.6302369
21
2.7923552
0
LINE
8
layer1
10
-17.6302369
20
2.7923552
11
-17.5250589
21
3.3907085
0
LINE
8
layer1
10
-17.5250589
20
3.3907085
11
-17.502874
21
3.5131353
0
LINE
8
layer1
10
-17.502874
20
3.5131353
11
-17.5049159
21
3.5591816
0
LINE
8
layer1
10
-17.5049159
20
3.5591816
11
-17.5165858
21
3.6065098
0
LINE
8
layer1
10
-17.5165858
20
3.6065098
11
-17.5379562
21
3.6547265
0
LINE
8
layer1
10
-17.5379562
20
3.6547265
11
-17.5690485
21
3.7034402
0
LINE
8
layer1
10
-17.5690485
20
3.7034402
11
-17.6098811
21
3.7522791
0
LINE
8
layer1
10
-17.6098811
20
3.7522791
11
-17.6604969
21
3.8008451
0
LINE
8
layer1
10
-17.6604969
20
3.8008451
11
-17.7208648
21
3.8487586
0
LINE
8
layer1
10
-17.7208648
20
3.8487586
11
-17.7910063
21
3.8956282
0
LINE
8
layer1
10
-17.7910063
20
3.8956282
11
-17.8708837
21
3.941053
0
LINE
8
layer1
10
-17.8708837
20
3.941053
11
-18.0596992
21
4.026067
0
LINE
8
layer1
10
-18.0596992
20
4.026067
11
-18.2869281
21
4.1007225
0
LINE
8
layer1
10
-18.2869281
20
4.1007225
11
-18.3805195
21
4.1261059
0
LINE
8
layer1
10
-18.3805195
20
4.1261059
11
-18.5444411
21
4.1834246
0
LINE
8
layer1
10
-18.5444411
20
4.1834246
11
-18.8223491
21
4.3067574
0
LINE
8
layer1
10
-18.8223491
20
4.3067574
11
-19.0004855
21
4.3989795
0
LINE
8
layer1
10
-19.0004855
20
4.3989795
11
-19.2046544
21
4.515736
0
LINE
8
layer1
10
-19.2046544
20
4.515736
11
-19.4326848
21
4.6591637
0
LINE
8
layer1
10
-19.4326848
20
4.6591637
11
-19.6810987
21
4.8303822
0
LINE
8
layer1
10
-19.6810987
20
4.8303822
11
-19.9470701
21
5.0306144
0
LINE
8
layer1
10
-19.9470701
20
5.0306144
11
-20.2311823
21
5.2637193
0
LINE
8
layer1
10
-20.2311823
20
5.2637193
11
-20.528195
21
5.528968
0
LINE
8
layer1
10
-20.528195
20
5.528968
11
-20.8395208
21
5.8313124
0
LINE
8
layer1
10
-20.8395208
20
5.8313124
11
-21.1274026
21
6.1344524
0
ARC
8
layer1
10
0.0000292
20
-0.0000097
40
22
50
160.190935
51
163.8090641
0
LINE
8
layer1
10
-20.6981685
20
7.4554994
11
-20.287086
21
7.5315322
0
LINE
8
layer1
10
-20.287086
20
7.5315322
11
-19.8575045
21
7.5931412
0
LINE
8
layer1
10
-19.8575045
20
7.5931412
11
-19.4613069
21
7.6331522
0
LINE
8
layer1
10
-19.4613069
20
7.6331522
11
-19.0944396
21
7.654741
0
LINE
8
layer1
10
-19.0944396
20
7.654741
11
-18.7615707
21
7.6603983
0
LINE
8
layer1
10
-18.7615707
20
7.6603983
11
-18.45996
21
7.6529029
0
LINE
8
layer1
10
-18.45996
20
7.6529029
11
-18.1911748
21
7.6349054
0
LINE
8
layer1
10
-18.1911748
20
7.6349054
11
-17.957371
21
7.609356
0
LINE
8
layer1
10
-17.957371
20
7.609356
11
-17.7590488
21
7.5792592
0
LINE
8
layer1
10
-17.7590488
20
7.5792592
11
-17.4617233
21
7.5156874
0
LINE
8
layer1
10
-17.4617233
20
7.5156874
11
-17.2954169
21
7.4657085
0
LINE
8
layer1
10
-17.2954169
20
7.4657085
11
-17.2047798
21
7.4312324
0
LINE
8
layer1
10
-17.2047798
20
7.4312324
11
-16.9770664
21
7.3580683
0
LINE
8
layer1
10
-16.9770664
20
7.3580683
11
-16.7743415
21
7.315863
0
LINE
8
layer1
10
-16.7743415
20
7.315863
11
-16.6830192
21
7.3056617
0
LINE
8
layer1
10
-16.6830192
20
7.3056617
11
-16.5987243
21
7.3023518
0
LINE
8
layer1
10
-16.5987243
20
7.3023518
11
-16.5217228
21
7.3056313
0
LINE
8
layer1
10
-16.5217228
20
7.3056313
11
-16.4522274
21
7.3151708
0
LINE
8
layer1
10
-16.4522274
20
7.3151708
11
-16.3904863
21
7.3306815
0
LINE
8
layer1
10
-16.3904863
20
7.3306815
11
-16.3366989
21
7.3518161
0
LINE
8
layer1
10
-16.3366989
20
7.3518161
11
-16.2910689
21
7.378263
0
LINE
8
layer1
10
-16.2910689
20
7.378263
11
-16.2538089
21
7.409693
0
LINE
8
layer1
10
-16.2538089
20
7.409693
11
-16.2250916
21
7.4457451
0
LINE
8
layer1
10
-16.2250916
20
7.4457451
11
-16.1710789
21
7.5578304
0
LINE
8
layer1
10
-16.1710789
20
7.5578304
11
-15.9044665
21
8.1037304
0
LINE
8
layer1
10
-15.9044665
20
8.1037304
11
-15.6195349
21
8.6402964
0
LINE
8
layer1
10
-15.6195349
20
8.6402964
11
-15.5606039
21
8.7498757
0
LINE
8
layer1
10
-15.5606039
20
8.7498757
11
-15.5483167
21
8.7942993
0
LINE
8
layer1
10
-15.5483167
20
8.7942993
11
-15.5447902
21
8.8429174
0
LINE
8
layer1
10
-15.5447902
20
8.8429174
11
-15.5502149
21
8.895378
0
LINE
8
layer1
10
-15.5502149
20
8.895378
11
-15.5647321
21
8.9513155
0
LINE
8
layer1
10
-15.5647321
20
8.9513155
11
-15.5884741
21
9.010382
0
LINE
8
layer1
10
-15.5884741
20
9.010382
11
-15.6216049
21
9.0722121
0
LINE
8
layer1
10
-15.6216049
20
9.0722121
11
-15.6642121
21
9.1364353
0
LINE
8
layer1
10
-15.6642121
20
9.1364353
11
-15.7164372
21
9.2026859
0
LINE
8
layer1
10
-15.7164372
20
9.2026859
11
-15.778368
21
9.2705709
0
LINE
8
layer1
10
-15.778368
20
9.2705709
11
-15.9316715
21
9.4097712
0
LINE
8
layer1
10
-15.9316715
20
9.4097712
11
-16.1247092
21
9.5509904
0
LINE
8
layer1
10
-16.1247092
20
9.5509904
11
-16.205876
21
9.6040528
0
LINE
8
layer1
10
-16.205876
20
9.6040528
11
-16.3440622
21
9.7092207
0
LINE
8
layer1
10
-16.3440622
20
9.7092207
11
-16.5702565
21
9.9123955
0
LINE
8
layer1
10
-16.5702565
20
9.9123955
11
-16.7111761
21
10.0551511
0
LINE
8
layer1
10
-16.7111761
20
10.0551511
11
-16.8692725
21
10.2292848
0
LINE
8
layer1
10
-16.8692725
20
10.2292848
11
-17.0418208
21
10.4361578
0
LINE
8
layer1
10
-17.0418208
20
10.4361578
11
-17.225167
21
10.6757604
0
LINE
8
layer1
10
-17.225167
20
10.6757604
11
-17.4162456
21
10.9483823
0
LINE
8
layer1
10
-17.4162456
20
10.9483823
11
-17.6144191
21
11.2578737
0
LINE
8
layer1
10
-17.6144191
20
11.2578737
11
-17.8149286
21
11.6019221
0
LINE
8
layer1
10
-17.8149286
20
11.6019221
11
-18.0175875
21
11.9856738
0
LINE
8
layer1
10
-18.0175875
20
11.9856738
11
-18.1977039
21
12.3629374
0
ARC
8
layer1
10
0.0000245
20
-0.0000186
40
22
50
142.1909337
51
145.8090629
0
LINE
8
layer1
10
-17.381252
20
13.4866871
11
-16.9667939
21
13.4319671
0
LINE
8
layer1
10
-16.9667939
20
13.4319671
11
-16.5391993
21
13.3578128
0
LINE
8
layer1
10
-16.5391993
20
13.3578128
11
-16.150029
21
13.2734337
0
LINE
8
layer1
10
-16.150029
20
13.2734337
11
-15.7944462
21
13.1805977
0
LINE
8
layer1
10
-15.7944462
20
13.1805977
11
-15.4761209
21
13.0831159
0
LINE
8
layer1
10
-15.4761209
20
13.0831159
11
-15.1915882
21
12.9827846
0
LINE
8
layer1
10
-15.1915882
20
12.9827846
11
-14.9415198
21
12.8826087
0
LINE
8
layer1
10
-14.9415198
20
12.8826087
11
-14.7270544
21
12.7860604
0
LINE
8
layer1
10
-14.7270544
20
12.7860604
11
-14.5477391
21
12.6961518
0
LINE
8
layer1
10
-14.5477391
20
12.6961518
11
-14.2846106
21
12.5438127
0
LINE
8
layer1
10
-14.2846106
20
12.5438127
11
-14.1418881
21
12.4448884
0
LINE
8
layer1
10
-14.1418881
20
12.4448884
11
-14.0663408
21
12.3840914
0
LINE
8
layer1
10
-14.0663408
20
12.3840914
11
-13.8723815
21
12.2441408
0
LINE
8
layer1
10
-13.8723815
20
12.2441408
11
-13.6926208
21
12.1413558
0
LINE
8
layer1
10
-13.6926208
20
12.1413558
11
-13.6089205
21
12.1034336
0
LINE
8
layer1
10
-13.6089205
20
12.1034336
11
-13.5297741
21
12.0742372
0
LINE
8
layer1
10
-13.5297741
20
12.0742372
11
-13.4555279
21
12.0535614
0
LINE
8
layer1
10
-13.4555279
20
12.0535614
11
-13.386486
21
12.0411587
0
LINE
8
layer1
10
-13.386486
20
12.0411587
11
-13.3229736
21
12.0368312
0
LINE
8
layer1
10
-13.3229736
20
12.0368312
11
-13.2652879
21
12.0403102
0
LINE
8
layer1
10
-13.2652879
20
12.0403102
11
-13.2137186
21
12.0513623
0
LINE
8
layer1
10
-13.2137186
20
12.0513623
11
-13.1685698
21
12.06974
0
LINE
8
layer1
10
-13.1685698
20
12.06974
11
-13.1301173
21
12.0951534
0
LINE
8
layer1
10
-13.1301173
20
12.0951534
11
-13.0441119
21
12.185062
0
LINE
8
layer1
10
-13.0441119
20
12.185062
11
-12.621856
21
12.621856
0
LINE
8
layer1
10
-12.621856
20
12.621856
11
-12.185062
21
13.0441119
0
LINE
8
layer1
10
-12.185062
20
13.0441119
11
-12.0951534
21
13.1301173
0
LINE
8
layer1
10
-12.0951534
20
13.1301173
11
-12.06974
21
13.1685698
0
LINE
8
layer1
10
-12.06974
20
13.1685698
11
-12.0513623
21
13.2137186
0
LINE
8
layer1
10
-12.0513623
20
13.2137186
11
-12.0403102
21
13.2652879
0
LINE
8
layer1
10
-12.0403102
20
13.2652879
11
-12.0368312
21
13.3229736
0
LINE
8
layer1
10
-12.0368312
20
13.3229736
11
-12.0411587
21
13.386486
0
LINE
8
layer1
10
-12.0411587
20
13.386486
11
-12.0535614
21
13.4555279
0
LINE
8
layer1
10
-12.0535614
20
13.4555279
11
-12.0742372
21
13.5297741
0
LINE
8
layer1
10
-12.0742372
20
13.5297741
11
-12.1034336
21
13.6089205
0
LINE
8
layer1
10
-12.1034336
20
13.6089205
11
-12.1413558
21
13.6926208
0
LINE
8
layer1
10
-12.1413558
20
13.6926208
11
-12.2441408
21
13.8723815
0
LINE
8
layer1
10
-12.2441408
20
13.8723815
11
-12.3840914
21
14.0663408
0
LINE
8
layer1
10
-12.3840914
20
14.0663408
11
-12.4448884
21
14.1418881
0
LINE
8
layer1
10
-12.4448884
20
14.1418881
11
-12.5438127
21
14.2846106
0
LINE
8
layer1
10
-12.5438127
20
14.2846106
11
-12.6961518
21
14.5477391
0
LINE
8
layer1
10
-12.6961518
20
14.5477391
11
-12.7860604
21
14.7270544
0
LINE
8
layer1
10
-12.7860604
20
14.7270544
11
-12.8826087
21
14.9415198
0
LINE
8
layer1
10
-12.8826087
20
14.9415198
11
-12.9827846
21
15.1915882
0
LINE
8
layer1
10
-12.9827846
20
15.1915882
11
-13.0831159
21
15.4761209
0
LINE
8
layer1
10
-13.0831159
20
15.4761209
11
-13.1805977
21
15.7944462
0
LINE
8
layer1
10
-13.1805977
20
15.7944462
11
-13.2734337
21
16.150029
0
LINE
8
layer1
10
-13.2734337
20
16.150029
11
-13.3578128
21
16.5391993
0
LINE
8
layer1
10
-13.3578128
20
16.5391993
11
-13.4319671
21
16.9667939
0
LINE
8
layer1
10
-13.4319671
20
16.9667939
11
-13.4866871
21
17.381252
0
ARC
8
layer1
10
0.0000186
20
-0.0000244
40
22
50
124.1909371
51
127.8090663
0
LINE
8
layer1
10
-12.3629374
20
18.1977039
11
-11.9856738
21
18.0175875
0
LINE
8
layer1
10
-11.9856738
20
18.0175875
11
-11.6019221
21
17.8149286
0
LINE
8
layer1
10
-11.6019221
20
17.8149286
11
-11.2578737
21
17.6144191
0
LINE
8
layer1
10
-11.2578737
20
17.6144191
11
-10.9483823
21
17.4162456
0
LINE
8
layer1
10
-10.9483823
20
17.4162456
11
-10.6757604
21
17.225167
0
LINE
8
layer1
10
-10.6757604
20
17.225167
11
-10.4361578
21
17.0418208
0
LINE
8
layer1
10
-10.4361578
20
17.0418208
11
-10.2292848
21
16.8692725
0
LINE
8
layer1
10
-10.2292848
20
16.8692725
11
-10.0551511
21
16.7111761
0
LINE
8
layer1
10
-10.0551511
20
16.7111761
11
-9.9123955
21
16.5702565
0
LINE
8
layer1
10
-9.9123955
20
16.5702565
11
-9.7092207
21
16.3440622
0
LINE
8
layer1
10
-9.7092207
20
16.3440622
11
-9.6040528
21
16.205876
0
LINE
8
layer1
10
-9.6040528
20
16.205876
11
-9.5509904
21
16.1247092
0
LINE
8
layer1
10
-9.5509904
20
16.1247092
11
-9.4097712
21
15.9316715
0
LINE
8
layer1
10
-9.4097712
20
15.9316715
11
-9.2705709
21
15.778368
0
LINE
8
layer1
10
-9.2705709
20
15.778368
11
-9.2026859
21
15.7164372
0
LINE
8
layer1
10
-9.2026859
20
15.7164372
11
-9.1364353
21
15.6642121
0
LINE
8
layer1
10
-9.1364353
20
15.6642121
11
-9.0722121
21
15.6216049
0
LINE
8
layer1
10
-9.0722121
20
15.6216049
11
-9.010382
21
15.5884741
0
LINE
8
layer1
10
-9.010382
20
15.5884741
11
-8.9513155
21
15.5647321
0
LINE
8
layer1
10
-8.9513155
20
15.5647321
11
-8.895378
21
15.5502149
0
LINE
8
layer1
10
-8.895378
20
15.5502149
11
-8.8429174
21
15.5447902
0
LINE
8
layer1
10
-8.8429174
20
15.5447902
11
-8.7942993
21
15.5483167
0
LINE
8
layer1
10
-8.7942993
20
15.5483167
11
-8.7498757
21
15.5606039
0
LINE
8
layer1
10
-8.7498757
20
15.5606039
11
-8.6402964
21
15.6195349
0
LINE
8
layer1
10
-8.6402964
20
15.6195349
11
-8.1037304
21
15.9044665
0
LINE
8
layer1
10
-8.1037304
20
15.9044665
11
-7.5578304
21
16.1710789
0
LINE
8
layer1
10
-7.5578304
20
16.1710789
11
-7.4457451
21
16.2250916
0
LINE
8
layer1
10
-7.4457451
20
16.2250916
11
-7.409693
21
16.2538089
0
LINE
8
layer1
10
-7.409693
20
16.2538089
11
-7.378263
21
16.2910689
0
LINE
8
layer1
10
-7.378263
20
16.2910689
11
-7.3518161
21
16.3366989
0
LINE
8
layer1
10
-7.3518161
20
16.3366989
11
-7.3306815
21
16.3904863
0
LINE
8
layer1
10
-7.3306815
20
16.3904863
11
-7.3151708
21
16.4522274
0
LINE
8
layer1
10
-7.3151708
20
16.4522274
11
-7.3056313
21
16.5217228
0
LINE
8
layer1
10
-7.3056313
20
16.5217228
11
-7.3023518
21
16.5987243
0
LINE
8
layer1
10
-7.3023518
20
16.5987243
11
-7.3056617
21
16.6830192
0
LINE
8
layer1
10
-7.3056617
20
16.6830192
11
-7.315863
21
16.7743415
0
LINE
8
layer1
10
-7.315863
20
16.7743415
11
-7.3580683
21
16.9770664
0
LINE
8
layer1
10
-7.3580683
20
16.9770664
11
-7.4312324
21
17.2047798
0
LINE
8
layer1
10
-7.4312324
20
17.2047798
11
-7.4657085
21
17.2954169
0
LINE
8
layer1
10
-7.4657085
20
17.2954169
11
-7.5156874
21
17.4617233
0
LINE
8
layer1
10
-7.5156874
20
17.4617233
11
-7.5792592
21
17.7590488
0
LINE
8
layer1
10
-7.5792592
20
17.7590488
11
-7.609356
21
17.957371
0
LINE
8
layer1
10
-7.609356
20
17.957371
11
-7.6349054
21
18.1911748
0
LINE
8
layer1
10
-7.6349054
20
18.1911748
11
-7.6529029
21
18.45996
0
LINE
8
layer1
10
-7.6529029
20
18.45996
11
-7.6603983
21
18.7615707
0
LINE
8
layer1
10
-7.6603983
20
18.7615707
11
-7.654741
21
19.0944396
0
LINE
8
layer1
10
-7.654741
20
19.0944396
11
-7.6331522
21
19.4613069
0
LINE
8
layer1
10
-7.6331522
20
19.4613069
11
-7.5931412
21
19.8575045
0
LINE
8
layer1
10
-7.5931412
20
19.8575045
11
-7.5315322
21
20.287086
0
LINE
8
layer1
10
-7.5315322
20
20.287086
11
-7.4554994
21
20.6981685
0
ARC
8
layer1
10
0.0000097
20
-0.0000291
40
22
50
106.1909359
51
109.809065
0
LINE
8
layer1
10
-6.1344524
20
21.1274026
11
-5.8313124
21
20.8395208
0
LINE
8
layer1
10
-5.8313124
20
20.8395208
11
-5.528968
21
20.528195
0
LINE
8
layer1
10
-5.528968
20
20.528195
11
-5.2637193
21
20.2311823
0
LINE
8
layer1
10
-5.2637193
20
20.2311823
11
-5.0306144
21
19.9470701
0
LINE
8
layer1
10
-5.0306144
20
19.9470701
11
-4.8303822
21
19.6810987
0
LINE
8
layer1
10
-4.8303822
20
19.6810987
11
-4.6591637
21
19.4326848
0
LINE
8
layer1
10
-4.6591637
20
19.4326848
11
-4.515736
21
19.2046544
0
LINE
8
layer1
10
-4.515736
20
19.2046544
11
-4.3989795
21
19.0004855
0
LINE
8
layer1
10
-4.3989795
20
19.0004855
11
-4.3067574
21
18.8223491
0
LINE
8
layer1
10
-4.3067574
20
18.8223491
11
-4.1834246
21
18.5444411
0
LINE
8
layer1
10
-4.1834246
20
18.5444411
11
-4.1261059
21
18.3805195
0
LINE
8
layer1
10
-4.1261059
20
18.3805195
11
-4.1007225
21
18.2869281
0
LINE
8
layer1
10
-4.1007225
20
18.2869281
11
-4.026067
21
18.0596992
0
LINE
8
layer1
10
-4.026067
20
18.0596992
11
-3.941053
21
17.8708837
0
LINE
8
layer1
10
-3.941053
20
17.8708837
11
-3.8956282
21
17.7910063
0
LINE
8
layer1
10
-3.8956282
20
17.7910063
11
-3.8487586
21
17.7208648
0
LINE
8
layer1
10
-3.8487586
20
17.7208648
11
-3.8008451
21
17.6604969
0
LINE
8
layer1
10
-3.8008451
20
17.6604969
11
-3.7522791
21
17.6098811
0
LINE
8
layer1
10
-3.7522791
20
17.6098811
11
-3.7034402
21
17.5690485
0
LINE
8
layer1
10
-3.7034402
20
17.5690485
11
-3.6547265
21
17.5379562
0
LINE
8
layer1
10
-3.6547265
20
17.5379562
11
-3.6065098
21
17.5165858
0
LINE
8
layer1
10
-3.6065098
20
17.5165858
11
-3.5591816
21
17.5049159
0
LINE
8
layer1
10
-3.5591816
20
17.5049159
11
-3.5131353
21
17.502874
0
LINE
8
layer1
10
-3.5131353
20
17.502874
11
-3.3907085
21
17.5250589
0
LINE
8
layer1
10
-3.3907085
20
17.5250589
11
-2.7923552
21
17.6302369
0
LINE
8
layer1
10
-2.7923552
20
17.6302369
11
-2.1907856
21
17.715108
0
LINE
8
layer1
10
-2.1907856
20
17.715108
11
-2.0674953
21
17.7318409
0
LINE
8
layer1
10
-2.0674953
20
17.7318409
11
-2.0243337
21
17.7480119
0
LINE
8
layer1
10
-2.0243337
20
17.7480119
11
-1.982928
21
17.7737359
0
LINE
8
layer1
10
-1.982928
20
17.7737359
11
-1.943675
21
17.8089601
0
LINE
8
layer1
10
-1.943675
20
17.8089601
11
-1.9069536
21
17.853584
0
LINE
8
layer1
10
-1.9069536
20
17.853584
11
-1.873123
21
17.9075102
0
LINE
8
layer1
10
-1.873123
20
17.9075102
11
-1.8425752
21
17.9706563
0
LINE
8
layer1
10
-1.8425752
20
17.9706563
11
-1.8156614
21
18.0428757
0
LINE
8
layer1
10
-1.8156614
20
18.0428757
11
-1.7927607
21
18.1240678
0
LINE
8
layer1
10
-1.7927607
20
18.1240678
11
-1.7742426
21
18.2140728
0
LINE
8
layer1
10
-1.7742426
20
18.2140728
11
-1.7517368
21
18.4199177
0
LINE
8
layer1
10
-1.7517368
20
18.4199177
11
-1.7509527
21
18.6590951
0
LINE
8
layer1
10
-1.7509527
20
18.6590951
11
-1.7557329
21
18.7559497
0
LINE
8
layer1
10
-1.7557329
20
18.7559497
11
-1.7518742
21
18.9295608
0
LINE
8
layer1
10
-1.7518742
20
18.9295608
11
-1.720456
21
19.231979
0
LINE
8
layer1
10
-1.720456
20
19.231979
11
-1.6877948
21
19.429895
0
LINE
8
layer1
10
-1.6877948
20
19.429895
11
-1.6398444
21
19.6601509
0
LINE
8
layer1
10
-1.6398444
20
19.6601509
11
-1.5739019
21
19.9213423
0
LINE
8
layer1
10
-1.5739019
20
19.9213423
11
-1.4878275
21
20.2105074
0
LINE
8
layer1
10
-1.4878275
20
20.2105074
11
-1.379585
21
20.5253363
0
LINE
8
layer1
10
-1.379585
20
20.5253363
11
-1.2456846
21
20.8675765
0
LINE
8
layer1
10
-1.2456846
20
20.8675765
11
-1.0852001
21
21.2320187
0
LINE
8
layer1
10
-1.0852001
20
21.2320187
11
-0.8938584
21
21.6215367
0
LINE
8
layer1
10
-0.8938584
20
21.6215367
11
-0.6945155
21
21.989004
0
ARC
8
layer1
10
0
20
-0.0000307
40
22
50
88.1909355
51
91.8090645
0
LINE
8
layer1
10
0.6945155
20
21.989004
11
0.8938584
21
21.6215367
0
LINE
8
layer1
10
0.8938584
20
21.6215367
11
1.0852001
21
21.2320187
0
LINE
8
layer1
10
1.0852001
20
21.2320187
11
1.2456846
21
20.8675765
0
LINE
8
layer1
10
1.2456846
20
20.8675765
11
1.379585
21
20.5253363
0
LINE
8
layer1
10
1.379585
20
20.5253363
11
1.4878275
21
20.2105074
0
LINE
8
layer1
10
1.4878275
20
20.2105074
11
1.5739019
21
19.9213423
0
LINE
8
layer1
10
1.5739019
20
19.9213423
11
1.6398444
21
19.6601509
0
LINE
8
layer1
10
1.6398444
20
19.6601509
11
1.6877948
21
19.429895
0
LINE
8
layer1
10
1.6877948
20
19.429895
11
1.720456
21
19.231979
0
LINE
8
layer1
10
1.720456
20
19.231979
11
1.7518742
21
18.9295608
0
LINE
8
layer1
10
1.7518742
20
18.9295608
11
1.7557329
21
18.7559497
0
LINE
8
layer1
10
1.7557329
20
18.7559497
11
1.7509527
21
18.6590951
0
LINE
8
layer1
10
1.7509527
20
18.6590951
11
1.7517368
21
18.4199177
0
LINE
8
layer1
10
1.7517368
20
18.4199177
11
1.7742426
21
18.2140728
0
LINE
8
layer1
10
1.7742426
20
18.2140728
11
1.7927607
21
18.1240678
0
LINE
8
layer1
10
1.7927607
20
18.1240678
11
1.8156614
21
18.0428757
0
LINE
8
layer1
10
1.8156614
20
18.0428757
11
1.8425752
21
17.9706563
0
LINE
8
layer1
10
1.8425752
20
17.9706563
11
1.873123
21
17.9075102
0
LINE
8
layer1
10
1.873123
20
17.9075102
11
1.9069536
21
17.853584
0
LINE
8
layer1
10
1.9069536
20
17.853584
11
1.943675
21
17.8089601
0
LINE
8
layer1
10
1.943675
20
17.8089601
11
1.982928
21
17.7737359
0
LINE
8
layer1
10
1.982928
20
17.7737359
11
2.0243337
21
17.7480119
0
LINE
8
layer1
10
2.0243337
20
17.7480119
11
2.0674953
21
17.7318409
0
LINE
8
layer1
10
2.0674953
20
17.7318409
11
2.1907856
21
17.715108
0
LINE
8
layer1
10
2.1907856
20
17.715108
11
2.7923552
21
17.6302369
0
LINE
8
layer1
10
2.7923552
20
17.6302369
11
3.3907085
21
17.5250589
0
LINE
8
layer1
10
3.3907085
20
17.5250589
11
3.5131353
21
17.502874
0
LINE
8
layer1
10
3.5131353
20
17.502874
11
3.5591816
21
17.5049159
0
LINE
8
layer1
10
3.5591816
20
17.5049159
11
3.6065098
21
17.5165858
0
LINE
8
layer1
10
3.6065098
20
17.5165858
11
3.6547265
21
17.5379562
0
LINE
8
layer1
10
3.6547265
20
17.5379562
11
3.7034402
21
17.5690485
0
LINE
8
layer1
10
3.7034402
20
17.5690485
11
3.7522791
21
17.6098811
0
LINE
8
layer1
10
3.7522791
20
17.6098811
11
3.8008451
21
17.6604969
0
LINE
8
layer1
10
3.8008451
20
17.6604969
11
3.8487586
21
17.7208648
0
LINE
8
layer1
10
3.8487586
20
17.7208648
11
3.8956282
21
17.7910063
0
LINE
8
layer1
10
3.8956282
20
17.7910063
11
3.941053
21
17.8708837
0
LINE
8
layer1
10
3.941053
20
17.8708837
11
4.026067
21
18.0596992
0
LINE
8
layer1
10
4.026067
20
18.0596992
11
4.1007225
21
18.2869281
0
LINE
8
layer1
10
4.1007225
20
18.2869281
11
4.1261059
21
18.3805195
0
LINE
8
layer1
10
4.1261059
20
18.3805195
11
4.1834246
21
18.5444411
0
LINE
8
layer1
10
4.1834246
20
18.5444411
11
4.3067574
21
18.8223491
0
LINE
8
layer1
10
4.3067574
20
18.8223491
11
4.3989795
21
19.0004855
0
LINE
8
layer1
10
4.3989795
20
19.0004855
11
4.515736
21
19.2046544
0
LINE
8
layer1
10
4.515736
20
19.2046544
11
4.6591637
21
19.4326848
0
LINE
8
layer1
10
4.6591637
20
19.4326848
11
4.8303822
21
19.6810987
0
LINE
8
layer1
10
4.8303822
20
19.6810987
11
5.0306144
21
19.9470701
0
LINE
8
layer1
10
5.0306144
20
19.9470701
11
5.2637193
21
20.2311823
0
LINE
8
layer1
10
5.2637193
20
20.2311823
11
5.528968
21
20.528195
0
LINE
8
layer1
10
5.528968
20
20.528195
11
5.8313124
21
20.8395208
0
LINE
8
layer1
10
5.8313124
20
20.8395208
11
6.1344524
21
21.1274026
0
ARC
8
layer1
10
-0.0000097
20
-0.0000292
40
22
50
70.190935
51
73.8090641
0
LINE
8
layer1
10
7.4554994
20
20.6981685
11
7.5315322
21
20.287086
0
LINE
8
layer1
10
7.5315322
20
20.287086
11
7.5931412
21
19.8575045
0
LINE
8
layer1
10
7.5931412
20
19.8575045
11
7.6331522
21
19.4613069
0
LINE
8
layer1
10
7.6331522
20
19.4613069
11
7.654741
21
19.0944396
0
LINE
8
layer1
10
7.654741
20
19.0944396
11
7.6603983
21
18.7615707
0
LINE
8
layer1
10
7.6603983
20
18.7615707
11
7.6529029
21
18.45996
0
LINE
8
layer1
10
7.6529029
20
18.45996
11
7.6349054
21
18.1911748
0
LINE
8
layer1
10
7.6349054
20
18.1911748
11
7.609356
21
17.957371
0
LINE
8
layer1
10
7.609356
20
17.957371
11
7.5792592
21
17.7590488
0
LINE
8
layer1
10
7.5792592
20
17.7590488
11
7.5156874
21
17.4617233
0
LINE
8
layer1
10
7.5156874
20
17.4617233
11
7.4657085
21
17.2954169
0
LINE
8
layer1
10
7.4657085
20
17.2954169
11
7.4312324
21
17.2047798
0
LINE
8
layer1
10
7.4312324
20
17.2047798
11
7.3580683
21
16.9770664
0
LINE
8
layer1
10
7.3580683
20
16.9770664
11
7.315863
21
16.7743415
0
LINE
8
layer1
10
7.315863
20
16.7743415
11
7.3056617
21
16.6830192
0
LINE
8
layer1
10
7.3056617
20
16.6830192
11
7.3023518
21
16.5987243
0
LINE
8
layer1
10
7.3023518
20
16.5987243
11
7.3056313
21
16.5217228
0
LINE
8
layer1
10
7.3056313
20
16.5217228
11
7.3151708
21
16.4522274
0
LINE
8
layer1
10
7.3151708
20
16.4522274
11
7.3306815
21
16.3904863
0
LINE
8
layer1
10
7.3306815
20
16.3904863
11
7.3518161
21
16.3366989
0
LINE
8
layer1
10
7.3518161
20
16.3366989
11
7.378263
21
16.2910689
0
LINE
8
layer1
10
7.378263
20
16.2910689
11
7.409693
21
16.2538089
0
LINE
8
layer1
10
7.409693
20
16.2538089
11
7.4457451
21
16.2250916
0
LINE
8
layer1
10
7.4457451
20
16.2250916
11
7.5578304
21
16.1710789
0
LINE
8
layer1
10
7.5578304
20
16.1710789
11
8.1037304
21
15.9044665
0
LINE
8
layer1
10
8.1037304
20
15.9044665
11
8.6402964
21
15.6195349
0
LINE
8
layer1
10
8.6402964
20
15.6195349
11
8.7498757
21
15.5606039
0
LINE
8
layer1
10
8.7498757
20
15.5606039
11
8.7942993
21
15.5483167
0
LINE
8
layer1
10
8.7942993
20
15.5483167
11
8.8429174
21
15.5447902
0
LINE
8
layer1
10
8.8429174
20
15.5447902
11
8.895378
21
15.5502149
0
LINE
8
layer1
10
8.895378
20
15.5502149
11
8.9513155
21
15.5647321
0
LINE
8
layer1
10
8.9513155
20
15.5647321
11
9.010382
21
15.5884741
0
LINE
8
layer1
10
9.010382
20
15.5884741
11
9.0722121
21
15.6216049
0
LINE
8
layer1
10
9.0722121
20
15.6216049
11
9.1364353
21
15.6642121
0
LINE
8
layer1
10
9.1364353
20
15.6642121
11
9.2026859
21
15.7164372
0
LINE
8
layer1
10
9.2026859
20
15.7164372
11
9.2705709
21
15.778368
0
LINE
8
layer1
10
9.2705709
20
15.778368
11
9.4097712
21
15.9316715
0
LINE
8
layer1
10
9.4097712
20
15.9316715
11
9.5509904
21
16.1247092
0
LINE
8
layer1
10
9.5509904
20
16.1247092
11
9.6040528
21
16.205876
0
LINE
8
layer1
10
9.6040528
20
16.205876
11
9.7092207
21
16.3440622
0
LINE
8
layer1
10
9.7092207
20
16.3440622
11
9.9123955
21
16.5702565
0
LINE
8
layer1
10
9.9123955
20
16.5702565
11
10.0551511
21
16.7111761
0
LINE
8
layer1
10
10.0551511
20
16.7111761
11
10.2292848
21
16.8692725
0
LINE
8
layer1
10
10.2292848
20
16.8692725
11
10.4361578
21
17.0418208
0
LINE
8
layer1
10
10.4361578
20
17.0418208
11
10.6757604
21
17.225167
0
LINE
8
layer1
10
10.6757604
20
17.225167
11
10.9483823
21
17.4162456
0
LINE
8
layer1
10
10.9483823
20
17.4162456
11
11.2578737
21
17.6144191
0
LINE
8
layer1
10
11.2578737
20
17.6144191
11
11.6019221
21
17.8149286
0
LINE
8
layer1
10
11.6019221
20
17.8149286
11
11.9856738
21
18.0175875
0
LINE
8
layer1
10
11.9856738
20
18.0175875
11
12.3629374
21
18.1977039
0
ARC
8
layer1
10
-0.0000186
20
-0.0000245
40
22
50
52.1909337
51
55.8090629
0
LINE
8
layer1
10
13.4866871
20
17.381252
11
13.4319671
21
16.9667939
0
LINE
8
layer1
10
13.4319671
20
16.9667939
11
13.3578128
21
16.5391993
0
LINE
8
layer1
10
13.3578128
20
16.5391993
11
13.2734337
21
16.150029
0
LINE
8
layer1
10
13.2734337
20
16.150029
11
13.1805977
21
15.7944462
0
LINE
8
layer1
10
13.1805977
20
15.7944462
11
13.0831159
21
15.4761209
0
LINE
8
layer1
10
13.0831159
20
15.4761209
11
12.9827846
21
15.1915882
0
LINE
8
layer1
10
12.9827846
20
15.1915882
11
12.8826087
21
14.9415198
0
LINE
8
layer1
10
12.8826087
20
14.9415198
11
12.7860604
21
14.7270544
0
LINE
8
layer1
10
12.7860604
20
14.7270544
11
12.6961518
21
14.5477391
0
LINE
8
layer1
10
12.6961518
20
14.5477391
11
12.5438127
21
14.2846106
0
LINE
8
layer1
10
12.5438127
20
14.2846106
11
12.4448884
21
14.1418881
0
LINE
8
layer1
10
12.4448884
20
14.1418881
11
12.3840914
21
14.0663408
0
LINE
8
layer1
10
12.3840914
20
14.0663408
11
12.2441408
21
13.8723815
0
LINE
8
layer1
10
12.2441408
20
13.8723815
11
12.1413558
21
13.6926208
0
LINE
8
layer1
10
12.1413558
20
13.6926208
11
12.1034336
21
13.6089205
0
LINE
8
layer1
10
12.1034336
20
13.6089205
11
12.0742372
21
13.5297741
0
LINE
8
layer1
10
12.0742372
20
13.5297741
11
12.0535614
21
13.4555279
0
LINE
8
layer1
10
12.0535614
20
13.4555279
11
12.0411587
21
13.386486
0
LINE
8
layer1
10
12.0411587
20
13.386486
11
12.0368312
21
13.3229736
0
LINE
8
layer1
10
12.0368312
20
13.3229736
11
12.0403102
21
13.2652879
0
LINE
8
layer1
10
12.0403102
20
13.2652879
11
12.0513623
21
13.2137186
0
LINE
8
layer1
10
12.0513623
20
13.2137186
11
12.06974
21
13.1685698
0
LINE
8
layer1
10
12.06974
20
13.1685698
11
12.0951534
21
13.1301173
0
LINE
8
layer1
10
12.0951534
20
13.1301173
11
12.185062
21
13.0441119
0
LINE
8
layer1
10
12.185062
20
13.0441119
11
12.621856
21
12.621856
0
LINE
8
layer1
10
12.621856
20
12.621856
11
13.0441119
21
12.185062
0
LINE
8
layer1
10
13.0441119
20
12.185062
11
13.1301173
21
12.0951534
0
LINE
8
layer1
10
13.1301173
20
12.0951534
11
13.1685698
21
12.06974
0
LINE
8
layer1
10
13.1685698
20
12.06974
11
13.2137186
21
12.0513623
0
LINE
8
layer1
10
13.2137186
20
12.0513623
11
13.2652879
21
12.0403102
0
LINE
8
layer1
10
13.2652879
20
12.0403102
11
13.3229736
21
12.0368312
0
LINE
8
layer1
10
13.3229736
20
12.0368312
11
13.386486
21
12.0411587
0
LINE
8
layer1
10
13.386486
20
12.0411587
11
13.4555279
21
12.0535614
0
LINE
8
layer1
10
13.4555279
20
12.0535614
11
13.5297741
21
12.0742372
0
LINE
8
layer1
10
13.5297741
20
12.0742372
11
13.6089205
21
12.1034336
0
LINE
8
layer1
10
13.6089205
20
12.1034336
11
13.6926208
21
12.1413558
0
LINE
8
layer1
10
13.6926208
20
12.1413558
11
13.8723815
21
12.2441408
0
LINE
8
layer1
10
13.8723815
20
12.2441408
11
14.0663408
21
12.3840914
0
LINE
8
layer1
10
14.0663408
20
12.3840914
11
14.1418881
21
12.4448884
0
LINE
8
layer1
10
14.1418881
20
12.4448884
11
14.2846106
21
12.5438127
0
LINE
8
layer1
10
14.2846106
20
12.5438127
11
14.5477391
21
12.6961518
0
LINE
8
layer1
10
14.5477391
20
12.6961518
11
14.7270544
21
12.7860604
0
LINE
8
layer1
10
14.7270544
20
12.7860604
11
14.9415198
21
12.8826087
0
LINE
8
layer1
10
14.9415198
20
12.8826087
11
15.1915882
21
12.9827846
0
LINE
8
layer1
10
15.1915882
20
12.9827846
11
15.4761209
21
13.0831159
0
LINE
8
layer1
10
15.4761209
20
13.0831159
11
15.7944462
21
13.1805977
0
LINE
8
layer1
10
15.7944462
20
13.1805977
11
16.150029
21
13.2734337
0
LINE
8
layer1
10
16.150029
20
13.2734337
11
16.5391993
21
13.3578128
0
LINE
8
layer1
10
16.5391993
20
13.3578128
11
16.9667939
21
13.4319671
0
LINE
8
layer1
10
16.9667939
20
13.4319671
11
17.381252
21
13.4866871
0
ARC
8
layer1
10
-0.0000244
20
-0.0000186
40
22
50
34.1909371
51
37.8090663
0
LINE
8
layer1
10
18.1977039
20
12.3629374
11
18.0175875
21
11.9856738
0
LINE
8
layer1
10
18.0175875
20
11.9856738
11
17.8149286
21
11.6019221
0
LINE
8
layer1
10
17.8149286
20
11.6019221
11
17.6144191
21
11.2578737
0
LINE
8
layer1
10
17.6144191
20
11.2578737
11
17.4162456
21
10.9483823
0
LINE
8
layer1
10
17.4162456
20
10.9483823
11
17.225167
21
10.6757604
0
LINE
8
layer1
10
17.225167
20
10.6757604
11
17.0418208
21
10.4361578
0
LINE
8
layer1
10
17.0418208
20
10.4361578
11
16.8692725
21
10.2292848
0
LINE
8
layer1
10
16.8692725
20
10.2292848
11
16.7111761
21
10.0551511
0
LINE
8
layer1
10
16.7111761
20
10.0551511
11
16.5702565
21
9.9123955
0
LINE
8
layer1
10
16.5702565
20
9.9123955
11
16.3440622
21
9.7092207
0
LINE
8
layer1
10
16.3440622
20
9.7092207
11
16.205876
21
9.6040528
0
LINE
8
layer1
10
16.205876
20
9.6040528
11
16.1247092
21
9.5509904
0
LINE
8
layer1
10
16.1247092
20
9.5509904
11
15.9316715
21
9.4097712
0
LINE
8
layer1
10
15.9316715
20
9.4097712
11
15.778368
21
9.2705709
0
LINE
8
layer1
10
15.778368
20
9.2705709
11
15.7164372
21
9.2026859
0
LINE
8
layer1
10
15.7164372
20
9.2026859
11
15.6642121
21
9.1364353
0
LINE
8
layer1
10
15.6642121
20
9.1364353
11
15.6216049
21
9.0722121
0
LINE
8
layer1
10
15.6216049
20
9.0722121
11
15.5884741
21
9.010382
0
LINE
8
layer1
10
15.5884741
20
9.010382
11
15.5647321
21
8.9513155
0
LINE
8
layer1
10
15.5647321
20
8.9513155
11
15.5502149
21
8.895378
0
LINE
8
layer1
10
15.5502149
20
8.895378
11
15.5447902
21
8.8429174
0
LINE
8
layer1
10
15.5447902
20
8.8429174
11
15.5483167
21
8.7942993
0
LINE
8
layer1
10
15.5483167
20
8.7942993
11
15.5606039
21
8.7498757
0
LINE
8
layer1
10
15.5606039
20
8.7498757
11
15.6195349
21
8.6402964
0
LINE
8
layer1
10
15.6195349
20
8.6402964
11
15.9044665
21
8.1037304
0
LINE
8
layer1
10
15.9044665
20
8.1037304
11
16.1710789
21
7.5578304
0
LINE
8
layer1
10
16.1710789
20
7.5578304
11
16.2250916
21
7.4457451
0
LINE
8
layer1
10
16.2250916
20
7.4457451
11
16.2538089
21
7.409693
0
LINE
8
layer1
10
16.2538089
20
7.409693
11
16.2910689
21
7.378263
0
LINE
8
layer1
10
16.2910689
20
7.378263
11
16.3366989
21
7.3518161
0
LINE
8
layer1
10
16.3366989
20
7.3518161
11
16.3904863
21
7.3306815
0
LINE
8
layer1
10
16.3904863
20
7.3306815
11
16.4522274
21
7.3151708
0
LINE
8
layer1
10
16.4522274
20
7.3151708
11
16.5217228
21
7.3056313
0
LINE
8
layer1
10
16.5217228
20
7.3056313
11
16.5987243
21
7.3023518
0
LINE
8
layer1
10
16.5987243
20
7.3023518
11
16.6830192
21
7.3056617
0
LINE
8
layer1
10
16.6830192
20
7.3056617
11
16.7743415
21
7.315863
0
LINE
8
layer1
10
16.7743415
20
7.315863
11
16.9770664
21
7.3580683
0
LINE
8
layer1
10
16.9770664
20
7.3580683
11
17.2047798
21
7.4312324
0
LINE
8
layer1
10
17.2047798
20
7.4312324
11
17.2954169
21
7.4657085
0
LINE
8
layer1
10
17.2954169
20
7.4657085
11
17.4617233
21
7.5156874
0
LINE
8
layer1
10
17.4617233
20
7.5156874
11
17.7590488
21
7.5792592
0
LINE
8
layer1
10
17.7590488
20
7.5792592
11
17.957371
21
7.609356
0
LINE
8
layer1
10
17.957371
20
7.609356
11
18.1911748
21
7.6349054
0
LINE
8
layer1
10
18.1911748
20
7.6349054
11
18.45996
21
7.6529029
0
LINE
8
layer1
10
18.45996
20
7.6529029
11
18.7615707
21
7.6603983
0
LINE
8
layer1
10
18.7615707
20
7.6603983
11
19.0944396
21
7.654741
0
LINE
8
layer1
10
19.0944396
20
7.654741
11
19.4613069
21
7.6331522
0
LINE
8
layer1
10
19.4613069
20
7.6331522
11
19.8575045
21
7.5931412
0
LINE
8
layer1
10
19.8575045
20
7.5931412
11
20.287086
21
7.5315322
0
LINE
8
layer1
10
20.287086
20
7.5315322
11
20.6981685
21
7.4554994
0
ARC
8
layer1
10
-0.0000291
20
-0.0000097
40
22
50
16.1909359
51
19.809065
0
LINE
8
layer1
10
21.1274026
20
6.1344524
11
20.8395208
21
5.8313124
0
ENDSEC
0
EOF