0
SECTION
2
HEADER
0
ENDSEC
0
SECTION
2
TABLES
0
TABLE
2
LTYPE
0
LTYPE
72
65
70
64
2
CONTINUOUS
3
______
73
0
40
0
0
ENDTAB
0
TABLE
2
LAYER
0
ENDTAB
0
ENDSEC
0
SECTION
2
ENTITIES
0
CIRCLE
8
0
10
0
20
0
40
1
0
CIRCLE
8
0
10
0
20
0
40
1
0
LINE
8
layer0
10
8.7159768
20
6.3779895
11
8.6379233
21
6.1150994
0
LINE
8
layer0
10
8.6379233
20
6.1150994
11
8.5539028
21
5.8701824
0
LINE
8
layer0
10
8.5539028
20
5.8701824
11
8.4651593
21
5.6429782
0
LINE
8
layer0
10
8.4651593
20
5.6429782
11
8.372732
21
5.4327371
0
LINE
8
layer0
10
8.372732
20
5.4327371
11
8.2781089
21
5.239873
0
LINE
8
layer0
10
8.2781089
20
5.239873
11
8.1828151
21
5.064611
0
LINE
8
layer0
10
8.1828151
20
5.064611
11
8.087678
21
4.9058476
0
LINE
8
layer0
10
8.087678
20
4.9058476
11
7.9939166
21
4.7633028
0
LINE
8
layer0
10
7.9939166
20
4.7633028
11
7.8174014
21
4.5279368
0
LINE
8
layer0
10
7.8174014
20
4.5279368
11
7.6601296
21
4.3510383
0
LINE
8
layer0
10
7.6601296
20
4.3510383
11
7.531455
21
4.2285735
0
LINE
8
layer0
10
7.531455
20
4.2285735
11
7.4613625
21
4.1710195
0
LINE
8
layer0
10
7.4613625
20
4.1710195
11
7.2520144
21
4.1062949
0
LINE
8
layer0
10
7.2520144
20
4.1062949
11
7.0552801
21
4.0298368
0
LINE
8
layer0
10
7.0552801
20
4.0298368
11
6.8777081
21
3.944763
0
LINE
8
layer0
10
6.8777081
20
3.944763
11
6.7196441
21
3.8525509
0
LINE
8
layer0
10
6.7196441
20
3.8525509
11
6.5813354
21
3.7546844
0
LINE
8
layer0
10
6.5813354
20
3.7546844
11
6.4629754
21
3.6526495
0
LINE
8
layer0
10
6.4629754
20
3.6526495
11
6.3646244
21
3.5479472
0
LINE
8
layer0
10
6.3646244
20
3.5479472
11
6.2862735
21
3.442064
0
LINE
8
layer0
10
6.2862735
20
3.442064
11
6.2278246
21
3.3364969
0
LINE
8
layer0
10
6.2278246
20
3.3364969
11
6.1890862
21
3.2327083
0
LINE
8
layer0
10
6.1890862
20
3.2327083
11
6.1697681
21
3.1321678
0
LINE
8
layer0
10
6.1697681
20
3.1321678
11
6.1695306
21
3.0363054
0
LINE
8
layer0
10
6.1695306
20
3.0363054
11
6.1879019
21
2.9465349
0
LINE
8
layer0
10
6.1879019
20
2.9465349
11
6.1994792
21
2.9147263
0
LINE
8
layer0
10
6.1994792
20
2.9147263
11
6.284247
21
2.7260074
0
LINE
8
layer0
10
6.284247
20
2.7260074
11
6.4368945
21
2.342838
0
LINE
8
layer0
10
6.4368945
20
2.342838
11
6.5662563
21
1.9511933
0
LINE
8
layer0
10
6.5662563
20
1.9511933
11
6.6226266
21
1.7521386
0
LINE
8
layer0
10
6.6226266
20
1.7521386
11
6.6342039
21
1.72033
0
LINE
8
layer0
10
6.6342039
20
1.72033
11
6.6778341
21
1.639753
0
LINE
8
layer0
10
6.6778341
20
1.639753
11
6.7396352
21
1.5664707
0
LINE
8
layer0
10
6.7396352
20
1.5664707
11
6.8190599
21
1.5018697
0
LINE
8
layer0
10
6.8190599
20
1.5018697
11
6.9154493
21
1.4472636
0
LINE
8
layer0
10
6.9154493
20
1.4472636
11
7.0280809
21
1.4039647
0
LINE
8
layer0
10
7.0280809
20
1.4039647
11
7.1561616
21
1.3732165
0
LINE
8
layer0
10
7.1561616
20
1.3732165
11
7.2988042
21
1.3562287
0
LINE
8
layer0
10
7.2988042
20
1.3562287
11
7.45506
21
1.3541457
0
LINE
8
layer0
10
7.45506
20
1.3541457
11
7.623918
21
1.3680788
0
LINE
8
layer0
10
7.623918
20
1.3680788
11
7.8042749
21
1.3990418
0
LINE
8
layer0
10
7.8042749
20
1.3990418
11
7.9949873
21
1.4480125
0
LINE
8
layer0
10
7.9949873
20
1.4480125
11
8.1948408
21
1.5159006
0
LINE
8
layer0
10
8.1948408
20
1.5159006
11
8.396815
21
1.600885
0
LINE
8
layer0
10
8.396815
20
1.600885
11
8.4875039
21
1.6018507
0
LINE
8
layer0
10
8.4875039
20
1.6018507
11
8.6647932
21
1.5907476
0
LINE
8
layer0
10
8.6647932
20
1.5907476
11
8.8989786
21
1.556328
0
LINE
8
layer0
10
8.8989786
20
1.556328
11
9.1854875
21
1.4894889
0
LINE
8
layer0
10
9.1854875
20
1.4894889
11
9.3489388
21
1.4405619
0
LINE
8
layer0
10
9.3489388
20
1.4405619
11
9.5238693
21
1.3800951
0
LINE
8
layer0
10
9.5238693
20
1.3800951
11
9.7095248
21
1.3070903
0
LINE
8
layer0
10
9.7095248
20
1.3070903
11
9.9059809
21
1.2201703
0
LINE
8
layer0
10
9.9059809
20
1.2201703
11
10.1119248
21
1.1185274
0
LINE
8
layer0
10
10.1119248
20
1.1185274
11
10.3259502
21
1.0015222
0
LINE
8
layer0
10
10.3259502
20
1.0015222
11
10.5477433
21
0.8679122
0
LINE
8
layer0
10
10.5477433
20
0.8679122
11
10.7765182
21
0.7166985
0
LINE
8
layer0
10
10.7765182
20
0.7166985
11
10.9853438
21
0.5660077
0
ARC
8
layer0
10
-0.0000845
20
0
40
11
50
357.0505286
51
362.9494709
0
LINE
8
layer0
10
10.9853438
20
-0.5660077
11
10.7765182
21
-0.7166985
0
LINE
8
layer0
10
10.7765182
20
-0.7166985
11
10.5477433
21
-0.8679122
0
LINE
8
layer0
10
10.5477433
20
-0.8679122
11
10.3259502
21
-1.0015222
0
LINE
8
layer0
10
10.3259502
20
-1.0015222
11
10.1119248
21
-1.1185274
0
LINE
8
layer0
10
10.1119248
20
-1.1185274
11
9.9059809
21
-1.2201703
0
LINE
8
layer0
10
9.9059809
20
-1.2201703
11
9.7095248
21
-1.3070903
0
LINE
8
layer0
10
9.7095248
20
-1.3070903
11
9.5238693
21
-1.3800951
0
LINE
8
layer0
10
9.5238693
20
-1.3800951
11
9.3489388
21
-1.4405619
0
LINE
8
layer0
10
9.3489388
20
-1.4405619
11
9.1854875
21
-1.4894889
0
LINE
8
layer0
10
9.1854875
20
-1.4894889
11
8.8989786
21
-1.556328
0
LINE
8
layer0
10
8.8989786
20
-1.556328
11
8.6647932
21
-1.5907476
0
LINE
8
layer0
10
8.6647932
20
-1.5907476
11
8.4875039
21
-1.6018507
0
LINE
8
layer0
10
8.4875039
20
-1.6018507
11
8.396815
21
-1.600885
0
LINE
8
layer0
10
8.396815
20
-1.600885
11
8.1948408
21
-1.5159006
0
LINE
8
layer0
10
8.1948408
20
-1.5159006
11
7.9949873
21
-1.4480125
0
LINE
8
layer0
10
7.9949873
20
-1.4480125
11
7.8042749
21
-1.3990418
0
LINE
8
layer0
10
7.8042749
20
-1.3990418
11
7.623918
21
-1.3680788
0
LINE
8
layer0
10
7.623918
20
-1.3680788
11
7.45506
21
-1.3541457
0
LINE
8
layer0
10
7.45506
20
-1.3541457
11
7.2988042
21
-1.3562287
0
LINE
8
layer0
10
7.2988042
20
-1.3562287
11
7.1561616
21
-1.3732165
0
LINE
8
layer0
10
7.1561616
20
-1.3732165
11
7.0280809
21
-1.4039647
0
LINE
8
layer0
10
7.0280809
20
-1.4039647
11
6.9154493
21
-1.4472636
0
LINE
8
layer0
10
6.9154493
20
-1.4472636
11
6.8190599
21
-1.5018697
0
LINE
8
layer0
10
6.8190599
20
-1.5018697
11
6.7396352
21
-1.5664707
0
LINE
8
layer0
10
6.7396352
20
-1.5664707
11
6.6778341
21
-1.639753
0
LINE
8
layer0
10
6.6778341
20
-1.639753
11
6.6342039
21
-1.72033
0
LINE
8
layer0
10
6.6342039
20
-1.72033
11
6.6226266
21
-1.7521386
0
LINE
8
layer0
10
6.6226266
20
-1.7521386
11
6.5662563
21
-1.9511933
0
LINE
8
layer0
10
6.5662563
20
-1.9511933
11
6.4368945
21
-2.342838
0
LINE
8
layer0
10
6.4368945
20
-2.342838
11
6.284247
21
-2.7260074
0
LINE
8
layer0
10
6.284247
20
-2.7260074
11
6.1994792
21
-2.9147263
0
LINE
8
layer0
10
6.1994792
20
-2.9147263
11
6.1879019
21
-2.9465349
0
LINE
8
layer0
10
6.1879019
20
-2.9465349
11
6.1695306
21
-3.0363054
0
LINE
8
layer0
10
6.1695306
20
-3.0363054
11
6.1697681
21
-3.1321678
0
LINE
8
layer0
10
6.1697681
20
-3.1321678
11
6.1890862
21
-3.2327083
0
LINE
8
layer0
10
6.1890862
20
-3.2327083
11
6.2278246
21
-3.3364969
0
LINE
8
layer0
10
6.2278246
20
-3.3364969
11
6.2862735
21
-3.442064
0
LINE
8
layer0
10
6.2862735
20
-3.442064
11
6.3646244
21
-3.5479472
0
LINE
8
layer0
10
6.3646244
20
-3.5479472
11
6.4629754
21
-3.6526495
0
LINE
8
layer0
10
6.4629754
20
-3.6526495
11
6.5813354
21
-3.7546844
0
LINE
8
layer0
10
6.5813354
20
-3.7546844
11
6.7196441
21
-3.8525509
0
LINE
8
layer0
10
6.7196441
20
-3.8525509
11
6.8777081
21
-3.944763
0
LINE
8
layer0
10
6.8777081
20
-3.944763
11
7.0552801
21
-4.0298368
0
LINE
8
layer0
10
7.0552801
20
-4.0298368
11
7.2520144
21
-4.1062949
0
LINE
8
layer0
10
7.2520144
20
-4.1062949
11
7.4613625
21
-4.1710195
0
LINE
8
layer0
10
7.4613625
20
-4.1710195
11
7.531455
21
-4.2285735
0
LINE
8
layer0
10
7.531455
20
-4.2285735
11
7.6601296
21
-4.3510383
0
LINE
8
layer0
10
7.6601296
20
-4.3510383
11
7.8174014
21
-4.5279368
0
LINE
8
layer0
10
7.8174014
20
-4.5279368
11
7.9939166
21
-4.7633028
0
LINE
8
layer0
10
7.9939166
20
-4.7633028
11
8.087678
21
-4.9058476
0
LINE
8
layer0
10
8.087678
20
-4.9058476
11
8.1828151
21
-5.064611
0
LINE
8
layer0
10
8.1828151
20
-5.064611
11
8.2781089
21
-5.239873
0
LINE
8
layer0
10
8.2781089
20
-5.239873
11
8.372732
21
-5.4327371
0
LINE
8
layer0
10
8.372732
20
-5.4327371
11
8.4651593
21
-5.6429782
0
LINE
8
layer0
10
8.4651593
20
-5.6429782
11
8.5539028
21
-5.8701824
0
LINE
8
layer0
10
8.5539028
20
-5.8701824
11
8.6379233
21
-6.1150994
0
LINE
8
layer0
10
8.6379233
20
-6.1150994
11
8.7159768
21
-6.3779895
0
LINE
8
layer0
10
8.7159768
20
-6.3779895
11
8.7790843
21
-6.6276558
0
ARC
8
layer0
10
-0.000065
20
0.000054
40
11
50
317.0505309
51
322.9494732
0
LINE
8
layer0
10
8.0514388
20
-7.49483
11
7.794607
21
-7.4760353
0
LINE
8
layer0
10
7.794607
20
-7.4760353
11
7.5221569
21
-7.444818
0
LINE
8
layer0
10
7.5221569
20
-7.444818
11
7.2663708
21
-7.4046034
0
LINE
8
layer0
10
7.2663708
20
-7.4046034
11
7.0272082
21
-7.3566617
0
LINE
8
layer0
10
7.0272082
20
-7.3566617
11
6.8041113
21
-7.3021465
0
LINE
8
layer0
10
6.8041113
20
-7.3021465
11
6.5977461
21
-7.2424515
0
LINE
8
layer0
10
6.5977461
20
-7.2424515
11
6.4085991
21
-7.1790393
0
LINE
8
layer0
10
6.4085991
20
-7.1790393
11
6.2357273
21
-7.1129165
0
LINE
8
layer0
10
6.2357273
20
-7.1129165
11
6.0790666
21
-7.0453322
0
LINE
8
layer0
10
6.0790666
20
-7.0453322
11
5.8166247
21
-6.9123696
0
LINE
8
layer0
10
5.8166247
20
-6.9123696
11
5.6151038
21
-6.7882051
0
LINE
8
layer0
10
5.6151038
20
-6.7882051
11
5.4721554
21
-6.6827512
0
LINE
8
layer0
10
5.4721554
20
-6.6827512
11
5.4033044
21
-6.6237177
0
LINE
8
layer0
10
5.4033044
20
-6.6237177
11
5.3032101
21
-6.4287894
0
LINE
8
layer0
10
5.3032101
20
-6.4287894
11
5.1937511
21
-6.2483207
0
LINE
8
layer0
10
5.1937511
20
-6.2483207
11
5.0791347
21
-6.0882194
0
LINE
8
layer0
10
5.0791347
20
-6.0882194
11
4.9608759
21
-5.9485692
0
LINE
8
layer0
10
4.9608759
20
-5.9485692
11
4.8404792
21
-5.829356
0
LINE
8
layer0
10
4.8404792
20
-5.829356
11
4.7194414
21
-5.7305124
0
LINE
8
layer0
10
4.7194414
20
-5.7305124
11
4.5992513
21
-5.6518369
0
LINE
8
layer0
10
4.5992513
20
-5.6518369
11
4.4813712
21
-5.5930627
0
LINE
8
layer0
10
4.4813712
20
-5.5930627
11
4.3672584
21
-5.5538334
0
LINE
8
layer0
10
4.3672584
20
-5.5538334
11
4.2583198
21
-5.5337062
0
LINE
8
layer0
10
4.2583198
20
-5.5337062
11
4.1559521
21
-5.5321402
0
LINE
8
layer0
10
4.1559521
20
-5.5321402
11
4.0615048
21
-5.5485527
0
LINE
8
layer0
10
4.0615048
20
-5.5485527
11
3.9762883
21
-5.5822333
0
LINE
8
layer0
10
3.9762883
20
-5.5822333
11
3.9469733
21
-5.5991583
0
LINE
8
layer0
10
3.9469733
20
-5.5991583
11
3.7758413
21
-5.715409
0
LINE
8
layer0
10
3.7758413
20
-5.715409
11
3.425
21
-5.932274
0
LINE
8
layer0
10
3.425
20
-5.932274
11
3.0617687
21
-6.127679
0
LINE
8
layer0
10
3.0617687
20
-6.127679
11
2.8755267
21
-6.2177583
0
LINE
8
layer0
10
2.8755267
20
-6.2177583
11
2.8462117
21
-6.2346833
0
LINE
8
layer0
10
2.8462117
20
-6.2346833
11
2.7744352
21
-6.2916427
0
LINE
8
layer0
10
2.7744352
20
-6.2916427
11
2.7129979
21
-6.3652302
0
LINE
8
layer0
10
2.7129979
20
-6.3652302
11
2.6631702
21
-6.4546662
0
LINE
8
layer0
10
2.6631702
20
-6.4546662
11
2.6261316
21
-6.5590734
0
LINE
8
layer0
10
2.6261316
20
-6.5590734
11
2.6030488
21
-6.6775127
0
LINE
8
layer0
10
2.6030488
20
-6.6775127
11
2.5950087
21
-6.8089869
0
LINE
8
layer0
10
2.5950087
20
-6.8089869
11
2.6030486
21
-6.9524124
0
LINE
8
layer0
10
2.6030486
20
-6.9524124
11
2.6281308
21
-7.106656
0
LINE
8
layer0
10
2.6281308
20
-7.106656
11
2.6711741
21
-7.2705292
0
LINE
8
layer0
10
2.6711741
20
-7.2705292
11
2.7329853
21
-7.4427694
0
LINE
8
layer0
10
2.7329853
20
-7.4427694
11
2.8143289
21
-7.6220807
0
LINE
8
layer0
10
2.8143289
20
-7.6220807
11
2.9158899
21
-7.8071094
0
LINE
8
layer0
10
2.9158899
20
-7.8071094
11
3.0346556
21
-7.9912577
0
LINE
8
layer0
10
3.0346556
20
-7.9912577
11
3.0513546
21
-8.0804012
0
LINE
8
layer0
10
3.0513546
20
-8.0804012
11
3.0712062
21
-8.2569251
0
LINE
8
layer0
10
3.0712062
20
-8.2569251
11
3.0779753
21
-8.4935296
0
LINE
8
layer0
10
3.0779753
20
-8.4935296
11
3.0619034
21
-8.7872922
0
LINE
8
layer0
10
3.0619034
20
-8.7872922
11
3.0421027
21
-8.9567565
0
LINE
8
layer0
10
3.0421027
20
-8.9567565
11
3.0129309
21
-9.1395293
0
LINE
8
layer0
10
3.0129309
20
-9.1395293
11
2.9732739
21
-9.3350415
0
LINE
8
layer0
10
2.9732739
20
-9.3350415
11
2.9217887
21
-9.5436065
0
LINE
8
layer0
10
2.9217887
20
-9.5436065
11
2.8574518
21
-9.7640717
0
LINE
8
layer0
10
2.8574518
20
-9.7640717
11
2.7793892
21
-9.9951634
0
LINE
8
layer0
10
2.7793892
20
-9.9951634
11
2.6863231
21
-10.236788
0
LINE
8
layer0
10
2.6863231
20
-10.236788
11
2.577133
21
-10.4883453
0
LINE
8
layer0
10
2.577133
20
-10.4883453
11
2.4649937
21
-10.7201656
0
ARC
8
layer0
10
-0.0000145
20
0.0000832
40
11
50
277.0505279
51
282.94947
0
LINE
8
layer0
10
1.3501761
20
-10.916738
11
1.1655125
21
-10.7372521
0
LINE
8
layer0
10
1.1655125
20
-10.7372521
11
0.9768698
21
-10.5382108
0
LINE
8
layer0
10
0.9768698
20
-10.5382108
11
0.8067757
21
-10.3429884
0
LINE
8
layer0
10
0.8067757
20
-10.3429884
11
0.6543828
21
-10.1525322
0
LINE
8
layer0
10
0.6543828
20
-10.1525322
11
0.5185224
21
-9.9673672
0
LINE
8
layer0
10
0.5185224
20
-9.9673672
11
0.3988087
21
-9.7889891
0
LINE
8
layer0
10
0.3988087
20
-9.7889891
11
0.2946742
21
-9.6188313
0
LINE
8
layer0
10
0.2946742
20
-9.6188313
11
0.2047497
21
-9.4570584
0
LINE
8
layer0
10
0.2047497
20
-9.4570584
11
0.1281829
21
-9.3045863
0
LINE
8
layer0
10
0.1281829
20
-9.3045863
11
0.0126075
21
-9.0340366
0
LINE
8
layer0
10
0.0126075
20
-9.0340366
11
-0.0619551
21
-8.809386
0
LINE
8
layer0
10
-0.0619551
20
-8.809386
11
-0.1036754
21
-8.6367181
0
LINE
8
layer0
10
-0.1036754
20
-8.6367181
11
-0.1184724
21
-8.5472393
0
LINE
8
layer0
10
-0.1184724
20
-8.5472393
11
-0.0698515
21
-8.3335762
0
LINE
8
layer0
10
-0.0698515
20
-8.3335762
11
-0.037699
21
-8.1249702
0
LINE
8
layer0
10
-0.037699
20
-8.1249702
11
-0.0225891
21
-7.9286515
0
LINE
8
layer0
10
-0.0225891
20
-7.9286515
11
-0.0234151
21
-7.745658
0
LINE
8
layer0
10
-0.0234151
20
-7.745658
11
-0.0390156
21
-7.5769458
0
LINE
8
layer0
10
-0.0390156
20
-7.5769458
11
-0.0682005
21
-7.4234256
0
LINE
8
layer0
10
-0.0682005
20
-7.4234256
11
-0.1096998
21
-7.2859
0
LINE
8
layer0
10
-0.1096998
20
-7.2859
11
-0.1622219
21
-7.1651045
0
LINE
8
layer0
10
-0.1622219
20
-7.1651045
11
-0.2244213
21
-7.0617028
0
LINE
8
layer0
10
-0.2244213
20
-7.0617028
11
-0.2949356
21
-6.97626
0
LINE
8
layer0
10
-0.2949356
20
-6.97626
11
-0.3723472
21
-6.9092598
0
LINE
8
layer0
10
-0.3723472
20
-6.9092598
11
-0.4552477
21
-6.8611229
0
LINE
8
layer0
10
-0.4552477
20
-6.8611229
11
-0.5421769
21
-6.8321476
0
LINE
8
layer0
10
-0.5421769
20
-6.8321476
11
-0.5755126
21
-6.8262697
0
LINE
8
layer0
10
-0.5755126
20
-6.8262697
11
-0.7813318
21
-6.8053213
0
LINE
8
layer0
10
-0.7813318
20
-6.8053213
11
-1.18949
21
-6.7459331
0
LINE
8
layer0
10
-1.18949
20
-6.7459331
11
-1.5933452
21
-6.6621414
0
LINE
8
layer0
10
-1.5933452
20
-6.6621414
11
-1.7939168
21
-6.6114321
0
LINE
8
layer0
10
-1.7939168
20
-6.6114321
11
-1.8272525
21
-6.6055541
0
LINE
8
layer0
10
-1.8272525
20
-6.6055541
11
-1.9188493
21
-6.6030505
0
LINE
8
layer0
10
-1.9188493
20
-6.6030505
11
-2.0132141
21
-6.6199307
0
LINE
8
layer0
10
-2.0132141
20
-6.6199307
11
-2.1088727
21
-6.656414
0
LINE
8
layer0
10
-2.1088727
20
-6.656414
11
-2.2043576
21
-6.7125866
0
LINE
8
layer0
10
-2.2043576
20
-6.7125866
11
-2.2981714
21
-6.788479
0
LINE
8
layer0
10
-2.2981714
20
-6.788479
11
-2.3888404
21
-6.884026
0
LINE
8
layer0
10
-2.3888404
20
-6.884026
11
-2.4748736
21
-6.9990642
0
LINE
8
layer0
10
-2.4748736
20
-6.9990642
11
-2.5548055
21
-7.1333442
0
LINE
8
layer0
10
-2.5548055
20
-7.1333442
11
-2.627168
21
-7.2865461
0
LINE
8
layer0
10
-2.627168
20
-7.2865461
11
-2.6905317
21
-7.4582212
0
LINE
8
layer0
10
-2.6905317
20
-7.4582212
11
-2.743478
21
-7.6478684
0
LINE
8
layer0
10
-2.743478
20
-7.6478684
11
-2.784612
21
-7.8548906
0
LINE
8
layer0
10
-2.784612
20
-7.8548906
11
-2.8120004
21
-8.0722976
0
LINE
8
layer0
10
-2.8120004
20
-8.0722976
11
-2.8565085
21
-8.1513194
0
LINE
8
layer0
10
-2.8565085
20
-8.1513194
11
-2.9547687
21
-8.2993049
0
LINE
8
layer0
10
-2.9547687
20
-8.2993049
11
-3.1016697
21
-8.4849055
0
LINE
8
layer0
10
-3.1016697
20
-8.4849055
11
-3.3028085
21
-8.6996099
0
LINE
8
layer0
10
-3.3028085
20
-8.6996099
11
-3.4269062
21
-8.8166995
0
LINE
8
layer0
10
-3.4269062
20
-8.8166995
11
-3.5667373
21
-8.9379603
0
LINE
8
layer0
10
-3.5667373
20
-8.9379603
11
-3.722789
21
-9.0622403
0
LINE
8
layer0
10
-3.722789
20
-9.0622403
11
-3.896292
21
-9.1889163
0
LINE
8
layer0
10
-3.896292
20
-9.1889163
11
-4.0872892
21
-9.3164474
0
LINE
8
layer0
10
-4.0872892
20
-9.3164474
11
-4.2956315
21
-9.4432963
0
LINE
8
layer0
10
-4.2956315
20
-9.4432963
11
-4.5222377
21
-9.5685697
0
LINE
8
layer0
10
-4.5222377
20
-9.5685697
11
-4.76758
21
-9.6910878
0
LINE
8
layer0
10
-4.76758
20
-9.6910878
11
-5.0024948
21
-9.7965907
0
ARC
8
layer0
10
0.0000423
20
0.0000732
40
11
50
237.0505293
51
242.9494711
0
LINE
8
layer0
10
-5.982849
20
-9.230583
11
-6.0089382
21
-8.9743893
0
LINE
8
layer0
10
-6.0089382
20
-8.9743893
11
-6.0255057
21
-8.7006576
0
LINE
8
layer0
10
-6.0255057
20
-8.7006576
11
-6.0303188
21
-8.4417742
0
LINE
8
layer0
10
-6.0303188
20
-8.4417742
11
-6.0246355
21
-8.19792
0
LINE
8
layer0
10
-6.0246355
20
-8.19792
11
-6.0096889
21
-7.968746
0
LINE
8
layer0
10
-6.0096889
20
-7.968746
11
-5.9867358
21
-7.75515
0
LINE
8
layer0
10
-5.9867358
20
-7.75515
11
-5.957132
21
-7.5578652
0
LINE
8
layer0
10
-5.957132
20
-7.5578652
11
-5.9220326
21
-7.3761376
0
LINE
8
layer0
10
-5.9220326
20
-7.3761376
11
-5.882679
21
-7.210121
0
LINE
8
layer0
10
-5.882679
20
-7.210121
11
-5.7973088
21
-6.9285775
0
LINE
8
layer0
10
-5.7973088
20
-6.9285775
11
-5.7100245
21
-6.7085572
0
LINE
8
layer0
10
-5.7100245
20
-6.7085572
11
-5.6309954
21
-6.5494686
0
LINE
8
layer0
10
-5.6309954
20
-6.5494686
11
-5.5848146
21
-6.4714126
0
LINE
8
layer0
10
-5.5848146
20
-6.4714126
11
-5.4102289
21
-6.33899
0
LINE
8
layer0
10
-5.4102289
20
-6.33899
11
-5.2515093
21
-6.1998558
0
LINE
8
layer0
10
-5.2515093
20
-6.1998558
11
-5.1137432
21
-6.0591794
0
LINE
8
layer0
10
-5.1137432
20
-6.0591794
11
-4.99675
21
-5.9184673
0
LINE
8
layer0
10
-4.99675
20
-5.9184673
11
-4.9002546
21
-5.7791985
0
LINE
8
layer0
10
-4.9002546
20
-5.7791985
11
-4.8239306
21
-5.6428355
0
LINE
8
layer0
10
-4.8239306
20
-5.6428355
11
-4.7673212
21
-5.5108095
0
LINE
8
layer0
10
-4.7673212
20
-5.5108095
11
-4.7299096
21
-5.3845143
0
LINE
8
layer0
10
-4.7299096
20
-5.3845143
11
-4.7110917
21
-5.265323
0
LINE
8
layer0
10
-4.7110917
20
-5.265323
11
-4.7101873
21
-5.1545443
0
LINE
8
layer0
10
-4.7101873
20
-5.1545443
11
-4.726421
21
-5.0534599
0
LINE
8
layer0
10
-4.726421
20
-5.0534599
11
-4.7589848
21
-4.9632975
0
LINE
8
layer0
10
-4.7589848
20
-4.9632975
11
-4.8069514
21
-4.8852242
0
LINE
8
layer0
10
-4.8069514
20
-4.8852242
11
-4.8287098
21
-4.8592936
0
LINE
8
layer0
10
-4.8287098
20
-4.8592936
11
-4.9729111
21
-4.7109481
0
LINE
8
layer0
10
-4.9729111
20
-4.7109481
11
-5.2474044
21
-4.4030951
0
LINE
8
layer0
10
-5.2474044
20
-4.4030951
11
-5.5029152
21
-4.0793138
0
LINE
8
layer0
10
-5.5029152
20
-4.0793138
11
-5.6239666
21
-3.9115434
0
LINE
8
layer0
10
-5.6239666
20
-3.9115434
11
-5.645725
21
-3.8856128
0
LINE
8
layer0
10
-5.645725
20
-3.8856128
11
-5.7142829
21
-3.8248176
0
LINE
8
layer0
10
-5.7142829
20
-3.8248176
11
-5.7974209
21
-3.777092
0
LINE
8
layer0
10
-5.7974209
20
-3.777092
11
-5.8941506
21
-3.7435517
0
LINE
8
layer0
10
-5.8941506
20
-3.7435517
11
-6.0034034
21
-3.7252059
0
LINE
8
layer0
10
-6.0034034
20
-3.7252059
11
-6.1240516
21
-3.7230405
0
LINE
8
layer0
10
-6.1240516
20
-3.7230405
11
-6.2549246
21
-3.7379529
0
LINE
8
layer0
10
-6.2549246
20
-3.7379529
11
-6.394775
21
-3.7707761
0
LINE
8
layer0
10
-6.394775
20
-3.7707761
11
-6.5423198
21
-3.8222614
0
LINE
8
layer0
10
-6.5423198
20
-3.8222614
11
-6.696229
21
-3.8931071
0
LINE
8
layer0
10
-6.696229
20
-3.8931071
11
-6.8551191
21
-3.9838884
0
LINE
8
layer0
10
-6.8551191
20
-3.9838884
11
-7.0175811
21
-4.0951334
0
LINE
8
layer0
10
-7.0175811
20
-4.0951334
11
-7.1821629
21
-4.2272813
0
LINE
8
layer0
10
-7.1821629
20
-4.2272813
11
-7.3428901
21
-4.3762197
0
LINE
8
layer0
10
-7.3428901
20
-4.3762197
11
-7.4277796
21
-4.4081446
0
LINE
8
layer0
10
-7.4277796
20
-4.4081446
11
-7.5981745
21
-4.4583476
0
LINE
8
layer0
10
-7.5981745
20
-4.4583476
11
-7.830009
21
-4.5060998
0
LINE
8
layer0
10
-7.830009
20
-4.5060998
11
-8.1220996
21
-4.5412835
0
LINE
8
layer0
10
-8.1220996
20
-4.5412835
11
-8.2924276
21
-4.5512108
0
LINE
8
layer0
10
-8.2924276
20
-4.5512108
11
-8.4774894
21
-4.5542203
0
LINE
8
layer0
10
-8.4774894
20
-4.5542203
11
-8.6769176
21
-4.5491161
0
LINE
8
layer0
10
-8.6769176
20
-4.5491161
11
-8.8912544
21
-4.53463
0
LINE
8
layer0
10
-8.8912544
20
-4.53463
11
-9.1195422
21
-4.5095539
0
LINE
8
layer0
10
-9.1195422
20
-4.5095539
11
-9.3606785
21
-4.472806
0
LINE
8
layer0
10
-9.3606785
20
-4.472806
11
-9.6147931
21
-4.4231114
0
LINE
8
layer0
10
-9.6147931
20
-4.4231114
11
-9.8814893
21
-4.3592626
0
LINE
8
layer0
10
-9.8814893
20
-4.3592626
11
-10.1292605
21
-4.2890822
0
ARC
8
layer0
10
0.0000794
20
0.0000289
40
11
50
197.050529
51
202.9494712
0
LINE
8
layer0
10
-10.5164326
20
-3.2253356
11
-10.37174
21
-3.01231
0
LINE
8
layer0
10
-10.37174
20
-3.01231
11
-10.20848
21
-2.79197
0
LINE
8
layer0
10
-10.20848
20
-2.79197
11
-10.04576
21
-2.59056
0
LINE
8
layer0
10
-10.04576
20
-2.59056
11
-9.88466
21
-2.40741
0
LINE
8
layer0
10
-9.88466
20
-2.40741
11
-9.7259
21
-2.24146
0
LINE
8
layer0
10
-9.7259
20
-2.24146
11
-9.57102
21
-2.09259
0
LINE
8
layer0
10
-9.57102
20
-2.09259
11
-9.42153
21
-1.96049
0
LINE
8
layer0
10
-9.42153
20
-1.96049
11
-9.27783
21
-1.84384
0
LINE
8
layer0
10
-9.27783
20
-1.84384
11
-9.14097
21
-1.74196
0
LINE
8
layer0
10
-9.14097
20
-1.74196
11
-8.8946
21
-1.58116
0
LINE
8
layer0
10
-8.8946
20
-1.58116
11
-8.68631
21
-1.46872
0
LINE
8
layer0
10
-8.68631
20
-1.46872
11
-8.52351
21
-1.39765
0
LINE
8
layer0
10
-8.52351
20
-1.39765
11
-8.43796
21
-1.36754
0
LINE
8
layer0
10
-8.43796
20
-1.36754
11
-8.2191
21
-1.37832
0
LINE
8
layer0
10
-8.2191
20
-1.37832
11
-8.00808
21
-1.37376
0
LINE
8
layer0
10
-8.00808
20
-1.37376
11
-7.81212
21
-1.35455
0
LINE
8
layer0
10
-7.81212
20
-1.35455
11
-7.63205
21
-1.32196
0
LINE
8
layer0
10
-7.63205
20
-1.32196
11
-7.46861
21
-1.2773
0
LINE
8
layer0
10
-7.46861
20
-1.2773
11
-7.32249
21
-1.2219
0
LINE
8
layer0
10
-7.32249
20
-1.2219
11
-7.19426
21
-1.15715
0
LINE
8
layer0
10
-7.19426
20
-1.15715
11
-7.08442
21
-1.08445
0
LINE
8
layer0
10
-7.08442
20
-1.08445
11
-6.99339
21
-1.00524
0
LINE
8
layer0
10
-6.99339
20
-1.00524
11
-6.92149
21
-0.92096
0
LINE
8
layer0
10
-6.92149
20
-0.92096
11
-6.86895
21
-0.83309
0
LINE
8
layer0
10
-6.86895
20
-0.83309
11
-6.83594
21
-0.74309
0
LINE
8
layer0
10
-6.83594
20
-0.74309
11
-6.8225
21
-0.65245
0
LINE
8
layer0
10
-6.8225
20
-0.65245
11
-6.8225
21
-0.6186
0
LINE
8
layer0
10
-6.8225
20
-0.6186
11
-6.83761
21
-0.41227
0
LINE
8
layer0
10
-6.83761
20
-0.41227
11
-6.85
21
0
0
LINE
8
layer0
10
-6.85
20
0
11
-6.83761
21
0.41227
0
LINE
8
layer0
10
-6.83761
20
0.41227
11
-6.8225
21
0.6186
0
LINE
8
layer0
10
-6.8225
20
0.6186
11
-6.8225
21
0.65245
0
LINE
8
layer0
10
-6.8225
20
0.65245
11
-6.83594
21
0.74309
0
LINE
8
layer0
10
-6.83594
20
0.74309
11
-6.86895
21
0.83309
0
LINE
8
layer0
10
-6.86895
20
0.83309
11
-6.92149
21
0.92096
0
LINE
8
layer0
10
-6.92149
20
0.92096
11
-6.99339
21
1.00524
0
LINE
8
layer0
10
-6.99339
20
1.00524
11
-7.08442
21
1.08445
0
LINE
8
layer0
10
-7.08442
20
1.08445
11
-7.19426
21
1.15715
0
LINE
8
layer0
10
-7.19426
20
1.15715
11
-7.32249
21
1.2219
0
LINE
8
layer0
10
-7.32249
20
1.2219
11
-7.46861
21
1.2773
0
LINE
8
layer0
10
-7.46861
20
1.2773
11
-7.63205
21
1.32196
0
LINE
8
layer0
10
-7.63205
20
1.32196
11
-7.81212
21
1.35455
0
LINE
8
layer0
10
-7.81212
20
1.35455
11
-8.00808
21
1.37376
0
LINE
8
layer0
10
-8.00808
20
1.37376
11
-8.2191
21
1.37832
0
LINE
8
layer0
10
-8.2191
20
1.37832
11
-8.43796
21
1.36754
0
LINE
8
layer0
10
-8.43796
20
1.36754
11
-8.52351
21
1.39765
0
LINE
8
layer0
10
-8.52351
20
1.39765
11
-8.68631
21
1.46872
0
LINE
8
layer0
10
-8.68631
20
1.46872
11
-8.8946
21
1.58116
0
LINE
8
layer0
10
-8.8946
20
1.58116
11
-9.14097
21
1.74196
0
LINE
8
layer0
10
-9.14097
20
1.74196
11
-9.27783
21
1.84384
0
LINE
8
layer0
10
-9.27783
20
1.84384
11
-9.42153
21
1.96049
0
LINE
8
layer0
10
-9.42153
20
1.96049
11
-9.57102
21
2.09259
0
LINE
8
layer0
10
-9.57102
20
2.09259
11
-9.7259
21
2.24146
0
LINE
8
layer0
10
-9.7259
20
2.24146
11
-9.88466
21
2.40741
0
LINE
8
layer0
10
-9.88466
20
2.40741
11
-10.04576
21
2.59056
0
LINE
8
layer0
10
-10.04576
20
2.59056
11
-10.20848
21
2.79197
0
LINE
8
layer0
10
-10.20848
20
2.79197
11
-10.37174
21
3.01231
0
LINE
8
layer0
10
-10.37174
20
3.01231
11
-10.5164326
21
3.2253356
0
ARC
8
layer0
10
0.0000794
20
-0.0000289
40
11
50
157.0505288
51
162.949471
0
LINE
8
layer0
10
-10.1292605
20
4.2890822
11
-9.8814893
21
4.3592626
0
LINE
8
layer0
10
-9.8814893
20
4.3592626
11
-9.6147931
21
4.4231114
0
LINE
8
layer0
10
-9.6147931
20
4.4231114
11
-9.3606785
21
4.472806
0
LINE
8
layer0
10
-9.3606785
20
4.472806
11
-9.1195422
21
4.5095539
0
LINE
8
layer0
10
-9.1195422
20
4.5095539
11
-8.8912544
21
4.53463
0
LINE
8
layer0
10
-8.8912544
20
4.53463
11
-8.6769176
21
4.5491161
0
LINE
8
layer0
10
-8.6769176
20
4.5491161
11
-8.4774894
21
4.5542203
0
LINE
8
layer0
10
-8.4774894
20
4.5542203
11
-8.2924276
21
4.5512108
0
LINE
8
layer0
10
-8.2924276
20
4.5512108
11
-8.1220996
21
4.5412835
0
LINE
8
layer0
10
-8.1220996
20
4.5412835
11
-7.830009
21
4.5060998
0
LINE
8
layer0
10
-7.830009
20
4.5060998
11
-7.5981745
21
4.4583476
0
LINE
8
layer0
10
-7.5981745
20
4.4583476
11
-7.4277796
21
4.4081446
0
LINE
8
layer0
10
-7.4277796
20
4.4081446
11
-7.3428901
21
4.3762197
0
LINE
8
layer0
10
-7.3428901
20
4.3762197
11
-7.1821629
21
4.2272813
0
LINE
8
layer0
10
-7.1821629
20
4.2272813
11
-7.0175811
21
4.0951334
0
LINE
8
layer0
10
-7.0175811
20
4.0951334
11
-6.8551191
21
3.9838884
0
LINE
8
layer0
10
-6.8551191
20
3.9838884
11
-6.696229
21
3.8931071
0
LINE
8
layer0
10
-6.696229
20
3.8931071
11
-6.5423198
21
3.8222614
0
LINE
8
layer0
10
-6.5423198
20
3.8222614
11
-6.394775
21
3.7707761
0
LINE
8
layer0
10
-6.394775
20
3.7707761
11
-6.2549246
21
3.7379529
0
LINE
8
layer0
10
-6.2549246
20
3.7379529
11
-6.1240516
21
3.7230405
0
LINE
8
layer0
10
-6.1240516
20
3.7230405
11
-6.0034034
21
3.7252059
0
LINE
8
layer0
10
-6.0034034
20
3.7252059
11
-5.8941506
21
3.7435517
0
LINE
8
layer0
10
-5.8941506
20
3.7435517
11
-5.7974209
21
3.777092
0
LINE
8
layer0
10
-5.7974209
20
3.777092
11
-5.7142829
21
3.8248176
0
LINE
8
layer0
10
-5.7142829
20
3.8248176
11
-5.645725
21
3.8856128
0
LINE
8
layer0
10
-5.645725
20
3.8856128
11
-5.6239666
21
3.9115434
0
LINE
8
layer0
10
-5.6239666
20
3.9115434
11
-5.5029152
21
4.0793138
0
LINE
8
layer0
10
-5.5029152
20
4.0793138
11
-5.2474044
21
4.4030951
0
LINE
8
layer0
10
-5.2474044
20
4.4030951
11
-4.9729111
21
4.7109481
0
LINE
8
layer0
10
-4.9729111
20
4.7109481
11
-4.8287098
21
4.8592936
0
LINE
8
layer0
10
-4.8287098
20
4.8592936
11
-4.8069514
21
4.8852242
0
LINE
8
layer0
10
-4.8069514
20
4.8852242
11
-4.7589848
21
4.9632975
0
LINE
8
layer0
10
-4.7589848
20
4.9632975
11
-4.726421
21
5.0534599
0
LINE
8
layer0
10
-4.726421
20
5.0534599
11
-4.7101873
21
5.1545443
0
LINE
8
layer0
10
-4.7101873
20
5.1545443
11
-4.7110917
21
5.265323
0
LINE
8
layer0
10
-4.7110917
20
5.265323
11
-4.7299096
21
5.3845143
0
LINE
8
layer0
10
-4.7299096
20
5.3845143
11
-4.7673212
21
5.5108095
0
LINE
8
layer0
10
-4.7673212
20
5.5108095
11
-4.8239306
21
5.6428355
0
LINE
8
layer0
10
-4.8239306
20
5.6428355
11
-4.9002546
21
5.7791985
0
LINE
8
layer0
10
-4.9002546
20
5.7791985
11
-4.99675
21
5.9184673
0
LINE
8
layer0
10
-4.99675
20
5.9184673
11
-5.1137432
21
6.0591794
0
LINE
8
layer0
10
-5.1137432
20
6.0591794
11
-5.2515093
21
6.1998558
0
LINE
8
layer0
10
-5.2515093
20
6.1998558
11
-5.4102289
21
6.33899
0
LINE
8
layer0
10
-5.4102289
20
6.33899
11
-5.5848146
21
6.4714126
0
LINE
8
layer0
10
-5.5848146
20
6.4714126
11
-5.6309954
21
6.5494686
0
LINE
8
layer0
10
-5.6309954
20
6.5494686
11
-5.7100245
21
6.7085572
0
LINE
8
layer0
10
-5.7100245
20
6.7085572
11
-5.7973088
21
6.9285775
0
LINE
8
layer0
10
-5.7973088
20
6.9285775
11
-5.882679
21
7.210121
0
LINE
8
layer0
10
-5.882679
20
7.210121
11
-5.9220326
21
7.3761376
0
LINE
8
layer0
10
-5.9220326
20
7.3761376
11
-5.957132
21
7.5578652
0
LINE
8
layer0
10
-5.957132
20
7.5578652
11
-5.9867358
21
7.75515
0
LINE
8
layer0
10
-5.9867358
20
7.75515
11
-6.0096889
21
7.968746
0
LINE
8
layer0
10
-6.0096889
20
7.968746
11
-6.0246355
21
8.19792
0
LINE
8
layer0
10
-6.0246355
20
8.19792
11
-6.0303188
21
8.4417742
0
LINE
8
layer0
10
-6.0303188
20
8.4417742
11
-6.0255057
21
8.7006576
0
LINE
8
layer0
10
-6.0255057
20
8.7006576
11
-6.0089382
21
8.9743893
0
LINE
8
layer0
10
-6.0089382
20
8.9743893
11
-5.982849
21
9.230583
0
ARC
8
layer0
10
0.0000422
20
-0.0000732
40
11
50
117.0505289
51
122.9494707
0
LINE
8
layer0
10
-5.0024948
20
9.7965907
11
-4.76758
21
9.6910878
0
LINE
8
layer0
10
-4.76758
20
9.6910878
11
-4.5222377
21
9.5685697
0
LINE
8
layer0
10
-4.5222377
20
9.5685697
11
-4.2956315
21
9.4432963
0
LINE
8
layer0
10
-4.2956315
20
9.4432963
11
-4.0872892
21
9.3164474
0
LINE
8
layer0
10
-4.0872892
20
9.3164474
11
-3.896292
21
9.1889163
0
LINE
8
layer0
10
-3.896292
20
9.1889163
11
-3.722789
21
9.0622403
0
LINE
8
layer0
10
-3.722789
20
9.0622403
11
-3.5667373
21
8.9379603
0
LINE
8
layer0
10
-3.5667373
20
8.9379603
11
-3.4269062
21
8.8166995
0
LINE
8
layer0
10
-3.4269062
20
8.8166995
11
-3.3028085
21
8.6996099
0
LINE
8
layer0
10
-3.3028085
20
8.6996099
11
-3.1016697
21
8.4849055
0
LINE
8
layer0
10
-3.1016697
20
8.4849055
11
-2.9547687
21
8.2993049
0
LINE
8
layer0
10
-2.9547687
20
8.2993049
11
-2.8565085
21
8.1513194
0
LINE
8
layer0
10
-2.8565085
20
8.1513194
11
-2.8120004
21
8.0722976
0
LINE
8
layer0
10
-2.8120004
20
8.0722976
11
-2.784612
21
7.8548906
0
LINE
8
layer0
10
-2.784612
20
7.8548906
11
-2.743478
21
7.6478684
0
LINE
8
layer0
10
-2.743478
20
7.6478684
11
-2.6905317
21
7.4582212
0
LINE
8
layer0
10
-2.6905317
20
7.4582212
11
-2.627168
21
7.2865461
0
LINE
8
layer0
10
-2.627168
20
7.2865461
11
-2.5548055
21
7.1333442
0
LINE
8
layer0
10
-2.5548055
20
7.1333442
11
-2.4748736
21
6.9990642
0
LINE
8
layer0
10
-2.4748736
20
6.9990642
11
-2.3888404
21
6.884026
0
LINE
8
layer0
10
-2.3888404
20
6.884026
11
-2.2981714
21
6.788479
0
LINE
8
layer0
10
-2.2981714
20
6.788479
11
-2.2043576
21
6.7125866
0
LINE
8
layer0
10
-2.2043576
20
6.7125866
11
-2.1088727
21
6.656414
0
LINE
8
layer0
10
-2.1088727
20
6.656414
11
-2.0132141
21
6.6199307
0
LINE
8
layer0
10
-2.0132141
20
6.6199307
11
-1.9188493
21
6.6030505
0
LINE
8
layer0
10
-1.9188493
20
6.6030505
11
-1.8272525
21
6.6055541
0
LINE
8
layer0
10
-1.8272525
20
6.6055541
11
-1.7939168
21
6.6114321
0
LINE
8
layer0
10
-1.7939168
20
6.6114321
11
-1.5933452
21
6.6621414
0
LINE
8
layer0
10
-1.5933452
20
6.6621414
11
-1.18949
21
6.7459331
0
LINE
8
layer0
10
-1.18949
20
6.7459331
11
-0.7813318
21
6.8053213
0
LINE
8
layer0
10
-0.7813318
20
6.8053213
11
-0.5755126
21
6.8262697
0
LINE
8
layer0
10
-0.5755126
20
6.8262697
11
-0.5421769
21
6.8321476
0
LINE
8
layer0
10
-0.5421769
20
6.8321476
11
-0.4552477
21
6.8611229
0
LINE
8
layer0
10
-0.4552477
20
6.8611229
11
-0.3723472
21
6.9092598
0
LINE
8
layer0
10
-0.3723472
20
6.9092598
11
-0.2949356
21
6.97626
0
LINE
8
layer0
10
-0.2949356
20
6.97626
11
-0.2244213
21
7.0617028
0
LINE
8
layer0
10
-0.2244213
20
7.0617028
11
-0.1622219
21
7.1651045
0
LINE
8
layer0
10
-0.1622219
20
7.1651045
11
-0.1096998
21
7.2859
0
LINE
8
layer0
10
-0.1096998
20
7.2859
11
-0.0682005
21
7.4234256
0
LINE
8
layer0
10
-0.0682005
20
7.4234256
11
-0.0390156
21
7.5769458
0
LINE
8
layer0
10
-0.0390156
20
7.5769458
11
-0.0234151
21
7.745658
0
LINE
8
layer0
10
-0.0234151
20
7.745658
11
-0.0225891
21
7.9286515
0
LINE
8
layer0
10
-0.0225891
20
7.9286515
11
-0.037699
21
8.1249702
0
LINE
8
layer0
10
-0.037699
20
8.1249702
11
-0.0698515
21
8.3335762
0
LINE
8
layer0
10
-0.0698515
20
8.3335762
11
-0.1184724
21
8.5472393
0
LINE
8
layer0
10
-0.1184724
20
8.5472393
11
-0.1036754
21
8.6367181
0
LINE
8
layer0
10
-0.1036754
20
8.6367181
11
-0.0619551
21
8.809386
0
LINE
8
layer0
10
-0.0619551
20
8.809386
11
0.0126075
21
9.0340366
0
LINE
8
layer0
10
0.0126075
20
9.0340366
11
0.1281829
21
9.3045863
0
LINE
8
layer0
10
0.1281829
20
9.3045863
11
0.2047497
21
9.4570584
0
LINE
8
layer0
10
0.2047497
20
9.4570584
11
0.2946742
21
9.6188313
0
LINE
8
layer0
10
0.2946742
20
9.6188313
11
0.3988087
21
9.7889891
0
LINE
8
layer0
10
0.3988087
20
9.7889891
11
0.5185224
21
9.9673672
0
LINE
8
layer0
10
0.5185224
20
9.9673672
11
0.6543828
21
10.1525322
0
LINE
8
layer0
10
0.6543828
20
10.1525322
11
0.8067757
21
10.3429884
0
LINE
8
layer0
10
0.8067757
20
10.3429884
11
0.9768698
21
10.5382108
0
LINE
8
layer0
10
0.9768698
20
10.5382108
11
1.1655125
21
10.7372521
0
LINE
8
layer0
10
1.1655125
20
10.7372521
11
1.3501761
21
10.916738
0
ARC
8
layer0
10
-0.0000145
20
-0.0000832
40
11
50
77.05053
51
82.9494721
0
LINE
8
layer0
10
2.4649937
20
10.7201656
11
2.577133
21
10.4883453
0
LINE
8
layer0
10
2.577133
20
10.4883453
11
2.6863231
21
10.236788
0
LINE
8
layer0
10
2.6863231
20
10.236788
11
2.7793892
21
9.9951634
0
LINE
8
layer0
10
2.7793892
20
9.9951634
11
2.8574518
21
9.7640717
0
LINE
8
layer0
10
2.8574518
20
9.7640717
11
2.9217887
21
9.5436065
0
LINE
8
layer0
10
2.9217887
20
9.5436065
11
2.9732739
21
9.3350415
0
LINE
8
layer0
10
2.9732739
20
9.3350415
11
3.0129309
21
9.1395293
0
LINE
8
layer0
10
3.0129309
20
9.1395293
11
3.0421027
21
8.9567565
0
LINE
8
layer0
10
3.0421027
20
8.9567565
11
3.0619034
21
8.7872922
0
LINE
8
layer0
10
3.0619034
20
8.7872922
11
3.0779753
21
8.4935296
0
LINE
8
layer0
10
3.0779753
20
8.4935296
11
3.0712062
21
8.2569251
0
LINE
8
layer0
10
3.0712062
20
8.2569251
11
3.0513546
21
8.0804012
0
LINE
8
layer0
10
3.0513546
20
8.0804012
11
3.0346556
21
7.9912577
0
LINE
8
layer0
10
3.0346556
20
7.9912577
11
2.9158899
21
7.8071094
0
LINE
8
layer0
10
2.9158899
20
7.8071094
11
2.8143289
21
7.6220807
0
LINE
8
layer0
10
2.8143289
20
7.6220807
11
2.7329853
21
7.4427694
0
LINE
8
layer0
10
2.7329853
20
7.4427694
11
2.6711741
21
7.2705292
0
LINE
8
layer0
10
2.6711741
20
7.2705292
11
2.6281308
21
7.106656
0
LINE
8
layer0
10
2.6281308
20
7.106656
11
2.6030486
21
6.9524124
0
LINE
8
layer0
10
2.6030486
20
6.9524124
11
2.5950087
21
6.8089869
0
LINE
8
layer0
10
2.5950087
20
6.8089869
11
2.6030488
21
6.6775127
0
LINE
8
layer0
10
2.6030488
20
6.6775127
11
2.6261316
21
6.5590734
0
LINE
8
layer0
10
2.6261316
20
6.5590734
11
2.6631702
21
6.4546662
0
LINE
8
layer0
10
2.6631702
20
6.4546662
11
2.7129979
21
6.3652302
0
LINE
8
layer0
10
2.7129979
20
6.3652302
11
2.7744352
21
6.2916427
0
LINE
8
layer0
10
2.7744352
20
6.2916427
11
2.8462117
21
6.2346833
0
LINE
8
layer0
10
2.8462117
20
6.2346833
11
2.8755267
21
6.2177583
0
LINE
8
layer0
10
2.8755267
20
6.2177583
11
3.0617687
21
6.127679
0
LINE
8
layer0
10
3.0617687
20
6.127679
11
3.425
21
5.932274
0
LINE
8
layer0
10
3.425
20
5.932274
11
3.7758413
21
5.715409
0
LINE
8
layer0
10
3.7758413
20
5.715409
11
3.9469733
21
5.5991583
0
LINE
8
layer0
10
3.9469733
20
5.5991583
11
3.9762883
21
5.5822333
0
LINE
8
layer0
10
3.9762883
20
5.5822333
11
4.0615048
21
5.5485527
0
LINE
8
layer0
10
4.0615048
20
5.5485527
11
4.1559521
21
5.5321402
0
LINE
8
layer0
10
4.1559521
20
5.5321402
11
4.2583198
21
5.5337062
0
LINE
8
layer0
10
4.2583198
20
5.5337062
11
4.3672584
21
5.5538334
0
LINE
8
layer0
10
4.3672584
20
5.5538334
11
4.4813712
21
5.5930627
0
LINE
8
layer0
10
4.4813712
20
5.5930627
11
4.5992513
21
5.6518369
0
LINE
8
layer0
10
4.5992513
20
5.6518369
11
4.7194414
21
5.7305124
0
LINE
8
layer0
10
4.7194414
20
5.7305124
11
4.8404792
21
5.829356
0
LINE
8
layer0
10
4.8404792
20
5.829356
11
4.9608759
21
5.9485692
0
LINE
8
layer0
10
4.9608759
20
5.9485692
11
5.0791347
21
6.0882194
0
LINE
8
layer0
10
5.0791347
20
6.0882194
11
5.1937511
21
6.2483207
0
LINE
8
layer0
10
5.1937511
20
6.2483207
11
5.3032101
21
6.4287894
0
LINE
8
layer0
10
5.3032101
20
6.4287894
11
5.4033044
21
6.6237177
0
LINE
8
layer0
10
5.4033044
20
6.6237177
11
5.4721554
21
6.6827512
0
LINE
8
layer0
10
5.4721554
20
6.6827512
11
5.6151038
21
6.7882051
0
LINE
8
layer0
10
5.6151038
20
6.7882051
11
5.8166247
21
6.9123696
0
LINE
8
layer0
10
5.8166247
20
6.9123696
11
6.0790666
21
7.0453322
0
LINE
8
layer0
10
6.0790666
20
7.0453322
11
6.2357273
21
7.1129165
0
LINE
8
layer0
10
6.2357273
20
7.1129165
11
6.4085991
21
7.1790393
0
LINE
8
layer0
10
6.4085991
20
7.1790393
11
6.5977461
21
7.2424515
0
LINE
8
layer0
10
6.5977461
20
7.2424515
11
6.8041113
21
7.3021465
0
LINE
8
layer0
10
6.8041113
20
7.3021465
11
7.0272082
21
7.3566617
0
LINE
8
layer0
10
7.0272082
20
7.3566617
11
7.2663708
21
7.4046034
0
LINE
8
layer0
10
7.2663708
20
7.4046034
11
7.5221569
21
7.444818
0
LINE
8
layer0
10
7.5221569
20
7.444818
11
7.794607
21
7.4760353
0
LINE
8
layer0
10
7.794607
20
7.4760353
11
8.0514388
21
7.49483
0
ARC
8
layer0
10
-0.000065
20
-0.000054
40
11
50
37.0505268
51
42.9494691
0
LINE
8
layer0
10
8.7790843
20
6.6276558
11
8.7159768
21
6.3779895
0
LINE
8
layer1
10
8.7159768
20
6.3779895
11
8.6379233
21
6.1150994
0
LINE
8
layer1
10
8.6379233
20
6.1150994
11
8.5539028
21
5.8701824
0
LINE
8
layer1
10
8.5539028
20
5.8701824
11
8.4651593
21
5.6429782
0
LINE
8
layer1
10
8.4651593
20
5.6429782
11
8.372732
21
5.4327371
0
LINE
8
layer1
10
8.372732
20
5.4327371
11
8.2781089
21
5.239873
0
LINE
8
layer1
10
8.2781089
20
5.239873
11
8.1828151
21
5.064611
0
LINE
8
layer1
10
8.1828151
20
5.064611
11
8.087678
21
4.9058476
0
LINE
8
layer1
10
8.087678
20
4.9058476
11
7.9939166
21
4.7633028
0
LINE
8
layer1
10
7.9939166
20
4.7633028
11
7.8174014
21
4.5279368
0
LINE
8
layer1
10
7.8174014
20
4.5279368
11
7.6601296
21
4.3510383
0
LINE
8
layer1
10
7.6601296
20
4.3510383
11
7.531455
21
4.2285735
0
LINE
8
layer1
10
7.531455
20
4.2285735
11
7.4613625
21
4.1710195
0
LINE
8
layer1
10
7.4613625
20
4.1710195
11
7.2520144
21
4.1062949
0
LINE
8
layer1
10
7.2520144
20
4.1062949
11
7.0552801
21
4.0298368
0
LINE
8
layer1
10
7.0552801
20
4.0298368
11
6.8777081
21
3.944763
0
LINE
8
layer1
10
6.8777081
20
3.944763
11
6.7196441
21
3.8525509
0
LINE
8
layer1
10
6.7196441
20
3.8525509
11
6.5813354
21
3.7546844
0
LINE
8
layer1
10
6.5813354
20
3.7546844
11
6.4629754
21
3.6526495
0
LINE
8
layer1
10
6.4629754
20
3.6526495
11
6.3646244
21
3.5479472
0
LINE
8
layer1
10
6.3646244
20
3.5479472
11
6.2862735
21
3.442064
0
LINE
8
layer1
10
6.2862735
20
3.442064
11
6.2278246
21
3.3364969
0
LINE
8
layer1
10
6.2278246
20
3.3364969
11
6.1890862
21
3.2327083
0
LINE
8
layer1
10
6.1890862
20
3.2327083
11
6.1697681
21
3.1321678
0
LINE
8
layer1
10
6.1697681
20
3.1321678
11
6.1695306
21
3.0363054
0
LINE
8
layer1
10
6.1695306
20
3.0363054
11
6.1879019
21
2.9465349
0
LINE
8
layer1
10
6.1879019
20
2.9465349
11
6.1994792
21
2.9147263
0
LINE
8
layer1
10
6.1994792
20
2.9147263
11
6.284247
21
2.7260074
0
LINE
8
layer1
10
6.284247
20
2.7260074
11
6.4368945
21
2.342838
0
LINE
8
layer1
10
6.4368945
20
2.342838
11
6.5662563
21
1.9511933
0
LINE
8
layer1
10
6.5662563
20
1.9511933
11
6.6226266
21
1.7521386
0
LINE
8
layer1
10
6.6226266
20
1.7521386
11
6.6342039
21
1.72033
0
LINE
8
layer1
10
6.6342039
20
1.72033
11
6.6778341
21
1.639753
0
LINE
8
layer1
10
6.6778341
20
1.639753
11
6.7396352
21
1.5664707
0
LINE
8
layer1
10
6.7396352
20
1.5664707
11
6.8190599
21
1.5018697
0
LINE
8
layer1
10
6.8190599
20
1.5018697
11
6.9154493
21
1.4472636
0
LINE
8
layer1
10
6.9154493
20
1.4472636
11
7.0280809
21
1.4039647
0
LINE
8
layer1
10
7.0280809
20
1.4039647
11
7.1561616
21
1.3732165
0
LINE
8
layer1
10
7.1561616
20
1.3732165
11
7.2988042
21
1.3562287
0
LINE
8
layer1
10
7.2988042
20
1.3562287
11
7.45506
21
1.3541457
0
LINE
8
layer1
10
7.45506
20
1.3541457
11
7.623918
21
1.3680788
0
LINE
8
layer1
10
7.623918
20
1.3680788
11
7.8042749
21
1.3990418
0
LINE
8
layer1
10
7.8042749
20
1.3990418
11
7.9949873
21
1.4480125
0
LINE
8
layer1
10
7.9949873
20
1.4480125
11
8.1948408
21
1.5159006
0
LINE
8
layer1
10
8.1948408
20
1.5159006
11
8.396815
21
1.600885
0
LINE
8
layer1
10
8.396815
20
1.600885
11
8.4875039
21
1.6018507
0
LINE
8
layer1
10
8.4875039
20
1.6018507
11
8.6647932
21
1.5907476
0
LINE
8
layer1
10
8.6647932
20
1.5907476
11
8.8989786
21
1.556328
0
LINE
8
layer1
10
8.8989786
20
1.556328
11
9.1854875
21
1.4894889
0
LINE
8
layer1
10
9.1854875
20
1.4894889
11
9.3489388
21
1.4405619
0
LINE
8
layer1
10
9.3489388
20
1.4405619
11
9.5238693
21
1.3800951
0
LINE
8
layer1
10
9.5238693
20
1.3800951
11
9.7095248
21
1.3070903
0
LINE
8
layer1
10
9.7095248
20
1.3070903
11
9.9059809
21
1.2201703
0
LINE
8
layer1
10
9.9059809
20
1.2201703
11
10.1119248
21
1.1185274
0
LINE
8
layer1
10
10.1119248
20
1.1185274
11
10.3259502
21
1.0015222
0
LINE
8
layer1
10
10.3259502
20
1.0015222
11
10.5477433
21
0.8679122
0
LINE
8
layer1
10
10.5477433
20
0.8679122
11
10.7765182
21
0.7166985
0
LINE
8
layer1
10
10.7765182
20
0.7166985
11
10.9853438
21
0.5660077
0
ARC
8
layer1
10
-0.0000845
20
0
40
11
50
357.0505286
51
362.9494709
0
LINE
8
layer1
10
10.9853438
20
-0.5660077
11
10.7765182
21
-0.7166985
0
LINE
8
layer1
10
10.7765182
20
-0.7166985
11
10.5477433
21
-0.8679122
0
LINE
8
layer1
10
10.5477433
20
-0.8679122
11
10.3259502
21
-1.0015222
0
LINE
8
layer1
10
10.3259502
20
-1.0015222
11
10.1119248
21
-1.1185274
0
LINE
8
layer1
10
10.1119248
20
-1.1185274
11
9.9059809
21
-1.2201703
0
LINE
8
layer1
10
9.9059809
20
-1.2201703
11
9.7095248
21
-1.3070903
0
LINE
8
layer1
10
9.7095248
20
-1.3070903
11
9.5238693
21
-1.3800951
0
LINE
8
layer1
10
9.5238693
20
-1.3800951
11
9.3489388
21
-1.4405619
0
LINE
8
layer1
10
9.3489388
20
-1.4405619
11
9.1854875
21
-1.4894889
0
LINE
8
layer1
10
9.1854875
20
-1.4894889
11
8.8989786
21
-1.556328
0
LINE
8
layer1
10
8.8989786
20
-1.556328
11
8.6647932
21
-1.5907476
0
LINE
8
layer1
10
8.6647932
20
-1.5907476
11
8.4875039
21
-1.6018507
0
LINE
8
layer1
10
8.4875039
20
-1.6018507
11
8.396815
21
-1.600885
0
LINE
8
layer1
10
8.396815
20
-1.600885
11
8.1948408
21
-1.5159006
0
LINE
8
layer1
10
8.1948408
20
-1.5159006
11
7.9949873
21
-1.4480125
0
LINE
8
layer1
10
7.9949873
20
-1.4480125
11
7.8042749
21
-1.3990418
0
LINE
8
layer1
10
7.8042749
20
-1.3990418
11
7.623918
21
-1.3680788
0
LINE
8
layer1
10
7.623918
20
-1.3680788
11
7.45506
21
-1.3541457
0
LINE
8
layer1
10
7.45506
20
-1.3541457
11
7.2988042
21
-1.3562287
0
LINE
8
layer1
10
7.2988042
20
-1.3562287
11
7.1561616
21
-1.3732165
0
LINE
8
layer1
10
7.1561616
20
-1.3732165
11
7.0280809
21
-1.4039647
0
LINE
8
layer1
10
7.0280809
20
-1.4039647
11
6.9154493
21
-1.4472636
0
LINE
8
layer1
10
6.9154493
20
-1.4472636
11
6.8190599
21
-1.5018697
0
LINE
8
layer1
10
6.8190599
20
-1.5018697
11
6.7396352
21
-1.5664707
0
LINE
8
layer1
10
6.7396352
20
-1.5664707
11
6.6778341
21
-1.639753
0
LINE
8
layer1
10
6.6778341
20
-1.639753
11
6.6342039
21
-1.72033
0
LINE
8
layer1
10
6.6342039
20
-1.72033
11
6.6226266
21
-1.7521386
0
LINE
8
layer1
10
6.6226266
20
-1.7521386
11
6.5662563
21
-1.9511933
0
LINE
8
layer1
10
6.5662563
20
-1.9511933
11
6.4368945
21
-2.342838
0
LINE
8
layer1
10
6.4368945
20
-2.342838
11
6.284247
21
-2.7260074
0
LINE
8
layer1
10
6.284247
20
-2.7260074
11
6.1994792
21
-2.9147263
0
LINE
8
layer1
10
6.1994792
20
-2.9147263
11
6.1879019
21
-2.9465349
0
LINE
8
layer1
10
6.1879019
20
-2.9465349
11
6.1695306
21
-3.0363054
0
LINE
8
layer1
10
6.1695306
20
-3.0363054
11
6.1697681
21
-3.1321678
0
LINE
8
layer1
10
6.1697681
20
-3.1321678
11
6.1890862
21
-3.2327083
0
LINE
8
layer1
10
6.1890862
20
-3.2327083
11
6.2278246
21
-3.3364969
0
LINE
8
layer1
10
6.2278246
20
-3.3364969
11
6.2862735
21
-3.442064
0
LINE
8
layer1
10
6.2862735
20
-3.442064
11
6.3646244
21
-3.5479472
0
LINE
8
layer1
10
6.3646244
20
-3.5479472
11
6.4629754
21
-3.6526495
0
LINE
8
layer1
10
6.4629754
20
-3.6526495
11
6.5813354
21
-3.7546844
0
LINE
8
layer1
10
6.5813354
20
-3.7546844
11
6.7196441
21
-3.8525509
0
LINE
8
layer1
10
6.7196441
20
-3.8525509
11
6.8777081
21
-3.944763
0
LINE
8
layer1
10
6.8777081
20
-3.944763
11
7.0552801
21
-4.0298368
0
LINE
8
layer1
10
7.0552801
20
-4.0298368
11
7.2520144
21
-4.1062949
0
LINE
8
layer1
10
7.2520144
20
-4.1062949
11
7.4613625
21
-4.1710195
0
LINE
8
layer1
10
7.4613625
20
-4.1710195
11
7.531455
21
-4.2285735
0
LINE
8
layer1
10
7.531455
20
-4.2285735
11
7.6601296
21
-4.3510383
0
LINE
8
layer1
10
7.6601296
20
-4.3510383
11
7.8174014
21
-4.5279368
0
LINE
8
layer1
10
7.8174014
20
-4.5279368
11
7.9939166
21
-4.7633028
0
LINE
8
layer1
10
7.9939166
20
-4.7633028
11
8.087678
21
-4.9058476
0
LINE
8
layer1
10
8.087678
20
-4.9058476
11
8.1828151
21
-5.064611
0
LINE
8
layer1
10
8.1828151
20
-5.064611
11
8.2781089
21
-5.239873
0
LINE
8
layer1
10
8.2781089
20
-5.239873
11
8.372732
21
-5.4327371
0
LINE
8
layer1
10
8.372732
20
-5.4327371
11
8.4651593
21
-5.6429782
0
LINE
8
layer1
10
8.4651593
20
-5.6429782
11
8.5539028
21
-5.8701824
0
LINE
8
layer1
10
8.5539028
20
-5.8701824
11
8.6379233
21
-6.1150994
0
LINE
8
layer1
10
8.6379233
20
-6.1150994
11
8.7159768
21
-6.3779895
0
LINE
8
layer1
10
8.7159768
20
-6.3779895
11
8.7790843
21
-6.6276558
0
ARC
8
layer1
10
-0.000065
20
0.000054
40
11
50
317.0505309
51
322.9494732
0
LINE
8
layer1
10
8.0514388
20
-7.49483
11
7.794607
21
-7.4760353
0
LINE
8
layer1
10
7.794607
20
-7.4760353
11
7.5221569
21
-7.444818
0
LINE
8
layer1
10
7.5221569
20
-7.444818
11
7.2663708
21
-7.4046034
0
LINE
8
layer1
10
7.2663708
20
-7.4046034
11
7.0272082
21
-7.3566617
0
LINE
8
layer1
10
7.0272082
20
-7.3566617
11
6.8041113
21
-7.3021465
0
LINE
8
layer1
10
6.8041113
20
-7.3021465
11
6.5977461
21
-7.2424515
0
LINE
8
layer1
10
6.5977461
20
-7.2424515
11
6.4085991
21
-7.1790393
0
LINE
8
layer1
10
6.4085991
20
-7.1790393
11
6.2357273
21
-7.1129165
0
LINE
8
layer1
10
6.2357273
20
-7.1129165
11
6.0790666
21
-7.0453322
0
LINE
8
layer1
10
6.0790666
20
-7.0453322
11
5.8166247
21
-6.9123696
0
LINE
8
layer1
10
5.8166247
20
-6.9123696
11
5.6151038
21
-6.7882051
0
LINE
8
layer1
10
5.6151038
20
-6.7882051
11
5.4721554
21
-6.6827512
0
LINE
8
layer1
10
5.4721554
20
-6.6827512
11
5.4033044
21
-6.6237177
0
LINE
8
layer1
10
5.4033044
20
-6.6237177
11
5.3032101
21
-6.4287894
0
LINE
8
layer1
10
5.3032101
20
-6.4287894
11
5.1937511
21
-6.2483207
0
LINE
8
layer1
10
5.1937511
20
-6.2483207
11
5.0791347
21
-6.0882194
0
LINE
8
layer1
10
5.0791347
20
-6.0882194
11
4.9608759
21
-5.9485692
0
LINE
8
layer1
10
4.9608759
20
-5.9485692
11
4.8404792
21
-5.829356
0
LINE
8
layer1
10
4.8404792
20
-5.829356
11
4.7194414
21
-5.7305124
0
LINE
8
layer1
10
4.7194414
20
-5.7305124
11
4.5992513
21
-5.6518369
0
LINE
8
layer1
10
4.5992513
20
-5.6518369
11
4.4813712
21
-5.5930627
0
LINE
8
layer1
10
4.4813712
20
-5.5930627
11
4.3672584
21
-5.5538334
0
LINE
8
layer1
10
4.3672584
20
-5.5538334
11
4.2583198
21
-5.5337062
0
LINE
8
layer1
10
4.2583198
20
-5.5337062
11
4.1559521
21
-5.5321402
0
LINE
8
layer1
10
4.1559521
20
-5.5321402
11
4.0615048
21
-5.5485527
0
LINE
8
layer1
10
4.0615048
20
-5.5485527
11
3.9762883
21
-5.5822333
0
LINE
8
layer1
10
3.9762883
20
-5.5822333
11
3.9469733
21
-5.5991583
0
LINE
8
layer1
10
3.9469733
20
-5.5991583
11
3.7758413
21
-5.715409
0
LINE
8
layer1
10
3.7758413
20
-5.715409
11
3.425
21
-5.932274
0
LINE
8
layer1
10
3.425
20
-5.932274
11
3.0617687
21
-6.127679
0
LINE
8
layer1
10
3.0617687
20
-6.127679
11
2.8755267
21
-6.2177583
0
LINE
8
layer1
10
2.8755267
20
-6.2177583
11
2.8462117
21
-6.2346833
0
LINE
8
layer1
10
2.8462117
20
-6.2346833
11
2.7744352
21
-6.2916427
0
LINE
8
layer1
10
2.7744352
20
-6.2916427
11
2.7129979
21
-6.3652302
0
LINE
8
layer1
10
2.7129979
20
-6.3652302
11
2.6631702
21
-6.4546662
0
LINE
8
layer1
10
2.6631702
20
-6.4546662
11
2.6261316
21
-6.5590734
0
LINE
8
layer1
10
2.6261316
20
-6.5590734
11
2.6030488
21
-6.6775127
0
LINE
8
layer1
10
2.6030488
20
-6.6775127
11
2.5950087
21
-6.8089869
0
LINE
8
layer1
10
2.5950087
20
-6.8089869
11
2.6030486
21
-6.9524124
0
LINE
8
layer1
10
2.6030486
20
-6.9524124
11
2.6281308
21
-7.106656
0
LINE
8
layer1
10
2.6281308
20
-7.106656
11
2.6711741
21
-7.2705292
0
LINE
8
layer1
10
2.6711741
20
-7.2705292
11
2.7329853
21
-7.4427694
0
LINE
8
layer1
10
2.7329853
20
-7.4427694
11
2.8143289
21
-7.6220807
0
LINE
8
layer1
10
2.8143289
20
-7.6220807
11
2.9158899
21
-7.8071094
0
LINE
8
layer1
10
2.9158899
20
-7.8071094
11
3.0346556
21
-7.9912577
0
LINE
8
layer1
10
3.0346556
20
-7.9912577
11
3.0513546
21
-8.0804012
0
LINE
8
layer1
10
3.0513546
20
-8.0804012
11
3.0712062
21
-8.2569251
0
LINE
8
layer1
10
3.0712062
20
-8.2569251
11
3.0779753
21
-8.4935296
0
LINE
8
layer1
10
3.0779753
20
-8.4935296
11
3.0619034
21
-8.7872922
0
LINE
8
layer1
10
3.0619034
20
-8.7872922
11
3.0421027
21
-8.9567565
0
LINE
8
layer1
10
3.0421027
20
-8.9567565
11
3.0129309
21
-9.1395293
0
LINE
8
layer1
10
3.0129309
20
-9.1395293
11
2.9732739
21
-9.3350415
0
LINE
8
layer1
10
2.9732739
20
-9.3350415
11
2.9217887
21
-9.5436065
0
LINE
8
layer1
10
2.9217887
20
-9.5436065
11
2.8574518
21
-9.7640717
0
LINE
8
layer1
10
2.8574518
20
-9.7640717
11
2.7793892
21
-9.9951634
0
LINE
8
layer1
10
2.7793892
20
-9.9951634
11
2.6863231
21
-10.236788
0
LINE
8
layer1
10
2.6863231
20
-10.236788
11
2.577133
21
-10.4883453
0
LINE
8
layer1
10
2.577133
20
-10.4883453
11
2.4649937
21
-10.7201656
0
ARC
8
layer1
10
-0.0000145
20
0.0000832
40
11
50
277.0505279
51
282.94947
0
LINE
8
layer1
10
1.3501761
20
-10.916738
11
1.1655125
21
-10.7372521
0
LINE
8
layer1
10
1.1655125
20
-10.7372521
11
0.9768698
21
-10.5382108
0
LINE
8
layer1
10
0.9768698
20
-10.5382108
11
0.8067757
21
-10.3429884
0
LINE
8
layer1
10
0.8067757
20
-10.3429884
11
0.6543828
21
-10.1525322
0
LINE
8
layer1
10
0.6543828
20
-10.1525322
11
0.5185224
21
-9.9673672
0
LINE
8
layer1
10
0.5185224
20
-9.9673672
11
0.3988087
21
-9.7889891
0
LINE
8
layer1
10
0.3988087
20
-9.7889891
11
0.2946742
21
-9.6188313
0
LINE
8
layer1
10
0.2946742
20
-9.6188313
11
0.2047497
21
-9.4570584
0
LINE
8
layer1
10
0.2047497
20
-9.4570584
11
0.1281829
21
-9.3045863
0
LINE
8
layer1
10
0.1281829
20
-9.3045863
11
0.0126075
21
-9.0340366
0
LINE
8
layer1
10
0.0126075
20
-9.0340366
11
-0.0619551
21
-8.809386
0
LINE
8
layer1
10
-0.0619551
20
-8.809386
11
-0.1036754
21
-8.6367181
0
LINE
8
layer1
10
-0.1036754
20
-8.6367181
11
-0.1184724
21
-8.5472393
0
LINE
8
layer1
10
-0.1184724
20
-8.5472393
11
-0.0698515
21
-8.3335762
0
LINE
8
layer1
10
-0.0698515
20
-8.3335762
11
-0.037699
21
-8.1249702
0
LINE
8
layer1
10
-0.037699
20
-8.1249702
11
-0.0225891
21
-7.9286515
0
LINE
8
layer1
10
-0.0225891
20
-7.9286515
11
-0.0234151
21
-7.745658
0
LINE
8
layer1
10
-0.0234151
20
-7.745658
11
-0.0390156
21
-7.5769458
0
LINE
8
layer1
10
-0.0390156
20
-7.5769458
11
-0.0682005
21
-7.4234256
0
LINE
8
layer1
10
-0.0682005
20
-7.4234256
11
-0.1096998
21
-7.2859
0
LINE
8
layer1
10
-0.1096998
20
-7.2859
11
-0.1622219
21
-7.1651045
0
LINE
8
layer1
10
-0.1622219
20
-7.1651045
11
-0.2244213
21
-7.0617028
0
LINE
8
layer1
10
-0.2244213
20
-7.0617028
11
-0.2949356
21
-6.97626
0
LINE
8
layer1
10
-0.2949356
20
-6.97626
11
-0.3723472
21
-6.9092598
0
LINE
8
layer1
10
-0.3723472
20
-6.9092598
11
-0.4552477
21
-6.8611229
0
LINE
8
layer1
10
-0.4552477
20
-6.8611229
11
-0.5421769
21
-6.8321476
0
LINE
8
layer1
10
-0.5421769
20
-6.8321476
11
-0.5755126
21
-6.8262697
0
LINE
8
layer1
10
-0.5755126
20
-6.8262697
11
-0.7813318
21
-6.8053213
0
LINE
8
layer1
10
-0.7813318
20
-6.8053213
11
-1.18949
21
-6.7459331
0
LINE
8
layer1
10
-1.18949
20
-6.7459331
11
-1.5933452
21
-6.6621414
0
LINE
8
layer1
10
-1.5933452
20
-6.6621414
11
-1.7939168
21
-6.6114321
0
LINE
8
layer1
10
-1.7939168
20
-6.6114321
11
-1.8272525
21
-6.6055541
0
LINE
8
layer1
10
-1.8272525
20
-6.6055541
11
-1.9188493
21
-6.6030505
0
LINE
8
layer1
10
-1.9188493
20
-6.6030505
11
-2.0132141
21
-6.6199307
0
LINE
8
layer1
10
-2.0132141
20
-6.6199307
11
-2.1088727
21
-6.656414
0
LINE
8
layer1
10
-2.1088727
20
-6.656414
11
-2.2043576
21
-6.7125866
0
LINE
8
layer1
10
-2.2043576
20
-6.7125866
11
-2.2981714
21
-6.788479
0
LINE
8
layer1
10
-2.2981714
20
-6.788479
11
-2.3888404
21
-6.884026
0
LINE
8
layer1
10
-2.3888404
20
-6.884026
11
-2.4748736
21
-6.9990642
0
LINE
8
layer1
10
-2.4748736
20
-6.9990642
11
-2.5548055
21
-7.1333442
0
LINE
8
layer1
10
-2.5548055
20
-7.1333442
11
-2.627168
21
-7.2865461
0
LINE
8
layer1
10
-2.627168
20
-7.2865461
11
-2.6905317
21
-7.4582212
0
LINE
8
layer1
10
-2.6905317
20
-7.4582212
11
-2.743478
21
-7.6478684
0
LINE
8
layer1
10
-2.743478
20
-7.6478684
11
-2.784612
21
-7.8548906
0
LINE
8
layer1
10
-2.784612
20
-7.8548906
11
-2.8120004
21
-8.0722976
0
LINE
8
layer1
10
-2.8120004
20
-8.0722976
11
-2.8565085
21
-8.1513194
0
LINE
8
layer1
10
-2.8565085
20
-8.1513194
11
-2.9547687
21
-8.2993049
0
LINE
8
layer1
10
-2.9547687
20
-8.2993049
11
-3.1016697
21
-8.4849055
0
LINE
8
layer1
10
-3.1016697
20
-8.4849055
11
-3.3028085
21
-8.6996099
0
LINE
8
layer1
10
-3.3028085
20
-8.6996099
11
-3.4269062
21
-8.8166995
0
LINE
8
layer1
10
-3.4269062
20
-8.8166995
11
-3.5667373
21
-8.9379603
0
LINE
8
layer1
10
-3.5667373
20
-8.9379603
11
-3.722789
21
-9.0622403
0
LINE
8
layer1
10
-3.722789
20
-9.0622403
11
-3.896292
21
-9.1889163
0
LINE
8
layer1
10
-3.896292
20
-9.1889163
11
-4.0872892
21
-9.3164474
0
LINE
8
layer1
10
-4.0872892
20
-9.3164474
11
-4.2956315
21
-9.4432963
0
LINE
8
layer1
10
-4.2956315
20
-9.4432963
11
-4.5222377
21
-9.5685697
0
LINE
8
layer1
10
-4.5222377
20
-9.5685697
11
-4.76758
21
-9.6910878
0
LINE
8
layer1
10
-4.76758
20
-9.6910878
11
-5.0024948
21
-9.7965907
0
ARC
8
layer1
10
0.0000423
20
0.0000732
40
11
50
237.0505293
51
242.9494711
0
LINE
8
layer1
10
-5.982849
20
-9.230583
11
-6.0089382
21
-8.9743893
0
LINE
8
layer1
10
-6.0089382
20
-8.9743893
11
-6.0255057
21
-8.7006576
0
LINE
8
layer1
10
-6.0255057
20
-8.7006576
11
-6.0303188
21
-8.4417742
0
LINE
8
layer1
10
-6.0303188
20
-8.4417742
11
-6.0246355
21
-8.19792
0
LINE
8
layer1
10
-6.0246355
20
-8.19792
11
-6.0096889
21
-7.968746
0
LINE
8
layer1
10
-6.0096889
20
-7.968746
11
-5.9867358
21
-7.75515
0
LINE
8
layer1
10
-5.9867358
20
-7.75515
11
-5.957132
21
-7.5578652
0
LINE
8
layer1
10
-5.957132
20
-7.5578652
11
-5.9220326
21
-7.3761376
0
LINE
8
layer1
10
-5.9220326
20
-7.3761376
11
-5.882679
21
-7.210121
0
LINE
8
layer1
10
-5.882679
20
-7.210121
11
-5.7973088
21
-6.9285775
0
LINE
8
layer1
10
-5.7973088
20
-6.9285775
11
-5.7100245
21
-6.7085572
0
LINE
8
layer1
10
-5.7100245
20
-6.7085572
11
-5.6309954
21
-6.5494686
0
LINE
8
layer1
10
-5.6309954
20
-6.5494686
11
-5.5848146
21
-6.4714126
0
LINE
8
layer1
10
-5.5848146
20
-6.4714126
11
-5.4102289
21
-6.33899
0
LINE
8
layer1
10
-5.4102289
20
-6.33899
11
-5.2515093
21
-6.1998558
0
LINE
8
layer1
10
-5.2515093
20
-6.1998558
11
-5.1137432
21
-6.0591794
0
LINE
8
layer1
10
-5.1137432
20
-6.0591794
11
-4.99675
21
-5.9184673
0
LINE
8
layer1
10
-4.99675
20
-5.9184673
11
-4.9002546
21
-5.7791985
0
LINE
8
layer1
10
-4.9002546
20
-5.7791985
11
-4.8239306
21
-5.6428355
0
LINE
8
layer1
10
-4.8239306
20
-5.6428355
11
-4.7673212
21
-5.5108095
0
LINE
8
layer1
10
-4.7673212
20
-5.5108095
11
-4.7299096
21
-5.3845143
0
LINE
8
layer1
10
-4.7299096
20
-5.3845143
11
-4.7110917
21
-5.265323
0
LINE
8
layer1
10
-4.7110917
20
-5.265323
11
-4.7101873
21
-5.1545443
0
LINE
8
layer1
10
-4.7101873
20
-5.1545443
11
-4.726421
21
-5.0534599
0
LINE
8
layer1
10
-4.726421
20
-5.0534599
11
-4.7589848
21
-4.9632975
0
LINE
8
layer1
10
-4.7589848
20
-4.9632975
11
-4.8069514
21
-4.8852242
0
LINE
8
layer1
10
-4.8069514
20
-4.8852242
11
-4.8287098
21
-4.8592936
0
LINE
8
layer1
10
-4.8287098
20
-4.8592936
11
-4.9729111
21
-4.7109481
0
LINE
8
layer1
10
-4.9729111
20
-4.7109481
11
-5.2474044
21
-4.4030951
0
LINE
8
layer1
10
-5.2474044
20
-4.4030951
11
-5.5029152
21
-4.0793138
0
LINE
8
layer1
10
-5.5029152
20
-4.0793138
11
-5.6239666
21
-3.9115434
0
LINE
8
layer1
10
-5.6239666
20
-3.9115434
11
-5.645725
21
-3.8856128
0
LINE
8
layer1
10
-5.645725
20
-3.8856128
11
-5.7142829
21
-3.8248176
0
LINE
8
layer1
10
-5.7142829
20
-3.8248176
11
-5.7974209
21
-3.777092
0
LINE
8
layer1
10
-5.7974209
20
-3.777092
11
-5.8941506
21
-3.7435517
0
LINE
8
layer1
10
-5.8941506
20
-3.7435517
11
-6.0034034
21
-3.7252059
0
LINE
8
layer1
10
-6.0034034
20
-3.7252059
11
-6.1240516
21
-3.7230405
0
LINE
8
layer1
10
-6.1240516
20
-3.7230405
11
-6.2549246
21
-3.7379529
0
LINE
8
layer1
10
-6.2549246
20
-3.7379529
11
-6.394775
21
-3.7707761
0
LINE
8
layer1
10
-6.394775
20
-3.7707761
11
-6.5423198
21
-3.8222614
0
LINE
8
layer1
10
-6.5423198
20
-3.8222614
11
-6.696229
21
-3.8931071
0
LINE
8
layer1
10
-6.696229
20
-3.8931071
11
-6.8551191
21
-3.9838884
0
LINE
8
layer1
10
-6.8551191
20
-3.9838884
11
-7.0175811
21
-4.0951334
0
LINE
8
layer1
10
-7.0175811
20
-4.0951334
11
-7.1821629
21
-4.2272813
0
LINE
8
layer1
10
-7.1821629
20
-4.2272813
11
-7.3428901
21
-4.3762197
0
LINE
8
layer1
10
-7.3428901
20
-4.3762197
11
-7.4277796
21
-4.4081446
0
LINE
8
layer1
10
-7.4277796
20
-4.4081446
11
-7.5981745
21
-4.4583476
0
LINE
8
layer1
10
-7.5981745
20
-4.4583476
11
-7.830009
21
-4.5060998
0
LINE
8
layer1
10
-7.830009
20
-4.5060998
11
-8.1220996
21
-4.5412835
0
LINE
8
layer1
10
-8.1220996
20
-4.5412835
11
-8.2924276
21
-4.5512108
0
LINE
8
layer1
10
-8.2924276
20
-4.5512108
11
-8.4774894
21
-4.5542203
0
LINE
8
layer1
10
-8.4774894
20
-4.5542203
11
-8.6769176
21
-4.5491161
0
LINE
8
layer1
10
-8.6769176
20
-4.5491161
11
-8.8912544
21
-4.53463
0
LINE
8
layer1
10
-8.8912544
20
-4.53463
11
-9.1195422
21
-4.5095539
0
LINE
8
layer1
10
-9.1195422
20
-4.5095539
11
-9.3606785
21
-4.472806
0
LINE
8
layer1
10
-9.3606785
20
-4.472806
11
-9.6147931
21
-4.4231114
0
LINE
8
layer1
10
-9.6147931
20
-4.4231114
11
-9.8814893
21
-4.3592626
0
LINE
8
layer1
10
-9.8814893
20
-4.3592626
11
-10.1292605
21
-4.2890822
0
ARC
8
layer1
10
0.0000794
20
0.0000289
40
11
50
197.050529
51
202.9494712
0
LINE
8
layer1
10
-10.5164326
20
-3.2253356
11
-10.37174
21
-3.01231
0
LINE
8
layer1
10
-10.37174
20
-3.01231
11
-10.20848
21
-2.79197
0
LINE
8
layer1
10
-10.20848
20
-2.79197
11
-10.04576
21
-2.59056
0
LINE
8
layer1
10
-10.04576
20
-2.59056
11
-9.88466
21
-2.40741
0
LINE
8
layer1
10
-9.88466
20
-2.40741
11
-9.7259
21
-2.24146
0
LINE
8
layer1
10
-9.7259
20
-2.24146
11
-9.57102
21
-2.09259
0
LINE
8
layer1
10
-9.57102
20
-2.09259
11
-9.42153
21
-1.96049
0
LINE
8
layer1
10
-9.42153
20
-1.96049
11
-9.27783
21
-1.84384
0
LINE
8
layer1
10
-9.27783
20
-1.84384
11
-9.14097
21
-1.74196
0
LINE
8
layer1
10
-9.14097
20
-1.74196
11
-8.8946
21
-1.58116
0
LINE
8
layer1
10
-8.8946
20
-1.58116
11
-8.68631
21
-1.46872
0
LINE
8
layer1
10
-8.68631
20
-1.46872
11
-8.52351
21
-1.39765
0
LINE
8
layer1
10
-8.52351
20
-1.39765
11
-8.43796
21
-1.36754
0
LINE
8
layer1
10
-8.43796
20
-1.36754
11
-8.2191
21
-1.37832
0
LINE
8
layer1
10
-8.2191
20
-1.37832
11
-8.00808
21
-1.37376
0
LINE
8
layer1
10
-8.00808
20
-1.37376
11
-7.81212
21
-1.35455
0
LINE
8
layer1
10
-7.81212
20
-1.35455
11
-7.63205
21
-1.32196
0
LINE
8
layer1
10
-7.63205
20
-1.32196
11
-7.46861
21
-1.2773
0
LINE
8
layer1
10
-7.46861
20
-1.2773
11
-7.32249
21
-1.2219
0
LINE
8
layer1
10
-7.32249
20
-1.2219
11
-7.19426
21
-1.15715
0
LINE
8
layer1
10
-7.19426
20
-1.15715
11
-7.08442
21
-1.08445
0
LINE
8
layer1
10
-7.08442
20
-1.08445
11
-6.99339
21
-1.00524
0
LINE
8
layer1
10
-6.99339
20
-1.00524
11
-6.92149
21
-0.92096
0
LINE
8
layer1
10
-6.92149
20
-0.92096
11
-6.86895
21
-0.83309
0
LINE
8
layer1
10
-6.86895
20
-0.83309
11
-6.83594
21
-0.74309
0
LINE
8
layer1
10
-6.83594
20
-0.74309
11
-6.8225
21
-0.65245
0
LINE
8
layer1
10
-6.8225
20
-0.65245
11
-6.8225
21
-0.6186
0
LINE
8
layer1
10
-6.8225
20
-0.6186
11
-6.83761
21
-0.41227
0
LINE
8
layer1
10
-6.83761
20
-0.41227
11
-6.85
21
0
0
LINE
8
layer1
10
-6.85
20
0
11
-6.83761
21
0.41227
0
LINE
8
layer1
10
-6.83761
20
0.41227
11
-6.8225
21
0.6186
0
LINE
8
layer1
10
-6.8225
20
0.6186
11
-6.8225
21
0.65245
0
LINE
8
layer1
10
-6.8225
20
0.65245
11
-6.83594
21
0.74309
0
LINE
8
layer1
10
-6.83594
20
0.74309
11
-6.86895
21
0.83309
0
LINE
8
layer1
10
-6.86895
20
0.83309
11
-6.92149
21
0.92096
0
LINE
8
layer1
10
-6.92149
20
0.92096
11
-6.99339
21
1.00524
0
LINE
8
layer1
10
-6.99339
20
1.00524
11
-7.08442
21
1.08445
0
LINE
8
layer1
10
-7.08442
20
1.08445
11
-7.19426
21
1.15715
0
LINE
8
layer1
10
-7.19426
20
1.15715
11
-7.32249
21
1.2219
0
LINE
8
layer1
10
-7.32249
20
1.2219
11
-7.46861
21
1.2773
0
LINE
8
layer1
10
-7.46861
20
1.2773
11
-7.63205
21
1.32196
0
LINE
8
layer1
10
-7.63205
20
1.32196
11
-7.81212
21
1.35455
0
LINE
8
layer1
10
-7.81212
20
1.35455
11
-8.00808
21
1.37376
0
LINE
8
layer1
10
-8.00808
20
1.37376
11
-8.2191
21
1.37832
0
LINE
8
layer1
10
-8.2191
20
1.37832
11
-8.43796
21
1.36754
0
LINE
8
layer1
10
-8.43796
20
1.36754
11
-8.52351
21
1.39765
0
LINE
8
layer1
10
-8.52351
20
1.39765
11
-8.68631
21
1.46872
0
LINE
8
layer1
10
-8.68631
20
1.46872
11
-8.8946
21
1.58116
0
LINE
8
layer1
10
-8.8946
20
1.58116
11
-9.14097
21
1.74196
0
LINE
8
layer1
10
-9.14097
20
1.74196
11
-9.27783
21
1.84384
0
LINE
8
layer1
10
-9.27783
20
1.84384
11
-9.42153
21
1.96049
0
LINE
8
layer1
10
-9.42153
20
1.96049
11
-9.57102
21
2.09259
0
LINE
8
layer1
10
-9.57102
20
2.09259
11
-9.7259
21
2.24146
0
LINE
8
layer1
10
-9.7259
20
2.24146
11
-9.88466
21
2.40741
0
LINE
8
layer1
10
-9.88466
20
2.40741
11
-10.04576
21
2.59056
0
LINE
8
layer1
10
-10.04576
20
2.59056
11
-10.20848
21
2.79197
0
LINE
8
layer1
10
-10.20848
20
2.79197
11
-10.37174
21
3.01231
0
LINE
8
layer1
10
-10.37174
20
3.01231
11
-10.5164326
21
3.2253356
0
ARC
8
layer1
10
0.0000794
20
-0.0000289
40
11
50
157.0505288
51
162.949471
0
LINE
8
layer1
10
-10.1292605
20
4.2890822
11
-9.8814893
21
4.3592626
0
LINE
8
layer1
10
-9.8814893
20
4.3592626
11
-9.6147931
21
4.4231114
0
LINE
8
layer1
10
-9.6147931
20
4.4231114
11
-9.3606785
21
4.472806
0
LINE
8
layer1
10
-9.3606785
20
4.472806
11
-9.1195422
21
4.5095539
0
LINE
8
layer1
10
-9.1195422
20
4.5095539
11
-8.8912544
21
4.53463
0
LINE
8
layer1
10
-8.8912544
20
4.53463
11
-8.6769176
21
4.5491161
0
LINE
8
layer1
10
-8.6769176
20
4.5491161
11
-8.4774894
21
4.5542203
0
LINE
8
layer1
10
-8.4774894
20
4.5542203
11
-8.2924276
21
4.5512108
0
LINE
8
layer1
10
-8.2924276
20
4.5512108
11
-8.1220996
21
4.5412835
0
LINE
8
layer1
10
-8.1220996
20
4.5412835
11
-7.830009
21
4.5060998
0
LINE
8
layer1
10
-7.830009
20
4.5060998
11
-7.5981745
21
4.4583476
0
LINE
8
layer1
10
-7.5981745
20
4.4583476
11
-7.4277796
21
4.4081446
0
LINE
8
layer1
10
-7.4277796
20
4.4081446
11
-7.3428901
21
4.3762197
0
LINE
8
layer1
10
-7.3428901
20
4.3762197
11
-7.1821629
21
4.2272813
0
LINE
8
layer1
10
-7.1821629
20
4.2272813
11
-7.0175811
21
4.0951334
0
LINE
8
layer1
10
-7.0175811
20
4.0951334
11
-6.8551191
21
3.9838884
0
LINE
8
layer1
10
-6.8551191
20
3.9838884
11
-6.696229
21
3.8931071
0
LINE
8
layer1
10
-6.696229
20
3.8931071
11
-6.5423198
21
3.8222614
0
LINE
8
layer1
10
-6.5423198
20
3.8222614
11
-6.394775
21
3.7707761
0
LINE
8
layer1
10
-6.394775
20
3.7707761
11
-6.2549246
21
3.7379529
0
LINE
8
layer1
10
-6.2549246
20
3.7379529
11
-6.1240516
21
3.7230405
0
LINE
8
layer1
10
-6.1240516
20
3.7230405
11
-6.0034034
21
3.7252059
0
LINE
8
layer1
10
-6.0034034
20
3.7252059
11
-5.8941506
21
3.7435517
0
LINE
8
layer1
10
-5.8941506
20
3.7435517
11
-5.7974209
21
3.777092
0
LINE
8
layer1
10
-5.7974209
20
3.777092
11
-5.7142829
21
3.8248176
0
LINE
8
layer1
10
-5.7142829
20
3.8248176
11
-5.645725
21
3.8856128
0
LINE
8
layer1
10
-5.645725
20
3.8856128
11
-5.6239666
21
3.9115434
0
LINE
8
layer1
10
-5.6239666
20
3.9115434
11
-5.5029152
21
4.0793138
0
LINE
8
layer1
10
-5.5029152
20
4.0793138
11
-5.2474044
21
4.4030951
0
LINE
8
layer1
10
-5.2474044
20
4.4030951
11
-4.9729111
21
4.7109481
0
LINE
8
layer1
10
-4.9729111
20
4.7109481
11
-4.8287098
21
4.8592936
0
LINE
8
layer1
10
-4.8287098
20
4.8592936
11
-4.8069514
21
4.8852242
0
LINE
8
layer1
10
-4.8069514
20
4.8852242
11
-4.7589848
21
4.9632975
0
LINE
8
layer1
10
-4.7589848
20
4.9632975
11
-4.726421
21
5.0534599
0
LINE
8
layer1
10
-4.726421
20
5.0534599
11
-4.7101873
21
5.1545443
0
LINE
8
layer1
10
-4.7101873
20
5.1545443
11
-4.7110917
21
5.265323
0
LINE
8
layer1
10
-4.7110917
20
5.265323
11
-4.7299096
21
5.3845143
0
LINE
8
layer1
10
-4.7299096
20
5.3845143
11
-4.7673212
21
5.5108095
0
LINE
8
layer1
10
-4.7673212
20
5.5108095
11
-4.8239306
21
5.6428355
0
LINE
8
layer1
10
-4.8239306
20
5.6428355
11
-4.9002546
21
5.7791985
0
LINE
8
layer1
10
-4.9002546
20
5.7791985
11
-4.99675
21
5.9184673
0
LINE
8
layer1
10
-4.99675
20
5.9184673
11
-5.1137432
21
6.0591794
0
LINE
8
layer1
10
-5.1137432
20
6.0591794
11
-5.2515093
21
6.1998558
0
LINE
8
layer1
10
-5.2515093
20
6.1998558
11
-5.4102289
21
6.33899
0
LINE
8
layer1
10
-5.4102289
20
6.33899
11
-5.5848146
21
6.4714126
0
LINE
8
layer1
10
-5.5848146
20
6.4714126
11
-5.6309954
21
6.5494686
0
LINE
8
layer1
10
-5.6309954
20
6.5494686
11
-5.7100245
21
6.7085572
0
LINE
8
layer1
10
-5.7100245
20
6.7085572
11
-5.7973088
21
6.9285775
0
LINE
8
layer1
10
-5.7973088
20
6.9285775
11
-5.882679
21
7.210121
0
LINE
8
layer1
10
-5.882679
20
7.210121
11
-5.9220326
21
7.3761376
0
LINE
8
layer1
10
-5.9220326
20
7.3761376
11
-5.957132
21
7.5578652
0
LINE
8
layer1
10
-5.957132
20
7.5578652
11
-5.9867358
21
7.75515
0
LINE
8
layer1
10
-5.9867358
20
7.75515
11
-6.0096889
21
7.968746
0
LINE
8
layer1
10
-6.0096889
20
7.968746
11
-6.0246355
21
8.19792
0
LINE
8
layer1
10
-6.0246355
20
8.19792
11
-6.0303188
21
8.4417742
0
LINE
8
layer1
10
-6.0303188
20
8.4417742
11
-6.0255057
21
8.7006576
0
LINE
8
layer1
10
-6.0255057
20
8.7006576
11
-6.0089382
21
8.9743893
0
LINE
8
layer1
10
-6.0089382
20
8.9743893
11
-5.982849
21
9.230583
0
ARC
8
layer1
10
0.0000422
20
-0.0000732
40
11
50
117.0505289
51
122.9494707
0
LINE
8
layer1
10
-5.0024948
20
9.7965907
11
-4.76758
21
9.6910878
0
LINE
8
layer1
10
-4.76758
20
9.6910878
11
-4.5222377
21
9.5685697
0
LINE
8
layer1
10
-4.5222377
20
9.5685697
11
-4.2956315
21
9.4432963
0
LINE
8
layer1
10
-4.2956315
20
9.4432963
11
-4.0872892
21
9.3164474
0
LINE
8
layer1
10
-4.0872892
20
9.3164474
11
-3.896292
21
9.1889163
0
LINE
8
layer1
10
-3.896292
20
9.1889163
11
-3.722789
21
9.0622403
0
LINE
8
layer1
10
-3.722789
20
9.0622403
11
-3.5667373
21
8.9379603
0
LINE
8
layer1
10
-3.5667373
20
8.9379603
11
-3.4269062
21
8.8166995
0
LINE
8
layer1
10
-3.4269062
20
8.8166995
11
-3.3028085
21
8.6996099
0
LINE
8
layer1
10
-3.3028085
20
8.6996099
11
-3.1016697
21
8.4849055
0
LINE
8
layer1
10
-3.1016697
20
8.4849055
11
-2.9547687
21
8.2993049
0
LINE
8
layer1
10
-2.9547687
20
8.2993049
11
-2.8565085
21
8.1513194
0
LINE
8
layer1
10
-2.8565085
20
8.1513194
11
-2.8120004
21
8.0722976
0
LINE
8
layer1
10
-2.8120004
20
8.0722976
11
-2.784612
21
7.8548906
0
LINE
8
layer1
10
-2.784612
20
7.8548906
11
-2.743478
21
7.6478684
0
LINE
8
layer1
10
-2.743478
20
7.6478684
11
-2.6905317
21
7.4582212
0
LINE
8
layer1
10
-2.6905317
20
7.4582212
11
-2.627168
21
7.2865461
0
LINE
8
layer1
10
-2.627168
20
7.2865461
11
-2.5548055
21
7.1333442
0
LINE
8
layer1
10
-2.5548055
20
7.1333442
11
-2.4748736
21
6.9990642
0
LINE
8
layer1
10
-2.4748736
20
6.9990642
11
-2.3888404
21
6.884026
0
LINE
8
layer1
10
-2.3888404
20
6.884026
11
-2.2981714
21
6.788479
0
LINE
8
layer1
10
-2.2981714
20
6.788479
11
-2.2043576
21
6.7125866
0
LINE
8
layer1
10
-2.2043576
20
6.7125866
11
-2.1088727
21
6.656414
0
LINE
8
layer1
10
-2.1088727
20
6.656414
11
-2.0132141
21
6.6199307
0
LINE
8
layer1
10
-2.0132141
20
6.6199307
11
-1.9188493
21
6.6030505
0
LINE
8
layer1
10
-1.9188493
20
6.6030505
11
-1.8272525
21
6.6055541
0
LINE
8
layer1
10
-1.8272525
20
6.6055541
11
-1.7939168
21
6.6114321
0
LINE
8
layer1
10
-1.7939168
20
6.6114321
11
-1.5933452
21
6.6621414
0
LINE
8
layer1
10
-1.5933452
20
6.6621414
11
-1.18949
21
6.7459331
0
LINE
8
layer1
10
-1.18949
20
6.7459331
11
-0.7813318
21
6.8053213
0
LINE
8
layer1
10
-0.7813318
20
6.8053213
11
-0.5755126
21
6.8262697
0
LINE
8
layer1
10
-0.5755126
20
6.8262697
11
-0.5421769
21
6.8321476
0
LINE
8
layer1
10
-0.5421769
20
6.8321476
11
-0.4552477
21
6.8611229
0
LINE
8
layer1
10
-0.4552477
20
6.8611229
11
-0.3723472
21
6.9092598
0
LINE
8
layer1
10
-0.3723472
20
6.9092598
11
-0.2949356
21
6.97626
0
LINE
8
layer1
10
-0.2949356
20
6.97626
11
-0.2244213
21
7.0617028
0
LINE
8
layer1
10
-0.2244213
20
7.0617028
11
-0.1622219
21
7.1651045
0
LINE
8
layer1
10
-0.1622219
20
7.1651045
11
-0.1096998
21
7.2859
0
LINE
8
layer1
10
-0.1096998
20
7.2859
11
-0.0682005
21
7.4234256
0
LINE
8
layer1
10
-0.0682005
20
7.4234256
11
-0.0390156
21
7.5769458
0
LINE
8
layer1
10
-0.0390156
20
7.5769458
11
-0.0234151
21
7.745658
0
LINE
8
layer1
10
-0.0234151
20
7.745658
11
-0.0225891
21
7.9286515
0
LINE
8
layer1
10
-0.0225891
20
7.9286515
11
-0.037699
21
8.1249702
0
LINE
8
layer1
10
-0.037699
20
8.1249702
11
-0.0698515
21
8.3335762
0
LINE
8
layer1
10
-0.0698515
20
8.3335762
11
-0.1184724
21
8.5472393
0
LINE
8
layer1
10
-0.1184724
20
8.5472393
11
-0.1036754
21
8.6367181
0
LINE
8
layer1
10
-0.1036754
20
8.6367181
11
-0.0619551
21
8.809386
0
LINE
8
layer1
10
-0.0619551
20
8.809386
11
0.0126075
21
9.0340366
0
LINE
8
layer1
10
0.0126075
20
9.0340366
11
0.1281829
21
9.3045863
0
LINE
8
layer1
10
0.1281829
20
9.3045863
11
0.2047497
21
9.4570584
0
LINE
8
layer1
10
0.2047497
20
9.4570584
11
0.2946742
21
9.6188313
0
LINE
8
layer1
10
0.2946742
20
9.6188313
11
0.3988087
21
9.7889891
0
LINE
8
layer1
10
0.3988087
20
9.7889891
11
0.5185224
21
9.9673672
0
LINE
8
layer1
10
0.5185224
20
9.9673672
11
0.6543828
21
10.1525322
0
LINE
8
layer1
10
0.6543828
20
10.1525322
11
0.8067757
21
10.3429884
0
LINE
8
layer1
10
0.8067757
20
10.3429884
11
0.9768698
21
10.5382108
0
LINE
8
layer1
10
0.9768698
20
10.5382108
11
1.1655125
21
10.7372521
0
LINE
8
layer1
10
1.1655125
20
10.7372521
11
1.3501761
21
10.916738
0
ARC
8
layer1
10
-0.0000145
20
-0.0000832
40
11
50
77.05053
51
82.9494721
0
LINE
8
layer1
10
2.4649937
20
10.7201656
11
2.577133
21
10.4883453
0
LINE
8
layer1
10
2.577133
20
10.4883453
11
2.6863231
21
10.236788
0
LINE
8
layer1
10
2.6863231
20
10.236788
11
2.7793892
21
9.9951634
0
LINE
8
layer1
10
2.7793892
20
9.9951634
11
2.8574518
21
9.7640717
0
LINE
8
layer1
10
2.8574518
20
9.7640717
11
2.9217887
21
9.5436065
0
LINE
8
layer1
10
2.9217887
20
9.5436065
11
2.9732739
21
9.3350415
0
LINE
8
layer1
10
2.9732739
20
9.3350415
11
3.0129309
21
9.1395293
0
LINE
8
layer1
10
3.0129309
20
9.1395293
11
3.0421027
21
8.9567565
0
LINE
8
layer1
10
3.0421027
20
8.9567565
11
3.0619034
21
8.7872922
0
LINE
8
layer1
10
3.0619034
20
8.7872922
11
3.0779753
21
8.4935296
0
LINE
8
layer1
10
3.0779753
20
8.4935296
11
3.0712062
21
8.2569251
0
LINE
8
layer1
10
3.0712062
20
8.2569251
11
3.0513546
21
8.0804012
0
LINE
8
layer1
10
3.0513546
20
8.0804012
11
3.0346556
21
7.9912577
0
LINE
8
layer1
10
3.0346556
20
7.9912577
11
2.9158899
21
7.8071094
0
LINE
8
layer1
10
2.9158899
20
7.8071094
11
2.8143289
21
7.6220807
0
LINE
8
layer1
10
2.8143289
20
7.6220807
11
2.7329853
21
7.4427694
0
LINE
8
layer1
10
2.7329853
20
7.4427694
11
2.6711741
21
7.2705292
0
LINE
8
layer1
10
2.6711741
20
7.2705292
11
2.6281308
21
7.106656
0
LINE
8
layer1
10
2.6281308
20
7.106656
11
2.6030486
21
6.9524124
0
LINE
8
layer1
10
2.6030486
20
6.9524124
11
2.5950087
21
6.8089869
0
LINE
8
layer1
10
2.5950087
20
6.8089869
11
2.6030488
21
6.6775127
0
LINE
8
layer1
10
2.6030488
20
6.6775127
11
2.6261316
21
6.5590734
0
LINE
8
layer1
10
2.6261316
20
6.5590734
11
2.6631702
21
6.4546662
0
LINE
8
layer1
10
2.6631702
20
6.4546662
11
2.7129979
21
6.3652302
0
LINE
8
layer1
10
2.7129979
20
6.3652302
11
2.7744352
21
6.2916427
0
LINE
8
layer1
10
2.7744352
20
6.2916427
11
2.8462117
21
6.2346833
0
LINE
8
layer1
10
2.8462117
20
6.2346833
11
2.8755267
21
6.2177583
0
LINE
8
layer1
10
2.8755267
20
6.2177583
11
3.0617687
21
6.127679
0
LINE
8
layer1
10
3.0617687
20
6.127679
11
3.425
21
5.932274
0
LINE
8
layer1
10
3.425
20
5.932274
11
3.7758413
21
5.715409
0
LINE
8
layer1
10
3.7758413
20
5.715409
11
3.9469733
21
5.5991583
0
LINE
8
layer1
10
3.9469733
20
5.5991583
11
3.9762883
21
5.5822333
0
LINE
8
layer1
10
3.9762883
20
5.5822333
11
4.0615048
21
5.5485527
0
LINE
8
layer1
10
4.0615048
20
5.5485527
11
4.1559521
21
5.5321402
0
LINE
8
layer1
10
4.1559521
20
5.5321402
11
4.2583198
21
5.5337062
0
LINE
8
layer1
10
4.2583198
20
5.5337062
11
4.3672584
21
5.5538334
0
LINE
8
layer1
10
4.3672584
20
5.5538334
11
4.4813712
21
5.5930627
0
LINE
8
layer1
10
4.4813712
20
5.5930627
11
4.5992513
21
5.6518369
0
LINE
8
layer1
10
4.5992513
20
5.6518369
11
4.7194414
21
5.7305124
0
LINE
8
layer1
10
4.7194414
20
5.7305124
11
4.8404792
21
5.829356
0
LINE
8
layer1
10
4.8404792
20
5.829356
11
4.9608759
21
5.9485692
0
LINE
8
layer1
10
4.9608759
20
5.9485692
11
5.0791347
21
6.0882194
0
LINE
8
layer1
10
5.0791347
20
6.0882194
11
5.1937511
21
6.2483207
0
LINE
8
layer1
10
5.1937511
20
6.2483207
11
5.3032101
21
6.4287894
0
LINE
8
layer1
10
5.3032101
20
6.4287894
11
5.4033044
21
6.6237177
0
LINE
8
layer1
10
5.4033044
20
6.6237177
11
5.4721554
21
6.6827512
0
LINE
8
layer1
10
5.4721554
20
6.6827512
11
5.6151038
21
6.7882051
0
LINE
8
layer1
10
5.6151038
20
6.7882051
11
5.8166247
21
6.9123696
0
LINE
8
layer1
10
5.8166247
20
6.9123696
11
6.0790666
21
7.0453322
0
LINE
8
layer1
10
6.0790666
20
7.0453322
11
6.2357273
21
7.1129165
0
LINE
8
layer1
10
6.2357273
20
7.1129165
11
6.4085991
21
7.1790393
0
LINE
8
layer1
10
6.4085991
20
7.1790393
11
6.5977461
21
7.2424515
0
LINE
8
layer1
10
6.5977461
20
7.2424515
11
6.8041113
21
7.3021465
0
LINE
8
layer1
10
6.8041113
20
7.3021465
11
7.0272082
21
7.3566617
0
LINE
8
layer1
10
7.0272082
20
7.3566617
11
7.2663708
21
7.4046034
0
LINE
8
layer1
10
7.2663708
20
7.4046034
11
7.5221569
21
7.444818
0
LINE
8
layer1
10
7.5221569
20
7.444818
11
7.794607
21
7.4760353
0
LINE
8
layer1
10
7.794607
20
7.4760353
11
8.0514388
21
7.49483
0
ARC
8
layer1
10
-0.000065
20
-0.000054
40
11
50
37.0505268
51
42.9494691
0
LINE
8
layer1
10
8.7790843
20
6.6276558
11
8.7159768
21
6.3779895
0
ENDSEC
0
EOF