0
SECTION
2
HEADER
9
$INSUNITS
70
1
9
$ACADVER
1
AC1014
9
$HANDSEED
5
FFFF
0
ENDSEC
0
SECTION
2
TABLES
0
TABLE
2
VPORT
5
8
100
AcDbSymbolTable
0
ENDTAB
0
TABLE
2
LTYPE
5
5
100
AcDbSymbolTable
0
LTYPE
5
14
100
AcDbSymbolTableRecord
100
AcDbLinetypeTableRecord
2
BYBLOCK
70
0
0
LTYPE
5
15
100
AcDbSymbolTableRecord
100
AcDbLinetypeTableRecord
2
BYLAYER
70
0
0
ENDTAB
0
TABLE
2
LAYER
5
2
100
AcDbSymbolTable
70
2
0
LAYER
5
50
100
AcDbSymbolTableRecord
100
AcDbLayerTableRecord
2
0
70
0
6
CONTINUOUS
0
ENDTAB
0
TABLE
2
STYLE
5
3
100
AcDbSymbolTable
70
1
0
STYLE
5
11
100
AcDbSymbolTableRecord
100
AcDbTextStyleTableRecord
2
STANDARD
70
0
0
ENDTAB
0
TABLE
2
VIEW
5
6
100
AcDbSymbolTable
70
0
0
ENDTAB
0
TABLE
2
UCS
5
7
100
AcDbSymbolTable
70
0
0
ENDTAB
0
TABLE
2
APPID
5
9
100
AcDbSymbolTable
70
2
0
APPID
5
12
100
AcDbSymbolTableRecord
100
AcDbRegAppTableRecord
2
ACAD
70
0
0
ENDTAB
0
TABLE
2
DIMSTYLE
5
A
100
AcDbSymbolTable
70
1
0
ENDTAB
0
TABLE
2
BLOCK_RECORD
5
1
100
AcDbSymbolTable
70
1
0
BLOCK_RECORD
5
1F
100
AcDbSymbolTableRecord
100
AcDbBlockTableRecord
2
*MODEL_SPACE
0
BLOCK_RECORD
5
1B
100
AcDbSymbolTableRecord
100
AcDbBlockTableRecord
2
*PAPER_SPACE
0
ENDTAB
0
ENDSEC
0
SECTION
2
BLOCKS
0
BLOCK
5
20
100
AcDbEntity
100
AcDbBlockBegin
2
*MODEL_SPACE
0
ENDBLK
5
21
100
AcDbEntity
100
AcDbBlockEnd
0
BLOCK
5
1C
100
AcDbEntity
100
AcDbBlockBegin
2
*PAPER_SPACE
0
ENDBLK
5
1D
100
AcDbEntity
100
AcDbBlockEnd
0
ENDSEC
0
SECTION
2
ENTITIES
0
SPLINE
5
100
100
AcDbEntity
8
0
100
AcDbSpline
70
0
71
3
72
14
73
10
74
0
42
0.000000001
43
0.0000000001
44
0.0000000001
40
-24.432480460591783
40
-24.432480460591783
40
-24.432480460591783
40
-24.432480460591783
40
-21.590865154430006
40
-21.590865154430006
40
-18.541927708250881
40
-18.541927708250881
40
-12.654766721098737
40
-12.654766721098737
40
0
40
0
40
0
40
0
10
1.9731533046161953e-14
20
23.963896205739683
30
0
10
0.37058648856021109
20
23.957040538350903
30
0
10
0.74144778100996589
20
23.942480779731774
30
0
10
1.5083360352701496
20
23.895031211442888
30
0
10
1.9051519383707549
20
23.860824411887183
30
0
10
3.0634007196696897
20
23.729640667839945
30
0
10
3.824227172868111
20
23.60344095206743
30
0
10
6.1813255285002331
20
23.056018034793734
30
0
10
7.6994703110863805
20
22.470253534614848
30
0
10
9.1139259359557503
20
21.600000000000001
30
0
0
SPLINE
5
101
100
AcDbEntity
8
0
100
AcDbSpline
70
0
71
3
72
14
73
10
74
0
42
0.000000001
43
0.0000000001
44
0.0000000001
40
-24.22250689327408
40
-24.22250689327408
40
-24.22250689327408
40
-24.22250689327408
40
-22.167186296749421
40
-22.167186296749421
40
-10.927281251950387
40
-10.927281251950387
40
-4.7257776416229795
40
-4.7257776416229795
40
0
40
0
40
0
40
0
10
-9.1139259359557503
20
21.600000000000001
30
0
10
-8.8830508165112736
20
21.74204750238788
30
0
10
-8.6483987801677369
20
21.877206934136066
30
0
10
-7.1042730858110259
20
22.7080762651239
30
0
10
-5.7184681839925915
20
23.186164153557591
30
0
10
-3.4792145260170422
20
23.667007279186681
30
0
10
-2.6696484198019039
20
23.785861480996438
30
0
10
-1.2417131761737215
20
23.919370343703633
30
0
10
-0.62007469731167275
20
23.952425129453328
30
0
10
-1.973153304616195e-14
20
23.963896205739683
30
0
0
SPLINE
5
102
100
AcDbEntity
8
0
100
AcDbSpline
70
0
71
3
72
16
73
12
74
0
42
0.000000001
43
0.0000000001
44
0.0000000001
40
-50.92489649459165
40
-50.92489649459165
40
-50.92489649459165
40
-50.92489649459165
40
-44.951496301732121
40
-44.951496301732121
40
-37.687875238673143
40
-37.687875238673143
40
-22.468920396046293
40
-22.468920396046293
40
-9.3968412243584378
40
-9.3968412243584378
40
0
40
0
40
0
40
0
10
-17.016448059320535
20
2.3603166665259231e-15
30
0
10
-16.737721801554745
20
1.4470102900904971
30
0
10
-16.56616835439959
20
2.3445643393946707
30
0
10
-16.178911974248866
20
4.3538136738611302
30
0
10
-15.911070603642806
20
5.732766788167714
30
0
10
-15.137266276755437
20
9.4794282449735707
30
0
10
-14.581379225555967
20
11.848173303193242
30
0
10
-13.254038997158784
20
15.794977182294396
30
0
10
-12.517956158073757
20
17.456533360898664
30
0
10
-10.883319976987227
20
19.911607328223312
30
0
10
-10.078741733001445
20
20.831972327788929
30
0
10
-9.1139259359557538
20
21.600000000000001
30
0
0
LINE
5
103
100
AcDbEntity
8
0
100
AcDbLine
10
-17.016448059310658
20
-6.097484721858635e-15
30
0
11
17.01644805931091
21
3.5623297837381985e-15
31
0
0
SPLINE
5
104
100
AcDbEntity
8
0
100
AcDbSpline
70
0
71
3
72
14
73
10
74
0
42
0.000000001
43
0.0000000001
44
0.0000000001
40
-132.96264036226125
40
-132.96264036226125
40
-132.96264036226125
40
-132.96264036226125
40
-102.71232665437941
40
-102.71232665437941
40
-75.133306138268495
40
-75.133306138268495
40
-23.953577518473391
40
-23.953577518473391
40
-1.3991823243429411
40
-1.3991823243429411
40
-1.3991823243429411
40
-1.3991823243429411
10
9.1139259359557538
20
21.600000000000001
30
0
10
10.34834845328969
20
20.617355794322659
30
0
10
11.315926059263232
20
19.388768665346543
30
0
10
12.816866811685353
20
16.772660782478308
30
0
10
13.37974191188723
20
15.40904605434037
30
0
10
14.693854867270883
20
11.535285225460237
30
0
10
15.330448632457413
20
8.6418577740855174
30
0
10
16.252968267978812
20
3.9851284838295884
30
0
10
16.492571118889575
20
2.7197126299013643
30
0
10
17.016448059310896
20
3.3000723763464297e-15
30
0
0
SPLINE
5
105
100
AcDbEntity
8
0
100
AcDbSpline
70
0
71
3
72
35
73
31
74
0
42
0.000000001
43
0.0000000001
44
0.0000000001
40
-133.73532333439059
40
-133.73532333439059
40
-133.73532333439059
40
-133.73532333439059
40
-132.96264036226125
40
-132.96264036226125
40
-132.96264036226125
40
-113.88415732771867
40
-113.88415732771867
40
-113.88415732771867
40
-102.71232665437941
40
-102.71232665437941
40
-102.71232665437941
40
-78.030464624072749
40
-78.030464624072749
40
-78.030464624072749
40
-75.133306138268495
40
-75.133306138268495
40
-75.133306138268495
40
-36.854968256942236
40
-36.854968256942236
40
-36.854968256942236
40
-23.953577518473391
40
-23.953577518473391
40
-23.953577518473391
40
-8.8573385490820566
40
-8.8573385490820566
40
-8.8573385490820566
40
-1.3991823243429411
40
-1.3991823243429411
40
-1.3991823243429411
40
5.1751519933278587
40
5.1751519933278587
40
5.1751519933278587
40
5.1751519933278587
10
10.264937332213508
20
23.240058058302218
30
0
10
10.296468154299085
20
23.214958403048406
30
0
10
10.32799897638469
20
23.189858747794563
30
0
10
10.359529798470295
20
23.16475909254072
30
0
10
11.287601268754823
20
22.425981210637552
30
0
10
12.079284867997346
20
21.577609632900945
30
0
10
12.756337539700732
20
20.668466137672407
30
0
10
13.152800811518901
20
20.136096914811677
30
0
10
13.510474016784348
20
19.58266080399429
30
0
10
13.835826210805088
20
19.015578833495059
30
0
10
14.555026017827682
20
17.762028830623279
30
0
10
15.115462601386991
20
16.445180873780746
30
0
10
15.57588138804589
20
15.15010353435831
30
0
10
15.629925373591011
20
14.998087276465233
30
0
10
15.682569578684948
20
14.846365174300317
30
0
10
15.73389296789027
20
14.695073358863565
30
0
10
16.411948458570937
20
12.696291755771437
30
0
10
16.943477731045064
20
10.53242593796492
30
0
10
17.439706479443135
20
8.2059709205213505
30
0
10
17.606956191240783
20
7.4218588906687391
30
0
10
17.77000612221758
20
6.6192411400639699
30
0
10
17.93265362083654
20
5.798222983222594
30
0
10
18.122827487426097
20
4.8382561915257485
30
0
10
18.29347687489884
20
3.9516231339917156
30
0
10
18.542267013011738
20
2.6566183832382104
30
0
10
18.665179462992331
20
2.0168333505236413
30
0
10
18.807236279608389
20
1.276992983333157
30
0
10
18.980346330128672
20
0.37829034071590895
30
0
10
19.133050143199419
20
-0.41447310618939248
30
0
10
19.28575395627017
20
-1.207236553094694
30
0
10
19.438457769340918
20
-1.9999999999999984
30
0
0
LINE
5
106
100
AcDbEntity
8
0
100
AcDbLine
10
-19.438457769340665
20
-2.0000000000000067
30
0
11
19.438457769340932
21
-1.999999999999994
31
0
0
SPLINE
5
107
100
AcDbEntity
8
0
100
AcDbSpline
70
0
71
3
72
38
73
34
74
0
42
0.000000001
43
0.0000000001
44
0.0000000001
40
-54.197501644027014
40
-54.197501644027014
40
-54.197501644027014
40
-54.197501644027014
40
-50.92489649459165
40
-50.92489649459165
40
-50.92489649459165
40
-44.951496301732121
40
-44.951496301732121
40
-44.951496301732121
40
-38.473508269396085
40
-38.473508269396085
40
-38.473508269396085
40
-37.687875238673143
40
-37.687875238673143
40
-37.687875238673143
40
-24.633880688563032
40
-24.633880688563032
40
-24.633880688563032
40
-22.468920396046293
40
-22.468920396046293
40
-22.468920396046293
40
-12.956297539044003
40
-12.956297539044003
40
-12.956297539044003
40
-9.3968412243584378
40
-9.3968412243584378
40
-9.3968412243584378
40
-2.0472540130299848
40
-2.0472540130299848
40
-2.0472540130299848
40
0
40
0
40
0
40
0.30709502240472375
40
0.30709502240472375
40
0.30709502240472375
40
0.30709502240472375
10
-19.438457769350542
20
-2.0000000000000036
30
0
10
-19.285753956279798
20
-1.2072365530947016
30
0
10
-19.133050143209054
20
-0.4144731061894002
30
0
10
-18.98034633013831
20
0.3782903407159014
30
0
10
-18.701844480375495
20
1.8241356143056531
30
0
10
-18.530410727711441
20
2.7210693959315839
30
0
10
-18.355269656676068
20
3.6297750969935096
30
0
10
-18.165345878467747
20
4.6151797139965813
30
0
10
-17.930776468058113
20
5.8238556917566386
30
0
10
-17.702458692066479
20
6.9444120885157838
30
0
10
-17.674768923974156
20
7.0803101657717864
30
0
10
-17.647165880306659
20
7.2149346904812024
30
0
10
-17.619734113528349
20
7.3477557922884342
30
0
10
-17.164610596354557
20
9.5514055789730303
30
0
10
-16.680748169526375
20
11.660143526121846
30
0
10
-16.075050105187636
20
13.636578618563977
30
0
10
-15.974597155440035
20
13.964363610311025
30
0
10
-15.870747694679016
20
14.288514333618778
30
0
10
-15.76301458788789
20
14.608855294206014
30
0
10
-15.28969486350425
20
16.016256414345534
30
0
10
-14.738268713394435
20
17.363223535904638
30
0
10
-14.055891215926561
20
18.621237113535575
30
0
10
-13.800557547297677
20
19.091963688127194
30
0
10
-13.526788779039203
20
19.550086901960686
30
0
10
-13.231700671043097
20
19.993282238262847
30
0
10
-12.622215299215254
20
20.908673496056437
30
0
10
-11.913624245806503
20
21.771643554638271
30
0
10
-11.08251557024238
20
22.542855611718849
30
0
10
-10.851007252511275
20
22.757679510443623
30
0
10
-10.610088325212951
20
22.965305598271609
30
0
10
-10.359529798470293
20
23.16475909254072
30
0
10
-10.327998976384874
20
23.189858747794418
30
0
10
-10.296468154299456
20
23.214958403048112
30
0
10
-10.264937332214034
20
23.240058058301813
30
0
0
SPLINE
5
108
100
AcDbEntity
8
0
100
AcDbSpline
70
0
71
3
72
26
73
22
74
0
42
0.000000001
43
0.0000000001
44
0.0000000001
40
-24.52807667341893
40
-24.52807667341893
40
-24.52807667341893
40
-24.52807667341893
40
-24.22250689327408
40
-24.22250689327408
40
-24.22250689327408
40
-22.167186296749421
40
-22.167186296749421
40
-22.167186296749421
40
-12.573693935083728
40
-12.573693935083728
40
-12.573693935083728
40
-10.927281251950387
40
-10.927281251950387
40
-10.927281251950387
40
-4.7257776416229795
40
-4.7257776416229795
40
-4.7257776416229795
40
0
40
0
40
0
40
0.093977496267731664
40
0.093977496267731664
40
0.093977496267731664
40
0.093977496267731664
10
-10.264937332213982
20
23.240058058301944
30
0
10
-10.230612536554954
20
23.26117662449942
30
0
10
-10.196287740895892
20
23.282295190696921
30
0
10
-10.161962945236828
20
23.303413756894425
30
0
10
-9.8982194173730687
20
23.46568377323122
30
0
10
-9.6300190804957104
20
23.62016611194089
30
0
10
-9.3573751687029887
20
23.766871438726799
30
0
10
-8.0838699952477917
20
24.452124197194163
30
0
10
-6.7522842031113521
20
24.945064919769994
30
0
10
-5.3958593130851051
20
25.287890877854963
30
0
10
-5.1630728513393631
20
25.346725865596635
30
0
10
-4.9295151310930203
20
25.401169837771757
30
0
10
-4.6953038248455803
20
25.451462887937186
30
0
10
-3.8130478616069277
20
25.640912936821824
30
0
10
-2.9259246518543014
20
25.770623030938701
30
0
10
-2.045443349278941
20
25.852946131980111
30
0
10
-1.3744769952497928
20
25.915680037625307
30
0
10
-0.70339238132479787
20
25.951225995852109
30
0
10
-0.036992684773072208
20
25.963554061792383
30
0
10
-0.024661789844993724
20
25.963782177271067
30
0
10
-0.01233089491691494
20
25.964010292749752
30
0
10
1.0904253222150715e-11
20
25.964238408228439
30
0
0
SPLINE
5
109
100
AcDbEntity
8
0
100
AcDbSpline
70
0
71
3
72
26
73
22
74
0
42
0.000000001
43
0.0000000001
44
0.0000000001
40
-24.527032369058531
40
-24.527032369058531
40
-24.527032369058531
40
-24.527032369058531
40
-24.432480460591783
40
-24.432480460591783
40
-24.432480460591783
40
-21.590865154430006
40
-21.590865154430006
40
-21.590865154430006
40
-18.541927708250881
40
-18.541927708250881
40
-18.541927708250881
40
-12.654766721098737
40
-12.654766721098737
40
-12.654766721098737
40
-3.0962523762960483
40
-3.0962523762960483
40
-3.0962523762960483
40
0
40
0
40
0
40
0.30709502240666708
40
0.30709502240666708
40
0.30709502240666708
40
0.30709502240666708
10
1.0773293893030438e-11
20
25.964238408228042
30
0
10
0.012330894931672465
20
25.964010292749485
30
0
10
0.024661789852383546
20
25.963782177270932
30
0
10
0.0369926847730917
20
25.963554061792383
30
0
10
0.43526522289367486
20
25.956186216132256
30
0
10
0.83490426393009143
20
25.940522953721825
30
0
10
1.2349058525777206
20
25.915773712107072
30
0
10
1.6640905584201802
20
25.889218827617334
30
0
10
2.0946947215627629
20
25.852143762278445
30
0
10
2.5254205068942674
20
25.803359578699069
30
0
10
3.3571010219467712
20
25.709163093818361
30
0
10
4.1935244148601329
20
25.57090286288161
30
0
10
5.0250656146338457
20
25.377782067423194
30
0
10
6.3750883152133797
20
25.064246841635487
30
0
10
7.6929659411717637
20
24.609689439282587
30
0
10
8.9547864880564809
20
23.976050297598622
30
0
10
9.3635231102780434
20
23.77079803481158
30
0
10
9.766257821726299
20
23.546874050978978
30
0
10
10.161962945236844
20
23.303413756894415
30
0
10
10.196287740895723
20
23.282295190697027
30
0
10
10.230612536554604
20
23.26117662449964
30
0
10
10.264937332213497
20
23.240058058302242
30
0
0
LINE
5
110
100
AcDbEntity
8
0
100
AcDbLine
10
-17.016448059310658
20
-6.097484721858635e-15
30
0
11
-19.053213435316806
21
-3.9700004053197701e-16
31
0
0
LINE
5
111
100
AcDbEntity
8
0
100
AcDbLine
10
17.01644805931091
20
3.5623297837381985e-15
30
0
11
19.053213435317065
21
2.0343366493288684e-15
31
0
0
LINE
5
112
100
AcDbEntity
8
0
100
AcDbLine
10
-8.9071695730532756
20
24
30
0
11
8.9068956405743691
21
24.000000000000043
31
0
0
LINE
5
113
100
AcDbEntity
8
0
100
AcDbLine
10
1.9313721242387577e-08
20
24
30
0
11
-17.222864134864498
21
24
31
0
0
LINE
5
114
100
AcDbEntity
8
0
100
AcDbLine
10
-1.6094842611447111e-07
20
24
30
0
11
17.222952973725864
21
24
31
0
0
ENDSEC
0
SECTION
2
OBJECTS
0
DICTIONARY
5
C
100
AcDbDictionary
3
ACAD_GROUP
350
D
3
ACAD_MLINESTYLE
350
17
0
DICTIONARY
5
D
100
AcDbDictionary
0
DICTIONARY
5
1A
330
C
100
AcDbDictionary
0
DICTIONARY
5
17
100
AcDbDictionary
0
ENDSEC
0
EOF
