0
SECTION
2
HEADER
9
$INSUNITS
70
1
9
$ACADVER
1
AC1014
9
$HANDSEED
5
FFFF
0
ENDSEC
0
SECTION
2
TABLES
0
TABLE
2
VPORT
5
8
100
AcDbSymbolTable
0
ENDTAB
0
TABLE
2
LTYPE
5
5
100
AcDbSymbolTable
0
LTYPE
5
14
100
AcDbSymbolTableRecord
100
AcDbLinetypeTableRecord
2
BYBLOCK
70
0
0
LTYPE
5
15
100
AcDbSymbolTableRecord
100
AcDbLinetypeTableRecord
2
BYLAYER
70
0
0
ENDTAB
0
TABLE
2
LAYER
5
2
100
AcDbSymbolTable
70
2
0
LAYER
5
50
100
AcDbSymbolTableRecord
100
AcDbLayerTableRecord
2
0
70
0
6
CONTINUOUS
0
ENDTAB
0
TABLE
2
STYLE
5
3
100
AcDbSymbolTable
70
1
0
STYLE
5
11
100
AcDbSymbolTableRecord
100
AcDbTextStyleTableRecord
2
STANDARD
70
0
0
ENDTAB
0
TABLE
2
VIEW
5
6
100
AcDbSymbolTable
70
0
0
ENDTAB
0
TABLE
2
UCS
5
7
100
AcDbSymbolTable
70
0
0
ENDTAB
0
TABLE
2
APPID
5
9
100
AcDbSymbolTable
70
2
0
APPID
5
12
100
AcDbSymbolTableRecord
100
AcDbRegAppTableRecord
2
ACAD
70
0
0
ENDTAB
0
TABLE
2
DIMSTYLE
5
A
100
AcDbSymbolTable
70
1
0
ENDTAB
0
TABLE
2
BLOCK_RECORD
5
1
100
AcDbSymbolTable
70
1
0
BLOCK_RECORD
5
1F
100
AcDbSymbolTableRecord
100
AcDbBlockTableRecord
2
*MODEL_SPACE
0
BLOCK_RECORD
5
1B
100
AcDbSymbolTableRecord
100
AcDbBlockTableRecord
2
*PAPER_SPACE
0
ENDTAB
0
ENDSEC
0
SECTION
2
BLOCKS
0
BLOCK
5
20
100
AcDbEntity
100
AcDbBlockBegin
2
*MODEL_SPACE
0
ENDBLK
5
21
100
AcDbEntity
100
AcDbBlockEnd
0
BLOCK
5
1C
100
AcDbEntity
100
AcDbBlockBegin
2
*PAPER_SPACE
0
ENDBLK
5
1D
100
AcDbEntity
100
AcDbBlockEnd
0
ENDSEC
0
SECTION
2
ENTITIES
0
SPLINE
5
100
100
AcDbEntity
8
0
100
AcDbSpline
70
0
71
3
72
26
73
22
74
0
42
0.000000001
43
0.0000000001
44
0.0000000001
40
0.42281193526334843
40
0.42281193526334843
40
0.42281193526334843
40
0.42281193526334843
40
0.49110064412292109
40
0.49110064412292109
40
0.49110064412292109
40
0.55652087417094698
40
0.55652087417094698
40
0.55652087417094698
40
0.61554090385435223
40
0.61554090385435223
40
0.61554090385435223
40
0.67142879553893497
40
0.67142879553893497
40
0.67142879553893497
40
0.69946973056125572
40
0.69946973056125572
40
0.69946973056125572
40
0.73618060467705493
40
0.73618060467705493
40
0.73618060467705493
40
0.75128033036096864
40
0.75128033036096864
40
0.75128033036096864
40
0.75128033036096864
10
5.5948246910244104e-15
20
-6.8103135321346384
30
-5.9055502125854457e-15
10
1.0145649262776379
20
-6.8941091038792788
30
-5.7275857362360611e-15
10
1.9404825621175836
20
-6.9623351290204329
30
-5.545777397822428e-15
10
2.7546327172664502
20
-7.015743127635667
30
-5.3635258834259682e-15
10
3.5345843568998978
20
-7.0669077142000152
30
-5.1889298748393135e-15
10
4.2118916926126557
20
-7.1044551813448829
30
-5.0139271396797583e-15
10
4.7784535912467927
20
-7.1302630838037198
30
-4.841507573658111e-15
10
5.2895875333060838
20
-7.1535461442281285
30
-4.6859561808072004e-15
10
5.7108424403438578
20
-7.1672123911500645
30
-4.5325072470589266e-15
10
6.0441842858018209
20
-7.1744881078138576
30
-4.3833561949092441e-15
10
6.3598359900254078
20
-7.1813777089715476
30
-4.2421204501646632e-15
10
6.5962032557984678
20
-7.1826171130293179
30
-4.1047385221084832e-15
10
6.7634126544444388
20
-7.1826761714137106
30
-3.9730745271052888e-15
10
6.8473075329454014
20
-7.1827058030972353
30
-3.9070140367668745e-15
10
6.9139754441473373
20
-7.1824577771163964
30
-3.8423929699497629e-15
10
6.9662162076327068
20
-7.1825550489926444
30
-3.7794467759044914e-15
10
7.0346092227193306
20
-7.1826823962298558
30
-3.6970383325403452e-15
10
7.078197882720362
20
-7.1833822344681169
30
-3.6175005791424546e-15
10
7.1064534138178432
20
-7.1861255917390867
30
-3.5413618441829161e-15
10
7.1180753318162946
20
-7.187253975174305
30
-3.510044855974388e-15
10
7.1271378031783863
20
-7.1887316862550001
30
-2.6527018195646552e-15
10
7.1343958772585809
20
-7.1906874419114422
30
-3.4491727803192594e-15
0
SPLINE
5
101
100
AcDbEntity
8
0
100
AcDbSpline
70
0
71
3
72
17
73
13
74
0
42
0.000000001
43
0.0000000001
44
0.0000000001
40
0.75128033036096864
40
0.75128033036096864
40
0.75128033036096864
40
0.75128033036096864
40
0.77502104659687743
40
0.77502104659687743
40
0.77502104659687743
40
0.81638369234560948
40
0.81638369234560948
40
0.81638369234560948
40
0.86079337105286435
40
0.86079337105286435
40
0.86079337105286435
40
0.90263039007560519
40
0.90263039007560519
40
0.90263039007560519
40
0.90263039007560519
10
7.1343958772585809
20
-7.1906874419114422
30
-2.6225740739176923e-15
10
7.1458074671618785
20
-7.193762401088736
30
-2.5752053815848148e-15
10
7.1527726018825986
20
-7.1980082837341239
30
-3.3559402863973154e-15
10
7.15825953102539
20
-7.2040746400866436
30
-3.3117355255954725e-15
10
7.1678192218167904
20
-7.2146438472791079
30
-3.2347190681606927e-15
10
7.1732034930696607
20
-7.2305590278773417
30
-3.162727221099802e-15
10
7.187940789020395
20
-7.2572369385721363
30
-3.0965156763189013e-15
10
7.2037637269959198
20
-7.2858801121673116
30
-3.025426572195987e-15
10
7.2304849195464707
20
-7.3270043218673608
30
-2.9610007653868488e-15
10
7.2783902032177599
20
-7.390451325400667
30
-2.9041735597645843e-15
10
7.3235203262582145
20
-7.4502228340228447
30
-2.8506383631174738e-15
10
7.3874302228174189
20
-7.5299821278473953
30
-2.6618236663669469e-15
10
7.4730441119198083
20
-7.638782163838596
30
-2.6225740739176923e-15
0
SPLINE
5
102
100
AcDbEntity
8
0
100
AcDbSpline
70
0
71
3
72
14
73
10
74
0
42
0.000000001
43
0.0000000001
44
0.0000000001
40
-47.903273785704194
40
-47.903273785704194
40
-47.903273785704194
40
-47.903273785704194
40
-37.085271945501134
40
-37.085271945501134
40
-25.062097057232165
40
-25.062097057232165
40
-10.486905125581149
40
-10.486905125581149
40
-0
40
-0
40
-0
40
-0
10
7.4730441119198083
20
-7.638782163838596
30
-2.6225740739176923e-15
10
8.2045358127598167
20
-7.2527424345644773
30
-2.6225740739176923e-15
10
8.771423508657108
20
-6.6901556117568992
30
-2.6225740739176923e-15
10
10.145941864732656
20
-5.3550204360499212
30
-2.6225740739176923e-15
10
10.95328473770825
20
-4.5858563370059784
30
-2.6225740739176923e-15
10
13.671969414014244
20
-3.0770852467261252
30
-2.6225740739176923e-15
10
15.593647237641564
20
-2.4823181531690226
30
-2.6225740739176923e-15
10
20.442863859231942
20
-1.8273256362752623
30
-2.6225740739176923e-15
10
22.624704322683073
20
-1.7118281823109152
30
-2.6225740739176923e-15
10
24.000000000000025
20
-1.6610092723798373
30
-2.6225740739176923e-15
0
LINE
5
103
100
AcDbEntity
8
0
100
AcDbLine
10
24.000000000000025
20
-1.6610092723798378
30
-2.6225740739176923e-15
11
24
21
25.941439412182586
31
0
0
LINE
5
104
100
AcDbEntity
8
0
100
AcDbLine
10
24
20
25.941439412182586
30
0
11
0
21
25.941439412182586
31
0
0
LINE
5
105
100
AcDbEntity
8
0
100
AcDbLine
10
0
20
25.941439412182586
30
0
11
5.5948246910244104e-15
21
-6.8103135321346384
31
-5.9055502125854457e-15
0
SPLINE
5
106
100
AcDbEntity
8
0
100
AcDbSpline
70
0
71
3
72
29
73
25
74
0
42
0.000000001
43
0.0000000001
44
0.0000000001
40
0.42281193526334843
40
0.42281193526334843
40
0.42281193526334843
40
0.42281193526334843
40
0.49110064412292109
40
0.49110064412292109
40
0.49110064412292109
40
0.55652087417094698
40
0.55652087417094698
40
0.55652087417094698
40
0.61554090385435223
40
0.61554090385435223
40
0.61554090385435223
40
0.67142879553893497
40
0.67142879553893497
40
0.67142879553893497
40
0.69946973056125572
40
0.69946973056125572
40
0.69946973056125572
40
0.7295563178185519
40
0.7295563178185519
40
0.7295563178185519
40
0.73618060467705493
40
0.73618060467705493
40
0.73618060467705493
40
0.75128033036096864
40
0.75128033036096864
40
0.75128033036096864
40
0.75128033036096864
10
0.020578086261406871
20
-6.5611618868143271
30
-5.9055502125854457e-15
10
1.0338018377393179
20
-6.6448466874232412
30
-5.7275857362360611e-15
10
1.9583699727319643
20
-6.7129712001602462
30
-5.545777397822428e-15
10
2.7709974664478234
20
-6.7662793126559579
30
-5.3635258834259682e-15
10
3.549487586282781
20
-6.8173480239731177
30
-5.1889298748393135e-15
10
4.2252311831676419
20
-6.8548035827063512
30
-5.0139271396797583e-15
10
4.7898297395880345
20
-6.8805220514343501
30
-4.841507573658111e-15
10
5.2991684838925099
20
-6.9037233374071727
30
-4.6859561808072004e-15
10
5.7185319791908098
20
-6.9173206846544577
30
-4.5325072470589266e-15
10
6.0496396346468968
20
-6.9245476365632452
30
-4.3833561949092441e-15
10
6.3632231898285685
20
-6.9313920970743208
30
-4.2421204501646632e-15
10
6.5974437228109828
20
-6.9326175355686583
30
-4.1047385221084832e-15
10
6.7635009544759974
20
-6.9326761870075027
30
-3.9730745271052888e-15
10
6.8468563223993666
20
-6.9327056281358113
30
-3.9070140367668745e-15
10
6.9132536208791127
20
-6.9324559997110144
30
-3.8423929699497629e-15
10
6.966681704790183
20
-6.9325554823682278
30
-3.7794467759044914e-15
10
7.0239691511936693
20
-6.9326621511269764
30
-3.7119085087907073e-15
10
7.0655163085009658
20
-6.9329275314951913
30
-3.6462984000234808e-15
10
7.1046351516849828
20
-6.9352837490351895
30
-3.5829072792147854e-15
10
7.1132481072391514
20
-6.9358025270791233
30
-3.5689501971127933e-15
10
7.1218069615776978
20
-6.9364407143392581
30
-3.5551006840651963e-15
10
7.1306125565022445
20
-6.9372956582006262
30
-3.5413618441829161e-15
10
7.1506879284674438
20
-6.9392447957856955
30
-3.510044855974388e-15
10
7.1722502799659562
20
-6.941970649358276
30
-2.6527018195646552e-15
10
7.1994406837693381
20
-6.9492973568914103
30
-3.4491727803192594e-15
0
SPLINE
5
107
100
AcDbEntity
8
0
100
AcDbSpline
70
0
71
3
72
23
73
19
74
0
42
0.000000001
43
0.0000000001
44
0.0000000001
40
0.75128033036096864
40
0.75128033036096864
40
0.75128033036096864
40
0.75128033036096864
40
0.7650948510981278
40
0.7650948510981278
40
0.7650948510981278
40
0.77502104659687743
40
0.77502104659687743
40
0.77502104659687743
40
0.79007236475075571
40
0.79007236475075571
40
0.79007236475075571
40
0.81638369234560948
40
0.81638369234560948
40
0.81638369234560948
40
0.86079337105286435
40
0.86079337105286435
40
0.86079337105286435
40
0.90263039007560519
40
0.90263039007560519
40
0.90263039007560519
40
0.90263039007560519
10
7.1994406837693345
20
-6.9492973568914103
30
-2.6225740739176923e-15
10
7.2242052107909585
20
-6.955970389333145
30
-2.5950106349707709e-15
10
7.2551274342493732
20
-6.9674963574347331
30
-2.8478411741739269e-15
10
7.2856169480291664
20
-6.9871054906384407
30
-3.0553713325557507e-15
10
7.3075246841134147
20
-7.0011953091304751
30
-3.2044886970433497e-15
10
7.328131187850988
20
-7.0191958980321285
30
-3.3302179122823106e-15
10
7.3436690035827041
20
-7.0363745283215691
30
-3.3117355255954725e-15
10
7.3662247227796476
20
-7.0613121622649144
30
-3.2837102582811583e-15
10
7.3791181333478431
20
-7.0835954079178407
30
-3.2563503174971693e-15
10
7.3869566328026446
20
-7.0979074634535628
30
-3.2296921151523675e-15
10
7.4006591753240922
20
-7.1229264802537013
30
-3.1830907020526619e-15
10
7.4024135246528866
20
-7.128463258079857
30
-3.1386337181838856e-15
10
7.4067711715806537
20
-7.1363516058450793
30
-3.0965156763189013e-15
10
7.4139635286574208
20
-7.1493714339343395
30
-3.025426572195987e-15
10
7.4343654796373224
20
-7.1821416851851296
30
-2.9610007653868488e-15
10
7.4779061076334044
20
-7.2398080252336596
30
-2.9041735597645843e-15
10
7.5190894425924908
20
-7.2943523050795287
30
-2.8506383631174738e-15
10
7.5832257511303487
20
-7.3745302364706689
30
-2.6618236663669469e-15
10
7.6695112282895073
20
-7.4841837415136085
30
-2.6225740739176923e-15
0
LINE
5
108
100
AcDbEntity
8
0
100
AcDbLine
10
7.669511228289509
20
-7.4841837415136085
30
-2.6225740739176923e-15
11
7.6933309394746354
21
-7.5144543607018432
31
-2.6117373356091724e-15
0
LINE
5
109
100
AcDbEntity
8
0
100
AcDbLine
10
0.020578086261406871
20
-6.5611618868143271
30
-5.9055502125854457e-15
11
5.5517980851241986e-15
21
-6.5594622888299865
31
-5.9091645853638581e-15
0
SPLINE
5
110
100
AcDbEntity
8
0
100
AcDbSpline
70
0
71
3
72
29
73
25
74
0
42
0.000000001
43
0.0000000001
44
0.0000000001
40
0.42281193526334843
40
0.42281193526334843
40
0.42281193526334843
40
0.42281193526334843
40
0.49110064412292109
40
0.49110064412292109
40
0.49110064412292109
40
0.55652087417094698
40
0.55652087417094698
40
0.55652087417094698
40
0.61554090385435223
40
0.61554090385435223
40
0.61554090385435223
40
0.67142879553893497
40
0.67142879553893497
40
0.67142879553893497
40
0.69946973056125572
40
0.69946973056125572
40
0.69946973056125572
40
0.72048624089199154
40
0.72048624089199154
40
0.72048624089199154
40
0.73618060467705493
40
0.73618060467705493
40
0.73618060467705493
40
0.75128033036096864
40
0.75128033036096864
40
0.75128033036096864
40
0.75128033036096864
10
0.086427962297890945
20
-5.76387662178933
30
-5.9055502125854457e-15
10
1.0953599544166936
20
-5.8472069547639194
30
-5.7275857362360611e-15
10
2.0156096866979829
20
-5.9150066278076432
30
-5.545777397822428e-15
10
2.8233646638282184
20
-5.9679951047208872
30
-5.3635258834259682e-15
10
3.5971779203080083
20
-6.0187570152470409
30
-5.1889298748393135e-15
10
4.2679175529435991
20
-6.055918467063055
30
-5.0139271396797583e-15
10
4.8262334142800105
20
-6.0813507478523716
30
-4.841507573658111e-15
10
5.3298275257690735
20
-6.1042903555801171
30
-4.6859561808072004e-15
10
5.7431385035010587
20
-6.1176672238685121
30
-4.5325072470589266e-15
10
6.067096750951138
20
-6.1247381285612832
30
-4.3833561949092441e-15
10
6.3740622291986817
20
-6.131438139003194
30
-4.2421204501646632e-15
10
6.6014132172510296
20
-6.1326188876945471
30
-4.1047385221084832e-15
10
6.7637835145769865
20
-6.1326762369076357
30
-3.9730745271052888e-15
10
6.8454124486520591
20
-6.132705068259253
30
-3.9070140367668745e-15
10
6.9109437864207957
20
-6.1324503120137903
30
-3.8423929699497629e-15
10
6.9681712956941046
20
-6.1325568691700925
30
-3.7794467759044914e-15
10
7.0109504764695858
20
-6.1326365236563731
30
-3.7322689861346458e-15
10
7.048780473372859
20
-6.1327998236724852
30
-3.6860320413003308e-15
10
7.0918731529200603
20
-6.1340646557373528
30
-3.6408350706140417e-15
10
7.1240531951175443
20
-6.1350091862155649
30
-3.6070836205031217e-15
10
7.1589546430214233
20
-6.136285600232652
30
-3.5739121180015189e-15
10
7.2079218130923266
20
-6.1410398708775524
30
-3.5413618441829161e-15
10
7.2550482377511223
20
-6.1456154217421464
30
-3.510044855974388e-15
10
7.3166102056861826
20
-6.152335331288759
30
-2.6527018195646552e-15
10
7.4075840646037614
20
-6.1768490848273094
30
-3.4491727803192594e-15
0
SPLINE
5
111
100
AcDbEntity
8
0
100
AcDbSpline
70
0
71
3
72
20
73
16
74
0
42
0.000000001
43
0.0000000001
44
0.0000000001
40
0.75128033036096864
40
0.75128033036096864
40
0.75128033036096864
40
0.75128033036096864
40
0.76105466778113207
40
0.76105466778113207
40
0.76105466778113207
40
0.77029270997471022
40
0.77029270997471022
40
0.77029270997471022
40
0.77502104659687743
40
0.77502104659687743
40
0.77502104659687743
40
0.78539326603968285
40
0.78539326603968285
40
0.78539326603968285
40
0.79340282357138103
40
0.79340282357138103
40
0.79340282357138103
40
0.79340282357138103
10
7.4075840646037472
20
-6.176849084827305
30
-2.6225740739176923e-15
10
7.4661415803748019
20
-6.1926279528067525
30
-2.603071815543821e-15
10
7.5384701612064715
20
-6.2169928036380844
30
-2.7239387140845692e-15
10
7.6180580433593468
20
-6.2570039398802217
30
-2.8698122452706692e-15
10
7.6932791229906954
20
-6.2948197578665521
30
-3.0076820340957919e-15
10
7.7738550414679599
20
-6.347739326473504
30
-3.1678896252130086e-15
10
7.8424062780901922
20
-6.4071424509872683
30
-3.2530386884800882e-15
10
7.877493076334205
20
-6.4375469418116174
30
-3.296620805313116e-15
10
7.9093903034369788
20
-6.4692317209702122
30
-3.3205395981978549e-15
10
7.9369793157661102
20
-6.4997341706733298
30
-3.3117355255954725e-15
10
7.9945916783946043
20
-6.56343047746347
30
-3.2924226508322446e-15
10
8.0344619412220517
20
-6.6225165107725825
30
-3.2734257339282654e-15
10
8.0605084422477855
20
-6.6650831458094819
30
-3.2547566910051972e-15
10
8.0806218759844537
20
-6.6979536335714167
30
-3.2403402226515722e-15
10
8.0930937712467088
20
-6.721609951946081
30
-3.2261675077455087e-15
10
8.1013595065573689
20
-6.7375107070842937
30
-3.2120993187907997e-15
0
SPLINE
5
112
100
AcDbEntity
8
0
100
AcDbSpline
70
0
71
3
72
14
73
10
74
0
42
0.000000001
43
0.0000000001
44
0.0000000001
40
0.85142142272625398
40
0.85142142272625398
40
0.85142142272625398
40
0.85142142272625398
40
0.86079337105286435
40
0.86079337105286435
40
0.86079337105286435
40
0.89400433716661931
40
0.89400433716661931
40
0.89400433716661931
40
0.90263039007560519
40
0.90263039007560519
40
0.90263039007560519
40
0.90263039007560519
10
8.1013595065572144
20
-6.737510707084251
30
-2.9411573905017707e-15
10
8.1051318563581383
20
-6.7427223755137717
30
-2.9284905701339114e-15
10
8.1101159417983695
20
-6.7494836425745977
30
-2.9161660274009362e-15
10
8.1163570017634665
20
-6.7577494646992333
30
-2.9041735597645843e-15
10
8.1390233651707451
20
-6.7877693858640162
30
-2.8616763732233068e-15
10
8.1850250531278395
20
-6.8460794844529653
30
-2.733933278168463e-15
10
8.2467762042718604
20
-6.9242529019241976
30
-2.6634296622228969e-15
10
8.2628151443958728
20
-6.9445572806909395
30
-2.6451173999617461e-15
10
8.2799723596955932
20
-6.9662970732489393
30
-2.6306666452583839e-15
10
8.2982060006725415
20
-6.989468790073647
30
-2.6225740739176923e-15
0
LINE
5
113
100
AcDbEntity
8
0
100
AcDbLine
10
8.2982060006725415
20
-6.9894687900736461
30
-2.6225740739176923e-15
11
8.3461703801386982
21
-7.0504229911609562
31
-2.6122190717813535e-15
0
LINE
5
114
100
AcDbEntity
8
0
100
AcDbLine
10
0.086427962297890945
20
-5.76387662178933
30
-5.9055502125854457e-15
11
5.4148474948344904e-15
21
-5.7567383102550975
31
-5.9310533687490743e-15
0
ENDSEC
0
SECTION
2
OBJECTS
0
DICTIONARY
5
C
100
AcDbDictionary
3
ACAD_GROUP
350
D
3
ACAD_MLINESTYLE
350
17
0
DICTIONARY
5
D
100
AcDbDictionary
0
DICTIONARY
5
1A
330
C
100
AcDbDictionary
0
DICTIONARY
5
17
100
AcDbDictionary
0
ENDSEC
0
EOF
