0
SECTION
2
HEADER
9
$INSUNITS
70
4
9
$ACADVER
1
AC1014
9
$HANDSEED
5
FFFF
0
ENDSEC
0
SECTION
2
TABLES
0
TABLE
2
VPORT
5
8
100
AcDbSymbolTable
0
ENDTAB
0
TABLE
2
LTYPE
5
5
100
AcDbSymbolTable
0
LTYPE
5
14
100
AcDbSymbolTableRecord
100
AcDbLinetypeTableRecord
2
BYBLOCK
70
0
0
LTYPE
5
15
100
AcDbSymbolTableRecord
100
AcDbLinetypeTableRecord
2
BYLAYER
70
0
0
ENDTAB
0
TABLE
2
LAYER
5
2
100
AcDbSymbolTable
70
2
0
LAYER
5
50
100
AcDbSymbolTableRecord
100
AcDbLayerTableRecord
2
0
70
0
6
CONTINUOUS
0
ENDTAB
0
TABLE
2
STYLE
5
3
100
AcDbSymbolTable
70
1
0
STYLE
5
11
100
AcDbSymbolTableRecord
100
AcDbTextStyleTableRecord
2
STANDARD
70
0
0
ENDTAB
0
TABLE
2
VIEW
5
6
100
AcDbSymbolTable
70
0
0
ENDTAB
0
TABLE
2
UCS
5
7
100
AcDbSymbolTable
70
0
0
ENDTAB
0
TABLE
2
APPID
5
9
100
AcDbSymbolTable
70
2
0
APPID
5
12
100
AcDbSymbolTableRecord
100
AcDbRegAppTableRecord
2
ACAD
70
0
0
ENDTAB
0
TABLE
2
DIMSTYLE
5
A
100
AcDbSymbolTable
70
1
0
ENDTAB
0
TABLE
2
BLOCK_RECORD
5
1
100
AcDbSymbolTable
70
1
0
BLOCK_RECORD
5
1F
100
AcDbSymbolTableRecord
100
AcDbBlockTableRecord
2
*MODEL_SPACE
0
BLOCK_RECORD
5
1B
100
AcDbSymbolTableRecord
100
AcDbBlockTableRecord
2
*PAPER_SPACE
0
ENDTAB
0
ENDSEC
0
SECTION
2
BLOCKS
0
BLOCK
5
20
100
AcDbEntity
100
AcDbBlockBegin
2
*MODEL_SPACE
0
ENDBLK
5
21
100
AcDbEntity
100
AcDbBlockEnd
0
BLOCK
5
1C
100
AcDbEntity
100
AcDbBlockBegin
2
*PAPER_SPACE
0
ENDBLK
5
1D
100
AcDbEntity
100
AcDbBlockEnd
0
ENDSEC
0
SECTION
2
ENTITIES
0
CIRCLE
5
100
100
AcDbEntity
8
0
100
AcDbCircle
10
18.414999999999992
20
-25.399999999999959
30
0
40
1.9050000000000011
210
0
220
-0
230
1
0
CIRCLE
5
101
100
AcDbEntity
8
0
100
AcDbCircle
10
18.414999999999743
20
25.400000000000034
30
0
40
1.9050000000000011
210
0
220
-0
230
1
0
CIRCLE
5
102
100
AcDbEntity
8
0
100
AcDbCircle
10
-18.414999999999992
20
-25.399999999999959
30
0
40
1.9050000000000056
210
0
220
-0
230
1
0
CIRCLE
5
103
100
AcDbEntity
8
0
100
AcDbCircle
10
-18.414999999999992
20
25.399999999999999
30
0
40
1.9050000000000056
210
0
220
-0
230
1
0
LWPOLYLINE
5
104
100
AcDbEntity
8
0
100
AcDbPolyline
90
8
70
1
43
0.0
10
-22.22500000000003
20
31.749999999999979
42
0.41421356237309503
10
-24.764999999999986
20
29.210000000000022
10
-24.765000000000008
20
-29.209999999999962
42
0.41421356237309503
10
-22.224999999999994
20
-31.749999999999975
10
22.224999999999994
20
-31.749999999999975
42
0.41421356237309503
10
24.765000000000043
20
-29.209999999999926
10
24.765000000000022
20
29.210000000000026
42
0.41421356237309453
10
22.22500000000003
20
31.750000000000014
0
LWPOLYLINE
5
105
100
AcDbEntity
8
0
100
AcDbPolyline
90
10
70
1
43
0.0
10
-5.1149999999999842
20
-9.0699999999999914
10
-5.1029999999999838
20
-8.9999999999999911
10
-3.5149999999999837
20
-8.9999999999999893
10
-3.5149999999999837
20
-0.19499999999999185
10
-3.4799999999999831
20
-0.10999999999999199
10
-0.51499999999998103
20
-0.10999999999999677
10
-0.51499999999998103
20
22.75
10
-8.7649999999999828
20
22.749999999999982
10
-8.7650000000000183
20
-18.999999999999989
10
-5.1149999999999851
20
-18.999999999999989
0
CIRCLE
5
106
100
AcDbEntity
8
0
100
AcDbCircle
10
18.414999999999992
20
-25.399999999999959
30
0
40
1.9050000000000031
210
-0
220
0
230
1
0
LWPOLYLINE
5
107
100
AcDbEntity
8
0
100
AcDbPolyline
90
4
70
1
43
0.0
10
5.5641496158974935
20
17.188233116656392
10
5.5641496158974935
20
-14.561766883343603
42
0.99999999999999989
10
9.3741496158974957
20
-14.561766883343603
10
9.3741496158974957
20
17.188233116656392
42
0.99999999999999989
0
CIRCLE
5
108
100
AcDbEntity
8
0
100
AcDbCircle
10
-18.414999999999992
20
25.399999999999999
30
0
40
1.9050000000000056
210
-0
220
0
230
1
0
CIRCLE
5
109
100
AcDbEntity
8
0
100
AcDbCircle
10
-18.414999999999992
20
-25.399999999999959
30
0
40
1.9050000000000056
210
-0
220
0
230
1
0
CIRCLE
5
110
100
AcDbEntity
8
0
100
AcDbCircle
10
18.414999999999743
20
25.400000000000034
30
0
40
1.9050000000000031
210
-0
220
0
230
1
0
LWPOLYLINE
5
111
100
AcDbEntity
8
0
100
AcDbPolyline
90
8
70
1
43
0.0
10
-24.765000000000008
20
-29.209999999999965
42
0.41421356237309354
10
-22.224999999999994
20
-31.749999999999975
10
22.224999999999994
20
-31.749999999999975
42
0.41421356237309404
10
24.765000000000008
20
-29.209999999999926
10
24.765000000000022
20
29.210000000000026
42
0.41421356237309553
10
22.22500000000003
20
31.750000000000021
10
-22.22500000000003
20
31.75
42
0.41421356237309503
10
-24.765000000000008
20
29.210000000000022
0
ENDSEC
0
SECTION
2
OBJECTS
0
DICTIONARY
5
C
100
AcDbDictionary
3
ACAD_GROUP
350
D
3
ACAD_MLINESTYLE
350
17
0
DICTIONARY
5
D
100
AcDbDictionary
0
DICTIONARY
5
1A
330
C
100
AcDbDictionary
0
DICTIONARY
5
17
100
AcDbDictionary
0
ENDSEC
0
EOF
