<?xml version="1.0" encoding="UTF-8"?>
<svg viewBox="-33.55 -33.55 67.1 67.1" height="67.1mm" width="67.1mm" xmlns:svgjs="http://svgjs.com/svgjs" xmlns:xlink="http://www.w3.org/1999/xlink" version="1.1" xmlns="http://www.w3.org/2000/svg" id="SvgjsSvg1463">
  <defs id="SvgjsDefs1464">
  </defs>
  <defs id="SvgjsDefs1464">
  </defs>
  <g id="SvgjsG1465">
    <g transform="matrix(1,0,0,1,21.5,0)" id="SvgjsG1466">
      <g fill="none" stroke-width="0.04" stroke="blue" id="SvgjsG1467">
      </g>
      <g fill="none" stroke-width="0.1" stroke="black" id="SvgjsG1468">
        <circle cy="0" cx="0" r="0.5" id="SvgjsCircle1469">
        </circle>
        <path d="M6.702220642357209 -3.0646289322625866  L6.612069880615347 -2.9236065898576964 L6.522057387327658 -2.7950186586505508 L6.433963883884304 -2.679746916011359 L6.347511487745886 -2.575910197063166 L6.263039549081488 -2.48271670545416 L6.183440244775423 -2.4019710222631026 L6.107923075906892 -2.3315317434047715 L6.037878061681839 -2.2714839958848847 L5.973381577229026 -2.220723983146232 L5.8664437777858005 -2.146639327175913 L5.765470927120353 -2.0903904522672274 L5.6811813483761595 -2.069707630527278 L5.564126032911456 -2.0347074173642343 L5.460008166828081 -1.9940180211749978 L5.369083341205432 -1.9486499731071028 L5.291546634248816 -1.8996503856157383 L5.227515448818148 -1.8480472259029515 L5.1770514612125424 -1.7948856236420974 L5.140163014326956 -1.7412181615596651 L5.116768673136136 -1.6880855933905328 L5.110097390723622 -1.6620422796426149 L5.106750558098773 -1.6365093908248323 L5.106701987330119 -1.6116349613664422 L5.112733825260501 -1.57579709129606 L5.163123066449094 -1.4017381907122697 L5.194538723229378 -1.2803388039384336 L5.223138648739127 -1.1582454017381643 L5.2594103959023455 -0.9807068513956325 L5.270724157319526 -0.9461708585389748 L5.282326888359983 -0.9241682170520349 L5.297156086557349 -0.9031153174697155 L5.315166145143806 -0.8831554079079873 L5.360572741135797 -0.8469807477102713 L5.4181763519221136 -0.8166034860763043 L5.487565422259579 -0.7929830094151062 L5.56824340529809 -0.777047456307737 L5.659669993409956 -0.7696935807156933 L5.761263511346544 -0.7717770425627352 L5.87236460851383 -0.7841343565194793 L5.9922773530101265 -0.8075415243824561 L6.076523854934749 -0.8283991156495418 L6.19207102955531 -0.8255176338769812 L6.321188604764706 -0.8096154022082535 L6.401886759689786 -0.7946426539071624 L6.491814119303849 -0.774024555235293 L6.5914160166262805 -0.7467482495878661 L6.699422090283277 -0.7122431390504509 L6.81752745240665 -0.6689804676384002 L6.942332576903792 -0.6172140509258941 L7.073904950234908 -0.5560850841751199 L7.213364846077693 -0.48405701706569526 L7.358725731570694 -0.40108308219039523 L7.493275773205433 -0.3168724308681361 A7.5 7.5 0 0 1 7.493275773205433 0.316872430868137 L7.358725731570694 0.4010830821903959 L7.213364846077693 0.4840570170656959 L7.073904950234909 0.5560850841751206 L6.942332576903792 0.6172140509258948 L6.81752745240665 0.6689804676384009 L6.699422090283278 0.7122431390504516 L6.5914160166262805 0.7467482495878668 L6.491814119303849 0.7740245552352937 L6.401886759689786 0.794642653907163 L6.321188604764706 0.8096154022082541 L6.19207102955531 0.8255176338769818 L6.076523854934749 0.8283991156495425 L5.992277353010127 0.8075415243824567 L5.87236460851383 0.7841343565194799 L5.761263511346544 0.7717770425627358 L5.659669993409956 0.7696935807156939 L5.56824340529809 0.7770474563077376 L5.487565422259579 0.7929830094151069 L5.4181763519221136 0.816603486076305 L5.360572741135797 0.846980747710272 L5.315166145143807 0.883155407907988 L5.297156086557349 0.9031153174697162 L5.282326888359983 0.9241682170520356 L5.270724157319526 0.9461708585389754 L5.2594103959023455 0.9807068513956332 L5.223138648739127 1.1582454017381647 L5.194538723229378 1.2803388039384342 L5.163123066449094 1.4017381907122701 L5.112733825260501 1.5757970912960606 L5.106701987330119 1.611634961366443 L5.106750558098773 1.636509390824833 L5.110097390723622 1.6620422796426155 L5.116768673136135 1.6880855933905334 L5.140163014326956 1.7412181615596658 L5.1770514612125424 1.794885623642098 L5.227515448818148 1.8480472259029521 L5.291546634248816 1.899650385615739 L5.369083341205432 1.9486499731071034 L5.460008166828081 1.9940180211749987 L5.564126032911456 2.0347074173642348 L5.681181348376159 2.069707630527279 L5.765470927120353 2.090390452267228 L5.8664437777858005 2.1466393271759134 L5.973381577229026 2.2207239831462324 L6.037878061681839 2.271483995884885 L6.107923075906892 2.3315317434047724 L6.183440244775423 2.401971022263103 L6.263039549081487 2.4827167054541603 L6.347511487745886 2.575910197063167 L6.433963883884304 2.67974691601136 L6.522057387327657 2.795018658650551 L6.612069880615347 2.9236065898576973 L6.702220642357209 3.064628932262587 L6.782224146472226 3.2017222830471797 A7.5 7.5 0 0 1 6.487708224059706 3.7628754895983234 L6.329435437939984 3.7749117960886824 L6.162164855773717 3.780828994898775 L6.005206138839482 3.7797964357680174 L5.860296540731772 3.772778717031681 L5.725730037833404 3.7606157692926154 L5.601047767389614 3.744036663858919 L5.489377814242213 3.7243964967502303 L5.388508782809466 3.702261156278045 L5.299300352151809 3.678726248171196 L5.220887501529604 3.6544816558401236 L5.099169430999046 3.608558453574621 L4.9955183976345365 3.557412429462583 L4.930614830840009 3.4997926479865287 L4.835315221970991 3.423340399167986 L4.742682816167455 3.360767286770975 L4.653694456541585 3.311709611009716 L4.56932271680107 3.2757330904281097 L4.490480289793744 3.2523503937573968 L4.418062336509783 3.24101857827346 L4.352939854855116 3.2411465749043087 L4.295923107994919 3.252076148431226 L4.2707001606119395 3.261380079069159 L4.247785787437861 3.2731300238366496 L4.227286941978902 3.2872203373480557 L4.201219427609231 3.3125426732313614 L4.086596112247356 3.4528889310206314 L4.00453250271539 3.5477062215882547 L3.92029821201373 3.6406004564469803 L3.7947915503734473 3.7713049107854295 L3.7727959344738258 3.8002346339295645 L3.7612792179929193 3.8222824193398597 L3.7523769660246042 3.8464460202696182 L3.746181161860135 3.8726065288800324 L3.742203886615343 3.9305249739698924 L3.749926470972687 3.995188067700735 L3.7699046844429667 4.065712113150042 L3.802620299343062 4.141161217463536 L3.848504399999282 4.220581301868994 L3.907930751520777 4.30300758678372 L3.9812132381568466 4.387422242812364 L4.068595162486469 4.47281170996407 L4.133618091359481 4.530296759505453 L4.196884954837126 4.627027088181111 L4.257144817401927 4.742322266587111 L4.290664264061229 4.817241036569367 L4.324780464272242 4.902962217634272 L4.358912831379635 5.000427679802397 L4.391870124993854 5.108916072718995 L4.423357137048482 5.230690878700658 L4.451651602737181 5.362810158941624 L4.4760850762957025 5.5058173104056864 L4.4960293895842245 5.6615071603235565 L4.51031757449434 5.828271391116537 L4.517446702443629 5.986841006852691 A7.5 7.5 0 0 1 3.9958849061416695 6.346849121227078 L3.8501477634431502 6.283953710121813 L3.699287159148869 6.211458613929283 L3.5607869716152223 6.137601975411512 L3.4357371913074273 6.064045245977882 L3.3222368741196875 5.990739318534853 L3.2195409009299065 5.918116509510391 L3.1297893087893476 5.8488303903505265 L3.050761022743922 5.782354343501137 L2.9827080974282056 5.720057992436459 L2.924543990209134 5.66215020339726 L2.8381095674542007 5.564922019401973 L2.7700998779591877 5.471465427152994 L2.739407871274607 5.390283453010492 L2.690553389939975 5.278300412091236 L2.63761064332827 5.179846247216362 L2.5816136027774155 5.095052879848708 L2.5236252601931137 5.023987750394624 L2.4646802390901055 4.966643497961047 L2.4058234832260585 4.922955372696165 L2.3481009064391443 4.892804781838294 L2.2925358582901247 4.875985435115036 L2.265878295386597 4.872501968444541 L2.2401281539818556 4.8722571876531555 L2.2154292325611746 4.8752072521702505 L2.1805797186334996 4.885514889096568 L2.0138636552616775 4.956517218028813 L1.8971361456775648 5.002336898366969 L1.7793802819210294 5.045445031601339 L1.6075082634916087 5.102852224364938 L1.574587800149445 5.118246349651464 L1.554144137373274 5.132416609080782 L1.535032199453969 5.149675332352468 L1.5173886927790623 5.169959978571038 L1.486950946925877 5.219395882804468 L1.463738517745942 5.280241072684741 L1.4486541891384261 5.351971352416947 L1.442559480400237 5.433981920793204 L1.4462794802590775 5.525628317891235 L1.4605934967110166 5.626229971123246 L1.4862524693611607 5.735031506602022 L1.523942856758129 5.851248529872566 L1.5548031663663928 5.9323666751354 L1.5658703666818643 6.047418705005269 L1.565647484064713 6.1775116699316595 L1.560510991653982 6.259426209823637 L1.5508827675273942 6.351183134903808 L1.5358110189089595 6.45334661758516 L1.51457618304276 6.5647243368369725 L1.485864973485533 6.687183316686394 L1.4495195876205083 6.817318223326858 L1.4046956169572165 6.955299568638376 L1.350002748427203 7.102424668916877 L1.2851551055339592 7.256727112550119 L1.2177766600196422 7.400446605243711 A7.5 7.5 0 0 1 0.5886525118599997 7.47683610700627 L0.48883763565194926 7.353417559017726 L0.3889473556061044 7.219117920699663 L0.30063442132880613 7.089356868610317 L0.22409185647622099 6.966112088737952 L0.1576592798397204 6.848456686135966 L0.1004760137410855 6.736427183868516 L0.05320379074283277 6.633367727568749 L0.014120678023643696 6.537779835552138 L-0.017186636886955875 6.450993384806135 L-0.04177730469248453 6.372688375663182 L-0.07312699506635123 6.246429015164789 L-0.08991514043416848 6.132071633789082 L-0.07936441815614004 6.045925278907335 L-0.07058179904294848 5.924065411020025 L-0.07170634124334152 5.812284856338812 L-0.0818838155664744 5.711180935957841 L-0.10020433054378441 5.621307362361559 L-0.12574835177228783 5.5431384313244925 L-0.15756053674876647 5.477102419277865 L-0.1946596619585062 5.423580377942804 L-0.23604372849682953 5.382865220608567 L-0.2580289805181673 5.367392376863531 L-0.2807158430805898 5.355208946842649 L-0.303956615219785 5.346342938136698 L-0.339604525046804 5.339274520706698 L-0.5202206954564538 5.324667142894362 L-0.6448712393659789 5.310992476424588 L-0.7691722269027638 5.294438954219932 L-0.9480357939815012 5.2653975893782095 L-0.9843394233491092 5.263729508223304 L-1.009026635651368 5.266776006006528 L-1.0339699448681703 5.27317608610876 L-1.0590192393015982 5.282937901943299 L-1.108944535002814 5.31256609542765 L-1.1577742899350016 5.355654481719811 L-1.2044655227221974 5.412158453091847 L-1.2479743307759543 5.481942852650354 L-1.2872706388512953 5.564820477324617 L-1.321348126135454 5.660550872499807 L-1.349190828881242 5.768814166851169 L-1.3698263919511646 5.88923482677623 L-1.3801984266318552 5.975402878260424 L-1.4238662516966092 6.082419575808581 L-1.4845208197741504 6.19750759678091 L-1.52713654274506 6.267652272670579 L-1.5783034810945265 6.34442453602097 L-1.6391265894645657 6.427881616536685 L-1.709688909821752 6.516633368890144 L-1.7920209488888577 6.6117226461145115 L-1.884679896415311 6.710060840338779 L-1.9884926798088607 6.811406516142358 L-2.105293253097702 6.916262279357348 L-2.2344209103062784 7.022754105540508 L-2.360871339415163 7.118699071423079 A7.5 7.5 0 0 1 -2.9534330788570013 6.893970046313301 L-2.984459303334977 6.738302063430913 L-3.0104955997822547 6.572964311639892 L-3.028389851846508 6.417025539222443 L-3.0388902220740595 6.272326602719494 L-3.0430361554512357 6.137275159793356 L-3.041606717328589 6.011503573150532 L-3.03557007458768 5.898280459148052 L-3.0257545438592333 5.79547875606625 L-3.0131441198127433 5.704083935614718 L-2.9985279225601547 5.623320440285 L-2.9676110442930277 5.496954401183445 L-2.929331683748966 5.387894128598339 L-2.8799552758322378 5.316518484704634 L-2.815547548468021 5.212698417011647 L-2.764596267191195 5.113199050499845 L-2.7266226385710373 5.01894626683051 L-2.7010783167461936 4.930853201708965 L-2.687369510675569 4.84976715213126 L-2.684849336564757 4.776511307842553 L-2.692826047704697 4.711879070689644 L-2.710548541720461 4.6565954546188655 L-2.722824926572529 4.632677875833297 L-2.737251223485914 4.611346873574451 L-2.7537096655282003 4.592695887392999 L-2.781989464717078 4.569870704856232 L-2.9351287541845186 4.472999994518135 L-3.039146395011684 4.402963682531062 L-3.14151664807333 4.330540717332896 L-3.2863962761232997 4.221703821584706 L-3.317766347534395 4.2033556712784 L-3.341041566537454 4.194580491487672 L-3.3661020355096465 4.188655747198355 L-3.39281862622362 4.185658418283803 L-3.4507941881927544 4.188691438950249 L-3.51405496048457 4.20415199162611 L-3.581656698710252 4.232485275743317 L-3.652612262492439 4.274056741538402 L-3.725922567893751 4.329179328759671 L-3.8005848172554475 4.3981077860197315 L-3.8755507677390497 4.4810310232219175 L-3.9497849224620376 4.578068397838935 L-3.9990131932829045 4.6495462933870515 L-4.08741227125989 4.72401142289623 L-4.194603294218042 4.797729221270742 L-4.264935499191631 4.840034733246761 L-4.345919422816565 4.884234734539867 L-4.43856004980855 4.929866401510647 L-4.542284877431035 4.975660230076138 L-4.659376468066377 5.021595997213366 L-4.787121929037318 5.065609383828369 L-4.926141267565326 5.107102317145202 L-5.0782919418720205 5.14566755159306 L-5.242118023286408 5.179952766313203 L-5.398672166573885 5.206143369963241 A7.5 7.5 0 0 1 -5.818922743934886 4.731778529355431 L-5.774052582561421 4.579522770454994 L-5.720270293665448 4.421023791590429 L-5.66364650601785 4.274630992339783 L-5.605699173344414 4.141626681747854 L-5.546608680089469 4.020117856525621 L-5.486894004792842 3.909416940295364 L-5.428931418415283 3.811968219521698 L-5.3724658640391185 3.7255033366559207 L-5.318826597212506 3.650437598437321 L-5.268351929548097 3.5857175603952474 L-5.1822511668622 3.488193779372837 L-5.097673640590601 3.4094150097088165 L-5.020783087038674 3.3691613766494464 L-4.915505285565314 3.307165035491796 L-4.824150505322288 3.2427409629199047 L-4.746725074443884 3.1769314928316756 L-4.683167812104508 3.110799995767691 L-4.633346700996514 3.0453726644147707 L-4.597071509315808 2.981679018981901 L-4.574098437993577 2.9207430526399807 L-4.564099349686977 2.863555788034679 L-4.563854495546641 2.8366727032702777 L-4.566715336043857 2.811080804324528 L-4.572621017263075 2.786917556832997 L-4.587054144628164 2.7535645834353653 L-4.677634187464908 2.5966224528913533 L-4.737189737244672 2.486268970434161 L-4.794177464550045 2.3745677907780416 L-4.87188297677379 2.210868585312513 L-4.891132984918433 2.1800437059708 L-4.9076641384454875 2.161457136543794 L-4.927100715742933 2.144564855378703 L-4.949364153774702 2.129495033647655 L-5.002108479445887 2.1052380530133745 L-5.065307988540227 2.0895289457747532 L-5.138333488666154 2.0832007286989667 L-5.220480743621514 2.0870357389074496 L-5.311010538866309 2.1017753682425218 L-5.4091533287544245 2.1281112087071308 L-5.514068731157688 2.1666976744504614 L-5.624895327305251 2.2181216706618128 L-5.701702230686209 2.2585346858058 L-5.814581398135274 2.28338918350754 L-5.9437527044061875 2.298848900072411 L-6.02568913081796 2.3036235651777623 L-6.117937598777968 2.3051256167850935 L-6.221172893188617 2.3024782052291313 L-6.334298120087772 2.294823295757762 L-6.45932498998343 2.2810822221427163 L-6.59289201879011 2.2606878646937663 L-6.735270257360456 2.2328225245450195 L-6.887915146815739 2.196262399775199 L-7.048909071502209 2.150486673521569 L-7.199702261423067 2.10092296327384 A7.5 7.5 0 0 1 -7.35136733399831 1.4855935754352005 L-7.24088 1.3716299999999988 L-7.1196 1.256279999999999 L-7.00143 1.152969999999999 L-6.88831 1.062129999999999 L-6.77952 0.9819999999999989 L-6.6752 0.9117299999999989 L-6.57859 0.8523799999999989 L-6.48841 0.802059999999999 L-6.40603 0.760519999999999 L-6.33126 0.726669999999999 L-6.2097 0.680329999999999 L-6.0982 0.649879999999999 L-6.01141 0.649969999999999 L-5.88938 0.643999999999999 L-5.77855 0.6294099999999991 L-5.67941 0.6071199999999991 L-5.5924 0.5780999999999991 L-5.51788 0.5433199999999991 L-5.45616 0.5037799999999991 L-5.4075 0.46049999999999913 L-5.37207 0.4145099999999991 L-5.35936 0.3908199999999991 L-5.35 0.36682999999999916 L-5.344 0.34268999999999916 L-5.34128 0.30644999999999917 L-5.34855 0.12538999999999914 L-5.35 -8.603456175770005e-16 L-5.34855 -0.12539000000000086 L-5.34128 -0.30645000000000083 L-5.344 -0.3426900000000008 L-5.35 -0.3668300000000008 L-5.35936 -0.3908200000000009 L-5.37207 -0.4145100000000009 L-5.4075 -0.4605000000000009 L-5.45616 -0.5037800000000009 L-5.51788 -0.5433200000000009 L-5.5924 -0.5781000000000008 L-5.67941 -0.6071200000000009 L-5.77855 -0.6294100000000009 L-5.88938 -0.644000000000001 L-6.01141 -0.649970000000001 L-6.0982 -0.649880000000001 L-6.2097 -0.680330000000001 L-6.33126 -0.726670000000001 L-6.40603 -0.760520000000001 L-6.48841 -0.802060000000001 L-6.57859 -0.8523800000000011 L-6.6752 -0.9117300000000012 L-6.77952 -0.9820000000000011 L-6.88831 -1.0621300000000011 L-7.00143 -1.1529700000000012 L-7.1196 -1.2562800000000012 L-7.24088 -1.371630000000001 L-7.35136733399831 -1.4855935754352028 A7.5 7.5 0 0 1 -7.199702261423067 -2.1009229632738435 L-7.048909071502208 -2.150486673521573 L-6.887915146815738 -2.196262399775203 L-6.735270257360456 -2.2328225245450235 L-6.592892018790109 -2.2606878646937703 L-6.459324989983429 -2.2810822221427203 L-6.33429812008777 -2.294823295757765 L-6.2211728931886165 -2.302478205229135 L-6.117937598777968 -2.305125616785097 L-6.025689130817958 -2.303623565177766 L-5.943752704406186 -2.2988489000724144 L-5.814581398135274 -2.2833891835075435 L-5.701702230686208 -2.2585346858058033 L-5.624895327305249 -2.218121670661816 L-5.514068731157687 -2.166697674450465 L-5.409153328754424 -2.128111208707134 L-5.3110105388663085 -2.101775368242525 L-5.220480743621512 -2.0870357389074528 L-5.138333488666153 -2.0832007286989693 L-5.065307988540226 -2.089528945774756 L-5.002108479445886 -2.105238053013377 L-4.949364153774701 -2.1294950336476575 L-4.927100715742931 -2.1445648553787056 L-4.9076641384454875 -2.1614571365437967 L-4.891132984918432 -2.1800437059708027 L-4.871882976773789 -2.210868585312516 L-4.794177464550043 -2.3745677907780443 L-4.737189737244671 -2.4862689704341636 L-4.677634187464906 -2.596622452891356 L-4.587054144628163 -2.753564583435368 L-4.572621017263074 -2.7869175568329996 L-4.566715336043855 -2.8110808043245306 L-4.563854495546639 -2.8366727032702803 L-4.564099349686975 -2.863555788034682 L-4.574098437993576 -2.9207430526399834 L-4.597071509315807 -2.981679018981904 L-4.633346700996513 -3.0453726644147734 L-4.683167812104506 -3.1107999957676933 L-4.746725074443883 -3.176931492831678 L-4.824150505322286 -3.2427409629199078 L-4.915505285565313 -3.3071650354917987 L-5.020783087038672 -3.3691613766494495 L-5.097673640590599 -3.4094150097088196 L-5.182251166862199 -3.4881937793728395 L-5.268351929548095 -3.58571756039525 L-5.318826597212504 -3.650437598437324 L-5.372465864039117 -3.7255033366559243 L-5.428931418415281 -3.8119682195217006 L-5.48689400479284 -3.909416940295367 L-5.5466086800894665 -4.020117856525625 L-5.605699173344413 -4.141626681747858 L-5.663646506017848 -4.274630992339786 L-5.720270293665445 -4.421023791590431 L-5.774052582561418 -4.579522770454997 L-5.818922743934884 -4.731778529355434 A7.5 7.5 0 0 1 -5.398672166573884 -5.206143369963241 L-5.242118023286407 -5.179952766313203 L-5.07829194187202 -5.14566755159306 L-4.926141267565326 -5.107102317145202 L-4.787121929037317 -5.065609383828369 L-4.659376468066376 -5.021595997213366 L-4.542284877431035 -4.975660230076138 L-4.438560049808549 -4.929866401510647 L-4.345919422816564 -4.884234734539867 L-4.26493549919163 -4.840034733246761 L-4.194603294218041 -4.797729221270742 L-4.08741227125989 -4.72401142289623 L-3.999013193282904 -4.6495462933870515 L-3.949784922462037 -4.578068397838935 L-3.875550767739049 -4.481031023221918 L-3.8005848172554466 -4.3981077860197315 L-3.7259225678937504 -4.329179328759671 L-3.652612262492438 -4.274056741538402 L-3.581656698710251 -4.232485275743317 L-3.5140549604845694 -4.20415199162611 L-3.4507941881927535 -4.188691438950249 L-3.3928186262236197 -4.185658418283803 L-3.3661020355096456 -4.188655747198355 L-3.3410415665374535 -4.194580491487672 L-3.317766347534394 -4.2033556712784 L-3.2863962761232988 -4.221703821584706 L-3.1415166480733294 -4.330540717332896 L-3.0391463950116835 -4.402963682531062 L-2.935128754184518 -4.472999994518135 L-2.781989464717077 -4.569870704856232 L-2.7537096655281994 -4.592695887392999 L-2.7372512234859134 -4.611346873574451 L-2.722824926572528 -4.632677875833297 L-2.7105485417204607 -4.6565954546188655 L-2.692826047704696 -4.711879070689644 L-2.6848493365647568 -4.776511307842553 L-2.687369510675569 -4.84976715213126 L-2.7010783167461927 -4.930853201708965 L-2.726622638571037 -5.01894626683051 L-2.764596267191194 -5.113199050499845 L-2.81554754846802 -5.212698417011646 L-2.8799552758322373 -5.316518484704634 L-2.9293316837489654 -5.387894128598339 L-2.967611044293027 -5.496954401183445 L-2.9985279225601547 -5.623320440285 L-3.0131441198127424 -5.704083935614718 L-3.025754543859233 -5.79547875606625 L-3.03557007458768 -5.898280459148052 L-3.0416067173285883 -6.011503573150532 L-3.043036155451235 -6.137275159793356 L-3.0388902220740586 -6.272326602719494 L-3.0283898518465073 -6.417025539222443 L-3.010495599782254 -6.572964311639892 L-2.984459303334976 -6.738302063430913 L-2.9534330788570005 -6.893970046313301 A7.5 7.5 0 0 1 -2.3608713394151595 -7.118699071423081 L-2.234420910306274 -7.02275410554051 L-2.1052932530976984 -6.916262279357349 L-1.988492679808857 -6.811406516142359 L-1.8846798964153078 -6.710060840338781 L-1.7920209488888539 -6.611722646114512 L-1.7096889098217485 -6.516633368890146 L-1.6391265894645624 -6.427881616536686 L-1.5783034810945231 -6.344424536020971 L-1.5271365427450565 -6.2676522726705794 L-1.484520819774147 -6.197507596780912 L-1.423866251696606 -6.082419575808583 L-1.3801984266318519 -5.975402878260424 L-1.369826391951161 -5.889234826776232 L-1.3491908288812389 -5.76881416685117 L-1.321348126135451 -5.660550872499808 L-1.2872706388512927 -5.564820477324617 L-1.2479743307759512 -5.481942852650356 L-1.2044655227221943 -5.412158453091849 L-1.1577742899349988 -5.355654481719812 L-1.108944535002811 -5.312566095427651 L-1.0590192393015954 -5.282937901943299 L-1.0339699448681674 -5.273176086108761 L-1.0090266356513653 -5.26677600600653 L-0.9843394233491063 -5.263729508223305 L-0.9480357939814984 -5.265397589378211 L-0.7691722269027609 -5.294438954219933 L-0.644871239365976 -5.310992476424589 L-0.5202206954564509 -5.324667142894363 L-0.33960452504680105 -5.339274520706698 L-0.30395661521978207 -5.346342938136697 L-0.28071584308058684 -5.355208946842649 L-0.25802898051816436 -5.367392376863532 L-0.2360437284968266 -5.382865220608567 L-0.19465966195850315 -5.423580377942803 L-0.15756053674876336 -5.477102419277864 L-0.12574835177228494 -5.5431384313244925 L-0.1002043305437812 -5.621307362361559 L-0.08188381556647129 -5.711180935957841 L-0.07170634124333841 -5.812284856338813 L-0.07058179904294515 -5.924065411020026 L-0.0793644181561367 -6.045925278907335 L-0.08991514043416515 -6.132071633789082 L-0.07312699506634779 -6.246429015164789 L-0.04177730469248098 -6.372688375663182 L-0.017186636886952433 -6.450993384806136 L0.01412067802364736 -6.537779835552139 L0.05320379074283643 -6.63336772756875 L0.10047601374108928 -6.736427183868516 L0.15765927983972428 -6.8484566861359655 L0.22409185647622487 -6.966112088737952 L0.3006344213288099 -7.089356868610318 L0.3889473556061085 -7.219117920699663 L0.48883763565195326 -7.353417559017726 L0.5886525118600039 -7.47683610700627 A7.5 7.5 0 0 1 1.2177766600196498 -7.400446605243709 L1.2851551055339663 -7.256727112550117 L1.3500027484272101 -7.102424668916875 L1.4046956169572236 -6.955299568638375 L1.4495195876205147 -6.817318223326856 L1.4858649734855398 -6.687183316686392 L1.5145761830427664 -6.564724336836971 L1.5358110189089662 -6.453346617585159 L1.5508827675274004 -6.351183134903807 L1.5605109916539885 -6.259426209823636 L1.5656474840647192 -6.177511669931658 L1.5658703666818707 -6.047418705005267 L1.5548031663663988 -5.932366675135399 L1.523942856758135 -5.851248529872565 L1.4862524693611663 -5.73503150660202 L1.4605934967110223 -5.626229971123244 L1.4462794802590828 -5.525628317891234 L1.4425594804002426 -5.433981920793202 L1.4486541891384315 -5.351971352416946 L1.4637385177459474 -5.28024107268474 L1.4869509469258824 -5.219395882804467 L1.5173886927790676 -5.169959978571037 L1.5350321994539744 -5.1496753323524675 L1.5541441373732794 -5.132416609080781 L1.5745878001494502 -5.1182463496514625 L1.607508263491614 -5.102852224364936 L1.7793802819210345 -5.0454450316013375 L1.89713614567757 -5.002336898366967 L2.013863655261683 -4.956517218028811 L2.1805797186335045 -4.885514889096566 L2.2154292325611795 -4.875207252170249 L2.2401281539818605 -4.872257187653154 L2.2658782953866017 -4.8725019684445385 L2.29253585829013 -4.875985435115033 L2.348100906439149 -4.892804781838291 L2.4058234832260634 -4.922955372696162 L2.4646802390901104 -4.966643497961044 L2.5236252601931186 -5.023987750394622 L2.581613602777421 -5.095052879848705 L2.637610643328276 -5.179846247216359 L2.6905533899399803 -5.278300412091234 L2.739407871274613 -5.39028345301049 L2.7700998779591934 -5.4714654271529914 L2.8381095674542065 -5.564922019401969 L2.9245439902091395 -5.662150203397259 L2.9827080974282114 -5.720057992436456 L3.0507610227439272 -5.782354343501134 L3.1297893087893534 -5.848830390350524 L3.2195409009299123 -5.918116509510387 L3.322236874119694 -5.99073931853485 L3.4357371913074335 -6.064045245977878 L3.5607869716152285 -6.137601975411509 L3.6992871591488754 -6.211458613929279 L3.8501477634431565 -6.28395371012181 L3.995884906141676 -6.346849121227074 A7.5 7.5 0 0 1 4.517446702443632 -5.986841006852689 L4.510317574494343 -5.828271391116534 L4.496029389584228 -5.661507160323555 L4.476085076295705 -5.505817310405683 L4.451651602737184 -5.362810158941622 L4.423357137048485 -5.2306908787006545 L4.391870124993856 -5.108916072718992 L4.358912831379637 -5.000427679802394 L4.324780464272244 -4.902962217634269 L4.290664264061231 -4.817241036569365 L4.2571448174019295 -4.742322266587109 L4.196884954837128 -4.627027088181109 L4.133618091359483 -4.53029675950545 L4.068595162486471 -4.472811709964067 L3.9812132381568497 -4.387422242812362 L3.9079307515207793 -4.303007586783718 L3.8485043999992836 -4.220581301868992 L3.802620299343064 -4.141161217463535 L3.7699046844429684 -4.06571211315004 L3.7499264709726887 -3.9951880677007323 L3.742203886615345 -3.93052497396989 L3.746181161860137 -3.8726065288800298 L3.752376966024606 -3.846446020269616 L3.7612792179929215 -3.8222824193398575 L3.772795934473828 -3.8002346339295627 L3.794791550373449 -3.771304910785427 L3.9202982120137317 -3.640600456446978 L4.004532502715392 -3.5477062215882524 L4.086596112247358 -3.452888931020629 L4.2012194276092325 -3.3125426732313588 L4.227286941978904 -3.287220337348053 L4.247785787437863 -3.2731300238366474 L4.270700160611941 -3.261380079069156 L4.295923107994921 -3.2520761484312235 L4.3529398548551175 -3.2411465749043056 L4.418062336509784 -3.2410185782734575 L4.490480289793746 -3.2523503937573945 L4.569322716801071 -3.2757330904281075 L4.6536944565415865 -3.3117096110097135 L4.742682816167457 -3.360767286770972 L4.835315221970993 -3.423340399167983 L4.93061483084001 -3.499792647986526 L4.995518397634538 -3.55741242946258 L5.099169430999049 -3.6085584535746182 L5.220887501529607 -3.6544816558401205 L5.2993003521518105 -3.678726248171193 L5.388508782809469 -3.702261156278042 L5.489377814242214 -3.724396496750227 L5.601047767389616 -3.7440366638589158 L5.725730037833405 -3.7606157692926114 L5.860296540731775 -3.7727787170316778 L6.005206138839483 -3.7797964357680134 L6.162164855773719 -3.780828994898772 L6.329435437939986 -3.774911796088679 L6.487708224059707 -3.7628754895983203 A7.5 7.5 0 0 1 6.782224146472226 -3.2017222830471788 Z" id="SvgjsPath1470">
        </path>
      </g>
    </g>
  </g>
</svg>
