0
SECTION
2
HEADER
0
ENDSEC
0
SECTION
2
TABLES
0
TABLE
2
LTYPE
0
LTYPE
72
65
70
64
2
CONTINUOUS
3
______
73
0
40
0
0
ENDTAB
0
TABLE
2
LAYER
0
ENDTAB
0
ENDSEC
0
SECTION
2
ENTITIES
0
CIRCLE
8
0
10
21.5
20
0
40
0.5
0
CIRCLE
8
0
10
21.5
20
0
40
0.5
0
LINE
8
layer0
10
28.2023084
20
3.0647742
11
28.1119407
21
2.9234203
0
LINE
8
layer0
10
28.1119407
20
2.9234203
11
28.0222962
21
2.7953453
0
LINE
8
layer0
10
28.0222962
20
2.7953453
11
27.9332552
21
2.6788616
0
LINE
8
layer0
10
27.9332552
20
2.6788616
11
27.8471268
21
2.5754652
0
LINE
8
layer0
10
27.8471268
20
2.5754652
11
27.7630906
21
2.4827602
0
LINE
8
layer0
10
27.7630906
20
2.4827602
11
27.6833161
21
2.4018477
0
LINE
8
layer0
10
27.6833161
20
2.4018477
11
27.6085556
21
2.3320996
0
LINE
8
layer0
10
27.6085556
20
2.3320996
11
27.5385468
21
2.2720299
0
LINE
8
layer0
10
27.5385468
20
2.2720299
11
27.4731798
21
2.2205816
0
LINE
8
layer0
10
27.4731798
20
2.2205816
11
27.3671292
21
2.147076
0
LINE
8
layer0
10
27.3671292
20
2.147076
11
27.2694936
21
2.0922883
0
LINE
8
layer0
10
27.2694936
20
2.0922883
11
27.1400245
21
2.0643628
0
LINE
8
layer0
10
27.1400245
20
2.0643628
11
27.0175496
21
2.0282431
0
LINE
8
layer0
10
27.0175496
20
2.0282431
11
26.9080591
21
1.9859514
0
LINE
8
layer0
10
26.9080591
20
1.9859514
11
26.8118208
21
1.9385321
0
LINE
8
layer0
10
26.8118208
20
1.9385321
11
26.7290539
21
1.8870178
0
LINE
8
layer0
10
26.7290539
20
1.8870178
11
26.6599147
21
1.832446
0
LINE
8
layer0
10
26.6599147
20
1.832446
11
26.6044941
21
1.7758689
0
LINE
8
layer0
10
26.6044941
20
1.7758689
11
26.5628197
21
1.718344
0
LINE
8
layer0
10
26.5628197
20
1.718344
11
26.5348514
21
1.6609119
0
LINE
8
layer0
10
26.5348514
20
1.6609119
11
26.5259775
21
1.6325645
0
LINE
8
layer0
10
26.5259775
20
1.6325645
11
26.5204932
21
1.6046303
0
LINE
8
layer0
10
26.5204932
20
1.6046303
11
26.5183651
21
1.5772453
0
LINE
8
layer0
10
26.5183651
20
1.5772453
11
26.5195764
21
1.5505185
0
LINE
8
layer0
10
26.5195764
20
1.5505185
11
26.5257341
21
1.5182649
0
LINE
8
layer0
10
26.5257341
20
1.5182649
11
26.5737622
21
1.3489385
0
LINE
8
layer0
10
26.5737622
20
1.3489385
11
26.5974445
21
1.2564072
0
LINE
8
layer0
10
26.5974445
20
1.2564072
11
26.6194763
21
1.1634692
0
LINE
8
layer0
10
26.6194763
20
1.1634692
11
26.6556395
21
0.9912183
0
LINE
8
layer0
10
26.6556395
20
0.9912183
11
26.6651761
21
0.9597975
0
LINE
8
layer0
10
26.6651761
20
0.9597975
11
26.676524
21
0.9355692
0
LINE
8
layer0
10
26.676524
20
0.9355692
11
26.6911349
21
0.91231
0
LINE
8
layer0
10
26.6911349
20
0.91231
11
26.7089726
21
0.8901241
0
LINE
8
layer0
10
26.7089726
20
0.8901241
11
26.7300038
21
0.8691477
0
LINE
8
layer0
10
26.7300038
20
0.8691477
11
26.7814585
21
0.8312916
0
LINE
8
layer0
10
26.7814585
20
0.8312916
11
26.8450925
21
0.7997228
0
LINE
8
layer0
10
26.8450925
20
0.7997228
11
26.9204577
21
0.7753816
0
LINE
8
layer0
10
26.9204577
20
0.7753816
11
27.0070382
21
0.7591912
0
LINE
8
layer0
10
27.0070382
20
0.7591912
11
27.1042645
21
0.7520412
0
LINE
8
layer0
10
27.1042645
20
0.7520412
11
27.2115161
21
0.7547777
0
LINE
8
layer0
10
27.2115161
20
0.7547777
11
27.3281191
21
0.7682131
0
LINE
8
layer0
10
27.3281191
20
0.7682131
11
27.4533509
21
0.7931476
0
LINE
8
layer0
10
27.4533509
20
0.7931476
11
27.5809678
21
0.8285881
0
LINE
8
layer0
10
27.5809678
20
0.8285881
11
27.6928809
21
0.8254495
0
LINE
8
layer0
10
27.6928809
20
0.8254495
11
27.8209437
21
0.8096477
0
LINE
8
layer0
10
27.8209437
20
0.8096477
11
27.9027326
21
0.7944701
0
LINE
8
layer0
10
27.9027326
20
0.7944701
11
27.9926381
21
0.7738157
0
LINE
8
layer0
10
27.9926381
20
0.7738157
11
28.0912488
21
0.7467997
0
LINE
8
layer0
10
28.0912488
20
0.7467997
11
28.1994875
21
0.7122284
0
LINE
8
layer0
10
28.1994875
20
0.7122284
11
28.31698
21
0.6691957
0
LINE
8
layer0
10
28.31698
20
0.6691957
11
28.4412936
21
0.6176686
0
LINE
8
layer0
10
28.4412936
20
0.6176686
11
28.5742682
21
0.5559068
0
LINE
8
layer0
10
28.5742682
20
0.5559068
11
28.7131639
21
0.484162
0
LINE
8
layer0
10
28.7131639
20
0.484162
11
28.858871
21
0.4009953
0
LINE
8
layer0
10
28.858871
20
0.4009953
11
28.9932758
21
0.3168726
0
ARC
8
layer0
10
21.4999727
20
0
40
7.5
50
357.5785516
51
362.4214491
0
LINE
8
layer0
10
28.9932758
20
-0.3168726
11
28.858871
21
-0.4009953
0
LINE
8
layer0
10
28.858871
20
-0.4009953
11
28.7131639
21
-0.484162
0
LINE
8
layer0
10
28.7131639
20
-0.484162
11
28.5742682
21
-0.5559068
0
LINE
8
layer0
10
28.5742682
20
-0.5559068
11
28.4412936
21
-0.6176686
0
LINE
8
layer0
10
28.4412936
20
-0.6176686
11
28.31698
21
-0.6691957
0
LINE
8
layer0
10
28.31698
20
-0.6691957
11
28.1994875
21
-0.7122284
0
LINE
8
layer0
10
28.1994875
20
-0.7122284
11
28.0912488
21
-0.7467997
0
LINE
8
layer0
10
28.0912488
20
-0.7467997
11
27.9926381
21
-0.7738157
0
LINE
8
layer0
10
27.9926381
20
-0.7738157
11
27.9027326
21
-0.7944701
0
LINE
8
layer0
10
27.9027326
20
-0.7944701
11
27.8209437
21
-0.8096477
0
LINE
8
layer0
10
27.8209437
20
-0.8096477
11
27.6928809
21
-0.8254495
0
LINE
8
layer0
10
27.6928809
20
-0.8254495
11
27.5809678
21
-0.8285881
0
LINE
8
layer0
10
27.5809678
20
-0.8285881
11
27.4533509
21
-0.7931476
0
LINE
8
layer0
10
27.4533509
20
-0.7931476
11
27.3281191
21
-0.7682131
0
LINE
8
layer0
10
27.3281191
20
-0.7682131
11
27.2115161
21
-0.7547777
0
LINE
8
layer0
10
27.2115161
20
-0.7547777
11
27.1042645
21
-0.7520412
0
LINE
8
layer0
10
27.1042645
20
-0.7520412
11
27.0070382
21
-0.7591912
0
LINE
8
layer0
10
27.0070382
20
-0.7591912
11
26.9204577
21
-0.7753816
0
LINE
8
layer0
10
26.9204577
20
-0.7753816
11
26.8450925
21
-0.7997228
0
LINE
8
layer0
10
26.8450925
20
-0.7997228
11
26.7814585
21
-0.8312916
0
LINE
8
layer0
10
26.7814585
20
-0.8312916
11
26.7300038
21
-0.8691477
0
LINE
8
layer0
10
26.7300038
20
-0.8691477
11
26.7089726
21
-0.8901241
0
LINE
8
layer0
10
26.7089726
20
-0.8901241
11
26.6911349
21
-0.91231
0
LINE
8
layer0
10
26.6911349
20
-0.91231
11
26.676524
21
-0.9355692
0
LINE
8
layer0
10
26.676524
20
-0.9355692
11
26.6651761
21
-0.9597975
0
LINE
8
layer0
10
26.6651761
20
-0.9597975
11
26.6556395
21
-0.9912183
0
LINE
8
layer0
10
26.6556395
20
-0.9912183
11
26.6194763
21
-1.1634692
0
LINE
8
layer0
10
26.6194763
20
-1.1634692
11
26.5974445
21
-1.2564072
0
LINE
8
layer0
10
26.5974445
20
-1.2564072
11
26.5737622
21
-1.3489385
0
LINE
8
layer0
10
26.5737622
20
-1.3489385
11
26.5257341
21
-1.5182649
0
LINE
8
layer0
10
26.5257341
20
-1.5182649
11
26.5195764
21
-1.5505185
0
LINE
8
layer0
10
26.5195764
20
-1.5505185
11
26.5183651
21
-1.5772453
0
LINE
8
layer0
10
26.5183651
20
-1.5772453
11
26.5204932
21
-1.6046303
0
LINE
8
layer0
10
26.5204932
20
-1.6046303
11
26.5259775
21
-1.6325645
0
LINE
8
layer0
10
26.5259775
20
-1.6325645
11
26.5348514
21
-1.6609119
0
LINE
8
layer0
10
26.5348514
20
-1.6609119
11
26.5628197
21
-1.718344
0
LINE
8
layer0
10
26.5628197
20
-1.718344
11
26.6044941
21
-1.7758689
0
LINE
8
layer0
10
26.6044941
20
-1.7758689
11
26.6599147
21
-1.832446
0
LINE
8
layer0
10
26.6599147
20
-1.832446
11
26.7290539
21
-1.8870178
0
LINE
8
layer0
10
26.7290539
20
-1.8870178
11
26.8118208
21
-1.9385321
0
LINE
8
layer0
10
26.8118208
20
-1.9385321
11
26.9080591
21
-1.9859514
0
LINE
8
layer0
10
26.9080591
20
-1.9859514
11
27.0175496
21
-2.0282431
0
LINE
8
layer0
10
27.0175496
20
-2.0282431
11
27.1400245
21
-2.0643628
0
LINE
8
layer0
10
27.1400245
20
-2.0643628
11
27.2694936
21
-2.0922883
0
LINE
8
layer0
10
27.2694936
20
-2.0922883
11
27.3671292
21
-2.147076
0
LINE
8
layer0
10
27.3671292
20
-2.147076
11
27.4731798
21
-2.2205816
0
LINE
8
layer0
10
27.4731798
20
-2.2205816
11
27.5385468
21
-2.2720299
0
LINE
8
layer0
10
27.5385468
20
-2.2720299
11
27.6085556
21
-2.3320996
0
LINE
8
layer0
10
27.6085556
20
-2.3320996
11
27.6833161
21
-2.4018477
0
LINE
8
layer0
10
27.6833161
20
-2.4018477
11
27.7630906
21
-2.4827602
0
LINE
8
layer0
10
27.7630906
20
-2.4827602
11
27.8471268
21
-2.5754652
0
LINE
8
layer0
10
27.8471268
20
-2.5754652
11
27.9332552
21
-2.6788616
0
LINE
8
layer0
10
27.9332552
20
-2.6788616
11
28.0222962
21
-2.7953453
0
LINE
8
layer0
10
28.0222962
20
-2.7953453
11
28.1119407
21
-2.9234203
0
LINE
8
layer0
10
28.1119407
20
-2.9234203
11
28.2023084
21
-3.0647742
0
LINE
8
layer0
10
28.2023084
20
-3.0647742
11
28.2822242
21
-3.2017222
0
ARC
8
layer0
10
21.4999757
20
0.0000125
40
7.5
50
329.8862454
51
334.7291426
0
LINE
8
layer0
10
27.9877082
20
-3.7628756
11
27.8296048
21
-3.7749015
0
LINE
8
layer0
10
27.8296048
20
-3.7749015
11
27.6619381
21
-3.7808285
0
LINE
8
layer0
10
27.6619381
20
-3.7808285
11
27.5056106
21
-3.7798074
0
LINE
8
layer0
10
27.5056106
20
-3.7798074
11
27.3591653
21
-3.7726984
0
LINE
8
layer0
10
27.3591653
20
-3.7726984
11
27.2251453
21
-3.760552
0
LINE
8
layer0
10
27.2251453
20
-3.760552
11
27.1011126
21
-3.744054
0
LINE
8
layer0
10
27.1011126
20
-3.744054
11
26.9892059
21
-3.7243644
0
LINE
8
layer0
10
26.9892059
20
-3.7243644
11
26.8893354
21
-3.7024591
0
LINE
8
layer0
10
26.8893354
20
-3.7024591
11
26.8001295
21
-3.6789665
0
LINE
8
layer0
10
26.8001295
20
-3.6789665
11
26.7206557
21
-3.6543965
0
LINE
8
layer0
10
26.7206557
20
-3.6543965
11
26.5999182
21
-3.6088744
0
LINE
8
layer0
10
26.5999182
20
-3.6088744
11
26.4993655
21
-3.559645
0
LINE
8
layer0
10
26.4993655
20
-3.559645
11
26.4028364
21
-3.4689574
0
LINE
8
layer0
10
26.4028364
20
-3.4689574
11
26.3035368
21
-3.3886809
0
LINE
8
layer0
10
26.3035368
20
-3.3886809
11
26.2065337
21
-3.3225964
0
LINE
8
layer0
10
26.2065337
20
-3.3225964
11
26.1128388
21
-3.270331
0
LINE
8
layer0
10
26.1128388
20
-3.270331
11
26.0234264
21
-3.2314787
0
LINE
8
layer0
10
26.0234264
20
-3.2314787
11
25.9392391
21
-3.2055786
0
LINE
8
layer0
10
25.9392391
20
-3.2055786
11
25.8611946
21
-3.1921077
0
LINE
8
layer0
10
25.8611946
20
-3.1921077
11
25.7901788
21
-3.1904883
0
LINE
8
layer0
10
25.7901788
20
-3.1904883
11
25.7270253
21
-3.200096
0
LINE
8
layer0
10
25.7270253
20
-3.200096
11
25.6986549
21
-3.2088961
0
LINE
8
layer0
10
25.6986549
20
-3.2088961
11
25.6725501
21
-3.220251
0
LINE
8
layer0
10
25.6725501
20
-3.220251
11
25.6488037
21
-3.2340561
0
LINE
8
layer0
10
25.6488037
20
-3.2340561
11
25.6274961
21
-3.2502355
0
LINE
8
layer0
10
25.6274961
20
-3.2502355
11
25.6044499
21
-3.2736253
0
LINE
8
layer0
10
25.6044499
20
-3.2736253
11
25.49238
21
-3.40934
0
LINE
8
layer0
10
25.49238
20
-3.40934
11
25.4296814
21
-3.481394
0
LINE
8
layer0
10
25.4296814
20
-3.481394
11
25.3657103
21
-3.5523206
0
LINE
8
layer0
10
25.3657103
20
-3.5523206
11
25.2444937
21
-3.6799319
0
LINE
8
layer0
10
25.2444937
20
-3.6799319
11
25.2240523
21
-3.7056294
0
LINE
8
layer0
10
25.2240523
20
-3.7056294
11
25.2105592
21
-3.7287318
0
LINE
8
layer0
10
25.2105592
20
-3.7287318
11
25.1997171
21
-3.7539691
0
LINE
8
layer0
10
25.1997171
20
-3.7539691
11
25.1915915
21
-3.7812523
0
LINE
8
layer0
10
25.1915915
20
-3.7812523
11
25.1862753
21
-3.8104766
0
LINE
8
layer0
10
25.1862753
20
-3.8104766
11
25.1843499
21
-3.8743277
0
LINE
8
layer0
10
25.1843499
20
-3.8743277
11
25.1945176
21
-3.9446305
0
LINE
8
layer0
10
25.1945176
20
-3.9446305
11
25.2172975
21
-4.0204823
0
LINE
8
layer0
10
25.2172975
20
-4.0204823
11
25.2531564
21
-4.1009338
0
LINE
8
layer0
10
25.2531564
20
-4.1009338
11
25.3025029
21
-4.1850111
0
LINE
8
layer0
10
25.3025029
20
-4.1850111
11
25.3656809
21
-4.271723
0
LINE
8
layer0
10
25.3656809
20
-4.271723
11
25.442976
21
-4.3600532
0
LINE
8
layer0
10
25.442976
20
-4.3600532
11
25.5346364
21
-4.4489526
0
LINE
8
layer0
10
25.5346364
20
-4.4489526
11
25.6362981
21
-4.5338467
0
LINE
8
layer0
10
25.6362981
20
-4.5338467
11
25.6972889
21
-4.6277323
0
LINE
8
layer0
10
25.6972889
20
-4.6277323
11
25.7570323
21
-4.7421024
0
LINE
8
layer0
10
25.7570323
20
-4.7421024
11
25.7910027
21
-4.8180352
0
LINE
8
layer0
10
25.7910027
20
-4.8180352
11
25.8250766
21
-4.903759
0
LINE
8
layer0
10
25.8250766
20
-4.903759
11
25.8588602
21
-5.0002608
0
LINE
8
layer0
10
25.8588602
20
-5.0002608
11
25.8918951
21
-5.1089783
0
LINE
8
layer0
10
25.8918951
20
-5.1089783
11
25.9232233
21
-5.2301181
0
LINE
8
layer0
10
25.9232233
20
-5.2301181
11
25.9514355
21
-5.3616969
0
LINE
8
layer0
10
25.9514355
20
-5.3616969
11
25.9761447
21
-5.5062175
0
LINE
8
layer0
10
25.9761447
20
-5.5062175
11
25.9960016
21
-5.6612822
0
LINE
8
layer0
10
25.9960016
20
-5.6612822
11
26.0103278
21
-5.8284408
0
LINE
8
layer0
10
26.0103278
20
-5.8284408
11
26.0174468
21
-5.9868409
0
ARC
8
layer0
10
21.4999841
20
0.0000223
40
7.5
50
302.193939
51
307.0368367
0
LINE
8
layer0
10
25.4958848
20
-6.3468492
11
25.3503025
21
-6.2840234
0
LINE
8
layer0
10
25.3503025
20
-6.2840234
11
25.1990866
21
-6.2113529
0
LINE
8
layer0
10
25.1990866
20
-6.2113529
11
25.06114
21
-6.1377996
0
LINE
8
layer0
10
25.06114
20
-6.1377996
11
24.9347729
21
-6.0634484
0
LINE
8
layer0
10
24.9347729
20
-6.0634484
11
24.8217488
21
-5.9904111
0
LINE
8
layer0
10
24.8217488
20
-5.9904111
11
24.7195902
21
-5.918162
0
LINE
8
layer0
10
24.7195902
20
-5.918162
11
24.629652
21
-5.8487221
0
LINE
8
layer0
10
24.629652
20
-5.8487221
11
24.551401
21
-5.7829138
0
LINE
8
layer0
10
24.551401
20
-5.7829138
11
24.4833306
21
-5.7206561
0
LINE
8
layer0
10
24.4833306
20
-5.7206561
11
24.4243783
21
-5.6619671
0
LINE
8
layer0
10
24.4243783
20
-5.6619671
11
24.3386257
21
-5.5655498
0
LINE
8
layer0
10
24.3386257
20
-5.5655498
11
24.2724688
21
-5.47523
0
LINE
8
layer0
10
24.2724688
20
-5.47523
11
24.2291411
21
-5.3500709
0
LINE
8
layer0
10
24.2291411
20
-5.3500709
11
24.178522
21
-5.2328428
0
LINE
8
layer0
10
24.178522
20
-5.2328428
11
24.1233411
21
-5.1292483
0
LINE
8
layer0
10
24.1233411
20
-5.1292483
11
24.0646673
21
-5.0394274
0
LINE
8
layer0
10
24.0646673
20
-5.0394274
11
24.0035521
21
-4.9634733
0
LINE
8
layer0
10
24.0035521
20
-4.9634733
11
23.9410444
21
-4.9014162
0
LINE
8
layer0
10
23.9410444
20
-4.9014162
11
23.8781996
21
-4.8532192
0
LINE
8
layer0
10
23.8781996
20
-4.8532192
11
23.8160708
21
-4.8187826
0
LINE
8
layer0
10
23.8160708
20
-4.8187826
11
23.7556862
21
-4.7979409
0
LINE
8
layer0
10
23.7556862
20
-4.7979409
11
23.7264759
21
-4.7925486
0
LINE
8
layer0
10
23.7264759
20
-4.7925486
11
23.6980843
21
-4.7904714
0
LINE
8
layer0
10
23.6980843
20
-4.7904714
11
23.6706424
21
-4.7916596
0
LINE
8
layer0
10
23.6706424
20
-4.7916596
11
23.6442566
21
-4.7960837
0
LINE
8
layer0
10
23.6442566
20
-4.7960837
11
23.6129804
21
-4.8060842
0
LINE
8
layer0
10
23.6129804
20
-4.8060842
11
23.4506776
21
-4.8741722
0
LINE
8
layer0
10
23.4506776
20
-4.8741722
11
23.3616757
21
-4.9088353
0
LINE
8
layer0
10
23.3616757
20
-4.9088353
11
23.2720708
21
-4.9419088
0
LINE
8
layer0
10
23.2720708
20
-4.9419088
11
23.1054348
21
-4.9985709
0
LINE
8
layer0
10
23.1054348
20
-4.9985709
11
23.0753927
21
-5.0118253
0
LINE
8
layer0
10
23.0753927
20
-5.0118253
11
23.0527089
21
-5.0260109
0
LINE
8
layer0
10
23.0527089
20
-5.0260109
11
23.0313804
21
-5.0433188
0
LINE
8
layer0
10
23.0313804
20
-5.0433188
11
23.0115064
21
-5.0637007
0
LINE
8
layer0
10
23.0115064
20
-5.0637007
11
22.9932179
21
-5.087107
0
LINE
8
layer0
10
22.9932179
20
-5.087107
11
22.96184
21
-5.1427496
0
LINE
8
layer0
10
22.96184
20
-5.1427496
11
22.9381717
21
-5.2097248
0
LINE
8
layer0
10
22.9381717
20
-5.2097248
11
22.9230922
21
-5.2874745
0
LINE
8
layer0
10
22.9230922
20
-5.2874745
11
22.917456
21
-5.3753753
0
LINE
8
layer0
10
22.917456
20
-5.3753753
11
22.9220774
21
-5.4727545
0
LINE
8
layer0
10
22.9220774
20
-5.4727545
11
22.9377218
21
-5.5788944
0
LINE
8
layer0
10
22.9377218
20
-5.5788944
11
22.9651141
21
-5.6930277
0
LINE
8
layer0
10
22.9651141
20
-5.6930277
11
23.0049618
21
-5.8143409
0
LINE
8
layer0
10
23.0049618
20
-5.8143409
11
23.0555264
21
-5.9367554
0
LINE
8
layer0
10
23.0555264
20
-5.9367554
11
23.0659003
21
-6.0482309
0
LINE
8
layer0
10
23.0659003
20
-6.0482309
11
23.0656501
21
-6.1772647
0
LINE
8
layer0
10
23.0656501
20
-6.1772647
11
23.0604416
21
-6.2602867
0
LINE
8
layer0
10
23.0604416
20
-6.2602867
11
23.0507747
21
-6.3520262
0
LINE
8
layer0
10
23.0507747
20
-6.3520262
11
23.035842
21
-6.4531745
0
LINE
8
layer0
10
23.035842
20
-6.4531745
11
23.0145694
21
-6.5647911
0
LINE
8
layer0
10
23.0145694
20
-6.5647911
11
22.9860127
21
-6.6866139
0
LINE
8
layer0
10
22.9860127
20
-6.6866139
11
22.9498456
21
-6.816232
0
LINE
8
layer0
10
22.9498456
20
-6.816232
11
22.9045624
21
-6.9556816
0
LINE
8
layer0
10
22.9045624
20
-6.9556816
11
22.8500827
21
-7.1022125
0
LINE
8
layer0
10
22.8500827
20
-7.1022125
11
22.7850855
21
-7.2568819
0
LINE
8
layer0
10
22.7850855
20
-7.2568819
11
22.7177768
21
-7.4004466
0
ARC
8
layer0
10
21.4999971
20
0.0000272
40
7.5
50
274.5016252
51
279.3445228
0
LINE
8
layer0
10
22.0886524
20
-7.4768361
11
21.9889423
21
-7.3535511
0
LINE
8
layer0
10
21.9889423
20
-7.3535511
11
21.8888189
21
-7.2189311
0
LINE
8
layer0
10
21.8888189
20
-7.2189311
11
21.8008552
21
-7.0896959
0
LINE
8
layer0
10
21.8008552
20
-7.0896959
11
21.7235154
21
-6.9651355
0
LINE
8
layer0
10
21.7235154
20
-6.9651355
11
21.6573796
21
-6.8479392
0
LINE
8
layer0
10
21.6573796
20
-6.8479392
11
21.6004986
21
-6.7364904
0
LINE
8
layer0
10
21.6004986
20
-6.7364904
11
21.5531325
21
-6.633208
0
LINE
8
layer0
10
21.5531325
20
-6.633208
11
21.5144274
21
-6.5385726
0
LINE
8
layer0
10
21.5144274
20
-6.5385726
11
21.4830866
21
-6.4518123
0
LINE
8
layer0
10
21.4830866
20
-6.4518123
11
21.4581611
21
-6.3724492
0
LINE
8
layer0
10
21.4581611
20
-6.3724492
11
21.4270383
21
-6.2472247
0
LINE
8
layer0
10
21.4270383
20
-6.2472247
11
21.4104329
21
-6.1365059
0
LINE
8
layer0
10
21.4104329
20
-6.1365059
11
21.4302325
21
-6.0055477
0
LINE
8
layer0
10
21.4302325
20
-6.0055477
11
21.4398902
21
-5.8782234
0
LINE
8
layer0
10
21.4398902
20
-5.8782234
11
21.4391726
21
-5.7608512
0
LINE
8
layer0
10
21.4391726
20
-5.7608512
11
21.4289614
21
-5.6540516
0
LINE
8
layer0
10
21.4289614
20
-5.6540516
11
21.4101442
21
-5.5583961
0
LINE
8
layer0
10
21.4101442
20
-5.5583961
11
21.3836358
21
-5.4743984
0
LINE
8
layer0
10
21.3836358
20
-5.4743984
11
21.3503877
21
-5.4025167
0
LINE
8
layer0
10
21.3503877
20
-5.4025167
11
21.311379
21
-5.3431518
0
LINE
8
layer0
10
21.311379
20
-5.3431518
11
21.2675967
21
-5.2966353
0
LINE
8
layer0
10
21.2675967
20
-5.2966353
11
21.2442381
21
-5.278286
0
LINE
8
layer0
10
21.2442381
20
-5.278286
11
21.220064
21
-5.2632525
0
LINE
8
layer0
10
21.220064
20
-5.2632525
11
21.1952131
21
-5.2515517
0
LINE
8
layer0
10
21.1952131
20
-5.2515517
11
21.1697937
21
-5.2432069
0
LINE
8
layer0
10
21.1697937
20
-5.2432069
11
21.1374525
21
-5.2375272
0
LINE
8
layer0
10
21.1374525
20
-5.2375272
11
20.9620985
21
-5.2223902
0
LINE
8
layer0
10
20.9620985
20
-5.2223902
11
20.8671824
21
-5.2117216
0
LINE
8
layer0
10
20.8671824
20
-5.2117216
11
20.7724713
21
-5.1993653
0
LINE
8
layer0
10
20.7724713
20
-5.1993653
11
20.5985902
21
-5.1720975
0
LINE
8
layer0
10
20.5985902
20
-5.1720975
11
20.5658296
21
-5.1698724
0
LINE
8
layer0
10
20.5658296
20
-5.1698724
11
20.5391517
21
-5.1718914
0
LINE
8
layer0
10
20.5391517
20
-5.1718914
11
20.5122228
21
-5.177305
0
LINE
8
layer0
10
20.5122228
20
-5.177305
11
20.4851534
21
-5.1861164
0
LINE
8
layer0
10
20.4851534
20
-5.1861164
11
20.4580823
21
-5.1983425
0
LINE
8
layer0
10
20.4580823
20
-5.1983425
11
20.4044401
21
-5.2330295
0
LINE
8
layer0
10
20.4044401
20
-5.2330295
11
20.3523579
21
-5.2813339
0
LINE
8
layer0
10
20.3523579
20
-5.2813339
11
20.3028736
21
-5.3431701
0
LINE
8
layer0
10
20.3028736
20
-5.3431701
11
20.2570335
21
-5.4183831
0
LINE
8
layer0
10
20.2570335
20
-5.4183831
11
20.2158712
21
-5.5067558
0
LINE
8
layer0
10
20.2158712
20
-5.5067558
11
20.1803979
21
-5.6080082
0
LINE
8
layer0
10
20.1803979
20
-5.6080082
11
20.1516122
21
-5.7217982
0
LINE
8
layer0
10
20.1516122
20
-5.7217982
11
20.1305185
21
-5.8477338
0
LINE
8
layer0
10
20.1305185
20
-5.8477338
11
20.1184024
21
-5.979625
0
LINE
8
layer0
10
20.1184024
20
-5.979625
11
20.0757828
21
-6.0831526
0
LINE
8
layer0
10
20.0757828
20
-6.0831526
11
20.0155962
21
-6.1972901
0
LINE
8
layer0
10
20.0155962
20
-6.1972901
11
19.9724021
21
-6.268382
0
LINE
8
layer0
10
19.9724021
20
-6.268382
11
19.921209
21
-6.3451209
0
LINE
8
layer0
10
19.921209
20
-6.3451209
11
19.8609808
21
-6.4277436
0
LINE
8
layer0
10
19.8609808
20
-6.4277436
11
19.7902741
21
-6.5166893
0
LINE
8
layer0
10
19.7902741
20
-6.5166893
11
19.7083744
21
-6.6112871
0
LINE
8
layer0
10
19.7083744
20
-6.6112871
11
19.6161136
21
-6.7092506
0
LINE
8
layer0
10
19.6161136
20
-6.7092506
11
19.5112118
21
-6.8116829
0
LINE
8
layer0
10
19.5112118
20
-6.8116829
11
19.3948761
21
-6.9161116
0
LINE
8
layer0
10
19.3948761
20
-6.9161116
11
19.2654455
21
-7.0228588
0
LINE
8
layer0
10
19.2654455
20
-7.0228588
11
19.1391288
21
-7.1186991
0
ARC
8
layer0
10
21.5000095
20
0.0000257
40
7.5
50
246.8093222
51
251.6522199
0
LINE
8
layer0
10
18.5465668
20
-6.89397
11
18.5155713
21
-6.738469
0
LINE
8
layer0
10
18.5155713
20
-6.738469
11
18.4894775
21
-6.5727392
0
LINE
8
layer0
10
18.4894775
20
-6.5727392
11
18.471648
21
-6.4174284
0
LINE
8
layer0
10
18.471648
20
-6.4174284
11
18.4610532
21
-6.271194
0
LINE
8
layer0
10
18.4610532
20
-6.271194
11
18.4569567
21
-6.136687
0
LINE
8
layer0
10
18.4569567
20
-6.136687
11
18.4583839
21
-6.01157
0
LINE
8
layer0
10
18.4583839
20
-6.01157
11
18.4644411
21
-5.8981059
0
LINE
8
layer0
10
18.4644411
20
-5.8981059
11
18.4741486
21
-5.7963232
0
LINE
8
layer0
10
18.4741486
20
-5.7963232
11
18.4867173
21
-5.704936
0
LINE
8
layer0
10
18.4867173
20
-5.704936
11
18.5015287
21
-5.62308
0
LINE
8
layer0
10
18.5015287
20
-5.62308
11
18.5321655
21
-5.4977358
0
LINE
8
layer0
10
18.5321655
20
-5.4977358
11
18.5689158
21
-5.3919822
0
LINE
8
layer0
10
18.5689158
20
-5.3919822
11
18.6473068
21
-5.2852258
0
LINE
8
layer0
10
18.6473068
20
-5.2852258
11
18.7150288
21
-5.1769739
0
LINE
8
layer0
10
18.7150288
20
-5.1769739
11
18.768939
21
-5.0727125
0
LINE
8
layer0
10
18.768939
20
-5.0727125
11
18.8095297
21
-4.9734008
0
LINE
8
layer0
10
18.8095297
20
-4.9734008
11
18.8373212
21
-4.8799572
0
LINE
8
layer0
10
18.8373212
20
-4.8799572
11
18.8528848
21
-4.7932619
0
LINE
8
layer0
10
18.8528848
20
-4.7932619
11
18.8568502
21
-4.7141626
0
LINE
8
layer0
10
18.8568502
20
-4.7141626
11
18.8498979
21
-4.6434694
0
LINE
8
layer0
10
18.8498979
20
-4.6434694
11
18.8327479
21
-4.5819344
0
LINE
8
layer0
10
18.8327479
20
-4.5819344
11
18.8205923
21
-4.5548316
0
LINE
8
layer0
10
18.8205923
20
-4.5548316
11
18.8061736
21
-4.5302859
0
LINE
8
layer0
10
18.8061736
20
-4.5302859
11
18.7896069
21
-4.5083766
0
LINE
8
layer0
10
18.7896069
20
-4.5083766
11
18.7709771
21
-4.4891746
0
LINE
8
layer0
10
18.7709771
20
-4.4891746
11
18.7449799
21
-4.4691158
0
LINE
8
layer0
10
18.7449799
20
-4.4691158
11
18.5967461
21
-4.3742216
0
LINE
8
layer0
10
18.5967461
20
-4.3742216
11
18.5176601
21
-4.3206653
0
LINE
8
layer0
10
18.5176601
20
-4.3206653
11
18.4395397
21
-4.2657099
0
LINE
8
layer0
10
18.4395397
20
-4.2657099
11
18.2982478
21
-4.1607589
0
LINE
8
layer0
10
18.2982478
20
-4.1607589
11
18.2702737
21
-4.143564
0
LINE
8
layer0
10
18.2702737
20
-4.143564
11
18.2457133
21
-4.132954
0
LINE
8
layer0
10
18.2457133
20
-4.132954
11
18.2193532
21
-4.125233
0
LINE
8
layer0
10
18.2193532
20
-4.125233
11
18.1912895
21
-4.1204553
0
LINE
8
layer0
10
18.1912895
20
-4.1204553
11
18.1616375
21
-4.1187004
0
LINE
8
layer0
10
18.1616375
20
-4.1187004
11
18.0980198
21
-4.1244855
0
LINE
8
layer0
10
18.0980198
20
-4.1244855
11
18.0294552
21
-4.1430531
0
LINE
8
layer0
10
18.0294552
20
-4.1430531
11
17.9569023
21
-4.1748098
0
LINE
8
layer0
10
17.9569023
20
-4.1748098
11
17.8813596
21
-4.2201046
0
LINE
8
layer0
10
17.8813596
20
-4.2201046
11
17.8038434
21
-4.2792257
0
LINE
8
layer0
10
17.8038434
20
-4.2792257
11
17.725379
21
-4.352395
0
LINE
8
layer0
10
17.725379
20
-4.352395
11
17.6470097
21
-4.4397736
0
LINE
8
layer0
10
17.6470097
20
-4.4397736
11
17.569807
21
-4.5414814
0
LINE
8
layer0
10
17.569807
20
-4.5414814
11
17.4977858
21
-4.6526346
0
LINE
8
layer0
10
17.4977858
20
-4.6526346
11
17.4119363
21
-4.7244974
0
LINE
8
layer0
10
17.4119363
20
-4.7244974
11
17.3056014
21
-4.7975911
0
LINE
8
layer0
10
17.3056014
20
-4.7975911
11
17.2343169
21
-4.8404665
0
LINE
8
layer0
10
17.2343169
20
-4.8404665
11
17.1533253
21
-4.8846247
0
LINE
8
layer0
10
17.1533253
20
-4.8846247
11
17.0615992
21
-4.9297941
0
LINE
8
layer0
10
17.0615992
20
-4.9297941
11
16.9576563
21
-4.9756926
0
LINE
8
layer0
10
16.9576563
20
-4.9756926
11
16.841176
21
-5.0213941
0
LINE
8
layer0
10
16.841176
20
-5.0213941
11
16.7139572
21
-5.0652607
0
LINE
8
layer0
10
16.7139572
20
-5.0652607
11
16.5734687
21
-5.1072097
0
LINE
8
layer0
10
16.5734687
20
-5.1072097
11
16.4219281
21
-5.1456129
0
LINE
8
layer0
10
16.4219281
20
-5.1456129
11
16.2577151
21
-5.1799834
0
LINE
8
layer0
10
16.2577151
20
-5.1799834
11
16.1013279
21
-5.2061435
0
ARC
8
layer0
10
21.50002
20
0.0000186
40
7.5
50
219.1170178
51
223.9599155
0
LINE
8
layer0
10
15.6810772
20
-4.7317784
11
15.7258969
21
-4.5796848
0
LINE
8
layer0
10
15.7258969
20
-4.5796848
11
15.7798105
21
-4.420812
0
LINE
8
layer0
10
15.7798105
20
-4.420812
11
15.8361998
21
-4.2750053
0
LINE
8
layer0
10
15.8361998
20
-4.2750053
11
15.8947771
21
-4.1405975
0
LINE
8
layer0
10
15.8947771
20
-4.1405975
11
15.9536583
21
-4.0195937
0
LINE
8
layer0
10
15.9536583
20
-4.0195937
11
16.0130668
21
-3.9094714
0
LINE
8
layer0
10
16.0130668
20
-3.9094714
11
16.0711596
21
-3.8118188
0
LINE
8
layer0
10
16.0711596
20
-3.8118188
11
16.1270559
21
-3.7262061
0
LINE
8
layer0
10
16.1270559
20
-3.7262061
11
16.1806547
21
-3.6511277
0
LINE
8
layer0
10
16.1806547
20
-3.6511277
11
16.2318099
21
-3.585531
0
LINE
8
layer0
10
16.2318099
20
-3.585531
11
16.3171879
21
-3.4887818
0
LINE
8
layer0
10
16.3171879
20
-3.4887818
11
16.3988747
21
-3.4122204
0
LINE
8
layer0
10
16.3988747
20
-3.4122204
11
16.5178987
21
-3.3541224
0
LINE
8
layer0
10
16.5178987
20
-3.3541224
11
16.6281707
21
-3.2897421
0
LINE
8
layer0
10
16.6281707
20
-3.2897421
11
16.7243586
21
-3.2224765
0
LINE
8
layer0
10
16.7243586
20
-3.2224765
11
16.8064522
21
-3.1534038
0
LINE
8
layer0
10
16.8064522
20
-3.1534038
11
16.8744858
21
-3.083579
0
LINE
8
layer0
10
16.8744858
20
-3.083579
11
16.928556
21
-3.0140468
0
LINE
8
layer0
10
16.928556
20
-3.0140468
11
16.9688265
21
-2.9458508
0
LINE
8
layer0
10
16.9688265
20
-2.9458508
11
16.9955233
21
-2.8800241
0
LINE
8
layer0
10
16.9955233
20
-2.8800241
11
17.0089345
21
-2.8175676
0
LINE
8
layer0
10
17.0089345
20
-2.8175676
11
17.0107665
21
-2.7879203
0
LINE
8
layer0
10
17.0107665
20
-2.7879203
11
17.0094063
21
-2.7594853
0
LINE
8
layer0
10
17.0094063
20
-2.7594853
11
17.004919
21
-2.7323867
0
LINE
8
layer0
10
17.004919
20
-2.7323867
11
16.9973467
21
-2.7067265
0
LINE
8
layer0
10
16.9973467
20
-2.7067265
11
16.9836492
21
-2.6768838
0
LINE
8
layer0
10
16.9836492
20
-2.6768838
11
16.8964942
21
-2.5239715
0
LINE
8
layer0
10
16.8964942
20
-2.5239715
11
16.8513559
21
-2.4397967
0
LINE
8
layer0
10
16.8513559
20
-2.4397967
11
16.8077228
21
-2.3548317
0
LINE
8
layer0
10
16.8077228
20
-2.3548317
11
16.7313881
21
-2.1962406
0
LINE
8
layer0
10
16.7313881
20
-2.1962406
11
16.7146092
21
-2.1680151
0
LINE
8
layer0
10
16.7146092
20
-2.1680151
11
16.6977927
21
-2.1472066
0
LINE
8
layer0
10
16.6977927
20
-2.1472066
11
16.6780401
21
-2.1281198
0
LINE
8
layer0
10
16.6780401
20
-2.1281198
11
16.6554113
21
-2.1108475
0
LINE
8
layer0
10
16.6554113
20
-2.1108475
11
16.6299713
21
-2.0955136
0
LINE
8
layer0
10
16.6299713
20
-2.0955136
11
16.5709522
21
-2.0710715
0
LINE
8
layer0
10
16.5709522
20
-2.0710715
11
16.5016124
21
-2.0556487
0
LINE
8
layer0
10
16.5016124
20
-2.0556487
11
16.4226119
21
-2.0500509
0
LINE
8
layer0
10
16.4226119
20
-2.0500509
11
16.3346727
21
-2.055051
0
LINE
8
layer0
10
16.3346727
20
-2.055051
11
16.2385605
21
-2.0713766
0
LINE
8
layer0
10
16.2385605
20
-2.0713766
11
16.1350803
21
-2.0997006
0
LINE
8
layer0
10
16.1350803
20
-2.0997006
11
16.0250808
21
-2.1406504
0
LINE
8
layer0
10
16.0250808
20
-2.1406504
11
15.9094553
21
-2.1948303
0
LINE
8
layer0
10
15.9094553
20
-2.1948303
11
15.7940282
21
-2.2597817
0
LINE
8
layer0
10
15.7940282
20
-2.2597817
11
15.684616
21
-2.2835168
0
LINE
8
layer0
10
15.684616
20
-2.2835168
11
15.5564928
21
-2.2988217
0
LINE
8
layer0
10
15.5564928
20
-2.2988217
11
15.4734483
21
-2.3036584
0
LINE
8
layer0
10
15.4734483
20
-2.3036584
11
15.3812124
21
-2.30512
0
LINE
8
layer0
10
15.3812124
20
-2.30512
11
15.2790018
21
-2.3024882
0
LINE
8
layer0
10
15.2790018
20
-2.3024882
11
15.1656348
21
-2.2948246
0
LINE
8
layer0
10
15.1656348
20
-2.2948246
11
15.041258
21
-2.2811602
0
LINE
8
layer0
10
15.041258
20
-2.2811602
11
14.9082256
21
-2.2608806
0
LINE
8
layer0
10
14.9082256
20
-2.2608806
11
14.7643344
21
-2.2327364
0
LINE
8
layer0
10
14.7643344
20
-2.2327364
11
14.6123051
21
-2.1963162
0
LINE
8
layer0
10
14.6123051
20
-2.1963162
11
14.4509289
21
-2.1504362
0
LINE
8
layer0
10
14.4509289
20
-2.1504362
11
14.3002977
21
-2.1009231
0
ARC
8
layer0
10
21.5000266
20
0.0000063
40
7.5
50
191.4247035
51
196.2676007
0
LINE
8
layer0
10
14.1486326
20
-1.4855935
11
14.259
21
-1.37175
0
LINE
8
layer0
10
14.259
20
-1.37175
11
14.38057
21
-1.25613
0
LINE
8
layer0
10
14.38057
20
-1.25613
11
14.49826
21
-1.15323
0
LINE
8
layer0
10
14.49826
20
-1.15323
11
14.61259
21
-1.06144
0
LINE
8
layer0
10
14.61259
20
-1.06144
11
14.72096
21
-0.98166
0
LINE
8
layer0
10
14.72096
20
-0.98166
11
14.82474
21
-0.91176
0
LINE
8
layer0
10
14.82474
20
-0.91176
11
14.92156
21
-0.85229
0
LINE
8
layer0
10
14.92156
20
-0.85229
11
15.01084
21
-0.80246
0
LINE
8
layer0
10
15.01084
20
-0.80246
11
15.09319
21
-0.76089
0
LINE
8
layer0
10
15.09319
20
-0.76089
11
15.16897
21
-0.72658
0
LINE
8
layer0
10
15.16897
20
-0.72658
11
15.28953
21
-0.68059
0
LINE
8
layer0
10
15.28953
20
-0.68059
11
15.39744
21
-0.65076
0
LINE
8
layer0
10
15.39744
20
-0.65076
11
15.52983
21
-0.65463
0
LINE
8
layer0
10
15.52983
20
-0.65463
11
15.65739
21
-0.64887
0
LINE
8
layer0
10
15.65739
20
-0.64887
11
15.77382
21
-0.63401
0
LINE
8
layer0
10
15.77382
20
-0.63401
11
15.87861
21
-0.611
0
LINE
8
layer0
10
15.87861
20
-0.611
11
15.9713
21
-0.58079
0
LINE
8
layer0
10
15.9713
20
-0.58079
11
16.05149
21
-0.54435
0
LINE
8
layer0
10
16.05149
20
-0.54435
11
16.11884
21
-0.50268
0
LINE
8
layer0
10
16.11884
20
-0.50268
11
16.17307
21
-0.4568
0
LINE
8
layer0
10
16.17307
20
-0.4568
11
16.21397
21
-0.40773
0
LINE
8
layer0
10
16.21397
20
-0.40773
11
16.22937
21
-0.38233
0
LINE
8
layer0
10
16.22937
20
-0.38233
11
16.24138
21
-0.35652
0
LINE
8
layer0
10
16.24138
20
-0.35652
11
16.25
21
-0.33044
0
LINE
8
layer0
10
16.25
20
-0.33044
11
16.25522
21
-0.3042
0
LINE
8
layer0
10
16.25522
20
-0.3042
11
16.25696
21
-0.27141
0
LINE
8
layer0
10
16.25696
20
-0.27141
11
16.25085
21
-0.09551
0
LINE
8
layer0
10
16.25085
20
-0.09551
11
16.25
21
0
0
LINE
8
layer0
10
16.25
20
0
11
16.25085
21
0.09551
0
LINE
8
layer0
10
16.25085
20
0.09551
11
16.25696
21
0.27141
0
LINE
8
layer0
10
16.25696
20
0.27141
11
16.25522
21
0.3042
0
LINE
8
layer0
10
16.25522
20
0.3042
11
16.25
21
0.33044
0
LINE
8
layer0
10
16.25
20
0.33044
11
16.24138
21
0.35652
0
LINE
8
layer0
10
16.24138
20
0.35652
11
16.22937
21
0.38233
0
LINE
8
layer0
10
16.22937
20
0.38233
11
16.21397
21
0.40773
0
LINE
8
layer0
10
16.21397
20
0.40773
11
16.17307
21
0.4568
0
LINE
8
layer0
10
16.17307
20
0.4568
11
16.11884
21
0.50268
0
LINE
8
layer0
10
16.11884
20
0.50268
11
16.05149
21
0.54435
0
LINE
8
layer0
10
16.05149
20
0.54435
11
15.9713
21
0.58079
0
LINE
8
layer0
10
15.9713
20
0.58079
11
15.87861
21
0.611
0
LINE
8
layer0
10
15.87861
20
0.611
11
15.77382
21
0.63401
0
LINE
8
layer0
10
15.77382
20
0.63401
11
15.65739
21
0.64887
0
LINE
8
layer0
10
15.65739
20
0.64887
11
15.52983
21
0.65463
0
LINE
8
layer0
10
15.52983
20
0.65463
11
15.39744
21
0.65076
0
LINE
8
layer0
10
15.39744
20
0.65076
11
15.28953
21
0.68059
0
LINE
8
layer0
10
15.28953
20
0.68059
11
15.16897
21
0.72658
0
LINE
8
layer0
10
15.16897
20
0.72658
11
15.09319
21
0.76089
0
LINE
8
layer0
10
15.09319
20
0.76089
11
15.01084
21
0.80246
0
LINE
8
layer0
10
15.01084
20
0.80246
11
14.92156
21
0.85229
0
LINE
8
layer0
10
14.92156
20
0.85229
11
14.82474
21
0.91176
0
LINE
8
layer0
10
14.82474
20
0.91176
11
14.72096
21
0.98166
0
LINE
8
layer0
10
14.72096
20
0.98166
11
14.61259
21
1.06144
0
LINE
8
layer0
10
14.61259
20
1.06144
11
14.49826
21
1.15323
0
LINE
8
layer0
10
14.49826
20
1.15323
11
14.38057
21
1.25613
0
LINE
8
layer0
10
14.38057
20
1.25613
11
14.259
21
1.37175
0
LINE
8
layer0
10
14.259
20
1.37175
11
14.1486326
21
1.4855935
0
ARC
8
layer0
10
21.5000266
20
-0.0000062
40
7.5
50
163.7324
51
168.5752973
0
LINE
8
layer0
10
14.3002977
20
2.1009231
11
14.4509289
21
2.1504362
0
LINE
8
layer0
10
14.4509289
20
2.1504362
11
14.6123051
21
2.1963162
0
LINE
8
layer0
10
14.6123051
20
2.1963162
11
14.7643344
21
2.2327364
0
LINE
8
layer0
10
14.7643344
20
2.2327364
11
14.9082256
21
2.2608806
0
LINE
8
layer0
10
14.9082256
20
2.2608806
11
15.041258
21
2.2811602
0
LINE
8
layer0
10
15.041258
20
2.2811602
11
15.1656348
21
2.2948246
0
LINE
8
layer0
10
15.1656348
20
2.2948246
11
15.2790018
21
2.3024882
0
LINE
8
layer0
10
15.2790018
20
2.3024882
11
15.3812124
21
2.30512
0
LINE
8
layer0
10
15.3812124
20
2.30512
11
15.4734483
21
2.3036584
0
LINE
8
layer0
10
15.4734483
20
2.3036584
11
15.5564928
21
2.2988217
0
LINE
8
layer0
10
15.5564928
20
2.2988217
11
15.684616
21
2.2835168
0
LINE
8
layer0
10
15.684616
20
2.2835168
11
15.7940282
21
2.2597817
0
LINE
8
layer0
10
15.7940282
20
2.2597817
11
15.9094553
21
2.1948303
0
LINE
8
layer0
10
15.9094553
20
2.1948303
11
16.0250808
21
2.1406504
0
LINE
8
layer0
10
16.0250808
20
2.1406504
11
16.1350803
21
2.0997006
0
LINE
8
layer0
10
16.1350803
20
2.0997006
11
16.2385605
21
2.0713766
0
LINE
8
layer0
10
16.2385605
20
2.0713766
11
16.3346727
21
2.055051
0
LINE
8
layer0
10
16.3346727
20
2.055051
11
16.4226119
21
2.0500509
0
LINE
8
layer0
10
16.4226119
20
2.0500509
11
16.5016124
21
2.0556487
0
LINE
8
layer0
10
16.5016124
20
2.0556487
11
16.5709522
21
2.0710715
0
LINE
8
layer0
10
16.5709522
20
2.0710715
11
16.6299713
21
2.0955136
0
LINE
8
layer0
10
16.6299713
20
2.0955136
11
16.6554113
21
2.1108475
0
LINE
8
layer0
10
16.6554113
20
2.1108475
11
16.6780401
21
2.1281198
0
LINE
8
layer0
10
16.6780401
20
2.1281198
11
16.6977927
21
2.1472066
0
LINE
8
layer0
10
16.6977927
20
2.1472066
11
16.7146092
21
2.1680151
0
LINE
8
layer0
10
16.7146092
20
2.1680151
11
16.7313881
21
2.1962406
0
LINE
8
layer0
10
16.7313881
20
2.1962406
11
16.8077228
21
2.3548317
0
LINE
8
layer0
10
16.8077228
20
2.3548317
11
16.8513559
21
2.4397967
0
LINE
8
layer0
10
16.8513559
20
2.4397967
11
16.8964942
21
2.5239715
0
LINE
8
layer0
10
16.8964942
20
2.5239715
11
16.9836492
21
2.6768838
0
LINE
8
layer0
10
16.9836492
20
2.6768838
11
16.9973467
21
2.7067265
0
LINE
8
layer0
10
16.9973467
20
2.7067265
11
17.004919
21
2.7323867
0
LINE
8
layer0
10
17.004919
20
2.7323867
11
17.0094063
21
2.7594853
0
LINE
8
layer0
10
17.0094063
20
2.7594853
11
17.0107665
21
2.7879203
0
LINE
8
layer0
10
17.0107665
20
2.7879203
11
17.0089345
21
2.8175676
0
LINE
8
layer0
10
17.0089345
20
2.8175676
11
16.9955233
21
2.8800241
0
LINE
8
layer0
10
16.9955233
20
2.8800241
11
16.9688265
21
2.9458508
0
LINE
8
layer0
10
16.9688265
20
2.9458508
11
16.928556
21
3.0140468
0
LINE
8
layer0
10
16.928556
20
3.0140468
11
16.8744858
21
3.083579
0
LINE
8
layer0
10
16.8744858
20
3.083579
11
16.8064522
21
3.1534038
0
LINE
8
layer0
10
16.8064522
20
3.1534038
11
16.7243586
21
3.2224765
0
LINE
8
layer0
10
16.7243586
20
3.2224765
11
16.6281707
21
3.2897421
0
LINE
8
layer0
10
16.6281707
20
3.2897421
11
16.5178987
21
3.3541224
0
LINE
8
layer0
10
16.5178987
20
3.3541224
11
16.3988747
21
3.4122204
0
LINE
8
layer0
10
16.3988747
20
3.4122204
11
16.3171879
21
3.4887818
0
LINE
8
layer0
10
16.3171879
20
3.4887818
11
16.2318099
21
3.585531
0
LINE
8
layer0
10
16.2318099
20
3.585531
11
16.1806547
21
3.6511277
0
LINE
8
layer0
10
16.1806547
20
3.6511277
11
16.1270559
21
3.7262061
0
LINE
8
layer0
10
16.1270559
20
3.7262061
11
16.0711596
21
3.8118188
0
LINE
8
layer0
10
16.0711596
20
3.8118188
11
16.0130668
21
3.9094714
0
LINE
8
layer0
10
16.0130668
20
3.9094714
11
15.9536583
21
4.0195937
0
LINE
8
layer0
10
15.9536583
20
4.0195937
11
15.8947771
21
4.1405975
0
LINE
8
layer0
10
15.8947771
20
4.1405975
11
15.8361998
21
4.2750053
0
LINE
8
layer0
10
15.8361998
20
4.2750053
11
15.7798105
21
4.420812
0
LINE
8
layer0
10
15.7798105
20
4.420812
11
15.7258969
21
4.5796848
0
LINE
8
layer0
10
15.7258969
20
4.5796848
11
15.6810772
21
4.7317784
0
ARC
8
layer0
10
21.50002
20
-0.0000187
40
7.5
50
136.040084
51
140.8829817
0
LINE
8
layer0
10
16.1013279
20
5.2061435
11
16.2577151
21
5.1799834
0
LINE
8
layer0
10
16.2577151
20
5.1799834
11
16.4219281
21
5.1456129
0
LINE
8
layer0
10
16.4219281
20
5.1456129
11
16.5734687
21
5.1072097
0
LINE
8
layer0
10
16.5734687
20
5.1072097
11
16.7139572
21
5.0652607
0
LINE
8
layer0
10
16.7139572
20
5.0652607
11
16.841176
21
5.0213941
0
LINE
8
layer0
10
16.841176
20
5.0213941
11
16.9576563
21
4.9756926
0
LINE
8
layer0
10
16.9576563
20
4.9756926
11
17.0615992
21
4.9297941
0
LINE
8
layer0
10
17.0615992
20
4.9297941
11
17.1533253
21
4.8846247
0
LINE
8
layer0
10
17.1533253
20
4.8846247
11
17.2343169
21
4.8404665
0
LINE
8
layer0
10
17.2343169
20
4.8404665
11
17.3056014
21
4.7975911
0
LINE
8
layer0
10
17.3056014
20
4.7975911
11
17.4119363
21
4.7244974
0
LINE
8
layer0
10
17.4119363
20
4.7244974
11
17.4977858
21
4.6526346
0
LINE
8
layer0
10
17.4977858
20
4.6526346
11
17.569807
21
4.5414814
0
LINE
8
layer0
10
17.569807
20
4.5414814
11
17.6470097
21
4.4397736
0
LINE
8
layer0
10
17.6470097
20
4.4397736
11
17.725379
21
4.352395
0
LINE
8
layer0
10
17.725379
20
4.352395
11
17.8038434
21
4.2792257
0
LINE
8
layer0
10
17.8038434
20
4.2792257
11
17.8813596
21
4.2201046
0
LINE
8
layer0
10
17.8813596
20
4.2201046
11
17.9569023
21
4.1748098
0
LINE
8
layer0
10
17.9569023
20
4.1748098
11
18.0294552
21
4.1430531
0
LINE
8
layer0
10
18.0294552
20
4.1430531
11
18.0980198
21
4.1244855
0
LINE
8
layer0
10
18.0980198
20
4.1244855
11
18.1616375
21
4.1187004
0
LINE
8
layer0
10
18.1616375
20
4.1187004
11
18.1912895
21
4.1204553
0
LINE
8
layer0
10
18.1912895
20
4.1204553
11
18.2193532
21
4.125233
0
LINE
8
layer0
10
18.2193532
20
4.125233
11
18.2457133
21
4.132954
0
LINE
8
layer0
10
18.2457133
20
4.132954
11
18.2702737
21
4.143564
0
LINE
8
layer0
10
18.2702737
20
4.143564
11
18.2982478
21
4.1607589
0
LINE
8
layer0
10
18.2982478
20
4.1607589
11
18.4395397
21
4.2657099
0
LINE
8
layer0
10
18.4395397
20
4.2657099
11
18.5176601
21
4.3206653
0
LINE
8
layer0
10
18.5176601
20
4.3206653
11
18.5967461
21
4.3742216
0
LINE
8
layer0
10
18.5967461
20
4.3742216
11
18.7449799
21
4.4691158
0
LINE
8
layer0
10
18.7449799
20
4.4691158
11
18.7709771
21
4.4891746
0
LINE
8
layer0
10
18.7709771
20
4.4891746
11
18.7896069
21
4.5083766
0
LINE
8
layer0
10
18.7896069
20
4.5083766
11
18.8061736
21
4.5302859
0
LINE
8
layer0
10
18.8061736
20
4.5302859
11
18.8205923
21
4.5548316
0
LINE
8
layer0
10
18.8205923
20
4.5548316
11
18.8327479
21
4.5819344
0
LINE
8
layer0
10
18.8327479
20
4.5819344
11
18.8498979
21
4.6434694
0
LINE
8
layer0
10
18.8498979
20
4.6434694
11
18.8568502
21
4.7141626
0
LINE
8
layer0
10
18.8568502
20
4.7141626
11
18.8528848
21
4.7932619
0
LINE
8
layer0
10
18.8528848
20
4.7932619
11
18.8373212
21
4.8799572
0
LINE
8
layer0
10
18.8373212
20
4.8799572
11
18.8095297
21
4.9734008
0
LINE
8
layer0
10
18.8095297
20
4.9734008
11
18.768939
21
5.0727125
0
LINE
8
layer0
10
18.768939
20
5.0727125
11
18.7150288
21
5.1769739
0
LINE
8
layer0
10
18.7150288
20
5.1769739
11
18.6473068
21
5.2852258
0
LINE
8
layer0
10
18.6473068
20
5.2852258
11
18.5689158
21
5.3919822
0
LINE
8
layer0
10
18.5689158
20
5.3919822
11
18.5321655
21
5.4977358
0
LINE
8
layer0
10
18.5321655
20
5.4977358
11
18.5015287
21
5.62308
0
LINE
8
layer0
10
18.5015287
20
5.62308
11
18.4867173
21
5.704936
0
LINE
8
layer0
10
18.4867173
20
5.704936
11
18.4741486
21
5.7963232
0
LINE
8
layer0
10
18.4741486
20
5.7963232
11
18.4644411
21
5.8981059
0
LINE
8
layer0
10
18.4644411
20
5.8981059
11
18.4583839
21
6.01157
0
LINE
8
layer0
10
18.4583839
20
6.01157
11
18.4569567
21
6.136687
0
LINE
8
layer0
10
18.4569567
20
6.136687
11
18.4610532
21
6.271194
0
LINE
8
layer0
10
18.4610532
20
6.271194
11
18.471648
21
6.4174284
0
LINE
8
layer0
10
18.471648
20
6.4174284
11
18.4894775
21
6.5727392
0
LINE
8
layer0
10
18.4894775
20
6.5727392
11
18.5155713
21
6.738469
0
LINE
8
layer0
10
18.5155713
20
6.738469
11
18.5465668
21
6.89397
0
ARC
8
layer0
10
21.5000094
20
-0.0000257
40
7.5
50
108.3477794
51
113.1906771
0
LINE
8
layer0
10
19.1391288
20
7.1186991
11
19.2654455
21
7.0228588
0
LINE
8
layer0
10
19.2654455
20
7.0228588
11
19.3948761
21
6.9161116
0
LINE
8
layer0
10
19.3948761
20
6.9161116
11
19.5112118
21
6.8116829
0
LINE
8
layer0
10
19.5112118
20
6.8116829
11
19.6161136
21
6.7092506
0
LINE
8
layer0
10
19.6161136
20
6.7092506
11
19.7083744
21
6.6112871
0
LINE
8
layer0
10
19.7083744
20
6.6112871
11
19.7902741
21
6.5166893
0
LINE
8
layer0
10
19.7902741
20
6.5166893
11
19.8609808
21
6.4277436
0
LINE
8
layer0
10
19.8609808
20
6.4277436
11
19.921209
21
6.3451209
0
LINE
8
layer0
10
19.921209
20
6.3451209
11
19.9724021
21
6.268382
0
LINE
8
layer0
10
19.9724021
20
6.268382
11
20.0155962
21
6.1972901
0
LINE
8
layer0
10
20.0155962
20
6.1972901
11
20.0757828
21
6.0831526
0
LINE
8
layer0
10
20.0757828
20
6.0831526
11
20.1184024
21
5.979625
0
LINE
8
layer0
10
20.1184024
20
5.979625
11
20.1305185
21
5.8477338
0
LINE
8
layer0
10
20.1305185
20
5.8477338
11
20.1516122
21
5.7217982
0
LINE
8
layer0
10
20.1516122
20
5.7217982
11
20.1803979
21
5.6080082
0
LINE
8
layer0
10
20.1803979
20
5.6080082
11
20.2158712
21
5.5067558
0
LINE
8
layer0
10
20.2158712
20
5.5067558
11
20.2570335
21
5.4183831
0
LINE
8
layer0
10
20.2570335
20
5.4183831
11
20.3028736
21
5.3431701
0
LINE
8
layer0
10
20.3028736
20
5.3431701
11
20.3523579
21
5.2813339
0
LINE
8
layer0
10
20.3523579
20
5.2813339
11
20.4044401
21
5.2330295
0
LINE
8
layer0
10
20.4044401
20
5.2330295
11
20.4580823
21
5.1983425
0
LINE
8
layer0
10
20.4580823
20
5.1983425
11
20.4851534
21
5.1861164
0
LINE
8
layer0
10
20.4851534
20
5.1861164
11
20.5122228
21
5.177305
0
LINE
8
layer0
10
20.5122228
20
5.177305
11
20.5391517
21
5.1718914
0
LINE
8
layer0
10
20.5391517
20
5.1718914
11
20.5658296
21
5.1698724
0
LINE
8
layer0
10
20.5658296
20
5.1698724
11
20.5985902
21
5.1720975
0
LINE
8
layer0
10
20.5985902
20
5.1720975
11
20.7724713
21
5.1993653
0
LINE
8
layer0
10
20.7724713
20
5.1993653
11
20.8671824
21
5.2117216
0
LINE
8
layer0
10
20.8671824
20
5.2117216
11
20.9620985
21
5.2223902
0
LINE
8
layer0
10
20.9620985
20
5.2223902
11
21.1374525
21
5.2375272
0
LINE
8
layer0
10
21.1374525
20
5.2375272
11
21.1697937
21
5.2432069
0
LINE
8
layer0
10
21.1697937
20
5.2432069
11
21.1952131
21
5.2515517
0
LINE
8
layer0
10
21.1952131
20
5.2515517
11
21.220064
21
5.2632525
0
LINE
8
layer0
10
21.220064
20
5.2632525
11
21.2442381
21
5.278286
0
LINE
8
layer0
10
21.2442381
20
5.278286
11
21.2675967
21
5.2966353
0
LINE
8
layer0
10
21.2675967
20
5.2966353
11
21.311379
21
5.3431518
0
LINE
8
layer0
10
21.311379
20
5.3431518
11
21.3503877
21
5.4025167
0
LINE
8
layer0
10
21.3503877
20
5.4025167
11
21.3836358
21
5.4743984
0
LINE
8
layer0
10
21.3836358
20
5.4743984
11
21.4101442
21
5.5583961
0
LINE
8
layer0
10
21.4101442
20
5.5583961
11
21.4289614
21
5.6540516
0
LINE
8
layer0
10
21.4289614
20
5.6540516
11
21.4391726
21
5.7608512
0
LINE
8
layer0
10
21.4391726
20
5.7608512
11
21.4398902
21
5.8782234
0
LINE
8
layer0
10
21.4398902
20
5.8782234
11
21.4302325
21
6.0055477
0
LINE
8
layer0
10
21.4302325
20
6.0055477
11
21.4104329
21
6.1365059
0
LINE
8
layer0
10
21.4104329
20
6.1365059
11
21.4270383
21
6.2472247
0
LINE
8
layer0
10
21.4270383
20
6.2472247
11
21.4581611
21
6.3724492
0
LINE
8
layer0
10
21.4581611
20
6.3724492
11
21.4830866
21
6.4518123
0
LINE
8
layer0
10
21.4830866
20
6.4518123
11
21.5144274
21
6.5385726
0
LINE
8
layer0
10
21.5144274
20
6.5385726
11
21.5531325
21
6.633208
0
LINE
8
layer0
10
21.5531325
20
6.633208
11
21.6004986
21
6.7364904
0
LINE
8
layer0
10
21.6004986
20
6.7364904
11
21.6573796
21
6.8479392
0
LINE
8
layer0
10
21.6573796
20
6.8479392
11
21.7235154
21
6.9651355
0
LINE
8
layer0
10
21.7235154
20
6.9651355
11
21.8008552
21
7.0896959
0
LINE
8
layer0
10
21.8008552
20
7.0896959
11
21.8888189
21
7.2189311
0
LINE
8
layer0
10
21.8888189
20
7.2189311
11
21.9889423
21
7.3535511
0
LINE
8
layer0
10
21.9889423
20
7.3535511
11
22.0886524
21
7.4768361
0
ARC
8
layer0
10
21.4999971
20
-0.0000272
40
7.5
50
80.6554772
51
85.4983748
0
LINE
8
layer0
10
22.7177768
20
7.4004466
11
22.7850855
21
7.2568819
0
LINE
8
layer0
10
22.7850855
20
7.2568819
11
22.8500827
21
7.1022125
0
LINE
8
layer0
10
22.8500827
20
7.1022125
11
22.9045624
21
6.9556816
0
LINE
8
layer0
10
22.9045624
20
6.9556816
11
22.9498456
21
6.816232
0
LINE
8
layer0
10
22.9498456
20
6.816232
11
22.9860127
21
6.6866139
0
LINE
8
layer0
10
22.9860127
20
6.6866139
11
23.0145694
21
6.5647911
0
LINE
8
layer0
10
23.0145694
20
6.5647911
11
23.035842
21
6.4531745
0
LINE
8
layer0
10
23.035842
20
6.4531745
11
23.0507747
21
6.3520262
0
LINE
8
layer0
10
23.0507747
20
6.3520262
11
23.0604416
21
6.2602867
0
LINE
8
layer0
10
23.0604416
20
6.2602867
11
23.0656501
21
6.1772647
0
LINE
8
layer0
10
23.0656501
20
6.1772647
11
23.0659003
21
6.0482309
0
LINE
8
layer0
10
23.0659003
20
6.0482309
11
23.0555264
21
5.9367554
0
LINE
8
layer0
10
23.0555264
20
5.9367554
11
23.0049618
21
5.8143409
0
LINE
8
layer0
10
23.0049618
20
5.8143409
11
22.9651141
21
5.6930277
0
LINE
8
layer0
10
22.9651141
20
5.6930277
11
22.9377218
21
5.5788944
0
LINE
8
layer0
10
22.9377218
20
5.5788944
11
22.9220774
21
5.4727545
0
LINE
8
layer0
10
22.9220774
20
5.4727545
11
22.917456
21
5.3753753
0
LINE
8
layer0
10
22.917456
20
5.3753753
11
22.9230922
21
5.2874745
0
LINE
8
layer0
10
22.9230922
20
5.2874745
11
22.9381717
21
5.2097248
0
LINE
8
layer0
10
22.9381717
20
5.2097248
11
22.96184
21
5.1427496
0
LINE
8
layer0
10
22.96184
20
5.1427496
11
22.9932179
21
5.087107
0
LINE
8
layer0
10
22.9932179
20
5.087107
11
23.0115064
21
5.0637007
0
LINE
8
layer0
10
23.0115064
20
5.0637007
11
23.0313804
21
5.0433188
0
LINE
8
layer0
10
23.0313804
20
5.0433188
11
23.0527089
21
5.0260109
0
LINE
8
layer0
10
23.0527089
20
5.0260109
11
23.0753927
21
5.0118253
0
LINE
8
layer0
10
23.0753927
20
5.0118253
11
23.1054348
21
4.9985709
0
LINE
8
layer0
10
23.1054348
20
4.9985709
11
23.2720708
21
4.9419088
0
LINE
8
layer0
10
23.2720708
20
4.9419088
11
23.3616757
21
4.9088353
0
LINE
8
layer0
10
23.3616757
20
4.9088353
11
23.4506776
21
4.8741722
0
LINE
8
layer0
10
23.4506776
20
4.8741722
11
23.6129804
21
4.8060842
0
LINE
8
layer0
10
23.6129804
20
4.8060842
11
23.6442566
21
4.7960837
0
LINE
8
layer0
10
23.6442566
20
4.7960837
11
23.6706424
21
4.7916596
0
LINE
8
layer0
10
23.6706424
20
4.7916596
11
23.6980843
21
4.7904714
0
LINE
8
layer0
10
23.6980843
20
4.7904714
11
23.7264759
21
4.7925486
0
LINE
8
layer0
10
23.7264759
20
4.7925486
11
23.7556862
21
4.7979409
0
LINE
8
layer0
10
23.7556862
20
4.7979409
11
23.8160708
21
4.8187826
0
LINE
8
layer0
10
23.8160708
20
4.8187826
11
23.8781996
21
4.8532192
0
LINE
8
layer0
10
23.8781996
20
4.8532192
11
23.9410444
21
4.9014162
0
LINE
8
layer0
10
23.9410444
20
4.9014162
11
24.0035521
21
4.9634733
0
LINE
8
layer0
10
24.0035521
20
4.9634733
11
24.0646673
21
5.0394274
0
LINE
8
layer0
10
24.0646673
20
5.0394274
11
24.1233411
21
5.1292483
0
LINE
8
layer0
10
24.1233411
20
5.1292483
11
24.178522
21
5.2328428
0
LINE
8
layer0
10
24.178522
20
5.2328428
11
24.2291411
21
5.3500709
0
LINE
8
layer0
10
24.2291411
20
5.3500709
11
24.2724688
21
5.47523
0
LINE
8
layer0
10
24.2724688
20
5.47523
11
24.3386257
21
5.5655498
0
LINE
8
layer0
10
24.3386257
20
5.5655498
11
24.4243783
21
5.6619671
0
LINE
8
layer0
10
24.4243783
20
5.6619671
11
24.4833306
21
5.7206561
0
LINE
8
layer0
10
24.4833306
20
5.7206561
11
24.551401
21
5.7829138
0
LINE
8
layer0
10
24.551401
20
5.7829138
11
24.629652
21
5.8487221
0
LINE
8
layer0
10
24.629652
20
5.8487221
11
24.7195902
21
5.918162
0
LINE
8
layer0
10
24.7195902
20
5.918162
11
24.8217488
21
5.9904111
0
LINE
8
layer0
10
24.8217488
20
5.9904111
11
24.9347729
21
6.0634484
0
LINE
8
layer0
10
24.9347729
20
6.0634484
11
25.06114
21
6.1377996
0
LINE
8
layer0
10
25.06114
20
6.1377996
11
25.1990866
21
6.2113529
0
LINE
8
layer0
10
25.1990866
20
6.2113529
11
25.3503025
21
6.2840234
0
LINE
8
layer0
10
25.3503025
20
6.2840234
11
25.4958848
21
6.3468492
0
ARC
8
layer0
10
21.4999841
20
-0.0000223
40
7.5
50
52.9631633
51
57.806061
0
LINE
8
layer0
10
26.0174468
20
5.9868409
11
26.0103278
21
5.8284408
0
LINE
8
layer0
10
26.0103278
20
5.8284408
11
25.9960016
21
5.6612822
0
LINE
8
layer0
10
25.9960016
20
5.6612822
11
25.9761447
21
5.5062175
0
LINE
8
layer0
10
25.9761447
20
5.5062175
11
25.9514355
21
5.3616969
0
LINE
8
layer0
10
25.9514355
20
5.3616969
11
25.9232233
21
5.2301181
0
LINE
8
layer0
10
25.9232233
20
5.2301181
11
25.8918951
21
5.1089783
0
LINE
8
layer0
10
25.8918951
20
5.1089783
11
25.8588602
21
5.0002608
0
LINE
8
layer0
10
25.8588602
20
5.0002608
11
25.8250766
21
4.903759
0
LINE
8
layer0
10
25.8250766
20
4.903759
11
25.7910027
21
4.8180352
0
LINE
8
layer0
10
25.7910027
20
4.8180352
11
25.7570323
21
4.7421024
0
LINE
8
layer0
10
25.7570323
20
4.7421024
11
25.6972889
21
4.6277323
0
LINE
8
layer0
10
25.6972889
20
4.6277323
11
25.6362981
21
4.5338467
0
LINE
8
layer0
10
25.6362981
20
4.5338467
11
25.5346364
21
4.4489526
0
LINE
8
layer0
10
25.5346364
20
4.4489526
11
25.442976
21
4.3600532
0
LINE
8
layer0
10
25.442976
20
4.3600532
11
25.3656809
21
4.271723
0
LINE
8
layer0
10
25.3656809
20
4.271723
11
25.3025029
21
4.1850111
0
LINE
8
layer0
10
25.3025029
20
4.1850111
11
25.2531564
21
4.1009338
0
LINE
8
layer0
10
25.2531564
20
4.1009338
11
25.2172975
21
4.0204823
0
LINE
8
layer0
10
25.2172975
20
4.0204823
11
25.1945176
21
3.9446305
0
LINE
8
layer0
10
25.1945176
20
3.9446305
11
25.1843499
21
3.8743277
0
LINE
8
layer0
10
25.1843499
20
3.8743277
11
25.1862753
21
3.8104766
0
LINE
8
layer0
10
25.1862753
20
3.8104766
11
25.1915915
21
3.7812523
0
LINE
8
layer0
10
25.1915915
20
3.7812523
11
25.1997171
21
3.7539691
0
LINE
8
layer0
10
25.1997171
20
3.7539691
11
25.2105592
21
3.7287318
0
LINE
8
layer0
10
25.2105592
20
3.7287318
11
25.2240523
21
3.7056294
0
LINE
8
layer0
10
25.2240523
20
3.7056294
11
25.2444937
21
3.6799319
0
LINE
8
layer0
10
25.2444937
20
3.6799319
11
25.3657103
21
3.5523206
0
LINE
8
layer0
10
25.3657103
20
3.5523206
11
25.4296814
21
3.481394
0
LINE
8
layer0
10
25.4296814
20
3.481394
11
25.49238
21
3.40934
0
LINE
8
layer0
10
25.49238
20
3.40934
11
25.6044499
21
3.2736253
0
LINE
8
layer0
10
25.6044499
20
3.2736253
11
25.6274961
21
3.2502355
0
LINE
8
layer0
10
25.6274961
20
3.2502355
11
25.6488037
21
3.2340561
0
LINE
8
layer0
10
25.6488037
20
3.2340561
11
25.6725501
21
3.220251
0
LINE
8
layer0
10
25.6725501
20
3.220251
11
25.6986549
21
3.2088961
0
LINE
8
layer0
10
25.6986549
20
3.2088961
11
25.7270253
21
3.200096
0
LINE
8
layer0
10
25.7270253
20
3.200096
11
25.7901788
21
3.1904883
0
LINE
8
layer0
10
25.7901788
20
3.1904883
11
25.8611946
21
3.1921077
0
LINE
8
layer0
10
25.8611946
20
3.1921077
11
25.9392391
21
3.2055786
0
LINE
8
layer0
10
25.9392391
20
3.2055786
11
26.0234264
21
3.2314787
0
LINE
8
layer0
10
26.0234264
20
3.2314787
11
26.1128388
21
3.270331
0
LINE
8
layer0
10
26.1128388
20
3.270331
11
26.2065337
21
3.3225964
0
LINE
8
layer0
10
26.2065337
20
3.3225964
11
26.3035368
21
3.3886809
0
LINE
8
layer0
10
26.3035368
20
3.3886809
11
26.4028364
21
3.4689574
0
LINE
8
layer0
10
26.4028364
20
3.4689574
11
26.4993655
21
3.559645
0
LINE
8
layer0
10
26.4993655
20
3.559645
11
26.5999182
21
3.6088744
0
LINE
8
layer0
10
26.5999182
20
3.6088744
11
26.7206557
21
3.6543965
0
LINE
8
layer0
10
26.7206557
20
3.6543965
11
26.8001295
21
3.6789665
0
LINE
8
layer0
10
26.8001295
20
3.6789665
11
26.8893354
21
3.7024591
0
LINE
8
layer0
10
26.8893354
20
3.7024591
11
26.9892059
21
3.7243644
0
LINE
8
layer0
10
26.9892059
20
3.7243644
11
27.1011126
21
3.744054
0
LINE
8
layer0
10
27.1011126
20
3.744054
11
27.2251453
21
3.760552
0
LINE
8
layer0
10
27.2251453
20
3.760552
11
27.3591653
21
3.7726984
0
LINE
8
layer0
10
27.3591653
20
3.7726984
11
27.5056106
21
3.7798074
0
LINE
8
layer0
10
27.5056106
20
3.7798074
11
27.6619381
21
3.7808285
0
LINE
8
layer0
10
27.6619381
20
3.7808285
11
27.8296048
21
3.7749015
0
LINE
8
layer0
10
27.8296048
20
3.7749015
11
27.9877082
21
3.7628756
0
ARC
8
layer0
10
21.4999757
20
-0.0000125
40
7.5
50
25.2708574
51
30.1137546
0
LINE
8
layer0
10
28.2822242
20
3.2017222
11
28.2023084
21
3.0647742
0
LINE
8
layer1
10
28.2023084
20
3.0647742
11
28.1119407
21
2.9234203
0
LINE
8
layer1
10
28.1119407
20
2.9234203
11
28.0222962
21
2.7953453
0
LINE
8
layer1
10
28.0222962
20
2.7953453
11
27.9332552
21
2.6788616
0
LINE
8
layer1
10
27.9332552
20
2.6788616
11
27.8471268
21
2.5754652
0
LINE
8
layer1
10
27.8471268
20
2.5754652
11
27.7630906
21
2.4827602
0
LINE
8
layer1
10
27.7630906
20
2.4827602
11
27.6833161
21
2.4018477
0
LINE
8
layer1
10
27.6833161
20
2.4018477
11
27.6085556
21
2.3320996
0
LINE
8
layer1
10
27.6085556
20
2.3320996
11
27.5385468
21
2.2720299
0
LINE
8
layer1
10
27.5385468
20
2.2720299
11
27.4731798
21
2.2205816
0
LINE
8
layer1
10
27.4731798
20
2.2205816
11
27.3671292
21
2.147076
0
LINE
8
layer1
10
27.3671292
20
2.147076
11
27.2694936
21
2.0922883
0
LINE
8
layer1
10
27.2694936
20
2.0922883
11
27.1400245
21
2.0643628
0
LINE
8
layer1
10
27.1400245
20
2.0643628
11
27.0175496
21
2.0282431
0
LINE
8
layer1
10
27.0175496
20
2.0282431
11
26.9080591
21
1.9859514
0
LINE
8
layer1
10
26.9080591
20
1.9859514
11
26.8118208
21
1.9385321
0
LINE
8
layer1
10
26.8118208
20
1.9385321
11
26.7290539
21
1.8870178
0
LINE
8
layer1
10
26.7290539
20
1.8870178
11
26.6599147
21
1.832446
0
LINE
8
layer1
10
26.6599147
20
1.832446
11
26.6044941
21
1.7758689
0
LINE
8
layer1
10
26.6044941
20
1.7758689
11
26.5628197
21
1.718344
0
LINE
8
layer1
10
26.5628197
20
1.718344
11
26.5348514
21
1.6609119
0
LINE
8
layer1
10
26.5348514
20
1.6609119
11
26.5259775
21
1.6325645
0
LINE
8
layer1
10
26.5259775
20
1.6325645
11
26.5204932
21
1.6046303
0
LINE
8
layer1
10
26.5204932
20
1.6046303
11
26.5183651
21
1.5772453
0
LINE
8
layer1
10
26.5183651
20
1.5772453
11
26.5195764
21
1.5505185
0
LINE
8
layer1
10
26.5195764
20
1.5505185
11
26.5257341
21
1.5182649
0
LINE
8
layer1
10
26.5257341
20
1.5182649
11
26.5737622
21
1.3489385
0
LINE
8
layer1
10
26.5737622
20
1.3489385
11
26.5974445
21
1.2564072
0
LINE
8
layer1
10
26.5974445
20
1.2564072
11
26.6194763
21
1.1634692
0
LINE
8
layer1
10
26.6194763
20
1.1634692
11
26.6556395
21
0.9912183
0
LINE
8
layer1
10
26.6556395
20
0.9912183
11
26.6651761
21
0.9597975
0
LINE
8
layer1
10
26.6651761
20
0.9597975
11
26.676524
21
0.9355692
0
LINE
8
layer1
10
26.676524
20
0.9355692
11
26.6911349
21
0.91231
0
LINE
8
layer1
10
26.6911349
20
0.91231
11
26.7089726
21
0.8901241
0
LINE
8
layer1
10
26.7089726
20
0.8901241
11
26.7300038
21
0.8691477
0
LINE
8
layer1
10
26.7300038
20
0.8691477
11
26.7814585
21
0.8312916
0
LINE
8
layer1
10
26.7814585
20
0.8312916
11
26.8450925
21
0.7997228
0
LINE
8
layer1
10
26.8450925
20
0.7997228
11
26.9204577
21
0.7753816
0
LINE
8
layer1
10
26.9204577
20
0.7753816
11
27.0070382
21
0.7591912
0
LINE
8
layer1
10
27.0070382
20
0.7591912
11
27.1042645
21
0.7520412
0
LINE
8
layer1
10
27.1042645
20
0.7520412
11
27.2115161
21
0.7547777
0
LINE
8
layer1
10
27.2115161
20
0.7547777
11
27.3281191
21
0.7682131
0
LINE
8
layer1
10
27.3281191
20
0.7682131
11
27.4533509
21
0.7931476
0
LINE
8
layer1
10
27.4533509
20
0.7931476
11
27.5809678
21
0.8285881
0
LINE
8
layer1
10
27.5809678
20
0.8285881
11
27.6928809
21
0.8254495
0
LINE
8
layer1
10
27.6928809
20
0.8254495
11
27.8209437
21
0.8096477
0
LINE
8
layer1
10
27.8209437
20
0.8096477
11
27.9027326
21
0.7944701
0
LINE
8
layer1
10
27.9027326
20
0.7944701
11
27.9926381
21
0.7738157
0
LINE
8
layer1
10
27.9926381
20
0.7738157
11
28.0912488
21
0.7467997
0
LINE
8
layer1
10
28.0912488
20
0.7467997
11
28.1994875
21
0.7122284
0
LINE
8
layer1
10
28.1994875
20
0.7122284
11
28.31698
21
0.6691957
0
LINE
8
layer1
10
28.31698
20
0.6691957
11
28.4412936
21
0.6176686
0
LINE
8
layer1
10
28.4412936
20
0.6176686
11
28.5742682
21
0.5559068
0
LINE
8
layer1
10
28.5742682
20
0.5559068
11
28.7131639
21
0.484162
0
LINE
8
layer1
10
28.7131639
20
0.484162
11
28.858871
21
0.4009953
0
LINE
8
layer1
10
28.858871
20
0.4009953
11
28.9932758
21
0.3168726
0
ARC
8
layer1
10
21.4999727
20
0
40
7.5
50
357.5785516
51
362.4214491
0
LINE
8
layer1
10
28.9932758
20
-0.3168726
11
28.858871
21
-0.4009953
0
LINE
8
layer1
10
28.858871
20
-0.4009953
11
28.7131639
21
-0.484162
0
LINE
8
layer1
10
28.7131639
20
-0.484162
11
28.5742682
21
-0.5559068
0
LINE
8
layer1
10
28.5742682
20
-0.5559068
11
28.4412936
21
-0.6176686
0
LINE
8
layer1
10
28.4412936
20
-0.6176686
11
28.31698
21
-0.6691957
0
LINE
8
layer1
10
28.31698
20
-0.6691957
11
28.1994875
21
-0.7122284
0
LINE
8
layer1
10
28.1994875
20
-0.7122284
11
28.0912488
21
-0.7467997
0
LINE
8
layer1
10
28.0912488
20
-0.7467997
11
27.9926381
21
-0.7738157
0
LINE
8
layer1
10
27.9926381
20
-0.7738157
11
27.9027326
21
-0.7944701
0
LINE
8
layer1
10
27.9027326
20
-0.7944701
11
27.8209437
21
-0.8096477
0
LINE
8
layer1
10
27.8209437
20
-0.8096477
11
27.6928809
21
-0.8254495
0
LINE
8
layer1
10
27.6928809
20
-0.8254495
11
27.5809678
21
-0.8285881
0
LINE
8
layer1
10
27.5809678
20
-0.8285881
11
27.4533509
21
-0.7931476
0
LINE
8
layer1
10
27.4533509
20
-0.7931476
11
27.3281191
21
-0.7682131
0
LINE
8
layer1
10
27.3281191
20
-0.7682131
11
27.2115161
21
-0.7547777
0
LINE
8
layer1
10
27.2115161
20
-0.7547777
11
27.1042645
21
-0.7520412
0
LINE
8
layer1
10
27.1042645
20
-0.7520412
11
27.0070382
21
-0.7591912
0
LINE
8
layer1
10
27.0070382
20
-0.7591912
11
26.9204577
21
-0.7753816
0
LINE
8
layer1
10
26.9204577
20
-0.7753816
11
26.8450925
21
-0.7997228
0
LINE
8
layer1
10
26.8450925
20
-0.7997228
11
26.7814585
21
-0.8312916
0
LINE
8
layer1
10
26.7814585
20
-0.8312916
11
26.7300038
21
-0.8691477
0
LINE
8
layer1
10
26.7300038
20
-0.8691477
11
26.7089726
21
-0.8901241
0
LINE
8
layer1
10
26.7089726
20
-0.8901241
11
26.6911349
21
-0.91231
0
LINE
8
layer1
10
26.6911349
20
-0.91231
11
26.676524
21
-0.9355692
0
LINE
8
layer1
10
26.676524
20
-0.9355692
11
26.6651761
21
-0.9597975
0
LINE
8
layer1
10
26.6651761
20
-0.9597975
11
26.6556395
21
-0.9912183
0
LINE
8
layer1
10
26.6556395
20
-0.9912183
11
26.6194763
21
-1.1634692
0
LINE
8
layer1
10
26.6194763
20
-1.1634692
11
26.5974445
21
-1.2564072
0
LINE
8
layer1
10
26.5974445
20
-1.2564072
11
26.5737622
21
-1.3489385
0
LINE
8
layer1
10
26.5737622
20
-1.3489385
11
26.5257341
21
-1.5182649
0
LINE
8
layer1
10
26.5257341
20
-1.5182649
11
26.5195764
21
-1.5505185
0
LINE
8
layer1
10
26.5195764
20
-1.5505185
11
26.5183651
21
-1.5772453
0
LINE
8
layer1
10
26.5183651
20
-1.5772453
11
26.5204932
21
-1.6046303
0
LINE
8
layer1
10
26.5204932
20
-1.6046303
11
26.5259775
21
-1.6325645
0
LINE
8
layer1
10
26.5259775
20
-1.6325645
11
26.5348514
21
-1.6609119
0
LINE
8
layer1
10
26.5348514
20
-1.6609119
11
26.5628197
21
-1.718344
0
LINE
8
layer1
10
26.5628197
20
-1.718344
11
26.6044941
21
-1.7758689
0
LINE
8
layer1
10
26.6044941
20
-1.7758689
11
26.6599147
21
-1.832446
0
LINE
8
layer1
10
26.6599147
20
-1.832446
11
26.7290539
21
-1.8870178
0
LINE
8
layer1
10
26.7290539
20
-1.8870178
11
26.8118208
21
-1.9385321
0
LINE
8
layer1
10
26.8118208
20
-1.9385321
11
26.9080591
21
-1.9859514
0
LINE
8
layer1
10
26.9080591
20
-1.9859514
11
27.0175496
21
-2.0282431
0
LINE
8
layer1
10
27.0175496
20
-2.0282431
11
27.1400245
21
-2.0643628
0
LINE
8
layer1
10
27.1400245
20
-2.0643628
11
27.2694936
21
-2.0922883
0
LINE
8
layer1
10
27.2694936
20
-2.0922883
11
27.3671292
21
-2.147076
0
LINE
8
layer1
10
27.3671292
20
-2.147076
11
27.4731798
21
-2.2205816
0
LINE
8
layer1
10
27.4731798
20
-2.2205816
11
27.5385468
21
-2.2720299
0
LINE
8
layer1
10
27.5385468
20
-2.2720299
11
27.6085556
21
-2.3320996
0
LINE
8
layer1
10
27.6085556
20
-2.3320996
11
27.6833161
21
-2.4018477
0
LINE
8
layer1
10
27.6833161
20
-2.4018477
11
27.7630906
21
-2.4827602
0
LINE
8
layer1
10
27.7630906
20
-2.4827602
11
27.8471268
21
-2.5754652
0
LINE
8
layer1
10
27.8471268
20
-2.5754652
11
27.9332552
21
-2.6788616
0
LINE
8
layer1
10
27.9332552
20
-2.6788616
11
28.0222962
21
-2.7953453
0
LINE
8
layer1
10
28.0222962
20
-2.7953453
11
28.1119407
21
-2.9234203
0
LINE
8
layer1
10
28.1119407
20
-2.9234203
11
28.2023084
21
-3.0647742
0
LINE
8
layer1
10
28.2023084
20
-3.0647742
11
28.2822242
21
-3.2017222
0
ARC
8
layer1
10
21.4999757
20
0.0000125
40
7.5
50
329.8862454
51
334.7291426
0
LINE
8
layer1
10
27.9877082
20
-3.7628756
11
27.8296048
21
-3.7749015
0
LINE
8
layer1
10
27.8296048
20
-3.7749015
11
27.6619381
21
-3.7808285
0
LINE
8
layer1
10
27.6619381
20
-3.7808285
11
27.5056106
21
-3.7798074
0
LINE
8
layer1
10
27.5056106
20
-3.7798074
11
27.3591653
21
-3.7726984
0
LINE
8
layer1
10
27.3591653
20
-3.7726984
11
27.2251453
21
-3.760552
0
LINE
8
layer1
10
27.2251453
20
-3.760552
11
27.1011126
21
-3.744054
0
LINE
8
layer1
10
27.1011126
20
-3.744054
11
26.9892059
21
-3.7243644
0
LINE
8
layer1
10
26.9892059
20
-3.7243644
11
26.8893354
21
-3.7024591
0
LINE
8
layer1
10
26.8893354
20
-3.7024591
11
26.8001295
21
-3.6789665
0
LINE
8
layer1
10
26.8001295
20
-3.6789665
11
26.7206557
21
-3.6543965
0
LINE
8
layer1
10
26.7206557
20
-3.6543965
11
26.5999182
21
-3.6088744
0
LINE
8
layer1
10
26.5999182
20
-3.6088744
11
26.4993655
21
-3.559645
0
LINE
8
layer1
10
26.4993655
20
-3.559645
11
26.4028364
21
-3.4689574
0
LINE
8
layer1
10
26.4028364
20
-3.4689574
11
26.3035368
21
-3.3886809
0
LINE
8
layer1
10
26.3035368
20
-3.3886809
11
26.2065337
21
-3.3225964
0
LINE
8
layer1
10
26.2065337
20
-3.3225964
11
26.1128388
21
-3.270331
0
LINE
8
layer1
10
26.1128388
20
-3.270331
11
26.0234264
21
-3.2314787
0
LINE
8
layer1
10
26.0234264
20
-3.2314787
11
25.9392391
21
-3.2055786
0
LINE
8
layer1
10
25.9392391
20
-3.2055786
11
25.8611946
21
-3.1921077
0
LINE
8
layer1
10
25.8611946
20
-3.1921077
11
25.7901788
21
-3.1904883
0
LINE
8
layer1
10
25.7901788
20
-3.1904883
11
25.7270253
21
-3.200096
0
LINE
8
layer1
10
25.7270253
20
-3.200096
11
25.6986549
21
-3.2088961
0
LINE
8
layer1
10
25.6986549
20
-3.2088961
11
25.6725501
21
-3.220251
0
LINE
8
layer1
10
25.6725501
20
-3.220251
11
25.6488037
21
-3.2340561
0
LINE
8
layer1
10
25.6488037
20
-3.2340561
11
25.6274961
21
-3.2502355
0
LINE
8
layer1
10
25.6274961
20
-3.2502355
11
25.6044499
21
-3.2736253
0
LINE
8
layer1
10
25.6044499
20
-3.2736253
11
25.49238
21
-3.40934
0
LINE
8
layer1
10
25.49238
20
-3.40934
11
25.4296814
21
-3.481394
0
LINE
8
layer1
10
25.4296814
20
-3.481394
11
25.3657103
21
-3.5523206
0
LINE
8
layer1
10
25.3657103
20
-3.5523206
11
25.2444937
21
-3.6799319
0
LINE
8
layer1
10
25.2444937
20
-3.6799319
11
25.2240523
21
-3.7056294
0
LINE
8
layer1
10
25.2240523
20
-3.7056294
11
25.2105592
21
-3.7287318
0
LINE
8
layer1
10
25.2105592
20
-3.7287318
11
25.1997171
21
-3.7539691
0
LINE
8
layer1
10
25.1997171
20
-3.7539691
11
25.1915915
21
-3.7812523
0
LINE
8
layer1
10
25.1915915
20
-3.7812523
11
25.1862753
21
-3.8104766
0
LINE
8
layer1
10
25.1862753
20
-3.8104766
11
25.1843499
21
-3.8743277
0
LINE
8
layer1
10
25.1843499
20
-3.8743277
11
25.1945176
21
-3.9446305
0
LINE
8
layer1
10
25.1945176
20
-3.9446305
11
25.2172975
21
-4.0204823
0
LINE
8
layer1
10
25.2172975
20
-4.0204823
11
25.2531564
21
-4.1009338
0
LINE
8
layer1
10
25.2531564
20
-4.1009338
11
25.3025029
21
-4.1850111
0
LINE
8
layer1
10
25.3025029
20
-4.1850111
11
25.3656809
21
-4.271723
0
LINE
8
layer1
10
25.3656809
20
-4.271723
11
25.442976
21
-4.3600532
0
LINE
8
layer1
10
25.442976
20
-4.3600532
11
25.5346364
21
-4.4489526
0
LINE
8
layer1
10
25.5346364
20
-4.4489526
11
25.6362981
21
-4.5338467
0
LINE
8
layer1
10
25.6362981
20
-4.5338467
11
25.6972889
21
-4.6277323
0
LINE
8
layer1
10
25.6972889
20
-4.6277323
11
25.7570323
21
-4.7421024
0
LINE
8
layer1
10
25.7570323
20
-4.7421024
11
25.7910027
21
-4.8180352
0
LINE
8
layer1
10
25.7910027
20
-4.8180352
11
25.8250766
21
-4.903759
0
LINE
8
layer1
10
25.8250766
20
-4.903759
11
25.8588602
21
-5.0002608
0
LINE
8
layer1
10
25.8588602
20
-5.0002608
11
25.8918951
21
-5.1089783
0
LINE
8
layer1
10
25.8918951
20
-5.1089783
11
25.9232233
21
-5.2301181
0
LINE
8
layer1
10
25.9232233
20
-5.2301181
11
25.9514355
21
-5.3616969
0
LINE
8
layer1
10
25.9514355
20
-5.3616969
11
25.9761447
21
-5.5062175
0
LINE
8
layer1
10
25.9761447
20
-5.5062175
11
25.9960016
21
-5.6612822
0
LINE
8
layer1
10
25.9960016
20
-5.6612822
11
26.0103278
21
-5.8284408
0
LINE
8
layer1
10
26.0103278
20
-5.8284408
11
26.0174468
21
-5.9868409
0
ARC
8
layer1
10
21.4999841
20
0.0000223
40
7.5
50
302.193939
51
307.0368367
0
LINE
8
layer1
10
25.4958848
20
-6.3468492
11
25.3503025
21
-6.2840234
0
LINE
8
layer1
10
25.3503025
20
-6.2840234
11
25.1990866
21
-6.2113529
0
LINE
8
layer1
10
25.1990866
20
-6.2113529
11
25.06114
21
-6.1377996
0
LINE
8
layer1
10
25.06114
20
-6.1377996
11
24.9347729
21
-6.0634484
0
LINE
8
layer1
10
24.9347729
20
-6.0634484
11
24.8217488
21
-5.9904111
0
LINE
8
layer1
10
24.8217488
20
-5.9904111
11
24.7195902
21
-5.918162
0
LINE
8
layer1
10
24.7195902
20
-5.918162
11
24.629652
21
-5.8487221
0
LINE
8
layer1
10
24.629652
20
-5.8487221
11
24.551401
21
-5.7829138
0
LINE
8
layer1
10
24.551401
20
-5.7829138
11
24.4833306
21
-5.7206561
0
LINE
8
layer1
10
24.4833306
20
-5.7206561
11
24.4243783
21
-5.6619671
0
LINE
8
layer1
10
24.4243783
20
-5.6619671
11
24.3386257
21
-5.5655498
0
LINE
8
layer1
10
24.3386257
20
-5.5655498
11
24.2724688
21
-5.47523
0
LINE
8
layer1
10
24.2724688
20
-5.47523
11
24.2291411
21
-5.3500709
0
LINE
8
layer1
10
24.2291411
20
-5.3500709
11
24.178522
21
-5.2328428
0
LINE
8
layer1
10
24.178522
20
-5.2328428
11
24.1233411
21
-5.1292483
0
LINE
8
layer1
10
24.1233411
20
-5.1292483
11
24.0646673
21
-5.0394274
0
LINE
8
layer1
10
24.0646673
20
-5.0394274
11
24.0035521
21
-4.9634733
0
LINE
8
layer1
10
24.0035521
20
-4.9634733
11
23.9410444
21
-4.9014162
0
LINE
8
layer1
10
23.9410444
20
-4.9014162
11
23.8781996
21
-4.8532192
0
LINE
8
layer1
10
23.8781996
20
-4.8532192
11
23.8160708
21
-4.8187826
0
LINE
8
layer1
10
23.8160708
20
-4.8187826
11
23.7556862
21
-4.7979409
0
LINE
8
layer1
10
23.7556862
20
-4.7979409
11
23.7264759
21
-4.7925486
0
LINE
8
layer1
10
23.7264759
20
-4.7925486
11
23.6980843
21
-4.7904714
0
LINE
8
layer1
10
23.6980843
20
-4.7904714
11
23.6706424
21
-4.7916596
0
LINE
8
layer1
10
23.6706424
20
-4.7916596
11
23.6442566
21
-4.7960837
0
LINE
8
layer1
10
23.6442566
20
-4.7960837
11
23.6129804
21
-4.8060842
0
LINE
8
layer1
10
23.6129804
20
-4.8060842
11
23.4506776
21
-4.8741722
0
LINE
8
layer1
10
23.4506776
20
-4.8741722
11
23.3616757
21
-4.9088353
0
LINE
8
layer1
10
23.3616757
20
-4.9088353
11
23.2720708
21
-4.9419088
0
LINE
8
layer1
10
23.2720708
20
-4.9419088
11
23.1054348
21
-4.9985709
0
LINE
8
layer1
10
23.1054348
20
-4.9985709
11
23.0753927
21
-5.0118253
0
LINE
8
layer1
10
23.0753927
20
-5.0118253
11
23.0527089
21
-5.0260109
0
LINE
8
layer1
10
23.0527089
20
-5.0260109
11
23.0313804
21
-5.0433188
0
LINE
8
layer1
10
23.0313804
20
-5.0433188
11
23.0115064
21
-5.0637007
0
LINE
8
layer1
10
23.0115064
20
-5.0637007
11
22.9932179
21
-5.087107
0
LINE
8
layer1
10
22.9932179
20
-5.087107
11
22.96184
21
-5.1427496
0
LINE
8
layer1
10
22.96184
20
-5.1427496
11
22.9381717
21
-5.2097248
0
LINE
8
layer1
10
22.9381717
20
-5.2097248
11
22.9230922
21
-5.2874745
0
LINE
8
layer1
10
22.9230922
20
-5.2874745
11
22.917456
21
-5.3753753
0
LINE
8
layer1
10
22.917456
20
-5.3753753
11
22.9220774
21
-5.4727545
0
LINE
8
layer1
10
22.9220774
20
-5.4727545
11
22.9377218
21
-5.5788944
0
LINE
8
layer1
10
22.9377218
20
-5.5788944
11
22.9651141
21
-5.6930277
0
LINE
8
layer1
10
22.9651141
20
-5.6930277
11
23.0049618
21
-5.8143409
0
LINE
8
layer1
10
23.0049618
20
-5.8143409
11
23.0555264
21
-5.9367554
0
LINE
8
layer1
10
23.0555264
20
-5.9367554
11
23.0659003
21
-6.0482309
0
LINE
8
layer1
10
23.0659003
20
-6.0482309
11
23.0656501
21
-6.1772647
0
LINE
8
layer1
10
23.0656501
20
-6.1772647
11
23.0604416
21
-6.2602867
0
LINE
8
layer1
10
23.0604416
20
-6.2602867
11
23.0507747
21
-6.3520262
0
LINE
8
layer1
10
23.0507747
20
-6.3520262
11
23.035842
21
-6.4531745
0
LINE
8
layer1
10
23.035842
20
-6.4531745
11
23.0145694
21
-6.5647911
0
LINE
8
layer1
10
23.0145694
20
-6.5647911
11
22.9860127
21
-6.6866139
0
LINE
8
layer1
10
22.9860127
20
-6.6866139
11
22.9498456
21
-6.816232
0
LINE
8
layer1
10
22.9498456
20
-6.816232
11
22.9045624
21
-6.9556816
0
LINE
8
layer1
10
22.9045624
20
-6.9556816
11
22.8500827
21
-7.1022125
0
LINE
8
layer1
10
22.8500827
20
-7.1022125
11
22.7850855
21
-7.2568819
0
LINE
8
layer1
10
22.7850855
20
-7.2568819
11
22.7177768
21
-7.4004466
0
ARC
8
layer1
10
21.4999971
20
0.0000272
40
7.5
50
274.5016252
51
279.3445228
0
LINE
8
layer1
10
22.0886524
20
-7.4768361
11
21.9889423
21
-7.3535511
0
LINE
8
layer1
10
21.9889423
20
-7.3535511
11
21.8888189
21
-7.2189311
0
LINE
8
layer1
10
21.8888189
20
-7.2189311
11
21.8008552
21
-7.0896959
0
LINE
8
layer1
10
21.8008552
20
-7.0896959
11
21.7235154
21
-6.9651355
0
LINE
8
layer1
10
21.7235154
20
-6.9651355
11
21.6573796
21
-6.8479392
0
LINE
8
layer1
10
21.6573796
20
-6.8479392
11
21.6004986
21
-6.7364904
0
LINE
8
layer1
10
21.6004986
20
-6.7364904
11
21.5531325
21
-6.633208
0
LINE
8
layer1
10
21.5531325
20
-6.633208
11
21.5144274
21
-6.5385726
0
LINE
8
layer1
10
21.5144274
20
-6.5385726
11
21.4830866
21
-6.4518123
0
LINE
8
layer1
10
21.4830866
20
-6.4518123
11
21.4581611
21
-6.3724492
0
LINE
8
layer1
10
21.4581611
20
-6.3724492
11
21.4270383
21
-6.2472247
0
LINE
8
layer1
10
21.4270383
20
-6.2472247
11
21.4104329
21
-6.1365059
0
LINE
8
layer1
10
21.4104329
20
-6.1365059
11
21.4302325
21
-6.0055477
0
LINE
8
layer1
10
21.4302325
20
-6.0055477
11
21.4398902
21
-5.8782234
0
LINE
8
layer1
10
21.4398902
20
-5.8782234
11
21.4391726
21
-5.7608512
0
LINE
8
layer1
10
21.4391726
20
-5.7608512
11
21.4289614
21
-5.6540516
0
LINE
8
layer1
10
21.4289614
20
-5.6540516
11
21.4101442
21
-5.5583961
0
LINE
8
layer1
10
21.4101442
20
-5.5583961
11
21.3836358
21
-5.4743984
0
LINE
8
layer1
10
21.3836358
20
-5.4743984
11
21.3503877
21
-5.4025167
0
LINE
8
layer1
10
21.3503877
20
-5.4025167
11
21.311379
21
-5.3431518
0
LINE
8
layer1
10
21.311379
20
-5.3431518
11
21.2675967
21
-5.2966353
0
LINE
8
layer1
10
21.2675967
20
-5.2966353
11
21.2442381
21
-5.278286
0
LINE
8
layer1
10
21.2442381
20
-5.278286
11
21.220064
21
-5.2632525
0
LINE
8
layer1
10
21.220064
20
-5.2632525
11
21.1952131
21
-5.2515517
0
LINE
8
layer1
10
21.1952131
20
-5.2515517
11
21.1697937
21
-5.2432069
0
LINE
8
layer1
10
21.1697937
20
-5.2432069
11
21.1374525
21
-5.2375272
0
LINE
8
layer1
10
21.1374525
20
-5.2375272
11
20.9620985
21
-5.2223902
0
LINE
8
layer1
10
20.9620985
20
-5.2223902
11
20.8671824
21
-5.2117216
0
LINE
8
layer1
10
20.8671824
20
-5.2117216
11
20.7724713
21
-5.1993653
0
LINE
8
layer1
10
20.7724713
20
-5.1993653
11
20.5985902
21
-5.1720975
0
LINE
8
layer1
10
20.5985902
20
-5.1720975
11
20.5658296
21
-5.1698724
0
LINE
8
layer1
10
20.5658296
20
-5.1698724
11
20.5391517
21
-5.1718914
0
LINE
8
layer1
10
20.5391517
20
-5.1718914
11
20.5122228
21
-5.177305
0
LINE
8
layer1
10
20.5122228
20
-5.177305
11
20.4851534
21
-5.1861164
0
LINE
8
layer1
10
20.4851534
20
-5.1861164
11
20.4580823
21
-5.1983425
0
LINE
8
layer1
10
20.4580823
20
-5.1983425
11
20.4044401
21
-5.2330295
0
LINE
8
layer1
10
20.4044401
20
-5.2330295
11
20.3523579
21
-5.2813339
0
LINE
8
layer1
10
20.3523579
20
-5.2813339
11
20.3028736
21
-5.3431701
0
LINE
8
layer1
10
20.3028736
20
-5.3431701
11
20.2570335
21
-5.4183831
0
LINE
8
layer1
10
20.2570335
20
-5.4183831
11
20.2158712
21
-5.5067558
0
LINE
8
layer1
10
20.2158712
20
-5.5067558
11
20.1803979
21
-5.6080082
0
LINE
8
layer1
10
20.1803979
20
-5.6080082
11
20.1516122
21
-5.7217982
0
LINE
8
layer1
10
20.1516122
20
-5.7217982
11
20.1305185
21
-5.8477338
0
LINE
8
layer1
10
20.1305185
20
-5.8477338
11
20.1184024
21
-5.979625
0
LINE
8
layer1
10
20.1184024
20
-5.979625
11
20.0757828
21
-6.0831526
0
LINE
8
layer1
10
20.0757828
20
-6.0831526
11
20.0155962
21
-6.1972901
0
LINE
8
layer1
10
20.0155962
20
-6.1972901
11
19.9724021
21
-6.268382
0
LINE
8
layer1
10
19.9724021
20
-6.268382
11
19.921209
21
-6.3451209
0
LINE
8
layer1
10
19.921209
20
-6.3451209
11
19.8609808
21
-6.4277436
0
LINE
8
layer1
10
19.8609808
20
-6.4277436
11
19.7902741
21
-6.5166893
0
LINE
8
layer1
10
19.7902741
20
-6.5166893
11
19.7083744
21
-6.6112871
0
LINE
8
layer1
10
19.7083744
20
-6.6112871
11
19.6161136
21
-6.7092506
0
LINE
8
layer1
10
19.6161136
20
-6.7092506
11
19.5112118
21
-6.8116829
0
LINE
8
layer1
10
19.5112118
20
-6.8116829
11
19.3948761
21
-6.9161116
0
LINE
8
layer1
10
19.3948761
20
-6.9161116
11
19.2654455
21
-7.0228588
0
LINE
8
layer1
10
19.2654455
20
-7.0228588
11
19.1391288
21
-7.1186991
0
ARC
8
layer1
10
21.5000095
20
0.0000257
40
7.5
50
246.8093222
51
251.6522199
0
LINE
8
layer1
10
18.5465668
20
-6.89397
11
18.5155713
21
-6.738469
0
LINE
8
layer1
10
18.5155713
20
-6.738469
11
18.4894775
21
-6.5727392
0
LINE
8
layer1
10
18.4894775
20
-6.5727392
11
18.471648
21
-6.4174284
0
LINE
8
layer1
10
18.471648
20
-6.4174284
11
18.4610532
21
-6.271194
0
LINE
8
layer1
10
18.4610532
20
-6.271194
11
18.4569567
21
-6.136687
0
LINE
8
layer1
10
18.4569567
20
-6.136687
11
18.4583839
21
-6.01157
0
LINE
8
layer1
10
18.4583839
20
-6.01157
11
18.4644411
21
-5.8981059
0
LINE
8
layer1
10
18.4644411
20
-5.8981059
11
18.4741486
21
-5.7963232
0
LINE
8
layer1
10
18.4741486
20
-5.7963232
11
18.4867173
21
-5.704936
0
LINE
8
layer1
10
18.4867173
20
-5.704936
11
18.5015287
21
-5.62308
0
LINE
8
layer1
10
18.5015287
20
-5.62308
11
18.5321655
21
-5.4977358
0
LINE
8
layer1
10
18.5321655
20
-5.4977358
11
18.5689158
21
-5.3919822
0
LINE
8
layer1
10
18.5689158
20
-5.3919822
11
18.6473068
21
-5.2852258
0
LINE
8
layer1
10
18.6473068
20
-5.2852258
11
18.7150288
21
-5.1769739
0
LINE
8
layer1
10
18.7150288
20
-5.1769739
11
18.768939
21
-5.0727125
0
LINE
8
layer1
10
18.768939
20
-5.0727125
11
18.8095297
21
-4.9734008
0
LINE
8
layer1
10
18.8095297
20
-4.9734008
11
18.8373212
21
-4.8799572
0
LINE
8
layer1
10
18.8373212
20
-4.8799572
11
18.8528848
21
-4.7932619
0
LINE
8
layer1
10
18.8528848
20
-4.7932619
11
18.8568502
21
-4.7141626
0
LINE
8
layer1
10
18.8568502
20
-4.7141626
11
18.8498979
21
-4.6434694
0
LINE
8
layer1
10
18.8498979
20
-4.6434694
11
18.8327479
21
-4.5819344
0
LINE
8
layer1
10
18.8327479
20
-4.5819344
11
18.8205923
21
-4.5548316
0
LINE
8
layer1
10
18.8205923
20
-4.5548316
11
18.8061736
21
-4.5302859
0
LINE
8
layer1
10
18.8061736
20
-4.5302859
11
18.7896069
21
-4.5083766
0
LINE
8
layer1
10
18.7896069
20
-4.5083766
11
18.7709771
21
-4.4891746
0
LINE
8
layer1
10
18.7709771
20
-4.4891746
11
18.7449799
21
-4.4691158
0
LINE
8
layer1
10
18.7449799
20
-4.4691158
11
18.5967461
21
-4.3742216
0
LINE
8
layer1
10
18.5967461
20
-4.3742216
11
18.5176601
21
-4.3206653
0
LINE
8
layer1
10
18.5176601
20
-4.3206653
11
18.4395397
21
-4.2657099
0
LINE
8
layer1
10
18.4395397
20
-4.2657099
11
18.2982478
21
-4.1607589
0
LINE
8
layer1
10
18.2982478
20
-4.1607589
11
18.2702737
21
-4.143564
0
LINE
8
layer1
10
18.2702737
20
-4.143564
11
18.2457133
21
-4.132954
0
LINE
8
layer1
10
18.2457133
20
-4.132954
11
18.2193532
21
-4.125233
0
LINE
8
layer1
10
18.2193532
20
-4.125233
11
18.1912895
21
-4.1204553
0
LINE
8
layer1
10
18.1912895
20
-4.1204553
11
18.1616375
21
-4.1187004
0
LINE
8
layer1
10
18.1616375
20
-4.1187004
11
18.0980198
21
-4.1244855
0
LINE
8
layer1
10
18.0980198
20
-4.1244855
11
18.0294552
21
-4.1430531
0
LINE
8
layer1
10
18.0294552
20
-4.1430531
11
17.9569023
21
-4.1748098
0
LINE
8
layer1
10
17.9569023
20
-4.1748098
11
17.8813596
21
-4.2201046
0
LINE
8
layer1
10
17.8813596
20
-4.2201046
11
17.8038434
21
-4.2792257
0
LINE
8
layer1
10
17.8038434
20
-4.2792257
11
17.725379
21
-4.352395
0
LINE
8
layer1
10
17.725379
20
-4.352395
11
17.6470097
21
-4.4397736
0
LINE
8
layer1
10
17.6470097
20
-4.4397736
11
17.569807
21
-4.5414814
0
LINE
8
layer1
10
17.569807
20
-4.5414814
11
17.4977858
21
-4.6526346
0
LINE
8
layer1
10
17.4977858
20
-4.6526346
11
17.4119363
21
-4.7244974
0
LINE
8
layer1
10
17.4119363
20
-4.7244974
11
17.3056014
21
-4.7975911
0
LINE
8
layer1
10
17.3056014
20
-4.7975911
11
17.2343169
21
-4.8404665
0
LINE
8
layer1
10
17.2343169
20
-4.8404665
11
17.1533253
21
-4.8846247
0
LINE
8
layer1
10
17.1533253
20
-4.8846247
11
17.0615992
21
-4.9297941
0
LINE
8
layer1
10
17.0615992
20
-4.9297941
11
16.9576563
21
-4.9756926
0
LINE
8
layer1
10
16.9576563
20
-4.9756926
11
16.841176
21
-5.0213941
0
LINE
8
layer1
10
16.841176
20
-5.0213941
11
16.7139572
21
-5.0652607
0
LINE
8
layer1
10
16.7139572
20
-5.0652607
11
16.5734687
21
-5.1072097
0
LINE
8
layer1
10
16.5734687
20
-5.1072097
11
16.4219281
21
-5.1456129
0
LINE
8
layer1
10
16.4219281
20
-5.1456129
11
16.2577151
21
-5.1799834
0
LINE
8
layer1
10
16.2577151
20
-5.1799834
11
16.1013279
21
-5.2061435
0
ARC
8
layer1
10
21.50002
20
0.0000186
40
7.5
50
219.1170178
51
223.9599155
0
LINE
8
layer1
10
15.6810772
20
-4.7317784
11
15.7258969
21
-4.5796848
0
LINE
8
layer1
10
15.7258969
20
-4.5796848
11
15.7798105
21
-4.420812
0
LINE
8
layer1
10
15.7798105
20
-4.420812
11
15.8361998
21
-4.2750053
0
LINE
8
layer1
10
15.8361998
20
-4.2750053
11
15.8947771
21
-4.1405975
0
LINE
8
layer1
10
15.8947771
20
-4.1405975
11
15.9536583
21
-4.0195937
0
LINE
8
layer1
10
15.9536583
20
-4.0195937
11
16.0130668
21
-3.9094714
0
LINE
8
layer1
10
16.0130668
20
-3.9094714
11
16.0711596
21
-3.8118188
0
LINE
8
layer1
10
16.0711596
20
-3.8118188
11
16.1270559
21
-3.7262061
0
LINE
8
layer1
10
16.1270559
20
-3.7262061
11
16.1806547
21
-3.6511277
0
LINE
8
layer1
10
16.1806547
20
-3.6511277
11
16.2318099
21
-3.585531
0
LINE
8
layer1
10
16.2318099
20
-3.585531
11
16.3171879
21
-3.4887818
0
LINE
8
layer1
10
16.3171879
20
-3.4887818
11
16.3988747
21
-3.4122204
0
LINE
8
layer1
10
16.3988747
20
-3.4122204
11
16.5178987
21
-3.3541224
0
LINE
8
layer1
10
16.5178987
20
-3.3541224
11
16.6281707
21
-3.2897421
0
LINE
8
layer1
10
16.6281707
20
-3.2897421
11
16.7243586
21
-3.2224765
0
LINE
8
layer1
10
16.7243586
20
-3.2224765
11
16.8064522
21
-3.1534038
0
LINE
8
layer1
10
16.8064522
20
-3.1534038
11
16.8744858
21
-3.083579
0
LINE
8
layer1
10
16.8744858
20
-3.083579
11
16.928556
21
-3.0140468
0
LINE
8
layer1
10
16.928556
20
-3.0140468
11
16.9688265
21
-2.9458508
0
LINE
8
layer1
10
16.9688265
20
-2.9458508
11
16.9955233
21
-2.8800241
0
LINE
8
layer1
10
16.9955233
20
-2.8800241
11
17.0089345
21
-2.8175676
0
LINE
8
layer1
10
17.0089345
20
-2.8175676
11
17.0107665
21
-2.7879203
0
LINE
8
layer1
10
17.0107665
20
-2.7879203
11
17.0094063
21
-2.7594853
0
LINE
8
layer1
10
17.0094063
20
-2.7594853
11
17.004919
21
-2.7323867
0
LINE
8
layer1
10
17.004919
20
-2.7323867
11
16.9973467
21
-2.7067265
0
LINE
8
layer1
10
16.9973467
20
-2.7067265
11
16.9836492
21
-2.6768838
0
LINE
8
layer1
10
16.9836492
20
-2.6768838
11
16.8964942
21
-2.5239715
0
LINE
8
layer1
10
16.8964942
20
-2.5239715
11
16.8513559
21
-2.4397967
0
LINE
8
layer1
10
16.8513559
20
-2.4397967
11
16.8077228
21
-2.3548317
0
LINE
8
layer1
10
16.8077228
20
-2.3548317
11
16.7313881
21
-2.1962406
0
LINE
8
layer1
10
16.7313881
20
-2.1962406
11
16.7146092
21
-2.1680151
0
LINE
8
layer1
10
16.7146092
20
-2.1680151
11
16.6977927
21
-2.1472066
0
LINE
8
layer1
10
16.6977927
20
-2.1472066
11
16.6780401
21
-2.1281198
0
LINE
8
layer1
10
16.6780401
20
-2.1281198
11
16.6554113
21
-2.1108475
0
LINE
8
layer1
10
16.6554113
20
-2.1108475
11
16.6299713
21
-2.0955136
0
LINE
8
layer1
10
16.6299713
20
-2.0955136
11
16.5709522
21
-2.0710715
0
LINE
8
layer1
10
16.5709522
20
-2.0710715
11
16.5016124
21
-2.0556487
0
LINE
8
layer1
10
16.5016124
20
-2.0556487
11
16.4226119
21
-2.0500509
0
LINE
8
layer1
10
16.4226119
20
-2.0500509
11
16.3346727
21
-2.055051
0
LINE
8
layer1
10
16.3346727
20
-2.055051
11
16.2385605
21
-2.0713766
0
LINE
8
layer1
10
16.2385605
20
-2.0713766
11
16.1350803
21
-2.0997006
0
LINE
8
layer1
10
16.1350803
20
-2.0997006
11
16.0250808
21
-2.1406504
0
LINE
8
layer1
10
16.0250808
20
-2.1406504
11
15.9094553
21
-2.1948303
0
LINE
8
layer1
10
15.9094553
20
-2.1948303
11
15.7940282
21
-2.2597817
0
LINE
8
layer1
10
15.7940282
20
-2.2597817
11
15.684616
21
-2.2835168
0
LINE
8
layer1
10
15.684616
20
-2.2835168
11
15.5564928
21
-2.2988217
0
LINE
8
layer1
10
15.5564928
20
-2.2988217
11
15.4734483
21
-2.3036584
0
LINE
8
layer1
10
15.4734483
20
-2.3036584
11
15.3812124
21
-2.30512
0
LINE
8
layer1
10
15.3812124
20
-2.30512
11
15.2790018
21
-2.3024882
0
LINE
8
layer1
10
15.2790018
20
-2.3024882
11
15.1656348
21
-2.2948246
0
LINE
8
layer1
10
15.1656348
20
-2.2948246
11
15.041258
21
-2.2811602
0
LINE
8
layer1
10
15.041258
20
-2.2811602
11
14.9082256
21
-2.2608806
0
LINE
8
layer1
10
14.9082256
20
-2.2608806
11
14.7643344
21
-2.2327364
0
LINE
8
layer1
10
14.7643344
20
-2.2327364
11
14.6123051
21
-2.1963162
0
LINE
8
layer1
10
14.6123051
20
-2.1963162
11
14.4509289
21
-2.1504362
0
LINE
8
layer1
10
14.4509289
20
-2.1504362
11
14.3002977
21
-2.1009231
0
ARC
8
layer1
10
21.5000266
20
0.0000063
40
7.5
50
191.4247035
51
196.2676007
0
LINE
8
layer1
10
14.1486326
20
-1.4855935
11
14.259
21
-1.37175
0
LINE
8
layer1
10
14.259
20
-1.37175
11
14.38057
21
-1.25613
0
LINE
8
layer1
10
14.38057
20
-1.25613
11
14.49826
21
-1.15323
0
LINE
8
layer1
10
14.49826
20
-1.15323
11
14.61259
21
-1.06144
0
LINE
8
layer1
10
14.61259
20
-1.06144
11
14.72096
21
-0.98166
0
LINE
8
layer1
10
14.72096
20
-0.98166
11
14.82474
21
-0.91176
0
LINE
8
layer1
10
14.82474
20
-0.91176
11
14.92156
21
-0.85229
0
LINE
8
layer1
10
14.92156
20
-0.85229
11
15.01084
21
-0.80246
0
LINE
8
layer1
10
15.01084
20
-0.80246
11
15.09319
21
-0.76089
0
LINE
8
layer1
10
15.09319
20
-0.76089
11
15.16897
21
-0.72658
0
LINE
8
layer1
10
15.16897
20
-0.72658
11
15.28953
21
-0.68059
0
LINE
8
layer1
10
15.28953
20
-0.68059
11
15.39744
21
-0.65076
0
LINE
8
layer1
10
15.39744
20
-0.65076
11
15.52983
21
-0.65463
0
LINE
8
layer1
10
15.52983
20
-0.65463
11
15.65739
21
-0.64887
0
LINE
8
layer1
10
15.65739
20
-0.64887
11
15.77382
21
-0.63401
0
LINE
8
layer1
10
15.77382
20
-0.63401
11
15.87861
21
-0.611
0
LINE
8
layer1
10
15.87861
20
-0.611
11
15.9713
21
-0.58079
0
LINE
8
layer1
10
15.9713
20
-0.58079
11
16.05149
21
-0.54435
0
LINE
8
layer1
10
16.05149
20
-0.54435
11
16.11884
21
-0.50268
0
LINE
8
layer1
10
16.11884
20
-0.50268
11
16.17307
21
-0.4568
0
LINE
8
layer1
10
16.17307
20
-0.4568
11
16.21397
21
-0.40773
0
LINE
8
layer1
10
16.21397
20
-0.40773
11
16.22937
21
-0.38233
0
LINE
8
layer1
10
16.22937
20
-0.38233
11
16.24138
21
-0.35652
0
LINE
8
layer1
10
16.24138
20
-0.35652
11
16.25
21
-0.33044
0
LINE
8
layer1
10
16.25
20
-0.33044
11
16.25522
21
-0.3042
0
LINE
8
layer1
10
16.25522
20
-0.3042
11
16.25696
21
-0.27141
0
LINE
8
layer1
10
16.25696
20
-0.27141
11
16.25085
21
-0.09551
0
LINE
8
layer1
10
16.25085
20
-0.09551
11
16.25
21
0
0
LINE
8
layer1
10
16.25
20
0
11
16.25085
21
0.09551
0
LINE
8
layer1
10
16.25085
20
0.09551
11
16.25696
21
0.27141
0
LINE
8
layer1
10
16.25696
20
0.27141
11
16.25522
21
0.3042
0
LINE
8
layer1
10
16.25522
20
0.3042
11
16.25
21
0.33044
0
LINE
8
layer1
10
16.25
20
0.33044
11
16.24138
21
0.35652
0
LINE
8
layer1
10
16.24138
20
0.35652
11
16.22937
21
0.38233
0
LINE
8
layer1
10
16.22937
20
0.38233
11
16.21397
21
0.40773
0
LINE
8
layer1
10
16.21397
20
0.40773
11
16.17307
21
0.4568
0
LINE
8
layer1
10
16.17307
20
0.4568
11
16.11884
21
0.50268
0
LINE
8
layer1
10
16.11884
20
0.50268
11
16.05149
21
0.54435
0
LINE
8
layer1
10
16.05149
20
0.54435
11
15.9713
21
0.58079
0
LINE
8
layer1
10
15.9713
20
0.58079
11
15.87861
21
0.611
0
LINE
8
layer1
10
15.87861
20
0.611
11
15.77382
21
0.63401
0
LINE
8
layer1
10
15.77382
20
0.63401
11
15.65739
21
0.64887
0
LINE
8
layer1
10
15.65739
20
0.64887
11
15.52983
21
0.65463
0
LINE
8
layer1
10
15.52983
20
0.65463
11
15.39744
21
0.65076
0
LINE
8
layer1
10
15.39744
20
0.65076
11
15.28953
21
0.68059
0
LINE
8
layer1
10
15.28953
20
0.68059
11
15.16897
21
0.72658
0
LINE
8
layer1
10
15.16897
20
0.72658
11
15.09319
21
0.76089
0
LINE
8
layer1
10
15.09319
20
0.76089
11
15.01084
21
0.80246
0
LINE
8
layer1
10
15.01084
20
0.80246
11
14.92156
21
0.85229
0
LINE
8
layer1
10
14.92156
20
0.85229
11
14.82474
21
0.91176
0
LINE
8
layer1
10
14.82474
20
0.91176
11
14.72096
21
0.98166
0
LINE
8
layer1
10
14.72096
20
0.98166
11
14.61259
21
1.06144
0
LINE
8
layer1
10
14.61259
20
1.06144
11
14.49826
21
1.15323
0
LINE
8
layer1
10
14.49826
20
1.15323
11
14.38057
21
1.25613
0
LINE
8
layer1
10
14.38057
20
1.25613
11
14.259
21
1.37175
0
LINE
8
layer1
10
14.259
20
1.37175
11
14.1486326
21
1.4855935
0
ARC
8
layer1
10
21.5000266
20
-0.0000062
40
7.5
50
163.7324
51
168.5752973
0
LINE
8
layer1
10
14.3002977
20
2.1009231
11
14.4509289
21
2.1504362
0
LINE
8
layer1
10
14.4509289
20
2.1504362
11
14.6123051
21
2.1963162
0
LINE
8
layer1
10
14.6123051
20
2.1963162
11
14.7643344
21
2.2327364
0
LINE
8
layer1
10
14.7643344
20
2.2327364
11
14.9082256
21
2.2608806
0
LINE
8
layer1
10
14.9082256
20
2.2608806
11
15.041258
21
2.2811602
0
LINE
8
layer1
10
15.041258
20
2.2811602
11
15.1656348
21
2.2948246
0
LINE
8
layer1
10
15.1656348
20
2.2948246
11
15.2790018
21
2.3024882
0
LINE
8
layer1
10
15.2790018
20
2.3024882
11
15.3812124
21
2.30512
0
LINE
8
layer1
10
15.3812124
20
2.30512
11
15.4734483
21
2.3036584
0
LINE
8
layer1
10
15.4734483
20
2.3036584
11
15.5564928
21
2.2988217
0
LINE
8
layer1
10
15.5564928
20
2.2988217
11
15.684616
21
2.2835168
0
LINE
8
layer1
10
15.684616
20
2.2835168
11
15.7940282
21
2.2597817
0
LINE
8
layer1
10
15.7940282
20
2.2597817
11
15.9094553
21
2.1948303
0
LINE
8
layer1
10
15.9094553
20
2.1948303
11
16.0250808
21
2.1406504
0
LINE
8
layer1
10
16.0250808
20
2.1406504
11
16.1350803
21
2.0997006
0
LINE
8
layer1
10
16.1350803
20
2.0997006
11
16.2385605
21
2.0713766
0
LINE
8
layer1
10
16.2385605
20
2.0713766
11
16.3346727
21
2.055051
0
LINE
8
layer1
10
16.3346727
20
2.055051
11
16.4226119
21
2.0500509
0
LINE
8
layer1
10
16.4226119
20
2.0500509
11
16.5016124
21
2.0556487
0
LINE
8
layer1
10
16.5016124
20
2.0556487
11
16.5709522
21
2.0710715
0
LINE
8
layer1
10
16.5709522
20
2.0710715
11
16.6299713
21
2.0955136
0
LINE
8
layer1
10
16.6299713
20
2.0955136
11
16.6554113
21
2.1108475
0
LINE
8
layer1
10
16.6554113
20
2.1108475
11
16.6780401
21
2.1281198
0
LINE
8
layer1
10
16.6780401
20
2.1281198
11
16.6977927
21
2.1472066
0
LINE
8
layer1
10
16.6977927
20
2.1472066
11
16.7146092
21
2.1680151
0
LINE
8
layer1
10
16.7146092
20
2.1680151
11
16.7313881
21
2.1962406
0
LINE
8
layer1
10
16.7313881
20
2.1962406
11
16.8077228
21
2.3548317
0
LINE
8
layer1
10
16.8077228
20
2.3548317
11
16.8513559
21
2.4397967
0
LINE
8
layer1
10
16.8513559
20
2.4397967
11
16.8964942
21
2.5239715
0
LINE
8
layer1
10
16.8964942
20
2.5239715
11
16.9836492
21
2.6768838
0
LINE
8
layer1
10
16.9836492
20
2.6768838
11
16.9973467
21
2.7067265
0
LINE
8
layer1
10
16.9973467
20
2.7067265
11
17.004919
21
2.7323867
0
LINE
8
layer1
10
17.004919
20
2.7323867
11
17.0094063
21
2.7594853
0
LINE
8
layer1
10
17.0094063
20
2.7594853
11
17.0107665
21
2.7879203
0
LINE
8
layer1
10
17.0107665
20
2.7879203
11
17.0089345
21
2.8175676
0
LINE
8
layer1
10
17.0089345
20
2.8175676
11
16.9955233
21
2.8800241
0
LINE
8
layer1
10
16.9955233
20
2.8800241
11
16.9688265
21
2.9458508
0
LINE
8
layer1
10
16.9688265
20
2.9458508
11
16.928556
21
3.0140468
0
LINE
8
layer1
10
16.928556
20
3.0140468
11
16.8744858
21
3.083579
0
LINE
8
layer1
10
16.8744858
20
3.083579
11
16.8064522
21
3.1534038
0
LINE
8
layer1
10
16.8064522
20
3.1534038
11
16.7243586
21
3.2224765
0
LINE
8
layer1
10
16.7243586
20
3.2224765
11
16.6281707
21
3.2897421
0
LINE
8
layer1
10
16.6281707
20
3.2897421
11
16.5178987
21
3.3541224
0
LINE
8
layer1
10
16.5178987
20
3.3541224
11
16.3988747
21
3.4122204
0
LINE
8
layer1
10
16.3988747
20
3.4122204
11
16.3171879
21
3.4887818
0
LINE
8
layer1
10
16.3171879
20
3.4887818
11
16.2318099
21
3.585531
0
LINE
8
layer1
10
16.2318099
20
3.585531
11
16.1806547
21
3.6511277
0
LINE
8
layer1
10
16.1806547
20
3.6511277
11
16.1270559
21
3.7262061
0
LINE
8
layer1
10
16.1270559
20
3.7262061
11
16.0711596
21
3.8118188
0
LINE
8
layer1
10
16.0711596
20
3.8118188
11
16.0130668
21
3.9094714
0
LINE
8
layer1
10
16.0130668
20
3.9094714
11
15.9536583
21
4.0195937
0
LINE
8
layer1
10
15.9536583
20
4.0195937
11
15.8947771
21
4.1405975
0
LINE
8
layer1
10
15.8947771
20
4.1405975
11
15.8361998
21
4.2750053
0
LINE
8
layer1
10
15.8361998
20
4.2750053
11
15.7798105
21
4.420812
0
LINE
8
layer1
10
15.7798105
20
4.420812
11
15.7258969
21
4.5796848
0
LINE
8
layer1
10
15.7258969
20
4.5796848
11
15.6810772
21
4.7317784
0
ARC
8
layer1
10
21.50002
20
-0.0000187
40
7.5
50
136.040084
51
140.8829817
0
LINE
8
layer1
10
16.1013279
20
5.2061435
11
16.2577151
21
5.1799834
0
LINE
8
layer1
10
16.2577151
20
5.1799834
11
16.4219281
21
5.1456129
0
LINE
8
layer1
10
16.4219281
20
5.1456129
11
16.5734687
21
5.1072097
0
LINE
8
layer1
10
16.5734687
20
5.1072097
11
16.7139572
21
5.0652607
0
LINE
8
layer1
10
16.7139572
20
5.0652607
11
16.841176
21
5.0213941
0
LINE
8
layer1
10
16.841176
20
5.0213941
11
16.9576563
21
4.9756926
0
LINE
8
layer1
10
16.9576563
20
4.9756926
11
17.0615992
21
4.9297941
0
LINE
8
layer1
10
17.0615992
20
4.9297941
11
17.1533253
21
4.8846247
0
LINE
8
layer1
10
17.1533253
20
4.8846247
11
17.2343169
21
4.8404665
0
LINE
8
layer1
10
17.2343169
20
4.8404665
11
17.3056014
21
4.7975911
0
LINE
8
layer1
10
17.3056014
20
4.7975911
11
17.4119363
21
4.7244974
0
LINE
8
layer1
10
17.4119363
20
4.7244974
11
17.4977858
21
4.6526346
0
LINE
8
layer1
10
17.4977858
20
4.6526346
11
17.569807
21
4.5414814
0
LINE
8
layer1
10
17.569807
20
4.5414814
11
17.6470097
21
4.4397736
0
LINE
8
layer1
10
17.6470097
20
4.4397736
11
17.725379
21
4.352395
0
LINE
8
layer1
10
17.725379
20
4.352395
11
17.8038434
21
4.2792257
0
LINE
8
layer1
10
17.8038434
20
4.2792257
11
17.8813596
21
4.2201046
0
LINE
8
layer1
10
17.8813596
20
4.2201046
11
17.9569023
21
4.1748098
0
LINE
8
layer1
10
17.9569023
20
4.1748098
11
18.0294552
21
4.1430531
0
LINE
8
layer1
10
18.0294552
20
4.1430531
11
18.0980198
21
4.1244855
0
LINE
8
layer1
10
18.0980198
20
4.1244855
11
18.1616375
21
4.1187004
0
LINE
8
layer1
10
18.1616375
20
4.1187004
11
18.1912895
21
4.1204553
0
LINE
8
layer1
10
18.1912895
20
4.1204553
11
18.2193532
21
4.125233
0
LINE
8
layer1
10
18.2193532
20
4.125233
11
18.2457133
21
4.132954
0
LINE
8
layer1
10
18.2457133
20
4.132954
11
18.2702737
21
4.143564
0
LINE
8
layer1
10
18.2702737
20
4.143564
11
18.2982478
21
4.1607589
0
LINE
8
layer1
10
18.2982478
20
4.1607589
11
18.4395397
21
4.2657099
0
LINE
8
layer1
10
18.4395397
20
4.2657099
11
18.5176601
21
4.3206653
0
LINE
8
layer1
10
18.5176601
20
4.3206653
11
18.5967461
21
4.3742216
0
LINE
8
layer1
10
18.5967461
20
4.3742216
11
18.7449799
21
4.4691158
0
LINE
8
layer1
10
18.7449799
20
4.4691158
11
18.7709771
21
4.4891746
0
LINE
8
layer1
10
18.7709771
20
4.4891746
11
18.7896069
21
4.5083766
0
LINE
8
layer1
10
18.7896069
20
4.5083766
11
18.8061736
21
4.5302859
0
LINE
8
layer1
10
18.8061736
20
4.5302859
11
18.8205923
21
4.5548316
0
LINE
8
layer1
10
18.8205923
20
4.5548316
11
18.8327479
21
4.5819344
0
LINE
8
layer1
10
18.8327479
20
4.5819344
11
18.8498979
21
4.6434694
0
LINE
8
layer1
10
18.8498979
20
4.6434694
11
18.8568502
21
4.7141626
0
LINE
8
layer1
10
18.8568502
20
4.7141626
11
18.8528848
21
4.7932619
0
LINE
8
layer1
10
18.8528848
20
4.7932619
11
18.8373212
21
4.8799572
0
LINE
8
layer1
10
18.8373212
20
4.8799572
11
18.8095297
21
4.9734008
0
LINE
8
layer1
10
18.8095297
20
4.9734008
11
18.768939
21
5.0727125
0
LINE
8
layer1
10
18.768939
20
5.0727125
11
18.7150288
21
5.1769739
0
LINE
8
layer1
10
18.7150288
20
5.1769739
11
18.6473068
21
5.2852258
0
LINE
8
layer1
10
18.6473068
20
5.2852258
11
18.5689158
21
5.3919822
0
LINE
8
layer1
10
18.5689158
20
5.3919822
11
18.5321655
21
5.4977358
0
LINE
8
layer1
10
18.5321655
20
5.4977358
11
18.5015287
21
5.62308
0
LINE
8
layer1
10
18.5015287
20
5.62308
11
18.4867173
21
5.704936
0
LINE
8
layer1
10
18.4867173
20
5.704936
11
18.4741486
21
5.7963232
0
LINE
8
layer1
10
18.4741486
20
5.7963232
11
18.4644411
21
5.8981059
0
LINE
8
layer1
10
18.4644411
20
5.8981059
11
18.4583839
21
6.01157
0
LINE
8
layer1
10
18.4583839
20
6.01157
11
18.4569567
21
6.136687
0
LINE
8
layer1
10
18.4569567
20
6.136687
11
18.4610532
21
6.271194
0
LINE
8
layer1
10
18.4610532
20
6.271194
11
18.471648
21
6.4174284
0
LINE
8
layer1
10
18.471648
20
6.4174284
11
18.4894775
21
6.5727392
0
LINE
8
layer1
10
18.4894775
20
6.5727392
11
18.5155713
21
6.738469
0
LINE
8
layer1
10
18.5155713
20
6.738469
11
18.5465668
21
6.89397
0
ARC
8
layer1
10
21.5000094
20
-0.0000257
40
7.5
50
108.3477794
51
113.1906771
0
LINE
8
layer1
10
19.1391288
20
7.1186991
11
19.2654455
21
7.0228588
0
LINE
8
layer1
10
19.2654455
20
7.0228588
11
19.3948761
21
6.9161116
0
LINE
8
layer1
10
19.3948761
20
6.9161116
11
19.5112118
21
6.8116829
0
LINE
8
layer1
10
19.5112118
20
6.8116829
11
19.6161136
21
6.7092506
0
LINE
8
layer1
10
19.6161136
20
6.7092506
11
19.7083744
21
6.6112871
0
LINE
8
layer1
10
19.7083744
20
6.6112871
11
19.7902741
21
6.5166893
0
LINE
8
layer1
10
19.7902741
20
6.5166893
11
19.8609808
21
6.4277436
0
LINE
8
layer1
10
19.8609808
20
6.4277436
11
19.921209
21
6.3451209
0
LINE
8
layer1
10
19.921209
20
6.3451209
11
19.9724021
21
6.268382
0
LINE
8
layer1
10
19.9724021
20
6.268382
11
20.0155962
21
6.1972901
0
LINE
8
layer1
10
20.0155962
20
6.1972901
11
20.0757828
21
6.0831526
0
LINE
8
layer1
10
20.0757828
20
6.0831526
11
20.1184024
21
5.979625
0
LINE
8
layer1
10
20.1184024
20
5.979625
11
20.1305185
21
5.8477338
0
LINE
8
layer1
10
20.1305185
20
5.8477338
11
20.1516122
21
5.7217982
0
LINE
8
layer1
10
20.1516122
20
5.7217982
11
20.1803979
21
5.6080082
0
LINE
8
layer1
10
20.1803979
20
5.6080082
11
20.2158712
21
5.5067558
0
LINE
8
layer1
10
20.2158712
20
5.5067558
11
20.2570335
21
5.4183831
0
LINE
8
layer1
10
20.2570335
20
5.4183831
11
20.3028736
21
5.3431701
0
LINE
8
layer1
10
20.3028736
20
5.3431701
11
20.3523579
21
5.2813339
0
LINE
8
layer1
10
20.3523579
20
5.2813339
11
20.4044401
21
5.2330295
0
LINE
8
layer1
10
20.4044401
20
5.2330295
11
20.4580823
21
5.1983425
0
LINE
8
layer1
10
20.4580823
20
5.1983425
11
20.4851534
21
5.1861164
0
LINE
8
layer1
10
20.4851534
20
5.1861164
11
20.5122228
21
5.177305
0
LINE
8
layer1
10
20.5122228
20
5.177305
11
20.5391517
21
5.1718914
0
LINE
8
layer1
10
20.5391517
20
5.1718914
11
20.5658296
21
5.1698724
0
LINE
8
layer1
10
20.5658296
20
5.1698724
11
20.5985902
21
5.1720975
0
LINE
8
layer1
10
20.5985902
20
5.1720975
11
20.7724713
21
5.1993653
0
LINE
8
layer1
10
20.7724713
20
5.1993653
11
20.8671824
21
5.2117216
0
LINE
8
layer1
10
20.8671824
20
5.2117216
11
20.9620985
21
5.2223902
0
LINE
8
layer1
10
20.9620985
20
5.2223902
11
21.1374525
21
5.2375272
0
LINE
8
layer1
10
21.1374525
20
5.2375272
11
21.1697937
21
5.2432069
0
LINE
8
layer1
10
21.1697937
20
5.2432069
11
21.1952131
21
5.2515517
0
LINE
8
layer1
10
21.1952131
20
5.2515517
11
21.220064
21
5.2632525
0
LINE
8
layer1
10
21.220064
20
5.2632525
11
21.2442381
21
5.278286
0
LINE
8
layer1
10
21.2442381
20
5.278286
11
21.2675967
21
5.2966353
0
LINE
8
layer1
10
21.2675967
20
5.2966353
11
21.311379
21
5.3431518
0
LINE
8
layer1
10
21.311379
20
5.3431518
11
21.3503877
21
5.4025167
0
LINE
8
layer1
10
21.3503877
20
5.4025167
11
21.3836358
21
5.4743984
0
LINE
8
layer1
10
21.3836358
20
5.4743984
11
21.4101442
21
5.5583961
0
LINE
8
layer1
10
21.4101442
20
5.5583961
11
21.4289614
21
5.6540516
0
LINE
8
layer1
10
21.4289614
20
5.6540516
11
21.4391726
21
5.7608512
0
LINE
8
layer1
10
21.4391726
20
5.7608512
11
21.4398902
21
5.8782234
0
LINE
8
layer1
10
21.4398902
20
5.8782234
11
21.4302325
21
6.0055477
0
LINE
8
layer1
10
21.4302325
20
6.0055477
11
21.4104329
21
6.1365059
0
LINE
8
layer1
10
21.4104329
20
6.1365059
11
21.4270383
21
6.2472247
0
LINE
8
layer1
10
21.4270383
20
6.2472247
11
21.4581611
21
6.3724492
0
LINE
8
layer1
10
21.4581611
20
6.3724492
11
21.4830866
21
6.4518123
0
LINE
8
layer1
10
21.4830866
20
6.4518123
11
21.5144274
21
6.5385726
0
LINE
8
layer1
10
21.5144274
20
6.5385726
11
21.5531325
21
6.633208
0
LINE
8
layer1
10
21.5531325
20
6.633208
11
21.6004986
21
6.7364904
0
LINE
8
layer1
10
21.6004986
20
6.7364904
11
21.6573796
21
6.8479392
0
LINE
8
layer1
10
21.6573796
20
6.8479392
11
21.7235154
21
6.9651355
0
LINE
8
layer1
10
21.7235154
20
6.9651355
11
21.8008552
21
7.0896959
0
LINE
8
layer1
10
21.8008552
20
7.0896959
11
21.8888189
21
7.2189311
0
LINE
8
layer1
10
21.8888189
20
7.2189311
11
21.9889423
21
7.3535511
0
LINE
8
layer1
10
21.9889423
20
7.3535511
11
22.0886524
21
7.4768361
0
ARC
8
layer1
10
21.4999971
20
-0.0000272
40
7.5
50
80.6554772
51
85.4983748
0
LINE
8
layer1
10
22.7177768
20
7.4004466
11
22.7850855
21
7.2568819
0
LINE
8
layer1
10
22.7850855
20
7.2568819
11
22.8500827
21
7.1022125
0
LINE
8
layer1
10
22.8500827
20
7.1022125
11
22.9045624
21
6.9556816
0
LINE
8
layer1
10
22.9045624
20
6.9556816
11
22.9498456
21
6.816232
0
LINE
8
layer1
10
22.9498456
20
6.816232
11
22.9860127
21
6.6866139
0
LINE
8
layer1
10
22.9860127
20
6.6866139
11
23.0145694
21
6.5647911
0
LINE
8
layer1
10
23.0145694
20
6.5647911
11
23.035842
21
6.4531745
0
LINE
8
layer1
10
23.035842
20
6.4531745
11
23.0507747
21
6.3520262
0
LINE
8
layer1
10
23.0507747
20
6.3520262
11
23.0604416
21
6.2602867
0
LINE
8
layer1
10
23.0604416
20
6.2602867
11
23.0656501
21
6.1772647
0
LINE
8
layer1
10
23.0656501
20
6.1772647
11
23.0659003
21
6.0482309
0
LINE
8
layer1
10
23.0659003
20
6.0482309
11
23.0555264
21
5.9367554
0
LINE
8
layer1
10
23.0555264
20
5.9367554
11
23.0049618
21
5.8143409
0
LINE
8
layer1
10
23.0049618
20
5.8143409
11
22.9651141
21
5.6930277
0
LINE
8
layer1
10
22.9651141
20
5.6930277
11
22.9377218
21
5.5788944
0
LINE
8
layer1
10
22.9377218
20
5.5788944
11
22.9220774
21
5.4727545
0
LINE
8
layer1
10
22.9220774
20
5.4727545
11
22.917456
21
5.3753753
0
LINE
8
layer1
10
22.917456
20
5.3753753
11
22.9230922
21
5.2874745
0
LINE
8
layer1
10
22.9230922
20
5.2874745
11
22.9381717
21
5.2097248
0
LINE
8
layer1
10
22.9381717
20
5.2097248
11
22.96184
21
5.1427496
0
LINE
8
layer1
10
22.96184
20
5.1427496
11
22.9932179
21
5.087107
0
LINE
8
layer1
10
22.9932179
20
5.087107
11
23.0115064
21
5.0637007
0
LINE
8
layer1
10
23.0115064
20
5.0637007
11
23.0313804
21
5.0433188
0
LINE
8
layer1
10
23.0313804
20
5.0433188
11
23.0527089
21
5.0260109
0
LINE
8
layer1
10
23.0527089
20
5.0260109
11
23.0753927
21
5.0118253
0
LINE
8
layer1
10
23.0753927
20
5.0118253
11
23.1054348
21
4.9985709
0
LINE
8
layer1
10
23.1054348
20
4.9985709
11
23.2720708
21
4.9419088
0
LINE
8
layer1
10
23.2720708
20
4.9419088
11
23.3616757
21
4.9088353
0
LINE
8
layer1
10
23.3616757
20
4.9088353
11
23.4506776
21
4.8741722
0
LINE
8
layer1
10
23.4506776
20
4.8741722
11
23.6129804
21
4.8060842
0
LINE
8
layer1
10
23.6129804
20
4.8060842
11
23.6442566
21
4.7960837
0
LINE
8
layer1
10
23.6442566
20
4.7960837
11
23.6706424
21
4.7916596
0
LINE
8
layer1
10
23.6706424
20
4.7916596
11
23.6980843
21
4.7904714
0
LINE
8
layer1
10
23.6980843
20
4.7904714
11
23.7264759
21
4.7925486
0
LINE
8
layer1
10
23.7264759
20
4.7925486
11
23.7556862
21
4.7979409
0
LINE
8
layer1
10
23.7556862
20
4.7979409
11
23.8160708
21
4.8187826
0
LINE
8
layer1
10
23.8160708
20
4.8187826
11
23.8781996
21
4.8532192
0
LINE
8
layer1
10
23.8781996
20
4.8532192
11
23.9410444
21
4.9014162
0
LINE
8
layer1
10
23.9410444
20
4.9014162
11
24.0035521
21
4.9634733
0
LINE
8
layer1
10
24.0035521
20
4.9634733
11
24.0646673
21
5.0394274
0
LINE
8
layer1
10
24.0646673
20
5.0394274
11
24.1233411
21
5.1292483
0
LINE
8
layer1
10
24.1233411
20
5.1292483
11
24.178522
21
5.2328428
0
LINE
8
layer1
10
24.178522
20
5.2328428
11
24.2291411
21
5.3500709
0
LINE
8
layer1
10
24.2291411
20
5.3500709
11
24.2724688
21
5.47523
0
LINE
8
layer1
10
24.2724688
20
5.47523
11
24.3386257
21
5.5655498
0
LINE
8
layer1
10
24.3386257
20
5.5655498
11
24.4243783
21
5.6619671
0
LINE
8
layer1
10
24.4243783
20
5.6619671
11
24.4833306
21
5.7206561
0
LINE
8
layer1
10
24.4833306
20
5.7206561
11
24.551401
21
5.7829138
0
LINE
8
layer1
10
24.551401
20
5.7829138
11
24.629652
21
5.8487221
0
LINE
8
layer1
10
24.629652
20
5.8487221
11
24.7195902
21
5.918162
0
LINE
8
layer1
10
24.7195902
20
5.918162
11
24.8217488
21
5.9904111
0
LINE
8
layer1
10
24.8217488
20
5.9904111
11
24.9347729
21
6.0634484
0
LINE
8
layer1
10
24.9347729
20
6.0634484
11
25.06114
21
6.1377996
0
LINE
8
layer1
10
25.06114
20
6.1377996
11
25.1990866
21
6.2113529
0
LINE
8
layer1
10
25.1990866
20
6.2113529
11
25.3503025
21
6.2840234
0
LINE
8
layer1
10
25.3503025
20
6.2840234
11
25.4958848
21
6.3468492
0
ARC
8
layer1
10
21.4999841
20
-0.0000223
40
7.5
50
52.9631633
51
57.806061
0
LINE
8
layer1
10
26.0174468
20
5.9868409
11
26.0103278
21
5.8284408
0
LINE
8
layer1
10
26.0103278
20
5.8284408
11
25.9960016
21
5.6612822
0
LINE
8
layer1
10
25.9960016
20
5.6612822
11
25.9761447
21
5.5062175
0
LINE
8
layer1
10
25.9761447
20
5.5062175
11
25.9514355
21
5.3616969
0
LINE
8
layer1
10
25.9514355
20
5.3616969
11
25.9232233
21
5.2301181
0
LINE
8
layer1
10
25.9232233
20
5.2301181
11
25.8918951
21
5.1089783
0
LINE
8
layer1
10
25.8918951
20
5.1089783
11
25.8588602
21
5.0002608
0
LINE
8
layer1
10
25.8588602
20
5.0002608
11
25.8250766
21
4.903759
0
LINE
8
layer1
10
25.8250766
20
4.903759
11
25.7910027
21
4.8180352
0
LINE
8
layer1
10
25.7910027
20
4.8180352
11
25.7570323
21
4.7421024
0
LINE
8
layer1
10
25.7570323
20
4.7421024
11
25.6972889
21
4.6277323
0
LINE
8
layer1
10
25.6972889
20
4.6277323
11
25.6362981
21
4.5338467
0
LINE
8
layer1
10
25.6362981
20
4.5338467
11
25.5346364
21
4.4489526
0
LINE
8
layer1
10
25.5346364
20
4.4489526
11
25.442976
21
4.3600532
0
LINE
8
layer1
10
25.442976
20
4.3600532
11
25.3656809
21
4.271723
0
LINE
8
layer1
10
25.3656809
20
4.271723
11
25.3025029
21
4.1850111
0
LINE
8
layer1
10
25.3025029
20
4.1850111
11
25.2531564
21
4.1009338
0
LINE
8
layer1
10
25.2531564
20
4.1009338
11
25.2172975
21
4.0204823
0
LINE
8
layer1
10
25.2172975
20
4.0204823
11
25.1945176
21
3.9446305
0
LINE
8
layer1
10
25.1945176
20
3.9446305
11
25.1843499
21
3.8743277
0
LINE
8
layer1
10
25.1843499
20
3.8743277
11
25.1862753
21
3.8104766
0
LINE
8
layer1
10
25.1862753
20
3.8104766
11
25.1915915
21
3.7812523
0
LINE
8
layer1
10
25.1915915
20
3.7812523
11
25.1997171
21
3.7539691
0
LINE
8
layer1
10
25.1997171
20
3.7539691
11
25.2105592
21
3.7287318
0
LINE
8
layer1
10
25.2105592
20
3.7287318
11
25.2240523
21
3.7056294
0
LINE
8
layer1
10
25.2240523
20
3.7056294
11
25.2444937
21
3.6799319
0
LINE
8
layer1
10
25.2444937
20
3.6799319
11
25.3657103
21
3.5523206
0
LINE
8
layer1
10
25.3657103
20
3.5523206
11
25.4296814
21
3.481394
0
LINE
8
layer1
10
25.4296814
20
3.481394
11
25.49238
21
3.40934
0
LINE
8
layer1
10
25.49238
20
3.40934
11
25.6044499
21
3.2736253
0
LINE
8
layer1
10
25.6044499
20
3.2736253
11
25.6274961
21
3.2502355
0
LINE
8
layer1
10
25.6274961
20
3.2502355
11
25.6488037
21
3.2340561
0
LINE
8
layer1
10
25.6488037
20
3.2340561
11
25.6725501
21
3.220251
0
LINE
8
layer1
10
25.6725501
20
3.220251
11
25.6986549
21
3.2088961
0
LINE
8
layer1
10
25.6986549
20
3.2088961
11
25.7270253
21
3.200096
0
LINE
8
layer1
10
25.7270253
20
3.200096
11
25.7901788
21
3.1904883
0
LINE
8
layer1
10
25.7901788
20
3.1904883
11
25.8611946
21
3.1921077
0
LINE
8
layer1
10
25.8611946
20
3.1921077
11
25.9392391
21
3.2055786
0
LINE
8
layer1
10
25.9392391
20
3.2055786
11
26.0234264
21
3.2314787
0
LINE
8
layer1
10
26.0234264
20
3.2314787
11
26.1128388
21
3.270331
0
LINE
8
layer1
10
26.1128388
20
3.270331
11
26.2065337
21
3.3225964
0
LINE
8
layer1
10
26.2065337
20
3.3225964
11
26.3035368
21
3.3886809
0
LINE
8
layer1
10
26.3035368
20
3.3886809
11
26.4028364
21
3.4689574
0
LINE
8
layer1
10
26.4028364
20
3.4689574
11
26.4993655
21
3.559645
0
LINE
8
layer1
10
26.4993655
20
3.559645
11
26.5999182
21
3.6088744
0
LINE
8
layer1
10
26.5999182
20
3.6088744
11
26.7206557
21
3.6543965
0
LINE
8
layer1
10
26.7206557
20
3.6543965
11
26.8001295
21
3.6789665
0
LINE
8
layer1
10
26.8001295
20
3.6789665
11
26.8893354
21
3.7024591
0
LINE
8
layer1
10
26.8893354
20
3.7024591
11
26.9892059
21
3.7243644
0
LINE
8
layer1
10
26.9892059
20
3.7243644
11
27.1011126
21
3.744054
0
LINE
8
layer1
10
27.1011126
20
3.744054
11
27.2251453
21
3.760552
0
LINE
8
layer1
10
27.2251453
20
3.760552
11
27.3591653
21
3.7726984
0
LINE
8
layer1
10
27.3591653
20
3.7726984
11
27.5056106
21
3.7798074
0
LINE
8
layer1
10
27.5056106
20
3.7798074
11
27.6619381
21
3.7808285
0
LINE
8
layer1
10
27.6619381
20
3.7808285
11
27.8296048
21
3.7749015
0
LINE
8
layer1
10
27.8296048
20
3.7749015
11
27.9877082
21
3.7628756
0
ARC
8
layer1
10
21.4999757
20
-0.0000125
40
7.5
50
25.2708574
51
30.1137546
0
LINE
8
layer1
10
28.2822242
20
3.2017222
11
28.2023084
21
3.0647742
0
ENDSEC
0
EOF