0
SECTION
2
HEADER
0
ENDSEC
0
SECTION
2
TABLES
0
TABLE
2
LTYPE
0
LTYPE
72
65
70
64
2
CONTINUOUS
3
______
73
0
40
0
0
ENDTAB
0
TABLE
2
LAYER
0
ENDTAB
0
ENDSEC
0
SECTION
2
ENTITIES
0
CIRCLE
8
0
10
16.5
20
0
40
2
0
CIRCLE
8
0
10
16.5
20
0
40
2
0
LINE
8
layer0
10
30.5721061
20
4.4266564
11
30.3644277
21
4.2042141
0
LINE
8
layer0
10
30.3644277
20
4.2042141
11
30.164119
21
4.0068931
0
LINE
8
layer0
10
30.164119
20
4.0068931
11
29.9705435
21
3.8315654
0
LINE
8
layer0
10
29.9705435
20
3.8315654
11
29.7887424
21
3.6802776
0
LINE
8
layer0
10
29.7887424
20
3.6802776
11
29.6176186
21
3.5495766
0
LINE
8
layer0
10
29.6176186
20
3.5495766
11
29.4594133
21
3.4389032
0
LINE
8
layer0
10
29.4594133
20
3.4389032
11
29.3146419
21
3.346429
0
LINE
8
layer0
10
29.3146419
20
3.346429
11
29.1878025
21
3.272673
0
LINE
8
layer0
10
29.1878025
20
3.272673
11
29.0749908
21
3.2132304
0
LINE
8
layer0
10
29.0749908
20
3.2132304
11
28.906756
21
3.1371509
0
LINE
8
layer0
10
28.906756
20
3.1371509
11
28.8149278
21
3.1042859
0
LINE
8
layer0
10
28.8149278
20
3.1042859
11
28.6118845
21
3.0496274
0
LINE
8
layer0
10
28.6118845
20
3.0496274
11
28.4479004
21
2.9892343
0
LINE
8
layer0
10
28.4479004
20
2.9892343
11
28.3102692
21
2.9214552
0
LINE
8
layer0
10
28.3102692
20
2.9214552
11
28.1992802
21
2.8483922
0
LINE
8
layer0
10
28.1992802
20
2.8483922
11
28.1538353
21
2.8105255
0
LINE
8
layer0
10
28.1538353
20
2.8105255
11
28.1150915
21
2.7721446
0
LINE
8
layer0
10
28.1150915
20
2.7721446
11
28.083058
21
2.7334847
0
LINE
8
layer0
10
28.083058
20
2.7334847
11
28.0577356
21
2.6948303
0
LINE
8
layer0
10
28.0577356
20
2.6948303
11
28.0390906
21
2.6564292
0
LINE
8
layer0
10
28.0390906
20
2.6564292
11
28.0271057
21
2.6185526
0
LINE
8
layer0
10
28.0271057
20
2.6185526
11
28.0217538
21
2.5814699
0
LINE
8
layer0
10
28.0217538
20
2.5814699
11
28.0260545
21
2.5278826
0
LINE
8
layer0
10
28.0260545
20
2.5278826
11
28.1207315
21
2.0490485
0
LINE
8
layer0
10
28.1207315
20
2.0490485
11
28.1955351
21
1.5667102
0
LINE
8
layer0
10
28.1955351
20
1.5667102
11
28.2098217
21
1.5148837
0
LINE
8
layer0
10
28.2098217
20
1.5148837
11
28.2275339
21
1.4818678
0
LINE
8
layer0
10
28.2275339
20
1.4818678
11
28.2517506
21
1.4503745
0
LINE
8
layer0
10
28.2517506
20
1.4503745
11
28.2824051
21
1.4206663
0
LINE
8
layer0
10
28.2824051
20
1.4206663
11
28.319421
21
1.3930038
0
LINE
8
layer0
10
28.319421
20
1.3930038
11
28.362745
21
1.3676315
0
LINE
8
layer0
10
28.362745
20
1.3676315
11
28.4122794
21
1.3448164
0
LINE
8
layer0
10
28.4122794
20
1.3448164
11
28.4679348
21
1.3247764
0
LINE
8
layer0
10
28.4679348
20
1.3247764
11
28.5972193
21
1.2940801
0
LINE
8
layer0
10
28.5972193
20
1.2940801
11
28.7497322
21
1.2774612
0
LINE
8
layer0
10
28.7497322
20
1.2774612
11
28.9244825
21
1.2767961
0
LINE
8
layer0
10
28.9244825
20
1.2767961
11
29.1339751
21
1.2948789
0
LINE
8
layer0
10
29.1339751
20
1.2948789
11
29.2315058
21
1.2954029
0
LINE
8
layer0
10
29.2315058
20
1.2954029
11
29.4156156
21
1.2814512
0
LINE
8
layer0
10
29.4156156
20
1.2814512
11
29.5419545
21
1.2641773
0
LINE
8
layer0
10
29.5419545
20
1.2641773
11
29.6863706
21
1.238251
0
LINE
8
layer0
10
29.6863706
20
1.238251
11
29.8540392
21
1.2008685
0
LINE
8
layer0
10
29.8540392
20
1.2008685
11
30.0405561
21
1.1509788
0
LINE
8
layer0
10
30.0405561
20
1.1509788
11
30.2460622
21
1.0866879
0
LINE
8
layer0
10
30.2460622
20
1.0866879
11
30.4686429
21
1.0067035
0
LINE
8
layer0
10
30.4686429
20
1.0067035
11
30.7105099
21
0.9081561
0
LINE
8
layer0
10
30.7105099
20
0.9081561
11
30.9662263
21
0.7912446
0
LINE
8
layer0
10
30.9662263
20
0.7912446
11
31.2374599
21
0.6532474
0
LINE
8
layer0
10
31.2374599
20
0.6532474
11
31.4912688
21
0.5109452
0
ARC
8
layer0
10
16.4999735
20
-1e-7
40
15
50
358.0479555
51
361.9520449
0
LINE
8
layer0
10
31.4912688
20
-0.5109452
11
31.2374599
21
-0.6532474
0
LINE
8
layer0
10
31.2374599
20
-0.6532474
11
30.9662263
21
-0.7912446
0
LINE
8
layer0
10
30.9662263
20
-0.7912446
11
30.7105099
21
-0.9081561
0
LINE
8
layer0
10
30.7105099
20
-0.9081561
11
30.4686429
21
-1.0067035
0
LINE
8
layer0
10
30.4686429
20
-1.0067035
11
30.2460622
21
-1.0866879
0
LINE
8
layer0
10
30.2460622
20
-1.0866879
11
30.0405561
21
-1.1509788
0
LINE
8
layer0
10
30.0405561
20
-1.1509788
11
29.8540392
21
-1.2008685
0
LINE
8
layer0
10
29.8540392
20
-1.2008685
11
29.6863706
21
-1.238251
0
LINE
8
layer0
10
29.6863706
20
-1.238251
11
29.5419545
21
-1.2641773
0
LINE
8
layer0
10
29.5419545
20
-1.2641773
11
29.4156156
21
-1.2814512
0
LINE
8
layer0
10
29.4156156
20
-1.2814512
11
29.2315058
21
-1.2954029
0
LINE
8
layer0
10
29.2315058
20
-1.2954029
11
29.1339751
21
-1.2948789
0
LINE
8
layer0
10
29.1339751
20
-1.2948789
11
28.9244825
21
-1.2767961
0
LINE
8
layer0
10
28.9244825
20
-1.2767961
11
28.7497322
21
-1.2774612
0
LINE
8
layer0
10
28.7497322
20
-1.2774612
11
28.5972193
21
-1.2940801
0
LINE
8
layer0
10
28.5972193
20
-1.2940801
11
28.4679348
21
-1.3247764
0
LINE
8
layer0
10
28.4679348
20
-1.3247764
11
28.4122794
21
-1.3448164
0
LINE
8
layer0
10
28.4122794
20
-1.3448164
11
28.362745
21
-1.3676315
0
LINE
8
layer0
10
28.362745
20
-1.3676315
11
28.319421
21
-1.3930038
0
LINE
8
layer0
10
28.319421
20
-1.3930038
11
28.2824051
21
-1.4206663
0
LINE
8
layer0
10
28.2824051
20
-1.4206663
11
28.2517506
21
-1.4503745
0
LINE
8
layer0
10
28.2517506
20
-1.4503745
11
28.2275339
21
-1.4818678
0
LINE
8
layer0
10
28.2275339
20
-1.4818678
11
28.2098217
21
-1.5148837
0
LINE
8
layer0
10
28.2098217
20
-1.5148837
11
28.1955351
21
-1.5667102
0
LINE
8
layer0
10
28.1955351
20
-1.5667102
11
28.1207315
21
-2.0490485
0
LINE
8
layer0
10
28.1207315
20
-2.0490485
11
28.0260545
21
-2.5278826
0
LINE
8
layer0
10
28.0260545
20
-2.5278826
11
28.0217538
21
-2.5814699
0
LINE
8
layer0
10
28.0217538
20
-2.5814699
11
28.0271057
21
-2.6185526
0
LINE
8
layer0
10
28.0271057
20
-2.6185526
11
28.0390906
21
-2.6564292
0
LINE
8
layer0
10
28.0390906
20
-2.6564292
11
28.0577356
21
-2.6948303
0
LINE
8
layer0
10
28.0577356
20
-2.6948303
11
28.083058
21
-2.7334847
0
LINE
8
layer0
10
28.083058
20
-2.7334847
11
28.1150915
21
-2.7721446
0
LINE
8
layer0
10
28.1150915
20
-2.7721446
11
28.1538353
21
-2.8105255
0
LINE
8
layer0
10
28.1538353
20
-2.8105255
11
28.1992802
21
-2.8483922
0
LINE
8
layer0
10
28.1992802
20
-2.8483922
11
28.3102692
21
-2.9214552
0
LINE
8
layer0
10
28.3102692
20
-2.9214552
11
28.4479004
21
-2.9892343
0
LINE
8
layer0
10
28.4479004
20
-2.9892343
11
28.6118845
21
-3.0496274
0
LINE
8
layer0
10
28.6118845
20
-3.0496274
11
28.8149278
21
-3.1042859
0
LINE
8
layer0
10
28.8149278
20
-3.1042859
11
28.906756
21
-3.1371509
0
LINE
8
layer0
10
28.906756
20
-3.1371509
11
29.0749908
21
-3.2132304
0
LINE
8
layer0
10
29.0749908
20
-3.2132304
11
29.1878025
21
-3.272673
0
LINE
8
layer0
10
29.1878025
20
-3.272673
11
29.3146419
21
-3.346429
0
LINE
8
layer0
10
29.3146419
20
-3.346429
11
29.4594133
21
-3.4389032
0
LINE
8
layer0
10
29.4594133
20
-3.4389032
11
29.6176186
21
-3.5495766
0
LINE
8
layer0
10
29.6176186
20
-3.5495766
11
29.7887424
21
-3.6802776
0
LINE
8
layer0
10
29.7887424
20
-3.6802776
11
29.9705435
21
-3.8315654
0
LINE
8
layer0
10
29.9705435
20
-3.8315654
11
30.164119
21
-4.0068931
0
LINE
8
layer0
10
30.164119
20
-4.0068931
11
30.3644277
21
-4.2042141
0
LINE
8
layer0
10
30.3644277
20
-4.2042141
11
30.5721061
21
-4.4266564
0
LINE
8
layer0
10
30.5721061
20
-4.4266564
11
30.7619382
21
-4.6471844
0
ARC
8
layer0
10
16.499975
20
0.000009
40
15
50
338.047956
51
341.9520451
0
LINE
8
layer0
10
30.4124311
20
-5.6074474
11
30.1252586
21
-5.6543599
0
LINE
8
layer0
10
30.1252586
20
-5.6543599
11
29.8231845
21
-5.6912675
0
LINE
8
layer0
10
29.8231845
20
-5.6912675
11
29.5429036
21
-5.7136682
0
LINE
8
layer0
10
29.5429036
20
-5.7136682
11
29.2819177
21
-5.723549
0
LINE
8
layer0
10
29.2819177
20
-5.723549
11
29.0454041
21
-5.7225827
0
LINE
8
layer0
10
29.0454041
20
-5.7225827
11
28.8303027
21
-5.7127093
0
LINE
8
layer0
10
28.8303027
20
-5.7127093
11
28.6379709
21
-5.6957977
0
LINE
8
layer0
10
28.6379709
20
-5.6957977
11
28.4676283
21
-5.6735797
0
LINE
8
layer0
10
28.4676283
20
-5.6735797
11
28.3230543
21
-5.6485493
0
LINE
8
layer0
10
28.3230543
20
-5.6485493
11
28.1984265
21
-5.6215709
0
LINE
8
layer0
10
28.1984265
20
-5.6215709
11
28.0206482
21
-5.571712
0
LINE
8
layer0
10
28.0206482
20
-5.571712
11
27.9291785
21
-5.5378621
0
LINE
8
layer0
10
27.9291785
20
-5.5378621
11
27.7385045
21
-5.4492192
0
LINE
8
layer0
10
27.7385045
20
-5.4492192
11
27.5740655
21
-5.390076
0
LINE
8
layer0
10
27.5740655
20
-5.390076
11
27.4250663
21
-5.3535302
0
LINE
8
layer0
10
27.4250663
20
-5.3535302
11
27.2930798
21
-5.3381574
0
LINE
8
layer0
10
27.2930798
20
-5.3381574
11
27.2339267
21
-5.3379535
0
LINE
8
layer0
10
27.2339267
20
-5.3379535
11
27.1795765
21
-5.3424509
0
LINE
8
layer0
10
27.1795765
20
-5.3424509
11
27.1301873
21
-5.3514754
0
LINE
8
layer0
10
27.1301873
20
-5.3514754
11
27.0859426
21
-5.3648095
0
LINE
8
layer0
10
27.0859426
20
-5.3648095
11
27.046976
21
-5.3822417
0
LINE
8
layer0
10
27.046976
20
-5.3822417
11
27.0134485
21
-5.4035531
0
LINE
8
layer0
10
27.0134485
20
-5.4035531
11
26.9855123
21
-5.4285199
0
LINE
8
layer0
10
26.9855123
20
-5.4285199
11
26.9543616
21
-5.4723346
0
LINE
8
layer0
10
26.9543616
20
-5.4723346
11
26.7190998
21
-5.9
0
LINE
8
layer0
10
26.7190998
20
-5.9
11
26.4663616
21
-6.3175754
0
LINE
8
layer0
10
26.4663616
20
-6.3175754
11
26.4439923
21
-6.3664601
0
LINE
8
layer0
10
26.4439923
20
-6.3664601
11
26.4363385
21
-6.4031369
0
LINE
8
layer0
10
26.4363385
20
-6.4031369
11
26.434646
21
-6.4428283
0
LINE
8
layer0
10
26.434646
20
-6.4428283
11
26.4390326
21
-6.4852905
0
LINE
8
layer0
10
26.4390326
20
-6.4852905
11
26.4496073
21
-6.5302746
0
LINE
8
layer0
10
26.4496073
20
-6.5302746
11
26.4664865
21
-6.5775591
0
LINE
8
layer0
10
26.4664865
20
-6.5775591
11
26.4897667
21
-6.6268765
0
LINE
8
layer0
10
26.4897667
20
-6.6268765
11
26.5195198
21
-6.6780026
0
LINE
8
layer0
10
26.5195198
20
-6.6780026
11
26.5988263
21
-6.7846198
0
LINE
8
layer0
10
26.5988263
20
-6.7846198
11
26.7049755
21
-6.895384
0
LINE
8
layer0
10
26.7049755
20
-6.895384
11
26.8384145
21
-7.0082208
0
LINE
8
layer0
10
26.8384145
20
-7.0082208
11
27.0105185
21
-7.1290279
0
LINE
8
layer0
10
27.0105185
20
-7.1290279
11
27.0855682
21
-7.191318
0
LINE
8
layer0
10
27.0855682
20
-7.191318
11
27.2176365
21
-7.3203491
0
LINE
8
layer0
10
27.2176365
20
-7.3203491
11
27.3033143
21
-7.4147907
0
LINE
8
layer0
10
27.3033143
20
-7.4147907
11
27.3972783
21
-7.5274803
0
LINE
8
layer0
10
27.3972783
20
-7.5274803
11
27.5016909
21
-7.6638923
0
LINE
8
layer0
10
27.5016909
20
-7.6638923
11
27.6125027
21
-7.8220007
0
LINE
8
layer0
10
27.6125027
20
-7.8220007
11
27.7286041
21
-8.0033473
0
LINE
8
layer0
10
27.7286041
20
-8.0033473
11
27.8476977
21
-8.207691
0
LINE
8
layer0
10
27.8476977
20
-8.207691
11
27.9696336
21
-8.4386518
0
LINE
8
layer0
10
27.9696336
20
-8.4386518
11
28.0903745
21
-8.6925825
0
LINE
8
layer0
10
28.0903745
20
-8.6925825
11
28.2094486
21
-8.9726401
0
LINE
8
layer0
10
28.2094486
20
-8.9726401
11
28.3124074
21
-9.2447951
0
ARC
8
layer0
10
16.4999796
20
0.0000169
40
15
50
318.047956
51
321.9520452
0
LINE
8
layer0
10
27.6555489
20
-10.0276086
11
27.36965
21
-9.9734731
0
LINE
8
layer0
10
27.36965
20
-9.9734731
11
27.07317
21
-9.9048396
0
LINE
8
layer0
10
27.07317
20
-9.9048396
11
26.8021307
21
-9.8300276
0
LINE
8
layer0
10
26.8021307
20
-9.8300276
11
26.5535047
21
-9.7500501
0
LINE
8
layer0
10
26.5535047
20
-9.7500501
11
26.3315851
21
-9.6682497
0
LINE
8
layer0
10
26.3315851
20
-9.6682497
11
26.1328328
21
-9.5854026
0
LINE
8
layer0
10
26.1328328
20
-9.5854026
11
25.9578842
21
-9.5037296
0
LINE
8
layer0
10
25.9578842
20
-9.5037296
11
25.8054135
21
-9.4245909
0
LINE
8
layer0
10
25.8054135
20
-9.4245909
11
25.6781193
21
-9.3516228
0
LINE
8
layer0
10
25.6781193
20
-9.3516228
11
25.5702346
21
-9.2836462
0
LINE
8
layer0
10
25.5702346
20
-9.2836462
11
25.4202304
21
-9.1759904
0
LINE
8
layer0
10
25.4202304
20
-9.1759904
11
25.3458543
21
-9.1128974
0
LINE
8
layer0
10
25.3458543
20
-9.1128974
11
25.196997
21
-8.964386
0
LINE
8
layer0
10
25.196997
20
-8.964386
11
25.062703
21
-8.8525681
0
LINE
8
layer0
10
25.062703
20
-8.8525681
11
24.935189
21
-8.7672655
0
LINE
8
layer0
10
24.935189
20
-8.7672655
11
24.8164201
21
-8.7076778
0
LINE
8
layer0
10
24.8164201
20
-8.7076778
11
24.7609041
21
-8.6872547
0
LINE
8
layer0
10
24.7609041
20
-8.6872547
11
24.7082934
21
-8.672892
0
LINE
8
layer0
10
24.7082934
20
-8.672892
11
24.6587962
21
-8.6644802
0
LINE
8
layer0
10
24.6587962
20
-8.6644802
11
24.6126593
21
-8.6618775
0
LINE
8
layer0
10
24.6126593
20
-8.6618775
11
24.5700805
21
-8.664931
0
LINE
8
layer0
10
24.5700805
20
-8.664931
11
24.531286
21
-8.6734901
0
LINE
8
layer0
10
24.531286
20
-8.6734901
11
24.4964954
21
-8.6873965
0
LINE
8
layer0
10
24.4964954
20
-8.6873965
11
24.4522378
21
-8.7179147
0
LINE
8
layer0
10
24.4522378
20
-8.7179147
11
24.0848938
21
-9.0393244
0
LINE
8
layer0
10
24.0848938
20
-9.0393244
11
23.7045784
21
-9.3452754
0
LINE
8
layer0
10
23.7045784
20
-9.3452754
11
23.6668386
21
-9.3835612
0
LINE
8
layer0
10
23.6668386
20
-9.3835612
11
23.6471021
21
-9.4154084
0
LINE
8
layer0
10
23.6471021
20
-9.4154084
11
23.6319365
21
-9.4521273
0
LINE
8
layer0
10
23.6319365
20
-9.4521273
11
23.6215356
21
-9.493529
0
LINE
8
layer0
10
23.6215356
20
-9.493529
11
23.6160872
21
-9.539417
0
LINE
8
layer0
10
23.6160872
20
-9.539417
11
23.6157761
21
-9.5896228
0
LINE
8
layer0
10
23.6157761
20
-9.5896228
11
23.6207848
21
-9.6439284
0
LINE
8
layer0
10
23.6207848
20
-9.6439284
11
23.6312574
21
-9.7021474
0
LINE
8
layer0
10
23.6312574
20
-9.7021474
11
23.6693159
21
-9.8294592
0
LINE
8
layer0
10
23.6693159
20
-9.8294592
11
23.7311799
21
-9.9698486
0
LINE
8
layer0
10
23.7311799
20
-9.9698486
11
23.8179791
21
-10.1215194
0
LINE
8
layer0
10
23.8179791
20
-10.1215194
11
23.9383856
21
-10.293904
0
LINE
8
layer0
10
23.9383856
20
-10.293904
11
23.9876047
21
-10.378106
0
LINE
8
layer0
10
23.9876047
20
-10.378106
11
24.0675771
21
-10.5445256
0
LINE
8
layer0
10
24.0675771
20
-10.5445256
11
24.1157869
21
-10.6625753
0
LINE
8
layer0
10
24.1157869
20
-10.6625753
11
24.1655421
21
-10.8006064
0
LINE
8
layer0
10
24.1655421
20
-10.8006064
11
24.2170022
21
-10.964503
0
LINE
8
layer0
10
24.2170022
20
-10.964503
11
24.267055
21
-11.1509761
0
LINE
8
layer0
10
24.267055
20
-11.1509761
11
24.3141304
21
-11.3610951
0
LINE
8
layer0
10
24.3141304
20
-11.3610951
11
24.3561522
21
-11.5938478
0
LINE
8
layer0
10
24.3561522
20
-11.5938478
11
24.3917412
21
-11.8525846
0
LINE
8
layer0
10
24.3917412
20
-11.8525846
11
24.4183511
21
-12.1324972
0
LINE
8
layer0
10
24.4183511
20
-12.1324972
11
24.4344588
21
-12.436391
0
LINE
8
layer0
10
24.4344588
20
-12.436391
11
24.4381259
21
-12.727347
0
ARC
8
layer0
10
16.4999871
20
0.0000232
40
15
50
298.0479536
51
301.9520428
0
LINE
8
layer0
10
23.5531428
20
-13.2382922
11
23.3030012
21
-13.0896384
0
LINE
8
layer0
10
23.3030012
20
-13.0896384
11
23.0478752
21
-12.9237418
0
LINE
8
layer0
10
23.0478752
20
-12.9237418
11
22.8187687
21
-12.7607406
0
LINE
8
layer0
10
22.8187687
20
-12.7607406
11
22.6124907
21
-12.6005513
0
LINE
8
layer0
10
22.6124907
20
-12.6005513
11
22.4319318
21
-12.447783
0
LINE
8
layer0
10
22.4319318
20
-12.447783
11
22.2735011
21
-12.301955
0
LINE
8
layer0
10
22.2735011
20
-12.301955
11
22.137037
21
-12.1653715
0
LINE
8
layer0
10
22.137037
20
-12.1653715
11
22.0208284
21
-12.0388574
0
LINE
8
layer0
10
22.0208284
20
-12.0388574
11
21.9261676
21
-11.9267526
0
LINE
8
layer0
10
21.9261676
20
-11.9267526
11
21.8480385
21
-11.8259768
0
LINE
8
layer0
10
21.8480385
20
-11.8259768
11
21.7439011
21
-11.6735089
0
LINE
8
layer0
10
21.7439011
20
-11.6735089
11
21.6955896
21
-11.5887828
0
LINE
8
layer0
10
21.6955896
20
-11.5887828
11
21.6065033
21
-11.3983155
0
LINE
8
layer0
10
21.6065033
20
-11.3983155
11
21.5185522
21
-11.2473098
0
LINE
8
layer0
10
21.5185522
20
-11.2473098
11
21.4279034
21
-11.1235393
0
LINE
8
layer0
10
21.4279034
20
-11.1235393
11
21.3366774
21
-11.0269238
0
LINE
8
layer0
10
21.3366774
20
-11.0269238
11
21.2914945
21
-10.9887448
0
LINE
8
layer0
10
21.2914945
20
-10.9887448
11
21.2469689
21
-10.9572543
0
LINE
8
layer0
10
21.2469689
20
-10.9572543
11
21.2033338
21
-10.9324207
0
LINE
8
layer0
10
21.2033338
20
-10.9324207
11
21.1608695
21
-10.9141953
0
LINE
8
layer0
10
21.1608695
20
-10.9141953
11
21.1198141
21
-10.9025018
0
LINE
8
layer0
10
21.1198141
20
-10.9025018
11
21.0804318
21
-10.8972762
0
LINE
8
layer0
10
21.0804318
20
-10.8972762
11
21.0429831
21
-10.8984449
0
LINE
8
layer0
10
21.0429831
20
-10.8984449
11
20.9909567
21
-10.9119856
0
LINE
8
layer0
10
20.9909567
20
-10.9119856
11
20.5358377
21
-11.0883729
0
LINE
8
layer0
10
20.5358377
20
-11.0883729
11
20.0738167
21
-11.2457973
0
LINE
8
layer0
10
20.0738167
20
-11.2457973
11
20.0252584
21
-11.2688664
0
LINE
8
layer0
10
20.0252584
20
-11.2688664
11
19.9958198
21
-11.2920427
0
LINE
8
layer0
10
19.9958198
20
-11.2920427
11
19.9690102
21
-11.3213602
0
LINE
8
layer0
10
19.9690102
20
-11.3213602
11
19.9450763
21
-11.3567078
0
LINE
8
layer0
10
19.9450763
20
-11.3567078
11
19.9242618
21
-11.3979649
0
LINE
8
layer0
10
19.9242618
20
-11.3979649
11
19.9067981
21
-11.4450366
0
LINE
8
layer0
10
19.9067981
20
-11.4450366
11
19.8929312
21
-11.4977802
0
LINE
8
layer0
10
19.8929312
20
-11.4977802
11
19.8828601
21
-11.55607
0
LINE
8
layer0
10
19.8828601
20
-11.55607
11
19.8750802
21
-11.6887207
0
LINE
8
layer0
10
19.8750802
20
-11.6887207
11
19.8851973
21
-11.8418024
0
LINE
8
layer0
10
19.8851973
20
-11.8418024
11
19.9148875
21
-12.0140134
0
LINE
8
layer0
10
19.9148875
20
-12.0140134
11
19.9690735
21
-12.2171833
0
LINE
8
layer0
10
19.9690735
20
-12.2171833
11
19.9865256
21
-12.3131413
0
LINE
8
layer0
10
19.9865256
20
-12.3131413
11
20.0047562
21
-12.4968767
0
LINE
8
layer0
10
20.0047562
20
-12.4968767
11
20.0096833
21
-12.6242958
0
LINE
8
layer0
10
20.0096833
20
-12.6242958
11
20.0092284
21
-12.7710199
0
LINE
8
layer0
10
20.0092284
20
-12.7710199
11
20.0015292
21
-12.9426328
0
LINE
8
layer0
10
20.0015292
20
-12.9426328
11
19.9847858
21
-13.1349792
0
LINE
8
layer0
10
19.9847858
20
-13.1349792
11
19.9571573
21
-13.3485273
0
LINE
8
layer0
10
19.9571573
20
-13.3485273
11
19.9170388
21
-13.5816156
0
LINE
8
layer0
10
19.9170388
20
-13.5816156
11
19.8619883
21
-13.8369207
0
LINE
8
layer0
10
19.8619883
20
-13.8369207
11
19.7912577
21
-14.1090536
0
LINE
8
layer0
10
19.7912577
20
-14.1090536
11
19.7024561
21
-14.4001296
0
LINE
8
layer0
10
19.7024561
20
-14.4001296
11
19.6063893
21
-14.674793
0
ARC
8
layer0
10
16.4999957
20
0.0000262
40
15
50
278.0479539
51
281.9520433
0
LINE
8
layer0
10
18.6000237
20
-14.8522424
11
18.41581
21
-14.627
0
LINE
8
layer0
10
18.41581
20
-14.627
11
18.23281
21
-14.38385
0
LINE
8
layer0
10
18.23281
20
-14.38385
11
18.07327
21
-14.15232
0
LINE
8
layer0
10
18.07327
20
-14.15232
11
17.93422
21
-13.93124
0
LINE
8
layer0
10
17.93422
20
-13.93124
11
17.8168
21
-13.72593
0
LINE
8
layer0
10
17.8168
20
-13.72593
11
17.7178
21
-13.53471
0
LINE
8
layer0
10
17.7178
20
-13.53471
11
17.63628
21
-13.35969
0
LINE
8
layer0
10
17.63628
20
-13.35969
11
17.57035
21
-13.20106
0
LINE
8
layer0
10
17.57035
20
-13.20106
11
17.51974
21
-13.06334
0
LINE
8
layer0
10
17.51974
20
-13.06334
11
17.48079
21
-12.94192
0
LINE
8
layer0
10
17.48079
20
-12.94192
11
17.43508
21
-12.76303
0
LINE
8
layer0
10
17.43508
20
-12.76303
11
17.41866
21
-12.66689
0
LINE
8
layer0
10
17.41866
20
-12.66689
11
17.40009
21
-12.45744
0
LINE
8
layer0
10
17.40009
20
-12.45744
11
17.36909
21
-12.28546
0
LINE
8
layer0
10
17.36909
20
-12.28546
11
17.32624
21
-12.13815
0
LINE
8
layer0
10
17.32624
20
-12.13815
11
17.27356
21
-12.01616
0
LINE
8
layer0
10
17.27356
20
-12.01616
11
17.24416
21
-11.96483
0
LINE
8
layer0
10
17.24416
20
-11.96483
11
17.21309
21
-11.92001
0
LINE
8
layer0
10
17.21309
20
-11.92001
11
17.18058
21
-11.88175
0
LINE
8
layer0
10
17.18058
20
-11.88175
11
17.14691
21
-11.8501
0
LINE
8
layer0
10
17.14691
20
-11.8501
11
17.11233
21
-11.82507
0
LINE
8
layer0
10
17.11233
20
-11.82507
11
17.07711
21
-11.80669
0
LINE
8
layer0
10
17.07711
20
-11.80669
11
17.04152
21
-11.79498
0
LINE
8
layer0
10
17.04152
20
-11.79498
11
16.988
21
-11.78991
0
LINE
8
layer0
10
16.988
20
-11.78991
11
16.5
21
-11.8
0
LINE
8
layer0
10
16.5
20
-11.8
11
16.012
21
-11.78991
0
LINE
8
layer0
10
16.012
20
-11.78991
11
15.95848
21
-11.79498
0
LINE
8
layer0
10
15.95848
20
-11.79498
11
15.92289
21
-11.80669
0
LINE
8
layer0
10
15.92289
20
-11.80669
11
15.88767
21
-11.82507
0
LINE
8
layer0
10
15.88767
20
-11.82507
11
15.85309
21
-11.8501
0
LINE
8
layer0
10
15.85309
20
-11.8501
11
15.81942
21
-11.88175
0
LINE
8
layer0
10
15.81942
20
-11.88175
11
15.78691
21
-11.92001
0
LINE
8
layer0
10
15.78691
20
-11.92001
11
15.75584
21
-11.96483
0
LINE
8
layer0
10
15.75584
20
-11.96483
11
15.72644
21
-12.01616
0
LINE
8
layer0
10
15.72644
20
-12.01616
11
15.67376
21
-12.13815
0
LINE
8
layer0
10
15.67376
20
-12.13815
11
15.63091
21
-12.28546
0
LINE
8
layer0
10
15.63091
20
-12.28546
11
15.59991
21
-12.45744
0
LINE
8
layer0
10
15.59991
20
-12.45744
11
15.58134
21
-12.66689
0
LINE
8
layer0
10
15.58134
20
-12.66689
11
15.56492
21
-12.76303
0
LINE
8
layer0
10
15.56492
20
-12.76303
11
15.51921
21
-12.94192
0
LINE
8
layer0
10
15.51921
20
-12.94192
11
15.48026
21
-13.06334
0
LINE
8
layer0
10
15.48026
20
-13.06334
11
15.42965
21
-13.20106
0
LINE
8
layer0
10
15.42965
20
-13.20106
11
15.36372
21
-13.35969
0
LINE
8
layer0
10
15.36372
20
-13.35969
11
15.2822
21
-13.53471
0
LINE
8
layer0
10
15.2822
20
-13.53471
11
15.1832
21
-13.72593
0
LINE
8
layer0
10
15.1832
20
-13.72593
11
15.06578
21
-13.93124
0
LINE
8
layer0
10
15.06578
20
-13.93124
11
14.92673
21
-14.15232
0
LINE
8
layer0
10
14.92673
20
-14.15232
11
14.76719
21
-14.38385
0
LINE
8
layer0
10
14.76719
20
-14.38385
11
14.58419
21
-14.627
0
LINE
8
layer0
10
14.58419
20
-14.627
11
14.3999763
21
-14.8522424
0
ARC
8
layer0
10
16.5000042
20
0.0000262
40
15
50
258.0479567
51
261.9520461
0
LINE
8
layer0
10
13.3936107
20
-14.674793
11
13.2975439
21
-14.4001296
0
LINE
8
layer0
10
13.2975439
20
-14.4001296
11
13.2087423
21
-14.1090536
0
LINE
8
layer0
10
13.2087423
20
-14.1090536
11
13.1380117
21
-13.8369207
0
LINE
8
layer0
10
13.1380117
20
-13.8369207
11
13.0829612
21
-13.5816156
0
LINE
8
layer0
10
13.0829612
20
-13.5816156
11
13.0428427
21
-13.3485273
0
LINE
8
layer0
10
13.0428427
20
-13.3485273
11
13.0152142
21
-13.1349792
0
LINE
8
layer0
10
13.0152142
20
-13.1349792
11
12.9984708
21
-12.9426328
0
LINE
8
layer0
10
12.9984708
20
-12.9426328
11
12.9907716
21
-12.7710199
0
LINE
8
layer0
10
12.9907716
20
-12.7710199
11
12.9903167
21
-12.6242958
0
LINE
8
layer0
10
12.9903167
20
-12.6242958
11
12.9952438
21
-12.4968767
0
LINE
8
layer0
10
12.9952438
20
-12.4968767
11
13.0134744
21
-12.3131413
0
LINE
8
layer0
10
13.0134744
20
-12.3131413
11
13.0309265
21
-12.2171833
0
LINE
8
layer0
10
13.0309265
20
-12.2171833
11
13.0851125
21
-12.0140134
0
LINE
8
layer0
10
13.0851125
20
-12.0140134
11
13.1148027
21
-11.8418024
0
LINE
8
layer0
10
13.1148027
20
-11.8418024
11
13.1249198
21
-11.6887207
0
LINE
8
layer0
10
13.1249198
20
-11.6887207
11
13.1171399
21
-11.55607
0
LINE
8
layer0
10
13.1171399
20
-11.55607
11
13.1070688
21
-11.4977802
0
LINE
8
layer0
10
13.1070688
20
-11.4977802
11
13.0932019
21
-11.4450366
0
LINE
8
layer0
10
13.0932019
20
-11.4450366
11
13.0757382
21
-11.3979649
0
LINE
8
layer0
10
13.0757382
20
-11.3979649
11
13.0549237
21
-11.3567078
0
LINE
8
layer0
10
13.0549237
20
-11.3567078
11
13.0309898
21
-11.3213602
0
LINE
8
layer0
10
13.0309898
20
-11.3213602
11
13.0041802
21
-11.2920427
0
LINE
8
layer0
10
13.0041802
20
-11.2920427
11
12.9747416
21
-11.2688664
0
LINE
8
layer0
10
12.9747416
20
-11.2688664
11
12.9261833
21
-11.2457973
0
LINE
8
layer0
10
12.9261833
20
-11.2457973
11
12.4641623
21
-11.0883729
0
LINE
8
layer0
10
12.4641623
20
-11.0883729
11
12.0090433
21
-10.9119856
0
LINE
8
layer0
10
12.0090433
20
-10.9119856
11
11.9570169
21
-10.8984449
0
LINE
8
layer0
10
11.9570169
20
-10.8984449
11
11.9195682
21
-10.8972762
0
LINE
8
layer0
10
11.9195682
20
-10.8972762
11
11.8801859
21
-10.9025018
0
LINE
8
layer0
10
11.8801859
20
-10.9025018
11
11.8391305
21
-10.9141953
0
LINE
8
layer0
10
11.8391305
20
-10.9141953
11
11.7966662
21
-10.9324207
0
LINE
8
layer0
10
11.7966662
20
-10.9324207
11
11.7530311
21
-10.9572543
0
LINE
8
layer0
10
11.7530311
20
-10.9572543
11
11.7085055
21
-10.9887448
0
LINE
8
layer0
10
11.7085055
20
-10.9887448
11
11.6633226
21
-11.0269238
0
LINE
8
layer0
10
11.6633226
20
-11.0269238
11
11.5720966
21
-11.1235393
0
LINE
8
layer0
10
11.5720966
20
-11.1235393
11
11.4814478
21
-11.2473098
0
LINE
8
layer0
10
11.4814478
20
-11.2473098
11
11.3934967
21
-11.3983155
0
LINE
8
layer0
10
11.3934967
20
-11.3983155
11
11.3044104
21
-11.5887828
0
LINE
8
layer0
10
11.3044104
20
-11.5887828
11
11.2560989
21
-11.6735089
0
LINE
8
layer0
10
11.2560989
20
-11.6735089
11
11.1519615
21
-11.8259768
0
LINE
8
layer0
10
11.1519615
20
-11.8259768
11
11.0738324
21
-11.9267526
0
LINE
8
layer0
10
11.0738324
20
-11.9267526
11
10.9791716
21
-12.0388574
0
LINE
8
layer0
10
10.9791716
20
-12.0388574
11
10.862963
21
-12.1653715
0
LINE
8
layer0
10
10.862963
20
-12.1653715
11
10.7264989
21
-12.301955
0
LINE
8
layer0
10
10.7264989
20
-12.301955
11
10.5680682
21
-12.447783
0
LINE
8
layer0
10
10.5680682
20
-12.447783
11
10.3875093
21
-12.6005513
0
LINE
8
layer0
10
10.3875093
20
-12.6005513
11
10.1812313
21
-12.7607406
0
LINE
8
layer0
10
10.1812313
20
-12.7607406
11
9.9521248
21
-12.9237418
0
LINE
8
layer0
10
9.9521248
20
-12.9237418
11
9.6969988
21
-13.0896384
0
LINE
8
layer0
10
9.6969988
20
-13.0896384
11
9.4468572
21
-13.2382922
0
ARC
8
layer0
10
16.500013
20
0.0000232
40
15
50
238.0479568
51
241.952046
0
LINE
8
layer0
10
8.5618741
20
-12.727347
11
8.5655412
21
-12.436391
0
LINE
8
layer0
10
8.5655412
20
-12.436391
11
8.5816489
21
-12.1324972
0
LINE
8
layer0
10
8.5816489
20
-12.1324972
11
8.6082588
21
-11.8525846
0
LINE
8
layer0
10
8.6082588
20
-11.8525846
11
8.6438478
21
-11.5938478
0
LINE
8
layer0
10
8.6438478
20
-11.5938478
11
8.6858696
21
-11.3610951
0
LINE
8
layer0
10
8.6858696
20
-11.3610951
11
8.732945
21
-11.1509761
0
LINE
8
layer0
10
8.732945
20
-11.1509761
11
8.7829978
21
-10.964503
0
LINE
8
layer0
10
8.7829978
20
-10.964503
11
8.8344579
21
-10.8006064
0
LINE
8
layer0
10
8.8344579
20
-10.8006064
11
8.8842131
21
-10.6625753
0
LINE
8
layer0
10
8.8842131
20
-10.6625753
11
8.9324229
21
-10.5445256
0
LINE
8
layer0
10
8.9324229
20
-10.5445256
11
9.0123953
21
-10.378106
0
LINE
8
layer0
10
9.0123953
20
-10.378106
11
9.0616144
21
-10.293904
0
LINE
8
layer0
10
9.0616144
20
-10.293904
11
9.1820209
21
-10.1215194
0
LINE
8
layer0
10
9.1820209
20
-10.1215194
11
9.2688201
21
-9.9698486
0
LINE
8
layer0
10
9.2688201
20
-9.9698486
11
9.3306841
21
-9.8294592
0
LINE
8
layer0
10
9.3306841
20
-9.8294592
11
9.3687426
21
-9.7021474
0
LINE
8
layer0
10
9.3687426
20
-9.7021474
11
9.3792152
21
-9.6439284
0
LINE
8
layer0
10
9.3792152
20
-9.6439284
11
9.3842239
21
-9.5896228
0
LINE
8
layer0
10
9.3842239
20
-9.5896228
11
9.3839128
21
-9.539417
0
LINE
8
layer0
10
9.3839128
20
-9.539417
11
9.3784644
21
-9.493529
0
LINE
8
layer0
10
9.3784644
20
-9.493529
11
9.3680635
21
-9.4521273
0
LINE
8
layer0
10
9.3680635
20
-9.4521273
11
9.3528979
21
-9.4154084
0
LINE
8
layer0
10
9.3528979
20
-9.4154084
11
9.3331614
21
-9.3835612
0
LINE
8
layer0
10
9.3331614
20
-9.3835612
11
9.2954216
21
-9.3452754
0
LINE
8
layer0
10
9.2954216
20
-9.3452754
11
8.9151062
21
-9.0393244
0
LINE
8
layer0
10
8.9151062
20
-9.0393244
11
8.5477622
21
-8.7179147
0
LINE
8
layer0
10
8.5477622
20
-8.7179147
11
8.5035046
21
-8.6873965
0
LINE
8
layer0
10
8.5035046
20
-8.6873965
11
8.468714
21
-8.6734901
0
LINE
8
layer0
10
8.468714
20
-8.6734901
11
8.4299195
21
-8.664931
0
LINE
8
layer0
10
8.4299195
20
-8.664931
11
8.3873407
21
-8.6618775
0
LINE
8
layer0
10
8.3873407
20
-8.6618775
11
8.3412038
21
-8.6644802
0
LINE
8
layer0
10
8.3412038
20
-8.6644802
11
8.2917066
21
-8.672892
0
LINE
8
layer0
10
8.2917066
20
-8.672892
11
8.2390959
21
-8.6872547
0
LINE
8
layer0
10
8.2390959
20
-8.6872547
11
8.1835799
21
-8.7076778
0
LINE
8
layer0
10
8.1835799
20
-8.7076778
11
8.064811
21
-8.7672655
0
LINE
8
layer0
10
8.064811
20
-8.7672655
11
7.937297
21
-8.8525681
0
LINE
8
layer0
10
7.937297
20
-8.8525681
11
7.803003
21
-8.964386
0
LINE
8
layer0
10
7.803003
20
-8.964386
11
7.6541457
21
-9.1128974
0
LINE
8
layer0
10
7.6541457
20
-9.1128974
11
7.5797696
21
-9.1759904
0
LINE
8
layer0
10
7.5797696
20
-9.1759904
11
7.4297654
21
-9.2836462
0
LINE
8
layer0
10
7.4297654
20
-9.2836462
11
7.3218807
21
-9.3516228
0
LINE
8
layer0
10
7.3218807
20
-9.3516228
11
7.1945865
21
-9.4245909
0
LINE
8
layer0
10
7.1945865
20
-9.4245909
11
7.0421158
21
-9.5037296
0
LINE
8
layer0
10
7.0421158
20
-9.5037296
11
6.8671672
21
-9.5854026
0
LINE
8
layer0
10
6.8671672
20
-9.5854026
11
6.6684149
21
-9.6682497
0
LINE
8
layer0
10
6.6684149
20
-9.6682497
11
6.4464953
21
-9.7500501
0
LINE
8
layer0
10
6.4464953
20
-9.7500501
11
6.1978693
21
-9.8300276
0
LINE
8
layer0
10
6.1978693
20
-9.8300276
11
5.92683
21
-9.9048396
0
LINE
8
layer0
10
5.92683
20
-9.9048396
11
5.63035
21
-9.9734731
0
LINE
8
layer0
10
5.63035
20
-9.9734731
11
5.3444511
21
-10.0276086
0
ARC
8
layer0
10
16.5000205
20
0.0000168
40
15
50
218.0479543
51
221.9520435
0
LINE
8
layer0
10
4.6875926
20
-9.2447951
11
4.7905514
21
-8.9726401
0
LINE
8
layer0
10
4.7905514
20
-8.9726401
11
4.9096255
21
-8.6925825
0
LINE
8
layer0
10
4.9096255
20
-8.6925825
11
5.0303664
21
-8.4386518
0
LINE
8
layer0
10
5.0303664
20
-8.4386518
11
5.1523023
21
-8.207691
0
LINE
8
layer0
10
5.1523023
20
-8.207691
11
5.2713959
21
-8.0033473
0
LINE
8
layer0
10
5.2713959
20
-8.0033473
11
5.3874973
21
-7.8220007
0
LINE
8
layer0
10
5.3874973
20
-7.8220007
11
5.4983091
21
-7.6638923
0
LINE
8
layer0
10
5.4983091
20
-7.6638923
11
5.6027217
21
-7.5274803
0
LINE
8
layer0
10
5.6027217
20
-7.5274803
11
5.6966857
21
-7.4147907
0
LINE
8
layer0
10
5.6966857
20
-7.4147907
11
5.7823635
21
-7.3203491
0
LINE
8
layer0
10
5.7823635
20
-7.3203491
11
5.9144318
21
-7.191318
0
LINE
8
layer0
10
5.9144318
20
-7.191318
11
5.9894815
21
-7.1290279
0
LINE
8
layer0
10
5.9894815
20
-7.1290279
11
6.1615855
21
-7.0082208
0
LINE
8
layer0
10
6.1615855
20
-7.0082208
11
6.2950245
21
-6.895384
0
LINE
8
layer0
10
6.2950245
20
-6.895384
11
6.4011737
21
-6.7846198
0
LINE
8
layer0
10
6.4011737
20
-6.7846198
11
6.4804802
21
-6.6780026
0
LINE
8
layer0
10
6.4804802
20
-6.6780026
11
6.5102333
21
-6.6268765
0
LINE
8
layer0
10
6.5102333
20
-6.6268765
11
6.5335135
21
-6.5775591
0
LINE
8
layer0
10
6.5335135
20
-6.5775591
11
6.5503927
21
-6.5302746
0
LINE
8
layer0
10
6.5503927
20
-6.5302746
11
6.5609674
21
-6.4852905
0
LINE
8
layer0
10
6.5609674
20
-6.4852905
11
6.565354
21
-6.4428283
0
LINE
8
layer0
10
6.565354
20
-6.4428283
11
6.5636615
21
-6.4031369
0
LINE
8
layer0
10
6.5636615
20
-6.4031369
11
6.5560077
21
-6.3664601
0
LINE
8
layer0
10
6.5560077
20
-6.3664601
11
6.5336384
21
-6.3175754
0
LINE
8
layer0
10
6.5336384
20
-6.3175754
11
6.2809002
21
-5.9
0
LINE
8
layer0
10
6.2809002
20
-5.9
11
6.0456384
21
-5.4723346
0
LINE
8
layer0
10
6.0456384
20
-5.4723346
11
6.0144877
21
-5.4285199
0
LINE
8
layer0
10
6.0144877
20
-5.4285199
11
5.9865515
21
-5.4035531
0
LINE
8
layer0
10
5.9865515
20
-5.4035531
11
5.953024
21
-5.3822417
0
LINE
8
layer0
10
5.953024
20
-5.3822417
11
5.9140574
21
-5.3648095
0
LINE
8
layer0
10
5.9140574
20
-5.3648095
11
5.8698127
21
-5.3514754
0
LINE
8
layer0
10
5.8698127
20
-5.3514754
11
5.8204235
21
-5.3424509
0
LINE
8
layer0
10
5.8204235
20
-5.3424509
11
5.7660733
21
-5.3379535
0
LINE
8
layer0
10
5.7660733
20
-5.3379535
11
5.7069202
21
-5.3381574
0
LINE
8
layer0
10
5.7069202
20
-5.3381574
11
5.5749337
21
-5.3535302
0
LINE
8
layer0
10
5.5749337
20
-5.3535302
11
5.4259345
21
-5.390076
0
LINE
8
layer0
10
5.4259345
20
-5.390076
11
5.2614955
21
-5.4492192
0
LINE
8
layer0
10
5.2614955
20
-5.4492192
11
5.0708215
21
-5.5378621
0
LINE
8
layer0
10
5.0708215
20
-5.5378621
11
4.9793518
21
-5.571712
0
LINE
8
layer0
10
4.9793518
20
-5.571712
11
4.8015735
21
-5.6215709
0
LINE
8
layer0
10
4.8015735
20
-5.6215709
11
4.6769457
21
-5.6485493
0
LINE
8
layer0
10
4.6769457
20
-5.6485493
11
4.5323717
21
-5.6735797
0
LINE
8
layer0
10
4.5323717
20
-5.6735797
11
4.3620291
21
-5.6957977
0
LINE
8
layer0
10
4.3620291
20
-5.6957977
11
4.1696973
21
-5.7127093
0
LINE
8
layer0
10
4.1696973
20
-5.7127093
11
3.9545959
21
-5.7225827
0
LINE
8
layer0
10
3.9545959
20
-5.7225827
11
3.7180823
21
-5.723549
0
LINE
8
layer0
10
3.7180823
20
-5.723549
11
3.4570964
21
-5.7136682
0
LINE
8
layer0
10
3.4570964
20
-5.7136682
11
3.1768155
21
-5.6912675
0
LINE
8
layer0
10
3.1768155
20
-5.6912675
11
2.8747414
21
-5.6543599
0
LINE
8
layer0
10
2.8747414
20
-5.6543599
11
2.5875689
21
-5.6074474
0
ARC
8
layer0
10
16.500025
20
0.0000088
40
15
50
198.0479545
51
201.9520437
0
LINE
8
layer0
10
2.2380618
20
-4.6471844
11
2.4278939
21
-4.4266564
0
LINE
8
layer0
10
2.4278939
20
-4.4266564
11
2.6355723
21
-4.2042141
0
LINE
8
layer0
10
2.6355723
20
-4.2042141
11
2.835881
21
-4.0068931
0
LINE
8
layer0
10
2.835881
20
-4.0068931
11
3.0294565
21
-3.8315654
0
LINE
8
layer0
10
3.0294565
20
-3.8315654
11
3.2112576
21
-3.6802776
0
LINE
8
layer0
10
3.2112576
20
-3.6802776
11
3.3823814
21
-3.5495766
0
LINE
8
layer0
10
3.3823814
20
-3.5495766
11
3.5405867
21
-3.4389032
0
LINE
8
layer0
10
3.5405867
20
-3.4389032
11
3.6853581
21
-3.346429
0
LINE
8
layer0
10
3.6853581
20
-3.346429
11
3.8121975
21
-3.272673
0
LINE
8
layer0
10
3.8121975
20
-3.272673
11
3.9250092
21
-3.2132304
0
LINE
8
layer0
10
3.9250092
20
-3.2132304
11
4.093244
21
-3.1371509
0
LINE
8
layer0
10
4.093244
20
-3.1371509
11
4.1850722
21
-3.1042859
0
LINE
8
layer0
10
4.1850722
20
-3.1042859
11
4.3881155
21
-3.0496274
0
LINE
8
layer0
10
4.3881155
20
-3.0496274
11
4.5520996
21
-2.9892343
0
LINE
8
layer0
10
4.5520996
20
-2.9892343
11
4.6897308
21
-2.9214552
0
LINE
8
layer0
10
4.6897308
20
-2.9214552
11
4.8007198
21
-2.8483922
0
LINE
8
layer0
10
4.8007198
20
-2.8483922
11
4.8461647
21
-2.8105255
0
LINE
8
layer0
10
4.8461647
20
-2.8105255
11
4.8849085
21
-2.7721446
0
LINE
8
layer0
10
4.8849085
20
-2.7721446
11
4.916942
21
-2.7334847
0
LINE
8
layer0
10
4.916942
20
-2.7334847
11
4.9422644
21
-2.6948303
0
LINE
8
layer0
10
4.9422644
20
-2.6948303
11
4.9609094
21
-2.6564292
0
LINE
8
layer0
10
4.9609094
20
-2.6564292
11
4.9728943
21
-2.6185526
0
LINE
8
layer0
10
4.9728943
20
-2.6185526
11
4.9782462
21
-2.5814699
0
LINE
8
layer0
10
4.9782462
20
-2.5814699
11
4.9739455
21
-2.5278826
0
LINE
8
layer0
10
4.9739455
20
-2.5278826
11
4.8792685
21
-2.0490485
0
LINE
8
layer0
10
4.8792685
20
-2.0490485
11
4.8044649
21
-1.5667102
0
LINE
8
layer0
10
4.8044649
20
-1.5667102
11
4.7901783
21
-1.5148837
0
LINE
8
layer0
10
4.7901783
20
-1.5148837
11
4.7724661
21
-1.4818678
0
LINE
8
layer0
10
4.7724661
20
-1.4818678
11
4.7482494
21
-1.4503745
0
LINE
8
layer0
10
4.7482494
20
-1.4503745
11
4.7175949
21
-1.4206663
0
LINE
8
layer0
10
4.7175949
20
-1.4206663
11
4.680579
21
-1.3930038
0
LINE
8
layer0
10
4.680579
20
-1.3930038
11
4.637255
21
-1.3676315
0
LINE
8
layer0
10
4.637255
20
-1.3676315
11
4.5877206
21
-1.3448164
0
LINE
8
layer0
10
4.5877206
20
-1.3448164
11
4.5320652
21
-1.3247764
0
LINE
8
layer0
10
4.5320652
20
-1.3247764
11
4.4027807
21
-1.2940801
0
LINE
8
layer0
10
4.4027807
20
-1.2940801
11
4.2502678
21
-1.2774612
0
LINE
8
layer0
10
4.2502678
20
-1.2774612
11
4.0755175
21
-1.2767961
0
LINE
8
layer0
10
4.0755175
20
-1.2767961
11
3.8660249
21
-1.2948789
0
LINE
8
layer0
10
3.8660249
20
-1.2948789
11
3.7684942
21
-1.2954029
0
LINE
8
layer0
10
3.7684942
20
-1.2954029
11
3.5843844
21
-1.2814512
0
LINE
8
layer0
10
3.5843844
20
-1.2814512
11
3.4580455
21
-1.2641773
0
LINE
8
layer0
10
3.4580455
20
-1.2641773
11
3.3136294
21
-1.238251
0
LINE
8
layer0
10
3.3136294
20
-1.238251
11
3.1459608
21
-1.2008685
0
LINE
8
layer0
10
3.1459608
20
-1.2008685
11
2.9594439
21
-1.1509788
0
LINE
8
layer0
10
2.9594439
20
-1.1509788
11
2.7539378
21
-1.0866879
0
LINE
8
layer0
10
2.7539378
20
-1.0866879
11
2.5313571
21
-1.0067035
0
LINE
8
layer0
10
2.5313571
20
-1.0067035
11
2.2894901
21
-0.9081561
0
LINE
8
layer0
10
2.2894901
20
-0.9081561
11
2.0337737
21
-0.7912446
0
LINE
8
layer0
10
2.0337737
20
-0.7912446
11
1.7625401
21
-0.6532474
0
LINE
8
layer0
10
1.7625401
20
-0.6532474
11
1.5087312
21
-0.5109452
0
ARC
8
layer0
10
16.5000265
20
1e-7
40
15
50
178.0479555
51
181.9520449
0
LINE
8
layer0
10
1.5087312
20
0.5109452
11
1.7625401
21
0.6532474
0
LINE
8
layer0
10
1.7625401
20
0.6532474
11
2.0337737
21
0.7912446
0
LINE
8
layer0
10
2.0337737
20
0.7912446
11
2.2894901
21
0.9081561
0
LINE
8
layer0
10
2.2894901
20
0.9081561
11
2.5313571
21
1.0067035
0
LINE
8
layer0
10
2.5313571
20
1.0067035
11
2.7539378
21
1.0866879
0
LINE
8
layer0
10
2.7539378
20
1.0866879
11
2.9594439
21
1.1509788
0
LINE
8
layer0
10
2.9594439
20
1.1509788
11
3.1459608
21
1.2008685
0
LINE
8
layer0
10
3.1459608
20
1.2008685
11
3.3136294
21
1.238251
0
LINE
8
layer0
10
3.3136294
20
1.238251
11
3.4580455
21
1.2641773
0
LINE
8
layer0
10
3.4580455
20
1.2641773
11
3.5843844
21
1.2814512
0
LINE
8
layer0
10
3.5843844
20
1.2814512
11
3.7684942
21
1.2954029
0
LINE
8
layer0
10
3.7684942
20
1.2954029
11
3.8660249
21
1.2948789
0
LINE
8
layer0
10
3.8660249
20
1.2948789
11
4.0755175
21
1.2767961
0
LINE
8
layer0
10
4.0755175
20
1.2767961
11
4.2502678
21
1.2774612
0
LINE
8
layer0
10
4.2502678
20
1.2774612
11
4.4027807
21
1.2940801
0
LINE
8
layer0
10
4.4027807
20
1.2940801
11
4.5320652
21
1.3247764
0
LINE
8
layer0
10
4.5320652
20
1.3247764
11
4.5877206
21
1.3448164
0
LINE
8
layer0
10
4.5877206
20
1.3448164
11
4.637255
21
1.3676315
0
LINE
8
layer0
10
4.637255
20
1.3676315
11
4.680579
21
1.3930038
0
LINE
8
layer0
10
4.680579
20
1.3930038
11
4.7175949
21
1.4206663
0
LINE
8
layer0
10
4.7175949
20
1.4206663
11
4.7482494
21
1.4503745
0
LINE
8
layer0
10
4.7482494
20
1.4503745
11
4.7724661
21
1.4818678
0
LINE
8
layer0
10
4.7724661
20
1.4818678
11
4.7901783
21
1.5148837
0
LINE
8
layer0
10
4.7901783
20
1.5148837
11
4.8044649
21
1.5667102
0
LINE
8
layer0
10
4.8044649
20
1.5667102
11
4.8792685
21
2.0490485
0
LINE
8
layer0
10
4.8792685
20
2.0490485
11
4.9739455
21
2.5278826
0
LINE
8
layer0
10
4.9739455
20
2.5278826
11
4.9782462
21
2.5814699
0
LINE
8
layer0
10
4.9782462
20
2.5814699
11
4.9728943
21
2.6185526
0
LINE
8
layer0
10
4.9728943
20
2.6185526
11
4.9609094
21
2.6564292
0
LINE
8
layer0
10
4.9609094
20
2.6564292
11
4.9422644
21
2.6948303
0
LINE
8
layer0
10
4.9422644
20
2.6948303
11
4.916942
21
2.7334847
0
LINE
8
layer0
10
4.916942
20
2.7334847
11
4.8849085
21
2.7721446
0
LINE
8
layer0
10
4.8849085
20
2.7721446
11
4.8461647
21
2.8105255
0
LINE
8
layer0
10
4.8461647
20
2.8105255
11
4.8007198
21
2.8483922
0
LINE
8
layer0
10
4.8007198
20
2.8483922
11
4.6897308
21
2.9214552
0
LINE
8
layer0
10
4.6897308
20
2.9214552
11
4.5520996
21
2.9892343
0
LINE
8
layer0
10
4.5520996
20
2.9892343
11
4.3881155
21
3.0496274
0
LINE
8
layer0
10
4.3881155
20
3.0496274
11
4.1850722
21
3.1042859
0
LINE
8
layer0
10
4.1850722
20
3.1042859
11
4.093244
21
3.1371509
0
LINE
8
layer0
10
4.093244
20
3.1371509
11
3.9250092
21
3.2132304
0
LINE
8
layer0
10
3.9250092
20
3.2132304
11
3.8121975
21
3.272673
0
LINE
8
layer0
10
3.8121975
20
3.272673
11
3.6853581
21
3.346429
0
LINE
8
layer0
10
3.6853581
20
3.346429
11
3.5405867
21
3.4389032
0
LINE
8
layer0
10
3.5405867
20
3.4389032
11
3.3823814
21
3.5495766
0
LINE
8
layer0
10
3.3823814
20
3.5495766
11
3.2112576
21
3.6802776
0
LINE
8
layer0
10
3.2112576
20
3.6802776
11
3.0294565
21
3.8315654
0
LINE
8
layer0
10
3.0294565
20
3.8315654
11
2.835881
21
4.0068931
0
LINE
8
layer0
10
2.835881
20
4.0068931
11
2.6355723
21
4.2042141
0
LINE
8
layer0
10
2.6355723
20
4.2042141
11
2.4278939
21
4.4266564
0
LINE
8
layer0
10
2.4278939
20
4.4266564
11
2.2380618
21
4.6471844
0
ARC
8
layer0
10
16.500025
20
-0.000009
40
15
50
158.047956
51
161.9520451
0
LINE
8
layer0
10
2.5875689
20
5.6074474
11
2.8747414
21
5.6543599
0
LINE
8
layer0
10
2.8747414
20
5.6543599
11
3.1768155
21
5.6912675
0
LINE
8
layer0
10
3.1768155
20
5.6912675
11
3.4570964
21
5.7136682
0
LINE
8
layer0
10
3.4570964
20
5.7136682
11
3.7180823
21
5.723549
0
LINE
8
layer0
10
3.7180823
20
5.723549
11
3.9545959
21
5.7225827
0
LINE
8
layer0
10
3.9545959
20
5.7225827
11
4.1696973
21
5.7127093
0
LINE
8
layer0
10
4.1696973
20
5.7127093
11
4.3620291
21
5.6957977
0
LINE
8
layer0
10
4.3620291
20
5.6957977
11
4.5323717
21
5.6735797
0
LINE
8
layer0
10
4.5323717
20
5.6735797
11
4.6769457
21
5.6485493
0
LINE
8
layer0
10
4.6769457
20
5.6485493
11
4.8015735
21
5.6215709
0
LINE
8
layer0
10
4.8015735
20
5.6215709
11
4.9793518
21
5.571712
0
LINE
8
layer0
10
4.9793518
20
5.571712
11
5.0708215
21
5.5378621
0
LINE
8
layer0
10
5.0708215
20
5.5378621
11
5.2614955
21
5.4492192
0
LINE
8
layer0
10
5.2614955
20
5.4492192
11
5.4259345
21
5.390076
0
LINE
8
layer0
10
5.4259345
20
5.390076
11
5.5749337
21
5.3535302
0
LINE
8
layer0
10
5.5749337
20
5.3535302
11
5.7069202
21
5.3381574
0
LINE
8
layer0
10
5.7069202
20
5.3381574
11
5.7660733
21
5.3379535
0
LINE
8
layer0
10
5.7660733
20
5.3379535
11
5.8204235
21
5.3424509
0
LINE
8
layer0
10
5.8204235
20
5.3424509
11
5.8698127
21
5.3514754
0
LINE
8
layer0
10
5.8698127
20
5.3514754
11
5.9140574
21
5.3648095
0
LINE
8
layer0
10
5.9140574
20
5.3648095
11
5.953024
21
5.3822417
0
LINE
8
layer0
10
5.953024
20
5.3822417
11
5.9865515
21
5.4035531
0
LINE
8
layer0
10
5.9865515
20
5.4035531
11
6.0144877
21
5.4285199
0
LINE
8
layer0
10
6.0144877
20
5.4285199
11
6.0456384
21
5.4723346
0
LINE
8
layer0
10
6.0456384
20
5.4723346
11
6.2809002
21
5.9
0
LINE
8
layer0
10
6.2809002
20
5.9
11
6.5336384
21
6.3175754
0
LINE
8
layer0
10
6.5336384
20
6.3175754
11
6.5560077
21
6.3664601
0
LINE
8
layer0
10
6.5560077
20
6.3664601
11
6.5636615
21
6.4031369
0
LINE
8
layer0
10
6.5636615
20
6.4031369
11
6.565354
21
6.4428283
0
LINE
8
layer0
10
6.565354
20
6.4428283
11
6.5609674
21
6.4852905
0
LINE
8
layer0
10
6.5609674
20
6.4852905
11
6.5503927
21
6.5302746
0
LINE
8
layer0
10
6.5503927
20
6.5302746
11
6.5335135
21
6.5775591
0
LINE
8
layer0
10
6.5335135
20
6.5775591
11
6.5102333
21
6.6268765
0
LINE
8
layer0
10
6.5102333
20
6.6268765
11
6.4804802
21
6.6780026
0
LINE
8
layer0
10
6.4804802
20
6.6780026
11
6.4011737
21
6.7846198
0
LINE
8
layer0
10
6.4011737
20
6.7846198
11
6.2950245
21
6.895384
0
LINE
8
layer0
10
6.2950245
20
6.895384
11
6.1615855
21
7.0082208
0
LINE
8
layer0
10
6.1615855
20
7.0082208
11
5.9894815
21
7.1290279
0
LINE
8
layer0
10
5.9894815
20
7.1290279
11
5.9144318
21
7.191318
0
LINE
8
layer0
10
5.9144318
20
7.191318
11
5.7823635
21
7.3203491
0
LINE
8
layer0
10
5.7823635
20
7.3203491
11
5.6966857
21
7.4147907
0
LINE
8
layer0
10
5.6966857
20
7.4147907
11
5.6027217
21
7.5274803
0
LINE
8
layer0
10
5.6027217
20
7.5274803
11
5.4983091
21
7.6638923
0
LINE
8
layer0
10
5.4983091
20
7.6638923
11
5.3874973
21
7.8220007
0
LINE
8
layer0
10
5.3874973
20
7.8220007
11
5.2713959
21
8.0033473
0
LINE
8
layer0
10
5.2713959
20
8.0033473
11
5.1523023
21
8.207691
0
LINE
8
layer0
10
5.1523023
20
8.207691
11
5.0303664
21
8.4386518
0
LINE
8
layer0
10
5.0303664
20
8.4386518
11
4.9096255
21
8.6925825
0
LINE
8
layer0
10
4.9096255
20
8.6925825
11
4.7905514
21
8.9726401
0
LINE
8
layer0
10
4.7905514
20
8.9726401
11
4.6875926
21
9.2447951
0
ARC
8
layer0
10
16.5000204
20
-0.0000169
40
15
50
138.047956
51
141.9520452
0
LINE
8
layer0
10
5.3444511
20
10.0276086
11
5.63035
21
9.9734731
0
LINE
8
layer0
10
5.63035
20
9.9734731
11
5.92683
21
9.9048396
0
LINE
8
layer0
10
5.92683
20
9.9048396
11
6.1978693
21
9.8300276
0
LINE
8
layer0
10
6.1978693
20
9.8300276
11
6.4464953
21
9.7500501
0
LINE
8
layer0
10
6.4464953
20
9.7500501
11
6.6684149
21
9.6682497
0
LINE
8
layer0
10
6.6684149
20
9.6682497
11
6.8671672
21
9.5854026
0
LINE
8
layer0
10
6.8671672
20
9.5854026
11
7.0421158
21
9.5037296
0
LINE
8
layer0
10
7.0421158
20
9.5037296
11
7.1945865
21
9.4245909
0
LINE
8
layer0
10
7.1945865
20
9.4245909
11
7.3218807
21
9.3516228
0
LINE
8
layer0
10
7.3218807
20
9.3516228
11
7.4297654
21
9.2836462
0
LINE
8
layer0
10
7.4297654
20
9.2836462
11
7.5797696
21
9.1759904
0
LINE
8
layer0
10
7.5797696
20
9.1759904
11
7.6541457
21
9.1128974
0
LINE
8
layer0
10
7.6541457
20
9.1128974
11
7.803003
21
8.964386
0
LINE
8
layer0
10
7.803003
20
8.964386
11
7.937297
21
8.8525681
0
LINE
8
layer0
10
7.937297
20
8.8525681
11
8.064811
21
8.7672655
0
LINE
8
layer0
10
8.064811
20
8.7672655
11
8.1835799
21
8.7076778
0
LINE
8
layer0
10
8.1835799
20
8.7076778
11
8.2390959
21
8.6872547
0
LINE
8
layer0
10
8.2390959
20
8.6872547
11
8.2917066
21
8.672892
0
LINE
8
layer0
10
8.2917066
20
8.672892
11
8.3412038
21
8.6644802
0
LINE
8
layer0
10
8.3412038
20
8.6644802
11
8.3873407
21
8.6618775
0
LINE
8
layer0
10
8.3873407
20
8.6618775
11
8.4299195
21
8.664931
0
LINE
8
layer0
10
8.4299195
20
8.664931
11
8.468714
21
8.6734901
0
LINE
8
layer0
10
8.468714
20
8.6734901
11
8.5035046
21
8.6873965
0
LINE
8
layer0
10
8.5035046
20
8.6873965
11
8.5477622
21
8.7179147
0
LINE
8
layer0
10
8.5477622
20
8.7179147
11
8.9151062
21
9.0393244
0
LINE
8
layer0
10
8.9151062
20
9.0393244
11
9.2954216
21
9.3452754
0
LINE
8
layer0
10
9.2954216
20
9.3452754
11
9.3331614
21
9.3835612
0
LINE
8
layer0
10
9.3331614
20
9.3835612
11
9.3528979
21
9.4154084
0
LINE
8
layer0
10
9.3528979
20
9.4154084
11
9.3680635
21
9.4521273
0
LINE
8
layer0
10
9.3680635
20
9.4521273
11
9.3784644
21
9.493529
0
LINE
8
layer0
10
9.3784644
20
9.493529
11
9.3839128
21
9.539417
0
LINE
8
layer0
10
9.3839128
20
9.539417
11
9.3842239
21
9.5896228
0
LINE
8
layer0
10
9.3842239
20
9.5896228
11
9.3792152
21
9.6439284
0
LINE
8
layer0
10
9.3792152
20
9.6439284
11
9.3687426
21
9.7021474
0
LINE
8
layer0
10
9.3687426
20
9.7021474
11
9.3306841
21
9.8294592
0
LINE
8
layer0
10
9.3306841
20
9.8294592
11
9.2688201
21
9.9698486
0
LINE
8
layer0
10
9.2688201
20
9.9698486
11
9.1820209
21
10.1215194
0
LINE
8
layer0
10
9.1820209
20
10.1215194
11
9.0616144
21
10.293904
0
LINE
8
layer0
10
9.0616144
20
10.293904
11
9.0123953
21
10.378106
0
LINE
8
layer0
10
9.0123953
20
10.378106
11
8.9324229
21
10.5445256
0
LINE
8
layer0
10
8.9324229
20
10.5445256
11
8.8842131
21
10.6625753
0
LINE
8
layer0
10
8.8842131
20
10.6625753
11
8.8344579
21
10.8006064
0
LINE
8
layer0
10
8.8344579
20
10.8006064
11
8.7829978
21
10.964503
0
LINE
8
layer0
10
8.7829978
20
10.964503
11
8.732945
21
11.1509761
0
LINE
8
layer0
10
8.732945
20
11.1509761
11
8.6858696
21
11.3610951
0
LINE
8
layer0
10
8.6858696
20
11.3610951
11
8.6438478
21
11.5938478
0
LINE
8
layer0
10
8.6438478
20
11.5938478
11
8.6082588
21
11.8525846
0
LINE
8
layer0
10
8.6082588
20
11.8525846
11
8.5816489
21
12.1324972
0
LINE
8
layer0
10
8.5816489
20
12.1324972
11
8.5655412
21
12.436391
0
LINE
8
layer0
10
8.5655412
20
12.436391
11
8.5618741
21
12.727347
0
ARC
8
layer0
10
16.5000129
20
-0.0000232
40
15
50
118.0479536
51
121.9520428
0
LINE
8
layer0
10
9.4468572
20
13.2382922
11
9.6969988
21
13.0896384
0
LINE
8
layer0
10
9.6969988
20
13.0896384
11
9.9521248
21
12.9237418
0
LINE
8
layer0
10
9.9521248
20
12.9237418
11
10.1812313
21
12.7607406
0
LINE
8
layer0
10
10.1812313
20
12.7607406
11
10.3875093
21
12.6005513
0
LINE
8
layer0
10
10.3875093
20
12.6005513
11
10.5680682
21
12.447783
0
LINE
8
layer0
10
10.5680682
20
12.447783
11
10.7264989
21
12.301955
0
LINE
8
layer0
10
10.7264989
20
12.301955
11
10.862963
21
12.1653715
0
LINE
8
layer0
10
10.862963
20
12.1653715
11
10.9791716
21
12.0388574
0
LINE
8
layer0
10
10.9791716
20
12.0388574
11
11.0738324
21
11.9267526
0
LINE
8
layer0
10
11.0738324
20
11.9267526
11
11.1519615
21
11.8259768
0
LINE
8
layer0
10
11.1519615
20
11.8259768
11
11.2560989
21
11.6735089
0
LINE
8
layer0
10
11.2560989
20
11.6735089
11
11.3044104
21
11.5887828
0
LINE
8
layer0
10
11.3044104
20
11.5887828
11
11.3934967
21
11.3983155
0
LINE
8
layer0
10
11.3934967
20
11.3983155
11
11.4814478
21
11.2473098
0
LINE
8
layer0
10
11.4814478
20
11.2473098
11
11.5720966
21
11.1235393
0
LINE
8
layer0
10
11.5720966
20
11.1235393
11
11.6633226
21
11.0269238
0
LINE
8
layer0
10
11.6633226
20
11.0269238
11
11.7085055
21
10.9887448
0
LINE
8
layer0
10
11.7085055
20
10.9887448
11
11.7530311
21
10.9572543
0
LINE
8
layer0
10
11.7530311
20
10.9572543
11
11.7966662
21
10.9324207
0
LINE
8
layer0
10
11.7966662
20
10.9324207
11
11.8391305
21
10.9141953
0
LINE
8
layer0
10
11.8391305
20
10.9141953
11
11.8801859
21
10.9025018
0
LINE
8
layer0
10
11.8801859
20
10.9025018
11
11.9195682
21
10.8972762
0
LINE
8
layer0
10
11.9195682
20
10.8972762
11
11.9570169
21
10.8984449
0
LINE
8
layer0
10
11.9570169
20
10.8984449
11
12.0090433
21
10.9119856
0
LINE
8
layer0
10
12.0090433
20
10.9119856
11
12.4641623
21
11.0883729
0
LINE
8
layer0
10
12.4641623
20
11.0883729
11
12.9261833
21
11.2457973
0
LINE
8
layer0
10
12.9261833
20
11.2457973
11
12.9747416
21
11.2688664
0
LINE
8
layer0
10
12.9747416
20
11.2688664
11
13.0041802
21
11.2920427
0
LINE
8
layer0
10
13.0041802
20
11.2920427
11
13.0309898
21
11.3213602
0
LINE
8
layer0
10
13.0309898
20
11.3213602
11
13.0549237
21
11.3567078
0
LINE
8
layer0
10
13.0549237
20
11.3567078
11
13.0757382
21
11.3979649
0
LINE
8
layer0
10
13.0757382
20
11.3979649
11
13.0932019
21
11.4450366
0
LINE
8
layer0
10
13.0932019
20
11.4450366
11
13.1070688
21
11.4977802
0
LINE
8
layer0
10
13.1070688
20
11.4977802
11
13.1171399
21
11.55607
0
LINE
8
layer0
10
13.1171399
20
11.55607
11
13.1249198
21
11.6887207
0
LINE
8
layer0
10
13.1249198
20
11.6887207
11
13.1148027
21
11.8418024
0
LINE
8
layer0
10
13.1148027
20
11.8418024
11
13.0851125
21
12.0140134
0
LINE
8
layer0
10
13.0851125
20
12.0140134
11
13.0309265
21
12.2171833
0
LINE
8
layer0
10
13.0309265
20
12.2171833
11
13.0134744
21
12.3131413
0
LINE
8
layer0
10
13.0134744
20
12.3131413
11
12.9952438
21
12.4968767
0
LINE
8
layer0
10
12.9952438
20
12.4968767
11
12.9903167
21
12.6242958
0
LINE
8
layer0
10
12.9903167
20
12.6242958
11
12.9907716
21
12.7710199
0
LINE
8
layer0
10
12.9907716
20
12.7710199
11
12.9984708
21
12.9426328
0
LINE
8
layer0
10
12.9984708
20
12.9426328
11
13.0152142
21
13.1349792
0
LINE
8
layer0
10
13.0152142
20
13.1349792
11
13.0428427
21
13.3485273
0
LINE
8
layer0
10
13.0428427
20
13.3485273
11
13.0829612
21
13.5816156
0
LINE
8
layer0
10
13.0829612
20
13.5816156
11
13.1380117
21
13.8369207
0
LINE
8
layer0
10
13.1380117
20
13.8369207
11
13.2087423
21
14.1090536
0
LINE
8
layer0
10
13.2087423
20
14.1090536
11
13.2975439
21
14.4001296
0
LINE
8
layer0
10
13.2975439
20
14.4001296
11
13.3936107
21
14.674793
0
ARC
8
layer0
10
16.5000043
20
-0.0000262
40
15
50
98.0479539
51
101.9520433
0
LINE
8
layer0
10
14.3999763
20
14.8522424
11
14.58419
21
14.627
0
LINE
8
layer0
10
14.58419
20
14.627
11
14.76719
21
14.38385
0
LINE
8
layer0
10
14.76719
20
14.38385
11
14.92673
21
14.15232
0
LINE
8
layer0
10
14.92673
20
14.15232
11
15.06578
21
13.93124
0
LINE
8
layer0
10
15.06578
20
13.93124
11
15.1832
21
13.72593
0
LINE
8
layer0
10
15.1832
20
13.72593
11
15.2822
21
13.53471
0
LINE
8
layer0
10
15.2822
20
13.53471
11
15.36372
21
13.35969
0
LINE
8
layer0
10
15.36372
20
13.35969
11
15.42965
21
13.20106
0
LINE
8
layer0
10
15.42965
20
13.20106
11
15.48026
21
13.06334
0
LINE
8
layer0
10
15.48026
20
13.06334
11
15.51921
21
12.94192
0
LINE
8
layer0
10
15.51921
20
12.94192
11
15.56492
21
12.76303
0
LINE
8
layer0
10
15.56492
20
12.76303
11
15.58134
21
12.66689
0
LINE
8
layer0
10
15.58134
20
12.66689
11
15.59991
21
12.45744
0
LINE
8
layer0
10
15.59991
20
12.45744
11
15.63091
21
12.28546
0
LINE
8
layer0
10
15.63091
20
12.28546
11
15.67376
21
12.13815
0
LINE
8
layer0
10
15.67376
20
12.13815
11
15.72644
21
12.01616
0
LINE
8
layer0
10
15.72644
20
12.01616
11
15.75584
21
11.96483
0
LINE
8
layer0
10
15.75584
20
11.96483
11
15.78691
21
11.92001
0
LINE
8
layer0
10
15.78691
20
11.92001
11
15.81942
21
11.88175
0
LINE
8
layer0
10
15.81942
20
11.88175
11
15.85309
21
11.8501
0
LINE
8
layer0
10
15.85309
20
11.8501
11
15.88767
21
11.82507
0
LINE
8
layer0
10
15.88767
20
11.82507
11
15.92289
21
11.80669
0
LINE
8
layer0
10
15.92289
20
11.80669
11
15.95848
21
11.79498
0
LINE
8
layer0
10
15.95848
20
11.79498
11
16.012
21
11.78991
0
LINE
8
layer0
10
16.012
20
11.78991
11
16.5
21
11.8
0
LINE
8
layer0
10
16.5
20
11.8
11
16.988
21
11.78991
0
LINE
8
layer0
10
16.988
20
11.78991
11
17.04152
21
11.79498
0
LINE
8
layer0
10
17.04152
20
11.79498
11
17.07711
21
11.80669
0
LINE
8
layer0
10
17.07711
20
11.80669
11
17.11233
21
11.82507
0
LINE
8
layer0
10
17.11233
20
11.82507
11
17.14691
21
11.8501
0
LINE
8
layer0
10
17.14691
20
11.8501
11
17.18058
21
11.88175
0
LINE
8
layer0
10
17.18058
20
11.88175
11
17.21309
21
11.92001
0
LINE
8
layer0
10
17.21309
20
11.92001
11
17.24416
21
11.96483
0
LINE
8
layer0
10
17.24416
20
11.96483
11
17.27356
21
12.01616
0
LINE
8
layer0
10
17.27356
20
12.01616
11
17.32624
21
12.13815
0
LINE
8
layer0
10
17.32624
20
12.13815
11
17.36909
21
12.28546
0
LINE
8
layer0
10
17.36909
20
12.28546
11
17.40009
21
12.45744
0
LINE
8
layer0
10
17.40009
20
12.45744
11
17.41866
21
12.66689
0
LINE
8
layer0
10
17.41866
20
12.66689
11
17.43508
21
12.76303
0
LINE
8
layer0
10
17.43508
20
12.76303
11
17.48079
21
12.94192
0
LINE
8
layer0
10
17.48079
20
12.94192
11
17.51974
21
13.06334
0
LINE
8
layer0
10
17.51974
20
13.06334
11
17.57035
21
13.20106
0
LINE
8
layer0
10
17.57035
20
13.20106
11
17.63628
21
13.35969
0
LINE
8
layer0
10
17.63628
20
13.35969
11
17.7178
21
13.53471
0
LINE
8
layer0
10
17.7178
20
13.53471
11
17.8168
21
13.72593
0
LINE
8
layer0
10
17.8168
20
13.72593
11
17.93422
21
13.93124
0
LINE
8
layer0
10
17.93422
20
13.93124
11
18.07327
21
14.15232
0
LINE
8
layer0
10
18.07327
20
14.15232
11
18.23281
21
14.38385
0
LINE
8
layer0
10
18.23281
20
14.38385
11
18.41581
21
14.627
0
LINE
8
layer0
10
18.41581
20
14.627
11
18.6000237
21
14.8522424
0
ARC
8
layer0
10
16.4999958
20
-0.0000262
40
15
50
78.0479567
51
81.9520461
0
LINE
8
layer0
10
19.6063893
20
14.674793
11
19.7024561
21
14.4001296
0
LINE
8
layer0
10
19.7024561
20
14.4001296
11
19.7912577
21
14.1090536
0
LINE
8
layer0
10
19.7912577
20
14.1090536
11
19.8619883
21
13.8369207
0
LINE
8
layer0
10
19.8619883
20
13.8369207
11
19.9170388
21
13.5816156
0
LINE
8
layer0
10
19.9170388
20
13.5816156
11
19.9571573
21
13.3485273
0
LINE
8
layer0
10
19.9571573
20
13.3485273
11
19.9847858
21
13.1349792
0
LINE
8
layer0
10
19.9847858
20
13.1349792
11
20.0015292
21
12.9426328
0
LINE
8
layer0
10
20.0015292
20
12.9426328
11
20.0092284
21
12.7710199
0
LINE
8
layer0
10
20.0092284
20
12.7710199
11
20.0096833
21
12.6242958
0
LINE
8
layer0
10
20.0096833
20
12.6242958
11
20.0047562
21
12.4968767
0
LINE
8
layer0
10
20.0047562
20
12.4968767
11
19.9865256
21
12.3131413
0
LINE
8
layer0
10
19.9865256
20
12.3131413
11
19.9690735
21
12.2171833
0
LINE
8
layer0
10
19.9690735
20
12.2171833
11
19.9148875
21
12.0140134
0
LINE
8
layer0
10
19.9148875
20
12.0140134
11
19.8851973
21
11.8418024
0
LINE
8
layer0
10
19.8851973
20
11.8418024
11
19.8750802
21
11.6887207
0
LINE
8
layer0
10
19.8750802
20
11.6887207
11
19.8828601
21
11.55607
0
LINE
8
layer0
10
19.8828601
20
11.55607
11
19.8929312
21
11.4977802
0
LINE
8
layer0
10
19.8929312
20
11.4977802
11
19.9067981
21
11.4450366
0
LINE
8
layer0
10
19.9067981
20
11.4450366
11
19.9242618
21
11.3979649
0
LINE
8
layer0
10
19.9242618
20
11.3979649
11
19.9450763
21
11.3567078
0
LINE
8
layer0
10
19.9450763
20
11.3567078
11
19.9690102
21
11.3213602
0
LINE
8
layer0
10
19.9690102
20
11.3213602
11
19.9958198
21
11.2920427
0
LINE
8
layer0
10
19.9958198
20
11.2920427
11
20.0252584
21
11.2688664
0
LINE
8
layer0
10
20.0252584
20
11.2688664
11
20.0738167
21
11.2457973
0
LINE
8
layer0
10
20.0738167
20
11.2457973
11
20.5358377
21
11.0883729
0
LINE
8
layer0
10
20.5358377
20
11.0883729
11
20.9909567
21
10.9119856
0
LINE
8
layer0
10
20.9909567
20
10.9119856
11
21.0429831
21
10.8984449
0
LINE
8
layer0
10
21.0429831
20
10.8984449
11
21.0804318
21
10.8972762
0
LINE
8
layer0
10
21.0804318
20
10.8972762
11
21.1198141
21
10.9025018
0
LINE
8
layer0
10
21.1198141
20
10.9025018
11
21.1608695
21
10.9141953
0
LINE
8
layer0
10
21.1608695
20
10.9141953
11
21.2033338
21
10.9324207
0
LINE
8
layer0
10
21.2033338
20
10.9324207
11
21.2469689
21
10.9572543
0
LINE
8
layer0
10
21.2469689
20
10.9572543
11
21.2914945
21
10.9887448
0
LINE
8
layer0
10
21.2914945
20
10.9887448
11
21.3366774
21
11.0269238
0
LINE
8
layer0
10
21.3366774
20
11.0269238
11
21.4279034
21
11.1235393
0
LINE
8
layer0
10
21.4279034
20
11.1235393
11
21.5185522
21
11.2473098
0
LINE
8
layer0
10
21.5185522
20
11.2473098
11
21.6065033
21
11.3983155
0
LINE
8
layer0
10
21.6065033
20
11.3983155
11
21.6955896
21
11.5887828
0
LINE
8
layer0
10
21.6955896
20
11.5887828
11
21.7439011
21
11.6735089
0
LINE
8
layer0
10
21.7439011
20
11.6735089
11
21.8480385
21
11.8259768
0
LINE
8
layer0
10
21.8480385
20
11.8259768
11
21.9261676
21
11.9267526
0
LINE
8
layer0
10
21.9261676
20
11.9267526
11
22.0208284
21
12.0388574
0
LINE
8
layer0
10
22.0208284
20
12.0388574
11
22.137037
21
12.1653715
0
LINE
8
layer0
10
22.137037
20
12.1653715
11
22.2735011
21
12.301955
0
LINE
8
layer0
10
22.2735011
20
12.301955
11
22.4319318
21
12.447783
0
LINE
8
layer0
10
22.4319318
20
12.447783
11
22.6124907
21
12.6005513
0
LINE
8
layer0
10
22.6124907
20
12.6005513
11
22.8187687
21
12.7607406
0
LINE
8
layer0
10
22.8187687
20
12.7607406
11
23.0478752
21
12.9237418
0
LINE
8
layer0
10
23.0478752
20
12.9237418
11
23.3030012
21
13.0896384
0
LINE
8
layer0
10
23.3030012
20
13.0896384
11
23.5531428
21
13.2382922
0
ARC
8
layer0
10
16.499987
20
-0.0000232
40
15
50
58.0479568
51
61.952046
0
LINE
8
layer0
10
24.4381259
20
12.727347
11
24.4344588
21
12.436391
0
LINE
8
layer0
10
24.4344588
20
12.436391
11
24.4183511
21
12.1324972
0
LINE
8
layer0
10
24.4183511
20
12.1324972
11
24.3917412
21
11.8525846
0
LINE
8
layer0
10
24.3917412
20
11.8525846
11
24.3561522
21
11.5938478
0
LINE
8
layer0
10
24.3561522
20
11.5938478
11
24.3141304
21
11.3610951
0
LINE
8
layer0
10
24.3141304
20
11.3610951
11
24.267055
21
11.1509761
0
LINE
8
layer0
10
24.267055
20
11.1509761
11
24.2170022
21
10.964503
0
LINE
8
layer0
10
24.2170022
20
10.964503
11
24.1655421
21
10.8006064
0
LINE
8
layer0
10
24.1655421
20
10.8006064
11
24.1157869
21
10.6625753
0
LINE
8
layer0
10
24.1157869
20
10.6625753
11
24.0675771
21
10.5445256
0
LINE
8
layer0
10
24.0675771
20
10.5445256
11
23.9876047
21
10.378106
0
LINE
8
layer0
10
23.9876047
20
10.378106
11
23.9383856
21
10.293904
0
LINE
8
layer0
10
23.9383856
20
10.293904
11
23.8179791
21
10.1215194
0
LINE
8
layer0
10
23.8179791
20
10.1215194
11
23.7311799
21
9.9698486
0
LINE
8
layer0
10
23.7311799
20
9.9698486
11
23.6693159
21
9.8294592
0
LINE
8
layer0
10
23.6693159
20
9.8294592
11
23.6312574
21
9.7021474
0
LINE
8
layer0
10
23.6312574
20
9.7021474
11
23.6207848
21
9.6439284
0
LINE
8
layer0
10
23.6207848
20
9.6439284
11
23.6157761
21
9.5896228
0
LINE
8
layer0
10
23.6157761
20
9.5896228
11
23.6160872
21
9.539417
0
LINE
8
layer0
10
23.6160872
20
9.539417
11
23.6215356
21
9.493529
0
LINE
8
layer0
10
23.6215356
20
9.493529
11
23.6319365
21
9.4521273
0
LINE
8
layer0
10
23.6319365
20
9.4521273
11
23.6471021
21
9.4154084
0
LINE
8
layer0
10
23.6471021
20
9.4154084
11
23.6668386
21
9.3835612
0
LINE
8
layer0
10
23.6668386
20
9.3835612
11
23.7045784
21
9.3452754
0
LINE
8
layer0
10
23.7045784
20
9.3452754
11
24.0848938
21
9.0393244
0
LINE
8
layer0
10
24.0848938
20
9.0393244
11
24.4522378
21
8.7179147
0
LINE
8
layer0
10
24.4522378
20
8.7179147
11
24.4964954
21
8.6873965
0
LINE
8
layer0
10
24.4964954
20
8.6873965
11
24.531286
21
8.6734901
0
LINE
8
layer0
10
24.531286
20
8.6734901
11
24.5700805
21
8.664931
0
LINE
8
layer0
10
24.5700805
20
8.664931
11
24.6126593
21
8.6618775
0
LINE
8
layer0
10
24.6126593
20
8.6618775
11
24.6587962
21
8.6644802
0
LINE
8
layer0
10
24.6587962
20
8.6644802
11
24.7082934
21
8.672892
0
LINE
8
layer0
10
24.7082934
20
8.672892
11
24.7609041
21
8.6872547
0
LINE
8
layer0
10
24.7609041
20
8.6872547
11
24.8164201
21
8.7076778
0
LINE
8
layer0
10
24.8164201
20
8.7076778
11
24.935189
21
8.7672655
0
LINE
8
layer0
10
24.935189
20
8.7672655
11
25.062703
21
8.8525681
0
LINE
8
layer0
10
25.062703
20
8.8525681
11
25.196997
21
8.964386
0
LINE
8
layer0
10
25.196997
20
8.964386
11
25.3458543
21
9.1128974
0
LINE
8
layer0
10
25.3458543
20
9.1128974
11
25.4202304
21
9.1759904
0
LINE
8
layer0
10
25.4202304
20
9.1759904
11
25.5702346
21
9.2836462
0
LINE
8
layer0
10
25.5702346
20
9.2836462
11
25.6781193
21
9.3516228
0
LINE
8
layer0
10
25.6781193
20
9.3516228
11
25.8054135
21
9.4245909
0
LINE
8
layer0
10
25.8054135
20
9.4245909
11
25.9578842
21
9.5037296
0
LINE
8
layer0
10
25.9578842
20
9.5037296
11
26.1328328
21
9.5854026
0
LINE
8
layer0
10
26.1328328
20
9.5854026
11
26.3315851
21
9.6682497
0
LINE
8
layer0
10
26.3315851
20
9.6682497
11
26.5535047
21
9.7500501
0
LINE
8
layer0
10
26.5535047
20
9.7500501
11
26.8021307
21
9.8300276
0
LINE
8
layer0
10
26.8021307
20
9.8300276
11
27.07317
21
9.9048396
0
LINE
8
layer0
10
27.07317
20
9.9048396
11
27.36965
21
9.9734731
0
LINE
8
layer0
10
27.36965
20
9.9734731
11
27.6555489
21
10.0276086
0
ARC
8
layer0
10
16.4999795
20
-0.0000168
40
15
50
38.0479543
51
41.9520435
0
LINE
8
layer0
10
28.3124074
20
9.2447951
11
28.2094486
21
8.9726401
0
LINE
8
layer0
10
28.2094486
20
8.9726401
11
28.0903745
21
8.6925825
0
LINE
8
layer0
10
28.0903745
20
8.6925825
11
27.9696336
21
8.4386518
0
LINE
8
layer0
10
27.9696336
20
8.4386518
11
27.8476977
21
8.207691
0
LINE
8
layer0
10
27.8476977
20
8.207691
11
27.7286041
21
8.0033473
0
LINE
8
layer0
10
27.7286041
20
8.0033473
11
27.6125027
21
7.8220007
0
LINE
8
layer0
10
27.6125027
20
7.8220007
11
27.5016909
21
7.6638923
0
LINE
8
layer0
10
27.5016909
20
7.6638923
11
27.3972783
21
7.5274803
0
LINE
8
layer0
10
27.3972783
20
7.5274803
11
27.3033143
21
7.4147907
0
LINE
8
layer0
10
27.3033143
20
7.4147907
11
27.2176365
21
7.3203491
0
LINE
8
layer0
10
27.2176365
20
7.3203491
11
27.0855682
21
7.191318
0
LINE
8
layer0
10
27.0855682
20
7.191318
11
27.0105185
21
7.1290279
0
LINE
8
layer0
10
27.0105185
20
7.1290279
11
26.8384145
21
7.0082208
0
LINE
8
layer0
10
26.8384145
20
7.0082208
11
26.7049755
21
6.895384
0
LINE
8
layer0
10
26.7049755
20
6.895384
11
26.5988263
21
6.7846198
0
LINE
8
layer0
10
26.5988263
20
6.7846198
11
26.5195198
21
6.6780026
0
LINE
8
layer0
10
26.5195198
20
6.6780026
11
26.4897667
21
6.6268765
0
LINE
8
layer0
10
26.4897667
20
6.6268765
11
26.4664865
21
6.5775591
0
LINE
8
layer0
10
26.4664865
20
6.5775591
11
26.4496073
21
6.5302746
0
LINE
8
layer0
10
26.4496073
20
6.5302746
11
26.4390326
21
6.4852905
0
LINE
8
layer0
10
26.4390326
20
6.4852905
11
26.434646
21
6.4428283
0
LINE
8
layer0
10
26.434646
20
6.4428283
11
26.4363385
21
6.4031369
0
LINE
8
layer0
10
26.4363385
20
6.4031369
11
26.4439923
21
6.3664601
0
LINE
8
layer0
10
26.4439923
20
6.3664601
11
26.4663616
21
6.3175754
0
LINE
8
layer0
10
26.4663616
20
6.3175754
11
26.7190998
21
5.9
0
LINE
8
layer0
10
26.7190998
20
5.9
11
26.9543616
21
5.4723346
0
LINE
8
layer0
10
26.9543616
20
5.4723346
11
26.9855123
21
5.4285199
0
LINE
8
layer0
10
26.9855123
20
5.4285199
11
27.0134485
21
5.4035531
0
LINE
8
layer0
10
27.0134485
20
5.4035531
11
27.046976
21
5.3822417
0
LINE
8
layer0
10
27.046976
20
5.3822417
11
27.0859426
21
5.3648095
0
LINE
8
layer0
10
27.0859426
20
5.3648095
11
27.1301873
21
5.3514754
0
LINE
8
layer0
10
27.1301873
20
5.3514754
11
27.1795765
21
5.3424509
0
LINE
8
layer0
10
27.1795765
20
5.3424509
11
27.2339267
21
5.3379535
0
LINE
8
layer0
10
27.2339267
20
5.3379535
11
27.2930798
21
5.3381574
0
LINE
8
layer0
10
27.2930798
20
5.3381574
11
27.4250663
21
5.3535302
0
LINE
8
layer0
10
27.4250663
20
5.3535302
11
27.5740655
21
5.390076
0
LINE
8
layer0
10
27.5740655
20
5.390076
11
27.7385045
21
5.4492192
0
LINE
8
layer0
10
27.7385045
20
5.4492192
11
27.9291785
21
5.5378621
0
LINE
8
layer0
10
27.9291785
20
5.5378621
11
28.0206482
21
5.571712
0
LINE
8
layer0
10
28.0206482
20
5.571712
11
28.1984265
21
5.6215709
0
LINE
8
layer0
10
28.1984265
20
5.6215709
11
28.3230543
21
5.6485493
0
LINE
8
layer0
10
28.3230543
20
5.6485493
11
28.4676283
21
5.6735797
0
LINE
8
layer0
10
28.4676283
20
5.6735797
11
28.6379709
21
5.6957977
0
LINE
8
layer0
10
28.6379709
20
5.6957977
11
28.8303027
21
5.7127093
0
LINE
8
layer0
10
28.8303027
20
5.7127093
11
29.0454041
21
5.7225827
0
LINE
8
layer0
10
29.0454041
20
5.7225827
11
29.2819177
21
5.723549
0
LINE
8
layer0
10
29.2819177
20
5.723549
11
29.5429036
21
5.7136682
0
LINE
8
layer0
10
29.5429036
20
5.7136682
11
29.8231845
21
5.6912675
0
LINE
8
layer0
10
29.8231845
20
5.6912675
11
30.1252586
21
5.6543599
0
LINE
8
layer0
10
30.1252586
20
5.6543599
11
30.4124311
21
5.6074474
0
ARC
8
layer0
10
16.499975
20
-0.0000088
40
15
50
18.0479545
51
21.9520437
0
LINE
8
layer0
10
30.7619382
20
4.6471844
11
30.5721061
21
4.4266564
0
LINE
8
layer1
10
30.5721061
20
4.4266564
11
30.3644277
21
4.2042141
0
LINE
8
layer1
10
30.3644277
20
4.2042141
11
30.164119
21
4.0068931
0
LINE
8
layer1
10
30.164119
20
4.0068931
11
29.9705435
21
3.8315654
0
LINE
8
layer1
10
29.9705435
20
3.8315654
11
29.7887424
21
3.6802776
0
LINE
8
layer1
10
29.7887424
20
3.6802776
11
29.6176186
21
3.5495766
0
LINE
8
layer1
10
29.6176186
20
3.5495766
11
29.4594133
21
3.4389032
0
LINE
8
layer1
10
29.4594133
20
3.4389032
11
29.3146419
21
3.346429
0
LINE
8
layer1
10
29.3146419
20
3.346429
11
29.1878025
21
3.272673
0
LINE
8
layer1
10
29.1878025
20
3.272673
11
29.0749908
21
3.2132304
0
LINE
8
layer1
10
29.0749908
20
3.2132304
11
28.906756
21
3.1371509
0
LINE
8
layer1
10
28.906756
20
3.1371509
11
28.8149278
21
3.1042859
0
LINE
8
layer1
10
28.8149278
20
3.1042859
11
28.6118845
21
3.0496274
0
LINE
8
layer1
10
28.6118845
20
3.0496274
11
28.4479004
21
2.9892343
0
LINE
8
layer1
10
28.4479004
20
2.9892343
11
28.3102692
21
2.9214552
0
LINE
8
layer1
10
28.3102692
20
2.9214552
11
28.1992802
21
2.8483922
0
LINE
8
layer1
10
28.1992802
20
2.8483922
11
28.1538353
21
2.8105255
0
LINE
8
layer1
10
28.1538353
20
2.8105255
11
28.1150915
21
2.7721446
0
LINE
8
layer1
10
28.1150915
20
2.7721446
11
28.083058
21
2.7334847
0
LINE
8
layer1
10
28.083058
20
2.7334847
11
28.0577356
21
2.6948303
0
LINE
8
layer1
10
28.0577356
20
2.6948303
11
28.0390906
21
2.6564292
0
LINE
8
layer1
10
28.0390906
20
2.6564292
11
28.0271057
21
2.6185526
0
LINE
8
layer1
10
28.0271057
20
2.6185526
11
28.0217538
21
2.5814699
0
LINE
8
layer1
10
28.0217538
20
2.5814699
11
28.0260545
21
2.5278826
0
LINE
8
layer1
10
28.0260545
20
2.5278826
11
28.1207315
21
2.0490485
0
LINE
8
layer1
10
28.1207315
20
2.0490485
11
28.1955351
21
1.5667102
0
LINE
8
layer1
10
28.1955351
20
1.5667102
11
28.2098217
21
1.5148837
0
LINE
8
layer1
10
28.2098217
20
1.5148837
11
28.2275339
21
1.4818678
0
LINE
8
layer1
10
28.2275339
20
1.4818678
11
28.2517506
21
1.4503745
0
LINE
8
layer1
10
28.2517506
20
1.4503745
11
28.2824051
21
1.4206663
0
LINE
8
layer1
10
28.2824051
20
1.4206663
11
28.319421
21
1.3930038
0
LINE
8
layer1
10
28.319421
20
1.3930038
11
28.362745
21
1.3676315
0
LINE
8
layer1
10
28.362745
20
1.3676315
11
28.4122794
21
1.3448164
0
LINE
8
layer1
10
28.4122794
20
1.3448164
11
28.4679348
21
1.3247764
0
LINE
8
layer1
10
28.4679348
20
1.3247764
11
28.5972193
21
1.2940801
0
LINE
8
layer1
10
28.5972193
20
1.2940801
11
28.7497322
21
1.2774612
0
LINE
8
layer1
10
28.7497322
20
1.2774612
11
28.9244825
21
1.2767961
0
LINE
8
layer1
10
28.9244825
20
1.2767961
11
29.1339751
21
1.2948789
0
LINE
8
layer1
10
29.1339751
20
1.2948789
11
29.2315058
21
1.2954029
0
LINE
8
layer1
10
29.2315058
20
1.2954029
11
29.4156156
21
1.2814512
0
LINE
8
layer1
10
29.4156156
20
1.2814512
11
29.5419545
21
1.2641773
0
LINE
8
layer1
10
29.5419545
20
1.2641773
11
29.6863706
21
1.238251
0
LINE
8
layer1
10
29.6863706
20
1.238251
11
29.8540392
21
1.2008685
0
LINE
8
layer1
10
29.8540392
20
1.2008685
11
30.0405561
21
1.1509788
0
LINE
8
layer1
10
30.0405561
20
1.1509788
11
30.2460622
21
1.0866879
0
LINE
8
layer1
10
30.2460622
20
1.0866879
11
30.4686429
21
1.0067035
0
LINE
8
layer1
10
30.4686429
20
1.0067035
11
30.7105099
21
0.9081561
0
LINE
8
layer1
10
30.7105099
20
0.9081561
11
30.9662263
21
0.7912446
0
LINE
8
layer1
10
30.9662263
20
0.7912446
11
31.2374599
21
0.6532474
0
LINE
8
layer1
10
31.2374599
20
0.6532474
11
31.4912688
21
0.5109452
0
ARC
8
layer1
10
16.4999735
20
-1e-7
40
15
50
358.0479555
51
361.9520449
0
LINE
8
layer1
10
31.4912688
20
-0.5109452
11
31.2374599
21
-0.6532474
0
LINE
8
layer1
10
31.2374599
20
-0.6532474
11
30.9662263
21
-0.7912446
0
LINE
8
layer1
10
30.9662263
20
-0.7912446
11
30.7105099
21
-0.9081561
0
LINE
8
layer1
10
30.7105099
20
-0.9081561
11
30.4686429
21
-1.0067035
0
LINE
8
layer1
10
30.4686429
20
-1.0067035
11
30.2460622
21
-1.0866879
0
LINE
8
layer1
10
30.2460622
20
-1.0866879
11
30.0405561
21
-1.1509788
0
LINE
8
layer1
10
30.0405561
20
-1.1509788
11
29.8540392
21
-1.2008685
0
LINE
8
layer1
10
29.8540392
20
-1.2008685
11
29.6863706
21
-1.238251
0
LINE
8
layer1
10
29.6863706
20
-1.238251
11
29.5419545
21
-1.2641773
0
LINE
8
layer1
10
29.5419545
20
-1.2641773
11
29.4156156
21
-1.2814512
0
LINE
8
layer1
10
29.4156156
20
-1.2814512
11
29.2315058
21
-1.2954029
0
LINE
8
layer1
10
29.2315058
20
-1.2954029
11
29.1339751
21
-1.2948789
0
LINE
8
layer1
10
29.1339751
20
-1.2948789
11
28.9244825
21
-1.2767961
0
LINE
8
layer1
10
28.9244825
20
-1.2767961
11
28.7497322
21
-1.2774612
0
LINE
8
layer1
10
28.7497322
20
-1.2774612
11
28.5972193
21
-1.2940801
0
LINE
8
layer1
10
28.5972193
20
-1.2940801
11
28.4679348
21
-1.3247764
0
LINE
8
layer1
10
28.4679348
20
-1.3247764
11
28.4122794
21
-1.3448164
0
LINE
8
layer1
10
28.4122794
20
-1.3448164
11
28.362745
21
-1.3676315
0
LINE
8
layer1
10
28.362745
20
-1.3676315
11
28.319421
21
-1.3930038
0
LINE
8
layer1
10
28.319421
20
-1.3930038
11
28.2824051
21
-1.4206663
0
LINE
8
layer1
10
28.2824051
20
-1.4206663
11
28.2517506
21
-1.4503745
0
LINE
8
layer1
10
28.2517506
20
-1.4503745
11
28.2275339
21
-1.4818678
0
LINE
8
layer1
10
28.2275339
20
-1.4818678
11
28.2098217
21
-1.5148837
0
LINE
8
layer1
10
28.2098217
20
-1.5148837
11
28.1955351
21
-1.5667102
0
LINE
8
layer1
10
28.1955351
20
-1.5667102
11
28.1207315
21
-2.0490485
0
LINE
8
layer1
10
28.1207315
20
-2.0490485
11
28.0260545
21
-2.5278826
0
LINE
8
layer1
10
28.0260545
20
-2.5278826
11
28.0217538
21
-2.5814699
0
LINE
8
layer1
10
28.0217538
20
-2.5814699
11
28.0271057
21
-2.6185526
0
LINE
8
layer1
10
28.0271057
20
-2.6185526
11
28.0390906
21
-2.6564292
0
LINE
8
layer1
10
28.0390906
20
-2.6564292
11
28.0577356
21
-2.6948303
0
LINE
8
layer1
10
28.0577356
20
-2.6948303
11
28.083058
21
-2.7334847
0
LINE
8
layer1
10
28.083058
20
-2.7334847
11
28.1150915
21
-2.7721446
0
LINE
8
layer1
10
28.1150915
20
-2.7721446
11
28.1538353
21
-2.8105255
0
LINE
8
layer1
10
28.1538353
20
-2.8105255
11
28.1992802
21
-2.8483922
0
LINE
8
layer1
10
28.1992802
20
-2.8483922
11
28.3102692
21
-2.9214552
0
LINE
8
layer1
10
28.3102692
20
-2.9214552
11
28.4479004
21
-2.9892343
0
LINE
8
layer1
10
28.4479004
20
-2.9892343
11
28.6118845
21
-3.0496274
0
LINE
8
layer1
10
28.6118845
20
-3.0496274
11
28.8149278
21
-3.1042859
0
LINE
8
layer1
10
28.8149278
20
-3.1042859
11
28.906756
21
-3.1371509
0
LINE
8
layer1
10
28.906756
20
-3.1371509
11
29.0749908
21
-3.2132304
0
LINE
8
layer1
10
29.0749908
20
-3.2132304
11
29.1878025
21
-3.272673
0
LINE
8
layer1
10
29.1878025
20
-3.272673
11
29.3146419
21
-3.346429
0
LINE
8
layer1
10
29.3146419
20
-3.346429
11
29.4594133
21
-3.4389032
0
LINE
8
layer1
10
29.4594133
20
-3.4389032
11
29.6176186
21
-3.5495766
0
LINE
8
layer1
10
29.6176186
20
-3.5495766
11
29.7887424
21
-3.6802776
0
LINE
8
layer1
10
29.7887424
20
-3.6802776
11
29.9705435
21
-3.8315654
0
LINE
8
layer1
10
29.9705435
20
-3.8315654
11
30.164119
21
-4.0068931
0
LINE
8
layer1
10
30.164119
20
-4.0068931
11
30.3644277
21
-4.2042141
0
LINE
8
layer1
10
30.3644277
20
-4.2042141
11
30.5721061
21
-4.4266564
0
LINE
8
layer1
10
30.5721061
20
-4.4266564
11
30.7619382
21
-4.6471844
0
ARC
8
layer1
10
16.499975
20
0.000009
40
15
50
338.047956
51
341.9520451
0
LINE
8
layer1
10
30.4124311
20
-5.6074474
11
30.1252586
21
-5.6543599
0
LINE
8
layer1
10
30.1252586
20
-5.6543599
11
29.8231845
21
-5.6912675
0
LINE
8
layer1
10
29.8231845
20
-5.6912675
11
29.5429036
21
-5.7136682
0
LINE
8
layer1
10
29.5429036
20
-5.7136682
11
29.2819177
21
-5.723549
0
LINE
8
layer1
10
29.2819177
20
-5.723549
11
29.0454041
21
-5.7225827
0
LINE
8
layer1
10
29.0454041
20
-5.7225827
11
28.8303027
21
-5.7127093
0
LINE
8
layer1
10
28.8303027
20
-5.7127093
11
28.6379709
21
-5.6957977
0
LINE
8
layer1
10
28.6379709
20
-5.6957977
11
28.4676283
21
-5.6735797
0
LINE
8
layer1
10
28.4676283
20
-5.6735797
11
28.3230543
21
-5.6485493
0
LINE
8
layer1
10
28.3230543
20
-5.6485493
11
28.1984265
21
-5.6215709
0
LINE
8
layer1
10
28.1984265
20
-5.6215709
11
28.0206482
21
-5.571712
0
LINE
8
layer1
10
28.0206482
20
-5.571712
11
27.9291785
21
-5.5378621
0
LINE
8
layer1
10
27.9291785
20
-5.5378621
11
27.7385045
21
-5.4492192
0
LINE
8
layer1
10
27.7385045
20
-5.4492192
11
27.5740655
21
-5.390076
0
LINE
8
layer1
10
27.5740655
20
-5.390076
11
27.4250663
21
-5.3535302
0
LINE
8
layer1
10
27.4250663
20
-5.3535302
11
27.2930798
21
-5.3381574
0
LINE
8
layer1
10
27.2930798
20
-5.3381574
11
27.2339267
21
-5.3379535
0
LINE
8
layer1
10
27.2339267
20
-5.3379535
11
27.1795765
21
-5.3424509
0
LINE
8
layer1
10
27.1795765
20
-5.3424509
11
27.1301873
21
-5.3514754
0
LINE
8
layer1
10
27.1301873
20
-5.3514754
11
27.0859426
21
-5.3648095
0
LINE
8
layer1
10
27.0859426
20
-5.3648095
11
27.046976
21
-5.3822417
0
LINE
8
layer1
10
27.046976
20
-5.3822417
11
27.0134485
21
-5.4035531
0
LINE
8
layer1
10
27.0134485
20
-5.4035531
11
26.9855123
21
-5.4285199
0
LINE
8
layer1
10
26.9855123
20
-5.4285199
11
26.9543616
21
-5.4723346
0
LINE
8
layer1
10
26.9543616
20
-5.4723346
11
26.7190998
21
-5.9
0
LINE
8
layer1
10
26.7190998
20
-5.9
11
26.4663616
21
-6.3175754
0
LINE
8
layer1
10
26.4663616
20
-6.3175754
11
26.4439923
21
-6.3664601
0
LINE
8
layer1
10
26.4439923
20
-6.3664601
11
26.4363385
21
-6.4031369
0
LINE
8
layer1
10
26.4363385
20
-6.4031369
11
26.434646
21
-6.4428283
0
LINE
8
layer1
10
26.434646
20
-6.4428283
11
26.4390326
21
-6.4852905
0
LINE
8
layer1
10
26.4390326
20
-6.4852905
11
26.4496073
21
-6.5302746
0
LINE
8
layer1
10
26.4496073
20
-6.5302746
11
26.4664865
21
-6.5775591
0
LINE
8
layer1
10
26.4664865
20
-6.5775591
11
26.4897667
21
-6.6268765
0
LINE
8
layer1
10
26.4897667
20
-6.6268765
11
26.5195198
21
-6.6780026
0
LINE
8
layer1
10
26.5195198
20
-6.6780026
11
26.5988263
21
-6.7846198
0
LINE
8
layer1
10
26.5988263
20
-6.7846198
11
26.7049755
21
-6.895384
0
LINE
8
layer1
10
26.7049755
20
-6.895384
11
26.8384145
21
-7.0082208
0
LINE
8
layer1
10
26.8384145
20
-7.0082208
11
27.0105185
21
-7.1290279
0
LINE
8
layer1
10
27.0105185
20
-7.1290279
11
27.0855682
21
-7.191318
0
LINE
8
layer1
10
27.0855682
20
-7.191318
11
27.2176365
21
-7.3203491
0
LINE
8
layer1
10
27.2176365
20
-7.3203491
11
27.3033143
21
-7.4147907
0
LINE
8
layer1
10
27.3033143
20
-7.4147907
11
27.3972783
21
-7.5274803
0
LINE
8
layer1
10
27.3972783
20
-7.5274803
11
27.5016909
21
-7.6638923
0
LINE
8
layer1
10
27.5016909
20
-7.6638923
11
27.6125027
21
-7.8220007
0
LINE
8
layer1
10
27.6125027
20
-7.8220007
11
27.7286041
21
-8.0033473
0
LINE
8
layer1
10
27.7286041
20
-8.0033473
11
27.8476977
21
-8.207691
0
LINE
8
layer1
10
27.8476977
20
-8.207691
11
27.9696336
21
-8.4386518
0
LINE
8
layer1
10
27.9696336
20
-8.4386518
11
28.0903745
21
-8.6925825
0
LINE
8
layer1
10
28.0903745
20
-8.6925825
11
28.2094486
21
-8.9726401
0
LINE
8
layer1
10
28.2094486
20
-8.9726401
11
28.3124074
21
-9.2447951
0
ARC
8
layer1
10
16.4999796
20
0.0000169
40
15
50
318.047956
51
321.9520452
0
LINE
8
layer1
10
27.6555489
20
-10.0276086
11
27.36965
21
-9.9734731
0
LINE
8
layer1
10
27.36965
20
-9.9734731
11
27.07317
21
-9.9048396
0
LINE
8
layer1
10
27.07317
20
-9.9048396
11
26.8021307
21
-9.8300276
0
LINE
8
layer1
10
26.8021307
20
-9.8300276
11
26.5535047
21
-9.7500501
0
LINE
8
layer1
10
26.5535047
20
-9.7500501
11
26.3315851
21
-9.6682497
0
LINE
8
layer1
10
26.3315851
20
-9.6682497
11
26.1328328
21
-9.5854026
0
LINE
8
layer1
10
26.1328328
20
-9.5854026
11
25.9578842
21
-9.5037296
0
LINE
8
layer1
10
25.9578842
20
-9.5037296
11
25.8054135
21
-9.4245909
0
LINE
8
layer1
10
25.8054135
20
-9.4245909
11
25.6781193
21
-9.3516228
0
LINE
8
layer1
10
25.6781193
20
-9.3516228
11
25.5702346
21
-9.2836462
0
LINE
8
layer1
10
25.5702346
20
-9.2836462
11
25.4202304
21
-9.1759904
0
LINE
8
layer1
10
25.4202304
20
-9.1759904
11
25.3458543
21
-9.1128974
0
LINE
8
layer1
10
25.3458543
20
-9.1128974
11
25.196997
21
-8.964386
0
LINE
8
layer1
10
25.196997
20
-8.964386
11
25.062703
21
-8.8525681
0
LINE
8
layer1
10
25.062703
20
-8.8525681
11
24.935189
21
-8.7672655
0
LINE
8
layer1
10
24.935189
20
-8.7672655
11
24.8164201
21
-8.7076778
0
LINE
8
layer1
10
24.8164201
20
-8.7076778
11
24.7609041
21
-8.6872547
0
LINE
8
layer1
10
24.7609041
20
-8.6872547
11
24.7082934
21
-8.672892
0
LINE
8
layer1
10
24.7082934
20
-8.672892
11
24.6587962
21
-8.6644802
0
LINE
8
layer1
10
24.6587962
20
-8.6644802
11
24.6126593
21
-8.6618775
0
LINE
8
layer1
10
24.6126593
20
-8.6618775
11
24.5700805
21
-8.664931
0
LINE
8
layer1
10
24.5700805
20
-8.664931
11
24.531286
21
-8.6734901
0
LINE
8
layer1
10
24.531286
20
-8.6734901
11
24.4964954
21
-8.6873965
0
LINE
8
layer1
10
24.4964954
20
-8.6873965
11
24.4522378
21
-8.7179147
0
LINE
8
layer1
10
24.4522378
20
-8.7179147
11
24.0848938
21
-9.0393244
0
LINE
8
layer1
10
24.0848938
20
-9.0393244
11
23.7045784
21
-9.3452754
0
LINE
8
layer1
10
23.7045784
20
-9.3452754
11
23.6668386
21
-9.3835612
0
LINE
8
layer1
10
23.6668386
20
-9.3835612
11
23.6471021
21
-9.4154084
0
LINE
8
layer1
10
23.6471021
20
-9.4154084
11
23.6319365
21
-9.4521273
0
LINE
8
layer1
10
23.6319365
20
-9.4521273
11
23.6215356
21
-9.493529
0
LINE
8
layer1
10
23.6215356
20
-9.493529
11
23.6160872
21
-9.539417
0
LINE
8
layer1
10
23.6160872
20
-9.539417
11
23.6157761
21
-9.5896228
0
LINE
8
layer1
10
23.6157761
20
-9.5896228
11
23.6207848
21
-9.6439284
0
LINE
8
layer1
10
23.6207848
20
-9.6439284
11
23.6312574
21
-9.7021474
0
LINE
8
layer1
10
23.6312574
20
-9.7021474
11
23.6693159
21
-9.8294592
0
LINE
8
layer1
10
23.6693159
20
-9.8294592
11
23.7311799
21
-9.9698486
0
LINE
8
layer1
10
23.7311799
20
-9.9698486
11
23.8179791
21
-10.1215194
0
LINE
8
layer1
10
23.8179791
20
-10.1215194
11
23.9383856
21
-10.293904
0
LINE
8
layer1
10
23.9383856
20
-10.293904
11
23.9876047
21
-10.378106
0
LINE
8
layer1
10
23.9876047
20
-10.378106
11
24.0675771
21
-10.5445256
0
LINE
8
layer1
10
24.0675771
20
-10.5445256
11
24.1157869
21
-10.6625753
0
LINE
8
layer1
10
24.1157869
20
-10.6625753
11
24.1655421
21
-10.8006064
0
LINE
8
layer1
10
24.1655421
20
-10.8006064
11
24.2170022
21
-10.964503
0
LINE
8
layer1
10
24.2170022
20
-10.964503
11
24.267055
21
-11.1509761
0
LINE
8
layer1
10
24.267055
20
-11.1509761
11
24.3141304
21
-11.3610951
0
LINE
8
layer1
10
24.3141304
20
-11.3610951
11
24.3561522
21
-11.5938478
0
LINE
8
layer1
10
24.3561522
20
-11.5938478
11
24.3917412
21
-11.8525846
0
LINE
8
layer1
10
24.3917412
20
-11.8525846
11
24.4183511
21
-12.1324972
0
LINE
8
layer1
10
24.4183511
20
-12.1324972
11
24.4344588
21
-12.436391
0
LINE
8
layer1
10
24.4344588
20
-12.436391
11
24.4381259
21
-12.727347
0
ARC
8
layer1
10
16.4999871
20
0.0000232
40
15
50
298.0479536
51
301.9520428
0
LINE
8
layer1
10
23.5531428
20
-13.2382922
11
23.3030012
21
-13.0896384
0
LINE
8
layer1
10
23.3030012
20
-13.0896384
11
23.0478752
21
-12.9237418
0
LINE
8
layer1
10
23.0478752
20
-12.9237418
11
22.8187687
21
-12.7607406
0
LINE
8
layer1
10
22.8187687
20
-12.7607406
11
22.6124907
21
-12.6005513
0
LINE
8
layer1
10
22.6124907
20
-12.6005513
11
22.4319318
21
-12.447783
0
LINE
8
layer1
10
22.4319318
20
-12.447783
11
22.2735011
21
-12.301955
0
LINE
8
layer1
10
22.2735011
20
-12.301955
11
22.137037
21
-12.1653715
0
LINE
8
layer1
10
22.137037
20
-12.1653715
11
22.0208284
21
-12.0388574
0
LINE
8
layer1
10
22.0208284
20
-12.0388574
11
21.9261676
21
-11.9267526
0
LINE
8
layer1
10
21.9261676
20
-11.9267526
11
21.8480385
21
-11.8259768
0
LINE
8
layer1
10
21.8480385
20
-11.8259768
11
21.7439011
21
-11.6735089
0
LINE
8
layer1
10
21.7439011
20
-11.6735089
11
21.6955896
21
-11.5887828
0
LINE
8
layer1
10
21.6955896
20
-11.5887828
11
21.6065033
21
-11.3983155
0
LINE
8
layer1
10
21.6065033
20
-11.3983155
11
21.5185522
21
-11.2473098
0
LINE
8
layer1
10
21.5185522
20
-11.2473098
11
21.4279034
21
-11.1235393
0
LINE
8
layer1
10
21.4279034
20
-11.1235393
11
21.3366774
21
-11.0269238
0
LINE
8
layer1
10
21.3366774
20
-11.0269238
11
21.2914945
21
-10.9887448
0
LINE
8
layer1
10
21.2914945
20
-10.9887448
11
21.2469689
21
-10.9572543
0
LINE
8
layer1
10
21.2469689
20
-10.9572543
11
21.2033338
21
-10.9324207
0
LINE
8
layer1
10
21.2033338
20
-10.9324207
11
21.1608695
21
-10.9141953
0
LINE
8
layer1
10
21.1608695
20
-10.9141953
11
21.1198141
21
-10.9025018
0
LINE
8
layer1
10
21.1198141
20
-10.9025018
11
21.0804318
21
-10.8972762
0
LINE
8
layer1
10
21.0804318
20
-10.8972762
11
21.0429831
21
-10.8984449
0
LINE
8
layer1
10
21.0429831
20
-10.8984449
11
20.9909567
21
-10.9119856
0
LINE
8
layer1
10
20.9909567
20
-10.9119856
11
20.5358377
21
-11.0883729
0
LINE
8
layer1
10
20.5358377
20
-11.0883729
11
20.0738167
21
-11.2457973
0
LINE
8
layer1
10
20.0738167
20
-11.2457973
11
20.0252584
21
-11.2688664
0
LINE
8
layer1
10
20.0252584
20
-11.2688664
11
19.9958198
21
-11.2920427
0
LINE
8
layer1
10
19.9958198
20
-11.2920427
11
19.9690102
21
-11.3213602
0
LINE
8
layer1
10
19.9690102
20
-11.3213602
11
19.9450763
21
-11.3567078
0
LINE
8
layer1
10
19.9450763
20
-11.3567078
11
19.9242618
21
-11.3979649
0
LINE
8
layer1
10
19.9242618
20
-11.3979649
11
19.9067981
21
-11.4450366
0
LINE
8
layer1
10
19.9067981
20
-11.4450366
11
19.8929312
21
-11.4977802
0
LINE
8
layer1
10
19.8929312
20
-11.4977802
11
19.8828601
21
-11.55607
0
LINE
8
layer1
10
19.8828601
20
-11.55607
11
19.8750802
21
-11.6887207
0
LINE
8
layer1
10
19.8750802
20
-11.6887207
11
19.8851973
21
-11.8418024
0
LINE
8
layer1
10
19.8851973
20
-11.8418024
11
19.9148875
21
-12.0140134
0
LINE
8
layer1
10
19.9148875
20
-12.0140134
11
19.9690735
21
-12.2171833
0
LINE
8
layer1
10
19.9690735
20
-12.2171833
11
19.9865256
21
-12.3131413
0
LINE
8
layer1
10
19.9865256
20
-12.3131413
11
20.0047562
21
-12.4968767
0
LINE
8
layer1
10
20.0047562
20
-12.4968767
11
20.0096833
21
-12.6242958
0
LINE
8
layer1
10
20.0096833
20
-12.6242958
11
20.0092284
21
-12.7710199
0
LINE
8
layer1
10
20.0092284
20
-12.7710199
11
20.0015292
21
-12.9426328
0
LINE
8
layer1
10
20.0015292
20
-12.9426328
11
19.9847858
21
-13.1349792
0
LINE
8
layer1
10
19.9847858
20
-13.1349792
11
19.9571573
21
-13.3485273
0
LINE
8
layer1
10
19.9571573
20
-13.3485273
11
19.9170388
21
-13.5816156
0
LINE
8
layer1
10
19.9170388
20
-13.5816156
11
19.8619883
21
-13.8369207
0
LINE
8
layer1
10
19.8619883
20
-13.8369207
11
19.7912577
21
-14.1090536
0
LINE
8
layer1
10
19.7912577
20
-14.1090536
11
19.7024561
21
-14.4001296
0
LINE
8
layer1
10
19.7024561
20
-14.4001296
11
19.6063893
21
-14.674793
0
ARC
8
layer1
10
16.4999957
20
0.0000262
40
15
50
278.0479539
51
281.9520433
0
LINE
8
layer1
10
18.6000237
20
-14.8522424
11
18.41581
21
-14.627
0
LINE
8
layer1
10
18.41581
20
-14.627
11
18.23281
21
-14.38385
0
LINE
8
layer1
10
18.23281
20
-14.38385
11
18.07327
21
-14.15232
0
LINE
8
layer1
10
18.07327
20
-14.15232
11
17.93422
21
-13.93124
0
LINE
8
layer1
10
17.93422
20
-13.93124
11
17.8168
21
-13.72593
0
LINE
8
layer1
10
17.8168
20
-13.72593
11
17.7178
21
-13.53471
0
LINE
8
layer1
10
17.7178
20
-13.53471
11
17.63628
21
-13.35969
0
LINE
8
layer1
10
17.63628
20
-13.35969
11
17.57035
21
-13.20106
0
LINE
8
layer1
10
17.57035
20
-13.20106
11
17.51974
21
-13.06334
0
LINE
8
layer1
10
17.51974
20
-13.06334
11
17.48079
21
-12.94192
0
LINE
8
layer1
10
17.48079
20
-12.94192
11
17.43508
21
-12.76303
0
LINE
8
layer1
10
17.43508
20
-12.76303
11
17.41866
21
-12.66689
0
LINE
8
layer1
10
17.41866
20
-12.66689
11
17.40009
21
-12.45744
0
LINE
8
layer1
10
17.40009
20
-12.45744
11
17.36909
21
-12.28546
0
LINE
8
layer1
10
17.36909
20
-12.28546
11
17.32624
21
-12.13815
0
LINE
8
layer1
10
17.32624
20
-12.13815
11
17.27356
21
-12.01616
0
LINE
8
layer1
10
17.27356
20
-12.01616
11
17.24416
21
-11.96483
0
LINE
8
layer1
10
17.24416
20
-11.96483
11
17.21309
21
-11.92001
0
LINE
8
layer1
10
17.21309
20
-11.92001
11
17.18058
21
-11.88175
0
LINE
8
layer1
10
17.18058
20
-11.88175
11
17.14691
21
-11.8501
0
LINE
8
layer1
10
17.14691
20
-11.8501
11
17.11233
21
-11.82507
0
LINE
8
layer1
10
17.11233
20
-11.82507
11
17.07711
21
-11.80669
0
LINE
8
layer1
10
17.07711
20
-11.80669
11
17.04152
21
-11.79498
0
LINE
8
layer1
10
17.04152
20
-11.79498
11
16.988
21
-11.78991
0
LINE
8
layer1
10
16.988
20
-11.78991
11
16.5
21
-11.8
0
LINE
8
layer1
10
16.5
20
-11.8
11
16.012
21
-11.78991
0
LINE
8
layer1
10
16.012
20
-11.78991
11
15.95848
21
-11.79498
0
LINE
8
layer1
10
15.95848
20
-11.79498
11
15.92289
21
-11.80669
0
LINE
8
layer1
10
15.92289
20
-11.80669
11
15.88767
21
-11.82507
0
LINE
8
layer1
10
15.88767
20
-11.82507
11
15.85309
21
-11.8501
0
LINE
8
layer1
10
15.85309
20
-11.8501
11
15.81942
21
-11.88175
0
LINE
8
layer1
10
15.81942
20
-11.88175
11
15.78691
21
-11.92001
0
LINE
8
layer1
10
15.78691
20
-11.92001
11
15.75584
21
-11.96483
0
LINE
8
layer1
10
15.75584
20
-11.96483
11
15.72644
21
-12.01616
0
LINE
8
layer1
10
15.72644
20
-12.01616
11
15.67376
21
-12.13815
0
LINE
8
layer1
10
15.67376
20
-12.13815
11
15.63091
21
-12.28546
0
LINE
8
layer1
10
15.63091
20
-12.28546
11
15.59991
21
-12.45744
0
LINE
8
layer1
10
15.59991
20
-12.45744
11
15.58134
21
-12.66689
0
LINE
8
layer1
10
15.58134
20
-12.66689
11
15.56492
21
-12.76303
0
LINE
8
layer1
10
15.56492
20
-12.76303
11
15.51921
21
-12.94192
0
LINE
8
layer1
10
15.51921
20
-12.94192
11
15.48026
21
-13.06334
0
LINE
8
layer1
10
15.48026
20
-13.06334
11
15.42965
21
-13.20106
0
LINE
8
layer1
10
15.42965
20
-13.20106
11
15.36372
21
-13.35969
0
LINE
8
layer1
10
15.36372
20
-13.35969
11
15.2822
21
-13.53471
0
LINE
8
layer1
10
15.2822
20
-13.53471
11
15.1832
21
-13.72593
0
LINE
8
layer1
10
15.1832
20
-13.72593
11
15.06578
21
-13.93124
0
LINE
8
layer1
10
15.06578
20
-13.93124
11
14.92673
21
-14.15232
0
LINE
8
layer1
10
14.92673
20
-14.15232
11
14.76719
21
-14.38385
0
LINE
8
layer1
10
14.76719
20
-14.38385
11
14.58419
21
-14.627
0
LINE
8
layer1
10
14.58419
20
-14.627
11
14.3999763
21
-14.8522424
0
ARC
8
layer1
10
16.5000042
20
0.0000262
40
15
50
258.0479567
51
261.9520461
0
LINE
8
layer1
10
13.3936107
20
-14.674793
11
13.2975439
21
-14.4001296
0
LINE
8
layer1
10
13.2975439
20
-14.4001296
11
13.2087423
21
-14.1090536
0
LINE
8
layer1
10
13.2087423
20
-14.1090536
11
13.1380117
21
-13.8369207
0
LINE
8
layer1
10
13.1380117
20
-13.8369207
11
13.0829612
21
-13.5816156
0
LINE
8
layer1
10
13.0829612
20
-13.5816156
11
13.0428427
21
-13.3485273
0
LINE
8
layer1
10
13.0428427
20
-13.3485273
11
13.0152142
21
-13.1349792
0
LINE
8
layer1
10
13.0152142
20
-13.1349792
11
12.9984708
21
-12.9426328
0
LINE
8
layer1
10
12.9984708
20
-12.9426328
11
12.9907716
21
-12.7710199
0
LINE
8
layer1
10
12.9907716
20
-12.7710199
11
12.9903167
21
-12.6242958
0
LINE
8
layer1
10
12.9903167
20
-12.6242958
11
12.9952438
21
-12.4968767
0
LINE
8
layer1
10
12.9952438
20
-12.4968767
11
13.0134744
21
-12.3131413
0
LINE
8
layer1
10
13.0134744
20
-12.3131413
11
13.0309265
21
-12.2171833
0
LINE
8
layer1
10
13.0309265
20
-12.2171833
11
13.0851125
21
-12.0140134
0
LINE
8
layer1
10
13.0851125
20
-12.0140134
11
13.1148027
21
-11.8418024
0
LINE
8
layer1
10
13.1148027
20
-11.8418024
11
13.1249198
21
-11.6887207
0
LINE
8
layer1
10
13.1249198
20
-11.6887207
11
13.1171399
21
-11.55607
0
LINE
8
layer1
10
13.1171399
20
-11.55607
11
13.1070688
21
-11.4977802
0
LINE
8
layer1
10
13.1070688
20
-11.4977802
11
13.0932019
21
-11.4450366
0
LINE
8
layer1
10
13.0932019
20
-11.4450366
11
13.0757382
21
-11.3979649
0
LINE
8
layer1
10
13.0757382
20
-11.3979649
11
13.0549237
21
-11.3567078
0
LINE
8
layer1
10
13.0549237
20
-11.3567078
11
13.0309898
21
-11.3213602
0
LINE
8
layer1
10
13.0309898
20
-11.3213602
11
13.0041802
21
-11.2920427
0
LINE
8
layer1
10
13.0041802
20
-11.2920427
11
12.9747416
21
-11.2688664
0
LINE
8
layer1
10
12.9747416
20
-11.2688664
11
12.9261833
21
-11.2457973
0
LINE
8
layer1
10
12.9261833
20
-11.2457973
11
12.4641623
21
-11.0883729
0
LINE
8
layer1
10
12.4641623
20
-11.0883729
11
12.0090433
21
-10.9119856
0
LINE
8
layer1
10
12.0090433
20
-10.9119856
11
11.9570169
21
-10.8984449
0
LINE
8
layer1
10
11.9570169
20
-10.8984449
11
11.9195682
21
-10.8972762
0
LINE
8
layer1
10
11.9195682
20
-10.8972762
11
11.8801859
21
-10.9025018
0
LINE
8
layer1
10
11.8801859
20
-10.9025018
11
11.8391305
21
-10.9141953
0
LINE
8
layer1
10
11.8391305
20
-10.9141953
11
11.7966662
21
-10.9324207
0
LINE
8
layer1
10
11.7966662
20
-10.9324207
11
11.7530311
21
-10.9572543
0
LINE
8
layer1
10
11.7530311
20
-10.9572543
11
11.7085055
21
-10.9887448
0
LINE
8
layer1
10
11.7085055
20
-10.9887448
11
11.6633226
21
-11.0269238
0
LINE
8
layer1
10
11.6633226
20
-11.0269238
11
11.5720966
21
-11.1235393
0
LINE
8
layer1
10
11.5720966
20
-11.1235393
11
11.4814478
21
-11.2473098
0
LINE
8
layer1
10
11.4814478
20
-11.2473098
11
11.3934967
21
-11.3983155
0
LINE
8
layer1
10
11.3934967
20
-11.3983155
11
11.3044104
21
-11.5887828
0
LINE
8
layer1
10
11.3044104
20
-11.5887828
11
11.2560989
21
-11.6735089
0
LINE
8
layer1
10
11.2560989
20
-11.6735089
11
11.1519615
21
-11.8259768
0
LINE
8
layer1
10
11.1519615
20
-11.8259768
11
11.0738324
21
-11.9267526
0
LINE
8
layer1
10
11.0738324
20
-11.9267526
11
10.9791716
21
-12.0388574
0
LINE
8
layer1
10
10.9791716
20
-12.0388574
11
10.862963
21
-12.1653715
0
LINE
8
layer1
10
10.862963
20
-12.1653715
11
10.7264989
21
-12.301955
0
LINE
8
layer1
10
10.7264989
20
-12.301955
11
10.5680682
21
-12.447783
0
LINE
8
layer1
10
10.5680682
20
-12.447783
11
10.3875093
21
-12.6005513
0
LINE
8
layer1
10
10.3875093
20
-12.6005513
11
10.1812313
21
-12.7607406
0
LINE
8
layer1
10
10.1812313
20
-12.7607406
11
9.9521248
21
-12.9237418
0
LINE
8
layer1
10
9.9521248
20
-12.9237418
11
9.6969988
21
-13.0896384
0
LINE
8
layer1
10
9.6969988
20
-13.0896384
11
9.4468572
21
-13.2382922
0
ARC
8
layer1
10
16.500013
20
0.0000232
40
15
50
238.0479568
51
241.952046
0
LINE
8
layer1
10
8.5618741
20
-12.727347
11
8.5655412
21
-12.436391
0
LINE
8
layer1
10
8.5655412
20
-12.436391
11
8.5816489
21
-12.1324972
0
LINE
8
layer1
10
8.5816489
20
-12.1324972
11
8.6082588
21
-11.8525846
0
LINE
8
layer1
10
8.6082588
20
-11.8525846
11
8.6438478
21
-11.5938478
0
LINE
8
layer1
10
8.6438478
20
-11.5938478
11
8.6858696
21
-11.3610951
0
LINE
8
layer1
10
8.6858696
20
-11.3610951
11
8.732945
21
-11.1509761
0
LINE
8
layer1
10
8.732945
20
-11.1509761
11
8.7829978
21
-10.964503
0
LINE
8
layer1
10
8.7829978
20
-10.964503
11
8.8344579
21
-10.8006064
0
LINE
8
layer1
10
8.8344579
20
-10.8006064
11
8.8842131
21
-10.6625753
0
LINE
8
layer1
10
8.8842131
20
-10.6625753
11
8.9324229
21
-10.5445256
0
LINE
8
layer1
10
8.9324229
20
-10.5445256
11
9.0123953
21
-10.378106
0
LINE
8
layer1
10
9.0123953
20
-10.378106
11
9.0616144
21
-10.293904
0
LINE
8
layer1
10
9.0616144
20
-10.293904
11
9.1820209
21
-10.1215194
0
LINE
8
layer1
10
9.1820209
20
-10.1215194
11
9.2688201
21
-9.9698486
0
LINE
8
layer1
10
9.2688201
20
-9.9698486
11
9.3306841
21
-9.8294592
0
LINE
8
layer1
10
9.3306841
20
-9.8294592
11
9.3687426
21
-9.7021474
0
LINE
8
layer1
10
9.3687426
20
-9.7021474
11
9.3792152
21
-9.6439284
0
LINE
8
layer1
10
9.3792152
20
-9.6439284
11
9.3842239
21
-9.5896228
0
LINE
8
layer1
10
9.3842239
20
-9.5896228
11
9.3839128
21
-9.539417
0
LINE
8
layer1
10
9.3839128
20
-9.539417
11
9.3784644
21
-9.493529
0
LINE
8
layer1
10
9.3784644
20
-9.493529
11
9.3680635
21
-9.4521273
0
LINE
8
layer1
10
9.3680635
20
-9.4521273
11
9.3528979
21
-9.4154084
0
LINE
8
layer1
10
9.3528979
20
-9.4154084
11
9.3331614
21
-9.3835612
0
LINE
8
layer1
10
9.3331614
20
-9.3835612
11
9.2954216
21
-9.3452754
0
LINE
8
layer1
10
9.2954216
20
-9.3452754
11
8.9151062
21
-9.0393244
0
LINE
8
layer1
10
8.9151062
20
-9.0393244
11
8.5477622
21
-8.7179147
0
LINE
8
layer1
10
8.5477622
20
-8.7179147
11
8.5035046
21
-8.6873965
0
LINE
8
layer1
10
8.5035046
20
-8.6873965
11
8.468714
21
-8.6734901
0
LINE
8
layer1
10
8.468714
20
-8.6734901
11
8.4299195
21
-8.664931
0
LINE
8
layer1
10
8.4299195
20
-8.664931
11
8.3873407
21
-8.6618775
0
LINE
8
layer1
10
8.3873407
20
-8.6618775
11
8.3412038
21
-8.6644802
0
LINE
8
layer1
10
8.3412038
20
-8.6644802
11
8.2917066
21
-8.672892
0
LINE
8
layer1
10
8.2917066
20
-8.672892
11
8.2390959
21
-8.6872547
0
LINE
8
layer1
10
8.2390959
20
-8.6872547
11
8.1835799
21
-8.7076778
0
LINE
8
layer1
10
8.1835799
20
-8.7076778
11
8.064811
21
-8.7672655
0
LINE
8
layer1
10
8.064811
20
-8.7672655
11
7.937297
21
-8.8525681
0
LINE
8
layer1
10
7.937297
20
-8.8525681
11
7.803003
21
-8.964386
0
LINE
8
layer1
10
7.803003
20
-8.964386
11
7.6541457
21
-9.1128974
0
LINE
8
layer1
10
7.6541457
20
-9.1128974
11
7.5797696
21
-9.1759904
0
LINE
8
layer1
10
7.5797696
20
-9.1759904
11
7.4297654
21
-9.2836462
0
LINE
8
layer1
10
7.4297654
20
-9.2836462
11
7.3218807
21
-9.3516228
0
LINE
8
layer1
10
7.3218807
20
-9.3516228
11
7.1945865
21
-9.4245909
0
LINE
8
layer1
10
7.1945865
20
-9.4245909
11
7.0421158
21
-9.5037296
0
LINE
8
layer1
10
7.0421158
20
-9.5037296
11
6.8671672
21
-9.5854026
0
LINE
8
layer1
10
6.8671672
20
-9.5854026
11
6.6684149
21
-9.6682497
0
LINE
8
layer1
10
6.6684149
20
-9.6682497
11
6.4464953
21
-9.7500501
0
LINE
8
layer1
10
6.4464953
20
-9.7500501
11
6.1978693
21
-9.8300276
0
LINE
8
layer1
10
6.1978693
20
-9.8300276
11
5.92683
21
-9.9048396
0
LINE
8
layer1
10
5.92683
20
-9.9048396
11
5.63035
21
-9.9734731
0
LINE
8
layer1
10
5.63035
20
-9.9734731
11
5.3444511
21
-10.0276086
0
ARC
8
layer1
10
16.5000205
20
0.0000168
40
15
50
218.0479543
51
221.9520435
0
LINE
8
layer1
10
4.6875926
20
-9.2447951
11
4.7905514
21
-8.9726401
0
LINE
8
layer1
10
4.7905514
20
-8.9726401
11
4.9096255
21
-8.6925825
0
LINE
8
layer1
10
4.9096255
20
-8.6925825
11
5.0303664
21
-8.4386518
0
LINE
8
layer1
10
5.0303664
20
-8.4386518
11
5.1523023
21
-8.207691
0
LINE
8
layer1
10
5.1523023
20
-8.207691
11
5.2713959
21
-8.0033473
0
LINE
8
layer1
10
5.2713959
20
-8.0033473
11
5.3874973
21
-7.8220007
0
LINE
8
layer1
10
5.3874973
20
-7.8220007
11
5.4983091
21
-7.6638923
0
LINE
8
layer1
10
5.4983091
20
-7.6638923
11
5.6027217
21
-7.5274803
0
LINE
8
layer1
10
5.6027217
20
-7.5274803
11
5.6966857
21
-7.4147907
0
LINE
8
layer1
10
5.6966857
20
-7.4147907
11
5.7823635
21
-7.3203491
0
LINE
8
layer1
10
5.7823635
20
-7.3203491
11
5.9144318
21
-7.191318
0
LINE
8
layer1
10
5.9144318
20
-7.191318
11
5.9894815
21
-7.1290279
0
LINE
8
layer1
10
5.9894815
20
-7.1290279
11
6.1615855
21
-7.0082208
0
LINE
8
layer1
10
6.1615855
20
-7.0082208
11
6.2950245
21
-6.895384
0
LINE
8
layer1
10
6.2950245
20
-6.895384
11
6.4011737
21
-6.7846198
0
LINE
8
layer1
10
6.4011737
20
-6.7846198
11
6.4804802
21
-6.6780026
0
LINE
8
layer1
10
6.4804802
20
-6.6780026
11
6.5102333
21
-6.6268765
0
LINE
8
layer1
10
6.5102333
20
-6.6268765
11
6.5335135
21
-6.5775591
0
LINE
8
layer1
10
6.5335135
20
-6.5775591
11
6.5503927
21
-6.5302746
0
LINE
8
layer1
10
6.5503927
20
-6.5302746
11
6.5609674
21
-6.4852905
0
LINE
8
layer1
10
6.5609674
20
-6.4852905
11
6.565354
21
-6.4428283
0
LINE
8
layer1
10
6.565354
20
-6.4428283
11
6.5636615
21
-6.4031369
0
LINE
8
layer1
10
6.5636615
20
-6.4031369
11
6.5560077
21
-6.3664601
0
LINE
8
layer1
10
6.5560077
20
-6.3664601
11
6.5336384
21
-6.3175754
0
LINE
8
layer1
10
6.5336384
20
-6.3175754
11
6.2809002
21
-5.9
0
LINE
8
layer1
10
6.2809002
20
-5.9
11
6.0456384
21
-5.4723346
0
LINE
8
layer1
10
6.0456384
20
-5.4723346
11
6.0144877
21
-5.4285199
0
LINE
8
layer1
10
6.0144877
20
-5.4285199
11
5.9865515
21
-5.4035531
0
LINE
8
layer1
10
5.9865515
20
-5.4035531
11
5.953024
21
-5.3822417
0
LINE
8
layer1
10
5.953024
20
-5.3822417
11
5.9140574
21
-5.3648095
0
LINE
8
layer1
10
5.9140574
20
-5.3648095
11
5.8698127
21
-5.3514754
0
LINE
8
layer1
10
5.8698127
20
-5.3514754
11
5.8204235
21
-5.3424509
0
LINE
8
layer1
10
5.8204235
20
-5.3424509
11
5.7660733
21
-5.3379535
0
LINE
8
layer1
10
5.7660733
20
-5.3379535
11
5.7069202
21
-5.3381574
0
LINE
8
layer1
10
5.7069202
20
-5.3381574
11
5.5749337
21
-5.3535302
0
LINE
8
layer1
10
5.5749337
20
-5.3535302
11
5.4259345
21
-5.390076
0
LINE
8
layer1
10
5.4259345
20
-5.390076
11
5.2614955
21
-5.4492192
0
LINE
8
layer1
10
5.2614955
20
-5.4492192
11
5.0708215
21
-5.5378621
0
LINE
8
layer1
10
5.0708215
20
-5.5378621
11
4.9793518
21
-5.571712
0
LINE
8
layer1
10
4.9793518
20
-5.571712
11
4.8015735
21
-5.6215709
0
LINE
8
layer1
10
4.8015735
20
-5.6215709
11
4.6769457
21
-5.6485493
0
LINE
8
layer1
10
4.6769457
20
-5.6485493
11
4.5323717
21
-5.6735797
0
LINE
8
layer1
10
4.5323717
20
-5.6735797
11
4.3620291
21
-5.6957977
0
LINE
8
layer1
10
4.3620291
20
-5.6957977
11
4.1696973
21
-5.7127093
0
LINE
8
layer1
10
4.1696973
20
-5.7127093
11
3.9545959
21
-5.7225827
0
LINE
8
layer1
10
3.9545959
20
-5.7225827
11
3.7180823
21
-5.723549
0
LINE
8
layer1
10
3.7180823
20
-5.723549
11
3.4570964
21
-5.7136682
0
LINE
8
layer1
10
3.4570964
20
-5.7136682
11
3.1768155
21
-5.6912675
0
LINE
8
layer1
10
3.1768155
20
-5.6912675
11
2.8747414
21
-5.6543599
0
LINE
8
layer1
10
2.8747414
20
-5.6543599
11
2.5875689
21
-5.6074474
0
ARC
8
layer1
10
16.500025
20
0.0000088
40
15
50
198.0479545
51
201.9520437
0
LINE
8
layer1
10
2.2380618
20
-4.6471844
11
2.4278939
21
-4.4266564
0
LINE
8
layer1
10
2.4278939
20
-4.4266564
11
2.6355723
21
-4.2042141
0
LINE
8
layer1
10
2.6355723
20
-4.2042141
11
2.835881
21
-4.0068931
0
LINE
8
layer1
10
2.835881
20
-4.0068931
11
3.0294565
21
-3.8315654
0
LINE
8
layer1
10
3.0294565
20
-3.8315654
11
3.2112576
21
-3.6802776
0
LINE
8
layer1
10
3.2112576
20
-3.6802776
11
3.3823814
21
-3.5495766
0
LINE
8
layer1
10
3.3823814
20
-3.5495766
11
3.5405867
21
-3.4389032
0
LINE
8
layer1
10
3.5405867
20
-3.4389032
11
3.6853581
21
-3.346429
0
LINE
8
layer1
10
3.6853581
20
-3.346429
11
3.8121975
21
-3.272673
0
LINE
8
layer1
10
3.8121975
20
-3.272673
11
3.9250092
21
-3.2132304
0
LINE
8
layer1
10
3.9250092
20
-3.2132304
11
4.093244
21
-3.1371509
0
LINE
8
layer1
10
4.093244
20
-3.1371509
11
4.1850722
21
-3.1042859
0
LINE
8
layer1
10
4.1850722
20
-3.1042859
11
4.3881155
21
-3.0496274
0
LINE
8
layer1
10
4.3881155
20
-3.0496274
11
4.5520996
21
-2.9892343
0
LINE
8
layer1
10
4.5520996
20
-2.9892343
11
4.6897308
21
-2.9214552
0
LINE
8
layer1
10
4.6897308
20
-2.9214552
11
4.8007198
21
-2.8483922
0
LINE
8
layer1
10
4.8007198
20
-2.8483922
11
4.8461647
21
-2.8105255
0
LINE
8
layer1
10
4.8461647
20
-2.8105255
11
4.8849085
21
-2.7721446
0
LINE
8
layer1
10
4.8849085
20
-2.7721446
11
4.916942
21
-2.7334847
0
LINE
8
layer1
10
4.916942
20
-2.7334847
11
4.9422644
21
-2.6948303
0
LINE
8
layer1
10
4.9422644
20
-2.6948303
11
4.9609094
21
-2.6564292
0
LINE
8
layer1
10
4.9609094
20
-2.6564292
11
4.9728943
21
-2.6185526
0
LINE
8
layer1
10
4.9728943
20
-2.6185526
11
4.9782462
21
-2.5814699
0
LINE
8
layer1
10
4.9782462
20
-2.5814699
11
4.9739455
21
-2.5278826
0
LINE
8
layer1
10
4.9739455
20
-2.5278826
11
4.8792685
21
-2.0490485
0
LINE
8
layer1
10
4.8792685
20
-2.0490485
11
4.8044649
21
-1.5667102
0
LINE
8
layer1
10
4.8044649
20
-1.5667102
11
4.7901783
21
-1.5148837
0
LINE
8
layer1
10
4.7901783
20
-1.5148837
11
4.7724661
21
-1.4818678
0
LINE
8
layer1
10
4.7724661
20
-1.4818678
11
4.7482494
21
-1.4503745
0
LINE
8
layer1
10
4.7482494
20
-1.4503745
11
4.7175949
21
-1.4206663
0
LINE
8
layer1
10
4.7175949
20
-1.4206663
11
4.680579
21
-1.3930038
0
LINE
8
layer1
10
4.680579
20
-1.3930038
11
4.637255
21
-1.3676315
0
LINE
8
layer1
10
4.637255
20
-1.3676315
11
4.5877206
21
-1.3448164
0
LINE
8
layer1
10
4.5877206
20
-1.3448164
11
4.5320652
21
-1.3247764
0
LINE
8
layer1
10
4.5320652
20
-1.3247764
11
4.4027807
21
-1.2940801
0
LINE
8
layer1
10
4.4027807
20
-1.2940801
11
4.2502678
21
-1.2774612
0
LINE
8
layer1
10
4.2502678
20
-1.2774612
11
4.0755175
21
-1.2767961
0
LINE
8
layer1
10
4.0755175
20
-1.2767961
11
3.8660249
21
-1.2948789
0
LINE
8
layer1
10
3.8660249
20
-1.2948789
11
3.7684942
21
-1.2954029
0
LINE
8
layer1
10
3.7684942
20
-1.2954029
11
3.5843844
21
-1.2814512
0
LINE
8
layer1
10
3.5843844
20
-1.2814512
11
3.4580455
21
-1.2641773
0
LINE
8
layer1
10
3.4580455
20
-1.2641773
11
3.3136294
21
-1.238251
0
LINE
8
layer1
10
3.3136294
20
-1.238251
11
3.1459608
21
-1.2008685
0
LINE
8
layer1
10
3.1459608
20
-1.2008685
11
2.9594439
21
-1.1509788
0
LINE
8
layer1
10
2.9594439
20
-1.1509788
11
2.7539378
21
-1.0866879
0
LINE
8
layer1
10
2.7539378
20
-1.0866879
11
2.5313571
21
-1.0067035
0
LINE
8
layer1
10
2.5313571
20
-1.0067035
11
2.2894901
21
-0.9081561
0
LINE
8
layer1
10
2.2894901
20
-0.9081561
11
2.0337737
21
-0.7912446
0
LINE
8
layer1
10
2.0337737
20
-0.7912446
11
1.7625401
21
-0.6532474
0
LINE
8
layer1
10
1.7625401
20
-0.6532474
11
1.5087312
21
-0.5109452
0
ARC
8
layer1
10
16.5000265
20
1e-7
40
15
50
178.0479555
51
181.9520449
0
LINE
8
layer1
10
1.5087312
20
0.5109452
11
1.7625401
21
0.6532474
0
LINE
8
layer1
10
1.7625401
20
0.6532474
11
2.0337737
21
0.7912446
0
LINE
8
layer1
10
2.0337737
20
0.7912446
11
2.2894901
21
0.9081561
0
LINE
8
layer1
10
2.2894901
20
0.9081561
11
2.5313571
21
1.0067035
0
LINE
8
layer1
10
2.5313571
20
1.0067035
11
2.7539378
21
1.0866879
0
LINE
8
layer1
10
2.7539378
20
1.0866879
11
2.9594439
21
1.1509788
0
LINE
8
layer1
10
2.9594439
20
1.1509788
11
3.1459608
21
1.2008685
0
LINE
8
layer1
10
3.1459608
20
1.2008685
11
3.3136294
21
1.238251
0
LINE
8
layer1
10
3.3136294
20
1.238251
11
3.4580455
21
1.2641773
0
LINE
8
layer1
10
3.4580455
20
1.2641773
11
3.5843844
21
1.2814512
0
LINE
8
layer1
10
3.5843844
20
1.2814512
11
3.7684942
21
1.2954029
0
LINE
8
layer1
10
3.7684942
20
1.2954029
11
3.8660249
21
1.2948789
0
LINE
8
layer1
10
3.8660249
20
1.2948789
11
4.0755175
21
1.2767961
0
LINE
8
layer1
10
4.0755175
20
1.2767961
11
4.2502678
21
1.2774612
0
LINE
8
layer1
10
4.2502678
20
1.2774612
11
4.4027807
21
1.2940801
0
LINE
8
layer1
10
4.4027807
20
1.2940801
11
4.5320652
21
1.3247764
0
LINE
8
layer1
10
4.5320652
20
1.3247764
11
4.5877206
21
1.3448164
0
LINE
8
layer1
10
4.5877206
20
1.3448164
11
4.637255
21
1.3676315
0
LINE
8
layer1
10
4.637255
20
1.3676315
11
4.680579
21
1.3930038
0
LINE
8
layer1
10
4.680579
20
1.3930038
11
4.7175949
21
1.4206663
0
LINE
8
layer1
10
4.7175949
20
1.4206663
11
4.7482494
21
1.4503745
0
LINE
8
layer1
10
4.7482494
20
1.4503745
11
4.7724661
21
1.4818678
0
LINE
8
layer1
10
4.7724661
20
1.4818678
11
4.7901783
21
1.5148837
0
LINE
8
layer1
10
4.7901783
20
1.5148837
11
4.8044649
21
1.5667102
0
LINE
8
layer1
10
4.8044649
20
1.5667102
11
4.8792685
21
2.0490485
0
LINE
8
layer1
10
4.8792685
20
2.0490485
11
4.9739455
21
2.5278826
0
LINE
8
layer1
10
4.9739455
20
2.5278826
11
4.9782462
21
2.5814699
0
LINE
8
layer1
10
4.9782462
20
2.5814699
11
4.9728943
21
2.6185526
0
LINE
8
layer1
10
4.9728943
20
2.6185526
11
4.9609094
21
2.6564292
0
LINE
8
layer1
10
4.9609094
20
2.6564292
11
4.9422644
21
2.6948303
0
LINE
8
layer1
10
4.9422644
20
2.6948303
11
4.916942
21
2.7334847
0
LINE
8
layer1
10
4.916942
20
2.7334847
11
4.8849085
21
2.7721446
0
LINE
8
layer1
10
4.8849085
20
2.7721446
11
4.8461647
21
2.8105255
0
LINE
8
layer1
10
4.8461647
20
2.8105255
11
4.8007198
21
2.8483922
0
LINE
8
layer1
10
4.8007198
20
2.8483922
11
4.6897308
21
2.9214552
0
LINE
8
layer1
10
4.6897308
20
2.9214552
11
4.5520996
21
2.9892343
0
LINE
8
layer1
10
4.5520996
20
2.9892343
11
4.3881155
21
3.0496274
0
LINE
8
layer1
10
4.3881155
20
3.0496274
11
4.1850722
21
3.1042859
0
LINE
8
layer1
10
4.1850722
20
3.1042859
11
4.093244
21
3.1371509
0
LINE
8
layer1
10
4.093244
20
3.1371509
11
3.9250092
21
3.2132304
0
LINE
8
layer1
10
3.9250092
20
3.2132304
11
3.8121975
21
3.272673
0
LINE
8
layer1
10
3.8121975
20
3.272673
11
3.6853581
21
3.346429
0
LINE
8
layer1
10
3.6853581
20
3.346429
11
3.5405867
21
3.4389032
0
LINE
8
layer1
10
3.5405867
20
3.4389032
11
3.3823814
21
3.5495766
0
LINE
8
layer1
10
3.3823814
20
3.5495766
11
3.2112576
21
3.6802776
0
LINE
8
layer1
10
3.2112576
20
3.6802776
11
3.0294565
21
3.8315654
0
LINE
8
layer1
10
3.0294565
20
3.8315654
11
2.835881
21
4.0068931
0
LINE
8
layer1
10
2.835881
20
4.0068931
11
2.6355723
21
4.2042141
0
LINE
8
layer1
10
2.6355723
20
4.2042141
11
2.4278939
21
4.4266564
0
LINE
8
layer1
10
2.4278939
20
4.4266564
11
2.2380618
21
4.6471844
0
ARC
8
layer1
10
16.500025
20
-0.000009
40
15
50
158.047956
51
161.9520451
0
LINE
8
layer1
10
2.5875689
20
5.6074474
11
2.8747414
21
5.6543599
0
LINE
8
layer1
10
2.8747414
20
5.6543599
11
3.1768155
21
5.6912675
0
LINE
8
layer1
10
3.1768155
20
5.6912675
11
3.4570964
21
5.7136682
0
LINE
8
layer1
10
3.4570964
20
5.7136682
11
3.7180823
21
5.723549
0
LINE
8
layer1
10
3.7180823
20
5.723549
11
3.9545959
21
5.7225827
0
LINE
8
layer1
10
3.9545959
20
5.7225827
11
4.1696973
21
5.7127093
0
LINE
8
layer1
10
4.1696973
20
5.7127093
11
4.3620291
21
5.6957977
0
LINE
8
layer1
10
4.3620291
20
5.6957977
11
4.5323717
21
5.6735797
0
LINE
8
layer1
10
4.5323717
20
5.6735797
11
4.6769457
21
5.6485493
0
LINE
8
layer1
10
4.6769457
20
5.6485493
11
4.8015735
21
5.6215709
0
LINE
8
layer1
10
4.8015735
20
5.6215709
11
4.9793518
21
5.571712
0
LINE
8
layer1
10
4.9793518
20
5.571712
11
5.0708215
21
5.5378621
0
LINE
8
layer1
10
5.0708215
20
5.5378621
11
5.2614955
21
5.4492192
0
LINE
8
layer1
10
5.2614955
20
5.4492192
11
5.4259345
21
5.390076
0
LINE
8
layer1
10
5.4259345
20
5.390076
11
5.5749337
21
5.3535302
0
LINE
8
layer1
10
5.5749337
20
5.3535302
11
5.7069202
21
5.3381574
0
LINE
8
layer1
10
5.7069202
20
5.3381574
11
5.7660733
21
5.3379535
0
LINE
8
layer1
10
5.7660733
20
5.3379535
11
5.8204235
21
5.3424509
0
LINE
8
layer1
10
5.8204235
20
5.3424509
11
5.8698127
21
5.3514754
0
LINE
8
layer1
10
5.8698127
20
5.3514754
11
5.9140574
21
5.3648095
0
LINE
8
layer1
10
5.9140574
20
5.3648095
11
5.953024
21
5.3822417
0
LINE
8
layer1
10
5.953024
20
5.3822417
11
5.9865515
21
5.4035531
0
LINE
8
layer1
10
5.9865515
20
5.4035531
11
6.0144877
21
5.4285199
0
LINE
8
layer1
10
6.0144877
20
5.4285199
11
6.0456384
21
5.4723346
0
LINE
8
layer1
10
6.0456384
20
5.4723346
11
6.2809002
21
5.9
0
LINE
8
layer1
10
6.2809002
20
5.9
11
6.5336384
21
6.3175754
0
LINE
8
layer1
10
6.5336384
20
6.3175754
11
6.5560077
21
6.3664601
0
LINE
8
layer1
10
6.5560077
20
6.3664601
11
6.5636615
21
6.4031369
0
LINE
8
layer1
10
6.5636615
20
6.4031369
11
6.565354
21
6.4428283
0
LINE
8
layer1
10
6.565354
20
6.4428283
11
6.5609674
21
6.4852905
0
LINE
8
layer1
10
6.5609674
20
6.4852905
11
6.5503927
21
6.5302746
0
LINE
8
layer1
10
6.5503927
20
6.5302746
11
6.5335135
21
6.5775591
0
LINE
8
layer1
10
6.5335135
20
6.5775591
11
6.5102333
21
6.6268765
0
LINE
8
layer1
10
6.5102333
20
6.6268765
11
6.4804802
21
6.6780026
0
LINE
8
layer1
10
6.4804802
20
6.6780026
11
6.4011737
21
6.7846198
0
LINE
8
layer1
10
6.4011737
20
6.7846198
11
6.2950245
21
6.895384
0
LINE
8
layer1
10
6.2950245
20
6.895384
11
6.1615855
21
7.0082208
0
LINE
8
layer1
10
6.1615855
20
7.0082208
11
5.9894815
21
7.1290279
0
LINE
8
layer1
10
5.9894815
20
7.1290279
11
5.9144318
21
7.191318
0
LINE
8
layer1
10
5.9144318
20
7.191318
11
5.7823635
21
7.3203491
0
LINE
8
layer1
10
5.7823635
20
7.3203491
11
5.6966857
21
7.4147907
0
LINE
8
layer1
10
5.6966857
20
7.4147907
11
5.6027217
21
7.5274803
0
LINE
8
layer1
10
5.6027217
20
7.5274803
11
5.4983091
21
7.6638923
0
LINE
8
layer1
10
5.4983091
20
7.6638923
11
5.3874973
21
7.8220007
0
LINE
8
layer1
10
5.3874973
20
7.8220007
11
5.2713959
21
8.0033473
0
LINE
8
layer1
10
5.2713959
20
8.0033473
11
5.1523023
21
8.207691
0
LINE
8
layer1
10
5.1523023
20
8.207691
11
5.0303664
21
8.4386518
0
LINE
8
layer1
10
5.0303664
20
8.4386518
11
4.9096255
21
8.6925825
0
LINE
8
layer1
10
4.9096255
20
8.6925825
11
4.7905514
21
8.9726401
0
LINE
8
layer1
10
4.7905514
20
8.9726401
11
4.6875926
21
9.2447951
0
ARC
8
layer1
10
16.5000204
20
-0.0000169
40
15
50
138.047956
51
141.9520452
0
LINE
8
layer1
10
5.3444511
20
10.0276086
11
5.63035
21
9.9734731
0
LINE
8
layer1
10
5.63035
20
9.9734731
11
5.92683
21
9.9048396
0
LINE
8
layer1
10
5.92683
20
9.9048396
11
6.1978693
21
9.8300276
0
LINE
8
layer1
10
6.1978693
20
9.8300276
11
6.4464953
21
9.7500501
0
LINE
8
layer1
10
6.4464953
20
9.7500501
11
6.6684149
21
9.6682497
0
LINE
8
layer1
10
6.6684149
20
9.6682497
11
6.8671672
21
9.5854026
0
LINE
8
layer1
10
6.8671672
20
9.5854026
11
7.0421158
21
9.5037296
0
LINE
8
layer1
10
7.0421158
20
9.5037296
11
7.1945865
21
9.4245909
0
LINE
8
layer1
10
7.1945865
20
9.4245909
11
7.3218807
21
9.3516228
0
LINE
8
layer1
10
7.3218807
20
9.3516228
11
7.4297654
21
9.2836462
0
LINE
8
layer1
10
7.4297654
20
9.2836462
11
7.5797696
21
9.1759904
0
LINE
8
layer1
10
7.5797696
20
9.1759904
11
7.6541457
21
9.1128974
0
LINE
8
layer1
10
7.6541457
20
9.1128974
11
7.803003
21
8.964386
0
LINE
8
layer1
10
7.803003
20
8.964386
11
7.937297
21
8.8525681
0
LINE
8
layer1
10
7.937297
20
8.8525681
11
8.064811
21
8.7672655
0
LINE
8
layer1
10
8.064811
20
8.7672655
11
8.1835799
21
8.7076778
0
LINE
8
layer1
10
8.1835799
20
8.7076778
11
8.2390959
21
8.6872547
0
LINE
8
layer1
10
8.2390959
20
8.6872547
11
8.2917066
21
8.672892
0
LINE
8
layer1
10
8.2917066
20
8.672892
11
8.3412038
21
8.6644802
0
LINE
8
layer1
10
8.3412038
20
8.6644802
11
8.3873407
21
8.6618775
0
LINE
8
layer1
10
8.3873407
20
8.6618775
11
8.4299195
21
8.664931
0
LINE
8
layer1
10
8.4299195
20
8.664931
11
8.468714
21
8.6734901
0
LINE
8
layer1
10
8.468714
20
8.6734901
11
8.5035046
21
8.6873965
0
LINE
8
layer1
10
8.5035046
20
8.6873965
11
8.5477622
21
8.7179147
0
LINE
8
layer1
10
8.5477622
20
8.7179147
11
8.9151062
21
9.0393244
0
LINE
8
layer1
10
8.9151062
20
9.0393244
11
9.2954216
21
9.3452754
0
LINE
8
layer1
10
9.2954216
20
9.3452754
11
9.3331614
21
9.3835612
0
LINE
8
layer1
10
9.3331614
20
9.3835612
11
9.3528979
21
9.4154084
0
LINE
8
layer1
10
9.3528979
20
9.4154084
11
9.3680635
21
9.4521273
0
LINE
8
layer1
10
9.3680635
20
9.4521273
11
9.3784644
21
9.493529
0
LINE
8
layer1
10
9.3784644
20
9.493529
11
9.3839128
21
9.539417
0
LINE
8
layer1
10
9.3839128
20
9.539417
11
9.3842239
21
9.5896228
0
LINE
8
layer1
10
9.3842239
20
9.5896228
11
9.3792152
21
9.6439284
0
LINE
8
layer1
10
9.3792152
20
9.6439284
11
9.3687426
21
9.7021474
0
LINE
8
layer1
10
9.3687426
20
9.7021474
11
9.3306841
21
9.8294592
0
LINE
8
layer1
10
9.3306841
20
9.8294592
11
9.2688201
21
9.9698486
0
LINE
8
layer1
10
9.2688201
20
9.9698486
11
9.1820209
21
10.1215194
0
LINE
8
layer1
10
9.1820209
20
10.1215194
11
9.0616144
21
10.293904
0
LINE
8
layer1
10
9.0616144
20
10.293904
11
9.0123953
21
10.378106
0
LINE
8
layer1
10
9.0123953
20
10.378106
11
8.9324229
21
10.5445256
0
LINE
8
layer1
10
8.9324229
20
10.5445256
11
8.8842131
21
10.6625753
0
LINE
8
layer1
10
8.8842131
20
10.6625753
11
8.8344579
21
10.8006064
0
LINE
8
layer1
10
8.8344579
20
10.8006064
11
8.7829978
21
10.964503
0
LINE
8
layer1
10
8.7829978
20
10.964503
11
8.732945
21
11.1509761
0
LINE
8
layer1
10
8.732945
20
11.1509761
11
8.6858696
21
11.3610951
0
LINE
8
layer1
10
8.6858696
20
11.3610951
11
8.6438478
21
11.5938478
0
LINE
8
layer1
10
8.6438478
20
11.5938478
11
8.6082588
21
11.8525846
0
LINE
8
layer1
10
8.6082588
20
11.8525846
11
8.5816489
21
12.1324972
0
LINE
8
layer1
10
8.5816489
20
12.1324972
11
8.5655412
21
12.436391
0
LINE
8
layer1
10
8.5655412
20
12.436391
11
8.5618741
21
12.727347
0
ARC
8
layer1
10
16.5000129
20
-0.0000232
40
15
50
118.0479536
51
121.9520428
0
LINE
8
layer1
10
9.4468572
20
13.2382922
11
9.6969988
21
13.0896384
0
LINE
8
layer1
10
9.6969988
20
13.0896384
11
9.9521248
21
12.9237418
0
LINE
8
layer1
10
9.9521248
20
12.9237418
11
10.1812313
21
12.7607406
0
LINE
8
layer1
10
10.1812313
20
12.7607406
11
10.3875093
21
12.6005513
0
LINE
8
layer1
10
10.3875093
20
12.6005513
11
10.5680682
21
12.447783
0
LINE
8
layer1
10
10.5680682
20
12.447783
11
10.7264989
21
12.301955
0
LINE
8
layer1
10
10.7264989
20
12.301955
11
10.862963
21
12.1653715
0
LINE
8
layer1
10
10.862963
20
12.1653715
11
10.9791716
21
12.0388574
0
LINE
8
layer1
10
10.9791716
20
12.0388574
11
11.0738324
21
11.9267526
0
LINE
8
layer1
10
11.0738324
20
11.9267526
11
11.1519615
21
11.8259768
0
LINE
8
layer1
10
11.1519615
20
11.8259768
11
11.2560989
21
11.6735089
0
LINE
8
layer1
10
11.2560989
20
11.6735089
11
11.3044104
21
11.5887828
0
LINE
8
layer1
10
11.3044104
20
11.5887828
11
11.3934967
21
11.3983155
0
LINE
8
layer1
10
11.3934967
20
11.3983155
11
11.4814478
21
11.2473098
0
LINE
8
layer1
10
11.4814478
20
11.2473098
11
11.5720966
21
11.1235393
0
LINE
8
layer1
10
11.5720966
20
11.1235393
11
11.6633226
21
11.0269238
0
LINE
8
layer1
10
11.6633226
20
11.0269238
11
11.7085055
21
10.9887448
0
LINE
8
layer1
10
11.7085055
20
10.9887448
11
11.7530311
21
10.9572543
0
LINE
8
layer1
10
11.7530311
20
10.9572543
11
11.7966662
21
10.9324207
0
LINE
8
layer1
10
11.7966662
20
10.9324207
11
11.8391305
21
10.9141953
0
LINE
8
layer1
10
11.8391305
20
10.9141953
11
11.8801859
21
10.9025018
0
LINE
8
layer1
10
11.8801859
20
10.9025018
11
11.9195682
21
10.8972762
0
LINE
8
layer1
10
11.9195682
20
10.8972762
11
11.9570169
21
10.8984449
0
LINE
8
layer1
10
11.9570169
20
10.8984449
11
12.0090433
21
10.9119856
0
LINE
8
layer1
10
12.0090433
20
10.9119856
11
12.4641623
21
11.0883729
0
LINE
8
layer1
10
12.4641623
20
11.0883729
11
12.9261833
21
11.2457973
0
LINE
8
layer1
10
12.9261833
20
11.2457973
11
12.9747416
21
11.2688664
0
LINE
8
layer1
10
12.9747416
20
11.2688664
11
13.0041802
21
11.2920427
0
LINE
8
layer1
10
13.0041802
20
11.2920427
11
13.0309898
21
11.3213602
0
LINE
8
layer1
10
13.0309898
20
11.3213602
11
13.0549237
21
11.3567078
0
LINE
8
layer1
10
13.0549237
20
11.3567078
11
13.0757382
21
11.3979649
0
LINE
8
layer1
10
13.0757382
20
11.3979649
11
13.0932019
21
11.4450366
0
LINE
8
layer1
10
13.0932019
20
11.4450366
11
13.1070688
21
11.4977802
0
LINE
8
layer1
10
13.1070688
20
11.4977802
11
13.1171399
21
11.55607
0
LINE
8
layer1
10
13.1171399
20
11.55607
11
13.1249198
21
11.6887207
0
LINE
8
layer1
10
13.1249198
20
11.6887207
11
13.1148027
21
11.8418024
0
LINE
8
layer1
10
13.1148027
20
11.8418024
11
13.0851125
21
12.0140134
0
LINE
8
layer1
10
13.0851125
20
12.0140134
11
13.0309265
21
12.2171833
0
LINE
8
layer1
10
13.0309265
20
12.2171833
11
13.0134744
21
12.3131413
0
LINE
8
layer1
10
13.0134744
20
12.3131413
11
12.9952438
21
12.4968767
0
LINE
8
layer1
10
12.9952438
20
12.4968767
11
12.9903167
21
12.6242958
0
LINE
8
layer1
10
12.9903167
20
12.6242958
11
12.9907716
21
12.7710199
0
LINE
8
layer1
10
12.9907716
20
12.7710199
11
12.9984708
21
12.9426328
0
LINE
8
layer1
10
12.9984708
20
12.9426328
11
13.0152142
21
13.1349792
0
LINE
8
layer1
10
13.0152142
20
13.1349792
11
13.0428427
21
13.3485273
0
LINE
8
layer1
10
13.0428427
20
13.3485273
11
13.0829612
21
13.5816156
0
LINE
8
layer1
10
13.0829612
20
13.5816156
11
13.1380117
21
13.8369207
0
LINE
8
layer1
10
13.1380117
20
13.8369207
11
13.2087423
21
14.1090536
0
LINE
8
layer1
10
13.2087423
20
14.1090536
11
13.2975439
21
14.4001296
0
LINE
8
layer1
10
13.2975439
20
14.4001296
11
13.3936107
21
14.674793
0
ARC
8
layer1
10
16.5000043
20
-0.0000262
40
15
50
98.0479539
51
101.9520433
0
LINE
8
layer1
10
14.3999763
20
14.8522424
11
14.58419
21
14.627
0
LINE
8
layer1
10
14.58419
20
14.627
11
14.76719
21
14.38385
0
LINE
8
layer1
10
14.76719
20
14.38385
11
14.92673
21
14.15232
0
LINE
8
layer1
10
14.92673
20
14.15232
11
15.06578
21
13.93124
0
LINE
8
layer1
10
15.06578
20
13.93124
11
15.1832
21
13.72593
0
LINE
8
layer1
10
15.1832
20
13.72593
11
15.2822
21
13.53471
0
LINE
8
layer1
10
15.2822
20
13.53471
11
15.36372
21
13.35969
0
LINE
8
layer1
10
15.36372
20
13.35969
11
15.42965
21
13.20106
0
LINE
8
layer1
10
15.42965
20
13.20106
11
15.48026
21
13.06334
0
LINE
8
layer1
10
15.48026
20
13.06334
11
15.51921
21
12.94192
0
LINE
8
layer1
10
15.51921
20
12.94192
11
15.56492
21
12.76303
0
LINE
8
layer1
10
15.56492
20
12.76303
11
15.58134
21
12.66689
0
LINE
8
layer1
10
15.58134
20
12.66689
11
15.59991
21
12.45744
0
LINE
8
layer1
10
15.59991
20
12.45744
11
15.63091
21
12.28546
0
LINE
8
layer1
10
15.63091
20
12.28546
11
15.67376
21
12.13815
0
LINE
8
layer1
10
15.67376
20
12.13815
11
15.72644
21
12.01616
0
LINE
8
layer1
10
15.72644
20
12.01616
11
15.75584
21
11.96483
0
LINE
8
layer1
10
15.75584
20
11.96483
11
15.78691
21
11.92001
0
LINE
8
layer1
10
15.78691
20
11.92001
11
15.81942
21
11.88175
0
LINE
8
layer1
10
15.81942
20
11.88175
11
15.85309
21
11.8501
0
LINE
8
layer1
10
15.85309
20
11.8501
11
15.88767
21
11.82507
0
LINE
8
layer1
10
15.88767
20
11.82507
11
15.92289
21
11.80669
0
LINE
8
layer1
10
15.92289
20
11.80669
11
15.95848
21
11.79498
0
LINE
8
layer1
10
15.95848
20
11.79498
11
16.012
21
11.78991
0
LINE
8
layer1
10
16.012
20
11.78991
11
16.5
21
11.8
0
LINE
8
layer1
10
16.5
20
11.8
11
16.988
21
11.78991
0
LINE
8
layer1
10
16.988
20
11.78991
11
17.04152
21
11.79498
0
LINE
8
layer1
10
17.04152
20
11.79498
11
17.07711
21
11.80669
0
LINE
8
layer1
10
17.07711
20
11.80669
11
17.11233
21
11.82507
0
LINE
8
layer1
10
17.11233
20
11.82507
11
17.14691
21
11.8501
0
LINE
8
layer1
10
17.14691
20
11.8501
11
17.18058
21
11.88175
0
LINE
8
layer1
10
17.18058
20
11.88175
11
17.21309
21
11.92001
0
LINE
8
layer1
10
17.21309
20
11.92001
11
17.24416
21
11.96483
0
LINE
8
layer1
10
17.24416
20
11.96483
11
17.27356
21
12.01616
0
LINE
8
layer1
10
17.27356
20
12.01616
11
17.32624
21
12.13815
0
LINE
8
layer1
10
17.32624
20
12.13815
11
17.36909
21
12.28546
0
LINE
8
layer1
10
17.36909
20
12.28546
11
17.40009
21
12.45744
0
LINE
8
layer1
10
17.40009
20
12.45744
11
17.41866
21
12.66689
0
LINE
8
layer1
10
17.41866
20
12.66689
11
17.43508
21
12.76303
0
LINE
8
layer1
10
17.43508
20
12.76303
11
17.48079
21
12.94192
0
LINE
8
layer1
10
17.48079
20
12.94192
11
17.51974
21
13.06334
0
LINE
8
layer1
10
17.51974
20
13.06334
11
17.57035
21
13.20106
0
LINE
8
layer1
10
17.57035
20
13.20106
11
17.63628
21
13.35969
0
LINE
8
layer1
10
17.63628
20
13.35969
11
17.7178
21
13.53471
0
LINE
8
layer1
10
17.7178
20
13.53471
11
17.8168
21
13.72593
0
LINE
8
layer1
10
17.8168
20
13.72593
11
17.93422
21
13.93124
0
LINE
8
layer1
10
17.93422
20
13.93124
11
18.07327
21
14.15232
0
LINE
8
layer1
10
18.07327
20
14.15232
11
18.23281
21
14.38385
0
LINE
8
layer1
10
18.23281
20
14.38385
11
18.41581
21
14.627
0
LINE
8
layer1
10
18.41581
20
14.627
11
18.6000237
21
14.8522424
0
ARC
8
layer1
10
16.4999958
20
-0.0000262
40
15
50
78.0479567
51
81.9520461
0
LINE
8
layer1
10
19.6063893
20
14.674793
11
19.7024561
21
14.4001296
0
LINE
8
layer1
10
19.7024561
20
14.4001296
11
19.7912577
21
14.1090536
0
LINE
8
layer1
10
19.7912577
20
14.1090536
11
19.8619883
21
13.8369207
0
LINE
8
layer1
10
19.8619883
20
13.8369207
11
19.9170388
21
13.5816156
0
LINE
8
layer1
10
19.9170388
20
13.5816156
11
19.9571573
21
13.3485273
0
LINE
8
layer1
10
19.9571573
20
13.3485273
11
19.9847858
21
13.1349792
0
LINE
8
layer1
10
19.9847858
20
13.1349792
11
20.0015292
21
12.9426328
0
LINE
8
layer1
10
20.0015292
20
12.9426328
11
20.0092284
21
12.7710199
0
LINE
8
layer1
10
20.0092284
20
12.7710199
11
20.0096833
21
12.6242958
0
LINE
8
layer1
10
20.0096833
20
12.6242958
11
20.0047562
21
12.4968767
0
LINE
8
layer1
10
20.0047562
20
12.4968767
11
19.9865256
21
12.3131413
0
LINE
8
layer1
10
19.9865256
20
12.3131413
11
19.9690735
21
12.2171833
0
LINE
8
layer1
10
19.9690735
20
12.2171833
11
19.9148875
21
12.0140134
0
LINE
8
layer1
10
19.9148875
20
12.0140134
11
19.8851973
21
11.8418024
0
LINE
8
layer1
10
19.8851973
20
11.8418024
11
19.8750802
21
11.6887207
0
LINE
8
layer1
10
19.8750802
20
11.6887207
11
19.8828601
21
11.55607
0
LINE
8
layer1
10
19.8828601
20
11.55607
11
19.8929312
21
11.4977802
0
LINE
8
layer1
10
19.8929312
20
11.4977802
11
19.9067981
21
11.4450366
0
LINE
8
layer1
10
19.9067981
20
11.4450366
11
19.9242618
21
11.3979649
0
LINE
8
layer1
10
19.9242618
20
11.3979649
11
19.9450763
21
11.3567078
0
LINE
8
layer1
10
19.9450763
20
11.3567078
11
19.9690102
21
11.3213602
0
LINE
8
layer1
10
19.9690102
20
11.3213602
11
19.9958198
21
11.2920427
0
LINE
8
layer1
10
19.9958198
20
11.2920427
11
20.0252584
21
11.2688664
0
LINE
8
layer1
10
20.0252584
20
11.2688664
11
20.0738167
21
11.2457973
0
LINE
8
layer1
10
20.0738167
20
11.2457973
11
20.5358377
21
11.0883729
0
LINE
8
layer1
10
20.5358377
20
11.0883729
11
20.9909567
21
10.9119856
0
LINE
8
layer1
10
20.9909567
20
10.9119856
11
21.0429831
21
10.8984449
0
LINE
8
layer1
10
21.0429831
20
10.8984449
11
21.0804318
21
10.8972762
0
LINE
8
layer1
10
21.0804318
20
10.8972762
11
21.1198141
21
10.9025018
0
LINE
8
layer1
10
21.1198141
20
10.9025018
11
21.1608695
21
10.9141953
0
LINE
8
layer1
10
21.1608695
20
10.9141953
11
21.2033338
21
10.9324207
0
LINE
8
layer1
10
21.2033338
20
10.9324207
11
21.2469689
21
10.9572543
0
LINE
8
layer1
10
21.2469689
20
10.9572543
11
21.2914945
21
10.9887448
0
LINE
8
layer1
10
21.2914945
20
10.9887448
11
21.3366774
21
11.0269238
0
LINE
8
layer1
10
21.3366774
20
11.0269238
11
21.4279034
21
11.1235393
0
LINE
8
layer1
10
21.4279034
20
11.1235393
11
21.5185522
21
11.2473098
0
LINE
8
layer1
10
21.5185522
20
11.2473098
11
21.6065033
21
11.3983155
0
LINE
8
layer1
10
21.6065033
20
11.3983155
11
21.6955896
21
11.5887828
0
LINE
8
layer1
10
21.6955896
20
11.5887828
11
21.7439011
21
11.6735089
0
LINE
8
layer1
10
21.7439011
20
11.6735089
11
21.8480385
21
11.8259768
0
LINE
8
layer1
10
21.8480385
20
11.8259768
11
21.9261676
21
11.9267526
0
LINE
8
layer1
10
21.9261676
20
11.9267526
11
22.0208284
21
12.0388574
0
LINE
8
layer1
10
22.0208284
20
12.0388574
11
22.137037
21
12.1653715
0
LINE
8
layer1
10
22.137037
20
12.1653715
11
22.2735011
21
12.301955
0
LINE
8
layer1
10
22.2735011
20
12.301955
11
22.4319318
21
12.447783
0
LINE
8
layer1
10
22.4319318
20
12.447783
11
22.6124907
21
12.6005513
0
LINE
8
layer1
10
22.6124907
20
12.6005513
11
22.8187687
21
12.7607406
0
LINE
8
layer1
10
22.8187687
20
12.7607406
11
23.0478752
21
12.9237418
0
LINE
8
layer1
10
23.0478752
20
12.9237418
11
23.3030012
21
13.0896384
0
LINE
8
layer1
10
23.3030012
20
13.0896384
11
23.5531428
21
13.2382922
0
ARC
8
layer1
10
16.499987
20
-0.0000232
40
15
50
58.0479568
51
61.952046
0
LINE
8
layer1
10
24.4381259
20
12.727347
11
24.4344588
21
12.436391
0
LINE
8
layer1
10
24.4344588
20
12.436391
11
24.4183511
21
12.1324972
0
LINE
8
layer1
10
24.4183511
20
12.1324972
11
24.3917412
21
11.8525846
0
LINE
8
layer1
10
24.3917412
20
11.8525846
11
24.3561522
21
11.5938478
0
LINE
8
layer1
10
24.3561522
20
11.5938478
11
24.3141304
21
11.3610951
0
LINE
8
layer1
10
24.3141304
20
11.3610951
11
24.267055
21
11.1509761
0
LINE
8
layer1
10
24.267055
20
11.1509761
11
24.2170022
21
10.964503
0
LINE
8
layer1
10
24.2170022
20
10.964503
11
24.1655421
21
10.8006064
0
LINE
8
layer1
10
24.1655421
20
10.8006064
11
24.1157869
21
10.6625753
0
LINE
8
layer1
10
24.1157869
20
10.6625753
11
24.0675771
21
10.5445256
0
LINE
8
layer1
10
24.0675771
20
10.5445256
11
23.9876047
21
10.378106
0
LINE
8
layer1
10
23.9876047
20
10.378106
11
23.9383856
21
10.293904
0
LINE
8
layer1
10
23.9383856
20
10.293904
11
23.8179791
21
10.1215194
0
LINE
8
layer1
10
23.8179791
20
10.1215194
11
23.7311799
21
9.9698486
0
LINE
8
layer1
10
23.7311799
20
9.9698486
11
23.6693159
21
9.8294592
0
LINE
8
layer1
10
23.6693159
20
9.8294592
11
23.6312574
21
9.7021474
0
LINE
8
layer1
10
23.6312574
20
9.7021474
11
23.6207848
21
9.6439284
0
LINE
8
layer1
10
23.6207848
20
9.6439284
11
23.6157761
21
9.5896228
0
LINE
8
layer1
10
23.6157761
20
9.5896228
11
23.6160872
21
9.539417
0
LINE
8
layer1
10
23.6160872
20
9.539417
11
23.6215356
21
9.493529
0
LINE
8
layer1
10
23.6215356
20
9.493529
11
23.6319365
21
9.4521273
0
LINE
8
layer1
10
23.6319365
20
9.4521273
11
23.6471021
21
9.4154084
0
LINE
8
layer1
10
23.6471021
20
9.4154084
11
23.6668386
21
9.3835612
0
LINE
8
layer1
10
23.6668386
20
9.3835612
11
23.7045784
21
9.3452754
0
LINE
8
layer1
10
23.7045784
20
9.3452754
11
24.0848938
21
9.0393244
0
LINE
8
layer1
10
24.0848938
20
9.0393244
11
24.4522378
21
8.7179147
0
LINE
8
layer1
10
24.4522378
20
8.7179147
11
24.4964954
21
8.6873965
0
LINE
8
layer1
10
24.4964954
20
8.6873965
11
24.531286
21
8.6734901
0
LINE
8
layer1
10
24.531286
20
8.6734901
11
24.5700805
21
8.664931
0
LINE
8
layer1
10
24.5700805
20
8.664931
11
24.6126593
21
8.6618775
0
LINE
8
layer1
10
24.6126593
20
8.6618775
11
24.6587962
21
8.6644802
0
LINE
8
layer1
10
24.6587962
20
8.6644802
11
24.7082934
21
8.672892
0
LINE
8
layer1
10
24.7082934
20
8.672892
11
24.7609041
21
8.6872547
0
LINE
8
layer1
10
24.7609041
20
8.6872547
11
24.8164201
21
8.7076778
0
LINE
8
layer1
10
24.8164201
20
8.7076778
11
24.935189
21
8.7672655
0
LINE
8
layer1
10
24.935189
20
8.7672655
11
25.062703
21
8.8525681
0
LINE
8
layer1
10
25.062703
20
8.8525681
11
25.196997
21
8.964386
0
LINE
8
layer1
10
25.196997
20
8.964386
11
25.3458543
21
9.1128974
0
LINE
8
layer1
10
25.3458543
20
9.1128974
11
25.4202304
21
9.1759904
0
LINE
8
layer1
10
25.4202304
20
9.1759904
11
25.5702346
21
9.2836462
0
LINE
8
layer1
10
25.5702346
20
9.2836462
11
25.6781193
21
9.3516228
0
LINE
8
layer1
10
25.6781193
20
9.3516228
11
25.8054135
21
9.4245909
0
LINE
8
layer1
10
25.8054135
20
9.4245909
11
25.9578842
21
9.5037296
0
LINE
8
layer1
10
25.9578842
20
9.5037296
11
26.1328328
21
9.5854026
0
LINE
8
layer1
10
26.1328328
20
9.5854026
11
26.3315851
21
9.6682497
0
LINE
8
layer1
10
26.3315851
20
9.6682497
11
26.5535047
21
9.7500501
0
LINE
8
layer1
10
26.5535047
20
9.7500501
11
26.8021307
21
9.8300276
0
LINE
8
layer1
10
26.8021307
20
9.8300276
11
27.07317
21
9.9048396
0
LINE
8
layer1
10
27.07317
20
9.9048396
11
27.36965
21
9.9734731
0
LINE
8
layer1
10
27.36965
20
9.9734731
11
27.6555489
21
10.0276086
0
ARC
8
layer1
10
16.4999795
20
-0.0000168
40
15
50
38.0479543
51
41.9520435
0
LINE
8
layer1
10
28.3124074
20
9.2447951
11
28.2094486
21
8.9726401
0
LINE
8
layer1
10
28.2094486
20
8.9726401
11
28.0903745
21
8.6925825
0
LINE
8
layer1
10
28.0903745
20
8.6925825
11
27.9696336
21
8.4386518
0
LINE
8
layer1
10
27.9696336
20
8.4386518
11
27.8476977
21
8.207691
0
LINE
8
layer1
10
27.8476977
20
8.207691
11
27.7286041
21
8.0033473
0
LINE
8
layer1
10
27.7286041
20
8.0033473
11
27.6125027
21
7.8220007
0
LINE
8
layer1
10
27.6125027
20
7.8220007
11
27.5016909
21
7.6638923
0
LINE
8
layer1
10
27.5016909
20
7.6638923
11
27.3972783
21
7.5274803
0
LINE
8
layer1
10
27.3972783
20
7.5274803
11
27.3033143
21
7.4147907
0
LINE
8
layer1
10
27.3033143
20
7.4147907
11
27.2176365
21
7.3203491
0
LINE
8
layer1
10
27.2176365
20
7.3203491
11
27.0855682
21
7.191318
0
LINE
8
layer1
10
27.0855682
20
7.191318
11
27.0105185
21
7.1290279
0
LINE
8
layer1
10
27.0105185
20
7.1290279
11
26.8384145
21
7.0082208
0
LINE
8
layer1
10
26.8384145
20
7.0082208
11
26.7049755
21
6.895384
0
LINE
8
layer1
10
26.7049755
20
6.895384
11
26.5988263
21
6.7846198
0
LINE
8
layer1
10
26.5988263
20
6.7846198
11
26.5195198
21
6.6780026
0
LINE
8
layer1
10
26.5195198
20
6.6780026
11
26.4897667
21
6.6268765
0
LINE
8
layer1
10
26.4897667
20
6.6268765
11
26.4664865
21
6.5775591
0
LINE
8
layer1
10
26.4664865
20
6.5775591
11
26.4496073
21
6.5302746
0
LINE
8
layer1
10
26.4496073
20
6.5302746
11
26.4390326
21
6.4852905
0
LINE
8
layer1
10
26.4390326
20
6.4852905
11
26.434646
21
6.4428283
0
LINE
8
layer1
10
26.434646
20
6.4428283
11
26.4363385
21
6.4031369
0
LINE
8
layer1
10
26.4363385
20
6.4031369
11
26.4439923
21
6.3664601
0
LINE
8
layer1
10
26.4439923
20
6.3664601
11
26.4663616
21
6.3175754
0
LINE
8
layer1
10
26.4663616
20
6.3175754
11
26.7190998
21
5.9
0
LINE
8
layer1
10
26.7190998
20
5.9
11
26.9543616
21
5.4723346
0
LINE
8
layer1
10
26.9543616
20
5.4723346
11
26.9855123
21
5.4285199
0
LINE
8
layer1
10
26.9855123
20
5.4285199
11
27.0134485
21
5.4035531
0
LINE
8
layer1
10
27.0134485
20
5.4035531
11
27.046976
21
5.3822417
0
LINE
8
layer1
10
27.046976
20
5.3822417
11
27.0859426
21
5.3648095
0
LINE
8
layer1
10
27.0859426
20
5.3648095
11
27.1301873
21
5.3514754
0
LINE
8
layer1
10
27.1301873
20
5.3514754
11
27.1795765
21
5.3424509
0
LINE
8
layer1
10
27.1795765
20
5.3424509
11
27.2339267
21
5.3379535
0
LINE
8
layer1
10
27.2339267
20
5.3379535
11
27.2930798
21
5.3381574
0
LINE
8
layer1
10
27.2930798
20
5.3381574
11
27.4250663
21
5.3535302
0
LINE
8
layer1
10
27.4250663
20
5.3535302
11
27.5740655
21
5.390076
0
LINE
8
layer1
10
27.5740655
20
5.390076
11
27.7385045
21
5.4492192
0
LINE
8
layer1
10
27.7385045
20
5.4492192
11
27.9291785
21
5.5378621
0
LINE
8
layer1
10
27.9291785
20
5.5378621
11
28.0206482
21
5.571712
0
LINE
8
layer1
10
28.0206482
20
5.571712
11
28.1984265
21
5.6215709
0
LINE
8
layer1
10
28.1984265
20
5.6215709
11
28.3230543
21
5.6485493
0
LINE
8
layer1
10
28.3230543
20
5.6485493
11
28.4676283
21
5.6735797
0
LINE
8
layer1
10
28.4676283
20
5.6735797
11
28.6379709
21
5.6957977
0
LINE
8
layer1
10
28.6379709
20
5.6957977
11
28.8303027
21
5.7127093
0
LINE
8
layer1
10
28.8303027
20
5.7127093
11
29.0454041
21
5.7225827
0
LINE
8
layer1
10
29.0454041
20
5.7225827
11
29.2819177
21
5.723549
0
LINE
8
layer1
10
29.2819177
20
5.723549
11
29.5429036
21
5.7136682
0
LINE
8
layer1
10
29.5429036
20
5.7136682
11
29.8231845
21
5.6912675
0
LINE
8
layer1
10
29.8231845
20
5.6912675
11
30.1252586
21
5.6543599
0
LINE
8
layer1
10
30.1252586
20
5.6543599
11
30.4124311
21
5.6074474
0
ARC
8
layer1
10
16.499975
20
-0.0000088
40
15
50
18.0479545
51
21.9520437
0
LINE
8
layer1
10
30.7619382
20
4.6471844
11
30.5721061
21
4.4266564
0
ENDSEC
0
EOF