0
SECTION
2
HEADER
9
$INSUNITS
70
4
9
$ACADVER
1
AC1014
9
$HANDSEED
5
FFFF
0
ENDSEC
0
SECTION
2
TABLES
0
TABLE
2
VPORT
5
8
100
AcDbSymbolTable
0
ENDTAB
0
TABLE
2
LTYPE
5
5
100
AcDbSymbolTable
0
LTYPE
5
14
100
AcDbSymbolTableRecord
100
AcDbLinetypeTableRecord
2
BYBLOCK
70
0
0
LTYPE
5
15
100
AcDbSymbolTableRecord
100
AcDbLinetypeTableRecord
2
BYLAYER
70
0
0
ENDTAB
0
TABLE
2
LAYER
5
2
100
AcDbSymbolTable
70
2
0
LAYER
5
50
100
AcDbSymbolTableRecord
100
AcDbLayerTableRecord
2
0
70
0
6
CONTINUOUS
0
ENDTAB
0
TABLE
2
STYLE
5
3
100
AcDbSymbolTable
70
1
0
STYLE
5
11
100
AcDbSymbolTableRecord
100
AcDbTextStyleTableRecord
2
STANDARD
70
0
0
ENDTAB
0
TABLE
2
VIEW
5
6
100
AcDbSymbolTable
70
0
0
ENDTAB
0
TABLE
2
UCS
5
7
100
AcDbSymbolTable
70
0
0
ENDTAB
0
TABLE
2
APPID
5
9
100
AcDbSymbolTable
70
2
0
APPID
5
12
100
AcDbSymbolTableRecord
100
AcDbRegAppTableRecord
2
ACAD
70
0
0
ENDTAB
0
TABLE
2
DIMSTYLE
5
A
100
AcDbSymbolTable
70
1
0
ENDTAB
0
TABLE
2
BLOCK_RECORD
5
1
100
AcDbSymbolTable
70
1
0
BLOCK_RECORD
5
1F
100
AcDbSymbolTableRecord
100
AcDbBlockTableRecord
2
*MODEL_SPACE
0
BLOCK_RECORD
5
1B
100
AcDbSymbolTableRecord
100
AcDbBlockTableRecord
2
*PAPER_SPACE
0
ENDTAB
0
ENDSEC
0
SECTION
2
BLOCKS
0
BLOCK
5
20
100
AcDbEntity
100
AcDbBlockBegin
2
*MODEL_SPACE
0
ENDBLK
5
21
100
AcDbEntity
100
AcDbBlockEnd
0
BLOCK
5
1C
100
AcDbEntity
100
AcDbBlockBegin
2
*PAPER_SPACE
0
ENDBLK
5
1D
100
AcDbEntity
100
AcDbBlockEnd
0
ENDSEC
0
SECTION
2
ENTITIES
0
ARC
5
100
100
AcDbEntity
8
0
100
AcDbCircle
10
-3.3306690738754696e-15
20
-1.6653345369377348e-15
30
0
40
49.22519999999998
210
0
220
0
230
1
100
AcDbArc
50
225
51
235.6355771871936
0
LINE
5
101
100
AcDbEntity
8
0
100
AcDbLine
10
-1.1102230246251565e-14
20
-2.7755575615628914e-15
30
0
11
-52.326544405505935
21
-52.326544405505913
31
0
0
LINE
5
102
100
AcDbEntity
8
0
100
AcDbLine
10
-4.4408920985006281e-16
20
0
30
1.9721522630525295e-30
11
-31.430896423742048
21
-31.430896423742041
31
0
0
ARC
5
103
100
AcDbEntity
8
0
100
AcDbCircle
10
-16.003765758550049
20
-39.762713413282924
30
0
40
3.1749999999967966
210
0
220
-0
230
1
100
AcDbArc
50
68.061314327142483
51
127.31365850921289
0
ARC
5
104
100
AcDbEntity
8
0
100
AcDbCircle
10
-25.090004718434471
20
-36.691881434854963
30
0
40
4.7751999999941486
210
0
220
0
230
1
100
AcDbArc
50
235.63557718719352
51
307.31365850921293
0
CIRCLE
5
105
100
AcDbEntity
8
0
100
AcDbCircle
10
-4.4408920985006291e-16
20
0
30
-2.7755575615628716e-16
40
39.6875
210
0
220
-0
230
1
0
LINE
5
106
100
AcDbEntity
8
0
100
AcDbLine
10
-22.195383471943959
20
-40.489736471492066
30
0
11
-17.928380949036185
21
-37.237543841050247
31
0
0
ARC
5
107
100
AcDbEntity
8
0
100
AcDbCircle
10
-39.762713413282938
20
-16.003765758550031
30
0
40
3.1749999999968241
210
-0
220
0
230
1
100
AcDbArc
50
-37.313658509213298
51
21.938685672857101
0
LINE
5
108
100
AcDbEntity
8
0
100
AcDbLine
10
-40.489736471492073
20
-22.195383471943945
30
0
11
-37.237543841050268
21
-17.928380949036193
31
0
0
ARC
5
109
100
AcDbEntity
8
0
100
AcDbCircle
10
-36.691881434854992
20
-25.090004718434496
30
0
40
4.7751999999941521
210
0
220
0
230
1
100
AcDbArc
50
142.68634149078653
51
214.36442281280631
0
ARC
5
110
100
AcDbEntity
8
0
100
AcDbCircle
10
-9.9920072216264057e-15
20
4.9960036108132029e-15
30
0
40
49.22519999999998
210
0
220
0
230
1
100
AcDbArc
50
214.36442281280642
51
225
0
ARC
5
111
100
AcDbEntity
8
0
100
AcDbCircle
10
-28.901799786779328
20
-28.901799786779314
30
-1.3684555315672042e-47
40
12.563700213220677
210
1.0892137732856678e-48
220
3.8500447776303632e-64
230
1
100
AcDbArc
50
180
51
270.00000000000006
0
LINE
5
112
100
AcDbEntity
8
0
100
AcDbLine
10
-28.901799786779321
20
-41.465500000000006
30
0
11
-11.433231362354782
21
-41.465500000000006
31
0
0
LINE
5
113
100
AcDbEntity
8
0
100
AcDbLine
10
-41.465500000000006
20
-8.6897735120961173
30
0
11
-41.465500000000006
21
-28.901799786779318
31
0
0
CIRCLE
5
114
100
AcDbEntity
8
0
100
AcDbCircle
10
3.5527136788005009e-14
20
1.7763568394002505e-14
30
0
40
38.687771852629837
210
0
220
-0
230
1
0
LINE
5
115
100
AcDbEntity
8
0
100
AcDbLine
10
-36.817633565833717
20
-14.817540783206756
30
0
11
-36.817633565833717
21
-11.88299413166277
31
0
0
LINE
5
116
100
AcDbEntity
8
0
100
AcDbLine
10
-14.817540783206756
20
-36.817633565833717
30
0
11
-3.8505475125187183
21
-36.817633565833702
31
0
0
LINE
5
117
100
AcDbEntity
8
0
100
AcDbLine
10
-11.433231362354778
20
-40.465500000000006
30
0
11
21.366462724709557
21
-40.465500000000006
31
0
0
CIRCLE
5
118
100
AcDbEntity
8
0
100
AcDbCircle
10
31.430896423742038
20
31.430896423742034
30
0
40
2.1589999999999998
210
0
220
-0
230
1
0
CIRCLE
5
119
100
AcDbEntity
8
0
100
AcDbCircle
10
31.430896423742048
20
-31.430896423742034
30
0
40
2.1589999999999998
210
0
220
-0
230
1
0
CIRCLE
5
120
100
AcDbEntity
8
0
100
AcDbCircle
10
-31.430896423742041
20
31.430896423746987
30
0
40
2.1589999999999998
210
0
220
-0
230
1
0
LINE
5
121
100
AcDbEntity
8
0
100
AcDbLine
10
-40.465500000000006
20
-8.6897735120961173
30
0
11
-41.465500000000006
21
-8.6897735120961173
31
0
0
LINE
5
122
100
AcDbEntity
8
0
100
AcDbLine
10
-11.433231362354782
20
-41.465500000000006
30
0
11
-11.433231362354778
21
-40.465500000000006
31
0
0
ARC
5
123
100
AcDbEntity
8
0
100
AcDbCircle
10
21.366462724709514
20
-36.385500000000036
30
0
40
4.0799999999999681
210
0
220
0
230
1
100
AcDbArc
50
270.00000000000063
51
291.32589542015779
0
LINE
5
124
100
AcDbEntity
8
0
100
AcDbLine
10
22.850245630557303
20
-40.186129985714729
30
0
11
33.252938473316526
21
-36.124872280311145
31
0
0
ARC
5
125
100
AcDbEntity
8
0
100
AcDbCircle
10
31.769155567468701
20
-32.324242294596466
30
1.3684555315672042e-47
40
4.079999999999969
210
7.788312907383671e-33
220
3.040592112572312e-33
230
1
100
AcDbArc
50
291.3258954201583
51
338.61426128811695
0
LINE
5
126
100
AcDbEntity
8
0
100
AcDbLine
10
35.568233724840738
20
-33.811994005796436
30
-6.8422776578360209e-48
11
40.184578157372101
21
-22.023835290529039
31
0
0
ARC
5
127
100
AcDbEntity
8
0
100
AcDbCircle
10
36.385500000000299
20
-20.536083579329159
30
0
40
4.0799999999997185
210
0
220
0
230
1
100
AcDbArc
50
-21.385738711883082
51
0
0
LINE
5
128
100
AcDbEntity
8
0
100
AcDbLine
10
40.46550000000002
20
-20.536083579329155
30
0
11
40.465500000000006
21
20.536083579329162
31
0
0
ARC
5
129
100
AcDbEntity
8
0
100
AcDbCircle
10
36.385500000000263
20
20.536083579329155
30
-1.327401865620188e-45
40
4.0799999999997416
210
-3.4491224175420249e-46
220
8.9891939463948527e-33
230
1
100
AcDbArc
50
0
51
21.385738711883032
0
LINE
5
130
100
AcDbEntity
8
0
100
AcDbLine
10
40.18457815737208
20
22.023835290529039
30
-1.0057976541567196e-31
11
35.568233724840738
21
33.811994005796421
31
0
0
ARC
5
131
100
AcDbEntity
8
0
100
AcDbCircle
10
31.769155567468701
20
32.324242294596466
30
0
40
4.0799999999999592
210
0
220
-0
230
1
100
AcDbArc
50
21.385738711882823
51
69.47366509850896
0
LINE
5
132
100
AcDbEntity
8
0
100
AcDbLine
10
33.199758067205572
20
36.145207681477942
30
0
11
26.052286314429175
21
39.980599681577182
31
0
0
ARC
5
133
100
AcDbEntity
8
0
100
AcDbCircle
10
24.123126321187595
20
36.385499999999823
30
-8.9942017687836814e-60
40
4.0800000000001759
210
3.6489635134662111e-47
220
-1.9580637674807339e-47
230
1
100
AcDbArc
50
61.781628033280612
51
89.999999999999773
0
LINE
5
134
100
AcDbEntity
8
0
100
AcDbLine
10
24.123126321187613
20
40.465499999999999
30
3.5733110840283847e-46
11
-24.133110614813159
21
40.465499999999999
31
0
0
ARC
5
135
100
AcDbEntity
8
0
100
AcDbCircle
10
-24.133110614813141
20
36.385499999999936
30
-2.2562410576714279e-45
40
4.0800000000000658
210
-2.1765038186553159e-32
220
-6.4776122600399483e-46
230
1
100
AcDbArc
50
90.000000000000256
51
118.00643755650272
0
LINE
5
136
100
AcDbEntity
8
0
100
AcDbLine
10
-26.048959335089897
20
39.987710943436539
30
0
11
-33.685004287745414
21
35.92645323803297
31
0
0
ARC
5
137
100
AcDbEntity
8
0
100
AcDbCircle
10
-31.769155567468673
20
32.324242294596424
30
-6.4317409983658596e-46
40
4.0800000000000072
210
1.4166382121962393e-32
220
7.5344407880288837e-33
230
1
100
AcDbArc
50
118.0064375565029
51
158.61426128811678
0
LINE
5
138
100
AcDbEntity
8
0
100
AcDbLine
10
-35.568233724840738
20
33.811994005796421
30
1.0057976541567846e-31
11
-40.184578157372101
21
22.023835290529043
31
0
0
ARC
5
139
100
AcDbEntity
8
0
100
AcDbCircle
10
-36.38550000000027
20
20.536083579329155
30
0
40
4.0799999999997469
210
0
220
0
230
1
100
AcDbArc
50
158.61426128811704
51
180
0
LINE
5
140
100
AcDbEntity
8
0
100
AcDbLine
10
-40.465500000000006
20
20.536083579329159
30
0
11
-40.465500000000006
21
-8.6897735120961173
31
0
0
LWPOLYLINE
5
141
100
AcDbEntity
8
0
100
AcDbPolyline
90
12
70
1
43
0.0
10
-35.954925053790774
20
16.803006297275761
42
0.70083646294103097
10
16.803006297275751
20
-35.954925053790767
42
3.0864260231405174
10
19.103903066498855
20
-34.787045633048749
42
0.14255128062809083
10
34.787045633048713
20
-19.103903066498852
42
3.0864260231405125
10
35.954925053790781
20
-16.803006297275751
42
0.2221373294857589
10
35.954925053790753
20
16.803006297275726
42
3.0864260231405267
10
34.787045633048756
20
19.103903066498848
42
0.14255128062809094
10
19.103903066498859
20
34.787045633048706
42
3.0864260231405081
10
16.803006297275754
20
35.954925053790781
42
0.22213732948575893
10
-16.803006297275726
20
35.954925053790753
42
3.0864260231405245
10
-19.103903066498852
20
34.787045633048749
42
0.14255128062809094
10
-34.787045633048713
20
19.103903066498852
42
3.0864260231405267
0
ENDSEC
0
SECTION
2
OBJECTS
0
DICTIONARY
5
C
100
AcDbDictionary
3
ACAD_GROUP
350
D
3
ACAD_MLINESTYLE
350
17
0
DICTIONARY
5
D
100
AcDbDictionary
0
DICTIONARY
5
1A
330
C
100
AcDbDictionary
0
DICTIONARY
5
17
100
AcDbDictionary
0
ENDSEC
0
EOF
