  0
SECTION
  2
HEADER
  9
$ACADVER
  1
AC1027
  9
$ACADMAINTVER
 70
   125
  9
$DWGCODEPAGE
  3
ANSI_1252
  9
$LASTSAVEDBY
  1
poojars
  9
$REQUIREDVERSIONS
160
                 0
  9
$INSBASE
 10
0.0
 20
0.0
 30
0.0
  9
$EXTMIN
 10
0.065894
 20
0.472057
 30
0.0
  9
$EXTMAX
 10
33.876693
 20
21.815033
 30
0.0
  9
$LIMMIN
 10
0.0
 20
0.0
  9
$LIMMAX
 10
33.999999
 20
22.0
  9
$ORTHOMODE
 70
     0
  9
$REGENMODE
 70
     1
  9
$FILLMODE
 70
     1
  9
$QTEXTMODE
 70
     0
  9
$MIRRTEXT
 70
     0
  9
$LTSCALE
 40
0.75
  9
$ATTMODE
 70
     1
  9
$TEXTSIZE
 40
0.12
  9
$TRACEWID
 40
0.05
  9
$TEXTSTYLE
  7
Standard
  9
$CLAYER
  8
0
  9
$CELTYPE
  6
ByLayer
  9
$CECOLOR
 62
   256
  9
$CELTSCALE
 40
1.0
  9
$DISPSILH
 70
     0
  9
$DIMSCALE
 40
1.0
  9
$DIMASZ
 40
0.12
  9
$DIMEXO
 40
0.07
  9
$DIMDLI
 40
0.36
  9
$DIMRND
 40
0.0
  9
$DIMDLE
 40
0.0
  9
$DIMEXE
 40
0.07
  9
$DIMTP
 40
0.01
  9
$DIMTM
 40
0.01
  9
$DIMTXT
 40
0.12
  9
$DIMCEN
 40
0.0
  9
$DIMTSZ
 40
0.0
  9
$DIMTOL
 70
     0
  9
$DIMLIM
 70
     0
  9
$DIMTIH
 70
     1
  9
$DIMTOH
 70
     1
  9
$DIMSE1
 70
     0
  9
$DIMSE2
 70
     0
  9
$DIMTAD
 70
     0
  9
$DIMZIN
 70
    12
  9
$DIMBLK
  1

  9
$DIMASO
 70
     1
  9
$DIMSHO
 70
     1
  9
$DIMPOST
  1

  9
$DIMAPOST
  1
mm
  9
$DIMALT
 70
     0
  9
$DIMALTD
 70
     2
  9
$DIMALTF
 40
1.0
  9
$DIMLFAC
 40
25.4
  9
$DIMTOFL
 70
     0
  9
$DIMTVP
 40
0.0
  9
$DIMTIX
 70
     0
  9
$DIMSOXD
 70
     0
  9
$DIMSAH
 70
     0
  9
$DIMBLK1
  1

  9
$DIMBLK2
  1

  9
$DIMSTYLE
  2
Dim-Standard
  9
$DIMCLRD
 70
     0
  9
$DIMCLRE
 70
     0
  9
$DIMCLRT
 70
     0
  9
$DIMTFAC
 40
1.0
  9
$DIMGAP
 40
0.05
  9
$DIMJUST
 70
     0
  9
$DIMSD1
 70
     0
  9
$DIMSD2
 70
     0
  9
$DIMTOLJ
 70
     1
  9
$DIMTZIN
 70
    12
  9
$DIMALTZ
 70
    12
  9
$DIMALTTZ
 70
    12
  9
$DIMUPT
 70
     0
  9
$DIMDEC
 70
     2
  9
$DIMTDEC
 70
     2
  9
$DIMALTU
 70
     2
  9
$DIMALTTD
 70
     2
  9
$DIMTXSTY
  7
Standard
  9
$DIMAUNIT
 70
     0
  9
$DIMADEC
 70
     2
  9
$DIMALTRND
 40
0.0
  9
$DIMAZIN
 70
     3
  9
$DIMDSEP
 70
    46
  9
$DIMATFIT
 70
     3
  9
$DIMFRAC
 70
     0
  9
$DIMLDRBLK
  1

  9
$DIMLUNIT
 70
     2
  9
$DIMLWD
 70
    -2
  9
$DIMLWE
 70
    -2
  9
$DIMTMOVE
 70
     0
  9
$DIMFXL
 40
1.0
  9
$DIMFXLON
 70
     0
  9
$DIMJOGANG
 40
0.785398
  9
$DIMTFILL
 70
     0
  9
$DIMTFILLCLR
 70
     0
  9
$DIMARCSYM
 70
     1
  9
$DIMLTYPE
  6

  9
$DIMLTEX1
  6

  9
$DIMLTEX2
  6

  9
$DIMTXTDIRECTION
 70
     0
  9
$LUNITS
 70
     2
  9
$LUPREC
 70
     4
  9
$SKETCHINC
 40
0.1
  9
$FILLETRAD
 40
0.0
  9
$AUNITS
 70
     0
  9
$AUPREC
 70
     0
  9
$MENU
  1
.
  9
$ELEVATION
 40
0.0
  9
$PELEVATION
 40
0.0
  9
$THICKNESS
 40
0.0
  9
$LIMCHECK
 70
     0
  9
$CHAMFERA
 40
0.0
  9
$CHAMFERB
 40
0.0
  9
$CHAMFERC
 40
0.0
  9
$CHAMFERD
 40
0.0
  9
$SKPOLY
 70
     0
  9
$TDCREATE
 40
2460523.504918981
  9
$TDUCREATE
 40
2460523.754918981
  9
$TDUPDATE
 40
2460523.504918981
  9
$TDUUPDATE
 40
2460523.754918981
  9
$TDINDWG
 40
0.0000000000
  9
$TDUSRTIMER
 40
0.0000000000
  9
$USRTIMER
 70
     1
  9
$ANGBASE
 50
0.0
  9
$ANGDIR
 70
     0
  9
$PDMODE
 70
     0
  9
$PDSIZE
 40
0.0
  9
$PLINEWID
 40
0.0
  9
$SPLFRAME
 70
     0
  9
$SPLINETYPE
 70
     6
  9
$SPLINESEGS
 70
     8
  9
$HANDSEED
  5
44E
  9
$SURFTAB1
 70
     6
  9
$SURFTAB2
 70
     6
  9
$SURFTYPE
 70
     6
  9
$SURFU
 70
     6
  9
$SURFV
 70
     6
  9
$UCSBASE
  2

  9
$UCSNAME
  2

  9
$UCSORG
 10
0.0
 20
0.0
 30
0.0
  9
$UCSXDIR
 10
1.0
 20
0.0
 30
0.0
  9
$UCSYDIR
 10
0.0
 20
1.0
 30
0.0
  9
$UCSORTHOREF
  2

  9
$UCSORTHOVIEW
 70
     0
  9
$UCSORGTOP
 10
0.0
 20
0.0
 30
0.0
  9
$UCSORGBOTTOM
 10
0.0
 20
0.0
 30
0.0
  9
$UCSORGLEFT
 10
0.0
 20
0.0
 30
0.0
  9
$UCSORGRIGHT
 10
0.0
 20
0.0
 30
0.0
  9
$UCSORGFRONT
 10
0.0
 20
0.0
 30
0.0
  9
$UCSORGBACK
 10
0.0
 20
0.0
 30
0.0
  9
$PUCSBASE
  2

  9
$PUCSNAME
  2

  9
$PUCSORG
 10
0.0
 20
0.0
 30
0.0
  9
$PUCSXDIR
 10
1.0
 20
0.0
 30
0.0
  9
$PUCSYDIR
 10
0.0
 20
1.0
 30
0.0
  9
$PUCSORTHOREF
  2

  9
$PUCSORTHOVIEW
 70
     0
  9
$PUCSORGTOP
 10
0.0
 20
0.0
 30
0.0
  9
$PUCSORGBOTTOM
 10
0.0
 20
0.0
 30
0.0
  9
$PUCSORGLEFT
 10
0.0
 20
0.0
 30
0.0
  9
$PUCSORGRIGHT
 10
0.0
 20
0.0
 30
0.0
  9
$PUCSORGFRONT
 10
0.0
 20
0.0
 30
0.0
  9
$PUCSORGBACK
 10
0.0
 20
0.0
 30
0.0
  9
$USERI1
 70
     0
  9
$USERI2
 70
     0
  9
$USERI3
 70
     0
  9
$USERI4
 70
     0
  9
$USERI5
 70
     0
  9
$USERR1
 40
0.0
  9
$USERR2
 40
0.0
  9
$USERR3
 40
0.0
  9
$USERR4
 40
0.0
  9
$USERR5
 40
0.0
  9
$WORLDVIEW
 70
     1
  9
$SHADEDGE
 70
     3
  9
$SHADEDIF
 70
    70
  9
$TILEMODE
 70
     1
  9
$MAXACTVP
 70
    64
  9
$PINSBASE
 10
0.0
 20
0.0
 30
0.0
  9
$PLIMCHECK
 70
     0
  9
$PEXTMIN
 10
1.000000E+20
 20
1.000000E+20
 30
1.000000E+20
  9
$PEXTMAX
 10
-1.000000E+20
 20
-1.000000E+20
 30
-1.000000E+20
  9
$PLIMMIN
 10
0.0
 20
0.0
  9
$PLIMMAX
 10
12.0
 20
9.0
  9
$UNITMODE
 70
     0
  9
$VISRETAIN
 70
     1
  9
$PLINEGEN
 70
     0
  9
$PSLTSCALE
 70
     1
  9
$TREEDEPTH
 70
  3020
  9
$CMLSTYLE
  2
Standard
  9
$CMLJUST
 70
     0
  9
$CMLSCALE
 40
1.0
  9
$PROXYGRAPHICS
 70
     1
  9
$MEASUREMENT
 70
     0
  9
$CELWEIGHT
370
    -1
  9
$ENDCAPS
280
     0
  9
$JOINSTYLE
280
     0
  9
$LWDISPLAY
290
     0
  9
$INSUNITS
 70
     1
  9
$HYPERLINKBASE
  1

  9
$STYLESHEET
  1

  9
$XEDIT
290
     1
  9
$CEPSNTYPE
380
     0
  9
$PSTYLEMODE
290
     1
  9
$FINGERPRINTGUID
  2
{112AAD52-D660-4A4E-8473-B75CB8E7574D}
  9
$VERSIONGUID
  2
{66237F63-A00E-EF4D-8923-9D3A220B3DB6}
  9
$EXTNAMES
290
     1
  9
$PSVPSCALE
 40
0.0
  9
$OLESTARTUP
290
     0
  9
$SORTENTS
280
   127
  9
$INDEXCTL
280
     0
  9
$HIDETEXT
280
     1
  9
$XCLIPFRAME
280
     0
  9
$HALOGAP
280
     0
  9
$OBSCOLOR
 70
   257
  9
$OBSLTYPE
280
     0
  9
$INTERSECTIONDISPLAY
280
     0
  9
$INTERSECTIONCOLOR
 70
   257
  9
$DIMASSOC
280
     2
  9
$PROJECTNAME
  1

  9
$CAMERADISPLAY
290
     0
  9
$LENSLENGTH
 40
50.0
  9
$CAMERAHEIGHT
 40
0.0
  9
$STEPSPERSEC
 40
2.0
  9
$STEPSIZE
 40
6.0
  9
$3DDWFPREC
 40
2.0
  9
$PSOLWIDTH
 40
0.25
  9
$PSOLHEIGHT
 40
4.0
  9
$LOFTANG1
 40
1.570796
  9
$LOFTANG2
 40
1.570796
  9
$LOFTMAG1
 40
0.0
  9
$LOFTMAG2
 40
0.0
  9
$LOFTPARAM
 70
     7
  9
$LOFTNORMALS
280
     1
  9
$LATITUDE
 40
37.795
  9
$LONGITUDE
 40
-122.394
  9
$NORTHDIRECTION
 40
0.0
  9
$TIMEZONE
 70
 -8000
  9
$LIGHTGLYPHDISPLAY
280
     1
  9
$TILEMODELIGHTSYNCH
280
     1
  9
$CMATERIAL
347
11
  9
$SOLIDHIST
280
     0
  9
$SHOWHIST
280
     1
  9
$DWFFRAME
280
     2
  9
$DGNFRAME
280
     0
  9
$REALWORLDSCALE
290
     1
  9
$INTERFERECOLOR
 62
     1
  9
$INTERFEREOBJVS
345
33
  9
$INTERFEREVPVS
346
30
  9
$CSHADOW
280
     0
  9
$SHADOWPLANELOCATION
 40
0.0
  0
ENDSEC
  0
SECTION
  2
CLASSES
  0
CLASS
  1
ACDBDICTIONARYWDFLT
  2
AcDbDictionaryWithDefault
  3
ObjectDBX Classes
 90
        0
 91
        1
280
     0
281
     0
  0
CLASS
  1
MATERIAL
  2
AcDbMaterial
  3
ObjectDBX Classes
 90
     1153
 91
        3
280
     0
281
     0
  0
CLASS
  1
VISUALSTYLE
  2
AcDbVisualStyle
  3
ObjectDBX Classes
 90
     4095
 91
       24
280
     0
281
     0
  0
CLASS
  1
SCALE
  2
AcDbScale
  3
ObjectDBX Classes
 90
     1153
 91
       33
280
     0
281
     0
  0
CLASS
  1
TABLESTYLE
  2
AcDbTableStyle
  3
ObjectDBX Classes
 90
     4095
 91
        1
280
     0
281
     0
  0
CLASS
  1
MLEADERSTYLE
  2
AcDbMLeaderStyle
  3
ACDB_MLEADERSTYLE_CLASS
 90
     4095
 91
        1
280
     0
281
     0
  0
CLASS
  1
ACDBSECTIONVIEWSTYLE
  2
AcDbSectionViewStyle
  3
ObjectDBX Classes
 90
     1025
 91
        1
280
     0
281
     0
  0
CLASS
  1
ACDBDETAILVIEWSTYLE
  2
AcDbDetailViewStyle
  3
ObjectDBX Classes
 90
     1025
 91
        1
280
     0
281
     0
  0
CLASS
  1
ACMESCOPE
  2
AcMeScope
  3
AcMeServices
 90
     1024
 91
        1
280
     0
281
     0
  0
CLASS
  1
ACMECOMMANDHISTORY
  2
AcMeCommandHistory
  3
AcMeServices
 90
     1024
 91
        1
280
     0
281
     0
  0
CLASS
  1
ACIMSYSVARMAN
  2
AcImSysVarManager
  3
AcMeServices
 90
     1024
 91
        1
280
     0
281
     0
  0
CLASS
  1
ACIMINTSYSVAR
  2
AcImIntSysVar
  3
AcMeServices
 90
     1024
 91
        1
280
     0
281
     0
  0
CLASS
  1
ACMESTATEMGR
  2
AcMeStateMgr
  3
AcMeServices
 90
     1024
 91
        1
280
     0
281
     0
  0
CLASS
  1
ACGREFMASTER
  2
AcGrefMaster
  3
AcAttribServices
 90
     1024
 91
        1
280
     0
281
     0
  0
CLASS
  1
SORTENTSTABLE
  2
AcDbSortentsTable
  3
ObjectDBX Classes
 90
        0
 91
        1
280
     0
281
     0
  0
CLASS
  1
DICTIONARYVAR
  2
AcDbDictionaryVar
  3
ObjectDBX Classes
 90
        0
 91
        6
280
     0
281
     0
  0
CLASS
  1
CELLSTYLEMAP
  2
AcDbCellStyleMap
  3
ObjectDBX Classes
 90
     1152
 91
        1
280
     0
281
     0
  0
ENDSEC
  0
SECTION
  2
TABLES
  0
TABLE
  2
VPORT
  5
8
330
0
100
AcDbSymbolTable
 70
     1
1001
ACAD
1000
DbSaveVer
1071
      298
  0
VPORT
  5
57
330
8
100
AcDbSymbolTableRecord
100
AcDbViewportTableRecord
  2
*Active
 70
     0
 10
0.0
 20
0.0
 11
1.0
 21
1.0
 12
16.971294
 22
11.143545
 13
0.0
 23
0.0
 14
0.5
 24
0.5
 15
0.0
 25
0.0
 16
0.0
 26
0.0
 36
1.0
 17
0.0
 27
0.0
 37
0.0
 40
21.342976
 41
1.805226
 42
50.0
 43
0.0
 44
0.0
 50
0.0
 51
0.0
 71
     0
 72
 20000
 73
     1
 74
     0
 75
     0
 76
     0
 77
     0
 78
     0
281
     0
 65
     1
110
0.0
120
0.0
130
0.0
111
1.0
121
0.0
131
0.0
112
0.0
122
1.0
132
0.0
 79
     0
146
0.0
348
2F
 60
     3
 61
     5
292
     1
282
     1
141
0.0
142
0.0
 63
   250
421
  3355443
  0
ENDTAB
  0
TABLE
  2
LTYPE
  5
5
330
0
100
AcDbSymbolTable
 70
    11
  0
LTYPE
  5
5B
330
5
100
AcDbSymbolTableRecord
100
AcDbLinetypeTableRecord
  2
ByBlock
 70
     0
  3

 72
    65
 73
     0
 40
0.0
  0
LTYPE
  5
5C
330
5
100
AcDbSymbolTableRecord
100
AcDbLinetypeTableRecord
  2
ByLayer
 70
     0
  3

 72
    65
 73
     0
 40
0.0
  0
LTYPE
  5
5D
330
5
100
AcDbSymbolTableRecord
100
AcDbLinetypeTableRecord
  2
Continuous
 70
     0
  3
Solid line
 72
    65
 73
     0
 40
0.0
  0
LTYPE
  5
81
330
5
100
AcDbSymbolTableRecord
100
AcDbLinetypeTableRecord
  2
HIDDEN
 70
     0
  3
Hidden __ __ __ __ __ __ __ __ __ __ __ __ __ _
 72
    65
 73
     2
 40
0.375
 49
0.25
 74
     0
 49
-0.125
 74
     0
  0
LTYPE
  5
82
330
5
100
AcDbSymbolTableRecord
100
AcDbLinetypeTableRecord
  2
PHANTOM2
 70
     0
  3
Phantom (.5x) ___ _ _ ___ _ _ ___ _ _ ___ _ _
 72
    65
 73
     6
 40
1.25
 49
0.625
 74
     0
 49
-0.125
 74
     0
 49
0.125
 74
     0
 49
-0.125
 74
     0
 49
0.125
 74
     0
 49
-0.125
 74
     0
  0
LTYPE
  5
83
330
5
100
AcDbSymbolTableRecord
100
AcDbLinetypeTableRecord
  2
CENTER
 70
     0
  3
Center ____ _ ____ _ ____ _ ____ _ ____ _ ____
 72
    65
 73
     4
 40
2.0
 49
1.25
 74
     0
 49
-0.25
 74
     0
 49
0.25
 74
     0
 49
-0.25
 74
     0
  0
LTYPE
  5
9C
330
5
100
AcDbSymbolTableRecord
100
AcDbLinetypeTableRecord
  2
CENTER2
 70
     0
  3
Center (.5x) ___ _ ___ _ ___ _ ___ _ ___ _ ___
 72
    65
 73
     4
 40
1.125
 49
0.75
 74
     0
 49
-0.125
 74
     0
 49
0.125
 74
     0
 49
-0.125
 74
     0
  0
LTYPE
  5
9D
330
5
100
AcDbSymbolTableRecord
100
AcDbLinetypeTableRecord
  2
HIDDEN2
 70
     0
  3
Hidden (.5x) _ _ _ _ _ _ _ _ _ _ _ _ _ _ _ _ _
 72
    65
 73
     2
 40
0.1875
 49
0.125
 74
     0
 49
-0.0625
 74
     0
  0
LTYPE
  5
9E
330
5
100
AcDbSymbolTableRecord
100
AcDbLinetypeTableRecord
  2
Amconstr
 70
     0
  3
_______________________
 72
    65
 73
     2
 40
9999.0
 49
9999.0
 74
     0
 49
0.0
 74
     0
  0
LTYPE
  5
9F
330
5
100
AcDbSymbolTableRecord
100
AcDbLinetypeTableRecord
  2
Amzigzag2
 70
     0
  3
/\/-/\/-/\/-/\/-/\/-/\/
 72
    65
 73
     2
 40
0.4401
 49
0.0001
 74
     4
 75
   136
340
99
 46
0.0016
 50
0.0
 44
0.0
 45
0.0
 49
-0.44
 74
     0
  0
LTYPE
  5
A0
330
5
100
AcDbSymbolTableRecord
100
AcDbLinetypeTableRecord
  2
ACANSTGB
 70
     0
  3
__ . . __ . .
 72
    65
 73
     6
 40
0.354331
 49
0.15748
 74
     0
 49
-0.03937
 74
     0
 49
0.03937
 74
     0
 49
-0.03937
 74
     0
 49
0.03937
 74
     0
 49
-0.03937
 74
     0
  0
LTYPE
  5
A1
330
5
100
AcDbSymbolTableRecord
100
AcDbLinetypeTableRecord
  2
ACANSTGL
 70
     0
  3
_ _ _ _ _
 72
    65
 73
     2
 40
0.11811
 49
0.07874
 74
     0
 49
-0.03937
 74
     0
  0
LTYPE
  5
A2
330
5
100
AcDbSymbolTableRecord
100
AcDbLinetypeTableRecord
  2
ACAD_VIEWBORDER_LINETYPE
 70
     0
  3
Dashed line in view border
 72
    83
 73
     2
 40
0.393701
 49
0.062598
 74
     0
 49
-0.25
 74
     0
1001
ACAD_EXEMPT_FROM_CAD_STANDARDS
1070
     1
  0
ENDTAB
  0
TABLE
  2
LAYER
  5
2
330
0
100
AcDbSymbolTable
 70
     8
  0
LAYER
  5
54
330
2
100
AcDbSymbolTableRecord
100
AcDbLayerTableRecord
  2
0
 70
     0
 62
     7
  6
Continuous
370
    -3
390
F
347
21
348
0
1001
AcAecLayerStandard
1000

1000

  0
LAYER
  5
79
330
2
100
AcDbSymbolTableRecord
100
AcDbLayerTableRecord
  2
Defpoints
 70
     0
 62
     7
  6
Continuous
290
     0
370
    -3
390
F
347
21
348
0
1001
AcAecLayerStandard
1000

1000

  0
LAYER
  5
BD
330
2
100
AcDbSymbolTableRecord
100
AcDbLayerTableRecord
  2
Visible
 70
     0
 62
     7
  6
Continuous
370
    50
390
F
347
21
348
0
  0
ENDTAB
  0
TABLE
  2
STYLE
  5
3
330
0
100
AcDbSymbolTable
 70
     5
  0
STYLE
  5
55
330
3
100
AcDbSymbolTableRecord
100
AcDbTextStyleTableRecord
  2
Standard
 70
     0
 40
0.0
 41
1.0
 50
0.0
 71
     0
 42
0.12
  3
arial.ttf
  4

1001
ACAD
1000
Arial
1071
       34
  0
STYLE
  5
5A
330
3
100
AcDbSymbolTableRecord
100
AcDbTextStyleTableRecord
  2
Annotative
 70
     0
 40
0.0
 41
1.0
 50
0.0
 71
     0
 42
0.2
  3
txt
  4

1001
AcadAnnotative
1000
AnnotativeData
1002
{
1070
     1
1070
     1
1002
}
  0
STYLE
  5
98
330
3
100
AcDbSymbolTableRecord
100
AcDbTextStyleTableRecord
  2
FusionTitle
 70
     0
 40
0.0
 41
1.0
 50
0.0
 71
     0
 42
0.2
  3
arial.ttf
  4

1001
ACAD
1000
Arial
1071
       34
  0
STYLE
  5
99
330
3
100
AcDbSymbolTableRecord
100
AcDbTextStyleTableRecord
  2

 70
     1
 40
0.0
 41
1.0
 50
0.0
 71
     0
 42
0.12
  3
genltshp.shx
  4

  0
STYLE
  5
9A
330
3
100
AcDbSymbolTableRecord
100
AcDbTextStyleTableRecord
  2
ACANSGDT
 70
     0
 40
0.0
 41
1.0
 50
0.0
 71
     0
 42
0.12
  3
amgdt.shx
  4

  0
ENDTAB
  0
TABLE
  2
VIEW
  5
6
330
0
100
AcDbSymbolTable
 70
     0
  0
ENDTAB
  0
TABLE
  2
UCS
  5
7
330
0
100
AcDbSymbolTable
 70
     0
  0
ENDTAB
  0
TABLE
  2
APPID
  5
9
330
0
100
AcDbSymbolTable
 70
    25
  0
APPID
  5
56
330
9
100
AcDbSymbolTableRecord
100
AcDbRegAppTableRecord
  2
ACAD
 70
     0
  0
APPID
  5
5E
330
9
100
AcDbSymbolTableRecord
100
AcDbRegAppTableRecord
  2
AcadAnnotative
 70
     0
  0
APPID
  5
78
330
9
100
AcDbSymbolTableRecord
100
AcDbRegAppTableRecord
  2
ACAD_PSEXT
 70
     0
  0
APPID
  5
7A
330
9
100
AcDbSymbolTableRecord
100
AcDbRegAppTableRecord
  2
MCAD_NO_VIS
 70
     0
  0
APPID
  5
7B
330
9
100
AcDbSymbolTableRecord
100
AcDbRegAppTableRecord
  2
ACAD_TEMP_GRAPHIC
 70
     0
  0
APPID
  5
84
330
9
100
AcDbSymbolTableRecord
100
AcDbRegAppTableRecord
  2
ACAD_DSTYLE_DIMJAG
 70
     0
  0
APPID
  5
85
330
9
100
AcDbSymbolTableRecord
100
AcDbRegAppTableRecord
  2
ACAD_DSTYLE_DIMTALN
 70
     0
  0
APPID
  5
86
330
9
100
AcDbSymbolTableRecord
100
AcDbRegAppTableRecord
  2
ACAD_NAV_VCDISPLAY
 70
     0
  0
APPID
  5
87
330
9
100
AcDbSymbolTableRecord
100
AcDbRegAppTableRecord
  2
AcAecLayerStandard
 70
     0
  0
APPID
  5
88
330
9
100
AcDbSymbolTableRecord
100
AcDbRegAppTableRecord
  2
AcCmTransparency
 70
     0
  0
APPID
  5
89
330
9
100
AcDbSymbolTableRecord
100
AcDbRegAppTableRecord
  2
AcDbDynamicBlockGUID
 70
     0
  0
APPID
  5
8A
330
9
100
AcDbSymbolTableRecord
100
AcDbRegAppTableRecord
  2
ACAD_EXEMPT_FROM_CAD_STANDARDS
 70
     0
  0
APPID
  5
8B
330
9
100
AcDbSymbolTableRecord
100
AcDbRegAppTableRecord
  2
ACAD_DSTYLE_DIMBREAK
 70
     0
  0
APPID
  5
8C
330
9
100
AcDbSymbolTableRecord
100
AcDbRegAppTableRecord
  2
FUSIONTITLEBLOCK
 70
     0
  0
APPID
  5
8D
330
9
100
AcDbSymbolTableRecord
100
AcDbRegAppTableRecord
  2
FUSIONCURRENTTITLEBLOCK
 70
     0
  0
APPID
  5
8E
330
9
100
AcDbSymbolTableRecord
100
AcDbRegAppTableRecord
  2
AcSynergy
 70
     0
  0
APPID
  5
8F
330
9
100
AcDbSymbolTableRecord
100
AcDbRegAppTableRecord
  2
GENIUS_GENSCREG_15
 70
     0
  0
APPID
  5
90
330
9
100
AcDbSymbolTableRecord
100
AcDbRegAppTableRecord
  2
GENIUS_GENOBJ-N-SDF_13
 70
     0
  0
APPID
  5
91
330
9
100
AcDbSymbolTableRecord
100
AcDbRegAppTableRecord
  2
GENIUS_GENODEF_13
 70
     0
  0
APPID
  5
92
330
9
100
AcDbSymbolTableRecord
100
AcDbRegAppTableRecord
  2
ACAD_DIMASSOC_CALC_DIMLFAC
 70
     0
  0
APPID
  5
93
330
9
100
AcDbSymbolTableRecord
100
AcDbRegAppTableRecord
  2
ACAD_DIMASSOC_DIMLFAC
 70
     0
  0
APPID
  5
94
330
9
100
AcDbSymbolTableRecord
100
AcDbRegAppTableRecord
  2
ACAD_DIMASSOC_OVERRIDDEN_DIMLFAC
 70
     0
  0
APPID
  5
95
330
9
100
AcDbSymbolTableRecord
100
AcDbRegAppTableRecord
  2
ACAD_DSTYLE_DIMJAG_POSITION
 70
     0
  0
APPID
  5
96
330
9
100
AcDbSymbolTableRecord
100
AcDbRegAppTableRecord
  2
ACDBCOPYHELPER_XDATA
 70
     0
  0
APPID
  5
97
330
9
100
AcDbSymbolTableRecord
100
AcDbRegAppTableRecord
  2
ACATTRIBSERVICES
 70
     0
  0
ENDTAB
  0
TABLE
  2
DIMSTYLE
  5
A
330
0
100
AcDbSymbolTable
 70
     3
100
AcDbDimStyleTable
 71
     1
340
A5
  0
DIMSTYLE
105
58
330
A
100
AcDbSymbolTableRecord
100
AcDbDimStyleTableRecord
  2
Standard
 70
     0
  4
mm
 41
0.12
 42
0.07
 43
0.36
 44
0.07
 47
0.01
 48
0.01
 78
    12
 79
     3
 90
        1
140
0.12
141
0.0
147
0.05
176
   256
177
   256
178
   256
179
     2
271
     2
272
     2
284
    12
285
    12
286
    12
340
55
  0
DIMSTYLE
105
59
330
A
100
AcDbSymbolTableRecord
100
AcDbDimStyleTableRecord
  2
Annotative
 70
     0
 40
0.0
 41
0.12
 42
0.07
 43
0.36
 44
0.07
 78
    12
 79
     3
140
0.12
147
0.05
179
     2
271
     2
272
     2
284
    12
285
    12
286
    12
340
55
1001
AcadAnnotative
1000
AnnotativeData
1002
{
1070
     1
1070
     1
1002
}
  0
DIMSTYLE
105
A5
330
A
100
AcDbSymbolTableRecord
100
AcDbDimStyleTableRecord
  2
Dim-Standard
 70
     0
  4
mm
 41
0.12
 42
0.07
 43
0.36
 44
0.07
 47
0.01
 48
0.01
 78
    12
 79
     3
 90
        1
140
0.12
141
0.0
143
1.0
144
25.4
147
0.05
179
     2
271
     2
272
     2
284
    12
285
    12
286
    12
340
55
1001
ACAD_DSTYLE_DIMJAG
1070
   388
1040
1.5
1001
ACAD_DSTYLE_DIMTALN
1070
   392
1070
     1
1001
ACAD_DSTYLE_DIMBREAK
1070
   391
1040
0.12
  0
ENDTAB
  0
TABLE
  2
BLOCK_RECORD
  5
1
330
0
100
AcDbSymbolTable
 70
     6
  0
BLOCK_RECORD
  5
70
102
{ACAD_XDICTIONARY
360
B6
102
}
330
1
100
AcDbSymbolTableRecord
100
AcDbBlockTableRecord
  2
*Model_Space
340
73
 70
     0
280
     1
281
     0
  0
BLOCK_RECORD
  5
6C
330
1
100
AcDbSymbolTableRecord
100
AcDbBlockTableRecord
  2
*Paper_Space
340
6F
 70
     0
280
     1
281
     0
  0
BLOCK_RECORD
  5
74
330
1
100
AcDbSymbolTableRecord
100
AcDbBlockTableRecord
  2
*Paper_Space0
340
77
 70
     0
280
     1
281
     0
  0
ENDTAB
  0
ENDSEC
  0
SECTION
  2
BLOCKS
  0
BLOCK
  5
71
330
70
100
AcDbEntity
  8
0
100
AcDbBlockBegin
  2
*Model_Space
 70
     0
 10
0.0
 20
0.0
 30
0.0
  3
*Model_Space
  1

  0
ENDBLK
  5
72
330
70
100
AcDbEntity
  8
0
100
AcDbBlockEnd
  0
BLOCK
  5
6D
330
6C
100
AcDbEntity
 67
     1
  8
0
100
AcDbBlockBegin
  2
*Paper_Space
 70
     0
 10
0.0
 20
0.0
 30
0.0
  3
*Paper_Space
  1

  0
ENDBLK
  5
6E
330
6C
100
AcDbEntity
 67
     1
  8
0
100
AcDbBlockEnd
  0
BLOCK
  5
75
330
74
100
AcDbEntity
 67
     1
  8
0
100
AcDbBlockBegin
  2
*Paper_Space0
 70
     0
 10
0.0
 20
0.0
 30
0.0
  3
*Paper_Space0
  1

  0
ENDBLK
  5
76
330
74
100
AcDbEntity
 67
     1
  8
0
100
AcDbBlockEnd
  0
ENDSEC
  0
SECTION
  2
ENTITIES
  0
ARC
  5
289
330
70
100
AcDbEntity
  8
Visible
100
AcDbCircle
 10
-1.163518
 20
4.163002
 30
0.0
 40
0.0590551181102362
210
0.0000000000000001
220
0.0
230
-1.0
100
AcDbArc
 50
90.0
 51
180.0
  0
LINE
  5
28A
330
70
100
AcDbEntity
  8
Visible
100
AcDbLine
 10
1.163518
 20
4.222057
 30
0.0
 11
0.231628
 21
4.222057
 31
0.0
210
0.0
220
1.0
230
0.0
  0
ARC
  5
28B
330
70
100
AcDbEntity
  8
Visible
100
AcDbCircle
 10
-1.163518
 20
0.531112
 30
0.0
 40
0.0590551181102363
210
0.0000000000000001
220
0.0
230
-1.0
100
AcDbArc
 50
180.0
 51
270.0
  0
LINE
  5
28C
330
70
100
AcDbEntity
  8
Visible
100
AcDbLine
 10
0.231628
 20
0.472057
 30
0.0
 11
1.163518
 21
0.472057
 31
0.0
210
0.0
220
1.0
230
0.0
  0
ARC
  5
28D
330
70
100
AcDbEntity
  8
Visible
100
AcDbCircle
 10
-0.231628
 20
0.531112
 30
0.0
 40
0.0590551181102362
210
0.0000000000000001
220
0.0
230
-1.0
100
AcDbArc
 50
270.0
 51
0.0
  0
ARC
  5
28E
330
70
100
AcDbEntity
  8
Visible
100
AcDbCircle
 10
-0.231628
 20
4.163002
 30
0.0
 40
0.0590551181102362
210
0.0000000000000001
220
0.0
230
-1.0
100
AcDbArc
 50
0.0
 51
90.0
  0
LINE
  5
28F
330
70
100
AcDbEntity
  8
Visible
100
AcDbLine
 10
1.222573
 20
0.531112
 30
0.0
 11
1.222573
 21
4.163002
 31
0.0
210
0.0
220
1.0
230
0.0
  0
LINE
  5
290
330
70
100
AcDbEntity
  8
Visible
100
AcDbLine
 10
0.172573
 20
4.163002
 30
0.0
 11
0.172573
 21
0.531112
 31
0.0
210
0.0
220
1.0
230
0.0
  0
ARC
  5
291
330
70
100
AcDbEntity
  8
Visible
100
AcDbCircle
 10
-14.663518
 20
4.163002
 30
0.0
 40
0.0590551181102363
210
0.0000000000000001
220
0.0
230
-1.0
100
AcDbArc
 50
90.0
 51
180.0
  0
LINE
  5
292
330
70
100
AcDbEntity
  8
Visible
100
AcDbLine
 10
14.722573
 20
0.531112
 30
0.0
 11
14.722573
 21
4.163002
 31
0.0
210
0.0
220
1.0
230
0.0
  0
CIRCLE
  5
293
330
70
100
AcDbEntity
  8
Visible
100
AcDbCircle
 10
-6.627632
 20
3.12475
 30
0.0
 40
0.2329999999999994
210
0.0000000000000001
220
0.0
230
-1.0
  0
CIRCLE
  5
294
330
70
100
AcDbEntity
  8
Visible
100
AcDbCircle
 10
-5.828743
 20
3.12475
 30
0.0
 40
0.2329999999999994
210
0.0000000000000001
220
0.0
230
-1.0
  0
CIRCLE
  5
295
330
70
100
AcDbEntity
  8
Visible
100
AcDbCircle
 10
-10.615366
 20
3.827293
 30
0.0
 40
0.0850000000000005
210
0.0000000000000001
220
0.0
230
-1.0
  0
CIRCLE
  5
296
330
70
100
AcDbEntity
  8
Visible
100
AcDbCircle
 10
-10.615366
 20
0.787293
 30
0.0
 40
0.0850000000000005
210
0.0000000000000001
220
0.0
230
-1.0
  0
CIRCLE
  5
297
330
70
100
AcDbEntity
  8
Visible
100
AcDbCircle
 10
-8.245898
 20
1.524209
 30
0.0
 40
0.2329999999999994
210
0.0000000000000001
220
0.0
230
-1.0
  0
CIRCLE
  5
298
330
70
100
AcDbEntity
  8
Visible
100
AcDbCircle
 10
-3.08917
 20
0.786046
 30
0.0
 40
0.0849999999999991
210
0.0000000000000001
220
0.0
230
-1.0
  0
LINE
  5
299
330
70
100
AcDbEntity
  8
Visible
100
AcDbLine
 10
3.717986
 20
3.017742
 30
0.0
 11
4.546726
 21
3.017742
 31
0.0
210
0.0
220
1.0
230
0.0
  0
LINE
  5
29A
330
70
100
AcDbEntity
  8
Visible
100
AcDbLine
 10
4.546726
 20
3.017742
 30
0.0
 11
4.546726
 21
1.597742
 31
0.0
210
0.0
220
1.0
230
0.0
  0
LINE
  5
29B
330
70
100
AcDbEntity
  8
Visible
100
AcDbLine
 10
4.546726
 20
1.597742
 30
0.0
 11
3.717986
 21
1.597742
 31
0.0
210
0.0
220
1.0
230
0.0
  0
LINE
  5
29C
330
70
100
AcDbEntity
  8
Visible
100
AcDbLine
 10
3.717986
 20
1.597742
 30
0.0
 11
3.717986
 21
3.017742
 31
0.0
210
0.0
220
1.0
230
0.0
  0
CIRCLE
  5
29D
330
70
100
AcDbEntity
  8
Visible
100
AcDbCircle
 10
-1.54917
 20
0.786046
 30
0.0
 40
0.0849999999999991
210
0.0000000000000001
220
0.0
230
-1.0
  0
LINE
  5
29E
330
70
100
AcDbEntity
  8
Visible
100
AcDbLine
 10
10.225407
 20
3.026143
 30
0.0
 11
11.054147
 21
3.026143
 31
0.0
210
0.0
220
1.0
230
0.0
  0
LINE
  5
29F
330
70
100
AcDbEntity
  8
Visible
100
AcDbLine
 10
11.054147
 20
3.026143
 30
0.0
 11
11.054147
 21
1.606143
 31
0.0
210
0.0
220
1.0
230
0.0
  0
LINE
  5
2A0
330
70
100
AcDbEntity
  8
Visible
100
AcDbLine
 10
11.054147
 20
1.606143
 30
0.0
 11
10.225407
 21
1.606143
 31
0.0
210
0.0
220
1.0
230
0.0
  0
LINE
  5
2A1
330
70
100
AcDbEntity
  8
Visible
100
AcDbLine
 10
10.225407
 20
1.606143
 30
0.0
 11
10.225407
 21
3.026143
 31
0.0
210
0.0
220
1.0
230
0.0
  0
CIRCLE
  5
2A2
330
70
100
AcDbEntity
  8
Visible
100
AcDbCircle
 10
-1.54917
 20
3.826046
 30
0.0
 40
0.0849999999999991
210
0.0000000000000001
220
0.0
230
-1.0
  0
CIRCLE
  5
2A3
330
70
100
AcDbEntity
  8
Visible
100
AcDbCircle
 10
-3.08917
 20
3.826046
 30
0.0
 40
0.0849999999999991
210
0.0000000000000001
220
0.0
230
-1.0
  0
CIRCLE
  5
2A4
330
70
100
AcDbEntity
  8
Visible
100
AcDbCircle
 10
-6.645898
 20
1.524209
 30
0.0
 40
0.2329999999999994
210
0.0000000000000001
220
0.0
230
-1.0
  0
CIRCLE
  5
2A5
330
70
100
AcDbEntity
  8
Visible
100
AcDbCircle
 10
-7.42652
 20
3.12475
 30
0.0
 40
0.2329999999999994
210
0.0000000000000001
220
0.0
230
-1.0
  0
CIRCLE
  5
2A6
330
70
100
AcDbEntity
  8
Visible
100
AcDbCircle
 10
-5.045898
 20
1.524209
 30
0.0
 40
0.2329999999999994
210
0.0000000000000001
220
0.0
230
-1.0
  0
ARC
  5
2A7
330
70
100
AcDbEntity
  8
Visible
100
AcDbCircle
 10
-2.153586
 20
2.30924
 30
0.0
 40
0.3704724409448829
210
0.0000000000000001
220
0.0
230
-1.0
100
AcDbArc
 50
148.623139
 51
271.376861
  0
LINE
  5
2A8
330
70
100
AcDbEntity
  8
Visible
100
AcDbLine
 10
2.144684
 20
1.938875
 30
0.0
 11
1.837291
 21
2.116348
 31
0.0
210
0.0
220
1.0
230
0.0
  0
ARC
  5
2A9
330
70
100
AcDbEntity
  8
Visible
100
AcDbCircle
 10
-2.153586
 20
2.30924
 30
0.0
 40
0.3704724409448828
210
0.0000000000000001
220
0.0
230
-1.0
100
AcDbArc
 50
328.623139
 51
91.376861
  0
LINE
  5
2AA
330
70
100
AcDbEntity
  8
Visible
100
AcDbLine
 10
2.162488
 20
2.679606
 30
0.0
 11
2.469881
 21
2.502132
 31
0.0
210
0.0
220
1.0
230
0.0
  0
CIRCLE
  5
2AB
330
70
100
AcDbEntity
  8
Visible
100
AcDbCircle
 10
-9.045898
 20
1.524209
 30
0.0
 40
0.2329999999999994
210
0.0000000000000001
220
0.0
230
-1.0
  0
CIRCLE
  5
2AC
330
70
100
AcDbEntity
  8
Visible
100
AcDbCircle
 10
-5.029854
 20
3.12475
 30
0.0
 40
0.2329999999999994
210
0.0000000000000001
220
0.0
230
-1.0
  0
CIRCLE
  5
2AD
330
70
100
AcDbEntity
  8
Visible
100
AcDbCircle
 10
-9.024298
 20
3.12475
 30
0.0
 40
0.2329999999999994
210
0.0000000000000001
220
0.0
230
-1.0
  0
CIRCLE
  5
2AE
330
70
100
AcDbEntity
  8
Visible
100
AcDbCircle
 10
-12.219854
 20
3.12475
 30
0.0
 40
0.2329999999999994
210
0.0000000000000001
220
0.0
230
-1.0
  0
CIRCLE
  5
2AF
330
70
100
AcDbEntity
  8
Visible
100
AcDbCircle
 10
-11.420965
 20
3.12475
 30
0.0
 40
0.2329999999999994
210
0.0000000000000001
220
0.0
230
-1.0
  0
CIRCLE
  5
2B0
330
70
100
AcDbEntity
  8
Visible
100
AcDbCircle
 10
-14.305366
 20
3.827293
 30
0.0
 40
0.0850000000000005
210
0.0000000000000001
220
0.0
230
-1.0
  0
CIRCLE
  5
2B1
330
70
100
AcDbEntity
  8
Visible
100
AcDbCircle
 10
-9.845898
 20
1.524209
 30
0.0
 40
0.2329999999999994
210
0.0000000000000001
220
0.0
230
-1.0
  0
CIRCLE
  5
2B2
330
70
100
AcDbEntity
  8
Visible
100
AcDbCircle
 10
-5.845898
 20
1.524209
 30
0.0
 40
0.2329999999999994
210
0.0000000000000001
220
0.0
230
-1.0
  0
CIRCLE
  5
2B3
330
70
100
AcDbEntity
  8
Visible
100
AcDbCircle
 10
-7.445898
 20
1.524209
 30
0.0
 40
0.2329999999999994
210
0.0000000000000001
220
0.0
230
-1.0
  0
CIRCLE
  5
2B4
330
70
100
AcDbEntity
  8
Visible
100
AcDbCircle
 10
-8.225409
 20
3.12475
 30
0.0
 40
0.2329999999999994
210
0.0000000000000001
220
0.0
230
-1.0
  0
CIRCLE
  5
2B5
330
70
100
AcDbEntity
  8
Visible
100
AcDbCircle
 10
-14.305366
 20
0.787293
 30
0.0
 40
0.0850000000000005
210
0.0000000000000001
220
0.0
230
-1.0
  0
CIRCLE
  5
2B6
330
70
100
AcDbEntity
  8
Visible
100
AcDbCircle
 10
-9.823187
 20
3.12475
 30
0.0
 40
0.2329999999999994
210
0.0000000000000001
220
0.0
230
-1.0
  0
LINE
  5
2B7
330
70
100
AcDbEntity
  8
Visible
100
AcDbLine
 10
14.663518
 20
4.222057
 30
0.0
 11
1.281628
 21
4.222057
 31
0.0
210
0.0
220
1.0
230
0.0
  0
ARC
  5
2B8
330
70
100
AcDbEntity
  8
Visible
100
AcDbCircle
 10
-1.281628
 20
4.163002
 30
0.0
 40
0.0590551181102362
210
0.0000000000000001
220
0.0
230
-1.0
100
AcDbArc
 50
0.0
 51
90.0
  0
LINE
  5
2B9
330
70
100
AcDbEntity
  8
Visible
100
AcDbLine
 10
1.222573
 20
4.163002
 30
0.0
 11
1.222573
 21
0.531112
 31
0.0
210
0.0
220
1.0
230
0.0
  0
ARC
  5
2BA
330
70
100
AcDbEntity
  8
Visible
100
AcDbCircle
 10
-1.281628
 20
0.531112
 30
0.0
 40
0.0590551181102362
210
0.0000000000000001
220
0.0
230
-1.0
100
AcDbArc
 50
270.0
 51
0.0
  0
LINE
  5
2BB
330
70
100
AcDbEntity
  8
Visible
100
AcDbLine
 10
1.281628
 20
0.472057
 30
0.0
 11
14.663518
 21
0.472057
 31
0.0
210
0.0
220
1.0
230
0.0
  0
ARC
  5
2BC
330
70
100
AcDbEntity
  8
Visible
100
AcDbCircle
 10
-14.663518
 20
0.531112
 30
0.0
 40
0.0590551181102363
210
0.0000000000000001
220
0.0
230
-1.0
100
AcDbArc
 50
180.0
 51
270.0
  0
ARC
  5
2BD
330
70
100
AcDbEntity
  8
Visible
100
AcDbCircle
 10
-11.077622
 20
12.805013
 30
0.0
 40
0.0590551181102362
210
0.0000000000000001
220
0.0
230
-1.0
100
AcDbArc
 50
274.185896
 51
0.0
  0
ARC
  5
2BE
330
70
100
AcDbEntity
  8
Visible
100
AcDbCircle
 10
-11.018566
 20
11.998116
 30
0.0
 40
0.7500000000000004
210
0.0000000000000001
220
0.0
230
-1.0
100
AcDbArc
 50
94.185896
 51
265.814104
  0
ARC
  5
2BF
330
70
100
AcDbEntity
  8
Visible
100
AcDbCircle
 10
-11.077622
 20
11.191219
 30
0.0
 40
0.0590551181102362
210
0.0000000000000001
220
0.0
230
-1.0
100
AcDbArc
 50
0.0
 51
85.814104
  0
LINE
  5
2C0
330
70
100
AcDbEntity
  8
Visible
100
AcDbLine
 10
11.018566
 20
11.191219
 30
0.0
 11
11.018566
 21
10.780675
 31
0.0
210
0.0
220
1.0
230
0.0
  0
ARC
  5
2C1
330
70
100
AcDbEntity
  8
Visible
100
AcDbCircle
 10
-11.077622
 20
13.281014
 30
0.0
 40
0.0590551181102362
210
0.0000000000000001
220
0.0
230
-1.0
100
AcDbArc
 50
0.0
 51
90.156149
  0
LINE
  5
2C2
330
70
100
AcDbEntity
  8
Visible
100
AcDbLine
 10
11.018566
 20
13.281014
 30
0.0
 11
11.018566
 21
12.805013
 31
0.0
210
0.0
220
1.0
230
0.0
  0
ARC
  5
2C3
330
70
100
AcDbEntity
  8
Visible
100
AcDbCircle
 10
-20.188647
 20
9.079358
 30
0.0
 40
0.0590551181102362
210
0.0000000000000001
220
0.0
230
-1.0
100
AcDbArc
 50
180.0
 51
270.0
  0
LINE
  5
2C4
330
70
100
AcDbEntity
  8
Visible
100
AcDbLine
 10
20.247702
 20
9.079358
 30
0.0
 11
20.247702
 21
21.746681
 31
0.0
210
0.0
220
1.0
230
0.0
  0
ARC
  5
2C5
330
70
100
AcDbEntity
  8
Visible
100
AcDbCircle
 10
-16.293579
 20
21.746681
 30
0.0
 40
0.0590551181102362
210
0.0000000000000001
220
0.0
230
-1.0
100
AcDbArc
 50
0.0
 51
90.0
  0
LINE
  5
2C6
330
70
100
AcDbEntity
  8
Visible
100
AcDbLine
 10
20.188647
 20
21.805736
 30
0.0
 11
16.293579
 21
21.805736
 31
0.0
210
0.0
220
1.0
230
0.0
  0
ARC
  5
2C7
330
70
100
AcDbEntity
  8
Visible
100
AcDbCircle
 10
-20.188647
 20
21.746681
 30
0.0
 40
0.0590551181102362
210
0.0000000000000001
220
0.0
230
-1.0
100
AcDbArc
 50
90.0
 51
180.0
  0
ARC
  5
2C8
330
70
100
AcDbEntity
  8
Visible
100
AcDbCircle
 10
-11.077622
 20
9.079358
 30
0.0
 40
0.0590551181102362
210
0.0000000000000001
220
0.0
230
-1.0
100
AcDbArc
 50
270.0
 51
0.0
  0
LINE
  5
2C9
330
70
100
AcDbEntity
  8
Visible
100
AcDbLine
 10
11.018566
 20
10.530675
 30
0.0
 11
11.018566
 21
9.079358
 31
0.0
210
0.0
220
1.0
230
0.0
  0
CIRCLE
  5
2CA
330
70
100
AcDbEntity
  8
Visible
100
AcDbCircle
 10
-13.294809
 20
10.040998
 30
0.0
 40
0.0750000000000001
210
0.0000000000000001
220
0.0
230
-1.0
  0
CIRCLE
  5
2CB
330
70
100
AcDbEntity
  8
Visible
100
AcDbCircle
 10
-16.794809
 20
12.515872
 30
0.0
 40
0.0750000000000001
210
0.0000000000000001
220
0.0
230
-1.0
  0
CIRCLE
  5
2CC
330
70
100
AcDbEntity
  8
Visible
100
AcDbCircle
 10
-13.294809
 20
12.515872
 30
0.0
 40
0.0750000000000001
210
0.0000000000000001
220
0.0
230
-1.0
  0
CIRCLE
  5
2CD
330
70
100
AcDbEntity
  8
Visible
100
AcDbCircle
 10
-14.525153
 20
11.271342
 30
0.0
 40
1.574999999999999
210
0.0000000000000001
220
0.0
230
-1.0
  0
ARC
  5
2CE
330
70
100
AcDbEntity
  8
Visible
100
AcDbCircle
 10
-18.025153
 20
15.021342
 30
0.0
 40
1.574999999999999
210
0.0000000000000001
220
0.0
230
-1.0
100
AcDbArc
 50
319.552071
 51
310.447929
  0
LINE
  5
2CF
330
70
100
AcDbEntity
  8
Visible
100
AcDbLine
 10
16.706421
 20
13.879387
 30
0.0
 11
16.826584
 21
13.99955
 31
0.0
210
0.0
220
1.0
230
0.0
  0
ARC
  5
2D0
330
70
100
AcDbEntity
  8
Visible
100
AcDbCircle
 10
-16.794809
 20
13.790998
 30
0.0
 40
0.1250000000000003
210
0.0000000000000001
220
0.0
230
-1.0
100
AcDbArc
 50
225.0
 51
45.0
  0
LINE
  5
2D1
330
70
100
AcDbEntity
  8
Visible
100
AcDbLine
 10
17.003361
 20
13.822773
 30
0.0
 11
16.883197
 21
13.70261
 31
0.0
210
0.0
220
1.0
230
0.0
  0
CIRCLE
  5
2D2
330
70
100
AcDbEntity
  8
Visible
100
AcDbCircle
 10
-19.269683
 20
13.790998
 30
0.0
 40
0.0750000000000001
210
0.0000000000000001
220
0.0
230
-1.0
  0
CIRCLE
  5
2D3
330
70
100
AcDbEntity
  8
Visible
100
AcDbCircle
 10
-19.269683
 20
20.015872
 30
0.0
 40
0.0750000000000001
210
0.0000000000000001
220
0.0
230
-1.0
  0
CIRCLE
  5
2D4
330
70
100
AcDbEntity
  8
Visible
100
AcDbCircle
 10
-19.849558
 20
21.485999
 30
0.0
 40
0.0850000000000008
210
0.0000000000000001
220
0.0
230
-1.0
  0
CIRCLE
  5
2D5
330
70
100
AcDbEntity
  8
Visible
100
AcDbCircle
 10
-17.112842
 20
20.926983
 30
0.0
 40
0.0750000000000001
210
0.0000000000000001
220
0.0
230
-1.0
  0
ARC
  5
2D6
330
70
100
AcDbEntity
  8
Visible
100
AcDbCircle
 10
-19.331842
 20
20.682983
 30
0.0
 40
0.1559999999995547
210
0.0000000000000001
220
0.0
230
-1.0
100
AcDbArc
 50
180.0
 51
270.0
  0
LINE
  5
2D7
330
70
100
AcDbEntity
  8
Visible
100
AcDbLine
 10
19.487842
 20
21.170983
 30
0.0
 11
19.487842
 21
20.682983
 31
0.0
210
0.0
220
1.0
230
0.0
  0
ARC
  5
2D8
330
70
100
AcDbEntity
  8
Visible
100
AcDbCircle
 10
-19.331842
 20
21.170983
 30
0.0
 40
0.1559999999999995
210
0.0000000000000001
220
0.0
230
-1.0
100
AcDbArc
 50
90.0
 51
180.0
  0
LINE
  5
2D9
330
70
100
AcDbEntity
  8
Visible
100
AcDbLine
 10
17.393842
 20
21.326983
 30
0.0
 11
19.331842
 21
21.326983
 31
0.0
210
0.0
220
1.0
230
0.0
  0
ARC
  5
2DA
330
70
100
AcDbEntity
  8
Visible
100
AcDbCircle
 10
-17.393842
 20
21.170983
 30
0.0
 40
0.1560000000010933
210
0.0000000000000001
220
0.0
230
-1.0
100
AcDbArc
 50
360.0
 51
90.0
  0
LINE
  5
2DB
330
70
100
AcDbEntity
  8
Visible
100
AcDbLine
 10
17.237842
 20
20.682983
 30
0.0
 11
17.237842
 21
21.170983
 31
0.0
210
0.0
220
1.0
230
0.0
  0
ARC
  5
2DC
330
70
100
AcDbEntity
  8
Visible
100
AcDbCircle
 10
-17.393842
 20
20.682983
 30
0.0
 40
0.1560000000030907
210
0.0000000000000001
220
0.0
230
-1.0
100
AcDbArc
 50
270.0
 51
360.0
  0
LINE
  5
2DD
330
70
100
AcDbEntity
  8
Visible
100
AcDbLine
 10
19.331842
 20
20.526983
 30
0.0
 11
17.393842
 21
20.526983
 31
0.0
210
0.0
220
1.0
230
0.0
  0
CIRCLE
  5
2DE
330
70
100
AcDbEntity
  8
Visible
100
AcDbCircle
 10
-15.769683
 20
12.515872
 30
0.0
 40
0.0750000000000001
210
0.0000000000000001
220
0.0
230
-1.0
  0
CIRCLE
  5
2DF
330
70
100
AcDbEntity
  8
Visible
100
AcDbCircle
 10
-15.769683
 20
10.040998
 30
0.0
 40
0.0750000000000001
210
0.0000000000000001
220
0.0
230
-1.0
  0
ARC
  5
2E0
330
70
100
AcDbEntity
  8
Visible
100
AcDbCircle
 10
-18.025153
 20
11.271342
 30
0.0
 40
1.574999999999999
210
0.0000000000000001
220
0.0
230
-1.0
100
AcDbArc
 50
319.552071
 51
310.447929
  0
LINE
  5
2E1
330
70
100
AcDbEntity
  8
Visible
100
AcDbLine
 10
16.706421
 20
10.129387
 30
0.0
 11
16.826584
 21
10.24955
 31
0.0
210
0.0
220
1.0
230
0.0
  0
ARC
  5
2E2
330
70
100
AcDbEntity
  8
Visible
100
AcDbCircle
 10
-16.794809
 20
10.040998
 30
0.0
 40
0.1250000000000003
210
0.0000000000000001
220
0.0
230
-1.0
100
AcDbArc
 50
225.0
 51
45.0
  0
LINE
  5
2E3
330
70
100
AcDbEntity
  8
Visible
100
AcDbLine
 10
17.003361
 20
10.072773
 30
0.0
 11
16.883197
 21
9.95261
 31
0.0
210
0.0
220
1.0
230
0.0
  0
CIRCLE
  5
2E4
330
70
100
AcDbEntity
  8
Visible
100
AcDbCircle
 10
-19.612842
 20
20.926983
 30
0.0
 40
0.075
210
0.0000000000000001
220
0.0
230
-1.0
  0
CIRCLE
  5
2E5
330
70
100
AcDbEntity
  8
Visible
100
AcDbCircle
 10
-19.269683
 20
10.040998
 30
0.0
 40
0.0750000000000001
210
0.0000000000000001
220
0.0
230
-1.0
  0
CIRCLE
  5
2E6
330
70
100
AcDbEntity
  8
Visible
100
AcDbCircle
 10
-19.269683
 20
16.265872
 30
0.0
 40
0.0750000000000001
210
0.0000000000000001
220
0.0
230
-1.0
  0
CIRCLE
  5
2E7
330
70
100
AcDbEntity
  8
Visible
100
AcDbCircle
 10
-19.269683
 20
12.515872
 30
0.0
 40
0.0750000000000001
210
0.0000000000000001
220
0.0
230
-1.0
  0
CIRCLE
  5
2E8
330
70
100
AcDbEntity
  8
Visible
100
AcDbCircle
 10
-16.794809
 20
16.265872
 30
0.0
 40
0.0750000000000001
210
0.0000000000000001
220
0.0
230
-1.0
  0
ARC
  5
2E9
330
70
100
AcDbEntity
  8
Visible
100
AcDbCircle
 10
-11.608652
 20
11.098172
 30
0.0
 40
0.0850000000000005
210
0.0000000000000001
220
0.0
230
-1.0
100
AcDbArc
 50
89.997506
 51
270.001542
  0
ARC
  5
2EA
330
70
100
AcDbEntity
  8
Visible
100
AcDbCircle
 10
-11.608646
 20
11.098172
 30
0.0
 40
0.0850000000000005
210
0.0000000000000001
220
0.0
230
-1.0
100
AcDbArc
 50
269.997506
 51
90.001542
  0
CIRCLE
  5
2EB
330
70
100
AcDbEntity
  8
Visible
100
AcDbCircle
 10
-19.269683
 20
17.540998
 30
0.0
 40
0.0750000000000001
210
0.0000000000000001
220
0.0
230
-1.0
  0
ARC
  5
2EC
330
70
100
AcDbEntity
  8
Visible
100
AcDbCircle
 10
-11.608573
 20
12.898112
 30
0.0
 40
0.0850000000000005
210
0.0000000000000001
220
0.0
230
-1.0
100
AcDbArc
 50
89.791826
 51
269.795797
  0
ARC
  5
2ED
330
70
100
AcDbEntity
  8
Visible
100
AcDbCircle
 10
-11.608567
 20
12.898112
 30
0.0
 40
0.0850000000000005
210
0.0000000000000001
220
0.0
230
-1.0
100
AcDbArc
 50
269.791813
 51
89.79581
  0
CIRCLE
  5
2EE
330
70
100
AcDbEntity
  8
Visible
100
AcDbCircle
 10
-19.849558
 20
9.285999
 30
0.0
 40
0.0850000000000008
210
0.0000000000000001
220
0.0
230
-1.0
  0
CIRCLE
  5
2EF
330
70
100
AcDbEntity
  8
Visible
100
AcDbCircle
 10
-11.249558
 20
9.285999
 30
0.0
 40
0.0850000000000005
210
0.0000000000000001
220
0.0
230
-1.0
  0
CIRCLE
  5
2F0
330
70
100
AcDbEntity
  8
Visible
100
AcDbCircle
 10
-16.794809
 20
20.015872
 30
0.0
 40
0.0750000000000001
210
0.0000000000000001
220
0.0
230
-1.0
  0
CIRCLE
  5
2F1
330
70
100
AcDbEntity
  8
Visible
100
AcDbCircle
 10
-16.549558
 20
21.485999
 30
0.0
 40
0.0850000000000005
210
0.0000000000000001
220
0.0
230
-1.0
  0
CIRCLE
  5
2F2
330
70
100
AcDbEntity
  8
Visible
100
AcDbCircle
 10
-19.849558
 20
13.335999
 30
0.0
 40
0.0850000000000008
210
0.0000000000000001
220
0.0
230
-1.0
  0
CIRCLE
  5
2F3
330
70
100
AcDbEntity
  8
Visible
100
AcDbCircle
 10
-15.549558
 20
9.285999
 30
0.0
 40
0.0850000000000005
210
0.0000000000000001
220
0.0
230
-1.0
  0
CIRCLE
  5
2F4
330
70
100
AcDbEntity
  8
Visible
100
AcDbCircle
 10
-19.849558
 20
16.985999
 30
0.0
 40
0.0850000000000008
210
0.0000000000000001
220
0.0
230
-1.0
  0
ARC
  5
2F5
330
70
100
AcDbEntity
  8
Visible
100
AcDbCircle
 10
-16.794809
 20
17.540998
 30
0.0
 40
0.1250000000000003
210
0.0000000000000001
220
0.0
230
-1.0
100
AcDbArc
 50
225.0
 51
45.0
  0
LINE
  5
2F6
330
70
100
AcDbEntity
  8
Visible
100
AcDbLine
 10
17.003361
 20
17.572773
 30
0.0
 11
16.883197
 21
17.45261
 31
0.0
210
0.0
220
1.0
230
0.0
  0
ARC
  5
2F7
330
70
100
AcDbEntity
  8
Visible
100
AcDbCircle
 10
-18.025153
 20
18.771342
 30
0.0
 40
1.575
210
0.0000000000000001
220
0.0
230
-1.0
100
AcDbArc
 50
319.552071
 51
310.447929
  0
LINE
  5
2F8
330
70
100
AcDbEntity
  8
Visible
100
AcDbLine
 10
16.706421
 20
17.629387
 30
0.0
 11
16.826584
 21
17.74955
 31
0.0
210
0.0
220
1.0
230
0.0
  0
LINE
  5
2F9
330
70
100
AcDbEntity
  8
Visible
100
AcDbLine
 10
16.234524
 20
13.326015
 30
0.0
 11
11.077783
 21
13.340069
 31
0.0
210
0.0
220
1.0
230
0.0
  0
LINE
  5
2FA
330
70
100
AcDbEntity
  8
Visible
100
AcDbLine
 10
16.234524
 20
21.746681
 30
0.0
 11
16.234524
 21
13.326015
 31
0.0
210
0.0
220
1.0
230
0.0
  0
LINE
  5
2FB
330
70
100
AcDbEntity
  8
Visible
100
AcDbLine
 10
11.077622
 20
9.020303
 30
0.0
 11
20.188647
 21
9.020303
 31
0.0
210
0.0
220
1.0
230
0.0
  0
ARC
  5
2FC
330
70
100
AcDbEntity
  8
Visible
100
AcDbCircle
 10
-11.018566
 20
10.655675
 30
0.0
 40
0.1249999999999996
210
0.0000000000000001
220
0.0
230
-1.0
100
AcDbArc
 50
90.0
 51
270.0
  0
ARC
  5
2FD
330
70
100
AcDbEntity
  8
Visible
100
AcDbCircle
 10
-10.959511
 20
12.805013
 30
0.0
 40
0.0590551181102362
210
0.0000000000000001
220
0.0
230
-1.0
100
AcDbArc
 50
180.0
 51
265.814104
  0
ARC
  5
2FE
330
70
100
AcDbEntity
  8
Visible
100
AcDbCircle
 10
11.018566
 20
11.998116
 30
0.0
 40
0.7500000000000005
100
AcDbArc
 50
94.185896
 51
265.814104
  0
ARC
  5
2FF
330
70
100
AcDbEntity
  8
Visible
100
AcDbCircle
 10
-10.959511
 20
11.191219
 30
0.0
 40
0.0590551181102363
210
0.0000000000000001
220
0.0
230
-1.0
100
AcDbArc
 50
94.185896
 51
180.0
  0
ARC
  5
300
330
70
100
AcDbEntity
  8
Visible
100
AcDbCircle
 10
-10.959511
 20
13.281336
 30
0.0
 40
0.0590551181102362
210
0.0000000000000001
220
0.0
230
-1.0
100
AcDbArc
 50
90.156149
 51
180.0
  0
LINE
  5
301
330
70
100
AcDbEntity
  8
Visible
100
AcDbLine
 10
5.802609
 20
13.354445
 30
0.0
 11
10.959672
 21
13.340391
 31
0.0
210
0.0
220
1.0
230
0.0
  0
ARC
  5
302
330
70
100
AcDbEntity
  8
Visible
100
AcDbCircle
 10
-5.743554
 20
21.14617
 30
0.0
 40
0.059055118110232
210
0.0000000000000001
220
0.0
230
-1.0
100
AcDbArc
 50
77.879399
 51
180.0
  0
SPLINE
  5
303
330
70
100
AcDbEntity
  8
Visible
100
AcDbSpline
210
0.0
220
0.0
230
1.0
 70
     8
 71
     3
 72
    14
 73
    10
 74
     0
 42
0.000000001
 43
0.0000000001
 40
0.0
 40
0.0
 40
0.0
 40
0.0
 40
1.57526366987818
 40
1.57526366987818
 40
3.897780093682374
 40
3.897780093682374
 40
6.35069178431471
 40
6.35069178431471
 40
9.471740302352156
 40
9.471740302352156
 40
9.471740302352156
 40
9.471740302352156
 10
0.3886452123206254
 20
16.87278196893171
 30
-0.000000000001819
 10
0.3886452123206254
 20
17.07950948466376
 30
-0.000000000001819
 10
0.4316615180705412
 20
17.31714467732597
 30
-0.000000000001819
 10
0.6122235613638623
 20
17.91000712607204
 30
-0.000000000001819
 10
0.8304504846601048
 20
18.41807334943458
 30
-0.000000000001819
 10
1.716742891976537
 20
19.49077975772166
 30
-0.000000000001819
 10
2.291674782913105
 20
19.91449466342858
 30
-0.000000000001819
 10
3.729616835860724
 20
20.67211155518592
 30
-0.000000000001819
 10
4.679560435077291
 20
20.97807118020176
 30
-0.000000000001819
 10
5.731154002713083
 20
21.20390881583007
 30
-0.000000000001819
  0
ARC
  5
304
330
70
100
AcDbEntity
  8
Visible
100
AcDbCircle
 10
-10.959511
 20
9.079358
 30
0.0
 40
0.0590551181102362
210
0.0000000000000001
220
0.0
230
-1.0
100
AcDbArc
 50
180.0
 51
270.0
  0
LINE
  5
305
330
70
100
AcDbEntity
  8
Visible
100
AcDbLine
 10
11.018566
 20
10.530675
 30
0.0
 11
11.018566
 21
9.079358
 31
0.0
210
0.0
220
1.0
230
0.0
  0
ARC
  5
306
330
70
100
AcDbEntity
  8
Visible
100
AcDbCircle
 10
-0.4477
 20
9.079358
 30
0.0
 40
0.0590551181102363
210
0.0000000000000001
220
0.0
230
-1.0
100
AcDbArc
 50
270.0
 51
360.0
  0
LINE
  5
307
330
70
100
AcDbEntity
  8
Visible
100
AcDbLine
 10
0.388645
 20
9.079358
 30
0.0
 11
0.388645
 21
13.920188
 31
0.0
210
0.0
220
1.0
230
0.0
  0
ARC
  5
308
330
70
100
AcDbEntity
  8
Visible
100
AcDbCircle
 10
10.428481
 20
12.89806
 30
0.0
 40
0.0850000000000005
100
AcDbArc
 50
89.796892
 51
269.79289
  0
ARC
  5
309
330
70
100
AcDbEntity
  8
Visible
100
AcDbCircle
 10
10.42856
 20
11.09812
 30
0.0
 40
0.0850000000000005
100
AcDbArc
 50
89.799184
 51
269.795079
  0
LINE
  5
30A
330
70
100
AcDbEntity
  8
Visible
100
AcDbLine
 10
9.323685
 20
11.269122
 30
0.0
 11
1.458685
 21
11.269122
 31
0.0
210
0.0
220
1.0
230
0.0
  0
LINE
  5
30B
330
70
100
AcDbEntity
  8
Visible
100
AcDbLine
 10
1.458685
 20
11.269122
 30
0.0
 11
1.458685
 21
9.871484
 31
0.0
210
0.0
220
1.0
230
0.0
  0
LINE
  5
30C
330
70
100
AcDbEntity
  8
Visible
100
AcDbLine
 10
10.959511
 20
9.020303
 30
0.0
 11
0.4477
 21
9.020303
 31
0.0
210
0.0
220
1.0
230
0.0
  0
ARC
  5
30D
330
70
100
AcDbEntity
  8
Visible
100
AcDbCircle
 10
0.288653
 20
13.918964
 30
0.0
 40
0.0999999980201487
100
AcDbArc
 50
0.701393
 51
76.318256
  0
ARC
  5
30E
330
70
100
AcDbEntity
  8
Visible
100
AcDbCircle
 10
-0.388645
 20
14.329719
 30
0.0
 40
0.3227509557778674
210
0.0000000000000001
220
0.0
230
-1.0
100
AcDbArc
 50
283.681744
 51
76.372626
  0
ARC
  5
30F
330
70
100
AcDbEntity
  8
Visible
100
AcDbCircle
 10
0.289043
 20
14.740569
 30
0.0
 40
0.0999999945996914
100
AcDbArc
 50
283.627374
 51
354.891248
  0
LINE
  5
310
330
70
100
AcDbEntity
  8
Visible
100
AcDbLine
 10
0.388645
 20
14.731664
 30
0.0
 11
0.388645
 21
16.872782
 31
0.0
210
0.0
220
1.0
230
0.0
  0
CIRCLE
  5
311
330
70
100
AcDbEntity
  8
Visible
100
AcDbCircle
 10
1.231889
 20
18.435641
 30
0.0
 40
0.0850000000000019
  0
CIRCLE
  5
312
330
70
100
AcDbEntity
  8
Visible
100
AcDbCircle
 10
5.364452
 20
11.940743
 30
0.0
 40
0.0750000000000001
  0
CIRCLE
  5
313
330
70
100
AcDbEntity
  8
Visible
100
AcDbCircle
 10
0.388645
 20
14.329719
 30
0.0
 40
0.0750000000000001
  0
CIRCLE
  5
314
330
70
100
AcDbEntity
  8
Visible
100
AcDbCircle
 10
5.649558
 20
9.285999
 30
0.0
 40
0.0850000000000019
  0
CIRCLE
  5
315
330
70
100
AcDbEntity
  8
Visible
100
AcDbCircle
 10
5.364452
 20
13.796898
 30
0.0
 40
0.0750000000000001
  0
CIRCLE
  5
316
330
70
100
AcDbEntity
  8
Visible
100
AcDbCircle
 10
1.008297
 20
13.796898
 30
0.0
 40
0.0750000000000001
  0
ARC
  5
317
330
70
100
AcDbEntity
  8
Visible
100
AcDbCircle
 10
10.428475
 20
12.89806
 30
0.0
 40
0.0850000000000005
100
AcDbArc
 50
269.796874
 51
89.792908
  0
ARC
  5
318
330
70
100
AcDbEntity
  8
Visible
100
AcDbCircle
 10
10.428554
 20
11.09812
 30
0.0
 40
0.0850000000000005
100
AcDbArc
 50
269.799107
 51
89.795157
  0
CIRCLE
  5
319
330
70
100
AcDbEntity
  8
Visible
100
AcDbCircle
 10
5.522295
 20
20.974124
 30
0.0
 40
0.0850000000000019
  0
CIRCLE
  5
31A
330
70
100
AcDbEntity
  8
Visible
100
AcDbCircle
 10
5.364452
 20
16.571898
 30
0.0
 40
0.0750000000000001
  0
CIRCLE
  5
31B
330
70
100
AcDbEntity
  8
Visible
100
AcDbCircle
 10
1.936375
 20
15.64382
 30
0.0
 40
1.125
  0
CIRCLE
  5
31C
330
70
100
AcDbEntity
  8
Visible
100
AcDbCircle
 10
1.008297
 20
16.571898
 30
0.0
 40
0.0750000000000001
  0
CIRCLE
  5
31D
330
70
100
AcDbEntity
  8
Visible
100
AcDbCircle
 10
2.864452
 20
13.796898
 30
0.0
 40
0.0750000000000001
  0
CIRCLE
  5
31E
330
70
100
AcDbEntity
  8
Visible
100
AcDbCircle
 10
1.008297
 20
14.715743
 30
0.0
 40
0.0750000000000001
  0
CIRCLE
  5
31F
330
70
100
AcDbEntity
  8
Visible
100
AcDbCircle
 10
4.436375
 20
15.64382
 30
0.0
 40
1.125
  0
CIRCLE
  5
320
330
70
100
AcDbEntity
  8
Visible
100
AcDbCircle
 10
5.364452
 20
19.346898
 30
0.0
 40
0.0750000000000001
  0
CIRCLE
  5
321
330
70
100
AcDbEntity
  8
Visible
100
AcDbCircle
 10
1.363685
 20
11.070303
 30
0.0
 40
0.0849999999999991
  0
CIRCLE
  5
322
330
70
100
AcDbEntity
  8
Visible
100
AcDbCircle
 10
9.423685
 20
11.070303
 30
0.0
 40
0.0850000000000005
  0
CIRCLE
  5
323
330
70
100
AcDbEntity
  8
Visible
100
AcDbCircle
 10
1.936375
 20
12.86882
 30
0.0
 40
1.125
  0
CIRCLE
  5
324
330
70
100
AcDbEntity
  8
Visible
100
AcDbCircle
 10
4.436375
 20
12.86882
 30
0.0
 40
1.125
  0
CIRCLE
  5
325
330
70
100
AcDbEntity
  8
Visible
100
AcDbCircle
 10
1.008297
 20
11.940743
 30
0.0
 40
0.0750000000000001
  0
CIRCLE
  5
326
330
70
100
AcDbEntity
  8
Visible
100
AcDbCircle
 10
10.699558
 20
9.285999
 30
0.0
 40
0.0850000000000005
  0
CIRCLE
  5
327
330
70
100
AcDbEntity
  8
Visible
100
AcDbCircle
 10
9.423685
 20
10.070303
 30
0.0
 40
0.0850000000000005
  0
CIRCLE
  5
328
330
70
100
AcDbEntity
  8
Visible
100
AcDbCircle
 10
3.508297
 20
16.571898
 30
0.0
 40
0.0750000000000001
  0
CIRCLE
  5
329
330
70
100
AcDbEntity
  8
Visible
100
AcDbCircle
 10
1.363685
 20
10.070303
 30
0.0
 40
0.0849999999999991
  0
CIRCLE
  5
32A
330
70
100
AcDbEntity
  8
Visible
100
AcDbCircle
 10
2.864452
 20
16.571898
 30
0.0
 40
0.0750000000000001
  0
CIRCLE
  5
32B
330
70
100
AcDbEntity
  8
Visible
100
AcDbCircle
 10
0.635106
 20
9.891544
 30
0.0
 40
0.0850000000000019
  0
CIRCLE
  5
32C
330
70
100
AcDbEntity
  8
Visible
100
AcDbCircle
 10
3.508297
 20
13.796898
 30
0.0
 40
0.0750000000000001
  0
LINE
  5
32D
330
70
100
AcDbEntity
  8
Visible
100
AcDbLine
 10
1.458685
 20
9.871484
 30
0.0
 11
9.323685
 21
9.871484
 31
0.0
210
0.0
220
1.0
230
0.0
  0
LINE
  5
32E
330
70
100
AcDbEntity
  8
Visible
100
AcDbLine
 10
9.323685
 20
9.871484
 30
0.0
 11
9.323685
 21
11.269122
 31
0.0
210
0.0
220
1.0
230
0.0
  0
CIRCLE
  5
32F
330
70
100
AcDbEntity
  8
Visible
100
AcDbCircle
 10
5.364452
 20
17.490743
 30
0.0
 40
0.0750000000000001
  0
CIRCLE
  5
330
330
70
100
AcDbEntity
  8
Visible
100
AcDbCircle
 10
2.864452
 20
14.715743
 30
0.0
 40
0.0750000000000001
  0
CIRCLE
  5
331
330
70
100
AcDbEntity
  8
Visible
100
AcDbCircle
 10
2.864452
 20
11.940743
 30
0.0
 40
0.0750000000000001
  0
CIRCLE
  5
332
330
70
100
AcDbEntity
  8
Visible
100
AcDbCircle
 10
5.364452
 20
14.715743
 30
0.0
 40
0.0750000000000001
  0
CIRCLE
  5
333
330
70
100
AcDbEntity
  8
Visible
100
AcDbCircle
 10
3.508297
 20
19.346898
 30
0.0
 40
0.0750000000000001
  0
CIRCLE
  5
334
330
70
100
AcDbEntity
  8
Visible
100
AcDbCircle
 10
4.436375
 20
18.41882
 30
0.0
 40
1.125
  0
CIRCLE
  5
335
330
70
100
AcDbEntity
  8
Visible
100
AcDbCircle
 10
3.508297
 20
14.715743
 30
0.0
 40
0.0750000000000001
  0
CIRCLE
  5
336
330
70
100
AcDbEntity
  8
Visible
100
AcDbCircle
 10
3.508297
 20
17.490743
 30
0.0
 40
0.0750000000000001
  0
CIRCLE
  5
337
330
70
100
AcDbEntity
  8
Visible
100
AcDbCircle
 10
3.508297
 20
11.940743
 30
0.0
 40
0.0750000000000001
  0
LINE
  5
338
330
70
100
AcDbEntity
  8
Visible
100
AcDbLine
 10
11.018566
 20
13.281336
 30
0.0
 11
11.018566
 21
12.805013
 31
0.0
210
0.0
220
1.0
230
0.0
  0
LINE
  5
339
330
70
100
AcDbEntity
  8
Visible
100
AcDbLine
 10
11.018566
 20
11.191219
 30
0.0
 11
11.018566
 21
10.780675
 31
0.0
210
0.0
220
1.0
230
0.0
  0
ARC
  5
33A
330
70
100
AcDbEntity
  8
Visible
100
AcDbCircle
 10
11.018566
 20
10.655675
 30
0.0
 40
0.1249999999999996
100
AcDbArc
 50
90.0
 51
270.0
  0
LINE
  5
33B
330
70
100
AcDbEntity
  8
Visible
100
AcDbLine
 10
5.802609
 20
21.14617
 30
0.0
 11
5.802609
 21
13.354445
 31
0.0
210
0.0
220
1.0
230
0.0
  0
ARC
  5
33C
330
70
100
AcDbEntity
  8
Visible
100
AcDbCircle
 10
-5.861664
 20
21.171106
 30
0.0
 40
0.0590551181102417
210
0.0000000000000001
220
0.0
230
-1.0
100
AcDbArc
 50
0.0
 51
78.275491
  0
LINE
  5
33D
330
70
100
AcDbEntity
  8
Visible
100
AcDbLine
 10
5.802609
 20
13.354445
 30
0.0
 11
5.802609
 21
21.171106
 31
0.0
210
0.0
220
1.0
230
0.0
  0
ARC
  5
33E
330
70
100
AcDbEntity
  8
Visible
100
AcDbCircle
 10
-16.175469
 20
21.746681
 30
0.0
 40
0.0590551181102363
210
0.0000000000000001
220
0.0
230
-1.0
100
AcDbArc
 50
90.0
 51
180.0
  0
LINE
  5
33F
330
70
100
AcDbEntity
  8
Visible
100
AcDbLine
 10
16.234524
 20
21.746681
 30
0.0
 11
16.234524
 21
13.326015
 31
0.0
210
0.0
220
1.0
230
0.0
  0
LINE
  5
340
330
70
100
AcDbEntity
  8
Visible
100
AcDbLine
 10
12.209476
 20
17.45066
 30
0.0
 11
12.39716
 21
17.644399
 31
0.0
210
0.0
220
1.0
230
0.0
  0
ARC
  5
341
330
70
100
AcDbEntity
  8
Visible
100
AcDbCircle
 10
12.354539
 20
17.685689
 30
0.0
 40
0.0593410552783227
100
AcDbArc
 50
315.909338
 51
135.909338
  0
ARC
  5
342
330
70
100
AcDbEntity
  8
Visible
100
AcDbCircle
 10
6.443991
 20
13.865245
 30
0.0
 40
0.0593410552783243
100
AcDbArc
 50
225.909338
 51
45.909338
  0
LINE
  5
343
330
70
100
AcDbEntity
  8
Visible
100
AcDbLine
 10
6.48528
 20
13.907866
 30
0.0
 11
6.291541
 21
14.095551
 31
0.0
210
0.0
220
1.0
230
0.0
  0
LINE
  5
344
330
70
100
AcDbEntity
  8
Visible
100
AcDbLine
 10
12.122538
 20
20.114914
 30
0.0
 11
12.316277
 21
19.927229
 31
0.0
210
0.0
220
1.0
230
0.0
  0
ARC
  5
345
330
70
100
AcDbEntity
  8
Visible
100
AcDbCircle
 10
12.357566
 20
19.96985
 30
0.0
 40
0.0593410552785962
100
AcDbArc
 50
225.909338
 51
45.909338
  0
ARC
  5
346
330
70
100
AcDbEntity
  8
Visible
100
AcDbCircle
 10
6.45674
 20
16.510429
 30
0.0
 40
0.0593410552785933
100
AcDbArc
 50
315.909338
 51
135.909338
  0
LINE
  5
347
330
70
100
AcDbEntity
  8
Visible
100
AcDbLine
 10
6.414119
 20
16.551719
 30
0.0
 11
6.226434
 21
16.35798
 31
0.0
210
0.0
220
1.0
230
0.0
  0
ARC
  5
348
330
70
100
AcDbEntity
  8
Visible
100
AcDbCircle
 10
9.691981
 20
19.966823
 30
0.0
 40
0.0593410552783227
100
AcDbArc
 50
135.909338
 51
315.909338
  0
LINE
  5
349
330
70
100
AcDbEntity
  8
Visible
100
AcDbLine
 10
9.734602
 20
19.925534
 30
0.0
 11
9.922287
 21
20.119273
 31
0.0
210
0.0
220
1.0
230
0.0
  0
LINE
  5
34A
330
70
100
AcDbEntity
  8
Visible
100
AcDbLine
 10
8.679212
 20
16.449005
 30
0.0
 11
8.872951
 21
16.26132
 31
0.0
210
0.0
220
1.0
230
0.0
  0
ARC
  5
34B
330
70
100
AcDbEntity
  8
Visible
100
AcDbCircle
 10
8.91424
 20
16.303941
 30
0.0
 40
0.0593410552785893
100
AcDbArc
 50
225.909338
 51
45.909338
  0
LINE
  5
34C
330
70
100
AcDbEntity
  8
Visible
100
AcDbLine
 10
8.750373
 20
13.805152
 30
0.0
 11
8.938058
 21
13.998891
 31
0.0
210
0.0
220
1.0
230
0.0
  0
ARC
  5
34D
330
70
100
AcDbEntity
  8
Visible
100
AcDbCircle
 10
8.895437
 20
14.04018
 30
0.0
 40
0.0593410552783242
100
AcDbArc
 50
315.909338
 51
135.909338
  0
LINE
  5
34E
330
70
100
AcDbEntity
  8
Visible
100
AcDbLine
 10
9.923982
 20
17.537598
 30
0.0
 11
9.730243
 21
17.725283
 31
0.0
210
0.0
220
1.0
230
0.0
  0
ARC
  5
34F
330
70
100
AcDbEntity
  8
Visible
100
AcDbCircle
 10
9.688954
 20
17.682661
 30
0.0
 40
0.0593410552785932
100
AcDbArc
 50
45.909338
 51
225.909338
  0
LINE
  5
350
330
70
100
AcDbEntity
  8
Visible
100
AcDbLine
 10
13.695929
 20
13.590345
 30
0.0
 11
13.8136
 21
13.698027
 31
0.0
210
0.0
220
1.0
230
0.0
  0
ARC
  5
351
330
70
100
AcDbEntity
  8
Visible
100
AcDbCircle
 10
-13.8791
 20
13.591563
 30
0.0
 40
0.1250000000000107
210
0.0000000000000001
220
0.0
230
-1.0
100
AcDbArc
 50
58.398676
 51
103.398676
  0
ARC
  5
352
330
70
100
AcDbEntity
  8
Visible
100
AcDbCircle
 10
14.520016
 20
15.164416
 30
0.0
 40
1.575
100
AcDbArc
 50
247.136318
 51
202.817597
  0
ARC
  5
353
330
70
100
AcDbEntity
  8
Visible
100
AcDbCircle
 10
-12.946649
 20
14.524765
 30
0.0
 40
0.1250000000000077
210
0.0000000000000001
220
0.0
230
-1.0
100
AcDbArc
 50
166.647409
 51
211.647409
  0
ARC
  5
354
330
70
100
AcDbEntity
  8
Visible
100
AcDbCircle
 10
11.02365
 20
15.176189
 30
0.0
 40
1.574999999999999
100
AcDbArc
 50
229.552071
 51
310.448244
  0
LINE
  5
355
330
70
100
AcDbEntity
  8
Visible
100
AcDbLine
 10
12.045448
 20
13.977626
 30
0.0
 11
12.172704
 21
13.850371
 31
0.0
210
0.0
220
1.0
230
0.0
  0
ARC
  5
356
330
70
100
AcDbEntity
  8
Visible
100
AcDbCircle
 10
12.261092
 20
13.93876
 30
0.0
 40
0.1249999999999996
100
AcDbArc
 50
225.000316
 51
45.000316
  0
LINE
  5
357
330
70
100
AcDbEntity
  8
Visible
100
AcDbLine
 10
12.34948
 20
14.027149
 30
0.0
 11
12.222224
 21
14.154404
 31
0.0
210
0.0
220
1.0
230
0.0
  0
ARC
  5
358
330
70
100
AcDbEntity
  8
Visible
100
AcDbCircle
 10
-13.8791
 20
17.241563
 30
0.0
 40
0.1250000000000107
210
0.0000000000000001
220
0.0
230
-1.0
100
AcDbArc
 50
58.398676
 51
103.398676
  0
ARC
  5
359
330
70
100
AcDbEntity
  8
Visible
100
AcDbCircle
 10
14.520016
 20
18.814416
 30
0.0
 40
1.575
100
AcDbArc
 50
247.136318
 51
202.817597
  0
ARC
  5
35A
330
70
100
AcDbEntity
  8
Visible
100
AcDbCircle
 10
-12.946649
 20
18.174765
 30
0.0
 40
0.1250000000000077
210
0.0000000000000001
220
0.0
230
-1.0
100
AcDbArc
 50
166.647409
 51
211.647409
  0
LINE
  5
35B
330
70
100
AcDbEntity
  8
Visible
100
AcDbLine
 10
13.05306
 20
18.109178
 30
0.0
 11
12.945284
 21
17.991595
 31
0.0
210
0.0
220
1.0
230
0.0
  0
ARC
  5
35C
330
70
100
AcDbEntity
  8
Visible
100
AcDbCircle
 10
7.575153
 20
15.171342
 30
0.0
 40
1.574999999999999
100
AcDbArc
 50
134.817536
 51
315.182464
  0
ARC
  5
35D
330
70
100
AcDbEntity
  8
Visible
100
AcDbCircle
 10
14.865189
 20
20.68154
 30
0.0
 40
0.1560000000000023
100
AcDbArc
 50
270.0
 51
0.0
  0
LINE
  5
35E
330
70
100
AcDbEntity
  8
Visible
100
AcDbLine
 10
15.021189
 20
20.68154
 30
0.0
 11
15.021189
 21
21.16954
 31
0.0
210
0.0
220
1.0
230
0.0
  0
ARC
  5
35F
330
70
100
AcDbEntity
  8
Visible
100
AcDbCircle
 10
14.865189
 20
21.16954
 30
0.0
 40
0.1560000000000023
100
AcDbArc
 50
0.0
 51
90.0
  0
LINE
  5
360
330
70
100
AcDbEntity
  8
Visible
100
AcDbLine
 10
14.865189
 20
21.32554
 30
0.0
 11
12.177189
 21
21.32554
 31
0.0
210
0.0
220
1.0
230
0.0
  0
ARC
  5
361
330
70
100
AcDbEntity
  8
Visible
100
AcDbCircle
 10
-12.431612
 20
-15.435671
 30
0.0
 40
37.25070388078605
210
0.0000000000000001
220
0.0
230
-1.0
100
AcDbArc
 50
79.822789
 51
91.280131
  0
LINE
  5
362
330
70
100
AcDbEntity
  8
Visible
100
AcDbLine
 10
12.311918
 20
17.726978
 30
0.0
 11
12.124233
 21
17.533239
 31
0.0
210
0.0
220
1.0
230
0.0
  0
ARC
  5
363
330
70
100
AcDbEntity
  8
Visible
100
AcDbCircle
 10
12.166854
 20
17.49195
 30
0.0
 40
0.0593410552785932
100
AcDbArc
 50
135.909338
 51
315.909339
  0
ARC
  5
364
330
70
100
AcDbEntity
  8
Visible
100
AcDbCircle
 10
6.250252
 20
14.052929
 30
0.0
 40
0.0593410552785854
100
AcDbArc
 50
45.909338
 51
225.909338
  0
LINE
  5
365
330
70
100
AcDbEntity
  8
Visible
100
AcDbLine
 10
6.208962
 20
14.010308
 30
0.0
 11
6.402701
 21
13.822623
 31
0.0
210
0.0
220
1.0
230
0.0
  0
LINE
  5
366
330
70
100
AcDbEntity
  8
Visible
100
AcDbLine
 10
12.398856
 20
20.012471
 30
0.0
 11
12.205117
 21
20.200156
 31
0.0
210
0.0
220
1.0
230
0.0
  0
ARC
  5
367
330
70
100
AcDbEntity
  8
Visible
100
AcDbCircle
 10
12.163827
 20
20.157535
 30
0.0
 40
0.0593410552783227
100
AcDbArc
 50
45.909338
 51
225.909338
  0
CIRCLE
  5
368
330
70
100
AcDbEntity
  8
Visible
100
AcDbCircle
 10
15.146189
 20
20.92554
 30
0.0
 40
0.0750000000000001
  0
ARC
  5
369
330
70
100
AcDbEntity
  8
Visible
100
AcDbCircle
 10
6.269055
 20
16.316691
 30
0.0
 40
0.0593410552783242
100
AcDbArc
 50
135.909338
 51
315.909338
  0
LINE
  5
36A
330
70
100
AcDbEntity
  8
Visible
100
AcDbLine
 10
6.311676
 20
16.275401
 30
0.0
 11
6.499361
 21
16.46914
 31
0.0
210
0.0
220
1.0
230
0.0
  0
ARC
  5
36B
330
70
100
AcDbEntity
  8
Visible
100
AcDbCircle
 10
9.879666
 20
20.160562
 30
0.0
 40
0.0593410552785961
100
AcDbArc
 50
315.909338
 51
135.909339
  0
LINE
  5
36C
330
70
100
AcDbEntity
  8
Visible
100
AcDbLine
 10
9.837044
 20
20.201852
 30
0.0
 11
9.64936
 21
20.008113
 31
0.0
210
0.0
220
1.0
230
0.0
  0
LINE
  5
36D
330
70
100
AcDbEntity
  8
Visible
100
AcDbLine
 10
8.955529
 20
16.346562
 30
0.0
 11
8.76179
 21
16.534247
 31
0.0
210
0.0
220
1.0
230
0.0
  0
ARC
  5
36E
330
70
100
AcDbEntity
  8
Visible
100
AcDbCircle
 10
8.720501
 20
16.491626
 30
0.0
 40
0.0593410552783282
100
AcDbArc
 50
45.909338
 51
225.909338
  0
LINE
  5
36F
330
70
100
AcDbEntity
  8
Visible
100
AcDbLine
 10
8.852815
 20
14.081469
 30
0.0
 11
8.665131
 21
13.88773
 31
0.0
210
0.0
220
1.0
230
0.0
  0
ARC
  5
370
330
70
100
AcDbEntity
  8
Visible
100
AcDbCircle
 10
8.707752
 20
13.846441
 30
0.0
 40
0.0593410552785913
100
AcDbArc
 50
135.909338
 51
315.909338
  0
LINE
  5
371
330
70
100
AcDbEntity
  8
Visible
100
AcDbLine
 10
9.647664
 20
17.64004
 30
0.0
 11
9.841403
 21
17.452356
 31
0.0
210
0.0
220
1.0
230
0.0
  0
ARC
  5
372
330
70
100
AcDbEntity
  8
Visible
100
AcDbCircle
 10
9.882693
 20
17.494977
 30
0.0
 40
0.0593410552783237
100
AcDbArc
 50
225.909338
 51
45.909338
  0
CIRCLE
  5
373
330
70
100
AcDbEntity
  8
Visible
100
AcDbCircle
 10
16.034687
 20
21.435893
 30
0.0
 40
0.0849999999999998
  0
CIRCLE
  5
374
330
70
100
AcDbEntity
  8
Visible
100
AcDbCircle
 10
15.759918
 20
16.399264
 30
0.0
 40
0.0849999999999998
  0
CIRCLE
  5
375
330
70
100
AcDbEntity
  8
Visible
100
AcDbCircle
 10
15.759918
 20
20.049264
 30
0.0
 40
0.0849999999999998
  0
LINE
  5
376
330
70
100
AcDbEntity
  8
Visible
100
AcDbLine
 10
13.05306
 20
14.459178
 30
0.0
 11
12.945284
 21
14.341595
 31
0.0
210
0.0
220
1.0
230
0.0
  0
ARC
  5
377
330
70
100
AcDbEntity
  8
Visible
100
AcDbCircle
 10
13.202071
 20
14.164382
 30
0.0
 40
0.3120000000000935
100
AcDbArc
 50
145.389824
 51
190.389824
  0
ARC
  5
378
330
70
100
AcDbEntity
  8
Visible
100
AcDbCircle
 10
14.520016
 20
15.164416
 30
0.0
 40
1.937999999999994
100
AcDbArc
 50
213.027879
 51
236.926036
  0
ARC
  5
379
330
70
100
AcDbEntity
  8
Visible
100
AcDbCircle
 10
13.518923
 20
13.847275
 30
0.0
 40
0.3120000000000936
100
AcDbArc
 50
259.564091
 51
304.564091
  0
CIRCLE
  5
37A
330
70
100
AcDbEntity
  8
Visible
100
AcDbCircle
 10
11.896189
 20
20.92554
 30
0.0
 40
0.0750000000000001
  0
ARC
  5
37B
330
70
100
AcDbEntity
  8
Visible
100
AcDbCircle
 10
11.02365
 20
15.176189
 30
0.0
 40
1.574999999999999
100
AcDbArc
 50
319.552387
 51
220.447929
  0
LINE
  5
37C
330
70
100
AcDbEntity
  8
Visible
100
AcDbLine
 10
9.825081
 20
14.154398
 30
0.0
 11
9.697824
 21
14.027141
 31
0.0
210
0.0
220
1.0
230
0.0
  0
ARC
  5
37D
330
70
100
AcDbEntity
  8
Visible
100
AcDbCircle
 10
9.786213
 20
13.938752
 30
0.0
 40
0.1249999999999996
100
AcDbArc
 50
135.0
 51
315.0
  0
LINE
  5
37E
330
70
100
AcDbEntity
  8
Visible
100
AcDbLine
 10
9.874601
 20
13.850364
 30
0.0
 11
10.001858
 21
13.977621
 31
0.0
210
0.0
220
1.0
230
0.0
  0
CIRCLE
  5
37F
330
70
100
AcDbEntity
  8
Visible
100
AcDbCircle
 10
6.003748
 20
16.995224
 30
0.0
 40
0.0849999999999991
  0
CIRCLE
  5
380
330
70
100
AcDbEntity
  8
Visible
100
AcDbCircle
 10
12.261087
 20
16.413626
 30
0.0
 40
0.0750000000000001
  0
CIRCLE
  5
381
330
70
100
AcDbEntity
  8
Visible
100
AcDbCircle
 10
13.285045
 20
16.399264
 30
0.0
 40
0.0750000000000001
  0
ARC
  5
382
330
70
100
AcDbEntity
  8
Visible
100
AcDbCircle
 10
13.202071
 20
17.814382
 30
0.0
 40
0.3120000000000927
100
AcDbArc
 50
145.389824
 51
190.389824
  0
ARC
  5
383
330
70
100
AcDbEntity
  8
Visible
100
AcDbCircle
 10
14.520016
 20
18.814416
 30
0.0
 40
1.937999999999994
100
AcDbArc
 50
213.027879
 51
236.926036
  0
ARC
  5
384
330
70
100
AcDbEntity
  8
Visible
100
AcDbCircle
 10
13.518923
 20
17.497275
 30
0.0
 40
0.3120000000000936
100
AcDbArc
 50
259.564091
 51
304.564091
  0
LINE
  5
385
330
70
100
AcDbEntity
  8
Visible
100
AcDbLine
 10
13.695929
 20
17.240345
 30
0.0
 11
13.8136
 21
17.348027
 31
0.0
210
0.0
220
1.0
230
0.0
  0
CIRCLE
  5
386
330
70
100
AcDbEntity
  8
Visible
100
AcDbCircle
 10
15.558231
 20
21.038067
 30
0.0
 40
0.0590551181102364
  0
CIRCLE
  5
387
330
70
100
AcDbEntity
  8
Visible
100
AcDbCircle
 10
9.26767
 20
13.564301
 30
0.0
 40
0.0849999999999991
  0
CIRCLE
  5
388
330
70
100
AcDbEntity
  8
Visible
100
AcDbCircle
 10
7.575153
 20
18.771342
 30
0.0
 40
1.574999999999999
  0
CIRCLE
  5
389
330
70
100
AcDbEntity
  8
Visible
100
AcDbCircle
 10
15.759918
 20
13.92439
 30
0.0
 40
0.0849999999999998
  0
ARC
  5
38A
330
70
100
AcDbEntity
  8
Visible
100
AcDbCircle
 10
7.582246
 20
15.178435
 30
0.0
 40
1.574999999999999
100
AcDbArc
 50
314.817536
 51
135.182464
  0
CIRCLE
  5
38B
330
70
100
AcDbEntity
  8
Visible
100
AcDbCircle
 10
10.966626
 20
21.37052
 30
0.0
 40
0.0849999999999991
  0
CIRCLE
  5
38C
330
70
100
AcDbEntity
  8
Visible
100
AcDbCircle
 10
8.819683
 20
17.540998
 30
0.0
 40
0.0750000000000001
  0
CIRCLE
  5
38D
330
70
100
AcDbEntity
  8
Visible
100
AcDbCircle
 10
15.558231
 20
20.768428
 30
0.0
 40
0.1250000000000003
  0
CIRCLE
  5
38E
330
70
100
AcDbEntity
  8
Visible
100
AcDbCircle
 10
15.759918
 20
17.57439
 30
0.0
 40
0.0849999999999998
  0
CIRCLE
  5
38F
330
70
100
AcDbEntity
  8
Visible
100
AcDbCircle
 10
16.034687
 20
13.564301
 30
0.0
 40
0.0849999999999998
  0
CIRCLE
  5
390
330
70
100
AcDbEntity
  8
Visible
100
AcDbCircle
 10
6.003748
 20
13.564301
 30
0.0
 40
0.0849999999999991
  0
CIRCLE
  5
391
330
70
100
AcDbEntity
  8
Visible
100
AcDbCircle
 10
8.819683
 20
20.015872
 30
0.0
 40
0.0750000000000001
  0
CIRCLE
  5
392
330
70
100
AcDbEntity
  8
Visible
100
AcDbCircle
 10
16.034687
 20
16.987807
 30
0.0
 40
0.0849999999999998
  0
CIRCLE
  5
393
330
70
100
AcDbEntity
  8
Visible
100
AcDbCircle
 10
9.786213
 20
16.413626
 30
0.0
 40
0.0750000000000001
  0
CIRCLE
  5
394
330
70
100
AcDbEntity
  8
Visible
100
AcDbCircle
 10
12.748618
 20
13.564301
 30
0.0
 40
0.0850000000000005
  0
CIRCLE
  5
395
330
70
100
AcDbEntity
  8
Visible
100
AcDbCircle
 10
11.02326
 20
18.826256
 30
0.0
 40
1.574999999999999
  0
ARC
  5
396
330
70
100
AcDbEntity
  8
Visible
100
AcDbCircle
 10
12.177189
 20
21.16954
 30
0.0
 40
0.1560000000021395
100
AcDbArc
 50
90.0
 51
180.0
  0
LINE
  5
397
330
70
100
AcDbEntity
  8
Visible
100
AcDbLine
 10
12.021189
 20
21.16954
 30
0.0
 11
12.021189
 21
20.68154
 31
0.0
210
0.0
220
1.0
230
0.0
  0
ARC
  5
398
330
70
100
AcDbEntity
  8
Visible
100
AcDbCircle
 10
12.177189
 20
20.68154
 30
0.0
 40
0.1559999999898729
100
AcDbArc
 50
180.0
 51
270.0
  0
LINE
  5
399
330
70
100
AcDbEntity
  8
Visible
100
AcDbLine
 10
12.177189
 20
20.52554
 30
0.0
 11
14.865189
 21
20.52554
 31
0.0
210
0.0
220
1.0
230
0.0
  0
CIRCLE
  5
39A
330
70
100
AcDbEntity
  8
Visible
100
AcDbCircle
 10
6.003748
 20
21.004179
 30
0.0
 40
0.0849999999999991
  0
CIRCLE
  5
39B
330
70
100
AcDbEntity
  8
Visible
100
AcDbCircle
 10
9.585461
 20
14.225456
 30
0.0
 40
0.0750000000000001
  0
CIRCLE
  5
39C
330
70
100
AcDbEntity
  8
Visible
100
AcDbCircle
 10
13.285045
 20
20.049264
 30
0.0
 40
0.0750000000000001
  0
CIRCLE
  5
39D
330
70
100
AcDbEntity
  8
Visible
100
AcDbCircle
 10
6.344809
 20
20.015872
 30
0.0
 40
0.0750000000000001
  0
LINE
  5
39E
330
70
100
AcDbEntity
  8
Visible
100
AcDbLine
 10
13.263817
 20
21.805736
 30
0.0
 11
16.175469
 21
21.805736
 31
0.0
210
0.0
220
1.0
230
0.0
  0
LINE
  5
39F
330
70
100
AcDbEntity
  8
Visible
100
AcDbLine
 10
16.234524
 20
13.326015
 30
0.0
 11
5.802609
 21
13.354445
 31
0.0
210
0.0
220
1.0
230
0.0
  0
ARC
  5
3A0
330
70
100
AcDbEntity
  8
Visible
100
AcDbCircle
 10
-7.339917
 20
6.42126
 30
0.0
 40
0.0590551181102362
210
-0.0000000000000001
220
0.0
230
-1.0
100
AcDbArc
 50
180.0
 51
270.0
  0
LINE
  5
3A1
330
70
100
AcDbEntity
  8
Visible
100
AcDbLine
 10
7.398972
 20
7.137025
 30
0.0
 11
7.398972
 21
6.42126
 31
0.0
210
0.0000000000000345
220
-1.0
230
0.0
  0
ARC
  5
3A2
330
70
100
AcDbEntity
  8
Visible
100
AcDbCircle
 10
-7.339917
 20
7.137025
 30
0.0
 40
0.0590551181102362
210
-0.0000000000000001
220
0.0
230
-1.0
100
AcDbArc
 50
90.0
 51
180.0
  0
LINE
  5
3A3
330
70
100
AcDbEntity
  8
Visible
100
AcDbLine
 10
1.158027
 20
7.19608
 30
0.0
 11
7.339917
 21
7.19608
 31
0.0
210
0.0000000000000345
220
-1.0
230
0.0
  0
ARC
  5
3A4
330
70
100
AcDbEntity
  8
Visible
100
AcDbCircle
 10
-1.158027
 20
7.137025
 30
0.0
 40
0.0590551181102362
210
-0.0000000000000001
220
0.0
230
-1.0
100
AcDbArc
 50
360.0
 51
90.0
  0
LINE
  5
3A5
330
70
100
AcDbEntity
  8
Visible
100
AcDbLine
 10
1.098972
 20
6.42126
 30
0.0
 11
1.098972
 21
7.137025
 31
0.0
210
0.0000000000000345
220
-1.0
230
0.0
  0
ARC
  5
3A6
330
70
100
AcDbEntity
  8
Visible
100
AcDbCircle
 10
-1.158027
 20
6.42126
 30
0.0
 40
0.0590551181102363
210
-0.0000000000000001
220
0.0
230
-1.0
100
AcDbArc
 50
270.0
 51
360.0
  0
LINE
  5
3A7
330
70
100
AcDbEntity
  8
Visible
100
AcDbLine
 10
7.339917
 20
6.362205
 30
0.0
 11
1.158027
 21
6.362205
 31
0.0
210
0.0000000000000345
220
-1.0
230
0.0
  0
CIRCLE
  5
3A8
330
70
100
AcDbEntity
  8
Visible
100
AcDbCircle
 10
-7.178313
 20
8.053298
 30
0.0
 40
0.2375000000000011
210
-0.0000000000000001
220
0.0
230
-1.0
  0
CIRCLE
  5
3A9
330
70
100
AcDbEntity
  8
Visible
100
AcDbCircle
 10
-6.373313
 20
8.053298
 30
0.0
 40
0.2375000000000011
210
-0.0000000000000001
220
0.0
230
-1.0
  0
CIRCLE
  5
3AA
330
70
100
AcDbEntity
  8
Visible
100
AcDbCircle
 10
-2.750813
 20
8.553298
 30
0.0
 40
0.0849999999999991
210
-0.0000000000000001
220
0.0
230
-1.0
  0
CIRCLE
  5
3AB
330
70
100
AcDbEntity
  8
Visible
100
AcDbCircle
 10
-0.738313
 20
8.053298
 30
0.0
 40
0.2374999999999996
210
-0.0000000000000001
220
0.0
230
-1.0
  0
CIRCLE
  5
3AC
330
70
100
AcDbEntity
  8
Visible
100
AcDbCircle
 10
-1.543313
 20
8.053298
 30
0.0
 40
0.2374999999999996
210
-0.0000000000000001
220
0.0
230
-1.0
  0
CIRCLE
  5
3AD
330
70
100
AcDbEntity
  8
Visible
100
AcDbCircle
 10
-0.328313
 20
8.553298
 30
0.0
 40
0.0850000000000005
210
-0.0000000000000001
220
0.0
230
-1.0
  0
CIRCLE
  5
3AE
330
70
100
AcDbEntity
  8
Visible
100
AcDbCircle
 10
-4.763313
 20
8.053298
 30
0.0
 40
0.2375000000000011
210
-0.0000000000000001
220
0.0
230
-1.0
  0
CIRCLE
  5
3AF
330
70
100
AcDbEntity
  8
Visible
100
AcDbCircle
 10
-5.970813
 20
7.553298
 30
0.0
 40
0.0849999999999991
210
-0.0000000000000001
220
0.0
230
-1.0
  0
CIRCLE
  5
3B0
330
70
100
AcDbEntity
  8
Visible
100
AcDbCircle
 10
-2.348313
 20
8.053298
 30
0.0
 40
0.2374999999999996
210
-0.0000000000000001
220
0.0
230
-1.0
  0
CIRCLE
  5
3B1
330
70
100
AcDbEntity
  8
Visible
100
AcDbCircle
 10
-5.970813
 20
8.553298
 30
0.0
 40
0.0849999999999991
210
-0.0000000000000001
220
0.0
230
-1.0
  0
CIRCLE
  5
3B2
330
70
100
AcDbEntity
  8
Visible
100
AcDbCircle
 10
-8.388313
 20
8.553298
 30
0.0
 40
0.0849999999999991
210
-0.0000000000000001
220
0.0
230
-1.0
  0
CIRCLE
  5
3B3
330
70
100
AcDbEntity
  8
Visible
100
AcDbCircle
 10
-0.328313
 20
7.553298
 30
0.0
 40
0.0850000000000005
210
-0.0000000000000001
220
0.0
230
-1.0
  0
CIRCLE
  5
3B4
330
70
100
AcDbEntity
  8
Visible
100
AcDbCircle
 10
-2.750813
 20
7.553298
 30
0.0
 40
0.0849999999999991
210
-0.0000000000000001
220
0.0
230
-1.0
  0
CIRCLE
  5
3B5
330
70
100
AcDbEntity
  8
Visible
100
AcDbCircle
 10
-3.958313
 20
8.053298
 30
0.0
 40
0.2375000000000011
210
-0.0000000000000001
220
0.0
230
-1.0
  0
CIRCLE
  5
3B6
330
70
100
AcDbEntity
  8
Visible
100
AcDbCircle
 10
-5.568313
 20
8.053298
 30
0.0
 40
0.2375000000000011
210
-0.0000000000000001
220
0.0
230
-1.0
  0
CIRCLE
  5
3B7
330
70
100
AcDbEntity
  8
Visible
100
AcDbCircle
 10
-3.153313
 20
8.053298
 30
0.0
 40
0.2375000000000011
210
-0.0000000000000001
220
0.0
230
-1.0
  0
CIRCLE
  5
3B8
330
70
100
AcDbEntity
  8
Visible
100
AcDbCircle
 10
-7.983313
 20
8.053298
 30
0.0
 40
0.2375000000000011
210
-0.0000000000000001
220
0.0
230
-1.0
  0
CIRCLE
  5
3B9
330
70
100
AcDbEntity
  8
Visible
100
AcDbCircle
 10
-8.388313
 20
7.553298
 30
0.0
 40
0.0849999999999991
210
-0.0000000000000001
220
0.0
230
-1.0
  0
LINE
  5
3BA
330
70
100
AcDbEntity
  8
Visible
100
AcDbLine
 10
0.078313
 20
8.553298
 30
0.0
 11
0.078313
 21
7.553298
 31
0.0
210
-0.0000000000000001
220
-1.0
230
0.0
  0
ARC
  5
3BB
330
70
100
AcDbEntity
  8
Visible
100
AcDbCircle
 10
0.328313
 20
8.553298
 30
0.0
 40
0.2500000000003342
100
AcDbArc
 50
90.0
 51
180.0
  0
LINE
  5
3BC
330
70
100
AcDbEntity
  8
Visible
100
AcDbLine
 10
8.393313
 20
8.803298
 30
0.0
 11
0.328313
 21
8.803298
 31
0.0
210
-0.0000000000000001
220
-1.0
230
0.0
  0
ARC
  5
3BD
330
70
100
AcDbEntity
  8
Visible
100
AcDbCircle
 10
8.393313
 20
8.553298
 30
0.0
 40
0.2499999999999181
100
AcDbArc
 50
360.0
 51
90.0
  0
LINE
  5
3BE
330
70
100
AcDbEntity
  8
Visible
100
AcDbLine
 10
8.643313
 20
7.553298
 30
0.0
 11
8.643313
 21
8.553298
 31
0.0
210
-0.0000000000000001
220
-1.0
230
0.0
  0
ARC
  5
3BF
330
70
100
AcDbEntity
  8
Visible
100
AcDbCircle
 10
8.393313
 20
7.553298
 30
0.0
 40
0.2499999999999964
100
AcDbArc
 50
270.0
 51
0.0
  0
LINE
  5
3C0
330
70
100
AcDbEntity
  8
Visible
100
AcDbLine
 10
0.328313
 20
7.303298
 30
0.0
 11
8.393313
 21
7.303298
 31
0.0
210
-0.0000000000000001
220
-1.0
230
0.0
  0
ARC
  5
3C1
330
70
100
AcDbEntity
  8
Visible
100
AcDbCircle
 10
0.328313
 20
7.553298
 30
0.0
 40
0.2500000000004972
100
AcDbArc
 50
180.0
 51
270.0
  0
ARC
  5
3C2
330
70
100
AcDbEntity
  8
Visible
100
AcDbCircle
 10
-22.983076
 20
8.969143
 30
0.0
 40
0.0590551181102362
210
0.0000000000000001
220
0.0
230
-1.0
100
AcDbArc
 50
270.0
 51
360.0
  0
LINE
  5
3C3
330
70
100
AcDbEntity
  8
Visible
100
AcDbLine
 10
22.983076
 20
8.910088
 30
0.0
 11
33.494887
 21
8.910088
 31
0.0
210
0.0
220
1.0
230
0.0
  0
ARC
  5
3C4
330
70
100
AcDbEntity
  8
Visible
100
AcDbCircle
 10
-20.401975
 20
21.636466
 30
0.0
 40
0.0590551181102363
210
0.0000000000000001
220
0.0
230
-1.0
100
AcDbArc
 50
0.0
 51
90.0
  0
LINE
  5
3C5
330
70
100
AcDbEntity
  8
Visible
100
AcDbLine
 10
20.34292
 20
21.636466
 30
0.0
 11
20.34292
 21
11.946956
 31
0.0
210
0.0
220
1.0
230
0.0
  0
ARC
  5
3C6
330
70
100
AcDbEntity
  8
Visible
100
AcDbCircle
 10
-22.117124
 20
11.946956
 30
0.0
 40
0.0590551181102362
210
0.0000000000000001
220
0.0
230
-1.0
100
AcDbArc
 50
184.185896
 51
270.0
  0
ARC
  5
3C7
330
70
100
AcDbEntity
  8
Visible
100
AcDbCircle
 10
-22.924021
 20
11.887901
 30
0.0
 40
0.7500000000000004
210
0.0000000000000001
220
0.0
230
-1.0
100
AcDbArc
 50
4.185896
 51
265.814104
  0
ARC
  5
3C8
330
70
100
AcDbEntity
  8
Visible
100
AcDbCircle
 10
-22.983076
 20
11.081004
 30
0.0
 40
0.0590551181102362
210
0.0000000000000001
220
0.0
230
-1.0
100
AcDbArc
 50
360.0
 51
85.814104
  0
LINE
  5
3C9
330
70
100
AcDbEntity
  8
Visible
100
AcDbLine
 10
22.924021
 20
11.081004
 30
0.0
 11
22.924021
 21
10.67046
 31
0.0
210
0.0
220
1.0
230
0.0
  0
ARC
  5
3CA
330
70
100
AcDbEntity
  8
Visible
100
AcDbCircle
 10
-20.401975
 20
11.946956
 30
0.0
 40
0.0590551181102363
210
0.0000000000000001
220
0.0
230
-1.0
100
AcDbArc
 50
270.0
 51
360.0
  0
LINE
  5
3CB
330
70
100
AcDbEntity
  8
Visible
100
AcDbLine
 10
20.401975
 20
11.887901
 30
0.0
 11
22.117124
 21
11.887901
 31
0.0
210
0.0
220
1.0
230
0.0
  0
ARC
  5
3CC
330
70
100
AcDbEntity
  8
Visible
100
AcDbCircle
 10
-33.494887
 20
8.969143
 30
0.0
 40
0.0590551181102362
210
0.0000000000000001
220
0.0
230
-1.0
100
AcDbArc
 50
180.0
 51
270.0
  0
CIRCLE
  5
3CD
330
70
100
AcDbEntity
  8
Visible
100
AcDbCircle
 10
-23.527849
 20
10.99712
 30
0.0
 40
0.0850000000000005
210
0.0000000000000001
220
0.0
230
-1.0
  0
CIRCLE
  5
3CE
330
70
100
AcDbEntity
  8
Visible
100
AcDbCircle
 10
-29.150653
 20
20.644307
 30
0.0
 40
0.0850000000000019
210
0.0000000000000001
220
0.0
230
-1.0
  0
CIRCLE
  5
3CF
330
70
100
AcDbEntity
  8
Visible
100
AcDbCircle
 10
-33.300129
 20
9.688056
 30
0.0
 40
0.0850000000000019
210
0.0000000000000001
220
0.0
230
-1.0
  0
CIRCLE
  5
3D0
330
70
100
AcDbEntity
  8
Visible
100
AcDbCircle
 10
-22.320193
 20
12.778682
 30
0.0
 40
0.0850000000000005
210
0.0000000000000001
220
0.0
230
-1.0
  0
CIRCLE
  5
3D1
330
70
100
AcDbEntity
  8
Visible
100
AcDbCircle
 10
-33.300129
 20
16.888056
 30
0.0
 40
0.0850000000000019
210
0.0000000000000001
220
0.0
230
-1.0
  0
CIRCLE
  5
3D2
330
70
100
AcDbEntity
  8
Visible
100
AcDbCircle
 10
-29.225751
 20
17.073152
 30
0.0
 40
0.0849999999999991
210
0.0000000000000001
220
0.0
230
-1.0
  0
CIRCLE
  5
3D3
330
70
100
AcDbEntity
  8
Visible
100
AcDbCircle
 10
-20.844777
 20
16.875784
 30
0.0
 40
0.0850000000000005
210
0.0000000000000001
220
0.0
230
-1.0
  0
CIRCLE
  5
3D4
330
70
100
AcDbEntity
  8
Visible
100
AcDbCircle
 10
-20.769939
 20
21.298411
 30
0.0
 40
0.0850000000000005
210
0.0000000000000001
220
0.0
230
-1.0
  0
CIRCLE
  5
3D5
330
70
100
AcDbEntity
  8
Visible
100
AcDbCircle
 10
-23.500145
 20
12.796846
 30
0.0
 40
0.0850000000000005
210
0.0000000000000001
220
0.0
230
-1.0
  0
CIRCLE
  5
3D6
330
70
100
AcDbEntity
  8
Visible
100
AcDbCircle
 10
-24.980737
 20
21.196207
 30
0.0
 40
0.0850000000000005
210
0.0000000000000001
220
0.0
230
-1.0
  0
CIRCLE
  5
3D7
330
70
100
AcDbEntity
  8
Visible
100
AcDbCircle
 10
-30.958034
 20
17.073152
 30
0.0
 40
0.0849999999999991
210
0.0000000000000001
220
0.0
230
-1.0
  0
CIRCLE
  5
3D8
330
70
100
AcDbEntity
  8
Visible
100
AcDbCircle
 10
-23.294777
 20
9.175784
 30
0.0
 40
0.0850000000000005
210
0.0000000000000001
220
0.0
230
-1.0
  0
CIRCLE
  5
3D9
330
70
100
AcDbEntity
  8
Visible
100
AcDbCircle
 10
-29.544704
 20
10.330075
 30
0.0
 40
0.0850000000000019
210
0.0000000000000001
220
0.0
230
-1.0
  0
LINE
  5
3DA
330
70
100
AcDbEntity
  8
Visible
100
AcDbLine
 10
29.630605
 20
18.995221
 30
0.0
 11
30.398321
 21
18.995221
 31
0.0
210
0.0
220
1.0
230
0.0
  0
LINE
  5
3DB
330
70
100
AcDbEntity
  8
Visible
100
AcDbLine
 10
29.630605
 20
18.227504
 30
0.0
 11
29.630605
 21
18.995221
 31
0.0
210
0.0
220
1.0
230
0.0
  0
LINE
  5
3DC
330
70
100
AcDbEntity
  8
Visible
100
AcDbLine
 10
30.398321
 20
18.227504
 30
0.0
 11
29.630605
 21
18.227504
 31
0.0
210
0.0
220
1.0
230
0.0
  0
LINE
  5
3DD
330
70
100
AcDbEntity
  8
Visible
100
AcDbLine
 10
30.398321
 20
18.995221
 30
0.0
 11
30.398321
 21
18.227504
 31
0.0
210
0.0
220
1.0
230
0.0
  0
CIRCLE
  5
3DE
330
70
100
AcDbEntity
  8
Visible
100
AcDbCircle
 10
-20.844777
 20
12.175784
 30
0.0
 40
0.0850000000000005
210
0.0000000000000001
220
0.0
230
-1.0
  0
LINE
  5
3DF
330
70
100
AcDbEntity
  8
Visible
100
AcDbLine
 10
29.383231
 20
16.625317
 30
0.0
 11
29.383231
 21
17.520986
 31
0.0
210
0.0
220
1.0
230
0.0
  0
LINE
  5
3E0
330
70
100
AcDbEntity
  8
Visible
100
AcDbLine
 10
30.800554
 20
16.625317
 30
0.0
 11
29.383231
 21
16.625317
 31
0.0
210
0.0
220
1.0
230
0.0
  0
LINE
  5
3E1
330
70
100
AcDbEntity
  8
Visible
100
AcDbLine
 10
30.800554
 20
17.520986
 30
0.0
 11
30.800554
 21
16.625317
 31
0.0
210
0.0
220
1.0
230
0.0
  0
LINE
  5
3E2
330
70
100
AcDbEntity
  8
Visible
100
AcDbLine
 10
29.383231
 20
17.520986
 30
0.0
 11
30.800554
 21
17.520986
 31
0.0
210
0.0
220
1.0
230
0.0
  0
CIRCLE
  5
3E3
330
70
100
AcDbEntity
  8
Visible
100
AcDbCircle
 10
-32.524704
 20
10.330075
 30
0.0
 40
0.0850000000000019
210
0.0000000000000001
220
0.0
230
-1.0
  0
CIRCLE
  5
3E4
330
70
100
AcDbEntity
  8
Visible
100
AcDbCircle
 10
-26.644777
 20
9.175784
 30
0.0
 40
0.0850000000000019
210
0.0000000000000001
220
0.0
230
-1.0
  0
CIRCLE
  5
3E5
330
70
100
AcDbEntity
  8
Visible
100
AcDbCircle
 10
-33.553942
 20
14.219504
 30
0.0
 40
0.0750000000000001
210
0.0000000000000001
220
0.0
230
-1.0
  0
CIRCLE
  5
3E6
330
70
100
AcDbEntity
  8
Visible
100
AcDbCircle
 10
-29.944777
 20
9.175784
 30
0.0
 40
0.0850000000000019
210
0.0000000000000001
220
0.0
230
-1.0
  0
LINE
  5
3E7
330
70
100
AcDbEntity
  8
Visible
100
AcDbLine
 10
20.67877
 20
21.695521
 30
0.0
 11
20.401975
 21
21.695521
 31
0.0
210
0.0
220
1.0
230
0.0
  0
SPLINE
  5
3E8
330
70
100
AcDbEntity
  8
Visible
100
AcDbSpline
210
0.0
220
0.0
230
1.0
 70
    12
 71
     5
 72
    16
 73
    10
 74
     0
 42
0.000000001
 43
0.0000000001
 40
0.0
 40
0.0
 40
0.0
 40
0.0
 40
0.0
 40
0.0
 40
0.2
 40
0.4
 40
0.6000000000000001
 40
0.8
 40
1.0
 40
1.0
 40
1.0
 40
1.0
 40
1.0
 40
1.0
 10
33.5539425099887
 20
16.76256699464595
 30
-0.000000000001819
 41
1.0
 10
33.5539425099887
 20
16.92365836868485
 30
-0.000000000001819
 41
1.0
 10
33.5104057915396
 20
17.28699222328489
 30
-0.000000000001819
 41
1.0
 10
33.31450644489087
 20
17.95530616839006
 30
-0.000000000001819
 41
1.0
 10
32.74020659663802
 20
19.03381052011964
 30
-0.000000000001819
 41
1.0
 10
31.05262066397154
 20
20.4116334048005
 30
-0.000000000001819
 41
1.0
 10
28.31136229051663
 20
21.26633713718975
 30
-0.000000000001819
 41
1.0
 10
25.044108645694
 20
21.61744565997072
 30
-0.000000000001819
 41
1.0
 10
22.23854419571399
 20
21.69552093220153
 30
-0.000000000001819
 41
1.0
 10
20.67877046792455
 20
21.69552093220154
 30
-0.000000000001819
 41
1.0
  0
LINE
  5
3E9
330
70
100
AcDbEntity
  8
Visible
100
AcDbLine
 10
33.553942
 20
14.621449
 30
0.0
 11
33.553943
 21
16.762567
 31
0.0
210
0.0
220
1.0
230
0.0
  0
ARC
  5
3EA
330
70
100
AcDbEntity
  8
Visible
100
AcDbCircle
 10
-33.653545
 20
14.630354
 30
0.0
 40
0.0999999526155952
210
0.0000000000000001
220
0.0
230
-1.0
100
AcDbArc
 50
283.627374
 51
354.891248
  0
ARC
  5
3EB
330
70
100
AcDbEntity
  8
Visible
100
AcDbCircle
 10
33.553942
 20
14.219504
 30
0.0
 40
0.3227509404163936
100
AcDbArc
 50
283.681783
 51
76.372587
  0
ARC
  5
3EC
330
70
100
AcDbEntity
  8
Visible
100
AcDbCircle
 10
-33.653935
 20
13.808749
 30
0.0
 40
0.1000000751714035
210
0.0000000000000001
220
0.0
230
-1.0
100
AcDbArc
 50
0.701454
 51
76.31827
  0
LINE
  5
3ED
330
70
100
AcDbEntity
  8
Visible
100
AcDbLine
 10
33.553942
 20
8.969143
 30
0.0
 11
33.553942
 21
13.809973
 31
0.0
210
0.0
220
1.0
230
0.0
  0
LINE
  5
3EE
330
70
100
AcDbEntity
  8
Visible
100
AcDbLine
 10
22.924021
 20
10.42046
 30
0.0
 11
22.924021
 21
8.969143
 31
0.0
210
0.0
220
1.0
230
0.0
  0
ARC
  5
3EF
330
70
100
AcDbEntity
  8
Visible
100
AcDbCircle
 10
-22.924021
 20
10.54546
 30
0.0
 40
0.1249999999999996
210
0.0000000000000001
220
0.0
230
-1.0
100
AcDbArc
 50
90.0
 51
270.0
  0
ARC
  5
3F0
330
70
100
AcDbEntity
  8
Visible
100
AcDbCircle
 10
-22.864966
 20
8.969143
 30
0.0
 40
0.0590551181102362
210
0.0000000000000001
220
0.0
230
-1.0
100
AcDbArc
 50
180.0
 51
270.0
  0
LINE
  5
3F1
330
70
100
AcDbEntity
  8
Visible
100
AcDbLine
 10
22.924021
 20
10.42046
 30
0.0
 11
22.924021
 21
8.969143
 31
0.0
210
0.0
220
1.0
230
0.0
  0
ARC
  5
3F2
330
70
100
AcDbEntity
  8
Visible
100
AcDbCircle
 10
-22.864966
 20
11.081004
 30
0.0
 40
0.0590551181102362
210
0.0000000000000001
220
0.0
230
-1.0
100
AcDbArc
 50
94.185896
 51
180.0
  0
ARC
  5
3F3
330
70
100
AcDbEntity
  8
Visible
100
AcDbCircle
 10
22.924021
 20
11.887901
 30
0.0
 40
0.7500000000000004
100
AcDbArc
 50
184.185896
 51
265.814104
  0
ARC
  5
3F4
330
70
100
AcDbEntity
  8
Visible
100
AcDbCircle
 10
-22.117124
 20
11.828846
 30
0.0
 40
0.0590551181102362
210
0.0000000000000001
220
0.0
230
-1.0
100
AcDbArc
 50
90.0
 51
175.814104
  0
LINE
  5
3F5
330
70
100
AcDbEntity
  8
Visible
100
AcDbLine
 10
20.401975
 20
11.887901
 30
0.0
 11
22.117124
 21
11.887901
 31
0.0
210
0.0
220
1.0
230
0.0
  0
ARC
  5
3F6
330
70
100
AcDbEntity
  8
Visible
100
AcDbCircle
 10
-20.401975
 20
11.828846
 30
0.0
 40
0.0590551181102362
210
0.0000000000000001
220
0.0
230
-1.0
100
AcDbArc
 50
0.0
 51
90.0
  0
LINE
  5
3F7
330
70
100
AcDbEntity
  8
Visible
100
AcDbLine
 10
20.34292
 20
8.969143
 30
0.0
 11
20.34292
 21
11.828846
 31
0.0
210
0.0
220
1.0
230
0.0
  0
ARC
  5
3F8
330
70
100
AcDbEntity
  8
Visible
100
AcDbCircle
 10
-20.401975
 20
8.969143
 30
0.0
 40
0.0590551181102362
210
0.0000000000000001
220
0.0
230
-1.0
100
AcDbArc
 50
270.0
 51
360.0
  0
LINE
  5
3F9
330
70
100
AcDbEntity
  8
Visible
100
AcDbLine
 10
22.864966
 20
8.910088
 30
0.0
 11
20.401975
 21
8.910088
 31
0.0
210
0.0
220
1.0
230
0.0
  0
CIRCLE
  5
3FA
330
70
100
AcDbEntity
  8
Visible
100
AcDbCircle
 10
22.347897
 20
10.978956
 30
0.0
 40
0.0850000000000005
  0
CIRCLE
  5
3FB
330
70
100
AcDbEntity
  8
Visible
100
AcDbCircle
 10
20.844777
 20
11.575784
 30
0.0
 40
0.0850000000000005
  0
CIRCLE
  5
3FC
330
70
100
AcDbEntity
  8
Visible
100
AcDbCircle
 10
20.844777
 20
9.175784
 30
0.0
 40
0.0850000000000005
  0
CIRCLE
  5
3FD
330
70
100
AcDbEntity
  8
Visible
100
AcDbCircle
 10
22.694777
 20
9.175784
 30
0.0
 40
0.0850000000000005
  0
LINE
  5
3FE
330
70
100
AcDbEntity
  8
Visible
100
AcDbLine
 10
22.924021
 20
11.081004
 30
0.0
 11
22.924021
 21
10.67046
 31
0.0
210
0.0
220
1.0
230
0.0
  0
ARC
  5
3FF
330
70
100
AcDbEntity
  8
Visible
100
AcDbCircle
 10
22.924021
 20
10.54546
 30
0.0
 40
0.1249999999999996
100
AcDbArc
 50
90.0
 51
270.0
  0
CIRCLE
  5
400
330
70
100
AcDbEntity
  8
Visible
100
AcDbCircle
 10
-28.803942
 20
7.660088
 30
0.0
 40
0.1375
210
0.0000000000000001
220
0.0
230
-1.0
  0
LINE
  5
401
330
70
100
AcDbEntity
  8
Visible
100
AcDbLine
 10
32.053942
 20
5.910088
 30
0.0
 11
32.053942
 21
8.410088
 31
0.0
210
0.0
220
1.0
230
0.0
  0
ARC
  5
402
330
70
100
AcDbEntity
  8
Visible
100
AcDbCircle
 10
31.803942
 20
5.910088
 30
0.0
 40
0.2499999999999999
100
AcDbArc
 50
270.0
 51
0.0
  0
LINE
  5
403
330
70
100
AcDbEntity
  8
Visible
100
AcDbLine
 10
31.366442
 20
5.660088
 30
0.0
 11
31.803942
 21
5.660088
 31
0.0
210
0.0
220
1.0
230
0.0
  0
LINE
  5
404
330
70
100
AcDbEntity
  8
Visible
100
AcDbLine
 10
31.366442
 20
5.810088
 30
0.0
 11
31.366442
 21
5.660088
 31
0.0
210
0.0
220
1.0
230
0.0
  0
LINE
  5
405
330
70
100
AcDbEntity
  8
Visible
100
AcDbLine
 10
26.241442
 20
5.810088
 30
0.0
 11
31.366442
 21
5.810088
 31
0.0
210
0.0
220
1.0
230
0.0
  0
LINE
  5
406
330
70
100
AcDbEntity
  8
Visible
100
AcDbLine
 10
26.241442
 20
5.660088
 30
0.0
 11
26.241442
 21
5.810088
 31
0.0
210
0.0
220
1.0
230
0.0
  0
LINE
  5
407
330
70
100
AcDbEntity
  8
Visible
100
AcDbLine
 10
25.803942
 20
5.660088
 30
0.0
 11
26.241442
 21
5.660088
 31
0.0
210
0.0
220
1.0
230
0.0
  0
ARC
  5
408
330
70
100
AcDbEntity
  8
Visible
100
AcDbCircle
 10
25.803942
 20
5.910088
 30
0.0
 40
0.2499999999999999
100
AcDbArc
 50
180.0
 51
270.0
  0
LINE
  5
409
330
70
100
AcDbEntity
  8
Visible
100
AcDbLine
 10
25.553942
 20
8.410088
 30
0.0
 11
25.553942
 21
5.910088
 31
0.0
210
0.0
220
1.0
230
0.0
  0
ARC
  5
40A
330
70
100
AcDbEntity
  8
Visible
100
AcDbCircle
 10
25.803942
 20
8.410088
 30
0.0
 40
0.25
100
AcDbArc
 50
90.0
 51
180.0
  0
LINE
  5
40B
330
70
100
AcDbEntity
  8
Visible
100
AcDbLine
 10
31.803942
 20
8.660088
 30
0.0
 11
25.803942
 21
8.660088
 31
0.0
210
0.0
220
1.0
230
0.0
  0
ARC
  5
40C
330
70
100
AcDbEntity
  8
Visible
100
AcDbCircle
 10
31.803942
 20
8.410088
 30
0.0
 40
0.2499999999999999
100
AcDbArc
 50
0.0
 51
90.0
  0
ARC
  5
40D
330
70
100
AcDbEntity
  8
Visible
100
AcDbCircle
 10
-8.792919
 20
8.851033
 30
0.0
 40
0.0590551181102362
210
0.0000000000000001
220
0.0
230
-1.0
100
AcDbArc
 50
0.0
 51
90.0
  0
LINE
  5
40E
330
70
100
AcDbEntity
  8
Visible
100
AcDbLine
 10
8.733863
 20
5.219143
 30
0.0
 11
8.733863
 21
8.851033
 31
0.0
210
0.0
220
1.0
230
0.0
  0
ARC
  5
40F
330
70
100
AcDbEntity
  8
Visible
100
AcDbCircle
 10
-33.494887
 20
8.851033
 30
0.0
 40
0.0590551181102362
210
0.0000000000000001
220
0.0
230
-1.0
100
AcDbArc
 50
90.0
 51
180.0
  0
LINE
  5
410
330
70
100
AcDbEntity
  8
Visible
100
AcDbLine
 10
33.553942
 20
8.851033
 30
0.0
 11
33.553943
 21
5.219143
 31
0.0
210
0.0
220
1.0
230
0.0
  0
ARC
  5
411
330
70
100
AcDbEntity
  8
Visible
100
AcDbCircle
 10
-33.494887
 20
5.219143
 30
0.0
 40
0.0590551181102362
210
0.0000000000000001
220
0.0
230
-1.0
100
AcDbArc
 50
180.0
 51
270.0
  0
ARC
  5
412
330
70
100
AcDbEntity
  8
Visible
100
AcDbCircle
 10
-8.792919
 20
5.219143
 30
0.0
 40
0.0590551181102362
210
0.0000000000000001
220
0.0
230
-1.0
100
AcDbArc
 50
270.0
 51
0.0
  0
LINE
  5
413
330
70
100
AcDbEntity
  8
Visible
100
AcDbLine
 10
20.027648
 20
6.26468
 30
0.0
 11
20.814623
 21
6.26468
 31
0.0
210
0.0
220
1.0
230
0.0
  0
LINE
  5
414
330
70
100
AcDbEntity
  8
Visible
100
AcDbLine
 10
20.814623
 20
6.26468
 30
0.0
 11
20.814623
 21
6.114513
 31
0.0
210
0.0
220
1.0
230
0.0
  0
LINE
  5
415
330
70
100
AcDbEntity
  8
Visible
100
AcDbLine
 10
20.814623
 20
6.114513
 30
0.0
 11
21.115804
 21
6.114513
 31
0.0
210
0.0
220
1.0
230
0.0
  0
LINE
  5
416
330
70
100
AcDbEntity
  8
Visible
100
AcDbLine
 10
21.115804
 20
6.114513
 30
0.0
 11
21.115804
 21
6.286757
 31
0.0
210
0.0
220
1.0
230
0.0
  0
LINE
  5
417
330
70
100
AcDbEntity
  8
Visible
100
AcDbLine
 10
21.115804
 20
6.286757
 30
0.0
 11
21.371709
 21
6.286757
 31
0.0
210
0.0
220
1.0
230
0.0
  0
LINE
  5
418
330
70
100
AcDbEntity
  8
Visible
100
AcDbLine
 10
21.371709
 20
6.286757
 30
0.0
 11
21.371709
 21
7.74345
 31
0.0
210
0.0
220
1.0
230
0.0
  0
ARC
  5
419
330
70
100
AcDbEntity
  8
Visible
100
AcDbCircle
 10
25.803942
 20
8.410088
 30
0.0
 40
0.2499999999999964
100
AcDbArc
 50
90.0
 51
180.000001
  0
LINE
  5
41A
330
70
100
AcDbEntity
  8
Visible
100
AcDbLine
 10
25.553942
 20
8.410088
 30
0.0
 11
25.553942
 21
5.910088
 31
0.0
210
0.0
220
1.0
230
0.0
  0
ARC
  5
41B
330
70
100
AcDbEntity
  8
Visible
100
AcDbCircle
 10
25.803942
 20
5.910088
 30
0.0
 40
0.2500000000032275
100
AcDbArc
 50
180.000001
 51
270.0
  0
LINE
  5
41C
330
70
100
AcDbEntity
  8
Visible
100
AcDbLine
 10
25.803942
 20
5.660088
 30
0.0
 11
31.803942
 21
5.660088
 31
0.0
210
0.0
220
1.0
230
0.0
  0
LINE
  5
41D
330
70
100
AcDbEntity
  8
Visible
100
AcDbLine
 10
16.622541
 20
4.372686
 30
0.0
 11
11.115265
 21
4.372686
 31
0.0
210
0.0
220
1.0
230
0.0
  0
SPLINE
  5
41E
330
70
100
AcDbEntity
  8
Visible
100
AcDbSpline
210
0.0
220
0.0
230
1.0
 70
     8
 71
     3
 72
    18
 73
    14
 74
     0
 42
0.000000001
 43
0.0000000001
 40
0.0
 40
0.0
 40
0.0
 40
0.0
 40
0.9176391993764703
 40
0.9176391993764703
 40
1.926746466974662
 40
1.926746466974662
 40
3.392472474898927
 40
3.392472474898927
 40
4.093017314390532
 40
4.093017314390532
 40
4.419464771683824
 40
4.419464771683824
 40
4.727908975930459
 40
4.727908975930459
 40
4.727908975930459
 40
4.727908975930459
 10
11.11526478191081
 20
4.372686286532293
 30
-0.000000000001819
 10
10.99483969012908
 20
4.372686286532293
 30
-0.000000000001819
 10
10.88217488042028
 20
4.395695924562148
 30
-0.000000000001819
 10
10.64845407751454
 20
4.492075384852315
 30
-0.000000000001819
 10
10.53739665878311
 20
4.566362495806588
 30
-0.000000000001819
 10
10.28264582707561
 20
4.765722662926615
 30
-0.000000000001819
 10
10.14478701715598
 20
4.900238118714326
 30
-0.000000000001819
 10
9.94293248658505
 20
5.051868063282602
 30
-0.000000000001819
 10
9.877534185758122
 20
5.093895676039443
 30
-0.000000000001819
 10
9.780464175992165
 20
5.135410101635918
 30
-0.000000000001819
 10
9.748507615373455
 20
5.146016082178046
 30
-0.000000000001819
 10
9.684490520530744
 20
5.158987708227484
 30
-0.000000000001819
 10
9.653192462261358
 20
5.161645626180354
 30
-0.000000000001819
 10
9.621488106702599
 20
5.160087861335442
 30
-0.000000000001819
  0
LINE
  5
41F
330
70
100
AcDbEntity
  8
Visible
100
AcDbLine
 10
9.621488
 20
5.160088
 30
0.0
 11
8.792919
 21
5.160088
 31
0.0
210
0.0
220
1.0
230
0.0
  0
CIRCLE
  5
420
330
70
100
AcDbEntity
  8
Visible
100
AcDbCircle
 10
24.527547
 20
7.960088
 30
0.0
 40
0.1574803149606293
  0
CIRCLE
  5
421
330
70
100
AcDbEntity
  8
Visible
100
AcDbCircle
 10
9.070863
 20
8.515588
 30
0.0
 40
0.0850000000000005
  0
CIRCLE
  5
422
330
70
100
AcDbEntity
  8
Visible
100
AcDbCircle
 10
19.966985
 20
5.941285
 30
0.0
 40
0.0750000000000001
  0
LINE
  5
423
330
70
100
AcDbEntity
  8
Visible
100
AcDbLine
 10
21.371709
 20
7.74345
 30
0.0
 11
21.115804
 21
7.74345
 31
0.0
210
0.0
220
1.0
230
0.0
  0
LINE
  5
424
330
70
100
AcDbEntity
  8
Visible
100
AcDbLine
 10
21.115804
 20
7.74345
 30
0.0
 11
21.115804
 21
7.915694
 31
0.0
210
0.0
220
1.0
230
0.0
  0
LINE
  5
425
330
70
100
AcDbEntity
  8
Visible
100
AcDbLine
 10
21.115804
 20
7.915694
 30
0.0
 11
20.63352
 21
7.915694
 31
0.0
210
0.0
220
1.0
230
0.0
  0
LINE
  5
426
330
70
100
AcDbEntity
  8
Visible
100
AcDbLine
 10
20.63352
 20
7.915694
 30
0.0
 11
20.63352
 21
7.721373
 31
0.0
210
0.0
220
1.0
230
0.0
  0
LINE
  5
427
330
70
100
AcDbEntity
  8
Visible
100
AcDbLine
 10
20.63352
 20
7.721373
 30
0.0
 11
20.027648
 21
7.721373
 31
0.0
210
0.0
220
1.0
230
0.0
  0
LINE
  5
428
330
70
100
AcDbEntity
  8
Visible
100
AcDbLine
 10
20.027648
 20
7.721373
 30
0.0
 11
20.027648
 21
6.26468
 31
0.0
210
0.0
220
1.0
230
0.0
  0
CIRCLE
  5
429
330
70
100
AcDbEntity
  8
Visible
100
AcDbCircle
 10
15.738735
 20
5.610538
 30
0.0
 40
0.0499999999999999
  0
CIRCLE
  5
42A
330
70
100
AcDbEntity
  8
Visible
100
AcDbCircle
 10
22.924021
 20
8.515588
 30
0.0
 40
0.0850000000000005
  0
CIRCLE
  5
42B
330
70
100
AcDbEntity
  8
Visible
100
AcDbCircle
 10
11.583863
 20
5.622686
 30
0.0
 40
0.1968503937007874
  0
CIRCLE
  5
42C
330
70
100
AcDbEntity
  8
Visible
100
AcDbCircle
 10
19.966985
 20
7.941285
 30
0.0
 40
0.0750000000000001
  0
CIRCLE
  5
42D
330
70
100
AcDbEntity
  8
Visible
100
AcDbCircle
 10
9.070863
 20
5.475588
 30
0.0
 40
0.0850000000000005
  0
CIRCLE
  5
42E
330
70
100
AcDbEntity
  8
Visible
100
AcDbCircle
 10
11.583863
 20
7.372686
 30
0.0
 40
0.1968503937007874
  0
ARC
  5
42F
330
70
100
AcDbEntity
  8
Visible
100
AcDbCircle
 10
31.803942
 20
5.910088
 30
0.0
 40
0.2500000000005447
100
AcDbArc
 50
270.0
 51
0.0
  0
LINE
  5
430
330
70
100
AcDbEntity
  8
Visible
100
AcDbLine
 10
32.053942
 20
5.910088
 30
0.0
 11
32.053942
 21
8.410088
 31
0.0
210
0.0
220
1.0
230
0.0
  0
ARC
  5
431
330
70
100
AcDbEntity
  8
Visible
100
AcDbCircle
 10
31.803942
 20
8.410088
 30
0.0
 40
0.2499999999999936
100
AcDbArc
 50
0.0
 51
90.0
  0
LINE
  5
432
330
70
100
AcDbEntity
  8
Visible
100
AcDbLine
 10
31.803942
 20
8.660088
 30
0.0
 11
25.803942
 21
8.660088
 31
0.0
210
0.0
220
1.0
230
0.0
  0
CIRCLE
  5
433
330
70
100
AcDbEntity
  8
Visible
100
AcDbCircle
 10
21.416985
 20
5.941285
 30
0.0
 40
0.0750000000000001
  0
CIRCLE
  5
434
330
70
100
AcDbEntity
  8
Visible
100
AcDbCircle
 10
33.222439
 20
5.475588
 30
0.0
 40
0.0849999999999991
  0
CIRCLE
  5
435
330
70
100
AcDbEntity
  8
Visible
100
AcDbCircle
 10
33.238943
 20
8.515088
 30
0.0
 40
0.0849999999999991
  0
CIRCLE
  5
436
330
70
100
AcDbEntity
  8
Visible
100
AcDbCircle
 10
24.527547
 20
6.520088
 30
0.0
 40
0.1574803149606293
  0
CIRCLE
  5
437
330
70
100
AcDbEntity
  8
Visible
100
AcDbCircle
 10
14.305335
 20
5.610538
 30
0.0
 40
0.05
  0
CIRCLE
  5
438
330
70
100
AcDbEntity
  8
Visible
100
AcDbCircle
 10
16.124376
 20
7.401203
 30
0.0
 40
0.3749999999999998
  0
CIRCLE
  5
439
330
70
100
AcDbEntity
  8
Visible
100
AcDbCircle
 10
13.863728
 20
7.401203
 30
0.0
 40
0.275
  0
CIRCLE
  5
43A
330
70
100
AcDbEntity
  8
Visible
100
AcDbCircle
 10
21.416985
 20
7.941285
 30
0.0
 40
0.0750000000000001
  0
CIRCLE
  5
43B
330
70
100
AcDbEntity
  8
Visible
100
AcDbCircle
 10
22.924021
 20
5.475588
 30
0.0
 40
0.0850000000000005
  0
CIRCLE
  5
43C
330
70
100
AcDbEntity
  8
Visible
100
AcDbCircle
 10
15.022035
 20
5.610538
 30
0.0
 40
0.1574803149606299
  0
LINE
  5
43D
330
70
100
AcDbEntity
  8
Visible
100
AcDbLine
 10
8.792919
 20
8.910088
 30
0.0
 11
33.494887
 21
8.910088
 31
0.0
210
0.0
220
1.0
230
0.0
  0
LINE
  5
43E
330
70
100
AcDbEntity
  8
Visible
100
AcDbLine
 10
33.494887
 20
5.160088
 30
0.0
 11
18.116318
 21
5.160088
 31
0.0
210
0.0
220
1.0
230
0.0
  0
SPLINE
  5
43F
330
70
100
AcDbEntity
  8
Visible
100
AcDbSpline
210
0.0
220
0.0
230
1.0
 70
     8
 71
     3
 72
    18
 73
    14
 74
     0
 42
0.000000001
 43
0.0000000001
 40
0.0
 40
0.0
 40
0.0
 40
0.0
 40
0.3708986770350525
 40
0.3708986770350525
 40
0.871376294398011
 40
0.871376294398011
 40
1.9596972506872
 40
1.9596972506872
 40
2.776335464641223
 40
2.776335464641223
 40
3.183729430730514
 40
3.183729430730514
 40
3.602470422665084
 40
3.602470422665084
 40
3.602470422665084
 40
3.602470422665084
 10
18.11631756380302
 20
5.160087861335442
 30
-0.000000000001819
 10
18.06770184189372
 20
5.16247649951996
 30
-0.000000000001819
 10
18.02047099916672
 20
5.154918328697061
 30
-0.000000000001819
 10
17.91171243852113
 20
5.120082176807985
 30
-0.000000000001819
 10
17.85017946413245
 20
5.086628008112532
 30
-0.000000000001819
 10
17.65485741511293
 20
4.95465929806765
 30
-0.000000000001819
 10
17.51949383116152
 20
4.824599777942005
 30
-0.000000000001819
 10
17.26446911625862
 20
4.613093883990685
 30
-0.000000000001819
 10
17.15083078327916
 20
4.528865733295198
 30
-0.000000000001819
 10
16.96384266278619
 20
4.437905366224926
 30
-0.000000000001819
 10
16.89966515259402
 20
4.413891283025161
 30
-0.000000000001819
 10
16.76324268116332
 20
4.380717774195311
 30
-0.000000000001819
 10
16.69369656527669
 20
4.372686286532292
 30
-0.000000000001819
 10
16.62254111370566
 20
4.372686286532292
 30
-0.000000000001819
  0
ENDSEC
  0
SECTION
  2
OBJECTS
  0
DICTIONARY
  5
C
330
0
100
AcDbDictionary
281
     1
  3
ACAD_COLOR
350
63
  3
ACAD_DETAILVIEWSTYLE
350
6A
  3
ACAD_GROUP
350
D
  3
ACAD_LAYOUT
350
62
  3
ACAD_MATERIAL
350
10
  3
ACAD_MLEADERSTYLE
350
66
  3
ACAD_MLINESTYLE
350
5F
  3
ACAD_PLOTSETTINGS
350
61
  3
ACAD_PLOTSTYLENAME
350
E
  3
ACAD_SCALELIST
350
42
  3
ACAD_SECTIONVIEWSTYLE
350
68
  3
ACAD_TABLESTYLE
350
64
  3
ACAD_VISUALSTYLE
350
29
  3
ACDB_RECOMPOSE_DATA
350
449
  3
AcDbVariableDictionary
350
440
  0
DICTIONARY
  5
B6
330
70
100
AcDbDictionary
280
     1
281
     1
  3
ACAD_SORTENTS
360
B7
  0
DICTIONARY
  5
63
102
{ACAD_REACTORS
330
C
102
}
330
C
100
AcDbDictionary
281
     1
  0
DICTIONARY
  5
6A
102
{ACAD_REACTORS
330
C
102
}
330
C
100
AcDbDictionary
281
     1
  3
Imperial24
350
6B
  0
DICTIONARY
  5
D
102
{ACAD_REACTORS
330
C
102
}
330
C
100
AcDbDictionary
281
     1
  0
DICTIONARY
  5
62
102
{ACAD_REACTORS
330
C
102
}
330
C
100
AcDbDictionary
281
     1
  3
Model
350
73
  3
Sheet1
350
6F
  3
Sheet2
350
77
  0
DICTIONARY
  5
10
102
{ACAD_REACTORS
330
C
102
}
330
C
100
AcDbDictionary
281
     1
  3
ByBlock
350
19
  3
ByLayer
350
11
  3
Global
350
21
  0
DICTIONARY
  5
66
102
{ACAD_REACTORS
330
C
102
}
330
C
100
AcDbDictionary
281
     1
  3
Standard
350
67
  0
DICTIONARY
  5
5F
102
{ACAD_REACTORS
330
C
102
}
330
C
100
AcDbDictionary
281
     1
  3
Standard
350
60
  0
DICTIONARY
  5
61
102
{ACAD_REACTORS
330
C
102
}
330
C
100
AcDbDictionary
281
     1
  0
ACDBDICTIONARYWDFLT
  5
E
102
{ACAD_REACTORS
330
C
102
}
330
C
100
AcDbDictionary
281
     1
  3
Normal
350
F
100
AcDbDictionaryWithDefault
340
F
  0
DICTIONARY
  5
42
102
{ACAD_REACTORS
330
C
102
}
330
C
100
AcDbDictionary
281
     1
  3
*A1
350
A6
  3
*A10
350
AF
  3
*A11
350
B0
  3
*A12
350
B1
  3
*A13
350
B2
  3
*A14
350
B3
  3
*A15
350
B4
  3
*A16
350
B5
  3
*A2
350
A7
  3
*A3
350
A8
  3
*A4
350
A9
  3
*A5
350
AA
  3
*A6
350
AB
  3
*A7
350
AC
  3
*A8
350
AD
  3
*A9
350
AE
  3
A0
350
43
  3
A1
350
44
  3
A2
350
45
  3
A3
350
46
  3
A4
350
47
  3
A5
350
48
  3
A6
350
49
  3
A7
350
4A
  3
A8
350
4B
  3
A9
350
4C
  3
B0
350
4D
  3
B1
350
4E
  3
B2
350
4F
  3
B3
350
50
  3
B4
350
51
  3
B5
350
52
  3
B6
350
53
  0
DICTIONARY
  5
68
102
{ACAD_REACTORS
330
C
102
}
330
C
100
AcDbDictionary
281
     1
  3
Imperial24
350
69
  0
DICTIONARY
  5
64
102
{ACAD_REACTORS
330
C
102
}
330
C
100
AcDbDictionary
281
     1
  3
Standard
350
65
  0
DICTIONARY
  5
29
102
{ACAD_REACTORS
330
C
102
}
330
C
100
AcDbDictionary
281
     1
  3
2dWireframe
350
2F
  3
Basic
350
2E
  3
Brighten
350
35
  3
ColorChange
350
39
  3
Conceptual
350
32
  3
Dim
350
34
  3
EdgeColorOff
350
41
  3
Facepattern
350
38
  3
Flat
350
2A
  3
FlatWithEdges
350
2B
  3
Gouraud
350
2C
  3
GouraudWithEdges
350
2D
  3
Hidden
350
31
  3
JitterOff
350
3F
  3
Linepattern
350
37
  3
OverhangOff
350
40
  3
Realistic
350
33
  3
Shaded
350
3E
  3
Shaded with edges
350
3D
  3
Shades of Gray
350
3A
  3
Sketchy
350
3B
  3
Thicken
350
36
  3
Wireframe
350
30
  3
X-Ray
350
3C
  0
XRECORD
  5
449
102
{ACAD_REACTORS
330
C
102
}
330
C
100
AcDbXrecord
280
     1
 90
        1
330
65
  0
DICTIONARY
  5
440
102
{ACAD_REACTORS
330
C
102
}
330
C
100
AcDbDictionary
281
     1
  3
ANNOALLVISIBLE
350
445
  3
CANNOSCALE
350
446
  3
CMLEADERSTYLE
350
442
  3
CTABLESTYLE
350
441
  3
CVIEWDETAILSTYLE
350
443
  3
CVIEWSECTIONSTYLE
350
444
  0
SORTENTSTABLE
  5
B7
102
{ACAD_REACTORS
330
B6
102
}
330
B6
100
AcDbSortentsTable
330
70
  0
ACDBDETAILVIEWSTYLE
  5
6B
102
{ACAD_XDICTIONARY
360
44C
102
}
102
{ACAD_REACTORS
330
6A
102
}
330
6A
100
AcDbModelDocViewStyle
 70
     0
  3
Imperial24
290
     0
100
AcDbDetailViewStyle
 70
     0
 71
     0
 90
        3
 71
     1
340
55
 62
   256
 40
0.24
340
0
 62
   256
 40
0.24
300

 40
0.36
280
     3
 71
     2
340
5D
 90
       25
 62
   256
 71
     3
340
55
 62
   256
 40
0.24
 90
        1
 40
0.75
 90
        1
300
%<\AcVar ViewType \f "%tc1">% %<\AcVar ViewDetailId>%\PSCALE %<\AcVar ViewScale \f "%sn">%
 71
     4
340
5D
 90
       25
 62
   256
340
5D
 90
       25
 62
   256
280
     0
  0
LAYOUT
  5
73
102
{ACAD_REACTORS
330
62
102
}
330
62
100
AcDbPlotSettings
  1

  2
AutoCAD PDF (High Quality Print).pc3
  4
ANSI_full_bleed_D_(34.00_x_22.00_Inches)
  6

 40
0.0
 41
0.0
 42
0.0
 43
0.0
 44
863.599976
 45
558.799988
 46
0.0
 47
0.0
 48
0.0
 49
0.0
140
0.0
141
0.0
142
1.0
143
1.429066
 70
 11952
 72
     0
 73
     0
 74
     0
  7

 75
     0
147
0.699758
 76
     0
 77
     2
 78
   300
148
314.514621
149
172.96687
100
AcDbLayout
  1
Model
 70
     1
 71
     0
 10
0.0
 20
0.0
 11
12.0
 21
9.0
 12
0.0
 22
0.0
 32
0.0
 14
0.0
 24
0.0
 34
0.0
 15
0.0
 25
0.0
 35
0.0
146
0.0
 13
0.0
 23
0.0
 33
0.0
 16
1.0
 26
0.0
 36
0.0
 17
0.0
 27
1.0
 37
0.0
 76
     0
330
70
1001
ACAD_PSEXT
1000
AutoCAD PDF (High Quality Print).pc3
1000
DWG To PDF
1000
File
1000

1070
     0
  0
LAYOUT
  5
6F
102
{ACAD_REACTORS
330
62
102
}
330
62
100
AcDbPlotSettings
  1

  2
None
  4

  6

 40
0.0
 41
0.0
 42
0.0
 43
0.0
 44
0.0
 45
0.0
 46
0.0
 47
0.0
 48
0.0
 49
0.0
140
0.0
141
0.0
142
1.0
143
1.0
 70
   688
 72
     0
 73
     0
 74
     5
  7

 75
    16
147
1.0
 76
     0
 77
     2
 78
   300
148
0.0
149
0.0
100
AcDbLayout
  1
Sheet1
 70
     1
 71
     1
 10
0.0
 20
0.0
 11
12.0
 21
9.0
 12
0.0
 22
0.0
 32
0.0
 14
0.0
 24
0.0
 34
0.0
 15
0.0
 25
0.0
 35
0.0
146
0.0
 13
0.0
 23
0.0
 33
0.0
 16
1.0
 26
0.0
 36
0.0
 17
0.0
 27
1.0
 37
0.0
 76
     0
330
6C
  0
LAYOUT
  5
77
102
{ACAD_REACTORS
330
62
102
}
330
62
100
AcDbPlotSettings
  1

  2
None
  4

  6

 40
0.0
 41
0.0
 42
0.0
 43
0.0
 44
0.0
 45
0.0
 46
0.0
 47
0.0
 48
0.0
 49
0.0
140
0.0
141
0.0
142
1.0
143
1.0
 70
   688
 72
     0
 73
     0
 74
     5
  7

 75
    16
147
1.0
 76
     0
 77
     2
 78
   300
148
0.0
149
0.0
100
AcDbLayout
  1
Sheet2
 70
     1
 71
     2
 10
0.0
 20
0.0
 11
12.0
 21
9.0
 12
0.0
 22
0.0
 32
0.0
 14
0.0
 24
0.0
 34
0.0
 15
0.0
 25
0.0
 35
0.0
146
0.0
 13
0.0
 23
0.0
 33
0.0
 16
1.0
 26
0.0
 36
0.0
 17
0.0
 27
1.0
 37
0.0
 76
     0
330
74
  0
MATERIAL
  5
19
102
{ACAD_XDICTIONARY
360
1A
102
}
102
{ACAD_REACTORS
330
10
102
}
330
10
100
AcDbMaterial
  1
ByBlock
 72
     0
 43
0.020833
 43
0.0
 43
0.0
 43
0.0
 43
0.0
 43
0.020833
 43
0.0
 43
0.0
 43
0.0
 43
0.0
 43
1.0
 43
0.0
 43
0.0
 43
0.0
 43
0.0
 43
1.0
 77
     0
 47
0.020833
 47
0.0
 47
0.0
 47
0.0
 47
0.0
 47
0.020833
 47
0.0
 47
0.0
 47
0.0
 47
0.0
 47
1.0
 47
0.0
 47
0.0
 47
0.0
 47
0.0
 47
1.0
171
     0
 49
0.020833
 49
0.0
 49
0.0
 49
0.0
 49
0.0
 49
0.020833
 49
0.0
 49
0.0
 49
0.0
 49
0.0
 49
1.0
 49
0.0
 49
0.0
 49
0.0
 49
0.0
 49
1.0
175
     0
142
0.020833
142
0.0
142
0.0
142
0.0
142
0.0
142
0.020833
142
0.0
142
0.0
142
0.0
142
0.0
142
1.0
142
0.0
142
0.0
142
0.0
142
0.0
142
1.0
179
     0
144
0.020833
144
0.0
144
0.0
144
0.0
144
0.0
144
0.020833
144
0.0
144
0.0
144
0.0
144
0.0
144
1.0
144
0.0
144
0.0
144
0.0
144
0.0
144
1.0
147
0.020833
147
0.0
147
0.0
147
0.0
147
0.0
147
0.020833
147
0.0
147
0.0
147
0.0
147
0.0
147
1.0
147
0.0
147
0.0
147
0.0
147
0.0
147
1.0
  0
MATERIAL
  5
11
102
{ACAD_XDICTIONARY
360
12
102
}
102
{ACAD_REACTORS
330
10
102
}
330
10
100
AcDbMaterial
  1
ByLayer
 72
     0
 43
0.020833
 43
0.0
 43
0.0
 43
0.0
 43
0.0
 43
0.020833
 43
0.0
 43
0.0
 43
0.0
 43
0.0
 43
1.0
 43
0.0
 43
0.0
 43
0.0
 43
0.0
 43
1.0
 77
     0
 47
0.020833
 47
0.0
 47
0.0
 47
0.0
 47
0.0
 47
0.020833
 47
0.0
 47
0.0
 47
0.0
 47
0.0
 47
1.0
 47
0.0
 47
0.0
 47
0.0
 47
0.0
 47
1.0
171
     0
 49
0.020833
 49
0.0
 49
0.0
 49
0.0
 49
0.0
 49
0.020833
 49
0.0
 49
0.0
 49
0.0
 49
0.0
 49
1.0
 49
0.0
 49
0.0
 49
0.0
 49
0.0
 49
1.0
175
     0
142
0.020833
142
0.0
142
0.0
142
0.0
142
0.0
142
0.020833
142
0.0
142
0.0
142
0.0
142
0.0
142
1.0
142
0.0
142
0.0
142
0.0
142
0.0
142
1.0
179
     0
144
0.020833
144
0.0
144
0.0
144
0.0
144
0.0
144
0.020833
144
0.0
144
0.0
144
0.0
144
0.0
144
1.0
144
0.0
144
0.0
144
0.0
144
0.0
144
1.0
147
0.020833
147
0.0
147
0.0
147
0.0
147
0.0
147
0.020833
147
0.0
147
0.0
147
0.0
147
0.0
147
1.0
147
0.0
147
0.0
147
0.0
147
0.0
147
1.0
  0
MATERIAL
  5
21
102
{ACAD_XDICTIONARY
360
22
102
}
102
{ACAD_REACTORS
330
10
102
}
330
10
100
AcDbMaterial
  1
Global
 72
     0
 43
0.020833
 43
0.0
 43
0.0
 43
0.0
 43
0.0
 43
0.020833
 43
0.0
 43
0.0
 43
0.0
 43
0.0
 43
1.0
 43
0.0
 43
0.0
 43
0.0
 43
0.0
 43
1.0
 77
     0
 47
0.020833
 47
0.0
 47
0.0
 47
0.0
 47
0.0
 47
0.020833
 47
0.0
 47
0.0
 47
0.0
 47
0.0
 47
1.0
 47
0.0
 47
0.0
 47
0.0
 47
0.0
 47
1.0
171
     0
 49
0.020833
 49
0.0
 49
0.0
 49
0.0
 49
0.0
 49
0.020833
 49
0.0
 49
0.0
 49
0.0
 49
0.0
 49
1.0
 49
0.0
 49
0.0
 49
0.0
 49
0.0
 49
1.0
175
     0
142
0.020833
142
0.0
142
0.0
142
0.0
142
0.0
142
0.020833
142
0.0
142
0.0
142
0.0
142
0.0
142
1.0
142
0.0
142
0.0
142
0.0
142
0.0
142
1.0
179
     0
144
0.020833
144
0.0
144
0.0
144
0.0
144
0.0
144
0.020833
144
0.0
144
0.0
144
0.0
144
0.0
144
1.0
144
0.0
144
0.0
144
0.0
144
0.0
144
1.0
147
0.020833
147
0.0
147
0.0
147
0.0
147
0.0
147
0.020833
147
0.0
147
0.0
147
0.0
147
0.0
147
1.0
147
0.0
147
0.0
147
0.0
147
0.0
147
1.0
  0
MLEADERSTYLE
  5
67
102
{ACAD_REACTORS
330
66
102
}
330
66
100
AcDbMLeaderStyle
179
     2
170
     2
171
     1
172
     0
 90
        2
 40
0.0
 41
0.0
173
     1
 91
-1056964608
340
5B
 92
       -2
290
     1
 42
0.09
291
     1
 43
0.36
  3
Standard
 44
0.18
300

342
55
174
     1
178
     6
175
     1
176
     0
 93
-1056964608
 45
0.18
292
     0
297
     0
 46
0.18
 94
-1056964608
 47
1.0
 49
1.0
140
1.0
293
     1
141
0.0
294
     1
177
     0
142
1.0
295
     0
296
     0
143
0.125
271
     0
272
     9
273
     9
298
     1
  0
MLINESTYLE
  5
60
102
{ACAD_REACTORS
330
5F
102
}
330
5F
100
AcDbMlineStyle
  2
STANDARD
 70
     0
  3

 62
   256
 51
90.0
 52
90.0
 71
     0
  0
ACDBPLACEHOLDER
  5
F
102
{ACAD_REACTORS
330
E
102
}
330
E
  0
SCALE
  5
A6
102
{ACAD_REACTORS
330
42
102
}
330
42
100
AcDbScale
 70
     0
300
1:2
140
1.0
141
2.0
290
     0
  0
SCALE
  5
AF
102
{ACAD_REACTORS
330
42
102
}
330
42
100
AcDbScale
 70
     0
300
1:50
140
1.0
141
50.0
290
     0
  0
SCALE
  5
B0
102
{ACAD_REACTORS
330
42
102
}
330
42
100
AcDbScale
 70
     0
300
1:100
140
1.0
141
100.0
290
     0
  0
SCALE
  5
B1
102
{ACAD_REACTORS
330
42
102
}
330
42
100
AcDbScale
 70
     0
300
2:1
140
2.0
141
1.0
290
     0
  0
SCALE
  5
B2
102
{ACAD_REACTORS
330
42
102
}
330
42
100
AcDbScale
 70
     0
300
4:1
140
4.0
141
1.0
290
     0
  0
SCALE
  5
B3
102
{ACAD_REACTORS
330
42
102
}
330
42
100
AcDbScale
 70
     0
300
8:1
140
8.0
141
1.0
290
     0
  0
SCALE
  5
B4
102
{ACAD_REACTORS
330
42
102
}
330
42
100
AcDbScale
 70
     0
300
10:1
140
10.0
141
1.0
290
     0
  0
SCALE
  5
B5
102
{ACAD_REACTORS
330
42
102
}
330
42
100
AcDbScale
 70
     0
300
100:1
140
100.0
141
1.0
290
     0
  0
SCALE
  5
A7
102
{ACAD_REACTORS
330
42
102
}
330
42
100
AcDbScale
 70
     0
300
1:4
140
1.0
141
4.0
290
     0
  0
SCALE
  5
A8
102
{ACAD_REACTORS
330
42
102
}
330
42
100
AcDbScale
 70
     0
300
1:5
140
1.0
141
5.0
290
     0
  0
SCALE
  5
A9
102
{ACAD_REACTORS
330
42
102
}
330
42
100
AcDbScale
 70
     0
300
1:8
140
1.0
141
8.0
290
     0
  0
SCALE
  5
AA
102
{ACAD_REACTORS
330
42
102
}
330
42
100
AcDbScale
 70
     0
300
1:10
140
1.0
141
10.0
290
     0
  0
SCALE
  5
AB
102
{ACAD_REACTORS
330
42
102
}
330
42
100
AcDbScale
 70
     0
300
1:16
140
1.0
141
16.0
290
     0
  0
SCALE
  5
AC
102
{ACAD_REACTORS
330
42
102
}
330
42
100
AcDbScale
 70
     0
300
1:20
140
1.0
141
20.0
290
     0
  0
SCALE
  5
AD
102
{ACAD_REACTORS
330
42
102
}
330
42
100
AcDbScale
 70
     0
300
1:30
140
1.0
141
30.0
290
     0
  0
SCALE
  5
AE
102
{ACAD_REACTORS
330
42
102
}
330
42
100
AcDbScale
 70
     0
300
1:40
140
1.0
141
40.0
290
     0
  0
SCALE
  5
43
102
{ACAD_REACTORS
330
42
102
}
330
42
100
AcDbScale
 70
     0
300
1:1
140
1.0
141
1.0
290
     1
  0
SCALE
  5
44
102
{ACAD_REACTORS
330
42
102
}
330
42
100
AcDbScale
 70
     0
300
1/128" = 1'-0"
140
0.007813
141
12.0
290
     0
  0
SCALE
  5
45
102
{ACAD_REACTORS
330
42
102
}
330
42
100
AcDbScale
 70
     0
300
1/64" = 1'-0"
140
0.015625
141
12.0
290
     0
  0
SCALE
  5
46
102
{ACAD_REACTORS
330
42
102
}
330
42
100
AcDbScale
 70
     0
300
1/32" = 1'-0"
140
0.03125
141
12.0
290
     0
  0
SCALE
  5
47
102
{ACAD_REACTORS
330
42
102
}
330
42
100
AcDbScale
 70
     0
300
1/16" = 1'-0"
140
0.0625
141
12.0
290
     0
  0
SCALE
  5
48
102
{ACAD_REACTORS
330
42
102
}
330
42
100
AcDbScale
 70
     0
300
3/32" = 1'-0"
140
0.09375
141
12.0
290
     0
  0
SCALE
  5
49
102
{ACAD_REACTORS
330
42
102
}
330
42
100
AcDbScale
 70
     0
300
1/8" = 1'-0"
140
0.125
141
12.0
290
     0
  0
SCALE
  5
4A
102
{ACAD_REACTORS
330
42
102
}
330
42
100
AcDbScale
 70
     0
300
3/16" = 1'-0"
140
0.1875
141
12.0
290
     0
  0
SCALE
  5
4B
102
{ACAD_REACTORS
330
42
102
}
330
42
100
AcDbScale
 70
     0
300
1/4" = 1'-0"
140
0.25
141
12.0
290
     0
  0
SCALE
  5
4C
102
{ACAD_REACTORS
330
42
102
}
330
42
100
AcDbScale
 70
     0
300
3/8" = 1'-0"
140
0.375
141
12.0
290
     0
  0
SCALE
  5
4D
102
{ACAD_REACTORS
330
42
102
}
330
42
100
AcDbScale
 70
     0
300
1/2" = 1'-0"
140
0.5
141
12.0
290
     0
  0
SCALE
  5
4E
102
{ACAD_REACTORS
330
42
102
}
330
42
100
AcDbScale
 70
     0
300
3/4" = 1'-0"
140
0.75
141
12.0
290
     0
  0
SCALE
  5
4F
102
{ACAD_REACTORS
330
42
102
}
330
42
100
AcDbScale
 70
     0
300
1" = 1'-0"
140
1.0
141
12.0
290
     0
  0
SCALE
  5
50
102
{ACAD_REACTORS
330
42
102
}
330
42
100
AcDbScale
 70
     0
300
1-1/2" = 1'-0"
140
1.5
141
12.0
290
     0
  0
SCALE
  5
51
102
{ACAD_REACTORS
330
42
102
}
330
42
100
AcDbScale
 70
     0
300
3" = 1'-0"
140
3.0
141
12.0
290
     0
  0
SCALE
  5
52
102
{ACAD_REACTORS
330
42
102
}
330
42
100
AcDbScale
 70
     0
300
6" = 1'-0"
140
6.0
141
12.0
290
     0
  0
SCALE
  5
53
102
{ACAD_REACTORS
330
42
102
}
330
42
100
AcDbScale
 70
     0
300
1'-0" = 1'-0"
140
12.0
141
12.0
290
     0
  0
ACDBSECTIONVIEWSTYLE
  5
69
102
{ACAD_XDICTIONARY
360
44A
102
}
102
{ACAD_REACTORS
330
68
102
}
330
68
100
AcDbModelDocViewStyle
 70
     0
  3
Imperial24
290
     0
100
AcDbSectionViewStyle
 70
     0
 71
     0
 90
       78
 71
     1
340
55
 62
   256
 40
0.24
340
0
340
0
 62
   256
 40
0.24
300
I, O, Q, S, X, Z
 40
0.48
 90
        3
 40
0.18
 90
        1
 71
     2
340
5D
 90
       25
 62
   256
340
5D
 90
       50
 62
   256
 40
0.24
 40
0.0
 40
0.24
 71
     3
340
55
 62
   256
 40
0.24
 90
        1
 40
0.75
 90
        1
300
%<\AcVar ViewType \f "%tc1">% %<\AcVar ViewSectionStartId>%-%<\AcVar ViewSectionEndId>%\PSCALE %<\AcVar ViewScale \f "%sn">%
 71
     4
 62
   256
 62
   257
300
ANSI31
 40
1.0
 90
        0
290
     0
290
     0
 90
        6
 40
0.0
 40
1.570796
 40
0.261799
 40
1.308997
 40
-0.261799
 40
1.832596
  0
TABLESTYLE
  5
65
102
{ACAD_XDICTIONARY
360
447
102
}
102
{ACAD_REACTORS
330
64
102
}
330
64
100
AcDbTableStyle
280
     0
  3
Standard
 70
     0
 71
     0
 40
0.06
 41
0.06
280
     0
281
     0
  7
Standard
140
0.18
170
     2
 62
     0
 63
     7
283
     0
 90
      512
 91
        0
  1

274
    -2
284
     1
 64
     0
275
    -2
285
     1
 65
     0
276
    -2
286
     1
 66
     0
277
    -2
287
     1
 67
     0
278
    -2
288
     1
 68
     0
279
    -2
289
     1
 69
     0
  7
Standard
140
0.25
170
     5
 62
     0
 63
     7
283
     0
 90
      512
 91
        0
  1

274
    -2
284
     1
 64
     0
275
    -2
285
     1
 65
     0
276
    -2
286
     1
 66
     0
277
    -2
287
     1
 67
     0
278
    -2
288
     1
 68
     0
279
    -2
289
     1
 69
     0
  7
Standard
140
0.18
170
     5
 62
     0
 63
     7
283
     0
 90
      512
 91
        0
  1

274
    -2
284
     1
 64
     0
275
    -2
285
     1
 65
     0
276
    -2
286
     1
 66
     0
277
    -2
287
     1
 67
     0
278
    -2
288
     1
 68
     0
279
    -2
289
     1
 69
     0
  0
VISUALSTYLE
  5
2F
102
{ACAD_REACTORS
330
29
102
}
330
29
100
AcDbVisualStyle
  2
2dWireframe
 70
     4
177
     3
291
     0
 70
    58
 90
        0
176
     1
 90
        2
176
     1
 90
        0
176
     1
 90
        0
176
     1
 40
0.6
176
     1
 40
30.0
176
     1
 62
     7
420
 16777215
176
     1
 90
        1
176
     1
 90
        4
176
     1
 62
     7
176
     1
 62
   257
176
     1
 90
        1
176
     1
 90
        1
176
     1
 40
1.0
176
     1
 90
        0
176
     1
 62
   257
176
     1
 40
1.0
176
     1
 90
        1
176
     1
 90
        6
176
     1
 90
        2
176
     1
 62
     7
176
     1
 90
        5
176
     1
 90
        0
176
     1
 90
        0
176
     1
290
     0
176
     1
 90
        1
176
     1
 40
0.0
176
     1
 90
        0
176
     1
290
     1
176
     1
290
     1
176
     1
290
     0
176
     1
290
     0
176
     1
290
     0
176
     1
290
     0
176
     1
290
     0
176
     1
290
     0
176
     1
290
     0
176
     1
 90
       50
176
     1
 40
0.0
176
     1
 40
1.0
176
     1
 90
        0
176
     1
 62
    18
420
        0
176
     1
 90
       50
176
     1
 90
        3
176
     1
 62
     5
420
      255
176
     1
290
     0
176
     1
 90
       50
176
     1
 90
       50
176
     1
 90
       50
176
     1
290
     0
176
     1
 90
       50
176
     1
 62
   256
176
     0
 40
1.0
176
     0
 90
        2
176
     1
  1
strokes_ogs.tif
176
     1
290
     0
176
     1
 40
1.0
176
     1
 40
1.0
176
     1
1001
ACAD
1000
AcDbSavedByObjectVersion
1070
     0
  0
VISUALSTYLE
  5
2E
102
{ACAD_REACTORS
330
29
102
}
330
29
100
AcDbVisualStyle
  2
Basic
 70
     7
177
     3
291
     1
 70
    58
 90
        1
176
     1
 90
        0
176
     1
 90
        1
176
     1
 90
        0
176
     1
 40
0.6
176
     1
 40
30.0
176
     1
 62
     7
420
 16777215
176
     1
 90
        0
176
     1
 90
        4
176
     1
 62
     7
176
     1
 62
   257
176
     1
 90
        1
176
     1
 90
        1
176
     1
 40
1.0
176
     1
 90
        8
176
     1
 62
     7
176
     1
 40
1.0
176
     1
 90
        1
176
     1
 90
        6
176
     1
 90
        2
176
     1
 62
     7
176
     1
 90
        5
176
     1
 90
        0
176
     1
 90
        0
176
     1
290
     0
176
     1
 90
        1
176
     1
 40
0.0
176
     1
 90
        0
176
     1
290
     0
176
     1
290
     1
176
     1
290
     1
176
     1
290
     0
176
     1
290
     0
176
     1
290
     0
176
     1
290
     0
176
     1
290
     0
176
     1
290
     0
176
     1
 90
       50
176
     1
 40
0.0
176
     1
 40
1.0
176
     1
 90
        0
176
     1
 62
    18
420
        0
176
     1
 90
       50
176
     1
 90
        3
176
     1
 62
     5
420
      255
176
     1
290
     0
176
     1
 90
       50
176
     1
 90
       50
176
     1
 90
       50
176
     1
290
     0
176
     1
 90
       50
176
     1
 62
   256
176
     0
 40
1.0
176
     0
 90
        2
176
     1
  1
strokes_ogs.tif
176
     1
290
     0
176
     1
 40
1.0
176
     1
 40
1.0
176
     1
1001
ACAD
1000
AcDbSavedByObjectVersion
1070
     0
  0
VISUALSTYLE
  5
35
102
{ACAD_REACTORS
330
29
102
}
330
29
100
AcDbVisualStyle
  2
Brighten
 70
    12
177
     3
291
     1
 70
    58
 90
        2
176
     1
 90
        2
176
     1
 90
        0
176
     1
 90
        0
176
     1
 40
0.6
176
     1
 40
30.0
176
     1
 62
     7
420
 16777215
176
     1
 90
        1
176
     1
 90
        4
176
     1
 62
     7
176
     1
 62
   257
176
     1
 90
        1
176
     1
 90
        1
176
     1
 40
1.0
176
     1
 90
        8
176
     1
 62
     7
176
     1
 40
1.0
176
     1
 90
        1
176
     1
 90
        6
176
     1
 90
        2
176
     1
 62
     7
176
     1
 90
        5
176
     1
 90
        0
176
     1
 90
        0
176
     1
290
     0
176
     1
 90
        1
176
     1
 40
50.0
176
     1
 90
        0
176
     1
290
     0
176
     1
290
     1
176
     1
290
     1
176
     1
290
     0
176
     1
290
     0
176
     1
290
     0
176
     1
290
     0
176
     1
290
     0
176
     1
290
     0
176
     1
 90
       50
176
     1
 40
0.0
176
     1
 40
1.0
176
     1
 90
        0
176
     1
 62
    18
420
        0
176
     1
 90
       50
176
     1
 90
        3
176
     1
 62
     5
420
      255
176
     1
290
     0
176
     1
 90
       50
176
     1
 90
       50
176
     1
 90
       50
176
     1
290
     0
176
     1
 90
       50
176
     1
 62
   256
176
     0
 40
1.0
176
     0
 90
        2
176
     1
  1
strokes_ogs.tif
176
     1
290
     0
176
     1
 40
1.0
176
     1
 40
1.0
176
     1
1001
ACAD
1000
AcDbSavedByObjectVersion
1070
     0
  0
VISUALSTYLE
  5
39
102
{ACAD_REACTORS
330
29
102
}
330
29
100
AcDbVisualStyle
  2
ColorChange
 70
    16
177
     3
291
     1
 70
    58
 90
        2
176
     1
 90
        2
176
     1
 90
        3
176
     1
 90
        0
176
     1
 40
0.6
176
     1
 40
30.0
176
     1
 62
     8
420
  8421504
176
     1
 90
        1
176
     1
 90
        4
176
     1
 62
     7
176
     1
 62
   257
176
     1
 90
        1
176
     1
 90
        1
176
     1
 40
1.0
176
     1
 90
        8
176
     1
 62
     8
420
  8421504
176
     1
 40
1.0
176
     1
 90
        1
176
     1
 90
        6
176
     1
 90
        2
176
     1
 62
     7
176
     1
 90
        5
176
     1
 90
        0
176
     1
 90
        0
176
     1
290
     0
176
     1
 90
        1
176
     1
 40
0.0
176
     1
 90
        0
176
     1
290
     0
176
     1
290
     1
176
     1
290
     1
176
     1
290
     0
176
     1
290
     0
176
     1
290
     0
176
     1
290
     0
176
     1
290
     0
176
     1
290
     0
176
     1
 90
       50
176
     1
 40
0.0
176
     1
 40
1.0
176
     1
 90
        0
176
     1
 62
    18
420
        0
176
     1
 90
       50
176
     1
 90
        3
176
     1
 62
     5
420
      255
176
     1
290
     0
176
     1
 90
       50
176
     1
 90
       50
176
     1
 90
       50
176
     1
290
     0
176
     1
 90
       50
176
     1
 62
   256
176
     0
 40
1.0
176
     0
 90
        2
176
     1
  1
strokes_ogs.tif
176
     1
290
     0
176
     1
 40
1.0
176
     1
 40
1.0
176
     1
1001
ACAD
1000
AcDbSavedByObjectVersion
1070
     0
  0
VISUALSTYLE
  5
32
102
{ACAD_REACTORS
330
29
102
}
330
29
100
AcDbVisualStyle
  2
Conceptual
 70
     9
177
     3
291
     0
 70
    58
 90
        3
176
     1
 90
        2
176
     1
 90
        0
176
     1
 90
        0
176
     1
 40
0.6
176
     1
 40
30.0
176
     1
 62
     7
420
 16777215
176
     1
 90
        2
176
     1
 90
        2
176
     1
 62
     7
176
     1
 62
   257
176
     1
 90
        1
176
     1
 90
        1
176
     1
 40
179.0
176
     1
 90
        8
176
     1
 62
     7
176
     1
 40
1.0
176
     1
 90
        1
176
     1
 90
        6
176
     1
 90
        2
176
     1
 62
     7
176
     1
 90
        3
176
     1
 90
        0
176
     1
 90
        0
176
     1
290
     0
176
     1
 90
        1
176
     1
 40
0.0
176
     1
 90
        0
176
     1
290
     0
176
     1
290
     1
176
     1
290
     1
176
     1
290
     0
176
     1
290
     0
176
     1
290
     0
176
     1
290
     0
176
     1
290
     0
176
     1
290
     0
176
     1
 90
       50
176
     1
 40
0.0
176
     1
 40
1.0
176
     1
 90
        0
176
     1
 62
    18
420
        0
176
     1
 90
       50
176
     1
 90
        3
176
     1
 62
     5
420
      255
176
     1
290
     0
176
     1
 90
       50
176
     1
 90
       50
176
     1
 90
       50
176
     1
290
     0
176
     1
 90
       50
176
     1
 62
   256
176
     0
 40
1.0
176
     0
 90
        2
176
     1
  1
strokes_ogs.tif
176
     1
290
     0
176
     1
 40
1.0
176
     1
 40
1.0
176
     1
1001
ACAD
1000
AcDbSavedByObjectVersion
1070
     0
  0
VISUALSTYLE
  5
34
102
{ACAD_REACTORS
330
29
102
}
330
29
100
AcDbVisualStyle
  2
Dim
 70
    11
177
     3
291
     1
 70
    58
 90
        2
176
     1
 90
        2
176
     1
 90
        0
176
     1
 90
        0
176
     1
 40
0.6
176
     1
 40
30.0
176
     1
 62
     7
420
 16777215
176
     1
 90
        1
176
     1
 90
        4
176
     1
 62
     7
176
     1
 62
   257
176
     1
 90
        1
176
     1
 90
        1
176
     1
 40
1.0
176
     1
 90
        8
176
     1
 62
     7
176
     1
 40
1.0
176
     1
 90
        1
176
     1
 90
        6
176
     1
 90
        2
176
     1
 62
     7
176
     1
 90
        5
176
     1
 90
        0
176
     1
 90
        0
176
     1
290
     0
176
     1
 90
        1
176
     1
 40
-50.0
176
     1
 90
        0
176
     1
290
     0
176
     1
290
     1
176
     1
290
     1
176
     1
290
     0
176
     1
290
     0
176
     1
290
     0
176
     1
290
     0
176
     1
290
     0
176
     1
290
     0
176
     1
 90
       50
176
     1
 40
0.0
176
     1
 40
1.0
176
     1
 90
        0
176
     1
 62
    18
420
        0
176
     1
 90
       50
176
     1
 90
        3
176
     1
 62
     5
420
      255
176
     1
290
     0
176
     1
 90
       50
176
     1
 90
       50
176
     1
 90
       50
176
     1
290
     0
176
     1
 90
       50
176
     1
 62
   256
176
     0
 40
1.0
176
     0
 90
        2
176
     1
  1
strokes_ogs.tif
176
     1
290
     0
176
     1
 40
1.0
176
     1
 40
1.0
176
     1
1001
ACAD
1000
AcDbSavedByObjectVersion
1070
     0
  0
VISUALSTYLE
  5
41
102
{ACAD_REACTORS
330
29
102
}
330
29
100
AcDbVisualStyle
  2
EdgeColorOff
 70
    22
177
     3
291
     1
 70
    58
 90
        2
176
     0
 90
        2
176
     0
 90
        0
176
     0
 90
        0
176
     0
 40
0.6
176
     0
 40
30.0
176
     0
 62
     7
420
 16777215
176
     0
 90
        1
176
     0
 90
        4
176
     0
 62
     7
176
     0
 62
   257
176
     0
 90
        1
176
     0
 90
        1
176
     0
 40
1.0
176
     0
 90
        8
176
     2
 62
     7
176
     0
 40
1.0
176
     0
 90
        1
176
     0
 90
        6
176
     0
 90
        2
176
     0
 62
     7
176
     0
 90
        5
176
     0
 90
        0
176
     0
 90
        0
176
     0
290
     0
176
     0
 90
        1
176
     0
 40
0.0
176
     0
 90
        0
176
     0
290
     0
176
     0
290
     1
176
     0
290
     1
176
     0
290
     0
176
     0
290
     0
176
     0
290
     0
176
     0
290
     0
176
     0
290
     0
176
     0
290
     0
176
     0
 90
       50
176
     0
 40
0.0
176
     0
 40
1.0
176
     0
 90
        0
176
     0
 62
    18
420
        0
176
     0
 90
       50
176
     0
 90
        3
176
     0
 62
     5
420
      255
176
     0
290
     0
176
     0
 90
       50
176
     0
 90
       50
176
     0
 90
       50
176
     0
290
     0
176
     0
 90
       50
176
     0
 62
   256
176
     0
 40
1.0
176
     0
 90
        2
176
     0
  1
strokes_ogs.tif
176
     0
290
     0
176
     0
 40
1.0
176
     0
 40
1.0
176
     0
1001
ACAD
1000
AcDbSavedByObjectVersion
1070
     0
  0
VISUALSTYLE
  5
38
102
{ACAD_REACTORS
330
29
102
}
330
29
100
AcDbVisualStyle
  2
Facepattern
 70
    15
177
     3
291
     1
 70
    58
 90
        2
176
     1
 90
        2
176
     1
 90
        0
176
     1
 90
        0
176
     1
 40
0.6
176
     1
 40
30.0
176
     1
 62
     7
420
 16777215
176
     1
 90
        1
176
     1
 90
        4
176
     1
 62
     7
176
     1
 62
   257
176
     1
 90
        1
176
     1
 90
        1
176
     1
 40
1.0
176
     1
 90
        8
176
     1
 62
     7
176
     1
 40
1.0
176
     1
 90
        1
176
     1
 90
        6
176
     1
 90
        2
176
     1
 62
     7
176
     1
 90
        5
176
     1
 90
        0
176
     1
 90
        0
176
     1
290
     0
176
     1
 90
        1
176
     1
 40
0.0
176
     1
 90
        0
176
     1
290
     0
176
     1
290
     1
176
     1
290
     1
176
     1
290
     0
176
     1
290
     0
176
     1
290
     0
176
     1
290
     0
176
     1
290
     0
176
     1
290
     0
176
     1
 90
       50
176
     1
 40
0.0
176
     1
 40
1.0
176
     1
 90
        0
176
     1
 62
    18
420
        0
176
     1
 90
       50
176
     1
 90
        3
176
     1
 62
     5
420
      255
176
     1
290
     0
176
     1
 90
       50
176
     1
 90
       50
176
     1
 90
       50
176
     1
290
     0
176
     1
 90
       50
176
     1
 62
   256
176
     0
 40
1.0
176
     0
 90
        2
176
     1
  1
strokes_ogs.tif
176
     1
290
     0
176
     1
 40
1.0
176
     1
 40
1.0
176
     1
1001
ACAD
1000
AcDbSavedByObjectVersion
1070
     0
  0
VISUALSTYLE
  5
2A
102
{ACAD_REACTORS
330
29
102
}
330
29
100
AcDbVisualStyle
  2
Flat
 70
     0
177
     3
291
     1
 70
    58
 90
        2
176
     1
 90
        1
176
     1
 90
        1
176
     1
 90
        2
176
     1
 40
0.6
176
     1
 40
30.0
176
     1
 62
     7
420
 16777215
176
     1
 90
        0
176
     1
 90
        0
176
     1
 62
     7
176
     1
 62
   257
176
     1
 90
        1
176
     1
 90
        1
176
     1
 40
1.0
176
     1
 90
        8
176
     1
 62
     7
176
     1
 40
1.0
176
     1
 90
        1
176
     1
 90
        6
176
     1
 90
        2
176
     1
 62
     7
176
     1
 90
        5
176
     1
 90
        0
176
     1
 90
        0
176
     1
290
     0
176
     1
 90
       13
176
     1
 40
0.0
176
     1
 90
        0
176
     1
290
     0
176
     1
290
     1
176
     1
290
     1
176
     1
290
     0
176
     1
290
     0
176
     1
290
     0
176
     1
290
     0
176
     1
290
     0
176
     1
290
     0
176
     1
 90
       50
176
     1
 40
0.0
176
     1
 40
1.0
176
     1
 90
        0
176
     1
 62
    18
420
        0
176
     1
 90
       50
176
     1
 90
        3
176
     1
 62
     5
420
      255
176
     1
290
     0
176
     1
 90
       50
176
     1
 90
       50
176
     1
 90
       50
176
     1
290
     0
176
     1
 90
       50
176
     1
 62
   256
176
     0
 40
1.0
176
     0
 90
        2
176
     1
  1
strokes_ogs.tif
176
     1
290
     0
176
     1
 40
1.0
176
     1
 40
1.0
176
     1
1001
ACAD
1000
AcDbSavedByObjectVersion
1070
     0
  0
VISUALSTYLE
  5
2B
102
{ACAD_REACTORS
330
29
102
}
330
29
100
AcDbVisualStyle
  2
FlatWithEdges
 70
     1
177
     3
291
     1
 70
    58
 90
        2
176
     1
 90
        1
176
     1
 90
        1
176
     1
 90
        2
176
     1
 40
0.6
176
     1
 40
30.0
176
     1
 62
     7
420
 16777215
176
     1
 90
        1
176
     1
 90
        0
176
     1
 62
     7
176
     1
 62
   257
176
     1
 90
        1
176
     1
 90
        1
176
     1
 40
1.0
176
     1
 90
        0
176
     1
 62
   257
176
     1
 40
1.0
176
     1
 90
        1
176
     1
 90
        6
176
     1
 90
        2
176
     1
 62
     7
176
     1
 90
        5
176
     1
 90
        0
176
     1
 90
        0
176
     1
290
     0
176
     1
 90
       13
176
     1
 40
0.0
176
     1
 90
        0
176
     1
290
     0
176
     1
290
     1
176
     1
290
     1
176
     1
290
     0
176
     1
290
     0
176
     1
290
     0
176
     1
290
     0
176
     1
290
     0
176
     1
290
     0
176
     1
 90
       50
176
     1
 40
0.0
176
     1
 40
1.0
176
     1
 90
        0
176
     1
 62
    18
420
        0
176
     1
 90
       50
176
     1
 90
        3
176
     1
 62
     5
420
      255
176
     1
290
     0
176
     1
 90
       50
176
     1
 90
       50
176
     1
 90
       50
176
     1
290
     0
176
     1
 90
       50
176
     1
 62
   256
176
     0
 40
1.0
176
     0
 90
        2
176
     1
  1
strokes_ogs.tif
176
     1
290
     0
176
     1
 40
1.0
176
     1
 40
1.0
176
     1
1001
ACAD
1000
AcDbSavedByObjectVersion
1070
     0
  0
VISUALSTYLE
  5
2C
102
{ACAD_REACTORS
330
29
102
}
330
29
100
AcDbVisualStyle
  2
Gouraud
 70
     2
177
     3
291
     1
 70
    58
 90
        2
176
     1
 90
        2
176
     1
 90
        1
176
     1
 90
        2
176
     1
 40
0.6
176
     1
 40
30.0
176
     1
 62
     7
420
 16777215
176
     1
 90
        0
176
     1
 90
        0
176
     1
 62
     7
176
     1
 62
   257
176
     1
 90
        1
176
     1
 90
        1
176
     1
 40
1.0
176
     1
 90
        0
176
     1
 62
     7
176
     1
 40
1.0
176
     1
 90
        1
176
     1
 90
        6
176
     1
 90
        2
176
     1
 62
     7
176
     1
 90
        5
176
     1
 90
        0
176
     1
 90
        0
176
     1
290
     0
176
     1
 90
       13
176
     1
 40
0.0
176
     1
 90
        0
176
     1
290
     0
176
     1
290
     1
176
     1
290
     1
176
     1
290
     0
176
     1
290
     0
176
     1
290
     0
176
     1
290
     0
176
     1
290
     0
176
     1
290
     0
176
     1
 90
       50
176
     1
 40
0.0
176
     1
 40
1.0
176
     1
 90
        0
176
     1
 62
    18
420
        0
176
     1
 90
       50
176
     1
 90
        3
176
     1
 62
     5
420
      255
176
     1
290
     0
176
     1
 90
       50
176
     1
 90
       50
176
     1
 90
       50
176
     1
290
     0
176
     1
 90
       50
176
     1
 62
   256
176
     0
 40
1.0
176
     0
 90
        2
176
     1
  1
strokes_ogs.tif
176
     1
290
     0
176
     1
 40
1.0
176
     1
 40
1.0
176
     1
1001
ACAD
1000
AcDbSavedByObjectVersion
1070
     0
  0
VISUALSTYLE
  5
2D
102
{ACAD_REACTORS
330
29
102
}
330
29
100
AcDbVisualStyle
  2
GouraudWithEdges
 70
     3
177
     3
291
     1
 70
    58
 90
        2
176
     1
 90
        2
176
     1
 90
        1
176
     1
 90
        2
176
     1
 40
0.6
176
     1
 40
30.0
176
     1
 62
     7
420
 16777215
176
     1
 90
        1
176
     1
 90
        0
176
     1
 62
     7
176
     1
 62
   257
176
     1
 90
        1
176
     1
 90
        1
176
     1
 40
1.0
176
     1
 90
        0
176
     1
 62
   257
176
     1
 40
1.0
176
     1
 90
        1
176
     1
 90
        6
176
     1
 90
        2
176
     1
 62
     7
176
     1
 90
        5
176
     1
 90
        0
176
     1
 90
        0
176
     1
290
     0
176
     1
 90
       13
176
     1
 40
0.0
176
     1
 90
        0
176
     1
290
     0
176
     1
290
     1
176
     1
290
     1
176
     1
290
     0
176
     1
290
     0
176
     1
290
     0
176
     1
290
     0
176
     1
290
     0
176
     1
290
     0
176
     1
 90
       50
176
     1
 40
0.0
176
     1
 40
1.0
176
     1
 90
        0
176
     1
 62
    18
420
        0
176
     1
 90
       50
176
     1
 90
        3
176
     1
 62
     5
420
      255
176
     1
290
     0
176
     1
 90
       50
176
     1
 90
       50
176
     1
 90
       50
176
     1
290
     0
176
     1
 90
       50
176
     1
 62
   256
176
     0
 40
1.0
176
     0
 90
        2
176
     1
  1
strokes_ogs.tif
176
     1
290
     0
176
     1
 40
1.0
176
     1
 40
1.0
176
     1
1001
ACAD
1000
AcDbSavedByObjectVersion
1070
     0
  0
VISUALSTYLE
  5
31
102
{ACAD_REACTORS
330
29
102
}
330
29
100
AcDbVisualStyle
  2
Hidden
 70
     6
177
     3
291
     0
 70
    58
 90
        1
176
     1
 90
        2
176
     1
 90
        2
176
     1
 90
        0
176
     1
 40
0.6
176
     1
 40
30.0
176
     1
 62
     7
420
 16777215
176
     1
 90
        2
176
     1
 90
        2
176
     1
 62
     7
176
     1
 62
   257
176
     1
 90
        2
176
     1
 90
        1
176
     1
 40
40.0
176
     1
 90
        0
176
     1
 62
   257
176
     1
 40
1.0
176
     1
 90
        1
176
     1
 90
        6
176
     1
 90
        2
176
     1
 62
     7
176
     1
 90
        3
176
     1
 90
        0
176
     1
 90
        0
176
     1
290
     0
176
     1
 90
        1
176
     1
 40
0.0
176
     1
 90
        0
176
     1
290
     0
176
     1
290
     1
176
     1
290
     1
176
     1
290
     0
176
     1
290
     0
176
     1
290
     0
176
     1
290
     0
176
     1
290
     0
176
     1
290
     0
176
     1
 90
       50
176
     1
 40
0.0
176
     1
 40
1.0
176
     1
 90
        0
176
     1
 62
    18
420
        0
176
     1
 90
       50
176
     1
 90
        3
176
     1
 62
     5
420
      255
176
     1
290
     0
176
     1
 90
       50
176
     1
 90
       50
176
     1
 90
       50
176
     1
290
     0
176
     1
 90
       50
176
     1
 62
   256
176
     0
 40
1.0
176
     0
 90
        2
176
     1
  1
strokes_ogs.tif
176
     1
290
     0
176
     1
 40
1.0
176
     1
 40
1.0
176
     1
1001
ACAD
1000
AcDbSavedByObjectVersion
1070
     0
  0
VISUALSTYLE
  5
3F
102
{ACAD_REACTORS
330
29
102
}
330
29
100
AcDbVisualStyle
  2
JitterOff
 70
    20
177
     3
291
     1
 70
    58
 90
        2
176
     0
 90
        2
176
     0
 90
        0
176
     0
 90
        0
176
     0
 40
0.6
176
     0
 40
30.0
176
     0
 62
     7
420
 16777215
176
     0
 90
        1
176
     0
 90
        4
176
     0
 62
     7
176
     0
 62
   257
176
     0
 90
        1
176
     0
 90
        1
176
     0
 40
1.0
176
     0
 90
       10
176
     2
 62
     7
176
     0
 40
1.0
176
     0
 90
        1
176
     0
 90
        6
176
     0
 90
        2
176
     0
 62
     7
176
     0
 90
        5
176
     0
 90
        0
176
     0
 90
        0
176
     0
290
     0
176
     0
 90
        1
176
     0
 40
0.0
176
     0
 90
        0
176
     0
290
     0
176
     0
290
     1
176
     0
290
     1
176
     0
290
     0
176
     0
290
     0
176
     0
290
     0
176
     0
290
     0
176
     0
290
     0
176
     0
290
     0
176
     0
 90
       50
176
     0
 40
0.0
176
     0
 40
1.0
176
     0
 90
        0
176
     0
 62
    18
420
        0
176
     0
 90
       50
176
     0
 90
        3
176
     0
 62
     5
420
      255
176
     0
290
     0
176
     0
 90
       50
176
     0
 90
       50
176
     0
 90
       50
176
     0
290
     0
176
     0
 90
       50
176
     0
 62
   256
176
     0
 40
1.0
176
     0
 90
        2
176
     0
  1
strokes_ogs.tif
176
     0
290
     0
176
     0
 40
1.0
176
     0
 40
1.0
176
     0
1001
ACAD
1000
AcDbSavedByObjectVersion
1070
     0
  0
VISUALSTYLE
  5
37
102
{ACAD_REACTORS
330
29
102
}
330
29
100
AcDbVisualStyle
  2
Linepattern
 70
    14
177
     3
291
     1
 70
    58
 90
        2
176
     1
 90
        2
176
     1
 90
        0
176
     1
 90
        0
176
     1
 40
0.6
176
     1
 40
30.0
176
     1
 62
     7
420
 16777215
176
     1
 90
        1
176
     1
 90
        4
176
     1
 62
     7
176
     1
 62
   257
176
     1
 90
        7
176
     1
 90
        7
176
     1
 40
1.0
176
     1
 90
        8
176
     1
 62
     7
176
     1
 40
1.0
176
     1
 90
        1
176
     1
 90
        6
176
     1
 90
        2
176
     1
 62
     7
176
     1
 90
        5
176
     1
 90
        0
176
     1
 90
        0
176
     1
290
     0
176
     1
 90
        1
176
     1
 40
0.0
176
     1
 90
        0
176
     1
290
     0
176
     1
290
     1
176
     1
290
     1
176
     1
290
     0
176
     1
290
     0
176
     1
290
     0
176
     1
290
     0
176
     1
290
     0
176
     1
290
     0
176
     1
 90
       50
176
     1
 40
0.0
176
     1
 40
1.0
176
     1
 90
        0
176
     1
 62
    18
420
        0
176
     1
 90
       50
176
     1
 90
        3
176
     1
 62
     5
420
      255
176
     1
290
     0
176
     1
 90
       50
176
     1
 90
       50
176
     1
 90
       50
176
     1
290
     0
176
     1
 90
       50
176
     1
 62
   256
176
     0
 40
1.0
176
     0
 90
        2
176
     1
  1
strokes_ogs.tif
176
     1
290
     0
176
     1
 40
1.0
176
     1
 40
1.0
176
     1
1001
ACAD
1000
AcDbSavedByObjectVersion
1070
     0
  0
VISUALSTYLE
  5
40
102
{ACAD_REACTORS
330
29
102
}
330
29
100
AcDbVisualStyle
  2
OverhangOff
 70
    21
177
     3
291
     1
 70
    58
 90
        2
176
     0
 90
        2
176
     0
 90
        0
176
     0
 90
        0
176
     0
 40
0.6
176
     0
 40
30.0
176
     0
 62
     7
420
 16777215
176
     0
 90
        1
176
     0
 90
        4
176
     0
 62
     7
176
     0
 62
   257
176
     0
 90
        1
176
     0
 90
        1
176
     0
 40
1.0
176
     0
 90
        9
176
     2
 62
     7
176
     0
 40
1.0
176
     0
 90
        1
176
     0
 90
        6
176
     0
 90
        2
176
     0
 62
     7
176
     0
 90
        5
176
     0
 90
        0
176
     0
 90
        0
176
     0
290
     0
176
     0
 90
        1
176
     0
 40
0.0
176
     0
 90
        0
176
     0
290
     0
176
     0
290
     1
176
     0
290
     1
176
     0
290
     0
176
     0
290
     0
176
     0
290
     0
176
     0
290
     0
176
     0
290
     0
176
     0
290
     0
176
     0
 90
       50
176
     0
 40
0.0
176
     0
 40
1.0
176
     0
 90
        0
176
     0
 62
    18
420
        0
176
     0
 90
       50
176
     0
 90
        3
176
     0
 62
     5
420
      255
176
     0
290
     0
176
     0
 90
       50
176
     0
 90
       50
176
     0
 90
       50
176
     0
290
     0
176
     0
 90
       50
176
     0
 62
   256
176
     0
 40
1.0
176
     0
 90
        2
176
     0
  1
strokes_ogs.tif
176
     0
290
     0
176
     0
 40
1.0
176
     0
 40
1.0
176
     0
1001
ACAD
1000
AcDbSavedByObjectVersion
1070
     0
  0
VISUALSTYLE
  5
33
102
{ACAD_REACTORS
330
29
102
}
330
29
100
AcDbVisualStyle
  2
Realistic
 70
     8
177
     3
291
     0
 70
    58
 90
        2
176
     1
 90
        3
176
     1
 90
        0
176
     1
 90
        2
176
     1
 40
0.6
176
     1
 40
30.0
176
     1
 62
     7
420
 16777215
176
     1
 90
        0
176
     1
 90
        0
176
     1
 62
     7
176
     1
 62
   257
176
     1
 90
        1
176
     1
 90
        1
176
     1
 40
1.0
176
     1
 90
        8
176
     1
 62
   257
176
     1
 40
1.0
176
     1
 90
        1
176
     1
 90
        6
176
     1
 90
        2
176
     1
 62
     7
176
     1
 90
        3
176
     1
 90
        0
176
     1
 90
        0
176
     1
290
     0
176
     1
 90
       13
176
     1
 40
0.0
176
     1
 90
        0
176
     1
290
     0
176
     1
290
     1
176
     1
290
     1
176
     1
290
     0
176
     1
290
     0
176
     1
290
     0
176
     1
290
     0
176
     1
290
     0
176
     1
290
     0
176
     1
 90
       50
176
     1
 40
0.0
176
     1
 40
1.0
176
     1
 90
        0
176
     1
 62
    18
420
        0
176
     1
 90
       50
176
     1
 90
        3
176
     1
 62
     5
420
      255
176
     1
290
     0
176
     1
 90
       50
176
     1
 90
       50
176
     1
 90
       50
176
     1
290
     0
176
     1
 90
       50
176
     1
 62
   256
176
     0
 40
1.0
176
     0
 90
        2
176
     1
  1
strokes_ogs.tif
176
     1
290
     0
176
     1
 40
1.0
176
     1
 40
1.0
176
     1
1001
ACAD
1000
AcDbSavedByObjectVersion
1070
     0
  0
VISUALSTYLE
  5
3E
102
{ACAD_REACTORS
330
29
102
}
330
29
100
AcDbVisualStyle
  2
Shaded
 70
    27
177
     3
291
     0
 70
    58
 90
        2
176
     1
 90
        2
176
     1
 90
        1
176
     1
 90
        2
176
     1
 40
0.6
176
     1
 40
30.0
176
     1
 62
     7
420
 16777215
176
     1
 90
        0
176
     1
 90
        4
176
     1
 62
     7
176
     1
 62
   257
176
     1
 90
        1
176
     1
 90
        1
176
     1
 40
1.0
176
     1
 90
        8
176
     1
 62
   257
176
     1
 40
1.0
176
     1
 90
        1
176
     1
 90
        6
176
     1
 90
        2
176
     1
 62
     8
420
  7895160
176
     1
 90
        3
176
     1
 90
        0
176
     1
 90
        0
176
     1
290
     0
176
     1
 90
        5
176
     1
 40
0.0
176
     1
 90
        0
176
     1
290
     0
176
     1
290
     1
176
     1
290
     1
176
     1
290
     0
176
     1
290
     0
176
     1
290
     0
176
     1
290
     0
176
     1
290
     0
176
     1
290
     0
176
     1
 90
       50
176
     1
 40
0.0
176
     1
 40
1.0
176
     1
 90
        0
176
     1
 62
    18
420
        0
176
     1
 90
       50
176
     1
 90
        3
176
     1
 62
     5
420
      255
176
     1
290
     0
176
     1
 90
       50
176
     1
 90
       50
176
     1
 90
       50
176
     1
290
     0
176
     1
 90
       50
176
     1
 62
   256
176
     0
 40
1.0
176
     0
 90
        2
176
     1
  1
strokes_ogs.tif
176
     1
290
     0
176
     1
 40
1.0
176
     1
 40
1.0
176
     1
1001
ACAD
1000
AcDbSavedByObjectVersion
1070
     0
  0
VISUALSTYLE
  5
3D
102
{ACAD_REACTORS
330
29
102
}
330
29
100
AcDbVisualStyle
  2
Shaded with edges
 70
    26
177
     3
291
     0
 70
    58
 90
        2
176
     1
 90
        2
176
     1
 90
        1
176
     1
 90
        2
176
     1
 40
0.6
176
     1
 40
30.0
176
     1
 62
     7
420
 16777215
176
     1
 90
        1
176
     1
 90
        2
176
     1
 62
     7
176
     1
 62
   257
176
     1
 90
        2
176
     1
 90
        1
176
     1
 40
1.0
176
     1
 90
        8
176
     1
 62
   257
176
     1
 40
1.0
176
     1
 90
        1
176
     1
 90
        6
176
     1
 90
        2
176
     1
 62
     7
176
     1
 90
        3
176
     1
 90
        0
176
     1
 90
        0
176
     1
290
     0
176
     1
 90
        5
176
     1
 40
0.0
176
     1
 90
        0
176
     1
290
     0
176
     1
290
     1
176
     1
290
     1
176
     1
290
     0
176
     1
290
     0
176
     1
290
     0
176
     1
290
     0
176
     1
290
     0
176
     1
290
     0
176
     1
 90
       50
176
     1
 40
0.0
176
     1
 40
1.0
176
     1
 90
        0
176
     1
 62
    18
420
        0
176
     1
 90
       50
176
     1
 90
        3
176
     1
 62
     5
420
      255
176
     1
290
     0
176
     1
 90
       50
176
     1
 90
       50
176
     1
 90
       50
176
     1
290
     0
176
     1
 90
       50
176
     1
 62
   256
176
     0
 40
1.0
176
     0
 90
        2
176
     1
  1
strokes_ogs.tif
176
     1
290
     0
176
     1
 40
1.0
176
     1
 40
1.0
176
     1
1001
ACAD
1000
AcDbSavedByObjectVersion
1070
     0
  0
VISUALSTYLE
  5
3A
102
{ACAD_REACTORS
330
29
102
}
330
29
100
AcDbVisualStyle
  2
Shades of Gray
 70
    23
177
     3
291
     0
 70
    58
 90
        2
176
     1
 90
        2
176
     1
 90
        3
176
     1
 90
        0
176
     1
 40
0.6
176
     1
 40
30.0
176
     1
 62
     7
420
 16777215
176
     1
 90
        2
176
     1
 90
        2
176
     1
 62
     7
176
     1
 62
     7
176
     1
 90
        1
176
     1
 90
        1
176
     1
 40
40.0
176
     1
 90
        8
176
     1
 62
     7
176
     1
 40
1.0
176
     1
 90
        1
176
     1
 90
        6
176
     1
 90
        2
176
     1
 62
     7
176
     1
 90
        3
176
     1
 90
        0
176
     1
 90
        0
176
     1
290
     0
176
     1
 90
        1
176
     1
 40
0.0
176
     1
 90
        0
176
     1
290
     0
176
     1
290
     1
176
     1
290
     1
176
     1
290
     0
176
     1
290
     0
176
     1
290
     0
176
     1
290
     0
176
     1
290
     0
176
     1
290
     0
176
     1
 90
       50
176
     1
 40
0.0
176
     1
 40
1.0
176
     1
 90
        0
176
     1
 62
    18
420
        0
176
     1
 90
       50
176
     1
 90
        3
176
     1
 62
     5
420
      255
176
     1
290
     0
176
     1
 90
       50
176
     1
 90
       50
176
     1
 90
       50
176
     1
290
     0
176
     1
 90
       50
176
     1
 62
   256
176
     0
 40
1.0
176
     0
 90
        2
176
     1
  1
strokes_ogs.tif
176
     1
290
     0
176
     1
 40
1.0
176
     1
 40
1.0
176
     1
1001
ACAD
1000
AcDbSavedByObjectVersion
1070
     0
  0
VISUALSTYLE
  5
3B
102
{ACAD_REACTORS
330
29
102
}
330
29
100
AcDbVisualStyle
  2
Sketchy
 70
    24
177
     3
291
     0
 70
    58
 90
        1
176
     1
 90
        2
176
     1
 90
        2
176
     1
 90
        0
176
     1
 40
0.6
176
     1
 40
30.0
176
     1
 62
     7
420
 16777215
176
     1
 90
        2
176
     1
 90
        2
176
     1
 62
     7
176
     1
 62
     7
176
     1
 90
        1
176
     1
 90
        1
176
     1
 40
40.0
176
     1
 90
       11
176
     1
 62
     7
176
     1
 40
1.0
176
     1
 90
        1
176
     1
 90
        6
176
     1
 90
        2
176
     1
 62
     7
176
     1
 90
        6
176
     1
 90
        0
176
     1
 90
        0
176
     1
290
     0
176
     1
 90
        1
176
     1
 40
0.0
176
     1
 90
        0
176
     1
290
     0
176
     1
290
     1
176
     1
290
     1
176
     1
290
     0
176
     1
290
     0
176
     1
290
     0
176
     1
290
     0
176
     1
290
     0
176
     1
290
     0
176
     1
 90
       50
176
     1
 40
0.0
176
     1
 40
1.0
176
     1
 90
        0
176
     1
 62
    18
420
        0
176
     1
 90
       50
176
     1
 90
        3
176
     1
 62
     5
420
      255
176
     1
290
     0
176
     1
 90
       50
176
     1
 90
       50
176
     1
 90
       50
176
     1
290
     0
176
     1
 90
       50
176
     1
 62
   256
176
     0
 40
1.0
176
     0
 90
        2
176
     1
  1
strokes_ogs.tif
176
     1
290
     0
176
     1
 40
1.0
176
     1
 40
1.0
176
     1
1001
ACAD
1000
AcDbSavedByObjectVersion
1070
     0
  0
VISUALSTYLE
  5
36
102
{ACAD_REACTORS
330
29
102
}
330
29
100
AcDbVisualStyle
  2
Thicken
 70
    13
177
     3
291
     1
 70
    58
 90
        2
176
     1
 90
        2
176
     1
 90
        0
176
     1
 90
        0
176
     1
 40
0.6
176
     1
 40
30.0
176
     1
 62
     7
420
 16777215
176
     1
 90
        1
176
     1
 90
        4
176
     1
 62
     7
176
     1
 62
   257
176
     1
 90
        1
176
     1
 90
        1
176
     1
 40
1.0
176
     1
 90
       12
176
     1
 62
     7
176
     1
 40
1.0
176
     1
 90
        1
176
     1
 90
        6
176
     1
 90
        2
176
     1
 62
     7
176
     1
 90
        5
176
     1
 90
        0
176
     1
 90
        0
176
     1
290
     0
176
     1
 90
        1
176
     1
 40
0.0
176
     1
 90
        0
176
     1
290
     0
176
     1
290
     1
176
     1
290
     1
176
     1
290
     0
176
     1
290
     0
176
     1
290
     0
176
     1
290
     0
176
     1
290
     0
176
     1
290
     0
176
     1
 90
       50
176
     1
 40
0.0
176
     1
 40
1.0
176
     1
 90
        0
176
     1
 62
    18
420
        0
176
     1
 90
       50
176
     1
 90
        3
176
     1
 62
     5
420
      255
176
     1
290
     0
176
     1
 90
       50
176
     1
 90
       50
176
     1
 90
       50
176
     1
290
     0
176
     1
 90
       50
176
     1
 62
   256
176
     0
 40
1.0
176
     0
 90
        2
176
     1
  1
strokes_ogs.tif
176
     1
290
     0
176
     1
 40
1.0
176
     1
 40
1.0
176
     1
1001
ACAD
1000
AcDbSavedByObjectVersion
1070
     0
  0
VISUALSTYLE
  5
30
102
{ACAD_REACTORS
330
29
102
}
330
29
100
AcDbVisualStyle
  2
Wireframe
 70
     5
177
     3
291
     0
 70
    58
 90
        0
176
     1
 90
        2
176
     1
 90
        0
176
     1
 90
        0
176
     1
 40
0.6
176
     1
 40
30.0
176
     1
 62
     7
420
 16777215
176
     1
 90
        1
176
     1
 90
        4
176
     1
 62
     7
176
     1
 62
   257
176
     1
 90
        1
176
     1
 90
        1
176
     1
 40
1.0
176
     1
 90
        0
176
     1
 62
   257
176
     1
 40
1.0
176
     1
 90
        1
176
     1
 90
        6
176
     1
 90
        2
176
     1
 62
     7
176
     1
 90
        3
176
     1
 90
        0
176
     1
 90
        0
176
     1
290
     0
176
     1
 90
        1
176
     1
 40
0.0
176
     1
 90
        0
176
     1
290
     0
176
     1
290
     1
176
     1
290
     1
176
     1
290
     0
176
     1
290
     0
176
     1
290
     0
176
     1
290
     0
176
     1
290
     0
176
     1
290
     0
176
     1
 90
       50
176
     1
 40
0.0
176
     1
 40
1.0
176
     1
 90
        0
176
     1
 62
    18
420
        0
176
     1
 90
       50
176
     1
 90
        3
176
     1
 62
     5
420
      255
176
     1
290
     0
176
     1
 90
       50
176
     1
 90
       50
176
     1
 90
       50
176
     1
290
     0
176
     1
 90
       50
176
     1
 62
   256
176
     0
 40
1.0
176
     0
 90
        2
176
     1
  1
strokes_ogs.tif
176
     1
290
     0
176
     1
 40
1.0
176
     1
 40
1.0
176
     1
1001
ACAD
1000
AcDbSavedByObjectVersion
1070
     0
  0
VISUALSTYLE
  5
3C
102
{ACAD_REACTORS
330
29
102
}
330
29
100
AcDbVisualStyle
  2
X-Ray
 70
    25
177
     3
291
     0
 70
    58
 90
        2
176
     1
 90
        2
176
     1
 90
        1
176
     1
 90
        1
176
     1
 40
0.5
176
     1
 40
30.0
176
     1
 62
     7
420
 16777215
176
     1
 90
        1
176
     1
 90
        0
176
     1
 62
     7
176
     1
 62
   257
176
     1
 90
        1
176
     1
 90
        1
176
     1
 40
1.0
176
     1
 90
        8
176
     1
 62
     7
176
     1
 40
1.0
176
     1
 90
        1
176
     1
 90
        6
176
     1
 90
        2
176
     1
 62
     7
176
     1
 90
        3
176
     1
 90
        0
176
     1
 90
        0
176
     1
290
     0
176
     1
 90
       13
176
     1
 40
0.0
176
     1
 90
        0
176
     1
290
     0
176
     1
290
     1
176
     1
290
     1
176
     1
290
     0
176
     1
290
     0
176
     1
290
     0
176
     1
290
     0
176
     1
290
     0
176
     1
290
     0
176
     1
 90
       50
176
     1
 40
0.0
176
     1
 40
1.0
176
     1
 90
        0
176
     1
 62
    18
420
        0
176
     1
 90
       50
176
     1
 90
        3
176
     1
 62
     5
420
      255
176
     1
290
     0
176
     1
 90
       50
176
     1
 90
       50
176
     1
 90
       50
176
     1
290
     0
176
     1
 90
       50
176
     1
 62
   256
176
     0
 40
1.0
176
     0
 90
        2
176
     1
  1
strokes_ogs.tif
176
     1
290
     0
176
     1
 40
1.0
176
     1
 40
1.0
176
     1
1001
ACAD
1000
AcDbSavedByObjectVersion
1070
     0
  0
DICTIONARYVAR
  5
445
102
{ACAD_REACTORS
330
440
102
}
330
440
100
DictionaryVariables
280
     0
  1
0
  0
DICTIONARYVAR
  5
446
102
{ACAD_REACTORS
330
440
102
}
330
440
100
DictionaryVariables
280
     0
  1
1:1
  0
DICTIONARYVAR
  5
442
102
{ACAD_REACTORS
330
440
102
}
330
440
100
DictionaryVariables
280
     0
  1
STANDARD
  0
DICTIONARYVAR
  5
441
102
{ACAD_REACTORS
330
440
102
}
330
440
100
DictionaryVariables
280
     0
  1
STANDARD
  0
DICTIONARYVAR
  5
443
102
{ACAD_REACTORS
330
440
102
}
330
440
100
DictionaryVariables
280
     0
  1
Imperial24
  0
DICTIONARYVAR
  5
444
102
{ACAD_REACTORS
330
440
102
}
330
440
100
DictionaryVariables
280
     0
  1
Imperial24
  0
DICTIONARY
  5
44C
330
6B
100
AcDbDictionary
280
     1
281
     1
  3
ACAD_XREC_ROUNDTRIP
360
44D
  0
DICTIONARY
  5
1A
330
19
100
AcDbDictionary
280
     1
281
     1
  3
BUMPTILE
360
1C
  3
DIFFUSETILE
360
1B
  3
OPACITYTILE
360
1F
  3
REFLECTIONTILE
360
1E
  3
REFRACTIONTILE
360
20
  3
SPECULARTILE
360
1D
  0
DICTIONARY
  5
12
330
11
100
AcDbDictionary
280
     1
281
     1
  3
BUMPTILE
360
14
  3
DIFFUSETILE
360
13
  3
OPACITYTILE
360
17
  3
REFLECTIONTILE
360
16
  3
REFRACTIONTILE
360
18
  3
SPECULARTILE
360
15
  0
DICTIONARY
  5
22
330
21
100
AcDbDictionary
280
     1
281
     1
  3
BUMPTILE
360
24
  3
DIFFUSETILE
360
23
  3
OPACITYTILE
360
27
  3
REFLECTIONTILE
360
26
  3
REFRACTIONTILE
360
28
  3
SPECULARTILE
360
25
  0
DICTIONARY
  5
44A
330
69
100
AcDbDictionary
280
     1
281
     1
  3
ACAD_XREC_ROUNDTRIP
360
44B
  0
DICTIONARY
  5
447
330
65
100
AcDbDictionary
280
     1
281
     1
  3
ACAD_ROUNDTRIP_2008_TABLESTYLE_CELLSTYLEMAP
360
448
  0
XRECORD
  5
44D
102
{ACAD_REACTORS
330
44C
102
}
330
44C
100
AcDbXrecord
280
     1
102
DISPLAYNAME
  1
Imperial24
102
FLAGS
 90
        0
  0
XRECORD
  5
1C
102
{ACAD_REACTORS
330
1A
102
}
330
1A
100
AcDbXrecord
280
     1
270
     1
271
     1
  0
XRECORD
  5
1B
102
{ACAD_REACTORS
330
1A
102
}
330
1A
100
AcDbXrecord
280
     1
270
     1
271
     1
  0
XRECORD
  5
1F
102
{ACAD_REACTORS
330
1A
102
}
330
1A
100
AcDbXrecord
280
     1
270
     1
271
     1
  0
XRECORD
  5
1E
102
{ACAD_REACTORS
330
1A
102
}
330
1A
100
AcDbXrecord
280
     1
270
     1
271
     1
  0
XRECORD
  5
20
102
{ACAD_REACTORS
330
1A
102
}
330
1A
100
AcDbXrecord
280
     1
270
     1
271
     1
  0
XRECORD
  5
1D
102
{ACAD_REACTORS
330
1A
102
}
330
1A
100
AcDbXrecord
280
     1
270
     1
271
     1
  0
XRECORD
  5
14
102
{ACAD_REACTORS
330
12
102
}
330
12
100
AcDbXrecord
280
     1
270
     1
271
     1
  0
XRECORD
  5
13
102
{ACAD_REACTORS
330
12
102
}
330
12
100
AcDbXrecord
280
     1
270
     1
271
     1
  0
XRECORD
  5
17
102
{ACAD_REACTORS
330
12
102
}
330
12
100
AcDbXrecord
280
     1
270
     1
271
     1
  0
XRECORD
  5
16
102
{ACAD_REACTORS
330
12
102
}
330
12
100
AcDbXrecord
280
     1
270
     1
271
     1
  0
XRECORD
  5
18
102
{ACAD_REACTORS
330
12
102
}
330
12
100
AcDbXrecord
280
     1
270
     1
271
     1
  0
XRECORD
  5
15
102
{ACAD_REACTORS
330
12
102
}
330
12
100
AcDbXrecord
280
     1
270
     1
271
     1
  0
XRECORD
  5
24
102
{ACAD_REACTORS
330
22
102
}
330
22
100
AcDbXrecord
280
     1
270
     1
271
     1
  0
XRECORD
  5
23
102
{ACAD_REACTORS
330
22
102
}
330
22
100
AcDbXrecord
280
     1
270
     1
271
     1
  0
XRECORD
  5
27
102
{ACAD_REACTORS
330
22
102
}
330
22
100
AcDbXrecord
280
     1
270
     1
271
     1
  0
XRECORD
  5
26
102
{ACAD_REACTORS
330
22
102
}
330
22
100
AcDbXrecord
280
     1
270
     1
271
     1
  0
XRECORD
  5
28
102
{ACAD_REACTORS
330
22
102
}
330
22
100
AcDbXrecord
280
     1
270
     1
271
     1
  0
XRECORD
  5
25
102
{ACAD_REACTORS
330
22
102
}
330
22
100
AcDbXrecord
280
     1
270
     1
271
     1
  0
XRECORD
  5
44B
102
{ACAD_REACTORS
330
44A
102
}
330
44A
100
AcDbXrecord
280
     1
102
DISPLAYNAME
  1
Imperial24
102
FLAGS
 90
        0
  0
CELLSTYLEMAP
  5
448
102
{ACAD_REACTORS
330
447
102
}
330
447
100
AcDbCellStyleMap
 90
        3
300
CELLSTYLE
  1
TABLEFORMAT_BEGIN
 90
        5
170
     1
 91
        0
 92
    32768
 62
   257
 93
        1
300
CONTENTFORMAT
  1
CONTENTFORMAT_BEGIN
 90
        0
 91
        0
 92
      512
 93
        0
300

 40
0.0
140
1.0
 94
        5
 62
     0
340
55
144
0.25
309
CONTENTFORMAT_END
171
     0
 94
        0
309
TABLEFORMAT_END
  1
CELLSTYLE_BEGIN
 90
        1
 91
        1
300
_TITLE
309
CELLSTYLE_END
300
CELLSTYLE
  1
TABLEFORMAT_BEGIN
 90
        5
170
     1
 91
        0
 92
        0
 62
   257
 93
        1
300
CONTENTFORMAT
  1
CONTENTFORMAT_BEGIN
 90
        0
 91
        0
 92
      512
 93
        0
300

 40
0.0
140
1.0
 94
        5
 62
     0
340
55
144
0.18
309
CONTENTFORMAT_END
171
     0
 94
        0
309
TABLEFORMAT_END
  1
CELLSTYLE_BEGIN
 90
        2
 91
        1
300
_HEADER
309
CELLSTYLE_END
300
CELLSTYLE
  1
TABLEFORMAT_BEGIN
 90
        5
170
     1
 91
        0
 92
        0
 62
   257
 93
        1
300
CONTENTFORMAT
  1
CONTENTFORMAT_BEGIN
 90
        0
 91
        0
 92
      512
 93
        0
300

 40
0.0
140
1.0
 94
        2
 62
     0
340
55
144
0.18
309
CONTENTFORMAT_END
171
     0
 94
        0
309
TABLEFORMAT_END
  1
CELLSTYLE_BEGIN
 90
        3
 91
        2
300
_DATA
309
CELLSTYLE_END
  0
ENDSEC
  0
EOF
