0
SECTION
2
HEADER
9
$INSUNITS
70
4
9
$ACADVER
1
AC1014
9
$HANDSEED
5
FFFF
0
ENDSEC
0
SECTION
2
TABLES
0
TABLE
2
VPORT
5
8
100
AcDbSymbolTable
0
ENDTAB
0
TABLE
2
LTYPE
5
5
100
AcDbSymbolTable
0
LTYPE
5
14
100
AcDbSymbolTableRecord
100
AcDbLinetypeTableRecord
2
BYBLOCK
70
0
0
LTYPE
5
15
100
AcDbSymbolTableRecord
100
AcDbLinetypeTableRecord
2
BYLAYER
70
0
0
ENDTAB
0
TABLE
2
LAYER
5
2
100
AcDbSymbolTable
70
2
0
LAYER
5
50
100
AcDbSymbolTableRecord
100
AcDbLayerTableRecord
2
0
70
0
6
CONTINUOUS
0
ENDTAB
0
TABLE
2
STYLE
5
3
100
AcDbSymbolTable
70
1
0
STYLE
5
11
100
AcDbSymbolTableRecord
100
AcDbTextStyleTableRecord
2
STANDARD
70
0
0
ENDTAB
0
TABLE
2
VIEW
5
6
100
AcDbSymbolTable
70
0
0
ENDTAB
0
TABLE
2
UCS
5
7
100
AcDbSymbolTable
70
0
0
ENDTAB
0
TABLE
2
APPID
5
9
100
AcDbSymbolTable
70
2
0
APPID
5
12
100
AcDbSymbolTableRecord
100
AcDbRegAppTableRecord
2
ACAD
70
0
0
ENDTAB
0
TABLE
2
DIMSTYLE
5
A
100
AcDbSymbolTable
70
1
0
ENDTAB
0
TABLE
2
BLOCK_RECORD
5
1
100
AcDbSymbolTable
70
1
0
BLOCK_RECORD
5
1F
100
AcDbSymbolTableRecord
100
AcDbBlockTableRecord
2
*MODEL_SPACE
0
BLOCK_RECORD
5
1B
100
AcDbSymbolTableRecord
100
AcDbBlockTableRecord
2
*PAPER_SPACE
0
ENDTAB
0
ENDSEC
0
SECTION
2
BLOCKS
0
BLOCK
5
20
100
AcDbEntity
100
AcDbBlockBegin
2
*MODEL_SPACE
0
ENDBLK
5
21
100
AcDbEntity
100
AcDbBlockEnd
0
BLOCK
5
1C
100
AcDbEntity
100
AcDbBlockBegin
2
*PAPER_SPACE
0
ENDBLK
5
1D
100
AcDbEntity
100
AcDbBlockEnd
0
ENDSEC
0
SECTION
2
ENTITIES
0
CIRCLE
5
100
100
AcDbEntity
8
0
100
AcDbCircle
10
0
20
0
30
0
40
1.5000000000000002
210
0
220
0
230
1
0
LWPOLYLINE
5
101
100
AcDbEntity
8
0
100
AcDbPolyline
90
2
70
1
43
0.0
10
29.296616175566381
20
-31.105122234698129
42
-0.32802358662195374
10
31.105122234698133
20
-29.296616175566378
42
-0.55989842341819218
0
LINE
5
102
100
AcDbEntity
8
0
100
AcDbLine
10
41.465500000000006
20
-33.465499999998841
30
0
11
41.465500000000006
21
20.536083579329155
31
1.3684555315672037e-47
0
ARC
5
103
100
AcDbEntity
8
0
100
AcDbCircle
10
36.385500000000242
20
20.536083579329141
30
0
40
5.0799999999997603
210
-2.6938101015103703e-48
220
-7.0647165322790184e-63
230
1
100
AcDbArc
50
0
51
21.385738711883103
0
LINE
5
104
100
AcDbEntity
8
0
100
AcDbLine
10
41.115724764571127
20
22.388480317783941
30
0
11
36.499380332039777
21
34.176639033051323
31
0
0
ARC
5
105
100
AcDbEntity
8
0
100
AcDbCircle
10
31.769155567468719
20
32.324242294596466
30
0
40
5.0799999999999486
210
0
220
-0
230
1
100
AcDbArc
50
21.385738711882983
51
61.993562443497282
0
LINE
5
106
100
AcDbEntity
8
0
100
AcDbLine
10
34.154575052519128
20
36.809348077110549
30
0
11
26.518530099863611
21
40.870605782514119
31
0
0
ARC
5
107
100
AcDbEntity
8
0
100
AcDbCircle
10
24.133110614813194
20
36.385500000000107
30
0
40
5.0799999999998846
210
0
220
-0
230
1
100
AcDbArc
50
61.99356244349682
51
90.000000000000398
0
LINE
5
108
100
AcDbEntity
8
0
100
AcDbLine
10
24.133110614813159
20
41.465499999999992
30
0
11
-24.123126321187613
21
41.465500000000006
31
0
0
ARC
5
109
100
AcDbEntity
8
0
100
AcDbCircle
10
-24.123126321187613
20
36.385499999999951
30
0
40
5.0800000000000534
210
0
220
-0
230
1
100
AcDbArc
50
90
51
118.21837196672016
0
LINE
5
110
100
AcDbEntity
8
0
100
AcDbLine
10
-26.525119646106027
20
40.861751564316677
30
0
11
-33.616610754161577
21
37.056399237594157
31
0
0
ARC
5
111
100
AcDbEntity
8
0
100
AcDbCircle
10
-31.769155567468694
20
32.324242294596466
30
0
40
5.0799999999999725
210
0
220
0
230
1
100
AcDbArc
50
111.32589542015836
51
158.61426128811718
0
LINE
5
112
100
AcDbEntity
8
0
100
AcDbLine
10
-36.49938033203977
20
34.176639033051316
30
0
11
-41.115724764571127
21
22.388480317783941
31
0
0
ARC
5
113
100
AcDbEntity
8
0
100
AcDbCircle
10
-36.385500000000313
20
20.536083579329173
30
0
40
5.0799999999996901
210
0
220
0
230
1
100
AcDbArc
50
158.61426128811695
51
180
0
LINE
5
114
100
AcDbEntity
8
0
100
AcDbLine
10
-41.465499999999992
20
20.536083579329159
30
0
11
-41.465500000000013
21
-20.536083579329159
31
0
0
ARC
5
115
100
AcDbEntity
8
0
100
AcDbCircle
10
-36.385500000000306
20
-20.536083579329144
30
0
40
5.079999999999707
210
0
220
0
230
1
100
AcDbArc
50
180
51
201.38573871188333
0
LINE
5
116
100
AcDbEntity
8
0
100
AcDbLine
10
-41.115724764571127
20
-22.388480317783941
30
0
11
-36.499380332039777
21
-34.176639033051323
31
0
0
ARC
5
117
100
AcDbEntity
8
0
100
AcDbCircle
10
-31.769155567468708
20
-32.324242294596473
30
0
40
5.0799999999999566
210
0
220
0
230
1
100
AcDbArc
50
201.38573871188285
51
248.67410457984167
0
LINE
5
118
100
AcDbEntity
8
0
100
AcDbLine
10
-33.616610754161584
20
-37.056399237594157
30
0
11
-23.213917911402365
21
-41.117656942997741
31
0
0
ARC
5
119
100
AcDbEntity
8
0
100
AcDbCircle
10
-21.366462724709532
20
-36.385500000000086
30
0
40
5.079999999999921
210
0
220
0
230
1
100
AcDbArc
50
248.67410457984204
51
269.9999999999996
0
LINE
5
120
100
AcDbEntity
8
0
100
AcDbLine
10
-21.366462724709564
20
-41.465500000000006
30
0
11
-1.4999999999999991
21
-41.465500000000006
31
0
0
LINE
5
121
100
AcDbEntity
8
0
100
AcDbLine
10
-1.4999999999999991
20
-41.465500000000006
30
0
11
-1.499999999999998
21
-39.621616574794118
31
0
0
ARC
5
122
100
AcDbEntity
8
0
100
AcDbCircle
10
1.2725931419765857e-13
20
-9.9096078565175105e-16
30
0
40
39.649999999999999
210
0
220
0
230
1
100
AcDbArc
50
-87.831924773878583
51
267.83192477387826
0
LINE
5
123
100
AcDbEntity
8
0
100
AcDbLine
10
1.5000000000000202
20
-39.621616574794125
30
0
11
1.5000000000000002
21
-41.465500000000006
31
0
0
LINE
5
124
100
AcDbEntity
8
0
100
AcDbLine
10
1.5000000000000002
20
-41.465500000000006
30
0
11
33.465499999998805
21
-41.465500000000006
31
0
0
ARC
5
125
100
AcDbEntity
8
0
100
AcDbCircle
10
33.465499999998805
20
-33.465499999998841
30
0
40
8.0000000000011653
210
-0
220
0
230
1
100
AcDbArc
50
-90
51
0
0
CIRCLE
5
126
100
AcDbEntity
8
0
100
AcDbCircle
10
-36.960000000000001
20
18.760000000000005
30
0
40
1
210
0
220
-0
230
1
0
CIRCLE
5
127
100
AcDbEntity
8
0
100
AcDbCircle
10
-18.760000000000005
20
-36.960000000000001
30
0
40
1
210
0
220
-0
230
1
0
CIRCLE
5
128
100
AcDbEntity
8
0
100
AcDbCircle
10
18.760000000000002
20
36.960000000000001
30
0
40
1
210
0
220
-0
230
1
0
CIRCLE
5
129
100
AcDbEntity
8
0
100
AcDbCircle
10
36.960000000000001
20
18.760000000000005
30
0
40
1
210
0
220
-0
230
1
0
CIRCLE
5
130
100
AcDbEntity
8
0
100
AcDbCircle
10
-36.960000000000001
20
-18.760000000000005
30
0
40
1
210
0
220
-0
230
1
0
CIRCLE
5
131
100
AcDbEntity
8
0
100
AcDbCircle
10
-18.760000000000005
20
36.960000000000001
30
0
40
1
210
0
220
-0
230
1
0
CIRCLE
5
132
100
AcDbEntity
8
0
100
AcDbCircle
10
-31.430896423742041
20
31.430896423742034
30
0
40
2.1589999999999998
210
-0
220
0
230
1
0
CIRCLE
5
133
100
AcDbEntity
8
0
100
AcDbCircle
10
-31.430896423742052
20
-31.430896423742034
30
0
40
2.1589999999999998
210
-0
220
0
230
1
0
CIRCLE
5
134
100
AcDbEntity
8
0
100
AcDbCircle
10
31.430896423742038
20
31.430896423746987
30
0
40
2.1589999999999998
210
-0
220
0
230
1
0
LINE
5
135
100
AcDbEntity
8
0
100
AcDbLine
10
-1.499999999999998
20
-39.621616574794118
30
0
11
1.5000000000000202
21
-39.621616574794125
31
0
0
LINE
5
136
100
AcDbEntity
8
0
100
AcDbLine
10
41.465500000000006
20
-33.465499999998841
30
0
11
41.465500000000006
21
20.536083579329155
31
1.3684555315672037e-47
0
ARC
5
137
100
AcDbEntity
8
0
100
AcDbCircle
10
36.385500000000242
20
20.536083579329141
30
0
40
5.0799999999997603
210
-2.6938101015103703e-48
220
-7.0647165322790184e-63
230
1
100
AcDbArc
50
0
51
21.385738711883103
0
LINE
5
138
100
AcDbEntity
8
0
100
AcDbLine
10
41.115724764571127
20
22.388480317783941
30
0
11
36.499380332039777
21
34.176639033051323
31
0
0
ARC
5
139
100
AcDbEntity
8
0
100
AcDbCircle
10
31.769155567468719
20
32.324242294596466
30
0
40
5.0799999999999486
210
0
220
-0
230
1
100
AcDbArc
50
21.385738711882983
51
61.993562443497282
0
LINE
5
140
100
AcDbEntity
8
0
100
AcDbLine
10
34.154575052519128
20
36.809348077110549
30
0
11
26.518530099863611
21
40.870605782514119
31
0
0
ARC
5
141
100
AcDbEntity
8
0
100
AcDbCircle
10
24.133110614813194
20
36.385500000000107
30
0
40
5.0799999999998846
210
0
220
-0
230
1
100
AcDbArc
50
61.99356244349682
51
90.000000000000398
0
LINE
5
142
100
AcDbEntity
8
0
100
AcDbLine
10
24.133110614813159
20
41.465499999999992
30
0
11
-24.123126321187613
21
41.465500000000006
31
0
0
ARC
5
143
100
AcDbEntity
8
0
100
AcDbCircle
10
-24.123126321187613
20
36.385499999999951
30
0
40
5.0800000000000534
210
0
220
-0
230
1
100
AcDbArc
50
90
51
118.21837196672016
0
LINE
5
144
100
AcDbEntity
8
0
100
AcDbLine
10
-26.525119646106027
20
40.861751564316677
30
0
11
-33.616610754161577
21
37.056399237594157
31
0
0
ARC
5
145
100
AcDbEntity
8
0
100
AcDbCircle
10
-31.769155567468694
20
32.324242294596466
30
0
40
5.0799999999999725
210
0
220
0
230
1
100
AcDbArc
50
111.32589542015836
51
158.61426128811718
0
LINE
5
146
100
AcDbEntity
8
0
100
AcDbLine
10
-36.49938033203977
20
34.176639033051316
30
0
11
-41.115724764571127
21
22.388480317783941
31
0
0
ARC
5
147
100
AcDbEntity
8
0
100
AcDbCircle
10
-36.385500000000313
20
20.536083579329173
30
0
40
5.0799999999996901
210
0
220
0
230
1
100
AcDbArc
50
158.61426128811695
51
180
0
LINE
5
148
100
AcDbEntity
8
0
100
AcDbLine
10
-41.465499999999992
20
20.536083579329159
30
0
11
-41.465500000000013
21
-20.536083579329159
31
0
0
ARC
5
149
100
AcDbEntity
8
0
100
AcDbCircle
10
-36.385500000000306
20
-20.536083579329144
30
0
40
5.079999999999707
210
0
220
0
230
1
100
AcDbArc
50
180
51
201.38573871188333
0
LINE
5
150
100
AcDbEntity
8
0
100
AcDbLine
10
-41.115724764571127
20
-22.388480317783941
30
0
11
-36.499380332039777
21
-34.176639033051323
31
0
0
ARC
5
151
100
AcDbEntity
8
0
100
AcDbCircle
10
-31.769155567468708
20
-32.324242294596473
30
0
40
5.0799999999999566
210
0
220
0
230
1
100
AcDbArc
50
201.38573871188285
51
248.67410457984167
0
LINE
5
152
100
AcDbEntity
8
0
100
AcDbLine
10
-33.616610754161584
20
-37.056399237594157
30
0
11
-23.213917911402365
21
-41.117656942997741
31
0
0
ARC
5
153
100
AcDbEntity
8
0
100
AcDbCircle
10
-21.366462724709532
20
-36.385500000000086
30
0
40
5.079999999999921
210
0
220
0
230
1
100
AcDbArc
50
248.67410457984204
51
269.9999999999996
0
LINE
5
154
100
AcDbEntity
8
0
100
AcDbLine
10
-21.366462724709564
20
-41.465500000000006
30
0
11
-1.4999999999999991
21
-41.465500000000006
31
0
0
LINE
5
155
100
AcDbEntity
8
0
100
AcDbLine
10
-1.4999999999999991
20
-41.465500000000006
30
0
11
-1.499999999999998
21
-39.621616574794118
31
0
0
ARC
5
156
100
AcDbEntity
8
0
100
AcDbCircle
10
1.2725931419765857e-13
20
-9.9096078565175105e-16
30
0
40
39.649999999999999
210
0
220
0
230
1
100
AcDbArc
50
-87.831924773878583
51
267.83192477387826
0
LINE
5
157
100
AcDbEntity
8
0
100
AcDbLine
10
1.5000000000000202
20
-39.621616574794125
30
0
11
1.5000000000000002
21
-41.465500000000006
31
0
0
LINE
5
158
100
AcDbEntity
8
0
100
AcDbLine
10
1.5000000000000002
20
-41.465500000000006
30
0
11
33.465499999998805
21
-41.465500000000006
31
0
0
ARC
5
159
100
AcDbEntity
8
0
100
AcDbCircle
10
33.465499999998805
20
-33.465499999998841
30
0
40
8.0000000000011653
210
-0
220
0
230
1
100
AcDbArc
50
-90
51
0
0
CIRCLE
5
160
100
AcDbEntity
8
0
100
AcDbCircle
10
-36.960000000000001
20
18.760000000000005
30
0
40
1
210
0
220
-0
230
1
0
CIRCLE
5
161
100
AcDbEntity
8
0
100
AcDbCircle
10
-18.760000000000005
20
-36.960000000000001
30
0
40
1
210
0
220
-0
230
1
0
CIRCLE
5
162
100
AcDbEntity
8
0
100
AcDbCircle
10
18.760000000000002
20
36.960000000000001
30
0
40
1
210
0
220
-0
230
1
0
CIRCLE
5
163
100
AcDbEntity
8
0
100
AcDbCircle
10
36.960000000000001
20
18.760000000000005
30
0
40
1
210
0
220
-0
230
1
0
CIRCLE
5
164
100
AcDbEntity
8
0
100
AcDbCircle
10
-36.960000000000001
20
-18.760000000000005
30
0
40
1
210
0
220
-0
230
1
0
CIRCLE
5
165
100
AcDbEntity
8
0
100
AcDbCircle
10
-18.760000000000005
20
36.960000000000001
30
0
40
1
210
0
220
-0
230
1
0
CIRCLE
5
166
100
AcDbEntity
8
0
100
AcDbCircle
10
-31.430896423742041
20
31.430896423742034
30
0
40
2.1589999999999998
210
-0
220
0
230
1
0
CIRCLE
5
167
100
AcDbEntity
8
0
100
AcDbCircle
10
-31.430896423742052
20
-31.430896423742034
30
0
40
2.1589999999999998
210
-0
220
0
230
1
0
CIRCLE
5
168
100
AcDbEntity
8
0
100
AcDbCircle
10
31.430896423742038
20
31.430896423746987
30
0
40
2.1589999999999998
210
-0
220
0
230
1
0
LWPOLYLINE
5
169
100
AcDbEntity
8
0
100
AcDbPolyline
90
24
70
1
43
0.0
10
41.465500000000006
20
20.536083579329155
10
41.46549999999997
20
-33.465499999998841
42
-0.41421356237309503
10
33.465499999998805
20
-41.465500000000006
10
1.5000000000000002
20
-41.465500000000006
10
1.5000000000000202
20
-39.621616574794125
42
52.847744383196165
10
-1.499999999999998
20
-39.621616574794118
10
-1.4999999999999991
20
-41.465500000000006
10
-21.366462724709564
20
-41.465500000000006
42
-0.093321273227022022
10
-23.213917911402365
20
-41.117656942997741
10
-33.616610754161584
20
-37.05639923759415
42
-0.20931331328785194
10
-36.499380332039777
20
-34.176639033051323
10
-41.115724764571119
20
-22.388480317783941
42
-0.093584669289688727
10
-41.465500000000013
20
-20.536083579329159
10
-41.465500000000006
20
20.536083579329159
42
-0.09358466928968906
10
-41.115724764571127
20
22.388480317783941
10
-36.499380332039777
20
34.176639033051316
42
-0.20931331328785194
10
-33.616610754161577
20
37.056399237594157
10
-26.525119646106027
20
40.861751564316677
42
-0.12375186668928972
10
-24.123126321187613
20
41.465500000000006
10
24.133110614813155
20
41.465499999999992
42
-0.12281307361366459
10
26.518530099863611
20
40.870605782514119
10
34.154575052519135
20
36.809348077110556
42
-0.17906285583816314
10
36.499380332039777
20
34.176639033051323
10
41.115724764571119
20
22.388480317783941
42
-0.093584669289687838
0
CIRCLE
5
170
100
AcDbEntity
8
0
100
AcDbCircle
10
-36.960000000000001
20
18.760000000000005
30
0
40
1
210
0
220
-0
230
1
0
CIRCLE
5
171
100
AcDbEntity
8
0
100
AcDbCircle
10
-18.760000000000005
20
-36.960000000000001
30
0
40
1
210
0
220
-0
230
1
0
CIRCLE
5
172
100
AcDbEntity
8
0
100
AcDbCircle
10
18.760000000000002
20
36.960000000000001
30
0
40
1
210
0
220
-0
230
1
0
CIRCLE
5
173
100
AcDbEntity
8
0
100
AcDbCircle
10
36.960000000000001
20
18.760000000000005
30
0
40
1
210
0
220
-0
230
1
0
CIRCLE
5
174
100
AcDbEntity
8
0
100
AcDbCircle
10
-36.960000000000001
20
-18.760000000000005
30
0
40
1
210
0
220
-0
230
1
0
CIRCLE
5
175
100
AcDbEntity
8
0
100
AcDbCircle
10
-18.760000000000005
20
36.960000000000001
30
0
40
1
210
0
220
-0
230
1
0
CIRCLE
5
176
100
AcDbEntity
8
0
100
AcDbCircle
10
-31.430896423742041
20
31.430896423742034
30
0
40
2.1589999999999998
210
-0
220
0
230
1
0
CIRCLE
5
177
100
AcDbEntity
8
0
100
AcDbCircle
10
-31.430896423742052
20
-31.430896423742034
30
0
40
2.1589999999999998
210
-0
220
0
230
1
0
CIRCLE
5
178
100
AcDbEntity
8
0
100
AcDbCircle
10
31.430896423742038
20
31.430896423746987
30
0
40
2.1589999999999998
210
-0
220
0
230
1
0
LINE
5
179
100
AcDbEntity
8
0
100
AcDbLine
10
1.5000000000000002
20
-41.465500000000006
30
0
11
-1.4999999999999991
21
-41.465500000000006
31
0
0
ENDSEC
0
SECTION
2
OBJECTS
0
DICTIONARY
5
C
100
AcDbDictionary
3
ACAD_GROUP
350
D
3
ACAD_MLINESTYLE
350
17
0
DICTIONARY
5
D
100
AcDbDictionary
0
DICTIONARY
5
1A
330
C
100
AcDbDictionary
0
DICTIONARY
5
17
100
AcDbDictionary
0
ENDSEC
0
EOF
