0
SECTION
2
HEADER
9
$INSUNITS
70
1
9
$ACADVER
1
AC1014
9
$HANDSEED
5
FFFF
0
ENDSEC
0
SECTION
2
TABLES
0
TABLE
2
VPORT
5
8
100
AcDbSymbolTable
0
ENDTAB
0
TABLE
2
LTYPE
5
5
100
AcDbSymbolTable
0
LTYPE
5
14
100
AcDbSymbolTableRecord
100
AcDbLinetypeTableRecord
2
BYBLOCK
70
0
0
LTYPE
5
15
100
AcDbSymbolTableRecord
100
AcDbLinetypeTableRecord
2
BYLAYER
70
0
0
ENDTAB
0
TABLE
2
LAYER
5
2
100
AcDbSymbolTable
70
2
0
LAYER
5
50
100
AcDbSymbolTableRecord
100
AcDbLayerTableRecord
2
0
70
0
6
CONTINUOUS
0
ENDTAB
0
TABLE
2
STYLE
5
3
100
AcDbSymbolTable
70
1
0
STYLE
5
11
100
AcDbSymbolTableRecord
100
AcDbTextStyleTableRecord
2
STANDARD
70
0
0
ENDTAB
0
TABLE
2
VIEW
5
6
100
AcDbSymbolTable
70
0
0
ENDTAB
0
TABLE
2
UCS
5
7
100
AcDbSymbolTable
70
0
0
ENDTAB
0
TABLE
2
APPID
5
9
100
AcDbSymbolTable
70
2
0
APPID
5
12
100
AcDbSymbolTableRecord
100
AcDbRegAppTableRecord
2
ACAD
70
0
0
ENDTAB
0
TABLE
2
DIMSTYLE
5
A
100
AcDbSymbolTable
70
1
0
ENDTAB
0
TABLE
2
BLOCK_RECORD
5
1
100
AcDbSymbolTable
70
1
0
BLOCK_RECORD
5
1F
100
AcDbSymbolTableRecord
100
AcDbBlockTableRecord
2
*MODEL_SPACE
0
BLOCK_RECORD
5
1B
100
AcDbSymbolTableRecord
100
AcDbBlockTableRecord
2
*PAPER_SPACE
0
ENDTAB
0
ENDSEC
0
SECTION
2
BLOCKS
0
BLOCK
5
20
100
AcDbEntity
100
AcDbBlockBegin
2
*MODEL_SPACE
0
ENDBLK
5
21
100
AcDbEntity
100
AcDbBlockEnd
0
BLOCK
5
1C
100
AcDbEntity
100
AcDbBlockBegin
2
*PAPER_SPACE
0
ENDBLK
5
1D
100
AcDbEntity
100
AcDbBlockEnd
0
ENDSEC
0
SECTION
2
ENTITIES
0
SPLINE
5
100
100
AcDbEntity
8
0
100
AcDbSpline
70
4
71
5
72
21
73
15
74
0
42
0.000000001
43
0.0000000001
44
0.0000000001
40
0
40
0
40
0
40
0
40
0
40
0
40
0.10000000000000001
40
0.20000000000000001
40
0.30000000000000004
40
0.40000000000000002
40
0.5
40
0.59999999999999998
40
0.69999999999999996
40
0.79999999999999993
40
0.89999999999999991
40
1
40
1
40
1
40
1
40
1
40
1
41
1
41
1
41
1
41
1
41
1
41
1
41
1
41
1
41
1
41
1
41
1
41
1
41
1
41
1
41
1
10
22.0527096107297
20
-32
30
0
10
22.053868206990956
20
-30.327481433582239
30
0
10
22.05736942770416
20
-27.313251459572221
30
0
10
22.065669800780576
20
-23.781414491260968
30
0
10
22.073627179348893
20
-20.536525605799589
30
0
10
21.999357158633327
20
-16.267278313313223
30
0
10
21.818448534030331
20
-9.5664600427514532
30
0
10
21.446093099772909
20
0.81775371314888512
30
0
10
21.146768970263111
20
11.640959986019871
30
0
10
20.449859272088471
20
19.68139296742558
30
0
10
17.955895474139901
20
24.636438056266737
30
0
10
13.246496186941359
20
26.40620830653857
30
0
10
7.545298663644032
20
26.899792658559754
30
0
10
2.6907748599753227
20
26.919029964025437
30
0
10
0
20
26.85153401711737
30
0
0
LINE
5
101
100
AcDbEntity
8
0
100
AcDbLine
10
22.0527096107297
20
-32
30
0
11
0
21
-31.999999999999996
31
0
0
LINE
5
102
100
AcDbEntity
8
0
100
AcDbLine
10
0
20
-31.999999999999996
30
0
11
0
21
26.85153401711737
31
0
0
SPLINE
5
103
100
AcDbEntity
8
0
100
AcDbSpline
70
4
71
5
72
21
73
15
74
0
42
0.000000001
43
0.0000000001
44
0.0000000001
40
0
40
0
40
0
40
0
40
0
40
0
40
0.10000000000000001
40
0.20000000000000001
40
0.30000000000000004
40
0.40000000000000002
40
0.5
40
0.59999999999999998
40
0.69999999999999996
40
0.79999999999999993
40
0.89999999999999991
40
1
40
1
40
1
40
1
40
1
40
1
41
1
41
1
41
1
41
1
41
1
41
1
41
1
41
1
41
1
41
1
41
1
41
1
41
1
41
1
41
1
10
-22.0527096107297
20
-32
30
0
10
-22.053868206990956
20
-30.327481433582239
30
0
10
-22.05736942770416
20
-27.313251459572221
30
0
10
-22.065669800780576
20
-23.781414491260968
30
0
10
-22.073627179348893
20
-20.536525605799589
30
0
10
-21.999357158633327
20
-16.267278313313223
30
0
10
-21.818448534030331
20
-9.5664600427514532
30
0
10
-21.446093099772909
20
0.81775371314888512
30
0
10
-21.146768970263111
20
11.640959986019871
30
0
10
-20.449859272088471
20
19.68139296742558
30
0
10
-17.955895474139901
20
24.636438056266737
30
0
10
-13.246496186941359
20
26.40620830653857
30
0
10
-7.545298663644032
20
26.899792658559754
30
0
10
-2.6907748599753227
20
26.919029964025437
30
0
10
0
20
26.85153401711737
30
0
0
LINE
5
104
100
AcDbEntity
8
0
100
AcDbLine
10
-22.0527096107297
20
-32
30
0
11
0
21
-31.999999999999996
31
0
0
ENDSEC
0
SECTION
2
OBJECTS
0
DICTIONARY
5
C
100
AcDbDictionary
3
ACAD_GROUP
350
D
3
ACAD_MLINESTYLE
350
17
0
DICTIONARY
5
D
100
AcDbDictionary
0
DICTIONARY
5
1A
330
C
100
AcDbDictionary
0
DICTIONARY
5
17
100
AcDbDictionary
0
ENDSEC
0
EOF
