0
SECTION
2
HEADER
9
$INSUNITS
70
4
9
$ACADVER
1
AC1014
9
$HANDSEED
5
FFFF
0
ENDSEC
0
SECTION
2
TABLES
0
TABLE
2
VPORT
5
8
100
AcDbSymbolTable
0
ENDTAB
0
TABLE
2
LTYPE
5
5
100
AcDbSymbolTable
0
LTYPE
5
14
100
AcDbSymbolTableRecord
100
AcDbLinetypeTableRecord
2
BYBLOCK
70
0
0
LTYPE
5
15
100
AcDbSymbolTableRecord
100
AcDbLinetypeTableRecord
2
BYLAYER
70
0
0
ENDTAB
0
TABLE
2
LAYER
5
2
100
AcDbSymbolTable
70
2
0
LAYER
5
50
100
AcDbSymbolTableRecord
100
AcDbLayerTableRecord
2
0
70
0
6
CONTINUOUS
0
ENDTAB
0
TABLE
2
STYLE
5
3
100
AcDbSymbolTable
70
1
0
STYLE
5
11
100
AcDbSymbolTableRecord
100
AcDbTextStyleTableRecord
2
STANDARD
70
0
0
ENDTAB
0
TABLE
2
VIEW
5
6
100
AcDbSymbolTable
70
0
0
ENDTAB
0
TABLE
2
UCS
5
7
100
AcDbSymbolTable
70
0
0
ENDTAB
0
TABLE
2
APPID
5
9
100
AcDbSymbolTable
70
2
0
APPID
5
12
100
AcDbSymbolTableRecord
100
AcDbRegAppTableRecord
2
ACAD
70
0
0
ENDTAB
0
TABLE
2
DIMSTYLE
5
A
100
AcDbSymbolTable
70
1
0
ENDTAB
0
TABLE
2
BLOCK_RECORD
5
1
100
AcDbSymbolTable
70
1
0
BLOCK_RECORD
5
1F
100
AcDbSymbolTableRecord
100
AcDbBlockTableRecord
2
*MODEL_SPACE
0
BLOCK_RECORD
5
1B
100
AcDbSymbolTableRecord
100
AcDbBlockTableRecord
2
*PAPER_SPACE
0
ENDTAB
0
ENDSEC
0
SECTION
2
BLOCKS
0
BLOCK
5
20
100
AcDbEntity
100
AcDbBlockBegin
2
*MODEL_SPACE
0
ENDBLK
5
21
100
AcDbEntity
100
AcDbBlockEnd
0
BLOCK
5
1C
100
AcDbEntity
100
AcDbBlockBegin
2
*PAPER_SPACE
0
ENDBLK
5
1D
100
AcDbEntity
100
AcDbBlockEnd
0
ENDSEC
0
SECTION
2
ENTITIES
0
CIRCLE
5
100
100
AcDbEntity
8
0
100
AcDbCircle
10
23.500000000000078
20
2.5000000000002629
30
0
40
1.3999999999999999
210
0
220
-0
230
1
0
CIRCLE
5
101
100
AcDbEntity
8
0
100
AcDbCircle
10
-52.500000000000028
20
11.500000000000284
30
0
40
1.3999999999999999
210
0
220
-0
230
1
0
CIRCLE
5
102
100
AcDbEntity
8
0
100
AcDbCircle
10
-52.500000000000028
20
2.5000000000002665
30
0
40
1.3999999999999999
210
0
220
-0
230
1
0
CIRCLE
5
103
100
AcDbEntity
8
0
100
AcDbCircle
10
23.500000000000078
20
11.500000000000279
30
0
40
1.3999999999999999
210
0
220
-0
230
1
0
LWPOLYLINE
5
104
100
AcDbEntity
8
0
100
AcDbPolyline
90
6
70
1
43
0.0
10
-77.375
20
-7.0739999999999936
10
53.783277782473107
20
-7.0740000000000052
42
-2.8081757407815719
10
70.216722217526907
20
-7.0739999999999936
10
77.349926785656507
20
-7.0739999999999936
10
77.349926785656507
20
-17.923999999999999
10
-77.375
20
-17.923999999999999
0
CIRCLE
5
105
100
AcDbEntity
8
0
100
AcDbCircle
10
45.375000000000021
20
8.5740000000000052
30
0
40
1.3999999999999968
210
0
220
-0
230
1
0
LWPOLYLINE
5
106
100
AcDbEntity
8
0
100
AcDbPolyline
90
4
70
1
43
0.0
10
-42.250000000000007
20
14.250000000000004
10
18.25
20
14.250000000000004
10
18.25
20
-0.24999999999999911
10
-42.250000000000007
20
-0.24999999999999911
0
LWPOLYLINE
5
107
100
AcDbEntity
8
0
100
AcDbPolyline
90
8
70
1
43
0.0
10
-62.375
20
10.073999999999984
42
0.41421356237309803
10
-65.875
20
13.574000000000005
10
-72.874999999999986
20
13.574000000000011
42
0.41421356237309742
10
-76.375
20
10.074000000000003
10
-76.375
20
7.0739999999999972
42
0.41421356237309387
10
-72.875
20
3.5740000000000056
10
-65.875000000000014
20
3.5740000000000021
42
0.41421356237309742
10
-62.375
20
7.0740000000000087
0
CIRCLE
5
108
100
AcDbEntity
8
0
100
AcDbCircle
10
-69.374999999999943
20
-2.0739999999999981
30
0
40
1.3999999999999968
210
0
220
-0
230
1
0
LWPOLYLINE
5
109
100
AcDbEntity
8
0
100
AcDbPolyline
90
4
70
1
43
0.0
10
-79.374999999999943
20
20.574000000000009
10
-79.374999999999972
20
-20.573999999999998
10
79.375000000000028
20
-20.573999999999998
10
79.375000000000028
20
20.574000000000009
0
CIRCLE
5
110
100
AcDbEntity
8
0
100
AcDbCircle
10
23.500000000000078
20
2.5000000000002629
30
0
40
1.3999999999999999
210
0
220
-0
230
1
0
CIRCLE
5
111
100
AcDbEntity
8
0
100
AcDbCircle
10
-52.500000000000028
20
11.500000000000284
30
0
40
1.3999999999999999
210
0
220
-0
230
1
0
CIRCLE
5
112
100
AcDbEntity
8
0
100
AcDbCircle
10
-52.500000000000028
20
2.5000000000002665
30
0
40
1.3999999999999999
210
0
220
-0
230
1
0
CIRCLE
5
113
100
AcDbEntity
8
0
100
AcDbCircle
10
23.500000000000078
20
11.500000000000279
30
0
40
1.3999999999999999
210
0
220
-0
230
1
0
CIRCLE
5
114
100
AcDbEntity
8
0
100
AcDbCircle
10
-69.374999999999943
20
-2.0739999999999981
30
0
40
1.3999999999999968
210
0
220
-0
230
1
0
LWPOLYLINE
5
115
100
AcDbEntity
8
0
100
AcDbPolyline
90
8
70
1
43
0.0
10
-62.375
20
7.0740000000000087
10
-62.375
20
10.073999999999984
42
0.41421356237309803
10
-65.875
20
13.574000000000005
10
-72.874999999999986
20
13.574000000000011
42
0.41421356237309742
10
-76.375
20
10.074000000000003
10
-76.375
20
7.0739999999999972
42
0.41421356237309387
10
-72.875
20
3.5740000000000056
10
-65.875000000000014
20
3.5740000000000016
42
0.41421356237309742
0
LWPOLYLINE
5
116
100
AcDbEntity
8
0
100
AcDbPolyline
90
4
70
1
43
0.0
10
18.25
20
-0.25000000000000022
10
18.25
20
14.250000000000004
10
-42.250000000000007
20
14.250000000000004
10
-42.250000000000007
20
-0.25000000000000022
0
CIRCLE
5
117
100
AcDbEntity
8
0
100
AcDbCircle
10
45.375000000000021
20
8.5740000000000052
30
0
40
1.3999999999999968
210
0
220
-0
230
1
0
LWPOLYLINE
5
118
100
AcDbEntity
8
0
100
AcDbPolyline
90
6
70
1
43
0.0
10
70.216722217526907
20
-7.0739999999999892
42
2.8081757407815697
10
53.783277782473107
20
-7.0739999999999963
10
-77.375
20
-7.0739999999999936
10
-77.375
20
-17.923999999999999
10
77.349926785656507
20
-17.923999999999999
10
77.349926785656507
20
-7.0739999999999936
0
LWPOLYLINE
5
119
100
AcDbEntity
8
0
100
AcDbPolyline
90
4
70
1
43
0.0
10
79.375000000000028
20
-20.573999999999998
10
-79.374999999999972
20
-20.573999999999998
10
-79.374999999999943
20
20.574000000000009
10
79.375000000000028
20
20.574000000000009
0
ENDSEC
0
SECTION
2
OBJECTS
0
DICTIONARY
5
C
100
AcDbDictionary
3
ACAD_GROUP
350
D
3
ACAD_MLINESTYLE
350
17
0
DICTIONARY
5
D
100
AcDbDictionary
0
DICTIONARY
5
1A
330
C
100
AcDbDictionary
0
DICTIONARY
5
17
100
AcDbDictionary
0
ENDSEC
0
EOF
