0
SECTION
2
HEADER
0
ENDSEC
0
SECTION
2
TABLES
0
TABLE
2
LTYPE
0
LTYPE
72
65
70
64
2
CONTINUOUS
3
______
73
0
40
0
0
ENDTAB
0
TABLE
2
LAYER
0
ENDTAB
0
ENDSEC
0
SECTION
2
ENTITIES
0
CIRCLE
8
0
10
0
20
0
40
2
0
CIRCLE
8
0
10
0
20
0
40
2
0
LINE
8
layer0
10
11.1397542
20
6.2556283
11
11.0066812
21
5.9812636
0
LINE
8
layer0
10
11.0066812
20
5.9812636
11
10.8702469
21
5.7276109
0
LINE
8
layer0
10
10.8702469
20
5.7276109
11
10.7330383
21
5.4962949
0
LINE
8
layer0
10
10.7330383
20
5.4962949
11
10.5961535
21
5.2860954
0
LINE
8
layer0
10
10.5961535
20
5.2860954
11
10.4612144
21
5.0967071
0
LINE
8
layer0
10
10.4612144
20
5.0967071
11
10.3291328
21
4.9268344
0
LINE
8
layer0
10
10.3291328
20
4.9268344
11
10.2029811
21
4.7778692
0
LINE
8
layer0
10
10.2029811
20
4.7778692
11
10.081485
21
4.6459877
0
LINE
8
layer0
10
10.081485
20
4.6459877
11
9.968528
21
4.5332264
0
LINE
8
layer0
10
9.968528
20
4.5332264
11
9.7680946
21
4.3563011
0
LINE
8
layer0
10
9.7680946
20
4.3563011
11
9.61276
21
4.2406329
0
LINE
8
layer0
10
9.61276
20
4.2406329
11
9.5094653
21
4.1762119
0
LINE
8
layer0
10
9.5094653
20
4.1762119
11
9.339646
21
4.1255981
0
LINE
8
layer0
10
9.339646
20
4.1255981
11
9.1383004
21
4.0527621
0
LINE
8
layer0
10
9.1383004
20
4.0527621
11
8.9594795
21
3.9711151
0
LINE
8
layer0
10
8.9594795
20
3.9711151
11
8.8035221
21
3.8824138
0
LINE
8
layer0
10
8.8035221
20
3.8824138
11
8.670682
21
3.7884211
0
LINE
8
layer0
10
8.670682
20
3.7884211
11
8.5611026
21
3.6909195
0
LINE
8
layer0
10
8.5611026
20
3.6909195
11
8.4747944
21
3.5916839
0
LINE
8
layer0
10
8.4747944
20
3.5916839
11
8.4116826
21
3.4924954
0
LINE
8
layer0
10
8.4116826
20
3.4924954
11
8.3715743
21
3.3951109
0
LINE
8
layer0
10
8.3715743
20
3.3951109
11
8.3541849
21
3.3012809
0
LINE
8
layer0
10
8.3541849
20
3.3012809
11
8.3591115
21
3.2127321
0
LINE
8
layer0
10
8.3591115
20
3.2127321
11
8.3697834
21
3.1709565
0
LINE
8
layer0
10
8.3697834
20
3.1709565
11
8.4816605
21
2.8573423
0
LINE
8
layer0
10
8.4816605
20
2.8573423
11
8.5874621
21
2.5215064
0
LINE
8
layer0
10
8.5874621
20
2.5215064
11
8.6800227
21
2.1817825
0
LINE
8
layer0
10
8.6800227
20
2.1817825
11
8.7554583
21
1.8574682
0
LINE
8
layer0
10
8.7554583
20
1.8574682
11
8.7690662
21
1.8165547
0
LINE
8
layer0
10
8.7690662
20
1.8165547
11
8.8127948
21
1.7393991
0
LINE
8
layer0
10
8.8127948
20
1.7393991
11
8.878152
21
1.6698658
0
LINE
8
layer0
10
8.878152
20
1.6698658
11
8.9645433
21
1.6096248
0
LINE
8
layer0
10
8.9645433
20
1.6096248
11
9.0712617
21
1.560303
0
LINE
8
layer0
10
9.0712617
20
1.560303
11
9.1975196
21
1.5234824
0
LINE
8
layer0
10
9.1975196
20
1.5234824
11
9.3424169
21
1.500702
0
LINE
8
layer0
10
9.3424169
20
1.500702
11
9.5049855
21
1.493449
0
LINE
8
layer0
10
9.5049855
20
1.493449
11
9.6841407
21
1.5031457
0
LINE
8
layer0
10
9.6841407
20
1.5031457
11
9.8787161
21
1.5311378
0
LINE
8
layer0
10
9.8787161
20
1.5311378
11
10.0874769
21
1.5787199
0
LINE
8
layer0
10
10.0874769
20
1.5787199
11
10.2577019
21
1.6279521
0
LINE
8
layer0
10
10.2577019
20
1.6279521
11
10.3794275
21
1.629603
0
LINE
8
layer0
10
10.3794275
20
1.629603
11
10.5726383
21
1.616277
0
LINE
8
layer0
10
10.5726383
20
1.616277
11
10.8369066
21
1.5758004
0
LINE
8
layer0
10
10.8369066
20
1.5758004
11
10.9928954
21
1.5420087
0
LINE
8
layer0
10
10.9928954
20
1.5420087
11
11.166405
21
1.4967487
0
LINE
8
layer0
10
11.166405
20
1.4967487
11
11.3530672
21
1.439634
0
LINE
8
layer0
10
11.3530672
20
1.439634
11
11.5560214
21
1.3681366
0
LINE
8
layer0
10
11.5560214
20
1.3681366
11
11.7719305
21
1.2817666
0
LINE
8
layer0
10
11.7719305
20
1.2817666
11
12.0007277
21
1.1789411
0
LINE
8
layer0
10
12.0007277
20
1.1789411
11
12.2412139
21
1.0585262
0
LINE
8
layer0
10
12.2412139
20
1.0585262
11
12.4931247
21
0.918902
0
LINE
8
layer0
10
12.4931247
20
0.918902
11
12.7534055
21
0.7600364
0
LINE
8
layer0
10
12.7534055
20
0.7600364
11
12.9858488
21
0.6050066
0
ARC
8
layer0
10
-0.0000654
20
0
40
13
50
357.3325496
51
362.66745
0
LINE
8
layer0
10
12.9858488
20
-0.6050066
11
12.7534055
21
-0.7600364
0
LINE
8
layer0
10
12.7534055
20
-0.7600364
11
12.4931247
21
-0.918902
0
LINE
8
layer0
10
12.4931247
20
-0.918902
11
12.2412139
21
-1.0585262
0
LINE
8
layer0
10
12.2412139
20
-1.0585262
11
12.0007277
21
-1.1789411
0
LINE
8
layer0
10
12.0007277
20
-1.1789411
11
11.7719305
21
-1.2817666
0
LINE
8
layer0
10
11.7719305
20
-1.2817666
11
11.5560214
21
-1.3681366
0
LINE
8
layer0
10
11.5560214
20
-1.3681366
11
11.3530672
21
-1.439634
0
LINE
8
layer0
10
11.3530672
20
-1.439634
11
11.166405
21
-1.4967487
0
LINE
8
layer0
10
11.166405
20
-1.4967487
11
10.9928954
21
-1.5420087
0
LINE
8
layer0
10
10.9928954
20
-1.5420087
11
10.8369066
21
-1.5758004
0
LINE
8
layer0
10
10.8369066
20
-1.5758004
11
10.5726383
21
-1.616277
0
LINE
8
layer0
10
10.5726383
20
-1.616277
11
10.3794275
21
-1.629603
0
LINE
8
layer0
10
10.3794275
20
-1.629603
11
10.2577019
21
-1.6279521
0
LINE
8
layer0
10
10.2577019
20
-1.6279521
11
10.0874769
21
-1.5787199
0
LINE
8
layer0
10
10.0874769
20
-1.5787199
11
9.8787161
21
-1.5311378
0
LINE
8
layer0
10
9.8787161
20
-1.5311378
11
9.6841407
21
-1.5031457
0
LINE
8
layer0
10
9.6841407
20
-1.5031457
11
9.5049855
21
-1.493449
0
LINE
8
layer0
10
9.5049855
20
-1.493449
11
9.3424169
21
-1.500702
0
LINE
8
layer0
10
9.3424169
20
-1.500702
11
9.1975196
21
-1.5234824
0
LINE
8
layer0
10
9.1975196
20
-1.5234824
11
9.0712617
21
-1.560303
0
LINE
8
layer0
10
9.0712617
20
-1.560303
11
8.9645433
21
-1.6096248
0
LINE
8
layer0
10
8.9645433
20
-1.6096248
11
8.878152
21
-1.6698658
0
LINE
8
layer0
10
8.878152
20
-1.6698658
11
8.8127948
21
-1.7393991
0
LINE
8
layer0
10
8.8127948
20
-1.7393991
11
8.7690662
21
-1.8165547
0
LINE
8
layer0
10
8.7690662
20
-1.8165547
11
8.7554583
21
-1.8574682
0
LINE
8
layer0
10
8.7554583
20
-1.8574682
11
8.6800227
21
-2.1817825
0
LINE
8
layer0
10
8.6800227
20
-2.1817825
11
8.5874621
21
-2.5215064
0
LINE
8
layer0
10
8.5874621
20
-2.5215064
11
8.4816605
21
-2.8573423
0
LINE
8
layer0
10
8.4816605
20
-2.8573423
11
8.3697834
21
-3.1709565
0
LINE
8
layer0
10
8.3697834
20
-3.1709565
11
8.3591115
21
-3.2127321
0
LINE
8
layer0
10
8.3591115
20
-3.2127321
11
8.3541849
21
-3.3012809
0
LINE
8
layer0
10
8.3541849
20
-3.3012809
11
8.3715743
21
-3.3951109
0
LINE
8
layer0
10
8.3715743
20
-3.3951109
11
8.4116826
21
-3.4924954
0
LINE
8
layer0
10
8.4116826
20
-3.4924954
11
8.4747944
21
-3.5916839
0
LINE
8
layer0
10
8.4747944
20
-3.5916839
11
8.5611026
21
-3.6909195
0
LINE
8
layer0
10
8.5611026
20
-3.6909195
11
8.670682
21
-3.7884211
0
LINE
8
layer0
10
8.670682
20
-3.7884211
11
8.8035221
21
-3.8824138
0
LINE
8
layer0
10
8.8035221
20
-3.8824138
11
8.9594795
21
-3.9711151
0
LINE
8
layer0
10
8.9594795
20
-3.9711151
11
9.1383004
21
-4.0527621
0
LINE
8
layer0
10
9.1383004
20
-4.0527621
11
9.339646
21
-4.1255981
0
LINE
8
layer0
10
9.339646
20
-4.1255981
11
9.5094653
21
-4.1762119
0
LINE
8
layer0
10
9.5094653
20
-4.1762119
11
9.61276
21
-4.2406329
0
LINE
8
layer0
10
9.61276
20
-4.2406329
11
9.7680946
21
-4.3563011
0
LINE
8
layer0
10
9.7680946
20
-4.3563011
11
9.968528
21
-4.5332264
0
LINE
8
layer0
10
9.968528
20
-4.5332264
11
10.081485
21
-4.6459877
0
LINE
8
layer0
10
10.081485
20
-4.6459877
11
10.2029811
21
-4.7778692
0
LINE
8
layer0
10
10.2029811
20
-4.7778692
11
10.3291328
21
-4.9268344
0
LINE
8
layer0
10
10.3291328
20
-4.9268344
11
10.4612144
21
-5.0967071
0
LINE
8
layer0
10
10.4612144
20
-5.0967071
11
10.5961535
21
-5.2860954
0
LINE
8
layer0
10
10.5961535
20
-5.2860954
11
10.7330383
21
-5.4962949
0
LINE
8
layer0
10
10.7330383
20
-5.4962949
11
10.8702469
21
-5.7276109
0
LINE
8
layer0
10
10.8702469
20
-5.7276109
11
11.0066812
21
-5.9812636
0
LINE
8
layer0
10
11.0066812
20
-5.9812636
11
11.1397542
21
-6.2556283
0
LINE
8
layer0
10
11.1397542
20
-6.2556283
11
11.2514824
21
-6.5117159
0
ARC
8
layer0
10
-0.0000548
20
0.0000359
40
13
50
324.6052746
51
329.9401749
0
LINE
8
layer0
10
10.5972999
20
-7.5296439
11
10.3179408
21
-7.5343949
0
LINE
8
layer0
10
10.3179408
20
-7.5343949
11
10.0130894
21
-7.5273227
0
LINE
8
layer0
10
10.0130894
20
-7.5273227
11
9.7256819
21
-7.5085888
0
LINE
8
layer0
10
9.7256819
20
-7.5085888
11
9.4582709
21
-7.4798716
0
LINE
8
layer0
10
9.4582709
20
-7.4798716
11
9.2102028
21
-7.4426768
0
LINE
8
layer0
10
9.2102028
20
-7.4426768
11
8.9818734
21
-7.3986066
0
LINE
8
layer0
10
8.9818734
20
-7.3986066
11
8.772483
21
-7.3490287
0
LINE
8
layer0
10
8.772483
20
-7.3490287
11
8.5845743
21
-7.2961595
0
LINE
8
layer0
10
8.5845743
20
-7.2961595
11
8.4141393
21
-7.2404283
0
LINE
8
layer0
10
8.4141393
20
-7.2404283
11
8.2646439
21
-7.1845217
0
LINE
8
layer0
10
8.2646439
20
-7.1845217
11
8.020444
21
-7.0756985
0
LINE
8
layer0
10
8.020444
20
-7.0756985
11
7.8507002
21
-6.9824515
0
LINE
8
layer0
10
7.8507002
20
-6.9824515
11
7.7491906
21
-6.9152528
0
LINE
8
layer0
10
7.7491906
20
-6.9152528
11
7.6326052
21
-6.7818055
0
LINE
8
layer0
10
7.6326052
20
-6.7818055
11
7.4827092
21
-6.6289122
0
LINE
8
layer0
10
7.4827092
20
-6.6289122
11
7.3341556
21
-6.5001683
0
LINE
8
layer0
10
7.3341556
20
-6.5001683
11
7.1886831
21
-6.3951524
0
LINE
8
layer0
10
7.1886831
20
-6.3951524
11
7.0480005
21
-6.3133628
0
LINE
8
layer0
10
7.0480005
20
-6.3133628
11
6.913789
21
-6.2541895
0
LINE
8
layer0
10
6.913789
20
-6.2541895
11
6.7876675
21
-6.2169047
0
LINE
8
layer0
10
6.7876675
20
-6.2169047
11
6.6712248
21
-6.2007006
0
LINE
8
layer0
10
6.6712248
20
-6.2007006
11
6.5659791
21
-6.2046718
0
LINE
8
layer0
10
6.5659791
20
-6.2046718
11
6.4734046
21
-6.2278322
0
LINE
8
layer0
10
6.4734046
20
-6.2278322
11
6.3949043
21
-6.2690982
0
LINE
8
layer0
10
6.3949043
20
-6.2690982
11
6.3613371
21
-6.2961598
0
LINE
8
layer0
10
6.3613371
20
-6.2961598
11
6.1225391
21
-6.5282068
0
LINE
8
layer0
10
6.1225391
20
-6.5282068
11
5.8610036
21
-6.7639587
0
LINE
8
layer0
10
5.8610036
20
-6.7639587
11
5.5904309
21
-6.9892812
0
LINE
8
layer0
10
5.5904309
20
-6.9892812
11
5.3267613
21
-7.1926249
0
LINE
8
layer0
10
5.3267613
20
-7.1926249
11
5.295198
21
-7.2219991
0
LINE
8
layer0
10
5.295198
20
-7.2219991
11
5.2431803
21
-7.2938276
0
LINE
8
layer0
10
5.2431803
20
-7.2938276
11
5.2070809
21
-7.3821638
0
LINE
8
layer0
10
5.2070809
20
-7.3821638
11
5.1881721
21
-7.4857731
0
LINE
8
layer0
10
5.1881721
20
-7.4857731
11
5.1876398
21
-7.6033366
0
LINE
8
layer0
10
5.1876398
20
-7.6033366
11
5.2065961
21
-7.7334806
0
LINE
8
layer0
10
5.2065961
20
-7.7334806
11
5.2460668
21
-7.8747472
0
LINE
8
layer0
10
5.2460668
20
-7.8747472
11
5.3070027
21
-8.0256378
0
LINE
8
layer0
10
5.3070027
20
-8.0256378
11
5.3902468
21
-8.1845749
0
LINE
8
layer0
10
5.3902468
20
-8.1845749
11
5.4965389
21
-8.3499386
0
LINE
8
layer0
10
5.4965389
20
-8.3499386
11
5.6265435
21
-8.5200678
0
LINE
8
layer0
10
5.6265435
20
-8.5200678
11
5.7420407
21
-8.6544581
0
LINE
8
layer0
10
5.7420407
20
-8.6544581
11
5.7941091
21
-8.7644978
0
LINE
8
layer0
10
5.7941091
20
-8.7644978
11
5.8622499
21
-8.9457843
0
LINE
8
layer0
10
5.8622499
20
-8.9457843
11
5.9352121
21
-9.2029858
0
LINE
8
layer0
10
5.9352121
20
-9.2029858
11
5.9692743
21
-9.3589158
0
LINE
8
layer0
10
5.9692743
20
-9.3589158
11
6.0001828
21
-9.5355474
0
LINE
8
layer0
10
6.0001828
20
-9.5355474
11
6.0257717
21
-9.7290677
0
LINE
8
layer0
10
6.0257717
20
-9.7290677
11
6.0450456
21
-9.9433824
0
LINE
8
layer0
10
6.0450456
20
-9.9433824
11
6.0561726
21
-10.1756595
0
LINE
8
layer0
10
6.0561726
20
-10.1756595
11
6.057685
21
-10.4264961
0
LINE
8
layer0
10
6.057685
20
-10.4264961
11
6.0480533
21
-10.6952721
0
LINE
8
layer0
10
6.0480533
20
-10.6952721
11
6.0256942
21
-10.9824203
0
LINE
8
layer0
10
6.0256942
20
-10.9824203
11
5.9893095
21
-11.2851752
0
LINE
8
layer0
10
5.9893095
20
-11.2851752
11
5.9448499
21
-11.5610147
0
ARC
8
layer0
10
-0.0000273
20
0.0000594
40
13
50
291.8780048
51
297.2129053
0
LINE
8
layer0
10
4.8441831
20
-12.0636724
11
4.6066027
21
-11.9166363
0
LINE
8
layer0
10
4.6066027
20
-11.9166363
11
4.353969
21
-11.7458717
0
LINE
8
layer0
10
4.353969
20
-11.7458717
11
4.1223147
21
-11.5747275
0
LINE
8
layer0
10
4.1223147
20
-11.5747275
11
3.9128799
21
-11.4059957
0
LINE
8
layer0
10
3.9128799
20
-11.4059957
11
3.7243007
21
-11.2405897
0
LINE
8
layer0
10
3.7243007
20
-11.2405897
11
3.556044
21
-11.0800713
0
LINE
8
layer0
10
3.556044
20
-11.0800713
11
3.4066975
21
-10.9251588
0
LINE
8
layer0
10
3.4066975
20
-10.9251588
11
3.2772018
21
-10.7790912
0
LINE
8
layer0
10
3.2772018
20
-10.7790912
11
3.1639533
21
-10.640063
0
LINE
8
layer0
10
3.1639533
20
-10.640063
11
3.0684152
21
-10.5122081
0
LINE
8
layer0
10
3.0684152
20
-10.5122081
11
2.9218154
21
-10.2886358
0
LINE
8
layer0
10
2.9218154
20
-10.2886358
11
2.829431
21
-10.1184209
0
LINE
8
layer0
10
2.829431
20
-10.1184209
11
2.7803661
21
-10.0070096
0
LINE
8
layer0
10
2.7803661
20
-10.0070096
11
2.7544352
21
-9.8317157
0
LINE
8
layer0
10
2.7544352
20
-9.8317157
11
2.7109951
21
-9.6220538
0
LINE
8
layer0
10
2.7109951
20
-9.6220538
11
2.655628
21
-9.4334335
0
LINE
8
layer0
10
2.655628
20
-9.4334335
11
2.5900246
21
-9.2664401
0
LINE
8
layer0
10
2.5900246
20
-9.2664401
11
2.5158937
21
-9.1215755
0
LINE
8
layer0
10
2.5158937
20
-9.1215755
11
2.4349793
21
-8.9992356
0
LINE
8
layer0
10
2.4349793
20
-8.9992356
11
2.3490368
21
-8.8996832
0
LINE
8
layer0
10
2.3490368
20
-8.8996832
11
2.2598396
21
-8.8230977
0
LINE
8
layer0
10
2.2598396
20
-8.8230977
11
2.1691543
21
-8.7695384
0
LINE
8
layer0
10
2.1691543
20
-8.7695384
11
2.0787542
21
-8.7389726
0
LINE
8
layer0
10
2.0787542
20
-8.7389726
11
1.9904055
21
-8.7312473
0
LINE
8
layer0
10
1.9904055
20
-8.7312473
11
1.9475364
21
-8.7358652
0
LINE
8
layer0
10
1.9475364
20
-8.7358652
11
1.6211926
21
-8.8019716
0
LINE
8
layer0
10
1.6211926
20
-8.8019716
11
1.2737178
21
-8.8589019
0
LINE
8
layer0
10
1.2737178
20
-8.8589019
11
0.9242791
21
-8.9021727
0
LINE
8
layer0
10
0.9242791
20
-8.9021727
11
0.5925302
21
-8.9306857
0
LINE
8
layer0
10
0.5925302
20
-8.9306857
11
0.5500965
21
-8.9383324
0
LINE
8
layer0
10
0.5500965
20
-8.9383324
11
0.467503
21
-8.9706355
0
LINE
8
layer0
10
0.467503
20
-8.9706355
11
0.3893762
21
-9.0254319
0
LINE
8
layer0
10
0.3893762
20
-9.0254319
11
0.3174536
21
-9.1023706
0
LINE
8
layer0
10
0.3174536
20
-9.1023706
11
0.2534462
21
-9.2009836
0
LINE
8
layer0
10
0.2534462
20
-9.2009836
11
0.1990321
21
-9.3207162
0
LINE
8
layer0
10
0.1990321
20
-9.3207162
11
0.1558624
21
-9.4608967
0
LINE
8
layer0
10
0.1558624
20
-9.4608967
11
0.1255474
21
-9.6207784
0
LINE
8
layer0
10
0.1255474
20
-9.6207784
11
0.1096489
21
-9.79949
0
LINE
8
layer0
10
0.1096489
20
-9.79949
11
0.1096651
21
-9.9960686
0
LINE
8
layer0
10
0.1096651
20
-9.9960686
11
0.1270532
21
-10.2094762
0
LINE
8
layer0
10
0.1270532
20
-10.2094762
11
0.1515587
21
-10.384975
0
LINE
8
layer0
10
0.1515587
20
-10.384975
11
0.1358695
21
-10.5056966
0
LINE
8
layer0
10
0.1358695
20
-10.5056966
11
0.0951823
21
-10.6950443
0
LINE
8
layer0
10
0.0951823
20
-10.6950443
11
0.0175084
21
-10.9508623
0
LINE
8
layer0
10
0.0175084
20
-10.9508623
11
-0.0381388
21
-11.1004543
0
LINE
8
layer0
10
-0.0381388
20
-11.1004543
11
-0.1076312
21
-11.2657567
0
LINE
8
layer0
10
-0.1076312
20
-11.2657567
11
-0.1907294
21
-11.4423907
0
LINE
8
layer0
10
-0.1907294
20
-11.4423907
11
-0.2903824
21
-11.6331039
0
LINE
8
layer0
10
-0.2903824
20
-11.6331039
11
-0.4066003
21
-11.8345236
0
LINE
8
layer0
10
-0.4066003
20
-11.8345236
11
-0.5409404
21
-12.0463584
0
LINE
8
layer0
10
-0.5409404
20
-12.0463584
11
-0.6943544
21
-12.26726
0
LINE
8
layer0
10
-0.6943544
20
-12.26726
11
-0.8684082
21
-12.4967361
0
LINE
8
layer0
10
-0.8684082
20
-12.4967361
11
-1.0626986
21
-12.7317587
0
LINE
8
layer0
10
-1.0626986
20
-12.7317587
11
-1.2492304
21
-12.939773
0
ARC
8
layer0
10
0.0000088
20
0.0000648
40
13
50
259.150734
51
264.4856344
0
LINE
8
layer0
10
-2.4469275
20
-12.7675701
11
-2.5672991
21
-12.5154298
0
LINE
8
layer0
10
-2.5672991
20
-12.5154298
11
-2.6875059
21
-12.2351894
0
LINE
8
layer0
10
-2.6875059
20
-12.2351894
11
-2.7898583
21
-11.965972
0
LINE
8
layer0
10
-2.7898583
20
-11.965972
11
-2.8748228
21
-11.7107968
0
LINE
8
layer0
10
-2.8748228
20
-11.7107968
11
-2.9440405
21
-11.4696948
0
LINE
8
layer0
10
-2.9440405
20
-11.4696948
11
-2.9988043
21
-11.2436917
0
LINE
8
layer0
10
-2.9988043
20
-11.2436917
11
-3.0406905
21
-11.0326281
0
LINE
8
layer0
10
-3.0406905
20
-11.0326281
11
-3.0706591
21
-10.8397376
0
LINE
8
layer0
10
-3.0706591
20
-10.8397376
11
-3.0907654
21
-10.6615529
0
LINE
8
layer0
10
-3.0907654
20
-10.6615529
11
-3.1020136
21
-10.5023427
0
LINE
8
layer0
10
-3.1020136
20
-10.5023427
11
-3.1044689
21
-10.2350039
0
LINE
8
layer0
10
-3.1044689
20
-10.2350039
11
-3.0901626
21
-10.0418632
0
LINE
8
layer0
10
-3.0901626
20
-10.0418632
11
-3.0712051
21
-9.9216115
0
LINE
8
layer0
10
-3.0712051
20
-9.9216115
11
-2.9982485
21
-9.7601257
0
LINE
8
layer0
10
-2.9982485
20
-9.7601257
11
-2.9214409
21
-9.5602613
0
LINE
8
layer0
10
-2.9214409
20
-9.5602613
11
-2.8660427
21
-9.3716501
0
LINE
8
layer0
10
-2.8660427
20
-9.3716501
11
-2.8309484
21
-9.1956985
0
LINE
8
layer0
10
-2.8309484
20
-9.1956985
11
-2.8149916
21
-9.0337524
0
LINE
8
layer0
10
-2.8149916
20
-9.0337524
11
-2.8169191
21
-8.8870879
0
LINE
8
layer0
10
-2.8169191
20
-8.8870879
11
-2.8353965
21
-8.7568751
0
LINE
8
layer0
10
-2.8353965
20
-8.7568751
11
-2.8690287
21
-8.6442237
0
LINE
8
layer0
10
-2.8690287
20
-8.6442237
11
-2.9163617
21
-8.5501385
0
LINE
8
layer0
10
-2.9163617
20
-8.5501385
11
-2.975886
21
-8.4755509
0
LINE
8
layer0
10
-2.975886
20
-8.4755509
11
-3.046033
21
-8.4212871
0
LINE
8
layer0
10
-3.046033
20
-8.4212871
11
-3.0845935
21
-8.4019951
0
LINE
8
layer0
10
-3.0845935
20
-8.4019951
11
-3.3948712
21
-8.2811726
0
LINE
8
layer0
10
-3.3948712
20
-8.2811726
11
-3.7179644
21
-8.1412064
0
LINE
8
layer0
10
-3.7179644
20
-8.1412064
11
-4.0353249
21
-7.9886872
0
LINE
8
layer0
10
-4.0353249
20
-7.9886872
11
-4.3298251
21
-7.8333169
0
LINE
8
layer0
10
-4.3298251
20
-7.8333169
11
-4.3696567
21
-7.8168084
0
LINE
8
layer0
10
-4.3696567
20
-7.8168084
11
-4.4566031
21
-7.79933
0
LINE
8
layer0
10
-4.4566031
20
-7.79933
11
-4.5519528
21
-7.8031891
0
LINE
8
layer0
10
-4.5519528
20
-7.8031891
11
-4.6540541
21
-7.8290299
0
LINE
8
layer0
10
-4.6540541
20
-7.8290299
11
-4.7612148
21
-7.8773833
0
LINE
8
layer0
10
-4.7612148
20
-7.8773833
11
-4.8717232
21
-7.9486903
0
LINE
8
layer0
10
-4.8717232
20
-7.9486903
11
-4.9838271
21
-8.0432784
0
LINE
8
layer0
10
-4.9838271
20
-8.0432784
11
-5.0957683
21
-8.1613899
0
LINE
8
layer0
10
-5.0957683
20
-8.1613899
11
-5.2057618
21
-8.3031363
0
LINE
8
layer0
10
-5.2057618
20
-8.3031363
11
-5.3120265
21
-8.4685175
0
LINE
8
layer0
10
-5.3120265
20
-8.4685175
11
-5.4127756
21
-8.657448
0
LINE
8
layer0
10
-5.4127756
20
-8.657448
11
-5.4870421
21
-8.8183357
0
LINE
8
layer0
10
-5.4870421
20
-8.8183357
11
-5.5655077
21
-8.911411
0
LINE
8
layer0
10
-5.5655077
20
-8.911411
11
-5.702105
21
-9.0487032
0
LINE
8
layer0
10
-5.702105
20
-9.0487032
11
-5.9057541
21
-9.2219173
0
LINE
8
layer0
10
-5.9057541
20
-9.2219173
11
-6.0334431
21
-9.317677
0
LINE
8
layer0
10
-6.0334431
20
-9.317677
11
-6.181273
21
-9.4191678
0
LINE
8
layer0
10
-6.181273
20
-9.4191678
11
-6.3466752
21
-9.5228355
0
LINE
8
layer0
10
-6.3466752
20
-9.5228355
11
-6.533616
21
-9.6293972
0
LINE
8
layer0
10
-6.533616
20
-9.6293972
11
-6.7402805
21
-9.7360101
0
LINE
8
layer0
10
-6.7402805
20
-9.7360101
11
-6.9678211
21
-9.8415871
0
LINE
8
layer0
10
-6.9678211
20
-9.8415871
11
-7.2163096
21
-9.9444794
0
LINE
8
layer0
10
-7.2163096
20
-9.9444794
11
-7.4867971
21
-10.0434265
0
LINE
8
layer0
10
-7.4867971
20
-10.0434265
11
-7.7773074
21
-10.1360988
0
LINE
8
layer0
10
-7.7773074
20
-10.1360988
11
-8.046689
21
-10.2102448
0
ARC
8
layer0
10
0.000043
20
0.0000492
40
13
50
226.4234576
51
231.7583579
0
LINE
8
layer0
10
-8.961156
20
-9.4178546
11
-8.9261017
21
-9.1406628
0
LINE
8
layer0
10
-8.9261017
20
-9.1406628
11
-8.8757166
21
-8.8399209
0
LINE
8
layer0
10
-8.8757166
20
-8.8399209
11
-8.816271
21
-8.5581049
0
LINE
8
layer0
10
-8.816271
20
-8.5581049
11
-8.7497896
21
-8.2975026
0
LINE
8
layer0
10
-8.7497896
20
-8.2975026
11
-8.6776696
21
-8.0572528
0
LINE
8
layer0
10
-8.6776696
20
-8.0572528
11
-8.6015533
21
-7.8375193
0
LINE
8
layer0
10
-8.6015533
20
-7.8375193
11
-8.5226807
21
-7.637316
0
LINE
8
layer0
10
-8.5226807
20
-7.637316
11
-8.4436074
21
-7.4588439
0
LINE
8
layer0
10
-8.4436074
20
-7.4588439
11
-8.364188
21
-7.2980751
0
LINE
8
layer0
10
-8.364188
20
-7.2980751
11
-8.2875751
21
-7.1580577
0
LINE
8
layer0
10
-8.2875751
20
-7.1580577
11
-8.1451063
21
-6.9318305
0
LINE
8
layer0
10
-8.1451063
20
-6.9318305
11
-8.0286513
21
-6.7770849
0
LINE
8
layer0
10
-8.0286513
20
-6.7770849
11
-7.9476903
21
-6.6861719
0
LINE
8
layer0
10
-7.9476903
20
-6.6861719
11
-7.7990094
21
-6.5897647
0
LINE
8
layer0
10
-7.7990094
20
-6.5897647
11
-7.62634
21
-6.4631534
0
LINE
8
layer0
10
-7.62634
20
-6.4631534
11
-7.4777652
21
-6.3344341
0
LINE
8
layer0
10
-7.4777652
20
-6.3344341
11
-7.3531152
21
-6.2053876
0
LINE
8
layer0
10
-7.3531152
20
-6.2053876
11
-7.2521369
21
-6.0777768
0
LINE
8
layer0
10
-7.2521369
20
-6.0777768
11
-7.1744656
21
-5.9533527
0
LINE
8
layer0
10
-7.1744656
20
-5.9533527
11
-7.1196114
21
-5.833821
0
LINE
8
layer0
10
-7.1196114
20
-5.833821
11
-7.0870007
21
-5.7208697
0
LINE
8
layer0
10
-7.0870007
20
-5.7208697
11
-7.0759535
21
-5.6161301
0
LINE
8
layer0
10
-7.0759535
20
-5.6161301
11
-7.0857034
21
-5.5212017
0
LINE
8
layer0
10
-7.0857034
20
-5.5212017
11
-7.1153775
21
-5.4376277
0
LINE
8
layer0
10
-7.1153775
20
-5.4376277
11
-7.1373866
21
-5.4005509
0
LINE
8
layer0
10
-7.1373866
20
-5.4005509
11
-7.3330873
21
-5.1311598
0
LINE
8
layer0
10
-7.3330873
20
-5.1311598
11
-7.5292191
21
-4.8387353
0
LINE
8
layer0
10
-7.5292191
20
-4.8387353
11
-7.7137417
21
-4.53885
0
LINE
8
layer0
10
-7.7137417
20
-4.53885
11
-7.8774915
21
-4.2489253
0
LINE
8
layer0
10
-7.8774915
20
-4.2489253
11
-7.9020748
21
-4.2135029
0
LINE
8
layer0
10
-7.9020748
20
-4.2135029
11
-7.9657693
21
-4.1517924
0
LINE
8
layer0
10
-7.9657693
20
-4.1517924
11
-8.0480689
21
-4.1034889
0
LINE
8
layer0
10
-8.0480689
20
-4.1034889
11
-8.1479326
21
-4.0700274
0
LINE
8
layer0
10
-8.1479326
20
-4.0700274
11
-8.2642237
21
-4.0527695
0
LINE
8
layer0
10
-8.2642237
20
-4.0527695
11
-8.3957408
21
-4.0530114
0
LINE
8
layer0
10
-8.3957408
20
-4.0530114
11
-8.5411868
21
-4.071976
0
LINE
8
layer0
10
-8.5411868
20
-4.071976
11
-8.6992136
21
-4.1108177
0
LINE
8
layer0
10
-8.6992136
20
-4.1108177
11
-8.8683799
21
-4.1705954
0
LINE
8
layer0
10
-8.8683799
20
-4.1705954
11
-9.0471873
21
-4.2522719
0
LINE
8
layer0
10
-9.0471873
20
-4.2522719
11
-9.2340864
21
-4.3567413
0
LINE
8
layer0
10
-9.2340864
20
-4.3567413
11
-9.3835458
21
-4.4519372
0
LINE
8
layer0
10
-9.3835458
20
-4.4519372
11
-9.4998755
21
-4.4878153
0
LINE
8
layer0
10
-9.4998755
20
-4.4878153
11
-9.6890143
21
-4.5294628
0
LINE
8
layer0
10
-9.6890143
20
-4.5294628
11
-9.9539815
21
-4.5650788
0
LINE
8
layer0
10
-9.9539815
20
-4.5650788
11
-10.1131719
21
-4.5766031
0
LINE
8
layer0
10
-10.1131719
20
-4.5766031
11
-10.2924043
21
-4.5820597
0
LINE
8
layer0
10
-10.2924043
20
-4.5820597
11
-10.4875965
21
-4.5798473
0
LINE
8
layer0
10
-10.4875965
20
-4.5798473
11
-10.7024727
21
-4.5684249
0
LINE
8
layer0
10
-10.7024727
20
-4.5684249
11
-10.9339692
21
-4.5463822
0
LINE
8
layer0
10
-10.9339692
20
-4.5463822
11
-11.1824678
21
-4.5121814
0
LINE
8
layer0
10
-11.1824678
20
-4.5121814
11
-11.4471374
21
-4.464397
0
LINE
8
layer0
10
-11.4471374
20
-4.464397
11
-11.7281808
21
-4.4013999
0
LINE
8
layer0
10
-11.7281808
20
-4.4013999
11
-12.022676
21
-4.3222991
0
LINE
8
layer0
10
-12.022676
20
-4.3222991
11
-12.2893806
21
-4.239036
0
ARC
8
layer0
10
0.0000628
20
0.0000182
40
13
50
193.6961854
51
199.0310855
0
LINE
8
layer0
10
-12.6302807
20
-3.0780368
11
-12.45093
21
-2.8638
0
LINE
8
layer0
10
-12.45093
20
-2.8638
11
-12.24595
21
-2.63804
0
LINE
8
layer0
10
-12.24595
20
-2.63804
11
-12.04358
21
-2.4331
0
LINE
8
layer0
10
-12.04358
20
-2.4331
11
-11.84676
21
-2.24981
0
LINE
8
layer0
10
-11.84676
20
-2.24981
11
-11.6562
21
-2.08669
0
LINE
8
layer0
10
-11.6562
20
-2.08669
11
-11.47337
21
-1.94299
0
LINE
8
layer0
10
-11.47337
20
-1.94299
11
-11.29878
21
-1.81721
0
LINE
8
layer0
10
-11.29878
20
-1.81721
11
-11.13577
21
-1.70982
0
LINE
8
layer0
10
-11.13577
20
-1.70982
11
-10.98204
21
-1.61751
0
LINE
8
layer0
10
-10.98204
20
-1.61751
11
-10.84189
21
-1.54114
0
LINE
8
layer0
10
-10.84189
20
-1.54114
11
-10.59973
21
-1.42785
0
LINE
8
layer0
10
-10.59973
20
-1.42785
11
-10.4181
21
-1.36063
0
LINE
8
layer0
10
-10.4181
20
-1.36063
11
-10.30084
21
-1.32792
0
LINE
8
layer0
10
-10.30084
20
-1.32792
11
-10.12364
21
-1.3272
0
LINE
8
layer0
10
-10.12364
20
-1.3272
11
-9.90993
21
-1.31404
0
LINE
8
layer0
10
-9.90993
20
-1.31404
11
-9.71535
21
-1.28608
0
LINE
8
layer0
10
-9.71535
20
-1.28608
11
-9.54072
21
-1.24491
0
LINE
8
layer0
10
-9.54072
20
-1.24491
11
-9.38678
21
-1.19215
0
LINE
8
layer0
10
-9.38678
20
-1.19215
11
-9.25417
21
-1.12947
0
LINE
8
layer0
10
-9.25417
20
-1.12947
11
-9.1434
21
-1.05857
0
LINE
8
layer0
10
-9.1434
20
-1.05857
11
-9.0549
21
-0.98118
0
LINE
8
layer0
10
-9.0549
20
-0.98118
11
-8.98898
21
-0.89904
0
LINE
8
layer0
10
-8.98898
20
-0.89904
11
-8.94586
21
-0.81391
0
LINE
8
layer0
10
-8.94586
20
-0.81391
11
-8.92564
21
-0.72756
0
LINE
8
layer0
10
-8.92564
20
-0.72756
11
-8.92411
21
-0.68447
0
LINE
8
layer0
10
-8.92411
20
-0.68447
11
-8.9431
21
-0.35204
0
LINE
8
layer0
10
-8.9431
20
-0.35204
11
-8.95
21
0
0
LINE
8
layer0
10
-8.95
20
0
11
-8.9431
21
0.35204
0
LINE
8
layer0
10
-8.9431
20
0.35204
11
-8.92411
21
0.68447
0
LINE
8
layer0
10
-8.92411
20
0.68447
11
-8.92564
21
0.72756
0
LINE
8
layer0
10
-8.92564
20
0.72756
11
-8.94586
21
0.81391
0
LINE
8
layer0
10
-8.94586
20
0.81391
11
-8.98898
21
0.89904
0
LINE
8
layer0
10
-8.98898
20
0.89904
11
-9.0549
21
0.98118
0
LINE
8
layer0
10
-9.0549
20
0.98118
11
-9.1434
21
1.05857
0
LINE
8
layer0
10
-9.1434
20
1.05857
11
-9.25417
21
1.12947
0
LINE
8
layer0
10
-9.25417
20
1.12947
11
-9.38678
21
1.19215
0
LINE
8
layer0
10
-9.38678
20
1.19215
11
-9.54072
21
1.24491
0
LINE
8
layer0
10
-9.54072
20
1.24491
11
-9.71535
21
1.28608
0
LINE
8
layer0
10
-9.71535
20
1.28608
11
-9.90993
21
1.31404
0
LINE
8
layer0
10
-9.90993
20
1.31404
11
-10.12364
21
1.3272
0
LINE
8
layer0
10
-10.12364
20
1.3272
11
-10.30084
21
1.32792
0
LINE
8
layer0
10
-10.30084
20
1.32792
11
-10.4181
21
1.36063
0
LINE
8
layer0
10
-10.4181
20
1.36063
11
-10.59973
21
1.42785
0
LINE
8
layer0
10
-10.59973
20
1.42785
11
-10.84189
21
1.54114
0
LINE
8
layer0
10
-10.84189
20
1.54114
11
-10.98204
21
1.61751
0
LINE
8
layer0
10
-10.98204
20
1.61751
11
-11.13577
21
1.70982
0
LINE
8
layer0
10
-11.13577
20
1.70982
11
-11.29878
21
1.81721
0
LINE
8
layer0
10
-11.29878
20
1.81721
11
-11.47337
21
1.94299
0
LINE
8
layer0
10
-11.47337
20
1.94299
11
-11.6562
21
2.08669
0
LINE
8
layer0
10
-11.6562
20
2.08669
11
-11.84676
21
2.24981
0
LINE
8
layer0
10
-11.84676
20
2.24981
11
-12.04358
21
2.4331
0
LINE
8
layer0
10
-12.04358
20
2.4331
11
-12.24595
21
2.63804
0
LINE
8
layer0
10
-12.24595
20
2.63804
11
-12.45093
21
2.8638
0
LINE
8
layer0
10
-12.45093
20
2.8638
11
-12.6302807
21
3.0780368
0
ARC
8
layer0
10
0.0000628
20
-0.0000182
40
13
50
160.9689145
51
166.3038146
0
LINE
8
layer0
10
-12.2893806
20
4.239036
11
-12.022676
21
4.3222991
0
LINE
8
layer0
10
-12.022676
20
4.3222991
11
-11.7281808
21
4.4013999
0
LINE
8
layer0
10
-11.7281808
20
4.4013999
11
-11.4471374
21
4.464397
0
LINE
8
layer0
10
-11.4471374
20
4.464397
11
-11.1824678
21
4.5121814
0
LINE
8
layer0
10
-11.1824678
20
4.5121814
11
-10.9339692
21
4.5463822
0
LINE
8
layer0
10
-10.9339692
20
4.5463822
11
-10.7024727
21
4.5684249
0
LINE
8
layer0
10
-10.7024727
20
4.5684249
11
-10.4875965
21
4.5798473
0
LINE
8
layer0
10
-10.4875965
20
4.5798473
11
-10.2924043
21
4.5820597
0
LINE
8
layer0
10
-10.2924043
20
4.5820597
11
-10.1131719
21
4.5766031
0
LINE
8
layer0
10
-10.1131719
20
4.5766031
11
-9.9539815
21
4.5650788
0
LINE
8
layer0
10
-9.9539815
20
4.5650788
11
-9.6890143
21
4.5294628
0
LINE
8
layer0
10
-9.6890143
20
4.5294628
11
-9.4998755
21
4.4878153
0
LINE
8
layer0
10
-9.4998755
20
4.4878153
11
-9.3835458
21
4.4519372
0
LINE
8
layer0
10
-9.3835458
20
4.4519372
11
-9.2340864
21
4.3567413
0
LINE
8
layer0
10
-9.2340864
20
4.3567413
11
-9.0471873
21
4.2522719
0
LINE
8
layer0
10
-9.0471873
20
4.2522719
11
-8.8683799
21
4.1705954
0
LINE
8
layer0
10
-8.8683799
20
4.1705954
11
-8.6992136
21
4.1108177
0
LINE
8
layer0
10
-8.6992136
20
4.1108177
11
-8.5411868
21
4.071976
0
LINE
8
layer0
10
-8.5411868
20
4.071976
11
-8.3957408
21
4.0530114
0
LINE
8
layer0
10
-8.3957408
20
4.0530114
11
-8.2642237
21
4.0527695
0
LINE
8
layer0
10
-8.2642237
20
4.0527695
11
-8.1479326
21
4.0700274
0
LINE
8
layer0
10
-8.1479326
20
4.0700274
11
-8.0480689
21
4.1034889
0
LINE
8
layer0
10
-8.0480689
20
4.1034889
11
-7.9657693
21
4.1517924
0
LINE
8
layer0
10
-7.9657693
20
4.1517924
11
-7.9020748
21
4.2135029
0
LINE
8
layer0
10
-7.9020748
20
4.2135029
11
-7.8774915
21
4.2489253
0
LINE
8
layer0
10
-7.8774915
20
4.2489253
11
-7.7137417
21
4.53885
0
LINE
8
layer0
10
-7.7137417
20
4.53885
11
-7.5292191
21
4.8387353
0
LINE
8
layer0
10
-7.5292191
20
4.8387353
11
-7.3330873
21
5.1311598
0
LINE
8
layer0
10
-7.3330873
20
5.1311598
11
-7.1373866
21
5.4005509
0
LINE
8
layer0
10
-7.1373866
20
5.4005509
11
-7.1153775
21
5.4376277
0
LINE
8
layer0
10
-7.1153775
20
5.4376277
11
-7.0857034
21
5.5212017
0
LINE
8
layer0
10
-7.0857034
20
5.5212017
11
-7.0759535
21
5.6161301
0
LINE
8
layer0
10
-7.0759535
20
5.6161301
11
-7.0870007
21
5.7208697
0
LINE
8
layer0
10
-7.0870007
20
5.7208697
11
-7.1196114
21
5.833821
0
LINE
8
layer0
10
-7.1196114
20
5.833821
11
-7.1744656
21
5.9533527
0
LINE
8
layer0
10
-7.1744656
20
5.9533527
11
-7.2521369
21
6.0777768
0
LINE
8
layer0
10
-7.2521369
20
6.0777768
11
-7.3531152
21
6.2053876
0
LINE
8
layer0
10
-7.3531152
20
6.2053876
11
-7.4777652
21
6.3344341
0
LINE
8
layer0
10
-7.4777652
20
6.3344341
11
-7.62634
21
6.4631534
0
LINE
8
layer0
10
-7.62634
20
6.4631534
11
-7.7990094
21
6.5897647
0
LINE
8
layer0
10
-7.7990094
20
6.5897647
11
-7.9476903
21
6.6861719
0
LINE
8
layer0
10
-7.9476903
20
6.6861719
11
-8.0286513
21
6.7770849
0
LINE
8
layer0
10
-8.0286513
20
6.7770849
11
-8.1451063
21
6.9318305
0
LINE
8
layer0
10
-8.1451063
20
6.9318305
11
-8.2875751
21
7.1580577
0
LINE
8
layer0
10
-8.2875751
20
7.1580577
11
-8.364188
21
7.2980751
0
LINE
8
layer0
10
-8.364188
20
7.2980751
11
-8.4436074
21
7.4588439
0
LINE
8
layer0
10
-8.4436074
20
7.4588439
11
-8.5226807
21
7.637316
0
LINE
8
layer0
10
-8.5226807
20
7.637316
11
-8.6015533
21
7.8375193
0
LINE
8
layer0
10
-8.6015533
20
7.8375193
11
-8.6776696
21
8.0572528
0
LINE
8
layer0
10
-8.6776696
20
8.0572528
11
-8.7497896
21
8.2975026
0
LINE
8
layer0
10
-8.7497896
20
8.2975026
11
-8.816271
21
8.5581049
0
LINE
8
layer0
10
-8.816271
20
8.5581049
11
-8.8757166
21
8.8399209
0
LINE
8
layer0
10
-8.8757166
20
8.8399209
11
-8.9261017
21
9.1406628
0
LINE
8
layer0
10
-8.9261017
20
9.1406628
11
-8.961156
21
9.4178546
0
ARC
8
layer0
10
0.000043
20
-0.0000492
40
13
50
128.2416421
51
133.5765424
0
LINE
8
layer0
10
-8.046689
20
10.2102448
11
-7.7773074
21
10.1360988
0
LINE
8
layer0
10
-7.7773074
20
10.1360988
11
-7.4867971
21
10.0434265
0
LINE
8
layer0
10
-7.4867971
20
10.0434265
11
-7.2163096
21
9.9444794
0
LINE
8
layer0
10
-7.2163096
20
9.9444794
11
-6.9678211
21
9.8415871
0
LINE
8
layer0
10
-6.9678211
20
9.8415871
11
-6.7402805
21
9.7360101
0
LINE
8
layer0
10
-6.7402805
20
9.7360101
11
-6.533616
21
9.6293972
0
LINE
8
layer0
10
-6.533616
20
9.6293972
11
-6.3466752
21
9.5228355
0
LINE
8
layer0
10
-6.3466752
20
9.5228355
11
-6.181273
21
9.4191678
0
LINE
8
layer0
10
-6.181273
20
9.4191678
11
-6.0334431
21
9.317677
0
LINE
8
layer0
10
-6.0334431
20
9.317677
11
-5.9057541
21
9.2219173
0
LINE
8
layer0
10
-5.9057541
20
9.2219173
11
-5.702105
21
9.0487032
0
LINE
8
layer0
10
-5.702105
20
9.0487032
11
-5.5655077
21
8.911411
0
LINE
8
layer0
10
-5.5655077
20
8.911411
11
-5.4870421
21
8.8183357
0
LINE
8
layer0
10
-5.4870421
20
8.8183357
11
-5.4127756
21
8.657448
0
LINE
8
layer0
10
-5.4127756
20
8.657448
11
-5.3120265
21
8.4685175
0
LINE
8
layer0
10
-5.3120265
20
8.4685175
11
-5.2057618
21
8.3031363
0
LINE
8
layer0
10
-5.2057618
20
8.3031363
11
-5.0957683
21
8.1613899
0
LINE
8
layer0
10
-5.0957683
20
8.1613899
11
-4.9838271
21
8.0432784
0
LINE
8
layer0
10
-4.9838271
20
8.0432784
11
-4.8717232
21
7.9486903
0
LINE
8
layer0
10
-4.8717232
20
7.9486903
11
-4.7612148
21
7.8773833
0
LINE
8
layer0
10
-4.7612148
20
7.8773833
11
-4.6540541
21
7.8290299
0
LINE
8
layer0
10
-4.6540541
20
7.8290299
11
-4.5519528
21
7.8031891
0
LINE
8
layer0
10
-4.5519528
20
7.8031891
11
-4.4566031
21
7.79933
0
LINE
8
layer0
10
-4.4566031
20
7.79933
11
-4.3696567
21
7.8168084
0
LINE
8
layer0
10
-4.3696567
20
7.8168084
11
-4.3298251
21
7.8333169
0
LINE
8
layer0
10
-4.3298251
20
7.8333169
11
-4.0353249
21
7.9886872
0
LINE
8
layer0
10
-4.0353249
20
7.9886872
11
-3.7179644
21
8.1412064
0
LINE
8
layer0
10
-3.7179644
20
8.1412064
11
-3.3948712
21
8.2811726
0
LINE
8
layer0
10
-3.3948712
20
8.2811726
11
-3.0845935
21
8.4019951
0
LINE
8
layer0
10
-3.0845935
20
8.4019951
11
-3.046033
21
8.4212871
0
LINE
8
layer0
10
-3.046033
20
8.4212871
11
-2.975886
21
8.4755509
0
LINE
8
layer0
10
-2.975886
20
8.4755509
11
-2.9163617
21
8.5501385
0
LINE
8
layer0
10
-2.9163617
20
8.5501385
11
-2.8690287
21
8.6442237
0
LINE
8
layer0
10
-2.8690287
20
8.6442237
11
-2.8353965
21
8.7568751
0
LINE
8
layer0
10
-2.8353965
20
8.7568751
11
-2.8169191
21
8.8870879
0
LINE
8
layer0
10
-2.8169191
20
8.8870879
11
-2.8149916
21
9.0337524
0
LINE
8
layer0
10
-2.8149916
20
9.0337524
11
-2.8309484
21
9.1956985
0
LINE
8
layer0
10
-2.8309484
20
9.1956985
11
-2.8660427
21
9.3716501
0
LINE
8
layer0
10
-2.8660427
20
9.3716501
11
-2.9214409
21
9.5602613
0
LINE
8
layer0
10
-2.9214409
20
9.5602613
11
-2.9982485
21
9.7601257
0
LINE
8
layer0
10
-2.9982485
20
9.7601257
11
-3.0712051
21
9.9216115
0
LINE
8
layer0
10
-3.0712051
20
9.9216115
11
-3.0901626
21
10.0418632
0
LINE
8
layer0
10
-3.0901626
20
10.0418632
11
-3.1044689
21
10.2350039
0
LINE
8
layer0
10
-3.1044689
20
10.2350039
11
-3.1020136
21
10.5023427
0
LINE
8
layer0
10
-3.1020136
20
10.5023427
11
-3.0907654
21
10.6615529
0
LINE
8
layer0
10
-3.0907654
20
10.6615529
11
-3.0706591
21
10.8397376
0
LINE
8
layer0
10
-3.0706591
20
10.8397376
11
-3.0406905
21
11.0326281
0
LINE
8
layer0
10
-3.0406905
20
11.0326281
11
-2.9988043
21
11.2436917
0
LINE
8
layer0
10
-2.9988043
20
11.2436917
11
-2.9440405
21
11.4696948
0
LINE
8
layer0
10
-2.9440405
20
11.4696948
11
-2.8748228
21
11.7107968
0
LINE
8
layer0
10
-2.8748228
20
11.7107968
11
-2.7898583
21
11.965972
0
LINE
8
layer0
10
-2.7898583
20
11.965972
11
-2.6875059
21
12.2351894
0
LINE
8
layer0
10
-2.6875059
20
12.2351894
11
-2.5672991
21
12.5154298
0
LINE
8
layer0
10
-2.5672991
20
12.5154298
11
-2.4469275
21
12.7675701
0
ARC
8
layer0
10
0.0000089
20
-0.0000649
40
13
50
95.5143661
51
100.8492664
0
LINE
8
layer0
10
-1.2492304
20
12.939773
11
-1.0626986
21
12.7317587
0
LINE
8
layer0
10
-1.0626986
20
12.7317587
11
-0.8684082
21
12.4967361
0
LINE
8
layer0
10
-0.8684082
20
12.4967361
11
-0.6943544
21
12.26726
0
LINE
8
layer0
10
-0.6943544
20
12.26726
11
-0.5409404
21
12.0463584
0
LINE
8
layer0
10
-0.5409404
20
12.0463584
11
-0.4066003
21
11.8345236
0
LINE
8
layer0
10
-0.4066003
20
11.8345236
11
-0.2903824
21
11.6331039
0
LINE
8
layer0
10
-0.2903824
20
11.6331039
11
-0.1907294
21
11.4423907
0
LINE
8
layer0
10
-0.1907294
20
11.4423907
11
-0.1076312
21
11.2657567
0
LINE
8
layer0
10
-0.1076312
20
11.2657567
11
-0.0381388
21
11.1004543
0
LINE
8
layer0
10
-0.0381388
20
11.1004543
11
0.0175084
21
10.9508623
0
LINE
8
layer0
10
0.0175084
20
10.9508623
11
0.0951823
21
10.6950443
0
LINE
8
layer0
10
0.0951823
20
10.6950443
11
0.1358695
21
10.5056966
0
LINE
8
layer0
10
0.1358695
20
10.5056966
11
0.1515587
21
10.384975
0
LINE
8
layer0
10
0.1515587
20
10.384975
11
0.1270532
21
10.2094762
0
LINE
8
layer0
10
0.1270532
20
10.2094762
11
0.1096651
21
9.9960686
0
LINE
8
layer0
10
0.1096651
20
9.9960686
11
0.1096489
21
9.79949
0
LINE
8
layer0
10
0.1096489
20
9.79949
11
0.1255474
21
9.6207784
0
LINE
8
layer0
10
0.1255474
20
9.6207784
11
0.1558624
21
9.4608967
0
LINE
8
layer0
10
0.1558624
20
9.4608967
11
0.1990321
21
9.3207162
0
LINE
8
layer0
10
0.1990321
20
9.3207162
11
0.2534462
21
9.2009836
0
LINE
8
layer0
10
0.2534462
20
9.2009836
11
0.3174536
21
9.1023706
0
LINE
8
layer0
10
0.3174536
20
9.1023706
11
0.3893762
21
9.0254319
0
LINE
8
layer0
10
0.3893762
20
9.0254319
11
0.467503
21
8.9706355
0
LINE
8
layer0
10
0.467503
20
8.9706355
11
0.5500965
21
8.9383324
0
LINE
8
layer0
10
0.5500965
20
8.9383324
11
0.5925302
21
8.9306857
0
LINE
8
layer0
10
0.5925302
20
8.9306857
11
0.9242791
21
8.9021727
0
LINE
8
layer0
10
0.9242791
20
8.9021727
11
1.2737178
21
8.8589019
0
LINE
8
layer0
10
1.2737178
20
8.8589019
11
1.6211926
21
8.8019716
0
LINE
8
layer0
10
1.6211926
20
8.8019716
11
1.9475364
21
8.7358652
0
LINE
8
layer0
10
1.9475364
20
8.7358652
11
1.9904055
21
8.7312473
0
LINE
8
layer0
10
1.9904055
20
8.7312473
11
2.0787542
21
8.7389726
0
LINE
8
layer0
10
2.0787542
20
8.7389726
11
2.1691543
21
8.7695384
0
LINE
8
layer0
10
2.1691543
20
8.7695384
11
2.2598396
21
8.8230977
0
LINE
8
layer0
10
2.2598396
20
8.8230977
11
2.3490368
21
8.8996832
0
LINE
8
layer0
10
2.3490368
20
8.8996832
11
2.4349793
21
8.9992356
0
LINE
8
layer0
10
2.4349793
20
8.9992356
11
2.5158937
21
9.1215755
0
LINE
8
layer0
10
2.5158937
20
9.1215755
11
2.5900246
21
9.2664401
0
LINE
8
layer0
10
2.5900246
20
9.2664401
11
2.655628
21
9.4334335
0
LINE
8
layer0
10
2.655628
20
9.4334335
11
2.7109951
21
9.6220538
0
LINE
8
layer0
10
2.7109951
20
9.6220538
11
2.7544352
21
9.8317157
0
LINE
8
layer0
10
2.7544352
20
9.8317157
11
2.7803661
21
10.0070096
0
LINE
8
layer0
10
2.7803661
20
10.0070096
11
2.829431
21
10.1184209
0
LINE
8
layer0
10
2.829431
20
10.1184209
11
2.9218154
21
10.2886358
0
LINE
8
layer0
10
2.9218154
20
10.2886358
11
3.0684152
21
10.5122081
0
LINE
8
layer0
10
3.0684152
20
10.5122081
11
3.1639533
21
10.640063
0
LINE
8
layer0
10
3.1639533
20
10.640063
11
3.2772018
21
10.7790912
0
LINE
8
layer0
10
3.2772018
20
10.7790912
11
3.4066975
21
10.9251588
0
LINE
8
layer0
10
3.4066975
20
10.9251588
11
3.556044
21
11.0800713
0
LINE
8
layer0
10
3.556044
20
11.0800713
11
3.7243007
21
11.2405897
0
LINE
8
layer0
10
3.7243007
20
11.2405897
11
3.9128799
21
11.4059957
0
LINE
8
layer0
10
3.9128799
20
11.4059957
11
4.1223147
21
11.5747275
0
LINE
8
layer0
10
4.1223147
20
11.5747275
11
4.353969
21
11.7458717
0
LINE
8
layer0
10
4.353969
20
11.7458717
11
4.6066027
21
11.9166363
0
LINE
8
layer0
10
4.6066027
20
11.9166363
11
4.8441831
21
12.0636724
0
ARC
8
layer0
10
-0.0000273
20
-0.0000594
40
13
50
62.7870947
51
68.1219952
0
LINE
8
layer0
10
5.9448499
20
11.5610147
11
5.9893095
21
11.2851752
0
LINE
8
layer0
10
5.9893095
20
11.2851752
11
6.0256942
21
10.9824203
0
LINE
8
layer0
10
6.0256942
20
10.9824203
11
6.0480533
21
10.6952721
0
LINE
8
layer0
10
6.0480533
20
10.6952721
11
6.057685
21
10.4264961
0
LINE
8
layer0
10
6.057685
20
10.4264961
11
6.0561726
21
10.1756595
0
LINE
8
layer0
10
6.0561726
20
10.1756595
11
6.0450456
21
9.9433824
0
LINE
8
layer0
10
6.0450456
20
9.9433824
11
6.0257717
21
9.7290677
0
LINE
8
layer0
10
6.0257717
20
9.7290677
11
6.0001828
21
9.5355474
0
LINE
8
layer0
10
6.0001828
20
9.5355474
11
5.9692743
21
9.3589158
0
LINE
8
layer0
10
5.9692743
20
9.3589158
11
5.9352121
21
9.2029858
0
LINE
8
layer0
10
5.9352121
20
9.2029858
11
5.8622499
21
8.9457843
0
LINE
8
layer0
10
5.8622499
20
8.9457843
11
5.7941091
21
8.7644978
0
LINE
8
layer0
10
5.7941091
20
8.7644978
11
5.7420407
21
8.6544581
0
LINE
8
layer0
10
5.7420407
20
8.6544581
11
5.6265435
21
8.5200678
0
LINE
8
layer0
10
5.6265435
20
8.5200678
11
5.4965389
21
8.3499386
0
LINE
8
layer0
10
5.4965389
20
8.3499386
11
5.3902468
21
8.1845749
0
LINE
8
layer0
10
5.3902468
20
8.1845749
11
5.3070027
21
8.0256378
0
LINE
8
layer0
10
5.3070027
20
8.0256378
11
5.2460668
21
7.8747472
0
LINE
8
layer0
10
5.2460668
20
7.8747472
11
5.2065961
21
7.7334806
0
LINE
8
layer0
10
5.2065961
20
7.7334806
11
5.1876398
21
7.6033366
0
LINE
8
layer0
10
5.1876398
20
7.6033366
11
5.1881721
21
7.4857731
0
LINE
8
layer0
10
5.1881721
20
7.4857731
11
5.2070809
21
7.3821638
0
LINE
8
layer0
10
5.2070809
20
7.3821638
11
5.2431803
21
7.2938276
0
LINE
8
layer0
10
5.2431803
20
7.2938276
11
5.295198
21
7.2219991
0
LINE
8
layer0
10
5.295198
20
7.2219991
11
5.3267613
21
7.1926249
0
LINE
8
layer0
10
5.3267613
20
7.1926249
11
5.5904309
21
6.9892812
0
LINE
8
layer0
10
5.5904309
20
6.9892812
11
5.8610036
21
6.7639587
0
LINE
8
layer0
10
5.8610036
20
6.7639587
11
6.1225391
21
6.5282068
0
LINE
8
layer0
10
6.1225391
20
6.5282068
11
6.3613371
21
6.2961598
0
LINE
8
layer0
10
6.3613371
20
6.2961598
11
6.3949043
21
6.2690982
0
LINE
8
layer0
10
6.3949043
20
6.2690982
11
6.4734046
21
6.2278322
0
LINE
8
layer0
10
6.4734046
20
6.2278322
11
6.5659791
21
6.2046718
0
LINE
8
layer0
10
6.5659791
20
6.2046718
11
6.6712248
21
6.2007006
0
LINE
8
layer0
10
6.6712248
20
6.2007006
11
6.7876675
21
6.2169047
0
LINE
8
layer0
10
6.7876675
20
6.2169047
11
6.913789
21
6.2541895
0
LINE
8
layer0
10
6.913789
20
6.2541895
11
7.0480005
21
6.3133628
0
LINE
8
layer0
10
7.0480005
20
6.3133628
11
7.1886831
21
6.3951524
0
LINE
8
layer0
10
7.1886831
20
6.3951524
11
7.3341556
21
6.5001683
0
LINE
8
layer0
10
7.3341556
20
6.5001683
11
7.4827092
21
6.6289122
0
LINE
8
layer0
10
7.4827092
20
6.6289122
11
7.6326052
21
6.7818055
0
LINE
8
layer0
10
7.6326052
20
6.7818055
11
7.7491906
21
6.9152528
0
LINE
8
layer0
10
7.7491906
20
6.9152528
11
7.8507002
21
6.9824515
0
LINE
8
layer0
10
7.8507002
20
6.9824515
11
8.020444
21
7.0756985
0
LINE
8
layer0
10
8.020444
20
7.0756985
11
8.2646439
21
7.1845217
0
LINE
8
layer0
10
8.2646439
20
7.1845217
11
8.4141393
21
7.2404283
0
LINE
8
layer0
10
8.4141393
20
7.2404283
11
8.5845743
21
7.2961595
0
LINE
8
layer0
10
8.5845743
20
7.2961595
11
8.772483
21
7.3490287
0
LINE
8
layer0
10
8.772483
20
7.3490287
11
8.9818734
21
7.3986066
0
LINE
8
layer0
10
8.9818734
20
7.3986066
11
9.2102028
21
7.4426768
0
LINE
8
layer0
10
9.2102028
20
7.4426768
11
9.4582709
21
7.4798716
0
LINE
8
layer0
10
9.4582709
20
7.4798716
11
9.7256819
21
7.5085888
0
LINE
8
layer0
10
9.7256819
20
7.5085888
11
10.0130894
21
7.5273227
0
LINE
8
layer0
10
10.0130894
20
7.5273227
11
10.3179408
21
7.5343949
0
LINE
8
layer0
10
10.3179408
20
7.5343949
11
10.5972999
21
7.5296439
0
ARC
8
layer0
10
-0.0000547
20
-0.0000358
40
13
50
30.0598251
51
35.3947254
0
LINE
8
layer0
10
11.2514824
20
6.5117159
11
11.1397542
21
6.2556283
0
LINE
8
layer1
10
11.1397542
20
6.2556283
11
11.0066812
21
5.9812636
0
LINE
8
layer1
10
11.0066812
20
5.9812636
11
10.8702469
21
5.7276109
0
LINE
8
layer1
10
10.8702469
20
5.7276109
11
10.7330383
21
5.4962949
0
LINE
8
layer1
10
10.7330383
20
5.4962949
11
10.5961535
21
5.2860954
0
LINE
8
layer1
10
10.5961535
20
5.2860954
11
10.4612144
21
5.0967071
0
LINE
8
layer1
10
10.4612144
20
5.0967071
11
10.3291328
21
4.9268344
0
LINE
8
layer1
10
10.3291328
20
4.9268344
11
10.2029811
21
4.7778692
0
LINE
8
layer1
10
10.2029811
20
4.7778692
11
10.081485
21
4.6459877
0
LINE
8
layer1
10
10.081485
20
4.6459877
11
9.968528
21
4.5332264
0
LINE
8
layer1
10
9.968528
20
4.5332264
11
9.7680946
21
4.3563011
0
LINE
8
layer1
10
9.7680946
20
4.3563011
11
9.61276
21
4.2406329
0
LINE
8
layer1
10
9.61276
20
4.2406329
11
9.5094653
21
4.1762119
0
LINE
8
layer1
10
9.5094653
20
4.1762119
11
9.339646
21
4.1255981
0
LINE
8
layer1
10
9.339646
20
4.1255981
11
9.1383004
21
4.0527621
0
LINE
8
layer1
10
9.1383004
20
4.0527621
11
8.9594795
21
3.9711151
0
LINE
8
layer1
10
8.9594795
20
3.9711151
11
8.8035221
21
3.8824138
0
LINE
8
layer1
10
8.8035221
20
3.8824138
11
8.670682
21
3.7884211
0
LINE
8
layer1
10
8.670682
20
3.7884211
11
8.5611026
21
3.6909195
0
LINE
8
layer1
10
8.5611026
20
3.6909195
11
8.4747944
21
3.5916839
0
LINE
8
layer1
10
8.4747944
20
3.5916839
11
8.4116826
21
3.4924954
0
LINE
8
layer1
10
8.4116826
20
3.4924954
11
8.3715743
21
3.3951109
0
LINE
8
layer1
10
8.3715743
20
3.3951109
11
8.3541849
21
3.3012809
0
LINE
8
layer1
10
8.3541849
20
3.3012809
11
8.3591115
21
3.2127321
0
LINE
8
layer1
10
8.3591115
20
3.2127321
11
8.3697834
21
3.1709565
0
LINE
8
layer1
10
8.3697834
20
3.1709565
11
8.4816605
21
2.8573423
0
LINE
8
layer1
10
8.4816605
20
2.8573423
11
8.5874621
21
2.5215064
0
LINE
8
layer1
10
8.5874621
20
2.5215064
11
8.6800227
21
2.1817825
0
LINE
8
layer1
10
8.6800227
20
2.1817825
11
8.7554583
21
1.8574682
0
LINE
8
layer1
10
8.7554583
20
1.8574682
11
8.7690662
21
1.8165547
0
LINE
8
layer1
10
8.7690662
20
1.8165547
11
8.8127948
21
1.7393991
0
LINE
8
layer1
10
8.8127948
20
1.7393991
11
8.878152
21
1.6698658
0
LINE
8
layer1
10
8.878152
20
1.6698658
11
8.9645433
21
1.6096248
0
LINE
8
layer1
10
8.9645433
20
1.6096248
11
9.0712617
21
1.560303
0
LINE
8
layer1
10
9.0712617
20
1.560303
11
9.1975196
21
1.5234824
0
LINE
8
layer1
10
9.1975196
20
1.5234824
11
9.3424169
21
1.500702
0
LINE
8
layer1
10
9.3424169
20
1.500702
11
9.5049855
21
1.493449
0
LINE
8
layer1
10
9.5049855
20
1.493449
11
9.6841407
21
1.5031457
0
LINE
8
layer1
10
9.6841407
20
1.5031457
11
9.8787161
21
1.5311378
0
LINE
8
layer1
10
9.8787161
20
1.5311378
11
10.0874769
21
1.5787199
0
LINE
8
layer1
10
10.0874769
20
1.5787199
11
10.2577019
21
1.6279521
0
LINE
8
layer1
10
10.2577019
20
1.6279521
11
10.3794275
21
1.629603
0
LINE
8
layer1
10
10.3794275
20
1.629603
11
10.5726383
21
1.616277
0
LINE
8
layer1
10
10.5726383
20
1.616277
11
10.8369066
21
1.5758004
0
LINE
8
layer1
10
10.8369066
20
1.5758004
11
10.9928954
21
1.5420087
0
LINE
8
layer1
10
10.9928954
20
1.5420087
11
11.166405
21
1.4967487
0
LINE
8
layer1
10
11.166405
20
1.4967487
11
11.3530672
21
1.439634
0
LINE
8
layer1
10
11.3530672
20
1.439634
11
11.5560214
21
1.3681366
0
LINE
8
layer1
10
11.5560214
20
1.3681366
11
11.7719305
21
1.2817666
0
LINE
8
layer1
10
11.7719305
20
1.2817666
11
12.0007277
21
1.1789411
0
LINE
8
layer1
10
12.0007277
20
1.1789411
11
12.2412139
21
1.0585262
0
LINE
8
layer1
10
12.2412139
20
1.0585262
11
12.4931247
21
0.918902
0
LINE
8
layer1
10
12.4931247
20
0.918902
11
12.7534055
21
0.7600364
0
LINE
8
layer1
10
12.7534055
20
0.7600364
11
12.9858488
21
0.6050066
0
ARC
8
layer1
10
-0.0000654
20
0
40
13
50
357.3325496
51
362.66745
0
LINE
8
layer1
10
12.9858488
20
-0.6050066
11
12.7534055
21
-0.7600364
0
LINE
8
layer1
10
12.7534055
20
-0.7600364
11
12.4931247
21
-0.918902
0
LINE
8
layer1
10
12.4931247
20
-0.918902
11
12.2412139
21
-1.0585262
0
LINE
8
layer1
10
12.2412139
20
-1.0585262
11
12.0007277
21
-1.1789411
0
LINE
8
layer1
10
12.0007277
20
-1.1789411
11
11.7719305
21
-1.2817666
0
LINE
8
layer1
10
11.7719305
20
-1.2817666
11
11.5560214
21
-1.3681366
0
LINE
8
layer1
10
11.5560214
20
-1.3681366
11
11.3530672
21
-1.439634
0
LINE
8
layer1
10
11.3530672
20
-1.439634
11
11.166405
21
-1.4967487
0
LINE
8
layer1
10
11.166405
20
-1.4967487
11
10.9928954
21
-1.5420087
0
LINE
8
layer1
10
10.9928954
20
-1.5420087
11
10.8369066
21
-1.5758004
0
LINE
8
layer1
10
10.8369066
20
-1.5758004
11
10.5726383
21
-1.616277
0
LINE
8
layer1
10
10.5726383
20
-1.616277
11
10.3794275
21
-1.629603
0
LINE
8
layer1
10
10.3794275
20
-1.629603
11
10.2577019
21
-1.6279521
0
LINE
8
layer1
10
10.2577019
20
-1.6279521
11
10.0874769
21
-1.5787199
0
LINE
8
layer1
10
10.0874769
20
-1.5787199
11
9.8787161
21
-1.5311378
0
LINE
8
layer1
10
9.8787161
20
-1.5311378
11
9.6841407
21
-1.5031457
0
LINE
8
layer1
10
9.6841407
20
-1.5031457
11
9.5049855
21
-1.493449
0
LINE
8
layer1
10
9.5049855
20
-1.493449
11
9.3424169
21
-1.500702
0
LINE
8
layer1
10
9.3424169
20
-1.500702
11
9.1975196
21
-1.5234824
0
LINE
8
layer1
10
9.1975196
20
-1.5234824
11
9.0712617
21
-1.560303
0
LINE
8
layer1
10
9.0712617
20
-1.560303
11
8.9645433
21
-1.6096248
0
LINE
8
layer1
10
8.9645433
20
-1.6096248
11
8.878152
21
-1.6698658
0
LINE
8
layer1
10
8.878152
20
-1.6698658
11
8.8127948
21
-1.7393991
0
LINE
8
layer1
10
8.8127948
20
-1.7393991
11
8.7690662
21
-1.8165547
0
LINE
8
layer1
10
8.7690662
20
-1.8165547
11
8.7554583
21
-1.8574682
0
LINE
8
layer1
10
8.7554583
20
-1.8574682
11
8.6800227
21
-2.1817825
0
LINE
8
layer1
10
8.6800227
20
-2.1817825
11
8.5874621
21
-2.5215064
0
LINE
8
layer1
10
8.5874621
20
-2.5215064
11
8.4816605
21
-2.8573423
0
LINE
8
layer1
10
8.4816605
20
-2.8573423
11
8.3697834
21
-3.1709565
0
LINE
8
layer1
10
8.3697834
20
-3.1709565
11
8.3591115
21
-3.2127321
0
LINE
8
layer1
10
8.3591115
20
-3.2127321
11
8.3541849
21
-3.3012809
0
LINE
8
layer1
10
8.3541849
20
-3.3012809
11
8.3715743
21
-3.3951109
0
LINE
8
layer1
10
8.3715743
20
-3.3951109
11
8.4116826
21
-3.4924954
0
LINE
8
layer1
10
8.4116826
20
-3.4924954
11
8.4747944
21
-3.5916839
0
LINE
8
layer1
10
8.4747944
20
-3.5916839
11
8.5611026
21
-3.6909195
0
LINE
8
layer1
10
8.5611026
20
-3.6909195
11
8.670682
21
-3.7884211
0
LINE
8
layer1
10
8.670682
20
-3.7884211
11
8.8035221
21
-3.8824138
0
LINE
8
layer1
10
8.8035221
20
-3.8824138
11
8.9594795
21
-3.9711151
0
LINE
8
layer1
10
8.9594795
20
-3.9711151
11
9.1383004
21
-4.0527621
0
LINE
8
layer1
10
9.1383004
20
-4.0527621
11
9.339646
21
-4.1255981
0
LINE
8
layer1
10
9.339646
20
-4.1255981
11
9.5094653
21
-4.1762119
0
LINE
8
layer1
10
9.5094653
20
-4.1762119
11
9.61276
21
-4.2406329
0
LINE
8
layer1
10
9.61276
20
-4.2406329
11
9.7680946
21
-4.3563011
0
LINE
8
layer1
10
9.7680946
20
-4.3563011
11
9.968528
21
-4.5332264
0
LINE
8
layer1
10
9.968528
20
-4.5332264
11
10.081485
21
-4.6459877
0
LINE
8
layer1
10
10.081485
20
-4.6459877
11
10.2029811
21
-4.7778692
0
LINE
8
layer1
10
10.2029811
20
-4.7778692
11
10.3291328
21
-4.9268344
0
LINE
8
layer1
10
10.3291328
20
-4.9268344
11
10.4612144
21
-5.0967071
0
LINE
8
layer1
10
10.4612144
20
-5.0967071
11
10.5961535
21
-5.2860954
0
LINE
8
layer1
10
10.5961535
20
-5.2860954
11
10.7330383
21
-5.4962949
0
LINE
8
layer1
10
10.7330383
20
-5.4962949
11
10.8702469
21
-5.7276109
0
LINE
8
layer1
10
10.8702469
20
-5.7276109
11
11.0066812
21
-5.9812636
0
LINE
8
layer1
10
11.0066812
20
-5.9812636
11
11.1397542
21
-6.2556283
0
LINE
8
layer1
10
11.1397542
20
-6.2556283
11
11.2514824
21
-6.5117159
0
ARC
8
layer1
10
-0.0000548
20
0.0000359
40
13
50
324.6052746
51
329.9401749
0
LINE
8
layer1
10
10.5972999
20
-7.5296439
11
10.3179408
21
-7.5343949
0
LINE
8
layer1
10
10.3179408
20
-7.5343949
11
10.0130894
21
-7.5273227
0
LINE
8
layer1
10
10.0130894
20
-7.5273227
11
9.7256819
21
-7.5085888
0
LINE
8
layer1
10
9.7256819
20
-7.5085888
11
9.4582709
21
-7.4798716
0
LINE
8
layer1
10
9.4582709
20
-7.4798716
11
9.2102028
21
-7.4426768
0
LINE
8
layer1
10
9.2102028
20
-7.4426768
11
8.9818734
21
-7.3986066
0
LINE
8
layer1
10
8.9818734
20
-7.3986066
11
8.772483
21
-7.3490287
0
LINE
8
layer1
10
8.772483
20
-7.3490287
11
8.5845743
21
-7.2961595
0
LINE
8
layer1
10
8.5845743
20
-7.2961595
11
8.4141393
21
-7.2404283
0
LINE
8
layer1
10
8.4141393
20
-7.2404283
11
8.2646439
21
-7.1845217
0
LINE
8
layer1
10
8.2646439
20
-7.1845217
11
8.020444
21
-7.0756985
0
LINE
8
layer1
10
8.020444
20
-7.0756985
11
7.8507002
21
-6.9824515
0
LINE
8
layer1
10
7.8507002
20
-6.9824515
11
7.7491906
21
-6.9152528
0
LINE
8
layer1
10
7.7491906
20
-6.9152528
11
7.6326052
21
-6.7818055
0
LINE
8
layer1
10
7.6326052
20
-6.7818055
11
7.4827092
21
-6.6289122
0
LINE
8
layer1
10
7.4827092
20
-6.6289122
11
7.3341556
21
-6.5001683
0
LINE
8
layer1
10
7.3341556
20
-6.5001683
11
7.1886831
21
-6.3951524
0
LINE
8
layer1
10
7.1886831
20
-6.3951524
11
7.0480005
21
-6.3133628
0
LINE
8
layer1
10
7.0480005
20
-6.3133628
11
6.913789
21
-6.2541895
0
LINE
8
layer1
10
6.913789
20
-6.2541895
11
6.7876675
21
-6.2169047
0
LINE
8
layer1
10
6.7876675
20
-6.2169047
11
6.6712248
21
-6.2007006
0
LINE
8
layer1
10
6.6712248
20
-6.2007006
11
6.5659791
21
-6.2046718
0
LINE
8
layer1
10
6.5659791
20
-6.2046718
11
6.4734046
21
-6.2278322
0
LINE
8
layer1
10
6.4734046
20
-6.2278322
11
6.3949043
21
-6.2690982
0
LINE
8
layer1
10
6.3949043
20
-6.2690982
11
6.3613371
21
-6.2961598
0
LINE
8
layer1
10
6.3613371
20
-6.2961598
11
6.1225391
21
-6.5282068
0
LINE
8
layer1
10
6.1225391
20
-6.5282068
11
5.8610036
21
-6.7639587
0
LINE
8
layer1
10
5.8610036
20
-6.7639587
11
5.5904309
21
-6.9892812
0
LINE
8
layer1
10
5.5904309
20
-6.9892812
11
5.3267613
21
-7.1926249
0
LINE
8
layer1
10
5.3267613
20
-7.1926249
11
5.295198
21
-7.2219991
0
LINE
8
layer1
10
5.295198
20
-7.2219991
11
5.2431803
21
-7.2938276
0
LINE
8
layer1
10
5.2431803
20
-7.2938276
11
5.2070809
21
-7.3821638
0
LINE
8
layer1
10
5.2070809
20
-7.3821638
11
5.1881721
21
-7.4857731
0
LINE
8
layer1
10
5.1881721
20
-7.4857731
11
5.1876398
21
-7.6033366
0
LINE
8
layer1
10
5.1876398
20
-7.6033366
11
5.2065961
21
-7.7334806
0
LINE
8
layer1
10
5.2065961
20
-7.7334806
11
5.2460668
21
-7.8747472
0
LINE
8
layer1
10
5.2460668
20
-7.8747472
11
5.3070027
21
-8.0256378
0
LINE
8
layer1
10
5.3070027
20
-8.0256378
11
5.3902468
21
-8.1845749
0
LINE
8
layer1
10
5.3902468
20
-8.1845749
11
5.4965389
21
-8.3499386
0
LINE
8
layer1
10
5.4965389
20
-8.3499386
11
5.6265435
21
-8.5200678
0
LINE
8
layer1
10
5.6265435
20
-8.5200678
11
5.7420407
21
-8.6544581
0
LINE
8
layer1
10
5.7420407
20
-8.6544581
11
5.7941091
21
-8.7644978
0
LINE
8
layer1
10
5.7941091
20
-8.7644978
11
5.8622499
21
-8.9457843
0
LINE
8
layer1
10
5.8622499
20
-8.9457843
11
5.9352121
21
-9.2029858
0
LINE
8
layer1
10
5.9352121
20
-9.2029858
11
5.9692743
21
-9.3589158
0
LINE
8
layer1
10
5.9692743
20
-9.3589158
11
6.0001828
21
-9.5355474
0
LINE
8
layer1
10
6.0001828
20
-9.5355474
11
6.0257717
21
-9.7290677
0
LINE
8
layer1
10
6.0257717
20
-9.7290677
11
6.0450456
21
-9.9433824
0
LINE
8
layer1
10
6.0450456
20
-9.9433824
11
6.0561726
21
-10.1756595
0
LINE
8
layer1
10
6.0561726
20
-10.1756595
11
6.057685
21
-10.4264961
0
LINE
8
layer1
10
6.057685
20
-10.4264961
11
6.0480533
21
-10.6952721
0
LINE
8
layer1
10
6.0480533
20
-10.6952721
11
6.0256942
21
-10.9824203
0
LINE
8
layer1
10
6.0256942
20
-10.9824203
11
5.9893095
21
-11.2851752
0
LINE
8
layer1
10
5.9893095
20
-11.2851752
11
5.9448499
21
-11.5610147
0
ARC
8
layer1
10
-0.0000273
20
0.0000594
40
13
50
291.8780048
51
297.2129053
0
LINE
8
layer1
10
4.8441831
20
-12.0636724
11
4.6066027
21
-11.9166363
0
LINE
8
layer1
10
4.6066027
20
-11.9166363
11
4.353969
21
-11.7458717
0
LINE
8
layer1
10
4.353969
20
-11.7458717
11
4.1223147
21
-11.5747275
0
LINE
8
layer1
10
4.1223147
20
-11.5747275
11
3.9128799
21
-11.4059957
0
LINE
8
layer1
10
3.9128799
20
-11.4059957
11
3.7243007
21
-11.2405897
0
LINE
8
layer1
10
3.7243007
20
-11.2405897
11
3.556044
21
-11.0800713
0
LINE
8
layer1
10
3.556044
20
-11.0800713
11
3.4066975
21
-10.9251588
0
LINE
8
layer1
10
3.4066975
20
-10.9251588
11
3.2772018
21
-10.7790912
0
LINE
8
layer1
10
3.2772018
20
-10.7790912
11
3.1639533
21
-10.640063
0
LINE
8
layer1
10
3.1639533
20
-10.640063
11
3.0684152
21
-10.5122081
0
LINE
8
layer1
10
3.0684152
20
-10.5122081
11
2.9218154
21
-10.2886358
0
LINE
8
layer1
10
2.9218154
20
-10.2886358
11
2.829431
21
-10.1184209
0
LINE
8
layer1
10
2.829431
20
-10.1184209
11
2.7803661
21
-10.0070096
0
LINE
8
layer1
10
2.7803661
20
-10.0070096
11
2.7544352
21
-9.8317157
0
LINE
8
layer1
10
2.7544352
20
-9.8317157
11
2.7109951
21
-9.6220538
0
LINE
8
layer1
10
2.7109951
20
-9.6220538
11
2.655628
21
-9.4334335
0
LINE
8
layer1
10
2.655628
20
-9.4334335
11
2.5900246
21
-9.2664401
0
LINE
8
layer1
10
2.5900246
20
-9.2664401
11
2.5158937
21
-9.1215755
0
LINE
8
layer1
10
2.5158937
20
-9.1215755
11
2.4349793
21
-8.9992356
0
LINE
8
layer1
10
2.4349793
20
-8.9992356
11
2.3490368
21
-8.8996832
0
LINE
8
layer1
10
2.3490368
20
-8.8996832
11
2.2598396
21
-8.8230977
0
LINE
8
layer1
10
2.2598396
20
-8.8230977
11
2.1691543
21
-8.7695384
0
LINE
8
layer1
10
2.1691543
20
-8.7695384
11
2.0787542
21
-8.7389726
0
LINE
8
layer1
10
2.0787542
20
-8.7389726
11
1.9904055
21
-8.7312473
0
LINE
8
layer1
10
1.9904055
20
-8.7312473
11
1.9475364
21
-8.7358652
0
LINE
8
layer1
10
1.9475364
20
-8.7358652
11
1.6211926
21
-8.8019716
0
LINE
8
layer1
10
1.6211926
20
-8.8019716
11
1.2737178
21
-8.8589019
0
LINE
8
layer1
10
1.2737178
20
-8.8589019
11
0.9242791
21
-8.9021727
0
LINE
8
layer1
10
0.9242791
20
-8.9021727
11
0.5925302
21
-8.9306857
0
LINE
8
layer1
10
0.5925302
20
-8.9306857
11
0.5500965
21
-8.9383324
0
LINE
8
layer1
10
0.5500965
20
-8.9383324
11
0.467503
21
-8.9706355
0
LINE
8
layer1
10
0.467503
20
-8.9706355
11
0.3893762
21
-9.0254319
0
LINE
8
layer1
10
0.3893762
20
-9.0254319
11
0.3174536
21
-9.1023706
0
LINE
8
layer1
10
0.3174536
20
-9.1023706
11
0.2534462
21
-9.2009836
0
LINE
8
layer1
10
0.2534462
20
-9.2009836
11
0.1990321
21
-9.3207162
0
LINE
8
layer1
10
0.1990321
20
-9.3207162
11
0.1558624
21
-9.4608967
0
LINE
8
layer1
10
0.1558624
20
-9.4608967
11
0.1255474
21
-9.6207784
0
LINE
8
layer1
10
0.1255474
20
-9.6207784
11
0.1096489
21
-9.79949
0
LINE
8
layer1
10
0.1096489
20
-9.79949
11
0.1096651
21
-9.9960686
0
LINE
8
layer1
10
0.1096651
20
-9.9960686
11
0.1270532
21
-10.2094762
0
LINE
8
layer1
10
0.1270532
20
-10.2094762
11
0.1515587
21
-10.384975
0
LINE
8
layer1
10
0.1515587
20
-10.384975
11
0.1358695
21
-10.5056966
0
LINE
8
layer1
10
0.1358695
20
-10.5056966
11
0.0951823
21
-10.6950443
0
LINE
8
layer1
10
0.0951823
20
-10.6950443
11
0.0175084
21
-10.9508623
0
LINE
8
layer1
10
0.0175084
20
-10.9508623
11
-0.0381388
21
-11.1004543
0
LINE
8
layer1
10
-0.0381388
20
-11.1004543
11
-0.1076312
21
-11.2657567
0
LINE
8
layer1
10
-0.1076312
20
-11.2657567
11
-0.1907294
21
-11.4423907
0
LINE
8
layer1
10
-0.1907294
20
-11.4423907
11
-0.2903824
21
-11.6331039
0
LINE
8
layer1
10
-0.2903824
20
-11.6331039
11
-0.4066003
21
-11.8345236
0
LINE
8
layer1
10
-0.4066003
20
-11.8345236
11
-0.5409404
21
-12.0463584
0
LINE
8
layer1
10
-0.5409404
20
-12.0463584
11
-0.6943544
21
-12.26726
0
LINE
8
layer1
10
-0.6943544
20
-12.26726
11
-0.8684082
21
-12.4967361
0
LINE
8
layer1
10
-0.8684082
20
-12.4967361
11
-1.0626986
21
-12.7317587
0
LINE
8
layer1
10
-1.0626986
20
-12.7317587
11
-1.2492304
21
-12.939773
0
ARC
8
layer1
10
0.0000088
20
0.0000648
40
13
50
259.150734
51
264.4856344
0
LINE
8
layer1
10
-2.4469275
20
-12.7675701
11
-2.5672991
21
-12.5154298
0
LINE
8
layer1
10
-2.5672991
20
-12.5154298
11
-2.6875059
21
-12.2351894
0
LINE
8
layer1
10
-2.6875059
20
-12.2351894
11
-2.7898583
21
-11.965972
0
LINE
8
layer1
10
-2.7898583
20
-11.965972
11
-2.8748228
21
-11.7107968
0
LINE
8
layer1
10
-2.8748228
20
-11.7107968
11
-2.9440405
21
-11.4696948
0
LINE
8
layer1
10
-2.9440405
20
-11.4696948
11
-2.9988043
21
-11.2436917
0
LINE
8
layer1
10
-2.9988043
20
-11.2436917
11
-3.0406905
21
-11.0326281
0
LINE
8
layer1
10
-3.0406905
20
-11.0326281
11
-3.0706591
21
-10.8397376
0
LINE
8
layer1
10
-3.0706591
20
-10.8397376
11
-3.0907654
21
-10.6615529
0
LINE
8
layer1
10
-3.0907654
20
-10.6615529
11
-3.1020136
21
-10.5023427
0
LINE
8
layer1
10
-3.1020136
20
-10.5023427
11
-3.1044689
21
-10.2350039
0
LINE
8
layer1
10
-3.1044689
20
-10.2350039
11
-3.0901626
21
-10.0418632
0
LINE
8
layer1
10
-3.0901626
20
-10.0418632
11
-3.0712051
21
-9.9216115
0
LINE
8
layer1
10
-3.0712051
20
-9.9216115
11
-2.9982485
21
-9.7601257
0
LINE
8
layer1
10
-2.9982485
20
-9.7601257
11
-2.9214409
21
-9.5602613
0
LINE
8
layer1
10
-2.9214409
20
-9.5602613
11
-2.8660427
21
-9.3716501
0
LINE
8
layer1
10
-2.8660427
20
-9.3716501
11
-2.8309484
21
-9.1956985
0
LINE
8
layer1
10
-2.8309484
20
-9.1956985
11
-2.8149916
21
-9.0337524
0
LINE
8
layer1
10
-2.8149916
20
-9.0337524
11
-2.8169191
21
-8.8870879
0
LINE
8
layer1
10
-2.8169191
20
-8.8870879
11
-2.8353965
21
-8.7568751
0
LINE
8
layer1
10
-2.8353965
20
-8.7568751
11
-2.8690287
21
-8.6442237
0
LINE
8
layer1
10
-2.8690287
20
-8.6442237
11
-2.9163617
21
-8.5501385
0
LINE
8
layer1
10
-2.9163617
20
-8.5501385
11
-2.975886
21
-8.4755509
0
LINE
8
layer1
10
-2.975886
20
-8.4755509
11
-3.046033
21
-8.4212871
0
LINE
8
layer1
10
-3.046033
20
-8.4212871
11
-3.0845935
21
-8.4019951
0
LINE
8
layer1
10
-3.0845935
20
-8.4019951
11
-3.3948712
21
-8.2811726
0
LINE
8
layer1
10
-3.3948712
20
-8.2811726
11
-3.7179644
21
-8.1412064
0
LINE
8
layer1
10
-3.7179644
20
-8.1412064
11
-4.0353249
21
-7.9886872
0
LINE
8
layer1
10
-4.0353249
20
-7.9886872
11
-4.3298251
21
-7.8333169
0
LINE
8
layer1
10
-4.3298251
20
-7.8333169
11
-4.3696567
21
-7.8168084
0
LINE
8
layer1
10
-4.3696567
20
-7.8168084
11
-4.4566031
21
-7.79933
0
LINE
8
layer1
10
-4.4566031
20
-7.79933
11
-4.5519528
21
-7.8031891
0
LINE
8
layer1
10
-4.5519528
20
-7.8031891
11
-4.6540541
21
-7.8290299
0
LINE
8
layer1
10
-4.6540541
20
-7.8290299
11
-4.7612148
21
-7.8773833
0
LINE
8
layer1
10
-4.7612148
20
-7.8773833
11
-4.8717232
21
-7.9486903
0
LINE
8
layer1
10
-4.8717232
20
-7.9486903
11
-4.9838271
21
-8.0432784
0
LINE
8
layer1
10
-4.9838271
20
-8.0432784
11
-5.0957683
21
-8.1613899
0
LINE
8
layer1
10
-5.0957683
20
-8.1613899
11
-5.2057618
21
-8.3031363
0
LINE
8
layer1
10
-5.2057618
20
-8.3031363
11
-5.3120265
21
-8.4685175
0
LINE
8
layer1
10
-5.3120265
20
-8.4685175
11
-5.4127756
21
-8.657448
0
LINE
8
layer1
10
-5.4127756
20
-8.657448
11
-5.4870421
21
-8.8183357
0
LINE
8
layer1
10
-5.4870421
20
-8.8183357
11
-5.5655077
21
-8.911411
0
LINE
8
layer1
10
-5.5655077
20
-8.911411
11
-5.702105
21
-9.0487032
0
LINE
8
layer1
10
-5.702105
20
-9.0487032
11
-5.9057541
21
-9.2219173
0
LINE
8
layer1
10
-5.9057541
20
-9.2219173
11
-6.0334431
21
-9.317677
0
LINE
8
layer1
10
-6.0334431
20
-9.317677
11
-6.181273
21
-9.4191678
0
LINE
8
layer1
10
-6.181273
20
-9.4191678
11
-6.3466752
21
-9.5228355
0
LINE
8
layer1
10
-6.3466752
20
-9.5228355
11
-6.533616
21
-9.6293972
0
LINE
8
layer1
10
-6.533616
20
-9.6293972
11
-6.7402805
21
-9.7360101
0
LINE
8
layer1
10
-6.7402805
20
-9.7360101
11
-6.9678211
21
-9.8415871
0
LINE
8
layer1
10
-6.9678211
20
-9.8415871
11
-7.2163096
21
-9.9444794
0
LINE
8
layer1
10
-7.2163096
20
-9.9444794
11
-7.4867971
21
-10.0434265
0
LINE
8
layer1
10
-7.4867971
20
-10.0434265
11
-7.7773074
21
-10.1360988
0
LINE
8
layer1
10
-7.7773074
20
-10.1360988
11
-8.046689
21
-10.2102448
0
ARC
8
layer1
10
0.000043
20
0.0000492
40
13
50
226.4234576
51
231.7583579
0
LINE
8
layer1
10
-8.961156
20
-9.4178546
11
-8.9261017
21
-9.1406628
0
LINE
8
layer1
10
-8.9261017
20
-9.1406628
11
-8.8757166
21
-8.8399209
0
LINE
8
layer1
10
-8.8757166
20
-8.8399209
11
-8.816271
21
-8.5581049
0
LINE
8
layer1
10
-8.816271
20
-8.5581049
11
-8.7497896
21
-8.2975026
0
LINE
8
layer1
10
-8.7497896
20
-8.2975026
11
-8.6776696
21
-8.0572528
0
LINE
8
layer1
10
-8.6776696
20
-8.0572528
11
-8.6015533
21
-7.8375193
0
LINE
8
layer1
10
-8.6015533
20
-7.8375193
11
-8.5226807
21
-7.637316
0
LINE
8
layer1
10
-8.5226807
20
-7.637316
11
-8.4436074
21
-7.4588439
0
LINE
8
layer1
10
-8.4436074
20
-7.4588439
11
-8.364188
21
-7.2980751
0
LINE
8
layer1
10
-8.364188
20
-7.2980751
11
-8.2875751
21
-7.1580577
0
LINE
8
layer1
10
-8.2875751
20
-7.1580577
11
-8.1451063
21
-6.9318305
0
LINE
8
layer1
10
-8.1451063
20
-6.9318305
11
-8.0286513
21
-6.7770849
0
LINE
8
layer1
10
-8.0286513
20
-6.7770849
11
-7.9476903
21
-6.6861719
0
LINE
8
layer1
10
-7.9476903
20
-6.6861719
11
-7.7990094
21
-6.5897647
0
LINE
8
layer1
10
-7.7990094
20
-6.5897647
11
-7.62634
21
-6.4631534
0
LINE
8
layer1
10
-7.62634
20
-6.4631534
11
-7.4777652
21
-6.3344341
0
LINE
8
layer1
10
-7.4777652
20
-6.3344341
11
-7.3531152
21
-6.2053876
0
LINE
8
layer1
10
-7.3531152
20
-6.2053876
11
-7.2521369
21
-6.0777768
0
LINE
8
layer1
10
-7.2521369
20
-6.0777768
11
-7.1744656
21
-5.9533527
0
LINE
8
layer1
10
-7.1744656
20
-5.9533527
11
-7.1196114
21
-5.833821
0
LINE
8
layer1
10
-7.1196114
20
-5.833821
11
-7.0870007
21
-5.7208697
0
LINE
8
layer1
10
-7.0870007
20
-5.7208697
11
-7.0759535
21
-5.6161301
0
LINE
8
layer1
10
-7.0759535
20
-5.6161301
11
-7.0857034
21
-5.5212017
0
LINE
8
layer1
10
-7.0857034
20
-5.5212017
11
-7.1153775
21
-5.4376277
0
LINE
8
layer1
10
-7.1153775
20
-5.4376277
11
-7.1373866
21
-5.4005509
0
LINE
8
layer1
10
-7.1373866
20
-5.4005509
11
-7.3330873
21
-5.1311598
0
LINE
8
layer1
10
-7.3330873
20
-5.1311598
11
-7.5292191
21
-4.8387353
0
LINE
8
layer1
10
-7.5292191
20
-4.8387353
11
-7.7137417
21
-4.53885
0
LINE
8
layer1
10
-7.7137417
20
-4.53885
11
-7.8774915
21
-4.2489253
0
LINE
8
layer1
10
-7.8774915
20
-4.2489253
11
-7.9020748
21
-4.2135029
0
LINE
8
layer1
10
-7.9020748
20
-4.2135029
11
-7.9657693
21
-4.1517924
0
LINE
8
layer1
10
-7.9657693
20
-4.1517924
11
-8.0480689
21
-4.1034889
0
LINE
8
layer1
10
-8.0480689
20
-4.1034889
11
-8.1479326
21
-4.0700274
0
LINE
8
layer1
10
-8.1479326
20
-4.0700274
11
-8.2642237
21
-4.0527695
0
LINE
8
layer1
10
-8.2642237
20
-4.0527695
11
-8.3957408
21
-4.0530114
0
LINE
8
layer1
10
-8.3957408
20
-4.0530114
11
-8.5411868
21
-4.071976
0
LINE
8
layer1
10
-8.5411868
20
-4.071976
11
-8.6992136
21
-4.1108177
0
LINE
8
layer1
10
-8.6992136
20
-4.1108177
11
-8.8683799
21
-4.1705954
0
LINE
8
layer1
10
-8.8683799
20
-4.1705954
11
-9.0471873
21
-4.2522719
0
LINE
8
layer1
10
-9.0471873
20
-4.2522719
11
-9.2340864
21
-4.3567413
0
LINE
8
layer1
10
-9.2340864
20
-4.3567413
11
-9.3835458
21
-4.4519372
0
LINE
8
layer1
10
-9.3835458
20
-4.4519372
11
-9.4998755
21
-4.4878153
0
LINE
8
layer1
10
-9.4998755
20
-4.4878153
11
-9.6890143
21
-4.5294628
0
LINE
8
layer1
10
-9.6890143
20
-4.5294628
11
-9.9539815
21
-4.5650788
0
LINE
8
layer1
10
-9.9539815
20
-4.5650788
11
-10.1131719
21
-4.5766031
0
LINE
8
layer1
10
-10.1131719
20
-4.5766031
11
-10.2924043
21
-4.5820597
0
LINE
8
layer1
10
-10.2924043
20
-4.5820597
11
-10.4875965
21
-4.5798473
0
LINE
8
layer1
10
-10.4875965
20
-4.5798473
11
-10.7024727
21
-4.5684249
0
LINE
8
layer1
10
-10.7024727
20
-4.5684249
11
-10.9339692
21
-4.5463822
0
LINE
8
layer1
10
-10.9339692
20
-4.5463822
11
-11.1824678
21
-4.5121814
0
LINE
8
layer1
10
-11.1824678
20
-4.5121814
11
-11.4471374
21
-4.464397
0
LINE
8
layer1
10
-11.4471374
20
-4.464397
11
-11.7281808
21
-4.4013999
0
LINE
8
layer1
10
-11.7281808
20
-4.4013999
11
-12.022676
21
-4.3222991
0
LINE
8
layer1
10
-12.022676
20
-4.3222991
11
-12.2893806
21
-4.239036
0
ARC
8
layer1
10
0.0000628
20
0.0000182
40
13
50
193.6961854
51
199.0310855
0
LINE
8
layer1
10
-12.6302807
20
-3.0780368
11
-12.45093
21
-2.8638
0
LINE
8
layer1
10
-12.45093
20
-2.8638
11
-12.24595
21
-2.63804
0
LINE
8
layer1
10
-12.24595
20
-2.63804
11
-12.04358
21
-2.4331
0
LINE
8
layer1
10
-12.04358
20
-2.4331
11
-11.84676
21
-2.24981
0
LINE
8
layer1
10
-11.84676
20
-2.24981
11
-11.6562
21
-2.08669
0
LINE
8
layer1
10
-11.6562
20
-2.08669
11
-11.47337
21
-1.94299
0
LINE
8
layer1
10
-11.47337
20
-1.94299
11
-11.29878
21
-1.81721
0
LINE
8
layer1
10
-11.29878
20
-1.81721
11
-11.13577
21
-1.70982
0
LINE
8
layer1
10
-11.13577
20
-1.70982
11
-10.98204
21
-1.61751
0
LINE
8
layer1
10
-10.98204
20
-1.61751
11
-10.84189
21
-1.54114
0
LINE
8
layer1
10
-10.84189
20
-1.54114
11
-10.59973
21
-1.42785
0
LINE
8
layer1
10
-10.59973
20
-1.42785
11
-10.4181
21
-1.36063
0
LINE
8
layer1
10
-10.4181
20
-1.36063
11
-10.30084
21
-1.32792
0
LINE
8
layer1
10
-10.30084
20
-1.32792
11
-10.12364
21
-1.3272
0
LINE
8
layer1
10
-10.12364
20
-1.3272
11
-9.90993
21
-1.31404
0
LINE
8
layer1
10
-9.90993
20
-1.31404
11
-9.71535
21
-1.28608
0
LINE
8
layer1
10
-9.71535
20
-1.28608
11
-9.54072
21
-1.24491
0
LINE
8
layer1
10
-9.54072
20
-1.24491
11
-9.38678
21
-1.19215
0
LINE
8
layer1
10
-9.38678
20
-1.19215
11
-9.25417
21
-1.12947
0
LINE
8
layer1
10
-9.25417
20
-1.12947
11
-9.1434
21
-1.05857
0
LINE
8
layer1
10
-9.1434
20
-1.05857
11
-9.0549
21
-0.98118
0
LINE
8
layer1
10
-9.0549
20
-0.98118
11
-8.98898
21
-0.89904
0
LINE
8
layer1
10
-8.98898
20
-0.89904
11
-8.94586
21
-0.81391
0
LINE
8
layer1
10
-8.94586
20
-0.81391
11
-8.92564
21
-0.72756
0
LINE
8
layer1
10
-8.92564
20
-0.72756
11
-8.92411
21
-0.68447
0
LINE
8
layer1
10
-8.92411
20
-0.68447
11
-8.9431
21
-0.35204
0
LINE
8
layer1
10
-8.9431
20
-0.35204
11
-8.95
21
0
0
LINE
8
layer1
10
-8.95
20
0
11
-8.9431
21
0.35204
0
LINE
8
layer1
10
-8.9431
20
0.35204
11
-8.92411
21
0.68447
0
LINE
8
layer1
10
-8.92411
20
0.68447
11
-8.92564
21
0.72756
0
LINE
8
layer1
10
-8.92564
20
0.72756
11
-8.94586
21
0.81391
0
LINE
8
layer1
10
-8.94586
20
0.81391
11
-8.98898
21
0.89904
0
LINE
8
layer1
10
-8.98898
20
0.89904
11
-9.0549
21
0.98118
0
LINE
8
layer1
10
-9.0549
20
0.98118
11
-9.1434
21
1.05857
0
LINE
8
layer1
10
-9.1434
20
1.05857
11
-9.25417
21
1.12947
0
LINE
8
layer1
10
-9.25417
20
1.12947
11
-9.38678
21
1.19215
0
LINE
8
layer1
10
-9.38678
20
1.19215
11
-9.54072
21
1.24491
0
LINE
8
layer1
10
-9.54072
20
1.24491
11
-9.71535
21
1.28608
0
LINE
8
layer1
10
-9.71535
20
1.28608
11
-9.90993
21
1.31404
0
LINE
8
layer1
10
-9.90993
20
1.31404
11
-10.12364
21
1.3272
0
LINE
8
layer1
10
-10.12364
20
1.3272
11
-10.30084
21
1.32792
0
LINE
8
layer1
10
-10.30084
20
1.32792
11
-10.4181
21
1.36063
0
LINE
8
layer1
10
-10.4181
20
1.36063
11
-10.59973
21
1.42785
0
LINE
8
layer1
10
-10.59973
20
1.42785
11
-10.84189
21
1.54114
0
LINE
8
layer1
10
-10.84189
20
1.54114
11
-10.98204
21
1.61751
0
LINE
8
layer1
10
-10.98204
20
1.61751
11
-11.13577
21
1.70982
0
LINE
8
layer1
10
-11.13577
20
1.70982
11
-11.29878
21
1.81721
0
LINE
8
layer1
10
-11.29878
20
1.81721
11
-11.47337
21
1.94299
0
LINE
8
layer1
10
-11.47337
20
1.94299
11
-11.6562
21
2.08669
0
LINE
8
layer1
10
-11.6562
20
2.08669
11
-11.84676
21
2.24981
0
LINE
8
layer1
10
-11.84676
20
2.24981
11
-12.04358
21
2.4331
0
LINE
8
layer1
10
-12.04358
20
2.4331
11
-12.24595
21
2.63804
0
LINE
8
layer1
10
-12.24595
20
2.63804
11
-12.45093
21
2.8638
0
LINE
8
layer1
10
-12.45093
20
2.8638
11
-12.6302807
21
3.0780368
0
ARC
8
layer1
10
0.0000628
20
-0.0000182
40
13
50
160.9689145
51
166.3038146
0
LINE
8
layer1
10
-12.2893806
20
4.239036
11
-12.022676
21
4.3222991
0
LINE
8
layer1
10
-12.022676
20
4.3222991
11
-11.7281808
21
4.4013999
0
LINE
8
layer1
10
-11.7281808
20
4.4013999
11
-11.4471374
21
4.464397
0
LINE
8
layer1
10
-11.4471374
20
4.464397
11
-11.1824678
21
4.5121814
0
LINE
8
layer1
10
-11.1824678
20
4.5121814
11
-10.9339692
21
4.5463822
0
LINE
8
layer1
10
-10.9339692
20
4.5463822
11
-10.7024727
21
4.5684249
0
LINE
8
layer1
10
-10.7024727
20
4.5684249
11
-10.4875965
21
4.5798473
0
LINE
8
layer1
10
-10.4875965
20
4.5798473
11
-10.2924043
21
4.5820597
0
LINE
8
layer1
10
-10.2924043
20
4.5820597
11
-10.1131719
21
4.5766031
0
LINE
8
layer1
10
-10.1131719
20
4.5766031
11
-9.9539815
21
4.5650788
0
LINE
8
layer1
10
-9.9539815
20
4.5650788
11
-9.6890143
21
4.5294628
0
LINE
8
layer1
10
-9.6890143
20
4.5294628
11
-9.4998755
21
4.4878153
0
LINE
8
layer1
10
-9.4998755
20
4.4878153
11
-9.3835458
21
4.4519372
0
LINE
8
layer1
10
-9.3835458
20
4.4519372
11
-9.2340864
21
4.3567413
0
LINE
8
layer1
10
-9.2340864
20
4.3567413
11
-9.0471873
21
4.2522719
0
LINE
8
layer1
10
-9.0471873
20
4.2522719
11
-8.8683799
21
4.1705954
0
LINE
8
layer1
10
-8.8683799
20
4.1705954
11
-8.6992136
21
4.1108177
0
LINE
8
layer1
10
-8.6992136
20
4.1108177
11
-8.5411868
21
4.071976
0
LINE
8
layer1
10
-8.5411868
20
4.071976
11
-8.3957408
21
4.0530114
0
LINE
8
layer1
10
-8.3957408
20
4.0530114
11
-8.2642237
21
4.0527695
0
LINE
8
layer1
10
-8.2642237
20
4.0527695
11
-8.1479326
21
4.0700274
0
LINE
8
layer1
10
-8.1479326
20
4.0700274
11
-8.0480689
21
4.1034889
0
LINE
8
layer1
10
-8.0480689
20
4.1034889
11
-7.9657693
21
4.1517924
0
LINE
8
layer1
10
-7.9657693
20
4.1517924
11
-7.9020748
21
4.2135029
0
LINE
8
layer1
10
-7.9020748
20
4.2135029
11
-7.8774915
21
4.2489253
0
LINE
8
layer1
10
-7.8774915
20
4.2489253
11
-7.7137417
21
4.53885
0
LINE
8
layer1
10
-7.7137417
20
4.53885
11
-7.5292191
21
4.8387353
0
LINE
8
layer1
10
-7.5292191
20
4.8387353
11
-7.3330873
21
5.1311598
0
LINE
8
layer1
10
-7.3330873
20
5.1311598
11
-7.1373866
21
5.4005509
0
LINE
8
layer1
10
-7.1373866
20
5.4005509
11
-7.1153775
21
5.4376277
0
LINE
8
layer1
10
-7.1153775
20
5.4376277
11
-7.0857034
21
5.5212017
0
LINE
8
layer1
10
-7.0857034
20
5.5212017
11
-7.0759535
21
5.6161301
0
LINE
8
layer1
10
-7.0759535
20
5.6161301
11
-7.0870007
21
5.7208697
0
LINE
8
layer1
10
-7.0870007
20
5.7208697
11
-7.1196114
21
5.833821
0
LINE
8
layer1
10
-7.1196114
20
5.833821
11
-7.1744656
21
5.9533527
0
LINE
8
layer1
10
-7.1744656
20
5.9533527
11
-7.2521369
21
6.0777768
0
LINE
8
layer1
10
-7.2521369
20
6.0777768
11
-7.3531152
21
6.2053876
0
LINE
8
layer1
10
-7.3531152
20
6.2053876
11
-7.4777652
21
6.3344341
0
LINE
8
layer1
10
-7.4777652
20
6.3344341
11
-7.62634
21
6.4631534
0
LINE
8
layer1
10
-7.62634
20
6.4631534
11
-7.7990094
21
6.5897647
0
LINE
8
layer1
10
-7.7990094
20
6.5897647
11
-7.9476903
21
6.6861719
0
LINE
8
layer1
10
-7.9476903
20
6.6861719
11
-8.0286513
21
6.7770849
0
LINE
8
layer1
10
-8.0286513
20
6.7770849
11
-8.1451063
21
6.9318305
0
LINE
8
layer1
10
-8.1451063
20
6.9318305
11
-8.2875751
21
7.1580577
0
LINE
8
layer1
10
-8.2875751
20
7.1580577
11
-8.364188
21
7.2980751
0
LINE
8
layer1
10
-8.364188
20
7.2980751
11
-8.4436074
21
7.4588439
0
LINE
8
layer1
10
-8.4436074
20
7.4588439
11
-8.5226807
21
7.637316
0
LINE
8
layer1
10
-8.5226807
20
7.637316
11
-8.6015533
21
7.8375193
0
LINE
8
layer1
10
-8.6015533
20
7.8375193
11
-8.6776696
21
8.0572528
0
LINE
8
layer1
10
-8.6776696
20
8.0572528
11
-8.7497896
21
8.2975026
0
LINE
8
layer1
10
-8.7497896
20
8.2975026
11
-8.816271
21
8.5581049
0
LINE
8
layer1
10
-8.816271
20
8.5581049
11
-8.8757166
21
8.8399209
0
LINE
8
layer1
10
-8.8757166
20
8.8399209
11
-8.9261017
21
9.1406628
0
LINE
8
layer1
10
-8.9261017
20
9.1406628
11
-8.961156
21
9.4178546
0
ARC
8
layer1
10
0.000043
20
-0.0000492
40
13
50
128.2416421
51
133.5765424
0
LINE
8
layer1
10
-8.046689
20
10.2102448
11
-7.7773074
21
10.1360988
0
LINE
8
layer1
10
-7.7773074
20
10.1360988
11
-7.4867971
21
10.0434265
0
LINE
8
layer1
10
-7.4867971
20
10.0434265
11
-7.2163096
21
9.9444794
0
LINE
8
layer1
10
-7.2163096
20
9.9444794
11
-6.9678211
21
9.8415871
0
LINE
8
layer1
10
-6.9678211
20
9.8415871
11
-6.7402805
21
9.7360101
0
LINE
8
layer1
10
-6.7402805
20
9.7360101
11
-6.533616
21
9.6293972
0
LINE
8
layer1
10
-6.533616
20
9.6293972
11
-6.3466752
21
9.5228355
0
LINE
8
layer1
10
-6.3466752
20
9.5228355
11
-6.181273
21
9.4191678
0
LINE
8
layer1
10
-6.181273
20
9.4191678
11
-6.0334431
21
9.317677
0
LINE
8
layer1
10
-6.0334431
20
9.317677
11
-5.9057541
21
9.2219173
0
LINE
8
layer1
10
-5.9057541
20
9.2219173
11
-5.702105
21
9.0487032
0
LINE
8
layer1
10
-5.702105
20
9.0487032
11
-5.5655077
21
8.911411
0
LINE
8
layer1
10
-5.5655077
20
8.911411
11
-5.4870421
21
8.8183357
0
LINE
8
layer1
10
-5.4870421
20
8.8183357
11
-5.4127756
21
8.657448
0
LINE
8
layer1
10
-5.4127756
20
8.657448
11
-5.3120265
21
8.4685175
0
LINE
8
layer1
10
-5.3120265
20
8.4685175
11
-5.2057618
21
8.3031363
0
LINE
8
layer1
10
-5.2057618
20
8.3031363
11
-5.0957683
21
8.1613899
0
LINE
8
layer1
10
-5.0957683
20
8.1613899
11
-4.9838271
21
8.0432784
0
LINE
8
layer1
10
-4.9838271
20
8.0432784
11
-4.8717232
21
7.9486903
0
LINE
8
layer1
10
-4.8717232
20
7.9486903
11
-4.7612148
21
7.8773833
0
LINE
8
layer1
10
-4.7612148
20
7.8773833
11
-4.6540541
21
7.8290299
0
LINE
8
layer1
10
-4.6540541
20
7.8290299
11
-4.5519528
21
7.8031891
0
LINE
8
layer1
10
-4.5519528
20
7.8031891
11
-4.4566031
21
7.79933
0
LINE
8
layer1
10
-4.4566031
20
7.79933
11
-4.3696567
21
7.8168084
0
LINE
8
layer1
10
-4.3696567
20
7.8168084
11
-4.3298251
21
7.8333169
0
LINE
8
layer1
10
-4.3298251
20
7.8333169
11
-4.0353249
21
7.9886872
0
LINE
8
layer1
10
-4.0353249
20
7.9886872
11
-3.7179644
21
8.1412064
0
LINE
8
layer1
10
-3.7179644
20
8.1412064
11
-3.3948712
21
8.2811726
0
LINE
8
layer1
10
-3.3948712
20
8.2811726
11
-3.0845935
21
8.4019951
0
LINE
8
layer1
10
-3.0845935
20
8.4019951
11
-3.046033
21
8.4212871
0
LINE
8
layer1
10
-3.046033
20
8.4212871
11
-2.975886
21
8.4755509
0
LINE
8
layer1
10
-2.975886
20
8.4755509
11
-2.9163617
21
8.5501385
0
LINE
8
layer1
10
-2.9163617
20
8.5501385
11
-2.8690287
21
8.6442237
0
LINE
8
layer1
10
-2.8690287
20
8.6442237
11
-2.8353965
21
8.7568751
0
LINE
8
layer1
10
-2.8353965
20
8.7568751
11
-2.8169191
21
8.8870879
0
LINE
8
layer1
10
-2.8169191
20
8.8870879
11
-2.8149916
21
9.0337524
0
LINE
8
layer1
10
-2.8149916
20
9.0337524
11
-2.8309484
21
9.1956985
0
LINE
8
layer1
10
-2.8309484
20
9.1956985
11
-2.8660427
21
9.3716501
0
LINE
8
layer1
10
-2.8660427
20
9.3716501
11
-2.9214409
21
9.5602613
0
LINE
8
layer1
10
-2.9214409
20
9.5602613
11
-2.9982485
21
9.7601257
0
LINE
8
layer1
10
-2.9982485
20
9.7601257
11
-3.0712051
21
9.9216115
0
LINE
8
layer1
10
-3.0712051
20
9.9216115
11
-3.0901626
21
10.0418632
0
LINE
8
layer1
10
-3.0901626
20
10.0418632
11
-3.1044689
21
10.2350039
0
LINE
8
layer1
10
-3.1044689
20
10.2350039
11
-3.1020136
21
10.5023427
0
LINE
8
layer1
10
-3.1020136
20
10.5023427
11
-3.0907654
21
10.6615529
0
LINE
8
layer1
10
-3.0907654
20
10.6615529
11
-3.0706591
21
10.8397376
0
LINE
8
layer1
10
-3.0706591
20
10.8397376
11
-3.0406905
21
11.0326281
0
LINE
8
layer1
10
-3.0406905
20
11.0326281
11
-2.9988043
21
11.2436917
0
LINE
8
layer1
10
-2.9988043
20
11.2436917
11
-2.9440405
21
11.4696948
0
LINE
8
layer1
10
-2.9440405
20
11.4696948
11
-2.8748228
21
11.7107968
0
LINE
8
layer1
10
-2.8748228
20
11.7107968
11
-2.7898583
21
11.965972
0
LINE
8
layer1
10
-2.7898583
20
11.965972
11
-2.6875059
21
12.2351894
0
LINE
8
layer1
10
-2.6875059
20
12.2351894
11
-2.5672991
21
12.5154298
0
LINE
8
layer1
10
-2.5672991
20
12.5154298
11
-2.4469275
21
12.7675701
0
ARC
8
layer1
10
0.0000089
20
-0.0000649
40
13
50
95.5143661
51
100.8492664
0
LINE
8
layer1
10
-1.2492304
20
12.939773
11
-1.0626986
21
12.7317587
0
LINE
8
layer1
10
-1.0626986
20
12.7317587
11
-0.8684082
21
12.4967361
0
LINE
8
layer1
10
-0.8684082
20
12.4967361
11
-0.6943544
21
12.26726
0
LINE
8
layer1
10
-0.6943544
20
12.26726
11
-0.5409404
21
12.0463584
0
LINE
8
layer1
10
-0.5409404
20
12.0463584
11
-0.4066003
21
11.8345236
0
LINE
8
layer1
10
-0.4066003
20
11.8345236
11
-0.2903824
21
11.6331039
0
LINE
8
layer1
10
-0.2903824
20
11.6331039
11
-0.1907294
21
11.4423907
0
LINE
8
layer1
10
-0.1907294
20
11.4423907
11
-0.1076312
21
11.2657567
0
LINE
8
layer1
10
-0.1076312
20
11.2657567
11
-0.0381388
21
11.1004543
0
LINE
8
layer1
10
-0.0381388
20
11.1004543
11
0.0175084
21
10.9508623
0
LINE
8
layer1
10
0.0175084
20
10.9508623
11
0.0951823
21
10.6950443
0
LINE
8
layer1
10
0.0951823
20
10.6950443
11
0.1358695
21
10.5056966
0
LINE
8
layer1
10
0.1358695
20
10.5056966
11
0.1515587
21
10.384975
0
LINE
8
layer1
10
0.1515587
20
10.384975
11
0.1270532
21
10.2094762
0
LINE
8
layer1
10
0.1270532
20
10.2094762
11
0.1096651
21
9.9960686
0
LINE
8
layer1
10
0.1096651
20
9.9960686
11
0.1096489
21
9.79949
0
LINE
8
layer1
10
0.1096489
20
9.79949
11
0.1255474
21
9.6207784
0
LINE
8
layer1
10
0.1255474
20
9.6207784
11
0.1558624
21
9.4608967
0
LINE
8
layer1
10
0.1558624
20
9.4608967
11
0.1990321
21
9.3207162
0
LINE
8
layer1
10
0.1990321
20
9.3207162
11
0.2534462
21
9.2009836
0
LINE
8
layer1
10
0.2534462
20
9.2009836
11
0.3174536
21
9.1023706
0
LINE
8
layer1
10
0.3174536
20
9.1023706
11
0.3893762
21
9.0254319
0
LINE
8
layer1
10
0.3893762
20
9.0254319
11
0.467503
21
8.9706355
0
LINE
8
layer1
10
0.467503
20
8.9706355
11
0.5500965
21
8.9383324
0
LINE
8
layer1
10
0.5500965
20
8.9383324
11
0.5925302
21
8.9306857
0
LINE
8
layer1
10
0.5925302
20
8.9306857
11
0.9242791
21
8.9021727
0
LINE
8
layer1
10
0.9242791
20
8.9021727
11
1.2737178
21
8.8589019
0
LINE
8
layer1
10
1.2737178
20
8.8589019
11
1.6211926
21
8.8019716
0
LINE
8
layer1
10
1.6211926
20
8.8019716
11
1.9475364
21
8.7358652
0
LINE
8
layer1
10
1.9475364
20
8.7358652
11
1.9904055
21
8.7312473
0
LINE
8
layer1
10
1.9904055
20
8.7312473
11
2.0787542
21
8.7389726
0
LINE
8
layer1
10
2.0787542
20
8.7389726
11
2.1691543
21
8.7695384
0
LINE
8
layer1
10
2.1691543
20
8.7695384
11
2.2598396
21
8.8230977
0
LINE
8
layer1
10
2.2598396
20
8.8230977
11
2.3490368
21
8.8996832
0
LINE
8
layer1
10
2.3490368
20
8.8996832
11
2.4349793
21
8.9992356
0
LINE
8
layer1
10
2.4349793
20
8.9992356
11
2.5158937
21
9.1215755
0
LINE
8
layer1
10
2.5158937
20
9.1215755
11
2.5900246
21
9.2664401
0
LINE
8
layer1
10
2.5900246
20
9.2664401
11
2.655628
21
9.4334335
0
LINE
8
layer1
10
2.655628
20
9.4334335
11
2.7109951
21
9.6220538
0
LINE
8
layer1
10
2.7109951
20
9.6220538
11
2.7544352
21
9.8317157
0
LINE
8
layer1
10
2.7544352
20
9.8317157
11
2.7803661
21
10.0070096
0
LINE
8
layer1
10
2.7803661
20
10.0070096
11
2.829431
21
10.1184209
0
LINE
8
layer1
10
2.829431
20
10.1184209
11
2.9218154
21
10.2886358
0
LINE
8
layer1
10
2.9218154
20
10.2886358
11
3.0684152
21
10.5122081
0
LINE
8
layer1
10
3.0684152
20
10.5122081
11
3.1639533
21
10.640063
0
LINE
8
layer1
10
3.1639533
20
10.640063
11
3.2772018
21
10.7790912
0
LINE
8
layer1
10
3.2772018
20
10.7790912
11
3.4066975
21
10.9251588
0
LINE
8
layer1
10
3.4066975
20
10.9251588
11
3.556044
21
11.0800713
0
LINE
8
layer1
10
3.556044
20
11.0800713
11
3.7243007
21
11.2405897
0
LINE
8
layer1
10
3.7243007
20
11.2405897
11
3.9128799
21
11.4059957
0
LINE
8
layer1
10
3.9128799
20
11.4059957
11
4.1223147
21
11.5747275
0
LINE
8
layer1
10
4.1223147
20
11.5747275
11
4.353969
21
11.7458717
0
LINE
8
layer1
10
4.353969
20
11.7458717
11
4.6066027
21
11.9166363
0
LINE
8
layer1
10
4.6066027
20
11.9166363
11
4.8441831
21
12.0636724
0
ARC
8
layer1
10
-0.0000273
20
-0.0000594
40
13
50
62.7870947
51
68.1219952
0
LINE
8
layer1
10
5.9448499
20
11.5610147
11
5.9893095
21
11.2851752
0
LINE
8
layer1
10
5.9893095
20
11.2851752
11
6.0256942
21
10.9824203
0
LINE
8
layer1
10
6.0256942
20
10.9824203
11
6.0480533
21
10.6952721
0
LINE
8
layer1
10
6.0480533
20
10.6952721
11
6.057685
21
10.4264961
0
LINE
8
layer1
10
6.057685
20
10.4264961
11
6.0561726
21
10.1756595
0
LINE
8
layer1
10
6.0561726
20
10.1756595
11
6.0450456
21
9.9433824
0
LINE
8
layer1
10
6.0450456
20
9.9433824
11
6.0257717
21
9.7290677
0
LINE
8
layer1
10
6.0257717
20
9.7290677
11
6.0001828
21
9.5355474
0
LINE
8
layer1
10
6.0001828
20
9.5355474
11
5.9692743
21
9.3589158
0
LINE
8
layer1
10
5.9692743
20
9.3589158
11
5.9352121
21
9.2029858
0
LINE
8
layer1
10
5.9352121
20
9.2029858
11
5.8622499
21
8.9457843
0
LINE
8
layer1
10
5.8622499
20
8.9457843
11
5.7941091
21
8.7644978
0
LINE
8
layer1
10
5.7941091
20
8.7644978
11
5.7420407
21
8.6544581
0
LINE
8
layer1
10
5.7420407
20
8.6544581
11
5.6265435
21
8.5200678
0
LINE
8
layer1
10
5.6265435
20
8.5200678
11
5.4965389
21
8.3499386
0
LINE
8
layer1
10
5.4965389
20
8.3499386
11
5.3902468
21
8.1845749
0
LINE
8
layer1
10
5.3902468
20
8.1845749
11
5.3070027
21
8.0256378
0
LINE
8
layer1
10
5.3070027
20
8.0256378
11
5.2460668
21
7.8747472
0
LINE
8
layer1
10
5.2460668
20
7.8747472
11
5.2065961
21
7.7334806
0
LINE
8
layer1
10
5.2065961
20
7.7334806
11
5.1876398
21
7.6033366
0
LINE
8
layer1
10
5.1876398
20
7.6033366
11
5.1881721
21
7.4857731
0
LINE
8
layer1
10
5.1881721
20
7.4857731
11
5.2070809
21
7.3821638
0
LINE
8
layer1
10
5.2070809
20
7.3821638
11
5.2431803
21
7.2938276
0
LINE
8
layer1
10
5.2431803
20
7.2938276
11
5.295198
21
7.2219991
0
LINE
8
layer1
10
5.295198
20
7.2219991
11
5.3267613
21
7.1926249
0
LINE
8
layer1
10
5.3267613
20
7.1926249
11
5.5904309
21
6.9892812
0
LINE
8
layer1
10
5.5904309
20
6.9892812
11
5.8610036
21
6.7639587
0
LINE
8
layer1
10
5.8610036
20
6.7639587
11
6.1225391
21
6.5282068
0
LINE
8
layer1
10
6.1225391
20
6.5282068
11
6.3613371
21
6.2961598
0
LINE
8
layer1
10
6.3613371
20
6.2961598
11
6.3949043
21
6.2690982
0
LINE
8
layer1
10
6.3949043
20
6.2690982
11
6.4734046
21
6.2278322
0
LINE
8
layer1
10
6.4734046
20
6.2278322
11
6.5659791
21
6.2046718
0
LINE
8
layer1
10
6.5659791
20
6.2046718
11
6.6712248
21
6.2007006
0
LINE
8
layer1
10
6.6712248
20
6.2007006
11
6.7876675
21
6.2169047
0
LINE
8
layer1
10
6.7876675
20
6.2169047
11
6.913789
21
6.2541895
0
LINE
8
layer1
10
6.913789
20
6.2541895
11
7.0480005
21
6.3133628
0
LINE
8
layer1
10
7.0480005
20
6.3133628
11
7.1886831
21
6.3951524
0
LINE
8
layer1
10
7.1886831
20
6.3951524
11
7.3341556
21
6.5001683
0
LINE
8
layer1
10
7.3341556
20
6.5001683
11
7.4827092
21
6.6289122
0
LINE
8
layer1
10
7.4827092
20
6.6289122
11
7.6326052
21
6.7818055
0
LINE
8
layer1
10
7.6326052
20
6.7818055
11
7.7491906
21
6.9152528
0
LINE
8
layer1
10
7.7491906
20
6.9152528
11
7.8507002
21
6.9824515
0
LINE
8
layer1
10
7.8507002
20
6.9824515
11
8.020444
21
7.0756985
0
LINE
8
layer1
10
8.020444
20
7.0756985
11
8.2646439
21
7.1845217
0
LINE
8
layer1
10
8.2646439
20
7.1845217
11
8.4141393
21
7.2404283
0
LINE
8
layer1
10
8.4141393
20
7.2404283
11
8.5845743
21
7.2961595
0
LINE
8
layer1
10
8.5845743
20
7.2961595
11
8.772483
21
7.3490287
0
LINE
8
layer1
10
8.772483
20
7.3490287
11
8.9818734
21
7.3986066
0
LINE
8
layer1
10
8.9818734
20
7.3986066
11
9.2102028
21
7.4426768
0
LINE
8
layer1
10
9.2102028
20
7.4426768
11
9.4582709
21
7.4798716
0
LINE
8
layer1
10
9.4582709
20
7.4798716
11
9.7256819
21
7.5085888
0
LINE
8
layer1
10
9.7256819
20
7.5085888
11
10.0130894
21
7.5273227
0
LINE
8
layer1
10
10.0130894
20
7.5273227
11
10.3179408
21
7.5343949
0
LINE
8
layer1
10
10.3179408
20
7.5343949
11
10.5972999
21
7.5296439
0
ARC
8
layer1
10
-0.0000547
20
-0.0000358
40
13
50
30.0598251
51
35.3947254
0
LINE
8
layer1
10
11.2514824
20
6.5117159
11
11.1397542
21
6.2556283
0
ENDSEC
0
EOF