0
SECTION
2
HEADER
0
ENDSEC
0
SECTION
2
TABLES
0
TABLE
2
LTYPE
0
LTYPE
72
65
70
64
2
CONTINUOUS
3
______
73
0
40
0
0
ENDTAB
0
TABLE
2
LAYER
0
ENDTAB
0
ENDSEC
0
SECTION
2
ENTITIES
0
CIRCLE
8
0
10
0
20
0
40
2
0
CIRCLE
8
0
10
0
20
0
40
2
0
LINE
8
layer0
10
35.0430393
20
5.5363308
11
34.7811908
21
5.3587127
0
LINE
8
layer0
10
34.7811908
20
5.3587127
11
34.2826542
21
5.0427859
0
LINE
8
layer0
10
34.2826542
20
5.0427859
11
33.820001
21
4.7760598
0
LINE
8
layer0
10
33.820001
20
4.7760598
11
33.3969553
21
4.5551939
0
LINE
8
layer0
10
33.3969553
20
4.5551939
11
33.0150757
21
4.3757229
0
LINE
8
layer0
10
33.0150757
20
4.3757229
11
32.6782187
21
4.2342884
0
LINE
8
layer0
10
32.6782187
20
4.2342884
11
32.3872714
21
4.126192
0
LINE
8
layer0
10
32.3872714
20
4.126192
11
32.0497562
21
4.0118021
0
LINE
8
layer0
10
32.0497562
20
4.0118021
11
31.9573863
21
3.9700311
0
LINE
8
layer0
10
31.9573863
20
3.9700311
11
31.8808398
21
3.9264624
0
LINE
8
layer0
10
31.8808398
20
3.9264624
11
31.8201173
21
3.8817388
0
LINE
8
layer0
10
31.8201173
20
3.8817388
11
31.7752495
21
3.836506
0
LINE
8
layer0
10
31.7752495
20
3.836506
11
31.7462062
21
3.7914139
0
LINE
8
layer0
10
31.7462062
20
3.7914139
11
31.7329691
21
3.7470934
0
LINE
8
layer0
10
31.7329691
20
3.7470934
11
31.7333848
21
3.7147538
0
LINE
8
layer0
10
31.7333848
20
3.7147538
11
31.8137069
21
2.9479741
0
LINE
8
layer0
10
31.8137069
20
2.9479741
11
31.8756478
21
2.1794911
0
LINE
8
layer0
10
31.8756478
20
2.1794911
11
31.8811816
21
2.1476257
0
LINE
8
layer0
10
31.8811816
20
2.1476257
11
31.9023372
21
2.1064922
0
LINE
8
layer0
10
31.9023372
20
2.1064922
11
31.9391716
21
2.0675046
0
LINE
8
layer0
10
31.9391716
20
2.0675046
11
31.991587
21
2.0312864
0
LINE
8
layer0
10
31.991587
20
2.0312864
11
32.0594935
21
1.998482
0
LINE
8
layer0
10
32.0594935
20
1.998482
11
32.1427424
21
1.9697206
0
LINE
8
layer0
10
32.1427424
20
1.9697206
11
32.2412149
21
1.9456337
0
LINE
8
layer0
10
32.2412149
20
1.9456337
11
32.5940024
21
1.8952098
0
LINE
8
layer0
10
32.5940024
20
1.8952098
11
32.8998584
21
1.8424154
0
LINE
8
layer0
10
32.8998584
20
1.8424154
11
33.2569683
21
1.7652863
0
LINE
8
layer0
10
33.2569683
20
1.7652863
11
33.6653233
21
1.6590413
0
LINE
8
layer0
10
33.6653233
20
1.6590413
11
34.1217499
21
1.5196705
0
LINE
8
layer0
10
34.1217499
20
1.5196705
11
34.6255363
21
1.3424983
0
LINE
8
layer0
10
34.6255363
20
1.3424983
11
35.1736358
21
1.1235566
0
LINE
8
layer0
10
35.1736358
20
1.1235566
11
35.463663
21
0.9970774
0
LINE
8
layer0
10
35.463663
20
0.9970774
11
35.9922145
21
0.7479867
0
ARC
8
layer0
10
-0.000014
20
0
40
36
50
358.8094565
51
361.1905435
0
LINE
8
layer0
10
35.9922145
20
-0.7479867
11
35.463663
21
-0.9970774
0
LINE
8
layer0
10
35.463663
20
-0.9970774
11
35.1736358
21
-1.1235566
0
LINE
8
layer0
10
35.1736358
20
-1.1235566
11
34.6255363
21
-1.3424983
0
LINE
8
layer0
10
34.6255363
20
-1.3424983
11
34.1217499
21
-1.5196705
0
LINE
8
layer0
10
34.1217499
20
-1.5196705
11
33.6653233
21
-1.6590413
0
LINE
8
layer0
10
33.6653233
20
-1.6590413
11
33.2569683
21
-1.7652863
0
LINE
8
layer0
10
33.2569683
20
-1.7652863
11
32.8998584
21
-1.8424154
0
LINE
8
layer0
10
32.8998584
20
-1.8424154
11
32.5940024
21
-1.8952098
0
LINE
8
layer0
10
32.5940024
20
-1.8952098
11
32.2412149
21
-1.9456337
0
LINE
8
layer0
10
32.2412149
20
-1.9456337
11
32.1427424
21
-1.9697206
0
LINE
8
layer0
10
32.1427424
20
-1.9697206
11
32.0594935
21
-1.998482
0
LINE
8
layer0
10
32.0594935
20
-1.998482
11
31.991587
21
-2.0312864
0
LINE
8
layer0
10
31.991587
20
-2.0312864
11
31.9391716
21
-2.0675046
0
LINE
8
layer0
10
31.9391716
20
-2.0675046
11
31.9023372
21
-2.1064922
0
LINE
8
layer0
10
31.9023372
20
-2.1064922
11
31.8811816
21
-2.1476257
0
LINE
8
layer0
10
31.8811816
20
-2.1476257
11
31.8756478
21
-2.1794911
0
LINE
8
layer0
10
31.8756478
20
-2.1794911
11
31.8137069
21
-2.9479741
0
LINE
8
layer0
10
31.8137069
20
-2.9479741
11
31.7333848
21
-3.7147538
0
LINE
8
layer0
10
31.7333848
20
-3.7147538
11
31.7329691
21
-3.7470934
0
LINE
8
layer0
10
31.7329691
20
-3.7470934
11
31.7462062
21
-3.7914139
0
LINE
8
layer0
10
31.7462062
20
-3.7914139
11
31.7752495
21
-3.836506
0
LINE
8
layer0
10
31.7752495
20
-3.836506
11
31.8201173
21
-3.8817388
0
LINE
8
layer0
10
31.8201173
20
-3.8817388
11
31.8808398
21
-3.9264624
0
LINE
8
layer0
10
31.8808398
20
-3.9264624
11
31.9573863
21
-3.9700311
0
LINE
8
layer0
10
31.9573863
20
-3.9700311
11
32.0497562
21
-4.0118021
0
LINE
8
layer0
10
32.0497562
20
-4.0118021
11
32.3872714
21
-4.126192
0
LINE
8
layer0
10
32.3872714
20
-4.126192
11
32.6782187
21
-4.2342884
0
LINE
8
layer0
10
32.6782187
20
-4.2342884
11
33.0150757
21
-4.3757229
0
LINE
8
layer0
10
33.0150757
20
-4.3757229
11
33.3969553
21
-4.5551939
0
LINE
8
layer0
10
33.3969553
20
-4.5551939
11
33.820001
21
-4.7760598
0
LINE
8
layer0
10
33.820001
20
-4.7760598
11
34.2826542
21
-5.0427859
0
LINE
8
layer0
10
34.2826542
20
-5.0427859
11
34.7811908
21
-5.3587127
0
LINE
8
layer0
10
34.7811908
20
-5.3587127
11
35.0430393
21
-5.5363308
0
LINE
8
layer0
10
35.0430393
20
-5.5363308
11
35.5168209
21
-5.8783012
0
ARC
8
layer0
10
-0.0000138
20
0.0000024
40
36
50
348.2212215
51
350.6023086
0
LINE
8
layer0
10
35.2419365
20
-7.3488029
11
34.6766143
21
-7.4965312
0
LINE
8
layer0
10
34.6766143
20
-7.4965312
11
34.3682848
21
-7.5675645
0
LINE
8
layer0
10
34.3682848
20
-7.5675645
11
33.7892873
21
-7.6820653
0
LINE
8
layer0
10
33.7892873
20
-7.6820653
11
33.2615235
21
-7.7636503
0
LINE
8
layer0
10
33.2615235
20
-7.7636503
11
32.7872592
21
-7.8167799
0
LINE
8
layer0
10
32.7872592
20
-7.8167799
11
32.3663347
21
-7.8461808
0
LINE
8
layer0
10
32.3663347
20
-7.8461808
11
32.0011328
21
-7.8563779
0
LINE
8
layer0
10
32.0011328
20
-7.8563779
11
31.6907837
21
-7.8520724
0
LINE
8
layer0
10
31.6907837
20
-7.8520724
11
31.3347377
21
-7.8368133
0
LINE
8
layer0
10
31.3347377
20
-7.8368133
11
31.2335159
21
-7.8423958
0
LINE
8
layer0
10
31.2335159
20
-7.8423958
11
31.1463996
21
-7.8553706
0
LINE
8
layer0
10
31.1463996
20
-7.8553706
11
31.0736216
21
-7.8751385
0
LINE
8
layer0
10
31.0736216
20
-7.8751385
11
31.0154436
21
-7.9011088
0
LINE
8
layer0
10
31.0154436
20
-7.9011088
11
30.9720723
21
-7.9326643
0
LINE
8
layer0
10
30.9720723
20
-7.9326643
11
30.9437187
21
-7.9692101
0
LINE
8
layer0
10
30.9437187
20
-7.9692101
11
30.9324239
21
-7.999516
0
LINE
8
layer0
10
30.9324239
20
-7.999516
11
30.7303293
21
-8.7435325
0
LINE
8
layer0
10
30.7303293
20
-8.7435325
11
30.5104794
21
-9.4824972
0
LINE
8
layer0
10
30.5104794
20
-9.4824972
11
30.5041284
21
-9.5142098
0
LINE
8
layer0
10
30.5041284
20
-9.5142098
11
30.5089962
21
-9.5602079
0
LINE
8
layer0
10
30.5089962
20
-9.5602079
11
30.5292594
21
-9.609869
0
LINE
8
layer0
10
30.5292594
20
-9.609869
11
30.5650517
21
-9.6625761
0
LINE
8
layer0
10
30.5650517
20
-9.6625761
11
30.6165223
21
-9.7176958
0
LINE
8
layer0
10
30.6165223
20
-9.7176958
11
30.6837598
21
-9.7745881
0
LINE
8
layer0
10
30.6837598
20
-9.7745881
11
30.7668815
21
-9.8326208
0
LINE
8
layer0
10
30.7668815
20
-9.8326208
11
31.0776308
21
-10.0070813
0
LINE
8
layer0
10
31.0776308
20
-10.0070813
11
31.3437615
21
-10.1667985
0
LINE
8
layer0
10
31.3437615
20
-10.1667985
11
31.6488943
21
-10.3677222
0
LINE
8
layer0
10
31.6488943
20
-10.3677222
11
31.9912939
21
-10.6143075
0
LINE
8
layer0
10
31.9912939
20
-10.6143075
11
32.3665525
21
-10.9091472
0
LINE
8
layer0
10
32.3665525
20
-10.9091472
11
32.7723174
21
-11.2563441
0
LINE
8
layer0
10
32.7723174
20
-11.2563441
11
33.204314
21
-11.6584975
0
LINE
8
layer0
10
33.204314
20
-11.6584975
11
33.4290668
21
-11.8812058
0
LINE
8
layer0
10
33.4290668
20
-11.8812058
11
33.8319445
21
-12.3044107
0
ARC
8
layer0
10
-0.0000134
20
0.0000042
40
36
50
337.6329874
51
340.0140744
0
LINE
8
layer0
10
33.2915365
20
-13.6993644
11
32.7086951
21
-13.7406997
0
LINE
8
layer0
10
32.7086951
20
-13.7406997
11
32.3925632
21
-13.7538681
0
LINE
8
layer0
10
32.3925632
20
-13.7538681
11
31.8023847
21
-13.7600288
0
LINE
8
layer0
10
31.8023847
20
-13.7600288
11
31.2686159
21
-13.7432483
0
LINE
8
layer0
10
31.2686159
20
-13.7432483
11
30.7926642
21
-13.7083275
0
LINE
8
layer0
10
30.7926642
20
-13.7083275
11
30.3735044
21
-13.6598831
0
LINE
8
layer0
10
30.3735044
20
-13.6598831
11
30.0126471
21
-13.6028008
0
LINE
8
layer0
10
30.0126471
20
-13.6028008
11
29.7083733
21
-13.5415422
0
LINE
8
layer0
10
29.7083733
20
-13.5415422
11
29.3611936
21
-13.4611196
0
LINE
8
layer0
10
29.3611936
20
-13.4611196
11
29.2606695
21
-13.4480076
0
LINE
8
layer0
10
29.2606695
20
-13.4480076
11
29.1726524
21
-13.4447538
0
LINE
8
layer0
10
29.1726524
20
-13.4447538
11
29.0974812
21
-13.4508123
0
LINE
8
layer0
10
29.0974812
20
-13.4508123
11
29.0355218
21
-13.4656502
0
LINE
8
layer0
10
29.0355218
20
-13.4656502
11
28.9870907
21
-13.4886989
0
LINE
8
layer0
10
28.9870907
20
-13.4886989
11
28.9525046
21
-13.5194125
0
LINE
8
layer0
10
28.9525046
20
-13.5194125
11
28.9358334
21
-13.547127
0
LINE
8
layer0
10
28.9358334
20
-13.547127
11
28.6004672
21
-14.2413405
0
LINE
8
layer0
10
28.6004672
20
-14.2413405
11
28.2485762
21
-14.9273256
0
LINE
8
layer0
10
28.2485762
20
-14.9273256
11
28.2365062
21
-14.9573312
0
LINE
8
layer0
10
28.2365062
20
-14.9573312
11
28.232839
21
-15.0034406
0
LINE
8
layer0
10
28.232839
20
-15.0034406
11
28.2436319
21
-15.0559794
0
LINE
8
layer0
10
28.2436319
20
-15.0559794
11
28.2691299
21
-15.1143659
0
LINE
8
layer0
10
28.2691299
20
-15.1143659
11
28.3095959
21
-15.1780048
0
LINE
8
layer0
10
28.3095959
20
-15.1780048
11
28.3652346
21
-15.2462832
0
LINE
8
layer0
10
28.3652346
20
-15.2462832
11
28.4362776
21
-15.3186014
0
LINE
8
layer0
10
28.4362776
20
-15.3186014
11
28.7096787
21
-15.5471914
0
LINE
8
layer0
10
28.7096787
20
-15.5471914
11
28.94193
21
-15.7530905
0
LINE
8
layer0
10
28.94193
20
-15.7530905
11
29.2049478
21
-16.0066611
0
LINE
8
layer0
10
29.2049478
20
-16.0066611
11
29.4962075
21
-16.3119636
0
LINE
8
layer0
10
29.4962075
20
-16.3119636
11
29.8108999
21
-16.6707367
0
LINE
8
layer0
10
29.8108999
20
-16.6707367
11
30.1459586
21
-17.0865809
0
LINE
8
layer0
10
30.1459586
20
-17.0865809
11
30.4967042
21
-17.5612661
0
LINE
8
layer0
10
30.4967042
20
-17.5612661
11
30.6767076
21
-17.8214806
0
LINE
8
layer0
10
30.6767076
20
-17.8214806
11
30.9949618
21
-18.3115082
0
ARC
8
layer0
10
-0.0000126
20
0.0000063
40
36
50
327.0447526
51
329.4258397
0
LINE
8
layer0
10
30.2074333
20
-19.5834105
11
29.6269204
21
-19.5169451
0
LINE
8
layer0
10
29.6269204
20
-19.5169451
11
29.3137516
21
-19.4718002
0
LINE
8
layer0
10
29.3137516
20
-19.4718002
11
28.73249
21
-19.369411
0
LINE
8
layer0
10
28.73249
20
-19.369411
11
28.210893
21
-19.2548365
0
LINE
8
layer0
10
28.210893
20
-19.2548365
11
27.749462
21
-19.1330543
0
LINE
8
layer0
10
27.749462
20
-19.1330543
11
27.3463408
21
-19.0084144
0
LINE
8
layer0
10
27.3463408
20
-19.0084144
11
27.0021166
21
-18.8859967
0
LINE
8
layer0
10
27.0021166
20
-18.8859967
11
26.71428
21
-18.769871
0
LINE
8
layer0
10
26.71428
20
-18.769871
11
26.3877892
21
-18.6270236
0
LINE
8
layer0
10
26.3877892
20
-18.6270236
11
26.2913861
21
-18.5956636
0
LINE
8
layer0
10
26.2913861
20
-18.5956636
11
26.2054655
21
-18.5762922
0
LINE
8
layer0
10
26.2054655
20
-18.5762922
11
26.130461
21
-18.5684348
0
LINE
8
layer0
10
26.130461
20
-18.5684348
11
26.0668301
21
-18.571635
0
LINE
8
layer0
10
26.0668301
20
-18.571635
11
26.0149885
21
-18.5853922
0
LINE
8
layer0
10
26.0149885
20
-18.5853922
11
25.9753477
21
-18.6092276
0
LINE
8
layer0
10
25.9753477
20
-18.6092276
11
25.9538678
21
-18.6334069
0
LINE
8
layer0
10
25.9538678
20
-18.6334069
11
25.4966504
21
-19.2541766
0
LINE
8
layer0
10
25.4966504
20
-19.2541766
11
25.0247016
21
-19.8638218
0
LINE
8
layer0
10
25.0247016
20
-19.8638218
11
25.0073236
21
-19.8910986
0
LINE
8
layer0
10
25.0073236
20
-19.8910986
11
24.9952463
21
-19.935749
0
LINE
8
layer0
10
24.9952463
20
-19.935749
11
24.9962015
21
-19.9893765
0
LINE
8
layer0
10
24.9962015
20
-19.9893765
11
25.0105368
21
-20.0514541
0
LINE
8
layer0
10
25.0105368
20
-20.0514541
11
25.0386202
21
-20.1214451
0
LINE
8
layer0
10
25.0386202
20
-20.1214451
11
25.0807654
21
-20.1987844
0
LINE
8
layer0
10
25.0807654
20
-20.1987844
11
25.1373103
21
-20.2829253
0
LINE
8
layer0
10
25.1373103
20
-20.2829253
11
25.364053
21
-20.5578605
0
LINE
8
layer0
10
25.364053
20
-20.5578605
11
25.5545159
21
-20.8029299
0
LINE
8
layer0
10
25.5545159
20
-20.8029299
11
25.7664618
21
-21.1005123
0
LINE
8
layer0
10
25.7664618
20
-21.1005123
11
25.996663
21
-21.4541353
0
LINE
8
layer0
10
25.996663
20
-21.4541353
11
26.2400728
21
-21.8646242
0
LINE
8
layer0
10
26.2400728
20
-21.8646242
11
26.4930154
21
-22.3349548
0
LINE
8
layer0
10
26.4930154
20
-22.3349548
11
26.7505657
21
-22.8660069
0
LINE
8
layer0
10
26.7505657
20
-22.8660069
11
26.8796899
21
-23.1548662
0
LINE
8
layer0
10
26.8796899
20
-23.1548662
11
27.1024829
21
-23.6950293
0
ARC
8
layer0
10
-0.0000101
20
0.0000097
40
36
50
316.4565147
51
318.8376017
0
LINE
8
layer0
10
26.0946521
20
-24.800567
11
25.5362365
21
-24.6285644
0
LINE
8
layer0
10
25.5362365
20
-24.6285644
11
25.2366953
21
-24.5266435
0
LINE
8
layer0
10
25.2366953
20
-24.5266435
11
24.6841449
21
-24.3191912
0
LINE
8
layer0
10
24.6841449
20
-24.3191912
11
24.192482
21
-24.1107243
0
LINE
8
layer0
10
24.192482
20
-24.1107243
11
23.7612852
21
-23.906228
0
LINE
8
layer0
10
23.7612852
20
-23.906228
11
23.3879304
21
-23.709637
0
LINE
8
layer0
10
23.3879304
20
-23.709637
11
23.0720615
21
-23.5260526
0
LINE
8
layer0
10
23.0720615
20
-23.5260526
11
22.8104638
21
-23.3590143
0
LINE
8
layer0
10
22.8104638
20
-23.3590143
11
22.5157803
21
-23.1586067
0
LINE
8
layer0
10
22.5157803
20
-23.1586067
11
22.4267811
21
-23.1100666
0
LINE
8
layer0
10
22.4267811
20
-23.1100666
11
22.3458829
21
-23.0752371
0
LINE
8
layer0
10
22.3458829
20
-23.0752371
11
22.2735993
21
-23.0537315
0
LINE
8
layer0
10
22.2735993
20
-23.0537315
11
22.2104638
21
-23.0451851
0
LINE
8
layer0
10
22.2104638
20
-23.0451851
11
22.156977
21
-23.0491821
0
LINE
8
layer0
10
22.156977
20
-23.0491821
11
22.1136314
21
-23.0653277
0
LINE
8
layer0
10
22.1136314
20
-23.0653277
11
22.0880744
21
-23.0851484
0
LINE
8
layer0
10
22.0880744
20
-23.0851484
11
21.5245758
21
-23.6113349
0
LINE
8
layer0
10
21.5245758
20
-23.6113349
11
20.9486408
21
-24.1238793
0
LINE
8
layer0
10
20.9486408
20
-24.1238793
11
20.9265466
21
-24.1474985
0
LINE
8
layer0
10
20.9265466
20
-24.1474985
11
20.9064705
21
-24.1891695
0
LINE
8
layer0
10
20.9064705
20
-24.1891695
11
20.8975553
21
-24.2420593
0
LINE
8
layer0
10
20.8975553
20
-24.2420593
11
20.9002399
21
-24.305714
0
LINE
8
layer0
10
20.9002399
20
-24.305714
11
20.9149843
21
-24.3796736
0
LINE
8
layer0
10
20.9149843
20
-24.3796736
11
20.9422008
21
-24.4634403
0
LINE
8
layer0
10
20.9422008
20
-24.4634403
11
20.9823221
21
-24.5565386
0
LINE
8
layer0
10
20.9823221
20
-24.5565386
11
21.1546848
21
-24.8684564
0
LINE
8
layer0
10
21.1546848
20
-24.8684564
11
21.2968734
21
-25.1443504
0
LINE
8
layer0
10
21.2968734
20
-25.1443504
11
21.4505299
21
-25.475811
0
LINE
8
layer0
10
21.4505299
20
-25.475811
11
21.6118334
21
-25.8657122
0
LINE
8
layer0
10
21.6118334
20
-25.8657122
11
21.7756716
21
-26.3139381
0
LINE
8
layer0
10
21.7756716
20
-26.3139381
11
21.9378843
21
-26.8227385
0
LINE
8
layer0
10
21.9378843
20
-26.8227385
11
22.0934687
21
-27.3920732
0
LINE
8
layer0
10
22.0934687
20
-27.3920732
11
22.1673166
21
-27.6997407
0
LINE
8
layer0
10
22.1673166
20
-27.6997407
11
22.2870614
21
-28.2716445
0
ARC
8
layer0
10
-0.0000081
20
0.0000115
40
36
50
305.8682793
51
308.2493663
0
LINE
8
layer0
10
21.0932488
20
-29.1731699
11
20.5759468
21
-28.9014874
0
LINE
8
layer0
10
20.5759468
20
-28.9014874
11
20.3002337
21
-28.7462614
0
LINE
8
layer0
10
20.3002337
20
-28.7462614
11
19.7952107
21
-28.4408105
0
LINE
8
layer0
10
19.7952107
20
-28.4408105
11
19.3502251
21
-28.1455503
0
LINE
8
layer0
10
19.3502251
20
-28.1455503
11
18.9639463
21
-27.8653037
0
LINE
8
layer0
10
18.9639463
20
-27.8653037
11
18.6330721
21
-27.6034563
0
LINE
8
layer0
10
18.6330721
20
-27.6034563
11
18.356315
21
-27.3649571
0
LINE
8
layer0
10
18.356315
20
-27.3649571
11
18.1298647
21
-27.1526944
0
LINE
8
layer0
10
18.1298647
20
-27.1526944
11
17.8770236
21
-26.9015512
0
LINE
8
layer0
10
17.8770236
20
-26.9015512
11
17.7984589
21
-26.837484
0
LINE
8
layer0
10
17.7984589
20
-26.837484
11
17.7253381
21
-26.7883826
0
LINE
8
layer0
10
17.7253381
20
-26.7883826
11
17.6582369
21
-26.7539611
0
LINE
8
layer0
10
17.6582369
20
-26.7539611
11
17.5977468
21
-26.733959
0
LINE
8
layer0
10
17.5977468
20
-26.733959
11
17.5444363
21
-26.7280598
0
LINE
8
layer0
10
17.5444363
20
-26.7280598
11
17.498862
21
-26.7359658
0
LINE
8
layer0
10
17.498862
20
-26.7359658
11
17.470098
21
-26.7507529
0
LINE
8
layer0
10
17.470098
20
-26.7507529
11
16.8195076
21
-27.1644375
0
LINE
8
layer0
10
16.8195076
20
-27.1644375
11
16.1591992
21
-27.5624271
0
LINE
8
layer0
10
16.1591992
20
-27.5624271
11
16.1331412
21
-27.5815843
0
LINE
8
layer0
10
16.1331412
20
-27.5815843
11
16.1057498
21
-27.6188568
0
LINE
8
layer0
10
16.1057498
20
-27.6188568
11
16.087268
21
-27.6692079
0
LINE
8
layer0
10
16.087268
20
-27.6692079
11
16.0782104
21
-27.7322721
0
LINE
8
layer0
10
16.0782104
20
-27.7322721
11
16.0791137
21
-27.8076816
0
LINE
8
layer0
10
16.0791137
20
-27.8076816
11
16.0904747
21
-27.895023
0
LINE
8
layer0
10
16.0904747
20
-27.895023
11
16.112806
21
-27.9939085
0
LINE
8
layer0
10
16.112806
20
-27.9939085
11
16.2249192
21
-28.3321868
0
LINE
8
layer0
10
16.2249192
20
-28.3321868
11
16.3139914
21
-28.6295103
0
LINE
8
layer0
10
16.3139914
20
-28.6295103
11
16.4041259
21
-28.9835614
0
LINE
8
layer0
10
16.4041259
20
-28.9835614
11
16.4910388
21
-29.3964633
0
LINE
8
layer0
10
16.4910388
20
-29.3964633
11
16.569726
21
-29.8671625
0
LINE
8
layer0
10
16.569726
20
-29.8671625
11
16.6356848
21
-30.3971061
0
LINE
8
layer0
10
16.6356848
20
-30.3971061
11
16.6840052
21
-30.9853353
0
LINE
8
layer0
10
16.6840052
20
-30.9853353
11
16.7000619
21
-31.3013337
0
LINE
8
layer0
10
16.7000619
20
-31.3013337
11
16.7126808
21
-31.8855028
0
ARC
8
layer0
10
-0.0000055
20
0.000013
40
36
50
295.2800434
51
297.6611304
0
LINE
8
layer0
10
15.3735403
20
-32.5523156
11
14.9149678
21
-32.190205
0
LINE
8
layer0
10
14.9149678
20
-32.190205
11
14.672472
21
-31.9869599
0
LINE
8
layer0
10
14.672472
20
-31.9869599
11
14.2321744
21
-31.593912
0
LINE
8
layer0
10
14.2321744
20
-31.593912
11
13.8490194
21
-31.2219134
0
LINE
8
layer0
10
13.8490194
20
-31.2219134
11
13.520813
21
-30.87546
0
LINE
8
layer0
10
13.520813
20
-30.87546
11
13.2436869
21
-30.557273
0
LINE
8
layer0
10
13.2436869
20
-30.557273
11
13.0154662
21
-30.2719807
0
LINE
8
layer0
10
13.0154662
20
-30.2719807
11
12.8318748
21
-30.0217221
0
LINE
8
layer0
10
12.8318748
20
-30.0217221
11
12.6294862
21
-29.7283956
0
LINE
8
layer0
10
12.6294862
20
-29.7283956
11
12.5640316
21
-29.6509831
0
LINE
8
layer0
10
12.5640316
20
-29.6509831
11
12.5011782
21
-29.5892818
0
LINE
8
layer0
10
12.5011782
20
-29.5892818
11
12.4415444
21
-29.5431166
0
LINE
8
layer0
10
12.4415444
20
-29.5431166
11
12.3857596
21
-29.5123401
0
LINE
8
layer0
10
12.3857596
20
-29.5123401
11
12.3344408
21
-29.4967455
0
LINE
8
layer0
10
12.3344408
20
-29.4967455
11
12.2881898
21
-29.4961426
0
LINE
8
layer0
10
12.2881898
20
-29.4961426
11
12.2571985
21
-29.5053926
0
LINE
8
layer0
10
12.2571985
20
-29.5053926
11
11.5416712
21
-29.7924877
0
LINE
8
layer0
10
11.5416712
20
-29.7924877
11
10.8194755
21
-30.0623694
0
LINE
8
layer0
10
10.8194755
20
-30.0623694
11
10.790341
21
-30.0764123
0
LINE
8
layer0
10
10.790341
20
-30.0764123
11
10.7565672
21
-30.108017
0
LINE
8
layer0
10
10.7565672
20
-30.108017
11
10.7291481
21
-30.1541148
0
LINE
8
layer0
10
10.7291481
20
-30.1541148
11
10.7086567
21
-30.2144409
0
LINE
8
layer0
10
10.7086567
20
-30.2144409
11
10.6956881
21
-30.2887324
0
LINE
8
layer0
10
10.6956881
20
-30.2887324
11
10.6908068
21
-30.3766742
0
LINE
8
layer0
10
10.6908068
20
-30.3766742
11
10.6945877
21
-30.4779793
0
LINE
8
layer0
10
10.6945877
20
-30.4779793
11
10.7426335
21
-30.8310985
0
LINE
8
layer0
10
10.7426335
20
-30.8310985
11
10.775556
21
-31.1397265
0
LINE
8
layer0
10
10.775556
20
-31.1397265
11
10.799099
21
-31.5043114
0
LINE
8
layer0
10
10.799099
20
-31.5043114
11
10.8086615
21
-31.926153
0
LINE
8
layer0
10
10.8086615
20
-31.926153
11
10.7995182
21
-32.4032964
0
LINE
8
layer0
10
10.7995182
20
-32.4032964
11
10.7669771
21
-32.9363366
0
LINE
8
layer0
10
10.7669771
20
-32.9363366
11
10.7063879
21
-33.523429
0
LINE
8
layer0
10
10.7063879
20
-33.523429
11
10.6641066
21
-33.8369973
0
LINE
8
layer0
10
10.6641066
20
-33.8369973
11
10.5691699
21
-34.4135386
0
ARC
8
layer0
10
-0.0000047
20
0.0000132
40
36
50
284.691811
51
287.072898
0
LINE
8
layer0
10
9.1303042
20
-34.8229312
11
8.7460775
21
-34.3827237
0
LINE
8
layer0
10
8.7460775
20
-34.3827237
11
8.5450568
21
-34.1383807
0
LINE
8
layer0
10
8.5450568
20
-34.1383807
11
8.1844785
21
-33.6711208
0
LINE
8
layer0
10
8.1844785
20
-33.6711208
11
7.876202
21
-33.2350516
0
LINE
8
layer0
10
7.876202
20
-33.2350516
11
7.6172445
21
-32.8341895
0
LINE
8
layer0
10
7.6172445
20
-32.8341895
11
7.4033037
21
-32.4704984
0
LINE
8
layer0
10
7.4033037
20
-32.4704984
11
7.2313913
21
-32.1481283
0
LINE
8
layer0
10
7.2313913
20
-32.1481283
11
7.0969108
21
-31.8683961
0
LINE
8
layer0
10
7.0969108
20
-31.8683961
11
6.9518669
21
-31.5428752
0
LINE
8
layer0
10
6.9518669
20
-31.5428752
11
6.9017512
21
-31.4547535
0
LINE
8
layer0
10
6.9017512
20
-31.4547535
11
6.8513056
21
-31.3825535
0
LINE
8
layer0
10
6.8513056
20
-31.3825535
11
6.80117
21
-31.3262167
0
LINE
8
layer0
10
6.80117
20
-31.3262167
11
6.7519903
21
-31.2857138
0
LINE
8
layer0
10
6.7519903
20
-31.2857138
11
6.7044107
21
-31.2609549
0
LINE
8
layer0
10
6.7044107
20
-31.2609549
11
6.659058
21
-31.2518637
0
LINE
8
layer0
10
6.659058
20
-31.2518637
11
6.6268947
21
-31.2552615
0
LINE
8
layer0
10
6.6268947
20
-31.2552615
11
5.8707971
21
-31.4059905
0
LINE
8
layer0
10
5.8707971
20
-31.4059905
11
5.1113075
21
-31.5385739
0
LINE
8
layer0
10
5.1113075
20
-31.5385739
11
5.0800886
21
-31.5470242
0
LINE
8
layer0
10
5.0800886
20
-31.5470242
11
5.0410826
21
-31.5718848
0
LINE
8
layer0
10
5.0410826
20
-31.5718848
11
5.0056599
21
-31.6121595
0
LINE
8
layer0
10
5.0056599
20
-31.6121595
11
4.9744325
21
-31.6676931
0
LINE
8
layer0
10
4.9744325
20
-31.6676931
11
4.9480337
21
-31.7383367
0
LINE
8
layer0
10
4.9480337
20
-31.7383367
11
4.9270762
21
-31.8238842
0
LINE
8
layer0
10
4.9270762
20
-31.8238842
11
4.912178
21
-31.9241591
0
LINE
8
layer0
10
4.912178
20
-31.9241591
11
4.8945203
21
-32.2800942
0
LINE
8
layer0
10
4.8945203
20
-32.2800942
11
4.8701719
21
-32.5895167
0
LINE
8
layer0
10
4.8701719
20
-32.5895167
11
4.8263218
21
-32.9522199
0
LINE
8
layer0
10
4.8263218
20
-32.9522199
11
4.7582083
21
-33.368636
0
LINE
8
layer0
10
4.7582083
20
-33.368636
11
4.6615458
21
-33.835975
0
LINE
8
layer0
10
4.6615458
20
-33.835975
11
4.5316129
21
-34.3539598
0
LINE
8
layer0
10
4.5316129
20
-34.3539598
11
4.3641773
21
-34.9199226
0
LINE
8
layer0
10
4.3641773
20
-34.9199226
11
4.264998
21
-35.2203826
0
LINE
8
layer0
10
4.264998
20
-35.2203826
11
4.0657385
21
-35.7696626
0
ARC
8
layer0
10
-0.000001
20
0.000014
40
36
50
274.1035736
51
276.4846606
0
LINE
8
layer0
10
2.5761466
20
-35.9076936
11
2.27935
21
-35.40438
0
LINE
8
layer0
10
2.27935
20
-35.40438
11
2.12665
21
-35.12726
0
LINE
8
layer0
10
2.12665
20
-35.12726
11
1.85807
21
-34.6017
0
LINE
8
layer0
10
1.85807
20
-34.6017
11
1.63517
21
-34.11641
0
LINE
8
layer0
10
1.63517
20
-34.11641
11
1.45428
21
-33.67479
0
LINE
8
layer0
10
1.45428
20
-33.67479
11
1.31081
21
-33.27798
0
LINE
8
layer0
10
1.31081
20
-33.27798
11
1.20106
21
-32.92951
0
LINE
8
layer0
10
1.20106
20
-32.92951
11
1.12027
21
-32.62983
0
LINE
8
layer0
10
1.12027
20
-32.62983
11
1.03751
21
-32.2832
0
LINE
8
layer0
10
1.03751
20
-32.2832
11
1.00444
21
-32.18737
0
LINE
8
layer0
10
1.00444
20
-32.18737
11
0.96812
21
-32.10713
0
LINE
8
layer0
10
0.96812
20
-32.10713
11
0.92919
21
-32.04254
0
LINE
8
layer0
10
0.92919
20
-32.04254
11
0.88829
21
-31.99369
0
LINE
8
layer0
10
0.88829
20
-31.99369
11
0.84607
21
-31.96061
0
LINE
8
layer0
10
0.84607
20
-31.96061
11
0.80316
21
-31.94334
0
LINE
8
layer0
10
0.80316
20
-31.94334
11
0.77092
21
-31.94077
0
LINE
8
layer0
10
0.77092
20
-31.94077
11
0
21
-31.95
0
LINE
8
layer0
10
0
20
-31.95
11
-0.77092
21
-31.94077
0
LINE
8
layer0
10
-0.77092
20
-31.94077
11
-0.80316
21
-31.94334
0
LINE
8
layer0
10
-0.80316
20
-31.94334
11
-0.84607
21
-31.96061
0
LINE
8
layer0
10
-0.84607
20
-31.96061
11
-0.88829
21
-31.99369
0
LINE
8
layer0
10
-0.88829
20
-31.99369
11
-0.92919
21
-32.04254
0
LINE
8
layer0
10
-0.92919
20
-32.04254
11
-0.96812
21
-32.10713
0
LINE
8
layer0
10
-0.96812
20
-32.10713
11
-1.00444
21
-32.18737
0
LINE
8
layer0
10
-1.00444
20
-32.18737
11
-1.03751
21
-32.2832
0
LINE
8
layer0
10
-1.03751
20
-32.2832
11
-1.12027
21
-32.62983
0
LINE
8
layer0
10
-1.12027
20
-32.62983
11
-1.20106
21
-32.92951
0
LINE
8
layer0
10
-1.20106
20
-32.92951
11
-1.31081
21
-33.27798
0
LINE
8
layer0
10
-1.31081
20
-33.27798
11
-1.45428
21
-33.67479
0
LINE
8
layer0
10
-1.45428
20
-33.67479
11
-1.63517
21
-34.11641
0
LINE
8
layer0
10
-1.63517
20
-34.11641
11
-1.85807
21
-34.6017
0
LINE
8
layer0
10
-1.85807
20
-34.6017
11
-2.12665
21
-35.12726
0
LINE
8
layer0
10
-2.12665
20
-35.12726
11
-2.27935
21
-35.40438
0
LINE
8
layer0
10
-2.27935
20
-35.40438
11
-2.5761466
21
-35.9076936
0
ARC
8
layer0
10
9e-7
20
0.000014
40
36
50
263.5153395
51
265.8964266
0
LINE
8
layer0
10
-4.0657385
20
-35.7696626
11
-4.264998
21
-35.2203826
0
LINE
8
layer0
10
-4.264998
20
-35.2203826
11
-4.3641773
21
-34.9199226
0
LINE
8
layer0
10
-4.3641773
20
-34.9199226
11
-4.5316129
21
-34.3539598
0
LINE
8
layer0
10
-4.5316129
20
-34.3539598
11
-4.6615458
21
-33.835975
0
LINE
8
layer0
10
-4.6615458
20
-33.835975
11
-4.7582083
21
-33.368636
0
LINE
8
layer0
10
-4.7582083
20
-33.368636
11
-4.8263218
21
-32.9522199
0
LINE
8
layer0
10
-4.8263218
20
-32.9522199
11
-4.8701719
21
-32.5895167
0
LINE
8
layer0
10
-4.8701719
20
-32.5895167
11
-4.8945203
21
-32.2800942
0
LINE
8
layer0
10
-4.8945203
20
-32.2800942
11
-4.912178
21
-31.9241591
0
LINE
8
layer0
10
-4.912178
20
-31.9241591
11
-4.9270762
21
-31.8238842
0
LINE
8
layer0
10
-4.9270762
20
-31.8238842
11
-4.9480337
21
-31.7383367
0
LINE
8
layer0
10
-4.9480337
20
-31.7383367
11
-4.9744325
21
-31.6676931
0
LINE
8
layer0
10
-4.9744325
20
-31.6676931
11
-5.0056599
21
-31.6121595
0
LINE
8
layer0
10
-5.0056599
20
-31.6121595
11
-5.0410826
21
-31.5718848
0
LINE
8
layer0
10
-5.0410826
20
-31.5718848
11
-5.0800886
21
-31.5470242
0
LINE
8
layer0
10
-5.0800886
20
-31.5470242
11
-5.1113075
21
-31.5385739
0
LINE
8
layer0
10
-5.1113075
20
-31.5385739
11
-5.8707971
21
-31.4059905
0
LINE
8
layer0
10
-5.8707971
20
-31.4059905
11
-6.6268947
21
-31.2552615
0
LINE
8
layer0
10
-6.6268947
20
-31.2552615
11
-6.659058
21
-31.2518637
0
LINE
8
layer0
10
-6.659058
20
-31.2518637
11
-6.7044107
21
-31.2609549
0
LINE
8
layer0
10
-6.7044107
20
-31.2609549
11
-6.7519903
21
-31.2857138
0
LINE
8
layer0
10
-6.7519903
20
-31.2857138
11
-6.80117
21
-31.3262167
0
LINE
8
layer0
10
-6.80117
20
-31.3262167
11
-6.8513056
21
-31.3825535
0
LINE
8
layer0
10
-6.8513056
20
-31.3825535
11
-6.9017512
21
-31.4547535
0
LINE
8
layer0
10
-6.9017512
20
-31.4547535
11
-6.9518669
21
-31.5428752
0
LINE
8
layer0
10
-6.9518669
20
-31.5428752
11
-7.0969108
21
-31.8683961
0
LINE
8
layer0
10
-7.0969108
20
-31.8683961
11
-7.2313913
21
-32.1481283
0
LINE
8
layer0
10
-7.2313913
20
-32.1481283
11
-7.4033037
21
-32.4704984
0
LINE
8
layer0
10
-7.4033037
20
-32.4704984
11
-7.6172445
21
-32.8341895
0
LINE
8
layer0
10
-7.6172445
20
-32.8341895
11
-7.876202
21
-33.2350516
0
LINE
8
layer0
10
-7.876202
20
-33.2350516
11
-8.1844785
21
-33.6711208
0
LINE
8
layer0
10
-8.1844785
20
-33.6711208
11
-8.5450568
21
-34.1383807
0
LINE
8
layer0
10
-8.5450568
20
-34.1383807
11
-8.7460775
21
-34.3827237
0
LINE
8
layer0
10
-8.7460775
20
-34.3827237
11
-9.1303042
21
-34.8229312
0
ARC
8
layer0
10
0.0000048
20
0.0000132
40
36
50
252.927102
51
255.308189
0
LINE
8
layer0
10
-10.5691699
20
-34.4135386
11
-10.6641066
21
-33.8369973
0
LINE
8
layer0
10
-10.6641066
20
-33.8369973
11
-10.7063879
21
-33.523429
0
LINE
8
layer0
10
-10.7063879
20
-33.523429
11
-10.7669771
21
-32.9363366
0
LINE
8
layer0
10
-10.7669771
20
-32.9363366
11
-10.7995182
21
-32.4032964
0
LINE
8
layer0
10
-10.7995182
20
-32.4032964
11
-10.8086615
21
-31.926153
0
LINE
8
layer0
10
-10.8086615
20
-31.926153
11
-10.799099
21
-31.5043114
0
LINE
8
layer0
10
-10.799099
20
-31.5043114
11
-10.775556
21
-31.1397265
0
LINE
8
layer0
10
-10.775556
20
-31.1397265
11
-10.7426335
21
-30.8310985
0
LINE
8
layer0
10
-10.7426335
20
-30.8310985
11
-10.6945877
21
-30.4779793
0
LINE
8
layer0
10
-10.6945877
20
-30.4779793
11
-10.6908068
21
-30.3766742
0
LINE
8
layer0
10
-10.6908068
20
-30.3766742
11
-10.6956881
21
-30.2887324
0
LINE
8
layer0
10
-10.6956881
20
-30.2887324
11
-10.7086567
21
-30.2144409
0
LINE
8
layer0
10
-10.7086567
20
-30.2144409
11
-10.7291481
21
-30.1541148
0
LINE
8
layer0
10
-10.7291481
20
-30.1541148
11
-10.7565672
21
-30.108017
0
LINE
8
layer0
10
-10.7565672
20
-30.108017
11
-10.790341
21
-30.0764123
0
LINE
8
layer0
10
-10.790341
20
-30.0764123
11
-10.8194755
21
-30.0623694
0
LINE
8
layer0
10
-10.8194755
20
-30.0623694
11
-11.5416712
21
-29.7924877
0
LINE
8
layer0
10
-11.5416712
20
-29.7924877
11
-12.2571985
21
-29.5053926
0
LINE
8
layer0
10
-12.2571985
20
-29.5053926
11
-12.2881898
21
-29.4961426
0
LINE
8
layer0
10
-12.2881898
20
-29.4961426
11
-12.3344408
21
-29.4967455
0
LINE
8
layer0
10
-12.3344408
20
-29.4967455
11
-12.3857596
21
-29.5123401
0
LINE
8
layer0
10
-12.3857596
20
-29.5123401
11
-12.4415444
21
-29.5431166
0
LINE
8
layer0
10
-12.4415444
20
-29.5431166
11
-12.5011782
21
-29.5892818
0
LINE
8
layer0
10
-12.5011782
20
-29.5892818
11
-12.5640316
21
-29.6509831
0
LINE
8
layer0
10
-12.5640316
20
-29.6509831
11
-12.6294862
21
-29.7283956
0
LINE
8
layer0
10
-12.6294862
20
-29.7283956
11
-12.8318748
21
-30.0217221
0
LINE
8
layer0
10
-12.8318748
20
-30.0217221
11
-13.0154662
21
-30.2719807
0
LINE
8
layer0
10
-13.0154662
20
-30.2719807
11
-13.2436869
21
-30.557273
0
LINE
8
layer0
10
-13.2436869
20
-30.557273
11
-13.520813
21
-30.87546
0
LINE
8
layer0
10
-13.520813
20
-30.87546
11
-13.8490194
21
-31.2219134
0
LINE
8
layer0
10
-13.8490194
20
-31.2219134
11
-14.2321744
21
-31.593912
0
LINE
8
layer0
10
-14.2321744
20
-31.593912
11
-14.672472
21
-31.9869599
0
LINE
8
layer0
10
-14.672472
20
-31.9869599
11
-14.9149678
21
-32.190205
0
LINE
8
layer0
10
-14.9149678
20
-32.190205
11
-15.3735403
21
-32.5523156
0
ARC
8
layer0
10
0.0000055
20
0.0000129
40
36
50
242.3388696
51
244.7199566
0
LINE
8
layer0
10
-16.7126808
20
-31.8855028
11
-16.7000619
21
-31.3013337
0
LINE
8
layer0
10
-16.7000619
20
-31.3013337
11
-16.6840052
21
-30.9853353
0
LINE
8
layer0
10
-16.6840052
20
-30.9853353
11
-16.6356848
21
-30.3971061
0
LINE
8
layer0
10
-16.6356848
20
-30.3971061
11
-16.569726
21
-29.8671625
0
LINE
8
layer0
10
-16.569726
20
-29.8671625
11
-16.4910388
21
-29.3964633
0
LINE
8
layer0
10
-16.4910388
20
-29.3964633
11
-16.4041259
21
-28.9835614
0
LINE
8
layer0
10
-16.4041259
20
-28.9835614
11
-16.3139914
21
-28.6295103
0
LINE
8
layer0
10
-16.3139914
20
-28.6295103
11
-16.2249192
21
-28.3321868
0
LINE
8
layer0
10
-16.2249192
20
-28.3321868
11
-16.112806
21
-27.9939085
0
LINE
8
layer0
10
-16.112806
20
-27.9939085
11
-16.0904747
21
-27.895023
0
LINE
8
layer0
10
-16.0904747
20
-27.895023
11
-16.0791137
21
-27.8076816
0
LINE
8
layer0
10
-16.0791137
20
-27.8076816
11
-16.0782104
21
-27.7322721
0
LINE
8
layer0
10
-16.0782104
20
-27.7322721
11
-16.087268
21
-27.6692079
0
LINE
8
layer0
10
-16.087268
20
-27.6692079
11
-16.1057498
21
-27.6188568
0
LINE
8
layer0
10
-16.1057498
20
-27.6188568
11
-16.1331412
21
-27.5815843
0
LINE
8
layer0
10
-16.1331412
20
-27.5815843
11
-16.1591992
21
-27.5624271
0
LINE
8
layer0
10
-16.1591992
20
-27.5624271
11
-16.8195076
21
-27.1644375
0
LINE
8
layer0
10
-16.8195076
20
-27.1644375
11
-17.470098
21
-26.7507529
0
LINE
8
layer0
10
-17.470098
20
-26.7507529
11
-17.498862
21
-26.7359658
0
LINE
8
layer0
10
-17.498862
20
-26.7359658
11
-17.5444363
21
-26.7280598
0
LINE
8
layer0
10
-17.5444363
20
-26.7280598
11
-17.5977468
21
-26.733959
0
LINE
8
layer0
10
-17.5977468
20
-26.733959
11
-17.6582369
21
-26.7539611
0
LINE
8
layer0
10
-17.6582369
20
-26.7539611
11
-17.7253381
21
-26.7883826
0
LINE
8
layer0
10
-17.7253381
20
-26.7883826
11
-17.7984589
21
-26.837484
0
LINE
8
layer0
10
-17.7984589
20
-26.837484
11
-17.8770236
21
-26.9015512
0
LINE
8
layer0
10
-17.8770236
20
-26.9015512
11
-18.1298647
21
-27.1526944
0
LINE
8
layer0
10
-18.1298647
20
-27.1526944
11
-18.356315
21
-27.3649571
0
LINE
8
layer0
10
-18.356315
20
-27.3649571
11
-18.6330721
21
-27.6034563
0
LINE
8
layer0
10
-18.6330721
20
-27.6034563
11
-18.9639463
21
-27.8653037
0
LINE
8
layer0
10
-18.9639463
20
-27.8653037
11
-19.3502251
21
-28.1455503
0
LINE
8
layer0
10
-19.3502251
20
-28.1455503
11
-19.7952107
21
-28.4408105
0
LINE
8
layer0
10
-19.7952107
20
-28.4408105
11
-20.3002337
21
-28.7462614
0
LINE
8
layer0
10
-20.3002337
20
-28.7462614
11
-20.5759468
21
-28.9014874
0
LINE
8
layer0
10
-20.5759468
20
-28.9014874
11
-21.0932488
21
-29.1731699
0
ARC
8
layer0
10
0.000008
20
0.0000116
40
36
50
231.7506339
51
234.1317209
0
LINE
8
layer0
10
-22.2870614
20
-28.2716445
11
-22.1673166
21
-27.6997407
0
LINE
8
layer0
10
-22.1673166
20
-27.6997407
11
-22.0934687
21
-27.3920732
0
LINE
8
layer0
10
-22.0934687
20
-27.3920732
11
-21.9378843
21
-26.8227385
0
LINE
8
layer0
10
-21.9378843
20
-26.8227385
11
-21.7756716
21
-26.3139381
0
LINE
8
layer0
10
-21.7756716
20
-26.3139381
11
-21.6118334
21
-25.8657122
0
LINE
8
layer0
10
-21.6118334
20
-25.8657122
11
-21.4505299
21
-25.475811
0
LINE
8
layer0
10
-21.4505299
20
-25.475811
11
-21.2968734
21
-25.1443504
0
LINE
8
layer0
10
-21.2968734
20
-25.1443504
11
-21.1546848
21
-24.8684564
0
LINE
8
layer0
10
-21.1546848
20
-24.8684564
11
-20.9823221
21
-24.5565386
0
LINE
8
layer0
10
-20.9823221
20
-24.5565386
11
-20.9422008
21
-24.4634403
0
LINE
8
layer0
10
-20.9422008
20
-24.4634403
11
-20.9149843
21
-24.3796736
0
LINE
8
layer0
10
-20.9149843
20
-24.3796736
11
-20.9002399
21
-24.305714
0
LINE
8
layer0
10
-20.9002399
20
-24.305714
11
-20.8975553
21
-24.2420593
0
LINE
8
layer0
10
-20.8975553
20
-24.2420593
11
-20.9064705
21
-24.1891695
0
LINE
8
layer0
10
-20.9064705
20
-24.1891695
11
-20.9265466
21
-24.1474985
0
LINE
8
layer0
10
-20.9265466
20
-24.1474985
11
-20.9486408
21
-24.1238793
0
LINE
8
layer0
10
-20.9486408
20
-24.1238793
11
-21.5245758
21
-23.6113349
0
LINE
8
layer0
10
-21.5245758
20
-23.6113349
11
-22.0880744
21
-23.0851484
0
LINE
8
layer0
10
-22.0880744
20
-23.0851484
11
-22.1136314
21
-23.0653277
0
LINE
8
layer0
10
-22.1136314
20
-23.0653277
11
-22.156977
21
-23.0491821
0
LINE
8
layer0
10
-22.156977
20
-23.0491821
11
-22.2104638
21
-23.0451851
0
LINE
8
layer0
10
-22.2104638
20
-23.0451851
11
-22.2735993
21
-23.0537315
0
LINE
8
layer0
10
-22.2735993
20
-23.0537315
11
-22.3458829
21
-23.0752371
0
LINE
8
layer0
10
-22.3458829
20
-23.0752371
11
-22.4267811
21
-23.1100666
0
LINE
8
layer0
10
-22.4267811
20
-23.1100666
11
-22.5157803
21
-23.1586067
0
LINE
8
layer0
10
-22.5157803
20
-23.1586067
11
-22.8104638
21
-23.3590143
0
LINE
8
layer0
10
-22.8104638
20
-23.3590143
11
-23.0720615
21
-23.5260526
0
LINE
8
layer0
10
-23.0720615
20
-23.5260526
11
-23.3879304
21
-23.709637
0
LINE
8
layer0
10
-23.3879304
20
-23.709637
11
-23.7612852
21
-23.906228
0
LINE
8
layer0
10
-23.7612852
20
-23.906228
11
-24.192482
21
-24.1107243
0
LINE
8
layer0
10
-24.192482
20
-24.1107243
11
-24.6841449
21
-24.3191912
0
LINE
8
layer0
10
-24.6841449
20
-24.3191912
11
-25.2366953
21
-24.5266435
0
LINE
8
layer0
10
-25.2366953
20
-24.5266435
11
-25.5362365
21
-24.6285644
0
LINE
8
layer0
10
-25.5362365
20
-24.6285644
11
-26.0946521
21
-24.800567
0
ARC
8
layer0
10
0.0000101
20
0.0000097
40
36
50
221.1623983
51
223.5434853
0
LINE
8
layer0
10
-27.1024829
20
-23.6950293
11
-26.8796899
21
-23.1548662
0
LINE
8
layer0
10
-26.8796899
20
-23.1548662
11
-26.7505657
21
-22.8660069
0
LINE
8
layer0
10
-26.7505657
20
-22.8660069
11
-26.4930154
21
-22.3349548
0
LINE
8
layer0
10
-26.4930154
20
-22.3349548
11
-26.2400728
21
-21.8646242
0
LINE
8
layer0
10
-26.2400728
20
-21.8646242
11
-25.996663
21
-21.4541353
0
LINE
8
layer0
10
-25.996663
20
-21.4541353
11
-25.7664618
21
-21.1005123
0
LINE
8
layer0
10
-25.7664618
20
-21.1005123
11
-25.5545159
21
-20.8029299
0
LINE
8
layer0
10
-25.5545159
20
-20.8029299
11
-25.364053
21
-20.5578605
0
LINE
8
layer0
10
-25.364053
20
-20.5578605
11
-25.1373103
21
-20.2829253
0
LINE
8
layer0
10
-25.1373103
20
-20.2829253
11
-25.0807654
21
-20.1987844
0
LINE
8
layer0
10
-25.0807654
20
-20.1987844
11
-25.0386202
21
-20.1214451
0
LINE
8
layer0
10
-25.0386202
20
-20.1214451
11
-25.0105368
21
-20.0514541
0
LINE
8
layer0
10
-25.0105368
20
-20.0514541
11
-24.9962015
21
-19.9893765
0
LINE
8
layer0
10
-24.9962015
20
-19.9893765
11
-24.9952463
21
-19.935749
0
LINE
8
layer0
10
-24.9952463
20
-19.935749
11
-25.0073236
21
-19.8910986
0
LINE
8
layer0
10
-25.0073236
20
-19.8910986
11
-25.0247016
21
-19.8638218
0
LINE
8
layer0
10
-25.0247016
20
-19.8638218
11
-25.4966504
21
-19.2541766
0
LINE
8
layer0
10
-25.4966504
20
-19.2541766
11
-25.9538678
21
-18.6334069
0
LINE
8
layer0
10
-25.9538678
20
-18.6334069
11
-25.9753477
21
-18.6092276
0
LINE
8
layer0
10
-25.9753477
20
-18.6092276
11
-26.0149885
21
-18.5853922
0
LINE
8
layer0
10
-26.0149885
20
-18.5853922
11
-26.0668301
21
-18.571635
0
LINE
8
layer0
10
-26.0668301
20
-18.571635
11
-26.130461
21
-18.5684348
0
LINE
8
layer0
10
-26.130461
20
-18.5684348
11
-26.2054655
21
-18.5762922
0
LINE
8
layer0
10
-26.2054655
20
-18.5762922
11
-26.2913861
21
-18.5956636
0
LINE
8
layer0
10
-26.2913861
20
-18.5956636
11
-26.3877892
21
-18.6270236
0
LINE
8
layer0
10
-26.3877892
20
-18.6270236
11
-26.71428
21
-18.769871
0
LINE
8
layer0
10
-26.71428
20
-18.769871
11
-27.0021166
21
-18.8859967
0
LINE
8
layer0
10
-27.0021166
20
-18.8859967
11
-27.3463408
21
-19.0084144
0
LINE
8
layer0
10
-27.3463408
20
-19.0084144
11
-27.749462
21
-19.1330543
0
LINE
8
layer0
10
-27.749462
20
-19.1330543
11
-28.210893
21
-19.2548365
0
LINE
8
layer0
10
-28.210893
20
-19.2548365
11
-28.73249
21
-19.369411
0
LINE
8
layer0
10
-28.73249
20
-19.369411
11
-29.3137516
21
-19.4718002
0
LINE
8
layer0
10
-29.3137516
20
-19.4718002
11
-29.6269204
21
-19.5169451
0
LINE
8
layer0
10
-29.6269204
20
-19.5169451
11
-30.2074333
21
-19.5834105
0
ARC
8
layer0
10
0.0000126
20
0.0000063
40
36
50
210.5741603
51
212.9552474
0
LINE
8
layer0
10
-30.9949618
20
-18.3115082
11
-30.6767076
21
-17.8214806
0
LINE
8
layer0
10
-30.6767076
20
-17.8214806
11
-30.4967042
21
-17.5612661
0
LINE
8
layer0
10
-30.4967042
20
-17.5612661
11
-30.1459586
21
-17.0865809
0
LINE
8
layer0
10
-30.1459586
20
-17.0865809
11
-29.8108999
21
-16.6707367
0
LINE
8
layer0
10
-29.8108999
20
-16.6707367
11
-29.4962075
21
-16.3119636
0
LINE
8
layer0
10
-29.4962075
20
-16.3119636
11
-29.2049478
21
-16.0066611
0
LINE
8
layer0
10
-29.2049478
20
-16.0066611
11
-28.94193
21
-15.7530905
0
LINE
8
layer0
10
-28.94193
20
-15.7530905
11
-28.7096787
21
-15.5471914
0
LINE
8
layer0
10
-28.7096787
20
-15.5471914
11
-28.4362776
21
-15.3186014
0
LINE
8
layer0
10
-28.4362776
20
-15.3186014
11
-28.3652346
21
-15.2462832
0
LINE
8
layer0
10
-28.3652346
20
-15.2462832
11
-28.3095959
21
-15.1780048
0
LINE
8
layer0
10
-28.3095959
20
-15.1780048
11
-28.2691299
21
-15.1143659
0
LINE
8
layer0
10
-28.2691299
20
-15.1143659
11
-28.2436319
21
-15.0559794
0
LINE
8
layer0
10
-28.2436319
20
-15.0559794
11
-28.232839
21
-15.0034406
0
LINE
8
layer0
10
-28.232839
20
-15.0034406
11
-28.2365062
21
-14.9573312
0
LINE
8
layer0
10
-28.2365062
20
-14.9573312
11
-28.2485762
21
-14.9273256
0
LINE
8
layer0
10
-28.2485762
20
-14.9273256
11
-28.6004672
21
-14.2413405
0
LINE
8
layer0
10
-28.6004672
20
-14.2413405
11
-28.9358334
21
-13.547127
0
LINE
8
layer0
10
-28.9358334
20
-13.547127
11
-28.9525046
21
-13.5194125
0
LINE
8
layer0
10
-28.9525046
20
-13.5194125
11
-28.9870907
21
-13.4886989
0
LINE
8
layer0
10
-28.9870907
20
-13.4886989
11
-29.0355218
21
-13.4656502
0
LINE
8
layer0
10
-29.0355218
20
-13.4656502
11
-29.0974812
21
-13.4508123
0
LINE
8
layer0
10
-29.0974812
20
-13.4508123
11
-29.1726524
21
-13.4447538
0
LINE
8
layer0
10
-29.1726524
20
-13.4447538
11
-29.2606695
21
-13.4480076
0
LINE
8
layer0
10
-29.2606695
20
-13.4480076
11
-29.3611936
21
-13.4611196
0
LINE
8
layer0
10
-29.3611936
20
-13.4611196
11
-29.7083733
21
-13.5415422
0
LINE
8
layer0
10
-29.7083733
20
-13.5415422
11
-30.0126471
21
-13.6028008
0
LINE
8
layer0
10
-30.0126471
20
-13.6028008
11
-30.3735044
21
-13.6598831
0
LINE
8
layer0
10
-30.3735044
20
-13.6598831
11
-30.7926642
21
-13.7083275
0
LINE
8
layer0
10
-30.7926642
20
-13.7083275
11
-31.2686159
21
-13.7432483
0
LINE
8
layer0
10
-31.2686159
20
-13.7432483
11
-31.8023847
21
-13.7600288
0
LINE
8
layer0
10
-31.8023847
20
-13.7600288
11
-32.3925632
21
-13.7538681
0
LINE
8
layer0
10
-32.3925632
20
-13.7538681
11
-32.7086951
21
-13.7406997
0
LINE
8
layer0
10
-32.7086951
20
-13.7406997
11
-33.2915365
21
-13.6993644
0
ARC
8
layer0
10
0.0000135
20
0.0000042
40
36
50
199.9859256
51
202.3670126
0
LINE
8
layer0
10
-33.8319445
20
-12.3044107
11
-33.4290668
21
-11.8812058
0
LINE
8
layer0
10
-33.4290668
20
-11.8812058
11
-33.204314
21
-11.6584975
0
LINE
8
layer0
10
-33.204314
20
-11.6584975
11
-32.7723174
21
-11.2563441
0
LINE
8
layer0
10
-32.7723174
20
-11.2563441
11
-32.3665525
21
-10.9091472
0
LINE
8
layer0
10
-32.3665525
20
-10.9091472
11
-31.9912939
21
-10.6143075
0
LINE
8
layer0
10
-31.9912939
20
-10.6143075
11
-31.6488943
21
-10.3677222
0
LINE
8
layer0
10
-31.6488943
20
-10.3677222
11
-31.3437615
21
-10.1667985
0
LINE
8
layer0
10
-31.3437615
20
-10.1667985
11
-31.0776308
21
-10.0070813
0
LINE
8
layer0
10
-31.0776308
20
-10.0070813
11
-30.7668815
21
-9.8326208
0
LINE
8
layer0
10
-30.7668815
20
-9.8326208
11
-30.6837598
21
-9.7745881
0
LINE
8
layer0
10
-30.6837598
20
-9.7745881
11
-30.6165223
21
-9.7176958
0
LINE
8
layer0
10
-30.6165223
20
-9.7176958
11
-30.5650517
21
-9.6625761
0
LINE
8
layer0
10
-30.5650517
20
-9.6625761
11
-30.5292594
21
-9.609869
0
LINE
8
layer0
10
-30.5292594
20
-9.609869
11
-30.5089962
21
-9.5602079
0
LINE
8
layer0
10
-30.5089962
20
-9.5602079
11
-30.5041284
21
-9.5142098
0
LINE
8
layer0
10
-30.5041284
20
-9.5142098
11
-30.5104794
21
-9.4824972
0
LINE
8
layer0
10
-30.5104794
20
-9.4824972
11
-30.7303293
21
-8.7435325
0
LINE
8
layer0
10
-30.7303293
20
-8.7435325
11
-30.9324239
21
-7.999516
0
LINE
8
layer0
10
-30.9324239
20
-7.999516
11
-30.9437187
21
-7.9692101
0
LINE
8
layer0
10
-30.9437187
20
-7.9692101
11
-30.9720723
21
-7.9326643
0
LINE
8
layer0
10
-30.9720723
20
-7.9326643
11
-31.0154436
21
-7.9011088
0
LINE
8
layer0
10
-31.0154436
20
-7.9011088
11
-31.0736216
21
-7.8751385
0
LINE
8
layer0
10
-31.0736216
20
-7.8751385
11
-31.1463996
21
-7.8553706
0
LINE
8
layer0
10
-31.1463996
20
-7.8553706
11
-31.2335159
21
-7.8423958
0
LINE
8
layer0
10
-31.2335159
20
-7.8423958
11
-31.3347377
21
-7.8368133
0
LINE
8
layer0
10
-31.3347377
20
-7.8368133
11
-31.6907837
21
-7.8520724
0
LINE
8
layer0
10
-31.6907837
20
-7.8520724
11
-32.0011328
21
-7.8563779
0
LINE
8
layer0
10
-32.0011328
20
-7.8563779
11
-32.3663347
21
-7.8461808
0
LINE
8
layer0
10
-32.3663347
20
-7.8461808
11
-32.7872592
21
-7.8167799
0
LINE
8
layer0
10
-32.7872592
20
-7.8167799
11
-33.2615235
21
-7.7636503
0
LINE
8
layer0
10
-33.2615235
20
-7.7636503
11
-33.7892873
21
-7.6820653
0
LINE
8
layer0
10
-33.7892873
20
-7.6820653
11
-34.3682848
21
-7.5675645
0
LINE
8
layer0
10
-34.3682848
20
-7.5675645
11
-34.6766143
21
-7.4965312
0
LINE
8
layer0
10
-34.6766143
20
-7.4965312
11
-35.2419365
21
-7.3488029
0
ARC
8
layer0
10
0.0000138
20
0.0000024
40
36
50
189.3976914
51
191.7787785
0
LINE
8
layer0
10
-35.5168209
20
-5.8783012
11
-35.0430393
21
-5.5363308
0
LINE
8
layer0
10
-35.0430393
20
-5.5363308
11
-34.7811908
21
-5.3587127
0
LINE
8
layer0
10
-34.7811908
20
-5.3587127
11
-34.2826542
21
-5.0427859
0
LINE
8
layer0
10
-34.2826542
20
-5.0427859
11
-33.820001
21
-4.7760598
0
LINE
8
layer0
10
-33.820001
20
-4.7760598
11
-33.3969553
21
-4.5551939
0
LINE
8
layer0
10
-33.3969553
20
-4.5551939
11
-33.0150757
21
-4.3757229
0
LINE
8
layer0
10
-33.0150757
20
-4.3757229
11
-32.6782187
21
-4.2342884
0
LINE
8
layer0
10
-32.6782187
20
-4.2342884
11
-32.3872714
21
-4.126192
0
LINE
8
layer0
10
-32.3872714
20
-4.126192
11
-32.0497562
21
-4.0118021
0
LINE
8
layer0
10
-32.0497562
20
-4.0118021
11
-31.9573863
21
-3.9700311
0
LINE
8
layer0
10
-31.9573863
20
-3.9700311
11
-31.8808398
21
-3.9264624
0
LINE
8
layer0
10
-31.8808398
20
-3.9264624
11
-31.8201173
21
-3.8817388
0
LINE
8
layer0
10
-31.8201173
20
-3.8817388
11
-31.7752495
21
-3.836506
0
LINE
8
layer0
10
-31.7752495
20
-3.836506
11
-31.7462062
21
-3.7914139
0
LINE
8
layer0
10
-31.7462062
20
-3.7914139
11
-31.7329691
21
-3.7470934
0
LINE
8
layer0
10
-31.7329691
20
-3.7470934
11
-31.7333848
21
-3.7147538
0
LINE
8
layer0
10
-31.7333848
20
-3.7147538
11
-31.8137069
21
-2.9479741
0
LINE
8
layer0
10
-31.8137069
20
-2.9479741
11
-31.8756478
21
-2.1794911
0
LINE
8
layer0
10
-31.8756478
20
-2.1794911
11
-31.8811816
21
-2.1476257
0
LINE
8
layer0
10
-31.8811816
20
-2.1476257
11
-31.9023372
21
-2.1064922
0
LINE
8
layer0
10
-31.9023372
20
-2.1064922
11
-31.9391716
21
-2.0675046
0
LINE
8
layer0
10
-31.9391716
20
-2.0675046
11
-31.991587
21
-2.0312864
0
LINE
8
layer0
10
-31.991587
20
-2.0312864
11
-32.0594935
21
-1.998482
0
LINE
8
layer0
10
-32.0594935
20
-1.998482
11
-32.1427424
21
-1.9697206
0
LINE
8
layer0
10
-32.1427424
20
-1.9697206
11
-32.2412149
21
-1.9456337
0
LINE
8
layer0
10
-32.2412149
20
-1.9456337
11
-32.5940024
21
-1.8952098
0
LINE
8
layer0
10
-32.5940024
20
-1.8952098
11
-32.8998584
21
-1.8424154
0
LINE
8
layer0
10
-32.8998584
20
-1.8424154
11
-33.2569683
21
-1.7652863
0
LINE
8
layer0
10
-33.2569683
20
-1.7652863
11
-33.6653233
21
-1.6590413
0
LINE
8
layer0
10
-33.6653233
20
-1.6590413
11
-34.1217499
21
-1.5196705
0
LINE
8
layer0
10
-34.1217499
20
-1.5196705
11
-34.6255363
21
-1.3424983
0
LINE
8
layer0
10
-34.6255363
20
-1.3424983
11
-35.1736358
21
-1.1235566
0
LINE
8
layer0
10
-35.1736358
20
-1.1235566
11
-35.463663
21
-0.9970774
0
LINE
8
layer0
10
-35.463663
20
-0.9970774
11
-35.9922145
21
-0.7479867
0
ARC
8
layer0
10
0.000014
20
0
40
36
50
178.8094565
51
181.1905435
0
LINE
8
layer0
10
-35.9922145
20
0.7479867
11
-35.463663
21
0.9970774
0
LINE
8
layer0
10
-35.463663
20
0.9970774
11
-35.1736358
21
1.1235566
0
LINE
8
layer0
10
-35.1736358
20
1.1235566
11
-34.6255363
21
1.3424983
0
LINE
8
layer0
10
-34.6255363
20
1.3424983
11
-34.1217499
21
1.5196705
0
LINE
8
layer0
10
-34.1217499
20
1.5196705
11
-33.6653233
21
1.6590413
0
LINE
8
layer0
10
-33.6653233
20
1.6590413
11
-33.2569683
21
1.7652863
0
LINE
8
layer0
10
-33.2569683
20
1.7652863
11
-32.8998584
21
1.8424154
0
LINE
8
layer0
10
-32.8998584
20
1.8424154
11
-32.5940024
21
1.8952098
0
LINE
8
layer0
10
-32.5940024
20
1.8952098
11
-32.2412149
21
1.9456337
0
LINE
8
layer0
10
-32.2412149
20
1.9456337
11
-32.1427424
21
1.9697206
0
LINE
8
layer0
10
-32.1427424
20
1.9697206
11
-32.0594935
21
1.998482
0
LINE
8
layer0
10
-32.0594935
20
1.998482
11
-31.991587
21
2.0312864
0
LINE
8
layer0
10
-31.991587
20
2.0312864
11
-31.9391716
21
2.0675046
0
LINE
8
layer0
10
-31.9391716
20
2.0675046
11
-31.9023372
21
2.1064922
0
LINE
8
layer0
10
-31.9023372
20
2.1064922
11
-31.8811816
21
2.1476257
0
LINE
8
layer0
10
-31.8811816
20
2.1476257
11
-31.8756478
21
2.1794911
0
LINE
8
layer0
10
-31.8756478
20
2.1794911
11
-31.8137069
21
2.9479741
0
LINE
8
layer0
10
-31.8137069
20
2.9479741
11
-31.7333848
21
3.7147538
0
LINE
8
layer0
10
-31.7333848
20
3.7147538
11
-31.7329691
21
3.7470934
0
LINE
8
layer0
10
-31.7329691
20
3.7470934
11
-31.7462062
21
3.7914139
0
LINE
8
layer0
10
-31.7462062
20
3.7914139
11
-31.7752495
21
3.836506
0
LINE
8
layer0
10
-31.7752495
20
3.836506
11
-31.8201173
21
3.8817388
0
LINE
8
layer0
10
-31.8201173
20
3.8817388
11
-31.8808398
21
3.9264624
0
LINE
8
layer0
10
-31.8808398
20
3.9264624
11
-31.9573863
21
3.9700311
0
LINE
8
layer0
10
-31.9573863
20
3.9700311
11
-32.0497562
21
4.0118021
0
LINE
8
layer0
10
-32.0497562
20
4.0118021
11
-32.3872714
21
4.126192
0
LINE
8
layer0
10
-32.3872714
20
4.126192
11
-32.6782187
21
4.2342884
0
LINE
8
layer0
10
-32.6782187
20
4.2342884
11
-33.0150757
21
4.3757229
0
LINE
8
layer0
10
-33.0150757
20
4.3757229
11
-33.3969553
21
4.5551939
0
LINE
8
layer0
10
-33.3969553
20
4.5551939
11
-33.820001
21
4.7760598
0
LINE
8
layer0
10
-33.820001
20
4.7760598
11
-34.2826542
21
5.0427859
0
LINE
8
layer0
10
-34.2826542
20
5.0427859
11
-34.7811908
21
5.3587127
0
LINE
8
layer0
10
-34.7811908
20
5.3587127
11
-35.0430393
21
5.5363308
0
LINE
8
layer0
10
-35.0430393
20
5.5363308
11
-35.5168209
21
5.8783012
0
ARC
8
layer0
10
0.0000138
20
-0.0000024
40
36
50
168.2212215
51
170.6023086
0
LINE
8
layer0
10
-35.2419365
20
7.3488029
11
-34.6766143
21
7.4965312
0
LINE
8
layer0
10
-34.6766143
20
7.4965312
11
-34.3682848
21
7.5675645
0
LINE
8
layer0
10
-34.3682848
20
7.5675645
11
-33.7892873
21
7.6820653
0
LINE
8
layer0
10
-33.7892873
20
7.6820653
11
-33.2615235
21
7.7636503
0
LINE
8
layer0
10
-33.2615235
20
7.7636503
11
-32.7872592
21
7.8167799
0
LINE
8
layer0
10
-32.7872592
20
7.8167799
11
-32.3663347
21
7.8461808
0
LINE
8
layer0
10
-32.3663347
20
7.8461808
11
-32.0011328
21
7.8563779
0
LINE
8
layer0
10
-32.0011328
20
7.8563779
11
-31.6907837
21
7.8520724
0
LINE
8
layer0
10
-31.6907837
20
7.8520724
11
-31.3347377
21
7.8368133
0
LINE
8
layer0
10
-31.3347377
20
7.8368133
11
-31.2335159
21
7.8423958
0
LINE
8
layer0
10
-31.2335159
20
7.8423958
11
-31.1463996
21
7.8553706
0
LINE
8
layer0
10
-31.1463996
20
7.8553706
11
-31.0736216
21
7.8751385
0
LINE
8
layer0
10
-31.0736216
20
7.8751385
11
-31.0154436
21
7.9011088
0
LINE
8
layer0
10
-31.0154436
20
7.9011088
11
-30.9720723
21
7.9326643
0
LINE
8
layer0
10
-30.9720723
20
7.9326643
11
-30.9437187
21
7.9692101
0
LINE
8
layer0
10
-30.9437187
20
7.9692101
11
-30.9324239
21
7.999516
0
LINE
8
layer0
10
-30.9324239
20
7.999516
11
-30.7303293
21
8.7435325
0
LINE
8
layer0
10
-30.7303293
20
8.7435325
11
-30.5104794
21
9.4824972
0
LINE
8
layer0
10
-30.5104794
20
9.4824972
11
-30.5041284
21
9.5142098
0
LINE
8
layer0
10
-30.5041284
20
9.5142098
11
-30.5089962
21
9.5602079
0
LINE
8
layer0
10
-30.5089962
20
9.5602079
11
-30.5292594
21
9.609869
0
LINE
8
layer0
10
-30.5292594
20
9.609869
11
-30.5650517
21
9.6625761
0
LINE
8
layer0
10
-30.5650517
20
9.6625761
11
-30.6165223
21
9.7176958
0
LINE
8
layer0
10
-30.6165223
20
9.7176958
11
-30.6837598
21
9.7745881
0
LINE
8
layer0
10
-30.6837598
20
9.7745881
11
-30.7668815
21
9.8326208
0
LINE
8
layer0
10
-30.7668815
20
9.8326208
11
-31.0776308
21
10.0070813
0
LINE
8
layer0
10
-31.0776308
20
10.0070813
11
-31.3437615
21
10.1667985
0
LINE
8
layer0
10
-31.3437615
20
10.1667985
11
-31.6488943
21
10.3677222
0
LINE
8
layer0
10
-31.6488943
20
10.3677222
11
-31.9912939
21
10.6143075
0
LINE
8
layer0
10
-31.9912939
20
10.6143075
11
-32.3665525
21
10.9091472
0
LINE
8
layer0
10
-32.3665525
20
10.9091472
11
-32.7723174
21
11.2563441
0
LINE
8
layer0
10
-32.7723174
20
11.2563441
11
-33.204314
21
11.6584975
0
LINE
8
layer0
10
-33.204314
20
11.6584975
11
-33.4290668
21
11.8812058
0
LINE
8
layer0
10
-33.4290668
20
11.8812058
11
-33.8319445
21
12.3044107
0
ARC
8
layer0
10
0.0000134
20
-0.0000042
40
36
50
157.6329874
51
160.0140744
0
LINE
8
layer0
10
-33.2915365
20
13.6993644
11
-32.7086951
21
13.7406997
0
LINE
8
layer0
10
-32.7086951
20
13.7406997
11
-32.3925632
21
13.7538681
0
LINE
8
layer0
10
-32.3925632
20
13.7538681
11
-31.8023847
21
13.7600288
0
LINE
8
layer0
10
-31.8023847
20
13.7600288
11
-31.2686159
21
13.7432483
0
LINE
8
layer0
10
-31.2686159
20
13.7432483
11
-30.7926642
21
13.7083275
0
LINE
8
layer0
10
-30.7926642
20
13.7083275
11
-30.3735044
21
13.6598831
0
LINE
8
layer0
10
-30.3735044
20
13.6598831
11
-30.0126471
21
13.6028008
0
LINE
8
layer0
10
-30.0126471
20
13.6028008
11
-29.7083733
21
13.5415422
0
LINE
8
layer0
10
-29.7083733
20
13.5415422
11
-29.3611936
21
13.4611196
0
LINE
8
layer0
10
-29.3611936
20
13.4611196
11
-29.2606695
21
13.4480076
0
LINE
8
layer0
10
-29.2606695
20
13.4480076
11
-29.1726524
21
13.4447538
0
LINE
8
layer0
10
-29.1726524
20
13.4447538
11
-29.0974812
21
13.4508123
0
LINE
8
layer0
10
-29.0974812
20
13.4508123
11
-29.0355218
21
13.4656502
0
LINE
8
layer0
10
-29.0355218
20
13.4656502
11
-28.9870907
21
13.4886989
0
LINE
8
layer0
10
-28.9870907
20
13.4886989
11
-28.9525046
21
13.5194125
0
LINE
8
layer0
10
-28.9525046
20
13.5194125
11
-28.9358334
21
13.547127
0
LINE
8
layer0
10
-28.9358334
20
13.547127
11
-28.6004672
21
14.2413405
0
LINE
8
layer0
10
-28.6004672
20
14.2413405
11
-28.2485762
21
14.9273256
0
LINE
8
layer0
10
-28.2485762
20
14.9273256
11
-28.2365062
21
14.9573312
0
LINE
8
layer0
10
-28.2365062
20
14.9573312
11
-28.232839
21
15.0034406
0
LINE
8
layer0
10
-28.232839
20
15.0034406
11
-28.2436319
21
15.0559794
0
LINE
8
layer0
10
-28.2436319
20
15.0559794
11
-28.2691299
21
15.1143659
0
LINE
8
layer0
10
-28.2691299
20
15.1143659
11
-28.3095959
21
15.1780048
0
LINE
8
layer0
10
-28.3095959
20
15.1780048
11
-28.3652346
21
15.2462832
0
LINE
8
layer0
10
-28.3652346
20
15.2462832
11
-28.4362776
21
15.3186014
0
LINE
8
layer0
10
-28.4362776
20
15.3186014
11
-28.7096787
21
15.5471914
0
LINE
8
layer0
10
-28.7096787
20
15.5471914
11
-28.94193
21
15.7530905
0
LINE
8
layer0
10
-28.94193
20
15.7530905
11
-29.2049478
21
16.0066611
0
LINE
8
layer0
10
-29.2049478
20
16.0066611
11
-29.4962075
21
16.3119636
0
LINE
8
layer0
10
-29.4962075
20
16.3119636
11
-29.8108999
21
16.6707367
0
LINE
8
layer0
10
-29.8108999
20
16.6707367
11
-30.1459586
21
17.0865809
0
LINE
8
layer0
10
-30.1459586
20
17.0865809
11
-30.4967042
21
17.5612661
0
LINE
8
layer0
10
-30.4967042
20
17.5612661
11
-30.6767076
21
17.8214806
0
LINE
8
layer0
10
-30.6767076
20
17.8214806
11
-30.9949618
21
18.3115082
0
ARC
8
layer0
10
0.0000126
20
-0.0000063
40
36
50
147.0447526
51
149.4258397
0
LINE
8
layer0
10
-30.2074333
20
19.5834105
11
-29.6269204
21
19.5169451
0
LINE
8
layer0
10
-29.6269204
20
19.5169451
11
-29.3137516
21
19.4718002
0
LINE
8
layer0
10
-29.3137516
20
19.4718002
11
-28.73249
21
19.369411
0
LINE
8
layer0
10
-28.73249
20
19.369411
11
-28.210893
21
19.2548365
0
LINE
8
layer0
10
-28.210893
20
19.2548365
11
-27.749462
21
19.1330543
0
LINE
8
layer0
10
-27.749462
20
19.1330543
11
-27.3463408
21
19.0084144
0
LINE
8
layer0
10
-27.3463408
20
19.0084144
11
-27.0021166
21
18.8859967
0
LINE
8
layer0
10
-27.0021166
20
18.8859967
11
-26.71428
21
18.769871
0
LINE
8
layer0
10
-26.71428
20
18.769871
11
-26.3877892
21
18.6270236
0
LINE
8
layer0
10
-26.3877892
20
18.6270236
11
-26.2913861
21
18.5956636
0
LINE
8
layer0
10
-26.2913861
20
18.5956636
11
-26.2054655
21
18.5762922
0
LINE
8
layer0
10
-26.2054655
20
18.5762922
11
-26.130461
21
18.5684348
0
LINE
8
layer0
10
-26.130461
20
18.5684348
11
-26.0668301
21
18.571635
0
LINE
8
layer0
10
-26.0668301
20
18.571635
11
-26.0149885
21
18.5853922
0
LINE
8
layer0
10
-26.0149885
20
18.5853922
11
-25.9753477
21
18.6092276
0
LINE
8
layer0
10
-25.9753477
20
18.6092276
11
-25.9538678
21
18.6334069
0
LINE
8
layer0
10
-25.9538678
20
18.6334069
11
-25.4966504
21
19.2541766
0
LINE
8
layer0
10
-25.4966504
20
19.2541766
11
-25.0247016
21
19.8638218
0
LINE
8
layer0
10
-25.0247016
20
19.8638218
11
-25.0073236
21
19.8910986
0
LINE
8
layer0
10
-25.0073236
20
19.8910986
11
-24.9952463
21
19.935749
0
LINE
8
layer0
10
-24.9952463
20
19.935749
11
-24.9962015
21
19.9893765
0
LINE
8
layer0
10
-24.9962015
20
19.9893765
11
-25.0105368
21
20.0514541
0
LINE
8
layer0
10
-25.0105368
20
20.0514541
11
-25.0386202
21
20.1214451
0
LINE
8
layer0
10
-25.0386202
20
20.1214451
11
-25.0807654
21
20.1987844
0
LINE
8
layer0
10
-25.0807654
20
20.1987844
11
-25.1373103
21
20.2829253
0
LINE
8
layer0
10
-25.1373103
20
20.2829253
11
-25.364053
21
20.5578605
0
LINE
8
layer0
10
-25.364053
20
20.5578605
11
-25.5545159
21
20.8029299
0
LINE
8
layer0
10
-25.5545159
20
20.8029299
11
-25.7664618
21
21.1005123
0
LINE
8
layer0
10
-25.7664618
20
21.1005123
11
-25.996663
21
21.4541353
0
LINE
8
layer0
10
-25.996663
20
21.4541353
11
-26.2400728
21
21.8646242
0
LINE
8
layer0
10
-26.2400728
20
21.8646242
11
-26.4930154
21
22.3349548
0
LINE
8
layer0
10
-26.4930154
20
22.3349548
11
-26.7505657
21
22.8660069
0
LINE
8
layer0
10
-26.7505657
20
22.8660069
11
-26.8796899
21
23.1548662
0
LINE
8
layer0
10
-26.8796899
20
23.1548662
11
-27.1024829
21
23.6950293
0
ARC
8
layer0
10
0.0000101
20
-0.0000097
40
36
50
136.4565147
51
138.8376017
0
LINE
8
layer0
10
-26.0946521
20
24.800567
11
-25.5362365
21
24.6285644
0
LINE
8
layer0
10
-25.5362365
20
24.6285644
11
-25.2366953
21
24.5266435
0
LINE
8
layer0
10
-25.2366953
20
24.5266435
11
-24.6841449
21
24.3191912
0
LINE
8
layer0
10
-24.6841449
20
24.3191912
11
-24.192482
21
24.1107243
0
LINE
8
layer0
10
-24.192482
20
24.1107243
11
-23.7612852
21
23.906228
0
LINE
8
layer0
10
-23.7612852
20
23.906228
11
-23.3879304
21
23.709637
0
LINE
8
layer0
10
-23.3879304
20
23.709637
11
-23.0720615
21
23.5260526
0
LINE
8
layer0
10
-23.0720615
20
23.5260526
11
-22.8104638
21
23.3590143
0
LINE
8
layer0
10
-22.8104638
20
23.3590143
11
-22.5157803
21
23.1586067
0
LINE
8
layer0
10
-22.5157803
20
23.1586067
11
-22.4267811
21
23.1100666
0
LINE
8
layer0
10
-22.4267811
20
23.1100666
11
-22.3458829
21
23.0752371
0
LINE
8
layer0
10
-22.3458829
20
23.0752371
11
-22.2735993
21
23.0537315
0
LINE
8
layer0
10
-22.2735993
20
23.0537315
11
-22.2104638
21
23.0451851
0
LINE
8
layer0
10
-22.2104638
20
23.0451851
11
-22.156977
21
23.0491821
0
LINE
8
layer0
10
-22.156977
20
23.0491821
11
-22.1136314
21
23.0653277
0
LINE
8
layer0
10
-22.1136314
20
23.0653277
11
-22.0880744
21
23.0851484
0
LINE
8
layer0
10
-22.0880744
20
23.0851484
11
-21.5245758
21
23.6113349
0
LINE
8
layer0
10
-21.5245758
20
23.6113349
11
-20.9486408
21
24.1238793
0
LINE
8
layer0
10
-20.9486408
20
24.1238793
11
-20.9265466
21
24.1474985
0
LINE
8
layer0
10
-20.9265466
20
24.1474985
11
-20.9064705
21
24.1891695
0
LINE
8
layer0
10
-20.9064705
20
24.1891695
11
-20.8975553
21
24.2420593
0
LINE
8
layer0
10
-20.8975553
20
24.2420593
11
-20.9002399
21
24.305714
0
LINE
8
layer0
10
-20.9002399
20
24.305714
11
-20.9149843
21
24.3796736
0
LINE
8
layer0
10
-20.9149843
20
24.3796736
11
-20.9422008
21
24.4634403
0
LINE
8
layer0
10
-20.9422008
20
24.4634403
11
-20.9823221
21
24.5565386
0
LINE
8
layer0
10
-20.9823221
20
24.5565386
11
-21.1546848
21
24.8684564
0
LINE
8
layer0
10
-21.1546848
20
24.8684564
11
-21.2968734
21
25.1443504
0
LINE
8
layer0
10
-21.2968734
20
25.1443504
11
-21.4505299
21
25.475811
0
LINE
8
layer0
10
-21.4505299
20
25.475811
11
-21.6118334
21
25.8657122
0
LINE
8
layer0
10
-21.6118334
20
25.8657122
11
-21.7756716
21
26.3139381
0
LINE
8
layer0
10
-21.7756716
20
26.3139381
11
-21.9378843
21
26.8227385
0
LINE
8
layer0
10
-21.9378843
20
26.8227385
11
-22.0934687
21
27.3920732
0
LINE
8
layer0
10
-22.0934687
20
27.3920732
11
-22.1673166
21
27.6997407
0
LINE
8
layer0
10
-22.1673166
20
27.6997407
11
-22.2870614
21
28.2716445
0
ARC
8
layer0
10
0.0000081
20
-0.0000115
40
36
50
125.8682793
51
128.2493663
0
LINE
8
layer0
10
-21.0932488
20
29.1731699
11
-20.5759468
21
28.9014874
0
LINE
8
layer0
10
-20.5759468
20
28.9014874
11
-20.3002337
21
28.7462614
0
LINE
8
layer0
10
-20.3002337
20
28.7462614
11
-19.7952107
21
28.4408105
0
LINE
8
layer0
10
-19.7952107
20
28.4408105
11
-19.3502251
21
28.1455503
0
LINE
8
layer0
10
-19.3502251
20
28.1455503
11
-18.9639463
21
27.8653037
0
LINE
8
layer0
10
-18.9639463
20
27.8653037
11
-18.6330721
21
27.6034563
0
LINE
8
layer0
10
-18.6330721
20
27.6034563
11
-18.356315
21
27.3649571
0
LINE
8
layer0
10
-18.356315
20
27.3649571
11
-18.1298647
21
27.1526944
0
LINE
8
layer0
10
-18.1298647
20
27.1526944
11
-17.8770236
21
26.9015512
0
LINE
8
layer0
10
-17.8770236
20
26.9015512
11
-17.7984589
21
26.837484
0
LINE
8
layer0
10
-17.7984589
20
26.837484
11
-17.7253381
21
26.7883826
0
LINE
8
layer0
10
-17.7253381
20
26.7883826
11
-17.6582369
21
26.7539611
0
LINE
8
layer0
10
-17.6582369
20
26.7539611
11
-17.5977468
21
26.733959
0
LINE
8
layer0
10
-17.5977468
20
26.733959
11
-17.5444363
21
26.7280598
0
LINE
8
layer0
10
-17.5444363
20
26.7280598
11
-17.498862
21
26.7359658
0
LINE
8
layer0
10
-17.498862
20
26.7359658
11
-17.470098
21
26.7507529
0
LINE
8
layer0
10
-17.470098
20
26.7507529
11
-16.8195076
21
27.1644375
0
LINE
8
layer0
10
-16.8195076
20
27.1644375
11
-16.1591992
21
27.5624271
0
LINE
8
layer0
10
-16.1591992
20
27.5624271
11
-16.1331412
21
27.5815843
0
LINE
8
layer0
10
-16.1331412
20
27.5815843
11
-16.1057498
21
27.6188568
0
LINE
8
layer0
10
-16.1057498
20
27.6188568
11
-16.087268
21
27.6692079
0
LINE
8
layer0
10
-16.087268
20
27.6692079
11
-16.0782104
21
27.7322721
0
LINE
8
layer0
10
-16.0782104
20
27.7322721
11
-16.0791137
21
27.8076816
0
LINE
8
layer0
10
-16.0791137
20
27.8076816
11
-16.0904747
21
27.895023
0
LINE
8
layer0
10
-16.0904747
20
27.895023
11
-16.112806
21
27.9939085
0
LINE
8
layer0
10
-16.112806
20
27.9939085
11
-16.2249192
21
28.3321868
0
LINE
8
layer0
10
-16.2249192
20
28.3321868
11
-16.3139914
21
28.6295103
0
LINE
8
layer0
10
-16.3139914
20
28.6295103
11
-16.4041259
21
28.9835614
0
LINE
8
layer0
10
-16.4041259
20
28.9835614
11
-16.4910388
21
29.3964633
0
LINE
8
layer0
10
-16.4910388
20
29.3964633
11
-16.569726
21
29.8671625
0
LINE
8
layer0
10
-16.569726
20
29.8671625
11
-16.6356848
21
30.3971061
0
LINE
8
layer0
10
-16.6356848
20
30.3971061
11
-16.6840052
21
30.9853353
0
LINE
8
layer0
10
-16.6840052
20
30.9853353
11
-16.7000619
21
31.3013337
0
LINE
8
layer0
10
-16.7000619
20
31.3013337
11
-16.7126808
21
31.8855028
0
ARC
8
layer0
10
0.0000055
20
-0.000013
40
36
50
115.2800434
51
117.6611304
0
LINE
8
layer0
10
-15.3735403
20
32.5523156
11
-14.9149678
21
32.190205
0
LINE
8
layer0
10
-14.9149678
20
32.190205
11
-14.672472
21
31.9869599
0
LINE
8
layer0
10
-14.672472
20
31.9869599
11
-14.2321744
21
31.593912
0
LINE
8
layer0
10
-14.2321744
20
31.593912
11
-13.8490194
21
31.2219134
0
LINE
8
layer0
10
-13.8490194
20
31.2219134
11
-13.520813
21
30.87546
0
LINE
8
layer0
10
-13.520813
20
30.87546
11
-13.2436869
21
30.557273
0
LINE
8
layer0
10
-13.2436869
20
30.557273
11
-13.0154662
21
30.2719807
0
LINE
8
layer0
10
-13.0154662
20
30.2719807
11
-12.8318748
21
30.0217221
0
LINE
8
layer0
10
-12.8318748
20
30.0217221
11
-12.6294862
21
29.7283956
0
LINE
8
layer0
10
-12.6294862
20
29.7283956
11
-12.5640316
21
29.6509831
0
LINE
8
layer0
10
-12.5640316
20
29.6509831
11
-12.5011782
21
29.5892818
0
LINE
8
layer0
10
-12.5011782
20
29.5892818
11
-12.4415444
21
29.5431166
0
LINE
8
layer0
10
-12.4415444
20
29.5431166
11
-12.3857596
21
29.5123401
0
LINE
8
layer0
10
-12.3857596
20
29.5123401
11
-12.3344408
21
29.4967455
0
LINE
8
layer0
10
-12.3344408
20
29.4967455
11
-12.2881898
21
29.4961426
0
LINE
8
layer0
10
-12.2881898
20
29.4961426
11
-12.2571985
21
29.5053926
0
LINE
8
layer0
10
-12.2571985
20
29.5053926
11
-11.5416712
21
29.7924877
0
LINE
8
layer0
10
-11.5416712
20
29.7924877
11
-10.8194755
21
30.0623694
0
LINE
8
layer0
10
-10.8194755
20
30.0623694
11
-10.790341
21
30.0764123
0
LINE
8
layer0
10
-10.790341
20
30.0764123
11
-10.7565672
21
30.108017
0
LINE
8
layer0
10
-10.7565672
20
30.108017
11
-10.7291481
21
30.1541148
0
LINE
8
layer0
10
-10.7291481
20
30.1541148
11
-10.7086567
21
30.2144409
0
LINE
8
layer0
10
-10.7086567
20
30.2144409
11
-10.6956881
21
30.2887324
0
LINE
8
layer0
10
-10.6956881
20
30.2887324
11
-10.6908068
21
30.3766742
0
LINE
8
layer0
10
-10.6908068
20
30.3766742
11
-10.6945877
21
30.4779793
0
LINE
8
layer0
10
-10.6945877
20
30.4779793
11
-10.7426335
21
30.8310985
0
LINE
8
layer0
10
-10.7426335
20
30.8310985
11
-10.775556
21
31.1397265
0
LINE
8
layer0
10
-10.775556
20
31.1397265
11
-10.799099
21
31.5043114
0
LINE
8
layer0
10
-10.799099
20
31.5043114
11
-10.8086615
21
31.926153
0
LINE
8
layer0
10
-10.8086615
20
31.926153
11
-10.7995182
21
32.4032964
0
LINE
8
layer0
10
-10.7995182
20
32.4032964
11
-10.7669771
21
32.9363366
0
LINE
8
layer0
10
-10.7669771
20
32.9363366
11
-10.7063879
21
33.523429
0
LINE
8
layer0
10
-10.7063879
20
33.523429
11
-10.6641066
21
33.8369973
0
LINE
8
layer0
10
-10.6641066
20
33.8369973
11
-10.5691699
21
34.4135386
0
ARC
8
layer0
10
0.0000047
20
-0.0000132
40
36
50
104.691811
51
107.072898
0
LINE
8
layer0
10
-9.1303042
20
34.8229312
11
-8.7460775
21
34.3827237
0
LINE
8
layer0
10
-8.7460775
20
34.3827237
11
-8.5450568
21
34.1383807
0
LINE
8
layer0
10
-8.5450568
20
34.1383807
11
-8.1844785
21
33.6711208
0
LINE
8
layer0
10
-8.1844785
20
33.6711208
11
-7.876202
21
33.2350516
0
LINE
8
layer0
10
-7.876202
20
33.2350516
11
-7.6172445
21
32.8341895
0
LINE
8
layer0
10
-7.6172445
20
32.8341895
11
-7.4033037
21
32.4704984
0
LINE
8
layer0
10
-7.4033037
20
32.4704984
11
-7.2313913
21
32.1481283
0
LINE
8
layer0
10
-7.2313913
20
32.1481283
11
-7.0969108
21
31.8683961
0
LINE
8
layer0
10
-7.0969108
20
31.8683961
11
-6.9518669
21
31.5428752
0
LINE
8
layer0
10
-6.9518669
20
31.5428752
11
-6.9017512
21
31.4547535
0
LINE
8
layer0
10
-6.9017512
20
31.4547535
11
-6.8513056
21
31.3825535
0
LINE
8
layer0
10
-6.8513056
20
31.3825535
11
-6.80117
21
31.3262167
0
LINE
8
layer0
10
-6.80117
20
31.3262167
11
-6.7519903
21
31.2857138
0
LINE
8
layer0
10
-6.7519903
20
31.2857138
11
-6.7044107
21
31.2609549
0
LINE
8
layer0
10
-6.7044107
20
31.2609549
11
-6.659058
21
31.2518637
0
LINE
8
layer0
10
-6.659058
20
31.2518637
11
-6.6268947
21
31.2552615
0
LINE
8
layer0
10
-6.6268947
20
31.2552615
11
-5.8707971
21
31.4059905
0
LINE
8
layer0
10
-5.8707971
20
31.4059905
11
-5.1113075
21
31.5385739
0
LINE
8
layer0
10
-5.1113075
20
31.5385739
11
-5.0800886
21
31.5470242
0
LINE
8
layer0
10
-5.0800886
20
31.5470242
11
-5.0410826
21
31.5718848
0
LINE
8
layer0
10
-5.0410826
20
31.5718848
11
-5.0056599
21
31.6121595
0
LINE
8
layer0
10
-5.0056599
20
31.6121595
11
-4.9744325
21
31.6676931
0
LINE
8
layer0
10
-4.9744325
20
31.6676931
11
-4.9480337
21
31.7383367
0
LINE
8
layer0
10
-4.9480337
20
31.7383367
11
-4.9270762
21
31.8238842
0
LINE
8
layer0
10
-4.9270762
20
31.8238842
11
-4.912178
21
31.9241591
0
LINE
8
layer0
10
-4.912178
20
31.9241591
11
-4.8945203
21
32.2800942
0
LINE
8
layer0
10
-4.8945203
20
32.2800942
11
-4.8701719
21
32.5895167
0
LINE
8
layer0
10
-4.8701719
20
32.5895167
11
-4.8263218
21
32.9522199
0
LINE
8
layer0
10
-4.8263218
20
32.9522199
11
-4.7582083
21
33.368636
0
LINE
8
layer0
10
-4.7582083
20
33.368636
11
-4.6615458
21
33.835975
0
LINE
8
layer0
10
-4.6615458
20
33.835975
11
-4.5316129
21
34.3539598
0
LINE
8
layer0
10
-4.5316129
20
34.3539598
11
-4.3641773
21
34.9199226
0
LINE
8
layer0
10
-4.3641773
20
34.9199226
11
-4.264998
21
35.2203826
0
LINE
8
layer0
10
-4.264998
20
35.2203826
11
-4.0657385
21
35.7696626
0
ARC
8
layer0
10
0.000001
20
-0.000014
40
36
50
94.1035736
51
96.4846606
0
LINE
8
layer0
10
-2.5761466
20
35.9076936
11
-2.27935
21
35.40438
0
LINE
8
layer0
10
-2.27935
20
35.40438
11
-2.12665
21
35.12726
0
LINE
8
layer0
10
-2.12665
20
35.12726
11
-1.85807
21
34.6017
0
LINE
8
layer0
10
-1.85807
20
34.6017
11
-1.63517
21
34.11641
0
LINE
8
layer0
10
-1.63517
20
34.11641
11
-1.45428
21
33.67479
0
LINE
8
layer0
10
-1.45428
20
33.67479
11
-1.31081
21
33.27798
0
LINE
8
layer0
10
-1.31081
20
33.27798
11
-1.20106
21
32.92951
0
LINE
8
layer0
10
-1.20106
20
32.92951
11
-1.12027
21
32.62983
0
LINE
8
layer0
10
-1.12027
20
32.62983
11
-1.03751
21
32.2832
0
LINE
8
layer0
10
-1.03751
20
32.2832
11
-1.00444
21
32.18737
0
LINE
8
layer0
10
-1.00444
20
32.18737
11
-0.96812
21
32.10713
0
LINE
8
layer0
10
-0.96812
20
32.10713
11
-0.92919
21
32.04254
0
LINE
8
layer0
10
-0.92919
20
32.04254
11
-0.88829
21
31.99369
0
LINE
8
layer0
10
-0.88829
20
31.99369
11
-0.84607
21
31.96061
0
LINE
8
layer0
10
-0.84607
20
31.96061
11
-0.80316
21
31.94334
0
LINE
8
layer0
10
-0.80316
20
31.94334
11
-0.77092
21
31.94077
0
LINE
8
layer0
10
-0.77092
20
31.94077
11
0
21
31.95
0
LINE
8
layer0
10
0
20
31.95
11
0.77092
21
31.94077
0
LINE
8
layer0
10
0.77092
20
31.94077
11
0.80316
21
31.94334
0
LINE
8
layer0
10
0.80316
20
31.94334
11
0.84607
21
31.96061
0
LINE
8
layer0
10
0.84607
20
31.96061
11
0.88829
21
31.99369
0
LINE
8
layer0
10
0.88829
20
31.99369
11
0.92919
21
32.04254
0
LINE
8
layer0
10
0.92919
20
32.04254
11
0.96812
21
32.10713
0
LINE
8
layer0
10
0.96812
20
32.10713
11
1.00444
21
32.18737
0
LINE
8
layer0
10
1.00444
20
32.18737
11
1.03751
21
32.2832
0
LINE
8
layer0
10
1.03751
20
32.2832
11
1.12027
21
32.62983
0
LINE
8
layer0
10
1.12027
20
32.62983
11
1.20106
21
32.92951
0
LINE
8
layer0
10
1.20106
20
32.92951
11
1.31081
21
33.27798
0
LINE
8
layer0
10
1.31081
20
33.27798
11
1.45428
21
33.67479
0
LINE
8
layer0
10
1.45428
20
33.67479
11
1.63517
21
34.11641
0
LINE
8
layer0
10
1.63517
20
34.11641
11
1.85807
21
34.6017
0
LINE
8
layer0
10
1.85807
20
34.6017
11
2.12665
21
35.12726
0
LINE
8
layer0
10
2.12665
20
35.12726
11
2.27935
21
35.40438
0
LINE
8
layer0
10
2.27935
20
35.40438
11
2.5761466
21
35.9076936
0
ARC
8
layer0
10
-9e-7
20
-0.000014
40
36
50
83.5153395
51
85.8964266
0
LINE
8
layer0
10
4.0657385
20
35.7696626
11
4.264998
21
35.2203826
0
LINE
8
layer0
10
4.264998
20
35.2203826
11
4.3641773
21
34.9199226
0
LINE
8
layer0
10
4.3641773
20
34.9199226
11
4.5316129
21
34.3539598
0
LINE
8
layer0
10
4.5316129
20
34.3539598
11
4.6615458
21
33.835975
0
LINE
8
layer0
10
4.6615458
20
33.835975
11
4.7582083
21
33.368636
0
LINE
8
layer0
10
4.7582083
20
33.368636
11
4.8263218
21
32.9522199
0
LINE
8
layer0
10
4.8263218
20
32.9522199
11
4.8701719
21
32.5895167
0
LINE
8
layer0
10
4.8701719
20
32.5895167
11
4.8945203
21
32.2800942
0
LINE
8
layer0
10
4.8945203
20
32.2800942
11
4.912178
21
31.9241591
0
LINE
8
layer0
10
4.912178
20
31.9241591
11
4.9270762
21
31.8238842
0
LINE
8
layer0
10
4.9270762
20
31.8238842
11
4.9480337
21
31.7383367
0
LINE
8
layer0
10
4.9480337
20
31.7383367
11
4.9744325
21
31.6676931
0
LINE
8
layer0
10
4.9744325
20
31.6676931
11
5.0056599
21
31.6121595
0
LINE
8
layer0
10
5.0056599
20
31.6121595
11
5.0410826
21
31.5718848
0
LINE
8
layer0
10
5.0410826
20
31.5718848
11
5.0800886
21
31.5470242
0
LINE
8
layer0
10
5.0800886
20
31.5470242
11
5.1113075
21
31.5385739
0
LINE
8
layer0
10
5.1113075
20
31.5385739
11
5.8707971
21
31.4059905
0
LINE
8
layer0
10
5.8707971
20
31.4059905
11
6.6268947
21
31.2552615
0
LINE
8
layer0
10
6.6268947
20
31.2552615
11
6.659058
21
31.2518637
0
LINE
8
layer0
10
6.659058
20
31.2518637
11
6.7044107
21
31.2609549
0
LINE
8
layer0
10
6.7044107
20
31.2609549
11
6.7519903
21
31.2857138
0
LINE
8
layer0
10
6.7519903
20
31.2857138
11
6.80117
21
31.3262167
0
LINE
8
layer0
10
6.80117
20
31.3262167
11
6.8513056
21
31.3825535
0
LINE
8
layer0
10
6.8513056
20
31.3825535
11
6.9017512
21
31.4547535
0
LINE
8
layer0
10
6.9017512
20
31.4547535
11
6.9518669
21
31.5428752
0
LINE
8
layer0
10
6.9518669
20
31.5428752
11
7.0969108
21
31.8683961
0
LINE
8
layer0
10
7.0969108
20
31.8683961
11
7.2313913
21
32.1481283
0
LINE
8
layer0
10
7.2313913
20
32.1481283
11
7.4033037
21
32.4704984
0
LINE
8
layer0
10
7.4033037
20
32.4704984
11
7.6172445
21
32.8341895
0
LINE
8
layer0
10
7.6172445
20
32.8341895
11
7.876202
21
33.2350516
0
LINE
8
layer0
10
7.876202
20
33.2350516
11
8.1844785
21
33.6711208
0
LINE
8
layer0
10
8.1844785
20
33.6711208
11
8.5450568
21
34.1383807
0
LINE
8
layer0
10
8.5450568
20
34.1383807
11
8.7460775
21
34.3827237
0
LINE
8
layer0
10
8.7460775
20
34.3827237
11
9.1303042
21
34.8229312
0
ARC
8
layer0
10
-0.0000048
20
-0.0000132
40
36
50
72.927102
51
75.308189
0
LINE
8
layer0
10
10.5691699
20
34.4135386
11
10.6641066
21
33.8369973
0
LINE
8
layer0
10
10.6641066
20
33.8369973
11
10.7063879
21
33.523429
0
LINE
8
layer0
10
10.7063879
20
33.523429
11
10.7669771
21
32.9363366
0
LINE
8
layer0
10
10.7669771
20
32.9363366
11
10.7995182
21
32.4032964
0
LINE
8
layer0
10
10.7995182
20
32.4032964
11
10.8086615
21
31.926153
0
LINE
8
layer0
10
10.8086615
20
31.926153
11
10.799099
21
31.5043114
0
LINE
8
layer0
10
10.799099
20
31.5043114
11
10.775556
21
31.1397265
0
LINE
8
layer0
10
10.775556
20
31.1397265
11
10.7426335
21
30.8310985
0
LINE
8
layer0
10
10.7426335
20
30.8310985
11
10.6945877
21
30.4779793
0
LINE
8
layer0
10
10.6945877
20
30.4779793
11
10.6908068
21
30.3766742
0
LINE
8
layer0
10
10.6908068
20
30.3766742
11
10.6956881
21
30.2887324
0
LINE
8
layer0
10
10.6956881
20
30.2887324
11
10.7086567
21
30.2144409
0
LINE
8
layer0
10
10.7086567
20
30.2144409
11
10.7291481
21
30.1541148
0
LINE
8
layer0
10
10.7291481
20
30.1541148
11
10.7565672
21
30.108017
0
LINE
8
layer0
10
10.7565672
20
30.108017
11
10.790341
21
30.0764123
0
LINE
8
layer0
10
10.790341
20
30.0764123
11
10.8194755
21
30.0623694
0
LINE
8
layer0
10
10.8194755
20
30.0623694
11
11.5416712
21
29.7924877
0
LINE
8
layer0
10
11.5416712
20
29.7924877
11
12.2571985
21
29.5053926
0
LINE
8
layer0
10
12.2571985
20
29.5053926
11
12.2881898
21
29.4961426
0
LINE
8
layer0
10
12.2881898
20
29.4961426
11
12.3344408
21
29.4967455
0
LINE
8
layer0
10
12.3344408
20
29.4967455
11
12.3857596
21
29.5123401
0
LINE
8
layer0
10
12.3857596
20
29.5123401
11
12.4415444
21
29.5431166
0
LINE
8
layer0
10
12.4415444
20
29.5431166
11
12.5011782
21
29.5892818
0
LINE
8
layer0
10
12.5011782
20
29.5892818
11
12.5640316
21
29.6509831
0
LINE
8
layer0
10
12.5640316
20
29.6509831
11
12.6294862
21
29.7283956
0
LINE
8
layer0
10
12.6294862
20
29.7283956
11
12.8318748
21
30.0217221
0
LINE
8
layer0
10
12.8318748
20
30.0217221
11
13.0154662
21
30.2719807
0
LINE
8
layer0
10
13.0154662
20
30.2719807
11
13.2436869
21
30.557273
0
LINE
8
layer0
10
13.2436869
20
30.557273
11
13.520813
21
30.87546
0
LINE
8
layer0
10
13.520813
20
30.87546
11
13.8490194
21
31.2219134
0
LINE
8
layer0
10
13.8490194
20
31.2219134
11
14.2321744
21
31.593912
0
LINE
8
layer0
10
14.2321744
20
31.593912
11
14.672472
21
31.9869599
0
LINE
8
layer0
10
14.672472
20
31.9869599
11
14.9149678
21
32.190205
0
LINE
8
layer0
10
14.9149678
20
32.190205
11
15.3735403
21
32.5523156
0
ARC
8
layer0
10
-0.0000055
20
-0.0000129
40
36
50
62.3388696
51
64.7199566
0
LINE
8
layer0
10
16.7126808
20
31.8855028
11
16.7000619
21
31.3013337
0
LINE
8
layer0
10
16.7000619
20
31.3013337
11
16.6840052
21
30.9853353
0
LINE
8
layer0
10
16.6840052
20
30.9853353
11
16.6356848
21
30.3971061
0
LINE
8
layer0
10
16.6356848
20
30.3971061
11
16.569726
21
29.8671625
0
LINE
8
layer0
10
16.569726
20
29.8671625
11
16.4910388
21
29.3964633
0
LINE
8
layer0
10
16.4910388
20
29.3964633
11
16.4041259
21
28.9835614
0
LINE
8
layer0
10
16.4041259
20
28.9835614
11
16.3139914
21
28.6295103
0
LINE
8
layer0
10
16.3139914
20
28.6295103
11
16.2249192
21
28.3321868
0
LINE
8
layer0
10
16.2249192
20
28.3321868
11
16.112806
21
27.9939085
0
LINE
8
layer0
10
16.112806
20
27.9939085
11
16.0904747
21
27.895023
0
LINE
8
layer0
10
16.0904747
20
27.895023
11
16.0791137
21
27.8076816
0
LINE
8
layer0
10
16.0791137
20
27.8076816
11
16.0782104
21
27.7322721
0
LINE
8
layer0
10
16.0782104
20
27.7322721
11
16.087268
21
27.6692079
0
LINE
8
layer0
10
16.087268
20
27.6692079
11
16.1057498
21
27.6188568
0
LINE
8
layer0
10
16.1057498
20
27.6188568
11
16.1331412
21
27.5815843
0
LINE
8
layer0
10
16.1331412
20
27.5815843
11
16.1591992
21
27.5624271
0
LINE
8
layer0
10
16.1591992
20
27.5624271
11
16.8195076
21
27.1644375
0
LINE
8
layer0
10
16.8195076
20
27.1644375
11
17.470098
21
26.7507529
0
LINE
8
layer0
10
17.470098
20
26.7507529
11
17.498862
21
26.7359658
0
LINE
8
layer0
10
17.498862
20
26.7359658
11
17.5444363
21
26.7280598
0
LINE
8
layer0
10
17.5444363
20
26.7280598
11
17.5977468
21
26.733959
0
LINE
8
layer0
10
17.5977468
20
26.733959
11
17.6582369
21
26.7539611
0
LINE
8
layer0
10
17.6582369
20
26.7539611
11
17.7253381
21
26.7883826
0
LINE
8
layer0
10
17.7253381
20
26.7883826
11
17.7984589
21
26.837484
0
LINE
8
layer0
10
17.7984589
20
26.837484
11
17.8770236
21
26.9015512
0
LINE
8
layer0
10
17.8770236
20
26.9015512
11
18.1298647
21
27.1526944
0
LINE
8
layer0
10
18.1298647
20
27.1526944
11
18.356315
21
27.3649571
0
LINE
8
layer0
10
18.356315
20
27.3649571
11
18.6330721
21
27.6034563
0
LINE
8
layer0
10
18.6330721
20
27.6034563
11
18.9639463
21
27.8653037
0
LINE
8
layer0
10
18.9639463
20
27.8653037
11
19.3502251
21
28.1455503
0
LINE
8
layer0
10
19.3502251
20
28.1455503
11
19.7952107
21
28.4408105
0
LINE
8
layer0
10
19.7952107
20
28.4408105
11
20.3002337
21
28.7462614
0
LINE
8
layer0
10
20.3002337
20
28.7462614
11
20.5759468
21
28.9014874
0
LINE
8
layer0
10
20.5759468
20
28.9014874
11
21.0932488
21
29.1731699
0
ARC
8
layer0
10
-0.000008
20
-0.0000116
40
36
50
51.7506339
51
54.1317209
0
LINE
8
layer0
10
22.2870614
20
28.2716445
11
22.1673166
21
27.6997407
0
LINE
8
layer0
10
22.1673166
20
27.6997407
11
22.0934687
21
27.3920732
0
LINE
8
layer0
10
22.0934687
20
27.3920732
11
21.9378843
21
26.8227385
0
LINE
8
layer0
10
21.9378843
20
26.8227385
11
21.7756716
21
26.3139381
0
LINE
8
layer0
10
21.7756716
20
26.3139381
11
21.6118334
21
25.8657122
0
LINE
8
layer0
10
21.6118334
20
25.8657122
11
21.4505299
21
25.475811
0
LINE
8
layer0
10
21.4505299
20
25.475811
11
21.2968734
21
25.1443504
0
LINE
8
layer0
10
21.2968734
20
25.1443504
11
21.1546848
21
24.8684564
0
LINE
8
layer0
10
21.1546848
20
24.8684564
11
20.9823221
21
24.5565386
0
LINE
8
layer0
10
20.9823221
20
24.5565386
11
20.9422008
21
24.4634403
0
LINE
8
layer0
10
20.9422008
20
24.4634403
11
20.9149843
21
24.3796736
0
LINE
8
layer0
10
20.9149843
20
24.3796736
11
20.9002399
21
24.305714
0
LINE
8
layer0
10
20.9002399
20
24.305714
11
20.8975553
21
24.2420593
0
LINE
8
layer0
10
20.8975553
20
24.2420593
11
20.9064705
21
24.1891695
0
LINE
8
layer0
10
20.9064705
20
24.1891695
11
20.9265466
21
24.1474985
0
LINE
8
layer0
10
20.9265466
20
24.1474985
11
20.9486408
21
24.1238793
0
LINE
8
layer0
10
20.9486408
20
24.1238793
11
21.5245758
21
23.6113349
0
LINE
8
layer0
10
21.5245758
20
23.6113349
11
22.0880744
21
23.0851484
0
LINE
8
layer0
10
22.0880744
20
23.0851484
11
22.1136314
21
23.0653277
0
LINE
8
layer0
10
22.1136314
20
23.0653277
11
22.156977
21
23.0491821
0
LINE
8
layer0
10
22.156977
20
23.0491821
11
22.2104638
21
23.0451851
0
LINE
8
layer0
10
22.2104638
20
23.0451851
11
22.2735993
21
23.0537315
0
LINE
8
layer0
10
22.2735993
20
23.0537315
11
22.3458829
21
23.0752371
0
LINE
8
layer0
10
22.3458829
20
23.0752371
11
22.4267811
21
23.1100666
0
LINE
8
layer0
10
22.4267811
20
23.1100666
11
22.5157803
21
23.1586067
0
LINE
8
layer0
10
22.5157803
20
23.1586067
11
22.8104638
21
23.3590143
0
LINE
8
layer0
10
22.8104638
20
23.3590143
11
23.0720615
21
23.5260526
0
LINE
8
layer0
10
23.0720615
20
23.5260526
11
23.3879304
21
23.709637
0
LINE
8
layer0
10
23.3879304
20
23.709637
11
23.7612852
21
23.906228
0
LINE
8
layer0
10
23.7612852
20
23.906228
11
24.192482
21
24.1107243
0
LINE
8
layer0
10
24.192482
20
24.1107243
11
24.6841449
21
24.3191912
0
LINE
8
layer0
10
24.6841449
20
24.3191912
11
25.2366953
21
24.5266435
0
LINE
8
layer0
10
25.2366953
20
24.5266435
11
25.5362365
21
24.6285644
0
LINE
8
layer0
10
25.5362365
20
24.6285644
11
26.0946521
21
24.800567
0
ARC
8
layer0
10
-0.0000101
20
-0.0000097
40
36
50
41.1623983
51
43.5434853
0
LINE
8
layer0
10
27.1024829
20
23.6950293
11
26.8796899
21
23.1548662
0
LINE
8
layer0
10
26.8796899
20
23.1548662
11
26.7505657
21
22.8660069
0
LINE
8
layer0
10
26.7505657
20
22.8660069
11
26.4930154
21
22.3349548
0
LINE
8
layer0
10
26.4930154
20
22.3349548
11
26.2400728
21
21.8646242
0
LINE
8
layer0
10
26.2400728
20
21.8646242
11
25.996663
21
21.4541353
0
LINE
8
layer0
10
25.996663
20
21.4541353
11
25.7664618
21
21.1005123
0
LINE
8
layer0
10
25.7664618
20
21.1005123
11
25.5545159
21
20.8029299
0
LINE
8
layer0
10
25.5545159
20
20.8029299
11
25.364053
21
20.5578605
0
LINE
8
layer0
10
25.364053
20
20.5578605
11
25.1373103
21
20.2829253
0
LINE
8
layer0
10
25.1373103
20
20.2829253
11
25.0807654
21
20.1987844
0
LINE
8
layer0
10
25.0807654
20
20.1987844
11
25.0386202
21
20.1214451
0
LINE
8
layer0
10
25.0386202
20
20.1214451
11
25.0105368
21
20.0514541
0
LINE
8
layer0
10
25.0105368
20
20.0514541
11
24.9962015
21
19.9893765
0
LINE
8
layer0
10
24.9962015
20
19.9893765
11
24.9952463
21
19.935749
0
LINE
8
layer0
10
24.9952463
20
19.935749
11
25.0073236
21
19.8910986
0
LINE
8
layer0
10
25.0073236
20
19.8910986
11
25.0247016
21
19.8638218
0
LINE
8
layer0
10
25.0247016
20
19.8638218
11
25.4966504
21
19.2541766
0
LINE
8
layer0
10
25.4966504
20
19.2541766
11
25.9538678
21
18.6334069
0
LINE
8
layer0
10
25.9538678
20
18.6334069
11
25.9753477
21
18.6092276
0
LINE
8
layer0
10
25.9753477
20
18.6092276
11
26.0149885
21
18.5853922
0
LINE
8
layer0
10
26.0149885
20
18.5853922
11
26.0668301
21
18.571635
0
LINE
8
layer0
10
26.0668301
20
18.571635
11
26.130461
21
18.5684348
0
LINE
8
layer0
10
26.130461
20
18.5684348
11
26.2054655
21
18.5762922
0
LINE
8
layer0
10
26.2054655
20
18.5762922
11
26.2913861
21
18.5956636
0
LINE
8
layer0
10
26.2913861
20
18.5956636
11
26.3877892
21
18.6270236
0
LINE
8
layer0
10
26.3877892
20
18.6270236
11
26.71428
21
18.769871
0
LINE
8
layer0
10
26.71428
20
18.769871
11
27.0021166
21
18.8859967
0
LINE
8
layer0
10
27.0021166
20
18.8859967
11
27.3463408
21
19.0084144
0
LINE
8
layer0
10
27.3463408
20
19.0084144
11
27.749462
21
19.1330543
0
LINE
8
layer0
10
27.749462
20
19.1330543
11
28.210893
21
19.2548365
0
LINE
8
layer0
10
28.210893
20
19.2548365
11
28.73249
21
19.369411
0
LINE
8
layer0
10
28.73249
20
19.369411
11
29.3137516
21
19.4718002
0
LINE
8
layer0
10
29.3137516
20
19.4718002
11
29.6269204
21
19.5169451
0
LINE
8
layer0
10
29.6269204
20
19.5169451
11
30.2074333
21
19.5834105
0
ARC
8
layer0
10
-0.0000126
20
-0.0000063
40
36
50
30.5741603
51
32.9552474
0
LINE
8
layer0
10
30.9949618
20
18.3115082
11
30.6767076
21
17.8214806
0
LINE
8
layer0
10
30.6767076
20
17.8214806
11
30.4967042
21
17.5612661
0
LINE
8
layer0
10
30.4967042
20
17.5612661
11
30.1459586
21
17.0865809
0
LINE
8
layer0
10
30.1459586
20
17.0865809
11
29.8108999
21
16.6707367
0
LINE
8
layer0
10
29.8108999
20
16.6707367
11
29.4962075
21
16.3119636
0
LINE
8
layer0
10
29.4962075
20
16.3119636
11
29.2049478
21
16.0066611
0
LINE
8
layer0
10
29.2049478
20
16.0066611
11
28.94193
21
15.7530905
0
LINE
8
layer0
10
28.94193
20
15.7530905
11
28.7096787
21
15.5471914
0
LINE
8
layer0
10
28.7096787
20
15.5471914
11
28.4362776
21
15.3186014
0
LINE
8
layer0
10
28.4362776
20
15.3186014
11
28.3652346
21
15.2462832
0
LINE
8
layer0
10
28.3652346
20
15.2462832
11
28.3095959
21
15.1780048
0
LINE
8
layer0
10
28.3095959
20
15.1780048
11
28.2691299
21
15.1143659
0
LINE
8
layer0
10
28.2691299
20
15.1143659
11
28.2436319
21
15.0559794
0
LINE
8
layer0
10
28.2436319
20
15.0559794
11
28.232839
21
15.0034406
0
LINE
8
layer0
10
28.232839
20
15.0034406
11
28.2365062
21
14.9573312
0
LINE
8
layer0
10
28.2365062
20
14.9573312
11
28.2485762
21
14.9273256
0
LINE
8
layer0
10
28.2485762
20
14.9273256
11
28.6004672
21
14.2413405
0
LINE
8
layer0
10
28.6004672
20
14.2413405
11
28.9358334
21
13.547127
0
LINE
8
layer0
10
28.9358334
20
13.547127
11
28.9525046
21
13.5194125
0
LINE
8
layer0
10
28.9525046
20
13.5194125
11
28.9870907
21
13.4886989
0
LINE
8
layer0
10
28.9870907
20
13.4886989
11
29.0355218
21
13.4656502
0
LINE
8
layer0
10
29.0355218
20
13.4656502
11
29.0974812
21
13.4508123
0
LINE
8
layer0
10
29.0974812
20
13.4508123
11
29.1726524
21
13.4447538
0
LINE
8
layer0
10
29.1726524
20
13.4447538
11
29.2606695
21
13.4480076
0
LINE
8
layer0
10
29.2606695
20
13.4480076
11
29.3611936
21
13.4611196
0
LINE
8
layer0
10
29.3611936
20
13.4611196
11
29.7083733
21
13.5415422
0
LINE
8
layer0
10
29.7083733
20
13.5415422
11
30.0126471
21
13.6028008
0
LINE
8
layer0
10
30.0126471
20
13.6028008
11
30.3735044
21
13.6598831
0
LINE
8
layer0
10
30.3735044
20
13.6598831
11
30.7926642
21
13.7083275
0
LINE
8
layer0
10
30.7926642
20
13.7083275
11
31.2686159
21
13.7432483
0
LINE
8
layer0
10
31.2686159
20
13.7432483
11
31.8023847
21
13.7600288
0
LINE
8
layer0
10
31.8023847
20
13.7600288
11
32.3925632
21
13.7538681
0
LINE
8
layer0
10
32.3925632
20
13.7538681
11
32.7086951
21
13.7406997
0
LINE
8
layer0
10
32.7086951
20
13.7406997
11
33.2915365
21
13.6993644
0
ARC
8
layer0
10
-0.0000135
20
-0.0000042
40
36
50
19.9859256
51
22.3670126
0
LINE
8
layer0
10
33.8319445
20
12.3044107
11
33.4290668
21
11.8812058
0
LINE
8
layer0
10
33.4290668
20
11.8812058
11
33.204314
21
11.6584975
0
LINE
8
layer0
10
33.204314
20
11.6584975
11
32.7723174
21
11.2563441
0
LINE
8
layer0
10
32.7723174
20
11.2563441
11
32.3665525
21
10.9091472
0
LINE
8
layer0
10
32.3665525
20
10.9091472
11
31.9912939
21
10.6143075
0
LINE
8
layer0
10
31.9912939
20
10.6143075
11
31.6488943
21
10.3677222
0
LINE
8
layer0
10
31.6488943
20
10.3677222
11
31.3437615
21
10.1667985
0
LINE
8
layer0
10
31.3437615
20
10.1667985
11
31.0776308
21
10.0070813
0
LINE
8
layer0
10
31.0776308
20
10.0070813
11
30.7668815
21
9.8326208
0
LINE
8
layer0
10
30.7668815
20
9.8326208
11
30.6837598
21
9.7745881
0
LINE
8
layer0
10
30.6837598
20
9.7745881
11
30.6165223
21
9.7176958
0
LINE
8
layer0
10
30.6165223
20
9.7176958
11
30.5650517
21
9.6625761
0
LINE
8
layer0
10
30.5650517
20
9.6625761
11
30.5292594
21
9.609869
0
LINE
8
layer0
10
30.5292594
20
9.609869
11
30.5089962
21
9.5602079
0
LINE
8
layer0
10
30.5089962
20
9.5602079
11
30.5041284
21
9.5142098
0
LINE
8
layer0
10
30.5041284
20
9.5142098
11
30.5104794
21
9.4824972
0
LINE
8
layer0
10
30.5104794
20
9.4824972
11
30.7303293
21
8.7435325
0
LINE
8
layer0
10
30.7303293
20
8.7435325
11
30.9324239
21
7.999516
0
LINE
8
layer0
10
30.9324239
20
7.999516
11
30.9437187
21
7.9692101
0
LINE
8
layer0
10
30.9437187
20
7.9692101
11
30.9720723
21
7.9326643
0
LINE
8
layer0
10
30.9720723
20
7.9326643
11
31.0154436
21
7.9011088
0
LINE
8
layer0
10
31.0154436
20
7.9011088
11
31.0736216
21
7.8751385
0
LINE
8
layer0
10
31.0736216
20
7.8751385
11
31.1463996
21
7.8553706
0
LINE
8
layer0
10
31.1463996
20
7.8553706
11
31.2335159
21
7.8423958
0
LINE
8
layer0
10
31.2335159
20
7.8423958
11
31.3347377
21
7.8368133
0
LINE
8
layer0
10
31.3347377
20
7.8368133
11
31.6907837
21
7.8520724
0
LINE
8
layer0
10
31.6907837
20
7.8520724
11
32.0011328
21
7.8563779
0
LINE
8
layer0
10
32.0011328
20
7.8563779
11
32.3663347
21
7.8461808
0
LINE
8
layer0
10
32.3663347
20
7.8461808
11
32.7872592
21
7.8167799
0
LINE
8
layer0
10
32.7872592
20
7.8167799
11
33.2615235
21
7.7636503
0
LINE
8
layer0
10
33.2615235
20
7.7636503
11
33.7892873
21
7.6820653
0
LINE
8
layer0
10
33.7892873
20
7.6820653
11
34.3682848
21
7.5675645
0
LINE
8
layer0
10
34.3682848
20
7.5675645
11
34.6766143
21
7.4965312
0
LINE
8
layer0
10
34.6766143
20
7.4965312
11
35.2419365
21
7.3488029
0
ARC
8
layer0
10
-0.0000138
20
-0.0000024
40
36
50
9.3976914
51
11.7787785
0
LINE
8
layer0
10
35.5168209
20
5.8783012
11
35.0430393
21
5.5363308
0
LINE
8
layer1
10
35.0430393
20
5.5363308
11
34.7811908
21
5.3587127
0
LINE
8
layer1
10
34.7811908
20
5.3587127
11
34.2826542
21
5.0427859
0
LINE
8
layer1
10
34.2826542
20
5.0427859
11
33.820001
21
4.7760598
0
LINE
8
layer1
10
33.820001
20
4.7760598
11
33.3969553
21
4.5551939
0
LINE
8
layer1
10
33.3969553
20
4.5551939
11
33.0150757
21
4.3757229
0
LINE
8
layer1
10
33.0150757
20
4.3757229
11
32.6782187
21
4.2342884
0
LINE
8
layer1
10
32.6782187
20
4.2342884
11
32.3872714
21
4.126192
0
LINE
8
layer1
10
32.3872714
20
4.126192
11
32.0497562
21
4.0118021
0
LINE
8
layer1
10
32.0497562
20
4.0118021
11
31.9573863
21
3.9700311
0
LINE
8
layer1
10
31.9573863
20
3.9700311
11
31.8808398
21
3.9264624
0
LINE
8
layer1
10
31.8808398
20
3.9264624
11
31.8201173
21
3.8817388
0
LINE
8
layer1
10
31.8201173
20
3.8817388
11
31.7752495
21
3.836506
0
LINE
8
layer1
10
31.7752495
20
3.836506
11
31.7462062
21
3.7914139
0
LINE
8
layer1
10
31.7462062
20
3.7914139
11
31.7329691
21
3.7470934
0
LINE
8
layer1
10
31.7329691
20
3.7470934
11
31.7333848
21
3.7147538
0
LINE
8
layer1
10
31.7333848
20
3.7147538
11
31.8137069
21
2.9479741
0
LINE
8
layer1
10
31.8137069
20
2.9479741
11
31.8756478
21
2.1794911
0
LINE
8
layer1
10
31.8756478
20
2.1794911
11
31.8811816
21
2.1476257
0
LINE
8
layer1
10
31.8811816
20
2.1476257
11
31.9023372
21
2.1064922
0
LINE
8
layer1
10
31.9023372
20
2.1064922
11
31.9391716
21
2.0675046
0
LINE
8
layer1
10
31.9391716
20
2.0675046
11
31.991587
21
2.0312864
0
LINE
8
layer1
10
31.991587
20
2.0312864
11
32.0594935
21
1.998482
0
LINE
8
layer1
10
32.0594935
20
1.998482
11
32.1427424
21
1.9697206
0
LINE
8
layer1
10
32.1427424
20
1.9697206
11
32.2412149
21
1.9456337
0
LINE
8
layer1
10
32.2412149
20
1.9456337
11
32.5940024
21
1.8952098
0
LINE
8
layer1
10
32.5940024
20
1.8952098
11
32.8998584
21
1.8424154
0
LINE
8
layer1
10
32.8998584
20
1.8424154
11
33.2569683
21
1.7652863
0
LINE
8
layer1
10
33.2569683
20
1.7652863
11
33.6653233
21
1.6590413
0
LINE
8
layer1
10
33.6653233
20
1.6590413
11
34.1217499
21
1.5196705
0
LINE
8
layer1
10
34.1217499
20
1.5196705
11
34.6255363
21
1.3424983
0
LINE
8
layer1
10
34.6255363
20
1.3424983
11
35.1736358
21
1.1235566
0
LINE
8
layer1
10
35.1736358
20
1.1235566
11
35.463663
21
0.9970774
0
LINE
8
layer1
10
35.463663
20
0.9970774
11
35.9922145
21
0.7479867
0
ARC
8
layer1
10
-0.000014
20
0
40
36
50
358.8094565
51
361.1905435
0
LINE
8
layer1
10
35.9922145
20
-0.7479867
11
35.463663
21
-0.9970774
0
LINE
8
layer1
10
35.463663
20
-0.9970774
11
35.1736358
21
-1.1235566
0
LINE
8
layer1
10
35.1736358
20
-1.1235566
11
34.6255363
21
-1.3424983
0
LINE
8
layer1
10
34.6255363
20
-1.3424983
11
34.1217499
21
-1.5196705
0
LINE
8
layer1
10
34.1217499
20
-1.5196705
11
33.6653233
21
-1.6590413
0
LINE
8
layer1
10
33.6653233
20
-1.6590413
11
33.2569683
21
-1.7652863
0
LINE
8
layer1
10
33.2569683
20
-1.7652863
11
32.8998584
21
-1.8424154
0
LINE
8
layer1
10
32.8998584
20
-1.8424154
11
32.5940024
21
-1.8952098
0
LINE
8
layer1
10
32.5940024
20
-1.8952098
11
32.2412149
21
-1.9456337
0
LINE
8
layer1
10
32.2412149
20
-1.9456337
11
32.1427424
21
-1.9697206
0
LINE
8
layer1
10
32.1427424
20
-1.9697206
11
32.0594935
21
-1.998482
0
LINE
8
layer1
10
32.0594935
20
-1.998482
11
31.991587
21
-2.0312864
0
LINE
8
layer1
10
31.991587
20
-2.0312864
11
31.9391716
21
-2.0675046
0
LINE
8
layer1
10
31.9391716
20
-2.0675046
11
31.9023372
21
-2.1064922
0
LINE
8
layer1
10
31.9023372
20
-2.1064922
11
31.8811816
21
-2.1476257
0
LINE
8
layer1
10
31.8811816
20
-2.1476257
11
31.8756478
21
-2.1794911
0
LINE
8
layer1
10
31.8756478
20
-2.1794911
11
31.8137069
21
-2.9479741
0
LINE
8
layer1
10
31.8137069
20
-2.9479741
11
31.7333848
21
-3.7147538
0
LINE
8
layer1
10
31.7333848
20
-3.7147538
11
31.7329691
21
-3.7470934
0
LINE
8
layer1
10
31.7329691
20
-3.7470934
11
31.7462062
21
-3.7914139
0
LINE
8
layer1
10
31.7462062
20
-3.7914139
11
31.7752495
21
-3.836506
0
LINE
8
layer1
10
31.7752495
20
-3.836506
11
31.8201173
21
-3.8817388
0
LINE
8
layer1
10
31.8201173
20
-3.8817388
11
31.8808398
21
-3.9264624
0
LINE
8
layer1
10
31.8808398
20
-3.9264624
11
31.9573863
21
-3.9700311
0
LINE
8
layer1
10
31.9573863
20
-3.9700311
11
32.0497562
21
-4.0118021
0
LINE
8
layer1
10
32.0497562
20
-4.0118021
11
32.3872714
21
-4.126192
0
LINE
8
layer1
10
32.3872714
20
-4.126192
11
32.6782187
21
-4.2342884
0
LINE
8
layer1
10
32.6782187
20
-4.2342884
11
33.0150757
21
-4.3757229
0
LINE
8
layer1
10
33.0150757
20
-4.3757229
11
33.3969553
21
-4.5551939
0
LINE
8
layer1
10
33.3969553
20
-4.5551939
11
33.820001
21
-4.7760598
0
LINE
8
layer1
10
33.820001
20
-4.7760598
11
34.2826542
21
-5.0427859
0
LINE
8
layer1
10
34.2826542
20
-5.0427859
11
34.7811908
21
-5.3587127
0
LINE
8
layer1
10
34.7811908
20
-5.3587127
11
35.0430393
21
-5.5363308
0
LINE
8
layer1
10
35.0430393
20
-5.5363308
11
35.5168209
21
-5.8783012
0
ARC
8
layer1
10
-0.0000138
20
0.0000024
40
36
50
348.2212215
51
350.6023086
0
LINE
8
layer1
10
35.2419365
20
-7.3488029
11
34.6766143
21
-7.4965312
0
LINE
8
layer1
10
34.6766143
20
-7.4965312
11
34.3682848
21
-7.5675645
0
LINE
8
layer1
10
34.3682848
20
-7.5675645
11
33.7892873
21
-7.6820653
0
LINE
8
layer1
10
33.7892873
20
-7.6820653
11
33.2615235
21
-7.7636503
0
LINE
8
layer1
10
33.2615235
20
-7.7636503
11
32.7872592
21
-7.8167799
0
LINE
8
layer1
10
32.7872592
20
-7.8167799
11
32.3663347
21
-7.8461808
0
LINE
8
layer1
10
32.3663347
20
-7.8461808
11
32.0011328
21
-7.8563779
0
LINE
8
layer1
10
32.0011328
20
-7.8563779
11
31.6907837
21
-7.8520724
0
LINE
8
layer1
10
31.6907837
20
-7.8520724
11
31.3347377
21
-7.8368133
0
LINE
8
layer1
10
31.3347377
20
-7.8368133
11
31.2335159
21
-7.8423958
0
LINE
8
layer1
10
31.2335159
20
-7.8423958
11
31.1463996
21
-7.8553706
0
LINE
8
layer1
10
31.1463996
20
-7.8553706
11
31.0736216
21
-7.8751385
0
LINE
8
layer1
10
31.0736216
20
-7.8751385
11
31.0154436
21
-7.9011088
0
LINE
8
layer1
10
31.0154436
20
-7.9011088
11
30.9720723
21
-7.9326643
0
LINE
8
layer1
10
30.9720723
20
-7.9326643
11
30.9437187
21
-7.9692101
0
LINE
8
layer1
10
30.9437187
20
-7.9692101
11
30.9324239
21
-7.999516
0
LINE
8
layer1
10
30.9324239
20
-7.999516
11
30.7303293
21
-8.7435325
0
LINE
8
layer1
10
30.7303293
20
-8.7435325
11
30.5104794
21
-9.4824972
0
LINE
8
layer1
10
30.5104794
20
-9.4824972
11
30.5041284
21
-9.5142098
0
LINE
8
layer1
10
30.5041284
20
-9.5142098
11
30.5089962
21
-9.5602079
0
LINE
8
layer1
10
30.5089962
20
-9.5602079
11
30.5292594
21
-9.609869
0
LINE
8
layer1
10
30.5292594
20
-9.609869
11
30.5650517
21
-9.6625761
0
LINE
8
layer1
10
30.5650517
20
-9.6625761
11
30.6165223
21
-9.7176958
0
LINE
8
layer1
10
30.6165223
20
-9.7176958
11
30.6837598
21
-9.7745881
0
LINE
8
layer1
10
30.6837598
20
-9.7745881
11
30.7668815
21
-9.8326208
0
LINE
8
layer1
10
30.7668815
20
-9.8326208
11
31.0776308
21
-10.0070813
0
LINE
8
layer1
10
31.0776308
20
-10.0070813
11
31.3437615
21
-10.1667985
0
LINE
8
layer1
10
31.3437615
20
-10.1667985
11
31.6488943
21
-10.3677222
0
LINE
8
layer1
10
31.6488943
20
-10.3677222
11
31.9912939
21
-10.6143075
0
LINE
8
layer1
10
31.9912939
20
-10.6143075
11
32.3665525
21
-10.9091472
0
LINE
8
layer1
10
32.3665525
20
-10.9091472
11
32.7723174
21
-11.2563441
0
LINE
8
layer1
10
32.7723174
20
-11.2563441
11
33.204314
21
-11.6584975
0
LINE
8
layer1
10
33.204314
20
-11.6584975
11
33.4290668
21
-11.8812058
0
LINE
8
layer1
10
33.4290668
20
-11.8812058
11
33.8319445
21
-12.3044107
0
ARC
8
layer1
10
-0.0000134
20
0.0000042
40
36
50
337.6329874
51
340.0140744
0
LINE
8
layer1
10
33.2915365
20
-13.6993644
11
32.7086951
21
-13.7406997
0
LINE
8
layer1
10
32.7086951
20
-13.7406997
11
32.3925632
21
-13.7538681
0
LINE
8
layer1
10
32.3925632
20
-13.7538681
11
31.8023847
21
-13.7600288
0
LINE
8
layer1
10
31.8023847
20
-13.7600288
11
31.2686159
21
-13.7432483
0
LINE
8
layer1
10
31.2686159
20
-13.7432483
11
30.7926642
21
-13.7083275
0
LINE
8
layer1
10
30.7926642
20
-13.7083275
11
30.3735044
21
-13.6598831
0
LINE
8
layer1
10
30.3735044
20
-13.6598831
11
30.0126471
21
-13.6028008
0
LINE
8
layer1
10
30.0126471
20
-13.6028008
11
29.7083733
21
-13.5415422
0
LINE
8
layer1
10
29.7083733
20
-13.5415422
11
29.3611936
21
-13.4611196
0
LINE
8
layer1
10
29.3611936
20
-13.4611196
11
29.2606695
21
-13.4480076
0
LINE
8
layer1
10
29.2606695
20
-13.4480076
11
29.1726524
21
-13.4447538
0
LINE
8
layer1
10
29.1726524
20
-13.4447538
11
29.0974812
21
-13.4508123
0
LINE
8
layer1
10
29.0974812
20
-13.4508123
11
29.0355218
21
-13.4656502
0
LINE
8
layer1
10
29.0355218
20
-13.4656502
11
28.9870907
21
-13.4886989
0
LINE
8
layer1
10
28.9870907
20
-13.4886989
11
28.9525046
21
-13.5194125
0
LINE
8
layer1
10
28.9525046
20
-13.5194125
11
28.9358334
21
-13.547127
0
LINE
8
layer1
10
28.9358334
20
-13.547127
11
28.6004672
21
-14.2413405
0
LINE
8
layer1
10
28.6004672
20
-14.2413405
11
28.2485762
21
-14.9273256
0
LINE
8
layer1
10
28.2485762
20
-14.9273256
11
28.2365062
21
-14.9573312
0
LINE
8
layer1
10
28.2365062
20
-14.9573312
11
28.232839
21
-15.0034406
0
LINE
8
layer1
10
28.232839
20
-15.0034406
11
28.2436319
21
-15.0559794
0
LINE
8
layer1
10
28.2436319
20
-15.0559794
11
28.2691299
21
-15.1143659
0
LINE
8
layer1
10
28.2691299
20
-15.1143659
11
28.3095959
21
-15.1780048
0
LINE
8
layer1
10
28.3095959
20
-15.1780048
11
28.3652346
21
-15.2462832
0
LINE
8
layer1
10
28.3652346
20
-15.2462832
11
28.4362776
21
-15.3186014
0
LINE
8
layer1
10
28.4362776
20
-15.3186014
11
28.7096787
21
-15.5471914
0
LINE
8
layer1
10
28.7096787
20
-15.5471914
11
28.94193
21
-15.7530905
0
LINE
8
layer1
10
28.94193
20
-15.7530905
11
29.2049478
21
-16.0066611
0
LINE
8
layer1
10
29.2049478
20
-16.0066611
11
29.4962075
21
-16.3119636
0
LINE
8
layer1
10
29.4962075
20
-16.3119636
11
29.8108999
21
-16.6707367
0
LINE
8
layer1
10
29.8108999
20
-16.6707367
11
30.1459586
21
-17.0865809
0
LINE
8
layer1
10
30.1459586
20
-17.0865809
11
30.4967042
21
-17.5612661
0
LINE
8
layer1
10
30.4967042
20
-17.5612661
11
30.6767076
21
-17.8214806
0
LINE
8
layer1
10
30.6767076
20
-17.8214806
11
30.9949618
21
-18.3115082
0
ARC
8
layer1
10
-0.0000126
20
0.0000063
40
36
50
327.0447526
51
329.4258397
0
LINE
8
layer1
10
30.2074333
20
-19.5834105
11
29.6269204
21
-19.5169451
0
LINE
8
layer1
10
29.6269204
20
-19.5169451
11
29.3137516
21
-19.4718002
0
LINE
8
layer1
10
29.3137516
20
-19.4718002
11
28.73249
21
-19.369411
0
LINE
8
layer1
10
28.73249
20
-19.369411
11
28.210893
21
-19.2548365
0
LINE
8
layer1
10
28.210893
20
-19.2548365
11
27.749462
21
-19.1330543
0
LINE
8
layer1
10
27.749462
20
-19.1330543
11
27.3463408
21
-19.0084144
0
LINE
8
layer1
10
27.3463408
20
-19.0084144
11
27.0021166
21
-18.8859967
0
LINE
8
layer1
10
27.0021166
20
-18.8859967
11
26.71428
21
-18.769871
0
LINE
8
layer1
10
26.71428
20
-18.769871
11
26.3877892
21
-18.6270236
0
LINE
8
layer1
10
26.3877892
20
-18.6270236
11
26.2913861
21
-18.5956636
0
LINE
8
layer1
10
26.2913861
20
-18.5956636
11
26.2054655
21
-18.5762922
0
LINE
8
layer1
10
26.2054655
20
-18.5762922
11
26.130461
21
-18.5684348
0
LINE
8
layer1
10
26.130461
20
-18.5684348
11
26.0668301
21
-18.571635
0
LINE
8
layer1
10
26.0668301
20
-18.571635
11
26.0149885
21
-18.5853922
0
LINE
8
layer1
10
26.0149885
20
-18.5853922
11
25.9753477
21
-18.6092276
0
LINE
8
layer1
10
25.9753477
20
-18.6092276
11
25.9538678
21
-18.6334069
0
LINE
8
layer1
10
25.9538678
20
-18.6334069
11
25.4966504
21
-19.2541766
0
LINE
8
layer1
10
25.4966504
20
-19.2541766
11
25.0247016
21
-19.8638218
0
LINE
8
layer1
10
25.0247016
20
-19.8638218
11
25.0073236
21
-19.8910986
0
LINE
8
layer1
10
25.0073236
20
-19.8910986
11
24.9952463
21
-19.935749
0
LINE
8
layer1
10
24.9952463
20
-19.935749
11
24.9962015
21
-19.9893765
0
LINE
8
layer1
10
24.9962015
20
-19.9893765
11
25.0105368
21
-20.0514541
0
LINE
8
layer1
10
25.0105368
20
-20.0514541
11
25.0386202
21
-20.1214451
0
LINE
8
layer1
10
25.0386202
20
-20.1214451
11
25.0807654
21
-20.1987844
0
LINE
8
layer1
10
25.0807654
20
-20.1987844
11
25.1373103
21
-20.2829253
0
LINE
8
layer1
10
25.1373103
20
-20.2829253
11
25.364053
21
-20.5578605
0
LINE
8
layer1
10
25.364053
20
-20.5578605
11
25.5545159
21
-20.8029299
0
LINE
8
layer1
10
25.5545159
20
-20.8029299
11
25.7664618
21
-21.1005123
0
LINE
8
layer1
10
25.7664618
20
-21.1005123
11
25.996663
21
-21.4541353
0
LINE
8
layer1
10
25.996663
20
-21.4541353
11
26.2400728
21
-21.8646242
0
LINE
8
layer1
10
26.2400728
20
-21.8646242
11
26.4930154
21
-22.3349548
0
LINE
8
layer1
10
26.4930154
20
-22.3349548
11
26.7505657
21
-22.8660069
0
LINE
8
layer1
10
26.7505657
20
-22.8660069
11
26.8796899
21
-23.1548662
0
LINE
8
layer1
10
26.8796899
20
-23.1548662
11
27.1024829
21
-23.6950293
0
ARC
8
layer1
10
-0.0000101
20
0.0000097
40
36
50
316.4565147
51
318.8376017
0
LINE
8
layer1
10
26.0946521
20
-24.800567
11
25.5362365
21
-24.6285644
0
LINE
8
layer1
10
25.5362365
20
-24.6285644
11
25.2366953
21
-24.5266435
0
LINE
8
layer1
10
25.2366953
20
-24.5266435
11
24.6841449
21
-24.3191912
0
LINE
8
layer1
10
24.6841449
20
-24.3191912
11
24.192482
21
-24.1107243
0
LINE
8
layer1
10
24.192482
20
-24.1107243
11
23.7612852
21
-23.906228
0
LINE
8
layer1
10
23.7612852
20
-23.906228
11
23.3879304
21
-23.709637
0
LINE
8
layer1
10
23.3879304
20
-23.709637
11
23.0720615
21
-23.5260526
0
LINE
8
layer1
10
23.0720615
20
-23.5260526
11
22.8104638
21
-23.3590143
0
LINE
8
layer1
10
22.8104638
20
-23.3590143
11
22.5157803
21
-23.1586067
0
LINE
8
layer1
10
22.5157803
20
-23.1586067
11
22.4267811
21
-23.1100666
0
LINE
8
layer1
10
22.4267811
20
-23.1100666
11
22.3458829
21
-23.0752371
0
LINE
8
layer1
10
22.3458829
20
-23.0752371
11
22.2735993
21
-23.0537315
0
LINE
8
layer1
10
22.2735993
20
-23.0537315
11
22.2104638
21
-23.0451851
0
LINE
8
layer1
10
22.2104638
20
-23.0451851
11
22.156977
21
-23.0491821
0
LINE
8
layer1
10
22.156977
20
-23.0491821
11
22.1136314
21
-23.0653277
0
LINE
8
layer1
10
22.1136314
20
-23.0653277
11
22.0880744
21
-23.0851484
0
LINE
8
layer1
10
22.0880744
20
-23.0851484
11
21.5245758
21
-23.6113349
0
LINE
8
layer1
10
21.5245758
20
-23.6113349
11
20.9486408
21
-24.1238793
0
LINE
8
layer1
10
20.9486408
20
-24.1238793
11
20.9265466
21
-24.1474985
0
LINE
8
layer1
10
20.9265466
20
-24.1474985
11
20.9064705
21
-24.1891695
0
LINE
8
layer1
10
20.9064705
20
-24.1891695
11
20.8975553
21
-24.2420593
0
LINE
8
layer1
10
20.8975553
20
-24.2420593
11
20.9002399
21
-24.305714
0
LINE
8
layer1
10
20.9002399
20
-24.305714
11
20.9149843
21
-24.3796736
0
LINE
8
layer1
10
20.9149843
20
-24.3796736
11
20.9422008
21
-24.4634403
0
LINE
8
layer1
10
20.9422008
20
-24.4634403
11
20.9823221
21
-24.5565386
0
LINE
8
layer1
10
20.9823221
20
-24.5565386
11
21.1546848
21
-24.8684564
0
LINE
8
layer1
10
21.1546848
20
-24.8684564
11
21.2968734
21
-25.1443504
0
LINE
8
layer1
10
21.2968734
20
-25.1443504
11
21.4505299
21
-25.475811
0
LINE
8
layer1
10
21.4505299
20
-25.475811
11
21.6118334
21
-25.8657122
0
LINE
8
layer1
10
21.6118334
20
-25.8657122
11
21.7756716
21
-26.3139381
0
LINE
8
layer1
10
21.7756716
20
-26.3139381
11
21.9378843
21
-26.8227385
0
LINE
8
layer1
10
21.9378843
20
-26.8227385
11
22.0934687
21
-27.3920732
0
LINE
8
layer1
10
22.0934687
20
-27.3920732
11
22.1673166
21
-27.6997407
0
LINE
8
layer1
10
22.1673166
20
-27.6997407
11
22.2870614
21
-28.2716445
0
ARC
8
layer1
10
-0.0000081
20
0.0000115
40
36
50
305.8682793
51
308.2493663
0
LINE
8
layer1
10
21.0932488
20
-29.1731699
11
20.5759468
21
-28.9014874
0
LINE
8
layer1
10
20.5759468
20
-28.9014874
11
20.3002337
21
-28.7462614
0
LINE
8
layer1
10
20.3002337
20
-28.7462614
11
19.7952107
21
-28.4408105
0
LINE
8
layer1
10
19.7952107
20
-28.4408105
11
19.3502251
21
-28.1455503
0
LINE
8
layer1
10
19.3502251
20
-28.1455503
11
18.9639463
21
-27.8653037
0
LINE
8
layer1
10
18.9639463
20
-27.8653037
11
18.6330721
21
-27.6034563
0
LINE
8
layer1
10
18.6330721
20
-27.6034563
11
18.356315
21
-27.3649571
0
LINE
8
layer1
10
18.356315
20
-27.3649571
11
18.1298647
21
-27.1526944
0
LINE
8
layer1
10
18.1298647
20
-27.1526944
11
17.8770236
21
-26.9015512
0
LINE
8
layer1
10
17.8770236
20
-26.9015512
11
17.7984589
21
-26.837484
0
LINE
8
layer1
10
17.7984589
20
-26.837484
11
17.7253381
21
-26.7883826
0
LINE
8
layer1
10
17.7253381
20
-26.7883826
11
17.6582369
21
-26.7539611
0
LINE
8
layer1
10
17.6582369
20
-26.7539611
11
17.5977468
21
-26.733959
0
LINE
8
layer1
10
17.5977468
20
-26.733959
11
17.5444363
21
-26.7280598
0
LINE
8
layer1
10
17.5444363
20
-26.7280598
11
17.498862
21
-26.7359658
0
LINE
8
layer1
10
17.498862
20
-26.7359658
11
17.470098
21
-26.7507529
0
LINE
8
layer1
10
17.470098
20
-26.7507529
11
16.8195076
21
-27.1644375
0
LINE
8
layer1
10
16.8195076
20
-27.1644375
11
16.1591992
21
-27.5624271
0
LINE
8
layer1
10
16.1591992
20
-27.5624271
11
16.1331412
21
-27.5815843
0
LINE
8
layer1
10
16.1331412
20
-27.5815843
11
16.1057498
21
-27.6188568
0
LINE
8
layer1
10
16.1057498
20
-27.6188568
11
16.087268
21
-27.6692079
0
LINE
8
layer1
10
16.087268
20
-27.6692079
11
16.0782104
21
-27.7322721
0
LINE
8
layer1
10
16.0782104
20
-27.7322721
11
16.0791137
21
-27.8076816
0
LINE
8
layer1
10
16.0791137
20
-27.8076816
11
16.0904747
21
-27.895023
0
LINE
8
layer1
10
16.0904747
20
-27.895023
11
16.112806
21
-27.9939085
0
LINE
8
layer1
10
16.112806
20
-27.9939085
11
16.2249192
21
-28.3321868
0
LINE
8
layer1
10
16.2249192
20
-28.3321868
11
16.3139914
21
-28.6295103
0
LINE
8
layer1
10
16.3139914
20
-28.6295103
11
16.4041259
21
-28.9835614
0
LINE
8
layer1
10
16.4041259
20
-28.9835614
11
16.4910388
21
-29.3964633
0
LINE
8
layer1
10
16.4910388
20
-29.3964633
11
16.569726
21
-29.8671625
0
LINE
8
layer1
10
16.569726
20
-29.8671625
11
16.6356848
21
-30.3971061
0
LINE
8
layer1
10
16.6356848
20
-30.3971061
11
16.6840052
21
-30.9853353
0
LINE
8
layer1
10
16.6840052
20
-30.9853353
11
16.7000619
21
-31.3013337
0
LINE
8
layer1
10
16.7000619
20
-31.3013337
11
16.7126808
21
-31.8855028
0
ARC
8
layer1
10
-0.0000055
20
0.000013
40
36
50
295.2800434
51
297.6611304
0
LINE
8
layer1
10
15.3735403
20
-32.5523156
11
14.9149678
21
-32.190205
0
LINE
8
layer1
10
14.9149678
20
-32.190205
11
14.672472
21
-31.9869599
0
LINE
8
layer1
10
14.672472
20
-31.9869599
11
14.2321744
21
-31.593912
0
LINE
8
layer1
10
14.2321744
20
-31.593912
11
13.8490194
21
-31.2219134
0
LINE
8
layer1
10
13.8490194
20
-31.2219134
11
13.520813
21
-30.87546
0
LINE
8
layer1
10
13.520813
20
-30.87546
11
13.2436869
21
-30.557273
0
LINE
8
layer1
10
13.2436869
20
-30.557273
11
13.0154662
21
-30.2719807
0
LINE
8
layer1
10
13.0154662
20
-30.2719807
11
12.8318748
21
-30.0217221
0
LINE
8
layer1
10
12.8318748
20
-30.0217221
11
12.6294862
21
-29.7283956
0
LINE
8
layer1
10
12.6294862
20
-29.7283956
11
12.5640316
21
-29.6509831
0
LINE
8
layer1
10
12.5640316
20
-29.6509831
11
12.5011782
21
-29.5892818
0
LINE
8
layer1
10
12.5011782
20
-29.5892818
11
12.4415444
21
-29.5431166
0
LINE
8
layer1
10
12.4415444
20
-29.5431166
11
12.3857596
21
-29.5123401
0
LINE
8
layer1
10
12.3857596
20
-29.5123401
11
12.3344408
21
-29.4967455
0
LINE
8
layer1
10
12.3344408
20
-29.4967455
11
12.2881898
21
-29.4961426
0
LINE
8
layer1
10
12.2881898
20
-29.4961426
11
12.2571985
21
-29.5053926
0
LINE
8
layer1
10
12.2571985
20
-29.5053926
11
11.5416712
21
-29.7924877
0
LINE
8
layer1
10
11.5416712
20
-29.7924877
11
10.8194755
21
-30.0623694
0
LINE
8
layer1
10
10.8194755
20
-30.0623694
11
10.790341
21
-30.0764123
0
LINE
8
layer1
10
10.790341
20
-30.0764123
11
10.7565672
21
-30.108017
0
LINE
8
layer1
10
10.7565672
20
-30.108017
11
10.7291481
21
-30.1541148
0
LINE
8
layer1
10
10.7291481
20
-30.1541148
11
10.7086567
21
-30.2144409
0
LINE
8
layer1
10
10.7086567
20
-30.2144409
11
10.6956881
21
-30.2887324
0
LINE
8
layer1
10
10.6956881
20
-30.2887324
11
10.6908068
21
-30.3766742
0
LINE
8
layer1
10
10.6908068
20
-30.3766742
11
10.6945877
21
-30.4779793
0
LINE
8
layer1
10
10.6945877
20
-30.4779793
11
10.7426335
21
-30.8310985
0
LINE
8
layer1
10
10.7426335
20
-30.8310985
11
10.775556
21
-31.1397265
0
LINE
8
layer1
10
10.775556
20
-31.1397265
11
10.799099
21
-31.5043114
0
LINE
8
layer1
10
10.799099
20
-31.5043114
11
10.8086615
21
-31.926153
0
LINE
8
layer1
10
10.8086615
20
-31.926153
11
10.7995182
21
-32.4032964
0
LINE
8
layer1
10
10.7995182
20
-32.4032964
11
10.7669771
21
-32.9363366
0
LINE
8
layer1
10
10.7669771
20
-32.9363366
11
10.7063879
21
-33.523429
0
LINE
8
layer1
10
10.7063879
20
-33.523429
11
10.6641066
21
-33.8369973
0
LINE
8
layer1
10
10.6641066
20
-33.8369973
11
10.5691699
21
-34.4135386
0
ARC
8
layer1
10
-0.0000047
20
0.0000132
40
36
50
284.691811
51
287.072898
0
LINE
8
layer1
10
9.1303042
20
-34.8229312
11
8.7460775
21
-34.3827237
0
LINE
8
layer1
10
8.7460775
20
-34.3827237
11
8.5450568
21
-34.1383807
0
LINE
8
layer1
10
8.5450568
20
-34.1383807
11
8.1844785
21
-33.6711208
0
LINE
8
layer1
10
8.1844785
20
-33.6711208
11
7.876202
21
-33.2350516
0
LINE
8
layer1
10
7.876202
20
-33.2350516
11
7.6172445
21
-32.8341895
0
LINE
8
layer1
10
7.6172445
20
-32.8341895
11
7.4033037
21
-32.4704984
0
LINE
8
layer1
10
7.4033037
20
-32.4704984
11
7.2313913
21
-32.1481283
0
LINE
8
layer1
10
7.2313913
20
-32.1481283
11
7.0969108
21
-31.8683961
0
LINE
8
layer1
10
7.0969108
20
-31.8683961
11
6.9518669
21
-31.5428752
0
LINE
8
layer1
10
6.9518669
20
-31.5428752
11
6.9017512
21
-31.4547535
0
LINE
8
layer1
10
6.9017512
20
-31.4547535
11
6.8513056
21
-31.3825535
0
LINE
8
layer1
10
6.8513056
20
-31.3825535
11
6.80117
21
-31.3262167
0
LINE
8
layer1
10
6.80117
20
-31.3262167
11
6.7519903
21
-31.2857138
0
LINE
8
layer1
10
6.7519903
20
-31.2857138
11
6.7044107
21
-31.2609549
0
LINE
8
layer1
10
6.7044107
20
-31.2609549
11
6.659058
21
-31.2518637
0
LINE
8
layer1
10
6.659058
20
-31.2518637
11
6.6268947
21
-31.2552615
0
LINE
8
layer1
10
6.6268947
20
-31.2552615
11
5.8707971
21
-31.4059905
0
LINE
8
layer1
10
5.8707971
20
-31.4059905
11
5.1113075
21
-31.5385739
0
LINE
8
layer1
10
5.1113075
20
-31.5385739
11
5.0800886
21
-31.5470242
0
LINE
8
layer1
10
5.0800886
20
-31.5470242
11
5.0410826
21
-31.5718848
0
LINE
8
layer1
10
5.0410826
20
-31.5718848
11
5.0056599
21
-31.6121595
0
LINE
8
layer1
10
5.0056599
20
-31.6121595
11
4.9744325
21
-31.6676931
0
LINE
8
layer1
10
4.9744325
20
-31.6676931
11
4.9480337
21
-31.7383367
0
LINE
8
layer1
10
4.9480337
20
-31.7383367
11
4.9270762
21
-31.8238842
0
LINE
8
layer1
10
4.9270762
20
-31.8238842
11
4.912178
21
-31.9241591
0
LINE
8
layer1
10
4.912178
20
-31.9241591
11
4.8945203
21
-32.2800942
0
LINE
8
layer1
10
4.8945203
20
-32.2800942
11
4.8701719
21
-32.5895167
0
LINE
8
layer1
10
4.8701719
20
-32.5895167
11
4.8263218
21
-32.9522199
0
LINE
8
layer1
10
4.8263218
20
-32.9522199
11
4.7582083
21
-33.368636
0
LINE
8
layer1
10
4.7582083
20
-33.368636
11
4.6615458
21
-33.835975
0
LINE
8
layer1
10
4.6615458
20
-33.835975
11
4.5316129
21
-34.3539598
0
LINE
8
layer1
10
4.5316129
20
-34.3539598
11
4.3641773
21
-34.9199226
0
LINE
8
layer1
10
4.3641773
20
-34.9199226
11
4.264998
21
-35.2203826
0
LINE
8
layer1
10
4.264998
20
-35.2203826
11
4.0657385
21
-35.7696626
0
ARC
8
layer1
10
-0.000001
20
0.000014
40
36
50
274.1035736
51
276.4846606
0
LINE
8
layer1
10
2.5761466
20
-35.9076936
11
2.27935
21
-35.40438
0
LINE
8
layer1
10
2.27935
20
-35.40438
11
2.12665
21
-35.12726
0
LINE
8
layer1
10
2.12665
20
-35.12726
11
1.85807
21
-34.6017
0
LINE
8
layer1
10
1.85807
20
-34.6017
11
1.63517
21
-34.11641
0
LINE
8
layer1
10
1.63517
20
-34.11641
11
1.45428
21
-33.67479
0
LINE
8
layer1
10
1.45428
20
-33.67479
11
1.31081
21
-33.27798
0
LINE
8
layer1
10
1.31081
20
-33.27798
11
1.20106
21
-32.92951
0
LINE
8
layer1
10
1.20106
20
-32.92951
11
1.12027
21
-32.62983
0
LINE
8
layer1
10
1.12027
20
-32.62983
11
1.03751
21
-32.2832
0
LINE
8
layer1
10
1.03751
20
-32.2832
11
1.00444
21
-32.18737
0
LINE
8
layer1
10
1.00444
20
-32.18737
11
0.96812
21
-32.10713
0
LINE
8
layer1
10
0.96812
20
-32.10713
11
0.92919
21
-32.04254
0
LINE
8
layer1
10
0.92919
20
-32.04254
11
0.88829
21
-31.99369
0
LINE
8
layer1
10
0.88829
20
-31.99369
11
0.84607
21
-31.96061
0
LINE
8
layer1
10
0.84607
20
-31.96061
11
0.80316
21
-31.94334
0
LINE
8
layer1
10
0.80316
20
-31.94334
11
0.77092
21
-31.94077
0
LINE
8
layer1
10
0.77092
20
-31.94077
11
0
21
-31.95
0
LINE
8
layer1
10
0
20
-31.95
11
-0.77092
21
-31.94077
0
LINE
8
layer1
10
-0.77092
20
-31.94077
11
-0.80316
21
-31.94334
0
LINE
8
layer1
10
-0.80316
20
-31.94334
11
-0.84607
21
-31.96061
0
LINE
8
layer1
10
-0.84607
20
-31.96061
11
-0.88829
21
-31.99369
0
LINE
8
layer1
10
-0.88829
20
-31.99369
11
-0.92919
21
-32.04254
0
LINE
8
layer1
10
-0.92919
20
-32.04254
11
-0.96812
21
-32.10713
0
LINE
8
layer1
10
-0.96812
20
-32.10713
11
-1.00444
21
-32.18737
0
LINE
8
layer1
10
-1.00444
20
-32.18737
11
-1.03751
21
-32.2832
0
LINE
8
layer1
10
-1.03751
20
-32.2832
11
-1.12027
21
-32.62983
0
LINE
8
layer1
10
-1.12027
20
-32.62983
11
-1.20106
21
-32.92951
0
LINE
8
layer1
10
-1.20106
20
-32.92951
11
-1.31081
21
-33.27798
0
LINE
8
layer1
10
-1.31081
20
-33.27798
11
-1.45428
21
-33.67479
0
LINE
8
layer1
10
-1.45428
20
-33.67479
11
-1.63517
21
-34.11641
0
LINE
8
layer1
10
-1.63517
20
-34.11641
11
-1.85807
21
-34.6017
0
LINE
8
layer1
10
-1.85807
20
-34.6017
11
-2.12665
21
-35.12726
0
LINE
8
layer1
10
-2.12665
20
-35.12726
11
-2.27935
21
-35.40438
0
LINE
8
layer1
10
-2.27935
20
-35.40438
11
-2.5761466
21
-35.9076936
0
ARC
8
layer1
10
9e-7
20
0.000014
40
36
50
263.5153395
51
265.8964266
0
LINE
8
layer1
10
-4.0657385
20
-35.7696626
11
-4.264998
21
-35.2203826
0
LINE
8
layer1
10
-4.264998
20
-35.2203826
11
-4.3641773
21
-34.9199226
0
LINE
8
layer1
10
-4.3641773
20
-34.9199226
11
-4.5316129
21
-34.3539598
0
LINE
8
layer1
10
-4.5316129
20
-34.3539598
11
-4.6615458
21
-33.835975
0
LINE
8
layer1
10
-4.6615458
20
-33.835975
11
-4.7582083
21
-33.368636
0
LINE
8
layer1
10
-4.7582083
20
-33.368636
11
-4.8263218
21
-32.9522199
0
LINE
8
layer1
10
-4.8263218
20
-32.9522199
11
-4.8701719
21
-32.5895167
0
LINE
8
layer1
10
-4.8701719
20
-32.5895167
11
-4.8945203
21
-32.2800942
0
LINE
8
layer1
10
-4.8945203
20
-32.2800942
11
-4.912178
21
-31.9241591
0
LINE
8
layer1
10
-4.912178
20
-31.9241591
11
-4.9270762
21
-31.8238842
0
LINE
8
layer1
10
-4.9270762
20
-31.8238842
11
-4.9480337
21
-31.7383367
0
LINE
8
layer1
10
-4.9480337
20
-31.7383367
11
-4.9744325
21
-31.6676931
0
LINE
8
layer1
10
-4.9744325
20
-31.6676931
11
-5.0056599
21
-31.6121595
0
LINE
8
layer1
10
-5.0056599
20
-31.6121595
11
-5.0410826
21
-31.5718848
0
LINE
8
layer1
10
-5.0410826
20
-31.5718848
11
-5.0800886
21
-31.5470242
0
LINE
8
layer1
10
-5.0800886
20
-31.5470242
11
-5.1113075
21
-31.5385739
0
LINE
8
layer1
10
-5.1113075
20
-31.5385739
11
-5.8707971
21
-31.4059905
0
LINE
8
layer1
10
-5.8707971
20
-31.4059905
11
-6.6268947
21
-31.2552615
0
LINE
8
layer1
10
-6.6268947
20
-31.2552615
11
-6.659058
21
-31.2518637
0
LINE
8
layer1
10
-6.659058
20
-31.2518637
11
-6.7044107
21
-31.2609549
0
LINE
8
layer1
10
-6.7044107
20
-31.2609549
11
-6.7519903
21
-31.2857138
0
LINE
8
layer1
10
-6.7519903
20
-31.2857138
11
-6.80117
21
-31.3262167
0
LINE
8
layer1
10
-6.80117
20
-31.3262167
11
-6.8513056
21
-31.3825535
0
LINE
8
layer1
10
-6.8513056
20
-31.3825535
11
-6.9017512
21
-31.4547535
0
LINE
8
layer1
10
-6.9017512
20
-31.4547535
11
-6.9518669
21
-31.5428752
0
LINE
8
layer1
10
-6.9518669
20
-31.5428752
11
-7.0969108
21
-31.8683961
0
LINE
8
layer1
10
-7.0969108
20
-31.8683961
11
-7.2313913
21
-32.1481283
0
LINE
8
layer1
10
-7.2313913
20
-32.1481283
11
-7.4033037
21
-32.4704984
0
LINE
8
layer1
10
-7.4033037
20
-32.4704984
11
-7.6172445
21
-32.8341895
0
LINE
8
layer1
10
-7.6172445
20
-32.8341895
11
-7.876202
21
-33.2350516
0
LINE
8
layer1
10
-7.876202
20
-33.2350516
11
-8.1844785
21
-33.6711208
0
LINE
8
layer1
10
-8.1844785
20
-33.6711208
11
-8.5450568
21
-34.1383807
0
LINE
8
layer1
10
-8.5450568
20
-34.1383807
11
-8.7460775
21
-34.3827237
0
LINE
8
layer1
10
-8.7460775
20
-34.3827237
11
-9.1303042
21
-34.8229312
0
ARC
8
layer1
10
0.0000048
20
0.0000132
40
36
50
252.927102
51
255.308189
0
LINE
8
layer1
10
-10.5691699
20
-34.4135386
11
-10.6641066
21
-33.8369973
0
LINE
8
layer1
10
-10.6641066
20
-33.8369973
11
-10.7063879
21
-33.523429
0
LINE
8
layer1
10
-10.7063879
20
-33.523429
11
-10.7669771
21
-32.9363366
0
LINE
8
layer1
10
-10.7669771
20
-32.9363366
11
-10.7995182
21
-32.4032964
0
LINE
8
layer1
10
-10.7995182
20
-32.4032964
11
-10.8086615
21
-31.926153
0
LINE
8
layer1
10
-10.8086615
20
-31.926153
11
-10.799099
21
-31.5043114
0
LINE
8
layer1
10
-10.799099
20
-31.5043114
11
-10.775556
21
-31.1397265
0
LINE
8
layer1
10
-10.775556
20
-31.1397265
11
-10.7426335
21
-30.8310985
0
LINE
8
layer1
10
-10.7426335
20
-30.8310985
11
-10.6945877
21
-30.4779793
0
LINE
8
layer1
10
-10.6945877
20
-30.4779793
11
-10.6908068
21
-30.3766742
0
LINE
8
layer1
10
-10.6908068
20
-30.3766742
11
-10.6956881
21
-30.2887324
0
LINE
8
layer1
10
-10.6956881
20
-30.2887324
11
-10.7086567
21
-30.2144409
0
LINE
8
layer1
10
-10.7086567
20
-30.2144409
11
-10.7291481
21
-30.1541148
0
LINE
8
layer1
10
-10.7291481
20
-30.1541148
11
-10.7565672
21
-30.108017
0
LINE
8
layer1
10
-10.7565672
20
-30.108017
11
-10.790341
21
-30.0764123
0
LINE
8
layer1
10
-10.790341
20
-30.0764123
11
-10.8194755
21
-30.0623694
0
LINE
8
layer1
10
-10.8194755
20
-30.0623694
11
-11.5416712
21
-29.7924877
0
LINE
8
layer1
10
-11.5416712
20
-29.7924877
11
-12.2571985
21
-29.5053926
0
LINE
8
layer1
10
-12.2571985
20
-29.5053926
11
-12.2881898
21
-29.4961426
0
LINE
8
layer1
10
-12.2881898
20
-29.4961426
11
-12.3344408
21
-29.4967455
0
LINE
8
layer1
10
-12.3344408
20
-29.4967455
11
-12.3857596
21
-29.5123401
0
LINE
8
layer1
10
-12.3857596
20
-29.5123401
11
-12.4415444
21
-29.5431166
0
LINE
8
layer1
10
-12.4415444
20
-29.5431166
11
-12.5011782
21
-29.5892818
0
LINE
8
layer1
10
-12.5011782
20
-29.5892818
11
-12.5640316
21
-29.6509831
0
LINE
8
layer1
10
-12.5640316
20
-29.6509831
11
-12.6294862
21
-29.7283956
0
LINE
8
layer1
10
-12.6294862
20
-29.7283956
11
-12.8318748
21
-30.0217221
0
LINE
8
layer1
10
-12.8318748
20
-30.0217221
11
-13.0154662
21
-30.2719807
0
LINE
8
layer1
10
-13.0154662
20
-30.2719807
11
-13.2436869
21
-30.557273
0
LINE
8
layer1
10
-13.2436869
20
-30.557273
11
-13.520813
21
-30.87546
0
LINE
8
layer1
10
-13.520813
20
-30.87546
11
-13.8490194
21
-31.2219134
0
LINE
8
layer1
10
-13.8490194
20
-31.2219134
11
-14.2321744
21
-31.593912
0
LINE
8
layer1
10
-14.2321744
20
-31.593912
11
-14.672472
21
-31.9869599
0
LINE
8
layer1
10
-14.672472
20
-31.9869599
11
-14.9149678
21
-32.190205
0
LINE
8
layer1
10
-14.9149678
20
-32.190205
11
-15.3735403
21
-32.5523156
0
ARC
8
layer1
10
0.0000055
20
0.0000129
40
36
50
242.3388696
51
244.7199566
0
LINE
8
layer1
10
-16.7126808
20
-31.8855028
11
-16.7000619
21
-31.3013337
0
LINE
8
layer1
10
-16.7000619
20
-31.3013337
11
-16.6840052
21
-30.9853353
0
LINE
8
layer1
10
-16.6840052
20
-30.9853353
11
-16.6356848
21
-30.3971061
0
LINE
8
layer1
10
-16.6356848
20
-30.3971061
11
-16.569726
21
-29.8671625
0
LINE
8
layer1
10
-16.569726
20
-29.8671625
11
-16.4910388
21
-29.3964633
0
LINE
8
layer1
10
-16.4910388
20
-29.3964633
11
-16.4041259
21
-28.9835614
0
LINE
8
layer1
10
-16.4041259
20
-28.9835614
11
-16.3139914
21
-28.6295103
0
LINE
8
layer1
10
-16.3139914
20
-28.6295103
11
-16.2249192
21
-28.3321868
0
LINE
8
layer1
10
-16.2249192
20
-28.3321868
11
-16.112806
21
-27.9939085
0
LINE
8
layer1
10
-16.112806
20
-27.9939085
11
-16.0904747
21
-27.895023
0
LINE
8
layer1
10
-16.0904747
20
-27.895023
11
-16.0791137
21
-27.8076816
0
LINE
8
layer1
10
-16.0791137
20
-27.8076816
11
-16.0782104
21
-27.7322721
0
LINE
8
layer1
10
-16.0782104
20
-27.7322721
11
-16.087268
21
-27.6692079
0
LINE
8
layer1
10
-16.087268
20
-27.6692079
11
-16.1057498
21
-27.6188568
0
LINE
8
layer1
10
-16.1057498
20
-27.6188568
11
-16.1331412
21
-27.5815843
0
LINE
8
layer1
10
-16.1331412
20
-27.5815843
11
-16.1591992
21
-27.5624271
0
LINE
8
layer1
10
-16.1591992
20
-27.5624271
11
-16.8195076
21
-27.1644375
0
LINE
8
layer1
10
-16.8195076
20
-27.1644375
11
-17.470098
21
-26.7507529
0
LINE
8
layer1
10
-17.470098
20
-26.7507529
11
-17.498862
21
-26.7359658
0
LINE
8
layer1
10
-17.498862
20
-26.7359658
11
-17.5444363
21
-26.7280598
0
LINE
8
layer1
10
-17.5444363
20
-26.7280598
11
-17.5977468
21
-26.733959
0
LINE
8
layer1
10
-17.5977468
20
-26.733959
11
-17.6582369
21
-26.7539611
0
LINE
8
layer1
10
-17.6582369
20
-26.7539611
11
-17.7253381
21
-26.7883826
0
LINE
8
layer1
10
-17.7253381
20
-26.7883826
11
-17.7984589
21
-26.837484
0
LINE
8
layer1
10
-17.7984589
20
-26.837484
11
-17.8770236
21
-26.9015512
0
LINE
8
layer1
10
-17.8770236
20
-26.9015512
11
-18.1298647
21
-27.1526944
0
LINE
8
layer1
10
-18.1298647
20
-27.1526944
11
-18.356315
21
-27.3649571
0
LINE
8
layer1
10
-18.356315
20
-27.3649571
11
-18.6330721
21
-27.6034563
0
LINE
8
layer1
10
-18.6330721
20
-27.6034563
11
-18.9639463
21
-27.8653037
0
LINE
8
layer1
10
-18.9639463
20
-27.8653037
11
-19.3502251
21
-28.1455503
0
LINE
8
layer1
10
-19.3502251
20
-28.1455503
11
-19.7952107
21
-28.4408105
0
LINE
8
layer1
10
-19.7952107
20
-28.4408105
11
-20.3002337
21
-28.7462614
0
LINE
8
layer1
10
-20.3002337
20
-28.7462614
11
-20.5759468
21
-28.9014874
0
LINE
8
layer1
10
-20.5759468
20
-28.9014874
11
-21.0932488
21
-29.1731699
0
ARC
8
layer1
10
0.000008
20
0.0000116
40
36
50
231.7506339
51
234.1317209
0
LINE
8
layer1
10
-22.2870614
20
-28.2716445
11
-22.1673166
21
-27.6997407
0
LINE
8
layer1
10
-22.1673166
20
-27.6997407
11
-22.0934687
21
-27.3920732
0
LINE
8
layer1
10
-22.0934687
20
-27.3920732
11
-21.9378843
21
-26.8227385
0
LINE
8
layer1
10
-21.9378843
20
-26.8227385
11
-21.7756716
21
-26.3139381
0
LINE
8
layer1
10
-21.7756716
20
-26.3139381
11
-21.6118334
21
-25.8657122
0
LINE
8
layer1
10
-21.6118334
20
-25.8657122
11
-21.4505299
21
-25.475811
0
LINE
8
layer1
10
-21.4505299
20
-25.475811
11
-21.2968734
21
-25.1443504
0
LINE
8
layer1
10
-21.2968734
20
-25.1443504
11
-21.1546848
21
-24.8684564
0
LINE
8
layer1
10
-21.1546848
20
-24.8684564
11
-20.9823221
21
-24.5565386
0
LINE
8
layer1
10
-20.9823221
20
-24.5565386
11
-20.9422008
21
-24.4634403
0
LINE
8
layer1
10
-20.9422008
20
-24.4634403
11
-20.9149843
21
-24.3796736
0
LINE
8
layer1
10
-20.9149843
20
-24.3796736
11
-20.9002399
21
-24.305714
0
LINE
8
layer1
10
-20.9002399
20
-24.305714
11
-20.8975553
21
-24.2420593
0
LINE
8
layer1
10
-20.8975553
20
-24.2420593
11
-20.9064705
21
-24.1891695
0
LINE
8
layer1
10
-20.9064705
20
-24.1891695
11
-20.9265466
21
-24.1474985
0
LINE
8
layer1
10
-20.9265466
20
-24.1474985
11
-20.9486408
21
-24.1238793
0
LINE
8
layer1
10
-20.9486408
20
-24.1238793
11
-21.5245758
21
-23.6113349
0
LINE
8
layer1
10
-21.5245758
20
-23.6113349
11
-22.0880744
21
-23.0851484
0
LINE
8
layer1
10
-22.0880744
20
-23.0851484
11
-22.1136314
21
-23.0653277
0
LINE
8
layer1
10
-22.1136314
20
-23.0653277
11
-22.156977
21
-23.0491821
0
LINE
8
layer1
10
-22.156977
20
-23.0491821
11
-22.2104638
21
-23.0451851
0
LINE
8
layer1
10
-22.2104638
20
-23.0451851
11
-22.2735993
21
-23.0537315
0
LINE
8
layer1
10
-22.2735993
20
-23.0537315
11
-22.3458829
21
-23.0752371
0
LINE
8
layer1
10
-22.3458829
20
-23.0752371
11
-22.4267811
21
-23.1100666
0
LINE
8
layer1
10
-22.4267811
20
-23.1100666
11
-22.5157803
21
-23.1586067
0
LINE
8
layer1
10
-22.5157803
20
-23.1586067
11
-22.8104638
21
-23.3590143
0
LINE
8
layer1
10
-22.8104638
20
-23.3590143
11
-23.0720615
21
-23.5260526
0
LINE
8
layer1
10
-23.0720615
20
-23.5260526
11
-23.3879304
21
-23.709637
0
LINE
8
layer1
10
-23.3879304
20
-23.709637
11
-23.7612852
21
-23.906228
0
LINE
8
layer1
10
-23.7612852
20
-23.906228
11
-24.192482
21
-24.1107243
0
LINE
8
layer1
10
-24.192482
20
-24.1107243
11
-24.6841449
21
-24.3191912
0
LINE
8
layer1
10
-24.6841449
20
-24.3191912
11
-25.2366953
21
-24.5266435
0
LINE
8
layer1
10
-25.2366953
20
-24.5266435
11
-25.5362365
21
-24.6285644
0
LINE
8
layer1
10
-25.5362365
20
-24.6285644
11
-26.0946521
21
-24.800567
0
ARC
8
layer1
10
0.0000101
20
0.0000097
40
36
50
221.1623983
51
223.5434853
0
LINE
8
layer1
10
-27.1024829
20
-23.6950293
11
-26.8796899
21
-23.1548662
0
LINE
8
layer1
10
-26.8796899
20
-23.1548662
11
-26.7505657
21
-22.8660069
0
LINE
8
layer1
10
-26.7505657
20
-22.8660069
11
-26.4930154
21
-22.3349548
0
LINE
8
layer1
10
-26.4930154
20
-22.3349548
11
-26.2400728
21
-21.8646242
0
LINE
8
layer1
10
-26.2400728
20
-21.8646242
11
-25.996663
21
-21.4541353
0
LINE
8
layer1
10
-25.996663
20
-21.4541353
11
-25.7664618
21
-21.1005123
0
LINE
8
layer1
10
-25.7664618
20
-21.1005123
11
-25.5545159
21
-20.8029299
0
LINE
8
layer1
10
-25.5545159
20
-20.8029299
11
-25.364053
21
-20.5578605
0
LINE
8
layer1
10
-25.364053
20
-20.5578605
11
-25.1373103
21
-20.2829253
0
LINE
8
layer1
10
-25.1373103
20
-20.2829253
11
-25.0807654
21
-20.1987844
0
LINE
8
layer1
10
-25.0807654
20
-20.1987844
11
-25.0386202
21
-20.1214451
0
LINE
8
layer1
10
-25.0386202
20
-20.1214451
11
-25.0105368
21
-20.0514541
0
LINE
8
layer1
10
-25.0105368
20
-20.0514541
11
-24.9962015
21
-19.9893765
0
LINE
8
layer1
10
-24.9962015
20
-19.9893765
11
-24.9952463
21
-19.935749
0
LINE
8
layer1
10
-24.9952463
20
-19.935749
11
-25.0073236
21
-19.8910986
0
LINE
8
layer1
10
-25.0073236
20
-19.8910986
11
-25.0247016
21
-19.8638218
0
LINE
8
layer1
10
-25.0247016
20
-19.8638218
11
-25.4966504
21
-19.2541766
0
LINE
8
layer1
10
-25.4966504
20
-19.2541766
11
-25.9538678
21
-18.6334069
0
LINE
8
layer1
10
-25.9538678
20
-18.6334069
11
-25.9753477
21
-18.6092276
0
LINE
8
layer1
10
-25.9753477
20
-18.6092276
11
-26.0149885
21
-18.5853922
0
LINE
8
layer1
10
-26.0149885
20
-18.5853922
11
-26.0668301
21
-18.571635
0
LINE
8
layer1
10
-26.0668301
20
-18.571635
11
-26.130461
21
-18.5684348
0
LINE
8
layer1
10
-26.130461
20
-18.5684348
11
-26.2054655
21
-18.5762922
0
LINE
8
layer1
10
-26.2054655
20
-18.5762922
11
-26.2913861
21
-18.5956636
0
LINE
8
layer1
10
-26.2913861
20
-18.5956636
11
-26.3877892
21
-18.6270236
0
LINE
8
layer1
10
-26.3877892
20
-18.6270236
11
-26.71428
21
-18.769871
0
LINE
8
layer1
10
-26.71428
20
-18.769871
11
-27.0021166
21
-18.8859967
0
LINE
8
layer1
10
-27.0021166
20
-18.8859967
11
-27.3463408
21
-19.0084144
0
LINE
8
layer1
10
-27.3463408
20
-19.0084144
11
-27.749462
21
-19.1330543
0
LINE
8
layer1
10
-27.749462
20
-19.1330543
11
-28.210893
21
-19.2548365
0
LINE
8
layer1
10
-28.210893
20
-19.2548365
11
-28.73249
21
-19.369411
0
LINE
8
layer1
10
-28.73249
20
-19.369411
11
-29.3137516
21
-19.4718002
0
LINE
8
layer1
10
-29.3137516
20
-19.4718002
11
-29.6269204
21
-19.5169451
0
LINE
8
layer1
10
-29.6269204
20
-19.5169451
11
-30.2074333
21
-19.5834105
0
ARC
8
layer1
10
0.0000126
20
0.0000063
40
36
50
210.5741603
51
212.9552474
0
LINE
8
layer1
10
-30.9949618
20
-18.3115082
11
-30.6767076
21
-17.8214806
0
LINE
8
layer1
10
-30.6767076
20
-17.8214806
11
-30.4967042
21
-17.5612661
0
LINE
8
layer1
10
-30.4967042
20
-17.5612661
11
-30.1459586
21
-17.0865809
0
LINE
8
layer1
10
-30.1459586
20
-17.0865809
11
-29.8108999
21
-16.6707367
0
LINE
8
layer1
10
-29.8108999
20
-16.6707367
11
-29.4962075
21
-16.3119636
0
LINE
8
layer1
10
-29.4962075
20
-16.3119636
11
-29.2049478
21
-16.0066611
0
LINE
8
layer1
10
-29.2049478
20
-16.0066611
11
-28.94193
21
-15.7530905
0
LINE
8
layer1
10
-28.94193
20
-15.7530905
11
-28.7096787
21
-15.5471914
0
LINE
8
layer1
10
-28.7096787
20
-15.5471914
11
-28.4362776
21
-15.3186014
0
LINE
8
layer1
10
-28.4362776
20
-15.3186014
11
-28.3652346
21
-15.2462832
0
LINE
8
layer1
10
-28.3652346
20
-15.2462832
11
-28.3095959
21
-15.1780048
0
LINE
8
layer1
10
-28.3095959
20
-15.1780048
11
-28.2691299
21
-15.1143659
0
LINE
8
layer1
10
-28.2691299
20
-15.1143659
11
-28.2436319
21
-15.0559794
0
LINE
8
layer1
10
-28.2436319
20
-15.0559794
11
-28.232839
21
-15.0034406
0
LINE
8
layer1
10
-28.232839
20
-15.0034406
11
-28.2365062
21
-14.9573312
0
LINE
8
layer1
10
-28.2365062
20
-14.9573312
11
-28.2485762
21
-14.9273256
0
LINE
8
layer1
10
-28.2485762
20
-14.9273256
11
-28.6004672
21
-14.2413405
0
LINE
8
layer1
10
-28.6004672
20
-14.2413405
11
-28.9358334
21
-13.547127
0
LINE
8
layer1
10
-28.9358334
20
-13.547127
11
-28.9525046
21
-13.5194125
0
LINE
8
layer1
10
-28.9525046
20
-13.5194125
11
-28.9870907
21
-13.4886989
0
LINE
8
layer1
10
-28.9870907
20
-13.4886989
11
-29.0355218
21
-13.4656502
0
LINE
8
layer1
10
-29.0355218
20
-13.4656502
11
-29.0974812
21
-13.4508123
0
LINE
8
layer1
10
-29.0974812
20
-13.4508123
11
-29.1726524
21
-13.4447538
0
LINE
8
layer1
10
-29.1726524
20
-13.4447538
11
-29.2606695
21
-13.4480076
0
LINE
8
layer1
10
-29.2606695
20
-13.4480076
11
-29.3611936
21
-13.4611196
0
LINE
8
layer1
10
-29.3611936
20
-13.4611196
11
-29.7083733
21
-13.5415422
0
LINE
8
layer1
10
-29.7083733
20
-13.5415422
11
-30.0126471
21
-13.6028008
0
LINE
8
layer1
10
-30.0126471
20
-13.6028008
11
-30.3735044
21
-13.6598831
0
LINE
8
layer1
10
-30.3735044
20
-13.6598831
11
-30.7926642
21
-13.7083275
0
LINE
8
layer1
10
-30.7926642
20
-13.7083275
11
-31.2686159
21
-13.7432483
0
LINE
8
layer1
10
-31.2686159
20
-13.7432483
11
-31.8023847
21
-13.7600288
0
LINE
8
layer1
10
-31.8023847
20
-13.7600288
11
-32.3925632
21
-13.7538681
0
LINE
8
layer1
10
-32.3925632
20
-13.7538681
11
-32.7086951
21
-13.7406997
0
LINE
8
layer1
10
-32.7086951
20
-13.7406997
11
-33.2915365
21
-13.6993644
0
ARC
8
layer1
10
0.0000135
20
0.0000042
40
36
50
199.9859256
51
202.3670126
0
LINE
8
layer1
10
-33.8319445
20
-12.3044107
11
-33.4290668
21
-11.8812058
0
LINE
8
layer1
10
-33.4290668
20
-11.8812058
11
-33.204314
21
-11.6584975
0
LINE
8
layer1
10
-33.204314
20
-11.6584975
11
-32.7723174
21
-11.2563441
0
LINE
8
layer1
10
-32.7723174
20
-11.2563441
11
-32.3665525
21
-10.9091472
0
LINE
8
layer1
10
-32.3665525
20
-10.9091472
11
-31.9912939
21
-10.6143075
0
LINE
8
layer1
10
-31.9912939
20
-10.6143075
11
-31.6488943
21
-10.3677222
0
LINE
8
layer1
10
-31.6488943
20
-10.3677222
11
-31.3437615
21
-10.1667985
0
LINE
8
layer1
10
-31.3437615
20
-10.1667985
11
-31.0776308
21
-10.0070813
0
LINE
8
layer1
10
-31.0776308
20
-10.0070813
11
-30.7668815
21
-9.8326208
0
LINE
8
layer1
10
-30.7668815
20
-9.8326208
11
-30.6837598
21
-9.7745881
0
LINE
8
layer1
10
-30.6837598
20
-9.7745881
11
-30.6165223
21
-9.7176958
0
LINE
8
layer1
10
-30.6165223
20
-9.7176958
11
-30.5650517
21
-9.6625761
0
LINE
8
layer1
10
-30.5650517
20
-9.6625761
11
-30.5292594
21
-9.609869
0
LINE
8
layer1
10
-30.5292594
20
-9.609869
11
-30.5089962
21
-9.5602079
0
LINE
8
layer1
10
-30.5089962
20
-9.5602079
11
-30.5041284
21
-9.5142098
0
LINE
8
layer1
10
-30.5041284
20
-9.5142098
11
-30.5104794
21
-9.4824972
0
LINE
8
layer1
10
-30.5104794
20
-9.4824972
11
-30.7303293
21
-8.7435325
0
LINE
8
layer1
10
-30.7303293
20
-8.7435325
11
-30.9324239
21
-7.999516
0
LINE
8
layer1
10
-30.9324239
20
-7.999516
11
-30.9437187
21
-7.9692101
0
LINE
8
layer1
10
-30.9437187
20
-7.9692101
11
-30.9720723
21
-7.9326643
0
LINE
8
layer1
10
-30.9720723
20
-7.9326643
11
-31.0154436
21
-7.9011088
0
LINE
8
layer1
10
-31.0154436
20
-7.9011088
11
-31.0736216
21
-7.8751385
0
LINE
8
layer1
10
-31.0736216
20
-7.8751385
11
-31.1463996
21
-7.8553706
0
LINE
8
layer1
10
-31.1463996
20
-7.8553706
11
-31.2335159
21
-7.8423958
0
LINE
8
layer1
10
-31.2335159
20
-7.8423958
11
-31.3347377
21
-7.8368133
0
LINE
8
layer1
10
-31.3347377
20
-7.8368133
11
-31.6907837
21
-7.8520724
0
LINE
8
layer1
10
-31.6907837
20
-7.8520724
11
-32.0011328
21
-7.8563779
0
LINE
8
layer1
10
-32.0011328
20
-7.8563779
11
-32.3663347
21
-7.8461808
0
LINE
8
layer1
10
-32.3663347
20
-7.8461808
11
-32.7872592
21
-7.8167799
0
LINE
8
layer1
10
-32.7872592
20
-7.8167799
11
-33.2615235
21
-7.7636503
0
LINE
8
layer1
10
-33.2615235
20
-7.7636503
11
-33.7892873
21
-7.6820653
0
LINE
8
layer1
10
-33.7892873
20
-7.6820653
11
-34.3682848
21
-7.5675645
0
LINE
8
layer1
10
-34.3682848
20
-7.5675645
11
-34.6766143
21
-7.4965312
0
LINE
8
layer1
10
-34.6766143
20
-7.4965312
11
-35.2419365
21
-7.3488029
0
ARC
8
layer1
10
0.0000138
20
0.0000024
40
36
50
189.3976914
51
191.7787785
0
LINE
8
layer1
10
-35.5168209
20
-5.8783012
11
-35.0430393
21
-5.5363308
0
LINE
8
layer1
10
-35.0430393
20
-5.5363308
11
-34.7811908
21
-5.3587127
0
LINE
8
layer1
10
-34.7811908
20
-5.3587127
11
-34.2826542
21
-5.0427859
0
LINE
8
layer1
10
-34.2826542
20
-5.0427859
11
-33.820001
21
-4.7760598
0
LINE
8
layer1
10
-33.820001
20
-4.7760598
11
-33.3969553
21
-4.5551939
0
LINE
8
layer1
10
-33.3969553
20
-4.5551939
11
-33.0150757
21
-4.3757229
0
LINE
8
layer1
10
-33.0150757
20
-4.3757229
11
-32.6782187
21
-4.2342884
0
LINE
8
layer1
10
-32.6782187
20
-4.2342884
11
-32.3872714
21
-4.126192
0
LINE
8
layer1
10
-32.3872714
20
-4.126192
11
-32.0497562
21
-4.0118021
0
LINE
8
layer1
10
-32.0497562
20
-4.0118021
11
-31.9573863
21
-3.9700311
0
LINE
8
layer1
10
-31.9573863
20
-3.9700311
11
-31.8808398
21
-3.9264624
0
LINE
8
layer1
10
-31.8808398
20
-3.9264624
11
-31.8201173
21
-3.8817388
0
LINE
8
layer1
10
-31.8201173
20
-3.8817388
11
-31.7752495
21
-3.836506
0
LINE
8
layer1
10
-31.7752495
20
-3.836506
11
-31.7462062
21
-3.7914139
0
LINE
8
layer1
10
-31.7462062
20
-3.7914139
11
-31.7329691
21
-3.7470934
0
LINE
8
layer1
10
-31.7329691
20
-3.7470934
11
-31.7333848
21
-3.7147538
0
LINE
8
layer1
10
-31.7333848
20
-3.7147538
11
-31.8137069
21
-2.9479741
0
LINE
8
layer1
10
-31.8137069
20
-2.9479741
11
-31.8756478
21
-2.1794911
0
LINE
8
layer1
10
-31.8756478
20
-2.1794911
11
-31.8811816
21
-2.1476257
0
LINE
8
layer1
10
-31.8811816
20
-2.1476257
11
-31.9023372
21
-2.1064922
0
LINE
8
layer1
10
-31.9023372
20
-2.1064922
11
-31.9391716
21
-2.0675046
0
LINE
8
layer1
10
-31.9391716
20
-2.0675046
11
-31.991587
21
-2.0312864
0
LINE
8
layer1
10
-31.991587
20
-2.0312864
11
-32.0594935
21
-1.998482
0
LINE
8
layer1
10
-32.0594935
20
-1.998482
11
-32.1427424
21
-1.9697206
0
LINE
8
layer1
10
-32.1427424
20
-1.9697206
11
-32.2412149
21
-1.9456337
0
LINE
8
layer1
10
-32.2412149
20
-1.9456337
11
-32.5940024
21
-1.8952098
0
LINE
8
layer1
10
-32.5940024
20
-1.8952098
11
-32.8998584
21
-1.8424154
0
LINE
8
layer1
10
-32.8998584
20
-1.8424154
11
-33.2569683
21
-1.7652863
0
LINE
8
layer1
10
-33.2569683
20
-1.7652863
11
-33.6653233
21
-1.6590413
0
LINE
8
layer1
10
-33.6653233
20
-1.6590413
11
-34.1217499
21
-1.5196705
0
LINE
8
layer1
10
-34.1217499
20
-1.5196705
11
-34.6255363
21
-1.3424983
0
LINE
8
layer1
10
-34.6255363
20
-1.3424983
11
-35.1736358
21
-1.1235566
0
LINE
8
layer1
10
-35.1736358
20
-1.1235566
11
-35.463663
21
-0.9970774
0
LINE
8
layer1
10
-35.463663
20
-0.9970774
11
-35.9922145
21
-0.7479867
0
ARC
8
layer1
10
0.000014
20
0
40
36
50
178.8094565
51
181.1905435
0
LINE
8
layer1
10
-35.9922145
20
0.7479867
11
-35.463663
21
0.9970774
0
LINE
8
layer1
10
-35.463663
20
0.9970774
11
-35.1736358
21
1.1235566
0
LINE
8
layer1
10
-35.1736358
20
1.1235566
11
-34.6255363
21
1.3424983
0
LINE
8
layer1
10
-34.6255363
20
1.3424983
11
-34.1217499
21
1.5196705
0
LINE
8
layer1
10
-34.1217499
20
1.5196705
11
-33.6653233
21
1.6590413
0
LINE
8
layer1
10
-33.6653233
20
1.6590413
11
-33.2569683
21
1.7652863
0
LINE
8
layer1
10
-33.2569683
20
1.7652863
11
-32.8998584
21
1.8424154
0
LINE
8
layer1
10
-32.8998584
20
1.8424154
11
-32.5940024
21
1.8952098
0
LINE
8
layer1
10
-32.5940024
20
1.8952098
11
-32.2412149
21
1.9456337
0
LINE
8
layer1
10
-32.2412149
20
1.9456337
11
-32.1427424
21
1.9697206
0
LINE
8
layer1
10
-32.1427424
20
1.9697206
11
-32.0594935
21
1.998482
0
LINE
8
layer1
10
-32.0594935
20
1.998482
11
-31.991587
21
2.0312864
0
LINE
8
layer1
10
-31.991587
20
2.0312864
11
-31.9391716
21
2.0675046
0
LINE
8
layer1
10
-31.9391716
20
2.0675046
11
-31.9023372
21
2.1064922
0
LINE
8
layer1
10
-31.9023372
20
2.1064922
11
-31.8811816
21
2.1476257
0
LINE
8
layer1
10
-31.8811816
20
2.1476257
11
-31.8756478
21
2.1794911
0
LINE
8
layer1
10
-31.8756478
20
2.1794911
11
-31.8137069
21
2.9479741
0
LINE
8
layer1
10
-31.8137069
20
2.9479741
11
-31.7333848
21
3.7147538
0
LINE
8
layer1
10
-31.7333848
20
3.7147538
11
-31.7329691
21
3.7470934
0
LINE
8
layer1
10
-31.7329691
20
3.7470934
11
-31.7462062
21
3.7914139
0
LINE
8
layer1
10
-31.7462062
20
3.7914139
11
-31.7752495
21
3.836506
0
LINE
8
layer1
10
-31.7752495
20
3.836506
11
-31.8201173
21
3.8817388
0
LINE
8
layer1
10
-31.8201173
20
3.8817388
11
-31.8808398
21
3.9264624
0
LINE
8
layer1
10
-31.8808398
20
3.9264624
11
-31.9573863
21
3.9700311
0
LINE
8
layer1
10
-31.9573863
20
3.9700311
11
-32.0497562
21
4.0118021
0
LINE
8
layer1
10
-32.0497562
20
4.0118021
11
-32.3872714
21
4.126192
0
LINE
8
layer1
10
-32.3872714
20
4.126192
11
-32.6782187
21
4.2342884
0
LINE
8
layer1
10
-32.6782187
20
4.2342884
11
-33.0150757
21
4.3757229
0
LINE
8
layer1
10
-33.0150757
20
4.3757229
11
-33.3969553
21
4.5551939
0
LINE
8
layer1
10
-33.3969553
20
4.5551939
11
-33.820001
21
4.7760598
0
LINE
8
layer1
10
-33.820001
20
4.7760598
11
-34.2826542
21
5.0427859
0
LINE
8
layer1
10
-34.2826542
20
5.0427859
11
-34.7811908
21
5.3587127
0
LINE
8
layer1
10
-34.7811908
20
5.3587127
11
-35.0430393
21
5.5363308
0
LINE
8
layer1
10
-35.0430393
20
5.5363308
11
-35.5168209
21
5.8783012
0
ARC
8
layer1
10
0.0000138
20
-0.0000024
40
36
50
168.2212215
51
170.6023086
0
LINE
8
layer1
10
-35.2419365
20
7.3488029
11
-34.6766143
21
7.4965312
0
LINE
8
layer1
10
-34.6766143
20
7.4965312
11
-34.3682848
21
7.5675645
0
LINE
8
layer1
10
-34.3682848
20
7.5675645
11
-33.7892873
21
7.6820653
0
LINE
8
layer1
10
-33.7892873
20
7.6820653
11
-33.2615235
21
7.7636503
0
LINE
8
layer1
10
-33.2615235
20
7.7636503
11
-32.7872592
21
7.8167799
0
LINE
8
layer1
10
-32.7872592
20
7.8167799
11
-32.3663347
21
7.8461808
0
LINE
8
layer1
10
-32.3663347
20
7.8461808
11
-32.0011328
21
7.8563779
0
LINE
8
layer1
10
-32.0011328
20
7.8563779
11
-31.6907837
21
7.8520724
0
LINE
8
layer1
10
-31.6907837
20
7.8520724
11
-31.3347377
21
7.8368133
0
LINE
8
layer1
10
-31.3347377
20
7.8368133
11
-31.2335159
21
7.8423958
0
LINE
8
layer1
10
-31.2335159
20
7.8423958
11
-31.1463996
21
7.8553706
0
LINE
8
layer1
10
-31.1463996
20
7.8553706
11
-31.0736216
21
7.8751385
0
LINE
8
layer1
10
-31.0736216
20
7.8751385
11
-31.0154436
21
7.9011088
0
LINE
8
layer1
10
-31.0154436
20
7.9011088
11
-30.9720723
21
7.9326643
0
LINE
8
layer1
10
-30.9720723
20
7.9326643
11
-30.9437187
21
7.9692101
0
LINE
8
layer1
10
-30.9437187
20
7.9692101
11
-30.9324239
21
7.999516
0
LINE
8
layer1
10
-30.9324239
20
7.999516
11
-30.7303293
21
8.7435325
0
LINE
8
layer1
10
-30.7303293
20
8.7435325
11
-30.5104794
21
9.4824972
0
LINE
8
layer1
10
-30.5104794
20
9.4824972
11
-30.5041284
21
9.5142098
0
LINE
8
layer1
10
-30.5041284
20
9.5142098
11
-30.5089962
21
9.5602079
0
LINE
8
layer1
10
-30.5089962
20
9.5602079
11
-30.5292594
21
9.609869
0
LINE
8
layer1
10
-30.5292594
20
9.609869
11
-30.5650517
21
9.6625761
0
LINE
8
layer1
10
-30.5650517
20
9.6625761
11
-30.6165223
21
9.7176958
0
LINE
8
layer1
10
-30.6165223
20
9.7176958
11
-30.6837598
21
9.7745881
0
LINE
8
layer1
10
-30.6837598
20
9.7745881
11
-30.7668815
21
9.8326208
0
LINE
8
layer1
10
-30.7668815
20
9.8326208
11
-31.0776308
21
10.0070813
0
LINE
8
layer1
10
-31.0776308
20
10.0070813
11
-31.3437615
21
10.1667985
0
LINE
8
layer1
10
-31.3437615
20
10.1667985
11
-31.6488943
21
10.3677222
0
LINE
8
layer1
10
-31.6488943
20
10.3677222
11
-31.9912939
21
10.6143075
0
LINE
8
layer1
10
-31.9912939
20
10.6143075
11
-32.3665525
21
10.9091472
0
LINE
8
layer1
10
-32.3665525
20
10.9091472
11
-32.7723174
21
11.2563441
0
LINE
8
layer1
10
-32.7723174
20
11.2563441
11
-33.204314
21
11.6584975
0
LINE
8
layer1
10
-33.204314
20
11.6584975
11
-33.4290668
21
11.8812058
0
LINE
8
layer1
10
-33.4290668
20
11.8812058
11
-33.8319445
21
12.3044107
0
ARC
8
layer1
10
0.0000134
20
-0.0000042
40
36
50
157.6329874
51
160.0140744
0
LINE
8
layer1
10
-33.2915365
20
13.6993644
11
-32.7086951
21
13.7406997
0
LINE
8
layer1
10
-32.7086951
20
13.7406997
11
-32.3925632
21
13.7538681
0
LINE
8
layer1
10
-32.3925632
20
13.7538681
11
-31.8023847
21
13.7600288
0
LINE
8
layer1
10
-31.8023847
20
13.7600288
11
-31.2686159
21
13.7432483
0
LINE
8
layer1
10
-31.2686159
20
13.7432483
11
-30.7926642
21
13.7083275
0
LINE
8
layer1
10
-30.7926642
20
13.7083275
11
-30.3735044
21
13.6598831
0
LINE
8
layer1
10
-30.3735044
20
13.6598831
11
-30.0126471
21
13.6028008
0
LINE
8
layer1
10
-30.0126471
20
13.6028008
11
-29.7083733
21
13.5415422
0
LINE
8
layer1
10
-29.7083733
20
13.5415422
11
-29.3611936
21
13.4611196
0
LINE
8
layer1
10
-29.3611936
20
13.4611196
11
-29.2606695
21
13.4480076
0
LINE
8
layer1
10
-29.2606695
20
13.4480076
11
-29.1726524
21
13.4447538
0
LINE
8
layer1
10
-29.1726524
20
13.4447538
11
-29.0974812
21
13.4508123
0
LINE
8
layer1
10
-29.0974812
20
13.4508123
11
-29.0355218
21
13.4656502
0
LINE
8
layer1
10
-29.0355218
20
13.4656502
11
-28.9870907
21
13.4886989
0
LINE
8
layer1
10
-28.9870907
20
13.4886989
11
-28.9525046
21
13.5194125
0
LINE
8
layer1
10
-28.9525046
20
13.5194125
11
-28.9358334
21
13.547127
0
LINE
8
layer1
10
-28.9358334
20
13.547127
11
-28.6004672
21
14.2413405
0
LINE
8
layer1
10
-28.6004672
20
14.2413405
11
-28.2485762
21
14.9273256
0
LINE
8
layer1
10
-28.2485762
20
14.9273256
11
-28.2365062
21
14.9573312
0
LINE
8
layer1
10
-28.2365062
20
14.9573312
11
-28.232839
21
15.0034406
0
LINE
8
layer1
10
-28.232839
20
15.0034406
11
-28.2436319
21
15.0559794
0
LINE
8
layer1
10
-28.2436319
20
15.0559794
11
-28.2691299
21
15.1143659
0
LINE
8
layer1
10
-28.2691299
20
15.1143659
11
-28.3095959
21
15.1780048
0
LINE
8
layer1
10
-28.3095959
20
15.1780048
11
-28.3652346
21
15.2462832
0
LINE
8
layer1
10
-28.3652346
20
15.2462832
11
-28.4362776
21
15.3186014
0
LINE
8
layer1
10
-28.4362776
20
15.3186014
11
-28.7096787
21
15.5471914
0
LINE
8
layer1
10
-28.7096787
20
15.5471914
11
-28.94193
21
15.7530905
0
LINE
8
layer1
10
-28.94193
20
15.7530905
11
-29.2049478
21
16.0066611
0
LINE
8
layer1
10
-29.2049478
20
16.0066611
11
-29.4962075
21
16.3119636
0
LINE
8
layer1
10
-29.4962075
20
16.3119636
11
-29.8108999
21
16.6707367
0
LINE
8
layer1
10
-29.8108999
20
16.6707367
11
-30.1459586
21
17.0865809
0
LINE
8
layer1
10
-30.1459586
20
17.0865809
11
-30.4967042
21
17.5612661
0
LINE
8
layer1
10
-30.4967042
20
17.5612661
11
-30.6767076
21
17.8214806
0
LINE
8
layer1
10
-30.6767076
20
17.8214806
11
-30.9949618
21
18.3115082
0
ARC
8
layer1
10
0.0000126
20
-0.0000063
40
36
50
147.0447526
51
149.4258397
0
LINE
8
layer1
10
-30.2074333
20
19.5834105
11
-29.6269204
21
19.5169451
0
LINE
8
layer1
10
-29.6269204
20
19.5169451
11
-29.3137516
21
19.4718002
0
LINE
8
layer1
10
-29.3137516
20
19.4718002
11
-28.73249
21
19.369411
0
LINE
8
layer1
10
-28.73249
20
19.369411
11
-28.210893
21
19.2548365
0
LINE
8
layer1
10
-28.210893
20
19.2548365
11
-27.749462
21
19.1330543
0
LINE
8
layer1
10
-27.749462
20
19.1330543
11
-27.3463408
21
19.0084144
0
LINE
8
layer1
10
-27.3463408
20
19.0084144
11
-27.0021166
21
18.8859967
0
LINE
8
layer1
10
-27.0021166
20
18.8859967
11
-26.71428
21
18.769871
0
LINE
8
layer1
10
-26.71428
20
18.769871
11
-26.3877892
21
18.6270236
0
LINE
8
layer1
10
-26.3877892
20
18.6270236
11
-26.2913861
21
18.5956636
0
LINE
8
layer1
10
-26.2913861
20
18.5956636
11
-26.2054655
21
18.5762922
0
LINE
8
layer1
10
-26.2054655
20
18.5762922
11
-26.130461
21
18.5684348
0
LINE
8
layer1
10
-26.130461
20
18.5684348
11
-26.0668301
21
18.571635
0
LINE
8
layer1
10
-26.0668301
20
18.571635
11
-26.0149885
21
18.5853922
0
LINE
8
layer1
10
-26.0149885
20
18.5853922
11
-25.9753477
21
18.6092276
0
LINE
8
layer1
10
-25.9753477
20
18.6092276
11
-25.9538678
21
18.6334069
0
LINE
8
layer1
10
-25.9538678
20
18.6334069
11
-25.4966504
21
19.2541766
0
LINE
8
layer1
10
-25.4966504
20
19.2541766
11
-25.0247016
21
19.8638218
0
LINE
8
layer1
10
-25.0247016
20
19.8638218
11
-25.0073236
21
19.8910986
0
LINE
8
layer1
10
-25.0073236
20
19.8910986
11
-24.9952463
21
19.935749
0
LINE
8
layer1
10
-24.9952463
20
19.935749
11
-24.9962015
21
19.9893765
0
LINE
8
layer1
10
-24.9962015
20
19.9893765
11
-25.0105368
21
20.0514541
0
LINE
8
layer1
10
-25.0105368
20
20.0514541
11
-25.0386202
21
20.1214451
0
LINE
8
layer1
10
-25.0386202
20
20.1214451
11
-25.0807654
21
20.1987844
0
LINE
8
layer1
10
-25.0807654
20
20.1987844
11
-25.1373103
21
20.2829253
0
LINE
8
layer1
10
-25.1373103
20
20.2829253
11
-25.364053
21
20.5578605
0
LINE
8
layer1
10
-25.364053
20
20.5578605
11
-25.5545159
21
20.8029299
0
LINE
8
layer1
10
-25.5545159
20
20.8029299
11
-25.7664618
21
21.1005123
0
LINE
8
layer1
10
-25.7664618
20
21.1005123
11
-25.996663
21
21.4541353
0
LINE
8
layer1
10
-25.996663
20
21.4541353
11
-26.2400728
21
21.8646242
0
LINE
8
layer1
10
-26.2400728
20
21.8646242
11
-26.4930154
21
22.3349548
0
LINE
8
layer1
10
-26.4930154
20
22.3349548
11
-26.7505657
21
22.8660069
0
LINE
8
layer1
10
-26.7505657
20
22.8660069
11
-26.8796899
21
23.1548662
0
LINE
8
layer1
10
-26.8796899
20
23.1548662
11
-27.1024829
21
23.6950293
0
ARC
8
layer1
10
0.0000101
20
-0.0000097
40
36
50
136.4565147
51
138.8376017
0
LINE
8
layer1
10
-26.0946521
20
24.800567
11
-25.5362365
21
24.6285644
0
LINE
8
layer1
10
-25.5362365
20
24.6285644
11
-25.2366953
21
24.5266435
0
LINE
8
layer1
10
-25.2366953
20
24.5266435
11
-24.6841449
21
24.3191912
0
LINE
8
layer1
10
-24.6841449
20
24.3191912
11
-24.192482
21
24.1107243
0
LINE
8
layer1
10
-24.192482
20
24.1107243
11
-23.7612852
21
23.906228
0
LINE
8
layer1
10
-23.7612852
20
23.906228
11
-23.3879304
21
23.709637
0
LINE
8
layer1
10
-23.3879304
20
23.709637
11
-23.0720615
21
23.5260526
0
LINE
8
layer1
10
-23.0720615
20
23.5260526
11
-22.8104638
21
23.3590143
0
LINE
8
layer1
10
-22.8104638
20
23.3590143
11
-22.5157803
21
23.1586067
0
LINE
8
layer1
10
-22.5157803
20
23.1586067
11
-22.4267811
21
23.1100666
0
LINE
8
layer1
10
-22.4267811
20
23.1100666
11
-22.3458829
21
23.0752371
0
LINE
8
layer1
10
-22.3458829
20
23.0752371
11
-22.2735993
21
23.0537315
0
LINE
8
layer1
10
-22.2735993
20
23.0537315
11
-22.2104638
21
23.0451851
0
LINE
8
layer1
10
-22.2104638
20
23.0451851
11
-22.156977
21
23.0491821
0
LINE
8
layer1
10
-22.156977
20
23.0491821
11
-22.1136314
21
23.0653277
0
LINE
8
layer1
10
-22.1136314
20
23.0653277
11
-22.0880744
21
23.0851484
0
LINE
8
layer1
10
-22.0880744
20
23.0851484
11
-21.5245758
21
23.6113349
0
LINE
8
layer1
10
-21.5245758
20
23.6113349
11
-20.9486408
21
24.1238793
0
LINE
8
layer1
10
-20.9486408
20
24.1238793
11
-20.9265466
21
24.1474985
0
LINE
8
layer1
10
-20.9265466
20
24.1474985
11
-20.9064705
21
24.1891695
0
LINE
8
layer1
10
-20.9064705
20
24.1891695
11
-20.8975553
21
24.2420593
0
LINE
8
layer1
10
-20.8975553
20
24.2420593
11
-20.9002399
21
24.305714
0
LINE
8
layer1
10
-20.9002399
20
24.305714
11
-20.9149843
21
24.3796736
0
LINE
8
layer1
10
-20.9149843
20
24.3796736
11
-20.9422008
21
24.4634403
0
LINE
8
layer1
10
-20.9422008
20
24.4634403
11
-20.9823221
21
24.5565386
0
LINE
8
layer1
10
-20.9823221
20
24.5565386
11
-21.1546848
21
24.8684564
0
LINE
8
layer1
10
-21.1546848
20
24.8684564
11
-21.2968734
21
25.1443504
0
LINE
8
layer1
10
-21.2968734
20
25.1443504
11
-21.4505299
21
25.475811
0
LINE
8
layer1
10
-21.4505299
20
25.475811
11
-21.6118334
21
25.8657122
0
LINE
8
layer1
10
-21.6118334
20
25.8657122
11
-21.7756716
21
26.3139381
0
LINE
8
layer1
10
-21.7756716
20
26.3139381
11
-21.9378843
21
26.8227385
0
LINE
8
layer1
10
-21.9378843
20
26.8227385
11
-22.0934687
21
27.3920732
0
LINE
8
layer1
10
-22.0934687
20
27.3920732
11
-22.1673166
21
27.6997407
0
LINE
8
layer1
10
-22.1673166
20
27.6997407
11
-22.2870614
21
28.2716445
0
ARC
8
layer1
10
0.0000081
20
-0.0000115
40
36
50
125.8682793
51
128.2493663
0
LINE
8
layer1
10
-21.0932488
20
29.1731699
11
-20.5759468
21
28.9014874
0
LINE
8
layer1
10
-20.5759468
20
28.9014874
11
-20.3002337
21
28.7462614
0
LINE
8
layer1
10
-20.3002337
20
28.7462614
11
-19.7952107
21
28.4408105
0
LINE
8
layer1
10
-19.7952107
20
28.4408105
11
-19.3502251
21
28.1455503
0
LINE
8
layer1
10
-19.3502251
20
28.1455503
11
-18.9639463
21
27.8653037
0
LINE
8
layer1
10
-18.9639463
20
27.8653037
11
-18.6330721
21
27.6034563
0
LINE
8
layer1
10
-18.6330721
20
27.6034563
11
-18.356315
21
27.3649571
0
LINE
8
layer1
10
-18.356315
20
27.3649571
11
-18.1298647
21
27.1526944
0
LINE
8
layer1
10
-18.1298647
20
27.1526944
11
-17.8770236
21
26.9015512
0
LINE
8
layer1
10
-17.8770236
20
26.9015512
11
-17.7984589
21
26.837484
0
LINE
8
layer1
10
-17.7984589
20
26.837484
11
-17.7253381
21
26.7883826
0
LINE
8
layer1
10
-17.7253381
20
26.7883826
11
-17.6582369
21
26.7539611
0
LINE
8
layer1
10
-17.6582369
20
26.7539611
11
-17.5977468
21
26.733959
0
LINE
8
layer1
10
-17.5977468
20
26.733959
11
-17.5444363
21
26.7280598
0
LINE
8
layer1
10
-17.5444363
20
26.7280598
11
-17.498862
21
26.7359658
0
LINE
8
layer1
10
-17.498862
20
26.7359658
11
-17.470098
21
26.7507529
0
LINE
8
layer1
10
-17.470098
20
26.7507529
11
-16.8195076
21
27.1644375
0
LINE
8
layer1
10
-16.8195076
20
27.1644375
11
-16.1591992
21
27.5624271
0
LINE
8
layer1
10
-16.1591992
20
27.5624271
11
-16.1331412
21
27.5815843
0
LINE
8
layer1
10
-16.1331412
20
27.5815843
11
-16.1057498
21
27.6188568
0
LINE
8
layer1
10
-16.1057498
20
27.6188568
11
-16.087268
21
27.6692079
0
LINE
8
layer1
10
-16.087268
20
27.6692079
11
-16.0782104
21
27.7322721
0
LINE
8
layer1
10
-16.0782104
20
27.7322721
11
-16.0791137
21
27.8076816
0
LINE
8
layer1
10
-16.0791137
20
27.8076816
11
-16.0904747
21
27.895023
0
LINE
8
layer1
10
-16.0904747
20
27.895023
11
-16.112806
21
27.9939085
0
LINE
8
layer1
10
-16.112806
20
27.9939085
11
-16.2249192
21
28.3321868
0
LINE
8
layer1
10
-16.2249192
20
28.3321868
11
-16.3139914
21
28.6295103
0
LINE
8
layer1
10
-16.3139914
20
28.6295103
11
-16.4041259
21
28.9835614
0
LINE
8
layer1
10
-16.4041259
20
28.9835614
11
-16.4910388
21
29.3964633
0
LINE
8
layer1
10
-16.4910388
20
29.3964633
11
-16.569726
21
29.8671625
0
LINE
8
layer1
10
-16.569726
20
29.8671625
11
-16.6356848
21
30.3971061
0
LINE
8
layer1
10
-16.6356848
20
30.3971061
11
-16.6840052
21
30.9853353
0
LINE
8
layer1
10
-16.6840052
20
30.9853353
11
-16.7000619
21
31.3013337
0
LINE
8
layer1
10
-16.7000619
20
31.3013337
11
-16.7126808
21
31.8855028
0
ARC
8
layer1
10
0.0000055
20
-0.000013
40
36
50
115.2800434
51
117.6611304
0
LINE
8
layer1
10
-15.3735403
20
32.5523156
11
-14.9149678
21
32.190205
0
LINE
8
layer1
10
-14.9149678
20
32.190205
11
-14.672472
21
31.9869599
0
LINE
8
layer1
10
-14.672472
20
31.9869599
11
-14.2321744
21
31.593912
0
LINE
8
layer1
10
-14.2321744
20
31.593912
11
-13.8490194
21
31.2219134
0
LINE
8
layer1
10
-13.8490194
20
31.2219134
11
-13.520813
21
30.87546
0
LINE
8
layer1
10
-13.520813
20
30.87546
11
-13.2436869
21
30.557273
0
LINE
8
layer1
10
-13.2436869
20
30.557273
11
-13.0154662
21
30.2719807
0
LINE
8
layer1
10
-13.0154662
20
30.2719807
11
-12.8318748
21
30.0217221
0
LINE
8
layer1
10
-12.8318748
20
30.0217221
11
-12.6294862
21
29.7283956
0
LINE
8
layer1
10
-12.6294862
20
29.7283956
11
-12.5640316
21
29.6509831
0
LINE
8
layer1
10
-12.5640316
20
29.6509831
11
-12.5011782
21
29.5892818
0
LINE
8
layer1
10
-12.5011782
20
29.5892818
11
-12.4415444
21
29.5431166
0
LINE
8
layer1
10
-12.4415444
20
29.5431166
11
-12.3857596
21
29.5123401
0
LINE
8
layer1
10
-12.3857596
20
29.5123401
11
-12.3344408
21
29.4967455
0
LINE
8
layer1
10
-12.3344408
20
29.4967455
11
-12.2881898
21
29.4961426
0
LINE
8
layer1
10
-12.2881898
20
29.4961426
11
-12.2571985
21
29.5053926
0
LINE
8
layer1
10
-12.2571985
20
29.5053926
11
-11.5416712
21
29.7924877
0
LINE
8
layer1
10
-11.5416712
20
29.7924877
11
-10.8194755
21
30.0623694
0
LINE
8
layer1
10
-10.8194755
20
30.0623694
11
-10.790341
21
30.0764123
0
LINE
8
layer1
10
-10.790341
20
30.0764123
11
-10.7565672
21
30.108017
0
LINE
8
layer1
10
-10.7565672
20
30.108017
11
-10.7291481
21
30.1541148
0
LINE
8
layer1
10
-10.7291481
20
30.1541148
11
-10.7086567
21
30.2144409
0
LINE
8
layer1
10
-10.7086567
20
30.2144409
11
-10.6956881
21
30.2887324
0
LINE
8
layer1
10
-10.6956881
20
30.2887324
11
-10.6908068
21
30.3766742
0
LINE
8
layer1
10
-10.6908068
20
30.3766742
11
-10.6945877
21
30.4779793
0
LINE
8
layer1
10
-10.6945877
20
30.4779793
11
-10.7426335
21
30.8310985
0
LINE
8
layer1
10
-10.7426335
20
30.8310985
11
-10.775556
21
31.1397265
0
LINE
8
layer1
10
-10.775556
20
31.1397265
11
-10.799099
21
31.5043114
0
LINE
8
layer1
10
-10.799099
20
31.5043114
11
-10.8086615
21
31.926153
0
LINE
8
layer1
10
-10.8086615
20
31.926153
11
-10.7995182
21
32.4032964
0
LINE
8
layer1
10
-10.7995182
20
32.4032964
11
-10.7669771
21
32.9363366
0
LINE
8
layer1
10
-10.7669771
20
32.9363366
11
-10.7063879
21
33.523429
0
LINE
8
layer1
10
-10.7063879
20
33.523429
11
-10.6641066
21
33.8369973
0
LINE
8
layer1
10
-10.6641066
20
33.8369973
11
-10.5691699
21
34.4135386
0
ARC
8
layer1
10
0.0000047
20
-0.0000132
40
36
50
104.691811
51
107.072898
0
LINE
8
layer1
10
-9.1303042
20
34.8229312
11
-8.7460775
21
34.3827237
0
LINE
8
layer1
10
-8.7460775
20
34.3827237
11
-8.5450568
21
34.1383807
0
LINE
8
layer1
10
-8.5450568
20
34.1383807
11
-8.1844785
21
33.6711208
0
LINE
8
layer1
10
-8.1844785
20
33.6711208
11
-7.876202
21
33.2350516
0
LINE
8
layer1
10
-7.876202
20
33.2350516
11
-7.6172445
21
32.8341895
0
LINE
8
layer1
10
-7.6172445
20
32.8341895
11
-7.4033037
21
32.4704984
0
LINE
8
layer1
10
-7.4033037
20
32.4704984
11
-7.2313913
21
32.1481283
0
LINE
8
layer1
10
-7.2313913
20
32.1481283
11
-7.0969108
21
31.8683961
0
LINE
8
layer1
10
-7.0969108
20
31.8683961
11
-6.9518669
21
31.5428752
0
LINE
8
layer1
10
-6.9518669
20
31.5428752
11
-6.9017512
21
31.4547535
0
LINE
8
layer1
10
-6.9017512
20
31.4547535
11
-6.8513056
21
31.3825535
0
LINE
8
layer1
10
-6.8513056
20
31.3825535
11
-6.80117
21
31.3262167
0
LINE
8
layer1
10
-6.80117
20
31.3262167
11
-6.7519903
21
31.2857138
0
LINE
8
layer1
10
-6.7519903
20
31.2857138
11
-6.7044107
21
31.2609549
0
LINE
8
layer1
10
-6.7044107
20
31.2609549
11
-6.659058
21
31.2518637
0
LINE
8
layer1
10
-6.659058
20
31.2518637
11
-6.6268947
21
31.2552615
0
LINE
8
layer1
10
-6.6268947
20
31.2552615
11
-5.8707971
21
31.4059905
0
LINE
8
layer1
10
-5.8707971
20
31.4059905
11
-5.1113075
21
31.5385739
0
LINE
8
layer1
10
-5.1113075
20
31.5385739
11
-5.0800886
21
31.5470242
0
LINE
8
layer1
10
-5.0800886
20
31.5470242
11
-5.0410826
21
31.5718848
0
LINE
8
layer1
10
-5.0410826
20
31.5718848
11
-5.0056599
21
31.6121595
0
LINE
8
layer1
10
-5.0056599
20
31.6121595
11
-4.9744325
21
31.6676931
0
LINE
8
layer1
10
-4.9744325
20
31.6676931
11
-4.9480337
21
31.7383367
0
LINE
8
layer1
10
-4.9480337
20
31.7383367
11
-4.9270762
21
31.8238842
0
LINE
8
layer1
10
-4.9270762
20
31.8238842
11
-4.912178
21
31.9241591
0
LINE
8
layer1
10
-4.912178
20
31.9241591
11
-4.8945203
21
32.2800942
0
LINE
8
layer1
10
-4.8945203
20
32.2800942
11
-4.8701719
21
32.5895167
0
LINE
8
layer1
10
-4.8701719
20
32.5895167
11
-4.8263218
21
32.9522199
0
LINE
8
layer1
10
-4.8263218
20
32.9522199
11
-4.7582083
21
33.368636
0
LINE
8
layer1
10
-4.7582083
20
33.368636
11
-4.6615458
21
33.835975
0
LINE
8
layer1
10
-4.6615458
20
33.835975
11
-4.5316129
21
34.3539598
0
LINE
8
layer1
10
-4.5316129
20
34.3539598
11
-4.3641773
21
34.9199226
0
LINE
8
layer1
10
-4.3641773
20
34.9199226
11
-4.264998
21
35.2203826
0
LINE
8
layer1
10
-4.264998
20
35.2203826
11
-4.0657385
21
35.7696626
0
ARC
8
layer1
10
0.000001
20
-0.000014
40
36
50
94.1035736
51
96.4846606
0
LINE
8
layer1
10
-2.5761466
20
35.9076936
11
-2.27935
21
35.40438
0
LINE
8
layer1
10
-2.27935
20
35.40438
11
-2.12665
21
35.12726
0
LINE
8
layer1
10
-2.12665
20
35.12726
11
-1.85807
21
34.6017
0
LINE
8
layer1
10
-1.85807
20
34.6017
11
-1.63517
21
34.11641
0
LINE
8
layer1
10
-1.63517
20
34.11641
11
-1.45428
21
33.67479
0
LINE
8
layer1
10
-1.45428
20
33.67479
11
-1.31081
21
33.27798
0
LINE
8
layer1
10
-1.31081
20
33.27798
11
-1.20106
21
32.92951
0
LINE
8
layer1
10
-1.20106
20
32.92951
11
-1.12027
21
32.62983
0
LINE
8
layer1
10
-1.12027
20
32.62983
11
-1.03751
21
32.2832
0
LINE
8
layer1
10
-1.03751
20
32.2832
11
-1.00444
21
32.18737
0
LINE
8
layer1
10
-1.00444
20
32.18737
11
-0.96812
21
32.10713
0
LINE
8
layer1
10
-0.96812
20
32.10713
11
-0.92919
21
32.04254
0
LINE
8
layer1
10
-0.92919
20
32.04254
11
-0.88829
21
31.99369
0
LINE
8
layer1
10
-0.88829
20
31.99369
11
-0.84607
21
31.96061
0
LINE
8
layer1
10
-0.84607
20
31.96061
11
-0.80316
21
31.94334
0
LINE
8
layer1
10
-0.80316
20
31.94334
11
-0.77092
21
31.94077
0
LINE
8
layer1
10
-0.77092
20
31.94077
11
0
21
31.95
0
LINE
8
layer1
10
0
20
31.95
11
0.77092
21
31.94077
0
LINE
8
layer1
10
0.77092
20
31.94077
11
0.80316
21
31.94334
0
LINE
8
layer1
10
0.80316
20
31.94334
11
0.84607
21
31.96061
0
LINE
8
layer1
10
0.84607
20
31.96061
11
0.88829
21
31.99369
0
LINE
8
layer1
10
0.88829
20
31.99369
11
0.92919
21
32.04254
0
LINE
8
layer1
10
0.92919
20
32.04254
11
0.96812
21
32.10713
0
LINE
8
layer1
10
0.96812
20
32.10713
11
1.00444
21
32.18737
0
LINE
8
layer1
10
1.00444
20
32.18737
11
1.03751
21
32.2832
0
LINE
8
layer1
10
1.03751
20
32.2832
11
1.12027
21
32.62983
0
LINE
8
layer1
10
1.12027
20
32.62983
11
1.20106
21
32.92951
0
LINE
8
layer1
10
1.20106
20
32.92951
11
1.31081
21
33.27798
0
LINE
8
layer1
10
1.31081
20
33.27798
11
1.45428
21
33.67479
0
LINE
8
layer1
10
1.45428
20
33.67479
11
1.63517
21
34.11641
0
LINE
8
layer1
10
1.63517
20
34.11641
11
1.85807
21
34.6017
0
LINE
8
layer1
10
1.85807
20
34.6017
11
2.12665
21
35.12726
0
LINE
8
layer1
10
2.12665
20
35.12726
11
2.27935
21
35.40438
0
LINE
8
layer1
10
2.27935
20
35.40438
11
2.5761466
21
35.9076936
0
ARC
8
layer1
10
-9e-7
20
-0.000014
40
36
50
83.5153395
51
85.8964266
0
LINE
8
layer1
10
4.0657385
20
35.7696626
11
4.264998
21
35.2203826
0
LINE
8
layer1
10
4.264998
20
35.2203826
11
4.3641773
21
34.9199226
0
LINE
8
layer1
10
4.3641773
20
34.9199226
11
4.5316129
21
34.3539598
0
LINE
8
layer1
10
4.5316129
20
34.3539598
11
4.6615458
21
33.835975
0
LINE
8
layer1
10
4.6615458
20
33.835975
11
4.7582083
21
33.368636
0
LINE
8
layer1
10
4.7582083
20
33.368636
11
4.8263218
21
32.9522199
0
LINE
8
layer1
10
4.8263218
20
32.9522199
11
4.8701719
21
32.5895167
0
LINE
8
layer1
10
4.8701719
20
32.5895167
11
4.8945203
21
32.2800942
0
LINE
8
layer1
10
4.8945203
20
32.2800942
11
4.912178
21
31.9241591
0
LINE
8
layer1
10
4.912178
20
31.9241591
11
4.9270762
21
31.8238842
0
LINE
8
layer1
10
4.9270762
20
31.8238842
11
4.9480337
21
31.7383367
0
LINE
8
layer1
10
4.9480337
20
31.7383367
11
4.9744325
21
31.6676931
0
LINE
8
layer1
10
4.9744325
20
31.6676931
11
5.0056599
21
31.6121595
0
LINE
8
layer1
10
5.0056599
20
31.6121595
11
5.0410826
21
31.5718848
0
LINE
8
layer1
10
5.0410826
20
31.5718848
11
5.0800886
21
31.5470242
0
LINE
8
layer1
10
5.0800886
20
31.5470242
11
5.1113075
21
31.5385739
0
LINE
8
layer1
10
5.1113075
20
31.5385739
11
5.8707971
21
31.4059905
0
LINE
8
layer1
10
5.8707971
20
31.4059905
11
6.6268947
21
31.2552615
0
LINE
8
layer1
10
6.6268947
20
31.2552615
11
6.659058
21
31.2518637
0
LINE
8
layer1
10
6.659058
20
31.2518637
11
6.7044107
21
31.2609549
0
LINE
8
layer1
10
6.7044107
20
31.2609549
11
6.7519903
21
31.2857138
0
LINE
8
layer1
10
6.7519903
20
31.2857138
11
6.80117
21
31.3262167
0
LINE
8
layer1
10
6.80117
20
31.3262167
11
6.8513056
21
31.3825535
0
LINE
8
layer1
10
6.8513056
20
31.3825535
11
6.9017512
21
31.4547535
0
LINE
8
layer1
10
6.9017512
20
31.4547535
11
6.9518669
21
31.5428752
0
LINE
8
layer1
10
6.9518669
20
31.5428752
11
7.0969108
21
31.8683961
0
LINE
8
layer1
10
7.0969108
20
31.8683961
11
7.2313913
21
32.1481283
0
LINE
8
layer1
10
7.2313913
20
32.1481283
11
7.4033037
21
32.4704984
0
LINE
8
layer1
10
7.4033037
20
32.4704984
11
7.6172445
21
32.8341895
0
LINE
8
layer1
10
7.6172445
20
32.8341895
11
7.876202
21
33.2350516
0
LINE
8
layer1
10
7.876202
20
33.2350516
11
8.1844785
21
33.6711208
0
LINE
8
layer1
10
8.1844785
20
33.6711208
11
8.5450568
21
34.1383807
0
LINE
8
layer1
10
8.5450568
20
34.1383807
11
8.7460775
21
34.3827237
0
LINE
8
layer1
10
8.7460775
20
34.3827237
11
9.1303042
21
34.8229312
0
ARC
8
layer1
10
-0.0000048
20
-0.0000132
40
36
50
72.927102
51
75.308189
0
LINE
8
layer1
10
10.5691699
20
34.4135386
11
10.6641066
21
33.8369973
0
LINE
8
layer1
10
10.6641066
20
33.8369973
11
10.7063879
21
33.523429
0
LINE
8
layer1
10
10.7063879
20
33.523429
11
10.7669771
21
32.9363366
0
LINE
8
layer1
10
10.7669771
20
32.9363366
11
10.7995182
21
32.4032964
0
LINE
8
layer1
10
10.7995182
20
32.4032964
11
10.8086615
21
31.926153
0
LINE
8
layer1
10
10.8086615
20
31.926153
11
10.799099
21
31.5043114
0
LINE
8
layer1
10
10.799099
20
31.5043114
11
10.775556
21
31.1397265
0
LINE
8
layer1
10
10.775556
20
31.1397265
11
10.7426335
21
30.8310985
0
LINE
8
layer1
10
10.7426335
20
30.8310985
11
10.6945877
21
30.4779793
0
LINE
8
layer1
10
10.6945877
20
30.4779793
11
10.6908068
21
30.3766742
0
LINE
8
layer1
10
10.6908068
20
30.3766742
11
10.6956881
21
30.2887324
0
LINE
8
layer1
10
10.6956881
20
30.2887324
11
10.7086567
21
30.2144409
0
LINE
8
layer1
10
10.7086567
20
30.2144409
11
10.7291481
21
30.1541148
0
LINE
8
layer1
10
10.7291481
20
30.1541148
11
10.7565672
21
30.108017
0
LINE
8
layer1
10
10.7565672
20
30.108017
11
10.790341
21
30.0764123
0
LINE
8
layer1
10
10.790341
20
30.0764123
11
10.8194755
21
30.0623694
0
LINE
8
layer1
10
10.8194755
20
30.0623694
11
11.5416712
21
29.7924877
0
LINE
8
layer1
10
11.5416712
20
29.7924877
11
12.2571985
21
29.5053926
0
LINE
8
layer1
10
12.2571985
20
29.5053926
11
12.2881898
21
29.4961426
0
LINE
8
layer1
10
12.2881898
20
29.4961426
11
12.3344408
21
29.4967455
0
LINE
8
layer1
10
12.3344408
20
29.4967455
11
12.3857596
21
29.5123401
0
LINE
8
layer1
10
12.3857596
20
29.5123401
11
12.4415444
21
29.5431166
0
LINE
8
layer1
10
12.4415444
20
29.5431166
11
12.5011782
21
29.5892818
0
LINE
8
layer1
10
12.5011782
20
29.5892818
11
12.5640316
21
29.6509831
0
LINE
8
layer1
10
12.5640316
20
29.6509831
11
12.6294862
21
29.7283956
0
LINE
8
layer1
10
12.6294862
20
29.7283956
11
12.8318748
21
30.0217221
0
LINE
8
layer1
10
12.8318748
20
30.0217221
11
13.0154662
21
30.2719807
0
LINE
8
layer1
10
13.0154662
20
30.2719807
11
13.2436869
21
30.557273
0
LINE
8
layer1
10
13.2436869
20
30.557273
11
13.520813
21
30.87546
0
LINE
8
layer1
10
13.520813
20
30.87546
11
13.8490194
21
31.2219134
0
LINE
8
layer1
10
13.8490194
20
31.2219134
11
14.2321744
21
31.593912
0
LINE
8
layer1
10
14.2321744
20
31.593912
11
14.672472
21
31.9869599
0
LINE
8
layer1
10
14.672472
20
31.9869599
11
14.9149678
21
32.190205
0
LINE
8
layer1
10
14.9149678
20
32.190205
11
15.3735403
21
32.5523156
0
ARC
8
layer1
10
-0.0000055
20
-0.0000129
40
36
50
62.3388696
51
64.7199566
0
LINE
8
layer1
10
16.7126808
20
31.8855028
11
16.7000619
21
31.3013337
0
LINE
8
layer1
10
16.7000619
20
31.3013337
11
16.6840052
21
30.9853353
0
LINE
8
layer1
10
16.6840052
20
30.9853353
11
16.6356848
21
30.3971061
0
LINE
8
layer1
10
16.6356848
20
30.3971061
11
16.569726
21
29.8671625
0
LINE
8
layer1
10
16.569726
20
29.8671625
11
16.4910388
21
29.3964633
0
LINE
8
layer1
10
16.4910388
20
29.3964633
11
16.4041259
21
28.9835614
0
LINE
8
layer1
10
16.4041259
20
28.9835614
11
16.3139914
21
28.6295103
0
LINE
8
layer1
10
16.3139914
20
28.6295103
11
16.2249192
21
28.3321868
0
LINE
8
layer1
10
16.2249192
20
28.3321868
11
16.112806
21
27.9939085
0
LINE
8
layer1
10
16.112806
20
27.9939085
11
16.0904747
21
27.895023
0
LINE
8
layer1
10
16.0904747
20
27.895023
11
16.0791137
21
27.8076816
0
LINE
8
layer1
10
16.0791137
20
27.8076816
11
16.0782104
21
27.7322721
0
LINE
8
layer1
10
16.0782104
20
27.7322721
11
16.087268
21
27.6692079
0
LINE
8
layer1
10
16.087268
20
27.6692079
11
16.1057498
21
27.6188568
0
LINE
8
layer1
10
16.1057498
20
27.6188568
11
16.1331412
21
27.5815843
0
LINE
8
layer1
10
16.1331412
20
27.5815843
11
16.1591992
21
27.5624271
0
LINE
8
layer1
10
16.1591992
20
27.5624271
11
16.8195076
21
27.1644375
0
LINE
8
layer1
10
16.8195076
20
27.1644375
11
17.470098
21
26.7507529
0
LINE
8
layer1
10
17.470098
20
26.7507529
11
17.498862
21
26.7359658
0
LINE
8
layer1
10
17.498862
20
26.7359658
11
17.5444363
21
26.7280598
0
LINE
8
layer1
10
17.5444363
20
26.7280598
11
17.5977468
21
26.733959
0
LINE
8
layer1
10
17.5977468
20
26.733959
11
17.6582369
21
26.7539611
0
LINE
8
layer1
10
17.6582369
20
26.7539611
11
17.7253381
21
26.7883826
0
LINE
8
layer1
10
17.7253381
20
26.7883826
11
17.7984589
21
26.837484
0
LINE
8
layer1
10
17.7984589
20
26.837484
11
17.8770236
21
26.9015512
0
LINE
8
layer1
10
17.8770236
20
26.9015512
11
18.1298647
21
27.1526944
0
LINE
8
layer1
10
18.1298647
20
27.1526944
11
18.356315
21
27.3649571
0
LINE
8
layer1
10
18.356315
20
27.3649571
11
18.6330721
21
27.6034563
0
LINE
8
layer1
10
18.6330721
20
27.6034563
11
18.9639463
21
27.8653037
0
LINE
8
layer1
10
18.9639463
20
27.8653037
11
19.3502251
21
28.1455503
0
LINE
8
layer1
10
19.3502251
20
28.1455503
11
19.7952107
21
28.4408105
0
LINE
8
layer1
10
19.7952107
20
28.4408105
11
20.3002337
21
28.7462614
0
LINE
8
layer1
10
20.3002337
20
28.7462614
11
20.5759468
21
28.9014874
0
LINE
8
layer1
10
20.5759468
20
28.9014874
11
21.0932488
21
29.1731699
0
ARC
8
layer1
10
-0.000008
20
-0.0000116
40
36
50
51.7506339
51
54.1317209
0
LINE
8
layer1
10
22.2870614
20
28.2716445
11
22.1673166
21
27.6997407
0
LINE
8
layer1
10
22.1673166
20
27.6997407
11
22.0934687
21
27.3920732
0
LINE
8
layer1
10
22.0934687
20
27.3920732
11
21.9378843
21
26.8227385
0
LINE
8
layer1
10
21.9378843
20
26.8227385
11
21.7756716
21
26.3139381
0
LINE
8
layer1
10
21.7756716
20
26.3139381
11
21.6118334
21
25.8657122
0
LINE
8
layer1
10
21.6118334
20
25.8657122
11
21.4505299
21
25.475811
0
LINE
8
layer1
10
21.4505299
20
25.475811
11
21.2968734
21
25.1443504
0
LINE
8
layer1
10
21.2968734
20
25.1443504
11
21.1546848
21
24.8684564
0
LINE
8
layer1
10
21.1546848
20
24.8684564
11
20.9823221
21
24.5565386
0
LINE
8
layer1
10
20.9823221
20
24.5565386
11
20.9422008
21
24.4634403
0
LINE
8
layer1
10
20.9422008
20
24.4634403
11
20.9149843
21
24.3796736
0
LINE
8
layer1
10
20.9149843
20
24.3796736
11
20.9002399
21
24.305714
0
LINE
8
layer1
10
20.9002399
20
24.305714
11
20.8975553
21
24.2420593
0
LINE
8
layer1
10
20.8975553
20
24.2420593
11
20.9064705
21
24.1891695
0
LINE
8
layer1
10
20.9064705
20
24.1891695
11
20.9265466
21
24.1474985
0
LINE
8
layer1
10
20.9265466
20
24.1474985
11
20.9486408
21
24.1238793
0
LINE
8
layer1
10
20.9486408
20
24.1238793
11
21.5245758
21
23.6113349
0
LINE
8
layer1
10
21.5245758
20
23.6113349
11
22.0880744
21
23.0851484
0
LINE
8
layer1
10
22.0880744
20
23.0851484
11
22.1136314
21
23.0653277
0
LINE
8
layer1
10
22.1136314
20
23.0653277
11
22.156977
21
23.0491821
0
LINE
8
layer1
10
22.156977
20
23.0491821
11
22.2104638
21
23.0451851
0
LINE
8
layer1
10
22.2104638
20
23.0451851
11
22.2735993
21
23.0537315
0
LINE
8
layer1
10
22.2735993
20
23.0537315
11
22.3458829
21
23.0752371
0
LINE
8
layer1
10
22.3458829
20
23.0752371
11
22.4267811
21
23.1100666
0
LINE
8
layer1
10
22.4267811
20
23.1100666
11
22.5157803
21
23.1586067
0
LINE
8
layer1
10
22.5157803
20
23.1586067
11
22.8104638
21
23.3590143
0
LINE
8
layer1
10
22.8104638
20
23.3590143
11
23.0720615
21
23.5260526
0
LINE
8
layer1
10
23.0720615
20
23.5260526
11
23.3879304
21
23.709637
0
LINE
8
layer1
10
23.3879304
20
23.709637
11
23.7612852
21
23.906228
0
LINE
8
layer1
10
23.7612852
20
23.906228
11
24.192482
21
24.1107243
0
LINE
8
layer1
10
24.192482
20
24.1107243
11
24.6841449
21
24.3191912
0
LINE
8
layer1
10
24.6841449
20
24.3191912
11
25.2366953
21
24.5266435
0
LINE
8
layer1
10
25.2366953
20
24.5266435
11
25.5362365
21
24.6285644
0
LINE
8
layer1
10
25.5362365
20
24.6285644
11
26.0946521
21
24.800567
0
ARC
8
layer1
10
-0.0000101
20
-0.0000097
40
36
50
41.1623983
51
43.5434853
0
LINE
8
layer1
10
27.1024829
20
23.6950293
11
26.8796899
21
23.1548662
0
LINE
8
layer1
10
26.8796899
20
23.1548662
11
26.7505657
21
22.8660069
0
LINE
8
layer1
10
26.7505657
20
22.8660069
11
26.4930154
21
22.3349548
0
LINE
8
layer1
10
26.4930154
20
22.3349548
11
26.2400728
21
21.8646242
0
LINE
8
layer1
10
26.2400728
20
21.8646242
11
25.996663
21
21.4541353
0
LINE
8
layer1
10
25.996663
20
21.4541353
11
25.7664618
21
21.1005123
0
LINE
8
layer1
10
25.7664618
20
21.1005123
11
25.5545159
21
20.8029299
0
LINE
8
layer1
10
25.5545159
20
20.8029299
11
25.364053
21
20.5578605
0
LINE
8
layer1
10
25.364053
20
20.5578605
11
25.1373103
21
20.2829253
0
LINE
8
layer1
10
25.1373103
20
20.2829253
11
25.0807654
21
20.1987844
0
LINE
8
layer1
10
25.0807654
20
20.1987844
11
25.0386202
21
20.1214451
0
LINE
8
layer1
10
25.0386202
20
20.1214451
11
25.0105368
21
20.0514541
0
LINE
8
layer1
10
25.0105368
20
20.0514541
11
24.9962015
21
19.9893765
0
LINE
8
layer1
10
24.9962015
20
19.9893765
11
24.9952463
21
19.935749
0
LINE
8
layer1
10
24.9952463
20
19.935749
11
25.0073236
21
19.8910986
0
LINE
8
layer1
10
25.0073236
20
19.8910986
11
25.0247016
21
19.8638218
0
LINE
8
layer1
10
25.0247016
20
19.8638218
11
25.4966504
21
19.2541766
0
LINE
8
layer1
10
25.4966504
20
19.2541766
11
25.9538678
21
18.6334069
0
LINE
8
layer1
10
25.9538678
20
18.6334069
11
25.9753477
21
18.6092276
0
LINE
8
layer1
10
25.9753477
20
18.6092276
11
26.0149885
21
18.5853922
0
LINE
8
layer1
10
26.0149885
20
18.5853922
11
26.0668301
21
18.571635
0
LINE
8
layer1
10
26.0668301
20
18.571635
11
26.130461
21
18.5684348
0
LINE
8
layer1
10
26.130461
20
18.5684348
11
26.2054655
21
18.5762922
0
LINE
8
layer1
10
26.2054655
20
18.5762922
11
26.2913861
21
18.5956636
0
LINE
8
layer1
10
26.2913861
20
18.5956636
11
26.3877892
21
18.6270236
0
LINE
8
layer1
10
26.3877892
20
18.6270236
11
26.71428
21
18.769871
0
LINE
8
layer1
10
26.71428
20
18.769871
11
27.0021166
21
18.8859967
0
LINE
8
layer1
10
27.0021166
20
18.8859967
11
27.3463408
21
19.0084144
0
LINE
8
layer1
10
27.3463408
20
19.0084144
11
27.749462
21
19.1330543
0
LINE
8
layer1
10
27.749462
20
19.1330543
11
28.210893
21
19.2548365
0
LINE
8
layer1
10
28.210893
20
19.2548365
11
28.73249
21
19.369411
0
LINE
8
layer1
10
28.73249
20
19.369411
11
29.3137516
21
19.4718002
0
LINE
8
layer1
10
29.3137516
20
19.4718002
11
29.6269204
21
19.5169451
0
LINE
8
layer1
10
29.6269204
20
19.5169451
11
30.2074333
21
19.5834105
0
ARC
8
layer1
10
-0.0000126
20
-0.0000063
40
36
50
30.5741603
51
32.9552474
0
LINE
8
layer1
10
30.9949618
20
18.3115082
11
30.6767076
21
17.8214806
0
LINE
8
layer1
10
30.6767076
20
17.8214806
11
30.4967042
21
17.5612661
0
LINE
8
layer1
10
30.4967042
20
17.5612661
11
30.1459586
21
17.0865809
0
LINE
8
layer1
10
30.1459586
20
17.0865809
11
29.8108999
21
16.6707367
0
LINE
8
layer1
10
29.8108999
20
16.6707367
11
29.4962075
21
16.3119636
0
LINE
8
layer1
10
29.4962075
20
16.3119636
11
29.2049478
21
16.0066611
0
LINE
8
layer1
10
29.2049478
20
16.0066611
11
28.94193
21
15.7530905
0
LINE
8
layer1
10
28.94193
20
15.7530905
11
28.7096787
21
15.5471914
0
LINE
8
layer1
10
28.7096787
20
15.5471914
11
28.4362776
21
15.3186014
0
LINE
8
layer1
10
28.4362776
20
15.3186014
11
28.3652346
21
15.2462832
0
LINE
8
layer1
10
28.3652346
20
15.2462832
11
28.3095959
21
15.1780048
0
LINE
8
layer1
10
28.3095959
20
15.1780048
11
28.2691299
21
15.1143659
0
LINE
8
layer1
10
28.2691299
20
15.1143659
11
28.2436319
21
15.0559794
0
LINE
8
layer1
10
28.2436319
20
15.0559794
11
28.232839
21
15.0034406
0
LINE
8
layer1
10
28.232839
20
15.0034406
11
28.2365062
21
14.9573312
0
LINE
8
layer1
10
28.2365062
20
14.9573312
11
28.2485762
21
14.9273256
0
LINE
8
layer1
10
28.2485762
20
14.9273256
11
28.6004672
21
14.2413405
0
LINE
8
layer1
10
28.6004672
20
14.2413405
11
28.9358334
21
13.547127
0
LINE
8
layer1
10
28.9358334
20
13.547127
11
28.9525046
21
13.5194125
0
LINE
8
layer1
10
28.9525046
20
13.5194125
11
28.9870907
21
13.4886989
0
LINE
8
layer1
10
28.9870907
20
13.4886989
11
29.0355218
21
13.4656502
0
LINE
8
layer1
10
29.0355218
20
13.4656502
11
29.0974812
21
13.4508123
0
LINE
8
layer1
10
29.0974812
20
13.4508123
11
29.1726524
21
13.4447538
0
LINE
8
layer1
10
29.1726524
20
13.4447538
11
29.2606695
21
13.4480076
0
LINE
8
layer1
10
29.2606695
20
13.4480076
11
29.3611936
21
13.4611196
0
LINE
8
layer1
10
29.3611936
20
13.4611196
11
29.7083733
21
13.5415422
0
LINE
8
layer1
10
29.7083733
20
13.5415422
11
30.0126471
21
13.6028008
0
LINE
8
layer1
10
30.0126471
20
13.6028008
11
30.3735044
21
13.6598831
0
LINE
8
layer1
10
30.3735044
20
13.6598831
11
30.7926642
21
13.7083275
0
LINE
8
layer1
10
30.7926642
20
13.7083275
11
31.2686159
21
13.7432483
0
LINE
8
layer1
10
31.2686159
20
13.7432483
11
31.8023847
21
13.7600288
0
LINE
8
layer1
10
31.8023847
20
13.7600288
11
32.3925632
21
13.7538681
0
LINE
8
layer1
10
32.3925632
20
13.7538681
11
32.7086951
21
13.7406997
0
LINE
8
layer1
10
32.7086951
20
13.7406997
11
33.2915365
21
13.6993644
0
ARC
8
layer1
10
-0.0000135
20
-0.0000042
40
36
50
19.9859256
51
22.3670126
0
LINE
8
layer1
10
33.8319445
20
12.3044107
11
33.4290668
21
11.8812058
0
LINE
8
layer1
10
33.4290668
20
11.8812058
11
33.204314
21
11.6584975
0
LINE
8
layer1
10
33.204314
20
11.6584975
11
32.7723174
21
11.2563441
0
LINE
8
layer1
10
32.7723174
20
11.2563441
11
32.3665525
21
10.9091472
0
LINE
8
layer1
10
32.3665525
20
10.9091472
11
31.9912939
21
10.6143075
0
LINE
8
layer1
10
31.9912939
20
10.6143075
11
31.6488943
21
10.3677222
0
LINE
8
layer1
10
31.6488943
20
10.3677222
11
31.3437615
21
10.1667985
0
LINE
8
layer1
10
31.3437615
20
10.1667985
11
31.0776308
21
10.0070813
0
LINE
8
layer1
10
31.0776308
20
10.0070813
11
30.7668815
21
9.8326208
0
LINE
8
layer1
10
30.7668815
20
9.8326208
11
30.6837598
21
9.7745881
0
LINE
8
layer1
10
30.6837598
20
9.7745881
11
30.6165223
21
9.7176958
0
LINE
8
layer1
10
30.6165223
20
9.7176958
11
30.5650517
21
9.6625761
0
LINE
8
layer1
10
30.5650517
20
9.6625761
11
30.5292594
21
9.609869
0
LINE
8
layer1
10
30.5292594
20
9.609869
11
30.5089962
21
9.5602079
0
LINE
8
layer1
10
30.5089962
20
9.5602079
11
30.5041284
21
9.5142098
0
LINE
8
layer1
10
30.5041284
20
9.5142098
11
30.5104794
21
9.4824972
0
LINE
8
layer1
10
30.5104794
20
9.4824972
11
30.7303293
21
8.7435325
0
LINE
8
layer1
10
30.7303293
20
8.7435325
11
30.9324239
21
7.999516
0
LINE
8
layer1
10
30.9324239
20
7.999516
11
30.9437187
21
7.9692101
0
LINE
8
layer1
10
30.9437187
20
7.9692101
11
30.9720723
21
7.9326643
0
LINE
8
layer1
10
30.9720723
20
7.9326643
11
31.0154436
21
7.9011088
0
LINE
8
layer1
10
31.0154436
20
7.9011088
11
31.0736216
21
7.8751385
0
LINE
8
layer1
10
31.0736216
20
7.8751385
11
31.1463996
21
7.8553706
0
LINE
8
layer1
10
31.1463996
20
7.8553706
11
31.2335159
21
7.8423958
0
LINE
8
layer1
10
31.2335159
20
7.8423958
11
31.3347377
21
7.8368133
0
LINE
8
layer1
10
31.3347377
20
7.8368133
11
31.6907837
21
7.8520724
0
LINE
8
layer1
10
31.6907837
20
7.8520724
11
32.0011328
21
7.8563779
0
LINE
8
layer1
10
32.0011328
20
7.8563779
11
32.3663347
21
7.8461808
0
LINE
8
layer1
10
32.3663347
20
7.8461808
11
32.7872592
21
7.8167799
0
LINE
8
layer1
10
32.7872592
20
7.8167799
11
33.2615235
21
7.7636503
0
LINE
8
layer1
10
33.2615235
20
7.7636503
11
33.7892873
21
7.6820653
0
LINE
8
layer1
10
33.7892873
20
7.6820653
11
34.3682848
21
7.5675645
0
LINE
8
layer1
10
34.3682848
20
7.5675645
11
34.6766143
21
7.4965312
0
LINE
8
layer1
10
34.6766143
20
7.4965312
11
35.2419365
21
7.3488029
0
ARC
8
layer1
10
-0.0000138
20
-0.0000024
40
36
50
9.3976914
51
11.7787785
0
LINE
8
layer1
10
35.5168209
20
5.8783012
11
35.0430393
21
5.5363308
0
ENDSEC
0
EOF