0
SECTION
2
HEADER
0
ENDSEC
0
SECTION
2
TABLES
0
TABLE
2
LTYPE
0
LTYPE
72
65
70
64
2
CONTINUOUS
3
______
73
0
40
0
0
ENDTAB
0
TABLE
2
LAYER
0
ENDTAB
0
ENDSEC
0
SECTION
2
ENTITIES
0
CIRCLE
8
0
10
0
20
0
40
2
0
CIRCLE
8
0
10
0
20
0
40
2
0
LINE
8
layer0
10
16.5125958
20
2.7800943
11
16.2689892
21
2.6127107
0
LINE
8
layer0
10
16.2689892
20
2.6127107
11
16.0409117
21
2.4696664
0
LINE
8
layer0
10
16.0409117
20
2.4696664
11
15.8298335
21
2.3492975
0
LINE
8
layer0
10
15.8298335
20
2.3492975
11
15.6376111
21
2.2500988
0
LINE
8
layer0
10
15.6376111
20
2.2500988
11
15.4648203
21
2.1698961
0
LINE
8
layer0
10
15.4648203
20
2.1698961
11
15.3139398
21
2.1073963
0
LINE
8
layer0
10
15.3139398
20
2.1073963
11
15.1851433
21
2.0602249
0
LINE
8
layer0
10
15.1851433
20
2.0602249
11
15.0106978
21
2.002026
0
LINE
8
layer0
10
15.0106978
20
2.002026
11
14.9632844
21
1.9808567
0
LINE
8
layer0
10
14.9632844
20
1.9808567
11
14.9233423
21
1.9587151
0
LINE
8
layer0
10
14.9233423
20
1.9587151
11
14.8908899
21
1.9359245
0
LINE
8
layer0
10
14.8908899
20
1.9359245
11
14.8659386
21
1.9127773
0
LINE
8
layer0
10
14.8659386
20
1.9127773
11
14.8484679
21
1.8895832
0
LINE
8
layer0
10
14.8484679
20
1.8895832
11
14.8384882
21
1.8666446
0
LINE
8
layer0
10
14.8384882
20
1.8666446
11
14.8359602
21
1.844259
0
LINE
8
layer0
10
14.8359602
20
1.844259
11
14.8392329
21
1.8169483
0
LINE
8
layer0
10
14.8392329
20
1.8169483
11
14.8780117
21
1.4653562
0
LINE
8
layer0
10
14.8780117
20
1.4653562
11
14.9085702
21
1.1129546
0
LINE
8
layer0
10
14.9085702
20
1.1129546
11
14.9106885
21
1.0855302
0
LINE
8
layer0
10
14.9106885
20
1.0855302
11
14.9175351
21
1.0640679
0
LINE
8
layer0
10
14.9175351
20
1.0640679
11
14.9317981
21
1.043517
0
LINE
8
layer0
10
14.9317981
20
1.043517
11
14.9534581
21
1.0241769
0
LINE
8
layer0
10
14.9534581
20
1.0241769
11
14.9824458
21
1.0063423
0
LINE
8
layer0
10
14.9824458
20
1.0063423
11
15.0187208
21
0.9903207
0
LINE
8
layer0
10
15.0187208
20
0.9903207
11
15.0622151
21
0.9763969
0
LINE
8
layer0
10
15.0622151
20
0.9763969
11
15.1128473
21
0.9648843
0
LINE
8
layer0
10
15.1128473
20
0.9648843
11
15.2952949
21
0.9418363
0
LINE
8
layer0
10
15.2952949
20
0.9418363
11
15.4308194
21
0.9206982
0
LINE
8
layer0
10
15.4308194
20
0.9206982
11
15.5909939
21
0.8888346
0
LINE
8
layer0
10
15.5909939
20
0.8888346
11
15.7761113
21
0.8438828
0
LINE
8
layer0
10
15.7761113
20
0.8438828
11
15.9839929
21
0.7840909
0
LINE
8
layer0
10
15.9839929
20
0.7840909
11
16.2144981
21
0.7072142
0
LINE
8
layer0
10
16.2144981
20
0.7072142
11
16.4660997
21
0.6114141
0
LINE
8
layer0
10
16.4660997
20
0.6114141
11
16.7376804
21
0.494772
0
LINE
8
layer0
10
16.7376804
20
0.494772
11
16.9959341
21
0.3714249
0
ARC
8
layer0
10
-0.0000079
20
0
40
17
50
358.7480722
51
361.2519278
0
LINE
8
layer0
10
16.9959341
20
-0.3714249
11
16.7376804
21
-0.494772
0
LINE
8
layer0
10
16.7376804
20
-0.494772
11
16.4660997
21
-0.6114141
0
LINE
8
layer0
10
16.4660997
20
-0.6114141
11
16.2144981
21
-0.7072142
0
LINE
8
layer0
10
16.2144981
20
-0.7072142
11
15.9839929
21
-0.7840909
0
LINE
8
layer0
10
15.9839929
20
-0.7840909
11
15.7761113
21
-0.8438828
0
LINE
8
layer0
10
15.7761113
20
-0.8438828
11
15.5909939
21
-0.8888346
0
LINE
8
layer0
10
15.5909939
20
-0.8888346
11
15.4308194
21
-0.9206982
0
LINE
8
layer0
10
15.4308194
20
-0.9206982
11
15.2952949
21
-0.9418363
0
LINE
8
layer0
10
15.2952949
20
-0.9418363
11
15.1128473
21
-0.9648843
0
LINE
8
layer0
10
15.1128473
20
-0.9648843
11
15.0622151
21
-0.9763969
0
LINE
8
layer0
10
15.0622151
20
-0.9763969
11
15.0187208
21
-0.9903207
0
LINE
8
layer0
10
15.0187208
20
-0.9903207
11
14.9824458
21
-1.0063423
0
LINE
8
layer0
10
14.9824458
20
-1.0063423
11
14.9534581
21
-1.0241769
0
LINE
8
layer0
10
14.9534581
20
-1.0241769
11
14.9317981
21
-1.043517
0
LINE
8
layer0
10
14.9317981
20
-1.043517
11
14.9175351
21
-1.0640679
0
LINE
8
layer0
10
14.9175351
20
-1.0640679
11
14.9106885
21
-1.0855302
0
LINE
8
layer0
10
14.9106885
20
-1.0855302
11
14.9085702
21
-1.1129546
0
LINE
8
layer0
10
14.9085702
20
-1.1129546
11
14.8780117
21
-1.4653562
0
LINE
8
layer0
10
14.8780117
20
-1.4653562
11
14.8392329
21
-1.8169483
0
LINE
8
layer0
10
14.8392329
20
-1.8169483
11
14.8359602
21
-1.844259
0
LINE
8
layer0
10
14.8359602
20
-1.844259
11
14.8384882
21
-1.8666446
0
LINE
8
layer0
10
14.8384882
20
-1.8666446
11
14.8484679
21
-1.8895832
0
LINE
8
layer0
10
14.8484679
20
-1.8895832
11
14.8659386
21
-1.9127773
0
LINE
8
layer0
10
14.8659386
20
-1.9127773
11
14.8908899
21
-1.9359245
0
LINE
8
layer0
10
14.8908899
20
-1.9359245
11
14.9233423
21
-1.9587151
0
LINE
8
layer0
10
14.9233423
20
-1.9587151
11
14.9632844
21
-1.9808567
0
LINE
8
layer0
10
14.9632844
20
-1.9808567
11
15.0106978
21
-2.002026
0
LINE
8
layer0
10
15.0106978
20
-2.002026
11
15.1851433
21
-2.0602249
0
LINE
8
layer0
10
15.1851433
20
-2.0602249
11
15.3139398
21
-2.1073963
0
LINE
8
layer0
10
15.3139398
20
-2.1073963
11
15.4648203
21
-2.1698961
0
LINE
8
layer0
10
15.4648203
20
-2.1698961
11
15.6376111
21
-2.2500988
0
LINE
8
layer0
10
15.6376111
20
-2.2500988
11
15.8298335
21
-2.3492975
0
LINE
8
layer0
10
15.8298335
20
-2.3492975
11
16.0409117
21
-2.4696664
0
LINE
8
layer0
10
16.0409117
20
-2.4696664
11
16.2689892
21
-2.6127107
0
LINE
8
layer0
10
16.2689892
20
-2.6127107
11
16.5125958
21
-2.7800943
0
LINE
8
layer0
10
16.5125958
20
-2.7800943
11
16.7418234
21
-2.9514542
0
ARC
8
layer0
10
-0.0000077
20
0.0000016
40
17
50
347.4980721
51
350.0019275
0
LINE
8
layer0
10
16.5969006
20
-3.6800303
11
16.3195453
21
-3.7506246
0
LINE
8
layer0
10
16.3195453
20
-3.7506246
11
16.0304272
21
-3.8120427
0
LINE
8
layer0
10
16.0304272
20
-3.8120427
11
15.7649705
21
-3.8569169
0
LINE
8
layer0
10
15.7649705
20
-3.8569169
11
15.5238965
21
-3.8873471
0
LINE
8
layer0
10
15.5238965
20
-3.8873471
11
15.3083444
21
-3.9054345
0
LINE
8
layer0
10
15.3083444
20
-3.9054345
11
15.1180143
21
-3.9134079
0
LINE
8
layer0
10
15.1180143
20
-3.9134079
11
14.9547012
21
-3.9134108
0
LINE
8
layer0
10
14.9547012
20
-3.9134108
11
14.817657
21
-3.9077032
0
LINE
8
layer0
10
14.817657
20
-3.9077032
11
14.6342186
21
-3.8947145
0
LINE
8
layer0
10
14.6342186
20
-3.8947145
11
14.5823132
21
-3.8961281
0
LINE
8
layer0
10
14.5823132
20
-3.8961281
11
14.5369383
21
-3.9012991
0
LINE
8
layer0
10
14.5369383
20
-3.9012991
11
14.4982346
21
-3.9099359
0
LINE
8
layer0
10
14.4982346
20
-3.9099359
11
14.4663246
21
-3.9217726
0
LINE
8
layer0
10
14.4663246
20
-3.9217726
11
14.4413078
21
-3.9365154
0
LINE
8
layer0
10
14.4413078
20
-3.9365154
11
14.4233095
21
-3.9538889
0
LINE
8
layer0
10
14.4233095
20
-3.9538889
11
14.4124073
21
-3.973603
0
LINE
8
layer0
10
14.4124073
20
-3.973603
11
14.4049795
21
-4.0000873
0
LINE
8
layer0
10
14.4049795
20
-4.0000873
11
14.306258
21
-4.3397559
0
LINE
8
layer0
10
14.306258
20
-4.3397559
11
14.1996322
21
-4.6770268
0
LINE
8
layer0
10
14.1996322
20
-4.6770268
11
14.1910943
21
-4.7031743
0
LINE
8
layer0
10
14.1910943
20
-4.7031743
11
14.1892065
21
-4.725623
0
LINE
8
layer0
10
14.1892065
20
-4.725623
11
14.1945193
21
-4.7500678
0
LINE
8
layer0
10
14.1945193
20
-4.7500678
11
14.2071294
21
-4.7762246
0
LINE
8
layer0
10
14.2071294
20
-4.7762246
11
14.2270855
21
-4.8037947
0
LINE
8
layer0
10
14.2270855
20
-4.8037947
11
14.2544681
21
-4.8324786
0
LINE
8
layer0
10
14.2544681
20
-4.8324786
11
14.2893231
21
-4.8619871
0
LINE
8
layer0
10
14.2893231
20
-4.8619871
11
14.3316955
21
-4.8919995
0
LINE
8
layer0
10
14.3316955
20
-4.8919995
11
14.4914351
21
-4.9831127
0
LINE
8
layer0
10
14.4914351
20
-4.9831127
11
14.6085542
21
-5.0545047
0
LINE
8
layer0
10
14.6085542
20
-5.0545047
11
14.7443424
21
-5.1452389
0
LINE
8
layer0
10
14.7443424
20
-5.1452389
11
14.8981663
21
-5.2576103
0
LINE
8
layer0
10
14.8981663
20
-5.2576103
11
15.0673425
21
-5.3924038
0
LINE
8
layer0
10
15.0673425
20
-5.3924038
11
15.2508821
21
-5.5516391
0
LINE
8
layer0
10
15.2508821
20
-5.5516391
11
15.4466706
21
-5.7364306
0
LINE
8
layer0
10
15.4466706
20
-5.7364306
11
15.6529414
21
-5.9481232
0
LINE
8
layer0
10
15.6529414
20
-5.9481232
11
15.8443338
21
-6.1609106
0
ARC
8
layer0
10
-0.0000073
20
0.0000029
40
17
50
336.2480725
51
338.751928
0
LINE
8
layer0
10
15.5600575
20
-6.8472143
11
15.2742593
21
-6.8623427
0
LINE
8
layer0
10
15.2742593
20
-6.8623427
11
14.9787144
21
-6.8661766
0
LINE
8
layer0
10
14.9787144
20
-6.8661766
11
14.7096038
21
-6.8584005
0
LINE
8
layer0
10
14.7096038
20
-6.8584005
11
14.4672253
21
-6.8412148
0
LINE
8
layer0
10
14.4672253
20
-6.8412148
11
14.2522864
21
-6.8169025
0
LINE
8
layer0
10
14.2522864
20
-6.8169025
11
14.0640578
21
-6.7875912
0
LINE
8
layer0
10
14.0640578
20
-6.7875912
11
13.9038823
21
-6.7557332
0
LINE
8
layer0
10
13.9038823
20
-6.7557332
11
13.7705848
21
-6.7233992
0
LINE
8
layer0
10
13.7705848
20
-6.7233992
11
13.5932051
21
-6.6748731
0
LINE
8
layer0
10
13.5932051
20
-6.6748731
11
13.5420213
21
-6.6661332
0
LINE
8
layer0
10
13.5420213
20
-6.6661332
11
13.4965095
21
-6.6623527
0
LINE
8
layer0
10
13.4965095
20
-6.6623527
11
13.4568645
21
-6.6632728
0
LINE
8
layer0
10
13.4568645
20
-6.6632728
11
13.4232583
21
-6.6686567
0
LINE
8
layer0
10
13.4232583
20
-6.6686567
11
13.395846
21
-6.6782357
0
LINE
8
layer0
10
13.395846
20
-6.6782357
11
13.3748042
21
-6.6917641
0
LINE
8
layer0
10
13.3748042
20
-6.6917641
11
13.3602655
21
-6.7089726
0
LINE
8
layer0
10
13.3602655
20
-6.7089726
11
13.3478136
21
-6.7334988
0
LINE
8
layer0
10
13.3478136
20
-6.7334988
11
13.1847229
21
-7.0473812
0
LINE
8
layer0
10
13.1847229
20
-7.0473812
11
13.0143475
21
-7.3573699
0
LINE
8
layer0
10
13.0143475
20
-7.3573699
11
13.0008726
21
-7.3813493
0
LINE
8
layer0
10
13.0008726
20
-7.3813493
11
12.9946416
21
-7.4029983
0
LINE
8
layer0
10
12.9946416
20
-7.4029983
11
12.9950834
21
-7.4280099
0
LINE
8
layer0
10
12.9950834
20
-7.4280099
11
13.0023482
21
-7.4561242
0
LINE
8
layer0
10
13.0023482
20
-7.4561242
11
13.0165422
21
-7.4870578
0
LINE
8
layer0
10
13.0165422
20
-7.4870578
11
13.0378027
21
-7.5205326
0
LINE
8
layer0
10
13.0378027
20
-7.5205326
11
13.0662311
21
-7.556274
0
LINE
8
layer0
10
13.0662311
20
-7.556274
11
13.1019343
21
-7.5939762
0
LINE
8
layer0
10
13.1019343
20
-7.5939762
11
13.2408291
21
-7.7145023
0
LINE
8
layer0
10
13.2408291
20
-7.7145023
11
13.3417699
21
-7.8073714
0
LINE
8
layer0
10
13.3417699
20
-7.8073714
11
13.4572477
21
-7.9228531
0
LINE
8
layer0
10
13.4572477
20
-7.9228531
11
13.5861933
21
-8.0630749
0
LINE
8
layer0
10
13.5861933
20
-8.0630749
11
13.725822
21
-8.2282829
0
LINE
8
layer0
10
13.725822
20
-8.2282829
11
13.8747696
21
-8.4202654
0
LINE
8
layer0
10
13.8747696
20
-8.4202654
11
14.030745
21
-8.6397026
0
LINE
8
layer0
10
14.030745
20
-8.6397026
11
14.1917532
21
-8.8875691
0
LINE
8
layer0
10
14.1917532
20
-8.8875691
11
14.3379554
21
-9.1336066
0
ARC
8
layer0
10
-0.0000066
20
0.0000041
40
17
50
324.9980732
51
327.5019286
0
LINE
8
layer0
10
13.9252502
20
-9.7512636
11
13.641992
21
-9.7103449
0
LINE
8
layer0
10
13.641992
20
-9.7103449
11
13.351378
21
-9.6564471
0
LINE
8
layer0
10
13.351378
20
-9.6564471
11
13.0889553
21
-9.5963196
0
LINE
8
layer0
10
13.0889553
20
-9.5963196
11
12.8545869
21
-9.5321784
0
LINE
8
layer0
10
12.8545869
20
-9.5321784
11
12.648521
21
-9.4664008
0
LINE
8
layer0
10
12.648521
20
-9.4664008
11
12.4696276
21
-9.4009311
0
LINE
8
layer0
10
12.4696276
20
-9.4009311
11
12.3187449
21
-9.3384365
0
LINE
8
layer0
10
12.3187449
20
-9.3384365
11
12.1943167
21
-9.2807188
0
LINE
8
layer0
10
12.1943167
20
-9.2807188
11
12.0298123
21
-9.19852
0
LINE
8
layer0
10
12.0298123
20
-9.19852
11
11.9813171
21
-9.1799626
0
LINE
8
layer0
10
11.9813171
20
-9.1799626
11
11.9374173
21
-9.1673758
0
LINE
8
layer0
10
11.9374173
20
-9.1673758
11
11.8983546
21
-9.1605439
0
LINE
8
layer0
10
11.8983546
20
-9.1605439
11
11.8643438
21
-9.1592682
0
LINE
8
layer0
10
11.8643438
20
-9.1592682
11
11.8355894
21
-9.1633152
0
LINE
8
layer0
10
11.8355894
20
-9.1633152
11
11.8123127
21
-9.1724786
0
LINE
8
layer0
10
11.8123127
20
-9.1724786
11
11.7946961
21
-9.18652
0
LINE
8
layer0
10
11.7946961
20
-9.18652
11
11.7776986
21
-9.2081458
0
LINE
8
layer0
10
11.7776986
20
-9.2081458
11
11.5565063
21
-9.4841796
0
LINE
8
layer0
10
11.5565063
20
-9.4841796
11
11.3289288
21
-9.7549734
0
LINE
8
layer0
10
11.3289288
20
-9.7549734
11
11.3110347
21
-9.7758632
0
LINE
8
layer0
10
11.3110347
20
-9.7758632
11
11.3006999
21
-9.7958806
0
LINE
8
layer0
10
11.3006999
20
-9.7958806
11
11.2962536
21
-9.8204978
0
LINE
8
layer0
10
11.2962536
20
-9.8204978
11
11.297894
21
-9.8494892
0
LINE
8
layer0
10
11.297894
20
-9.8494892
11
11.3057805
21
-9.8825975
0
LINE
8
layer0
10
11.3057805
20
-9.8825975
11
11.3201019
21
-9.9195768
0
LINE
8
layer0
10
11.3201019
20
-9.9195768
11
11.3410112
21
-9.9601776
0
LINE
8
layer0
10
11.3410112
20
-9.9601776
11
11.368673
21
-10.0041206
0
LINE
8
layer0
10
11.368673
20
-10.0041206
11
11.4813856
21
-10.149428
0
LINE
8
layer0
10
11.4813856
20
-10.149428
11
11.562269
21
-10.2602051
0
LINE
8
layer0
10
11.562269
20
-10.2602051
11
11.6529985
21
-10.3959965
0
LINE
8
layer0
10
11.6529985
20
-10.3959965
11
11.7521106
21
-10.55868
0
LINE
8
layer0
10
11.7521106
20
-10.55868
11
11.8568258
21
-10.7479538
0
LINE
8
layer0
10
11.8568258
20
-10.7479538
11
11.9654575
21
-10.9653056
0
LINE
8
layer0
10
11.9654575
20
-10.9653056
11
12.0756258
21
-11.2109557
0
LINE
8
layer0
10
12.0756258
20
-11.2109557
11
12.1851839
21
-11.4854706
0
LINE
8
layer0
10
12.1851839
20
-11.4854706
11
12.2805773
21
-11.7553032
0
ARC
8
layer0
10
-0.0000056
20
0.0000056
40
17
50
313.7480723
51
316.2519277
0
LINE
8
layer0
10
11.7553032
20
-12.2805773
11
11.4854706
21
-12.1851839
0
LINE
8
layer0
10
11.4854706
20
-12.1851839
11
11.2109557
21
-12.0756258
0
LINE
8
layer0
10
11.2109557
20
-12.0756258
11
10.9653056
21
-11.9654575
0
LINE
8
layer0
10
10.9653056
20
-11.9654575
11
10.7479538
21
-11.8568258
0
LINE
8
layer0
10
10.7479538
20
-11.8568258
11
10.55868
21
-11.7521106
0
LINE
8
layer0
10
10.55868
20
-11.7521106
11
10.3959965
21
-11.6529985
0
LINE
8
layer0
10
10.3959965
20
-11.6529985
11
10.2602051
21
-11.562269
0
LINE
8
layer0
10
10.2602051
20
-11.562269
11
10.149428
21
-11.4813856
0
LINE
8
layer0
10
10.149428
20
-11.4813856
11
10.0041206
21
-11.368673
0
LINE
8
layer0
10
10.0041206
20
-11.368673
11
9.9601776
21
-11.3410112
0
LINE
8
layer0
10
9.9601776
20
-11.3410112
11
9.9195768
21
-11.3201019
0
LINE
8
layer0
10
9.9195768
20
-11.3201019
11
9.8825975
21
-11.3057805
0
LINE
8
layer0
10
9.8825975
20
-11.3057805
11
9.8494892
21
-11.297894
0
LINE
8
layer0
10
9.8494892
20
-11.297894
11
9.8204978
21
-11.2962536
0
LINE
8
layer0
10
9.8204978
20
-11.2962536
11
9.7958806
21
-11.3006999
0
LINE
8
layer0
10
9.7958806
20
-11.3006999
11
9.7758632
21
-11.3110347
0
LINE
8
layer0
10
9.7758632
20
-11.3110347
11
9.7549734
21
-11.3289288
0
LINE
8
layer0
10
9.7549734
20
-11.3289288
11
9.4841796
21
-11.5565063
0
LINE
8
layer0
10
9.4841796
20
-11.5565063
11
9.2081458
21
-11.7776986
0
LINE
8
layer0
10
9.2081458
20
-11.7776986
11
9.18652
21
-11.7946961
0
LINE
8
layer0
10
9.18652
20
-11.7946961
11
9.1724786
21
-11.8123127
0
LINE
8
layer0
10
9.1724786
20
-11.8123127
11
9.1633152
21
-11.8355894
0
LINE
8
layer0
10
9.1633152
20
-11.8355894
11
9.1592682
21
-11.8643438
0
LINE
8
layer0
10
9.1592682
20
-11.8643438
11
9.1605439
21
-11.8983546
0
LINE
8
layer0
10
9.1605439
20
-11.8983546
11
9.1673758
21
-11.9374173
0
LINE
8
layer0
10
9.1673758
20
-11.9374173
11
9.1799626
21
-11.9813171
0
LINE
8
layer0
10
9.1799626
20
-11.9813171
11
9.19852
21
-12.0298123
0
LINE
8
layer0
10
9.19852
20
-12.0298123
11
9.2807188
21
-12.1943167
0
LINE
8
layer0
10
9.2807188
20
-12.1943167
11
9.3384365
21
-12.3187449
0
LINE
8
layer0
10
9.3384365
20
-12.3187449
11
9.4009311
21
-12.4696276
0
LINE
8
layer0
10
9.4009311
20
-12.4696276
11
9.4664008
21
-12.648521
0
LINE
8
layer0
10
9.4664008
20
-12.648521
11
9.5321784
21
-12.8545869
0
LINE
8
layer0
10
9.5321784
20
-12.8545869
11
9.5963196
21
-13.0889553
0
LINE
8
layer0
10
9.5963196
20
-13.0889553
11
9.6564471
21
-13.351378
0
LINE
8
layer0
10
9.6564471
20
-13.351378
11
9.7103449
21
-13.641992
0
LINE
8
layer0
10
9.7103449
20
-13.641992
11
9.7512636
21
-13.9252502
0
ARC
8
layer0
10
-0.0000042
20
0.0000066
40
17
50
302.4980717
51
305.0019271
0
LINE
8
layer0
10
9.1336066
20
-14.3379554
11
8.8875691
21
-14.1917532
0
LINE
8
layer0
10
8.8875691
20
-14.1917532
11
8.6397026
21
-14.030745
0
LINE
8
layer0
10
8.6397026
20
-14.030745
11
8.4202654
21
-13.8747696
0
LINE
8
layer0
10
8.4202654
20
-13.8747696
11
8.2282829
21
-13.725822
0
LINE
8
layer0
10
8.2282829
20
-13.725822
11
8.0630749
21
-13.5861933
0
LINE
8
layer0
10
8.0630749
20
-13.5861933
11
7.9228531
21
-13.4572477
0
LINE
8
layer0
10
7.9228531
20
-13.4572477
11
7.8073714
21
-13.3417699
0
LINE
8
layer0
10
7.8073714
20
-13.3417699
11
7.7145023
21
-13.2408291
0
LINE
8
layer0
10
7.7145023
20
-13.2408291
11
7.5939762
21
-13.1019343
0
LINE
8
layer0
10
7.5939762
20
-13.1019343
11
7.556274
21
-13.0662311
0
LINE
8
layer0
10
7.556274
20
-13.0662311
11
7.5205326
21
-13.0378027
0
LINE
8
layer0
10
7.5205326
20
-13.0378027
11
7.4870578
21
-13.0165422
0
LINE
8
layer0
10
7.4870578
20
-13.0165422
11
7.4561242
21
-13.0023482
0
LINE
8
layer0
10
7.4561242
20
-13.0023482
11
7.4280099
21
-12.9950834
0
LINE
8
layer0
10
7.4280099
20
-12.9950834
11
7.4029983
21
-12.9946416
0
LINE
8
layer0
10
7.4029983
20
-12.9946416
11
7.3813493
21
-13.0008726
0
LINE
8
layer0
10
7.3813493
20
-13.0008726
11
7.3573699
21
-13.0143475
0
LINE
8
layer0
10
7.3573699
20
-13.0143475
11
7.0473812
21
-13.1847229
0
LINE
8
layer0
10
7.0473812
20
-13.1847229
11
6.7334988
21
-13.3478136
0
LINE
8
layer0
10
6.7334988
20
-13.3478136
11
6.7089726
21
-13.3602655
0
LINE
8
layer0
10
6.7089726
20
-13.3602655
11
6.6917641
21
-13.3748042
0
LINE
8
layer0
10
6.6917641
20
-13.3748042
11
6.6782357
21
-13.395846
0
LINE
8
layer0
10
6.6782357
20
-13.395846
11
6.6686567
21
-13.4232583
0
LINE
8
layer0
10
6.6686567
20
-13.4232583
11
6.6632728
21
-13.4568645
0
LINE
8
layer0
10
6.6632728
20
-13.4568645
11
6.6623527
21
-13.4965095
0
LINE
8
layer0
10
6.6623527
20
-13.4965095
11
6.6661332
21
-13.5420213
0
LINE
8
layer0
10
6.6661332
20
-13.5420213
11
6.6748731
21
-13.5932051
0
LINE
8
layer0
10
6.6748731
20
-13.5932051
11
6.7233992
21
-13.7705848
0
LINE
8
layer0
10
6.7233992
20
-13.7705848
11
6.7557332
21
-13.9038823
0
LINE
8
layer0
10
6.7557332
20
-13.9038823
11
6.7875912
21
-14.0640578
0
LINE
8
layer0
10
6.7875912
20
-14.0640578
11
6.8169025
21
-14.2522864
0
LINE
8
layer0
10
6.8169025
20
-14.2522864
11
6.8412148
21
-14.4672253
0
LINE
8
layer0
10
6.8412148
20
-14.4672253
11
6.8584005
21
-14.7096038
0
LINE
8
layer0
10
6.8584005
20
-14.7096038
11
6.8661766
21
-14.9787144
0
LINE
8
layer0
10
6.8661766
20
-14.9787144
11
6.8623427
21
-15.2742593
0
LINE
8
layer0
10
6.8623427
20
-15.2742593
11
6.8472143
21
-15.5600575
0
ARC
8
layer0
10
-0.000003
20
0.0000073
40
17
50
291.2480723
51
293.7519278
0
LINE
8
layer0
10
6.1609106
20
-15.8443338
11
5.9481232
21
-15.6529414
0
LINE
8
layer0
10
5.9481232
20
-15.6529414
11
5.7364306
21
-15.4466706
0
LINE
8
layer0
10
5.7364306
20
-15.4466706
11
5.5516391
21
-15.2508821
0
LINE
8
layer0
10
5.5516391
20
-15.2508821
11
5.3924038
21
-15.0673425
0
LINE
8
layer0
10
5.3924038
20
-15.0673425
11
5.2576103
21
-14.8981663
0
LINE
8
layer0
10
5.2576103
20
-14.8981663
11
5.1452389
21
-14.7443424
0
LINE
8
layer0
10
5.1452389
20
-14.7443424
11
5.0545047
21
-14.6085542
0
LINE
8
layer0
10
5.0545047
20
-14.6085542
11
4.9831127
21
-14.4914351
0
LINE
8
layer0
10
4.9831127
20
-14.4914351
11
4.8919995
21
-14.3316955
0
LINE
8
layer0
10
4.8919995
20
-14.3316955
11
4.8619871
21
-14.2893231
0
LINE
8
layer0
10
4.8619871
20
-14.2893231
11
4.8324786
21
-14.2544681
0
LINE
8
layer0
10
4.8324786
20
-14.2544681
11
4.8037947
21
-14.2270855
0
LINE
8
layer0
10
4.8037947
20
-14.2270855
11
4.7762246
21
-14.2071294
0
LINE
8
layer0
10
4.7762246
20
-14.2071294
11
4.7500678
21
-14.1945193
0
LINE
8
layer0
10
4.7500678
20
-14.1945193
11
4.725623
21
-14.1892065
0
LINE
8
layer0
10
4.725623
20
-14.1892065
11
4.7031743
21
-14.1910943
0
LINE
8
layer0
10
4.7031743
20
-14.1910943
11
4.6770268
21
-14.1996322
0
LINE
8
layer0
10
4.6770268
20
-14.1996322
11
4.3397559
21
-14.306258
0
LINE
8
layer0
10
4.3397559
20
-14.306258
11
4.0000873
21
-14.4049795
0
LINE
8
layer0
10
4.0000873
20
-14.4049795
11
3.973603
21
-14.4124073
0
LINE
8
layer0
10
3.973603
20
-14.4124073
11
3.9538889
21
-14.4233095
0
LINE
8
layer0
10
3.9538889
20
-14.4233095
11
3.9365154
21
-14.4413078
0
LINE
8
layer0
10
3.9365154
20
-14.4413078
11
3.9217726
21
-14.4663246
0
LINE
8
layer0
10
3.9217726
20
-14.4663246
11
3.9099359
21
-14.4982346
0
LINE
8
layer0
10
3.9099359
20
-14.4982346
11
3.9012991
21
-14.5369383
0
LINE
8
layer0
10
3.9012991
20
-14.5369383
11
3.8961281
21
-14.5823132
0
LINE
8
layer0
10
3.8961281
20
-14.5823132
11
3.8947145
21
-14.6342186
0
LINE
8
layer0
10
3.8947145
20
-14.6342186
11
3.9077032
21
-14.817657
0
LINE
8
layer0
10
3.9077032
20
-14.817657
11
3.9134108
21
-14.9547012
0
LINE
8
layer0
10
3.9134108
20
-14.9547012
11
3.9134079
21
-15.1180143
0
LINE
8
layer0
10
3.9134079
20
-15.1180143
11
3.9054345
21
-15.3083444
0
LINE
8
layer0
10
3.9054345
20
-15.3083444
11
3.8873471
21
-15.5238965
0
LINE
8
layer0
10
3.8873471
20
-15.5238965
11
3.8569169
21
-15.7649705
0
LINE
8
layer0
10
3.8569169
20
-15.7649705
11
3.8120427
21
-16.0304272
0
LINE
8
layer0
10
3.8120427
20
-16.0304272
11
3.7506246
21
-16.3195453
0
LINE
8
layer0
10
3.7506246
20
-16.3195453
11
3.6800303
21
-16.5969006
0
ARC
8
layer0
10
-0.0000016
20
0.0000077
40
17
50
279.9980725
51
282.5019279
0
LINE
8
layer0
10
2.9514542
20
-16.7418234
11
2.7800943
21
-16.5125958
0
LINE
8
layer0
10
2.7800943
20
-16.5125958
11
2.6127107
21
-16.2689892
0
LINE
8
layer0
10
2.6127107
20
-16.2689892
11
2.4696664
21
-16.0409117
0
LINE
8
layer0
10
2.4696664
20
-16.0409117
11
2.3492975
21
-15.8298335
0
LINE
8
layer0
10
2.3492975
20
-15.8298335
11
2.2500988
21
-15.6376111
0
LINE
8
layer0
10
2.2500988
20
-15.6376111
11
2.1698961
21
-15.4648203
0
LINE
8
layer0
10
2.1698961
20
-15.4648203
11
2.1073963
21
-15.3139398
0
LINE
8
layer0
10
2.1073963
20
-15.3139398
11
2.0602249
21
-15.1851433
0
LINE
8
layer0
10
2.0602249
20
-15.1851433
11
2.002026
21
-15.0106978
0
LINE
8
layer0
10
2.002026
20
-15.0106978
11
1.9808567
21
-14.9632844
0
LINE
8
layer0
10
1.9808567
20
-14.9632844
11
1.9587151
21
-14.9233423
0
LINE
8
layer0
10
1.9587151
20
-14.9233423
11
1.9359245
21
-14.8908899
0
LINE
8
layer0
10
1.9359245
20
-14.8908899
11
1.9127773
21
-14.8659386
0
LINE
8
layer0
10
1.9127773
20
-14.8659386
11
1.8895832
21
-14.8484679
0
LINE
8
layer0
10
1.8895832
20
-14.8484679
11
1.8666446
21
-14.8384882
0
LINE
8
layer0
10
1.8666446
20
-14.8384882
11
1.844259
21
-14.8359602
0
LINE
8
layer0
10
1.844259
20
-14.8359602
11
1.8169483
21
-14.8392329
0
LINE
8
layer0
10
1.8169483
20
-14.8392329
11
1.4653562
21
-14.8780117
0
LINE
8
layer0
10
1.4653562
20
-14.8780117
11
1.1129546
21
-14.9085702
0
LINE
8
layer0
10
1.1129546
20
-14.9085702
11
1.0855302
21
-14.9106885
0
LINE
8
layer0
10
1.0855302
20
-14.9106885
11
1.0640679
21
-14.9175351
0
LINE
8
layer0
10
1.0640679
20
-14.9175351
11
1.043517
21
-14.9317981
0
LINE
8
layer0
10
1.043517
20
-14.9317981
11
1.0241769
21
-14.9534581
0
LINE
8
layer0
10
1.0241769
20
-14.9534581
11
1.0063423
21
-14.9824458
0
LINE
8
layer0
10
1.0063423
20
-14.9824458
11
0.9903207
21
-15.0187208
0
LINE
8
layer0
10
0.9903207
20
-15.0187208
11
0.9763969
21
-15.0622151
0
LINE
8
layer0
10
0.9763969
20
-15.0622151
11
0.9648843
21
-15.1128473
0
LINE
8
layer0
10
0.9648843
20
-15.1128473
11
0.9418363
21
-15.2952949
0
LINE
8
layer0
10
0.9418363
20
-15.2952949
11
0.9206982
21
-15.4308194
0
LINE
8
layer0
10
0.9206982
20
-15.4308194
11
0.8888346
21
-15.5909939
0
LINE
8
layer0
10
0.8888346
20
-15.5909939
11
0.8438828
21
-15.7761113
0
LINE
8
layer0
10
0.8438828
20
-15.7761113
11
0.7840909
21
-15.9839929
0
LINE
8
layer0
10
0.7840909
20
-15.9839929
11
0.7072142
21
-16.2144981
0
LINE
8
layer0
10
0.7072142
20
-16.2144981
11
0.6114141
21
-16.4660997
0
LINE
8
layer0
10
0.6114141
20
-16.4660997
11
0.494772
21
-16.7376804
0
LINE
8
layer0
10
0.494772
20
-16.7376804
11
0.3714249
21
-16.9959341
0
ARC
8
layer0
10
0
20
0.0000079
40
17
50
268.7480722
51
271.2519278
0
LINE
8
layer0
10
-0.3714249
20
-16.9959341
11
-0.494772
21
-16.7376804
0
LINE
8
layer0
10
-0.494772
20
-16.7376804
11
-0.6114141
21
-16.4660997
0
LINE
8
layer0
10
-0.6114141
20
-16.4660997
11
-0.7072142
21
-16.2144981
0
LINE
8
layer0
10
-0.7072142
20
-16.2144981
11
-0.7840909
21
-15.9839929
0
LINE
8
layer0
10
-0.7840909
20
-15.9839929
11
-0.8438828
21
-15.7761113
0
LINE
8
layer0
10
-0.8438828
20
-15.7761113
11
-0.8888346
21
-15.5909939
0
LINE
8
layer0
10
-0.8888346
20
-15.5909939
11
-0.9206982
21
-15.4308194
0
LINE
8
layer0
10
-0.9206982
20
-15.4308194
11
-0.9418363
21
-15.2952949
0
LINE
8
layer0
10
-0.9418363
20
-15.2952949
11
-0.9648843
21
-15.1128473
0
LINE
8
layer0
10
-0.9648843
20
-15.1128473
11
-0.9763969
21
-15.0622151
0
LINE
8
layer0
10
-0.9763969
20
-15.0622151
11
-0.9903207
21
-15.0187208
0
LINE
8
layer0
10
-0.9903207
20
-15.0187208
11
-1.0063423
21
-14.9824458
0
LINE
8
layer0
10
-1.0063423
20
-14.9824458
11
-1.0241769
21
-14.9534581
0
LINE
8
layer0
10
-1.0241769
20
-14.9534581
11
-1.043517
21
-14.9317981
0
LINE
8
layer0
10
-1.043517
20
-14.9317981
11
-1.0640679
21
-14.9175351
0
LINE
8
layer0
10
-1.0640679
20
-14.9175351
11
-1.0855302
21
-14.9106885
0
LINE
8
layer0
10
-1.0855302
20
-14.9106885
11
-1.1129546
21
-14.9085702
0
LINE
8
layer0
10
-1.1129546
20
-14.9085702
11
-1.4653562
21
-14.8780117
0
LINE
8
layer0
10
-1.4653562
20
-14.8780117
11
-1.8169483
21
-14.8392329
0
LINE
8
layer0
10
-1.8169483
20
-14.8392329
11
-1.844259
21
-14.8359602
0
LINE
8
layer0
10
-1.844259
20
-14.8359602
11
-1.8666446
21
-14.8384882
0
LINE
8
layer0
10
-1.8666446
20
-14.8384882
11
-1.8895832
21
-14.8484679
0
LINE
8
layer0
10
-1.8895832
20
-14.8484679
11
-1.9127773
21
-14.8659386
0
LINE
8
layer0
10
-1.9127773
20
-14.8659386
11
-1.9359245
21
-14.8908899
0
LINE
8
layer0
10
-1.9359245
20
-14.8908899
11
-1.9587151
21
-14.9233423
0
LINE
8
layer0
10
-1.9587151
20
-14.9233423
11
-1.9808567
21
-14.9632844
0
LINE
8
layer0
10
-1.9808567
20
-14.9632844
11
-2.002026
21
-15.0106978
0
LINE
8
layer0
10
-2.002026
20
-15.0106978
11
-2.0602249
21
-15.1851433
0
LINE
8
layer0
10
-2.0602249
20
-15.1851433
11
-2.1073963
21
-15.3139398
0
LINE
8
layer0
10
-2.1073963
20
-15.3139398
11
-2.1698961
21
-15.4648203
0
LINE
8
layer0
10
-2.1698961
20
-15.4648203
11
-2.2500988
21
-15.6376111
0
LINE
8
layer0
10
-2.2500988
20
-15.6376111
11
-2.3492975
21
-15.8298335
0
LINE
8
layer0
10
-2.3492975
20
-15.8298335
11
-2.4696664
21
-16.0409117
0
LINE
8
layer0
10
-2.4696664
20
-16.0409117
11
-2.6127107
21
-16.2689892
0
LINE
8
layer0
10
-2.6127107
20
-16.2689892
11
-2.7800943
21
-16.5125958
0
LINE
8
layer0
10
-2.7800943
20
-16.5125958
11
-2.9514542
21
-16.7418234
0
ARC
8
layer0
10
0.0000016
20
0.0000077
40
17
50
257.4980721
51
260.0019275
0
LINE
8
layer0
10
-3.6800303
20
-16.5969006
11
-3.7506246
21
-16.3195453
0
LINE
8
layer0
10
-3.7506246
20
-16.3195453
11
-3.8120427
21
-16.0304272
0
LINE
8
layer0
10
-3.8120427
20
-16.0304272
11
-3.8569169
21
-15.7649705
0
LINE
8
layer0
10
-3.8569169
20
-15.7649705
11
-3.8873471
21
-15.5238965
0
LINE
8
layer0
10
-3.8873471
20
-15.5238965
11
-3.9054345
21
-15.3083444
0
LINE
8
layer0
10
-3.9054345
20
-15.3083444
11
-3.9134079
21
-15.1180143
0
LINE
8
layer0
10
-3.9134079
20
-15.1180143
11
-3.9134108
21
-14.9547012
0
LINE
8
layer0
10
-3.9134108
20
-14.9547012
11
-3.9077032
21
-14.817657
0
LINE
8
layer0
10
-3.9077032
20
-14.817657
11
-3.8947145
21
-14.6342186
0
LINE
8
layer0
10
-3.8947145
20
-14.6342186
11
-3.8961281
21
-14.5823132
0
LINE
8
layer0
10
-3.8961281
20
-14.5823132
11
-3.9012991
21
-14.5369383
0
LINE
8
layer0
10
-3.9012991
20
-14.5369383
11
-3.9099359
21
-14.4982346
0
LINE
8
layer0
10
-3.9099359
20
-14.4982346
11
-3.9217726
21
-14.4663246
0
LINE
8
layer0
10
-3.9217726
20
-14.4663246
11
-3.9365154
21
-14.4413078
0
LINE
8
layer0
10
-3.9365154
20
-14.4413078
11
-3.9538889
21
-14.4233095
0
LINE
8
layer0
10
-3.9538889
20
-14.4233095
11
-3.973603
21
-14.4124073
0
LINE
8
layer0
10
-3.973603
20
-14.4124073
11
-4.0000873
21
-14.4049795
0
LINE
8
layer0
10
-4.0000873
20
-14.4049795
11
-4.3397559
21
-14.306258
0
LINE
8
layer0
10
-4.3397559
20
-14.306258
11
-4.6770268
21
-14.1996322
0
LINE
8
layer0
10
-4.6770268
20
-14.1996322
11
-4.7031743
21
-14.1910943
0
LINE
8
layer0
10
-4.7031743
20
-14.1910943
11
-4.725623
21
-14.1892065
0
LINE
8
layer0
10
-4.725623
20
-14.1892065
11
-4.7500678
21
-14.1945193
0
LINE
8
layer0
10
-4.7500678
20
-14.1945193
11
-4.7762246
21
-14.2071294
0
LINE
8
layer0
10
-4.7762246
20
-14.2071294
11
-4.8037947
21
-14.2270855
0
LINE
8
layer0
10
-4.8037947
20
-14.2270855
11
-4.8324786
21
-14.2544681
0
LINE
8
layer0
10
-4.8324786
20
-14.2544681
11
-4.8619871
21
-14.2893231
0
LINE
8
layer0
10
-4.8619871
20
-14.2893231
11
-4.8919995
21
-14.3316955
0
LINE
8
layer0
10
-4.8919995
20
-14.3316955
11
-4.9831127
21
-14.4914351
0
LINE
8
layer0
10
-4.9831127
20
-14.4914351
11
-5.0545047
21
-14.6085542
0
LINE
8
layer0
10
-5.0545047
20
-14.6085542
11
-5.1452389
21
-14.7443424
0
LINE
8
layer0
10
-5.1452389
20
-14.7443424
11
-5.2576103
21
-14.8981663
0
LINE
8
layer0
10
-5.2576103
20
-14.8981663
11
-5.3924038
21
-15.0673425
0
LINE
8
layer0
10
-5.3924038
20
-15.0673425
11
-5.5516391
21
-15.2508821
0
LINE
8
layer0
10
-5.5516391
20
-15.2508821
11
-5.7364306
21
-15.4466706
0
LINE
8
layer0
10
-5.7364306
20
-15.4466706
11
-5.9481232
21
-15.6529414
0
LINE
8
layer0
10
-5.9481232
20
-15.6529414
11
-6.1609106
21
-15.8443338
0
ARC
8
layer0
10
0.0000029
20
0.0000073
40
17
50
246.2480725
51
248.751928
0
LINE
8
layer0
10
-6.8472143
20
-15.5600575
11
-6.8623427
21
-15.2742593
0
LINE
8
layer0
10
-6.8623427
20
-15.2742593
11
-6.8661766
21
-14.9787144
0
LINE
8
layer0
10
-6.8661766
20
-14.9787144
11
-6.8584005
21
-14.7096038
0
LINE
8
layer0
10
-6.8584005
20
-14.7096038
11
-6.8412148
21
-14.4672253
0
LINE
8
layer0
10
-6.8412148
20
-14.4672253
11
-6.8169025
21
-14.2522864
0
LINE
8
layer0
10
-6.8169025
20
-14.2522864
11
-6.7875912
21
-14.0640578
0
LINE
8
layer0
10
-6.7875912
20
-14.0640578
11
-6.7557332
21
-13.9038823
0
LINE
8
layer0
10
-6.7557332
20
-13.9038823
11
-6.7233992
21
-13.7705848
0
LINE
8
layer0
10
-6.7233992
20
-13.7705848
11
-6.6748731
21
-13.5932051
0
LINE
8
layer0
10
-6.6748731
20
-13.5932051
11
-6.6661332
21
-13.5420213
0
LINE
8
layer0
10
-6.6661332
20
-13.5420213
11
-6.6623527
21
-13.4965095
0
LINE
8
layer0
10
-6.6623527
20
-13.4965095
11
-6.6632728
21
-13.4568645
0
LINE
8
layer0
10
-6.6632728
20
-13.4568645
11
-6.6686567
21
-13.4232583
0
LINE
8
layer0
10
-6.6686567
20
-13.4232583
11
-6.6782357
21
-13.395846
0
LINE
8
layer0
10
-6.6782357
20
-13.395846
11
-6.6917641
21
-13.3748042
0
LINE
8
layer0
10
-6.6917641
20
-13.3748042
11
-6.7089726
21
-13.3602655
0
LINE
8
layer0
10
-6.7089726
20
-13.3602655
11
-6.7334988
21
-13.3478136
0
LINE
8
layer0
10
-6.7334988
20
-13.3478136
11
-7.0473812
21
-13.1847229
0
LINE
8
layer0
10
-7.0473812
20
-13.1847229
11
-7.3573699
21
-13.0143475
0
LINE
8
layer0
10
-7.3573699
20
-13.0143475
11
-7.3813493
21
-13.0008726
0
LINE
8
layer0
10
-7.3813493
20
-13.0008726
11
-7.4029983
21
-12.9946416
0
LINE
8
layer0
10
-7.4029983
20
-12.9946416
11
-7.4280099
21
-12.9950834
0
LINE
8
layer0
10
-7.4280099
20
-12.9950834
11
-7.4561242
21
-13.0023482
0
LINE
8
layer0
10
-7.4561242
20
-13.0023482
11
-7.4870578
21
-13.0165422
0
LINE
8
layer0
10
-7.4870578
20
-13.0165422
11
-7.5205326
21
-13.0378027
0
LINE
8
layer0
10
-7.5205326
20
-13.0378027
11
-7.556274
21
-13.0662311
0
LINE
8
layer0
10
-7.556274
20
-13.0662311
11
-7.5939762
21
-13.1019343
0
LINE
8
layer0
10
-7.5939762
20
-13.1019343
11
-7.7145023
21
-13.2408291
0
LINE
8
layer0
10
-7.7145023
20
-13.2408291
11
-7.8073714
21
-13.3417699
0
LINE
8
layer0
10
-7.8073714
20
-13.3417699
11
-7.9228531
21
-13.4572477
0
LINE
8
layer0
10
-7.9228531
20
-13.4572477
11
-8.0630749
21
-13.5861933
0
LINE
8
layer0
10
-8.0630749
20
-13.5861933
11
-8.2282829
21
-13.725822
0
LINE
8
layer0
10
-8.2282829
20
-13.725822
11
-8.4202654
21
-13.8747696
0
LINE
8
layer0
10
-8.4202654
20
-13.8747696
11
-8.6397026
21
-14.030745
0
LINE
8
layer0
10
-8.6397026
20
-14.030745
11
-8.8875691
21
-14.1917532
0
LINE
8
layer0
10
-8.8875691
20
-14.1917532
11
-9.1336066
21
-14.3379554
0
ARC
8
layer0
10
0.0000041
20
0.0000066
40
17
50
234.9980732
51
237.5019286
0
LINE
8
layer0
10
-9.7512636
20
-13.9252502
11
-9.7103449
21
-13.641992
0
LINE
8
layer0
10
-9.7103449
20
-13.641992
11
-9.6564471
21
-13.351378
0
LINE
8
layer0
10
-9.6564471
20
-13.351378
11
-9.5963196
21
-13.0889553
0
LINE
8
layer0
10
-9.5963196
20
-13.0889553
11
-9.5321784
21
-12.8545869
0
LINE
8
layer0
10
-9.5321784
20
-12.8545869
11
-9.4664008
21
-12.648521
0
LINE
8
layer0
10
-9.4664008
20
-12.648521
11
-9.4009311
21
-12.4696276
0
LINE
8
layer0
10
-9.4009311
20
-12.4696276
11
-9.3384365
21
-12.3187449
0
LINE
8
layer0
10
-9.3384365
20
-12.3187449
11
-9.2807188
21
-12.1943167
0
LINE
8
layer0
10
-9.2807188
20
-12.1943167
11
-9.19852
21
-12.0298123
0
LINE
8
layer0
10
-9.19852
20
-12.0298123
11
-9.1799626
21
-11.9813171
0
LINE
8
layer0
10
-9.1799626
20
-11.9813171
11
-9.1673758
21
-11.9374173
0
LINE
8
layer0
10
-9.1673758
20
-11.9374173
11
-9.1605439
21
-11.8983546
0
LINE
8
layer0
10
-9.1605439
20
-11.8983546
11
-9.1592682
21
-11.8643438
0
LINE
8
layer0
10
-9.1592682
20
-11.8643438
11
-9.1633152
21
-11.8355894
0
LINE
8
layer0
10
-9.1633152
20
-11.8355894
11
-9.1724786
21
-11.8123127
0
LINE
8
layer0
10
-9.1724786
20
-11.8123127
11
-9.18652
21
-11.7946961
0
LINE
8
layer0
10
-9.18652
20
-11.7946961
11
-9.2081458
21
-11.7776986
0
LINE
8
layer0
10
-9.2081458
20
-11.7776986
11
-9.4841796
21
-11.5565063
0
LINE
8
layer0
10
-9.4841796
20
-11.5565063
11
-9.7549734
21
-11.3289288
0
LINE
8
layer0
10
-9.7549734
20
-11.3289288
11
-9.7758632
21
-11.3110347
0
LINE
8
layer0
10
-9.7758632
20
-11.3110347
11
-9.7958806
21
-11.3006999
0
LINE
8
layer0
10
-9.7958806
20
-11.3006999
11
-9.8204978
21
-11.2962536
0
LINE
8
layer0
10
-9.8204978
20
-11.2962536
11
-9.8494892
21
-11.297894
0
LINE
8
layer0
10
-9.8494892
20
-11.297894
11
-9.8825975
21
-11.3057805
0
LINE
8
layer0
10
-9.8825975
20
-11.3057805
11
-9.9195768
21
-11.3201019
0
LINE
8
layer0
10
-9.9195768
20
-11.3201019
11
-9.9601776
21
-11.3410112
0
LINE
8
layer0
10
-9.9601776
20
-11.3410112
11
-10.0041206
21
-11.368673
0
LINE
8
layer0
10
-10.0041206
20
-11.368673
11
-10.149428
21
-11.4813856
0
LINE
8
layer0
10
-10.149428
20
-11.4813856
11
-10.2602051
21
-11.562269
0
LINE
8
layer0
10
-10.2602051
20
-11.562269
11
-10.3959965
21
-11.6529985
0
LINE
8
layer0
10
-10.3959965
20
-11.6529985
11
-10.55868
21
-11.7521106
0
LINE
8
layer0
10
-10.55868
20
-11.7521106
11
-10.7479538
21
-11.8568258
0
LINE
8
layer0
10
-10.7479538
20
-11.8568258
11
-10.9653056
21
-11.9654575
0
LINE
8
layer0
10
-10.9653056
20
-11.9654575
11
-11.2109557
21
-12.0756258
0
LINE
8
layer0
10
-11.2109557
20
-12.0756258
11
-11.4854706
21
-12.1851839
0
LINE
8
layer0
10
-11.4854706
20
-12.1851839
11
-11.7553032
21
-12.2805773
0
ARC
8
layer0
10
0.0000056
20
0.0000056
40
17
50
223.7480723
51
226.2519277
0
LINE
8
layer0
10
-12.2805773
20
-11.7553032
11
-12.1851839
21
-11.4854706
0
LINE
8
layer0
10
-12.1851839
20
-11.4854706
11
-12.0756258
21
-11.2109557
0
LINE
8
layer0
10
-12.0756258
20
-11.2109557
11
-11.9654575
21
-10.9653056
0
LINE
8
layer0
10
-11.9654575
20
-10.9653056
11
-11.8568258
21
-10.7479538
0
LINE
8
layer0
10
-11.8568258
20
-10.7479538
11
-11.7521106
21
-10.55868
0
LINE
8
layer0
10
-11.7521106
20
-10.55868
11
-11.6529985
21
-10.3959965
0
LINE
8
layer0
10
-11.6529985
20
-10.3959965
11
-11.562269
21
-10.2602051
0
LINE
8
layer0
10
-11.562269
20
-10.2602051
11
-11.4813856
21
-10.149428
0
LINE
8
layer0
10
-11.4813856
20
-10.149428
11
-11.368673
21
-10.0041206
0
LINE
8
layer0
10
-11.368673
20
-10.0041206
11
-11.3410112
21
-9.9601776
0
LINE
8
layer0
10
-11.3410112
20
-9.9601776
11
-11.3201019
21
-9.9195768
0
LINE
8
layer0
10
-11.3201019
20
-9.9195768
11
-11.3057805
21
-9.8825975
0
LINE
8
layer0
10
-11.3057805
20
-9.8825975
11
-11.297894
21
-9.8494892
0
LINE
8
layer0
10
-11.297894
20
-9.8494892
11
-11.2962536
21
-9.8204978
0
LINE
8
layer0
10
-11.2962536
20
-9.8204978
11
-11.3006999
21
-9.7958806
0
LINE
8
layer0
10
-11.3006999
20
-9.7958806
11
-11.3110347
21
-9.7758632
0
LINE
8
layer0
10
-11.3110347
20
-9.7758632
11
-11.3289288
21
-9.7549734
0
LINE
8
layer0
10
-11.3289288
20
-9.7549734
11
-11.5565063
21
-9.4841796
0
LINE
8
layer0
10
-11.5565063
20
-9.4841796
11
-11.7776986
21
-9.2081458
0
LINE
8
layer0
10
-11.7776986
20
-9.2081458
11
-11.7946961
21
-9.18652
0
LINE
8
layer0
10
-11.7946961
20
-9.18652
11
-11.8123127
21
-9.1724786
0
LINE
8
layer0
10
-11.8123127
20
-9.1724786
11
-11.8355894
21
-9.1633152
0
LINE
8
layer0
10
-11.8355894
20
-9.1633152
11
-11.8643438
21
-9.1592682
0
LINE
8
layer0
10
-11.8643438
20
-9.1592682
11
-11.8983546
21
-9.1605439
0
LINE
8
layer0
10
-11.8983546
20
-9.1605439
11
-11.9374173
21
-9.1673758
0
LINE
8
layer0
10
-11.9374173
20
-9.1673758
11
-11.9813171
21
-9.1799626
0
LINE
8
layer0
10
-11.9813171
20
-9.1799626
11
-12.0298123
21
-9.19852
0
LINE
8
layer0
10
-12.0298123
20
-9.19852
11
-12.1943167
21
-9.2807188
0
LINE
8
layer0
10
-12.1943167
20
-9.2807188
11
-12.3187449
21
-9.3384365
0
LINE
8
layer0
10
-12.3187449
20
-9.3384365
11
-12.4696276
21
-9.4009311
0
LINE
8
layer0
10
-12.4696276
20
-9.4009311
11
-12.648521
21
-9.4664008
0
LINE
8
layer0
10
-12.648521
20
-9.4664008
11
-12.8545869
21
-9.5321784
0
LINE
8
layer0
10
-12.8545869
20
-9.5321784
11
-13.0889553
21
-9.5963196
0
LINE
8
layer0
10
-13.0889553
20
-9.5963196
11
-13.351378
21
-9.6564471
0
LINE
8
layer0
10
-13.351378
20
-9.6564471
11
-13.641992
21
-9.7103449
0
LINE
8
layer0
10
-13.641992
20
-9.7103449
11
-13.9252502
21
-9.7512636
0
ARC
8
layer0
10
0.0000066
20
0.0000042
40
17
50
212.4980717
51
215.0019271
0
LINE
8
layer0
10
-14.3379554
20
-9.1336066
11
-14.1917532
21
-8.8875691
0
LINE
8
layer0
10
-14.1917532
20
-8.8875691
11
-14.030745
21
-8.6397026
0
LINE
8
layer0
10
-14.030745
20
-8.6397026
11
-13.8747696
21
-8.4202654
0
LINE
8
layer0
10
-13.8747696
20
-8.4202654
11
-13.725822
21
-8.2282829
0
LINE
8
layer0
10
-13.725822
20
-8.2282829
11
-13.5861933
21
-8.0630749
0
LINE
8
layer0
10
-13.5861933
20
-8.0630749
11
-13.4572477
21
-7.9228531
0
LINE
8
layer0
10
-13.4572477
20
-7.9228531
11
-13.3417699
21
-7.8073714
0
LINE
8
layer0
10
-13.3417699
20
-7.8073714
11
-13.2408291
21
-7.7145023
0
LINE
8
layer0
10
-13.2408291
20
-7.7145023
11
-13.1019343
21
-7.5939762
0
LINE
8
layer0
10
-13.1019343
20
-7.5939762
11
-13.0662311
21
-7.556274
0
LINE
8
layer0
10
-13.0662311
20
-7.556274
11
-13.0378027
21
-7.5205326
0
LINE
8
layer0
10
-13.0378027
20
-7.5205326
11
-13.0165422
21
-7.4870578
0
LINE
8
layer0
10
-13.0165422
20
-7.4870578
11
-13.0023482
21
-7.4561242
0
LINE
8
layer0
10
-13.0023482
20
-7.4561242
11
-12.9950834
21
-7.4280099
0
LINE
8
layer0
10
-12.9950834
20
-7.4280099
11
-12.9946416
21
-7.4029983
0
LINE
8
layer0
10
-12.9946416
20
-7.4029983
11
-13.0008726
21
-7.3813493
0
LINE
8
layer0
10
-13.0008726
20
-7.3813493
11
-13.0143475
21
-7.3573699
0
LINE
8
layer0
10
-13.0143475
20
-7.3573699
11
-13.1847229
21
-7.0473812
0
LINE
8
layer0
10
-13.1847229
20
-7.0473812
11
-13.3478136
21
-6.7334988
0
LINE
8
layer0
10
-13.3478136
20
-6.7334988
11
-13.3602655
21
-6.7089726
0
LINE
8
layer0
10
-13.3602655
20
-6.7089726
11
-13.3748042
21
-6.6917641
0
LINE
8
layer0
10
-13.3748042
20
-6.6917641
11
-13.395846
21
-6.6782357
0
LINE
8
layer0
10
-13.395846
20
-6.6782357
11
-13.4232583
21
-6.6686567
0
LINE
8
layer0
10
-13.4232583
20
-6.6686567
11
-13.4568645
21
-6.6632728
0
LINE
8
layer0
10
-13.4568645
20
-6.6632728
11
-13.4965095
21
-6.6623527
0
LINE
8
layer0
10
-13.4965095
20
-6.6623527
11
-13.5420213
21
-6.6661332
0
LINE
8
layer0
10
-13.5420213
20
-6.6661332
11
-13.5932051
21
-6.6748731
0
LINE
8
layer0
10
-13.5932051
20
-6.6748731
11
-13.7705848
21
-6.7233992
0
LINE
8
layer0
10
-13.7705848
20
-6.7233992
11
-13.9038823
21
-6.7557332
0
LINE
8
layer0
10
-13.9038823
20
-6.7557332
11
-14.0640578
21
-6.7875912
0
LINE
8
layer0
10
-14.0640578
20
-6.7875912
11
-14.2522864
21
-6.8169025
0
LINE
8
layer0
10
-14.2522864
20
-6.8169025
11
-14.4672253
21
-6.8412148
0
LINE
8
layer0
10
-14.4672253
20
-6.8412148
11
-14.7096038
21
-6.8584005
0
LINE
8
layer0
10
-14.7096038
20
-6.8584005
11
-14.9787144
21
-6.8661766
0
LINE
8
layer0
10
-14.9787144
20
-6.8661766
11
-15.2742593
21
-6.8623427
0
LINE
8
layer0
10
-15.2742593
20
-6.8623427
11
-15.5600575
21
-6.8472143
0
ARC
8
layer0
10
0.0000073
20
0.000003
40
17
50
201.2480723
51
203.7519278
0
LINE
8
layer0
10
-15.8443338
20
-6.1609106
11
-15.6529414
21
-5.9481232
0
LINE
8
layer0
10
-15.6529414
20
-5.9481232
11
-15.4466706
21
-5.7364306
0
LINE
8
layer0
10
-15.4466706
20
-5.7364306
11
-15.2508821
21
-5.5516391
0
LINE
8
layer0
10
-15.2508821
20
-5.5516391
11
-15.0673425
21
-5.3924038
0
LINE
8
layer0
10
-15.0673425
20
-5.3924038
11
-14.8981663
21
-5.2576103
0
LINE
8
layer0
10
-14.8981663
20
-5.2576103
11
-14.7443424
21
-5.1452389
0
LINE
8
layer0
10
-14.7443424
20
-5.1452389
11
-14.6085542
21
-5.0545047
0
LINE
8
layer0
10
-14.6085542
20
-5.0545047
11
-14.4914351
21
-4.9831127
0
LINE
8
layer0
10
-14.4914351
20
-4.9831127
11
-14.3316955
21
-4.8919995
0
LINE
8
layer0
10
-14.3316955
20
-4.8919995
11
-14.2893231
21
-4.8619871
0
LINE
8
layer0
10
-14.2893231
20
-4.8619871
11
-14.2544681
21
-4.8324786
0
LINE
8
layer0
10
-14.2544681
20
-4.8324786
11
-14.2270855
21
-4.8037947
0
LINE
8
layer0
10
-14.2270855
20
-4.8037947
11
-14.2071294
21
-4.7762246
0
LINE
8
layer0
10
-14.2071294
20
-4.7762246
11
-14.1945193
21
-4.7500678
0
LINE
8
layer0
10
-14.1945193
20
-4.7500678
11
-14.1892065
21
-4.725623
0
LINE
8
layer0
10
-14.1892065
20
-4.725623
11
-14.1910943
21
-4.7031743
0
LINE
8
layer0
10
-14.1910943
20
-4.7031743
11
-14.1996322
21
-4.6770268
0
LINE
8
layer0
10
-14.1996322
20
-4.6770268
11
-14.306258
21
-4.3397559
0
LINE
8
layer0
10
-14.306258
20
-4.3397559
11
-14.4049795
21
-4.0000873
0
LINE
8
layer0
10
-14.4049795
20
-4.0000873
11
-14.4124073
21
-3.973603
0
LINE
8
layer0
10
-14.4124073
20
-3.973603
11
-14.4233095
21
-3.9538889
0
LINE
8
layer0
10
-14.4233095
20
-3.9538889
11
-14.4413078
21
-3.9365154
0
LINE
8
layer0
10
-14.4413078
20
-3.9365154
11
-14.4663246
21
-3.9217726
0
LINE
8
layer0
10
-14.4663246
20
-3.9217726
11
-14.4982346
21
-3.9099359
0
LINE
8
layer0
10
-14.4982346
20
-3.9099359
11
-14.5369383
21
-3.9012991
0
LINE
8
layer0
10
-14.5369383
20
-3.9012991
11
-14.5823132
21
-3.8961281
0
LINE
8
layer0
10
-14.5823132
20
-3.8961281
11
-14.6342186
21
-3.8947145
0
LINE
8
layer0
10
-14.6342186
20
-3.8947145
11
-14.817657
21
-3.9077032
0
LINE
8
layer0
10
-14.817657
20
-3.9077032
11
-14.9547012
21
-3.9134108
0
LINE
8
layer0
10
-14.9547012
20
-3.9134108
11
-15.1180143
21
-3.9134079
0
LINE
8
layer0
10
-15.1180143
20
-3.9134079
11
-15.3083444
21
-3.9054345
0
LINE
8
layer0
10
-15.3083444
20
-3.9054345
11
-15.5238965
21
-3.8873471
0
LINE
8
layer0
10
-15.5238965
20
-3.8873471
11
-15.7649705
21
-3.8569169
0
LINE
8
layer0
10
-15.7649705
20
-3.8569169
11
-16.0304272
21
-3.8120427
0
LINE
8
layer0
10
-16.0304272
20
-3.8120427
11
-16.3195453
21
-3.7506246
0
LINE
8
layer0
10
-16.3195453
20
-3.7506246
11
-16.5969006
21
-3.6800303
0
ARC
8
layer0
10
0.0000077
20
0.0000016
40
17
50
189.9980725
51
192.5019279
0
LINE
8
layer0
10
-16.7418234
20
-2.9514542
11
-16.5125958
21
-2.7800943
0
LINE
8
layer0
10
-16.5125958
20
-2.7800943
11
-16.2689892
21
-2.6127107
0
LINE
8
layer0
10
-16.2689892
20
-2.6127107
11
-16.0409117
21
-2.4696664
0
LINE
8
layer0
10
-16.0409117
20
-2.4696664
11
-15.8298335
21
-2.3492975
0
LINE
8
layer0
10
-15.8298335
20
-2.3492975
11
-15.6376111
21
-2.2500988
0
LINE
8
layer0
10
-15.6376111
20
-2.2500988
11
-15.4648203
21
-2.1698961
0
LINE
8
layer0
10
-15.4648203
20
-2.1698961
11
-15.3139398
21
-2.1073963
0
LINE
8
layer0
10
-15.3139398
20
-2.1073963
11
-15.1851433
21
-2.0602249
0
LINE
8
layer0
10
-15.1851433
20
-2.0602249
11
-15.0106978
21
-2.002026
0
LINE
8
layer0
10
-15.0106978
20
-2.002026
11
-14.9632844
21
-1.9808567
0
LINE
8
layer0
10
-14.9632844
20
-1.9808567
11
-14.9233423
21
-1.9587151
0
LINE
8
layer0
10
-14.9233423
20
-1.9587151
11
-14.8908899
21
-1.9359245
0
LINE
8
layer0
10
-14.8908899
20
-1.9359245
11
-14.8659386
21
-1.9127773
0
LINE
8
layer0
10
-14.8659386
20
-1.9127773
11
-14.8484679
21
-1.8895832
0
LINE
8
layer0
10
-14.8484679
20
-1.8895832
11
-14.8384882
21
-1.8666446
0
LINE
8
layer0
10
-14.8384882
20
-1.8666446
11
-14.8359602
21
-1.844259
0
LINE
8
layer0
10
-14.8359602
20
-1.844259
11
-14.8392329
21
-1.8169483
0
LINE
8
layer0
10
-14.8392329
20
-1.8169483
11
-14.8780117
21
-1.4653562
0
LINE
8
layer0
10
-14.8780117
20
-1.4653562
11
-14.9085702
21
-1.1129546
0
LINE
8
layer0
10
-14.9085702
20
-1.1129546
11
-14.9106885
21
-1.0855302
0
LINE
8
layer0
10
-14.9106885
20
-1.0855302
11
-14.9175351
21
-1.0640679
0
LINE
8
layer0
10
-14.9175351
20
-1.0640679
11
-14.9317981
21
-1.043517
0
LINE
8
layer0
10
-14.9317981
20
-1.043517
11
-14.9534581
21
-1.0241769
0
LINE
8
layer0
10
-14.9534581
20
-1.0241769
11
-14.9824458
21
-1.0063423
0
LINE
8
layer0
10
-14.9824458
20
-1.0063423
11
-15.0187208
21
-0.9903207
0
LINE
8
layer0
10
-15.0187208
20
-0.9903207
11
-15.0622151
21
-0.9763969
0
LINE
8
layer0
10
-15.0622151
20
-0.9763969
11
-15.1128473
21
-0.9648843
0
LINE
8
layer0
10
-15.1128473
20
-0.9648843
11
-15.2952949
21
-0.9418363
0
LINE
8
layer0
10
-15.2952949
20
-0.9418363
11
-15.4308194
21
-0.9206982
0
LINE
8
layer0
10
-15.4308194
20
-0.9206982
11
-15.5909939
21
-0.8888346
0
LINE
8
layer0
10
-15.5909939
20
-0.8888346
11
-15.7761113
21
-0.8438828
0
LINE
8
layer0
10
-15.7761113
20
-0.8438828
11
-15.9839929
21
-0.7840909
0
LINE
8
layer0
10
-15.9839929
20
-0.7840909
11
-16.2144981
21
-0.7072142
0
LINE
8
layer0
10
-16.2144981
20
-0.7072142
11
-16.4660997
21
-0.6114141
0
LINE
8
layer0
10
-16.4660997
20
-0.6114141
11
-16.7376804
21
-0.494772
0
LINE
8
layer0
10
-16.7376804
20
-0.494772
11
-16.9959341
21
-0.3714249
0
ARC
8
layer0
10
0.0000079
20
0
40
17
50
178.7480722
51
181.2519278
0
LINE
8
layer0
10
-16.9959341
20
0.3714249
11
-16.7376804
21
0.494772
0
LINE
8
layer0
10
-16.7376804
20
0.494772
11
-16.4660997
21
0.6114141
0
LINE
8
layer0
10
-16.4660997
20
0.6114141
11
-16.2144981
21
0.7072142
0
LINE
8
layer0
10
-16.2144981
20
0.7072142
11
-15.9839929
21
0.7840909
0
LINE
8
layer0
10
-15.9839929
20
0.7840909
11
-15.7761113
21
0.8438828
0
LINE
8
layer0
10
-15.7761113
20
0.8438828
11
-15.5909939
21
0.8888346
0
LINE
8
layer0
10
-15.5909939
20
0.8888346
11
-15.4308194
21
0.9206982
0
LINE
8
layer0
10
-15.4308194
20
0.9206982
11
-15.2952949
21
0.9418363
0
LINE
8
layer0
10
-15.2952949
20
0.9418363
11
-15.1128473
21
0.9648843
0
LINE
8
layer0
10
-15.1128473
20
0.9648843
11
-15.0622151
21
0.9763969
0
LINE
8
layer0
10
-15.0622151
20
0.9763969
11
-15.0187208
21
0.9903207
0
LINE
8
layer0
10
-15.0187208
20
0.9903207
11
-14.9824458
21
1.0063423
0
LINE
8
layer0
10
-14.9824458
20
1.0063423
11
-14.9534581
21
1.0241769
0
LINE
8
layer0
10
-14.9534581
20
1.0241769
11
-14.9317981
21
1.043517
0
LINE
8
layer0
10
-14.9317981
20
1.043517
11
-14.9175351
21
1.0640679
0
LINE
8
layer0
10
-14.9175351
20
1.0640679
11
-14.9106885
21
1.0855302
0
LINE
8
layer0
10
-14.9106885
20
1.0855302
11
-14.9085702
21
1.1129546
0
LINE
8
layer0
10
-14.9085702
20
1.1129546
11
-14.8780117
21
1.4653562
0
LINE
8
layer0
10
-14.8780117
20
1.4653562
11
-14.8392329
21
1.8169483
0
LINE
8
layer0
10
-14.8392329
20
1.8169483
11
-14.8359602
21
1.844259
0
LINE
8
layer0
10
-14.8359602
20
1.844259
11
-14.8384882
21
1.8666446
0
LINE
8
layer0
10
-14.8384882
20
1.8666446
11
-14.8484679
21
1.8895832
0
LINE
8
layer0
10
-14.8484679
20
1.8895832
11
-14.8659386
21
1.9127773
0
LINE
8
layer0
10
-14.8659386
20
1.9127773
11
-14.8908899
21
1.9359245
0
LINE
8
layer0
10
-14.8908899
20
1.9359245
11
-14.9233423
21
1.9587151
0
LINE
8
layer0
10
-14.9233423
20
1.9587151
11
-14.9632844
21
1.9808567
0
LINE
8
layer0
10
-14.9632844
20
1.9808567
11
-15.0106978
21
2.002026
0
LINE
8
layer0
10
-15.0106978
20
2.002026
11
-15.1851433
21
2.0602249
0
LINE
8
layer0
10
-15.1851433
20
2.0602249
11
-15.3139398
21
2.1073963
0
LINE
8
layer0
10
-15.3139398
20
2.1073963
11
-15.4648203
21
2.1698961
0
LINE
8
layer0
10
-15.4648203
20
2.1698961
11
-15.6376111
21
2.2500988
0
LINE
8
layer0
10
-15.6376111
20
2.2500988
11
-15.8298335
21
2.3492975
0
LINE
8
layer0
10
-15.8298335
20
2.3492975
11
-16.0409117
21
2.4696664
0
LINE
8
layer0
10
-16.0409117
20
2.4696664
11
-16.2689892
21
2.6127107
0
LINE
8
layer0
10
-16.2689892
20
2.6127107
11
-16.5125958
21
2.7800943
0
LINE
8
layer0
10
-16.5125958
20
2.7800943
11
-16.7418234
21
2.9514542
0
ARC
8
layer0
10
0.0000077
20
-0.0000016
40
17
50
167.4980721
51
170.0019275
0
LINE
8
layer0
10
-16.5969006
20
3.6800303
11
-16.3195453
21
3.7506246
0
LINE
8
layer0
10
-16.3195453
20
3.7506246
11
-16.0304272
21
3.8120427
0
LINE
8
layer0
10
-16.0304272
20
3.8120427
11
-15.7649705
21
3.8569169
0
LINE
8
layer0
10
-15.7649705
20
3.8569169
11
-15.5238965
21
3.8873471
0
LINE
8
layer0
10
-15.5238965
20
3.8873471
11
-15.3083444
21
3.9054345
0
LINE
8
layer0
10
-15.3083444
20
3.9054345
11
-15.1180143
21
3.9134079
0
LINE
8
layer0
10
-15.1180143
20
3.9134079
11
-14.9547012
21
3.9134108
0
LINE
8
layer0
10
-14.9547012
20
3.9134108
11
-14.817657
21
3.9077032
0
LINE
8
layer0
10
-14.817657
20
3.9077032
11
-14.6342186
21
3.8947145
0
LINE
8
layer0
10
-14.6342186
20
3.8947145
11
-14.5823132
21
3.8961281
0
LINE
8
layer0
10
-14.5823132
20
3.8961281
11
-14.5369383
21
3.9012991
0
LINE
8
layer0
10
-14.5369383
20
3.9012991
11
-14.4982346
21
3.9099359
0
LINE
8
layer0
10
-14.4982346
20
3.9099359
11
-14.4663246
21
3.9217726
0
LINE
8
layer0
10
-14.4663246
20
3.9217726
11
-14.4413078
21
3.9365154
0
LINE
8
layer0
10
-14.4413078
20
3.9365154
11
-14.4233095
21
3.9538889
0
LINE
8
layer0
10
-14.4233095
20
3.9538889
11
-14.4124073
21
3.973603
0
LINE
8
layer0
10
-14.4124073
20
3.973603
11
-14.4049795
21
4.0000873
0
LINE
8
layer0
10
-14.4049795
20
4.0000873
11
-14.306258
21
4.3397559
0
LINE
8
layer0
10
-14.306258
20
4.3397559
11
-14.1996322
21
4.6770268
0
LINE
8
layer0
10
-14.1996322
20
4.6770268
11
-14.1910943
21
4.7031743
0
LINE
8
layer0
10
-14.1910943
20
4.7031743
11
-14.1892065
21
4.725623
0
LINE
8
layer0
10
-14.1892065
20
4.725623
11
-14.1945193
21
4.7500678
0
LINE
8
layer0
10
-14.1945193
20
4.7500678
11
-14.2071294
21
4.7762246
0
LINE
8
layer0
10
-14.2071294
20
4.7762246
11
-14.2270855
21
4.8037947
0
LINE
8
layer0
10
-14.2270855
20
4.8037947
11
-14.2544681
21
4.8324786
0
LINE
8
layer0
10
-14.2544681
20
4.8324786
11
-14.2893231
21
4.8619871
0
LINE
8
layer0
10
-14.2893231
20
4.8619871
11
-14.3316955
21
4.8919995
0
LINE
8
layer0
10
-14.3316955
20
4.8919995
11
-14.4914351
21
4.9831127
0
LINE
8
layer0
10
-14.4914351
20
4.9831127
11
-14.6085542
21
5.0545047
0
LINE
8
layer0
10
-14.6085542
20
5.0545047
11
-14.7443424
21
5.1452389
0
LINE
8
layer0
10
-14.7443424
20
5.1452389
11
-14.8981663
21
5.2576103
0
LINE
8
layer0
10
-14.8981663
20
5.2576103
11
-15.0673425
21
5.3924038
0
LINE
8
layer0
10
-15.0673425
20
5.3924038
11
-15.2508821
21
5.5516391
0
LINE
8
layer0
10
-15.2508821
20
5.5516391
11
-15.4466706
21
5.7364306
0
LINE
8
layer0
10
-15.4466706
20
5.7364306
11
-15.6529414
21
5.9481232
0
LINE
8
layer0
10
-15.6529414
20
5.9481232
11
-15.8443338
21
6.1609106
0
ARC
8
layer0
10
0.0000073
20
-0.0000029
40
17
50
156.2480725
51
158.751928
0
LINE
8
layer0
10
-15.5600575
20
6.8472143
11
-15.2742593
21
6.8623427
0
LINE
8
layer0
10
-15.2742593
20
6.8623427
11
-14.9787144
21
6.8661766
0
LINE
8
layer0
10
-14.9787144
20
6.8661766
11
-14.7096038
21
6.8584005
0
LINE
8
layer0
10
-14.7096038
20
6.8584005
11
-14.4672253
21
6.8412148
0
LINE
8
layer0
10
-14.4672253
20
6.8412148
11
-14.2522864
21
6.8169025
0
LINE
8
layer0
10
-14.2522864
20
6.8169025
11
-14.0640578
21
6.7875912
0
LINE
8
layer0
10
-14.0640578
20
6.7875912
11
-13.9038823
21
6.7557332
0
LINE
8
layer0
10
-13.9038823
20
6.7557332
11
-13.7705848
21
6.7233992
0
LINE
8
layer0
10
-13.7705848
20
6.7233992
11
-13.5932051
21
6.6748731
0
LINE
8
layer0
10
-13.5932051
20
6.6748731
11
-13.5420213
21
6.6661332
0
LINE
8
layer0
10
-13.5420213
20
6.6661332
11
-13.4965095
21
6.6623527
0
LINE
8
layer0
10
-13.4965095
20
6.6623527
11
-13.4568645
21
6.6632728
0
LINE
8
layer0
10
-13.4568645
20
6.6632728
11
-13.4232583
21
6.6686567
0
LINE
8
layer0
10
-13.4232583
20
6.6686567
11
-13.395846
21
6.6782357
0
LINE
8
layer0
10
-13.395846
20
6.6782357
11
-13.3748042
21
6.6917641
0
LINE
8
layer0
10
-13.3748042
20
6.6917641
11
-13.3602655
21
6.7089726
0
LINE
8
layer0
10
-13.3602655
20
6.7089726
11
-13.3478136
21
6.7334988
0
LINE
8
layer0
10
-13.3478136
20
6.7334988
11
-13.1847229
21
7.0473812
0
LINE
8
layer0
10
-13.1847229
20
7.0473812
11
-13.0143475
21
7.3573699
0
LINE
8
layer0
10
-13.0143475
20
7.3573699
11
-13.0008726
21
7.3813493
0
LINE
8
layer0
10
-13.0008726
20
7.3813493
11
-12.9946416
21
7.4029983
0
LINE
8
layer0
10
-12.9946416
20
7.4029983
11
-12.9950834
21
7.4280099
0
LINE
8
layer0
10
-12.9950834
20
7.4280099
11
-13.0023482
21
7.4561242
0
LINE
8
layer0
10
-13.0023482
20
7.4561242
11
-13.0165422
21
7.4870578
0
LINE
8
layer0
10
-13.0165422
20
7.4870578
11
-13.0378027
21
7.5205326
0
LINE
8
layer0
10
-13.0378027
20
7.5205326
11
-13.0662311
21
7.556274
0
LINE
8
layer0
10
-13.0662311
20
7.556274
11
-13.1019343
21
7.5939762
0
LINE
8
layer0
10
-13.1019343
20
7.5939762
11
-13.2408291
21
7.7145023
0
LINE
8
layer0
10
-13.2408291
20
7.7145023
11
-13.3417699
21
7.8073714
0
LINE
8
layer0
10
-13.3417699
20
7.8073714
11
-13.4572477
21
7.9228531
0
LINE
8
layer0
10
-13.4572477
20
7.9228531
11
-13.5861933
21
8.0630749
0
LINE
8
layer0
10
-13.5861933
20
8.0630749
11
-13.725822
21
8.2282829
0
LINE
8
layer0
10
-13.725822
20
8.2282829
11
-13.8747696
21
8.4202654
0
LINE
8
layer0
10
-13.8747696
20
8.4202654
11
-14.030745
21
8.6397026
0
LINE
8
layer0
10
-14.030745
20
8.6397026
11
-14.1917532
21
8.8875691
0
LINE
8
layer0
10
-14.1917532
20
8.8875691
11
-14.3379554
21
9.1336066
0
ARC
8
layer0
10
0.0000066
20
-0.0000041
40
17
50
144.9980732
51
147.5019286
0
LINE
8
layer0
10
-13.9252502
20
9.7512636
11
-13.641992
21
9.7103449
0
LINE
8
layer0
10
-13.641992
20
9.7103449
11
-13.351378
21
9.6564471
0
LINE
8
layer0
10
-13.351378
20
9.6564471
11
-13.0889553
21
9.5963196
0
LINE
8
layer0
10
-13.0889553
20
9.5963196
11
-12.8545869
21
9.5321784
0
LINE
8
layer0
10
-12.8545869
20
9.5321784
11
-12.648521
21
9.4664008
0
LINE
8
layer0
10
-12.648521
20
9.4664008
11
-12.4696276
21
9.4009311
0
LINE
8
layer0
10
-12.4696276
20
9.4009311
11
-12.3187449
21
9.3384365
0
LINE
8
layer0
10
-12.3187449
20
9.3384365
11
-12.1943167
21
9.2807188
0
LINE
8
layer0
10
-12.1943167
20
9.2807188
11
-12.0298123
21
9.19852
0
LINE
8
layer0
10
-12.0298123
20
9.19852
11
-11.9813171
21
9.1799626
0
LINE
8
layer0
10
-11.9813171
20
9.1799626
11
-11.9374173
21
9.1673758
0
LINE
8
layer0
10
-11.9374173
20
9.1673758
11
-11.8983546
21
9.1605439
0
LINE
8
layer0
10
-11.8983546
20
9.1605439
11
-11.8643438
21
9.1592682
0
LINE
8
layer0
10
-11.8643438
20
9.1592682
11
-11.8355894
21
9.1633152
0
LINE
8
layer0
10
-11.8355894
20
9.1633152
11
-11.8123127
21
9.1724786
0
LINE
8
layer0
10
-11.8123127
20
9.1724786
11
-11.7946961
21
9.18652
0
LINE
8
layer0
10
-11.7946961
20
9.18652
11
-11.7776986
21
9.2081458
0
LINE
8
layer0
10
-11.7776986
20
9.2081458
11
-11.5565063
21
9.4841796
0
LINE
8
layer0
10
-11.5565063
20
9.4841796
11
-11.3289288
21
9.7549734
0
LINE
8
layer0
10
-11.3289288
20
9.7549734
11
-11.3110347
21
9.7758632
0
LINE
8
layer0
10
-11.3110347
20
9.7758632
11
-11.3006999
21
9.7958806
0
LINE
8
layer0
10
-11.3006999
20
9.7958806
11
-11.2962536
21
9.8204978
0
LINE
8
layer0
10
-11.2962536
20
9.8204978
11
-11.297894
21
9.8494892
0
LINE
8
layer0
10
-11.297894
20
9.8494892
11
-11.3057805
21
9.8825975
0
LINE
8
layer0
10
-11.3057805
20
9.8825975
11
-11.3201019
21
9.9195768
0
LINE
8
layer0
10
-11.3201019
20
9.9195768
11
-11.3410112
21
9.9601776
0
LINE
8
layer0
10
-11.3410112
20
9.9601776
11
-11.368673
21
10.0041206
0
LINE
8
layer0
10
-11.368673
20
10.0041206
11
-11.4813856
21
10.149428
0
LINE
8
layer0
10
-11.4813856
20
10.149428
11
-11.562269
21
10.2602051
0
LINE
8
layer0
10
-11.562269
20
10.2602051
11
-11.6529985
21
10.3959965
0
LINE
8
layer0
10
-11.6529985
20
10.3959965
11
-11.7521106
21
10.55868
0
LINE
8
layer0
10
-11.7521106
20
10.55868
11
-11.8568258
21
10.7479538
0
LINE
8
layer0
10
-11.8568258
20
10.7479538
11
-11.9654575
21
10.9653056
0
LINE
8
layer0
10
-11.9654575
20
10.9653056
11
-12.0756258
21
11.2109557
0
LINE
8
layer0
10
-12.0756258
20
11.2109557
11
-12.1851839
21
11.4854706
0
LINE
8
layer0
10
-12.1851839
20
11.4854706
11
-12.2805773
21
11.7553032
0
ARC
8
layer0
10
0.0000056
20
-0.0000056
40
17
50
133.7480723
51
136.2519277
0
LINE
8
layer0
10
-11.7553032
20
12.2805773
11
-11.4854706
21
12.1851839
0
LINE
8
layer0
10
-11.4854706
20
12.1851839
11
-11.2109557
21
12.0756258
0
LINE
8
layer0
10
-11.2109557
20
12.0756258
11
-10.9653056
21
11.9654575
0
LINE
8
layer0
10
-10.9653056
20
11.9654575
11
-10.7479538
21
11.8568258
0
LINE
8
layer0
10
-10.7479538
20
11.8568258
11
-10.55868
21
11.7521106
0
LINE
8
layer0
10
-10.55868
20
11.7521106
11
-10.3959965
21
11.6529985
0
LINE
8
layer0
10
-10.3959965
20
11.6529985
11
-10.2602051
21
11.562269
0
LINE
8
layer0
10
-10.2602051
20
11.562269
11
-10.149428
21
11.4813856
0
LINE
8
layer0
10
-10.149428
20
11.4813856
11
-10.0041206
21
11.368673
0
LINE
8
layer0
10
-10.0041206
20
11.368673
11
-9.9601776
21
11.3410112
0
LINE
8
layer0
10
-9.9601776
20
11.3410112
11
-9.9195768
21
11.3201019
0
LINE
8
layer0
10
-9.9195768
20
11.3201019
11
-9.8825975
21
11.3057805
0
LINE
8
layer0
10
-9.8825975
20
11.3057805
11
-9.8494892
21
11.297894
0
LINE
8
layer0
10
-9.8494892
20
11.297894
11
-9.8204978
21
11.2962536
0
LINE
8
layer0
10
-9.8204978
20
11.2962536
11
-9.7958806
21
11.3006999
0
LINE
8
layer0
10
-9.7958806
20
11.3006999
11
-9.7758632
21
11.3110347
0
LINE
8
layer0
10
-9.7758632
20
11.3110347
11
-9.7549734
21
11.3289288
0
LINE
8
layer0
10
-9.7549734
20
11.3289288
11
-9.4841796
21
11.5565063
0
LINE
8
layer0
10
-9.4841796
20
11.5565063
11
-9.2081458
21
11.7776986
0
LINE
8
layer0
10
-9.2081458
20
11.7776986
11
-9.18652
21
11.7946961
0
LINE
8
layer0
10
-9.18652
20
11.7946961
11
-9.1724786
21
11.8123127
0
LINE
8
layer0
10
-9.1724786
20
11.8123127
11
-9.1633152
21
11.8355894
0
LINE
8
layer0
10
-9.1633152
20
11.8355894
11
-9.1592682
21
11.8643438
0
LINE
8
layer0
10
-9.1592682
20
11.8643438
11
-9.1605439
21
11.8983546
0
LINE
8
layer0
10
-9.1605439
20
11.8983546
11
-9.1673758
21
11.9374173
0
LINE
8
layer0
10
-9.1673758
20
11.9374173
11
-9.1799626
21
11.9813171
0
LINE
8
layer0
10
-9.1799626
20
11.9813171
11
-9.19852
21
12.0298123
0
LINE
8
layer0
10
-9.19852
20
12.0298123
11
-9.2807188
21
12.1943167
0
LINE
8
layer0
10
-9.2807188
20
12.1943167
11
-9.3384365
21
12.3187449
0
LINE
8
layer0
10
-9.3384365
20
12.3187449
11
-9.4009311
21
12.4696276
0
LINE
8
layer0
10
-9.4009311
20
12.4696276
11
-9.4664008
21
12.648521
0
LINE
8
layer0
10
-9.4664008
20
12.648521
11
-9.5321784
21
12.8545869
0
LINE
8
layer0
10
-9.5321784
20
12.8545869
11
-9.5963196
21
13.0889553
0
LINE
8
layer0
10
-9.5963196
20
13.0889553
11
-9.6564471
21
13.351378
0
LINE
8
layer0
10
-9.6564471
20
13.351378
11
-9.7103449
21
13.641992
0
LINE
8
layer0
10
-9.7103449
20
13.641992
11
-9.7512636
21
13.9252502
0
ARC
8
layer0
10
0.0000042
20
-0.0000066
40
17
50
122.4980717
51
125.0019271
0
LINE
8
layer0
10
-9.1336066
20
14.3379554
11
-8.8875691
21
14.1917532
0
LINE
8
layer0
10
-8.8875691
20
14.1917532
11
-8.6397026
21
14.030745
0
LINE
8
layer0
10
-8.6397026
20
14.030745
11
-8.4202654
21
13.8747696
0
LINE
8
layer0
10
-8.4202654
20
13.8747696
11
-8.2282829
21
13.725822
0
LINE
8
layer0
10
-8.2282829
20
13.725822
11
-8.0630749
21
13.5861933
0
LINE
8
layer0
10
-8.0630749
20
13.5861933
11
-7.9228531
21
13.4572477
0
LINE
8
layer0
10
-7.9228531
20
13.4572477
11
-7.8073714
21
13.3417699
0
LINE
8
layer0
10
-7.8073714
20
13.3417699
11
-7.7145023
21
13.2408291
0
LINE
8
layer0
10
-7.7145023
20
13.2408291
11
-7.5939762
21
13.1019343
0
LINE
8
layer0
10
-7.5939762
20
13.1019343
11
-7.556274
21
13.0662311
0
LINE
8
layer0
10
-7.556274
20
13.0662311
11
-7.5205326
21
13.0378027
0
LINE
8
layer0
10
-7.5205326
20
13.0378027
11
-7.4870578
21
13.0165422
0
LINE
8
layer0
10
-7.4870578
20
13.0165422
11
-7.4561242
21
13.0023482
0
LINE
8
layer0
10
-7.4561242
20
13.0023482
11
-7.4280099
21
12.9950834
0
LINE
8
layer0
10
-7.4280099
20
12.9950834
11
-7.4029983
21
12.9946416
0
LINE
8
layer0
10
-7.4029983
20
12.9946416
11
-7.3813493
21
13.0008726
0
LINE
8
layer0
10
-7.3813493
20
13.0008726
11
-7.3573699
21
13.0143475
0
LINE
8
layer0
10
-7.3573699
20
13.0143475
11
-7.0473812
21
13.1847229
0
LINE
8
layer0
10
-7.0473812
20
13.1847229
11
-6.7334988
21
13.3478136
0
LINE
8
layer0
10
-6.7334988
20
13.3478136
11
-6.7089726
21
13.3602655
0
LINE
8
layer0
10
-6.7089726
20
13.3602655
11
-6.6917641
21
13.3748042
0
LINE
8
layer0
10
-6.6917641
20
13.3748042
11
-6.6782357
21
13.395846
0
LINE
8
layer0
10
-6.6782357
20
13.395846
11
-6.6686567
21
13.4232583
0
LINE
8
layer0
10
-6.6686567
20
13.4232583
11
-6.6632728
21
13.4568645
0
LINE
8
layer0
10
-6.6632728
20
13.4568645
11
-6.6623527
21
13.4965095
0
LINE
8
layer0
10
-6.6623527
20
13.4965095
11
-6.6661332
21
13.5420213
0
LINE
8
layer0
10
-6.6661332
20
13.5420213
11
-6.6748731
21
13.5932051
0
LINE
8
layer0
10
-6.6748731
20
13.5932051
11
-6.7233992
21
13.7705848
0
LINE
8
layer0
10
-6.7233992
20
13.7705848
11
-6.7557332
21
13.9038823
0
LINE
8
layer0
10
-6.7557332
20
13.9038823
11
-6.7875912
21
14.0640578
0
LINE
8
layer0
10
-6.7875912
20
14.0640578
11
-6.8169025
21
14.2522864
0
LINE
8
layer0
10
-6.8169025
20
14.2522864
11
-6.8412148
21
14.4672253
0
LINE
8
layer0
10
-6.8412148
20
14.4672253
11
-6.8584005
21
14.7096038
0
LINE
8
layer0
10
-6.8584005
20
14.7096038
11
-6.8661766
21
14.9787144
0
LINE
8
layer0
10
-6.8661766
20
14.9787144
11
-6.8623427
21
15.2742593
0
LINE
8
layer0
10
-6.8623427
20
15.2742593
11
-6.8472143
21
15.5600575
0
ARC
8
layer0
10
0.000003
20
-0.0000073
40
17
50
111.2480723
51
113.7519278
0
LINE
8
layer0
10
-6.1609106
20
15.8443338
11
-5.9481232
21
15.6529414
0
LINE
8
layer0
10
-5.9481232
20
15.6529414
11
-5.7364306
21
15.4466706
0
LINE
8
layer0
10
-5.7364306
20
15.4466706
11
-5.5516391
21
15.2508821
0
LINE
8
layer0
10
-5.5516391
20
15.2508821
11
-5.3924038
21
15.0673425
0
LINE
8
layer0
10
-5.3924038
20
15.0673425
11
-5.2576103
21
14.8981663
0
LINE
8
layer0
10
-5.2576103
20
14.8981663
11
-5.1452389
21
14.7443424
0
LINE
8
layer0
10
-5.1452389
20
14.7443424
11
-5.0545047
21
14.6085542
0
LINE
8
layer0
10
-5.0545047
20
14.6085542
11
-4.9831127
21
14.4914351
0
LINE
8
layer0
10
-4.9831127
20
14.4914351
11
-4.8919995
21
14.3316955
0
LINE
8
layer0
10
-4.8919995
20
14.3316955
11
-4.8619871
21
14.2893231
0
LINE
8
layer0
10
-4.8619871
20
14.2893231
11
-4.8324786
21
14.2544681
0
LINE
8
layer0
10
-4.8324786
20
14.2544681
11
-4.8037947
21
14.2270855
0
LINE
8
layer0
10
-4.8037947
20
14.2270855
11
-4.7762246
21
14.2071294
0
LINE
8
layer0
10
-4.7762246
20
14.2071294
11
-4.7500678
21
14.1945193
0
LINE
8
layer0
10
-4.7500678
20
14.1945193
11
-4.725623
21
14.1892065
0
LINE
8
layer0
10
-4.725623
20
14.1892065
11
-4.7031743
21
14.1910943
0
LINE
8
layer0
10
-4.7031743
20
14.1910943
11
-4.6770268
21
14.1996322
0
LINE
8
layer0
10
-4.6770268
20
14.1996322
11
-4.3397559
21
14.306258
0
LINE
8
layer0
10
-4.3397559
20
14.306258
11
-4.0000873
21
14.4049795
0
LINE
8
layer0
10
-4.0000873
20
14.4049795
11
-3.973603
21
14.4124073
0
LINE
8
layer0
10
-3.973603
20
14.4124073
11
-3.9538889
21
14.4233095
0
LINE
8
layer0
10
-3.9538889
20
14.4233095
11
-3.9365154
21
14.4413078
0
LINE
8
layer0
10
-3.9365154
20
14.4413078
11
-3.9217726
21
14.4663246
0
LINE
8
layer0
10
-3.9217726
20
14.4663246
11
-3.9099359
21
14.4982346
0
LINE
8
layer0
10
-3.9099359
20
14.4982346
11
-3.9012991
21
14.5369383
0
LINE
8
layer0
10
-3.9012991
20
14.5369383
11
-3.8961281
21
14.5823132
0
LINE
8
layer0
10
-3.8961281
20
14.5823132
11
-3.8947145
21
14.6342186
0
LINE
8
layer0
10
-3.8947145
20
14.6342186
11
-3.9077032
21
14.817657
0
LINE
8
layer0
10
-3.9077032
20
14.817657
11
-3.9134108
21
14.9547012
0
LINE
8
layer0
10
-3.9134108
20
14.9547012
11
-3.9134079
21
15.1180143
0
LINE
8
layer0
10
-3.9134079
20
15.1180143
11
-3.9054345
21
15.3083444
0
LINE
8
layer0
10
-3.9054345
20
15.3083444
11
-3.8873471
21
15.5238965
0
LINE
8
layer0
10
-3.8873471
20
15.5238965
11
-3.8569169
21
15.7649705
0
LINE
8
layer0
10
-3.8569169
20
15.7649705
11
-3.8120427
21
16.0304272
0
LINE
8
layer0
10
-3.8120427
20
16.0304272
11
-3.7506246
21
16.3195453
0
LINE
8
layer0
10
-3.7506246
20
16.3195453
11
-3.6800303
21
16.5969006
0
ARC
8
layer0
10
0.0000016
20
-0.0000077
40
17
50
99.9980725
51
102.5019279
0
LINE
8
layer0
10
-2.9514542
20
16.7418234
11
-2.7800943
21
16.5125958
0
LINE
8
layer0
10
-2.7800943
20
16.5125958
11
-2.6127107
21
16.2689892
0
LINE
8
layer0
10
-2.6127107
20
16.2689892
11
-2.4696664
21
16.0409117
0
LINE
8
layer0
10
-2.4696664
20
16.0409117
11
-2.3492975
21
15.8298335
0
LINE
8
layer0
10
-2.3492975
20
15.8298335
11
-2.2500988
21
15.6376111
0
LINE
8
layer0
10
-2.2500988
20
15.6376111
11
-2.1698961
21
15.4648203
0
LINE
8
layer0
10
-2.1698961
20
15.4648203
11
-2.1073963
21
15.3139398
0
LINE
8
layer0
10
-2.1073963
20
15.3139398
11
-2.0602249
21
15.1851433
0
LINE
8
layer0
10
-2.0602249
20
15.1851433
11
-2.002026
21
15.0106978
0
LINE
8
layer0
10
-2.002026
20
15.0106978
11
-1.9808567
21
14.9632844
0
LINE
8
layer0
10
-1.9808567
20
14.9632844
11
-1.9587151
21
14.9233423
0
LINE
8
layer0
10
-1.9587151
20
14.9233423
11
-1.9359245
21
14.8908899
0
LINE
8
layer0
10
-1.9359245
20
14.8908899
11
-1.9127773
21
14.8659386
0
LINE
8
layer0
10
-1.9127773
20
14.8659386
11
-1.8895832
21
14.8484679
0
LINE
8
layer0
10
-1.8895832
20
14.8484679
11
-1.8666446
21
14.8384882
0
LINE
8
layer0
10
-1.8666446
20
14.8384882
11
-1.844259
21
14.8359602
0
LINE
8
layer0
10
-1.844259
20
14.8359602
11
-1.8169483
21
14.8392329
0
LINE
8
layer0
10
-1.8169483
20
14.8392329
11
-1.4653562
21
14.8780117
0
LINE
8
layer0
10
-1.4653562
20
14.8780117
11
-1.1129546
21
14.9085702
0
LINE
8
layer0
10
-1.1129546
20
14.9085702
11
-1.0855302
21
14.9106885
0
LINE
8
layer0
10
-1.0855302
20
14.9106885
11
-1.0640679
21
14.9175351
0
LINE
8
layer0
10
-1.0640679
20
14.9175351
11
-1.043517
21
14.9317981
0
LINE
8
layer0
10
-1.043517
20
14.9317981
11
-1.0241769
21
14.9534581
0
LINE
8
layer0
10
-1.0241769
20
14.9534581
11
-1.0063423
21
14.9824458
0
LINE
8
layer0
10
-1.0063423
20
14.9824458
11
-0.9903207
21
15.0187208
0
LINE
8
layer0
10
-0.9903207
20
15.0187208
11
-0.9763969
21
15.0622151
0
LINE
8
layer0
10
-0.9763969
20
15.0622151
11
-0.9648843
21
15.1128473
0
LINE
8
layer0
10
-0.9648843
20
15.1128473
11
-0.9418363
21
15.2952949
0
LINE
8
layer0
10
-0.9418363
20
15.2952949
11
-0.9206982
21
15.4308194
0
LINE
8
layer0
10
-0.9206982
20
15.4308194
11
-0.8888346
21
15.5909939
0
LINE
8
layer0
10
-0.8888346
20
15.5909939
11
-0.8438828
21
15.7761113
0
LINE
8
layer0
10
-0.8438828
20
15.7761113
11
-0.7840909
21
15.9839929
0
LINE
8
layer0
10
-0.7840909
20
15.9839929
11
-0.7072142
21
16.2144981
0
LINE
8
layer0
10
-0.7072142
20
16.2144981
11
-0.6114141
21
16.4660997
0
LINE
8
layer0
10
-0.6114141
20
16.4660997
11
-0.494772
21
16.7376804
0
LINE
8
layer0
10
-0.494772
20
16.7376804
11
-0.3714249
21
16.9959341
0
ARC
8
layer0
10
0
20
-0.0000079
40
17
50
88.7480722
51
91.2519278
0
LINE
8
layer0
10
0.3714249
20
16.9959341
11
0.494772
21
16.7376804
0
LINE
8
layer0
10
0.494772
20
16.7376804
11
0.6114141
21
16.4660997
0
LINE
8
layer0
10
0.6114141
20
16.4660997
11
0.7072142
21
16.2144981
0
LINE
8
layer0
10
0.7072142
20
16.2144981
11
0.7840909
21
15.9839929
0
LINE
8
layer0
10
0.7840909
20
15.9839929
11
0.8438828
21
15.7761113
0
LINE
8
layer0
10
0.8438828
20
15.7761113
11
0.8888346
21
15.5909939
0
LINE
8
layer0
10
0.8888346
20
15.5909939
11
0.9206982
21
15.4308194
0
LINE
8
layer0
10
0.9206982
20
15.4308194
11
0.9418363
21
15.2952949
0
LINE
8
layer0
10
0.9418363
20
15.2952949
11
0.9648843
21
15.1128473
0
LINE
8
layer0
10
0.9648843
20
15.1128473
11
0.9763969
21
15.0622151
0
LINE
8
layer0
10
0.9763969
20
15.0622151
11
0.9903207
21
15.0187208
0
LINE
8
layer0
10
0.9903207
20
15.0187208
11
1.0063423
21
14.9824458
0
LINE
8
layer0
10
1.0063423
20
14.9824458
11
1.0241769
21
14.9534581
0
LINE
8
layer0
10
1.0241769
20
14.9534581
11
1.043517
21
14.9317981
0
LINE
8
layer0
10
1.043517
20
14.9317981
11
1.0640679
21
14.9175351
0
LINE
8
layer0
10
1.0640679
20
14.9175351
11
1.0855302
21
14.9106885
0
LINE
8
layer0
10
1.0855302
20
14.9106885
11
1.1129546
21
14.9085702
0
LINE
8
layer0
10
1.1129546
20
14.9085702
11
1.4653562
21
14.8780117
0
LINE
8
layer0
10
1.4653562
20
14.8780117
11
1.8169483
21
14.8392329
0
LINE
8
layer0
10
1.8169483
20
14.8392329
11
1.844259
21
14.8359602
0
LINE
8
layer0
10
1.844259
20
14.8359602
11
1.8666446
21
14.8384882
0
LINE
8
layer0
10
1.8666446
20
14.8384882
11
1.8895832
21
14.8484679
0
LINE
8
layer0
10
1.8895832
20
14.8484679
11
1.9127773
21
14.8659386
0
LINE
8
layer0
10
1.9127773
20
14.8659386
11
1.9359245
21
14.8908899
0
LINE
8
layer0
10
1.9359245
20
14.8908899
11
1.9587151
21
14.9233423
0
LINE
8
layer0
10
1.9587151
20
14.9233423
11
1.9808567
21
14.9632844
0
LINE
8
layer0
10
1.9808567
20
14.9632844
11
2.002026
21
15.0106978
0
LINE
8
layer0
10
2.002026
20
15.0106978
11
2.0602249
21
15.1851433
0
LINE
8
layer0
10
2.0602249
20
15.1851433
11
2.1073963
21
15.3139398
0
LINE
8
layer0
10
2.1073963
20
15.3139398
11
2.1698961
21
15.4648203
0
LINE
8
layer0
10
2.1698961
20
15.4648203
11
2.2500988
21
15.6376111
0
LINE
8
layer0
10
2.2500988
20
15.6376111
11
2.3492975
21
15.8298335
0
LINE
8
layer0
10
2.3492975
20
15.8298335
11
2.4696664
21
16.0409117
0
LINE
8
layer0
10
2.4696664
20
16.0409117
11
2.6127107
21
16.2689892
0
LINE
8
layer0
10
2.6127107
20
16.2689892
11
2.7800943
21
16.5125958
0
LINE
8
layer0
10
2.7800943
20
16.5125958
11
2.9514542
21
16.7418234
0
ARC
8
layer0
10
-0.0000016
20
-0.0000077
40
17
50
77.4980721
51
80.0019275
0
LINE
8
layer0
10
3.6800303
20
16.5969006
11
3.7506246
21
16.3195453
0
LINE
8
layer0
10
3.7506246
20
16.3195453
11
3.8120427
21
16.0304272
0
LINE
8
layer0
10
3.8120427
20
16.0304272
11
3.8569169
21
15.7649705
0
LINE
8
layer0
10
3.8569169
20
15.7649705
11
3.8873471
21
15.5238965
0
LINE
8
layer0
10
3.8873471
20
15.5238965
11
3.9054345
21
15.3083444
0
LINE
8
layer0
10
3.9054345
20
15.3083444
11
3.9134079
21
15.1180143
0
LINE
8
layer0
10
3.9134079
20
15.1180143
11
3.9134108
21
14.9547012
0
LINE
8
layer0
10
3.9134108
20
14.9547012
11
3.9077032
21
14.817657
0
LINE
8
layer0
10
3.9077032
20
14.817657
11
3.8947145
21
14.6342186
0
LINE
8
layer0
10
3.8947145
20
14.6342186
11
3.8961281
21
14.5823132
0
LINE
8
layer0
10
3.8961281
20
14.5823132
11
3.9012991
21
14.5369383
0
LINE
8
layer0
10
3.9012991
20
14.5369383
11
3.9099359
21
14.4982346
0
LINE
8
layer0
10
3.9099359
20
14.4982346
11
3.9217726
21
14.4663246
0
LINE
8
layer0
10
3.9217726
20
14.4663246
11
3.9365154
21
14.4413078
0
LINE
8
layer0
10
3.9365154
20
14.4413078
11
3.9538889
21
14.4233095
0
LINE
8
layer0
10
3.9538889
20
14.4233095
11
3.973603
21
14.4124073
0
LINE
8
layer0
10
3.973603
20
14.4124073
11
4.0000873
21
14.4049795
0
LINE
8
layer0
10
4.0000873
20
14.4049795
11
4.3397559
21
14.306258
0
LINE
8
layer0
10
4.3397559
20
14.306258
11
4.6770268
21
14.1996322
0
LINE
8
layer0
10
4.6770268
20
14.1996322
11
4.7031743
21
14.1910943
0
LINE
8
layer0
10
4.7031743
20
14.1910943
11
4.725623
21
14.1892065
0
LINE
8
layer0
10
4.725623
20
14.1892065
11
4.7500678
21
14.1945193
0
LINE
8
layer0
10
4.7500678
20
14.1945193
11
4.7762246
21
14.2071294
0
LINE
8
layer0
10
4.7762246
20
14.2071294
11
4.8037947
21
14.2270855
0
LINE
8
layer0
10
4.8037947
20
14.2270855
11
4.8324786
21
14.2544681
0
LINE
8
layer0
10
4.8324786
20
14.2544681
11
4.8619871
21
14.2893231
0
LINE
8
layer0
10
4.8619871
20
14.2893231
11
4.8919995
21
14.3316955
0
LINE
8
layer0
10
4.8919995
20
14.3316955
11
4.9831127
21
14.4914351
0
LINE
8
layer0
10
4.9831127
20
14.4914351
11
5.0545047
21
14.6085542
0
LINE
8
layer0
10
5.0545047
20
14.6085542
11
5.1452389
21
14.7443424
0
LINE
8
layer0
10
5.1452389
20
14.7443424
11
5.2576103
21
14.8981663
0
LINE
8
layer0
10
5.2576103
20
14.8981663
11
5.3924038
21
15.0673425
0
LINE
8
layer0
10
5.3924038
20
15.0673425
11
5.5516391
21
15.2508821
0
LINE
8
layer0
10
5.5516391
20
15.2508821
11
5.7364306
21
15.4466706
0
LINE
8
layer0
10
5.7364306
20
15.4466706
11
5.9481232
21
15.6529414
0
LINE
8
layer0
10
5.9481232
20
15.6529414
11
6.1609106
21
15.8443338
0
ARC
8
layer0
10
-0.0000029
20
-0.0000073
40
17
50
66.2480725
51
68.751928
0
LINE
8
layer0
10
6.8472143
20
15.5600575
11
6.8623427
21
15.2742593
0
LINE
8
layer0
10
6.8623427
20
15.2742593
11
6.8661766
21
14.9787144
0
LINE
8
layer0
10
6.8661766
20
14.9787144
11
6.8584005
21
14.7096038
0
LINE
8
layer0
10
6.8584005
20
14.7096038
11
6.8412148
21
14.4672253
0
LINE
8
layer0
10
6.8412148
20
14.4672253
11
6.8169025
21
14.2522864
0
LINE
8
layer0
10
6.8169025
20
14.2522864
11
6.7875912
21
14.0640578
0
LINE
8
layer0
10
6.7875912
20
14.0640578
11
6.7557332
21
13.9038823
0
LINE
8
layer0
10
6.7557332
20
13.9038823
11
6.7233992
21
13.7705848
0
LINE
8
layer0
10
6.7233992
20
13.7705848
11
6.6748731
21
13.5932051
0
LINE
8
layer0
10
6.6748731
20
13.5932051
11
6.6661332
21
13.5420213
0
LINE
8
layer0
10
6.6661332
20
13.5420213
11
6.6623527
21
13.4965095
0
LINE
8
layer0
10
6.6623527
20
13.4965095
11
6.6632728
21
13.4568645
0
LINE
8
layer0
10
6.6632728
20
13.4568645
11
6.6686567
21
13.4232583
0
LINE
8
layer0
10
6.6686567
20
13.4232583
11
6.6782357
21
13.395846
0
LINE
8
layer0
10
6.6782357
20
13.395846
11
6.6917641
21
13.3748042
0
LINE
8
layer0
10
6.6917641
20
13.3748042
11
6.7089726
21
13.3602655
0
LINE
8
layer0
10
6.7089726
20
13.3602655
11
6.7334988
21
13.3478136
0
LINE
8
layer0
10
6.7334988
20
13.3478136
11
7.0473812
21
13.1847229
0
LINE
8
layer0
10
7.0473812
20
13.1847229
11
7.3573699
21
13.0143475
0
LINE
8
layer0
10
7.3573699
20
13.0143475
11
7.3813493
21
13.0008726
0
LINE
8
layer0
10
7.3813493
20
13.0008726
11
7.4029983
21
12.9946416
0
LINE
8
layer0
10
7.4029983
20
12.9946416
11
7.4280099
21
12.9950834
0
LINE
8
layer0
10
7.4280099
20
12.9950834
11
7.4561242
21
13.0023482
0
LINE
8
layer0
10
7.4561242
20
13.0023482
11
7.4870578
21
13.0165422
0
LINE
8
layer0
10
7.4870578
20
13.0165422
11
7.5205326
21
13.0378027
0
LINE
8
layer0
10
7.5205326
20
13.0378027
11
7.556274
21
13.0662311
0
LINE
8
layer0
10
7.556274
20
13.0662311
11
7.5939762
21
13.1019343
0
LINE
8
layer0
10
7.5939762
20
13.1019343
11
7.7145023
21
13.2408291
0
LINE
8
layer0
10
7.7145023
20
13.2408291
11
7.8073714
21
13.3417699
0
LINE
8
layer0
10
7.8073714
20
13.3417699
11
7.9228531
21
13.4572477
0
LINE
8
layer0
10
7.9228531
20
13.4572477
11
8.0630749
21
13.5861933
0
LINE
8
layer0
10
8.0630749
20
13.5861933
11
8.2282829
21
13.725822
0
LINE
8
layer0
10
8.2282829
20
13.725822
11
8.4202654
21
13.8747696
0
LINE
8
layer0
10
8.4202654
20
13.8747696
11
8.6397026
21
14.030745
0
LINE
8
layer0
10
8.6397026
20
14.030745
11
8.8875691
21
14.1917532
0
LINE
8
layer0
10
8.8875691
20
14.1917532
11
9.1336066
21
14.3379554
0
ARC
8
layer0
10
-0.0000041
20
-0.0000066
40
17
50
54.9980732
51
57.5019286
0
LINE
8
layer0
10
9.7512636
20
13.9252502
11
9.7103449
21
13.641992
0
LINE
8
layer0
10
9.7103449
20
13.641992
11
9.6564471
21
13.351378
0
LINE
8
layer0
10
9.6564471
20
13.351378
11
9.5963196
21
13.0889553
0
LINE
8
layer0
10
9.5963196
20
13.0889553
11
9.5321784
21
12.8545869
0
LINE
8
layer0
10
9.5321784
20
12.8545869
11
9.4664008
21
12.648521
0
LINE
8
layer0
10
9.4664008
20
12.648521
11
9.4009311
21
12.4696276
0
LINE
8
layer0
10
9.4009311
20
12.4696276
11
9.3384365
21
12.3187449
0
LINE
8
layer0
10
9.3384365
20
12.3187449
11
9.2807188
21
12.1943167
0
LINE
8
layer0
10
9.2807188
20
12.1943167
11
9.19852
21
12.0298123
0
LINE
8
layer0
10
9.19852
20
12.0298123
11
9.1799626
21
11.9813171
0
LINE
8
layer0
10
9.1799626
20
11.9813171
11
9.1673758
21
11.9374173
0
LINE
8
layer0
10
9.1673758
20
11.9374173
11
9.1605439
21
11.8983546
0
LINE
8
layer0
10
9.1605439
20
11.8983546
11
9.1592682
21
11.8643438
0
LINE
8
layer0
10
9.1592682
20
11.8643438
11
9.1633152
21
11.8355894
0
LINE
8
layer0
10
9.1633152
20
11.8355894
11
9.1724786
21
11.8123127
0
LINE
8
layer0
10
9.1724786
20
11.8123127
11
9.18652
21
11.7946961
0
LINE
8
layer0
10
9.18652
20
11.7946961
11
9.2081458
21
11.7776986
0
LINE
8
layer0
10
9.2081458
20
11.7776986
11
9.4841796
21
11.5565063
0
LINE
8
layer0
10
9.4841796
20
11.5565063
11
9.7549734
21
11.3289288
0
LINE
8
layer0
10
9.7549734
20
11.3289288
11
9.7758632
21
11.3110347
0
LINE
8
layer0
10
9.7758632
20
11.3110347
11
9.7958806
21
11.3006999
0
LINE
8
layer0
10
9.7958806
20
11.3006999
11
9.8204978
21
11.2962536
0
LINE
8
layer0
10
9.8204978
20
11.2962536
11
9.8494892
21
11.297894
0
LINE
8
layer0
10
9.8494892
20
11.297894
11
9.8825975
21
11.3057805
0
LINE
8
layer0
10
9.8825975
20
11.3057805
11
9.9195768
21
11.3201019
0
LINE
8
layer0
10
9.9195768
20
11.3201019
11
9.9601776
21
11.3410112
0
LINE
8
layer0
10
9.9601776
20
11.3410112
11
10.0041206
21
11.368673
0
LINE
8
layer0
10
10.0041206
20
11.368673
11
10.149428
21
11.4813856
0
LINE
8
layer0
10
10.149428
20
11.4813856
11
10.2602051
21
11.562269
0
LINE
8
layer0
10
10.2602051
20
11.562269
11
10.3959965
21
11.6529985
0
LINE
8
layer0
10
10.3959965
20
11.6529985
11
10.55868
21
11.7521106
0
LINE
8
layer0
10
10.55868
20
11.7521106
11
10.7479538
21
11.8568258
0
LINE
8
layer0
10
10.7479538
20
11.8568258
11
10.9653056
21
11.9654575
0
LINE
8
layer0
10
10.9653056
20
11.9654575
11
11.2109557
21
12.0756258
0
LINE
8
layer0
10
11.2109557
20
12.0756258
11
11.4854706
21
12.1851839
0
LINE
8
layer0
10
11.4854706
20
12.1851839
11
11.7553032
21
12.2805773
0
ARC
8
layer0
10
-0.0000056
20
-0.0000056
40
17
50
43.7480723
51
46.2519277
0
LINE
8
layer0
10
12.2805773
20
11.7553032
11
12.1851839
21
11.4854706
0
LINE
8
layer0
10
12.1851839
20
11.4854706
11
12.0756258
21
11.2109557
0
LINE
8
layer0
10
12.0756258
20
11.2109557
11
11.9654575
21
10.9653056
0
LINE
8
layer0
10
11.9654575
20
10.9653056
11
11.8568258
21
10.7479538
0
LINE
8
layer0
10
11.8568258
20
10.7479538
11
11.7521106
21
10.55868
0
LINE
8
layer0
10
11.7521106
20
10.55868
11
11.6529985
21
10.3959965
0
LINE
8
layer0
10
11.6529985
20
10.3959965
11
11.562269
21
10.2602051
0
LINE
8
layer0
10
11.562269
20
10.2602051
11
11.4813856
21
10.149428
0
LINE
8
layer0
10
11.4813856
20
10.149428
11
11.368673
21
10.0041206
0
LINE
8
layer0
10
11.368673
20
10.0041206
11
11.3410112
21
9.9601776
0
LINE
8
layer0
10
11.3410112
20
9.9601776
11
11.3201019
21
9.9195768
0
LINE
8
layer0
10
11.3201019
20
9.9195768
11
11.3057805
21
9.8825975
0
LINE
8
layer0
10
11.3057805
20
9.8825975
11
11.297894
21
9.8494892
0
LINE
8
layer0
10
11.297894
20
9.8494892
11
11.2962536
21
9.8204978
0
LINE
8
layer0
10
11.2962536
20
9.8204978
11
11.3006999
21
9.7958806
0
LINE
8
layer0
10
11.3006999
20
9.7958806
11
11.3110347
21
9.7758632
0
LINE
8
layer0
10
11.3110347
20
9.7758632
11
11.3289288
21
9.7549734
0
LINE
8
layer0
10
11.3289288
20
9.7549734
11
11.5565063
21
9.4841796
0
LINE
8
layer0
10
11.5565063
20
9.4841796
11
11.7776986
21
9.2081458
0
LINE
8
layer0
10
11.7776986
20
9.2081458
11
11.7946961
21
9.18652
0
LINE
8
layer0
10
11.7946961
20
9.18652
11
11.8123127
21
9.1724786
0
LINE
8
layer0
10
11.8123127
20
9.1724786
11
11.8355894
21
9.1633152
0
LINE
8
layer0
10
11.8355894
20
9.1633152
11
11.8643438
21
9.1592682
0
LINE
8
layer0
10
11.8643438
20
9.1592682
11
11.8983546
21
9.1605439
0
LINE
8
layer0
10
11.8983546
20
9.1605439
11
11.9374173
21
9.1673758
0
LINE
8
layer0
10
11.9374173
20
9.1673758
11
11.9813171
21
9.1799626
0
LINE
8
layer0
10
11.9813171
20
9.1799626
11
12.0298123
21
9.19852
0
LINE
8
layer0
10
12.0298123
20
9.19852
11
12.1943167
21
9.2807188
0
LINE
8
layer0
10
12.1943167
20
9.2807188
11
12.3187449
21
9.3384365
0
LINE
8
layer0
10
12.3187449
20
9.3384365
11
12.4696276
21
9.4009311
0
LINE
8
layer0
10
12.4696276
20
9.4009311
11
12.648521
21
9.4664008
0
LINE
8
layer0
10
12.648521
20
9.4664008
11
12.8545869
21
9.5321784
0
LINE
8
layer0
10
12.8545869
20
9.5321784
11
13.0889553
21
9.5963196
0
LINE
8
layer0
10
13.0889553
20
9.5963196
11
13.351378
21
9.6564471
0
LINE
8
layer0
10
13.351378
20
9.6564471
11
13.641992
21
9.7103449
0
LINE
8
layer0
10
13.641992
20
9.7103449
11
13.9252502
21
9.7512636
0
ARC
8
layer0
10
-0.0000066
20
-0.0000042
40
17
50
32.4980717
51
35.0019271
0
LINE
8
layer0
10
14.3379554
20
9.1336066
11
14.1917532
21
8.8875691
0
LINE
8
layer0
10
14.1917532
20
8.8875691
11
14.030745
21
8.6397026
0
LINE
8
layer0
10
14.030745
20
8.6397026
11
13.8747696
21
8.4202654
0
LINE
8
layer0
10
13.8747696
20
8.4202654
11
13.725822
21
8.2282829
0
LINE
8
layer0
10
13.725822
20
8.2282829
11
13.5861933
21
8.0630749
0
LINE
8
layer0
10
13.5861933
20
8.0630749
11
13.4572477
21
7.9228531
0
LINE
8
layer0
10
13.4572477
20
7.9228531
11
13.3417699
21
7.8073714
0
LINE
8
layer0
10
13.3417699
20
7.8073714
11
13.2408291
21
7.7145023
0
LINE
8
layer0
10
13.2408291
20
7.7145023
11
13.1019343
21
7.5939762
0
LINE
8
layer0
10
13.1019343
20
7.5939762
11
13.0662311
21
7.556274
0
LINE
8
layer0
10
13.0662311
20
7.556274
11
13.0378027
21
7.5205326
0
LINE
8
layer0
10
13.0378027
20
7.5205326
11
13.0165422
21
7.4870578
0
LINE
8
layer0
10
13.0165422
20
7.4870578
11
13.0023482
21
7.4561242
0
LINE
8
layer0
10
13.0023482
20
7.4561242
11
12.9950834
21
7.4280099
0
LINE
8
layer0
10
12.9950834
20
7.4280099
11
12.9946416
21
7.4029983
0
LINE
8
layer0
10
12.9946416
20
7.4029983
11
13.0008726
21
7.3813493
0
LINE
8
layer0
10
13.0008726
20
7.3813493
11
13.0143475
21
7.3573699
0
LINE
8
layer0
10
13.0143475
20
7.3573699
11
13.1847229
21
7.0473812
0
LINE
8
layer0
10
13.1847229
20
7.0473812
11
13.3478136
21
6.7334988
0
LINE
8
layer0
10
13.3478136
20
6.7334988
11
13.3602655
21
6.7089726
0
LINE
8
layer0
10
13.3602655
20
6.7089726
11
13.3748042
21
6.6917641
0
LINE
8
layer0
10
13.3748042
20
6.6917641
11
13.395846
21
6.6782357
0
LINE
8
layer0
10
13.395846
20
6.6782357
11
13.4232583
21
6.6686567
0
LINE
8
layer0
10
13.4232583
20
6.6686567
11
13.4568645
21
6.6632728
0
LINE
8
layer0
10
13.4568645
20
6.6632728
11
13.4965095
21
6.6623527
0
LINE
8
layer0
10
13.4965095
20
6.6623527
11
13.5420213
21
6.6661332
0
LINE
8
layer0
10
13.5420213
20
6.6661332
11
13.5932051
21
6.6748731
0
LINE
8
layer0
10
13.5932051
20
6.6748731
11
13.7705848
21
6.7233992
0
LINE
8
layer0
10
13.7705848
20
6.7233992
11
13.9038823
21
6.7557332
0
LINE
8
layer0
10
13.9038823
20
6.7557332
11
14.0640578
21
6.7875912
0
LINE
8
layer0
10
14.0640578
20
6.7875912
11
14.2522864
21
6.8169025
0
LINE
8
layer0
10
14.2522864
20
6.8169025
11
14.4672253
21
6.8412148
0
LINE
8
layer0
10
14.4672253
20
6.8412148
11
14.7096038
21
6.8584005
0
LINE
8
layer0
10
14.7096038
20
6.8584005
11
14.9787144
21
6.8661766
0
LINE
8
layer0
10
14.9787144
20
6.8661766
11
15.2742593
21
6.8623427
0
LINE
8
layer0
10
15.2742593
20
6.8623427
11
15.5600575
21
6.8472143
0
ARC
8
layer0
10
-0.0000073
20
-0.000003
40
17
50
21.2480723
51
23.7519278
0
LINE
8
layer0
10
15.8443338
20
6.1609106
11
15.6529414
21
5.9481232
0
LINE
8
layer0
10
15.6529414
20
5.9481232
11
15.4466706
21
5.7364306
0
LINE
8
layer0
10
15.4466706
20
5.7364306
11
15.2508821
21
5.5516391
0
LINE
8
layer0
10
15.2508821
20
5.5516391
11
15.0673425
21
5.3924038
0
LINE
8
layer0
10
15.0673425
20
5.3924038
11
14.8981663
21
5.2576103
0
LINE
8
layer0
10
14.8981663
20
5.2576103
11
14.7443424
21
5.1452389
0
LINE
8
layer0
10
14.7443424
20
5.1452389
11
14.6085542
21
5.0545047
0
LINE
8
layer0
10
14.6085542
20
5.0545047
11
14.4914351
21
4.9831127
0
LINE
8
layer0
10
14.4914351
20
4.9831127
11
14.3316955
21
4.8919995
0
LINE
8
layer0
10
14.3316955
20
4.8919995
11
14.2893231
21
4.8619871
0
LINE
8
layer0
10
14.2893231
20
4.8619871
11
14.2544681
21
4.8324786
0
LINE
8
layer0
10
14.2544681
20
4.8324786
11
14.2270855
21
4.8037947
0
LINE
8
layer0
10
14.2270855
20
4.8037947
11
14.2071294
21
4.7762246
0
LINE
8
layer0
10
14.2071294
20
4.7762246
11
14.1945193
21
4.7500678
0
LINE
8
layer0
10
14.1945193
20
4.7500678
11
14.1892065
21
4.725623
0
LINE
8
layer0
10
14.1892065
20
4.725623
11
14.1910943
21
4.7031743
0
LINE
8
layer0
10
14.1910943
20
4.7031743
11
14.1996322
21
4.6770268
0
LINE
8
layer0
10
14.1996322
20
4.6770268
11
14.306258
21
4.3397559
0
LINE
8
layer0
10
14.306258
20
4.3397559
11
14.4049795
21
4.0000873
0
LINE
8
layer0
10
14.4049795
20
4.0000873
11
14.4124073
21
3.973603
0
LINE
8
layer0
10
14.4124073
20
3.973603
11
14.4233095
21
3.9538889
0
LINE
8
layer0
10
14.4233095
20
3.9538889
11
14.4413078
21
3.9365154
0
LINE
8
layer0
10
14.4413078
20
3.9365154
11
14.4663246
21
3.9217726
0
LINE
8
layer0
10
14.4663246
20
3.9217726
11
14.4982346
21
3.9099359
0
LINE
8
layer0
10
14.4982346
20
3.9099359
11
14.5369383
21
3.9012991
0
LINE
8
layer0
10
14.5369383
20
3.9012991
11
14.5823132
21
3.8961281
0
LINE
8
layer0
10
14.5823132
20
3.8961281
11
14.6342186
21
3.8947145
0
LINE
8
layer0
10
14.6342186
20
3.8947145
11
14.817657
21
3.9077032
0
LINE
8
layer0
10
14.817657
20
3.9077032
11
14.9547012
21
3.9134108
0
LINE
8
layer0
10
14.9547012
20
3.9134108
11
15.1180143
21
3.9134079
0
LINE
8
layer0
10
15.1180143
20
3.9134079
11
15.3083444
21
3.9054345
0
LINE
8
layer0
10
15.3083444
20
3.9054345
11
15.5238965
21
3.8873471
0
LINE
8
layer0
10
15.5238965
20
3.8873471
11
15.7649705
21
3.8569169
0
LINE
8
layer0
10
15.7649705
20
3.8569169
11
16.0304272
21
3.8120427
0
LINE
8
layer0
10
16.0304272
20
3.8120427
11
16.3195453
21
3.7506246
0
LINE
8
layer0
10
16.3195453
20
3.7506246
11
16.5969006
21
3.6800303
0
ARC
8
layer0
10
-0.0000077
20
-0.0000016
40
17
50
9.9980725
51
12.5019279
0
LINE
8
layer0
10
16.7418234
20
2.9514542
11
16.5125958
21
2.7800943
0
LINE
8
layer1
10
16.5125958
20
2.7800943
11
16.2689892
21
2.6127107
0
LINE
8
layer1
10
16.2689892
20
2.6127107
11
16.0409117
21
2.4696664
0
LINE
8
layer1
10
16.0409117
20
2.4696664
11
15.8298335
21
2.3492975
0
LINE
8
layer1
10
15.8298335
20
2.3492975
11
15.6376111
21
2.2500988
0
LINE
8
layer1
10
15.6376111
20
2.2500988
11
15.4648203
21
2.1698961
0
LINE
8
layer1
10
15.4648203
20
2.1698961
11
15.3139398
21
2.1073963
0
LINE
8
layer1
10
15.3139398
20
2.1073963
11
15.1851433
21
2.0602249
0
LINE
8
layer1
10
15.1851433
20
2.0602249
11
15.0106978
21
2.002026
0
LINE
8
layer1
10
15.0106978
20
2.002026
11
14.9632844
21
1.9808567
0
LINE
8
layer1
10
14.9632844
20
1.9808567
11
14.9233423
21
1.9587151
0
LINE
8
layer1
10
14.9233423
20
1.9587151
11
14.8908899
21
1.9359245
0
LINE
8
layer1
10
14.8908899
20
1.9359245
11
14.8659386
21
1.9127773
0
LINE
8
layer1
10
14.8659386
20
1.9127773
11
14.8484679
21
1.8895832
0
LINE
8
layer1
10
14.8484679
20
1.8895832
11
14.8384882
21
1.8666446
0
LINE
8
layer1
10
14.8384882
20
1.8666446
11
14.8359602
21
1.844259
0
LINE
8
layer1
10
14.8359602
20
1.844259
11
14.8392329
21
1.8169483
0
LINE
8
layer1
10
14.8392329
20
1.8169483
11
14.8780117
21
1.4653562
0
LINE
8
layer1
10
14.8780117
20
1.4653562
11
14.9085702
21
1.1129546
0
LINE
8
layer1
10
14.9085702
20
1.1129546
11
14.9106885
21
1.0855302
0
LINE
8
layer1
10
14.9106885
20
1.0855302
11
14.9175351
21
1.0640679
0
LINE
8
layer1
10
14.9175351
20
1.0640679
11
14.9317981
21
1.043517
0
LINE
8
layer1
10
14.9317981
20
1.043517
11
14.9534581
21
1.0241769
0
LINE
8
layer1
10
14.9534581
20
1.0241769
11
14.9824458
21
1.0063423
0
LINE
8
layer1
10
14.9824458
20
1.0063423
11
15.0187208
21
0.9903207
0
LINE
8
layer1
10
15.0187208
20
0.9903207
11
15.0622151
21
0.9763969
0
LINE
8
layer1
10
15.0622151
20
0.9763969
11
15.1128473
21
0.9648843
0
LINE
8
layer1
10
15.1128473
20
0.9648843
11
15.2952949
21
0.9418363
0
LINE
8
layer1
10
15.2952949
20
0.9418363
11
15.4308194
21
0.9206982
0
LINE
8
layer1
10
15.4308194
20
0.9206982
11
15.5909939
21
0.8888346
0
LINE
8
layer1
10
15.5909939
20
0.8888346
11
15.7761113
21
0.8438828
0
LINE
8
layer1
10
15.7761113
20
0.8438828
11
15.9839929
21
0.7840909
0
LINE
8
layer1
10
15.9839929
20
0.7840909
11
16.2144981
21
0.7072142
0
LINE
8
layer1
10
16.2144981
20
0.7072142
11
16.4660997
21
0.6114141
0
LINE
8
layer1
10
16.4660997
20
0.6114141
11
16.7376804
21
0.494772
0
LINE
8
layer1
10
16.7376804
20
0.494772
11
16.9959341
21
0.3714249
0
ARC
8
layer1
10
-0.0000079
20
0
40
17
50
358.7480722
51
361.2519278
0
LINE
8
layer1
10
16.9959341
20
-0.3714249
11
16.7376804
21
-0.494772
0
LINE
8
layer1
10
16.7376804
20
-0.494772
11
16.4660997
21
-0.6114141
0
LINE
8
layer1
10
16.4660997
20
-0.6114141
11
16.2144981
21
-0.7072142
0
LINE
8
layer1
10
16.2144981
20
-0.7072142
11
15.9839929
21
-0.7840909
0
LINE
8
layer1
10
15.9839929
20
-0.7840909
11
15.7761113
21
-0.8438828
0
LINE
8
layer1
10
15.7761113
20
-0.8438828
11
15.5909939
21
-0.8888346
0
LINE
8
layer1
10
15.5909939
20
-0.8888346
11
15.4308194
21
-0.9206982
0
LINE
8
layer1
10
15.4308194
20
-0.9206982
11
15.2952949
21
-0.9418363
0
LINE
8
layer1
10
15.2952949
20
-0.9418363
11
15.1128473
21
-0.9648843
0
LINE
8
layer1
10
15.1128473
20
-0.9648843
11
15.0622151
21
-0.9763969
0
LINE
8
layer1
10
15.0622151
20
-0.9763969
11
15.0187208
21
-0.9903207
0
LINE
8
layer1
10
15.0187208
20
-0.9903207
11
14.9824458
21
-1.0063423
0
LINE
8
layer1
10
14.9824458
20
-1.0063423
11
14.9534581
21
-1.0241769
0
LINE
8
layer1
10
14.9534581
20
-1.0241769
11
14.9317981
21
-1.043517
0
LINE
8
layer1
10
14.9317981
20
-1.043517
11
14.9175351
21
-1.0640679
0
LINE
8
layer1
10
14.9175351
20
-1.0640679
11
14.9106885
21
-1.0855302
0
LINE
8
layer1
10
14.9106885
20
-1.0855302
11
14.9085702
21
-1.1129546
0
LINE
8
layer1
10
14.9085702
20
-1.1129546
11
14.8780117
21
-1.4653562
0
LINE
8
layer1
10
14.8780117
20
-1.4653562
11
14.8392329
21
-1.8169483
0
LINE
8
layer1
10
14.8392329
20
-1.8169483
11
14.8359602
21
-1.844259
0
LINE
8
layer1
10
14.8359602
20
-1.844259
11
14.8384882
21
-1.8666446
0
LINE
8
layer1
10
14.8384882
20
-1.8666446
11
14.8484679
21
-1.8895832
0
LINE
8
layer1
10
14.8484679
20
-1.8895832
11
14.8659386
21
-1.9127773
0
LINE
8
layer1
10
14.8659386
20
-1.9127773
11
14.8908899
21
-1.9359245
0
LINE
8
layer1
10
14.8908899
20
-1.9359245
11
14.9233423
21
-1.9587151
0
LINE
8
layer1
10
14.9233423
20
-1.9587151
11
14.9632844
21
-1.9808567
0
LINE
8
layer1
10
14.9632844
20
-1.9808567
11
15.0106978
21
-2.002026
0
LINE
8
layer1
10
15.0106978
20
-2.002026
11
15.1851433
21
-2.0602249
0
LINE
8
layer1
10
15.1851433
20
-2.0602249
11
15.3139398
21
-2.1073963
0
LINE
8
layer1
10
15.3139398
20
-2.1073963
11
15.4648203
21
-2.1698961
0
LINE
8
layer1
10
15.4648203
20
-2.1698961
11
15.6376111
21
-2.2500988
0
LINE
8
layer1
10
15.6376111
20
-2.2500988
11
15.8298335
21
-2.3492975
0
LINE
8
layer1
10
15.8298335
20
-2.3492975
11
16.0409117
21
-2.4696664
0
LINE
8
layer1
10
16.0409117
20
-2.4696664
11
16.2689892
21
-2.6127107
0
LINE
8
layer1
10
16.2689892
20
-2.6127107
11
16.5125958
21
-2.7800943
0
LINE
8
layer1
10
16.5125958
20
-2.7800943
11
16.7418234
21
-2.9514542
0
ARC
8
layer1
10
-0.0000077
20
0.0000016
40
17
50
347.4980721
51
350.0019275
0
LINE
8
layer1
10
16.5969006
20
-3.6800303
11
16.3195453
21
-3.7506246
0
LINE
8
layer1
10
16.3195453
20
-3.7506246
11
16.0304272
21
-3.8120427
0
LINE
8
layer1
10
16.0304272
20
-3.8120427
11
15.7649705
21
-3.8569169
0
LINE
8
layer1
10
15.7649705
20
-3.8569169
11
15.5238965
21
-3.8873471
0
LINE
8
layer1
10
15.5238965
20
-3.8873471
11
15.3083444
21
-3.9054345
0
LINE
8
layer1
10
15.3083444
20
-3.9054345
11
15.1180143
21
-3.9134079
0
LINE
8
layer1
10
15.1180143
20
-3.9134079
11
14.9547012
21
-3.9134108
0
LINE
8
layer1
10
14.9547012
20
-3.9134108
11
14.817657
21
-3.9077032
0
LINE
8
layer1
10
14.817657
20
-3.9077032
11
14.6342186
21
-3.8947145
0
LINE
8
layer1
10
14.6342186
20
-3.8947145
11
14.5823132
21
-3.8961281
0
LINE
8
layer1
10
14.5823132
20
-3.8961281
11
14.5369383
21
-3.9012991
0
LINE
8
layer1
10
14.5369383
20
-3.9012991
11
14.4982346
21
-3.9099359
0
LINE
8
layer1
10
14.4982346
20
-3.9099359
11
14.4663246
21
-3.9217726
0
LINE
8
layer1
10
14.4663246
20
-3.9217726
11
14.4413078
21
-3.9365154
0
LINE
8
layer1
10
14.4413078
20
-3.9365154
11
14.4233095
21
-3.9538889
0
LINE
8
layer1
10
14.4233095
20
-3.9538889
11
14.4124073
21
-3.973603
0
LINE
8
layer1
10
14.4124073
20
-3.973603
11
14.4049795
21
-4.0000873
0
LINE
8
layer1
10
14.4049795
20
-4.0000873
11
14.306258
21
-4.3397559
0
LINE
8
layer1
10
14.306258
20
-4.3397559
11
14.1996322
21
-4.6770268
0
LINE
8
layer1
10
14.1996322
20
-4.6770268
11
14.1910943
21
-4.7031743
0
LINE
8
layer1
10
14.1910943
20
-4.7031743
11
14.1892065
21
-4.725623
0
LINE
8
layer1
10
14.1892065
20
-4.725623
11
14.1945193
21
-4.7500678
0
LINE
8
layer1
10
14.1945193
20
-4.7500678
11
14.2071294
21
-4.7762246
0
LINE
8
layer1
10
14.2071294
20
-4.7762246
11
14.2270855
21
-4.8037947
0
LINE
8
layer1
10
14.2270855
20
-4.8037947
11
14.2544681
21
-4.8324786
0
LINE
8
layer1
10
14.2544681
20
-4.8324786
11
14.2893231
21
-4.8619871
0
LINE
8
layer1
10
14.2893231
20
-4.8619871
11
14.3316955
21
-4.8919995
0
LINE
8
layer1
10
14.3316955
20
-4.8919995
11
14.4914351
21
-4.9831127
0
LINE
8
layer1
10
14.4914351
20
-4.9831127
11
14.6085542
21
-5.0545047
0
LINE
8
layer1
10
14.6085542
20
-5.0545047
11
14.7443424
21
-5.1452389
0
LINE
8
layer1
10
14.7443424
20
-5.1452389
11
14.8981663
21
-5.2576103
0
LINE
8
layer1
10
14.8981663
20
-5.2576103
11
15.0673425
21
-5.3924038
0
LINE
8
layer1
10
15.0673425
20
-5.3924038
11
15.2508821
21
-5.5516391
0
LINE
8
layer1
10
15.2508821
20
-5.5516391
11
15.4466706
21
-5.7364306
0
LINE
8
layer1
10
15.4466706
20
-5.7364306
11
15.6529414
21
-5.9481232
0
LINE
8
layer1
10
15.6529414
20
-5.9481232
11
15.8443338
21
-6.1609106
0
ARC
8
layer1
10
-0.0000073
20
0.0000029
40
17
50
336.2480725
51
338.751928
0
LINE
8
layer1
10
15.5600575
20
-6.8472143
11
15.2742593
21
-6.8623427
0
LINE
8
layer1
10
15.2742593
20
-6.8623427
11
14.9787144
21
-6.8661766
0
LINE
8
layer1
10
14.9787144
20
-6.8661766
11
14.7096038
21
-6.8584005
0
LINE
8
layer1
10
14.7096038
20
-6.8584005
11
14.4672253
21
-6.8412148
0
LINE
8
layer1
10
14.4672253
20
-6.8412148
11
14.2522864
21
-6.8169025
0
LINE
8
layer1
10
14.2522864
20
-6.8169025
11
14.0640578
21
-6.7875912
0
LINE
8
layer1
10
14.0640578
20
-6.7875912
11
13.9038823
21
-6.7557332
0
LINE
8
layer1
10
13.9038823
20
-6.7557332
11
13.7705848
21
-6.7233992
0
LINE
8
layer1
10
13.7705848
20
-6.7233992
11
13.5932051
21
-6.6748731
0
LINE
8
layer1
10
13.5932051
20
-6.6748731
11
13.5420213
21
-6.6661332
0
LINE
8
layer1
10
13.5420213
20
-6.6661332
11
13.4965095
21
-6.6623527
0
LINE
8
layer1
10
13.4965095
20
-6.6623527
11
13.4568645
21
-6.6632728
0
LINE
8
layer1
10
13.4568645
20
-6.6632728
11
13.4232583
21
-6.6686567
0
LINE
8
layer1
10
13.4232583
20
-6.6686567
11
13.395846
21
-6.6782357
0
LINE
8
layer1
10
13.395846
20
-6.6782357
11
13.3748042
21
-6.6917641
0
LINE
8
layer1
10
13.3748042
20
-6.6917641
11
13.3602655
21
-6.7089726
0
LINE
8
layer1
10
13.3602655
20
-6.7089726
11
13.3478136
21
-6.7334988
0
LINE
8
layer1
10
13.3478136
20
-6.7334988
11
13.1847229
21
-7.0473812
0
LINE
8
layer1
10
13.1847229
20
-7.0473812
11
13.0143475
21
-7.3573699
0
LINE
8
layer1
10
13.0143475
20
-7.3573699
11
13.0008726
21
-7.3813493
0
LINE
8
layer1
10
13.0008726
20
-7.3813493
11
12.9946416
21
-7.4029983
0
LINE
8
layer1
10
12.9946416
20
-7.4029983
11
12.9950834
21
-7.4280099
0
LINE
8
layer1
10
12.9950834
20
-7.4280099
11
13.0023482
21
-7.4561242
0
LINE
8
layer1
10
13.0023482
20
-7.4561242
11
13.0165422
21
-7.4870578
0
LINE
8
layer1
10
13.0165422
20
-7.4870578
11
13.0378027
21
-7.5205326
0
LINE
8
layer1
10
13.0378027
20
-7.5205326
11
13.0662311
21
-7.556274
0
LINE
8
layer1
10
13.0662311
20
-7.556274
11
13.1019343
21
-7.5939762
0
LINE
8
layer1
10
13.1019343
20
-7.5939762
11
13.2408291
21
-7.7145023
0
LINE
8
layer1
10
13.2408291
20
-7.7145023
11
13.3417699
21
-7.8073714
0
LINE
8
layer1
10
13.3417699
20
-7.8073714
11
13.4572477
21
-7.9228531
0
LINE
8
layer1
10
13.4572477
20
-7.9228531
11
13.5861933
21
-8.0630749
0
LINE
8
layer1
10
13.5861933
20
-8.0630749
11
13.725822
21
-8.2282829
0
LINE
8
layer1
10
13.725822
20
-8.2282829
11
13.8747696
21
-8.4202654
0
LINE
8
layer1
10
13.8747696
20
-8.4202654
11
14.030745
21
-8.6397026
0
LINE
8
layer1
10
14.030745
20
-8.6397026
11
14.1917532
21
-8.8875691
0
LINE
8
layer1
10
14.1917532
20
-8.8875691
11
14.3379554
21
-9.1336066
0
ARC
8
layer1
10
-0.0000066
20
0.0000041
40
17
50
324.9980732
51
327.5019286
0
LINE
8
layer1
10
13.9252502
20
-9.7512636
11
13.641992
21
-9.7103449
0
LINE
8
layer1
10
13.641992
20
-9.7103449
11
13.351378
21
-9.6564471
0
LINE
8
layer1
10
13.351378
20
-9.6564471
11
13.0889553
21
-9.5963196
0
LINE
8
layer1
10
13.0889553
20
-9.5963196
11
12.8545869
21
-9.5321784
0
LINE
8
layer1
10
12.8545869
20
-9.5321784
11
12.648521
21
-9.4664008
0
LINE
8
layer1
10
12.648521
20
-9.4664008
11
12.4696276
21
-9.4009311
0
LINE
8
layer1
10
12.4696276
20
-9.4009311
11
12.3187449
21
-9.3384365
0
LINE
8
layer1
10
12.3187449
20
-9.3384365
11
12.1943167
21
-9.2807188
0
LINE
8
layer1
10
12.1943167
20
-9.2807188
11
12.0298123
21
-9.19852
0
LINE
8
layer1
10
12.0298123
20
-9.19852
11
11.9813171
21
-9.1799626
0
LINE
8
layer1
10
11.9813171
20
-9.1799626
11
11.9374173
21
-9.1673758
0
LINE
8
layer1
10
11.9374173
20
-9.1673758
11
11.8983546
21
-9.1605439
0
LINE
8
layer1
10
11.8983546
20
-9.1605439
11
11.8643438
21
-9.1592682
0
LINE
8
layer1
10
11.8643438
20
-9.1592682
11
11.8355894
21
-9.1633152
0
LINE
8
layer1
10
11.8355894
20
-9.1633152
11
11.8123127
21
-9.1724786
0
LINE
8
layer1
10
11.8123127
20
-9.1724786
11
11.7946961
21
-9.18652
0
LINE
8
layer1
10
11.7946961
20
-9.18652
11
11.7776986
21
-9.2081458
0
LINE
8
layer1
10
11.7776986
20
-9.2081458
11
11.5565063
21
-9.4841796
0
LINE
8
layer1
10
11.5565063
20
-9.4841796
11
11.3289288
21
-9.7549734
0
LINE
8
layer1
10
11.3289288
20
-9.7549734
11
11.3110347
21
-9.7758632
0
LINE
8
layer1
10
11.3110347
20
-9.7758632
11
11.3006999
21
-9.7958806
0
LINE
8
layer1
10
11.3006999
20
-9.7958806
11
11.2962536
21
-9.8204978
0
LINE
8
layer1
10
11.2962536
20
-9.8204978
11
11.297894
21
-9.8494892
0
LINE
8
layer1
10
11.297894
20
-9.8494892
11
11.3057805
21
-9.8825975
0
LINE
8
layer1
10
11.3057805
20
-9.8825975
11
11.3201019
21
-9.9195768
0
LINE
8
layer1
10
11.3201019
20
-9.9195768
11
11.3410112
21
-9.9601776
0
LINE
8
layer1
10
11.3410112
20
-9.9601776
11
11.368673
21
-10.0041206
0
LINE
8
layer1
10
11.368673
20
-10.0041206
11
11.4813856
21
-10.149428
0
LINE
8
layer1
10
11.4813856
20
-10.149428
11
11.562269
21
-10.2602051
0
LINE
8
layer1
10
11.562269
20
-10.2602051
11
11.6529985
21
-10.3959965
0
LINE
8
layer1
10
11.6529985
20
-10.3959965
11
11.7521106
21
-10.55868
0
LINE
8
layer1
10
11.7521106
20
-10.55868
11
11.8568258
21
-10.7479538
0
LINE
8
layer1
10
11.8568258
20
-10.7479538
11
11.9654575
21
-10.9653056
0
LINE
8
layer1
10
11.9654575
20
-10.9653056
11
12.0756258
21
-11.2109557
0
LINE
8
layer1
10
12.0756258
20
-11.2109557
11
12.1851839
21
-11.4854706
0
LINE
8
layer1
10
12.1851839
20
-11.4854706
11
12.2805773
21
-11.7553032
0
ARC
8
layer1
10
-0.0000056
20
0.0000056
40
17
50
313.7480723
51
316.2519277
0
LINE
8
layer1
10
11.7553032
20
-12.2805773
11
11.4854706
21
-12.1851839
0
LINE
8
layer1
10
11.4854706
20
-12.1851839
11
11.2109557
21
-12.0756258
0
LINE
8
layer1
10
11.2109557
20
-12.0756258
11
10.9653056
21
-11.9654575
0
LINE
8
layer1
10
10.9653056
20
-11.9654575
11
10.7479538
21
-11.8568258
0
LINE
8
layer1
10
10.7479538
20
-11.8568258
11
10.55868
21
-11.7521106
0
LINE
8
layer1
10
10.55868
20
-11.7521106
11
10.3959965
21
-11.6529985
0
LINE
8
layer1
10
10.3959965
20
-11.6529985
11
10.2602051
21
-11.562269
0
LINE
8
layer1
10
10.2602051
20
-11.562269
11
10.149428
21
-11.4813856
0
LINE
8
layer1
10
10.149428
20
-11.4813856
11
10.0041206
21
-11.368673
0
LINE
8
layer1
10
10.0041206
20
-11.368673
11
9.9601776
21
-11.3410112
0
LINE
8
layer1
10
9.9601776
20
-11.3410112
11
9.9195768
21
-11.3201019
0
LINE
8
layer1
10
9.9195768
20
-11.3201019
11
9.8825975
21
-11.3057805
0
LINE
8
layer1
10
9.8825975
20
-11.3057805
11
9.8494892
21
-11.297894
0
LINE
8
layer1
10
9.8494892
20
-11.297894
11
9.8204978
21
-11.2962536
0
LINE
8
layer1
10
9.8204978
20
-11.2962536
11
9.7958806
21
-11.3006999
0
LINE
8
layer1
10
9.7958806
20
-11.3006999
11
9.7758632
21
-11.3110347
0
LINE
8
layer1
10
9.7758632
20
-11.3110347
11
9.7549734
21
-11.3289288
0
LINE
8
layer1
10
9.7549734
20
-11.3289288
11
9.4841796
21
-11.5565063
0
LINE
8
layer1
10
9.4841796
20
-11.5565063
11
9.2081458
21
-11.7776986
0
LINE
8
layer1
10
9.2081458
20
-11.7776986
11
9.18652
21
-11.7946961
0
LINE
8
layer1
10
9.18652
20
-11.7946961
11
9.1724786
21
-11.8123127
0
LINE
8
layer1
10
9.1724786
20
-11.8123127
11
9.1633152
21
-11.8355894
0
LINE
8
layer1
10
9.1633152
20
-11.8355894
11
9.1592682
21
-11.8643438
0
LINE
8
layer1
10
9.1592682
20
-11.8643438
11
9.1605439
21
-11.8983546
0
LINE
8
layer1
10
9.1605439
20
-11.8983546
11
9.1673758
21
-11.9374173
0
LINE
8
layer1
10
9.1673758
20
-11.9374173
11
9.1799626
21
-11.9813171
0
LINE
8
layer1
10
9.1799626
20
-11.9813171
11
9.19852
21
-12.0298123
0
LINE
8
layer1
10
9.19852
20
-12.0298123
11
9.2807188
21
-12.1943167
0
LINE
8
layer1
10
9.2807188
20
-12.1943167
11
9.3384365
21
-12.3187449
0
LINE
8
layer1
10
9.3384365
20
-12.3187449
11
9.4009311
21
-12.4696276
0
LINE
8
layer1
10
9.4009311
20
-12.4696276
11
9.4664008
21
-12.648521
0
LINE
8
layer1
10
9.4664008
20
-12.648521
11
9.5321784
21
-12.8545869
0
LINE
8
layer1
10
9.5321784
20
-12.8545869
11
9.5963196
21
-13.0889553
0
LINE
8
layer1
10
9.5963196
20
-13.0889553
11
9.6564471
21
-13.351378
0
LINE
8
layer1
10
9.6564471
20
-13.351378
11
9.7103449
21
-13.641992
0
LINE
8
layer1
10
9.7103449
20
-13.641992
11
9.7512636
21
-13.9252502
0
ARC
8
layer1
10
-0.0000042
20
0.0000066
40
17
50
302.4980717
51
305.0019271
0
LINE
8
layer1
10
9.1336066
20
-14.3379554
11
8.8875691
21
-14.1917532
0
LINE
8
layer1
10
8.8875691
20
-14.1917532
11
8.6397026
21
-14.030745
0
LINE
8
layer1
10
8.6397026
20
-14.030745
11
8.4202654
21
-13.8747696
0
LINE
8
layer1
10
8.4202654
20
-13.8747696
11
8.2282829
21
-13.725822
0
LINE
8
layer1
10
8.2282829
20
-13.725822
11
8.0630749
21
-13.5861933
0
LINE
8
layer1
10
8.0630749
20
-13.5861933
11
7.9228531
21
-13.4572477
0
LINE
8
layer1
10
7.9228531
20
-13.4572477
11
7.8073714
21
-13.3417699
0
LINE
8
layer1
10
7.8073714
20
-13.3417699
11
7.7145023
21
-13.2408291
0
LINE
8
layer1
10
7.7145023
20
-13.2408291
11
7.5939762
21
-13.1019343
0
LINE
8
layer1
10
7.5939762
20
-13.1019343
11
7.556274
21
-13.0662311
0
LINE
8
layer1
10
7.556274
20
-13.0662311
11
7.5205326
21
-13.0378027
0
LINE
8
layer1
10
7.5205326
20
-13.0378027
11
7.4870578
21
-13.0165422
0
LINE
8
layer1
10
7.4870578
20
-13.0165422
11
7.4561242
21
-13.0023482
0
LINE
8
layer1
10
7.4561242
20
-13.0023482
11
7.4280099
21
-12.9950834
0
LINE
8
layer1
10
7.4280099
20
-12.9950834
11
7.4029983
21
-12.9946416
0
LINE
8
layer1
10
7.4029983
20
-12.9946416
11
7.3813493
21
-13.0008726
0
LINE
8
layer1
10
7.3813493
20
-13.0008726
11
7.3573699
21
-13.0143475
0
LINE
8
layer1
10
7.3573699
20
-13.0143475
11
7.0473812
21
-13.1847229
0
LINE
8
layer1
10
7.0473812
20
-13.1847229
11
6.7334988
21
-13.3478136
0
LINE
8
layer1
10
6.7334988
20
-13.3478136
11
6.7089726
21
-13.3602655
0
LINE
8
layer1
10
6.7089726
20
-13.3602655
11
6.6917641
21
-13.3748042
0
LINE
8
layer1
10
6.6917641
20
-13.3748042
11
6.6782357
21
-13.395846
0
LINE
8
layer1
10
6.6782357
20
-13.395846
11
6.6686567
21
-13.4232583
0
LINE
8
layer1
10
6.6686567
20
-13.4232583
11
6.6632728
21
-13.4568645
0
LINE
8
layer1
10
6.6632728
20
-13.4568645
11
6.6623527
21
-13.4965095
0
LINE
8
layer1
10
6.6623527
20
-13.4965095
11
6.6661332
21
-13.5420213
0
LINE
8
layer1
10
6.6661332
20
-13.5420213
11
6.6748731
21
-13.5932051
0
LINE
8
layer1
10
6.6748731
20
-13.5932051
11
6.7233992
21
-13.7705848
0
LINE
8
layer1
10
6.7233992
20
-13.7705848
11
6.7557332
21
-13.9038823
0
LINE
8
layer1
10
6.7557332
20
-13.9038823
11
6.7875912
21
-14.0640578
0
LINE
8
layer1
10
6.7875912
20
-14.0640578
11
6.8169025
21
-14.2522864
0
LINE
8
layer1
10
6.8169025
20
-14.2522864
11
6.8412148
21
-14.4672253
0
LINE
8
layer1
10
6.8412148
20
-14.4672253
11
6.8584005
21
-14.7096038
0
LINE
8
layer1
10
6.8584005
20
-14.7096038
11
6.8661766
21
-14.9787144
0
LINE
8
layer1
10
6.8661766
20
-14.9787144
11
6.8623427
21
-15.2742593
0
LINE
8
layer1
10
6.8623427
20
-15.2742593
11
6.8472143
21
-15.5600575
0
ARC
8
layer1
10
-0.000003
20
0.0000073
40
17
50
291.2480723
51
293.7519278
0
LINE
8
layer1
10
6.1609106
20
-15.8443338
11
5.9481232
21
-15.6529414
0
LINE
8
layer1
10
5.9481232
20
-15.6529414
11
5.7364306
21
-15.4466706
0
LINE
8
layer1
10
5.7364306
20
-15.4466706
11
5.5516391
21
-15.2508821
0
LINE
8
layer1
10
5.5516391
20
-15.2508821
11
5.3924038
21
-15.0673425
0
LINE
8
layer1
10
5.3924038
20
-15.0673425
11
5.2576103
21
-14.8981663
0
LINE
8
layer1
10
5.2576103
20
-14.8981663
11
5.1452389
21
-14.7443424
0
LINE
8
layer1
10
5.1452389
20
-14.7443424
11
5.0545047
21
-14.6085542
0
LINE
8
layer1
10
5.0545047
20
-14.6085542
11
4.9831127
21
-14.4914351
0
LINE
8
layer1
10
4.9831127
20
-14.4914351
11
4.8919995
21
-14.3316955
0
LINE
8
layer1
10
4.8919995
20
-14.3316955
11
4.8619871
21
-14.2893231
0
LINE
8
layer1
10
4.8619871
20
-14.2893231
11
4.8324786
21
-14.2544681
0
LINE
8
layer1
10
4.8324786
20
-14.2544681
11
4.8037947
21
-14.2270855
0
LINE
8
layer1
10
4.8037947
20
-14.2270855
11
4.7762246
21
-14.2071294
0
LINE
8
layer1
10
4.7762246
20
-14.2071294
11
4.7500678
21
-14.1945193
0
LINE
8
layer1
10
4.7500678
20
-14.1945193
11
4.725623
21
-14.1892065
0
LINE
8
layer1
10
4.725623
20
-14.1892065
11
4.7031743
21
-14.1910943
0
LINE
8
layer1
10
4.7031743
20
-14.1910943
11
4.6770268
21
-14.1996322
0
LINE
8
layer1
10
4.6770268
20
-14.1996322
11
4.3397559
21
-14.306258
0
LINE
8
layer1
10
4.3397559
20
-14.306258
11
4.0000873
21
-14.4049795
0
LINE
8
layer1
10
4.0000873
20
-14.4049795
11
3.973603
21
-14.4124073
0
LINE
8
layer1
10
3.973603
20
-14.4124073
11
3.9538889
21
-14.4233095
0
LINE
8
layer1
10
3.9538889
20
-14.4233095
11
3.9365154
21
-14.4413078
0
LINE
8
layer1
10
3.9365154
20
-14.4413078
11
3.9217726
21
-14.4663246
0
LINE
8
layer1
10
3.9217726
20
-14.4663246
11
3.9099359
21
-14.4982346
0
LINE
8
layer1
10
3.9099359
20
-14.4982346
11
3.9012991
21
-14.5369383
0
LINE
8
layer1
10
3.9012991
20
-14.5369383
11
3.8961281
21
-14.5823132
0
LINE
8
layer1
10
3.8961281
20
-14.5823132
11
3.8947145
21
-14.6342186
0
LINE
8
layer1
10
3.8947145
20
-14.6342186
11
3.9077032
21
-14.817657
0
LINE
8
layer1
10
3.9077032
20
-14.817657
11
3.9134108
21
-14.9547012
0
LINE
8
layer1
10
3.9134108
20
-14.9547012
11
3.9134079
21
-15.1180143
0
LINE
8
layer1
10
3.9134079
20
-15.1180143
11
3.9054345
21
-15.3083444
0
LINE
8
layer1
10
3.9054345
20
-15.3083444
11
3.8873471
21
-15.5238965
0
LINE
8
layer1
10
3.8873471
20
-15.5238965
11
3.8569169
21
-15.7649705
0
LINE
8
layer1
10
3.8569169
20
-15.7649705
11
3.8120427
21
-16.0304272
0
LINE
8
layer1
10
3.8120427
20
-16.0304272
11
3.7506246
21
-16.3195453
0
LINE
8
layer1
10
3.7506246
20
-16.3195453
11
3.6800303
21
-16.5969006
0
ARC
8
layer1
10
-0.0000016
20
0.0000077
40
17
50
279.9980725
51
282.5019279
0
LINE
8
layer1
10
2.9514542
20
-16.7418234
11
2.7800943
21
-16.5125958
0
LINE
8
layer1
10
2.7800943
20
-16.5125958
11
2.6127107
21
-16.2689892
0
LINE
8
layer1
10
2.6127107
20
-16.2689892
11
2.4696664
21
-16.0409117
0
LINE
8
layer1
10
2.4696664
20
-16.0409117
11
2.3492975
21
-15.8298335
0
LINE
8
layer1
10
2.3492975
20
-15.8298335
11
2.2500988
21
-15.6376111
0
LINE
8
layer1
10
2.2500988
20
-15.6376111
11
2.1698961
21
-15.4648203
0
LINE
8
layer1
10
2.1698961
20
-15.4648203
11
2.1073963
21
-15.3139398
0
LINE
8
layer1
10
2.1073963
20
-15.3139398
11
2.0602249
21
-15.1851433
0
LINE
8
layer1
10
2.0602249
20
-15.1851433
11
2.002026
21
-15.0106978
0
LINE
8
layer1
10
2.002026
20
-15.0106978
11
1.9808567
21
-14.9632844
0
LINE
8
layer1
10
1.9808567
20
-14.9632844
11
1.9587151
21
-14.9233423
0
LINE
8
layer1
10
1.9587151
20
-14.9233423
11
1.9359245
21
-14.8908899
0
LINE
8
layer1
10
1.9359245
20
-14.8908899
11
1.9127773
21
-14.8659386
0
LINE
8
layer1
10
1.9127773
20
-14.8659386
11
1.8895832
21
-14.8484679
0
LINE
8
layer1
10
1.8895832
20
-14.8484679
11
1.8666446
21
-14.8384882
0
LINE
8
layer1
10
1.8666446
20
-14.8384882
11
1.844259
21
-14.8359602
0
LINE
8
layer1
10
1.844259
20
-14.8359602
11
1.8169483
21
-14.8392329
0
LINE
8
layer1
10
1.8169483
20
-14.8392329
11
1.4653562
21
-14.8780117
0
LINE
8
layer1
10
1.4653562
20
-14.8780117
11
1.1129546
21
-14.9085702
0
LINE
8
layer1
10
1.1129546
20
-14.9085702
11
1.0855302
21
-14.9106885
0
LINE
8
layer1
10
1.0855302
20
-14.9106885
11
1.0640679
21
-14.9175351
0
LINE
8
layer1
10
1.0640679
20
-14.9175351
11
1.043517
21
-14.9317981
0
LINE
8
layer1
10
1.043517
20
-14.9317981
11
1.0241769
21
-14.9534581
0
LINE
8
layer1
10
1.0241769
20
-14.9534581
11
1.0063423
21
-14.9824458
0
LINE
8
layer1
10
1.0063423
20
-14.9824458
11
0.9903207
21
-15.0187208
0
LINE
8
layer1
10
0.9903207
20
-15.0187208
11
0.9763969
21
-15.0622151
0
LINE
8
layer1
10
0.9763969
20
-15.0622151
11
0.9648843
21
-15.1128473
0
LINE
8
layer1
10
0.9648843
20
-15.1128473
11
0.9418363
21
-15.2952949
0
LINE
8
layer1
10
0.9418363
20
-15.2952949
11
0.9206982
21
-15.4308194
0
LINE
8
layer1
10
0.9206982
20
-15.4308194
11
0.8888346
21
-15.5909939
0
LINE
8
layer1
10
0.8888346
20
-15.5909939
11
0.8438828
21
-15.7761113
0
LINE
8
layer1
10
0.8438828
20
-15.7761113
11
0.7840909
21
-15.9839929
0
LINE
8
layer1
10
0.7840909
20
-15.9839929
11
0.7072142
21
-16.2144981
0
LINE
8
layer1
10
0.7072142
20
-16.2144981
11
0.6114141
21
-16.4660997
0
LINE
8
layer1
10
0.6114141
20
-16.4660997
11
0.494772
21
-16.7376804
0
LINE
8
layer1
10
0.494772
20
-16.7376804
11
0.3714249
21
-16.9959341
0
ARC
8
layer1
10
0
20
0.0000079
40
17
50
268.7480722
51
271.2519278
0
LINE
8
layer1
10
-0.3714249
20
-16.9959341
11
-0.494772
21
-16.7376804
0
LINE
8
layer1
10
-0.494772
20
-16.7376804
11
-0.6114141
21
-16.4660997
0
LINE
8
layer1
10
-0.6114141
20
-16.4660997
11
-0.7072142
21
-16.2144981
0
LINE
8
layer1
10
-0.7072142
20
-16.2144981
11
-0.7840909
21
-15.9839929
0
LINE
8
layer1
10
-0.7840909
20
-15.9839929
11
-0.8438828
21
-15.7761113
0
LINE
8
layer1
10
-0.8438828
20
-15.7761113
11
-0.8888346
21
-15.5909939
0
LINE
8
layer1
10
-0.8888346
20
-15.5909939
11
-0.9206982
21
-15.4308194
0
LINE
8
layer1
10
-0.9206982
20
-15.4308194
11
-0.9418363
21
-15.2952949
0
LINE
8
layer1
10
-0.9418363
20
-15.2952949
11
-0.9648843
21
-15.1128473
0
LINE
8
layer1
10
-0.9648843
20
-15.1128473
11
-0.9763969
21
-15.0622151
0
LINE
8
layer1
10
-0.9763969
20
-15.0622151
11
-0.9903207
21
-15.0187208
0
LINE
8
layer1
10
-0.9903207
20
-15.0187208
11
-1.0063423
21
-14.9824458
0
LINE
8
layer1
10
-1.0063423
20
-14.9824458
11
-1.0241769
21
-14.9534581
0
LINE
8
layer1
10
-1.0241769
20
-14.9534581
11
-1.043517
21
-14.9317981
0
LINE
8
layer1
10
-1.043517
20
-14.9317981
11
-1.0640679
21
-14.9175351
0
LINE
8
layer1
10
-1.0640679
20
-14.9175351
11
-1.0855302
21
-14.9106885
0
LINE
8
layer1
10
-1.0855302
20
-14.9106885
11
-1.1129546
21
-14.9085702
0
LINE
8
layer1
10
-1.1129546
20
-14.9085702
11
-1.4653562
21
-14.8780117
0
LINE
8
layer1
10
-1.4653562
20
-14.8780117
11
-1.8169483
21
-14.8392329
0
LINE
8
layer1
10
-1.8169483
20
-14.8392329
11
-1.844259
21
-14.8359602
0
LINE
8
layer1
10
-1.844259
20
-14.8359602
11
-1.8666446
21
-14.8384882
0
LINE
8
layer1
10
-1.8666446
20
-14.8384882
11
-1.8895832
21
-14.8484679
0
LINE
8
layer1
10
-1.8895832
20
-14.8484679
11
-1.9127773
21
-14.8659386
0
LINE
8
layer1
10
-1.9127773
20
-14.8659386
11
-1.9359245
21
-14.8908899
0
LINE
8
layer1
10
-1.9359245
20
-14.8908899
11
-1.9587151
21
-14.9233423
0
LINE
8
layer1
10
-1.9587151
20
-14.9233423
11
-1.9808567
21
-14.9632844
0
LINE
8
layer1
10
-1.9808567
20
-14.9632844
11
-2.002026
21
-15.0106978
0
LINE
8
layer1
10
-2.002026
20
-15.0106978
11
-2.0602249
21
-15.1851433
0
LINE
8
layer1
10
-2.0602249
20
-15.1851433
11
-2.1073963
21
-15.3139398
0
LINE
8
layer1
10
-2.1073963
20
-15.3139398
11
-2.1698961
21
-15.4648203
0
LINE
8
layer1
10
-2.1698961
20
-15.4648203
11
-2.2500988
21
-15.6376111
0
LINE
8
layer1
10
-2.2500988
20
-15.6376111
11
-2.3492975
21
-15.8298335
0
LINE
8
layer1
10
-2.3492975
20
-15.8298335
11
-2.4696664
21
-16.0409117
0
LINE
8
layer1
10
-2.4696664
20
-16.0409117
11
-2.6127107
21
-16.2689892
0
LINE
8
layer1
10
-2.6127107
20
-16.2689892
11
-2.7800943
21
-16.5125958
0
LINE
8
layer1
10
-2.7800943
20
-16.5125958
11
-2.9514542
21
-16.7418234
0
ARC
8
layer1
10
0.0000016
20
0.0000077
40
17
50
257.4980721
51
260.0019275
0
LINE
8
layer1
10
-3.6800303
20
-16.5969006
11
-3.7506246
21
-16.3195453
0
LINE
8
layer1
10
-3.7506246
20
-16.3195453
11
-3.8120427
21
-16.0304272
0
LINE
8
layer1
10
-3.8120427
20
-16.0304272
11
-3.8569169
21
-15.7649705
0
LINE
8
layer1
10
-3.8569169
20
-15.7649705
11
-3.8873471
21
-15.5238965
0
LINE
8
layer1
10
-3.8873471
20
-15.5238965
11
-3.9054345
21
-15.3083444
0
LINE
8
layer1
10
-3.9054345
20
-15.3083444
11
-3.9134079
21
-15.1180143
0
LINE
8
layer1
10
-3.9134079
20
-15.1180143
11
-3.9134108
21
-14.9547012
0
LINE
8
layer1
10
-3.9134108
20
-14.9547012
11
-3.9077032
21
-14.817657
0
LINE
8
layer1
10
-3.9077032
20
-14.817657
11
-3.8947145
21
-14.6342186
0
LINE
8
layer1
10
-3.8947145
20
-14.6342186
11
-3.8961281
21
-14.5823132
0
LINE
8
layer1
10
-3.8961281
20
-14.5823132
11
-3.9012991
21
-14.5369383
0
LINE
8
layer1
10
-3.9012991
20
-14.5369383
11
-3.9099359
21
-14.4982346
0
LINE
8
layer1
10
-3.9099359
20
-14.4982346
11
-3.9217726
21
-14.4663246
0
LINE
8
layer1
10
-3.9217726
20
-14.4663246
11
-3.9365154
21
-14.4413078
0
LINE
8
layer1
10
-3.9365154
20
-14.4413078
11
-3.9538889
21
-14.4233095
0
LINE
8
layer1
10
-3.9538889
20
-14.4233095
11
-3.973603
21
-14.4124073
0
LINE
8
layer1
10
-3.973603
20
-14.4124073
11
-4.0000873
21
-14.4049795
0
LINE
8
layer1
10
-4.0000873
20
-14.4049795
11
-4.3397559
21
-14.306258
0
LINE
8
layer1
10
-4.3397559
20
-14.306258
11
-4.6770268
21
-14.1996322
0
LINE
8
layer1
10
-4.6770268
20
-14.1996322
11
-4.7031743
21
-14.1910943
0
LINE
8
layer1
10
-4.7031743
20
-14.1910943
11
-4.725623
21
-14.1892065
0
LINE
8
layer1
10
-4.725623
20
-14.1892065
11
-4.7500678
21
-14.1945193
0
LINE
8
layer1
10
-4.7500678
20
-14.1945193
11
-4.7762246
21
-14.2071294
0
LINE
8
layer1
10
-4.7762246
20
-14.2071294
11
-4.8037947
21
-14.2270855
0
LINE
8
layer1
10
-4.8037947
20
-14.2270855
11
-4.8324786
21
-14.2544681
0
LINE
8
layer1
10
-4.8324786
20
-14.2544681
11
-4.8619871
21
-14.2893231
0
LINE
8
layer1
10
-4.8619871
20
-14.2893231
11
-4.8919995
21
-14.3316955
0
LINE
8
layer1
10
-4.8919995
20
-14.3316955
11
-4.9831127
21
-14.4914351
0
LINE
8
layer1
10
-4.9831127
20
-14.4914351
11
-5.0545047
21
-14.6085542
0
LINE
8
layer1
10
-5.0545047
20
-14.6085542
11
-5.1452389
21
-14.7443424
0
LINE
8
layer1
10
-5.1452389
20
-14.7443424
11
-5.2576103
21
-14.8981663
0
LINE
8
layer1
10
-5.2576103
20
-14.8981663
11
-5.3924038
21
-15.0673425
0
LINE
8
layer1
10
-5.3924038
20
-15.0673425
11
-5.5516391
21
-15.2508821
0
LINE
8
layer1
10
-5.5516391
20
-15.2508821
11
-5.7364306
21
-15.4466706
0
LINE
8
layer1
10
-5.7364306
20
-15.4466706
11
-5.9481232
21
-15.6529414
0
LINE
8
layer1
10
-5.9481232
20
-15.6529414
11
-6.1609106
21
-15.8443338
0
ARC
8
layer1
10
0.0000029
20
0.0000073
40
17
50
246.2480725
51
248.751928
0
LINE
8
layer1
10
-6.8472143
20
-15.5600575
11
-6.8623427
21
-15.2742593
0
LINE
8
layer1
10
-6.8623427
20
-15.2742593
11
-6.8661766
21
-14.9787144
0
LINE
8
layer1
10
-6.8661766
20
-14.9787144
11
-6.8584005
21
-14.7096038
0
LINE
8
layer1
10
-6.8584005
20
-14.7096038
11
-6.8412148
21
-14.4672253
0
LINE
8
layer1
10
-6.8412148
20
-14.4672253
11
-6.8169025
21
-14.2522864
0
LINE
8
layer1
10
-6.8169025
20
-14.2522864
11
-6.7875912
21
-14.0640578
0
LINE
8
layer1
10
-6.7875912
20
-14.0640578
11
-6.7557332
21
-13.9038823
0
LINE
8
layer1
10
-6.7557332
20
-13.9038823
11
-6.7233992
21
-13.7705848
0
LINE
8
layer1
10
-6.7233992
20
-13.7705848
11
-6.6748731
21
-13.5932051
0
LINE
8
layer1
10
-6.6748731
20
-13.5932051
11
-6.6661332
21
-13.5420213
0
LINE
8
layer1
10
-6.6661332
20
-13.5420213
11
-6.6623527
21
-13.4965095
0
LINE
8
layer1
10
-6.6623527
20
-13.4965095
11
-6.6632728
21
-13.4568645
0
LINE
8
layer1
10
-6.6632728
20
-13.4568645
11
-6.6686567
21
-13.4232583
0
LINE
8
layer1
10
-6.6686567
20
-13.4232583
11
-6.6782357
21
-13.395846
0
LINE
8
layer1
10
-6.6782357
20
-13.395846
11
-6.6917641
21
-13.3748042
0
LINE
8
layer1
10
-6.6917641
20
-13.3748042
11
-6.7089726
21
-13.3602655
0
LINE
8
layer1
10
-6.7089726
20
-13.3602655
11
-6.7334988
21
-13.3478136
0
LINE
8
layer1
10
-6.7334988
20
-13.3478136
11
-7.0473812
21
-13.1847229
0
LINE
8
layer1
10
-7.0473812
20
-13.1847229
11
-7.3573699
21
-13.0143475
0
LINE
8
layer1
10
-7.3573699
20
-13.0143475
11
-7.3813493
21
-13.0008726
0
LINE
8
layer1
10
-7.3813493
20
-13.0008726
11
-7.4029983
21
-12.9946416
0
LINE
8
layer1
10
-7.4029983
20
-12.9946416
11
-7.4280099
21
-12.9950834
0
LINE
8
layer1
10
-7.4280099
20
-12.9950834
11
-7.4561242
21
-13.0023482
0
LINE
8
layer1
10
-7.4561242
20
-13.0023482
11
-7.4870578
21
-13.0165422
0
LINE
8
layer1
10
-7.4870578
20
-13.0165422
11
-7.5205326
21
-13.0378027
0
LINE
8
layer1
10
-7.5205326
20
-13.0378027
11
-7.556274
21
-13.0662311
0
LINE
8
layer1
10
-7.556274
20
-13.0662311
11
-7.5939762
21
-13.1019343
0
LINE
8
layer1
10
-7.5939762
20
-13.1019343
11
-7.7145023
21
-13.2408291
0
LINE
8
layer1
10
-7.7145023
20
-13.2408291
11
-7.8073714
21
-13.3417699
0
LINE
8
layer1
10
-7.8073714
20
-13.3417699
11
-7.9228531
21
-13.4572477
0
LINE
8
layer1
10
-7.9228531
20
-13.4572477
11
-8.0630749
21
-13.5861933
0
LINE
8
layer1
10
-8.0630749
20
-13.5861933
11
-8.2282829
21
-13.725822
0
LINE
8
layer1
10
-8.2282829
20
-13.725822
11
-8.4202654
21
-13.8747696
0
LINE
8
layer1
10
-8.4202654
20
-13.8747696
11
-8.6397026
21
-14.030745
0
LINE
8
layer1
10
-8.6397026
20
-14.030745
11
-8.8875691
21
-14.1917532
0
LINE
8
layer1
10
-8.8875691
20
-14.1917532
11
-9.1336066
21
-14.3379554
0
ARC
8
layer1
10
0.0000041
20
0.0000066
40
17
50
234.9980732
51
237.5019286
0
LINE
8
layer1
10
-9.7512636
20
-13.9252502
11
-9.7103449
21
-13.641992
0
LINE
8
layer1
10
-9.7103449
20
-13.641992
11
-9.6564471
21
-13.351378
0
LINE
8
layer1
10
-9.6564471
20
-13.351378
11
-9.5963196
21
-13.0889553
0
LINE
8
layer1
10
-9.5963196
20
-13.0889553
11
-9.5321784
21
-12.8545869
0
LINE
8
layer1
10
-9.5321784
20
-12.8545869
11
-9.4664008
21
-12.648521
0
LINE
8
layer1
10
-9.4664008
20
-12.648521
11
-9.4009311
21
-12.4696276
0
LINE
8
layer1
10
-9.4009311
20
-12.4696276
11
-9.3384365
21
-12.3187449
0
LINE
8
layer1
10
-9.3384365
20
-12.3187449
11
-9.2807188
21
-12.1943167
0
LINE
8
layer1
10
-9.2807188
20
-12.1943167
11
-9.19852
21
-12.0298123
0
LINE
8
layer1
10
-9.19852
20
-12.0298123
11
-9.1799626
21
-11.9813171
0
LINE
8
layer1
10
-9.1799626
20
-11.9813171
11
-9.1673758
21
-11.9374173
0
LINE
8
layer1
10
-9.1673758
20
-11.9374173
11
-9.1605439
21
-11.8983546
0
LINE
8
layer1
10
-9.1605439
20
-11.8983546
11
-9.1592682
21
-11.8643438
0
LINE
8
layer1
10
-9.1592682
20
-11.8643438
11
-9.1633152
21
-11.8355894
0
LINE
8
layer1
10
-9.1633152
20
-11.8355894
11
-9.1724786
21
-11.8123127
0
LINE
8
layer1
10
-9.1724786
20
-11.8123127
11
-9.18652
21
-11.7946961
0
LINE
8
layer1
10
-9.18652
20
-11.7946961
11
-9.2081458
21
-11.7776986
0
LINE
8
layer1
10
-9.2081458
20
-11.7776986
11
-9.4841796
21
-11.5565063
0
LINE
8
layer1
10
-9.4841796
20
-11.5565063
11
-9.7549734
21
-11.3289288
0
LINE
8
layer1
10
-9.7549734
20
-11.3289288
11
-9.7758632
21
-11.3110347
0
LINE
8
layer1
10
-9.7758632
20
-11.3110347
11
-9.7958806
21
-11.3006999
0
LINE
8
layer1
10
-9.7958806
20
-11.3006999
11
-9.8204978
21
-11.2962536
0
LINE
8
layer1
10
-9.8204978
20
-11.2962536
11
-9.8494892
21
-11.297894
0
LINE
8
layer1
10
-9.8494892
20
-11.297894
11
-9.8825975
21
-11.3057805
0
LINE
8
layer1
10
-9.8825975
20
-11.3057805
11
-9.9195768
21
-11.3201019
0
LINE
8
layer1
10
-9.9195768
20
-11.3201019
11
-9.9601776
21
-11.3410112
0
LINE
8
layer1
10
-9.9601776
20
-11.3410112
11
-10.0041206
21
-11.368673
0
LINE
8
layer1
10
-10.0041206
20
-11.368673
11
-10.149428
21
-11.4813856
0
LINE
8
layer1
10
-10.149428
20
-11.4813856
11
-10.2602051
21
-11.562269
0
LINE
8
layer1
10
-10.2602051
20
-11.562269
11
-10.3959965
21
-11.6529985
0
LINE
8
layer1
10
-10.3959965
20
-11.6529985
11
-10.55868
21
-11.7521106
0
LINE
8
layer1
10
-10.55868
20
-11.7521106
11
-10.7479538
21
-11.8568258
0
LINE
8
layer1
10
-10.7479538
20
-11.8568258
11
-10.9653056
21
-11.9654575
0
LINE
8
layer1
10
-10.9653056
20
-11.9654575
11
-11.2109557
21
-12.0756258
0
LINE
8
layer1
10
-11.2109557
20
-12.0756258
11
-11.4854706
21
-12.1851839
0
LINE
8
layer1
10
-11.4854706
20
-12.1851839
11
-11.7553032
21
-12.2805773
0
ARC
8
layer1
10
0.0000056
20
0.0000056
40
17
50
223.7480723
51
226.2519277
0
LINE
8
layer1
10
-12.2805773
20
-11.7553032
11
-12.1851839
21
-11.4854706
0
LINE
8
layer1
10
-12.1851839
20
-11.4854706
11
-12.0756258
21
-11.2109557
0
LINE
8
layer1
10
-12.0756258
20
-11.2109557
11
-11.9654575
21
-10.9653056
0
LINE
8
layer1
10
-11.9654575
20
-10.9653056
11
-11.8568258
21
-10.7479538
0
LINE
8
layer1
10
-11.8568258
20
-10.7479538
11
-11.7521106
21
-10.55868
0
LINE
8
layer1
10
-11.7521106
20
-10.55868
11
-11.6529985
21
-10.3959965
0
LINE
8
layer1
10
-11.6529985
20
-10.3959965
11
-11.562269
21
-10.2602051
0
LINE
8
layer1
10
-11.562269
20
-10.2602051
11
-11.4813856
21
-10.149428
0
LINE
8
layer1
10
-11.4813856
20
-10.149428
11
-11.368673
21
-10.0041206
0
LINE
8
layer1
10
-11.368673
20
-10.0041206
11
-11.3410112
21
-9.9601776
0
LINE
8
layer1
10
-11.3410112
20
-9.9601776
11
-11.3201019
21
-9.9195768
0
LINE
8
layer1
10
-11.3201019
20
-9.9195768
11
-11.3057805
21
-9.8825975
0
LINE
8
layer1
10
-11.3057805
20
-9.8825975
11
-11.297894
21
-9.8494892
0
LINE
8
layer1
10
-11.297894
20
-9.8494892
11
-11.2962536
21
-9.8204978
0
LINE
8
layer1
10
-11.2962536
20
-9.8204978
11
-11.3006999
21
-9.7958806
0
LINE
8
layer1
10
-11.3006999
20
-9.7958806
11
-11.3110347
21
-9.7758632
0
LINE
8
layer1
10
-11.3110347
20
-9.7758632
11
-11.3289288
21
-9.7549734
0
LINE
8
layer1
10
-11.3289288
20
-9.7549734
11
-11.5565063
21
-9.4841796
0
LINE
8
layer1
10
-11.5565063
20
-9.4841796
11
-11.7776986
21
-9.2081458
0
LINE
8
layer1
10
-11.7776986
20
-9.2081458
11
-11.7946961
21
-9.18652
0
LINE
8
layer1
10
-11.7946961
20
-9.18652
11
-11.8123127
21
-9.1724786
0
LINE
8
layer1
10
-11.8123127
20
-9.1724786
11
-11.8355894
21
-9.1633152
0
LINE
8
layer1
10
-11.8355894
20
-9.1633152
11
-11.8643438
21
-9.1592682
0
LINE
8
layer1
10
-11.8643438
20
-9.1592682
11
-11.8983546
21
-9.1605439
0
LINE
8
layer1
10
-11.8983546
20
-9.1605439
11
-11.9374173
21
-9.1673758
0
LINE
8
layer1
10
-11.9374173
20
-9.1673758
11
-11.9813171
21
-9.1799626
0
LINE
8
layer1
10
-11.9813171
20
-9.1799626
11
-12.0298123
21
-9.19852
0
LINE
8
layer1
10
-12.0298123
20
-9.19852
11
-12.1943167
21
-9.2807188
0
LINE
8
layer1
10
-12.1943167
20
-9.2807188
11
-12.3187449
21
-9.3384365
0
LINE
8
layer1
10
-12.3187449
20
-9.3384365
11
-12.4696276
21
-9.4009311
0
LINE
8
layer1
10
-12.4696276
20
-9.4009311
11
-12.648521
21
-9.4664008
0
LINE
8
layer1
10
-12.648521
20
-9.4664008
11
-12.8545869
21
-9.5321784
0
LINE
8
layer1
10
-12.8545869
20
-9.5321784
11
-13.0889553
21
-9.5963196
0
LINE
8
layer1
10
-13.0889553
20
-9.5963196
11
-13.351378
21
-9.6564471
0
LINE
8
layer1
10
-13.351378
20
-9.6564471
11
-13.641992
21
-9.7103449
0
LINE
8
layer1
10
-13.641992
20
-9.7103449
11
-13.9252502
21
-9.7512636
0
ARC
8
layer1
10
0.0000066
20
0.0000042
40
17
50
212.4980717
51
215.0019271
0
LINE
8
layer1
10
-14.3379554
20
-9.1336066
11
-14.1917532
21
-8.8875691
0
LINE
8
layer1
10
-14.1917532
20
-8.8875691
11
-14.030745
21
-8.6397026
0
LINE
8
layer1
10
-14.030745
20
-8.6397026
11
-13.8747696
21
-8.4202654
0
LINE
8
layer1
10
-13.8747696
20
-8.4202654
11
-13.725822
21
-8.2282829
0
LINE
8
layer1
10
-13.725822
20
-8.2282829
11
-13.5861933
21
-8.0630749
0
LINE
8
layer1
10
-13.5861933
20
-8.0630749
11
-13.4572477
21
-7.9228531
0
LINE
8
layer1
10
-13.4572477
20
-7.9228531
11
-13.3417699
21
-7.8073714
0
LINE
8
layer1
10
-13.3417699
20
-7.8073714
11
-13.2408291
21
-7.7145023
0
LINE
8
layer1
10
-13.2408291
20
-7.7145023
11
-13.1019343
21
-7.5939762
0
LINE
8
layer1
10
-13.1019343
20
-7.5939762
11
-13.0662311
21
-7.556274
0
LINE
8
layer1
10
-13.0662311
20
-7.556274
11
-13.0378027
21
-7.5205326
0
LINE
8
layer1
10
-13.0378027
20
-7.5205326
11
-13.0165422
21
-7.4870578
0
LINE
8
layer1
10
-13.0165422
20
-7.4870578
11
-13.0023482
21
-7.4561242
0
LINE
8
layer1
10
-13.0023482
20
-7.4561242
11
-12.9950834
21
-7.4280099
0
LINE
8
layer1
10
-12.9950834
20
-7.4280099
11
-12.9946416
21
-7.4029983
0
LINE
8
layer1
10
-12.9946416
20
-7.4029983
11
-13.0008726
21
-7.3813493
0
LINE
8
layer1
10
-13.0008726
20
-7.3813493
11
-13.0143475
21
-7.3573699
0
LINE
8
layer1
10
-13.0143475
20
-7.3573699
11
-13.1847229
21
-7.0473812
0
LINE
8
layer1
10
-13.1847229
20
-7.0473812
11
-13.3478136
21
-6.7334988
0
LINE
8
layer1
10
-13.3478136
20
-6.7334988
11
-13.3602655
21
-6.7089726
0
LINE
8
layer1
10
-13.3602655
20
-6.7089726
11
-13.3748042
21
-6.6917641
0
LINE
8
layer1
10
-13.3748042
20
-6.6917641
11
-13.395846
21
-6.6782357
0
LINE
8
layer1
10
-13.395846
20
-6.6782357
11
-13.4232583
21
-6.6686567
0
LINE
8
layer1
10
-13.4232583
20
-6.6686567
11
-13.4568645
21
-6.6632728
0
LINE
8
layer1
10
-13.4568645
20
-6.6632728
11
-13.4965095
21
-6.6623527
0
LINE
8
layer1
10
-13.4965095
20
-6.6623527
11
-13.5420213
21
-6.6661332
0
LINE
8
layer1
10
-13.5420213
20
-6.6661332
11
-13.5932051
21
-6.6748731
0
LINE
8
layer1
10
-13.5932051
20
-6.6748731
11
-13.7705848
21
-6.7233992
0
LINE
8
layer1
10
-13.7705848
20
-6.7233992
11
-13.9038823
21
-6.7557332
0
LINE
8
layer1
10
-13.9038823
20
-6.7557332
11
-14.0640578
21
-6.7875912
0
LINE
8
layer1
10
-14.0640578
20
-6.7875912
11
-14.2522864
21
-6.8169025
0
LINE
8
layer1
10
-14.2522864
20
-6.8169025
11
-14.4672253
21
-6.8412148
0
LINE
8
layer1
10
-14.4672253
20
-6.8412148
11
-14.7096038
21
-6.8584005
0
LINE
8
layer1
10
-14.7096038
20
-6.8584005
11
-14.9787144
21
-6.8661766
0
LINE
8
layer1
10
-14.9787144
20
-6.8661766
11
-15.2742593
21
-6.8623427
0
LINE
8
layer1
10
-15.2742593
20
-6.8623427
11
-15.5600575
21
-6.8472143
0
ARC
8
layer1
10
0.0000073
20
0.000003
40
17
50
201.2480723
51
203.7519278
0
LINE
8
layer1
10
-15.8443338
20
-6.1609106
11
-15.6529414
21
-5.9481232
0
LINE
8
layer1
10
-15.6529414
20
-5.9481232
11
-15.4466706
21
-5.7364306
0
LINE
8
layer1
10
-15.4466706
20
-5.7364306
11
-15.2508821
21
-5.5516391
0
LINE
8
layer1
10
-15.2508821
20
-5.5516391
11
-15.0673425
21
-5.3924038
0
LINE
8
layer1
10
-15.0673425
20
-5.3924038
11
-14.8981663
21
-5.2576103
0
LINE
8
layer1
10
-14.8981663
20
-5.2576103
11
-14.7443424
21
-5.1452389
0
LINE
8
layer1
10
-14.7443424
20
-5.1452389
11
-14.6085542
21
-5.0545047
0
LINE
8
layer1
10
-14.6085542
20
-5.0545047
11
-14.4914351
21
-4.9831127
0
LINE
8
layer1
10
-14.4914351
20
-4.9831127
11
-14.3316955
21
-4.8919995
0
LINE
8
layer1
10
-14.3316955
20
-4.8919995
11
-14.2893231
21
-4.8619871
0
LINE
8
layer1
10
-14.2893231
20
-4.8619871
11
-14.2544681
21
-4.8324786
0
LINE
8
layer1
10
-14.2544681
20
-4.8324786
11
-14.2270855
21
-4.8037947
0
LINE
8
layer1
10
-14.2270855
20
-4.8037947
11
-14.2071294
21
-4.7762246
0
LINE
8
layer1
10
-14.2071294
20
-4.7762246
11
-14.1945193
21
-4.7500678
0
LINE
8
layer1
10
-14.1945193
20
-4.7500678
11
-14.1892065
21
-4.725623
0
LINE
8
layer1
10
-14.1892065
20
-4.725623
11
-14.1910943
21
-4.7031743
0
LINE
8
layer1
10
-14.1910943
20
-4.7031743
11
-14.1996322
21
-4.6770268
0
LINE
8
layer1
10
-14.1996322
20
-4.6770268
11
-14.306258
21
-4.3397559
0
LINE
8
layer1
10
-14.306258
20
-4.3397559
11
-14.4049795
21
-4.0000873
0
LINE
8
layer1
10
-14.4049795
20
-4.0000873
11
-14.4124073
21
-3.973603
0
LINE
8
layer1
10
-14.4124073
20
-3.973603
11
-14.4233095
21
-3.9538889
0
LINE
8
layer1
10
-14.4233095
20
-3.9538889
11
-14.4413078
21
-3.9365154
0
LINE
8
layer1
10
-14.4413078
20
-3.9365154
11
-14.4663246
21
-3.9217726
0
LINE
8
layer1
10
-14.4663246
20
-3.9217726
11
-14.4982346
21
-3.9099359
0
LINE
8
layer1
10
-14.4982346
20
-3.9099359
11
-14.5369383
21
-3.9012991
0
LINE
8
layer1
10
-14.5369383
20
-3.9012991
11
-14.5823132
21
-3.8961281
0
LINE
8
layer1
10
-14.5823132
20
-3.8961281
11
-14.6342186
21
-3.8947145
0
LINE
8
layer1
10
-14.6342186
20
-3.8947145
11
-14.817657
21
-3.9077032
0
LINE
8
layer1
10
-14.817657
20
-3.9077032
11
-14.9547012
21
-3.9134108
0
LINE
8
layer1
10
-14.9547012
20
-3.9134108
11
-15.1180143
21
-3.9134079
0
LINE
8
layer1
10
-15.1180143
20
-3.9134079
11
-15.3083444
21
-3.9054345
0
LINE
8
layer1
10
-15.3083444
20
-3.9054345
11
-15.5238965
21
-3.8873471
0
LINE
8
layer1
10
-15.5238965
20
-3.8873471
11
-15.7649705
21
-3.8569169
0
LINE
8
layer1
10
-15.7649705
20
-3.8569169
11
-16.0304272
21
-3.8120427
0
LINE
8
layer1
10
-16.0304272
20
-3.8120427
11
-16.3195453
21
-3.7506246
0
LINE
8
layer1
10
-16.3195453
20
-3.7506246
11
-16.5969006
21
-3.6800303
0
ARC
8
layer1
10
0.0000077
20
0.0000016
40
17
50
189.9980725
51
192.5019279
0
LINE
8
layer1
10
-16.7418234
20
-2.9514542
11
-16.5125958
21
-2.7800943
0
LINE
8
layer1
10
-16.5125958
20
-2.7800943
11
-16.2689892
21
-2.6127107
0
LINE
8
layer1
10
-16.2689892
20
-2.6127107
11
-16.0409117
21
-2.4696664
0
LINE
8
layer1
10
-16.0409117
20
-2.4696664
11
-15.8298335
21
-2.3492975
0
LINE
8
layer1
10
-15.8298335
20
-2.3492975
11
-15.6376111
21
-2.2500988
0
LINE
8
layer1
10
-15.6376111
20
-2.2500988
11
-15.4648203
21
-2.1698961
0
LINE
8
layer1
10
-15.4648203
20
-2.1698961
11
-15.3139398
21
-2.1073963
0
LINE
8
layer1
10
-15.3139398
20
-2.1073963
11
-15.1851433
21
-2.0602249
0
LINE
8
layer1
10
-15.1851433
20
-2.0602249
11
-15.0106978
21
-2.002026
0
LINE
8
layer1
10
-15.0106978
20
-2.002026
11
-14.9632844
21
-1.9808567
0
LINE
8
layer1
10
-14.9632844
20
-1.9808567
11
-14.9233423
21
-1.9587151
0
LINE
8
layer1
10
-14.9233423
20
-1.9587151
11
-14.8908899
21
-1.9359245
0
LINE
8
layer1
10
-14.8908899
20
-1.9359245
11
-14.8659386
21
-1.9127773
0
LINE
8
layer1
10
-14.8659386
20
-1.9127773
11
-14.8484679
21
-1.8895832
0
LINE
8
layer1
10
-14.8484679
20
-1.8895832
11
-14.8384882
21
-1.8666446
0
LINE
8
layer1
10
-14.8384882
20
-1.8666446
11
-14.8359602
21
-1.844259
0
LINE
8
layer1
10
-14.8359602
20
-1.844259
11
-14.8392329
21
-1.8169483
0
LINE
8
layer1
10
-14.8392329
20
-1.8169483
11
-14.8780117
21
-1.4653562
0
LINE
8
layer1
10
-14.8780117
20
-1.4653562
11
-14.9085702
21
-1.1129546
0
LINE
8
layer1
10
-14.9085702
20
-1.1129546
11
-14.9106885
21
-1.0855302
0
LINE
8
layer1
10
-14.9106885
20
-1.0855302
11
-14.9175351
21
-1.0640679
0
LINE
8
layer1
10
-14.9175351
20
-1.0640679
11
-14.9317981
21
-1.043517
0
LINE
8
layer1
10
-14.9317981
20
-1.043517
11
-14.9534581
21
-1.0241769
0
LINE
8
layer1
10
-14.9534581
20
-1.0241769
11
-14.9824458
21
-1.0063423
0
LINE
8
layer1
10
-14.9824458
20
-1.0063423
11
-15.0187208
21
-0.9903207
0
LINE
8
layer1
10
-15.0187208
20
-0.9903207
11
-15.0622151
21
-0.9763969
0
LINE
8
layer1
10
-15.0622151
20
-0.9763969
11
-15.1128473
21
-0.9648843
0
LINE
8
layer1
10
-15.1128473
20
-0.9648843
11
-15.2952949
21
-0.9418363
0
LINE
8
layer1
10
-15.2952949
20
-0.9418363
11
-15.4308194
21
-0.9206982
0
LINE
8
layer1
10
-15.4308194
20
-0.9206982
11
-15.5909939
21
-0.8888346
0
LINE
8
layer1
10
-15.5909939
20
-0.8888346
11
-15.7761113
21
-0.8438828
0
LINE
8
layer1
10
-15.7761113
20
-0.8438828
11
-15.9839929
21
-0.7840909
0
LINE
8
layer1
10
-15.9839929
20
-0.7840909
11
-16.2144981
21
-0.7072142
0
LINE
8
layer1
10
-16.2144981
20
-0.7072142
11
-16.4660997
21
-0.6114141
0
LINE
8
layer1
10
-16.4660997
20
-0.6114141
11
-16.7376804
21
-0.494772
0
LINE
8
layer1
10
-16.7376804
20
-0.494772
11
-16.9959341
21
-0.3714249
0
ARC
8
layer1
10
0.0000079
20
0
40
17
50
178.7480722
51
181.2519278
0
LINE
8
layer1
10
-16.9959341
20
0.3714249
11
-16.7376804
21
0.494772
0
LINE
8
layer1
10
-16.7376804
20
0.494772
11
-16.4660997
21
0.6114141
0
LINE
8
layer1
10
-16.4660997
20
0.6114141
11
-16.2144981
21
0.7072142
0
LINE
8
layer1
10
-16.2144981
20
0.7072142
11
-15.9839929
21
0.7840909
0
LINE
8
layer1
10
-15.9839929
20
0.7840909
11
-15.7761113
21
0.8438828
0
LINE
8
layer1
10
-15.7761113
20
0.8438828
11
-15.5909939
21
0.8888346
0
LINE
8
layer1
10
-15.5909939
20
0.8888346
11
-15.4308194
21
0.9206982
0
LINE
8
layer1
10
-15.4308194
20
0.9206982
11
-15.2952949
21
0.9418363
0
LINE
8
layer1
10
-15.2952949
20
0.9418363
11
-15.1128473
21
0.9648843
0
LINE
8
layer1
10
-15.1128473
20
0.9648843
11
-15.0622151
21
0.9763969
0
LINE
8
layer1
10
-15.0622151
20
0.9763969
11
-15.0187208
21
0.9903207
0
LINE
8
layer1
10
-15.0187208
20
0.9903207
11
-14.9824458
21
1.0063423
0
LINE
8
layer1
10
-14.9824458
20
1.0063423
11
-14.9534581
21
1.0241769
0
LINE
8
layer1
10
-14.9534581
20
1.0241769
11
-14.9317981
21
1.043517
0
LINE
8
layer1
10
-14.9317981
20
1.043517
11
-14.9175351
21
1.0640679
0
LINE
8
layer1
10
-14.9175351
20
1.0640679
11
-14.9106885
21
1.0855302
0
LINE
8
layer1
10
-14.9106885
20
1.0855302
11
-14.9085702
21
1.1129546
0
LINE
8
layer1
10
-14.9085702
20
1.1129546
11
-14.8780117
21
1.4653562
0
LINE
8
layer1
10
-14.8780117
20
1.4653562
11
-14.8392329
21
1.8169483
0
LINE
8
layer1
10
-14.8392329
20
1.8169483
11
-14.8359602
21
1.844259
0
LINE
8
layer1
10
-14.8359602
20
1.844259
11
-14.8384882
21
1.8666446
0
LINE
8
layer1
10
-14.8384882
20
1.8666446
11
-14.8484679
21
1.8895832
0
LINE
8
layer1
10
-14.8484679
20
1.8895832
11
-14.8659386
21
1.9127773
0
LINE
8
layer1
10
-14.8659386
20
1.9127773
11
-14.8908899
21
1.9359245
0
LINE
8
layer1
10
-14.8908899
20
1.9359245
11
-14.9233423
21
1.9587151
0
LINE
8
layer1
10
-14.9233423
20
1.9587151
11
-14.9632844
21
1.9808567
0
LINE
8
layer1
10
-14.9632844
20
1.9808567
11
-15.0106978
21
2.002026
0
LINE
8
layer1
10
-15.0106978
20
2.002026
11
-15.1851433
21
2.0602249
0
LINE
8
layer1
10
-15.1851433
20
2.0602249
11
-15.3139398
21
2.1073963
0
LINE
8
layer1
10
-15.3139398
20
2.1073963
11
-15.4648203
21
2.1698961
0
LINE
8
layer1
10
-15.4648203
20
2.1698961
11
-15.6376111
21
2.2500988
0
LINE
8
layer1
10
-15.6376111
20
2.2500988
11
-15.8298335
21
2.3492975
0
LINE
8
layer1
10
-15.8298335
20
2.3492975
11
-16.0409117
21
2.4696664
0
LINE
8
layer1
10
-16.0409117
20
2.4696664
11
-16.2689892
21
2.6127107
0
LINE
8
layer1
10
-16.2689892
20
2.6127107
11
-16.5125958
21
2.7800943
0
LINE
8
layer1
10
-16.5125958
20
2.7800943
11
-16.7418234
21
2.9514542
0
ARC
8
layer1
10
0.0000077
20
-0.0000016
40
17
50
167.4980721
51
170.0019275
0
LINE
8
layer1
10
-16.5969006
20
3.6800303
11
-16.3195453
21
3.7506246
0
LINE
8
layer1
10
-16.3195453
20
3.7506246
11
-16.0304272
21
3.8120427
0
LINE
8
layer1
10
-16.0304272
20
3.8120427
11
-15.7649705
21
3.8569169
0
LINE
8
layer1
10
-15.7649705
20
3.8569169
11
-15.5238965
21
3.8873471
0
LINE
8
layer1
10
-15.5238965
20
3.8873471
11
-15.3083444
21
3.9054345
0
LINE
8
layer1
10
-15.3083444
20
3.9054345
11
-15.1180143
21
3.9134079
0
LINE
8
layer1
10
-15.1180143
20
3.9134079
11
-14.9547012
21
3.9134108
0
LINE
8
layer1
10
-14.9547012
20
3.9134108
11
-14.817657
21
3.9077032
0
LINE
8
layer1
10
-14.817657
20
3.9077032
11
-14.6342186
21
3.8947145
0
LINE
8
layer1
10
-14.6342186
20
3.8947145
11
-14.5823132
21
3.8961281
0
LINE
8
layer1
10
-14.5823132
20
3.8961281
11
-14.5369383
21
3.9012991
0
LINE
8
layer1
10
-14.5369383
20
3.9012991
11
-14.4982346
21
3.9099359
0
LINE
8
layer1
10
-14.4982346
20
3.9099359
11
-14.4663246
21
3.9217726
0
LINE
8
layer1
10
-14.4663246
20
3.9217726
11
-14.4413078
21
3.9365154
0
LINE
8
layer1
10
-14.4413078
20
3.9365154
11
-14.4233095
21
3.9538889
0
LINE
8
layer1
10
-14.4233095
20
3.9538889
11
-14.4124073
21
3.973603
0
LINE
8
layer1
10
-14.4124073
20
3.973603
11
-14.4049795
21
4.0000873
0
LINE
8
layer1
10
-14.4049795
20
4.0000873
11
-14.306258
21
4.3397559
0
LINE
8
layer1
10
-14.306258
20
4.3397559
11
-14.1996322
21
4.6770268
0
LINE
8
layer1
10
-14.1996322
20
4.6770268
11
-14.1910943
21
4.7031743
0
LINE
8
layer1
10
-14.1910943
20
4.7031743
11
-14.1892065
21
4.725623
0
LINE
8
layer1
10
-14.1892065
20
4.725623
11
-14.1945193
21
4.7500678
0
LINE
8
layer1
10
-14.1945193
20
4.7500678
11
-14.2071294
21
4.7762246
0
LINE
8
layer1
10
-14.2071294
20
4.7762246
11
-14.2270855
21
4.8037947
0
LINE
8
layer1
10
-14.2270855
20
4.8037947
11
-14.2544681
21
4.8324786
0
LINE
8
layer1
10
-14.2544681
20
4.8324786
11
-14.2893231
21
4.8619871
0
LINE
8
layer1
10
-14.2893231
20
4.8619871
11
-14.3316955
21
4.8919995
0
LINE
8
layer1
10
-14.3316955
20
4.8919995
11
-14.4914351
21
4.9831127
0
LINE
8
layer1
10
-14.4914351
20
4.9831127
11
-14.6085542
21
5.0545047
0
LINE
8
layer1
10
-14.6085542
20
5.0545047
11
-14.7443424
21
5.1452389
0
LINE
8
layer1
10
-14.7443424
20
5.1452389
11
-14.8981663
21
5.2576103
0
LINE
8
layer1
10
-14.8981663
20
5.2576103
11
-15.0673425
21
5.3924038
0
LINE
8
layer1
10
-15.0673425
20
5.3924038
11
-15.2508821
21
5.5516391
0
LINE
8
layer1
10
-15.2508821
20
5.5516391
11
-15.4466706
21
5.7364306
0
LINE
8
layer1
10
-15.4466706
20
5.7364306
11
-15.6529414
21
5.9481232
0
LINE
8
layer1
10
-15.6529414
20
5.9481232
11
-15.8443338
21
6.1609106
0
ARC
8
layer1
10
0.0000073
20
-0.0000029
40
17
50
156.2480725
51
158.751928
0
LINE
8
layer1
10
-15.5600575
20
6.8472143
11
-15.2742593
21
6.8623427
0
LINE
8
layer1
10
-15.2742593
20
6.8623427
11
-14.9787144
21
6.8661766
0
LINE
8
layer1
10
-14.9787144
20
6.8661766
11
-14.7096038
21
6.8584005
0
LINE
8
layer1
10
-14.7096038
20
6.8584005
11
-14.4672253
21
6.8412148
0
LINE
8
layer1
10
-14.4672253
20
6.8412148
11
-14.2522864
21
6.8169025
0
LINE
8
layer1
10
-14.2522864
20
6.8169025
11
-14.0640578
21
6.7875912
0
LINE
8
layer1
10
-14.0640578
20
6.7875912
11
-13.9038823
21
6.7557332
0
LINE
8
layer1
10
-13.9038823
20
6.7557332
11
-13.7705848
21
6.7233992
0
LINE
8
layer1
10
-13.7705848
20
6.7233992
11
-13.5932051
21
6.6748731
0
LINE
8
layer1
10
-13.5932051
20
6.6748731
11
-13.5420213
21
6.6661332
0
LINE
8
layer1
10
-13.5420213
20
6.6661332
11
-13.4965095
21
6.6623527
0
LINE
8
layer1
10
-13.4965095
20
6.6623527
11
-13.4568645
21
6.6632728
0
LINE
8
layer1
10
-13.4568645
20
6.6632728
11
-13.4232583
21
6.6686567
0
LINE
8
layer1
10
-13.4232583
20
6.6686567
11
-13.395846
21
6.6782357
0
LINE
8
layer1
10
-13.395846
20
6.6782357
11
-13.3748042
21
6.6917641
0
LINE
8
layer1
10
-13.3748042
20
6.6917641
11
-13.3602655
21
6.7089726
0
LINE
8
layer1
10
-13.3602655
20
6.7089726
11
-13.3478136
21
6.7334988
0
LINE
8
layer1
10
-13.3478136
20
6.7334988
11
-13.1847229
21
7.0473812
0
LINE
8
layer1
10
-13.1847229
20
7.0473812
11
-13.0143475
21
7.3573699
0
LINE
8
layer1
10
-13.0143475
20
7.3573699
11
-13.0008726
21
7.3813493
0
LINE
8
layer1
10
-13.0008726
20
7.3813493
11
-12.9946416
21
7.4029983
0
LINE
8
layer1
10
-12.9946416
20
7.4029983
11
-12.9950834
21
7.4280099
0
LINE
8
layer1
10
-12.9950834
20
7.4280099
11
-13.0023482
21
7.4561242
0
LINE
8
layer1
10
-13.0023482
20
7.4561242
11
-13.0165422
21
7.4870578
0
LINE
8
layer1
10
-13.0165422
20
7.4870578
11
-13.0378027
21
7.5205326
0
LINE
8
layer1
10
-13.0378027
20
7.5205326
11
-13.0662311
21
7.556274
0
LINE
8
layer1
10
-13.0662311
20
7.556274
11
-13.1019343
21
7.5939762
0
LINE
8
layer1
10
-13.1019343
20
7.5939762
11
-13.2408291
21
7.7145023
0
LINE
8
layer1
10
-13.2408291
20
7.7145023
11
-13.3417699
21
7.8073714
0
LINE
8
layer1
10
-13.3417699
20
7.8073714
11
-13.4572477
21
7.9228531
0
LINE
8
layer1
10
-13.4572477
20
7.9228531
11
-13.5861933
21
8.0630749
0
LINE
8
layer1
10
-13.5861933
20
8.0630749
11
-13.725822
21
8.2282829
0
LINE
8
layer1
10
-13.725822
20
8.2282829
11
-13.8747696
21
8.4202654
0
LINE
8
layer1
10
-13.8747696
20
8.4202654
11
-14.030745
21
8.6397026
0
LINE
8
layer1
10
-14.030745
20
8.6397026
11
-14.1917532
21
8.8875691
0
LINE
8
layer1
10
-14.1917532
20
8.8875691
11
-14.3379554
21
9.1336066
0
ARC
8
layer1
10
0.0000066
20
-0.0000041
40
17
50
144.9980732
51
147.5019286
0
LINE
8
layer1
10
-13.9252502
20
9.7512636
11
-13.641992
21
9.7103449
0
LINE
8
layer1
10
-13.641992
20
9.7103449
11
-13.351378
21
9.6564471
0
LINE
8
layer1
10
-13.351378
20
9.6564471
11
-13.0889553
21
9.5963196
0
LINE
8
layer1
10
-13.0889553
20
9.5963196
11
-12.8545869
21
9.5321784
0
LINE
8
layer1
10
-12.8545869
20
9.5321784
11
-12.648521
21
9.4664008
0
LINE
8
layer1
10
-12.648521
20
9.4664008
11
-12.4696276
21
9.4009311
0
LINE
8
layer1
10
-12.4696276
20
9.4009311
11
-12.3187449
21
9.3384365
0
LINE
8
layer1
10
-12.3187449
20
9.3384365
11
-12.1943167
21
9.2807188
0
LINE
8
layer1
10
-12.1943167
20
9.2807188
11
-12.0298123
21
9.19852
0
LINE
8
layer1
10
-12.0298123
20
9.19852
11
-11.9813171
21
9.1799626
0
LINE
8
layer1
10
-11.9813171
20
9.1799626
11
-11.9374173
21
9.1673758
0
LINE
8
layer1
10
-11.9374173
20
9.1673758
11
-11.8983546
21
9.1605439
0
LINE
8
layer1
10
-11.8983546
20
9.1605439
11
-11.8643438
21
9.1592682
0
LINE
8
layer1
10
-11.8643438
20
9.1592682
11
-11.8355894
21
9.1633152
0
LINE
8
layer1
10
-11.8355894
20
9.1633152
11
-11.8123127
21
9.1724786
0
LINE
8
layer1
10
-11.8123127
20
9.1724786
11
-11.7946961
21
9.18652
0
LINE
8
layer1
10
-11.7946961
20
9.18652
11
-11.7776986
21
9.2081458
0
LINE
8
layer1
10
-11.7776986
20
9.2081458
11
-11.5565063
21
9.4841796
0
LINE
8
layer1
10
-11.5565063
20
9.4841796
11
-11.3289288
21
9.7549734
0
LINE
8
layer1
10
-11.3289288
20
9.7549734
11
-11.3110347
21
9.7758632
0
LINE
8
layer1
10
-11.3110347
20
9.7758632
11
-11.3006999
21
9.7958806
0
LINE
8
layer1
10
-11.3006999
20
9.7958806
11
-11.2962536
21
9.8204978
0
LINE
8
layer1
10
-11.2962536
20
9.8204978
11
-11.297894
21
9.8494892
0
LINE
8
layer1
10
-11.297894
20
9.8494892
11
-11.3057805
21
9.8825975
0
LINE
8
layer1
10
-11.3057805
20
9.8825975
11
-11.3201019
21
9.9195768
0
LINE
8
layer1
10
-11.3201019
20
9.9195768
11
-11.3410112
21
9.9601776
0
LINE
8
layer1
10
-11.3410112
20
9.9601776
11
-11.368673
21
10.0041206
0
LINE
8
layer1
10
-11.368673
20
10.0041206
11
-11.4813856
21
10.149428
0
LINE
8
layer1
10
-11.4813856
20
10.149428
11
-11.562269
21
10.2602051
0
LINE
8
layer1
10
-11.562269
20
10.2602051
11
-11.6529985
21
10.3959965
0
LINE
8
layer1
10
-11.6529985
20
10.3959965
11
-11.7521106
21
10.55868
0
LINE
8
layer1
10
-11.7521106
20
10.55868
11
-11.8568258
21
10.7479538
0
LINE
8
layer1
10
-11.8568258
20
10.7479538
11
-11.9654575
21
10.9653056
0
LINE
8
layer1
10
-11.9654575
20
10.9653056
11
-12.0756258
21
11.2109557
0
LINE
8
layer1
10
-12.0756258
20
11.2109557
11
-12.1851839
21
11.4854706
0
LINE
8
layer1
10
-12.1851839
20
11.4854706
11
-12.2805773
21
11.7553032
0
ARC
8
layer1
10
0.0000056
20
-0.0000056
40
17
50
133.7480723
51
136.2519277
0
LINE
8
layer1
10
-11.7553032
20
12.2805773
11
-11.4854706
21
12.1851839
0
LINE
8
layer1
10
-11.4854706
20
12.1851839
11
-11.2109557
21
12.0756258
0
LINE
8
layer1
10
-11.2109557
20
12.0756258
11
-10.9653056
21
11.9654575
0
LINE
8
layer1
10
-10.9653056
20
11.9654575
11
-10.7479538
21
11.8568258
0
LINE
8
layer1
10
-10.7479538
20
11.8568258
11
-10.55868
21
11.7521106
0
LINE
8
layer1
10
-10.55868
20
11.7521106
11
-10.3959965
21
11.6529985
0
LINE
8
layer1
10
-10.3959965
20
11.6529985
11
-10.2602051
21
11.562269
0
LINE
8
layer1
10
-10.2602051
20
11.562269
11
-10.149428
21
11.4813856
0
LINE
8
layer1
10
-10.149428
20
11.4813856
11
-10.0041206
21
11.368673
0
LINE
8
layer1
10
-10.0041206
20
11.368673
11
-9.9601776
21
11.3410112
0
LINE
8
layer1
10
-9.9601776
20
11.3410112
11
-9.9195768
21
11.3201019
0
LINE
8
layer1
10
-9.9195768
20
11.3201019
11
-9.8825975
21
11.3057805
0
LINE
8
layer1
10
-9.8825975
20
11.3057805
11
-9.8494892
21
11.297894
0
LINE
8
layer1
10
-9.8494892
20
11.297894
11
-9.8204978
21
11.2962536
0
LINE
8
layer1
10
-9.8204978
20
11.2962536
11
-9.7958806
21
11.3006999
0
LINE
8
layer1
10
-9.7958806
20
11.3006999
11
-9.7758632
21
11.3110347
0
LINE
8
layer1
10
-9.7758632
20
11.3110347
11
-9.7549734
21
11.3289288
0
LINE
8
layer1
10
-9.7549734
20
11.3289288
11
-9.4841796
21
11.5565063
0
LINE
8
layer1
10
-9.4841796
20
11.5565063
11
-9.2081458
21
11.7776986
0
LINE
8
layer1
10
-9.2081458
20
11.7776986
11
-9.18652
21
11.7946961
0
LINE
8
layer1
10
-9.18652
20
11.7946961
11
-9.1724786
21
11.8123127
0
LINE
8
layer1
10
-9.1724786
20
11.8123127
11
-9.1633152
21
11.8355894
0
LINE
8
layer1
10
-9.1633152
20
11.8355894
11
-9.1592682
21
11.8643438
0
LINE
8
layer1
10
-9.1592682
20
11.8643438
11
-9.1605439
21
11.8983546
0
LINE
8
layer1
10
-9.1605439
20
11.8983546
11
-9.1673758
21
11.9374173
0
LINE
8
layer1
10
-9.1673758
20
11.9374173
11
-9.1799626
21
11.9813171
0
LINE
8
layer1
10
-9.1799626
20
11.9813171
11
-9.19852
21
12.0298123
0
LINE
8
layer1
10
-9.19852
20
12.0298123
11
-9.2807188
21
12.1943167
0
LINE
8
layer1
10
-9.2807188
20
12.1943167
11
-9.3384365
21
12.3187449
0
LINE
8
layer1
10
-9.3384365
20
12.3187449
11
-9.4009311
21
12.4696276
0
LINE
8
layer1
10
-9.4009311
20
12.4696276
11
-9.4664008
21
12.648521
0
LINE
8
layer1
10
-9.4664008
20
12.648521
11
-9.5321784
21
12.8545869
0
LINE
8
layer1
10
-9.5321784
20
12.8545869
11
-9.5963196
21
13.0889553
0
LINE
8
layer1
10
-9.5963196
20
13.0889553
11
-9.6564471
21
13.351378
0
LINE
8
layer1
10
-9.6564471
20
13.351378
11
-9.7103449
21
13.641992
0
LINE
8
layer1
10
-9.7103449
20
13.641992
11
-9.7512636
21
13.9252502
0
ARC
8
layer1
10
0.0000042
20
-0.0000066
40
17
50
122.4980717
51
125.0019271
0
LINE
8
layer1
10
-9.1336066
20
14.3379554
11
-8.8875691
21
14.1917532
0
LINE
8
layer1
10
-8.8875691
20
14.1917532
11
-8.6397026
21
14.030745
0
LINE
8
layer1
10
-8.6397026
20
14.030745
11
-8.4202654
21
13.8747696
0
LINE
8
layer1
10
-8.4202654
20
13.8747696
11
-8.2282829
21
13.725822
0
LINE
8
layer1
10
-8.2282829
20
13.725822
11
-8.0630749
21
13.5861933
0
LINE
8
layer1
10
-8.0630749
20
13.5861933
11
-7.9228531
21
13.4572477
0
LINE
8
layer1
10
-7.9228531
20
13.4572477
11
-7.8073714
21
13.3417699
0
LINE
8
layer1
10
-7.8073714
20
13.3417699
11
-7.7145023
21
13.2408291
0
LINE
8
layer1
10
-7.7145023
20
13.2408291
11
-7.5939762
21
13.1019343
0
LINE
8
layer1
10
-7.5939762
20
13.1019343
11
-7.556274
21
13.0662311
0
LINE
8
layer1
10
-7.556274
20
13.0662311
11
-7.5205326
21
13.0378027
0
LINE
8
layer1
10
-7.5205326
20
13.0378027
11
-7.4870578
21
13.0165422
0
LINE
8
layer1
10
-7.4870578
20
13.0165422
11
-7.4561242
21
13.0023482
0
LINE
8
layer1
10
-7.4561242
20
13.0023482
11
-7.4280099
21
12.9950834
0
LINE
8
layer1
10
-7.4280099
20
12.9950834
11
-7.4029983
21
12.9946416
0
LINE
8
layer1
10
-7.4029983
20
12.9946416
11
-7.3813493
21
13.0008726
0
LINE
8
layer1
10
-7.3813493
20
13.0008726
11
-7.3573699
21
13.0143475
0
LINE
8
layer1
10
-7.3573699
20
13.0143475
11
-7.0473812
21
13.1847229
0
LINE
8
layer1
10
-7.0473812
20
13.1847229
11
-6.7334988
21
13.3478136
0
LINE
8
layer1
10
-6.7334988
20
13.3478136
11
-6.7089726
21
13.3602655
0
LINE
8
layer1
10
-6.7089726
20
13.3602655
11
-6.6917641
21
13.3748042
0
LINE
8
layer1
10
-6.6917641
20
13.3748042
11
-6.6782357
21
13.395846
0
LINE
8
layer1
10
-6.6782357
20
13.395846
11
-6.6686567
21
13.4232583
0
LINE
8
layer1
10
-6.6686567
20
13.4232583
11
-6.6632728
21
13.4568645
0
LINE
8
layer1
10
-6.6632728
20
13.4568645
11
-6.6623527
21
13.4965095
0
LINE
8
layer1
10
-6.6623527
20
13.4965095
11
-6.6661332
21
13.5420213
0
LINE
8
layer1
10
-6.6661332
20
13.5420213
11
-6.6748731
21
13.5932051
0
LINE
8
layer1
10
-6.6748731
20
13.5932051
11
-6.7233992
21
13.7705848
0
LINE
8
layer1
10
-6.7233992
20
13.7705848
11
-6.7557332
21
13.9038823
0
LINE
8
layer1
10
-6.7557332
20
13.9038823
11
-6.7875912
21
14.0640578
0
LINE
8
layer1
10
-6.7875912
20
14.0640578
11
-6.8169025
21
14.2522864
0
LINE
8
layer1
10
-6.8169025
20
14.2522864
11
-6.8412148
21
14.4672253
0
LINE
8
layer1
10
-6.8412148
20
14.4672253
11
-6.8584005
21
14.7096038
0
LINE
8
layer1
10
-6.8584005
20
14.7096038
11
-6.8661766
21
14.9787144
0
LINE
8
layer1
10
-6.8661766
20
14.9787144
11
-6.8623427
21
15.2742593
0
LINE
8
layer1
10
-6.8623427
20
15.2742593
11
-6.8472143
21
15.5600575
0
ARC
8
layer1
10
0.000003
20
-0.0000073
40
17
50
111.2480723
51
113.7519278
0
LINE
8
layer1
10
-6.1609106
20
15.8443338
11
-5.9481232
21
15.6529414
0
LINE
8
layer1
10
-5.9481232
20
15.6529414
11
-5.7364306
21
15.4466706
0
LINE
8
layer1
10
-5.7364306
20
15.4466706
11
-5.5516391
21
15.2508821
0
LINE
8
layer1
10
-5.5516391
20
15.2508821
11
-5.3924038
21
15.0673425
0
LINE
8
layer1
10
-5.3924038
20
15.0673425
11
-5.2576103
21
14.8981663
0
LINE
8
layer1
10
-5.2576103
20
14.8981663
11
-5.1452389
21
14.7443424
0
LINE
8
layer1
10
-5.1452389
20
14.7443424
11
-5.0545047
21
14.6085542
0
LINE
8
layer1
10
-5.0545047
20
14.6085542
11
-4.9831127
21
14.4914351
0
LINE
8
layer1
10
-4.9831127
20
14.4914351
11
-4.8919995
21
14.3316955
0
LINE
8
layer1
10
-4.8919995
20
14.3316955
11
-4.8619871
21
14.2893231
0
LINE
8
layer1
10
-4.8619871
20
14.2893231
11
-4.8324786
21
14.2544681
0
LINE
8
layer1
10
-4.8324786
20
14.2544681
11
-4.8037947
21
14.2270855
0
LINE
8
layer1
10
-4.8037947
20
14.2270855
11
-4.7762246
21
14.2071294
0
LINE
8
layer1
10
-4.7762246
20
14.2071294
11
-4.7500678
21
14.1945193
0
LINE
8
layer1
10
-4.7500678
20
14.1945193
11
-4.725623
21
14.1892065
0
LINE
8
layer1
10
-4.725623
20
14.1892065
11
-4.7031743
21
14.1910943
0
LINE
8
layer1
10
-4.7031743
20
14.1910943
11
-4.6770268
21
14.1996322
0
LINE
8
layer1
10
-4.6770268
20
14.1996322
11
-4.3397559
21
14.306258
0
LINE
8
layer1
10
-4.3397559
20
14.306258
11
-4.0000873
21
14.4049795
0
LINE
8
layer1
10
-4.0000873
20
14.4049795
11
-3.973603
21
14.4124073
0
LINE
8
layer1
10
-3.973603
20
14.4124073
11
-3.9538889
21
14.4233095
0
LINE
8
layer1
10
-3.9538889
20
14.4233095
11
-3.9365154
21
14.4413078
0
LINE
8
layer1
10
-3.9365154
20
14.4413078
11
-3.9217726
21
14.4663246
0
LINE
8
layer1
10
-3.9217726
20
14.4663246
11
-3.9099359
21
14.4982346
0
LINE
8
layer1
10
-3.9099359
20
14.4982346
11
-3.9012991
21
14.5369383
0
LINE
8
layer1
10
-3.9012991
20
14.5369383
11
-3.8961281
21
14.5823132
0
LINE
8
layer1
10
-3.8961281
20
14.5823132
11
-3.8947145
21
14.6342186
0
LINE
8
layer1
10
-3.8947145
20
14.6342186
11
-3.9077032
21
14.817657
0
LINE
8
layer1
10
-3.9077032
20
14.817657
11
-3.9134108
21
14.9547012
0
LINE
8
layer1
10
-3.9134108
20
14.9547012
11
-3.9134079
21
15.1180143
0
LINE
8
layer1
10
-3.9134079
20
15.1180143
11
-3.9054345
21
15.3083444
0
LINE
8
layer1
10
-3.9054345
20
15.3083444
11
-3.8873471
21
15.5238965
0
LINE
8
layer1
10
-3.8873471
20
15.5238965
11
-3.8569169
21
15.7649705
0
LINE
8
layer1
10
-3.8569169
20
15.7649705
11
-3.8120427
21
16.0304272
0
LINE
8
layer1
10
-3.8120427
20
16.0304272
11
-3.7506246
21
16.3195453
0
LINE
8
layer1
10
-3.7506246
20
16.3195453
11
-3.6800303
21
16.5969006
0
ARC
8
layer1
10
0.0000016
20
-0.0000077
40
17
50
99.9980725
51
102.5019279
0
LINE
8
layer1
10
-2.9514542
20
16.7418234
11
-2.7800943
21
16.5125958
0
LINE
8
layer1
10
-2.7800943
20
16.5125958
11
-2.6127107
21
16.2689892
0
LINE
8
layer1
10
-2.6127107
20
16.2689892
11
-2.4696664
21
16.0409117
0
LINE
8
layer1
10
-2.4696664
20
16.0409117
11
-2.3492975
21
15.8298335
0
LINE
8
layer1
10
-2.3492975
20
15.8298335
11
-2.2500988
21
15.6376111
0
LINE
8
layer1
10
-2.2500988
20
15.6376111
11
-2.1698961
21
15.4648203
0
LINE
8
layer1
10
-2.1698961
20
15.4648203
11
-2.1073963
21
15.3139398
0
LINE
8
layer1
10
-2.1073963
20
15.3139398
11
-2.0602249
21
15.1851433
0
LINE
8
layer1
10
-2.0602249
20
15.1851433
11
-2.002026
21
15.0106978
0
LINE
8
layer1
10
-2.002026
20
15.0106978
11
-1.9808567
21
14.9632844
0
LINE
8
layer1
10
-1.9808567
20
14.9632844
11
-1.9587151
21
14.9233423
0
LINE
8
layer1
10
-1.9587151
20
14.9233423
11
-1.9359245
21
14.8908899
0
LINE
8
layer1
10
-1.9359245
20
14.8908899
11
-1.9127773
21
14.8659386
0
LINE
8
layer1
10
-1.9127773
20
14.8659386
11
-1.8895832
21
14.8484679
0
LINE
8
layer1
10
-1.8895832
20
14.8484679
11
-1.8666446
21
14.8384882
0
LINE
8
layer1
10
-1.8666446
20
14.8384882
11
-1.844259
21
14.8359602
0
LINE
8
layer1
10
-1.844259
20
14.8359602
11
-1.8169483
21
14.8392329
0
LINE
8
layer1
10
-1.8169483
20
14.8392329
11
-1.4653562
21
14.8780117
0
LINE
8
layer1
10
-1.4653562
20
14.8780117
11
-1.1129546
21
14.9085702
0
LINE
8
layer1
10
-1.1129546
20
14.9085702
11
-1.0855302
21
14.9106885
0
LINE
8
layer1
10
-1.0855302
20
14.9106885
11
-1.0640679
21
14.9175351
0
LINE
8
layer1
10
-1.0640679
20
14.9175351
11
-1.043517
21
14.9317981
0
LINE
8
layer1
10
-1.043517
20
14.9317981
11
-1.0241769
21
14.9534581
0
LINE
8
layer1
10
-1.0241769
20
14.9534581
11
-1.0063423
21
14.9824458
0
LINE
8
layer1
10
-1.0063423
20
14.9824458
11
-0.9903207
21
15.0187208
0
LINE
8
layer1
10
-0.9903207
20
15.0187208
11
-0.9763969
21
15.0622151
0
LINE
8
layer1
10
-0.9763969
20
15.0622151
11
-0.9648843
21
15.1128473
0
LINE
8
layer1
10
-0.9648843
20
15.1128473
11
-0.9418363
21
15.2952949
0
LINE
8
layer1
10
-0.9418363
20
15.2952949
11
-0.9206982
21
15.4308194
0
LINE
8
layer1
10
-0.9206982
20
15.4308194
11
-0.8888346
21
15.5909939
0
LINE
8
layer1
10
-0.8888346
20
15.5909939
11
-0.8438828
21
15.7761113
0
LINE
8
layer1
10
-0.8438828
20
15.7761113
11
-0.7840909
21
15.9839929
0
LINE
8
layer1
10
-0.7840909
20
15.9839929
11
-0.7072142
21
16.2144981
0
LINE
8
layer1
10
-0.7072142
20
16.2144981
11
-0.6114141
21
16.4660997
0
LINE
8
layer1
10
-0.6114141
20
16.4660997
11
-0.494772
21
16.7376804
0
LINE
8
layer1
10
-0.494772
20
16.7376804
11
-0.3714249
21
16.9959341
0
ARC
8
layer1
10
0
20
-0.0000079
40
17
50
88.7480722
51
91.2519278
0
LINE
8
layer1
10
0.3714249
20
16.9959341
11
0.494772
21
16.7376804
0
LINE
8
layer1
10
0.494772
20
16.7376804
11
0.6114141
21
16.4660997
0
LINE
8
layer1
10
0.6114141
20
16.4660997
11
0.7072142
21
16.2144981
0
LINE
8
layer1
10
0.7072142
20
16.2144981
11
0.7840909
21
15.9839929
0
LINE
8
layer1
10
0.7840909
20
15.9839929
11
0.8438828
21
15.7761113
0
LINE
8
layer1
10
0.8438828
20
15.7761113
11
0.8888346
21
15.5909939
0
LINE
8
layer1
10
0.8888346
20
15.5909939
11
0.9206982
21
15.4308194
0
LINE
8
layer1
10
0.9206982
20
15.4308194
11
0.9418363
21
15.2952949
0
LINE
8
layer1
10
0.9418363
20
15.2952949
11
0.9648843
21
15.1128473
0
LINE
8
layer1
10
0.9648843
20
15.1128473
11
0.9763969
21
15.0622151
0
LINE
8
layer1
10
0.9763969
20
15.0622151
11
0.9903207
21
15.0187208
0
LINE
8
layer1
10
0.9903207
20
15.0187208
11
1.0063423
21
14.9824458
0
LINE
8
layer1
10
1.0063423
20
14.9824458
11
1.0241769
21
14.9534581
0
LINE
8
layer1
10
1.0241769
20
14.9534581
11
1.043517
21
14.9317981
0
LINE
8
layer1
10
1.043517
20
14.9317981
11
1.0640679
21
14.9175351
0
LINE
8
layer1
10
1.0640679
20
14.9175351
11
1.0855302
21
14.9106885
0
LINE
8
layer1
10
1.0855302
20
14.9106885
11
1.1129546
21
14.9085702
0
LINE
8
layer1
10
1.1129546
20
14.9085702
11
1.4653562
21
14.8780117
0
LINE
8
layer1
10
1.4653562
20
14.8780117
11
1.8169483
21
14.8392329
0
LINE
8
layer1
10
1.8169483
20
14.8392329
11
1.844259
21
14.8359602
0
LINE
8
layer1
10
1.844259
20
14.8359602
11
1.8666446
21
14.8384882
0
LINE
8
layer1
10
1.8666446
20
14.8384882
11
1.8895832
21
14.8484679
0
LINE
8
layer1
10
1.8895832
20
14.8484679
11
1.9127773
21
14.8659386
0
LINE
8
layer1
10
1.9127773
20
14.8659386
11
1.9359245
21
14.8908899
0
LINE
8
layer1
10
1.9359245
20
14.8908899
11
1.9587151
21
14.9233423
0
LINE
8
layer1
10
1.9587151
20
14.9233423
11
1.9808567
21
14.9632844
0
LINE
8
layer1
10
1.9808567
20
14.9632844
11
2.002026
21
15.0106978
0
LINE
8
layer1
10
2.002026
20
15.0106978
11
2.0602249
21
15.1851433
0
LINE
8
layer1
10
2.0602249
20
15.1851433
11
2.1073963
21
15.3139398
0
LINE
8
layer1
10
2.1073963
20
15.3139398
11
2.1698961
21
15.4648203
0
LINE
8
layer1
10
2.1698961
20
15.4648203
11
2.2500988
21
15.6376111
0
LINE
8
layer1
10
2.2500988
20
15.6376111
11
2.3492975
21
15.8298335
0
LINE
8
layer1
10
2.3492975
20
15.8298335
11
2.4696664
21
16.0409117
0
LINE
8
layer1
10
2.4696664
20
16.0409117
11
2.6127107
21
16.2689892
0
LINE
8
layer1
10
2.6127107
20
16.2689892
11
2.7800943
21
16.5125958
0
LINE
8
layer1
10
2.7800943
20
16.5125958
11
2.9514542
21
16.7418234
0
ARC
8
layer1
10
-0.0000016
20
-0.0000077
40
17
50
77.4980721
51
80.0019275
0
LINE
8
layer1
10
3.6800303
20
16.5969006
11
3.7506246
21
16.3195453
0
LINE
8
layer1
10
3.7506246
20
16.3195453
11
3.8120427
21
16.0304272
0
LINE
8
layer1
10
3.8120427
20
16.0304272
11
3.8569169
21
15.7649705
0
LINE
8
layer1
10
3.8569169
20
15.7649705
11
3.8873471
21
15.5238965
0
LINE
8
layer1
10
3.8873471
20
15.5238965
11
3.9054345
21
15.3083444
0
LINE
8
layer1
10
3.9054345
20
15.3083444
11
3.9134079
21
15.1180143
0
LINE
8
layer1
10
3.9134079
20
15.1180143
11
3.9134108
21
14.9547012
0
LINE
8
layer1
10
3.9134108
20
14.9547012
11
3.9077032
21
14.817657
0
LINE
8
layer1
10
3.9077032
20
14.817657
11
3.8947145
21
14.6342186
0
LINE
8
layer1
10
3.8947145
20
14.6342186
11
3.8961281
21
14.5823132
0
LINE
8
layer1
10
3.8961281
20
14.5823132
11
3.9012991
21
14.5369383
0
LINE
8
layer1
10
3.9012991
20
14.5369383
11
3.9099359
21
14.4982346
0
LINE
8
layer1
10
3.9099359
20
14.4982346
11
3.9217726
21
14.4663246
0
LINE
8
layer1
10
3.9217726
20
14.4663246
11
3.9365154
21
14.4413078
0
LINE
8
layer1
10
3.9365154
20
14.4413078
11
3.9538889
21
14.4233095
0
LINE
8
layer1
10
3.9538889
20
14.4233095
11
3.973603
21
14.4124073
0
LINE
8
layer1
10
3.973603
20
14.4124073
11
4.0000873
21
14.4049795
0
LINE
8
layer1
10
4.0000873
20
14.4049795
11
4.3397559
21
14.306258
0
LINE
8
layer1
10
4.3397559
20
14.306258
11
4.6770268
21
14.1996322
0
LINE
8
layer1
10
4.6770268
20
14.1996322
11
4.7031743
21
14.1910943
0
LINE
8
layer1
10
4.7031743
20
14.1910943
11
4.725623
21
14.1892065
0
LINE
8
layer1
10
4.725623
20
14.1892065
11
4.7500678
21
14.1945193
0
LINE
8
layer1
10
4.7500678
20
14.1945193
11
4.7762246
21
14.2071294
0
LINE
8
layer1
10
4.7762246
20
14.2071294
11
4.8037947
21
14.2270855
0
LINE
8
layer1
10
4.8037947
20
14.2270855
11
4.8324786
21
14.2544681
0
LINE
8
layer1
10
4.8324786
20
14.2544681
11
4.8619871
21
14.2893231
0
LINE
8
layer1
10
4.8619871
20
14.2893231
11
4.8919995
21
14.3316955
0
LINE
8
layer1
10
4.8919995
20
14.3316955
11
4.9831127
21
14.4914351
0
LINE
8
layer1
10
4.9831127
20
14.4914351
11
5.0545047
21
14.6085542
0
LINE
8
layer1
10
5.0545047
20
14.6085542
11
5.1452389
21
14.7443424
0
LINE
8
layer1
10
5.1452389
20
14.7443424
11
5.2576103
21
14.8981663
0
LINE
8
layer1
10
5.2576103
20
14.8981663
11
5.3924038
21
15.0673425
0
LINE
8
layer1
10
5.3924038
20
15.0673425
11
5.5516391
21
15.2508821
0
LINE
8
layer1
10
5.5516391
20
15.2508821
11
5.7364306
21
15.4466706
0
LINE
8
layer1
10
5.7364306
20
15.4466706
11
5.9481232
21
15.6529414
0
LINE
8
layer1
10
5.9481232
20
15.6529414
11
6.1609106
21
15.8443338
0
ARC
8
layer1
10
-0.0000029
20
-0.0000073
40
17
50
66.2480725
51
68.751928
0
LINE
8
layer1
10
6.8472143
20
15.5600575
11
6.8623427
21
15.2742593
0
LINE
8
layer1
10
6.8623427
20
15.2742593
11
6.8661766
21
14.9787144
0
LINE
8
layer1
10
6.8661766
20
14.9787144
11
6.8584005
21
14.7096038
0
LINE
8
layer1
10
6.8584005
20
14.7096038
11
6.8412148
21
14.4672253
0
LINE
8
layer1
10
6.8412148
20
14.4672253
11
6.8169025
21
14.2522864
0
LINE
8
layer1
10
6.8169025
20
14.2522864
11
6.7875912
21
14.0640578
0
LINE
8
layer1
10
6.7875912
20
14.0640578
11
6.7557332
21
13.9038823
0
LINE
8
layer1
10
6.7557332
20
13.9038823
11
6.7233992
21
13.7705848
0
LINE
8
layer1
10
6.7233992
20
13.7705848
11
6.6748731
21
13.5932051
0
LINE
8
layer1
10
6.6748731
20
13.5932051
11
6.6661332
21
13.5420213
0
LINE
8
layer1
10
6.6661332
20
13.5420213
11
6.6623527
21
13.4965095
0
LINE
8
layer1
10
6.6623527
20
13.4965095
11
6.6632728
21
13.4568645
0
LINE
8
layer1
10
6.6632728
20
13.4568645
11
6.6686567
21
13.4232583
0
LINE
8
layer1
10
6.6686567
20
13.4232583
11
6.6782357
21
13.395846
0
LINE
8
layer1
10
6.6782357
20
13.395846
11
6.6917641
21
13.3748042
0
LINE
8
layer1
10
6.6917641
20
13.3748042
11
6.7089726
21
13.3602655
0
LINE
8
layer1
10
6.7089726
20
13.3602655
11
6.7334988
21
13.3478136
0
LINE
8
layer1
10
6.7334988
20
13.3478136
11
7.0473812
21
13.1847229
0
LINE
8
layer1
10
7.0473812
20
13.1847229
11
7.3573699
21
13.0143475
0
LINE
8
layer1
10
7.3573699
20
13.0143475
11
7.3813493
21
13.0008726
0
LINE
8
layer1
10
7.3813493
20
13.0008726
11
7.4029983
21
12.9946416
0
LINE
8
layer1
10
7.4029983
20
12.9946416
11
7.4280099
21
12.9950834
0
LINE
8
layer1
10
7.4280099
20
12.9950834
11
7.4561242
21
13.0023482
0
LINE
8
layer1
10
7.4561242
20
13.0023482
11
7.4870578
21
13.0165422
0
LINE
8
layer1
10
7.4870578
20
13.0165422
11
7.5205326
21
13.0378027
0
LINE
8
layer1
10
7.5205326
20
13.0378027
11
7.556274
21
13.0662311
0
LINE
8
layer1
10
7.556274
20
13.0662311
11
7.5939762
21
13.1019343
0
LINE
8
layer1
10
7.5939762
20
13.1019343
11
7.7145023
21
13.2408291
0
LINE
8
layer1
10
7.7145023
20
13.2408291
11
7.8073714
21
13.3417699
0
LINE
8
layer1
10
7.8073714
20
13.3417699
11
7.9228531
21
13.4572477
0
LINE
8
layer1
10
7.9228531
20
13.4572477
11
8.0630749
21
13.5861933
0
LINE
8
layer1
10
8.0630749
20
13.5861933
11
8.2282829
21
13.725822
0
LINE
8
layer1
10
8.2282829
20
13.725822
11
8.4202654
21
13.8747696
0
LINE
8
layer1
10
8.4202654
20
13.8747696
11
8.6397026
21
14.030745
0
LINE
8
layer1
10
8.6397026
20
14.030745
11
8.8875691
21
14.1917532
0
LINE
8
layer1
10
8.8875691
20
14.1917532
11
9.1336066
21
14.3379554
0
ARC
8
layer1
10
-0.0000041
20
-0.0000066
40
17
50
54.9980732
51
57.5019286
0
LINE
8
layer1
10
9.7512636
20
13.9252502
11
9.7103449
21
13.641992
0
LINE
8
layer1
10
9.7103449
20
13.641992
11
9.6564471
21
13.351378
0
LINE
8
layer1
10
9.6564471
20
13.351378
11
9.5963196
21
13.0889553
0
LINE
8
layer1
10
9.5963196
20
13.0889553
11
9.5321784
21
12.8545869
0
LINE
8
layer1
10
9.5321784
20
12.8545869
11
9.4664008
21
12.648521
0
LINE
8
layer1
10
9.4664008
20
12.648521
11
9.4009311
21
12.4696276
0
LINE
8
layer1
10
9.4009311
20
12.4696276
11
9.3384365
21
12.3187449
0
LINE
8
layer1
10
9.3384365
20
12.3187449
11
9.2807188
21
12.1943167
0
LINE
8
layer1
10
9.2807188
20
12.1943167
11
9.19852
21
12.0298123
0
LINE
8
layer1
10
9.19852
20
12.0298123
11
9.1799626
21
11.9813171
0
LINE
8
layer1
10
9.1799626
20
11.9813171
11
9.1673758
21
11.9374173
0
LINE
8
layer1
10
9.1673758
20
11.9374173
11
9.1605439
21
11.8983546
0
LINE
8
layer1
10
9.1605439
20
11.8983546
11
9.1592682
21
11.8643438
0
LINE
8
layer1
10
9.1592682
20
11.8643438
11
9.1633152
21
11.8355894
0
LINE
8
layer1
10
9.1633152
20
11.8355894
11
9.1724786
21
11.8123127
0
LINE
8
layer1
10
9.1724786
20
11.8123127
11
9.18652
21
11.7946961
0
LINE
8
layer1
10
9.18652
20
11.7946961
11
9.2081458
21
11.7776986
0
LINE
8
layer1
10
9.2081458
20
11.7776986
11
9.4841796
21
11.5565063
0
LINE
8
layer1
10
9.4841796
20
11.5565063
11
9.7549734
21
11.3289288
0
LINE
8
layer1
10
9.7549734
20
11.3289288
11
9.7758632
21
11.3110347
0
LINE
8
layer1
10
9.7758632
20
11.3110347
11
9.7958806
21
11.3006999
0
LINE
8
layer1
10
9.7958806
20
11.3006999
11
9.8204978
21
11.2962536
0
LINE
8
layer1
10
9.8204978
20
11.2962536
11
9.8494892
21
11.297894
0
LINE
8
layer1
10
9.8494892
20
11.297894
11
9.8825975
21
11.3057805
0
LINE
8
layer1
10
9.8825975
20
11.3057805
11
9.9195768
21
11.3201019
0
LINE
8
layer1
10
9.9195768
20
11.3201019
11
9.9601776
21
11.3410112
0
LINE
8
layer1
10
9.9601776
20
11.3410112
11
10.0041206
21
11.368673
0
LINE
8
layer1
10
10.0041206
20
11.368673
11
10.149428
21
11.4813856
0
LINE
8
layer1
10
10.149428
20
11.4813856
11
10.2602051
21
11.562269
0
LINE
8
layer1
10
10.2602051
20
11.562269
11
10.3959965
21
11.6529985
0
LINE
8
layer1
10
10.3959965
20
11.6529985
11
10.55868
21
11.7521106
0
LINE
8
layer1
10
10.55868
20
11.7521106
11
10.7479538
21
11.8568258
0
LINE
8
layer1
10
10.7479538
20
11.8568258
11
10.9653056
21
11.9654575
0
LINE
8
layer1
10
10.9653056
20
11.9654575
11
11.2109557
21
12.0756258
0
LINE
8
layer1
10
11.2109557
20
12.0756258
11
11.4854706
21
12.1851839
0
LINE
8
layer1
10
11.4854706
20
12.1851839
11
11.7553032
21
12.2805773
0
ARC
8
layer1
10
-0.0000056
20
-0.0000056
40
17
50
43.7480723
51
46.2519277
0
LINE
8
layer1
10
12.2805773
20
11.7553032
11
12.1851839
21
11.4854706
0
LINE
8
layer1
10
12.1851839
20
11.4854706
11
12.0756258
21
11.2109557
0
LINE
8
layer1
10
12.0756258
20
11.2109557
11
11.9654575
21
10.9653056
0
LINE
8
layer1
10
11.9654575
20
10.9653056
11
11.8568258
21
10.7479538
0
LINE
8
layer1
10
11.8568258
20
10.7479538
11
11.7521106
21
10.55868
0
LINE
8
layer1
10
11.7521106
20
10.55868
11
11.6529985
21
10.3959965
0
LINE
8
layer1
10
11.6529985
20
10.3959965
11
11.562269
21
10.2602051
0
LINE
8
layer1
10
11.562269
20
10.2602051
11
11.4813856
21
10.149428
0
LINE
8
layer1
10
11.4813856
20
10.149428
11
11.368673
21
10.0041206
0
LINE
8
layer1
10
11.368673
20
10.0041206
11
11.3410112
21
9.9601776
0
LINE
8
layer1
10
11.3410112
20
9.9601776
11
11.3201019
21
9.9195768
0
LINE
8
layer1
10
11.3201019
20
9.9195768
11
11.3057805
21
9.8825975
0
LINE
8
layer1
10
11.3057805
20
9.8825975
11
11.297894
21
9.8494892
0
LINE
8
layer1
10
11.297894
20
9.8494892
11
11.2962536
21
9.8204978
0
LINE
8
layer1
10
11.2962536
20
9.8204978
11
11.3006999
21
9.7958806
0
LINE
8
layer1
10
11.3006999
20
9.7958806
11
11.3110347
21
9.7758632
0
LINE
8
layer1
10
11.3110347
20
9.7758632
11
11.3289288
21
9.7549734
0
LINE
8
layer1
10
11.3289288
20
9.7549734
11
11.5565063
21
9.4841796
0
LINE
8
layer1
10
11.5565063
20
9.4841796
11
11.7776986
21
9.2081458
0
LINE
8
layer1
10
11.7776986
20
9.2081458
11
11.7946961
21
9.18652
0
LINE
8
layer1
10
11.7946961
20
9.18652
11
11.8123127
21
9.1724786
0
LINE
8
layer1
10
11.8123127
20
9.1724786
11
11.8355894
21
9.1633152
0
LINE
8
layer1
10
11.8355894
20
9.1633152
11
11.8643438
21
9.1592682
0
LINE
8
layer1
10
11.8643438
20
9.1592682
11
11.8983546
21
9.1605439
0
LINE
8
layer1
10
11.8983546
20
9.1605439
11
11.9374173
21
9.1673758
0
LINE
8
layer1
10
11.9374173
20
9.1673758
11
11.9813171
21
9.1799626
0
LINE
8
layer1
10
11.9813171
20
9.1799626
11
12.0298123
21
9.19852
0
LINE
8
layer1
10
12.0298123
20
9.19852
11
12.1943167
21
9.2807188
0
LINE
8
layer1
10
12.1943167
20
9.2807188
11
12.3187449
21
9.3384365
0
LINE
8
layer1
10
12.3187449
20
9.3384365
11
12.4696276
21
9.4009311
0
LINE
8
layer1
10
12.4696276
20
9.4009311
11
12.648521
21
9.4664008
0
LINE
8
layer1
10
12.648521
20
9.4664008
11
12.8545869
21
9.5321784
0
LINE
8
layer1
10
12.8545869
20
9.5321784
11
13.0889553
21
9.5963196
0
LINE
8
layer1
10
13.0889553
20
9.5963196
11
13.351378
21
9.6564471
0
LINE
8
layer1
10
13.351378
20
9.6564471
11
13.641992
21
9.7103449
0
LINE
8
layer1
10
13.641992
20
9.7103449
11
13.9252502
21
9.7512636
0
ARC
8
layer1
10
-0.0000066
20
-0.0000042
40
17
50
32.4980717
51
35.0019271
0
LINE
8
layer1
10
14.3379554
20
9.1336066
11
14.1917532
21
8.8875691
0
LINE
8
layer1
10
14.1917532
20
8.8875691
11
14.030745
21
8.6397026
0
LINE
8
layer1
10
14.030745
20
8.6397026
11
13.8747696
21
8.4202654
0
LINE
8
layer1
10
13.8747696
20
8.4202654
11
13.725822
21
8.2282829
0
LINE
8
layer1
10
13.725822
20
8.2282829
11
13.5861933
21
8.0630749
0
LINE
8
layer1
10
13.5861933
20
8.0630749
11
13.4572477
21
7.9228531
0
LINE
8
layer1
10
13.4572477
20
7.9228531
11
13.3417699
21
7.8073714
0
LINE
8
layer1
10
13.3417699
20
7.8073714
11
13.2408291
21
7.7145023
0
LINE
8
layer1
10
13.2408291
20
7.7145023
11
13.1019343
21
7.5939762
0
LINE
8
layer1
10
13.1019343
20
7.5939762
11
13.0662311
21
7.556274
0
LINE
8
layer1
10
13.0662311
20
7.556274
11
13.0378027
21
7.5205326
0
LINE
8
layer1
10
13.0378027
20
7.5205326
11
13.0165422
21
7.4870578
0
LINE
8
layer1
10
13.0165422
20
7.4870578
11
13.0023482
21
7.4561242
0
LINE
8
layer1
10
13.0023482
20
7.4561242
11
12.9950834
21
7.4280099
0
LINE
8
layer1
10
12.9950834
20
7.4280099
11
12.9946416
21
7.4029983
0
LINE
8
layer1
10
12.9946416
20
7.4029983
11
13.0008726
21
7.3813493
0
LINE
8
layer1
10
13.0008726
20
7.3813493
11
13.0143475
21
7.3573699
0
LINE
8
layer1
10
13.0143475
20
7.3573699
11
13.1847229
21
7.0473812
0
LINE
8
layer1
10
13.1847229
20
7.0473812
11
13.3478136
21
6.7334988
0
LINE
8
layer1
10
13.3478136
20
6.7334988
11
13.3602655
21
6.7089726
0
LINE
8
layer1
10
13.3602655
20
6.7089726
11
13.3748042
21
6.6917641
0
LINE
8
layer1
10
13.3748042
20
6.6917641
11
13.395846
21
6.6782357
0
LINE
8
layer1
10
13.395846
20
6.6782357
11
13.4232583
21
6.6686567
0
LINE
8
layer1
10
13.4232583
20
6.6686567
11
13.4568645
21
6.6632728
0
LINE
8
layer1
10
13.4568645
20
6.6632728
11
13.4965095
21
6.6623527
0
LINE
8
layer1
10
13.4965095
20
6.6623527
11
13.5420213
21
6.6661332
0
LINE
8
layer1
10
13.5420213
20
6.6661332
11
13.5932051
21
6.6748731
0
LINE
8
layer1
10
13.5932051
20
6.6748731
11
13.7705848
21
6.7233992
0
LINE
8
layer1
10
13.7705848
20
6.7233992
11
13.9038823
21
6.7557332
0
LINE
8
layer1
10
13.9038823
20
6.7557332
11
14.0640578
21
6.7875912
0
LINE
8
layer1
10
14.0640578
20
6.7875912
11
14.2522864
21
6.8169025
0
LINE
8
layer1
10
14.2522864
20
6.8169025
11
14.4672253
21
6.8412148
0
LINE
8
layer1
10
14.4672253
20
6.8412148
11
14.7096038
21
6.8584005
0
LINE
8
layer1
10
14.7096038
20
6.8584005
11
14.9787144
21
6.8661766
0
LINE
8
layer1
10
14.9787144
20
6.8661766
11
15.2742593
21
6.8623427
0
LINE
8
layer1
10
15.2742593
20
6.8623427
11
15.5600575
21
6.8472143
0
ARC
8
layer1
10
-0.0000073
20
-0.000003
40
17
50
21.2480723
51
23.7519278
0
LINE
8
layer1
10
15.8443338
20
6.1609106
11
15.6529414
21
5.9481232
0
LINE
8
layer1
10
15.6529414
20
5.9481232
11
15.4466706
21
5.7364306
0
LINE
8
layer1
10
15.4466706
20
5.7364306
11
15.2508821
21
5.5516391
0
LINE
8
layer1
10
15.2508821
20
5.5516391
11
15.0673425
21
5.3924038
0
LINE
8
layer1
10
15.0673425
20
5.3924038
11
14.8981663
21
5.2576103
0
LINE
8
layer1
10
14.8981663
20
5.2576103
11
14.7443424
21
5.1452389
0
LINE
8
layer1
10
14.7443424
20
5.1452389
11
14.6085542
21
5.0545047
0
LINE
8
layer1
10
14.6085542
20
5.0545047
11
14.4914351
21
4.9831127
0
LINE
8
layer1
10
14.4914351
20
4.9831127
11
14.3316955
21
4.8919995
0
LINE
8
layer1
10
14.3316955
20
4.8919995
11
14.2893231
21
4.8619871
0
LINE
8
layer1
10
14.2893231
20
4.8619871
11
14.2544681
21
4.8324786
0
LINE
8
layer1
10
14.2544681
20
4.8324786
11
14.2270855
21
4.8037947
0
LINE
8
layer1
10
14.2270855
20
4.8037947
11
14.2071294
21
4.7762246
0
LINE
8
layer1
10
14.2071294
20
4.7762246
11
14.1945193
21
4.7500678
0
LINE
8
layer1
10
14.1945193
20
4.7500678
11
14.1892065
21
4.725623
0
LINE
8
layer1
10
14.1892065
20
4.725623
11
14.1910943
21
4.7031743
0
LINE
8
layer1
10
14.1910943
20
4.7031743
11
14.1996322
21
4.6770268
0
LINE
8
layer1
10
14.1996322
20
4.6770268
11
14.306258
21
4.3397559
0
LINE
8
layer1
10
14.306258
20
4.3397559
11
14.4049795
21
4.0000873
0
LINE
8
layer1
10
14.4049795
20
4.0000873
11
14.4124073
21
3.973603
0
LINE
8
layer1
10
14.4124073
20
3.973603
11
14.4233095
21
3.9538889
0
LINE
8
layer1
10
14.4233095
20
3.9538889
11
14.4413078
21
3.9365154
0
LINE
8
layer1
10
14.4413078
20
3.9365154
11
14.4663246
21
3.9217726
0
LINE
8
layer1
10
14.4663246
20
3.9217726
11
14.4982346
21
3.9099359
0
LINE
8
layer1
10
14.4982346
20
3.9099359
11
14.5369383
21
3.9012991
0
LINE
8
layer1
10
14.5369383
20
3.9012991
11
14.5823132
21
3.8961281
0
LINE
8
layer1
10
14.5823132
20
3.8961281
11
14.6342186
21
3.8947145
0
LINE
8
layer1
10
14.6342186
20
3.8947145
11
14.817657
21
3.9077032
0
LINE
8
layer1
10
14.817657
20
3.9077032
11
14.9547012
21
3.9134108
0
LINE
8
layer1
10
14.9547012
20
3.9134108
11
15.1180143
21
3.9134079
0
LINE
8
layer1
10
15.1180143
20
3.9134079
11
15.3083444
21
3.9054345
0
LINE
8
layer1
10
15.3083444
20
3.9054345
11
15.5238965
21
3.8873471
0
LINE
8
layer1
10
15.5238965
20
3.8873471
11
15.7649705
21
3.8569169
0
LINE
8
layer1
10
15.7649705
20
3.8569169
11
16.0304272
21
3.8120427
0
LINE
8
layer1
10
16.0304272
20
3.8120427
11
16.3195453
21
3.7506246
0
LINE
8
layer1
10
16.3195453
20
3.7506246
11
16.5969006
21
3.6800303
0
ARC
8
layer1
10
-0.0000077
20
-0.0000016
40
17
50
9.9980725
51
12.5019279
0
LINE
8
layer1
10
16.7418234
20
2.9514542
11
16.5125958
21
2.7800943
0
ENDSEC
0
EOF