0
SECTION
2
HEADER
9
$INSUNITS
70
1
9
$ACADVER
1
AC1014
9
$HANDSEED
5
FFFF
0
ENDSEC
0
SECTION
2
TABLES
0
TABLE
2
VPORT
5
8
100
AcDbSymbolTable
0
ENDTAB
0
TABLE
2
LTYPE
5
5
100
AcDbSymbolTable
0
LTYPE
5
14
100
AcDbSymbolTableRecord
100
AcDbLinetypeTableRecord
2
BYBLOCK
70
0
0
LTYPE
5
15
100
AcDbSymbolTableRecord
100
AcDbLinetypeTableRecord
2
BYLAYER
70
0
0
ENDTAB
0
TABLE
2
LAYER
5
2
100
AcDbSymbolTable
70
2
0
LAYER
5
50
100
AcDbSymbolTableRecord
100
AcDbLayerTableRecord
2
0
70
0
6
CONTINUOUS
0
ENDTAB
0
TABLE
2
STYLE
5
3
100
AcDbSymbolTable
70
1
0
STYLE
5
11
100
AcDbSymbolTableRecord
100
AcDbTextStyleTableRecord
2
STANDARD
70
0
0
ENDTAB
0
TABLE
2
VIEW
5
6
100
AcDbSymbolTable
70
0
0
ENDTAB
0
TABLE
2
UCS
5
7
100
AcDbSymbolTable
70
0
0
ENDTAB
0
TABLE
2
APPID
5
9
100
AcDbSymbolTable
70
2
0
APPID
5
12
100
AcDbSymbolTableRecord
100
AcDbRegAppTableRecord
2
ACAD
70
0
0
ENDTAB
0
TABLE
2
DIMSTYLE
5
A
100
AcDbSymbolTable
70
1
0
ENDTAB
0
TABLE
2
BLOCK_RECORD
5
1
100
AcDbSymbolTable
70
1
0
BLOCK_RECORD
5
1F
100
AcDbSymbolTableRecord
100
AcDbBlockTableRecord
2
*MODEL_SPACE
0
BLOCK_RECORD
5
1B
100
AcDbSymbolTableRecord
100
AcDbBlockTableRecord
2
*PAPER_SPACE
0
ENDTAB
0
ENDSEC
0
SECTION
2
BLOCKS
0
BLOCK
5
20
100
AcDbEntity
100
AcDbBlockBegin
2
*MODEL_SPACE
0
ENDBLK
5
21
100
AcDbEntity
100
AcDbBlockEnd
0
BLOCK
5
1C
100
AcDbEntity
100
AcDbBlockBegin
2
*PAPER_SPACE
0
ENDBLK
5
1D
100
AcDbEntity
100
AcDbBlockEnd
0
ENDSEC
0
SECTION
2
ENTITIES
0
SPLINE
5
100
100
AcDbEntity
8
0
100
AcDbSpline
70
0
71
3
72
8
73
4
74
0
42
0.000000001
43
0.0000000001
44
0.0000000001
40
-7.3911785162568719
40
-7.3911785162568719
40
-7.3911785162568719
40
-7.3911785162568719
40
-0
40
-0
40
-0
40
-0
10
-5.5347731818795181
20
11.364463915986217
30
0
10
-5.3779142185850342
20
10.351592831779749
30
0
10
-5.2028653523392716
20
9.3502593061037302
30
0
10
-5.0083123678889399
20
8.3999999999999986
30
0
0
SPLINE
5
101
100
AcDbEntity
8
0
100
AcDbSpline
70
0
71
3
72
14
73
10
74
0
42
0.000000001
43
0.0000000001
44
0.0000000001
40
-29.761626358976919
40
-29.761626358976919
40
-29.761626358976919
40
-29.761626358976919
40
-25.623798169175085
40
-25.623798169175085
40
-22.714954132558066
40
-22.714954132558066
40
-19.037231043008749
40
-19.037231043008749
40
-14.279656392892152
40
-14.279656392892152
40
-14.279656392892152
40
-14.279656392892152
10
-5.0083123678889461
20
8.4000000000000021
30
-2.0980592591341539e-15
10
-4.8427089658879812
20
7.668705540538169
30
-3.4967654318902565e-15
10
-4.6834268443838702
20
7.0146240086898954
30
2.0980592591341539e-15
10
-4.2894581620905914
20
5.3074183546760274
30
2.0980592591341539e-15
10
-4.1310807150292082
20
4.6017145523971941
30
2.0980592591341539e-15
10
-3.7694682172676366
20
3.0044630620044099
30
2.0980592591341539e-15
10
-3.672402858435734
20
2.5734595313738917
30
6.9935308637805131e-16
10
-3.4096659705461909
20
1.3584035318453622
30
2.0980592591341539e-15
10
-3.2684449861168554
20
0.66724368186070382
30
-2.0980592591341539e-15
10
-3.1372130169940884
20
6.9935308637805131e-16
30
-6.9935308637805131e-16
0
LINE
5
102
100
AcDbEntity
8
0
100
AcDbLine
10
-3.1372130169940875
20
7.1281539353089995e-16
30
-6.9935308637805288e-16
11
38.039277882951005
21
0
31
-3.4967654318902565e-15
0
LINE
5
103
100
AcDbEntity
8
0
100
AcDbLine
10
38.039277882951005
20
0
30
-3.4967654318902565e-15
11
38.039277882951005
21
24
31
-6.9935308637805131e-16
0
LINE
5
104
100
AcDbEntity
8
0
100
AcDbLine
10
38.039277882951005
20
24
30
-6.9935308637805131e-16
11
-1.5899888232805888
21
24.000000000000018
31
2.0980592591341539e-15
0
SPLINE
5
105
100
AcDbEntity
8
0
100
AcDbSpline
70
0
71
3
72
14
73
10
74
0
42
0.000000001
43
0.0000000001
44
0.0000000001
40
-27.072003768372035
40
-27.072003768372035
40
-27.072003768372035
40
-27.072003768372035
40
-22.812036692907419
40
-22.812036692907419
40
-17.979788487819889
40
-17.979788487819889
40
-10.2907159209971
40
-10.2907159209971
40
-5.0594516973666943
40
-5.0594516973666943
40
-5.0594516973666943
40
-5.0594516973666943
10
-1.5899888232805914
20
24.000000000000028
30
0
10
-1.6411106751915832
20
23.036373165195915
30
0
10
-1.7245944860781282
20
21.968718534772627
30
0
10
-1.9656056108133315
20
19.844880824649476
30
0
10
-2.1440712435981659
20
18.681276143630107
30
0
10
-2.8111769103842592
20
15.79774641654536
30
0
10
-3.3563189766656309
20
14.426121509275273
30
0
10
-4.4959801906135048
20
12.532866620150362
30
0
10
-5.0047185752019034
20
11.90435154567472
30
0
10
-5.5347731818795181
20
11.364463915986217
30
0
0
SPLINE
5
106
100
AcDbEntity
8
0
100
AcDbSpline
70
0
71
3
72
8
73
4
74
0
42
0.000000001
43
0.0000000001
44
0.0000000001
40
-7.3911785162568719
40
-7.3911785162568719
40
-7.3911785162568719
40
-7.3911785162568719
40
-0.0066193929380163018
40
-0.0066193929380163018
40
-0.0066193929380163018
40
-0.0066193929380163018
10
-5.2877182344040721
20
11.402724246981974
30
0
10
-5.1314905959905142
20
10.393929759376675
30
0
10
-4.9572466458480005
20
9.3972491680063026
30
0
10
-4.7639127860988388
20
8.4526839752231524
30
0
0
SPLINE
5
107
100
AcDbEntity
8
0
100
AcDbSpline
70
0
71
3
72
17
73
13
74
0
42
0.000000001
43
0.0000000001
44
0.0000000001
40
-29.756836489407878
40
-29.756836489407878
40
-29.756836489407878
40
-29.756836489407878
40
-25.623798169175085
40
-25.623798169175085
40
-25.623798169175085
40
-22.714954132558066
40
-22.714954132558066
40
-22.714954132558066
40
-19.037231043008749
40
-19.037231043008749
40
-19.037231043008749
40
-14.279656392892152
40
-14.279656392892152
40
-14.279656392892152
40
-14.279656392892152
10
-4.7639127860990476
20
8.452683975223108
30
-2.1028885101388892e-15
10
-4.5990483039638725
20
7.7247660692584716
30
-3.4838244522443368e-15
10
-4.4398569009762694
20
7.0709595931692268
30
2.0980592591341539e-15
10
-4.2084893328435458
20
6.0683620816807702
30
2.0980592591341539e-15
10
-4.0456342875704419
20
5.3626535658247887
30
2.0980592591341539e-15
10
-3.8871823648915362
20
4.6566116617932582
30
2.0980592591341539e-15
10
-3.7275514879883582
20
3.9515180667858698
30
2.0980592591341539e-15
10
-3.5256188137808082
20
3.0595763699873415
30
2.0980592591341539e-15
10
-3.4282959133764828
20
2.6274331417405152
30
6.9935308637805131e-16
10
-3.313499029381255
20
2.0965421665675792
30
1.3091779136453823e-15
10
-3.1649091389876056
20
1.4093716697167797
30
2.0980592591341539e-15
10
-3.0233896260447954
20
0.71673596353595204
30
-2.0980592591341539e-15
10
-2.8919123781308205
20
0.048245171502156452
30
-6.9935308637805131e-16
0
SPLINE
5
108
100
AcDbEntity
8
0
100
AcDbSpline
70
0
71
3
72
8
73
4
74
0
42
0.000000001
43
0.0000000001
44
0.0000000001
40
-7.3911785162568719
40
-7.3911785162568719
40
-7.3911785162568719
40
-7.3911785162568719
40
-0.028224121153245362
40
-0.028224121153245362
40
-0.028224121153245362
40
-0.028224121153245362
10
-4.4971424024826474
20
11.525157306168399
30
0
10
-4.3429379424029193
20
10.529426903582477
30
0
10
-4.1712714615186934
20
9.5476387678971832
30
0
10
-3.9818296580737056
20
8.6212556696177298
30
0
0
SPLINE
5
109
100
AcDbEntity
8
0
100
AcDbSpline
70
0
71
3
72
23
73
19
74
0
42
0.000000001
43
0.0000000001
44
0.0000000001
40
-29.741258354276166
40
-29.741258354276166
40
-29.741258354276166
40
-29.741258354276166
40
-26.481986551612057
40
-26.481986551612057
40
-26.481986551612057
40
-25.623798169175085
40
-25.623798169175085
40
-25.623798169175085
40
-22.714954132558066
40
-22.714954132558066
40
-22.714954132558066
40
-19.581602336715228
40
-19.581602336715228
40
-19.581602336715228
40
-19.037231043008749
40
-19.037231043008749
40
-19.037231043008749
40
-14.279656392892152
40
-14.279656392892152
40
-14.279656392892152
40
-14.279656392892152
10
-3.9818296580737451
20
8.6212556696177209
30
-2.1182073347962816e-15
10
-3.8531887165130967
20
8.0535608151430527
30
-3.1659884475470898e-15
10
-3.7269994363128269
20
7.5268389313022999
30
8.6903562056431319e-17
10
-3.5649871908613777
20
6.8337167423925873
30
1.4883795109971863e-15
10
-3.522328267249879
20
6.6512129666579609
30
1.8573976385012138e-15
10
-3.4772140771682456
20
6.4572807074777989
30
2.0980592591341539e-15
10
-3.4289761908856566
20
6.2482488836283849
30
2.0980592591341539e-15
10
-3.2653978891059618
20
5.5394062415008243
30
2.0980592591341539e-15
10
-3.1067076444509834
20
4.8322824118606604
30
2.0980592591341539e-15
10
-2.9472977611134765
20
4.1281649509866893
30
2.0980592591341539e-15
10
-2.7752000343684289
20
3.36800496692004
30
2.0980592591341539e-15
10
-2.6786133089961832
20
2.9397568762237896
30
1.0827771004493606e-15
10
-2.5821727756200956
20
2.4984298090991426
30
1.1593497180434838e-15
10
-2.5654177282011186
20
2.4217560737091119
30
1.1726530231359758e-15
10
-2.5486790700955568
20
2.344741851629105
30
1.2189125178908238e-15
10
-2.5315706318208893
20
2.2656219734301302
30
1.3091779136453823e-15
10
-2.3816872780001348
20
1.5724697109053167
30
2.0980592591341539e-15
10
-2.2392124738142023
20
0.87511126489674607
30
-2.0980592591341539e-15
10
-2.1069503337683617
20
0.20262972030905482
30
-6.9935308637805131e-16
0
LINE
5
110
100
AcDbEntity
8
0
100
AcDbLine
10
-4.4971424024826474
20
11.525157306168399
30
0
11
-4.634100293187716
21
12.409523008551901
31
0
0
LINE
5
111
100
AcDbEntity
8
0
100
AcDbLine
10
-5.2877182344040721
20
11.402724246981974
30
0
11
-5.3171266295422868
21
11.592620395998939
31
0
0
LINE
5
112
100
AcDbEntity
8
0
100
AcDbLine
10
-2.8919123781308205
20
0.048245171502156466
30
-6.9935308637805288e-16
11
-2.8824236275753448
21
7.0891455435587622e-16
31
-5.9840806216845907e-16
0
LINE
5
113
100
AcDbEntity
8
0
100
AcDbLine
10
-2.1069503337683617
20
0.20262972030905488
30
-6.9935308637805288e-16
11
-2.0670975814353629
21
6.9429038718262224e-16
31
-2.9782024126820546e-16
0
ENDSEC
0
SECTION
2
OBJECTS
0
DICTIONARY
5
C
100
AcDbDictionary
3
ACAD_GROUP
350
D
3
ACAD_MLINESTYLE
350
17
0
DICTIONARY
5
D
100
AcDbDictionary
0
DICTIONARY
5
1A
330
C
100
AcDbDictionary
0
DICTIONARY
5
17
100
AcDbDictionary
0
ENDSEC
0
EOF
