0
SECTION
2
HEADER
9
$INSUNITS
70
1
9
$ACADVER
1
AC1014
9
$HANDSEED
5
FFFF
0
ENDSEC
0
SECTION
2
TABLES
0
TABLE
2
VPORT
5
8
100
AcDbSymbolTable
0
ENDTAB
0
TABLE
2
LTYPE
5
5
100
AcDbSymbolTable
0
LTYPE
5
14
100
AcDbSymbolTableRecord
100
AcDbLinetypeTableRecord
2
BYBLOCK
70
0
0
LTYPE
5
15
100
AcDbSymbolTableRecord
100
AcDbLinetypeTableRecord
2
BYLAYER
70
0
0
ENDTAB
0
TABLE
2
LAYER
5
2
100
AcDbSymbolTable
70
2
0
LAYER
5
50
100
AcDbSymbolTableRecord
100
AcDbLayerTableRecord
2
0
70
0
6
CONTINUOUS
0
ENDTAB
0
TABLE
2
STYLE
5
3
100
AcDbSymbolTable
70
1
0
STYLE
5
11
100
AcDbSymbolTableRecord
100
AcDbTextStyleTableRecord
2
STANDARD
70
0
0
ENDTAB
0
TABLE
2
VIEW
5
6
100
AcDbSymbolTable
70
0
0
ENDTAB
0
TABLE
2
UCS
5
7
100
AcDbSymbolTable
70
0
0
ENDTAB
0
TABLE
2
APPID
5
9
100
AcDbSymbolTable
70
2
0
APPID
5
12
100
AcDbSymbolTableRecord
100
AcDbRegAppTableRecord
2
ACAD
70
0
0
ENDTAB
0
TABLE
2
DIMSTYLE
5
A
100
AcDbSymbolTable
70
1
0
ENDTAB
0
TABLE
2
BLOCK_RECORD
5
1
100
AcDbSymbolTable
70
1
0
BLOCK_RECORD
5
1F
100
AcDbSymbolTableRecord
100
AcDbBlockTableRecord
2
*MODEL_SPACE
0
BLOCK_RECORD
5
1B
100
AcDbSymbolTableRecord
100
AcDbBlockTableRecord
2
*PAPER_SPACE
0
ENDTAB
0
ENDSEC
0
SECTION
2
BLOCKS
0
BLOCK
5
20
100
AcDbEntity
100
AcDbBlockBegin
2
*MODEL_SPACE
0
ENDBLK
5
21
100
AcDbEntity
100
AcDbBlockEnd
0
BLOCK
5
1C
100
AcDbEntity
100
AcDbBlockBegin
2
*PAPER_SPACE
0
ENDBLK
5
1D
100
AcDbEntity
100
AcDbBlockEnd
0
ENDSEC
0
SECTION
2
ENTITIES
0
LINE
5
100
100
AcDbEntity
8
0
100
AcDbLine
10
18.598107183707604
20
18.150000000002908
30
0
11
-18.598107183710709
21
18.149999999999999
31
-5.5948246910244104e-15
0
SPLINE
5
101
100
AcDbEntity
8
0
100
AcDbSpline
70
0
71
3
72
20
73
16
74
0
42
0.000000001
43
0.0000000001
44
0.0000000001
40
-53.627630461478503
40
-53.627630461478503
40
-53.627630461478503
40
-53.627630461478503
40
-42.393498248581402
40
-42.393498248581402
40
-31.214539364304031
40
-31.214539364304031
40
-24.06739202565732
40
-24.06739202565732
40
-19.748704359387855
40
-19.748704359387855
40
-19.188604672170996
40
-19.188604672170996
40
-14.982030523908616
40
-14.982030523908616
40
-5.9241483265531354
40
-5.9241483265531354
40
-5.9241483265531354
40
-5.9241483265531354
10
-18.598107183710727
20
18.149999999999977
30
0
10
-19.176644576059886
20
17.066033343208939
30
0
10
-19.675771870030989
20
15.619353829163046
30
0
10
-20.471861288578523
20
11.260134486681352
30
0
10
-20.693524699765995
20
8.7620025006216107
30
0
10
-20.909792796680374
20
5.2216260394181466
30
0
10
-20.968200976582338
20
3.7892954439362452
30
0
10
-21.020059310092499
20
1.5772578932793182
30
0
10
-21.030095837102838
20
0.83325639197512347
30
0
10
-21.030631451361074
20
-0.36972391368161073
30
0
10
-21.030676214141213
20
-0.50799304016142044
30
0
10
-21.030907849320037
20
-1.6833345451680342
30
0
10
-21.030147071098661
20
-2.8353964555742031
30
0
10
-21.021182580086709
20
-6.1638513188403632
30
0
10
-21.006121630653048
20
-7.9565337632285607
30
0
10
-20.966874836443225
20
-9.4524486845624196
30
0
0
LINE
5
102
100
AcDbEntity
8
0
100
AcDbLine
10
-20.966874836443225
20
-9.4524486845624214
30
0
11
20.966874836443225
21
-9.4524486845624391
31
0
0
SPLINE
5
103
100
AcDbEntity
8
0
100
AcDbSpline
70
0
71
3
72
24
73
20
74
0
42
0.000000001
43
0.0000000001
44
0.0000000001
40
-118.59556742948945
40
-118.59556742948945
40
-118.59556742948945
40
-118.59556742948945
40
-105.29442681012124
40
-105.29442681012124
40
-97.833996918114792
40
-97.833996918114792
40
-97.490569600677844
40
-97.490569600677844
40
-96.404183587576512
40
-96.404183587576512
40
-93.504068976556326
40
-93.504068976556326
40
-83.114493158375751
40
-83.114493158375751
40
-70.747579291266575
40
-70.747579291266575
40
-58.867023783184578
40
-58.867023783184578
40
-58.283159374325358
40
-58.283159374325358
40
-58.283159374325358
40
-58.283159374325358
10
20.966874836443225
20
-9.4524486845624445
30
0
10
21.006976628604413
20
-7.9239450074102376
30
0
10
21.021296771334914
20
-6.1190327945794589
30
0
10
21.030664650537648
20
-2.6445782976095544
30
0
10
21.031155921754383
20
-1.2390475665167098
30
0
10
21.030430613242885
20
0.036352655328427047
30
0
10
21.030368392589086
20
0.092479690184065058
30
0
10
21.029863512148328
20
0.32615647699939071
30
0
10
21.02898171367492
20
0.50389949807779
30
0
10
21.024040460638695
20
1.1554067406704422
30
0
10
21.017101315298689
20
1.6323258485159569
30
0
10
20.971971218121677
20
3.8041810178279785
30
0
10
20.896417179288992
20
5.6051809850277641
30
0
10
20.640829680399488
20
9.3359316331702917
30
0
10
20.416160664814477
20
11.656348316173558
30
0
10
19.65248144446171
20
15.647331680910147
30
0
10
19.196597242052672
20
16.982136406387827
30
0
10
18.651324985602589
20
18.049177382586041
30
0
10
18.625087271981073
20
18.099449220622418
30
0
10
18.598107183708812
20
18.150000000003555
30
0
0
SPLINE
5
104
100
AcDbEntity
8
0
100
AcDbSpline
70
0
71
3
72
29
73
25
74
0
42
0.000000001
43
0.0000000001
44
0.0000000001
40
-53.164776811667934
40
-53.164776811667934
40
-53.164776811667934
40
-53.164776811667934
40
-44.044682228501685
40
-44.044682228501685
40
-44.044682228501685
40
-42.393498248581402
40
-42.393498248581402
40
-42.393498248581402
40
-31.214539364304031
40
-31.214539364304031
40
-31.214539364304031
40
-24.06739202565732
40
-24.06739202565732
40
-24.06739202565732
40
-19.748704359387855
40
-19.748704359387855
40
-19.748704359387855
40
-19.188604672170996
40
-19.188604672170996
40
-19.188604672170996
40
-14.982030523908616
40
-14.982030523908616
40
-14.982030523908616
40
-6.4113720033220236
40
-6.4113720033220236
40
-6.4113720033220236
40
-6.4113720033220236
10
-18.446789733863451
20
17.900000000000013
30
0
10
-18.89916096467941
20
17.018530485926213
30
0
10
-19.304025502650177
20
15.886783788453183
30
0
10
-19.648095211445256
20
14.298239639601809
30
0
10
-19.710388687237373
20
14.010635314223324
30
0
10
-19.77067341204113
20
13.708104509479165
30
0
10
-19.828863818728152
20
13.389465999197565
30
0
10
-20.222802900061417
20
11.232337888839567
30
0
10
-20.444313599519781
20
8.7414593013314228
30
0
10
-20.575913780082985
20
6.5871231407808883
30
0
10
-20.660044651319229
20
5.209874436811079
30
0
10
-20.718339949495434
20
3.7804374405074492
30
0
10
-20.750595175372098
20
2.4045781327624893
30
0
10
-20.770093281837266
20
1.5728787558587969
30
0
10
-20.780096538201231
20
0.83162608225591317
30
0
10
-20.780569985988315
20
-0.23172941072761727
30
0
10
-20.780631467113874
20
-0.36981494911914559
30
0
10
-20.780676223161393
20
-0.50806344438160234
30
0
10
-20.780703436883524
20
-0.64614876151584555
30
0
10
-20.780907822893223
20
-1.6832250875787051
30
0
10
-20.780146981857445
20
-2.8350929297140111
30
0
10
-20.777305057223195
20
-3.8902803193034567
30
0
10
-20.771514678380669
20
-6.0402088085913705
30
0
10
-20.757711967327481
20
-7.7594562063834598
30
0
10
-20.723072532032742
20
-9.2024486845624214
30
0
0
LINE
5
105
100
AcDbEntity
8
0
100
AcDbLine
10
-20.723072532032742
20
-9.2024486845624214
30
0
11
20.72307515282608
21
-9.2024486845624391
31
0
0
SPLINE
5
106
100
AcDbEntity
8
0
100
AcDbSpline
70
0
71
3
72
35
73
31
74
0
42
0.000000001
43
0.0000000001
44
0.0000000001
40
-117.89455534229589
40
-117.89455534229589
40
-117.89455534229589
40
-117.89455534229589
40
-105.29442681012124
40
-105.29442681012124
40
-105.29442681012124
40
-97.833996918114792
40
-97.833996918114792
40
-97.833996918114792
40
-97.490569600677844
40
-97.490569600677844
40
-97.490569600677844
40
-96.404183587576512
40
-96.404183587576512
40
-96.404183587576512
40
-93.504068976556326
40
-93.504068976556326
40
-93.504068976556326
40
-83.114493158375751
40
-83.114493158375751
40
-83.114493158375751
40
-70.747579291266575
40
-70.747579291266575
40
-70.747579291266575
40
-59.854344982836167
40
-59.854344982836167
40
-59.854344982836167
40
-58.867023783184578
40
-58.867023783184578
40
-58.867023783184578
40
-58.80883501205053
40
-58.80883501205053
40
-58.80883501205053
40
-58.80883501205053
10
20.72307515282608
20
-9.2024486845624391
30
0
10
20.7584579609392
20
-7.729731549348605
30
0
10
20.77161579330118
20
-6.0003736505459537
30
0
10
20.777299320342291
20
-3.8924092266587351
30
0
10
20.780664372083976
20
-2.6443445469788718
30
0
10
20.781155861855353
20
-1.2390133249520043
30
0
10
20.780462572597049
20
-0.019916540858109164
30
0
10
20.780430704839592
20
0.036120503077923097
30
0
10
20.780368597276205
20
0.092114879823106219
30
0
10
20.780247708714104
20
0.14806644473683692
30
0
10
20.77986510521087
20
0.32514907666685666
30
0
10
20.77898558431226
20
0.50244112319017109
30
0
10
20.777642332127925
20
0.67954974731917772
30
0
10
20.774056509712352
20
1.1523426314868634
30
0
10
20.767133575601029
20
1.6281761843960132
30
0
10
20.757306851266311
20
2.1010805958370518
30
0
10
20.722102898590784
20
3.7952468259400618
30
0
10
20.646683414106775
20
5.5927413011418983
30
0
10
20.530312195296084
20
7.2913846302932397
30
0
10
20.391781716954554
20
9.3134814625157656
30
0
10
20.16735943012754
20
11.626379712802295
30
0
10
19.781117009554894
20
13.644880457851986
30
0
10
19.440872595251832
20
15.422995877570754
30
0
10
19.034585526832512
20
16.672738669016759
30
0
10
18.579274157619434
20
17.631640571221126
30
0
10
18.538006472142538
20
17.718551781393106
30
0
10
18.496329472133741
20
17.803087714401428
30
0
10
18.454249410093091
20
17.885434010122871
30
0
10
18.45176959131075
20
17.890286757026836
30
0
10
18.449283147911991
20
17.895142088870188
30
0
10
18.446790033842099
20
17.90000000000288
30
0
0
LINE
5
107
100
AcDbEntity
8
0
100
AcDbLine
10
18.446790033842099
20
17.90000000000288
30
0
11
-18.446789733863451
21
17.900000000000013
31
0
0
SPLINE
5
108
100
AcDbEntity
8
0
100
AcDbSpline
70
0
71
3
72
35
73
31
74
0
42
0.000000001
43
0.0000000001
44
0.0000000001
40
-111.45198357380423
40
-111.45198357380423
40
-111.45198357380423
40
-111.45198357380423
40
-105.29442681012124
40
-105.29442681012124
40
-105.29442681012124
40
-97.833996918114792
40
-97.833996918114792
40
-97.833996918114792
40
-97.490569600677844
40
-97.490569600677844
40
-97.490569600677844
40
-96.404183587576512
40
-96.404183587576512
40
-96.404183587576512
40
-93.504068976556326
40
-93.504068976556326
40
-93.504068976556326
40
-83.114493158375751
40
-83.114493158375751
40
-83.114493158375751
40
-76.151610888952078
40
-76.151610888952078
40
-76.151610888952078
40
-70.747579291266575
40
-70.747579291266575
40
-70.747579291266575
40
-64.766099029941145
40
-64.766099029941145
40
-64.766099029941145
40
-64.667333456849917
40
-64.667333456849917
40
-64.667333456849917
40
-64.667333456849917
10
18.262002646483591
20
-6.7024486845624427
30
0
10
18.269995285117997
20
-5.8470534453706948
30
0
10
18.27453975943148
20
-4.91253303340073
30
0
10
18.277308407267473
20
-3.8856687115931199
30
0
10
18.280661587547261
20
-2.6420070406720408
30
0
10
18.281155262865031
20
-1.238670909304953
30
0
10
18.280462976858637
20
-0.021338267900704307
30
0
10
18.280431620806681
20
0.033798980572883712
30
0
10
18.280370644147418
20
0.088466776213517839
30
0
10
18.280253543896567
20
0.14266497472767506
30
0
10
18.279881035836326
20
0.3150750733415158
30
0
10
18.279024290685634
20
0.48785737431398085
30
0
10
18.277714231809956
20
0.66058944034406586
30
0
10
18.274217000448918
20
1.1217015396510763
30
0
10
18.267456178624485
20
1.5866795431965792
30
0
10
18.257846411847797
20
2.0491430200194269
30
0
10
18.223419703281852
20
3.7059049070608898
30
0
10
18.149345762284646
20
5.4683444622832367
30
0
10
18.036158363765082
20
7.1205143149683403
30
0
10
17.96023089958166
20
8.2288096637036414
30
0
10
17.85819636996689
20
9.4195020146935047
30
0
10
17.718976370829076
20
10.581262990657217
30
0
10
17.610924956880236
20
11.482928821003865
30
0
10
17.480215977218712
20
12.367351733446474
30
0
10
17.325666360051578
20
13.175027174524367
30
0
10
17.154434219146733
20
14.069885392014941
30
0
10
16.970322203615893
20
14.789016987836821
30
0
10
16.783342188354691
20
15.371268598108207
30
0
10
16.78025479400462
20
15.380882675470222
30
0
10
16.777166317741614
20
15.390460666939793
30
0
10
16.774077702361261
20
15.400000000002764
30
0
0
LINE
5
109
100
AcDbEntity
8
0
100
AcDbLine
10
16.774077702361261
20
15.400000000002763
30
0
11
-16.773945761423189
21
15.400000000000141
31
-5.3204456032759815e-15
0
SPLINE
5
110
100
AcDbEntity
8
0
100
AcDbSpline
70
0
71
3
72
35
73
31
74
0
42
0.000000001
43
0.0000000001
44
0.0000000001
40
-48.113182170398787
40
-48.113182170398787
40
-48.113182170398787
40
-48.113182170398787
40
-42.988313986795632
40
-42.988313986795632
40
-42.988313986795632
40
-42.393498248581402
40
-42.393498248581402
40
-42.393498248581402
40
-36.877095872219833
40
-36.877095872219833
40
-36.877095872219833
40
-31.214539364304031
40
-31.214539364304031
40
-31.214539364304031
40
-24.06739202565732
40
-24.06739202565732
40
-24.06739202565732
40
-20.108747649376117
40
-20.108747649376117
40
-20.108747649376117
40
-19.748704359387855
40
-19.748704359387855
40
-19.748704359387855
40
-19.188604672170996
40
-19.188604672170996
40
-19.188604672170996
40
-14.982030523908616
40
-14.982030523908616
40
-14.982030523908616
40
-10.835426495290694
40
-10.835426495290694
40
-10.835426495290694
40
-10.835426495290694
10
-16.773945761423189
20
15.400000000000139
30
0
10
-16.959479557547713
20
14.827011433062697
30
0
10
-17.141624613336614
20
14.122780918013175
30
0
10
-17.311063512727745
20
13.250759154291519
30
0
10
-17.330729369567926
20
13.14954830348632
30
0
10
-17.350225007771112
20
13.046091289865901
30
0
10
-17.369537719994373
20
12.940338912409324
30
0
10
-17.548507512954252
20
11.960337715289945
30
0
10
-17.694299192469568
20
10.871972554009345
30
0
10
-17.80978839923333
20
9.7715921600072875
30
0
10
-17.92833743078268
20
8.6420577757970793
30
0
10
-18.015544774606887
20
7.4990960291686672
30
0
10
-18.080565169283688
20
6.4346918100709178
30
0
10
-18.162563197707801
20
5.0923584107403972
30
0
10
-18.219729678626408
20
3.691857406219488
30
0
10
-18.251281900853233
20
2.3459849948214586
30
0
10
-18.268836397488514
20
1.5971910573432397
30
0
10
-18.278396351358602
20
0.93551807815755572
30
0
10
-18.280257749438771
20
0.022653077417478542
30
0
10
-18.280427045749594
20
-0.060373051464134186
30
0
10
-18.280531326906821
20
-0.14545833552023194
30
0
10
-18.280570233785959
20
-0.23284250917700014
30
0
10
-18.280631624641863
20
-0.37072530349449406
30
0
10
-18.28067631336317
20
-0.50876748658342141
30
0
10
-18.280703485433708
20
-0.64664145911338933
30
0
10
-18.280907558625067
20
-1.6821305116854148
30
0
10
-18.280146089445285
20
-2.8320576711120933
30
0
10
-18.2773141244312
20
-3.8835471211176236
30
0
10
-18.274521909799432
20
-4.920277523101503
30
0
10
-18.26986383794944
20
-5.8544211412601497
30
0
10
-18.261934143742369
20
-6.7024486845624205
30
0
0
LINE
5
111
100
AcDbEntity
8
0
100
AcDbLine
10
-18.261934143742369
20
-6.7024486845624205
30
0
11
18.262002646483591
21
-6.7024486845624427
31
0
0
LINE
5
112
100
AcDbEntity
8
0
100
AcDbLine
10
-18.261934143742369
20
-6.7024486845624205
30
0
11
-18.236219579113332
21
-9.4524486845624232
31
0
0
LINE
5
113
100
AcDbEntity
8
0
100
AcDbLine
10
18.262002646483591
20
-6.7024486845624427
30
0
11
18.238643156425052
21
-9.2024486845624374
31
0
0
LINE
5
114
100
AcDbEntity
8
0
100
AcDbLine
10
18.598107183707604
20
18.150000000002908
30
0
11
18.446790033842099
21
17.90000000000288
31
0
0
LINE
5
115
100
AcDbEntity
8
0
100
AcDbLine
10
-18.446789733863451
20
17.900000000000013
30
0
11
-18.598107183710709
21
18.149999999999999
31
-5.5948246910244104e-15
0
LINE
5
116
100
AcDbEntity
8
0
100
AcDbLine
10
16.774077702361261
20
15.400000000002763
30
0
11
15.883691315817726
21
18.150000000002695
31
0
0
LINE
5
117
100
AcDbEntity
8
0
100
AcDbLine
10
-16.773945761423189
20
15.400000000000141
30
-5.3204456032759815e-15
11
-15.88349529036142
21
18.150000000000212
31
-5.3204456032759815e-15
0
ENDSEC
0
SECTION
2
OBJECTS
0
DICTIONARY
5
C
100
AcDbDictionary
3
ACAD_GROUP
350
D
3
ACAD_MLINESTYLE
350
17
0
DICTIONARY
5
D
100
AcDbDictionary
0
DICTIONARY
5
1A
330
C
100
AcDbDictionary
0
DICTIONARY
5
17
100
AcDbDictionary
0
ENDSEC
0
EOF
